<svg xmlns="http://www.w3.org/2000/svg" xmlns:xlink="http://www.w3.org/1999/xlink" contentStyleType="text/css" data-diagram-type="CLASS" height="695px" preserveAspectRatio="none" style="width:3547px;height:695px;background:#FFFFFF;" version="1.1" viewBox="0 0 3547 695" width="3547px" zoomAndPan="magnify"><?plantuml 1.2026.3?><defs/><g><g class="title" data-source-line="1"><text fill="#000000" font-family="sans-serif" font-size="14" font-weight="700" lengthAdjust="spacing" textLength="181.2549" x="1679.8233" y="24.5332">ControlledVocabularyEntry</text></g><!--class ControlledVocabularyEntry--><g class="entity" data-qualified-name="ControlledVocabularyEntry" data-source-line="16" id="ent0002"><rect fill="#FAE5D3" height="289.6875" rx="2.5" ry="2.5" style="stroke:#404040;stroke-width:0.5;" width="471.5596" x="1465.71" y="390.6094"/><text fill="#000000" font-family="sans-serif" font-size="36" font-style="italic" lengthAdjust="spacing" textLength="190.1426" x="1606.4185" y="432.9805">&#171;dataType&#187;</text><text fill="#000000" font-family="sans-serif" font-size="30" lengthAdjust="spacing" textLength="356.8506" x="1523.0645" y="472.0332">ControlledVocabularyEntry</text><line style="stroke:#404040;stroke-width:0.5;" x1="1466.71" x2="1936.2696" y1="483.625" y2="483.625"/><g data-visibility-modifier="PUBLIC_FIELD"><ellipse cx="1476.71" cy="507.9922" fill="none" rx="3" ry="3" style="stroke:#038048;stroke-width:1;"/></g><text fill="#000000" font-family="sans-serif" font-size="30" lengthAdjust="spacing" textLength="438.5596" x="1492.71" y="518.7676">entryReference : Reference [1..*]</text><g data-visibility-modifier="PUBLIC_FIELD"><ellipse cx="1476.71" cy="545.7266" fill="none" rx="3" ry="3" style="stroke:#038048;stroke-width:1;"/></g><text fill="#000000" font-family="sans-serif" font-size="30" lengthAdjust="spacing" textLength="311.8213" x="1492.71" y="556.502">entryValue : string [1..*]</text><g data-visibility-modifier="PUBLIC_FIELD"><ellipse cx="1476.71" cy="583.4609" fill="none" rx="3" ry="3" style="stroke:#038048;stroke-width:1;"/></g><text fill="#000000" font-family="sans-serif" font-size="30" lengthAdjust="spacing" textLength="215.0977" x="1492.71" y="594.2363">name : string [1]</text><g data-visibility-modifier="PUBLIC_FIELD"><ellipse cx="1476.71" cy="621.1953" fill="none" rx="3" ry="3" style="stroke:#038048;stroke-width:1;"/></g><text fill="#000000" font-family="sans-serif" font-size="30" lengthAdjust="spacing" textLength="331.8018" x="1492.71" y="631.9707">valueForOther : string [1]</text><g data-visibility-modifier="PUBLIC_FIELD"><ellipse cx="1476.71" cy="658.9297" fill="none" rx="3" ry="3" style="stroke:#038048;stroke-width:1;"/></g><text fill="#000000" font-family="sans-serif" font-size="30" lengthAdjust="spacing" textLength="350.1855" x="1492.71" y="669.7051">vocabulary : Reference [1]</text></g><!--class RepresentedVariable--><g class="entity" data-qualified-name="RepresentedVariable" data-source-line="23" id="ent0003"><rect fill="#EEEEEE" height="47.7344" rx="2.5" ry="2.5" style="stroke:#404040;stroke-width:0.5;" width="287.8506" x="375.71" y="45.6094"/><text fill="#000000" font-family="sans-serif" font-size="30" lengthAdjust="spacing" textLength="281.8506" x="378.71" y="81.752">RepresentedVariable</text></g><!--class DescriptorVariable--><g class="entity" data-qualified-name="DescriptorVariable" data-source-line="27" id="ent0007"><rect fill="#EEEEEE" height="47.7344" rx="2.5" ry="2.5" style="stroke:#404040;stroke-width:0.5;" width="252.7676" x="1812.21" y="45.6094"/><text fill="#000000" font-family="sans-serif" font-size="30" lengthAdjust="spacing" textLength="246.7676" x="1815.21" y="81.752">DescriptorVariable</text></g><!--class DescriptorValueDomain--><g class="entity" data-qualified-name="DescriptorValueDomain" data-source-line="35" id="ent0015"><rect fill="#EEEEEE" height="47.7344" rx="2.5" ry="2.5" style="stroke:#404040;stroke-width:0.5;" width="322.8018" x="3005.21" y="45.6094"/><text fill="#000000" font-family="sans-serif" font-size="30" lengthAdjust="spacing" textLength="316.8018" x="3008.21" y="81.752">DescriptorValueDomain</text></g><!--link RepresentedVariable to ControlledVocabularyEntry--><g class="link" data-entity-1="ent0003" data-entity-2="ent0002" data-link-type="dependency" data-source-line="24" id="lnk4"><path codeLine="24" d="M375.45,86.5294 C220,109.3794 6,160.8194 94.71,265.6094 C267.54,469.7694 1056.0826,518.9133 1459.4026,530.7533" fill="none" id="RepresentedVariable-to-ControlledVocabularyEntry" style="stroke:#404040;stroke-width:1.2;stroke-dasharray:7,7;"/><polygon fill="#404040" points="1465.4,530.9294,1456.5213,526.667,1460.4022,530.7827,1456.2865,534.6636,1465.4,530.9294" style="stroke:#404040;stroke-width:1.2;"/><text fill="#000000" font-family="sans-serif" font-size="36" lengthAdjust="spacing" textLength="398.1797" x="95.71" y="256.9805">describedUnitOfMeasure</text></g><!--link RepresentedVariable to ControlledVocabularyEntry--><g class="link" data-entity-1="ent0003" data-entity-2="ent0002" data-link-type="dependency" data-source-line="25" id="lnk5"><path codeLine="25" d="M511.41,93.7294 C498.72,133.5794 479.91,215.7294 519.71,265.6094 C635.76,411.0394 1149.38,483.3 1459.73,514.46" fill="none" id="RepresentedVariable-to-ControlledVocabularyEntry-1" style="stroke:#404040;stroke-width:1.2;stroke-dasharray:7,7;"/><polygon fill="#404040" points="1465.7,515.0594,1457.1446,510.1803,1460.725,514.5599,1456.3454,518.1403,1465.7,515.0594" style="stroke:#404040;stroke-width:1.2;"/><text fill="#000000" font-family="sans-serif" font-size="36" lengthAdjust="spacing" textLength="354.252" x="520.71" y="256.9805">hasIntendedDataType</text></g><!--link RepresentedVariable to ControlledVocabularyEntry--><g class="link" data-entity-1="ent0003" data-entity-2="ent0002" data-link-type="dependency" data-source-line="26" id="lnk6"><path codeLine="26" d="M630.89,93.6594 C708.22,114.7094 809.15,152.8694 876.71,218.6094 C893.11,234.5694 880.76,250.2394 897.71,265.6094 C1054.83,408.1394 1283.9651,474.3753 1459.3851,505.9853" fill="none" id="RepresentedVariable-to-ControlledVocabularyEntry-2" style="stroke:#404040;stroke-width:1.2;stroke-dasharray:7,7;"/><polygon fill="#404040" points="1465.29,507.0494,1457.142,501.5167,1460.3693,506.1627,1455.7233,509.3899,1465.29,507.0494" style="stroke:#404040;stroke-width:1.2;"/><text fill="#000000" font-family="sans-serif" font-size="36" lengthAdjust="spacing" textLength="308.1621" x="898.71" y="256.9805">unitOfMeasureKind</text></g><!--link DescriptorVariable to ControlledVocabularyEntry--><g class="link" data-entity-1="ent0007" data-entity-2="ent0002" data-link-type="dependency" data-source-line="28" id="lnk8"><path codeLine="28" d="M1812.12,78.6494 C1629.7,93.1594 1306.93,130.8394 1235.71,218.6094 C1146.17,328.9594 1302.9316,413.9122 1460.0316,468.4322" fill="none" id="DescriptorVariable-to-ControlledVocabularyEntry" style="stroke:#404040;stroke-width:1.2;stroke-dasharray:7,7;"/><polygon fill="#404040" points="1465.7,470.3994,1458.5089,463.6697,1460.9764,468.7601,1455.886,471.2276,1465.7,470.3994" style="stroke:#404040;stroke-width:1.2;"/><text fill="#000000" font-family="sans-serif" font-size="36" lengthAdjust="spacing" textLength="126.0879" x="1236.71" y="256.9805">function</text></g><!--link DescriptorVariable to ControlledVocabularyEntry--><g class="link" data-entity-1="ent0007" data-entity-2="ent0002" data-link-type="dependency" data-source-line="29" id="lnk9"><path codeLine="29" d="M1812.16,86.8094 C1666.27,108.3994 1439.92,151.7994 1388.71,218.6094 C1336.22,287.0994 1384.3587,352.4651 1460.7287,408.3751" fill="none" id="DescriptorVariable-to-ControlledVocabularyEntry-1" style="stroke:#404040;stroke-width:1.2;stroke-dasharray:7,7;"/><polygon fill="#404040" points="1465.57,411.9194,1460.6709,403.3754,1461.5356,408.9658,1455.9452,409.8305,1465.57,411.9194" style="stroke:#404040;stroke-width:1.2;"/><text fill="#000000" font-family="sans-serif" font-size="36" lengthAdjust="spacing" textLength="286.1367" x="1389.71" y="256.9805">physicalDataType</text></g><!--link DescriptorVariable to ControlledVocabularyEntry--><g class="link" data-entity-1="ent0007" data-entity-2="ent0002" data-link-type="dependency" data-source-line="30" id="lnk10"><path codeLine="30" d="M1866.91,93.6594 C1810.8,115.8994 1736.64,155.6094 1701.71,218.6094 C1673.24,269.9494 1668.1256,327.5859 1672.3356,384.2659" fill="none" id="DescriptorVariable-to-ControlledVocabularyEntry-2" style="stroke:#404040;stroke-width:1.2;stroke-dasharray:7,7;"/><polygon fill="#404040" points="1672.78,390.2494,1676.1024,380.9778,1672.4096,385.2631,1668.1243,381.5704,1672.78,390.2494" style="stroke:#404040;stroke-width:1.2;"/><text fill="#000000" font-family="sans-serif" font-size="36" lengthAdjust="spacing" textLength="210.0762" x="1702.71" y="256.9805">platformType</text></g><!--link DescriptorVariable to ControlledVocabularyEntry--><g class="link" data-entity-1="ent0007" data-entity-2="ent0002" data-link-type="dependency" data-source-line="31" id="lnk11"><path codeLine="31" d="M1939.81,93.8494 C1940.75,131.4794 1939.06,207.3894 1914.71,265.6094 C1896.32,309.5794 1872.3001,347.5828 1842.9101,385.5928" fill="none" id="DescriptorVariable-to-ControlledVocabularyEntry-3" style="stroke:#404040;stroke-width:1.2;stroke-dasharray:7,7;"/><polygon fill="#404040" points="1839.24,390.3394,1847.9096,385.6663,1842.2985,386.3839,1841.5808,380.7727,1839.24,390.3394" style="stroke:#404040;stroke-width:1.2;"/><text fill="#000000" font-family="sans-serif" font-size="36" lengthAdjust="spacing" textLength="60.0293" x="1930.71" y="256.9805">role</text></g><!--link DescriptorVariable to ControlledVocabularyEntry--><g class="link" data-entity-1="ent0007" data-entity-2="ent0002" data-link-type="dependency" data-source-line="32" id="lnk12"><path codeLine="32" d="M1955.92,93.7994 C1981.29,131.0194 2023.03,205.9994 1996.71,265.6094 C1976.14,312.2094 1947.331,350.0153 1910.621,386.2353" fill="none" id="DescriptorVariable-to-ControlledVocabularyEntry-4" style="stroke:#404040;stroke-width:1.2;stroke-dasharray:7,7;"/><polygon fill="#404040" points="1906.35,390.4494,1915.5659,386.9757,1909.9092,386.9377,1909.9472,381.2809,1906.35,390.4494" style="stroke:#404040;stroke-width:1.2;"/><text fill="#000000" font-family="sans-serif" font-size="36" lengthAdjust="spacing" textLength="398.1797" x="2006.71" y="256.9805">describedUnitOfMeasure</text></g><!--link DescriptorVariable to ControlledVocabularyEntry--><g class="link" data-entity-1="ent0007" data-entity-2="ent0002" data-link-type="dependency" data-source-line="33" id="lnk13"><path codeLine="33" d="M2065.24,77.4394 C2233.8,91.6394 2500.92,134.8994 2410.71,265.6094 C2305.18,418.5194 2106.4496,483.552 1944.0396,512.062" fill="none" id="DescriptorVariable-to-ControlledVocabularyEntry-5" style="stroke:#404040;stroke-width:1.2;stroke-dasharray:7,7;"/><polygon fill="#404040" points="1938.13,513.0994,1947.6861,515.483,1943.0547,512.2349,1946.3029,507.6035,1938.13,513.0994" style="stroke:#404040;stroke-width:1.2;"/><text fill="#000000" font-family="sans-serif" font-size="36" lengthAdjust="spacing" textLength="354.252" x="2429.71" y="256.9805">hasIntendedDataType</text></g><!--link DescriptorVariable to ControlledVocabularyEntry--><g class="link" data-entity-1="ent0007" data-entity-2="ent0002" data-link-type="dependency" data-source-line="34" id="lnk14"><path codeLine="34" d="M2065.68,78.0094 C2324.67,95.6194 2882.04,147.6794 2789.71,265.6094 C2685.96,398.1394 2231.5248,473.654 1943.8948,509.174" fill="none" id="DescriptorVariable-to-ControlledVocabularyEntry-6" style="stroke:#404040;stroke-width:1.2;stroke-dasharray:7,7;"/><polygon fill="#404040" points="1937.94,509.9094,1947.3624,512.7762,1942.9023,509.2966,1946.3819,504.8365,1937.94,509.9094" style="stroke:#404040;stroke-width:1.2;"/><text fill="#000000" font-family="sans-serif" font-size="36" lengthAdjust="spacing" textLength="308.1621" x="2800.71" y="256.9805">unitOfMeasureKind</text></g><!--link DescriptorValueDomain to ControlledVocabularyEntry--><g class="link" data-entity-1="ent0015" data-entity-2="ent0002" data-link-type="dependency" data-source-line="36" id="lnk16"><path codeLine="36" d="M3167.84,93.7694 C3168.49,134.8194 3163.46,220.2694 3114.71,265.6094 C2947.05,421.5394 2300.5623,491.6383 1943.8523,519.1283" fill="none" id="DescriptorValueDomain-to-ControlledVocabularyEntry" style="stroke:#404040;stroke-width:1.2;stroke-dasharray:7,7;"/><polygon fill="#404040" points="1937.87,519.5894,1947.1507,522.886,1942.8552,519.2052,1946.536,514.9097,1937.87,519.5894" style="stroke:#404040;stroke-width:1.2;"/><text fill="#000000" font-family="sans-serif" font-size="36" lengthAdjust="spacing" textLength="386.1914" x="3145.71" y="256.9805">recommendedDataType</text></g><?plantuml-src dLDDIyD04BtdLopsfX3gHps85DIs82A5Mhs8X-dkn2pTZp2xiKJnlxjDQvhQL2NPo_BUp9kPjnCllK9sOuqdgnIA9yjXbYkWOXYW8agbGCObSOMhE-hC5qoZdY6voCsboO10CvU2i0jfNba2oc6DkIAoYsag-ToWS-muFgcH16RkC6CdlMuDDLPWYTP1WGdaoez2hm_o7TdfUOta2eBsHyHMvMwiiiGwPztb2U2r9O7q4wrBXKJlISvoZnku6tr6qKhwOAz71mpSVWVPvQK03zCYmtwVTKPNmzxWj6pq29Vy11CaD1pP1TlSdu_Z-F2b2de2bIy3NEWmEBnX3UWjl0JVbj4ZIsEV8ksoLNy_Ahw4OTUpJZ2Zy036Xt609CmKbbCsuAmpBB-eYOlZ_Y_EN8GdTJnuZkBHI3zExX5SJjXAAWLt6nACG35O-zrA9wztSYUD-FPaKFQQUKjRbkp2bICDr5_LaznmBwrfavkbXPCSL3L-6mq5Fh6as-O7l5NUdaLeeTIq1ora_hK6uJSRM0tIx6n2nJGkmuRzqq_aLkljQRu0?></g></svg>