<svg xmlns="http://www.w3.org/2000/svg" xmlns:xlink="http://www.w3.org/1999/xlink" contentStyleType="text/css" data-diagram-type="CLASS" height="384px" preserveAspectRatio="none" style="width:1214px;height:384px;background:#FFFFFF;" version="1.1" viewBox="0 0 1214 384" width="1214px" zoomAndPan="magnify"><?plantuml 1.2026.3?><defs/><g><g class="title" data-source-line="1"><text fill="#000000" font-family="sans-serif" font-size="14" font-weight="700" lengthAdjust="spacing" textLength="146.6992" x="530.4229" y="24.5332">CDIFCore &#8212; overview</text></g><!--class Dataset--><g class="entity" data-qualified-name="Dataset" data-source-line="12" id="ent0002"><rect fill="#FEFECE" height="25.0938" rx="2.5" ry="2.5" style="stroke:#404040;stroke-width:0.5;" width="47.3555" x="605" y="53.5694"/><text fill="#000000" font-family="sans-serif" font-size="12" lengthAdjust="spacing" textLength="41.3555" x="608" y="71.0264">Dataset</text></g><!--class AbstractDistribution--><g class="entity" data-qualified-name="AbstractDistribution" data-source-line="13" id="ent0003"><rect fill="#FEFECE" height="25.0938" rx="2.5" ry="2.5" style="stroke:#404040;stroke-width:0.5;" width="110.0391" x="55.5" y="156.5694"/><text fill="#000000" font-family="sans-serif" font-size="12" font-style="italic" lengthAdjust="spacing" textLength="104.0391" x="58.5" y="174.0264">AbstractDistribution</text></g><!--class DataDownload--><g class="entity" data-qualified-name="DataDownload" data-source-line="14" id="ent0004"><rect fill="#FEFECE" height="25.0938" rx="2.5" ry="2.5" style="stroke:#404040;stroke-width:0.5;" width="84.7148" x="7" y="259.5694"/><text fill="#000000" font-family="sans-serif" font-size="12" lengthAdjust="spacing" textLength="78.7148" x="10" y="277.0264">DataDownload</text></g><!--class WebAPI--><g class="entity" data-qualified-name="WebAPI" data-source-line="15" id="ent0005"><rect fill="#FEFECE" height="25.0938" rx="2.5" ry="2.5" style="stroke:#404040;stroke-width:0.5;" width="50.0156" x="127.5" y="259.5694"/><text fill="#000000" font-family="sans-serif" font-size="12" lengthAdjust="spacing" textLength="44.0156" x="130.5" y="277.0264">WebAPI</text></g><!--class Agent--><g class="entity" data-qualified-name="Agent" data-source-line="16" id="ent0006"><rect fill="#FEFECE" height="25.0938" rx="2.5" ry="2.5" style="stroke:#404040;stroke-width:0.5;" width="37.3594" x="374" y="259.5694"/><text fill="#000000" font-family="sans-serif" font-size="12" font-style="italic" lengthAdjust="spacing" textLength="31.3594" x="377" y="277.0264">Agent</text></g><!--class Person--><g class="entity" data-qualified-name="Person" data-source-line="17" id="ent0007"><rect fill="#FEFECE" height="25.0938" rx="2.5" ry="2.5" style="stroke:#404040;stroke-width:0.5;" width="44.0215" x="323.5" y="345.5694"/><text fill="#000000" font-family="sans-serif" font-size="12" lengthAdjust="spacing" textLength="38.0215" x="326.5" y="363.0264">Person</text></g><!--class Organization--><g class="entity" data-qualified-name="Organization" data-source-line="18" id="ent0008"><rect fill="#FEFECE" height="25.0938" rx="2.5" ry="2.5" style="stroke:#404040;stroke-width:0.5;" width="74.0391" x="402.5" y="345.5694"/><text fill="#000000" font-family="sans-serif" font-size="12" lengthAdjust="spacing" textLength="68.0391" x="405.5" y="363.0264">Organization</text></g><!--class Contributor--><g class="entity" data-qualified-name="Contributor" data-source-line="19" id="ent0009"><rect fill="#FEFECE" height="25.0938" rx="2.5" ry="2.5" style="stroke:#404040;stroke-width:0.5;" width="65.3613" x="437" y="156.5694"/><text fill="#000000" font-family="sans-serif" font-size="12" lengthAdjust="spacing" textLength="59.3613" x="440" y="174.0264">Contributor</text></g><!--class DefinedTerm--><g class="entity" data-qualified-name="DefinedTerm" data-source-line="20" id="ent0010"><rect fill="#FEFECE" height="25.0938" rx="2.5" ry="2.5" style="stroke:#404040;stroke-width:0.5;" width="75.3574" x="537" y="156.5694"/><text fill="#000000" font-family="sans-serif" font-size="12" lengthAdjust="spacing" textLength="69.3574" x="540" y="174.0264">DefinedTerm</text></g><!--class Identifier--><g class="entity" data-qualified-name="Identifier" data-source-line="21" id="ent0011"><rect fill="#FEFECE" height="25.0938" rx="2.5" ry="2.5" style="stroke:#404040;stroke-width:0.5;" width="52.0254" x="687.5" y="53.5694"/><text fill="#000000" font-family="sans-serif" font-size="12" lengthAdjust="spacing" textLength="46.0254" x="690.5" y="71.0264">Identifier</text></g><!--class LabeledLink--><g class="entity" data-qualified-name="LabeledLink" data-source-line="22" id="ent0012"><rect fill="#FEFECE" height="25.0938" rx="2.5" ry="2.5" style="stroke:#404040;stroke-width:0.5;" width="70.7227" x="647" y="156.5694"/><text fill="#000000" font-family="sans-serif" font-size="12" lengthAdjust="spacing" textLength="64.7227" x="650" y="174.0264">LabeledLink</text></g><!--class MonetaryGrant--><g class="entity" data-qualified-name="MonetaryGrant" data-source-line="23" id="ent0013"><rect fill="#FEFECE" height="25.0938" rx="2.5" ry="2.5" style="stroke:#404040;stroke-width:0.5;" width="86.0332" x="753.5" y="156.5694"/><text fill="#000000" font-family="sans-serif" font-size="12" lengthAdjust="spacing" textLength="80.0332" x="756.5" y="174.0264">MonetaryGrant</text></g><!--class ProvActivity--><g class="entity" data-qualified-name="ProvActivity" data-source-line="24" id="ent0014"><rect fill="#FEFECE" height="25.0938" rx="2.5" ry="2.5" style="stroke:#404040;stroke-width:0.5;" width="68.6777" x="875" y="156.5694"/><text fill="#000000" font-family="sans-serif" font-size="12" lengthAdjust="spacing" textLength="62.6777" x="878" y="174.0264">ProvActivity</text></g><!--class DerivedFrom--><g class="entity" data-qualified-name="DerivedFrom" data-source-line="25" id="ent0015"><rect fill="#FEFECE" height="25.0938" rx="2.5" ry="2.5" style="stroke:#404040;stroke-width:0.5;" width="75.3457" x="979" y="156.5694"/><text fill="#000000" font-family="sans-serif" font-size="12" lengthAdjust="spacing" textLength="69.3457" x="982" y="174.0264">DerivedFrom</text></g><!--class CatalogRecord--><g class="entity" data-qualified-name="CatalogRecord" data-source-line="26" id="ent0016"><rect fill="#FEFECE" height="25.0938" rx="2.5" ry="2.5" style="stroke:#404040;stroke-width:0.5;" width="86.0449" x="1113.5" y="156.5694"/><text fill="#000000" font-family="sans-serif" font-size="12" lengthAdjust="spacing" textLength="80.0449" x="1116.5" y="174.0264">CatalogRecord</text></g><!--reverse link AbstractDistribution to DataDownload--><g class="link" data-entity-1="ent0003" data-entity-2="ent0004" data-link-type="extension" data-source-line="27" id="lnk17"><path codeLine="27" d="M94.1935,197.0668 C82.4935,216.4368 68.38,239.8094 56.6,259.3094" fill="none" id="AbstractDistribution-backto-DataDownload" style="stroke:#404040;stroke-width:1.2;"/><polygon fill="none" points="103.5,181.6594,89.0577,193.9646,99.3293,200.169,103.5,181.6594" style="stroke:#404040;stroke-width:1.2;"/></g><!--reverse link AbstractDistribution to WebAPI--><g class="link" data-entity-1="ent0003" data-entity-2="ent0005" data-link-type="extension" data-source-line="28" id="lnk18"><path codeLine="28" d="M122.2352,198.2781 C130.2952,217.6481 139.5,239.8094 147.61,259.3094" fill="none" id="AbstractDistribution-backto-WebAPI" style="stroke:#404040;stroke-width:1.2;"/><polygon fill="none" points="115.32,181.6594,116.6956,200.5831,127.7747,195.973,115.32,181.6594" style="stroke:#404040;stroke-width:1.2;"/></g><!--reverse link Agent to Person--><g class="link" data-entity-1="ent0006" data-entity-2="ent0007" data-link-type="extension" data-source-line="29" id="lnk19"><path codeLine="29" d="M377.1786,300.462 C368.2086,316.512 360.93,329.4894 351.98,345.4894" fill="none" id="Agent-backto-Person" style="stroke:#404040;stroke-width:1.2;"/><polygon fill="none" points="385.96,284.7494,371.941,297.5348,382.4161,303.3891,385.96,284.7494" style="stroke:#404040;stroke-width:1.2;"/></g><!--reverse link Agent to Organization--><g class="link" data-entity-1="ent0006" data-entity-2="ent0008" data-link-type="extension" data-source-line="30" id="lnk20"><path codeLine="30" d="M407.8214,300.462 C416.7914,316.512 424.07,329.4894 433.02,345.4894" fill="none" id="Agent-backto-Organization" style="stroke:#404040;stroke-width:1.2;"/><polygon fill="none" points="399.04,284.7494,402.5839,303.3891,413.059,297.5348,399.04,284.7494" style="stroke:#404040;stroke-width:1.2;"/></g><!--link Dataset to AbstractDistribution--><g class="link" data-entity-1="ent0002" data-entity-2="ent0003" data-link-type="dependency" data-source-line="31" id="lnk21"><path codeLine="31" d="M604.86,67.8394 C513.22,70.9794 184.66,83.8894 145.5,108.5694 C128.26,119.4294 120.3727,136.4124 115.7427,150.4224" fill="none" id="Dataset-to-AbstractDistribution" style="stroke:#404040;stroke-width:1.2;"/><polygon fill="#404040" points="113.86,156.1194,120.4821,148.8291,115.4289,151.3719,112.8861,146.3188,113.86,156.1194" style="stroke:#404040;stroke-width:1.2;"/><text fill="#000000" font-family="sans-serif" font-size="13" lengthAdjust="spacing" textLength="62.8672" x="146.5" y="123.0645">distribution</text><text fill="#000000" font-family="sans-serif" font-size="13" lengthAdjust="spacing" textLength="19.5127" x="92.6094" y="145.6765">0..*</text></g><!--link Dataset to Agent--><g class="link" data-entity-1="ent0002" data-entity-2="ent0006" data-link-type="dependency" data-source-line="32" id="lnk22"><path codeLine="32" d="M604.68,68.6194 C541.78,72.9694 372.58,86.4494 321.5,108.5694 C290.48,121.9994 277.02,126.0394 262.5,156.5694 C236.47,211.2994 326.2843,248.8636 368.1143,263.2036" fill="none" id="Dataset-to-Agent" style="stroke:#404040;stroke-width:1.2;"/><polygon fill="#404040" points="373.79,265.1494,366.5735,258.4469,369.0602,263.5279,363.9792,266.0146,373.79,265.1494" style="stroke:#404040;stroke-width:1.2;"/><text fill="#000000" font-family="sans-serif" font-size="13" lengthAdjust="spacing" textLength="40.46" x="263.5" y="174.5645">creator</text><text fill="#000000" font-family="sans-serif" font-size="13" lengthAdjust="spacing" textLength="19.5127" x="346.5258" y="258.2996">0..*</text></g><!--link Dataset to Agent--><g class="link" data-entity-1="ent0002" data-entity-2="ent0006" data-link-type="dependency" data-source-line="34" id="lnk24"><path codeLine="34" d="M604.79,66.5494 C550.88,66.8294 419.62,76.1394 365.5,156.5694 C343.61,189.1094 366.4518,232.2206 380.8918,254.2606" fill="none" id="Dataset-to-Agent-1" style="stroke:#404040;stroke-width:1.2;"/><polygon fill="#404040" points="384.18,259.2794,382.5936,249.5591,381.4399,255.0971,375.9019,253.9433,384.18,259.2794" style="stroke:#404040;stroke-width:1.2;"/><text fill="#000000" font-family="sans-serif" font-size="13" lengthAdjust="spacing" textLength="52.7554" x="366.5" y="174.5645">publisher</text><text fill="#000000" font-family="sans-serif" font-size="13" lengthAdjust="spacing" textLength="21.6836" x="385.1022" y="248.6392">0..1</text></g><!--link Dataset to Contributor--><g class="link" data-entity-1="ent0002" data-entity-2="ent0009" data-link-type="dependency" data-source-line="33" id="lnk23"><path codeLine="33" d="M604.65,70.2894 C578.25,74.8794 535.58,85.4694 506.5,108.5694 C490.5,121.2794 481.8821,137.3969 476.2621,150.7869" fill="none" id="Dataset-to-Contributor" style="stroke:#404040;stroke-width:1.2;"/><polygon fill="#404040" points="473.94,156.3194,481.1114,149.5687,475.8751,151.709,473.7348,146.4727,473.94,156.3194" style="stroke:#404040;stroke-width:1.2;"/><text fill="#000000" font-family="sans-serif" font-size="13" lengthAdjust="spacing" textLength="61.4199" x="507.5" y="123.0645">contributor</text><text fill="#000000" font-family="sans-serif" font-size="13" lengthAdjust="spacing" textLength="19.5127" x="452.9774" y="145.6949">0..*</text></g><!--link Dataset to MonetaryGrant--><g class="link" data-entity-1="ent0002" data-entity-2="ent0013" data-link-type="dependency" data-source-line="35" id="lnk25"><path codeLine="35" d="M652.32,78.2894 C668.69,86.2294 690.76,97.4194 709.5,108.5694 C735.29,123.9094 758.8888,140.4887 776.0088,152.9487" fill="none" id="Dataset-to-MonetaryGrant" style="stroke:#404040;stroke-width:1.2;"/><polygon fill="#404040" points="780.86,156.4794,775.937,147.9492,776.8173,153.5371,771.2294,154.4174,780.86,156.4794" style="stroke:#404040;stroke-width:1.2;"/><text fill="#000000" font-family="sans-serif" font-size="13" lengthAdjust="spacing" textLength="42.6499" x="737.5" y="123.0645">funding</text><text fill="#000000" font-family="sans-serif" font-size="13" lengthAdjust="spacing" textLength="19.5127" x="751.5886" y="145.5343">0..*</text></g><!--link Dataset to ProvActivity--><g class="link" data-entity-1="ent0002" data-entity-2="ent0014" data-link-type="dependency" data-source-line="36" id="lnk26"><path codeLine="36" d="M652.32,73.8694 C657.94,75.4394 663.93,77.0894 669.5,78.5694 C722.21,92.5994 737.3,89.7694 788.5,108.5694 C825.2,122.0494 860.2664,140.3431 883.8564,153.4631" fill="none" id="Dataset-to-ProvActivity" style="stroke:#404040;stroke-width:1.2;"/><polygon fill="#404040" points="889.1,156.3794,883.1788,148.5092,884.7303,153.9491,879.2904,155.5006,889.1,156.3794" style="stroke:#404040;stroke-width:1.2;"/><text fill="#000000" font-family="sans-serif" font-size="13" lengthAdjust="spacing" textLength="99.7217" x="830.5" y="123.0645">wasGeneratedBy</text><text fill="#000000" font-family="sans-serif" font-size="13" lengthAdjust="spacing" textLength="19.5127" x="858.4913" y="145.7786">0..*</text></g><!--link Dataset to DerivedFrom--><g class="link" data-entity-1="ent0002" data-entity-2="ent0015" data-link-type="dependency" data-source-line="37" id="lnk27"><path codeLine="37" d="M652.19,74.4194 C657.82,75.9694 663.84,77.4694 669.5,78.5694 C787.58,101.5594 826.85,63.7994 938.5,108.5694 C965.37,119.3494 986.6908,137.8233 1000.8408,151.8633" fill="none" id="Dataset-to-DerivedFrom" style="stroke:#404040;stroke-width:1.2;"/><polygon fill="#404040" points="1005.1,156.0894,1001.5286,146.9109,1001.5507,152.5677,995.8939,152.5897,1005.1,156.0894" style="stroke:#404040;stroke-width:1.2;"/><text fill="#000000" font-family="sans-serif" font-size="13" lengthAdjust="spacing" textLength="98.2427" x="970.5" y="123.0645">wasDerivedFrom</text><text fill="#000000" font-family="sans-serif" font-size="13" lengthAdjust="spacing" textLength="19.5127" x="978.1637" y="145.635">0..*</text></g><!--link Dataset to CatalogRecord--><g class="link" data-entity-1="ent0002" data-entity-2="ent0016" data-link-type="dependency" data-source-line="38" id="lnk28"><path codeLine="38" d="M652.16,74.5694 C657.8,76.1194 663.82,77.5694 669.5,78.5694 C848.6,109.9494 907.3,44.6094 1077.5,108.5694 C1105.15,118.9594 1127.0529,138.0112 1141.2429,152.1712" fill="none" id="Dataset-to-CatalogRecord" style="stroke:#404040;stroke-width:1.2;"/><polygon fill="#404040" points="1145.49,156.4094,1141.9447,147.2207,1141.9507,152.8776,1136.2939,152.8836,1145.49,156.4094" style="stroke:#404040;stroke-width:1.2;"/><text fill="#000000" font-family="sans-serif" font-size="13" lengthAdjust="spacing" textLength="54.9136" x="1108.5" y="123.0645">subjectOf</text><text fill="#000000" font-family="sans-serif" font-size="13" lengthAdjust="spacing" textLength="7.23" x="1132.8131" y="145.8204">1</text></g><!--link Dataset to DefinedTerm--><g class="link" data-entity-1="ent0002" data-entity-2="ent0010" data-link-type="dependency" data-source-line="39" id="lnk29"><path codeLine="39" d="M610.78,78.8094 C601.13,86.1794 589.88,96.5494 583.5,108.5694 C575.47,123.6994 574.0252,137.8694 574.0352,150.3994" fill="none" id="Dataset-to-DefinedTerm" style="stroke:#404040;stroke-width:1.2;"/><polygon fill="#404040" points="574.04,156.3994,578.04,147.3994,574.04,151.3994,570.04,147.3994,574.04,156.3994" style="stroke:#404040;stroke-width:1.2;"/><text fill="#000000" font-family="sans-serif" font-size="13" lengthAdjust="spacing" textLength="54.9072" x="584.5" y="123.0645">keywords</text><text fill="#000000" font-family="sans-serif" font-size="13" lengthAdjust="spacing" textLength="19.5127" x="551.1488" y="145.8064">0..*</text></g><!--link Dataset to LabeledLink--><g class="link" data-entity-1="ent0002" data-entity-2="ent0012" data-link-type="dependency" data-source-line="40" id="lnk30"><path codeLine="40" d="M634.69,78.6594 C645.06,98.0294 662.9622,131.5175 673.3822,151.0175" fill="none" id="Dataset-to-LabeledLink" style="stroke:#404040;stroke-width:1.2;"/><polygon fill="#404040" points="676.21,156.3094,675.4963,146.4864,673.8535,151.8995,668.4405,150.2568,676.21,156.3094" style="stroke:#404040;stroke-width:1.2;"/><text fill="#000000" font-family="sans-serif" font-size="13" lengthAdjust="spacing" textLength="40.4663" x="660.5" y="123.0645">license</text><text fill="#000000" font-family="sans-serif" font-size="13" lengthAdjust="spacing" textLength="19.5127" x="651.1482" y="145.681">0..*</text></g><!--link Contributor to Agent--><g class="link" data-entity-1="ent0009" data-entity-2="ent0006" data-link-type="dependency" data-source-line="41" id="lnk31"><path codeLine="41" d="M460.67,181.6594 C445.89,201.0294 419.9667,235.0371 405.1067,254.5371" fill="none" id="Contributor-to-Agent" style="stroke:#404040;stroke-width:1.2;"/><polygon fill="#404040" points="401.47,259.3094,410.1066,254.5755,404.5006,255.3325,403.7436,249.7265,401.47,259.3094" style="stroke:#404040;stroke-width:1.2;"/><text fill="#000000" font-family="sans-serif" font-size="13" lengthAdjust="spacing" textLength="32.5317" x="437.5" y="226.0645">agent</text><text fill="#000000" font-family="sans-serif" font-size="13" lengthAdjust="spacing" textLength="21.6836" x="409.2001" y="248.681">0..1</text></g><!--link MonetaryGrant to Agent--><g class="link" data-entity-1="ent0013" data-entity-2="ent0006" data-link-type="dependency" data-source-line="42" id="lnk32"><path codeLine="42" d="M753.26,180.8794 C666.14,202.6594 478.4009,249.5944 417.2309,264.8844" fill="none" id="MonetaryGrant-to-Agent" style="stroke:#404040;stroke-width:1.2;"/><polygon fill="#404040" points="411.41,266.3394,421.1114,268.0375,416.2608,265.1269,419.1714,260.2763,411.41,266.3394" style="stroke:#404040;stroke-width:1.2;"/><text fill="#000000" font-family="sans-serif" font-size="13" lengthAdjust="spacing" textLength="36.8608" x="620.5" y="226.0645">funder</text><text fill="#000000" font-family="sans-serif" font-size="13" lengthAdjust="spacing" textLength="19.5127" x="419.4219" y="280.5092">0..*</text></g><?plantuml-src VLJ1Zjem4BtdAqRihH9eMUqfgYgnG5P8M-sgNQbd9nvWbc2ZiI5YsqhzY7vXlwGcXiG9RfL3FC_FuvatBx5aIuJfR95DDIFy-VKRz07vG5WbQv881N5Heb_ZTcUFiCLjZcmIio6r4oosODP2wehK2fQYD1ZiJ9XrzRgcOgFG61YFxeBDeXGE-vw0fqrrgHbkxczFZmCVD4laFfffPR_IEyBuBlcP93x7O2QiC6W780oSrt2JpRFvT9w8t5WMXJtVDvYSuncvD-LxIrhL1sCRJPRWefckLAc5R6wx07toDymdBukQvfV_hcc5obTVh_g9NfpUvoBziazuvfLGz2wQNaAWJvuw2Ul-DDVS8Bvg5vUaKBuYRtstRTodBgGhd9Q4FcaRzebF8iSIvHEfJSqCuZxrirPe1HyVMPpbwI1NCh4-J0fB1x97BrO0NBV6T42PiRwqriHNWhaPbthr1GjdIIzPY3Jqg84-_XWEEoxv3ysx9F4Ug14_xX099vjSl3uSVeB1xMZqOH1tSGeo2AF7wXjIA1Y5CqAC4lh44TleYZnky-tsUKbcZT6CtMcciDmhwNuZCMfdb2bKmZoYGXOMvSCnTY2SPyqFW2xVLTkTPmfcdxzXOP-NySpjHv321e-LEsHYpD3QAPHKe7A_nr37Y6BYz4wwqaG6TTBAgVeN?></g></svg>