<svg xmlns="http://www.w3.org/2000/svg" xmlns:xlink="http://www.w3.org/1999/xlink" contentStyleType="text/css" data-diagram-type="CLASS" height="376px" preserveAspectRatio="none" style="width:1226px;height:376px;background:#FFFFFF;" version="1.1" viewBox="0 0 1226 376" width="1226px" zoomAndPan="magnify"><?plantuml 1.2026.3?><defs/><g><g class="title" data-source-line="1"><text fill="#000000" font-family="sans-serif" font-size="14" font-weight="700" lengthAdjust="spacing" textLength="146.6992" x="536.4229" y="24.5332">CDIFCore &#8212; overview</text></g><!--class Dataset--><g class="entity" data-qualified-name="Dataset" data-source-line="12" id="ent0002"><rect fill="#FEFECE" height="25.0938" rx="2.5" ry="2.5" style="stroke:#404040;stroke-width:0.5;" width="47.3555" x="563" y="45.6094"/><text fill="#000000" font-family="sans-serif" font-size="12" lengthAdjust="spacing" textLength="41.3555" x="566" y="63.0664">Dataset</text></g><!--class DataDownload--><g class="entity" data-qualified-name="DataDownload" data-source-line="13" id="ent0003"><rect fill="#FEFECE" height="25.0938" rx="2.5" ry="2.5" style="stroke:#404040;stroke-width:0.5;" width="84.7148" x="7" y="148.6094"/><text fill="#000000" font-family="sans-serif" font-size="12" lengthAdjust="spacing" textLength="78.7148" x="10" y="166.0664">DataDownload</text></g><!--class WebAPI--><g class="entity" data-qualified-name="WebAPI" data-source-line="14" id="ent0004"><rect fill="#FEFECE" height="25.0938" rx="2.5" ry="2.5" style="stroke:#404040;stroke-width:0.5;" width="50.0156" x="127.5" y="148.6094"/><text fill="#000000" font-family="sans-serif" font-size="12" lengthAdjust="spacing" textLength="44.0156" x="130.5" y="166.0664">WebAPI</text></g><!--class Agent--><g class="entity" data-qualified-name="Agent" data-source-line="15" id="ent0005"><rect fill="#FEFECE" height="25.0938" rx="2.5" ry="2.5" style="stroke:#404040;stroke-width:0.5;" width="37.3594" x="386" y="251.6094"/><text fill="#000000" font-family="sans-serif" font-size="12" font-style="italic" lengthAdjust="spacing" textLength="31.3594" x="389" y="269.0664">Agent</text></g><!--class Person--><g class="entity" data-qualified-name="Person" data-source-line="16" id="ent0006"><rect fill="#FEFECE" height="25.0938" rx="2.5" ry="2.5" style="stroke:#404040;stroke-width:0.5;" width="44.0215" x="335.5" y="337.6094"/><text fill="#000000" font-family="sans-serif" font-size="12" lengthAdjust="spacing" textLength="38.0215" x="338.5" y="355.0664">Person</text></g><!--class Organization--><g class="entity" data-qualified-name="Organization" data-source-line="17" id="ent0007"><rect fill="#FEFECE" height="25.0938" rx="2.5" ry="2.5" style="stroke:#404040;stroke-width:0.5;" width="74.0391" x="414.5" y="337.6094"/><text fill="#000000" font-family="sans-serif" font-size="12" lengthAdjust="spacing" textLength="68.0391" x="417.5" y="355.0664">Organization</text></g><!--class Contributor--><g class="entity" data-qualified-name="Contributor" data-source-line="18" id="ent0008"><rect fill="#FEFECE" height="25.0938" rx="2.5" ry="2.5" style="stroke:#404040;stroke-width:0.5;" width="65.3613" x="449" y="148.6094"/><text fill="#000000" font-family="sans-serif" font-size="12" lengthAdjust="spacing" textLength="59.3613" x="452" y="166.0664">Contributor</text></g><!--class DefinedTerm--><g class="entity" data-qualified-name="DefinedTerm" data-source-line="19" id="ent0009"><rect fill="#FEFECE" height="25.0938" rx="2.5" ry="2.5" style="stroke:#404040;stroke-width:0.5;" width="75.3574" x="549" y="148.6094"/><text fill="#000000" font-family="sans-serif" font-size="12" lengthAdjust="spacing" textLength="69.3574" x="552" y="166.0664">DefinedTerm</text></g><!--class Identifier--><g class="entity" data-qualified-name="Identifier" data-source-line="20" id="ent0010"><rect fill="#FEFECE" height="25.0938" rx="2.5" ry="2.5" style="stroke:#404040;stroke-width:0.5;" width="52.0254" x="645.5" y="45.6094"/><text fill="#000000" font-family="sans-serif" font-size="12" lengthAdjust="spacing" textLength="46.0254" x="648.5" y="63.0664">Identifier</text></g><!--class LabeledLink--><g class="entity" data-qualified-name="LabeledLink" data-source-line="21" id="ent0011"><rect fill="#FEFECE" height="25.0938" rx="2.5" ry="2.5" style="stroke:#404040;stroke-width:0.5;" width="70.7227" x="659" y="148.6094"/><text fill="#000000" font-family="sans-serif" font-size="12" lengthAdjust="spacing" textLength="64.7227" x="662" y="166.0664">LabeledLink</text></g><!--class MonetaryGrant--><g class="entity" data-qualified-name="MonetaryGrant" data-source-line="22" id="ent0012"><rect fill="#FEFECE" height="25.0938" rx="2.5" ry="2.5" style="stroke:#404040;stroke-width:0.5;" width="86.0332" x="765.5" y="148.6094"/><text fill="#000000" font-family="sans-serif" font-size="12" lengthAdjust="spacing" textLength="80.0332" x="768.5" y="166.0664">MonetaryGrant</text></g><!--class ProvActivity--><g class="entity" data-qualified-name="ProvActivity" data-source-line="23" id="ent0013"><rect fill="#FEFECE" height="25.0938" rx="2.5" ry="2.5" style="stroke:#404040;stroke-width:0.5;" width="68.6777" x="887" y="148.6094"/><text fill="#000000" font-family="sans-serif" font-size="12" lengthAdjust="spacing" textLength="62.6777" x="890" y="166.0664">ProvActivity</text></g><!--class DerivedFrom--><g class="entity" data-qualified-name="DerivedFrom" data-source-line="24" id="ent0014"><rect fill="#FEFECE" height="25.0938" rx="2.5" ry="2.5" style="stroke:#404040;stroke-width:0.5;" width="75.3457" x="991" y="148.6094"/><text fill="#000000" font-family="sans-serif" font-size="12" lengthAdjust="spacing" textLength="69.3457" x="994" y="166.0664">DerivedFrom</text></g><!--class CatalogRecord--><g class="entity" data-qualified-name="CatalogRecord" data-source-line="25" id="ent0015"><rect fill="#FEFECE" height="25.0938" rx="2.5" ry="2.5" style="stroke:#404040;stroke-width:0.5;" width="86.0449" x="1125.5" y="148.6094"/><text fill="#000000" font-family="sans-serif" font-size="12" lengthAdjust="spacing" textLength="80.0449" x="1128.5" y="166.0664">CatalogRecord</text></g><!--reverse link Agent to Person--><g class="link" data-entity-1="ent0005" data-entity-2="ent0006" data-link-type="extension" data-source-line="26" id="lnk16"><path codeLine="26" d="M389.1786,292.502 C380.2086,308.552 372.93,321.5294 363.98,337.5294" fill="none" id="Agent-backto-Person" style="stroke:#404040;stroke-width:1.2;"/><polygon fill="none" points="397.96,276.7894,383.941,289.5748,394.4161,295.4291,397.96,276.7894" style="stroke:#404040;stroke-width:1.2;"/></g><!--reverse link Agent to Organization--><g class="link" data-entity-1="ent0005" data-entity-2="ent0007" data-link-type="extension" data-source-line="27" id="lnk17"><path codeLine="27" d="M419.8214,292.502 C428.7914,308.552 436.07,321.5294 445.02,337.5294" fill="none" id="Agent-backto-Organization" style="stroke:#404040;stroke-width:1.2;"/><polygon fill="none" points="411.04,276.7894,414.5839,295.4291,425.059,289.5748,411.04,276.7894" style="stroke:#404040;stroke-width:1.2;"/></g><!--link Dataset to DataDownload--><g class="link" data-entity-1="ent0002" data-entity-2="ent0003" data-link-type="dependency" data-source-line="28" id="lnk18"><path codeLine="28" d="M562.82,59.6594 C467.84,62.0494 117.76,72.6994 77.5,100.6094 C61.55,111.6694 55.6943,128.4119 52.7143,142.3519" fill="none" id="Dataset-to-DataDownload" style="stroke:#404040;stroke-width:1.2;"/><polygon fill="#404040" points="51.46,148.2194,57.2531,140.2544,52.5052,143.3299,49.4298,138.582,51.46,148.2194" style="stroke:#404040;stroke-width:1.2;"/><text fill="#000000" font-family="sans-serif" font-size="13" lengthAdjust="spacing" textLength="62.8672" x="78.5" y="115.1045">distribution</text><text fill="#000000" font-family="sans-serif" font-size="13" lengthAdjust="spacing" textLength="19.5127" x="29.7375" y="137.7993">0..*</text></g><!--link Dataset to WebAPI--><g class="link" data-entity-1="ent0002" data-entity-2="ent0004" data-link-type="dependency" data-source-line="29" id="lnk19"><path codeLine="29" d="M562.84,59.6594 C477.1,61.8994 186.15,71.5894 157.5,100.6094 C145.26,112.9994 145.7945,128.8578 148.3945,142.3478" fill="none" id="Dataset-to-WebAPI" style="stroke:#404040;stroke-width:1.2;"/><polygon fill="#404040" points="149.53,148.2394,151.7544,138.645,148.5837,143.3297,143.899,140.159,149.53,148.2394" style="stroke:#404040;stroke-width:1.2;"/><text fill="#000000" font-family="sans-serif" font-size="13" lengthAdjust="spacing" textLength="62.8672" x="158.5" y="115.1045">distribution</text><text fill="#000000" font-family="sans-serif" font-size="13" lengthAdjust="spacing" textLength="19.5127" x="125.8706" y="137.827">0..*</text></g><!--link Dataset to Agent--><g class="link" data-entity-1="ent0002" data-entity-2="ent0005" data-link-type="dependency" data-source-line="30" id="lnk20"><path codeLine="30" d="M562.67,58.9994 C516.4,59.6494 412.04,65.2694 333.5,100.6094 C302.67,114.4794 289.02,118.0794 274.5,148.6094 C248.47,203.3394 338.2843,240.9036 380.1143,255.2436" fill="none" id="Dataset-to-Agent" style="stroke:#404040;stroke-width:1.2;"/><polygon fill="#404040" points="385.79,257.1894,378.5735,250.4869,381.0602,255.5679,375.9792,258.0546,385.79,257.1894" style="stroke:#404040;stroke-width:1.2;"/><text fill="#000000" font-family="sans-serif" font-size="13" lengthAdjust="spacing" textLength="40.46" x="275.5" y="166.6045">creator</text><text fill="#000000" font-family="sans-serif" font-size="13" lengthAdjust="spacing" textLength="19.5127" x="358.5258" y="250.3396">0..*</text></g><!--link Dataset to Agent--><g class="link" data-entity-1="ent0002" data-entity-2="ent0005" data-link-type="dependency" data-source-line="32" id="lnk22"><path codeLine="32" d="M562.73,61.1094 C517.44,66.3494 419.55,84.8494 377.5,148.6094 C355.91,181.3394 378.6116,224.3543 392.9516,246.3343" fill="none" id="Dataset-to-Agent-1" style="stroke:#404040;stroke-width:1.2;"/><polygon fill="#404040" points="396.23,251.3594,394.6624,241.6361,393.498,247.1718,387.9623,246.0073,396.23,251.3594" style="stroke:#404040;stroke-width:1.2;"/><text fill="#000000" font-family="sans-serif" font-size="13" lengthAdjust="spacing" textLength="52.7554" x="378.5" y="166.6045">publisher</text><text fill="#000000" font-family="sans-serif" font-size="13" lengthAdjust="spacing" textLength="21.6836" x="397.1719" y="240.7349">0..1</text></g><!--link Dataset to Contributor--><g class="link" data-entity-1="ent0002" data-entity-2="ent0008" data-link-type="dependency" data-source-line="31" id="lnk21"><path codeLine="31" d="M563,68.9794 C548.07,76.1194 529.06,86.9094 515.5,100.6094 C501.6,114.6394 493.7547,129.968 488.3247,142.888" fill="none" id="Dataset-to-Contributor" style="stroke:#404040;stroke-width:1.2;"/><polygon fill="#404040" points="486,148.4194,493.1746,141.6722,487.9373,143.8099,485.7995,138.5726,486,148.4194" style="stroke:#404040;stroke-width:1.2;"/><text fill="#000000" font-family="sans-serif" font-size="13" lengthAdjust="spacing" textLength="61.4199" x="516.5" y="115.1045">contributor</text><text fill="#000000" font-family="sans-serif" font-size="13" lengthAdjust="spacing" textLength="19.5127" x="465.0611" y="137.8186">0..*</text></g><!--link Dataset to MonetaryGrant--><g class="link" data-entity-1="ent0002" data-entity-2="ent0012" data-link-type="dependency" data-source-line="33" id="lnk23"><path codeLine="33" d="M610.04,65.8094 C642.03,75.0594 697.44,91.5994 716.5,100.6094 C745.22,114.1794 770.7988,131.7978 788.4688,144.8878" fill="none" id="Dataset-to-MonetaryGrant" style="stroke:#404040;stroke-width:1.2;"/><polygon fill="#404040" points="793.29,148.4594,788.4392,139.8879,789.2723,145.4831,783.6772,146.3162,793.29,148.4594" style="stroke:#404040;stroke-width:1.2;"/><text fill="#000000" font-family="sans-serif" font-size="13" lengthAdjust="spacing" textLength="42.6499" x="749.5" y="115.1045">funding</text><text fill="#000000" font-family="sans-serif" font-size="13" lengthAdjust="spacing" textLength="19.5127" x="764.6548" y="137.8743">0..*</text></g><!--link Dataset to ProvActivity--><g class="link" data-entity-1="ent0002" data-entity-2="ent0013" data-link-type="dependency" data-source-line="34" id="lnk24"><path codeLine="34" d="M610.24,66.2094 C615.87,67.7694 621.88,69.3394 627.5,70.6094 C703.61,87.8394 726.29,76.4794 800.5,100.6094 C838.12,112.8394 873.6127,131.834 896.9227,145.384" fill="none" id="Dataset-to-ProvActivity" style="stroke:#404040;stroke-width:1.2;"/><polygon fill="#404040" points="902.11,148.3994,896.3393,140.4182,897.7873,145.8866,892.3189,147.3345,902.11,148.3994" style="stroke:#404040;stroke-width:1.2;"/><text fill="#000000" font-family="sans-serif" font-size="13" lengthAdjust="spacing" textLength="99.7217" x="846.5" y="115.1045">wasGeneratedBy</text><text fill="#000000" font-family="sans-serif" font-size="13" lengthAdjust="spacing" textLength="19.5127" x="871.8989" y="137.7907">0..*</text></g><!--link Dataset to DerivedFrom--><g class="link" data-entity-1="ent0002" data-entity-2="ent0014" data-link-type="dependency" data-source-line="35" id="lnk25"><path codeLine="35" d="M610.18,66.5394 C615.81,68.0894 621.83,69.5594 627.5,70.6094 C771.02,97.0894 819.2,45.8894 954.5,100.6094 C980.79,111.2394 1001.0513,130.0675 1014.2213,144.1475" fill="none" id="Dataset-to-DerivedFrom" style="stroke:#404040;stroke-width:1.2;"/><polygon fill="#404040" points="1018.32,148.5294,1015.0932,139.2241,1014.9044,144.8778,1009.2507,144.689,1018.32,148.5294" style="stroke:#404040;stroke-width:1.2;"/><text fill="#000000" font-family="sans-serif" font-size="13" lengthAdjust="spacing" textLength="98.2427" x="985.5" y="115.1045">wasDerivedFrom</text><text fill="#000000" font-family="sans-serif" font-size="13" lengthAdjust="spacing" textLength="19.5127" x="991.2364" y="137.5884">0..*</text></g><!--link Dataset to CatalogRecord--><g class="link" data-entity-1="ent0002" data-entity-2="ent0015" data-link-type="dependency" data-source-line="36" id="lnk26"><path codeLine="36" d="M610.16,66.6494 C615.79,68.1894 621.82,69.6394 627.5,70.6094 C729.57,88.0194 995.75,63.7094 1092.5,100.6094 C1119.43,110.8794 1140.3395,129.867 1153.8795,144.067" fill="none" id="Dataset-to-CatalogRecord" style="stroke:#404040;stroke-width:1.2;"/><polygon fill="#404040" points="1158.02,148.4094,1154.7041,139.1355,1154.5696,144.7907,1148.9143,144.6562,1158.02,148.4094" style="stroke:#404040;stroke-width:1.2;"/><text fill="#000000" font-family="sans-serif" font-size="13" lengthAdjust="spacing" textLength="54.9136" x="1122.5" y="115.1045">subjectOf</text><text fill="#000000" font-family="sans-serif" font-size="13" lengthAdjust="spacing" textLength="7.23" x="1145.5518" y="137.8046">1</text></g><!--link Dataset to DefinedTerm--><g class="link" data-entity-1="ent0002" data-entity-2="ent0009" data-link-type="dependency" data-source-line="37" id="lnk27"><path codeLine="37" d="M586.5,70.6994 C586.5,90.0694 586.5,122.8494 586.5,142.3494" fill="none" id="Dataset-to-DefinedTerm" style="stroke:#404040;stroke-width:1.2;"/><polygon fill="#404040" points="586.5,148.3494,590.5,139.3494,586.5,143.3494,582.5,139.3494,586.5,148.3494" style="stroke:#404040;stroke-width:1.2;"/><text fill="#000000" font-family="sans-serif" font-size="13" lengthAdjust="spacing" textLength="54.9072" x="587.5" y="115.1045">keywords</text><text fill="#000000" font-family="sans-serif" font-size="13" lengthAdjust="spacing" textLength="19.5127" x="563.7899" y="137.721">0..*</text></g><!--link Dataset to LabeledLink--><g class="link" data-entity-1="ent0002" data-entity-2="ent0011" data-link-type="dependency" data-source-line="38" id="lnk28"><path codeLine="38" d="M608.34,70.6294 C621.4,78.1394 637.86,88.7294 650.5,100.6094 C665.85,115.0394 676.4363,130.2951 684.3263,143.0651" fill="none" id="Dataset-to-LabeledLink" style="stroke:#404040;stroke-width:1.2;"/><polygon fill="#404040" points="687.48,148.1694,686.1523,138.4104,684.8519,143.9158,679.3465,142.6154,687.48,148.1694" style="stroke:#404040;stroke-width:1.2;"/><text fill="#000000" font-family="sans-serif" font-size="13" lengthAdjust="spacing" textLength="40.4663" x="667.5" y="115.1045">license</text><text fill="#000000" font-family="sans-serif" font-size="13" lengthAdjust="spacing" textLength="19.5127" x="662.3324" y="137.7303">0..*</text></g><!--link Contributor to Agent--><g class="link" data-entity-1="ent0008" data-entity-2="ent0005" data-link-type="dependency" data-source-line="39" id="lnk29"><path codeLine="39" d="M472.67,173.6994 C457.89,193.0694 431.9667,227.0771 417.1067,246.5771" fill="none" id="Contributor-to-Agent" style="stroke:#404040;stroke-width:1.2;"/><polygon fill="#404040" points="413.47,251.3494,422.1066,246.6155,416.5006,247.3725,415.7436,241.7665,413.47,251.3494" style="stroke:#404040;stroke-width:1.2;"/><text fill="#000000" font-family="sans-serif" font-size="13" lengthAdjust="spacing" textLength="32.5317" x="449.5" y="218.1045">agent</text><text fill="#000000" font-family="sans-serif" font-size="13" lengthAdjust="spacing" textLength="21.6836" x="421.2001" y="240.721">0..1</text></g><!--link MonetaryGrant to Agent--><g class="link" data-entity-1="ent0012" data-entity-2="ent0005" data-link-type="dependency" data-source-line="40" id="lnk30"><path codeLine="40" d="M765.26,172.9194 C678.14,194.6994 490.4009,241.6344 429.2309,256.9244" fill="none" id="MonetaryGrant-to-Agent" style="stroke:#404040;stroke-width:1.2;"/><polygon fill="#404040" points="423.41,258.3794,433.1114,260.0775,428.2608,257.1669,431.1714,252.3163,423.41,258.3794" style="stroke:#404040;stroke-width:1.2;"/><text fill="#000000" font-family="sans-serif" font-size="13" lengthAdjust="spacing" textLength="36.8608" x="632.5" y="218.1045">funder</text><text fill="#000000" font-family="sans-serif" font-size="13" lengthAdjust="spacing" textLength="19.5127" x="431.4219" y="272.5492">0..*</text></g><?plantuml-src XPJ1Rjf048RlVegHSwi42b5ELbM968YGKYLg8_MyzWummUoYsSMMqrRgG_G9-oHTl0RMnbNbWsTcFuQT_n-mP0k4TBPSf9eH_lpw3Rf4BWchQ4CI8IVE2_GnxlQsXXtkCcGJcIsflM2n0xCHKbUarh0IXS7WPCgigzSDvLk5ni1aV1SSveLmjUyHU2pLXMQukRyzFgxue5aYzwiBhUnNUaUOt4K_eyZtY6V22eCs1c6WZU5cCL_Cqtc8p7Ib2YtacJiL-l0tpAOlomRpuHaGcR4iSjlUFfwkKVdlRQ9-enUdb5RDkG_xm3ElXQ9tOQd5ma8VJjtmJDd1QcxO8ByQ5rUaKBuYx_oqbxoFBgMxEAq8VTDBsWUVH8O5oYTIsuOCyZxwMIkqWkj75gqydSgLJApBQMwf95jxiOB2zMXC9Se5wzDev_nACETneTTVC7VBv2KBAsVSU_VnnsZKsXHMGaUYqtQDHfyWlXsFFyJTHKf0al6c_0Dl5-h_eBz20ZcZS0uF8U42EF2INS6JIx_z8Il8R72mOzUc15O79TqlUmZjU9H09SmZAcHXKJxKWq85HZLyKEZoxhPTen8mX-mDS_ky6kvysUu4jbXNxaDcY0ntDe62SbJk7olKSK0nSNn7NMa6Z3fgvLJz2m00?></g></svg>