<svg xmlns="http://www.w3.org/2000/svg" xmlns:xlink="http://www.w3.org/1999/xlink" contentStyleType="text/css" data-diagram-type="CLASS" height="202px" preserveAspectRatio="none" style="width:2230px;height:202px;background:#FFFFFF;" version="1.1" viewBox="0 0 2230 202" width="2230px" zoomAndPan="magnify"><?plantuml 1.2026.3?><defs/><g><g class="title" data-source-line="1"><text fill="#000000" font-family="sans-serif" font-size="14" font-weight="700" lengthAdjust="spacing" textLength="71.5723" x="1075.9863" y="24.5332">XsdAnyUri</text></g><!--class XsdAnyUri--><g class="entity" data-qualified-name="XsdAnyUri" data-source-line="12" id="ent0002"><rect fill="#FAE5D3" height="40.1875" rx="2.5" ry="2.5" style="stroke:#404040;stroke-width:0.5;" width="65.3809" x="1161" y="148.6094"/><text fill="#000000" font-family="sans-serif" font-size="12" font-style="italic" lengthAdjust="spacing" textLength="63.3809" x="1162" y="166.0664">&#171;dataType&#187;</text><text fill="#000000" font-family="sans-serif" font-size="12" lengthAdjust="spacing" textLength="56.6836" x="1165.3486" y="181.1602">XsdAnyUri</text></g><!--class VariableMeasured--><g class="entity" data-qualified-name="VariableMeasured" data-source-line="13" id="ent0003"><rect fill="#EEEEEE" height="25.0938" rx="2.5" ry="2.5" style="stroke:#404040;stroke-width:0.5;" width="103.3887" x="7" y="45.6094"/><text fill="#000000" font-family="sans-serif" font-size="12" lengthAdjust="spacing" textLength="97.3887" x="10" y="63.0664">VariableMeasured</text></g><!--class DataDownload--><g class="entity" data-qualified-name="DataDownload" data-source-line="15" id="ent0005"><rect fill="#EEEEEE" height="25.0938" rx="2.5" ry="2.5" style="stroke:#404040;stroke-width:0.5;" width="84.7148" x="167" y="45.6094"/><text fill="#000000" font-family="sans-serif" font-size="12" lengthAdjust="spacing" textLength="78.7148" x="170" y="63.0664">DataDownload</text></g><!--class EnumerationDomain--><g class="entity" data-qualified-name="EnumerationDomain" data-source-line="18" id="ent0008"><rect fill="#EEEEEE" height="25.0938" rx="2.5" ry="2.5" style="stroke:#404040;stroke-width:0.5;" width="115.3887" x="303" y="45.6094"/><text fill="#000000" font-family="sans-serif" font-size="12" lengthAdjust="spacing" textLength="109.3887" x="306" y="63.0664">EnumerationDomain</text></g><!--class Concept--><g class="entity" data-qualified-name="Concept" data-source-line="20" id="ent0010"><rect fill="#EEEEEE" height="25.0938" rx="2.5" ry="2.5" style="stroke:#404040;stroke-width:0.5;" width="50.6953" x="453" y="45.6094"/><text fill="#000000" font-family="sans-serif" font-size="12" lengthAdjust="spacing" textLength="44.6953" x="456" y="63.0664">Concept</text></g><!--class Identifier--><g class="entity" data-qualified-name="Identifier" data-source-line="22" id="ent0012"><rect fill="#EEEEEE" height="25.0938" rx="2.5" ry="2.5" style="stroke:#404040;stroke-width:0.5;" width="52.0254" x="545.5" y="45.6094"/><text fill="#000000" font-family="sans-serif" font-size="12" lengthAdjust="spacing" textLength="46.0254" x="548.5" y="63.0664">Identifier</text></g><!--class DefinedTerm--><g class="entity" data-qualified-name="DefinedTerm" data-source-line="24" id="ent0014"><rect fill="#EEEEEE" height="25.0938" rx="2.5" ry="2.5" style="stroke:#404040;stroke-width:0.5;" width="75.3574" x="663" y="45.6094"/><text fill="#000000" font-family="sans-serif" font-size="12" lengthAdjust="spacing" textLength="69.3574" x="666" y="63.0664">DefinedTerm</text></g><!--class Dataset--><g class="entity" data-qualified-name="Dataset" data-source-line="27" id="ent0017"><rect fill="#EEEEEE" height="25.0938" rx="2.5" ry="2.5" style="stroke:#404040;stroke-width:0.5;" width="47.3555" x="795" y="45.6094"/><text fill="#000000" font-family="sans-serif" font-size="12" lengthAdjust="spacing" textLength="41.3555" x="798" y="63.0664">Dataset</text></g><!--class AbstractGeometry--><g class="entity" data-qualified-name="AbstractGeometry" data-source-line="29" id="ent0019"><rect fill="#EEEEEE" height="25.0938" rx="2.5" ry="2.5" style="stroke:#404040;stroke-width:0.5;" width="102.6973" x="877" y="45.6094"/><text fill="#000000" font-family="sans-serif" font-size="12" font-style="italic" lengthAdjust="spacing" textLength="96.6973" x="880" y="63.0664">AbstractGeometry</text></g><!--class TemporalExtent--><g class="entity" data-qualified-name="TemporalExtent" data-source-line="31" id="ent0021"><rect fill="#EEEEEE" height="25.0938" rx="2.5" ry="2.5" style="stroke:#404040;stroke-width:0.5;" width="90.7031" x="1023" y="45.6094"/><text fill="#000000" font-family="sans-serif" font-size="12" lengthAdjust="spacing" textLength="84.7031" x="1026" y="63.0664">TemporalExtent</text></g><!--class Instant--><g class="entity" data-qualified-name="Instant" data-source-line="34" id="ent0024"><rect fill="#EEEEEE" height="25.0938" rx="2.5" ry="2.5" style="stroke:#404040;stroke-width:0.5;" width="42.0234" x="1160.5" y="45.6094"/><text fill="#000000" font-family="sans-serif" font-size="12" lengthAdjust="spacing" textLength="36.0234" x="1163.5" y="63.0664">Instant</text></g><!--class TimePosition--><g class="entity" data-qualified-name="TimePosition" data-source-line="36" id="ent0026"><rect fill="#EEEEEE" height="25.0938" rx="2.5" ry="2.5" style="stroke:#404040;stroke-width:0.5;" width="75.3574" x="1238" y="45.6094"/><text fill="#000000" font-family="sans-serif" font-size="12" lengthAdjust="spacing" textLength="69.3574" x="1241" y="63.0664">TimePosition</text></g><!--class Geometry--><g class="entity" data-qualified-name="Geometry" data-source-line="38" id="ent0028"><rect fill="#EEEEEE" height="25.0938" rx="2.5" ry="2.5" style="stroke:#404040;stroke-width:0.5;" width="58.6816" x="1348" y="45.6094"/><text fill="#000000" font-family="sans-serif" font-size="12" lengthAdjust="spacing" textLength="52.6816" x="1351" y="63.0664">Geometry</text></g><!--class QualityMeasurement--><g class="entity" data-qualified-name="QualityMeasurement" data-source-line="40" id="ent0030"><rect fill="#EEEEEE" height="25.0938" rx="2.5" ry="2.5" style="stroke:#404040;stroke-width:0.5;" width="116.7129" x="1442" y="45.6094"/><text fill="#000000" font-family="sans-serif" font-size="12" lengthAdjust="spacing" textLength="110.7129" x="1445" y="63.0664">QualityMeasurement</text></g><!--class WebAPI--><g class="entity" data-qualified-name="WebAPI" data-source-line="42" id="ent0032"><rect fill="#EEEEEE" height="25.0938" rx="2.5" ry="2.5" style="stroke:#404040;stroke-width:0.5;" width="50.0156" x="1594.5" y="45.6094"/><text fill="#000000" font-family="sans-serif" font-size="12" lengthAdjust="spacing" textLength="44.0156" x="1597.5" y="63.0664">WebAPI</text></g><!--class AdditionalProperty--><g class="entity" data-qualified-name="AdditionalProperty" data-source-line="44" id="ent0034"><rect fill="#EEEEEE" height="25.0938" rx="2.5" ry="2.5" style="stroke:#404040;stroke-width:0.5;" width="104.0566" x="1679.5" y="45.6094"/><text fill="#000000" font-family="sans-serif" font-size="12" lengthAdjust="spacing" textLength="98.0566" x="1682.5" y="63.0664">AdditionalProperty</text></g><!--class Reference--><g class="entity" data-qualified-name="Reference" data-source-line="46" id="ent0036"><rect fill="#EEEEEE" height="25.0938" rx="2.5" ry="2.5" style="stroke:#404040;stroke-width:0.5;" width="61.3652" x="1819" y="45.6094"/><text fill="#000000" font-family="sans-serif" font-size="12" lengthAdjust="spacing" textLength="55.3652" x="1822" y="63.0664">Reference</text></g><!--class ProvActivity--><g class="entity" data-qualified-name="ProvActivity" data-source-line="49" id="ent0039"><rect fill="#EEEEEE" height="25.0938" rx="2.5" ry="2.5" style="stroke:#404040;stroke-width:0.5;" width="68.6777" x="1915" y="45.6094"/><text fill="#000000" font-family="sans-serif" font-size="12" lengthAdjust="spacing" textLength="62.6777" x="1918" y="63.0664">ProvActivity</text></g><!--class DerivedFrom--><g class="entity" data-qualified-name="DerivedFrom" data-source-line="51" id="ent0041"><rect fill="#EEEEEE" height="25.0938" rx="2.5" ry="2.5" style="stroke:#404040;stroke-width:0.5;" width="75.3457" x="2019" y="45.6094"/><text fill="#000000" font-family="sans-serif" font-size="12" lengthAdjust="spacing" textLength="69.3457" x="2022" y="63.0664">DerivedFrom</text></g><!--class CatalogRecord--><g class="entity" data-qualified-name="CatalogRecord" data-source-line="54" id="ent0044"><rect fill="#EEEEEE" height="25.0938" rx="2.5" ry="2.5" style="stroke:#404040;stroke-width:0.5;" width="86.0449" x="2129.5" y="45.6094"/><text fill="#000000" font-family="sans-serif" font-size="12" lengthAdjust="spacing" textLength="80.0449" x="2132.5" y="63.0664">CatalogRecord</text></g><!--link VariableMeasured to XsdAnyUri--><g class="link" data-entity-1="ent0003" data-entity-2="ent0002" data-link-type="dependency" data-source-line="14" id="lnk4"><path codeLine="14" d="M59.78,71.0594 C61.98,85.0594 67.87,107.7194 83.5,118.6094 C128.83,150.1894 976.1907,164.4001 1154.8707,167.0601" fill="none" id="VariableMeasured-to-XsdAnyUri" style="stroke:#404040;stroke-width:1.2;stroke-dasharray:7,7;"/><polygon fill="#404040" points="1160.87,167.1494,1151.9305,163.0159,1155.8706,167.0749,1151.8115,171.015,1160.87,167.1494" style="stroke:#404040;stroke-width:1.2;"/><text fill="#000000" font-family="sans-serif" font-size="13" lengthAdjust="spacing" textLength="58.5317" x="84.5" y="115.1045">propertyId</text></g><!--link DataDownload to XsdAnyUri--><g class="link" data-entity-1="ent0005" data-entity-2="ent0002" data-link-type="dependency" data-source-line="16" id="lnk6"><path codeLine="16" d="M186.7,70.6694 C165.67,82.7694 139.9,102.2594 155.5,118.6094 C191.03,155.8594 982.3603,165.5809 1154.8103,167.2609" fill="none" id="DataDownload-to-XsdAnyUri" style="stroke:#404040;stroke-width:1.2;stroke-dasharray:7,7;"/><polygon fill="#404040" points="1160.81,167.3194,1151.8494,163.2319,1155.8102,167.2707,1151.7715,171.2315,1160.81,167.3194" style="stroke:#404040;stroke-width:1.2;"/><text fill="#000000" font-family="sans-serif" font-size="13" lengthAdjust="spacing" textLength="59.249" x="156.5" y="115.1045">contentUrl</text></g><!--link DataDownload to XsdAnyUri--><g class="link" data-entity-1="ent0005" data-entity-2="ent0002" data-link-type="dependency" data-source-line="17" id="lnk7"><path codeLine="17" d="M225.82,70.8394 C246.63,85.0694 284.3,108.4294 320.5,118.6094 C483.08,164.3194 1016.52,167.5863 1154.92,167.6563" fill="none" id="DataDownload-to-XsdAnyUri-1" style="stroke:#404040;stroke-width:1.2;stroke-dasharray:7,7;"/><polygon fill="#404040" points="1160.92,167.6594,1151.92,163.6594,1155.92,167.6594,1151.92,171.6594,1160.92,167.6594" style="stroke:#404040;stroke-width:1.2;"/><text fill="#000000" font-family="sans-serif" font-size="13" lengthAdjust="spacing" textLength="68.6309" x="321.5" y="115.1045">conformsTo</text></g><!--link EnumerationDomain to XsdAnyUri--><g class="link" data-entity-1="ent0008" data-entity-2="ent0002" data-link-type="dependency" data-source-line="19" id="lnk9"><path codeLine="19" d="M368.91,70.7894 C379.88,84.9794 400.53,108.2994 424.5,118.6094 C492.86,148.0194 1017.3019,163.1669 1154.9519,166.6669" fill="none" id="EnumerationDomain-to-XsdAnyUri" style="stroke:#404040;stroke-width:1.2;stroke-dasharray:7,7;"/><polygon fill="#404040" points="1160.95,166.8194,1152.0546,162.5919,1155.9516,166.6923,1151.8512,170.5893,1160.95,166.8194" style="stroke:#404040;stroke-width:1.2;"/><text fill="#000000" font-family="sans-serif" font-size="13" lengthAdjust="spacing" textLength="61.4199" x="425.5" y="115.1045">references</text></g><!--link Concept to XsdAnyUri--><g class="link" data-entity-1="ent0010" data-entity-2="ent0002" data-link-type="dependency" data-source-line="21" id="lnk11"><path codeLine="21" d="M481.68,70.6094 C486.21,84.6194 495.99,107.7394 513.5,118.6094 C568.87,152.9794 1026.3012,164.3607 1154.6612,166.9007" fill="none" id="Concept-to-XsdAnyUri" style="stroke:#404040;stroke-width:1.2;stroke-dasharray:7,7;"/><polygon fill="#404040" points="1160.66,167.0194,1151.7409,162.8421,1155.661,166.9205,1151.5826,170.8405,1160.66,167.0194" style="stroke:#404040;stroke-width:1.2;"/><text fill="#000000" font-family="sans-serif" font-size="13" lengthAdjust="spacing" textLength="57.8081" x="514.5" y="115.1045">inScheme</text></g><!--link Identifier to XsdAnyUri--><g class="link" data-entity-1="ent0012" data-entity-2="ent0002" data-link-type="dependency" data-source-line="23" id="lnk13"><path codeLine="23" d="M572.44,70.9294 C574.22,84.7994 579.42,107.3394 594.5,118.6094 C640.05,152.6494 1036.3915,164.1131 1154.8315,166.8031" fill="none" id="Identifier-to-XsdAnyUri" style="stroke:#404040;stroke-width:1.2;stroke-dasharray:7,7;"/><polygon fill="#404040" points="1160.83,166.9394,1151.9231,162.7361,1155.8313,166.8258,1151.7415,170.734,1160.83,166.9394" style="stroke:#404040;stroke-width:1.2;"/><text fill="#000000" font-family="sans-serif" font-size="13" lengthAdjust="spacing" textLength="14.4473" x="595.5" y="115.1045">url</text></g><!--link DefinedTerm to XsdAnyUri--><g class="link" data-entity-1="ent0014" data-entity-2="ent0002" data-link-type="dependency" data-source-line="25" id="lnk15"><path codeLine="25" d="M666.14,70.6494 C638.5,81.6994 606.94,99.4694 624.5,118.6094 C660.91,158.2894 1039.3004,165.8367 1154.8404,167.2367" fill="none" id="DefinedTerm-to-XsdAnyUri" style="stroke:#404040;stroke-width:1.2;stroke-dasharray:7,7;"/><polygon fill="#404040" points="1160.84,167.3094,1151.8891,163.2006,1155.8404,167.2488,1151.7922,171.2,1160.84,167.3094" style="stroke:#404040;stroke-width:1.2;"/><text fill="#000000" font-family="sans-serif" font-size="13" lengthAdjust="spacing" textLength="49.1372" x="625.5" y="115.1045">identifier</text></g><!--link DefinedTerm to XsdAnyUri--><g class="link" data-entity-1="ent0014" data-entity-2="ent0002" data-link-type="dependency" data-source-line="26" id="lnk16"><path codeLine="26" d="M708.47,71.0894 C718.53,85.1294 737.24,107.8294 759.5,118.6094 C830.47,152.9794 1066.6231,163.6552 1154.9331,166.5152" fill="none" id="DefinedTerm-to-XsdAnyUri-1" style="stroke:#404040;stroke-width:1.2;stroke-dasharray:7,7;"/><polygon fill="#404040" points="1160.93,166.7094,1152.0642,162.4202,1155.9326,166.5475,1151.8052,170.416,1160.93,166.7094" style="stroke:#404040;stroke-width:1.2;"/><text fill="#000000" font-family="sans-serif" font-size="13" lengthAdjust="spacing" textLength="104.7681" x="760.5" y="115.1045">inDefinedTermSet</text></g><!--link Dataset to XsdAnyUri--><g class="link" data-entity-1="ent0017" data-entity-2="ent0002" data-link-type="dependency" data-source-line="28" id="lnk18"><path codeLine="28" d="M832.12,70.7694 C848.92,84.4894 878.9,106.8794 908.5,118.6094 C995.32,152.9994 1100.4395,162.9527 1154.7095,166.0027" fill="none" id="Dataset-to-XsdAnyUri" style="stroke:#404040;stroke-width:1.2;stroke-dasharray:7,7;"/><polygon fill="#404040" points="1160.7,166.3394,1151.9386,161.8407,1155.7079,166.0588,1151.4897,169.8281,1160.7,166.3394" style="stroke:#404040;stroke-width:1.2;"/><text fill="#000000" font-family="sans-serif" font-size="13" lengthAdjust="spacing" textLength="14.4473" x="909.5" y="115.1045">url</text></g><!--link AbstractGeometry to XsdAnyUri--><g class="link" data-entity-1="ent0019" data-entity-2="ent0002" data-link-type="dependency" data-source-line="30" id="lnk20"><path codeLine="30" d="M928.22,71.0194 C928.58,84.5494 931.37,106.3394 944.5,118.6094 C975.49,147.5494 1094.6884,160.1993 1154.8784,164.9293" fill="none" id="AbstractGeometry-to-XsdAnyUri" style="stroke:#404040;stroke-width:1.2;stroke-dasharray:7,7;"/><polygon fill="#404040" points="1160.86,165.3994,1152.201,160.7066,1155.8754,165.0077,1151.5743,168.682,1160.86,165.3994" style="stroke:#404040;stroke-width:1.2;"/><text fill="#000000" font-family="sans-serif" font-size="13" lengthAdjust="spacing" textLength="17.3291" x="945.5" y="115.1045">crs</text></g><!--link TemporalExtent to XsdAnyUri--><g class="link" data-entity-1="ent0021" data-entity-2="ent0002" data-link-type="dependency" data-source-line="32" id="lnk22"><path codeLine="32" d="M1022.85,70.5094 C991.74,80.4994 959.1,96.8394 976.5,118.6094 C999.23,147.0394 1100.1643,159.6296 1154.9643,164.5796" fill="none" id="TemporalExtent-to-XsdAnyUri" style="stroke:#404040;stroke-width:1.2;stroke-dasharray:7,7;"/><polygon fill="#404040" points="1160.94,165.1194,1152.3363,160.3259,1155.9603,164.6696,1151.6166,168.2935,1160.94,165.1194" style="stroke:#404040;stroke-width:1.2;"/><text fill="#000000" font-family="sans-serif" font-size="13" lengthAdjust="spacing" textLength="98.9917" x="977.5" y="115.1045">intervalStartedBy</text></g><!--link TemporalExtent to XsdAnyUri--><g class="link" data-entity-1="ent0021" data-entity-2="ent0002" data-link-type="dependency" data-source-line="33" id="lnk23"><path codeLine="33" d="M1075.15,70.6694 C1082.92,83.4894 1096.74,104.2394 1112.5,118.6094 C1126.83,131.6694 1139.8956,140.2208 1155.4956,148.7508" fill="none" id="TemporalExtent-to-XsdAnyUri-1" style="stroke:#404040;stroke-width:1.2;stroke-dasharray:7,7;"/><polygon fill="#404040" points="1160.76,151.6294,1154.7824,143.8019,1156.373,149.2306,1150.9444,150.8212,1160.76,151.6294" style="stroke:#404040;stroke-width:1.2;"/><text fill="#000000" font-family="sans-serif" font-size="13" lengthAdjust="spacing" textLength="106.2153" x="1113.5" y="115.1045">intervalFinishedBy</text></g><!--link Instant to XsdAnyUri--><g class="link" data-entity-1="ent0024" data-entity-2="ent0002" data-link-type="dependency" data-source-line="35" id="lnk25"><path codeLine="35" d="M1201.19,70.6694 C1211.39,77.8594 1222.86,88.1094 1228.5,100.6094 C1235.95,117.1194 1229.1209,130.7664 1217.6309,144.0164" fill="none" id="Instant-to-XsdAnyUri" style="stroke:#404040;stroke-width:1.2;stroke-dasharray:7,7;"/><polygon fill="#404040" points="1213.7,148.5494,1222.6183,144.3705,1216.9757,144.7719,1216.5743,139.1293,1213.7,148.5494" style="stroke:#404040;stroke-width:1.2;"/><text fill="#000000" font-family="sans-serif" font-size="13" lengthAdjust="spacing" textLength="49.1372" x="1231.5" y="115.1045">identifier</text></g><!--link TimePosition to XsdAnyUri--><g class="link" data-entity-1="ent0026" data-entity-2="ent0002" data-link-type="dependency" data-source-line="37" id="lnk27"><path codeLine="37" d="M1283.15,70.8894 C1290.29,83.5194 1298.59,103.7694 1289.5,118.6094 C1275.82,140.9494 1254.1235,151.7412 1232.0735,158.5412" fill="none" id="TimePosition-to-XsdAnyUri" style="stroke:#404040;stroke-width:1.2;stroke-dasharray:7,7;"/><polygon fill="#404040" points="1226.34,160.3094,1236.1191,161.4795,1231.118,158.8359,1233.7615,153.8348,1226.34,160.3094" style="stroke:#404040;stroke-width:1.2;"/><text fill="#000000" font-family="sans-serif" font-size="13" lengthAdjust="spacing" textLength="46.96" x="1293.5" y="115.1045">hasTRS</text></g><!--link Geometry to XsdAnyUri--><g class="link" data-entity-1="ent0028" data-entity-2="ent0002" data-link-type="dependency" data-source-line="39" id="lnk29"><path codeLine="39" d="M1374.76,70.8994 C1371.04,84.3194 1363.12,105.9994 1348.5,118.6094 C1313.67,148.6594 1266.2988,159.527 1232.1588,164.017" fill="none" id="Geometry-to-XsdAnyUri" style="stroke:#404040;stroke-width:1.2;stroke-dasharray:7,7;"/><polygon fill="#404040" points="1226.21,164.7994,1235.6547,167.5917,1231.1673,164.1474,1234.6116,159.66,1226.21,164.7994" style="stroke:#404040;stroke-width:1.2;"/><text fill="#000000" font-family="sans-serif" font-size="13" lengthAdjust="spacing" textLength="17.3291" x="1362.5" y="115.1045">crs</text></g><!--link QualityMeasurement to XsdAnyUri--><g class="link" data-entity-1="ent0030" data-entity-2="ent0002" data-link-type="dependency" data-source-line="41" id="lnk31"><path codeLine="41" d="M1482.13,70.6594 C1460.47,83.8494 1423.02,105.3294 1388.5,118.6094 C1333.28,139.8494 1271.5959,153.3367 1232.2259,160.7667" fill="none" id="QualityMeasurement-to-XsdAnyUri" style="stroke:#404040;stroke-width:1.2;stroke-dasharray:7,7;"/><polygon fill="#404040" points="1226.33,161.8794,1235.9157,164.141,1231.2433,160.9521,1234.4321,156.2797,1226.33,161.8794" style="stroke:#404040;stroke-width:1.2;"/><text fill="#000000" font-family="sans-serif" font-size="13" lengthAdjust="spacing" textLength="20.96" x="1427.5" y="115.1045">unit</text></g><!--link WebAPI to XsdAnyUri--><g class="link" data-entity-1="ent0032" data-entity-2="ent0002" data-link-type="dependency" data-source-line="43" id="lnk33"><path codeLine="43" d="M1594.23,69.8194 C1562.55,82.8994 1506.33,104.9694 1456.5,118.6094 C1374.97,140.9194 1282.3721,155.4376 1232.2221,162.4576" fill="none" id="WebAPI-to-XsdAnyUri" style="stroke:#404040;stroke-width:1.2;stroke-dasharray:7,7;"/><polygon fill="#404040" points="1226.28,163.2894,1235.7476,166.0031,1231.2317,162.5962,1234.6386,158.0803,1226.28,163.2894" style="stroke:#404040;stroke-width:1.2;"/><text fill="#000000" font-family="sans-serif" font-size="13" lengthAdjust="spacing" textLength="85.2808" x="1511.5" y="115.1045">potentialAction</text></g><!--link AdditionalProperty to XsdAnyUri--><g class="link" data-entity-1="ent0034" data-entity-2="ent0002" data-link-type="dependency" data-source-line="45" id="lnk35"><path codeLine="45" d="M1712.2,70.6494 C1688.12,84.4794 1645.26,107.1894 1605.5,118.6094 C1468.42,157.9894 1302.9286,165.6421 1232.2486,167.1421" fill="none" id="AdditionalProperty-to-XsdAnyUri" style="stroke:#404040;stroke-width:1.2;stroke-dasharray:7,7;"/><polygon fill="#404040" points="1226.25,167.2694,1235.3328,171.0775,1231.2489,167.1633,1235.1631,163.0793,1226.25,167.2694" style="stroke:#404040;stroke-width:1.2;"/><text fill="#000000" font-family="sans-serif" font-size="13" lengthAdjust="spacing" textLength="52.0381" x="1652.5" y="115.1045">unitCode</text></g><!--link Reference to XsdAnyUri--><g class="link" data-entity-1="ent0036" data-entity-2="ent0002" data-link-type="dependency" data-source-line="47" id="lnk37"><path codeLine="47" d="M1828.59,70.7794 C1802.51,84.7294 1756.17,107.5694 1713.5,118.6094 C1533.76,165.1194 1314.8899,168.6141 1232.0699,168.1341" fill="none" id="Reference-to-XsdAnyUri" style="stroke:#404040;stroke-width:1.2;stroke-dasharray:7,7;"/><polygon fill="#404040" points="1226.07,168.0994,1235.0467,172.1515,1231.0699,168.1284,1235.093,164.1516,1226.07,168.0994" style="stroke:#404040;stroke-width:1.2;"/><text fill="#000000" font-family="sans-serif" font-size="13" lengthAdjust="spacing" textLength="14.4473" x="1764.5" y="115.1045">url</text></g><!--link Reference to XsdAnyUri--><g class="link" data-entity-1="ent0036" data-entity-2="ent0002" data-link-type="dependency" data-source-line="48" id="lnk38"><path codeLine="48" d="M1841.41,70.7194 C1830.84,84.8294 1810.89,108.0594 1787.5,118.6094 C1685.98,164.3794 1341.23,167.8227 1232.14,167.7627" fill="none" id="Reference-to-XsdAnyUri-1" style="stroke:#404040;stroke-width:1.2;stroke-dasharray:7,7;"/><polygon fill="#404040" points="1226.14,167.7594,1235.1378,171.7643,1231.14,167.7621,1235.1422,163.7643,1226.14,167.7594" style="stroke:#404040;stroke-width:1.2;"/><text fill="#000000" font-family="sans-serif" font-size="13" lengthAdjust="spacing" textLength="42.6372" x="1813.5" y="115.1045">relation</text></g><!--link ProvActivity to XsdAnyUri--><g class="link" data-entity-1="ent0039" data-entity-2="ent0002" data-link-type="dependency" data-source-line="50" id="lnk40"><path codeLine="50" d="M1937.48,70.7694 C1922.03,84.9394 1893.69,108.2194 1864.5,118.6094 C1744.82,161.1894 1350.1499,166.7527 1232.3399,167.4727" fill="none" id="ProvActivity-to-XsdAnyUri" style="stroke:#404040;stroke-width:1.2;stroke-dasharray:7,7;"/><polygon fill="#404040" points="1226.34,167.5094,1235.3643,171.4543,1231.3399,167.4788,1235.3154,163.4544,1226.34,167.5094" style="stroke:#404040;stroke-width:1.2;"/><text fill="#000000" font-family="sans-serif" font-size="13" lengthAdjust="spacing" textLength="28.1899" x="1897.5" y="115.1045">used</text></g><!--link DerivedFrom to XsdAnyUri--><g class="link" data-entity-1="ent0041" data-entity-2="ent0002" data-link-type="dependency" data-source-line="52" id="lnk42"><path codeLine="52" d="M2038.37,70.7594 C2015.28,84.9194 1973.67,108.1894 1934.5,118.6094 C1797.75,154.9694 1356.7391,164.8974 1232.0591,167.0174" fill="none" id="DerivedFrom-to-XsdAnyUri" style="stroke:#404040;stroke-width:1.2;stroke-dasharray:7,7;"/><polygon fill="#404040" points="1226.06,167.1194,1235.1267,170.9658,1231.0593,167.0344,1234.9907,162.9669,1226.06,167.1194" style="stroke:#404040;stroke-width:1.2;"/><text fill="#000000" font-family="sans-serif" font-size="13" lengthAdjust="spacing" textLength="14.4473" x="1980.5" y="115.1045">url</text></g><!--link DerivedFrom to XsdAnyUri--><g class="link" data-entity-1="ent0041" data-entity-2="ent0002" data-link-type="dependency" data-source-line="53" id="lnk43"><path codeLine="53" d="M2050.04,70.7694 C2041.47,84.9294 2024.91,108.2194 2003.5,118.6094 C1932.76,152.9394 1375.3891,164.5574 1232.3991,166.9874" fill="none" id="DerivedFrom-to-XsdAnyUri-1" style="stroke:#404040;stroke-width:1.2;stroke-dasharray:7,7;"/><polygon fill="#404040" points="1226.4,167.0894,1235.4667,170.9359,1231.3993,167.0044,1235.3307,162.937,1226.4,167.0894" style="stroke:#404040;stroke-width:1.2;"/><text fill="#000000" font-family="sans-serif" font-size="13" lengthAdjust="spacing" textLength="42.6372" x="2026.5" y="115.1045">relation</text></g><!--link CatalogRecord to XsdAnyUri--><g class="link" data-entity-1="ent0044" data-entity-2="ent0002" data-link-type="dependency" data-source-line="55" id="lnk45"><path codeLine="55" d="M2158.83,70.8494 C2141.32,85.0994 2109.4,108.4794 2077.5,118.6094 C1914.34,170.4194 1371.8398,169.2209 1232.1098,168.0209" fill="none" id="CatalogRecord-to-XsdAnyUri" style="stroke:#404040;stroke-width:1.2;stroke-dasharray:7,7;"/><polygon fill="#404040" points="1226.11,167.9694,1235.0753,172.0465,1231.1098,168.0123,1235.144,164.0468,1226.11,167.9694" style="stroke:#404040;stroke-width:1.2;"/><text fill="#000000" font-family="sans-serif" font-size="13" lengthAdjust="spacing" textLength="68.6309" x="2116.5" y="115.1045">conformsTo</text></g><?plantuml-src ZLLBZzem4BxdLrZB7NMtxQLQ8MLvL1mgKM3RNeTuMAnrR3GsqBJgVszUTfoOqeNBp3VsDqzFhB0IsG_3KrKyaqWEWYFB16KI6ndpeorOZlaEoIJcLQWZ4EJC783hYr0lR0_IO619YVHbUn3Pgq9ZsFtu8J1c4ahiTyAQOrCjDR7HXtVLlmIVD76a8RhGocx4BsJt3ycV96auxdpGTmnCbm9xVEHWOLiSSJ9XeqKw_pXxx-vy0nAma_W5mPm8UNrr2BBHlFubaM4ydWIEFh4ZwIEIBPRSEPYLhcVwegI6XZm4F74F799cPRQex3F9_vxRQyhDLZldStNAaS0AhMOw1w7g22BKXn5RXZu8zqYeCZJEnrINsj7MpAti-Pm-P15ganqmHyUnv6L-OY-GQffEzKm1D2GxbNLnnSQzKCYtI7bJwqxlIXrWKLpUo-rZAh1kq8QzDcXzcqkvr-5AlnOzx8mbo6px6ExILl-CEaTBHKqu13rpP8ZcWdopjkNhrGHo_hEQg9gt3tdM0HoNm2ATGMuia4N-LBprma8eOGxr3TTyPIoqmRHor_PMlz4ebvd8SQMDg6QtoIi0kgn2S4Xw0BDTRnnXh_XHqTzIxAydaC8MxRB8NS5ZsBDUCKNpeeIVj--uIrVBchGHFL6hHkj9LxqH8DEige3ZIJclAm9orUwlPk8Yk9kvs7GjqAdc_esltUQekRtcAJlasXFvjvLGGfXC6T2vIkyisZH2m7lhWP53Wzt-HX9dv0lIRgLuFLWf7NOj-5lsOVZJSaz8_RB6hFpoDKirHBhLsaDlV0h-0W00?></g></svg>