<svg xmlns="http://www.w3.org/2000/svg" xmlns:xlink="http://www.w3.org/1999/xlink" contentStyleType="text/css" data-diagram-type="CLASS" height="374px" preserveAspectRatio="none" style="width:1056px;height:374px;background:#FFFFFF;" version="1.1" viewBox="0 0 1056 374" width="1056px" zoomAndPan="magnify"><?plantuml 1.2026.3?><defs/><g><g class="title" data-source-line="1"><text fill="#000000" font-family="sans-serif" font-size="14" font-weight="700" lengthAdjust="spacing" textLength="71.5723" x="488.917" y="24.5332">XsdAnyUri</text></g><!--class XsdAnyUri--><g class="entity" data-qualified-name="XsdAnyUri" data-source-line="15" id="ent0002"><rect fill="#FAE5D3" height="40.1875" rx="2.5" ry="2.5" style="stroke:#404040;stroke-width:0.5;" width="65.3809" x="439" y="320.6094"/><text fill="#000000" font-family="sans-serif" font-size="12" font-style="italic" lengthAdjust="spacing" textLength="63.3809" x="440" y="338.0664">&#171;dataType&#187;</text><text fill="#000000" font-family="sans-serif" font-size="12" lengthAdjust="spacing" textLength="56.6836" x="443.3486" y="353.1602">XsdAnyUri</text></g><!--class Dataset--><g class="entity" data-qualified-name="Dataset" data-source-line="16" id="ent0003"><rect fill="#EEEEEE" height="25.0938" rx="2.5" ry="2.5" style="stroke:#404040;stroke-width:0.5;" width="47.3555" x="7" y="45.6094"/><text fill="#000000" font-family="sans-serif" font-size="12" lengthAdjust="spacing" textLength="41.3555" x="10" y="63.0664">Dataset</text></g><!--class CatalogRecord--><g class="entity" data-qualified-name="CatalogRecord" data-source-line="18" id="ent0005"><rect fill="#EEEEEE" height="25.0938" rx="2.5" ry="2.5" style="stroke:#404040;stroke-width:0.5;" width="86.0449" x="74.5" y="45.6094"/><text fill="#000000" font-family="sans-serif" font-size="12" lengthAdjust="spacing" textLength="80.0449" x="77.5" y="63.0664">CatalogRecord</text></g><!--class WebAPI--><g class="entity" data-qualified-name="WebAPI" data-source-line="20" id="ent0007"><rect fill="#EEEEEE" height="25.0938" rx="2.5" ry="2.5" style="stroke:#404040;stroke-width:0.5;" width="50.0156" x="180.5" y="45.6094"/><text fill="#000000" font-family="sans-serif" font-size="12" lengthAdjust="spacing" textLength="44.0156" x="183.5" y="63.0664">WebAPI</text></g><!--class InstanceVariable--><g class="entity" data-qualified-name="InstanceVariable" data-source-line="22" id="ent0009"><rect fill="#EEEEEE" height="25.0938" rx="2.5" ry="2.5" style="stroke:#404040;stroke-width:0.5;" width="95.3906" x="251" y="45.6094"/><text fill="#000000" font-family="sans-serif" font-size="12" lengthAdjust="spacing" textLength="89.3906" x="254" y="63.0664">InstanceVariable</text></g><!--class AbstractMapping--><g class="entity" data-qualified-name="AbstractMapping" data-source-line="24" id="ent0011"><rect fill="#EEEEEE" height="25.0938" rx="2.5" ry="2.5" style="stroke:#404040;stroke-width:0.5;" width="96.0469" x="366.5" y="45.6094"/><text fill="#000000" font-family="sans-serif" font-size="12" font-style="italic" lengthAdjust="spacing" textLength="90.0469" x="369.5" y="63.0664">AbstractMapping</text></g><!--class AbstractDataSet--><g class="entity" data-qualified-name="AbstractDataSet" data-source-line="26" id="ent0013"><rect fill="#EEEEEE" height="25.0938" rx="2.5" ry="2.5" style="stroke:#404040;stroke-width:0.5;" width="93.375" x="483" y="45.6094"/><text fill="#000000" font-family="sans-serif" font-size="12" font-style="italic" lengthAdjust="spacing" textLength="87.375" x="486" y="63.0664">AbstractDataSet</text></g><!--class PrimaryKey--><g class="entity" data-qualified-name="PrimaryKey" data-source-line="28" id="ent0015"><rect fill="#EEEEEE" height="25.0938" rx="2.5" ry="2.5" style="stroke:#404040;stroke-width:0.5;" width="68.0098" x="596.5" y="45.6094"/><text fill="#000000" font-family="sans-serif" font-size="12" lengthAdjust="spacing" textLength="62.0098" x="599.5" y="63.0664">PrimaryKey</text></g><!--class Statistics--><g class="entity" data-qualified-name="Statistics" data-source-line="30" id="ent0017"><rect fill="#EEEEEE" height="25.0938" rx="2.5" ry="2.5" style="stroke:#404040;stroke-width:0.5;" width="54.0117" x="684.5" y="45.6094"/><text fill="#000000" font-family="sans-serif" font-size="12" lengthAdjust="spacing" textLength="48.0117" x="687.5" y="63.0664">Statistics</text></g><!--class SubstantiveValueDomain--><g class="entity" data-qualified-name="SubstantiveValueDomain" data-source-line="32" id="ent0019"><rect fill="#EEEEEE" height="25.0938" rx="2.5" ry="2.5" style="stroke:#404040;stroke-width:0.5;" width="140.748" x="759" y="45.6094"/><text fill="#000000" font-family="sans-serif" font-size="12" lengthAdjust="spacing" textLength="134.748" x="762" y="63.0664">SubstantiveValueDomain</text></g><!--class SentinelValueDomain--><g class="entity" data-qualified-name="SentinelValueDomain" data-source-line="34" id="ent0021"><rect fill="#EEEEEE" height="25.0938" rx="2.5" ry="2.5" style="stroke:#404040;stroke-width:0.5;" width="121.4063" x="920" y="45.6094"/><text fill="#000000" font-family="sans-serif" font-size="12" lengthAdjust="spacing" textLength="115.4063" x="923" y="63.0664">SentinelValueDomain</text></g><!--link Dataset to XsdAnyUri--><g class="link" data-entity-1="ent0003" data-entity-2="ent0002" data-link-type="dependency" data-source-line="17" id="lnk4"><path codeLine="17" d="M30.5,70.8094 C30.5,127.3694 30.5,353.6094 30.5,353.6094 C30.5,353.6094 330.51,353.6094 432.71,353.6094" fill="none" id="Dataset-to-XsdAnyUri" style="stroke:#404040;stroke-width:1.2;stroke-dasharray:7,7;"/><polygon fill="#404040" points="438.71,353.6094,429.71,349.6094,433.71,353.6094,429.71,357.6094,438.71,353.6094" style="stroke:#404040;stroke-width:1.2;"/><text fill="#000000" font-family="sans-serif" font-size="13" lengthAdjust="spacing" textLength="49.1372" x="43.21" y="350.1045">identifier</text></g><!--link CatalogRecord to XsdAnyUri--><g class="link" data-entity-1="ent0005" data-entity-2="ent0002" data-link-type="dependency" data-source-line="19" id="lnk6"><path codeLine="19" d="M117.5,70.7894 C117.5,126.2394 117.5,344.6094 117.5,344.6094 C117.5,344.6094 345.2,344.6094 432.83,344.6094" fill="none" id="CatalogRecord-to-XsdAnyUri" style="stroke:#404040;stroke-width:1.2;stroke-dasharray:7,7;"/><polygon fill="#404040" points="438.83,344.6094,429.83,340.6094,433.83,344.6094,429.83,348.6094,438.83,344.6094" style="stroke:#404040;stroke-width:1.2;"/><text fill="#000000" font-family="sans-serif" font-size="13" lengthAdjust="spacing" textLength="68.6309" x="142.26" y="341.1045">conformsTo</text></g><!--link WebAPI to XsdAnyUri--><g class="link" data-entity-1="ent0007" data-entity-2="ent0002" data-link-type="dependency" data-source-line="21" id="lnk8"><path codeLine="21" d="M205.5,70.7994 C205.5,125.2794 205.5,336.6094 205.5,336.6094 C205.5,336.6094 361.85,336.6094 432.88,336.6094" fill="none" id="WebAPI-to-XsdAnyUri" style="stroke:#404040;stroke-width:1.2;stroke-dasharray:7,7;"/><polygon fill="#404040" points="438.88,336.6094,429.88,332.6094,433.88,336.6094,429.88,340.6094,438.88,336.6094" style="stroke:#404040;stroke-width:1.2;"/><text fill="#000000" font-family="sans-serif" font-size="13" lengthAdjust="spacing" textLength="49.1372" x="155.5" y="316.8945">identifier</text></g><!--link InstanceVariable to XsdAnyUri--><g class="link" data-entity-1="ent0009" data-entity-2="ent0002" data-link-type="dependency" data-source-line="23" id="lnk10"><path codeLine="23" d="M298.5,70.7894 C298.5,124.2694 298.5,328.6094 298.5,328.6094 C298.5,328.6094 382.85,328.6094 432.96,328.6094" fill="none" id="InstanceVariable-to-XsdAnyUri" style="stroke:#404040;stroke-width:1.2;stroke-dasharray:7,7;"/><polygon fill="#404040" points="438.96,328.6094,429.96,324.6094,433.96,328.6094,429.96,332.6094,438.96,328.6094" style="stroke:#404040;stroke-width:1.2;"/><text fill="#000000" font-family="sans-serif" font-size="13" lengthAdjust="spacing" textLength="49.1372" x="248.5" y="266.4245">identifier</text></g><!--link AbstractMapping to XsdAnyUri--><g class="link" data-entity-1="ent0011" data-entity-2="ent0002" data-link-type="dependency" data-source-line="25" id="lnk12"><path codeLine="25" d="M450.75,70.6094 C450.75,115.0294 450.75,259.5094 450.75,314.3794" fill="none" id="AbstractMapping-to-XsdAnyUri" style="stroke:#404040;stroke-width:1.2;stroke-dasharray:7,7;"/><polygon fill="#404040" points="450.75,320.3794,454.75,311.3794,450.75,315.3794,446.75,311.3794,450.75,320.3794" style="stroke:#404040;stroke-width:1.2;"/><text fill="#000000" font-family="sans-serif" font-size="13" lengthAdjust="spacing" textLength="49.1372" x="400.75" y="191.9945">identifier</text></g><!--link AbstractDataSet to XsdAnyUri--><g class="link" data-entity-1="ent0013" data-entity-2="ent0002" data-link-type="dependency" data-source-line="27" id="lnk14"><path codeLine="27" d="M493.5,70.6094 C493.5,115.0294 493.5,259.5094 493.5,314.3794" fill="none" id="AbstractDataSet-to-XsdAnyUri" style="stroke:#404040;stroke-width:1.2;stroke-dasharray:7,7;"/><polygon fill="#404040" points="493.5,320.3794,497.5,311.3794,493.5,315.3794,489.5,311.3794,493.5,320.3794" style="stroke:#404040;stroke-width:1.2;"/><text fill="#000000" font-family="sans-serif" font-size="13" lengthAdjust="spacing" textLength="49.1372" x="443.5" y="209.9945">identifier</text></g><!--link PrimaryKey to XsdAnyUri--><g class="link" data-entity-1="ent0015" data-entity-2="ent0002" data-link-type="dependency" data-source-line="29" id="lnk16"><path codeLine="29" d="M630.5,70.7894 C630.5,124.2694 630.5,328.6094 630.5,328.6094 C630.5,328.6094 556.58,328.6094 510.06,328.6094" fill="none" id="PrimaryKey-to-XsdAnyUri" style="stroke:#404040;stroke-width:1.2;stroke-dasharray:7,7;"/><polygon fill="#404040" points="504.06,328.6094,513.06,332.6094,509.06,328.6094,513.06,324.6094,504.06,328.6094" style="stroke:#404040;stroke-width:1.2;"/><text fill="#000000" font-family="sans-serif" font-size="13" lengthAdjust="spacing" textLength="49.1372" x="580.5" y="259.4145">identifier</text></g><!--link Statistics to XsdAnyUri--><g class="link" data-entity-1="ent0017" data-entity-2="ent0002" data-link-type="dependency" data-source-line="31" id="lnk18"><path codeLine="31" d="M711.5,70.7994 C711.5,125.2794 711.5,336.6094 711.5,336.6094 C711.5,336.6094 575.74,336.6094 510.12,336.6094" fill="none" id="Statistics-to-XsdAnyUri" style="stroke:#404040;stroke-width:1.2;stroke-dasharray:7,7;"/><polygon fill="#404040" points="504.12,336.6094,513.12,340.6094,509.12,336.6094,513.12,332.6094,504.12,336.6094" style="stroke:#404040;stroke-width:1.2;"/><text fill="#000000" font-family="sans-serif" font-size="13" lengthAdjust="spacing" textLength="49.1372" x="661.5" y="303.8945">identifier</text></g><!--link SubstantiveValueDomain to XsdAnyUri--><g class="link" data-entity-1="ent0019" data-entity-2="ent0002" data-link-type="dependency" data-source-line="33" id="lnk20"><path codeLine="33" d="M829.5,70.7894 C829.5,126.2394 829.5,344.6094 829.5,344.6094 C829.5,344.6094 598.6,344.6094 510.22,344.6094" fill="none" id="SubstantiveValueDomain-to-XsdAnyUri" style="stroke:#404040;stroke-width:1.2;stroke-dasharray:7,7;"/><polygon fill="#404040" points="504.22,344.6094,513.22,348.6094,509.22,344.6094,513.22,340.6094,504.22,344.6094" style="stroke:#404040;stroke-width:1.2;"/><text fill="#000000" font-family="sans-serif" font-size="13" lengthAdjust="spacing" textLength="49.1372" x="753.77" y="341.1045">identifier</text></g><!--link SentinelValueDomain to XsdAnyUri--><g class="link" data-entity-1="ent0021" data-entity-2="ent0002" data-link-type="dependency" data-source-line="35" id="lnk22"><path codeLine="35" d="M980.5,70.8094 C980.5,127.3694 980.5,353.6094 980.5,353.6094 C980.5,353.6094 622.46,353.6094 510.11,353.6094" fill="none" id="SentinelValueDomain-to-XsdAnyUri" style="stroke:#404040;stroke-width:1.2;stroke-dasharray:7,7;"/><polygon fill="#404040" points="504.11,353.6094,513.11,357.6094,509.11,353.6094,513.11,349.6094,504.11,353.6094" style="stroke:#404040;stroke-width:1.2;"/><text fill="#000000" font-family="sans-serif" font-size="13" lengthAdjust="spacing" textLength="49.1372" x="833.71" y="350.1045">identifier</text></g><?plantuml-src dPBBJiCm44Nt-GghtLTGO8DGfK2BX10IekMndJZJTbJ7ZiO6513_ZkiyIIkAI3QUC_6vYIUEd4BnOjDO5uzCqPfI599OAYpNcEMk41bc2RADx8Pq3WoPi6j8pJlfbLY2ijZfnCpcVR4ckT5ehJWUZJjD1hsnc8lnsL67QfDYe5seIAChSXI6tTfq6bA1ztv6eeowCigm69uURMyFBmsdo7rwRRIRqmUAut7q5KMbOz1y-420ROz1N5oau63XqoSJCRoEPsVJathFr7Sikh2ZMelXB5nHNOz6auxjNFYJr8wMX5nRhloJogmUKFhN3QuVf37-f7slD7ffEBCBKtkVCOdlRuAmN3QcgZpyQZVQEj0Idu094eL1reUDTgVnIm0arZ58Lurm45Vr7UIv_vL2K8yrENt-ZvZjTERLv7fi9wRcXu_hdYa3Bcwn2EAsR9mTT5WtT-38Ef8swDgoqNNG7tIloNO-ZjxyXDGhJaq6f4lrtbORix_zXyWjqAXsydPv6xQdzqlIDm00?></g></svg>