<svg xmlns="http://www.w3.org/2000/svg" xmlns:xlink="http://www.w3.org/1999/xlink" contentStyleType="text/css" data-diagram-type="CLASS" height="497px" preserveAspectRatio="none" style="width:4441px;height:497px;background:#FFFFFF;" version="1.1" viewBox="0 0 4441 497" width="4441px" zoomAndPan="magnify"><?plantuml 1.2026.3?><defs/><g><g class="title" data-source-line="1"><text fill="#000000" font-family="sans-serif" font-size="14" font-weight="700" lengthAdjust="spacing" textLength="71.5723" x="2181.3281" y="24.5332">XsdAnyUri</text></g><!--class XsdAnyUri--><g class="entity" data-qualified-name="XsdAnyUri" data-source-line="16" id="ent0002"><rect fill="#FAE5D3" height="93.0156" rx="2.5" ry="2.5" style="stroke:#404040;stroke-width:0.5;" width="192.1426" x="2183.5" y="390.6094"/><text fill="#000000" font-family="sans-serif" font-size="36" font-style="italic" lengthAdjust="spacing" textLength="190.1426" x="2184.5" y="432.9805">&#171;dataType&#187;</text><text fill="#000000" font-family="sans-serif" font-size="30" lengthAdjust="spacing" textLength="141.709" x="2208.7168" y="472.0332">XsdAnyUri</text></g><!--class Dataset--><g class="entity" data-qualified-name="Dataset" data-source-line="17" id="ent0003"><rect fill="#EEEEEE" height="47.7344" rx="2.5" ry="2.5" style="stroke:#404040;stroke-width:0.5;" width="109.3887" x="7" y="45.6094"/><text fill="#000000" font-family="sans-serif" font-size="30" lengthAdjust="spacing" textLength="103.3887" x="10" y="81.752">Dataset</text></g><!--class CatalogRecord--><g class="entity" data-qualified-name="CatalogRecord" data-source-line="19" id="ent0005"><rect fill="#EEEEEE" height="47.7344" rx="2.5" ry="2.5" style="stroke:#404040;stroke-width:0.5;" width="206.1123" x="136.5" y="45.6094"/><text fill="#000000" font-family="sans-serif" font-size="30" lengthAdjust="spacing" textLength="200.1123" x="139.5" y="81.752">CatalogRecord</text></g><!--class WebAPI--><g class="entity" data-qualified-name="WebAPI" data-source-line="21" id="ent0007"><rect fill="#EEEEEE" height="47.7344" rx="2.5" ry="2.5" style="stroke:#404040;stroke-width:0.5;" width="116.0391" x="365.5" y="45.6094"/><text fill="#000000" font-family="sans-serif" font-size="30" lengthAdjust="spacing" textLength="110.0391" x="368.5" y="81.752">WebAPI</text></g><!--class InstanceVariable--><g class="entity" data-qualified-name="InstanceVariable" data-source-line="23" id="ent0009"><rect fill="#EEEEEE" height="47.7344" rx="2.5" ry="2.5" style="stroke:#404040;stroke-width:0.5;" width="229.4766" x="502" y="45.6094"/><text fill="#000000" font-family="sans-serif" font-size="30" lengthAdjust="spacing" textLength="223.4766" x="505" y="81.752">InstanceVariable</text></g><!--class SubstantiveValueDomain--><g class="entity" data-qualified-name="SubstantiveValueDomain" data-source-line="25" id="ent0011"><rect fill="#EEEEEE" height="47.7344" rx="2.5" ry="2.5" style="stroke:#404040;stroke-width:0.5;" width="342.8701" x="751" y="45.6094"/><text fill="#000000" font-family="sans-serif" font-size="30" lengthAdjust="spacing" textLength="336.8701" x="754" y="81.752">SubstantiveValueDomain</text></g><!--class SentinelValueDomain--><g class="entity" data-qualified-name="SentinelValueDomain" data-source-line="27" id="ent0013"><rect fill="#EEEEEE" height="47.7344" rx="2.5" ry="2.5" style="stroke:#404040;stroke-width:0.5;" width="294.5156" x="1114" y="45.6094"/><text fill="#000000" font-family="sans-serif" font-size="30" lengthAdjust="spacing" textLength="288.5156" x="1117" y="81.752">SentinelValueDomain</text></g><!--class EnumerationDomain--><g class="entity" data-qualified-name="EnumerationDomain" data-source-line="29" id="ent0015"><rect fill="#EEEEEE" height="47.7344" rx="2.5" ry="2.5" style="stroke:#404040;stroke-width:0.5;" width="279.4717" x="1429" y="45.6094"/><text fill="#000000" font-family="sans-serif" font-size="30" lengthAdjust="spacing" textLength="273.4717" x="1432" y="81.752">EnumerationDomain</text></g><!--class ValueAndConceptDescription--><g class="entity" data-qualified-name="ValueAndConceptDescription" data-source-line="31" id="ent0017"><rect fill="#EEEEEE" height="47.7344" rx="2.5" ry="2.5" style="stroke:#404040;stroke-width:0.5;" width="397.9043" x="1728.5" y="45.6094"/><text fill="#000000" font-family="sans-serif" font-size="30" lengthAdjust="spacing" textLength="391.9043" x="1731.5" y="81.752">ValueAndConceptDescription</text></g><!--class DefinedTerm--><g class="entity" data-qualified-name="DefinedTerm" data-source-line="34" id="ent0020"><rect fill="#EEEEEE" height="47.7344" rx="2.5" ry="2.5" style="stroke:#404040;stroke-width:0.5;" width="179.3936" x="2147" y="45.6094"/><text fill="#000000" font-family="sans-serif" font-size="30" lengthAdjust="spacing" textLength="173.3936" x="2150" y="81.752">DefinedTerm</text></g><!--class CdifConceptOrTerm--><g class="entity" data-qualified-name="CdifConceptOrTerm" data-source-line="37" id="ent0023"><rect fill="#EEEEEE" height="47.7344" rx="2.5" ry="2.5" style="stroke:#404040;stroke-width:0.5;" width="274.4033" x="2346.5" y="45.6094"/><text fill="#000000" font-family="sans-serif" font-size="30" lengthAdjust="spacing" textLength="268.4033" x="2349.5" y="81.752">CdifConceptOrTerm</text></g><!--class AbstractMapping--><g class="entity" data-qualified-name="AbstractMapping" data-source-line="39" id="ent0025"><rect fill="#EEEEEE" height="47.7344" rx="2.5" ry="2.5" style="stroke:#404040;stroke-width:0.5;" width="231.1172" x="2641" y="45.6094"/><text fill="#000000" font-family="sans-serif" font-size="30" font-style="italic" lengthAdjust="spacing" textLength="225.1172" x="2644" y="81.752">AbstractMapping</text></g><!--class AbstractDataSet--><g class="entity" data-qualified-name="AbstractDataSet" data-source-line="41" id="ent0027"><rect fill="#EEEEEE" height="47.7344" rx="2.5" ry="2.5" style="stroke:#404040;stroke-width:0.5;" width="224.4375" x="2892.5" y="45.6094"/><text fill="#000000" font-family="sans-serif" font-size="30" font-style="italic" lengthAdjust="spacing" textLength="218.4375" x="2895.5" y="81.752">AbstractDataSet</text></g><!--class PrimaryKey--><g class="entity" data-qualified-name="PrimaryKey" data-source-line="43" id="ent0029"><rect fill="#EEEEEE" height="47.7344" rx="2.5" ry="2.5" style="stroke:#404040;stroke-width:0.5;" width="161.0244" x="3137" y="45.6094"/><text fill="#000000" font-family="sans-serif" font-size="30" lengthAdjust="spacing" textLength="155.0244" x="3140" y="81.752">PrimaryKey</text></g><!--class ComponentPosition--><g class="entity" data-qualified-name="ComponentPosition" data-source-line="45" id="ent0031"><rect fill="#EEEEEE" height="47.7344" rx="2.5" ry="2.5" style="stroke:#404040;stroke-width:0.5;" width="267.8262" x="3318.5" y="45.6094"/><text fill="#000000" font-family="sans-serif" font-size="30" lengthAdjust="spacing" textLength="261.8262" x="3321.5" y="81.752">ComponentPosition</text></g><!--class Statistics--><g class="entity" data-qualified-name="Statistics" data-source-line="47" id="ent0033"><rect fill="#EEEEEE" height="47.7344" rx="2.5" ry="2.5" style="stroke:#404040;stroke-width:0.5;" width="126.0293" x="3606.5" y="45.6094"/><text fill="#000000" font-family="sans-serif" font-size="30" lengthAdjust="spacing" textLength="120.0293" x="3609.5" y="81.752">Statistics</text></g><!--class CategoryStatistics--><g class="entity" data-qualified-name="CategoryStatistics" data-source-line="49" id="ent0035"><rect fill="#EEEEEE" height="47.7344" rx="2.5" ry="2.5" style="stroke:#404040;stroke-width:0.5;" width="247.7578" x="3752.5" y="45.6094"/><text fill="#000000" font-family="sans-serif" font-size="30" lengthAdjust="spacing" textLength="241.7578" x="3755.5" y="81.752">CategoryStatistics</text></g><!--class StatisticsCollection--><g class="entity" data-qualified-name="StatisticsCollection" data-source-line="51" id="ent0037"><rect fill="#EEEEEE" height="47.7344" rx="2.5" ry="2.5" style="stroke:#404040;stroke-width:0.5;" width="257.7627" x="4020.5" y="45.6094"/><text fill="#000000" font-family="sans-serif" font-size="30" lengthAdjust="spacing" textLength="251.7627" x="4023.5" y="81.752">StatisticsCollection</text></g><!--class Category--><g class="entity" data-qualified-name="Category" data-source-line="53" id="ent0039"><rect fill="#EEEEEE" height="47.7344" rx="2.5" ry="2.5" style="stroke:#404040;stroke-width:0.5;" width="127.7285" x="4298.5" y="45.6094"/><text fill="#000000" font-family="sans-serif" font-size="30" lengthAdjust="spacing" textLength="121.7285" x="4301.5" y="81.752">Category</text></g><!--link Dataset to XsdAnyUri--><g class="link" data-entity-1="ent0003" data-entity-2="ent0002" data-link-type="dependency" data-source-line="18" id="lnk4"><path codeLine="18" d="M72.54,93.7494 C94.27,136.3894 147.04,226.5494 221.5,265.6094 C396.76,357.5594 1794.8145,417.5075 2177.4845,432.3075" fill="none" id="Dataset-to-XsdAnyUri" style="stroke:#404040;stroke-width:1.2;stroke-dasharray:7,7;"/><polygon fill="#404040" points="2183.48,432.5394,2174.6413,428.1945,2178.4837,432.3461,2174.3321,436.1886,2183.48,432.5394" style="stroke:#404040;stroke-width:1.2;"/><text fill="#000000" font-family="sans-serif" font-size="36" lengthAdjust="spacing" textLength="136.0723" x="222.5" y="256.9805">identifier</text></g><!--link CatalogRecord to XsdAnyUri--><g class="link" data-entity-1="ent0005" data-entity-2="ent0002" data-link-type="dependency" data-source-line="20" id="lnk6"><path codeLine="20" d="M254.04,93.7494 C282.28,136.3894 349.07,226.5394 431.5,265.6094 C746.58,414.9394 1843.8401,433.5996 2177.3101,435.8096" fill="none" id="CatalogRecord-to-XsdAnyUri" style="stroke:#404040;stroke-width:1.2;stroke-dasharray:7,7;"/><polygon fill="#404040" points="2183.31,435.8494,2174.3367,431.7898,2178.3101,435.8162,2174.2837,439.7896,2183.31,435.8494" style="stroke:#404040;stroke-width:1.2;"/><text fill="#000000" font-family="sans-serif" font-size="36" lengthAdjust="spacing" textLength="190.0547" x="432.5" y="256.9805">conformsTo</text></g><!--link WebAPI to XsdAnyUri--><g class="link" data-entity-1="ent0007" data-entity-2="ent0002" data-link-type="dependency" data-source-line="22" id="lnk8"><path codeLine="22" d="M450.01,93.8894 C500.05,136.3294 613.59,225.5894 726.5,265.6094 C998.06,361.8494 1882.3583,415.4533 2177.4983,431.0233" fill="none" id="WebAPI-to-XsdAnyUri" style="stroke:#404040;stroke-width:1.2;stroke-dasharray:7,7;"/><polygon fill="#404040" points="2183.49,431.3394,2174.7132,426.8708,2178.4969,431.076,2174.2918,434.8597,2183.49,431.3394" style="stroke:#404040;stroke-width:1.2;"/><text fill="#000000" font-family="sans-serif" font-size="36" lengthAdjust="spacing" textLength="136.0723" x="727.5" y="256.9805">identifier</text></g><!--link InstanceVariable to XsdAnyUri--><g class="link" data-entity-1="ent0009" data-entity-2="ent0002" data-link-type="dependency" data-source-line="24" id="lnk10"><path codeLine="24" d="M650.28,93.8094 C713.14,135.7194 853.64,223.5794 985.5,265.6094 C1417.55,403.3294 1958.8816,429.7806 2177.2216,434.8306" fill="none" id="InstanceVariable-to-XsdAnyUri" style="stroke:#404040;stroke-width:1.2;stroke-dasharray:7,7;"/><polygon fill="#404040" points="2183.22,434.9694,2174.3149,430.7623,2178.2213,434.8538,2174.1299,438.7602,2183.22,434.9694" style="stroke:#404040;stroke-width:1.2;"/><text fill="#000000" font-family="sans-serif" font-size="36" lengthAdjust="spacing" textLength="136.0723" x="986.5" y="256.9805">identifier</text></g><!--link SubstantiveValueDomain to XsdAnyUri--><g class="link" data-entity-1="ent0011" data-entity-2="ent0002" data-link-type="dependency" data-source-line="26" id="lnk12"><path codeLine="26" d="M948.56,93.7094 C997.21,135.4594 1106.82,223.0694 1215.5,265.6094 C1554.34,398.2294 1986.4935,427.5443 2177.4535,434.0743" fill="none" id="SubstantiveValueDomain-to-XsdAnyUri" style="stroke:#404040;stroke-width:1.2;stroke-dasharray:7,7;"/><polygon fill="#404040" points="2183.45,434.2794,2174.592,429.9741,2178.4529,434.1085,2174.3186,437.9695,2183.45,434.2794" style="stroke:#404040;stroke-width:1.2;"/><text fill="#000000" font-family="sans-serif" font-size="36" lengthAdjust="spacing" textLength="136.0723" x="1216.5" y="256.9805">identifier</text></g><!--link SentinelValueDomain to XsdAnyUri--><g class="link" data-entity-1="ent0013" data-entity-2="ent0002" data-link-type="dependency" data-source-line="28" id="lnk14"><path codeLine="28" d="M1271.96,93.6294 C1292.14,135.2494 1340.62,222.6594 1409.5,265.6094 C1538.31,345.9294 1979.1675,403.0294 2177.4575,425.3094" fill="none" id="SentinelValueDomain-to-XsdAnyUri" style="stroke:#404040;stroke-width:1.2;stroke-dasharray:7,7;"/><polygon fill="#404040" points="2183.42,425.9794,2174.9229,420.9995,2178.4513,425.4211,2174.0296,428.9494,2183.42,425.9794" style="stroke:#404040;stroke-width:1.2;"/><text fill="#000000" font-family="sans-serif" font-size="36" lengthAdjust="spacing" textLength="136.0723" x="1410.5" y="256.9805">identifier</text></g><!--link EnumerationDomain to XsdAnyUri--><g class="link" data-entity-1="ent0015" data-entity-2="ent0002" data-link-type="dependency" data-source-line="30" id="lnk16"><path codeLine="30" d="M1561.14,93.7994 C1550.02,133.7494 1534.25,216.0494 1574.5,265.6094 C1650.66,359.3894 2002.734,407.7317 2177.324,426.3917" fill="none" id="EnumerationDomain-to-XsdAnyUri" style="stroke:#404040;stroke-width:1.2;stroke-dasharray:7,7;"/><polygon fill="#404040" points="2183.29,427.0294,2174.7661,422.0956,2178.3183,426.498,2173.9159,430.0503,2183.29,427.0294" style="stroke:#404040;stroke-width:1.2;"/><text fill="#000000" font-family="sans-serif" font-size="36" lengthAdjust="spacing" textLength="136.0723" x="1575.5" y="256.9805">identifier</text></g><!--link ValueAndConceptDescription to XsdAnyUri--><g class="link" data-entity-1="ent0017" data-entity-2="ent0002" data-link-type="dependency" data-source-line="32" id="lnk18"><path codeLine="32" d="M1871.83,93.6694 C1797.06,127.9794 1679.2,195.9594 1730.5,265.6094 C1784.55,338.9894 2034.9657,393.372 2177.4657,419.132" fill="none" id="ValueAndConceptDescription-to-XsdAnyUri" style="stroke:#404040;stroke-width:1.2;stroke-dasharray:7,7;"/><polygon fill="#404040" points="2183.37,420.1994,2175.2251,414.6622,2178.4497,419.3099,2173.802,422.5346,2183.37,420.1994" style="stroke:#404040;stroke-width:1.2;"/><text fill="#000000" font-family="sans-serif" font-size="36" lengthAdjust="spacing" textLength="136.0723" x="1731.5" y="256.9805">identifier</text></g><!--link ValueAndConceptDescription to XsdAnyUri--><g class="link" data-entity-1="ent0017" data-entity-2="ent0002" data-link-type="dependency" data-source-line="33" id="lnk19"><path codeLine="33" d="M1916.62,93.7994 C1900.13,132.6894 1874.18,212.0594 1908.5,265.6094 C1968.65,359.4494 2089.0255,401.0715 2177.4655,420.1915" fill="none" id="ValueAndConceptDescription-to-XsdAnyUri-1" style="stroke:#404040;stroke-width:1.2;stroke-dasharray:7,7;"/><polygon fill="#404040" points="2183.33,421.4594,2175.3785,415.6479,2178.4429,420.4028,2173.688,423.4673,2183.33,421.4594" style="stroke:#404040;stroke-width:1.2;"/><text fill="#000000" font-family="sans-serif" font-size="36" lengthAdjust="spacing" textLength="278.1563" x="1909.5" y="256.9805">externalDefinition</text></g><!--link DefinedTerm to XsdAnyUri--><g class="link" data-entity-1="ent0020" data-entity-2="ent0002" data-link-type="dependency" data-source-line="35" id="lnk21"><path codeLine="35" d="M2225.73,93.8194 C2210.14,130.4494 2184.58,203.8694 2198.5,265.6094 C2208.59,310.3694 2228.8888,351.9524 2247.9088,385.1724" fill="none" id="DefinedTerm-to-XsdAnyUri" style="stroke:#404040;stroke-width:1.2;stroke-dasharray:7,7;"/><polygon fill="#404040" points="2250.89,390.3794,2249.8895,380.5815,2248.4056,386.0403,2242.9469,384.5564,2250.89,390.3794" style="stroke:#404040;stroke-width:1.2;"/><text fill="#000000" font-family="sans-serif" font-size="36" lengthAdjust="spacing" textLength="136.0723" x="2199.5" y="256.9805">identifier</text></g><!--link DefinedTerm to XsdAnyUri--><g class="link" data-entity-1="ent0020" data-entity-2="ent0002" data-link-type="dependency" data-source-line="36" id="lnk22"><path codeLine="36" d="M2259.08,93.8394 C2283.86,121.1094 2322.18,168.9694 2337.5,218.6094 C2355.66,277.4194 2332.2696,340.8565 2309.4696,385.0765" fill="none" id="DefinedTerm-to-XsdAnyUri-1" style="stroke:#404040;stroke-width:1.2;stroke-dasharray:7,7;"/><polygon fill="#404040" points="2306.72,390.4094,2314.3997,384.2432,2309.0114,385.9653,2307.2892,380.577,2306.72,390.4094" style="stroke:#404040;stroke-width:1.2;"/><text fill="#000000" font-family="sans-serif" font-size="36" lengthAdjust="spacing" textLength="290.127" x="2344.5" y="256.9805">inDefinedTermSet</text></g><!--link CdifConceptOrTerm to XsdAnyUri--><g class="link" data-entity-1="ent0023" data-entity-2="ent0002" data-link-type="dependency" data-source-line="38" id="lnk24"><path codeLine="38" d="M2526.38,93.6094 C2586.16,128.8094 2682.72,198.9694 2640.5,265.6094 C2582.72,356.7994 2467.4646,398.7826 2381.4846,418.7426" fill="none" id="CdifConceptOrTerm-to-XsdAnyUri" style="stroke:#404040;stroke-width:1.2;stroke-dasharray:7,7;"/><polygon fill="#404040" points="2375.64,420.0994,2385.3114,421.9606,2380.5105,418.9687,2383.5023,414.1678,2375.64,420.0994" style="stroke:#404040;stroke-width:1.2;"/><text fill="#000000" font-family="sans-serif" font-size="36" lengthAdjust="spacing" textLength="136.0723" x="2651.5" y="256.9805">identifier</text></g><!--link AbstractMapping to XsdAnyUri--><g class="link" data-entity-1="ent0025" data-entity-2="ent0002" data-link-type="dependency" data-source-line="40" id="lnk26"><path codeLine="40" d="M2771.15,93.7694 C2793.89,132.9694 2831.32,213.2194 2793.5,265.6094 C2744.01,334.1694 2516.1889,389.3598 2381.5689,416.8298" fill="none" id="AbstractMapping-to-XsdAnyUri" style="stroke:#404040;stroke-width:1.2;stroke-dasharray:7,7;"/><polygon fill="#404040" points="2375.69,418.0294,2385.308,420.1492,2380.589,417.0297,2383.7085,412.3107,2375.69,418.0294" style="stroke:#404040;stroke-width:1.2;"/><text fill="#000000" font-family="sans-serif" font-size="36" lengthAdjust="spacing" textLength="136.0723" x="2809.5" y="256.9805">identifier</text></g><!--link AbstractDataSet to XsdAnyUri--><g class="link" data-entity-1="ent0027" data-entity-2="ent0002" data-link-type="dependency" data-source-line="42" id="lnk28"><path codeLine="42" d="M3005.23,93.8094 C3005.17,134.5394 2998.9,218.9994 2951.5,265.6094 C2870.18,345.5694 2546.972,399.7472 2381.462,422.9272" fill="none" id="AbstractDataSet-to-XsdAnyUri" style="stroke:#404040;stroke-width:1.2;stroke-dasharray:7,7;"/><polygon fill="#404040" points="2375.52,423.7594,2384.9878,426.4724,2380.4717,423.0659,2383.8782,418.5498,2375.52,423.7594" style="stroke:#404040;stroke-width:1.2;"/><text fill="#000000" font-family="sans-serif" font-size="36" lengthAdjust="spacing" textLength="136.0723" x="2982.5" y="256.9805">identifier</text></g><!--link PrimaryKey to XsdAnyUri--><g class="link" data-entity-1="ent0029" data-entity-2="ent0002" data-link-type="dependency" data-source-line="44" id="lnk30"><path codeLine="44" d="M3213.42,93.7394 C3204.83,135.1394 3180.84,221.6594 3124.5,265.6094 C3008.41,356.1594 2577.6113,407.6528 2381.6513,426.9028" fill="none" id="PrimaryKey-to-XsdAnyUri" style="stroke:#404040;stroke-width:1.2;stroke-dasharray:7,7;"/><polygon fill="#404040" points="2375.68,427.4894,2385.0279,430.5903,2380.656,427.0006,2384.2458,422.6287,2375.68,427.4894" style="stroke:#404040;stroke-width:1.2;"/><text fill="#000000" font-family="sans-serif" font-size="36" lengthAdjust="spacing" textLength="136.0723" x="3163.5" y="256.9805">identifier</text></g><!--link ComponentPosition to XsdAnyUri--><g class="link" data-entity-1="ent0031" data-entity-2="ent0002" data-link-type="dependency" data-source-line="46" id="lnk32"><path codeLine="46" d="M3442.28,93.8194 C3422.5,135.7494 3374.76,223.6494 3305.5,265.6094 C3149.33,360.2294 2605.5118,411.2928 2381.5218,428.7628" fill="none" id="ComponentPosition-to-XsdAnyUri" style="stroke:#404040;stroke-width:1.2;stroke-dasharray:7,7;"/><polygon fill="#404040" points="2375.54,429.2294,2384.8238,432.5174,2380.5249,428.8406,2384.2017,424.5417,2375.54,429.2294" style="stroke:#404040;stroke-width:1.2;"/><text fill="#000000" font-family="sans-serif" font-size="36" lengthAdjust="spacing" textLength="136.0723" x="3361.5" y="256.9805">identifier</text></g><!--link Statistics to XsdAnyUri--><g class="link" data-entity-1="ent0033" data-entity-2="ent0002" data-link-type="dependency" data-source-line="48" id="lnk34"><path codeLine="48" d="M3657.41,93.7094 C3634,135.8494 3578.14,224.6394 3503.5,265.6094 C3308.95,372.3894 2635.5115,417.6092 2381.9215,431.1592" fill="none" id="Statistics-to-XsdAnyUri" style="stroke:#404040;stroke-width:1.2;stroke-dasharray:7,7;"/><polygon fill="#404040" points="2375.93,431.4794,2385.1306,434.9935,2380.9229,431.2126,2384.7038,427.0049,2375.93,431.4794" style="stroke:#404040;stroke-width:1.2;"/><text fill="#000000" font-family="sans-serif" font-size="36" lengthAdjust="spacing" textLength="136.0723" x="3564.5" y="256.9805">identifier</text></g><!--link CategoryStatistics to XsdAnyUri--><g class="link" data-entity-1="ent0035" data-entity-2="ent0002" data-link-type="dependency" data-source-line="50" id="lnk36"><path codeLine="50" d="M3864.04,93.8494 C3839.94,136.2394 3782.54,225.4094 3706.5,265.6094 C3474.07,388.4994 2663.217,424.4194 2381.707,433.3394" fill="none" id="CategoryStatistics-to-XsdAnyUri" style="stroke:#404040;stroke-width:1.2;stroke-dasharray:7,7;"/><polygon fill="#404040" points="2375.71,433.5294,2384.8322,437.2423,2380.7075,433.371,2384.5788,429.2463,2375.71,433.5294" style="stroke:#404040;stroke-width:1.2;"/><text fill="#000000" font-family="sans-serif" font-size="36" lengthAdjust="spacing" textLength="136.0723" x="3768.5" y="256.9805">identifier</text></g><!--link StatisticsCollection to XsdAnyUri--><g class="link" data-entity-1="ent0037" data-entity-2="ent0002" data-link-type="dependency" data-source-line="52" id="lnk38"><path codeLine="52" d="M4129.96,93.6694 C4092.4,136.1694 4005.43,226.1094 3910.5,265.6094 C3629.73,382.4194 2687.8067,422.809 2381.6867,433.039" fill="none" id="StatisticsCollection-to-XsdAnyUri" style="stroke:#404040;stroke-width:1.2;stroke-dasharray:7,7;"/><polygon fill="#404040" points="2375.69,433.2394,2384.8186,436.9365,2380.6872,433.0724,2384.5514,428.941,2375.69,433.2394" style="stroke:#404040;stroke-width:1.2;"/><text fill="#000000" font-family="sans-serif" font-size="36" lengthAdjust="spacing" textLength="136.0723" x="3991.5" y="256.9805">identifier</text></g><!--link Category to XsdAnyUri--><g class="link" data-entity-1="ent0039" data-entity-2="ent0002" data-link-type="dependency" data-source-line="54" id="lnk40"><path codeLine="54" d="M4344.04,93.7794 C4308.51,136.4694 4225.9,226.6994 4133.5,265.6094 C3811.12,401.3594 2714.6192,429.3414 2381.5492,434.7814" fill="none" id="Category-to-XsdAnyUri" style="stroke:#404040;stroke-width:1.2;stroke-dasharray:7,7;"/><polygon fill="#404040" points="2375.55,434.8794,2384.6141,438.7319,2380.5493,434.7977,2384.4835,430.7329,2375.55,434.8794" style="stroke:#404040;stroke-width:1.2;"/><text fill="#000000" font-family="sans-serif" font-size="36" lengthAdjust="spacing" textLength="136.0723" x="4211.5" y="256.9805">identifier</text></g><?plantuml-src dLLDZzem4BtdLrXmHtItsqErMYa5LbfLLL6X7rVZJC32iQEnwJQj-j_hEC4nCHlOmiNpdkUziV4CXXi1v8VEKbbzHPxiU0Q4SMG2cZKKfQb80SK6K2TwpsL9aHP4xsYcdhdSafmA3G6J8ghdzOwplGIjoPl9JK0YbNiD9RcvcmQeL1auD0GpoEb1c4SbpOh_1dBxBY2Pe5RxJq8QkvaI2iduxRJ-Ml23mWomZuPIDj4Ov9k3WGwU9d-Jf94U-JiP4Qgx6oBtznarT5sLyF10ne_fucv-UyoPMqQ3SHdjcemNxfCSuyda8L1xJ-mbIyDp3dXKcTcTGcs_0BEdS5edY5SyHVkwJCbSOQ7NwgZx7JRfyia9Daklr8QNItkIsb39u1j5JZS2d5WVzB8HSTbWTTZKEOR_j5dY07DLK2wTpNdAcxr0Ns5P0n94v1VZdTaPxhBJGXuAG6guae5FX7gNcBdiuIfAPJPJzk9BCmVDa9UrX3DxcVQk0ri6x5-H1RyCeAHY3ZcNlDxY-wT685i35aqFTN7NHm4sKC_WDXcmAp2-yJAUj_L_Hbz4X7OD63431L7xF94oquwkKTh6dsXPsZ7gh7gOD-hZ_s5JZvzLEvfwM6Hpn2-_jYNoWcBr4Iedt8LUCu2kc7ogA9Mqw59fxjziX7O_GCHSqUx6DfGsdEccottODNS7NJMiOQkmwid6S3Ys-zHhghP_QWAOlvnpn9cJ1EJrPpevILJ_aD0_?></g></svg>