<svg xmlns="http://www.w3.org/2000/svg" xmlns:xlink="http://www.w3.org/1999/xlink" contentStyleType="text/css" data-diagram-type="CLASS" height="202px" preserveAspectRatio="none" style="width:2254px;height:202px;background:#FFFFFF;" version="1.1" viewBox="0 0 2254 202" width="2254px" zoomAndPan="magnify"><?plantuml 1.2026.3?><defs/><g><g class="title" data-source-line="1"><text fill="#000000" font-family="sans-serif" font-size="14" font-weight="700" lengthAdjust="spacing" textLength="71.5723" x="1087.9863" y="24.5332">XsdAnyUri</text></g><!--class XsdAnyUri--><g class="entity" data-qualified-name="XsdAnyUri" data-source-line="12" id="ent0002"><rect fill="#FAE5D3" height="40.1875" rx="2.5" ry="2.5" style="stroke:#404040;stroke-width:0.5;" width="65.3809" x="1043" y="148.6094"/><text fill="#000000" font-family="sans-serif" font-size="12" font-style="italic" lengthAdjust="spacing" textLength="63.3809" x="1044" y="166.0664">&#171;dataType&#187;</text><text fill="#000000" font-family="sans-serif" font-size="12" lengthAdjust="spacing" textLength="56.6836" x="1047.3486" y="181.1602">XsdAnyUri</text></g><!--class VariableMeasured--><g class="entity" data-qualified-name="VariableMeasured" data-source-line="13" id="ent0003"><rect fill="#EEEEEE" height="25.0938" rx="2.5" ry="2.5" style="stroke:#404040;stroke-width:0.5;" width="103.3887" x="7" y="45.6094"/><text fill="#000000" font-family="sans-serif" font-size="12" lengthAdjust="spacing" textLength="97.3887" x="10" y="63.0664">VariableMeasured</text></g><!--class DataDownload--><g class="entity" data-qualified-name="DataDownload" data-source-line="15" id="ent0005"><rect fill="#EEEEEE" height="25.0938" rx="2.5" ry="2.5" style="stroke:#404040;stroke-width:0.5;" width="84.7148" x="145" y="45.6094"/><text fill="#000000" font-family="sans-serif" font-size="12" lengthAdjust="spacing" textLength="78.7148" x="148" y="63.0664">DataDownload</text></g><!--class EnumerationDomain--><g class="entity" data-qualified-name="EnumerationDomain" data-source-line="18" id="ent0008"><rect fill="#EEEEEE" height="25.0938" rx="2.5" ry="2.5" style="stroke:#404040;stroke-width:0.5;" width="115.3887" x="265" y="45.6094"/><text fill="#000000" font-family="sans-serif" font-size="12" lengthAdjust="spacing" textLength="109.3887" x="268" y="63.0664">EnumerationDomain</text></g><!--class Concept--><g class="entity" data-qualified-name="Concept" data-source-line="20" id="ent0010"><rect fill="#EEEEEE" height="25.0938" rx="2.5" ry="2.5" style="stroke:#404040;stroke-width:0.5;" width="50.6953" x="415" y="45.6094"/><text fill="#000000" font-family="sans-serif" font-size="12" lengthAdjust="spacing" textLength="44.6953" x="418" y="63.0664">Concept</text></g><!--class Identifier--><g class="entity" data-qualified-name="Identifier" data-source-line="22" id="ent0012"><rect fill="#EEEEEE" height="25.0938" rx="2.5" ry="2.5" style="stroke:#404040;stroke-width:0.5;" width="52.0254" x="501.5" y="45.6094"/><text fill="#000000" font-family="sans-serif" font-size="12" lengthAdjust="spacing" textLength="46.0254" x="504.5" y="63.0664">Identifier</text></g><!--class DefinedTerm--><g class="entity" data-qualified-name="DefinedTerm" data-source-line="24" id="ent0014"><rect fill="#EEEEEE" height="25.0938" rx="2.5" ry="2.5" style="stroke:#404040;stroke-width:0.5;" width="75.3574" x="624" y="45.6094"/><text fill="#000000" font-family="sans-serif" font-size="12" lengthAdjust="spacing" textLength="69.3574" x="627" y="63.0664">DefinedTerm</text></g><!--class Dataset--><g class="entity" data-qualified-name="Dataset" data-source-line="27" id="ent0017"><rect fill="#EEEEEE" height="25.0938" rx="2.5" ry="2.5" style="stroke:#404040;stroke-width:0.5;" width="47.3555" x="756" y="45.6094"/><text fill="#000000" font-family="sans-serif" font-size="12" lengthAdjust="spacing" textLength="41.3555" x="759" y="63.0664">Dataset</text></g><!--class AbstractGeometry--><g class="entity" data-qualified-name="AbstractGeometry" data-source-line="29" id="ent0019"><rect fill="#EEEEEE" height="25.0938" rx="2.5" ry="2.5" style="stroke:#404040;stroke-width:0.5;" width="102.6973" x="838" y="45.6094"/><text fill="#000000" font-family="sans-serif" font-size="12" font-style="italic" lengthAdjust="spacing" textLength="96.6973" x="841" y="63.0664">AbstractGeometry</text></g><!--class TemporalExtent--><g class="entity" data-qualified-name="TemporalExtent" data-source-line="31" id="ent0021"><rect fill="#EEEEEE" height="25.0938" rx="2.5" ry="2.5" style="stroke:#404040;stroke-width:0.5;" width="90.7031" x="1003" y="45.6094"/><text fill="#000000" font-family="sans-serif" font-size="12" lengthAdjust="spacing" textLength="84.7031" x="1006" y="63.0664">TemporalExtent</text></g><!--class Instant--><g class="entity" data-qualified-name="Instant" data-source-line="34" id="ent0024"><rect fill="#EEEEEE" height="25.0938" rx="2.5" ry="2.5" style="stroke:#404040;stroke-width:0.5;" width="42.0234" x="1185.5" y="45.6094"/><text fill="#000000" font-family="sans-serif" font-size="12" lengthAdjust="spacing" textLength="36.0234" x="1188.5" y="63.0664">Instant</text></g><!--class TimePosition--><g class="entity" data-qualified-name="TimePosition" data-source-line="36" id="ent0026"><rect fill="#EEEEEE" height="25.0938" rx="2.5" ry="2.5" style="stroke:#404040;stroke-width:0.5;" width="75.3574" x="1263" y="45.6094"/><text fill="#000000" font-family="sans-serif" font-size="12" lengthAdjust="spacing" textLength="69.3574" x="1266" y="63.0664">TimePosition</text></g><!--class Geometry--><g class="entity" data-qualified-name="Geometry" data-source-line="38" id="ent0028"><rect fill="#EEEEEE" height="25.0938" rx="2.5" ry="2.5" style="stroke:#404040;stroke-width:0.5;" width="58.6816" x="1373" y="45.6094"/><text fill="#000000" font-family="sans-serif" font-size="12" lengthAdjust="spacing" textLength="52.6816" x="1376" y="63.0664">Geometry</text></g><!--class QualityMeasurement--><g class="entity" data-qualified-name="QualityMeasurement" data-source-line="40" id="ent0030"><rect fill="#EEEEEE" height="25.0938" rx="2.5" ry="2.5" style="stroke:#404040;stroke-width:0.5;" width="116.7129" x="1467" y="45.6094"/><text fill="#000000" font-family="sans-serif" font-size="12" lengthAdjust="spacing" textLength="110.7129" x="1470" y="63.0664">QualityMeasurement</text></g><!--class WebAPI--><g class="entity" data-qualified-name="WebAPI" data-source-line="43" id="ent0033"><rect fill="#EEEEEE" height="25.0938" rx="2.5" ry="2.5" style="stroke:#404040;stroke-width:0.5;" width="50.0156" x="1619.5" y="45.6094"/><text fill="#000000" font-family="sans-serif" font-size="12" lengthAdjust="spacing" textLength="44.0156" x="1622.5" y="63.0664">WebAPI</text></g><!--class Organization--><g class="entity" data-qualified-name="Organization" data-source-line="45" id="ent0035"><rect fill="#EEEEEE" height="25.0938" rx="2.5" ry="2.5" style="stroke:#404040;stroke-width:0.5;" width="74.0391" x="1704.5" y="45.6094"/><text fill="#000000" font-family="sans-serif" font-size="12" lengthAdjust="spacing" textLength="68.0391" x="1707.5" y="63.0664">Organization</text></g><!--class AdditionalProperty--><g class="entity" data-qualified-name="AdditionalProperty" data-source-line="47" id="ent0037"><rect fill="#EEEEEE" height="25.0938" rx="2.5" ry="2.5" style="stroke:#404040;stroke-width:0.5;" width="104.0566" x="1813.5" y="45.6094"/><text fill="#000000" font-family="sans-serif" font-size="12" lengthAdjust="spacing" textLength="98.0566" x="1816.5" y="63.0664">AdditionalProperty</text></g><!--class Reference--><g class="entity" data-qualified-name="Reference" data-source-line="49" id="ent0039"><rect fill="#EEEEEE" height="25.0938" rx="2.5" ry="2.5" style="stroke:#404040;stroke-width:0.5;" width="61.3652" x="1953" y="45.6094"/><text fill="#000000" font-family="sans-serif" font-size="12" lengthAdjust="spacing" textLength="55.3652" x="1956" y="63.0664">Reference</text></g><!--class ProvActivity--><g class="entity" data-qualified-name="ProvActivity" data-source-line="51" id="ent0041"><rect fill="#EEEEEE" height="25.0938" rx="2.5" ry="2.5" style="stroke:#404040;stroke-width:0.5;" width="68.6777" x="2049" y="45.6094"/><text fill="#000000" font-family="sans-serif" font-size="12" lengthAdjust="spacing" textLength="62.6777" x="2052" y="63.0664">ProvActivity</text></g><!--class CatalogRecord--><g class="entity" data-qualified-name="CatalogRecord" data-source-line="53" id="ent0043"><rect fill="#EEEEEE" height="25.0938" rx="2.5" ry="2.5" style="stroke:#404040;stroke-width:0.5;" width="86.0449" x="2153.5" y="45.6094"/><text fill="#000000" font-family="sans-serif" font-size="12" lengthAdjust="spacing" textLength="80.0449" x="2156.5" y="63.0664">CatalogRecord</text></g><!--link VariableMeasured to XsdAnyUri--><g class="link" data-entity-1="ent0003" data-entity-2="ent0002" data-link-type="dependency" data-source-line="14" id="lnk4"><path codeLine="14" d="M61.45,70.6694 C65.71,84.7194 75.06,107.8994 92.5,118.6094 C175,169.2694 875.7801,168.6699 1036.9001,167.8499" fill="none" id="VariableMeasured-to-XsdAnyUri" style="stroke:#404040;stroke-width:1.2;stroke-dasharray:7,7;"/><polygon fill="#404040" points="1042.9,167.8194,1033.8798,163.8652,1037.9001,167.8448,1033.9205,171.8651,1042.9,167.8194" style="stroke:#404040;stroke-width:1.2;"/><text fill="#000000" font-family="sans-serif" font-size="13" lengthAdjust="spacing" textLength="58.5317" x="93.5" y="115.1045">propertyId</text></g><!--link DataDownload to XsdAnyUri--><g class="link" data-entity-1="ent0005" data-entity-2="ent0002" data-link-type="dependency" data-source-line="16" id="lnk6"><path codeLine="16" d="M176.59,71.0794 C165.91,84.2594 152.92,105.3394 165.5,118.6094 C196.29,151.1094 878.2008,164.3493 1037.0008,166.9993" fill="none" id="DataDownload-to-XsdAnyUri" style="stroke:#404040;stroke-width:1.2;stroke-dasharray:7,7;"/><polygon fill="#404040" points="1043,167.0994,1034.068,162.9498,1038.0007,167.0159,1033.9345,170.9487,1043,167.0994" style="stroke:#404040;stroke-width:1.2;"/><text fill="#000000" font-family="sans-serif" font-size="13" lengthAdjust="spacing" textLength="59.249" x="166.5" y="115.1045">contentUrl</text></g><!--link DataDownload to XsdAnyUri--><g class="link" data-entity-1="ent0005" data-entity-2="ent0002" data-link-type="dependency" data-source-line="17" id="lnk7"><path codeLine="17" d="M209.52,70.7094 C237.49,84.8094 287.62,108.0394 333.5,118.6094 C471.57,150.4194 912.3719,163.5582 1036.9719,166.6982" fill="none" id="DataDownload-to-XsdAnyUri-1" style="stroke:#404040;stroke-width:1.2;stroke-dasharray:7,7;"/><polygon fill="#404040" points="1042.97,166.8494,1034.0736,162.6239,1037.9716,166.7234,1033.8721,170.6214,1042.97,166.8494" style="stroke:#404040;stroke-width:1.2;"/><text fill="#000000" font-family="sans-serif" font-size="13" lengthAdjust="spacing" textLength="14.4473" x="334.5" y="115.1045">url</text></g><!--link EnumerationDomain to XsdAnyUri--><g class="link" data-entity-1="ent0008" data-entity-2="ent0002" data-link-type="dependency" data-source-line="19" id="lnk9"><path codeLine="19" d="M330.22,70.7594 C340.34,84.9094 359.52,108.1894 382.5,118.6094 C443.05,146.0794 907.4229,162.3915 1036.7129,166.4415" fill="none" id="EnumerationDomain-to-XsdAnyUri" style="stroke:#404040;stroke-width:1.2;stroke-dasharray:7,7;"/><polygon fill="#404040" points="1042.71,166.6294,1033.8397,162.3495,1037.7125,166.4728,1033.5892,170.3456,1042.71,166.6294" style="stroke:#404040;stroke-width:1.2;"/><text fill="#000000" font-family="sans-serif" font-size="13" lengthAdjust="spacing" textLength="61.4199" x="383.5" y="115.1045">references</text></g><!--link Concept to XsdAnyUri--><g class="link" data-entity-1="ent0010" data-entity-2="ent0002" data-link-type="dependency" data-source-line="21" id="lnk11"><path codeLine="21" d="M442.66,71.0094 C445.87,84.9694 453.37,107.5994 469.5,118.6094 C517.07,151.0794 917.982,163.6456 1036.962,166.6956" fill="none" id="Concept-to-XsdAnyUri" style="stroke:#404040;stroke-width:1.2;stroke-dasharray:7,7;"/><polygon fill="#404040" points="1042.96,166.8494,1034.0655,162.6201,1037.9616,166.7212,1033.8605,170.6174,1042.96,166.8494" style="stroke:#404040;stroke-width:1.2;"/><text fill="#000000" font-family="sans-serif" font-size="13" lengthAdjust="spacing" textLength="57.8081" x="470.5" y="115.1045">inScheme</text></g><!--link Identifier to XsdAnyUri--><g class="link" data-entity-1="ent0012" data-entity-2="ent0002" data-link-type="dependency" data-source-line="23" id="lnk13"><path codeLine="23" d="M528.46,70.8994 C530.27,84.7394 535.48,107.2494 550.5,118.6094 C589.79,148.3194 928.1737,162.498 1036.8137,166.328" fill="none" id="Identifier-to-XsdAnyUri" style="stroke:#404040;stroke-width:1.2;stroke-dasharray:7,7;"/><polygon fill="#404040" points="1042.81,166.5394,1033.9565,162.2248,1037.8131,166.3632,1033.6747,170.2198,1042.81,166.5394" style="stroke:#404040;stroke-width:1.2;"/><text fill="#000000" font-family="sans-serif" font-size="13" lengthAdjust="spacing" textLength="14.4473" x="551.5" y="115.1045">url</text></g><!--link DefinedTerm to XsdAnyUri--><g class="link" data-entity-1="ent0014" data-entity-2="ent0002" data-link-type="dependency" data-source-line="25" id="lnk15"><path codeLine="25" d="M624.01,70.6494 C595.01,81.4394 562.58,98.8194 580.5,118.6094 C611.55,152.8894 931.342,163.9529 1036.782,166.7029" fill="none" id="DefinedTerm-to-XsdAnyUri" style="stroke:#404040;stroke-width:1.2;stroke-dasharray:7,7;"/><polygon fill="#404040" points="1042.78,166.8594,1033.8873,162.6261,1037.7817,166.729,1033.6788,170.6234,1042.78,166.8594" style="stroke:#404040;stroke-width:1.2;"/><text fill="#000000" font-family="sans-serif" font-size="13" lengthAdjust="spacing" textLength="49.1372" x="581.5" y="115.1045">identifier</text></g><!--link DefinedTerm to XsdAnyUri--><g class="link" data-entity-1="ent0014" data-entity-2="ent0002" data-link-type="dependency" data-source-line="26" id="lnk16"><path codeLine="26" d="M669.7,70.9994 C680.02,84.9394 699.15,107.5494 721.5,118.6094 C777.81,146.4594 960.5419,160.5317 1036.9719,165.3517" fill="none" id="DefinedTerm-to-XsdAnyUri-1" style="stroke:#404040;stroke-width:1.2;stroke-dasharray:7,7;"/><polygon fill="#404040" points="1042.96,165.7294,1034.2296,161.1709,1037.9699,165.4147,1033.7261,169.155,1042.96,165.7294" style="stroke:#404040;stroke-width:1.2;"/><text fill="#000000" font-family="sans-serif" font-size="13" lengthAdjust="spacing" textLength="104.7681" x="722.5" y="115.1045">inDefinedTermSet</text></g><!--link Dataset to XsdAnyUri--><g class="link" data-entity-1="ent0017" data-entity-2="ent0002" data-link-type="dependency" data-source-line="28" id="lnk18"><path codeLine="28" d="M793.01,70.7294 C809.35,84.1994 838.2,106.1394 866.5,118.6094 C925.67,144.6794 994.6965,157.0977 1036.8665,162.9277" fill="none" id="Dataset-to-XsdAnyUri" style="stroke:#404040;stroke-width:1.2;stroke-dasharray:7,7;"/><polygon fill="#404040" points="1042.81,163.7494,1034.4426,158.5545,1037.8571,163.0646,1033.347,166.4792,1042.81,163.7494" style="stroke:#404040;stroke-width:1.2;"/><text fill="#000000" font-family="sans-serif" font-size="13" lengthAdjust="spacing" textLength="14.4473" x="867.5" y="115.1045">url</text></g><!--link AbstractGeometry to XsdAnyUri--><g class="link" data-entity-1="ent0019" data-entity-2="ent0002" data-link-type="dependency" data-source-line="30" id="lnk20"><path codeLine="30" d="M888.29,70.7494 C887.58,84.0294 888.6,105.5794 900.5,118.6094 C937,158.5594 997.1328,166.7865 1036.8228,167.9965" fill="none" id="AbstractGeometry-to-XsdAnyUri" style="stroke:#404040;stroke-width:1.2;stroke-dasharray:7,7;"/><polygon fill="#404040" points="1042.82,168.1794,1033.9461,163.907,1037.8223,168.027,1033.7023,171.9033,1042.82,168.1794" style="stroke:#404040;stroke-width:1.2;"/><text fill="#000000" font-family="sans-serif" font-size="13" lengthAdjust="spacing" textLength="17.3291" x="901.5" y="115.1045">crs</text></g><!--link TemporalExtent to XsdAnyUri--><g class="link" data-entity-1="ent0021" data-entity-2="ent0002" data-link-type="dependency" data-source-line="32" id="lnk22"><path codeLine="32" d="M1002.92,65.4994 C962.02,73.2694 911.45,89.1394 932.5,118.6094 C957.44,153.5194 1002.8817,163.3196 1036.7717,166.2096" fill="none" id="TemporalExtent-to-XsdAnyUri" style="stroke:#404040;stroke-width:1.2;stroke-dasharray:7,7;"/><polygon fill="#404040" points="1042.75,166.7194,1034.1224,161.9691,1037.7681,166.2945,1033.4427,169.9402,1042.75,166.7194" style="stroke:#404040;stroke-width:1.2;"/><text fill="#000000" font-family="sans-serif" font-size="13" lengthAdjust="spacing" textLength="98.9917" x="933.5" y="115.1045">intervalStartedBy</text></g><!--link TemporalExtent to XsdAnyUri--><g class="link" data-entity-1="ent0021" data-entity-2="ent0002" data-link-type="dependency" data-source-line="33" id="lnk23"><path codeLine="33" d="M1051.39,70.7194 C1056.01,89.3094 1063.6815,120.1169 1069.2815,142.6269" fill="none" id="TemporalExtent-to-XsdAnyUri-1" style="stroke:#404040;stroke-width:1.2;stroke-dasharray:7,7;"/><polygon fill="#404040" points="1070.73,148.4494,1072.4389,138.7499,1069.5229,143.5973,1064.6755,140.6813,1070.73,148.4494" style="stroke:#404040;stroke-width:1.2;"/><text fill="#000000" font-family="sans-serif" font-size="13" lengthAdjust="spacing" textLength="106.2153" x="1063.5" y="115.1045">intervalFinishedBy</text></g><!--link Instant to XsdAnyUri--><g class="link" data-entity-1="ent0024" data-entity-2="ent0002" data-link-type="dependency" data-source-line="35" id="lnk25"><path codeLine="35" d="M1203.51,71.0194 C1199.68,84.1494 1191.87,105.1794 1178.5,118.6094 C1159.08,138.1094 1136.0558,148.9337 1113.8858,156.5337" fill="none" id="Instant-to-XsdAnyUri" style="stroke:#404040;stroke-width:1.2;stroke-dasharray:7,7;"/><polygon fill="#404040" points="1108.21,158.4794,1118.0208,159.3447,1112.9398,156.858,1115.4265,151.777,1108.21,158.4794" style="stroke:#404040;stroke-width:1.2;"/><text fill="#000000" font-family="sans-serif" font-size="13" lengthAdjust="spacing" textLength="49.1372" x="1191.5" y="115.1045">identifier</text></g><!--link TimePosition to XsdAnyUri--><g class="link" data-entity-1="ent0026" data-entity-2="ent0002" data-link-type="dependency" data-source-line="37" id="lnk27"><path codeLine="37" d="M1293.39,71.0094 C1284.71,84.5294 1268.76,106.3094 1249.5,118.6094 C1205.46,146.7294 1151.0424,158.1698 1114.2224,163.3098" fill="none" id="TimePosition-to-XsdAnyUri" style="stroke:#404040;stroke-width:1.2;stroke-dasharray:7,7;"/><polygon fill="#404040" points="1108.28,164.1394,1117.7466,166.8566,1113.232,163.4481,1116.6405,158.9335,1108.28,164.1394" style="stroke:#404040;stroke-width:1.2;"/><text fill="#000000" font-family="sans-serif" font-size="13" lengthAdjust="spacing" textLength="46.96" x="1271.5" y="115.1045">hasTRS</text></g><!--link Geometry to XsdAnyUri--><g class="link" data-entity-1="ent0028" data-entity-2="ent0002" data-link-type="dependency" data-source-line="39" id="lnk29"><path codeLine="39" d="M1391.3,70.7394 C1377.42,84.4194 1352.41,106.7694 1326.5,118.6094 C1253.2,152.0894 1163.6562,162.3233 1114.2662,165.6733" fill="none" id="Geometry-to-XsdAnyUri" style="stroke:#404040;stroke-width:1.2;stroke-dasharray:7,7;"/><polygon fill="#404040" points="1108.28,166.0794,1117.5301,169.4612,1113.2685,165.741,1116.9887,161.4795,1108.28,166.0794" style="stroke:#404040;stroke-width:1.2;"/><text fill="#000000" font-family="sans-serif" font-size="13" lengthAdjust="spacing" textLength="17.3291" x="1356.5" y="115.1045">crs</text></g><!--link QualityMeasurement to XsdAnyUri--><g class="link" data-entity-1="ent0030" data-entity-2="ent0002" data-link-type="dependency" data-source-line="41" id="lnk31"><path codeLine="41" d="M1502.33,70.7594 C1474.54,84.2494 1426.22,106.2094 1382.5,118.6094 C1284.88,146.2894 1171.0451,159.193 1114.2851,164.383" fill="none" id="QualityMeasurement-to-XsdAnyUri" style="stroke:#404040;stroke-width:1.2;stroke-dasharray:7,7;"/><polygon fill="#404040" points="1108.31,164.9294,1117.6368,168.0932,1113.2892,164.4741,1116.9084,160.1265,1108.31,164.9294" style="stroke:#404040;stroke-width:1.2;"/><text fill="#000000" font-family="sans-serif" font-size="13" lengthAdjust="spacing" textLength="102.5908" x="1435.5" y="115.1045">isMeasurementOf</text></g><!--link QualityMeasurement to XsdAnyUri--><g class="link" data-entity-1="ent0030" data-entity-2="ent0002" data-link-type="dependency" data-source-line="42" id="lnk32"><path codeLine="42" d="M1535.98,70.9894 C1546.23,84.0894 1558.67,105.0994 1546.5,118.6094 C1517.16,151.1694 1215.867,163.2903 1114.057,166.5003" fill="none" id="QualityMeasurement-to-XsdAnyUri-1" style="stroke:#404040;stroke-width:1.2;stroke-dasharray:7,7;"/><polygon fill="#404040" points="1108.06,166.6894,1117.1816,170.4038,1113.0575,166.5318,1116.9295,162.4077,1108.06,166.6894" style="stroke:#404040;stroke-width:1.2;"/><text fill="#000000" font-family="sans-serif" font-size="13" lengthAdjust="spacing" textLength="20.96" x="1552.5" y="115.1045">unit</text></g><!--link WebAPI to XsdAnyUri--><g class="link" data-entity-1="ent0033" data-entity-2="ent0002" data-link-type="dependency" data-source-line="44" id="lnk34"><path codeLine="44" d="M1636.21,70.6694 C1625.4,84.7194 1605.06,107.8994 1581.5,118.6094 C1496.43,157.2794 1211.8991,165.3958 1113.9991,167.0858" fill="none" id="WebAPI-to-XsdAnyUri" style="stroke:#404040;stroke-width:1.2;stroke-dasharray:7,7;"/><polygon fill="#404040" points="1108,167.1894,1117.0677,171.0334,1112.9993,167.1031,1116.9296,163.0346,1108,167.1894" style="stroke:#404040;stroke-width:1.2;"/><text fill="#000000" font-family="sans-serif" font-size="13" lengthAdjust="spacing" textLength="14.4473" x="1607.5" y="115.1045">url</text></g><!--link Organization to XsdAnyUri--><g class="link" data-entity-1="ent0035" data-entity-2="ent0002" data-link-type="dependency" data-source-line="46" id="lnk36"><path codeLine="46" d="M1725.13,70.6494 C1704.26,84.6894 1666.54,107.8494 1630.5,118.6094 C1531.56,148.1394 1217.6256,162.2706 1114.1256,166.2206" fill="none" id="Organization-to-XsdAnyUri" style="stroke:#404040;stroke-width:1.2;stroke-dasharray:7,7;"/><polygon fill="#404040" points="1108.13,166.4494,1117.276,170.1032,1113.1264,166.2587,1116.9709,162.1091,1108.13,166.4494" style="stroke:#404040;stroke-width:1.2;"/><text fill="#000000" font-family="sans-serif" font-size="13" lengthAdjust="spacing" textLength="14.4473" x="1672.5" y="115.1045">url</text></g><!--link AdditionalProperty to XsdAnyUri--><g class="link" data-entity-1="ent0037" data-entity-2="ent0002" data-link-type="dependency" data-source-line="48" id="lnk38"><path codeLine="48" d="M1839.31,70.6594 C1806.44,84.5994 1747.97,107.5494 1695.5,118.6094 C1474.69,165.1594 1207.1799,168.3845 1114.1899,167.9945" fill="none" id="AdditionalProperty-to-XsdAnyUri" style="stroke:#404040;stroke-width:1.2;stroke-dasharray:7,7;"/><polygon fill="#404040" points="1108.19,167.9694,1117.1731,172.0071,1113.19,167.9903,1117.2067,164.0072,1108.19,167.9694" style="stroke:#404040;stroke-width:1.2;"/><text fill="#000000" font-family="sans-serif" font-size="13" lengthAdjust="spacing" textLength="52.0381" x="1757.5" y="115.1045">unitCode</text></g><!--link Reference to XsdAnyUri--><g class="link" data-entity-1="ent0039" data-entity-2="ent0002" data-link-type="dependency" data-source-line="50" id="lnk40"><path codeLine="50" d="M1958.42,70.6594 C1926.63,84.7194 1869.77,107.8994 1818.5,118.6094 C1679.62,147.6294 1238.6573,162.7279 1114.0373,166.4979" fill="none" id="Reference-to-XsdAnyUri" style="stroke:#404040;stroke-width:1.2;stroke-dasharray:7,7;"/><polygon fill="#404040" points="1108.04,166.6794,1117.1568,170.4054,1113.0377,166.5282,1116.9149,162.4091,1108.04,166.6794" style="stroke:#404040;stroke-width:1.2;"/><text fill="#000000" font-family="sans-serif" font-size="13" lengthAdjust="spacing" textLength="14.4473" x="1879.5" y="115.1045">url</text></g><!--link ProvActivity to XsdAnyUri--><g class="link" data-entity-1="ent0041" data-entity-2="ent0002" data-link-type="dependency" data-source-line="52" id="lnk42"><path codeLine="52" d="M2055.88,70.6794 C2020.88,84.7594 1958.39,107.9494 1902.5,118.6094 C1746.21,148.4094 1248.348,163.1431 1114.438,166.6331" fill="none" id="ProvActivity-to-XsdAnyUri" style="stroke:#404040;stroke-width:1.2;stroke-dasharray:7,7;"/><polygon fill="#404040" points="1108.44,166.7894,1117.5412,170.5535,1113.4383,166.6591,1117.3327,162.5563,1108.44,166.7894" style="stroke:#404040;stroke-width:1.2;"/><text fill="#000000" font-family="sans-serif" font-size="13" lengthAdjust="spacing" textLength="28.1899" x="1968.5" y="115.1045">used</text></g><!--link CatalogRecord to XsdAnyUri--><g class="link" data-entity-1="ent0043" data-entity-2="ent0002" data-link-type="dependency" data-source-line="54" id="lnk44"><path codeLine="54" d="M2167.3,70.7194 C2130.31,84.8394 2064.3,108.0694 2005.5,118.6094 C1827.65,150.4794 1257.4887,163.9268 1114.0587,166.8568" fill="none" id="CatalogRecord-to-XsdAnyUri" style="stroke:#404040;stroke-width:1.2;stroke-dasharray:7,7;"/><polygon fill="#404040" points="1108.06,166.9794,1117.1398,170.7947,1113.059,166.8773,1116.9764,162.7964,1108.06,166.9794" style="stroke:#404040;stroke-width:1.2;"/><text fill="#000000" font-family="sans-serif" font-size="13" lengthAdjust="spacing" textLength="68.6309" x="2075.5" y="115.1045">conformsTo</text></g><?plantuml-src ZLLBZzem4BxdLrXmHzrjUwbMI5aU5OTgAR3TNeTu06iT6uqDD5lrlpVauJWnYaWkdc_iRvuUMs4bij-6nofx9H4T14UM24eabcjCZpPZAQPR91EPTw6EG90oSm2kBqBjsGwaGKyJ4-dBvY2ITuN6i8VHewTC9EJOtuYLsoPQQcB3Bv-kVmu-Q-98NNIkbLsB3sGFZz6_A2ev1ixf0GFJXC2UdZXOs6H778_PS1xFlau_rsT-0GdOIlo1O4w4l3ZQ1TbmLdnHe1YDnfwXR-n8-eXaimMl3KnpqrDzKL93IUu3ZhW5TacJF5fKzfLa_xvJlg6oEbEd50ciq6ggKn2gC1sWpdwewP8Jxf1G9MXg6nETIqTRC5ThnrVBNHQXria1Kwmv5ZmFJEm4Ka7JY8x9WthYdU9EAEGRfBHCSYCtEVQmm2zdfN-RyhHhj7wH3LfNttpTAkrLlkKzR8qbI6nr2mPn9Nz7dQAbh23iWeuvK0IDGwvOc_pQQW8v-tDjfOAt3JdM3Xocm2ATGQuja4N-dDrxO2wKC8VYH5ryPInKpbJhfkoLt5EeEZAHub8RSUtTCYuFQABomIxf0SncjQu9MyaFadvFid-UG0gRLLCYhHCUmexrXYg8t7ZQbzqzHqvAk1PzmssyN1H-b4jdkn9xRjSBxK693t0fzW77qm9xs6BEYpA0N5RJicpp06uQFLJT2dMYkHiigtfS5TnESfGDqkDfRkqS9rQSHUMZ3pYg5XYm6NHFmIIV15BlLvZaZrevDdsa6PujzCPhiDEKcesE_WC0?></g></svg>