<svg xmlns="http://www.w3.org/2000/svg" xmlns:xlink="http://www.w3.org/1999/xlink" contentStyleType="text/css" data-diagram-type="CLASS" height="202px" preserveAspectRatio="none" style="width:1404px;height:202px;background:#FFFFFF;" version="1.1" viewBox="0 0 1404 202" width="1404px" zoomAndPan="magnify"><?plantuml 1.2026.3?><defs/><g><g class="title" data-source-line="1"><text fill="#000000" font-family="sans-serif" font-size="14" font-weight="700" lengthAdjust="spacing" textLength="56.0205" x="670.6883" y="24.5332">XsdDate</text></g><!--class XsdDate--><g class="entity" data-qualified-name="XsdDate" data-source-line="12" id="ent0002"><rect fill="#FAE5D3" height="40.1875" rx="2.5" ry="2.5" style="stroke:#404040;stroke-width:0.5;" width="65.3809" x="657.61" y="148.6094"/><text fill="#000000" font-family="sans-serif" font-size="12" font-style="italic" lengthAdjust="spacing" textLength="63.3809" x="658.61" y="166.0664">&#171;dataType&#187;</text><text fill="#000000" font-family="sans-serif" font-size="12" lengthAdjust="spacing" textLength="46.0254" x="667.2877" y="181.1602">XsdDate</text></g><!--class DataDownload--><g class="entity" data-qualified-name="DataDownload" data-source-line="13" id="ent0003"><rect fill="#EEEEEE" height="25.0938" rx="2.5" ry="2.5" style="stroke:#404040;stroke-width:0.5;" width="84.7148" x="40.61" y="45.6094"/><text fill="#000000" font-family="sans-serif" font-size="12" lengthAdjust="spacing" textLength="78.7148" x="43.61" y="63.0664">DataDownload</text></g><!--class Dataset--><g class="entity" data-qualified-name="Dataset" data-source-line="16" id="ent0006"><rect fill="#EEEEEE" height="25.0938" rx="2.5" ry="2.5" style="stroke:#404040;stroke-width:0.5;" width="47.3555" x="299.61" y="45.6094"/><text fill="#000000" font-family="sans-serif" font-size="12" lengthAdjust="spacing" textLength="41.3555" x="302.61" y="63.0664">Dataset</text></g><!--class TemporalExtent--><g class="entity" data-qualified-name="TemporalExtent" data-source-line="19" id="ent0009"><rect fill="#EEEEEE" height="25.0938" rx="2.5" ry="2.5" style="stroke:#404040;stroke-width:0.5;" width="90.7031" x="495.61" y="45.6094"/><text fill="#000000" font-family="sans-serif" font-size="12" lengthAdjust="spacing" textLength="84.7031" x="498.61" y="63.0664">TemporalExtent</text></g><!--class Contributor--><g class="entity" data-qualified-name="Contributor" data-source-line="22" id="ent0012"><rect fill="#EEEEEE" height="25.0938" rx="2.5" ry="2.5" style="stroke:#404040;stroke-width:0.5;" width="65.3613" x="698.61" y="45.6094"/><text fill="#000000" font-family="sans-serif" font-size="12" lengthAdjust="spacing" textLength="59.3613" x="701.61" y="63.0664">Contributor</text></g><!--class ProvActivity--><g class="entity" data-qualified-name="ProvActivity" data-source-line="25" id="ent0015"><rect fill="#EEEEEE" height="25.0938" rx="2.5" ry="2.5" style="stroke:#404040;stroke-width:0.5;" width="68.6777" x="901.61" y="45.6094"/><text fill="#000000" font-family="sans-serif" font-size="12" lengthAdjust="spacing" textLength="62.6777" x="904.61" y="63.0664">ProvActivity</text></g><!--class CatalogRecord--><g class="entity" data-qualified-name="CatalogRecord" data-source-line="28" id="ent0018"><rect fill="#EEEEEE" height="25.0938" rx="2.5" ry="2.5" style="stroke:#404040;stroke-width:0.5;" width="86.0449" x="1186.11" y="45.6094"/><text fill="#000000" font-family="sans-serif" font-size="12" lengthAdjust="spacing" textLength="80.0449" x="1189.11" y="63.0664">CatalogRecord</text></g><!--link DataDownload to XsdDate--><g class="link" data-entity-1="ent0003" data-entity-2="ent0002" data-link-type="dependency" data-source-line="14" id="lnk4"><path codeLine="14" d="M57.02,70.6194 C33.86,82.3594 6,101.2694 22.11,118.6094 C65.7,165.5094 522.75,167.9901 651.22,167.7601" fill="none" id="DataDownload-to-XsdDate" style="stroke:#404040;stroke-width:1.2;stroke-dasharray:7,7;"/><polygon fill="#404040" points="657.22,167.7494,648.2129,163.7655,652.22,167.7583,648.2272,171.7655,657.22,167.7494" style="stroke:#404040;stroke-width:1.2;"/><text fill="#000000" font-family="sans-serif" font-size="13" lengthAdjust="spacing" textLength="74.439" x="23.11" y="115.1045">dateModified</text></g><!--link DataDownload to XsdDate--><g class="link" data-entity-1="ent0003" data-entity-2="ent0002" data-link-type="dependency" data-source-line="15" id="lnk5"><path codeLine="15" d="M94.83,70.6794 C109.9,84.7494 137.55,107.9394 166.11,118.6094 C256.95,152.5494 551.3625,163.7161 651.3925,166.6061" fill="none" id="DataDownload-to-XsdDate-1" style="stroke:#404040;stroke-width:1.2;stroke-dasharray:7,7;"/><polygon fill="#404040" points="657.39,166.7794,648.5093,162.5211,652.3921,166.635,648.2782,170.5178,657.39,166.7794" style="stroke:#404040;stroke-width:1.2;"/><text fill="#000000" font-family="sans-serif" font-size="13" lengthAdjust="spacing" textLength="82.3989" x="167.11" y="115.1045">datePublished</text></g><!--link Dataset to XsdDate--><g class="link" data-entity-1="ent0006" data-entity-2="ent0002" data-link-type="dependency" data-source-line="17" id="lnk7"><path codeLine="17" d="M299.31,69.4094 C275.9,80.9394 245.87,100.3894 262.11,118.6094 C288.38,148.0494 556.1055,161.9931 651.5255,166.0731" fill="none" id="Dataset-to-XsdDate" style="stroke:#404040;stroke-width:1.2;stroke-dasharray:7,7;"/><polygon fill="#404040" points="657.52,166.3294,648.6991,161.9486,652.5246,166.1158,648.3573,169.9412,657.52,166.3294" style="stroke:#404040;stroke-width:1.2;"/><text fill="#000000" font-family="sans-serif" font-size="13" lengthAdjust="spacing" textLength="74.439" x="263.11" y="115.1045">dateModified</text></g><!--link Dataset to XsdDate--><g class="link" data-entity-1="ent0006" data-entity-2="ent0002" data-link-type="dependency" data-source-line="18" id="lnk8"><path codeLine="18" d="M335.69,70.7994 C351.22,84.5394 379.06,106.9494 407.11,118.6094 C492.76,154.1994 597.3573,163.6435 651.4273,166.3135" fill="none" id="Dataset-to-XsdDate-1" style="stroke:#404040;stroke-width:1.2;stroke-dasharray:7,7;"/><polygon fill="#404040" points="657.42,166.6094,648.6282,162.1704,652.4261,166.3628,648.2337,170.1606,657.42,166.6094" style="stroke:#404040;stroke-width:1.2;"/><text fill="#000000" font-family="sans-serif" font-size="13" lengthAdjust="spacing" textLength="82.3989" x="408.11" y="115.1045">datePublished</text></g><!--link TemporalExtent to XsdDate--><g class="link" data-entity-1="ent0009" data-entity-2="ent0002" data-link-type="dependency" data-source-line="20" id="lnk10"><path codeLine="20" d="M524.54,70.6494 C508.98,82.9094 489.8,102.6794 502.11,118.6094 C520.99,143.0294 602.9999,156.8073 651.6299,163.1173" fill="none" id="TemporalExtent-to-XsdDate" style="stroke:#404040;stroke-width:1.2;stroke-dasharray:7,7;"/><polygon fill="#404040" points="657.58,163.8894,649.1695,158.7645,652.6216,163.246,648.1401,166.698,657.58,163.8894" style="stroke:#404040;stroke-width:1.2;"/><text fill="#000000" font-family="sans-serif" font-size="13" lengthAdjust="spacing" textLength="52.7427" x="503.11" y="115.1045">startDate</text></g><!--link TemporalExtent to XsdDate--><g class="link" data-entity-1="ent0009" data-entity-2="ent0002" data-link-type="dependency" data-source-line="21" id="lnk11"><path codeLine="21" d="M557.06,70.7194 C582.59,89.3094 628.0293,122.408 658.9493,144.918" fill="none" id="TemporalExtent-to-XsdDate-1" style="stroke:#404040;stroke-width:1.2;stroke-dasharray:7,7;"/><polygon fill="#404040" points="663.8,148.4494,658.8782,139.9185,659.7577,145.5066,654.1697,146.3861,663.8,148.4494" style="stroke:#404040;stroke-width:1.2;"/><text fill="#000000" font-family="sans-serif" font-size="13" lengthAdjust="spacing" textLength="49.1499" x="621.11" y="115.1045">endDate</text></g><!--link Contributor to XsdDate--><g class="link" data-entity-1="ent0012" data-entity-2="ent0002" data-link-type="dependency" data-source-line="23" id="lnk13"><path codeLine="23" d="M712.65,70.9494 C703.1,78.2194 692.36,88.4594 687.11,100.6094 C680.61,115.6794 681.0188,128.5928 683.7488,142.4328" fill="none" id="Contributor-to-XsdDate" style="stroke:#404040;stroke-width:1.2;stroke-dasharray:7,7;"/><polygon fill="#404040" points="684.91,148.3194,687.0927,138.7154,683.9424,143.4139,679.2439,140.2636,684.91,148.3194" style="stroke:#404040;stroke-width:1.2;"/><text fill="#000000" font-family="sans-serif" font-size="13" lengthAdjust="spacing" textLength="52.7427" x="688.11" y="115.1045">startDate</text></g><!--link Contributor to XsdDate--><g class="link" data-entity-1="ent0012" data-entity-2="ent0002" data-link-type="dependency" data-source-line="24" id="lnk14"><path codeLine="24" d="M738.24,70.9394 C744.67,83.2594 752.15,102.9194 745.11,118.6094 C739.83,130.3994 734.8109,136.731 725.0409,144.651" fill="none" id="Contributor-to-XsdDate-1" style="stroke:#404040;stroke-width:1.2;stroke-dasharray:7,7;"/><polygon fill="#404040" points="720.38,148.4294,729.8903,145.8691,724.2641,145.2808,724.8525,139.6546,720.38,148.4294" style="stroke:#404040;stroke-width:1.2;"/><text fill="#000000" font-family="sans-serif" font-size="13" lengthAdjust="spacing" textLength="49.1499" x="749.11" y="115.1045">endDate</text></g><!--link ProvActivity to XsdDate--><g class="link" data-entity-1="ent0015" data-entity-2="ent0002" data-link-type="dependency" data-source-line="26" id="lnk16"><path codeLine="26" d="M911.5,70.7794 C885.63,82.9694 843.69,102.5194 807.11,118.6094 C778.89,131.0194 752.0985,142.2258 728.5785,151.9058" fill="none" id="ProvActivity-to-XsdDate" style="stroke:#404040;stroke-width:1.2;stroke-dasharray:7,7;"/><polygon fill="#404040" points="723.03,154.1894,732.8751,154.463,727.6537,152.2864,729.8303,147.0651,723.03,154.1894" style="stroke:#404040;stroke-width:1.2;"/><text fill="#000000" font-family="sans-serif" font-size="13" lengthAdjust="spacing" textLength="80.9136" x="848.11" y="115.1045">startedAtTime</text></g><!--link ProvActivity to XsdDate--><g class="link" data-entity-1="ent0015" data-entity-2="ent0002" data-link-type="dependency" data-source-line="27" id="lnk17"><path codeLine="27" d="M940.29,70.6094 C944.26,83.7594 948.13,105.1994 937.11,118.6094 C910.34,151.2094 789.5396,162.1566 728.7496,165.7366" fill="none" id="ProvActivity-to-XsdDate-1" style="stroke:#404040;stroke-width:1.2;stroke-dasharray:7,7;"/><polygon fill="#404040" points="722.76,166.0894,731.9796,169.5534,727.7514,165.7954,731.5093,161.5672,722.76,166.0894" style="stroke:#404040;stroke-width:1.2;"/><text fill="#000000" font-family="sans-serif" font-size="13" lengthAdjust="spacing" textLength="77.3208" x="945.11" y="115.1045">endedAtTime</text></g><!--link CatalogRecord to XsdDate--><g class="link" data-entity-1="ent0018" data-entity-2="ent0002" data-link-type="dependency" data-source-line="29" id="lnk19"><path codeLine="29" d="M1196.23,70.6394 C1157.27,83.9194 1090.17,105.5694 1031.11,118.6094 C919.27,143.3094 789.9105,157.8752 728.8205,163.9552" fill="none" id="CatalogRecord-to-XsdDate" style="stroke:#404040;stroke-width:1.2;stroke-dasharray:7,7;"/><polygon fill="#404040" points="722.85,164.5494,732.2019,167.6384,727.8254,164.0542,731.4096,159.6777,722.85,164.5494" style="stroke:#404040;stroke-width:1.2;"/><text fill="#000000" font-family="sans-serif" font-size="13" lengthAdjust="spacing" textLength="71.5508" x="1099.11" y="115.1045">dateCreated</text></g><!--link CatalogRecord to XsdDate--><g class="link" data-entity-1="ent0018" data-entity-2="ent0002" data-link-type="dependency" data-source-line="30" id="lnk20"><path codeLine="30" d="M1223.13,70.6194 C1215.15,84.6394 1199.64,107.7694 1179.11,118.6094 C1099.52,160.6494 824.9398,166.6282 728.7498,167.4482" fill="none" id="CatalogRecord-to-XsdDate-1" style="stroke:#404040;stroke-width:1.2;stroke-dasharray:7,7;"/><polygon fill="#404040" points="722.75,167.4994,731.7838,171.4225,727.7498,167.4568,731.7156,163.4228,722.75,167.4994" style="stroke:#404040;stroke-width:1.2;"/><text fill="#000000" font-family="sans-serif" font-size="13" lengthAdjust="spacing" textLength="74.439" x="1202.11" y="115.1045">dateModified</text></g><!--link CatalogRecord to XsdDate--><g class="link" data-entity-1="ent0018" data-entity-2="ent0002" data-link-type="dependency" data-source-line="31" id="lnk21"><path codeLine="31" d="M1252.92,70.6694 C1274.45,82.6094 1300.59,101.8094 1285.11,118.6094 C1246.85,160.1594 848.2798,166.4311 729.0198,167.3911" fill="none" id="CatalogRecord-to-XsdDate-2" style="stroke:#404040;stroke-width:1.2;stroke-dasharray:7,7;"/><polygon fill="#404040" points="723.02,167.4394,732.0519,171.3668,728.0198,167.3991,731.9875,163.3671,723.02,167.4394" style="stroke:#404040;stroke-width:1.2;"/><text fill="#000000" font-family="sans-serif" font-size="13" lengthAdjust="spacing" textLength="98.2871" x="1290.11" y="115.1045">sdDatePublished</text></g><?plantuml-src XP9DRy8m38Rl-HKHtD76jik4a3e-RfFGriEkeJ7K8asGOs1isdzVQA6aVAPIvBnvwoUMpSW6v9VNGyKWSjGWCwJCx6CebhoL1HHJ82_y0krIaIgapvLs6xHpELF6GtIJ4BbDccEsiE2zVEnqeylCgA3z2bdP1iuuaktdXzqNn3T76kXK7JlBd_W3yh4h_eIeShJsJsv9vG_FbxsULgpIxHBwVTaU9wENuTF17mngw3RMEANBds91jaVb4Wsnq-dNgLzbI0tlJkCCGT_pJLPJWpuFneZkWMjmY1lCtVaExhBbZ9I6bZbIPlJDO2jWKwgv9t8pjsT5NCx4JHlOQd3sy45e5U5qnOvASdIkiR5sZNdTSmASa5id6UCQULiIOw56DiGBJD09frZ0BMC0rxP3jQ4hniq_80jpMzKRAyUA6-fv3mS4OTTtVVKut39MmN4i_W40?></g></svg>