<svg xmlns="http://www.w3.org/2000/svg" xmlns:xlink="http://www.w3.org/1999/xlink" contentStyleType="text/css" data-diagram-type="CLASS" height="693px" preserveAspectRatio="none" style="width:741px;height:693px;background:#FFFFFF;" version="1.1" viewBox="0 0 741 693" width="741px" zoomAndPan="magnify"><?plantuml 1.2026.3?><defs/><g><g class="title" data-source-line="1"><text fill="#000000" font-family="sans-serif" font-size="14" font-weight="700" lengthAdjust="spacing" textLength="56" x="339.0194" y="24.5332">Concept</text></g><!--class Concept--><g class="entity" data-qualified-name="Concept" data-source-line="16" id="ent0002"><rect fill="#FEFECE" height="244.4063" rx="2.5" ry="2.5" style="stroke:#404040;stroke-width:0.5;" width="388.1514" x="27.99" y="45.6094"/><text fill="#000000" font-family="sans-serif" font-size="30" lengthAdjust="spacing" textLength="111.7383" x="166.1965" y="81.752">Concept</text><line style="stroke:#404040;stroke-width:0.5;" x1="28.99" x2="415.1414" y1="93.3438" y2="93.3438"/><g data-visibility-modifier="PUBLIC_FIELD"><ellipse cx="38.99" cy="117.7109" fill="none" rx="3" ry="3" style="stroke:#038048;stroke-width:1;"/></g><text fill="#000000" font-family="sans-serif" font-size="30" lengthAdjust="spacing" textLength="355.1514" x="54.99" y="128.4863">identifier : XsdAnyUri [0..1]</text><g data-visibility-modifier="PUBLIC_FIELD"><ellipse cx="38.99" cy="155.4453" fill="none" rx="3" ry="3" style="stroke:#038048;stroke-width:1;"/></g><text fill="#000000" font-family="sans-serif" font-size="30" lengthAdjust="spacing" textLength="293.4961" x="54.99" y="166.2207">prefLabel : string [1..*]</text><g data-visibility-modifier="PUBLIC_FIELD"><ellipse cx="38.99" cy="193.1797" fill="none" rx="3" ry="3" style="stroke:#038048;stroke-width:1;"/></g><text fill="#000000" font-family="sans-serif" font-size="30" lengthAdjust="spacing" textLength="275.1563" x="54.99" y="203.9551">notation : string [1..*]</text><g data-visibility-modifier="PUBLIC_FIELD"><ellipse cx="38.99" cy="230.9141" fill="none" rx="3" ry="3" style="stroke:#038048;stroke-width:1;"/></g><text fill="#000000" font-family="sans-serif" font-size="30" lengthAdjust="spacing" textLength="288.4863" x="54.99" y="241.6895">definition : string [0..*]</text><g data-visibility-modifier="PUBLIC_FIELD"><ellipse cx="38.99" cy="268.6484" fill="none" rx="3" ry="3" style="stroke:#038048;stroke-width:1;"/></g><text fill="#000000" font-family="sans-serif" font-size="30" lengthAdjust="spacing" textLength="226.7871" x="54.99" y="279.4238">note : string [0..*]</text></g><!--class ConceptScheme--><g class="entity" data-qualified-name="ConceptScheme" data-source-line="23" id="ent0003"><rect fill="#EEEEEE" height="47.7344" rx="2.5" ry="2.5" style="stroke:#404040;stroke-width:0.5;" width="227.792" x="13.99" y="609.1094"/><text fill="#000000" font-family="sans-serif" font-size="30" lengthAdjust="spacing" textLength="221.792" x="16.99" y="645.252">ConceptScheme</text></g><!--class XsdAnyUri--><g class="entity" data-qualified-name="XsdAnyUri" data-source-line="28" id="ent0008"><rect fill="#FAE5D3" height="93.0156" rx="2.5" ry="2.5" style="stroke:#404040;stroke-width:0.5;" width="192.1426" x="406.99" y="586.6094"/><text fill="#000000" font-family="sans-serif" font-size="36" font-style="italic" lengthAdjust="spacing" textLength="190.1426" x="407.99" y="628.9805">&#171;dataType&#187;</text><text fill="#000000" font-family="sans-serif" font-size="30" lengthAdjust="spacing" textLength="141.709" x="432.2068" y="668.0332">XsdAnyUri</text></g><!--reverse link ConceptScheme to Concept--><g class="link" data-entity-1="ent0003" data-entity-2="ent0002" data-link-type="composition" data-source-line="24" id="lnk4"><path codeLine="24" d="M145.6604,598.1784 C161.9604,566.0584 184.8,516.5294 197.99,461.6094 C211.34,406.0294 217.6,342.9994 220.42,289.6794" fill="none" id="ConceptScheme-backto-Concept" style="stroke:#404040;stroke-width:1.2;"/><polygon fill="#404040" points="140.23,608.8794,146.5122,605.339,145.6604,598.1784,139.3782,601.7188,140.23,608.8794" style="stroke:#404040;stroke-width:1.2;"/><text fill="#000000" font-family="sans-serif" font-size="36" lengthAdjust="spacing" textLength="254.1621" x="207.99" y="452.9805">hasTopConcept</text><text fill="#000000" font-family="sans-serif" font-size="36" lengthAdjust="spacing" textLength="54.0352" x="164.7649" y="335.4048">1..*</text></g><!--link Concept to ConceptScheme--><g class="link" data-entity-1="ent0002" data-entity-2="ent0003" data-link-type="dependency" data-source-line="25" id="lnk5"><path codeLine="25" d="M102.61,289.8694 C73.49,326.9494 46.33,369.8494 30.99,414.6094 C6,487.5594 64.8416,565.2302 100.8416,604.4302" fill="none" id="Concept-to-ConceptScheme" style="stroke:#404040;stroke-width:1.2;"/><polygon fill="#404040" points="104.9,608.8494,101.7585,599.515,101.518,605.1667,95.8662,604.9262,104.9,608.8494" style="stroke:#404040;stroke-width:1.2;"/><text fill="#000000" font-family="sans-serif" font-size="36" lengthAdjust="spacing" textLength="160.084" x="31.99" y="452.9805">inScheme</text><text fill="#000000" font-family="sans-serif" font-size="36" lengthAdjust="spacing" textLength="54.0352" x="42.3117" y="593.2306">0..*</text></g><!--link Concept to Concept--><g class="link" data-entity-1="ent0002" data-entity-2="ent0002" data-link-type="dependency" data-source-line="26" id="lnk6"><path codeLine="26" d="M416.19,149.7594 C428.54,153.9494 435.99,159.8994 435.99,167.6094 C435.99,175.3194 434.2219,179.3417 421.8719,183.5317" fill="none" id="Concept-to-Concept" style="stroke:#404040;stroke-width:1.2;"/><polygon fill="#404040" points="416.19,185.4594,425.998,186.3557,420.9249,183.853,423.4277,178.7799,416.19,185.4594" style="stroke:#404040;stroke-width:1.2;"/><text fill="#000000" font-family="sans-serif" font-size="36" lengthAdjust="spacing" textLength="124.084" x="441.99" y="182.4805">broader</text><text fill="#000000" font-family="sans-serif" font-size="36" lengthAdjust="spacing" textLength="54.0352" x="424.1373" y="224.2783">0..*</text></g><!--link Concept to Concept--><g class="link" data-entity-1="ent0002" data-entity-2="ent0002" data-link-type="dependency" data-source-line="27" id="lnk7"><path codeLine="27" d="M416.17,117.0794 C498.02,115.5694 571.99,132.4094 571.99,167.6094 C571.99,202.8094 504.019,219.76 422.169,218.25" fill="none" id="Concept-to-Concept-1" style="stroke:#404040;stroke-width:1.2;"/><polygon fill="#404040" points="416.17,218.1394,425.0947,222.3047,421.1691,218.2316,425.2422,214.3061,416.17,218.1394" style="stroke:#404040;stroke-width:1.2;"/><text fill="#000000" font-family="sans-serif" font-size="36" lengthAdjust="spacing" textLength="142.0488" x="577.99" y="182.4805">narrower</text><text fill="#000000" font-family="sans-serif" font-size="36" lengthAdjust="spacing" textLength="54.0352" x="424.1166" y="258.1327">0..*</text></g><!--link Concept to XsdAnyUri--><g class="link" data-entity-1="ent0002" data-entity-2="ent0008" data-link-type="dependency" data-source-line="29" id="lnk9"><path codeLine="29" d="M373.04,289.7494 C409.45,326.1694 444.56,368.7594 467.99,414.6094 C495.84,469.0994 502.4048,534.4411 503.5148,580.2811" fill="none" id="Concept-to-XsdAnyUri" style="stroke:#404040;stroke-width:1.2;stroke-dasharray:7,7;"/><polygon fill="#404040" points="503.66,586.2794,507.441,577.1852,503.539,581.2808,499.4433,577.3788,503.66,586.2794" style="stroke:#404040;stroke-width:1.2;"/><text fill="#000000" font-family="sans-serif" font-size="36" lengthAdjust="spacing" textLength="136.0723" x="485.99" y="452.9805">identifier</text></g><?plantuml-src VLB1Re904BtlLqpmPWD1hJqOGs8jddhJ9arC3mCCPIFiajqrnZR-UnTGtDf6zh9vx-sRcJSORag2fHGfrOOLF2D8kKfBwkvKrUO85LK9AStqZeiQ5LQW2ypaWOjFoB7Kv30BfUHXK_1q9qXh60LZXrGeTffg64z31nKoenPrmOnot9Tc9OLPyo-2oPD3fYLQxsy6NRcbBAM2mMFO70i-IvMHkaLTA_lG6CMJlQ4h7B8JOvsrTqx40zINT62mYbVnCcxhFjXqXE4v9mKpUDVPGXpV58Tj60IZZqPGAyfVCQ7IyjhMibbjHq4mR4aX3HeknN-SdPmBViE6palwWvzksbwd1LNaDjyXC8ZRZ_r6XxuFNbFVwsUTGO5w8-lBdt71VJy2BtIbPuyPSD5TxsYjAb4IxNBkYmGsQxMgyrXzlkr8rxJdymmDReurHP5TpoAUlanwvo287AdjhzyO-m40?></g></svg>