<svg xmlns="http://www.w3.org/2000/svg" xmlns:xlink="http://www.w3.org/1999/xlink" contentStyleType="text/css" data-diagram-type="CLASS" height="202px" preserveAspectRatio="none" style="width:509px;height:202px;background:#FFFFFF;" version="1.1" viewBox="0 0 509 202" width="509px" zoomAndPan="magnify"><?plantuml 1.2026.3?><defs/><g><g class="title" data-source-line="1"><text fill="#000000" font-family="sans-serif" font-size="14" font-weight="700" lengthAdjust="spacing" textLength="71.5723" x="215.3479" y="24.5332">XsdAnyUri</text></g><!--class XsdAnyUri--><g class="entity" data-qualified-name="XsdAnyUri" data-source-line="12" id="ent0002"><rect fill="#FAE5D3" height="40.1875" rx="2.5" ry="2.5" style="stroke:#404040;stroke-width:0.5;" width="65.3809" x="237" y="148.6094"/><text fill="#000000" font-family="sans-serif" font-size="12" font-style="italic" lengthAdjust="spacing" textLength="63.3809" x="238" y="166.0664">&#171;dataType&#187;</text><text fill="#000000" font-family="sans-serif" font-size="12" lengthAdjust="spacing" textLength="56.6836" x="241.3486" y="181.1602">XsdAnyUri</text></g><!--class VariableMeasured--><g class="entity" data-qualified-name="VariableMeasured" data-source-line="13" id="ent0003"><rect fill="#EEEEEE" height="25.0938" rx="2.5" ry="2.5" style="stroke:#404040;stroke-width:0.5;" width="103.3887" x="7" y="45.6094"/><text fill="#000000" font-family="sans-serif" font-size="12" lengthAdjust="spacing" textLength="97.3887" x="10" y="63.0664">VariableMeasured</text></g><!--class Concept--><g class="entity" data-qualified-name="Concept" data-source-line="15" id="ent0005"><rect fill="#EEEEEE" height="25.0938" rx="2.5" ry="2.5" style="stroke:#404040;stroke-width:0.5;" width="50.6953" x="145" y="45.6094"/><text fill="#000000" font-family="sans-serif" font-size="12" lengthAdjust="spacing" textLength="44.6953" x="148" y="63.0664">Concept</text></g><!--class Identifier--><g class="entity" data-qualified-name="Identifier" data-source-line="17" id="ent0007"><rect fill="#EEEEEE" height="25.0938" rx="2.5" ry="2.5" style="stroke:#404040;stroke-width:0.5;" width="52.0254" x="243.5" y="45.6094"/><text fill="#000000" font-family="sans-serif" font-size="12" lengthAdjust="spacing" textLength="46.0254" x="246.5" y="63.0664">Identifier</text></g><!--class DefinedTerm--><g class="entity" data-qualified-name="DefinedTerm" data-source-line="19" id="ent0009"><rect fill="#EEEEEE" height="25.0938" rx="2.5" ry="2.5" style="stroke:#404040;stroke-width:0.5;" width="75.3574" x="355" y="45.6094"/><text fill="#000000" font-family="sans-serif" font-size="12" lengthAdjust="spacing" textLength="69.3574" x="358" y="63.0664">DefinedTerm</text></g><!--link VariableMeasured to XsdAnyUri--><g class="link" data-entity-1="ent0003" data-entity-2="ent0002" data-link-type="dependency" data-source-line="14" id="lnk4"><path codeLine="14" d="M67.63,70.8094 C78.61,84.1394 98.24,105.7394 119.5,118.6094 C156.65,141.0994 199.4403,153.2294 231.1003,160.1994" fill="none" id="VariableMeasured-to-XsdAnyUri" style="stroke:#404040;stroke-width:1.2;stroke-dasharray:7,7;"/><polygon fill="#404040" points="236.96,161.4894,229.0305,155.6479,232.0769,160.4144,227.3105,163.4608,236.96,161.4894" style="stroke:#404040;stroke-width:1.2;"/><text fill="#000000" font-family="sans-serif" font-size="13" lengthAdjust="spacing" textLength="58.5317" x="120.5" y="115.1045">propertyId</text></g><!--link Concept to XsdAnyUri--><g class="link" data-entity-1="ent0005" data-entity-2="ent0002" data-link-type="dependency" data-source-line="16" id="lnk6"><path codeLine="16" d="M174.14,70.6194 C178.6,83.3894 187.11,104.0994 199.5,118.6094 C209.9,130.7894 218.9384,138.1818 231.7484,146.3918" fill="none" id="Concept-to-XsdAnyUri" style="stroke:#404040;stroke-width:1.2;stroke-dasharray:7,7;"/><polygon fill="#404040" points="236.8,149.6294,231.3811,141.4053,232.5904,146.9314,227.0643,148.1407,236.8,149.6294" style="stroke:#404040;stroke-width:1.2;"/><text fill="#000000" font-family="sans-serif" font-size="13" lengthAdjust="spacing" textLength="57.8081" x="200.5" y="115.1045">inScheme</text></g><!--link Identifier to XsdAnyUri--><g class="link" data-entity-1="ent0007" data-entity-2="ent0002" data-link-type="dependency" data-source-line="18" id="lnk8"><path codeLine="18" d="M268.44,70.7294 C267.73,79.0394 266.86,90.4994 266.5,100.6094 C265.92,116.7794 266.4124,129.1654 267.3924,142.5654" fill="none" id="Identifier-to-XsdAnyUri" style="stroke:#404040;stroke-width:1.2;stroke-dasharray:7,7;"/><polygon fill="#404040" points="267.83,148.5494,271.1629,139.2816,267.4653,143.5627,263.1842,139.8651,267.83,148.5494" style="stroke:#404040;stroke-width:1.2;"/><text fill="#000000" font-family="sans-serif" font-size="13" lengthAdjust="spacing" textLength="14.4473" x="267.5" y="115.1045">url</text></g><!--link DefinedTerm to XsdAnyUri--><g class="link" data-entity-1="ent0009" data-entity-2="ent0002" data-link-type="dependency" data-source-line="20" id="lnk10"><path codeLine="20" d="M368.04,70.7594 C353.89,78.1694 336.22,88.6194 322.5,100.6094 C306.42,114.6694 295.058,129.1643 285.218,143.4843" fill="none" id="DefinedTerm-to-XsdAnyUri" style="stroke:#404040;stroke-width:1.2;stroke-dasharray:7,7;"/><polygon fill="#404040" points="281.82,148.4294,290.2137,143.2771,284.6517,144.3085,283.6203,138.7465,281.82,148.4294" style="stroke:#404040;stroke-width:1.2;"/><text fill="#000000" font-family="sans-serif" font-size="13" lengthAdjust="spacing" textLength="49.1372" x="323.5" y="115.1045">identifier</text></g><!--link DefinedTerm to XsdAnyUri--><g class="link" data-entity-1="ent0009" data-entity-2="ent0002" data-link-type="dependency" data-source-line="21" id="lnk11"><path codeLine="21" d="M392.45,70.9694 C391.78,84.0494 388.84,105.0394 377.5,118.6094 C358.36,141.5194 332.0338,152.6031 307.7938,159.2931" fill="none" id="DefinedTerm-to-XsdAnyUri-1" style="stroke:#404040;stroke-width:1.2;stroke-dasharray:7,7;"/><polygon fill="#404040" points="302.01,160.8894,311.7498,162.3508,306.8298,159.5592,309.6215,154.6391,302.01,160.8894" style="stroke:#404040;stroke-width:1.2;"/><text fill="#000000" font-family="sans-serif" font-size="13" lengthAdjust="spacing" textLength="104.7681" x="388.5" y="115.1045">inDefinedTermSet</text></g><?plantuml-src VOzDJyCm38Rl-HNMUg_OW0kQAerzI3jmQa5SiyQbrl9HEPccWlZlZ9PsKISHN-ptjHyxWO96UFTgPTjN9b6JGYY9IurzZgO9BHWq1sGl_95i8raQyBLKxaps0ogfFKREYjcTYvhAeqNlOPuk8hFKyg9z2UZRrauxXkJXxZSkuhDZXJnLTyw6d3uHvWlnBKJFc8r7pq3wwnTWkLGooA9jCCiWsQssZvlxOUPDCic3nXUK_iIekj6f2CcsU-B6IDCiMlG43Ri6ERHxDInOErjY4phkNpxYXdfA8PkNDHeS67k5Db15o1tcMewaI9h2Jgm7pWOhigWAPDE1edeanThDNUEM_zjivEOOn0y0?></g></svg>