<svg xmlns="http://www.w3.org/2000/svg" xmlns:xlink="http://www.w3.org/1999/xlink" contentStyleType="text/css" data-diagram-type="CLASS" height="380px" preserveAspectRatio="none" style="width:1378px;height:380px;background:#FFFFFF;" version="1.1" viewBox="0 0 1378 380" width="1378px" zoomAndPan="magnify"><?plantuml 1.2026.3?><defs/><g><g class="title" data-source-line="1"><text fill="#000000" font-family="sans-serif" font-size="14" font-weight="700" lengthAdjust="spacing" textLength="71.5723" x="649.9814" y="24.5332">XsdAnyUri</text></g><!--class XsdAnyUri--><g class="entity" data-qualified-name="XsdAnyUri" data-source-line="15" id="ent0002"><rect fill="#FAE5D3" height="40.1875" rx="2.5" ry="2.5" style="stroke:#404040;stroke-width:0.5;" width="65.3809" x="679" y="320.6094"/><text fill="#000000" font-family="sans-serif" font-size="12" font-style="italic" lengthAdjust="spacing" textLength="63.3809" x="680" y="338.0664">&#171;dataType&#187;</text><text fill="#000000" font-family="sans-serif" font-size="12" lengthAdjust="spacing" textLength="56.6836" x="683.3486" y="353.1602">XsdAnyUri</text></g><!--class CompositeProfile--><g class="entity" data-qualified-name="CompositeProfile" data-source-line="16" id="ent0003"><rect fill="#EEEEEE" height="25.0938" rx="2.5" ry="2.5" style="stroke:#404040;stroke-width:0.5;" width="97.3711" x="7" y="45.6094"/><text fill="#000000" font-family="sans-serif" font-size="12" font-style="italic" lengthAdjust="spacing" textLength="91.3711" x="10" y="63.0664">CompositeProfile</text></g><!--class Dataset--><g class="entity" data-qualified-name="Dataset" data-source-line="18" id="ent0005"><rect fill="#EEEEEE" height="25.0938" rx="2.5" ry="2.5" style="stroke:#404040;stroke-width:0.5;" width="47.3555" x="124" y="45.6094"/><text fill="#000000" font-family="sans-serif" font-size="12" lengthAdjust="spacing" textLength="41.3555" x="127" y="63.0664">Dataset</text></g><!--class DataDownload--><g class="entity" data-qualified-name="DataDownload" data-source-line="20" id="ent0007"><rect fill="#EEEEEE" height="25.0938" rx="2.5" ry="2.5" style="stroke:#404040;stroke-width:0.5;" width="84.7148" x="191" y="45.6094"/><text fill="#000000" font-family="sans-serif" font-size="12" lengthAdjust="spacing" textLength="78.7148" x="194" y="63.0664">DataDownload</text></g><!--class ActionResult--><g class="entity" data-qualified-name="ActionResult" data-source-line="23" id="ent0010"><rect fill="#EEEEEE" height="25.0938" rx="2.5" ry="2.5" style="stroke:#404040;stroke-width:0.5;" width="73.3652" x="296" y="45.6094"/><text fill="#000000" font-family="sans-serif" font-size="12" lengthAdjust="spacing" textLength="67.3652" x="299" y="63.0664">ActionResult</text></g><!--class DefinedTerm--><g class="entity" data-qualified-name="DefinedTerm" data-source-line="25" id="ent0012"><rect fill="#EEEEEE" height="25.0938" rx="2.5" ry="2.5" style="stroke:#404040;stroke-width:0.5;" width="75.3574" x="389" y="45.6094"/><text fill="#000000" font-family="sans-serif" font-size="12" lengthAdjust="spacing" textLength="69.3574" x="392" y="63.0664">DefinedTerm</text></g><!--class Identifier--><g class="entity" data-qualified-name="Identifier" data-source-line="27" id="ent0014"><rect fill="#EEEEEE" height="25.0938" rx="2.5" ry="2.5" style="stroke:#404040;stroke-width:0.5;" width="52.0254" x="484.5" y="45.6094"/><text fill="#000000" font-family="sans-serif" font-size="12" lengthAdjust="spacing" textLength="46.0254" x="487.5" y="63.0664">Identifier</text></g><!--class AdditionalProperty--><g class="entity" data-qualified-name="AdditionalProperty" data-source-line="29" id="ent0016"><rect fill="#EEEEEE" height="25.0938" rx="2.5" ry="2.5" style="stroke:#404040;stroke-width:0.5;" width="104.0566" x="556.5" y="45.6094"/><text fill="#000000" font-family="sans-serif" font-size="12" lengthAdjust="spacing" textLength="98.0566" x="559.5" y="63.0664">AdditionalProperty</text></g><!--class Reference--><g class="entity" data-qualified-name="Reference" data-source-line="31" id="ent0018"><rect fill="#EEEEEE" height="25.0938" rx="2.5" ry="2.5" style="stroke:#404040;stroke-width:0.5;" width="61.3652" x="681" y="45.6094"/><text fill="#000000" font-family="sans-serif" font-size="12" lengthAdjust="spacing" textLength="55.3652" x="684" y="63.0664">Reference</text></g><!--class ProvActivity--><g class="entity" data-qualified-name="ProvActivity" data-source-line="34" id="ent0021"><rect fill="#EEEEEE" height="25.0938" rx="2.5" ry="2.5" style="stroke:#404040;stroke-width:0.5;" width="68.6777" x="762" y="45.6094"/><text fill="#000000" font-family="sans-serif" font-size="12" lengthAdjust="spacing" textLength="62.6777" x="765" y="63.0664">ProvActivity</text></g><!--class DerivedFrom--><g class="entity" data-qualified-name="DerivedFrom" data-source-line="36" id="ent0023"><rect fill="#EEEEEE" height="25.0938" rx="2.5" ry="2.5" style="stroke:#404040;stroke-width:0.5;" width="75.3457" x="851" y="45.6094"/><text fill="#000000" font-family="sans-serif" font-size="12" lengthAdjust="spacing" textLength="69.3457" x="854" y="63.0664">DerivedFrom</text></g><!--class CatalogRecord--><g class="entity" data-qualified-name="CatalogRecord" data-source-line="39" id="ent0026"><rect fill="#EEEEEE" height="25.0938" rx="2.5" ry="2.5" style="stroke:#404040;stroke-width:0.5;" width="86.0449" x="946.5" y="45.6094"/><text fill="#000000" font-family="sans-serif" font-size="12" lengthAdjust="spacing" textLength="80.0449" x="949.5" y="63.0664">CatalogRecord</text></g><!--class VariableMeasured--><g class="entity" data-qualified-name="VariableMeasured" data-source-line="41" id="ent0028"><rect fill="#EEEEEE" height="25.0938" rx="2.5" ry="2.5" style="stroke:#404040;stroke-width:0.5;" width="103.3887" x="1053" y="45.6094"/><text fill="#000000" font-family="sans-serif" font-size="12" lengthAdjust="spacing" textLength="97.3887" x="1056" y="63.0664">VariableMeasured</text></g><!--class SpatialExtent--><g class="entity" data-qualified-name="SpatialExtent" data-source-line="43" id="ent0030"><rect fill="#EEEEEE" height="25.0938" rx="2.5" ry="2.5" style="stroke:#404040;stroke-width:0.5;" width="76.7109" x="1176" y="45.6094"/><text fill="#000000" font-family="sans-serif" font-size="12" lengthAdjust="spacing" textLength="70.7109" x="1179" y="63.0664">SpatialExtent</text></g><!--class QualityMeasure--><g class="entity" data-qualified-name="QualityMeasure" data-source-line="45" id="ent0032"><rect fill="#EEEEEE" height="25.0938" rx="2.5" ry="2.5" style="stroke:#404040;stroke-width:0.5;" width="90.0352" x="1273.5" y="45.6094"/><text fill="#000000" font-family="sans-serif" font-size="12" lengthAdjust="spacing" textLength="84.0352" x="1276.5" y="63.0664">QualityMeasure</text></g><!--link CompositeProfile to XsdAnyUri--><g class="link" data-entity-1="ent0003" data-entity-2="ent0002" data-link-type="dependency" data-source-line="17" id="lnk4"><path codeLine="17" d="M55.5,70.9394 C55.5,128.0694 55.5,356.6094 55.5,356.6094 C55.5,356.6094 540.6,356.6094 672.97,356.6094" fill="none" id="CompositeProfile-to-XsdAnyUri" style="stroke:#404040;stroke-width:1.2;stroke-dasharray:7,7;"/><polygon fill="#404040" points="678.97,356.6094,669.97,352.6094,673.97,356.6094,669.97,360.6094,678.97,356.6094" style="stroke:#404040;stroke-width:1.2;"/><text fill="#000000" font-family="sans-serif" font-size="13" lengthAdjust="spacing" textLength="49.1372" x="174.4" y="353.1045">identifier</text></g><!--link Dataset to XsdAnyUri--><g class="link" data-entity-1="ent0005" data-entity-2="ent0002" data-link-type="dependency" data-source-line="19" id="lnk6"><path codeLine="19" d="M147.5,70.7594 C147.5,127.1294 147.5,352.6094 147.5,352.6094 C147.5,352.6094 552.37,352.6094 672.74,352.6094" fill="none" id="Dataset-to-XsdAnyUri" style="stroke:#404040;stroke-width:1.2;stroke-dasharray:7,7;"/><polygon fill="#404040" points="678.74,352.6094,669.74,348.6094,673.74,352.6094,669.74,356.6094,678.74,352.6094" style="stroke:#404040;stroke-width:1.2;"/><text fill="#000000" font-family="sans-serif" font-size="13" lengthAdjust="spacing" textLength="14.4473" x="257.2" y="349.1045">url</text></g><!--link DataDownload to XsdAnyUri--><g class="link" data-entity-1="ent0007" data-entity-2="ent0002" data-link-type="dependency" data-source-line="21" id="lnk8"><path codeLine="21" d="M219.33,70.9194 C219.33,126.9494 219.33,347.6094 219.33,347.6094 C219.33,347.6094 562.9,347.6094 672.83,347.6094" fill="none" id="DataDownload-to-XsdAnyUri" style="stroke:#404040;stroke-width:1.2;stroke-dasharray:7,7;"/><polygon fill="#404040" points="678.83,347.6094,669.83,343.6094,673.83,347.6094,669.83,351.6094,678.83,347.6094" style="stroke:#404040;stroke-width:1.2;"/><text fill="#000000" font-family="sans-serif" font-size="13" lengthAdjust="spacing" textLength="59.249" x="311.74" y="362.1045">contentUrl</text></g><!--link DataDownload to XsdAnyUri--><g class="link" data-entity-1="ent0007" data-entity-2="ent0002" data-link-type="dependency" data-source-line="22" id="lnk9"><path codeLine="22" d="M247.67,70.7494 C247.67,125.9994 247.67,343.6094 247.67,343.6094 C247.67,343.6094 567.31,343.6094 672.88,343.6094" fill="none" id="DataDownload-to-XsdAnyUri-1" style="stroke:#404040;stroke-width:1.2;stroke-dasharray:7,7;"/><polygon fill="#404040" points="678.88,343.6094,669.88,339.6094,673.88,343.6094,669.88,347.6094,678.88,343.6094" style="stroke:#404040;stroke-width:1.2;"/><text fill="#000000" font-family="sans-serif" font-size="13" lengthAdjust="spacing" textLength="68.6309" x="327.84" y="340.1045">conformsTo</text></g><!--link ActionResult to XsdAnyUri--><g class="link" data-entity-1="ent0010" data-entity-2="ent0002" data-link-type="dependency" data-source-line="24" id="lnk11"><path codeLine="24" d="M332.5,70.8894 C332.5,125.7694 332.5,338.6094 332.5,338.6094 C332.5,338.6094 580.93,338.6094 672.86,338.6094" fill="none" id="ActionResult-to-XsdAnyUri" style="stroke:#404040;stroke-width:1.2;stroke-dasharray:7,7;"/><polygon fill="#404040" points="678.86,338.6094,669.86,334.6094,673.86,338.6094,669.86,342.6094,678.86,338.6094" style="stroke:#404040;stroke-width:1.2;"/><text fill="#000000" font-family="sans-serif" font-size="13" lengthAdjust="spacing" textLength="68.6309" x="372.82" y="353.1045">conformsTo</text></g><!--link DefinedTerm to XsdAnyUri--><g class="link" data-entity-1="ent0012" data-entity-2="ent0002" data-link-type="dependency" data-source-line="26" id="lnk13"><path codeLine="26" d="M426.5,70.7094 C426.5,124.7994 426.5,334.6094 426.5,334.6094 C426.5,334.6094 597.95,334.6094 672.81,334.6094" fill="none" id="DefinedTerm-to-XsdAnyUri" style="stroke:#404040;stroke-width:1.2;stroke-dasharray:7,7;"/><polygon fill="#404040" points="678.81,334.6094,669.81,330.6094,673.81,334.6094,669.81,338.6094,678.81,334.6094" style="stroke:#404040;stroke-width:1.2;"/><text fill="#000000" font-family="sans-serif" font-size="13" lengthAdjust="spacing" textLength="104.7681" x="427.5" y="325.3045">inDefinedTermSet</text></g><!--link Identifier to XsdAnyUri--><g class="link" data-entity-1="ent0014" data-entity-2="ent0002" data-link-type="dependency" data-source-line="28" id="lnk15"><path codeLine="28" d="M510.5,70.8394 C510.5,124.5194 510.5,329.6094 510.5,329.6094 C510.5,329.6094 615.8,329.6094 672.76,329.6094" fill="none" id="Identifier-to-XsdAnyUri" style="stroke:#404040;stroke-width:1.2;stroke-dasharray:7,7;"/><polygon fill="#404040" points="678.76,329.6094,669.76,325.6094,673.76,329.6094,669.76,333.6094,678.76,329.6094" style="stroke:#404040;stroke-width:1.2;"/><text fill="#000000" font-family="sans-serif" font-size="13" lengthAdjust="spacing" textLength="14.4473" x="495.5" y="280.8445">url</text></g><!--link AdditionalProperty to XsdAnyUri--><g class="link" data-entity-1="ent0016" data-entity-2="ent0002" data-link-type="dependency" data-source-line="30" id="lnk17"><path codeLine="30" d="M608.5,70.6494 C608.5,123.5394 608.5,325.6094 608.5,325.6094 C608.5,325.6094 642.73,325.6094 672.91,325.6094" fill="none" id="AdditionalProperty-to-XsdAnyUri" style="stroke:#404040;stroke-width:1.2;stroke-dasharray:7,7;"/><polygon fill="#404040" points="678.91,325.6094,669.91,321.6094,673.91,325.6094,669.91,329.6094,678.91,325.6094" style="stroke:#404040;stroke-width:1.2;"/><text fill="#000000" font-family="sans-serif" font-size="13" lengthAdjust="spacing" textLength="52.0381" x="555.5" y="229.8345">unitCode</text></g><!--link Reference to XsdAnyUri--><g class="link" data-entity-1="ent0018" data-entity-2="ent0002" data-link-type="dependency" data-source-line="32" id="lnk19"><path codeLine="32" d="M721.67,70.6094 C721.67,115.0294 721.67,259.5094 721.67,314.3794" fill="none" id="Reference-to-XsdAnyUri" style="stroke:#404040;stroke-width:1.2;stroke-dasharray:7,7;"/><polygon fill="#404040" points="721.67,320.3794,725.67,311.3794,721.67,315.3794,717.67,311.3794,721.67,320.3794" style="stroke:#404040;stroke-width:1.2;"/><text fill="#000000" font-family="sans-serif" font-size="13" lengthAdjust="spacing" textLength="14.4473" x="706.67" y="191.9945">url</text></g><!--link Reference to XsdAnyUri--><g class="link" data-entity-1="ent0018" data-entity-2="ent0002" data-link-type="dependency" data-source-line="33" id="lnk20"><path codeLine="33" d="M701.33,70.6094 C701.33,115.0294 701.33,259.5094 701.33,314.3794" fill="none" id="Reference-to-XsdAnyUri-1" style="stroke:#404040;stroke-width:1.2;stroke-dasharray:7,7;"/><polygon fill="#404040" points="701.33,320.3794,705.33,311.3794,701.33,315.3794,697.33,311.3794,701.33,320.3794" style="stroke:#404040;stroke-width:1.2;"/><text fill="#000000" font-family="sans-serif" font-size="13" lengthAdjust="spacing" textLength="42.6372" x="658.33" y="191.9945">relation</text></g><!--link ProvActivity to XsdAnyUri--><g class="link" data-entity-1="ent0021" data-entity-2="ent0002" data-link-type="dependency" data-source-line="35" id="lnk22"><path codeLine="35" d="M796.5,70.6494 C796.5,123.5394 796.5,325.6094 796.5,325.6094 C796.5,325.6094 774.09,325.6094 750.12,325.6094" fill="none" id="ProvActivity-to-XsdAnyUri" style="stroke:#404040;stroke-width:1.2;stroke-dasharray:7,7;"/><polygon fill="#404040" points="744.12,325.6094,753.12,329.6094,749.12,325.6094,753.12,321.6094,744.12,325.6094" style="stroke:#404040;stroke-width:1.2;"/><text fill="#000000" font-family="sans-serif" font-size="13" lengthAdjust="spacing" textLength="28.1899" x="767.5" y="220.8145">used</text></g><!--link DerivedFrom to XsdAnyUri--><g class="link" data-entity-1="ent0023" data-entity-2="ent0002" data-link-type="dependency" data-source-line="37" id="lnk24"><path codeLine="37" d="M876,70.8894 C876,124.7594 876,330.6094 876,330.6094 C876,330.6094 798.4,330.6094 750.39,330.6094" fill="none" id="DerivedFrom-to-XsdAnyUri" style="stroke:#404040;stroke-width:1.2;stroke-dasharray:7,7;"/><polygon fill="#404040" points="744.39,330.6094,753.39,334.6094,749.39,330.6094,753.39,326.6094,744.39,330.6094" style="stroke:#404040;stroke-width:1.2;"/><text fill="#000000" font-family="sans-serif" font-size="13" lengthAdjust="spacing" textLength="14.4473" x="861" y="263.0445">url</text></g><!--link DerivedFrom to XsdAnyUri--><g class="link" data-entity-1="ent0023" data-entity-2="ent0002" data-link-type="dependency" data-source-line="38" id="lnk25"><path codeLine="38" d="M901,70.7494 C901,125.0394 901,335.6094 901,335.6094 C901,335.6094 804.26,335.6094 750.08,335.6094" fill="none" id="DerivedFrom-to-XsdAnyUri-1" style="stroke:#404040;stroke-width:1.2;stroke-dasharray:7,7;"/><polygon fill="#404040" points="744.08,335.6094,753.08,339.6094,749.08,335.6094,753.08,331.6094,744.08,335.6094" style="stroke:#404040;stroke-width:1.2;"/><text fill="#000000" font-family="sans-serif" font-size="13" lengthAdjust="spacing" textLength="42.6372" x="858" y="296.1345">relation</text></g><!--link CatalogRecord to XsdAnyUri--><g class="link" data-entity-1="ent0026" data-entity-2="ent0002" data-link-type="dependency" data-source-line="40" id="lnk27"><path codeLine="40" d="M989.5,70.6094 C989.5,125.2894 989.5,340.6094 989.5,340.6094 C989.5,340.6094 823.69,340.6094 750.21,340.6094" fill="none" id="CatalogRecord-to-XsdAnyUri" style="stroke:#404040;stroke-width:1.2;stroke-dasharray:7,7;"/><polygon fill="#404040" points="744.21,340.6094,753.21,344.6094,749.21,340.6094,753.21,336.6094,744.21,340.6094" style="stroke:#404040;stroke-width:1.2;"/><text fill="#000000" font-family="sans-serif" font-size="13" lengthAdjust="spacing" textLength="68.6309" x="920.5" y="324.7545">conformsTo</text></g><!--link VariableMeasured to XsdAnyUri--><g class="link" data-entity-1="ent0028" data-entity-2="ent0002" data-link-type="dependency" data-source-line="42" id="lnk29"><path codeLine="42" d="M1104.5,70.8294 C1104.5,126.4694 1104.5,345.6094 1104.5,345.6094 C1104.5,345.6094 844.78,345.6094 750.33,345.6094" fill="none" id="VariableMeasured-to-XsdAnyUri" style="stroke:#404040;stroke-width:1.2;stroke-dasharray:7,7;"/><polygon fill="#404040" points="744.33,345.6094,753.33,349.6094,749.33,345.6094,753.33,341.6094,744.33,345.6094" style="stroke:#404040;stroke-width:1.2;"/><text fill="#000000" font-family="sans-serif" font-size="13" lengthAdjust="spacing" textLength="49.1372" x="1011.8" y="342.1045">identifier</text></g><!--link SpatialExtent to XsdAnyUri--><g class="link" data-entity-1="ent0030" data-entity-2="ent0002" data-link-type="dependency" data-source-line="44" id="lnk31"><path codeLine="44" d="M1214.5,70.6794 C1214.5,126.6594 1214.5,350.6094 1214.5,350.6094 C1214.5,350.6094 861.58,350.6094 750.12,350.6094" fill="none" id="SpatialExtent-to-XsdAnyUri" style="stroke:#404040;stroke-width:1.2;stroke-dasharray:7,7;"/><polygon fill="#404040" points="744.12,350.6094,753.12,354.6094,749.12,350.6094,753.12,346.6094,744.12,350.6094" style="stroke:#404040;stroke-width:1.2;"/><text fill="#000000" font-family="sans-serif" font-size="13" lengthAdjust="spacing" textLength="49.1372" x="1069.27" y="347.1045">identifier</text></g><!--link QualityMeasure to XsdAnyUri--><g class="link" data-entity-1="ent0032" data-entity-2="ent0002" data-link-type="dependency" data-source-line="46" id="lnk33"><path codeLine="46" d="M1318.5,70.8894 C1318.5,127.8394 1318.5,355.6094 1318.5,355.6094 C1318.5,355.6094 876.22,355.6094 750.13,355.6094" fill="none" id="QualityMeasure-to-XsdAnyUri" style="stroke:#404040;stroke-width:1.2;stroke-dasharray:7,7;"/><polygon fill="#404040" points="744.13,355.6094,753.13,359.6094,749.13,355.6094,753.13,351.6094,744.13,355.6094" style="stroke:#404040;stroke-width:1.2;"/><text fill="#000000" font-family="sans-serif" font-size="13" lengthAdjust="spacing" textLength="35.3882" x="1137.68" y="352.1045">metric</text></g><?plantuml-src XPHBZzem483l-HKMtD4kxLwg5LBAG-gXKWjirQkn9yi8nux61agh_lSw2N6SPBk1I_mDVFEm7OTE0VjfPQflBuJ94IKmWIGKrC-G5-x6SiWFG3Qn9zG59vupU-JIN56_iemh2r4a9JBN_H75IOErx74sZuB4zSb2mUPF3n7LHa95OwXGWxiLm0oveua2Gd7l_PEmEjNIA4Di-l6X_7husP04wjEDqMw7lu4zpfE_IL8x9g7n2UEs7GDxVfRSyRtFlbYmwIPTFwq-9FnW7N7XxWLCbYOlZ4K7tyXagA1oz26RhgjFCWZCPeieuoVcfwqTPWZKLBVoDLXmbVV-77JDkcyvauh_lZ9NhGoNmT60ZYZ0latugVcgNhnqx7UPeTpkJPCy5GwDte8zgxg168Ja7JWkNK7c3uNS0-LrG-swxITYWn7hABe3rtY_XD5NsdOPh15wP-Afb5Wsn9NVv0B8tUhM1xWTm30qy6jqItz1cYHRo810Y_gyXLLGjkIjIlyV9L2yBAN9umkwbFjpmNiRCGZPEd2Gq89izuxm0d93fjcxi8xshcLl5VzUl5_-qfzNPLwt8FpxeBwQCMdlPOUEdy4Vd90V57m5Riy4jReFWtqG6B_rkyBtmTNwLtdpAdk717MNZdk_dxdoctIlf19tKJ3tS5-TWoCKoJy0?></g></svg>