<svg xmlns="http://www.w3.org/2000/svg" xmlns:xlink="http://www.w3.org/1999/xlink" contentStyleType="text/css" data-diagram-type="CLASS" height="497px" preserveAspectRatio="none" style="width:3006px;height:497px;background:#FFFFFF;" version="1.1" viewBox="0 0 3006 497" width="3006px" zoomAndPan="magnify"><?plantuml 1.2026.3?><defs/><g><g class="title" data-source-line="1"><text fill="#000000" font-family="sans-serif" font-size="14" font-weight="700" lengthAdjust="spacing" textLength="71.5723" x="1463.7578" y="24.5332">XsdAnyUri</text></g><!--class XsdAnyUri--><g class="entity" data-qualified-name="XsdAnyUri" data-source-line="16" id="ent0002"><rect fill="#FAE5D3" height="93.0156" rx="2.5" ry="2.5" style="stroke:#404040;stroke-width:0.5;" width="192.1426" x="1467" y="390.6094"/><text fill="#000000" font-family="sans-serif" font-size="36" font-style="italic" lengthAdjust="spacing" textLength="190.1426" x="1468" y="432.9805">&#171;dataType&#187;</text><text fill="#000000" font-family="sans-serif" font-size="30" lengthAdjust="spacing" textLength="141.709" x="1492.2168" y="472.0332">XsdAnyUri</text></g><!--class CompositeProfile--><g class="entity" data-qualified-name="CompositeProfile" data-source-line="17" id="ent0003"><rect fill="#EEEEEE" height="47.7344" rx="2.5" ry="2.5" style="stroke:#404040;stroke-width:0.5;" width="234.4277" x="7" y="45.6094"/><text fill="#000000" font-family="sans-serif" font-size="30" font-style="italic" lengthAdjust="spacing" textLength="228.4277" x="10" y="81.752">CompositeProfile</text></g><!--class Dataset--><g class="entity" data-qualified-name="Dataset" data-source-line="19" id="ent0005"><rect fill="#EEEEEE" height="47.7344" rx="2.5" ry="2.5" style="stroke:#404040;stroke-width:0.5;" width="109.3887" x="261.5" y="45.6094"/><text fill="#000000" font-family="sans-serif" font-size="30" lengthAdjust="spacing" textLength="103.3887" x="264.5" y="81.752">Dataset</text></g><!--class DataDownload--><g class="entity" data-qualified-name="DataDownload" data-source-line="21" id="ent0007"><rect fill="#EEEEEE" height="47.7344" rx="2.5" ry="2.5" style="stroke:#404040;stroke-width:0.5;" width="202.7871" x="431.5" y="45.6094"/><text fill="#000000" font-family="sans-serif" font-size="30" lengthAdjust="spacing" textLength="196.7871" x="434.5" y="81.752">DataDownload</text></g><!--class ActionResult--><g class="entity" data-qualified-name="ActionResult" data-source-line="24" id="ent0010"><rect fill="#EEEEEE" height="47.7344" rx="2.5" ry="2.5" style="stroke:#404040;stroke-width:0.5;" width="174.4131" x="704" y="45.6094"/><text fill="#000000" font-family="sans-serif" font-size="30" lengthAdjust="spacing" textLength="168.4131" x="707" y="81.752">ActionResult</text></g><!--class DefinedTerm--><g class="entity" data-qualified-name="DefinedTerm" data-source-line="26" id="ent0012"><rect fill="#EEEEEE" height="47.7344" rx="2.5" ry="2.5" style="stroke:#404040;stroke-width:0.5;" width="179.3936" x="917.5" y="45.6094"/><text fill="#000000" font-family="sans-serif" font-size="30" lengthAdjust="spacing" textLength="173.3936" x="920.5" y="81.752">DefinedTerm</text></g><!--class Identifier--><g class="entity" data-qualified-name="Identifier" data-source-line="28" id="ent0014"><rect fill="#EEEEEE" height="47.7344" rx="2.5" ry="2.5" style="stroke:#404040;stroke-width:0.5;" width="121.0635" x="1116.5" y="45.6094"/><text fill="#000000" font-family="sans-serif" font-size="30" lengthAdjust="spacing" textLength="115.0635" x="1119.5" y="81.752">Identifier</text></g><!--class AdditionalProperty--><g class="entity" data-qualified-name="AdditionalProperty" data-source-line="30" id="ent0016"><rect fill="#EEEEEE" height="47.7344" rx="2.5" ry="2.5" style="stroke:#404040;stroke-width:0.5;" width="251.1416" x="1257.5" y="45.6094"/><text fill="#000000" font-family="sans-serif" font-size="30" lengthAdjust="spacing" textLength="245.1416" x="1260.5" y="81.752">AdditionalProperty</text></g><!--class Reference--><g class="entity" data-qualified-name="Reference" data-source-line="32" id="ent0018"><rect fill="#EEEEEE" height="47.7344" rx="2.5" ry="2.5" style="stroke:#404040;stroke-width:0.5;" width="144.4131" x="1529" y="45.6094"/><text fill="#000000" font-family="sans-serif" font-size="30" lengthAdjust="spacing" textLength="138.4131" x="1532" y="81.752">Reference</text></g><!--class ProvActivity--><g class="entity" data-qualified-name="ProvActivity" data-source-line="35" id="ent0021"><rect fill="#EEEEEE" height="47.7344" rx="2.5" ry="2.5" style="stroke:#404040;stroke-width:0.5;" width="162.6943" x="1693.5" y="45.6094"/><text fill="#000000" font-family="sans-serif" font-size="30" lengthAdjust="spacing" textLength="156.6943" x="1696.5" y="81.752">ProvActivity</text></g><!--class DerivedFrom--><g class="entity" data-qualified-name="DerivedFrom" data-source-line="37" id="ent0023"><rect fill="#EEEEEE" height="47.7344" rx="2.5" ry="2.5" style="stroke:#404040;stroke-width:0.5;" width="179.3643" x="1876.5" y="45.6094"/><text fill="#000000" font-family="sans-serif" font-size="30" lengthAdjust="spacing" textLength="173.3643" x="1879.5" y="81.752">DerivedFrom</text></g><!--class CatalogRecord--><g class="entity" data-qualified-name="CatalogRecord" data-source-line="40" id="ent0026"><rect fill="#EEEEEE" height="47.7344" rx="2.5" ry="2.5" style="stroke:#404040;stroke-width:0.5;" width="206.1123" x="2076" y="45.6094"/><text fill="#000000" font-family="sans-serif" font-size="30" lengthAdjust="spacing" textLength="200.1123" x="2079" y="81.752">CatalogRecord</text></g><!--class VariableMeasured--><g class="entity" data-qualified-name="VariableMeasured" data-source-line="42" id="ent0028"><rect fill="#EEEEEE" height="47.7344" rx="2.5" ry="2.5" style="stroke:#404040;stroke-width:0.5;" width="249.4717" x="2302.5" y="45.6094"/><text fill="#000000" font-family="sans-serif" font-size="30" lengthAdjust="spacing" textLength="243.4717" x="2305.5" y="81.752">VariableMeasured</text></g><!--class SpatialExtent--><g class="entity" data-qualified-name="SpatialExtent" data-source-line="44" id="ent0030"><rect fill="#EEEEEE" height="47.7344" rx="2.5" ry="2.5" style="stroke:#404040;stroke-width:0.5;" width="182.7773" x="2571.5" y="45.6094"/><text fill="#000000" font-family="sans-serif" font-size="30" lengthAdjust="spacing" textLength="176.7773" x="2574.5" y="81.752">SpatialExtent</text></g><!--class QualityMeasure--><g class="entity" data-qualified-name="QualityMeasure" data-source-line="46" id="ent0032"><rect fill="#EEEEEE" height="47.7344" rx="2.5" ry="2.5" style="stroke:#404040;stroke-width:0.5;" width="216.0879" x="2775" y="45.6094"/><text fill="#000000" font-family="sans-serif" font-size="30" lengthAdjust="spacing" textLength="210.0879" x="2778" y="81.752">QualityMeasure</text></g><!--link CompositeProfile to XsdAnyUri--><g class="link" data-entity-1="ent0003" data-entity-2="ent0002" data-link-type="dependency" data-source-line="18" id="lnk4"><path codeLine="18" d="M120.04,93.8294 C114.48,134.9794 109.8,220.5794 157,265.6094 C251.9,356.1494 1159.3793,413.8752 1460.9493,430.6952" fill="none" id="CompositeProfile-to-XsdAnyUri" style="stroke:#404040;stroke-width:1.2;stroke-dasharray:7,7;"/><polygon fill="#404040" points="1466.94,431.0294,1458.1767,426.5344,1461.9478,430.7509,1457.7312,434.522,1466.94,431.0294" style="stroke:#404040;stroke-width:1.2;"/><text fill="#000000" font-family="sans-serif" font-size="36" lengthAdjust="spacing" textLength="136.0723" x="158" y="256.9805">identifier</text></g><!--link Dataset to XsdAnyUri--><g class="link" data-entity-1="ent0005" data-entity-2="ent0002" data-link-type="dependency" data-source-line="20" id="lnk6"><path codeLine="20" d="M308.22,93.9094 C296.32,134.4094 279.19,218.0194 322,265.6094 C398.53,350.6994 1182.2836,410.7352 1460.5936,429.5252" fill="none" id="Dataset-to-XsdAnyUri" style="stroke:#404040;stroke-width:1.2;stroke-dasharray:7,7;"/><polygon fill="#404040" points="1466.58,429.9294,1457.8699,425.3322,1461.5914,429.5926,1457.331,433.314,1466.58,429.9294" style="stroke:#404040;stroke-width:1.2;"/><text fill="#000000" font-family="sans-serif" font-size="36" lengthAdjust="spacing" textLength="40.0078" x="323" y="256.9805">url</text></g><!--link DataDownload to XsdAnyUri--><g class="link" data-entity-1="ent0007" data-entity-2="ent0002" data-link-type="dependency" data-source-line="22" id="lnk8"><path codeLine="22" d="M492.36,93.8094 C432.1,131.0494 331.42,206.0394 383,265.6094 C453.92,347.5194 1192.1663,409.0472 1460.9063,428.9072" fill="none" id="DataDownload-to-XsdAnyUri" style="stroke:#404040;stroke-width:1.2;stroke-dasharray:7,7;"/><polygon fill="#404040" points="1466.89,429.3494,1458.2093,424.697,1461.9036,428.9809,1457.6197,432.6752,1466.89,429.3494" style="stroke:#404040;stroke-width:1.2;"/><text fill="#000000" font-family="sans-serif" font-size="36" lengthAdjust="spacing" textLength="164.0742" x="384" y="256.9805">contentUrl</text></g><!--link DataDownload to XsdAnyUri--><g class="link" data-entity-1="ent0007" data-entity-2="ent0002" data-link-type="dependency" data-source-line="23" id="lnk9"><path codeLine="23" d="M534.43,93.8294 C537.77,140.2394 547.75,242.0094 572,265.6094 C698.43,388.6694 1236.9952,423.44 1460.6052,432.74" fill="none" id="DataDownload-to-XsdAnyUri-1" style="stroke:#404040;stroke-width:1.2;stroke-dasharray:7,7;"/><polygon fill="#404040" points="1466.6,432.9894,1457.774,428.6188,1461.6043,432.7816,1457.4416,436.6119,1466.6,432.9894" style="stroke:#404040;stroke-width:1.2;"/><text fill="#000000" font-family="sans-serif" font-size="36" lengthAdjust="spacing" textLength="190.0547" x="573" y="256.9805">conformsTo</text></g><!--link ActionResult to XsdAnyUri--><g class="link" data-entity-1="ent0010" data-entity-2="ent0002" data-link-type="dependency" data-source-line="25" id="lnk11"><path codeLine="25" d="M782.49,93.7594 C769.46,133.6494 750.03,215.8594 790,265.6094 C873.98,370.1294 1273.0394,413.8878 1460.9194,429.0178" fill="none" id="ActionResult-to-XsdAnyUri" style="stroke:#404040;stroke-width:1.2;stroke-dasharray:7,7;"/><polygon fill="#404040" points="1466.9,429.4994,1458.2501,424.7899,1461.9161,429.098,1457.608,432.764,1466.9,429.4994" style="stroke:#404040;stroke-width:1.2;"/><text fill="#000000" font-family="sans-serif" font-size="36" lengthAdjust="spacing" textLength="190.0547" x="791" y="256.9805">conformsTo</text></g><!--link DefinedTerm to XsdAnyUri--><g class="link" data-entity-1="ent0012" data-entity-2="ent0002" data-link-type="dependency" data-source-line="27" id="lnk13"><path codeLine="27" d="M998.81,93.7494 C986.43,133.2594 968.15,214.4394 1006,265.6094 C1061.1,340.1094 1316.8107,394.2701 1461.0607,419.6401" fill="none" id="DefinedTerm-to-XsdAnyUri" style="stroke:#404040;stroke-width:1.2;stroke-dasharray:7,7;"/><polygon fill="#404040" points="1466.97,420.6794,1458.7989,415.1809,1462.0456,419.8133,1457.4132,423.06,1466.97,420.6794" style="stroke:#404040;stroke-width:1.2;"/><text fill="#000000" font-family="sans-serif" font-size="36" lengthAdjust="spacing" textLength="290.127" x="1007" y="256.9805">inDefinedTermSet</text></g><!--link Identifier to XsdAnyUri--><g class="link" data-entity-1="ent0014" data-entity-2="ent0002" data-link-type="dependency" data-source-line="29" id="lnk15"><path codeLine="29" d="M1195.98,93.7694 C1232.91,138.6394 1313.55,235.6194 1345,265.6094 C1393.16,311.5394 1448.1726,354.1334 1492.9726,386.8134" fill="none" id="Identifier-to-XsdAnyUri" style="stroke:#404040;stroke-width:1.2;stroke-dasharray:7,7;"/><polygon fill="#404040" points="1497.82,390.3494,1492.9063,381.8138,1493.7805,387.4027,1488.1916,388.277,1497.82,390.3494" style="stroke:#404040;stroke-width:1.2;"/><text fill="#000000" font-family="sans-serif" font-size="36" lengthAdjust="spacing" textLength="40.0078" x="1346" y="256.9805">url</text></g><!--link AdditionalProperty to XsdAnyUri--><g class="link" data-entity-1="ent0016" data-entity-2="ent0002" data-link-type="dependency" data-source-line="31" id="lnk17"><path codeLine="31" d="M1381.6,93.7494 C1380.25,131.5694 1381.45,208.1294 1408,265.6094 C1430.56,314.4594 1467.7611,355.0026 1502.2011,386.3226" fill="none" id="AdditionalProperty-to-XsdAnyUri" style="stroke:#404040;stroke-width:1.2;stroke-dasharray:7,7;"/><polygon fill="#404040" points="1506.64,390.3594,1502.6728,381.3449,1502.9409,386.9954,1497.2904,387.2635,1506.64,390.3594" style="stroke:#404040;stroke-width:1.2;"/><text fill="#000000" font-family="sans-serif" font-size="36" lengthAdjust="spacing" textLength="144.1055" x="1409" y="256.9805">unitCode</text></g><!--link Reference to XsdAnyUri--><g class="link" data-entity-1="ent0018" data-entity-2="ent0002" data-link-type="dependency" data-source-line="33" id="lnk19"><path codeLine="33" d="M1593.09,93.8394 C1583.73,122.6894 1568.69,173.6094 1563,218.6094 C1555.55,277.6094 1556.9303,340.3484 1559.3603,384.5084" fill="none" id="Reference-to-XsdAnyUri" style="stroke:#404040;stroke-width:1.2;stroke-dasharray:7,7;"/><polygon fill="#404040" points="1559.69,390.4994,1563.1895,381.2932,1559.4153,385.5069,1555.2015,381.7327,1559.69,390.4994" style="stroke:#404040;stroke-width:1.2;"/><text fill="#000000" font-family="sans-serif" font-size="36" lengthAdjust="spacing" textLength="40.0078" x="1564" y="256.9805">url</text></g><!--link Reference to XsdAnyUri--><g class="link" data-entity-1="ent0018" data-entity-2="ent0002" data-link-type="dependency" data-source-line="34" id="lnk20"><path codeLine="34" d="M1602.02,93.6794 C1603.25,122.7894 1605.25,174.3994 1606,218.6094 C1606.35,239.4994 1608.57,244.8794 1606,265.6094 C1600.66,308.6294 1589.7341,350.6324 1579.5341,384.6324" fill="none" id="Reference-to-XsdAnyUri-1" style="stroke:#404040;stroke-width:1.2;stroke-dasharray:7,7;"/><polygon fill="#404040" points="1577.81,390.3794,1584.2274,382.9083,1579.2467,385.5902,1576.5648,380.6095,1577.81,390.3794" style="stroke:#404040;stroke-width:1.2;"/><text fill="#000000" font-family="sans-serif" font-size="36" lengthAdjust="spacing" textLength="118.0723" x="1608" y="256.9805">relation</text></g><!--link ProvActivity to XsdAnyUri--><g class="link" data-entity-1="ent0021" data-entity-2="ent0002" data-link-type="dependency" data-source-line="36" id="lnk22"><path codeLine="36" d="M1774.03,93.6794 C1771.57,131.7094 1762.86,208.9894 1732,265.6094 C1705.17,314.8294 1664.4737,355.5277 1627.5237,386.7377" fill="none" id="ProvActivity-to-XsdAnyUri" style="stroke:#404040;stroke-width:1.2;stroke-dasharray:7,7;"/><polygon fill="#404040" points="1622.94,390.6094,1632.3967,387.8577,1626.7598,387.383,1627.2345,381.7461,1622.94,390.6094" style="stroke:#404040;stroke-width:1.2;"/><text fill="#000000" font-family="sans-serif" font-size="36" lengthAdjust="spacing" textLength="78.0645" x="1752" y="256.9805">used</text></g><!--link DerivedFrom to XsdAnyUri--><g class="link" data-entity-1="ent0023" data-entity-2="ent0002" data-link-type="dependency" data-source-line="38" id="lnk24"><path codeLine="38" d="M1954.66,93.9194 C1934.8,132.9894 1890.59,212.6094 1836,265.6094 C1783.37,316.6894 1718.2304,357.3603 1662.0904,387.6503" fill="none" id="DerivedFrom-to-XsdAnyUri" style="stroke:#404040;stroke-width:1.2;stroke-dasharray:7,7;"/><polygon fill="#404040" points="1656.81,390.4994,1666.63,389.7461,1661.2104,388.1252,1662.8313,382.7055,1656.81,390.4994" style="stroke:#404040;stroke-width:1.2;"/><text fill="#000000" font-family="sans-serif" font-size="36" lengthAdjust="spacing" textLength="40.0078" x="1875" y="256.9805">url</text></g><!--link DerivedFrom to XsdAnyUri--><g class="link" data-entity-1="ent0023" data-entity-2="ent0002" data-link-type="dependency" data-source-line="39" id="lnk25"><path codeLine="39" d="M1966.82,93.7994 C1967,133.3894 1961.9,214.6794 1921,265.6094 C1855.27,347.4694 1746.5883,390.6834 1664.7783,413.5634" fill="none" id="DerivedFrom-to-XsdAnyUri-1" style="stroke:#404040;stroke-width:1.2;stroke-dasharray:7,7;"/><polygon fill="#404040" points="1659,415.1794,1668.7448,416.6075,1663.8152,413.8327,1666.5901,408.9032,1659,415.1794" style="stroke:#404040;stroke-width:1.2;"/><text fill="#000000" font-family="sans-serif" font-size="36" lengthAdjust="spacing" textLength="118.0723" x="1948" y="256.9805">relation</text></g><!--link CatalogRecord to XsdAnyUri--><g class="link" data-entity-1="ent0026" data-entity-2="ent0002" data-link-type="dependency" data-source-line="41" id="lnk27"><path codeLine="41" d="M2172.46,93.7494 C2159.8,134.3794 2128.15,218.6894 2072,265.6094 C1951.68,366.1494 1775.5804,407.2682 1664.9304,424.2682" fill="none" id="CatalogRecord-to-XsdAnyUri" style="stroke:#404040;stroke-width:1.2;stroke-dasharray:7,7;"/><polygon fill="#404040" points="1659,425.1794,1668.503,427.7663,1663.942,424.4201,1667.2882,419.8591,1659,425.1794" style="stroke:#404040;stroke-width:1.2;"/><text fill="#000000" font-family="sans-serif" font-size="36" lengthAdjust="spacing" textLength="190.0547" x="2113" y="256.9805">conformsTo</text></g><!--link VariableMeasured to XsdAnyUri--><g class="link" data-entity-1="ent0028" data-entity-2="ent0002" data-link-type="dependency" data-source-line="43" id="lnk29"><path codeLine="43" d="M2419.78,93.6994 C2405.61,135.0394 2370.1,221.4594 2309,265.6094 C2205.42,340.4494 1842.1933,398.2662 1665.0833,422.7962" fill="none" id="VariableMeasured-to-XsdAnyUri" style="stroke:#404040;stroke-width:1.2;stroke-dasharray:7,7;"/><polygon fill="#404040" points="1659.14,423.6194,1668.6037,426.3468,1664.0927,422.9334,1667.5061,418.4225,1659.14,423.6194" style="stroke:#404040;stroke-width:1.2;"/><text fill="#000000" font-family="sans-serif" font-size="36" lengthAdjust="spacing" textLength="136.0723" x="2353" y="256.9805">identifier</text></g><!--link SpatialExtent to XsdAnyUri--><g class="link" data-entity-1="ent0030" data-entity-2="ent0002" data-link-type="dependency" data-source-line="45" id="lnk31"><path codeLine="45" d="M2650.33,93.7294 C2626.12,135.5194 2569.06,223.1794 2495,265.6094 C2352.81,347.0794 1873.3377,404.3981 1665.0977,426.0781" fill="none" id="SpatialExtent-to-XsdAnyUri" style="stroke:#404040;stroke-width:1.2;stroke-dasharray:7,7;"/><polygon fill="#404040" points="1659.13,426.6994,1668.4958,429.7459,1664.1031,426.1816,1667.6674,421.7889,1659.13,426.6994" style="stroke:#404040;stroke-width:1.2;"/><text fill="#000000" font-family="sans-serif" font-size="36" lengthAdjust="spacing" textLength="136.0723" x="2556" y="256.9805">identifier</text></g><!--link QualityMeasure to XsdAnyUri--><g class="link" data-entity-1="ent0032" data-entity-2="ent0002" data-link-type="dependency" data-source-line="47" id="lnk33"><path codeLine="47" d="M2868.78,93.6394 C2841.46,135.6794 2777.25,224.3094 2698,265.6094 C2516.99,359.9394 1904.7546,412.0595 1665.0446,429.2795" fill="none" id="QualityMeasure-to-XsdAnyUri" style="stroke:#404040;stroke-width:1.2;stroke-dasharray:7,7;"/><polygon fill="#404040" points="1659.06,429.7094,1668.3235,433.0542,1664.0471,429.3511,1667.7503,425.0748,1659.06,429.7094" style="stroke:#404040;stroke-width:1.2;"/><text fill="#000000" font-family="sans-serif" font-size="36" lengthAdjust="spacing" textLength="97.998" x="2764" y="256.9805">metric</text></g><?plantuml-src XPHDZvim443l_0ehkKVfRhU7QXM9pOUqXvNQ95lrwjZ3negnqTWaJQl-zne8je7j4YxuJNWpdi5OOIMGduQdwlgA8ZaA3eG9P1AQUyWBUoKvv0T0avYJK0L5cXDpf5nVX7eZ6PK6eaYAg2_xes0d1SQGJxExA8XKdGmKvEvX7b6bETGqXXmoMagxqShkn6yWzr-Y89FKkVyaf4ctr58ZcNwULvU3JnevO9_6AlUWjIWEfOM0vydV96dK4z-J2Q4cT8WyFd9gwVvQm691ffjq_R2wJ-Z1MAJCtkgQB7LUQ2CiV4ET2Gcrem_9T5t_aa5WDbj46RyIDmXbHIO0s-fMhWO3jlRUxhskNVSj9ShuyPM-AAafzuuMT4GUzctCTSrLzUgaO__BDEPchzlaARD2goqODzqwUGnyyWuSbwuW4mhu7Z1lDXJMOJyH6xHOHT4TsDRxx5jVQyFIMoFqGSTJpaMr8IhTa0j0UsssFi2X0SFGmA-4NRgpqoRPGWO8YZNlcrzvPI3lLVh_A8AaLIbj7bVGkPhFMTos4GEVhGC72GtmC3iKP-0RrEti_3gQNM3l5VzHl5_-qhslKhzjWRdFH7CqOnBEPOUEluC_A0fwaF02r9G8ZReFlNqG63_rkyBjWyhrh-harVOEyUek7VT-BwbqGxfLKekxo9jxkA_EmNrJMV8F?></g></svg>