<svg xmlns="http://www.w3.org/2000/svg" xmlns:xlink="http://www.w3.org/1999/xlink" contentStyleType="text/css" data-diagram-type="CLASS" height="497px" preserveAspectRatio="none" style="width:1150px;height:497px;background:#FFFFFF;" version="1.1" viewBox="0 0 1150 497" width="1150px" zoomAndPan="magnify"><?plantuml 1.2026.3?><defs/><g><g class="title" data-source-line="1"><text fill="#000000" font-family="sans-serif" font-size="14" font-weight="700" lengthAdjust="spacing" textLength="56.0205" x="543.6285" y="24.5332">XsdDate</text></g><!--class XsdDate--><g class="entity" data-qualified-name="XsdDate" data-source-line="16" id="ent0002"><rect fill="#FAE5D3" height="93.0156" rx="2.5" ry="2.5" style="stroke:#404040;stroke-width:0.5;" width="192.1426" x="440.17" y="390.6094"/><text fill="#000000" font-family="sans-serif" font-size="36" font-style="italic" lengthAdjust="spacing" textLength="190.1426" x="441.17" y="432.9805">&#171;dataType&#187;</text><text fill="#000000" font-family="sans-serif" font-size="30" lengthAdjust="spacing" textLength="115.0635" x="478.7096" y="472.0332">XsdDate</text></g><!--class Dataset--><g class="entity" data-qualified-name="Dataset" data-source-line="17" id="ent0003"><rect fill="#EEEEEE" height="47.7344" rx="2.5" ry="2.5" style="stroke:#404040;stroke-width:0.5;" width="109.3887" x="110.67" y="45.6094"/><text fill="#000000" font-family="sans-serif" font-size="30" lengthAdjust="spacing" textLength="103.3887" x="113.67" y="81.752">Dataset</text></g><!--class CatalogRecord--><g class="entity" data-qualified-name="CatalogRecord" data-source-line="20" id="ent0006"><rect fill="#EEEEEE" height="47.7344" rx="2.5" ry="2.5" style="stroke:#404040;stroke-width:0.5;" width="206.1123" x="433.17" y="45.6094"/><text fill="#000000" font-family="sans-serif" font-size="30" lengthAdjust="spacing" textLength="200.1123" x="436.17" y="81.752">CatalogRecord</text></g><!--class TemporalExtent--><g class="entity" data-qualified-name="TemporalExtent" data-source-line="22" id="ent0008"><rect fill="#EEEEEE" height="47.7344" rx="2.5" ry="2.5" style="stroke:#404040;stroke-width:0.5;" width="217.7578" x="812.17" y="45.6094"/><text fill="#000000" font-family="sans-serif" font-size="30" lengthAdjust="spacing" textLength="211.7578" x="815.17" y="81.752">TemporalExtent</text></g><!--link Dataset to XsdDate--><g class="link" data-entity-1="ent0003" data-entity-2="ent0002" data-link-type="dependency" data-source-line="18" id="lnk4"><path codeLine="18" d="M133.02,93.8494 C85.39,131.1494 6,206.2094 48.17,265.6094 C137.07,390.8394 319.1874,424.3725 434.1474,433.1525" fill="none" id="Dataset-to-XsdDate" style="stroke:#404040;stroke-width:1.2;stroke-dasharray:7,7;"/><polygon fill="#404040" points="440.13,433.6094,431.4607,428.9356,435.1445,433.2286,430.8515,436.9124,440.13,433.6094" style="stroke:#404040;stroke-width:1.2;"/><text fill="#000000" font-family="sans-serif" font-size="36" lengthAdjust="spacing" textLength="206.1387" x="49.17" y="256.9805">dateModified</text></g><!--link Dataset to XsdDate--><g class="link" data-entity-1="ent0003" data-entity-2="ent0002" data-link-type="dependency" data-source-line="19" id="lnk5"><path codeLine="19" d="M177.87,93.7794 C199.71,132.2894 247.25,210.6694 301.17,265.6094 C348.92,314.2594 406.7706,355.8429 455.4706,387.3129" fill="none" id="Dataset-to-XsdDate-1" style="stroke:#404040;stroke-width:1.2;stroke-dasharray:7,7;"/><polygon fill="#404040" points="460.51,390.5694,455.1219,382.3251,456.3105,387.8557,450.7799,389.0443,460.51,390.5694" style="stroke:#404040;stroke-width:1.2;"/><text fill="#000000" font-family="sans-serif" font-size="36" lengthAdjust="spacing" textLength="228.1816" x="302.17" y="256.9805">datePublished</text></g><!--link CatalogRecord to XsdDate--><g class="link" data-entity-1="ent0006" data-entity-2="ent0002" data-link-type="dependency" data-source-line="21" id="lnk7"><path codeLine="21" d="M536.17,93.7494 C536.17,153.1494 536.17,305.8194 536.17,384.5294" fill="none" id="CatalogRecord-to-XsdDate" style="stroke:#404040;stroke-width:1.2;stroke-dasharray:7,7;"/><polygon fill="#404040" points="536.17,390.5294,540.17,381.5294,536.17,385.5294,532.17,381.5294,536.17,390.5294" style="stroke:#404040;stroke-width:1.2;"/><text fill="#000000" font-family="sans-serif" font-size="36" lengthAdjust="spacing" textLength="272.1797" x="537.17" y="256.9805">sdDatePublished</text></g><!--link TemporalExtent to XsdDate--><g class="link" data-entity-1="ent0008" data-entity-2="ent0002" data-link-type="dependency" data-source-line="23" id="lnk9"><path codeLine="23" d="M907.22,93.7094 C889.87,122.6494 859.57,173.8694 835.17,218.6094 C823.94,239.1994 827.05,248.3494 811.17,265.6094 C761.05,320.0694 695.0193,360.8923 637.5493,390.3523" fill="none" id="TemporalExtent-to-XsdDate" style="stroke:#404040;stroke-width:1.2;stroke-dasharray:7,7;"/><polygon fill="#404040" points="632.21,393.0894,642.0437,392.5434,636.6595,390.8085,638.3943,385.4243,632.21,393.0894" style="stroke:#404040;stroke-width:1.2;"/><text fill="#000000" font-family="sans-serif" font-size="36" lengthAdjust="spacing" textLength="146.0566" x="836.17" y="256.9805">startDate</text></g><!--link TemporalExtent to XsdDate--><g class="link" data-entity-1="ent0008" data-entity-2="ent0002" data-link-type="dependency" data-source-line="24" id="lnk10"><path codeLine="24" d="M940.9,93.8394 C971.18,132.4594 1021.83,210.9794 984.17,265.6094 C905.29,380.0294 744.6297,417.0354 638.3197,429.4154" fill="none" id="TemporalExtent-to-XsdDate-1" style="stroke:#404040;stroke-width:1.2;stroke-dasharray:7,7;"/><polygon fill="#404040" points="632.36,430.1094,641.7623,433.0415,637.3264,429.531,640.8369,425.0952,632.36,430.1094" style="stroke:#404040;stroke-width:1.2;"/><text fill="#000000" font-family="sans-serif" font-size="36" lengthAdjust="spacing" textLength="136.1074" x="998.17" y="256.9805">endDate</text></g><?plantuml-src VPB1ReCm38RlUGght2lMhZjCLQMkfRT9qyPXLqDCYHeIbBZgkcdllWne1qmgNCpdFv-L45Qi2Twzt2AJA9Kao9NBTLTJLVCPAgeoSbxuWp8rEgp0boZjIPaz5AWzzJfhv-mfBLL-CEGzt4rdlQP3S_1KmsmHzwYnaXhQXv8AF6hUMSDlwfDW_j1hvXg3-qj0EsvZjNKGtSU_Ru1FraboOzfNXONCJcL7fZySYsyXMlMaEv49eB-S3YoN4XdJSqsh5KIxTRBOpY_v441FtEIx6gAaUSJbUpfTNLsF45pqRAKg5CaRaPTZffKlGwQRj0bHRVUlb8TTDlC6v3frI8VYjlYdJiFljWvryi5ashqCqLK-mYCxe-FcFjsCaMaltGy0?></g></svg>