<svg xmlns="http://www.w3.org/2000/svg" xmlns:xlink="http://www.w3.org/1999/xlink" contentStyleType="text/css" data-diagram-type="CLASS" height="887px" preserveAspectRatio="none" style="width:1670px;height:887px;background:#FFFFFF;" version="1.1" viewBox="0 0 1670 887" width="1670px" zoomAndPan="magnify"><?plantuml 1.2026.3?><defs/><g><g class="title" data-source-line="1"><text fill="#000000" font-family="sans-serif" font-size="14" font-weight="700" lengthAdjust="spacing" textLength="77.8271" x="792.8794" y="24.5332">PrimaryKey</text></g><!--class PrimaryKey--><g class="entity" data-qualified-name="PrimaryKey" data-source-line="16" id="ent0002"><rect fill="#FEFECE" height="93.4688" rx="2.5" ry="2.5" style="stroke:#404040;stroke-width:0.5;" width="388.1514" x="583.5" y="390.6094"/><text fill="#000000" font-family="sans-serif" font-size="30" lengthAdjust="spacing" textLength="155.0244" x="700.0635" y="426.752">PrimaryKey</text><line style="stroke:#404040;stroke-width:0.5;" x1="584.5" x2="970.6514" y1="438.3438" y2="438.3438"/><g data-visibility-modifier="PUBLIC_FIELD"><ellipse cx="594.5" cy="462.7109" fill="none" rx="3" ry="3" style="stroke:#038048;stroke-width:1;"/></g><text fill="#000000" font-family="sans-serif" font-size="30" lengthAdjust="spacing" textLength="355.1514" x="610.5" y="473.4863">identifier : XsdAnyUri [0..1]</text></g><!--class Dataset--><g class="entity" data-qualified-name="Dataset" data-source-line="19" id="ent0003"><rect fill="#EEEEEE" height="47.7344" rx="2.5" ry="2.5" style="stroke:#404040;stroke-width:0.5;" width="109.3887" x="7" y="45.6094"/><text fill="#000000" font-family="sans-serif" font-size="30" lengthAdjust="spacing" textLength="103.3887" x="10" y="81.752">Dataset</text></g><!--class ComponentPosition--><g class="entity" data-qualified-name="ComponentPosition" data-source-line="21" id="ent0005"><rect fill="#EEEEEE" height="47.7344" rx="2.5" ry="2.5" style="stroke:#404040;stroke-width:0.5;" width="267.8262" x="345.5" y="803.1094"/><text fill="#000000" font-family="sans-serif" font-size="30" lengthAdjust="spacing" textLength="261.8262" x="348.5" y="839.252">ComponentPosition</text></g><!--class RepresentedVariable--><g class="entity" data-qualified-name="RepresentedVariable" data-source-line="23" id="ent0007"><rect fill="#EEEEEE" height="47.7344" rx="2.5" ry="2.5" style="stroke:#404040;stroke-width:0.5;" width="287.8506" x="633.5" y="803.1094"/><text fill="#000000" font-family="sans-serif" font-size="30" lengthAdjust="spacing" textLength="281.8506" x="636.5" y="839.252">RepresentedVariable</text></g><!--class DataStructure--><g class="entity" data-qualified-name="DataStructure" data-source-line="25" id="ent0009"><rect fill="#EEEEEE" height="47.7344" rx="2.5" ry="2.5" style="stroke:#404040;stroke-width:0.5;" width="191.083" x="225" y="45.6094"/><text fill="#000000" font-family="sans-serif" font-size="30" lengthAdjust="spacing" textLength="185.083" x="228" y="81.752">DataStructure</text></g><!--class DimensionalDataStructure--><g class="entity" data-qualified-name="DimensionalDataStructure" data-source-line="27" id="ent0011"><rect fill="#EEEEEE" height="47.7344" rx="2.5" ry="2.5" style="stroke:#404040;stroke-width:0.5;" width="356.1563" x="436.5" y="45.6094"/><text fill="#000000" font-family="sans-serif" font-size="30" lengthAdjust="spacing" textLength="350.1563" x="439.5" y="81.752">DimensionalDataStructure</text></g><!--class LongDataStructure--><g class="entity" data-qualified-name="LongDataStructure" data-source-line="29" id="ent0013"><rect fill="#EEEEEE" height="47.7344" rx="2.5" ry="2.5" style="stroke:#404040;stroke-width:0.5;" width="257.8213" x="812.5" y="45.6094"/><text fill="#000000" font-family="sans-serif" font-size="30" lengthAdjust="spacing" textLength="251.8213" x="815.5" y="81.752">LongDataStructure</text></g><!--class WideDataStructure--><g class="entity" data-qualified-name="WideDataStructure" data-source-line="31" id="ent0015"><rect fill="#EEEEEE" height="47.7344" rx="2.5" ry="2.5" style="stroke:#404040;stroke-width:0.5;" width="259.4326" x="1091" y="45.6094"/><text fill="#000000" font-family="sans-serif" font-size="30" lengthAdjust="spacing" textLength="253.4326" x="1094" y="81.752">WideDataStructure</text></g><!--class ForeignKey--><g class="entity" data-qualified-name="ForeignKey" data-source-line="33" id="ent0017"><rect fill="#EEEEEE" height="47.7344" rx="2.5" ry="2.5" style="stroke:#404040;stroke-width:0.5;" width="159.4131" x="1408" y="45.6094"/><text fill="#000000" font-family="sans-serif" font-size="30" lengthAdjust="spacing" textLength="153.4131" x="1411" y="81.752">ForeignKey</text></g><!--class XsdAnyUri--><g class="entity" data-qualified-name="XsdAnyUri" data-source-line="35" id="ent0019"><rect fill="#FAE5D3" height="93.0156" rx="2.5" ry="2.5" style="stroke:#404040;stroke-width:0.5;" width="192.1426" x="946.5" y="780.6094"/><text fill="#000000" font-family="sans-serif" font-size="36" font-style="italic" lengthAdjust="spacing" textLength="190.1426" x="947.5" y="822.9805">&#171;dataType&#187;</text><text fill="#000000" font-family="sans-serif" font-size="30" lengthAdjust="spacing" textLength="141.709" x="971.7168" y="862.0332">XsdAnyUri</text></g><!--reverse link Dataset to PrimaryKey--><g class="link" data-entity-1="ent0003" data-entity-2="ent0002" data-link-type="composition" data-source-line="20" id="lnk4"><path codeLine="20" d="M61.0143,105.809 C61.3343,146.529 68.01,218.9694 115.5,265.6094 C181.49,330.4194 412.55,379.5194 583.2,408.0094" fill="none" id="Dataset-backto-PrimaryKey" style="stroke:#404040;stroke-width:1.2;"/><polygon fill="#404040" points="60.92,93.8094,56.9673,99.8406,61.0143,105.809,64.967,99.7778,60.92,93.8094" style="stroke:#404040;stroke-width:1.2;"/><text fill="#000000" font-family="sans-serif" font-size="36" lengthAdjust="spacing" textLength="244.0723" x="116.5" y="256.9805">hasPrimaryKey</text><text fill="#000000" font-family="sans-serif" font-size="36" lengthAdjust="spacing" textLength="60.0469" x="515.1373" y="398.5227">0..1</text></g><!--reverse link PrimaryKey to ComponentPosition--><g class="link" data-entity-1="ent0002" data-entity-2="ent0005" data-link-type="composition" data-source-line="22" id="lnk6"><path codeLine="22" d="M670.2347,489.5789 C618.8947,518.4989 569.42,554.7494 532.5,608.6094 C490.53,669.8394 481.68,760.7794 479.9,803.0094" fill="none" id="PrimaryKey-backto-ComponentPosition" style="stroke:#404040;stroke-width:1.2;"/><polygon fill="#404040" points="680.69,483.6894,673.4992,483.149,670.2347,489.5789,677.4255,490.1192,680.69,483.6894" style="stroke:#404040;stroke-width:1.2;"/><text fill="#000000" font-family="sans-serif" font-size="36" lengthAdjust="spacing" textLength="238.0957" x="533.5" y="646.9805">isComposedOf</text><text fill="#000000" font-family="sans-serif" font-size="36" lengthAdjust="spacing" textLength="54.0352" x="421.1805" y="787.1285">1..*</text></g><!--link PrimaryKey to RepresentedVariable--><g class="link" data-entity-1="ent0002" data-entity-2="ent0007" data-link-type="dependency" data-source-line="24" id="lnk8"><path codeLine="24" d="M777.5,483.7594 C777.5,566.8894 777.5,734.1794 777.5,796.8494" fill="none" id="PrimaryKey-to-RepresentedVariable" style="stroke:#404040;stroke-width:1.2;"/><polygon fill="#404040" points="777.5,802.8494,781.5,793.8494,777.5,797.8494,773.5,793.8494,777.5,802.8494" style="stroke:#404040;stroke-width:1.2;"/><text fill="#000000" font-family="sans-serif" font-size="36" lengthAdjust="spacing" textLength="238.0957" x="778.5" y="646.9805">isComposedOf</text><text fill="#000000" font-family="sans-serif" font-size="36" lengthAdjust="spacing" textLength="54.0352" x="718.8752" y="787.2306">1..*</text></g><!--reverse link DataStructure to PrimaryKey--><g class="link" data-entity-1="ent0009" data-entity-2="ent0002" data-link-type="composition" data-source-line="26" id="lnk10"><path codeLine="26" d="M326.5037,105.5677 C334.1037,145.4977 352.6,215.9794 400.5,265.6094 C456.75,323.8894 536.58,363.8994 608.31,390.4394" fill="none" id="DataStructure-backto-PrimaryKey" style="stroke:#404040;stroke-width:1.2;"/><polygon fill="#404040" points="324.26,93.7794,321.4524,100.4215,326.5037,105.5677,329.3113,98.9257,324.26,93.7794" style="stroke:#404040;stroke-width:1.2;"/><text fill="#000000" font-family="sans-serif" font-size="36" lengthAdjust="spacing" textLength="244.0723" x="401.5" y="256.9805">hasPrimaryKey</text><text fill="#000000" font-family="sans-serif" font-size="36" lengthAdjust="spacing" textLength="60.0469" x="592.2101" y="374.8018">0..1</text></g><!--reverse link DimensionalDataStructure to PrimaryKey--><g class="link" data-entity-1="ent0011" data-entity-2="ent0002" data-link-type="composition" data-source-line="28" id="lnk12"><path codeLine="28" d="M621.3697,105.6149 C629.0197,142.9349 644,206.2694 670.5,265.6094 C690.45,310.2794 720.58,357.0894 743.79,390.3294" fill="none" id="DimensionalDataStructure-backto-PrimaryKey" style="stroke:#404040;stroke-width:1.2;"/><polygon fill="#404040" points="618.96,93.8594,616.2463,100.5404,621.3697,105.6149,624.0834,98.9339,618.96,93.8594" style="stroke:#404040;stroke-width:1.2;"/><text fill="#000000" font-family="sans-serif" font-size="36" lengthAdjust="spacing" textLength="244.0723" x="671.5" y="256.9805">hasPrimaryKey</text><text fill="#000000" font-family="sans-serif" font-size="36" lengthAdjust="spacing" textLength="60.0469" x="676.4175" y="374.6791">0..1</text></g><!--reverse link LongDataStructure to PrimaryKey--><g class="link" data-entity-1="ent0013" data-entity-2="ent0002" data-link-type="composition" data-source-line="30" id="lnk14"><path codeLine="30" d="M943.07,105.8943 C944.17,143.5943 942.36,207.6094 917.5,265.6094 C896.98,313.4894 858.75,358.6094 827.42,390.3994" fill="none" id="LongDataStructure-backto-PrimaryKey" style="stroke:#404040;stroke-width:1.2;"/><polygon fill="#404040" points="942.72,93.8994,938.8967,100.0135,943.07,105.8943,946.8933,99.7802,942.72,93.8994" style="stroke:#404040;stroke-width:1.2;"/><text fill="#000000" font-family="sans-serif" font-size="36" lengthAdjust="spacing" textLength="244.0723" x="932.5" y="256.9805">hasPrimaryKey</text><text fill="#000000" font-family="sans-serif" font-size="36" lengthAdjust="spacing" textLength="60.0469" x="769.7172" y="374.7572">0..1</text></g><!--reverse link WideDataStructure to PrimaryKey--><g class="link" data-entity-1="ent0015" data-entity-2="ent0002" data-link-type="composition" data-source-line="32" id="lnk16"><path codeLine="32" d="M1223.1965,105.9014 C1225.3765,145.6914 1223.39,215.2894 1182.5,265.6094 C1129.76,330.5094 1047.92,371.0994 971.58,396.2894" fill="none" id="WideDataStructure-backto-PrimaryKey" style="stroke:#404040;stroke-width:1.2;"/><polygon fill="#404040" points="1222.54,93.9194,1218.8742,100.1292,1223.1965,105.9014,1226.8622,99.6916,1222.54,93.9194" style="stroke:#404040;stroke-width:1.2;"/><text fill="#000000" font-family="sans-serif" font-size="36" lengthAdjust="spacing" textLength="244.0723" x="1208.5" y="256.9805">hasPrimaryKey</text><text fill="#000000" font-family="sans-serif" font-size="36" lengthAdjust="spacing" textLength="60.0469" x="979.631" y="386.3815">0..1</text></g><!--link ForeignKey to PrimaryKey--><g class="link" data-entity-1="ent0017" data-entity-2="ent0002" data-link-type="dependency" data-source-line="34" id="lnk18"><path codeLine="34" d="M1491.51,93.8394 C1497.05,134.2394 1501.95,217.6894 1458.5,265.6094 C1393.77,336.9894 1155.1245,384.355 977.5645,410.815" fill="none" id="ForeignKey-to-PrimaryKey" style="stroke:#404040;stroke-width:1.2;"/><polygon fill="#404040" points="971.63,411.6994,981.1213,414.3292,976.5754,410.9624,979.9421,406.4165,971.63,411.6994" style="stroke:#404040;stroke-width:1.2;"/><text fill="#000000" font-family="sans-serif" font-size="36" lengthAdjust="spacing" textLength="170.0859" x="1484.5" y="256.9805">references</text><text fill="#000000" font-family="sans-serif" font-size="36" lengthAdjust="spacing" textLength="60.0469" x="979.6828" y="448.9625">0..1</text></g><!--link PrimaryKey to XsdAnyUri--><g class="link" data-entity-1="ent0002" data-entity-2="ent0019" data-link-type="dependency" data-source-line="36" id="lnk20"><path codeLine="36" d="M877.91,483.6794 C928.68,512.1394 986.24,553.8594 1018.5,608.6094 C1049.55,661.3094 1051.4481,727.7633 1048.2781,774.2633" fill="none" id="PrimaryKey-to-XsdAnyUri" style="stroke:#404040;stroke-width:1.2;stroke-dasharray:7,7;"/><polygon fill="#404040" points="1047.87,780.2494,1052.4729,771.5423,1048.2101,775.261,1044.4914,770.9982,1047.87,780.2494" style="stroke:#404040;stroke-width:1.2;"/><text fill="#000000" font-family="sans-serif" font-size="36" lengthAdjust="spacing" textLength="136.0723" x="1037.5" y="646.9805">identifier</text></g><?plantuml-src bPDDRzim38Rl_XM4SsiH8-d73a4H84kSomQiQBiFODX1iUY4Y2qPb8B27VRVfoYnhStk8TP5UYczZqoHbco1yCXK2gu_OHtjI29an5c1fpcMbQsXn7A3R2Ap9rK95YMOdP3wbTGMSb4O328BPltwigDihz0Oc2OtGP25sXkiuEP-4gXAI_HgA4hCnQ6mQwtiCxqXt7u8WbaXdFVl24wufIuqm-XkSXnE_AXP8l-lXbRkeBLCcuF5Jfv4VwBeP1rtIOb1c217C5gdwtIPUlgrov6ob1CopE27aGjLVsM2dvCacVvoTcUtbR32eFLMvpcCKlz5pVfgF8RuU2uEQJFO2HEyqDbmgSjAAyT-r8OiQUMjUseB2HmzPveaL_70_XcGyQf1-ILlQ4zOiNiXPL5-4qnYKw3d3UX3nF5utX27JWmpZsbvjdp8x86nJLoh_9E-JhqeYIigKHdtsw8OeBqJxC3lRRZe3f-rslRXFRMbzYCNuRwxWktZUcgBwqSkmgqr8srLqqNTiWK4aY-J0MV671bLXgQnRHlDktPjz_0WtLrVwWhdSzUdY_H-THiMOfBCWzskxjhkZVu2?></g></svg>