<svg xmlns="http://www.w3.org/2000/svg" xmlns:xlink="http://www.w3.org/1999/xlink" contentStyleType="text/css" data-diagram-type="CLASS" height="887px" preserveAspectRatio="none" style="width:1670px;height:887px;background:#FFFFFF;" version="1.1" viewBox="0 0 1670 887" width="1670px" zoomAndPan="magnify"><?plantuml 1.2026.3?><defs/><g><g class="title" data-source-line="1"><text fill="#000000" font-family="sans-serif" font-size="14" font-weight="700" lengthAdjust="spacing" textLength="77.8271" x="792.8794" y="24.5332">PrimaryKey</text></g><!--class PrimaryKey--><g class="entity" data-qualified-name="PrimaryKey" data-source-line="16" id="ent0002"><rect fill="#FEFECE" height="93.4688" rx="2.5" ry="2.5" style="stroke:#404040;stroke-width:0.5;" width="388.1514" x="583.5" y="390.6094"/><text fill="#000000" font-family="sans-serif" font-size="30" lengthAdjust="spacing" textLength="155.0244" x="700.0635" y="426.752">PrimaryKey</text><line style="stroke:#404040;stroke-width:0.5;" x1="584.5" x2="970.6514" y1="438.3438" y2="438.3438"/><g data-visibility-modifier="PUBLIC_FIELD"><ellipse cx="594.5" cy="462.7109" fill="none" rx="3" ry="3" style="stroke:#038048;stroke-width:1;"/></g><text fill="#000000" font-family="sans-serif" font-size="30" lengthAdjust="spacing" textLength="355.1514" x="610.5" y="473.4863">identifier : XsdAnyUri [0..1]</text></g><!--class Dataset--><g class="entity" data-qualified-name="Dataset" data-source-line="19" id="ent0003"><rect fill="#EEEEEE" height="47.7344" rx="2.5" ry="2.5" style="stroke:#404040;stroke-width:0.5;" width="109.3887" x="7" y="45.6094"/><text fill="#000000" font-family="sans-serif" font-size="30" lengthAdjust="spacing" textLength="103.3887" x="10" y="81.752">Dataset</text></g><!--class RepresentedVariable--><g class="entity" data-qualified-name="RepresentedVariable" data-source-line="21" id="ent0005"><rect fill="#EEEEEE" height="47.7344" rx="2.5" ry="2.5" style="stroke:#404040;stroke-width:0.5;" width="287.8506" x="501.5" y="803.1094"/><text fill="#000000" font-family="sans-serif" font-size="30" lengthAdjust="spacing" textLength="281.8506" x="504.5" y="839.252">RepresentedVariable</text></g><!--class DataStructure--><g class="entity" data-qualified-name="DataStructure" data-source-line="23" id="ent0007"><rect fill="#EEEEEE" height="47.7344" rx="2.5" ry="2.5" style="stroke:#404040;stroke-width:0.5;" width="191.083" x="225" y="45.6094"/><text fill="#000000" font-family="sans-serif" font-size="30" lengthAdjust="spacing" textLength="185.083" x="228" y="81.752">DataStructure</text></g><!--class DimensionalDataStructure--><g class="entity" data-qualified-name="DimensionalDataStructure" data-source-line="25" id="ent0009"><rect fill="#EEEEEE" height="47.7344" rx="2.5" ry="2.5" style="stroke:#404040;stroke-width:0.5;" width="356.1563" x="436.5" y="45.6094"/><text fill="#000000" font-family="sans-serif" font-size="30" lengthAdjust="spacing" textLength="350.1563" x="439.5" y="81.752">DimensionalDataStructure</text></g><!--class LongDataStructure--><g class="entity" data-qualified-name="LongDataStructure" data-source-line="27" id="ent0011"><rect fill="#EEEEEE" height="47.7344" rx="2.5" ry="2.5" style="stroke:#404040;stroke-width:0.5;" width="257.8213" x="812.5" y="45.6094"/><text fill="#000000" font-family="sans-serif" font-size="30" lengthAdjust="spacing" textLength="251.8213" x="815.5" y="81.752">LongDataStructure</text></g><!--class WideDataStructure--><g class="entity" data-qualified-name="WideDataStructure" data-source-line="29" id="ent0013"><rect fill="#EEEEEE" height="47.7344" rx="2.5" ry="2.5" style="stroke:#404040;stroke-width:0.5;" width="259.4326" x="1091" y="45.6094"/><text fill="#000000" font-family="sans-serif" font-size="30" lengthAdjust="spacing" textLength="253.4326" x="1094" y="81.752">WideDataStructure</text></g><!--class ForeignKey--><g class="entity" data-qualified-name="ForeignKey" data-source-line="31" id="ent0015"><rect fill="#EEEEEE" height="47.7344" rx="2.5" ry="2.5" style="stroke:#404040;stroke-width:0.5;" width="159.4131" x="1408" y="45.6094"/><text fill="#000000" font-family="sans-serif" font-size="30" lengthAdjust="spacing" textLength="153.4131" x="1411" y="81.752">ForeignKey</text></g><!--class XsdAnyUri--><g class="entity" data-qualified-name="XsdAnyUri" data-source-line="33" id="ent0017"><rect fill="#FAE5D3" height="93.0156" rx="2.5" ry="2.5" style="stroke:#404040;stroke-width:0.5;" width="192.1426" x="814.5" y="780.6094"/><text fill="#000000" font-family="sans-serif" font-size="36" font-style="italic" lengthAdjust="spacing" textLength="190.1426" x="815.5" y="822.9805">&#171;dataType&#187;</text><text fill="#000000" font-family="sans-serif" font-size="30" lengthAdjust="spacing" textLength="141.709" x="839.7168" y="862.0332">XsdAnyUri</text></g><!--reverse link Dataset to PrimaryKey--><g class="link" data-entity-1="ent0003" data-entity-2="ent0002" data-link-type="composition" data-source-line="20" id="lnk4"><path codeLine="20" d="M61.0143,105.809 C61.3343,146.529 68.01,218.9694 115.5,265.6094 C181.49,330.4194 412.55,379.5194 583.2,408.0094" fill="none" id="Dataset-backto-PrimaryKey" style="stroke:#404040;stroke-width:1.2;"/><polygon fill="#404040" points="60.92,93.8094,56.9673,99.8406,61.0143,105.809,64.967,99.7778,60.92,93.8094" style="stroke:#404040;stroke-width:1.2;"/><text fill="#000000" font-family="sans-serif" font-size="36" lengthAdjust="spacing" textLength="244.0723" x="116.5" y="256.9805">hasPrimaryKey</text><text fill="#000000" font-family="sans-serif" font-size="36" lengthAdjust="spacing" textLength="60.0469" x="515.1373" y="398.5227">0..1</text></g><!--link PrimaryKey to RepresentedVariable--><g class="link" data-entity-1="ent0002" data-entity-2="ent0005" data-link-type="dependency" data-source-line="22" id="lnk6"><path codeLine="22" d="M728.54,483.6194 C698.19,515.3294 661.97,560.4394 645.5,608.6094 C622.41,676.1394 632.3521,756.6052 639.6921,797.1852" fill="none" id="PrimaryKey-to-RepresentedVariable" style="stroke:#404040;stroke-width:1.2;"/><polygon fill="#404040" points="640.76,803.0894,643.0942,793.5211,639.8701,798.1692,635.222,794.945,640.76,803.0894" style="stroke:#404040;stroke-width:1.2;"/><text fill="#000000" font-family="sans-serif" font-size="36" lengthAdjust="spacing" textLength="238.0957" x="646.5" y="646.9805">isComposedOf</text><text fill="#000000" font-family="sans-serif" font-size="36" lengthAdjust="spacing" textLength="54.0352" x="581.1228" y="787.2228">1..*</text></g><!--reverse link DataStructure to PrimaryKey--><g class="link" data-entity-1="ent0007" data-entity-2="ent0002" data-link-type="composition" data-source-line="24" id="lnk8"><path codeLine="24" d="M326.5037,105.5677 C334.1037,145.4977 352.6,215.9794 400.5,265.6094 C456.75,323.8894 536.58,363.8994 608.31,390.4394" fill="none" id="DataStructure-backto-PrimaryKey" style="stroke:#404040;stroke-width:1.2;"/><polygon fill="#404040" points="324.26,93.7794,321.4524,100.4215,326.5037,105.5677,329.3113,98.9257,324.26,93.7794" style="stroke:#404040;stroke-width:1.2;"/><text fill="#000000" font-family="sans-serif" font-size="36" lengthAdjust="spacing" textLength="244.0723" x="401.5" y="256.9805">hasPrimaryKey</text><text fill="#000000" font-family="sans-serif" font-size="36" lengthAdjust="spacing" textLength="60.0469" x="592.2101" y="374.8018">0..1</text></g><!--reverse link DimensionalDataStructure to PrimaryKey--><g class="link" data-entity-1="ent0009" data-entity-2="ent0002" data-link-type="composition" data-source-line="26" id="lnk10"><path codeLine="26" d="M621.3697,105.6149 C629.0197,142.9349 644,206.2694 670.5,265.6094 C690.45,310.2794 720.58,357.0894 743.79,390.3294" fill="none" id="DimensionalDataStructure-backto-PrimaryKey" style="stroke:#404040;stroke-width:1.2;"/><polygon fill="#404040" points="618.96,93.8594,616.2463,100.5404,621.3697,105.6149,624.0834,98.9339,618.96,93.8594" style="stroke:#404040;stroke-width:1.2;"/><text fill="#000000" font-family="sans-serif" font-size="36" lengthAdjust="spacing" textLength="244.0723" x="671.5" y="256.9805">hasPrimaryKey</text><text fill="#000000" font-family="sans-serif" font-size="36" lengthAdjust="spacing" textLength="60.0469" x="676.4175" y="374.6791">0..1</text></g><!--reverse link LongDataStructure to PrimaryKey--><g class="link" data-entity-1="ent0011" data-entity-2="ent0002" data-link-type="composition" data-source-line="28" id="lnk12"><path codeLine="28" d="M943.07,105.8943 C944.17,143.5943 942.36,207.6094 917.5,265.6094 C896.98,313.4894 858.75,358.6094 827.42,390.3994" fill="none" id="LongDataStructure-backto-PrimaryKey" style="stroke:#404040;stroke-width:1.2;"/><polygon fill="#404040" points="942.72,93.8994,938.8967,100.0135,943.07,105.8943,946.8933,99.7802,942.72,93.8994" style="stroke:#404040;stroke-width:1.2;"/><text fill="#000000" font-family="sans-serif" font-size="36" lengthAdjust="spacing" textLength="244.0723" x="932.5" y="256.9805">hasPrimaryKey</text><text fill="#000000" font-family="sans-serif" font-size="36" lengthAdjust="spacing" textLength="60.0469" x="769.7172" y="374.7572">0..1</text></g><!--reverse link WideDataStructure to PrimaryKey--><g class="link" data-entity-1="ent0013" data-entity-2="ent0002" data-link-type="composition" data-source-line="30" id="lnk14"><path codeLine="30" d="M1223.1965,105.9014 C1225.3765,145.6914 1223.39,215.2894 1182.5,265.6094 C1129.76,330.5094 1047.92,371.0994 971.58,396.2894" fill="none" id="WideDataStructure-backto-PrimaryKey" style="stroke:#404040;stroke-width:1.2;"/><polygon fill="#404040" points="1222.54,93.9194,1218.8742,100.1292,1223.1965,105.9014,1226.8622,99.6916,1222.54,93.9194" style="stroke:#404040;stroke-width:1.2;"/><text fill="#000000" font-family="sans-serif" font-size="36" lengthAdjust="spacing" textLength="244.0723" x="1208.5" y="256.9805">hasPrimaryKey</text><text fill="#000000" font-family="sans-serif" font-size="36" lengthAdjust="spacing" textLength="60.0469" x="979.631" y="386.3815">0..1</text></g><!--link ForeignKey to PrimaryKey--><g class="link" data-entity-1="ent0015" data-entity-2="ent0002" data-link-type="dependency" data-source-line="32" id="lnk16"><path codeLine="32" d="M1491.51,93.8394 C1497.05,134.2394 1501.95,217.6894 1458.5,265.6094 C1393.77,336.9894 1155.1245,384.355 977.5645,410.815" fill="none" id="ForeignKey-to-PrimaryKey" style="stroke:#404040;stroke-width:1.2;"/><polygon fill="#404040" points="971.63,411.6994,981.1213,414.3292,976.5754,410.9624,979.9421,406.4165,971.63,411.6994" style="stroke:#404040;stroke-width:1.2;"/><text fill="#000000" font-family="sans-serif" font-size="36" lengthAdjust="spacing" textLength="170.0859" x="1484.5" y="256.9805">references</text><text fill="#000000" font-family="sans-serif" font-size="36" lengthAdjust="spacing" textLength="60.0469" x="979.6828" y="448.9625">0..1</text></g><!--link PrimaryKey to XsdAnyUri--><g class="link" data-entity-1="ent0002" data-entity-2="ent0017" data-link-type="dependency" data-source-line="34" id="lnk18"><path codeLine="34" d="M815.07,483.8994 C839.73,516.5894 870.3,562.7294 886.5,608.6094 C906.54,665.3894 910.9086,729.2397 911.3686,774.1997" fill="none" id="PrimaryKey-to-XsdAnyUri" style="stroke:#404040;stroke-width:1.2;stroke-dasharray:7,7;"/><polygon fill="#404040" points="911.43,780.1994,915.3377,771.1589,911.3788,775.1996,907.3381,771.2408,911.43,780.1994" style="stroke:#404040;stroke-width:1.2;"/><text fill="#000000" font-family="sans-serif" font-size="36" lengthAdjust="spacing" textLength="136.0723" x="899.5" y="646.9805">identifier</text></g><?plantuml-src bPDDRy8m38Rl_HLMkMsYWdqTq8J4e5msQTE-fMc7qBXWqIQL4pHrq_xxGe4sMzc1vfAyJjudTXrBDaEuOye5bzTO1WkI20bnak5cZdbXIyWndo6Rm2n95O953cOXfFuWDOTKP0Qzo8XPVpmkA5agD0RwqOaNPA6M1WiuEUzvgj8IAzKN9QPYbTcfLlQ1FX5EBxnWaWdd_HN01ZVMcMRedFNMmubNcYNoNzMtSWUjPPgjB3PoB_WEWerrs1Gb166y6a5d6a_ZSLpHZrsDbAMKa640hqQELFd416-zAEg_ExkjsqHOOT1MLjivTEBg2tRhesuNmlMvqASDO26CzuUsXlTOiAkPiYYV1PEOPLYPxz5haEVQxGuXx4VHKRZtn038Z7LUQ8FoDlMJUB2yIkoAiKwbLdubrAW7fJMX79KXhKIsX_PFi07_j-6WEzneDM_3MsfDRKSEmhsu5chZMcgDQqSEmaqr8ytLhg-RPGtmfAfDzZWpfiYe4ZGxsxhrAzVc8LnUIdVNnxB0uT2zd55yFZdr6p6AXjvkrtVrUmf-0000?></g></svg>