<svg xmlns="http://www.w3.org/2000/svg" xmlns:xlink="http://www.w3.org/1999/xlink" contentStyleType="text/css" data-diagram-type="CLASS" height="1114px" preserveAspectRatio="none" style="width:899px;height:1114px;background:#FFFFFF;" version="1.1" viewBox="0 0 899 1114" width="899px" zoomAndPan="magnify"><?plantuml 1.2026.3?><defs/><g><g class="title" data-source-line="1"><text fill="#000000" font-family="sans-serif" font-size="14" font-weight="700" lengthAdjust="spacing" textLength="62.248" x="415.0071" y="24.5332">Statistics</text></g><!--class Statistics--><g class="entity" data-qualified-name="Statistics" data-source-line="16" id="ent0002"><rect fill="#FEFECE" height="319.875" rx="2.5" ry="2.5" style="stroke:#404040;stroke-width:0.5;" width="483.1904" x="179.69" y="390.6094"/><text fill="#000000" font-family="sans-serif" font-size="30" lengthAdjust="spacing" textLength="120.0293" x="361.2706" y="426.752">Statistics</text><line style="stroke:#404040;stroke-width:0.5;" x1="180.69" x2="661.8804" y1="438.3438" y2="438.3438"/><g data-visibility-modifier="PUBLIC_FIELD"><ellipse cx="190.69" cy="462.7109" fill="none" rx="3" ry="3" style="stroke:#038048;stroke-width:1;"/></g><text fill="#000000" font-family="sans-serif" font-size="30" lengthAdjust="spacing" textLength="355.1514" x="206.69" y="473.4863">identifier : XsdAnyUri [0..1]</text><g data-visibility-modifier="PUBLIC_FIELD"><ellipse cx="190.69" cy="500.4453" fill="none" rx="3" ry="3" style="stroke:#038048;stroke-width:1;"/></g><text fill="#000000" font-family="sans-serif" font-size="30" lengthAdjust="spacing" textLength="366.8115" x="206.69" y="511.2207">typeOfStatistic : string [0..1]</text><g data-visibility-modifier="PUBLIC_FIELD"><ellipse cx="190.69" cy="538.1797" fill="none" rx="3" ry="3" style="stroke:#038048;stroke-width:1;"/></g><text fill="#000000" font-family="sans-serif" font-size="30" lengthAdjust="spacing" textLength="243.4424" x="206.69" y="548.9551">scale : string [0..1]</text><g data-visibility-modifier="PUBLIC_FIELD"><ellipse cx="190.69" cy="575.9141" fill="none" rx="3" ry="3" style="stroke:#038048;stroke-width:1;"/></g><text fill="#000000" font-family="sans-serif" font-size="30" lengthAdjust="spacing" textLength="450.1904" x="206.69" y="586.6895">typeOfNumericValue : string [0..1]</text><g data-visibility-modifier="PUBLIC_FIELD"><ellipse cx="190.69" cy="613.6484" fill="none" rx="3" ry="3" style="stroke:#038048;stroke-width:1;"/></g><text fill="#000000" font-family="sans-serif" font-size="30" lengthAdjust="spacing" textLength="271.8164" x="206.69" y="624.4238">content : string [0..1]</text><g data-visibility-modifier="PUBLIC_FIELD"><ellipse cx="190.69" cy="651.3828" fill="none" rx="3" ry="3" style="stroke:#038048;stroke-width:1;"/></g><text fill="#000000" font-family="sans-serif" font-size="30" lengthAdjust="spacing" textLength="355.2246" x="206.69" y="662.1582">isWeighted : boolean [0..1]</text><g data-visibility-modifier="PUBLIC_FIELD"><ellipse cx="190.69" cy="689.1172" fill="none" rx="3" ry="3" style="stroke:#038048;stroke-width:1;"/></g><text fill="#000000" font-family="sans-serif" font-size="30" lengthAdjust="spacing" textLength="405.2197" x="206.69" y="699.8926">computationBase : string [0..1]</text></g><!--class Dataset--><g class="entity" data-qualified-name="Dataset" data-source-line="25" id="ent0003"><rect fill="#EEEEEE" height="47.7344" rx="2.5" ry="2.5" style="stroke:#404040;stroke-width:0.5;" width="109.3887" x="264.69" y="45.6094"/><text fill="#000000" font-family="sans-serif" font-size="30" lengthAdjust="spacing" textLength="103.3887" x="267.69" y="81.752">Dataset</text></g><!--class InstanceVariable--><g class="entity" data-qualified-name="InstanceVariable" data-source-line="27" id="ent0005"><rect fill="#EEEEEE" height="47.7344" rx="2.5" ry="2.5" style="stroke:#404040;stroke-width:0.5;" width="229.4766" x="29.69" y="1030.1094"/><text fill="#000000" font-family="sans-serif" font-size="30" lengthAdjust="spacing" textLength="223.4766" x="32.69" y="1066.252">InstanceVariable</text></g><!--class CategoryStatistics--><g class="entity" data-qualified-name="CategoryStatistics" data-source-line="30" id="ent0008"><rect fill="#EEEEEE" height="47.7344" rx="2.5" ry="2.5" style="stroke:#404040;stroke-width:0.5;" width="247.7578" x="339.19" y="1030.1094"/><text fill="#000000" font-family="sans-serif" font-size="30" lengthAdjust="spacing" textLength="241.7578" x="342.19" y="1066.252">CategoryStatistics</text></g><!--class StatisticsCollection--><g class="entity" data-qualified-name="StatisticsCollection" data-source-line="34" id="ent0012"><rect fill="#EEEEEE" height="47.7344" rx="2.5" ry="2.5" style="stroke:#404040;stroke-width:0.5;" width="257.7627" x="394.19" y="45.6094"/><text fill="#000000" font-family="sans-serif" font-size="30" lengthAdjust="spacing" textLength="251.7627" x="397.19" y="81.752">StatisticsCollection</text></g><!--class XsdAnyUri--><g class="entity" data-qualified-name="XsdAnyUri" data-source-line="36" id="ent0014"><rect fill="#FAE5D3" height="93.0156" rx="2.5" ry="2.5" style="stroke:#404040;stroke-width:0.5;" width="192.1426" x="675.19" y="1007.6094"/><text fill="#000000" font-family="sans-serif" font-size="36" font-style="italic" lengthAdjust="spacing" textLength="190.1426" x="676.19" y="1049.9805">&#171;dataType&#187;</text><text fill="#000000" font-family="sans-serif" font-size="30" lengthAdjust="spacing" textLength="141.709" x="700.4068" y="1089.0332">XsdAnyUri</text></g><!--reverse link Dataset to Statistics--><g class="link" data-entity-1="ent0003" data-entity-2="ent0002" data-link-type="composition" data-source-line="26" id="lnk4"><path codeLine="26" d="M325.9452,105.5398 C333.0352,142.0898 345.12,203.6194 358.19,265.6094 C366.74,306.1294 376.27,349.8294 385.28,390.5194" fill="none" id="Dataset-backto-Statistics" style="stroke:#404040;stroke-width:1.2;"/><polygon fill="#404040" points="323.66,93.7594,320.8758,100.4113,325.9452,105.5398,328.7294,98.8879,323.66,93.7594" style="stroke:#404040;stroke-width:1.2;"/><text fill="#000000" font-family="sans-serif" font-size="36" lengthAdjust="spacing" textLength="138.0234" x="359.19" y="256.9805">statistics</text><text fill="#000000" font-family="sans-serif" font-size="36" lengthAdjust="spacing" textLength="54.0352" x="328.4259" y="374.6261">0..*</text></g><!--link Statistics to InstanceVariable--><g class="link" data-entity-1="ent0002" data-entity-2="ent0005" data-link-type="dependency" data-source-line="28" id="lnk6"><path codeLine="28" d="M179.54,679.8094 C124.06,721.6094 72.27,773.5694 41.19,835.6094 C6,905.8394 73.7613,986.0233 114.5113,1025.8933" fill="none" id="Statistics-to-InstanceVariable" style="stroke:#404040;stroke-width:1.2;"/><polygon fill="#404040" points="118.8,1030.0894,115.1643,1020.9361,115.2261,1026.5926,109.5696,1026.6544,118.8,1030.0894" style="stroke:#404040;stroke-width:1.2;"/><text fill="#000000" font-family="sans-serif" font-size="36" lengthAdjust="spacing" textLength="156.0938" x="42.19" y="873.9805">appliesTo</text><text fill="#000000" font-family="sans-serif" font-size="36" lengthAdjust="spacing" textLength="54.0352" x="55.4287" y="1014.2228">0..*</text></g><!--link Statistics to InstanceVariable--><g class="link" data-entity-1="ent0002" data-entity-2="ent0005" data-link-type="dependency" data-source-line="29" id="lnk7"><path codeLine="29" d="M312.95,710.7794 C287.49,750.7894 261.34,794.1594 239.19,835.6094 C202.58,904.1094 170.5315,984.0584 155.0315,1024.4084" fill="none" id="Statistics-to-InstanceVariable-1" style="stroke:#404040;stroke-width:1.2;"/><polygon fill="#404040" points="152.88,1030.0094,159.8413,1023.0423,154.673,1025.3419,152.3733,1020.1736,152.88,1030.0094" style="stroke:#404040;stroke-width:1.2;"/><text fill="#000000" font-family="sans-serif" font-size="36" lengthAdjust="spacing" textLength="170.0859" x="240.19" y="873.9805">hasWeight</text><text fill="#000000" font-family="sans-serif" font-size="36" lengthAdjust="spacing" textLength="60.0469" x="159.7334" y="1014.1285">0..1</text></g><!--reverse link Statistics to CategoryStatistics--><g class="link" data-entity-1="ent0002" data-entity-2="ent0008" data-link-type="composition" data-source-line="31" id="lnk9"><path codeLine="31" d="M413.2961,722.7586 C412.6861,777.4086 414.42,826.8494 421.19,882.6094 C427.71,936.3294 445.38,997.5194 455.6,1029.9994" fill="none" id="Statistics-backto-CategoryStatistics" style="stroke:#404040;stroke-width:1.2;"/><polygon fill="#404040" points="413.43,710.7594,409.3633,716.7144,413.2961,722.7586,417.3628,716.8036,413.43,710.7594" style="stroke:#404040;stroke-width:1.2;"/><text fill="#000000" font-family="sans-serif" font-size="36" lengthAdjust="spacing" textLength="58.043" x="422.19" y="873.9805">has</text><text fill="#000000" font-family="sans-serif" font-size="36" lengthAdjust="spacing" textLength="54.0352" x="395.4634" y="1014.1168">0..*</text></g><!--reverse link CategoryStatistics to Statistics--><g class="link" data-entity-1="ent0008" data-entity-2="ent0002" data-link-type="composition" data-source-line="33" id="lnk11"><path codeLine="33" d="M468.2682,1018.1273 C472.8882,985.4173 479.25,935.5394 482.19,882.6094 C485.33,826.1594 477.38,765.1094 466.28,710.9794" fill="none" id="CategoryStatistics-backto-Statistics" style="stroke:#404040;stroke-width:1.2;"/><polygon fill="#404040" points="466.59,1030.0094,471.3898,1024.6278,468.2682,1018.1273,463.4684,1023.5089,466.59,1030.0094" style="stroke:#404040;stroke-width:1.2;"/><text fill="#000000" font-family="sans-serif" font-size="36" lengthAdjust="spacing" textLength="238.0957" x="483.19" y="873.9805">isComposedOf</text><text fill="#000000" font-family="sans-serif" font-size="36" lengthAdjust="spacing" textLength="54.0352" x="413.0399" y="756.0739">1..*</text></g><!--reverse link Statistics to Statistics--><g class="link" data-entity-1="ent0002" data-entity-2="ent0002" data-link-type="composition" data-source-line="32" id="lnk10"><path codeLine="32" d="M672.5454,520.1556 C684.9554,529.4756 682.69,534.8194 682.69,550.6094 C682.69,566.3994 675.36,578.9494 662.95,588.2694" fill="none" id="Statistics-backto-Statistics" style="stroke:#404040;stroke-width:1.2;"/><polygon fill="#404040" points="662.95,512.9494,665.3456,519.7509,672.5454,520.1556,670.1497,513.354,662.95,512.9494" style="stroke:#404040;stroke-width:1.2;"/><text fill="#000000" font-family="sans-serif" font-size="36" lengthAdjust="spacing" textLength="58.043" x="688.69" y="565.4805">has</text><text fill="#000000" font-family="sans-serif" font-size="36" lengthAdjust="spacing" textLength="54.0352" x="670.9265" y="627.4325">0..*</text></g><!--reverse link StatisticsCollection to Statistics--><g class="link" data-entity-1="ent0012" data-entity-2="ent0002" data-link-type="composition" data-source-line="35" id="lnk13"><path codeLine="35" d="M520.4437,105.8588 C517.4137,142.5988 511.33,204.2094 499.19,265.6094 C491.13,306.3594 480.33,349.8594 469.34,390.2494" fill="none" id="StatisticsCollection-backto-Statistics" style="stroke:#404040;stroke-width:1.2;"/><polygon fill="#404040" points="521.43,93.8994,516.9504,99.5503,520.4437,105.8588,524.9233,100.2078,521.43,93.8994" style="stroke:#404040;stroke-width:1.2;"/><text fill="#000000" font-family="sans-serif" font-size="36" lengthAdjust="spacing" textLength="238.0957" x="507.19" y="256.9805">isComposedOf</text><text fill="#000000" font-family="sans-serif" font-size="36" lengthAdjust="spacing" textLength="54.0352" x="416.229" y="374.9146">1..*</text></g><!--link Statistics to XsdAnyUri--><g class="link" data-entity-1="ent0002" data-entity-2="ent0014" data-link-type="dependency" data-source-line="37" id="lnk15"><path codeLine="37" d="M629.02,710.6994 C666.53,748.0094 701.75,790.2494 727.19,835.6094 C757.44,889.5394 766.6639,955.3518 769.6339,1001.4118" fill="none" id="Statistics-to-XsdAnyUri" style="stroke:#404040;stroke-width:1.2;stroke-dasharray:7,7;"/><polygon fill="#404040" points="770.02,1007.3994,773.4326,998.1606,769.6983,1002.4097,765.4492,998.6754,770.02,1007.3994" style="stroke:#404040;stroke-width:1.2;"/><text fill="#000000" font-family="sans-serif" font-size="36" lengthAdjust="spacing" textLength="136.0723" x="747.19" y="873.9805">identifier</text></g><?plantuml-src bLF1Rk8m4BtdAooujIA2Thk7gaAYD4XxsHxATbTQzJ0u4pB2iIFRKKMh_did0H8lIGyRBk6zDsycpsDFNg5uyk39UP8koYb58SbAXOTtB4g_5mKM6xGkSZlI9LWeXCiXDQ-ajo83vJ1W5jQQrtLESgVHEJ6BhmBIWjuvBCNLpJH0jKcnGKCmnGmgvLT6-oTwGt7zFI2b0lP-ZyIXtT8eOyNusxJ-CNXlR8hs70sjkD1xIvlAOmTFeuyeEbYFkb160boGaHYlabMoJ9hkbvoHzfGHMd4h_hXqeVU_B8c_qpYUlTG2lo_nCMlBMUMuB-VMIPm4FeK1ub3xiohGadm6LGsg9C_FGmnHv7uZRNEFARCROnI2_gUoAAjwCgFlmVNDFqvXF81dtZT97D_5E6cUwFJ_OZ8H8wwx68LXrPRjTXtTVcZ6jCHdi0GRXOtjETZw1sQJoVpKeYU_5L2MYj2jpL39RB0aXsD0fz6Mu75hxFxizFlmq7X10WC5JRSlv3tPG7qZd_Nbv9PyZCPX-fZrbvVlW49Pd_3P6dV4mAS4vF-qRVU_wTNTXhkxb9TapTiyd_FrMIGt3zTX4d4y3zJitLwgw1C0?></g></svg>