<svg xmlns="http://www.w3.org/2000/svg" xmlns:xlink="http://www.w3.org/1999/xlink" contentStyleType="text/css" data-diagram-type="CLASS" height="492px" preserveAspectRatio="none" style="width:3393px;height:492px;background:#FFFFFF;" version="1.1" viewBox="0 0 3393 492" width="3393px" zoomAndPan="magnify"><?plantuml 1.2026.3?><defs/><g><g class="title" data-source-line="1"><text fill="#000000" font-family="sans-serif" font-size="14" font-weight="700" lengthAdjust="spacing" textLength="50.5791" x="1668.1509" y="24.5332">Dataset</text></g><!--class Dataset--><g class="entity" data-qualified-name="Dataset" data-source-line="12" id="ent0002"><rect fill="#FEFECE" height="314.8438" rx="2.5" ry="2.5" style="stroke:#404040;stroke-width:0.5;" width="302.2402" x="1578" y="45.6094"/><text fill="#000000" font-family="sans-serif" font-size="12" lengthAdjust="spacing" textLength="41.3555" x="1708.4424" y="63.0664">Dataset</text><line style="stroke:#404040;stroke-width:0.5;" x1="1579" x2="1879.2402" y1="70.7031" y2="70.7031"/><g data-visibility-modifier="PUBLIC_FIELD"><ellipse cx="1589" cy="85.0078" fill="none" rx="3" ry="3" style="stroke:#038048;stroke-width:1;"/></g><text fill="#000000" font-family="sans-serif" font-size="14" lengthAdjust="spacing" textLength="276.2402" x="1598" y="89.2363">measurementTechnique : DefinedTerm [0..*]</text><g data-visibility-modifier="PUBLIC_FIELD"><ellipse cx="1589" cy="102.6172" fill="none" rx="3" ry="3" style="stroke:#038048;stroke-width:1;"/></g><text fill="#000000" font-family="sans-serif" font-size="14" lengthAdjust="spacing" textLength="137.7373" x="1598" y="106.8457">identifier : Identifier [1]</text><g data-visibility-modifier="PUBLIC_FIELD"><ellipse cx="1589" cy="120.2266" fill="none" rx="3" ry="3" style="stroke:#038048;stroke-width:1;"/></g><text fill="#000000" font-family="sans-serif" font-size="14" lengthAdjust="spacing" textLength="100.3789" x="1598" y="124.4551">name : string [1]</text><g data-visibility-modifier="PUBLIC_FIELD"><ellipse cx="1589" cy="137.8359" fill="none" rx="3" ry="3" style="stroke:#038048;stroke-width:1;"/></g><text fill="#000000" font-family="sans-serif" font-size="14" lengthAdjust="spacing" textLength="148.627" x="1598" y="142.0645">description : string [0..1]</text><g data-visibility-modifier="PUBLIC_FIELD"><ellipse cx="1589" cy="155.4453" fill="none" rx="3" ry="3" style="stroke:#038048;stroke-width:1;"/></g><text fill="#000000" font-family="sans-serif" font-size="14" lengthAdjust="spacing" textLength="216.3301" x="1598" y="159.6738">additionalType : DefinedTerm [0..*]</text><g data-visibility-modifier="PUBLIC_FIELD"><ellipse cx="1589" cy="173.0547" fill="none" rx="3" ry="3" style="stroke:#038048;stroke-width:1;"/></g><text fill="#000000" font-family="sans-serif" font-size="14" lengthAdjust="spacing" textLength="148.6201" x="1598" y="177.2832">sameAs : Identifier [0..*]</text><g data-visibility-modifier="PUBLIC_FIELD"><ellipse cx="1589" cy="190.6641" fill="none" rx="3" ry="3" style="stroke:#038048;stroke-width:1;"/></g><text fill="#000000" font-family="sans-serif" font-size="14" lengthAdjust="spacing" textLength="126.0547" x="1598" y="194.8926">version : string [0..1]</text><g data-visibility-modifier="PUBLIC_FIELD"><ellipse cx="1589" cy="208.2734" fill="none" rx="3" ry="3" style="stroke:#038048;stroke-width:1;"/></g><text fill="#000000" font-family="sans-serif" font-size="14" lengthAdjust="spacing" textLength="206.2881" x="1598" y="212.502">inLanguage : XsdLanguage [0..1]</text><g data-visibility-modifier="PUBLIC_FIELD"><ellipse cx="1589" cy="225.8828" fill="none" rx="3" ry="3" style="stroke:#038048;stroke-width:1;"/></g><text fill="#000000" font-family="sans-serif" font-size="14" lengthAdjust="spacing" textLength="164.9854" x="1598" y="230.1113">dateModified : XsdDate [1]</text><g data-visibility-modifier="PUBLIC_FIELD"><ellipse cx="1589" cy="243.4922" fill="none" rx="3" ry="3" style="stroke:#038048;stroke-width:1;"/></g><text fill="#000000" font-family="sans-serif" font-size="14" lengthAdjust="spacing" textLength="189.123" x="1598" y="247.7207">datePublished : XsdDate [0..1]</text><g data-visibility-modifier="PUBLIC_FIELD"><ellipse cx="1589" cy="261.1016" fill="none" rx="3" ry="3" style="stroke:#038048;stroke-width:1;"/></g><text fill="#000000" font-family="sans-serif" font-size="14" lengthAdjust="spacing" textLength="128.3789" x="1598" y="265.3301">url : XsdAnyUri [0..1]</text><g data-visibility-modifier="PUBLIC_FIELD"><ellipse cx="1589" cy="278.7109" fill="none" rx="3" ry="3" style="stroke:#038048;stroke-width:1;"/></g><text fill="#000000" font-family="sans-serif" font-size="14" lengthAdjust="spacing" textLength="152.5234" x="1598" y="282.9395">license : Reference [0..*]</text><g data-visibility-modifier="PUBLIC_FIELD"><ellipse cx="1589" cy="296.3203" fill="none" rx="3" ry="3" style="stroke:#038048;stroke-width:1;"/></g><text fill="#000000" font-family="sans-serif" font-size="14" lengthAdjust="spacing" textLength="231.8887" x="1598" y="300.5488">conditionsOfAccess : Reference [0..*]</text><g data-visibility-modifier="PUBLIC_FIELD"><ellipse cx="1589" cy="313.9297" fill="none" rx="3" ry="3" style="stroke:#038048;stroke-width:1;"/></g><text fill="#000000" font-family="sans-serif" font-size="14" lengthAdjust="spacing" textLength="232.6816" x="1598" y="318.1582">publishingPrinciples : Reference [0..*]</text><g data-visibility-modifier="PUBLIC_FIELD"><ellipse cx="1589" cy="331.5391" fill="none" rx="3" ry="3" style="stroke:#038048;stroke-width:1;"/></g><text fill="#000000" font-family="sans-serif" font-size="14" lengthAdjust="spacing" textLength="184.3994" x="1598" y="335.7676">keywords : DefinedTerm [0..*]</text><g data-visibility-modifier="PUBLIC_FIELD"><ellipse cx="1589" cy="349.1484" fill="none" rx="3" ry="3" style="stroke:#038048;stroke-width:1;"/></g><text fill="#000000" font-family="sans-serif" font-size="14" lengthAdjust="spacing" textLength="177.4336" x="1598" y="353.377">relatedLink : Reference [0..*]</text></g><!--class AbstractVariable--><g class="entity" data-qualified-name="AbstractVariable" data-source-line="30" id="ent0003"><rect fill="#EEEEEE" height="25.0938" rx="2.5" ry="2.5" style="stroke:#404040;stroke-width:0.5;" width="94.043" x="7" y="446.1094"/><text fill="#000000" font-family="sans-serif" font-size="12" font-style="italic" lengthAdjust="spacing" textLength="88.043" x="10" y="463.5664">AbstractVariable</text></g><!--class PrimaryKey--><g class="entity" data-qualified-name="PrimaryKey" data-source-line="32" id="ent0005"><rect fill="#EEEEEE" height="25.0938" rx="2.5" ry="2.5" style="stroke:#404040;stroke-width:0.5;" width="68.0098" x="165" y="446.1094"/><text fill="#000000" font-family="sans-serif" font-size="12" lengthAdjust="spacing" textLength="62.0098" x="168" y="463.5664">PrimaryKey</text></g><!--class Statistics--><g class="entity" data-qualified-name="Statistics" data-source-line="34" id="ent0007"><rect fill="#EEEEEE" height="25.0938" rx="2.5" ry="2.5" style="stroke:#404040;stroke-width:0.5;" width="54.0117" x="287" y="446.1094"/><text fill="#000000" font-family="sans-serif" font-size="12" lengthAdjust="spacing" textLength="48.0117" x="290" y="463.5664">Statistics</text></g><!--class StatisticsCollection--><g class="entity" data-qualified-name="StatisticsCollection" data-source-line="36" id="ent0009"><rect fill="#EEEEEE" height="25.0938" rx="2.5" ry="2.5" style="stroke:#404040;stroke-width:0.5;" width="106.7051" x="376.5" y="446.1094"/><text fill="#000000" font-family="sans-serif" font-size="12" lengthAdjust="spacing" textLength="100.7051" x="379.5" y="463.5664">StatisticsCollection</text></g><!--class SpatialExtent--><g class="entity" data-qualified-name="SpatialExtent" data-source-line="38" id="ent0011"><rect fill="#EEEEEE" height="25.0938" rx="2.5" ry="2.5" style="stroke:#404040;stroke-width:0.5;" width="76.7109" x="529.5" y="446.1094"/><text fill="#000000" font-family="sans-serif" font-size="12" lengthAdjust="spacing" textLength="70.7109" x="532.5" y="463.5664">SpatialExtent</text></g><!--class TemporalExtent--><g class="entity" data-qualified-name="TemporalExtent" data-source-line="40" id="ent0013"><rect fill="#EEEEEE" height="25.0938" rx="2.5" ry="2.5" style="stroke:#404040;stroke-width:0.5;" width="90.7031" x="657.5" y="446.1094"/><text fill="#000000" font-family="sans-serif" font-size="12" lengthAdjust="spacing" textLength="84.7031" x="660.5" y="463.5664">TemporalExtent</text></g><!--class QualityMeasurement--><g class="entity" data-qualified-name="QualityMeasurement" data-source-line="42" id="ent0015"><rect fill="#EEEEEE" height="25.0938" rx="2.5" ry="2.5" style="stroke:#404040;stroke-width:0.5;" width="116.7129" x="792.5" y="446.1094"/><text fill="#000000" font-family="sans-serif" font-size="12" lengthAdjust="spacing" textLength="110.7129" x="795.5" y="463.5664">QualityMeasurement</text></g><!--class Agent--><g class="entity" data-qualified-name="Agent" data-source-line="44" id="ent0017"><rect fill="#EEEEEE" height="25.0938" rx="2.5" ry="2.5" style="stroke:#404040;stroke-width:0.5;" width="37.3594" x="1102.5" y="446.1094"/><text fill="#000000" font-family="sans-serif" font-size="12" font-style="italic" lengthAdjust="spacing" textLength="31.3594" x="1105.5" y="463.5664">Agent</text></g><!--class AbstractDistribution--><g class="entity" data-qualified-name="AbstractDistribution" data-source-line="46" id="ent0019"><rect fill="#EEEEEE" height="25.0938" rx="2.5" ry="2.5" style="stroke:#404040;stroke-width:0.5;" width="110.0391" x="1217" y="446.1094"/><text fill="#000000" font-family="sans-serif" font-size="12" font-style="italic" lengthAdjust="spacing" textLength="104.0391" x="1220" y="463.5664">AbstractDistribution</text></g><!--class Contributor--><g class="entity" data-qualified-name="Contributor" data-source-line="49" id="ent0022"><rect fill="#EEEEEE" height="25.0938" rx="2.5" ry="2.5" style="stroke:#404040;stroke-width:0.5;" width="65.3613" x="1362.5" y="446.1094"/><text fill="#000000" font-family="sans-serif" font-size="12" lengthAdjust="spacing" textLength="59.3613" x="1365.5" y="463.5664">Contributor</text></g><!--class MonetaryGrant--><g class="entity" data-qualified-name="MonetaryGrant" data-source-line="52" id="ent0025"><rect fill="#EEEEEE" height="25.0938" rx="2.5" ry="2.5" style="stroke:#404040;stroke-width:0.5;" width="86.0332" x="1463" y="446.1094"/><text fill="#000000" font-family="sans-serif" font-size="12" lengthAdjust="spacing" textLength="80.0332" x="1466" y="463.5664">MonetaryGrant</text></g><!--class ProvActivity--><g class="entity" data-qualified-name="ProvActivity" data-source-line="54" id="ent0027"><rect fill="#EEEEEE" height="25.0938" rx="2.5" ry="2.5" style="stroke:#404040;stroke-width:0.5;" width="68.6777" x="1584.5" y="446.1094"/><text fill="#000000" font-family="sans-serif" font-size="12" lengthAdjust="spacing" textLength="62.6777" x="1587.5" y="463.5664">ProvActivity</text></g><!--class DerivedFrom--><g class="entity" data-qualified-name="DerivedFrom" data-source-line="56" id="ent0029"><rect fill="#EEEEEE" height="25.0938" rx="2.5" ry="2.5" style="stroke:#404040;stroke-width:0.5;" width="75.3457" x="1691.5" y="446.1094"/><text fill="#000000" font-family="sans-serif" font-size="12" lengthAdjust="spacing" textLength="69.3457" x="1694.5" y="463.5664">DerivedFrom</text></g><!--class CatalogRecord--><g class="entity" data-qualified-name="CatalogRecord" data-source-line="58" id="ent0031"><rect fill="#EEEEEE" height="25.0938" rx="2.5" ry="2.5" style="stroke:#404040;stroke-width:0.5;" width="86.0449" x="1874" y="446.1094"/><text fill="#000000" font-family="sans-serif" font-size="12" lengthAdjust="spacing" textLength="80.0449" x="1877" y="463.5664">CatalogRecord</text></g><!--class DefinedTerm--><g class="entity" data-qualified-name="DefinedTerm" data-source-line="60" id="ent0033"><rect fill="#EEEEEE" height="25.0938" rx="2.5" ry="2.5" style="stroke:#404040;stroke-width:0.5;" width="75.3574" x="2097.5" y="446.1094"/><text fill="#000000" font-family="sans-serif" font-size="12" lengthAdjust="spacing" textLength="69.3574" x="2100.5" y="463.5664">DefinedTerm</text></g><!--class Reference--><g class="entity" data-qualified-name="Reference" data-source-line="62" id="ent0035"><rect fill="#EEEEEE" height="25.0938" rx="2.5" ry="2.5" style="stroke:#404040;stroke-width:0.5;" width="61.3652" x="2572.5" y="446.1094"/><text fill="#000000" font-family="sans-serif" font-size="12" lengthAdjust="spacing" textLength="55.3652" x="2575.5" y="463.5664">Reference</text></g><!--class Identifier--><g class="entity" data-qualified-name="Identifier" data-source-line="66" id="ent0039"><rect fill="#EEEEEE" height="25.0938" rx="2.5" ry="2.5" style="stroke:#404040;stroke-width:0.5;" width="52.0254" x="2955" y="446.1094"/><text fill="#000000" font-family="sans-serif" font-size="12" lengthAdjust="spacing" textLength="46.0254" x="2958" y="463.5664">Identifier</text></g><!--class XsdLanguage--><g class="entity" data-qualified-name="XsdLanguage" data-source-line="70" id="ent0043"><rect fill="#FAE5D3" height="40.1875" rx="2.5" ry="2.5" style="stroke:#404040;stroke-width:0.5;" width="80.0684" x="3081" y="438.6094"/><text fill="#000000" font-family="sans-serif" font-size="12" font-style="italic" lengthAdjust="spacing" textLength="63.3809" x="3089.3438" y="456.0664">&#171;dataType&#187;</text><text fill="#000000" font-family="sans-serif" font-size="12" lengthAdjust="spacing" textLength="74.0684" x="3084" y="471.1602">XsdLanguage</text></g><!--class XsdDate--><g class="entity" data-qualified-name="XsdDate" data-source-line="72" id="ent0045"><rect fill="#FAE5D3" height="40.1875" rx="2.5" ry="2.5" style="stroke:#404040;stroke-width:0.5;" width="65.3809" x="3197.5" y="438.6094"/><text fill="#000000" font-family="sans-serif" font-size="12" font-style="italic" lengthAdjust="spacing" textLength="63.3809" x="3198.5" y="456.0664">&#171;dataType&#187;</text><text fill="#000000" font-family="sans-serif" font-size="12" lengthAdjust="spacing" textLength="46.0254" x="3207.1777" y="471.1602">XsdDate</text></g><!--class XsdAnyUri--><g class="entity" data-qualified-name="XsdAnyUri" data-source-line="74" id="ent0047"><rect fill="#FAE5D3" height="40.1875" rx="2.5" ry="2.5" style="stroke:#404040;stroke-width:0.5;" width="65.3809" x="3313.5" y="438.6094"/><text fill="#000000" font-family="sans-serif" font-size="12" font-style="italic" lengthAdjust="spacing" textLength="63.3809" x="3314.5" y="456.0664">&#171;dataType&#187;</text><text fill="#000000" font-family="sans-serif" font-size="12" lengthAdjust="spacing" textLength="56.6836" x="3317.8486" y="471.1602">XsdAnyUri</text></g><!--link Dataset to AbstractVariable--><g class="link" data-entity-1="ent0002" data-entity-2="ent0003" data-link-type="dependency" data-source-line="31" id="lnk4"><path codeLine="31" d="M1577.81,210.8894 C1231.94,228.1394 393.06,280.3494 135,390.6094 C105.3,403.2994 81.9726,426.0176 67.9126,441.5776" fill="none" id="Dataset-to-AbstractVariable" style="stroke:#404040;stroke-width:1.2;"/><polygon fill="#404040" points="63.89,446.0294,72.8918,442.0334,67.2422,442.3196,66.9561,436.6699,63.89,446.0294" style="stroke:#404040;stroke-width:1.2;"/><text fill="#000000" font-family="sans-serif" font-size="13" lengthAdjust="spacing" textLength="103.3335" x="136" y="405.1045">variableMeasured</text><text fill="#000000" font-family="sans-serif" font-size="13" lengthAdjust="spacing" textLength="19.5127" x="45.1478" y="435.0884">1..*</text></g><!--link Dataset to PrimaryKey--><g class="link" data-entity-1="ent0002" data-entity-2="ent0005" data-link-type="dependency" data-source-line="33" id="lnk6"><path codeLine="33" d="M1577.79,212.4094 C1254.45,231.9494 506.51,287.1594 276,390.6094 C247.38,403.4494 225.4238,426.0045 212.1938,441.5145" fill="none" id="Dataset-to-PrimaryKey" style="stroke:#404040;stroke-width:1.2;"/><polygon fill="#404040" points="208.3,446.0794,217.184,441.8279,211.5449,442.2753,211.0975,436.6362,208.3,446.0794" style="stroke:#404040;stroke-width:1.2;"/><text fill="#000000" font-family="sans-serif" font-size="13" lengthAdjust="spacing" textLength="88.1372" x="277" y="405.1045">hasPrimaryKey</text><text fill="#000000" font-family="sans-serif" font-size="13" lengthAdjust="spacing" textLength="21.6836" x="186.944" y="435.159">0..1</text></g><!--link Dataset to Statistics--><g class="link" data-entity-1="ent0002" data-entity-2="ent0007" data-link-type="dependency" data-source-line="35" id="lnk8"><path codeLine="35" d="M1577.9,216.2494 C1277.77,241.8594 617.29,306.0694 407,390.6094 C374.5,403.6694 347.1305,426.3607 330.4505,441.8207" fill="none" id="Dataset-to-Statistics" style="stroke:#404040;stroke-width:1.2;"/><polygon fill="#404040" points="326.05,445.8994,335.3699,442.7151,329.7171,442.5005,329.9317,436.8477,326.05,445.8994" style="stroke:#404040;stroke-width:1.2;"/><text fill="#000000" font-family="sans-serif" font-size="13" lengthAdjust="spacing" textLength="49.8418" x="408" y="405.1045">statistics</text><text fill="#000000" font-family="sans-serif" font-size="13" lengthAdjust="spacing" textLength="19.5127" x="308.1527" y="435.2907">0..*</text></g><!--link Dataset to StatisticsCollection--><g class="link" data-entity-1="ent0002" data-entity-2="ent0009" data-link-type="dependency" data-source-line="37" id="lnk10"><path codeLine="37" d="M1577.82,213.9094 C1289.73,234.6594 674.23,289.6494 489,390.6094 C465.05,403.6694 449.2741,425.323 439.8041,440.783" fill="none" id="Dataset-to-StatisticsCollection" style="stroke:#404040;stroke-width:1.2;"/><polygon fill="#404040" points="436.67,445.8994,444.782,440.3141,439.2817,441.6357,437.9601,436.1354,436.67,445.8994" style="stroke:#404040;stroke-width:1.2;"/><text fill="#000000" font-family="sans-serif" font-size="13" lengthAdjust="spacing" textLength="106.9263" x="490" y="405.1045">statisticsCollection</text><text fill="#000000" font-family="sans-serif" font-size="13" lengthAdjust="spacing" textLength="19.5127" x="416.7147" y="435.2907">0..*</text></g><!--link Dataset to SpatialExtent--><g class="link" data-entity-1="ent0002" data-entity-2="ent0011" data-link-type="dependency" data-source-line="39" id="lnk12"><path codeLine="39" d="M1577.84,217.1394 C1315.32,241.8194 787.77,301.0494 627,390.6094 C603.17,403.8794 587.3764,425.4667 577.8564,440.8567" fill="none" id="Dataset-to-SpatialExtent" style="stroke:#404040;stroke-width:1.2;"/><polygon fill="#404040" points="574.7,445.9594,582.8364,440.4097,577.3303,441.7072,576.0329,436.2011,574.7,445.9594" style="stroke:#404040;stroke-width:1.2;"/><text fill="#000000" font-family="sans-serif" font-size="13" lengthAdjust="spacing" textLength="93.9453" x="628" y="405.1045">spatialCoverage</text><text fill="#000000" font-family="sans-serif" font-size="13" lengthAdjust="spacing" textLength="19.5127" x="554.7553" y="435.3743">0..*</text></g><!--link Dataset to TemporalExtent--><g class="link" data-entity-1="ent0002" data-entity-2="ent0013" data-link-type="dependency" data-source-line="41" id="lnk14"><path codeLine="41" d="M1577.79,218.5394 C1337.6,243.8094 882.27,301.9494 748,390.6094 C727.42,404.1994 716.2064,425.243 709.7464,440.523" fill="none" id="Dataset-to-TemporalExtent" style="stroke:#404040;stroke-width:1.2;"/><polygon fill="#404040" points="707.41,446.0494,714.5989,439.3174,709.357,441.444,707.2304,436.2022,707.41,446.0494" style="stroke:#404040;stroke-width:1.2;"/><text fill="#000000" font-family="sans-serif" font-size="13" lengthAdjust="spacing" textLength="106.9453" x="749" y="405.1045">temporalCoverage</text><text fill="#000000" font-family="sans-serif" font-size="13" lengthAdjust="spacing" textLength="19.5127" x="686.4773" y="435.1167">0..*</text></g><!--link Dataset to QualityMeasurement--><g class="link" data-entity-1="ent0002" data-entity-2="ent0015" data-link-type="dependency" data-source-line="43" id="lnk16"><path codeLine="43" d="M1577.6,219.7594 C1361.55,244.9394 979.42,300.9094 876,390.6094 C859.59,404.8494 854.6917,424.9779 852.7617,440.0579" fill="none" id="Dataset-to-QualityMeasurement" style="stroke:#404040;stroke-width:1.2;"/><polygon fill="#404040" points="852,446.0094,857.1102,437.59,852.6347,441.0498,849.1749,436.5744,852,446.0094" style="stroke:#404040;stroke-width:1.2;"/><text fill="#000000" font-family="sans-serif" font-size="13" lengthAdjust="spacing" textLength="140.8989" x="877" y="405.1045">hasQualityMeasurement</text><text fill="#000000" font-family="sans-serif" font-size="13" lengthAdjust="spacing" textLength="19.5127" x="829.6587" y="435.0602">0..*</text></g><!--link Dataset to Agent--><g class="link" data-entity-1="ent0002" data-entity-2="ent0017" data-link-type="dependency" data-source-line="45" id="lnk18"><path codeLine="45" d="M1577.89,222.9294 C1392.99,249.4094 1096.28,304.3294 1030,390.6094 C1007.05,420.4794 1063.9477,441.5571 1096.7177,451.0671" fill="none" id="Dataset-to-Agent" style="stroke:#404040;stroke-width:1.2;"/><polygon fill="#404040" points="1102.48,452.7394,1094.9514,446.3895,1097.6781,451.3458,1092.7218,454.0725,1102.48,452.7394" style="stroke:#404040;stroke-width:1.2;"/><text fill="#000000" font-family="sans-serif" font-size="13" lengthAdjust="spacing" textLength="46.9663" x="1031" y="405.1045">provider</text><text fill="#000000" font-family="sans-serif" font-size="13" lengthAdjust="spacing" textLength="19.5127" x="1074.9224" y="446.0263">0..*</text></g><!--link Dataset to Agent--><g class="link" data-entity-1="ent0002" data-entity-2="ent0017" data-link-type="dependency" data-source-line="48" id="lnk21"><path codeLine="48" d="M1577.69,229.2794 C1415.23,259.7494 1172.98,316.3494 1118,390.6094 C1106.08,406.7094 1109.6209,425.7312 1114.4809,440.2112" fill="none" id="Dataset-to-Agent-1" style="stroke:#404040;stroke-width:1.2;"/><polygon fill="#404040" points="1116.39,445.8994,1117.3184,436.0944,1114.799,441.1592,1109.7342,438.6399,1116.39,445.8994" style="stroke:#404040;stroke-width:1.2;"/><text fill="#000000" font-family="sans-serif" font-size="13" lengthAdjust="spacing" textLength="40.46" x="1119" y="405.1045">creator</text><text fill="#000000" font-family="sans-serif" font-size="13" lengthAdjust="spacing" textLength="19.5127" x="1118.3456" y="435.2907">0..*</text></g><!--link Dataset to Agent--><g class="link" data-entity-1="ent0002" data-entity-2="ent0017" data-link-type="dependency" data-source-line="51" id="lnk24"><path codeLine="51" d="M1577.93,267.0994 C1426,330.4494 1210.6979,420.2104 1145.3879,447.4404" fill="none" id="Dataset-to-Agent-2" style="stroke:#404040;stroke-width:1.2;"/><polygon fill="#404040" points="1139.85,449.7494,1149.6962,449.9779,1144.4649,447.8252,1146.6176,442.594,1139.85,449.7494" style="stroke:#404040;stroke-width:1.2;"/><text fill="#000000" font-family="sans-serif" font-size="13" lengthAdjust="spacing" textLength="52.7554" x="1269" y="405.1045">publisher</text><text fill="#000000" font-family="sans-serif" font-size="13" lengthAdjust="spacing" textLength="21.6836" x="1147.7814" y="442.748">0..1</text></g><!--link Dataset to AbstractDistribution--><g class="link" data-entity-1="ent0002" data-entity-2="ent0019" data-link-type="dependency" data-source-line="47" id="lnk20"><path codeLine="47" d="M1577.71,284.9694 C1517.77,317.3694 1448.39,355.3294 1386,390.6094 C1352.43,409.5894 1318.9682,429.4378 1296.3982,442.9478" fill="none" id="Dataset-to-AbstractDistribution" style="stroke:#404040;stroke-width:1.2;"/><polygon fill="#404040" points="1291.25,446.0294,1301.0267,444.8391,1295.5401,443.4614,1296.9179,437.9748,1291.25,446.0294" style="stroke:#404040;stroke-width:1.2;"/><text fill="#000000" font-family="sans-serif" font-size="13" lengthAdjust="spacing" textLength="62.8672" x="1387" y="405.1045">distribution</text><text fill="#000000" font-family="sans-serif" font-size="13" lengthAdjust="spacing" textLength="19.5127" x="1276.3696" y="435.0884">0..*</text></g><!--link Dataset to Contributor--><g class="link" data-entity-1="ent0002" data-entity-2="ent0022" data-link-type="dependency" data-source-line="50" id="lnk23"><path codeLine="50" d="M1577.95,314.8194 C1544.83,339.5194 1510.08,365.7594 1478,390.6094 C1453.4,409.6594 1429.9813,428.7447 1413.5913,442.2447" fill="none" id="Dataset-to-Contributor" style="stroke:#404040;stroke-width:1.2;"/><polygon fill="#404040" points="1408.96,446.0594,1418.45,443.4249,1412.8194,442.8805,1413.3638,437.2499,1408.96,446.0594" style="stroke:#404040;stroke-width:1.2;"/><text fill="#000000" font-family="sans-serif" font-size="13" lengthAdjust="spacing" textLength="61.4199" x="1479" y="405.1045">contributor</text><text fill="#000000" font-family="sans-serif" font-size="13" lengthAdjust="spacing" textLength="19.5127" x="1391.831" y="435.1308">0..*</text></g><!--link Dataset to MonetaryGrant--><g class="link" data-entity-1="ent0002" data-entity-2="ent0025" data-link-type="dependency" data-source-line="53" id="lnk26"><path codeLine="53" d="M1589.04,360.8394 C1580.21,370.8994 1571.47,380.8794 1563,390.6094 C1546.36,409.7294 1531.1936,427.6388 1519.8736,441.0888" fill="none" id="Dataset-to-MonetaryGrant" style="stroke:#404040;stroke-width:1.2;"/><polygon fill="#404040" points="1516.01,445.6794,1524.8657,441.3693,1519.2296,441.8539,1518.745,436.2179,1516.01,445.6794" style="stroke:#404040;stroke-width:1.2;"/><text fill="#000000" font-family="sans-serif" font-size="13" lengthAdjust="spacing" textLength="42.6499" x="1564" y="405.1045">funding</text><text fill="#000000" font-family="sans-serif" font-size="13" lengthAdjust="spacing" textLength="19.5127" x="1497.2958" y="435.2441">0..*</text></g><!--link Dataset to ProvActivity--><g class="link" data-entity-1="ent0002" data-entity-2="ent0027" data-link-type="dependency" data-source-line="55" id="lnk28"><path codeLine="55" d="M1627.23,360.6894 C1623.25,370.5894 1619.77,380.5994 1617,390.6094 C1611.78,409.4494 1613.2539,426.506 1615.5839,440.066" fill="none" id="Dataset-to-ProvActivity" style="stroke:#404040;stroke-width:1.2;"/><polygon fill="#404040" points="1616.6,445.9794,1619.0181,436.432,1615.7533,441.0516,1611.1337,437.7868,1616.6,445.9794" style="stroke:#404040;stroke-width:1.2;"/><text fill="#000000" font-family="sans-serif" font-size="13" lengthAdjust="spacing" textLength="99.7217" x="1618" y="405.1045">wasGeneratedBy</text><text fill="#000000" font-family="sans-serif" font-size="13" lengthAdjust="spacing" textLength="19.5127" x="1592.8635" y="435.0178">0..*</text></g><!--link Dataset to DerivedFrom--><g class="link" data-entity-1="ent0002" data-entity-2="ent0029" data-link-type="dependency" data-source-line="57" id="lnk30"><path codeLine="57" d="M1725.25,360.7094 C1725.3,376.8894 1725.53,393.0794 1726,408.6094 C1726.39,421.3894 1726.9101,430.0255 1727.6401,439.9555" fill="none" id="Dataset-to-DerivedFrom" style="stroke:#404040;stroke-width:1.2;"/><polygon fill="#404040" points="1728.08,445.9394,1731.4094,436.6703,1727.7134,440.9528,1723.4309,437.2569,1728.08,445.9394" style="stroke:#404040;stroke-width:1.2;"/><text fill="#000000" font-family="sans-serif" font-size="13" lengthAdjust="spacing" textLength="98.2427" x="1727" y="405.1045">wasDerivedFrom</text><text fill="#000000" font-family="sans-serif" font-size="13" lengthAdjust="spacing" textLength="19.5127" x="1705.01" y="435.3464">0..*</text></g><!--link Dataset to CatalogRecord--><g class="link" data-entity-1="ent0002" data-entity-2="ent0031" data-link-type="dependency" data-source-line="59" id="lnk32"><path codeLine="59" d="M1828.82,360.7694 C1840.85,377.2994 1853.37,393.5494 1866,408.6094 C1877.52,422.3494 1887.9977,432.372 1898.7277,441.872" fill="none" id="Dataset-to-CatalogRecord" style="stroke:#404040;stroke-width:1.2;"/><polygon fill="#404040" points="1903.22,445.8494,1899.1331,436.8885,1899.4764,442.5349,1893.83,442.8782,1903.22,445.8494" style="stroke:#404040;stroke-width:1.2;"/><text fill="#000000" font-family="sans-serif" font-size="13" lengthAdjust="spacing" textLength="54.9136" x="1867" y="405.1045">subjectOf</text><text fill="#000000" font-family="sans-serif" font-size="13" lengthAdjust="spacing" textLength="7.23" x="1889.4524" y="435.221">1</text></g><!--link CatalogRecord to Dataset--><g class="link" data-entity-1="ent0031" data-entity-2="ent0002" data-link-type="dependency" data-source-line="64" id="lnk37"><path codeLine="64" d="M1922.22,445.7194 C1927.48,431.9194 1933.79,408.7194 1926,390.6094 C1915.06,365.1894 1902.724,346.1322 1884.114,324.8922" fill="none" id="CatalogRecord-to-Dataset" style="stroke:#404040;stroke-width:1.2;"/><polygon fill="#404040" points="1880.16,320.3794,1883.0825,329.7846,1883.455,324.1401,1889.0996,324.5126,1880.16,320.3794" style="stroke:#404040;stroke-width:1.2;"/><text fill="#000000" font-family="sans-serif" font-size="13" lengthAdjust="spacing" textLength="32.5317" x="1931" y="405.1045">about</text><text fill="#000000" font-family="sans-serif" font-size="13" lengthAdjust="spacing" textLength="21.6836" x="1888.0011" y="323.1796">0..1</text></g><!--link Dataset to DefinedTerm--><g class="link" data-entity-1="ent0002" data-entity-2="ent0033" data-link-type="dependency" data-source-line="61" id="lnk34"><path codeLine="61" d="M1880.37,310.5094 C1929.21,343.3194 1984.14,378.6694 2036,408.6094 C2060.25,422.6094 2083.5993,434.0497 2103.8593,443.4697" fill="none" id="Dataset-to-DefinedTerm" style="stroke:#404040;stroke-width:1.2;"/><polygon fill="#404040" points="2109.3,445.9994,2102.8255,438.5778,2104.7661,443.8913,2099.4526,445.832,2109.3,445.9994" style="stroke:#404040;stroke-width:1.2;"/><text fill="#000000" font-family="sans-serif" font-size="13" lengthAdjust="spacing" textLength="54.9072" x="2037" y="405.1045">keywords</text><text fill="#000000" font-family="sans-serif" font-size="13" lengthAdjust="spacing" textLength="19.5127" x="2075.812" y="435.046">0..*</text></g><!--link Dataset to DefinedTerm--><g class="link" data-entity-1="ent0002" data-entity-2="ent0033" data-link-type="dependency" data-source-line="65" id="lnk38"><path codeLine="65" d="M1880.06,257.5894 C1951.58,288.3594 2034.56,332.5794 2096,390.6094 C2112.93,406.5994 2122.5267,426.0226 2128.4367,440.5326" fill="none" id="Dataset-to-DefinedTerm-1" style="stroke:#404040;stroke-width:1.2;"/><polygon fill="#404040" points="2130.7,446.0894,2131.0096,436.2454,2128.8139,441.4587,2123.6006,439.2631,2130.7,446.0894" style="stroke:#404040;stroke-width:1.2;"/><text fill="#000000" font-family="sans-serif" font-size="13" lengthAdjust="spacing" textLength="140.188" x="2112" y="405.1045">measurementTechnique</text><text fill="#000000" font-family="sans-serif" font-size="13" lengthAdjust="spacing" textLength="19.5127" x="2106.0395" y="435.1732">0..*</text></g><!--link Dataset to DefinedTerm--><g class="link" data-entity-1="ent0002" data-entity-2="ent0033" data-link-type="dependency" data-source-line="68" id="lnk41"><path codeLine="68" d="M1880,211.5394 C2004.94,226.6194 2175.3,269.7594 2261,390.6094 C2286.01,425.8794 2224.288,443.1525 2178.688,451.2325" fill="none" id="Dataset-to-DefinedTerm-2" style="stroke:#404040;stroke-width:1.2;"/><polygon fill="#404040" points="2172.78,452.2794,2182.3399,454.6477,2177.7033,451.407,2180.9441,446.7705,2172.78,452.2794" style="stroke:#404040;stroke-width:1.2;"/><text fill="#000000" font-family="sans-serif" font-size="13" lengthAdjust="spacing" textLength="84.5571" x="2268" y="405.1045">additionalType</text><text fill="#000000" font-family="sans-serif" font-size="13" lengthAdjust="spacing" textLength="19.5127" x="2180.9196" y="447.3337">0..*</text></g><!--link Dataset to Reference--><g class="link" data-entity-1="ent0002" data-entity-2="ent0035" data-link-type="dependency" data-source-line="63" id="lnk36"><path codeLine="63" d="M1880.24,247.9794 C2092.04,309.4094 2457.5475,415.4179 2566.4175,446.9979" fill="none" id="Dataset-to-Reference" style="stroke:#404040;stroke-width:1.2;"/><polygon fill="#404040" points="2572.18,448.6694,2564.6506,442.3204,2567.3779,447.2764,2562.422,450.0037,2572.18,448.6694" style="stroke:#404040;stroke-width:1.2;"/><text fill="#000000" font-family="sans-serif" font-size="13" lengthAdjust="spacing" textLength="40.4663" x="2416" y="405.1045">license</text><text fill="#000000" font-family="sans-serif" font-size="13" lengthAdjust="spacing" textLength="19.5127" x="2544.8792" y="442.491">0..*</text></g><!--link Dataset to Reference--><g class="link" data-entity-1="ent0002" data-entity-2="ent0035" data-link-type="dependency" data-source-line="76" id="lnk49"><path codeLine="76" d="M1880.06,232.9694 C2030.77,263.9394 2267.66,318.5594 2465,390.6094 C2508.28,406.4094 2550.8354,428.5529 2577.2854,443.1329" fill="none" id="Dataset-to-Reference-1" style="stroke:#404040;stroke-width:1.2;"/><polygon fill="#404040" points="2582.54,446.0294,2576.5891,438.1816,2578.1612,443.6157,2572.7272,445.1877,2582.54,446.0294" style="stroke:#404040;stroke-width:1.2;"/><text fill="#000000" font-family="sans-serif" font-size="13" lengthAdjust="spacing" textLength="114.1626" x="2509" y="405.1045">conditionsOfAccess</text><text fill="#000000" font-family="sans-serif" font-size="13" lengthAdjust="spacing" textLength="19.5127" x="2578.0494" y="435.0884">0..*</text></g><!--link Dataset to Reference--><g class="link" data-entity-1="ent0002" data-entity-2="ent0035" data-link-type="dependency" data-source-line="77" id="lnk50"><path codeLine="77" d="M1880.09,212.8994 C2112.03,229.9094 2538.86,276.2694 2632,390.6094 C2645.69,407.4094 2632.219,427.25 2619.069,441.5" fill="none" id="Dataset-to-Reference-2" style="stroke:#404040;stroke-width:1.2;"/><polygon fill="#404040" points="2615,445.9094,2624.0432,442.0079,2618.3909,442.2349,2618.1639,436.5826,2615,445.9094" style="stroke:#404040;stroke-width:1.2;"/><text fill="#000000" font-family="sans-serif" font-size="13" lengthAdjust="spacing" textLength="114.8989" x="2638" y="405.1045">publishingPrinciples</text><text fill="#000000" font-family="sans-serif" font-size="13" lengthAdjust="spacing" textLength="19.5127" x="2623.4947" y="435.3046">0..*</text></g><!--link Dataset to Reference--><g class="link" data-entity-1="ent0002" data-entity-2="ent0035" data-link-type="dependency" data-source-line="78" id="lnk51"><path codeLine="78" d="M1880.11,208.5594 C2139.07,219.7194 2650.5,258.3494 2761,390.6094 C2797.87,434.7394 2695.3155,449.8681 2639.6755,454.9081" fill="none" id="Dataset-to-Reference-3" style="stroke:#404040;stroke-width:1.2;"/><polygon fill="#404040" points="2633.7,455.4494,2643.0242,458.6211,2638.6796,454.9983,2642.3025,450.6538,2633.7,455.4494" style="stroke:#404040;stroke-width:1.2;"/><text fill="#000000" font-family="sans-serif" font-size="13" lengthAdjust="spacing" textLength="63.5972" x="2770" y="405.1045">relatedLink</text><text fill="#000000" font-family="sans-serif" font-size="13" lengthAdjust="spacing" textLength="19.5127" x="2642.0065" y="450.6693">0..*</text></g><!--link Dataset to Identifier--><g class="link" data-entity-1="ent0002" data-entity-2="ent0039" data-link-type="dependency" data-source-line="67" id="lnk40"><path codeLine="67" d="M1880.24,215.7994 C2097.35,235.6194 2507.99,284.4994 2842,390.6094 C2886.68,404.7994 2930.0282,427.9091 2956.2782,442.9991" fill="none" id="Dataset-to-Identifier" style="stroke:#404040;stroke-width:1.2;"/><polygon fill="#404040" points="2961.48,445.9894,2955.6709,438.0361,2957.1452,443.4975,2951.6838,444.9718,2961.48,445.9894" style="stroke:#404040;stroke-width:1.2;"/><text fill="#000000" font-family="sans-serif" font-size="13" lengthAdjust="spacing" textLength="49.1372" x="2887" y="405.1045">identifier</text><text fill="#000000" font-family="sans-serif" font-size="13" lengthAdjust="spacing" textLength="7.23" x="2945.0264" y="435.0319">1</text></g><!--link Dataset to Identifier--><g class="link" data-entity-1="ent0002" data-entity-2="ent0039" data-link-type="dependency" data-source-line="69" id="lnk42"><path codeLine="69" d="M1880.03,210.6694 C2166.68,225.7594 2776.06,271.2794 2945,390.6094 C2963.98,404.0194 2972.2501,424.885 2976.5801,440.225" fill="none" id="Dataset-to-Identifier-1" style="stroke:#404040;stroke-width:1.2;"/><polygon fill="#404040" points="2978.21,445.9994,2979.6147,436.2512,2976.8517,441.1874,2971.9155,438.4244,2978.21,445.9994" style="stroke:#404040;stroke-width:1.2;"/><text fill="#000000" font-family="sans-serif" font-size="13" lengthAdjust="spacing" textLength="46.96" x="2963" y="405.1045">sameAs</text><text fill="#000000" font-family="sans-serif" font-size="13" lengthAdjust="spacing" textLength="19.5127" x="2981.0784" y="435.046">0..*</text></g><!--link Dataset to XsdLanguage--><g class="link" data-entity-1="ent0002" data-entity-2="ent0043" data-link-type="dependency" data-source-line="71" id="lnk44"><path codeLine="71" d="M1880.12,205.1394 C2126.35,211.3394 2626,242.9694 3018,390.6094 C3047.94,401.8894 3073.4285,419.2598 3093.3185,434.7698" fill="none" id="Dataset-to-XsdLanguage" style="stroke:#404040;stroke-width:1.2;stroke-dasharray:7,7;"/><polygon fill="#404040" points="3098.05,438.4594,3093.4125,429.7707,3094.1071,435.3847,3088.493,436.0794,3098.05,438.4594" style="stroke:#404040;stroke-width:1.2;"/><text fill="#000000" font-family="sans-serif" font-size="13" lengthAdjust="spacing" textLength="67.958" x="3056" y="405.1045">inLanguage</text></g><!--link Dataset to XsdDate--><g class="link" data-entity-1="ent0002" data-entity-2="ent0045" data-link-type="dependency" data-source-line="73" id="lnk46"><path codeLine="73" d="M1880.11,215.2994 C2193.85,239.9694 2905.49,303.8194 3132,390.6094 C3160.87,401.6694 3184.9292,418.9421 3203.7392,434.5221" fill="none" id="Dataset-to-XsdDate" style="stroke:#404040;stroke-width:1.2;stroke-dasharray:7,7;"/><polygon fill="#404040" points="3208.36,438.3494,3203.9804,429.5279,3204.5093,435.1599,3198.8773,435.6889,3208.36,438.3494" style="stroke:#404040;stroke-width:1.2;"/><text fill="#000000" font-family="sans-serif" font-size="13" lengthAdjust="spacing" textLength="74.439" x="3168" y="405.1045">dateModified</text></g><!--link Dataset to XsdAnyUri--><g class="link" data-entity-1="ent0002" data-entity-2="ent0047" data-link-type="dependency" data-source-line="75" id="lnk48"><path codeLine="75" d="M1880.28,213.2494 C2213.87,234.9094 3002.7,294.8494 3251,390.6094 C3279.43,401.5794 3302.8383,418.9986 3320.9783,434.6586" fill="none" id="Dataset-to-XsdAnyUri" style="stroke:#404040;stroke-width:1.2;stroke-dasharray:7,7;"/><polygon fill="#404040" points="3325.52,438.5794,3321.3213,429.6703,3321.7352,435.312,3316.0935,435.726,3325.52,438.5794" style="stroke:#404040;stroke-width:1.2;"/><text fill="#000000" font-family="sans-serif" font-size="13" lengthAdjust="spacing" textLength="14.4473" x="3285" y="405.1045">url</text></g><?plantuml-src ZLRVRzem47xFNs7Hjqr3fTjUeWg9ygEgLjIkPTEaQW_6ES0ZiPdjmDZK_tqNvuST2A7mahlx_7qNvtm-mqqCP4GDrM225O-0CAvO3Fap91kp9maaSr0wq6ikDbJHXEWLZUIEYoLPq5Y35nae9NUp5MTh0LgJNlVA2xAOekzVG7BOKCPIaOjFbzaVdJTIHQ0ElHCfp3F_2wHt5Rm6GSxHALBk4AhBzCd5P3mP3yTMu7q2LASA4X1c1cmb-EyKI4X6iE02eXceXBnSThllVcPWV5TX-8A3GiYTCrvwDYneagtLHcMlN3WZq4pnZU5IU36apCCqYdWMe_5ilpcjh95we0zKg-WMj_q4FnVtL2nJkiouV-YeiXmaeWQcCif8eno4EmLL_lZycCvZhbVrSBK-LN7k7uZzDyMzICmP29qfFy4250W6NjPCYlpTzSDYm5XM1yt0JIwFB_Q8RyVu9ePJq3NiTrWU-kH6AeWn--YUYtKJnMj0vxY7b9cY2Zk3mlvE5QVp66mf7Jh9nTZ-WhB6FdpeaquFAJl7s91iYyTfNdnHMQtuUWbL-o-mjohERERFzhdZeqAoejhP9UspeOPhmvcsjCuyIOjfUwYih4hZc1CFOWmi-uu7x2xmDXqFxoiwTwMzmHYDntyCdeLSrFUqgjM0A9FRGub724z5gJ33ZYPLJQBkQjCuG8R458v3bQyfZRdPJrqBiah7xZQr1hGjWsF_SMalIqdxrAQI0qAoKNABNL2TF2OZdhMWULhLGrEWLQa97vB8CziIP0geaQhSuY7U2dQPL3ORpsvBmeSXfxEQ3c2rDqMNhCIdKe31etYhQB7FDKzR0dLWI1OfzagnT8r2RWTu9hRuXOjMuHnjl3LSI7PKtuB0eiIMU5FrYn4eleLeecIINvpERkFsOPRQSrJV0vV5Sla43Bjq_aLypua-sZb0uRbDvx-mAJmiNCvLjozoTjs_DMS72qbvUvIarVLWATrbqKBeG24fhh-WdhnNEUNwaD2vJCtv19kcbJ9PDndORBr1uTIctldZZ9jjpgTH7rgQy3NgV7Wfy_I649keFvHSN-EuGJFIVX_djC7uy-XZHT_jzcjWpBaQRZpoR3efYUsayXPI2yGkuur27cK-s9IanPZp5je26XASaSvLo_4uT6v5qrnqReqt_mJ_0G00?></g></svg>