<svg xmlns="http://www.w3.org/2000/svg" xmlns:xlink="http://www.w3.org/1999/xlink" contentStyleType="text/css" data-diagram-type="CLASS" height="461px" preserveAspectRatio="none" style="width:1512px;height:461px;background:#FFFFFF;" version="1.1" viewBox="0 0 1512 461" width="1512px" zoomAndPan="magnify"><?plantuml 1.2026.3?><defs/><g><g class="title" data-source-line="1"><text fill="#000000" font-family="sans-serif" font-size="14" font-weight="700" lengthAdjust="spacing" textLength="111.2754" x="697.3223" y="24.5332">InstanceVariable</text></g><!--class InstanceVariable--><g class="entity" data-qualified-name="InstanceVariable" data-source-line="12" id="ent0002"><rect fill="#FEFECE" height="191.5781" rx="2.5" ry="2.5" style="stroke:#404040;stroke-width:0.5;" width="279.6816" x="763.5" y="148.6094"/><text fill="#000000" font-family="sans-serif" font-size="12" lengthAdjust="spacing" textLength="89.3906" x="858.6455" y="166.0664">InstanceVariable</text><line style="stroke:#404040;stroke-width:0.5;" x1="764.5" x2="1042.1816" y1="173.7031" y2="173.7031"/><g data-visibility-modifier="PUBLIC_FIELD"><ellipse cx="774.5" cy="188.0078" fill="none" rx="3" ry="3" style="stroke:#038048;stroke-width:1;"/></g><text fill="#000000" font-family="sans-serif" font-size="14" lengthAdjust="spacing" textLength="121.3994" x="783.5" y="192.2363">definition : string [1]</text><g data-visibility-modifier="PUBLIC_FIELD"><ellipse cx="774.5" cy="205.6172" fill="none" rx="3" ry="3" style="stroke:#038048;stroke-width:1;"/></g><text fill="#000000" font-family="sans-serif" font-size="14" lengthAdjust="spacing" textLength="253.6816" x="783.5" y="209.8457">describedUnitOfMeasure : Concept [0..1]</text><g data-visibility-modifier="PUBLIC_FIELD"><ellipse cx="774.5" cy="223.2266" fill="none" rx="3" ry="3" style="stroke:#038048;stroke-width:1;"/></g><text fill="#000000" font-family="sans-serif" font-size="14" lengthAdjust="spacing" textLength="218.6748" x="783.5" y="227.4551">unitOfMeasureKind : Concept [0..1]</text><g data-visibility-modifier="PUBLIC_FIELD"><ellipse cx="774.5" cy="240.8359" fill="none" rx="3" ry="3" style="stroke:#038048;stroke-width:1;"/></g><text fill="#000000" font-family="sans-serif" font-size="14" lengthAdjust="spacing" textLength="145.5303" x="783.5" y="245.0645">function : Concept [0..*]</text><g data-visibility-modifier="PUBLIC_FIELD"><ellipse cx="774.5" cy="258.4453" fill="none" rx="3" ry="3" style="stroke:#038048;stroke-width:1;"/></g><text fill="#000000" font-family="sans-serif" font-size="14" lengthAdjust="spacing" textLength="180.5303" x="783.5" y="262.6738">platformType : Concept [0..1]</text><g data-visibility-modifier="PUBLIC_FIELD"><ellipse cx="774.5" cy="276.0547" fill="none" rx="3" ry="3" style="stroke:#038048;stroke-width:1;"/></g><text fill="#000000" font-family="sans-serif" font-size="14" lengthAdjust="spacing" textLength="122.9443" x="783.5" y="280.2832">source : string [0..1]</text><g data-visibility-modifier="PUBLIC_FIELD"><ellipse cx="774.5" cy="293.6641" fill="none" rx="3" ry="3" style="stroke:#038048;stroke-width:1;"/></g><text fill="#000000" font-family="sans-serif" font-size="14" lengthAdjust="spacing" textLength="236.5986" x="783.5" y="297.8926">hasIntendedDataType : Concept [0..1]</text><g data-visibility-modifier="PUBLIC_FIELD"><ellipse cx="774.5" cy="311.2734" fill="none" rx="3" ry="3" style="stroke:#038048;stroke-width:1;"/></g><text fill="#000000" font-family="sans-serif" font-size="14" lengthAdjust="spacing" textLength="215.5234" x="783.5" y="315.502">simpleUnitOfMeasure : string [0..1]</text><g data-visibility-modifier="PUBLIC_FIELD"><ellipse cx="774.5" cy="328.8828" fill="none" rx="3" ry="3" style="stroke:#038048;stroke-width:1;"/></g><text fill="#000000" font-family="sans-serif" font-size="14" lengthAdjust="spacing" textLength="126.0684" x="783.5" y="333.1113">uses : Concept [0..*]</text></g><!--class AbstractVariable--><g class="entity" data-qualified-name="AbstractVariable" data-source-line="23" id="ent0003"><rect fill="#D6EAF8" height="25.0938" rx="2.5" ry="2.5" style="stroke:#404040;stroke-width:0.5;" width="94.043" x="390.5" y="45.6094"/><text fill="#000000" font-family="sans-serif" font-size="12" font-style="italic" lengthAdjust="spacing" textLength="88.043" x="393.5" y="63.0664">AbstractVariable</text></g><!--class StatisticsCollection--><g class="entity" data-qualified-name="StatisticsCollection" data-source-line="25" id="ent0005"><rect fill="#EEEEEE" height="25.0938" rx="2.5" ry="2.5" style="stroke:#404040;stroke-width:0.5;" width="106.7051" x="1330" y="418.6094"/><text fill="#000000" font-family="sans-serif" font-size="12" lengthAdjust="spacing" textLength="100.7051" x="1333" y="436.0664">StatisticsCollection</text></g><!--class SubstantiveValueDomain--><g class="entity" data-qualified-name="SubstantiveValueDomain" data-source-line="28" id="ent0008"><rect fill="#EEEEEE" height="25.0938" rx="2.5" ry="2.5" style="stroke:#404040;stroke-width:0.5;" width="140.748" x="7" y="418.6094"/><text fill="#000000" font-family="sans-serif" font-size="12" lengthAdjust="spacing" textLength="134.748" x="10" y="436.0664">SubstantiveValueDomain</text></g><!--class SentinelValueDomain--><g class="entity" data-qualified-name="SentinelValueDomain" data-source-line="30" id="ent0010"><rect fill="#EEEEEE" height="25.0938" rx="2.5" ry="2.5" style="stroke:#404040;stroke-width:0.5;" width="121.4063" x="228" y="418.6094"/><text fill="#000000" font-family="sans-serif" font-size="12" lengthAdjust="spacing" textLength="115.4063" x="231" y="436.0664">SentinelValueDomain</text></g><!--class VariableMeasured--><g class="entity" data-qualified-name="VariableMeasured" data-source-line="32" id="ent0012"><rect fill="#EEEEEE" height="25.0938" rx="2.5" ry="2.5" style="stroke:#404040;stroke-width:0.5;" width="103.3887" x="520" y="45.6094"/><text fill="#000000" font-family="sans-serif" font-size="12" lengthAdjust="spacing" textLength="97.3887" x="523" y="63.0664">VariableMeasured</text></g><!--class PrimaryKeyComponent--><g class="entity" data-qualified-name="PrimaryKeyComponent" data-source-line="34" id="ent0014"><rect fill="#EEEEEE" height="25.0938" rx="2.5" ry="2.5" style="stroke:#404040;stroke-width:0.5;" width="130.0488" x="658.5" y="45.6094"/><text fill="#000000" font-family="sans-serif" font-size="12" lengthAdjust="spacing" textLength="124.0488" x="661.5" y="63.0664">PrimaryKeyComponent</text></g><!--class Statistics--><g class="entity" data-qualified-name="Statistics" data-source-line="36" id="ent0016"><rect fill="#EEEEEE" height="25.0938" rx="2.5" ry="2.5" style="stroke:#404040;stroke-width:0.5;" width="54.0117" x="830.5" y="45.6094"/><text fill="#000000" font-family="sans-serif" font-size="12" lengthAdjust="spacing" textLength="48.0117" x="833.5" y="63.0664">Statistics</text></g><!--class CategoryStatistics--><g class="entity" data-qualified-name="CategoryStatistics" data-source-line="39" id="ent0019"><rect fill="#EEEEEE" height="25.0938" rx="2.5" ry="2.5" style="stroke:#404040;stroke-width:0.5;" width="102.7031" x="923" y="45.6094"/><text fill="#000000" font-family="sans-serif" font-size="12" lengthAdjust="spacing" textLength="96.7031" x="926" y="63.0664">CategoryStatistics</text></g><!--class PhysicalMapping--><g class="entity" data-qualified-name="PhysicalMapping" data-source-line="43" id="ent0023"><rect fill="#EEEEEE" height="25.0938" rx="2.5" ry="2.5" style="stroke:#404040;stroke-width:0.5;" width="96.7148" x="1061" y="45.6094"/><text fill="#000000" font-family="sans-serif" font-size="12" lengthAdjust="spacing" textLength="90.7148" x="1064" y="63.0664">PhysicalMapping</text></g><!--class TextMapping--><g class="entity" data-qualified-name="TextMapping" data-source-line="45" id="ent0025"><rect fill="#EEEEEE" height="25.0938" rx="2.5" ry="2.5" style="stroke:#404040;stroke-width:0.5;" width="75.3691" x="1193" y="45.6094"/><text fill="#000000" font-family="sans-serif" font-size="12" lengthAdjust="spacing" textLength="69.3691" x="1196" y="63.0664">TextMapping</text></g><!--class LocatorMapping--><g class="entity" data-qualified-name="LocatorMapping" data-source-line="47" id="ent0027"><rect fill="#EEEEEE" height="25.0938" rx="2.5" ry="2.5" style="stroke:#404040;stroke-width:0.5;" width="92.0566" x="1303.5" y="45.6094"/><text fill="#000000" font-family="sans-serif" font-size="12" lengthAdjust="spacing" textLength="86.0566" x="1306.5" y="63.0664">LocatorMapping</text></g><!--class Concept--><g class="entity" data-qualified-name="Concept" data-source-line="49" id="ent0029"><rect fill="#EEEEEE" height="25.0938" rx="2.5" ry="2.5" style="stroke:#404040;stroke-width:0.5;" width="50.6953" x="834" y="418.6094"/><text fill="#000000" font-family="sans-serif" font-size="12" lengthAdjust="spacing" textLength="44.6953" x="837" y="436.0664">Concept</text></g><!--reverse link AbstractVariable to InstanceVariable--><g class="link" data-entity-1="ent0003" data-entity-2="ent0002" data-link-type="extension" data-source-line="24" id="lnk4"><path codeLine="24" d="M483.3855,77.2769 C541.6155,100.3369 658.97,146.7894 763.34,188.1194" fill="none" id="AbstractVariable-backto-InstanceVariable" style="stroke:#404040;stroke-width:1.2;"/><polygon fill="none" points="466.65,70.6494,481.1763,82.8554,485.5946,71.6984,466.65,70.6494" style="stroke:#404040;stroke-width:1.2;"/></g><!--link InstanceVariable to StatisticsCollection--><g class="link" data-entity-1="ent0002" data-entity-2="ent0005" data-link-type="dependency" data-source-line="26" id="lnk6"><path codeLine="26" d="M1043.9,305.3594 C1108.01,331.9394 1185.17,362.9594 1255.5,388.6094 C1285.46,399.5394 1314.1308,408.8272 1339.7208,416.7872" fill="none" id="InstanceVariable-to-StatisticsCollection" style="stroke:#404040;stroke-width:1.2;"/><polygon fill="#404040" points="1345.45,418.5694,1338.0442,412.0767,1340.6756,417.0843,1335.6681,419.7157,1345.45,418.5694" style="stroke:#404040;stroke-width:1.2;"/><text fill="#000000" font-family="sans-serif" font-size="13" lengthAdjust="spacing" textLength="83.0845" x="1256.5" y="385.1045">isDescribedBy</text><text fill="#000000" font-family="sans-serif" font-size="13" lengthAdjust="spacing" textLength="21.6836" x="1304.6249" y="407.6449">0..1</text></g><!--link StatisticsCollection to InstanceVariable--><g class="link" data-entity-1="ent0005" data-entity-2="ent0002" data-link-type="dependency" data-source-line="41" id="lnk21"><path codeLine="41" d="M1378.77,418.2094 C1372.79,404.6794 1361.22,382.8894 1344.5,370.6094 C1256.55,306.0194 1142.212,275.7237 1049.482,260.6237" fill="none" id="StatisticsCollection-to-InstanceVariable" style="stroke:#404040;stroke-width:1.2;"/><polygon fill="#404040" points="1043.56,259.6594,1051.8001,265.0539,1048.495,260.463,1053.0859,257.1579,1043.56,259.6594" style="stroke:#404040;stroke-width:1.2;"/><text fill="#000000" font-family="sans-serif" font-size="13" lengthAdjust="spacing" textLength="60.709" x="1362.5" y="385.1045">indexedBy</text><text fill="#000000" font-family="sans-serif" font-size="13" lengthAdjust="spacing" textLength="19.5127" x="1051.2931" y="257.5379">1..*</text></g><!--link StatisticsCollection to InstanceVariable--><g class="link" data-entity-1="ent0005" data-entity-2="ent0002" data-link-type="dependency" data-source-line="42" id="lnk22"><path codeLine="42" d="M1403.9,418.5294 C1422.35,406.5794 1444.76,387.3694 1431.5,370.6094 C1383.95,310.4894 1189.4164,277.0114 1049.6664,260.0714" fill="none" id="StatisticsCollection-to-InstanceVariable-1" style="stroke:#404040;stroke-width:1.2;"/><polygon fill="#404040" points="1043.71,259.3494,1052.1633,264.4033,1048.6737,259.9511,1053.1259,256.4615,1043.71,259.3494" style="stroke:#404040;stroke-width:1.2;"/><text fill="#000000" font-family="sans-serif" font-size="13" lengthAdjust="spacing" textLength="61.4199" x="1435.5" y="385.1045">hasWeight</text><text fill="#000000" font-family="sans-serif" font-size="13" lengthAdjust="spacing" textLength="21.6836" x="1051.0343" y="257.1897">0..1</text></g><!--link InstanceVariable to InstanceVariable--><g class="link" data-entity-1="ent0002" data-entity-2="ent0002" data-link-type="dependency" data-source-line="27" id="lnk7"><path codeLine="27" d="M1043.55,221.8194 C1064.4,225.3694 1078.5,232.9594 1078.5,244.6094 C1078.5,256.2594 1070.3149,262.8423 1049.4649,266.3923" fill="none" id="InstanceVariable-to-InstanceVariable" style="stroke:#404040;stroke-width:1.2;"/><polygon fill="#404040" points="1043.55,267.3994,1053.0937,269.832,1048.4791,266.5601,1051.7509,261.9455,1043.55,267.3994" style="stroke:#404040;stroke-width:1.2;"/><text fill="#000000" font-family="sans-serif" font-size="13" lengthAdjust="spacing" textLength="47.6963" x="1084.5" y="250.1045">qualifies</text><text fill="#000000" font-family="sans-serif" font-size="13" lengthAdjust="spacing" textLength="21.6836" x="1051.3386" y="282.502">0..1</text></g><!--link InstanceVariable to SubstantiveValueDomain--><g class="link" data-entity-1="ent0002" data-entity-2="ent0008" data-link-type="dependency" data-source-line="29" id="lnk9"><path codeLine="29" d="M763.17,255.3194 C568.03,270.9394 226.79,306.5894 121.5,370.6094 C102.84,381.9594 92.2106,399.0866 85.3906,412.9366" fill="none" id="InstanceVariable-to-SubstantiveValueDomain" style="stroke:#404040;stroke-width:1.2;"/><polygon fill="#404040" points="82.74,418.3194,90.3044,412.0123,84.9488,413.8337,83.1274,408.4781,82.74,418.3194" style="stroke:#404040;stroke-width:1.2;"/><text fill="#000000" font-family="sans-serif" font-size="13" lengthAdjust="spacing" textLength="169.0825" x="122.5" y="385.1045">takesSubstantiveValuesFrom</text><text fill="#000000" font-family="sans-serif" font-size="13" lengthAdjust="spacing" textLength="21.6836" x="59.8531" y="407.6792">0..1</text></g><!--link InstanceVariable to SentinelValueDomain--><g class="link" data-entity-1="ent0002" data-entity-2="ent0010" data-link-type="dependency" data-source-line="31" id="lnk11"><path codeLine="31" d="M763.24,260.2694 C611.08,278.7294 380.83,314.9394 313.5,370.6094 C298.82,382.7494 293.6997,399.0992 291.1897,412.6892" fill="none" id="InstanceVariable-to-SentinelValueDomain" style="stroke:#404040;stroke-width:1.2;"/><polygon fill="#404040" points="290.1,418.5894,295.6681,410.4656,291.0081,413.6725,287.8011,409.0126,290.1,418.5894" style="stroke:#404040;stroke-width:1.2;"/><text fill="#000000" font-family="sans-serif" font-size="13" lengthAdjust="spacing" textLength="148.1289" x="314.5" y="385.1045">takesSentinelValuesFrom</text><text fill="#000000" font-family="sans-serif" font-size="13" lengthAdjust="spacing" textLength="19.5127" x="267.8632" y="407.6732">0..*</text></g><!--link VariableMeasured to InstanceVariable--><g class="link" data-entity-1="ent0012" data-entity-2="ent0002" data-link-type="dependency" data-source-line="33" id="lnk13"><path codeLine="33" d="M590.32,70.7894 C610.11,82.9994 642.26,102.5594 670.5,118.6094 C700.33,135.5594 727.3288,150.4218 758.0788,167.0018" fill="none" id="VariableMeasured-to-InstanceVariable" style="stroke:#404040;stroke-width:1.2;"/><polygon fill="#404040" points="763.36,169.8494,757.3365,162.0572,758.959,167.4764,753.5398,169.0988,763.36,169.8494" style="stroke:#404040;stroke-width:1.2;"/><text fill="#000000" font-family="sans-serif" font-size="13" lengthAdjust="spacing" textLength="55.6372" x="671.5" y="115.1045">describes</text><text fill="#000000" font-family="sans-serif" font-size="13" lengthAdjust="spacing" textLength="21.6836" x="733.6801" y="162.5823">0..1</text></g><!--link PrimaryKeyComponent to InstanceVariable--><g class="link" data-entity-1="ent0014" data-entity-2="ent0002" data-link-type="dependency" data-source-line="35" id="lnk15"><path codeLine="35" d="M725.87,70.9794 C728.85,83.6794 734.89,103.9894 745.5,118.6094 C753,128.9394 757.3824,134.5724 766.5724,144.0024" fill="none" id="PrimaryKeyComponent-to-InstanceVariable" style="stroke:#404040;stroke-width:1.2;"/><polygon fill="#404040" points="770.76,148.2994,767.3432,139.0622,767.2703,144.7186,761.6139,144.6457,770.76,148.2994" style="stroke:#404040;stroke-width:1.2;"/><text fill="#000000" font-family="sans-serif" font-size="13" lengthAdjust="spacing" textLength="44.8081" x="746.5" y="115.1045">indexes</text><text fill="#000000" font-family="sans-serif" font-size="13" lengthAdjust="spacing" textLength="7.23" x="753.3501" y="137.8379">1</text></g><!--link Statistics to InstanceVariable--><g class="link" data-entity-1="ent0016" data-entity-2="ent0002" data-link-type="dependency" data-source-line="37" id="lnk17"><path codeLine="37" d="M833.13,70.7494 C821.59,77.6794 808.95,87.6594 802.5,100.6094 C798.93,107.7694 799.83,111.0694 802.5,118.6094 C806.13,128.8694 807.9561,133.7229 813.6061,143.3629" fill="none" id="Statistics-to-InstanceVariable" style="stroke:#404040;stroke-width:1.2;"/><polygon fill="#404040" points="816.64,148.5394,815.5401,138.7521,814.1117,144.2257,808.6382,142.7973,816.64,148.5394" style="stroke:#404040;stroke-width:1.2;"/><text fill="#000000" font-family="sans-serif" font-size="13" lengthAdjust="spacing" textLength="56.3672" x="803.5" y="115.1045">appliesTo</text><text fill="#000000" font-family="sans-serif" font-size="13" lengthAdjust="spacing" textLength="19.5127" x="789.9944" y="137.7722">1..*</text></g><!--link Statistics to InstanceVariable--><g class="link" data-entity-1="ent0016" data-entity-2="ent0002" data-link-type="dependency" data-source-line="38" id="lnk18"><path codeLine="38" d="M860.38,70.6494 C864.37,86.6694 870.5296,111.3473 878.2496,142.3373" fill="none" id="Statistics-to-InstanceVariable-1" style="stroke:#404040;stroke-width:1.2;"/><polygon fill="#404040" points="879.7,148.1594,881.4059,138.4594,878.4914,143.3077,873.6431,140.3932,879.7,148.1594" style="stroke:#404040;stroke-width:1.2;"/><text fill="#000000" font-family="sans-serif" font-size="13" lengthAdjust="spacing" textLength="61.4199" x="871.5" y="115.1045">hasWeight</text><text fill="#000000" font-family="sans-serif" font-size="13" lengthAdjust="spacing" textLength="21.6836" x="856.1123" y="137.6871">0..1</text></g><!--link CategoryStatistics to InstanceVariable--><g class="link" data-entity-1="ent0019" data-entity-2="ent0002" data-link-type="dependency" data-source-line="40" id="lnk20"><path codeLine="40" d="M970.06,70.6494 C963.9,86.6694 954.3156,111.57 942.3856,142.56" fill="none" id="CategoryStatistics-to-InstanceVariable" style="stroke:#404040;stroke-width:1.2;"/><polygon fill="#404040" points="940.23,148.1594,947.1963,141.1973,942.0263,143.4932,939.7304,138.3232,940.23,148.1594" style="stroke:#404040;stroke-width:1.2;"/><text fill="#000000" font-family="sans-serif" font-size="13" lengthAdjust="spacing" textLength="61.4199" x="957.5" y="115.1045">hasWeight</text><text fill="#000000" font-family="sans-serif" font-size="13" lengthAdjust="spacing" textLength="21.6836" x="921.2766" y="137.6871">0..1</text></g><!--link PhysicalMapping to InstanceVariable--><g class="link" data-entity-1="ent0023" data-entity-2="ent0002" data-link-type="dependency" data-source-line="44" id="lnk24"><path codeLine="44" d="M1096.61,70.6494 C1078.69,86.7094 1048.9794,113.3163 1014.2894,144.3863" fill="none" id="PhysicalMapping-to-InstanceVariable" style="stroke:#404040;stroke-width:1.2;"/><polygon fill="#404040" points="1009.82,148.3894,1019.1928,145.3644,1013.5445,145.0535,1013.8555,139.4052,1009.82,148.3894" style="stroke:#404040;stroke-width:1.2;"/><text fill="#000000" font-family="sans-serif" font-size="13" lengthAdjust="spacing" textLength="43.3418" x="1060.5" y="115.1045">formats</text><text fill="#000000" font-family="sans-serif" font-size="13" lengthAdjust="spacing" textLength="7.23" x="1011.0353" y="137.6103">1</text></g><!--link TextMapping to InstanceVariable--><g class="link" data-entity-1="ent0025" data-entity-2="ent0002" data-link-type="dependency" data-source-line="46" id="lnk26"><path codeLine="46" d="M1210.04,70.6494 C1176.63,89.5094 1112.8356,125.501 1048.7456,161.661" fill="none" id="TextMapping-to-InstanceVariable" style="stroke:#404040;stroke-width:1.2;"/><polygon fill="#404040" points="1043.52,164.6094,1053.324,163.6706,1047.8747,162.1524,1049.3929,156.7031,1043.52,164.6094" style="stroke:#404040;stroke-width:1.2;"/><text fill="#000000" font-family="sans-serif" font-size="13" lengthAdjust="spacing" textLength="43.3418" x="1151.5" y="115.1045">formats</text><text fill="#000000" font-family="sans-serif" font-size="13" lengthAdjust="spacing" textLength="7.23" x="1051.3837" y="157.3131">1</text></g><!--link LocatorMapping to InstanceVariable--><g class="link" data-entity-1="ent0027" data-entity-2="ent0002" data-link-type="dependency" data-source-line="48" id="lnk28"><path codeLine="48" d="M1321.6,70.6494 C1266.96,93.2494 1148.1043,142.4258 1049.1143,183.3758" fill="none" id="LocatorMapping-to-InstanceVariable" style="stroke:#404040;stroke-width:1.2;"/><polygon fill="#404040" points="1043.57,185.6694,1053.4155,185.9252,1048.1903,183.7581,1050.3574,178.5328,1043.57,185.6694" style="stroke:#404040;stroke-width:1.2;"/><text fill="#000000" font-family="sans-serif" font-size="13" lengthAdjust="spacing" textLength="43.3418" x="1242.5" y="115.1045">formats</text><text fill="#000000" font-family="sans-serif" font-size="13" lengthAdjust="spacing" textLength="7.23" x="1050.987" y="179.7328">1</text></g><!--link InstanceVariable to Concept--><g class="link" data-entity-1="ent0002" data-entity-2="ent0029" data-link-type="dependency" data-source-line="50" id="lnk30"><path codeLine="50" d="M763.42,267.9994 C652.46,288.9394 510.47,323.9594 475.5,370.6094 C431.39,429.4494 734.8702,431.2685 827.7102,430.5085" fill="none" id="InstanceVariable-to-Concept" style="stroke:#404040;stroke-width:1.2;"/><polygon fill="#404040" points="833.71,430.4594,824.6776,426.5332,828.7102,430.5003,824.743,434.5329,833.71,430.4594" style="stroke:#404040;stroke-width:1.2;"/><text fill="#000000" font-family="sans-serif" font-size="13" lengthAdjust="spacing" textLength="143.7871" x="476.5" y="385.1045">describedUnitOfMeasure</text><text fill="#000000" font-family="sans-serif" font-size="13" lengthAdjust="spacing" textLength="21.6836" x="804.4322" y="425.984">0..1</text></g><!--link InstanceVariable to Concept--><g class="link" data-entity-1="ent0002" data-entity-2="ent0029" data-link-type="dependency" data-source-line="51" id="lnk31"><path codeLine="51" d="M763.27,286.3894 C723.07,305.2894 683.85,332.3394 660.5,370.6094 C656.33,377.4394 655.45,382.3994 660.5,388.6094 C682.09,415.1694 779.2541,424.8976 827.9541,428.2476" fill="none" id="InstanceVariable-to-Concept-1" style="stroke:#404040;stroke-width:1.2;"/><polygon fill="#404040" points="833.94,428.6594,825.2357,424.0512,828.9518,428.3162,824.6867,432.0323,833.94,428.6594" style="stroke:#404040;stroke-width:1.2;"/><text fill="#000000" font-family="sans-serif" font-size="13" lengthAdjust="spacing" textLength="111.2808" x="661.5" y="385.1045">unitOfMeasureKind</text><text fill="#000000" font-family="sans-serif" font-size="13" lengthAdjust="spacing" textLength="21.6836" x="804.2708" y="443.5387">0..1</text></g><!--link InstanceVariable to Concept--><g class="link" data-entity-1="ent0002" data-entity-2="ent0029" data-link-type="dependency" data-source-line="52" id="lnk32"><path codeLine="52" d="M826.42,340.6694 C821.24,350.3794 816.78,360.4294 813.5,370.6094 C811.04,378.2194 810.25,381.2994 813.5,388.6094 C819.01,400.9894 825.3764,407.7257 835.3564,414.9357" fill="none" id="InstanceVariable-to-Concept-2" style="stroke:#404040;stroke-width:1.2;"/><polygon fill="#404040" points="840.22,418.4494,835.2671,409.9365,836.167,415.5213,830.5822,416.4213,840.22,418.4494" style="stroke:#404040;stroke-width:1.2;"/><text fill="#000000" font-family="sans-serif" font-size="13" lengthAdjust="spacing" textLength="45.5317" x="814.5" y="385.1045">function</text><text fill="#000000" font-family="sans-serif" font-size="13" lengthAdjust="spacing" textLength="19.5127" x="836.53" y="407.8604">0..*</text></g><!--link InstanceVariable to Concept--><g class="link" data-entity-1="ent0002" data-entity-2="ent0029" data-link-type="dependency" data-source-line="53" id="lnk33"><path codeLine="53" d="M880.79,340.8294 C873.39,371.8494 867.4902,396.5727 863.6602,412.6527" fill="none" id="InstanceVariable-to-Concept-3" style="stroke:#404040;stroke-width:1.2;"/><polygon fill="#404040" points="862.27,418.4894,868.2465,410.6611,863.4285,413.6254,860.4642,408.8075,862.27,418.4894" style="stroke:#404040;stroke-width:1.2;"/><text fill="#000000" font-family="sans-serif" font-size="13" lengthAdjust="spacing" textLength="75.8608" x="873.5" y="385.1045">platformType</text><text fill="#000000" font-family="sans-serif" font-size="13" lengthAdjust="spacing" textLength="21.6836" x="867.9477" y="407.5319">0..1</text></g><!--link InstanceVariable to Concept--><g class="link" data-entity-1="ent0002" data-entity-2="ent0029" data-link-type="dependency" data-source-line="54" id="lnk34"><path codeLine="54" d="M964.57,340.8694 C968.27,357.4294 967.17,374.0094 957.5,388.6094 C941.58,412.6394 914.5715,421.7069 891.2915,425.9769" fill="none" id="InstanceVariable-to-Concept-4" style="stroke:#404040;stroke-width:1.2;"/><polygon fill="#404040" points="885.39,427.0594,894.964,429.3701,890.308,426.1573,893.5207,421.5013,885.39,427.0594" style="stroke:#404040;stroke-width:1.2;"/><text fill="#000000" font-family="sans-serif" font-size="13" lengthAdjust="spacing" textLength="127.9243" x="965.5" y="385.1045">hasIntendedDataType</text><text fill="#000000" font-family="sans-serif" font-size="13" lengthAdjust="spacing" textLength="21.6836" x="892.6516" y="422.2075">0..1</text></g><!--link InstanceVariable to Concept--><g class="link" data-entity-1="ent0002" data-entity-2="ent0029" data-link-type="dependency" data-source-line="55" id="lnk35"><path codeLine="55" d="M1043.51,292.7594 C1094.87,317.5494 1133.48,350.6794 1101.5,388.6094 C1074.02,421.1994 947.7679,428.0403 891.2279,429.5403" fill="none" id="InstanceVariable-to-Concept-5" style="stroke:#404040;stroke-width:1.2;"/><polygon fill="#404040" points="885.23,429.6994,894.3329,433.4593,890.2282,429.5668,894.1208,425.4621,885.23,429.6994" style="stroke:#404040;stroke-width:1.2;"/><text fill="#000000" font-family="sans-serif" font-size="13" lengthAdjust="spacing" textLength="27.46" x="1111.5" y="385.1045">uses</text><text fill="#000000" font-family="sans-serif" font-size="13" lengthAdjust="spacing" textLength="19.5127" x="892.5805" y="444.5803">0..*</text></g><?plantuml-src ZLNBRjim4BphAmZxbi9671H5OHG573-080qQ86vx27fOIokB24Mg9DL4RVFlePwcHTgLVR5dTcU7N7AfgMP8RhZIm4Fy3fB2Zc6Gq0X9I6NO_iOqqmL9CTsXL85weZm32IbH2KJYcV8zYO4fj9Y5bE9vcz3mYQDIP3QziiYGWS7-1gGEMmec91c_loo_1hmMCaBPHpU2wmVw1ydiAdWDWbfZrFS-8g2S1P7nPhrPBzTLoNSHnfHJJGKdSwAqBEq_pdxMb0ebtM7qpGHyZUyGL2xHX2s5aSiqURoSJklGt8wufJpoHiKv3vjADdbHaHa37GkPRelCNqE9N8PekUoO1DGDryWZZ5QWuRG2JJE6_TKuShb2vLfy3M1dGY7KJST6Y-R_qMxtGJ9UVLWlDXy3X_ZqRp9nJrkZ_Q11KwLfg4pd6LRRLkdx239ULv_0QVLayfcCoeMD_8bpGjMgRVDrSLR0uURaLmwCnXHLPplVbK6Q_ZPXBCULI84snhtKCEl-r3dHy8IgpwgD56bd20t1aJbkNFp_LYv6thpMXqqTcMY5cZCNLGxwO5VU8SxteBsbNG_k9Kr15hTOB4MQ2MviLGKzU5VJnrLb_JND1SSNg-lTqUeTqKxVWchPQZCzof1bp9odhN1IJcw0kVq_aEuJtTfPWiQza4NFbWjtzZpKq9hUQtL-ZVNkbTVjTFBmrTudXQ8Xi3kpTMQErQq-nWvjxk5dMboEOj1TYxVuekqArlzEtSQ6AtyH8MWXRV5ZgDFlmSDBD9EyFWNDL1yoTzhOmoKxVWe79ZkFuza9SyXhdyk1PUm7T62Av-4SwAry8uCt?></g></svg>