<svg xmlns="http://www.w3.org/2000/svg" xmlns:xlink="http://www.w3.org/1999/xlink" contentStyleType="text/css" data-diagram-type="CLASS" height="705px" preserveAspectRatio="none" style="width:1377px;height:705px;background:#FFFFFF;" version="1.1" viewBox="0 0 1377 705" width="1377px" zoomAndPan="magnify"><?plantuml 1.2026.3?><defs/><g><g class="title" data-source-line="1"><text fill="#000000" font-family="sans-serif" font-size="14" font-weight="700" lengthAdjust="spacing" textLength="222.1611" x="574.1589" y="24.5332">CDIFDataDescription &#8212; overview</text></g><!--class AbstractVariable--><g class="entity" data-qualified-name="AbstractVariable" data-source-line="12" id="ent0002"><rect fill="#FCF3CF" height="25.0938" rx="2.5" ry="2.5" style="stroke:#404040;stroke-width:0.5;" width="94.043" x="562.5" y="45.6094"/><text fill="#000000" font-family="sans-serif" font-size="12" font-style="italic" lengthAdjust="spacing" textLength="88.043" x="565.5" y="63.0664">AbstractVariable</text></g><!--class InstanceVariable--><g class="entity" data-qualified-name="InstanceVariable" data-source-line="13" id="ent0003"><rect fill="#FAE5D3" height="25.0938" rx="2.5" ry="2.5" style="stroke:#404040;stroke-width:0.5;" width="95.3906" x="580" y="253.1094"/><text fill="#000000" font-family="sans-serif" font-size="12" lengthAdjust="spacing" textLength="89.3906" x="583" y="270.5664">InstanceVariable</text></g><!--class VariableMeasured--><g class="entity" data-qualified-name="VariableMeasured" data-source-line="14" id="ent0004"><rect fill="#FCF3CF" height="25.0938" rx="2.5" ry="2.5" style="stroke:#404040;stroke-width:0.5;" width="103.3887" x="626" y="148.6094"/><text fill="#000000" font-family="sans-serif" font-size="12" lengthAdjust="spacing" textLength="97.3887" x="629" y="166.0664">VariableMeasured</text></g><!--class DataDownload--><g class="entity" data-qualified-name="DataDownload" data-source-line="15" id="ent0005"><rect fill="#FCF3CF" height="25.0938" rx="2.5" ry="2.5" style="stroke:#404040;stroke-width:0.5;" width="84.7148" x="935" y="45.6094"/><text fill="#000000" font-family="sans-serif" font-size="12" lengthAdjust="spacing" textLength="78.7148" x="938" y="63.0664">DataDownload</text></g><!--class PrimaryKey--><g class="entity" data-qualified-name="PrimaryKey" data-source-line="16" id="ent0006"><rect fill="#FAE5D3" height="25.0938" rx="2.5" ry="2.5" style="stroke:#404040;stroke-width:0.5;" width="68.0098" x="1240.5" y="45.6094"/><text fill="#000000" font-family="sans-serif" font-size="12" lengthAdjust="spacing" textLength="62.0098" x="1243.5" y="63.0664">PrimaryKey</text></g><!--class PrimaryKeyComponent--><g class="entity" data-qualified-name="PrimaryKeyComponent" data-source-line="17" id="ent0007"><rect fill="#FAE5D3" height="25.0938" rx="2.5" ry="2.5" style="stroke:#404040;stroke-width:0.5;" width="130.0488" x="1209.5" y="148.6094"/><text fill="#000000" font-family="sans-serif" font-size="12" lengthAdjust="spacing" textLength="124.0488" x="1212.5" y="166.0664">PrimaryKeyComponent</text></g><!--class Statistic--><g class="entity" data-qualified-name="Statistic" data-source-line="18" id="ent0008"><rect fill="#FCF3CF" height="25.0938" rx="2.5" ry="2.5" style="stroke:#404040;stroke-width:0.5;" width="48.0117" x="268.5" y="45.6094"/><text fill="#000000" font-family="sans-serif" font-size="12" lengthAdjust="spacing" textLength="42.0117" x="271.5" y="63.0664">Statistic</text></g><!--class Statistics--><g class="entity" data-qualified-name="Statistics" data-source-line="19" id="ent0009"><rect fill="#FCF3CF" height="25.0938" rx="2.5" ry="2.5" style="stroke:#404040;stroke-width:0.5;" width="54.0117" x="798.5" y="460.6094"/><text fill="#000000" font-family="sans-serif" font-size="12" lengthAdjust="spacing" textLength="48.0117" x="801.5" y="478.0664">Statistics</text></g><!--class CategoryStatistics--><g class="entity" data-qualified-name="CategoryStatistics" data-source-line="20" id="ent0010"><rect fill="#FCF3CF" height="25.0938" rx="2.5" ry="2.5" style="stroke:#404040;stroke-width:0.5;" width="102.7031" x="846" y="563.6094"/><text fill="#000000" font-family="sans-serif" font-size="12" lengthAdjust="spacing" textLength="96.7031" x="849" y="581.0664">CategoryStatistics</text></g><!--class StatisticsCollection--><g class="entity" data-qualified-name="StatisticsCollection" data-source-line="21" id="ent0011"><rect fill="#FCF3CF" height="25.0938" rx="2.5" ry="2.5" style="stroke:#404040;stroke-width:0.5;" width="106.7051" x="553" y="357.6094"/><text fill="#000000" font-family="sans-serif" font-size="12" lengthAdjust="spacing" textLength="100.7051" x="556" y="375.0664">StatisticsCollection</text></g><!--class Category--><g class="entity" data-qualified-name="Category" data-source-line="22" id="ent0012"><rect fill="#FCF3CF" height="25.0938" rx="2.5" ry="2.5" style="stroke:#404040;stroke-width:0.5;" width="54.6914" x="870" y="666.6094"/><text fill="#000000" font-family="sans-serif" font-size="12" lengthAdjust="spacing" textLength="48.6914" x="873" y="684.0664">Category</text></g><!--class SubstantiveValueDomain--><g class="entity" data-qualified-name="SubstantiveValueDomain" data-source-line="23" id="ent0013"><rect fill="#FAE5D3" height="25.0938" rx="2.5" ry="2.5" style="stroke:#404040;stroke-width:0.5;" width="140.748" x="169" y="357.6094"/><text fill="#000000" font-family="sans-serif" font-size="12" lengthAdjust="spacing" textLength="134.748" x="172" y="375.0664">SubstantiveValueDomain</text></g><!--class SentinelValueDomain--><g class="entity" data-qualified-name="SentinelValueDomain" data-source-line="24" id="ent0014"><rect fill="#FAE5D3" height="25.0938" rx="2.5" ry="2.5" style="stroke:#404040;stroke-width:0.5;" width="121.4063" x="7" y="357.6094"/><text fill="#000000" font-family="sans-serif" font-size="12" lengthAdjust="spacing" textLength="115.4063" x="10" y="375.0664">SentinelValueDomain</text></g><!--class EnumerationDomain--><g class="entity" data-qualified-name="EnumerationDomain" data-source-line="25" id="ent0015"><rect fill="#FAE5D3" height="25.0938" rx="2.5" ry="2.5" style="stroke:#404040;stroke-width:0.5;" width="115.3887" x="100" y="460.6094"/><text fill="#000000" font-family="sans-serif" font-size="12" lengthAdjust="spacing" textLength="109.3887" x="103" y="478.0664">EnumerationDomain</text></g><!--class PhysicalMapping--><g class="entity" data-qualified-name="PhysicalMapping" data-source-line="26" id="ent0016"><rect fill="#FCF3CF" height="25.0938" rx="2.5" ry="2.5" style="stroke:#404040;stroke-width:0.5;" width="96.7148" x="785" y="148.6094"/><text fill="#000000" font-family="sans-serif" font-size="12" lengthAdjust="spacing" textLength="90.7148" x="788" y="166.0664">PhysicalMapping</text></g><!--class TextMapping--><g class="entity" data-qualified-name="TextMapping" data-source-line="27" id="ent0017"><rect fill="#FCF3CF" height="25.0938" rx="2.5" ry="2.5" style="stroke:#404040;stroke-width:0.5;" width="75.3691" x="915" y="253.1094"/><text fill="#000000" font-family="sans-serif" font-size="12" lengthAdjust="spacing" textLength="69.3691" x="918" y="270.5664">TextMapping</text></g><!--class LocatorMapping--><g class="entity" data-qualified-name="LocatorMapping" data-source-line="28" id="ent0018"><rect fill="#FCF3CF" height="25.0938" rx="2.5" ry="2.5" style="stroke:#404040;stroke-width:0.5;" width="92.0566" x="787.5" y="253.1094"/><text fill="#000000" font-family="sans-serif" font-size="12" lengthAdjust="spacing" textLength="86.0566" x="790.5" y="270.5664">LocatorMapping</text></g><!--class TabularTextDataSet--><g class="entity" data-qualified-name="TabularTextDataSet" data-source-line="29" id="ent0019"><rect fill="#FAE5D3" height="25.0938" rx="2.5" ry="2.5" style="stroke:#404040;stroke-width:0.5;" width="113.3848" x="921" y="148.6094"/><text fill="#000000" font-family="sans-serif" font-size="12" lengthAdjust="spacing" textLength="107.3848" x="924" y="166.0664">TabularTextDataSet</text></g><!--class StructuredDataSet--><g class="entity" data-qualified-name="StructuredDataSet" data-source-line="30" id="ent0020"><rect fill="#FAE5D3" height="25.0938" rx="2.5" ry="2.5" style="stroke:#404040;stroke-width:0.5;" width="104.7188" x="1069" y="148.6094"/><text fill="#000000" font-family="sans-serif" font-size="12" lengthAdjust="spacing" textLength="98.7188" x="1072" y="166.0664">StructuredDataSet</text></g><!--class DataFingerprint--><g class="entity" data-qualified-name="DataFingerprint" data-source-line="31" id="ent0021"><rect fill="#FCF3CF" height="25.0938" rx="2.5" ry="2.5" style="stroke:#404040;stroke-width:0.5;" width="88.7051" x="352" y="45.6094"/><text fill="#000000" font-family="sans-serif" font-size="12" lengthAdjust="spacing" textLength="82.7051" x="355" y="63.0664">DataFingerprint</text></g><!--class Concept--><g class="entity" data-qualified-name="Concept" data-source-line="32" id="ent0022"><rect fill="#FCF3CF" height="25.0938" rx="2.5" ry="2.5" style="stroke:#404040;stroke-width:0.5;" width="50.6953" x="476" y="45.6094"/><text fill="#000000" font-family="sans-serif" font-size="12" lengthAdjust="spacing" textLength="44.6953" x="479" y="63.0664">Concept</text></g><!--class Identifier--><g class="entity" data-qualified-name="Identifier" data-source-line="33" id="ent0023"><rect fill="#FCF3CF" height="25.0938" rx="2.5" ry="2.5" style="stroke:#404040;stroke-width:0.5;" width="52.0254" x="266.5" y="148.6094"/><text fill="#000000" font-family="sans-serif" font-size="12" lengthAdjust="spacing" textLength="46.0254" x="269.5" y="166.0664">Identifier</text></g><!--class DefinedTerm--><g class="entity" data-qualified-name="DefinedTerm" data-source-line="34" id="ent0024"><rect fill="#FCF3CF" height="25.0938" rx="2.5" ry="2.5" style="stroke:#404040;stroke-width:0.5;" width="75.3574" x="354" y="148.6094"/><text fill="#000000" font-family="sans-serif" font-size="12" lengthAdjust="spacing" textLength="69.3574" x="357" y="166.0664">DefinedTerm</text></g><!--reverse link AbstractVariable to InstanceVariable--><g class="link" data-entity-1="ent0002" data-entity-2="ent0003" data-link-type="extension" data-source-line="35" id="lnk25"><path codeLine="35" d="M607.2275,88.8015 C605.7075,109.5915 604.64,136.2394 608.5,173.6094 C611.48,202.5094 619.67,235.7594 624.26,252.9494" fill="none" id="AbstractVariable-backto-InstanceVariable" style="stroke:#404040;stroke-width:1.2;"/><polygon fill="none" points="608.54,70.8494,601.2435,88.364,613.2115,89.239,608.54,70.8494" style="stroke:#404040;stroke-width:1.2;"/></g><!--reverse link AbstractVariable to VariableMeasured--><g class="link" data-entity-1="ent0002" data-entity-2="ent0004" data-link-type="extension" data-source-line="36" id="lnk26"><path codeLine="36" d="M627.3574,85.6275 C640.4074,104.9975 656.46,128.8494 669.58,148.3494" fill="none" id="AbstractVariable-backto-VariableMeasured" style="stroke:#404040;stroke-width:1.2;"/><polygon fill="none" points="617.3,70.6994,622.3814,88.98,632.3334,82.275,617.3,70.6994" style="stroke:#404040;stroke-width:1.2;"/></g><!--reverse link PhysicalMapping to TextMapping--><g class="link" data-entity-1="ent0016" data-entity-2="ent0017" data-link-type="extension" data-source-line="37" id="lnk27"><path codeLine="37" d="M860.7902,185.6144 C883.7502,205.3844 916.16,233.3094 939.01,252.9894" fill="none" id="PhysicalMapping-backto-TextMapping" style="stroke:#404040;stroke-width:1.2;"/><polygon fill="none" points="847.15,173.8694,856.8752,190.1611,864.7052,181.0677,847.15,173.8694" style="stroke:#404040;stroke-width:1.2;"/></g><!--reverse link PhysicalMapping to LocatorMapping--><g class="link" data-entity-1="ent0016" data-entity-2="ent0018" data-link-type="extension" data-source-line="38" id="lnk28"><path codeLine="38" d="M833.5,191.8694 C833.5,211.6394 833.5,233.3094 833.5,252.9894" fill="none" id="PhysicalMapping-backto-LocatorMapping" style="stroke:#404040;stroke-width:1.2;"/><polygon fill="none" points="833.5,173.8694,827.5,191.8694,839.5,191.8694,833.5,173.8694" style="stroke:#404040;stroke-width:1.2;"/></g><!--reverse link DataDownload to TabularTextDataSet--><g class="link" data-entity-1="ent0005" data-entity-2="ent0019" data-link-type="extension" data-source-line="39" id="lnk29"><path codeLine="39" d="M977.5,88.6994 C977.5,108.0694 977.5,128.8494 977.5,148.3494" fill="none" id="DataDownload-backto-TabularTextDataSet" style="stroke:#404040;stroke-width:1.2;"/><polygon fill="none" points="977.5,70.6994,971.5,88.6994,983.5,88.6994,977.5,70.6994" style="stroke:#404040;stroke-width:1.2;"/></g><!--reverse link DataDownload to StructuredDataSet--><g class="link" data-entity-1="ent0005" data-entity-2="ent0020" data-link-type="extension" data-source-line="40" id="lnk30"><path codeLine="40" d="M1008.7589,81.0321 C1036.3889,100.4021 1076.93,128.8494 1104.73,148.3494" fill="none" id="DataDownload-backto-StructuredDataSet" style="stroke:#404040;stroke-width:1.2;"/><polygon fill="none" points="994.02,70.6994,1005.3147,85.945,1012.2031,76.1191,994.02,70.6994" style="stroke:#404040;stroke-width:1.2;"/></g><!--link InstanceVariable to StatisticsCollection--><g class="link" data-entity-1="ent0003" data-entity-2="ent0011" data-link-type="dependency" data-source-line="41" id="lnk31"><path codeLine="41" d="M598.13,278.1894 C584.7,285.1394 570.12,295.4294 562.5,309.6094 C552.89,327.4894 567.0354,342.4472 583.0054,353.9772" fill="none" id="InstanceVariable-to-StatisticsCollection" style="stroke:#404040;stroke-width:1.2;"/><polygon fill="#404040" points="587.87,357.4894,582.9145,348.978,583.8161,354.5626,578.2316,355.4642,587.87,357.4894" style="stroke:#404040;stroke-width:1.2;"/><text fill="#000000" font-family="sans-serif" font-size="13" lengthAdjust="spacing" textLength="83.0845" x="563.5" y="324.1045">isDescribedBy</text><text fill="#000000" font-family="sans-serif" font-size="13" lengthAdjust="spacing" textLength="21.6836" x="555.0557" y="346.5319">0..1</text></g><!--link StatisticsCollection to InstanceVariable--><g class="link" data-entity-1="ent0011" data-entity-2="ent0003" data-link-type="dependency" data-source-line="54" id="lnk44"><path codeLine="54" d="M625.37,357.3594 C635.14,350.1194 646.13,339.8794 651.5,327.6094 C658.9,310.7194 650.9745,295.538 641.4745,283.168" fill="none" id="StatisticsCollection-to-InstanceVariable" style="stroke:#404040;stroke-width:1.2;"/><polygon fill="#404040" points="637.82,278.4094,640.1294,287.9836,640.8655,282.3749,646.4742,283.1109,637.82,278.4094" style="stroke:#404040;stroke-width:1.2;"/><text fill="#000000" font-family="sans-serif" font-size="13" lengthAdjust="spacing" textLength="60.709" x="655.5" y="324.1045">indexedBy</text><text fill="#000000" font-family="sans-serif" font-size="13" lengthAdjust="spacing" textLength="19.5127" x="619.1449" y="299.622">1..*</text></g><!--link StatisticsCollection to InstanceVariable--><g class="link" data-entity-1="ent0011" data-entity-2="ent0003" data-link-type="dependency" data-source-line="55" id="lnk45"><path codeLine="55" d="M552.91,361.1994 C513.18,352.9394 469.17,337.2294 489.5,309.6094 C510.1,281.6194 542.8385,272.0079 574.0285,268.4579" fill="none" id="StatisticsCollection-to-InstanceVariable-1" style="stroke:#404040;stroke-width:1.2;"/><polygon fill="#404040" points="579.99,267.7794,570.5954,264.8228,575.0221,268.3448,571.5001,272.7715,579.99,267.7794" style="stroke:#404040;stroke-width:1.2;"/><text fill="#000000" font-family="sans-serif" font-size="13" lengthAdjust="spacing" textLength="61.4199" x="490.5" y="324.1045">hasWeight</text><text fill="#000000" font-family="sans-serif" font-size="13" lengthAdjust="spacing" textLength="21.6836" x="550.4913" y="264.4371">0..1</text></g><!--link InstanceVariable to InstanceVariable--><g class="link" data-entity-1="ent0003" data-entity-2="ent0003" data-link-type="dependency" data-source-line="42" id="lnk32"><path codeLine="42" d="M675.39,255.9094 C694.25,255.4194 710,258.6494 710,265.6094 C710,272.5694 700.248,275.9552 681.388,275.4652" fill="none" id="InstanceVariable-to-InstanceVariable" style="stroke:#404040;stroke-width:1.2;"/><polygon fill="#404040" points="675.39,275.3094,684.2831,279.5418,680.3883,275.4392,684.4909,271.5445,675.39,275.3094" style="stroke:#404040;stroke-width:1.2;"/><text fill="#000000" font-family="sans-serif" font-size="13" lengthAdjust="spacing" textLength="47.6963" x="716" y="271.1045">qualifies</text><text fill="#000000" font-family="sans-serif" font-size="13" lengthAdjust="spacing" textLength="21.6836" x="683.2558" y="273.0503">0..1</text></g><!--link InstanceVariable to SubstantiveValueDomain--><g class="link" data-entity-1="ent0003" data-entity-2="ent0013" data-link-type="dependency" data-source-line="43" id="lnk33"><path codeLine="43" d="M579.74,269.5194 C502.31,274.7994 353.23,287.5294 305.5,309.6094 C281.7,320.6194 264.2401,338.6392 252.6201,352.5892" fill="none" id="InstanceVariable-to-SubstantiveValueDomain" style="stroke:#404040;stroke-width:1.2;"/><polygon fill="#404040" points="248.78,357.1994,257.6136,352.8443,251.9801,353.3576,251.4668,347.7241,248.78,357.1994" style="stroke:#404040;stroke-width:1.2;"/><text fill="#000000" font-family="sans-serif" font-size="13" lengthAdjust="spacing" textLength="169.0825" x="306.5" y="324.1045">takesSubstantiveValuesFrom</text><text fill="#000000" font-family="sans-serif" font-size="13" lengthAdjust="spacing" textLength="21.6836" x="227.4932" y="346.7717">0..1</text></g><!--link InstanceVariable to SentinelValueDomain--><g class="link" data-entity-1="ent0003" data-entity-2="ent0014" data-link-type="dependency" data-source-line="44" id="lnk34"><path codeLine="44" d="M579.7,266.2694 C469.55,266.1894 201.22,270.1794 121.5,309.6094 C99.99,320.2494 86.1978,338.3663 77.3678,352.4463" fill="none" id="InstanceVariable-to-SentinelValueDomain" style="stroke:#404040;stroke-width:1.2;"/><polygon fill="#404040" points="74.18,357.5294,82.3504,352.0299,76.8365,353.2934,75.5729,347.7795,74.18,357.5294" style="stroke:#404040;stroke-width:1.2;"/><text fill="#000000" font-family="sans-serif" font-size="13" lengthAdjust="spacing" textLength="148.1289" x="122.5" y="324.1045">takesSentinelValuesFrom</text><text fill="#000000" font-family="sans-serif" font-size="13" lengthAdjust="spacing" textLength="19.5127" x="54.0387" y="346.5884">0..*</text></g><!--link VariableMeasured to InstanceVariable--><g class="link" data-entity-1="ent0004" data-entity-2="ent0003" data-link-type="dependency" data-source-line="45" id="lnk35"><path codeLine="45" d="M671.76,173.8694 C662.12,193.6394 645.4005,227.9168 635.8005,247.5968" fill="none" id="VariableMeasured-to-InstanceVariable" style="stroke:#404040;stroke-width:1.2;"/><polygon fill="#404040" points="633.17,252.9894,640.7109,246.6542,635.3621,248.4955,633.5207,243.1468,633.17,252.9894" style="stroke:#404040;stroke-width:1.2;"/><text fill="#000000" font-family="sans-serif" font-size="13" lengthAdjust="spacing" textLength="55.6372" x="658.5" y="218.1045">describes</text><text fill="#000000" font-family="sans-serif" font-size="13" lengthAdjust="spacing" textLength="21.6836" x="610.238" y="242.0319">0..1</text></g><!--link DataDownload to PhysicalMapping--><g class="link" data-entity-1="ent0005" data-entity-2="ent0016" data-link-type="dependency" data-source-line="46" id="lnk36"><path codeLine="46" d="M934.7,62.3394 C906.46,66.7194 870.71,76.9294 848.5,100.6094 C836.26,113.6694 833.7827,129.2116 833.4227,142.4816" fill="none" id="DataDownload-to-PhysicalMapping" style="stroke:#404040;stroke-width:1.2;"/><polygon fill="#404040" points="833.26,148.4794,837.5026,139.5912,833.3956,143.4812,829.5055,139.3742,833.26,148.4794" style="stroke:#404040;stroke-width:1.2;"/><text fill="#000000" font-family="sans-serif" font-size="13" lengthAdjust="spacing" textLength="119.2344" x="849.5" y="115.1045">hasPhysicalMapping</text><text fill="#000000" font-family="sans-serif" font-size="13" lengthAdjust="spacing" textLength="19.5127" x="810.4068" y="137.5178">0..*</text></g><!--link PrimaryKey to PrimaryKeyComponent--><g class="link" data-entity-1="ent0006" data-entity-2="ent0007" data-link-type="dependency" data-source-line="47" id="lnk37"><path codeLine="47" d="M1274.5,70.6994 C1274.5,90.0694 1274.5,122.8494 1274.5,142.3494" fill="none" id="PrimaryKey-to-PrimaryKeyComponent" style="stroke:#404040;stroke-width:1.2;"/><polygon fill="#404040" points="1274.5,148.3494,1278.5,139.3494,1274.5,143.3494,1270.5,139.3494,1274.5,148.3494" style="stroke:#404040;stroke-width:1.2;"/><text fill="#000000" font-family="sans-serif" font-size="13" lengthAdjust="spacing" textLength="85.979" x="1275.5" y="115.1045">isComposedOf</text><text fill="#000000" font-family="sans-serif" font-size="13" lengthAdjust="spacing" textLength="19.5127" x="1251.8507" y="137.721">1..*</text></g><!--link Statistics to InstanceVariable--><g class="link" data-entity-1="ent0009" data-entity-2="ent0003" data-link-type="dependency" data-source-line="48" id="lnk38"><path codeLine="48" d="M821.02,460.2194 C809.4,430.8694 775.62,354.0894 724.5,309.6094 C708.1,295.3394 691.8437,287.1538 673.0137,280.2538" fill="none" id="Statistics-to-InstanceVariable" style="stroke:#404040;stroke-width:1.2;"/><polygon fill="#404040" points="667.38,278.1894,674.4543,285.0417,672.0747,279.9097,677.2068,277.5302,667.38,278.1894" style="stroke:#404040;stroke-width:1.2;"/><text fill="#000000" font-family="sans-serif" font-size="13" lengthAdjust="spacing" textLength="56.3672" x="783.5" y="375.6045">appliesTo</text><text fill="#000000" font-family="sans-serif" font-size="13" lengthAdjust="spacing" textLength="19.5127" x="659.9856" y="299.5798">1..*</text></g><!--link Statistics to InstanceVariable--><g class="link" data-entity-1="ent0009" data-entity-2="ent0003" data-link-type="dependency" data-source-line="49" id="lnk39"><path codeLine="49" d="M832.83,460.4894 C845.54,438.7294 868.45,391.0394 848.5,357.6094 C812.77,297.7494 734.7092,278.0483 681.1692,271.0383" fill="none" id="Statistics-to-InstanceVariable-1" style="stroke:#404040;stroke-width:1.2;"/><polygon fill="#404040" points="675.22,270.2594,683.6245,275.3939,680.1777,270.9085,684.6631,267.4616,675.22,270.2594" style="stroke:#404040;stroke-width:1.2;"/><text fill="#000000" font-family="sans-serif" font-size="13" lengthAdjust="spacing" textLength="61.4199" x="857.5" y="375.6045">hasWeight</text><text fill="#000000" font-family="sans-serif" font-size="13" lengthAdjust="spacing" textLength="21.6836" x="683.4278" y="285.5515">0..1</text></g><!--link Statistics to CategoryStatistics--><g class="link" data-entity-1="ent0009" data-entity-2="ent0010" data-link-type="dependency" data-source-line="50" id="lnk40"><path codeLine="50" d="M833.76,485.6994 C847.57,505.0694 871.7373,538.9636 885.6373,558.4636" fill="none" id="Statistics-to-CategoryStatistics" style="stroke:#404040;stroke-width:1.2;"/><polygon fill="#404040" points="889.12,563.3494,887.1532,553.6989,886.2178,559.2779,880.6388,558.3425,889.12,563.3494" style="stroke:#404040;stroke-width:1.2;"/><text fill="#000000" font-family="sans-serif" font-size="13" lengthAdjust="spacing" textLength="20.96" x="867.5" y="530.1045">has</text><text fill="#000000" font-family="sans-serif" font-size="13" lengthAdjust="spacing" textLength="19.5127" x="863.2391" y="552.721">0..*</text></g><!--link CategoryStatistics to Category--><g class="link" data-entity-1="ent0010" data-entity-2="ent0012" data-link-type="dependency" data-source-line="51" id="lnk41"><path codeLine="51" d="M897.5,588.6994 C897.5,608.0694 897.5,640.8494 897.5,660.3494" fill="none" id="CategoryStatistics-to-Category" style="stroke:#404040;stroke-width:1.2;"/><polygon fill="#404040" points="897.5,666.3494,901.5,657.3494,897.5,661.3494,893.5,657.3494,897.5,666.3494" style="stroke:#404040;stroke-width:1.2;"/><text fill="#000000" font-family="sans-serif" font-size="13" lengthAdjust="spacing" textLength="15.1709" x="898.5" y="633.1045">for</text><text fill="#000000" font-family="sans-serif" font-size="13" lengthAdjust="spacing" textLength="7.23" x="889.2279" y="655.721">1</text></g><!--link CategoryStatistics to InstanceVariable--><g class="link" data-entity-1="ent0010" data-entity-2="ent0003" data-link-type="dependency" data-source-line="52" id="lnk42"><path codeLine="52" d="M904.03,563.2194 C922.06,528.6694 968.52,426.3494 927.5,357.6094 C901.38,313.8494 758.8987,286.3418 681.0687,274.2318" fill="none" id="CategoryStatistics-to-InstanceVariable" style="stroke:#404040;stroke-width:1.2;"/><polygon fill="#404040" points="675.14,273.3094,683.418,278.6455,680.0806,274.0781,684.648,270.7406,675.14,273.3094" style="stroke:#404040;stroke-width:1.2;"/><text fill="#000000" font-family="sans-serif" font-size="13" lengthAdjust="spacing" textLength="61.4199" x="945.5" y="427.1045">hasWeight</text><text fill="#000000" font-family="sans-serif" font-size="13" lengthAdjust="spacing" textLength="21.6836" x="683.5031" y="299.2698">0..1</text></g><!--link StatisticsCollection to Statistics--><g class="link" data-entity-1="ent0011" data-entity-2="ent0009" data-link-type="dependency" data-source-line="53" id="lnk43"><path codeLine="53" d="M629.06,382.6794 C653.23,394.9594 692.8,414.7494 727.5,430.6094 C751.19,441.4394 772.9723,450.644 792.7323,458.784" fill="none" id="StatisticsCollection-to-Statistics" style="stroke:#404040;stroke-width:1.2;"/><polygon fill="#404040" points="798.28,461.0694,791.482,453.9429,793.6569,459.1649,788.4349,461.3398,798.28,461.0694" style="stroke:#404040;stroke-width:1.2;"/><text fill="#000000" font-family="sans-serif" font-size="13" lengthAdjust="spacing" textLength="20.96" x="728.5" y="427.1045">has</text><text fill="#000000" font-family="sans-serif" font-size="13" lengthAdjust="spacing" textLength="19.5127" x="770.8464" y="453.9601">1..*</text></g><!--link SubstantiveValueDomain to EnumerationDomain--><g class="link" data-entity-1="ent0013" data-entity-2="ent0015" data-link-type="dependency" data-source-line="56" id="lnk46"><path codeLine="56" d="M230.09,382.6994 C214.36,402.0694 186.6616,436.1911 170.8316,455.6911" fill="none" id="SubstantiveValueDomain-to-EnumerationDomain" style="stroke:#404040;stroke-width:1.2;"/><polygon fill="#404040" points="167.05,460.3494,175.8279,455.883,170.2013,456.4675,169.6168,450.8409,167.05,460.3494" style="stroke:#404040;stroke-width:1.2;"/><text fill="#000000" font-family="sans-serif" font-size="13" lengthAdjust="spacing" textLength="101.1499" x="204.5" y="427.1045">takesValuesFrom</text><text fill="#000000" font-family="sans-serif" font-size="13" lengthAdjust="spacing" textLength="21.6836" x="145.734" y="449.721">0..1</text></g><!--link SentinelValueDomain to EnumerationDomain--><g class="link" data-entity-1="ent0014" data-entity-2="ent0015" data-link-type="dependency" data-source-line="57" id="lnk47"><path codeLine="57" d="M68,382.7994 C69.11,395.7394 72.6,416.5994 83.5,430.6094 C93.99,444.0994 104.7151,451.3805 119.2751,458.0505" fill="none" id="SentinelValueDomain-to-EnumerationDomain" style="stroke:#404040;stroke-width:1.2;"/><polygon fill="#404040" points="124.73,460.5494,118.2136,453.1645,120.1843,458.467,114.8818,460.4376,124.73,460.5494" style="stroke:#404040;stroke-width:1.2;"/><text fill="#000000" font-family="sans-serif" font-size="13" lengthAdjust="spacing" textLength="101.1499" x="84.5" y="427.1045">takesValuesFrom</text><text fill="#000000" font-family="sans-serif" font-size="13" lengthAdjust="spacing" textLength="21.6836" x="85.942" y="449.6167">0..1</text></g><!--link PhysicalMapping to InstanceVariable--><g class="link" data-entity-1="ent0016" data-entity-2="ent0003" data-link-type="dependency" data-source-line="58" id="lnk48"><path codeLine="58" d="M812.85,173.7194 C790.72,186.0294 754.46,205.8294 722.5,221.6094 C699.77,232.8294 678.9846,242.2292 659.8346,250.6292" fill="none" id="PhysicalMapping-to-InstanceVariable" style="stroke:#404040;stroke-width:1.2;"/><polygon fill="#404040" points="654.34,253.0394,664.1887,253.0872,658.9189,251.0309,660.9752,245.761,654.34,253.0394" style="stroke:#404040;stroke-width:1.2;"/><text fill="#000000" font-family="sans-serif" font-size="13" lengthAdjust="spacing" textLength="43.3418" x="757.5" y="218.1045">formats</text><text fill="#000000" font-family="sans-serif" font-size="13" lengthAdjust="spacing" textLength="7.23" x="656.9346" y="242.1025">1</text></g><?plantuml-src bLNDRjim3BxhAOJqDY15qswNO1ZG9ZLGRCK69DZEZCqqGcN9a-IasG-mXzWJxaacMquYItAtmXVh8p-IraVIXXcET3Q_o-PWO8uwLwmoJ0hwvzTlAhUejWntPCCAf3bJEKVtZcLbzhJ4SeLA4_t8H0KAIgetKCWT4mzq3LoZPxbMIkwM6vO_2jIQJiulFMFEmMBV2NLkCycbecUlBvh7WZTI5QX2D9F2BDWtf9DByfCGM6cZ83TTiD5rT_uCYi6AuuY2fY58px9PTZNBI4Uw4zg0oB572a5BkhvzCxywa0xuFOAk5HOjAGJ3JErzovtW4Xp11qBdJugLeFRlST-wdevXAIVBJ9QL52XCm3ZY8NLXm31jMDuIZgUmbAD1z_rqw3W3WmzIxGD230zdi8fpp9js37AT34DPUxcY3FMgKTImhTMKrpYN9R0kHz8KtPMzFoQGH-mO3wcteYvHGLExHupGIDZDNhCS-3rKbHql9seV2xzoYK_6T_VEeUi7cOEHolVkGr5iMDKSL1EowTi5kZQBuRZBL9sRPY1yNeI6j0RER1seAiMwdWwmg1Ea7TdAkNRlqRGNZLvhXihD-V4O3IkkhQp54bNfKf_EHzTejRpzCHv7ksF0BTmM9DIszV8KJ3lqHIEzbU8YH08bd28rIBG1n-DtT7HnVZuPfQToIfbsVvCL5ZVxPmD4jYdzMWDlXD3FPqxFwfGQU4GTMdMcP3aSxzKeERs7OBx9HOeM_FEVL7IteViNxgKF5PtI3UW09DxgRwaJHqsizqQ2zgIn-BWcthxrY8b2RI9kRtuf8yhWjzawlo1xs9WKnMP9xFoMH186Lzo9OptNKWrwlgWchq6zEuYg-XSXaOs90f_QJXyc_q-fwOxswF6FekjGhpDJVVp2464l7bH9L6_LAS5eyXS0?></g></svg>