<svg xmlns="http://www.w3.org/2000/svg" xmlns:xlink="http://www.w3.org/1999/xlink" contentStyleType="text/css" data-diagram-type="CLASS" height="1832px" preserveAspectRatio="none" style="width:1691px;height:1832px;background:#FFFFFF;" version="1.1" viewBox="0 0 1691 1832" width="1691px" zoomAndPan="magnify"><?plantuml 1.2026.3?><defs/><g><g class="title" data-source-line="1"><text fill="#000000" font-family="sans-serif" font-size="14" font-weight="700" lengthAdjust="spacing" textLength="222.1611" x="731.0132" y="24.5332">CDIFDataDescription &#8212; overview</text></g><!--class Dataset--><g class="entity" data-qualified-name="Dataset" data-source-line="16" id="ent0002"><rect fill="#FEFECE" height="47.7344" rx="2.5" ry="2.5" style="stroke:#404040;stroke-width:0.5;" width="109.3887" x="832.5" y="45.6094"/><text fill="#000000" font-family="sans-serif" font-size="30" lengthAdjust="spacing" textLength="103.3887" x="835.5" y="81.752">Dataset</text></g><!--class CatalogRecord--><g class="entity" data-qualified-name="CatalogRecord" data-source-line="17" id="ent0003"><rect fill="#FEFECE" height="47.7344" rx="2.5" ry="2.5" style="stroke:#404040;stroke-width:0.5;" width="206.1123" x="7" y="390.6094"/><text fill="#000000" font-family="sans-serif" font-size="30" lengthAdjust="spacing" textLength="200.1123" x="10" y="426.752">CatalogRecord</text></g><!--class DataDownload--><g class="entity" data-qualified-name="DataDownload" data-source-line="18" id="ent0004"><rect fill="#FEFECE" height="47.7344" rx="2.5" ry="2.5" style="stroke:#404040;stroke-width:0.5;" width="202.7871" x="701.5" y="390.6094"/><text fill="#000000" font-family="sans-serif" font-size="30" lengthAdjust="spacing" textLength="196.7871" x="704.5" y="426.752">DataDownload</text></g><!--class WebAPI--><g class="entity" data-qualified-name="WebAPI" data-source-line="19" id="ent0005"><rect fill="#FCF3CF" height="47.7344" rx="2.5" ry="2.5" style="stroke:#404040;stroke-width:0.5;" width="116.0391" x="956" y="390.6094"/><text fill="#000000" font-family="sans-serif" font-size="30" lengthAdjust="spacing" textLength="110.0391" x="959" y="426.752">WebAPI</text></g><!--class ActionResult--><g class="entity" data-qualified-name="ActionResult" data-source-line="20" id="ent0006"><rect fill="#FCF3CF" height="47.7344" rx="2.5" ry="2.5" style="stroke:#404040;stroke-width:0.5;" width="174.4131" x="1451" y="735.6094"/><text fill="#000000" font-family="sans-serif" font-size="30" lengthAdjust="spacing" textLength="168.4131" x="1454" y="771.752">ActionResult</text></g><!--class InstanceVariable--><g class="entity" data-qualified-name="InstanceVariable" data-source-line="21" id="ent0007"><rect fill="#FCF3CF" height="47.7344" rx="2.5" ry="2.5" style="stroke:#404040;stroke-width:0.5;" width="229.4766" x="343.5" y="1425.6094"/><text fill="#000000" font-family="sans-serif" font-size="30" lengthAdjust="spacing" textLength="223.4766" x="346.5" y="1461.752">InstanceVariable</text></g><!--class AbstractMapping--><g class="entity" data-qualified-name="AbstractMapping" data-source-line="22" id="ent0008"><rect fill="#FCF3CF" height="47.7344" rx="2.5" ry="2.5" style="stroke:#404040;stroke-width:0.5;" width="231.1172" x="983.5" y="1080.6094"/><text fill="#000000" font-family="sans-serif" font-size="30" font-style="italic" lengthAdjust="spacing" textLength="225.1172" x="986.5" y="1116.752">AbstractMapping</text></g><!--class PhysicalMapping--><g class="entity" data-qualified-name="PhysicalMapping" data-source-line="23" id="ent0009"><rect fill="#FCF3CF" height="47.7344" rx="2.5" ry="2.5" style="stroke:#404040;stroke-width:0.5;" width="232.7871" x="756.5" y="1425.6094"/><text fill="#000000" font-family="sans-serif" font-size="30" lengthAdjust="spacing" textLength="226.7871" x="759.5" y="1461.752">PhysicalMapping</text></g><!--class TextMapping--><g class="entity" data-qualified-name="TextMapping" data-source-line="24" id="ent0010"><rect fill="#FCF3CF" height="47.7344" rx="2.5" ry="2.5" style="stroke:#404040;stroke-width:0.5;" width="179.4229" x="1009.5" y="1425.6094"/><text fill="#000000" font-family="sans-serif" font-size="30" lengthAdjust="spacing" textLength="173.4229" x="1012.5" y="1461.752">TextMapping</text></g><!--class LocatorMapping--><g class="entity" data-qualified-name="LocatorMapping" data-source-line="25" id="ent0011"><rect fill="#FCF3CF" height="47.7344" rx="2.5" ry="2.5" style="stroke:#404040;stroke-width:0.5;" width="221.1416" x="1208.5" y="1425.6094"/><text fill="#000000" font-family="sans-serif" font-size="30" lengthAdjust="spacing" textLength="215.1416" x="1211.5" y="1461.752">LocatorMapping</text></g><!--class AbstractDataSet--><g class="entity" data-qualified-name="AbstractDataSet" data-source-line="26" id="ent0012"><rect fill="#FCF3CF" height="47.7344" rx="2.5" ry="2.5" style="stroke:#404040;stroke-width:0.5;" width="224.4375" x="588" y="735.6094"/><text fill="#000000" font-family="sans-serif" font-size="30" font-style="italic" lengthAdjust="spacing" textLength="218.4375" x="591" y="771.752">AbstractDataSet</text></g><!--class TabularTextDataSet--><g class="entity" data-qualified-name="TabularTextDataSet" data-source-line="27" id="ent0013"><rect fill="#FCF3CF" height="47.7344" rx="2.5" ry="2.5" style="stroke:#404040;stroke-width:0.5;" width="274.4619" x="644" y="1080.6094"/><text fill="#000000" font-family="sans-serif" font-size="30" lengthAdjust="spacing" textLength="268.4619" x="647" y="1116.752">TabularTextDataSet</text></g><!--class StructuredDataSet--><g class="entity" data-qualified-name="StructuredDataSet" data-source-line="28" id="ent0014"><rect fill="#FCF3CF" height="47.7344" rx="2.5" ry="2.5" style="stroke:#404040;stroke-width:0.5;" width="252.7969" x="370.5" y="1080.6094"/><text fill="#000000" font-family="sans-serif" font-size="30" lengthAdjust="spacing" textLength="246.7969" x="373.5" y="1116.752">StructuredDataSet</text></g><!--class DataFingerprint--><g class="entity" data-qualified-name="DataFingerprint" data-source-line="29" id="ent0015"><rect fill="#FCF3CF" height="47.7344" rx="2.5" ry="2.5" style="stroke:#404040;stroke-width:0.5;" width="212.7627" x="832.5" y="735.6094"/><text fill="#000000" font-family="sans-serif" font-size="30" lengthAdjust="spacing" textLength="206.7627" x="835.5" y="771.752">DataFingerprint</text></g><!--class PrimaryKey--><g class="entity" data-qualified-name="PrimaryKey" data-source-line="30" id="ent0016"><rect fill="#FAE5D3" height="47.7344" rx="2.5" ry="2.5" style="stroke:#404040;stroke-width:0.5;" width="161.0244" x="1108.5" y="390.6094"/><text fill="#000000" font-family="sans-serif" font-size="30" lengthAdjust="spacing" textLength="155.0244" x="1111.5" y="426.752">PrimaryKey</text></g><!--class Statistics--><g class="entity" data-qualified-name="Statistics" data-source-line="31" id="ent0017"><rect fill="#FCF3CF" height="47.7344" rx="2.5" ry="2.5" style="stroke:#404040;stroke-width:0.5;" width="126.0293" x="1397" y="390.6094"/><text fill="#000000" font-family="sans-serif" font-size="30" lengthAdjust="spacing" textLength="120.0293" x="1400" y="426.752">Statistics</text></g><!--class SubstantiveValueDomain--><g class="entity" data-qualified-name="SubstantiveValueDomain" data-source-line="32" id="ent0018"><rect fill="#FAE5D3" height="47.7344" rx="2.5" ry="2.5" style="stroke:#404040;stroke-width:0.5;" width="342.8701" x="39.5" y="1770.6094"/><text fill="#000000" font-family="sans-serif" font-size="30" lengthAdjust="spacing" textLength="336.8701" x="42.5" y="1806.752">SubstantiveValueDomain</text></g><!--class SentinelValueDomain--><g class="entity" data-qualified-name="SentinelValueDomain" data-source-line="33" id="ent0019"><rect fill="#FAE5D3" height="47.7344" rx="2.5" ry="2.5" style="stroke:#404040;stroke-width:0.5;" width="294.5156" x="558.5" y="1770.6094"/><text fill="#000000" font-family="sans-serif" font-size="30" lengthAdjust="spacing" textLength="288.5156" x="561.5" y="1806.752">SentinelValueDomain</text></g><!--reverse link AbstractMapping to PhysicalMapping--><g class="link" data-entity-1="ent0008" data-entity-2="ent0009" data-link-type="extension" data-source-line="34" id="lnk20"><path codeLine="34" d="M1073.9162,1143.6799 C1032.8462,1206.0099 929.75,1362.4794 888.41,1425.2194" fill="none" id="AbstractMapping-backto-PhysicalMapping" style="stroke:#404040;stroke-width:1.2;"/><polygon fill="none" points="1083.82,1128.6494,1068.9061,1140.3786,1078.9264,1146.9811,1083.82,1128.6494" style="stroke:#404040;stroke-width:1.2;"/></g><!--reverse link AbstractMapping to TextMapping--><g class="link" data-entity-1="ent0008" data-entity-2="ent0010" data-link-type="extension" data-source-line="35" id="lnk21"><path codeLine="35" d="M1099,1146.6494 C1099,1208.9794 1099,1362.4794 1099,1425.2194" fill="none" id="AbstractMapping-backto-TextMapping" style="stroke:#404040;stroke-width:1.2;"/><polygon fill="none" points="1099,1128.6494,1093,1146.6494,1105,1146.6494,1099,1128.6494" style="stroke:#404040;stroke-width:1.2;"/></g><!--reverse link AbstractMapping to LocatorMapping--><g class="link" data-entity-1="ent0008" data-entity-2="ent0011" data-link-type="extension" data-source-line="36" id="lnk22"><path codeLine="36" d="M1123.4983,1143.8005 C1163.4783,1206.1305 1263.75,1362.4794 1304,1425.2194" fill="none" id="AbstractMapping-backto-LocatorMapping" style="stroke:#404040;stroke-width:1.2;"/><polygon fill="none" points="1113.78,1128.6494,1118.4479,1147.0399,1128.5486,1140.561,1113.78,1128.6494" style="stroke:#404040;stroke-width:1.2;"/></g><!--reverse link AbstractDataSet to TabularTextDataSet--><g class="link" data-entity-1="ent0012" data-entity-2="ent0013" data-link-type="extension" data-source-line="37" id="lnk23"><path codeLine="37" d="M709.5771,801.1675 C724.2971,863.4975 760.66,1017.4794 775.48,1080.2194" fill="none" id="AbstractDataSet-backto-TabularTextDataSet" style="stroke:#404040;stroke-width:1.2;"/><polygon fill="none" points="705.44,783.6494,703.7377,802.5465,715.4165,799.7884,705.44,783.6494" style="stroke:#404040;stroke-width:1.2;"/></g><!--reverse link AbstractDataSet to StructuredDataSet--><g class="link" data-entity-1="ent0012" data-entity-2="ent0014" data-link-type="extension" data-source-line="38" id="lnk24"><path codeLine="38" d="M677.2002,799.1386 C640.3002,861.4686 547.98,1017.4794 510.84,1080.2194" fill="none" id="AbstractDataSet-backto-StructuredDataSet" style="stroke:#404040;stroke-width:1.2;"/><polygon fill="none" points="686.37,783.6494,672.0372,796.082,682.3633,802.1952,686.37,783.6494" style="stroke:#404040;stroke-width:1.2;"/></g><!--reverse link Dataset to CatalogRecord--><g class="link" data-entity-1="ent0002" data-entity-2="ent0003" data-link-type="composition" data-source-line="39" id="lnk25"><path codeLine="39" d="M820.2695,72.8378 C658.8795,79.2778 202.42,106.9294 110,218.6094 C69.32,267.7694 88.55,350.2594 101.51,390.3394" fill="none" id="Dataset-backto-CatalogRecord" style="stroke:#404040;stroke-width:1.2;"/><polygon fill="#404040" points="832.26,72.3594,826.1053,68.6018,820.2695,72.8378,826.4243,76.5954,832.26,72.3594" style="stroke:#404040;stroke-width:1.2;"/><text fill="#000000" font-family="sans-serif" font-size="36" lengthAdjust="spacing" textLength="152.0684" x="111" y="256.9805">subjectOf</text><text fill="#000000" font-family="sans-serif" font-size="36" lengthAdjust="spacing" textLength="20.0215" x="78.3242" y="374.7189">1</text></g><!--reverse link Dataset to InstanceVariable--><g class="link" data-entity-1="ent0002" data-entity-2="ent0007" data-link-type="composition" data-source-line="40" id="lnk26"><path codeLine="40" d="M820.4053,76.9013 C671.2053,93.6913 280,161.0794 280,413.6094 C280,413.6094 280,413.6094 280,1105.6094 C280,1239.4494 388.1,1372.9894 435.82,1425.4194" fill="none" id="Dataset-backto-InstanceVariable" style="stroke:#404040;stroke-width:1.2;"/><polygon fill="#404040" points="832.33,75.5594,825.9203,72.2554,820.4053,76.9013,826.8149,80.2053,832.33,75.5594" style="stroke:#404040;stroke-width:1.2;"/><text fill="#000000" font-family="sans-serif" font-size="36" lengthAdjust="spacing" textLength="286.1543" x="281" y="774.4805">variableMeasured</text><text fill="#000000" font-family="sans-serif" font-size="36" lengthAdjust="spacing" textLength="54.0352" x="373.3293" y="1409.8126">1..*</text></g><!--reverse link Dataset to PrimaryKey--><g class="link" data-entity-1="ent0002" data-entity-2="ent0016" data-link-type="composition" data-source-line="41" id="lnk27"><path codeLine="41" d="M953.2688,87.7611 C1016.6988,106.6911 1107.67,143.8594 1160,218.6094 C1196.81,271.1794 1195.25,351.3494 1191.79,390.4894" fill="none" id="Dataset-backto-PrimaryKey" style="stroke:#404040;stroke-width:1.2;"/><polygon fill="#404040" points="941.77,84.3294,946.3755,89.8782,953.2688,87.7611,948.6633,82.2123,941.77,84.3294" style="stroke:#404040;stroke-width:1.2;"/><text fill="#000000" font-family="sans-serif" font-size="36" lengthAdjust="spacing" textLength="244.0723" x="1182" y="256.9805">hasPrimaryKey</text><text fill="#000000" font-family="sans-serif" font-size="36" lengthAdjust="spacing" textLength="60.0469" x="1126.9452" y="374.605">0..1</text></g><!--reverse link Dataset to Statistics--><g class="link" data-entity-1="ent0002" data-entity-2="ent0017" data-link-type="composition" data-source-line="42" id="lnk28"><path codeLine="42" d="M953.5726,79.4942 C1078.3726,97.0842 1366.56,144.6194 1432,218.6094 C1474.82,267.0294 1469.68,350.2394 1464.05,390.4794" fill="none" id="Dataset-backto-Statistics" style="stroke:#404040;stroke-width:1.2;"/><polygon fill="#404040" points="941.69,77.8194,947.073,82.6176,953.5726,79.4942,948.1895,74.6959,941.69,77.8194" style="stroke:#404040;stroke-width:1.2;"/><text fill="#000000" font-family="sans-serif" font-size="36" lengthAdjust="spacing" textLength="138.0234" x="1458" y="256.9805">statistics</text><text fill="#000000" font-family="sans-serif" font-size="36" lengthAdjust="spacing" textLength="54.0352" x="1405.9626" y="374.5932">0..*</text></g><!--reverse link Dataset to DataDownload--><g class="link" data-entity-1="ent0002" data-entity-2="ent0004" data-link-type="composition" data-source-line="43" id="lnk29"><path codeLine="43" d="M856.6211,102.8067 C832.0811,130.1267 802.16,169.0894 787,218.6094 C768.65,278.5394 785.06,353.3694 795.66,390.4994" fill="none" id="Dataset-backto-DataDownload" style="stroke:#404040;stroke-width:1.2;"/><polygon fill="#404040" points="864.64,93.8794,857.6548,95.6701,856.6211,102.8067,863.6063,101.016,864.64,93.8794" style="stroke:#404040;stroke-width:1.2;"/><text fill="#000000" font-family="sans-serif" font-size="36" lengthAdjust="spacing" textLength="174.0938" x="788" y="256.9805">distribution</text><text fill="#000000" font-family="sans-serif" font-size="36" lengthAdjust="spacing" textLength="54.0352" x="735.5653" y="374.6168">0..*</text></g><!--reverse link Dataset to WebAPI--><g class="link" data-entity-1="ent0002" data-entity-2="ent0005" data-link-type="composition" data-source-line="44" id="lnk30"><path codeLine="44" d="M907.2618,103.9845 C924.1918,132.4645 946.36,172.4894 964,218.6094 C987.04,278.8394 1002.84,353.5394 1009.87,390.5694" fill="none" id="Dataset-backto-WebAPI" style="stroke:#404040;stroke-width:1.2;"/><polygon fill="#404040" points="901.13,93.6694,900.7576,100.8709,907.2618,103.9845,907.6343,96.783,901.13,93.6694" style="stroke:#404040;stroke-width:1.2;"/><text fill="#000000" font-family="sans-serif" font-size="36" lengthAdjust="spacing" textLength="174.0938" x="980" y="256.9805">distribution</text><text fill="#000000" font-family="sans-serif" font-size="36" lengthAdjust="spacing" textLength="54.0352" x="950.3246" y="374.6992">0..*</text></g><!--reverse link DataDownload to AbstractMapping--><g class="link" data-entity-1="ent0004" data-entity-2="ent0008" data-link-type="composition" data-source-line="45" id="lnk31"><path codeLine="45" d="M906.5572,442.445 C970.2372,463.615 1039.17,498.1494 1080,563.6094 C1107.61,607.8894 1101.58,983.1194 1099.53,1080.5594" fill="none" id="DataDownload-backto-AbstractMapping" style="stroke:#404040;stroke-width:1.2;"/><polygon fill="#404040" points="895.17,438.6594,899.6017,444.3479,906.5572,442.445,902.1255,436.7564,895.17,438.6594" style="stroke:#404040;stroke-width:1.2;"/><text fill="#000000" font-family="sans-serif" font-size="36" lengthAdjust="spacing" textLength="330.1875" x="1102" y="774.4805">hasPhysicalMapping</text><text fill="#000000" font-family="sans-serif" font-size="36" lengthAdjust="spacing" textLength="54.0352" x="1040.8077" y="1064.6875">0..*</text></g><!--reverse link DataDownload to AbstractDataSet--><g class="link" data-entity-1="ent0004" data-entity-2="ent0012" data-link-type="aggregation" data-source-line="46" id="lnk32"><path codeLine="46" d="M767.3644,447.004 C738.7044,473.734 703.79,512.4094 686,563.6094 C665.44,622.7594 681.79,697.9394 692.52,735.3194" fill="none" id="DataDownload-backto-AbstractDataSet" style="stroke:#404040;stroke-width:1.2;"/><polygon fill="none" points="776.14,438.8194,769.024,439.9865,767.3644,447.004,774.4804,445.8369,776.14,438.8194" style="stroke:#404040;stroke-width:1.2;"/><text fill="#000000" font-family="sans-serif" font-size="36" lengthAdjust="spacing" textLength="208.1074" x="687" y="601.9805">alsoTypedAs</text><text fill="#000000" font-family="sans-serif" font-size="36" lengthAdjust="spacing" textLength="60.0469" x="626.0446" y="719.6954">0..1</text></g><!--reverse link DataDownload to DataFingerprint--><g class="link" data-entity-1="ent0004" data-entity-2="ent0015" data-link-type="composition" data-source-line="47" id="lnk33"><path codeLine="47" d="M828.7072,448.321 C850.0472,476.301 877.49,516.0094 897,563.6094 C921.23,622.7294 932.35,697.9194 936.67,735.3094" fill="none" id="DataDownload-backto-DataFingerprint" style="stroke:#404040;stroke-width:1.2;"/><polygon fill="#404040" points="821.43,438.7794,821.8881,445.9759,828.7072,448.321,828.2491,441.1244,821.43,438.7794" style="stroke:#404040;stroke-width:1.2;"/><text fill="#000000" font-family="sans-serif" font-size="36" lengthAdjust="spacing" textLength="160.084" x="914" y="601.9805">fingerprint</text><text fill="#000000" font-family="sans-serif" font-size="36" lengthAdjust="spacing" textLength="60.0469" x="871.1377" y="719.6837">0..1</text></g><!--reverse link WebAPI to ActionResult--><g class="link" data-entity-1="ent0005" data-entity-2="ent0006" data-link-type="composition" data-source-line="48" id="lnk34"><path codeLine="48" d="M1059.2305,445.2212 C1154.5805,507.6312 1407.05,672.8894 1502.61,735.4494" fill="none" id="WebAPI-backto-ActionResult" style="stroke:#404040;stroke-width:1.2;"/><polygon fill="#404040" points="1049.19,438.6494,1052.0196,445.2821,1059.2305,445.2212,1056.4008,438.5885,1049.19,438.6494" style="stroke:#404040;stroke-width:1.2;"/><text fill="#000000" font-family="sans-serif" font-size="36" lengthAdjust="spacing" textLength="338.2031" x="1308" y="601.9805">potentialActionResult</text><text fill="#000000" font-family="sans-serif" font-size="36" lengthAdjust="spacing" textLength="54.0352" x="1437.4631" y="719.5579">0..*</text></g><!--reverse link ActionResult to AbstractMapping--><g class="link" data-entity-1="ent0006" data-entity-2="ent0008" data-link-type="composition" data-source-line="49" id="lnk35"><path codeLine="49" d="M1499.0544,791.038 C1419.1844,853.448 1208.71,1017.8894 1128.65,1080.4494" fill="none" id="ActionResult-backto-AbstractMapping" style="stroke:#404040;stroke-width:1.2;"/><polygon fill="#404040" points="1508.51,783.6494,1501.3193,784.1918,1499.0544,791.038,1506.245,790.4955,1508.51,783.6494" style="stroke:#404040;stroke-width:1.2;"/><text fill="#000000" font-family="sans-serif" font-size="36" lengthAdjust="spacing" textLength="330.1875" x="1345" y="946.9805">hasPhysicalMapping</text><text fill="#000000" font-family="sans-serif" font-size="36" lengthAdjust="spacing" textLength="54.0352" x="1138.7335" y="1064.5579">0..*</text></g><!--link InstanceVariable to SubstantiveValueDomain--><g class="link" data-entity-1="ent0007" data-entity-2="ent0018" data-link-type="dependency" data-source-line="50" id="lnk36"><path codeLine="50" d="M380.9,1473.7094 C322.77,1495.6294 247.1,1534.8894 211,1598.6094 C179.88,1653.5394 192.5892,1726.1227 202.6092,1764.6327" fill="none" id="InstanceVariable-to-SubstantiveValueDomain" style="stroke:#404040;stroke-width:1.2;"/><polygon fill="#404040" points="204.12,1770.4394,205.7248,1760.7221,202.861,1765.6005,197.9826,1762.7366,204.12,1770.4394" style="stroke:#404040;stroke-width:1.2;"/><text fill="#000000" font-family="sans-serif" font-size="36" lengthAdjust="spacing" textLength="468.2285" x="212" y="1636.9805">takesSubstantiveValuesFrom</text><text fill="#000000" font-family="sans-serif" font-size="36" lengthAdjust="spacing" textLength="60.0469" x="137.7964" y="1754.8361">0..1</text></g><!--link InstanceVariable to SentinelValueDomain--><g class="link" data-entity-1="ent0007" data-entity-2="ent0019" data-link-type="dependency" data-source-line="51" id="lnk37"><path codeLine="51" d="M519.11,1473.6494 C571.53,1496.8294 644.38,1537.8894 682,1598.6094 C715.59,1652.8294 713.5205,1725.9195 709.6305,1764.5895" fill="none" id="InstanceVariable-to-SentinelValueDomain" style="stroke:#404040;stroke-width:1.2;"/><polygon fill="#404040" points="709.03,1770.5594,713.9107,1762.0049,709.5304,1765.5845,705.9509,1761.2042,709.03,1770.5594" style="stroke:#404040;stroke-width:1.2;"/><text fill="#000000" font-family="sans-serif" font-size="36" lengthAdjust="spacing" textLength="410.2031" x="702" y="1636.9805">takesSentinelValuesFrom</text><text fill="#000000" font-family="sans-serif" font-size="36" lengthAdjust="spacing" textLength="54.0352" x="650.8066" y="1754.6875">0..*</text></g><!--link AbstractMapping to InstanceVariable--><g class="link" data-entity-1="ent0008" data-entity-2="ent0007" data-link-type="dependency" data-source-line="52" id="lnk38"><path codeLine="52" d="M1055.95,1128.6494 C939.31,1191.0594 623.4801,1360.0583 506.5801,1422.6183" fill="none" id="AbstractMapping-to-InstanceVariable" style="stroke:#404040;stroke-width:1.2;"/><polygon fill="#404040" points="501.29,1425.4494,511.1125,1424.7295,505.6984,1423.0902,507.3378,1417.6761,501.29,1425.4494" style="stroke:#404040;stroke-width:1.2;"/><text fill="#000000" font-family="sans-serif" font-size="36" lengthAdjust="spacing" textLength="120.0234" x="818" y="1291.9805">formats</text><text fill="#000000" font-family="sans-serif" font-size="36" lengthAdjust="spacing" textLength="20.0215" x="487.1793" y="1409.5579">1</text></g><?plantuml-src bLNRRjim37ttLmZfMu44IRlkmHW6P4aC55kneWcsPrfc6YsoP4Xoikm2x2FsXVkIoRT4bbmCGrx4mtD8IgGPmmn7ibZU9qimi4HD5IiCauBy-VMRo0Eg0yDZj6CP4ieKvTYSCI_CYUIOfwXqfFTC5A0W9te7cJmoyKosm3KwdhbIyhZPCReNg3MPJMuSfmAnrrYGcxkfWmgPOOswO8PRABb9f31hzWt9xMl7IJdOsDyZqgHRI2uLkNerhNuMV2TLXif7tL1MQ8nYQMdm0a-Zdr7KX1vLpwJHZ0Xeqfx9LR9ALejLHrbOcCld9wGsNKti8JwzVdXv55n2TWxR0JxvCwRpn_kQrXmjOP7SBfAECATLzvvGspUgQIxWa--5DY0eVWB58ELO2tpmB89K6mNKa2vLQpz0KTYEDzdwc9_mSNVIZ09t9HxcIpRujPV1iNtg1qd1IEMo-z0_hr8z_RhjheS5TK5QSb1LEQugX7tXsgYIcb9Xvke2r9TLS6BlWAfGJ5m6qC62rrOi1tLwZwVceS-c9SvNTylRIqbWc3QCwhQMpWngBzDgE0mxsF7W9Ivb3amqea5Na0ajGo0Fr25-blepzUR7UEnFpJ39cPLXGdyy8h_bJP2WeyEye8DHjn-khNSq6tbh82QwJByWDH-t7dCokHw5ds5C3ktn0K5NUVgowMHYSpXDZiaEzCKEs3Q9qsbRpjaOelQsKamoowptf5qkG_HsEmqGpq4Sjj-SfdIlnJsnl5pPxqPCx5-Ft9mApEPwEELi57mxCTbUhAWjtotHtQCnAQIfHXQuYqSzql_UB-ZuUFosg_Q5hoic1lQeVQzEbCnVZbSrVk1xwuAvhYQINtuTQ3OuerkfSZ0w-Wi0?></g></svg>