<svg xmlns="http://www.w3.org/2000/svg" xmlns:xlink="http://www.w3.org/1999/xlink" contentStyleType="text/css" data-diagram-type="CLASS" height="376px" preserveAspectRatio="none" style="width:2052px;height:376px;background:#FFFFFF;" version="1.1" viewBox="0 0 2052 376" width="2052px" zoomAndPan="magnify"><?plantuml 1.2026.3?><defs/><g><g class="title" data-source-line="1"><text fill="#000000" font-family="sans-serif" font-size="14" font-weight="700" lengthAdjust="spacing" textLength="222.1611" x="911.4419" y="24.5332">CDIFDataDescription &#8212; overview</text></g><!--class InstanceVariable--><g class="entity" data-qualified-name="InstanceVariable" data-source-line="12" id="ent0002"><rect fill="#FEFECE" height="25.0938" rx="2.5" ry="2.5" style="stroke:#404040;stroke-width:0.5;" width="95.3906" x="150.5" y="251.6094"/><text fill="#000000" font-family="sans-serif" font-size="12" lengthAdjust="spacing" textLength="89.3906" x="153.5" y="269.0664">InstanceVariable</text></g><!--class VariableMeasured--><g class="entity" data-qualified-name="VariableMeasured" data-source-line="13" id="ent0003"><rect fill="#FEFECE" height="25.0938" rx="2.5" ry="2.5" style="stroke:#404040;stroke-width:0.5;" width="103.3887" x="146.5" y="148.6094"/><text fill="#000000" font-family="sans-serif" font-size="12" lengthAdjust="spacing" textLength="97.3887" x="149.5" y="166.0664">VariableMeasured</text></g><!--class DataDownload--><g class="entity" data-qualified-name="DataDownload" data-source-line="14" id="ent0004"><rect fill="#FEFECE" height="25.0938" rx="2.5" ry="2.5" style="stroke:#404040;stroke-width:0.5;" width="84.7148" x="964.5" y="251.6094"/><text fill="#000000" font-family="sans-serif" font-size="12" lengthAdjust="spacing" textLength="78.7148" x="967.5" y="269.0664">DataDownload</text></g><!--class PrimaryKey--><g class="entity" data-qualified-name="PrimaryKey" data-source-line="15" id="ent0005"><rect fill="#FEFECE" height="25.0938" rx="2.5" ry="2.5" style="stroke:#404040;stroke-width:0.5;" width="68.0098" x="311" y="148.6094"/><text fill="#000000" font-family="sans-serif" font-size="12" lengthAdjust="spacing" textLength="62.0098" x="314" y="166.0664">PrimaryKey</text></g><!--class PrimaryKeyComponent--><g class="entity" data-qualified-name="PrimaryKeyComponent" data-source-line="16" id="ent0006"><rect fill="#FEFECE" height="25.0938" rx="2.5" ry="2.5" style="stroke:#404040;stroke-width:0.5;" width="130.0488" x="281" y="251.6094"/><text fill="#000000" font-family="sans-serif" font-size="12" lengthAdjust="spacing" textLength="124.0488" x="284" y="269.0664">PrimaryKeyComponent</text></g><!--class Statistic--><g class="entity" data-qualified-name="Statistic" data-source-line="17" id="ent0007"><rect fill="#FEFECE" height="25.0938" rx="2.5" ry="2.5" style="stroke:#404040;stroke-width:0.5;" width="48.0117" x="444" y="148.6094"/><text fill="#000000" font-family="sans-serif" font-size="12" lengthAdjust="spacing" textLength="42.0117" x="447" y="166.0664">Statistic</text></g><!--class Concept--><g class="entity" data-qualified-name="Concept" data-source-line="18" id="ent0008"><rect fill="#FEFECE" height="25.0938" rx="2.5" ry="2.5" style="stroke:#404040;stroke-width:0.5;" width="50.6953" x="33.5" y="45.6094"/><text fill="#000000" font-family="sans-serif" font-size="12" lengthAdjust="spacing" textLength="44.6953" x="36.5" y="63.0664">Concept</text></g><!--class Identifier--><g class="entity" data-qualified-name="Identifier" data-source-line="19" id="ent0009"><rect fill="#FEFECE" height="25.0938" rx="2.5" ry="2.5" style="stroke:#404040;stroke-width:0.5;" width="52.0254" x="120" y="45.6094"/><text fill="#000000" font-family="sans-serif" font-size="12" lengthAdjust="spacing" textLength="46.0254" x="123" y="63.0664">Identifier</text></g><!--class DefinedTerm--><g class="entity" data-qualified-name="DefinedTerm" data-source-line="20" id="ent0010"><rect fill="#FEFECE" height="25.0938" rx="2.5" ry="2.5" style="stroke:#404040;stroke-width:0.5;" width="75.3574" x="527.5" y="148.6094"/><text fill="#000000" font-family="sans-serif" font-size="12" lengthAdjust="spacing" textLength="69.3574" x="530.5" y="166.0664">DefinedTerm</text></g><!--class Dataset--><g class="entity" data-qualified-name="Dataset" data-source-line="21" id="ent0011"><rect fill="#FEFECE" height="25.0938" rx="2.5" ry="2.5" style="stroke:#404040;stroke-width:0.5;" width="47.3555" x="1145.5" y="45.6094"/><text fill="#000000" font-family="sans-serif" font-size="12" lengthAdjust="spacing" textLength="41.3555" x="1148.5" y="63.0664">Dataset</text></g><!--class SpatialExtent--><g class="entity" data-qualified-name="SpatialExtent" data-source-line="22" id="ent0012"><rect fill="#FEFECE" height="25.0938" rx="2.5" ry="2.5" style="stroke:#404040;stroke-width:0.5;" width="76.7109" x="637.5" y="148.6094"/><text fill="#000000" font-family="sans-serif" font-size="12" lengthAdjust="spacing" textLength="70.7109" x="640.5" y="166.0664">SpatialExtent</text></g><!--class AbstractGeometry--><g class="entity" data-qualified-name="AbstractGeometry" data-source-line="23" id="ent0013"><rect fill="#FEFECE" height="25.0938" rx="2.5" ry="2.5" style="stroke:#404040;stroke-width:0.5;" width="102.6973" x="624.5" y="251.6094"/><text fill="#000000" font-family="sans-serif" font-size="12" font-style="italic" lengthAdjust="spacing" textLength="96.6973" x="627.5" y="269.0664">AbstractGeometry</text></g><!--class GeoCoordinates--><g class="entity" data-qualified-name="GeoCoordinates" data-source-line="24" id="ent0014"><rect fill="#FEFECE" height="25.0938" rx="2.5" ry="2.5" style="stroke:#404040;stroke-width:0.5;" width="93.3867" x="572.5" y="337.6094"/><text fill="#000000" font-family="sans-serif" font-size="12" lengthAdjust="spacing" textLength="87.3867" x="575.5" y="355.0664">GeoCoordinates</text></g><!--class GeoShape--><g class="entity" data-qualified-name="GeoShape" data-source-line="25" id="ent0015"><rect fill="#FEFECE" height="25.0938" rx="2.5" ry="2.5" style="stroke:#404040;stroke-width:0.5;" width="63.3809" x="700.5" y="337.6094"/><text fill="#000000" font-family="sans-serif" font-size="12" lengthAdjust="spacing" textLength="57.3809" x="703.5" y="355.0664">GeoShape</text></g><!--class TemporalExtent--><g class="entity" data-qualified-name="TemporalExtent" data-source-line="26" id="ent0016"><rect fill="#FEFECE" height="25.0938" rx="2.5" ry="2.5" style="stroke:#404040;stroke-width:0.5;" width="90.7031" x="750.5" y="148.6094"/><text fill="#000000" font-family="sans-serif" font-size="12" lengthAdjust="spacing" textLength="84.7031" x="753.5" y="166.0664">TemporalExtent</text></g><!--class QualityMeasure--><g class="entity" data-qualified-name="QualityMeasure" data-source-line="27" id="ent0017"><rect fill="#FEFECE" height="25.0938" rx="2.5" ry="2.5" style="stroke:#404040;stroke-width:0.5;" width="90.0352" x="888" y="148.6094"/><text fill="#000000" font-family="sans-serif" font-size="12" lengthAdjust="spacing" textLength="84.0352" x="891" y="166.0664">QualityMeasure</text></g><!--class AbstractDistribution--><g class="entity" data-qualified-name="AbstractDistribution" data-source-line="28" id="ent0018"><rect fill="#FEFECE" height="25.0938" rx="2.5" ry="2.5" style="stroke:#404040;stroke-width:0.5;" width="110.0391" x="1013" y="148.6094"/><text fill="#000000" font-family="sans-serif" font-size="12" font-style="italic" lengthAdjust="spacing" textLength="104.0391" x="1016" y="166.0664">AbstractDistribution</text></g><!--class WebAPI--><g class="entity" data-qualified-name="WebAPI" data-source-line="29" id="ent0019"><rect fill="#FEFECE" height="25.0938" rx="2.5" ry="2.5" style="stroke:#404040;stroke-width:0.5;" width="50.0156" x="1085" y="251.6094"/><text fill="#000000" font-family="sans-serif" font-size="12" lengthAdjust="spacing" textLength="44.0156" x="1088" y="269.0664">WebAPI</text></g><!--class Agent--><g class="entity" data-qualified-name="Agent" data-source-line="30" id="ent0020"><rect fill="#FEFECE" height="25.0938" rx="2.5" ry="2.5" style="stroke:#404040;stroke-width:0.5;" width="37.3594" x="1331.5" y="251.6094"/><text fill="#000000" font-family="sans-serif" font-size="12" font-style="italic" lengthAdjust="spacing" textLength="31.3594" x="1334.5" y="269.0664">Agent</text></g><!--class Person--><g class="entity" data-qualified-name="Person" data-source-line="31" id="ent0021"><rect fill="#FEFECE" height="25.0938" rx="2.5" ry="2.5" style="stroke:#404040;stroke-width:0.5;" width="44.0215" x="1281" y="337.6094"/><text fill="#000000" font-family="sans-serif" font-size="12" lengthAdjust="spacing" textLength="38.0215" x="1284" y="355.0664">Person</text></g><!--class Organization--><g class="entity" data-qualified-name="Organization" data-source-line="32" id="ent0022"><rect fill="#FEFECE" height="25.0938" rx="2.5" ry="2.5" style="stroke:#404040;stroke-width:0.5;" width="74.0391" x="1360" y="337.6094"/><text fill="#000000" font-family="sans-serif" font-size="12" lengthAdjust="spacing" textLength="68.0391" x="1363" y="355.0664">Organization</text></g><!--class Contributor--><g class="entity" data-qualified-name="Contributor" data-source-line="33" id="ent0023"><rect fill="#FEFECE" height="25.0938" rx="2.5" ry="2.5" style="stroke:#404040;stroke-width:0.5;" width="65.3613" x="1394.5" y="148.6094"/><text fill="#000000" font-family="sans-serif" font-size="12" lengthAdjust="spacing" textLength="59.3613" x="1397.5" y="166.0664">Contributor</text></g><!--class AdditionalProperty--><g class="entity" data-qualified-name="AdditionalProperty" data-source-line="34" id="ent0024"><rect fill="#FEFECE" height="25.0938" rx="2.5" ry="2.5" style="stroke:#404040;stroke-width:0.5;" width="104.0566" x="7" y="148.6094"/><text fill="#000000" font-family="sans-serif" font-size="12" lengthAdjust="spacing" textLength="98.0566" x="10" y="166.0664">AdditionalProperty</text></g><!--class Reference--><g class="entity" data-qualified-name="Reference" data-source-line="35" id="ent0025"><rect fill="#FEFECE" height="25.0938" rx="2.5" ry="2.5" style="stroke:#404040;stroke-width:0.5;" width="61.3652" x="1494.5" y="148.6094"/><text fill="#000000" font-family="sans-serif" font-size="12" lengthAdjust="spacing" textLength="55.3652" x="1497.5" y="166.0664">Reference</text></g><!--class MonetaryGrant--><g class="entity" data-qualified-name="MonetaryGrant" data-source-line="36" id="ent0026"><rect fill="#FEFECE" height="25.0938" rx="2.5" ry="2.5" style="stroke:#404040;stroke-width:0.5;" width="86.0332" x="1591" y="148.6094"/><text fill="#000000" font-family="sans-serif" font-size="12" lengthAdjust="spacing" textLength="80.0332" x="1594" y="166.0664">MonetaryGrant</text></g><!--class ProvActivity--><g class="entity" data-qualified-name="ProvActivity" data-source-line="37" id="ent0027"><rect fill="#FEFECE" height="25.0938" rx="2.5" ry="2.5" style="stroke:#404040;stroke-width:0.5;" width="68.6777" x="1712.5" y="148.6094"/><text fill="#000000" font-family="sans-serif" font-size="12" lengthAdjust="spacing" textLength="62.6777" x="1715.5" y="166.0664">ProvActivity</text></g><!--class DerivedFrom--><g class="entity" data-qualified-name="DerivedFrom" data-source-line="38" id="ent0028"><rect fill="#FEFECE" height="25.0938" rx="2.5" ry="2.5" style="stroke:#404040;stroke-width:0.5;" width="75.3457" x="1816.5" y="148.6094"/><text fill="#000000" font-family="sans-serif" font-size="12" lengthAdjust="spacing" textLength="69.3457" x="1819.5" y="166.0664">DerivedFrom</text></g><!--class CatalogRecord--><g class="entity" data-qualified-name="CatalogRecord" data-source-line="39" id="ent0029"><rect fill="#FEFECE" height="25.0938" rx="2.5" ry="2.5" style="stroke:#404040;stroke-width:0.5;" width="86.0449" x="1951" y="148.6094"/><text fill="#000000" font-family="sans-serif" font-size="12" lengthAdjust="spacing" textLength="80.0449" x="1954" y="166.0664">CatalogRecord</text></g><!--reverse link AbstractDistribution to DataDownload--><g class="link" data-entity-1="ent0018" data-entity-2="ent0004" data-link-type="extension" data-source-line="40" id="lnk30"><path codeLine="40" d="M1051.6935,189.1068 C1039.9935,208.4768 1025.88,231.8494 1014.1,251.3494" fill="none" id="AbstractDistribution-backto-DataDownload" style="stroke:#404040;stroke-width:1.2;"/><polygon fill="none" points="1061,173.6994,1046.5577,186.0046,1056.8293,192.209,1061,173.6994" style="stroke:#404040;stroke-width:1.2;"/></g><!--reverse link AbstractGeometry to GeoCoordinates--><g class="link" data-entity-1="ent0013" data-entity-2="ent0014" data-link-type="extension" data-source-line="41" id="lnk31"><path codeLine="41" d="M657.9637,291.6844 C647.0737,307.7344 637.71,321.5294 626.86,337.5294" fill="none" id="AbstractGeometry-backto-GeoCoordinates" style="stroke:#404040;stroke-width:1.2;"/><polygon fill="none" points="668.07,276.7894,652.9986,288.3156,662.9287,295.0532,668.07,276.7894" style="stroke:#404040;stroke-width:1.2;"/></g><!--reverse link AbstractGeometry to GeoShape--><g class="link" data-entity-1="ent0013" data-entity-2="ent0015" data-link-type="extension" data-source-line="42" id="lnk32"><path codeLine="42" d="M693.7746,291.7663 C704.4746,307.8163 713.62,321.5294 724.28,337.5294" fill="none" id="AbstractGeometry-backto-GeoShape" style="stroke:#404040;stroke-width:1.2;"/><polygon fill="none" points="683.79,276.7894,688.7823,295.0945,698.7669,288.4381,683.79,276.7894" style="stroke:#404040;stroke-width:1.2;"/></g><!--reverse link AbstractDistribution to WebAPI--><g class="link" data-entity-1="ent0018" data-entity-2="ent0019" data-link-type="extension" data-source-line="43" id="lnk33"><path codeLine="43" d="M1079.7352,190.3181 C1087.7952,209.6881 1097,231.8494 1105.11,251.3494" fill="none" id="AbstractDistribution-backto-WebAPI" style="stroke:#404040;stroke-width:1.2;"/><polygon fill="none" points="1072.82,173.6994,1074.1956,192.6231,1085.2747,188.013,1072.82,173.6994" style="stroke:#404040;stroke-width:1.2;"/></g><!--reverse link Agent to Person--><g class="link" data-entity-1="ent0020" data-entity-2="ent0021" data-link-type="extension" data-source-line="44" id="lnk34"><path codeLine="44" d="M1334.6786,292.502 C1325.7086,308.552 1318.43,321.5294 1309.48,337.5294" fill="none" id="Agent-backto-Person" style="stroke:#404040;stroke-width:1.2;"/><polygon fill="none" points="1343.46,276.7894,1329.441,289.5748,1339.9161,295.4291,1343.46,276.7894" style="stroke:#404040;stroke-width:1.2;"/></g><!--reverse link Agent to Organization--><g class="link" data-entity-1="ent0020" data-entity-2="ent0022" data-link-type="extension" data-source-line="45" id="lnk35"><path codeLine="45" d="M1365.3214,292.502 C1374.2914,308.552 1381.57,321.5294 1390.52,337.5294" fill="none" id="Agent-backto-Organization" style="stroke:#404040;stroke-width:1.2;"/><polygon fill="none" points="1356.54,276.7894,1360.0839,295.4291,1370.559,289.5748,1356.54,276.7894" style="stroke:#404040;stroke-width:1.2;"/></g><!--link VariableMeasured to InstanceVariable--><g class="link" data-entity-1="ent0003" data-entity-2="ent0002" data-link-type="dependency" data-source-line="46" id="lnk36"><path codeLine="46" d="M198,173.6994 C198,193.0694 198,225.8494 198,245.3494" fill="none" id="VariableMeasured-to-InstanceVariable" style="stroke:#404040;stroke-width:1.2;"/><polygon fill="#404040" points="198,251.3494,202,242.3494,198,246.3494,194,242.3494,198,251.3494" style="stroke:#404040;stroke-width:1.2;"/><text fill="#000000" font-family="sans-serif" font-size="13" lengthAdjust="spacing" textLength="55.6372" x="199" y="218.1045">describes</text><text fill="#000000" font-family="sans-serif" font-size="13" lengthAdjust="spacing" textLength="21.6836" x="172.9233" y="240.721">0..1</text></g><!--link PrimaryKey to PrimaryKeyComponent--><g class="link" data-entity-1="ent0005" data-entity-2="ent0006" data-link-type="dependency" data-source-line="47" id="lnk37"><path codeLine="47" d="M345.11,173.6994 C345.31,193.0694 345.6315,225.8497 345.8215,245.3497" fill="none" id="PrimaryKey-to-PrimaryKeyComponent" style="stroke:#404040;stroke-width:1.2;"/><polygon fill="#404040" points="345.88,251.3494,349.7921,242.3108,345.8313,246.3496,341.7925,242.3888,345.88,251.3494" style="stroke:#404040;stroke-width:1.2;"/><text fill="#000000" font-family="sans-serif" font-size="13" lengthAdjust="spacing" textLength="85.979" x="347" y="218.1045">isComposedOf</text><text fill="#000000" font-family="sans-serif" font-size="13" lengthAdjust="spacing" textLength="19.5127" x="323.1834" y="240.721">1..*</text></g><!--link Dataset to VariableMeasured--><g class="link" data-entity-1="ent0011" data-entity-2="ent0003" data-link-type="dependency" data-source-line="48" id="lnk38"><path codeLine="48" d="M1145.34,59.3494 C1012.04,60.8094 357.76,69.5294 274,100.6094 C246.98,110.6394 226.0835,129.6909 212.5735,143.9709" fill="none" id="Dataset-to-VariableMeasured" style="stroke:#404040;stroke-width:1.2;"/><polygon fill="#404040" points="208.45,148.3294,217.5409,144.5406,211.8863,144.6973,211.7296,139.0426,208.45,148.3294" style="stroke:#404040;stroke-width:1.2;"/><text fill="#000000" font-family="sans-serif" font-size="13" lengthAdjust="spacing" textLength="103.3335" x="275" y="115.1045">variableMeasured</text><text fill="#000000" font-family="sans-serif" font-size="13" lengthAdjust="spacing" textLength="19.5127" x="189.8485" y="137.6931">1..*</text></g><!--link Dataset to PrimaryKey--><g class="link" data-entity-1="ent0011" data-entity-2="ent0005" data-link-type="dependency" data-source-line="49" id="lnk39"><path codeLine="49" d="M1145.29,59.5394 C1025.12,61.8294 486.18,73.5494 417,100.6094 C391.03,110.7694 371.4383,129.6568 358.7683,143.8968" fill="none" id="Dataset-to-PrimaryKey" style="stroke:#404040;stroke-width:1.2;"/><polygon fill="#404040" points="354.78,148.3794,363.7509,144.3144,358.1036,144.6439,357.7741,138.9967,354.78,148.3794" style="stroke:#404040;stroke-width:1.2;"/><text fill="#000000" font-family="sans-serif" font-size="13" lengthAdjust="spacing" textLength="88.1372" x="418" y="115.1045">hasPrimaryKey</text><text fill="#000000" font-family="sans-serif" font-size="13" lengthAdjust="spacing" textLength="21.6836" x="333.6292" y="137.7628">0..1</text></g><!--link Dataset to Statistic--><g class="link" data-entity-1="ent0011" data-entity-2="ent0007" data-link-type="dependency" data-source-line="50" id="lnk40"><path codeLine="50" d="M1145.21,58.8494 C1045.06,58.0594 657.83,57.8694 545,100.6094 C517.83,110.8994 496.5869,129.922 482.8269,144.112" fill="none" id="Dataset-to-Statistic" style="stroke:#404040;stroke-width:1.2;"/><polygon fill="#404040" points="478.65,148.4194,487.7869,144.7429,482.1307,144.8299,482.0437,139.1737,478.65,148.4194" style="stroke:#404040;stroke-width:1.2;"/><text fill="#000000" font-family="sans-serif" font-size="13" lengthAdjust="spacing" textLength="49.8418" x="546" y="115.1045">statistics</text><text fill="#000000" font-family="sans-serif" font-size="13" lengthAdjust="spacing" textLength="19.5127" x="460.2014" y="137.8186">0..*</text></g><!--link Dataset to SpatialExtent--><g class="link" data-entity-1="ent0011" data-entity-2="ent0012" data-link-type="dependency" data-source-line="51" id="lnk41"><path codeLine="51" d="M1145.26,59.9594 C1056.27,63.3094 745.79,76.6494 709,100.6094 C692.17,111.5694 684.855,128.4597 680.685,142.4397" fill="none" id="Dataset-to-SpatialExtent" style="stroke:#404040;stroke-width:1.2;"/><polygon fill="#404040" points="678.97,148.1894,685.3757,140.7082,680.3992,143.398,677.7094,138.4215,678.97,148.1894" style="stroke:#404040;stroke-width:1.2;"/><text fill="#000000" font-family="sans-serif" font-size="13" lengthAdjust="spacing" textLength="93.9453" x="710" y="115.1045">spatialCoverage</text><text fill="#000000" font-family="sans-serif" font-size="13" lengthAdjust="spacing" textLength="19.5127" x="657.6333" y="137.7579">0..*</text></g><!--link Dataset to TemporalExtent--><g class="link" data-entity-1="ent0011" data-entity-2="ent0016" data-link-type="dependency" data-source-line="52" id="lnk42"><path codeLine="52" d="M1145.33,59.1794 C1076.63,59.8094 878.75,64.7694 827,100.6094 C810.72,111.8794 803.9599,128.6284 800.1999,142.4984" fill="none" id="Dataset-to-TemporalExtent" style="stroke:#404040;stroke-width:1.2;"/><polygon fill="#404040" points="798.63,148.2894,804.8455,140.6495,799.9382,143.4636,797.1241,138.5563,798.63,148.2894" style="stroke:#404040;stroke-width:1.2;"/><text fill="#000000" font-family="sans-serif" font-size="13" lengthAdjust="spacing" textLength="106.9453" x="828" y="115.1045">temporalCoverage</text><text fill="#000000" font-family="sans-serif" font-size="13" lengthAdjust="spacing" textLength="19.5127" x="777.0843" y="137.6374">0..*</text></g><!--link Dataset to QualityMeasure--><g class="link" data-entity-1="ent0011" data-entity-2="ent0017" data-link-type="dependency" data-source-line="53" id="lnk43"><path codeLine="53" d="M1145.18,60.8794 C1095.81,64.9894 984.52,76.7194 956,100.6094 C941.57,112.6994 937.033,129.0332 935.033,142.6332" fill="none" id="Dataset-to-QualityMeasure" style="stroke:#404040;stroke-width:1.2;"/><polygon fill="#404040" points="934.16,148.5694,939.4269,140.2471,934.8875,143.6226,931.512,139.0832,934.16,148.5694" style="stroke:#404040;stroke-width:1.2;"/><text fill="#000000" font-family="sans-serif" font-size="13" lengthAdjust="spacing" textLength="140.8989" x="957" y="115.1045">hasQualityMeasurement</text><text fill="#000000" font-family="sans-serif" font-size="13" lengthAdjust="spacing" textLength="19.5127" x="911.8182" y="137.6449">0..*</text></g><!--link Dataset to AbstractDistribution--><g class="link" data-entity-1="ent0011" data-entity-2="ent0018" data-link-type="dependency" data-source-line="54" id="lnk44"><path codeLine="54" d="M1155.42,70.7794 C1146.1,78.9294 1133.56,90.1794 1123,100.6094 C1106.79,116.6294 1093.0514,131.7107 1082.2214,143.9207" fill="none" id="Dataset-to-AbstractDistribution" style="stroke:#404040;stroke-width:1.2;"/><polygon fill="#404040" points="1078.24,148.4094,1087.2046,144.3306,1081.5578,144.6688,1081.2196,139.022,1078.24,148.4094" style="stroke:#404040;stroke-width:1.2;"/><text fill="#000000" font-family="sans-serif" font-size="13" lengthAdjust="spacing" textLength="62.8672" x="1124" y="115.1045">distribution</text><text fill="#000000" font-family="sans-serif" font-size="13" lengthAdjust="spacing" textLength="19.5127" x="1059.6246" y="137.8046">0..*</text></g><!--link Dataset to Agent--><g class="link" data-entity-1="ent0011" data-entity-2="ent0020" data-link-type="dependency" data-source-line="55" id="lnk45"><path codeLine="55" d="M1175.71,70.9194 C1180.26,79.1294 1186.28,90.3894 1191,100.6094 C1205.64,132.2994 1199.35,145.4594 1220,173.6094 C1249.5,213.8194 1297.306,239.5886 1325.636,252.5786" fill="none" id="Dataset-to-Agent" style="stroke:#404040;stroke-width:1.2;"/><polygon fill="#404040" points="1331.09,255.0794,1324.5762,247.6922,1326.545,252.9954,1321.2418,254.9642,1331.09,255.0794" style="stroke:#404040;stroke-width:1.2;"/><text fill="#000000" font-family="sans-serif" font-size="13" lengthAdjust="spacing" textLength="40.46" x="1221" y="166.6045">creator</text><text fill="#000000" font-family="sans-serif" font-size="13" lengthAdjust="spacing" textLength="19.5127" x="1304.1212" y="247.8211">0..*</text></g><!--link Dataset to Agent--><g class="link" data-entity-1="ent0011" data-entity-2="ent0020" data-link-type="dependency" data-source-line="57" id="lnk47"><path codeLine="57" d="M1184.96,70.8894 C1195.5,78.9094 1209.46,89.9494 1221,100.6094 C1274.72,150.2194 1321.096,218.2948 1339.346,246.4448" fill="none" id="Dataset-to-Agent-1" style="stroke:#404040;stroke-width:1.2;"/><polygon fill="#404040" points="1342.61,251.4794,1341.0704,241.7516,1339.89,247.2839,1334.3577,246.1035,1342.61,251.4794" style="stroke:#404040;stroke-width:1.2;"/><text fill="#000000" font-family="sans-serif" font-size="13" lengthAdjust="spacing" textLength="52.7554" x="1288" y="166.6045">publisher</text><text fill="#000000" font-family="sans-serif" font-size="13" lengthAdjust="spacing" textLength="21.6836" x="1343.9597" y="240.5178">0..1</text></g><!--link Dataset to Contributor--><g class="link" data-entity-1="ent0011" data-entity-2="ent0023" data-link-type="dependency" data-source-line="56" id="lnk46"><path codeLine="56" d="M1192.53,62.8194 C1224.71,68.4094 1283.86,80.5194 1331,100.6094 C1361.31,113.5194 1388.3262,131.5822 1406.6562,144.9022" fill="none" id="Dataset-to-Contributor" style="stroke:#404040;stroke-width:1.2;"/><polygon fill="#404040" points="1411.51,148.4294,1406.5807,139.9028,1407.4652,145.4901,1401.8779,146.3745,1411.51,148.4294" style="stroke:#404040;stroke-width:1.2;"/><text fill="#000000" font-family="sans-serif" font-size="13" lengthAdjust="spacing" textLength="61.4199" x="1366" y="115.1045">contributor</text><text fill="#000000" font-family="sans-serif" font-size="13" lengthAdjust="spacing" textLength="19.5127" x="1382.7" y="137.8325">0..*</text></g><!--link Dataset to MonetaryGrant--><g class="link" data-entity-1="ent0011" data-entity-2="ent0026" data-link-type="dependency" data-source-line="58" id="lnk48"><path codeLine="58" d="M1192.6,58.9894 C1250.01,59.2994 1400.98,63.8694 1520,100.6094 C1556.48,111.8694 1590.041,131.3879 1611.661,145.2679" fill="none" id="Dataset-to-MonetaryGrant" style="stroke:#404040;stroke-width:1.2;"/><polygon fill="#404040" points="1616.71,148.5094,1611.2974,140.2811,1612.5025,145.8081,1606.9755,147.0132,1616.71,148.5094" style="stroke:#404040;stroke-width:1.2;"/><text fill="#000000" font-family="sans-serif" font-size="13" lengthAdjust="spacing" textLength="42.6499" x="1564" y="115.1045">funding</text><text fill="#000000" font-family="sans-serif" font-size="13" lengthAdjust="spacing" textLength="19.5127" x="1586.758" y="137.5602">0..*</text></g><!--link Dataset to ProvActivity--><g class="link" data-entity-1="ent0011" data-entity-2="ent0027" data-link-type="dependency" data-source-line="59" id="lnk49"><path codeLine="59" d="M1192.69,58.5994 C1260.03,57.7094 1457.86,59.1194 1615,100.6094 C1656.56,111.5794 1696.2404,131.534 1721.5004,145.514" fill="none" id="Dataset-to-ProvActivity" style="stroke:#404040;stroke-width:1.2;"/><polygon fill="#404040" points="1726.75,148.4194,1720.8125,140.5615,1722.3753,145.9982,1716.9386,147.5611,1726.75,148.4194" style="stroke:#404040;stroke-width:1.2;"/><text fill="#000000" font-family="sans-serif" font-size="13" lengthAdjust="spacing" textLength="99.7217" x="1665" y="115.1045">wasGeneratedBy</text><text fill="#000000" font-family="sans-serif" font-size="13" lengthAdjust="spacing" textLength="19.5127" x="1696.2003" y="137.8186">0..*</text></g><!--link Dataset to DerivedFrom--><g class="link" data-entity-1="ent0011" data-entity-2="ent0028" data-link-type="dependency" data-source-line="60" id="lnk50"><path codeLine="60" d="M1192.66,58.9894 C1290.52,58.7494 1663.57,60.5294 1773,100.6094 C1801.18,110.9294 1823.7574,130.0576 1838.3574,144.2476" fill="none" id="Dataset-to-DerivedFrom" style="stroke:#404040;stroke-width:1.2;"/><polygon fill="#404040" points="1842.66,148.4294,1838.9939,139.2883,1839.0745,144.9445,1833.4182,145.0251,1842.66,148.4294" style="stroke:#404040;stroke-width:1.2;"/><text fill="#000000" font-family="sans-serif" font-size="13" lengthAdjust="spacing" textLength="98.2427" x="1806" y="115.1045">wasDerivedFrom</text><text fill="#000000" font-family="sans-serif" font-size="13" lengthAdjust="spacing" textLength="19.5127" x="1815.4871" y="137.8325">0..*</text></g><!--link Dataset to CatalogRecord--><g class="link" data-entity-1="ent0011" data-entity-2="ent0029" data-link-type="dependency" data-source-line="61" id="lnk51"><path codeLine="61" d="M1192.82,59.6294 C1312.36,62.3594 1843.9,75.8094 1913,100.6094 C1941.25,110.7494 1963.8091,129.9256 1978.3891,144.1756" fill="none" id="Dataset-to-CatalogRecord" style="stroke:#404040;stroke-width:1.2;"/><polygon fill="#404040" points="1982.68,148.3694,1979.0395,139.2181,1979.1042,144.8745,1973.4477,144.9393,1982.68,148.3694" style="stroke:#404040;stroke-width:1.2;"/><text fill="#000000" font-family="sans-serif" font-size="13" lengthAdjust="spacing" textLength="54.9136" x="1947" y="115.1045">subjectOf</text><text fill="#000000" font-family="sans-serif" font-size="13" lengthAdjust="spacing" textLength="7.23" x="1969.8811" y="137.7489">1</text></g><!--link Dataset to DefinedTerm--><g class="link" data-entity-1="ent0011" data-entity-2="ent0010" data-link-type="dependency" data-source-line="62" id="lnk52"><path codeLine="62" d="M1145.28,58.8794 C1053.7,58.2894 723.63,59.1594 629,100.6094 C605.1,111.0794 588.102,129.602 577.112,143.742" fill="none" id="Dataset-to-DefinedTerm" style="stroke:#404040;stroke-width:1.2;"/><polygon fill="#404040" points="573.43,148.4794,582.1113,143.828,576.4983,144.5316,575.7948,138.9186,573.43,148.4794" style="stroke:#404040;stroke-width:1.2;"/><text fill="#000000" font-family="sans-serif" font-size="13" lengthAdjust="spacing" textLength="54.9072" x="630" y="115.1045">keywords</text><text fill="#000000" font-family="sans-serif" font-size="13" lengthAdjust="spacing" textLength="19.5127" x="554.0207" y="137.5178">0..*</text></g><!--link Dataset to Reference--><g class="link" data-entity-1="ent0011" data-entity-2="ent0025" data-link-type="dependency" data-source-line="63" id="lnk53"><path codeLine="63" d="M1192.74,59.3994 C1240.47,60.6994 1350.77,67.3794 1436,100.6094 C1465.61,112.1494 1490.7662,130.9717 1507.2662,144.7617" fill="none" id="Dataset-to-Reference" style="stroke:#404040;stroke-width:1.2;"/><polygon fill="#404040" points="1511.87,148.6094,1507.5294,139.7686,1508.0335,145.403,1502.3991,145.9071,1511.87,148.6094" style="stroke:#404040;stroke-width:1.2;"/><text fill="#000000" font-family="sans-serif" font-size="13" lengthAdjust="spacing" textLength="40.4663" x="1471" y="115.1045">license</text><text fill="#000000" font-family="sans-serif" font-size="13" lengthAdjust="spacing" textLength="19.5127" x="1483.5655" y="137.7014">0..*</text></g><!--link SpatialExtent to AbstractGeometry--><g class="link" data-entity-1="ent0012" data-entity-2="ent0013" data-link-type="dependency" data-source-line="64" id="lnk54"><path codeLine="64" d="M676,173.6994 C676,193.0694 676,225.8494 676,245.3494" fill="none" id="SpatialExtent-to-AbstractGeometry" style="stroke:#404040;stroke-width:1.2;"/><polygon fill="#404040" points="676,251.3494,680,242.3494,676,246.3494,672,242.3494,676,251.3494" style="stroke:#404040;stroke-width:1.2;"/><text fill="#000000" font-family="sans-serif" font-size="13" lengthAdjust="spacing" textLength="21.6899" x="677" y="218.1045">geo</text><text fill="#000000" font-family="sans-serif" font-size="13" lengthAdjust="spacing" textLength="21.6836" x="651.0598" y="240.721">0..1</text></g><!--link Contributor to Agent--><g class="link" data-entity-1="ent0023" data-entity-2="ent0020" data-link-type="dependency" data-source-line="65" id="lnk55"><path codeLine="65" d="M1418.17,173.6994 C1403.39,193.0694 1377.4667,227.0771 1362.6067,246.5771" fill="none" id="Contributor-to-Agent" style="stroke:#404040;stroke-width:1.2;"/><polygon fill="#404040" points="1358.97,251.3494,1367.6066,246.6155,1362.0006,247.3725,1361.2436,241.7665,1358.97,251.3494" style="stroke:#404040;stroke-width:1.2;"/><text fill="#000000" font-family="sans-serif" font-size="13" lengthAdjust="spacing" textLength="32.5317" x="1395" y="218.1045">agent</text><text fill="#000000" font-family="sans-serif" font-size="13" lengthAdjust="spacing" textLength="21.6836" x="1366.7001" y="240.721">0..1</text></g><!--link MonetaryGrant to Agent--><g class="link" data-entity-1="ent0026" data-entity-2="ent0020" data-link-type="dependency" data-source-line="66" id="lnk56"><path codeLine="66" d="M1601.42,173.6994 C1541.54,194.9894 1421.4329,237.6983 1374.1529,254.5183" fill="none" id="MonetaryGrant-to-Agent" style="stroke:#404040;stroke-width:1.2;"/><polygon fill="#404040" points="1368.5,256.5294,1378.3201,257.2814,1373.2108,254.8535,1375.6387,249.7442,1368.5,256.5294" style="stroke:#404040;stroke-width:1.2;"/><text fill="#000000" font-family="sans-serif" font-size="13" lengthAdjust="spacing" textLength="36.8608" x="1511" y="218.1045">funder</text><text fill="#000000" font-family="sans-serif" font-size="13" lengthAdjust="spacing" textLength="19.5127" x="1376.7475" y="270.1857">0..*</text></g><?plantuml-src XLRBRjim4BphAmZdLi167FGa50KSFmAZ298cGNjUIMkRZKGA96tNQGlq8_g5_PBIf1uanQJ88TpH34Nkpgwig2gHp1VhrG8KB53cWjQASaR-_lv3-075WU8nsT42IKv5Ng9TOrMh4wcmob38H3vJLeE0YiWT5Fn8sPPie9JeF9a9mOzFEve_CvIIJ2TNpiEy18tzI8YbpNd91RbuVtd-q-0r5mMA45rnfXxf2vBfLV8hIUmUepMJ2bYENq1Go4eS4P0a1Cd5QhbQpfUjgCLl4UHUO6548HYAJCRuaPKShC05GlAze1M8qoSy6MeVlawSywhc39aA51qUIXyLA2eLpOsWYqBQdEjCr7RNPXrIreNUdcue2fk-BXpa03UKOV64eh8fwEDOkYIgBbDwFRX0hOyCvVAxQc_j8HqTCga4vAhnpMZMn3V8ArJ2fZW4mvTfVCwriIW3XT98V2WYUDn1ZItL127fINS65zuTV2WKVDv3ITMfCPaH-D1_RxtGLHOqsv_Rrhkv-o1yxLVCPlThGxVBrr-pRIzYLWE_wW7GlDSkGyATs0AZBz0TpmKYthH7vgBrPnk7r5bHqFCMKDuBNgDGJTa7S2Xym0qArBut_2uAQRUwnvJkk1i1pVqzPDYt_33B5JrGrRPu3mpRHj035Yl1sxRfua56TAkKVFk0kJQcpOcBTFHeqJ_y78-ziPGCki9GVEE_JZAMV-DLrag9DOf1h2TSn2r_CfYnu_57ChgSJAQZuT1EIM4-K9a-eZD0ZMGwcRmRHOTaIgWqaSJYRfEqeyTH3GwHaaC0-J9xFkS8ATc1xEC1Mx-a7ySfaUrQHfdUpDDi6y_FNsFOOamIZ9YKg0PuInIC6NC77wlqPZ5br02wEauObMtjuNA1e1iwHd7xNHFxA5Q0ThzwdvLKxZ2wez-qATdicRRvDaRrEZObHv0to7Jw51RNqPgwRMlu3X0ORHIqhIxhFlk6kGejsUxSVqTJyeodenP5tTBFhvIKD4UcVtNv3d8p5ZPsIhR84pVhaVp2-N_Y9p9IrdDcTGt-0G00?></g></svg>