<svg xmlns="http://www.w3.org/2000/svg" xmlns:xlink="http://www.w3.org/1999/xlink" contentStyleType="text/css" data-diagram-type="CLASS" height="705px" preserveAspectRatio="none" style="width:1117px;height:705px;background:#FFFFFF;" version="1.1" viewBox="0 0 1117 705" width="1117px" zoomAndPan="magnify"><?plantuml 1.2026.3?><defs/><g><g class="title" data-source-line="1"><text fill="#000000" font-family="sans-serif" font-size="14" font-weight="700" lengthAdjust="spacing" textLength="222.1611" x="444.4089" y="24.5332">CDIFDataDescription &#8212; overview</text></g><!--class AbstractVariable--><g class="entity" data-qualified-name="AbstractVariable" data-source-line="12" id="ent0002"><rect fill="#FCF3CF" height="25.0938" rx="2.5" ry="2.5" style="stroke:#404040;stroke-width:0.5;" width="94.043" x="303" y="45.6094"/><text fill="#000000" font-family="sans-serif" font-size="12" font-style="italic" lengthAdjust="spacing" textLength="88.043" x="306" y="63.0664">AbstractVariable</text></g><!--class InstanceVariable--><g class="entity" data-qualified-name="InstanceVariable" data-source-line="13" id="ent0003"><rect fill="#FAE5D3" height="25.0938" rx="2.5" ry="2.5" style="stroke:#404040;stroke-width:0.5;" width="95.3906" x="320.5" y="253.1094"/><text fill="#000000" font-family="sans-serif" font-size="12" lengthAdjust="spacing" textLength="89.3906" x="323.5" y="270.5664">InstanceVariable</text></g><!--class VariableMeasured--><g class="entity" data-qualified-name="VariableMeasured" data-source-line="14" id="ent0004"><rect fill="#FCF3CF" height="25.0938" rx="2.5" ry="2.5" style="stroke:#404040;stroke-width:0.5;" width="103.3887" x="366.5" y="148.6094"/><text fill="#000000" font-family="sans-serif" font-size="12" lengthAdjust="spacing" textLength="97.3887" x="369.5" y="166.0664">VariableMeasured</text></g><!--class DataDownload--><g class="entity" data-qualified-name="DataDownload" data-source-line="15" id="ent0005"><rect fill="#FCF3CF" height="25.0938" rx="2.5" ry="2.5" style="stroke:#404040;stroke-width:0.5;" width="84.7148" x="675.5" y="45.6094"/><text fill="#000000" font-family="sans-serif" font-size="12" lengthAdjust="spacing" textLength="78.7148" x="678.5" y="63.0664">DataDownload</text></g><!--class PrimaryKey--><g class="entity" data-qualified-name="PrimaryKey" data-source-line="16" id="ent0006"><rect fill="#FAE5D3" height="25.0938" rx="2.5" ry="2.5" style="stroke:#404040;stroke-width:0.5;" width="68.0098" x="981" y="45.6094"/><text fill="#000000" font-family="sans-serif" font-size="12" lengthAdjust="spacing" textLength="62.0098" x="984" y="63.0664">PrimaryKey</text></g><!--class PrimaryKeyComponent--><g class="entity" data-qualified-name="PrimaryKeyComponent" data-source-line="17" id="ent0007"><rect fill="#FAE5D3" height="25.0938" rx="2.5" ry="2.5" style="stroke:#404040;stroke-width:0.5;" width="130.0488" x="950" y="148.6094"/><text fill="#000000" font-family="sans-serif" font-size="12" lengthAdjust="spacing" textLength="124.0488" x="953" y="166.0664">PrimaryKeyComponent</text></g><!--class Statistic--><g class="entity" data-qualified-name="Statistic" data-source-line="18" id="ent0008"><rect fill="#FCF3CF" height="25.0938" rx="2.5" ry="2.5" style="stroke:#404040;stroke-width:0.5;" width="48.0117" x="9" y="45.6094"/><text fill="#000000" font-family="sans-serif" font-size="12" lengthAdjust="spacing" textLength="42.0117" x="12" y="63.0664">Statistic</text></g><!--class Statistics--><g class="entity" data-qualified-name="Statistics" data-source-line="19" id="ent0009"><rect fill="#FCF3CF" height="25.0938" rx="2.5" ry="2.5" style="stroke:#404040;stroke-width:0.5;" width="54.0117" x="183" y="460.6094"/><text fill="#000000" font-family="sans-serif" font-size="12" lengthAdjust="spacing" textLength="48.0117" x="186" y="478.0664">Statistics</text></g><!--class CategoryStatistics--><g class="entity" data-qualified-name="CategoryStatistics" data-source-line="20" id="ent0010"><rect fill="#FCF3CF" height="25.0938" rx="2.5" ry="2.5" style="stroke:#404040;stroke-width:0.5;" width="102.7031" x="370.5" y="563.6094"/><text fill="#000000" font-family="sans-serif" font-size="12" lengthAdjust="spacing" textLength="96.7031" x="373.5" y="581.0664">CategoryStatistics</text></g><!--class StatisticsCollection--><g class="entity" data-qualified-name="StatisticsCollection" data-source-line="21" id="ent0011"><rect fill="#FCF3CF" height="25.0938" rx="2.5" ry="2.5" style="stroke:#404040;stroke-width:0.5;" width="106.7051" x="259.5" y="357.6094"/><text fill="#000000" font-family="sans-serif" font-size="12" lengthAdjust="spacing" textLength="100.7051" x="262.5" y="375.0664">StatisticsCollection</text></g><!--class Category--><g class="entity" data-qualified-name="Category" data-source-line="22" id="ent0012"><rect fill="#FCF3CF" height="25.0938" rx="2.5" ry="2.5" style="stroke:#404040;stroke-width:0.5;" width="54.6914" x="394.5" y="666.6094"/><text fill="#000000" font-family="sans-serif" font-size="12" lengthAdjust="spacing" textLength="48.6914" x="397.5" y="684.0664">Category</text></g><!--class SubstantiveValueDomain--><g class="entity" data-qualified-name="SubstantiveValueDomain" data-source-line="23" id="ent0013"><rect fill="#FAE5D3" height="25.0938" rx="2.5" ry="2.5" style="stroke:#404040;stroke-width:0.5;" width="140.748" x="581.5" y="357.6094"/><text fill="#000000" font-family="sans-serif" font-size="12" lengthAdjust="spacing" textLength="134.748" x="584.5" y="375.0664">SubstantiveValueDomain</text></g><!--class SentinelValueDomain--><g class="entity" data-qualified-name="SentinelValueDomain" data-source-line="24" id="ent0014"><rect fill="#FAE5D3" height="25.0938" rx="2.5" ry="2.5" style="stroke:#404040;stroke-width:0.5;" width="121.4063" x="838.5" y="357.6094"/><text fill="#000000" font-family="sans-serif" font-size="12" lengthAdjust="spacing" textLength="115.4063" x="841.5" y="375.0664">SentinelValueDomain</text></g><!--class ValueAndConceptDescription--><g class="entity" data-qualified-name="ValueAndConceptDescription" data-source-line="25" id="ent0015"><rect fill="#FAE5D3" height="25.0938" rx="2.5" ry="2.5" style="stroke:#404040;stroke-width:0.5;" width="162.7617" x="674.5" y="460.6094"/><text fill="#000000" font-family="sans-serif" font-size="12" lengthAdjust="spacing" textLength="156.7617" x="677.5" y="478.0664">ValueAndConceptDescription</text></g><!--class EnumerationDomain--><g class="entity" data-qualified-name="EnumerationDomain" data-source-line="26" id="ent0016"><rect fill="#FAE5D3" height="25.0938" rx="2.5" ry="2.5" style="stroke:#404040;stroke-width:0.5;" width="115.3887" x="919.5" y="460.6094"/><text fill="#000000" font-family="sans-serif" font-size="12" lengthAdjust="spacing" textLength="109.3887" x="922.5" y="478.0664">EnumerationDomain</text></g><!--class PhysicalMapping--><g class="entity" data-qualified-name="PhysicalMapping" data-source-line="27" id="ent0017"><rect fill="#FCF3CF" height="25.0938" rx="2.5" ry="2.5" style="stroke:#404040;stroke-width:0.5;" width="96.7148" x="525.5" y="148.6094"/><text fill="#000000" font-family="sans-serif" font-size="12" lengthAdjust="spacing" textLength="90.7148" x="528.5" y="166.0664">PhysicalMapping</text></g><!--class TextMapping--><g class="entity" data-qualified-name="TextMapping" data-source-line="28" id="ent0018"><rect fill="#FCF3CF" height="25.0938" rx="2.5" ry="2.5" style="stroke:#404040;stroke-width:0.5;" width="75.3691" x="655.5" y="253.1094"/><text fill="#000000" font-family="sans-serif" font-size="12" lengthAdjust="spacing" textLength="69.3691" x="658.5" y="270.5664">TextMapping</text></g><!--class LocatorMapping--><g class="entity" data-qualified-name="LocatorMapping" data-source-line="29" id="ent0019"><rect fill="#FCF3CF" height="25.0938" rx="2.5" ry="2.5" style="stroke:#404040;stroke-width:0.5;" width="92.0566" x="528" y="253.1094"/><text fill="#000000" font-family="sans-serif" font-size="12" lengthAdjust="spacing" textLength="86.0566" x="531" y="270.5664">LocatorMapping</text></g><!--class TabularTextDataSet--><g class="entity" data-qualified-name="TabularTextDataSet" data-source-line="30" id="ent0020"><rect fill="#FAE5D3" height="25.0938" rx="2.5" ry="2.5" style="stroke:#404040;stroke-width:0.5;" width="113.3848" x="661.5" y="148.6094"/><text fill="#000000" font-family="sans-serif" font-size="12" lengthAdjust="spacing" textLength="107.3848" x="664.5" y="166.0664">TabularTextDataSet</text></g><!--class StructuredDataSet--><g class="entity" data-qualified-name="StructuredDataSet" data-source-line="31" id="ent0021"><rect fill="#FAE5D3" height="25.0938" rx="2.5" ry="2.5" style="stroke:#404040;stroke-width:0.5;" width="104.7188" x="809.5" y="148.6094"/><text fill="#000000" font-family="sans-serif" font-size="12" lengthAdjust="spacing" textLength="98.7188" x="812.5" y="166.0664">StructuredDataSet</text></g><!--class DataFingerprint--><g class="entity" data-qualified-name="DataFingerprint" data-source-line="32" id="ent0022"><rect fill="#FCF3CF" height="25.0938" rx="2.5" ry="2.5" style="stroke:#404040;stroke-width:0.5;" width="88.7051" x="92.5" y="45.6094"/><text fill="#000000" font-family="sans-serif" font-size="12" lengthAdjust="spacing" textLength="82.7051" x="95.5" y="63.0664">DataFingerprint</text></g><!--class Concept--><g class="entity" data-qualified-name="Concept" data-source-line="33" id="ent0023"><rect fill="#FCF3CF" height="25.0938" rx="2.5" ry="2.5" style="stroke:#404040;stroke-width:0.5;" width="50.6953" x="216.5" y="45.6094"/><text fill="#000000" font-family="sans-serif" font-size="12" lengthAdjust="spacing" textLength="44.6953" x="219.5" y="63.0664">Concept</text></g><!--class Identifier--><g class="entity" data-qualified-name="Identifier" data-source-line="34" id="ent0024"><rect fill="#FCF3CF" height="25.0938" rx="2.5" ry="2.5" style="stroke:#404040;stroke-width:0.5;" width="52.0254" x="7" y="148.6094"/><text fill="#000000" font-family="sans-serif" font-size="12" lengthAdjust="spacing" textLength="46.0254" x="10" y="166.0664">Identifier</text></g><!--class DefinedTerm--><g class="entity" data-qualified-name="DefinedTerm" data-source-line="35" id="ent0025"><rect fill="#FCF3CF" height="25.0938" rx="2.5" ry="2.5" style="stroke:#404040;stroke-width:0.5;" width="75.3574" x="94.5" y="148.6094"/><text fill="#000000" font-family="sans-serif" font-size="12" lengthAdjust="spacing" textLength="69.3574" x="97.5" y="166.0664">DefinedTerm</text></g><!--reverse link AbstractVariable to InstanceVariable--><g class="link" data-entity-1="ent0002" data-entity-2="ent0003" data-link-type="extension" data-source-line="36" id="lnk26"><path codeLine="36" d="M347.7275,88.8015 C346.2075,109.5915 345.14,136.2394 349,173.6094 C351.98,202.5094 360.17,235.7594 364.76,252.9494" fill="none" id="AbstractVariable-backto-InstanceVariable" style="stroke:#404040;stroke-width:1.2;"/><polygon fill="none" points="349.04,70.8494,341.7435,88.364,353.7115,89.239,349.04,70.8494" style="stroke:#404040;stroke-width:1.2;"/></g><!--reverse link AbstractVariable to VariableMeasured--><g class="link" data-entity-1="ent0002" data-entity-2="ent0004" data-link-type="extension" data-source-line="37" id="lnk27"><path codeLine="37" d="M367.8574,85.6275 C380.9074,104.9975 396.96,128.8494 410.08,148.3494" fill="none" id="AbstractVariable-backto-VariableMeasured" style="stroke:#404040;stroke-width:1.2;"/><polygon fill="none" points="357.8,70.6994,362.8814,88.98,372.8334,82.275,357.8,70.6994" style="stroke:#404040;stroke-width:1.2;"/></g><!--reverse link PhysicalMapping to TextMapping--><g class="link" data-entity-1="ent0017" data-entity-2="ent0018" data-link-type="extension" data-source-line="38" id="lnk28"><path codeLine="38" d="M601.2902,185.6144 C624.2502,205.3844 656.66,233.3094 679.51,252.9894" fill="none" id="PhysicalMapping-backto-TextMapping" style="stroke:#404040;stroke-width:1.2;"/><polygon fill="none" points="587.65,173.8694,597.3752,190.1611,605.2052,181.0677,587.65,173.8694" style="stroke:#404040;stroke-width:1.2;"/></g><!--reverse link PhysicalMapping to LocatorMapping--><g class="link" data-entity-1="ent0017" data-entity-2="ent0019" data-link-type="extension" data-source-line="39" id="lnk29"><path codeLine="39" d="M574,191.8694 C574,211.6394 574,233.3094 574,252.9894" fill="none" id="PhysicalMapping-backto-LocatorMapping" style="stroke:#404040;stroke-width:1.2;"/><polygon fill="none" points="574,173.8694,568,191.8694,580,191.8694,574,173.8694" style="stroke:#404040;stroke-width:1.2;"/></g><!--reverse link DataDownload to TabularTextDataSet--><g class="link" data-entity-1="ent0005" data-entity-2="ent0020" data-link-type="extension" data-source-line="40" id="lnk30"><path codeLine="40" d="M718,88.6994 C718,108.0694 718,128.8494 718,148.3494" fill="none" id="DataDownload-backto-TabularTextDataSet" style="stroke:#404040;stroke-width:1.2;"/><polygon fill="none" points="718,70.6994,712,88.6994,724,88.6994,718,70.6994" style="stroke:#404040;stroke-width:1.2;"/></g><!--reverse link DataDownload to StructuredDataSet--><g class="link" data-entity-1="ent0005" data-entity-2="ent0021" data-link-type="extension" data-source-line="41" id="lnk31"><path codeLine="41" d="M749.2589,81.0321 C776.8889,100.4021 817.43,128.8494 845.23,148.3494" fill="none" id="DataDownload-backto-StructuredDataSet" style="stroke:#404040;stroke-width:1.2;"/><polygon fill="none" points="734.52,70.6994,745.8147,85.945,752.7031,76.1191,734.52,70.6994" style="stroke:#404040;stroke-width:1.2;"/></g><!--link InstanceVariable to StatisticsCollection--><g class="link" data-entity-1="ent0003" data-entity-2="ent0011" data-link-type="dependency" data-source-line="42" id="lnk32"><path codeLine="42" d="M374.95,278.1094 C381.72,290.9394 389.8,311.9394 381,327.6094 C373.35,341.2394 364.5989,348.2812 351.1789,354.8512" fill="none" id="InstanceVariable-to-StatisticsCollection" style="stroke:#404040;stroke-width:1.2;"/><polygon fill="#404040" points="345.79,357.4894,355.6321,357.1246,350.2807,355.2909,352.1145,349.9395,345.79,357.4894" style="stroke:#404040;stroke-width:1.2;"/><text fill="#000000" font-family="sans-serif" font-size="13" lengthAdjust="spacing" textLength="83.0845" x="386" y="324.1045">isDescribedBy</text><text fill="#000000" font-family="sans-serif" font-size="13" lengthAdjust="spacing" textLength="21.6836" x="334.1864" y="346.5319">0..1</text></g><!--link StatisticsCollection to InstanceVariable--><g class="link" data-entity-1="ent0011" data-entity-2="ent0003" data-link-type="dependency" data-source-line="55" id="lnk45"><path codeLine="55" d="M259.29,357.5894 C226.79,348.0594 194.67,332.3594 212,309.6094 C225.19,292.2894 273.6828,281.1726 314.5528,274.3126" fill="none" id="StatisticsCollection-to-InstanceVariable" style="stroke:#404040;stroke-width:1.2;"/><polygon fill="#404040" points="320.47,273.3194,310.932,270.8644,315.539,274.147,312.2563,278.754,320.47,273.3194" style="stroke:#404040;stroke-width:1.2;"/><text fill="#000000" font-family="sans-serif" font-size="13" lengthAdjust="spacing" textLength="60.709" x="213" y="324.1045">indexedBy</text><text fill="#000000" font-family="sans-serif" font-size="13" lengthAdjust="spacing" textLength="19.5127" x="293.4171" y="298.0997">1..*</text></g><!--link StatisticsCollection to InstanceVariable--><g class="link" data-entity-1="ent0011" data-entity-2="ent0003" data-link-type="dependency" data-source-line="56" id="lnk46"><path codeLine="56" d="M309.16,357.4494 C305.75,344.9194 302.37,324.7594 310,309.6094 C316.93,295.8394 325.3996,288.3792 337.7296,281.2292" fill="none" id="StatisticsCollection-to-InstanceVariable-1" style="stroke:#404040;stroke-width:1.2;"/><polygon fill="#404040" points="342.92,278.2194,333.1278,279.2739,338.5946,280.7276,337.1409,286.1945,342.92,278.2194" style="stroke:#404040;stroke-width:1.2;"/><text fill="#000000" font-family="sans-serif" font-size="13" lengthAdjust="spacing" textLength="61.4199" x="311" y="324.1045">hasWeight</text><text fill="#000000" font-family="sans-serif" font-size="13" lengthAdjust="spacing" textLength="21.6836" x="337.4172" y="299.6212">0..1</text></g><!--link InstanceVariable to InstanceVariable--><g class="link" data-entity-1="ent0003" data-entity-2="ent0003" data-link-type="dependency" data-source-line="43" id="lnk33"><path codeLine="43" d="M415.89,255.9094 C434.75,255.4194 450.5,258.6494 450.5,265.6094 C450.5,272.5694 440.748,275.9552 421.888,275.4652" fill="none" id="InstanceVariable-to-InstanceVariable" style="stroke:#404040;stroke-width:1.2;"/><polygon fill="#404040" points="415.89,275.3094,424.7831,279.5418,420.8883,275.4392,424.9909,271.5445,415.89,275.3094" style="stroke:#404040;stroke-width:1.2;"/><text fill="#000000" font-family="sans-serif" font-size="13" lengthAdjust="spacing" textLength="47.6963" x="456.5" y="271.1045">qualifies</text><text fill="#000000" font-family="sans-serif" font-size="13" lengthAdjust="spacing" textLength="21.6836" x="423.7558" y="273.0503">0..1</text></g><!--link InstanceVariable to SubstantiveValueDomain--><g class="link" data-entity-1="ent0003" data-entity-2="ent0013" data-link-type="dependency" data-source-line="44" id="lnk34"><path codeLine="44" d="M415.51,273.3094 C453.87,279.7194 508.72,291.1894 554,309.6094 C585.16,322.2894 613.0182,340.6571 631.6582,354.0571" fill="none" id="InstanceVariable-to-SubstantiveValueDomain" style="stroke:#404040;stroke-width:1.2;"/><polygon fill="#404040" points="636.53,357.5594,631.5572,349.0581,632.4702,354.6408,626.8875,355.5539,636.53,357.5594" style="stroke:#404040;stroke-width:1.2;"/><text fill="#000000" font-family="sans-serif" font-size="13" lengthAdjust="spacing" textLength="169.0825" x="589" y="324.1045">takesSubstantiveValuesFrom</text><text fill="#000000" font-family="sans-serif" font-size="13" lengthAdjust="spacing" textLength="21.6836" x="605.0103" y="346.6308">0..1</text></g><!--link InstanceVariable to SentinelValueDomain--><g class="link" data-entity-1="ent0003" data-entity-2="ent0014" data-link-type="dependency" data-source-line="45" id="lnk35"><path codeLine="45" d="M415.78,270.9094 C514.35,279.8894 733.8,300.5894 767,309.6094 C808.48,320.8894 848.1792,340.7642 873.4692,354.6342" fill="none" id="InstanceVariable-to-SentinelValueDomain" style="stroke:#404040;stroke-width:1.2;"/><polygon fill="#404040" points="878.73,357.5194,872.7623,349.6844,874.346,355.115,868.9154,356.6987,878.73,357.5194" style="stroke:#404040;stroke-width:1.2;"/><text fill="#000000" font-family="sans-serif" font-size="13" lengthAdjust="spacing" textLength="148.1289" x="817" y="324.1045">takesSentinelValuesFrom</text><text fill="#000000" font-family="sans-serif" font-size="13" lengthAdjust="spacing" textLength="19.5127" x="847.4718" y="346.5743">0..*</text></g><!--link VariableMeasured to InstanceVariable--><g class="link" data-entity-1="ent0004" data-entity-2="ent0003" data-link-type="dependency" data-source-line="46" id="lnk36"><path codeLine="46" d="M412.26,173.8694 C402.62,193.6394 385.9005,227.9168 376.3005,247.5968" fill="none" id="VariableMeasured-to-InstanceVariable" style="stroke:#404040;stroke-width:1.2;"/><polygon fill="#404040" points="373.67,252.9894,381.2109,246.6542,375.8621,248.4955,374.0207,243.1468,373.67,252.9894" style="stroke:#404040;stroke-width:1.2;"/><text fill="#000000" font-family="sans-serif" font-size="13" lengthAdjust="spacing" textLength="55.6372" x="399" y="218.1045">describes</text><text fill="#000000" font-family="sans-serif" font-size="13" lengthAdjust="spacing" textLength="21.6836" x="350.738" y="242.0319">0..1</text></g><!--link DataDownload to PhysicalMapping--><g class="link" data-entity-1="ent0005" data-entity-2="ent0017" data-link-type="dependency" data-source-line="47" id="lnk37"><path codeLine="47" d="M675.2,62.3394 C646.96,66.7194 611.21,76.9294 589,100.6094 C576.76,113.6694 574.2827,129.2116 573.9227,142.4816" fill="none" id="DataDownload-to-PhysicalMapping" style="stroke:#404040;stroke-width:1.2;"/><polygon fill="#404040" points="573.76,148.4794,578.0026,139.5912,573.8956,143.4812,570.0055,139.3742,573.76,148.4794" style="stroke:#404040;stroke-width:1.2;"/><text fill="#000000" font-family="sans-serif" font-size="13" lengthAdjust="spacing" textLength="119.2344" x="590" y="115.1045">hasPhysicalMapping</text><text fill="#000000" font-family="sans-serif" font-size="13" lengthAdjust="spacing" textLength="19.5127" x="550.9068" y="137.5178">0..*</text></g><!--link PrimaryKey to PrimaryKeyComponent--><g class="link" data-entity-1="ent0006" data-entity-2="ent0007" data-link-type="dependency" data-source-line="48" id="lnk38"><path codeLine="48" d="M1015,70.6994 C1015,90.0694 1015,122.8494 1015,142.3494" fill="none" id="PrimaryKey-to-PrimaryKeyComponent" style="stroke:#404040;stroke-width:1.2;"/><polygon fill="#404040" points="1015,148.3494,1019,139.3494,1015,143.3494,1011,139.3494,1015,148.3494" style="stroke:#404040;stroke-width:1.2;"/><text fill="#000000" font-family="sans-serif" font-size="13" lengthAdjust="spacing" textLength="85.979" x="1016" y="115.1045">isComposedOf</text><text fill="#000000" font-family="sans-serif" font-size="13" lengthAdjust="spacing" textLength="19.5127" x="992.3507" y="137.721">1..*</text></g><!--link Statistics to InstanceVariable--><g class="link" data-entity-1="ent0009" data-entity-2="ent0003" data-link-type="dependency" data-source-line="49" id="lnk39"><path codeLine="49" d="M182.62,465.4094 C130.49,451.1994 24.81,414.5994 56,357.6094 C75,322.8894 94.17,324.0794 131,309.6094 C193.66,284.9894 265.2754,274.8811 314.2254,270.3611" fill="none" id="Statistics-to-InstanceVariable" style="stroke:#404040;stroke-width:1.2;"/><polygon fill="#404040" points="320.2,269.8094,310.8703,266.6539,315.2212,270.2691,311.6059,274.62,320.2,269.8094" style="stroke:#404040;stroke-width:1.2;"/><text fill="#000000" font-family="sans-serif" font-size="13" lengthAdjust="spacing" textLength="56.3672" x="57" y="375.6045">appliesTo</text><text fill="#000000" font-family="sans-serif" font-size="13" lengthAdjust="spacing" textLength="19.5127" x="293.1508" y="285.0382">1..*</text></g><!--link Statistics to InstanceVariable--><g class="link" data-entity-1="ent0009" data-entity-2="ent0003" data-link-type="dependency" data-source-line="50" id="lnk40"><path codeLine="50" d="M204.6,460.5694 C197.09,443.8294 183.88,411.6394 179,382.6094 C173.4,349.3194 174.28,331.4694 200,309.6094 C233.49,281.1394 277.4544,271.6997 314.1744,268.3797" fill="none" id="Statistics-to-InstanceVariable-1" style="stroke:#404040;stroke-width:1.2;"/><polygon fill="#404040" points="320.15,267.8394,310.8264,264.666,315.1703,268.2896,311.5467,272.6335,320.15,267.8394" style="stroke:#404040;stroke-width:1.2;"/><text fill="#000000" font-family="sans-serif" font-size="13" lengthAdjust="spacing" textLength="61.4199" x="180" y="375.6045">hasWeight</text><text fill="#000000" font-family="sans-serif" font-size="13" lengthAdjust="spacing" textLength="21.6836" x="290.9651" y="264.5412">0..1</text></g><!--link Statistics to CategoryStatistics--><g class="link" data-entity-1="ent0009" data-entity-2="ent0010" data-link-type="dependency" data-source-line="51" id="lnk41"><path codeLine="51" d="M234.32,485.6994 C275.1,505.1294 351.4132,541.4791 392.2232,560.9191" fill="none" id="Statistics-to-CategoryStatistics" style="stroke:#404040;stroke-width:1.2;"/><polygon fill="#404040" points="397.64,563.4994,391.235,556.0177,393.126,561.3491,387.7946,563.2401,397.64,563.4994" style="stroke:#404040;stroke-width:1.2;"/><text fill="#000000" font-family="sans-serif" font-size="13" lengthAdjust="spacing" textLength="20.96" x="330" y="530.1045">has</text><text fill="#000000" font-family="sans-serif" font-size="13" lengthAdjust="spacing" textLength="19.5127" x="364.8397" y="552.546">0..*</text></g><!--link CategoryStatistics to Category--><g class="link" data-entity-1="ent0010" data-entity-2="ent0012" data-link-type="dependency" data-source-line="52" id="lnk42"><path codeLine="52" d="M422,588.6994 C422,608.0694 422,640.8494 422,660.3494" fill="none" id="CategoryStatistics-to-Category" style="stroke:#404040;stroke-width:1.2;"/><polygon fill="#404040" points="422,666.3494,426,657.3494,422,661.3494,418,657.3494,422,666.3494" style="stroke:#404040;stroke-width:1.2;"/><text fill="#000000" font-family="sans-serif" font-size="13" lengthAdjust="spacing" textLength="15.1709" x="423" y="633.1045">for</text><text fill="#000000" font-family="sans-serif" font-size="13" lengthAdjust="spacing" textLength="7.23" x="413.7279" y="655.721">1</text></g><!--link CategoryStatistics to InstanceVariable--><g class="link" data-entity-1="ent0010" data-entity-2="ent0003" data-link-type="dependency" data-source-line="53" id="lnk43"><path codeLine="53" d="M430.06,563.5694 C456.43,524.2794 535.24,393.4494 478,309.6094 C463.95,289.0394 444.289,279.7216 421.379,274.1316" fill="none" id="CategoryStatistics-to-InstanceVariable" style="stroke:#404040;stroke-width:1.2;"/><polygon fill="#404040" points="415.55,272.7094,423.3453,278.7288,420.4075,273.8946,425.2417,270.9568,415.55,272.7094" style="stroke:#404040;stroke-width:1.2;"/><text fill="#000000" font-family="sans-serif" font-size="13" lengthAdjust="spacing" textLength="61.4199" x="497" y="427.1045">hasWeight</text><text fill="#000000" font-family="sans-serif" font-size="13" lengthAdjust="spacing" textLength="21.6836" x="423.7339" y="288.3461">0..1</text></g><!--link StatisticsCollection to Statistics--><g class="link" data-entity-1="ent0011" data-entity-2="ent0009" data-link-type="dependency" data-source-line="54" id="lnk44"><path codeLine="54" d="M301.18,382.6994 C281.42,402.0694 246.1644,436.6489 226.2744,456.1489" fill="none" id="StatisticsCollection-to-Statistics" style="stroke:#404040;stroke-width:1.2;"/><polygon fill="#404040" points="221.99,460.3494,231.2169,456.905,225.5604,456.849,225.6164,451.1924,221.99,460.3494" style="stroke:#404040;stroke-width:1.2;"/><text fill="#000000" font-family="sans-serif" font-size="13" lengthAdjust="spacing" textLength="20.96" x="269" y="427.1045">has</text><text fill="#000000" font-family="sans-serif" font-size="13" lengthAdjust="spacing" textLength="19.5127" x="204.0691" y="449.721">1..*</text></g><!--link SubstantiveValueDomain to EnumerationDomain--><g class="link" data-entity-1="ent0013" data-entity-2="ent0016" data-link-type="dependency" data-source-line="57" id="lnk47"><path codeLine="57" d="M669.95,382.6194 C695.62,398.9994 740.65,427.4194 749,430.6094 C804.62,451.8694 866.1652,461.7706 913.2352,466.8906" fill="none" id="SubstantiveValueDomain-to-EnumerationDomain" style="stroke:#404040;stroke-width:1.2;"/><polygon fill="#404040" points="919.2,467.5394,910.6853,462.5896,914.2293,466.9987,909.8202,470.5427,919.2,467.5394" style="stroke:#404040;stroke-width:1.2;"/><text fill="#000000" font-family="sans-serif" font-size="13" lengthAdjust="spacing" textLength="101.1499" x="750" y="427.1045">takesValuesFrom</text><text fill="#000000" font-family="sans-serif" font-size="13" lengthAdjust="spacing" textLength="21.6836" x="889.8939" y="463.3964">0..1</text></g><!--link SubstantiveValueDomain to ValueAndConceptDescription--><g class="link" data-entity-1="ent0013" data-entity-2="ent0015" data-link-type="dependency" data-source-line="58" id="lnk48"><path codeLine="58" d="M640.77,382.9194 C630.13,395.5694 617.26,415.8294 628,430.6094 C639.2,446.0094 650.5671,453.8555 668.5971,460.0655" fill="none" id="SubstantiveValueDomain-to-ValueAndConceptDescription" style="stroke:#404040;stroke-width:1.2;"/><polygon fill="#404040" points="674.27,462.0194,667.0632,455.3066,669.5426,460.3911,664.458,462.8705,674.27,462.0194" style="stroke:#404040;stroke-width:1.2;"/><text fill="#000000" font-family="sans-serif" font-size="13" lengthAdjust="spacing" textLength="83.0845" x="629" y="427.1045">isDescribedBy</text><text fill="#000000" font-family="sans-serif" font-size="13" lengthAdjust="spacing" textLength="21.6836" x="644.81" y="457.7665">0..1</text></g><!--link SentinelValueDomain to EnumerationDomain--><g class="link" data-entity-1="ent0014" data-entity-2="ent0016" data-link-type="dependency" data-source-line="59" id="lnk49"><path codeLine="59" d="M945.61,382.7294 C960.83,388.9794 976.1,398.4294 985,412.6094 C994.09,427.0894 990.5774,441.8992 985.2074,454.6592" fill="none" id="SentinelValueDomain-to-EnumerationDomain" style="stroke:#404040;stroke-width:1.2;"/><polygon fill="#404040" points="982.88,460.1894,990.0579,453.4456,984.8195,455.5809,982.6842,450.3425,982.88,460.1894" style="stroke:#404040;stroke-width:1.2;"/><text fill="#000000" font-family="sans-serif" font-size="13" lengthAdjust="spacing" textLength="101.1499" x="991" y="427.1045">takesValuesFrom</text><text fill="#000000" font-family="sans-serif" font-size="13" lengthAdjust="spacing" textLength="21.6836" x="960.1748" y="449.7579">0..1</text></g><!--link SentinelValueDomain to ValueAndConceptDescription--><g class="link" data-entity-1="ent0014" data-entity-2="ent0015" data-link-type="dependency" data-source-line="60" id="lnk50"><path codeLine="60" d="M894.04,382.7094 C887.84,395.9594 876.07,417.4794 860,430.6094 C843.14,444.3894 826.8183,452.1406 807.3883,458.6606" fill="none" id="SentinelValueDomain-to-ValueAndConceptDescription" style="stroke:#404040;stroke-width:1.2;"/><polygon fill="#404040" points="801.7,460.5694,811.5049,461.4984,806.4402,458.9787,808.9599,453.914,801.7,460.5694" style="stroke:#404040;stroke-width:1.2;"/><text fill="#000000" font-family="sans-serif" font-size="13" lengthAdjust="spacing" textLength="83.0845" x="877" y="427.1045">isDescribedBy</text><text fill="#000000" font-family="sans-serif" font-size="13" lengthAdjust="spacing" textLength="21.6836" x="795.4101" y="449.6449">0..1</text></g><!--link PhysicalMapping to InstanceVariable--><g class="link" data-entity-1="ent0017" data-entity-2="ent0003" data-link-type="dependency" data-source-line="61" id="lnk51"><path codeLine="61" d="M553.35,173.7194 C531.22,186.0294 494.96,205.8294 463,221.6094 C440.27,232.8294 419.4846,242.2292 400.3346,250.6292" fill="none" id="PhysicalMapping-to-InstanceVariable" style="stroke:#404040;stroke-width:1.2;"/><polygon fill="#404040" points="394.84,253.0394,404.6887,253.0872,399.4189,251.0309,401.4752,245.761,394.84,253.0394" style="stroke:#404040;stroke-width:1.2;"/><text fill="#000000" font-family="sans-serif" font-size="13" lengthAdjust="spacing" textLength="43.3418" x="498" y="218.1045">formats</text><text fill="#000000" font-family="sans-serif" font-size="13" lengthAdjust="spacing" textLength="7.23" x="397.4346" y="242.1025">1</text></g><?plantuml-src bLNDRjim3BxhAOJqDY15qswNO1YG9ZLGRCK6DDZEZCqqGcN9a-HcsG-mXzWJxaacMquYItAw8fVe8p-I5ZzIXXcETBwupHPWO84wLwmoJ0hwz_SVAfzGFJ7SaWqhaEPCvHpTVomhiwCbbYjKckX79YfGK5AzWK9kcNYWQ-0QFSjCARbTRbZ-A51hEZc_z8mv1ulz8DIvpIMNYfwzlcX-5hoMga0LefaKvfvzHpgv9By8WPKs2dBJ1HlDklDdK0nM74SKD0r1UfRDiwjvHZhIhT06H8uzKWXQqkpcpU9gJzhZTmYwLbYqf10CCxNtBRU2It047mYTFobMWjgznrthUZo6fHmjSrbMKg0m0UE0XzHx0uPfm_AMS3Y5fHmCkk-dGySv67oGQXSGOdWuW-qunxoHOv3hQ1ZAsiiLPQXNJKSDUx8zvJKkP0ciov4qHNTbxuy9v14xncEnMDDC57Df5LKPR-GwsGoPmq0teYvHGMFoAeZGI26RdMOvy3keAZkdJXrzBBok9Nuplhjt3bq_o1oCLBvt7ufYmwhce9gGpG3SezDh3CToLNLkcidoUH4QqXeuitMWgXJhXYF08acvLZX5kV_HsYYQngyPAhSm3iTewd5jzL4iKPKkzV5yS8rsrDkVut6qX0RSmhL3mjwsNbu7qmxzff7URd8HeWObdA9ka6YLZiVlwEZY_7moIe_tb3BjXc25nVNkP838DgLVQ-1D8_JfpEcXdr83ZwX3gywKB8VZlHebry0-c6zoaQANulGd5TrjwFw5U-d3Zaxf1dG04kyDQQaJHqsy4qqBsfF6ukEQU8lR8oOAjOculVcbZ2Y3tsRh_8BiOMDI59ibyNYq998mkEAE7EkvbchGyqKrUGBrxY2gwZb28XiJ1NvhbJvC_fzIquhswF53qIdKK-RpKKuyL-7afeRYfVMS3l62Oi8HsOibSQbMD2KOJVu1?></g></svg>