<svg xmlns="http://www.w3.org/2000/svg" xmlns:xlink="http://www.w3.org/1999/xlink" contentStyleType="text/css" data-diagram-type="CLASS" height="894px" preserveAspectRatio="none" style="width:1160px;height:894px;background:#FFFFFF;" version="1.1" viewBox="0 0 1160 894" width="1160px" zoomAndPan="magnify"><?plantuml 1.2026.3?><defs/><g><g class="title" data-source-line="1"><text fill="#000000" font-family="sans-serif" font-size="14" font-weight="700" lengthAdjust="spacing" textLength="222.1611" x="465.6589" y="24.5332">CDIFDataDescription &#8212; overview</text></g><!--class AbstractVariable--><g class="entity" data-qualified-name="AbstractVariable" data-source-line="12" id="ent0002"><rect fill="#FCF3CF" height="25.0938" rx="2.5" ry="2.5" style="stroke:#404040;stroke-width:0.5;" width="94.043" x="461.5" y="251.6094"/><text fill="#000000" font-family="sans-serif" font-size="12" font-style="italic" lengthAdjust="spacing" textLength="88.043" x="464.5" y="269.0664">AbstractVariable</text></g><!--class InstanceVariable--><g class="entity" data-qualified-name="InstanceVariable" data-source-line="13" id="ent0003"><rect fill="#FAE5D3" height="25.0938" rx="2.5" ry="2.5" style="stroke:#404040;stroke-width:0.5;" width="95.3906" x="580" y="442.1094"/><text fill="#000000" font-family="sans-serif" font-size="12" lengthAdjust="spacing" textLength="89.3906" x="583" y="459.5664">InstanceVariable</text></g><!--class VariableMeasured--><g class="entity" data-qualified-name="VariableMeasured" data-source-line="14" id="ent0004"><rect fill="#FCF3CF" height="25.0938" rx="2.5" ry="2.5" style="stroke:#404040;stroke-width:0.5;" width="103.3887" x="372" y="337.6094"/><text fill="#000000" font-family="sans-serif" font-size="12" lengthAdjust="spacing" textLength="97.3887" x="375" y="355.0664">VariableMeasured</text></g><!--class DataDownload--><g class="entity" data-qualified-name="DataDownload" data-source-line="15" id="ent0005"><rect fill="#FCF3CF" height="25.0938" rx="2.5" ry="2.5" style="stroke:#404040;stroke-width:0.5;" width="84.7148" x="718" y="45.6094"/><text fill="#000000" font-family="sans-serif" font-size="12" lengthAdjust="spacing" textLength="78.7148" x="721" y="63.0664">DataDownload</text></g><!--class PrimaryKey--><g class="entity" data-qualified-name="PrimaryKey" data-source-line="16" id="ent0006"><rect fill="#FAE5D3" height="25.0938" rx="2.5" ry="2.5" style="stroke:#404040;stroke-width:0.5;" width="68.0098" x="1023.5" y="45.6094"/><text fill="#000000" font-family="sans-serif" font-size="12" lengthAdjust="spacing" textLength="62.0098" x="1026.5" y="63.0664">PrimaryKey</text></g><!--class PrimaryKeyComponent--><g class="entity" data-qualified-name="PrimaryKeyComponent" data-source-line="17" id="ent0007"><rect fill="#FAE5D3" height="25.0938" rx="2.5" ry="2.5" style="stroke:#404040;stroke-width:0.5;" width="130.0488" x="992.5" y="148.6094"/><text fill="#000000" font-family="sans-serif" font-size="12" lengthAdjust="spacing" textLength="124.0488" x="995.5" y="166.0664">PrimaryKeyComponent</text></g><!--class Statistic--><g class="entity" data-qualified-name="Statistic" data-source-line="18" id="ent0008"><rect fill="#FCF3CF" height="25.0938" rx="2.5" ry="2.5" style="stroke:#404040;stroke-width:0.5;" width="48.0117" x="316.5" y="45.6094"/><text fill="#000000" font-family="sans-serif" font-size="12" lengthAdjust="spacing" textLength="42.0117" x="319.5" y="63.0664">Statistic</text></g><!--class Statistics--><g class="entity" data-qualified-name="Statistics" data-source-line="19" id="ent0009"><rect fill="#FCF3CF" height="25.0938" rx="2.5" ry="2.5" style="stroke:#404040;stroke-width:0.5;" width="54.0117" x="798.5" y="649.6094"/><text fill="#000000" font-family="sans-serif" font-size="12" lengthAdjust="spacing" textLength="48.0117" x="801.5" y="667.0664">Statistics</text></g><!--class CategoryStatistics--><g class="entity" data-qualified-name="CategoryStatistics" data-source-line="20" id="ent0010"><rect fill="#FCF3CF" height="25.0938" rx="2.5" ry="2.5" style="stroke:#404040;stroke-width:0.5;" width="102.7031" x="846" y="752.6094"/><text fill="#000000" font-family="sans-serif" font-size="12" lengthAdjust="spacing" textLength="96.7031" x="849" y="770.0664">CategoryStatistics</text></g><!--class StatisticsCollection--><g class="entity" data-qualified-name="StatisticsCollection" data-source-line="21" id="ent0011"><rect fill="#FCF3CF" height="25.0938" rx="2.5" ry="2.5" style="stroke:#404040;stroke-width:0.5;" width="106.7051" x="553" y="546.6094"/><text fill="#000000" font-family="sans-serif" font-size="12" lengthAdjust="spacing" textLength="100.7051" x="556" y="564.0664">StatisticsCollection</text></g><!--class Category--><g class="entity" data-qualified-name="Category" data-source-line="22" id="ent0012"><rect fill="#FCF3CF" height="25.0938" rx="2.5" ry="2.5" style="stroke:#404040;stroke-width:0.5;" width="54.6914" x="870" y="855.6094"/><text fill="#000000" font-family="sans-serif" font-size="12" lengthAdjust="spacing" textLength="48.6914" x="873" y="873.0664">Category</text></g><!--class SubstantiveValueDomain--><g class="entity" data-qualified-name="SubstantiveValueDomain" data-source-line="23" id="ent0013"><rect fill="#FAE5D3" height="25.0938" rx="2.5" ry="2.5" style="stroke:#404040;stroke-width:0.5;" width="140.748" x="169" y="546.6094"/><text fill="#000000" font-family="sans-serif" font-size="12" lengthAdjust="spacing" textLength="134.748" x="172" y="564.0664">SubstantiveValueDomain</text></g><!--class SentinelValueDomain--><g class="entity" data-qualified-name="SentinelValueDomain" data-source-line="24" id="ent0014"><rect fill="#FAE5D3" height="25.0938" rx="2.5" ry="2.5" style="stroke:#404040;stroke-width:0.5;" width="121.4063" x="7" y="546.6094"/><text fill="#000000" font-family="sans-serif" font-size="12" lengthAdjust="spacing" textLength="115.4063" x="10" y="564.0664">SentinelValueDomain</text></g><!--class EnumerationDomain--><g class="entity" data-qualified-name="EnumerationDomain" data-source-line="25" id="ent0015"><rect fill="#FAE5D3" height="25.0938" rx="2.5" ry="2.5" style="stroke:#404040;stroke-width:0.5;" width="115.3887" x="100" y="649.6094"/><text fill="#000000" font-family="sans-serif" font-size="12" lengthAdjust="spacing" textLength="109.3887" x="103" y="667.0664">EnumerationDomain</text></g><!--class PhysicalMapping--><g class="entity" data-qualified-name="PhysicalMapping" data-source-line="26" id="ent0016"><rect fill="#FCF3CF" height="25.0938" rx="2.5" ry="2.5" style="stroke:#404040;stroke-width:0.5;" width="96.7148" x="695" y="251.6094"/><text fill="#000000" font-family="sans-serif" font-size="12" lengthAdjust="spacing" textLength="90.7148" x="698" y="269.0664">PhysicalMapping</text></g><!--class TextMapping--><g class="entity" data-qualified-name="TextMapping" data-source-line="27" id="ent0017"><rect fill="#FCF3CF" height="25.0938" rx="2.5" ry="2.5" style="stroke:#404040;stroke-width:0.5;" width="75.3691" x="824" y="337.6094"/><text fill="#000000" font-family="sans-serif" font-size="12" lengthAdjust="spacing" textLength="69.3691" x="827" y="355.0664">TextMapping</text></g><!--class LocatorMapping--><g class="entity" data-qualified-name="LocatorMapping" data-source-line="28" id="ent0018"><rect fill="#FCF3CF" height="25.0938" rx="2.5" ry="2.5" style="stroke:#404040;stroke-width:0.5;" width="92.0566" x="581.5" y="337.6094"/><text fill="#000000" font-family="sans-serif" font-size="12" lengthAdjust="spacing" textLength="86.0566" x="584.5" y="355.0664">LocatorMapping</text></g><!--class TabularTextDataSet--><g class="entity" data-qualified-name="TabularTextDataSet" data-source-line="29" id="ent0019"><rect fill="#FAE5D3" height="25.0938" rx="2.5" ry="2.5" style="stroke:#404040;stroke-width:0.5;" width="113.3848" x="704" y="148.6094"/><text fill="#000000" font-family="sans-serif" font-size="12" lengthAdjust="spacing" textLength="107.3848" x="707" y="166.0664">TabularTextDataSet</text></g><!--class StructuredDataSet--><g class="entity" data-qualified-name="StructuredDataSet" data-source-line="30" id="ent0020"><rect fill="#FAE5D3" height="25.0938" rx="2.5" ry="2.5" style="stroke:#404040;stroke-width:0.5;" width="104.7188" x="852" y="148.6094"/><text fill="#000000" font-family="sans-serif" font-size="12" lengthAdjust="spacing" textLength="98.7188" x="855" y="166.0664">StructuredDataSet</text></g><!--class DataFingerprint--><g class="entity" data-qualified-name="DataFingerprint" data-source-line="31" id="ent0021"><rect fill="#FCF3CF" height="25.0938" rx="2.5" ry="2.5" style="stroke:#404040;stroke-width:0.5;" width="88.7051" x="400" y="45.6094"/><text fill="#000000" font-family="sans-serif" font-size="12" lengthAdjust="spacing" textLength="82.7051" x="403" y="63.0664">DataFingerprint</text></g><!--class Concept--><g class="entity" data-qualified-name="Concept" data-source-line="32" id="ent0022"><rect fill="#FCF3CF" height="25.0938" rx="2.5" ry="2.5" style="stroke:#404040;stroke-width:0.5;" width="50.6953" x="524" y="45.6094"/><text fill="#000000" font-family="sans-serif" font-size="12" lengthAdjust="spacing" textLength="44.6953" x="527" y="63.0664">Concept</text></g><!--class Identifier--><g class="entity" data-qualified-name="Identifier" data-source-line="33" id="ent0023"><rect fill="#FCF3CF" height="25.0938" rx="2.5" ry="2.5" style="stroke:#404040;stroke-width:0.5;" width="52.0254" x="314.5" y="148.6094"/><text fill="#000000" font-family="sans-serif" font-size="12" lengthAdjust="spacing" textLength="46.0254" x="317.5" y="166.0664">Identifier</text></g><!--class DefinedTerm--><g class="entity" data-qualified-name="DefinedTerm" data-source-line="34" id="ent0024"><rect fill="#FCF3CF" height="25.0938" rx="2.5" ry="2.5" style="stroke:#404040;stroke-width:0.5;" width="75.3574" x="402" y="148.6094"/><text fill="#000000" font-family="sans-serif" font-size="12" lengthAdjust="spacing" textLength="69.3574" x="405" y="166.0664">DefinedTerm</text></g><!--reverse link AbstractVariable to InstanceVariable--><g class="link" data-entity-1="ent0002" data-entity-2="ent0003" data-link-type="extension" data-source-line="35" id="lnk25"><path codeLine="35" d="M522.9825,292.6426 C532.7625,311.1426 544.41,332.3694 563.5,362.6094 C582.06,392.0094 606.16,425.0494 618.84,442.0794" fill="none" id="AbstractVariable-backto-InstanceVariable" style="stroke:#404040;stroke-width:1.2;"/><polygon fill="none" points="514.57,276.7294,517.6781,295.4467,528.2869,289.8384,514.57,276.7294" style="stroke:#404040;stroke-width:1.2;"/></g><!--reverse link AbstractVariable to VariableMeasured--><g class="link" data-entity-1="ent0002" data-entity-2="ent0004" data-link-type="extension" data-source-line="36" id="lnk26"><path codeLine="36" d="M483.8774,289.4422 C467.6374,305.4922 451.41,321.5294 435.22,337.5294" fill="none" id="AbstractVariable-backto-VariableMeasured" style="stroke:#404040;stroke-width:1.2;"/><polygon fill="none" points="496.68,276.7894,479.6598,285.1747,488.095,293.7097,496.68,276.7894" style="stroke:#404040;stroke-width:1.2;"/></g><!--reverse link PhysicalMapping to TextMapping--><g class="link" data-entity-1="ent0016" data-entity-2="ent0017" data-link-type="extension" data-source-line="37" id="lnk27"><path codeLine="37" d="M774.5726,287.2301 C797.1126,303.2801 822.76,321.5294 845.23,337.5294" fill="none" id="PhysicalMapping-backto-TextMapping" style="stroke:#404040;stroke-width:1.2;"/><polygon fill="none" points="759.91,276.7894,771.0923,292.1176,778.0528,282.3426,759.91,276.7894" style="stroke:#404040;stroke-width:1.2;"/></g><!--reverse link PhysicalMapping to LocatorMapping--><g class="link" data-entity-1="ent0016" data-entity-2="ent0018" data-link-type="extension" data-source-line="38" id="lnk28"><path codeLine="38" d="M712.792,287.3479 C690.632,303.3979 665.58,321.5294 643.49,337.5294" fill="none" id="PhysicalMapping-backto-LocatorMapping" style="stroke:#404040;stroke-width:1.2;"/><polygon fill="none" points="727.37,276.7894,709.2725,282.4886,716.3115,292.2072,727.37,276.7894" style="stroke:#404040;stroke-width:1.2;"/></g><!--reverse link DataDownload to TabularTextDataSet--><g class="link" data-entity-1="ent0005" data-entity-2="ent0019" data-link-type="extension" data-source-line="39" id="lnk29"><path codeLine="39" d="M760.5,88.6994 C760.5,108.0694 760.5,128.8494 760.5,148.3494" fill="none" id="DataDownload-backto-TabularTextDataSet" style="stroke:#404040;stroke-width:1.2;"/><polygon fill="none" points="760.5,70.6994,754.5,88.6994,766.5,88.6994,760.5,70.6994" style="stroke:#404040;stroke-width:1.2;"/></g><!--reverse link DataDownload to StructuredDataSet--><g class="link" data-entity-1="ent0005" data-entity-2="ent0020" data-link-type="extension" data-source-line="40" id="lnk30"><path codeLine="40" d="M791.7589,81.0321 C819.3889,100.4021 859.93,128.8494 887.73,148.3494" fill="none" id="DataDownload-backto-StructuredDataSet" style="stroke:#404040;stroke-width:1.2;"/><polygon fill="none" points="777.02,70.6994,788.3147,85.945,795.2031,76.1191,777.02,70.6994" style="stroke:#404040;stroke-width:1.2;"/></g><!--link InstanceVariable to StatisticsCollection--><g class="link" data-entity-1="ent0003" data-entity-2="ent0011" data-link-type="dependency" data-source-line="41" id="lnk31"><path codeLine="41" d="M598.13,467.1894 C584.7,474.1394 570.12,484.4294 562.5,498.6094 C552.89,516.4894 567.0354,531.4472 583.0054,542.9772" fill="none" id="InstanceVariable-to-StatisticsCollection" style="stroke:#404040;stroke-width:1.2;"/><polygon fill="#404040" points="587.87,546.4894,582.9145,537.978,583.8161,543.5626,578.2316,544.4642,587.87,546.4894" style="stroke:#404040;stroke-width:1.2;"/><text fill="#000000" font-family="sans-serif" font-size="13" lengthAdjust="spacing" textLength="83.0845" x="563.5" y="513.1045">isDescribedBy</text><text fill="#000000" font-family="sans-serif" font-size="13" lengthAdjust="spacing" textLength="21.6836" x="555.0557" y="535.5319">0..1</text></g><!--link StatisticsCollection to InstanceVariable--><g class="link" data-entity-1="ent0011" data-entity-2="ent0003" data-link-type="dependency" data-source-line="54" id="lnk44"><path codeLine="54" d="M625.37,546.3594 C635.14,539.1194 646.13,528.8794 651.5,516.6094 C658.9,499.7194 650.9745,484.538 641.4745,472.168" fill="none" id="StatisticsCollection-to-InstanceVariable" style="stroke:#404040;stroke-width:1.2;"/><polygon fill="#404040" points="637.82,467.4094,640.1294,476.9836,640.8655,471.3749,646.4742,472.1109,637.82,467.4094" style="stroke:#404040;stroke-width:1.2;"/><text fill="#000000" font-family="sans-serif" font-size="13" lengthAdjust="spacing" textLength="60.709" x="655.5" y="513.1045">indexedBy</text><text fill="#000000" font-family="sans-serif" font-size="13" lengthAdjust="spacing" textLength="19.5127" x="619.1449" y="488.622">1..*</text></g><!--link StatisticsCollection to InstanceVariable--><g class="link" data-entity-1="ent0011" data-entity-2="ent0003" data-link-type="dependency" data-source-line="55" id="lnk45"><path codeLine="55" d="M552.91,550.1994 C513.18,541.9394 469.17,526.2294 489.5,498.6094 C510.1,470.6194 542.8385,461.0079 574.0285,457.4579" fill="none" id="StatisticsCollection-to-InstanceVariable-1" style="stroke:#404040;stroke-width:1.2;"/><polygon fill="#404040" points="579.99,456.7794,570.5954,453.8228,575.0221,457.3448,571.5001,461.7715,579.99,456.7794" style="stroke:#404040;stroke-width:1.2;"/><text fill="#000000" font-family="sans-serif" font-size="13" lengthAdjust="spacing" textLength="61.4199" x="490.5" y="513.1045">hasWeight</text><text fill="#000000" font-family="sans-serif" font-size="13" lengthAdjust="spacing" textLength="21.6836" x="550.4913" y="471.7871">0..1</text></g><!--link InstanceVariable to InstanceVariable--><g class="link" data-entity-1="ent0003" data-entity-2="ent0003" data-link-type="dependency" data-source-line="42" id="lnk32"><path codeLine="42" d="M675.39,444.9094 C694.25,444.4194 710,447.6494 710,454.6094 C710,461.5694 700.248,464.9552 681.388,464.4652" fill="none" id="InstanceVariable-to-InstanceVariable" style="stroke:#404040;stroke-width:1.2;"/><polygon fill="#404040" points="675.39,464.3094,684.2831,468.5418,680.3883,464.4392,684.4909,460.5445,675.39,464.3094" style="stroke:#404040;stroke-width:1.2;"/><text fill="#000000" font-family="sans-serif" font-size="13" lengthAdjust="spacing" textLength="47.6963" x="716" y="460.1045">qualifies</text><text fill="#000000" font-family="sans-serif" font-size="13" lengthAdjust="spacing" textLength="21.6836" x="683.2558" y="462.0503">0..1</text></g><!--link InstanceVariable to SubstantiveValueDomain--><g class="link" data-entity-1="ent0003" data-entity-2="ent0013" data-link-type="dependency" data-source-line="43" id="lnk33"><path codeLine="43" d="M579.74,458.5194 C502.31,463.7994 353.23,476.5294 305.5,498.6094 C281.7,509.6194 264.2401,527.6392 252.6201,541.5892" fill="none" id="InstanceVariable-to-SubstantiveValueDomain" style="stroke:#404040;stroke-width:1.2;"/><polygon fill="#404040" points="248.78,546.1994,257.6136,541.8443,251.9801,542.3576,251.4668,536.7241,248.78,546.1994" style="stroke:#404040;stroke-width:1.2;"/><text fill="#000000" font-family="sans-serif" font-size="13" lengthAdjust="spacing" textLength="169.0825" x="306.5" y="513.1045">takesSubstantiveValuesFrom</text><text fill="#000000" font-family="sans-serif" font-size="13" lengthAdjust="spacing" textLength="21.6836" x="227.4932" y="535.7717">0..1</text></g><!--link InstanceVariable to SentinelValueDomain--><g class="link" data-entity-1="ent0003" data-entity-2="ent0014" data-link-type="dependency" data-source-line="44" id="lnk34"><path codeLine="44" d="M579.7,455.2694 C469.55,455.1894 201.22,459.1794 121.5,498.6094 C99.99,509.2494 86.1978,527.3663 77.3678,541.4463" fill="none" id="InstanceVariable-to-SentinelValueDomain" style="stroke:#404040;stroke-width:1.2;"/><polygon fill="#404040" points="74.18,546.5294,82.3504,541.0299,76.8365,542.2934,75.5729,536.7795,74.18,546.5294" style="stroke:#404040;stroke-width:1.2;"/><text fill="#000000" font-family="sans-serif" font-size="13" lengthAdjust="spacing" textLength="148.1289" x="122.5" y="513.1045">takesSentinelValuesFrom</text><text fill="#000000" font-family="sans-serif" font-size="13" lengthAdjust="spacing" textLength="19.5127" x="54.0387" y="535.5884">0..*</text></g><!--link VariableMeasured to InstanceVariable--><g class="link" data-entity-1="ent0004" data-entity-2="ent0003" data-link-type="dependency" data-source-line="45" id="lnk35"><path codeLine="45" d="M424.6,363.0194 C426.5,376.5594 431.64,398.3494 445.5,410.6094 C465.2,428.0394 526.9134,439.7595 573.9334,446.6495" fill="none" id="VariableMeasured-to-InstanceVariable" style="stroke:#404040;stroke-width:1.2;"/><polygon fill="#404040" points="579.87,447.5194,571.545,442.2568,574.9228,446.7944,570.3852,450.1722,579.87,447.5194" style="stroke:#404040;stroke-width:1.2;"/><text fill="#000000" font-family="sans-serif" font-size="13" lengthAdjust="spacing" textLength="55.6372" x="446.5" y="407.1045">describes</text><text fill="#000000" font-family="sans-serif" font-size="13" lengthAdjust="spacing" textLength="21.6836" x="550.3537" y="442.8171">0..1</text></g><!--link DataDownload to PhysicalMapping--><g class="link" data-entity-1="ent0005" data-entity-2="ent0016" data-link-type="dependency" data-source-line="46" id="lnk36"><path codeLine="46" d="M717.94,65.1394 C671.4,74.2494 598.98,96.3994 565.5,148.6094 C530.04,203.8994 625.0467,236.395 689.1367,251.825" fill="none" id="DataDownload-to-PhysicalMapping" style="stroke:#404040;stroke-width:1.2;"/><polygon fill="#404040" points="694.97,253.2294,687.1563,247.2339,690.1089,252.059,685.2837,255.0117,694.97,253.2294" style="stroke:#404040;stroke-width:1.2;"/><text fill="#000000" font-family="sans-serif" font-size="13" lengthAdjust="spacing" textLength="119.2344" x="566.5" y="166.6045">hasPhysicalMapping</text><text fill="#000000" font-family="sans-serif" font-size="13" lengthAdjust="spacing" textLength="19.5127" x="667.5054" y="247.9704">0..*</text></g><!--link PrimaryKey to PrimaryKeyComponent--><g class="link" data-entity-1="ent0006" data-entity-2="ent0007" data-link-type="dependency" data-source-line="47" id="lnk37"><path codeLine="47" d="M1057.5,70.6994 C1057.5,90.0694 1057.5,122.8494 1057.5,142.3494" fill="none" id="PrimaryKey-to-PrimaryKeyComponent" style="stroke:#404040;stroke-width:1.2;"/><polygon fill="#404040" points="1057.5,148.3494,1061.5,139.3494,1057.5,143.3494,1053.5,139.3494,1057.5,148.3494" style="stroke:#404040;stroke-width:1.2;"/><text fill="#000000" font-family="sans-serif" font-size="13" lengthAdjust="spacing" textLength="85.979" x="1058.5" y="115.1045">isComposedOf</text><text fill="#000000" font-family="sans-serif" font-size="13" lengthAdjust="spacing" textLength="19.5127" x="1034.8507" y="137.721">1..*</text></g><!--link Statistics to InstanceVariable--><g class="link" data-entity-1="ent0009" data-entity-2="ent0003" data-link-type="dependency" data-source-line="48" id="lnk38"><path codeLine="48" d="M821.02,649.2194 C809.4,619.8694 775.62,543.0894 724.5,498.6094 C708.1,484.3394 691.8437,476.1538 673.0137,469.2538" fill="none" id="Statistics-to-InstanceVariable" style="stroke:#404040;stroke-width:1.2;"/><polygon fill="#404040" points="667.38,467.1894,674.4543,474.0417,672.0747,468.9097,677.2068,466.5302,667.38,467.1894" style="stroke:#404040;stroke-width:1.2;"/><text fill="#000000" font-family="sans-serif" font-size="13" lengthAdjust="spacing" textLength="56.3672" x="783.5" y="564.6045">appliesTo</text><text fill="#000000" font-family="sans-serif" font-size="13" lengthAdjust="spacing" textLength="19.5127" x="659.9856" y="488.5798">1..*</text></g><!--link Statistics to InstanceVariable--><g class="link" data-entity-1="ent0009" data-entity-2="ent0003" data-link-type="dependency" data-source-line="49" id="lnk39"><path codeLine="49" d="M832.83,649.4894 C845.54,627.7294 868.45,580.0394 848.5,546.6094 C812.77,486.7494 734.7092,467.0483 681.1692,460.0383" fill="none" id="Statistics-to-InstanceVariable-1" style="stroke:#404040;stroke-width:1.2;"/><polygon fill="#404040" points="675.22,459.2594,683.6245,464.3939,680.1777,459.9085,684.6631,456.4616,675.22,459.2594" style="stroke:#404040;stroke-width:1.2;"/><text fill="#000000" font-family="sans-serif" font-size="13" lengthAdjust="spacing" textLength="61.4199" x="857.5" y="564.6045">hasWeight</text><text fill="#000000" font-family="sans-serif" font-size="13" lengthAdjust="spacing" textLength="21.6836" x="683.4278" y="474.5515">0..1</text></g><!--link Statistics to CategoryStatistics--><g class="link" data-entity-1="ent0009" data-entity-2="ent0010" data-link-type="dependency" data-source-line="50" id="lnk40"><path codeLine="50" d="M833.76,674.6994 C847.57,694.0694 871.7373,727.9636 885.6373,747.4636" fill="none" id="Statistics-to-CategoryStatistics" style="stroke:#404040;stroke-width:1.2;"/><polygon fill="#404040" points="889.12,752.3494,887.1532,742.6989,886.2178,748.2779,880.6388,747.3425,889.12,752.3494" style="stroke:#404040;stroke-width:1.2;"/><text fill="#000000" font-family="sans-serif" font-size="13" lengthAdjust="spacing" textLength="20.96" x="867.5" y="719.1045">has</text><text fill="#000000" font-family="sans-serif" font-size="13" lengthAdjust="spacing" textLength="19.5127" x="863.2391" y="741.721">0..*</text></g><!--link CategoryStatistics to Category--><g class="link" data-entity-1="ent0010" data-entity-2="ent0012" data-link-type="dependency" data-source-line="51" id="lnk41"><path codeLine="51" d="M897.5,777.6994 C897.5,797.0694 897.5,829.8494 897.5,849.3494" fill="none" id="CategoryStatistics-to-Category" style="stroke:#404040;stroke-width:1.2;"/><polygon fill="#404040" points="897.5,855.3494,901.5,846.3494,897.5,850.3494,893.5,846.3494,897.5,855.3494" style="stroke:#404040;stroke-width:1.2;"/><text fill="#000000" font-family="sans-serif" font-size="13" lengthAdjust="spacing" textLength="15.1709" x="898.5" y="822.1045">for</text><text fill="#000000" font-family="sans-serif" font-size="13" lengthAdjust="spacing" textLength="7.23" x="889.2279" y="844.721">1</text></g><!--link CategoryStatistics to InstanceVariable--><g class="link" data-entity-1="ent0010" data-entity-2="ent0003" data-link-type="dependency" data-source-line="52" id="lnk42"><path codeLine="52" d="M904.03,752.2194 C922.06,717.6694 968.52,615.3494 927.5,546.6094 C901.38,502.8494 758.8987,475.3418 681.0687,463.2318" fill="none" id="CategoryStatistics-to-InstanceVariable" style="stroke:#404040;stroke-width:1.2;"/><polygon fill="#404040" points="675.14,462.3094,683.418,467.6455,680.0806,463.0781,684.648,459.7406,675.14,462.3094" style="stroke:#404040;stroke-width:1.2;"/><text fill="#000000" font-family="sans-serif" font-size="13" lengthAdjust="spacing" textLength="61.4199" x="945.5" y="616.1045">hasWeight</text><text fill="#000000" font-family="sans-serif" font-size="13" lengthAdjust="spacing" textLength="21.6836" x="683.5031" y="488.2698">0..1</text></g><!--link StatisticsCollection to Statistics--><g class="link" data-entity-1="ent0011" data-entity-2="ent0009" data-link-type="dependency" data-source-line="53" id="lnk43"><path codeLine="53" d="M629.06,571.6794 C653.23,583.9594 692.8,603.7494 727.5,619.6094 C751.19,630.4394 772.9723,639.644 792.7323,647.784" fill="none" id="StatisticsCollection-to-Statistics" style="stroke:#404040;stroke-width:1.2;"/><polygon fill="#404040" points="798.28,650.0694,791.482,642.9429,793.6569,648.1649,788.4349,650.3398,798.28,650.0694" style="stroke:#404040;stroke-width:1.2;"/><text fill="#000000" font-family="sans-serif" font-size="13" lengthAdjust="spacing" textLength="20.96" x="728.5" y="616.1045">has</text><text fill="#000000" font-family="sans-serif" font-size="13" lengthAdjust="spacing" textLength="19.5127" x="770.8464" y="642.9601">1..*</text></g><!--link SubstantiveValueDomain to EnumerationDomain--><g class="link" data-entity-1="ent0013" data-entity-2="ent0015" data-link-type="dependency" data-source-line="56" id="lnk46"><path codeLine="56" d="M230.09,571.6994 C214.36,591.0694 186.6616,625.1911 170.8316,644.6911" fill="none" id="SubstantiveValueDomain-to-EnumerationDomain" style="stroke:#404040;stroke-width:1.2;"/><polygon fill="#404040" points="167.05,649.3494,175.8279,644.883,170.2013,645.4675,169.6168,639.8409,167.05,649.3494" style="stroke:#404040;stroke-width:1.2;"/><text fill="#000000" font-family="sans-serif" font-size="13" lengthAdjust="spacing" textLength="101.1499" x="204.5" y="616.1045">takesValuesFrom</text><text fill="#000000" font-family="sans-serif" font-size="13" lengthAdjust="spacing" textLength="21.6836" x="145.734" y="638.721">0..1</text></g><!--link SentinelValueDomain to EnumerationDomain--><g class="link" data-entity-1="ent0014" data-entity-2="ent0015" data-link-type="dependency" data-source-line="57" id="lnk47"><path codeLine="57" d="M68,571.7994 C69.11,584.7394 72.6,605.5994 83.5,619.6094 C93.99,633.0994 104.7151,640.3805 119.2751,647.0505" fill="none" id="SentinelValueDomain-to-EnumerationDomain" style="stroke:#404040;stroke-width:1.2;"/><polygon fill="#404040" points="124.73,649.5494,118.2136,642.1645,120.1843,647.467,114.8818,649.4376,124.73,649.5494" style="stroke:#404040;stroke-width:1.2;"/><text fill="#000000" font-family="sans-serif" font-size="13" lengthAdjust="spacing" textLength="101.1499" x="84.5" y="616.1045">takesValuesFrom</text><text fill="#000000" font-family="sans-serif" font-size="13" lengthAdjust="spacing" textLength="21.6836" x="85.942" y="638.6167">0..1</text></g><!--link PhysicalMapping to InstanceVariable--><g class="link" data-entity-1="ent0016" data-entity-2="ent0003" data-link-type="dependency" data-source-line="58" id="lnk48"><path codeLine="58" d="M740.55,276.6494 C733.51,302.6094 713.77,366.7494 680.5,410.6094 C670.98,423.1694 661.9663,430.8543 650.7763,438.6343" fill="none" id="PhysicalMapping-to-InstanceVariable" style="stroke:#404040;stroke-width:1.2;"/><polygon fill="#404040" points="645.85,442.0594,655.5229,440.2059,649.9553,439.2051,650.9561,433.6375,645.85,442.0594" style="stroke:#404040;stroke-width:1.2;"/><text fill="#000000" font-family="sans-serif" font-size="13" lengthAdjust="spacing" textLength="43.3418" x="720.5" y="355.6045">formats</text><text fill="#000000" font-family="sans-serif" font-size="13" lengthAdjust="spacing" textLength="7.23" x="644.9425" y="431.1308">1</text></g><!--link TextMapping to InstanceVariable--><g class="link" data-entity-1="ent0017" data-entity-2="ent0003" data-link-type="dependency" data-source-line="59" id="lnk49"><path codeLine="59" d="M846.32,362.8394 C828.69,375.9994 798.32,397.2494 769.5,410.6094 C739.24,424.6394 709.0591,433.9781 680.8891,441.2581" fill="none" id="TextMapping-to-InstanceVariable" style="stroke:#404040;stroke-width:1.2;"/><polygon fill="#404040" points="675.08,442.7594,684.7946,444.3802,679.921,441.5083,682.7929,436.6347,675.08,442.7594" style="stroke:#404040;stroke-width:1.2;"/><text fill="#000000" font-family="sans-serif" font-size="13" lengthAdjust="spacing" textLength="43.3418" x="802.5" y="407.1045">formats</text><text fill="#000000" font-family="sans-serif" font-size="13" lengthAdjust="spacing" textLength="7.23" x="683.5268" y="436.9882">1</text></g><!--link LocatorMapping to InstanceVariable--><g class="link" data-entity-1="ent0018" data-entity-2="ent0003" data-link-type="dependency" data-source-line="60" id="lnk50"><path codeLine="60" d="M627.5,362.8694 C627.5,382.6394 627.5,416.3094 627.5,435.9894" fill="none" id="LocatorMapping-to-InstanceVariable" style="stroke:#404040;stroke-width:1.2;"/><polygon fill="#404040" points="627.5,441.9894,631.5,432.9894,627.5,436.9894,623.5,432.9894,627.5,441.9894" style="stroke:#404040;stroke-width:1.2;"/><text fill="#000000" font-family="sans-serif" font-size="13" lengthAdjust="spacing" textLength="43.3418" x="628.5" y="407.1045">formats</text><text fill="#000000" font-family="sans-serif" font-size="13" lengthAdjust="spacing" textLength="7.23" x="619.0231" y="431.0319">1</text></g><!--link TabularTextDataSet to PhysicalMapping--><g class="link" data-entity-1="ent0019" data-entity-2="ent0016" data-link-type="dependency" data-source-line="61" id="lnk51"><path codeLine="61" d="M753.03,173.9294 C748.42,181.9594 742.92,193.0094 740.5,203.6094 C736.77,219.9394 737.9301,233.5184 740.0401,245.6284" fill="none" id="TabularTextDataSet-to-PhysicalMapping" style="stroke:#404040;stroke-width:1.2;"/><polygon fill="#404040" points="741.07,251.5394,743.4658,241.9864,740.2117,246.6136,735.5845,243.3596,741.07,251.5394" style="stroke:#404040;stroke-width:1.2;"/><text fill="#000000" font-family="sans-serif" font-size="13" lengthAdjust="spacing" textLength="119.2344" x="741.5" y="218.1045">hasPhysicalMapping</text><text fill="#000000" font-family="sans-serif" font-size="13" lengthAdjust="spacing" textLength="19.5127" x="717.3134" y="240.6025">0..*</text></g><!--link StructuredDataSet to PhysicalMapping--><g class="link" data-entity-1="ent0020" data-entity-2="ent0016" data-link-type="dependency" data-source-line="62" id="lnk52"><path codeLine="62" d="M899.66,173.8594 C893.57,187.2494 881.9,208.8994 865.5,221.6094 C844.28,238.0494 821.9614,246.707 798.0514,252.847" fill="none" id="StructuredDataSet-to-PhysicalMapping" style="stroke:#404040;stroke-width:1.2;"/><polygon fill="#404040" points="792.24,254.3394,801.9521,255.9751,797.0829,253.0957,799.9623,248.2265,792.24,254.3394" style="stroke:#404040;stroke-width:1.2;"/><text fill="#000000" font-family="sans-serif" font-size="13" lengthAdjust="spacing" textLength="119.2344" x="883.5" y="218.1045">hasPhysicalMapping</text><text fill="#000000" font-family="sans-serif" font-size="13" lengthAdjust="spacing" textLength="19.5127" x="799.7531" y="249.5742">0..*</text></g><?plantuml-src bLNDRjim3BxhAOJqDY15qswNO1ZG9ZLGRCK6DDZEZCqqGcN9a-IcsG-mXzWJxaagMquYItBN89Ve8p-IraTIXXcET3Q_oUPWO8uwLwmoJ0hwxyzVAXzHFJBSa3KhaEPCvHpTVomhiwKbbajKckW79YfGK5AzXa9kcBYdA-0QFSkbKdApMBFyGQ3MT79wxXbp3XRxIQXpcqak5JrvUzRyB7WbLO4gH3Cfp1txWNHoJduJ0ajj5EIc2pQwxCvVGJ5OSXnHq3G4wKasoovc6Ub8Dq8R43dsI25eIPVNx-ONEz8ElqNGjSAY9OLWcAczRxaHN88Z-43e_4Mn4jJs8svRryCnBELWcScoaWA52HXxFAJU6J1C6vQtXFqfB6Llq7q_7JhEmE2zLDk04CF36QpY7FEc7ODS1yDGrbwkA4EzR1GrxD5gockSon9OboDfYkxAtXyJo2DsZ8VKQr6NgA2ftID6Q2JiUgjP3lmMgigEbnErZuLVkS0duxjxvz3rayp1IELxzw4eDYnh3ge9sVJj7ResY-6uorITcsOWV5w4XhG6pcmTg2h5kfuEiAWJf1tPohbs_wDfBngzLWoLc_FzCHfMN5bPYmMgqgK-dFUkqMfv_siyZdR7W5kuBKYeRUlbAPXsw8j6UYl5HOW4IZX5Qf1e0ux77-ZexFHqCafFvPGoxLwJ9HPNsnS3HBOf_Lu3RuJGBsTEp-gK6dX07LfrfcGv7E_DA3czks2-oKMA5lpBdrHqjw7x5-wb3nMTqZNe02JUwc-f4qTDhFT6WlQaiVYy8jw-zOY9GcqYRcz-8IFAuBVPEhyXkr-R5CLcIUpybaGI1bVSWMCzLr8DUXvLazUWtXr4LVsFaCZ6H85FRQSFarzJQhgZFNhyK7GTwdLcge-F317suawLHFLMdHAC9lxpyWhtu7rvJOBuSJbsUk9tvjW8pm00?></g></svg>