<svg xmlns="http://www.w3.org/2000/svg" xmlns:xlink="http://www.w3.org/1999/xlink" contentStyleType="text/css" data-diagram-type="CLASS" height="229px" preserveAspectRatio="none" style="width:1859px;height:229px;background:#FFFFFF;" version="1.1" viewBox="0 0 1859 229" width="1859px" zoomAndPan="magnify"><?plantuml 1.2026.3?><defs/><g><g class="title" data-source-line="1"><text fill="#000000" font-family="sans-serif" font-size="14" font-weight="700" lengthAdjust="spacing" textLength="124.4482" x="864.1945" y="24.5332">InternationalString</text></g><!--class InternationalString--><g class="entity" data-qualified-name="InternationalString" data-source-line="12" id="ent0002"><rect fill="#FAE5D3" height="65.7969" rx="2.5" ry="2.5" style="stroke:#404040;stroke-width:0.5;" width="312.4189" x="843.7" y="148.6094"/><text fill="#000000" font-family="sans-serif" font-size="12" font-style="italic" lengthAdjust="spacing" textLength="63.3809" x="968.219" y="166.0664">&#171;dataType&#187;</text><text fill="#000000" font-family="sans-serif" font-size="12" lengthAdjust="spacing" textLength="97.3945" x="951.2122" y="181.1602">InternationalString</text><line style="stroke:#404040;stroke-width:0.5;" x1="844.7" x2="1155.1189" y1="188.7969" y2="188.7969"/><g data-visibility-modifier="PUBLIC_FIELD"><ellipse cx="854.7" cy="203.1016" fill="none" rx="3" ry="3" style="stroke:#038048;stroke-width:1;"/></g><text fill="#000000" font-family="sans-serif" font-size="14" lengthAdjust="spacing" textLength="286.4189" x="863.7" y="207.3301">languageSpecificString : LanguageString [1..*]</text></g><!--class ConceptScheme--><g class="entity" data-qualified-name="ConceptScheme" data-source-line="15" id="ent0003"><rect fill="#EEEEEE" height="25.0938" rx="2.5" ry="2.5" style="stroke:#404040;stroke-width:0.5;" width="94.7168" x="437.2" y="45.6094"/><text fill="#000000" font-family="sans-serif" font-size="12" lengthAdjust="spacing" textLength="88.7168" x="440.2" y="63.0664">ConceptScheme</text></g><!--class Concept--><g class="entity" data-qualified-name="Concept" data-source-line="26" id="ent0014"><rect fill="#EEEEEE" height="25.0938" rx="2.5" ry="2.5" style="stroke:#404040;stroke-width:0.5;" width="50.6953" x="1461.2" y="45.6094"/><text fill="#000000" font-family="sans-serif" font-size="12" lengthAdjust="spacing" textLength="44.6953" x="1464.2" y="63.0664">Concept</text></g><!--link ConceptScheme to InternationalString--><g class="link" data-entity-1="ent0003" data-entity-2="ent0002" data-link-type="dependency" data-source-line="16" id="lnk4"><path codeLine="16" d="M437.17,58.6094 C315.5,58.1294 6,62.3294 58.7,118.6094 C85.07,146.7794 577.1234,166.8882 837.6934,175.6282" fill="none" id="ConceptScheme-to-InternationalString" style="stroke:#404040;stroke-width:1.2;stroke-dasharray:7,7;"/><polygon fill="#404040" points="843.69,175.8294,834.8292,171.5299,838.6928,175.6618,834.561,179.5254,843.69,175.8294" style="stroke:#404040;stroke-width:1.2;"/><text fill="#000000" font-family="sans-serif" font-size="13" lengthAdjust="spacing" textLength="54.209" x="59.7" y="115.1045">prefLabel</text></g><!--link ConceptScheme to InternationalString--><g class="link" data-entity-1="ent0003" data-entity-2="ent0002" data-link-type="dependency" data-source-line="17" id="lnk5"><path codeLine="17" d="M437.04,60.3394 C336.55,63.7594 115.27,76.1794 154.7,118.6094 C200.48,167.8694 606.0602,178.3378 837.4602,180.3278" fill="none" id="ConceptScheme-to-InternationalString-1" style="stroke:#404040;stroke-width:1.2;stroke-dasharray:7,7;"/><polygon fill="#404040" points="843.46,180.3794,834.4947,176.3021,838.4602,180.3364,834.4259,184.3018,843.46,180.3794" style="stroke:#404040;stroke-width:1.2;"/><text fill="#000000" font-family="sans-serif" font-size="13" lengthAdjust="spacing" textLength="45.5381" x="155.7" y="115.1045">altLabel</text></g><!--link ConceptScheme to InternationalString--><g class="link" data-entity-1="ent0003" data-entity-2="ent0002" data-link-type="dependency" data-source-line="18" id="lnk6"><path codeLine="18" d="M437.07,60.2294 C373.54,62.8494 266.19,71.5794 241.7,100.6094 C236.54,106.7194 236.28,112.7294 241.7,118.6094 C281.57,161.8794 627.4111,174.8366 837.4511,178.7866" fill="none" id="ConceptScheme-to-InternationalString-2" style="stroke:#404040;stroke-width:1.2;stroke-dasharray:7,7;"/><polygon fill="#404040" points="843.45,178.8994,834.5268,174.7309,838.4509,178.8054,834.3764,182.7294,843.45,178.8994" style="stroke:#404040;stroke-width:1.2;"/><text fill="#000000" font-family="sans-serif" font-size="13" lengthAdjust="spacing" textLength="70.8462" x="242.7" y="115.1045">hiddenLabel</text></g><!--link ConceptScheme to InternationalString--><g class="link" data-entity-1="ent0003" data-entity-2="ent0002" data-link-type="dependency" data-source-line="19" id="lnk7"><path codeLine="19" d="M437.17,64.6194 C389.17,72.0094 325.81,87.9194 353.7,118.6094 C386.07,154.2294 657.0439,169.7036 837.6539,176.2036" fill="none" id="ConceptScheme-to-InternationalString-3" style="stroke:#404040;stroke-width:1.2;stroke-dasharray:7,7;"/><polygon fill="#404040" points="843.65,176.4194,834.7997,172.0983,838.6532,176.2395,834.512,180.0931,843.65,176.4194" style="stroke:#404040;stroke-width:1.2;"/><text fill="#000000" font-family="sans-serif" font-size="13" lengthAdjust="spacing" textLength="52.0381" x="354.7" y="115.1045">definition</text></g><!--link ConceptScheme to InternationalString--><g class="link" data-entity-1="ent0003" data-entity-2="ent0002" data-link-type="dependency" data-source-line="20" id="lnk8"><path codeLine="20" d="M468.93,70.6494 C453.56,83.2494 434.32,103.6494 447.7,118.6094 C473.83,147.8394 683.5293,164.6145 837.3993,173.2145" fill="none" id="ConceptScheme-to-InternationalString-4" style="stroke:#404040;stroke-width:1.2;stroke-dasharray:7,7;"/><polygon fill="#404040" points="843.39,173.5494,834.6272,169.0534,838.3978,173.2704,834.1808,177.0409,843.39,173.5494" style="stroke:#404040;stroke-width:1.2;"/><text fill="#000000" font-family="sans-serif" font-size="13" lengthAdjust="spacing" textLength="25.3018" x="448.7" y="115.1045">note</text></g><!--link ConceptScheme to InternationalString--><g class="link" data-entity-1="ent0003" data-entity-2="ent0002" data-link-type="dependency" data-source-line="21" id="lnk9"><path codeLine="21" d="M487.14,70.8994 C490.68,84.7394 498.64,107.2594 514.7,118.6094 C566.33,155.1194 716.1678,169.8239 837.4078,176.0039" fill="none" id="ConceptScheme-to-InternationalString-5" style="stroke:#404040;stroke-width:1.2;stroke-dasharray:7,7;"/><polygon fill="#404040" points="843.4,176.3094,834.6153,171.8564,838.4065,176.0548,834.208,179.846,843.4,176.3094" style="stroke:#404040;stroke-width:1.2;"/><text fill="#000000" font-family="sans-serif" font-size="13" lengthAdjust="spacing" textLength="62.1499" x="515.7" y="115.1045">scopeNote</text></g><!--link ConceptScheme to InternationalString--><g class="link" data-entity-1="ent0003" data-entity-2="ent0002" data-link-type="dependency" data-source-line="22" id="lnk10"><path codeLine="22" d="M513.21,70.6294 C532.88,78.7094 559.54,89.9294 582.7,100.6094 C598.94,108.0994 601.68,113.1094 618.7,118.6094 C690.76,141.8894 767.4922,155.9095 837.3722,165.1895" fill="none" id="ConceptScheme-to-InternationalString-6" style="stroke:#404040;stroke-width:1.2;stroke-dasharray:7,7;"/><polygon fill="#404040" points="843.32,165.9794,834.9249,160.8294,838.3635,165.3212,833.8718,168.7598,843.32,165.9794" style="stroke:#404040;stroke-width:1.2;"/><text fill="#000000" font-family="sans-serif" font-size="13" lengthAdjust="spacing" textLength="65.749" x="619.7" y="115.1045">historyNote</text></g><!--link ConceptScheme to InternationalString--><g class="link" data-entity-1="ent0003" data-entity-2="ent0002" data-link-type="dependency" data-source-line="23" id="lnk11"><path codeLine="23" d="M532.45,65.1294 C574.62,71.2994 637.34,82.5794 689.7,100.6094 C706.61,106.4394 708.85,112.5894 725.7,118.6094 C763.13,131.9794 798.6529,141.7734 837.6629,150.7534" fill="none" id="ConceptScheme-to-InternationalString-7" style="stroke:#404040;stroke-width:1.2;stroke-dasharray:7,7;"/><polygon fill="#404040" points="843.51,152.0994,835.6367,146.1823,838.6374,150.9777,833.8421,153.9785,843.51,152.0994" style="stroke:#404040;stroke-width:1.2;"/><text fill="#000000" font-family="sans-serif" font-size="13" lengthAdjust="spacing" textLength="70.1099" x="726.7" y="115.1045">changeNote</text></g><!--link ConceptScheme to InternationalString--><g class="link" data-entity-1="ent0003" data-entity-2="ent0002" data-link-type="dependency" data-source-line="24" id="lnk12"><path codeLine="24" d="M532.47,60.4294 C595.44,63.2894 709.08,72.2694 801.7,100.6094 C818.8,105.8394 821.33,111.3994 837.7,118.6094 C861.27,128.9794 881.5563,137.1949 905.5963,146.3949" fill="none" id="ConceptScheme-to-InternationalString-8" style="stroke:#404040;stroke-width:1.2;stroke-dasharray:7,7;"/><polygon fill="#404040" points="911.2,148.5394,904.2242,141.5868,906.5303,146.7523,901.3648,149.0584,911.2,148.5394" style="stroke:#404040;stroke-width:1.2;"/><text fill="#000000" font-family="sans-serif" font-size="13" lengthAdjust="spacing" textLength="72.9854" x="838.7" y="115.1045">editorialNote</text></g><!--link ConceptScheme to InternationalString--><g class="link" data-entity-1="ent0003" data-entity-2="ent0002" data-link-type="dependency" data-source-line="25" id="lnk13"><path codeLine="25" d="M532.46,59.8094 C629.98,61.8694 848.43,69.8794 915.7,100.6094 C938.96,111.2394 955.864,126.4983 970.974,143.7283" fill="none" id="ConceptScheme-to-InternationalString-9" style="stroke:#404040;stroke-width:1.2;stroke-dasharray:7,7;"/><polygon fill="#404040" points="974.93,148.2394,972.0033,138.8354,971.6333,144.4801,965.9886,144.1101,974.93,148.2394" style="stroke:#404040;stroke-width:1.2;"/><text fill="#000000" font-family="sans-serif" font-size="13" lengthAdjust="spacing" textLength="49.1372" x="943.7" y="115.1045">example</text></g><!--link Concept to InternationalString--><g class="link" data-entity-1="ent0014" data-entity-2="ent0002" data-link-type="dependency" data-source-line="27" id="lnk15"><path codeLine="27" d="M1461.05,60.0994 C1371.71,63.7494 1077.67,77.4294 1042.7,100.6094 C1026.01,111.6694 1017.434,125.8455 1010.884,142.9655" fill="none" id="Concept-to-InternationalString" style="stroke:#404040;stroke-width:1.2;stroke-dasharray:7,7;"/><polygon fill="#404040" points="1008.74,148.5694,1015.6919,141.5929,1010.5267,143.8995,1008.2201,138.7342,1008.74,148.5694" style="stroke:#404040;stroke-width:1.2;"/><text fill="#000000" font-family="sans-serif" font-size="13" lengthAdjust="spacing" textLength="54.209" x="1043.7" y="115.1045">prefLabel</text></g><!--link Concept to InternationalString--><g class="link" data-entity-1="ent0014" data-entity-2="ent0002" data-link-type="dependency" data-source-line="28" id="lnk16"><path codeLine="28" d="M1461.05,58.6994 C1402.37,58.4894 1254.48,62.1794 1138.7,100.6094 C1129.38,103.6994 1093.3179,124.594 1058.1679,145.484" fill="none" id="Concept-to-InternationalString-1" style="stroke:#404040;stroke-width:1.2;stroke-dasharray:7,7;"/><polygon fill="#404040" points="1053.01,148.5494,1062.7904,147.3899,1057.3082,145.9949,1058.7032,140.5127,1053.01,148.5494" style="stroke:#404040;stroke-width:1.2;"/><text fill="#000000" font-family="sans-serif" font-size="13" lengthAdjust="spacing" textLength="45.5381" x="1139.7" y="115.1045">altLabel</text></g><!--link Concept to InternationalString--><g class="link" data-entity-1="ent0014" data-entity-2="ent0002" data-link-type="dependency" data-source-line="29" id="lnk17"><path codeLine="29" d="M1460.9,60.5994 C1413.36,63.8994 1309.14,73.8194 1225.7,100.6094 C1208.67,106.0794 1206.25,111.8194 1189.7,118.6094 C1163.38,129.4094 1140.1204,137.7872 1112.9304,146.7172" fill="none" id="Concept-to-InternationalString-2" style="stroke:#404040;stroke-width:1.2;stroke-dasharray:7,7;"/><polygon fill="#404040" points="1107.23,148.5894,1117.0288,149.5814,1111.9804,147.0292,1114.5325,141.9808,1107.23,148.5894" style="stroke:#404040;stroke-width:1.2;"/><text fill="#000000" font-family="sans-serif" font-size="13" lengthAdjust="spacing" textLength="70.8462" x="1226.7" y="115.1045">hiddenLabel</text></g><!--link Concept to InternationalString--><g class="link" data-entity-1="ent0014" data-entity-2="ent0002" data-link-type="dependency" data-source-line="30" id="lnk18"><path codeLine="30" d="M1461.18,64.6394 C1431.11,71.5094 1379.92,84.3494 1337.7,100.6094 C1321.01,107.0394 1318.6,112.7594 1301.7,118.6094 C1255.29,134.6694 1209.2351,146.0105 1161.7051,155.4505" fill="none" id="Concept-to-InternationalString-3" style="stroke:#404040;stroke-width:1.2;stroke-dasharray:7,7;"/><polygon fill="#404040" points="1155.82,156.6194,1165.4268,158.7895,1160.7242,155.6453,1163.8684,150.9428,1155.82,156.6194" style="stroke:#404040;stroke-width:1.2;"/><text fill="#000000" font-family="sans-serif" font-size="13" lengthAdjust="spacing" textLength="52.0381" x="1338.7" y="115.1045">definition</text></g><!--link Concept to InternationalString--><g class="link" data-entity-1="ent0014" data-entity-2="ent0002" data-link-type="dependency" data-source-line="31" id="lnk19"><path codeLine="31" d="M1472.93,70.8394 C1455.95,84.6294 1425.65,107.0894 1395.7,118.6094 C1319.71,147.8394 1236.4243,162.6454 1161.9143,170.8154" fill="none" id="Concept-to-InternationalString-4" style="stroke:#404040;stroke-width:1.2;stroke-dasharray:7,7;"/><polygon fill="#404040" points="1155.95,171.4694,1165.3324,174.4646,1160.9202,170.9244,1164.4604,166.5122,1155.95,171.4694" style="stroke:#404040;stroke-width:1.2;"/><text fill="#000000" font-family="sans-serif" font-size="13" lengthAdjust="spacing" textLength="62.1499" x="1430.7" y="115.1045">scopeNote</text></g><!--link Concept to InternationalString--><g class="link" data-entity-1="ent0014" data-entity-2="ent0002" data-link-type="dependency" data-source-line="32" id="lnk20"><path codeLine="32" d="M1494.42,70.6494 C1502.19,83.8294 1511.46,105.2994 1499.7,118.6094 C1476.96,144.3394 1300.0453,161.4097 1161.9753,171.0897" fill="none" id="Concept-to-InternationalString-5" style="stroke:#404040;stroke-width:1.2;stroke-dasharray:7,7;"/><polygon fill="#404040" points="1155.99,171.5094,1165.2477,174.8701,1160.9778,171.1597,1164.6882,166.8897,1155.99,171.5094" style="stroke:#404040;stroke-width:1.2;"/><text fill="#000000" font-family="sans-serif" font-size="13" lengthAdjust="spacing" textLength="25.3018" x="1505.7" y="115.1045">note</text></g><!--link Concept to InternationalString--><g class="link" data-entity-1="ent0014" data-entity-2="ent0002" data-link-type="dependency" data-source-line="33" id="lnk21"><path codeLine="33" d="M1509.3,70.7394 C1529.74,82.7394 1554.52,101.9894 1539.7,118.6094 C1514.34,147.0494 1312.0596,163.9267 1161.7496,172.7767" fill="none" id="Concept-to-InternationalString-6" style="stroke:#404040;stroke-width:1.2;stroke-dasharray:7,7;"/><polygon fill="#404040" points="1155.76,173.1294,1164.9795,176.5935,1160.7514,172.8355,1164.5093,168.6073,1155.76,173.1294" style="stroke:#404040;stroke-width:1.2;"/><text fill="#000000" font-family="sans-serif" font-size="13" lengthAdjust="spacing" textLength="65.749" x="1544.7" y="115.1045">historyNote</text></g><!--link Concept to InternationalString--><g class="link" data-entity-1="ent0014" data-entity-2="ent0002" data-link-type="dependency" data-source-line="34" id="lnk22"><path codeLine="34" d="M1512.3,61.5694 C1559.22,67.0094 1651.33,82.5394 1618.7,118.6094 C1588.13,152.3994 1334.8849,168.3332 1161.7349,175.4432" fill="none" id="Concept-to-InternationalString-7" style="stroke:#404040;stroke-width:1.2;stroke-dasharray:7,7;"/><polygon fill="#404040" points="1155.74,175.6894,1164.8965,179.3168,1160.7358,175.4842,1164.5683,171.3235,1155.74,175.6894" style="stroke:#404040;stroke-width:1.2;"/><text fill="#000000" font-family="sans-serif" font-size="13" lengthAdjust="spacing" textLength="70.1099" x="1625.7" y="115.1045">changeNote</text></g><!--link Concept to InternationalString--><g class="link" data-entity-1="ent0014" data-entity-2="ent0002" data-link-type="dependency" data-source-line="35" id="lnk23"><path codeLine="35" d="M1512.24,60.0494 C1564.45,62.5594 1680.5,71.3694 1704.7,100.6094 C1709.8,106.7694 1710.1,112.7094 1704.7,118.6094 C1668.39,158.2494 1358.2779,172.5121 1161.8679,177.6621" fill="none" id="Concept-to-InternationalString-8" style="stroke:#404040;stroke-width:1.2;stroke-dasharray:7,7;"/><polygon fill="#404040" points="1155.87,177.8194,1164.9718,181.5821,1160.8683,177.6883,1164.7621,173.5848,1155.87,177.8194" style="stroke:#404040;stroke-width:1.2;"/><text fill="#000000" font-family="sans-serif" font-size="13" lengthAdjust="spacing" textLength="72.9854" x="1708.7" y="115.1045">editorialNote</text></g><!--link Concept to InternationalString--><g class="link" data-entity-1="ent0014" data-entity-2="ent0002" data-link-type="dependency" data-source-line="36" id="lnk24"><path codeLine="36" d="M1512.26,58.5294 C1578.61,57.6294 1753.66,59.2994 1789.7,100.6094 C1794.96,106.6394 1795.13,112.7394 1789.7,118.6094 C1747.67,164.0694 1380.1793,176.1605 1162.1193,179.3905" fill="none" id="Concept-to-InternationalString-9" style="stroke:#404040;stroke-width:1.2;stroke-dasharray:7,7;"/><polygon fill="#404040" points="1156.12,179.4794,1165.1783,183.3456,1161.1195,179.4053,1165.0598,175.3465,1156.12,179.4794" style="stroke:#404040;stroke-width:1.2;"/><text fill="#000000" font-family="sans-serif" font-size="13" lengthAdjust="spacing" textLength="49.1372" x="1794.7" y="115.1045">example</text></g><?plantuml-src bPD1Qm8n48Nl-HM3tbfOgcql8eAr2WNfPRsL7gR9h3kOJKAIOctfVszqBQXusEnUbZVvzitotaQEck35HF868rk3keoUpLhKh0WaUwcfVQR6nHqqr7oG3o9is3Zqs42eKTbjGg127UXaClNURbSrousX461G34-6KcFIVWIqnsPMMm_zXxlzdSGdwnNvItLXJIpvcs0m5Bz2jE_eNLc_1nYkVHQCnmeZhdQE9XFeBwRpn-VxmnQt6itw4zTKEf9SiJm28rZ-3rhXRL0KD-_9_kW-iqQIYwMigQ63xva2_VdX4kTgKKokxZS2vwbQuWVfpWJgc0UaF1MPF4PHnORtOcV4s4YT3mTf7Rtc43M7QFqkYv5r2ZFFXXGd6qQTHtrXuzAlSrwIqtfS5YEd4XbboAj1LW5oqknOaxouiuBEZRX3k7y0?></g></svg>