<svg xmlns="http://www.w3.org/2000/svg" xmlns:xlink="http://www.w3.org/1999/xlink" contentStyleType="text/css" data-diagram-type="CLASS" height="1071px" preserveAspectRatio="none" style="width:6077px;height:1071px;background:#FFFFFF;" version="1.1" viewBox="0 0 6077 1071" width="6077px" zoomAndPan="magnify"><?plantuml 1.2026.3?><defs/><g><g class="title" data-source-line="1"><text fill="#000000" font-family="sans-serif" font-size="14" font-weight="700" lengthAdjust="spacing" textLength="50.5791" x="3009.7517" y="24.5332">Dataset</text></g><!--class Dataset--><g class="entity" data-qualified-name="Dataset" data-source-line="16" id="ent0002"><rect fill="#FEFECE" height="621.75" rx="2.5" ry="2.5" style="stroke:#404040;stroke-width:0.5;" width="531.6035" x="2430.94" y="45.6094"/><text fill="#000000" font-family="sans-serif" font-size="30" lengthAdjust="spacing" textLength="103.3887" x="2645.0474" y="81.752">Dataset</text><line style="stroke:#404040;stroke-width:0.5;" x1="2431.94" x2="2961.5435" y1="93.3438" y2="93.3438"/><g data-visibility-modifier="PUBLIC_FIELD"><ellipse cx="2441.94" cy="117.7109" fill="none" rx="3" ry="3" style="stroke:#038048;stroke-width:1;"/></g><text fill="#000000" font-family="sans-serif" font-size="30" lengthAdjust="spacing" textLength="295.1514" x="2457.94" y="128.4863">identifier : Identifier [1]</text><g data-visibility-modifier="PUBLIC_FIELD"><ellipse cx="2441.94" cy="155.4453" fill="none" rx="3" ry="3" style="stroke:#038048;stroke-width:1;"/></g><text fill="#000000" font-family="sans-serif" font-size="30" lengthAdjust="spacing" textLength="215.0977" x="2457.94" y="166.2207">name : string [1]</text><g data-visibility-modifier="PUBLIC_FIELD"><ellipse cx="2441.94" cy="193.1797" fill="none" rx="3" ry="3" style="stroke:#038048;stroke-width:1;"/></g><text fill="#000000" font-family="sans-serif" font-size="30" lengthAdjust="spacing" textLength="318.4863" x="2457.94" y="203.9551">description : string [0..1]</text><g data-visibility-modifier="PUBLIC_FIELD"><ellipse cx="2441.94" cy="230.9141" fill="none" rx="3" ry="3" style="stroke:#038048;stroke-width:1;"/></g><text fill="#000000" font-family="sans-serif" font-size="30" lengthAdjust="spacing" textLength="463.5645" x="2457.94" y="241.6895">additionalType : DefinedTerm [0..*]</text><g data-visibility-modifier="PUBLIC_FIELD"><ellipse cx="2441.94" cy="268.6484" fill="none" rx="3" ry="3" style="stroke:#038048;stroke-width:1;"/></g><text fill="#000000" font-family="sans-serif" font-size="30" lengthAdjust="spacing" textLength="318.4717" x="2457.94" y="279.4238">sameAs : Identifier [0..*]</text><g data-visibility-modifier="PUBLIC_FIELD"><ellipse cx="2441.94" cy="306.3828" fill="none" rx="3" ry="3" style="stroke:#038048;stroke-width:1;"/></g><text fill="#000000" font-family="sans-serif" font-size="30" lengthAdjust="spacing" textLength="270.1172" x="2457.94" y="317.1582">version : string [0..1]</text><g data-visibility-modifier="PUBLIC_FIELD"><ellipse cx="2441.94" cy="344.1172" fill="none" rx="3" ry="3" style="stroke:#038048;stroke-width:1;"/></g><text fill="#000000" font-family="sans-serif" font-size="30" lengthAdjust="spacing" textLength="442.0459" x="2457.94" y="354.8926">inLanguage : XsdLanguage [0..1]</text><g data-visibility-modifier="PUBLIC_FIELD"><ellipse cx="2441.94" cy="381.8516" fill="none" rx="3" ry="3" style="stroke:#038048;stroke-width:1;"/></g><text fill="#000000" font-family="sans-serif" font-size="30" lengthAdjust="spacing" textLength="353.54" x="2457.94" y="392.627">dateModified : XsdDate [1]</text><g data-visibility-modifier="PUBLIC_FIELD"><ellipse cx="2441.94" cy="419.5859" fill="none" rx="3" ry="3" style="stroke:#038048;stroke-width:1;"/></g><text fill="#000000" font-family="sans-serif" font-size="30" lengthAdjust="spacing" textLength="405.2637" x="2457.94" y="430.3613">datePublished : XsdDate [0..1]</text><g data-visibility-modifier="PUBLIC_FIELD"><ellipse cx="2441.94" cy="457.3203" fill="none" rx="3" ry="3" style="stroke:#038048;stroke-width:1;"/></g><text fill="#000000" font-family="sans-serif" font-size="30" lengthAdjust="spacing" textLength="275.0977" x="2457.94" y="468.0957">url : XsdAnyUri [0..1]</text><g data-visibility-modifier="PUBLIC_FIELD"><ellipse cx="2441.94" cy="495.0547" fill="none" rx="3" ry="3" style="stroke:#038048;stroke-width:1;"/></g><text fill="#000000" font-family="sans-serif" font-size="30" lengthAdjust="spacing" textLength="326.8359" x="2457.94" y="505.8301">license : Reference [0..*]</text><g data-visibility-modifier="PUBLIC_FIELD"><ellipse cx="2441.94" cy="532.7891" fill="none" rx="3" ry="3" style="stroke:#038048;stroke-width:1;"/></g><text fill="#000000" font-family="sans-serif" font-size="30" lengthAdjust="spacing" textLength="496.9043" x="2457.94" y="543.5645">conditionsOfAccess : Reference [0..*]</text><g data-visibility-modifier="PUBLIC_FIELD"><ellipse cx="2441.94" cy="570.5234" fill="none" rx="3" ry="3" style="stroke:#038048;stroke-width:1;"/></g><text fill="#000000" font-family="sans-serif" font-size="30" lengthAdjust="spacing" textLength="498.6035" x="2457.94" y="581.2988">publishingPrinciples : Reference [0..*]</text><g data-visibility-modifier="PUBLIC_FIELD"><ellipse cx="2441.94" cy="608.2578" fill="none" rx="3" ry="3" style="stroke:#038048;stroke-width:1;"/></g><text fill="#000000" font-family="sans-serif" font-size="30" lengthAdjust="spacing" textLength="395.1416" x="2457.94" y="619.0332">keywords : DefinedTerm [0..*]</text><g data-visibility-modifier="PUBLIC_FIELD"><ellipse cx="2441.94" cy="645.9922" fill="none" rx="3" ry="3" style="stroke:#038048;stroke-width:1;"/></g><text fill="#000000" font-family="sans-serif" font-size="30" lengthAdjust="spacing" textLength="380.2148" x="2457.94" y="656.7676">relatedLink : Reference [0..*]</text></g><!--class Agent--><g class="entity" data-qualified-name="Agent" data-source-line="33" id="ent0003"><rect fill="#EEEEEE" height="47.7344" rx="2.5" ry="2.5" style="stroke:#404040;stroke-width:0.5;" width="84.3984" x="177.94" y="987.1094"/><text fill="#000000" font-family="sans-serif" font-size="30" font-style="italic" lengthAdjust="spacing" textLength="78.3984" x="180.94" y="1023.252">Agent</text></g><!--class AbstractDistribution--><g class="entity" data-qualified-name="AbstractDistribution" data-source-line="35" id="ent0005"><rect fill="#EEEEEE" height="47.7344" rx="2.5" ry="2.5" style="stroke:#404040;stroke-width:0.5;" width="266.0977" x="367.94" y="987.1094"/><text fill="#000000" font-family="sans-serif" font-size="30" font-style="italic" lengthAdjust="spacing" textLength="260.0977" x="370.94" y="1023.252">AbstractDistribution</text></g><!--class Contributor--><g class="entity" data-qualified-name="Contributor" data-source-line="38" id="ent0008"><rect fill="#EEEEEE" height="47.7344" rx="2.5" ry="2.5" style="stroke:#404040;stroke-width:0.5;" width="154.4033" x="653.94" y="987.1094"/><text fill="#000000" font-family="sans-serif" font-size="30" lengthAdjust="spacing" textLength="148.4033" x="656.94" y="1023.252">Contributor</text></g><!--class MonetaryGrant--><g class="entity" data-qualified-name="MonetaryGrant" data-source-line="41" id="ent0011"><rect fill="#EEEEEE" height="47.7344" rx="2.5" ry="2.5" style="stroke:#404040;stroke-width:0.5;" width="206.083" x="827.94" y="987.1094"/><text fill="#000000" font-family="sans-serif" font-size="30" lengthAdjust="spacing" textLength="200.083" x="830.94" y="1023.252">MonetaryGrant</text></g><!--class ProvActivity--><g class="entity" data-qualified-name="ProvActivity" data-source-line="43" id="ent0013"><rect fill="#EEEEEE" height="47.7344" rx="2.5" ry="2.5" style="stroke:#404040;stroke-width:0.5;" width="162.6943" x="1054.44" y="987.1094"/><text fill="#000000" font-family="sans-serif" font-size="30" lengthAdjust="spacing" textLength="156.6943" x="1057.44" y="1023.252">ProvActivity</text></g><!--class DerivedFrom--><g class="entity" data-qualified-name="DerivedFrom" data-source-line="45" id="ent0015"><rect fill="#EEEEEE" height="47.7344" rx="2.5" ry="2.5" style="stroke:#404040;stroke-width:0.5;" width="179.3643" x="1288.44" y="987.1094"/><text fill="#000000" font-family="sans-serif" font-size="30" lengthAdjust="spacing" textLength="173.3643" x="1291.44" y="1023.252">DerivedFrom</text></g><!--class CatalogRecord--><g class="entity" data-qualified-name="CatalogRecord" data-source-line="47" id="ent0017"><rect fill="#EEEEEE" height="47.7344" rx="2.5" ry="2.5" style="stroke:#404040;stroke-width:0.5;" width="206.1123" x="1662.94" y="987.1094"/><text fill="#000000" font-family="sans-serif" font-size="30" lengthAdjust="spacing" textLength="200.1123" x="1665.94" y="1023.252">CatalogRecord</text></g><!--class DefinedTerm--><g class="entity" data-qualified-name="DefinedTerm" data-source-line="49" id="ent0019"><rect fill="#EEEEEE" height="47.7344" rx="2.5" ry="2.5" style="stroke:#404040;stroke-width:0.5;" width="179.3936" x="2062.44" y="987.1094"/><text fill="#000000" font-family="sans-serif" font-size="30" lengthAdjust="spacing" textLength="173.3936" x="2065.44" y="1023.252">DefinedTerm</text></g><!--class Reference--><g class="entity" data-qualified-name="Reference" data-source-line="51" id="ent0021"><rect fill="#EEEEEE" height="47.7344" rx="2.5" ry="2.5" style="stroke:#404040;stroke-width:0.5;" width="144.4131" x="3065.94" y="987.1094"/><text fill="#000000" font-family="sans-serif" font-size="30" lengthAdjust="spacing" textLength="138.4131" x="3068.94" y="1023.252">Reference</text></g><!--class VariableMeasured--><g class="entity" data-qualified-name="VariableMeasured" data-source-line="54" id="ent0024"><rect fill="#EEEEEE" height="47.7344" rx="2.5" ry="2.5" style="stroke:#404040;stroke-width:0.5;" width="249.4717" x="3733.44" y="987.1094"/><text fill="#000000" font-family="sans-serif" font-size="30" lengthAdjust="spacing" textLength="243.4717" x="3736.44" y="1023.252">VariableMeasured</text></g><!--class SpatialExtent--><g class="entity" data-qualified-name="SpatialExtent" data-source-line="56" id="ent0026"><rect fill="#EEEEEE" height="47.7344" rx="2.5" ry="2.5" style="stroke:#404040;stroke-width:0.5;" width="182.7773" x="4079.44" y="987.1094"/><text fill="#000000" font-family="sans-serif" font-size="30" lengthAdjust="spacing" textLength="176.7773" x="4082.44" y="1023.252">SpatialExtent</text></g><!--class TemporalExtent--><g class="entity" data-qualified-name="TemporalExtent" data-source-line="58" id="ent0028"><rect fill="#EEEEEE" height="47.7344" rx="2.5" ry="2.5" style="stroke:#404040;stroke-width:0.5;" width="217.7578" x="4348.94" y="987.1094"/><text fill="#000000" font-family="sans-serif" font-size="30" lengthAdjust="spacing" textLength="211.7578" x="4351.94" y="1023.252">TemporalExtent</text></g><!--class QualityMeasurement--><g class="entity" data-qualified-name="QualityMeasurement" data-source-line="60" id="ent0030"><rect fill="#EEEEEE" height="47.7344" rx="2.5" ry="2.5" style="stroke:#404040;stroke-width:0.5;" width="282.7822" x="4639.44" y="987.1094"/><text fill="#000000" font-family="sans-serif" font-size="30" lengthAdjust="spacing" textLength="276.7822" x="4642.44" y="1023.252">QualityMeasurement</text></g><!--class Identifier--><g class="entity" data-qualified-name="Identifier" data-source-line="63" id="ent0033"><rect fill="#EEEEEE" height="47.7344" rx="2.5" ry="2.5" style="stroke:#404040;stroke-width:0.5;" width="121.0635" x="5208.44" y="987.1094"/><text fill="#000000" font-family="sans-serif" font-size="30" lengthAdjust="spacing" textLength="115.0635" x="5211.44" y="1023.252">Identifier</text></g><!--class XsdLanguage--><g class="entity" data-qualified-name="XsdLanguage" data-source-line="67" id="ent0037"><rect fill="#FAE5D3" height="93.0156" rx="2.5" ry="2.5" style="stroke:#404040;stroke-width:0.5;" width="192.1426" x="5421.94" y="964.6094"/><text fill="#000000" font-family="sans-serif" font-size="36" font-style="italic" lengthAdjust="spacing" textLength="190.1426" x="5422.94" y="1006.9805">&#171;dataType&#187;</text><text fill="#000000" font-family="sans-serif" font-size="30" lengthAdjust="spacing" textLength="185.1709" x="5425.4258" y="1046.0332">XsdLanguage</text></g><!--class XsdDate--><g class="entity" data-qualified-name="XsdDate" data-source-line="69" id="ent0039"><rect fill="#FAE5D3" height="93.0156" rx="2.5" ry="2.5" style="stroke:#404040;stroke-width:0.5;" width="192.1426" x="5636.94" y="964.6094"/><text fill="#000000" font-family="sans-serif" font-size="36" font-style="italic" lengthAdjust="spacing" textLength="190.1426" x="5637.94" y="1006.9805">&#171;dataType&#187;</text><text fill="#000000" font-family="sans-serif" font-size="30" lengthAdjust="spacing" textLength="115.0635" x="5675.4796" y="1046.0332">XsdDate</text></g><!--class XsdAnyUri--><g class="entity" data-qualified-name="XsdAnyUri" data-source-line="71" id="ent0041"><rect fill="#FAE5D3" height="93.0156" rx="2.5" ry="2.5" style="stroke:#404040;stroke-width:0.5;" width="192.1426" x="5869.94" y="964.6094"/><text fill="#000000" font-family="sans-serif" font-size="36" font-style="italic" lengthAdjust="spacing" textLength="190.1426" x="5870.94" y="1006.9805">&#171;dataType&#187;</text><text fill="#000000" font-family="sans-serif" font-size="30" lengthAdjust="spacing" textLength="141.709" x="5895.1568" y="1046.0332">XsdAnyUri</text></g><!--link Dataset to Agent--><g class="link" data-entity-1="ent0002" data-entity-2="ent0003" data-link-type="dependency" data-source-line="34" id="lnk4"><path codeLine="34" d="M2430.71,359.9494 C1823.44,371.4994 365.03,436.5294 62.94,792.6094 C6,859.7294 113.6735,943.0284 176.5635,983.7484" fill="none" id="Dataset-to-Agent" style="stroke:#404040;stroke-width:1.2;"/><polygon fill="#404040" points="181.6,987.0094,176.2193,978.7602,177.403,984.2919,171.8713,985.4755,181.6,987.0094" style="stroke:#404040;stroke-width:1.2;"/><text fill="#000000" font-family="sans-serif" font-size="36" lengthAdjust="spacing" textLength="130.0605" x="63.94" y="830.9805">provider</text><text fill="#000000" font-family="sans-serif" font-size="36" lengthAdjust="spacing" textLength="54.0352" x="115.929" y="971.1285">0..*</text></g><!--link Dataset to Agent--><g class="link" data-entity-1="ent0002" data-entity-2="ent0003" data-link-type="dependency" data-source-line="37" id="lnk7"><path codeLine="37" d="M2430.8,363.0294 C1850.39,381.0594 500.27,458.7594 219.94,792.6094 C173.2,848.2794 194.8522,937.5174 209.4122,981.1874" fill="none" id="Dataset-to-Agent-1" style="stroke:#404040;stroke-width:1.2;"/><polygon fill="#404040" points="211.31,986.8794,212.258,977.0762,209.7285,982.1361,204.6687,979.6066,211.31,986.8794" style="stroke:#404040;stroke-width:1.2;"/><text fill="#000000" font-family="sans-serif" font-size="36" lengthAdjust="spacing" textLength="112.043" x="220.94" y="830.9805">creator</text><text fill="#000000" font-family="sans-serif" font-size="36" lengthAdjust="spacing" textLength="54.0352" x="214.4361" y="971.2657">0..*</text></g><!--link Dataset to Agent--><g class="link" data-entity-1="ent0002" data-entity-2="ent0003" data-link-type="dependency" data-source-line="40" id="lnk10"><path codeLine="40" d="M2430.85,376.7394 C1888.34,420.4994 678.52,543.8494 356.94,792.6094 C338.7,806.7194 346.31,819.5394 334.94,839.6094 C303.87,894.4394 264.5353,949.8762 240.8853,982.0262" fill="none" id="Dataset-to-Agent-2" style="stroke:#404040;stroke-width:1.2;"/><polygon fill="#404040" points="237.33,986.8594,245.8851,981.9799,240.2928,982.8317,239.4409,977.2394,237.33,986.8594" style="stroke:#404040;stroke-width:1.2;"/><text fill="#000000" font-family="sans-serif" font-size="36" lengthAdjust="spacing" textLength="146.0918" x="357.94" y="830.9805">publisher</text><text fill="#000000" font-family="sans-serif" font-size="36" lengthAdjust="spacing" textLength="60.0469" x="269.7898" y="1023.2153">0..1</text></g><!--link Dataset to AbstractDistribution--><g class="link" data-entity-1="ent0002" data-entity-2="ent0005" data-link-type="dependency" data-source-line="36" id="lnk6"><path codeLine="36" d="M2430.6,374.3094 C1912.25,412.5194 795.88,524.5194 536.94,792.6094 C485.49,845.8794 490.4586,936.9318 496.3386,981.1218" fill="none" id="Dataset-to-AbstractDistribution" style="stroke:#404040;stroke-width:1.2;"/><polygon fill="#404040" points="497.13,987.0694,499.908,977.6204,496.4705,982.1131,491.9779,978.6756,497.13,987.0694" style="stroke:#404040;stroke-width:1.2;"/><text fill="#000000" font-family="sans-serif" font-size="36" lengthAdjust="spacing" textLength="174.0938" x="537.94" y="830.9805">distribution</text><text fill="#000000" font-family="sans-serif" font-size="36" lengthAdjust="spacing" textLength="54.0352" x="437.6364" y="971.1992">0..*</text></g><!--link Dataset to Contributor--><g class="link" data-entity-1="ent0002" data-entity-2="ent0008" data-link-type="dependency" data-source-line="39" id="lnk9"><path codeLine="39" d="M2430.66,377.7294 C1947.34,420.2494 955.68,537.1194 740.94,792.6094 C694.12,848.3094 710.4967,937.4366 722.2767,981.0866" fill="none" id="Dataset-to-Contributor" style="stroke:#404040;stroke-width:1.2;"/><polygon fill="#404040" points="723.84,986.8794,725.3569,977.148,722.5372,982.0521,717.6332,979.2324,723.84,986.8794" style="stroke:#404040;stroke-width:1.2;"/><text fill="#000000" font-family="sans-serif" font-size="36" lengthAdjust="spacing" textLength="170.0859" x="741.94" y="830.9805">contributor</text><text fill="#000000" font-family="sans-serif" font-size="36" lengthAdjust="spacing" textLength="54.0352" x="663.9474" y="971.2657">0..*</text></g><!--link Dataset to MonetaryGrant--><g class="link" data-entity-1="ent0002" data-entity-2="ent0011" data-link-type="dependency" data-source-line="42" id="lnk12"><path codeLine="42" d="M2430.88,384.8994 C1987.32,436.3694 1126.82,563.7294 939.94,792.6094 C893.93,848.9594 910.4463,937.7594 922.2563,981.2094" fill="none" id="Dataset-to-MonetaryGrant" style="stroke:#404040;stroke-width:1.2;"/><polygon fill="#404040" points="923.83,986.9994,925.3293,977.2653,922.5185,982.1744,917.6094,979.3636,923.83,986.9994" style="stroke:#404040;stroke-width:1.2;"/><text fill="#000000" font-family="sans-serif" font-size="36" lengthAdjust="spacing" textLength="118.1074" x="940.94" y="830.9805">funding</text><text fill="#000000" font-family="sans-serif" font-size="36" lengthAdjust="spacing" textLength="54.0352" x="863.7499" y="971.1168">0..*</text></g><!--link Dataset to ProvActivity--><g class="link" data-entity-1="ent0002" data-entity-2="ent0013" data-link-type="dependency" data-source-line="44" id="lnk14"><path codeLine="44" d="M2430.71,390.2094 C2015.55,447.1194 1244.42,579.2994 1080.94,792.6094 C1035.57,851.8094 1085.4254,939.2227 1115.1554,981.9927" fill="none" id="Dataset-to-ProvActivity" style="stroke:#404040;stroke-width:1.2;"/><polygon fill="#404040" points="1118.58,986.9194,1116.7276,977.2463,1115.7262,982.8138,1110.1587,981.8124,1118.58,986.9194" style="stroke:#404040;stroke-width:1.2;"/><text fill="#000000" font-family="sans-serif" font-size="36" lengthAdjust="spacing" textLength="276.1523" x="1081.94" y="830.9805">wasGeneratedBy</text><text fill="#000000" font-family="sans-serif" font-size="36" lengthAdjust="spacing" textLength="54.0352" x="1056.9849" y="971.3126">0..*</text></g><!--link Dataset to DerivedFrom--><g class="link" data-entity-1="ent0002" data-entity-2="ent0015" data-link-type="dependency" data-source-line="46" id="lnk16"><path codeLine="46" d="M2430.76,408.6994 C2085.25,480.9494 1511.42,623.2294 1384.94,792.6094 C1341.54,850.7294 1357.7389,938.216 1369.3289,981.226" fill="none" id="Dataset-to-DerivedFrom" style="stroke:#404040;stroke-width:1.2;"/><polygon fill="#404040" points="1370.89,987.0194,1372.4105,977.2886,1369.589,982.1916,1364.6861,979.3701,1370.89,987.0194" style="stroke:#404040;stroke-width:1.2;"/><text fill="#000000" font-family="sans-serif" font-size="36" lengthAdjust="spacing" textLength="272.0566" x="1385.94" y="830.9805">wasDerivedFrom</text><text fill="#000000" font-family="sans-serif" font-size="36" lengthAdjust="spacing" textLength="54.0352" x="1310.7955" y="971.1403">0..*</text></g><!--link Dataset to CatalogRecord--><g class="link" data-entity-1="ent0002" data-entity-2="ent0017" data-link-type="dependency" data-source-line="48" id="lnk18"><path codeLine="48" d="M2430.88,389.5294 C2188.34,434.2894 1843.28,540.8294 1676.94,792.6094 C1634.21,857.2894 1699.8234,941.3949 1738.6134,982.7149" fill="none" id="Dataset-to-CatalogRecord" style="stroke:#404040;stroke-width:1.2;"/><polygon fill="#404040" points="1742.72,987.0894,1739.4764,977.79,1739.2978,983.444,1733.6438,983.2654,1742.72,987.0894" style="stroke:#404040;stroke-width:1.2;"/><text fill="#000000" font-family="sans-serif" font-size="36" lengthAdjust="spacing" textLength="152.0684" x="1677.94" y="830.9805">subjectOf</text><text fill="#000000" font-family="sans-serif" font-size="36" lengthAdjust="spacing" textLength="20.0215" x="1716.7946" y="971.2228">1</text></g><!--link CatalogRecord to Dataset--><g class="link" data-entity-1="ent0017" data-entity-2="ent0002" data-link-type="dependency" data-source-line="62" id="lnk32"><path codeLine="62" d="M1774.37,987.0194 C1792.83,937.3894 1837.46,822.5894 1865.94,792.6094 C2021.27,629.0894 2246.1738,517.3691 2425.0338,447.2591" fill="none" id="CatalogRecord-to-Dataset" style="stroke:#404040;stroke-width:1.2;"/><polygon fill="#404040" points="2430.62,445.0694,2420.781,444.6298,2425.9649,446.8941,2423.7005,452.078,2430.62,445.0694" style="stroke:#404040;stroke-width:1.2;"/><text fill="#000000" font-family="sans-serif" font-size="36" lengthAdjust="spacing" textLength="90.0879" x="1866.94" y="830.9805">about</text><text fill="#000000" font-family="sans-serif" font-size="36" lengthAdjust="spacing" textLength="60.0469" x="2362.7549" y="439.1996">0..1</text></g><!--link Dataset to DefinedTerm--><g class="link" data-entity-1="ent0002" data-entity-2="ent0019" data-link-type="dependency" data-source-line="50" id="lnk20"><path codeLine="50" d="M2430.85,441.4394 C2267.15,508.3494 2070.6,619.9994 1972.94,792.6094 C1928.51,871.1394 2035.8704,946.4903 2102.2304,984.1103" fill="none" id="Dataset-to-DefinedTerm" style="stroke:#404040;stroke-width:1.2;"/><polygon fill="#404040" points="2107.45,987.0694,2101.5933,979.1511,2103.1003,984.6035,2097.6479,986.1106,2107.45,987.0694" style="stroke:#404040;stroke-width:1.2;"/><text fill="#000000" font-family="sans-serif" font-size="36" lengthAdjust="spacing" textLength="152.0508" x="1973.94" y="830.9805">keywords</text><text fill="#000000" font-family="sans-serif" font-size="36" lengthAdjust="spacing" textLength="54.0352" x="2040.6839" y="971.1992">0..*</text></g><!--link Dataset to DefinedTerm--><g class="link" data-entity-1="ent0002" data-entity-2="ent0019" data-link-type="dependency" data-source-line="53" id="lnk23"><path codeLine="53" d="M2430.86,498.7394 C2323.41,571.0194 2211.01,669.8894 2151.94,792.6094 C2120.82,857.2594 2134.5003,939.9125 2144.3403,981.2425" fill="none" id="Dataset-to-DefinedTerm-1" style="stroke:#404040;stroke-width:1.2;"/><polygon fill="#404040" points="2145.73,987.0794,2147.5367,977.3977,2144.572,982.2153,2139.7543,979.2505,2145.73,987.0794" style="stroke:#404040;stroke-width:1.2;"/><text fill="#000000" font-family="sans-serif" font-size="36" lengthAdjust="spacing" textLength="388.2129" x="2152.94" y="830.9805">measurementTechnique</text><text fill="#000000" font-family="sans-serif" font-size="36" lengthAdjust="spacing" textLength="54.0352" x="2149.4013" y="971.211">0..*</text></g><!--link Dataset to DefinedTerm--><g class="link" data-entity-1="ent0002" data-entity-2="ent0019" data-link-type="dependency" data-source-line="65" id="lnk35"><path codeLine="65" d="M2608.53,667.7794 C2582.45,751.7094 2557.12,823.8994 2542.94,839.6094 C2463.41,927.6894 2336.0671,970.9208 2247.5771,991.9708" fill="none" id="Dataset-to-DefinedTerm-2" style="stroke:#404040;stroke-width:1.2;"/><polygon fill="#404040" points="2241.74,993.3594,2251.4214,995.168,2246.6043,992.2023,2249.57,987.3852,2241.74,993.3594" style="stroke:#404040;stroke-width:1.2;"/><text fill="#000000" font-family="sans-serif" font-size="36" lengthAdjust="spacing" textLength="234.1582" x="2563.94" y="830.9805">additionalType</text><text fill="#000000" font-family="sans-serif" font-size="36" lengthAdjust="spacing" textLength="54.0352" x="2249.9399" y="982.9196">0..*</text></g><!--link Dataset to Reference--><g class="link" data-entity-1="ent0002" data-entity-2="ent0021" data-link-type="dependency" data-source-line="52" id="lnk22"><path codeLine="52" d="M2771.41,667.9394 C2793.43,751.3794 2815.07,823.2494 2827.94,839.6094 C2888.8,916.9594 2989.2712,962.3135 3060.1512,986.8935" fill="none" id="Dataset-to-Reference" style="stroke:#404040;stroke-width:1.2;"/><polygon fill="#404040" points="3065.82,988.8594,3058.6273,982.1314,3061.096,987.2212,3056.0062,989.6898,3065.82,988.8594" style="stroke:#404040;stroke-width:1.2;"/><text fill="#000000" font-family="sans-serif" font-size="36" lengthAdjust="spacing" textLength="112.0605" x="2828.94" y="830.9805">license</text><text fill="#000000" font-family="sans-serif" font-size="36" lengthAdjust="spacing" textLength="54.0352" x="3003.9063" y="977.6862">0..*</text></g><!--link Dataset to Reference--><g class="link" data-entity-1="ent0002" data-entity-2="ent0021" data-link-type="dependency" data-source-line="73" id="lnk43"><path codeLine="73" d="M2874.42,667.6994 C2897.74,709.5394 2921.11,752.0194 2942.94,792.6094 C2954.05,813.2694 2953.13,820.6494 2966.94,839.6094 C3009.88,898.5694 3068.8769,952.2652 3105.1869,983.1052" fill="none" id="Dataset-to-Reference-1" style="stroke:#404040;stroke-width:1.2;"/><polygon fill="#404040" points="3109.76,986.9894,3105.4898,978.1144,3105.9491,983.7526,3100.3109,984.2118,3109.76,986.9894" style="stroke:#404040;stroke-width:1.2;"/><text fill="#000000" font-family="sans-serif" font-size="36" lengthAdjust="spacing" textLength="316.1426" x="2967.94" y="830.9805">conditionsOfAccess</text><text fill="#000000" font-family="sans-serif" font-size="36" lengthAdjust="spacing" textLength="54.0352" x="3109.5162" y="971.105">0..*</text></g><!--link Dataset to Reference--><g class="link" data-entity-1="ent0002" data-entity-2="ent0021" data-link-type="dependency" data-source-line="74" id="lnk44"><path codeLine="74" d="M2963.13,481.5194 C3085.17,553.6294 3217.64,657.2694 3285.94,792.6094 C3324.11,868.2494 3234.1716,945.0375 3179.0316,983.4875" fill="none" id="Dataset-to-Reference-2" style="stroke:#404040;stroke-width:1.2;"/><polygon fill="#404040" points="3174.11,986.9194,3183.7803,985.0526,3178.2113,984.0595,3179.2044,978.4905,3174.11,986.9194" style="stroke:#404040;stroke-width:1.2;"/><text fill="#000000" font-family="sans-serif" font-size="36" lengthAdjust="spacing" textLength="318.1816" x="3295.94" y="830.9805">publishingPrinciples</text><text fill="#000000" font-family="sans-serif" font-size="36" lengthAdjust="spacing" textLength="54.0352" x="3184.9349" y="971.3126">0..*</text></g><!--link Dataset to Reference--><g class="link" data-entity-1="ent0002" data-entity-2="ent0021" data-link-type="dependency" data-source-line="75" id="lnk45"><path codeLine="75" d="M2963.09,403.1094 C3181.29,455.9594 3476.68,566.7194 3619.94,792.6094 C3718.52,948.0594 3373.0015,992.9586 3215.9615,1005.3186" fill="none" id="Dataset-to-Reference-3" style="stroke:#404040;stroke-width:1.2;"/><polygon fill="#404040" points="3209.98,1005.7894,3219.2661,1009.0709,3214.9646,1005.3971,3218.6384,1001.0955,3209.98,1005.7894" style="stroke:#404040;stroke-width:1.2;"/><text fill="#000000" font-family="sans-serif" font-size="36" lengthAdjust="spacing" textLength="176.1152" x="3637.94" y="830.9805">relatedLink</text><text fill="#000000" font-family="sans-serif" font-size="36" lengthAdjust="spacing" textLength="54.0352" x="3218.475" y="1044.6604">0..*</text></g><!--reverse link Dataset to VariableMeasured--><g class="link" data-entity-1="ent0002" data-entity-2="ent0024" data-link-type="composition" data-source-line="55" id="lnk25"><path codeLine="55" d="M2974.8913,388.1347 C3234.2613,430.7447 3607.83,534.0894 3819.94,792.6094 C3866.62,849.5094 3864.66,943.3994 3860.75,986.7894" fill="none" id="Dataset-backto-VariableMeasured" style="stroke:#404040;stroke-width:1.2;"/><polygon fill="#404040" points="2963.05,386.1894,2968.3222,391.1091,2974.8913,388.1347,2969.6191,383.2149,2963.05,386.1894" style="stroke:#404040;stroke-width:1.2;"/><text fill="#000000" font-family="sans-serif" font-size="36" lengthAdjust="spacing" textLength="286.1543" x="3846.94" y="830.9805">variableMeasured</text><text fill="#000000" font-family="sans-serif" font-size="36" lengthAdjust="spacing" textLength="54.0352" x="3802.5548" y="971.1603">0..*</text></g><!--reverse link Dataset to SpatialExtent--><g class="link" data-entity-1="ent0002" data-entity-2="ent0026" data-link-type="composition" data-source-line="57" id="lnk27"><path codeLine="57" d="M2975.0591,405.1558 C3347.8991,474.2458 3985.35,614.6194 4138.94,792.6094 C4186.94,848.2294 4180.84,943.1894 4174.87,986.8694" fill="none" id="Dataset-backto-SpatialExtent" style="stroke:#404040;stroke-width:1.2;"/><polygon fill="#404040" points="2963.26,402.9694,2968.4307,407.9956,2975.0591,405.1558,2969.8884,400.1296,2963.26,402.9694" style="stroke:#404040;stroke-width:1.2;"/><text fill="#000000" font-family="sans-serif" font-size="36" lengthAdjust="spacing" textLength="260.1563" x="4165.94" y="830.9805">spatialCoverage</text><text fill="#000000" font-family="sans-serif" font-size="36" lengthAdjust="spacing" textLength="54.0352" x="4116.927" y="971.254">0..*</text></g><!--reverse link Dataset to TemporalExtent--><g class="link" data-entity-1="ent0002" data-entity-2="ent0028" data-link-type="composition" data-source-line="59" id="lnk29"><path codeLine="59" d="M2975.0161,389.118 C3411.8261,444.098 4239.71,574.3494 4431.94,792.6094 C4456.95,821.0094 4458.79,936.6794 4458.37,986.7894" fill="none" id="Dataset-backto-TemporalExtent" style="stroke:#404040;stroke-width:1.2;"/><polygon fill="#404040" points="2963.11,387.6194,2968.5635,392.3374,2975.0161,389.118,2969.5626,384.4,2963.11,387.6194" style="stroke:#404040;stroke-width:1.2;"/><text fill="#000000" font-family="sans-serif" font-size="36" lengthAdjust="spacing" textLength="296.1563" x="4450.94" y="830.9805">temporalCoverage</text><text fill="#000000" font-family="sans-serif" font-size="36" lengthAdjust="spacing" textLength="54.0352" x="4399.8271" y="971.1603">0..*</text></g><!--reverse link Dataset to QualityMeasurement--><g class="link" data-entity-1="ent0002" data-entity-2="ent0030" data-link-type="composition" data-source-line="61" id="lnk31"><path codeLine="61" d="M2975.3595,377.444 C3475.4195,418.614 4513.81,533.4194 4752.94,792.6094 C4802.76,846.6194 4793.38,942.8094 4785.74,986.8894" fill="none" id="Dataset-backto-QualityMeasurement" style="stroke:#404040;stroke-width:1.2;"/><polygon fill="#404040" points="2963.4,376.4594,2969.0516,380.9382,2975.3595,377.444,2969.708,372.9652,2963.4,376.4594" style="stroke:#404040;stroke-width:1.2;"/><text fill="#000000" font-family="sans-serif" font-size="36" lengthAdjust="spacing" textLength="390.1816" x="4780.94" y="830.9805">hasQualityMeasurement</text><text fill="#000000" font-family="sans-serif" font-size="36" lengthAdjust="spacing" textLength="54.0352" x="4727.9461" y="971.2775">0..*</text></g><!--link Dataset to Identifier--><g class="link" data-entity-1="ent0002" data-entity-2="ent0033" data-link-type="dependency" data-source-line="64" id="lnk34"><path codeLine="64" d="M2963.07,372.9694 C3530.04,410.5894 4833.1,524.5594 5173.94,792.6094 C5182.16,799.0694 5234.8099,926.4954 5257.1999,981.2754" fill="none" id="Dataset-to-Identifier" style="stroke:#404040;stroke-width:1.2;"/><polygon fill="#404040" points="5259.47,986.8294,5259.7676,976.985,5257.5783,982.201,5252.3622,980.0118,5259.47,986.8294" style="stroke:#404040;stroke-width:1.2;"/><text fill="#000000" font-family="sans-serif" font-size="36" lengthAdjust="spacing" textLength="136.0723" x="5197.94" y="830.9805">identifier</text><text fill="#000000" font-family="sans-serif" font-size="36" lengthAdjust="spacing" textLength="20.0215" x="5236.12" y="971.2072">1</text></g><!--link Dataset to Identifier--><g class="link" data-entity-1="ent0002" data-entity-2="ent0033" data-link-type="dependency" data-source-line="66" id="lnk36"><path codeLine="66" d="M2963.21,359.8394 C3571.5,371.1494 5034.01,435.6894 5336.94,792.6094 C5386.09,850.5194 5327.0098,939.2254 5292.5298,982.2954" fill="none" id="Dataset-to-Identifier-1" style="stroke:#404040;stroke-width:1.2;"/><polygon fill="#404040" points="5288.78,986.9794,5297.5273,982.4533,5291.9048,983.0761,5291.282,977.4536,5288.78,986.9794" style="stroke:#404040;stroke-width:1.2;"/><text fill="#000000" font-family="sans-serif" font-size="36" lengthAdjust="spacing" textLength="130.043" x="5355.94" y="830.9805">sameAs</text><text fill="#000000" font-family="sans-serif" font-size="36" lengthAdjust="spacing" textLength="54.0352" x="5297.1209" y="971.0932">0..*</text></g><!--link Dataset to XsdLanguage--><g class="link" data-entity-1="ent0002" data-entity-2="ent0037" data-link-type="dependency" data-source-line="68" id="lnk38"><path codeLine="68" d="M2963.09,359.7194 C3592.55,370.6394 5145.94,434.1294 5491.94,792.6094 C5514.85,816.3494 5518.6426,901.8094 5518.7126,958.2994" fill="none" id="Dataset-to-XsdLanguage" style="stroke:#404040;stroke-width:1.2;stroke-dasharray:7,7;"/><polygon fill="#404040" points="5518.72,964.2994,5522.7088,955.2944,5518.7138,959.2994,5514.7089,955.3043,5518.72,964.2994" style="stroke:#404040;stroke-width:1.2;"/><text fill="#000000" font-family="sans-serif" font-size="36" lengthAdjust="spacing" textLength="188.1914" x="5510.94" y="830.9805">inLanguage</text></g><!--link Dataset to XsdDate--><g class="link" data-entity-1="ent0002" data-entity-2="ent0039" data-link-type="dependency" data-source-line="70" id="lnk40"><path codeLine="70" d="M2963.03,377.8294 C3662.67,433.5094 5513.25,597.9094 5704.94,792.6094 C5728.11,816.1494 5732.6685,901.6797 5733.2485,958.2397" fill="none" id="Dataset-to-XsdDate" style="stroke:#404040;stroke-width:1.2;stroke-dasharray:7,7;"/><polygon fill="#404040" points="5733.31,964.2394,5737.2175,955.1988,5733.2587,959.2396,5729.2179,955.2809,5733.31,964.2394" style="stroke:#404040;stroke-width:1.2;"/><text fill="#000000" font-family="sans-serif" font-size="36" lengthAdjust="spacing" textLength="206.1387" x="5724.94" y="830.9805">dateModified</text></g><!--link Dataset to XsdAnyUri--><g class="link" data-entity-1="ent0002" data-entity-2="ent0041" data-link-type="dependency" data-source-line="72" id="lnk42"><path codeLine="72" d="M2962.94,374.9794 C3699.85,425.5994 5727.31,582.7994 5936.94,792.6094 C5981.5,837.2094 5981.31,909.0964 5975.08,958.5464" fill="none" id="Dataset-to-XsdAnyUri" style="stroke:#404040;stroke-width:1.2;stroke-dasharray:7,7;"/><polygon fill="#404040" points="5974.33,964.4994,5979.4236,956.07,5974.955,959.5386,5971.4864,955.07,5974.33,964.4994" style="stroke:#404040;stroke-width:1.2;"/><text fill="#000000" font-family="sans-serif" font-size="36" lengthAdjust="spacing" textLength="40.0078" x="5964.94" y="830.9805">url</text></g><?plantuml-src ZLPDRzim3BtxLmZfhKE2Vgmx64M0D4cB0YtMjTamODX1aPb4Yorvafmi6_hVHql-a1FNQNknoAT7YgBuOhY9WKoeeHfCiE8H4COLYy5zGvAQ7KaWcOFIWLvpaL954w9ND99RBfPaGMCDdcUabDpELfoj1MXDpWSNdbDHiTQGaekhCyygP0JMwXiZMD0iDhTIc1V-5yZb9y_9OehS_mBYmerbB1Kv-NYM_wFnHge8rBxLfyADnYW-pmpKvhFWDGWSTQ-eI8zGNLQ7dDnERwVZgOtx0QiZ35zmK2Gaz_NYn_dFt2re0kZG60IBL1Znc4pnr70fFD_POE3SD8fuxgFnR9VckoUmu0AY6QZ4maujJ2FrIEz5hRmRlAWt-Bbue6APqMNE_Lr7rQg6HDJ0eunoqiY1yF1GvO_VJzayvdhLT5VxCnKx-qZilYhkUMBEGEWyyZCiG85Wu6NDf71drvyN8yRopca7fYuy7km9JyTu6iDRq3NijjW8-ir2AeWn--Y1YtKRnMj0vrX3oapHRxtH4WjkMy9-aPEf_GlA1kdtXwINR-uLW92aIcwmLTGXLx6USEqQ4G_lg5iSdP7Qy269l6LNWam1DLALVJ_6rs2tIMMpyTPTIVWmvAnN1-1phpP5ArN17wK0GzNk3kU4gtF3qfL04nYIHOOD9PObynDUmuWPlk5cPubzGnTl0nUIBTLt843bVNEpguO5ABw1w5R9n0sCUjt5xSCijMUexWEtnNBv30nRsTs8RscdnnetKJWCilalOERpeiwvUX95plKJwSovXeMaV68bQVM6B6NzeZe8Qr18YXbnF6u2L6SA4koZ6R2LuBypA7FuHXMdynWU7SOLRTzuaD5flr-6Ei26PBDdAcEzfDHm6a__c78mD2nTKPf0l22t7aiSu3YJomWpL62f6Y6QfguOUyYGcCAm7-LBHcDiyCUwh3RIeRahMWiw92kg3-r1ipkzqL3IXeJEPMRA_6gbitbvmlTM_z_xybnhzV7MQefm6xv1xSIupDCJLPkeBxBNroYVD2ST3l6dn6XwDRciw0U3OGECELTYxP7dQbiIM-Lz3wa5eY1uqkvHEg4kIGlPVWzj0Gq9QlwnXtqexyTsjEdyiJsUdWV_0G00?></g></svg>