<svg xmlns="http://www.w3.org/2000/svg" xmlns:xlink="http://www.w3.org/1999/xlink" contentStyleType="text/css" data-diagram-type="CLASS" height="1811px" preserveAspectRatio="none" style="width:3032px;height:1811px;background:#FFFFFF;" version="1.1" viewBox="0 0 3032 1811" width="3032px" zoomAndPan="magnify"><?plantuml 1.2026.3?><defs/><g><g class="title" data-source-line="1"><text fill="#000000" font-family="sans-serif" font-size="14" font-weight="700" lengthAdjust="spacing" textLength="180.9678" x="1422.415" y="24.5332">CoreDiscovery &#8212; overview</text></g><!--class CompositeProfile--><g class="entity" data-qualified-name="CompositeProfile" data-source-line="16" id="ent0002"><rect fill="#FEFECE" height="35.1563" rx="2.5" ry="2.5" style="stroke:#404040;stroke-width:0.5;" width="158.2852" x="7" y="45.6094"/><text fill="#000000" font-family="sans-serif" font-size="20" font-style="italic" lengthAdjust="spacing" textLength="152.2852" x="10" y="71.3711">CompositeProfile</text></g><!--class Dataset--><g class="entity" data-qualified-name="Dataset" data-source-line="17" id="ent0003"><rect fill="#FEFECE" height="35.1563" rx="2.5" ry="2.5" style="stroke:#404040;stroke-width:0.5;" width="74.9258" x="1219.5" y="45.6094"/><text fill="#000000" font-family="sans-serif" font-size="20" lengthAdjust="spacing" textLength="68.9258" x="1222.5" y="71.3711">Dataset</text></g><!--class AbstractDistribution--><g class="entity" data-qualified-name="AbstractDistribution" data-source-line="18" id="ent0004"><rect fill="#D6EAF8" height="35.1563" rx="2.5" ry="2.5" style="stroke:#404040;stroke-width:0.5;" width="179.3984" x="841.5" y="474.6094"/><text fill="#000000" font-family="sans-serif" font-size="20" font-style="italic" lengthAdjust="spacing" textLength="173.3984" x="844.5" y="500.3711">AbstractDistribution</text></g><!--class DataDownload--><g class="entity" data-qualified-name="DataDownload" data-source-line="19" id="ent0005"><rect fill="#FEFECE" height="35.1563" rx="2.5" ry="2.5" style="stroke:#404040;stroke-width:0.5;" width="137.1914" x="834.5" y="904.6094"/><text fill="#000000" font-family="sans-serif" font-size="20" lengthAdjust="spacing" textLength="131.1914" x="837.5" y="930.3711">DataDownload</text></g><!--class WebAPI--><g class="entity" data-qualified-name="WebAPI" data-source-line="20" id="ent0006"><rect fill="#FCF3CF" height="35.1563" rx="2.5" ry="2.5" style="stroke:#404040;stroke-width:0.5;" width="79.3594" x="985.5" y="904.6094"/><text fill="#000000" font-family="sans-serif" font-size="20" lengthAdjust="spacing" textLength="73.3594" x="988.5" y="930.3711">WebAPI</text></g><!--class Action--><g class="entity" data-qualified-name="Action" data-source-line="21" id="ent0007"><rect fill="#D6EAF8" height="35.1563" rx="2.5" ry="2.5" style="stroke:#404040;stroke-width:0.5;" width="61.5859" x="922" y="1333.6094"/><text fill="#000000" font-family="sans-serif" font-size="20" lengthAdjust="spacing" textLength="55.5859" x="925" y="1359.3711">Action</text></g><!--class EntryPoint--><g class="entity" data-qualified-name="EntryPoint" data-source-line="22" id="ent0008"><rect fill="#D6EAF8" height="35.1563" rx="2.5" ry="2.5" style="stroke:#404040;stroke-width:0.5;" width="98.2656" x="782" y="1762.6094"/><text fill="#000000" font-family="sans-serif" font-size="20" lengthAdjust="spacing" textLength="92.2656" x="785" y="1788.3711">EntryPoint</text></g><!--class ActionResult--><g class="entity" data-qualified-name="ActionResult" data-source-line="23" id="ent0009"><rect fill="#FCF3CF" height="35.1563" rx="2.5" ry="2.5" style="stroke:#404040;stroke-width:0.5;" width="118.2754" x="894" y="1762.6094"/><text fill="#000000" font-family="sans-serif" font-size="20" lengthAdjust="spacing" textLength="112.2754" x="897" y="1788.3711">ActionResult</text></g><!--class PropertyValueSpecification--><g class="entity" data-qualified-name="PropertyValueSpecification" data-source-line="24" id="ent0010"><rect fill="#D6EAF8" height="35.1563" rx="2.5" ry="2.5" style="stroke:#404040;stroke-width:0.5;" width="246.1367" x="1026" y="1762.6094"/><text fill="#000000" font-family="sans-serif" font-size="20" lengthAdjust="spacing" textLength="240.1367" x="1029" y="1788.3711">PropertyValueSpecification</text></g><!--class Agent--><g class="entity" data-qualified-name="Agent" data-source-line="25" id="ent0011"><rect fill="#D6EAF8" height="35.1563" rx="2.5" ry="2.5" style="stroke:#404040;stroke-width:0.5;" width="58.2656" x="689" y="1333.6094"/><text fill="#000000" font-family="sans-serif" font-size="20" font-style="italic" lengthAdjust="spacing" textLength="52.2656" x="692" y="1359.3711">Agent</text></g><!--class Person--><g class="entity" data-qualified-name="Person" data-source-line="26" id="ent0012"><rect fill="#D6EAF8" height="35.1563" rx="2.5" ry="2.5" style="stroke:#404040;stroke-width:0.5;" width="69.3691" x="688.5" y="1762.6094"/><text fill="#000000" font-family="sans-serif" font-size="20" lengthAdjust="spacing" textLength="63.3691" x="691.5" y="1788.3711">Person</text></g><!--class ContactPoint--><g class="entity" data-qualified-name="ContactPoint" data-source-line="27" id="ent0013"><rect fill="#D6EAF8" height="35.1563" rx="2.5" ry="2.5" style="stroke:#404040;stroke-width:0.5;" width="120.5117" x="179.5" y="45.6094"/><text fill="#000000" font-family="sans-serif" font-size="20" lengthAdjust="spacing" textLength="114.5117" x="182.5" y="71.3711">ContactPoint</text></g><!--class Organization--><g class="entity" data-qualified-name="Organization" data-source-line="28" id="ent0014"><rect fill="#D6EAF8" height="35.1563" rx="2.5" ry="2.5" style="stroke:#404040;stroke-width:0.5;" width="119.3984" x="555.5" y="1762.6094"/><text fill="#000000" font-family="sans-serif" font-size="20" lengthAdjust="spacing" textLength="113.3984" x="558.5" y="1788.3711">Organization</text></g><!--class Contributor--><g class="entity" data-qualified-name="Contributor" data-source-line="29" id="ent0015"><rect fill="#D6EAF8" height="35.1563" rx="2.5" ry="2.5" style="stroke:#404040;stroke-width:0.5;" width="104.9355" x="433.5" y="689.6094"/><text fill="#000000" font-family="sans-serif" font-size="20" lengthAdjust="spacing" textLength="98.9355" x="436.5" y="715.3711">Contributor</text></g><!--class DefinedTerm--><g class="entity" data-qualified-name="DefinedTerm" data-source-line="30" id="ent0016"><rect fill="#D5F5E3" height="35.1563" rx="2.5" ry="2.5" style="stroke:#404040;stroke-width:0.5;" width="121.5957" x="1280" y="904.6094"/><text fill="#000000" font-family="sans-serif" font-size="20" lengthAdjust="spacing" textLength="115.5957" x="1283" y="930.3711">DefinedTerm</text></g><!--class Identifier--><g class="entity" data-qualified-name="Identifier" data-source-line="31" id="ent0017"><rect fill="#D6EAF8" height="35.1563" rx="2.5" ry="2.5" style="stroke:#404040;stroke-width:0.5;" width="82.709" x="44.5" y="474.6094"/><text fill="#000000" font-family="sans-serif" font-size="20" lengthAdjust="spacing" textLength="76.709" x="47.5" y="500.3711">Identifier</text></g><!--class AdditionalProperty--><g class="entity" data-qualified-name="AdditionalProperty" data-source-line="32" id="ent0018"><rect fill="#D6EAF8" height="35.1563" rx="2.5" ry="2.5" style="stroke:#404040;stroke-width:0.5;" width="169.4277" x="141.5" y="474.6094"/><text fill="#000000" font-family="sans-serif" font-size="20" lengthAdjust="spacing" textLength="163.4277" x="144.5" y="500.3711">AdditionalProperty</text></g><!--class Reference--><g class="entity" data-qualified-name="Reference" data-source-line="33" id="ent0019"><rect fill="#D6EAF8" height="35.1563" rx="2.5" ry="2.5" style="stroke:#404040;stroke-width:0.5;" width="98.2754" x="1819" y="474.6094"/><text fill="#000000" font-family="sans-serif" font-size="20" lengthAdjust="spacing" textLength="92.2754" x="1822" y="500.3711">Reference</text></g><!--class MonetaryGrant--><g class="entity" data-qualified-name="MonetaryGrant" data-source-line="34" id="ent0020"><rect fill="#D6EAF8" height="35.1563" rx="2.5" ry="2.5" style="stroke:#404040;stroke-width:0.5;" width="139.3887" x="551.5" y="689.6094"/><text fill="#000000" font-family="sans-serif" font-size="20" lengthAdjust="spacing" textLength="133.3887" x="554.5" y="715.3711">MonetaryGrant</text></g><!--class ProvActivity--><g class="entity" data-qualified-name="ProvActivity" data-source-line="35" id="ent0021"><rect fill="#FEFECE" height="35.1563" rx="2.5" ry="2.5" style="stroke:#404040;stroke-width:0.5;" width="110.4629" x="1931" y="474.6094"/><text fill="#000000" font-family="sans-serif" font-size="20" lengthAdjust="spacing" textLength="104.4629" x="1934" y="500.3711">ProvActivity</text></g><!--class DerivedFrom--><g class="entity" data-qualified-name="DerivedFrom" data-source-line="36" id="ent0022"><rect fill="#D6EAF8" height="35.1563" rx="2.5" ry="2.5" style="stroke:#404040;stroke-width:0.5;" width="121.5762" x="2055" y="474.6094"/><text fill="#000000" font-family="sans-serif" font-size="20" lengthAdjust="spacing" textLength="115.5762" x="2058" y="500.3711">DerivedFrom</text></g><!--class CatalogRecord--><g class="entity" data-qualified-name="CatalogRecord" data-source-line="37" id="ent0023"><rect fill="#FEFECE" height="35.1563" rx="2.5" ry="2.5" style="stroke:#404040;stroke-width:0.5;" width="139.4082" x="1034.5" y="474.6094"/><text fill="#000000" font-family="sans-serif" font-size="20" lengthAdjust="spacing" textLength="133.4082" x="1037.5" y="500.3711">CatalogRecord</text></g><!--class VariableMeasured--><g class="entity" data-qualified-name="VariableMeasured" data-source-line="38" id="ent0024"><rect fill="#D5F5E3" height="35.1563" rx="2.5" ry="2.5" style="stroke:#404040;stroke-width:0.5;" width="168.3145" x="1637" y="474.6094"/><text fill="#000000" font-family="sans-serif" font-size="20" lengthAdjust="spacing" textLength="162.3145" x="1640" y="500.3711">VariableMeasured</text></g><!--class SpatialExtent--><g class="entity" data-qualified-name="SpatialExtent" data-source-line="39" id="ent0025"><rect fill="#D5F5E3" height="35.1563" rx="2.5" ry="2.5" style="stroke:#404040;stroke-width:0.5;" width="123.8516" x="2231" y="474.6094"/><text fill="#000000" font-family="sans-serif" font-size="20" lengthAdjust="spacing" textLength="117.8516" x="2234" y="500.3711">SpatialExtent</text></g><!--class TemporalExtent--><g class="entity" data-qualified-name="TemporalExtent" data-source-line="40" id="ent0026"><rect fill="#D5F5E3" height="35.1563" rx="2.5" ry="2.5" style="stroke:#404040;stroke-width:0.5;" width="147.1719" x="2427.5" y="474.6094"/><text fill="#000000" font-family="sans-serif" font-size="20" lengthAdjust="spacing" textLength="141.1719" x="2430.5" y="500.3711">TemporalExtent</text></g><!--class QualityMeasure--><g class="entity" data-qualified-name="QualityMeasure" data-source-line="41" id="ent0027"><rect fill="#D5F5E3" height="35.1563" rx="2.5" ry="2.5" style="stroke:#404040;stroke-width:0.5;" width="146.0586" x="2662" y="474.6094"/><text fill="#000000" font-family="sans-serif" font-size="20" lengthAdjust="spacing" textLength="140.0586" x="2665" y="500.3711">QualityMeasure</text></g><!--reverse link AbstractDistribution to DataDownload--><g class="link" data-entity-1="ent0004" data-entity-2="ent0005" data-link-type="extension" data-source-line="42" id="lnk28"><path codeLine="42" d="M931.5797,527.6974 C932.1497,565.7374 932.59,644.2094 927,724.6094 C922.34,791.6394 910.8,870.8894 905.61,904.5994" fill="none" id="AbstractDistribution-backto-DataDownload" style="stroke:#404040;stroke-width:1.2;"/><polygon fill="none" points="931.31,509.6994,925.5804,527.7872,937.579,527.6075,931.31,509.6994" style="stroke:#404040;stroke-width:1.2;"/></g><!--reverse link AbstractDistribution to WebAPI--><g class="link" data-entity-1="ent0004" data-entity-2="ent0006" data-link-type="extension" data-source-line="43" id="lnk29"><path codeLine="43" d="M938.4899,527.2107 C953.4299,595.2607 1006.31,836.0194 1021.33,904.4094" fill="none" id="AbstractDistribution-backto-WebAPI" style="stroke:#404040;stroke-width:1.2;"/><polygon fill="none" points="934.63,509.6294,932.6294,528.4973,944.3503,525.924,934.63,509.6294" style="stroke:#404040;stroke-width:1.2;"/></g><!--reverse link Agent to Person--><g class="link" data-entity-1="ent0011" data-entity-2="ent0012" data-link-type="extension" data-source-line="44" id="lnk30"><path codeLine="44" d="M718.4108,1386.8481 C719.2108,1455.1581 722.01,1694.3894 722.81,1762.4894" fill="none" id="Agent-backto-Person" style="stroke:#404040;stroke-width:1.2;"/><polygon fill="none" points="718.2,1368.8494,712.4112,1386.9184,724.4104,1386.7779,718.2,1368.8494" style="stroke:#404040;stroke-width:1.2;"/></g><!--reverse link Agent to Organization--><g class="link" data-entity-1="ent0011" data-entity-2="ent0014" data-link-type="extension" data-source-line="45" id="lnk31"><path codeLine="45" d="M709.741,1386.3479 C693.271,1454.6579 635.44,1694.3894 619.01,1762.4894" fill="none" id="Agent-backto-Organization" style="stroke:#404040;stroke-width:1.2;"/><polygon fill="none" points="713.96,1368.8494,703.9081,1384.9416,715.5738,1387.7543,713.96,1368.8494" style="stroke:#404040;stroke-width:1.2;"/></g><!--link Dataset to Agent--><g class="link" data-entity-1="ent0003" data-entity-2="ent0011" data-link-type="dependency" data-source-line="46" id="lnk32"><path codeLine="46" d="M1219.5,68.4494 C1077.36,85.6394 574.18,153.1894 461,260.6094 C383.33,334.3294 303.62,621.0894 331,724.6094 C403.16,997.4394 635.0612,1260.969 698.2412,1329.129" fill="none" id="Dataset-to-Agent" style="stroke:#404040;stroke-width:1.2;"/><polygon fill="#404040" points="702.32,1333.5294,699.1353,1324.2096,698.921,1329.8624,693.2682,1329.6481,702.32,1333.5294" style="stroke:#404040;stroke-width:1.2;"/><text fill="#000000" font-family="sans-serif" font-size="26" lengthAdjust="spacing" textLength="93.9326" x="332" y="718.0996">provider</text><text fill="#000000" font-family="sans-serif" font-size="26" lengthAdjust="spacing" textLength="39.0254" x="654.2743" y="1319.9848">0..*</text></g><!--link Dataset to Agent--><g class="link" data-entity-1="ent0003" data-entity-2="ent0011" data-link-type="dependency" data-source-line="48" id="lnk34"><path codeLine="48" d="M1219.28,68.9094 C1132.09,82.1194 915.85,127.3194 808,260.6094 C685.57,411.9194 739.95,495.9994 720,689.6094 C693.7,944.8294 711.4516,1252.4926 716.4416,1327.4726" fill="none" id="Dataset-to-Agent-1" style="stroke:#404040;stroke-width:1.2;"/><polygon fill="#404040" points="716.84,1333.4594,720.2335,1324.2136,716.508,1328.4704,712.2512,1324.7449,716.84,1333.4594" style="stroke:#404040;stroke-width:1.2;"/><text fill="#000000" font-family="sans-serif" font-size="26" lengthAdjust="spacing" textLength="80.9199" x="721" y="718.0996">creator</text><text fill="#000000" font-family="sans-serif" font-size="26" lengthAdjust="spacing" textLength="39.0254" x="721.5088" y="1319.8969">0..*</text></g><!--link Dataset to Agent--><g class="link" data-entity-1="ent0003" data-entity-2="ent0011" data-link-type="dependency" data-source-line="50" id="lnk36"><path codeLine="50" d="M1219.3,74.6794 C1147,96.8594 988.39,155.1794 902,260.6094 C838.75,337.7994 855.73,377.2094 834,474.6094 C809.6,583.9994 815.7,613.4994 801,724.6094 C769.02,966.2394 730.7205,1254.4117 721.0405,1327.2417" fill="none" id="Dataset-to-Agent-2" style="stroke:#404040;stroke-width:1.2;"/><polygon fill="#404040" points="720.25,1333.1894,725.4009,1324.7948,720.9088,1328.233,717.4707,1323.7408,720.25,1333.1894" style="stroke:#404040;stroke-width:1.2;"/><text fill="#000000" font-family="sans-serif" font-size="26" lengthAdjust="spacing" textLength="105.5107" x="807" y="718.0996">publisher</text><text fill="#000000" font-family="sans-serif" font-size="26" lengthAdjust="spacing" textLength="43.3672" x="755.3562" y="1357.7509">0..1</text></g><!--link Dataset to AbstractDistribution--><g class="link" data-entity-1="ent0003" data-entity-2="ent0004" data-link-type="dependency" data-source-line="47" id="lnk33"><path codeLine="47" d="M1219.43,72.7594 C1145.84,91.9594 984.14,145.8194 918,260.6094 C877.48,330.9294 907.0954,428.6106 922.1154,468.7106" fill="none" id="Dataset-to-AbstractDistribution" style="stroke:#404040;stroke-width:1.2;"/><polygon fill="#404040" points="924.22,474.3294,924.809,464.4981,922.4662,469.6471,917.3173,467.3043,924.22,474.3294" style="stroke:#404040;stroke-width:1.2;"/><text fill="#000000" font-family="sans-serif" font-size="26" lengthAdjust="spacing" textLength="125.7344" x="919" y="288.5996">distribution</text><text fill="#000000" font-family="sans-serif" font-size="26" lengthAdjust="spacing" textLength="39.0254" x="878.438" y="460.7336">0..*</text></g><!--link Dataset to Contributor--><g class="link" data-entity-1="ent0003" data-entity-2="ent0015" data-link-type="dependency" data-source-line="49" id="lnk35"><path codeLine="49" d="M1219.45,67.6694 C1077.29,81.9994 575.44,140.5194 482,260.6094 C377.98,394.2994 452.7228,619.6729 477.1128,683.6529" fill="none" id="Dataset-to-Contributor" style="stroke:#404040;stroke-width:1.2;"/><polygon fill="#404040" points="479.25,689.2594,479.7818,679.4249,477.469,684.5873,472.3065,682.2745,479.25,689.2594" style="stroke:#404040;stroke-width:1.2;"/><text fill="#000000" font-family="sans-serif" font-size="26" lengthAdjust="spacing" textLength="122.8398" x="483" y="288.5996">contributor</text><text fill="#000000" font-family="sans-serif" font-size="26" lengthAdjust="spacing" textLength="39.0254" x="433.8625" y="676.0653">0..*</text></g><!--link Dataset to MonetaryGrant--><g class="link" data-entity-1="ent0003" data-entity-2="ent0020" data-link-type="dependency" data-source-line="51" id="lnk37"><path codeLine="51" d="M1219.1,69.9594 C1093.8,90.1194 696.72,161.0494 623,260.6094 C571.68,329.9194 607.4104,610.5884 617.6904,683.3284" fill="none" id="Dataset-to-MonetaryGrant" style="stroke:#404040;stroke-width:1.2;"/><polygon fill="#404040" points="618.53,689.2694,621.2312,679.7982,617.8303,684.3186,613.3099,680.9177,618.53,689.2694" style="stroke:#404040;stroke-width:1.2;"/><text fill="#000000" font-family="sans-serif" font-size="26" lengthAdjust="spacing" textLength="85.2998" x="624" y="288.5996">funding</text><text fill="#000000" font-family="sans-serif" font-size="26" lengthAdjust="spacing" textLength="39.0254" x="574.1305" y="676.0778">0..*</text></g><!--link Dataset to ProvActivity--><g class="link" data-entity-1="ent0003" data-entity-2="ent0021" data-link-type="dependency" data-source-line="52" id="lnk38"><path codeLine="52" d="M1294.52,68.5094 C1392.38,81.6194 1659.73,128.1294 1832,260.6094 C1842.16,268.4194 1938.7716,417.7548 1972.0316,469.4048" fill="none" id="Dataset-to-ProvActivity" style="stroke:#404040;stroke-width:1.2;"/><polygon fill="#404040" points="1975.28,474.4494,1973.7704,464.7169,1972.573,470.2456,1967.0443,469.0482,1975.28,474.4494" style="stroke:#404040;stroke-width:1.2;"/><text fill="#000000" font-family="sans-serif" font-size="26" lengthAdjust="spacing" textLength="199.4434" x="1857" y="288.5996">wasGeneratedBy</text><text fill="#000000" font-family="sans-serif" font-size="26" lengthAdjust="spacing" textLength="39.0254" x="1928.4801" y="460.8843">0..*</text></g><!--link Dataset to DerivedFrom--><g class="link" data-entity-1="ent0003" data-entity-2="ent0022" data-link-type="dependency" data-source-line="53" id="lnk39"><path codeLine="53" d="M1294.9,68.2494 C1438.51,84.7094 1946.68,149.9494 2058,260.6094 C2088.73,291.1594 2107.3266,420.7356 2113.2866,468.4656" fill="none" id="Dataset-to-DerivedFrom" style="stroke:#404040;stroke-width:1.2;"/><polygon fill="#404040" points="2114.03,474.4194,2116.884,464.9931,2113.4105,469.4579,2108.9457,465.9844,2114.03,474.4194" style="stroke:#404040;stroke-width:1.2;"/><text fill="#000000" font-family="sans-serif" font-size="26" lengthAdjust="spacing" textLength="196.4854" x="2078" y="288.5996">wasDerivedFrom</text><text fill="#000000" font-family="sans-serif" font-size="26" lengthAdjust="spacing" textLength="39.0254" x="2069.5859" y="460.8466">0..*</text></g><!--link Dataset to CatalogRecord--><g class="link" data-entity-1="ent0003" data-entity-2="ent0023" data-link-type="dependency" data-source-line="54" id="lnk40"><path codeLine="54" d="M1243.23,80.6994 C1217.23,113.0194 1161.18,187.6694 1135,260.6094 C1107.58,336.9994 1104.1456,429.5295 1103.9156,468.3395" fill="none" id="Dataset-to-CatalogRecord" style="stroke:#404040;stroke-width:1.2;"/><polygon fill="#404040" points="1103.88,474.3394,1107.9333,465.3632,1103.9096,469.3395,1099.9334,465.3158,1103.88,474.3394" style="stroke:#404040;stroke-width:1.2;"/><text fill="#000000" font-family="sans-serif" font-size="26" lengthAdjust="spacing" textLength="109.8271" x="1136" y="288.5996">subjectOf</text><text fill="#000000" font-family="sans-serif" font-size="26" lengthAdjust="spacing" textLength="14.46" x="1088.0621" y="460.7461">1</text></g><!--link CatalogRecord to Dataset--><g class="link" data-entity-1="ent0023" data-entity-2="ent0003" data-link-type="dependency" data-source-line="69" id="lnk55"><path codeLine="69" d="M1094.06,474.5394 C1072.13,435.7394 1024.05,336.5294 1056,260.6094 C1091.49,176.2694 1177.7539,113.2842 1224.0839,83.8842" fill="none" id="CatalogRecord-to-Dataset" style="stroke:#404040;stroke-width:1.2;"/><polygon fill="#404040" points="1229.15,80.6694,1219.4077,82.1142,1224.9283,83.3484,1223.6941,88.869,1229.15,80.6694" style="stroke:#404040;stroke-width:1.2;"/><text fill="#000000" font-family="sans-serif" font-size="26" lengthAdjust="spacing" textLength="65.0635" x="1057" y="288.5996">about</text><text fill="#000000" font-family="sans-serif" font-size="26" lengthAdjust="spacing" textLength="43.3672" x="1174.1747" y="115.9065">0..1</text></g><!--link Dataset to DefinedTerm--><g class="link" data-entity-1="ent0003" data-entity-2="ent0016" data-link-type="dependency" data-source-line="55" id="lnk41"><path codeLine="55" d="M1256.84,80.6594 C1256.32,118.6094 1254.14,214.7894 1245,294.6094 C1234.01,390.5894 1198.49,414.0994 1213,509.6094 C1237.05,667.8994 1307.9982,843.5752 1331.3982,898.7752" fill="none" id="Dataset-to-DefinedTerm" style="stroke:#404040;stroke-width:1.2;"/><polygon fill="#404040" points="1333.74,904.2994,1333.9101,894.452,1331.7885,899.6959,1326.5446,897.5743,1333.74,904.2994" style="stroke:#404040;stroke-width:1.2;"/><text fill="#000000" font-family="sans-serif" font-size="26" lengthAdjust="spacing" textLength="109.8145" x="1214" y="503.0996">keywords</text><text fill="#000000" font-family="sans-serif" font-size="26" lengthAdjust="spacing" textLength="39.0254" x="1287.9378" y="890.6959">0..*</text></g><!--link Dataset to DefinedTerm--><g class="link" data-entity-1="ent0003" data-entity-2="ent0016" data-link-type="dependency" data-source-line="57" id="lnk43"><path codeLine="57" d="M1260.42,80.8294 C1271.66,136.4594 1307.57,320.5494 1323,474.6094 C1339.74,641.7294 1341.04,839.5294 1341.04,898.4394" fill="none" id="Dataset-to-DefinedTerm-1" style="stroke:#404040;stroke-width:1.2;"/><polygon fill="#404040" points="1341.04,904.4394,1345.04,895.4394,1341.04,899.4394,1337.04,895.4394,1341.04,904.4394" style="stroke:#404040;stroke-width:1.2;"/><text fill="#000000" font-family="sans-serif" font-size="26" lengthAdjust="spacing" textLength="280.376" x="1328" y="503.0996">measurementTechnique</text><text fill="#000000" font-family="sans-serif" font-size="26" lengthAdjust="spacing" textLength="39.0254" x="1346.1022" y="890.8717">0..*</text></g><!--link Dataset to Reference--><g class="link" data-entity-1="ent0003" data-entity-2="ent0019" data-link-type="dependency" data-source-line="56" id="lnk42"><path codeLine="56" d="M1294.6,72.4994 C1378,92.6294 1581.55,150.4194 1714,260.6094 C1789.66,323.5594 1840.2902,427.5289 1858.5802,469.0289" fill="none" id="Dataset-to-Reference" style="stroke:#404040;stroke-width:1.2;"/><polygon fill="#404040" points="1861,474.5194,1861.0306,464.6706,1858.9835,469.944,1853.7101,467.8969,1861,474.5194" style="stroke:#404040;stroke-width:1.2;"/><text fill="#000000" font-family="sans-serif" font-size="26" lengthAdjust="spacing" textLength="80.9326" x="1748" y="288.5996">license</text><text fill="#000000" font-family="sans-serif" font-size="26" lengthAdjust="spacing" textLength="39.0254" x="1815.1773" y="460.9722">0..*</text></g><!--reverse link Dataset to VariableMeasured--><g class="link" data-entity-1="ent0003" data-entity-2="ent0024" data-link-type="composition" data-source-line="58" id="lnk44"><path codeLine="58" d="M1284.0201,88.9752 C1358.2501,157.2852 1628.94,406.3894 1702.94,474.4894" fill="none" id="Dataset-backto-VariableMeasured" style="stroke:#404040;stroke-width:1.2;"/><polygon fill="#404040" points="1275.19,80.8494,1276.8964,87.8557,1284.0201,88.9752,1282.3137,81.9689,1275.19,80.8494" style="stroke:#404040;stroke-width:1.2;"/><text fill="#000000" font-family="sans-serif" font-size="26" lengthAdjust="spacing" textLength="206.667" x="1504" y="288.5996">variableMeasured</text><text fill="#000000" font-family="sans-serif" font-size="26" lengthAdjust="spacing" textLength="39.0254" x="1654.2782" y="460.9346">0..*</text></g><!--reverse link Dataset to SpatialExtent--><g class="link" data-entity-1="ent0003" data-entity-2="ent0025" data-link-type="composition" data-source-line="59" id="lnk45"><path codeLine="59" d="M1306.7193,66.0259 C1474.7693,73.1259 2140.78,110.3394 2275,260.6094 C2303.08,292.0394 2297.2,427.0094 2294.18,474.4994" fill="none" id="Dataset-backto-SpatialExtent" style="stroke:#404040;stroke-width:1.2;"/><polygon fill="#404040" points="1294.73,65.5194,1300.5558,69.7691,1306.7193,66.0259,1300.8935,61.7762,1294.73,65.5194" style="stroke:#404040;stroke-width:1.2;"/><text fill="#000000" font-family="sans-serif" font-size="26" lengthAdjust="spacing" textLength="187.8906" x="2290" y="288.5996">spatialCoverage</text><text fill="#000000" font-family="sans-serif" font-size="26" lengthAdjust="spacing" textLength="39.0254" x="2250.5078" y="460.9471">0..*</text></g><!--reverse link Dataset to TemporalExtent--><g class="link" data-entity-1="ent0003" data-entity-2="ent0026" data-link-type="composition" data-source-line="60" id="lnk46"><path codeLine="60" d="M1306.7797,64.3081 C1494.7497,65.6981 2314.84,81.9194 2481,260.6094 C2509.72,291.4994 2504.78,426.8194 2502.08,474.4494" fill="none" id="Dataset-backto-TemporalExtent" style="stroke:#404040;stroke-width:1.2;"/><polygon fill="#404040" points="1294.78,64.2194,1300.7503,68.2636,1306.7797,64.3081,1300.8094,60.2639,1294.78,64.2194" style="stroke:#404040;stroke-width:1.2;"/><text fill="#000000" font-family="sans-serif" font-size="26" lengthAdjust="spacing" textLength="213.8906" x="2497" y="288.5996">temporalCoverage</text><text fill="#000000" font-family="sans-serif" font-size="26" lengthAdjust="spacing" textLength="39.0254" x="2458.3411" y="460.8843">0..*</text></g><!--reverse link Dataset to QualityMeasure--><g class="link" data-entity-1="ent0003" data-entity-2="ent0027" data-link-type="composition" data-source-line="61" id="lnk47"><path codeLine="61" d="M1306.7962,67.1844 C1525.7062,80.9844 2612.32,154.4394 2714,260.6094 C2770.98,320.0994 2750.17,432.1194 2739.62,474.3894" fill="none" id="Dataset-backto-QualityMeasure" style="stroke:#404040;stroke-width:1.2;"/><polygon fill="#404040" points="1294.82,66.4294,1300.5565,70.7989,1306.7962,67.1844,1301.0598,62.8148,1294.82,66.4294" style="stroke:#404040;stroke-width:1.2;"/><text fill="#000000" font-family="sans-serif" font-size="26" lengthAdjust="spacing" textLength="281.7979" x="2735" y="288.5996">hasQualityMeasurement</text><text fill="#000000" font-family="sans-serif" font-size="26" lengthAdjust="spacing" textLength="39.0254" x="2696.8027" y="460.8089">0..*</text></g><!--link DataDownload to Agent--><g class="link" data-entity-1="ent0005" data-entity-2="ent0011" data-link-type="dependency" data-source-line="62" id="lnk48"><path codeLine="62" d="M898.01,939.6294 C886.25,977.8994 855.21,1075.3894 821,1153.6094 C790.98,1222.2494 750.1266,1294.827 730.7866,1328.227" fill="none" id="DataDownload-to-Agent" style="stroke:#404040;stroke-width:1.2;"/><polygon fill="#404040" points="727.78,1333.4194,735.7514,1327.6352,730.2855,1329.0924,728.8283,1323.6265,727.78,1333.4194" style="stroke:#404040;stroke-width:1.2;"/><text fill="#000000" font-family="sans-serif" font-size="26" lengthAdjust="spacing" textLength="93.9326" x="835" y="1147.5996">provider</text><text fill="#000000" font-family="sans-serif" font-size="26" lengthAdjust="spacing" textLength="39.0254" x="686.2585" y="1319.8466">0..*</text></g><!--link WebAPI to Action--><g class="link" data-entity-1="ent0006" data-entity-2="ent0007" data-link-type="dependency" data-source-line="63" id="lnk49"><path codeLine="63" d="M1022.18,939.8494 C1010.66,1008.1594 968.2774,1259.4729 956.7974,1327.5729" fill="none" id="WebAPI-to-Action" style="stroke:#404040;stroke-width:1.2;"/><polygon fill="#404040" points="955.8,1333.4894,961.2404,1325.2795,956.6312,1328.5589,953.3517,1323.9497,955.8,1333.4894" style="stroke:#404040;stroke-width:1.2;"/><text fill="#000000" font-family="sans-serif" font-size="26" lengthAdjust="spacing" textLength="170.5615" x="993" y="1147.5996">potentialAction</text><text fill="#000000" font-family="sans-serif" font-size="26" lengthAdjust="spacing" textLength="39.0254" x="912.5769" y="1319.9346">0..*</text></g><!--link Action to EntryPoint--><g class="link" data-entity-1="ent0007" data-entity-2="ent0008" data-link-type="dependency" data-source-line="64" id="lnk50"><path codeLine="64" d="M946.18,1368.6894 C932.58,1402.2194 901.7,1480.6794 882,1548.6094 C859.11,1627.5294 841.8518,1718.3141 834.9818,1756.5241" fill="none" id="Action-to-EntryPoint" style="stroke:#404040;stroke-width:1.2;"/><polygon fill="#404040" points="833.92,1762.4294,839.4495,1754.2792,834.8048,1757.5083,831.5758,1752.8636,833.92,1762.4294" style="stroke:#404040;stroke-width:1.2;"/><text fill="#000000" font-family="sans-serif" font-size="26" lengthAdjust="spacing" textLength="66.4854" x="883" y="1576.5996">target</text><text fill="#000000" font-family="sans-serif" font-size="26" lengthAdjust="spacing" textLength="14.46" x="818.8994" y="1748.8592">1</text></g><!--link Action to ActionResult--><g class="link" data-entity-1="ent0007" data-entity-2="ent0009" data-link-type="dependency" data-source-line="65" id="lnk51"><path codeLine="65" d="M953,1368.8494 C953,1437.1594 953,1688.3894 953,1756.4894" fill="none" id="Action-to-ActionResult" style="stroke:#404040;stroke-width:1.2;"/><polygon fill="#404040" points="953,1762.4894,957,1753.4894,953,1757.4894,949,1753.4894,953,1762.4894" style="stroke:#404040;stroke-width:1.2;"/><text fill="#000000" font-family="sans-serif" font-size="26" lengthAdjust="spacing" textLength="63.5781" x="954" y="1576.5996">result</text><text fill="#000000" font-family="sans-serif" font-size="26" lengthAdjust="spacing" textLength="43.3672" x="904.5024" y="1748.9346">0..1</text></g><!--link Action to PropertyValueSpecification--><g class="link" data-entity-1="ent0007" data-entity-2="ent0010" data-link-type="dependency" data-source-line="66" id="lnk52"><path codeLine="66" d="M960.68,1368.8494 C992.04,1437.1594 1107.6069,1688.9364 1138.8669,1757.0364" fill="none" id="Action-to-PropertyValueSpecification" style="stroke:#404040;stroke-width:1.2;"/><polygon fill="#404040" points="1141.37,1762.4894,1141.2507,1752.6412,1139.2841,1757.9453,1133.9801,1755.9787,1141.37,1762.4894" style="stroke:#404040;stroke-width:1.2;"/><text fill="#000000" font-family="sans-serif" font-size="26" lengthAdjust="spacing" textLength="122.8652" x="1058" y="1576.5996">queryInput</text><text fill="#000000" font-family="sans-serif" font-size="26" lengthAdjust="spacing" textLength="39.0254" x="1095.4037" y="1748.9346">0..*</text></g><!--link Contributor to Agent--><g class="link" data-entity-1="ent0015" data-entity-2="ent0011" data-link-type="dependency" data-source-line="67" id="lnk53"><path codeLine="67" d="M484.84,724.7894 C482.63,763.4294 479.88,861.7094 502,939.6094 C548.97,1104.9994 664.3478,1275.1532 702.5178,1328.7132" fill="none" id="Contributor-to-Agent" style="stroke:#404040;stroke-width:1.2;"/><polygon fill="#404040" points="706,1333.5994,704.0342,1323.9487,703.0982,1329.5276,697.5193,1328.5916,706,1333.5994" style="stroke:#404040;stroke-width:1.2;"/><text fill="#000000" font-family="sans-serif" font-size="26" lengthAdjust="spacing" textLength="122.8398" x="503" y="933.0996">contributor</text><text fill="#000000" font-family="sans-serif" font-size="26" lengthAdjust="spacing" textLength="43.3672" x="637.495" y="1359.6467">0..1</text></g><!--link MonetaryGrant to Agent--><g class="link" data-entity-1="ent0020" data-entity-2="ent0011" data-link-type="dependency" data-source-line="68" id="lnk54"><path codeLine="68" d="M620.89,724.7494 C620.82,762.9094 621.78,859.5894 632,939.6094 C651.78,1094.5394 697.2498,1272.2404 711.9698,1327.6604" fill="none" id="MonetaryGrant-to-Agent" style="stroke:#404040;stroke-width:1.2;"/><polygon fill="#404040" points="713.51,1333.4594,715.0656,1323.7341,712.2265,1328.6269,707.3337,1325.7878,713.51,1333.4594" style="stroke:#404040;stroke-width:1.2;"/><text fill="#000000" font-family="sans-serif" font-size="26" lengthAdjust="spacing" textLength="73.7217" x="633" y="933.0996">funder</text><text fill="#000000" font-family="sans-serif" font-size="26" lengthAdjust="spacing" textLength="39.0254" x="668.3318" y="1319.8969">0..*</text></g><!--link CatalogRecord to Agent--><g class="link" data-entity-1="ent0023" data-entity-2="ent0011" data-link-type="dependency" data-source-line="70" id="lnk56"><path codeLine="70" d="M1105.66,509.7994 C1115.17,606.9894 1161.17,1097.6294 1126,1153.6094 C1039.21,1291.7394 830.9964,1334.1782 752.9764,1345.6282" fill="none" id="CatalogRecord-to-Agent" style="stroke:#404040;stroke-width:1.2;"/><polygon fill="#404040" points="747.04,1346.4994,756.5254,1349.1502,751.987,1345.7734,755.3638,1341.2349,747.04,1346.4994" style="stroke:#404040;stroke-width:1.2;"/><text fill="#000000" font-family="sans-serif" font-size="26" lengthAdjust="spacing" textLength="121.3926" x="1138" y="933.0996">maintainer</text><text fill="#000000" font-family="sans-serif" font-size="26" lengthAdjust="spacing" textLength="43.3672" x="755.4191" y="1375.4214">0..1</text></g><!--link VariableMeasured to DefinedTerm--><g class="link" data-entity-1="ent0024" data-entity-2="ent0016" data-link-type="dependency" data-source-line="71" id="lnk57"><path codeLine="71" d="M1706.34,509.6294 C1645.91,577.6794 1420.5339,831.5329 1359.8039,899.9229" fill="none" id="VariableMeasured-to-DefinedTerm" style="stroke:#404040;stroke-width:1.2;"/><polygon fill="#404040" points="1355.82,904.4094,1364.7869,900.3357,1359.14,900.6707,1358.805,895.0237,1355.82,904.4094" style="stroke:#404040;stroke-width:1.2;"/><text fill="#000000" font-family="sans-serif" font-size="26" lengthAdjust="spacing" textLength="280.376" x="1544" y="718.0996">measurementTechnique</text><text fill="#000000" font-family="sans-serif" font-size="26" lengthAdjust="spacing" textLength="43.3672" x="1365.2258" y="890.8341">0..1</text></g><?plantuml-src XLR9Rjim4BthAuZa5Y11TXH2KS1nx22786bYf6UQ6jji958TKdRT1UX7z0lx9Hs9aaLHIWB30EVnpS9PI5bfKs1ZZN0jZT1hm2txz-SlArTh2Pje9HDWGg98mQqXo-sMPP3D0KraNgJAEVACcHLFz4Qg9Llmr82tCqBKczbAYXS5nh2JerDl4xbwCP2piyjZ3rKwWH8zEVV011QyIErKA_iaVm0xlVGsHSh9zi-8ENTZdMfa--V7vO_0Auq9O8ZwfaZHMfJpma8B7qU_euZFZKKkRErZRwopN1jfuG7rGgQmnxXX8SZsfvFfP3o9QgLhRha1Mt7hzOuIEXZLCfN4HIIrgXI7DjZ-zULaDFtWExhM6vLgdkoyDK0OrHUOZnvkAvfR4c4yFHjF6y98jCx5aBk9ihXzq5AvexLYI7JgZs2eX9uz1uHkAOaveDq-yxI0fno4N4Z1Tw6ylhtpsilf4keGgrKOtGCrSsEyMeQ4CVK4cMjFwWCX-HwNNCaVRS0-C6IvAgR6dU5QxjKM5b91CWFCN6bRcQWNqul9MKEzJUYKb1PmHbknLvSaaMLOF6sowhBKWqF5HrW0WXAk_tTIIBlJ2Yp7xGrDkijS1-aL0lMwx8orh0FnWTvG0Ser95FKJJvsSY_BD0MfNZw2e9l0vTb7GilF72MVft07t1G8JYC4mvm_vLHWdaw-swRNEaX8dz5Lgh73xqAXmkU2fvI5sdsbq8Ls2eCNnSTVXuUTs-0DchiD8ZSh5UB6maVyfewQE-tmy1FREpuwEjYh1orcELMGNWuSv0n54BF44zyoBH0upSaGnHyZ8hPIZtpYXLhCKsbMmx5s-pPcYq8bzDuDKJjD6xCDDpUW0Bc5v6exfE1tRiNtW2wVekrsRinCCVyAmjulXYstTqJCNc2x8IKpn6n7E6Qf5A3e5N_NOEOwBwFypK2ibFnMj5e7r2MrLczsOhOEe26rxW3HKPqyBhzF-7BGKp13CRCry9PIC4SnMt7JnSeJHfstzArMhrzJdoBgtivr6HSTmY5HlT4Krtj1ANIEIx0TIjsm_kCPCwmM8SyrucilPSoeLBYzLNbX8tzQ1kR27v_k60maePmBIa6tIpsZJVfZnkUwzFqQiJ6OSSe6_Sbehuryk-ytvdy0?></g></svg>