<svg xmlns="http://www.w3.org/2000/svg" xmlns:xlink="http://www.w3.org/1999/xlink" contentStyleType="text/css" data-diagram-type="CLASS" height="1824px" preserveAspectRatio="none" style="width:3108px;height:1824px;background:#FFFFFF;" version="1.1" viewBox="0 0 3108 1824" width="3108px" zoomAndPan="magnify"><?plantuml 1.2026.3?><defs/><g><g class="title" data-source-line="1"><text fill="#000000" font-family="sans-serif" font-size="14" font-weight="700" lengthAdjust="spacing" textLength="180.9678" x="1460.415" y="24.5332">CoreDiscovery &#8212; overview</text></g><!--class CompositeProfile--><g class="entity" data-qualified-name="CompositeProfile" data-source-line="16" id="ent0002"><rect fill="#FEFECE" height="35.1563" rx="2.5" ry="2.5" style="stroke:#404040;stroke-width:0.5;" width="158.2852" x="7" y="58.1736"/><text fill="#000000" font-family="sans-serif" font-size="20" font-style="italic" lengthAdjust="spacing" textLength="152.2852" x="10" y="83.9354">CompositeProfile</text></g><!--class Dataset--><g class="entity" data-qualified-name="Dataset" data-source-line="17" id="ent0003"><rect fill="#FEFECE" height="35.1563" rx="2.5" ry="2.5" style="stroke:#404040;stroke-width:0.5;" width="74.9258" x="1421.5" y="58.1736"/><text fill="#000000" font-family="sans-serif" font-size="20" lengthAdjust="spacing" textLength="68.9258" x="1424.5" y="83.9354">Dataset</text></g><!--class AbstractDistribution--><g class="entity" data-qualified-name="AbstractDistribution" data-source-line="18" id="ent0004"><rect fill="#D6EAF8" height="35.1563" rx="2.5" ry="2.5" style="stroke:#404040;stroke-width:0.5;" width="179.3984" x="324.5" y="487.1736"/><text fill="#000000" font-family="sans-serif" font-size="20" font-style="italic" lengthAdjust="spacing" textLength="173.3984" x="327.5" y="512.9354">AbstractDistribution</text></g><!--class DataDownload--><g class="entity" data-qualified-name="DataDownload" data-source-line="19" id="ent0005"><rect fill="#FEFECE" height="35.1563" rx="2.5" ry="2.5" style="stroke:#404040;stroke-width:0.5;" width="137.1914" x="361.5" y="917.1736"/><text fill="#000000" font-family="sans-serif" font-size="20" lengthAdjust="spacing" textLength="131.1914" x="364.5" y="942.9354">DataDownload</text></g><!--class WebAPI--><g class="entity" data-qualified-name="WebAPI" data-source-line="20" id="ent0006"><rect fill="#FCF3CF" height="35.1563" rx="2.5" ry="2.5" style="stroke:#404040;stroke-width:0.5;" width="79.3594" x="234.5" y="917.1736"/><text fill="#000000" font-family="sans-serif" font-size="20" lengthAdjust="spacing" textLength="73.3594" x="237.5" y="942.9354">WebAPI</text></g><!--class Action--><g class="entity" data-qualified-name="Action" data-source-line="21" id="ent0007"><rect fill="#D6EAF8" height="35.1563" rx="2.5" ry="2.5" style="stroke:#404040;stroke-width:0.5;" width="61.5859" x="224" y="1346.1736"/><text fill="#000000" font-family="sans-serif" font-size="20" lengthAdjust="spacing" textLength="55.5859" x="227" y="1371.9354">Action</text></g><!--class EntryPoint--><g class="entity" data-qualified-name="EntryPoint" data-source-line="22" id="ent0008"><rect fill="#D6EAF8" height="35.1563" rx="2.5" ry="2.5" style="stroke:#404040;stroke-width:0.5;" width="98.2656" x="84" y="1775.1736"/><text fill="#000000" font-family="sans-serif" font-size="20" lengthAdjust="spacing" textLength="92.2656" x="87" y="1800.9354">EntryPoint</text></g><!--class ActionResult--><g class="entity" data-qualified-name="ActionResult" data-source-line="23" id="ent0009"><rect fill="#FCF3CF" height="35.1563" rx="2.5" ry="2.5" style="stroke:#404040;stroke-width:0.5;" width="118.2754" x="196" y="1775.1736"/><text fill="#000000" font-family="sans-serif" font-size="20" lengthAdjust="spacing" textLength="112.2754" x="199" y="1800.9354">ActionResult</text></g><!--class PropertyValueSpecification--><g class="entity" data-qualified-name="PropertyValueSpecification" data-source-line="24" id="ent0010"><rect fill="#D6EAF8" height="35.1563" rx="2.5" ry="2.5" style="stroke:#404040;stroke-width:0.5;" width="246.1367" x="328" y="1775.1736"/><text fill="#000000" font-family="sans-serif" font-size="20" lengthAdjust="spacing" textLength="240.1367" x="331" y="1800.9354">PropertyValueSpecification</text></g><!--class Agent--><g class="entity" data-qualified-name="Agent" data-source-line="25" id="ent0011"><rect fill="#D6EAF8" height="35.1563" rx="2.5" ry="2.5" style="stroke:#404040;stroke-width:0.5;" width="58.2656" x="740" y="1346.1736"/><text fill="#000000" font-family="sans-serif" font-size="20" font-style="italic" lengthAdjust="spacing" textLength="52.2656" x="743" y="1371.9354">Agent</text></g><!--class Person--><g class="entity" data-qualified-name="Person" data-source-line="26" id="ent0012"><rect fill="#D6EAF8" height="35.1563" rx="2.5" ry="2.5" style="stroke:#404040;stroke-width:0.5;" width="69.3691" x="788.5" y="1775.1736"/><text fill="#000000" font-family="sans-serif" font-size="20" lengthAdjust="spacing" textLength="63.3691" x="791.5" y="1800.9354">Person</text></g><!--class ContactPoint--><g class="entity" data-qualified-name="ContactPoint" data-source-line="27" id="ent0013"><rect fill="#D6EAF8" height="35.1563" rx="2.5" ry="2.5" style="stroke:#404040;stroke-width:0.5;" width="120.5117" x="179.5" y="58.1736"/><text fill="#000000" font-family="sans-serif" font-size="20" lengthAdjust="spacing" textLength="114.5117" x="182.5" y="83.9354">ContactPoint</text></g><!--class Organization--><g class="entity" data-qualified-name="Organization" data-source-line="28" id="ent0014"><rect fill="#D6EAF8" height="35.1563" rx="2.5" ry="2.5" style="stroke:#404040;stroke-width:0.5;" width="119.3984" x="655.5" y="1775.1736"/><text fill="#000000" font-family="sans-serif" font-size="20" lengthAdjust="spacing" textLength="113.3984" x="658.5" y="1800.9354">Organization</text></g><!--class Contributor--><g class="entity" data-qualified-name="Contributor" data-source-line="29" id="ent0015"><rect fill="#D6EAF8" height="35.1563" rx="2.5" ry="2.5" style="stroke:#404040;stroke-width:0.5;" width="104.9355" x="881.5" y="702.1736"/><text fill="#000000" font-family="sans-serif" font-size="20" lengthAdjust="spacing" textLength="98.9355" x="884.5" y="727.9354">Contributor</text></g><!--class DefinedTerm--><g class="entity" data-qualified-name="DefinedTerm" data-source-line="30" id="ent0016"><rect fill="#D5F5E3" height="35.1563" rx="2.5" ry="2.5" style="stroke:#404040;stroke-width:0.5;" width="121.5957" x="1398" y="917.1736"/><text fill="#000000" font-family="sans-serif" font-size="20" lengthAdjust="spacing" textLength="115.5957" x="1401" y="942.9354">DefinedTerm</text></g><!--class Identifier--><g class="entity" data-qualified-name="Identifier" data-source-line="31" id="ent0017"><rect fill="#D6EAF8" height="35.1563" rx="2.5" ry="2.5" style="stroke:#404040;stroke-width:0.5;" width="82.709" x="44.5" y="487.1736"/><text fill="#000000" font-family="sans-serif" font-size="20" lengthAdjust="spacing" textLength="76.709" x="47.5" y="512.9354">Identifier</text></g><!--class AdditionalProperty--><g class="entity" data-qualified-name="AdditionalProperty" data-source-line="32" id="ent0018"><rect fill="#D6EAF8" height="35.1563" rx="2.5" ry="2.5" style="stroke:#404040;stroke-width:0.5;" width="169.4277" x="141.5" y="487.1736"/><text fill="#000000" font-family="sans-serif" font-size="20" lengthAdjust="spacing" textLength="163.4277" x="144.5" y="512.9354">AdditionalProperty</text></g><!--class Reference--><g class="entity" data-qualified-name="Reference" data-source-line="33" id="ent0019"><rect fill="#D6EAF8" height="35.1563" rx="2.5" ry="2.5" style="stroke:#404040;stroke-width:0.5;" width="98.2754" x="1333" y="487.1736"/><text fill="#000000" font-family="sans-serif" font-size="20" lengthAdjust="spacing" textLength="92.2754" x="1336" y="512.9354">Reference</text></g><!--class MonetaryGrant--><g class="entity" data-qualified-name="MonetaryGrant" data-source-line="34" id="ent0020"><rect fill="#D6EAF8" height="35.1563" rx="2.5" ry="2.5" style="stroke:#404040;stroke-width:0.5;" width="139.3887" x="991.5" y="702.1736"/><text fill="#000000" font-family="sans-serif" font-size="20" lengthAdjust="spacing" textLength="133.3887" x="994.5" y="727.9354">MonetaryGrant</text></g><!--class ProvActivity--><g class="entity" data-qualified-name="ProvActivity" data-source-line="35" id="ent0021"><rect fill="#FEFECE" height="35.1563" rx="2.5" ry="2.5" style="stroke:#404040;stroke-width:0.5;" width="110.4629" x="1584" y="487.1736"/><text fill="#000000" font-family="sans-serif" font-size="20" lengthAdjust="spacing" textLength="104.4629" x="1587" y="512.9354">ProvActivity</text></g><!--class DerivedFrom--><g class="entity" data-qualified-name="DerivedFrom" data-source-line="36" id="ent0022"><rect fill="#D6EAF8" height="35.1563" rx="2.5" ry="2.5" style="stroke:#404040;stroke-width:0.5;" width="121.5762" x="1708" y="487.1736"/><text fill="#000000" font-family="sans-serif" font-size="20" lengthAdjust="spacing" textLength="115.5762" x="1711" y="512.9354">DerivedFrom</text></g><!--class CatalogRecord--><g class="entity" data-qualified-name="CatalogRecord" data-source-line="37" id="ent0023"><rect fill="#FEFECE" height="35.1563" rx="2.5" ry="2.5" style="stroke:#404040;stroke-width:0.5;" width="139.4082" x="2080.5" y="487.1736"/><text fill="#000000" font-family="sans-serif" font-size="20" lengthAdjust="spacing" textLength="133.4082" x="2083.5" y="512.9354">CatalogRecord</text></g><!--class VariableMeasured--><g class="entity" data-qualified-name="VariableMeasured" data-source-line="38" id="ent0024"><rect fill="#D5F5E3" height="35.1563" rx="2.5" ry="2.5" style="stroke:#404040;stroke-width:0.5;" width="168.3145" x="1844" y="487.1736"/><text fill="#000000" font-family="sans-serif" font-size="20" lengthAdjust="spacing" textLength="162.3145" x="1847" y="512.9354">VariableMeasured</text></g><!--class SpatialExtent--><g class="entity" data-qualified-name="SpatialExtent" data-source-line="39" id="ent0025"><rect fill="#D5F5E3" height="35.1563" rx="2.5" ry="2.5" style="stroke:#404040;stroke-width:0.5;" width="123.8516" x="2304" y="487.1736"/><text fill="#000000" font-family="sans-serif" font-size="20" lengthAdjust="spacing" textLength="117.8516" x="2307" y="512.9354">SpatialExtent</text></g><!--class TemporalExtent--><g class="entity" data-qualified-name="TemporalExtent" data-source-line="40" id="ent0026"><rect fill="#D5F5E3" height="35.1563" rx="2.5" ry="2.5" style="stroke:#404040;stroke-width:0.5;" width="147.1719" x="2500.5" y="487.1736"/><text fill="#000000" font-family="sans-serif" font-size="20" lengthAdjust="spacing" textLength="141.1719" x="2503.5" y="512.9354">TemporalExtent</text></g><!--class QualityMeasure--><g class="entity" data-qualified-name="QualityMeasure" data-source-line="41" id="ent0027"><rect fill="#D5F5E3" height="35.1563" rx="2.5" ry="2.5" style="stroke:#404040;stroke-width:0.5;" width="146.0586" x="2735" y="487.1736"/><text fill="#000000" font-family="sans-serif" font-size="20" lengthAdjust="spacing" textLength="140.0586" x="2738" y="512.9354">QualityMeasure</text></g><!--reverse link AbstractDistribution to DataDownload--><g class="link" data-entity-1="ent0004" data-entity-2="ent0005" data-link-type="extension" data-source-line="42" id="lnk28"><path codeLine="42" d="M415.2914,540.1811 C417.8314,608.2311 426.82,848.5836 429.38,916.9736" fill="none" id="AbstractDistribution-backto-DataDownload" style="stroke:#404040;stroke-width:1.2;"/><polygon fill="none" points="414.62,522.1936,409.2956,540.4049,421.2872,539.9573,414.62,522.1936" style="stroke:#404040;stroke-width:1.2;"/></g><!--reverse link AbstractDistribution to WebAPI--><g class="link" data-entity-1="ent0004" data-entity-2="ent0006" data-link-type="extension" data-source-line="43" id="lnk29"><path codeLine="43" d="M403.0038,539.3016 C380.7438,607.3516 301.83,848.5836 279.46,916.9736" fill="none" id="AbstractDistribution-backto-WebAPI" style="stroke:#404040;stroke-width:1.2;"/><polygon fill="none" points="408.6,522.1936,397.3011,537.4362,408.7064,541.167,408.6,522.1936" style="stroke:#404040;stroke-width:1.2;"/></g><!--reverse link Agent to Person--><g class="link" data-entity-1="ent0011" data-entity-2="ent0012" data-link-type="extension" data-source-line="44" id="lnk30"><path codeLine="44" d="M773.3787,1399.2714 C782.0187,1467.5814 812.29,1706.9536 820.9,1775.0536" fill="none" id="Agent-backto-Person" style="stroke:#404040;stroke-width:1.2;"/><polygon fill="none" points="771.12,1381.4136,767.4261,1400.0243,779.3313,1398.5185,771.12,1381.4136" style="stroke:#404040;stroke-width:1.2;"/></g><!--reverse link Agent to Organization--><g class="link" data-entity-1="ent0011" data-entity-2="ent0014" data-link-type="extension" data-source-line="45" id="lnk31"><path codeLine="45" d="M764.6213,1399.2714 C755.9813,1467.5814 725.71,1706.9536 717.1,1775.0536" fill="none" id="Agent-backto-Organization" style="stroke:#404040;stroke-width:1.2;"/><polygon fill="none" points="766.88,1381.4136,758.6687,1398.5185,770.5739,1400.0243,766.88,1381.4136" style="stroke:#404040;stroke-width:1.2;"/></g><!--link Dataset to Agent--><g class="link" data-entity-1="ent0003" data-entity-2="ent0011" data-link-type="dependency" data-source-line="46" id="lnk32"><path codeLine="46" d="M1421.49,80.7036 C1278.19,96.8436 767.75,161.4236 657,273.1736 C519.12,412.3036 578.6,507.6036 556,702.1736 C535.93,874.9736 542.54,875.0836 657,1166.1736 C684.88,1237.0636 731.4191,1308.4206 753.9791,1341.2106" fill="none" id="Dataset-to-Agent" style="stroke:#404040;stroke-width:1.2;"/><polygon fill="#404040" points="757.38,1346.1536,755.574,1336.4718,754.5459,1342.0344,748.9833,1341.0063,757.38,1346.1536" style="stroke:#404040;stroke-width:1.2;"/><text fill="#000000" font-family="sans-serif" font-size="26" lengthAdjust="spacing" textLength="93.9326" x="557" y="730.6639">provider</text><text fill="#000000" font-family="sans-serif" font-size="26" lengthAdjust="spacing" textLength="39.0254" x="710.3747" y="1332.6244">0..*</text></g><!--link Dataset to Agent--><g class="link" data-entity-1="ent0003" data-entity-2="ent0011" data-link-type="dependency" data-source-line="48" id="lnk34"><path codeLine="48" d="M1421.2,82.0436 C1289.15,101.5736 851.36,172.9436 758,273.1736 C625.34,415.6036 689.66,508.5336 670,702.1736 C643.8,960.2836 737.1591,1266.0728 761.5691,1340.4528" fill="none" id="Dataset-to-Agent-1" style="stroke:#404040;stroke-width:1.2;"/><polygon fill="#404040" points="763.44,1346.1536,764.4342,1336.3551,761.8809,1341.4029,756.8331,1338.8496,763.44,1346.1536" style="stroke:#404040;stroke-width:1.2;"/><text fill="#000000" font-family="sans-serif" font-size="26" lengthAdjust="spacing" textLength="80.9199" x="671" y="730.6639">creator</text><text fill="#000000" font-family="sans-serif" font-size="26" lengthAdjust="spacing" textLength="39.0254" x="766.9813" y="1332.6244">0..*</text></g><!--link Dataset to Agent--><g class="link" data-entity-1="ent0003" data-entity-2="ent0011" data-link-type="dependency" data-source-line="50" id="lnk36"><path codeLine="50" d="M1421.28,76.1236 C1312.38,76.7536 995.41,94.5336 840,273.1736 C713.06,419.0936 783.28,509.4536 767,702.1736 C745.4,957.8436 762.707,1265.1659 767.497,1340.0559" fill="none" id="Dataset-to-Agent-2" style="stroke:#404040;stroke-width:1.2;"/><polygon fill="#404040" points="767.88,1346.0436,771.2974,1336.8067,767.5608,1341.0538,763.3137,1337.3173,767.88,1346.0436" style="stroke:#404040;stroke-width:1.2;"/><text fill="#000000" font-family="sans-serif" font-size="26" lengthAdjust="spacing" textLength="105.5107" x="768" y="730.6639">publisher</text><text fill="#000000" font-family="sans-serif" font-size="26" lengthAdjust="spacing" textLength="43.3672" x="687.6408" y="1370.7955">0..1</text></g><!--link Dataset to AbstractDistribution--><g class="link" data-entity-1="ent0003" data-entity-2="ent0004" data-link-type="dependency" data-source-line="47" id="lnk33"><path codeLine="47" d="M1421.25,77.6736 C1249.99,83.0536 548.64,114.6136 416,273.1736 C363.49,335.9436 391.656,439.8373 405.886,481.3873" fill="none" id="Dataset-to-AbstractDistribution" style="stroke:#404040;stroke-width:1.2;"/><polygon fill="#404040" points="407.83,487.0636,408.6982,477.2531,406.21,482.3334,401.1297,479.8452,407.83,487.0636" style="stroke:#404040;stroke-width:1.2;"/><text fill="#000000" font-family="sans-serif" font-size="26" lengthAdjust="spacing" textLength="125.7344" x="417" y="301.1639">distribution</text><text fill="#000000" font-family="sans-serif" font-size="26" lengthAdjust="spacing" textLength="39.0254" x="362.2043" y="473.5114">0..*</text></g><!--link Dataset to Contributor--><g class="link" data-entity-1="ent0003" data-entity-2="ent0015" data-link-type="dependency" data-source-line="49" id="lnk35"><path codeLine="49" d="M1421.47,83.1436 C1301.12,104.7436 928.7,178.3336 860,273.1736 C759.27,412.2236 881.9053,634.2776 920.3653,697.0476" fill="none" id="Dataset-to-Contributor" style="stroke:#404040;stroke-width:1.2;"/><polygon fill="#404040" points="923.5,702.1636,922.2087,692.3998,920.8878,697.9003,915.3873,696.5794,923.5,702.1636" style="stroke:#404040;stroke-width:1.2;"/><text fill="#000000" font-family="sans-serif" font-size="26" lengthAdjust="spacing" textLength="122.8398" x="861" y="301.1639">contributor</text><text fill="#000000" font-family="sans-serif" font-size="26" lengthAdjust="spacing" textLength="39.0254" x="876.824" y="688.637">0..*</text></g><!--link Dataset to MonetaryGrant--><g class="link" data-entity-1="ent0003" data-entity-2="ent0020" data-link-type="dependency" data-source-line="51" id="lnk37"><path codeLine="51" d="M1421.5,79.5836 C1330.7,88.8936 1099.42,126.6236 1003,273.1736 C909.33,415.5436 1014.9579,634.1449 1048.7479,696.6849" fill="none" id="Dataset-to-MonetaryGrant" style="stroke:#404040;stroke-width:1.2;"/><polygon fill="#404040" points="1051.6,701.9636,1050.841,692.1441,1049.2233,697.5647,1043.8027,695.9469,1051.6,701.9636" style="stroke:#404040;stroke-width:1.2;"/><text fill="#000000" font-family="sans-serif" font-size="26" lengthAdjust="spacing" textLength="85.2998" x="1004" y="301.1639">funding</text><text fill="#000000" font-family="sans-serif" font-size="26" lengthAdjust="spacing" textLength="39.0254" x="1005.1478" y="688.3858">0..*</text></g><!--link Dataset to ProvActivity--><g class="link" data-entity-1="ent0003" data-entity-2="ent0021" data-link-type="dependency" data-source-line="52" id="lnk38"><path codeLine="52" d="M1458.18,93.3436 C1456.87,132.3636 1457.09,232.0136 1488,307.1736 C1519.34,383.3736 1583.9676,451.3623 1616.7176,482.8923" fill="none" id="Dataset-to-ProvActivity" style="stroke:#404040;stroke-width:1.2;"/><polygon fill="#404040" points="1621.04,487.0536,1617.3307,477.93,1617.438,483.5858,1611.7822,483.6932,1621.04,487.0536" style="stroke:#404040;stroke-width:1.2;"/><text fill="#000000" font-family="sans-serif" font-size="26" lengthAdjust="spacing" textLength="199.4434" x="1489" y="301.1639">wasGeneratedBy</text><text fill="#000000" font-family="sans-serif" font-size="26" lengthAdjust="spacing" textLength="39.0254" x="1572.3848" y="473.4988">0..*</text></g><!--link Dataset to DerivedFrom--><g class="link" data-entity-1="ent0003" data-entity-2="ent0022" data-link-type="dependency" data-source-line="53" id="lnk39"><path codeLine="53" d="M1486.36,93.2136 C1533.93,123.2936 1632.11,191.4436 1688,273.1736 C1713.02,309.7636 1749.5516,434.4688 1762.7116,481.1388" fill="none" id="Dataset-to-DerivedFrom" style="stroke:#404040;stroke-width:1.2;"/><polygon fill="#404040" points="1764.34,486.9136,1765.7473,477.1658,1762.983,482.1013,1758.0476,479.337,1764.34,486.9136" style="stroke:#404040;stroke-width:1.2;"/><text fill="#000000" font-family="sans-serif" font-size="26" lengthAdjust="spacing" textLength="196.4854" x="1705" y="301.1639">wasDerivedFrom</text><text fill="#000000" font-family="sans-serif" font-size="26" lengthAdjust="spacing" textLength="39.0254" x="1719.2066" y="473.3229">0..*</text></g><!--link Dataset to CatalogRecord--><g class="link" data-entity-1="ent0003" data-entity-2="ent0023" data-link-type="dependency" data-source-line="54" id="lnk40"><path codeLine="54" d="M1496.74,80.4636 C1637.29,95.4336 2126.87,155.4436 2218,273.1736 C2269.97,340.3136 2200.0879,441.6702 2167.6979,482.3402" fill="none" id="Dataset-to-CatalogRecord" style="stroke:#404040;stroke-width:1.2;"/><polygon fill="#404040" points="2163.96,487.0336,2172.6958,482.4854,2167.0749,483.1225,2166.4379,477.5016,2163.96,487.0336" style="stroke:#404040;stroke-width:1.2;"/><text fill="#000000" font-family="sans-serif" font-size="26" lengthAdjust="spacing" textLength="109.8271" x="2235" y="301.1639">subjectOf</text><text fill="#000000" font-family="sans-serif" font-size="26" lengthAdjust="spacing" textLength="14.46" x="2151.7501" y="473.4737">1</text></g><!--link CatalogRecord to Dataset--><g class="link" data-entity-1="ent0023" data-entity-2="ent0003" data-link-type="dependency" data-source-line="69" id="lnk55"><path codeLine="69" d="M2151.06,486.8536 C2153.69,439.3936 2158.51,305.8036 2132,273.1736 C2049.01,171.0336 1631.9349,102.115 1502.5749,82.905" fill="none" id="CatalogRecord-to-Dataset" style="stroke:#404040;stroke-width:1.2;"/><polygon fill="#404040" points="1496.64,82.0236,1504.9548,87.3023,1501.5858,82.7581,1506.1299,79.389,1496.64,82.0236" style="stroke:#404040;stroke-width:1.2;"/><text fill="#000000" font-family="sans-serif" font-size="26" lengthAdjust="spacing" textLength="65.0635" x="2146" y="301.1639">about</text><text fill="#000000" font-family="sans-serif" font-size="26" lengthAdjust="spacing" textLength="43.3672" x="1504.2456" y="75.8125">0..1</text></g><!--link Dataset to DefinedTerm--><g class="link" data-entity-1="ent0003" data-entity-2="ent0016" data-link-type="dependency" data-source-line="55" id="lnk41"><path codeLine="55" d="M1459,93.4036 C1459,202.1836 1459,801.7336 1459,910.8336" fill="none" id="Dataset-to-DefinedTerm" style="stroke:#404040;stroke-width:1.2;"/><polygon fill="#404040" points="1459,916.8336,1463,907.8336,1459,911.8336,1455,907.8336,1459,916.8336" style="stroke:#404040;stroke-width:1.2;"/><text fill="#000000" font-family="sans-serif" font-size="26" lengthAdjust="spacing" textLength="109.8145" x="1460" y="515.6639">keywords</text><text fill="#000000" font-family="sans-serif" font-size="26" lengthAdjust="spacing" textLength="39.0254" x="1415.2992" y="903.642">0..*</text></g><!--link Dataset to DefinedTerm--><g class="link" data-entity-1="ent0003" data-entity-2="ent0016" data-link-type="dependency" data-source-line="57" id="lnk43"><path codeLine="57" d="M1421.31,92.2036 C1303.82,143.1436 957.2,313.8636 1044,522.1736 C1125.66,718.1536 1345.9641,865.5651 1425.5841,914.0051" fill="none" id="Dataset-to-DefinedTerm-1" style="stroke:#404040;stroke-width:1.2;"/><polygon fill="#404040" points="1430.71,917.1236,1425.1002,909.0286,1426.4384,914.5249,1420.9421,915.8631,1430.71,917.1236" style="stroke:#404040;stroke-width:1.2;"/><text fill="#000000" font-family="sans-serif" font-size="26" lengthAdjust="spacing" textLength="280.376" x="1045" y="515.6639">measurementTechnique</text><text fill="#000000" font-family="sans-serif" font-size="26" lengthAdjust="spacing" textLength="39.0254" x="1379.5189" y="903.5868">0..*</text></g><!--link Dataset to Reference--><g class="link" data-entity-1="ent0003" data-entity-2="ent0019" data-link-type="dependency" data-source-line="56" id="lnk42"><path codeLine="56" d="M1447.94,93.3536 C1426.95,126.1136 1382.01,201.9136 1366,273.1736 C1348.37,351.6436 1366.7398,442.7666 1376.1498,481.1066" fill="none" id="Dataset-to-Reference" style="stroke:#404040;stroke-width:1.2;"/><polygon fill="#404040" points="1377.58,486.9336,1379.3195,477.2396,1376.3882,482.0778,1371.55,479.1465,1377.58,486.9336" style="stroke:#404040;stroke-width:1.2;"/><text fill="#000000" font-family="sans-serif" font-size="26" lengthAdjust="spacing" textLength="80.9326" x="1367" y="301.1639">license</text><text fill="#000000" font-family="sans-serif" font-size="26" lengthAdjust="spacing" textLength="39.0254" x="1332.4185" y="473.3481">0..*</text></g><!--reverse link Dataset to VariableMeasured--><g class="link" data-entity-1="ent0003" data-entity-2="ent0024" data-link-type="composition" data-source-line="58" id="lnk44"><path codeLine="58" d="M1508.6555,82.3241 C1596.8655,94.0441 1804.63,134.8336 1905,273.1736 C1953.06,339.4136 1939.25,445.9936 1931.56,486.9236" fill="none" id="Dataset-backto-VariableMeasured" style="stroke:#404040;stroke-width:1.2;"/><polygon fill="#404040" points="1496.76,80.7436,1502.1809,85.499,1508.6555,82.3241,1503.2346,77.5687,1496.76,80.7436" style="stroke:#404040;stroke-width:1.2;"/><text fill="#000000" font-family="sans-serif" font-size="26" lengthAdjust="spacing" textLength="206.667" x="1924" y="301.1639">variableMeasured</text><text fill="#000000" font-family="sans-serif" font-size="26" lengthAdjust="spacing" textLength="39.0254" x="1888.4383" y="473.3355">0..*</text></g><!--reverse link Dataset to SpatialExtent--><g class="link" data-entity-1="ent0003" data-entity-2="ent0025" data-link-type="composition" data-source-line="59" id="lnk45"><path codeLine="59" d="M1508.5385,80.0724 C1662.8285,91.2724 2233.09,140.9836 2348,273.1736 C2375.65,304.9836 2370.05,439.7136 2367.14,487.1036" fill="none" id="Dataset-backto-SpatialExtent" style="stroke:#404040;stroke-width:1.2;"/><polygon fill="#404040" points="1496.57,79.2036,1502.2647,83.6275,1508.5385,80.0724,1502.8439,75.6485,1496.57,79.2036" style="stroke:#404040;stroke-width:1.2;"/><text fill="#000000" font-family="sans-serif" font-size="26" lengthAdjust="spacing" textLength="187.8906" x="2363" y="301.1639">spatialCoverage</text><text fill="#000000" font-family="sans-serif" font-size="26" lengthAdjust="spacing" textLength="39.0254" x="2323.4575" y="473.5616">0..*</text></g><!--reverse link Dataset to TemporalExtent--><g class="link" data-entity-1="ent0003" data-entity-2="ent0026" data-link-type="composition" data-source-line="60" id="lnk46"><path codeLine="60" d="M1508.5353,77.891 C1683.8353,82.821 2407.42,112.6136 2554,273.1736 C2609.52,333.9836 2588.95,445.2136 2578.55,487.1136" fill="none" id="Dataset-backto-TemporalExtent" style="stroke:#404040;stroke-width:1.2;"/><polygon fill="#404040" points="1496.54,77.5536,1502.4252,81.7207,1508.5353,77.891,1502.6501,73.7239,1496.54,77.5536" style="stroke:#404040;stroke-width:1.2;"/><text fill="#000000" font-family="sans-serif" font-size="26" lengthAdjust="spacing" textLength="213.8906" x="2575" y="301.1639">temporalCoverage</text><text fill="#000000" font-family="sans-serif" font-size="26" lengthAdjust="spacing" textLength="39.0254" x="2535.7003" y="473.5742">0..*</text></g><!--reverse link Dataset to QualityMeasure--><g class="link" data-entity-1="ent0003" data-entity-2="ent0027" data-link-type="composition" data-source-line="61" id="lnk47"><path codeLine="61" d="M1508.7597,76.1332 C1706.4797,74.6432 2608.28,78.5336 2790,273.1736 C2846.15,333.3236 2823.92,444.9436 2812.83,487.0336" fill="none" id="Dataset-backto-QualityMeasure" style="stroke:#404040;stroke-width:1.2;"/><polygon fill="#404040" points="1496.76,76.2236,1502.79,80.1783,1508.7597,76.1332,1502.7297,72.1785,1496.76,76.2236" style="stroke:#404040;stroke-width:1.2;"/><text fill="#000000" font-family="sans-serif" font-size="26" lengthAdjust="spacing" textLength="281.7979" x="2811" y="301.1639">hasQualityMeasurement</text><text fill="#000000" font-family="sans-serif" font-size="26" lengthAdjust="spacing" textLength="39.0254" x="2770.0666" y="473.4737">0..*</text></g><!--link DataDownload to Agent--><g class="link" data-entity-1="ent0005" data-entity-2="ent0011" data-link-type="dependency" data-source-line="62" id="lnk48"><path codeLine="62" d="M426.52,952.2836 C419.06,992.4636 405.43,1096.6936 448,1166.1736 C516.45,1277.8836 668.8324,1333.4216 734.1824,1353.0016" fill="none" id="DataDownload-to-Agent" style="stroke:#404040;stroke-width:1.2;"/><polygon fill="#404040" points="739.93,1354.7236,732.4567,1348.3088,735.1404,1353.2886,730.1606,1355.9722,739.93,1354.7236" style="stroke:#404040;stroke-width:1.2;"/><text fill="#000000" font-family="sans-serif" font-size="26" lengthAdjust="spacing" textLength="93.9326" x="449" y="1160.1639">provider</text><text fill="#000000" font-family="sans-serif" font-size="26" lengthAdjust="spacing" textLength="39.0254" x="692.8657" y="1382.9268">0..*</text></g><!--link WebAPI to Action--><g class="link" data-entity-1="ent0006" data-entity-2="ent0007" data-link-type="dependency" data-source-line="63" id="lnk49"><path codeLine="63" d="M272.13,952.2036 C268.42,985.9736 260.18,1065.3036 257,1132.1736 C253.19,1212.3236 254.0281,1302.3143 254.6081,1340.1743" fill="none" id="WebAPI-to-Action" style="stroke:#404040;stroke-width:1.2;"/><polygon fill="#404040" points="254.7,1346.1736,258.5617,1337.1134,254.6234,1341.1742,250.5626,1337.236,254.7,1346.1736" style="stroke:#404040;stroke-width:1.2;"/><text fill="#000000" font-family="sans-serif" font-size="26" lengthAdjust="spacing" textLength="170.5615" x="258" y="1160.1639">potentialAction</text><text fill="#000000" font-family="sans-serif" font-size="26" lengthAdjust="spacing" textLength="39.0254" x="210.6826" y="1332.6496">0..*</text></g><!--link Action to EntryPoint--><g class="link" data-entity-1="ent0007" data-entity-2="ent0008" data-link-type="dependency" data-source-line="64" id="lnk50"><path codeLine="64" d="M248.18,1381.2536 C234.58,1414.7836 203.7,1493.2436 184,1561.1736 C161.11,1640.0936 143.8518,1730.8783 136.9818,1769.0883" fill="none" id="Action-to-EntryPoint" style="stroke:#404040;stroke-width:1.2;"/><polygon fill="#404040" points="135.92,1774.9936,141.4495,1766.8435,136.8048,1770.0725,133.5758,1765.4278,135.92,1774.9936" style="stroke:#404040;stroke-width:1.2;"/><text fill="#000000" font-family="sans-serif" font-size="26" lengthAdjust="spacing" textLength="66.4854" x="185" y="1589.1639">target</text><text fill="#000000" font-family="sans-serif" font-size="26" lengthAdjust="spacing" textLength="14.46" x="120.8994" y="1761.4234">1</text></g><!--link Action to ActionResult--><g class="link" data-entity-1="ent0007" data-entity-2="ent0009" data-link-type="dependency" data-source-line="65" id="lnk51"><path codeLine="65" d="M255,1381.4136 C255,1449.7236 255,1700.9536 255,1769.0536" fill="none" id="Action-to-ActionResult" style="stroke:#404040;stroke-width:1.2;"/><polygon fill="#404040" points="255,1775.0536,259,1766.0536,255,1770.0536,251,1766.0536,255,1775.0536" style="stroke:#404040;stroke-width:1.2;"/><text fill="#000000" font-family="sans-serif" font-size="26" lengthAdjust="spacing" textLength="63.5781" x="256" y="1589.1639">result</text><text fill="#000000" font-family="sans-serif" font-size="26" lengthAdjust="spacing" textLength="43.3672" x="206.5024" y="1761.4988">0..1</text></g><!--link Action to PropertyValueSpecification--><g class="link" data-entity-1="ent0007" data-entity-2="ent0010" data-link-type="dependency" data-source-line="66" id="lnk52"><path codeLine="66" d="M262.68,1381.4136 C294.04,1449.7236 409.6069,1701.5007 440.8669,1769.6007" fill="none" id="Action-to-PropertyValueSpecification" style="stroke:#404040;stroke-width:1.2;"/><polygon fill="#404040" points="443.37,1775.0536,443.2507,1765.2055,441.2841,1770.5095,435.9801,1768.5429,443.37,1775.0536" style="stroke:#404040;stroke-width:1.2;"/><text fill="#000000" font-family="sans-serif" font-size="26" lengthAdjust="spacing" textLength="122.8652" x="360" y="1589.1639">queryInput</text><text fill="#000000" font-family="sans-serif" font-size="26" lengthAdjust="spacing" textLength="39.0254" x="397.4037" y="1761.4988">0..*</text></g><!--link Contributor to Agent--><g class="link" data-entity-1="ent0015" data-entity-2="ent0011" data-link-type="dependency" data-source-line="67" id="lnk53"><path codeLine="67" d="M927.75,737.3136 C915.26,770.9436 886.81,849.5636 868,917.1736 C822.02,1082.4336 784.1025,1280.9039 773.1525,1340.0339" fill="none" id="Contributor-to-Agent" style="stroke:#404040;stroke-width:1.2;"/><polygon fill="#404040" points="772.06,1345.9336,777.6319,1337.8125,772.9704,1341.0172,769.7657,1336.3557,772.06,1345.9336" style="stroke:#404040;stroke-width:1.2;"/><text fill="#000000" font-family="sans-serif" font-size="26" lengthAdjust="spacing" textLength="122.8398" x="869" y="945.6639">contributor</text><text fill="#000000" font-family="sans-serif" font-size="26" lengthAdjust="spacing" textLength="43.3672" x="805.8998" y="1370.9073">0..1</text></g><!--link MonetaryGrant to Agent--><g class="link" data-entity-1="ent0020" data-entity-2="ent0011" data-link-type="dependency" data-source-line="68" id="lnk54"><path codeLine="68" d="M1057.19,737.3536 C1048.1,775.9836 1023.45,874.2636 991,952.1736 C924.33,1112.2336 817.192,1286.4694 782.782,1340.9994" fill="none" id="MonetaryGrant-to-Agent" style="stroke:#404040;stroke-width:1.2;"/><polygon fill="#404040" points="779.58,1346.0736,787.7657,1340.597,782.2483,1341.8451,781.0001,1336.3277,779.58,1346.0736" style="stroke:#404040;stroke-width:1.2;"/><text fill="#000000" font-family="sans-serif" font-size="26" lengthAdjust="spacing" textLength="73.7217" x="1005" y="945.6639">funder</text><text fill="#000000" font-family="sans-serif" font-size="26" lengthAdjust="spacing" textLength="39.0254" x="787.2572" y="1332.5239">0..*</text></g><!--link CatalogRecord to Agent--><g class="link" data-entity-1="ent0023" data-entity-2="ent0011" data-link-type="dependency" data-source-line="70" id="lnk56"><path codeLine="70" d="M2142.39,522.3336 C2122.86,563.5236 2067.24,671.5836 1993,737.1736 C1588.38,1094.6636 948.6394,1307.052 804.0894,1352.002" fill="none" id="CatalogRecord-to-Agent" style="stroke:#404040;stroke-width:1.2;"/><polygon fill="#404040" points="798.36,1353.7836,808.1418,1354.9308,803.1345,1352.2989,805.7663,1347.2916,798.36,1353.7836" style="stroke:#404040;stroke-width:1.2;"/><text fill="#000000" font-family="sans-serif" font-size="26" lengthAdjust="spacing" textLength="121.3926" x="1745" y="945.6639">maintainer</text><text fill="#000000" font-family="sans-serif" font-size="26" lengthAdjust="spacing" textLength="43.3672" x="806.1557" y="1381.7513">0..1</text></g><!--link VariableMeasured to DefinedTerm--><g class="link" data-entity-1="ent0024" data-entity-2="ent0016" data-link-type="dependency" data-source-line="71" id="lnk57"><path codeLine="71" d="M1909.9,522.1936 C1835.33,590.2436 1556.6719,844.5391 1481.7319,912.9291" fill="none" id="VariableMeasured-to-DefinedTerm" style="stroke:#404040;stroke-width:1.2;"/><polygon fill="#404040" points="1477.3,916.9736,1486.6442,913.8614,1480.9932,913.6032,1481.2515,907.9522,1477.3,916.9736" style="stroke:#404040;stroke-width:1.2;"/><text fill="#000000" font-family="sans-serif" font-size="26" lengthAdjust="spacing" textLength="280.376" x="1709" y="730.6639">measurementTechnique</text><text fill="#000000" font-family="sans-serif" font-size="26" lengthAdjust="spacing" textLength="43.3672" x="1487.5976" y="903.3983">0..1</text></g><?plantuml-src XLR9Rjim4BthAuZa5Y11TXH2KS1nx22786bYf6UQ6jji958TKdRT1UX7z0lx9Hs9aaLHIWB30EVnpS9PI5bfKs1ZZN0jZT1hm2txz-SlArTh2Pje9HDWGg98mQqXo-sMPP3D0KraNgJAEVACcHLFz4Qg9Llmr82tCqBKczbAYXS5nh2JerDl4xbwCP2piyjZ3rKwWH8zEVV011QyIErKA_iaVm0xlVGsHSh9zi-8ENTZdMfa--V7vO_0Auq9O8ZwfaZHMfJpma8B7qU_euZFZKKkRErZRwopN1jfuG7rGgQmnxXX8SZsfvFfP3o9QgLhRha1Mt7hzOuIEXZLCfN4HIIrgXI7DjZ-zULaDFtWExhM6vLgdkoyDK0OrHUOZnvkAvfR4c4yFHjF6y98jCx5aBk9ihXzq5AvexLYI7JgZs2eX9uz1uHkAOaveDq-yxI0fno4N4Z1Tw6ylhtpsilf4keGgrKOtGCrSsEyMeQ4CVK4cMjFwWCX-HwNNCaVRS0-C6IvAgR6dU5QxjKM5b91CWFCN6bRcQWNqul9MKEzJUYKb1PmHbknLvSaaMLOF6sowhBKWqF5HrW0WXAk_tTIIBlJ2Yp7xGrDkijS1-aL0lMwx8orh0FnWTvG0Ser95FKJJvsSY_BD0MfNZw2e9l0vTb7GilF72MVft07t1G8JYC4mvm_vLHWdaw-swRNEaX8dz5Lgh73xqAXmkU2fvI5sdsbq8Ls2eCNnSTVXuUTs-0DchiD8ZSh5UB6maVyfewQE-tmy1FREpuwEjYh1orcELMGNWuSv0n54BF44zyoBH0upSaGnHyZ8hPIZtpYXLhCKsbMmx5s-pPcYq8bzDuDKJjD6xCDDpUW0Bc5v6exfE1tRiNtW2wVekrsRinCCVyAmjulXYstTqJCNc2x8IKpn6n7E6Qf5A3e5N_NOEOwBwFypK2ibFnMj5e7r2MrLczsOhOEe26rxW3HKPqyBhzF-7BGKp13CRCry9PIC4SnMt7JnSeJHfstzArMhrzJdoBgtivr6HSTmY5HlT4Krtj1ANIEIx0TIjsm_kCPCwmM8SyrucilPSoeLBYzLNbX8tzQ1kR27v_k60maePmBIa6tIpsZJVfZnkUwzFqQiJ6OSSe6_Sbehuryk-ytvdy0?></g></svg>