<svg xmlns="http://www.w3.org/2000/svg" xmlns:xlink="http://www.w3.org/1999/xlink" contentStyleType="text/css" data-diagram-type="CLASS" height="1820px" preserveAspectRatio="none" style="width:3403px;height:1820px;background:#FFFFFF;" version="1.1" viewBox="0 0 3403 1820" width="3403px" zoomAndPan="magnify"><?plantuml 1.2026.3?><defs/><g><g class="title" data-source-line="1"><text fill="#000000" font-family="sans-serif" font-size="14" font-weight="700" lengthAdjust="spacing" textLength="180.9678" x="1607.8569" y="24.5332">CoreDiscovery &#8212; overview</text></g><!--class CompositeProfile--><g class="entity" data-qualified-name="CompositeProfile" data-source-line="16" id="ent0002"><rect fill="#FEFECE" height="35.1563" rx="2.5" ry="2.5" style="stroke:#404040;stroke-width:0.5;" width="158.2852" x="12.5" y="45.6094"/><text fill="#000000" font-family="sans-serif" font-size="20" font-style="italic" lengthAdjust="spacing" textLength="152.2852" x="15.5" y="71.3711">CompositeProfile</text></g><!--class Dataset--><g class="entity" data-qualified-name="Dataset" data-source-line="17" id="ent0003"><rect fill="#FEFECE" height="35.1563" rx="2.5" ry="2.5" style="stroke:#404040;stroke-width:0.5;" width="74.9258" x="1312" y="45.6094"/><text fill="#000000" font-family="sans-serif" font-size="20" lengthAdjust="spacing" textLength="68.9258" x="1315" y="71.3711">Dataset</text></g><!--class AbstractDistribution--><g class="entity" data-qualified-name="AbstractDistribution" data-source-line="18" id="ent0004"><rect fill="#D6EAF8" height="35.1563" rx="2.5" ry="2.5" style="stroke:#404040;stroke-width:0.5;" width="179.3984" x="389" y="479.1094"/><text fill="#000000" font-family="sans-serif" font-size="20" font-style="italic" lengthAdjust="spacing" textLength="173.3984" x="392" y="504.8711">AbstractDistribution</text></g><!--class DataDownload--><g class="entity" data-qualified-name="DataDownload" data-source-line="19" id="ent0005"><rect fill="#FEFECE" height="35.1563" rx="2.5" ry="2.5" style="stroke:#404040;stroke-width:0.5;" width="137.1914" x="426" y="913.6094"/><text fill="#000000" font-family="sans-serif" font-size="20" lengthAdjust="spacing" textLength="131.1914" x="429" y="939.3711">DataDownload</text></g><!--class WebAPI--><g class="entity" data-qualified-name="WebAPI" data-source-line="20" id="ent0006"><rect fill="#FCF3CF" height="35.1563" rx="2.5" ry="2.5" style="stroke:#404040;stroke-width:0.5;" width="79.3594" x="299" y="913.6094"/><text fill="#000000" font-family="sans-serif" font-size="20" lengthAdjust="spacing" textLength="73.3594" x="302" y="939.3711">WebAPI</text></g><!--class Action--><g class="entity" data-qualified-name="Action" data-source-line="21" id="ent0007"><rect fill="#D6EAF8" height="35.1563" rx="2.5" ry="2.5" style="stroke:#404040;stroke-width:0.5;" width="61.5859" x="288.5" y="1342.6094"/><text fill="#000000" font-family="sans-serif" font-size="20" lengthAdjust="spacing" textLength="55.5859" x="291.5" y="1368.3711">Action</text></g><!--class EntryPoint--><g class="entity" data-qualified-name="EntryPoint" data-source-line="22" id="ent0008"><rect fill="#D6EAF8" height="35.1563" rx="2.5" ry="2.5" style="stroke:#404040;stroke-width:0.5;" width="98.2656" x="148.5" y="1771.6094"/><text fill="#000000" font-family="sans-serif" font-size="20" lengthAdjust="spacing" textLength="92.2656" x="151.5" y="1797.3711">EntryPoint</text></g><!--class ActionResult--><g class="entity" data-qualified-name="ActionResult" data-source-line="23" id="ent0009"><rect fill="#FCF3CF" height="35.1563" rx="2.5" ry="2.5" style="stroke:#404040;stroke-width:0.5;" width="118.2754" x="260.5" y="1771.6094"/><text fill="#000000" font-family="sans-serif" font-size="20" lengthAdjust="spacing" textLength="112.2754" x="263.5" y="1797.3711">ActionResult</text></g><!--class PropertyValueSpecification--><g class="entity" data-qualified-name="PropertyValueSpecification" data-source-line="24" id="ent0010"><rect fill="#D6EAF8" height="35.1563" rx="2.5" ry="2.5" style="stroke:#404040;stroke-width:0.5;" width="246.1367" x="392.5" y="1771.6094"/><text fill="#000000" font-family="sans-serif" font-size="20" lengthAdjust="spacing" textLength="240.1367" x="395.5" y="1797.3711">PropertyValueSpecification</text></g><!--class Agent--><g class="entity" data-qualified-name="Agent" data-source-line="25" id="ent0011"><rect fill="#D6EAF8" height="35.1563" rx="2.5" ry="2.5" style="stroke:#404040;stroke-width:0.5;" width="58.2656" x="804.5" y="1342.6094"/><text fill="#000000" font-family="sans-serif" font-size="20" font-style="italic" lengthAdjust="spacing" textLength="52.2656" x="807.5" y="1368.3711">Agent</text></g><!--class Person--><g class="entity" data-qualified-name="Person" data-source-line="26" id="ent0012"><rect fill="#D6EAF8" height="35.1563" rx="2.5" ry="2.5" style="stroke:#404040;stroke-width:0.5;" width="69.3691" x="853" y="1771.6094"/><text fill="#000000" font-family="sans-serif" font-size="20" lengthAdjust="spacing" textLength="63.3691" x="856" y="1797.3711">Person</text></g><!--class ContactPoint--><g class="entity" data-qualified-name="ContactPoint" data-source-line="27" id="ent0013"><rect fill="#D6EAF8" height="35.1563" rx="2.5" ry="2.5" style="stroke:#404040;stroke-width:0.5;" width="120.5117" x="185" y="45.6094"/><text fill="#000000" font-family="sans-serif" font-size="20" lengthAdjust="spacing" textLength="114.5117" x="188" y="71.3711">ContactPoint</text></g><!--class Organization--><g class="entity" data-qualified-name="Organization" data-source-line="28" id="ent0014"><rect fill="#D6EAF8" height="35.1563" rx="2.5" ry="2.5" style="stroke:#404040;stroke-width:0.5;" width="119.3984" x="720" y="1771.6094"/><text fill="#000000" font-family="sans-serif" font-size="20" lengthAdjust="spacing" textLength="113.3984" x="723" y="1797.3711">Organization</text></g><!--class Contributor--><g class="entity" data-qualified-name="Contributor" data-source-line="29" id="ent0015"><rect fill="#D6EAF8" height="35.1563" rx="2.5" ry="2.5" style="stroke:#404040;stroke-width:0.5;" width="104.9355" x="946" y="698.6094"/><text fill="#000000" font-family="sans-serif" font-size="20" lengthAdjust="spacing" textLength="98.9355" x="949" y="724.3711">Contributor</text></g><!--class DefinedTerm--><g class="entity" data-qualified-name="DefinedTerm" data-source-line="30" id="ent0016"><rect fill="#FAE5D3" height="35.1563" rx="2.5" ry="2.5" style="stroke:#404040;stroke-width:0.5;" width="121.5957" x="1345.5" y="913.6094"/><text fill="#000000" font-family="sans-serif" font-size="20" lengthAdjust="spacing" textLength="115.5957" x="1348.5" y="939.3711">DefinedTerm</text></g><!--class Identifier--><g class="entity" data-qualified-name="Identifier" data-source-line="31" id="ent0017"><rect fill="#D6EAF8" height="35.1563" rx="2.5" ry="2.5" style="stroke:#404040;stroke-width:0.5;" width="82.709" x="320" y="45.6094"/><text fill="#000000" font-family="sans-serif" font-size="20" lengthAdjust="spacing" textLength="76.709" x="323" y="71.3711">Identifier</text></g><!--class AdditionalProperty--><g class="entity" data-qualified-name="AdditionalProperty" data-source-line="32" id="ent0018"><rect fill="#D6EAF8" height="35.1563" rx="2.5" ry="2.5" style="stroke:#404040;stroke-width:0.5;" width="169.4277" x="7" y="479.1094"/><text fill="#000000" font-family="sans-serif" font-size="20" lengthAdjust="spacing" textLength="163.4277" x="10" y="504.8711">AdditionalProperty</text></g><!--class Reference--><g class="entity" data-qualified-name="Reference" data-source-line="33" id="ent0019"><rect fill="#D6EAF8" height="35.1563" rx="2.5" ry="2.5" style="stroke:#404040;stroke-width:0.5;" width="98.2754" x="1851.5" y="479.1094"/><text fill="#000000" font-family="sans-serif" font-size="20" lengthAdjust="spacing" textLength="92.2754" x="1854.5" y="504.8711">Reference</text></g><!--class MonetaryGrant--><g class="entity" data-qualified-name="MonetaryGrant" data-source-line="34" id="ent0020"><rect fill="#D6EAF8" height="35.1563" rx="2.5" ry="2.5" style="stroke:#404040;stroke-width:0.5;" width="139.3887" x="1056" y="698.6094"/><text fill="#000000" font-family="sans-serif" font-size="20" lengthAdjust="spacing" textLength="133.3887" x="1059" y="724.3711">MonetaryGrant</text></g><!--class ProvActivity--><g class="entity" data-qualified-name="ProvActivity" data-source-line="35" id="ent0021"><rect fill="#FEFECE" height="35.1563" rx="2.5" ry="2.5" style="stroke:#404040;stroke-width:0.5;" width="110.4629" x="1963.5" y="479.1094"/><text fill="#000000" font-family="sans-serif" font-size="20" lengthAdjust="spacing" textLength="104.4629" x="1966.5" y="504.8711">ProvActivity</text></g><!--class DerivedFrom--><g class="entity" data-qualified-name="DerivedFrom" data-source-line="36" id="ent0022"><rect fill="#D6EAF8" height="35.1563" rx="2.5" ry="2.5" style="stroke:#404040;stroke-width:0.5;" width="121.5762" x="2087.5" y="479.1094"/><text fill="#000000" font-family="sans-serif" font-size="20" lengthAdjust="spacing" textLength="115.5762" x="2090.5" y="504.8711">DerivedFrom</text></g><!--class CatalogRecord--><g class="entity" data-qualified-name="CatalogRecord" data-source-line="37" id="ent0023"><rect fill="#FEFECE" height="35.1563" rx="2.5" ry="2.5" style="stroke:#404040;stroke-width:0.5;" width="139.4082" x="1067" y="479.1094"/><text fill="#000000" font-family="sans-serif" font-size="20" lengthAdjust="spacing" textLength="133.4082" x="1070" y="504.8711">CatalogRecord</text></g><!--class CdifConceptOrTerm--><g class="entity" data-qualified-name="CdifConceptOrTerm" data-source-line="38" id="ent0024"><rect fill="#FAE5D3" height="35.1563" rx="2.5" ry="2.5" style="stroke:#404040;stroke-width:0.5;" width="184.9355" x="190" y="479.1094"/><text fill="#000000" font-family="sans-serif" font-size="20" lengthAdjust="spacing" textLength="178.9355" x="193" y="504.8711">CdifConceptOrTerm</text></g><!--class VariableMeasured--><g class="entity" data-qualified-name="VariableMeasured" data-source-line="39" id="ent0025"><rect fill="#D5F5E3" height="35.1563" rx="2.5" ry="2.5" style="stroke:#404040;stroke-width:0.5;" width="168.3145" x="1669.5" y="479.1094"/><text fill="#000000" font-family="sans-serif" font-size="20" lengthAdjust="spacing" textLength="162.3145" x="1672.5" y="504.8711">VariableMeasured</text></g><!--class SpatialExtent--><g class="entity" data-qualified-name="SpatialExtent" data-source-line="40" id="ent0026"><rect fill="#D5F5E3" height="35.1563" rx="2.5" ry="2.5" style="stroke:#404040;stroke-width:0.5;" width="123.8516" x="2263.5" y="479.1094"/><text fill="#000000" font-family="sans-serif" font-size="20" lengthAdjust="spacing" textLength="117.8516" x="2266.5" y="504.8711">SpatialExtent</text></g><!--class TemporalExtent--><g class="entity" data-qualified-name="TemporalExtent" data-source-line="41" id="ent0027"><rect fill="#D5F5E3" height="35.1563" rx="2.5" ry="2.5" style="stroke:#404040;stroke-width:0.5;" width="147.1719" x="2456" y="479.1094"/><text fill="#000000" font-family="sans-serif" font-size="20" lengthAdjust="spacing" textLength="141.1719" x="2459" y="504.8711">TemporalExtent</text></g><!--class QualityMeasure--><g class="entity" data-qualified-name="QualityMeasure" data-source-line="42" id="ent0028"><rect fill="#D5F5E3" height="35.1563" rx="2.5" ry="2.5" style="stroke:#404040;stroke-width:0.5;" width="146.0586" x="3108.5" y="913.6094"/><text fill="#000000" font-family="sans-serif" font-size="20" lengthAdjust="spacing" textLength="140.0586" x="3111.5" y="939.3711">QualityMeasure</text></g><!--class QualityMeasurement--><g class="entity" data-qualified-name="QualityMeasurement" data-source-line="43" id="ent0029"><rect fill="#D5F5E3" height="35.1563" rx="2.5" ry="2.5" style="stroke:#404040;stroke-width:0.5;" width="190.5215" x="3086" y="479.1094"/><text fill="#000000" font-family="sans-serif" font-size="20" lengthAdjust="spacing" textLength="184.5215" x="3089" y="504.8711">QualityMeasurement</text></g><!--class AbstractGeometry--><g class="entity" data-qualified-name="AbstractGeometry" data-source-line="44" id="ent0030"><rect fill="#D5F5E3" height="35.1563" rx="2.5" ry="2.5" style="stroke:#404040;stroke-width:0.5;" width="167.1621" x="2105" y="913.6094"/><text fill="#000000" font-family="sans-serif" font-size="20" font-style="italic" lengthAdjust="spacing" textLength="161.1621" x="2108" y="939.3711">AbstractGeometry</text></g><!--class GeoCoordinates--><g class="entity" data-qualified-name="GeoCoordinates" data-source-line="45" id="ent0031"><rect fill="#D5F5E3" height="35.1563" rx="2.5" ry="2.5" style="stroke:#404040;stroke-width:0.5;" width="151.6445" x="2182.5" y="1342.6094"/><text fill="#000000" font-family="sans-serif" font-size="20" lengthAdjust="spacing" textLength="145.6445" x="2185.5" y="1368.3711">GeoCoordinates</text></g><!--class GeoShape--><g class="entity" data-qualified-name="GeoShape" data-source-line="46" id="ent0032"><rect fill="#D5F5E3" height="35.1563" rx="2.5" ry="2.5" style="stroke:#404040;stroke-width:0.5;" width="101.6348" x="2066.5" y="1342.6094"/><text fill="#000000" font-family="sans-serif" font-size="20" lengthAdjust="spacing" textLength="95.6348" x="2069.5" y="1368.3711">GeoShape</text></g><!--class Geometry--><g class="entity" data-qualified-name="Geometry" data-source-line="47" id="ent0033"><rect fill="#D5F5E3" height="35.1563" rx="2.5" ry="2.5" style="stroke:#404040;stroke-width:0.5;" width="93.8027" x="2286.5" y="913.6094"/><text fill="#000000" font-family="sans-serif" font-size="20" lengthAdjust="spacing" textLength="87.8027" x="2289.5" y="939.3711">Geometry</text></g><!--class Instant--><g class="entity" data-qualified-name="Instant" data-source-line="48" id="ent0034"><rect fill="#D5F5E3" height="35.1563" rx="2.5" ry="2.5" style="stroke:#404040;stroke-width:0.5;" width="66.0391" x="2581.5" y="913.6094"/><text fill="#000000" font-family="sans-serif" font-size="20" lengthAdjust="spacing" textLength="60.0391" x="2584.5" y="939.3711">Instant</text></g><!--class TimePosition--><g class="entity" data-qualified-name="TimePosition" data-source-line="49" id="ent0035"><rect fill="#D5F5E3" height="35.1563" rx="2.5" ry="2.5" style="stroke:#404040;stroke-width:0.5;" width="121.5957" x="2553.5" y="1342.6094"/><text fill="#000000" font-family="sans-serif" font-size="20" lengthAdjust="spacing" textLength="115.5957" x="2556.5" y="1368.3711">TimePosition</text></g><!--reverse link AbstractDistribution to DataDownload--><g class="link" data-entity-1="ent0004" data-entity-2="ent0005" data-link-type="extension" data-source-line="50" id="lnk36"><path codeLine="50" d="M479.7844,532.2871 C482.3244,601.0571 491.32,844.1194 493.88,913.2394" fill="none" id="AbstractDistribution-backto-DataDownload" style="stroke:#404040;stroke-width:1.2;"/><polygon fill="none" points="479.12,514.2994,473.7885,532.5086,485.7803,532.0657,479.12,514.2994" style="stroke:#404040;stroke-width:1.2;"/></g><!--reverse link AbstractDistribution to WebAPI--><g class="link" data-entity-1="ent0004" data-entity-2="ent0006" data-link-type="extension" data-source-line="51" id="lnk37"><path codeLine="51" d="M467.5568,531.4246 C445.2968,600.1946 366.33,844.1194 343.96,913.2394" fill="none" id="AbstractDistribution-backto-WebAPI" style="stroke:#404040;stroke-width:1.2;"/><polygon fill="none" points="473.1,514.2994,461.8484,529.5768,473.2652,533.2723,473.1,514.2994" style="stroke:#404040;stroke-width:1.2;"/></g><!--reverse link Agent to Person--><g class="link" data-entity-1="ent0011" data-entity-2="ent0012" data-link-type="extension" data-source-line="52" id="lnk38"><path codeLine="52" d="M837.8787,1395.7071 C846.5187,1464.0171 876.79,1703.3894 885.4,1771.4894" fill="none" id="Agent-backto-Person" style="stroke:#404040;stroke-width:1.2;"/><polygon fill="none" points="835.62,1377.8494,831.9261,1396.46,843.8313,1394.9542,835.62,1377.8494" style="stroke:#404040;stroke-width:1.2;"/></g><!--reverse link Agent to Organization--><g class="link" data-entity-1="ent0011" data-entity-2="ent0014" data-link-type="extension" data-source-line="53" id="lnk39"><path codeLine="53" d="M829.1213,1395.7071 C820.4813,1464.0171 790.21,1703.3894 781.6,1771.4894" fill="none" id="Agent-backto-Organization" style="stroke:#404040;stroke-width:1.2;"/><polygon fill="none" points="831.38,1377.8494,823.1687,1394.9542,835.0739,1396.46,831.38,1377.8494" style="stroke:#404040;stroke-width:1.2;"/></g><!--reverse link AbstractGeometry to GeoCoordinates--><g class="link" data-entity-1="ent0030" data-entity-2="ent0031" data-link-type="extension" data-source-line="54" id="lnk40"><path codeLine="54" d="M2194.1524,966.6122 C2205.3524,1034.9222 2244.61,1274.3894 2255.77,1342.4894" fill="none" id="AbstractGeometry-backto-GeoCoordinates" style="stroke:#404040;stroke-width:1.2;"/><polygon fill="none" points="2191.24,948.8494,2188.2314,967.583,2200.0733,965.6414,2191.24,948.8494" style="stroke:#404040;stroke-width:1.2;"/></g><!--reverse link AbstractGeometry to GeoShape--><g class="link" data-entity-1="ent0030" data-entity-2="ent0032" data-link-type="extension" data-source-line="55" id="lnk41"><path codeLine="55" d="M2182.7671,966.6055 C2171.4071,1034.9155 2131.59,1274.3894 2120.26,1342.4894" fill="none" id="AbstractGeometry-backto-GeoShape" style="stroke:#404040;stroke-width:1.2;"/><polygon fill="none" points="2185.72,948.8494,2176.8484,965.6212,2188.6859,967.5898,2185.72,948.8494" style="stroke:#404040;stroke-width:1.2;"/></g><!--link Dataset to Agent--><g class="link" data-entity-1="ent0003" data-entity-2="ent0011" data-link-type="dependency" data-source-line="56" id="lnk42"><path codeLine="56" d="M1311.75,63.8094 C1202.67,65.1294 884.52,84.5994 721.5,260.6094 C585.75,407.1794 643.09,500.1194 620.5,698.6094 C600.74,872.1994 610.96,881.4894 721.5,1162.6094 C749.38,1233.4994 795.9191,1304.8563 818.4791,1337.6463" fill="none" id="Dataset-to-Agent" style="stroke:#404040;stroke-width:1.2;"/><polygon fill="#404040" points="821.88,1342.5894,820.074,1332.9075,819.0459,1338.4702,813.4833,1337.442,821.88,1342.5894" style="stroke:#404040;stroke-width:1.2;"/><text fill="#000000" font-family="sans-serif" font-size="26" lengthAdjust="spacing" textLength="93.9326" x="621.5" y="727.0996">provider</text><text fill="#000000" font-family="sans-serif" font-size="26" lengthAdjust="spacing" textLength="39.0254" x="774.8747" y="1329.0602">0..*</text></g><!--link Dataset to Agent--><g class="link" data-entity-1="ent0003" data-entity-2="ent0011" data-link-type="dependency" data-source-line="58" id="lnk44"><path codeLine="58" d="M1311.98,66.1494 C1214.73,73.5794 953.02,107.5494 822.5,260.6094 C683.75,423.3094 717.73,520.4394 734.5,733.6094 C753.68,977.4894 813.0403,1264.0731 828.5803,1336.4431" fill="none" id="Dataset-to-Agent-1" style="stroke:#404040;stroke-width:1.2;"/><polygon fill="#404040" points="829.84,1342.3094,831.8614,1332.6702,828.7903,1337.4208,824.0396,1334.3497,829.84,1342.3094" style="stroke:#404040;stroke-width:1.2;"/><text fill="#000000" font-family="sans-serif" font-size="26" lengthAdjust="spacing" textLength="80.9199" x="735.5" y="727.0996">creator</text><text fill="#000000" font-family="sans-serif" font-size="26" lengthAdjust="spacing" textLength="39.0254" x="833.8682" y="1328.7084">0..*</text></g><!--link Dataset to Agent--><g class="link" data-entity-1="ent0003" data-entity-2="ent0011" data-link-type="dependency" data-source-line="60" id="lnk46"><path codeLine="60" d="M1311.96,67.5394 C1221.45,77.9794 990.78,117.9994 883.5,260.6094 C765.65,417.2694 843.08,502.9194 831.5,698.6094 C816.35,954.7394 828.9311,1261.7159 832.4111,1336.5059" fill="none" id="Dataset-to-Agent-2" style="stroke:#404040;stroke-width:1.2;"/><polygon fill="#404040" points="832.69,1342.4994,836.2674,1333.3232,832.4576,1337.5048,828.276,1333.695,832.69,1342.4994" style="stroke:#404040;stroke-width:1.2;"/><text fill="#000000" font-family="sans-serif" font-size="26" lengthAdjust="spacing" textLength="105.5107" x="832.5" y="727.0996">publisher</text><text fill="#000000" font-family="sans-serif" font-size="26" lengthAdjust="spacing" textLength="43.3672" x="752.9623" y="1367.2843">0..1</text></g><!--link Dataset to AbstractDistribution--><g class="link" data-entity-1="ent0003" data-entity-2="ent0004" data-link-type="dependency" data-source-line="57" id="lnk43"><path codeLine="57" d="M1311.75,66.6294 C1158.75,77.6694 587.89,127.3894 480.5,260.6094 C428.01,325.7294 456.377,431.5659 470.537,473.4159" fill="none" id="Dataset-to-AbstractDistribution" style="stroke:#404040;stroke-width:1.2;"/><polygon fill="#404040" points="472.46,479.0994,473.3645,469.2921,470.8575,474.3631,465.7865,471.8562,472.46,479.0994" style="stroke:#404040;stroke-width:1.2;"/><text fill="#000000" font-family="sans-serif" font-size="26" lengthAdjust="spacing" textLength="125.7344" x="481.5" y="288.5996">distribution</text><text fill="#000000" font-family="sans-serif" font-size="26" lengthAdjust="spacing" textLength="39.0254" x="426.8676" y="465.5727">0..*</text></g><!--link Dataset to Contributor--><g class="link" data-entity-1="ent0003" data-entity-2="ent0015" data-link-type="dependency" data-source-line="59" id="lnk45"><path codeLine="59" d="M1311.72,67.3994 C1221.97,77.4794 996.45,116.6794 902.5,260.6094 C806.18,408.1694 940.8744,629.9587 983.3744,693.2287" fill="none" id="Dataset-to-Contributor" style="stroke:#404040;stroke-width:1.2;"/><polygon fill="#404040" points="986.72,698.2094,985.022,688.508,983.932,694.0588,978.3811,692.9688,986.72,698.2094" style="stroke:#404040;stroke-width:1.2;"/><text fill="#000000" font-family="sans-serif" font-size="26" lengthAdjust="spacing" textLength="122.8398" x="903.5" y="288.5996">contributor</text><text fill="#000000" font-family="sans-serif" font-size="26" lengthAdjust="spacing" textLength="39.0254" x="940.1064" y="685.0031">0..*</text></g><!--link Dataset to MonetaryGrant--><g class="link" data-entity-1="ent0003" data-entity-2="ent0020" data-link-type="dependency" data-source-line="61" id="lnk47"><path codeLine="61" d="M1311.78,75.1294 C1243.57,97.3394 1101.39,154.6394 1043.5,260.6094 C959.51,414.3594 1075.5686,631.5892 1112.2686,693.4492" fill="none" id="Dataset-to-MonetaryGrant" style="stroke:#404040;stroke-width:1.2;"/><polygon fill="#404040" points="1115.33,698.6094,1114.178,688.8281,1112.7788,694.3092,1107.2977,692.91,1115.33,698.6094" style="stroke:#404040;stroke-width:1.2;"/><text fill="#000000" font-family="sans-serif" font-size="26" lengthAdjust="spacing" textLength="85.2998" x="1044.5" y="288.5996">funding</text><text fill="#000000" font-family="sans-serif" font-size="26" lengthAdjust="spacing" textLength="39.0254" x="1068.6805" y="685.0853">0..*</text></g><!--link Dataset to ProvActivity--><g class="link" data-entity-1="ent0003" data-entity-2="ent0021" data-link-type="dependency" data-source-line="62" id="lnk48"><path codeLine="62" d="M1387.26,69.5294 C1479.56,84.4694 1720.02,133.8994 1870.5,260.6094 C1883.91,271.8994 1881.35,279.6594 1890.5,294.6094 C1932.84,363.7594 1982.1035,439.823 2004.4035,474.033" fill="none" id="Dataset-to-ProvActivity" style="stroke:#404040;stroke-width:1.2;"/><polygon fill="#404040" points="2007.68,479.0594,2006.1162,469.3355,2004.9496,474.8707,1999.4143,473.7041,2007.68,479.0594" style="stroke:#404040;stroke-width:1.2;"/><text fill="#000000" font-family="sans-serif" font-size="26" lengthAdjust="spacing" textLength="199.4434" x="1891.5" y="288.5996">wasGeneratedBy</text><text fill="#000000" font-family="sans-serif" font-size="26" lengthAdjust="spacing" textLength="39.0254" x="1960.8544" y="465.5225">0..*</text></g><!--link Dataset to DerivedFrom--><g class="link" data-entity-1="ent0003" data-entity-2="ent0022" data-link-type="dependency" data-source-line="63" id="lnk49"><path codeLine="63" d="M1387.38,69.0394 C1524.04,87.5594 1988.92,157.2694 2090.5,260.6094 C2121.5,292.1494 2140.018,424.753 2145.868,473.013" fill="none" id="Dataset-to-DerivedFrom" style="stroke:#404040;stroke-width:1.2;"/><polygon fill="#404040" points="2146.59,478.9694,2149.4779,469.5534,2145.9883,474.0057,2141.536,470.5161,2146.59,478.9694" style="stroke:#404040;stroke-width:1.2;"/><text fill="#000000" font-family="sans-serif" font-size="26" lengthAdjust="spacing" textLength="196.4854" x="2108.5" y="288.5996">wasDerivedFrom</text><text fill="#000000" font-family="sans-serif" font-size="26" lengthAdjust="spacing" textLength="39.0254" x="2102.1612" y="465.4094">0..*</text></g><!--link Dataset to CatalogRecord--><g class="link" data-entity-1="ent0003" data-entity-2="ent0023" data-link-type="dependency" data-source-line="64" id="lnk50"><path codeLine="64" d="M1337.62,80.8394 C1314.4,113.9994 1262.26,190.8894 1227.5,260.6094 C1188.16,339.4994 1156.209,434.0782 1143.609,473.2082" fill="none" id="Dataset-to-CatalogRecord" style="stroke:#404040;stroke-width:1.2;"/><polygon fill="#404040" points="1141.77,478.9194,1148.336,471.5786,1143.3025,474.16,1140.7211,469.1265,1141.77,478.9194" style="stroke:#404040;stroke-width:1.2;"/><text fill="#000000" font-family="sans-serif" font-size="26" lengthAdjust="spacing" textLength="109.8271" x="1228.5" y="288.5996">subjectOf</text><text fill="#000000" font-family="sans-serif" font-size="26" lengthAdjust="spacing" textLength="14.46" x="1127.3333" y="465.3466">1</text></g><!--link CatalogRecord to Dataset--><g class="link" data-entity-1="ent0023" data-entity-2="ent0003" data-link-type="dependency" data-source-line="79" id="lnk65"><path codeLine="79" d="M1132.88,478.9994 C1125.05,439.1994 1109.84,336.0994 1143.5,260.6094 C1181.14,176.1894 1268.6193,113.4351 1315.7793,84.0151" fill="none" id="CatalogRecord-to-Dataset" style="stroke:#404040;stroke-width:1.2;"/><polygon fill="#404040" points="1320.87,80.8394,1311.1169,82.2092,1316.6278,83.4858,1315.3512,88.9967,1320.87,80.8394" style="stroke:#404040;stroke-width:1.2;"/><text fill="#000000" font-family="sans-serif" font-size="26" lengthAdjust="spacing" textLength="65.0635" x="1144.5" y="288.5996">about</text><text fill="#000000" font-family="sans-serif" font-size="26" lengthAdjust="spacing" textLength="43.3672" x="1266.3285" y="115.6929">0..1</text></g><!--link Dataset to DefinedTerm--><g class="link" data-entity-1="ent0003" data-entity-2="ent0016" data-link-type="dependency" data-source-line="65" id="lnk51"><path codeLine="65" d="M1350.97,80.6794 C1353.87,119.0894 1358.38,216.8194 1337.5,294.6094 C1309.6,398.5594 1225.55,412.8494 1245.5,518.6094 C1275.94,679.9294 1365.1397,853.8196 1394.5297,908.2596" fill="none" id="Dataset-to-DefinedTerm" style="stroke:#404040;stroke-width:1.2;"/><polygon fill="#404040" points="1397.38,913.5394,1396.6243,903.7195,1395.0047,909.1396,1389.5847,907.52,1397.38,913.5394" style="stroke:#404040;stroke-width:1.2;"/><text fill="#000000" font-family="sans-serif" font-size="26" lengthAdjust="spacing" textLength="109.8145" x="1246.5" y="507.5996">keywords</text><text fill="#000000" font-family="sans-serif" font-size="26" lengthAdjust="spacing" textLength="39.0254" x="1351.1012" y="899.9974">0..*</text></g><!--link Dataset to DefinedTerm--><g class="link" data-entity-1="ent0003" data-entity-2="ent0016" data-link-type="dependency" data-source-line="67" id="lnk53"><path codeLine="67" d="M1350.59,80.6394 C1357.76,189.5994 1397.7958,797.9223 1405.0058,907.4223" fill="none" id="Dataset-to-DefinedTerm-1" style="stroke:#404040;stroke-width:1.2;"/><polygon fill="#404040" points="1405.4,913.4094,1408.8,904.166,1405.0715,908.4202,1400.8173,904.6916,1405.4,913.4094" style="stroke:#404040;stroke-width:1.2;"/><text fill="#000000" font-family="sans-serif" font-size="26" lengthAdjust="spacing" textLength="280.376" x="1380.5" y="507.5996">measurementTechnique</text><text fill="#000000" font-family="sans-serif" font-size="26" lengthAdjust="spacing" textLength="39.0254" x="1410.1701" y="899.8341">0..*</text></g><!--link Dataset to Reference--><g class="link" data-entity-1="ent0003" data-entity-2="ent0019" data-link-type="dependency" data-source-line="66" id="lnk52"><path codeLine="66" d="M1387.05,73.2294 C1466.35,94.1294 1653.16,152.2394 1769.5,260.6094 C1771.79,262.7394 1858.8893,420.2672 1888.3593,473.6272" fill="none" id="Dataset-to-Reference" style="stroke:#404040;stroke-width:1.2;"/><polygon fill="#404040" points="1891.26,478.8794,1890.4104,469.0672,1888.8427,474.5025,1883.4074,472.9349,1891.26,478.8794" style="stroke:#404040;stroke-width:1.2;"/><text fill="#000000" font-family="sans-serif" font-size="26" lengthAdjust="spacing" textLength="80.9326" x="1788.5" y="288.5996">license</text><text fill="#000000" font-family="sans-serif" font-size="26" lengthAdjust="spacing" textLength="39.0254" x="1844.8633" y="465.2964">0..*</text></g><!--reverse link Dataset to VariableMeasured--><g class="link" data-entity-1="ent0003" data-entity-2="ent0025" data-link-type="composition" data-source-line="68" id="lnk54"><path codeLine="68" d="M1372.7644,89.5192 C1407.5544,127.5092 1487.8,214.8894 1562.5,294.6094 C1627.01,363.4594 1704.7,444.6994 1737.57,479.0094" fill="none" id="Dataset-backto-VariableMeasured" style="stroke:#404040;stroke-width:1.2;"/><polygon fill="#404040" points="1364.66,80.6694,1365.7622,87.7957,1372.7644,89.5192,1371.6621,82.3928,1364.66,80.6694" style="stroke:#404040;stroke-width:1.2;"/><text fill="#000000" font-family="sans-serif" font-size="26" lengthAdjust="spacing" textLength="206.667" x="1563.5" y="288.5996">variableMeasured</text><text fill="#000000" font-family="sans-serif" font-size="26" lengthAdjust="spacing" textLength="39.0254" x="1689.454" y="465.4597">0..*</text></g><!--reverse link Dataset to SpatialExtent--><g class="link" data-entity-1="ent0003" data-entity-2="ent0026" data-link-type="composition" data-source-line="69" id="lnk55"><path codeLine="69" d="M1399.1617,66.6613 C1560.9817,75.6013 2182.39,118.6794 2307.5,260.6094 C2335.98,292.9194 2329.79,430.9794 2326.7,479.0394" fill="none" id="Dataset-backto-SpatialExtent" style="stroke:#404040;stroke-width:1.2;"/><polygon fill="#404040" points="1387.18,65.9994,1392.9502,70.3243,1399.1617,66.6613,1393.3915,62.3364,1387.18,65.9994" style="stroke:#404040;stroke-width:1.2;"/><text fill="#000000" font-family="sans-serif" font-size="26" lengthAdjust="spacing" textLength="187.8906" x="2321.5" y="288.5996">spatialCoverage</text><text fill="#000000" font-family="sans-serif" font-size="26" lengthAdjust="spacing" textLength="39.0254" x="2283.0329" y="465.4974">0..*</text></g><!--reverse link Dataset to TemporalExtent--><g class="link" data-entity-1="ent0003" data-entity-2="ent0027" data-link-type="composition" data-source-line="70" id="lnk56"><path codeLine="70" d="M1399.2586,64.7049 C1581.6286,67.5249 2356.85,89.3894 2512.5,260.6094 C2569.05,322.8094 2545.76,436.5794 2534.38,479.0394" fill="none" id="Dataset-backto-TemporalExtent" style="stroke:#404040;stroke-width:1.2;"/><polygon fill="#404040" points="1387.26,64.5194,1393.1974,68.6117,1399.2586,64.7049,1393.3211,60.6126,1387.26,64.5194" style="stroke:#404040;stroke-width:1.2;"/><text fill="#000000" font-family="sans-serif" font-size="26" lengthAdjust="spacing" textLength="213.8906" x="2534.5" y="288.5996">temporalCoverage</text><text fill="#000000" font-family="sans-serif" font-size="26" lengthAdjust="spacing" textLength="39.0254" x="2491.6149" y="465.4974">0..*</text></g><!--reverse link Dataset to QualityMeasurement--><g class="link" data-entity-1="ent0003" data-entity-2="ent0029" data-link-type="composition" data-source-line="71" id="lnk57"><path codeLine="71" d="M1399.1685,64.6578 C1564.7485,67.2578 2230.89,88.2494 2751.5,260.6094 C2918.28,315.8194 3095.78,434.8694 3158.19,478.8394" fill="none" id="Dataset-backto-QualityMeasurement" style="stroke:#404040;stroke-width:1.2;"/><polygon fill="#404040" points="1387.17,64.4694,1393.1065,68.5631,1399.1685,64.6578,1393.2321,60.5641,1387.17,64.4694" style="stroke:#404040;stroke-width:1.2;"/><text fill="#000000" font-family="sans-serif" font-size="26" lengthAdjust="spacing" textLength="281.7979" x="2840.5" y="288.5996">hasQualityMeasurement</text><text fill="#000000" font-family="sans-serif" font-size="26" lengthAdjust="spacing" textLength="39.0254" x="3108.2845" y="465.2461">0..*</text></g><!--link DataDownload to Agent--><g class="link" data-entity-1="ent0005" data-entity-2="ent0011" data-link-type="dependency" data-source-line="72" id="lnk58"><path codeLine="72" d="M491.02,948.7194 C483.56,988.8994 469.93,1093.1294 512.5,1162.6094 C580.95,1274.3194 733.3324,1329.8573 798.6824,1349.4373" fill="none" id="DataDownload-to-Agent" style="stroke:#404040;stroke-width:1.2;"/><polygon fill="#404040" points="804.43,1351.1594,796.9567,1344.7446,799.6404,1349.7243,794.6606,1352.408,804.43,1351.1594" style="stroke:#404040;stroke-width:1.2;"/><text fill="#000000" font-family="sans-serif" font-size="26" lengthAdjust="spacing" textLength="93.9326" x="513.5" y="1156.5996">provider</text><text fill="#000000" font-family="sans-serif" font-size="26" lengthAdjust="spacing" textLength="39.0254" x="757.3657" y="1379.3626">0..*</text></g><!--link WebAPI to Action--><g class="link" data-entity-1="ent0006" data-entity-2="ent0007" data-link-type="dependency" data-source-line="73" id="lnk59"><path codeLine="73" d="M336.63,948.6394 C332.92,982.4094 324.68,1061.7394 321.5,1128.6094 C317.69,1208.7594 318.5281,1298.7501 319.1081,1336.6101" fill="none" id="WebAPI-to-Action" style="stroke:#404040;stroke-width:1.2;"/><polygon fill="#404040" points="319.2,1342.6094,323.0617,1333.5492,319.1234,1337.61,315.0626,1333.6717,319.2,1342.6094" style="stroke:#404040;stroke-width:1.2;"/><text fill="#000000" font-family="sans-serif" font-size="26" lengthAdjust="spacing" textLength="170.5615" x="322.5" y="1156.5996">potentialAction</text><text fill="#000000" font-family="sans-serif" font-size="26" lengthAdjust="spacing" textLength="39.0254" x="275.1826" y="1329.0853">0..*</text></g><!--link Action to EntryPoint--><g class="link" data-entity-1="ent0007" data-entity-2="ent0008" data-link-type="dependency" data-source-line="74" id="lnk60"><path codeLine="74" d="M312.68,1377.6894 C299.08,1411.2194 268.2,1489.6794 248.5,1557.6094 C225.61,1636.5294 208.3518,1727.3141 201.4818,1765.5241" fill="none" id="Action-to-EntryPoint" style="stroke:#404040;stroke-width:1.2;"/><polygon fill="#404040" points="200.42,1771.4294,205.9495,1763.2792,201.3048,1766.5083,198.0758,1761.8636,200.42,1771.4294" style="stroke:#404040;stroke-width:1.2;"/><text fill="#000000" font-family="sans-serif" font-size="26" lengthAdjust="spacing" textLength="66.4854" x="249.5" y="1585.5996">target</text><text fill="#000000" font-family="sans-serif" font-size="26" lengthAdjust="spacing" textLength="14.46" x="185.3994" y="1757.8592">1</text></g><!--link Action to ActionResult--><g class="link" data-entity-1="ent0007" data-entity-2="ent0009" data-link-type="dependency" data-source-line="75" id="lnk61"><path codeLine="75" d="M319.5,1377.8494 C319.5,1446.1594 319.5,1697.3894 319.5,1765.4894" fill="none" id="Action-to-ActionResult" style="stroke:#404040;stroke-width:1.2;"/><polygon fill="#404040" points="319.5,1771.4894,323.5,1762.4894,319.5,1766.4894,315.5,1762.4894,319.5,1771.4894" style="stroke:#404040;stroke-width:1.2;"/><text fill="#000000" font-family="sans-serif" font-size="26" lengthAdjust="spacing" textLength="63.5781" x="320.5" y="1585.5996">result</text><text fill="#000000" font-family="sans-serif" font-size="26" lengthAdjust="spacing" textLength="43.3672" x="271.0024" y="1757.9346">0..1</text></g><!--link Action to PropertyValueSpecification--><g class="link" data-entity-1="ent0007" data-entity-2="ent0010" data-link-type="dependency" data-source-line="76" id="lnk62"><path codeLine="76" d="M327.18,1377.8494 C358.54,1446.1594 474.1069,1697.9364 505.3669,1766.0364" fill="none" id="Action-to-PropertyValueSpecification" style="stroke:#404040;stroke-width:1.2;"/><polygon fill="#404040" points="507.87,1771.4894,507.7507,1761.6412,505.7841,1766.9453,500.4801,1764.9787,507.87,1771.4894" style="stroke:#404040;stroke-width:1.2;"/><text fill="#000000" font-family="sans-serif" font-size="26" lengthAdjust="spacing" textLength="122.8652" x="424.5" y="1585.5996">queryInput</text><text fill="#000000" font-family="sans-serif" font-size="26" lengthAdjust="spacing" textLength="39.0254" x="461.9037" y="1757.9346">0..*</text></g><!--link Contributor to Agent--><g class="link" data-entity-1="ent0015" data-entity-2="ent0011" data-link-type="dependency" data-source-line="77" id="lnk63"><path codeLine="77" d="M993.69,733.6294 C983.91,767.3594 961.14,846.6394 943.5,913.6094 C899.58,1080.3994 852.6472,1277.8696 838.7872,1336.6396" fill="none" id="Contributor-to-Agent" style="stroke:#404040;stroke-width:1.2;"/><polygon fill="#404040" points="837.41,1342.4794,843.369,1334.6378,838.5577,1337.6129,835.5826,1332.8015,837.41,1342.4794" style="stroke:#404040;stroke-width:1.2;"/><text fill="#000000" font-family="sans-serif" font-size="26" lengthAdjust="spacing" textLength="122.8398" x="944.5" y="942.0996">contributor</text><text fill="#000000" font-family="sans-serif" font-size="26" lengthAdjust="spacing" textLength="43.3672" x="871.1455" y="1367.6722">0..1</text></g><!--link MonetaryGrant to Agent--><g class="link" data-entity-1="ent0020" data-entity-2="ent0011" data-link-type="dependency" data-source-line="78" id="lnk64"><path codeLine="78" d="M1122.81,733.8694 C1116.26,772.6694 1097.65,871.2794 1066.5,948.6094 C1001.13,1110.8994 886.1489,1283.0718 848.6389,1337.4018" fill="none" id="MonetaryGrant-to-Agent" style="stroke:#404040;stroke-width:1.2;"/><polygon fill="#404040" points="845.23,1342.3394,853.6351,1337.2057,848.0708,1338.2248,847.0517,1332.6605,845.23,1342.3394" style="stroke:#404040;stroke-width:1.2;"/><text fill="#000000" font-family="sans-serif" font-size="26" lengthAdjust="spacing" textLength="73.7217" x="1080.5" y="942.0996">funder</text><text fill="#000000" font-family="sans-serif" font-size="26" lengthAdjust="spacing" textLength="39.0254" x="853.2019" y="1328.7461">0..*</text></g><!--link CatalogRecord to Agent--><g class="link" data-entity-1="ent0023" data-entity-2="ent0011" data-link-type="dependency" data-source-line="80" id="lnk66"><path codeLine="80" d="M1143.25,514.1794 C1156.64,548.0894 1186.21,628.1594 1196.5,698.6094 C1209.17,785.3794 1181.85,894.6394 1157.5,948.6094 C1078.35,1124.0594 912.4929,1286.3633 856.3129,1338.3733" fill="none" id="CatalogRecord-to-Agent" style="stroke:#404040;stroke-width:1.2;"/><polygon fill="#404040" points="851.91,1342.4494,861.2317,1339.2705,855.5791,1339.0526,855.797,1333.4,851.91,1342.4494" style="stroke:#404040;stroke-width:1.2;"/><text fill="#000000" font-family="sans-serif" font-size="26" lengthAdjust="spacing" textLength="121.3926" x="1172.5" y="942.0996">maintainer</text><text fill="#000000" font-family="sans-serif" font-size="26" lengthAdjust="spacing" textLength="43.3672" x="870.3919" y="1368.7983">0..1</text></g><!--link VariableMeasured to DefinedTerm--><g class="link" data-entity-1="ent0025" data-entity-2="ent0016" data-link-type="dependency" data-source-line="81" id="lnk67"><path codeLine="81" d="M1740.11,514.2994 C1684.93,583.0694 1479.2445,839.4393 1423.7945,908.5593" fill="none" id="VariableMeasured-to-DefinedTerm" style="stroke:#404040;stroke-width:1.2;"/><polygon fill="#404040" points="1420.04,913.2394,1428.7919,908.7222,1423.1688,909.3393,1422.5517,903.7162,1420.04,913.2394" style="stroke:#404040;stroke-width:1.2;"/><text fill="#000000" font-family="sans-serif" font-size="26" lengthAdjust="spacing" textLength="280.376" x="1591.5" y="727.0996">measurementTechnique</text><text fill="#000000" font-family="sans-serif" font-size="26" lengthAdjust="spacing" textLength="43.3672" x="1428.675" y="900.0404">0..1</text></g><!--reverse link SpatialExtent to AbstractGeometry--><g class="link" data-entity-1="ent0026" data-entity-2="ent0030" data-link-type="composition" data-source-line="82" id="lnk68"><path codeLine="82" d="M2316.5869,525.7393 C2294.8069,594.5093 2215.74,844.1194 2193.84,913.2394" fill="none" id="SpatialExtent-backto-AbstractGeometry" style="stroke:#404040;stroke-width:1.2;"/><polygon fill="#404040" points="2320.21,514.2994,2314.5851,518.8117,2316.5869,525.7393,2322.2118,521.2271,2320.21,514.2994" style="stroke:#404040;stroke-width:1.2;"/><text fill="#000000" font-family="sans-serif" font-size="26" lengthAdjust="spacing" textLength="43.3799" x="2262.5" y="727.0996">geo</text><text fill="#000000" font-family="sans-serif" font-size="26" lengthAdjust="spacing" textLength="43.3672" x="2146.926" y="900.0404">0..1</text></g><!--reverse link SpatialExtent to Geometry--><g class="link" data-entity-1="ent0026" data-entity-2="ent0033" data-link-type="composition" data-source-line="83" id="lnk69"><path codeLine="83" d="M2326.0316,526.2973 C2327.3016,595.0673 2331.91,844.1194 2333.19,913.2394" fill="none" id="SpatialExtent-backto-Geometry" style="stroke:#404040;stroke-width:1.2;"/><polygon fill="#404040" points="2325.81,514.2994,2321.9215,520.3722,2326.0316,526.2973,2329.9201,520.2245,2325.81,514.2994" style="stroke:#404040;stroke-width:1.2;"/><text fill="#000000" font-family="sans-serif" font-size="26" lengthAdjust="spacing" textLength="156.0635" x="2331.5" y="727.0996">hasGeometry</text><text fill="#000000" font-family="sans-serif" font-size="26" lengthAdjust="spacing" textLength="43.3672" x="2284.9426" y="900.0404">0..1</text></g><!--reverse link TemporalExtent to Instant--><g class="link" data-entity-1="ent0027" data-entity-2="ent0034" data-link-type="composition" data-source-line="84" id="lnk70"><path codeLine="84" d="M2525.2669,526.0422 C2519.7969,564.8922 2510.42,652.8294 2527.5,733.6094 C2542.48,804.4194 2584.72,880.7594 2604.3,913.5794" fill="none" id="TemporalExtent-backto-Instant" style="stroke:#404040;stroke-width:1.2;"/><polygon fill="#404040" points="2526.94,514.1594,2522.1425,519.5431,2525.2669,526.0422,2530.0644,520.6585,2526.94,514.1594" style="stroke:#404040;stroke-width:1.2;"/><text fill="#000000" font-family="sans-serif" font-size="26" lengthAdjust="spacing" textLength="157.5742" x="2528.5" y="727.0996">hasBeginning</text><text fill="#000000" font-family="sans-serif" font-size="26" lengthAdjust="spacing" textLength="43.3672" x="2553.2189" y="900.0476">0..1</text></g><!--reverse link TemporalExtent to Instant--><g class="link" data-entity-1="ent0027" data-entity-2="ent0034" data-link-type="composition" data-source-line="85" id="lnk71"><path codeLine="85" d="M2557.9523,522.2104 C2593.3423,553.8004 2658.09,618.5794 2685.5,698.6094 C2712.81,778.3494 2653.79,875.1894 2626.92,913.4294" fill="none" id="TemporalExtent-backto-Instant-1" style="stroke:#404040;stroke-width:1.2;"/><polygon fill="#404040" points="2549,514.2194,2550.8125,521.199,2557.9523,522.2104,2556.1398,515.2308,2549,514.2194" style="stroke:#404040;stroke-width:1.2;"/><text fill="#000000" font-family="sans-serif" font-size="26" lengthAdjust="spacing" textLength="88.1816" x="2693.5" y="727.0996">hasEnd</text><text fill="#000000" font-family="sans-serif" font-size="26" lengthAdjust="spacing" textLength="43.3672" x="2635.654" y="899.8592">0..1</text></g><!--link TemporalExtent to TemporalExtent--><g class="link" data-entity-1="ent0027" data-entity-2="ent0027" data-link-type="dependency" data-source-line="86" id="lnk72"><path codeLine="86" d="M2562.72,479.0494 C2589.43,472.0194 2617,477.8794 2617,496.6094 C2617,515.3394 2595.2324,522.7265 2568.5224,515.6965" fill="none" id="TemporalExtent-to-TemporalExtent" style="stroke:#404040;stroke-width:1.2;"/><polygon fill="#404040" points="2562.72,514.1694,2570.4055,520.3284,2567.5553,515.442,2572.4417,512.5919,2562.72,514.1694" style="stroke:#404040;stroke-width:1.2;"/><text fill="#000000" font-family="sans-serif" font-size="26" lengthAdjust="spacing" textLength="197.9834" x="2623" y="507.5996">intervalStartedBy</text><text fill="#000000" font-family="sans-serif" font-size="26" lengthAdjust="spacing" textLength="39.0254" x="2575.5526" y="549.4065">0..*</text></g><!--link TemporalExtent to TemporalExtent--><g class="link" data-entity-1="ent0027" data-entity-2="ent0027" data-link-type="dependency" data-source-line="87" id="lnk73"><path codeLine="87" d="M2551.47,478.9694 C2624,442.9394 2826,448.8194 2826,496.6094 C2826,544.3994 2629.3735,552.9487 2556.8435,516.9187" fill="none" id="TemporalExtent-to-TemporalExtent-1" style="stroke:#404040;stroke-width:1.2;"/><polygon fill="#404040" points="2551.47,514.2494,2557.7507,521.8357,2555.9479,516.4738,2561.3098,514.6711,2551.47,514.2494" style="stroke:#404040;stroke-width:1.2;"/><text fill="#000000" font-family="sans-serif" font-size="26" lengthAdjust="spacing" textLength="212.4307" x="2832" y="507.5996">intervalFinishedBy</text><text fill="#000000" font-family="sans-serif" font-size="26" lengthAdjust="spacing" textLength="39.0254" x="2513.0243" y="549.0821">0..*</text></g><!--link QualityMeasurement to QualityMeasure--><g class="link" data-entity-1="ent0029" data-entity-2="ent0028" data-link-type="dependency" data-source-line="88" id="lnk74"><path codeLine="88" d="M3181.5,514.2994 C3181.5,583.0694 3181.5,838.1194 3181.5,907.2394" fill="none" id="QualityMeasurement-to-QualityMeasure" style="stroke:#404040;stroke-width:1.2;"/><polygon fill="#404040" points="3181.5,913.2394,3185.5,904.2394,3181.5,908.2394,3177.5,904.2394,3181.5,913.2394" style="stroke:#404040;stroke-width:1.2;"/><text fill="#000000" font-family="sans-serif" font-size="26" lengthAdjust="spacing" textLength="205.1816" x="3182.5" y="727.0996">isMeasurementOf</text><text fill="#000000" font-family="sans-serif" font-size="26" lengthAdjust="spacing" textLength="14.46" x="3165.8427" y="900.0404">1</text></g><!--reverse link Instant to TimePosition--><g class="link" data-entity-1="ent0034" data-entity-2="ent0035" data-link-type="composition" data-source-line="89" id="lnk75"><path codeLine="89" d="M2614.5,960.8494 C2614.5,1029.1594 2614.5,1274.3894 2614.5,1342.4894" fill="none" id="Instant-backto-TimePosition" style="stroke:#404040;stroke-width:1.2;"/><polygon fill="#404040" points="2614.5,948.8494,2610.5,954.8494,2614.5,960.8494,2618.5,954.8494,2614.5,948.8494" style="stroke:#404040;stroke-width:1.2;"/><text fill="#000000" font-family="sans-serif" font-size="26" lengthAdjust="spacing" textLength="170.5107" x="2615.5" y="1156.5996">inTimePosition</text><text fill="#000000" font-family="sans-serif" font-size="26" lengthAdjust="spacing" textLength="43.3672" x="2566.0895" y="1328.9346">0..1</text></g><?plantuml-src dLVRRkCs47tNLn39sm89aiqcA8IYW2FRGHuMSUDW-qnBOvkDHAeaRTVRBj2Fw1VsIpeIHOcaQ6zH1078mpCN3eT7j6Qw19892LEcSh47UIJ__FKtQKPx1eTaomeWEPDv2MOCLQsFf89g1L8bwftncafQ4RMbXJWmlY5hMYfmLYPIYiFRbkNl79GYjzSVdKL9-Rk2cjmzt3We5mKqwEqd1onWJNUbdWkkb-mha8yFpc9UKlJzHq9Ck4oKGfBBJpVD7uAFGXOWGzHrXOPQIxRQQHZWc-HRaj2LqfBckejnaOcg5effM4YnPYLS4Af829BB-Mm-osP9PpIbcYhGBRSRzvGmmAIRuv6OZ9ZWhM5iWLnE7sQJ-GzkeAauy5BGeezcWJ2hNs0rMJotD3D4GZQ_o-QMCCc7u7ait8nhULm8nitMXcb8DEQleF087Ny62CDY4MkG-lY5bZjOrf2pDSjfdyhfvJxggAORw59iHs5s2sncwxmTXeGCUmBT3JjrWP3y8ZUKiwz3mYuGyzmUff2zusu-EbjOCmx56yZA7EqmnmfEPlVJEqjzBd2NM1OmJeVfw5oAWZLfqT9MrLHf18U6hx062Jmt_T_FGjfdmK5JUNp2csugvo6ZWv1YttJ6ddM9kC3eKe5aUoZcKjXwzFDHbV4Mb6Bp2ZagWQcpYuIUiuAjyI1ogFMBxEizGiEgVw6IqLK9du6gdGGJA0GnjVlv_QmtMjRO5xIS_QvjYtf8I7z31HRIu_jGQF3pZfPOl2vyQ-13vmqg6sKCzuQd5Em9H0Me29vwMJ0CYtWcy2mOfnfKQ-934OFbbjPWgUqaGXfIE1NwcIjjsxCRZyhEAbWq2c_lj0lqvAX2__ZdrPKdmsTeHeOJ8r8jOlJ8HLmrIKPLRIb-uKwJsf8bzeDqTVKJkRYvllvmqQbaIcgyVlZPbr5ER1SfAPpfETUv18eY5wEu6eZ4OJOYtpgfxbObKzjuhhxef6IzurYSJOpgAKvA3bGz0GU9XImUZp43LtPQlWFuVCpMbvsKgDtgLyZrophkUH3ubBp3yO16AiOSz3Sb9Sk1A_Y-msguoc-GRpdxRJTOVS0EwQn62fQIVG35p7mPmwsQUTOyBkac6YbGifJe3ZXd516cb6of6kE9znWwr-xTSyYbv5r_rwB93JTYaAHRi0ViF84mVIete3rArxJkwoSbiXs4FDECfvuwAS7ZaiTdNkzqujwOoDrmhv1_5I95QEu6bi3lLCUfFOAKq9LeOfyYMeSLnMhWFpeTjPBhz_lDwRUKxO7RY_779IKR4AVv3c_RN70pIuB-SmpiPw7bFyA6STxentyqcF4Yf3g57tKzbWj_Vz5oYUTaPET_6CyPR-ImiOxS4DkkmLC0pPL3Grco-t2svdtwce0kaFmB?></g></svg>