<svg xmlns="http://www.w3.org/2000/svg" xmlns:xlink="http://www.w3.org/1999/xlink" contentStyleType="text/css" data-diagram-type="CLASS" height="1896px" preserveAspectRatio="none" style="width:2925px;height:1896px;background:#FFFFFF;" version="1.1" viewBox="0 0 2925 1896" width="2925px" zoomAndPan="magnify"><?plantuml 1.2026.3?><defs/><g><g class="title" data-source-line="1"><text fill="#000000" font-family="sans-serif" font-size="14" font-weight="700" lengthAdjust="spacing" textLength="256.4297" x="1331.0469" y="24.5332">DiscoveryDataDescription &#8212; overview</text></g><!--class CompositeProfile--><g class="entity" data-qualified-name="CompositeProfile" data-source-line="16" id="ent0002"><rect fill="#FEFECE" height="47.7344" rx="2.5" ry="2.5" style="stroke:#404040;stroke-width:0.5;" width="234.4277" x="1381.5" y="110.0394"/><text fill="#000000" font-family="sans-serif" font-size="30" font-style="italic" lengthAdjust="spacing" textLength="228.4277" x="1384.5" y="146.182">CompositeProfile</text></g><!--class Dataset--><g class="entity" data-qualified-name="Dataset" data-source-line="17" id="ent0003"><rect fill="#FEFECE" height="47.7344" rx="2.5" ry="2.5" style="stroke:#404040;stroke-width:0.5;" width="109.3887" x="1636" y="110.0394"/><text fill="#000000" font-family="sans-serif" font-size="30" lengthAdjust="spacing" textLength="103.3887" x="1639" y="146.182">Dataset</text></g><!--class DataDownload--><g class="entity" data-qualified-name="DataDownload" data-source-line="18" id="ent0004"><rect fill="#FEFECE" height="47.7344" rx="2.5" ry="2.5" style="stroke:#404040;stroke-width:0.5;" width="202.7871" x="801" y="455.0394"/><text fill="#000000" font-family="sans-serif" font-size="30" lengthAdjust="spacing" textLength="196.7871" x="804" y="491.182">DataDownload</text></g><!--class WebAPI--><g class="entity" data-qualified-name="WebAPI" data-source-line="19" id="ent0005"><rect fill="#FCF3CF" height="47.7344" rx="2.5" ry="2.5" style="stroke:#404040;stroke-width:0.5;" width="116.0391" x="1106.5" y="455.0394"/><text fill="#000000" font-family="sans-serif" font-size="30" lengthAdjust="spacing" textLength="110.0391" x="1109.5" y="491.182">WebAPI</text></g><!--class ActionResult--><g class="entity" data-qualified-name="ActionResult" data-source-line="20" id="ent0006"><rect fill="#FCF3CF" height="47.7344" rx="2.5" ry="2.5" style="stroke:#404040;stroke-width:0.5;" width="174.4131" x="1432.5" y="800.0394"/><text fill="#000000" font-family="sans-serif" font-size="30" lengthAdjust="spacing" textLength="168.4131" x="1435.5" y="836.182">ActionResult</text></g><!--class DefinedTerm--><g class="entity" data-qualified-name="DefinedTerm" data-source-line="21" id="ent0007"><rect fill="#FAE5D3" height="47.7344" rx="2.5" ry="2.5" style="stroke:#404040;stroke-width:0.5;" width="179.3936" x="1304" y="455.0394"/><text fill="#000000" font-family="sans-serif" font-size="30" lengthAdjust="spacing" textLength="173.3936" x="1307" y="491.182">DefinedTerm</text></g><!--class ProvActivity--><g class="entity" data-qualified-name="ProvActivity" data-source-line="22" id="ent0008"><rect fill="#FEFECE" height="47.7344" rx="2.5" ry="2.5" style="stroke:#404040;stroke-width:0.5;" width="162.6943" x="1817" y="455.0394"/><text fill="#000000" font-family="sans-serif" font-size="30" lengthAdjust="spacing" textLength="156.6943" x="1820" y="491.182">ProvActivity</text></g><!--class CatalogRecord--><g class="entity" data-qualified-name="CatalogRecord" data-source-line="23" id="ent0009"><rect fill="#FEFECE" height="47.7344" rx="2.5" ry="2.5" style="stroke:#404040;stroke-width:0.5;" width="206.1123" x="2144.5" y="455.0394"/><text fill="#000000" font-family="sans-serif" font-size="30" lengthAdjust="spacing" textLength="200.1123" x="2147.5" y="491.182">CatalogRecord</text></g><!--class InstanceVariable--><g class="entity" data-qualified-name="InstanceVariable" data-source-line="24" id="ent0010"><rect fill="#FCF3CF" height="47.7344" rx="2.5" ry="2.5" style="stroke:#404040;stroke-width:0.5;" width="229.4766" x="311" y="1490.0394"/><text fill="#000000" font-family="sans-serif" font-size="30" lengthAdjust="spacing" textLength="223.4766" x="314" y="1526.182">InstanceVariable</text></g><!--class AbstractMapping--><g class="entity" data-qualified-name="AbstractMapping" data-source-line="25" id="ent0011"><rect fill="#FCF3CF" height="47.7344" rx="2.5" ry="2.5" style="stroke:#404040;stroke-width:0.5;" width="231.1172" x="965" y="1145.0394"/><text fill="#000000" font-family="sans-serif" font-size="30" font-style="italic" lengthAdjust="spacing" textLength="225.1172" x="968" y="1181.182">AbstractMapping</text></g><!--class PhysicalMapping--><g class="entity" data-qualified-name="PhysicalMapping" data-source-line="26" id="ent0012"><rect fill="#FCF3CF" height="47.7344" rx="2.5" ry="2.5" style="stroke:#404040;stroke-width:0.5;" width="232.7871" x="738" y="1490.0394"/><text fill="#000000" font-family="sans-serif" font-size="30" lengthAdjust="spacing" textLength="226.7871" x="741" y="1526.182">PhysicalMapping</text></g><!--class TextMapping--><g class="entity" data-qualified-name="TextMapping" data-source-line="27" id="ent0013"><rect fill="#FCF3CF" height="47.7344" rx="2.5" ry="2.5" style="stroke:#404040;stroke-width:0.5;" width="179.4229" x="991" y="1490.0394"/><text fill="#000000" font-family="sans-serif" font-size="30" lengthAdjust="spacing" textLength="173.4229" x="994" y="1526.182">TextMapping</text></g><!--class LocatorMapping--><g class="entity" data-qualified-name="LocatorMapping" data-source-line="28" id="ent0014"><rect fill="#FCF3CF" height="47.7344" rx="2.5" ry="2.5" style="stroke:#404040;stroke-width:0.5;" width="221.1416" x="1190" y="1490.0394"/><text fill="#000000" font-family="sans-serif" font-size="30" lengthAdjust="spacing" textLength="215.1416" x="1193" y="1526.182">LocatorMapping</text></g><!--class AbstractDataSet--><g class="entity" data-qualified-name="AbstractDataSet" data-source-line="29" id="ent0015"><rect fill="#FCF3CF" height="47.7344" rx="2.5" ry="2.5" style="stroke:#404040;stroke-width:0.5;" width="224.4375" x="555.5" y="800.0394"/><text fill="#000000" font-family="sans-serif" font-size="30" font-style="italic" lengthAdjust="spacing" textLength="218.4375" x="558.5" y="836.182">AbstractDataSet</text></g><!--class TabularTextDataSet--><g class="entity" data-qualified-name="TabularTextDataSet" data-source-line="30" id="ent0016"><rect fill="#FCF3CF" height="47.7344" rx="2.5" ry="2.5" style="stroke:#404040;stroke-width:0.5;" width="274.4619" x="611.5" y="1145.0394"/><text fill="#000000" font-family="sans-serif" font-size="30" lengthAdjust="spacing" textLength="268.4619" x="614.5" y="1181.182">TabularTextDataSet</text></g><!--class StructuredDataSet--><g class="entity" data-qualified-name="StructuredDataSet" data-source-line="31" id="ent0017"><rect fill="#FCF3CF" height="47.7344" rx="2.5" ry="2.5" style="stroke:#404040;stroke-width:0.5;" width="252.7969" x="338" y="1145.0394"/><text fill="#000000" font-family="sans-serif" font-size="30" lengthAdjust="spacing" textLength="246.7969" x="341" y="1181.182">StructuredDataSet</text></g><!--class DataFingerprint--><g class="entity" data-qualified-name="DataFingerprint" data-source-line="32" id="ent0018"><rect fill="#FCF3CF" height="47.7344" rx="2.5" ry="2.5" style="stroke:#404040;stroke-width:0.5;" width="212.7627" x="800" y="800.0394"/><text fill="#000000" font-family="sans-serif" font-size="30" lengthAdjust="spacing" textLength="206.7627" x="803" y="836.182">DataFingerprint</text></g><!--class PrimaryKey--><g class="entity" data-qualified-name="PrimaryKey" data-source-line="33" id="ent0019"><rect fill="#FAE5D3" height="47.7344" rx="2.5" ry="2.5" style="stroke:#404040;stroke-width:0.5;" width="161.0244" x="2417" y="455.0394"/><text fill="#000000" font-family="sans-serif" font-size="30" lengthAdjust="spacing" textLength="155.0244" x="2420" y="491.182">PrimaryKey</text></g><!--class Statistics--><g class="entity" data-qualified-name="Statistics" data-source-line="34" id="ent0020"><rect fill="#FCF3CF" height="47.7344" rx="2.5" ry="2.5" style="stroke:#404040;stroke-width:0.5;" width="126.0293" x="2705.5" y="455.0394"/><text fill="#000000" font-family="sans-serif" font-size="30" lengthAdjust="spacing" textLength="120.0293" x="2708.5" y="491.182">Statistics</text></g><!--class SubstantiveValueDomain--><g class="entity" data-qualified-name="SubstantiveValueDomain" data-source-line="35" id="ent0021"><rect fill="#FAE5D3" height="47.7344" rx="2.5" ry="2.5" style="stroke:#404040;stroke-width:0.5;" width="342.8701" x="7" y="1835.0394"/><text fill="#000000" font-family="sans-serif" font-size="30" lengthAdjust="spacing" textLength="336.8701" x="10" y="1871.182">SubstantiveValueDomain</text></g><!--class SentinelValueDomain--><g class="entity" data-qualified-name="SentinelValueDomain" data-source-line="36" id="ent0022"><rect fill="#FAE5D3" height="47.7344" rx="2.5" ry="2.5" style="stroke:#404040;stroke-width:0.5;" width="294.5156" x="526" y="1835.0394"/><text fill="#000000" font-family="sans-serif" font-size="30" lengthAdjust="spacing" textLength="288.5156" x="529" y="1871.182">SentinelValueDomain</text></g><!--reverse link AbstractMapping to PhysicalMapping--><g class="link" data-entity-1="ent0011" data-entity-2="ent0012" data-link-type="extension" data-source-line="37" id="lnk23"><path codeLine="37" d="M1055.4162,1208.1099 C1014.3462,1270.4399 911.25,1426.9094 869.91,1489.6494" fill="none" id="AbstractMapping-backto-PhysicalMapping" style="stroke:#404040;stroke-width:1.2;"/><polygon fill="none" points="1065.32,1193.0794,1050.4061,1204.8086,1060.4264,1211.4111,1065.32,1193.0794" style="stroke:#404040;stroke-width:1.2;"/></g><!--reverse link AbstractMapping to TextMapping--><g class="link" data-entity-1="ent0011" data-entity-2="ent0013" data-link-type="extension" data-source-line="38" id="lnk24"><path codeLine="38" d="M1080.5,1211.0794 C1080.5,1273.4094 1080.5,1426.9094 1080.5,1489.6494" fill="none" id="AbstractMapping-backto-TextMapping" style="stroke:#404040;stroke-width:1.2;"/><polygon fill="none" points="1080.5,1193.0794,1074.5,1211.0794,1086.5,1211.0794,1080.5,1193.0794" style="stroke:#404040;stroke-width:1.2;"/></g><!--reverse link AbstractMapping to LocatorMapping--><g class="link" data-entity-1="ent0011" data-entity-2="ent0014" data-link-type="extension" data-source-line="39" id="lnk25"><path codeLine="39" d="M1104.9983,1208.2305 C1144.9783,1270.5605 1245.25,1426.9094 1285.5,1489.6494" fill="none" id="AbstractMapping-backto-LocatorMapping" style="stroke:#404040;stroke-width:1.2;"/><polygon fill="none" points="1095.28,1193.0794,1099.9479,1211.4699,1110.0486,1204.991,1095.28,1193.0794" style="stroke:#404040;stroke-width:1.2;"/></g><!--reverse link AbstractDataSet to TabularTextDataSet--><g class="link" data-entity-1="ent0015" data-entity-2="ent0016" data-link-type="extension" data-source-line="40" id="lnk26"><path codeLine="40" d="M677.0771,865.5975 C691.7971,927.9275 728.16,1081.9094 742.98,1144.6494" fill="none" id="AbstractDataSet-backto-TabularTextDataSet" style="stroke:#404040;stroke-width:1.2;"/><polygon fill="none" points="672.94,848.0794,671.2377,866.9765,682.9165,864.2184,672.94,848.0794" style="stroke:#404040;stroke-width:1.2;"/></g><!--reverse link AbstractDataSet to StructuredDataSet--><g class="link" data-entity-1="ent0015" data-entity-2="ent0017" data-link-type="extension" data-source-line="41" id="lnk27"><path codeLine="41" d="M644.7002,863.5686 C607.8002,925.8986 515.48,1081.9094 478.34,1144.6494" fill="none" id="AbstractDataSet-backto-StructuredDataSet" style="stroke:#404040;stroke-width:1.2;"/><polygon fill="none" points="653.87,848.0794,639.5372,860.512,649.8633,866.6252,653.87,848.0794" style="stroke:#404040;stroke-width:1.2;"/></g><!--link Dataset to ProvActivity--><g class="link" data-entity-1="ent0003" data-entity-2="ent0008" data-link-type="dependency" data-source-line="42" id="lnk28"><path codeLine="42" d="M1736.08,158.1494 C1779.5,182.7894 1842.8,226.0894 1874.5,283.0394 C1905.44,338.6194 1904.5146,410.7282 1901.4746,449.0382" fill="none" id="Dataset-to-ProvActivity" style="stroke:#404040;stroke-width:1.2;"/><polygon fill="#404040" points="1901,455.0194,1905.6994,446.364,1901.3955,450.035,1897.7245,445.7312,1901,455.0194" style="stroke:#404040;stroke-width:1.2;"/><text fill="#000000" font-family="sans-serif" font-size="36" lengthAdjust="spacing" textLength="276.1523" x="1893.5" y="321.4105">wasGeneratedBy</text><text fill="#000000" font-family="sans-serif" font-size="36" lengthAdjust="spacing" textLength="54.0352" x="1842.6663" y="439.1528">0..*</text></g><!--link Dataset to CatalogRecord--><g class="link" data-entity-1="ent0003" data-entity-2="ent0009" data-link-type="dependency" data-source-line="43" id="lnk29"><path codeLine="43" d="M1745.16,136.5194 C1843.98,142.1094 2053.39,167.7594 2175.5,283.0394 C2188.52,295.3294 2222.8233,400.081 2238.3933,449.091" fill="none" id="Dataset-to-CatalogRecord" style="stroke:#404040;stroke-width:1.2;"/><polygon fill="#404040" points="2240.21,454.8094,2241.2972,445.0207,2238.6961,450.0441,2233.6728,447.4429,2240.21,454.8094" style="stroke:#404040;stroke-width:1.2;"/><text fill="#000000" font-family="sans-serif" font-size="36" lengthAdjust="spacing" textLength="152.0684" x="2198.5" y="321.4105">subjectOf</text><text fill="#000000" font-family="sans-serif" font-size="36" lengthAdjust="spacing" textLength="20.0215" x="2217.2305" y="439.1957">1</text></g><!--link CatalogRecord to Dataset--><g class="link" data-entity-1="ent0009" data-entity-2="ent0003" data-link-type="dependency" data-source-line="56" id="lnk42"><path codeLine="56" d="M2277.62,454.8994 C2323.65,416.7494 2401.64,339.3094 2356.5,283.0394 C2279.65,187.2394 1896.2632,149.9775 1751.1232,139.1075" fill="none" id="CatalogRecord-to-Dataset" style="stroke:#404040;stroke-width:1.2;"/><polygon fill="#404040" points="1745.14,138.6594,1753.8161,143.3204,1750.126,139.0328,1754.4136,135.3427,1745.14,138.6594" style="stroke:#404040;stroke-width:1.2;"/><text fill="#000000" font-family="sans-serif" font-size="36" lengthAdjust="spacing" textLength="90.0879" x="2371.5" y="321.4105">about</text><text fill="#000000" font-family="sans-serif" font-size="36" lengthAdjust="spacing" textLength="60.0469" x="1753.4549" y="129.2973">0..1</text></g><!--link Dataset to DefinedTerm--><g class="link" data-entity-1="ent0003" data-entity-2="ent0007" data-link-type="dependency" data-source-line="44" id="lnk30"><path codeLine="44" d="M1635.63,155.1694 C1530.26,193.9394 1309.45,275.8394 1304.5,283.0394 C1265.39,339.9194 1325.4263,412.5379 1363.8063,450.5379" fill="none" id="Dataset-to-DefinedTerm" style="stroke:#404040;stroke-width:1.2;"/><polygon fill="#404040" points="1368.07,454.7594,1364.4888,445.5847,1364.5169,451.2415,1358.8601,451.2696,1368.07,454.7594" style="stroke:#404040;stroke-width:1.2;"/><text fill="#000000" font-family="sans-serif" font-size="36" lengthAdjust="spacing" textLength="152.0508" x="1305.5" y="321.4105">keywords</text><text fill="#000000" font-family="sans-serif" font-size="36" lengthAdjust="spacing" textLength="54.0352" x="1305.0278" y="439.1372">0..*</text></g><!--link Dataset to DefinedTerm--><g class="link" data-entity-1="ent0003" data-entity-2="ent0007" data-link-type="dependency" data-source-line="45" id="lnk31"><path codeLine="45" d="M1643.19,158.1594 C1596.16,183.2294 1524.7,227.2294 1479.5,283.0394 C1465.21,300.6794 1468.57,309.2294 1459.5,330.0394 C1440.17,374.3994 1419.4874,420.4902 1406.3774,449.5502" fill="none" id="Dataset-to-DefinedTerm-1" style="stroke:#404040;stroke-width:1.2;"/><polygon fill="#404040" points="1403.91,455.0194,1411.2572,448.4605,1405.9661,450.4617,1403.9649,445.1707,1403.91,455.0194" style="stroke:#404040;stroke-width:1.2;"/><text fill="#000000" font-family="sans-serif" font-size="36" lengthAdjust="spacing" textLength="388.2129" x="1480.5" y="321.4105">measurementTechnique</text><text fill="#000000" font-family="sans-serif" font-size="36" lengthAdjust="spacing" textLength="54.0352" x="1410.5417" y="439.1528">0..*</text></g><!--reverse link Dataset to InstanceVariable--><g class="link" data-entity-1="ent0003" data-entity-2="ent0010" data-link-type="composition" data-source-line="46" id="lnk32"><path codeLine="46" d="M1624.2507,158.6228 C1319.9607,237.6028 247.5,163.6694 247.5,478.0394 C247.5,478.0394 247.5,478.0394 247.5,1170.0394 C247.5,1303.8794 355.6,1437.4194 403.32,1489.8494" fill="none" id="Dataset-backto-InstanceVariable" style="stroke:#404040;stroke-width:1.2;"/><polygon fill="#404040" points="1635.74,155.1594,1628.8409,153.0613,1624.2507,158.6228,1631.1498,160.7209,1635.74,155.1594" style="stroke:#404040;stroke-width:1.2;"/><text fill="#000000" font-family="sans-serif" font-size="36" lengthAdjust="spacing" textLength="286.1543" x="248.5" y="838.9105">variableMeasured</text><text fill="#000000" font-family="sans-serif" font-size="36" lengthAdjust="spacing" textLength="54.0352" x="340.8293" y="1474.2426">1..*</text></g><!--reverse link Dataset to PrimaryKey--><g class="link" data-entity-1="ent0003" data-entity-2="ent0019" data-link-type="composition" data-source-line="47" id="lnk33"><path codeLine="47" d="M1757.0235,138.1285 C1916.8235,146.5185 2366.96,178.8494 2467.5,283.0394 C2512.57,329.7494 2507.36,414.1494 2501.6,454.8594" fill="none" id="Dataset-backto-PrimaryKey" style="stroke:#404040;stroke-width:1.2;"/><polygon fill="#404040" points="1745.04,137.4994,1750.822,141.8085,1757.0235,138.1285,1751.2415,133.8195,1745.04,137.4994" style="stroke:#404040;stroke-width:1.2;"/><text fill="#000000" font-family="sans-serif" font-size="36" lengthAdjust="spacing" textLength="244.0723" x="2495.5" y="321.4105">hasPrimaryKey</text><text fill="#000000" font-family="sans-serif" font-size="36" lengthAdjust="spacing" textLength="60.0469" x="2437.1504" y="439.2543">0..1</text></g><!--reverse link Dataset to Statistics--><g class="link" data-entity-1="ent0003" data-entity-2="ent0020" data-link-type="composition" data-source-line="48" id="lnk34"><path codeLine="48" d="M1757.2898,134.2735 C1953.3098,133.0335 2603.62,139.7394 2744.5,283.0394 C2789.81,329.1294 2781.19,413.8394 2773.66,454.7294" fill="none" id="Dataset-backto-Statistics" style="stroke:#404040;stroke-width:1.2;"/><polygon fill="#404040" points="1745.29,134.3494,1751.3152,138.3113,1757.2898,134.2735,1751.2646,130.3115,1745.29,134.3494" style="stroke:#404040;stroke-width:1.2;"/><text fill="#000000" font-family="sans-serif" font-size="36" lengthAdjust="spacing" textLength="138.0234" x="2771.5" y="321.4105">statistics</text><text fill="#000000" font-family="sans-serif" font-size="36" lengthAdjust="spacing" textLength="54.0352" x="2715.9068" y="439.102">0..*</text></g><!--reverse link Dataset to DataDownload--><g class="link" data-entity-1="ent0003" data-entity-2="ent0004" data-link-type="composition" data-source-line="49" id="lnk35"><path codeLine="49" d="M1624.2435,158.612 C1314.3735,240.112 1129.54,44.6094 915.5,283.0394 C872.66,330.7594 885.99,414.2994 895.9,454.7694" fill="none" id="Dataset-backto-DataDownload" style="stroke:#404040;stroke-width:1.2;"/><polygon fill="#404040" points="1635.73,155.1394,1628.8292,153.0469,1624.2435,158.612,1631.1443,160.7046,1635.73,155.1394" style="stroke:#404040;stroke-width:1.2;"/><text fill="#000000" font-family="sans-serif" font-size="36" lengthAdjust="spacing" textLength="174.0938" x="916.5" y="321.4105">distribution</text><text fill="#000000" font-family="sans-serif" font-size="36" lengthAdjust="spacing" textLength="54.0352" x="836.1463" y="439.1489">0..*</text></g><!--reverse link Dataset to WebAPI--><g class="link" data-entity-1="ent0003" data-entity-2="ent0005" data-link-type="composition" data-source-line="50" id="lnk36"><path codeLine="50" d="M1624.2332,158.5539 C1398.9032,225.6339 1256.78,98.1994 1111.5,283.0394 C1070.85,334.7594 1118.18,415.3194 1146.42,454.7394" fill="none" id="Dataset-backto-WebAPI" style="stroke:#404040;stroke-width:1.2;"/><polygon fill="#404040" points="1635.66,154.8894,1628.7251,152.9127,1624.2332,158.5539,1631.1681,160.5306,1635.66,154.8894" style="stroke:#404040;stroke-width:1.2;"/><text fill="#000000" font-family="sans-serif" font-size="36" lengthAdjust="spacing" textLength="174.0938" x="1112.5" y="321.4105">distribution</text><text fill="#000000" font-family="sans-serif" font-size="36" lengthAdjust="spacing" textLength="54.0352" x="1084.6715" y="439.1137">0..*</text></g><!--reverse link DataDownload to AbstractMapping--><g class="link" data-entity-1="ent0004" data-entity-2="ent0011" data-link-type="composition" data-source-line="51" id="lnk37"><path codeLine="51" d="M953.0524,509.6344 C992.4424,534.7144 1039.89,572.2894 1065.5,628.0394 C1087.26,675.3894 1082.54,1047.5294 1080.92,1144.8294" fill="none" id="DataDownload-backto-AbstractMapping" style="stroke:#404040;stroke-width:1.2;"/><polygon fill="#404040" points="942.93,503.1894,945.8428,509.786,953.0524,509.6344,950.1395,503.0378,942.93,503.1894" style="stroke:#404040;stroke-width:1.2;"/><text fill="#000000" font-family="sans-serif" font-size="36" lengthAdjust="spacing" textLength="330.1875" x="1083.5" y="838.9105">hasPhysicalMapping</text><text fill="#000000" font-family="sans-serif" font-size="36" lengthAdjust="spacing" textLength="54.0352" x="1022.3445" y="1129.2192">0..*</text></g><!--reverse link DataDownload to AbstractDataSet--><g class="link" data-entity-1="ent0004" data-entity-2="ent0015" data-link-type="aggregation" data-source-line="52" id="lnk38"><path codeLine="52" d="M833.3611,508.2524 C782.7711,531.6824 723.08,568.0094 687.5,628.0394 C655.14,682.6394 659.31,761.1794 663.97,799.7994" fill="none" id="DataDownload-backto-AbstractDataSet" style="stroke:#404040;stroke-width:1.2;"/><polygon fill="none" points="844.25,503.2094,837.1245,502.1013,833.3611,508.2524,840.4866,509.3605,844.25,503.2094" style="stroke:#404040;stroke-width:1.2;"/><text fill="#000000" font-family="sans-serif" font-size="36" lengthAdjust="spacing" textLength="208.1074" x="688.5" y="666.4105">alsoTypedAs</text><text fill="#000000" font-family="sans-serif" font-size="36" lengthAdjust="spacing" textLength="60.0469" x="598.1735" y="784.184">0..1</text></g><!--reverse link DataDownload to DataFingerprint--><g class="link" data-entity-1="ent0004" data-entity-2="ent0018" data-link-type="composition" data-source-line="53" id="lnk39"><path codeLine="53" d="M902.208,515.149 C901.928,551.669 901.66,612.9194 902.5,675.0394 C903.1,719.2494 904.7,770.8594 905.68,799.9694" fill="none" id="DataDownload-backto-DataFingerprint" style="stroke:#404040;stroke-width:1.2;"/><polygon fill="#404040" points="902.3,503.1494,898.2541,509.1185,902.208,515.149,906.2539,509.1799,902.3,503.1494" style="stroke:#404040;stroke-width:1.2;"/><text fill="#000000" font-family="sans-serif" font-size="36" lengthAdjust="spacing" textLength="160.084" x="903.5" y="666.4105">fingerprint</text><text fill="#000000" font-family="sans-serif" font-size="36" lengthAdjust="spacing" textLength="60.0469" x="840.2155" y="784.0939">0..1</text></g><!--reverse link WebAPI to ActionResult--><g class="link" data-entity-1="ent0005" data-entity-2="ent0006" data-link-type="composition" data-source-line="54" id="lnk40"><path codeLine="54" d="M1196.9705,511.4169 C1261.4905,573.7469 1430.35,736.9094 1495.29,799.6494" fill="none" id="WebAPI-backto-ActionResult" style="stroke:#404040;stroke-width:1.2;"/><polygon fill="#404040" points="1188.34,503.0794,1189.8761,510.125,1196.9705,511.4169,1195.4344,504.3713,1188.34,503.0794" style="stroke:#404040;stroke-width:1.2;"/><text fill="#000000" font-family="sans-serif" font-size="36" lengthAdjust="spacing" textLength="338.2031" x="1364.5" y="666.4105">potentialActionResult</text><text fill="#000000" font-family="sans-serif" font-size="36" lengthAdjust="spacing" textLength="54.0352" x="1432.4558" y="784.0082">0..*</text></g><!--reverse link ActionResult to AbstractMapping--><g class="link" data-entity-1="ent0006" data-entity-2="ent0011" data-link-type="composition" data-source-line="55" id="lnk41"><path codeLine="55" d="M1480.5544,855.468 C1400.6844,917.878 1190.21,1082.3194 1110.15,1144.8794" fill="none" id="ActionResult-backto-AbstractMapping" style="stroke:#404040;stroke-width:1.2;"/><polygon fill="#404040" points="1490.01,848.0794,1482.8193,848.6218,1480.5544,855.468,1487.745,854.9255,1490.01,848.0794" style="stroke:#404040;stroke-width:1.2;"/><text fill="#000000" font-family="sans-serif" font-size="36" lengthAdjust="spacing" textLength="330.1875" x="1327.5" y="1011.4105">hasPhysicalMapping</text><text fill="#000000" font-family="sans-serif" font-size="36" lengthAdjust="spacing" textLength="54.0352" x="1120.2335" y="1128.9879">0..*</text></g><!--link InstanceVariable to SubstantiveValueDomain--><g class="link" data-entity-1="ent0010" data-entity-2="ent0021" data-link-type="dependency" data-source-line="57" id="lnk43"><path codeLine="57" d="M348.4,1538.1394 C290.27,1560.0594 214.6,1599.3194 178.5,1663.0394 C147.38,1717.9694 160.0892,1790.5527 170.1092,1829.0627" fill="none" id="InstanceVariable-to-SubstantiveValueDomain" style="stroke:#404040;stroke-width:1.2;"/><polygon fill="#404040" points="171.62,1834.8694,173.2248,1825.1521,170.361,1830.0305,165.4826,1827.1666,171.62,1834.8694" style="stroke:#404040;stroke-width:1.2;"/><text fill="#000000" font-family="sans-serif" font-size="36" lengthAdjust="spacing" textLength="468.2285" x="179.5" y="1701.4105">takesSubstantiveValuesFrom</text><text fill="#000000" font-family="sans-serif" font-size="36" lengthAdjust="spacing" textLength="60.0469" x="105.2964" y="1819.2661">0..1</text></g><!--link InstanceVariable to SentinelValueDomain--><g class="link" data-entity-1="ent0010" data-entity-2="ent0022" data-link-type="dependency" data-source-line="58" id="lnk44"><path codeLine="58" d="M486.61,1538.0794 C539.03,1561.2594 611.88,1602.3194 649.5,1663.0394 C683.09,1717.2594 681.0205,1790.3495 677.1305,1829.0195" fill="none" id="InstanceVariable-to-SentinelValueDomain" style="stroke:#404040;stroke-width:1.2;"/><polygon fill="#404040" points="676.53,1834.9894,681.4107,1826.4349,677.0304,1830.0145,673.4509,1825.6342,676.53,1834.9894" style="stroke:#404040;stroke-width:1.2;"/><text fill="#000000" font-family="sans-serif" font-size="36" lengthAdjust="spacing" textLength="410.2031" x="669.5" y="1701.4105">takesSentinelValuesFrom</text><text fill="#000000" font-family="sans-serif" font-size="36" lengthAdjust="spacing" textLength="54.0352" x="618.3066" y="1819.1175">0..*</text></g><!--link AbstractMapping to InstanceVariable--><g class="link" data-entity-1="ent0011" data-entity-2="ent0010" data-link-type="dependency" data-source-line="59" id="lnk45"><path codeLine="59" d="M1036.51,1193.0794 C917.33,1255.4894 594.5053,1424.5358 475.0453,1487.0958" fill="none" id="AbstractMapping-to-InstanceVariable" style="stroke:#404040;stroke-width:1.2;"/><polygon fill="#404040" points="469.73,1489.8794,479.5586,1489.2476,474.1594,1487.5598,475.8472,1482.1606,469.73,1489.8794" style="stroke:#404040;stroke-width:1.2;"/><text fill="#000000" font-family="sans-serif" font-size="36" lengthAdjust="spacing" textLength="120.0234" x="793.5" y="1356.4105">formats</text><text fill="#000000" font-family="sans-serif" font-size="36" lengthAdjust="spacing" textLength="20.0215" x="455.7867" y="1473.9879">1</text></g><?plantuml-src bLLBRjim4Dth58Io2-30ZfikXAA0uqyHj463s6ZN8seKivP8bQJigX-WX-W9Uv9IbcHJf8AWq8Rp-EP7FeuqqncI1LDKx55M2z2mG4KbApGJdFpz_OVK6tk6Xs3B4YIKIPfXiyQyq1N9COzHga3j62z0GaxK5X9nOFo9f90fj7PcKeh3PileZgDIP79rRMrAu3k51Rc-6Lie5maUKHjCC8Koqol1zPfzHp9zRMtI34pi7m5fqir59YIvU3MkFmFU2fcWT54xb77KMhAur7Y6ny6l881OQGbKjpd2kSWBePZ61obIbc58G14N91UhvMevNmQjKtt82lMHsww7A0jnu9c0vCJh09Vy6UFPmzsHrYmDORwQpbSTOKRhotn4POxiIBC1bxp0b75CDYZp9lFPDjJPycOnxQYcltqTQizqTUJQW5lbt7IGYQT7fERyctEo4PT-nvK6Jl4JI0PnUx8kUAhTlPTPQzz3KHWTDattCRVlXssb68NCTd4mrsM3ttePBDkbVX0Kj90skm-zs4gjW7Mh6WVpweAup43MvTXUFkmwhhKigIub9hQVXtgICV3Az82oa8oVXMrXtcbBbeEitcCddCvqDRRMe9dIZAgsbixqQY_ZMXn6V4OUMOaBaGFZZTFWbfS93ODZvddx-CdLrTIRdwEHgvfXagMLOK9V7e5xvKqGxqQ7UTuD1jtS6OtUad1yTNKPzXzlH0wWtY572HgJswhlC0cTnniHLSPVaEgFwL1eUuP4P8VLmJYfbvavWZ9Lv-O6DaYtd7qjyUHrQHeB9qSlRov4PDykxviGIT_D99k4jkeYiWLrjZssIM99pxHxCeQelMaTaSGmZxyJCtI7wEtK7Y2UWbXiLorDwOxcUixYtB8hZuYOFxJOL0KcCpMSSX9wZpaYwTaAslBj4kt_IqGAeUit19cD1ptI__RNbrydeBPKrJGMYr87dZGixZDp8I8QTgZSNRMI8dy-NgsGWKdH1REtcaXkdztB6X1pAcGEMWN_0000?></g></svg>