<svg xmlns="http://www.w3.org/2000/svg" xmlns:xlink="http://www.w3.org/1999/xlink" contentStyleType="text/css" data-diagram-type="CLASS" height="228px" preserveAspectRatio="none" style="width:790px;height:228px;background:#FFFFFF;" version="1.1" viewBox="0 0 790 228" width="790px" zoomAndPan="magnify"><?plantuml 1.2026.3?><defs/><g><g class="title" data-source-line="1"><text fill="#000000" font-family="sans-serif" font-size="14" font-weight="700" lengthAdjust="spacing" textLength="97.2275" x="343.3267" y="24.5332">DataDownload</text></g><!--class DataDownload--><g class="entity" data-qualified-name="DataDownload" data-source-line="12" id="ent0002"><rect fill="#FEFECE" height="50.7031" rx="2.5" ry="2.5" style="stroke:#404040;stroke-width:0.5;" width="191.7373" x="301" y="45.6094"/><text fill="#000000" font-family="sans-serif" font-size="12" lengthAdjust="spacing" textLength="78.7148" x="357.5112" y="63.0664">DataDownload</text><line style="stroke:#404040;stroke-width:0.5;" x1="302" x2="491.7373" y1="70.7031" y2="70.7031"/><g data-visibility-modifier="PUBLIC_FIELD"><ellipse cx="312" cy="85.0078" fill="none" rx="3" ry="3" style="stroke:#038048;stroke-width:1;"/></g><text fill="#000000" font-family="sans-serif" font-size="14" lengthAdjust="spacing" textLength="165.7373" x="321" y="89.2363">identifier : XsdAnyUri [0..1]</text></g><!--class CatalogRecord--><g class="entity" data-qualified-name="CatalogRecord" data-source-line="15" id="ent0003"><rect fill="#EEEEEE" height="25.0938" rx="2.5" ry="2.5" style="stroke:#404040;stroke-width:0.5;" width="86.0449" x="7" y="182.1094"/><text fill="#000000" font-family="sans-serif" font-size="12" lengthAdjust="spacing" textLength="80.0449" x="10" y="199.5664">CatalogRecord</text></g><!--class DataStructure--><g class="entity" data-qualified-name="DataStructure" data-source-line="17" id="ent0005"><rect fill="#EEEEEE" height="25.0938" rx="2.5" ry="2.5" style="stroke:#404040;stroke-width:0.5;" width="80.0332" x="128" y="182.1094"/><text fill="#000000" font-family="sans-serif" font-size="12" lengthAdjust="spacing" textLength="74.0332" x="131" y="199.5664">DataStructure</text></g><!--class DimensionalDataStructure--><g class="entity" data-qualified-name="DimensionalDataStructure" data-source-line="19" id="ent0007"><rect fill="#EEEEEE" height="25.0938" rx="2.5" ry="2.5" style="stroke:#404040;stroke-width:0.5;" width="146.0625" x="243" y="182.1094"/><text fill="#000000" font-family="sans-serif" font-size="12" lengthAdjust="spacing" textLength="140.0625" x="246" y="199.5664">DimensionalDataStructure</text></g><!--class LongDataStructure--><g class="entity" data-qualified-name="LongDataStructure" data-source-line="21" id="ent0009"><rect fill="#EEEEEE" height="25.0938" rx="2.5" ry="2.5" style="stroke:#404040;stroke-width:0.5;" width="106.7285" x="424.5" y="182.1094"/><text fill="#000000" font-family="sans-serif" font-size="12" lengthAdjust="spacing" textLength="100.7285" x="427.5" y="199.5664">LongDataStructure</text></g><!--class WideDataStructure--><g class="entity" data-qualified-name="WideDataStructure" data-source-line="23" id="ent0011"><rect fill="#EEEEEE" height="25.0938" rx="2.5" ry="2.5" style="stroke:#404040;stroke-width:0.5;" width="107.373" x="566.5" y="182.1094"/><text fill="#000000" font-family="sans-serif" font-size="12" lengthAdjust="spacing" textLength="101.373" x="569.5" y="199.5664">WideDataStructure</text></g><!--class XsdAnyUri--><g class="entity" data-qualified-name="XsdAnyUri" data-source-line="25" id="ent0013"><rect fill="#FAE5D3" height="40.1875" rx="2.5" ry="2.5" style="stroke:#404040;stroke-width:0.5;" width="65.3809" x="710.5" y="174.6094"/><text fill="#000000" font-family="sans-serif" font-size="12" font-style="italic" lengthAdjust="spacing" textLength="63.3809" x="711.5" y="192.0664">&#171;dataType&#187;</text><text fill="#000000" font-family="sans-serif" font-size="12" lengthAdjust="spacing" textLength="56.6836" x="714.8486" y="207.1602">XsdAnyUri</text></g><!--link DataDownload to CatalogRecord--><g class="link" data-entity-1="ent0002" data-entity-2="ent0003" data-link-type="dependency" data-source-line="16" id="lnk4"><path codeLine="16" d="M300.85,86.0794 C255.76,94.5794 201.97,107.5494 156,126.6094 C121.01,141.1194 89.3855,163.2269 69.6655,178.2269" fill="none" id="DataDownload-to-CatalogRecord" style="stroke:#404040;stroke-width:1.2;"/><polygon fill="#404040" points="64.89,181.8594,74.4749,179.5943,68.8696,178.8323,69.6316,173.227,64.89,181.8594" style="stroke:#404040;stroke-width:1.2;"/><text fill="#000000" font-family="sans-serif" font-size="13" lengthAdjust="spacing" textLength="54.9136" x="157" y="141.1045">subjectOf</text><text fill="#000000" font-family="sans-serif" font-size="13" lengthAdjust="spacing" textLength="21.6836" x="45.7443" y="171.2349">0..1</text></g><!--link DataDownload to DataStructure--><g class="link" data-entity-1="ent0002" data-entity-2="ent0005" data-link-type="dependency" data-source-line="18" id="lnk6"><path codeLine="18" d="M310.87,96.7294 C288.66,104.7394 265.32,114.6994 245,126.6094 C218.55,142.1094 196.8309,162.9174 182.8309,177.5974" fill="none" id="DataDownload-to-DataStructure" style="stroke:#404040;stroke-width:1.2;"/><polygon fill="#404040" points="178.69,181.9394,187.796,178.1869,182.1407,178.321,182.0067,172.6658,178.69,181.9394" style="stroke:#404040;stroke-width:1.2;"/><text fill="#000000" font-family="sans-serif" font-size="13" lengthAdjust="spacing" textLength="84.5317" x="246" y="141.1045">isStructuredBy</text><text fill="#000000" font-family="sans-serif" font-size="13" lengthAdjust="spacing" textLength="21.6836" x="157.8929" y="171.3464">0..1</text></g><!--link DataDownload to DimensionalDataStructure--><g class="link" data-entity-1="ent0002" data-entity-2="ent0007" data-link-type="dependency" data-source-line="20" id="lnk8"><path codeLine="20" d="M372.82,96.7594 C364.69,105.7394 355.94,116.2394 349,126.6094 C336.88,144.7094 328.7628,162.3689 323.0228,176.1789" fill="none" id="DataDownload-to-DimensionalDataStructure" style="stroke:#404040;stroke-width:1.2;"/><polygon fill="#404040" points="320.72,181.7194,327.8679,174.9439,322.639,177.1023,320.4806,171.8734,320.72,181.7194" style="stroke:#404040;stroke-width:1.2;"/><text fill="#000000" font-family="sans-serif" font-size="13" lengthAdjust="spacing" textLength="84.5317" x="350" y="141.1045">isStructuredBy</text><text fill="#000000" font-family="sans-serif" font-size="13" lengthAdjust="spacing" textLength="21.6836" x="297.6348" y="171.2993">0..1</text></g><!--link DataDownload to LongDataStructure--><g class="link" data-entity-1="ent0002" data-entity-2="ent0009" data-link-type="dependency" data-source-line="22" id="lnk10"><path codeLine="22" d="M417.14,96.8394 C424.31,105.9994 432.27,116.5994 439,126.6094 C451.61,145.3794 461.6171,163.091 468.9571,176.671" fill="none" id="DataDownload-to-LongDataStructure" style="stroke:#404040;stroke-width:1.2;"/><polygon fill="#404040" points="471.81,181.9494,471.0495,172.1299,469.4326,177.5508,464.0117,175.9338,471.81,181.9494" style="stroke:#404040;stroke-width:1.2;"/><text fill="#000000" font-family="sans-serif" font-size="13" lengthAdjust="spacing" textLength="84.5317" x="452" y="141.1045">isStructuredBy</text><text fill="#000000" font-family="sans-serif" font-size="13" lengthAdjust="spacing" textLength="21.6836" x="444.4263" y="171.3604">0..1</text></g><!--link DataDownload to WideDataStructure--><g class="link" data-entity-1="ent0002" data-entity-2="ent0011" data-link-type="dependency" data-source-line="24" id="lnk12"><path codeLine="24" d="M480.57,96.6694 C502.3,104.7094 525.17,114.6894 545,126.6094 C570.89,142.1594 591.961,162.8892 605.551,177.5492" fill="none" id="DataDownload-to-WideDataStructure" style="stroke:#404040;stroke-width:1.2;"/><polygon fill="#404040" points="609.63,181.9494,606.4449,172.6298,606.2308,178.2826,600.578,178.0685,609.63,181.9494" style="stroke:#404040;stroke-width:1.2;"/><text fill="#000000" font-family="sans-serif" font-size="13" lengthAdjust="spacing" textLength="84.5317" x="571" y="141.1045">isStructuredBy</text><text fill="#000000" font-family="sans-serif" font-size="13" lengthAdjust="spacing" textLength="21.6836" x="580.4736" y="171.3604">0..1</text></g><!--link DataDownload to XsdAnyUri--><g class="link" data-entity-1="ent0002" data-entity-2="ent0013" data-link-type="dependency" data-source-line="26" id="lnk14"><path codeLine="26" d="M493.09,79.9694 C545.65,87.1094 610.7,100.7094 664,126.6094 C688.1,138.3194 706.734,154.7912 721.584,170.1112" fill="none" id="DataDownload-to-XsdAnyUri" style="stroke:#404040;stroke-width:1.2;stroke-dasharray:7,7;"/><polygon fill="#404040" points="725.76,174.4194,722.3681,165.173,722.28,170.8292,716.6238,170.7411,725.76,174.4194" style="stroke:#404040;stroke-width:1.2;"/><text fill="#000000" font-family="sans-serif" font-size="13" lengthAdjust="spacing" textLength="49.1372" x="691" y="141.1045">identifier</text></g><?plantuml-src XP9VIyCm5CNVyoakxQEiR5DVnYZiJ_Sa26wY83vaoMqNboOZoHXL_EvcdTHsjRHzQSwzz_nEw7N2IOGbTNIfJqfgoibES0Gc39Du-SRyu0h8CT-YiSJkXJfGGtEmEyhrIQWCKYejrYepO_HfinDihz1Q64NZMf59whKl0fUsXPRQG7WtFBzUd6l3qLohAwtSMdmYZCRacv2BHr3F7G2rZOj0k4fMoI8fKJV-8ig9LA212RnQFbF5in7mDeoYqRkt_7LSU0EfioTaFaPfsL0WJCg7D423GGp1sIYuwfw0FMu_aBd7j1vvxSoHkQF1AdEbz0AQtHCGjZhnUL5HH8xA2gse_0VOKUndTmrsnNZGAclpMselk3tHHNpn_xbDRAcznFP45x7QfPBqjrdJAVVpc-A0SUnNSPRSBs-Rk2YAQ_tUlrfHyWC0?></g></svg>