<svg xmlns="http://www.w3.org/2000/svg" xmlns:xlink="http://www.w3.org/1999/xlink" contentStyleType="text/css" data-diagram-type="CLASS" height="316px" preserveAspectRatio="none" style="width:1201px;height:316px;background:#FFFFFF;" version="1.1" viewBox="0 0 1201 316" width="1201px" zoomAndPan="magnify"><?plantuml 1.2026.3?><defs/><g><g class="title" data-source-line="1"><text fill="#000000" font-family="sans-serif" font-size="14" font-weight="700" lengthAdjust="spacing" textLength="92.5791" x="551.1431" y="24.5332">DataStructure</text></g><!--class DataStructure--><g class="entity" data-qualified-name="DataStructure" data-source-line="12" id="ent0002"><rect fill="#FEFECE" height="50.7031" rx="2.5" ry="2.5" style="stroke:#404040;stroke-width:0.5;" width="131.0479" x="541.5" y="148.6094"/><text fill="#000000" font-family="sans-serif" font-size="12" lengthAdjust="spacing" textLength="74.0332" x="570.0073" y="166.0664">DataStructure</text><line style="stroke:#404040;stroke-width:0.5;" x1="542.5" x2="671.5479" y1="173.7031" y2="173.7031"/><g data-visibility-modifier="PUBLIC_FIELD"><ellipse cx="552.5" cy="188.0078" fill="none" rx="3" ry="3" style="stroke:#038048;stroke-width:1;"/></g><text fill="#000000" font-family="sans-serif" font-size="14" lengthAdjust="spacing" textLength="105.0479" x="561.5" y="192.2363">type : string [1..*]</text></g><!--class DataDownload--><g class="entity" data-qualified-name="DataDownload" data-source-line="15" id="ent0003"><rect fill="#EEEEEE" height="25.0938" rx="2.5" ry="2.5" style="stroke:#404040;stroke-width:0.5;" width="84.7148" x="564.5" y="45.6094"/><text fill="#000000" font-family="sans-serif" font-size="12" lengthAdjust="spacing" textLength="78.7148" x="567.5" y="63.0664">DataDownload</text></g><!--class IdentifierComponent--><g class="entity" data-qualified-name="IdentifierComponent" data-source-line="17" id="ent0005"><rect fill="#EEEEEE" height="25.0938" rx="2.5" ry="2.5" style="stroke:#404040;stroke-width:0.5;" width="114.0645" x="7" y="277.6094"/><text fill="#000000" font-family="sans-serif" font-size="12" lengthAdjust="spacing" textLength="108.0645" x="10" y="295.0664">IdentifierComponent</text></g><!--class MeasureComponent--><g class="entity" data-qualified-name="MeasureComponent" data-source-line="19" id="ent0007"><rect fill="#EEEEEE" height="25.0938" rx="2.5" ry="2.5" style="stroke:#404040;stroke-width:0.5;" width="114.7266" x="156.5" y="277.6094"/><text fill="#000000" font-family="sans-serif" font-size="12" lengthAdjust="spacing" textLength="108.7266" x="159.5" y="295.0664">MeasureComponent</text></g><!--class AttributeComponent--><g class="entity" data-qualified-name="AttributeComponent" data-source-line="21" id="ent0009"><rect fill="#EEEEEE" height="25.0938" rx="2.5" ry="2.5" style="stroke:#404040;stroke-width:0.5;" width="112.7285" x="306.5" y="277.6094"/><text fill="#000000" font-family="sans-serif" font-size="12" lengthAdjust="spacing" textLength="106.7285" x="309.5" y="295.0664">AttributeComponent</text></g><!--class DimensionComponent--><g class="entity" data-qualified-name="DimensionComponent" data-source-line="23" id="ent0011"><rect fill="#EEEEEE" height="25.0938" rx="2.5" ry="2.5" style="stroke:#404040;stroke-width:0.5;" width="124.7285" x="454.5" y="277.6094"/><text fill="#000000" font-family="sans-serif" font-size="12" lengthAdjust="spacing" textLength="118.7285" x="457.5" y="295.0664">DimensionComponent</text></g><!--class VariableDescriptorComponent--><g class="entity" data-qualified-name="VariableDescriptorComponent" data-source-line="25" id="ent0013"><rect fill="#EEEEEE" height="25.0938" rx="2.5" ry="2.5" style="stroke:#404040;stroke-width:0.5;" width="166.7461" x="614.5" y="277.6094"/><text fill="#000000" font-family="sans-serif" font-size="12" lengthAdjust="spacing" textLength="160.7461" x="617.5" y="295.0664">VariableDescriptorComponent</text></g><!--class VariableValueComponent--><g class="entity" data-qualified-name="VariableValueComponent" data-source-line="27" id="ent0015"><rect fill="#EEEEEE" height="25.0938" rx="2.5" ry="2.5" style="stroke:#404040;stroke-width:0.5;" width="142.7578" x="816.5" y="277.6094"/><text fill="#000000" font-family="sans-serif" font-size="12" lengthAdjust="spacing" textLength="136.7578" x="819.5" y="295.0664">VariableValueComponent</text></g><!--class PrimaryKey--><g class="entity" data-qualified-name="PrimaryKey" data-source-line="29" id="ent0017"><rect fill="#EEEEEE" height="25.0938" rx="2.5" ry="2.5" style="stroke:#404040;stroke-width:0.5;" width="68.0098" x="995" y="277.6094"/><text fill="#000000" font-family="sans-serif" font-size="12" lengthAdjust="spacing" textLength="62.0098" x="998" y="295.0664">PrimaryKey</text></g><!--class ForeignKey--><g class="entity" data-qualified-name="ForeignKey" data-source-line="31" id="ent0019"><rect fill="#EEEEEE" height="25.0938" rx="2.5" ry="2.5" style="stroke:#404040;stroke-width:0.5;" width="67.3652" x="1119.5" y="277.6094"/><text fill="#000000" font-family="sans-serif" font-size="12" lengthAdjust="spacing" textLength="61.3652" x="1122.5" y="295.0664">ForeignKey</text></g><!--link DataDownload to DataStructure--><g class="link" data-entity-1="ent0003" data-entity-2="ent0002" data-link-type="dependency" data-source-line="16" id="lnk4"><path codeLine="16" d="M607,70.8794 C607,89.0794 607,118.4694 607,142.4394" fill="none" id="DataDownload-to-DataStructure" style="stroke:#404040;stroke-width:1.2;"/><polygon fill="#404040" points="607,148.4394,611,139.4394,607,143.4394,603,139.4394,607,148.4394" style="stroke:#404040;stroke-width:1.2;"/><text fill="#000000" font-family="sans-serif" font-size="13" lengthAdjust="spacing" textLength="84.5317" x="608" y="115.1045">isStructuredBy</text><text fill="#000000" font-family="sans-serif" font-size="13" lengthAdjust="spacing" textLength="21.6836" x="583.5181" y="137.8065">0..1</text></g><!--reverse link DataStructure to IdentifierComponent--><g class="link" data-entity-1="ent0002" data-entity-2="ent0005" data-link-type="composition" data-source-line="18" id="lnk6"><path codeLine="18" d="M529.4632,177.6017 C445.4732,181.5417 308.13,192.9994 186,229.6094 C147.63,241.1094 106.42,263.5794 83.06,277.3694" fill="none" id="DataStructure-backto-IdentifierComponent" style="stroke:#404040;stroke-width:1.2;"/><polygon fill="#404040" points="541.45,177.0394,535.2692,173.3249,529.4632,177.6017,535.644,181.3161,541.45,177.0394" style="stroke:#404040;stroke-width:1.2;"/><text fill="#000000" font-family="sans-serif" font-size="13" lengthAdjust="spacing" textLength="88.1689" x="187" y="244.1045">hasComponent</text><text fill="#000000" font-family="sans-serif" font-size="13" lengthAdjust="spacing" textLength="19.5127" x="67.9125" y="266.7489">0..*</text></g><!--reverse link DataStructure to MeasureComponent--><g class="link" data-entity-1="ent0002" data-entity-2="ent0007" data-link-type="composition" data-source-line="20" id="lnk8"><path codeLine="20" d="M529.5092,183.6492 C471.3892,191.1692 396.77,204.0994 325,229.6094 C290.18,241.9794 252.96,263.9494 231.68,277.4494" fill="none" id="DataStructure-backto-MeasureComponent" style="stroke:#404040;stroke-width:1.2;"/><polygon fill="#404040" points="541.41,182.1094,534.9463,178.9123,529.5092,183.6492,535.9729,186.8462,541.41,182.1094" style="stroke:#404040;stroke-width:1.2;"/><text fill="#000000" font-family="sans-serif" font-size="13" lengthAdjust="spacing" textLength="88.1689" x="326" y="244.1045">hasComponent</text><text fill="#000000" font-family="sans-serif" font-size="13" lengthAdjust="spacing" textLength="19.5127" x="216.0556" y="266.8604">0..*</text></g><!--reverse link DataStructure to AttributeComponent--><g class="link" data-entity-1="ent0002" data-entity-2="ent0009" data-link-type="composition" data-source-line="22" id="lnk10"><path codeLine="22" d="M529.8166,198.5366 C502.2666,207.7266 481.66,215.8894 454,229.6094 C425.93,243.5394 396,264.4194 378.43,277.3794" fill="none" id="DataStructure-backto-AttributeComponent" style="stroke:#404040;stroke-width:1.2;"/><polygon fill="#404040" points="541.2,194.7394,534.2426,192.8435,529.8166,198.5366,536.7741,200.4324,541.2,194.7394" style="stroke:#404040;stroke-width:1.2;"/><text fill="#000000" font-family="sans-serif" font-size="13" lengthAdjust="spacing" textLength="88.1689" x="455" y="244.1045">hasComponent</text><text fill="#000000" font-family="sans-serif" font-size="13" lengthAdjust="spacing" textLength="19.5127" x="361.9193" y="266.7628">0..*</text></g><!--reverse link DataStructure to DimensionComponent--><g class="link" data-entity-1="ent0002" data-entity-2="ent0011" data-link-type="composition" data-source-line="24" id="lnk12"><path codeLine="24" d="M580.0332,209.2672 C561.1132,233.2272 540.67,259.1294 526.31,277.3194" fill="none" id="DataStructure-backto-DimensionComponent" style="stroke:#404040;stroke-width:1.2;"/><polygon fill="#404040" points="587.47,199.8494,580.6124,202.0794,580.0332,209.2672,586.8909,207.0372,587.47,199.8494" style="stroke:#404040;stroke-width:1.2;"/><text fill="#000000" font-family="sans-serif" font-size="13" lengthAdjust="spacing" textLength="88.1689" x="563" y="244.1045">hasComponent</text><text fill="#000000" font-family="sans-serif" font-size="13" lengthAdjust="spacing" textLength="19.5127" x="507.3896" y="266.6792">0..*</text></g><!--reverse link DataStructure to VariableDescriptorComponent--><g class="link" data-entity-1="ent0002" data-entity-2="ent0013" data-link-type="composition" data-source-line="26" id="lnk14"><path codeLine="26" d="M640.7058,208.3525 C649.5158,217.4125 650.87,219.3694 659,229.6094 C671.44,245.2794 683.75,264.9394 691.12,277.2694" fill="none" id="DataStructure-backto-VariableDescriptorComponent" style="stroke:#404040;stroke-width:1.2;"/><polygon fill="#404040" points="632.34,199.7494,633.6552,206.8395,640.7058,208.3525,639.3906,201.2624,632.34,199.7494" style="stroke:#404040;stroke-width:1.2;"/><text fill="#000000" font-family="sans-serif" font-size="13" lengthAdjust="spacing" textLength="88.1689" x="673" y="244.1045">hasComponent</text><text fill="#000000" font-family="sans-serif" font-size="13" lengthAdjust="spacing" textLength="19.5127" x="666.0213" y="266.8684">0..*</text></g><!--reverse link DataStructure to VariableValueComponent--><g class="link" data-entity-1="ent0002" data-entity-2="ent0015" data-link-type="composition" data-source-line="28" id="lnk16"><path codeLine="28" d="M684.2746,198.3794 C714.2746,207.9294 738.6,216.5294 770,229.6094 C804.94,244.1694 843.86,264.6794 867.12,277.4194" fill="none" id="DataStructure-backto-VariableValueComponent" style="stroke:#404040;stroke-width:1.2;"/><polygon fill="#404040" points="672.84,194.7394,677.344,200.3709,684.2746,198.3794,679.7706,192.7478,672.84,194.7394" style="stroke:#404040;stroke-width:1.2;"/><text fill="#000000" font-family="sans-serif" font-size="13" lengthAdjust="spacing" textLength="88.1689" x="808" y="244.1045">hasComponent</text><text fill="#000000" font-family="sans-serif" font-size="13" lengthAdjust="spacing" textLength="19.5127" x="836.3065" y="266.8186">0..*</text></g><!--reverse link DataStructure to PrimaryKey--><g class="link" data-entity-1="ent0002" data-entity-2="ent0017" data-link-type="composition" data-source-line="30" id="lnk18"><path codeLine="30" d="M684.6679,183.5135 C745.8879,191.1435 827.22,204.3394 905,229.6094 C943.38,242.0794 985.13,264.0194 1009.07,277.4894" fill="none" id="DataStructure-backto-PrimaryKey" style="stroke:#404040;stroke-width:1.2;"/><polygon fill="#404040" points="672.76,182.0294,678.2192,186.7407,684.6679,183.5135,679.2086,178.8021,672.76,182.0294" style="stroke:#404040;stroke-width:1.2;"/><text fill="#000000" font-family="sans-serif" font-size="13" lengthAdjust="spacing" textLength="88.1372" x="949" y="244.1045">hasPrimaryKey</text><text fill="#000000" font-family="sans-serif" font-size="13" lengthAdjust="spacing" textLength="21.6836" x="975.6566" y="266.5319">0..1</text></g><!--reverse link DataStructure to ForeignKey--><g class="link" data-entity-1="ent0002" data-entity-2="ent0019" data-link-type="composition" data-source-line="32" id="lnk20"><path codeLine="32" d="M684.656,175.8084 C771.996,178.0584 918.23,187.9094 1046,229.6094 C1080.55,240.8894 1116.69,263.6494 1136.87,277.5194" fill="none" id="DataStructure-backto-ForeignKey" style="stroke:#404040;stroke-width:1.2;"/><polygon fill="#404040" points="672.66,175.4994,678.555,179.6526,684.656,175.8084,678.761,171.6552,672.66,175.4994" style="stroke:#404040;stroke-width:1.2;"/><text fill="#000000" font-family="sans-serif" font-size="13" lengthAdjust="spacing" textLength="87.439" x="1088" y="244.1045">hasForeignKey</text><text fill="#000000" font-family="sans-serif" font-size="13" lengthAdjust="spacing" textLength="19.5127" x="1107.328" y="266.5743">0..*</text></g><?plantuml-src ZPDFQuD04CNl-oa6SqjHOkWfXq8I5Kef559oAJriT1ANhBkokn9iwNUlCJN-oHAh5-VDlFURLJJCS8I06hengeXDeP2aB468cOhvtpDckIaXmso7IXDzP2AdYcQWKvh84nC7s5EkiTDPAYLFxocBZmAr1j-RTvenfvNsJU0ojfPSAfWypivt9QwaIb0DrKWAis5V2FwS_11ooN1wYpj0TVyeC8d2A5o7DUp1b3d20hHHvvK_VC-RVbPPdQX0dWINDBacDG9CmleYFT5rdy2PUPxl3B0BOFfQ9QkoOJmdA0pRi_FniboAggfH5hr7R9EdhbiZfuxLj82KwclPO5-HwihSPmx5SU2DmqvRcke5xmepuDtAuqIBnyuCM8P2Codwp5jvd6dns9bRgXZTSGnGnuhbHWu-wft--1RtpFVNsL9Ue7sJVkl_ImnyTlwROXbLvGkMDRCjHpZLpzEPhRFRkWcFf49s44ruMuuVeZDRXxSr-GK0?></g></svg>