<svg xmlns="http://www.w3.org/2000/svg" xmlns:xlink="http://www.w3.org/1999/xlink" contentStyleType="text/css" data-diagram-type="CLASS" height="566px" preserveAspectRatio="none" style="width:1230px;height:566px;background:#FFFFFF;" version="1.1" viewBox="0 0 1230 566" width="1230px" zoomAndPan="magnify"><?plantuml 1.2026.3?><defs/><g><g class="title" data-source-line="1"><text fill="#000000" font-family="sans-serif" font-size="14" font-weight="700" lengthAdjust="spacing" textLength="122.1787" x="550.8133" y="24.5332">ReferenceVariable</text></g><!--class ReferenceVariable--><g class="entity" data-qualified-name="ReferenceVariable" data-source-line="12" id="ent0002"><rect fill="#FEFECE" height="297.2344" rx="2.5" ry="2.5" style="stroke:#404040;stroke-width:0.5;" width="264.1162" x="419.78" y="148.6094"/><text fill="#000000" font-family="sans-serif" font-size="12" lengthAdjust="spacing" textLength="99.3926" x="502.1418" y="166.0664">ReferenceVariable</text><line style="stroke:#404040;stroke-width:0.5;" x1="420.78" x2="682.8962" y1="173.7031" y2="173.7031"/><g data-visibility-modifier="PUBLIC_FIELD"><ellipse cx="430.78" cy="188.0078" fill="none" rx="3" ry="3" style="stroke:#038048;stroke-width:1;"/></g><text fill="#000000" font-family="sans-serif" font-size="14" lengthAdjust="spacing" textLength="145.5303" x="439.78" y="192.2363">function : Concept [1..*]</text><g data-visibility-modifier="PUBLIC_FIELD"><ellipse cx="430.78" cy="205.6172" fill="none" rx="3" ry="3" style="stroke:#038048;stroke-width:1;"/></g><text fill="#000000" font-family="sans-serif" font-size="14" lengthAdjust="spacing" textLength="194.5439" x="439.78" y="209.8457">physicalDataType : Concept [1]</text><g data-visibility-modifier="PUBLIC_FIELD"><ellipse cx="430.78" cy="223.2266" fill="none" rx="3" ry="3" style="stroke:#038048;stroke-width:1;"/></g><text fill="#000000" font-family="sans-serif" font-size="14" lengthAdjust="spacing" textLength="164.9648" x="439.78" y="227.4551">platformType : Concept [1]</text><g data-visibility-modifier="PUBLIC_FIELD"><ellipse cx="430.78" cy="240.8359" fill="none" rx="3" ry="3" style="stroke:#038048;stroke-width:1;"/></g><text fill="#000000" font-family="sans-serif" font-size="14" lengthAdjust="spacing" textLength="119.8408" x="439.78" y="245.0645">role : Concept [1..*]</text><g data-visibility-modifier="PUBLIC_FIELD"><ellipse cx="430.78" cy="258.4453" fill="none" rx="3" ry="3" style="stroke:#038048;stroke-width:1;"/></g><text fill="#000000" font-family="sans-serif" font-size="14" lengthAdjust="spacing" textLength="137.7373" x="439.78" y="262.6738">source : Reference [1]</text><g data-visibility-modifier="PUBLIC_FIELD"><ellipse cx="430.78" cy="276.0547" fill="none" rx="3" ry="3" style="stroke:#038048;stroke-width:1;"/></g><text fill="#000000" font-family="sans-serif" font-size="14" lengthAdjust="spacing" textLength="238.1162" x="439.78" y="280.2832">describedUnitOfMeasure : Concept [1]</text><g data-visibility-modifier="PUBLIC_FIELD"><ellipse cx="430.78" cy="293.6641" fill="none" rx="3" ry="3" style="stroke:#038048;stroke-width:1;"/></g><text fill="#000000" font-family="sans-serif" font-size="14" lengthAdjust="spacing" textLength="221.0332" x="439.78" y="297.8926">hasIntendedDataType : Concept [1]</text><g data-visibility-modifier="PUBLIC_FIELD"><ellipse cx="430.78" cy="311.2734" fill="none" rx="3" ry="3" style="stroke:#038048;stroke-width:1;"/></g><text fill="#000000" font-family="sans-serif" font-size="14" lengthAdjust="spacing" textLength="199.958" x="439.78" y="315.502">simpleUnitOfMeasure : string [1]</text><g data-visibility-modifier="PUBLIC_FIELD"><ellipse cx="430.78" cy="328.8828" fill="none" rx="3" ry="3" style="stroke:#038048;stroke-width:1;"/></g><text fill="#000000" font-family="sans-serif" font-size="14" lengthAdjust="spacing" textLength="159.5029" x="439.78" y="333.1113">descriptiveText : string [1]</text><g data-visibility-modifier="PUBLIC_FIELD"><ellipse cx="430.78" cy="346.4922" fill="none" rx="3" ry="3" style="stroke:#038048;stroke-width:1;"/></g><text fill="#000000" font-family="sans-serif" font-size="14" lengthAdjust="spacing" textLength="203.1094" x="439.78" y="350.7207">unitOfMeasureKind : Concept [1]</text><g data-visibility-modifier="PUBLIC_FIELD"><ellipse cx="430.78" cy="364.1016" fill="none" rx="3" ry="3" style="stroke:#038048;stroke-width:1;"/></g><text fill="#000000" font-family="sans-serif" font-size="14" lengthAdjust="spacing" textLength="121.3994" x="439.78" y="368.3301">definition : string [1]</text><g data-visibility-modifier="PUBLIC_FIELD"><ellipse cx="430.78" cy="381.7109" fill="none" rx="3" ry="3" style="stroke:#038048;stroke-width:1;"/></g><text fill="#000000" font-family="sans-serif" font-size="14" lengthAdjust="spacing" textLength="156.4199" x="439.78" y="385.9395">displayLabel : string [1..*]</text><g data-visibility-modifier="PUBLIC_FIELD"><ellipse cx="430.78" cy="399.3203" fill="none" rx="3" ry="3" style="stroke:#038048;stroke-width:1;"/></g><text fill="#000000" font-family="sans-serif" font-size="14" lengthAdjust="spacing" textLength="203.8887" x="439.78" y="403.5488">externalDefinition : Reference [1]</text><g data-visibility-modifier="PUBLIC_FIELD"><ellipse cx="430.78" cy="416.9297" fill="none" rx="3" ry="3" style="stroke:#038048;stroke-width:1;"/></g><text fill="#000000" font-family="sans-serif" font-size="14" lengthAdjust="spacing" textLength="137.7373" x="439.78" y="421.1582">identifier : Identifier [1]</text><g data-visibility-modifier="PUBLIC_FIELD"><ellipse cx="430.78" cy="434.5391" fill="none" rx="3" ry="3" style="stroke:#038048;stroke-width:1;"/></g><text fill="#000000" font-family="sans-serif" font-size="14" lengthAdjust="spacing" textLength="113.6064" x="439.78" y="438.7676">name : string [1..*]</text></g><!--class VariableValueComponent--><g class="entity" data-qualified-name="VariableValueComponent" data-source-line="29" id="ent0003"><rect fill="#EEEEEE" height="25.0938" rx="2.5" ry="2.5" style="stroke:#404040;stroke-width:0.5;" width="142.7578" x="480.28" y="45.6094"/><text fill="#000000" font-family="sans-serif" font-size="12" lengthAdjust="spacing" textLength="136.7578" x="483.28" y="63.0664">VariableValueComponent</text></g><!--class Concept--><g class="entity" data-qualified-name="Concept" data-source-line="31" id="ent0005"><rect fill="#EEEEEE" height="25.0938" rx="2.5" ry="2.5" style="stroke:#404040;stroke-width:0.5;" width="50.6953" x="371.28" y="523.6094"/><text fill="#000000" font-family="sans-serif" font-size="12" lengthAdjust="spacing" textLength="44.6953" x="374.28" y="541.0664">Concept</text></g><!--class Reference--><g class="entity" data-qualified-name="Reference" data-source-line="36" id="ent0010"><rect fill="#EEEEEE" height="25.0938" rx="2.5" ry="2.5" style="stroke:#404040;stroke-width:0.5;" width="61.3652" x="976.28" y="523.6094"/><text fill="#000000" font-family="sans-serif" font-size="12" lengthAdjust="spacing" textLength="55.3652" x="979.28" y="541.0664">Reference</text></g><!--class Identifier--><g class="entity" data-qualified-name="Identifier" data-source-line="42" id="ent0016"><rect fill="#EEEEEE" height="25.0938" rx="2.5" ry="2.5" style="stroke:#404040;stroke-width:0.5;" width="52.0254" x="1163.78" y="523.6094"/><text fill="#000000" font-family="sans-serif" font-size="12" lengthAdjust="spacing" textLength="46.0254" x="1166.78" y="541.0664">Identifier</text></g><!--link VariableValueComponent to ReferenceVariable--><g class="link" data-entity-1="ent0003" data-entity-2="ent0002" data-link-type="dependency" data-source-line="30" id="lnk4"><path codeLine="30" d="M551.78,70.8694 C551.78,86.4694 551.78,109.8494 551.78,142.3694" fill="none" id="VariableValueComponent-to-ReferenceVariable" style="stroke:#404040;stroke-width:1.2;"/><polygon fill="#404040" points="551.78,148.3694,555.78,139.3694,551.78,143.3694,547.78,139.3694,551.78,148.3694" style="stroke:#404040;stroke-width:1.2;"/><text fill="#000000" font-family="sans-serif" font-size="13" lengthAdjust="spacing" textLength="69.3672" x="552.78" y="115.1045">isDefinedBy</text><text fill="#000000" font-family="sans-serif" font-size="13" lengthAdjust="spacing" textLength="7.23" x="544.6025" y="137.7856">1</text></g><!--link ReferenceVariable to Concept--><g class="link" data-entity-1="ent0002" data-entity-2="ent0005" data-link-type="dependency" data-source-line="32" id="lnk6"><path codeLine="32" d="M419.53,303.7994 C299.63,316.8094 129.16,356.6694 44.78,475.6094 C6,530.2694 277.91,535.0384 365.15,535.1984" fill="none" id="ReferenceVariable-to-Concept" style="stroke:#404040;stroke-width:1.2;"/><polygon fill="#404040" points="371.15,535.2094,362.1574,531.1929,366.15,535.2002,362.1427,539.1929,371.15,535.2094" style="stroke:#404040;stroke-width:1.2;"/><text fill="#000000" font-family="sans-serif" font-size="13" lengthAdjust="spacing" textLength="45.5317" x="45.78" y="490.1045">function</text><text fill="#000000" font-family="sans-serif" font-size="13" lengthAdjust="spacing" textLength="19.5127" x="343.6867" y="550.4665">1..*</text></g><!--link ReferenceVariable to Concept--><g class="link" data-entity-1="ent0002" data-entity-2="ent0005" data-link-type="dependency" data-source-line="33" id="lnk7"><path codeLine="33" d="M419.65,315.2294 C321.96,335.5594 195.31,379.7794 131.78,475.6094 C127.36,482.2794 126.58,487.5394 131.78,493.6094 C162.43,529.4394 304.4003,534.5029 364.9103,535.0729" fill="none" id="ReferenceVariable-to-Concept-1" style="stroke:#404040;stroke-width:1.2;"/><polygon fill="#404040" points="370.91,535.1294,361.9481,531.0448,365.9102,535.0823,361.8727,539.0444,370.91,535.1294" style="stroke:#404040;stroke-width:1.2;"/><text fill="#000000" font-family="sans-serif" font-size="13" lengthAdjust="spacing" textLength="103.3271" x="132.78" y="490.1045">physicalDataType</text><text fill="#000000" font-family="sans-serif" font-size="13" lengthAdjust="spacing" textLength="7.23" x="356.0887" y="530.2458">1</text></g><!--link ReferenceVariable to Concept--><g class="link" data-entity-1="ent0002" data-entity-2="ent0005" data-link-type="dependency" data-source-line="34" id="lnk8"><path codeLine="34" d="M419.69,349.2294 C365.18,377.6694 307.63,418.9794 276.78,475.6094 C255.92,513.8994 324.0308,527.321 365.1608,532.141" fill="none" id="ReferenceVariable-to-Concept-2" style="stroke:#404040;stroke-width:1.2;"/><polygon fill="#404040" points="371.12,532.8394,362.6467,527.819,366.154,532.2574,361.7156,535.7647,371.12,532.8394" style="stroke:#404040;stroke-width:1.2;"/><text fill="#000000" font-family="sans-serif" font-size="13" lengthAdjust="spacing" textLength="75.8608" x="277.78" y="490.1045">platformType</text><text fill="#000000" font-family="sans-serif" font-size="13" lengthAdjust="spacing" textLength="7.23" x="356.0688" y="522.675">1</text></g><!--link ReferenceVariable to Concept--><g class="link" data-entity-1="ent0002" data-entity-2="ent0005" data-link-type="dependency" data-source-line="35" id="lnk9"><path codeLine="35" d="M419.63,426.5194 C409.24,442.0894 400.27,458.5494 393.78,475.6094 C387.82,491.2694 389.2488,505.0935 392.0988,517.4235" fill="none" id="ReferenceVariable-to-Concept-3" style="stroke:#404040;stroke-width:1.2;"/><polygon fill="#404040" points="393.45,523.2694,395.3204,513.5998,392.324,518.3978,387.5259,515.4014,393.45,523.2694" style="stroke:#404040;stroke-width:1.2;"/><text fill="#000000" font-family="sans-serif" font-size="13" lengthAdjust="spacing" textLength="21.6772" x="394.78" y="490.1045">role</text><text fill="#000000" font-family="sans-serif" font-size="13" lengthAdjust="spacing" textLength="19.5127" x="395.9581" y="512.8684">1..*</text></g><!--link ReferenceVariable to Concept--><g class="link" data-entity-1="ent0002" data-entity-2="ent0005" data-link-type="dependency" data-source-line="38" id="lnk12"><path codeLine="38" d="M455.15,445.8494 C433.79,478.5094 417.7841,502.988 407.6141,518.538" fill="none" id="ReferenceVariable-to-Concept-4" style="stroke:#404040;stroke-width:1.2;"/><polygon fill="#404040" points="404.33,523.5594,412.6038,518.2166,407.0668,519.3749,405.9085,513.8378,404.33,523.5594" style="stroke:#404040;stroke-width:1.2;"/><text fill="#000000" font-family="sans-serif" font-size="13" lengthAdjust="spacing" textLength="143.7871" x="435.78" y="490.1045">describedUnitOfMeasure</text><text fill="#000000" font-family="sans-serif" font-size="13" lengthAdjust="spacing" textLength="7.23" x="399.1109" y="512.6308">1</text></g><!--link ReferenceVariable to Concept--><g class="link" data-entity-1="ent0002" data-entity-2="ent0005" data-link-type="dependency" data-source-line="39" id="lnk13"><path codeLine="39" d="M605.38,446.0794 C604.24,463.2794 599.04,479.6394 587.78,493.6094 C567.28,519.0394 475.5914,529.2279 428.4014,532.9479" fill="none" id="ReferenceVariable-to-Concept-5" style="stroke:#404040;stroke-width:1.2;"/><polygon fill="#404040" points="422.42,533.4194,431.7065,536.6997,427.4045,533.0264,431.0778,528.7245,422.42,533.4194" style="stroke:#404040;stroke-width:1.2;"/><text fill="#000000" font-family="sans-serif" font-size="13" lengthAdjust="spacing" textLength="127.9243" x="599.78" y="490.1045">hasIntendedDataType</text><text fill="#000000" font-family="sans-serif" font-size="13" lengthAdjust="spacing" textLength="7.23" x="429.9556" y="528.2082">1</text></g><!--link ReferenceVariable to Concept--><g class="link" data-entity-1="ent0002" data-entity-2="ent0005" data-link-type="dependency" data-source-line="40" id="lnk14"><path codeLine="40" d="M684.09,369.7794 C734.89,406.3494 772.77,451.8194 735.78,493.6094 C715.02,517.0594 503.6723,529.7648 428.3223,533.5948" fill="none" id="ReferenceVariable-to-Concept-6" style="stroke:#404040;stroke-width:1.2;"/><polygon fill="#404040" points="422.33,533.8994,431.5215,537.4373,427.3236,533.6456,431.1153,529.4477,422.33,533.8994" style="stroke:#404040;stroke-width:1.2;"/><text fill="#000000" font-family="sans-serif" font-size="13" lengthAdjust="spacing" textLength="111.2808" x="746.78" y="490.1045">unitOfMeasureKind</text><text fill="#000000" font-family="sans-serif" font-size="13" lengthAdjust="spacing" textLength="7.23" x="429.8426" y="548.9112">1</text></g><!--link ReferenceVariable to Reference--><g class="link" data-entity-1="ent0002" data-entity-2="ent0010" data-link-type="dependency" data-source-line="37" id="lnk11"><path codeLine="37" d="M683.99,366.9794 C790.52,422.4694 925.7484,492.9079 979.3784,520.8379" fill="none" id="ReferenceVariable-to-Reference" style="stroke:#404040;stroke-width:1.2;"/><polygon fill="#404040" points="984.7,523.6094,978.5653,515.9045,980.2654,521.2999,974.87,523,984.7,523.6094" style="stroke:#404040;stroke-width:1.2;"/><text fill="#000000" font-family="sans-serif" font-size="13" lengthAdjust="spacing" textLength="39.019" x="919.78" y="490.1045">source</text><text fill="#000000" font-family="sans-serif" font-size="13" lengthAdjust="spacing" textLength="7.23" x="967.1204" y="512.7014">1</text></g><!--link ReferenceVariable to Reference--><g class="link" data-entity-1="ent0002" data-entity-2="ent0010" data-link-type="dependency" data-source-line="41" id="lnk15"><path codeLine="41" d="M683.92,332.6094 C771.53,360.4194 885.14,406.4394 967.78,475.6094 C983.69,488.9294 992.9392,504.978 999.1892,518.158" fill="none" id="ReferenceVariable-to-Reference-1" style="stroke:#404040;stroke-width:1.2;"/><polygon fill="#404040" points="1001.76,523.5794,1001.518,513.7335,999.6177,519.0616,994.2896,517.1612,1001.76,523.5794" style="stroke:#404040;stroke-width:1.2;"/><text fill="#000000" font-family="sans-serif" font-size="13" lengthAdjust="spacing" textLength="100.4453" x="983.78" y="490.1045">externalDefinition</text><text fill="#000000" font-family="sans-serif" font-size="13" lengthAdjust="spacing" textLength="7.23" x="991.2176" y="512.659">1</text></g><!--link ReferenceVariable to Identifier--><g class="link" data-entity-1="ent0002" data-entity-2="ent0016" data-link-type="dependency" data-source-line="43" id="lnk17"><path codeLine="43" d="M684.02,332.1694 C795.61,363.0794 958.22,413.3194 1092.78,475.6094 C1122.72,489.4794 1149.9401,507.1495 1168.6801,520.1495" fill="none" id="ReferenceVariable-to-Identifier" style="stroke:#404040;stroke-width:1.2;"/><polygon fill="#404040" points="1173.61,523.5694,1168.495,515.1529,1169.5017,520.7195,1163.9352,521.7261,1173.61,523.5694" style="stroke:#404040;stroke-width:1.2;"/><text fill="#000000" font-family="sans-serif" font-size="13" lengthAdjust="spacing" textLength="49.1372" x="1126.78" y="490.1045">identifier</text><text fill="#000000" font-family="sans-serif" font-size="13" lengthAdjust="spacing" textLength="7.23" x="1158.5383" y="512.6449">1</text></g><?plantuml-src ZLF1Rjim3BtxAmJdjg71KkoKmu0rIu2W7GQqMI_33ef4pqHboQ3ajjxGVvziLuqIEQZjYwr7Ff9FZmwT0dOB1H1e0VUSaEyLP2LAO099X6-eQjUo2gezaCti0-gQ4w-OBRaqJwZ_i88h2n7obSWyxKeK3ngiPOlvPGGAnVtPlumDOIkZ3B7Pvq_Twm-l34cWqzEDqUuE_m9RN6OlMJPmv4dpEUCs7OdDDklDUhNkYtui6YqS6isMR6LyLEtOhyLy_k5t1zPbQr5mzOqxlcjhE0eQ8XHtXQ5g72MZO9JOceP41xrr5r8aM46u1_bJe_jHV0Tk6ngXBhdTQWTQWZpVdSMgLd3AP1rrrtHKi7Ru23juTWdUnDdNg6LQHaA1FcfGyOGThPUelU5xK34OXF0LWRHNEAP8HF6-qmuB1FBezl3p2cjUGKB-4cmHxlsUgmPMfggDzWIzDyOXDbltJtO6lhZuml95FkAi9KFRJmBogWtrNyNg2mRXGeMKOY3t4-HlmKiMJ7esFWu-DUsqfCZ7Kxlgt9titl7ElJjef69tW_rQJ6fuV4ycfOwipgIyP1CcJfLwFAXsi78lM-JiztNRnZjnM93iFm00?></g></svg>