<svg xmlns="http://www.w3.org/2000/svg" xmlns:xlink="http://www.w3.org/1999/xlink" contentStyleType="text/css" data-diagram-type="CLASS" height="497px" preserveAspectRatio="none" style="width:4523px;height:497px;background:#FFFFFF;" version="1.1" viewBox="0 0 4523 497" width="4523px" zoomAndPan="magnify"><?plantuml 1.2026.3?><defs/><g><g class="title" data-source-line="1"><text fill="#000000" font-family="sans-serif" font-size="14" font-weight="700" lengthAdjust="spacing" textLength="71.5723" x="2222.2354" y="24.5332">XsdAnyUri</text></g><!--class XsdAnyUri--><g class="entity" data-qualified-name="XsdAnyUri" data-source-line="16" id="ent0002"><rect fill="#FAE5D3" height="93.0156" rx="2.5" ry="2.5" style="stroke:#404040;stroke-width:0.5;" width="192.1426" x="2045" y="390.6094"/><text fill="#000000" font-family="sans-serif" font-size="36" font-style="italic" lengthAdjust="spacing" textLength="190.1426" x="2046" y="432.9805">&#171;dataType&#187;</text><text fill="#000000" font-family="sans-serif" font-size="30" lengthAdjust="spacing" textLength="141.709" x="2070.2168" y="472.0332">XsdAnyUri</text></g><!--class CompositeProfile--><g class="entity" data-qualified-name="CompositeProfile" data-source-line="17" id="ent0003"><rect fill="#EEEEEE" height="47.7344" rx="2.5" ry="2.5" style="stroke:#404040;stroke-width:0.5;" width="234.4277" x="7" y="45.6094"/><text fill="#000000" font-family="sans-serif" font-size="30" font-style="italic" lengthAdjust="spacing" textLength="228.4277" x="10" y="81.752">CompositeProfile</text></g><!--class Dataset--><g class="entity" data-qualified-name="Dataset" data-source-line="19" id="ent0005"><rect fill="#EEEEEE" height="47.7344" rx="2.5" ry="2.5" style="stroke:#404040;stroke-width:0.5;" width="109.3887" x="261.5" y="45.6094"/><text fill="#000000" font-family="sans-serif" font-size="30" lengthAdjust="spacing" textLength="103.3887" x="264.5" y="81.752">Dataset</text></g><!--class DataDownload--><g class="entity" data-qualified-name="DataDownload" data-source-line="21" id="ent0007"><rect fill="#EEEEEE" height="47.7344" rx="2.5" ry="2.5" style="stroke:#404040;stroke-width:0.5;" width="202.7871" x="431.5" y="45.6094"/><text fill="#000000" font-family="sans-serif" font-size="30" lengthAdjust="spacing" textLength="196.7871" x="434.5" y="81.752">DataDownload</text></g><!--class ActionResult--><g class="entity" data-qualified-name="ActionResult" data-source-line="24" id="ent0010"><rect fill="#EEEEEE" height="47.7344" rx="2.5" ry="2.5" style="stroke:#404040;stroke-width:0.5;" width="174.4131" x="704" y="45.6094"/><text fill="#000000" font-family="sans-serif" font-size="30" lengthAdjust="spacing" textLength="168.4131" x="707" y="81.752">ActionResult</text></g><!--class DefinedTerm--><g class="entity" data-qualified-name="DefinedTerm" data-source-line="26" id="ent0012"><rect fill="#EEEEEE" height="47.7344" rx="2.5" ry="2.5" style="stroke:#404040;stroke-width:0.5;" width="179.3936" x="1004.5" y="45.6094"/><text fill="#000000" font-family="sans-serif" font-size="30" lengthAdjust="spacing" textLength="173.3936" x="1007.5" y="81.752">DefinedTerm</text></g><!--class Identifier--><g class="entity" data-qualified-name="Identifier" data-source-line="29" id="ent0015"><rect fill="#EEEEEE" height="47.7344" rx="2.5" ry="2.5" style="stroke:#404040;stroke-width:0.5;" width="121.0635" x="1290.5" y="45.6094"/><text fill="#000000" font-family="sans-serif" font-size="30" lengthAdjust="spacing" textLength="115.0635" x="1293.5" y="81.752">Identifier</text></g><!--class AdditionalProperty--><g class="entity" data-qualified-name="AdditionalProperty" data-source-line="31" id="ent0017"><rect fill="#EEEEEE" height="47.7344" rx="2.5" ry="2.5" style="stroke:#404040;stroke-width:0.5;" width="251.1416" x="1431.5" y="45.6094"/><text fill="#000000" font-family="sans-serif" font-size="30" lengthAdjust="spacing" textLength="245.1416" x="1434.5" y="81.752">AdditionalProperty</text></g><!--class Reference--><g class="entity" data-qualified-name="Reference" data-source-line="33" id="ent0019"><rect fill="#EEEEEE" height="47.7344" rx="2.5" ry="2.5" style="stroke:#404040;stroke-width:0.5;" width="144.4131" x="1703" y="45.6094"/><text fill="#000000" font-family="sans-serif" font-size="30" lengthAdjust="spacing" textLength="138.4131" x="1706" y="81.752">Reference</text></g><!--class ProvActivity--><g class="entity" data-qualified-name="ProvActivity" data-source-line="36" id="ent0022"><rect fill="#EEEEEE" height="47.7344" rx="2.5" ry="2.5" style="stroke:#404040;stroke-width:0.5;" width="162.6943" x="1867.5" y="45.6094"/><text fill="#000000" font-family="sans-serif" font-size="30" lengthAdjust="spacing" textLength="156.6943" x="1870.5" y="81.752">ProvActivity</text></g><!--class DerivedFrom--><g class="entity" data-qualified-name="DerivedFrom" data-source-line="38" id="ent0024"><rect fill="#EEEEEE" height="47.7344" rx="2.5" ry="2.5" style="stroke:#404040;stroke-width:0.5;" width="179.3643" x="2050.5" y="45.6094"/><text fill="#000000" font-family="sans-serif" font-size="30" lengthAdjust="spacing" textLength="173.3643" x="2053.5" y="81.752">DerivedFrom</text></g><!--class CatalogRecord--><g class="entity" data-qualified-name="CatalogRecord" data-source-line="41" id="ent0027"><rect fill="#EEEEEE" height="47.7344" rx="2.5" ry="2.5" style="stroke:#404040;stroke-width:0.5;" width="206.1123" x="2250" y="45.6094"/><text fill="#000000" font-family="sans-serif" font-size="30" lengthAdjust="spacing" textLength="200.1123" x="2253" y="81.752">CatalogRecord</text></g><!--class CdifConceptOrTerm--><g class="entity" data-qualified-name="CdifConceptOrTerm" data-source-line="43" id="ent0029"><rect fill="#EEEEEE" height="47.7344" rx="2.5" ry="2.5" style="stroke:#404040;stroke-width:0.5;" width="274.4033" x="2476" y="45.6094"/><text fill="#000000" font-family="sans-serif" font-size="30" lengthAdjust="spacing" textLength="268.4033" x="2479" y="81.752">CdifConceptOrTerm</text></g><!--class VariableMeasured--><g class="entity" data-qualified-name="VariableMeasured" data-source-line="45" id="ent0031"><rect fill="#EEEEEE" height="47.7344" rx="2.5" ry="2.5" style="stroke:#404040;stroke-width:0.5;" width="249.4717" x="2770.5" y="45.6094"/><text fill="#000000" font-family="sans-serif" font-size="30" lengthAdjust="spacing" textLength="243.4717" x="2773.5" y="81.752">VariableMeasured</text></g><!--class SpatialExtent--><g class="entity" data-qualified-name="SpatialExtent" data-source-line="47" id="ent0033"><rect fill="#EEEEEE" height="47.7344" rx="2.5" ry="2.5" style="stroke:#404040;stroke-width:0.5;" width="182.7773" x="3039.5" y="45.6094"/><text fill="#000000" font-family="sans-serif" font-size="30" lengthAdjust="spacing" textLength="176.7773" x="3042.5" y="81.752">SpatialExtent</text></g><!--class QualityMeasure--><g class="entity" data-qualified-name="QualityMeasure" data-source-line="49" id="ent0035"><rect fill="#EEEEEE" height="47.7344" rx="2.5" ry="2.5" style="stroke:#404040;stroke-width:0.5;" width="216.0879" x="3243" y="45.6094"/><text fill="#000000" font-family="sans-serif" font-size="30" lengthAdjust="spacing" textLength="210.0879" x="3246" y="81.752">QualityMeasure</text></g><!--class QualityMeasurement--><g class="entity" data-qualified-name="QualityMeasurement" data-source-line="51" id="ent0037"><rect fill="#EEEEEE" height="47.7344" rx="2.5" ry="2.5" style="stroke:#404040;stroke-width:0.5;" width="282.7822" x="3479.5" y="45.6094"/><text fill="#000000" font-family="sans-serif" font-size="30" lengthAdjust="spacing" textLength="276.7822" x="3482.5" y="81.752">QualityMeasurement</text></g><!--class AbstractGeometry--><g class="entity" data-qualified-name="AbstractGeometry" data-source-line="53" id="ent0039"><rect fill="#EEEEEE" height="47.7344" rx="2.5" ry="2.5" style="stroke:#404040;stroke-width:0.5;" width="247.7432" x="3783" y="45.6094"/><text fill="#000000" font-family="sans-serif" font-size="30" font-style="italic" lengthAdjust="spacing" textLength="241.7432" x="3786" y="81.752">AbstractGeometry</text></g><!--class Geometry--><g class="entity" data-qualified-name="Geometry" data-source-line="55" id="ent0041"><rect fill="#EEEEEE" height="47.7344" rx="2.5" ry="2.5" style="stroke:#404040;stroke-width:0.5;" width="137.7041" x="4051" y="45.6094"/><text fill="#000000" font-family="sans-serif" font-size="30" lengthAdjust="spacing" textLength="131.7041" x="4054" y="81.752">Geometry</text></g><!--class Instant--><g class="entity" data-qualified-name="Instant" data-source-line="58" id="ent0044"><rect fill="#EEEEEE" height="47.7344" rx="2.5" ry="2.5" style="stroke:#404040;stroke-width:0.5;" width="96.0586" x="4209" y="45.6094"/><text fill="#000000" font-family="sans-serif" font-size="30" lengthAdjust="spacing" textLength="90.0586" x="4212" y="81.752">Instant</text></g><!--class TimePosition--><g class="entity" data-qualified-name="TimePosition" data-source-line="60" id="ent0046"><rect fill="#EEEEEE" height="47.7344" rx="2.5" ry="2.5" style="stroke:#404040;stroke-width:0.5;" width="179.3936" x="4327.5" y="45.6094"/><text fill="#000000" font-family="sans-serif" font-size="30" lengthAdjust="spacing" textLength="173.3936" x="4330.5" y="81.752">TimePosition</text></g><!--link CompositeProfile to XsdAnyUri--><g class="link" data-entity-1="ent0003" data-entity-2="ent0002" data-link-type="dependency" data-source-line="18" id="lnk4"><path codeLine="18" d="M119.79,93.6494 C113.74,134.9094 108.04,221.2094 156,265.6094 C295.87,395.1094 1660.6709,427.904 2038.8209,434.544" fill="none" id="CompositeProfile-to-XsdAnyUri" style="stroke:#404040;stroke-width:1.2;stroke-dasharray:7,7;"/><polygon fill="#404040" points="2044.82,434.6494,2035.8916,430.492,2039.8208,434.5616,2035.7512,438.4908,2044.82,434.6494" style="stroke:#404040;stroke-width:1.2;"/><text fill="#000000" font-family="sans-serif" font-size="36" lengthAdjust="spacing" textLength="136.0723" x="157" y="256.9805">identifier</text></g><!--link Dataset to XsdAnyUri--><g class="link" data-entity-1="ent0005" data-entity-2="ent0002" data-link-type="dependency" data-source-line="20" id="lnk6"><path codeLine="20" d="M308.11,93.7794 C295.88,134.4494 278.06,218.8194 322,265.6094 C440.82,392.1194 1680.1413,426.8151 2038.8313,434.2451" fill="none" id="Dataset-to-XsdAnyUri" style="stroke:#404040;stroke-width:1.2;stroke-dasharray:7,7;"/><polygon fill="#404040" points="2044.83,434.3694,2035.9148,430.1838,2039.8311,434.2658,2035.7491,438.1821,2044.83,434.3694" style="stroke:#404040;stroke-width:1.2;"/><text fill="#000000" font-family="sans-serif" font-size="36" lengthAdjust="spacing" textLength="40.0078" x="323" y="256.9805">url</text></g><!--link DataDownload to XsdAnyUri--><g class="link" data-entity-1="ent0007" data-entity-2="ent0002" data-link-type="dependency" data-source-line="22" id="lnk8"><path codeLine="22" d="M492.53,93.7894 C431.88,131.3194 329.89,207.0994 383,265.6094 C495.45,389.4994 1687.9216,425.9311 2038.9316,434.0211" fill="none" id="DataDownload-to-XsdAnyUri" style="stroke:#404040;stroke-width:1.2;stroke-dasharray:7,7;"/><polygon fill="#404040" points="2044.93,434.1594,2036.0246,429.9531,2039.9313,434.0442,2035.8402,437.9509,2044.93,434.1594" style="stroke:#404040;stroke-width:1.2;"/><text fill="#000000" font-family="sans-serif" font-size="36" lengthAdjust="spacing" textLength="164.0742" x="384" y="256.9805">contentUrl</text></g><!--link DataDownload to XsdAnyUri--><g class="link" data-entity-1="ent0007" data-entity-2="ent0002" data-link-type="dependency" data-source-line="23" id="lnk9"><path codeLine="23" d="M534.66,93.6194 C538.51,140.1294 549.73,242.8294 575,265.6094 C684.54,364.3394 1715.1359,417.4633 2038.8859,431.8333" fill="none" id="DataDownload-to-XsdAnyUri-1" style="stroke:#404040;stroke-width:1.2;stroke-dasharray:7,7;"/><polygon fill="#404040" points="2044.88,432.0994,2036.0662,427.7042,2039.8849,431.8777,2035.7115,435.6964,2044.88,432.0994" style="stroke:#404040;stroke-width:1.2;"/><text fill="#000000" font-family="sans-serif" font-size="36" lengthAdjust="spacing" textLength="190.0547" x="576" y="256.9805">conformsTo</text></g><!--link ActionResult to XsdAnyUri--><g class="link" data-entity-1="ent0010" data-entity-2="ent0002" data-link-type="dependency" data-source-line="25" id="lnk11"><path codeLine="25" d="M782.88,93.9094 C770.41,134.4194 752.2,218.0294 795,265.6094 C878.7,358.6394 1744.8893,414.3658 2038.8793,430.7358" fill="none" id="ActionResult-to-XsdAnyUri" style="stroke:#404040;stroke-width:1.2;stroke-dasharray:7,7;"/><polygon fill="#404040" points="2044.87,431.0694,2036.1063,426.5752,2039.8777,430.7914,2035.6615,434.5628,2044.87,431.0694" style="stroke:#404040;stroke-width:1.2;"/><text fill="#000000" font-family="sans-serif" font-size="36" lengthAdjust="spacing" textLength="190.0547" x="796" y="256.9805">conformsTo</text></g><!--link DefinedTerm to XsdAnyUri--><g class="link" data-entity-1="ent0012" data-entity-2="ent0002" data-link-type="dependency" data-source-line="27" id="lnk13"><path codeLine="27" d="M1069.1,93.7294 C1029.91,132.8694 962.74,213.0294 1008,265.6094 C1141.9,421.1694 1790.23,436.725 2038.88,436.905" fill="none" id="DefinedTerm-to-XsdAnyUri" style="stroke:#404040;stroke-width:1.2;stroke-dasharray:7,7;"/><polygon fill="#404040" points="2044.88,436.9094,2035.88,432.9094,2039.88,436.9094,2035.88,440.9094,2044.88,436.9094" style="stroke:#404040;stroke-width:1.2;"/><text fill="#000000" font-family="sans-serif" font-size="36" lengthAdjust="spacing" textLength="290.127" x="1009" y="256.9805">inDefinedTermSet</text></g><!--link DefinedTerm to XsdAnyUri--><g class="link" data-entity-1="ent0012" data-entity-2="ent0002" data-link-type="dependency" data-source-line="28" id="lnk14"><path codeLine="28" d="M1139.97,93.7094 C1186.09,118.8994 1256.49,163.1294 1301,218.6094 C1315.21,236.3194 1303.44,251.2194 1321,265.6094 C1431.13,355.8994 1846.8104,407.2359 2038.8004,426.6459" fill="none" id="DefinedTerm-to-XsdAnyUri-1" style="stroke:#404040;stroke-width:1.2;stroke-dasharray:7,7;"/><polygon fill="#404040" points="2044.77,427.2494,2036.218,422.3644,2039.7954,426.7464,2035.4133,430.3238,2044.77,427.2494" style="stroke:#404040;stroke-width:1.2;"/><text fill="#000000" font-family="sans-serif" font-size="36" lengthAdjust="spacing" textLength="234.1582" x="1322" y="256.9805">additionalType</text></g><!--link Identifier to XsdAnyUri--><g class="link" data-entity-1="ent0015" data-entity-2="ent0002" data-link-type="dependency" data-source-line="30" id="lnk16"><path codeLine="30" d="M1397.47,93.8294 C1444.16,119.1294 1515.68,163.4394 1562,218.6094 C1576.83,236.2694 1566.58,250.4894 1584,265.6094 C1716.1,380.3194 1918.0607,417.2428 2039.0007,429.5328" fill="none" id="Identifier-to-XsdAnyUri" style="stroke:#404040;stroke-width:1.2;stroke-dasharray:7,7;"/><polygon fill="#404040" points="2044.97,430.1394,2036.4205,425.25,2039.9956,429.6339,2035.6117,433.209,2044.97,430.1394" style="stroke:#404040;stroke-width:1.2;"/><text fill="#000000" font-family="sans-serif" font-size="36" lengthAdjust="spacing" textLength="40.0078" x="1585" y="256.9805">url</text></g><!--link AdditionalProperty to XsdAnyUri--><g class="link" data-entity-1="ent0017" data-entity-2="ent0002" data-link-type="dependency" data-source-line="32" id="lnk18"><path codeLine="32" d="M1568.2,93.6894 C1592.96,144.6394 1650.45,262.4794 1654,265.6094 C1765.67,364.1394 1931.7703,405.6312 2038.6503,423.2912" fill="none" id="AdditionalProperty-to-XsdAnyUri" style="stroke:#404040;stroke-width:1.2;stroke-dasharray:7,7;"/><polygon fill="#404040" points="2044.57,424.2694,2036.3425,418.8557,2039.6369,423.4543,2035.0383,426.7487,2044.57,424.2694" style="stroke:#404040;stroke-width:1.2;"/><text fill="#000000" font-family="sans-serif" font-size="36" lengthAdjust="spacing" textLength="144.1055" x="1655" y="256.9805">unitCode</text></g><!--link Reference to XsdAnyUri--><g class="link" data-entity-1="ent0019" data-entity-2="ent0002" data-link-type="dependency" data-source-line="34" id="lnk20"><path codeLine="34" d="M1778.4,93.6194 C1785.51,139.1594 1803.03,238.6894 1824,265.6094 C1879.58,336.9694 1968.018,380.0978 2039.288,405.8878" fill="none" id="Reference-to-XsdAnyUri" style="stroke:#404040;stroke-width:1.2;stroke-dasharray:7,7;"/><polygon fill="#404040" points="2044.93,407.9294,2037.8281,401.1056,2040.2284,406.228,2035.106,408.6283,2044.93,407.9294" style="stroke:#404040;stroke-width:1.2;"/><text fill="#000000" font-family="sans-serif" font-size="36" lengthAdjust="spacing" textLength="40.0078" x="1825" y="256.9805">url</text></g><!--link Reference to XsdAnyUri--><g class="link" data-entity-1="ent0019" data-entity-2="ent0002" data-link-type="dependency" data-source-line="35" id="lnk21"><path codeLine="35" d="M1789.47,93.8794 C1819.76,142.4194 1888.16,251.1694 1902,265.6094 C1949.26,314.9194 2007.4484,356.1292 2057.0184,387.2492" fill="none" id="Reference-to-XsdAnyUri-1" style="stroke:#404040;stroke-width:1.2;stroke-dasharray:7,7;"/><polygon fill="#404040" points="2062.1,390.4394,2056.6044,382.2663,2057.8653,387.7809,2052.3508,389.0418,2062.1,390.4394" style="stroke:#404040;stroke-width:1.2;"/><text fill="#000000" font-family="sans-serif" font-size="36" lengthAdjust="spacing" textLength="118.0723" x="1903" y="256.9805">relation</text></g><!--link ProvActivity to XsdAnyUri--><g class="link" data-entity-1="ent0022" data-entity-2="ent0002" data-link-type="dependency" data-source-line="37" id="lnk23"><path codeLine="37" d="M1961.16,93.7494 C1992.36,153.1494 2072.9196,306.5077 2114.2696,385.2177" fill="none" id="ProvActivity-to-XsdAnyUri" style="stroke:#404040;stroke-width:1.2;stroke-dasharray:7,7;"/><polygon fill="#404040" points="2117.06,390.5294,2116.4154,380.7016,2114.7346,386.103,2109.3332,384.4222,2117.06,390.5294" style="stroke:#404040;stroke-width:1.2;"/><text fill="#000000" font-family="sans-serif" font-size="36" lengthAdjust="spacing" textLength="78.0645" x="2051" y="256.9805">used</text></g><!--link DerivedFrom to XsdAnyUri--><g class="link" data-entity-1="ent0024" data-entity-2="ent0002" data-link-type="dependency" data-source-line="39" id="lnk25"><path codeLine="39" d="M2140.06,93.7494 C2140.23,153.1494 2140.6432,305.8194 2140.8632,384.5294" fill="none" id="DerivedFrom-to-XsdAnyUri" style="stroke:#404040;stroke-width:1.2;stroke-dasharray:7,7;"/><polygon fill="#404040" points="2140.88,390.5294,2144.8548,381.5182,2140.866,385.5294,2136.8549,381.5406,2140.88,390.5294" style="stroke:#404040;stroke-width:1.2;"/><text fill="#000000" font-family="sans-serif" font-size="36" lengthAdjust="spacing" textLength="40.0078" x="2141" y="256.9805">url</text></g><!--link DerivedFrom to XsdAnyUri--><g class="link" data-entity-1="ent0024" data-entity-2="ent0002" data-link-type="dependency" data-source-line="40" id="lnk26"><path codeLine="40" d="M2149.15,93.7194 C2159.99,122.4494 2177.4,173.2494 2184,218.6094 C2192.7,278.4094 2176.5412,341.0059 2161.2012,384.8559" fill="none" id="DerivedFrom-to-XsdAnyUri-1" style="stroke:#404040;stroke-width:1.2;stroke-dasharray:7,7;"/><polygon fill="#404040" points="2159.22,390.5194,2165.9675,383.345,2160.871,385.7998,2158.4162,380.7034,2159.22,390.5194" style="stroke:#404040;stroke-width:1.2;"/><text fill="#000000" font-family="sans-serif" font-size="36" lengthAdjust="spacing" textLength="118.0723" x="2187" y="256.9805">relation</text></g><!--link CatalogRecord to XsdAnyUri--><g class="link" data-entity-1="ent0027" data-entity-2="ent0002" data-link-type="dependency" data-source-line="42" id="lnk28"><path codeLine="42" d="M2352.2,93.6794 C2350,131.7194 2341.77,209.0194 2311,265.6094 C2284.24,314.8194 2243.5161,355.3725 2206.3961,386.5225" fill="none" id="CatalogRecord-to-XsdAnyUri" style="stroke:#404040;stroke-width:1.2;stroke-dasharray:7,7;"/><polygon fill="#404040" points="2201.8,390.3794,2211.2654,387.6581,2205.6301,387.1653,2206.1229,381.5299,2201.8,390.3794" style="stroke:#404040;stroke-width:1.2;"/><text fill="#000000" font-family="sans-serif" font-size="36" lengthAdjust="spacing" textLength="190.0547" x="2330" y="256.9805">conformsTo</text></g><!--link CdifConceptOrTerm to XsdAnyUri--><g class="link" data-entity-1="ent0029" data-entity-2="ent0002" data-link-type="dependency" data-source-line="44" id="lnk30"><path codeLine="44" d="M2608.36,93.8394 C2599.26,133.8594 2575.48,216.2694 2526,265.6094 C2446.16,345.2294 2328.5428,389.1996 2243.0528,412.8496" fill="none" id="CdifConceptOrTerm-to-XsdAnyUri" style="stroke:#404040;stroke-width:1.2;stroke-dasharray:7,7;"/><polygon fill="#404040" points="2237.27,414.4494,2247.0107,415.9049,2242.089,413.1162,2244.8777,408.1945,2237.27,414.4494" style="stroke:#404040;stroke-width:1.2;"/><text fill="#000000" font-family="sans-serif" font-size="36" lengthAdjust="spacing" textLength="136.0723" x="2561" y="256.9805">identifier</text></g><!--link VariableMeasured to XsdAnyUri--><g class="link" data-entity-1="ent0031" data-entity-2="ent0002" data-link-type="dependency" data-source-line="46" id="lnk32"><path codeLine="46" d="M2878.46,93.8194 C2848.23,134.5594 2780.04,219.0194 2703,265.6094 C2554.13,355.6294 2359.9597,400.3525 2243.0597,420.8625" fill="none" id="VariableMeasured-to-XsdAnyUri" style="stroke:#404040;stroke-width:1.2;stroke-dasharray:7,7;"/><polygon fill="#404040" points="2237.15,421.8994,2246.7058,424.2839,2242.0748,421.0353,2245.3234,416.4043,2237.15,421.8994" style="stroke:#404040;stroke-width:1.2;"/><text fill="#000000" font-family="sans-serif" font-size="36" lengthAdjust="spacing" textLength="136.0723" x="2763" y="256.9805">identifier</text></g><!--link SpatialExtent to XsdAnyUri--><g class="link" data-entity-1="ent0033" data-entity-2="ent0002" data-link-type="dependency" data-source-line="48" id="lnk34"><path codeLine="48" d="M3111.51,93.6694 C3075.28,134.9394 2993.21,221.2794 2905,265.6094 C2682.48,377.4494 2393.037,416.014 2243.097,429.194" fill="none" id="SpatialExtent-to-XsdAnyUri" style="stroke:#404040;stroke-width:1.2;stroke-dasharray:7,7;"/><polygon fill="#404040" points="2237.12,429.7194,2246.4357,432.9159,2242.1008,429.2816,2245.7352,424.9467,2237.12,429.7194" style="stroke:#404040;stroke-width:1.2;"/><text fill="#000000" font-family="sans-serif" font-size="36" lengthAdjust="spacing" textLength="136.0723" x="2975" y="256.9805">identifier</text></g><!--link QualityMeasure to XsdAnyUri--><g class="link" data-entity-1="ent0035" data-entity-2="ent0002" data-link-type="dependency" data-source-line="50" id="lnk36"><path codeLine="50" d="M3331.13,93.7294 C3293.8,135.4994 3208.65,223.1494 3117,265.6094 C2817.34,404.4394 2424.1681,430.7778 2243.3081,435.3478" fill="none" id="QualityMeasure-to-XsdAnyUri" style="stroke:#404040;stroke-width:1.2;stroke-dasharray:7,7;"/><polygon fill="#404040" points="2237.31,435.4994,2246.4082,439.2708,2242.3084,435.3731,2246.2061,431.2733,2237.31,435.4994" style="stroke:#404040;stroke-width:1.2;"/><text fill="#000000" font-family="sans-serif" font-size="36" lengthAdjust="spacing" textLength="136.0723" x="3189" y="256.9805">identifier</text></g><!--link QualityMeasurement to XsdAnyUri--><g class="link" data-entity-1="ent0037" data-entity-2="ent0002" data-link-type="dependency" data-source-line="52" id="lnk38"><path codeLine="52" d="M3595.32,93.8994 C3547.35,135.9394 3439.16,224.0094 3331,265.6094 C2945.3,413.9394 2450.3598,434.7661 2243.1798,436.6061" fill="none" id="QualityMeasurement-to-XsdAnyUri" style="stroke:#404040;stroke-width:1.2;stroke-dasharray:7,7;"/><polygon fill="#404040" points="2237.18,436.6594,2246.2152,440.5793,2242.1798,436.615,2246.1441,432.5796,2237.18,436.6594" style="stroke:#404040;stroke-width:1.2;"/><text fill="#000000" font-family="sans-serif" font-size="36" lengthAdjust="spacing" textLength="136.0723" x="3426" y="256.9805">identifier</text></g><!--link AbstractGeometry to XsdAnyUri--><g class="link" data-entity-1="ent0039" data-entity-2="ent0002" data-link-type="dependency" data-source-line="54" id="lnk40"><path codeLine="54" d="M3876.79,93.7094 C3819.88,135.8494 3691.4,224.6494 3568,265.6094 C3318.91,348.2794 2521.5254,409.8013 2243.0754,429.2513" fill="none" id="AbstractGeometry-to-XsdAnyUri" style="stroke:#404040;stroke-width:1.2;stroke-dasharray:7,7;"/><polygon fill="#404040" points="2237.09,429.6694,2246.3468,433.0325,2242.0778,429.321,2245.7894,425.052,2237.09,429.6694" style="stroke:#404040;stroke-width:1.2;"/><text fill="#000000" font-family="sans-serif" font-size="36" lengthAdjust="spacing" textLength="136.0723" x="3677" y="256.9805">identifier</text></g><!--link Geometry to XsdAnyUri--><g class="link" data-entity-1="ent0041" data-entity-2="ent0002" data-link-type="dependency" data-source-line="56" id="lnk42"><path codeLine="56" d="M4094.12,93.6394 C4044.7,136.0994 3931.78,225.9594 3819,265.6094 C3523.24,369.5794 2554.2945,418.6521 2243.2545,432.0021" fill="none" id="Geometry-to-XsdAnyUri" style="stroke:#404040;stroke-width:1.2;stroke-dasharray:7,7;"/><polygon fill="#404040" points="2237.26,432.2594,2246.4232,435.8698,2242.2554,432.045,2246.0802,427.8771,2237.26,432.2594" style="stroke:#404040;stroke-width:1.2;"/><text fill="#000000" font-family="sans-serif" font-size="36" lengthAdjust="spacing" textLength="136.0723" x="3917" y="256.9805">identifier</text></g><!--link Geometry to XsdAnyUri--><g class="link" data-entity-1="ent0041" data-entity-2="ent0002" data-link-type="dependency" data-source-line="57" id="lnk43"><path codeLine="57" d="M4120.4,93.7194 C4119.75,135.4794 4111.76,223.1094 4059,265.6094 C3916.02,380.7894 2611.9678,423.6885 2243.1878,433.5785" fill="none" id="Geometry-to-XsdAnyUri-1" style="stroke:#404040;stroke-width:1.2;stroke-dasharray:7,7;"/><polygon fill="#404040" points="2237.19,433.7394,2246.294,437.4967,2242.1882,433.6053,2246.0795,429.4995,2237.19,433.7394" style="stroke:#404040;stroke-width:1.2;"/><text fill="#000000" font-family="sans-serif" font-size="36" lengthAdjust="spacing" textLength="47.9883" x="4093" y="256.9805">crs</text></g><!--link Instant to XsdAnyUri--><g class="link" data-entity-1="ent0044" data-entity-2="ent0002" data-link-type="dependency" data-source-line="59" id="lnk45"><path codeLine="59" d="M4251.38,93.8494 C4239.78,136.2394 4208.84,225.4094 4146,265.6094 C3983.86,369.3194 2621.0768,420.6237 2243.2568,432.9537" fill="none" id="Instant-to-XsdAnyUri" style="stroke:#404040;stroke-width:1.2;stroke-dasharray:7,7;"/><polygon fill="#404040" points="2237.26,433.1494,2246.3857,436.8537,2242.2573,432.9863,2246.1247,428.8579,2237.26,433.1494" style="stroke:#404040;stroke-width:1.2;"/><text fill="#000000" font-family="sans-serif" font-size="36" lengthAdjust="spacing" textLength="136.0723" x="4194" y="256.9805">identifier</text></g><!--link TimePosition to XsdAnyUri--><g class="link" data-entity-1="ent0046" data-entity-2="ent0002" data-link-type="dependency" data-source-line="61" id="lnk47"><path codeLine="61" d="M4414.99,93.6594 C4409.97,135.7294 4392.84,224.3994 4336,265.6094 C4164.16,390.1994 2643.9889,426.8264 2243.0989,434.3764" fill="none" id="TimePosition-to-XsdAnyUri" style="stroke:#404040;stroke-width:1.2;stroke-dasharray:7,7;"/><polygon fill="#404040" points="2237.1,434.4894,2246.1737,438.3192,2242.0991,434.3952,2246.0231,430.3206,2237.1,434.4894" style="stroke:#404040;stroke-width:1.2;"/><text fill="#000000" font-family="sans-serif" font-size="36" lengthAdjust="spacing" textLength="130.043" x="4377" y="256.9805">hasTRS</text></g><?plantuml-src bPLDZzem48Rl-HKMt17TxVPGhP1IFgeUgcw1NVLguibYuTZHs41frVzUvyjsaeMqS8cVITvvFUCFmuq0yaEpM5wUaKTxpe0a71C1rJDakRcG3B8Te8xqWSkS8is8tbEcpbo-afGA3K4aHbJdxPud1mbQatUJko28L1uqvEJkOHfGgHYKD8GCKdeKPgMasV1VGEu_1C54KAlzEo9LkhaI2idu_RJuM_X98GFiqb3AVcWCyjtHWCVJw4yKLT8ZLvCHeTfNY3m-CchezfB3R4R6gtZviBYFw4uRf8cfVOtcAikLvWQUKALSGAdHXMIyB7zHBp2Pp8AC7ubjX3GyvO2DkuNreC6KklMpasl6NPKZYl3pXJfBeIXp6Wre2JdOLKjirQohPoiwz5wgCDDRrIIF4yELN8EstIsJXy0bRy5XqGMaN0BR0cRLXFpOpoTWlHBB8Be1S_DboXWlt55Hh8F6mXVNfTA17pe30RhHdDYfs_MG0vfBLQKUzhNgXthwafkvtMPDaZMaW22JQccwaPFqv2sdrwC8WXPMcZpMqAbevOdNqmY1ozQ2lOGQc6ypyXEm5QgcpMuSjDcpjypVYdVjp-tI5kfr3OazKQfT71A_XLjqUBdE6K_doXOmDz_GBTeUzVgzoF0PyKAHqvs0hq3r4Q6otuKkGoymd62JsrfHiVnP70IbUeiuwJOTrlr-fC8kXDf9ATn6Jhc3_rSwQtptyPKKsS0CkXT1N8y_Wyh0OBsJEz3lusvWU48juPxWlmXTVIUn5tvpj4bjQ5sh-jaVQlLusEkMP_1KN7HsWvLI8N1wBTWLtLEzNM-Ylm00?></g></svg>