<svg xmlns="http://www.w3.org/2000/svg" xmlns:xlink="http://www.w3.org/1999/xlink" contentStyleType="text/css" data-diagram-type="CLASS" height="476px" preserveAspectRatio="none" style="width:295px;height:476px;background:#FFFFFF;" version="1.1" viewBox="0 0 295 476" width="295px" zoomAndPan="magnify"><?plantuml 1.2026.3?><defs/><g><g class="title" data-source-line="1"><text fill="#000000" font-family="sans-serif" font-size="14" font-weight="700" lengthAdjust="spacing" textLength="56" x="116.4827" y="24.5332">Concept</text></g><!--class Concept--><g class="entity" data-qualified-name="Concept" data-source-line="15" id="ent0002"><rect fill="#FEFECE" height="103.5313" rx="2.5" ry="2.5" style="stroke:#404040;stroke-width:0.5;" width="176.1719" x="26.83" y="68.6094"/><text fill="#000000" font-family="sans-serif" font-size="12" lengthAdjust="spacing" textLength="44.6953" x="92.5683" y="86.0664">Concept</text><line style="stroke:#404040;stroke-width:0.5;" x1="27.83" x2="202.0019" y1="93.7031" y2="93.7031"/><g data-visibility-modifier="PUBLIC_FIELD"><ellipse cx="37.83" cy="108.0078" fill="none" rx="3" ry="3" style="stroke:#038048;stroke-width:1;"/></g><text fill="#000000" font-family="sans-serif" font-size="14" lengthAdjust="spacing" textLength="150.1719" x="46.83" y="112.2363">identifier : XsdAnyUri [1]</text><g data-visibility-modifier="PUBLIC_FIELD"><ellipse cx="37.83" cy="125.6172" fill="none" rx="3" ry="3" style="stroke:#038048;stroke-width:1;"/></g><text fill="#000000" font-family="sans-serif" font-size="14" lengthAdjust="spacing" textLength="123.7373" x="46.83" y="129.8457">prefLabel : string [1]</text><g data-visibility-modifier="PUBLIC_FIELD"><ellipse cx="37.83" cy="143.2266" fill="none" rx="3" ry="3" style="stroke:#038048;stroke-width:1;"/></g><text fill="#000000" font-family="sans-serif" font-size="14" lengthAdjust="spacing" textLength="115.1787" x="46.83" y="147.4551">notation : string [1]</text><g data-visibility-modifier="PUBLIC_FIELD"><ellipse cx="37.83" cy="160.8359" fill="none" rx="3" ry="3" style="stroke:#038048;stroke-width:1;"/></g><text fill="#000000" font-family="sans-serif" font-size="14" lengthAdjust="spacing" textLength="136.9648" x="46.83" y="165.0645">definition : string [0..1]</text></g><!--class ConceptScheme--><g class="entity" data-qualified-name="ConceptScheme" data-source-line="21" id="ent0003"><rect fill="#EEEEEE" height="25.0938" rx="2.5" ry="2.5" style="stroke:#404040;stroke-width:0.5;" width="94.7168" x="67.33" y="430.1094"/><text fill="#000000" font-family="sans-serif" font-size="12" lengthAdjust="spacing" textLength="88.7168" x="70.33" y="447.5664">ConceptScheme</text></g><!--class XsdAnyUri--><g class="entity" data-qualified-name="XsdAnyUri" data-source-line="26" id="ent0008"><rect fill="#FAE5D3" height="40.1875" rx="2.5" ry="2.5" style="stroke:#404040;stroke-width:0.5;" width="65.3809" x="182.33" y="422.6094"/><text fill="#000000" font-family="sans-serif" font-size="12" font-style="italic" lengthAdjust="spacing" textLength="63.3809" x="183.33" y="440.0664">&#171;dataType&#187;</text><text fill="#000000" font-family="sans-serif" font-size="12" lengthAdjust="spacing" textLength="56.6836" x="186.6786" y="455.1602">XsdAnyUri</text></g><!--reverse link ConceptScheme to Concept--><g class="link" data-entity-1="ent0003" data-entity-2="ent0002" data-link-type="composition" data-source-line="22" id="lnk4"><path codeLine="22" d="M99,417.9894 C99,375.7194 99,249.5294 99,172.9194" fill="none" id="ConceptScheme-backto-Concept" style="stroke:#404040;stroke-width:1.2;"/><polygon fill="#404040" points="99,429.9894,103,423.9894,99,417.9894,95,423.9894,99,429.9894" style="stroke:#404040;stroke-width:1.2;"/><text fill="#000000" font-family="sans-serif" font-size="13" lengthAdjust="spacing" textLength="91.7808" x="7" y="315.9545">hasTopConcept</text><text fill="#000000" font-family="sans-serif" font-size="13" lengthAdjust="spacing" textLength="19.5127" x="76.9337" y="193.8148">1..*</text></g><!--link Concept to ConceptScheme--><g class="link" data-entity-1="ent0002" data-entity-2="ent0003" data-link-type="dependency" data-source-line="23" id="lnk5"><path codeLine="23" d="M130.67,172.6994 C130.67,249.2394 130.67,381.5894 130.67,423.9494" fill="none" id="Concept-to-ConceptScheme" style="stroke:#404040;stroke-width:1.2;"/><polygon fill="#404040" points="130.67,429.9494,134.67,420.9494,130.67,424.9494,126.67,420.9494,130.67,429.9494" style="stroke:#404040;stroke-width:1.2;"/><text fill="#000000" font-family="sans-serif" font-size="13" lengthAdjust="spacing" textLength="57.8081" x="72.67" y="297.8245">inScheme</text><text fill="#000000" font-family="sans-serif" font-size="13" lengthAdjust="spacing" textLength="19.5127" x="114.3231" y="419.3604">1..*</text></g><!--link Concept to Concept--><g class="link" data-entity-1="ent0002" data-entity-2="ent0002" data-link-type="dependency" data-source-line="24" id="lnk6"><path codeLine="24" d="M85.5,68.2394 C85.5,55.0794 85.5,44.6094 85.5,44.6094 C85.5,44.6094 232.5,44.6094 232.5,44.6094 C232.5,44.6094 232.5,339.6094 232.5,339.6094 C232.5,339.6094 192.58,339.6094 192.58,339.6094 C192.58,339.6094 192.58,243.5594 192.58,178.7894" fill="none" id="Concept-to-Concept" style="stroke:#404040;stroke-width:1.2;"/><polygon fill="#404040" points="192.58,172.7894,188.58,181.7894,192.58,177.7894,196.58,181.7894,192.58,172.7894" style="stroke:#404040;stroke-width:1.2;"/><text fill="#000000" font-family="sans-serif" font-size="13" lengthAdjust="spacing" textLength="44.8081" x="182.5" y="229.6545">broader</text><text fill="#000000" font-family="sans-serif" font-size="13" lengthAdjust="spacing" textLength="19.5127" x="181.9187" y="193.6689">0..*</text></g><!--link Concept to Concept--><g class="link" data-entity-1="ent0002" data-entity-2="ent0002" data-link-type="dependency" data-source-line="25" id="lnk7"><path codeLine="25" d="M144.17,68.3494 C144.17,61.3994 144.17,56.6094 144.17,56.6094 C144.17,56.6094 217.67,56.6094 217.67,56.6094 C217.67,56.6094 217.67,256.6094 217.67,256.6094 C217.67,256.6094 197.71,256.6094 197.71,256.6094 C197.71,256.6094 197.71,217.1494 197.71,178.7994" fill="none" id="Concept-to-Concept-1" style="stroke:#404040;stroke-width:1.2;"/><polygon fill="#404040" points="197.71,172.7994,193.71,181.7994,197.71,177.7994,201.71,181.7994,197.71,172.7994" style="stroke:#404040;stroke-width:1.2;"/><text fill="#000000" font-family="sans-serif" font-size="13" lengthAdjust="spacing" textLength="51.2954" x="223.67" y="157.3645">narrower</text><text fill="#000000" font-family="sans-serif" font-size="13" lengthAdjust="spacing" textLength="19.5127" x="208.9896" y="193.6801">0..*</text></g><!--link Concept to XsdAnyUri--><g class="link" data-entity-1="ent0002" data-entity-2="ent0008" data-link-type="dependency" data-source-line="27" id="lnk9"><path codeLine="27" d="M187.46,172.6994 C187.46,245.1494 187.46,366.9694 187.46,416.3494" fill="none" id="Concept-to-XsdAnyUri" style="stroke:#404040;stroke-width:1.2;stroke-dasharray:7,7;"/><polygon fill="#404040" points="187.46,422.3494,191.46,413.3494,187.46,417.3494,183.46,413.3494,187.46,422.3494" style="stroke:#404040;stroke-width:1.2;"/><text fill="#000000" font-family="sans-serif" font-size="13" lengthAdjust="spacing" textLength="49.1372" x="137.46" y="294.0245">identifier</text></g><?plantuml-src VL5DQyCm3BtxLuZqrf6GTDkbb43NfQVTsi5WxE0coYAQs44sb6xqly_vQ9PcCFiYtdiyIK-MR8cmqIh5seg2CeIKE2sngx6gxHagh0x8HfWZgLgohC0KCjCdKf-GozBWY5apwzE-eFIeq1Y8WiM8PAcE1cjOF8OZLEaCMtGCbgJGdci4pRRG8o8jfVFz5j2rskXICymUmkOxy4bpXZn5jrhP7NqXH0jn4QBpyFgrFP3c6W7CjiassIHjWpiNWRAK4p8iuSraQtL-POBtwADXQyRyHHwmTAIntAJHCqfRQKchFqI6EIcQK64GEFOocMgN5bZXUBOEWLdIFd6BpdqVl2W8vjwmoX8AQVQwlbxtYlj-F97s7aiWrPMtsd1YUs0jNSZ_YvHipkDK_Lf3VErAls6kLfcqSkzE7SSk_NNo-7m_E0T1F9Aw-OQ3Y1y0?></g></svg>