<svg xmlns="http://www.w3.org/2000/svg" xmlns:xlink="http://www.w3.org/1999/xlink" contentStyleType="text/css" data-diagram-type="CLASS" height="202px" preserveAspectRatio="none" style="width:1285px;height:202px;background:#FFFFFF;" version="1.1" viewBox="0 0 1285 202" width="1285px" zoomAndPan="magnify"><?plantuml 1.2026.3?><defs/><g><g class="title" data-source-line="1"><text fill="#000000" font-family="sans-serif" font-size="14" font-weight="700" lengthAdjust="spacing" textLength="71.5723" x="603.3963" y="24.5332">XsdAnyUri</text></g><!--class XsdAnyUri--><g class="entity" data-qualified-name="XsdAnyUri" data-source-line="12" id="ent0002"><rect fill="#FAE5D3" height="40.1875" rx="2.5" ry="2.5" style="stroke:#404040;stroke-width:0.5;" width="65.3809" x="618.82" y="148.6094"/><text fill="#000000" font-family="sans-serif" font-size="12" font-style="italic" lengthAdjust="spacing" textLength="63.3809" x="619.82" y="166.0664">&#171;dataType&#187;</text><text fill="#000000" font-family="sans-serif" font-size="12" lengthAdjust="spacing" textLength="56.6836" x="623.1686" y="181.1602">XsdAnyUri</text></g><!--class ProvActivity--><g class="entity" data-qualified-name="ProvActivity" data-source-line="13" id="ent0003"><rect fill="#EEEEEE" height="25.0938" rx="2.5" ry="2.5" style="stroke:#404040;stroke-width:0.5;" width="68.6777" x="17.82" y="45.6094"/><text fill="#000000" font-family="sans-serif" font-size="12" lengthAdjust="spacing" textLength="62.6777" x="20.82" y="63.0664">ProvActivity</text></g><!--class Instrument--><g class="entity" data-qualified-name="Instrument" data-source-line="16" id="ent0006"><rect fill="#EEEEEE" height="25.0938" rx="2.5" ry="2.5" style="stroke:#404040;stroke-width:0.5;" width="62.6895" x="151.82" y="45.6094"/><text fill="#000000" font-family="sans-serif" font-size="12" lengthAdjust="spacing" textLength="56.6895" x="154.82" y="63.0664">Instrument</text></g><!--class Dataset--><g class="entity" data-qualified-name="Dataset" data-source-line="18" id="ent0008"><rect fill="#EEEEEE" height="25.0938" rx="2.5" ry="2.5" style="stroke:#404040;stroke-width:0.5;" width="47.3555" x="250.82" y="45.6094"/><text fill="#000000" font-family="sans-serif" font-size="12" lengthAdjust="spacing" textLength="41.3555" x="253.82" y="63.0664">Dataset</text></g><!--class DataDownload--><g class="entity" data-qualified-name="DataDownload" data-source-line="20" id="ent0010"><rect fill="#EEEEEE" height="25.0938" rx="2.5" ry="2.5" style="stroke:#404040;stroke-width:0.5;" width="84.7148" x="358.82" y="45.6094"/><text fill="#000000" font-family="sans-serif" font-size="12" lengthAdjust="spacing" textLength="78.7148" x="361.82" y="63.0664">DataDownload</text></g><!--class ActionResult--><g class="entity" data-qualified-name="ActionResult" data-source-line="23" id="ent0013"><rect fill="#EEEEEE" height="25.0938" rx="2.5" ry="2.5" style="stroke:#404040;stroke-width:0.5;" width="73.3652" x="504.82" y="45.6094"/><text fill="#000000" font-family="sans-serif" font-size="12" lengthAdjust="spacing" textLength="67.3652" x="507.82" y="63.0664">ActionResult</text></g><!--class DefinedTerm--><g class="entity" data-qualified-name="DefinedTerm" data-source-line="25" id="ent0015"><rect fill="#EEEEEE" height="25.0938" rx="2.5" ry="2.5" style="stroke:#404040;stroke-width:0.5;" width="75.3574" x="613.82" y="45.6094"/><text fill="#000000" font-family="sans-serif" font-size="12" lengthAdjust="spacing" textLength="69.3574" x="616.82" y="63.0664">DefinedTerm</text></g><!--class Identifier--><g class="entity" data-qualified-name="Identifier" data-source-line="27" id="ent0017"><rect fill="#EEEEEE" height="25.0938" rx="2.5" ry="2.5" style="stroke:#404040;stroke-width:0.5;" width="52.0254" x="735.32" y="45.6094"/><text fill="#000000" font-family="sans-serif" font-size="12" lengthAdjust="spacing" textLength="46.0254" x="738.32" y="63.0664">Identifier</text></g><!--class AdditionalProperty--><g class="entity" data-qualified-name="AdditionalProperty" data-source-line="29" id="ent0019"><rect fill="#EEEEEE" height="25.0938" rx="2.5" ry="2.5" style="stroke:#404040;stroke-width:0.5;" width="104.0566" x="822.32" y="45.6094"/><text fill="#000000" font-family="sans-serif" font-size="12" lengthAdjust="spacing" textLength="98.0566" x="825.32" y="63.0664">AdditionalProperty</text></g><!--class Reference--><g class="entity" data-qualified-name="Reference" data-source-line="31" id="ent0021"><rect fill="#EEEEEE" height="25.0938" rx="2.5" ry="2.5" style="stroke:#404040;stroke-width:0.5;" width="61.3652" x="962.82" y="45.6094"/><text fill="#000000" font-family="sans-serif" font-size="12" lengthAdjust="spacing" textLength="55.3652" x="965.82" y="63.0664">Reference</text></g><!--class DerivedFrom--><g class="entity" data-qualified-name="DerivedFrom" data-source-line="34" id="ent0024"><rect fill="#EEEEEE" height="25.0938" rx="2.5" ry="2.5" style="stroke:#404040;stroke-width:0.5;" width="75.3457" x="1059.82" y="45.6094"/><text fill="#000000" font-family="sans-serif" font-size="12" lengthAdjust="spacing" textLength="69.3457" x="1062.82" y="63.0664">DerivedFrom</text></g><!--class CatalogRecord--><g class="entity" data-qualified-name="CatalogRecord" data-source-line="37" id="ent0027"><rect fill="#EEEEEE" height="25.0938" rx="2.5" ry="2.5" style="stroke:#404040;stroke-width:0.5;" width="86.0449" x="1184.32" y="45.6094"/><text fill="#000000" font-family="sans-serif" font-size="12" lengthAdjust="spacing" textLength="80.0449" x="1187.32" y="63.0664">CatalogRecord</text></g><!--link ProvActivity to XsdAnyUri--><g class="link" data-entity-1="ent0003" data-entity-2="ent0002" data-link-type="dependency" data-source-line="14" id="lnk4"><path codeLine="14" d="M38.02,70.6694 C23.83,83.4694 6,104.2194 19.32,118.6094 C60.29,162.8794 488.66,167.2424 612.52,167.5924" fill="none" id="ProvActivity-to-XsdAnyUri" style="stroke:#404040;stroke-width:1.2;stroke-dasharray:7,7;"/><polygon fill="#404040" points="618.52,167.6094,609.5313,163.584,613.52,167.5952,609.5087,171.5839,618.52,167.6094" style="stroke:#404040;stroke-width:1.2;"/><text fill="#000000" font-family="sans-serif" font-size="13" lengthAdjust="spacing" textLength="49.1372" x="20.32" y="115.1045">identifier</text></g><!--link ProvActivity to XsdAnyUri--><g class="link" data-entity-1="ent0003" data-entity-2="ent0002" data-link-type="dependency" data-source-line="15" id="lnk5"><path codeLine="15" d="M69.92,70.7994 C91.92,84.7694 131.21,107.6294 168.32,118.6094 C332.19,167.0694 533.4606,169.592 612.5906,168.502" fill="none" id="ProvActivity-to-XsdAnyUri-1" style="stroke:#404040;stroke-width:1.2;stroke-dasharray:7,7;"/><polygon fill="#404040" points="618.59,168.4194,609.5358,164.5437,613.5905,168.4882,609.6459,172.543,618.59,168.4194" style="stroke:#404040;stroke-width:1.2;"/><text fill="#000000" font-family="sans-serif" font-size="13" lengthAdjust="spacing" textLength="28.1899" x="169.32" y="115.1045">used</text></g><!--link Instrument to XsdAnyUri--><g class="link" data-entity-1="ent0006" data-entity-2="ent0002" data-link-type="dependency" data-source-line="17" id="lnk7"><path codeLine="17" d="M188.1,71.0294 C194.38,84.9994 206.83,107.6394 225.32,118.6094 C291.83,158.0594 524.9509,165.6468 612.7209,167.1468" fill="none" id="Instrument-to-XsdAnyUri" style="stroke:#404040;stroke-width:1.2;stroke-dasharray:7,7;"/><polygon fill="#404040" points="618.72,167.2494,609.7897,163.0962,613.7207,167.1639,609.653,171.095,618.72,167.2494" style="stroke:#404040;stroke-width:1.2;"/><text fill="#000000" font-family="sans-serif" font-size="13" lengthAdjust="spacing" textLength="49.1372" x="226.32" y="115.1045">identifier</text></g><!--link Dataset to XsdAnyUri--><g class="link" data-entity-1="ent0008" data-entity-2="ent0002" data-link-type="dependency" data-source-line="19" id="lnk9"><path codeLine="19" d="M275.57,70.7994 C277.71,84.5394 283.39,106.9594 298.32,118.6094 C347.83,157.2494 534.7915,165.2859 612.5615,167.0159" fill="none" id="Dataset-to-XsdAnyUri" style="stroke:#404040;stroke-width:1.2;stroke-dasharray:7,7;"/><polygon fill="#404040" points="618.56,167.1494,609.6512,162.9502,613.5612,167.0382,609.4733,170.9482,618.56,167.1494" style="stroke:#404040;stroke-width:1.2;"/><text fill="#000000" font-family="sans-serif" font-size="13" lengthAdjust="spacing" textLength="14.4473" x="299.32" y="115.1045">url</text></g><!--link DataDownload to XsdAnyUri--><g class="link" data-entity-1="ent0010" data-entity-2="ent0002" data-link-type="dependency" data-source-line="21" id="lnk11"><path codeLine="21" d="M367.82,70.6494 C341.11,81.6294 310.71,99.2994 327.32,118.6094 C364.7,162.0594 537.9701,167.4428 612.6001,167.7728" fill="none" id="DataDownload-to-XsdAnyUri" style="stroke:#404040;stroke-width:1.2;stroke-dasharray:7,7;"/><polygon fill="#404040" points="618.6,167.7994,609.6178,163.7596,613.6,167.7773,609.5824,171.7595,618.6,167.7994" style="stroke:#404040;stroke-width:1.2;"/><text fill="#000000" font-family="sans-serif" font-size="13" lengthAdjust="spacing" textLength="59.249" x="328.32" y="115.1045">contentUrl</text></g><!--link DataDownload to XsdAnyUri--><g class="link" data-entity-1="ent0010" data-entity-2="ent0002" data-link-type="dependency" data-source-line="22" id="lnk12"><path codeLine="22" d="M413.38,70.8394 C427.74,84.1994 452.98,105.8294 478.32,118.6094 C524.32,141.7994 576.9946,154.3338 612.8246,161.1138" fill="none" id="DataDownload-to-XsdAnyUri-1" style="stroke:#404040;stroke-width:1.2;stroke-dasharray:7,7;"/><polygon fill="#404040" points="618.72,162.2294,610.6206,156.6258,613.8072,161.2997,609.1332,164.4863,618.72,162.2294" style="stroke:#404040;stroke-width:1.2;"/><text fill="#000000" font-family="sans-serif" font-size="13" lengthAdjust="spacing" textLength="68.6309" x="479.32" y="115.1045">conformsTo</text></g><!--link ActionResult to XsdAnyUri--><g class="link" data-entity-1="ent0013" data-entity-2="ent0002" data-link-type="dependency" data-source-line="24" id="lnk14"><path codeLine="24" d="M544.55,70.7894 C548.6,83.7194 556.6,104.5594 569.32,118.6094 C582.91,133.6094 596.81,142.7431 613.25,151.0131" fill="none" id="ActionResult-to-XsdAnyUri" style="stroke:#404040;stroke-width:1.2;stroke-dasharray:7,7;"/><polygon fill="#404040" points="618.61,153.7094,612.3675,146.0916,614.1433,151.4624,608.7724,153.2383,618.61,153.7094" style="stroke:#404040;stroke-width:1.2;"/><text fill="#000000" font-family="sans-serif" font-size="13" lengthAdjust="spacing" textLength="68.6309" x="570.32" y="115.1045">conformsTo</text></g><!--link DefinedTerm to XsdAnyUri--><g class="link" data-entity-1="ent0015" data-entity-2="ent0002" data-link-type="dependency" data-source-line="26" id="lnk16"><path codeLine="26" d="M650.26,70.7294 C649.55,79.0394 648.69,90.4994 648.32,100.6094 C647.74,116.7794 648.2324,129.1654 649.2124,142.5654" fill="none" id="DefinedTerm-to-XsdAnyUri" style="stroke:#404040;stroke-width:1.2;stroke-dasharray:7,7;"/><polygon fill="#404040" points="649.65,148.5494,652.9829,139.2816,649.2853,143.5627,645.0042,139.8651,649.65,148.5494" style="stroke:#404040;stroke-width:1.2;"/><text fill="#000000" font-family="sans-serif" font-size="13" lengthAdjust="spacing" textLength="104.7681" x="649.32" y="115.1045">inDefinedTermSet</text></g><!--link Identifier to XsdAnyUri--><g class="link" data-entity-1="ent0017" data-entity-2="ent0002" data-link-type="dependency" data-source-line="28" id="lnk18"><path codeLine="28" d="M764.04,70.7294 C766.36,83.5994 767.96,104.3994 758.32,118.6094 C741.47,143.4694 714.5171,154.5095 689.6571,160.6095" fill="none" id="Identifier-to-XsdAnyUri" style="stroke:#404040;stroke-width:1.2;stroke-dasharray:7,7;"/><polygon fill="#404040" points="683.83,162.0394,693.5239,163.7794,688.686,160.8479,691.6175,156.0099,683.83,162.0394" style="stroke:#404040;stroke-width:1.2;"/><text fill="#000000" font-family="sans-serif" font-size="13" lengthAdjust="spacing" textLength="14.4473" x="765.32" y="115.1045">url</text></g><!--link AdditionalProperty to XsdAnyUri--><g class="link" data-entity-1="ent0019" data-entity-2="ent0002" data-link-type="dependency" data-source-line="30" id="lnk20"><path codeLine="30" d="M860.15,70.6594 C843.67,83.6594 815.29,104.7594 788.32,118.6094 C754.17,136.1494 718.0197,148.4146 689.6197,156.8846" fill="none" id="AdditionalProperty-to-XsdAnyUri" style="stroke:#404040;stroke-width:1.2;stroke-dasharray:7,7;"/><polygon fill="#404040" points="683.87,158.5994,693.6378,159.8603,688.6614,157.1704,691.3514,152.194,683.87,158.5994" style="stroke:#404040;stroke-width:1.2;"/><text fill="#000000" font-family="sans-serif" font-size="13" lengthAdjust="spacing" textLength="52.0381" x="818.32" y="115.1045">unitCode</text></g><!--link Reference to XsdAnyUri--><g class="link" data-entity-1="ent0021" data-entity-2="ent0002" data-link-type="dependency" data-source-line="32" id="lnk22"><path codeLine="32" d="M975.07,70.6194 C953.13,83.9694 914.81,105.7994 879.32,118.6094 C812.11,142.8694 735.1399,156.1223 690.1199,162.5423" fill="none" id="Reference-to-XsdAnyUri" style="stroke:#404040;stroke-width:1.2;stroke-dasharray:7,7;"/><polygon fill="#404040" points="684.18,163.3894,693.6546,166.0787,689.1299,162.6835,692.5252,158.1589,684.18,163.3894" style="stroke:#404040;stroke-width:1.2;"/><text fill="#000000" font-family="sans-serif" font-size="13" lengthAdjust="spacing" textLength="14.4473" x="918.32" y="115.1045">url</text></g><!--link Reference to XsdAnyUri--><g class="link" data-entity-1="ent0021" data-entity-2="ent0002" data-link-type="dependency" data-source-line="33" id="lnk23"><path codeLine="33" d="M986.55,70.8894 C977.93,84.7194 961.68,107.2294 941.32,118.6094 C897.54,143.0994 756.0854,158.3166 689.9154,164.3266" fill="none" id="Reference-to-XsdAnyUri-1" style="stroke:#404040;stroke-width:1.2;stroke-dasharray:7,7;"/><polygon fill="#404040" points="683.94,164.8694,693.2649,168.0389,688.9195,164.4171,692.5413,160.0717,683.94,164.8694" style="stroke:#404040;stroke-width:1.2;"/><text fill="#000000" font-family="sans-serif" font-size="13" lengthAdjust="spacing" textLength="42.6372" x="963.32" y="115.1045">relation</text></g><!--link DerivedFrom to XsdAnyUri--><g class="link" data-entity-1="ent0024" data-entity-2="ent0002" data-link-type="dependency" data-source-line="35" id="lnk25"><path codeLine="35" d="M1085.27,70.7294 C1070.07,84.6294 1042.5,107.4194 1014.32,118.6094 C899.22,164.3194 755.1699,168.8808 689.9499,168.4308" fill="none" id="DerivedFrom-to-XsdAnyUri" style="stroke:#404040;stroke-width:1.2;stroke-dasharray:7,7;"/><polygon fill="#404040" points="683.95,168.3894,692.9222,172.4514,688.9499,168.4239,692.9774,164.4516,683.95,168.3894" style="stroke:#404040;stroke-width:1.2;"/><text fill="#000000" font-family="sans-serif" font-size="13" lengthAdjust="spacing" textLength="14.4473" x="1046.32" y="115.1045">url</text></g><!--link DerivedFrom to XsdAnyUri--><g class="link" data-entity-1="ent0024" data-entity-2="ent0002" data-link-type="dependency" data-source-line="36" id="lnk26"><path codeLine="36" d="M1095.3,70.8994 C1092.25,84.7494 1085.08,107.2694 1069.32,118.6094 C1007.79,162.8894 777.39,167.5663 690.02,167.7563" fill="none" id="DerivedFrom-to-XsdAnyUri-1" style="stroke:#404040;stroke-width:1.2;stroke-dasharray:7,7;"/><polygon fill="#404040" points="684.02,167.7694,693.0287,171.7498,689.02,167.7585,693.0113,163.7498,684.02,167.7694" style="stroke:#404040;stroke-width:1.2;"/><text fill="#000000" font-family="sans-serif" font-size="13" lengthAdjust="spacing" textLength="42.6372" x="1084.32" y="115.1045">relation</text></g><!--link CatalogRecord to XsdAnyUri--><g class="link" data-entity-1="ent0027" data-entity-2="ent0002" data-link-type="dependency" data-source-line="38" id="lnk28"><path codeLine="38" d="M1214.08,70.6294 C1197.11,84.6394 1166.19,107.7794 1135.32,118.6094 C1051.55,148.0094 784.9043,161.9088 690.1343,166.0288" fill="none" id="CatalogRecord-to-XsdAnyUri" style="stroke:#404040;stroke-width:1.2;stroke-dasharray:7,7;"/><polygon fill="#404040" points="684.14,166.2894,693.3052,169.8947,689.1353,166.0722,692.9578,161.9023,684.14,166.2894" style="stroke:#404040;stroke-width:1.2;"/><text fill="#000000" font-family="sans-serif" font-size="13" lengthAdjust="spacing" textLength="68.6309" x="1171.32" y="115.1045">conformsTo</text></g><?plantuml-src XLHDRy8m3BttLqHmHuDjbmaXTHIatIO-f5spneM8DAcS0Egc_VU5bYOftKfxgP_Zz-mNguOR0UH3irYMM-JHdZCWASTKGFqDUM5AaaF-2QWZVU2oe4XpelUKgJENEv9HeI78n8ZglDdpz211Qp8UJO9aAgZ5lYDI7viheP0CdnukhmLV5JB0MtIff5dpBo3ZIVGJHJN7m3Kz85Jx4SXqogYXcxA0sOmCb_7YENbiQjvHdUBKy1CtPLKM0cIug9we1Ov6iu3yXLXJfE4P1-m_TzJ06jatgGqUSrjOYVhGIGPGZ-2LBh7pQQYvhj-Eg8axxQ08onDrba9HvZWQe4Nam5ksrDw8xMfhIU-TonJcUgCQyOjVIgv07qKzG0WuyHPudpI1Z4jW6y2y7iZ7Vfu0wrWiW-mQZBitPtrzRoxqz-QX7iTZnlXb82hioXI0r-Nhmjw0Rgh3BxcPAmQDo0eoG90fLDmkSfGU-QlJ_xC8WbvQyMOZFm5RechCTd5WjiV-KklBt-hDxO89jLj1QdyEbM8BSPfjj6TfVW40?></g></svg>