<svg xmlns="http://www.w3.org/2000/svg" xmlns:xlink="http://www.w3.org/1999/xlink" contentStyleType="text/css" data-diagram-type="CLASS" height="388px" preserveAspectRatio="none" style="width:1013px;height:388px;background:#FFFFFF;" version="1.1" viewBox="0 0 1013 388" width="1013px" zoomAndPan="magnify"><?plantuml 1.2026.3?><defs/><g><g class="title" data-source-line="1"><text fill="#000000" font-family="sans-serif" font-size="14" font-weight="700" lengthAdjust="spacing" textLength="71.5723" x="467.4863" y="24.5332">XsdAnyUri</text></g><!--class XsdAnyUri--><g class="entity" data-qualified-name="XsdAnyUri" data-source-line="15" id="ent0002"><rect fill="#FAE5D3" height="40.1875" rx="2.5" ry="2.5" style="stroke:#404040;stroke-width:0.5;" width="65.3809" x="449" y="320.6094"/><text fill="#000000" font-family="sans-serif" font-size="12" font-style="italic" lengthAdjust="spacing" textLength="63.3809" x="450" y="338.0664">&#171;dataType&#187;</text><text fill="#000000" font-family="sans-serif" font-size="12" lengthAdjust="spacing" textLength="56.6836" x="453.3486" y="353.1602">XsdAnyUri</text></g><!--class ProvActivity--><g class="entity" data-qualified-name="ProvActivity" data-source-line="16" id="ent0003"><rect fill="#EEEEEE" height="25.0938" rx="2.5" ry="2.5" style="stroke:#404040;stroke-width:0.5;" width="68.6777" x="7" y="45.6094"/><text fill="#000000" font-family="sans-serif" font-size="12" lengthAdjust="spacing" textLength="62.6777" x="10" y="63.0664">ProvActivity</text></g><!--class Instrument--><g class="entity" data-qualified-name="Instrument" data-source-line="19" id="ent0006"><rect fill="#EEEEEE" height="25.0938" rx="2.5" ry="2.5" style="stroke:#404040;stroke-width:0.5;" width="62.6895" x="96" y="45.6094"/><text fill="#000000" font-family="sans-serif" font-size="12" lengthAdjust="spacing" textLength="56.6895" x="99" y="63.0664">Instrument</text></g><!--class Dataset--><g class="entity" data-qualified-name="Dataset" data-source-line="21" id="ent0008"><rect fill="#EEEEEE" height="25.0938" rx="2.5" ry="2.5" style="stroke:#404040;stroke-width:0.5;" width="47.3555" x="179" y="45.6094"/><text fill="#000000" font-family="sans-serif" font-size="12" lengthAdjust="spacing" textLength="41.3555" x="182" y="63.0664">Dataset</text></g><!--class DataDownload--><g class="entity" data-qualified-name="DataDownload" data-source-line="23" id="ent0010"><rect fill="#EEEEEE" height="25.0938" rx="2.5" ry="2.5" style="stroke:#404040;stroke-width:0.5;" width="84.7148" x="246" y="45.6094"/><text fill="#000000" font-family="sans-serif" font-size="12" lengthAdjust="spacing" textLength="78.7148" x="249" y="63.0664">DataDownload</text></g><!--class ActionResult--><g class="entity" data-qualified-name="ActionResult" data-source-line="26" id="ent0013"><rect fill="#EEEEEE" height="25.0938" rx="2.5" ry="2.5" style="stroke:#404040;stroke-width:0.5;" width="73.3652" x="351" y="45.6094"/><text fill="#000000" font-family="sans-serif" font-size="12" lengthAdjust="spacing" textLength="67.3652" x="354" y="63.0664">ActionResult</text></g><!--class DefinedTerm--><g class="entity" data-qualified-name="DefinedTerm" data-source-line="28" id="ent0015"><rect fill="#EEEEEE" height="25.0938" rx="2.5" ry="2.5" style="stroke:#404040;stroke-width:0.5;" width="75.3574" x="444" y="45.6094"/><text fill="#000000" font-family="sans-serif" font-size="12" lengthAdjust="spacing" textLength="69.3574" x="447" y="63.0664">DefinedTerm</text></g><!--class Identifier--><g class="entity" data-qualified-name="Identifier" data-source-line="30" id="ent0017"><rect fill="#EEEEEE" height="25.0938" rx="2.5" ry="2.5" style="stroke:#404040;stroke-width:0.5;" width="52.0254" x="539.5" y="45.6094"/><text fill="#000000" font-family="sans-serif" font-size="12" lengthAdjust="spacing" textLength="46.0254" x="542.5" y="63.0664">Identifier</text></g><!--class AdditionalProperty--><g class="entity" data-qualified-name="AdditionalProperty" data-source-line="32" id="ent0019"><rect fill="#EEEEEE" height="25.0938" rx="2.5" ry="2.5" style="stroke:#404040;stroke-width:0.5;" width="104.0566" x="611.5" y="45.6094"/><text fill="#000000" font-family="sans-serif" font-size="12" lengthAdjust="spacing" textLength="98.0566" x="614.5" y="63.0664">AdditionalProperty</text></g><!--class Reference--><g class="entity" data-qualified-name="Reference" data-source-line="34" id="ent0021"><rect fill="#EEEEEE" height="25.0938" rx="2.5" ry="2.5" style="stroke:#404040;stroke-width:0.5;" width="61.3652" x="736" y="45.6094"/><text fill="#000000" font-family="sans-serif" font-size="12" lengthAdjust="spacing" textLength="55.3652" x="739" y="63.0664">Reference</text></g><!--class DerivedFrom--><g class="entity" data-qualified-name="DerivedFrom" data-source-line="37" id="ent0024"><rect fill="#EEEEEE" height="25.0938" rx="2.5" ry="2.5" style="stroke:#404040;stroke-width:0.5;" width="75.3457" x="817" y="45.6094"/><text fill="#000000" font-family="sans-serif" font-size="12" lengthAdjust="spacing" textLength="69.3457" x="820" y="63.0664">DerivedFrom</text></g><!--class CatalogRecord--><g class="entity" data-qualified-name="CatalogRecord" data-source-line="40" id="ent0027"><rect fill="#EEEEEE" height="25.0938" rx="2.5" ry="2.5" style="stroke:#404040;stroke-width:0.5;" width="86.0449" x="912.5" y="45.6094"/><text fill="#000000" font-family="sans-serif" font-size="12" lengthAdjust="spacing" textLength="80.0449" x="915.5" y="63.0664">CatalogRecord</text></g><!--link ProvActivity to XsdAnyUri--><g class="link" data-entity-1="ent0003" data-entity-2="ent0002" data-link-type="dependency" data-source-line="17" id="lnk4"><path codeLine="17" d="M53,70.6794 C53,126.6594 53,350.6094 53,350.6094 C53,350.6094 342.94,350.6094 442.94,350.6094" fill="none" id="ProvActivity-to-XsdAnyUri" style="stroke:#404040;stroke-width:1.2;stroke-dasharray:7,7;"/><polygon fill="#404040" points="448.94,350.6094,439.94,346.6094,443.94,350.6094,439.94,354.6094,448.94,350.6094" style="stroke:#404040;stroke-width:1.2;"/><text fill="#000000" font-family="sans-serif" font-size="13" lengthAdjust="spacing" textLength="49.1372" x="61" y="347.1045">identifier</text></g><!--link ProvActivity to XsdAnyUri--><g class="link" data-entity-1="ent0003" data-entity-2="ent0002" data-link-type="dependency" data-source-line="18" id="lnk5"><path codeLine="18" d="M30,70.8894 C30,127.8394 30,355.6094 30,355.6094 C30,355.6094 338.77,355.6094 442.67,355.6094" fill="none" id="ProvActivity-to-XsdAnyUri-1" style="stroke:#404040;stroke-width:1.2;stroke-dasharray:7,7;"/><polygon fill="#404040" points="448.67,355.6094,439.67,351.6094,443.67,355.6094,439.67,359.6094,448.67,355.6094" style="stroke:#404040;stroke-width:1.2;"/><text fill="#000000" font-family="sans-serif" font-size="13" lengthAdjust="spacing" textLength="28.1899" x="67.97" y="370.1045">used</text></g><!--link Instrument to XsdAnyUri--><g class="link" data-entity-1="ent0006" data-entity-2="ent0002" data-link-type="dependency" data-source-line="20" id="lnk7"><path codeLine="20" d="M127.5,70.8294 C127.5,126.4694 127.5,345.6094 127.5,345.6094 C127.5,345.6094 355.2,345.6094 442.83,345.6094" fill="none" id="Instrument-to-XsdAnyUri" style="stroke:#404040;stroke-width:1.2;stroke-dasharray:7,7;"/><polygon fill="#404040" points="448.83,345.6094,439.83,341.6094,443.83,345.6094,439.83,349.6094,448.83,345.6094" style="stroke:#404040;stroke-width:1.2;"/><text fill="#000000" font-family="sans-serif" font-size="13" lengthAdjust="spacing" textLength="49.1372" x="151.78" y="342.1045">identifier</text></g><!--link Dataset to XsdAnyUri--><g class="link" data-entity-1="ent0008" data-entity-2="ent0002" data-link-type="dependency" data-source-line="22" id="lnk9"><path codeLine="22" d="M202.5,70.6094 C202.5,125.2894 202.5,340.6094 202.5,340.6094 C202.5,340.6094 369.35,340.6094 442.95,340.6094" fill="none" id="Dataset-to-XsdAnyUri" style="stroke:#404040;stroke-width:1.2;stroke-dasharray:7,7;"/><polygon fill="#404040" points="448.95,340.6094,439.95,336.6094,443.95,340.6094,439.95,344.6094,448.95,340.6094" style="stroke:#404040;stroke-width:1.2;"/><text fill="#000000" font-family="sans-serif" font-size="13" lengthAdjust="spacing" textLength="14.4473" x="203.5" y="325.3345">url</text></g><!--link DataDownload to XsdAnyUri--><g class="link" data-entity-1="ent0010" data-entity-2="ent0002" data-link-type="dependency" data-source-line="24" id="lnk11"><path codeLine="24" d="M274.33,70.7494 C274.33,125.0394 274.33,335.6094 274.33,335.6094 C274.33,335.6094 384.26,335.6094 442.67,335.6094" fill="none" id="DataDownload-to-XsdAnyUri" style="stroke:#404040;stroke-width:1.2;stroke-dasharray:7,7;"/><polygon fill="#404040" points="448.67,335.6094,439.67,331.6094,443.67,335.6094,439.67,339.6094,448.67,335.6094" style="stroke:#404040;stroke-width:1.2;"/><text fill="#000000" font-family="sans-serif" font-size="13" lengthAdjust="spacing" textLength="59.249" x="214.33" y="286.8445">contentUrl</text></g><!--link DataDownload to XsdAnyUri--><g class="link" data-entity-1="ent0010" data-entity-2="ent0002" data-link-type="dependency" data-source-line="25" id="lnk12"><path codeLine="25" d="M302.67,70.8894 C302.67,124.7594 302.67,330.6094 302.67,330.6094 C302.67,330.6094 391.07,330.6094 442.7,330.6094" fill="none" id="DataDownload-to-XsdAnyUri-1" style="stroke:#404040;stroke-width:1.2;stroke-dasharray:7,7;"/><polygon fill="#404040" points="448.7,330.6094,439.7,326.6094,443.7,330.6094,439.7,334.6094,448.7,330.6094" style="stroke:#404040;stroke-width:1.2;"/><text fill="#000000" font-family="sans-serif" font-size="13" lengthAdjust="spacing" textLength="68.6309" x="303.67" y="270.2645">conformsTo</text></g><!--link ActionResult to XsdAnyUri--><g class="link" data-entity-1="ent0013" data-entity-2="ent0002" data-link-type="dependency" data-source-line="27" id="lnk14"><path codeLine="27" d="M387.5,70.6494 C387.5,123.5394 387.5,325.6094 387.5,325.6094 C387.5,325.6094 415.74,325.6094 442.89,325.6094" fill="none" id="ActionResult-to-XsdAnyUri" style="stroke:#404040;stroke-width:1.2;stroke-dasharray:7,7;"/><polygon fill="#404040" points="448.89,325.6094,439.89,321.6094,443.89,325.6094,439.89,329.6094,448.89,325.6094" style="stroke:#404040;stroke-width:1.2;"/><text fill="#000000" font-family="sans-serif" font-size="13" lengthAdjust="spacing" textLength="68.6309" x="318.5" y="225.3245">conformsTo</text></g><!--link DefinedTerm to XsdAnyUri--><g class="link" data-entity-1="ent0015" data-entity-2="ent0002" data-link-type="dependency" data-source-line="29" id="lnk16"><path codeLine="29" d="M481.5,70.6094 C481.5,115.0294 481.5,259.5094 481.5,314.3794" fill="none" id="DefinedTerm-to-XsdAnyUri" style="stroke:#404040;stroke-width:1.2;stroke-dasharray:7,7;"/><polygon fill="#404040" points="481.5,320.3794,485.5,311.3794,481.5,315.3794,477.5,311.3794,481.5,320.3794" style="stroke:#404040;stroke-width:1.2;"/><text fill="#000000" font-family="sans-serif" font-size="13" lengthAdjust="spacing" textLength="104.7681" x="376.5" y="191.9945">inDefinedTermSet</text></g><!--link Identifier to XsdAnyUri--><g class="link" data-entity-1="ent0017" data-entity-2="ent0002" data-link-type="dependency" data-source-line="31" id="lnk18"><path codeLine="31" d="M565.5,70.6494 C565.5,123.5394 565.5,325.6094 565.5,325.6094 C565.5,325.6094 543.8,325.6094 520.22,325.6094" fill="none" id="Identifier-to-XsdAnyUri" style="stroke:#404040;stroke-width:1.2;stroke-dasharray:7,7;"/><polygon fill="#404040" points="514.22,325.6094,523.22,329.6094,519.22,325.6094,523.22,321.6094,514.22,325.6094" style="stroke:#404040;stroke-width:1.2;"/><text fill="#000000" font-family="sans-serif" font-size="13" lengthAdjust="spacing" textLength="14.4473" x="550.5" y="220.2645">url</text></g><!--link AdditionalProperty to XsdAnyUri--><g class="link" data-entity-1="ent0019" data-entity-2="ent0002" data-link-type="dependency" data-source-line="33" id="lnk20"><path codeLine="33" d="M663.5,70.8894 C663.5,124.7594 663.5,330.6094 663.5,330.6094 C663.5,330.6094 572.39,330.6094 520.04,330.6094" fill="none" id="AdditionalProperty-to-XsdAnyUri" style="stroke:#404040;stroke-width:1.2;stroke-dasharray:7,7;"/><polygon fill="#404040" points="514.04,330.6094,523.04,334.6094,519.04,330.6094,523.04,326.6094,514.04,330.6094" style="stroke:#404040;stroke-width:1.2;"/><text fill="#000000" font-family="sans-serif" font-size="13" lengthAdjust="spacing" textLength="52.0381" x="610.5" y="271.9745">unitCode</text></g><!--link Reference to XsdAnyUri--><g class="link" data-entity-1="ent0021" data-entity-2="ent0002" data-link-type="dependency" data-source-line="35" id="lnk22"><path codeLine="35" d="M776.67,70.6094 C776.67,125.2894 776.67,340.6094 776.67,340.6094 C776.67,340.6094 597.07,340.6094 520.22,340.6094" fill="none" id="Reference-to-XsdAnyUri" style="stroke:#404040;stroke-width:1.2;stroke-dasharray:7,7;"/><polygon fill="#404040" points="514.22,340.6094,523.22,344.6094,519.22,340.6094,523.22,336.6094,514.22,340.6094" style="stroke:#404040;stroke-width:1.2;"/><text fill="#000000" font-family="sans-serif" font-size="13" lengthAdjust="spacing" textLength="14.4473" x="761.67" y="333.3345">url</text></g><!--link Reference to XsdAnyUri--><g class="link" data-entity-1="ent0021" data-entity-2="ent0002" data-link-type="dependency" data-source-line="36" id="lnk23"><path codeLine="36" d="M756.33,70.7494 C756.33,125.0394 756.33,335.6094 756.33,335.6094 C756.33,335.6094 592.91,335.6094 520.11,335.6094" fill="none" id="Reference-to-XsdAnyUri-1" style="stroke:#404040;stroke-width:1.2;stroke-dasharray:7,7;"/><polygon fill="#404040" points="514.11,335.6094,523.11,339.6094,519.11,335.6094,523.11,331.6094,514.11,335.6094" style="stroke:#404040;stroke-width:1.2;"/><text fill="#000000" font-family="sans-serif" font-size="13" lengthAdjust="spacing" textLength="42.6372" x="713.33" y="320.7945">relation</text></g><!--link DerivedFrom to XsdAnyUri--><g class="link" data-entity-1="ent0024" data-entity-2="ent0002" data-link-type="dependency" data-source-line="38" id="lnk25"><path codeLine="38" d="M867,70.6794 C867,126.6594 867,350.6094 867,350.6094 C867,350.6094 612.97,350.6094 520.04,350.6094" fill="none" id="DerivedFrom-to-XsdAnyUri" style="stroke:#404040;stroke-width:1.2;stroke-dasharray:7,7;"/><polygon fill="#404040" points="514.04,350.6094,523.04,354.6094,519.04,350.6094,523.04,346.6094,514.04,350.6094" style="stroke:#404040;stroke-width:1.2;"/><text fill="#000000" font-family="sans-serif" font-size="13" lengthAdjust="spacing" textLength="14.4473" x="815.48" y="365.1045">url</text></g><!--link DerivedFrom to XsdAnyUri--><g class="link" data-entity-1="ent0024" data-entity-2="ent0002" data-link-type="dependency" data-source-line="39" id="lnk26"><path codeLine="39" d="M842,70.8294 C842,126.4694 842,345.6094 842,345.6094 C842,345.6094 608.87,345.6094 520.13,345.6094" fill="none" id="DerivedFrom-to-XsdAnyUri-1" style="stroke:#404040;stroke-width:1.2;stroke-dasharray:7,7;"/><polygon fill="#404040" points="514.13,345.6094,523.13,349.6094,519.13,345.6094,523.13,341.6094,514.13,345.6094" style="stroke:#404040;stroke-width:1.2;"/><text fill="#000000" font-family="sans-serif" font-size="13" lengthAdjust="spacing" textLength="42.6372" x="816.45" y="342.1045">relation</text></g><!--link CatalogRecord to XsdAnyUri--><g class="link" data-entity-1="ent0027" data-entity-2="ent0002" data-link-type="dependency" data-source-line="41" id="lnk28"><path codeLine="41" d="M955.5,70.8894 C955.5,127.8394 955.5,355.6094 955.5,355.6094 C955.5,355.6094 627.17,355.6094 520.08,355.6094" fill="none" id="CatalogRecord-to-XsdAnyUri" style="stroke:#404040;stroke-width:1.2;stroke-dasharray:7,7;"/><polygon fill="#404040" points="514.08,355.6094,523.08,359.6094,519.08,355.6094,523.08,351.6094,514.08,355.6094" style="stroke:#404040;stroke-width:1.2;"/><text fill="#000000" font-family="sans-serif" font-size="13" lengthAdjust="spacing" textLength="68.6309" x="878.15" y="352.1045">conformsTo</text></g><?plantuml-src XPHHJy8m58NVzoiQUIU2-c88oGH9V3E8YQzrlPE6hdUvBH0q_dVBnjgEuO2NtU-kv_IU5goq2jY74Qa-l9DCrb80ooHb2kfdA4fxO0KKdq0cCHkfIqwyO6RD1Uwb_c8vLmQYJag4-zLQPXiDnh3HS1mrYUkDWPAD7suZgb50HMEef0PxA84XsJL6ZKnnf_kJiDfgXWg93UvlZry7dv04q3bTeBPlyXlOQ9py9acjSUC7ls7SX1ZOP2AuvIldFfsomI9zVfZVDMjU2NTfPkLEsaErB0Piy5nzaXOS3gUH-2DpmMehSmdK_zxMW6XiNxInj2tSmieqbDuoGZs69xcvcyz0hNLwza9DtTaEgNZv7FTQ8HTUem4j8G_FrJ9t8cvNxqxqsdivKc5Ms9WVyqAz1BDLzG0nyEOjU5rq3hcxS685LDG3XJhC4x5En3hgle7rv-QZhy_Db-7S0kf9F1L27WVYobsP4kXq-Reu1D1jTVIrj3FtusjCbf03WSwWqlQLbmpaqax_xn8eVjnA29la3iI2i0dRrr7OWLrow-kV-ytS1LFujOJC_JbKZYtYFTkqvzBy0G00?></g></svg>