<svg xmlns="http://www.w3.org/2000/svg" xmlns:xlink="http://www.w3.org/1999/xlink" contentStyleType="text/css" data-diagram-type="CLASS" height="492px" preserveAspectRatio="none" style="width:1626px;height:492px;background:#FFFFFF;" version="1.1" viewBox="0 0 1626 492" width="1626px" zoomAndPan="magnify"><?plantuml 1.2026.3?><defs/><g><g class="title" data-source-line="1"><text fill="#000000" font-family="sans-serif" font-size="14" font-weight="700" lengthAdjust="spacing" textLength="50.5791" x="784.6159" y="24.5332">Dataset</text></g><!--class Dataset--><g class="entity" data-qualified-name="Dataset" data-source-line="12" id="ent0002"><rect fill="#FEFECE" height="314.8438" rx="2.5" ry="2.5" style="stroke:#404040;stroke-width:0.5;" width="276.5986" x="633.43" y="45.6094"/><text fill="#000000" font-family="sans-serif" font-size="12" lengthAdjust="spacing" textLength="41.3555" x="751.0516" y="63.0664">Dataset</text><line style="stroke:#404040;stroke-width:0.5;" x1="634.43" x2="909.0286" y1="70.7031" y2="70.7031"/><g data-visibility-modifier="PUBLIC_FIELD"><ellipse cx="644.43" cy="85.0078" fill="none" rx="3" ry="3" style="stroke:#038048;stroke-width:1;"/></g><text fill="#000000" font-family="sans-serif" font-size="14" lengthAdjust="spacing" textLength="137.7373" x="653.43" y="89.2363">identifier : Identifier [1]</text><g data-visibility-modifier="PUBLIC_FIELD"><ellipse cx="644.43" cy="102.6172" fill="none" rx="3" ry="3" style="stroke:#038048;stroke-width:1;"/></g><text fill="#000000" font-family="sans-serif" font-size="14" lengthAdjust="spacing" textLength="100.3789" x="653.43" y="106.8457">name : string [1]</text><g data-visibility-modifier="PUBLIC_FIELD"><ellipse cx="644.43" cy="120.2266" fill="none" rx="3" ry="3" style="stroke:#038048;stroke-width:1;"/></g><text fill="#000000" font-family="sans-serif" font-size="14" lengthAdjust="spacing" textLength="148.627" x="653.43" y="124.4551">description : string [0..1]</text><g data-visibility-modifier="PUBLIC_FIELD"><ellipse cx="644.43" cy="137.8359" fill="none" rx="3" ry="3" style="stroke:#038048;stroke-width:1;"/></g><text fill="#000000" font-family="sans-serif" font-size="14" lengthAdjust="spacing" textLength="216.3301" x="653.43" y="142.0645">additionalType : DefinedTerm [0..*]</text><g data-visibility-modifier="PUBLIC_FIELD"><ellipse cx="644.43" cy="155.4453" fill="none" rx="3" ry="3" style="stroke:#038048;stroke-width:1;"/></g><text fill="#000000" font-family="sans-serif" font-size="14" lengthAdjust="spacing" textLength="148.6201" x="653.43" y="159.6738">sameAs : Identifier [0..*]</text><g data-visibility-modifier="PUBLIC_FIELD"><ellipse cx="644.43" cy="173.0547" fill="none" rx="3" ry="3" style="stroke:#038048;stroke-width:1;"/></g><text fill="#000000" font-family="sans-serif" font-size="14" lengthAdjust="spacing" textLength="126.0547" x="653.43" y="177.2832">version : string [0..1]</text><g data-visibility-modifier="PUBLIC_FIELD"><ellipse cx="644.43" cy="190.6641" fill="none" rx="3" ry="3" style="stroke:#038048;stroke-width:1;"/></g><text fill="#000000" font-family="sans-serif" font-size="14" lengthAdjust="spacing" textLength="206.2881" x="653.43" y="194.8926">inLanguage : XsdLanguage [0..1]</text><g data-visibility-modifier="PUBLIC_FIELD"><ellipse cx="644.43" cy="208.2734" fill="none" rx="3" ry="3" style="stroke:#038048;stroke-width:1;"/></g><text fill="#000000" font-family="sans-serif" font-size="14" lengthAdjust="spacing" textLength="164.9854" x="653.43" y="212.502">dateModified : XsdDate [1]</text><g data-visibility-modifier="PUBLIC_FIELD"><ellipse cx="644.43" cy="225.8828" fill="none" rx="3" ry="3" style="stroke:#038048;stroke-width:1;"/></g><text fill="#000000" font-family="sans-serif" font-size="14" lengthAdjust="spacing" textLength="189.123" x="653.43" y="230.1113">datePublished : XsdDate [0..1]</text><g data-visibility-modifier="PUBLIC_FIELD"><ellipse cx="644.43" cy="243.4922" fill="none" rx="3" ry="3" style="stroke:#038048;stroke-width:1;"/></g><text fill="#000000" font-family="sans-serif" font-size="14" lengthAdjust="spacing" textLength="128.3789" x="653.43" y="247.7207">url : XsdAnyUri [0..1]</text><g data-visibility-modifier="PUBLIC_FIELD"><ellipse cx="644.43" cy="261.1016" fill="none" rx="3" ry="3" style="stroke:#038048;stroke-width:1;"/></g><text fill="#000000" font-family="sans-serif" font-size="14" lengthAdjust="spacing" textLength="152.5234" x="653.43" y="265.3301">license : Reference [0..*]</text><g data-visibility-modifier="PUBLIC_FIELD"><ellipse cx="644.43" cy="278.7109" fill="none" rx="3" ry="3" style="stroke:#038048;stroke-width:1;"/></g><text fill="#000000" font-family="sans-serif" font-size="14" lengthAdjust="spacing" textLength="231.8887" x="653.43" y="282.9395">conditionsOfAccess : Reference [0..*]</text><g data-visibility-modifier="PUBLIC_FIELD"><ellipse cx="644.43" cy="296.3203" fill="none" rx="3" ry="3" style="stroke:#038048;stroke-width:1;"/></g><text fill="#000000" font-family="sans-serif" font-size="14" lengthAdjust="spacing" textLength="232.6816" x="653.43" y="300.5488">publishingPrinciples : Reference [0..*]</text><g data-visibility-modifier="PUBLIC_FIELD"><ellipse cx="644.43" cy="313.9297" fill="none" rx="3" ry="3" style="stroke:#038048;stroke-width:1;"/></g><text fill="#000000" font-family="sans-serif" font-size="14" lengthAdjust="spacing" textLength="184.3994" x="653.43" y="318.1582">keywords : DefinedTerm [0..*]</text><g data-visibility-modifier="PUBLIC_FIELD"><ellipse cx="644.43" cy="331.5391" fill="none" rx="3" ry="3" style="stroke:#038048;stroke-width:1;"/></g><text fill="#000000" font-family="sans-serif" font-size="14" lengthAdjust="spacing" textLength="250.5986" x="653.43" y="335.7676">includedInDataCatalog : Reference [0..*]</text><g data-visibility-modifier="PUBLIC_FIELD"><ellipse cx="644.43" cy="349.1484" fill="none" rx="3" ry="3" style="stroke:#038048;stroke-width:1;"/></g><text fill="#000000" font-family="sans-serif" font-size="14" lengthAdjust="spacing" textLength="177.4336" x="653.43" y="353.377">relatedLink : Reference [0..*]</text></g><!--class Agent--><g class="entity" data-qualified-name="Agent" data-source-line="30" id="ent0003"><rect fill="#EEEEEE" height="25.0938" rx="2.5" ry="2.5" style="stroke:#404040;stroke-width:0.5;" width="37.3594" x="172.43" y="446.1094"/><text fill="#000000" font-family="sans-serif" font-size="12" font-style="italic" lengthAdjust="spacing" textLength="31.3594" x="175.43" y="463.5664">Agent</text></g><!--class AbstractDistribution--><g class="entity" data-qualified-name="AbstractDistribution" data-source-line="33" id="ent0006"><rect fill="#EEEEEE" height="25.0938" rx="2.5" ry="2.5" style="stroke:#404040;stroke-width:0.5;" width="110.0391" x="330.93" y="446.1094"/><text fill="#000000" font-family="sans-serif" font-size="12" font-style="italic" lengthAdjust="spacing" textLength="104.0391" x="333.93" y="463.5664">AbstractDistribution</text></g><!--class Contributor--><g class="entity" data-qualified-name="Contributor" data-source-line="36" id="ent0009"><rect fill="#EEEEEE" height="25.0938" rx="2.5" ry="2.5" style="stroke:#404040;stroke-width:0.5;" width="65.3613" x="476.43" y="446.1094"/><text fill="#000000" font-family="sans-serif" font-size="12" lengthAdjust="spacing" textLength="59.3613" x="479.43" y="463.5664">Contributor</text></g><!--class MonetaryGrant--><g class="entity" data-qualified-name="MonetaryGrant" data-source-line="39" id="ent0012"><rect fill="#EEEEEE" height="25.0938" rx="2.5" ry="2.5" style="stroke:#404040;stroke-width:0.5;" width="86.0332" x="576.93" y="446.1094"/><text fill="#000000" font-family="sans-serif" font-size="12" lengthAdjust="spacing" textLength="80.0332" x="579.93" y="463.5664">MonetaryGrant</text></g><!--class ProvActivity--><g class="entity" data-qualified-name="ProvActivity" data-source-line="41" id="ent0014"><rect fill="#EEEEEE" height="25.0938" rx="2.5" ry="2.5" style="stroke:#404040;stroke-width:0.5;" width="68.6777" x="698.43" y="446.1094"/><text fill="#000000" font-family="sans-serif" font-size="12" lengthAdjust="spacing" textLength="62.6777" x="701.43" y="463.5664">ProvActivity</text></g><!--class DerivedFrom--><g class="entity" data-qualified-name="DerivedFrom" data-source-line="43" id="ent0016"><rect fill="#EEEEEE" height="25.0938" rx="2.5" ry="2.5" style="stroke:#404040;stroke-width:0.5;" width="75.3457" x="805.43" y="446.1094"/><text fill="#000000" font-family="sans-serif" font-size="12" lengthAdjust="spacing" textLength="69.3457" x="808.43" y="463.5664">DerivedFrom</text></g><!--class CatalogRecord--><g class="entity" data-qualified-name="CatalogRecord" data-source-line="45" id="ent0018"><rect fill="#EEEEEE" height="25.0938" rx="2.5" ry="2.5" style="stroke:#404040;stroke-width:0.5;" width="86.0449" x="962.93" y="446.1094"/><text fill="#000000" font-family="sans-serif" font-size="12" lengthAdjust="spacing" textLength="80.0449" x="965.93" y="463.5664">CatalogRecord</text></g><!--class DefinedTerm--><g class="entity" data-qualified-name="DefinedTerm" data-source-line="47" id="ent0020"><rect fill="#EEEEEE" height="25.0938" rx="2.5" ry="2.5" style="stroke:#404040;stroke-width:0.5;" width="75.3574" x="1108.43" y="446.1094"/><text fill="#000000" font-family="sans-serif" font-size="12" lengthAdjust="spacing" textLength="69.3574" x="1111.43" y="463.5664">DefinedTerm</text></g><!--class Reference--><g class="entity" data-qualified-name="Reference" data-source-line="49" id="ent0022"><rect fill="#EEEEEE" height="25.0938" rx="2.5" ry="2.5" style="stroke:#404040;stroke-width:0.5;" width="61.3652" x="1218.43" y="446.1094"/><text fill="#000000" font-family="sans-serif" font-size="12" lengthAdjust="spacing" textLength="55.3652" x="1221.43" y="463.5664">Reference</text></g><!--class XsdLanguage--><g class="entity" data-qualified-name="XsdLanguage" data-source-line="52" id="ent0025"><rect fill="#FAE5D3" height="40.1875" rx="2.5" ry="2.5" style="stroke:#404040;stroke-width:0.5;" width="80.0684" x="1314.93" y="438.6094"/><text fill="#000000" font-family="sans-serif" font-size="12" font-style="italic" lengthAdjust="spacing" textLength="63.3809" x="1323.2738" y="456.0664">&#171;dataType&#187;</text><text fill="#000000" font-family="sans-serif" font-size="12" lengthAdjust="spacing" textLength="74.0684" x="1317.93" y="471.1602">XsdLanguage</text></g><!--class XsdDate--><g class="entity" data-qualified-name="XsdDate" data-source-line="54" id="ent0027"><rect fill="#FAE5D3" height="40.1875" rx="2.5" ry="2.5" style="stroke:#404040;stroke-width:0.5;" width="65.3809" x="1430.43" y="438.6094"/><text fill="#000000" font-family="sans-serif" font-size="12" font-style="italic" lengthAdjust="spacing" textLength="63.3809" x="1431.43" y="456.0664">&#171;dataType&#187;</text><text fill="#000000" font-family="sans-serif" font-size="12" lengthAdjust="spacing" textLength="46.0254" x="1440.1077" y="471.1602">XsdDate</text></g><!--class XsdAnyUri--><g class="entity" data-qualified-name="XsdAnyUri" data-source-line="56" id="ent0029"><rect fill="#FAE5D3" height="40.1875" rx="2.5" ry="2.5" style="stroke:#404040;stroke-width:0.5;" width="65.3809" x="1546.43" y="438.6094"/><text fill="#000000" font-family="sans-serif" font-size="12" font-style="italic" lengthAdjust="spacing" textLength="63.3809" x="1547.43" y="456.0664">&#171;dataType&#187;</text><text fill="#000000" font-family="sans-serif" font-size="12" lengthAdjust="spacing" textLength="56.6836" x="1550.7786" y="471.1602">XsdAnyUri</text></g><!--link Dataset to Agent--><g class="link" data-entity-1="ent0002" data-entity-2="ent0003" data-link-type="dependency" data-source-line="31" id="lnk4"><path codeLine="31" d="M633.42,219.4294 C442.48,243.7294 113.79,298.0794 41.93,390.6094 C6,436.8694 119.003,451.5644 166.363,455.7244" fill="none" id="Dataset-to-Agent" style="stroke:#404040;stroke-width:1.2;"/><polygon fill="#404040" points="172.34,456.2494,163.7245,451.4772,167.3592,455.8119,163.0245,459.4465,172.34,456.2494" style="stroke:#404040;stroke-width:1.2;"/><text fill="#000000" font-family="sans-serif" font-size="13" lengthAdjust="spacing" textLength="60.6963" x="42.93" y="405.1045">maintainer</text><text fill="#000000" font-family="sans-serif" font-size="13" lengthAdjust="spacing" textLength="19.5127" x="144.7609" y="450.6112">0..*</text></g><!--link Dataset to Agent--><g class="link" data-entity-1="ent0002" data-entity-2="ent0003" data-link-type="dependency" data-source-line="32" id="lnk5"><path codeLine="32" d="M633.07,225.7194 C466.57,254.8094 202.51,312.0994 143.93,390.6094 C129.65,409.7394 149.483,429.1105 168.153,442.5705" fill="none" id="Dataset-to-Agent-1" style="stroke:#404040;stroke-width:1.2;"/><polygon fill="#404040" points="173.02,446.0794,168.0587,437.5714,168.9641,443.1553,163.3802,444.0608,173.02,446.0794" style="stroke:#404040;stroke-width:1.2;"/><text fill="#000000" font-family="sans-serif" font-size="13" lengthAdjust="spacing" textLength="46.9663" x="144.93" y="405.1045">provider</text><text fill="#000000" font-family="sans-serif" font-size="13" lengthAdjust="spacing" textLength="19.5127" x="169.5825" y="435.159">0..*</text></g><!--link Dataset to Agent--><g class="link" data-entity-1="ent0002" data-entity-2="ent0003" data-link-type="dependency" data-source-line="35" id="lnk8"><path codeLine="35" d="M633.41,225.0194 C516.11,248.5894 348.85,296.6194 231.93,390.6094 C213.43,405.4794 203.3774,425.5221 197.3974,440.4021" fill="none" id="Dataset-to-Agent-2" style="stroke:#404040;stroke-width:1.2;"/><polygon fill="#404040" points="195.16,445.9694,202.2276,439.1101,197.0245,441.33,194.8046,436.1269,195.16,445.9694" style="stroke:#404040;stroke-width:1.2;"/><text fill="#000000" font-family="sans-serif" font-size="13" lengthAdjust="spacing" textLength="40.46" x="232.93" y="405.1045">creator</text><text fill="#000000" font-family="sans-serif" font-size="13" lengthAdjust="spacing" textLength="19.5127" x="200.8552" y="435.0037">0..*</text></g><!--link Dataset to Agent--><g class="link" data-entity-1="ent0002" data-entity-2="ent0003" data-link-type="dependency" data-source-line="38" id="lnk11"><path codeLine="38" d="M633.13,264.6694 C488.45,327.7894 279.4993,418.9599 215.2593,446.9899" fill="none" id="Dataset-to-Agent-3" style="stroke:#404040;stroke-width:1.2;"/><polygon fill="#404040" points="209.76,449.3894,219.6086,449.4563,214.3427,447.3898,216.4093,442.1239,209.76,449.3894" style="stroke:#404040;stroke-width:1.2;"/><text fill="#000000" font-family="sans-serif" font-size="13" lengthAdjust="spacing" textLength="52.7554" x="332.93" y="405.1045">publisher</text><text fill="#000000" font-family="sans-serif" font-size="13" lengthAdjust="spacing" textLength="21.6836" x="217.686" y="462.5913">0..1</text></g><!--link Dataset to AbstractDistribution--><g class="link" data-entity-1="ent0002" data-entity-2="ent0006" data-link-type="dependency" data-source-line="34" id="lnk7"><path codeLine="34" d="M633.36,290.0194 C584.19,321.1094 528.72,356.8694 478.93,390.6094 C451.25,409.3594 424.6689,428.7847 406.3489,442.3747" fill="none" id="Dataset-to-AbstractDistribution" style="stroke:#404040;stroke-width:1.2;"/><polygon fill="#404040" points="401.53,445.9494,411.1414,443.7999,405.5457,442.9705,406.3752,437.3747,401.53,445.9494" style="stroke:#404040;stroke-width:1.2;"/><text fill="#000000" font-family="sans-serif" font-size="13" lengthAdjust="spacing" textLength="62.8672" x="479.93" y="405.1045">distribution</text><text fill="#000000" font-family="sans-serif" font-size="13" lengthAdjust="spacing" textLength="19.5127" x="385.0251" y="435.3604">0..*</text></g><!--link Dataset to Contributor--><g class="link" data-entity-1="ent0002" data-entity-2="ent0009" data-link-type="dependency" data-source-line="37" id="lnk10"><path codeLine="37" d="M633.34,326.0494 C610.71,347.1294 587.84,369.1694 566.93,390.6094 C548.88,409.1094 533.3328,427.5302 522.1728,441.2102" fill="none" id="Dataset-to-Contributor" style="stroke:#404040;stroke-width:1.2;"/><polygon fill="#404040" points="518.38,445.8594,527.1686,441.4141,521.5406,441.985,520.9697,436.3571,518.38,445.8594" style="stroke:#404040;stroke-width:1.2;"/><text fill="#000000" font-family="sans-serif" font-size="13" lengthAdjust="spacing" textLength="61.4199" x="567.93" y="405.1045">contributor</text><text fill="#000000" font-family="sans-serif" font-size="13" lengthAdjust="spacing" textLength="19.5127" x="499.3901" y="435.2349">0..*</text></g><!--link Dataset to MonetaryGrant--><g class="link" data-entity-1="ent0002" data-entity-2="ent0012" data-link-type="dependency" data-source-line="40" id="lnk13"><path codeLine="40" d="M662.5,360.8094 C656.67,370.7594 651.09,380.7394 645.93,390.6094 C636.21,409.1794 629.916,426.5269 625.446,440.1869" fill="none" id="Dataset-to-MonetaryGrant" style="stroke:#404040;stroke-width:1.2;"/><polygon fill="#404040" points="623.58,445.8894,630.1807,438.5797,625.135,441.1373,622.5774,436.0917,623.58,445.8894" style="stroke:#404040;stroke-width:1.2;"/><text fill="#000000" font-family="sans-serif" font-size="13" lengthAdjust="spacing" textLength="42.6499" x="646.93" y="405.1045">funding</text><text fill="#000000" font-family="sans-serif" font-size="13" lengthAdjust="spacing" textLength="19.5127" x="602.371" y="435.2767">0..*</text></g><!--link Dataset to ProvActivity--><g class="link" data-entity-1="ent0002" data-entity-2="ent0014" data-link-type="dependency" data-source-line="42" id="lnk15"><path codeLine="42" d="M705.86,360.8594 C703.14,370.8194 700.78,380.7894 698.93,390.6094 C697.44,398.4694 696.54,400.9794 698.93,408.6094 C703.38,422.8394 709.6452,432.0297 717.7152,441.3197" fill="none" id="Dataset-to-ProvActivity" style="stroke:#404040;stroke-width:1.2;"/><polygon fill="#404040" points="721.65,445.8494,718.7676,436.4317,718.371,442.0747,712.7281,441.6781,721.65,445.8494" style="stroke:#404040;stroke-width:1.2;"/><text fill="#000000" font-family="sans-serif" font-size="13" lengthAdjust="spacing" textLength="99.7217" x="699.93" y="405.1045">wasGeneratedBy</text><text fill="#000000" font-family="sans-serif" font-size="13" lengthAdjust="spacing" textLength="19.5127" x="694.6323" y="435.221">0..*</text></g><!--link Dataset to DerivedFrom--><g class="link" data-entity-1="ent0002" data-entity-2="ent0016" data-link-type="dependency" data-source-line="44" id="lnk17"><path codeLine="44" d="M815.78,360.6894 C825.85,396.6494 833.3514,423.4418 838.0214,440.1118" fill="none" id="Dataset-to-DerivedFrom" style="stroke:#404040;stroke-width:1.2;"/><polygon fill="#404040" points="839.64,445.8894,841.0639,436.144,838.2912,441.0747,833.3605,438.3021,839.64,445.8894" style="stroke:#404040;stroke-width:1.2;"/><text fill="#000000" font-family="sans-serif" font-size="13" lengthAdjust="spacing" textLength="98.2427" x="828.93" y="405.1045">wasDerivedFrom</text><text fill="#000000" font-family="sans-serif" font-size="13" lengthAdjust="spacing" textLength="19.5127" x="815.6368" y="435.2767">0..*</text></g><!--link Dataset to CatalogRecord--><g class="link" data-entity-1="ent0002" data-entity-2="ent0018" data-link-type="dependency" data-source-line="46" id="lnk19"><path codeLine="46" d="M910.75,354.4994 C946.18,392.8794 974.7696,423.8612 991.0396,441.4812" fill="none" id="Dataset-to-CatalogRecord" style="stroke:#404040;stroke-width:1.2;"/><polygon fill="#404040" points="995.11,445.8894,991.9432,436.5635,991.718,442.2159,986.0656,441.9908,995.11,445.8894" style="stroke:#404040;stroke-width:1.2;"/><text fill="#000000" font-family="sans-serif" font-size="13" lengthAdjust="spacing" textLength="54.9136" x="956.93" y="405.1045">subjectOf</text><text fill="#000000" font-family="sans-serif" font-size="13" lengthAdjust="spacing" textLength="7.23" x="982.5079" y="435.2767">1</text></g><!--link CatalogRecord to Dataset--><g class="link" data-entity-1="ent0018" data-entity-2="ent0002" data-link-type="dependency" data-source-line="51" id="lnk24"><path codeLine="51" d="M1012.91,445.6294 C1020.03,431.7394 1028.84,408.4694 1019.93,390.6094 C996.11,342.8894 958.572,307.5772 915.422,278.0572" fill="none" id="CatalogRecord-to-Dataset" style="stroke:#404040;stroke-width:1.2;"/><polygon fill="#404040" points="910.47,274.6694,915.6395,283.0525,914.5967,277.4926,920.1566,276.4497,910.47,274.6694" style="stroke:#404040;stroke-width:1.2;"/><text fill="#000000" font-family="sans-serif" font-size="13" lengthAdjust="spacing" textLength="32.5317" x="1024.93" y="405.1045">about</text><text fill="#000000" font-family="sans-serif" font-size="13" lengthAdjust="spacing" textLength="21.6836" x="918.1828" y="275.4549">0..1</text></g><!--link Dataset to DefinedTerm--><g class="link" data-entity-1="ent0002" data-entity-2="ent0020" data-link-type="dependency" data-source-line="48" id="lnk21"><path codeLine="48" d="M910.54,286.7994 C960.48,317.9494 1016.64,354.5794 1065.93,390.6094 C1090.64,408.6794 1113.1182,428.089 1128.5782,441.919" fill="none" id="Dataset-to-DefinedTerm" style="stroke:#404040;stroke-width:1.2;"/><polygon fill="#404040" points="1133.05,445.9194,1129.0092,436.9376,1129.3235,442.5858,1123.6754,442.9001,1133.05,445.9194" style="stroke:#404040;stroke-width:1.2;"/><text fill="#000000" font-family="sans-serif" font-size="13" lengthAdjust="spacing" textLength="54.9072" x="1089.93" y="405.1045">keywords</text><text fill="#000000" font-family="sans-serif" font-size="13" lengthAdjust="spacing" textLength="19.5127" x="1105.2684" y="435.3186">0..*</text></g><!--link Dataset to Reference--><g class="link" data-entity-1="ent0002" data-entity-2="ent0022" data-link-type="dependency" data-source-line="50" id="lnk23"><path codeLine="50" d="M910.83,265.8094 C984.24,299.9694 1075.03,344.7294 1152.93,390.6094 C1182.7,408.1394 1210.4737,428.3212 1228.9937,442.3212" fill="none" id="Dataset-to-Reference" style="stroke:#404040;stroke-width:1.2;"/><polygon fill="#404040" points="1233.78,445.9394,1229.0126,437.3212,1229.7914,442.9242,1224.1884,443.703,1233.78,445.9394" style="stroke:#404040;stroke-width:1.2;"/><text fill="#000000" font-family="sans-serif" font-size="13" lengthAdjust="spacing" textLength="40.4663" x="1181.93" y="405.1045">license</text><text fill="#000000" font-family="sans-serif" font-size="13" lengthAdjust="spacing" textLength="19.5127" x="1205.1031" y="435.3464">0..*</text></g><!--link Dataset to XsdLanguage--><g class="link" data-entity-1="ent0002" data-entity-2="ent0025" data-link-type="dependency" data-source-line="53" id="lnk26"><path codeLine="53" d="M910.45,255.8394 C1002.42,291.2894 1125.22,340.7594 1230.93,390.6094 C1262.46,405.4794 1292.0893,421.6024 1316.7893,435.5924" fill="none" id="Dataset-to-XsdLanguage" style="stroke:#404040;stroke-width:1.2;stroke-dasharray:7,7;"/><polygon fill="#404040" points="1322.01,438.5494,1316.1502,430.6334,1317.6594,436.0852,1312.2076,437.5944,1322.01,438.5494" style="stroke:#404040;stroke-width:1.2;"/><text fill="#000000" font-family="sans-serif" font-size="13" lengthAdjust="spacing" textLength="67.958" x="1266.93" y="405.1045">inLanguage</text></g><!--link Dataset to XsdDate--><g class="link" data-entity-1="ent0002" data-entity-2="ent0027" data-link-type="dependency" data-source-line="55" id="lnk28"><path codeLine="55" d="M910.54,241.2194 C1027.92,274.5594 1199.5,327.8494 1342.93,390.6094 C1374.62,404.4794 1403.7815,421.0152 1427.5615,435.4552" fill="none" id="Dataset-to-XsdDate" style="stroke:#404040;stroke-width:1.2;stroke-dasharray:7,7;"/><polygon fill="#404040" points="1432.69,438.5694,1427.0734,430.4791,1428.4162,435.9742,1422.9211,437.3171,1432.69,438.5694" style="stroke:#404040;stroke-width:1.2;"/><text fill="#000000" font-family="sans-serif" font-size="13" lengthAdjust="spacing" textLength="74.439" x="1377.93" y="405.1045">dateModified</text></g><!--link Dataset to XsdAnyUri--><g class="link" data-entity-1="ent0002" data-entity-2="ent0029" data-link-type="dependency" data-source-line="57" id="lnk30"><path codeLine="57" d="M910.59,230.8694 C1052.17,260.6594 1276.71,314.8094 1460.93,390.6094 C1492.73,403.6994 1521.5703,420.4403 1544.8403,435.1703" fill="none" id="Dataset-to-XsdAnyUri" style="stroke:#404040;stroke-width:1.2;stroke-dasharray:7,7;"/><polygon fill="#404040" points="1549.91,438.3794,1544.4449,430.1859,1545.6853,435.7051,1540.1661,436.9455,1549.91,438.3794" style="stroke:#404040;stroke-width:1.2;"/><text fill="#000000" font-family="sans-serif" font-size="13" lengthAdjust="spacing" textLength="14.4473" x="1498.93" y="405.1045">url</text></g><?plantuml-src ZLLRQzim57xthn3fsqP3qsqlfWJSN4gXfQNBO33se4Z7YHPRCfASa8t-znt9DxbDJ1CCrZcVllD9vs8hR0PaJYqrOAEju42Oq2o3wXtomXv93laQj8dCJiY2QfeJiwLS7OJSa9Hc1W9FehKwhBQ2xIGOGoRZwy39CegsVn6fO3ELAKqklbwvFnflbUQWtrgNIjhluY-GoNNq6aKLnwYMF2BKDFB9nNAnNCmMFi1db2-jI0Le4fFxRl5hyjkv9Sq17SPgTuhQoC4mBGehb0nyL-DnvQQS2-UZsUfOkDrpI8K4lWATUzWd3pD8dPWtKLll7c_o3B-G3rHkIhfnt3yDRrSTX5CBZuexKbw1yF3GwiVtvtAT2RFjkzlzfSugUoAFFxG8F9bW88sB_08fQ90C0jLCoUhivYbD67EfFGqigl1ui6Sy7HD51kUWEpWUCEFcx4NY_gpamE-bo_0Cdqnjpf1foF2a_478tId4QqJNUD-KsRe8Hya6a-FBnx-HYuN_HKqnNLvEoSXj7jM0cEHKI8iFw25KeTKUYq-_ZrYlvy9bVbswwwm4d70CwZc5ZmaFbaC2cGPgbMuwQORzvRSfxTK4wo4H8GmvkzKxy2Iucxeus-2FIeAb-dYdQPsDdcL8G1yOaxJ44fMRXlaPqv0mA_R27ZrnQ1ZYxU5YSg3c3Z3bhhfkZ-tu0Itsm9TQvTK8wjP3t27CKmU6DXzLdRy0m-QeCX9QJjFZ7VTHE5xAzHzWzYdjDBTDLclkccvGSmUBITEq3MdRQPwowxi1mWuKathgH7tnGUKq-sD2rwgqJTXWElh0uRIykS4vIDs8daxncv0ilis_j3h6usaF79DkwWRaRcmsn7w4VeJK0x4FWnaTK5OJjo6jv-z7Q6jeJ71uH_y1?></g></svg>