<svg xmlns="http://www.w3.org/2000/svg" xmlns:xlink="http://www.w3.org/1999/xlink" contentStyleType="text/css" data-diagram-type="CLASS" height="457px" preserveAspectRatio="none" style="width:1384px;height:457px;background:#FFFFFF;" version="1.1" viewBox="0 0 1384 457" width="1384px" zoomAndPan="magnify"><?plantuml 1.2026.3?><defs/><g><g class="title" data-source-line="1"><text fill="#000000" font-family="sans-serif" font-size="14" font-weight="700" lengthAdjust="spacing" textLength="50.5791" x="663.6509" y="24.5332">Dataset</text></g><!--class Dataset--><g class="entity" data-qualified-name="Dataset" data-source-line="12" id="ent0002"><rect fill="#FEFECE" height="279.625" rx="2.5" ry="2.5" style="stroke:#404040;stroke-width:0.5;" width="258.6816" x="540.5" y="45.6094"/><text fill="#000000" font-family="sans-serif" font-size="12" lengthAdjust="spacing" textLength="41.3555" x="649.1631" y="63.0664">Dataset</text><line style="stroke:#404040;stroke-width:0.5;" x1="541.5" x2="798.1816" y1="70.7031" y2="70.7031"/><g data-visibility-modifier="PUBLIC_FIELD"><ellipse cx="551.5" cy="85.0078" fill="none" rx="3" ry="3" style="stroke:#038048;stroke-width:1;"/></g><text fill="#000000" font-family="sans-serif" font-size="14" lengthAdjust="spacing" textLength="137.7373" x="560.5" y="89.2363">identifier : Identifier [1]</text><g data-visibility-modifier="PUBLIC_FIELD"><ellipse cx="551.5" cy="102.6172" fill="none" rx="3" ry="3" style="stroke:#038048;stroke-width:1;"/></g><text fill="#000000" font-family="sans-serif" font-size="14" lengthAdjust="spacing" textLength="100.3789" x="560.5" y="106.8457">name : string [1]</text><g data-visibility-modifier="PUBLIC_FIELD"><ellipse cx="551.5" cy="120.2266" fill="none" rx="3" ry="3" style="stroke:#038048;stroke-width:1;"/></g><text fill="#000000" font-family="sans-serif" font-size="14" lengthAdjust="spacing" textLength="148.627" x="560.5" y="124.4551">description : string [0..1]</text><g data-visibility-modifier="PUBLIC_FIELD"><ellipse cx="551.5" cy="137.8359" fill="none" rx="3" ry="3" style="stroke:#038048;stroke-width:1;"/></g><text fill="#000000" font-family="sans-serif" font-size="14" lengthAdjust="spacing" textLength="216.3301" x="560.5" y="142.0645">additionalType : DefinedTerm [0..*]</text><g data-visibility-modifier="PUBLIC_FIELD"><ellipse cx="551.5" cy="155.4453" fill="none" rx="3" ry="3" style="stroke:#038048;stroke-width:1;"/></g><text fill="#000000" font-family="sans-serif" font-size="14" lengthAdjust="spacing" textLength="148.6201" x="560.5" y="159.6738">sameAs : Identifier [0..*]</text><g data-visibility-modifier="PUBLIC_FIELD"><ellipse cx="551.5" cy="173.0547" fill="none" rx="3" ry="3" style="stroke:#038048;stroke-width:1;"/></g><text fill="#000000" font-family="sans-serif" font-size="14" lengthAdjust="spacing" textLength="126.0547" x="560.5" y="177.2832">version : string [0..1]</text><g data-visibility-modifier="PUBLIC_FIELD"><ellipse cx="551.5" cy="190.6641" fill="none" rx="3" ry="3" style="stroke:#038048;stroke-width:1;"/></g><text fill="#000000" font-family="sans-serif" font-size="14" lengthAdjust="spacing" textLength="206.2881" x="560.5" y="194.8926">inLanguage : XsdLanguage [0..1]</text><g data-visibility-modifier="PUBLIC_FIELD"><ellipse cx="551.5" cy="208.2734" fill="none" rx="3" ry="3" style="stroke:#038048;stroke-width:1;"/></g><text fill="#000000" font-family="sans-serif" font-size="14" lengthAdjust="spacing" textLength="164.9854" x="560.5" y="212.502">dateModified : XsdDate [1]</text><g data-visibility-modifier="PUBLIC_FIELD"><ellipse cx="551.5" cy="225.8828" fill="none" rx="3" ry="3" style="stroke:#038048;stroke-width:1;"/></g><text fill="#000000" font-family="sans-serif" font-size="14" lengthAdjust="spacing" textLength="189.123" x="560.5" y="230.1113">datePublished : XsdDate [0..1]</text><g data-visibility-modifier="PUBLIC_FIELD"><ellipse cx="551.5" cy="243.4922" fill="none" rx="3" ry="3" style="stroke:#038048;stroke-width:1;"/></g><text fill="#000000" font-family="sans-serif" font-size="14" lengthAdjust="spacing" textLength="128.3789" x="560.5" y="247.7207">url : XsdAnyUri [0..1]</text><g data-visibility-modifier="PUBLIC_FIELD"><ellipse cx="551.5" cy="261.1016" fill="none" rx="3" ry="3" style="stroke:#038048;stroke-width:1;"/></g><text fill="#000000" font-family="sans-serif" font-size="14" lengthAdjust="spacing" textLength="152.5234" x="560.5" y="265.3301">license : Reference [0..*]</text><g data-visibility-modifier="PUBLIC_FIELD"><ellipse cx="551.5" cy="278.7109" fill="none" rx="3" ry="3" style="stroke:#038048;stroke-width:1;"/></g><text fill="#000000" font-family="sans-serif" font-size="14" lengthAdjust="spacing" textLength="231.8887" x="560.5" y="282.9395">conditionsOfAccess : Reference [0..*]</text><g data-visibility-modifier="PUBLIC_FIELD"><ellipse cx="551.5" cy="296.3203" fill="none" rx="3" ry="3" style="stroke:#038048;stroke-width:1;"/></g><text fill="#000000" font-family="sans-serif" font-size="14" lengthAdjust="spacing" textLength="232.6816" x="560.5" y="300.5488">publishingPrinciples : Reference [0..*]</text><g data-visibility-modifier="PUBLIC_FIELD"><ellipse cx="551.5" cy="313.9297" fill="none" rx="3" ry="3" style="stroke:#038048;stroke-width:1;"/></g><text fill="#000000" font-family="sans-serif" font-size="14" lengthAdjust="spacing" textLength="184.3994" x="560.5" y="318.1582">keywords : DefinedTerm [0..*]</text></g><!--class AbstractDistribution--><g class="entity" data-qualified-name="AbstractDistribution" data-source-line="28" id="ent0003"><rect fill="#EEEEEE" height="25.0938" rx="2.5" ry="2.5" style="stroke:#404040;stroke-width:0.5;" width="110.0391" x="7" y="411.1094"/><text fill="#000000" font-family="sans-serif" font-size="12" font-style="italic" lengthAdjust="spacing" textLength="104.0391" x="10" y="428.5664">AbstractDistribution</text></g><!--class Agent--><g class="entity" data-qualified-name="Agent" data-source-line="30" id="ent0005"><rect fill="#EEEEEE" height="25.0938" rx="2.5" ry="2.5" style="stroke:#404040;stroke-width:0.5;" width="37.3594" x="191.5" y="411.1094"/><text fill="#000000" font-family="sans-serif" font-size="12" font-style="italic" lengthAdjust="spacing" textLength="31.3594" x="194.5" y="428.5664">Agent</text></g><!--class Contributor--><g class="entity" data-qualified-name="Contributor" data-source-line="32" id="ent0007"><rect fill="#EEEEEE" height="25.0938" rx="2.5" ry="2.5" style="stroke:#404040;stroke-width:0.5;" width="65.3613" x="301.5" y="411.1094"/><text fill="#000000" font-family="sans-serif" font-size="12" lengthAdjust="spacing" textLength="59.3613" x="304.5" y="428.5664">Contributor</text></g><!--class MonetaryGrant--><g class="entity" data-qualified-name="MonetaryGrant" data-source-line="35" id="ent0010"><rect fill="#EEEEEE" height="25.0938" rx="2.5" ry="2.5" style="stroke:#404040;stroke-width:0.5;" width="86.0332" x="402" y="411.1094"/><text fill="#000000" font-family="sans-serif" font-size="12" lengthAdjust="spacing" textLength="80.0332" x="405" y="428.5664">MonetaryGrant</text></g><!--class ProvActivity--><g class="entity" data-qualified-name="ProvActivity" data-source-line="37" id="ent0012"><rect fill="#EEEEEE" height="25.0938" rx="2.5" ry="2.5" style="stroke:#404040;stroke-width:0.5;" width="68.6777" x="523.5" y="411.1094"/><text fill="#000000" font-family="sans-serif" font-size="12" lengthAdjust="spacing" textLength="62.6777" x="526.5" y="428.5664">ProvActivity</text></g><!--class DerivedFrom--><g class="entity" data-qualified-name="DerivedFrom" data-source-line="39" id="ent0014"><rect fill="#EEEEEE" height="25.0938" rx="2.5" ry="2.5" style="stroke:#404040;stroke-width:0.5;" width="75.3457" x="632.5" y="411.1094"/><text fill="#000000" font-family="sans-serif" font-size="12" lengthAdjust="spacing" textLength="69.3457" x="635.5" y="428.5664">DerivedFrom</text></g><!--class CatalogRecord--><g class="entity" data-qualified-name="CatalogRecord" data-source-line="41" id="ent0016"><rect fill="#EEEEEE" height="25.0938" rx="2.5" ry="2.5" style="stroke:#404040;stroke-width:0.5;" width="86.0449" x="745" y="411.1094"/><text fill="#000000" font-family="sans-serif" font-size="12" lengthAdjust="spacing" textLength="80.0449" x="748" y="428.5664">CatalogRecord</text></g><!--class DefinedTerm--><g class="entity" data-qualified-name="DefinedTerm" data-source-line="43" id="ent0018"><rect fill="#EEEEEE" height="25.0938" rx="2.5" ry="2.5" style="stroke:#404040;stroke-width:0.5;" width="75.3574" x="866.5" y="411.1094"/><text fill="#000000" font-family="sans-serif" font-size="12" lengthAdjust="spacing" textLength="69.3574" x="869.5" y="428.5664">DefinedTerm</text></g><!--class Reference--><g class="entity" data-qualified-name="Reference" data-source-line="45" id="ent0020"><rect fill="#EEEEEE" height="25.0938" rx="2.5" ry="2.5" style="stroke:#404040;stroke-width:0.5;" width="61.3652" x="976.5" y="411.1094"/><text fill="#000000" font-family="sans-serif" font-size="12" lengthAdjust="spacing" textLength="55.3652" x="979.5" y="428.5664">Reference</text></g><!--class XsdLanguage--><g class="entity" data-qualified-name="XsdLanguage" data-source-line="47" id="ent0022"><rect fill="#FAE5D3" height="40.1875" rx="2.5" ry="2.5" style="stroke:#404040;stroke-width:0.5;" width="80.0684" x="1073" y="403.6094"/><text fill="#000000" font-family="sans-serif" font-size="12" font-style="italic" lengthAdjust="spacing" textLength="63.3809" x="1081.3438" y="421.0664">&#171;dataType&#187;</text><text fill="#000000" font-family="sans-serif" font-size="12" lengthAdjust="spacing" textLength="74.0684" x="1076" y="436.1602">XsdLanguage</text></g><!--class XsdDate--><g class="entity" data-qualified-name="XsdDate" data-source-line="49" id="ent0024"><rect fill="#FAE5D3" height="40.1875" rx="2.5" ry="2.5" style="stroke:#404040;stroke-width:0.5;" width="65.3809" x="1188.5" y="403.6094"/><text fill="#000000" font-family="sans-serif" font-size="12" font-style="italic" lengthAdjust="spacing" textLength="63.3809" x="1189.5" y="421.0664">&#171;dataType&#187;</text><text fill="#000000" font-family="sans-serif" font-size="12" lengthAdjust="spacing" textLength="46.0254" x="1198.1777" y="436.1602">XsdDate</text></g><!--class XsdAnyUri--><g class="entity" data-qualified-name="XsdAnyUri" data-source-line="51" id="ent0026"><rect fill="#FAE5D3" height="40.1875" rx="2.5" ry="2.5" style="stroke:#404040;stroke-width:0.5;" width="65.3809" x="1304.5" y="403.6094"/><text fill="#000000" font-family="sans-serif" font-size="12" font-style="italic" lengthAdjust="spacing" textLength="63.3809" x="1305.5" y="421.0664">&#171;dataType&#187;</text><text fill="#000000" font-family="sans-serif" font-size="12" lengthAdjust="spacing" textLength="56.6836" x="1308.8486" y="436.1602">XsdAnyUri</text></g><!--link Dataset to AbstractDistribution--><g class="link" data-entity-1="ent0002" data-entity-2="ent0003" data-link-type="dependency" data-source-line="29" id="lnk4"><path codeLine="29" d="M540.42,191.4594 C410.21,203.0694 211.48,240.1294 87,355.6094 C71.16,370.2994 66.143,390.0289 64.023,404.9689" fill="none" id="Dataset-to-AbstractDistribution" style="stroke:#404040;stroke-width:1.2;"/><polygon fill="#404040" points="63.18,410.9094,68.4048,402.5606,63.8825,405.959,60.4841,401.4367,63.18,410.9094" style="stroke:#404040;stroke-width:1.2;"/><text fill="#000000" font-family="sans-serif" font-size="13" lengthAdjust="spacing" textLength="62.8672" x="88" y="370.1045">distribution</text><text fill="#000000" font-family="sans-serif" font-size="13" lengthAdjust="spacing" textLength="19.5127" x="40.9972" y="400.3046">0..*</text></g><!--link Dataset to Agent--><g class="link" data-entity-1="ent0002" data-entity-2="ent0005" data-link-type="dependency" data-source-line="31" id="lnk6"><path codeLine="31" d="M540.25,189.7894 C420.39,200.4694 248.38,237.1594 163,355.6094 C149.13,374.8594 168.4906,393.99 187.0206,407.41" fill="none" id="Dataset-to-Agent" style="stroke:#404040;stroke-width:1.2;"/><polygon fill="#404040" points="191.88,410.9294,186.9371,402.4107,187.8305,407.9966,182.2446,408.89,191.88,410.9294" style="stroke:#404040;stroke-width:1.2;"/><text fill="#000000" font-family="sans-serif" font-size="13" lengthAdjust="spacing" textLength="40.46" x="164" y="370.1045">creator</text><text fill="#000000" font-family="sans-serif" font-size="13" lengthAdjust="spacing" textLength="19.5127" x="164.1006" y="401.8738">0..*</text></g><!--link Dataset to Agent--><g class="link" data-entity-1="ent0002" data-entity-2="ent0005" data-link-type="dependency" data-source-line="34" id="lnk9"><path codeLine="34" d="M540.25,250.3894 C477.41,281.6094 401.01,320.0494 333,355.6094 C295.72,375.0994 257.9039,395.9337 233.8939,409.2837" fill="none" id="Dataset-to-Agent-1" style="stroke:#404040;stroke-width:1.2;"/><polygon fill="#404040" points="228.65,412.1994,238.4597,411.3217,233.0199,409.7696,234.5721,404.3299,228.65,412.1994" style="stroke:#404040;stroke-width:1.2;"/><text fill="#000000" font-family="sans-serif" font-size="13" lengthAdjust="spacing" textLength="52.7554" x="334" y="370.1045">publisher</text><text fill="#000000" font-family="sans-serif" font-size="13" lengthAdjust="spacing" textLength="21.6836" x="236.894" y="404.2717">0..1</text></g><!--link Dataset to Contributor--><g class="link" data-entity-1="ent0002" data-entity-2="ent0007" data-link-type="dependency" data-source-line="33" id="lnk8"><path codeLine="33" d="M540.39,270.5694 C500.65,297.0994 457.1,326.9794 418,355.6094 C392.56,374.2294 368.713,393.6327 352.313,407.2727" fill="none" id="Dataset-to-Contributor" style="stroke:#404040;stroke-width:1.2;"/><polygon fill="#404040" points="347.7,411.1094,357.1773,408.4297,351.5442,407.9121,352.0617,402.279,347.7,411.1094" style="stroke:#404040;stroke-width:1.2;"/><text fill="#000000" font-family="sans-serif" font-size="13" lengthAdjust="spacing" textLength="61.4199" x="419" y="370.1045">contributor</text><text fill="#000000" font-family="sans-serif" font-size="13" lengthAdjust="spacing" textLength="19.5127" x="330.4637" y="400.2014">0..*</text></g><!--link Dataset to MonetaryGrant--><g class="link" data-entity-1="ent0002" data-entity-2="ent0010" data-link-type="dependency" data-source-line="36" id="lnk11"><path codeLine="36" d="M540.12,316.3294 C527.46,329.4894 514.9,342.7394 503,355.6094 C485.45,374.5794 469.8018,392.909 458.4818,406.429" fill="none" id="Dataset-to-MonetaryGrant" style="stroke:#404040;stroke-width:1.2;"/><polygon fill="#404040" points="454.63,411.0294,463.4746,406.6967,457.8398,407.1957,457.3408,401.5609,454.63,411.0294" style="stroke:#404040;stroke-width:1.2;"/><text fill="#000000" font-family="sans-serif" font-size="13" lengthAdjust="spacing" textLength="42.6499" x="504" y="370.1045">funding</text><text fill="#000000" font-family="sans-serif" font-size="13" lengthAdjust="spacing" textLength="19.5127" x="435.7825" y="400.0884">0..*</text></g><!--link Dataset to ProvActivity--><g class="link" data-entity-1="ent0002" data-entity-2="ent0012" data-link-type="dependency" data-source-line="38" id="lnk13"><path codeLine="38" d="M569.15,326.0494 C564.79,335.7694 561,345.6694 558,355.6094 C552.36,374.3194 553.2984,391.3859 555.1784,404.9859" fill="none" id="Dataset-to-ProvActivity" style="stroke:#404040;stroke-width:1.2;"/><polygon fill="#404040" points="556,410.9294,558.7299,401.4664,555.3153,405.9765,550.8053,402.5619,556,410.9294" style="stroke:#404040;stroke-width:1.2;"/><text fill="#000000" font-family="sans-serif" font-size="13" lengthAdjust="spacing" textLength="99.7217" x="559" y="370.1045">wasGeneratedBy</text><text fill="#000000" font-family="sans-serif" font-size="13" lengthAdjust="spacing" textLength="19.5127" x="532.6363" y="400.3325">0..*</text></g><!--link Dataset to DerivedFrom--><g class="link" data-entity-1="ent0002" data-entity-2="ent0014" data-link-type="dependency" data-source-line="40" id="lnk15"><path codeLine="40" d="M666.33,325.7494 C666.33,341.8894 666.53,358.1094 667,373.6094 C667.39,386.3894 667.9101,395.0255 668.6401,404.9555" fill="none" id="Dataset-to-DerivedFrom" style="stroke:#404040;stroke-width:1.2;"/><polygon fill="#404040" points="669.08,410.9394,672.4094,401.6703,668.7134,405.9528,664.4309,402.2569,669.08,410.9394" style="stroke:#404040;stroke-width:1.2;"/><text fill="#000000" font-family="sans-serif" font-size="13" lengthAdjust="spacing" textLength="98.2427" x="668" y="370.1045">wasDerivedFrom</text><text fill="#000000" font-family="sans-serif" font-size="13" lengthAdjust="spacing" textLength="19.5127" x="646.01" y="400.3464">0..*</text></g><!--link Dataset to CatalogRecord--><g class="link" data-entity-1="ent0002" data-entity-2="ent0016" data-link-type="dependency" data-source-line="42" id="lnk17"><path codeLine="42" d="M757.26,325.6194 C762.23,335.6094 766.87,345.6694 771,355.6094 C778.73,374.2294 782.5743,391.3648 785.0343,404.9948" fill="none" id="Dataset-to-CatalogRecord" style="stroke:#404040;stroke-width:1.2;"/><polygon fill="#404040" points="786.1,410.8994,788.4379,401.332,785.2119,405.9789,780.5651,402.7529,786.1,410.8994" style="stroke:#404040;stroke-width:1.2;"/><text fill="#000000" font-family="sans-serif" font-size="13" lengthAdjust="spacing" textLength="54.9136" x="779" y="370.1045">subjectOf</text><text fill="#000000" font-family="sans-serif" font-size="13" lengthAdjust="spacing" textLength="7.23" x="777.0102" y="400.2907">1</text></g><!--link Dataset to DefinedTerm--><g class="link" data-entity-1="ent0002" data-entity-2="ent0018" data-link-type="dependency" data-source-line="44" id="lnk19"><path codeLine="44" d="M799.8,312.8394 C814.14,327.1694 828.44,341.6394 842,355.6094 C860.54,374.7194 877.4275,393.1475 889.6075,406.6275" fill="none" id="Dataset-to-DefinedTerm" style="stroke:#404040;stroke-width:1.2;"/><polygon fill="#404040" points="893.63,411.0794,890.5641,401.7199,890.2779,407.3695,884.6283,407.0833,893.63,411.0794" style="stroke:#404040;stroke-width:1.2;"/><text fill="#000000" font-family="sans-serif" font-size="13" lengthAdjust="spacing" textLength="54.9072" x="859" y="370.1045">keywords</text><text fill="#000000" font-family="sans-serif" font-size="13" lengthAdjust="spacing" textLength="19.5127" x="866.4657" y="400.159">0..*</text></g><!--link Dataset to Reference--><g class="link" data-entity-1="ent0002" data-entity-2="ent0020" data-link-type="dependency" data-source-line="46" id="lnk21"><path codeLine="46" d="M799.51,270.7094 C839.25,297.2394 882.82,327.0894 922,355.6094 C947.52,374.1894 971.5077,393.4381 988.1777,407.0881" fill="none" id="Dataset-to-Reference" style="stroke:#404040;stroke-width:1.2;"/><polygon fill="#404040" points="992.82,410.8894,988.3908,402.0927,988.9515,407.7217,983.3225,408.2823,992.82,410.8894" style="stroke:#404040;stroke-width:1.2;"/><text fill="#000000" font-family="sans-serif" font-size="13" lengthAdjust="spacing" textLength="40.4663" x="947" y="370.1045">license</text><text fill="#000000" font-family="sans-serif" font-size="13" lengthAdjust="spacing" textLength="19.5127" x="964.525" y="400.2767">0..*</text></g><!--link Dataset to XsdLanguage--><g class="link" data-entity-1="ent0002" data-entity-2="ent0022" data-link-type="dependency" data-source-line="48" id="lnk23"><path codeLine="48" d="M799.56,252.1994 C859.62,283.0094 931.77,320.5894 996,355.6094 C1024.77,371.2994 1051.8863,386.8379 1075.2363,400.4479" fill="none" id="Dataset-to-XsdLanguage" style="stroke:#404040;stroke-width:1.2;stroke-dasharray:7,7;"/><polygon fill="#404040" points="1080.42,403.4694,1074.6587,395.4814,1076.1002,400.9515,1070.6301,402.393,1080.42,403.4694" style="stroke:#404040;stroke-width:1.2;"/><text fill="#000000" font-family="sans-serif" font-size="13" lengthAdjust="spacing" textLength="67.958" x="1030" y="370.1045">inLanguage</text></g><!--link Dataset to XsdDate--><g class="link" data-entity-1="ent0002" data-entity-2="ent0024" data-link-type="dependency" data-source-line="50" id="lnk25"><path codeLine="50" d="M799.6,230.7694 C887.54,262.1994 1005.61,307.2794 1106,355.6094 C1135.77,369.9394 1163.0756,385.9996 1185.8656,400.1796" fill="none" id="Dataset-to-XsdDate" style="stroke:#404040;stroke-width:1.2;stroke-dasharray:7,7;"/><polygon fill="#404040" points="1190.96,403.3494,1185.4316,395.1985,1186.7147,400.7079,1181.2053,401.991,1190.96,403.3494" style="stroke:#404040;stroke-width:1.2;"/><text fill="#000000" font-family="sans-serif" font-size="13" lengthAdjust="spacing" textLength="74.439" x="1140" y="370.1045">dateModified</text></g><!--link Dataset to XsdAnyUri--><g class="link" data-entity-1="ent0002" data-entity-2="ent0026" data-link-type="dependency" data-source-line="52" id="lnk27"><path codeLine="52" d="M799.63,217.0194 C913.7,245.9194 1082.95,294.0794 1223,355.6094 C1253.69,369.0894 1281.4185,385.7208 1303.9085,400.3308" fill="none" id="Dataset-to-XsdAnyUri" style="stroke:#404040;stroke-width:1.2;stroke-dasharray:7,7;"/><polygon fill="#404040" points="1308.94,403.5994,1303.5718,395.3421,1304.7471,400.8755,1299.2136,402.0508,1308.94,403.5994" style="stroke:#404040;stroke-width:1.2;"/><text fill="#000000" font-family="sans-serif" font-size="13" lengthAdjust="spacing" textLength="14.4473" x="1259" y="370.1045">url</text></g><?plantuml-src ZPJVQzim4CVV_LU8v6sZeUcs5rC2RdwKmKf3by5Wx46HpeuMMmgIak2D_kyxoR_aDZLDNgoxhpvtakxE2fi3ML1B3TXe9pWG9ZJBeVg6uc1BKa2n1MqYinVoG3KjYDbHhiv2PYIbkO70asYjpfkTO7i9nf3fv2PmifoYxLz4AjbSvKgJyUThzqVZdT8Sz4lhIadxNVm5Chs9dgEeOepgb4U4cYPzCbujLylvqWVuYEbBAr81ciJaQxVuDVtjt98MW0vZjJj5RUHWc1O7AvGCVDUJIUMcd0lde_ccFBZT2qY51Bu1NNZP1oypY4xCYwYjzuGt-GPVo6zKPaUQEVPFmzjL9-7KmeFY3ieh4HuUslpnUttSviBi-kvs_r7dbJsHvGyj0ayk64ZZ8Zz12XeaWo1hfcHrTlEO9eovfxqiF5JXyM1hF1qJXnpUakwXFEEBcyiN-HpHBTuGPROkcr5IhnV2tTpswDBnxt_9GSPB_ukQuhYwcf6HGuykwsF2W-Nhu1c-PHNDVGtYlI0cJ0ErIZSLEySwzdYbFITO3z526JAxrIlnj0jTlmAqmH-K14jrUQzfVOoUPIY1lZ0cwH5BGMODUQtLAM5Md8GjFJWq375xkfYSgRa72HhhbT-LRPk35YVWAwsAgjMxzH0xb7bqO6ZV0xVbAdi2XaLOlKXekOp7E-whi8sFsp_0x6FQvTmMSvrpLzo3ENUoc3JDqK3R1lB8hfq6W9qe9dLtDxHWk7XUE6nkRt6CK3VXPZCSgSdoo-9JYvzCPZrnJBgX5S3Tr6d0VWAz1-g5s8R1Y0kGrS1geFNuUW-sbiO4Pr_q7m00?></g></svg>