<svg xmlns="http://www.w3.org/2000/svg" xmlns:xlink="http://www.w3.org/1999/xlink" contentStyleType="text/css" data-diagram-type="CLASS" height="457px" preserveAspectRatio="none" style="width:1470px;height:457px;background:#FFFFFF;" version="1.1" viewBox="0 0 1470 457" width="1470px" zoomAndPan="magnify"><?plantuml 1.2026.3?><defs/><g><g class="title" data-source-line="1"><text fill="#000000" font-family="sans-serif" font-size="14" font-weight="700" lengthAdjust="spacing" textLength="50.5791" x="706.4009" y="24.5332">Dataset</text></g><!--class Dataset--><g class="entity" data-qualified-name="Dataset" data-source-line="12" id="ent0002"><rect fill="#FEFECE" height="279.625" rx="2.5" ry="2.5" style="stroke:#404040;stroke-width:0.5;" width="260.2197" x="560.5" y="45.6094"/><text fill="#000000" font-family="sans-serif" font-size="12" lengthAdjust="spacing" textLength="41.3555" x="669.9321" y="63.0664">Dataset</text><line style="stroke:#404040;stroke-width:0.5;" x1="561.5" x2="819.7197" y1="70.7031" y2="70.7031"/><g data-visibility-modifier="PUBLIC_FIELD"><ellipse cx="571.5" cy="85.0078" fill="none" rx="3" ry="3" style="stroke:#038048;stroke-width:1;"/></g><text fill="#000000" font-family="sans-serif" font-size="14" lengthAdjust="spacing" textLength="150.1719" x="580.5" y="89.2363">identifier : XsdAnyUri [1]</text><g data-visibility-modifier="PUBLIC_FIELD"><ellipse cx="571.5" cy="102.6172" fill="none" rx="3" ry="3" style="stroke:#038048;stroke-width:1;"/></g><text fill="#000000" font-family="sans-serif" font-size="14" lengthAdjust="spacing" textLength="100.3789" x="580.5" y="106.8457">name : string [1]</text><g data-visibility-modifier="PUBLIC_FIELD"><ellipse cx="571.5" cy="120.2266" fill="none" rx="3" ry="3" style="stroke:#038048;stroke-width:1;"/></g><text fill="#000000" font-family="sans-serif" font-size="14" lengthAdjust="spacing" textLength="148.627" x="580.5" y="124.4551">description : string [0..1]</text><g data-visibility-modifier="PUBLIC_FIELD"><ellipse cx="571.5" cy="137.8359" fill="none" rx="3" ry="3" style="stroke:#038048;stroke-width:1;"/></g><text fill="#000000" font-family="sans-serif" font-size="14" lengthAdjust="spacing" textLength="169.6475" x="580.5" y="142.0645">additionalType : string [0..*]</text><g data-visibility-modifier="PUBLIC_FIELD"><ellipse cx="571.5" cy="155.4453" fill="none" rx="3" ry="3" style="stroke:#038048;stroke-width:1;"/></g><text fill="#000000" font-family="sans-serif" font-size="14" lengthAdjust="spacing" textLength="161.0547" x="580.5" y="159.6738">sameAs : XsdAnyUri [0..*]</text><g data-visibility-modifier="PUBLIC_FIELD"><ellipse cx="571.5" cy="173.0547" fill="none" rx="3" ry="3" style="stroke:#038048;stroke-width:1;"/></g><text fill="#000000" font-family="sans-serif" font-size="14" lengthAdjust="spacing" textLength="126.0547" x="580.5" y="177.2832">version : string [0..1]</text><g data-visibility-modifier="PUBLIC_FIELD"><ellipse cx="571.5" cy="190.6641" fill="none" rx="3" ry="3" style="stroke:#038048;stroke-width:1;"/></g><text fill="#000000" font-family="sans-serif" font-size="14" lengthAdjust="spacing" textLength="206.2881" x="580.5" y="194.8926">inLanguage : XsdLanguage [0..1]</text><g data-visibility-modifier="PUBLIC_FIELD"><ellipse cx="571.5" cy="208.2734" fill="none" rx="3" ry="3" style="stroke:#038048;stroke-width:1;"/></g><text fill="#000000" font-family="sans-serif" font-size="14" lengthAdjust="spacing" textLength="164.9854" x="580.5" y="212.502">dateModified : XsdDate [1]</text><g data-visibility-modifier="PUBLIC_FIELD"><ellipse cx="571.5" cy="225.8828" fill="none" rx="3" ry="3" style="stroke:#038048;stroke-width:1;"/></g><text fill="#000000" font-family="sans-serif" font-size="14" lengthAdjust="spacing" textLength="189.123" x="580.5" y="230.1113">datePublished : XsdDate [0..1]</text><g data-visibility-modifier="PUBLIC_FIELD"><ellipse cx="571.5" cy="243.4922" fill="none" rx="3" ry="3" style="stroke:#038048;stroke-width:1;"/></g><text fill="#000000" font-family="sans-serif" font-size="14" lengthAdjust="spacing" textLength="128.3789" x="580.5" y="247.7207">url : XsdAnyUri [0..1]</text><g data-visibility-modifier="PUBLIC_FIELD"><ellipse cx="571.5" cy="261.1016" fill="none" rx="3" ry="3" style="stroke:#038048;stroke-width:1;"/></g><text fill="#000000" font-family="sans-serif" font-size="14" lengthAdjust="spacing" textLength="154.0615" x="580.5" y="265.3301">license : XsdAnyUri [0..*]</text><g data-visibility-modifier="PUBLIC_FIELD"><ellipse cx="571.5" cy="278.7109" fill="none" rx="3" ry="3" style="stroke:#038048;stroke-width:1;"/></g><text fill="#000000" font-family="sans-serif" font-size="14" lengthAdjust="spacing" textLength="201.5303" x="580.5" y="282.9395">conditionsOfAccess : string [0..*]</text><g data-visibility-modifier="PUBLIC_FIELD"><ellipse cx="571.5" cy="296.3203" fill="none" rx="3" ry="3" style="stroke:#038048;stroke-width:1;"/></g><text fill="#000000" font-family="sans-serif" font-size="14" lengthAdjust="spacing" textLength="234.2197" x="580.5" y="300.5488">publishingPrinciples : XsdAnyUri [0..*]</text><g data-visibility-modifier="PUBLIC_FIELD"><ellipse cx="571.5" cy="313.9297" fill="none" rx="3" ry="3" style="stroke:#038048;stroke-width:1;"/></g><text fill="#000000" font-family="sans-serif" font-size="14" lengthAdjust="spacing" textLength="137.7168" x="580.5" y="318.1582">keywords : string [0..*]</text></g><!--class DataDownload--><g class="entity" data-qualified-name="DataDownload" data-source-line="28" id="ent0003"><rect fill="#EEEEEE" height="25.0938" rx="2.5" ry="2.5" style="stroke:#404040;stroke-width:0.5;" width="84.7148" x="7" y="411.1094"/><text fill="#000000" font-family="sans-serif" font-size="12" lengthAdjust="spacing" textLength="78.7148" x="10" y="428.5664">DataDownload</text></g><!--class WebAPI--><g class="entity" data-qualified-name="WebAPI" data-source-line="30" id="ent0005"><rect fill="#EEEEEE" height="25.0938" rx="2.5" ry="2.5" style="stroke:#404040;stroke-width:0.5;" width="50.0156" x="128.5" y="411.1094"/><text fill="#000000" font-family="sans-serif" font-size="12" lengthAdjust="spacing" textLength="44.0156" x="131.5" y="428.5664">WebAPI</text></g><!--class Agent--><g class="entity" data-qualified-name="Agent" data-source-line="32" id="ent0007"><rect fill="#EEEEEE" height="25.0938" rx="2.5" ry="2.5" style="stroke:#404040;stroke-width:0.5;" width="37.3594" x="280" y="411.1094"/><text fill="#000000" font-family="sans-serif" font-size="12" font-style="italic" lengthAdjust="spacing" textLength="31.3594" x="283" y="428.5664">Agent</text></g><!--class Contributor--><g class="entity" data-qualified-name="Contributor" data-source-line="34" id="ent0009"><rect fill="#EEEEEE" height="25.0938" rx="2.5" ry="2.5" style="stroke:#404040;stroke-width:0.5;" width="65.3613" x="393" y="411.1094"/><text fill="#000000" font-family="sans-serif" font-size="12" lengthAdjust="spacing" textLength="59.3613" x="396" y="428.5664">Contributor</text></g><!--class MonetaryGrant--><g class="entity" data-qualified-name="MonetaryGrant" data-source-line="37" id="ent0012"><rect fill="#EEEEEE" height="25.0938" rx="2.5" ry="2.5" style="stroke:#404040;stroke-width:0.5;" width="86.0332" x="493.5" y="411.1094"/><text fill="#000000" font-family="sans-serif" font-size="12" lengthAdjust="spacing" textLength="80.0332" x="496.5" y="428.5664">MonetaryGrant</text></g><!--class ProvActivity--><g class="entity" data-qualified-name="ProvActivity" data-source-line="39" id="ent0014"><rect fill="#EEEEEE" height="25.0938" rx="2.5" ry="2.5" style="stroke:#404040;stroke-width:0.5;" width="68.6777" x="615" y="411.1094"/><text fill="#000000" font-family="sans-serif" font-size="12" lengthAdjust="spacing" textLength="62.6777" x="618" y="428.5664">ProvActivity</text></g><!--class DerivedFrom--><g class="entity" data-qualified-name="DerivedFrom" data-source-line="41" id="ent0016"><rect fill="#EEEEEE" height="25.0938" rx="2.5" ry="2.5" style="stroke:#404040;stroke-width:0.5;" width="75.3457" x="724" y="411.1094"/><text fill="#000000" font-family="sans-serif" font-size="12" lengthAdjust="spacing" textLength="69.3457" x="727" y="428.5664">DerivedFrom</text></g><!--class CatalogRecord--><g class="entity" data-qualified-name="CatalogRecord" data-source-line="43" id="ent0018"><rect fill="#EEEEEE" height="25.0938" rx="2.5" ry="2.5" style="stroke:#404040;stroke-width:0.5;" width="86.0449" x="836.5" y="411.1094"/><text fill="#000000" font-family="sans-serif" font-size="12" lengthAdjust="spacing" textLength="80.0449" x="839.5" y="428.5664">CatalogRecord</text></g><!--class DefinedTerm--><g class="entity" data-qualified-name="DefinedTerm" data-source-line="45" id="ent0020"><rect fill="#EEEEEE" height="25.0938" rx="2.5" ry="2.5" style="stroke:#404040;stroke-width:0.5;" width="75.3574" x="958" y="411.1094"/><text fill="#000000" font-family="sans-serif" font-size="12" lengthAdjust="spacing" textLength="69.3574" x="961" y="428.5664">DefinedTerm</text></g><!--class LabeledLink--><g class="entity" data-qualified-name="LabeledLink" data-source-line="47" id="ent0022"><rect fill="#EEEEEE" height="25.0938" rx="2.5" ry="2.5" style="stroke:#404040;stroke-width:0.5;" width="70.7227" x="1068" y="411.1094"/><text fill="#000000" font-family="sans-serif" font-size="12" lengthAdjust="spacing" textLength="64.7227" x="1071" y="428.5664">LabeledLink</text></g><!--class XsdAnyUri--><g class="entity" data-qualified-name="XsdAnyUri" data-source-line="49" id="ent0024"><rect fill="#FAE5D3" height="40.1875" rx="2.5" ry="2.5" style="stroke:#404040;stroke-width:0.5;" width="65.3809" x="1174" y="403.6094"/><text fill="#000000" font-family="sans-serif" font-size="12" font-style="italic" lengthAdjust="spacing" textLength="63.3809" x="1175" y="421.0664">&#171;dataType&#187;</text><text fill="#000000" font-family="sans-serif" font-size="12" lengthAdjust="spacing" textLength="56.6836" x="1178.3486" y="436.1602">XsdAnyUri</text></g><!--class XsdLanguage--><g class="entity" data-qualified-name="XsdLanguage" data-source-line="51" id="ent0026"><rect fill="#FAE5D3" height="40.1875" rx="2.5" ry="2.5" style="stroke:#404040;stroke-width:0.5;" width="80.0684" x="1274.5" y="403.6094"/><text fill="#000000" font-family="sans-serif" font-size="12" font-style="italic" lengthAdjust="spacing" textLength="63.3809" x="1282.8438" y="421.0664">&#171;dataType&#187;</text><text fill="#000000" font-family="sans-serif" font-size="12" lengthAdjust="spacing" textLength="74.0684" x="1277.5" y="436.1602">XsdLanguage</text></g><!--class XsdDate--><g class="entity" data-qualified-name="XsdDate" data-source-line="53" id="ent0028"><rect fill="#FAE5D3" height="40.1875" rx="2.5" ry="2.5" style="stroke:#404040;stroke-width:0.5;" width="65.3809" x="1390" y="403.6094"/><text fill="#000000" font-family="sans-serif" font-size="12" font-style="italic" lengthAdjust="spacing" textLength="63.3809" x="1391" y="421.0664">&#171;dataType&#187;</text><text fill="#000000" font-family="sans-serif" font-size="12" lengthAdjust="spacing" textLength="46.0254" x="1399.6777" y="436.1602">XsdDate</text></g><!--link Dataset to DataDownload--><g class="link" data-entity-1="ent0002" data-entity-2="ent0003" data-link-type="dependency" data-source-line="29" id="lnk4"><path codeLine="29" d="M560.2,197.9094 C431.65,214.6094 234.72,255.5994 95.5,355.6094 C75.45,370.0194 63.8237,390.5913 56.8937,405.6113" fill="none" id="Dataset-to-DataDownload" style="stroke:#404040;stroke-width:1.2;"/><polygon fill="#404040" points="54.38,411.0594,61.7825,404.563,56.4747,406.5193,54.5184,401.2115,54.38,411.0594" style="stroke:#404040;stroke-width:1.2;"/><text fill="#000000" font-family="sans-serif" font-size="13" lengthAdjust="spacing" textLength="62.8672" x="96.5" y="370.1045">distribution</text><text fill="#000000" font-family="sans-serif" font-size="13" lengthAdjust="spacing" textLength="19.5127" x="33.6388" y="400.1308">0..*</text></g><!--link Dataset to WebAPI--><g class="link" data-entity-1="ent0002" data-entity-2="ent0005" data-link-type="dependency" data-source-line="31" id="lnk6"><path codeLine="31" d="M560.34,198.6694 C446.47,215.7194 283.46,256.7994 179.5,355.6094 C163.76,370.5694 158.3906,390.22 155.9306,405.07" fill="none" id="Dataset-to-WebAPI" style="stroke:#404040;stroke-width:1.2;"/><polygon fill="#404040" points="154.95,410.9894,160.3671,402.7641,155.7671,406.0566,152.4746,401.4567,154.95,410.9894" style="stroke:#404040;stroke-width:1.2;"/><text fill="#000000" font-family="sans-serif" font-size="13" lengthAdjust="spacing" textLength="62.8672" x="180.5" y="370.1045">distribution</text><text fill="#000000" font-family="sans-serif" font-size="13" lengthAdjust="spacing" textLength="19.5127" x="132.7319" y="400.0319">0..*</text></g><!--link Dataset to Agent--><g class="link" data-entity-1="ent0002" data-entity-2="ent0007" data-link-type="dependency" data-source-line="33" id="lnk8"><path codeLine="33" d="M560.46,198.3694 C458.42,215.2094 322.62,256.1494 254.5,355.6094 C241.37,374.7794 259.3439,393.7786 276.7339,407.2286" fill="none" id="Dataset-to-Agent" style="stroke:#404040;stroke-width:1.2;"/><polygon fill="#404040" points="281.48,410.8994,276.8081,402.2291,277.5249,407.8404,271.9137,408.5573,281.48,410.8994" style="stroke:#404040;stroke-width:1.2;"/><text fill="#000000" font-family="sans-serif" font-size="13" lengthAdjust="spacing" textLength="40.46" x="255.5" y="370.1045">creator</text><text fill="#000000" font-family="sans-serif" font-size="13" lengthAdjust="spacing" textLength="19.5127" x="252.3985" y="400.548">0..*</text></g><!--link Dataset to Agent--><g class="link" data-entity-1="ent0002" data-entity-2="ent0007" data-link-type="dependency" data-source-line="36" id="lnk11"><path codeLine="36" d="M560.29,262.9294 C511.57,291.7194 455.85,324.9194 405.5,355.6094 C374.06,374.7694 342.8671,394.4262 321.6571,407.8762" fill="none" id="Dataset-to-Agent-1" style="stroke:#404040;stroke-width:1.2;"/><polygon fill="#404040" points="316.59,411.0894,326.3328,409.6476,320.8126,408.4117,322.0485,402.8915,316.59,411.0894" style="stroke:#404040;stroke-width:1.2;"/><text fill="#000000" font-family="sans-serif" font-size="13" lengthAdjust="spacing" textLength="52.7554" x="406.5" y="370.1045">publisher</text><text fill="#000000" font-family="sans-serif" font-size="13" lengthAdjust="spacing" textLength="21.6836" x="298.7877" y="400.1732">0..1</text></g><!--link Dataset to Contributor--><g class="link" data-entity-1="ent0002" data-entity-2="ent0009" data-link-type="dependency" data-source-line="35" id="lnk10"><path codeLine="35" d="M560.26,288.0794 C534.49,309.6394 508.13,332.7994 484.5,355.6094 C465.77,373.6994 449.9955,392.2442 438.7655,406.0542" fill="none" id="Dataset-to-Contributor" style="stroke:#404040;stroke-width:1.2;"/><polygon fill="#404040" points="434.98,410.7094,443.7616,406.2503,438.1345,406.8301,437.5548,401.203,434.98,410.7094" style="stroke:#404040;stroke-width:1.2;"/><text fill="#000000" font-family="sans-serif" font-size="13" lengthAdjust="spacing" textLength="61.4199" x="485.5" y="370.1045">contributor</text><text fill="#000000" font-family="sans-serif" font-size="13" lengthAdjust="spacing" textLength="19.5127" x="416.0012" y="400.2855">0..*</text></g><!--link Dataset to MonetaryGrant--><g class="link" data-entity-1="ent0002" data-entity-2="ent0012" data-link-type="dependency" data-source-line="38" id="lnk13"><path codeLine="38" d="M582.62,325.9394 C576.23,335.8094 570.12,345.7494 564.5,355.6094 C554.01,374.0094 547.2127,391.4464 542.4127,405.1564" fill="none" id="Dataset-to-MonetaryGrant" style="stroke:#404040;stroke-width:1.2;"/><polygon fill="#404040" points="540.43,410.8194,547.1793,403.6467,542.0822,406.1002,539.6287,401.0032,540.43,410.8194" style="stroke:#404040;stroke-width:1.2;"/><text fill="#000000" font-family="sans-serif" font-size="13" lengthAdjust="spacing" textLength="42.6499" x="565.5" y="370.1045">funding</text><text fill="#000000" font-family="sans-serif" font-size="13" lengthAdjust="spacing" textLength="19.5127" x="519.3312" y="400.1792">0..*</text></g><!--link Dataset to ProvActivity--><g class="link" data-entity-1="ent0002" data-entity-2="ent0014" data-link-type="dependency" data-source-line="40" id="lnk15"><path codeLine="40" d="M625.25,325.8194 C622.18,335.7594 619.54,345.7494 617.5,355.6094 C615.88,363.4394 615.22,365.9394 617.5,373.6094 C621.67,387.6294 627.4955,396.7235 635.0955,406.0735" fill="none" id="Dataset-to-ProvActivity" style="stroke:#404040;stroke-width:1.2;"/><polygon fill="#404040" points="638.88,410.7294,636.3072,401.2225,635.7263,406.8494,630.0993,406.2685,638.88,410.7294" style="stroke:#404040;stroke-width:1.2;"/><text fill="#000000" font-family="sans-serif" font-size="13" lengthAdjust="spacing" textLength="99.7217" x="618.5" y="370.1045">wasGeneratedBy</text><text fill="#000000" font-family="sans-serif" font-size="13" lengthAdjust="spacing" textLength="19.5127" x="612.3684" y="400.3131">0..*</text></g><!--link Dataset to DerivedFrom--><g class="link" data-entity-1="ent0002" data-entity-2="ent0016" data-link-type="dependency" data-source-line="42" id="lnk17"><path codeLine="42" d="M732.42,325.9394 C743.1,361.4694 751.2624,388.5735 756.2924,405.3035" fill="none" id="Dataset-to-DerivedFrom" style="stroke:#404040;stroke-width:1.2;"/><polygon fill="#404040" points="758.02,411.0494,759.2593,401.2788,756.5804,406.2611,751.5981,403.5822,758.02,411.0494" style="stroke:#404040;stroke-width:1.2;"/><text fill="#000000" font-family="sans-serif" font-size="13" lengthAdjust="spacing" textLength="98.2427" x="747.5" y="370.1045">wasDerivedFrom</text><text fill="#000000" font-family="sans-serif" font-size="13" lengthAdjust="spacing" textLength="19.5127" x="733.7002" y="400.1167">0..*</text></g><!--link Dataset to CatalogRecord--><g class="link" data-entity-1="ent0002" data-entity-2="ent0018" data-link-type="dependency" data-source-line="44" id="lnk19"><path codeLine="44" d="M820.64,309.5994 C832.97,324.4094 844.56,339.8894 854.5,355.6094 C865.78,373.4494 871.5771,391.3358 875.2271,405.2458" fill="none" id="Dataset-to-CatalogRecord" style="stroke:#404040;stroke-width:1.2;"/><polygon fill="#404040" points="876.75,411.0494,878.3347,401.3289,875.481,406.2131,870.5967,403.3593,876.75,411.0494" style="stroke:#404040;stroke-width:1.2;"/><text fill="#000000" font-family="sans-serif" font-size="13" lengthAdjust="spacing" textLength="54.9136" x="865.5" y="370.1045">subjectOf</text><text fill="#000000" font-family="sans-serif" font-size="13" lengthAdjust="spacing" textLength="7.23" x="867.21" y="400.1167">1</text></g><!--link Dataset to DefinedTerm--><g class="link" data-entity-1="ent0002" data-entity-2="ent0020" data-link-type="dependency" data-source-line="46" id="lnk21"><path codeLine="46" d="M820.69,273.1194 C856.54,298.5294 894.82,327.1594 928.5,355.6094 C949.61,373.4394 967.8023,392.3187 980.6123,406.2087" fill="none" id="Dataset-to-DefinedTerm" style="stroke:#404040;stroke-width:1.2;"/><polygon fill="#404040" points="984.68,410.6194,981.5189,401.2916,981.2902,406.9438,975.638,406.7152,984.68,410.6194" style="stroke:#404040;stroke-width:1.2;"/><text fill="#000000" font-family="sans-serif" font-size="13" lengthAdjust="spacing" textLength="54.9072" x="949.5" y="370.1045">keywords</text><text fill="#000000" font-family="sans-serif" font-size="13" lengthAdjust="spacing" textLength="19.5127" x="957.9626" y="400.1612">0..*</text></g><!--link Dataset to LabeledLink--><g class="link" data-entity-1="ent0002" data-entity-2="ent0022" data-link-type="dependency" data-source-line="48" id="lnk23"><path codeLine="48" d="M820.7,249.2894 C880.34,279.4194 951.21,317.2694 1012.5,355.6094 C1040.78,373.2994 1066.9351,393.3033 1084.4651,407.2533" fill="none" id="Dataset-to-LabeledLink" style="stroke:#404040;stroke-width:1.2;"/><polygon fill="#404040" points="1089.16,410.9894,1084.6084,402.2554,1085.2476,407.876,1079.627,408.5152,1089.16,410.9894" style="stroke:#404040;stroke-width:1.2;"/><text fill="#000000" font-family="sans-serif" font-size="13" lengthAdjust="spacing" textLength="40.4663" x="1039.5" y="370.1045">license</text><text fill="#000000" font-family="sans-serif" font-size="13" lengthAdjust="spacing" textLength="19.5127" x="1060.4889" y="400.0319">0..*</text></g><!--link Dataset to XsdAnyUri--><g class="link" data-entity-1="ent0002" data-entity-2="ent0024" data-link-type="dependency" data-source-line="50" id="lnk25"><path codeLine="50" d="M820.8,237.5294 C899.35,269.2994 1000.84,312.2894 1088.5,355.6094 C1118.49,370.4294 1146.3658,386.3479 1169.8258,400.3279" fill="none" id="Dataset-to-XsdAnyUri" style="stroke:#404040;stroke-width:1.2;stroke-dasharray:7,7;"/><polygon fill="#404040" points="1174.98,403.3994,1169.2963,395.356,1170.6848,400.8398,1165.201,402.2284,1174.98,403.3994" style="stroke:#404040;stroke-width:1.2;"/><text fill="#000000" font-family="sans-serif" font-size="13" lengthAdjust="spacing" textLength="49.1372" x="1123.5" y="370.1045">identifier</text></g><!--link Dataset to XsdLanguage--><g class="link" data-entity-1="ent0002" data-entity-2="ent0026" data-link-type="dependency" data-source-line="52" id="lnk27"><path codeLine="52" d="M820.74,226.1394 C920.75,257.7494 1061.57,305.0394 1181.5,355.6094 C1215.69,370.0294 1248.051,386.4962 1274.541,400.6862" fill="none" id="Dataset-to-XsdLanguage" style="stroke:#404040;stroke-width:1.2;stroke-dasharray:7,7;"/><polygon fill="#404040" points="1279.83,403.5194,1273.7853,395.7437,1275.4225,401.1584,1270.0078,402.7956,1279.83,403.5194" style="stroke:#404040;stroke-width:1.2;"/><text fill="#000000" font-family="sans-serif" font-size="13" lengthAdjust="spacing" textLength="67.958" x="1220.5" y="370.1045">inLanguage</text></g><!--link Dataset to XsdDate--><g class="link" data-entity-1="ent0002" data-entity-2="ent0028" data-link-type="dependency" data-source-line="54" id="lnk29"><path codeLine="54" d="M820.55,214.2594 C945.12,242.7294 1137.15,291.8994 1296.5,355.6094 C1330.09,369.0394 1361.1737,385.9053 1386.1337,400.5353" fill="none" id="Dataset-to-XsdDate" style="stroke:#404040;stroke-width:1.2;stroke-dasharray:7,7;"/><polygon fill="#404040" points="1391.31,403.5694,1385.5682,395.5674,1386.9964,401.041,1381.5228,402.4692,1391.31,403.5694" style="stroke:#404040;stroke-width:1.2;"/><text fill="#000000" font-family="sans-serif" font-size="13" lengthAdjust="spacing" textLength="74.439" x="1336.5" y="370.1045">dateModified</text></g><?plantuml-src ZPJVRziW4CVV_LUWv6rJewRRNgmgafiVrQHMZRPCcpJj0SCvOI4G0KdaJVtVYy7Ok6ci9Y_StPSFX-yummm7DCC6Qp39Xb50X2d2mQzXjpSbsi4k1wKJlMLYZnNU8Rt1L9wOMAC2SmrH95DAdbORHhO2j4RZqKqK91nRt_y4UTbKSgdGyFDrzRVEEwaegDVUXHJcE_i7Q7oJF2U9Pmpgb0S8wv0-6YxcY_bqxWxuQDCNXXKC54hHBqqpKVvG3FqU_wcY0k_0-hLHrILg9mLD5DiR9aKKknwDV1XJogeOvgjo3rt51wVGbfhfxdbDy6W_uGKo4mzOh0zu3NvlOxKIYWqyIbfTY7gHlJKqcTlryf1pfZVTSBF_eFXPNZx26G6XuKBMH0f_Q_rKP8HKDNtZudj_jdKkROImFOTBds4BvSdM-Hpp79Ts9a-2IqoR-WO76ixTBmb5lxgQe45567HrAQAiEY0_LDa7za_8i-LNH_NBFbwjU4N2kJKmCNKt3xArRJH7TAi-e1UaY2Z0HggGrDHskCDBvJYHtKUBPPRPMcVYSNjqNIbe3d-K0WnMvRt2zJKwdhu4ki8K5GVRAs8To4ibZnanxCXCwS2neu_RqQNeXFKz252seUbTsNG9A7O4kb1ovvkajNjx998vTEHewc6tSRd-1iGsggz8x7aRRxznLsNx-v3_1MAUYZRdWWcWAr0XvyRkpxcLfIWye01zm3bme0zCR1qqilkWiIn5zH08pERXEcBxZ6zlxQJ1rVYRJEoupUPVPfyQ-6WqYQGfQYTmX0sZBO2RKVSUT3Gbsv4PmQkP5y1k_hq7weJsZKS3Dda1?></g></svg>