<svg xmlns="http://www.w3.org/2000/svg" xmlns:xlink="http://www.w3.org/1999/xlink" contentStyleType="text/css" data-diagram-type="CLASS" height="478px" preserveAspectRatio="none" style="width:1511px;height:478px;background:#FFFFFF;" version="1.1" viewBox="0 0 1511 478" width="1511px" zoomAndPan="magnify"><?plantuml 1.2026.3?><defs/><g><g class="title" data-source-line="1"><text fill="#000000" font-family="sans-serif" font-size="14" font-weight="700" lengthAdjust="spacing" textLength="111.2754" x="696.8223" y="24.5332">InstanceVariable</text></g><!--class InstanceVariable--><g class="entity" data-qualified-name="InstanceVariable" data-source-line="12" id="ent0002"><rect fill="#FEFECE" height="209.1875" rx="2.5" ry="2.5" style="stroke:#404040;stroke-width:0.5;" width="279.6816" x="763.5" y="148.6094"/><text fill="#000000" font-family="sans-serif" font-size="12" lengthAdjust="spacing" textLength="89.3906" x="858.6455" y="166.0664">InstanceVariable</text><line style="stroke:#404040;stroke-width:0.5;" x1="764.5" x2="1042.1816" y1="173.7031" y2="173.7031"/><g data-visibility-modifier="PUBLIC_FIELD"><ellipse cx="774.5" cy="188.0078" fill="none" rx="3" ry="3" style="stroke:#038048;stroke-width:1;"/></g><text fill="#000000" font-family="sans-serif" font-size="14" lengthAdjust="spacing" textLength="100.3789" x="783.5" y="192.2363">name : string [1]</text><g data-visibility-modifier="PUBLIC_FIELD"><ellipse cx="774.5" cy="205.6172" fill="none" rx="3" ry="3" style="stroke:#038048;stroke-width:1;"/></g><text fill="#000000" font-family="sans-serif" font-size="14" lengthAdjust="spacing" textLength="121.3994" x="783.5" y="209.8457">definition : string [1]</text><g data-visibility-modifier="PUBLIC_FIELD"><ellipse cx="774.5" cy="223.2266" fill="none" rx="3" ry="3" style="stroke:#038048;stroke-width:1;"/></g><text fill="#000000" font-family="sans-serif" font-size="14" lengthAdjust="spacing" textLength="253.6816" x="783.5" y="227.4551">describedUnitOfMeasure : Concept [0..1]</text><g data-visibility-modifier="PUBLIC_FIELD"><ellipse cx="774.5" cy="240.8359" fill="none" rx="3" ry="3" style="stroke:#038048;stroke-width:1;"/></g><text fill="#000000" font-family="sans-serif" font-size="14" lengthAdjust="spacing" textLength="218.6748" x="783.5" y="245.0645">unitOfMeasureKind : Concept [0..1]</text><g data-visibility-modifier="PUBLIC_FIELD"><ellipse cx="774.5" cy="258.4453" fill="none" rx="3" ry="3" style="stroke:#038048;stroke-width:1;"/></g><text fill="#000000" font-family="sans-serif" font-size="14" lengthAdjust="spacing" textLength="145.5303" x="783.5" y="262.6738">function : Concept [0..*]</text><g data-visibility-modifier="PUBLIC_FIELD"><ellipse cx="774.5" cy="276.0547" fill="none" rx="3" ry="3" style="stroke:#038048;stroke-width:1;"/></g><text fill="#000000" font-family="sans-serif" font-size="14" lengthAdjust="spacing" textLength="180.5303" x="783.5" y="280.2832">platformType : Concept [0..1]</text><g data-visibility-modifier="PUBLIC_FIELD"><ellipse cx="774.5" cy="293.6641" fill="none" rx="3" ry="3" style="stroke:#038048;stroke-width:1;"/></g><text fill="#000000" font-family="sans-serif" font-size="14" lengthAdjust="spacing" textLength="122.9443" x="783.5" y="297.8926">source : string [0..1]</text><g data-visibility-modifier="PUBLIC_FIELD"><ellipse cx="774.5" cy="311.2734" fill="none" rx="3" ry="3" style="stroke:#038048;stroke-width:1;"/></g><text fill="#000000" font-family="sans-serif" font-size="14" lengthAdjust="spacing" textLength="236.5986" x="783.5" y="315.502">hasIntendedDataType : Concept [0..1]</text><g data-visibility-modifier="PUBLIC_FIELD"><ellipse cx="774.5" cy="328.8828" fill="none" rx="3" ry="3" style="stroke:#038048;stroke-width:1;"/></g><text fill="#000000" font-family="sans-serif" font-size="14" lengthAdjust="spacing" textLength="215.5234" x="783.5" y="333.1113">simpleUnitOfMeasure : string [0..1]</text><g data-visibility-modifier="PUBLIC_FIELD"><ellipse cx="774.5" cy="346.4922" fill="none" rx="3" ry="3" style="stroke:#038048;stroke-width:1;"/></g><text fill="#000000" font-family="sans-serif" font-size="14" lengthAdjust="spacing" textLength="126.0684" x="783.5" y="350.7207">uses : Concept [0..*]</text></g><!--class AbstractVariable--><g class="entity" data-qualified-name="AbstractVariable" data-source-line="24" id="ent0003"><rect fill="#D6EAF8" height="25.0938" rx="2.5" ry="2.5" style="stroke:#404040;stroke-width:0.5;" width="94.043" x="476.5" y="45.6094"/><text fill="#000000" font-family="sans-serif" font-size="12" font-style="italic" lengthAdjust="spacing" textLength="88.043" x="479.5" y="63.0664">AbstractVariable</text></g><!--class StatisticsCollection--><g class="entity" data-qualified-name="StatisticsCollection" data-source-line="26" id="ent0005"><rect fill="#EEEEEE" height="25.0938" rx="2.5" ry="2.5" style="stroke:#404040;stroke-width:0.5;" width="106.7051" x="1330" y="435.6094"/><text fill="#000000" font-family="sans-serif" font-size="12" lengthAdjust="spacing" textLength="100.7051" x="1333" y="453.0664">StatisticsCollection</text></g><!--class SubstantiveValueDomain--><g class="entity" data-qualified-name="SubstantiveValueDomain" data-source-line="29" id="ent0008"><rect fill="#EEEEEE" height="25.0938" rx="2.5" ry="2.5" style="stroke:#404040;stroke-width:0.5;" width="140.748" x="7" y="435.6094"/><text fill="#000000" font-family="sans-serif" font-size="12" lengthAdjust="spacing" textLength="134.748" x="10" y="453.0664">SubstantiveValueDomain</text></g><!--class SentinelValueDomain--><g class="entity" data-qualified-name="SentinelValueDomain" data-source-line="31" id="ent0010"><rect fill="#EEEEEE" height="25.0938" rx="2.5" ry="2.5" style="stroke:#404040;stroke-width:0.5;" width="121.4063" x="228" y="435.6094"/><text fill="#000000" font-family="sans-serif" font-size="12" lengthAdjust="spacing" textLength="115.4063" x="231" y="453.0664">SentinelValueDomain</text></g><!--class VariableMeasured--><g class="entity" data-qualified-name="VariableMeasured" data-source-line="33" id="ent0012"><rect fill="#EEEEEE" height="25.0938" rx="2.5" ry="2.5" style="stroke:#404040;stroke-width:0.5;" width="103.3887" x="606" y="45.6094"/><text fill="#000000" font-family="sans-serif" font-size="12" lengthAdjust="spacing" textLength="97.3887" x="609" y="63.0664">VariableMeasured</text></g><!--class Statistics--><g class="entity" data-qualified-name="Statistics" data-source-line="35" id="ent0014"><rect fill="#EEEEEE" height="25.0938" rx="2.5" ry="2.5" style="stroke:#404040;stroke-width:0.5;" width="54.0117" x="763.5" y="45.6094"/><text fill="#000000" font-family="sans-serif" font-size="12" lengthAdjust="spacing" textLength="48.0117" x="766.5" y="63.0664">Statistics</text></g><!--class CategoryStatistics--><g class="entity" data-qualified-name="CategoryStatistics" data-source-line="38" id="ent0017"><rect fill="#EEEEEE" height="25.0938" rx="2.5" ry="2.5" style="stroke:#404040;stroke-width:0.5;" width="102.7031" x="872" y="45.6094"/><text fill="#000000" font-family="sans-serif" font-size="12" lengthAdjust="spacing" textLength="96.7031" x="875" y="63.0664">CategoryStatistics</text></g><!--class PhysicalMapping--><g class="entity" data-qualified-name="PhysicalMapping" data-source-line="42" id="ent0021"><rect fill="#EEEEEE" height="25.0938" rx="2.5" ry="2.5" style="stroke:#404040;stroke-width:0.5;" width="96.7148" x="1010" y="45.6094"/><text fill="#000000" font-family="sans-serif" font-size="12" lengthAdjust="spacing" textLength="90.7148" x="1013" y="63.0664">PhysicalMapping</text></g><!--class TextMapping--><g class="entity" data-qualified-name="TextMapping" data-source-line="44" id="ent0023"><rect fill="#EEEEEE" height="25.0938" rx="2.5" ry="2.5" style="stroke:#404040;stroke-width:0.5;" width="75.3691" x="1142" y="45.6094"/><text fill="#000000" font-family="sans-serif" font-size="12" lengthAdjust="spacing" textLength="69.3691" x="1145" y="63.0664">TextMapping</text></g><!--class LocatorMapping--><g class="entity" data-qualified-name="LocatorMapping" data-source-line="46" id="ent0025"><rect fill="#EEEEEE" height="25.0938" rx="2.5" ry="2.5" style="stroke:#404040;stroke-width:0.5;" width="92.0566" x="1252.5" y="45.6094"/><text fill="#000000" font-family="sans-serif" font-size="12" lengthAdjust="spacing" textLength="86.0566" x="1255.5" y="63.0664">LocatorMapping</text></g><!--class Concept--><g class="entity" data-qualified-name="Concept" data-source-line="48" id="ent0027"><rect fill="#EEEEEE" height="25.0938" rx="2.5" ry="2.5" style="stroke:#404040;stroke-width:0.5;" width="50.6953" x="834" y="435.6094"/><text fill="#000000" font-family="sans-serif" font-size="12" lengthAdjust="spacing" textLength="44.6953" x="837" y="453.0664">Concept</text></g><!--reverse link AbstractVariable to InstanceVariable--><g class="link" data-entity-1="ent0003" data-entity-2="ent0002" data-link-type="extension" data-source-line="25" id="lnk4"><path codeLine="25" d="M562.4601,78.8976 C604.8301,100.4076 682.39,139.8094 763.14,180.8194" fill="none" id="AbstractVariable-backto-InstanceVariable" style="stroke:#404040;stroke-width:1.2;"/><polygon fill="none" points="546.41,70.7494,559.7441,84.2476,565.1762,73.5475,546.41,70.7494" style="stroke:#404040;stroke-width:1.2;"/></g><!--link InstanceVariable to StatisticsCollection--><g class="link" data-entity-1="ent0002" data-entity-2="ent0005" data-link-type="dependency" data-source-line="27" id="lnk6"><path codeLine="27" d="M1043.58,317.9494 C1107.63,346.2194 1184.83,379.0094 1255.5,405.6094 C1285.13,416.7594 1313.515,425.9658 1339.075,433.8258" fill="none" id="InstanceVariable-to-StatisticsCollection" style="stroke:#404040;stroke-width:1.2;"/><polygon fill="#404040" points="1344.81,435.5894,1337.3833,429.1207,1340.0309,434.1197,1335.0318,436.7673,1344.81,435.5894" style="stroke:#404040;stroke-width:1.2;"/><text fill="#000000" font-family="sans-serif" font-size="13" lengthAdjust="spacing" textLength="83.0845" x="1256.5" y="402.1045">isDescribedBy</text><text fill="#000000" font-family="sans-serif" font-size="13" lengthAdjust="spacing" textLength="21.6836" x="1303.7209" y="424.6732">0..1</text></g><!--link StatisticsCollection to InstanceVariable--><g class="link" data-entity-1="ent0005" data-entity-2="ent0002" data-link-type="dependency" data-source-line="40" id="lnk19"><path codeLine="40" d="M1378.73,435.2594 C1372.72,421.7794 1361.12,400.0394 1344.5,387.6094 C1256.67,321.8994 1142.3011,289.3641 1049.5411,272.3141" fill="none" id="StatisticsCollection-to-InstanceVariable" style="stroke:#404040;stroke-width:1.2;"/><polygon fill="#404040" points="1043.64,271.2294,1051.7686,276.7905,1048.5576,272.1333,1053.2148,268.9223,1043.64,271.2294" style="stroke:#404040;stroke-width:1.2;"/><text fill="#000000" font-family="sans-serif" font-size="13" lengthAdjust="spacing" textLength="60.709" x="1361.5" y="402.1045">indexedBy</text><text fill="#000000" font-family="sans-serif" font-size="13" lengthAdjust="spacing" textLength="19.5127" x="1051.3772" y="269.2505">1..*</text></g><!--link StatisticsCollection to InstanceVariable--><g class="link" data-entity-1="ent0005" data-entity-2="ent0002" data-link-type="dependency" data-source-line="41" id="lnk20"><path codeLine="41" d="M1403.49,435.5194 C1421.57,423.5594 1443.52,404.3394 1430.5,387.6094 C1383.33,326.9994 1189.0836,290.3204 1049.5036,271.0404" fill="none" id="StatisticsCollection-to-InstanceVariable-1" style="stroke:#404040;stroke-width:1.2;"/><polygon fill="#404040" points="1043.56,270.2194,1051.928,275.4132,1048.513,270.9035,1053.0227,267.4885,1043.56,270.2194" style="stroke:#404040;stroke-width:1.2;"/><text fill="#000000" font-family="sans-serif" font-size="13" lengthAdjust="spacing" textLength="61.4199" x="1434.5" y="402.1045">hasWeight</text><text fill="#000000" font-family="sans-serif" font-size="13" lengthAdjust="spacing" textLength="21.6836" x="1051.3491" y="285.0135">0..1</text></g><!--link InstanceVariable to InstanceVariable--><g class="link" data-entity-1="ent0002" data-entity-2="ent0002" data-link-type="dependency" data-source-line="28" id="lnk7"><path codeLine="28" d="M1043.55,228.9594 C1064.4,232.7194 1078.5,240.7694 1078.5,253.1094 C1078.5,265.4494 1070.3048,272.4345 1049.4548,276.1945" fill="none" id="InstanceVariable-to-InstanceVariable" style="stroke:#404040;stroke-width:1.2;"/><polygon fill="#404040" points="1043.55,277.2594,1053.117,279.5986,1048.4706,276.372,1051.6972,271.7256,1043.55,277.2594" style="stroke:#404040;stroke-width:1.2;"/><text fill="#000000" font-family="sans-serif" font-size="13" lengthAdjust="spacing" textLength="47.6963" x="1084.5" y="258.6045">qualifies</text><text fill="#000000" font-family="sans-serif" font-size="13" lengthAdjust="spacing" textLength="21.6836" x="1051.3386" y="292.4165">0..1</text></g><!--link InstanceVariable to SubstantiveValueDomain--><g class="link" data-entity-1="ent0002" data-entity-2="ent0008" data-link-type="dependency" data-source-line="30" id="lnk9"><path codeLine="30" d="M763.13,265.4694 C567.93,283.3694 226.63,322.9294 121.5,387.6094 C102.9,399.0594 92.263,416.1627 85.423,429.9727" fill="none" id="InstanceVariable-to-SubstantiveValueDomain" style="stroke:#404040;stroke-width:1.2;"/><polygon fill="#404040" points="82.76,435.3494,90.339,429.0597,84.9792,430.8688,83.1701,425.5091,82.76,435.3494" style="stroke:#404040;stroke-width:1.2;"/><text fill="#000000" font-family="sans-serif" font-size="13" lengthAdjust="spacing" textLength="169.0825" x="122.5" y="402.1045">takesSubstantiveValuesFrom</text><text fill="#000000" font-family="sans-serif" font-size="13" lengthAdjust="spacing" textLength="21.6836" x="59.8809" y="424.721">0..1</text></g><!--link InstanceVariable to SentinelValueDomain--><g class="link" data-entity-1="ent0002" data-entity-2="ent0010" data-link-type="dependency" data-source-line="32" id="lnk11"><path codeLine="32" d="M763.18,270.9094 C610.95,291.6794 380.65,331.3094 313.5,387.6094 C299.08,399.6994 293.9475,415.6563 291.3475,429.2463" fill="none" id="InstanceVariable-to-SentinelValueDomain" style="stroke:#404040;stroke-width:1.2;"/><polygon fill="#404040" points="290.22,435.1394,295.8399,427.0513,291.1595,430.2284,287.9824,425.5481,290.22,435.1394" style="stroke:#404040;stroke-width:1.2;"/><text fill="#000000" font-family="sans-serif" font-size="13" lengthAdjust="spacing" textLength="148.1289" x="314.5" y="402.1045">takesSentinelValuesFrom</text><text fill="#000000" font-family="sans-serif" font-size="13" lengthAdjust="spacing" textLength="19.5127" x="268.2742" y="424.6888">0..*</text></g><!--link VariableMeasured to InstanceVariable--><g class="link" data-entity-1="ent0012" data-entity-2="ent0002" data-link-type="dependency" data-source-line="34" id="lnk13"><path codeLine="34" d="M660.31,70.7794 C663.9,83.6894 671.18,104.5294 683.5,118.6094 C705.85,144.1694 729.2734,163.0897 758.2534,181.5997" fill="none" id="VariableMeasured-to-InstanceVariable" style="stroke:#404040;stroke-width:1.2;"/><polygon fill="#404040" points="763.31,184.8294,757.8783,176.6138,759.0962,182.1379,753.572,183.3558,763.31,184.8294" style="stroke:#404040;stroke-width:1.2;"/><text fill="#000000" font-family="sans-serif" font-size="13" lengthAdjust="spacing" textLength="55.6372" x="684.5" y="115.1045">describes</text><text fill="#000000" font-family="sans-serif" font-size="13" lengthAdjust="spacing" textLength="21.6836" x="733.6272" y="177.9193">0..1</text></g><!--link Statistics to InstanceVariable--><g class="link" data-entity-1="ent0014" data-entity-2="ent0002" data-link-type="dependency" data-source-line="36" id="lnk15"><path codeLine="36" d="M774.19,70.7794 C760.19,82.3294 743.45,100.8294 751.5,118.6094 C756.21,129.0094 758.6416,134.0665 765.4616,143.4465" fill="none" id="Statistics-to-InstanceVariable" style="stroke:#404040;stroke-width:1.2;"/><polygon fill="#404040" points="768.99,148.2994,766.9326,138.6678,766.0497,144.2553,760.4621,143.3724,768.99,148.2994" style="stroke:#404040;stroke-width:1.2;"/><text fill="#000000" font-family="sans-serif" font-size="13" lengthAdjust="spacing" textLength="56.3672" x="752.5" y="115.1045">appliesTo</text><text fill="#000000" font-family="sans-serif" font-size="13" lengthAdjust="spacing" textLength="19.5127" x="739.8935" y="137.8683">1..*</text></g><!--link Statistics to InstanceVariable--><g class="link" data-entity-1="ent0014" data-entity-2="ent0002" data-link-type="dependency" data-source-line="37" id="lnk16"><path codeLine="37" d="M797.4,70.8894 C806.79,86.9294 821.5087,112.0714 839.8387,143.3814" fill="none" id="Statistics-to-InstanceVariable-1" style="stroke:#404040;stroke-width:1.2;"/><polygon fill="#404040" points="842.87,148.5594,841.7749,138.7716,840.3439,144.2444,834.871,142.8134,842.87,148.5594" style="stroke:#404040;stroke-width:1.2;"/><text fill="#000000" font-family="sans-serif" font-size="13" lengthAdjust="spacing" textLength="61.4199" x="824.5" y="115.1045">hasWeight</text><text fill="#000000" font-family="sans-serif" font-size="13" lengthAdjust="spacing" textLength="21.6836" x="816.6832" y="137.7951">0..1</text></g><!--link CategoryStatistics to InstanceVariable--><g class="link" data-entity-1="ent0017" data-entity-2="ent0002" data-link-type="dependency" data-source-line="39" id="lnk18"><path codeLine="39" d="M922.28,70.8894 C920.62,86.9294 918.0995,111.2814 914.8495,142.5914" fill="none" id="CategoryStatistics-to-InstanceVariable" style="stroke:#404040;stroke-width:1.2;"/><polygon fill="#404040" points="914.23,148.5594,919.1378,140.0205,914.7462,143.5861,911.1806,139.1945,914.23,148.5594" style="stroke:#404040;stroke-width:1.2;"/><text fill="#000000" font-family="sans-serif" font-size="13" lengthAdjust="spacing" textLength="61.4199" x="919.5" y="115.1045">hasWeight</text><text fill="#000000" font-family="sans-serif" font-size="13" lengthAdjust="spacing" textLength="21.6836" x="893.2837" y="137.7951">0..1</text></g><!--link PhysicalMapping to InstanceVariable--><g class="link" data-entity-1="ent0021" data-entity-2="ent0002" data-link-type="dependency" data-source-line="43" id="lnk22"><path codeLine="43" d="M1049.04,70.8894 C1036.15,86.9294 1015.5675,112.5716 990.4175,143.8816" fill="none" id="PhysicalMapping-to-InstanceVariable" style="stroke:#404040;stroke-width:1.2;"/><polygon fill="#404040" points="986.66,148.5594,995.4147,144.0477,989.7912,144.6612,989.1777,139.0378,986.66,148.5594" style="stroke:#404040;stroke-width:1.2;"/><text fill="#000000" font-family="sans-serif" font-size="13" lengthAdjust="spacing" textLength="43.3418" x="1025.5" y="115.1045">formats</text><text fill="#000000" font-family="sans-serif" font-size="13" lengthAdjust="spacing" textLength="7.23" x="985.5302" y="137.7951">1</text></g><!--link TextMapping to InstanceVariable--><g class="link" data-entity-1="ent0023" data-entity-2="ent0002" data-link-type="dependency" data-source-line="45" id="lnk24"><path codeLine="45" d="M1162.65,70.8894 C1138.36,87.8794 1096.1172,117.4212 1048.6072,150.6412" fill="none" id="TextMapping-to-InstanceVariable" style="stroke:#404040;stroke-width:1.2;"/><polygon fill="#404040" points="1043.69,154.0794,1053.3579,152.2002,1047.7877,151.2142,1048.7736,145.6439,1043.69,154.0794" style="stroke:#404040;stroke-width:1.2;"/><text fill="#000000" font-family="sans-serif" font-size="13" lengthAdjust="spacing" textLength="43.3418" x="1120.5" y="115.1045">formats</text><text fill="#000000" font-family="sans-serif" font-size="13" lengthAdjust="spacing" textLength="7.23" x="1051.1132" y="146.06">1</text></g><!--link LocatorMapping to InstanceVariable--><g class="link" data-entity-1="ent0025" data-entity-2="ent0002" data-link-type="dependency" data-source-line="47" id="lnk26"><path codeLine="47" d="M1274.68,70.7494 C1229.65,92.7494 1134.2808,139.3451 1049.0908,180.9751" fill="none" id="LocatorMapping-to-InstanceVariable" style="stroke:#404040;stroke-width:1.2;"/><polygon fill="#404040" points="1043.7,183.6094,1053.5424,183.2517,1048.1923,181.4141,1050.0299,176.0641,1043.7,183.6094" style="stroke:#404040;stroke-width:1.2;"/><text fill="#000000" font-family="sans-serif" font-size="13" lengthAdjust="spacing" textLength="43.3418" x="1213.5" y="115.1045">formats</text><text fill="#000000" font-family="sans-serif" font-size="13" lengthAdjust="spacing" textLength="7.23" x="1051.1237" y="177.1126">1</text></g><!--link InstanceVariable to Concept--><g class="link" data-entity-1="ent0002" data-entity-2="ent0027" data-link-type="dependency" data-source-line="49" id="lnk28"><path codeLine="49" d="M763.3,279.3394 C652.27,302.5194 510.24,340.3894 475.5,387.6094 C431.93,446.8394 735.0303,448.395 827.7503,447.535" fill="none" id="InstanceVariable-to-Concept" style="stroke:#404040;stroke-width:1.2;"/><polygon fill="#404040" points="833.75,447.4794,824.7133,443.563,828.7502,447.5257,824.7875,451.5627,833.75,447.4794" style="stroke:#404040;stroke-width:1.2;"/><text fill="#000000" font-family="sans-serif" font-size="13" lengthAdjust="spacing" textLength="143.7871" x="476.5" y="402.1045">describedUnitOfMeasure</text><text fill="#000000" font-family="sans-serif" font-size="13" lengthAdjust="spacing" textLength="21.6836" x="804.4815" y="443.0086">0..1</text></g><!--link InstanceVariable to Concept--><g class="link" data-entity-1="ent0002" data-entity-2="ent0027" data-link-type="dependency" data-source-line="50" id="lnk29"><path codeLine="50" d="M763.36,299.5594 C723.04,319.8694 683.72,348.3594 660.5,387.6094 C656.43,394.4994 655.45,399.3994 660.5,405.6094 C682.09,432.1694 779.2541,441.8976 827.9541,445.2476" fill="none" id="InstanceVariable-to-Concept-1" style="stroke:#404040;stroke-width:1.2;"/><polygon fill="#404040" points="833.94,445.6594,825.2357,441.0512,828.9518,445.3162,824.6867,449.0323,833.94,445.6594" style="stroke:#404040;stroke-width:1.2;"/><text fill="#000000" font-family="sans-serif" font-size="13" lengthAdjust="spacing" textLength="111.2808" x="661.5" y="402.1045">unitOfMeasureKind</text><text fill="#000000" font-family="sans-serif" font-size="13" lengthAdjust="spacing" textLength="21.6836" x="804.2708" y="460.5387">0..1</text></g><!--link InstanceVariable to Concept--><g class="link" data-entity-1="ent0002" data-entity-2="ent0027" data-link-type="dependency" data-source-line="51" id="lnk30"><path codeLine="51" d="M825.42,357.9494 C820.66,367.6294 816.56,377.5894 813.5,387.6094 C811.16,395.2594 810.25,398.2994 813.5,405.6094 C819.01,417.9894 825.3764,424.7257 835.3564,431.9357" fill="none" id="InstanceVariable-to-Concept-2" style="stroke:#404040;stroke-width:1.2;"/><polygon fill="#404040" points="840.22,435.4494,835.2671,426.9365,836.167,432.5213,830.5822,433.4213,840.22,435.4494" style="stroke:#404040;stroke-width:1.2;"/><text fill="#000000" font-family="sans-serif" font-size="13" lengthAdjust="spacing" textLength="45.5317" x="814.5" y="402.1045">function</text><text fill="#000000" font-family="sans-serif" font-size="13" lengthAdjust="spacing" textLength="19.5127" x="836.53" y="424.8604">0..*</text></g><!--link InstanceVariable to Concept--><g class="link" data-entity-1="ent0002" data-entity-2="ent0027" data-link-type="dependency" data-source-line="52" id="lnk31"><path codeLine="52" d="M879.89,357.6694 C872.71,389.1494 867.1034,413.7694 863.4634,429.7394" fill="none" id="InstanceVariable-to-Concept-3" style="stroke:#404040;stroke-width:1.2;"/><polygon fill="#404040" points="862.13,435.5894,868.03,427.7033,863.2411,430.7144,860.2301,425.9255,862.13,435.5894" style="stroke:#404040;stroke-width:1.2;"/><text fill="#000000" font-family="sans-serif" font-size="13" lengthAdjust="spacing" textLength="75.8608" x="873.5" y="402.1045">platformType</text><text fill="#000000" font-family="sans-serif" font-size="13" lengthAdjust="spacing" textLength="21.6836" x="867.75" y="424.6732">0..1</text></g><!--link InstanceVariable to Concept--><g class="link" data-entity-1="ent0002" data-entity-2="ent0027" data-link-type="dependency" data-source-line="53" id="lnk32"><path codeLine="53" d="M965.94,357.9894 C968.85,374.5894 967.14,391.0594 957.5,405.6094 C941.58,429.6394 914.5715,438.7069 891.2915,442.9769" fill="none" id="InstanceVariable-to-Concept-4" style="stroke:#404040;stroke-width:1.2;"/><polygon fill="#404040" points="885.39,444.0594,894.964,446.3701,890.308,443.1573,893.5207,438.5013,885.39,444.0594" style="stroke:#404040;stroke-width:1.2;"/><text fill="#000000" font-family="sans-serif" font-size="13" lengthAdjust="spacing" textLength="127.9243" x="965.5" y="402.1045">hasIntendedDataType</text><text fill="#000000" font-family="sans-serif" font-size="13" lengthAdjust="spacing" textLength="21.6836" x="892.6516" y="439.2075">0..1</text></g><!--link InstanceVariable to Concept--><g class="link" data-entity-1="ent0002" data-entity-2="ent0027" data-link-type="dependency" data-source-line="54" id="lnk33"><path codeLine="54" d="M1043.77,305.1894 C1095.43,331.7694 1134.21,366.8094 1101.5,405.6094 C1074.02,438.1994 947.7679,445.0403 891.2279,446.5403" fill="none" id="InstanceVariable-to-Concept-5" style="stroke:#404040;stroke-width:1.2;"/><polygon fill="#404040" points="885.23,446.6994,894.3329,450.4593,890.2282,446.5668,894.1208,442.4621,885.23,446.6994" style="stroke:#404040;stroke-width:1.2;"/><text fill="#000000" font-family="sans-serif" font-size="13" lengthAdjust="spacing" textLength="27.46" x="1111.5" y="402.1045">uses</text><text fill="#000000" font-family="sans-serif" font-size="13" lengthAdjust="spacing" textLength="19.5127" x="892.5805" y="461.5803">0..*</text></g><?plantuml-src ZLLDRzim3BtxLmZEhKE2fXY68HW6fFa0YgtOW6RReTY1aUbOg2nvahmss_hVApksgrXAvkGIlqS-FeQqP9ZXI6w4DY0eVWV5OCinobY2X395sz-O5sPFSiotg7Ia7vWeG45ET0Q9V6HYHrBW6XrchfHyt6ICFWZKcamdLmv9ELZiRqGEOGl9fIAZjvVLruBNKYMe-kXQ2dF7_Y2PNaNFKNJGYFlUOmBQQuYCrglrQh6gIxuHa2EP4MrKPVn--hC24qoPO8P94Q0qLMoBoJSRy2MzHT2bgXGMqjOe3Bc_d4mEeQKRyOc991YLbe8sbLpoeYOB3YQLAj_iYt0DBKj5tGOw9WDz8moA19Cb63YjmFA2OxyRJwxKg7sBpn5iRIXGqumndZVFHoFeWsIqVBUQhzz77l7XttZihs2ZVMV0C6qOrNOTEDP_MwqV8iXeLNyYR_xZyKSILut5uSGPONhPZlbwVrR0usRaLmcSfGnrPxlSLa66_RPXlCIbp84rneFKCElXr1any82wp-gradbd22qXa7jkVFp_LYxYO5xhmwMEJBH2pSubjOC-s9NtYFCpQDzIxQzERs6w2WvKQq_hrWBQK1JSJdSZlPIJTkox-0FPBZEjdGKOt4crxzdouSvUW1fQCxZavtkqXnK-rSj_Edbujr-plMOK-Atzw-ofKhVQmxe--_Z1Px1ETJ22wKQymIVZLd2UEtKN6wxyML8mKhdYnr2dtuE7bsZErSCMD6Via5EWZNrT-UEBQM2oTrMTVTzVyzhBQs0PzpeRc1AunWPwgswiw0K0?></g></svg>