<svg xmlns="http://www.w3.org/2000/svg" xmlns:xlink="http://www.w3.org/1999/xlink" contentStyleType="text/css" data-diagram-type="CLASS" height="1303px" preserveAspectRatio="none" style="width:3322px;height:1303px;background:#FFFFFF;" version="1.1" viewBox="0 0 3322 1303" width="3322px" zoomAndPan="magnify"><?plantuml 1.2026.3?><defs/><g><g class="title" data-source-line="1"><text fill="#000000" font-family="sans-serif" font-size="14" font-weight="700" lengthAdjust="spacing" textLength="111.2754" x="1602.1484" y="24.5332">InstanceVariable</text></g><!--class InstanceVariable--><g class="entity" data-qualified-name="InstanceVariable" data-source-line="16" id="ent0002"><rect fill="#FEFECE" height="508.5469" rx="2.5" ry="2.5" style="stroke:#404040;stroke-width:0.5;" width="524.9092" x="1529" y="390.6094"/><text fill="#000000" font-family="sans-serif" font-size="30" lengthAdjust="spacing" textLength="223.4766" x="1679.7163" y="426.752">InstanceVariable</text><line style="stroke:#404040;stroke-width:0.5;" x1="1530" x2="2052.9092" y1="438.3438" y2="438.3438"/><g data-visibility-modifier="PUBLIC_FIELD"><ellipse cx="1540" cy="462.7109" fill="none" rx="3" ry="3" style="stroke:#038048;stroke-width:1;"/></g><text fill="#000000" font-family="sans-serif" font-size="30" lengthAdjust="spacing" textLength="321.7969" x="1556" y="473.4863">identifier : XsdAnyUri [1]</text><g data-visibility-modifier="PUBLIC_FIELD"><ellipse cx="1540" cy="500.4453" fill="none" rx="3" ry="3" style="stroke:#038048;stroke-width:1;"/></g><text fill="#000000" font-family="sans-serif" font-size="30" lengthAdjust="spacing" textLength="248.4521" x="1556" y="511.2207">name : string [0..1]</text><g data-visibility-modifier="PUBLIC_FIELD"><ellipse cx="1540" cy="538.1797" fill="none" rx="3" ry="3" style="stroke:#038048;stroke-width:1;"/></g><text fill="#000000" font-family="sans-serif" font-size="30" lengthAdjust="spacing" textLength="318.4863" x="1556" y="548.9551">description : string [0..1]</text><g data-visibility-modifier="PUBLIC_FIELD"><ellipse cx="1540" cy="575.9141" fill="none" rx="3" ry="3" style="stroke:#038048;stroke-width:1;"/></g><text fill="#000000" font-family="sans-serif" font-size="30" lengthAdjust="spacing" textLength="365.1709" x="1556" y="586.6895">alternateName : string [0..*]</text><g data-visibility-modifier="PUBLIC_FIELD"><ellipse cx="1540" cy="613.6484" fill="none" rx="3" ry="3" style="stroke:#038048;stroke-width:1;"/></g><text fill="#000000" font-family="sans-serif" font-size="30" lengthAdjust="spacing" textLength="378.501" x="1556" y="624.4238">physicalDataType : string [1]</text><g data-visibility-modifier="PUBLIC_FIELD"><ellipse cx="1540" cy="651.3828" fill="none" rx="3" ry="3" style="stroke:#038048;stroke-width:1;"/></g><text fill="#000000" font-family="sans-serif" font-size="30" lengthAdjust="spacing" textLength="298.4766" x="1556" y="662.1582">minValue : string [0..1]</text><g data-visibility-modifier="PUBLIC_FIELD"><ellipse cx="1540" cy="689.1172" fill="none" rx="3" ry="3" style="stroke:#038048;stroke-width:1;"/></g><text fill="#000000" font-family="sans-serif" font-size="30" lengthAdjust="spacing" textLength="306.8115" x="1556" y="699.8926">maxValue : string [0..1]</text><g data-visibility-modifier="PUBLIC_FIELD"><ellipse cx="1540" cy="726.8516" fill="none" rx="3" ry="3" style="stroke:#038048;stroke-width:1;"/></g><text fill="#000000" font-family="sans-serif" font-size="30" lengthAdjust="spacing" textLength="293.4961" x="1556" y="737.627">unitCode : string [0..1]</text><g data-visibility-modifier="PUBLIC_FIELD"><ellipse cx="1540" cy="764.5859" fill="none" rx="3" ry="3" style="stroke:#038048;stroke-width:1;"/></g><text fill="#000000" font-family="sans-serif" font-size="30" lengthAdjust="spacing" textLength="280.1221" x="1556" y="775.3613">unitText : string [0..1]</text><g data-visibility-modifier="PUBLIC_FIELD"><ellipse cx="1540" cy="802.3203" fill="none" rx="3" ry="3" style="stroke:#038048;stroke-width:1;"/></g><text fill="#000000" font-family="sans-serif" font-size="30" lengthAdjust="spacing" textLength="343.4619" x="1556" y="813.0957">platformType : string [0..*]</text><g data-visibility-modifier="PUBLIC_FIELD"><ellipse cx="1540" cy="840.0547" fill="none" rx="3" ry="3" style="stroke:#038048;stroke-width:1;"/></g><text fill="#000000" font-family="sans-serif" font-size="30" lengthAdjust="spacing" textLength="461.8359" x="1556" y="850.8301">simpleUnitOfMeasure : string [0..1]</text><g data-visibility-modifier="PUBLIC_FIELD"><ellipse cx="1540" cy="877.7891" fill="none" rx="3" ry="3" style="stroke:#038048;stroke-width:1;"/></g><text fill="#000000" font-family="sans-serif" font-size="30" lengthAdjust="spacing" textLength="491.9092" x="1556" y="888.5645">measurementTechnique : string [0..*]</text></g><!--class Dataset--><g class="entity" data-qualified-name="Dataset" data-source-line="30" id="ent0003"><rect fill="#EEEEEE" height="47.7344" rx="2.5" ry="2.5" style="stroke:#404040;stroke-width:0.5;" width="109.3887" x="889" y="45.6094"/><text fill="#000000" font-family="sans-serif" font-size="30" lengthAdjust="spacing" textLength="103.3887" x="892" y="81.752">Dataset</text></g><!--class SubstantiveValueDomain--><g class="entity" data-qualified-name="SubstantiveValueDomain" data-source-line="32" id="ent0005"><rect fill="#EEEEEE" height="47.7344" rx="2.5" ry="2.5" style="stroke:#404040;stroke-width:0.5;" width="342.8701" x="7" y="1219.1094"/><text fill="#000000" font-family="sans-serif" font-size="30" lengthAdjust="spacing" textLength="336.8701" x="10" y="1255.252">SubstantiveValueDomain</text></g><!--class SentinelValueDomain--><g class="entity" data-qualified-name="SentinelValueDomain" data-source-line="34" id="ent0007"><rect fill="#EEEEEE" height="47.7344" rx="2.5" ry="2.5" style="stroke:#404040;stroke-width:0.5;" width="294.5156" x="526" y="1219.1094"/><text fill="#000000" font-family="sans-serif" font-size="30" lengthAdjust="spacing" textLength="288.5156" x="529" y="1255.252">SentinelValueDomain</text></g><!--class CdifConceptOrTerm--><g class="entity" data-qualified-name="CdifConceptOrTerm" data-source-line="36" id="ent0009"><rect fill="#EEEEEE" height="47.7344" rx="2.5" ry="2.5" style="stroke:#404040;stroke-width:0.5;" width="274.4033" x="1076.5" y="1219.1094"/><text fill="#000000" font-family="sans-serif" font-size="30" lengthAdjust="spacing" textLength="268.4033" x="1079.5" y="1255.252">CdifConceptOrTerm</text></g><!--class DefinedTerm--><g class="entity" data-qualified-name="DefinedTerm" data-source-line="38" id="ent0011"><rect fill="#EEEEEE" height="47.7344" rx="2.5" ry="2.5" style="stroke:#404040;stroke-width:0.5;" width="179.3936" x="2083" y="1219.1094"/><text fill="#000000" font-family="sans-serif" font-size="30" lengthAdjust="spacing" textLength="173.3936" x="2086" y="1255.252">DefinedTerm</text></g><!--class StatisticsCollection--><g class="entity" data-qualified-name="StatisticsCollection" data-source-line="43" id="ent0016"><rect fill="#EEEEEE" height="47.7344" rx="2.5" ry="2.5" style="stroke:#404040;stroke-width:0.5;" width="257.7627" x="2696.5" y="1219.1094"/><text fill="#000000" font-family="sans-serif" font-size="30" lengthAdjust="spacing" textLength="251.7627" x="2699.5" y="1255.252">StatisticsCollection</text></g><!--class AbstractMapping--><g class="entity" data-qualified-name="AbstractMapping" data-source-line="47" id="ent0020"><rect fill="#EEEEEE" height="47.7344" rx="2.5" ry="2.5" style="stroke:#404040;stroke-width:0.5;" width="231.1172" x="1088" y="45.6094"/><text fill="#000000" font-family="sans-serif" font-size="30" font-style="italic" lengthAdjust="spacing" textLength="225.1172" x="1091" y="81.752">AbstractMapping</text></g><!--class PhysicalMapping--><g class="entity" data-qualified-name="PhysicalMapping" data-source-line="49" id="ent0022"><rect fill="#EEEEEE" height="47.7344" rx="2.5" ry="2.5" style="stroke:#404040;stroke-width:0.5;" width="232.7871" x="1339" y="45.6094"/><text fill="#000000" font-family="sans-serif" font-size="30" lengthAdjust="spacing" textLength="226.7871" x="1342" y="81.752">PhysicalMapping</text></g><!--class TextMapping--><g class="entity" data-qualified-name="TextMapping" data-source-line="51" id="ent0024"><rect fill="#EEEEEE" height="47.7344" rx="2.5" ry="2.5" style="stroke:#404040;stroke-width:0.5;" width="179.4229" x="1592" y="45.6094"/><text fill="#000000" font-family="sans-serif" font-size="30" lengthAdjust="spacing" textLength="173.4229" x="1595" y="81.752">TextMapping</text></g><!--class LocatorMapping--><g class="entity" data-qualified-name="LocatorMapping" data-source-line="53" id="ent0026"><rect fill="#EEEEEE" height="47.7344" rx="2.5" ry="2.5" style="stroke:#404040;stroke-width:0.5;" width="221.1416" x="1791" y="45.6094"/><text fill="#000000" font-family="sans-serif" font-size="30" lengthAdjust="spacing" textLength="215.1416" x="1794" y="81.752">LocatorMapping</text></g><!--class ComponentPosition--><g class="entity" data-qualified-name="ComponentPosition" data-source-line="55" id="ent0028"><rect fill="#EEEEEE" height="47.7344" rx="2.5" ry="2.5" style="stroke:#404040;stroke-width:0.5;" width="267.8262" x="2032.5" y="45.6094"/><text fill="#000000" font-family="sans-serif" font-size="30" lengthAdjust="spacing" textLength="261.8262" x="2035.5" y="81.752">ComponentPosition</text></g><!--class Statistics--><g class="entity" data-qualified-name="Statistics" data-source-line="57" id="ent0030"><rect fill="#EEEEEE" height="47.7344" rx="2.5" ry="2.5" style="stroke:#404040;stroke-width:0.5;" width="126.0293" x="2320.5" y="45.6094"/><text fill="#000000" font-family="sans-serif" font-size="30" lengthAdjust="spacing" textLength="120.0293" x="2323.5" y="81.752">Statistics</text></g><!--class XsdAnyUri--><g class="entity" data-qualified-name="XsdAnyUri" data-source-line="61" id="ent0034"><rect fill="#FAE5D3" height="93.0156" rx="2.5" ry="2.5" style="stroke:#404040;stroke-width:0.5;" width="192.1426" x="3078.5" y="1196.6094"/><text fill="#000000" font-family="sans-serif" font-size="36" font-style="italic" lengthAdjust="spacing" textLength="190.1426" x="3079.5" y="1238.9805">&#171;dataType&#187;</text><text fill="#000000" font-family="sans-serif" font-size="30" lengthAdjust="spacing" textLength="141.709" x="3103.7168" y="1278.0332">XsdAnyUri</text></g><!--reverse link Dataset to InstanceVariable--><g class="link" data-entity-1="ent0003" data-entity-2="ent0002" data-link-type="composition" data-source-line="31" id="lnk4"><path codeLine="31" d="M958.4408,104.6914 C976.4408,144.2414 1012.75,214.5494 1068.5,265.6094 C1201.71,387.6194 1381.58,481.9794 1528.57,545.9694" fill="none" id="Dataset-backto-InstanceVariable" style="stroke:#404040;stroke-width:1.2;"/><polygon fill="#404040" points="953.47,93.7694,952.3147,100.8873,958.4408,104.6914,959.5961,97.5734,953.47,93.7694" style="stroke:#404040;stroke-width:1.2;"/><text fill="#000000" font-family="sans-serif" font-size="36" lengthAdjust="spacing" textLength="286.1543" x="1069.5" y="256.9805">variableMeasured</text><text fill="#000000" font-family="sans-serif" font-size="36" lengthAdjust="spacing" textLength="54.0352" x="1466.8704" y="535.1192">1..*</text></g><!--link InstanceVariable to SubstantiveValueDomain--><g class="link" data-entity-1="ent0002" data-entity-2="ent0005" data-link-type="dependency" data-source-line="33" id="lnk6"><path codeLine="33" d="M1528.83,670.0494 C1118.47,713.3994 354.71,819.9594 186.5,1024.6094 C140.31,1080.7994 157.4459,1169.6906 169.5959,1213.1906" fill="none" id="InstanceVariable-to-SubstantiveValueDomain" style="stroke:#404040;stroke-width:1.2;"/><polygon fill="#404040" points="171.21,1218.9694,172.6414,1209.2251,169.8649,1214.1537,164.9363,1211.3772,171.21,1218.9694" style="stroke:#404040;stroke-width:1.2;"/><text fill="#000000" font-family="sans-serif" font-size="36" lengthAdjust="spacing" textLength="468.2285" x="187.5" y="1062.9805">takesSubstantiveValuesFrom</text><text fill="#000000" font-family="sans-serif" font-size="36" lengthAdjust="spacing" textLength="60.0469" x="104.5835" y="1203.0814">0..1</text></g><!--link InstanceVariable to SentinelValueDomain--><g class="link" data-entity-1="ent0002" data-entity-2="ent0007" data-link-type="dependency" data-source-line="35" id="lnk8"><path codeLine="35" d="M1528.89,655.2694 C1267.83,679.8994 878.84,761.7994 682.5,1024.6094 C639.07,1082.7394 654.2283,1170.2078 665.2683,1213.2178" fill="none" id="InstanceVariable-to-SentinelValueDomain" style="stroke:#404040;stroke-width:1.2;"/><polygon fill="#404040" points="666.76,1219.0294,668.3968,1209.3175,665.5169,1214.1864,660.648,1211.3065,666.76,1219.0294" style="stroke:#404040;stroke-width:1.2;"/><text fill="#000000" font-family="sans-serif" font-size="36" lengthAdjust="spacing" textLength="410.2031" x="683.5" y="1062.9805">takesSentinelValuesFrom</text><text fill="#000000" font-family="sans-serif" font-size="36" lengthAdjust="spacing" textLength="54.0352" x="606.7963" y="1203.1521">0..*</text></g><!--link InstanceVariable to CdifConceptOrTerm--><g class="link" data-entity-1="ent0002" data-entity-2="ent0009" data-link-type="dependency" data-source-line="37" id="lnk10"><path codeLine="37" d="M1528.96,718.8194 C1377.91,775.6194 1200.69,871.2994 1110.5,1024.6094 C1070.57,1092.4894 1140.9651,1174.1706 1183.1351,1214.7206" fill="none" id="InstanceVariable-to-CdifConceptOrTerm" style="stroke:#404040;stroke-width:1.2;"/><polygon fill="#404040" points="1187.46,1218.8794,1183.7452,1209.758,1183.8559,1215.4137,1178.2001,1215.5245,1187.46,1218.8794" style="stroke:#404040;stroke-width:1.2;"/><text fill="#000000" font-family="sans-serif" font-size="36" lengthAdjust="spacing" textLength="76.043" x="1111.5" y="1062.9805">uses</text><text fill="#000000" font-family="sans-serif" font-size="36" lengthAdjust="spacing" textLength="54.0352" x="1124.3121" y="1203.2657">0..*</text></g><!--link InstanceVariable to CdifConceptOrTerm--><g class="link" data-entity-1="ent0002" data-entity-2="ent0009" data-link-type="dependency" data-source-line="40" id="lnk13"><path codeLine="40" d="M1528.88,748.1694 C1409.95,809.1894 1281.08,899.5694 1213.5,1024.6094 C1179.3,1087.8894 1194.4976,1171.6205 1205.2776,1213.3005" fill="none" id="InstanceVariable-to-CdifConceptOrTerm-1" style="stroke:#404040;stroke-width:1.2;"/><polygon fill="#404040" points="1206.78,1219.1094,1208.399,1209.3945,1205.528,1214.2687,1200.6538,1211.3977,1206.78,1219.1094" style="stroke:#404040;stroke-width:1.2;"/><text fill="#000000" font-family="sans-serif" font-size="36" lengthAdjust="spacing" textLength="398.1797" x="1214.5" y="1062.9805">describedUnitOfMeasure</text><text fill="#000000" font-family="sans-serif" font-size="36" lengthAdjust="spacing" textLength="60.0469" x="1210.895" y="1203.2464">0..1</text></g><!--link InstanceVariable to CdifConceptOrTerm--><g class="link" data-entity-1="ent0002" data-entity-2="ent0009" data-link-type="dependency" data-source-line="41" id="lnk14"><path codeLine="41" d="M1690.42,899.7294 C1655.03,986.4794 1622.13,1063.9194 1614.5,1071.6094 C1535.77,1150.9494 1420.1497,1193.9621 1331.5297,1217.4521" fill="none" id="InstanceVariable-to-CdifConceptOrTerm-2" style="stroke:#404040;stroke-width:1.2;"/><polygon fill="#404040" points="1325.73,1218.9894,1335.4544,1220.5499,1330.5631,1217.7083,1333.4047,1212.817,1325.73,1218.9894" style="stroke:#404040;stroke-width:1.2;"/><text fill="#000000" font-family="sans-serif" font-size="36" lengthAdjust="spacing" textLength="126.0879" x="1637.5" y="1062.9805">function</text><text fill="#000000" font-family="sans-serif" font-size="36" lengthAdjust="spacing" textLength="54.0352" x="1286.8788" y="1203.105">0..*</text></g><!--link InstanceVariable to DefinedTerm--><g class="link" data-entity-1="ent0002" data-entity-2="ent0011" data-link-type="dependency" data-source-line="39" id="lnk12"><path codeLine="39" d="M1745.87,899.8194 C1746.94,959.9794 1758.86,1021.2394 1791.5,1071.6094 C1855.54,1170.4294 1985.9085,1211.3636 2076.8885,1228.9036" fill="none" id="InstanceVariable-to-DefinedTerm" style="stroke:#404040;stroke-width:1.2;"/><polygon fill="#404040" points="2082.78,1230.0394,2074.6999,1224.408,2077.8704,1229.0929,2073.1855,1232.2633,2082.78,1230.0394" style="stroke:#404040;stroke-width:1.2;"/><text fill="#000000" font-family="sans-serif" font-size="36" lengthAdjust="spacing" textLength="354.252" x="1792.5" y="1062.9805">hasIntendedDataType</text><text fill="#000000" font-family="sans-serif" font-size="36" lengthAdjust="spacing" textLength="60.0469" x="2015.0993" y="1220.1493">0..1</text></g><!--link InstanceVariable to DefinedTerm--><g class="link" data-entity-1="ent0002" data-entity-2="ent0011" data-link-type="dependency" data-source-line="45" id="lnk18"><path codeLine="45" d="M2054,879.5794 C2091.14,924.1894 2124.71,973.1594 2148.5,1024.6094 C2178.71,1089.9594 2177.7497,1171.7527 2174.9997,1212.9427" fill="none" id="InstanceVariable-to-DefinedTerm-1" style="stroke:#404040;stroke-width:1.2;"/><polygon fill="#404040" points="2174.6,1218.9294,2179.1907,1210.2158,2174.9331,1213.9405,2171.2084,1209.6829,2174.6,1218.9294" style="stroke:#404040;stroke-width:1.2;"/><text fill="#000000" font-family="sans-serif" font-size="36" lengthAdjust="spacing" textLength="108.0527" x="2165.5" y="1062.9805">source</text><text fill="#000000" font-family="sans-serif" font-size="36" lengthAdjust="spacing" textLength="54.0352" x="2116.2895" y="1203.3243">0..*</text></g><!--link InstanceVariable to DefinedTerm--><g class="link" data-entity-1="ent0002" data-entity-2="ent0011" data-link-type="dependency" data-source-line="46" id="lnk19"><path codeLine="46" d="M2054.01,783.8294 C2142.43,844.7994 2230.91,925.4394 2279.5,1024.6094 C2314.21,1095.4694 2245.0304,1175.0773 2203.1904,1214.8173" fill="none" id="InstanceVariable-to-DefinedTerm-2" style="stroke:#404040;stroke-width:1.2;"/><polygon fill="#404040" points="2198.84,1218.9494,2208.1203,1215.6516,2202.4653,1215.506,2202.6109,1209.851,2198.84,1218.9494" style="stroke:#404040;stroke-width:1.2;"/><text fill="#000000" font-family="sans-serif" font-size="36" lengthAdjust="spacing" textLength="388.2129" x="2290.5" y="1062.9805">measurementTechnique</text><text fill="#000000" font-family="sans-serif" font-size="36" lengthAdjust="spacing" textLength="54.0352" x="2208.3093" y="1203.0579">0..*</text></g><!--link InstanceVariable to InstanceVariable--><g class="link" data-entity-1="ent0002" data-entity-2="ent0002" data-link-type="dependency" data-source-line="42" id="lnk15"><path codeLine="42" d="M2054.18,597.3694 C2066.67,609.3694 2074,625.2794 2074,645.1094 C2074,664.9394 2070.9967,676.6925 2058.5067,688.6925" fill="none" id="InstanceVariable-to-InstanceVariable" style="stroke:#404040;stroke-width:1.2;"/><polygon fill="#404040" points="2054.18,692.8494,2063.4413,689.4984,2057.7856,689.3853,2057.8987,683.7296,2054.18,692.8494" style="stroke:#404040;stroke-width:1.2;"/><text fill="#000000" font-family="sans-serif" font-size="36" lengthAdjust="spacing" textLength="132.082" x="2080" y="659.9805">qualifies</text><text fill="#000000" font-family="sans-serif" font-size="36" lengthAdjust="spacing" textLength="54.0352" x="2061.8763" y="732.096">0..*</text></g><!--link InstanceVariable to StatisticsCollection--><g class="link" data-entity-1="ent0002" data-entity-2="ent0016" data-link-type="dependency" data-source-line="44" id="lnk17"><path codeLine="44" d="M2054.07,712.3694 C2244.83,770.5494 2500.71,870.3494 2684.5,1024.6094 C2701.86,1039.1794 2776.1439,1160.436 2808.3039,1213.586" fill="none" id="InstanceVariable-to-StatisticsCollection" style="stroke:#404040;stroke-width:1.2;"/><polygon fill="#404040" points="2811.41,1218.7194,2810.1731,1208.9485,2808.8216,1214.4415,2803.3285,1213.09,2811.41,1218.7194" style="stroke:#404040;stroke-width:1.2;"/><text fill="#000000" font-family="sans-serif" font-size="36" lengthAdjust="spacing" textLength="230.0801" x="2719.5" y="1062.9805">isDescribedBy</text><text fill="#000000" font-family="sans-serif" font-size="36" lengthAdjust="spacing" textLength="54.0352" x="2750.3711" y="1203.0782">0..*</text></g><!--link StatisticsCollection to InstanceVariable--><g class="link" data-entity-1="ent0016" data-entity-2="ent0002" data-link-type="dependency" data-source-line="60" id="lnk33"><path codeLine="60" d="M2857.59,1219.0394 C2910.22,1178.3694 3004.36,1091.8794 2955.5,1024.6094 C2848.53,877.3394 2369.349,758.8783 2060.129,695.8183" fill="none" id="StatisticsCollection-to-InstanceVariable" style="stroke:#404040;stroke-width:1.2;"/><polygon fill="#404040" points="2054.25,694.6194,2062.2692,700.3371,2059.1492,695.6185,2063.8678,692.4984,2054.25,694.6194" style="stroke:#404040;stroke-width:1.2;"/><text fill="#000000" font-family="sans-serif" font-size="36" lengthAdjust="spacing" textLength="168.1172" x="2970.5" y="1062.9805">indexedBy</text><text fill="#000000" font-family="sans-serif" font-size="36" lengthAdjust="spacing" textLength="54.0352" x="2061.9482" y="687.7177">0..*</text></g><!--link AbstractMapping to InstanceVariable--><g class="link" data-entity-1="ent0020" data-entity-2="ent0002" data-link-type="dependency" data-source-line="48" id="lnk21"><path codeLine="48" d="M1227.28,93.7994 C1279.54,144.7794 1405.2047,267.34 1527.2347,386.36" fill="none" id="AbstractMapping-to-InstanceVariable" style="stroke:#404040;stroke-width:1.2;"/><polygon fill="#404040" points="1531.53,390.5494,1527.88,381.4018,1527.9506,387.0583,1522.2942,387.1289,1531.53,390.5494" style="stroke:#404040;stroke-width:1.2;"/><text fill="#000000" font-family="sans-serif" font-size="36" lengthAdjust="spacing" textLength="120.0234" x="1395.5" y="256.9805">formats</text><text fill="#000000" font-family="sans-serif" font-size="36" lengthAdjust="spacing" textLength="20.0215" x="1503.5169" y="374.7062">1</text></g><!--link PhysicalMapping to InstanceVariable--><g class="link" data-entity-1="ent0022" data-entity-2="ent0002" data-link-type="dependency" data-source-line="50" id="lnk23"><path codeLine="50" d="M1469.09,93.7994 C1498.95,144.7794 1570.1767,266.3526 1639.9167,385.3726" fill="none" id="PhysicalMapping-to-InstanceVariable" style="stroke:#404040;stroke-width:1.2;"/><polygon fill="#404040" points="1642.95,390.5494,1641.8512,380.762,1640.4222,386.2354,1634.9488,384.8065,1642.95,390.5494" style="stroke:#404040;stroke-width:1.2;"/><text fill="#000000" font-family="sans-serif" font-size="36" lengthAdjust="spacing" textLength="120.0234" x="1565.5" y="256.9805">formats</text><text fill="#000000" font-family="sans-serif" font-size="36" lengthAdjust="spacing" textLength="20.0215" x="1618.2447" y="374.7062">1</text></g><!--link TextMapping to InstanceVariable--><g class="link" data-entity-1="ent0024" data-entity-2="ent0002" data-link-type="dependency" data-source-line="52" id="lnk25"><path codeLine="52" d="M1685.95,93.7994 C1695.73,144.7794 1718.9097,265.6368 1741.7397,384.6568" fill="none" id="TextMapping-to-InstanceVariable" style="stroke:#404040;stroke-width:1.2;"/><polygon fill="#404040" points="1742.87,390.5494,1745.1029,380.957,1741.9281,385.6389,1737.2462,382.464,1742.87,390.5494" style="stroke:#404040;stroke-width:1.2;"/><text fill="#000000" font-family="sans-serif" font-size="36" lengthAdjust="spacing" textLength="120.0234" x="1718.5" y="256.9805">formats</text><text fill="#000000" font-family="sans-serif" font-size="36" lengthAdjust="spacing" textLength="20.0215" x="1721.1311" y="374.7062">1</text></g><!--link LocatorMapping to InstanceVariable--><g class="link" data-entity-1="ent0026" data-entity-2="ent0002" data-link-type="dependency" data-source-line="54" id="lnk27"><path codeLine="54" d="M1897.05,93.7994 C1887.27,144.7794 1864.0903,265.6368 1841.2603,384.6568" fill="none" id="LocatorMapping-to-InstanceVariable" style="stroke:#404040;stroke-width:1.2;"/><polygon fill="#404040" points="1840.13,390.5494,1845.7538,382.464,1841.0719,385.6389,1837.8971,380.957,1840.13,390.5494" style="stroke:#404040;stroke-width:1.2;"/><text fill="#000000" font-family="sans-serif" font-size="36" lengthAdjust="spacing" textLength="120.0234" x="1873.5" y="256.9805">formats</text><text fill="#000000" font-family="sans-serif" font-size="36" lengthAdjust="spacing" textLength="20.0215" x="1821.2785" y="374.7062">1</text></g><!--link ComponentPosition to InstanceVariable--><g class="link" data-entity-1="ent0028" data-entity-2="ent0002" data-link-type="dependency" data-source-line="56" id="lnk29"><path codeLine="56" d="M2146.72,93.7594 C2122.68,122.3194 2081.35,172.7394 2049.5,218.6094 C2011.68,273.0694 1976.4831,328.0024 1941.3431,385.3924" fill="none" id="ComponentPosition-to-InstanceVariable" style="stroke:#404040;stroke-width:1.2;"/><polygon fill="#404040" points="1938.21,390.5094,1946.321,384.9227,1940.8209,386.2452,1939.4984,380.7452,1938.21,390.5094" style="stroke:#404040;stroke-width:1.2;"/><text fill="#000000" font-family="sans-serif" font-size="36" lengthAdjust="spacing" textLength="124.084" x="2050.5" y="256.9805">indexes</text><text fill="#000000" font-family="sans-serif" font-size="36" lengthAdjust="spacing" textLength="20.0215" x="1922.2702" y="374.665">1</text></g><!--link Statistics to InstanceVariable--><g class="link" data-entity-1="ent0030" data-entity-2="ent0002" data-link-type="dependency" data-source-line="58" id="lnk31"><path codeLine="58" d="M2346.3,93.8094 C2306.33,120.1794 2242.84,166.4094 2200.5,218.6094 C2185.73,236.8294 2190.38,246.6994 2176.5,265.6094 C2140.39,314.8294 2101.8916,359.1772 2058.3616,404.3872" fill="none" id="Statistics-to-InstanceVariable" style="stroke:#404040;stroke-width:1.2;"/><polygon fill="#404040" points="2054.2,408.7094,2063.3238,405.0005,2057.668,405.1076,2057.5609,399.4517,2054.2,408.7094" style="stroke:#404040;stroke-width:1.2;"/><text fill="#000000" font-family="sans-serif" font-size="36" lengthAdjust="spacing" textLength="156.0938" x="2201.5" y="256.9805">appliesTo</text><text fill="#000000" font-family="sans-serif" font-size="36" lengthAdjust="spacing" textLength="54.0352" x="2061.8968" y="394.2132">0..*</text></g><!--link Statistics to InstanceVariable--><g class="link" data-entity-1="ent0030" data-entity-2="ent0002" data-link-type="dependency" data-source-line="59" id="lnk32"><path codeLine="59" d="M2386.51,93.6394 C2390.36,132.2994 2392.99,211.3194 2359.5,265.6094 C2288.11,381.3394 2171.8551,466.4738 2059.4951,528.3838" fill="none" id="Statistics-to-InstanceVariable-1" style="stroke:#404040;stroke-width:1.2;"/><polygon fill="#404040" points="2054.24,531.2794,2064.053,530.4395,2058.6192,528.8664,2060.1923,523.4327,2054.24,531.2794" style="stroke:#404040;stroke-width:1.2;"/><text fill="#000000" font-family="sans-serif" font-size="36" lengthAdjust="spacing" textLength="170.0859" x="2379.5" y="256.9805">hasWeight</text><text fill="#000000" font-family="sans-serif" font-size="36" lengthAdjust="spacing" textLength="60.0469" x="2062.0177" y="520.039">0..1</text></g><!--link InstanceVariable to XsdAnyUri--><g class="link" data-entity-1="ent0002" data-entity-2="ent0034" data-link-type="dependency" data-source-line="62" id="lnk35"><path codeLine="62" d="M2054.24,684.9194 C2405.92,742.4594 3002.06,861.3994 3144.5,1024.6094 C3185.6,1071.7094 3186.9466,1141.7481 3182.1766,1190.3081" fill="none" id="InstanceVariable-to-XsdAnyUri" style="stroke:#404040;stroke-width:1.2;stroke-dasharray:7,7;"/><polygon fill="#404040" points="3181.59,1196.2794,3186.4507,1187.7135,3182.0788,1191.3033,3178.489,1186.9314,3181.59,1196.2794" style="stroke:#404040;stroke-width:1.2;"/><text fill="#000000" font-family="sans-serif" font-size="36" lengthAdjust="spacing" textLength="136.0723" x="3170.5" y="1062.9805">identifier</text></g><?plantuml-src bLPDJnin4Btlhx2M6rMY14eF4OeKyY4XbO94e9LG3vFTMMB5Qo-s5qWh_dkzNyRPDMb8BkitdlTcnfwHDTKCoILN6dY4zo0fh1W6QneZYQYCcczCCxqbAQOhb2fG6yepa90IjOPOl53-I19W2XtBH4hnibpJQCDHAJBidpX62NoZC2CdPmC7vIB64dN161F8cLu8hc_f7oIdtnnZnC1m_mr89JSLJ4Xoz7LG_0ru8MICieswLCPHQqbNkSPtU12y1K557RPB4n9GdNgHeyLyCP_EoqY-c7fnJHEAaep8BnLF-FPEKl8m_5rOEQHeS6LKJTKU1lr-XPlK8qapJGNtcO5fb1mq_kZu7vSRilLMqGZO33Gijvcxfs98ARy7bdl5KtZzq9PpggVcP3woBV5L-smP0vq8cRQ2iG4hccOCxmp3TNA5e7Bf3wqofQQcIupMd3xbNRgtvhYAx1NgyfJgRt8qBtz1ipxkzKWuD7vXzo17vBd-h4EA6-RRV5NirVGPorBDH0gKbq9-azNjYFHwOn8M2OOVkOw8XWsgjbKjf4XjGCKjuyWwqNJn_uTYQk7pQ-9mJJj1J6EQJ8LXpFIrNA9Con0ww441TBr695UexDbYOeA8hOgpFgZMxluHMOEwv1fvZ77JCdkzVT5LFRl2UESMVph99ETHqVTx7JrNzIa7LimPMw5R3PegJIDbPXx3ahIw4nx3OPV2vpWYLCsQr2-sUmbsYwv4BYFyX8El-mCmNI4XqlNu3oVr-Wgop0o5CkCMPfDjuwNoq5lUOdY1jiMzgGUigzB2h4eRFrobcAQkWhEsx2vsEFDt4O4MqYNVXIn_2pvSOYhIJ71pLZT2KNlvEgWLwbhsQ57Jgg--kzwwuPRTWVRtaScJcIvQ2f-BFnWpFNuYVLphmDiX-_MgJ8hEgNEnZuGobVSdm_bvN8-cyTYyCIRpizbfjtdw_R7ZO-Zj-oFu1m00?></g></svg>