<svg xmlns="http://www.w3.org/2000/svg" xmlns:xlink="http://www.w3.org/1999/xlink" contentStyleType="text/css" data-diagram-type="CLASS" height="695px" preserveAspectRatio="none" style="width:4113px;height:695px;background:#FFFFFF;" version="1.1" viewBox="0 0 4113 695" width="4113px" zoomAndPan="magnify"><?plantuml 1.2026.3?><defs/><g><g class="title" data-source-line="1"><text fill="#000000" font-family="sans-serif" font-size="14" font-weight="700" lengthAdjust="spacing" textLength="181.2549" x="1962.3788" y="24.5332">ControlledVocabularyEntry</text></g><!--class ControlledVocabularyEntry--><g class="entity" data-qualified-name="ControlledVocabularyEntry" data-source-line="16" id="ent0002"><rect fill="#FAE5D3" height="289.6875" rx="2.5" ry="2.5" style="stroke:#404040;stroke-width:0.5;" width="471.5596" x="1703.87" y="390.6094"/><text fill="#000000" font-family="sans-serif" font-size="36" font-style="italic" lengthAdjust="spacing" textLength="190.1426" x="1844.5785" y="432.9805">&#171;dataType&#187;</text><text fill="#000000" font-family="sans-serif" font-size="30" lengthAdjust="spacing" textLength="356.8506" x="1761.2245" y="472.0332">ControlledVocabularyEntry</text><line style="stroke:#404040;stroke-width:0.5;" x1="1704.87" x2="2174.4296" y1="483.625" y2="483.625"/><g data-visibility-modifier="PUBLIC_FIELD"><ellipse cx="1714.87" cy="507.9922" fill="none" rx="3" ry="3" style="stroke:#038048;stroke-width:1;"/></g><text fill="#000000" font-family="sans-serif" font-size="30" lengthAdjust="spacing" textLength="438.5596" x="1730.87" y="518.7676">entryReference : Reference [1..*]</text><g data-visibility-modifier="PUBLIC_FIELD"><ellipse cx="1714.87" cy="545.7266" fill="none" rx="3" ry="3" style="stroke:#038048;stroke-width:1;"/></g><text fill="#000000" font-family="sans-serif" font-size="30" lengthAdjust="spacing" textLength="311.8213" x="1730.87" y="556.502">entryValue : string [1..*]</text><g data-visibility-modifier="PUBLIC_FIELD"><ellipse cx="1714.87" cy="583.4609" fill="none" rx="3" ry="3" style="stroke:#038048;stroke-width:1;"/></g><text fill="#000000" font-family="sans-serif" font-size="30" lengthAdjust="spacing" textLength="215.0977" x="1730.87" y="594.2363">name : string [1]</text><g data-visibility-modifier="PUBLIC_FIELD"><ellipse cx="1714.87" cy="621.1953" fill="none" rx="3" ry="3" style="stroke:#038048;stroke-width:1;"/></g><text fill="#000000" font-family="sans-serif" font-size="30" lengthAdjust="spacing" textLength="331.8018" x="1730.87" y="631.9707">valueForOther : string [1]</text><g data-visibility-modifier="PUBLIC_FIELD"><ellipse cx="1714.87" cy="658.9297" fill="none" rx="3" ry="3" style="stroke:#038048;stroke-width:1;"/></g><text fill="#000000" font-family="sans-serif" font-size="30" lengthAdjust="spacing" textLength="350.1855" x="1730.87" y="669.7051">vocabulary : Reference [1]</text></g><!--class RepresentedVariable--><g class="entity" data-qualified-name="RepresentedVariable" data-source-line="23" id="ent0003"><rect fill="#EEEEEE" height="47.7344" rx="2.5" ry="2.5" style="stroke:#404040;stroke-width:0.5;" width="287.8506" x="376.87" y="45.6094"/><text fill="#000000" font-family="sans-serif" font-size="30" lengthAdjust="spacing" textLength="281.8506" x="379.87" y="81.752">RepresentedVariable</text></g><!--class DescriptorVariable--><g class="entity" data-qualified-name="DescriptorVariable" data-source-line="27" id="ent0007"><rect fill="#EEEEEE" height="47.7344" rx="2.5" ry="2.5" style="stroke:#404040;stroke-width:0.5;" width="252.7676" x="1813.37" y="45.6094"/><text fill="#000000" font-family="sans-serif" font-size="30" lengthAdjust="spacing" textLength="246.7676" x="1816.37" y="81.752">DescriptorVariable</text></g><!--class DescriptorValueDomain--><g class="entity" data-qualified-name="DescriptorValueDomain" data-source-line="35" id="ent0015"><rect fill="#EEEEEE" height="47.7344" rx="2.5" ry="2.5" style="stroke:#404040;stroke-width:0.5;" width="322.8018" x="3006.37" y="45.6094"/><text fill="#000000" font-family="sans-serif" font-size="30" lengthAdjust="spacing" textLength="316.8018" x="3009.37" y="81.752">DescriptorValueDomain</text></g><!--class ValueAndConceptDescription--><g class="entity" data-qualified-name="ValueAndConceptDescription" data-source-line="37" id="ent0017"><rect fill="#EEEEEE" height="47.7344" rx="2.5" ry="2.5" style="stroke:#404040;stroke-width:0.5;" width="397.9043" x="3503.87" y="45.6094"/><text fill="#000000" font-family="sans-serif" font-size="30" lengthAdjust="spacing" textLength="391.9043" x="3506.87" y="81.752">ValueAndConceptDescription</text></g><!--link RepresentedVariable to ControlledVocabularyEntry--><g class="link" data-entity-1="ent0003" data-entity-2="ent0002" data-link-type="dependency" data-source-line="24" id="lnk4"><path codeLine="24" d="M376.57,86.8094 C220.72,109.9394 6,161.6794 95.87,265.6094 C199.79,385.7894 1223.9885,479.4484 1697.7485,516.7484" fill="none" id="RepresentedVariable-to-ControlledVocabularyEntry" style="stroke:#404040;stroke-width:1.2;stroke-dasharray:7,7;"/><polygon fill="#404040" points="1703.73,517.2194,1695.0717,512.5253,1698.7454,516.8269,1694.4438,520.5006,1703.73,517.2194" style="stroke:#404040;stroke-width:1.2;"/><text fill="#000000" font-family="sans-serif" font-size="36" lengthAdjust="spacing" textLength="398.1797" x="96.87" y="256.9805">describedUnitOfMeasure</text></g><!--link RepresentedVariable to ControlledVocabularyEntry--><g class="link" data-entity-1="ent0003" data-entity-2="ent0002" data-link-type="dependency" data-source-line="25" id="lnk5"><path codeLine="25" d="M512.38,93.8794 C499.4,133.9694 480.16,216.4594 520.87,265.6094 C668.36,443.6894 1333.8793,504.466 1697.7893,524.716" fill="none" id="RepresentedVariable-to-ControlledVocabularyEntry-1" style="stroke:#404040;stroke-width:1.2;stroke-dasharray:7,7;"/><polygon fill="#404040" points="1703.78,525.0494,1695.0161,520.5555,1698.7877,524.7716,1694.5717,528.5432,1703.78,525.0494" style="stroke:#404040;stroke-width:1.2;"/><text fill="#000000" font-family="sans-serif" font-size="36" lengthAdjust="spacing" textLength="354.252" x="521.87" y="256.9805">hasIntendedDataType</text></g><!--link RepresentedVariable to ControlledVocabularyEntry--><g class="link" data-entity-1="ent0003" data-entity-2="ent0002" data-link-type="dependency" data-source-line="26" id="lnk6"><path codeLine="26" d="M612.2,93.6794 C688.83,116.3094 798.21,156.5494 877.87,218.6094 C898.41,234.6194 891.27,251.0494 912.87,265.6094 C1152.09,426.9794 1476.8707,490.8821 1697.7107,516.7221" fill="none" id="RepresentedVariable-to-ControlledVocabularyEntry-2" style="stroke:#404040;stroke-width:1.2;stroke-dasharray:7,7;"/><polygon fill="#404040" points="1703.67,517.4194,1695.1958,512.4005,1698.7039,516.8383,1694.2661,520.3463,1703.67,517.4194" style="stroke:#404040;stroke-width:1.2;"/><text fill="#000000" font-family="sans-serif" font-size="36" lengthAdjust="spacing" textLength="308.1621" x="913.87" y="256.9805">unitOfMeasureKind</text></g><!--link DescriptorVariable to ControlledVocabularyEntry--><g class="link" data-entity-1="ent0007" data-entity-2="ent0002" data-link-type="dependency" data-source-line="28" id="lnk8"><path codeLine="28" d="M1813.27,78.6494 C1630.85,93.1594 1308.08,130.8394 1236.87,218.6094 C1167.94,303.5594 1468.0363,407.257 1698.0763,472.297" fill="none" id="DescriptorVariable-to-ControlledVocabularyEntry" style="stroke:#404040;stroke-width:1.2;stroke-dasharray:7,7;"/><polygon fill="#404040" points="1703.85,473.9294,1696.2778,467.6316,1699.0386,472.569,1694.1012,475.3299,1703.85,473.9294" style="stroke:#404040;stroke-width:1.2;"/><text fill="#000000" font-family="sans-serif" font-size="36" lengthAdjust="spacing" textLength="126.0879" x="1237.87" y="256.9805">function</text></g><!--link DescriptorVariable to ControlledVocabularyEntry--><g class="link" data-entity-1="ent0007" data-entity-2="ent0002" data-link-type="dependency" data-source-line="29" id="lnk9"><path codeLine="29" d="M1813.31,86.8094 C1667.42,108.3994 1441.07,151.7994 1389.87,218.6094 C1285.78,354.4094 1504.8155,440.3287 1697.6655,488.0287" fill="none" id="DescriptorVariable-to-ControlledVocabularyEntry-1" style="stroke:#404040;stroke-width:1.2;stroke-dasharray:7,7;"/><polygon fill="#404040" points="1703.49,489.4694,1695.7137,483.4254,1698.6363,488.2688,1693.7929,491.1914,1703.49,489.4694" style="stroke:#404040;stroke-width:1.2;"/><text fill="#000000" font-family="sans-serif" font-size="36" lengthAdjust="spacing" textLength="286.1367" x="1390.87" y="256.9805">physicalDataType</text></g><!--link DescriptorVariable to ControlledVocabularyEntry--><g class="link" data-entity-1="ent0007" data-entity-2="ent0002" data-link-type="dependency" data-source-line="30" id="lnk10"><path codeLine="30" d="M1865.33,93.6794 C1784.53,123.3694 1671.05,181.3694 1702.87,265.6094 C1719.91,310.7394 1744.4856,348.5996 1775.8656,385.8696" fill="none" id="DescriptorVariable-to-ControlledVocabularyEntry-2" style="stroke:#404040;stroke-width:1.2;stroke-dasharray:7,7;"/><polygon fill="#404040" points="1779.73,390.4594,1776.9932,380.9984,1776.5096,386.6346,1770.8735,386.151,1779.73,390.4594" style="stroke:#404040;stroke-width:1.2;"/><text fill="#000000" font-family="sans-serif" font-size="36" lengthAdjust="spacing" textLength="210.0762" x="1703.87" y="256.9805">platformType</text></g><!--link DescriptorVariable to ControlledVocabularyEntry--><g class="link" data-entity-1="ent0007" data-entity-2="ent0002" data-link-type="dependency" data-source-line="31" id="lnk11"><path codeLine="31" d="M1939.87,93.6194 C1939.87,147.1094 1939.87,277.4094 1939.87,384.4394" fill="none" id="DescriptorVariable-to-ControlledVocabularyEntry-3" style="stroke:#404040;stroke-width:1.2;stroke-dasharray:7,7;"/><polygon fill="#404040" points="1939.87,390.4394,1943.87,381.4394,1939.87,385.4394,1935.87,381.4394,1939.87,390.4394" style="stroke:#404040;stroke-width:1.2;"/><text fill="#000000" font-family="sans-serif" font-size="36" lengthAdjust="spacing" textLength="60.0293" x="1940.87" y="256.9805">role</text></g><!--link DescriptorVariable to ControlledVocabularyEntry--><g class="link" data-entity-1="ent0007" data-entity-2="ent0002" data-link-type="dependency" data-source-line="32" id="lnk12"><path codeLine="32" d="M1953.21,93.7494 C1968.71,122.0894 1993.38,172.0894 2002.87,218.6094 C2014.3,274.6594 2008.0022,330.5178 1994.5622,384.3978" fill="none" id="DescriptorVariable-to-ControlledVocabularyEntry-4" style="stroke:#404040;stroke-width:1.2;stroke-dasharray:7,7;"/><polygon fill="#404040" points="1993.11,390.2194,1999.1693,382.4551,1994.3201,385.368,1991.4072,380.5188,1993.11,390.2194" style="stroke:#404040;stroke-width:1.2;"/><text fill="#000000" font-family="sans-serif" font-size="36" lengthAdjust="spacing" textLength="398.1797" x="2009.87" y="256.9805">describedUnitOfMeasure</text></g><!--link DescriptorVariable to ControlledVocabularyEntry--><g class="link" data-entity-1="ent0007" data-entity-2="ent0002" data-link-type="dependency" data-source-line="33" id="lnk13"><path codeLine="33" d="M2066.47,92.7794 C2192.29,117.6894 2372.34,162.1394 2413.87,218.6094 C2499.12,334.5394 2340.0407,418.8678 2181.9107,471.7078" fill="none" id="DescriptorVariable-to-ControlledVocabularyEntry-5" style="stroke:#404040;stroke-width:1.2;stroke-dasharray:7,7;"/><polygon fill="#404040" points="2176.22,473.6094,2186.0238,474.5508,2180.9622,472.0247,2183.4883,466.9632,2176.22,473.6094" style="stroke:#404040;stroke-width:1.2;"/><text fill="#000000" font-family="sans-serif" font-size="36" lengthAdjust="spacing" textLength="354.252" x="2433.87" y="256.9805">hasIntendedDataType</text></g><!--link DescriptorVariable to ControlledVocabularyEntry--><g class="link" data-entity-1="ent0007" data-entity-2="ent0002" data-link-type="dependency" data-source-line="34" id="lnk14"><path codeLine="34" d="M2066.77,73.3894 C2281.57,81.0694 2702.42,109.9594 2793.87,218.6094 C2975.82,434.8094 2493.3057,502.7451 2181.9157,524.2951" fill="none" id="DescriptorVariable-to-ControlledVocabularyEntry-6" style="stroke:#404040;stroke-width:1.2;stroke-dasharray:7,7;"/><polygon fill="#404040" points="2175.93,524.7094,2185.1847,528.0785,2180.9181,524.3642,2184.6324,520.0976,2175.93,524.7094" style="stroke:#404040;stroke-width:1.2;"/><text fill="#000000" font-family="sans-serif" font-size="36" lengthAdjust="spacing" textLength="308.1621" x="2819.87" y="256.9805">unitOfMeasureKind</text></g><!--link DescriptorValueDomain to ControlledVocabularyEntry--><g class="link" data-entity-1="ent0015" data-entity-2="ent0002" data-link-type="dependency" data-source-line="36" id="lnk16"><path codeLine="36" d="M3171.27,93.6994 C3175.83,134.2594 3178.77,218.4494 3133.87,265.6094 C3004.51,401.4594 2491.5834,477.2179 2182.0134,511.5579" fill="none" id="DescriptorValueDomain-to-ControlledVocabularyEntry" style="stroke:#404040;stroke-width:1.2;stroke-dasharray:7,7;"/><polygon fill="#404040" points="2176.05,512.2194,2185.4361,515.2027,2181.0195,511.6681,2184.5541,507.2515,2176.05,512.2194" style="stroke:#404040;stroke-width:1.2;"/><text fill="#000000" font-family="sans-serif" font-size="36" lengthAdjust="spacing" textLength="386.1914" x="3160.87" y="256.9805">recommendedDataType</text></g><!--link ValueAndConceptDescription to ControlledVocabularyEntry--><g class="link" data-entity-1="ent0017" data-entity-2="ent0002" data-link-type="dependency" data-source-line="38" id="lnk18"><path codeLine="38" d="M3681.84,93.8194 C3656.56,122.2394 3613.45,172.3194 3580.87,218.6094 C3566.87,238.4894 3572.94,251.8894 3552.87,265.6094 C3332.88,415.9094 2574.4336,489.966 2182.1236,519.036" fill="none" id="ValueAndConceptDescription-to-ControlledVocabularyEntry" style="stroke:#404040;stroke-width:1.2;stroke-dasharray:7,7;"/><polygon fill="#404040" points="2176.14,519.4794,2185.411,522.8034,2181.1263,519.1099,2184.8198,514.8252,2176.14,519.4794" style="stroke:#404040;stroke-width:1.2;"/><text fill="#000000" font-family="sans-serif" font-size="36" lengthAdjust="spacing" textLength="218.0918" x="3581.87" y="256.9805">formatPattern</text></g><!--link ValueAndConceptDescription to ControlledVocabularyEntry--><g class="link" data-entity-1="ent0017" data-entity-2="ent0002" data-link-type="dependency" data-source-line="39" id="lnk19"><path codeLine="39" d="M3730.69,93.7694 C3774.09,132.6294 3848.34,211.9394 3801.87,265.6094 C3696.7,387.0594 2659.3322,480.2575 2182.0022,517.1075" fill="none" id="ValueAndConceptDescription-to-ControlledVocabularyEntry-1" style="stroke:#404040;stroke-width:1.2;stroke-dasharray:7,7;"/><polygon fill="#404040" points="2176.02,517.5694,2185.3012,520.8648,2181.0052,517.1845,2184.6854,512.8885,2176.02,517.5694" style="stroke:#404040;stroke-width:1.2;"/><text fill="#000000" font-family="sans-serif" font-size="36" lengthAdjust="spacing" textLength="280.1426" x="3816.87" y="256.9805">logicalExpression</text></g><?plantuml-src fLDDRzD05BpxLwoQ6qXMsb8ELHKfD8c442egfHVKmylkSxtAVbXldoa6yTzPEwdZD4w3J7AnPlRDpXkFMRD1SUqTapS6rRsNi2mDK3MFK9NaMg6GcgJ1zJFQWYjXqIwHGX9MsXL0O4N8GVadxHv51YPWXvaI-QUxNCkLmn34QNhM8GdSAc0XpYx67THvXGtQ1HLcK1fUHAzVzIyKv-yxf3GGjNydOdtTjJUUnEZTkFv7y8CdXVGIxKh5GMRIov9n2u-JFqcobZuvcD69W70uGN5rfO3XhYfmCX6ZnNH-CJjlZBx5ch_530cTH74fji_VJzFqpKDxw1vCMHy8qM5CUCiwi3ju0_weJoyytN2EjC-s_bxS-12NtUnwYmN55-0uhWEaOMcmsR875wDvyqlwk3ITl9BCPNobGSRCKNrpcc-opmYX91mabKFu60USGZNRv3r8f-mw-QITUivardWjsDDE9FjmcqWFTUpsh7IIjNT3Peky2bg2QTSVec60Cqzsw7p41yqTAC80fRuU393vfnh4pspcBMYtruIMwIt3bZsQ9qflxUus6oEDpDIfE2wnu6VzM9x6pM6wjVJAaQCzZHq1_WBCIEv_X8n_h3ix_rb_gQ5k_by0?></g></svg>