<svg xmlns="http://www.w3.org/2000/svg" xmlns:xlink="http://www.w3.org/1999/xlink" contentStyleType="text/css" data-diagram-type="CLASS" height="497px" preserveAspectRatio="none" style="width:6853px;height:497px;background:#FFFFFF;" version="1.1" viewBox="0 0 6853 497" width="6853px" zoomAndPan="magnify"><?plantuml 1.2026.3?><defs/><g><g class="title" data-source-line="1"><text fill="#000000" font-family="sans-serif" font-size="14" font-weight="700" lengthAdjust="spacing" textLength="71.5723" x="3387.6704" y="24.5332">XsdAnyUri</text></g><!--class XsdAnyUri--><g class="entity" data-qualified-name="XsdAnyUri" data-source-line="16" id="ent0002"><rect fill="#FAE5D3" height="93.0156" rx="2.5" ry="2.5" style="stroke:#404040;stroke-width:0.5;" width="192.1426" x="2881" y="390.6094"/><text fill="#000000" font-family="sans-serif" font-size="36" font-style="italic" lengthAdjust="spacing" textLength="190.1426" x="2882" y="432.9805">&#171;dataType&#187;</text><text fill="#000000" font-family="sans-serif" font-size="30" lengthAdjust="spacing" textLength="141.709" x="2906.2168" y="472.0332">XsdAnyUri</text></g><!--class CompositeProfile--><g class="entity" data-qualified-name="CompositeProfile" data-source-line="17" id="ent0003"><rect fill="#EEEEEE" height="47.7344" rx="2.5" ry="2.5" style="stroke:#404040;stroke-width:0.5;" width="234.4277" x="7" y="45.6094"/><text fill="#000000" font-family="sans-serif" font-size="30" font-style="italic" lengthAdjust="spacing" textLength="228.4277" x="10" y="81.752">CompositeProfile</text></g><!--class Dataset--><g class="entity" data-qualified-name="Dataset" data-source-line="19" id="ent0005"><rect fill="#EEEEEE" height="47.7344" rx="2.5" ry="2.5" style="stroke:#404040;stroke-width:0.5;" width="109.3887" x="261.5" y="45.6094"/><text fill="#000000" font-family="sans-serif" font-size="30" lengthAdjust="spacing" textLength="103.3887" x="264.5" y="81.752">Dataset</text></g><!--class DataDownload--><g class="entity" data-qualified-name="DataDownload" data-source-line="21" id="ent0007"><rect fill="#EEEEEE" height="47.7344" rx="2.5" ry="2.5" style="stroke:#404040;stroke-width:0.5;" width="202.7871" x="472.5" y="45.6094"/><text fill="#000000" font-family="sans-serif" font-size="30" lengthAdjust="spacing" textLength="196.7871" x="475.5" y="81.752">DataDownload</text></g><!--class WebAPI--><g class="entity" data-qualified-name="WebAPI" data-source-line="25" id="ent0011"><rect fill="#EEEEEE" height="47.7344" rx="2.5" ry="2.5" style="stroke:#404040;stroke-width:0.5;" width="116.0391" x="895" y="45.6094"/><text fill="#000000" font-family="sans-serif" font-size="30" lengthAdjust="spacing" textLength="110.0391" x="898" y="81.752">WebAPI</text></g><!--class ActionResult--><g class="entity" data-qualified-name="ActionResult" data-source-line="27" id="ent0013"><rect fill="#EEEEEE" height="47.7344" rx="2.5" ry="2.5" style="stroke:#404040;stroke-width:0.5;" width="174.4131" x="1031" y="45.6094"/><text fill="#000000" font-family="sans-serif" font-size="30" lengthAdjust="spacing" textLength="168.4131" x="1034" y="81.752">ActionResult</text></g><!--class DefinedTerm--><g class="entity" data-qualified-name="DefinedTerm" data-source-line="29" id="ent0015"><rect fill="#EEEEEE" height="47.7344" rx="2.5" ry="2.5" style="stroke:#404040;stroke-width:0.5;" width="179.3936" x="1244.5" y="45.6094"/><text fill="#000000" font-family="sans-serif" font-size="30" lengthAdjust="spacing" textLength="173.3936" x="1247.5" y="81.752">DefinedTerm</text></g><!--class Identifier--><g class="entity" data-qualified-name="Identifier" data-source-line="32" id="ent0018"><rect fill="#EEEEEE" height="47.7344" rx="2.5" ry="2.5" style="stroke:#404040;stroke-width:0.5;" width="121.0635" x="1443.5" y="45.6094"/><text fill="#000000" font-family="sans-serif" font-size="30" lengthAdjust="spacing" textLength="115.0635" x="1446.5" y="81.752">Identifier</text></g><!--class AdditionalProperty--><g class="entity" data-qualified-name="AdditionalProperty" data-source-line="34" id="ent0020"><rect fill="#EEEEEE" height="47.7344" rx="2.5" ry="2.5" style="stroke:#404040;stroke-width:0.5;" width="251.1416" x="1584.5" y="45.6094"/><text fill="#000000" font-family="sans-serif" font-size="30" lengthAdjust="spacing" textLength="245.1416" x="1587.5" y="81.752">AdditionalProperty</text></g><!--class Reference--><g class="entity" data-qualified-name="Reference" data-source-line="36" id="ent0022"><rect fill="#EEEEEE" height="47.7344" rx="2.5" ry="2.5" style="stroke:#404040;stroke-width:0.5;" width="144.4131" x="1856" y="45.6094"/><text fill="#000000" font-family="sans-serif" font-size="30" lengthAdjust="spacing" textLength="138.4131" x="1859" y="81.752">Reference</text></g><!--class ProvActivity--><g class="entity" data-qualified-name="ProvActivity" data-source-line="39" id="ent0025"><rect fill="#EEEEEE" height="47.7344" rx="2.5" ry="2.5" style="stroke:#404040;stroke-width:0.5;" width="162.6943" x="2020.5" y="45.6094"/><text fill="#000000" font-family="sans-serif" font-size="30" lengthAdjust="spacing" textLength="156.6943" x="2023.5" y="81.752">ProvActivity</text></g><!--class DerivedFrom--><g class="entity" data-qualified-name="DerivedFrom" data-source-line="41" id="ent0027"><rect fill="#EEEEEE" height="47.7344" rx="2.5" ry="2.5" style="stroke:#404040;stroke-width:0.5;" width="179.3643" x="2203.5" y="45.6094"/><text fill="#000000" font-family="sans-serif" font-size="30" lengthAdjust="spacing" textLength="173.3643" x="2206.5" y="81.752">DerivedFrom</text></g><!--class CatalogRecord--><g class="entity" data-qualified-name="CatalogRecord" data-source-line="44" id="ent0030"><rect fill="#EEEEEE" height="47.7344" rx="2.5" ry="2.5" style="stroke:#404040;stroke-width:0.5;" width="206.1123" x="2403" y="45.6094"/><text fill="#000000" font-family="sans-serif" font-size="30" lengthAdjust="spacing" textLength="200.1123" x="2406" y="81.752">CatalogRecord</text></g><!--class CdifConceptOrTerm--><g class="entity" data-qualified-name="CdifConceptOrTerm" data-source-line="46" id="ent0032"><rect fill="#EEEEEE" height="47.7344" rx="2.5" ry="2.5" style="stroke:#404040;stroke-width:0.5;" width="274.4033" x="2629" y="45.6094"/><text fill="#000000" font-family="sans-serif" font-size="30" lengthAdjust="spacing" textLength="268.4033" x="2632" y="81.752">CdifConceptOrTerm</text></g><!--class VariableMeasured--><g class="entity" data-qualified-name="VariableMeasured" data-source-line="48" id="ent0034"><rect fill="#EEEEEE" height="47.7344" rx="2.5" ry="2.5" style="stroke:#404040;stroke-width:0.5;" width="249.4717" x="2923.5" y="45.6094"/><text fill="#000000" font-family="sans-serif" font-size="30" lengthAdjust="spacing" textLength="243.4717" x="2926.5" y="81.752">VariableMeasured</text></g><!--class SpatialExtent--><g class="entity" data-qualified-name="SpatialExtent" data-source-line="50" id="ent0036"><rect fill="#EEEEEE" height="47.7344" rx="2.5" ry="2.5" style="stroke:#404040;stroke-width:0.5;" width="182.7773" x="3192.5" y="45.6094"/><text fill="#000000" font-family="sans-serif" font-size="30" lengthAdjust="spacing" textLength="176.7773" x="3195.5" y="81.752">SpatialExtent</text></g><!--class QualityMeasure--><g class="entity" data-qualified-name="QualityMeasure" data-source-line="52" id="ent0038"><rect fill="#EEEEEE" height="47.7344" rx="2.5" ry="2.5" style="stroke:#404040;stroke-width:0.5;" width="216.0879" x="3396" y="45.6094"/><text fill="#000000" font-family="sans-serif" font-size="30" lengthAdjust="spacing" textLength="210.0879" x="3399" y="81.752">QualityMeasure</text></g><!--class QualityMeasurement--><g class="entity" data-qualified-name="QualityMeasurement" data-source-line="54" id="ent0040"><rect fill="#EEEEEE" height="47.7344" rx="2.5" ry="2.5" style="stroke:#404040;stroke-width:0.5;" width="282.7822" x="3632.5" y="45.6094"/><text fill="#000000" font-family="sans-serif" font-size="30" lengthAdjust="spacing" textLength="276.7822" x="3635.5" y="81.752">QualityMeasurement</text></g><!--class AbstractGeometry--><g class="entity" data-qualified-name="AbstractGeometry" data-source-line="56" id="ent0042"><rect fill="#EEEEEE" height="47.7344" rx="2.5" ry="2.5" style="stroke:#404040;stroke-width:0.5;" width="247.7432" x="3936" y="45.6094"/><text fill="#000000" font-family="sans-serif" font-size="30" font-style="italic" lengthAdjust="spacing" textLength="241.7432" x="3939" y="81.752">AbstractGeometry</text></g><!--class Geometry--><g class="entity" data-qualified-name="Geometry" data-source-line="58" id="ent0044"><rect fill="#EEEEEE" height="47.7344" rx="2.5" ry="2.5" style="stroke:#404040;stroke-width:0.5;" width="137.7041" x="4204" y="45.6094"/><text fill="#000000" font-family="sans-serif" font-size="30" lengthAdjust="spacing" textLength="131.7041" x="4207" y="81.752">Geometry</text></g><!--class Instant--><g class="entity" data-qualified-name="Instant" data-source-line="61" id="ent0047"><rect fill="#EEEEEE" height="47.7344" rx="2.5" ry="2.5" style="stroke:#404040;stroke-width:0.5;" width="96.0586" x="4362" y="45.6094"/><text fill="#000000" font-family="sans-serif" font-size="30" lengthAdjust="spacing" textLength="90.0586" x="4365" y="81.752">Instant</text></g><!--class TimePosition--><g class="entity" data-qualified-name="TimePosition" data-source-line="63" id="ent0049"><rect fill="#EEEEEE" height="47.7344" rx="2.5" ry="2.5" style="stroke:#404040;stroke-width:0.5;" width="179.3936" x="4478.5" y="45.6094"/><text fill="#000000" font-family="sans-serif" font-size="30" lengthAdjust="spacing" textLength="173.3936" x="4481.5" y="81.752">TimePosition</text></g><!--class InstanceVariable--><g class="entity" data-qualified-name="InstanceVariable" data-source-line="65" id="ent0051"><rect fill="#EEEEEE" height="47.7344" rx="2.5" ry="2.5" style="stroke:#404040;stroke-width:0.5;" width="229.4766" x="4677.5" y="45.6094"/><text fill="#000000" font-family="sans-serif" font-size="30" lengthAdjust="spacing" textLength="223.4766" x="4680.5" y="81.752">InstanceVariable</text></g><!--class AbstractMapping--><g class="entity" data-qualified-name="AbstractMapping" data-source-line="67" id="ent0053"><rect fill="#EEEEEE" height="47.7344" rx="2.5" ry="2.5" style="stroke:#404040;stroke-width:0.5;" width="231.1172" x="4926.5" y="45.6094"/><text fill="#000000" font-family="sans-serif" font-size="30" font-style="italic" lengthAdjust="spacing" textLength="225.1172" x="4929.5" y="81.752">AbstractMapping</text></g><!--class AbstractDataSet--><g class="entity" data-qualified-name="AbstractDataSet" data-source-line="69" id="ent0055"><rect fill="#EEEEEE" height="47.7344" rx="2.5" ry="2.5" style="stroke:#404040;stroke-width:0.5;" width="224.4375" x="5178" y="45.6094"/><text fill="#000000" font-family="sans-serif" font-size="30" font-style="italic" lengthAdjust="spacing" textLength="218.4375" x="5181" y="81.752">AbstractDataSet</text></g><!--class PrimaryKey--><g class="entity" data-qualified-name="PrimaryKey" data-source-line="71" id="ent0057"><rect fill="#EEEEEE" height="47.7344" rx="2.5" ry="2.5" style="stroke:#404040;stroke-width:0.5;" width="161.0244" x="5422.5" y="45.6094"/><text fill="#000000" font-family="sans-serif" font-size="30" lengthAdjust="spacing" textLength="155.0244" x="5425.5" y="81.752">PrimaryKey</text></g><!--class Statistics--><g class="entity" data-qualified-name="Statistics" data-source-line="73" id="ent0059"><rect fill="#EEEEEE" height="47.7344" rx="2.5" ry="2.5" style="stroke:#404040;stroke-width:0.5;" width="126.0293" x="5604" y="45.6094"/><text fill="#000000" font-family="sans-serif" font-size="30" lengthAdjust="spacing" textLength="120.0293" x="5607" y="81.752">Statistics</text></g><!--class SubstantiveValueDomain--><g class="entity" data-qualified-name="SubstantiveValueDomain" data-source-line="75" id="ent0061"><rect fill="#EEEEEE" height="47.7344" rx="2.5" ry="2.5" style="stroke:#404040;stroke-width:0.5;" width="342.8701" x="5750.5" y="45.6094"/><text fill="#000000" font-family="sans-serif" font-size="30" lengthAdjust="spacing" textLength="336.8701" x="5753.5" y="81.752">SubstantiveValueDomain</text></g><!--class SentinelValueDomain--><g class="entity" data-qualified-name="SentinelValueDomain" data-source-line="77" id="ent0063"><rect fill="#EEEEEE" height="47.7344" rx="2.5" ry="2.5" style="stroke:#404040;stroke-width:0.5;" width="294.5156" x="6113.5" y="45.6094"/><text fill="#000000" font-family="sans-serif" font-size="30" lengthAdjust="spacing" textLength="288.5156" x="6116.5" y="81.752">SentinelValueDomain</text></g><!--class DimensionGroup--><g class="entity" data-qualified-name="DimensionGroup" data-source-line="79" id="ent0065"><rect fill="#EEEEEE" height="47.7344" rx="2.5" ry="2.5" style="stroke:#404040;stroke-width:0.5;" width="231.1025" x="6428.5" y="45.6094"/><text fill="#000000" font-family="sans-serif" font-size="30" lengthAdjust="spacing" textLength="225.1025" x="6431.5" y="81.752">DimensionGroup</text></g><!--class ForeignKey--><g class="entity" data-qualified-name="ForeignKey" data-source-line="81" id="ent0067"><rect fill="#EEEEEE" height="47.7344" rx="2.5" ry="2.5" style="stroke:#404040;stroke-width:0.5;" width="159.4131" x="6679.5" y="45.6094"/><text fill="#000000" font-family="sans-serif" font-size="30" lengthAdjust="spacing" textLength="153.4131" x="6682.5" y="81.752">ForeignKey</text></g><!--link CompositeProfile to XsdAnyUri--><g class="link" data-entity-1="ent0003" data-entity-2="ent0002" data-link-type="dependency" data-source-line="18" id="lnk4"><path codeLine="18" d="M119.55,93.7594 C113.08,135.1794 106.63,221.7294 155,265.6094 C258.18,359.2094 2392.4021,420.7409 2874.9321,433.4909" fill="none" id="CompositeProfile-to-XsdAnyUri" style="stroke:#404040;stroke-width:1.2;stroke-dasharray:7,7;"/><polygon fill="#404040" points="2880.93,433.6494,2872.0388,429.413,2875.9317,433.5173,2871.8275,437.4103,2880.93,433.6494" style="stroke:#404040;stroke-width:1.2;"/><text fill="#000000" font-family="sans-serif" font-size="36" lengthAdjust="spacing" textLength="136.0723" x="156" y="256.9805">identifier</text></g><!--link Dataset to XsdAnyUri--><g class="link" data-entity-1="ent0005" data-entity-2="ent0002" data-link-type="dependency" data-source-line="20" id="lnk6"><path codeLine="20" d="M307.83,93.8894 C295.14,134.7394 276.5,219.3694 321,265.6094 C411.56,359.7194 2408.4023,420.433 2874.6323,433.363" fill="none" id="Dataset-to-XsdAnyUri" style="stroke:#404040;stroke-width:1.2;stroke-dasharray:7,7;"/><polygon fill="#404040" points="2880.63,433.5294,2871.7443,429.2814,2875.6319,433.3908,2871.5226,437.2783,2880.63,433.5294" style="stroke:#404040;stroke-width:1.2;"/><text fill="#000000" font-family="sans-serif" font-size="36" lengthAdjust="spacing" textLength="40.0078" x="322" y="256.9805">url</text></g><!--link DataDownload to XsdAnyUri--><g class="link" data-entity-1="ent0007" data-entity-2="ent0002" data-link-type="dependency" data-source-line="22" id="lnk8"><path codeLine="22" d="M521.8,93.6894 C446.8,129.8594 323.72,202.3094 383,265.6094 C470.08,358.5994 2415.8425,420.0264 2874.9325,433.2664" fill="none" id="DataDownload-to-XsdAnyUri" style="stroke:#404040;stroke-width:1.2;stroke-dasharray:7,7;"/><polygon fill="#404040" points="2880.93,433.4394,2872.0491,429.1816,2875.9321,433.2952,2871.8184,437.1783,2880.93,433.4394" style="stroke:#404040;stroke-width:1.2;"/><text fill="#000000" font-family="sans-serif" font-size="36" lengthAdjust="spacing" textLength="164.0742" x="384" y="256.9805">contentUrl</text></g><!--link DataDownload to XsdAnyUri--><g class="link" data-entity-1="ent0007" data-entity-2="ent0002" data-link-type="dependency" data-source-line="23" id="lnk9"><path codeLine="23" d="M565.15,93.7494 C551.28,134.3694 530.27,218.6694 574,265.6094 C654.02,351.5094 2436.7035,417.6939 2874.8135,432.7039" fill="none" id="DataDownload-to-XsdAnyUri-1" style="stroke:#404040;stroke-width:1.2;stroke-dasharray:7,7;"/><polygon fill="#404040" points="2880.81,432.9094,2871.9522,428.6036,2875.8129,432.7382,2871.6783,436.5989,2880.81,432.9094" style="stroke:#404040;stroke-width:1.2;"/><text fill="#000000" font-family="sans-serif" font-size="36" lengthAdjust="spacing" textLength="190.0547" x="575" y="256.9805">conformsTo</text></g><!--link DataDownload to XsdAnyUri--><g class="link" data-entity-1="ent0007" data-entity-2="ent0002" data-link-type="dependency" data-source-line="24" id="lnk10"><path codeLine="24" d="M612.81,93.7794 C654.61,120.1394 721.25,166.3494 767,218.6094 C782.87,236.7394 773.64,252.7394 794,265.6094 C972.29,378.2994 2476.1719,423.5874 2874.8119,433.6874" fill="none" id="DataDownload-to-XsdAnyUri-2" style="stroke:#404040;stroke-width:1.2;stroke-dasharray:7,7;"/><polygon fill="#404040" points="2880.81,433.8394,2871.9142,429.6127,2875.8116,433.7127,2871.7116,437.6101,2880.81,433.8394" style="stroke:#404040;stroke-width:1.2;"/><text fill="#000000" font-family="sans-serif" font-size="36" lengthAdjust="spacing" textLength="136.0723" x="795" y="256.9805">identifier</text></g><!--link WebAPI to XsdAnyUri--><g class="link" data-entity-1="ent0011" data-entity-2="ent0002" data-link-type="dependency" data-source-line="26" id="lnk12"><path codeLine="26" d="M945.21,93.8394 C933.16,134.6094 915.72,219.1294 960,265.6094 C1093.81,406.0694 2491.4104,431.0033 2874.7404,435.2233" fill="none" id="WebAPI-to-XsdAnyUri" style="stroke:#404040;stroke-width:1.2;stroke-dasharray:7,7;"/><polygon fill="#404040" points="2880.74,435.2894,2871.7846,431.1905,2875.7403,435.2343,2871.6965,439.1901,2880.74,435.2894" style="stroke:#404040;stroke-width:1.2;"/><text fill="#000000" font-family="sans-serif" font-size="36" lengthAdjust="spacing" textLength="136.0723" x="961" y="256.9805">identifier</text></g><!--link ActionResult to XsdAnyUri--><g class="link" data-entity-1="ent0013" data-entity-2="ent0002" data-link-type="dependency" data-source-line="28" id="lnk14"><path codeLine="28" d="M1113.76,93.6794 C1105.86,139.8194 1091.63,241.0994 1114,265.6094 C1234.08,397.1794 2510.4209,428.3563 2874.8909,434.6163" fill="none" id="ActionResult-to-XsdAnyUri" style="stroke:#404040;stroke-width:1.2;stroke-dasharray:7,7;"/><polygon fill="#404040" points="2880.89,434.7194,2871.96,430.5654,2875.8907,434.6335,2871.8226,438.5642,2880.89,434.7194" style="stroke:#404040;stroke-width:1.2;"/><text fill="#000000" font-family="sans-serif" font-size="36" lengthAdjust="spacing" textLength="190.0547" x="1115" y="256.9805">conformsTo</text></g><!--link DefinedTerm to XsdAnyUri--><g class="link" data-entity-1="ent0015" data-entity-2="ent0002" data-link-type="dependency" data-source-line="30" id="lnk16"><path codeLine="30" d="M1325.2,93.9194 C1311.57,134.4494 1291.15,218.0894 1334,265.6094 C1438.12,381.0894 2539.0028,423.0873 2874.9028,433.2873" fill="none" id="DefinedTerm-to-XsdAnyUri" style="stroke:#404040;stroke-width:1.2;stroke-dasharray:7,7;"/><polygon fill="#404040" points="2880.9,433.4694,2872.0256,429.198,2875.9023,433.3176,2871.7827,437.1944,2880.9,433.4694" style="stroke:#404040;stroke-width:1.2;"/><text fill="#000000" font-family="sans-serif" font-size="36" lengthAdjust="spacing" textLength="290.127" x="1335" y="256.9805">inDefinedTermSet</text></g><!--link DefinedTerm to XsdAnyUri--><g class="link" data-entity-1="ent0015" data-entity-2="ent0002" data-link-type="dependency" data-source-line="31" id="lnk17"><path codeLine="31" d="M1413.05,93.6294 C1478.01,116.1294 1568.56,156.2194 1627,218.6094 C1642.52,235.1794 1628.9,251.9094 1647,265.6094 C1841.42,412.7894 2602.3503,433.2125 2874.5403,435.7925" fill="none" id="DefinedTerm-to-XsdAnyUri-1" style="stroke:#404040;stroke-width:1.2;stroke-dasharray:7,7;"/><polygon fill="#404040" points="2880.54,435.8494,2871.5783,431.7643,2875.5402,435.802,2871.5025,439.7639,2880.54,435.8494" style="stroke:#404040;stroke-width:1.2;"/><text fill="#000000" font-family="sans-serif" font-size="36" lengthAdjust="spacing" textLength="234.1582" x="1648" y="256.9805">additionalType</text></g><!--link Identifier to XsdAnyUri--><g class="link" data-entity-1="ent0018" data-entity-2="ent0002" data-link-type="dependency" data-source-line="33" id="lnk19"><path codeLine="33" d="M1564.56,91.0294 C1666.51,125.8494 1863.75,195.1794 1888,218.6094 C1904.33,234.3794 1890.11,251.6294 1908,265.6094 C2058.95,383.5694 2641.4763,421.5054 2874.8763,432.1754" fill="none" id="Identifier-to-XsdAnyUri" style="stroke:#404040;stroke-width:1.2;stroke-dasharray:7,7;"/><polygon fill="#404040" points="2880.87,432.4494,2872.0621,428.0425,2875.8752,432.221,2871.6967,436.0342,2880.87,432.4494" style="stroke:#404040;stroke-width:1.2;"/><text fill="#000000" font-family="sans-serif" font-size="36" lengthAdjust="spacing" textLength="40.0078" x="1909" y="256.9805">url</text></g><!--link AdditionalProperty to XsdAnyUri--><g class="link" data-entity-1="ent0020" data-entity-2="ent0002" data-link-type="dependency" data-source-line="35" id="lnk21"><path codeLine="35" d="M1769.16,93.6894 C1823.81,117.6394 1904.02,159.8794 1955,218.6094 C1969.88,235.7494 1957.19,251.5394 1975,265.6094 C2114.86,376.0794 2651.8801,418.0218 2874.7401,430.9518" fill="none" id="AdditionalProperty-to-XsdAnyUri" style="stroke:#404040;stroke-width:1.2;stroke-dasharray:7,7;"/><polygon fill="#404040" points="2880.73,431.2994,2871.9768,426.7848,2875.7384,431.0098,2871.5134,434.7714,2880.73,431.2994" style="stroke:#404040;stroke-width:1.2;"/><text fill="#000000" font-family="sans-serif" font-size="36" lengthAdjust="spacing" textLength="144.1055" x="1976" y="256.9805">unitCode</text></g><!--link Reference to XsdAnyUri--><g class="link" data-entity-1="ent0022" data-entity-2="ent0002" data-link-type="dependency" data-source-line="37" id="lnk23"><path codeLine="37" d="M1969.55,93.8394 C2012.97,119.7494 2080.91,165.1294 2126,218.6094 C2141.12,236.5394 2131.34,251.3994 2150,265.6094 C2264.28,352.6694 2682.3734,405.7274 2874.8734,426.1174" fill="none" id="Reference-to-XsdAnyUri" style="stroke:#404040;stroke-width:1.2;stroke-dasharray:7,7;"/><polygon fill="#404040" points="2880.84,426.7494,2872.3114,421.8236,2875.8678,426.2227,2871.4687,429.7791,2880.84,426.7494" style="stroke:#404040;stroke-width:1.2;"/><text fill="#000000" font-family="sans-serif" font-size="36" lengthAdjust="spacing" textLength="40.0078" x="2151" y="256.9805">url</text></g><!--link Reference to XsdAnyUri--><g class="link" data-entity-1="ent0022" data-entity-2="ent0002" data-link-type="dependency" data-source-line="38" id="lnk24"><path codeLine="38" d="M1994.86,93.6194 C2053.89,116.9494 2138.77,158.2394 2193,218.6094 C2208.17,235.4994 2195.55,251.0894 2213,265.6094 C2314.07,349.7094 2692.8816,403.3839 2874.7316,424.9139" fill="none" id="Reference-to-XsdAnyUri-1" style="stroke:#404040;stroke-width:1.2;stroke-dasharray:7,7;"/><polygon fill="#404040" points="2880.69,425.6194,2872.2227,420.589,2875.7247,425.0315,2871.2821,428.5335,2880.69,425.6194" style="stroke:#404040;stroke-width:1.2;"/><text fill="#000000" font-family="sans-serif" font-size="36" lengthAdjust="spacing" textLength="118.0723" x="2214" y="256.9805">relation</text></g><!--link ProvActivity to XsdAnyUri--><g class="link" data-entity-1="ent0025" data-entity-2="ent0002" data-link-type="dependency" data-source-line="40" id="lnk26"><path codeLine="40" d="M2157.72,93.6294 C2210.37,117.8694 2288.47,160.5794 2338,218.6094 C2352.74,235.8794 2340.91,250.6594 2358,265.6094 C2507.24,396.1394 2741.9384,427.2822 2874.9484,434.3222" fill="none" id="ProvActivity-to-XsdAnyUri" style="stroke:#404040;stroke-width:1.2;stroke-dasharray:7,7;"/><polygon fill="#404040" points="2880.94,434.6394,2872.164,430.1693,2875.947,434.3751,2871.7412,438.1581,2880.94,434.6394" style="stroke:#404040;stroke-width:1.2;"/><text fill="#000000" font-family="sans-serif" font-size="36" lengthAdjust="spacing" textLength="78.0645" x="2359" y="256.9805">used</text></g><!--link DerivedFrom to XsdAnyUri--><g class="link" data-entity-1="ent0027" data-entity-2="ent0002" data-link-type="dependency" data-source-line="42" id="lnk28"><path codeLine="42" d="M2321.4,93.7194 C2353.75,121.0694 2406.79,169.1694 2443,218.6094 C2456.86,237.5294 2449.22,250.3094 2467,265.6094 C2586.23,368.2294 2763.5135,408.7491 2874.8335,425.0691" fill="none" id="DerivedFrom-to-XsdAnyUri" style="stroke:#404040;stroke-width:1.2;stroke-dasharray:7,7;"/><polygon fill="#404040" points="2880.77,425.9394,2872.4454,420.6762,2875.8229,425.2141,2871.285,428.5916,2880.77,425.9394" style="stroke:#404040;stroke-width:1.2;"/><text fill="#000000" font-family="sans-serif" font-size="36" lengthAdjust="spacing" textLength="40.0078" x="2468" y="256.9805">url</text></g><!--link DerivedFrom to XsdAnyUri--><g class="link" data-entity-1="ent0027" data-entity-2="ent0002" data-link-type="dependency" data-source-line="43" id="lnk29"><path codeLine="43" d="M2342.13,93.6494 C2390.52,118.4994 2463.71,162.2094 2510,218.6094 C2524.4,236.1594 2513.65,249.8594 2530,265.6094 C2627.23,359.2194 2775.2394,401.5486 2874.6894,420.8086" fill="none" id="DerivedFrom-to-XsdAnyUri-1" style="stroke:#404040;stroke-width:1.2;stroke-dasharray:7,7;"/><polygon fill="#404040" points="2880.58,421.9494,2872.5047,416.3111,2875.6712,420.9987,2870.9836,424.1652,2880.58,421.9494" style="stroke:#404040;stroke-width:1.2;"/><text fill="#000000" font-family="sans-serif" font-size="36" lengthAdjust="spacing" textLength="118.0723" x="2531" y="256.9805">relation</text></g><!--link CatalogRecord to XsdAnyUri--><g class="link" data-entity-1="ent0030" data-entity-2="ent0002" data-link-type="dependency" data-source-line="45" id="lnk31"><path codeLine="45" d="M2535.41,93.7994 C2568.16,120.8694 2620.95,168.3494 2655,218.6094 C2667.73,237.3994 2659.87,248.6894 2675,265.6094 C2730.89,328.1094 2809.8146,370.6972 2875.2146,398.7072" fill="none" id="CatalogRecord-to-XsdAnyUri" style="stroke:#404040;stroke-width:1.2;stroke-dasharray:7,7;"/><polygon fill="#404040" points="2880.73,401.0694,2874.0316,393.8491,2876.1338,399.1009,2870.882,401.203,2880.73,401.0694" style="stroke:#404040;stroke-width:1.2;"/><text fill="#000000" font-family="sans-serif" font-size="36" lengthAdjust="spacing" textLength="190.0547" x="2676" y="256.9805">conformsTo</text></g><!--link CdifConceptOrTerm to XsdAnyUri--><g class="link" data-entity-1="ent0032" data-entity-2="ent0002" data-link-type="dependency" data-source-line="47" id="lnk33"><path codeLine="47" d="M2784.94,93.6394 C2807.57,121.8694 2845.68,171.7694 2872,218.6094 C2883.12,238.3994 2882.49,244.9994 2892,265.6094 C2911.75,308.3994 2933.1137,351.0497 2950.6037,385.1797" fill="none" id="CdifConceptOrTerm-to-XsdAnyUri" style="stroke:#404040;stroke-width:1.2;stroke-dasharray:7,7;"/><polygon fill="#404040" points="2953.34,390.5194,2952.7953,380.6856,2951.0597,386.0696,2945.6757,384.334,2953.34,390.5194" style="stroke:#404040;stroke-width:1.2;"/><text fill="#000000" font-family="sans-serif" font-size="36" lengthAdjust="spacing" textLength="136.0723" x="2893" y="256.9805">identifier</text></g><!--link VariableMeasured to XsdAnyUri--><g class="link" data-entity-1="ent0034" data-entity-2="ent0002" data-link-type="dependency" data-source-line="49" id="lnk35"><path codeLine="49" d="M3048.4,93.6794 C3048.6,130.4394 3047.23,204.3894 3035,265.6094 C3026.33,308.9894 3011.7144,350.9251 2998.4244,384.7451" fill="none" id="VariableMeasured-to-XsdAnyUri" style="stroke:#404040;stroke-width:1.2;stroke-dasharray:7,7;"/><polygon fill="#404040" points="2996.23,390.3294,3003.2445,383.4159,2998.0587,385.6758,2995.7988,380.49,2996.23,390.3294" style="stroke:#404040;stroke-width:1.2;"/><text fill="#000000" font-family="sans-serif" font-size="36" lengthAdjust="spacing" textLength="136.0723" x="3042" y="256.9805">identifier</text></g><!--link SpatialExtent to XsdAnyUri--><g class="link" data-entity-1="ent0036" data-entity-2="ent0002" data-link-type="dependency" data-source-line="51" id="lnk37"><path codeLine="51" d="M3275.73,93.6994 C3261.23,132.1094 3228.5,210.3394 3184,265.6094 C3144.73,314.3894 3094.4587,355.4728 3050.9587,386.8028" fill="none" id="SpatialExtent-to-XsdAnyUri" style="stroke:#404040;stroke-width:1.2;stroke-dasharray:7,7;"/><polygon fill="#404040" points="3046.09,390.3094,3055.7307,388.2953,3050.1472,387.3872,3051.0553,381.8037,3046.09,390.3094" style="stroke:#404040;stroke-width:1.2;"/><text fill="#000000" font-family="sans-serif" font-size="36" lengthAdjust="spacing" textLength="136.0723" x="3215" y="256.9805">identifier</text></g><!--link QualityMeasure to XsdAnyUri--><g class="link" data-entity-1="ent0038" data-entity-2="ent0002" data-link-type="dependency" data-source-line="53" id="lnk39"><path codeLine="53" d="M3491.76,93.7394 C3469.65,133.6094 3419.48,215.7794 3357,265.6094 C3271.64,333.6894 3160.4621,378.882 3078.9521,406.052" fill="none" id="QualityMeasure-to-XsdAnyUri" style="stroke:#404040;stroke-width:1.2;stroke-dasharray:7,7;"/><polygon fill="#404040" points="3073.26,407.9494,3083.0631,408.8981,3078.0034,406.3682,3080.5332,401.3086,3073.26,407.9494" style="stroke:#404040;stroke-width:1.2;"/><text fill="#000000" font-family="sans-serif" font-size="36" lengthAdjust="spacing" textLength="136.0723" x="3405" y="256.9805">identifier</text></g><!--link QualityMeasurement to XsdAnyUri--><g class="link" data-entity-1="ent0040" data-entity-2="ent0002" data-link-type="dependency" data-source-line="55" id="lnk41"><path codeLine="55" d="M3753.49,93.6894 C3716.27,134.2294 3633.39,218.3894 3547,265.6094 C3392.24,350.1894 3196.2342,396.6778 3078.9342,418.9978" fill="none" id="QualityMeasurement-to-XsdAnyUri" style="stroke:#404040;stroke-width:1.2;stroke-dasharray:7,7;"/><polygon fill="#404040" points="3073.04,420.1194,3082.6291,422.3665,3077.9519,419.1847,3081.1337,414.5075,3073.04,420.1194" style="stroke:#404040;stroke-width:1.2;"/><text fill="#000000" font-family="sans-serif" font-size="36" lengthAdjust="spacing" textLength="136.0723" x="3616" y="256.9805">identifier</text></g><!--link AbstractGeometry to XsdAnyUri--><g class="link" data-entity-1="ent0042" data-entity-2="ent0002" data-link-type="dependency" data-source-line="57" id="lnk43"><path codeLine="57" d="M4031.96,93.7294 C3980.81,134.7194 3867.49,220.0694 3758,265.6094 C3523.02,363.3394 3229.9087,407.8363 3079.1287,425.6263" fill="none" id="AbstractGeometry-to-XsdAnyUri" style="stroke:#404040;stroke-width:1.2;stroke-dasharray:7,7;"/><polygon fill="#404040" points="3073.17,426.3294,3082.5767,429.2473,3078.1356,425.7435,3081.6393,421.3024,3073.17,426.3294" style="stroke:#404040;stroke-width:1.2;"/><text fill="#000000" font-family="sans-serif" font-size="36" lengthAdjust="spacing" textLength="136.0723" x="3847" y="256.9805">identifier</text></g><!--link Geometry to XsdAnyUri--><g class="link" data-entity-1="ent0044" data-entity-2="ent0002" data-link-type="dependency" data-source-line="59" id="lnk45"><path codeLine="59" d="M4247.85,93.6594 C4200.87,135.3094 4094.9,222.7794 3989,265.6094 C3670.42,394.4494 3263.4348,425.6792 3079.1348,433.3692" fill="none" id="Geometry-to-XsdAnyUri" style="stroke:#404040;stroke-width:1.2;stroke-dasharray:7,7;"/><polygon fill="#404040" points="3073.14,433.6194,3082.2989,437.2407,3078.1357,433.4109,3081.9654,429.2476,3073.14,433.6194" style="stroke:#404040;stroke-width:1.2;"/><text fill="#000000" font-family="sans-serif" font-size="36" lengthAdjust="spacing" textLength="136.0723" x="4074" y="256.9805">identifier</text></g><!--link Geometry to XsdAnyUri--><g class="link" data-entity-1="ent0044" data-entity-2="ent0002" data-link-type="dependency" data-source-line="60" id="lnk46"><path codeLine="60" d="M4273.71,93.7594 C4273.6,135.1794 4266.89,221.7294 4216,265.6094 C4044.98,413.0794 3339.9297,433.4127 3079.2997,435.8727" fill="none" id="Geometry-to-XsdAnyUri-1" style="stroke:#404040;stroke-width:1.2;stroke-dasharray:7,7;"/><polygon fill="#404040" points="3073.3,435.9294,3082.3374,439.8443,3078.2998,435.8822,3082.2618,431.8446,3073.3,435.9294" style="stroke:#404040;stroke-width:1.2;"/><text fill="#000000" font-family="sans-serif" font-size="36" lengthAdjust="spacing" textLength="47.9883" x="4249" y="256.9805">crs</text></g><!--link Instant to XsdAnyUri--><g class="link" data-entity-1="ent0047" data-entity-2="ent0002" data-link-type="dependency" data-source-line="62" id="lnk48"><path codeLine="62" d="M4404.48,93.9094 C4393.17,135.9794 4363.15,224.0894 4302,265.6094 C4101.25,401.9194 3349.4288,429.1881 3079.3388,434.6481" fill="none" id="Instant-to-XsdAnyUri" style="stroke:#404040;stroke-width:1.2;stroke-dasharray:7,7;"/><polygon fill="#404040" points="3073.34,434.7694,3082.419,438.5867,3078.339,434.6683,3082.2573,430.5883,3073.34,434.7694" style="stroke:#404040;stroke-width:1.2;"/><text fill="#000000" font-family="sans-serif" font-size="36" lengthAdjust="spacing" textLength="136.0723" x="4349" y="256.9805">identifier</text></g><!--link TimePosition to XsdAnyUri--><g class="link" data-entity-1="ent0049" data-entity-2="ent0002" data-link-type="dependency" data-source-line="64" id="lnk50"><path codeLine="64" d="M4566.3,93.7694 C4561.89,135.5994 4546.2,223.3494 4491,265.6094 C4378.21,351.9594 3394.6807,413.1161 3079.1907,430.6661" fill="none" id="TimePosition-to-XsdAnyUri" style="stroke:#404040;stroke-width:1.2;stroke-dasharray:7,7;"/><polygon fill="#404040" points="3073.2,430.9994,3082.4083,434.4933,3078.1923,430.7217,3081.9639,426.5057,3073.2,430.9994" style="stroke:#404040;stroke-width:1.2;"/><text fill="#000000" font-family="sans-serif" font-size="36" lengthAdjust="spacing" textLength="130.043" x="4531" y="256.9805">hasTRS</text></g><!--link InstanceVariable to XsdAnyUri--><g class="link" data-entity-1="ent0051" data-entity-2="ent0002" data-link-type="dependency" data-source-line="66" id="lnk52"><path codeLine="66" d="M4784.69,93.8294 C4770.02,136.1894 4732.62,225.3194 4667,265.6094 C4530.67,349.3194 3417.1518,413.3064 3079.2118,430.9564" fill="none" id="InstanceVariable-to-XsdAnyUri" style="stroke:#404040;stroke-width:1.2;stroke-dasharray:7,7;"/><polygon fill="#404040" points="3073.22,431.2694,3082.4164,434.7945,3078.2132,431.0086,3081.9991,426.8054,3073.22,431.2694" style="stroke:#404040;stroke-width:1.2;"/><text fill="#000000" font-family="sans-serif" font-size="36" lengthAdjust="spacing" textLength="136.0723" x="4718" y="256.9805">identifier</text></g><!--link AbstractMapping to XsdAnyUri--><g class="link" data-entity-1="ent0053" data-entity-2="ent0002" data-link-type="dependency" data-source-line="68" id="lnk54"><path codeLine="68" d="M5028.54,93.7494 C5002.31,136.3794 4939.86,226.5294 4860,265.6094 C4540.28,422.0594 3416.86,435.7898 3079.1,436.3298" fill="none" id="AbstractMapping-to-XsdAnyUri" style="stroke:#404040;stroke-width:1.2;stroke-dasharray:7,7;"/><polygon fill="#404040" points="3073.1,436.3394,3082.1064,440.325,3078.1,436.3314,3082.0936,432.325,3073.1,436.3394" style="stroke:#404040;stroke-width:1.2;"/><text fill="#000000" font-family="sans-serif" font-size="36" lengthAdjust="spacing" textLength="136.0723" x="4926" y="256.9805">identifier</text></g><!--link AbstractDataSet to XsdAnyUri--><g class="link" data-entity-1="ent0055" data-entity-2="ent0002" data-link-type="dependency" data-source-line="70" id="lnk56"><path codeLine="70" d="M5272.31,93.8694 C5238.21,136.6994 5158.68,227.1594 5068,265.6094 C4701.03,421.2194 3439.06,435.3655 3079.02,436.1955" fill="none" id="AbstractDataSet-to-XsdAnyUri" style="stroke:#404040;stroke-width:1.2;stroke-dasharray:7,7;"/><polygon fill="#404040" points="3073.02,436.2094,3082.0292,440.1886,3078.02,436.1978,3082.0108,432.1886,3073.02,436.2094" style="stroke:#404040;stroke-width:1.2;"/><text fill="#000000" font-family="sans-serif" font-size="36" lengthAdjust="spacing" textLength="136.0723" x="5145" y="256.9805">identifier</text></g><!--link PrimaryKey to XsdAnyUri--><g class="link" data-entity-1="ent0057" data-entity-2="ent0002" data-link-type="dependency" data-source-line="72" id="lnk58"><path codeLine="72" d="M5485.97,93.9294 C5453.1,136.8594 5376.19,227.4794 5287,265.6094 C5081.03,353.6694 3489.7059,417.3789 3079.0159,432.4789" fill="none" id="PrimaryKey-to-XsdAnyUri" style="stroke:#404040;stroke-width:1.2;stroke-dasharray:7,7;"/><polygon fill="#404040" points="3073.02,432.6994,3082.1609,436.366,3078.0166,432.5157,3081.867,428.3714,3073.02,432.6994" style="stroke:#404040;stroke-width:1.2;"/><text fill="#000000" font-family="sans-serif" font-size="36" lengthAdjust="spacing" textLength="136.0723" x="5362" y="256.9805">identifier</text></g><!--link Statistics to XsdAnyUri--><g class="link" data-entity-1="ent0059" data-entity-2="ent0002" data-link-type="dependency" data-source-line="74" id="lnk60"><path codeLine="74" d="M5655.69,93.8694 C5633.43,136.6994 5579.49,227.1694 5504,265.6094 C5284.2,377.5294 3514.4785,424.1039 3079.0985,433.9339" fill="none" id="Statistics-to-XsdAnyUri" style="stroke:#404040;stroke-width:1.2;stroke-dasharray:7,7;"/><polygon fill="#404040" points="3073.1,434.0694,3082.188,437.8652,3078.0987,433.9565,3082.0074,429.8672,3073.1,434.0694" style="stroke:#404040;stroke-width:1.2;"/><text fill="#000000" font-family="sans-serif" font-size="36" lengthAdjust="spacing" textLength="136.0723" x="5565" y="256.9805">identifier</text></g><!--link SubstantiveValueDomain to XsdAnyUri--><g class="link" data-entity-1="ent0061" data-entity-2="ent0002" data-link-type="dependency" data-source-line="76" id="lnk62"><path codeLine="76" d="M5905.37,93.6894 C5872.9,136.6294 5796.37,227.8794 5707,265.6094 C5460.3,369.7694 3534.9182,422.603 3079.1382,433.723" fill="none" id="SubstantiveValueDomain-to-XsdAnyUri" style="stroke:#404040;stroke-width:1.2;stroke-dasharray:7,7;"/><polygon fill="#404040" points="3073.14,433.8694,3082.2349,437.6487,3078.1385,433.7474,3082.0398,429.6511,3073.14,433.8694" style="stroke:#404040;stroke-width:1.2;"/><text fill="#000000" font-family="sans-serif" font-size="36" lengthAdjust="spacing" textLength="136.0723" x="5782" y="256.9805">identifier</text></g><!--link SentinelValueDomain to XsdAnyUri--><g class="link" data-entity-1="ent0063" data-entity-2="ent0002" data-link-type="dependency" data-source-line="78" id="lnk64"><path codeLine="78" d="M6232.09,93.7594 C6176.39,136.8194 6048.64,228.2494 5924,265.6094 C5372.33,430.9394 3523.88,437.4014 3079.36,436.5114" fill="none" id="SentinelValueDomain-to-XsdAnyUri" style="stroke:#404040;stroke-width:1.2;stroke-dasharray:7,7;"/><polygon fill="#404040" points="3073.36,436.4994,3082.352,440.5174,3078.36,436.5094,3082.368,432.5174,3073.36,436.4994" style="stroke:#404040;stroke-width:1.2;"/><text fill="#000000" font-family="sans-serif" font-size="36" lengthAdjust="spacing" textLength="136.0723" x="6033" y="256.9805">identifier</text></g><!--link DimensionGroup to XsdAnyUri--><g class="link" data-entity-1="ent0065" data-entity-2="ent0002" data-link-type="dependency" data-source-line="80" id="lnk66"><path codeLine="80" d="M6511.97,93.7894 C6450.34,136.9094 6309.44,228.4494 6175,265.6094 C5569.27,433.0594 3545.56,437.7448 3079.12,436.5448" fill="none" id="DimensionGroup-to-XsdAnyUri" style="stroke:#404040;stroke-width:1.2;stroke-dasharray:7,7;"/><polygon fill="#404040" points="3073.12,436.5294,3082.1097,440.5525,3078.12,436.5422,3082.1303,432.5525,3073.12,436.5294" style="stroke:#404040;stroke-width:1.2;"/><text fill="#000000" font-family="sans-serif" font-size="36" lengthAdjust="spacing" textLength="136.0723" x="6293" y="256.9805">identifier</text></g><!--link ForeignKey to XsdAnyUri--><g class="link" data-entity-1="ent0067" data-entity-2="ent0002" data-link-type="dependency" data-source-line="82" id="lnk68"><path codeLine="82" d="M6731.4,93.8594 C6678.18,137.0894 6555.9,228.7994 6435,265.6094 C6105.8,365.8294 3604.5187,423.054 3079.2987,434.034" fill="none" id="ForeignKey-to-XsdAnyUri" style="stroke:#404040;stroke-width:1.2;stroke-dasharray:7,7;"/><polygon fill="#404040" points="3073.3,434.1594,3082.3816,437.9704,3078.2989,434.0549,3082.2144,429.9721,3073.3,434.1594" style="stroke:#404040;stroke-width:1.2;"/><text fill="#000000" font-family="sans-serif" font-size="36" lengthAdjust="spacing" textLength="136.0723" x="6540" y="256.9805">identifier</text></g><?plantuml-src dPPTJzim58Rlyoiik4SCnYucXDIr5A49hQE5xTPDJgY5OqV73goRzj_dVFWZSMawu2P-JlgUDyVdED5CSo0_LJOHsmTaoOPbG5A6AOVs6efIRqa1nHfG9UgPYP8YBOZQq4o-Cl54SieL1949ednTRLZwB40fyk7aB0WY5SyAId9sSHfG8JDeQ0Wpo6d5zLmAlMI_WPn_2e8ffqRxJqBQT5F99PBZZwVrlu5V96Q0GnfAcHzgZMnTQV3uDFcR9AtqaQl94Q7ALuXSNcPKqzMsXAihSZoVN5_CpXEwLXffgZjVHrDPb58n3GkKEUFGQ0mXERvk_f8eS79o5MJyJCn62Cro1cZTpOm71RhHxQwTd5qFLIhauSzdybLmIJEdOK5FoC6XMcggPbmz6D6n-tA9XLh9_VV5p_W3rfF5RMEllNJ6kkMun2JLJ8fxKAQH6g4GEBaUtEFV5Wzo9Y1R0HPjxVpQbovWaKqHH9UWzzvCiupLxYYlMyvQk7LFsZZmIsSWG7lwOEBKJUkLW7hRLYd2lbPnAD8NJ4_DHDiazv03WaZRAN0h9-d9BgTlHn4uhQtOFCRGIxsLBwnxZ12uR3qO9LIG-Mr6zWBP7ANTPhSEjjcpNURtnOVsfsOwk7owXzGSNks14H9_MlJeUBjECvPFfIbWgR-XQzg8UlqeCZvdZnGPNNEu0wegXDR-4BeCKM0ymR8qjQBy-bTzvZJgFUAa-tHSztj5kMc4paaZt4TEUO3_LxgmlcFyHefYv0c6xvn9jxu1MO36Rf87qC_nC33-G3tXIF0GeJVlISstXJtQXDAqgrLtxG-rRZtkTSKAMDJlL3DWZLG8d5uF3aKtLAtkbtrRATZU3VnvE30Q1DwnZtUqBCttLMyREnRjekNlI5E_b9VTbyI0HMai7w__0bb1SViLx4biby4vxD01uw_DM2lDKjNElblwmVVe0BbgtJIIEPiVAQzW9WlAsZxP7V9fTeSFI5a30JpA5tEVR4ViW4z3qzH2cOw-GLcLxQkhX_pRgu_7fUSIWJq9kwj-wIG3j4Vk7m00?></g></svg>