<svg xmlns="http://www.w3.org/2000/svg" xmlns:xlink="http://www.w3.org/1999/xlink" contentStyleType="text/css" data-diagram-type="CLASS" height="497px" preserveAspectRatio="none" style="width:8533px;height:497px;background:#FFFFFF;" version="1.1" viewBox="0 0 8533 497" width="8533px" zoomAndPan="magnify"><?plantuml 1.2026.3?><defs/><g><g class="title" data-source-line="1"><text fill="#000000" font-family="sans-serif" font-size="14" font-weight="700" lengthAdjust="spacing" textLength="71.5723" x="4227.6704" y="24.5332">XsdAnyUri</text></g><!--class XsdAnyUri--><g class="entity" data-qualified-name="XsdAnyUri" data-source-line="16" id="ent0002"><rect fill="#FAE5D3" height="93.0156" rx="2.5" ry="2.5" style="stroke:#404040;stroke-width:0.5;" width="192.1426" x="3658" y="390.6094"/><text fill="#000000" font-family="sans-serif" font-size="36" font-style="italic" lengthAdjust="spacing" textLength="190.1426" x="3659" y="432.9805">&#171;dataType&#187;</text><text fill="#000000" font-family="sans-serif" font-size="30" lengthAdjust="spacing" textLength="141.709" x="3683.2168" y="472.0332">XsdAnyUri</text></g><!--class CompositeProfile--><g class="entity" data-qualified-name="CompositeProfile" data-source-line="17" id="ent0003"><rect fill="#EEEEEE" height="47.7344" rx="2.5" ry="2.5" style="stroke:#404040;stroke-width:0.5;" width="234.4277" x="7" y="45.6094"/><text fill="#000000" font-family="sans-serif" font-size="30" font-style="italic" lengthAdjust="spacing" textLength="228.4277" x="10" y="81.752">CompositeProfile</text></g><!--class Dataset--><g class="entity" data-qualified-name="Dataset" data-source-line="19" id="ent0005"><rect fill="#EEEEEE" height="47.7344" rx="2.5" ry="2.5" style="stroke:#404040;stroke-width:0.5;" width="109.3887" x="261.5" y="45.6094"/><text fill="#000000" font-family="sans-serif" font-size="30" lengthAdjust="spacing" textLength="103.3887" x="264.5" y="81.752">Dataset</text></g><!--class DataDownload--><g class="entity" data-qualified-name="DataDownload" data-source-line="21" id="ent0007"><rect fill="#EEEEEE" height="47.7344" rx="2.5" ry="2.5" style="stroke:#404040;stroke-width:0.5;" width="202.7871" x="472.5" y="45.6094"/><text fill="#000000" font-family="sans-serif" font-size="30" lengthAdjust="spacing" textLength="196.7871" x="475.5" y="81.752">DataDownload</text></g><!--class WebAPI--><g class="entity" data-qualified-name="WebAPI" data-source-line="25" id="ent0011"><rect fill="#EEEEEE" height="47.7344" rx="2.5" ry="2.5" style="stroke:#404040;stroke-width:0.5;" width="116.0391" x="894" y="45.6094"/><text fill="#000000" font-family="sans-serif" font-size="30" lengthAdjust="spacing" textLength="110.0391" x="897" y="81.752">WebAPI</text></g><!--class ActionResult--><g class="entity" data-qualified-name="ActionResult" data-source-line="27" id="ent0013"><rect fill="#EEEEEE" height="47.7344" rx="2.5" ry="2.5" style="stroke:#404040;stroke-width:0.5;" width="174.4131" x="1030" y="45.6094"/><text fill="#000000" font-family="sans-serif" font-size="30" lengthAdjust="spacing" textLength="168.4131" x="1033" y="81.752">ActionResult</text></g><!--class DefinedTerm--><g class="entity" data-qualified-name="DefinedTerm" data-source-line="29" id="ent0015"><rect fill="#EEEEEE" height="47.7344" rx="2.5" ry="2.5" style="stroke:#404040;stroke-width:0.5;" width="179.3936" x="1224.5" y="45.6094"/><text fill="#000000" font-family="sans-serif" font-size="30" lengthAdjust="spacing" textLength="173.3936" x="1227.5" y="81.752">DefinedTerm</text></g><!--class Identifier--><g class="entity" data-qualified-name="Identifier" data-source-line="32" id="ent0018"><rect fill="#EEEEEE" height="47.7344" rx="2.5" ry="2.5" style="stroke:#404040;stroke-width:0.5;" width="121.0635" x="1423.5" y="45.6094"/><text fill="#000000" font-family="sans-serif" font-size="30" lengthAdjust="spacing" textLength="115.0635" x="1426.5" y="81.752">Identifier</text></g><!--class AdditionalProperty--><g class="entity" data-qualified-name="AdditionalProperty" data-source-line="34" id="ent0020"><rect fill="#EEEEEE" height="47.7344" rx="2.5" ry="2.5" style="stroke:#404040;stroke-width:0.5;" width="251.1416" x="1564.5" y="45.6094"/><text fill="#000000" font-family="sans-serif" font-size="30" lengthAdjust="spacing" textLength="245.1416" x="1567.5" y="81.752">AdditionalProperty</text></g><!--class Reference--><g class="entity" data-qualified-name="Reference" data-source-line="36" id="ent0022"><rect fill="#EEEEEE" height="47.7344" rx="2.5" ry="2.5" style="stroke:#404040;stroke-width:0.5;" width="144.4131" x="1836" y="45.6094"/><text fill="#000000" font-family="sans-serif" font-size="30" lengthAdjust="spacing" textLength="138.4131" x="1839" y="81.752">Reference</text></g><!--class ProvActivity--><g class="entity" data-qualified-name="ProvActivity" data-source-line="39" id="ent0025"><rect fill="#EEEEEE" height="47.7344" rx="2.5" ry="2.5" style="stroke:#404040;stroke-width:0.5;" width="162.6943" x="2000.5" y="45.6094"/><text fill="#000000" font-family="sans-serif" font-size="30" lengthAdjust="spacing" textLength="156.6943" x="2003.5" y="81.752">ProvActivity</text></g><!--class DerivedFrom--><g class="entity" data-qualified-name="DerivedFrom" data-source-line="41" id="ent0027"><rect fill="#EEEEEE" height="47.7344" rx="2.5" ry="2.5" style="stroke:#404040;stroke-width:0.5;" width="179.3643" x="2183.5" y="45.6094"/><text fill="#000000" font-family="sans-serif" font-size="30" lengthAdjust="spacing" textLength="173.3643" x="2186.5" y="81.752">DerivedFrom</text></g><!--class CatalogRecord--><g class="entity" data-qualified-name="CatalogRecord" data-source-line="44" id="ent0030"><rect fill="#EEEEEE" height="47.7344" rx="2.5" ry="2.5" style="stroke:#404040;stroke-width:0.5;" width="206.1123" x="2383" y="45.6094"/><text fill="#000000" font-family="sans-serif" font-size="30" lengthAdjust="spacing" textLength="200.1123" x="2386" y="81.752">CatalogRecord</text></g><!--class CdifConceptOrTerm--><g class="entity" data-qualified-name="CdifConceptOrTerm" data-source-line="46" id="ent0032"><rect fill="#EEEEEE" height="47.7344" rx="2.5" ry="2.5" style="stroke:#404040;stroke-width:0.5;" width="274.4033" x="2609" y="45.6094"/><text fill="#000000" font-family="sans-serif" font-size="30" lengthAdjust="spacing" textLength="268.4033" x="2612" y="81.752">CdifConceptOrTerm</text></g><!--class VariableMeasured--><g class="entity" data-qualified-name="VariableMeasured" data-source-line="48" id="ent0034"><rect fill="#EEEEEE" height="47.7344" rx="2.5" ry="2.5" style="stroke:#404040;stroke-width:0.5;" width="249.4717" x="2903.5" y="45.6094"/><text fill="#000000" font-family="sans-serif" font-size="30" lengthAdjust="spacing" textLength="243.4717" x="2906.5" y="81.752">VariableMeasured</text></g><!--class SpatialExtent--><g class="entity" data-qualified-name="SpatialExtent" data-source-line="50" id="ent0036"><rect fill="#EEEEEE" height="47.7344" rx="2.5" ry="2.5" style="stroke:#404040;stroke-width:0.5;" width="182.7773" x="3172.5" y="45.6094"/><text fill="#000000" font-family="sans-serif" font-size="30" lengthAdjust="spacing" textLength="176.7773" x="3175.5" y="81.752">SpatialExtent</text></g><!--class QualityMeasure--><g class="entity" data-qualified-name="QualityMeasure" data-source-line="52" id="ent0038"><rect fill="#EEEEEE" height="47.7344" rx="2.5" ry="2.5" style="stroke:#404040;stroke-width:0.5;" width="216.0879" x="3376" y="45.6094"/><text fill="#000000" font-family="sans-serif" font-size="30" lengthAdjust="spacing" textLength="210.0879" x="3379" y="81.752">QualityMeasure</text></g><!--class QualityMeasurement--><g class="entity" data-qualified-name="QualityMeasurement" data-source-line="54" id="ent0040"><rect fill="#EEEEEE" height="47.7344" rx="2.5" ry="2.5" style="stroke:#404040;stroke-width:0.5;" width="282.7822" x="3612.5" y="45.6094"/><text fill="#000000" font-family="sans-serif" font-size="30" lengthAdjust="spacing" textLength="276.7822" x="3615.5" y="81.752">QualityMeasurement</text></g><!--class AbstractGeometry--><g class="entity" data-qualified-name="AbstractGeometry" data-source-line="56" id="ent0042"><rect fill="#EEEEEE" height="47.7344" rx="2.5" ry="2.5" style="stroke:#404040;stroke-width:0.5;" width="247.7432" x="3916" y="45.6094"/><text fill="#000000" font-family="sans-serif" font-size="30" font-style="italic" lengthAdjust="spacing" textLength="241.7432" x="3919" y="81.752">AbstractGeometry</text></g><!--class Geometry--><g class="entity" data-qualified-name="Geometry" data-source-line="58" id="ent0044"><rect fill="#EEEEEE" height="47.7344" rx="2.5" ry="2.5" style="stroke:#404040;stroke-width:0.5;" width="137.7041" x="4184" y="45.6094"/><text fill="#000000" font-family="sans-serif" font-size="30" lengthAdjust="spacing" textLength="131.7041" x="4187" y="81.752">Geometry</text></g><!--class Instant--><g class="entity" data-qualified-name="Instant" data-source-line="61" id="ent0047"><rect fill="#EEEEEE" height="47.7344" rx="2.5" ry="2.5" style="stroke:#404040;stroke-width:0.5;" width="96.0586" x="4342" y="45.6094"/><text fill="#000000" font-family="sans-serif" font-size="30" lengthAdjust="spacing" textLength="90.0586" x="4345" y="81.752">Instant</text></g><!--class TimePosition--><g class="entity" data-qualified-name="TimePosition" data-source-line="63" id="ent0049"><rect fill="#EEEEEE" height="47.7344" rx="2.5" ry="2.5" style="stroke:#404040;stroke-width:0.5;" width="179.3936" x="4458.5" y="45.6094"/><text fill="#000000" font-family="sans-serif" font-size="30" lengthAdjust="spacing" textLength="173.3936" x="4461.5" y="81.752">TimePosition</text></g><!--class InstanceVariable--><g class="entity" data-qualified-name="InstanceVariable" data-source-line="65" id="ent0051"><rect fill="#EEEEEE" height="47.7344" rx="2.5" ry="2.5" style="stroke:#404040;stroke-width:0.5;" width="229.4766" x="4657.5" y="45.6094"/><text fill="#000000" font-family="sans-serif" font-size="30" lengthAdjust="spacing" textLength="223.4766" x="4660.5" y="81.752">InstanceVariable</text></g><!--class SubstantiveValueDomain--><g class="entity" data-qualified-name="SubstantiveValueDomain" data-source-line="67" id="ent0053"><rect fill="#EEEEEE" height="47.7344" rx="2.5" ry="2.5" style="stroke:#404040;stroke-width:0.5;" width="342.8701" x="4906.5" y="45.6094"/><text fill="#000000" font-family="sans-serif" font-size="30" lengthAdjust="spacing" textLength="336.8701" x="4909.5" y="81.752">SubstantiveValueDomain</text></g><!--class SentinelValueDomain--><g class="entity" data-qualified-name="SentinelValueDomain" data-source-line="69" id="ent0055"><rect fill="#EEEEEE" height="47.7344" rx="2.5" ry="2.5" style="stroke:#404040;stroke-width:0.5;" width="294.5156" x="5269.5" y="45.6094"/><text fill="#000000" font-family="sans-serif" font-size="30" lengthAdjust="spacing" textLength="288.5156" x="5272.5" y="81.752">SentinelValueDomain</text></g><!--class EnumerationDomain--><g class="entity" data-qualified-name="EnumerationDomain" data-source-line="71" id="ent0057"><rect fill="#EEEEEE" height="47.7344" rx="2.5" ry="2.5" style="stroke:#404040;stroke-width:0.5;" width="279.4717" x="5584.5" y="45.6094"/><text fill="#000000" font-family="sans-serif" font-size="30" lengthAdjust="spacing" textLength="273.4717" x="5587.5" y="81.752">EnumerationDomain</text></g><!--class ValueAndConceptDescription--><g class="entity" data-qualified-name="ValueAndConceptDescription" data-source-line="73" id="ent0059"><rect fill="#EEEEEE" height="47.7344" rx="2.5" ry="2.5" style="stroke:#404040;stroke-width:0.5;" width="397.9043" x="5884" y="45.6094"/><text fill="#000000" font-family="sans-serif" font-size="30" lengthAdjust="spacing" textLength="391.9043" x="5887" y="81.752">ValueAndConceptDescription</text></g><!--class AbstractMapping--><g class="entity" data-qualified-name="AbstractMapping" data-source-line="76" id="ent0062"><rect fill="#EEEEEE" height="47.7344" rx="2.5" ry="2.5" style="stroke:#404040;stroke-width:0.5;" width="231.1172" x="6302.5" y="45.6094"/><text fill="#000000" font-family="sans-serif" font-size="30" font-style="italic" lengthAdjust="spacing" textLength="225.1172" x="6305.5" y="81.752">AbstractMapping</text></g><!--class AbstractDataSet--><g class="entity" data-qualified-name="AbstractDataSet" data-source-line="78" id="ent0064"><rect fill="#EEEEEE" height="47.7344" rx="2.5" ry="2.5" style="stroke:#404040;stroke-width:0.5;" width="224.4375" x="6554" y="45.6094"/><text fill="#000000" font-family="sans-serif" font-size="30" font-style="italic" lengthAdjust="spacing" textLength="218.4375" x="6557" y="81.752">AbstractDataSet</text></g><!--class PrimaryKey--><g class="entity" data-qualified-name="PrimaryKey" data-source-line="80" id="ent0066"><rect fill="#EEEEEE" height="47.7344" rx="2.5" ry="2.5" style="stroke:#404040;stroke-width:0.5;" width="161.0244" x="6798.5" y="45.6094"/><text fill="#000000" font-family="sans-serif" font-size="30" lengthAdjust="spacing" textLength="155.0244" x="6801.5" y="81.752">PrimaryKey</text></g><!--class ComponentPosition--><g class="entity" data-qualified-name="ComponentPosition" data-source-line="82" id="ent0068"><rect fill="#EEEEEE" height="47.7344" rx="2.5" ry="2.5" style="stroke:#404040;stroke-width:0.5;" width="267.8262" x="6980" y="45.6094"/><text fill="#000000" font-family="sans-serif" font-size="30" lengthAdjust="spacing" textLength="261.8262" x="6983" y="81.752">ComponentPosition</text></g><!--class Statistics--><g class="entity" data-qualified-name="Statistics" data-source-line="84" id="ent0070"><rect fill="#EEEEEE" height="47.7344" rx="2.5" ry="2.5" style="stroke:#404040;stroke-width:0.5;" width="126.0293" x="7268" y="45.6094"/><text fill="#000000" font-family="sans-serif" font-size="30" lengthAdjust="spacing" textLength="120.0293" x="7271" y="81.752">Statistics</text></g><!--class CategoryStatistics--><g class="entity" data-qualified-name="CategoryStatistics" data-source-line="86" id="ent0072"><rect fill="#EEEEEE" height="47.7344" rx="2.5" ry="2.5" style="stroke:#404040;stroke-width:0.5;" width="247.7578" x="7414" y="45.6094"/><text fill="#000000" font-family="sans-serif" font-size="30" lengthAdjust="spacing" textLength="241.7578" x="7417" y="81.752">CategoryStatistics</text></g><!--class StatisticsCollection--><g class="entity" data-qualified-name="StatisticsCollection" data-source-line="88" id="ent0074"><rect fill="#EEEEEE" height="47.7344" rx="2.5" ry="2.5" style="stroke:#404040;stroke-width:0.5;" width="257.7627" x="7682" y="45.6094"/><text fill="#000000" font-family="sans-serif" font-size="30" lengthAdjust="spacing" textLength="251.7627" x="7685" y="81.752">StatisticsCollection</text></g><!--class Category--><g class="entity" data-qualified-name="Category" data-source-line="90" id="ent0076"><rect fill="#EEEEEE" height="47.7344" rx="2.5" ry="2.5" style="stroke:#404040;stroke-width:0.5;" width="127.7285" x="7960" y="45.6094"/><text fill="#000000" font-family="sans-serif" font-size="30" lengthAdjust="spacing" textLength="121.7285" x="7963" y="81.752">Category</text></g><!--class DimensionGroup--><g class="entity" data-qualified-name="DimensionGroup" data-source-line="92" id="ent0078"><rect fill="#EEEEEE" height="47.7344" rx="2.5" ry="2.5" style="stroke:#404040;stroke-width:0.5;" width="231.1025" x="8108.5" y="45.6094"/><text fill="#000000" font-family="sans-serif" font-size="30" lengthAdjust="spacing" textLength="225.1025" x="8111.5" y="81.752">DimensionGroup</text></g><!--class ForeignKey--><g class="entity" data-qualified-name="ForeignKey" data-source-line="94" id="ent0080"><rect fill="#EEEEEE" height="47.7344" rx="2.5" ry="2.5" style="stroke:#404040;stroke-width:0.5;" width="159.4131" x="8359.5" y="45.6094"/><text fill="#000000" font-family="sans-serif" font-size="30" lengthAdjust="spacing" textLength="153.4131" x="8362.5" y="81.752">ForeignKey</text></g><!--link CompositeProfile to XsdAnyUri--><g class="link" data-entity-1="ent0003" data-entity-2="ent0002" data-link-type="dependency" data-source-line="18" id="lnk4"><path codeLine="18" d="M119.5,93.8194 C112.94,135.3394 106.35,222.0494 155,265.6094 C289.27,385.8294 3093.4705,427.7125 3651.9805,434.8725" fill="none" id="CompositeProfile-to-XsdAnyUri" style="stroke:#404040;stroke-width:1.2;stroke-dasharray:7,7;"/><polygon fill="#404040" points="3657.98,434.9494,3649.032,430.8343,3652.9804,434.8853,3648.9295,438.8337,3657.98,434.9494" style="stroke:#404040;stroke-width:1.2;"/><text fill="#000000" font-family="sans-serif" font-size="36" lengthAdjust="spacing" textLength="136.0723" x="156" y="256.9805">identifier</text></g><!--link Dataset to XsdAnyUri--><g class="link" data-entity-1="ent0005" data-entity-2="ent0002" data-link-type="dependency" data-source-line="20" id="lnk6"><path codeLine="20" d="M307.86,93.6294 C295.07,134.4594 276.05,219.5694 321,265.6094 C440.78,388.2994 3107.5205,428.0539 3651.7805,434.9039" fill="none" id="Dataset-to-XsdAnyUri" style="stroke:#404040;stroke-width:1.2;stroke-dasharray:7,7;"/><polygon fill="#404040" points="3657.78,434.9794,3648.8311,430.8664,3652.7804,434.9165,3648.7304,438.8658,3657.78,434.9794" style="stroke:#404040;stroke-width:1.2;"/><text fill="#000000" font-family="sans-serif" font-size="36" lengthAdjust="spacing" textLength="40.0078" x="322" y="256.9805">url</text></g><!--link DataDownload to XsdAnyUri--><g class="link" data-entity-1="ent0007" data-entity-2="ent0002" data-link-type="dependency" data-source-line="22" id="lnk8"><path codeLine="22" d="M522,93.6594 C446.86,129.9194 323.17,202.6694 383,265.6094 C498.89,387.5094 3113.0505,427.8311 3651.7205,434.8611" fill="none" id="DataDownload-to-XsdAnyUri" style="stroke:#404040;stroke-width:1.2;stroke-dasharray:7,7;"/><polygon fill="#404040" points="3657.72,434.9394,3648.773,430.8223,3652.7204,434.8741,3648.6686,438.8216,3657.72,434.9394" style="stroke:#404040;stroke-width:1.2;"/><text fill="#000000" font-family="sans-serif" font-size="36" lengthAdjust="spacing" textLength="164.0742" x="384" y="256.9805">contentUrl</text></g><!--link DataDownload to XsdAnyUri--><g class="link" data-entity-1="ent0007" data-entity-2="ent0002" data-link-type="dependency" data-source-line="23" id="lnk9"><path codeLine="23" d="M565.07,93.8194 C551.07,134.5694 529.87,219.0494 574,265.6094 C682.78,380.3794 3131.5308,426.1022 3651.7008,434.5322" fill="none" id="DataDownload-to-XsdAnyUri-1" style="stroke:#404040;stroke-width:1.2;stroke-dasharray:7,7;"/><polygon fill="#404040" points="3657.7,434.6294,3648.766,430.4841,3652.7007,434.5484,3648.6364,438.483,3657.7,434.6294" style="stroke:#404040;stroke-width:1.2;"/><text fill="#000000" font-family="sans-serif" font-size="36" lengthAdjust="spacing" textLength="190.0547" x="575" y="256.9805">conformsTo</text></g><!--link DataDownload to XsdAnyUri--><g class="link" data-entity-1="ent0007" data-entity-2="ent0002" data-link-type="dependency" data-source-line="24" id="lnk10"><path codeLine="24" d="M614.83,93.7794 C657.42,119.6394 723.87,164.9694 767,218.6094 C781.45,236.5794 769.9,252.6794 789,265.6094 C1031.29,429.6694 3169.18,436.8453 3651.8,436.3653" fill="none" id="DataDownload-to-XsdAnyUri-2" style="stroke:#404040;stroke-width:1.2;stroke-dasharray:7,7;"/><polygon fill="#404040" points="3657.8,436.3594,3648.796,432.3683,3652.8,436.3643,3648.804,440.3683,3657.8,436.3594" style="stroke:#404040;stroke-width:1.2;"/><text fill="#000000" font-family="sans-serif" font-size="36" lengthAdjust="spacing" textLength="136.0723" x="790" y="256.9805">identifier</text></g><!--link WebAPI to XsdAnyUri--><g class="link" data-entity-1="ent0011" data-entity-2="ent0002" data-link-type="dependency" data-source-line="26" id="lnk12"><path codeLine="26" d="M943.53,93.8594 C930.33,134.6594 910.67,219.2194 955,265.6094 C1050.41,365.4594 3170.2217,422.1247 3651.6617,433.7347" fill="none" id="WebAPI-to-XsdAnyUri" style="stroke:#404040;stroke-width:1.2;stroke-dasharray:7,7;"/><polygon fill="#404040" points="3657.66,433.8794,3648.759,429.6636,3652.6615,433.7588,3648.5662,437.6612,3657.66,433.8794" style="stroke:#404040;stroke-width:1.2;"/><text fill="#000000" font-family="sans-serif" font-size="36" lengthAdjust="spacing" textLength="136.0723" x="956" y="256.9805">identifier</text></g><!--link ActionResult to XsdAnyUri--><g class="link" data-entity-1="ent0013" data-entity-2="ent0002" data-link-type="dependency" data-source-line="28" id="lnk14"><path codeLine="28" d="M1108.69,93.8594 C1095.76,134.6694 1076.64,219.2494 1121,265.6094 C1210.46,359.1094 3188.0224,420.2402 3651.6824,433.3202" fill="none" id="ActionResult-to-XsdAnyUri" style="stroke:#404040;stroke-width:1.2;stroke-dasharray:7,7;"/><polygon fill="#404040" points="3657.68,433.4894,3648.7964,429.2372,3652.682,433.3484,3648.5708,437.234,3657.68,433.4894" style="stroke:#404040;stroke-width:1.2;"/><text fill="#000000" font-family="sans-serif" font-size="36" lengthAdjust="spacing" textLength="190.0547" x="1122" y="256.9805">conformsTo</text></g><!--link DefinedTerm to XsdAnyUri--><g class="link" data-entity-1="ent0015" data-entity-2="ent0002" data-link-type="dependency" data-source-line="30" id="lnk16"><path codeLine="30" d="M1312.83,93.8994 C1311.05,140.4294 1310.04,242.4094 1334,265.6094 C1503.42,429.7094 3223.17,437.179 3651.96,436.489" fill="none" id="DefinedTerm-to-XsdAnyUri" style="stroke:#404040;stroke-width:1.2;stroke-dasharray:7,7;"/><polygon fill="#404040" points="3657.96,436.4794,3648.9536,432.4939,3652.96,436.4874,3648.9664,440.4939,3657.96,436.4794" style="stroke:#404040;stroke-width:1.2;"/><text fill="#000000" font-family="sans-serif" font-size="36" lengthAdjust="spacing" textLength="290.127" x="1335" y="256.9805">inDefinedTermSet</text></g><!--link DefinedTerm to XsdAnyUri--><g class="link" data-entity-1="ent0015" data-entity-2="ent0002" data-link-type="dependency" data-source-line="31" id="lnk17"><path codeLine="31" d="M1402.6,93.6094 C1471.65,115.5694 1565.76,154.9094 1627,218.6094 C1642.73,234.9794 1628.58,252.3294 1647,265.6094 C1811.76,384.3794 3261.1515,425.1032 3651.8315,433.9732" fill="none" id="DefinedTerm-to-XsdAnyUri-1" style="stroke:#404040;stroke-width:1.2;stroke-dasharray:7,7;"/><polygon fill="#404040" points="3657.83,434.1094,3648.9231,429.9061,3652.8313,433.9959,3648.7415,437.9041,3657.83,434.1094" style="stroke:#404040;stroke-width:1.2;"/><text fill="#000000" font-family="sans-serif" font-size="36" lengthAdjust="spacing" textLength="234.1582" x="1648" y="256.9805">additionalType</text></g><!--link Identifier to XsdAnyUri--><g class="link" data-entity-1="ent0018" data-entity-2="ent0002" data-link-type="dependency" data-source-line="33" id="lnk19"><path codeLine="33" d="M1544.69,91.4194 C1654.25,129.1894 1875,206.2594 1888,218.6094 C1904.46,234.2494 1889.66,252.2294 1908,265.6094 C2050.27,369.4094 3292.6837,420.1391 3651.7737,432.7291" fill="none" id="Identifier-to-XsdAnyUri" style="stroke:#404040;stroke-width:1.2;stroke-dasharray:7,7;"/><polygon fill="#404040" points="3657.77,432.9394,3648.9157,428.6265,3652.7731,432.7642,3648.6354,436.6216,3657.77,432.9394" style="stroke:#404040;stroke-width:1.2;"/><text fill="#000000" font-family="sans-serif" font-size="36" lengthAdjust="spacing" textLength="40.0078" x="1909" y="256.9805">url</text></g><!--link AdditionalProperty to XsdAnyUri--><g class="link" data-entity-1="ent0020" data-entity-2="ent0002" data-link-type="dependency" data-source-line="35" id="lnk21"><path codeLine="35" d="M1756.86,93.6194 C1815.89,116.9494 1900.77,158.2394 1955,218.6094 C1970.17,235.4994 1956.68,252.1994 1975,265.6094 C2111.55,365.5894 3301.6245,418.7668 3651.9745,432.3568" fill="none" id="AdditionalProperty-to-XsdAnyUri" style="stroke:#404040;stroke-width:1.2;stroke-dasharray:7,7;"/><polygon fill="#404040" points="3657.97,432.5894,3649.1318,428.2435,3652.9738,432.3956,3648.8217,436.2375,3657.97,432.5894" style="stroke:#404040;stroke-width:1.2;"/><text fill="#000000" font-family="sans-serif" font-size="36" lengthAdjust="spacing" textLength="144.1055" x="1976" y="256.9805">unitCode</text></g><!--link Reference to XsdAnyUri--><g class="link" data-entity-1="ent0022" data-entity-2="ent0002" data-link-type="dependency" data-source-line="37" id="lnk23"><path codeLine="37" d="M1955.64,93.8194 C2003.6,119.0894 2077.26,163.3994 2126,218.6094 C2141.52,236.1894 2130.67,252.3194 2150,265.6094 C2274.61,351.2794 3324.8585,413.4399 3651.8885,430.8799" fill="none" id="Reference-to-XsdAnyUri" style="stroke:#404040;stroke-width:1.2;stroke-dasharray:7,7;"/><polygon fill="#404040" points="3657.88,431.1994,3649.1058,426.7258,3652.8871,430.9331,3648.6798,434.7144,3657.88,431.1994" style="stroke:#404040;stroke-width:1.2;"/><text fill="#000000" font-family="sans-serif" font-size="36" lengthAdjust="spacing" textLength="40.0078" x="2151" y="256.9805">url</text></g><!--link Reference to XsdAnyUri--><g class="link" data-entity-1="ent0022" data-entity-2="ent0002" data-link-type="dependency" data-source-line="38" id="lnk24"><path codeLine="38" d="M1980.2,92.4794 C2043.67,114.9894 2134.75,155.7194 2193,218.6094 C2208.43,235.2694 2194.78,252.0594 2213,265.6094 C2329.2,352.0094 3332.879,413.3016 3651.859,430.7516" fill="none" id="Reference-to-XsdAnyUri-1" style="stroke:#404040;stroke-width:1.2;stroke-dasharray:7,7;"/><polygon fill="#404040" points="3657.85,431.0794,3649.0819,426.5937,3652.8575,430.8063,3648.6449,434.5818,3657.85,431.0794" style="stroke:#404040;stroke-width:1.2;"/><text fill="#000000" font-family="sans-serif" font-size="36" lengthAdjust="spacing" textLength="118.0723" x="2214" y="256.9805">relation</text></g><!--link ProvActivity to XsdAnyUri--><g class="link" data-entity-1="ent0025" data-entity-2="ent0002" data-link-type="dependency" data-source-line="40" id="lnk26"><path codeLine="40" d="M2145.47,93.7194 C2202.54,117.3394 2285.26,159.0194 2338,218.6094 C2353.05,235.6094 2339.86,251.9594 2358,265.6094 C2563.6,420.2894 3370.79,435.8251 3651.84,436.4951" fill="none" id="ProvActivity-to-XsdAnyUri" style="stroke:#404040;stroke-width:1.2;stroke-dasharray:7,7;"/><polygon fill="#404040" points="3657.84,436.5094,3648.8496,432.4879,3652.84,436.4975,3648.8305,440.4879,3657.84,436.5094" style="stroke:#404040;stroke-width:1.2;"/><text fill="#000000" font-family="sans-serif" font-size="36" lengthAdjust="spacing" textLength="78.0645" x="2359" y="256.9805">used</text></g><!--link DerivedFrom to XsdAnyUri--><g class="link" data-entity-1="ent0027" data-entity-2="ent0002" data-link-type="dependency" data-source-line="42" id="lnk28"><path codeLine="42" d="M2306.43,93.6494 C2343.4,120.3894 2403,167.4294 2443,218.6094 C2457.44,237.0894 2447.85,252.0694 2467,265.6094 C2659.01,401.2994 3386.8014,428.9319 3651.8114,434.5619" fill="none" id="DerivedFrom-to-XsdAnyUri" style="stroke:#404040;stroke-width:1.2;stroke-dasharray:7,7;"/><polygon fill="#404040" points="3657.81,434.6894,3648.897,430.4991,3652.8111,434.5832,3648.7271,438.4973,3657.81,434.6894" style="stroke:#404040;stroke-width:1.2;"/><text fill="#000000" font-family="sans-serif" font-size="36" lengthAdjust="spacing" textLength="40.0078" x="2468" y="256.9805">url</text></g><!--link DerivedFrom to XsdAnyUri--><g class="link" data-entity-1="ent0027" data-entity-2="ent0002" data-link-type="dependency" data-source-line="43" id="lnk29"><path codeLine="43" d="M2319.88,93.6294 C2370.17,119.6894 2450.77,165.4894 2510,218.6094 C2529.79,236.3594 2523.96,252.3494 2547,265.6094 C2736.51,374.6494 3400.418,418.4304 3651.778,431.3904" fill="none" id="DerivedFrom-to-XsdAnyUri-1" style="stroke:#404040;stroke-width:1.2;stroke-dasharray:7,7;"/><polygon fill="#404040" points="3657.77,431.6994,3648.9879,427.2413,3652.7766,431.4419,3648.576,435.2306,3657.77,431.6994" style="stroke:#404040;stroke-width:1.2;"/><text fill="#000000" font-family="sans-serif" font-size="36" lengthAdjust="spacing" textLength="118.0723" x="2548" y="256.9805">relation</text></g><!--link CatalogRecord to XsdAnyUri--><g class="link" data-entity-1="ent0030" data-entity-2="ent0002" data-link-type="dependency" data-source-line="45" id="lnk31"><path codeLine="45" d="M2509.26,93.6894 C2552.79,135.4094 2651.29,222.9594 2752,265.6094 C3065,398.1494 3468.2738,427.5559 3651.7338,434.0859" fill="none" id="CatalogRecord-to-XsdAnyUri" style="stroke:#404040;stroke-width:1.2;stroke-dasharray:7,7;"/><polygon fill="#404040" points="3657.73,434.2994,3648.878,429.9818,3652.7332,434.1215,3648.5934,437.9767,3657.73,434.2994" style="stroke:#404040;stroke-width:1.2;"/><text fill="#000000" font-family="sans-serif" font-size="36" lengthAdjust="spacing" textLength="190.0547" x="2753" y="256.9805">conformsTo</text></g><!--link CdifConceptOrTerm to XsdAnyUri--><g class="link" data-entity-1="ent0032" data-entity-2="ent0002" data-link-type="dependency" data-source-line="47" id="lnk33"><path codeLine="47" d="M2772.61,93.6094 C2821.2,134.4094 2928.96,219.4694 3034,265.6094 C3246,358.7194 3510.4655,404.425 3651.9255,423.805" fill="none" id="CdifConceptOrTerm-to-XsdAnyUri" style="stroke:#404040;stroke-width:1.2;stroke-dasharray:7,7;"/><polygon fill="#404040" points="3657.87,424.6194,3649.4962,419.4348,3652.9163,423.9407,3648.4104,427.3608,3657.87,424.6194" style="stroke:#404040;stroke-width:1.2;"/><text fill="#000000" font-family="sans-serif" font-size="36" lengthAdjust="spacing" textLength="136.0723" x="3035" y="256.9805">identifier</text></g><!--link VariableMeasured to XsdAnyUri--><g class="link" data-entity-1="ent0034" data-entity-2="ent0002" data-link-type="dependency" data-source-line="49" id="lnk35"><path codeLine="49" d="M3047.58,93.8094 C3082.78,134.1494 3160.79,217.5194 3243,265.6094 C3376.6,343.7694 3545.1815,390.7894 3651.8115,415.2194" fill="none" id="VariableMeasured-to-XsdAnyUri" style="stroke:#404040;stroke-width:1.2;stroke-dasharray:7,7;"/><polygon fill="#404040" points="3657.66,416.5594,3649.7806,410.6505,3652.7863,415.4428,3647.994,418.4484,3657.66,416.5594" style="stroke:#404040;stroke-width:1.2;"/><text fill="#000000" font-family="sans-serif" font-size="36" lengthAdjust="spacing" textLength="136.0723" x="3244" y="256.9805">identifier</text></g><!--link SpatialExtent to XsdAnyUri--><g class="link" data-entity-1="ent0036" data-entity-2="ent0002" data-link-type="dependency" data-source-line="51" id="lnk37"><path codeLine="51" d="M3279.84,93.7694 C3307.53,132.9594 3368.08,213.2094 3434,265.6094 C3502.62,320.1594 3585.8089,363.3241 3652.3889,393.6241" fill="none" id="SpatialExtent-to-XsdAnyUri" style="stroke:#404040;stroke-width:1.2;stroke-dasharray:7,7;"/><polygon fill="#404040" points="3657.85,396.1094,3651.3152,388.7407,3653.2991,394.0383,3648.0015,396.0222,3657.85,396.1094" style="stroke:#404040;stroke-width:1.2;"/><text fill="#000000" font-family="sans-serif" font-size="36" lengthAdjust="spacing" textLength="136.0723" x="3435" y="256.9805">identifier</text></g><!--link QualityMeasure to XsdAnyUri--><g class="link" data-entity-1="ent0038" data-entity-2="ent0002" data-link-type="dependency" data-source-line="53" id="lnk39"><path codeLine="53" d="M3497.8,93.7294 C3520.25,130.8694 3566.63,205.7094 3611,265.6094 C3643.43,309.3794 3679.5556,352.1469 3709.0356,385.7869" fill="none" id="QualityMeasure-to-XsdAnyUri" style="stroke:#404040;stroke-width:1.2;stroke-dasharray:7,7;"/><polygon fill="#404040" points="3712.99,390.2994,3710.0666,380.8944,3709.6946,386.539,3704.05,386.167,3712.99,390.2994" style="stroke:#404040;stroke-width:1.2;"/><text fill="#000000" font-family="sans-serif" font-size="36" lengthAdjust="spacing" textLength="136.0723" x="3612" y="256.9805">identifier</text></g><!--link QualityMeasurement to XsdAnyUri--><g class="link" data-entity-1="ent0040" data-entity-2="ent0002" data-link-type="dependency" data-source-line="55" id="lnk41"><path codeLine="55" d="M3754,93.7494 C3754,153.1494 3754,305.8194 3754,384.5294" fill="none" id="QualityMeasurement-to-XsdAnyUri" style="stroke:#404040;stroke-width:1.2;stroke-dasharray:7,7;"/><polygon fill="#404040" points="3754,390.5294,3758,381.5294,3754,385.5294,3750,381.5294,3754,390.5294" style="stroke:#404040;stroke-width:1.2;"/><text fill="#000000" font-family="sans-serif" font-size="36" lengthAdjust="spacing" textLength="136.0723" x="3755" y="256.9805">identifier</text></g><!--link AbstractGeometry to XsdAnyUri--><g class="link" data-entity-1="ent0042" data-entity-2="ent0002" data-link-type="dependency" data-source-line="57" id="lnk43"><path codeLine="57" d="M4021.37,93.7394 C3998.45,122.4894 3958.67,173.2994 3927,218.6094 C3912.8,238.9194 3911.66,245.6294 3897,265.6094 C3864.78,309.5294 3828.6309,352.2826 3799.1009,385.8826" fill="none" id="AbstractGeometry-to-XsdAnyUri" style="stroke:#404040;stroke-width:1.2;stroke-dasharray:7,7;"/><polygon fill="#404040" points="3795.14,390.3894,3804.0859,386.2698,3798.4407,386.6337,3798.0768,380.9886,3795.14,390.3894" style="stroke:#404040;stroke-width:1.2;"/><text fill="#000000" font-family="sans-serif" font-size="36" lengthAdjust="spacing" textLength="136.0723" x="3928" y="256.9805">identifier</text></g><!--link Geometry to XsdAnyUri--><g class="link" data-entity-1="ent0044" data-entity-2="ent0002" data-link-type="dependency" data-source-line="59" id="lnk45"><path codeLine="59" d="M4221.34,93.6894 C4185.98,120.6594 4128.66,168.0594 4090,218.6094 C4075.75,237.2394 4082.35,248.7894 4066,265.6094 C4005.54,327.7894 3923.0019,370.7461 3855.8319,398.9561" fill="none" id="Geometry-to-XsdAnyUri" style="stroke:#404040;stroke-width:1.2;stroke-dasharray:7,7;"/><polygon fill="#404040" points="3850.3,401.2794,3860.1468,401.4824,3854.9099,399.3433,3857.049,394.1065,3850.3,401.2794" style="stroke:#404040;stroke-width:1.2;"/><text fill="#000000" font-family="sans-serif" font-size="36" lengthAdjust="spacing" textLength="136.0723" x="4091" y="256.9805">identifier</text></g><!--link Geometry to XsdAnyUri--><g class="link" data-entity-1="ent0044" data-entity-2="ent0002" data-link-type="dependency" data-source-line="60" id="lnk46"><path codeLine="60" d="M4257.25,93.6594 C4263.18,133.3994 4269.14,215.3894 4229,265.6094 C4136.82,380.9294 3966.1641,417.6542 3856.2041,429.7342" fill="none" id="Geometry-to-XsdAnyUri-1" style="stroke:#404040;stroke-width:1.2;stroke-dasharray:7,7;"/><polygon fill="#404040" points="3850.24,430.3894,3859.623,433.3826,3855.2101,429.8434,3858.7494,425.4305,3850.24,430.3894" style="stroke:#404040;stroke-width:1.2;"/><text fill="#000000" font-family="sans-serif" font-size="36" lengthAdjust="spacing" textLength="47.9883" x="4253" y="256.9805">crs</text></g><!--link Instant to XsdAnyUri--><g class="link" data-entity-1="ent0047" data-entity-2="ent0002" data-link-type="dependency" data-source-line="62" id="lnk48"><path codeLine="62" d="M4386.46,93.7994 C4379.03,134.5094 4357.97,218.9294 4306,265.6094 C4177,381.4794 3976.471,418.0202 3855.971,429.9102" fill="none" id="Instant-to-XsdAnyUri" style="stroke:#404040;stroke-width:1.2;stroke-dasharray:7,7;"/><polygon fill="#404040" points="3850,430.4994,3859.3493,433.5963,3854.9758,430.0084,3858.5637,425.6349,3850,430.4994" style="stroke:#404040;stroke-width:1.2;"/><text fill="#000000" font-family="sans-serif" font-size="36" lengthAdjust="spacing" textLength="136.0723" x="4342" y="256.9805">identifier</text></g><!--link TimePosition to XsdAnyUri--><g class="link" data-entity-1="ent0049" data-entity-2="ent0002" data-link-type="dependency" data-source-line="64" id="lnk50"><path codeLine="64" d="M4547.39,93.6894 C4545,134.6194 4533.92,219.8794 4484,265.6094 C4391.75,350.1094 4032.3157,403.1219 3856.0557,424.6519" fill="none" id="TimePosition-to-XsdAnyUri" style="stroke:#404040;stroke-width:1.2;stroke-dasharray:7,7;"/><polygon fill="#404040" points="3850.1,425.3794,3859.5186,428.2586,3855.0631,424.7731,3858.5486,420.3177,3850.1,425.3794" style="stroke:#404040;stroke-width:1.2;"/><text fill="#000000" font-family="sans-serif" font-size="36" lengthAdjust="spacing" textLength="130.043" x="4517" y="256.9805">hasTRS</text></g><!--link InstanceVariable to XsdAnyUri--><g class="link" data-entity-1="ent0051" data-entity-2="ent0002" data-link-type="dependency" data-source-line="66" id="lnk52"><path codeLine="66" d="M4764.82,93.9294 C4750.69,135.6394 4715.14,222.6294 4653,265.6094 C4523.33,355.2994 4060.2133,407.8439 3856.0333,427.1739" fill="none" id="InstanceVariable-to-XsdAnyUri" style="stroke:#404040;stroke-width:1.2;stroke-dasharray:7,7;"/><polygon fill="#404040" points="3850.06,427.7394,3859.3969,430.8733,3855.0377,427.2681,3858.6429,422.9089,3850.06,427.7394" style="stroke:#404040;stroke-width:1.2;"/><text fill="#000000" font-family="sans-serif" font-size="36" lengthAdjust="spacing" textLength="136.0723" x="4698" y="256.9805">identifier</text></g><!--link SubstantiveValueDomain to XsdAnyUri--><g class="link" data-entity-1="ent0053" data-entity-2="ent0002" data-link-type="dependency" data-source-line="68" id="lnk54"><path codeLine="68" d="M5057.77,93.8694 C5019.77,135.8894 4933.12,223.9094 4840,265.6094 C4662.88,344.9294 4087.7538,405.2698 3856.3238,426.9498" fill="none" id="SubstantiveValueDomain-to-XsdAnyUri" style="stroke:#404040;stroke-width:1.2;stroke-dasharray:7,7;"/><polygon fill="#404040" points="3850.35,427.5094,3859.6838,430.6525,3855.3282,427.043,3858.9377,422.6874,3850.35,427.5094" style="stroke:#404040;stroke-width:1.2;"/><text fill="#000000" font-family="sans-serif" font-size="36" lengthAdjust="spacing" textLength="136.0723" x="4920" y="256.9805">identifier</text></g><!--link SentinelValueDomain to XsdAnyUri--><g class="link" data-entity-1="ent0055" data-entity-2="ent0002" data-link-type="dependency" data-source-line="70" id="lnk56"><path codeLine="70" d="M5384.65,93.8694 C5324.44,135.8694 5189.66,223.8794 5062,265.6094 C4625.58,408.2794 4076.4292,431.9613 3856.2392,435.5613" fill="none" id="SentinelValueDomain-to-XsdAnyUri" style="stroke:#404040;stroke-width:1.2;stroke-dasharray:7,7;"/><polygon fill="#404040" points="3850.24,435.6594,3859.3042,439.5117,3855.2393,435.5776,3859.1734,431.5128,3850.24,435.6594" style="stroke:#404040;stroke-width:1.2;"/><text fill="#000000" font-family="sans-serif" font-size="36" lengthAdjust="spacing" textLength="136.0723" x="5175" y="256.9805">identifier</text></g><!--link EnumerationDomain to XsdAnyUri--><g class="link" data-entity-1="ent0057" data-entity-2="ent0002" data-link-type="dependency" data-source-line="72" id="lnk58"><path codeLine="72" d="M5686.99,93.6694 C5617.46,135.7594 5461.29,224.4694 5317,265.6094 C4778.21,419.2194 4104.66,436.0932 3856.4,436.7632" fill="none" id="EnumerationDomain-to-XsdAnyUri" style="stroke:#404040;stroke-width:1.2;stroke-dasharray:7,7;"/><polygon fill="#404040" points="3850.4,436.7794,3859.4108,440.7551,3855.4,436.7659,3859.3892,432.7551,3850.4,436.7794" style="stroke:#404040;stroke-width:1.2;"/><text fill="#000000" font-family="sans-serif" font-size="36" lengthAdjust="spacing" textLength="136.0723" x="5445" y="256.9805">identifier</text></g><!--link ValueAndConceptDescription to XsdAnyUri--><g class="link" data-entity-1="ent0059" data-entity-2="ent0002" data-link-type="dependency" data-source-line="74" id="lnk60"><path codeLine="74" d="M6037.23,93.6994 C5951.41,135.8194 5759.37,224.5794 5587,265.6094 C4936.79,420.3694 4131.7,436.0472 3856.46,436.6072" fill="none" id="ValueAndConceptDescription-to-XsdAnyUri" style="stroke:#404040;stroke-width:1.2;stroke-dasharray:7,7;"/><polygon fill="#404040" points="3850.46,436.6194,3859.4681,440.6011,3855.46,436.6092,3859.4518,432.6011,3850.46,436.6194" style="stroke:#404040;stroke-width:1.2;"/><text fill="#000000" font-family="sans-serif" font-size="36" lengthAdjust="spacing" textLength="136.0723" x="5741" y="256.9805">identifier</text></g><!--link ValueAndConceptDescription to XsdAnyUri--><g class="link" data-entity-1="ent0059" data-entity-2="ent0002" data-link-type="dependency" data-source-line="75" id="lnk61"><path codeLine="75" d="M6067.65,93.8594 C6037.89,136.6694 5967.78,227.1094 5883,265.6094 C5696.15,350.4694 4246.4148,415.8107 3856.0448,432.0007" fill="none" id="ValueAndConceptDescription-to-XsdAnyUri-1" style="stroke:#404040;stroke-width:1.2;stroke-dasharray:7,7;"/><polygon fill="#404040" points="3850.05,432.2494,3859.208,435.873,3855.0457,432.0422,3858.8765,427.8799,3850.05,432.2494" style="stroke:#404040;stroke-width:1.2;"/><text fill="#000000" font-family="sans-serif" font-size="36" lengthAdjust="spacing" textLength="278.1563" x="5954" y="256.9805">externalDefinition</text></g><!--link AbstractMapping to XsdAnyUri--><g class="link" data-entity-1="ent0062" data-entity-2="ent0002" data-link-type="dependency" data-source-line="77" id="lnk63"><path codeLine="77" d="M6404.83,93.9094 C6379.13,136.8094 6317.77,227.3794 6238,265.6094 C6019.65,370.2694 4286.6479,422.171 3856.1379,433.541" fill="none" id="AbstractMapping-to-XsdAnyUri" style="stroke:#404040;stroke-width:1.2;stroke-dasharray:7,7;"/><polygon fill="#404040" points="3850.14,433.6994,3859.2425,437.4604,3855.1383,433.5674,3859.0313,429.4632,3850.14,433.6994" style="stroke:#404040;stroke-width:1.2;"/><text fill="#000000" font-family="sans-serif" font-size="36" lengthAdjust="spacing" textLength="136.0723" x="6304" y="256.9805">identifier</text></g><!--link AbstractDataSet to XsdAnyUri--><g class="link" data-entity-1="ent0064" data-entity-2="ent0002" data-link-type="dependency" data-source-line="79" id="lnk65"><path codeLine="79" d="M6648.85,93.6894 C6615.4,136.6294 6536.71,227.8694 6446,265.6094 C6202.45,366.9294 4308.318,421.8135 3856.278,433.5635" fill="none" id="AbstractDataSet-to-XsdAnyUri" style="stroke:#404040;stroke-width:1.2;stroke-dasharray:7,7;"/><polygon fill="#404040" points="3850.28,433.7194,3859.3809,437.4842,3855.2783,433.5895,3859.173,429.4869,3850.28,433.7194" style="stroke:#404040;stroke-width:1.2;"/><text fill="#000000" font-family="sans-serif" font-size="36" lengthAdjust="spacing" textLength="136.0723" x="6522" y="256.9805">identifier</text></g><!--link PrimaryKey to XsdAnyUri--><g class="link" data-entity-1="ent0066" data-entity-2="ent0002" data-link-type="dependency" data-source-line="81" id="lnk67"><path codeLine="81" d="M6862.39,93.7194 C6829.94,136.7194 6753.44,228.0494 6664,265.6094 C6399.72,376.5994 4329.9788,424.558 3856.0988,434.148" fill="none" id="PrimaryKey-to-XsdAnyUri" style="stroke:#404040;stroke-width:1.2;stroke-dasharray:7,7;"/><polygon fill="#404040" points="3850.1,434.2694,3859.1791,438.0865,3855.099,434.1682,3859.0172,430.0881,3850.1,434.2694" style="stroke:#404040;stroke-width:1.2;"/><text fill="#000000" font-family="sans-serif" font-size="36" lengthAdjust="spacing" textLength="136.0723" x="6739" y="256.9805">identifier</text></g><!--link ComponentPosition to XsdAnyUri--><g class="link" data-entity-1="ent0068" data-entity-2="ent0002" data-link-type="dependency" data-source-line="83" id="lnk69"><path codeLine="83" d="M7095.54,93.7794 C7059.61,136.8694 6975.46,228.3594 6881,265.6094 C6593.18,379.1194 4350.969,425.4615 3856.129,434.3615" fill="none" id="ComponentPosition-to-XsdAnyUri" style="stroke:#404040;stroke-width:1.2;stroke-dasharray:7,7;"/><polygon fill="#404040" points="3850.13,434.4694,3859.2005,438.3069,3855.1292,434.3795,3859.0566,430.3082,3850.13,434.4694" style="stroke:#404040;stroke-width:1.2;"/><text fill="#000000" font-family="sans-serif" font-size="36" lengthAdjust="spacing" textLength="136.0723" x="6961" y="256.9805">identifier</text></g><!--link Statistics to XsdAnyUri--><g class="link" data-entity-1="ent0070" data-entity-2="ent0002" data-link-type="dependency" data-source-line="85" id="lnk71"><path codeLine="85" d="M7313.07,93.7994 C7278.13,136.9394 7196.14,228.4894 7103,265.6094 C6793.89,388.7894 4371.8395,427.8584 3856.0895,434.8184" fill="none" id="Statistics-to-XsdAnyUri" style="stroke:#404040;stroke-width:1.2;stroke-dasharray:7,7;"/><polygon fill="#404040" points="3850.09,434.8994,3859.1432,438.7776,3855.0895,434.8319,3859.0352,430.7783,3850.09,434.8994" style="stroke:#404040;stroke-width:1.2;"/><text fill="#000000" font-family="sans-serif" font-size="36" lengthAdjust="spacing" textLength="136.0723" x="7181" y="256.9805">identifier</text></g><!--link CategoryStatistics to XsdAnyUri--><g class="link" data-entity-1="ent0072" data-entity-2="ent0002" data-link-type="dependency" data-source-line="87" id="lnk73"><path codeLine="87" d="M7521.42,93.8094 C7489.04,136.9594 7412.64,228.5294 7323,265.6094 C6994.11,401.6494 4392.5598,430.7481 3856.2398,435.3281" fill="none" id="CategoryStatistics-to-XsdAnyUri" style="stroke:#404040;stroke-width:1.2;stroke-dasharray:7,7;"/><polygon fill="#404040" points="3850.24,435.3794,3859.2738,439.3024,3855.2398,435.3367,3859.2055,431.3027,3850.24,435.3794" style="stroke:#404040;stroke-width:1.2;"/><text fill="#000000" font-family="sans-serif" font-size="36" lengthAdjust="spacing" textLength="136.0723" x="7398" y="256.9805">identifier</text></g><!--link StatisticsCollection to XsdAnyUri--><g class="link" data-entity-1="ent0074" data-entity-2="ent0002" data-link-type="dependency" data-source-line="89" id="lnk75"><path codeLine="89" d="M7788.7,93.8894 C7745.52,137.1894 7645.4,228.9894 7540,265.6094 C7182.24,389.8994 4411.3596,428.469 3856.3496,434.979" fill="none" id="StatisticsCollection-to-XsdAnyUri" style="stroke:#404040;stroke-width:1.2;stroke-dasharray:7,7;"/><polygon fill="#404040" points="3850.35,435.0494,3859.3963,438.9435,3855.3497,434.9907,3859.3025,430.9441,3850.35,435.0494" style="stroke:#404040;stroke-width:1.2;"/><text fill="#000000" font-family="sans-serif" font-size="36" lengthAdjust="spacing" textLength="136.0723" x="7630" y="256.9805">identifier</text></g><!--link Category to XsdAnyUri--><g class="link" data-entity-1="ent0076" data-entity-2="ent0002" data-link-type="dependency" data-source-line="91" id="lnk77"><path codeLine="91" d="M8003.64,93.8994 C7964.11,137.2094 7872.01,229.0494 7772,265.6094 C7393.2,404.0894 4430.8799,431.4474 3856.1699,435.4674" fill="none" id="Category-to-XsdAnyUri" style="stroke:#404040;stroke-width:1.2;stroke-dasharray:7,7;"/><polygon fill="#404040" points="3850.17,435.5094,3859.1978,439.4463,3855.1699,435.4744,3859.1418,431.4465,3850.17,435.5094" style="stroke:#404040;stroke-width:1.2;"/><text fill="#000000" font-family="sans-serif" font-size="36" lengthAdjust="spacing" textLength="136.0723" x="7857" y="256.9805">identifier</text></g><!--link DimensionGroup to XsdAnyUri--><g class="link" data-entity-1="ent0078" data-entity-2="ent0002" data-link-type="dependency" data-source-line="93" id="lnk79"><path codeLine="93" d="M8206.41,93.8894 C8172.12,137.1694 8091.51,228.9694 7999,265.6094 C7601.7,422.9694 4450.87,435.1403 3856.36,436.0403" fill="none" id="DimensionGroup-to-XsdAnyUri" style="stroke:#404040;stroke-width:1.2;stroke-dasharray:7,7;"/><polygon fill="#404040" points="3850.36,436.0494,3859.366,440.0357,3855.36,436.0418,3859.3539,432.0358,3850.36,436.0494" style="stroke:#404040;stroke-width:1.2;"/><text fill="#000000" font-family="sans-serif" font-size="36" lengthAdjust="spacing" textLength="136.0723" x="8077" y="256.9805">identifier</text></g><!--link ForeignKey to XsdAnyUri--><g class="link" data-entity-1="ent0080" data-entity-2="ent0002" data-link-type="dependency" data-source-line="95" id="lnk81"><path codeLine="95" d="M8421.94,93.8994 C8388.63,137.1894 8310.18,229.0094 8219,265.6094 C7800.78,433.4794 4468.89,437.0869 3856.38,436.3169" fill="none" id="ForeignKey-to-XsdAnyUri" style="stroke:#404040;stroke-width:1.2;stroke-dasharray:7,7;"/><polygon fill="#404040" points="3850.38,436.3094,3859.375,440.3207,3855.38,436.3157,3859.385,432.3207,3850.38,436.3094" style="stroke:#404040;stroke-width:1.2;"/><text fill="#000000" font-family="sans-serif" font-size="36" lengthAdjust="spacing" textLength="136.0723" x="8295" y="256.9805">identifier</text></g><?plantuml-src dLVRRjim37ttLnZjUz6rwnw6ea2MIr4CnR8axVQgs7GYL9OCIcwN3VltoJTTh2HErxwOX_RX4KLIYgAAGVnJfYE-Uq8QRMaASK8nOT0yGrweNPn3lWQKaNoXl218ybXkIIhUAD_46M4I7Cy8KRojjZHvuI1b_E7Yod4YuIyIYlZgvj91kKYXHbqmXOoKJCq4Lqlw6-BhJuupOKHp_udY9jnOC87n-SVBwb-3NmIcW7tKfT8VAeLqNIgmy6NqDueQwZEJaxEOI9kX-FOs9OgiTWNStSNdiz7qPd8TaRLKI1BLwZeRYxmGaYgOeyWeWvgZ3yRdq_el2XmN5tTEnC-ntWYkQ4O1EtKJhK62gddRPqFNsNsM4fdx-KIySIP8QZWwm2CoO9yjqLdJgfuqwT1xcS1ShiJnzy8r_e3rQFvGosiUZR3M7AOO9OeAlW2f2wacSW53vu57z7V9WunoI5U0UPCxQzlKELWWaplU9QYZBvCqfPKwmggIwoGyc9NM2gnf13ZGaJeO6NPTUWMWsZLP2c2Rgz0Ly7EgnhgZko0Bo0219qqN6CjGMcIVqiDU14OgALqSBUYrsifNsYx31Kmq3mm2IaZjDYDzXNI6ejjcOplRRB5zue_v-_B7kZkOs2mWqSEh6HWkOgU5XmwNwpYbsLZe11Rg6vgY3L3B7tY6--oP82Lh1ez0P8dGoE-39aBW60wmB7Ik29l-gcPEpUuXXjf7Xtc_buJfGcYLrCG-P9Xxy7kfyqvt21y8aG-ie7_cZ5hx7aGE2jjExe6sZ_kEuGLvn07XAKG7tqdqtQ8RRLmgqkQgVRP3hRM7jQve3lFgJDKDLbEvWE7pm3xfbiZLOkdBIg2hNKUV1Nj27SS95LwkwyNfUV5CM0aJaHFQQD_liZM_ttr2o0hWm89u8Mw3xV4DHvhoCWUinvqJ9q1DbD1poWpIYaOyRMVN16I2j305SDZjpAM3hnm9_uwlG8ybr4TdVU3NLNUmYnz9KUZRjTV4BHRqS8V_nx2ehcJBzXxPmu8m7Jwy5NEaES7TL-ZEuSvqJc433TFLzsEkKQ-Z0zI_JtkU4tf1wMgJYYQoQG5Zsigtq0cIYOADm5sFDeJTOxtlUezg_Lk7GMAIiy-nPoMEy_GrUIi9z9_ouqMFNIvrq7iKPT5ShZp8tgzyU9Xw9X3eXdULPqr3wK17wFu1?></g></svg>