<svg xmlns="http://www.w3.org/2000/svg" xmlns:xlink="http://www.w3.org/1999/xlink" contentStyleType="text/css" data-diagram-type="CLASS" height="497px" preserveAspectRatio="none" style="width:5793px;height:497px;background:#FFFFFF;" version="1.1" viewBox="0 0 5793 497" width="5793px" zoomAndPan="magnify"><?plantuml 1.2026.3?><defs/><g><g class="title" data-source-line="1"><text fill="#000000" font-family="sans-serif" font-size="14" font-weight="700" lengthAdjust="spacing" textLength="71.5723" x="2857.6704" y="24.5332">XsdAnyUri</text></g><!--class XsdAnyUri--><g class="entity" data-qualified-name="XsdAnyUri" data-source-line="16" id="ent0002"><rect fill="#FAE5D3" height="93.0156" rx="2.5" ry="2.5" style="stroke:#404040;stroke-width:0.5;" width="192.1426" x="2234" y="390.6094"/><text fill="#000000" font-family="sans-serif" font-size="36" font-style="italic" lengthAdjust="spacing" textLength="190.1426" x="2235" y="432.9805">&#171;dataType&#187;</text><text fill="#000000" font-family="sans-serif" font-size="30" lengthAdjust="spacing" textLength="141.709" x="2259.2168" y="472.0332">XsdAnyUri</text></g><!--class CompositeProfile--><g class="entity" data-qualified-name="CompositeProfile" data-source-line="17" id="ent0003"><rect fill="#EEEEEE" height="47.7344" rx="2.5" ry="2.5" style="stroke:#404040;stroke-width:0.5;" width="234.4277" x="7" y="45.6094"/><text fill="#000000" font-family="sans-serif" font-size="30" font-style="italic" lengthAdjust="spacing" textLength="228.4277" x="10" y="81.752">CompositeProfile</text></g><!--class Dataset--><g class="entity" data-qualified-name="Dataset" data-source-line="19" id="ent0005"><rect fill="#EEEEEE" height="47.7344" rx="2.5" ry="2.5" style="stroke:#404040;stroke-width:0.5;" width="109.3887" x="261.5" y="45.6094"/><text fill="#000000" font-family="sans-serif" font-size="30" lengthAdjust="spacing" textLength="103.3887" x="264.5" y="81.752">Dataset</text></g><!--class DataDownload--><g class="entity" data-qualified-name="DataDownload" data-source-line="21" id="ent0007"><rect fill="#EEEEEE" height="47.7344" rx="2.5" ry="2.5" style="stroke:#404040;stroke-width:0.5;" width="202.7871" x="472.5" y="45.6094"/><text fill="#000000" font-family="sans-serif" font-size="30" lengthAdjust="spacing" textLength="196.7871" x="475.5" y="81.752">DataDownload</text></g><!--class WebAPI--><g class="entity" data-qualified-name="WebAPI" data-source-line="25" id="ent0011"><rect fill="#EEEEEE" height="47.7344" rx="2.5" ry="2.5" style="stroke:#404040;stroke-width:0.5;" width="116.0391" x="884" y="45.6094"/><text fill="#000000" font-family="sans-serif" font-size="30" lengthAdjust="spacing" textLength="110.0391" x="887" y="81.752">WebAPI</text></g><!--class ActionResult--><g class="entity" data-qualified-name="ActionResult" data-source-line="27" id="ent0013"><rect fill="#EEEEEE" height="47.7344" rx="2.5" ry="2.5" style="stroke:#404040;stroke-width:0.5;" width="174.4131" x="1020" y="45.6094"/><text fill="#000000" font-family="sans-serif" font-size="30" lengthAdjust="spacing" textLength="168.4131" x="1023" y="81.752">ActionResult</text></g><!--class DefinedTerm--><g class="entity" data-qualified-name="DefinedTerm" data-source-line="29" id="ent0015"><rect fill="#EEEEEE" height="47.7344" rx="2.5" ry="2.5" style="stroke:#404040;stroke-width:0.5;" width="179.3936" x="1214.5" y="45.6094"/><text fill="#000000" font-family="sans-serif" font-size="30" lengthAdjust="spacing" textLength="173.3936" x="1217.5" y="81.752">DefinedTerm</text></g><!--class Identifier--><g class="entity" data-qualified-name="Identifier" data-source-line="31" id="ent0017"><rect fill="#EEEEEE" height="47.7344" rx="2.5" ry="2.5" style="stroke:#404040;stroke-width:0.5;" width="121.0635" x="1413.5" y="45.6094"/><text fill="#000000" font-family="sans-serif" font-size="30" lengthAdjust="spacing" textLength="115.0635" x="1416.5" y="81.752">Identifier</text></g><!--class AdditionalProperty--><g class="entity" data-qualified-name="AdditionalProperty" data-source-line="33" id="ent0019"><rect fill="#EEEEEE" height="47.7344" rx="2.5" ry="2.5" style="stroke:#404040;stroke-width:0.5;" width="251.1416" x="1554.5" y="45.6094"/><text fill="#000000" font-family="sans-serif" font-size="30" lengthAdjust="spacing" textLength="245.1416" x="1557.5" y="81.752">AdditionalProperty</text></g><!--class Reference--><g class="entity" data-qualified-name="Reference" data-source-line="35" id="ent0021"><rect fill="#EEEEEE" height="47.7344" rx="2.5" ry="2.5" style="stroke:#404040;stroke-width:0.5;" width="144.4131" x="1826" y="45.6094"/><text fill="#000000" font-family="sans-serif" font-size="30" lengthAdjust="spacing" textLength="138.4131" x="1829" y="81.752">Reference</text></g><!--class ProvActivity--><g class="entity" data-qualified-name="ProvActivity" data-source-line="38" id="ent0024"><rect fill="#EEEEEE" height="47.7344" rx="2.5" ry="2.5" style="stroke:#404040;stroke-width:0.5;" width="162.6943" x="1990.5" y="45.6094"/><text fill="#000000" font-family="sans-serif" font-size="30" lengthAdjust="spacing" textLength="156.6943" x="1993.5" y="81.752">ProvActivity</text></g><!--class DerivedFrom--><g class="entity" data-qualified-name="DerivedFrom" data-source-line="40" id="ent0026"><rect fill="#EEEEEE" height="47.7344" rx="2.5" ry="2.5" style="stroke:#404040;stroke-width:0.5;" width="179.3643" x="2173.5" y="45.6094"/><text fill="#000000" font-family="sans-serif" font-size="30" lengthAdjust="spacing" textLength="173.3643" x="2176.5" y="81.752">DerivedFrom</text></g><!--class CatalogRecord--><g class="entity" data-qualified-name="CatalogRecord" data-source-line="43" id="ent0029"><rect fill="#EEEEEE" height="47.7344" rx="2.5" ry="2.5" style="stroke:#404040;stroke-width:0.5;" width="206.1123" x="2373" y="45.6094"/><text fill="#000000" font-family="sans-serif" font-size="30" lengthAdjust="spacing" textLength="200.1123" x="2376" y="81.752">CatalogRecord</text></g><!--class VariableMeasured--><g class="entity" data-qualified-name="VariableMeasured" data-source-line="45" id="ent0031"><rect fill="#EEEEEE" height="47.7344" rx="2.5" ry="2.5" style="stroke:#404040;stroke-width:0.5;" width="249.4717" x="2599.5" y="45.6094"/><text fill="#000000" font-family="sans-serif" font-size="30" lengthAdjust="spacing" textLength="243.4717" x="2602.5" y="81.752">VariableMeasured</text></g><!--class SpatialExtent--><g class="entity" data-qualified-name="SpatialExtent" data-source-line="47" id="ent0033"><rect fill="#EEEEEE" height="47.7344" rx="2.5" ry="2.5" style="stroke:#404040;stroke-width:0.5;" width="182.7773" x="2868.5" y="45.6094"/><text fill="#000000" font-family="sans-serif" font-size="30" lengthAdjust="spacing" textLength="176.7773" x="2871.5" y="81.752">SpatialExtent</text></g><!--class QualityMeasure--><g class="entity" data-qualified-name="QualityMeasure" data-source-line="49" id="ent0035"><rect fill="#EEEEEE" height="47.7344" rx="2.5" ry="2.5" style="stroke:#404040;stroke-width:0.5;" width="216.0879" x="3072" y="45.6094"/><text fill="#000000" font-family="sans-serif" font-size="30" lengthAdjust="spacing" textLength="210.0879" x="3075" y="81.752">QualityMeasure</text></g><!--class InstanceVariable--><g class="entity" data-qualified-name="InstanceVariable" data-source-line="51" id="ent0037"><rect fill="#EEEEEE" height="47.7344" rx="2.5" ry="2.5" style="stroke:#404040;stroke-width:0.5;" width="229.4766" x="3308.5" y="45.6094"/><text fill="#000000" font-family="sans-serif" font-size="30" lengthAdjust="spacing" textLength="223.4766" x="3311.5" y="81.752">InstanceVariable</text></g><!--class AbstractMapping--><g class="entity" data-qualified-name="AbstractMapping" data-source-line="53" id="ent0039"><rect fill="#EEEEEE" height="47.7344" rx="2.5" ry="2.5" style="stroke:#404040;stroke-width:0.5;" width="231.1172" x="3557.5" y="45.6094"/><text fill="#000000" font-family="sans-serif" font-size="30" font-style="italic" lengthAdjust="spacing" textLength="225.1172" x="3560.5" y="81.752">AbstractMapping</text></g><!--class AbstractDataSet--><g class="entity" data-qualified-name="AbstractDataSet" data-source-line="55" id="ent0041"><rect fill="#EEEEEE" height="47.7344" rx="2.5" ry="2.5" style="stroke:#404040;stroke-width:0.5;" width="224.4375" x="3809" y="45.6094"/><text fill="#000000" font-family="sans-serif" font-size="30" font-style="italic" lengthAdjust="spacing" textLength="218.4375" x="3812" y="81.752">AbstractDataSet</text></g><!--class PrimaryKey--><g class="entity" data-qualified-name="PrimaryKey" data-source-line="57" id="ent0043"><rect fill="#EEEEEE" height="47.7344" rx="2.5" ry="2.5" style="stroke:#404040;stroke-width:0.5;" width="161.0244" x="4053.5" y="45.6094"/><text fill="#000000" font-family="sans-serif" font-size="30" lengthAdjust="spacing" textLength="155.0244" x="4056.5" y="81.752">PrimaryKey</text></g><!--class Statistics--><g class="entity" data-qualified-name="Statistics" data-source-line="59" id="ent0045"><rect fill="#EEEEEE" height="47.7344" rx="2.5" ry="2.5" style="stroke:#404040;stroke-width:0.5;" width="126.0293" x="4235" y="45.6094"/><text fill="#000000" font-family="sans-serif" font-size="30" lengthAdjust="spacing" textLength="120.0293" x="4238" y="81.752">Statistics</text></g><!--class SubstantiveValueDomain--><g class="entity" data-qualified-name="SubstantiveValueDomain" data-source-line="61" id="ent0047"><rect fill="#EEEEEE" height="47.7344" rx="2.5" ry="2.5" style="stroke:#404040;stroke-width:0.5;" width="342.8701" x="4381.5" y="45.6094"/><text fill="#000000" font-family="sans-serif" font-size="30" lengthAdjust="spacing" textLength="336.8701" x="4384.5" y="81.752">SubstantiveValueDomain</text></g><!--class SentinelValueDomain--><g class="entity" data-qualified-name="SentinelValueDomain" data-source-line="63" id="ent0049"><rect fill="#EEEEEE" height="47.7344" rx="2.5" ry="2.5" style="stroke:#404040;stroke-width:0.5;" width="294.5156" x="4744.5" y="45.6094"/><text fill="#000000" font-family="sans-serif" font-size="30" lengthAdjust="spacing" textLength="288.5156" x="4747.5" y="81.752">SentinelValueDomain</text></g><!--class RepresentedVariable--><g class="entity" data-qualified-name="RepresentedVariable" data-source-line="65" id="ent0051"><rect fill="#EEEEEE" height="47.7344" rx="2.5" ry="2.5" style="stroke:#404040;stroke-width:0.5;" width="287.8506" x="5060" y="45.6094"/><text fill="#000000" font-family="sans-serif" font-size="30" lengthAdjust="spacing" textLength="281.8506" x="5063" y="81.752">RepresentedVariable</text></g><!--class DimensionGroup--><g class="entity" data-qualified-name="DimensionGroup" data-source-line="67" id="ent0053"><rect fill="#EEEEEE" height="47.7344" rx="2.5" ry="2.5" style="stroke:#404040;stroke-width:0.5;" width="231.1025" x="5368.5" y="45.6094"/><text fill="#000000" font-family="sans-serif" font-size="30" lengthAdjust="spacing" textLength="225.1025" x="5371.5" y="81.752">DimensionGroup</text></g><!--class ForeignKey--><g class="entity" data-qualified-name="ForeignKey" data-source-line="69" id="ent0055"><rect fill="#EEEEEE" height="47.7344" rx="2.5" ry="2.5" style="stroke:#404040;stroke-width:0.5;" width="159.4131" x="5619.5" y="45.6094"/><text fill="#000000" font-family="sans-serif" font-size="30" lengthAdjust="spacing" textLength="153.4131" x="5622.5" y="81.752">ForeignKey</text></g><!--link CompositeProfile to XsdAnyUri--><g class="link" data-entity-1="ent0003" data-entity-2="ent0002" data-link-type="dependency" data-source-line="18" id="lnk4"><path codeLine="18" d="M119.63,93.6694 C113.29,134.9594 107.03,221.2994 155,265.6094 C309.51,408.3094 1827.3703,431.684 2227.9403,435.384" fill="none" id="CompositeProfile-to-XsdAnyUri" style="stroke:#404040;stroke-width:1.2;stroke-dasharray:7,7;"/><polygon fill="#404040" points="2233.94,435.4394,2224.9773,431.3564,2228.9402,435.3932,2224.9034,439.3561,2233.94,435.4394" style="stroke:#404040;stroke-width:1.2;"/><text fill="#000000" font-family="sans-serif" font-size="36" lengthAdjust="spacing" textLength="136.0723" x="156" y="256.9805">identifier</text></g><!--link Dataset to XsdAnyUri--><g class="link" data-entity-1="ent0005" data-entity-2="ent0002" data-link-type="dependency" data-source-line="20" id="lnk6"><path codeLine="20" d="M307.93,93.7994 C295.39,134.4994 276.98,218.9094 321,265.6094 C453.51,406.1794 1845.3204,431.0335 2227.7504,435.2335" fill="none" id="Dataset-to-XsdAnyUri" style="stroke:#404040;stroke-width:1.2;stroke-dasharray:7,7;"/><polygon fill="#404040" points="2233.75,435.2994,2224.7945,431.2008,2228.7503,435.2445,2224.7066,439.2003,2233.75,435.2994" style="stroke:#404040;stroke-width:1.2;"/><text fill="#000000" font-family="sans-serif" font-size="36" lengthAdjust="spacing" textLength="40.0078" x="322" y="256.9805">url</text></g><!--link DataDownload to XsdAnyUri--><g class="link" data-entity-1="ent0007" data-entity-2="ent0002" data-link-type="dependency" data-source-line="22" id="lnk8"><path codeLine="22" d="M521.67,93.6894 C446.85,129.6994 324.49,201.7594 383,265.6094 C509.18,403.3294 1852.6605,430.1918 2227.7605,435.0418" fill="none" id="DataDownload-to-XsdAnyUri" style="stroke:#404040;stroke-width:1.2;stroke-dasharray:7,7;"/><polygon fill="#404040" points="2233.76,435.1194,2224.8125,431.0034,2228.7604,435.0547,2224.709,439.0027,2233.76,435.1194" style="stroke:#404040;stroke-width:1.2;"/><text fill="#000000" font-family="sans-serif" font-size="36" lengthAdjust="spacing" textLength="164.0742" x="384" y="256.9805">contentUrl</text></g><!--link DataDownload to XsdAnyUri--><g class="link" data-entity-1="ent0007" data-entity-2="ent0002" data-link-type="dependency" data-source-line="23" id="lnk9"><path codeLine="23" d="M565.27,93.6294 C551.6,134.0794 530.88,218.1094 574,265.6094 C686.29,389.3294 1876.7416,425.8703 2227.7416,434.0103" fill="none" id="DataDownload-to-XsdAnyUri-1" style="stroke:#404040;stroke-width:1.2;stroke-dasharray:7,7;"/><polygon fill="#404040" points="2233.74,434.1494,2224.8352,429.9418,2228.7413,434.0335,2224.6497,437.9396,2233.74,434.1494" style="stroke:#404040;stroke-width:1.2;"/><text fill="#000000" font-family="sans-serif" font-size="36" lengthAdjust="spacing" textLength="190.0547" x="575" y="256.9805">conformsTo</text></g><!--link DataDownload to XsdAnyUri--><g class="link" data-entity-1="ent0007" data-entity-2="ent0002" data-link-type="dependency" data-source-line="24" id="lnk10"><path codeLine="24" d="M613.52,93.7394 C655.62,119.8894 722.24,165.7694 767,218.6094 C782.29,236.6594 772.42,252.3294 792,265.6094 C1028.62,426.1594 1929.19,437.6136 2227.91,436.9036" fill="none" id="DataDownload-to-XsdAnyUri-2" style="stroke:#404040;stroke-width:1.2;stroke-dasharray:7,7;"/><polygon fill="#404040" points="2233.91,436.8894,2224.9005,432.9108,2228.91,436.9013,2224.9195,440.9108,2233.91,436.8894" style="stroke:#404040;stroke-width:1.2;"/><text fill="#000000" font-family="sans-serif" font-size="36" lengthAdjust="spacing" textLength="136.0723" x="793" y="256.9805">identifier</text></g><!--link WebAPI to XsdAnyUri--><g class="link" data-entity-1="ent0011" data-entity-2="ent0002" data-link-type="dependency" data-source-line="26" id="lnk12"><path codeLine="26" d="M935.8,93.8594 C926.47,134.6694 914.31,219.2494 959,265.6094 C1047.59,357.5094 1930.8493,414.135 2227.9393,430.715" fill="none" id="WebAPI-to-XsdAnyUri" style="stroke:#404040;stroke-width:1.2;stroke-dasharray:7,7;"/><polygon fill="#404040" points="2233.93,431.0494,2225.1669,426.5541,2228.9378,430.7708,2224.7211,434.5417,2233.93,431.0494" style="stroke:#404040;stroke-width:1.2;"/><text fill="#000000" font-family="sans-serif" font-size="36" lengthAdjust="spacing" textLength="136.0723" x="960" y="256.9805">identifier</text></g><!--link ActionResult to XsdAnyUri--><g class="link" data-entity-1="ent0013" data-entity-2="ent0002" data-link-type="dependency" data-source-line="28" id="lnk14"><path codeLine="28" d="M1104.44,93.6694 C1099.86,139.7694 1092.7,240.9994 1115,265.6094 C1190.09,348.4794 1953.5851,409.694 2227.6951,429.174" fill="none" id="ActionResult-to-XsdAnyUri" style="stroke:#404040;stroke-width:1.2;stroke-dasharray:7,7;"/><polygon fill="#404040" points="2233.68,429.5994,2224.9862,424.9714,2228.6926,429.2449,2224.4191,432.9513,2233.68,429.5994" style="stroke:#404040;stroke-width:1.2;"/><text fill="#000000" font-family="sans-serif" font-size="36" lengthAdjust="spacing" textLength="190.0547" x="1116" y="256.9805">conformsTo</text></g><!--link DefinedTerm to XsdAnyUri--><g class="link" data-entity-1="ent0015" data-entity-2="ent0002" data-link-type="dependency" data-source-line="30" id="lnk16"><path codeLine="30" d="M1303.79,93.7494 C1303.87,140.0094 1306.77,241.5194 1330,265.6094 C1453.86,394.0494 2002.1335,425.7738 2227.8735,433.5138" fill="none" id="DefinedTerm-to-XsdAnyUri" style="stroke:#404040;stroke-width:1.2;stroke-dasharray:7,7;"/><polygon fill="#404040" points="2233.87,433.7194,2225.0124,429.4133,2228.8729,433.548,2224.7382,437.4086,2233.87,433.7194" style="stroke:#404040;stroke-width:1.2;"/><text fill="#000000" font-family="sans-serif" font-size="36" lengthAdjust="spacing" textLength="290.127" x="1331" y="256.9805">inDefinedTermSet</text></g><!--link Identifier to XsdAnyUri--><g class="link" data-entity-1="ent0017" data-entity-2="ent0002" data-link-type="dependency" data-source-line="32" id="lnk18"><path codeLine="32" d="M1502.72,93.8194 C1535.47,121.2694 1589.36,169.4694 1627,218.6094 C1641.52,237.5594 1634.08,251.0494 1653,265.6094 C1826.59,399.2594 2086.5555,428.9232 2227.9055,434.9632" fill="none" id="Identifier-to-XsdAnyUri" style="stroke:#404040;stroke-width:1.2;stroke-dasharray:7,7;"/><polygon fill="#404040" points="2233.9,435.2194,2225.079,430.8388,2228.9046,435.0059,2224.7374,438.8315,2233.9,435.2194" style="stroke:#404040;stroke-width:1.2;"/><text fill="#000000" font-family="sans-serif" font-size="36" lengthAdjust="spacing" textLength="40.0078" x="1654" y="256.9805">url</text></g><!--link AdditionalProperty to XsdAnyUri--><g class="link" data-entity-1="ent0019" data-entity-2="ent0002" data-link-type="dependency" data-source-line="34" id="lnk20"><path codeLine="34" d="M1678.88,93.6394 C1678.22,134.0994 1682.94,218.1294 1729,265.6094 C1799,337.7594 2076.8467,393.8032 2228.0867,419.7932" fill="none" id="AdditionalProperty-to-XsdAnyUri" style="stroke:#404040;stroke-width:1.2;stroke-dasharray:7,7;"/><polygon fill="#404040" points="2234,420.8094,2225.8075,415.3429,2229.0722,419.9626,2224.4526,423.2273,2234,420.8094" style="stroke:#404040;stroke-width:1.2;"/><text fill="#000000" font-family="sans-serif" font-size="36" lengthAdjust="spacing" textLength="144.1055" x="1730" y="256.9805">unitCode</text></g><!--link Reference to XsdAnyUri--><g class="link" data-entity-1="ent0021" data-entity-2="ent0002" data-link-type="dependency" data-source-line="36" id="lnk22"><path codeLine="36" d="M1890.33,93.7494 C1878.89,132.9194 1862.29,213.1294 1898,265.6094 C1972.95,375.7694 2125.2033,413.9611 2227.9333,427.7511" fill="none" id="Reference-to-XsdAnyUri" style="stroke:#404040;stroke-width:1.2;stroke-dasharray:7,7;"/><polygon fill="#404040" points="2233.88,428.5494,2225.4922,423.3876,2228.9244,427.8842,2224.4278,431.3164,2233.88,428.5494" style="stroke:#404040;stroke-width:1.2;"/><text fill="#000000" font-family="sans-serif" font-size="36" lengthAdjust="spacing" textLength="40.0078" x="1899" y="256.9805">url</text></g><!--link Reference to XsdAnyUri--><g class="link" data-entity-1="ent0021" data-entity-2="ent0002" data-link-type="dependency" data-source-line="37" id="lnk23"><path codeLine="37" d="M1907.43,93.6794 C1924.5,133.0994 1963.81,214.1494 2018,265.6094 C2080.44,324.9094 2161.9715,367.8081 2228.2615,396.7581" fill="none" id="Reference-to-XsdAnyUri-1" style="stroke:#404040;stroke-width:1.2;stroke-dasharray:7,7;"/><polygon fill="#404040" points="2233.76,399.1594,2227.1131,391.8917,2229.1779,397.1583,2223.9113,399.2231,2233.76,399.1594" style="stroke:#404040;stroke-width:1.2;"/><text fill="#000000" font-family="sans-serif" font-size="36" lengthAdjust="spacing" textLength="118.0723" x="2019" y="256.9805">relation</text></g><!--link ProvActivity to XsdAnyUri--><g class="link" data-entity-1="ent0024" data-entity-2="ent0002" data-link-type="dependency" data-source-line="39" id="lnk25"><path codeLine="39" d="M2081.37,93.6794 C2097.21,131.3794 2131.53,207.7894 2172,265.6094 C2204.05,311.3994 2243.3809,353.3435 2276.6709,386.0635" fill="none" id="ProvActivity-to-XsdAnyUri" style="stroke:#404040;stroke-width:1.2;stroke-dasharray:7,7;"/><polygon fill="#404040" points="2280.95,390.2694,2277.3352,381.1079,2277.3841,386.7645,2271.7274,386.8133,2280.95,390.2694" style="stroke:#404040;stroke-width:1.2;"/><text fill="#000000" font-family="sans-serif" font-size="36" lengthAdjust="spacing" textLength="78.0645" x="2173" y="256.9805">used</text></g><!--link DerivedFrom to XsdAnyUri--><g class="link" data-entity-1="ent0026" data-entity-2="ent0002" data-link-type="dependency" data-source-line="41" id="lnk27"><path codeLine="41" d="M2260.25,93.6794 C2256.48,130.4494 2251.41,204.4094 2263,265.6094 C2271.35,309.6694 2288.2616,351.4921 2304.0816,385.0521" fill="none" id="DerivedFrom-to-XsdAnyUri" style="stroke:#404040;stroke-width:1.2;stroke-dasharray:7,7;"/><polygon fill="#404040" points="2306.64,390.4794,2306.4206,380.633,2304.508,385.9567,2299.1843,384.0441,2306.64,390.4794" style="stroke:#404040;stroke-width:1.2;"/><text fill="#000000" font-family="sans-serif" font-size="36" lengthAdjust="spacing" textLength="40.0078" x="2264" y="256.9805">url</text></g><!--link DerivedFrom to XsdAnyUri--><g class="link" data-entity-1="ent0026" data-entity-2="ent0002" data-link-type="dependency" data-source-line="42" id="lnk28"><path codeLine="42" d="M2271.04,93.6294 C2280.79,122.4794 2297.05,173.5994 2306,218.6094 C2317.67,277.2894 2323.6386,340.1149 2326.8286,384.3649" fill="none" id="DerivedFrom-to-XsdAnyUri-1" style="stroke:#404040;stroke-width:1.2;stroke-dasharray:7,7;"/><polygon fill="#404040" points="2327.26,390.3494,2330.6025,381.0851,2326.9005,385.3623,2322.6232,381.6603,2327.26,390.3494" style="stroke:#404040;stroke-width:1.2;"/><text fill="#000000" font-family="sans-serif" font-size="36" lengthAdjust="spacing" textLength="118.0723" x="2314" y="256.9805">relation</text></g><!--link CatalogRecord to XsdAnyUri--><g class="link" data-entity-1="ent0029" data-entity-2="ent0002" data-link-type="dependency" data-source-line="44" id="lnk30"><path codeLine="44" d="M2474.27,93.9094 C2470.87,131.2894 2461.52,206.4794 2438,265.6094 C2419.94,311.0294 2393.0189,352.7269 2369.0489,385.6869" fill="none" id="CatalogRecord-to-XsdAnyUri" style="stroke:#404040;stroke-width:1.2;stroke-dasharray:7,7;"/><polygon fill="#404040" points="2365.52,390.5394,2374.0484,385.6133,2368.4608,386.4956,2367.5784,380.908,2365.52,390.5394" style="stroke:#404040;stroke-width:1.2;"/><text fill="#000000" font-family="sans-serif" font-size="36" lengthAdjust="spacing" textLength="190.0547" x="2454" y="256.9805">conformsTo</text></g><!--link VariableMeasured to XsdAnyUri--><g class="link" data-entity-1="ent0031" data-entity-2="ent0002" data-link-type="dependency" data-source-line="46" id="lnk32"><path codeLine="46" d="M2720.63,93.7594 C2713.81,133.2994 2694.99,214.5194 2650,265.6094 C2590.2,333.5194 2502.2698,376.8009 2431.7398,403.5609" fill="none" id="VariableMeasured-to-XsdAnyUri" style="stroke:#404040;stroke-width:1.2;stroke-dasharray:7,7;"/><polygon fill="#404040" points="2426.13,405.6894,2435.9636,406.2366,2430.8048,403.9157,2433.1257,398.7569,2426.13,405.6894" style="stroke:#404040;stroke-width:1.2;"/><text fill="#000000" font-family="sans-serif" font-size="36" lengthAdjust="spacing" textLength="136.0723" x="2682" y="256.9805">identifier</text></g><!--link SpatialExtent to XsdAnyUri--><g class="link" data-entity-1="ent0033" data-entity-2="ent0002" data-link-type="dependency" data-source-line="48" id="lnk34"><path codeLine="48" d="M2949.87,93.6994 C2930.94,134.2594 2886.4,218.4594 2824,265.6094 C2704.02,356.2694 2538.2035,399.884 2432.0535,420.154" fill="none" id="SpatialExtent-to-XsdAnyUri" style="stroke:#404040;stroke-width:1.2;stroke-dasharray:7,7;"/><polygon fill="#404040" points="2426.16,421.2794,2435.7505,423.5203,2431.0713,420.3415,2434.25,415.6623,2426.16,421.2794" style="stroke:#404040;stroke-width:1.2;"/><text fill="#000000" font-family="sans-serif" font-size="36" lengthAdjust="spacing" textLength="136.0723" x="2871" y="256.9805">identifier</text></g><!--link QualityMeasure to XsdAnyUri--><g class="link" data-entity-1="ent0035" data-entity-2="ent0002" data-link-type="dependency" data-source-line="50" id="lnk36"><path codeLine="50" d="M3166.79,93.9294 C3142.14,135.2394 3085.04,221.0794 3013,265.6094 C2826.26,381.0294 2571.2976,417.9019 2432.2176,429.9419" fill="none" id="QualityMeasure-to-XsdAnyUri" style="stroke:#404040;stroke-width:1.2;stroke-dasharray:7,7;"/><polygon fill="#404040" points="2426.24,430.4594,2435.5514,433.6683,2431.2214,430.0281,2434.8615,425.6981,2426.24,430.4594" style="stroke:#404040;stroke-width:1.2;"/><text fill="#000000" font-family="sans-serif" font-size="36" lengthAdjust="spacing" textLength="97.998" x="3068" y="256.9805">metric</text></g><!--link InstanceVariable to XsdAnyUri--><g class="link" data-entity-1="ent0037" data-entity-2="ent0002" data-link-type="dependency" data-source-line="52" id="lnk38"><path codeLine="52" d="M3400.77,93.7594 C3359.58,135.1794 3266.82,221.7494 3171,265.6094 C2918.2,381.3294 2593.0237,418.4973 2432.1037,430.3873" fill="none" id="InstanceVariable-to-XsdAnyUri" style="stroke:#404040;stroke-width:1.2;stroke-dasharray:7,7;"/><polygon fill="#404040" points="2426.12,430.8294,2435.3903,434.1553,2431.1064,430.4609,2434.8008,426.1771,2426.12,430.8294" style="stroke:#404040;stroke-width:1.2;"/><text fill="#000000" font-family="sans-serif" font-size="36" lengthAdjust="spacing" textLength="136.0723" x="3247" y="256.9805">identifier</text></g><!--link AbstractMapping to XsdAnyUri--><g class="link" data-entity-1="ent0039" data-entity-2="ent0002" data-link-type="dependency" data-source-line="54" id="lnk40"><path codeLine="54" d="M3647.88,93.7294 C3600.95,135.5094 3495.06,223.1694 3389,265.6094 C3052.94,400.0894 2622.6871,428.4618 2432.1271,434.4218" fill="none" id="AbstractMapping-to-XsdAnyUri" style="stroke:#404040;stroke-width:1.2;stroke-dasharray:7,7;"/><polygon fill="#404040" points="2426.13,434.6094,2435.2506,438.3261,2431.1276,434.4531,2435.0006,430.33,2426.13,434.6094" style="stroke:#404040;stroke-width:1.2;"/><text fill="#000000" font-family="sans-serif" font-size="36" lengthAdjust="spacing" textLength="136.0723" x="3474" y="256.9805">identifier</text></g><!--link AbstractDataSet to XsdAnyUri--><g class="link" data-entity-1="ent0041" data-entity-2="ent0002" data-link-type="dependency" data-source-line="56" id="lnk42"><path codeLine="56" d="M3894.2,93.6394 C3843.63,135.6794 3729.04,224.2994 3616,265.6094 C3396.27,345.8994 2692.2312,407.6847 2432.3912,428.3047" fill="none" id="AbstractDataSet-to-XsdAnyUri" style="stroke:#404040;stroke-width:1.2;stroke-dasharray:7,7;"/><polygon fill="#404040" points="2426.41,428.7794,2435.6982,432.0549,2431.3943,428.3838,2435.0654,424.0799,2426.41,428.7794" style="stroke:#404040;stroke-width:1.2;"/><text fill="#000000" font-family="sans-serif" font-size="36" lengthAdjust="spacing" textLength="136.0723" x="3715" y="256.9805">identifier</text></g><!--link PrimaryKey to XsdAnyUri--><g class="link" data-entity-1="ent0043" data-entity-2="ent0002" data-link-type="dependency" data-source-line="58" id="lnk44"><path codeLine="58" d="M4110.16,93.9094 C4065.07,136.3794 3962.31,225.6894 3857,265.6094 C3592.52,365.8494 2724.3825,416.7198 2432.1225,431.3298" fill="none" id="PrimaryKey-to-XsdAnyUri" style="stroke:#404040;stroke-width:1.2;stroke-dasharray:7,7;"/><polygon fill="#404040" points="2426.13,431.6294,2435.3185,435.175,2431.1238,431.3797,2434.9191,427.185,2426.13,431.6294" style="stroke:#404040;stroke-width:1.2;"/><text fill="#000000" font-family="sans-serif" font-size="36" lengthAdjust="spacing" textLength="136.0723" x="3948" y="256.9805">identifier</text></g><!--link Statistics to XsdAnyUri--><g class="link" data-entity-1="ent0045" data-entity-2="ent0002" data-link-type="dependency" data-source-line="60" id="lnk46"><path codeLine="60" d="M4281.74,93.7294 C4250.29,136.3394 4176.59,226.4394 4090,265.6094 C3788.81,401.8794 2754.6792,429.4399 2432.1392,434.7899" fill="none" id="Statistics-to-XsdAnyUri" style="stroke:#404040;stroke-width:1.2;stroke-dasharray:7,7;"/><polygon fill="#404040" points="2426.14,434.8894,2435.2051,438.7396,2431.1393,434.8065,2435.0724,430.7407,2426.14,434.8894" style="stroke:#404040;stroke-width:1.2;"/><text fill="#000000" font-family="sans-serif" font-size="36" lengthAdjust="spacing" textLength="136.0723" x="4163" y="256.9805">identifier</text></g><!--link SubstantiveValueDomain to XsdAnyUri--><g class="link" data-entity-1="ent0047" data-entity-2="ent0002" data-link-type="dependency" data-source-line="62" id="lnk48"><path codeLine="62" d="M4532.59,93.8294 C4493.4,136.5994 4402.81,226.9694 4305,265.6094 C3956.61,403.2394 2778.6294,430.0037 2432.0594,434.9537" fill="none" id="SubstantiveValueDomain-to-XsdAnyUri" style="stroke:#404040;stroke-width:1.2;stroke-dasharray:7,7;"/><polygon fill="#404040" points="2426.06,435.0394,2435.1162,438.9104,2431.0595,434.968,2435.002,430.9113,2426.06,435.0394" style="stroke:#404040;stroke-width:1.2;"/><text fill="#000000" font-family="sans-serif" font-size="36" lengthAdjust="spacing" textLength="136.0723" x="4389" y="256.9805">identifier</text></g><!--link SentinelValueDomain to XsdAnyUri--><g class="link" data-entity-1="ent0049" data-entity-2="ent0002" data-link-type="dependency" data-source-line="64" id="lnk50"><path codeLine="64" d="M4860.19,93.8394 C4799.66,136.6094 4662.2,226.9894 4531,265.6094 C4127.26,384.4594 2802.3082,424.722 2432.2282,433.812" fill="none" id="SentinelValueDomain-to-XsdAnyUri" style="stroke:#404040;stroke-width:1.2;stroke-dasharray:7,7;"/><polygon fill="#404040" points="2426.23,433.9594,2435.3255,437.7372,2431.2285,433.8366,2435.1291,429.7396,2426.23,433.9594" style="stroke:#404040;stroke-width:1.2;"/><text fill="#000000" font-family="sans-serif" font-size="36" lengthAdjust="spacing" textLength="136.0723" x="4646" y="256.9805">identifier</text></g><!--link RepresentedVariable to XsdAnyUri--><g class="link" data-entity-1="ent0051" data-entity-2="ent0002" data-link-type="dependency" data-source-line="66" id="lnk52"><path codeLine="66" d="M5167.07,93.6994 C5096.54,136.4594 4936.43,227.1094 4788,265.6094 C4329.17,384.6294 2828.5685,425.2263 2432.2385,434.0163" fill="none" id="RepresentedVariable-to-XsdAnyUri" style="stroke:#404040;stroke-width:1.2;stroke-dasharray:7,7;"/><polygon fill="#404040" points="2426.24,434.1494,2435.3265,437.9488,2431.2388,434.0385,2435.1491,429.9508,2426.24,434.1494" style="stroke:#404040;stroke-width:1.2;"/><text fill="#000000" font-family="sans-serif" font-size="36" lengthAdjust="spacing" textLength="136.0723" x="4919" y="256.9805">identifier</text></g><!--link DimensionGroup to XsdAnyUri--><g class="link" data-entity-1="ent0053" data-entity-2="ent0002" data-link-type="dependency" data-source-line="68" id="lnk54"><path codeLine="68" d="M5446.69,93.6194 C5375.06,136.4594 5211.94,227.5294 5061,265.6094 C4546.4,395.4494 2855.6593,428.4298 2432.3393,434.7498" fill="none" id="DimensionGroup-to-XsdAnyUri" style="stroke:#404040;stroke-width:1.2;stroke-dasharray:7,7;"/><polygon fill="#404040" points="2426.34,434.8394,2435.3987,438.7046,2431.3394,434.7647,2435.2793,430.7055,2426.34,434.8394" style="stroke:#404040;stroke-width:1.2;"/><text fill="#000000" font-family="sans-serif" font-size="36" lengthAdjust="spacing" textLength="136.0723" x="5195" y="256.9805">identifier</text></g><!--link ForeignKey to XsdAnyUri--><g class="link" data-entity-1="ent0055" data-entity-2="ent0002" data-link-type="dependency" data-source-line="70" id="lnk56"><path codeLine="70" d="M5667.64,93.7494 C5607.29,136.8094 5469.24,228.2494 5337,265.6094 C4770.76,425.5994 2882.01,436.0568 2432.32,436.2468" fill="none" id="ForeignKey-to-XsdAnyUri" style="stroke:#404040;stroke-width:1.2;stroke-dasharray:7,7;"/><polygon fill="#404040" points="2426.32,436.2494,2435.32,440.2494,2431.32,436.2494,2435.32,432.2494,2426.32,436.2494" style="stroke:#404040;stroke-width:1.2;"/><text fill="#000000" font-family="sans-serif" font-size="36" lengthAdjust="spacing" textLength="136.0723" x="5453" y="256.9805">identifier</text></g><?plantuml-src dPPDRzim38Rl_XL2Uo-wTjrXA0fu-HYAeK2NfDkkYaKtGcN9eEHssR3_Fjco9TdEuc39nNoOlAJ4ZyHm8u3yq2oL-oVaoOup81d7J81xXg8qUr90iGNKYNxXigH82w9tbAatBfz9JeM6o9CYghVDZcSl4hGcxowk8YTI-QAX95Stbn6LYa53OyWWfvKmIoNDcly2SlqXScQ2MktV2N7XPaee9EVlB-ktXPyKCi0XZQNi5ur1lgqC17oP_4aI9ttcx-ICK1rkYDpUCchePb_2tHqvNwQBc_brGhVQ8CrCczVPJ1Mbqjp08wgS2sWqXf2SBvfNCd9SNDn54JyIMmXfUCu1k-pcDWSDfj5jdxrSPmzLAXJnr-VgJGf5cTVeG4_8mw5QPc_DPlLaHQS-boiiz4OT_zpuZDzXcpxUD-cvHvzOQqvBf9dXIgv0sqPgX6BWvNhmIFxTvK7E9R0DOE7kBjZXwY8sIbD6tZMOJlVUfz_81jEhHkX8SLF6U7qWAcm_bO1cxuu-mk42ngwHlkHcPiUq2xA2711avbhRMruoa4EP_jkB86YTIXV79lHQr-ULjyU8WO_MWwE06bYe7V9NO4jKNUsy7TKki4F97_CFqv_PbXVgUGMPtKXk2yGah80UdUx1RnGvtGfu0Aeh12SzX5vzv9YUd7Lfpq75ucSzv8rwZtZfFftM_LfHOOlKPj88zv5N7k2XT05sVMT-TgGsrFPJTr8tGGCOvcZeE9BtSBMdhVr0ozB-_BdHwhCmLmF-7s7gdRbk5_s0ZS9qVBeAZyWBYlilqCrKPqOJvT49pM9i4sZ3C-qwnPkXJG8wGQxQrlMnusmh92gOgu9owQGFkaAOm-uJGjP0WXZ56_CGx81lEj8AIhH_TkoF9-irwm4UBTEnxuJ_2Bm0gUqo-eogAjswww6myVfuMdgf4FYpxFedc5uoGaVa_W80?></g></svg>