<svg xmlns="http://www.w3.org/2000/svg" xmlns:xlink="http://www.w3.org/1999/xlink" contentStyleType="text/css" data-diagram-type="CLASS" height="202px" preserveAspectRatio="none" style="width:527px;height:202px;background:#FFFFFF;" version="1.1" viewBox="0 0 527 202" width="527px" zoomAndPan="magnify"><?plantuml 1.2026.3?><defs/><g><g class="title" data-source-line="1"><text fill="#000000" font-family="sans-serif" font-size="14" font-weight="700" lengthAdjust="spacing" textLength="56.0205" x="232.2947" y="24.5332">XsdDate</text></g><!--class XsdDate--><g class="entity" data-qualified-name="XsdDate" data-source-line="12" id="ent0002"><rect fill="#FAE5D3" height="40.1875" rx="2.5" ry="2.5" style="stroke:#404040;stroke-width:0.5;" width="65.3809" x="231.96" y="148.6094"/><text fill="#000000" font-family="sans-serif" font-size="12" font-style="italic" lengthAdjust="spacing" textLength="63.3809" x="232.96" y="166.0664">&#171;dataType&#187;</text><text fill="#000000" font-family="sans-serif" font-size="12" lengthAdjust="spacing" textLength="46.0254" x="241.6377" y="181.1602">XsdDate</text></g><!--class Dataset--><g class="entity" data-qualified-name="Dataset" data-source-line="13" id="ent0003"><rect fill="#EEEEEE" height="25.0938" rx="2.5" ry="2.5" style="stroke:#404040;stroke-width:0.5;" width="47.3555" x="58.96" y="45.6094"/><text fill="#000000" font-family="sans-serif" font-size="12" lengthAdjust="spacing" textLength="41.3555" x="61.96" y="63.0664">Dataset</text></g><!--class CatalogRecord--><g class="entity" data-qualified-name="CatalogRecord" data-source-line="16" id="ent0006"><rect fill="#EEEEEE" height="25.0938" rx="2.5" ry="2.5" style="stroke:#404040;stroke-width:0.5;" width="86.0449" x="221.46" y="45.6094"/><text fill="#000000" font-family="sans-serif" font-size="12" lengthAdjust="spacing" textLength="80.0449" x="224.46" y="63.0664">CatalogRecord</text></g><!--class TemporalExtent--><g class="entity" data-qualified-name="TemporalExtent" data-source-line="18" id="ent0008"><rect fill="#EEEEEE" height="25.0938" rx="2.5" ry="2.5" style="stroke:#404040;stroke-width:0.5;" width="90.7031" x="405.96" y="45.6094"/><text fill="#000000" font-family="sans-serif" font-size="12" lengthAdjust="spacing" textLength="84.7031" x="408.96" y="63.0664">TemporalExtent</text></g><!--link Dataset to XsdDate--><g class="link" data-entity-1="ent0003" data-entity-2="ent0002" data-link-type="dependency" data-source-line="14" id="lnk4"><path codeLine="14" d="M58.96,69.1594 C35.81,80.4594 6,99.7194 21.46,118.6094 C47.7,150.6594 165.8918,161.844 225.8818,165.604" fill="none" id="Dataset-to-XsdDate" style="stroke:#404040;stroke-width:1.2;stroke-dasharray:7,7;"/><polygon fill="#404040" points="231.87,165.9794,223.1378,161.4242,226.8798,165.6666,222.6374,169.4086,231.87,165.9794" style="stroke:#404040;stroke-width:1.2;"/><text fill="#000000" font-family="sans-serif" font-size="13" lengthAdjust="spacing" textLength="74.439" x="22.46" y="115.1045">dateModified</text></g><!--link Dataset to XsdDate--><g class="link" data-entity-1="ent0003" data-entity-2="ent0002" data-link-type="dependency" data-source-line="15" id="lnk5"><path codeLine="15" d="M98.11,70.6794 C115.23,83.1394 143.69,103.2294 169.46,118.6094 C189.7,130.6894 207.8608,140.1816 226.4408,149.3616" fill="none" id="Dataset-to-XsdDate-1" style="stroke:#404040;stroke-width:1.2;stroke-dasharray:7,7;"/><polygon fill="#404040" points="231.82,152.0194,225.523,144.4466,227.3373,149.8046,221.9793,151.6189,231.82,152.0194" style="stroke:#404040;stroke-width:1.2;"/><text fill="#000000" font-family="sans-serif" font-size="13" lengthAdjust="spacing" textLength="82.3989" x="170.46" y="115.1045">datePublished</text></g><!--link CatalogRecord to XsdDate--><g class="link" data-entity-1="ent0006" data-entity-2="ent0002" data-link-type="dependency" data-source-line="17" id="lnk7"><path codeLine="17" d="M263.39,70.7294 C262.69,79.0394 261.82,90.4994 261.46,100.6094 C260.88,116.7794 261.3724,129.1654 262.3524,142.5654" fill="none" id="CatalogRecord-to-XsdDate" style="stroke:#404040;stroke-width:1.2;stroke-dasharray:7,7;"/><polygon fill="#404040" points="262.79,148.5494,266.1229,139.2816,262.4253,143.5627,258.1442,139.8651,262.79,148.5494" style="stroke:#404040;stroke-width:1.2;"/><text fill="#000000" font-family="sans-serif" font-size="13" lengthAdjust="spacing" textLength="98.2871" x="262.46" y="115.1045">sdDatePublished</text></g><!--link TemporalExtent to XsdDate--><g class="link" data-entity-1="ent0008" data-entity-2="ent0002" data-link-type="dependency" data-source-line="19" id="lnk9"><path codeLine="19" d="M436.08,70.8194 C419.24,83.3994 391.17,103.5994 365.46,118.6094 C343.41,131.4794 322.9373,141.5159 302.8673,150.6859" fill="none" id="TemporalExtent-to-XsdDate" style="stroke:#404040;stroke-width:1.2;stroke-dasharray:7,7;"/><polygon fill="#404040" points="297.41,153.1794,307.2583,153.0774,301.9578,151.1015,303.9337,145.8009,297.41,153.1794" style="stroke:#404040;stroke-width:1.2;"/><text fill="#000000" font-family="sans-serif" font-size="13" lengthAdjust="spacing" textLength="52.7427" x="393.46" y="115.1045">startDate</text></g><!--link TemporalExtent to XsdDate--><g class="link" data-entity-1="ent0008" data-entity-2="ent0002" data-link-type="dependency" data-source-line="20" id="lnk10"><path codeLine="20" d="M456.21,70.9694 C460.59,84.0494 464.98,105.0394 454.46,118.6094 C435.37,143.2494 352.4322,156.9435 303.2922,163.1835" fill="none" id="TemporalExtent-to-XsdDate-1" style="stroke:#404040;stroke-width:1.2;stroke-dasharray:7,7;"/><polygon fill="#404040" points="297.34,163.9394,306.7722,166.7738,302.3002,163.3095,305.7644,158.8375,297.34,163.9394" style="stroke:#404040;stroke-width:1.2;"/><text fill="#000000" font-family="sans-serif" font-size="13" lengthAdjust="spacing" textLength="49.1499" x="462.46" y="115.1045">endDate</text></g><?plantuml-src VP9DJyCm38Rl-HNMUg_OW0kQAksZko4Xw86hrtXhj3IfdA0n4F-TqBJLMgGb5-VrezUs7A-y9dXtSekUHAKaGQcur5rCTUClK5Ez9tR2dPHfaB46Lw6qPsMES43jw2gpOhRdebBboP1pC4yNLybIOz2-1KHiOxLbI1xk_cuGrvObyLJTMUFVr1V1V25-X8WUiwxb6Q3hsuVbKgB7uj9Gba6oM-MFs_kU3m0wyYtVnP3axH7zEqspmUi9WXSzMwaEYkGDvELZhvMh0jDLsWHKs-ChbM6Sjjv86QgErR5n3FvP5s4Vbb7ddvvCd6Ki3UOJUUBkaNsxy9iOcVWhVW40?></g></svg>