<svg xmlns="http://www.w3.org/2000/svg" xmlns:xlink="http://www.w3.org/1999/xlink" contentStyleType="text/css" data-diagram-type="CLASS" height="880px" preserveAspectRatio="none" style="width:1220px;height:880px;background:#FFFFFF;" version="1.1" viewBox="0 0 1220 880" width="1220px" zoomAndPan="magnify"><?plantuml 1.2026.3?><defs/><g><g class="title" data-source-line="1"><text fill="#000000" font-family="sans-serif" font-size="14" font-weight="700" lengthAdjust="spacing" textLength="39.6621" x="586.8451" y="24.5332">Agent</text></g><!--class Agent--><g class="entity" data-qualified-name="Agent" data-source-line="16" id="ent0002"><rect fill="#FEFECE" height="131.2031" rx="2.5" ry="2.5" style="stroke:#404040;stroke-width:0.5;" width="361.5059" x="338.24" y="390.6094"/><text fill="#000000" font-family="sans-serif" font-size="30" font-style="italic" lengthAdjust="spacing" textLength="78.3984" x="479.7937" y="426.752">Agent</text><line style="stroke:#404040;stroke-width:0.5;" x1="339.24" x2="698.7459" y1="438.3438" y2="438.3438"/><g data-visibility-modifier="PUBLIC_FIELD"><ellipse cx="349.24" cy="462.7109" fill="none" rx="3" ry="3" style="stroke:#038048;stroke-width:1;"/></g><text fill="#000000" font-family="sans-serif" font-size="30" lengthAdjust="spacing" textLength="328.5059" x="365.24" y="473.4863">identifier : Identifier [0..1]</text><g data-visibility-modifier="PUBLIC_FIELD"><ellipse cx="349.24" cy="500.4453" fill="none" rx="3" ry="3" style="stroke:#038048;stroke-width:1;"/></g><text fill="#000000" font-family="sans-serif" font-size="30" lengthAdjust="spacing" textLength="248.4521" x="365.24" y="511.2207">name : string [0..1]</text></g><!--class Person--><g class="entity" data-qualified-name="Person" data-source-line="20" id="ent0003"><rect fill="#D5F5E3" height="47.7344" rx="2.5" ry="2.5" style="stroke:#404040;stroke-width:0.5;" width="101.0537" x="309.74" y="818.6094"/><text fill="#000000" font-family="sans-serif" font-size="30" lengthAdjust="spacing" textLength="95.0537" x="312.74" y="854.752">Person</text></g><!--class Organization--><g class="entity" data-qualified-name="Organization" data-source-line="22" id="ent0005"><rect fill="#D5F5E3" height="47.7344" rx="2.5" ry="2.5" style="stroke:#404040;stroke-width:0.5;" width="176.0977" x="431.24" y="818.6094"/><text fill="#000000" font-family="sans-serif" font-size="30" lengthAdjust="spacing" textLength="170.0977" x="434.24" y="854.752">Organization</text></g><!--class Dataset--><g class="entity" data-qualified-name="Dataset" data-source-line="24" id="ent0007"><rect fill="#EEEEEE" height="47.7344" rx="2.5" ry="2.5" style="stroke:#404040;stroke-width:0.5;" width="109.3887" x="152.74" y="45.6094"/><text fill="#000000" font-family="sans-serif" font-size="30" lengthAdjust="spacing" textLength="103.3887" x="155.74" y="81.752">Dataset</text></g><!--class DataDownload--><g class="entity" data-qualified-name="DataDownload" data-source-line="28" id="ent0011"><rect fill="#EEEEEE" height="47.7344" rx="2.5" ry="2.5" style="stroke:#404040;stroke-width:0.5;" width="202.7871" x="375.74" y="45.6094"/><text fill="#000000" font-family="sans-serif" font-size="30" lengthAdjust="spacing" textLength="196.7871" x="378.74" y="81.752">DataDownload</text></g><!--class Contributor--><g class="entity" data-qualified-name="Contributor" data-source-line="30" id="ent0013"><rect fill="#EEEEEE" height="47.7344" rx="2.5" ry="2.5" style="stroke:#404040;stroke-width:0.5;" width="154.4033" x="599.24" y="45.6094"/><text fill="#000000" font-family="sans-serif" font-size="30" lengthAdjust="spacing" textLength="148.4033" x="602.24" y="81.752">Contributor</text></g><!--class MonetaryGrant--><g class="entity" data-qualified-name="MonetaryGrant" data-source-line="32" id="ent0015"><rect fill="#EEEEEE" height="47.7344" rx="2.5" ry="2.5" style="stroke:#404040;stroke-width:0.5;" width="206.083" x="773.24" y="45.6094"/><text fill="#000000" font-family="sans-serif" font-size="30" lengthAdjust="spacing" textLength="200.083" x="776.24" y="81.752">MonetaryGrant</text></g><!--class CatalogRecord--><g class="entity" data-qualified-name="CatalogRecord" data-source-line="34" id="ent0017"><rect fill="#EEEEEE" height="47.7344" rx="2.5" ry="2.5" style="stroke:#404040;stroke-width:0.5;" width="206.1123" x="999.24" y="45.6094"/><text fill="#000000" font-family="sans-serif" font-size="30" lengthAdjust="spacing" textLength="200.1123" x="1002.24" y="81.752">CatalogRecord</text></g><!--class Identifier--><g class="entity" data-qualified-name="Identifier" data-source-line="36" id="ent0019"><rect fill="#EEEEEE" height="47.7344" rx="2.5" ry="2.5" style="stroke:#404040;stroke-width:0.5;" width="121.0635" x="627.74" y="818.6094"/><text fill="#000000" font-family="sans-serif" font-size="30" lengthAdjust="spacing" textLength="115.0635" x="630.74" y="854.752">Identifier</text></g><!--reverse link Agent to Person--><g class="link" data-entity-1="ent0002" data-entity-2="ent0003" data-link-type="extension" data-source-line="21" id="lnk4"><path codeLine="21" d="M485.5613,538.5332 C449.4513,625.8532 393.82,760.3894 369.92,818.1994" fill="none" id="Agent-backto-Person" style="stroke:#404040;stroke-width:1.2;"/><polygon fill="none" points="492.44,521.8994,480.0167,536.2403,491.1059,540.8261,492.44,521.8994" style="stroke:#404040;stroke-width:1.2;"/></g><!--reverse link Agent to Organization--><g class="link" data-entity-1="ent0002" data-entity-2="ent0005" data-link-type="extension" data-source-line="23" id="lnk6"><path codeLine="23" d="M519.24,539.8994 C519.24,627.2194 519.24,760.3894 519.24,818.1994" fill="none" id="Agent-backto-Organization" style="stroke:#404040;stroke-width:1.2;"/><polygon fill="none" points="519.24,521.8994,513.24,539.8994,525.24,539.8994,519.24,521.8994" style="stroke:#404040;stroke-width:1.2;"/></g><!--link Dataset to Agent--><g class="link" data-entity-1="ent0007" data-entity-2="ent0002" data-link-type="dependency" data-source-line="25" id="lnk8"><path codeLine="25" d="M164.38,93.6294 C104.02,129.1394 6,200.0294 50.24,265.6094 C114.38,360.7094 229.3319,406.7579 332.2619,430.3679" fill="none" id="Dataset-to-Agent" style="stroke:#404040;stroke-width:1.2;"/><polygon fill="#404040" points="338.11,431.7094,330.2321,425.7985,333.2366,430.5915,328.4435,433.596,338.11,431.7094" style="stroke:#404040;stroke-width:1.2;"/><text fill="#000000" font-family="sans-serif" font-size="36" lengthAdjust="spacing" textLength="130.0605" x="51.24" y="256.9805">provider</text><text fill="#000000" font-family="sans-serif" font-size="36" lengthAdjust="spacing" textLength="54.0352" x="275.9903" y="422.25">0..*</text></g><!--link Dataset to Agent--><g class="link" data-entity-1="ent0007" data-entity-2="ent0002" data-link-type="dependency" data-source-line="26" id="lnk9"><path codeLine="26" d="M200.39,93.7594 C190.43,132.2394 176.28,210.5794 207.24,265.6094 C238,320.2894 286.3553,358.1597 340.5653,387.5497" fill="none" id="Dataset-to-Agent-1" style="stroke:#404040;stroke-width:1.2;"/><polygon fill="#404040" points="345.84,390.4094,339.8344,382.6034,341.4444,388.0263,336.0215,389.6363,345.84,390.4094" style="stroke:#404040;stroke-width:1.2;"/><text fill="#000000" font-family="sans-serif" font-size="36" lengthAdjust="spacing" textLength="112.043" x="208.24" y="256.9805">creator</text><text fill="#000000" font-family="sans-serif" font-size="36" lengthAdjust="spacing" textLength="54.0352" x="332.3681" y="374.6531">0..*</text></g><!--link Dataset to Agent--><g class="link" data-entity-1="ent0007" data-entity-2="ent0002" data-link-type="dependency" data-source-line="27" id="lnk10"><path codeLine="27" d="M228.4,93.8494 C253.18,121.8894 294.37,171.1994 322.24,218.6094 C333.74,238.1794 329.86,246.5794 342.24,265.6094 C371.82,311.0794 408.4952,351.5192 443.5552,386.0492" fill="none" id="Dataset-to-Agent-2" style="stroke:#404040;stroke-width:1.2;"/><polygon fill="#404040" points="447.83,390.2594,444.2246,381.0942,444.2676,386.7509,438.611,386.794,447.83,390.2594" style="stroke:#404040;stroke-width:1.2;"/><text fill="#000000" font-family="sans-serif" font-size="36" lengthAdjust="spacing" textLength="146.0918" x="343.24" y="256.9805">publisher</text><text fill="#000000" font-family="sans-serif" font-size="36" lengthAdjust="spacing" textLength="60.0469" x="444.166" y="374.7653">0..1</text></g><!--link DataDownload to Agent--><g class="link" data-entity-1="ent0011" data-entity-2="ent0002" data-link-type="dependency" data-source-line="29" id="lnk12"><path codeLine="29" d="M480.18,93.6694 C483.87,122.7594 490.3,174.3594 495.24,218.6094 C501.72,276.7494 507.795,337.038 512.455,384.608" fill="none" id="DataDownload-to-Agent" style="stroke:#404040;stroke-width:1.2;"/><polygon fill="#404040" points="513.04,390.5794,516.1435,381.2323,512.5525,385.6032,508.1816,382.0122,513.04,390.5794" style="stroke:#404040;stroke-width:1.2;"/><text fill="#000000" font-family="sans-serif" font-size="36" lengthAdjust="spacing" textLength="130.0605" x="500.24" y="256.9805">provider</text><text fill="#000000" font-family="sans-serif" font-size="36" lengthAdjust="spacing" textLength="54.0352" x="515.0477" y="374.5638">0..*</text></g><!--link Contributor to Agent--><g class="link" data-entity-1="ent0013" data-entity-2="ent0002" data-link-type="dependency" data-source-line="31" id="lnk14"><path codeLine="31" d="M674.12,93.8794 C670.15,131.2194 659.75,206.3394 636.24,265.6094 C618.7,309.8194 594.376,350.3293 570.336,385.6493" fill="none" id="Contributor-to-Agent" style="stroke:#404040;stroke-width:1.2;"/><polygon fill="#404040" points="566.96,390.6094,575.3307,385.4199,569.7733,386.476,568.7173,380.9186,566.96,390.6094" style="stroke:#404040;stroke-width:1.2;"/><text fill="#000000" font-family="sans-serif" font-size="36" lengthAdjust="spacing" textLength="170.0859" x="652.24" y="256.9805">contributor</text><text fill="#000000" font-family="sans-serif" font-size="36" lengthAdjust="spacing" textLength="60.0469" x="574.3935" y="374.5967">0..1</text></g><!--link MonetaryGrant to Agent--><g class="link" data-entity-1="ent0015" data-entity-2="ent0002" data-link-type="dependency" data-source-line="33" id="lnk16"><path codeLine="33" d="M876.05,93.6894 C874.62,132.7594 866.8,212.8294 828.24,265.6094 C789.35,318.8394 735.8236,357.3676 679.9136,387.7076" fill="none" id="MonetaryGrant-to-Agent" style="stroke:#404040;stroke-width:1.2;"/><polygon fill="#404040" points="674.64,390.5694,684.4582,389.7925,679.0346,388.1846,680.6425,382.7611,674.64,390.5694" style="stroke:#404040;stroke-width:1.2;"/><text fill="#000000" font-family="sans-serif" font-size="36" lengthAdjust="spacing" textLength="102.0762" x="852.24" y="256.9805">funder</text><text fill="#000000" font-family="sans-serif" font-size="36" lengthAdjust="spacing" textLength="54.0352" x="691.4794" y="374.8279">0..*</text></g><!--link CatalogRecord to Agent--><g class="link" data-entity-1="ent0017" data-entity-2="ent0002" data-link-type="dependency" data-source-line="35" id="lnk18"><path codeLine="35" d="M1090.69,93.8594 C1069.76,133.9194 1021.94,216.3594 960.24,265.6094 C883.95,326.4994 790.8006,369.2939 706.0606,400.0239" fill="none" id="CatalogRecord-to-Agent" style="stroke:#404040;stroke-width:1.2;"/><polygon fill="#404040" points="700.42,402.0694,710.2445,402.7615,705.1205,400.3648,707.5172,395.2408,700.42,402.0694" style="stroke:#404040;stroke-width:1.2;"/><text fill="#000000" font-family="sans-serif" font-size="36" lengthAdjust="spacing" textLength="168.082" x="1007.24" y="256.9805">maintainer</text><text fill="#000000" font-family="sans-serif" font-size="36" lengthAdjust="spacing" textLength="60.0469" x="708.019" y="438.3084">0..1</text></g><!--link Agent to Identifier--><g class="link" data-entity-1="ent0002" data-entity-2="ent0019" data-link-type="dependency" data-source-line="37" id="lnk20"><path codeLine="37" d="M547.71,521.8994 C586.09,609.2194 650.1257,754.8966 675.5357,812.7066" fill="none" id="Agent-to-Identifier" style="stroke:#404040;stroke-width:1.2;"/><polygon fill="#404040" points="677.95,818.1994,677.9904,808.3506,675.9381,813.622,670.6666,811.5697,677.95,818.1994" style="stroke:#404040;stroke-width:1.2;"/><text fill="#000000" font-family="sans-serif" font-size="36" lengthAdjust="spacing" textLength="136.0723" x="619.24" y="684.9805">identifier</text><text fill="#000000" font-family="sans-serif" font-size="36" lengthAdjust="spacing" textLength="60.0469" x="611.0237" y="802.5548">0..1</text></g><?plantuml-src VPB1ZjCm48RlVefHUmErQdSfXnL2MjeKxG61W1lYC4schLN7hiPJgbtOTyUDasOArIQAPF_Z-URtPCIA8xZVa1UpjHL1QRbqbDTKx-KHQgfNnD74dVLxPAmXRh4AH-iti4ONIKNkcSFn-zQMEqynmdHyeuACVXTf3pUpYL9zgAXHjLZH6WzEbi7BD_j4SFjM1Kk7YVtRG2ut3oum3DzCJcyIFmIkYFzLDIebYh1T7OHwUMAUZS5L5CPIsXg3fZ43m9XR1CDbiIpcHLFyTMgH5xksn7073_tcnsGydluydV1OKuebvgbPhVviMlYNrDNW6tfUmd0nMywAMvEBlVip6hMHBkKpRz3R9nJR9chXMhgETv052aRArshNC2oQntJxqUWz39BVLuFsvdUmv_0hNPbVEbCoeOJ_ZqmLvh1oDcuJHzbPXADt0QkpfqwuC7OMNtBNKkVfnpQ_E703LVipKsjNd9PzkAD-2fu4-V5ZckNSm0lbJBvKhzXT7xmscoxdmkOhbMbsirsjz8Olr2kMQxHUqjUZ-xbik6fCEsZELR07FTVza9k_?></g></svg>