<svg xmlns="http://www.w3.org/2000/svg" xmlns:xlink="http://www.w3.org/1999/xlink" contentStyleType="text/css" data-diagram-type="CLASS" height="646px" preserveAspectRatio="none" style="width:2116px;height:646px;background:#FFFFFF;" version="1.1" viewBox="0 0 2116 646" width="2116px" zoomAndPan="magnify"><?plantuml 1.2026.3?><defs/><g><g class="title" data-source-line="1"><text fill="#000000" font-family="sans-serif" font-size="14" font-weight="700" lengthAdjust="spacing" textLength="50.5791" x="1029.3353" y="24.5332">Dataset</text></g><!--class Dataset--><g class="entity" data-qualified-name="Dataset" data-source-line="15" id="ent0002"><rect fill="#FEFECE" height="297.2344" rx="2.5" ry="2.5" style="stroke:#404040;stroke-width:0.5;" width="258.6816" x="702.8688" y="45.6094"/><text fill="#000000" font-family="sans-serif" font-size="12" lengthAdjust="spacing" textLength="41.3555" x="811.5319" y="63.0664">Dataset</text><line style="stroke:#404040;stroke-width:0.5;" x1="703.8688" x2="960.5504" y1="70.7031" y2="70.7031"/><g data-visibility-modifier="PUBLIC_FIELD"><ellipse cx="713.8688" cy="85.0078" fill="none" rx="3" ry="3" style="stroke:#038048;stroke-width:1;"/></g><text fill="#000000" font-family="sans-serif" font-size="14" lengthAdjust="spacing" textLength="137.7373" x="722.8688" y="89.2363">identifier : Identifier [1]</text><g data-visibility-modifier="PUBLIC_FIELD"><ellipse cx="713.8688" cy="102.6172" fill="none" rx="3" ry="3" style="stroke:#038048;stroke-width:1;"/></g><text fill="#000000" font-family="sans-serif" font-size="14" lengthAdjust="spacing" textLength="100.3789" x="722.8688" y="106.8457">name : string [1]</text><g data-visibility-modifier="PUBLIC_FIELD"><ellipse cx="713.8688" cy="120.2266" fill="none" rx="3" ry="3" style="stroke:#038048;stroke-width:1;"/></g><text fill="#000000" font-family="sans-serif" font-size="14" lengthAdjust="spacing" textLength="148.627" x="722.8688" y="124.4551">description : string [0..1]</text><g data-visibility-modifier="PUBLIC_FIELD"><ellipse cx="713.8688" cy="137.8359" fill="none" rx="3" ry="3" style="stroke:#038048;stroke-width:1;"/></g><text fill="#000000" font-family="sans-serif" font-size="14" lengthAdjust="spacing" textLength="216.3301" x="722.8688" y="142.0645">additionalType : DefinedTerm [0..*]</text><g data-visibility-modifier="PUBLIC_FIELD"><ellipse cx="713.8688" cy="155.4453" fill="none" rx="3" ry="3" style="stroke:#038048;stroke-width:1;"/></g><text fill="#000000" font-family="sans-serif" font-size="14" lengthAdjust="spacing" textLength="148.6201" x="722.8688" y="159.6738">sameAs : Identifier [0..*]</text><g data-visibility-modifier="PUBLIC_FIELD"><ellipse cx="713.8688" cy="173.0547" fill="none" rx="3" ry="3" style="stroke:#038048;stroke-width:1;"/></g><text fill="#000000" font-family="sans-serif" font-size="14" lengthAdjust="spacing" textLength="126.0547" x="722.8688" y="177.2832">version : string [0..1]</text><g data-visibility-modifier="PUBLIC_FIELD"><ellipse cx="713.8688" cy="190.6641" fill="none" rx="3" ry="3" style="stroke:#038048;stroke-width:1;"/></g><text fill="#000000" font-family="sans-serif" font-size="14" lengthAdjust="spacing" textLength="206.2881" x="722.8688" y="194.8926">inLanguage : XsdLanguage [0..1]</text><g data-visibility-modifier="PUBLIC_FIELD"><ellipse cx="713.8688" cy="208.2734" fill="none" rx="3" ry="3" style="stroke:#038048;stroke-width:1;"/></g><text fill="#000000" font-family="sans-serif" font-size="14" lengthAdjust="spacing" textLength="164.9854" x="722.8688" y="212.502">dateModified : XsdDate [1]</text><g data-visibility-modifier="PUBLIC_FIELD"><ellipse cx="713.8688" cy="225.8828" fill="none" rx="3" ry="3" style="stroke:#038048;stroke-width:1;"/></g><text fill="#000000" font-family="sans-serif" font-size="14" lengthAdjust="spacing" textLength="189.123" x="722.8688" y="230.1113">datePublished : XsdDate [0..1]</text><g data-visibility-modifier="PUBLIC_FIELD"><ellipse cx="713.8688" cy="243.4922" fill="none" rx="3" ry="3" style="stroke:#038048;stroke-width:1;"/></g><text fill="#000000" font-family="sans-serif" font-size="14" lengthAdjust="spacing" textLength="128.3789" x="722.8688" y="247.7207">url : XsdAnyUri [0..1]</text><g data-visibility-modifier="PUBLIC_FIELD"><ellipse cx="713.8688" cy="261.1016" fill="none" rx="3" ry="3" style="stroke:#038048;stroke-width:1;"/></g><text fill="#000000" font-family="sans-serif" font-size="14" lengthAdjust="spacing" textLength="152.5234" x="722.8688" y="265.3301">license : Reference [0..*]</text><g data-visibility-modifier="PUBLIC_FIELD"><ellipse cx="713.8688" cy="278.7109" fill="none" rx="3" ry="3" style="stroke:#038048;stroke-width:1;"/></g><text fill="#000000" font-family="sans-serif" font-size="14" lengthAdjust="spacing" textLength="231.8887" x="722.8688" y="282.9395">conditionsOfAccess : Reference [0..*]</text><g data-visibility-modifier="PUBLIC_FIELD"><ellipse cx="713.8688" cy="296.3203" fill="none" rx="3" ry="3" style="stroke:#038048;stroke-width:1;"/></g><text fill="#000000" font-family="sans-serif" font-size="14" lengthAdjust="spacing" textLength="232.6816" x="722.8688" y="300.5488">publishingPrinciples : Reference [0..*]</text><g data-visibility-modifier="PUBLIC_FIELD"><ellipse cx="713.8688" cy="313.9297" fill="none" rx="3" ry="3" style="stroke:#038048;stroke-width:1;"/></g><text fill="#000000" font-family="sans-serif" font-size="14" lengthAdjust="spacing" textLength="184.3994" x="722.8688" y="318.1582">keywords : DefinedTerm [0..*]</text><g data-visibility-modifier="PUBLIC_FIELD"><ellipse cx="713.8688" cy="331.5391" fill="none" rx="3" ry="3" style="stroke:#038048;stroke-width:1;"/></g><text fill="#000000" font-family="sans-serif" font-size="14" lengthAdjust="spacing" textLength="177.4336" x="722.8688" y="335.7676">relatedLink : Reference [0..*]</text></g><!--class Agent--><g class="entity" data-qualified-name="Agent" data-source-line="32" id="ent0003"><rect fill="#EEEEEE" height="25.0938" rx="2.5" ry="2.5" style="stroke:#404040;stroke-width:0.5;" width="37.3594" x="35.8688" y="600.1094"/><text fill="#000000" font-family="sans-serif" font-size="12" font-style="italic" lengthAdjust="spacing" textLength="31.3594" x="38.8688" y="617.5664">Agent</text></g><!--class AbstractDistribution--><g class="entity" data-qualified-name="AbstractDistribution" data-source-line="34" id="ent0005"><rect fill="#EEEEEE" height="25.0938" rx="2.5" ry="2.5" style="stroke:#404040;stroke-width:0.5;" width="110.0391" x="93.3688" y="600.1094"/><text fill="#000000" font-family="sans-serif" font-size="12" font-style="italic" lengthAdjust="spacing" textLength="104.0391" x="96.3688" y="617.5664">AbstractDistribution</text></g><!--class Contributor--><g class="entity" data-qualified-name="Contributor" data-source-line="37" id="ent0008"><rect fill="#EEEEEE" height="25.0938" rx="2.5" ry="2.5" style="stroke:#404040;stroke-width:0.5;" width="65.3613" x="223.8688" y="600.1094"/><text fill="#000000" font-family="sans-serif" font-size="12" lengthAdjust="spacing" textLength="59.3613" x="226.8688" y="617.5664">Contributor</text></g><!--class MonetaryGrant--><g class="entity" data-qualified-name="MonetaryGrant" data-source-line="40" id="ent0011"><rect fill="#EEEEEE" height="25.0938" rx="2.5" ry="2.5" style="stroke:#404040;stroke-width:0.5;" width="86.0332" x="309.3688" y="600.1094"/><text fill="#000000" font-family="sans-serif" font-size="12" lengthAdjust="spacing" textLength="80.0332" x="312.3688" y="617.5664">MonetaryGrant</text></g><!--class ProvActivity--><g class="entity" data-qualified-name="ProvActivity" data-source-line="42" id="ent0013"><rect fill="#EEEEEE" height="25.0938" rx="2.5" ry="2.5" style="stroke:#404040;stroke-width:0.5;" width="68.6777" x="415.8688" y="600.1094"/><text fill="#000000" font-family="sans-serif" font-size="12" lengthAdjust="spacing" textLength="62.6777" x="418.8688" y="617.5664">ProvActivity</text></g><!--class DerivedFrom--><g class="entity" data-qualified-name="DerivedFrom" data-source-line="44" id="ent0015"><rect fill="#EEEEEE" height="25.0938" rx="2.5" ry="2.5" style="stroke:#404040;stroke-width:0.5;" width="75.3457" x="504.8688" y="600.1094"/><text fill="#000000" font-family="sans-serif" font-size="12" lengthAdjust="spacing" textLength="69.3457" x="507.8688" y="617.5664">DerivedFrom</text></g><!--class CatalogRecord--><g class="entity" data-qualified-name="CatalogRecord" data-source-line="46" id="ent0017"><rect fill="#EEEEEE" height="25.0938" rx="2.5" ry="2.5" style="stroke:#404040;stroke-width:0.5;" width="86.0449" x="600.3688" y="600.1094"/><text fill="#000000" font-family="sans-serif" font-size="12" lengthAdjust="spacing" textLength="80.0449" x="603.3688" y="617.5664">CatalogRecord</text></g><!--class DefinedTerm--><g class="entity" data-qualified-name="DefinedTerm" data-source-line="48" id="ent0019"><rect fill="#EEEEEE" height="25.0938" rx="2.5" ry="2.5" style="stroke:#404040;stroke-width:0.5;" width="75.3574" x="706.8688" y="600.1094"/><text fill="#000000" font-family="sans-serif" font-size="12" lengthAdjust="spacing" textLength="69.3574" x="709.8688" y="617.5664">DefinedTerm</text></g><!--class Reference--><g class="entity" data-qualified-name="Reference" data-source-line="50" id="ent0021"><rect fill="#EEEEEE" height="25.0938" rx="2.5" ry="2.5" style="stroke:#404040;stroke-width:0.5;" width="61.3652" x="801.8688" y="600.1094"/><text fill="#000000" font-family="sans-serif" font-size="12" lengthAdjust="spacing" textLength="55.3652" x="804.8688" y="617.5664">Reference</text></g><!--class VariableMeasured--><g class="entity" data-qualified-name="VariableMeasured" data-source-line="53" id="ent0024"><rect fill="#EEEEEE" height="25.0938" rx="2.5" ry="2.5" style="stroke:#404040;stroke-width:0.5;" width="103.3887" x="882.8688" y="600.1094"/><text fill="#000000" font-family="sans-serif" font-size="12" lengthAdjust="spacing" textLength="97.3887" x="885.8688" y="617.5664">VariableMeasured</text></g><!--class SpatialExtent--><g class="entity" data-qualified-name="SpatialExtent" data-source-line="55" id="ent0026"><rect fill="#EEEEEE" height="25.0938" rx="2.5" ry="2.5" style="stroke:#404040;stroke-width:0.5;" width="76.7109" x="1005.8688" y="600.1094"/><text fill="#000000" font-family="sans-serif" font-size="12" lengthAdjust="spacing" textLength="70.7109" x="1008.8688" y="617.5664">SpatialExtent</text></g><!--class TemporalExtent--><g class="entity" data-qualified-name="TemporalExtent" data-source-line="57" id="ent0028"><rect fill="#EEEEEE" height="25.0938" rx="2.5" ry="2.5" style="stroke:#404040;stroke-width:0.5;" width="90.7031" x="1102.8688" y="600.1094"/><text fill="#000000" font-family="sans-serif" font-size="12" lengthAdjust="spacing" textLength="84.7031" x="1105.8688" y="617.5664">TemporalExtent</text></g><!--class QualityMeasure--><g class="entity" data-qualified-name="QualityMeasure" data-source-line="59" id="ent0030"><rect fill="#EEEEEE" height="25.0938" rx="2.5" ry="2.5" style="stroke:#404040;stroke-width:0.5;" width="90.0352" x="1214.3688" y="600.1094"/><text fill="#000000" font-family="sans-serif" font-size="12" lengthAdjust="spacing" textLength="84.0352" x="1217.3688" y="617.5664">QualityMeasure</text></g><!--class InstanceVariable--><g class="entity" data-qualified-name="InstanceVariable" data-source-line="61" id="ent0032"><rect fill="#EEEEEE" height="25.0938" rx="2.5" ry="2.5" style="stroke:#404040;stroke-width:0.5;" width="95.3906" x="1324.8688" y="600.1094"/><text fill="#000000" font-family="sans-serif" font-size="12" lengthAdjust="spacing" textLength="89.3906" x="1327.8688" y="617.5664">InstanceVariable</text></g><!--class PrimaryKey--><g class="entity" data-qualified-name="PrimaryKey" data-source-line="63" id="ent0034"><rect fill="#EEEEEE" height="25.0938" rx="2.5" ry="2.5" style="stroke:#404040;stroke-width:0.5;" width="68.0098" x="1440.3688" y="600.1094"/><text fill="#000000" font-family="sans-serif" font-size="12" lengthAdjust="spacing" textLength="62.0098" x="1443.3688" y="617.5664">PrimaryKey</text></g><!--class Statistics--><g class="entity" data-qualified-name="Statistics" data-source-line="65" id="ent0036"><rect fill="#EEEEEE" height="25.0938" rx="2.5" ry="2.5" style="stroke:#404040;stroke-width:0.5;" width="54.0117" x="1528.3688" y="600.1094"/><text fill="#000000" font-family="sans-serif" font-size="12" lengthAdjust="spacing" textLength="48.0117" x="1531.3688" y="617.5664">Statistics</text></g><!--class DataDownload--><g class="entity" data-qualified-name="DataDownload" data-source-line="67" id="ent0038"><rect fill="#EEEEEE" height="25.0938" rx="2.5" ry="2.5" style="stroke:#404040;stroke-width:0.5;" width="84.7148" x="1602.8688" y="600.1094"/><text fill="#000000" font-family="sans-serif" font-size="12" lengthAdjust="spacing" textLength="78.7148" x="1605.8688" y="617.5664">DataDownload</text></g><!--class WebAPI--><g class="entity" data-qualified-name="WebAPI" data-source-line="69" id="ent0040"><rect fill="#EEEEEE" height="25.0938" rx="2.5" ry="2.5" style="stroke:#404040;stroke-width:0.5;" width="50.0156" x="1708.3688" y="600.1094"/><text fill="#000000" font-family="sans-serif" font-size="12" lengthAdjust="spacing" textLength="44.0156" x="1711.3688" y="617.5664">WebAPI</text></g><!--class Identifier--><g class="entity" data-qualified-name="Identifier" data-source-line="72" id="ent0043"><rect fill="#EEEEEE" height="25.0938" rx="2.5" ry="2.5" style="stroke:#404040;stroke-width:0.5;" width="52.0254" x="1778.3688" y="600.1094"/><text fill="#000000" font-family="sans-serif" font-size="12" lengthAdjust="spacing" textLength="46.0254" x="1781.3688" y="617.5664">Identifier</text></g><!--class XsdLanguage--><g class="entity" data-qualified-name="XsdLanguage" data-source-line="76" id="ent0047"><rect fill="#FAE5D3" height="40.1875" rx="2.5" ry="2.5" style="stroke:#404040;stroke-width:0.5;" width="80.0684" x="1850.3688" y="592.6094"/><text fill="#000000" font-family="sans-serif" font-size="12" font-style="italic" lengthAdjust="spacing" textLength="63.3809" x="1858.7125" y="610.0664">&#171;dataType&#187;</text><text fill="#000000" font-family="sans-serif" font-size="12" lengthAdjust="spacing" textLength="74.0684" x="1853.3688" y="625.1602">XsdLanguage</text></g><!--class XsdDate--><g class="entity" data-qualified-name="XsdDate" data-source-line="78" id="ent0049"><rect fill="#FAE5D3" height="40.1875" rx="2.5" ry="2.5" style="stroke:#404040;stroke-width:0.5;" width="65.3809" x="1950.8688" y="592.6094"/><text fill="#000000" font-family="sans-serif" font-size="12" font-style="italic" lengthAdjust="spacing" textLength="63.3809" x="1951.8688" y="610.0664">&#171;dataType&#187;</text><text fill="#000000" font-family="sans-serif" font-size="12" lengthAdjust="spacing" textLength="46.0254" x="1960.5465" y="625.1602">XsdDate</text></g><!--class XsdAnyUri--><g class="entity" data-qualified-name="XsdAnyUri" data-source-line="80" id="ent0051"><rect fill="#FAE5D3" height="40.1875" rx="2.5" ry="2.5" style="stroke:#404040;stroke-width:0.5;" width="65.3809" x="2035.8688" y="592.6094"/><text fill="#000000" font-family="sans-serif" font-size="12" font-style="italic" lengthAdjust="spacing" textLength="63.3809" x="2036.8688" y="610.0664">&#171;dataType&#187;</text><text fill="#000000" font-family="sans-serif" font-size="12" lengthAdjust="spacing" textLength="56.6836" x="2040.2174" y="625.1602">XsdAnyUri</text></g><!--link Dataset to Agent--><g class="link" data-entity-1="ent0002" data-entity-2="ent0003" data-link-type="dependency" data-source-line="33" id="lnk4"><path codeLine="33" d="M702.8288,126.6094 C483.7388,126.6094 63.6188,126.6094 63.6188,126.6094 C63.6188,126.6094 63.6188,518.0394 63.6188,594.1094" fill="none" id="Dataset-to-Agent" style="stroke:#404040;stroke-width:1.2;"/><polygon fill="#404040" points="63.6188,600.1094,67.6188,591.1094,63.6188,595.1094,59.6188,591.1094,63.6188,600.1094" style="stroke:#404040;stroke-width:1.2;"/><text fill="#000000" font-family="sans-serif" font-size="13" lengthAdjust="spacing" textLength="46.9663" x="99.4788" y="123.1045">provider</text><text fill="#000000" font-family="sans-serif" font-size="13" lengthAdjust="spacing" textLength="19.5127" x="71.3848" y="589.2014">0..*</text></g><!--link Dataset to Agent--><g class="link" data-entity-1="ent0002" data-entity-2="ent0003" data-link-type="dependency" data-source-line="36" id="lnk7"><path codeLine="36" d="M702.5888,99.6094 C481.2388,99.6094 54.3688,99.6094 54.3688,99.6094 C54.3688,99.6094 54.3688,514.9294 54.3688,593.9294" fill="none" id="Dataset-to-Agent-1" style="stroke:#404040;stroke-width:1.2;"/><polygon fill="#404040" points="54.3688,599.9294,58.3688,590.9294,54.3688,594.9294,50.3688,590.9294,54.3688,599.9294" style="stroke:#404040;stroke-width:1.2;"/><text fill="#000000" font-family="sans-serif" font-size="13" lengthAdjust="spacing" textLength="40.46" x="87.3188" y="96.1045">creator</text><text fill="#000000" font-family="sans-serif" font-size="13" lengthAdjust="spacing" textLength="19.5127" x="31.6584" y="589.3325">0..*</text></g><!--link Dataset to Agent--><g class="link" data-entity-1="ent0002" data-entity-2="ent0003" data-link-type="dependency" data-source-line="39" id="lnk10"><path codeLine="39" d="M702.8088,72.6094 C479.3388,72.6094 45.1188,72.6094 45.1188,72.6094 C45.1188,72.6094 45.1188,512.9794 45.1188,594.0594" fill="none" id="Dataset-to-Agent-2" style="stroke:#404040;stroke-width:1.2;"/><polygon fill="#404040" points="45.1188,600.0594,49.1188,591.0594,45.1188,595.0594,41.1188,591.0594,45.1188,600.0594" style="stroke:#404040;stroke-width:1.2;"/><text fill="#000000" font-family="sans-serif" font-size="13" lengthAdjust="spacing" textLength="52.7554" x="57.2388" y="69.1045">publisher</text><text fill="#000000" font-family="sans-serif" font-size="13" lengthAdjust="spacing" textLength="21.6836" x="6" y="609.465">0..1</text></g><!--link Dataset to AbstractDistribution--><g class="link" data-entity-1="ent0002" data-entity-2="ent0005" data-link-type="dependency" data-source-line="35" id="lnk6"><path codeLine="35" d="M702.5088,153.6094 C504.1288,153.6094 148.3688,153.6094 148.3688,153.6094 C148.3688,153.6094 148.3688,519.7194 148.3688,593.8494" fill="none" id="Dataset-to-AbstractDistribution" style="stroke:#404040;stroke-width:1.2;"/><polygon fill="#404040" points="148.3688,599.8494,152.3688,590.8494,148.3688,594.8494,144.3688,590.8494,148.3688,599.8494" style="stroke:#404040;stroke-width:1.2;"/><text fill="#000000" font-family="sans-serif" font-size="13" lengthAdjust="spacing" textLength="62.8672" x="139.3188" y="150.1045">distribution</text><text fill="#000000" font-family="sans-serif" font-size="13" lengthAdjust="spacing" textLength="19.5127" x="125.7214" y="589.221">0..*</text></g><!--link Dataset to Contributor--><g class="link" data-entity-1="ent0002" data-entity-2="ent0008" data-link-type="dependency" data-source-line="38" id="lnk9"><path codeLine="38" d="M702.7488,180.6094 C532.8888,180.6094 256.3688,180.6094 256.3688,180.6094 C256.3688,180.6094 256.3688,521.7994 256.3688,593.6794" fill="none" id="Dataset-to-Contributor" style="stroke:#404040;stroke-width:1.2;"/><polygon fill="#404040" points="256.3688,599.6794,260.3688,590.6794,256.3688,594.6794,252.3688,590.6794,256.3688,599.6794" style="stroke:#404040;stroke-width:1.2;"/><text fill="#000000" font-family="sans-serif" font-size="13" lengthAdjust="spacing" textLength="61.4199" x="208.0188" y="177.1045">contributor</text><text fill="#000000" font-family="sans-serif" font-size="13" lengthAdjust="spacing" textLength="19.5127" x="233.7758" y="589.2441">0..*</text></g><!--link Dataset to MonetaryGrant--><g class="link" data-entity-1="ent0002" data-entity-2="ent0011" data-link-type="dependency" data-source-line="41" id="lnk12"><path codeLine="41" d="M702.7888,207.6094 C560.6288,207.6094 352.3688,207.6094 352.3688,207.6094 C352.3688,207.6094 352.3688,525.6894 352.3688,594.0494" fill="none" id="Dataset-to-MonetaryGrant" style="stroke:#404040;stroke-width:1.2;"/><polygon fill="#404040" points="352.3688,600.0494,356.3688,591.0494,352.3688,595.0494,348.3688,591.0494,352.3688,600.0494" style="stroke:#404040;stroke-width:1.2;"/><text fill="#000000" font-family="sans-serif" font-size="13" lengthAdjust="spacing" textLength="42.6499" x="309.3688" y="225.1145">funding</text><text fill="#000000" font-family="sans-serif" font-size="13" lengthAdjust="spacing" textLength="19.5127" x="329.5489" y="589.1167">0..*</text></g><!--link Dataset to ProvActivity--><g class="link" data-entity-1="ent0002" data-entity-2="ent0013" data-link-type="dependency" data-source-line="43" id="lnk14"><path codeLine="43" d="M702.7788,234.6094 C591.9888,234.6094 450.3688,234.6094 450.3688,234.6094 C450.3688,234.6094 450.3688,528.4394 450.3688,594.0294" fill="none" id="Dataset-to-ProvActivity" style="stroke:#404040;stroke-width:1.2;"/><polygon fill="#404040" points="450.3688,600.0294,454.3688,591.0294,450.3688,595.0294,446.3688,591.0294,450.3688,600.0294" style="stroke:#404040;stroke-width:1.2;"/><text fill="#000000" font-family="sans-serif" font-size="13" lengthAdjust="spacing" textLength="99.7217" x="350.3688" y="287.6145">wasGeneratedBy</text><text fill="#000000" font-family="sans-serif" font-size="13" lengthAdjust="spacing" textLength="19.5127" x="427.6223" y="589.0884">0..*</text></g><!--link Dataset to DerivedFrom--><g class="link" data-entity-1="ent0002" data-entity-2="ent0015" data-link-type="dependency" data-source-line="45" id="lnk16"><path codeLine="45" d="M702.6388,261.6094 C625.4188,261.6094 542.3688,261.6094 542.3688,261.6094 C542.3688,261.6094 542.3688,530.3794 542.3688,593.6994" fill="none" id="Dataset-to-DerivedFrom" style="stroke:#404040;stroke-width:1.2;"/><polygon fill="#404040" points="542.3688,599.6994,546.3688,590.6994,542.3688,594.6994,538.3688,590.6994,542.3688,599.6994" style="stroke:#404040;stroke-width:1.2;"/><text fill="#000000" font-family="sans-serif" font-size="13" lengthAdjust="spacing" textLength="98.2427" x="443.3688" y="347.0145">wasDerivedFrom</text><text fill="#000000" font-family="sans-serif" font-size="13" lengthAdjust="spacing" textLength="19.5127" x="519.7788" y="589.2717">0..*</text></g><!--link Dataset to CatalogRecord--><g class="link" data-entity-1="ent0002" data-entity-2="ent0017" data-link-type="dependency" data-source-line="47" id="lnk18"><path codeLine="47" d="M702.7288,288.6094 C662.7588,288.6094 629.0388,288.6094 629.0388,288.6094 C629.0388,288.6094 629.0388,534.0094 629.0388,593.9094" fill="none" id="Dataset-to-CatalogRecord" style="stroke:#404040;stroke-width:1.2;"/><polygon fill="#404040" points="629.0388,599.9094,633.0388,590.9094,629.0388,594.9094,625.0388,590.9094,629.0388,599.9094" style="stroke:#404040;stroke-width:1.2;"/><text fill="#000000" font-family="sans-serif" font-size="13" lengthAdjust="spacing" textLength="54.9136" x="574.0388" y="403.9045">subjectOf</text><text fill="#000000" font-family="sans-serif" font-size="13" lengthAdjust="spacing" textLength="7.23" x="615.0547" y="589.3046">1</text></g><!--link CatalogRecord to Dataset--><g class="link" data-entity-1="ent0017" data-entity-2="ent0002" data-link-type="dependency" data-source-line="71" id="lnk42"><path codeLine="71" d="M657.6988,599.8494 C657.6988,542.9994 657.6988,315.6094 657.6988,315.6094 C657.6988,315.6094 670.9588,315.6094 696.6788,315.6094" fill="none" id="CatalogRecord-to-Dataset" style="stroke:#404040;stroke-width:1.2;"/><polygon fill="#404040" points="702.6788,315.6094,693.6788,311.6094,697.6788,315.6094,693.6788,319.6094,702.6788,315.6094" style="stroke:#404040;stroke-width:1.2;"/><text fill="#000000" font-family="sans-serif" font-size="13" lengthAdjust="spacing" textLength="32.5317" x="624.6988" y="431.7345">about</text><text fill="#000000" font-family="sans-serif" font-size="13" lengthAdjust="spacing" textLength="21.6836" x="673.1665" y="320.0245">0..1</text></g><!--link Dataset to DefinedTerm--><g class="link" data-entity-1="ent0002" data-entity-2="ent0019" data-link-type="dependency" data-source-line="49" id="lnk20"><path codeLine="49" d="M763.1188,342.8394 C763.1188,442.2194 763.1188,555.5194 763.1188,593.9994" fill="none" id="Dataset-to-DefinedTerm" style="stroke:#404040;stroke-width:1.2;"/><polygon fill="#404040" points="763.1188,599.9994,767.1188,590.9994,763.1188,594.9994,759.1188,590.9994,763.1188,599.9994" style="stroke:#404040;stroke-width:1.2;"/><text fill="#000000" font-family="sans-serif" font-size="13" lengthAdjust="spacing" textLength="54.9072" x="708.1188" y="467.9145">keywords</text><text fill="#000000" font-family="sans-serif" font-size="13" lengthAdjust="spacing" textLength="19.5127" x="747.9664" y="589.046">0..*</text></g><!--link Dataset to DefinedTerm--><g class="link" data-entity-1="ent0002" data-entity-2="ent0019" data-link-type="dependency" data-source-line="52" id="lnk23"><path codeLine="52" d="M725.6188,342.8394 C725.6188,442.2194 725.6188,555.5194 725.6188,593.9994" fill="none" id="Dataset-to-DefinedTerm-1" style="stroke:#404040;stroke-width:1.2;"/><polygon fill="#404040" points="725.6188,599.9994,729.6188,590.9994,725.6188,594.9994,721.6188,590.9994,725.6188,599.9994" style="stroke:#404040;stroke-width:1.2;"/><text fill="#000000" font-family="sans-serif" font-size="13" lengthAdjust="spacing" textLength="140.188" x="584.6188" y="485.9145">measurementTechnique</text><text fill="#000000" font-family="sans-serif" font-size="13" lengthAdjust="spacing" textLength="19.5127" x="694.9977" y="589.046">0..*</text></g><!--link Dataset to DefinedTerm--><g class="link" data-entity-1="ent0002" data-entity-2="ent0019" data-link-type="dependency" data-source-line="74" id="lnk45"><path codeLine="74" d="M744.3688,342.8394 C744.3688,442.2194 744.3688,555.5194 744.3688,593.9994" fill="none" id="Dataset-to-DefinedTerm-2" style="stroke:#404040;stroke-width:1.2;"/><polygon fill="#404040" points="744.3688,599.9994,748.3688,590.9994,744.3688,594.9994,740.3688,590.9994,744.3688,599.9994" style="stroke:#404040;stroke-width:1.2;"/><text fill="#000000" font-family="sans-serif" font-size="13" lengthAdjust="spacing" textLength="84.5571" x="745.3688" y="485.9145">additionalType</text><text fill="#000000" font-family="sans-serif" font-size="13" lengthAdjust="spacing" textLength="19.5127" x="721.4821" y="589.046">0..*</text></g><!--link Dataset to Reference--><g class="link" data-entity-1="ent0002" data-entity-2="ent0021" data-link-type="dependency" data-source-line="51" id="lnk22"><path codeLine="51" d="M826.2688,342.8394 C826.2688,442.2194 826.2688,555.5194 826.2688,593.9994" fill="none" id="Dataset-to-Reference" style="stroke:#404040;stroke-width:1.2;"/><polygon fill="#404040" points="826.2688,599.9994,830.2688,590.9994,826.2688,594.9994,822.2688,590.9994,826.2688,599.9994" style="stroke:#404040;stroke-width:1.2;"/><text fill="#000000" font-family="sans-serif" font-size="13" lengthAdjust="spacing" textLength="40.4663" x="785.2688" y="467.9145">license</text><text fill="#000000" font-family="sans-serif" font-size="13" lengthAdjust="spacing" textLength="19.5127" x="800.8642" y="589.046">0..*</text></g><!--link Dataset to Reference--><g class="link" data-entity-1="ent0002" data-entity-2="ent0021" data-link-type="dependency" data-source-line="82" id="lnk53"><path codeLine="82" d="M838.4688,342.8394 C838.4688,442.2194 838.4688,555.5194 838.4688,593.9994" fill="none" id="Dataset-to-Reference-1" style="stroke:#404040;stroke-width:1.2;"/><polygon fill="#404040" points="838.4688,599.9994,842.4688,590.9994,838.4688,594.9994,834.4688,590.9994,838.4688,599.9994" style="stroke:#404040;stroke-width:1.2;"/><text fill="#000000" font-family="sans-serif" font-size="13" lengthAdjust="spacing" textLength="114.1626" x="839.4688" y="467.9145">conditionsOfAccess</text><text fill="#000000" font-family="sans-serif" font-size="13" lengthAdjust="spacing" textLength="19.5127" x="844.9342" y="589.046">0..*</text></g><!--link Dataset to Reference--><g class="link" data-entity-1="ent0002" data-entity-2="ent0021" data-link-type="dependency" data-source-line="83" id="lnk54"><path codeLine="83" d="M850.6688,342.8394 C850.6688,442.2194 850.6688,555.5194 850.6688,593.9994" fill="none" id="Dataset-to-Reference-2" style="stroke:#404040;stroke-width:1.2;"/><polygon fill="#404040" points="850.6688,599.9994,854.6688,590.9994,850.6688,594.9994,846.6688,590.9994,850.6688,599.9994" style="stroke:#404040;stroke-width:1.2;"/><text fill="#000000" font-family="sans-serif" font-size="13" lengthAdjust="spacing" textLength="114.8989" x="851.6688" y="485.9145">publishingPrinciples</text><text fill="#000000" font-family="sans-serif" font-size="13" lengthAdjust="spacing" textLength="19.5127" x="862.1667" y="589.046">0..*</text></g><!--link Dataset to Reference--><g class="link" data-entity-1="ent0002" data-entity-2="ent0021" data-link-type="dependency" data-source-line="84" id="lnk55"><path codeLine="84" d="M814.0688,342.8394 C814.0688,442.2194 814.0688,555.5194 814.0688,593.9994" fill="none" id="Dataset-to-Reference-3" style="stroke:#404040;stroke-width:1.2;"/><polygon fill="#404040" points="814.0688,599.9994,818.0688,590.9994,814.0688,594.9994,810.0688,590.9994,814.0688,599.9994" style="stroke:#404040;stroke-width:1.2;"/><text fill="#000000" font-family="sans-serif" font-size="13" lengthAdjust="spacing" textLength="63.5972" x="750.0688" y="467.9145">relatedLink</text><text fill="#000000" font-family="sans-serif" font-size="13" lengthAdjust="spacing" textLength="19.5127" x="783.6317" y="589.046">0..*</text></g><!--reverse link Dataset to VariableMeasured--><g class="link" data-entity-1="ent0002" data-entity-2="ent0024" data-link-type="composition" data-source-line="54" id="lnk25"><path codeLine="54" d="M909.1988,354.8394 C909.1988,454.2194 909.1988,561.5194 909.1988,599.9994" fill="none" id="Dataset-backto-VariableMeasured" style="stroke:#404040;stroke-width:1.2;"/><polygon fill="#404040" points="909.1988,342.8394,905.1988,348.8394,909.1988,354.8394,913.1988,348.8394,909.1988,342.8394" style="stroke:#404040;stroke-width:1.2;"/><text fill="#000000" font-family="sans-serif" font-size="13" lengthAdjust="spacing" textLength="103.3335" x="910.1988" y="467.9145">variableMeasured</text><text fill="#000000" font-family="sans-serif" font-size="13" lengthAdjust="spacing" textLength="19.5127" x="875.923" y="589.046">0..*</text></g><!--reverse link Dataset to SpatialExtent--><g class="link" data-entity-1="ent0002" data-entity-2="ent0026" data-link-type="composition" data-source-line="56" id="lnk27"><path codeLine="56" d="M974.0988,320.6094 C1018.1088,320.6094 1044.3688,320.6094 1044.3688,320.6094 C1044.3688,320.6094 1044.3688,544.1694 1044.3688,600.0594" fill="none" id="Dataset-backto-SpatialExtent" style="stroke:#404040;stroke-width:1.2;"/><polygon fill="#404040" points="962.0988,320.6094,968.0988,324.6094,974.0988,320.6094,968.0988,316.6094,962.0988,320.6094" style="stroke:#404040;stroke-width:1.2;"/><text fill="#000000" font-family="sans-serif" font-size="13" lengthAdjust="spacing" textLength="93.9453" x="950.3688" y="415.6945">spatialCoverage</text><text fill="#000000" font-family="sans-serif" font-size="13" lengthAdjust="spacing" textLength="19.5127" x="1021.6154" y="589.1308">0..*</text></g><!--reverse link Dataset to TemporalExtent--><g class="link" data-entity-1="ent0002" data-entity-2="ent0028" data-link-type="composition" data-source-line="58" id="lnk29"><path codeLine="58" d="M974.2688,297.6094 C1061.4188,297.6094 1148.3688,297.6094 1148.3688,297.6094 C1148.3688,297.6094 1148.3688,540.9394 1148.3688,599.8694" fill="none" id="Dataset-backto-TemporalExtent" style="stroke:#404040;stroke-width:1.2;"/><polygon fill="#404040" points="962.2688,297.6094,968.2688,301.6094,974.2688,297.6094,968.2688,293.6094,962.2688,297.6094" style="stroke:#404040;stroke-width:1.2;"/><text fill="#000000" font-family="sans-serif" font-size="13" lengthAdjust="spacing" textLength="106.9453" x="1041.3688" y="352.1845">temporalCoverage</text><text fill="#000000" font-family="sans-serif" font-size="13" lengthAdjust="spacing" textLength="19.5127" x="1125.7876" y="589.2489">0..*</text></g><!--reverse link Dataset to QualityMeasure--><g class="link" data-entity-1="ent0002" data-entity-2="ent0030" data-link-type="composition" data-source-line="60" id="lnk31"><path codeLine="60" d="M973.9288,274.6094 C1099.5788,274.6094 1259.3688,274.6094 1259.3688,274.6094 C1259.3688,274.6094 1259.3688,538.0294 1259.3688,599.7694" fill="none" id="Dataset-backto-QualityMeasure" style="stroke:#404040;stroke-width:1.2;"/><polygon fill="#404040" points="961.9288,274.6094,967.9288,278.6094,973.9288,274.6094,967.9288,270.6094,961.9288,274.6094" style="stroke:#404040;stroke-width:1.2;"/><text fill="#000000" font-family="sans-serif" font-size="13" lengthAdjust="spacing" textLength="140.8989" x="1118.3688" y="284.9645">hasQualityMeasurement</text><text fill="#000000" font-family="sans-serif" font-size="13" lengthAdjust="spacing" textLength="19.5127" x="1236.838" y="589.3684">0..*</text></g><!--reverse link Dataset to InstanceVariable--><g class="link" data-entity-1="ent0002" data-entity-2="ent0032" data-link-type="composition" data-source-line="62" id="lnk33"><path codeLine="62" d="M974.0588,251.6094 C1133.8288,251.6094 1372.3688,251.6094 1372.3688,251.6094 C1372.3688,251.6094 1372.3688,535.4494 1372.3688,599.7594" fill="none" id="Dataset-backto-InstanceVariable" style="stroke:#404040;stroke-width:1.2;"/><polygon fill="#404040" points="962.0588,251.6094,968.0588,255.6094,974.0588,251.6094,968.0588,247.6094,962.0588,251.6094" style="stroke:#404040;stroke-width:1.2;"/><text fill="#000000" font-family="sans-serif" font-size="13" lengthAdjust="spacing" textLength="103.3335" x="1237.2888" y="248.1045">variableMeasured</text><text fill="#000000" font-family="sans-serif" font-size="13" lengthAdjust="spacing" textLength="19.5127" x="1349.7702" y="589.3546">1..*</text></g><!--reverse link Dataset to PrimaryKey--><g class="link" data-entity-1="ent0002" data-entity-2="ent0034" data-link-type="composition" data-source-line="64" id="lnk35"><path codeLine="64" d="M973.8988,228.6094 C1161.4388,228.6094 1474.3688,228.6094 1474.3688,228.6094 C1474.3688,228.6094 1474.3688,533.1994 1474.3688,599.8294" fill="none" id="Dataset-backto-PrimaryKey" style="stroke:#404040;stroke-width:1.2;"/><polygon fill="#404040" points="961.8988,228.6094,967.8988,232.6094,973.8988,228.6094,967.8988,224.6094,961.8988,228.6094" style="stroke:#404040;stroke-width:1.2;"/><text fill="#000000" font-family="sans-serif" font-size="13" lengthAdjust="spacing" textLength="88.1372" x="1314.7488" y="225.1045">hasPrimaryKey</text><text fill="#000000" font-family="sans-serif" font-size="13" lengthAdjust="spacing" textLength="21.6836" x="1449.3671" y="589.1931">0..1</text></g><!--reverse link Dataset to Statistics--><g class="link" data-entity-1="ent0002" data-entity-2="ent0036" data-link-type="composition" data-source-line="66" id="lnk37"><path codeLine="66" d="M974.0488,205.6094 C1182.0988,205.6094 1555.3688,205.6094 1555.3688,205.6094 C1555.3688,205.6094 1555.3688,531.2894 1555.3688,599.9794" fill="none" id="Dataset-backto-Statistics" style="stroke:#404040;stroke-width:1.2;"/><polygon fill="#404040" points="962.0488,205.6094,968.0488,209.6094,974.0488,205.6094,968.0488,201.6094,962.0488,205.6094" style="stroke:#404040;stroke-width:1.2;"/><text fill="#000000" font-family="sans-serif" font-size="13" lengthAdjust="spacing" textLength="49.8418" x="1405.8888" y="202.1045">statistics</text><text fill="#000000" font-family="sans-serif" font-size="13" lengthAdjust="spacing" textLength="19.5127" x="1532.5534" y="589.0178">0..*</text></g><!--reverse link Dataset to DataDownload--><g class="link" data-entity-1="ent0002" data-entity-2="ent0038" data-link-type="composition" data-source-line="68" id="lnk39"><path codeLine="68" d="M974.0888,183.6094 C1203.6188,183.6094 1645.3688,183.6094 1645.3688,183.6094 C1645.3688,183.6094 1645.3688,528.3894 1645.3688,599.7694" fill="none" id="Dataset-backto-DataDownload" style="stroke:#404040;stroke-width:1.2;"/><polygon fill="#404040" points="962.0888,183.6094,968.0888,187.6094,974.0888,183.6094,968.0888,179.6094,962.0888,183.6094" style="stroke:#404040;stroke-width:1.2;"/><text fill="#000000" font-family="sans-serif" font-size="13" lengthAdjust="spacing" textLength="62.8672" x="1448.8088" y="180.1045">distribution</text><text fill="#000000" font-family="sans-serif" font-size="13" lengthAdjust="spacing" textLength="19.5127" x="1622.899" y="589.3684">0..*</text></g><!--reverse link Dataset to WebAPI--><g class="link" data-entity-1="ent0002" data-entity-2="ent0040" data-link-type="composition" data-source-line="70" id="lnk41"><path codeLine="70" d="M973.9388,160.6094 C1223.2688,160.6094 1733.3688,160.6094 1733.3688,160.6094 C1733.3688,160.6094 1733.3688,527.0494 1733.3688,600.0494" fill="none" id="Dataset-backto-WebAPI" style="stroke:#404040;stroke-width:1.2;"/><polygon fill="#404040" points="961.9388,160.6094,967.9388,164.6094,973.9388,160.6094,967.9388,156.6094,961.9388,160.6094" style="stroke:#404040;stroke-width:1.2;"/><text fill="#000000" font-family="sans-serif" font-size="13" lengthAdjust="spacing" textLength="62.8672" x="1504.3688" y="157.1045">distribution</text><text fill="#000000" font-family="sans-serif" font-size="13" lengthAdjust="spacing" textLength="19.5127" x="1710.5526" y="589.1167">0..*</text></g><!--link Dataset to Identifier--><g class="link" data-entity-1="ent0002" data-entity-2="ent0043" data-link-type="dependency" data-source-line="73" id="lnk44"><path codeLine="73" d="M962.2888,137.6094 C1225.2388,137.6094 1795.6988,137.6094 1795.6988,137.6094 C1795.6988,137.6094 1795.6988,518.3694 1795.6988,593.8994" fill="none" id="Dataset-to-Identifier" style="stroke:#404040;stroke-width:1.2;"/><polygon fill="#404040" points="1795.6988,599.8994,1799.6988,590.8994,1795.6988,594.8994,1791.6988,590.8994,1795.6988,599.8994" style="stroke:#404040;stroke-width:1.2;"/><text fill="#000000" font-family="sans-serif" font-size="13" lengthAdjust="spacing" textLength="49.1372" x="1560.1388" y="134.1045">identifier</text><text fill="#000000" font-family="sans-serif" font-size="13" lengthAdjust="spacing" textLength="7.23" x="1783.9471" y="589.2907">1</text></g><!--link Dataset to Identifier--><g class="link" data-entity-1="ent0002" data-entity-2="ent0043" data-link-type="dependency" data-source-line="75" id="lnk46"><path codeLine="75" d="M962.0888,114.6094 C1228.6188,114.6094 1813.0388,114.6094 1813.0388,114.6094 C1813.0388,114.6094 1813.0388,516.7294 1813.0388,594.0494" fill="none" id="Dataset-to-Identifier-1" style="stroke:#404040;stroke-width:1.2;"/><polygon fill="#404040" points="1813.0388,600.0494,1817.0388,591.0494,1813.0388,595.0494,1809.0388,591.0494,1813.0388,600.0494" style="stroke:#404040;stroke-width:1.2;"/><text fill="#000000" font-family="sans-serif" font-size="13" lengthAdjust="spacing" textLength="46.96" x="1583.2788" y="111.1045">sameAs</text><text fill="#000000" font-family="sans-serif" font-size="13" lengthAdjust="spacing" textLength="19.5127" x="1820.6344" y="589.1167">0..*</text></g><!--link Dataset to XsdLanguage--><g class="link" data-entity-1="ent0002" data-entity-2="ent0047" data-link-type="dependency" data-source-line="77" id="lnk48"><path codeLine="77" d="M935.5388,342.8394 C935.5388,457.4994 935.5388,596.6094 935.5388,596.6094 C935.5388,596.6094 1663.0288,596.6094 1844.2588,596.6094" fill="none" id="Dataset-to-XsdLanguage" style="stroke:#404040;stroke-width:1.2;stroke-dasharray:7,7;"/><polygon fill="#404040" points="1850.2588,596.6094,1841.2588,592.6094,1845.2588,596.6094,1841.2588,600.6094,1850.2588,596.6094" style="stroke:#404040;stroke-width:1.2;"/><text fill="#000000" font-family="sans-serif" font-size="13" lengthAdjust="spacing" textLength="67.958" x="1267.0088" y="593.1045">inLanguage</text></g><!--link Dataset to XsdDate--><g class="link" data-entity-1="ent0002" data-entity-2="ent0049" data-link-type="dependency" data-source-line="79" id="lnk50"><path codeLine="79" d="M961.8888,91.6094 C1262.7388,91.6094 1983.3688,91.6094 1983.3688,91.6094 C1983.3688,91.6094 1983.3688,490.7594 1983.3688,586.5094" fill="none" id="Dataset-to-XsdDate" style="stroke:#404040;stroke-width:1.2;stroke-dasharray:7,7;"/><polygon fill="#404040" points="1983.3688,592.5094,1987.3688,583.5094,1983.3688,587.5094,1979.3688,583.5094,1983.3688,592.5094" style="stroke:#404040;stroke-width:1.2;"/><text fill="#000000" font-family="sans-serif" font-size="13" lengthAdjust="spacing" textLength="74.439" x="1648.0788" y="88.1045">dateModified</text></g><!--link Dataset to XsdAnyUri--><g class="link" data-entity-1="ent0002" data-entity-2="ent0051" data-link-type="dependency" data-source-line="81" id="lnk52"><path codeLine="81" d="M962.0188,68.6094 C1279.1588,68.6094 2068.3688,68.6094 2068.3688,68.6094 C2068.3688,68.6094 2068.3688,488.4594 2068.3688,586.5994" fill="none" id="Dataset-to-XsdAnyUri" style="stroke:#404040;stroke-width:1.2;stroke-dasharray:7,7;"/><polygon fill="#404040" points="2068.3688,592.5994,2072.3688,583.5994,2068.3688,587.5994,2064.3688,583.5994,2068.3688,592.5994" style="stroke:#404040;stroke-width:1.2;"/><text fill="#000000" font-family="sans-serif" font-size="13" lengthAdjust="spacing" textLength="14.4473" x="1762.1888" y="65.1045">url</text></g><?plantuml-src ZLPHRziu37xthn3IjnqQDDtjnHWAP4qw55knRijj0uPxK6GcqSMMF4bEbZlilnybMRRi9CxQ5vFyz94KAOQ6cnp8Z1ggmIGRdW5XNB4S_3SKfJcG0eebA9teBHSbLRGWUaCpkUTYJLOqrn1Pfah9_MB3sLQ0rcGolesCYegjXfBSlhg9j49cuBInCkS2pA448fNPoCZ0Segy_oN4kxgNkLJawiyR-u_ADr9beFhQ1odCP_ulaCbjyYj9FCUeJdj4g0vNGAuUvW_p-xbpy0TUWJ1ynK6Hb3osmlV9tzOiQ05eq4RPcwYLc0jJl3HSYiXsCnvxCyqoRcqqNzZiKZA35QQQBK0L3lR2mJHIJtNFQsFTOJNEy7FndefrHTUM-vlE6gc5PDJ0aymiQUP1c3mqyUFtSxNCkTvqpStvIkLUFnM7lnIFB3bd8BJr_0bMe40mYA9cKlZSzOVLb37R7gU1fNUFYJrZTeoNEPo3Rk6mnuhhinUf8CVei_TSR4zH_4he4k-GCbCtrcYwnWjtBU6-oDNS_IMXGQwlxyZ87XxLW9IKIkwmLTGnLotFkAtJihB9U-eJXa5Ff_0foI9nA42cW1gfGj_VusjmnwHoqKJoK10n33bRwGWyYUwcRgN6-PF4XqtLuIqE0t_F7SrG05rWIbOLDfHO1-PdBCEK6RxZvk28OyKGRmUNaZtLRq60idtpvj0C2r1y1zc3aeKV6Aqyn1t377MaQEg1ntAv_WGCMzbN9DQSfiSxxg9m65JBVu2P3wisvkP9r36tJsGmvXQMal340cdpXXnb-w8625jGIkePSTbl0LHN2WhiemMmZU0_AWWnVA6AqsKEJnxZBwslF8henVLrS7M4JSckfmg-FfVKS9hFVvem63gQ8IzT81R8o_SI1pZEvE1XWJ-pKdLST5L3Fdh8b9XQqVVoiQ8vDdYTdlFILGrvwI5Jig6wgxDr2guUXJOKonrksJdhAq-xcpXtHzZpvS6VY09dmZi8Rpw8PzEPZ6AKIwMLcweRB9Ksd6bVyaOSh7UBiZ_DGOZtZPdSYrpIh5awWcA8juFhZVsQ-oiify-FZjL_3l7LY1vJTvn4ipmmf8GkPTLMkLbDV7tRJUNSm7gCzwbskRey2xfRqobyXzflJo7EQ0joWSPRqUlNkEzGItftXxlVTFvgzhAX7u_lEc2CkTck8dAx7WLYjohz3ga3OW6YNIoYz9jL8AtthD-XhQ4fmINjqYG-tiSkdJYrc5qw4orWoVy0?></g></svg>