<svg xmlns="http://www.w3.org/2000/svg" xmlns:xlink="http://www.w3.org/1999/xlink" contentStyleType="text/css" data-diagram-type="CLASS" height="228px" preserveAspectRatio="none" style="width:797px;height:228px;background:#FFFFFF;" version="1.1" viewBox="0 0 797 228" width="797px" zoomAndPan="magnify"><?plantuml 1.2026.3?><defs/><g><g class="title" data-source-line="1"><text fill="#000000" font-family="sans-serif" font-size="14" font-weight="700" lengthAdjust="spacing" textLength="50.5791" x="370.1509" y="24.5332">Dataset</text></g><!--class Dataset--><g class="entity" data-qualified-name="Dataset" data-source-line="12" id="ent0002"><rect fill="#FEFECE" height="50.7031" rx="2.5" ry="2.5" style="stroke:#404040;stroke-width:0.5;" width="176.1719" x="363" y="45.6094"/><text fill="#000000" font-family="sans-serif" font-size="12" lengthAdjust="spacing" textLength="41.3555" x="430.4082" y="63.0664">Dataset</text><line style="stroke:#404040;stroke-width:0.5;" x1="364" x2="538.1719" y1="70.7031" y2="70.7031"/><g data-visibility-modifier="PUBLIC_FIELD"><ellipse cx="374" cy="85.0078" fill="none" rx="3" ry="3" style="stroke:#038048;stroke-width:1;"/></g><text fill="#000000" font-family="sans-serif" font-size="14" lengthAdjust="spacing" textLength="150.1719" x="383" y="89.2363">identifier : XsdAnyUri [1]</text></g><!--class CatalogRecord--><g class="entity" data-qualified-name="CatalogRecord" data-source-line="15" id="ent0003"><rect fill="#EEEEEE" height="25.0938" rx="2.5" ry="2.5" style="stroke:#404040;stroke-width:0.5;" width="86.0449" x="7" y="182.1094"/><text fill="#000000" font-family="sans-serif" font-size="12" lengthAdjust="spacing" textLength="80.0449" x="10" y="199.5664">CatalogRecord</text></g><!--class InstanceVariable--><g class="entity" data-qualified-name="InstanceVariable" data-source-line="17" id="ent0005"><rect fill="#EEEEEE" height="25.0938" rx="2.5" ry="2.5" style="stroke:#404040;stroke-width:0.5;" width="95.3906" x="128.5" y="182.1094"/><text fill="#000000" font-family="sans-serif" font-size="12" lengthAdjust="spacing" textLength="89.3906" x="131.5" y="199.5664">InstanceVariable</text></g><!--class PrimaryKey--><g class="entity" data-qualified-name="PrimaryKey" data-source-line="19" id="ent0007"><rect fill="#EEEEEE" height="25.0938" rx="2.5" ry="2.5" style="stroke:#404040;stroke-width:0.5;" width="68.0098" x="287" y="182.1094"/><text fill="#000000" font-family="sans-serif" font-size="12" lengthAdjust="spacing" textLength="62.0098" x="290" y="199.5664">PrimaryKey</text></g><!--class Statistics--><g class="entity" data-qualified-name="Statistics" data-source-line="21" id="ent0009"><rect fill="#EEEEEE" height="25.0938" rx="2.5" ry="2.5" style="stroke:#404040;stroke-width:0.5;" width="54.0117" x="410" y="182.1094"/><text fill="#000000" font-family="sans-serif" font-size="12" lengthAdjust="spacing" textLength="48.0117" x="413" y="199.5664">Statistics</text></g><!--class DataDownload--><g class="entity" data-qualified-name="DataDownload" data-source-line="23" id="ent0011"><rect fill="#EEEEEE" height="25.0938" rx="2.5" ry="2.5" style="stroke:#404040;stroke-width:0.5;" width="84.7148" x="499.5" y="182.1094"/><text fill="#000000" font-family="sans-serif" font-size="12" lengthAdjust="spacing" textLength="78.7148" x="502.5" y="199.5664">DataDownload</text></g><!--class WebAPI--><g class="entity" data-qualified-name="WebAPI" data-source-line="25" id="ent0013"><rect fill="#EEEEEE" height="25.0938" rx="2.5" ry="2.5" style="stroke:#404040;stroke-width:0.5;" width="50.0156" x="621" y="182.1094"/><text fill="#000000" font-family="sans-serif" font-size="12" lengthAdjust="spacing" textLength="44.0156" x="624" y="199.5664">WebAPI</text></g><!--class XsdAnyUri--><g class="entity" data-qualified-name="XsdAnyUri" data-source-line="27" id="ent0015"><rect fill="#FAE5D3" height="40.1875" rx="2.5" ry="2.5" style="stroke:#404040;stroke-width:0.5;" width="65.3809" x="717.5" y="174.6094"/><text fill="#000000" font-family="sans-serif" font-size="12" font-style="italic" lengthAdjust="spacing" textLength="63.3809" x="718.5" y="192.0664">&#171;dataType&#187;</text><text fill="#000000" font-family="sans-serif" font-size="12" lengthAdjust="spacing" textLength="56.6836" x="721.8486" y="207.1602">XsdAnyUri</text></g><!--reverse link Dataset to CatalogRecord--><g class="link" data-entity-1="ent0002" data-entity-2="ent0003" data-link-type="composition" data-source-line="16" id="lnk4"><path codeLine="16" d="M350.81,77.7432 C286.79,83.6032 211.24,95.9294 140,126.6094 C108.51,140.1694 77.78,166.7494 61.65,182.0394" fill="none" id="Dataset-backto-CatalogRecord" style="stroke:#404040;stroke-width:1.2;"/><polygon fill="#404040" points="362.76,76.6494,356.4204,73.2129,350.81,77.7432,357.1496,81.1796,362.76,76.6494" style="stroke:#404040;stroke-width:1.2;"/><text fill="#000000" font-family="sans-serif" font-size="13" lengthAdjust="spacing" textLength="54.9136" x="141" y="141.1045">subjectOf</text><text fill="#000000" font-family="sans-serif" font-size="13" lengthAdjust="spacing" textLength="7.23" x="58.05" y="171.1025">1</text></g><!--reverse link Dataset to InstanceVariable--><g class="link" data-entity-1="ent0002" data-entity-2="ent0005" data-link-type="composition" data-source-line="18" id="lnk6"><path codeLine="18" d="M350.979,79.3655 C305.319,85.8455 262.49,97.8594 221,126.6094 C200.85,140.5794 187.22,166.7594 180.61,181.9294" fill="none" id="Dataset-backto-InstanceVariable" style="stroke:#404040;stroke-width:1.2;"/><polygon fill="#404040" points="362.86,77.6794,356.3575,74.5621,350.979,79.3655,357.4816,82.4828,362.86,77.6794" style="stroke:#404040;stroke-width:1.2;"/><text fill="#000000" font-family="sans-serif" font-size="13" lengthAdjust="spacing" textLength="103.3335" x="222" y="141.1045">variableMeasured</text><text fill="#000000" font-family="sans-serif" font-size="13" lengthAdjust="spacing" textLength="19.5127" x="159.7086" y="171.3325">1..*</text></g><!--reverse link Dataset to PrimaryKey--><g class="link" data-entity-1="ent0002" data-entity-2="ent0007" data-link-type="composition" data-source-line="20" id="lnk8"><path codeLine="20" d="M373.9404,102.3012 C359.4304,110.1012 355.78,114.3194 345,126.6094 C330.99,142.5894 324.97,167.3394 322.53,181.8594" fill="none" id="Dataset-backto-PrimaryKey" style="stroke:#404040;stroke-width:1.2;"/><polygon fill="#404040" points="384.51,96.6194,377.3312,95.9371,373.9404,102.3012,381.1191,102.9835,384.51,96.6194" style="stroke:#404040;stroke-width:1.2;"/><text fill="#000000" font-family="sans-serif" font-size="13" lengthAdjust="spacing" textLength="88.1372" x="346" y="141.1045">hasPrimaryKey</text><text fill="#000000" font-family="sans-serif" font-size="13" lengthAdjust="spacing" textLength="21.6836" x="298.1307" y="171.2349">0..1</text></g><!--reverse link Dataset to Statistics--><g class="link" data-entity-1="ent0002" data-entity-2="ent0009" data-link-type="composition" data-source-line="22" id="lnk10"><path codeLine="22" d="M446.7954,108.6204 C443.8054,134.5504 440.6,162.3894 438.35,181.9394" fill="none" id="Dataset-backto-Statistics" style="stroke:#404040;stroke-width:1.2;"/><polygon fill="#404040" points="448.17,96.6994,443.509,102.2017,446.7954,108.6204,451.4564,103.1181,448.17,96.6994" style="stroke:#404040;stroke-width:1.2;"/><text fill="#000000" font-family="sans-serif" font-size="13" lengthAdjust="spacing" textLength="49.8418" x="446" y="141.1045">statistics</text><text fill="#000000" font-family="sans-serif" font-size="13" lengthAdjust="spacing" textLength="19.5127" x="416.2396" y="171.3464">0..*</text></g><!--reverse link Dataset to DataDownload--><g class="link" data-entity-1="ent0002" data-entity-2="ent0011" data-link-type="composition" data-source-line="24" id="lnk12"><path codeLine="24" d="M485.2895,105.3691 C494.0595,114.3591 495.22,116.2594 503,126.6094 C516.59,144.6794 529.14,167.8894 536.16,181.7094" fill="none" id="Dataset-backto-DataDownload" style="stroke:#404040;stroke-width:1.2;"/><polygon fill="#404040" points="476.91,96.7794,478.2365,103.8674,485.2895,105.3691,483.963,98.2811,476.91,96.7794" style="stroke:#404040;stroke-width:1.2;"/><text fill="#000000" font-family="sans-serif" font-size="13" lengthAdjust="spacing" textLength="62.8672" x="517" y="141.1045">distribution</text><text fill="#000000" font-family="sans-serif" font-size="13" lengthAdjust="spacing" textLength="19.5127" x="511.4637" y="171.2855">0..*</text></g><!--reverse link Dataset to WebAPI--><g class="link" data-entity-1="ent0002" data-entity-2="ent0013" data-link-type="composition" data-source-line="26" id="lnk14"><path codeLine="26" d="M542.5979,101.2251 C562.0479,109.1251 571,114.5194 588,126.6094 C609.69,142.0294 628.55,167.2094 638.5,181.9094" fill="none" id="Dataset-backto-WebAPI" style="stroke:#404040;stroke-width:1.2;"/><polygon fill="#404040" points="531.48,96.7094,535.5337,102.6732,542.5979,101.2251,538.5442,95.2613,531.48,96.7094" style="stroke:#404040;stroke-width:1.2;"/><text fill="#000000" font-family="sans-serif" font-size="13" lengthAdjust="spacing" textLength="62.8672" x="610" y="141.1045">distribution</text><text fill="#000000" font-family="sans-serif" font-size="13" lengthAdjust="spacing" textLength="19.5127" x="612.9041" y="171.3046">0..*</text></g><!--link Dataset to XsdAnyUri--><g class="link" data-entity-1="ent0002" data-entity-2="ent0015" data-link-type="dependency" data-source-line="28" id="lnk16"><path codeLine="28" d="M539.1,81.6694 C583.7,89.2494 637.46,102.7294 681,126.6094 C702.81,138.5694 718.7618,154.706 731.5018,169.946" fill="none" id="Dataset-to-XsdAnyUri" style="stroke:#404040;stroke-width:1.2;stroke-dasharray:7,7;"/><polygon fill="#404040" points="735.35,174.5494,732.6466,165.0788,732.1431,170.7132,726.5087,170.2098,735.35,174.5494" style="stroke:#404040;stroke-width:1.2;"/><text fill="#000000" font-family="sans-serif" font-size="13" lengthAdjust="spacing" textLength="49.1372" x="705" y="141.1045">identifier</text></g><?plantuml-src VP9TJy8m58RlzojEnXt6XQ7UB8HamaY8CHB1ZyHuqMq7LjbQqXR9DFvtQ_S90klDEM_VFkTqFOgg565C596eh8J6214LKOf5ZDb6vP1X5gAGbbnJjY62P20J4lCTPIjOabHYQySNWkyM2OtM3AK4r-ctDgEKQEtRWi8suYaNqBdk_Iqjtd8HepXK9vofEVr2SFlMZsKL3BjisGOYg_QXCmacmIWm1Ivq-qpH9KK17hpAs6Vvaw3mvhvhIWaPwOCfNprYf2iRr9u2dS1yLbMWUta9jciVk3oGs_038_MmhC1J9XLX4JuJGKcOec4VYYVmZjEr_tiz-2p3UoHoAp2kQiq4pOZ8xp0tLPhqEB_dEFe6BPS72P5DNc7dYYWg5OsamJRfIQnkk-NIVwLEseysvZkMSXBNBrS9vxXxFWzYZHKqt2hAMSL-mT2VJGsr2C_nIiTnKZqi1jQCpc0GQz8Yt-1mg6VD3sx6LpNSSOOjgmVD-5c_?></g></svg>