<svg xmlns="http://www.w3.org/2000/svg" xmlns:xlink="http://www.w3.org/1999/xlink" contentStyleType="text/css" data-diagram-type="CLASS" height="460px" preserveAspectRatio="none" style="width:1667px;height:460px;background:#FFFFFF;" version="1.1" viewBox="0 0 1667 460" width="1667px" zoomAndPan="magnify"><?plantuml 1.2026.3?><defs/><g><g class="title" data-source-line="1"><text fill="#000000" font-family="sans-serif" font-size="14" font-weight="700" lengthAdjust="spacing" textLength="111.2754" x="774.8223" y="24.5332">InstanceVariable</text></g><!--class InstanceVariable--><g class="entity" data-qualified-name="InstanceVariable" data-source-line="12" id="ent0002"><rect fill="#FEFECE" height="191.5781" rx="2.5" ry="2.5" style="stroke:#404040;stroke-width:0.5;" width="279.6816" x="873.5" y="148.6094"/><text fill="#000000" font-family="sans-serif" font-size="12" lengthAdjust="spacing" textLength="89.3906" x="968.6455" y="166.0664">InstanceVariable</text><line style="stroke:#404040;stroke-width:0.5;" x1="874.5" x2="1152.1816" y1="173.7031" y2="173.7031"/><g data-visibility-modifier="PUBLIC_FIELD"><ellipse cx="884.5" cy="188.0078" fill="none" rx="3" ry="3" style="stroke:#038048;stroke-width:1;"/></g><text fill="#000000" font-family="sans-serif" font-size="14" lengthAdjust="spacing" textLength="121.3994" x="893.5" y="192.2363">definition : string [1]</text><g data-visibility-modifier="PUBLIC_FIELD"><ellipse cx="884.5" cy="205.6172" fill="none" rx="3" ry="3" style="stroke:#038048;stroke-width:1;"/></g><text fill="#000000" font-family="sans-serif" font-size="14" lengthAdjust="spacing" textLength="253.6816" x="893.5" y="209.8457">describedUnitOfMeasure : Concept [0..1]</text><g data-visibility-modifier="PUBLIC_FIELD"><ellipse cx="884.5" cy="223.2266" fill="none" rx="3" ry="3" style="stroke:#038048;stroke-width:1;"/></g><text fill="#000000" font-family="sans-serif" font-size="14" lengthAdjust="spacing" textLength="218.6748" x="893.5" y="227.4551">unitOfMeasureKind : Concept [0..1]</text><g data-visibility-modifier="PUBLIC_FIELD"><ellipse cx="884.5" cy="240.8359" fill="none" rx="3" ry="3" style="stroke:#038048;stroke-width:1;"/></g><text fill="#000000" font-family="sans-serif" font-size="14" lengthAdjust="spacing" textLength="145.5303" x="893.5" y="245.0645">function : Concept [0..*]</text><g data-visibility-modifier="PUBLIC_FIELD"><ellipse cx="884.5" cy="258.4453" fill="none" rx="3" ry="3" style="stroke:#038048;stroke-width:1;"/></g><text fill="#000000" font-family="sans-serif" font-size="14" lengthAdjust="spacing" textLength="180.5303" x="893.5" y="262.6738">platformType : Concept [0..1]</text><g data-visibility-modifier="PUBLIC_FIELD"><ellipse cx="884.5" cy="276.0547" fill="none" rx="3" ry="3" style="stroke:#038048;stroke-width:1;"/></g><text fill="#000000" font-family="sans-serif" font-size="14" lengthAdjust="spacing" textLength="122.9443" x="893.5" y="280.2832">source : string [0..1]</text><g data-visibility-modifier="PUBLIC_FIELD"><ellipse cx="884.5" cy="293.6641" fill="none" rx="3" ry="3" style="stroke:#038048;stroke-width:1;"/></g><text fill="#000000" font-family="sans-serif" font-size="14" lengthAdjust="spacing" textLength="236.5986" x="893.5" y="297.8926">hasIntendedDataType : Concept [0..1]</text><g data-visibility-modifier="PUBLIC_FIELD"><ellipse cx="884.5" cy="311.2734" fill="none" rx="3" ry="3" style="stroke:#038048;stroke-width:1;"/></g><text fill="#000000" font-family="sans-serif" font-size="14" lengthAdjust="spacing" textLength="215.5234" x="893.5" y="315.502">simpleUnitOfMeasure : string [0..1]</text><g data-visibility-modifier="PUBLIC_FIELD"><ellipse cx="884.5" cy="328.8828" fill="none" rx="3" ry="3" style="stroke:#038048;stroke-width:1;"/></g><text fill="#000000" font-family="sans-serif" font-size="14" lengthAdjust="spacing" textLength="126.0684" x="893.5" y="333.1113">uses : Concept [0..*]</text></g><!--class AbstractVariable--><g class="entity" data-qualified-name="AbstractVariable" data-source-line="23" id="ent0003"><rect fill="#D6EAF8" height="25.0938" rx="2.5" ry="2.5" style="stroke:#404040;stroke-width:0.5;" width="94.043" x="482.5" y="45.6094"/><text fill="#000000" font-family="sans-serif" font-size="12" font-style="italic" lengthAdjust="spacing" textLength="88.043" x="485.5" y="63.0664">AbstractVariable</text></g><!--class PrimaryKeyComponent--><g class="entity" data-qualified-name="PrimaryKeyComponent" data-source-line="25" id="ent0005"><rect fill="#EEEEEE" height="25.0938" rx="2.5" ry="2.5" style="stroke:#404040;stroke-width:0.5;" width="130.0488" x="611.5" y="45.6094"/><text fill="#000000" font-family="sans-serif" font-size="12" lengthAdjust="spacing" textLength="124.0488" x="614.5" y="63.0664">PrimaryKeyComponent</text></g><!--class RepresentedVariable--><g class="entity" data-qualified-name="RepresentedVariable" data-source-line="27" id="ent0007"><rect fill="#EEEEEE" height="25.0938" rx="2.5" ry="2.5" style="stroke:#404040;stroke-width:0.5;" width="118.7402" x="7" y="418.6094"/><text fill="#000000" font-family="sans-serif" font-size="12" lengthAdjust="spacing" textLength="112.7402" x="10" y="436.0664">RepresentedVariable</text></g><!--class StatisticsCollection--><g class="entity" data-qualified-name="StatisticsCollection" data-source-line="29" id="ent0009"><rect fill="#EEEEEE" height="25.0938" rx="2.5" ry="2.5" style="stroke:#404040;stroke-width:0.5;" width="106.7051" x="1484" y="418.6094"/><text fill="#000000" font-family="sans-serif" font-size="12" lengthAdjust="spacing" textLength="100.7051" x="1487" y="436.0664">StatisticsCollection</text></g><!--class SubstantiveValueDomain--><g class="entity" data-qualified-name="SubstantiveValueDomain" data-source-line="32" id="ent0012"><rect fill="#EEEEEE" height="25.0938" rx="2.5" ry="2.5" style="stroke:#404040;stroke-width:0.5;" width="140.748" x="161" y="418.6094"/><text fill="#000000" font-family="sans-serif" font-size="12" lengthAdjust="spacing" textLength="134.748" x="164" y="436.0664">SubstantiveValueDomain</text></g><!--class SentinelValueDomain--><g class="entity" data-qualified-name="SentinelValueDomain" data-source-line="34" id="ent0014"><rect fill="#EEEEEE" height="25.0938" rx="2.5" ry="2.5" style="stroke:#404040;stroke-width:0.5;" width="121.4063" x="382" y="418.6094"/><text fill="#000000" font-family="sans-serif" font-size="12" lengthAdjust="spacing" textLength="115.4063" x="385" y="436.0664">SentinelValueDomain</text></g><!--class VariableMeasured--><g class="entity" data-qualified-name="VariableMeasured" data-source-line="36" id="ent0016"><rect fill="#EEEEEE" height="25.0938" rx="2.5" ry="2.5" style="stroke:#404040;stroke-width:0.5;" width="103.3887" x="777" y="45.6094"/><text fill="#000000" font-family="sans-serif" font-size="12" lengthAdjust="spacing" textLength="97.3887" x="780" y="63.0664">VariableMeasured</text></g><!--class Statistics--><g class="entity" data-qualified-name="Statistics" data-source-line="38" id="ent0018"><rect fill="#EEEEEE" height="25.0938" rx="2.5" ry="2.5" style="stroke:#404040;stroke-width:0.5;" width="54.0117" x="934.5" y="45.6094"/><text fill="#000000" font-family="sans-serif" font-size="12" lengthAdjust="spacing" textLength="48.0117" x="937.5" y="63.0664">Statistics</text></g><!--class CategoryStatistics--><g class="entity" data-qualified-name="CategoryStatistics" data-source-line="41" id="ent0021"><rect fill="#EEEEEE" height="25.0938" rx="2.5" ry="2.5" style="stroke:#404040;stroke-width:0.5;" width="102.7031" x="1033" y="45.6094"/><text fill="#000000" font-family="sans-serif" font-size="12" lengthAdjust="spacing" textLength="96.7031" x="1036" y="63.0664">CategoryStatistics</text></g><!--class PhysicalMapping--><g class="entity" data-qualified-name="PhysicalMapping" data-source-line="45" id="ent0025"><rect fill="#EEEEEE" height="25.0938" rx="2.5" ry="2.5" style="stroke:#404040;stroke-width:0.5;" width="96.7148" x="1171" y="45.6094"/><text fill="#000000" font-family="sans-serif" font-size="12" lengthAdjust="spacing" textLength="90.7148" x="1174" y="63.0664">PhysicalMapping</text></g><!--class TextMapping--><g class="entity" data-qualified-name="TextMapping" data-source-line="47" id="ent0027"><rect fill="#EEEEEE" height="25.0938" rx="2.5" ry="2.5" style="stroke:#404040;stroke-width:0.5;" width="75.3691" x="1303" y="45.6094"/><text fill="#000000" font-family="sans-serif" font-size="12" lengthAdjust="spacing" textLength="69.3691" x="1306" y="63.0664">TextMapping</text></g><!--class LocatorMapping--><g class="entity" data-qualified-name="LocatorMapping" data-source-line="49" id="ent0029"><rect fill="#EEEEEE" height="25.0938" rx="2.5" ry="2.5" style="stroke:#404040;stroke-width:0.5;" width="92.0566" x="1413.5" y="45.6094"/><text fill="#000000" font-family="sans-serif" font-size="12" lengthAdjust="spacing" textLength="86.0566" x="1416.5" y="63.0664">LocatorMapping</text></g><!--class Concept--><g class="entity" data-qualified-name="Concept" data-source-line="51" id="ent0031"><rect fill="#EEEEEE" height="25.0938" rx="2.5" ry="2.5" style="stroke:#404040;stroke-width:0.5;" width="50.6953" x="988" y="418.6094"/><text fill="#000000" font-family="sans-serif" font-size="12" lengthAdjust="spacing" textLength="44.6953" x="991" y="436.0664">Concept</text></g><!--reverse link AbstractVariable to InstanceVariable--><g class="link" data-entity-1="ent0003" data-entity-2="ent0002" data-link-type="extension" data-source-line="24" id="lnk4"><path codeLine="24" d="M576.5992,77.0715 C638.1092,100.5215 764.31,148.6194 873.46,190.2294" fill="none" id="AbstractVariable-backto-InstanceVariable" style="stroke:#404040;stroke-width:1.2;"/><polygon fill="none" points="559.78,70.6594,574.4618,82.6779,578.7366,71.4651,559.78,70.6594" style="stroke:#404040;stroke-width:1.2;"/></g><!--link PrimaryKeyComponent to InstanceVariable--><g class="link" data-entity-1="ent0005" data-entity-2="ent0002" data-link-type="dependency" data-source-line="26" id="lnk6"><path codeLine="26" d="M696.56,70.6494 C717.64,82.7294 751.79,102.1994 781.5,118.6094 C811.13,134.9894 837.741,149.4877 868.101,165.8877" fill="none" id="PrimaryKeyComponent-to-InstanceVariable" style="stroke:#404040;stroke-width:1.2;"/><polygon fill="#404040" points="873.38,168.7394,867.3626,160.9426,868.9808,166.363,863.5604,167.9813,873.38,168.7394" style="stroke:#404040;stroke-width:1.2;"/><text fill="#000000" font-family="sans-serif" font-size="13" lengthAdjust="spacing" textLength="44.8081" x="782.5" y="115.1045">indexes</text><text fill="#000000" font-family="sans-serif" font-size="13" lengthAdjust="spacing" textLength="7.23" x="858.0928" y="161.4081">1</text></g><!--link InstanceVariable to RepresentedVariable--><g class="link" data-entity-1="ent0002" data-entity-2="ent0007" data-link-type="dependency" data-source-line="28" id="lnk8"><path codeLine="28" d="M873.31,258.0894 C712.55,274.5694 442.14,308.9894 216.5,370.6094 C170.69,383.1294 125.228,402.6355 96.058,416.0955" fill="none" id="InstanceVariable-to-RepresentedVariable" style="stroke:#404040;stroke-width:1.2;"/><polygon fill="#404040" points="90.61,418.6094,100.4579,418.4705,95.15,416.5145,97.106,411.2066,90.61,418.6094" style="stroke:#404040;stroke-width:1.2;"/><text fill="#000000" font-family="sans-serif" font-size="13" lengthAdjust="spacing" textLength="27.46" x="217.5" y="385.1045">uses</text><text fill="#000000" font-family="sans-serif" font-size="13" lengthAdjust="spacing" textLength="7.23" x="92.2126" y="407.7014">1</text></g><!--link InstanceVariable to StatisticsCollection--><g class="link" data-entity-1="ent0002" data-entity-2="ent0009" data-link-type="dependency" data-source-line="30" id="lnk10"><path codeLine="30" d="M1153.76,297.5394 C1229.32,325.1894 1324.27,359.4194 1409.5,388.6094 C1440.11,399.0994 1469.3419,408.5718 1494.9819,416.7218" fill="none" id="InstanceVariable-to-StatisticsCollection" style="stroke:#404040;stroke-width:1.2;"/><polygon fill="#404040" points="1500.7,418.5394,1493.3346,412.001,1495.9349,417.0247,1490.9112,419.6251,1500.7,418.5394" style="stroke:#404040;stroke-width:1.2;"/><text fill="#000000" font-family="sans-serif" font-size="13" lengthAdjust="spacing" textLength="83.0845" x="1410.5" y="385.1045">isDescribedBy</text><text fill="#000000" font-family="sans-serif" font-size="13" lengthAdjust="spacing" textLength="21.6836" x="1460.3906" y="407.6025">0..1</text></g><!--link StatisticsCollection to InstanceVariable--><g class="link" data-entity-1="ent0009" data-entity-2="ent0002" data-link-type="dependency" data-source-line="43" id="lnk23"><path codeLine="43" d="M1532.82,418.1394 C1526.89,404.5394 1515.37,382.6994 1498.5,370.6094 C1397.14,298.0294 1263.1348,268.2745 1159.6148,255.4945" fill="none" id="StatisticsCollection-to-InstanceVariable" style="stroke:#404040;stroke-width:1.2;"/><polygon fill="#404040" points="1153.66,254.7594,1162.1021,259.832,1158.6223,255.372,1163.0823,251.8922,1153.66,254.7594" style="stroke:#404040;stroke-width:1.2;"/><text fill="#000000" font-family="sans-serif" font-size="13" lengthAdjust="spacing" textLength="60.709" x="1516.5" y="385.1045">indexedBy</text><text fill="#000000" font-family="sans-serif" font-size="13" lengthAdjust="spacing" textLength="19.5127" x="1161.3983" y="252.3853">1..*</text></g><!--link StatisticsCollection to InstanceVariable--><g class="link" data-entity-1="ent0009" data-entity-2="ent0002" data-link-type="dependency" data-source-line="44" id="lnk24"><path codeLine="44" d="M1557.96,418.4894 C1576.46,406.4994 1598.9,387.2594 1585.5,370.6094 C1532.27,304.4994 1311.0509,272.04 1159.5009,257.05" fill="none" id="StatisticsCollection-to-InstanceVariable-1" style="stroke:#404040;stroke-width:1.2;"/><polygon fill="#404040" points="1153.53,256.4594,1162.0926,261.3258,1158.5057,256.9515,1162.88,253.3647,1153.53,256.4594" style="stroke:#404040;stroke-width:1.2;"/><text fill="#000000" font-family="sans-serif" font-size="13" lengthAdjust="spacing" textLength="61.4199" x="1590.5" y="385.1045">hasWeight</text><text fill="#000000" font-family="sans-serif" font-size="13" lengthAdjust="spacing" textLength="21.6836" x="1161.3175" y="270.9979">0..1</text></g><!--link InstanceVariable to InstanceVariable--><g class="link" data-entity-1="ent0002" data-entity-2="ent0002" data-link-type="dependency" data-source-line="31" id="lnk11"><path codeLine="31" d="M1153.55,221.8194 C1174.4,225.3694 1188.5,232.9694 1188.5,244.6094 C1188.5,256.2594 1180.3149,262.8523 1159.4649,266.4023" fill="none" id="InstanceVariable-to-InstanceVariable" style="stroke:#404040;stroke-width:1.2;"/><polygon fill="#404040" points="1153.55,267.4094,1163.0937,269.842,1158.4791,266.5701,1161.7509,261.9555,1153.55,267.4094" style="stroke:#404040;stroke-width:1.2;"/><text fill="#000000" font-family="sans-serif" font-size="13" lengthAdjust="spacing" textLength="47.6963" x="1194.5" y="250.1045">qualifies</text><text fill="#000000" font-family="sans-serif" font-size="13" lengthAdjust="spacing" textLength="21.6836" x="1161.3386" y="282.5126">0..1</text></g><!--link InstanceVariable to SubstantiveValueDomain--><g class="link" data-entity-1="ent0002" data-entity-2="ent0012" data-link-type="dependency" data-source-line="33" id="lnk13"><path codeLine="33" d="M873.38,255.8294 C686.4,271.6894 367.56,307.2194 270.5,370.6094 C252.92,382.0994 243.7771,399.0224 238.0871,412.8224" fill="none" id="InstanceVariable-to-SubstantiveValueDomain" style="stroke:#404040;stroke-width:1.2;"/><polygon fill="#404040" points="235.8,418.3694,242.9287,411.5736,237.7059,413.7469,235.5327,408.5241,235.8,418.3694" style="stroke:#404040;stroke-width:1.2;"/><text fill="#000000" font-family="sans-serif" font-size="13" lengthAdjust="spacing" textLength="169.0825" x="271.5" y="385.1045">takesSubstantiveValuesFrom</text><text fill="#000000" font-family="sans-serif" font-size="13" lengthAdjust="spacing" textLength="21.6836" x="212.5429" y="407.7489">0..1</text></g><!--link InstanceVariable to SentinelValueDomain--><g class="link" data-entity-1="ent0002" data-entity-2="ent0014" data-link-type="dependency" data-source-line="35" id="lnk15"><path codeLine="35" d="M873.46,261.1294 C729.91,279.7894 519.57,315.6194 460.5,370.6094 C447.23,382.9694 444.0232,398.7429 443.1132,412.2529" fill="none" id="InstanceVariable-to-SentinelValueDomain" style="stroke:#404040;stroke-width:1.2;"/><polygon fill="#404040" points="442.71,418.2394,447.3058,409.5285,443.046,413.2507,439.3239,408.9909,442.71,418.2394" style="stroke:#404040;stroke-width:1.2;"/><text fill="#000000" font-family="sans-serif" font-size="13" lengthAdjust="spacing" textLength="148.1289" x="461.5" y="385.1045">takesSentinelValuesFrom</text><text fill="#000000" font-family="sans-serif" font-size="13" lengthAdjust="spacing" textLength="19.5127" x="420.1885" y="407.827">0..*</text></g><!--link VariableMeasured to InstanceVariable--><g class="link" data-entity-1="ent0016" data-entity-2="ent0002" data-link-type="dependency" data-source-line="37" id="lnk17"><path codeLine="37" d="M829.39,71.0294 C830.83,83.7794 834.62,104.1194 844.5,118.6094 C852.72,130.6794 858.2394,137.7948 868.8894,148.3548" fill="none" id="VariableMeasured-to-InstanceVariable" style="stroke:#404040;stroke-width:1.2;"/><polygon fill="#404040" points="873.15,152.5794,869.5755,143.4021,869.5995,149.0589,863.9427,149.0829,873.15,152.5794" style="stroke:#404040;stroke-width:1.2;"/><text fill="#000000" font-family="sans-serif" font-size="13" lengthAdjust="spacing" textLength="55.6372" x="845.5" y="115.1045">describes</text><text fill="#000000" font-family="sans-serif" font-size="13" lengthAdjust="spacing" textLength="21.6836" x="843.9278" y="144.6253">0..1</text></g><!--link Statistics to InstanceVariable--><g class="link" data-entity-1="ent0018" data-entity-2="ent0002" data-link-type="dependency" data-source-line="39" id="lnk19"><path codeLine="39" d="M940.74,70.6594 C930.18,77.7794 918.36,87.9694 912.5,100.6094 C909.14,107.8694 909.83,111.0694 912.5,118.6094 C916.13,128.8694 917.9561,133.7329 923.6061,143.3729" fill="none" id="Statistics-to-InstanceVariable" style="stroke:#404040;stroke-width:1.2;"/><polygon fill="#404040" points="926.64,148.5494,925.5401,138.7621,924.1117,144.2357,918.6382,142.8073,926.64,148.5494" style="stroke:#404040;stroke-width:1.2;"/><text fill="#000000" font-family="sans-serif" font-size="13" lengthAdjust="spacing" textLength="56.3672" x="913.5" y="115.1045">appliesTo</text><text fill="#000000" font-family="sans-serif" font-size="13" lengthAdjust="spacing" textLength="19.5127" x="899.9944" y="137.783">1..*</text></g><!--link Statistics to InstanceVariable--><g class="link" data-entity-1="ent0018" data-entity-2="ent0002" data-link-type="dependency" data-source-line="40" id="lnk20"><path codeLine="40" d="M965.26,70.7094 C967.92,79.0094 971.53,90.4694 974.5,100.6094 C979.02,116.0494 982.0599,126.6867 986.4899,142.6967" fill="none" id="Statistics-to-InstanceVariable-1" style="stroke:#404040;stroke-width:1.2;"/><polygon fill="#404040" points="988.09,148.4794,989.545,138.7386,986.7566,143.6605,981.8347,140.872,988.09,148.4794" style="stroke:#404040;stroke-width:1.2;"/><text fill="#000000" font-family="sans-serif" font-size="13" lengthAdjust="spacing" textLength="61.4199" x="979.5" y="115.1045">hasWeight</text><text fill="#000000" font-family="sans-serif" font-size="13" lengthAdjust="spacing" textLength="21.6836" x="964.2683" y="137.7074">0..1</text></g><!--link CategoryStatistics to InstanceVariable--><g class="link" data-entity-1="ent0021" data-entity-2="ent0002" data-link-type="dependency" data-source-line="42" id="lnk22"><path codeLine="42" d="M1080.06,70.6594 C1073.9,86.6694 1064.3162,111.5802 1052.3862,142.5602" fill="none" id="CategoryStatistics-to-InstanceVariable" style="stroke:#404040;stroke-width:1.2;"/><polygon fill="#404040" points="1050.23,148.1594,1057.1971,141.198,1052.0268,143.4934,1049.7315,138.3231,1050.23,148.1594" style="stroke:#404040;stroke-width:1.2;"/><text fill="#000000" font-family="sans-serif" font-size="13" lengthAdjust="spacing" textLength="61.4199" x="1067.5" y="115.1045">hasWeight</text><text fill="#000000" font-family="sans-serif" font-size="13" lengthAdjust="spacing" textLength="21.6836" x="1031.2766" y="137.6871">0..1</text></g><!--link PhysicalMapping to InstanceVariable--><g class="link" data-entity-1="ent0025" data-entity-2="ent0002" data-link-type="dependency" data-source-line="46" id="lnk26"><path codeLine="46" d="M1206.61,70.6594 C1188.69,86.7094 1158.9801,113.3271 1124.2901,144.3871" fill="none" id="PhysicalMapping-to-InstanceVariable" style="stroke:#404040;stroke-width:1.2;"/><polygon fill="#404040" points="1119.82,148.3894,1129.1933,145.3659,1123.5451,145.0541,1123.8569,139.4059,1119.82,148.3894" style="stroke:#404040;stroke-width:1.2;"/><text fill="#000000" font-family="sans-serif" font-size="13" lengthAdjust="spacing" textLength="43.3418" x="1170.5" y="115.1045">formats</text><text fill="#000000" font-family="sans-serif" font-size="13" lengthAdjust="spacing" textLength="7.23" x="1121.0353" y="137.6103">1</text></g><!--link TextMapping to InstanceVariable--><g class="link" data-entity-1="ent0027" data-entity-2="ent0002" data-link-type="dependency" data-source-line="48" id="lnk28"><path codeLine="48" d="M1320.04,70.6594 C1286.63,89.5094 1222.8353,125.5004 1158.7453,161.6704" fill="none" id="TextMapping-to-InstanceVariable" style="stroke:#404040;stroke-width:1.2;"/><polygon fill="#404040" points="1153.52,164.6194,1163.3239,163.6795,1157.8744,162.1619,1159.392,156.7124,1153.52,164.6194" style="stroke:#404040;stroke-width:1.2;"/><text fill="#000000" font-family="sans-serif" font-size="13" lengthAdjust="spacing" textLength="43.3418" x="1261.5" y="115.1045">formats</text><text fill="#000000" font-family="sans-serif" font-size="13" lengthAdjust="spacing" textLength="7.23" x="1161.3837" y="157.3237">1</text></g><!--link LocatorMapping to InstanceVariable--><g class="link" data-entity-1="ent0029" data-entity-2="ent0002" data-link-type="dependency" data-source-line="50" id="lnk30"><path codeLine="50" d="M1431.6,70.6594 C1376.96,93.2594 1258.1043,142.4258 1159.1143,183.3758" fill="none" id="LocatorMapping-to-InstanceVariable" style="stroke:#404040;stroke-width:1.2;"/><polygon fill="#404040" points="1153.57,185.6694,1163.4155,185.9252,1158.1903,183.7581,1160.3574,178.5328,1153.57,185.6694" style="stroke:#404040;stroke-width:1.2;"/><text fill="#000000" font-family="sans-serif" font-size="13" lengthAdjust="spacing" textLength="43.3418" x="1352.5" y="115.1045">formats</text><text fill="#000000" font-family="sans-serif" font-size="13" lengthAdjust="spacing" textLength="7.23" x="1160.987" y="179.7328">1</text></g><!--link InstanceVariable to Concept--><g class="link" data-entity-1="ent0002" data-entity-2="ent0031" data-link-type="dependency" data-source-line="52" id="lnk32"><path codeLine="52" d="M873.34,253.8094 C733.83,267.0094 550.97,301.1394 629.5,388.6094 C653.47,415.3094 899.7038,426.1562 981.8238,429.0762" fill="none" id="InstanceVariable-to-Concept" style="stroke:#404040;stroke-width:1.2;"/><polygon fill="#404040" points="987.82,429.2894,978.9678,424.9721,982.8232,429.1117,978.6835,432.967,987.82,429.2894" style="stroke:#404040;stroke-width:1.2;"/><text fill="#000000" font-family="sans-serif" font-size="13" lengthAdjust="spacing" textLength="143.7871" x="630.5" y="385.1045">describedUnitOfMeasure</text><text fill="#000000" font-family="sans-serif" font-size="13" lengthAdjust="spacing" textLength="21.6836" x="958.1216" y="424.4223">0..1</text></g><!--link InstanceVariable to Concept--><g class="link" data-entity-1="ent0002" data-entity-2="ent0031" data-link-type="dependency" data-source-line="53" id="lnk33"><path codeLine="53" d="M873.43,292.1494 C821.97,316.7994 783.1,349.9894 814.5,388.6094 C836.09,415.1794 933.2542,424.8964 981.9542,428.2564" fill="none" id="InstanceVariable-to-Concept-1" style="stroke:#404040;stroke-width:1.2;"/><polygon fill="#404040" points="987.94,428.6694,979.2367,424.0594,982.9519,428.3252,978.686,432.0404,987.94,428.6694" style="stroke:#404040;stroke-width:1.2;"/><text fill="#000000" font-family="sans-serif" font-size="13" lengthAdjust="spacing" textLength="111.2808" x="815.5" y="385.1045">unitOfMeasureKind</text><text fill="#000000" font-family="sans-serif" font-size="13" lengthAdjust="spacing" textLength="21.6836" x="958.2708" y="443.5512">0..1</text></g><!--link InstanceVariable to Concept--><g class="link" data-entity-1="ent0002" data-entity-2="ent0031" data-link-type="dependency" data-source-line="54" id="lnk34"><path codeLine="54" d="M963.17,340.9194 C960.21,357.0594 960.77,373.4794 967.5,388.6094 C973.01,400.9994 979.3788,407.7225 989.3588,414.9425" fill="none" id="InstanceVariable-to-Concept-2" style="stroke:#404040;stroke-width:1.2;"/><polygon fill="#404040" points="994.22,418.4594,989.2727,409.9433,990.169,415.5287,984.5836,416.4249,994.22,418.4594" style="stroke:#404040;stroke-width:1.2;"/><text fill="#000000" font-family="sans-serif" font-size="13" lengthAdjust="spacing" textLength="45.5317" x="968.5" y="385.1045">function</text><text fill="#000000" font-family="sans-serif" font-size="13" lengthAdjust="spacing" textLength="19.5127" x="990.53" y="407.8743">0..*</text></g><!--link InstanceVariable to Concept--><g class="link" data-entity-1="ent0002" data-entity-2="ent0031" data-link-type="dependency" data-source-line="55" id="lnk35"><path codeLine="55" d="M1019.35,340.6394 C1019.61,356.6594 1019.43,373.1194 1018.5,388.6094 C1017.89,398.7594 1017.2945,404.2791 1016.1145,412.5791" fill="none" id="InstanceVariable-to-Concept-3" style="stroke:#404040;stroke-width:1.2;"/><polygon fill="#404040" points="1015.27,418.5194,1020.497,410.172,1015.9738,413.5692,1012.5766,409.046,1015.27,418.5194" style="stroke:#404040;stroke-width:1.2;"/><text fill="#000000" font-family="sans-serif" font-size="13" lengthAdjust="spacing" textLength="75.8608" x="1019.5" y="385.1045">platformType</text><text fill="#000000" font-family="sans-serif" font-size="13" lengthAdjust="spacing" textLength="21.6836" x="1020.5352" y="407.5743">0..1</text></g><!--link InstanceVariable to Concept--><g class="link" data-entity-1="ent0002" data-entity-2="ent0031" data-link-type="dependency" data-source-line="56" id="lnk36"><path codeLine="56" d="M1106.97,340.7394 C1113.08,356.7494 1113.38,373.1694 1103.5,388.6094 C1089.4,410.6394 1066.1674,419.7948 1044.8574,424.6948" fill="none" id="InstanceVariable-to-Concept-4" style="stroke:#404040;stroke-width:1.2;"/><polygon fill="#404040" points="1039.01,426.0394,1048.6775,427.9208,1043.8828,424.9189,1046.8847,420.1243,1039.01,426.0394" style="stroke:#404040;stroke-width:1.2;"/><text fill="#000000" font-family="sans-serif" font-size="13" lengthAdjust="spacing" textLength="127.9243" x="1110.5" y="385.1045">hasIntendedDataType</text><text fill="#000000" font-family="sans-serif" font-size="13" lengthAdjust="spacing" textLength="21.6836" x="1046.539" y="420.8654">0..1</text></g><!--link InstanceVariable to Concept--><g class="link" data-entity-1="ent0002" data-entity-2="ent0031" data-link-type="dependency" data-source-line="57" id="lnk37"><path codeLine="57" d="M1153.66,280.2294 C1224,304.3494 1286.58,340.7694 1246.5,388.6094 C1220.25,419.9594 1100.0165,427.4452 1045.1065,429.3152" fill="none" id="InstanceVariable-to-Concept-5" style="stroke:#404040;stroke-width:1.2;"/><polygon fill="#404040" points="1039.11,429.5194,1048.2409,433.2107,1044.1071,429.3492,1047.9686,425.2154,1039.11,429.5194" style="stroke:#404040;stroke-width:1.2;"/><text fill="#000000" font-family="sans-serif" font-size="13" lengthAdjust="spacing" textLength="27.46" x="1256.5" y="385.1045">uses</text><text fill="#000000" font-family="sans-serif" font-size="13" lengthAdjust="spacing" textLength="19.5127" x="1046.8797" y="444.4449">0..*</text></g><?plantuml-src ZLN9Rjim4BthAmZvbi9671H5OHG572z0a0OD6hSz13sCfR5Dc29LacgYDldtKgjfaNPaNQmtotj3ZcOqrGp93LSQU8G_G59OCmnsD4OIKHar_p59TKuIJDOeLQ3sbASW8I5g1x5uednBDi0KMfQfbE9fjQFHdgDIP3owiemH0uFz2qZbDXDCI39uVray1hmMCaRPHPU2wmVw5yduAdWDWYf7sDKU4b1EGMImN2mNiqL9-Ix63ULKKy79X2Wj2_cFur-LIKMIhZ7-RXo-RkuGL2RHkCs4IPTgydWv6bMkcUrnItdizTfaFAgPRED5QKmPw8sGoIfF_HnAP392IsLhsO6wuHfvZF4SD9pEG9EKORSQ9rscKBaINmDO6rU8T7rZuRH-FphjBaW6ym-BwV9Zu1W-lGo7RhVLkUybJK3cjvZFH98AZboNwJqu6IpAN-2p3OUVIJWEtIQO47DB-8ogOVo6gKHbOZ0-AiY3junEreRE5pGXnS4sT0yQD5MQHigqDiEoBqe-d-4DmkBcGd-WALFDcpw-piycy9pHxmmOtL1BThOkd3JzOznOXdEH0As5UqtzfFj39qJ37bNNgfPI9AqWSyYK8tFKkFZRKYv2RroZmpOTYMWIrHzLN2heWYszOpX_1yqOyhHEfs5Q1WkgEh8ipPCRqfIPsrq99-Ia73DiVYBTxdGZPmOQjqBc7LaktChpcFfoUflyV8tLTruq_-dW_jNUxt958s1tvkZCsAo6qZ5s64WT_CmmAYO_wFQAL_YiRGRhlSrkO_qpVn4HQ27jvCTGcxy3zwUe5qVL1VKIwJC56jz3onzltfx1pYu--xqVufhjt9F6tjSzGpnxkgUsSdFy1m00?></g></svg>