<svg xmlns="http://www.w3.org/2000/svg" xmlns:xlink="http://www.w3.org/1999/xlink" contentStyleType="text/css" data-diagram-type="CLASS" height="348px" preserveAspectRatio="none" style="width:1079px;height:348px;background:#FFFFFF;" version="1.1" viewBox="0 0 1079 348" width="1079px" zoomAndPan="magnify"><?plantuml 1.2026.3?><defs/><g><g class="title" data-source-line="1"><text fill="#000000" font-family="sans-serif" font-size="14" font-weight="700" lengthAdjust="spacing" textLength="139.2822" x="466.8042" y="24.5332">RepresentedVariable</text></g><!--class RepresentedVariable--><g class="entity" data-qualified-name="RepresentedVariable" data-source-line="12" id="ent0002"><rect fill="#FEFECE" height="68.3125" rx="2.5" ry="2.5" style="stroke:#404040;stroke-width:0.5;" width="226.792" x="426.5" y="148.6094"/><text fill="#000000" font-family="sans-serif" font-size="12" lengthAdjust="spacing" textLength="112.7402" x="483.5259" y="166.0664">RepresentedVariable</text><line style="stroke:#404040;stroke-width:0.5;" x1="427.5" x2="652.292" y1="173.7031" y2="173.7031"/><g data-visibility-modifier="PUBLIC_FIELD"><ellipse cx="437.5" cy="188.0078" fill="none" rx="3" ry="3" style="stroke:#038048;stroke-width:1;"/></g><text fill="#000000" font-family="sans-serif" font-size="14" lengthAdjust="spacing" textLength="143.9512" x="446.5" y="192.2363">name : ObjectName [1]</text><g data-visibility-modifier="PUBLIC_FIELD"><ellipse cx="437.5" cy="205.6172" fill="none" rx="3" ry="3" style="stroke:#038048;stroke-width:1;"/></g><text fill="#000000" font-family="sans-serif" font-size="14" lengthAdjust="spacing" textLength="200.792" x="446.5" y="209.8457">definition : InternationalString [1]</text></g><!--class DataStructureComponent--><g class="entity" data-qualified-name="DataStructureComponent" data-source-line="16" id="ent0003"><rect fill="#EEEEEE" height="25.0938" rx="2.5" ry="2.5" style="stroke:#404040;stroke-width:0.5;" width="142.0723" x="7" y="45.6094"/><text fill="#000000" font-family="sans-serif" font-size="12" font-style="italic" lengthAdjust="spacing" textLength="136.0723" x="10" y="63.0664">DataStructureComponent</text></g><!--class IdentifierComponent--><g class="entity" data-qualified-name="IdentifierComponent" data-source-line="18" id="ent0005"><rect fill="#EEEEEE" height="25.0938" rx="2.5" ry="2.5" style="stroke:#404040;stroke-width:0.5;" width="114.0645" x="184" y="45.6094"/><text fill="#000000" font-family="sans-serif" font-size="12" lengthAdjust="spacing" textLength="108.0645" x="187" y="63.0664">IdentifierComponent</text></g><!--class MeasureComponent--><g class="entity" data-qualified-name="MeasureComponent" data-source-line="20" id="ent0007"><rect fill="#EEEEEE" height="25.0938" rx="2.5" ry="2.5" style="stroke:#404040;stroke-width:0.5;" width="114.7266" x="333.5" y="45.6094"/><text fill="#000000" font-family="sans-serif" font-size="12" lengthAdjust="spacing" textLength="108.7266" x="336.5" y="63.0664">MeasureComponent</text></g><!--class AttributeComponent--><g class="entity" data-qualified-name="AttributeComponent" data-source-line="22" id="ent0009"><rect fill="#EEEEEE" height="25.0938" rx="2.5" ry="2.5" style="stroke:#404040;stroke-width:0.5;" width="112.7285" x="483.5" y="45.6094"/><text fill="#000000" font-family="sans-serif" font-size="12" lengthAdjust="spacing" textLength="106.7285" x="486.5" y="63.0664">AttributeComponent</text></g><!--class DimensionComponent--><g class="entity" data-qualified-name="DimensionComponent" data-source-line="24" id="ent0011"><rect fill="#EEEEEE" height="25.0938" rx="2.5" ry="2.5" style="stroke:#404040;stroke-width:0.5;" width="124.7285" x="631.5" y="45.6094"/><text fill="#000000" font-family="sans-serif" font-size="12" lengthAdjust="spacing" textLength="118.7285" x="634.5" y="63.0664">DimensionComponent</text></g><!--class VariableValueComponent--><g class="entity" data-qualified-name="VariableValueComponent" data-source-line="26" id="ent0013"><rect fill="#EEEEEE" height="25.0938" rx="2.5" ry="2.5" style="stroke:#404040;stroke-width:0.5;" width="142.7578" x="791.5" y="45.6094"/><text fill="#000000" font-family="sans-serif" font-size="12" lengthAdjust="spacing" textLength="136.7578" x="794.5" y="63.0664">VariableValueComponent</text></g><!--class SubstantiveValueDomain--><g class="entity" data-qualified-name="SubstantiveValueDomain" data-source-line="28" id="ent0015"><rect fill="#EEEEEE" height="25.0938" rx="2.5" ry="2.5" style="stroke:#404040;stroke-width:0.5;" width="140.748" x="68.5" y="302.1094"/><text fill="#000000" font-family="sans-serif" font-size="12" lengthAdjust="spacing" textLength="134.748" x="71.5" y="319.5664">SubstantiveValueDomain</text></g><!--class SentinelValueDomain--><g class="entity" data-qualified-name="SentinelValueDomain" data-source-line="30" id="ent0017"><rect fill="#EEEEEE" height="25.0938" rx="2.5" ry="2.5" style="stroke:#404040;stroke-width:0.5;" width="121.4063" x="289.5" y="302.1094"/><text fill="#000000" font-family="sans-serif" font-size="12" lengthAdjust="spacing" textLength="115.4063" x="292.5" y="319.5664">SentinelValueDomain</text></g><!--class UnitType--><g class="entity" data-qualified-name="UnitType" data-source-line="32" id="ent0019"><rect fill="#EEEEEE" height="25.0938" rx="2.5" ry="2.5" style="stroke:#404040;stroke-width:0.5;" width="54.0176" x="513" y="302.1094"/><text fill="#000000" font-family="sans-serif" font-size="12" lengthAdjust="spacing" textLength="48.0176" x="516" y="319.5664">UnitType</text></g><!--class InstanceVariable--><g class="entity" data-qualified-name="InstanceVariable" data-source-line="34" id="ent0021"><rect fill="#EEEEEE" height="25.0938" rx="2.5" ry="2.5" style="stroke:#404040;stroke-width:0.5;" width="95.3906" x="969.5" y="45.6094"/><text fill="#000000" font-family="sans-serif" font-size="12" lengthAdjust="spacing" textLength="89.3906" x="972.5" y="63.0664">InstanceVariable</text></g><!--class ObjectName--><g class="entity" data-qualified-name="ObjectName" data-source-line="36" id="ent0023"><rect fill="#FAE5D3" height="40.1875" rx="2.5" ry="2.5" style="stroke:#404040;stroke-width:0.5;" width="72.6914" x="602.5" y="294.6094"/><text fill="#000000" font-family="sans-serif" font-size="12" font-style="italic" lengthAdjust="spacing" textLength="63.3809" x="607.1553" y="312.0664">&#171;dataType&#187;</text><text fill="#000000" font-family="sans-serif" font-size="12" lengthAdjust="spacing" textLength="66.6914" x="605.5" y="327.1602">ObjectName</text></g><!--class InternationalString--><g class="entity" data-qualified-name="InternationalString" data-source-line="38" id="ent0025"><rect fill="#FAE5D3" height="40.1875" rx="2.5" ry="2.5" style="stroke:#404040;stroke-width:0.5;" width="103.3945" x="710.5" y="294.6094"/><text fill="#000000" font-family="sans-serif" font-size="12" font-style="italic" lengthAdjust="spacing" textLength="63.3809" x="730.5068" y="312.0664">&#171;dataType&#187;</text><text fill="#000000" font-family="sans-serif" font-size="12" lengthAdjust="spacing" textLength="97.3945" x="713.5" y="327.1602">InternationalString</text></g><!--link DataStructureComponent to RepresentedVariable--><g class="link" data-entity-1="ent0003" data-entity-2="ent0002" data-link-type="dependency" data-source-line="17" id="lnk4"><path codeLine="17" d="M106.89,70.7194 C139.88,83.6694 195.7,104.6294 245,118.6094 C304.2,135.3994 365.3144,148.8833 420.4844,159.8133" fill="none" id="DataStructureComponent-to-RepresentedVariable" style="stroke:#404040;stroke-width:1.2;"/><polygon fill="#404040" points="426.37,160.9794,418.3189,155.3066,421.4653,160.0077,416.7642,163.1541,426.37,160.9794" style="stroke:#404040;stroke-width:1.2;"/><text fill="#000000" font-family="sans-serif" font-size="13" lengthAdjust="spacing" textLength="69.3672" x="246" y="115.1045">isDefinedBy</text><text fill="#000000" font-family="sans-serif" font-size="13" lengthAdjust="spacing" textLength="7.23" x="411.1497" y="156.3925">1</text></g><!--link IdentifierComponent to RepresentedVariable--><g class="link" data-entity-1="ent0005" data-entity-2="ent0002" data-link-type="dependency" data-source-line="19" id="lnk6"><path codeLine="19" d="M262.11,70.6894 C285.61,83.3394 324.9,103.7594 360,118.6094 C385,129.1894 406.8003,137.4574 432.5703,146.5274" fill="none" id="IdentifierComponent-to-RepresentedVariable" style="stroke:#404040;stroke-width:1.2;"/><polygon fill="#404040" points="438.23,148.5194,431.0685,141.7583,433.5136,146.8594,428.4125,149.3045,438.23,148.5194" style="stroke:#404040;stroke-width:1.2;"/><text fill="#000000" font-family="sans-serif" font-size="13" lengthAdjust="spacing" textLength="69.3672" x="361" y="115.1045">isDefinedBy</text><text fill="#000000" font-family="sans-serif" font-size="13" lengthAdjust="spacing" textLength="7.23" x="411.2047" y="137.9948">1</text></g><!--link MeasureComponent to RepresentedVariable--><g class="link" data-entity-1="ent0007" data-entity-2="ent0002" data-link-type="dependency" data-source-line="21" id="lnk8"><path codeLine="21" d="M404.31,70.6394 C418.32,82.7194 441.05,102.1894 461,118.6094 C472.92,128.4194 481.2891,135.1884 493.2891,144.7584" fill="none" id="MeasureComponent-to-RepresentedVariable" style="stroke:#404040;stroke-width:1.2;"/><polygon fill="#404040" points="497.98,148.4994,493.4376,139.7606,494.0709,145.3819,488.4496,146.0151,497.98,148.4994" style="stroke:#404040;stroke-width:1.2;"/><text fill="#000000" font-family="sans-serif" font-size="13" lengthAdjust="spacing" textLength="69.3672" x="462" y="115.1045">isDefinedBy</text><text fill="#000000" font-family="sans-serif" font-size="13" lengthAdjust="spacing" textLength="7.23" x="482.0614" y="137.7079">1</text></g><!--link AttributeComponent to RepresentedVariable--><g class="link" data-entity-1="ent0009" data-entity-2="ent0002" data-link-type="dependency" data-source-line="23" id="lnk10"><path codeLine="23" d="M540,70.8594 C540,88.5794 540,116.8294 540,142.5694" fill="none" id="AttributeComponent-to-RepresentedVariable" style="stroke:#404040;stroke-width:1.2;"/><polygon fill="#404040" points="540,148.5694,544,139.5694,540,143.5694,536,139.5694,540,148.5694" style="stroke:#404040;stroke-width:1.2;"/><text fill="#000000" font-family="sans-serif" font-size="13" lengthAdjust="spacing" textLength="69.3672" x="541" y="115.1045">isDefinedBy</text><text fill="#000000" font-family="sans-serif" font-size="13" lengthAdjust="spacing" textLength="7.23" x="532.3541" y="137.7917">1</text></g><!--link DimensionComponent to RepresentedVariable--><g class="link" data-entity-1="ent0011" data-entity-2="ent0002" data-link-type="dependency" data-source-line="25" id="lnk12"><path codeLine="25" d="M679.51,70.6294 C657.35,88.2594 618.8755,118.8641 586.4055,144.6941" fill="none" id="DimensionComponent-to-RepresentedVariable" style="stroke:#404040;stroke-width:1.2;"/><polygon fill="#404040" points="581.71,148.4294,591.2434,145.9568,585.6229,145.3166,586.2631,139.6961,581.71,148.4294" style="stroke:#404040;stroke-width:1.2;"/><text fill="#000000" font-family="sans-serif" font-size="13" lengthAdjust="spacing" textLength="69.3672" x="640" y="115.1045">isDefinedBy</text><text fill="#000000" font-family="sans-serif" font-size="13" lengthAdjust="spacing" textLength="7.23" x="582.2757" y="137.6241">1</text></g><!--link VariableValueComponent to RepresentedVariable--><g class="link" data-entity-1="ent0013" data-entity-2="ent0002" data-link-type="dependency" data-source-line="27" id="lnk14"><path codeLine="27" d="M835.9,70.6994 C806.89,82.9894 759.43,102.7894 718,118.6094 C691.66,128.6694 668.5864,137.0781 642.0464,146.4681" fill="none" id="VariableValueComponent-to-RepresentedVariable" style="stroke:#404040;stroke-width:1.2;"/><polygon fill="#404040" points="636.39,148.4694,646.2088,149.2384,641.1037,146.8017,643.5404,141.6965,636.39,148.4694" style="stroke:#404040;stroke-width:1.2;"/><text fill="#000000" font-family="sans-serif" font-size="13" lengthAdjust="spacing" textLength="69.3672" x="763" y="115.1045">isDefinedBy</text><text fill="#000000" font-family="sans-serif" font-size="13" lengthAdjust="spacing" textLength="7.23" x="647.7208" y="137.672">1</text></g><!--link RepresentedVariable to SubstantiveValueDomain--><g class="link" data-entity-1="ent0002" data-entity-2="ent0015" data-link-type="dependency" data-source-line="29" id="lnk16"><path codeLine="29" d="M426.28,194.3694 C338.32,204.4294 225.15,221.6494 186,246.6094 C164.91,260.0494 153.0697,281.2067 146.1797,296.5367" fill="none" id="RepresentedVariable-to-SubstantiveValueDomain" style="stroke:#404040;stroke-width:1.2;"/><polygon fill="#404040" points="143.72,302.0094,151.0579,295.4402,145.7697,297.4488,143.7611,292.1606,143.72,302.0094" style="stroke:#404040;stroke-width:1.2;"/><text fill="#000000" font-family="sans-serif" font-size="13" lengthAdjust="spacing" textLength="169.0825" x="187" y="261.1045">takesSubstantiveValuesFrom</text><text fill="#000000" font-family="sans-serif" font-size="13" lengthAdjust="spacing" textLength="19.5127" x="122.906" y="291.0602">0..*</text></g><!--link RepresentedVariable to SentinelValueDomain--><g class="link" data-entity-1="ent0002" data-entity-2="ent0017" data-link-type="dependency" data-source-line="31" id="lnk18"><path codeLine="31" d="M426.23,214.2094 C408.6,222.6094 391.72,233.2294 378,246.6094 C362.3,261.9294 356.2196,281.4946 353.1596,296.2346" fill="none" id="RepresentedVariable-to-SentinelValueDomain" style="stroke:#404040;stroke-width:1.2;"/><polygon fill="#404040" points="351.94,302.1094,357.6859,294.1103,352.9563,297.2138,349.8529,292.4842,351.94,302.1094" style="stroke:#404040;stroke-width:1.2;"/><text fill="#000000" font-family="sans-serif" font-size="13" lengthAdjust="spacing" textLength="148.1289" x="379" y="261.1045">takesSentinelValuesFrom</text><text fill="#000000" font-family="sans-serif" font-size="13" lengthAdjust="spacing" textLength="19.5127" x="329.8435" y="291.2014">0..*</text></g><!--link RepresentedVariable to UnitType--><g class="link" data-entity-1="ent0002" data-entity-2="ent0019" data-link-type="dependency" data-source-line="33" id="lnk20"><path codeLine="33" d="M537.76,216.7094 C537.03,231.3794 536.52,248.8594 537,264.6094 C537.39,277.3894 537.9101,286.0255 538.6401,295.9555" fill="none" id="RepresentedVariable-to-UnitType" style="stroke:#404040;stroke-width:1.2;"/><polygon fill="#404040" points="539.08,301.9394,542.4094,292.6703,538.7134,296.9528,534.4309,293.2569,539.08,301.9394" style="stroke:#404040;stroke-width:1.2;"/><text fill="#000000" font-family="sans-serif" font-size="13" lengthAdjust="spacing" textLength="57.0781" x="538" y="261.1045">measures</text><text fill="#000000" font-family="sans-serif" font-size="13" lengthAdjust="spacing" textLength="21.6836" x="513.7145" y="291.3464">0..1</text></g><!--link InstanceVariable to RepresentedVariable--><g class="link" data-entity-1="ent0021" data-entity-2="ent0002" data-link-type="dependency" data-source-line="35" id="lnk22"><path codeLine="35" d="M986.5,70.6594 C951.68,83.5594 892.81,104.4794 841,118.6094 C779.7,135.3194 716.2393,148.9621 659.5693,160.0021" fill="none" id="InstanceVariable-to-RepresentedVariable" style="stroke:#404040;stroke-width:1.2;"/><polygon fill="#404040" points="653.68,161.1494,663.2788,163.3546,658.5877,160.1933,661.7491,155.5022,653.68,161.1494" style="stroke:#404040;stroke-width:1.2;"/><text fill="#000000" font-family="sans-serif" font-size="13" lengthAdjust="spacing" textLength="27.46" x="900" y="115.1045">uses</text><text fill="#000000" font-family="sans-serif" font-size="13" lengthAdjust="spacing" textLength="7.23" x="661.2009" y="156.7585">1</text></g><!--link RepresentedVariable to ObjectName--><g class="link" data-entity-1="ent0002" data-entity-2="ent0023" data-link-type="dependency" data-source-line="37" id="lnk24"><path codeLine="37" d="M574.23,216.6394 C583.09,225.9494 592.29,236.3394 600,246.6094 C611.4,261.7894 619.269,275.2633 626.559,289.0733" fill="none" id="RepresentedVariable-to-ObjectName" style="stroke:#404040;stroke-width:1.2;stroke-dasharray:7,7;"/><polygon fill="#404040" points="629.36,294.3794,628.6959,284.5529,627.0259,289.9576,621.6212,288.2876,629.36,294.3794" style="stroke:#404040;stroke-width:1.2;"/><text fill="#000000" font-family="sans-serif" font-size="13" lengthAdjust="spacing" textLength="32.519" x="613" y="261.1045">name</text></g><!--link RepresentedVariable to InternationalString--><g class="link" data-entity-1="ent0002" data-entity-2="ent0025" data-link-type="dependency" data-source-line="39" id="lnk26"><path codeLine="39" d="M601.26,216.7194 C618.42,226.1994 637.03,236.6594 654,246.6094 C680.65,262.2294 705.3798,277.5911 726.9198,291.2211" fill="none" id="RepresentedVariable-to-InternationalString" style="stroke:#404040;stroke-width:1.2;stroke-dasharray:7,7;"/><polygon fill="#404040" points="731.99,294.4294,726.5236,286.2368,727.7648,291.7558,722.2458,292.9971,731.99,294.4294" style="stroke:#404040;stroke-width:1.2;"/><text fill="#000000" font-family="sans-serif" font-size="13" lengthAdjust="spacing" textLength="52.0381" x="684" y="261.1045">definition</text></g><?plantuml-src bLHDRwCm5BppAvx8hQkYfhjxGLMaD12fX-vAcsulLGyFU6dSW8riirLsrV--DYaV1QSgSC5lRCyCpnxDT4xmYqf9YhYcx1ubmoGdRySoWfJ9jFccejG7AAX8I2fFxHalKM81QeUPU67y2RQOA-eXIod5ozsEfNjEIi4ykEo1QOwczi-3uxILo8M4sRSB-vhYjP0PoM5rBRZUiBy4yqllrVEEU_WE-JwWSjc2sJfUnwku9lx2iI08uMVoJAd-OGSFyqSBPBHbd6ack85lp0QIenrXlj7IMhNpNZrCb9QOwZSpVeGQpOGgrPMabIXAmGrxhSKDmIok7-y4V7w-07_kEvs4m5HaTL9sVMX-nKrc9h4jix-kJ--ejzmkR3BnBQ4QcHuMMyeHC9blgKqZaaeF6CVbbjC1JMQDM45ScOCmQEwet3Ls34rcRT1xpAk1NpVKif-09olOLEQaepabVuvRHQ90nci5RgXLuAAewI-2uCm_jJe4ZNjIGrIjfIXQJVRKSif7WiRrJwjnB6sazA5tEdwReBWxbCV8QGQVOZGTQEU79bdhEw7QgyojzvJUHTgms5tY8V1nZolL4NNnLrFqql3gAZEvPFKj5YOvb_7twAlJKH0i-kj2iCdQ6HdbvvkNSQvEOdHj44ANtTv_?></g></svg>