<svg xmlns="http://www.w3.org/2000/svg" xmlns:xlink="http://www.w3.org/1999/xlink" contentStyleType="text/css" data-diagram-type="CLASS" height="1990px" preserveAspectRatio="none" style="width:2327px;height:1990px;background:#FFFFFF;" version="1.1" viewBox="0 0 2327 1990" width="2327px" zoomAndPan="magnify"><?plantuml 1.2026.3?><defs/><g><g class="title" data-source-line="1"><text fill="#000000" font-family="sans-serif" font-size="14" font-weight="700" lengthAdjust="spacing" textLength="256.4297" x="1032.0469" y="24.5332">DiscoveryDataDescription &#8212; overview</text></g><!--class CompositeProfile--><g class="entity" data-qualified-name="CompositeProfile" data-source-line="16" id="ent0002"><rect fill="#FEFECE" height="47.7344" rx="2.5" ry="2.5" style="stroke:#404040;stroke-width:0.5;" width="234.4277" x="1146.5" y="204.1394"/><text fill="#000000" font-family="sans-serif" font-size="30" font-style="italic" lengthAdjust="spacing" textLength="228.4277" x="1149.5" y="240.282">CompositeProfile</text></g><!--class Dataset--><g class="entity" data-qualified-name="Dataset" data-source-line="17" id="ent0003"><rect fill="#FEFECE" height="47.7344" rx="2.5" ry="2.5" style="stroke:#404040;stroke-width:0.5;" width="109.3887" x="1401" y="204.1394"/><text fill="#000000" font-family="sans-serif" font-size="30" lengthAdjust="spacing" textLength="103.3887" x="1404" y="240.282">Dataset</text></g><!--class DataDownload--><g class="entity" data-qualified-name="DataDownload" data-source-line="18" id="ent0004"><rect fill="#FEFECE" height="47.7344" rx="2.5" ry="2.5" style="stroke:#404040;stroke-width:0.5;" width="202.7871" x="801" y="549.1394"/><text fill="#000000" font-family="sans-serif" font-size="30" lengthAdjust="spacing" textLength="196.7871" x="804" y="585.282">DataDownload</text></g><!--class WebAPI--><g class="entity" data-qualified-name="WebAPI" data-source-line="19" id="ent0005"><rect fill="#FCF3CF" height="47.7344" rx="2.5" ry="2.5" style="stroke:#404040;stroke-width:0.5;" width="116.0391" x="1066.5" y="549.1394"/><text fill="#000000" font-family="sans-serif" font-size="30" lengthAdjust="spacing" textLength="110.0391" x="1069.5" y="585.282">WebAPI</text></g><!--class ActionResult--><g class="entity" data-qualified-name="ActionResult" data-source-line="20" id="ent0006"><rect fill="#FCF3CF" height="47.7344" rx="2.5" ry="2.5" style="stroke:#404040;stroke-width:0.5;" width="174.4131" x="1432.5" y="894.1394"/><text fill="#000000" font-family="sans-serif" font-size="30" lengthAdjust="spacing" textLength="168.4131" x="1435.5" y="930.282">ActionResult</text></g><!--class ProvActivity--><g class="entity" data-qualified-name="ProvActivity" data-source-line="21" id="ent0007"><rect fill="#FEFECE" height="47.7344" rx="2.5" ry="2.5" style="stroke:#404040;stroke-width:0.5;" width="162.6943" x="1223" y="549.1394"/><text fill="#000000" font-family="sans-serif" font-size="30" lengthAdjust="spacing" textLength="156.6943" x="1226" y="585.282">ProvActivity</text></g><!--class CatalogRecord--><g class="entity" data-qualified-name="CatalogRecord" data-source-line="22" id="ent0008"><rect fill="#FEFECE" height="47.7344" rx="2.5" ry="2.5" style="stroke:#404040;stroke-width:0.5;" width="206.1123" x="1550.5" y="549.1394"/><text fill="#000000" font-family="sans-serif" font-size="30" lengthAdjust="spacing" textLength="200.1123" x="1553.5" y="585.282">CatalogRecord</text></g><!--class InstanceVariable--><g class="entity" data-qualified-name="InstanceVariable" data-source-line="23" id="ent0009"><rect fill="#FCF3CF" height="47.7344" rx="2.5" ry="2.5" style="stroke:#404040;stroke-width:0.5;" width="229.4766" x="311" y="1584.1394"/><text fill="#000000" font-family="sans-serif" font-size="30" lengthAdjust="spacing" textLength="223.4766" x="314" y="1620.282">InstanceVariable</text></g><!--class AbstractMapping--><g class="entity" data-qualified-name="AbstractMapping" data-source-line="24" id="ent0010"><rect fill="#FCF3CF" height="47.7344" rx="2.5" ry="2.5" style="stroke:#404040;stroke-width:0.5;" width="231.1172" x="965" y="1239.1394"/><text fill="#000000" font-family="sans-serif" font-size="30" font-style="italic" lengthAdjust="spacing" textLength="225.1172" x="968" y="1275.282">AbstractMapping</text></g><!--class PhysicalMapping--><g class="entity" data-qualified-name="PhysicalMapping" data-source-line="25" id="ent0011"><rect fill="#FCF3CF" height="47.7344" rx="2.5" ry="2.5" style="stroke:#404040;stroke-width:0.5;" width="232.7871" x="738" y="1584.1394"/><text fill="#000000" font-family="sans-serif" font-size="30" lengthAdjust="spacing" textLength="226.7871" x="741" y="1620.282">PhysicalMapping</text></g><!--class TextMapping--><g class="entity" data-qualified-name="TextMapping" data-source-line="26" id="ent0012"><rect fill="#FCF3CF" height="47.7344" rx="2.5" ry="2.5" style="stroke:#404040;stroke-width:0.5;" width="179.4229" x="991" y="1584.1394"/><text fill="#000000" font-family="sans-serif" font-size="30" lengthAdjust="spacing" textLength="173.4229" x="994" y="1620.282">TextMapping</text></g><!--class LocatorMapping--><g class="entity" data-qualified-name="LocatorMapping" data-source-line="27" id="ent0013"><rect fill="#FCF3CF" height="47.7344" rx="2.5" ry="2.5" style="stroke:#404040;stroke-width:0.5;" width="221.1416" x="1190" y="1584.1394"/><text fill="#000000" font-family="sans-serif" font-size="30" lengthAdjust="spacing" textLength="215.1416" x="1193" y="1620.282">LocatorMapping</text></g><!--class AbstractDataSet--><g class="entity" data-qualified-name="AbstractDataSet" data-source-line="28" id="ent0014"><rect fill="#FCF3CF" height="47.7344" rx="2.5" ry="2.5" style="stroke:#404040;stroke-width:0.5;" width="224.4375" x="555.5" y="894.1394"/><text fill="#000000" font-family="sans-serif" font-size="30" font-style="italic" lengthAdjust="spacing" textLength="218.4375" x="558.5" y="930.282">AbstractDataSet</text></g><!--class TabularTextDataSet--><g class="entity" data-qualified-name="TabularTextDataSet" data-source-line="29" id="ent0015"><rect fill="#FCF3CF" height="47.7344" rx="2.5" ry="2.5" style="stroke:#404040;stroke-width:0.5;" width="274.4619" x="611.5" y="1239.1394"/><text fill="#000000" font-family="sans-serif" font-size="30" lengthAdjust="spacing" textLength="268.4619" x="614.5" y="1275.282">TabularTextDataSet</text></g><!--class StructuredDataSet--><g class="entity" data-qualified-name="StructuredDataSet" data-source-line="30" id="ent0016"><rect fill="#FCF3CF" height="47.7344" rx="2.5" ry="2.5" style="stroke:#404040;stroke-width:0.5;" width="252.7969" x="338" y="1239.1394"/><text fill="#000000" font-family="sans-serif" font-size="30" lengthAdjust="spacing" textLength="246.7969" x="341" y="1275.282">StructuredDataSet</text></g><!--class DataFingerprint--><g class="entity" data-qualified-name="DataFingerprint" data-source-line="31" id="ent0017"><rect fill="#FCF3CF" height="47.7344" rx="2.5" ry="2.5" style="stroke:#404040;stroke-width:0.5;" width="212.7627" x="800" y="894.1394"/><text fill="#000000" font-family="sans-serif" font-size="30" lengthAdjust="spacing" textLength="206.7627" x="803" y="930.282">DataFingerprint</text></g><!--class PrimaryKey--><g class="entity" data-qualified-name="PrimaryKey" data-source-line="32" id="ent0018"><rect fill="#FAE5D3" height="47.7344" rx="2.5" ry="2.5" style="stroke:#404040;stroke-width:0.5;" width="161.0244" x="1823" y="549.1394"/><text fill="#000000" font-family="sans-serif" font-size="30" lengthAdjust="spacing" textLength="155.0244" x="1826" y="585.282">PrimaryKey</text></g><!--class Statistics--><g class="entity" data-qualified-name="Statistics" data-source-line="33" id="ent0019"><rect fill="#FCF3CF" height="47.7344" rx="2.5" ry="2.5" style="stroke:#404040;stroke-width:0.5;" width="126.0293" x="2111.5" y="549.1394"/><text fill="#000000" font-family="sans-serif" font-size="30" lengthAdjust="spacing" textLength="120.0293" x="2114.5" y="585.282">Statistics</text></g><!--class SubstantiveValueDomain--><g class="entity" data-qualified-name="SubstantiveValueDomain" data-source-line="34" id="ent0020"><rect fill="#FCF3CF" height="47.7344" rx="2.5" ry="2.5" style="stroke:#404040;stroke-width:0.5;" width="342.8701" x="7" y="1929.1394"/><text fill="#000000" font-family="sans-serif" font-size="30" lengthAdjust="spacing" textLength="336.8701" x="10" y="1965.282">SubstantiveValueDomain</text></g><!--class SentinelValueDomain--><g class="entity" data-qualified-name="SentinelValueDomain" data-source-line="35" id="ent0021"><rect fill="#FCF3CF" height="47.7344" rx="2.5" ry="2.5" style="stroke:#404040;stroke-width:0.5;" width="294.5156" x="526" y="1929.1394"/><text fill="#000000" font-family="sans-serif" font-size="30" lengthAdjust="spacing" textLength="288.5156" x="529" y="1965.282">SentinelValueDomain</text></g><!--reverse link AbstractMapping to PhysicalMapping--><g class="link" data-entity-1="ent0010" data-entity-2="ent0011" data-link-type="extension" data-source-line="36" id="lnk22"><path codeLine="36" d="M1055.4162,1302.2099 C1014.3462,1364.5399 911.25,1521.0094 869.91,1583.7494" fill="none" id="AbstractMapping-backto-PhysicalMapping" style="stroke:#404040;stroke-width:1.2;"/><polygon fill="none" points="1065.32,1287.1794,1050.4061,1298.9086,1060.4264,1305.5111,1065.32,1287.1794" style="stroke:#404040;stroke-width:1.2;"/></g><!--reverse link AbstractMapping to TextMapping--><g class="link" data-entity-1="ent0010" data-entity-2="ent0012" data-link-type="extension" data-source-line="37" id="lnk23"><path codeLine="37" d="M1080.5,1305.1794 C1080.5,1367.5094 1080.5,1521.0094 1080.5,1583.7494" fill="none" id="AbstractMapping-backto-TextMapping" style="stroke:#404040;stroke-width:1.2;"/><polygon fill="none" points="1080.5,1287.1794,1074.5,1305.1794,1086.5,1305.1794,1080.5,1287.1794" style="stroke:#404040;stroke-width:1.2;"/></g><!--reverse link AbstractMapping to LocatorMapping--><g class="link" data-entity-1="ent0010" data-entity-2="ent0013" data-link-type="extension" data-source-line="38" id="lnk24"><path codeLine="38" d="M1104.9983,1302.3305 C1144.9783,1364.6605 1245.25,1521.0094 1285.5,1583.7494" fill="none" id="AbstractMapping-backto-LocatorMapping" style="stroke:#404040;stroke-width:1.2;"/><polygon fill="none" points="1095.28,1287.1794,1099.9479,1305.5699,1110.0486,1299.091,1095.28,1287.1794" style="stroke:#404040;stroke-width:1.2;"/></g><!--reverse link AbstractDataSet to TabularTextDataSet--><g class="link" data-entity-1="ent0014" data-entity-2="ent0015" data-link-type="extension" data-source-line="39" id="lnk25"><path codeLine="39" d="M677.0771,959.6975 C691.7971,1022.0275 728.16,1176.0094 742.98,1238.7494" fill="none" id="AbstractDataSet-backto-TabularTextDataSet" style="stroke:#404040;stroke-width:1.2;"/><polygon fill="none" points="672.94,942.1794,671.2377,961.0765,682.9165,958.3184,672.94,942.1794" style="stroke:#404040;stroke-width:1.2;"/></g><!--reverse link AbstractDataSet to StructuredDataSet--><g class="link" data-entity-1="ent0014" data-entity-2="ent0016" data-link-type="extension" data-source-line="40" id="lnk26"><path codeLine="40" d="M644.7002,957.6686 C607.8002,1019.9986 515.48,1176.0094 478.34,1238.7494" fill="none" id="AbstractDataSet-backto-StructuredDataSet" style="stroke:#404040;stroke-width:1.2;"/><polygon fill="none" points="653.87,942.1794,639.5372,954.612,649.8633,960.7252,653.87,942.1794" style="stroke:#404040;stroke-width:1.2;"/></g><!--link Dataset to ProvActivity--><g class="link" data-entity-1="ent0003" data-entity-2="ent0007" data-link-type="dependency" data-source-line="41" id="lnk27"><path codeLine="41" d="M1418.69,252.1694 C1381.88,277.6094 1327.53,322.3194 1304.5,377.1394 C1280.18,435.0394 1289.873,505.5462 1297.743,543.2162" fill="none" id="Dataset-to-ProvActivity" style="stroke:#404040;stroke-width:1.2;"/><polygon fill="#404040" points="1298.97,549.0894,1301.0449,539.4616,1297.9475,544.195,1293.214,541.0976,1298.97,549.0894" style="stroke:#404040;stroke-width:1.2;"/><text fill="#000000" font-family="sans-serif" font-size="36" lengthAdjust="spacing" textLength="276.1523" x="1305.5" y="415.5105">wasGeneratedBy</text><text fill="#000000" font-family="sans-serif" font-size="36" lengthAdjust="spacing" textLength="54.0352" x="1239.2059" y="533.2175">0..*</text></g><!--link Dataset to CatalogRecord--><g class="link" data-entity-1="ent0003" data-entity-2="ent0008" data-link-type="dependency" data-source-line="42" id="lnk28"><path codeLine="42" d="M1480.52,252.3594 C1508.85,279.8094 1554.79,328.0094 1583.5,377.1394 C1617.16,434.7494 1637.3568,505.4355 1646.7168,543.2055" fill="none" id="Dataset-to-CatalogRecord" style="stroke:#404040;stroke-width:1.2;"/><polygon fill="#404040" points="1648.16,549.0294,1649.8777,539.3315,1646.9573,544.1762,1642.1126,541.2558,1648.16,549.0294" style="stroke:#404040;stroke-width:1.2;"/><text fill="#000000" font-family="sans-serif" font-size="36" lengthAdjust="spacing" textLength="152.0684" x="1607.5" y="415.5105">subjectOf</text><text fill="#000000" font-family="sans-serif" font-size="36" lengthAdjust="spacing" textLength="20.0215" x="1625.4195" y="533.1468">1</text></g><!--link CatalogRecord to Dataset--><g class="link" data-entity-1="ent0008" data-entity-2="ent0003" data-link-type="dependency" data-source-line="53" id="lnk39"><path codeLine="53" d="M1683.52,548.8794 C1727.54,511.8694 1800.45,437.5694 1762.5,377.1394 C1707.04,288.8294 1588.3043,253.1422 1516.0543,238.7422" fill="none" id="CatalogRecord-to-Dataset" style="stroke:#404040;stroke-width:1.2;"/><polygon fill="#404040" points="1510.17,237.5694,1518.2145,243.2514,1515.0736,238.5467,1519.7783,235.4057,1510.17,237.5694" style="stroke:#404040;stroke-width:1.2;"/><text fill="#000000" font-family="sans-serif" font-size="36" lengthAdjust="spacing" textLength="90.0879" x="1774.5" y="415.5105">about</text><text fill="#000000" font-family="sans-serif" font-size="36" lengthAdjust="spacing" textLength="60.0469" x="1518.4879" y="228.6808">0..1</text></g><!--reverse link Dataset to InstanceVariable--><g class="link" data-entity-1="ent0003" data-entity-2="ent0009" data-link-type="composition" data-source-line="43" id="lnk29"><path codeLine="43" d="M1389.2332,252.6339 C884.0032,404.4139 247.5,44.6094 247.5,572.1394 C247.5,572.1394 247.5,572.1394 247.5,1264.1394 C247.5,1397.9794 355.6,1531.5194 403.32,1583.9494" fill="none" id="Dataset-backto-InstanceVariable" style="stroke:#404040;stroke-width:1.2;"/><polygon fill="#404040" points="1400.66,248.9694,1393.7251,246.9927,1389.2332,252.6339,1396.1681,254.6106,1400.66,248.9694" style="stroke:#404040;stroke-width:1.2;"/><text fill="#000000" font-family="sans-serif" font-size="36" lengthAdjust="spacing" textLength="286.1543" x="248.5" y="933.0105">variableMeasured</text><text fill="#000000" font-family="sans-serif" font-size="36" lengthAdjust="spacing" textLength="54.0352" x="340.8293" y="1568.3426">1..*</text></g><!--reverse link Dataset to PrimaryKey--><g class="link" data-entity-1="ent0003" data-entity-2="ent0018" data-link-type="composition" data-source-line="44" id="lnk30"><path codeLine="44" d="M1521.9793,232.727 C1611.9493,240.157 1778.7,267.6894 1870.5,377.1394 C1912.09,426.7294 1910.33,509.0194 1906.5,548.9594" fill="none" id="Dataset-backto-PrimaryKey" style="stroke:#404040;stroke-width:1.2;"/><polygon fill="#404040" points="1510.02,231.7394,1515.6704,236.2196,1521.9793,232.727,1516.3289,228.2468,1510.02,231.7394" style="stroke:#404040;stroke-width:1.2;"/><text fill="#000000" font-family="sans-serif" font-size="36" lengthAdjust="spacing" textLength="244.0723" x="1897.5" y="415.5105">hasPrimaryKey</text><text fill="#000000" font-family="sans-serif" font-size="36" lengthAdjust="spacing" textLength="60.0469" x="1841.8613" y="533.3543">0..1</text></g><!--reverse link Dataset to Statistics--><g class="link" data-entity-1="ent0003" data-entity-2="ent0019" data-link-type="composition" data-source-line="45" id="lnk31"><path codeLine="45" d="M1522.1544,233.8526 C1670.0144,245.2626 2060.52,283.5494 2147.5,377.1394 C2191.59,424.5794 2185.2,508.6394 2178.91,549.0994" fill="none" id="Dataset-backto-Statistics" style="stroke:#404040;stroke-width:1.2;"/><polygon fill="#404040" points="1510.19,232.9294,1515.8645,237.3792,1522.1544,233.8526,1516.48,229.4029,1510.19,232.9294" style="stroke:#404040;stroke-width:1.2;"/><text fill="#000000" font-family="sans-serif" font-size="36" lengthAdjust="spacing" textLength="138.0234" x="2173.5" y="415.5105">statistics</text><text fill="#000000" font-family="sans-serif" font-size="36" lengthAdjust="spacing" textLength="54.0352" x="2120.8867" y="533.2292">0..*</text></g><!--reverse link Dataset to DataDownload--><g class="link" data-entity-1="ent0003" data-entity-2="ent0004" data-link-type="composition" data-source-line="46" id="lnk32"><path codeLine="46" d="M1389.5866,252.5361 C1180.5266,316.8561 1053.34,208.1294 914.5,377.1394 C873.91,426.5394 886.59,508.9194 896.1,548.9194" fill="none" id="Dataset-backto-DataDownload" style="stroke:#404040;stroke-width:1.2;"/><polygon fill="#404040" points="1400.99,248.7994,1394.0427,246.8666,1389.5866,252.5361,1396.5339,254.4689,1400.99,248.7994" style="stroke:#404040;stroke-width:1.2;"/><text fill="#000000" font-family="sans-serif" font-size="36" lengthAdjust="spacing" textLength="174.0938" x="915.5" y="415.5105">distribution</text><text fill="#000000" font-family="sans-serif" font-size="36" lengthAdjust="spacing" textLength="54.0352" x="836.3807" y="533.3075">0..*</text></g><!--reverse link Dataset to WebAPI--><g class="link" data-entity-1="ent0003" data-entity-2="ent0005" data-link-type="composition" data-source-line="47" id="lnk33"><path codeLine="47" d="M1389.7152,252.9752 C1297.0552,286.9952 1128.42,351.4494 1111.5,377.1394 C1076.52,430.2794 1099.75,510.1794 1114.69,549.1394" fill="none" id="Dataset-backto-WebAPI" style="stroke:#404040;stroke-width:1.2;"/><polygon fill="#404040" points="1400.98,248.8394,1393.969,247.1524,1389.7152,252.9752,1396.7262,254.6622,1400.98,248.8394" style="stroke:#404040;stroke-width:1.2;"/><text fill="#000000" font-family="sans-serif" font-size="36" lengthAdjust="spacing" textLength="174.0938" x="1112.5" y="415.5105">distribution</text><text fill="#000000" font-family="sans-serif" font-size="36" lengthAdjust="spacing" textLength="54.0352" x="1054.1329" y="533.2764">0..*</text></g><!--reverse link DataDownload to AbstractMapping--><g class="link" data-entity-1="ent0004" data-entity-2="ent0010" data-link-type="composition" data-source-line="48" id="lnk34"><path codeLine="48" d="M953.0524,603.7344 C992.4424,628.8144 1039.89,666.3894 1065.5,722.1394 C1087.26,769.4894 1082.54,1141.6294 1080.92,1238.9294" fill="none" id="DataDownload-backto-AbstractMapping" style="stroke:#404040;stroke-width:1.2;"/><polygon fill="#404040" points="942.93,597.2894,945.8428,603.886,953.0524,603.7344,950.1395,597.1378,942.93,597.2894" style="stroke:#404040;stroke-width:1.2;"/><text fill="#000000" font-family="sans-serif" font-size="36" lengthAdjust="spacing" textLength="330.1875" x="1083.5" y="933.0105">hasPhysicalMapping</text><text fill="#000000" font-family="sans-serif" font-size="36" lengthAdjust="spacing" textLength="54.0352" x="1022.3445" y="1223.3192">0..*</text></g><!--reverse link DataDownload to AbstractDataSet--><g class="link" data-entity-1="ent0004" data-entity-2="ent0014" data-link-type="aggregation" data-source-line="49" id="lnk35"><path codeLine="49" d="M833.3611,602.3524 C782.7711,625.7824 723.08,662.1094 687.5,722.1394 C655.14,776.7394 659.31,855.2794 663.97,893.8994" fill="none" id="DataDownload-backto-AbstractDataSet" style="stroke:#404040;stroke-width:1.2;"/><polygon fill="none" points="844.25,597.3094,837.1245,596.2013,833.3611,602.3524,840.4866,603.4605,844.25,597.3094" style="stroke:#404040;stroke-width:1.2;"/><text fill="#000000" font-family="sans-serif" font-size="36" lengthAdjust="spacing" textLength="208.1074" x="688.5" y="760.5105">alsoTypedAs</text><text fill="#000000" font-family="sans-serif" font-size="36" lengthAdjust="spacing" textLength="60.0469" x="598.1735" y="878.284">0..1</text></g><!--reverse link DataDownload to DataFingerprint--><g class="link" data-entity-1="ent0004" data-entity-2="ent0017" data-link-type="composition" data-source-line="50" id="lnk36"><path codeLine="50" d="M902.208,609.249 C901.928,645.769 901.66,707.0194 902.5,769.1394 C903.1,813.3494 904.7,864.9594 905.68,894.0694" fill="none" id="DataDownload-backto-DataFingerprint" style="stroke:#404040;stroke-width:1.2;"/><polygon fill="#404040" points="902.3,597.2494,898.2541,603.2185,902.208,609.249,906.2539,603.2799,902.3,597.2494" style="stroke:#404040;stroke-width:1.2;"/><text fill="#000000" font-family="sans-serif" font-size="36" lengthAdjust="spacing" textLength="160.084" x="903.5" y="760.5105">fingerprint</text><text fill="#000000" font-family="sans-serif" font-size="36" lengthAdjust="spacing" textLength="60.0469" x="840.2155" y="878.1939">0..1</text></g><!--reverse link WebAPI to ActionResult--><g class="link" data-entity-1="ent0005" data-entity-2="ent0006" data-link-type="composition" data-source-line="51" id="lnk37"><path codeLine="51" d="M1160.0906,605.0474 C1231.9606,667.4574 1420.79,831.4194 1492.83,893.9794" fill="none" id="WebAPI-backto-ActionResult" style="stroke:#404040;stroke-width:1.2;"/><polygon fill="#404040" points="1151.03,597.1794,1152.9376,604.1336,1160.0906,605.0474,1158.183,598.0932,1151.03,597.1794" style="stroke:#404040;stroke-width:1.2;"/><text fill="#000000" font-family="sans-serif" font-size="36" lengthAdjust="spacing" textLength="338.2031" x="1347.5" y="760.5105">potentialActionResult</text><text fill="#000000" font-family="sans-serif" font-size="36" lengthAdjust="spacing" textLength="54.0352" x="1429.2364" y="878.0879">0..*</text></g><!--reverse link ActionResult to AbstractMapping--><g class="link" data-entity-1="ent0006" data-entity-2="ent0010" data-link-type="composition" data-source-line="52" id="lnk38"><path codeLine="52" d="M1480.5544,949.568 C1400.6844,1011.978 1190.21,1176.4194 1110.15,1238.9794" fill="none" id="ActionResult-backto-AbstractMapping" style="stroke:#404040;stroke-width:1.2;"/><polygon fill="#404040" points="1490.01,942.1794,1482.8193,942.7218,1480.5544,949.568,1487.745,949.0255,1490.01,942.1794" style="stroke:#404040;stroke-width:1.2;"/><text fill="#000000" font-family="sans-serif" font-size="36" lengthAdjust="spacing" textLength="330.1875" x="1327.5" y="1105.5105">hasPhysicalMapping</text><text fill="#000000" font-family="sans-serif" font-size="36" lengthAdjust="spacing" textLength="54.0352" x="1120.2335" y="1223.0879">0..*</text></g><!--link InstanceVariable to SubstantiveValueDomain--><g class="link" data-entity-1="ent0009" data-entity-2="ent0020" data-link-type="dependency" data-source-line="54" id="lnk40"><path codeLine="54" d="M348.4,1632.2394 C290.27,1654.1594 214.6,1693.4194 178.5,1757.1394 C147.38,1812.0694 160.0892,1884.6527 170.1092,1923.1627" fill="none" id="InstanceVariable-to-SubstantiveValueDomain" style="stroke:#404040;stroke-width:1.2;"/><polygon fill="#404040" points="171.62,1928.9694,173.2248,1919.2521,170.361,1924.1305,165.4826,1921.2666,171.62,1928.9694" style="stroke:#404040;stroke-width:1.2;"/><text fill="#000000" font-family="sans-serif" font-size="36" lengthAdjust="spacing" textLength="468.2285" x="179.5" y="1795.5105">takesSubstantiveValuesFrom</text><text fill="#000000" font-family="sans-serif" font-size="36" lengthAdjust="spacing" textLength="60.0469" x="105.2964" y="1913.3661">0..1</text></g><!--link InstanceVariable to SentinelValueDomain--><g class="link" data-entity-1="ent0009" data-entity-2="ent0021" data-link-type="dependency" data-source-line="55" id="lnk41"><path codeLine="55" d="M486.61,1632.1794 C539.03,1655.3594 611.88,1696.4194 649.5,1757.1394 C683.09,1811.3594 681.0205,1884.4495 677.1305,1923.1195" fill="none" id="InstanceVariable-to-SentinelValueDomain" style="stroke:#404040;stroke-width:1.2;"/><polygon fill="#404040" points="676.53,1929.0894,681.4107,1920.5349,677.0304,1924.1145,673.4509,1919.7342,676.53,1929.0894" style="stroke:#404040;stroke-width:1.2;"/><text fill="#000000" font-family="sans-serif" font-size="36" lengthAdjust="spacing" textLength="410.2031" x="669.5" y="1795.5105">takesSentinelValuesFrom</text><text fill="#000000" font-family="sans-serif" font-size="36" lengthAdjust="spacing" textLength="54.0352" x="618.3066" y="1913.2175">0..*</text></g><!--link AbstractMapping to InstanceVariable--><g class="link" data-entity-1="ent0010" data-entity-2="ent0009" data-link-type="dependency" data-source-line="56" id="lnk42"><path codeLine="56" d="M1036.51,1287.1794 C917.33,1349.5894 594.5053,1518.6358 475.0453,1581.1958" fill="none" id="AbstractMapping-to-InstanceVariable" style="stroke:#404040;stroke-width:1.2;"/><polygon fill="#404040" points="469.73,1583.9794,479.5586,1583.3476,474.1594,1581.6598,475.8472,1576.2606,469.73,1583.9794" style="stroke:#404040;stroke-width:1.2;"/><text fill="#000000" font-family="sans-serif" font-size="36" lengthAdjust="spacing" textLength="120.0234" x="793.5" y="1450.5105">formats</text><text fill="#000000" font-family="sans-serif" font-size="36" lengthAdjust="spacing" textLength="20.0215" x="455.7867" y="1568.0879">1</text></g><?plantuml-src bLNBRjim4BphAmZb5i21dJGz24K1nxQAe0qQ945xNb7hc3L52YHbrtq0_OX-OR-arCkcI0L5uOiuExixImvfmmn7icIQoXsgmn8CB55JnKh3f21_VlqcTM37S1zjM8w4CaKvjjzObEP02YmoL3hIMoPAK50GlO5Sxfbu9clW6ft8N2cvVzemkXMeDPbTN3f11MAhiIINrrC75JB71dN17DTGSPDAOHxPDoHNhvqWvM1hVuz8ssuXkLJaxDMq_bdmHgeSbO-wfMoYCOfbbS4JF8r-HX5asYYWfkiHBsHHIiqCtYkvPXnZ0fhu83bBL-bgiOgwf7gJDPg6stsFKPPoBxY4_CZh0P_y6RFv_Mr3QpyjOP5UBTAUCAVrOJwWjblMq5p09rlHkpg-O-RGa5t0RxsmihXyVa1gDxKTtaLy-gtG1WJ5Jw0OPDrs-U1HaB_Pysvz1sLfpTLECiI2OJO7pIXmDyN3_9Gd_3heuAnzwWT9mKZbieVGFqUfZ_MniuA71ReWgpYeMewR5S9-ugDH5JMLmjpD2r0_hOPJEmEgKZ5nSgk3XTPX1QZ3U-oDqoyjSRwwNbwT985XsZ2gEotzCj1UPRKvhFciFNY5Ira04stIQ2WeW9OXa0VP8NvCzJtrviTauhjcdEHuPPmmj4Va7tbR93ZHSLvmWb7_c4mcRqaylRWuZuUNDo5xqEzGe0A3-SrXc32BlSkR45rbNv2QZ-iZyzmsZcTDwU3U9cJNVTuXw5hOCCqgciMkAnAo0NrQ1spRnB66bNDSZ547JsH2Sijitd3xqetHkwToX7Wiuh3zqsobUvuO9ClJoFxn9SJ-BSgdGudvN8-tdCN1PKl8-hIAElckHFTHJqWfJUrnu2uU3KZ_Ez_G7htBEgcw7IoJbOa2QpZS5-vjGWniKVjHdIfPl5olTiZ8JUwBkQ6saZzdx_mHCw-bAi3ew2y0?></g></svg>