<svg xmlns="http://www.w3.org/2000/svg" xmlns:xlink="http://www.w3.org/1999/xlink" contentStyleType="text/css" data-diagram-type="CLASS" height="457px" preserveAspectRatio="none" style="width:1378px;height:457px;background:#FFFFFF;" version="1.1" viewBox="0 0 1378 457" width="1378px" zoomAndPan="magnify"><?plantuml 1.2026.3?><defs/><g><g class="title" data-source-line="1"><text fill="#000000" font-family="sans-serif" font-size="14" font-weight="700" lengthAdjust="spacing" textLength="50.5791" x="660.6509" y="24.5332">Dataset</text></g><!--class Dataset--><g class="entity" data-qualified-name="Dataset" data-source-line="12" id="ent0002"><rect fill="#FEFECE" height="279.625" rx="2.5" ry="2.5" style="stroke:#404040;stroke-width:0.5;" width="260.2197" x="540" y="45.6094"/><text fill="#000000" font-family="sans-serif" font-size="12" lengthAdjust="spacing" textLength="41.3555" x="649.4321" y="63.0664">Dataset</text><line style="stroke:#404040;stroke-width:0.5;" x1="541" x2="799.2197" y1="70.7031" y2="70.7031"/><g data-visibility-modifier="PUBLIC_FIELD"><ellipse cx="551" cy="85.0078" fill="none" rx="3" ry="3" style="stroke:#038048;stroke-width:1;"/></g><text fill="#000000" font-family="sans-serif" font-size="14" lengthAdjust="spacing" textLength="150.1719" x="560" y="89.2363">identifier : XsdAnyUri [1]</text><g data-visibility-modifier="PUBLIC_FIELD"><ellipse cx="551" cy="102.6172" fill="none" rx="3" ry="3" style="stroke:#038048;stroke-width:1;"/></g><text fill="#000000" font-family="sans-serif" font-size="14" lengthAdjust="spacing" textLength="100.3789" x="560" y="106.8457">name : string [1]</text><g data-visibility-modifier="PUBLIC_FIELD"><ellipse cx="551" cy="120.2266" fill="none" rx="3" ry="3" style="stroke:#038048;stroke-width:1;"/></g><text fill="#000000" font-family="sans-serif" font-size="14" lengthAdjust="spacing" textLength="148.627" x="560" y="124.4551">description : string [0..1]</text><g data-visibility-modifier="PUBLIC_FIELD"><ellipse cx="551" cy="137.8359" fill="none" rx="3" ry="3" style="stroke:#038048;stroke-width:1;"/></g><text fill="#000000" font-family="sans-serif" font-size="14" lengthAdjust="spacing" textLength="169.6475" x="560" y="142.0645">additionalType : string [0..*]</text><g data-visibility-modifier="PUBLIC_FIELD"><ellipse cx="551" cy="155.4453" fill="none" rx="3" ry="3" style="stroke:#038048;stroke-width:1;"/></g><text fill="#000000" font-family="sans-serif" font-size="14" lengthAdjust="spacing" textLength="161.0547" x="560" y="159.6738">sameAs : XsdAnyUri [0..*]</text><g data-visibility-modifier="PUBLIC_FIELD"><ellipse cx="551" cy="173.0547" fill="none" rx="3" ry="3" style="stroke:#038048;stroke-width:1;"/></g><text fill="#000000" font-family="sans-serif" font-size="14" lengthAdjust="spacing" textLength="126.0547" x="560" y="177.2832">version : string [0..1]</text><g data-visibility-modifier="PUBLIC_FIELD"><ellipse cx="551" cy="190.6641" fill="none" rx="3" ry="3" style="stroke:#038048;stroke-width:1;"/></g><text fill="#000000" font-family="sans-serif" font-size="14" lengthAdjust="spacing" textLength="206.2881" x="560" y="194.8926">inLanguage : XsdLanguage [0..1]</text><g data-visibility-modifier="PUBLIC_FIELD"><ellipse cx="551" cy="208.2734" fill="none" rx="3" ry="3" style="stroke:#038048;stroke-width:1;"/></g><text fill="#000000" font-family="sans-serif" font-size="14" lengthAdjust="spacing" textLength="164.9854" x="560" y="212.502">dateModified : XsdDate [1]</text><g data-visibility-modifier="PUBLIC_FIELD"><ellipse cx="551" cy="225.8828" fill="none" rx="3" ry="3" style="stroke:#038048;stroke-width:1;"/></g><text fill="#000000" font-family="sans-serif" font-size="14" lengthAdjust="spacing" textLength="189.123" x="560" y="230.1113">datePublished : XsdDate [0..1]</text><g data-visibility-modifier="PUBLIC_FIELD"><ellipse cx="551" cy="243.4922" fill="none" rx="3" ry="3" style="stroke:#038048;stroke-width:1;"/></g><text fill="#000000" font-family="sans-serif" font-size="14" lengthAdjust="spacing" textLength="128.3789" x="560" y="247.7207">url : XsdAnyUri [0..1]</text><g data-visibility-modifier="PUBLIC_FIELD"><ellipse cx="551" cy="261.1016" fill="none" rx="3" ry="3" style="stroke:#038048;stroke-width:1;"/></g><text fill="#000000" font-family="sans-serif" font-size="14" lengthAdjust="spacing" textLength="154.0615" x="560" y="265.3301">license : XsdAnyUri [0..*]</text><g data-visibility-modifier="PUBLIC_FIELD"><ellipse cx="551" cy="278.7109" fill="none" rx="3" ry="3" style="stroke:#038048;stroke-width:1;"/></g><text fill="#000000" font-family="sans-serif" font-size="14" lengthAdjust="spacing" textLength="201.5303" x="560" y="282.9395">conditionsOfAccess : string [0..*]</text><g data-visibility-modifier="PUBLIC_FIELD"><ellipse cx="551" cy="296.3203" fill="none" rx="3" ry="3" style="stroke:#038048;stroke-width:1;"/></g><text fill="#000000" font-family="sans-serif" font-size="14" lengthAdjust="spacing" textLength="234.2197" x="560" y="300.5488">publishingPrinciples : XsdAnyUri [0..*]</text><g data-visibility-modifier="PUBLIC_FIELD"><ellipse cx="551" cy="313.9297" fill="none" rx="3" ry="3" style="stroke:#038048;stroke-width:1;"/></g><text fill="#000000" font-family="sans-serif" font-size="14" lengthAdjust="spacing" textLength="137.7168" x="560" y="318.1582">keywords : string [0..*]</text></g><!--class AbstractDistribution--><g class="entity" data-qualified-name="AbstractDistribution" data-source-line="28" id="ent0003"><rect fill="#EEEEEE" height="25.0938" rx="2.5" ry="2.5" style="stroke:#404040;stroke-width:0.5;" width="110.0391" x="7" y="411.1094"/><text fill="#000000" font-family="sans-serif" font-size="12" font-style="italic" lengthAdjust="spacing" textLength="104.0391" x="10" y="428.5664">AbstractDistribution</text></g><!--class Agent--><g class="entity" data-qualified-name="Agent" data-source-line="30" id="ent0005"><rect fill="#EEEEEE" height="25.0938" rx="2.5" ry="2.5" style="stroke:#404040;stroke-width:0.5;" width="37.3594" x="191.5" y="411.1094"/><text fill="#000000" font-family="sans-serif" font-size="12" font-style="italic" lengthAdjust="spacing" textLength="31.3594" x="194.5" y="428.5664">Agent</text></g><!--class Contributor--><g class="entity" data-qualified-name="Contributor" data-source-line="32" id="ent0007"><rect fill="#EEEEEE" height="25.0938" rx="2.5" ry="2.5" style="stroke:#404040;stroke-width:0.5;" width="65.3613" x="301.5" y="411.1094"/><text fill="#000000" font-family="sans-serif" font-size="12" lengthAdjust="spacing" textLength="59.3613" x="304.5" y="428.5664">Contributor</text></g><!--class MonetaryGrant--><g class="entity" data-qualified-name="MonetaryGrant" data-source-line="35" id="ent0010"><rect fill="#EEEEEE" height="25.0938" rx="2.5" ry="2.5" style="stroke:#404040;stroke-width:0.5;" width="86.0332" x="402" y="411.1094"/><text fill="#000000" font-family="sans-serif" font-size="12" lengthAdjust="spacing" textLength="80.0332" x="405" y="428.5664">MonetaryGrant</text></g><!--class ProvActivity--><g class="entity" data-qualified-name="ProvActivity" data-source-line="37" id="ent0012"><rect fill="#EEEEEE" height="25.0938" rx="2.5" ry="2.5" style="stroke:#404040;stroke-width:0.5;" width="68.6777" x="523.5" y="411.1094"/><text fill="#000000" font-family="sans-serif" font-size="12" lengthAdjust="spacing" textLength="62.6777" x="526.5" y="428.5664">ProvActivity</text></g><!--class DerivedFrom--><g class="entity" data-qualified-name="DerivedFrom" data-source-line="39" id="ent0014"><rect fill="#EEEEEE" height="25.0938" rx="2.5" ry="2.5" style="stroke:#404040;stroke-width:0.5;" width="75.3457" x="632.5" y="411.1094"/><text fill="#000000" font-family="sans-serif" font-size="12" lengthAdjust="spacing" textLength="69.3457" x="635.5" y="428.5664">DerivedFrom</text></g><!--class CatalogRecord--><g class="entity" data-qualified-name="CatalogRecord" data-source-line="41" id="ent0016"><rect fill="#EEEEEE" height="25.0938" rx="2.5" ry="2.5" style="stroke:#404040;stroke-width:0.5;" width="86.0449" x="745" y="411.1094"/><text fill="#000000" font-family="sans-serif" font-size="12" lengthAdjust="spacing" textLength="80.0449" x="748" y="428.5664">CatalogRecord</text></g><!--class DefinedTerm--><g class="entity" data-qualified-name="DefinedTerm" data-source-line="43" id="ent0018"><rect fill="#EEEEEE" height="25.0938" rx="2.5" ry="2.5" style="stroke:#404040;stroke-width:0.5;" width="75.3574" x="866.5" y="411.1094"/><text fill="#000000" font-family="sans-serif" font-size="12" lengthAdjust="spacing" textLength="69.3574" x="869.5" y="428.5664">DefinedTerm</text></g><!--class LabeledLink--><g class="entity" data-qualified-name="LabeledLink" data-source-line="45" id="ent0020"><rect fill="#EEEEEE" height="25.0938" rx="2.5" ry="2.5" style="stroke:#404040;stroke-width:0.5;" width="70.7227" x="976.5" y="411.1094"/><text fill="#000000" font-family="sans-serif" font-size="12" lengthAdjust="spacing" textLength="64.7227" x="979.5" y="428.5664">LabeledLink</text></g><!--class XsdAnyUri--><g class="entity" data-qualified-name="XsdAnyUri" data-source-line="47" id="ent0022"><rect fill="#FAE5D3" height="40.1875" rx="2.5" ry="2.5" style="stroke:#404040;stroke-width:0.5;" width="65.3809" x="1082.5" y="403.6094"/><text fill="#000000" font-family="sans-serif" font-size="12" font-style="italic" lengthAdjust="spacing" textLength="63.3809" x="1083.5" y="421.0664">&#171;dataType&#187;</text><text fill="#000000" font-family="sans-serif" font-size="12" lengthAdjust="spacing" textLength="56.6836" x="1086.8486" y="436.1602">XsdAnyUri</text></g><!--class XsdLanguage--><g class="entity" data-qualified-name="XsdLanguage" data-source-line="49" id="ent0024"><rect fill="#FAE5D3" height="40.1875" rx="2.5" ry="2.5" style="stroke:#404040;stroke-width:0.5;" width="80.0684" x="1183" y="403.6094"/><text fill="#000000" font-family="sans-serif" font-size="12" font-style="italic" lengthAdjust="spacing" textLength="63.3809" x="1191.3438" y="421.0664">&#171;dataType&#187;</text><text fill="#000000" font-family="sans-serif" font-size="12" lengthAdjust="spacing" textLength="74.0684" x="1186" y="436.1602">XsdLanguage</text></g><!--class XsdDate--><g class="entity" data-qualified-name="XsdDate" data-source-line="51" id="ent0026"><rect fill="#FAE5D3" height="40.1875" rx="2.5" ry="2.5" style="stroke:#404040;stroke-width:0.5;" width="65.3809" x="1298.5" y="403.6094"/><text fill="#000000" font-family="sans-serif" font-size="12" font-style="italic" lengthAdjust="spacing" textLength="63.3809" x="1299.5" y="421.0664">&#171;dataType&#187;</text><text fill="#000000" font-family="sans-serif" font-size="12" lengthAdjust="spacing" textLength="46.0254" x="1308.1777" y="436.1602">XsdDate</text></g><!--link Dataset to AbstractDistribution--><g class="link" data-entity-1="ent0002" data-entity-2="ent0003" data-link-type="dependency" data-source-line="29" id="lnk4"><path codeLine="29" d="M539.81,191.5094 C409.6,203.1794 211.29,240.3094 87,355.6094 C71.16,370.2994 66.143,390.0289 64.023,404.9689" fill="none" id="Dataset-to-AbstractDistribution" style="stroke:#404040;stroke-width:1.2;"/><polygon fill="#404040" points="63.18,410.9094,68.4048,402.5606,63.8825,405.959,60.4841,401.4367,63.18,410.9094" style="stroke:#404040;stroke-width:1.2;"/><text fill="#000000" font-family="sans-serif" font-size="13" lengthAdjust="spacing" textLength="62.8672" x="88" y="370.1045">distribution</text><text fill="#000000" font-family="sans-serif" font-size="13" lengthAdjust="spacing" textLength="19.5127" x="40.9972" y="400.3046">0..*</text></g><!--link Dataset to Agent--><g class="link" data-entity-1="ent0002" data-entity-2="ent0005" data-link-type="dependency" data-source-line="31" id="lnk6"><path codeLine="31" d="M539.96,189.8094 C420.11,200.5294 248.31,237.2494 163,355.6094 C149.13,374.8594 168.4906,393.99 187.0206,407.41" fill="none" id="Dataset-to-Agent" style="stroke:#404040;stroke-width:1.2;"/><polygon fill="#404040" points="191.88,410.9294,186.9371,402.4107,187.8305,407.9966,182.2446,408.89,191.88,410.9294" style="stroke:#404040;stroke-width:1.2;"/><text fill="#000000" font-family="sans-serif" font-size="13" lengthAdjust="spacing" textLength="40.46" x="164" y="370.1045">creator</text><text fill="#000000" font-family="sans-serif" font-size="13" lengthAdjust="spacing" textLength="19.5127" x="164.1006" y="401.8738">0..*</text></g><!--link Dataset to Agent--><g class="link" data-entity-1="ent0002" data-entity-2="ent0005" data-link-type="dependency" data-source-line="34" id="lnk9"><path codeLine="34" d="M539.85,250.5894 C477.08,281.7794 400.86,320.1294 333,355.6094 C295.72,375.0994 257.9039,395.9337 233.8939,409.2837" fill="none" id="Dataset-to-Agent-1" style="stroke:#404040;stroke-width:1.2;"/><polygon fill="#404040" points="228.65,412.1994,238.4597,411.3217,233.0199,409.7696,234.5721,404.3299,228.65,412.1994" style="stroke:#404040;stroke-width:1.2;"/><text fill="#000000" font-family="sans-serif" font-size="13" lengthAdjust="spacing" textLength="52.7554" x="334" y="370.1045">publisher</text><text fill="#000000" font-family="sans-serif" font-size="13" lengthAdjust="spacing" textLength="21.6836" x="236.894" y="404.2717">0..1</text></g><!--link Dataset to Contributor--><g class="link" data-entity-1="ent0002" data-entity-2="ent0007" data-link-type="dependency" data-source-line="33" id="lnk8"><path codeLine="33" d="M539.74,270.9994 C500.17,297.4294 456.89,327.1294 418,355.6094 C392.56,374.2294 368.713,393.6327 352.313,407.2727" fill="none" id="Dataset-to-Contributor" style="stroke:#404040;stroke-width:1.2;"/><polygon fill="#404040" points="347.7,411.1094,357.1773,408.4297,351.5442,407.9121,352.0617,402.279,347.7,411.1094" style="stroke:#404040;stroke-width:1.2;"/><text fill="#000000" font-family="sans-serif" font-size="13" lengthAdjust="spacing" textLength="61.4199" x="419" y="370.1045">contributor</text><text fill="#000000" font-family="sans-serif" font-size="13" lengthAdjust="spacing" textLength="19.5127" x="330.4637" y="400.2014">0..*</text></g><!--link Dataset to MonetaryGrant--><g class="link" data-entity-1="ent0002" data-entity-2="ent0010" data-link-type="dependency" data-source-line="36" id="lnk11"><path codeLine="36" d="M539.67,316.7994 C527.16,329.7994 514.76,342.8894 503,355.6094 C485.45,374.5794 469.8018,392.909 458.4818,406.429" fill="none" id="Dataset-to-MonetaryGrant" style="stroke:#404040;stroke-width:1.2;"/><polygon fill="#404040" points="454.63,411.0294,463.4746,406.6967,457.8398,407.1957,457.3408,401.5609,454.63,411.0294" style="stroke:#404040;stroke-width:1.2;"/><text fill="#000000" font-family="sans-serif" font-size="13" lengthAdjust="spacing" textLength="42.6499" x="504" y="370.1045">funding</text><text fill="#000000" font-family="sans-serif" font-size="13" lengthAdjust="spacing" textLength="19.5127" x="435.7825" y="400.0884">0..*</text></g><!--link Dataset to ProvActivity--><g class="link" data-entity-1="ent0002" data-entity-2="ent0012" data-link-type="dependency" data-source-line="38" id="lnk13"><path codeLine="38" d="M569.15,326.0494 C564.79,335.7694 561,345.6694 558,355.6094 C552.36,374.3194 553.2984,391.3859 555.1784,404.9859" fill="none" id="Dataset-to-ProvActivity" style="stroke:#404040;stroke-width:1.2;"/><polygon fill="#404040" points="556,410.9294,558.7299,401.4664,555.3153,405.9765,550.8053,402.5619,556,410.9294" style="stroke:#404040;stroke-width:1.2;"/><text fill="#000000" font-family="sans-serif" font-size="13" lengthAdjust="spacing" textLength="99.7217" x="559" y="370.1045">wasGeneratedBy</text><text fill="#000000" font-family="sans-serif" font-size="13" lengthAdjust="spacing" textLength="19.5127" x="532.6363" y="400.3325">0..*</text></g><!--link Dataset to DerivedFrom--><g class="link" data-entity-1="ent0002" data-entity-2="ent0014" data-link-type="dependency" data-source-line="40" id="lnk15"><path codeLine="40" d="M666.33,325.7494 C666.33,341.8894 666.53,358.1094 667,373.6094 C667.39,386.3894 667.9101,395.0255 668.6401,404.9555" fill="none" id="Dataset-to-DerivedFrom" style="stroke:#404040;stroke-width:1.2;"/><polygon fill="#404040" points="669.08,410.9394,672.4094,401.6703,668.7134,405.9528,664.4309,402.2569,669.08,410.9394" style="stroke:#404040;stroke-width:1.2;"/><text fill="#000000" font-family="sans-serif" font-size="13" lengthAdjust="spacing" textLength="98.2427" x="668" y="370.1045">wasDerivedFrom</text><text fill="#000000" font-family="sans-serif" font-size="13" lengthAdjust="spacing" textLength="19.5127" x="646.01" y="400.3464">0..*</text></g><!--link Dataset to CatalogRecord--><g class="link" data-entity-1="ent0002" data-entity-2="ent0016" data-link-type="dependency" data-source-line="42" id="lnk17"><path codeLine="42" d="M757.26,325.6194 C762.23,335.6094 766.87,345.6694 771,355.6094 C778.73,374.2294 782.5743,391.3648 785.0343,404.9948" fill="none" id="Dataset-to-CatalogRecord" style="stroke:#404040;stroke-width:1.2;"/><polygon fill="#404040" points="786.1,410.8994,788.4379,401.332,785.2119,405.9789,780.5651,402.7529,786.1,410.8994" style="stroke:#404040;stroke-width:1.2;"/><text fill="#000000" font-family="sans-serif" font-size="13" lengthAdjust="spacing" textLength="54.9136" x="779" y="370.1045">subjectOf</text><text fill="#000000" font-family="sans-serif" font-size="13" lengthAdjust="spacing" textLength="7.23" x="777.0102" y="400.2907">1</text></g><!--link Dataset to DefinedTerm--><g class="link" data-entity-1="ent0002" data-entity-2="ent0018" data-link-type="dependency" data-source-line="44" id="lnk19"><path codeLine="44" d="M800.26,313.2994 C814.44,327.4794 828.59,341.7894 842,355.6094 C860.54,374.7194 877.4275,393.1475 889.6075,406.6275" fill="none" id="Dataset-to-DefinedTerm" style="stroke:#404040;stroke-width:1.2;"/><polygon fill="#404040" points="893.63,411.0794,890.5641,401.7199,890.2779,407.3695,884.6283,407.0833,893.63,411.0794" style="stroke:#404040;stroke-width:1.2;"/><text fill="#000000" font-family="sans-serif" font-size="13" lengthAdjust="spacing" textLength="54.9072" x="859" y="370.1045">keywords</text><text fill="#000000" font-family="sans-serif" font-size="13" lengthAdjust="spacing" textLength="19.5127" x="866.4657" y="400.159">0..*</text></g><!--link Dataset to LabeledLink--><g class="link" data-entity-1="ent0002" data-entity-2="ent0020" data-link-type="dependency" data-source-line="46" id="lnk21"><path codeLine="46" d="M800,272.0294 C839.46,298.4194 882.75,327.8594 922,355.6094 C948.72,374.4994 974.3608,393.8087 992.1108,407.3587" fill="none" id="Dataset-to-LabeledLink" style="stroke:#404040;stroke-width:1.2;"/><polygon fill="#404040" points="996.88,410.9994,992.1533,402.3588,992.9057,407.9654,987.2991,408.7178,996.88,410.9994" style="stroke:#404040;stroke-width:1.2;"/><text fill="#000000" font-family="sans-serif" font-size="13" lengthAdjust="spacing" textLength="40.4663" x="946" y="370.1045">license</text><text fill="#000000" font-family="sans-serif" font-size="13" lengthAdjust="spacing" textLength="19.5127" x="967.8872" y="400.046">0..*</text></g><!--link Dataset to XsdAnyUri--><g class="link" data-entity-1="ent0002" data-entity-2="ent0022" data-link-type="dependency" data-source-line="48" id="lnk23"><path codeLine="48" d="M800.15,253.1694 C859.75,283.9294 931.18,321.2094 995,355.6094 C1024.72,371.6294 1053.0268,387.4567 1077.0668,401.0467" fill="none" id="Dataset-to-XsdAnyUri" style="stroke:#404040;stroke-width:1.2;stroke-dasharray:7,7;"/><polygon fill="#404040" points="1082.29,403.9994,1076.4237,396.0882,1077.9374,401.5388,1072.4868,403.0524,1082.29,403.9994" style="stroke:#404040;stroke-width:1.2;"/><text fill="#000000" font-family="sans-serif" font-size="13" lengthAdjust="spacing" textLength="49.1372" x="1026" y="370.1045">identifier</text></g><!--link Dataset to XsdLanguage--><g class="link" data-entity-1="ent0002" data-entity-2="ent0024" data-link-type="dependency" data-source-line="50" id="lnk25"><path codeLine="50" d="M800,237.2894 C882,269.8494 989.83,313.7394 1084,355.6094 C1118.51,370.9594 1151.8046,387.0539 1179.5746,400.8239" fill="none" id="Dataset-to-XsdLanguage" style="stroke:#404040;stroke-width:1.2;stroke-dasharray:7,7;"/><polygon fill="#404040" points="1184.95,403.4894,1178.6638,395.9076,1180.4705,401.2682,1175.1099,403.0748,1184.95,403.4894" style="stroke:#404040;stroke-width:1.2;"/><text fill="#000000" font-family="sans-serif" font-size="13" lengthAdjust="spacing" textLength="67.958" x="1124" y="370.1045">inLanguage</text></g><!--link Dataset to XsdDate--><g class="link" data-entity-1="ent0002" data-entity-2="ent0026" data-link-type="dependency" data-source-line="52" id="lnk27"><path codeLine="52" d="M800.09,221.6194 C908.7,252.3794 1066.72,300.7094 1200,355.6094 C1234.48,369.8094 1266.9862,386.7116 1293.0762,401.1016" fill="none" id="Dataset-to-XsdDate" style="stroke:#404040;stroke-width:1.2;stroke-dasharray:7,7;"/><polygon fill="#404040" points="1298.33,403.9994,1292.3811,396.1502,1293.9518,401.5846,1288.5174,403.1553,1298.33,403.9994" style="stroke:#404040;stroke-width:1.2;"/><text fill="#000000" font-family="sans-serif" font-size="13" lengthAdjust="spacing" textLength="74.439" x="1237" y="370.1045">dateModified</text></g><?plantuml-src ZPHDRzim38Rl_XL2SjlGeEcsYr44SFFHIue6MmOC67QG9ThHOak692VmXlxtIVANl2H6auj9ldv8MIGrqncW5TPOWGuEZ08YJ98CwcV82rsX7F8Of0hKaV42IvmZTS1Kd1bFKO8p1LuaabASzmT6ZXoKGlFPWnSa6JQ-lm6gPKkH2Occd-_jtpYVXAGW__Tk1DVVs1z0yuVWBGXgngGfUOAmQij7qyrwirwkNOAFfdokMS90eX3zK3JYrNV9qC_vBnlbE0VZLrhQGpHE2ef8LcWck1UxdytgCAQKsHZEzbK1GyK7fr266gbXlYvuCf_m1fdnBUPfYLEet-siNaAnXXT1xO5eBJAdXgvoyxmhuuofmp3SlL_AxAAkEf8n0bp1ZQg9uFMfrMiI4MBlzCh1YpgtSUvCXB0YWrkVuGZLsTpp9UOjmB7nOAARFfb4ZRrYLXcNjWntuTS2QBfslw3jXhkx1PfOzEIwFaJKCo-JfwP_wcpsQHJl124Y4h0MictHfMbSXnVISJnxZERB3BEtBiJpFdLp0T0bVn4SD9RLiyJDCGQUiGA6mX0bfMa1dhRadHIdY6XsOhfoODynnXteGdJ6wXauIDEdzAdgvXeaEm7TI97NiztROsnVvj2UexiFyrecqgz0JF_LD-9xhkFDDnwgJDkMyMyW-ZNfQquO1xe7sTRSsUCrzx8GjNFHGhSuXWpebl6ZWths6DINXQYPxPRPpQCZzjFv-6WM2BPRRR4mMpHQVrbzwk2psSAJXgXVh1wstLWjkDjWxq5xow_VX1xShh8MxDRQUw1EQ6RSsvl1Fm00?></g></svg>