<svg xmlns="http://www.w3.org/2000/svg" xmlns:xlink="http://www.w3.org/1999/xlink" contentStyleType="text/css" data-diagram-type="CLASS" height="695px" preserveAspectRatio="none" style="width:5178px;height:695px;background:#FFFFFF;" version="1.1" viewBox="0 0 5178 695" width="5178px" zoomAndPan="magnify"><?plantuml 1.2026.3?><defs/><g><g class="title" data-source-line="1"><text fill="#000000" font-family="sans-serif" font-size="14" font-weight="700" lengthAdjust="spacing" textLength="181.2549" x="2494.9288" y="24.5332">ControlledVocabularyEntry</text></g><!--class ControlledVocabularyEntry--><g class="entity" data-qualified-name="ControlledVocabularyEntry" data-source-line="16" id="ent0002"><rect fill="#FAE5D3" height="289.6875" rx="2.5" ry="2.5" style="stroke:#404040;stroke-width:0.5;" width="471.5596" x="2003.97" y="390.6094"/><text fill="#000000" font-family="sans-serif" font-size="36" font-style="italic" lengthAdjust="spacing" textLength="190.1426" x="2144.6785" y="432.9805">&#171;dataType&#187;</text><text fill="#000000" font-family="sans-serif" font-size="30" lengthAdjust="spacing" textLength="356.8506" x="2061.3245" y="472.0332">ControlledVocabularyEntry</text><line style="stroke:#404040;stroke-width:0.5;" x1="2004.97" x2="2474.5296" y1="483.625" y2="483.625"/><g data-visibility-modifier="PUBLIC_FIELD"><ellipse cx="2014.97" cy="507.9922" fill="none" rx="3" ry="3" style="stroke:#038048;stroke-width:1;"/></g><text fill="#000000" font-family="sans-serif" font-size="30" lengthAdjust="spacing" textLength="438.5596" x="2030.97" y="518.7676">entryReference : Reference [1..*]</text><g data-visibility-modifier="PUBLIC_FIELD"><ellipse cx="2014.97" cy="545.7266" fill="none" rx="3" ry="3" style="stroke:#038048;stroke-width:1;"/></g><text fill="#000000" font-family="sans-serif" font-size="30" lengthAdjust="spacing" textLength="311.8213" x="2030.97" y="556.502">entryValue : string [1..*]</text><g data-visibility-modifier="PUBLIC_FIELD"><ellipse cx="2014.97" cy="583.4609" fill="none" rx="3" ry="3" style="stroke:#038048;stroke-width:1;"/></g><text fill="#000000" font-family="sans-serif" font-size="30" lengthAdjust="spacing" textLength="215.0977" x="2030.97" y="594.2363">name : string [1]</text><g data-visibility-modifier="PUBLIC_FIELD"><ellipse cx="2014.97" cy="621.1953" fill="none" rx="3" ry="3" style="stroke:#038048;stroke-width:1;"/></g><text fill="#000000" font-family="sans-serif" font-size="30" lengthAdjust="spacing" textLength="331.8018" x="2030.97" y="631.9707">valueForOther : string [1]</text><g data-visibility-modifier="PUBLIC_FIELD"><ellipse cx="2014.97" cy="658.9297" fill="none" rx="3" ry="3" style="stroke:#038048;stroke-width:1;"/></g><text fill="#000000" font-family="sans-serif" font-size="30" lengthAdjust="spacing" textLength="350.1855" x="2030.97" y="669.7051">vocabulary : Reference [1]</text></g><!--class RepresentedVariable--><g class="entity" data-qualified-name="RepresentedVariable" data-source-line="23" id="ent0003"><rect fill="#EEEEEE" height="47.7344" rx="2.5" ry="2.5" style="stroke:#404040;stroke-width:0.5;" width="287.8506" x="377.97" y="45.6094"/><text fill="#000000" font-family="sans-serif" font-size="30" lengthAdjust="spacing" textLength="281.8506" x="380.97" y="81.752">RepresentedVariable</text></g><!--class DescriptorVariable--><g class="entity" data-qualified-name="DescriptorVariable" data-source-line="27" id="ent0007"><rect fill="#EEEEEE" height="47.7344" rx="2.5" ry="2.5" style="stroke:#404040;stroke-width:0.5;" width="252.7676" x="1814.47" y="45.6094"/><text fill="#000000" font-family="sans-serif" font-size="30" lengthAdjust="spacing" textLength="246.7676" x="1817.47" y="81.752">DescriptorVariable</text></g><!--class SubstantiveValueDomain--><g class="entity" data-qualified-name="SubstantiveValueDomain" data-source-line="35" id="ent0015"><rect fill="#EEEEEE" height="47.7344" rx="2.5" ry="2.5" style="stroke:#404040;stroke-width:0.5;" width="342.8701" x="2997.47" y="45.6094"/><text fill="#000000" font-family="sans-serif" font-size="30" lengthAdjust="spacing" textLength="336.8701" x="3000.47" y="81.752">SubstantiveValueDomain</text></g><!--class SentinelValueDomain--><g class="entity" data-qualified-name="SentinelValueDomain" data-source-line="37" id="ent0017"><rect fill="#EEEEEE" height="47.7344" rx="2.5" ry="2.5" style="stroke:#404040;stroke-width:0.5;" width="294.5156" x="3552.47" y="45.6094"/><text fill="#000000" font-family="sans-serif" font-size="30" lengthAdjust="spacing" textLength="288.5156" x="3555.47" y="81.752">SentinelValueDomain</text></g><!--class DescriptorValueDomain--><g class="entity" data-qualified-name="DescriptorValueDomain" data-source-line="40" id="ent0020"><rect fill="#EEEEEE" height="47.7344" rx="2.5" ry="2.5" style="stroke:#404040;stroke-width:0.5;" width="322.8018" x="4070.47" y="45.6094"/><text fill="#000000" font-family="sans-serif" font-size="30" lengthAdjust="spacing" textLength="316.8018" x="4073.47" y="81.752">DescriptorValueDomain</text></g><!--class ValueAndConceptDescription--><g class="entity" data-qualified-name="ValueAndConceptDescription" data-source-line="42" id="ent0022"><rect fill="#EEEEEE" height="47.7344" rx="2.5" ry="2.5" style="stroke:#404040;stroke-width:0.5;" width="397.9043" x="4567.97" y="45.6094"/><text fill="#000000" font-family="sans-serif" font-size="30" lengthAdjust="spacing" textLength="391.9043" x="4570.97" y="81.752">ValueAndConceptDescription</text></g><!--link RepresentedVariable to ControlledVocabularyEntry--><g class="link" data-entity-1="ent0003" data-entity-2="ent0002" data-link-type="dependency" data-source-line="24" id="lnk4"><path codeLine="24" d="M377.66,87.0694 C221.44,110.4694 6,162.5094 96.97,265.6094 C221.67,406.9394 1466.4196,491.86 1997.4896,521.95" fill="none" id="RepresentedVariable-to-ControlledVocabularyEntry" style="stroke:#404040;stroke-width:1.2;stroke-dasharray:7,7;"/><polygon fill="#404040" points="2003.48,522.2894,1994.7207,517.7867,1998.488,522.0065,1994.2681,525.7739,2003.48,522.2894" style="stroke:#404040;stroke-width:1.2;"/><text fill="#000000" font-family="sans-serif" font-size="36" lengthAdjust="spacing" textLength="398.1797" x="97.97" y="256.9805">describedUnitOfMeasure</text></g><!--link RepresentedVariable to ControlledVocabularyEntry--><g class="link" data-entity-1="ent0003" data-entity-2="ent0002" data-link-type="dependency" data-source-line="25" id="lnk5"><path codeLine="25" d="M513.42,93.6994 C500.19,133.8794 480.37,216.9894 521.97,265.6094 C709.96,485.3194 1572.5808,526.7409 1997.9508,533.7209" fill="none" id="RepresentedVariable-to-ControlledVocabularyEntry-1" style="stroke:#404040;stroke-width:1.2;stroke-dasharray:7,7;"/><polygon fill="#404040" points="2003.95,533.8194,1995.0168,529.6723,1998.9507,533.7373,1994.8856,537.6712,2003.95,533.8194" style="stroke:#404040;stroke-width:1.2;"/><text fill="#000000" font-family="sans-serif" font-size="36" lengthAdjust="spacing" textLength="354.252" x="522.97" y="256.9805">hasIntendedDataType</text></g><!--link RepresentedVariable to ControlledVocabularyEntry--><g class="link" data-entity-1="ent0003" data-entity-2="ent0002" data-link-type="dependency" data-source-line="26" id="lnk6"><path codeLine="26" d="M613.3,93.6794 C689.93,116.3094 799.31,156.5494 878.97,218.6094 C899.51,234.6194 891.98,251.6594 913.97,265.6094 C1092.1,378.6394 1667.1272,464.7379 1997.9272,506.4979" fill="none" id="RepresentedVariable-to-ControlledVocabularyEntry-2" style="stroke:#404040;stroke-width:1.2;stroke-dasharray:7,7;"/><polygon fill="#404040" points="2003.88,507.2494,1995.4518,502.1537,1998.9194,506.6231,1994.4499,510.0907,2003.88,507.2494" style="stroke:#404040;stroke-width:1.2;"/><text fill="#000000" font-family="sans-serif" font-size="36" lengthAdjust="spacing" textLength="308.1621" x="914.97" y="256.9805">unitOfMeasureKind</text></g><!--link DescriptorVariable to ControlledVocabularyEntry--><g class="link" data-entity-1="ent0007" data-entity-2="ent0002" data-link-type="dependency" data-source-line="28" id="lnk8"><path codeLine="28" d="M1814.37,78.6494 C1631.95,93.1594 1309.18,130.8394 1237.97,218.6094 C1224.8,234.8294 1225.25,249.0294 1237.97,265.6094 C1330.63,386.4294 1731.9648,464.1096 1997.9048,503.5296" fill="none" id="DescriptorVariable-to-ControlledVocabularyEntry" style="stroke:#404040;stroke-width:1.2;stroke-dasharray:7,7;"/><polygon fill="#404040" points="2003.84,504.4094,1995.5238,499.133,1998.894,503.6762,1994.3508,507.0465,2003.84,504.4094" style="stroke:#404040;stroke-width:1.2;"/><text fill="#000000" font-family="sans-serif" font-size="36" lengthAdjust="spacing" textLength="126.0879" x="1238.97" y="256.9805">function</text></g><!--link DescriptorVariable to ControlledVocabularyEntry--><g class="link" data-entity-1="ent0007" data-entity-2="ent0002" data-link-type="dependency" data-source-line="29" id="lnk9"><path codeLine="29" d="M1814.33,72.2994 C1619.52,79.6094 1279.8,113.7694 1390.97,265.6094 C1464.21,365.6494 1773.0017,444.7168 1997.8617,490.7168" fill="none" id="DescriptorVariable-to-ControlledVocabularyEntry-1" style="stroke:#404040;stroke-width:1.2;stroke-dasharray:7,7;"/><polygon fill="#404040" points="2003.74,491.9194,1995.7243,486.1967,1998.8415,490.9173,1994.1209,494.0344,2003.74,491.9194" style="stroke:#404040;stroke-width:1.2;"/><text fill="#000000" font-family="sans-serif" font-size="36" lengthAdjust="spacing" textLength="286.1367" x="1391.97" y="256.9805">physicalDataType</text></g><!--link DescriptorVariable to ControlledVocabularyEntry--><g class="link" data-entity-1="ent0007" data-entity-2="ent0002" data-link-type="dependency" data-source-line="30" id="lnk10"><path codeLine="30" d="M1868.24,93.6594 C1781.9,125.1594 1655.35,186.8194 1703.97,265.6094 C1769.85,372.3794 1886.8101,436.2199 1998.1601,476.0199" fill="none" id="DescriptorVariable-to-ControlledVocabularyEntry-2" style="stroke:#404040;stroke-width:1.2;stroke-dasharray:7,7;"/><polygon fill="#404040" points="2003.81,478.0394,1996.6814,471.2436,1999.1017,476.3565,1993.9888,478.7768,2003.81,478.0394" style="stroke:#404040;stroke-width:1.2;"/><text fill="#000000" font-family="sans-serif" font-size="36" lengthAdjust="spacing" textLength="210.0762" x="1704.97" y="256.9805">platformType</text></g><!--link DescriptorVariable to ControlledVocabularyEntry--><g class="link" data-entity-1="ent0007" data-entity-2="ent0002" data-link-type="dependency" data-source-line="31" id="lnk11"><path codeLine="31" d="M1935.15,93.7794 C1926.89,131.6294 1915.41,208.2494 1940.97,265.6094 C1961.78,312.3294 1990.8661,350.1486 2027.9261,386.3186" fill="none" id="DescriptorVariable-to-ControlledVocabularyEntry-3" style="stroke:#404040;stroke-width:1.2;stroke-dasharray:7,7;"/><polygon fill="#404040" points="2032.22,390.5094,2028.573,381.3606,2028.6418,387.0171,2022.9853,387.0858,2032.22,390.5094" style="stroke:#404040;stroke-width:1.2;"/><text fill="#000000" font-family="sans-serif" font-size="36" lengthAdjust="spacing" textLength="60.0293" x="1941.97" y="256.9805">role</text></g><!--link DescriptorVariable to ControlledVocabularyEntry--><g class="link" data-entity-1="ent0007" data-entity-2="ent0002" data-link-type="dependency" data-source-line="32" id="lnk12"><path codeLine="32" d="M1950.39,93.6194 C1968.79,138.2194 2009.32,234.7494 2027.97,265.6094 C2053.57,307.9794 2081.2356,346.5195 2111.9156,385.6095" fill="none" id="DescriptorVariable-to-ControlledVocabularyEntry-4" style="stroke:#404040;stroke-width:1.2;stroke-dasharray:7,7;"/><polygon fill="#404040" points="2115.62,390.3294,2113.21,380.7799,2112.533,386.3961,2106.9168,385.7192,2115.62,390.3294" style="stroke:#404040;stroke-width:1.2;"/><text fill="#000000" font-family="sans-serif" font-size="36" lengthAdjust="spacing" textLength="398.1797" x="2028.97" y="256.9805">describedUnitOfMeasure</text></g><!--link DescriptorVariable to ControlledVocabularyEntry--><g class="link" data-entity-1="ent0007" data-entity-2="ent0002" data-link-type="dependency" data-source-line="33" id="lnk13"><path codeLine="33" d="M2067.69,91.5694 C2197.32,115.8894 2385.69,160.2594 2428.97,218.6094 C2468.86,272.3894 2448.1306,330.3232 2405.3706,385.6132" fill="none" id="DescriptorVariable-to-ControlledVocabularyEntry-5" style="stroke:#404040;stroke-width:1.2;stroke-dasharray:7,7;"/><polygon fill="#404040" points="2401.7,390.3594,2410.3701,385.6871,2404.7588,386.4042,2404.0418,380.793,2401.7,390.3594" style="stroke:#404040;stroke-width:1.2;"/><text fill="#000000" font-family="sans-serif" font-size="36" lengthAdjust="spacing" textLength="354.252" x="2448.97" y="256.9805">hasIntendedDataType</text></g><!--link DescriptorVariable to ControlledVocabularyEntry--><g class="link" data-entity-1="ent0007" data-entity-2="ent0002" data-link-type="dependency" data-source-line="34" id="lnk14"><path codeLine="34" d="M2067.77,72.9894 C2285.38,80.0394 2715.61,107.9894 2808.97,218.6094 C2863.99,283.8094 2661.7351,379.8627 2481.9751,449.4727" fill="none" id="DescriptorVariable-to-ControlledVocabularyEntry-6" style="stroke:#404040;stroke-width:1.2;stroke-dasharray:7,7;"/><polygon fill="#404040" points="2476.38,451.6394,2486.2171,452.1195,2481.0426,449.8338,2483.3283,444.6593,2476.38,451.6394" style="stroke:#404040;stroke-width:1.2;"/><text fill="#000000" font-family="sans-serif" font-size="36" lengthAdjust="spacing" textLength="308.1621" x="2818.97" y="256.9805">unitOfMeasureKind</text></g><!--link SubstantiveValueDomain to ControlledVocabularyEntry--><g class="link" data-entity-1="ent0015" data-entity-2="ent0002" data-link-type="dependency" data-source-line="36" id="lnk16"><path codeLine="36" d="M3171.78,93.7294 C3175.31,133.9494 3176.38,217.1394 3132.97,265.6094 C3045.3,363.4994 2715.7031,444.2108 2481.8931,491.0508" fill="none" id="SubstantiveValueDomain-to-ControlledVocabularyEntry" style="stroke:#404040;stroke-width:1.2;stroke-dasharray:7,7;"/><polygon fill="#404040" points="2476.01,492.2294,2485.6204,494.3836,2480.9126,491.2472,2484.0489,486.5394,2476.01,492.2294" style="stroke:#404040;stroke-width:1.2;"/><text fill="#000000" font-family="sans-serif" font-size="36" lengthAdjust="spacing" textLength="386.1914" x="3160.97" y="256.9805">recommendedDataType</text></g><!--link SentinelValueDomain to ControlledVocabularyEntry--><g class="link" data-entity-1="ent0017" data-entity-2="ent0002" data-link-type="dependency" data-source-line="38" id="lnk18"><path codeLine="38" d="M3680.06,93.7694 C3655.84,122.3494 3614.2,172.7794 3581.97,218.6094 C3567.85,238.6894 3573.08,251.5494 3552.97,265.6094 C3381.86,385.2094 2811.4971,468.5932 2482.0871,508.1932" fill="none" id="SentinelValueDomain-to-ControlledVocabularyEntry" style="stroke:#404040;stroke-width:1.2;stroke-dasharray:7,7;"/><polygon fill="#404040" points="2476.13,508.9094,2485.5431,511.8066,2481.0943,508.3126,2484.5882,503.8638,2476.13,508.9094" style="stroke:#404040;stroke-width:1.2;"/><text fill="#000000" font-family="sans-serif" font-size="36" lengthAdjust="spacing" textLength="210.0762" x="3582.97" y="256.9805">platformType</text></g><!--link SentinelValueDomain to ControlledVocabularyEntry--><g class="link" data-entity-1="ent0017" data-entity-2="ent0002" data-link-type="dependency" data-source-line="39" id="lnk19"><path codeLine="39" d="M3726.83,93.7294 C3768.72,132.5194 3840.32,211.7394 3794.97,265.6094 C3629.16,462.5594 2874.7361,515.0936 2482.1061,529.2236" fill="none" id="SentinelValueDomain-to-ControlledVocabularyEntry-1" style="stroke:#404040;stroke-width:1.2;stroke-dasharray:7,7;"/><polygon fill="#404040" points="2476.11,529.4394,2485.248,533.1131,2481.1068,529.2596,2484.9603,525.1183,2476.11,529.4394" style="stroke:#404040;stroke-width:1.2;"/><text fill="#000000" font-family="sans-serif" font-size="36" lengthAdjust="spacing" textLength="386.1914" x="3810.97" y="256.9805">recommendedDataType</text></g><!--link DescriptorValueDomain to ControlledVocabularyEntry--><g class="link" data-entity-1="ent0020" data-entity-2="ent0002" data-link-type="dependency" data-source-line="41" id="lnk21"><path codeLine="41" d="M4236.4,93.6894 C4242.79,134.6194 4249.21,219.8894 4202.97,265.6094 C4081.73,385.4694 2977.0033,480.562 2482.0533,517.572" fill="none" id="DescriptorValueDomain-to-ControlledVocabularyEntry" style="stroke:#404040;stroke-width:1.2;stroke-dasharray:7,7;"/><polygon fill="#404040" points="2476.07,518.0194,2485.3432,521.3371,2481.0561,517.6465,2484.7467,513.3594,2476.07,518.0194" style="stroke:#404040;stroke-width:1.2;"/><text fill="#000000" font-family="sans-serif" font-size="36" lengthAdjust="spacing" textLength="386.1914" x="4229.97" y="256.9805">recommendedDataType</text></g><!--link ValueAndConceptDescription to ControlledVocabularyEntry--><g class="link" data-entity-1="ent0022" data-entity-2="ent0002" data-link-type="dependency" data-source-line="43" id="lnk23"><path codeLine="43" d="M4744.97,93.9694 C4719.12,122.1294 4675.84,171.5594 4644.97,218.6094 C4632.1,238.2194 4640.25,252.2594 4620.97,265.6094 C4446.83,386.1794 3048.8783,484.7851 2482.0383,520.2151" fill="none" id="ValueAndConceptDescription-to-ControlledVocabularyEntry" style="stroke:#404040;stroke-width:1.2;stroke-dasharray:7,7;"/><polygon fill="#404040" points="2476.05,520.5894,2485.282,524.0201,2481.0403,520.2775,2484.7829,516.0357,2476.05,520.5894" style="stroke:#404040;stroke-width:1.2;"/><text fill="#000000" font-family="sans-serif" font-size="36" lengthAdjust="spacing" textLength="218.0918" x="4645.97" y="256.9805">formatPattern</text></g><!--link ValueAndConceptDescription to ControlledVocabularyEntry--><g class="link" data-entity-1="ent0022" data-entity-2="ent0002" data-link-type="dependency" data-source-line="44" id="lnk24"><path codeLine="44" d="M4794.68,93.6694 C4838.39,132.7294 4913.67,212.7694 4865.97,265.6094 C4707.21,441.4594 3097.607,508.5507 2482.237,527.9107" fill="none" id="ValueAndConceptDescription-to-ControlledVocabularyEntry-1" style="stroke:#404040;stroke-width:1.2;stroke-dasharray:7,7;"/><polygon fill="#404040" points="2476.24,528.0994,2485.3613,531.8144,2481.2375,527.9421,2485.1098,523.8183,2476.24,528.0994" style="stroke:#404040;stroke-width:1.2;"/><text fill="#000000" font-family="sans-serif" font-size="36" lengthAdjust="spacing" textLength="280.1426" x="4881.97" y="256.9805">logicalExpression</text></g><?plantuml-src hLJBRjim4BphAuZurWA6apGz18419xQ1eYXIv7KfSbYHguWmHGhBLLAtwB-NacDPZYKRLMfVX1dkS7Qu96isAAwSPNB6e7fm4kB202rd0Lf6gLOef2PfSFMDMSvBaM4M8_d8BxJDWI0JFWNbNhHz4WaOZmrcGkHUxb8j5nQz5yV3amP9O1SUSt5oDcgWrYciq2QeC872y3nulTM_K9n-Rf3IGD3-7OdLTbVEE1A3JwFo7y1BHmhfBTgK2eNCfEE2SGEFeZzHj98-wipeI83lJb1SN2XWk5lcE1wBmNmoEvkULaO_OidVO8A4Lg8u5vll7yV3uOV7Uj43cA9Su8F3aF26jP1juHNuNAwUExhc56cNhVszsV4nDFlQwmtc50x0ScW7I4DiiEgo1HU3MVMBshZXSBmdcVDmf5w6p57TMytNoJS4Nn3saah1Vma5Lg6QlkRTIwTeElcghLfdCgsyvkneAv9Tk4waXJgqUr9OoThPFhLvklHQWgdRxwDXW1D7MT_wWFUgwnY47afjSz13fdCCRelOCrZMprZTogdBGDjg5DgfUXmww8EHedHPjjtGsaiORMtHx1ZPnJSkMhX_cee-0djwQ9xDTXUjJElb-Yz6Afc9LQ5SOivh_N0PApVTT6rfpvA3zpwa2_mTc97iUuICUohVWDdFykNpvKlo5m00?></g></svg>