<svg xmlns="http://www.w3.org/2000/svg" xmlns:xlink="http://www.w3.org/1999/xlink" contentStyleType="text/css" data-diagram-type="CLASS" height="497px" preserveAspectRatio="none" style="width:1746px;height:497px;background:#FFFFFF;" version="1.1" viewBox="0 0 1746 497" width="1746px" zoomAndPan="magnify"><?plantuml 1.2026.3?><defs/><g><g class="title" data-source-line="1"><text fill="#000000" font-family="sans-serif" font-size="14" font-weight="700" lengthAdjust="spacing" textLength="71.5723" x="834.1655" y="24.5332">XsdAnyUri</text></g><!--class XsdAnyUri--><g class="entity" data-qualified-name="XsdAnyUri" data-source-line="16" id="ent0002"><rect fill="#FAE5D3" height="93.0156" rx="2.5" ry="2.5" style="stroke:#404040;stroke-width:0.5;" width="192.1426" x="773.5" y="390.6094"/><text fill="#000000" font-family="sans-serif" font-size="36" font-style="italic" lengthAdjust="spacing" textLength="190.1426" x="774.5" y="432.9805">&#171;dataType&#187;</text><text fill="#000000" font-family="sans-serif" font-size="30" lengthAdjust="spacing" textLength="141.709" x="798.7168" y="472.0332">XsdAnyUri</text></g><!--class DataDownload--><g class="entity" data-qualified-name="DataDownload" data-source-line="17" id="ent0003"><rect fill="#EEEEEE" height="47.7344" rx="2.5" ry="2.5" style="stroke:#404040;stroke-width:0.5;" width="202.7871" x="7" y="45.6094"/><text fill="#000000" font-family="sans-serif" font-size="30" lengthAdjust="spacing" textLength="196.7871" x="10" y="81.752">DataDownload</text></g><!--class CatalogRecord--><g class="entity" data-qualified-name="CatalogRecord" data-source-line="19" id="ent0005"><rect fill="#EEEEEE" height="47.7344" rx="2.5" ry="2.5" style="stroke:#404040;stroke-width:0.5;" width="206.1123" x="230.5" y="45.6094"/><text fill="#000000" font-family="sans-serif" font-size="30" lengthAdjust="spacing" textLength="200.1123" x="233.5" y="81.752">CatalogRecord</text></g><!--class DimensionGroup--><g class="entity" data-qualified-name="DimensionGroup" data-source-line="21" id="ent0007"><rect fill="#EEEEEE" height="47.7344" rx="2.5" ry="2.5" style="stroke:#404040;stroke-width:0.5;" width="231.1025" x="457" y="45.6094"/><text fill="#000000" font-family="sans-serif" font-size="30" lengthAdjust="spacing" textLength="225.1025" x="460" y="81.752">DimensionGroup</text></g><!--class PrimaryKey--><g class="entity" data-qualified-name="PrimaryKey" data-source-line="23" id="ent0009"><rect fill="#EEEEEE" height="47.7344" rx="2.5" ry="2.5" style="stroke:#404040;stroke-width:0.5;" width="161.0244" x="708" y="45.6094"/><text fill="#000000" font-family="sans-serif" font-size="30" lengthAdjust="spacing" textLength="155.0244" x="711" y="81.752">PrimaryKey</text></g><!--class ForeignKey--><g class="entity" data-qualified-name="ForeignKey" data-source-line="25" id="ent0011"><rect fill="#EEEEEE" height="47.7344" rx="2.5" ry="2.5" style="stroke:#404040;stroke-width:0.5;" width="159.4131" x="889" y="45.6094"/><text fill="#000000" font-family="sans-serif" font-size="30" lengthAdjust="spacing" textLength="153.4131" x="892" y="81.752">ForeignKey</text></g><!--class DefinedTerm--><g class="entity" data-qualified-name="DefinedTerm" data-source-line="27" id="ent0013"><rect fill="#EEEEEE" height="47.7344" rx="2.5" ry="2.5" style="stroke:#404040;stroke-width:0.5;" width="179.3936" x="1128" y="45.6094"/><text fill="#000000" font-family="sans-serif" font-size="30" lengthAdjust="spacing" textLength="173.3936" x="1131" y="81.752">DefinedTerm</text></g><!--class CdifConceptOrTerm--><g class="entity" data-qualified-name="CdifConceptOrTerm" data-source-line="30" id="ent0016"><rect fill="#EEEEEE" height="47.7344" rx="2.5" ry="2.5" style="stroke:#404040;stroke-width:0.5;" width="274.4033" x="1457.5" y="45.6094"/><text fill="#000000" font-family="sans-serif" font-size="30" lengthAdjust="spacing" textLength="268.4033" x="1460.5" y="81.752">CdifConceptOrTerm</text></g><!--link DataDownload to XsdAnyUri--><g class="link" data-entity-1="ent0003" data-entity-2="ent0002" data-link-type="dependency" data-source-line="18" id="lnk4"><path codeLine="18" d="M117.33,93.8094 C134.19,134.9294 174.95,220.4894 237.5,265.6094 C400.87,383.4594 635.0015,419.3414 767.2815,430.5814" fill="none" id="DataDownload-to-XsdAnyUri" style="stroke:#404040;stroke-width:1.2;stroke-dasharray:7,7;"/><polygon fill="#404040" points="773.26,431.0894,764.631,426.3417,768.278,430.666,763.9537,434.313,773.26,431.0894" style="stroke:#404040;stroke-width:1.2;"/><text fill="#000000" font-family="sans-serif" font-size="36" lengthAdjust="spacing" textLength="136.0723" x="238.5" y="256.9805">identifier</text></g><!--link CatalogRecord to XsdAnyUri--><g class="link" data-entity-1="ent0005" data-entity-2="ent0002" data-link-type="dependency" data-source-line="20" id="lnk6"><path codeLine="20" d="M337.13,93.7994 C344.62,134.1394 365.48,217.4894 415.5,265.6094 C514.71,361.0394 666.48,403.0286 767.47,421.6986" fill="none" id="CatalogRecord-to-XsdAnyUri" style="stroke:#404040;stroke-width:1.2;stroke-dasharray:7,7;"/><polygon fill="#404040" points="773.37,422.7894,765.2471,417.2199,768.4533,421.8804,763.7928,425.0866,773.37,422.7894" style="stroke:#404040;stroke-width:1.2;"/><text fill="#000000" font-family="sans-serif" font-size="36" lengthAdjust="spacing" textLength="190.0547" x="416.5" y="256.9805">conformsTo</text></g><!--link DimensionGroup to XsdAnyUri--><g class="link" data-entity-1="ent0007" data-entity-2="ent0002" data-link-type="dependency" data-source-line="22" id="lnk8"><path codeLine="22" d="M575.71,93.7094 C582.04,132.4594 599.09,211.6294 638.5,265.6094 C676.56,317.7394 730.1122,357.6275 778.7922,387.4175" fill="none" id="DimensionGroup-to-XsdAnyUri" style="stroke:#404040;stroke-width:1.2;stroke-dasharray:7,7;"/><polygon fill="#404040" points="783.91,390.5494,778.3212,382.4398,779.6452,387.9395,774.1455,389.2635,783.91,390.5494" style="stroke:#404040;stroke-width:1.2;"/><text fill="#000000" font-family="sans-serif" font-size="36" lengthAdjust="spacing" textLength="136.0723" x="639.5" y="256.9805">identifier</text></g><!--link PrimaryKey to XsdAnyUri--><g class="link" data-entity-1="ent0009" data-entity-2="ent0002" data-link-type="dependency" data-source-line="24" id="lnk10"><path codeLine="24" d="M785.25,93.7894 C780.79,130.6894 774.8,204.8394 788.5,265.6094 C798.59,310.3694 818.8888,351.9524 837.9088,385.1724" fill="none" id="PrimaryKey-to-XsdAnyUri" style="stroke:#404040;stroke-width:1.2;stroke-dasharray:7,7;"/><polygon fill="#404040" points="840.89,390.3794,839.8895,380.5815,838.4056,386.0403,832.9469,384.5564,840.89,390.3794" style="stroke:#404040;stroke-width:1.2;"/><text fill="#000000" font-family="sans-serif" font-size="36" lengthAdjust="spacing" textLength="136.0723" x="789.5" y="256.9805">identifier</text></g><!--link ForeignKey to XsdAnyUri--><g class="link" data-entity-1="ent0011" data-entity-2="ent0002" data-link-type="dependency" data-source-line="26" id="lnk12"><path codeLine="26" d="M964.59,93.6394 C958.15,130.3394 944.33,204.2194 927.5,265.6094 C915.76,308.4294 901.2555,350.5625 888.8355,384.6225" fill="none" id="ForeignKey-to-XsdAnyUri" style="stroke:#404040;stroke-width:1.2;stroke-dasharray:7,7;"/><polygon fill="#404040" points="886.78,390.2594,893.6212,383.1743,888.4929,385.5619,886.1053,380.4337,886.78,390.2594" style="stroke:#404040;stroke-width:1.2;"/><text fill="#000000" font-family="sans-serif" font-size="36" lengthAdjust="spacing" textLength="136.0723" x="938.5" y="256.9805">identifier</text></g><!--link DefinedTerm to XsdAnyUri--><g class="link" data-entity-1="ent0013" data-entity-2="ent0002" data-link-type="dependency" data-source-line="28" id="lnk14"><path codeLine="28" d="M1201.46,93.8094 C1166.81,143.8594 1087.55,258.0694 1080.5,265.6094 C1036.43,312.7394 983.9367,354.7089 940.1667,386.8389" fill="none" id="DefinedTerm-to-XsdAnyUri" style="stroke:#404040;stroke-width:1.2;stroke-dasharray:7,7;"/><polygon fill="#404040" points="935.33,390.3894,944.9521,388.2881,939.3606,387.4306,940.2181,381.8392,935.33,390.3894" style="stroke:#404040;stroke-width:1.2;"/><text fill="#000000" font-family="sans-serif" font-size="36" lengthAdjust="spacing" textLength="136.0723" x="1114.5" y="256.9805">identifier</text></g><!--link DefinedTerm to XsdAnyUri--><g class="link" data-entity-1="ent0013" data-entity-2="ent0002" data-link-type="dependency" data-source-line="29" id="lnk15"><path codeLine="29" d="M1231.58,93.7094 C1253.21,132.4694 1288.59,211.6394 1253.5,265.6094 C1190.28,362.8494 1063.347,403.9102 971.777,421.9402" fill="none" id="DefinedTerm-to-XsdAnyUri-1" style="stroke:#404040;stroke-width:1.2;stroke-dasharray:7,7;"/><polygon fill="#404040" points="965.89,423.0994,975.4932,425.2853,970.7958,422.1334,973.9477,417.436,965.89,423.0994" style="stroke:#404040;stroke-width:1.2;"/><text fill="#000000" font-family="sans-serif" font-size="36" lengthAdjust="spacing" textLength="290.127" x="1268.5" y="256.9805">inDefinedTermSet</text></g><!--link CdifConceptOrTerm to XsdAnyUri--><g class="link" data-entity-1="ent0016" data-entity-2="ent0002" data-link-type="dependency" data-source-line="31" id="lnk17"><path codeLine="31" d="M1598.39,93.8794 C1603.74,134.3294 1608.22,217.8694 1564.5,265.6094 C1484.37,353.1094 1142.8867,404.2297 971.6267,424.9197" fill="none" id="CdifConceptOrTerm-to-XsdAnyUri" style="stroke:#404040;stroke-width:1.2;stroke-dasharray:7,7;"/><polygon fill="#404040" points="965.67,425.6394,975.0848,428.5311,970.6339,425.0397,974.1253,420.5888,965.67,425.6394" style="stroke:#404040;stroke-width:1.2;"/><text fill="#000000" font-family="sans-serif" font-size="36" lengthAdjust="spacing" textLength="136.0723" x="1590.5" y="256.9805">identifier</text></g><?plantuml-src XP71Ri8m343l_Ofet163iSE4a1Y57NROD9YqQsXSi4ZYoWb2tRH_NzUA9WK9salz7B_QZaUlGNmvDRFb9sEoGmKYGyuqDDzW2byA0sO3x1AtHrj8baQudLHqHBiLkTGEeioCcOxh7MPx2yw9-_umIhAqUmU568u74RMaeAOnL93BW_PBidw5to16Zr4oqx9o_oIY-TsSDB7eFGp-tme-4olWSnghgaBl6JS73m4FajyaQTHtxKxkX7HXGs8oKTBBTLd0T2fwozbYd8vEDMcLIUbeDKbLbyL0z1RratHWlp-Dv4-Yshdrc2FmIJglZclQVa1M3LLREwJLTkcvDoER4nktfhPPD60TadrXEXHDknqK6kxYsos_Cnh9vIkKjJQ4hJ92jtLBOi2jFUb2sEeYT5kNGeuMr1hOD5E7E8mSiIl6gyTib5s1R-zJOJudcq7XtxXjueA6Uxt8N6de3m00?></g></svg>