<svg xmlns="http://www.w3.org/2000/svg" xmlns:xlink="http://www.w3.org/1999/xlink" contentStyleType="text/css" data-diagram-type="CLASS" height="202px" preserveAspectRatio="none" style="width:1405px;height:202px;background:#FFFFFF;" version="1.1" viewBox="0 0 1405 202" width="1405px" zoomAndPan="magnify"><?plantuml 1.2026.3?><defs/><g><g class="title" data-source-line="1"><text fill="#000000" font-family="sans-serif" font-size="14" font-weight="700" lengthAdjust="spacing" textLength="71.5723" x="663.416" y="24.5332">XsdAnyUri</text></g><!--class XsdAnyUri--><g class="entity" data-qualified-name="XsdAnyUri" data-source-line="12" id="ent0002"><rect fill="#FAE5D3" height="40.1875" rx="2.5" ry="2.5" style="stroke:#404040;stroke-width:0.5;" width="65.3809" x="702" y="148.6094"/><text fill="#000000" font-family="sans-serif" font-size="12" font-style="italic" lengthAdjust="spacing" textLength="63.3809" x="703" y="166.0664">&#171;dataType&#187;</text><text fill="#000000" font-family="sans-serif" font-size="12" lengthAdjust="spacing" textLength="56.6836" x="706.3486" y="181.1602">XsdAnyUri</text></g><!--class DataDownload--><g class="entity" data-qualified-name="DataDownload" data-source-line="13" id="ent0003"><rect fill="#EEEEEE" height="25.0938" rx="2.5" ry="2.5" style="stroke:#404040;stroke-width:0.5;" width="84.7148" x="7" y="45.6094"/><text fill="#000000" font-family="sans-serif" font-size="12" lengthAdjust="spacing" textLength="78.7148" x="10" y="63.0664">DataDownload</text></g><!--class CatalogRecord--><g class="entity" data-qualified-name="CatalogRecord" data-source-line="15" id="ent0005"><rect fill="#EEEEEE" height="25.0938" rx="2.5" ry="2.5" style="stroke:#404040;stroke-width:0.5;" width="86.0449" x="127.5" y="45.6094"/><text fill="#000000" font-family="sans-serif" font-size="12" lengthAdjust="spacing" textLength="80.0449" x="130.5" y="63.0664">CatalogRecord</text></g><!--class AbstractDataStructureComponent--><g class="entity" data-qualified-name="AbstractDataStructureComponent" data-source-line="17" id="ent0007"><rect fill="#EEEEEE" height="25.0938" rx="2.5" ry="2.5" style="stroke:#404040;stroke-width:0.5;" width="186.0879" x="248.5" y="45.6094"/><text fill="#000000" font-family="sans-serif" font-size="12" font-style="italic" lengthAdjust="spacing" textLength="180.0879" x="251.5" y="63.0664">AbstractDataStructureComponent</text></g><!--class InstanceVariable--><g class="entity" data-qualified-name="InstanceVariable" data-source-line="19" id="ent0009"><rect fill="#EEEEEE" height="25.0938" rx="2.5" ry="2.5" style="stroke:#404040;stroke-width:0.5;" width="95.3906" x="470" y="45.6094"/><text fill="#000000" font-family="sans-serif" font-size="12" lengthAdjust="spacing" textLength="89.3906" x="473" y="63.0664">InstanceVariable</text></g><!--class AbstractDataStructure--><g class="entity" data-qualified-name="AbstractDataStructure" data-source-line="21" id="ent0011"><rect fill="#EEEEEE" height="25.0938" rx="2.5" ry="2.5" style="stroke:#404040;stroke-width:0.5;" width="124.0488" x="600.5" y="45.6094"/><text fill="#000000" font-family="sans-serif" font-size="12" font-style="italic" lengthAdjust="spacing" textLength="118.0488" x="603.5" y="63.0664">AbstractDataStructure</text></g><!--class DimensionGroup--><g class="entity" data-qualified-name="DimensionGroup" data-source-line="23" id="ent0013"><rect fill="#EEEEEE" height="25.0938" rx="2.5" ry="2.5" style="stroke:#404040;stroke-width:0.5;" width="96.041" x="759.5" y="45.6094"/><text fill="#000000" font-family="sans-serif" font-size="12" lengthAdjust="spacing" textLength="90.041" x="762.5" y="63.0664">DimensionGroup</text></g><!--class PrimaryKey--><g class="entity" data-qualified-name="PrimaryKey" data-source-line="25" id="ent0015"><rect fill="#EEEEEE" height="25.0938" rx="2.5" ry="2.5" style="stroke:#404040;stroke-width:0.5;" width="68.0098" x="890.5" y="45.6094"/><text fill="#000000" font-family="sans-serif" font-size="12" lengthAdjust="spacing" textLength="62.0098" x="893.5" y="63.0664">PrimaryKey</text></g><!--class PrimaryKeyComponent--><g class="entity" data-qualified-name="PrimaryKeyComponent" data-source-line="27" id="ent0017"><rect fill="#EEEEEE" height="25.0938" rx="2.5" ry="2.5" style="stroke:#404040;stroke-width:0.5;" width="130.0488" x="993.5" y="45.6094"/><text fill="#000000" font-family="sans-serif" font-size="12" lengthAdjust="spacing" textLength="124.0488" x="996.5" y="63.0664">PrimaryKeyComponent</text></g><!--class ForeignKey--><g class="entity" data-qualified-name="ForeignKey" data-source-line="29" id="ent0019"><rect fill="#EEEEEE" height="25.0938" rx="2.5" ry="2.5" style="stroke:#404040;stroke-width:0.5;" width="67.3652" x="1159" y="45.6094"/><text fill="#000000" font-family="sans-serif" font-size="12" lengthAdjust="spacing" textLength="61.3652" x="1162" y="63.0664">ForeignKey</text></g><!--class ForeignKeyComponent--><g class="entity" data-qualified-name="ForeignKeyComponent" data-source-line="31" id="ent0021"><rect fill="#EEEEEE" height="25.0938" rx="2.5" ry="2.5" style="stroke:#404040;stroke-width:0.5;" width="129.4043" x="1261" y="45.6094"/><text fill="#000000" font-family="sans-serif" font-size="12" lengthAdjust="spacing" textLength="123.4043" x="1264" y="63.0664">ForeignKeyComponent</text></g><!--link DataDownload to XsdAnyUri--><g class="link" data-entity-1="ent0003" data-entity-2="ent0002" data-link-type="dependency" data-source-line="14" id="lnk4"><path codeLine="14" d="M84.79,70.7094 C127.4,84.2494 201.43,106.3694 266.5,118.6094 C428.28,149.0494 619.3386,161.6085 695.8986,165.7085" fill="none" id="DataDownload-to-XsdAnyUri" style="stroke:#404040;stroke-width:1.2;stroke-dasharray:7,7;"/><polygon fill="#404040" points="701.89,166.0294,693.1168,161.5538,696.8972,165.762,692.689,169.5424,701.89,166.0294" style="stroke:#404040;stroke-width:1.2;"/><text fill="#000000" font-family="sans-serif" font-size="13" lengthAdjust="spacing" textLength="49.1372" x="267.5" y="115.1045">identifier</text></g><!--link CatalogRecord to XsdAnyUri--><g class="link" data-entity-1="ent0005" data-entity-2="ent0002" data-link-type="dependency" data-source-line="16" id="lnk6"><path codeLine="16" d="M210.26,70.7194 C256.06,83.7794 333.71,104.9294 401.5,118.6094 C510.62,140.6294 635.7798,156.3194 695.7298,163.2594" fill="none" id="CatalogRecord-to-XsdAnyUri" style="stroke:#404040;stroke-width:1.2;stroke-dasharray:7,7;"/><polygon fill="#404040" points="701.69,163.9494,693.2097,158.941,696.7232,163.3744,692.2897,166.8879,701.69,163.9494" style="stroke:#404040;stroke-width:1.2;"/><text fill="#000000" font-family="sans-serif" font-size="13" lengthAdjust="spacing" textLength="68.6309" x="402.5" y="115.1045">conformsTo</text></g><!--link AbstractDataStructureComponent to XsdAnyUri--><g class="link" data-entity-1="ent0007" data-entity-2="ent0002" data-link-type="dependency" data-source-line="18" id="lnk8"><path codeLine="18" d="M378.02,70.7194 C417.45,83.1094 482.19,103.0794 538.5,118.6094 C595.64,134.3694 656.9222,149.2936 695.9322,158.5536" fill="none" id="AbstractDataStructureComponent-to-XsdAnyUri" style="stroke:#404040;stroke-width:1.2;stroke-dasharray:7,7;"/><polygon fill="#404040" points="701.77,159.9394,693.9372,153.9689,696.9052,158.7846,692.0895,161.7526,701.77,159.9394" style="stroke:#404040;stroke-width:1.2;"/><text fill="#000000" font-family="sans-serif" font-size="13" lengthAdjust="spacing" textLength="49.1372" x="539.5" y="115.1045">identifier</text></g><!--link InstanceVariable to XsdAnyUri--><g class="link" data-entity-1="ent0009" data-entity-2="ent0002" data-link-type="dependency" data-source-line="20" id="lnk10"><path codeLine="20" d="M539.45,70.7094 C562.52,82.8494 599.91,102.3594 632.5,118.6094 C655.53,130.0994 676.28,140.0858 696.35,149.6158" fill="none" id="InstanceVariable-to-XsdAnyUri" style="stroke:#404040;stroke-width:1.2;stroke-dasharray:7,7;"/><polygon fill="#404040" points="701.77,152.1894,695.3557,144.7156,697.2533,150.0447,691.9242,151.9423,701.77,152.1894" style="stroke:#404040;stroke-width:1.2;"/><text fill="#000000" font-family="sans-serif" font-size="13" lengthAdjust="spacing" textLength="49.1372" x="633.5" y="115.1045">identifier</text></g><!--link AbstractDataStructure to XsdAnyUri--><g class="link" data-entity-1="ent0011" data-entity-2="ent0002" data-link-type="dependency" data-source-line="22" id="lnk12"><path codeLine="22" d="M670.21,70.7194 C682.54,89.3094 703.5336,120.9392 718.4636,143.4492" fill="none" id="AbstractDataStructure-to-XsdAnyUri" style="stroke:#404040;stroke-width:1.2;stroke-dasharray:7,7;"/><polygon fill="#404040" points="721.78,148.4494,720.1388,138.7382,719.0163,144.2826,713.472,143.1601,721.78,148.4494" style="stroke:#404040;stroke-width:1.2;"/><text fill="#000000" font-family="sans-serif" font-size="13" lengthAdjust="spacing" textLength="49.1372" x="701.5" y="115.1045">identifier</text></g><!--link DimensionGroup to XsdAnyUri--><g class="link" data-entity-1="ent0013" data-entity-2="ent0002" data-link-type="dependency" data-source-line="24" id="lnk14"><path codeLine="24" d="M799.69,70.7194 C787.18,89.3094 765.8901,120.9618 750.7401,143.4718" fill="none" id="DimensionGroup-to-XsdAnyUri" style="stroke:#404040;stroke-width:1.2;stroke-dasharray:7,7;"/><polygon fill="#404040" points="747.39,148.4494,755.7336,143.2163,750.1818,144.3014,749.0968,138.7495,747.39,148.4494" style="stroke:#404040;stroke-width:1.2;"/><text fill="#000000" font-family="sans-serif" font-size="13" lengthAdjust="spacing" textLength="49.1372" x="778.5" y="115.1045">identifier</text></g><!--link PrimaryKey to XsdAnyUri--><g class="link" data-entity-1="ent0015" data-entity-2="ent0002" data-link-type="dependency" data-source-line="26" id="lnk16"><path codeLine="26" d="M908.74,70.8094 C891.47,83.3694 862.73,103.5494 836.5,118.6094 C814.01,131.5194 793.0554,141.6737 772.7454,150.8737" fill="none" id="PrimaryKey-to-XsdAnyUri" style="stroke:#404040;stroke-width:1.2;stroke-dasharray:7,7;"/><polygon fill="#404040" points="767.28,153.3494,777.1286,153.2794,771.8345,151.2863,773.8277,145.9922,767.28,153.3494" style="stroke:#404040;stroke-width:1.2;"/><text fill="#000000" font-family="sans-serif" font-size="13" lengthAdjust="spacing" textLength="49.1372" x="864.5" y="115.1045">identifier</text></g><!--link PrimaryKeyComponent to XsdAnyUri--><g class="link" data-entity-1="ent0017" data-entity-2="ent0002" data-link-type="dependency" data-source-line="28" id="lnk18"><path codeLine="28" d="M1034.88,70.8094 C1008.11,83.7394 962.92,104.5994 922.5,118.6094 C869.12,137.1094 810.9693,151.0878 773.0893,159.4378" fill="none" id="PrimaryKeyComponent-to-XsdAnyUri" style="stroke:#404040;stroke-width:1.2;stroke-dasharray:7,7;"/><polygon fill="#404040" points="767.23,160.7294,776.8801,162.6982,772.1128,159.653,775.1579,154.8858,767.23,160.7294" style="stroke:#404040;stroke-width:1.2;"/><text fill="#000000" font-family="sans-serif" font-size="13" lengthAdjust="spacing" textLength="49.1372" x="968.5" y="115.1045">identifier</text></g><!--link ForeignKey to XsdAnyUri--><g class="link" data-entity-1="ent0019" data-entity-2="ent0002" data-link-type="dependency" data-source-line="30" id="lnk20"><path codeLine="30" d="M1165.07,70.6494 C1132.54,83.9294 1076.42,105.5894 1026.5,118.6094 C933.99,142.7494 827.7195,156.9833 773.2695,163.3433" fill="none" id="ForeignKey-to-XsdAnyUri" style="stroke:#404040;stroke-width:1.2;stroke-dasharray:7,7;"/><polygon fill="#404040" points="767.31,164.0394,776.7133,166.9682,772.2762,163.4593,775.7852,159.0222,767.31,164.0394" style="stroke:#404040;stroke-width:1.2;"/><text fill="#000000" font-family="sans-serif" font-size="13" lengthAdjust="spacing" textLength="49.1372" x="1082.5" y="115.1045">identifier</text></g><!--link ForeignKeyComponent to XsdAnyUri--><g class="link" data-entity-1="ent0021" data-entity-2="ent0002" data-link-type="dependency" data-source-line="32" id="lnk22"><path codeLine="32" d="M1295.54,70.7094 C1259.35,84.2594 1196.36,106.3694 1140.5,118.6094 C1003.7,148.5794 842.6683,161.0752 773.2083,165.4152" fill="none" id="ForeignKeyComponent-to-XsdAnyUri" style="stroke:#404040;stroke-width:1.2;stroke-dasharray:7,7;"/><polygon fill="#404040" points="767.22,165.7894,776.4519,169.2203,772.2103,165.4776,775.953,161.2359,767.22,165.7894" style="stroke:#404040;stroke-width:1.2;"/><text fill="#000000" font-family="sans-serif" font-size="13" lengthAdjust="spacing" textLength="49.1372" x="1208.5" y="115.1045">identifier</text></g><?plantuml-src bP9DRy8m38Rl-HKHtD5WssL2I1s5QTfb6cpQDKqDH2HnvGIXRjf_NscX7wpZextKZvtNhrDxvJNmJnS7DdqdnLOg1YuLIGt5DvZ4fzo0YO0SSsjb4q72SBSICMwLNVA5q0vgcO08j_ELaciBpl5-Rr1BIYqoziruKJP6ZSIxTpUxDuEFI37GCPsYzJFr1Rm_O3-C5HgTqdI72rUDm8V3M7WnJnCOZNXt6apkmzl3cJ3BXBYr6aMS7wi3tfta3sl0NczK4t_WsQLOhnOAw20wpierBjz0PkvprGOfPPlqM5UYNI0PDqSc8kT9IB-_hKwmZtU-Pfusqcy8ncWIj9cNlEFfajB2cRBpipvRvuMLy258YKX3tlmObkt-94uqk6Ze_sSzFU85auNAW7KAxHFX9YcMeu6gzMZYyzAlf8oWz0NINBOAIyaQkaQkkGCjlAN1DNzxYWHgQG_6gx3KhQ5hv9h6MtXBWukC_m80?></g></svg>