<svg xmlns="http://www.w3.org/2000/svg" xmlns:xlink="http://www.w3.org/1999/xlink" contentStyleType="text/css" data-diagram-type="CLASS" height="202px" preserveAspectRatio="none" style="width:519px;height:202px;background:#FFFFFF;" version="1.1" viewBox="0 0 519 202" width="519px" zoomAndPan="magnify"><?plantuml 1.2026.3?><defs/><g><g class="title" data-source-line="1"><text fill="#000000" font-family="sans-serif" font-size="14" font-weight="700" lengthAdjust="spacing" textLength="56.0205" x="228.3633" y="24.5332">XsdDate</text></g><!--class XsdDate--><g class="entity" data-qualified-name="XsdDate" data-source-line="12" id="ent0002"><rect fill="#FAE5D3" height="40.1875" rx="2.5" ry="2.5" style="stroke:#404040;stroke-width:0.5;" width="65.3809" x="231.96" y="148.6094"/><text fill="#000000" font-family="sans-serif" font-size="12" font-style="italic" lengthAdjust="spacing" textLength="63.3809" x="232.96" y="166.0664">&#171;dataType&#187;</text><text fill="#000000" font-family="sans-serif" font-size="12" lengthAdjust="spacing" textLength="46.0254" x="241.6377" y="181.1602">XsdDate</text></g><!--class Dataset--><g class="entity" data-qualified-name="Dataset" data-source-line="13" id="ent0003"><rect fill="#EEEEEE" height="25.0938" rx="2.5" ry="2.5" style="stroke:#404040;stroke-width:0.5;" width="47.3555" x="58.96" y="45.6094"/><text fill="#000000" font-family="sans-serif" font-size="12" lengthAdjust="spacing" textLength="41.3555" x="61.96" y="63.0664">Dataset</text></g><!--class TemporalExtent--><g class="entity" data-qualified-name="TemporalExtent" data-source-line="16" id="ent0006"><rect fill="#EEEEEE" height="25.0938" rx="2.5" ry="2.5" style="stroke:#404040;stroke-width:0.5;" width="90.7031" x="248.96" y="45.6094"/><text fill="#000000" font-family="sans-serif" font-size="12" lengthAdjust="spacing" textLength="84.7031" x="251.96" y="63.0664">TemporalExtent</text></g><!--class CatalogRecord--><g class="entity" data-qualified-name="CatalogRecord" data-source-line="19" id="ent0009"><rect fill="#EEEEEE" height="25.0938" rx="2.5" ry="2.5" style="stroke:#404040;stroke-width:0.5;" width="86.0449" x="406.46" y="45.6094"/><text fill="#000000" font-family="sans-serif" font-size="12" lengthAdjust="spacing" textLength="80.0449" x="409.46" y="63.0664">CatalogRecord</text></g><!--link Dataset to XsdDate--><g class="link" data-entity-1="ent0003" data-entity-2="ent0002" data-link-type="dependency" data-source-line="14" id="lnk4"><path codeLine="14" d="M58.96,69.1594 C35.81,80.4594 6,99.7194 21.46,118.6094 C47.7,150.6594 165.8918,161.844 225.8818,165.604" fill="none" id="Dataset-to-XsdDate" style="stroke:#404040;stroke-width:1.2;stroke-dasharray:7,7;"/><polygon fill="#404040" points="231.87,165.9794,223.1378,161.4242,226.8798,165.6666,222.6374,169.4086,231.87,165.9794" style="stroke:#404040;stroke-width:1.2;"/><text fill="#000000" font-family="sans-serif" font-size="13" lengthAdjust="spacing" textLength="74.439" x="22.46" y="115.1045">dateModified</text></g><!--link Dataset to XsdDate--><g class="link" data-entity-1="ent0003" data-entity-2="ent0002" data-link-type="dependency" data-source-line="15" id="lnk5"><path codeLine="15" d="M96.96,70.6094 C113.15,83.1894 140.38,103.5494 165.46,118.6094 C186.83,131.4394 206.5901,141.348 226.2101,150.478" fill="none" id="Dataset-to-XsdDate-1" style="stroke:#404040;stroke-width:1.2;stroke-dasharray:7,7;"/><polygon fill="#404040" points="231.65,153.0094,225.1778,145.5857,227.1168,150.8999,221.8026,152.8389,231.65,153.0094" style="stroke:#404040;stroke-width:1.2;"/><text fill="#000000" font-family="sans-serif" font-size="13" lengthAdjust="spacing" textLength="82.3989" x="166.46" y="115.1045">datePublished</text></g><!--link TemporalExtent to XsdDate--><g class="link" data-entity-1="ent0006" data-entity-2="ent0002" data-link-type="dependency" data-source-line="17" id="lnk7"><path codeLine="17" d="M281.55,70.8094 C274.11,78.4594 265.46,89.1394 261.46,100.6094 C256.05,116.1094 256.4761,128.9491 258.8761,142.6691" fill="none" id="TemporalExtent-to-XsdDate" style="stroke:#404040;stroke-width:1.2;stroke-dasharray:7,7;"/><polygon fill="#404040" points="259.91,148.5794,262.2994,139.0247,259.0484,143.6542,254.419,140.4032,259.91,148.5794" style="stroke:#404040;stroke-width:1.2;"/><text fill="#000000" font-family="sans-serif" font-size="13" lengthAdjust="spacing" textLength="52.7427" x="262.46" y="115.1045">startDate</text></g><!--link TemporalExtent to XsdDate--><g class="link" data-entity-1="ent0006" data-entity-2="ent0002" data-link-type="dependency" data-source-line="18" id="lnk8"><path codeLine="18" d="M305.46,71.0394 C315.2,83.0994 326.79,102.2494 319.46,118.6094 C314.18,130.3994 309.1628,136.7334 299.3828,144.6534" fill="none" id="TemporalExtent-to-XsdDate-1" style="stroke:#404040;stroke-width:1.2;stroke-dasharray:7,7;"/><polygon fill="#404040" points="294.72,148.4294,304.2315,145.8739,298.6057,145.2827,299.1969,139.6568,294.72,148.4294" style="stroke:#404040;stroke-width:1.2;"/><text fill="#000000" font-family="sans-serif" font-size="13" lengthAdjust="spacing" textLength="49.1499" x="322.46" y="115.1045">endDate</text></g><!--link CatalogRecord to XsdDate--><g class="link" data-entity-1="ent0009" data-entity-2="ent0002" data-link-type="dependency" data-source-line="20" id="lnk10"><path codeLine="20" d="M438.14,70.8694 C425.16,83.8494 402.77,104.7594 380.46,118.6094 C353.99,135.0394 326.6993,146.3382 302.6893,154.9282" fill="none" id="CatalogRecord-to-XsdDate" style="stroke:#404040;stroke-width:1.2;stroke-dasharray:7,7;"/><polygon fill="#404040" points="297.04,156.9494,306.8614,157.6839,301.7478,155.2651,304.1666,150.1514,297.04,156.9494" style="stroke:#404040;stroke-width:1.2;"/><text fill="#000000" font-family="sans-serif" font-size="13" lengthAdjust="spacing" textLength="98.2871" x="405.46" y="115.1045">sdDatePublished</text></g><?plantuml-src VL7BJiCm4BpxArRDFQ85BgYAr4TwGqAG0zUjlMsiEdRaDIe5yU-Ol6Xog7qPpuvcrhj11qFmpcgBWKIf5O7KNfeEKrM72rHKxScpu9EsDNgiW4jKxgpj4GvecAugA-_TkIYrF5bYXdcwk2fAWv7x5j3ADiuu3yd3tT-DvDfvHNxAxfmDR_gBOBuGFqAq7hEkvHaWz-t3SgamO76fASiWsQton-rzhuy2P0gDliEGvCqH_JjDiy7h2Q8NFJkb3vhK3SdBnzveBgEcIohYq9n7aty6ictWc1fo9_JOcmFwq6pbfenikxekV1FxDExuIZBEiiaUCKFqc9qaD-3_Nxy0?></g></svg>