<svg xmlns="http://www.w3.org/2000/svg" xmlns:xlink="http://www.w3.org/1999/xlink" contentStyleType="text/css" data-diagram-type="CLASS" height="202px" preserveAspectRatio="none" style="width:1267px;height:202px;background:#FFFFFF;" version="1.1" viewBox="0 0 1267 202" width="1267px" zoomAndPan="magnify"><?plantuml 1.2026.3?><defs/><g><g class="title" data-source-line="1"><text fill="#000000" font-family="sans-serif" font-size="14" font-weight="700" lengthAdjust="spacing" textLength="56.0205" x="602.1942" y="24.5332">XsdDate</text></g><!--class XsdDate--><g class="entity" data-qualified-name="XsdDate" data-source-line="12" id="ent0002"><rect fill="#FAE5D3" height="40.1875" rx="2.5" ry="2.5" style="stroke:#404040;stroke-width:0.5;" width="65.3809" x="611.47" y="148.6094"/><text fill="#000000" font-family="sans-serif" font-size="12" font-style="italic" lengthAdjust="spacing" textLength="63.3809" x="612.47" y="166.0664">&#171;dataType&#187;</text><text fill="#000000" font-family="sans-serif" font-size="12" lengthAdjust="spacing" textLength="46.0254" x="621.1477" y="181.1602">XsdDate</text></g><!--class DataDownload--><g class="entity" data-qualified-name="DataDownload" data-source-line="13" id="ent0003"><rect fill="#EEEEEE" height="25.0938" rx="2.5" ry="2.5" style="stroke:#404040;stroke-width:0.5;" width="84.7148" x="40.47" y="45.6094"/><text fill="#000000" font-family="sans-serif" font-size="12" lengthAdjust="spacing" textLength="78.7148" x="43.47" y="63.0664">DataDownload</text></g><!--class Dataset--><g class="entity" data-qualified-name="Dataset" data-source-line="16" id="ent0006"><rect fill="#EEEEEE" height="25.0938" rx="2.5" ry="2.5" style="stroke:#404040;stroke-width:0.5;" width="47.3555" x="299.47" y="45.6094"/><text fill="#000000" font-family="sans-serif" font-size="12" lengthAdjust="spacing" textLength="41.3555" x="302.47" y="63.0664">Dataset</text></g><!--class TemporalExtent--><g class="entity" data-qualified-name="TemporalExtent" data-source-line="19" id="ent0009"><rect fill="#EEEEEE" height="25.0938" rx="2.5" ry="2.5" style="stroke:#404040;stroke-width:0.5;" width="90.7031" x="495.47" y="45.6094"/><text fill="#000000" font-family="sans-serif" font-size="12" lengthAdjust="spacing" textLength="84.7031" x="498.47" y="63.0664">TemporalExtent</text></g><!--class Contributor--><g class="entity" data-qualified-name="Contributor" data-source-line="22" id="ent0012"><rect fill="#EEEEEE" height="25.0938" rx="2.5" ry="2.5" style="stroke:#404040;stroke-width:0.5;" width="65.3613" x="698.47" y="45.6094"/><text fill="#000000" font-family="sans-serif" font-size="12" lengthAdjust="spacing" textLength="59.3613" x="701.47" y="63.0664">Contributor</text></g><!--class ProvActivity--><g class="entity" data-qualified-name="ProvActivity" data-source-line="25" id="ent0015"><rect fill="#EEEEEE" height="25.0938" rx="2.5" ry="2.5" style="stroke:#404040;stroke-width:0.5;" width="68.6777" x="901.47" y="45.6094"/><text fill="#000000" font-family="sans-serif" font-size="12" lengthAdjust="spacing" textLength="62.6777" x="904.47" y="63.0664">ProvActivity</text></g><!--class CatalogRecord--><g class="entity" data-qualified-name="CatalogRecord" data-source-line="28" id="ent0018"><rect fill="#EEEEEE" height="25.0938" rx="2.5" ry="2.5" style="stroke:#404040;stroke-width:0.5;" width="86.0449" x="1128.97" y="45.6094"/><text fill="#000000" font-family="sans-serif" font-size="12" lengthAdjust="spacing" textLength="80.0449" x="1131.97" y="63.0664">CatalogRecord</text></g><!--link DataDownload to XsdDate--><g class="link" data-entity-1="ent0003" data-entity-2="ent0002" data-link-type="dependency" data-source-line="14" id="lnk4"><path codeLine="14" d="M56.46,70.8194 C33.4,82.5694 6,101.3394 21.97,118.6094 C62.23,162.1594 482.8001,167.0349 605.2701,167.5349" fill="none" id="DataDownload-to-XsdDate" style="stroke:#404040;stroke-width:1.2;stroke-dasharray:7,7;"/><polygon fill="#404040" points="611.27,167.5594,602.2864,163.5227,606.27,167.539,602.2537,171.5226,611.27,167.5594" style="stroke:#404040;stroke-width:1.2;"/><text fill="#000000" font-family="sans-serif" font-size="13" lengthAdjust="spacing" textLength="74.439" x="22.97" y="115.1045">dateModified</text></g><!--link DataDownload to XsdDate--><g class="link" data-entity-1="ent0003" data-entity-2="ent0002" data-link-type="dependency" data-source-line="15" id="lnk5"><path codeLine="15" d="M94.7,70.6394 C109.79,84.6594 137.45,107.8094 165.97,118.6094 C247.88,149.6294 511.0647,162.493 605.1547,166.203" fill="none" id="DataDownload-to-XsdDate-1" style="stroke:#404040;stroke-width:1.2;stroke-dasharray:7,7;"/><polygon fill="#404040" points="611.15,166.4394,602.3146,162.0879,606.1539,166.2424,601.9994,170.0817,611.15,166.4394" style="stroke:#404040;stroke-width:1.2;"/><text fill="#000000" font-family="sans-serif" font-size="13" lengthAdjust="spacing" textLength="82.3989" x="166.97" y="115.1045">datePublished</text></g><!--link Dataset to XsdDate--><g class="link" data-entity-1="ent0006" data-entity-2="ent0002" data-link-type="dependency" data-source-line="17" id="lnk7"><path codeLine="17" d="M299.21,69.3694 C275.85,80.8594 245.85,100.2794 261.97,118.6094 C284.97,144.7394 517.3499,160.4341 605.4699,165.5141" fill="none" id="Dataset-to-XsdDate" style="stroke:#404040;stroke-width:1.2;stroke-dasharray:7,7;"/><polygon fill="#404040" points="611.46,165.8594,602.7051,161.348,606.4683,165.5716,602.2447,169.3348,611.46,165.8594" style="stroke:#404040;stroke-width:1.2;"/><text fill="#000000" font-family="sans-serif" font-size="13" lengthAdjust="spacing" textLength="74.439" x="262.97" y="115.1045">dateModified</text></g><!--link Dataset to XsdDate--><g class="link" data-entity-1="ent0006" data-entity-2="ent0002" data-link-type="dependency" data-source-line="18" id="lnk8"><path codeLine="18" d="M335.61,70.6394 C351.21,84.2294 379.11,106.4994 406.97,118.6094 C475.94,148.5894 558.3576,160.0243 605.2976,164.5443" fill="none" id="Dataset-to-XsdDate-1" style="stroke:#404040;stroke-width:1.2;stroke-dasharray:7,7;"/><polygon fill="#404040" points="611.27,165.1194,602.6948,160.2751,606.293,164.6401,601.928,168.2383,611.27,165.1194" style="stroke:#404040;stroke-width:1.2;"/><text fill="#000000" font-family="sans-serif" font-size="13" lengthAdjust="spacing" textLength="82.3989" x="407.97" y="115.1045">datePublished</text></g><!--link TemporalExtent to XsdDate--><g class="link" data-entity-1="ent0009" data-entity-2="ent0002" data-link-type="dependency" data-source-line="20" id="lnk10"><path codeLine="20" d="M524.36,70.6894 C509.06,82.8194 490.36,102.3194 501.97,118.6094 C526.72,153.3294 571.8029,163.1655 605.4629,166.1155" fill="none" id="TemporalExtent-to-XsdDate" style="stroke:#404040;stroke-width:1.2;stroke-dasharray:7,7;"/><polygon fill="#404040" points="611.44,166.6394,602.8236,161.8689,606.4591,166.2028,602.1251,169.8383,611.44,166.6394" style="stroke:#404040;stroke-width:1.2;"/><text fill="#000000" font-family="sans-serif" font-size="13" lengthAdjust="spacing" textLength="52.7427" x="502.97" y="115.1045">startDate</text></g><!--link TemporalExtent to XsdDate--><g class="link" data-entity-1="ent0009" data-entity-2="ent0002" data-link-type="dependency" data-source-line="21" id="lnk11"><path codeLine="21" d="M551.99,70.7194 C569.64,89.3094 600.279,121.588 621.649,144.098" fill="none" id="TemporalExtent-to-XsdDate-1" style="stroke:#404040;stroke-width:1.2;stroke-dasharray:7,7;"/><polygon fill="#404040" points="625.78,148.4494,622.4844,139.1683,622.3375,144.8232,616.6825,144.6763,625.78,148.4494" style="stroke:#404040;stroke-width:1.2;"/><text fill="#000000" font-family="sans-serif" font-size="13" lengthAdjust="spacing" textLength="49.1499" x="596.97" y="115.1045">endDate</text></g><!--link Contributor to XsdDate--><g class="link" data-entity-1="ent0012" data-entity-2="ent0002" data-link-type="dependency" data-source-line="23" id="lnk13"><path codeLine="23" d="M717.04,70.6694 C707.94,78.5894 696.09,89.6194 686.97,100.6094 C674.44,115.7094 665.597,129.493 657.517,143.383" fill="none" id="Contributor-to-XsdDate" style="stroke:#404040;stroke-width:1.2;stroke-dasharray:7,7;"/><polygon fill="#404040" points="654.5,148.5694,662.483,142.8012,657.0141,144.2474,655.5679,138.7786,654.5,148.5694" style="stroke:#404040;stroke-width:1.2;"/><text fill="#000000" font-family="sans-serif" font-size="13" lengthAdjust="spacing" textLength="52.7427" x="687.97" y="115.1045">startDate</text></g><!--link Contributor to XsdDate--><g class="link" data-entity-1="ent0012" data-entity-2="ent0002" data-link-type="dependency" data-source-line="24" id="lnk14"><path codeLine="24" d="M738.68,70.9294 C745.87,83.5894 754.21,103.8594 744.97,118.6094 C730.07,142.3894 705.7682,153.3492 682.2882,159.7592" fill="none" id="Contributor-to-XsdDate-1" style="stroke:#404040;stroke-width:1.2;stroke-dasharray:7,7;"/><polygon fill="#404040" points="676.5,161.3394,686.2357,162.8279,681.3235,160.0226,684.1288,155.1103,676.5,161.3394" style="stroke:#404040;stroke-width:1.2;"/><text fill="#000000" font-family="sans-serif" font-size="13" lengthAdjust="spacing" textLength="49.1499" x="750.97" y="115.1045">endDate</text></g><!--link ProvActivity to XsdDate--><g class="link" data-entity-1="ent0015" data-entity-2="ent0002" data-link-type="dependency" data-source-line="26" id="lnk16"><path codeLine="26" d="M913.93,70.6694 C888.93,83.4894 846.75,104.2394 808.97,118.6094 C764,135.7094 716.1363,149.167 682.5063,157.927" fill="none" id="ProvActivity-to-XsdDate" style="stroke:#404040;stroke-width:1.2;stroke-dasharray:7,7;"/><polygon fill="#404040" points="676.7,159.4394,686.4177,161.0416,681.5385,158.179,684.4011,153.2999,676.7,159.4394" style="stroke:#404040;stroke-width:1.2;"/><text fill="#000000" font-family="sans-serif" font-size="13" lengthAdjust="spacing" textLength="80.9136" x="852.97" y="115.1045">startedAtTime</text></g><!--link ProvActivity to XsdDate--><g class="link" data-entity-1="ent0015" data-entity-2="ent0002" data-link-type="dependency" data-source-line="27" id="lnk17"><path codeLine="27" d="M941.61,70.6594 C947.15,83.8394 953.26,105.3094 941.97,118.6094 C908.21,158.3794 752.8688,165.8106 682.6888,167.2006" fill="none" id="ProvActivity-to-XsdDate-1" style="stroke:#404040;stroke-width:1.2;stroke-dasharray:7,7;"/><polygon fill="#404040" points="676.69,167.3194,685.7674,171.1404,681.689,167.2204,685.609,163.1419,676.69,167.3194" style="stroke:#404040;stroke-width:1.2;"/><text fill="#000000" font-family="sans-serif" font-size="13" lengthAdjust="spacing" textLength="77.3208" x="949.97" y="115.1045">endedAtTime</text></g><!--link CatalogRecord to XsdDate--><g class="link" data-entity-1="ent0018" data-entity-2="ent0002" data-link-type="dependency" data-source-line="29" id="lnk19"><path codeLine="29" d="M1150.54,70.8094 C1124.33,84.5694 1078.21,106.9894 1035.97,118.6094 C906.03,154.3494 750.6056,163.8602 682.5956,166.4602" fill="none" id="CatalogRecord-to-XsdDate" style="stroke:#404040;stroke-width:1.2;stroke-dasharray:7,7;"/><polygon fill="#404040" points="676.6,166.6894,685.7462,170.3426,681.5964,166.4984,685.4406,162.3485,676.6,166.6894" style="stroke:#404040;stroke-width:1.2;"/><text fill="#000000" font-family="sans-serif" font-size="13" lengthAdjust="spacing" textLength="71.5508" x="1086.97" y="115.1045">dateCreated</text></g><!--link CatalogRecord to XsdDate--><g class="link" data-entity-1="ent0018" data-entity-2="ent0002" data-link-type="dependency" data-source-line="30" id="lnk20"><path codeLine="30" d="M1174.95,70.9794 C1177.55,84.4794 1179.23,106.2394 1166.97,118.6094 C1132.4,153.5194 791.4183,164.2384 682.4983,166.7984" fill="none" id="CatalogRecord-to-XsdDate-1" style="stroke:#404040;stroke-width:1.2;stroke-dasharray:7,7;"/><polygon fill="#404040" points="676.5,166.9394,685.5915,170.7268,681.4986,166.8219,685.4035,162.729,676.5,166.9394" style="stroke:#404040;stroke-width:1.2;"/><text fill="#000000" font-family="sans-serif" font-size="13" lengthAdjust="spacing" textLength="74.439" x="1176.97" y="115.1045">dateModified</text></g><?plantuml-src XPBBRi8m44Nt_eeHx56XxQP2I2cFNINKPj6jYGTYuTXeF41frN-lII1rU2PIP1_VpB4rPiq6uTEhaMGKkLO8cQRC7CPOh7W71HOp92_yKjkL95c0pwLoMsqNC9V6OxII4BbjckjiQT5xw7PwqM9cP60_0ghOq1b7q7vwsBy1lZfIIATquYn_w6-4Ra_y2b7LQ1sst0BfZzk7Vbz9bkbkXOC1j2V9-7dqUCo7W1ovhJLEglAd641xN3wY0JkTGLtw1K9fV7DAppMgUxdfUcQqpqCmidlaMXp63UT-VaTtEN9cIaFB74ap_cAqbR29Qky9RjRsB8dBEt4pXhQwE0VvCBIAz6pDZafpDA-rCRlcl9uv4Kx9RPACzKRphZJ6e5Osu0KdgeHJNU2jO13NiUDfGrUCMxnZ5kvjTTwO_9-uGSzxE2GCNtKtLr-7Fm00?></g></svg>