<svg xmlns="http://www.w3.org/2000/svg" xmlns:xlink="http://www.w3.org/1999/xlink" contentStyleType="text/css" data-diagram-type="CLASS" height="1198px" preserveAspectRatio="none" style="width:1404px;height:1198px;background:#FFFFFF;" version="1.1" viewBox="0 0 1404 1198" width="1404px" zoomAndPan="magnify"><?plantuml 1.2026.3?><defs/><g><g class="title" data-source-line="1"><text fill="#000000" font-family="sans-serif" font-size="14" font-weight="700" lengthAdjust="spacing" textLength="186.4297" x="605.5527" y="24.5332">BasicDiscovery &#8212; overview</text></g><!--class CompositeProfile--><g class="entity" data-qualified-name="CompositeProfile" data-source-line="15" id="ent0002"><rect fill="#FEFECE" height="25.0938" rx="2.5" ry="2.5" style="stroke:#404040;stroke-width:0.5;" width="97.3711" x="7" y="58.9658"/><text fill="#000000" font-family="sans-serif" font-size="12" font-style="italic" lengthAdjust="spacing" textLength="91.3711" x="10" y="76.4229">CompositeProfile</text></g><!--class Dataset--><g class="entity" data-qualified-name="Dataset" data-source-line="16" id="ent0003"><rect fill="#FEFECE" height="25.0938" rx="2.5" ry="2.5" style="stroke:#404040;stroke-width:0.5;" width="47.3555" x="638" y="58.9658"/><text fill="#000000" font-family="sans-serif" font-size="12" lengthAdjust="spacing" textLength="41.3555" x="641" y="76.4229">Dataset</text></g><!--class AbstractDistribution--><g class="entity" data-qualified-name="AbstractDistribution" data-source-line="17" id="ent0004"><rect fill="#D6EAF8" height="25.0938" rx="2.5" ry="2.5" style="stroke:#404040;stroke-width:0.5;" width="110.0391" x="320.5" y="333.9658"/><text fill="#000000" font-family="sans-serif" font-size="12" font-style="italic" lengthAdjust="spacing" textLength="104.0391" x="323.5" y="351.4229">AbstractDistribution</text></g><!--class DataDownload--><g class="entity" data-qualified-name="DataDownload" data-source-line="18" id="ent0005"><rect fill="#FEFECE" height="25.0938" rx="2.5" ry="2.5" style="stroke:#404040;stroke-width:0.5;" width="84.7148" x="308" y="608.9658"/><text fill="#000000" font-family="sans-serif" font-size="12" lengthAdjust="spacing" textLength="78.7148" x="311" y="626.4229">DataDownload</text></g><!--class WebAPI--><g class="entity" data-qualified-name="WebAPI" data-source-line="19" id="ent0006"><rect fill="#FCF3CF" height="25.0938" rx="2.5" ry="2.5" style="stroke:#404040;stroke-width:0.5;" width="50.0156" x="646.5" y="608.9658"/><text fill="#000000" font-family="sans-serif" font-size="12" lengthAdjust="spacing" textLength="44.0156" x="649.5" y="626.4229">WebAPI</text></g><!--class Action--><g class="entity" data-qualified-name="Action" data-source-line="20" id="ent0007"><rect fill="#D6EAF8" height="25.0938" rx="2.5" ry="2.5" style="stroke:#404040;stroke-width:0.5;" width="39.3516" x="652" y="883.9658"/><text fill="#000000" font-family="sans-serif" font-size="12" lengthAdjust="spacing" textLength="33.3516" x="655" y="901.4229">Action</text></g><!--class EntryPoint--><g class="entity" data-qualified-name="EntryPoint" data-source-line="21" id="ent0008"><rect fill="#D6EAF8" height="25.0938" rx="2.5" ry="2.5" style="stroke:#404040;stroke-width:0.5;" width="61.3594" x="554" y="1158.9658"/><text fill="#000000" font-family="sans-serif" font-size="12" lengthAdjust="spacing" textLength="55.3594" x="557" y="1176.4229">EntryPoint</text></g><!--class ActionResult--><g class="entity" data-qualified-name="ActionResult" data-source-line="22" id="ent0009"><rect fill="#FCF3CF" height="25.0938" rx="2.5" ry="2.5" style="stroke:#404040;stroke-width:0.5;" width="73.3652" x="635" y="1158.9658"/><text fill="#000000" font-family="sans-serif" font-size="12" lengthAdjust="spacing" textLength="67.3652" x="638" y="1176.4229">ActionResult</text></g><!--class PropertyValueSpecification--><g class="entity" data-qualified-name="PropertyValueSpecification" data-source-line="23" id="ent0010"><rect fill="#D6EAF8" height="25.0938" rx="2.5" ry="2.5" style="stroke:#404040;stroke-width:0.5;" width="150.082" x="728.5" y="1158.9658"/><text fill="#000000" font-family="sans-serif" font-size="12" lengthAdjust="spacing" textLength="144.082" x="731.5" y="1176.4229">PropertyValueSpecification</text></g><!--class Agent--><g class="entity" data-qualified-name="Agent" data-source-line="24" id="ent0011"><rect fill="#D6EAF8" height="25.0938" rx="2.5" ry="2.5" style="stroke:#404040;stroke-width:0.5;" width="37.3594" x="332" y="883.9658"/><text fill="#000000" font-family="sans-serif" font-size="12" font-style="italic" lengthAdjust="spacing" textLength="31.3594" x="335" y="901.4229">Agent</text></g><!--class Person--><g class="entity" data-qualified-name="Person" data-source-line="25" id="ent0012"><rect fill="#D6EAF8" height="25.0938" rx="2.5" ry="2.5" style="stroke:#404040;stroke-width:0.5;" width="44.0215" x="289.5" y="1158.9658"/><text fill="#000000" font-family="sans-serif" font-size="12" lengthAdjust="spacing" textLength="38.0215" x="292.5" y="1176.4229">Person</text></g><!--class ContactPoint--><g class="entity" data-qualified-name="ContactPoint" data-source-line="26" id="ent0013"><rect fill="#D6EAF8" height="25.0938" rx="2.5" ry="2.5" style="stroke:#404040;stroke-width:0.5;" width="74.707" x="124" y="58.9658"/><text fill="#000000" font-family="sans-serif" font-size="12" lengthAdjust="spacing" textLength="68.707" x="127" y="76.4229">ContactPoint</text></g><!--class Organization--><g class="entity" data-qualified-name="Organization" data-source-line="27" id="ent0014"><rect fill="#D6EAF8" height="25.0938" rx="2.5" ry="2.5" style="stroke:#404040;stroke-width:0.5;" width="74.0391" x="353.5" y="1158.9658"/><text fill="#000000" font-family="sans-serif" font-size="12" lengthAdjust="spacing" textLength="68.0391" x="356.5" y="1176.4229">Organization</text></g><!--class Contributor--><g class="entity" data-qualified-name="Contributor" data-source-line="28" id="ent0015"><rect fill="#D6EAF8" height="25.0938" rx="2.5" ry="2.5" style="stroke:#404040;stroke-width:0.5;" width="65.3613" x="413" y="608.9658"/><text fill="#000000" font-family="sans-serif" font-size="12" lengthAdjust="spacing" textLength="59.3613" x="416" y="626.4229">Contributor</text></g><!--class DefinedTerm--><g class="entity" data-qualified-name="DefinedTerm" data-source-line="29" id="ent0016"><rect fill="#D5F5E3" height="25.0938" rx="2.5" ry="2.5" style="stroke:#404040;stroke-width:0.5;" width="75.3574" x="717" y="608.9658"/><text fill="#000000" font-family="sans-serif" font-size="12" lengthAdjust="spacing" textLength="69.3574" x="720" y="626.4229">DefinedTerm</text></g><!--class Identifier--><g class="entity" data-qualified-name="Identifier" data-source-line="30" id="ent0017"><rect fill="#D6EAF8" height="25.0938" rx="2.5" ry="2.5" style="stroke:#404040;stroke-width:0.5;" width="52.0254" x="29.5" y="333.9658"/><text fill="#000000" font-family="sans-serif" font-size="12" lengthAdjust="spacing" textLength="46.0254" x="32.5" y="351.4229">Identifier</text></g><!--class AdditionalProperty--><g class="entity" data-qualified-name="AdditionalProperty" data-source-line="31" id="ent0018"><rect fill="#D6EAF8" height="25.0938" rx="2.5" ry="2.5" style="stroke:#404040;stroke-width:0.5;" width="104.0566" x="101.5" y="333.9658"/><text fill="#000000" font-family="sans-serif" font-size="12" lengthAdjust="spacing" textLength="98.0566" x="104.5" y="351.4229">AdditionalProperty</text></g><!--class Reference--><g class="entity" data-qualified-name="Reference" data-source-line="32" id="ent0019"><rect fill="#D6EAF8" height="25.0938" rx="2.5" ry="2.5" style="stroke:#404040;stroke-width:0.5;" width="61.3652" x="826" y="333.9658"/><text fill="#000000" font-family="sans-serif" font-size="12" lengthAdjust="spacing" textLength="55.3652" x="829" y="351.4229">Reference</text></g><!--class MonetaryGrant--><g class="entity" data-qualified-name="MonetaryGrant" data-source-line="33" id="ent0020"><rect fill="#D6EAF8" height="25.0938" rx="2.5" ry="2.5" style="stroke:#404040;stroke-width:0.5;" width="86.0332" x="498.5" y="608.9658"/><text fill="#000000" font-family="sans-serif" font-size="12" lengthAdjust="spacing" textLength="80.0332" x="501.5" y="626.4229">MonetaryGrant</text></g><!--class ProvActivity--><g class="entity" data-qualified-name="ProvActivity" data-source-line="34" id="ent0021"><rect fill="#FEFECE" height="25.0938" rx="2.5" ry="2.5" style="stroke:#404040;stroke-width:0.5;" width="68.6777" x="907" y="333.9658"/><text fill="#000000" font-family="sans-serif" font-size="12" lengthAdjust="spacing" textLength="62.6777" x="910" y="351.4229">ProvActivity</text></g><!--class DerivedFrom--><g class="entity" data-qualified-name="DerivedFrom" data-source-line="35" id="ent0022"><rect fill="#D6EAF8" height="25.0938" rx="2.5" ry="2.5" style="stroke:#404040;stroke-width:0.5;" width="75.3457" x="996" y="333.9658"/><text fill="#000000" font-family="sans-serif" font-size="12" lengthAdjust="spacing" textLength="69.3457" x="999" y="351.4229">DerivedFrom</text></g><!--class CatalogRecord--><g class="entity" data-qualified-name="CatalogRecord" data-source-line="36" id="ent0023"><rect fill="#FEFECE" height="25.0938" rx="2.5" ry="2.5" style="stroke:#404040;stroke-width:0.5;" width="86.0449" x="534.5" y="333.9658"/><text fill="#000000" font-family="sans-serif" font-size="12" lengthAdjust="spacing" textLength="80.0449" x="537.5" y="351.4229">CatalogRecord</text></g><!--class VariableMeasured--><g class="entity" data-qualified-name="VariableMeasured" data-source-line="37" id="ent0024"><rect fill="#D5F5E3" height="25.0938" rx="2.5" ry="2.5" style="stroke:#404040;stroke-width:0.5;" width="103.3887" x="703" y="333.9658"/><text fill="#000000" font-family="sans-serif" font-size="12" lengthAdjust="spacing" textLength="97.3887" x="706" y="351.4229">VariableMeasured</text></g><!--class SpatialExtent--><g class="entity" data-qualified-name="SpatialExtent" data-source-line="38" id="ent0025"><rect fill="#D5F5E3" height="25.0938" rx="2.5" ry="2.5" style="stroke:#404040;stroke-width:0.5;" width="76.7109" x="1091" y="333.9658"/><text fill="#000000" font-family="sans-serif" font-size="12" lengthAdjust="spacing" textLength="70.7109" x="1094" y="351.4229">SpatialExtent</text></g><!--class TemporalExtent--><g class="entity" data-qualified-name="TemporalExtent" data-source-line="39" id="ent0026"><rect fill="#D5F5E3" height="25.0938" rx="2.5" ry="2.5" style="stroke:#404040;stroke-width:0.5;" width="90.7031" x="1188" y="333.9658"/><text fill="#000000" font-family="sans-serif" font-size="12" lengthAdjust="spacing" textLength="84.7031" x="1191" y="351.4229">TemporalExtent</text></g><!--class QualityMeasure--><g class="entity" data-qualified-name="QualityMeasure" data-source-line="40" id="ent0027"><rect fill="#D5F5E3" height="25.0938" rx="2.5" ry="2.5" style="stroke:#404040;stroke-width:0.5;" width="90.0352" x="1299.5" y="333.9658"/><text fill="#000000" font-family="sans-serif" font-size="12" lengthAdjust="spacing" textLength="84.0352" x="1302.5" y="351.4229">QualityMeasure</text></g><!--reverse link AbstractDistribution to DataDownload--><g class="link" data-entity-1="ent0004" data-entity-2="ent0005" data-link-type="extension" data-source-line="41" id="lnk28"><path codeLine="41" d="M356.75,376.9958 C356.75,422.8058 356.75,562.9258 356.75,608.8658" fill="none" id="AbstractDistribution-backto-DataDownload" style="stroke:#404040;stroke-width:1.2;"/><polygon fill="none" points="356.75,358.9958,350.75,376.9958,362.75,376.9958,356.75,358.9958" style="stroke:#404040;stroke-width:1.2;"/></g><!--reverse link AbstractDistribution to WebAPI--><g class="link" data-entity-1="ent0004" data-entity-2="ent0006" data-link-type="extension" data-source-line="42" id="lnk29"><path codeLine="42" d="M421.75,377.0058 C421.75,420.9058 421.75,546.9658 421.75,546.9658 C421.75,546.9658 654.2,546.9658 654.2,546.9658 C654.2,546.9658 654.2,587.5758 654.2,608.8258" fill="none" id="AbstractDistribution-backto-WebAPI" style="stroke:#404040;stroke-width:1.2;"/><polygon fill="none" points="421.75,359.0058,415.75,377.0058,427.75,377.0058,421.75,359.0058" style="stroke:#404040;stroke-width:1.2;"/></g><!--reverse link Agent to Person--><g class="link" data-entity-1="ent0011" data-entity-2="ent0012" data-link-type="extension" data-source-line="43" id="lnk30"><path codeLine="43" d="M343.5,927.0158 C343.5,980.9158 343.5,1171.9658 343.5,1171.9658 C343.5,1171.9658 339.19,1171.9658 333.73,1171.9658" fill="none" id="Agent-backto-Person" style="stroke:#404040;stroke-width:1.2;"/><polygon fill="none" points="343.5,909.0158,337.5,927.0158,349.5,927.0158,343.5,909.0158" style="stroke:#404040;stroke-width:1.2;"/></g><!--reverse link Agent to Organization--><g class="link" data-entity-1="ent0011" data-entity-2="ent0014" data-link-type="extension" data-source-line="44" id="lnk31"><path codeLine="44" d="M361.25,926.9958 C361.25,972.8058 361.25,1112.9258 361.25,1158.8658" fill="none" id="Agent-backto-Organization" style="stroke:#404040;stroke-width:1.2;"/><polygon fill="none" points="361.25,908.9958,355.25,926.9958,367.25,926.9958,361.25,908.9958" style="stroke:#404040;stroke-width:1.2;"/></g><!--link Dataset to Agent--><g class="link" data-entity-1="ent0003" data-entity-2="ent0011" data-link-type="dependency" data-source-line="45" id="lnk32"><path codeLine="45" d="M637.69,75.9658 C632.11,75.9658 627.75,75.9658 627.75,75.9658 C627.75,75.9658 627.75,899.9658 627.75,899.9658 C627.75,899.9658 437.28,899.9658 375.12,899.9658" fill="none" id="Dataset-to-Agent" style="stroke:#404040;stroke-width:1.2;"/><polygon fill="#404040" points="369.12,899.9658,378.12,903.9658,374.12,899.9658,378.12,895.9658,369.12,899.9658" style="stroke:#404040;stroke-width:1.2;"/><text fill="#000000" font-family="sans-serif" font-size="13" lengthAdjust="spacing" textLength="46.9663" x="592.75" y="626.8009">provider</text><text fill="#000000" font-family="sans-serif" font-size="13" lengthAdjust="spacing" textLength="19.5127" x="377.4028" y="896.1769">0..*</text></g><!--link Dataset to Agent--><g class="link" data-entity-1="ent0003" data-entity-2="ent0011" data-link-type="dependency" data-source-line="47" id="lnk34"><path codeLine="47" d="M637.62,71.9658 C630.29,71.9658 624.12,71.9658 624.12,71.9658 C624.12,71.9658 624.12,896.9658 624.12,896.9658 C624.12,896.9658 437.13,896.9658 375.31,896.9658" fill="none" id="Dataset-to-Agent-1" style="stroke:#404040;stroke-width:1.2;"/><polygon fill="#404040" points="369.31,896.9658,378.31,900.9658,374.31,896.9658,378.31,892.9658,369.31,896.9658" style="stroke:#404040;stroke-width:1.2;"/><text fill="#000000" font-family="sans-serif" font-size="13" lengthAdjust="spacing" textLength="40.46" x="583.12" y="601.6209">creator</text><text fill="#000000" font-family="sans-serif" font-size="13" lengthAdjust="spacing" textLength="19.5127" x="377.2937" y="912.8878">0..*</text></g><!--link Dataset to Agent--><g class="link" data-entity-1="ent0003" data-entity-2="ent0011" data-link-type="dependency" data-source-line="49" id="lnk36"><path codeLine="49" d="M637.76,79.9658 C634.03,79.9658 631.38,79.9658 631.38,79.9658 C631.38,79.9658 631.38,902.9658 631.38,902.9658 C631.38,902.9658 438.34,902.9658 375.37,902.9658" fill="none" id="Dataset-to-Agent-2" style="stroke:#404040;stroke-width:1.2;"/><polygon fill="#404040" points="369.37,902.9658,378.37,906.9658,374.37,902.9658,378.37,898.9658,369.37,902.9658" style="stroke:#404040;stroke-width:1.2;"/><text fill="#000000" font-family="sans-serif" font-size="13" lengthAdjust="spacing" textLength="52.7554" x="632.38" y="615.7709">publisher</text><text fill="#000000" font-family="sans-serif" font-size="13" lengthAdjust="spacing" textLength="21.6836" x="356.6888" y="930.7241">0..1</text></g><!--link Dataset to AbstractDistribution--><g class="link" data-entity-1="ent0003" data-entity-2="ent0004" data-link-type="dependency" data-source-line="46" id="lnk33"><path codeLine="46" d="M637.61,63.9658 C568.87,63.9658 375.5,63.9658 375.5,63.9658 C375.5,63.9658 375.5,273.2858 375.5,327.9658" fill="none" id="Dataset-to-AbstractDistribution" style="stroke:#404040;stroke-width:1.2;"/><polygon fill="#404040" points="375.5,333.9658,379.5,324.9658,375.5,328.9658,371.5,324.9658,375.5,333.9658" style="stroke:#404040;stroke-width:1.2;"/><text fill="#000000" font-family="sans-serif" font-size="13" lengthAdjust="spacing" textLength="62.8672" x="312.5" y="64.4009">distribution</text><text fill="#000000" font-family="sans-serif" font-size="13" lengthAdjust="spacing" textLength="19.5127" x="352.6789" y="323.0579">0..*</text></g><!--link Dataset to Contributor--><g class="link" data-entity-1="ent0003" data-entity-2="ent0015" data-link-type="dependency" data-source-line="48" id="lnk35"><path codeLine="48" d="M637.73,67.9658 C583.29,67.9658 454.25,67.9658 454.25,67.9658 C454.25,67.9658 454.25,520.4758 454.25,602.8658" fill="none" id="Dataset-to-Contributor" style="stroke:#404040;stroke-width:1.2;"/><polygon fill="#404040" points="454.25,608.8658,458.25,599.8658,454.25,603.8658,450.25,599.8658,454.25,608.8658" style="stroke:#404040;stroke-width:1.2;"/><text fill="#000000" font-family="sans-serif" font-size="13" lengthAdjust="spacing" textLength="61.4199" x="392.25" y="243.1709">contributor</text><text fill="#000000" font-family="sans-serif" font-size="13" lengthAdjust="spacing" textLength="19.5127" x="434.9718" y="597.9166">0..*</text></g><!--link Dataset to MonetaryGrant--><g class="link" data-entity-1="ent0003" data-entity-2="ent0020" data-link-type="dependency" data-source-line="50" id="lnk37"><path codeLine="50" d="M644.38,83.9958 C644.38,165.9358 644.38,621.9658 644.38,621.9658 C644.38,621.9658 618.72,621.9658 590.53,621.9658" fill="none" id="Dataset-to-MonetaryGrant" style="stroke:#404040;stroke-width:1.2;"/><polygon fill="#404040" points="584.53,621.9658,593.53,625.9658,589.53,621.9658,593.53,617.9658,584.53,621.9658" style="stroke:#404040;stroke-width:1.2;"/><text fill="#000000" font-family="sans-serif" font-size="13" lengthAdjust="spacing" textLength="42.6499" x="601.38" y="379.4009">funding</text><text fill="#000000" font-family="sans-serif" font-size="13" lengthAdjust="spacing" textLength="19.5127" x="592.6104" y="618.3322">0..*</text></g><!--link Dataset to ProvActivity--><g class="link" data-entity-1="ent0003" data-entity-2="ent0021" data-link-type="dependency" data-source-line="51" id="lnk38"><path codeLine="51" d="M685.37,76.9658 C753.08,76.9658 941.5,76.9658 941.5,76.9658 C941.5,76.9658 941.5,274.5458 941.5,327.8258" fill="none" id="Dataset-to-ProvActivity" style="stroke:#404040;stroke-width:1.2;"/><polygon fill="#404040" points="941.5,333.8258,945.5,324.8258,941.5,328.8258,937.5,324.8258,941.5,333.8258" style="stroke:#404040;stroke-width:1.2;"/><text fill="#000000" font-family="sans-serif" font-size="13" lengthAdjust="spacing" textLength="99.7217" x="841.5" y="73.8309">wasGeneratedBy</text><text fill="#000000" font-family="sans-serif" font-size="13" lengthAdjust="spacing" textLength="19.5127" x="918.7535" y="322.8601">0..*</text></g><!--link Dataset to DerivedFrom--><g class="link" data-entity-1="ent0003" data-entity-2="ent0022" data-link-type="dependency" data-source-line="52" id="lnk39"><path codeLine="52" d="M685.05,73.9658 C766.83,73.9658 1033.5,73.9658 1033.5,73.9658 C1033.5,73.9658 1033.5,273.8158 1033.5,327.6858" fill="none" id="Dataset-to-DerivedFrom" style="stroke:#404040;stroke-width:1.2;"/><polygon fill="#404040" points="1033.5,333.6858,1037.5,324.6858,1033.5,328.6858,1029.5,324.6858,1033.5,333.6858" style="stroke:#404040;stroke-width:1.2;"/><text fill="#000000" font-family="sans-serif" font-size="13" lengthAdjust="spacing" textLength="98.2427" x="990.14" y="88.4609">wasDerivedFrom</text><text fill="#000000" font-family="sans-serif" font-size="13" lengthAdjust="spacing" textLength="19.5127" x="1010.7923" y="323.0496">0..*</text></g><!--link Dataset to CatalogRecord--><g class="link" data-entity-1="ent0003" data-entity-2="ent0023" data-link-type="dependency" data-source-line="53" id="lnk40"><path codeLine="53" d="M642.25,84.2958 C642.25,139.3658 642.25,352.9658 642.25,352.9658 C642.25,352.9658 638.57,352.9658 626.69,352.9658" fill="none" id="Dataset-to-CatalogRecord" style="stroke:#404040;stroke-width:1.2;"/><polygon fill="#404040" points="620.69,352.9658,629.69,356.9658,625.69,352.9658,629.69,348.9658,620.69,352.9658" style="stroke:#404040;stroke-width:1.2;"/><text fill="#000000" font-family="sans-serif" font-size="13" lengthAdjust="spacing" textLength="54.9136" x="587.25" y="243.9009">subjectOf</text><text fill="#000000" font-family="sans-serif" font-size="13" lengthAdjust="spacing" textLength="7.23" x="628.4384" y="350.2339">1</text></g><!--link CatalogRecord to Dataset--><g class="link" data-entity-1="ent0023" data-entity-2="ent0003" data-link-type="dependency" data-source-line="68" id="lnk55"><path codeLine="68" d="M620.65,346.9658 C631.5,346.9658 640.12,346.9658 640.12,346.9658 C640.12,346.9658 640.12,143.9158 640.12,90.0158" fill="none" id="CatalogRecord-to-Dataset" style="stroke:#404040;stroke-width:1.2;"/><polygon fill="#404040" points="640.12,84.0158,636.12,93.0158,640.12,89.0158,644.12,93.0158,640.12,84.0158" style="stroke:#404040;stroke-width:1.2;"/><text fill="#000000" font-family="sans-serif" font-size="13" lengthAdjust="spacing" textLength="32.5317" x="641.12" y="239.7209">about</text><text fill="#000000" font-family="sans-serif" font-size="13" lengthAdjust="spacing" textLength="21.6836" x="608.2176" y="104.6193">0..1</text></g><!--link Dataset to DefinedTerm--><g class="link" data-entity-1="ent0003" data-entity-2="ent0016" data-link-type="dependency" data-source-line="54" id="lnk41"><path codeLine="54" d="M661.9,84.2658 C661.9,153.8858 661.9,483.9658 661.9,483.9658 C661.9,483.9658 735.75,483.9658 735.75,483.9658 C735.75,483.9658 735.75,568.7358 735.75,602.7758" fill="none" id="Dataset-to-DefinedTerm" style="stroke:#404040;stroke-width:1.2;"/><polygon fill="#404040" points="735.75,608.7758,739.75,599.7758,735.75,603.7758,731.75,599.7758,735.75,608.7758" style="stroke:#404040;stroke-width:1.2;"/><text fill="#000000" font-family="sans-serif" font-size="13" lengthAdjust="spacing" textLength="54.9072" x="606.9" y="397.9409">keywords</text><text fill="#000000" font-family="sans-serif" font-size="13" lengthAdjust="spacing" textLength="19.5127" x="705.6571" y="598.175">0..*</text></g><!--link Dataset to DefinedTerm--><g class="link" data-entity-1="ent0003" data-entity-2="ent0016" data-link-type="dependency" data-source-line="56" id="lnk43"><path codeLine="56" d="M669.6,84.3558 C669.6,147.5958 669.6,421.9658 669.6,421.9658 C669.6,421.9658 754.5,421.9658 754.5,421.9658 C754.5,421.9658 754.5,558.6558 754.5,602.6858" fill="none" id="Dataset-to-DefinedTerm-1" style="stroke:#404040;stroke-width:1.2;"/><polygon fill="#404040" points="754.5,608.6858,758.5,599.6858,754.5,603.6858,750.5,599.6858,754.5,608.6858" style="stroke:#404040;stroke-width:1.2;"/><text fill="#000000" font-family="sans-serif" font-size="13" lengthAdjust="spacing" textLength="140.188" x="670.6" y="385.4609">measurementTechnique</text><text fill="#000000" font-family="sans-serif" font-size="13" lengthAdjust="spacing" textLength="19.5127" x="731.7899" y="598.0496">0..*</text></g><!--link Dataset to Reference--><g class="link" data-entity-1="ent0003" data-entity-2="ent0019" data-link-type="dependency" data-source-line="55" id="lnk42"><path codeLine="55" d="M685.02,80.9658 C736.89,80.9658 856.5,80.9658 856.5,80.9658 C856.5,80.9658 856.5,274.6258 856.5,327.6558" fill="none" id="Dataset-to-Reference" style="stroke:#404040;stroke-width:1.2;"/><polygon fill="#404040" points="856.5,333.6558,860.5,324.6558,856.5,328.6558,852.5,324.6558,856.5,333.6558" style="stroke:#404040;stroke-width:1.2;"/><text fill="#000000" font-family="sans-serif" font-size="13" lengthAdjust="spacing" textLength="40.4663" x="815.5" y="118.0709">license</text><text fill="#000000" font-family="sans-serif" font-size="13" lengthAdjust="spacing" textLength="19.5127" x="833.7884" y="323.0078">0..*</text></g><!--reverse link Dataset to VariableMeasured--><g class="link" data-entity-1="ent0003" data-entity-2="ent0024" data-link-type="composition" data-source-line="57" id="lnk44"><path codeLine="57" d="M677.3,96.1058 C677.3,149.3858 677.3,340.9658 677.3,340.9658 C677.3,340.9658 688.61,340.9658 702.58,340.9658" fill="none" id="Dataset-backto-VariableMeasured" style="stroke:#404040;stroke-width:1.2;"/><polygon fill="#404040" points="677.3,84.1058,673.3,90.1058,677.3,96.1058,681.3,90.1058,677.3,84.1058" style="stroke:#404040;stroke-width:1.2;"/><text fill="#000000" font-family="sans-serif" font-size="13" lengthAdjust="spacing" textLength="103.3335" x="573.3" y="221.6709">variableMeasured</text><text fill="#000000" font-family="sans-serif" font-size="13" lengthAdjust="spacing" textLength="19.5127" x="675.335" y="336.6642">0..*</text></g><!--reverse link Dataset to SpatialExtent--><g class="link" data-entity-1="ent0003" data-entity-2="ent0025" data-link-type="composition" data-source-line="58" id="lnk45"><path codeLine="58" d="M697.03,69.9658 C791.93,69.9658 1129.5,69.9658 1129.5,69.9658 C1129.5,69.9658 1129.5,279.7758 1129.5,333.8658" fill="none" id="Dataset-backto-SpatialExtent" style="stroke:#404040;stroke-width:1.2;"/><polygon fill="#404040" points="685.03,69.9658,691.03,73.9658,697.03,69.9658,691.03,65.9658,685.03,69.9658" style="stroke:#404040;stroke-width:1.2;"/><text fill="#000000" font-family="sans-serif" font-size="13" lengthAdjust="spacing" textLength="93.9453" x="945.21" y="66.4609">spatialCoverage</text><text fill="#000000" font-family="sans-serif" font-size="13" lengthAdjust="spacing" textLength="19.5127" x="1106.7466" y="322.9166">0..*</text></g><!--reverse link Dataset to TemporalExtent--><g class="link" data-entity-1="ent0003" data-entity-2="ent0026" data-link-type="composition" data-source-line="59" id="lnk46"><path codeLine="59" d="M697.35,66.9658 C805.61,66.9658 1233.5,66.9658 1233.5,66.9658 C1233.5,66.9658 1233.5,279.0558 1233.5,333.7258" fill="none" id="Dataset-backto-TemporalExtent" style="stroke:#404040;stroke-width:1.2;"/><polygon fill="#404040" points="685.35,66.9658,691.35,70.9658,697.35,66.9658,691.35,62.9658,685.35,66.9658" style="stroke:#404040;stroke-width:1.2;"/><text fill="#000000" font-family="sans-serif" font-size="13" lengthAdjust="spacing" textLength="106.9453" x="1093.81" y="81.4609">temporalCoverage</text><text fill="#000000" font-family="sans-serif" font-size="13" lengthAdjust="spacing" textLength="19.5127" x="1210.9188" y="323.1053">0..*</text></g><!--reverse link Dataset to QualityMeasure--><g class="link" data-entity-1="ent0003" data-entity-2="ent0027" data-link-type="composition" data-source-line="60" id="lnk47"><path codeLine="60" d="M697.01,62.9658 C817.11,62.9658 1344.5,62.9658 1344.5,62.9658 C1344.5,62.9658 1344.5,279.0558 1344.5,333.9158" fill="none" id="Dataset-backto-QualityMeasure" style="stroke:#404040;stroke-width:1.2;"/><polygon fill="#404040" points="685.01,62.9658,691.01,66.9658,697.01,62.9658,691.01,58.9658,685.01,62.9658" style="stroke:#404040;stroke-width:1.2;"/><text fill="#000000" font-family="sans-serif" font-size="13" lengthAdjust="spacing" textLength="140.8989" x="1151.23" y="59.4609">hasQualityMeasurement</text><text fill="#000000" font-family="sans-serif" font-size="13" lengthAdjust="spacing" textLength="19.5127" x="1321.6797" y="322.9872">0..*</text></g><!--link DataDownload to Agent--><g class="link" data-entity-1="ent0005" data-entity-2="ent0011" data-link-type="dependency" data-source-line="61" id="lnk48"><path codeLine="61" d="M350.5,633.9958 C350.5,679.8058 350.5,831.9258 350.5,877.8658" fill="none" id="DataDownload-to-Agent" style="stroke:#404040;stroke-width:1.2;"/><polygon fill="#404040" points="350.5,883.8658,354.5,874.8658,350.5,878.8658,346.5,874.8658,350.5,883.8658" style="stroke:#404040;stroke-width:1.2;"/><text fill="#000000" font-family="sans-serif" font-size="13" lengthAdjust="spacing" textLength="46.9663" x="303.5" y="755.4209">provider</text><text fill="#000000" font-family="sans-serif" font-size="13" lengthAdjust="spacing" textLength="19.5127" x="327.6129" y="872.9166">0..*</text></g><!--link WebAPI to Action--><g class="link" data-entity-1="ent0006" data-entity-2="ent0007" data-link-type="dependency" data-source-line="62" id="lnk49"><path codeLine="62" d="M671.5,633.9958 C671.5,679.8058 671.5,831.9258 671.5,877.8658" fill="none" id="WebAPI-to-Action" style="stroke:#404040;stroke-width:1.2;"/><polygon fill="#404040" points="671.5,883.8658,675.5,874.8658,671.5,878.8658,667.5,874.8658,671.5,883.8658" style="stroke:#404040;stroke-width:1.2;"/><text fill="#000000" font-family="sans-serif" font-size="13" lengthAdjust="spacing" textLength="85.2808" x="585.5" y="755.4209">potentialAction</text><text fill="#000000" font-family="sans-serif" font-size="13" lengthAdjust="spacing" textLength="19.5127" x="648.6145" y="872.9166">0..*</text></g><!--link Action to EntryPoint--><g class="link" data-entity-1="ent0007" data-entity-2="ent0008" data-link-type="dependency" data-source-line="63" id="lnk50"><path codeLine="63" d="M651.86,905.9658 C632.19,905.9658 604.83,905.9658 604.83,905.9658 C604.83,905.9658 604.83,1099.6258 604.83,1152.6558" fill="none" id="Action-to-EntryPoint" style="stroke:#404040;stroke-width:1.2;"/><polygon fill="#404040" points="604.83,1158.6558,608.83,1149.6558,604.83,1153.6558,600.83,1149.6558,604.83,1158.6558" style="stroke:#404040;stroke-width:1.2;"/><text fill="#000000" font-family="sans-serif" font-size="13" lengthAdjust="spacing" textLength="33.2427" x="570.83" y="1005.2909">target</text><text fill="#000000" font-family="sans-serif" font-size="13" lengthAdjust="spacing" textLength="7.23" x="604.4313" y="1148.0078">1</text></g><!--link Action to ActionResult--><g class="link" data-entity-1="ent0007" data-entity-2="ent0009" data-link-type="dependency" data-source-line="64" id="lnk51"><path codeLine="64" d="M671.5,908.9958 C671.5,954.8058 671.5,1106.9258 671.5,1152.8658" fill="none" id="Action-to-ActionResult" style="stroke:#404040;stroke-width:1.2;"/><polygon fill="#404040" points="671.5,1158.8658,675.5,1149.8658,671.5,1153.8658,667.5,1149.8658,671.5,1158.8658" style="stroke:#404040;stroke-width:1.2;"/><text fill="#000000" font-family="sans-serif" font-size="13" lengthAdjust="spacing" textLength="31.7891" x="639.5" y="1030.4209">result</text><text fill="#000000" font-family="sans-serif" font-size="13" lengthAdjust="spacing" textLength="21.6836" x="646.2344" y="1147.9166">0..1</text></g><!--link Action to PropertyValueSpecification--><g class="link" data-entity-1="ent0007" data-entity-2="ent0010" data-link-type="dependency" data-source-line="65" id="lnk52"><path codeLine="65" d="M691.2,896.9658 C717.34,896.9658 760.25,896.9658 760.25,896.9658 C760.25,896.9658 760.25,1099.2558 760.25,1152.9558" fill="none" id="Action-to-PropertyValueSpecification" style="stroke:#404040;stroke-width:1.2;"/><polygon fill="#404040" points="760.25,1158.9558,764.25,1149.9558,760.25,1153.9558,756.25,1149.9558,760.25,1158.9558" style="stroke:#404040;stroke-width:1.2;"/><text fill="#000000" font-family="sans-serif" font-size="13" lengthAdjust="spacing" textLength="61.4326" x="698.25" y="989.9309">queryInput</text><text fill="#000000" font-family="sans-serif" font-size="13" lengthAdjust="spacing" textLength="19.5127" x="719.5794" y="1148.0437">0..*</text></g><!--link Contributor to Agent--><g class="link" data-entity-1="ent0015" data-entity-2="ent0011" data-link-type="dependency" data-source-line="66" id="lnk53"><path codeLine="66" d="M420.25,634.3158 C420.25,687.5558 420.25,887.9658 420.25,887.9658 C420.25,887.9658 395.85,887.9658 375.19,887.9658" fill="none" id="Contributor-to-Agent" style="stroke:#404040;stroke-width:1.2;"/><polygon fill="#404040" points="369.19,887.9658,378.19,891.9658,374.19,887.9658,378.19,883.9658,369.19,887.9658" style="stroke:#404040;stroke-width:1.2;"/><text fill="#000000" font-family="sans-serif" font-size="13" lengthAdjust="spacing" textLength="61.4199" x="358.25" y="783.1709">contributor</text><text fill="#000000" font-family="sans-serif" font-size="13" lengthAdjust="spacing" textLength="21.6836" x="377.4453" y="880.8566">0..1</text></g><!--link MonetaryGrant to Agent--><g class="link" data-entity-1="ent0020" data-entity-2="ent0011" data-link-type="dependency" data-source-line="67" id="lnk54"><path codeLine="67" d="M526.25,634.1058 C526.25,687.3858 526.25,890.9658 526.25,890.9658 C526.25,890.9658 420.65,890.9658 375.31,890.9658" fill="none" id="MonetaryGrant-to-Agent" style="stroke:#404040;stroke-width:1.2;"/><polygon fill="#404040" points="369.31,890.9658,378.31,894.9658,374.31,890.9658,378.31,886.9658,369.31,890.9658" style="stroke:#404040;stroke-width:1.2;"/><text fill="#000000" font-family="sans-serif" font-size="13" lengthAdjust="spacing" textLength="36.8608" x="489.25" y="837.5009">funder</text><text fill="#000000" font-family="sans-serif" font-size="13" lengthAdjust="spacing" textLength="19.5127" x="360.87" y="873.4185">0..*</text></g><!--link CatalogRecord to Agent--><g class="link" data-entity-1="ent0023" data-entity-2="ent0011" data-link-type="dependency" data-source-line="69" id="lnk56"><path codeLine="69" d="M594.67,359.1958 C594.67,441.3958 594.67,893.9658 594.67,893.9658 C594.67,893.9658 432.43,893.9658 375.25,893.9658" fill="none" id="CatalogRecord-to-Agent" style="stroke:#404040;stroke-width:1.2;"/><polygon fill="#404040" points="369.25,893.9658,378.25,897.9658,374.25,893.9658,378.25,889.9658,369.25,893.9658" style="stroke:#404040;stroke-width:1.2;"/><text fill="#000000" font-family="sans-serif" font-size="13" lengthAdjust="spacing" textLength="60.6963" x="533.67" y="735.7809">maintainer</text><text fill="#000000" font-family="sans-serif" font-size="13" lengthAdjust="spacing" textLength="21.6836" x="377.5222" y="888.5441">0..1</text></g><!--link VariableMeasured to DefinedTerm--><g class="link" data-entity-1="ent0024" data-entity-2="ent0016" data-link-type="dependency" data-source-line="70" id="lnk57"><path codeLine="70" d="M773.25,358.9958 C773.25,404.8058 773.25,556.9258 773.25,602.8658" fill="none" id="VariableMeasured-to-DefinedTerm" style="stroke:#404040;stroke-width:1.2;"/><polygon fill="#404040" points="773.25,608.8658,777.25,599.8658,773.25,603.8658,769.25,599.8658,773.25,608.8658" style="stroke:#404040;stroke-width:1.2;"/><text fill="#000000" font-family="sans-serif" font-size="13" lengthAdjust="spacing" textLength="140.188" x="632.25" y="480.4209">measurementTechnique</text><text fill="#000000" font-family="sans-serif" font-size="13" lengthAdjust="spacing" textLength="21.6836" x="785.3829" y="597.9166">0..1</text></g><?plantuml-src XLRRJjmm47tFLrZmXWJYKgeggYejooxY0K41qMUlCxlhajZfsDbjUf7w4Vt2VaadSR9nd012I9wJCnUFvzXhfKs1NN0ZnQKqGcy0I_RlprzMhJOIjj5Q9i24H962MqEMsv9ba2q0JMIUfSevyeoPDK_qLgeLM_BKWFTbWgYtZsifdXKOmqwEJhsFoDMpWPoTdXzxgD89rAWFfbA1BNDW6krQUnz4oYdkpuYvL5ETQcJxxuwhFm8lD2Q08JhNoZx87y1EJgFVKSGNnY8NjWcsDzLPhesqS8TwALFOOzom46JxyzbyDfr5ZTCbjzo0hRdDUaS94qmQc_fkKIuAAxMg7SS-iFtBzxF9_8EVw59lLQfviilM0c5LNs0nkRkkQMv9XEdyR3fl2HFH9HTZwMRAOdcdfN9RwyoGwDplmHIfzU8v84nBJSm1RVd4qm8USX1oAGNVbVBovrtMGKzNq9HOhyBgxcXYs-3rCYHCQIOeNBTJ7mZ9jxZYIlxe2lQ1iSZrOMhS1MximTd2aWOzUGJCtD5sDb7Fv-UpivPwdT0kgItWWdRcu5oIH5PbyRJjgklI00uTxs4924gu-TzP8Ur6apGvbbSaPzUv7Z8u2DIRQZ8siYd41mQY0fGRIEQestxix46NIGMfNjs38CcxFlj86Fc9e-IB56w0cmB1UOHWsFE7d0wOfxFljfsr7XBI7-c-rDZZzw7GuNF1K-f2axvsw4CxXz6BukElmyFURV0ApTq6aTDAZJXP-8W_r55xfnqUVc9xnqT71tkDq6AMqmdIyu2ZdB4AOfPuvckX1G8ddOnHV1aHiRC6v1Elr6AHIhCUhxK_jp5R5YgXHssCsXlQc6svkG85o2qa5-MOWp-vDTy3-dogjZ-vCJF5uYi8UxiSZzpT4J5xXd9BJcQCsKaufWTLWAAd-is0cPkyZFht26AjvBUYypgWAMcy1jg9sIQ0njpw0gAjEdjQ_GZXgz5CWOPYPXlWDQT0Hp5RSzF7gXr6lRVqjL5lNbEV8fhPpdLL5st28L7peJrSxmMbqZckmFOepS3wZsVCi5w4F3U8BxsKCQEZml9QvOMDVBMCwCANJry68qseT44jw4-f5xHjVypuGbUvNoAs0JDEtQ1_2ZeO8p_ksuFv7m00?></g></svg>