<svg xmlns="http://www.w3.org/2000/svg" xmlns:xlink="http://www.w3.org/1999/xlink" contentStyleType="text/css" data-diagram-type="CLASS" height="396px" preserveAspectRatio="none" style="width:1205px;height:396px;background:#FFFFFF;" version="1.1" viewBox="0 0 1205 396" width="1205px" zoomAndPan="magnify"><?plantuml 1.2026.3?><defs/><g><g class="title" data-source-line="1"><text fill="#000000" font-family="sans-serif" font-size="14" font-weight="700" lengthAdjust="spacing" textLength="186.4297" x="506.0576" y="24.5332">BasicDiscovery &#8212; overview</text></g><!--class Dataset--><g class="entity" data-qualified-name="Dataset" data-source-line="12" id="ent0002"><rect fill="#FEFECE" height="25.0938" rx="2.5" ry="2.5" style="stroke:#404040;stroke-width:0.5;" width="47.3555" x="748" y="48.8481"/><text fill="#000000" font-family="sans-serif" font-size="12" lengthAdjust="spacing" textLength="41.3555" x="751" y="66.3052">Dataset</text></g><!--class VariableMeasured--><g class="entity" data-qualified-name="VariableMeasured" data-source-line="13" id="ent0003"><rect fill="#FEFECE" height="25.0938" rx="2.5" ry="2.5" style="stroke:#404040;stroke-width:0.5;" width="103.3887" x="201" y="151.8481"/><text fill="#000000" font-family="sans-serif" font-size="12" lengthAdjust="spacing" textLength="97.3887" x="204" y="169.3052">VariableMeasured</text></g><!--class SpatialExtent--><g class="entity" data-qualified-name="SpatialExtent" data-source-line="14" id="ent0004"><rect fill="#FEFECE" height="25.0938" rx="2.5" ry="2.5" style="stroke:#404040;stroke-width:0.5;" width="76.7109" x="359" y="151.8481"/><text fill="#000000" font-family="sans-serif" font-size="12" lengthAdjust="spacing" textLength="70.7109" x="362" y="169.3052">SpatialExtent</text></g><!--class AbstractGeometry--><g class="entity" data-qualified-name="AbstractGeometry" data-source-line="15" id="ent0005"><rect fill="#FEFECE" height="25.0938" rx="2.5" ry="2.5" style="stroke:#404040;stroke-width:0.5;" width="102.6973" x="234" y="254.8481"/><text fill="#000000" font-family="sans-serif" font-size="12" font-style="italic" lengthAdjust="spacing" textLength="96.6973" x="237" y="272.3052">AbstractGeometry</text></g><!--class GeoCoordinates--><g class="entity" data-qualified-name="GeoCoordinates" data-source-line="16" id="ent0006"><rect fill="#FEFECE" height="25.0938" rx="2.5" ry="2.5" style="stroke:#404040;stroke-width:0.5;" width="93.3867" x="183" y="357.8481"/><text fill="#000000" font-family="sans-serif" font-size="12" lengthAdjust="spacing" textLength="87.3867" x="186" y="375.3052">GeoCoordinates</text></g><!--class GeoShape--><g class="entity" data-qualified-name="GeoShape" data-source-line="17" id="ent0007"><rect fill="#FEFECE" height="25.0938" rx="2.5" ry="2.5" style="stroke:#404040;stroke-width:0.5;" width="63.3809" x="311" y="357.8481"/><text fill="#000000" font-family="sans-serif" font-size="12" lengthAdjust="spacing" textLength="57.3809" x="314" y="375.3052">GeoShape</text></g><!--class TemporalExtent--><g class="entity" data-qualified-name="TemporalExtent" data-source-line="18" id="ent0008"><rect fill="#FEFECE" height="25.0938" rx="2.5" ry="2.5" style="stroke:#404040;stroke-width:0.5;" width="90.7031" x="487" y="151.8481"/><text fill="#000000" font-family="sans-serif" font-size="12" lengthAdjust="spacing" textLength="84.7031" x="490" y="169.3052">TemporalExtent</text></g><!--class Instant--><g class="entity" data-qualified-name="Instant" data-source-line="19" id="ent0009"><rect fill="#FEFECE" height="25.0938" rx="2.5" ry="2.5" style="stroke:#404040;stroke-width:0.5;" width="42.0234" x="567.5" y="254.8481"/><text fill="#000000" font-family="sans-serif" font-size="12" lengthAdjust="spacing" textLength="36.0234" x="570.5" y="272.3052">Instant</text></g><!--class TimePosition--><g class="entity" data-qualified-name="TimePosition" data-source-line="20" id="ent0010"><rect fill="#FEFECE" height="25.0938" rx="2.5" ry="2.5" style="stroke:#404040;stroke-width:0.5;" width="75.3574" x="551" y="357.8481"/><text fill="#000000" font-family="sans-serif" font-size="12" lengthAdjust="spacing" textLength="69.3574" x="554" y="375.3052">TimePosition</text></g><!--class Geometry--><g class="entity" data-qualified-name="Geometry" data-source-line="21" id="ent0011"><rect fill="#FEFECE" height="25.0938" rx="2.5" ry="2.5" style="stroke:#404040;stroke-width:0.5;" width="58.6816" x="372" y="254.8481"/><text fill="#000000" font-family="sans-serif" font-size="12" lengthAdjust="spacing" textLength="52.6816" x="375" y="272.3052">Geometry</text></g><!--class QualityMeasurement--><g class="entity" data-qualified-name="QualityMeasurement" data-source-line="22" id="ent0012"><rect fill="#FEFECE" height="25.0938" rx="2.5" ry="2.5" style="stroke:#404040;stroke-width:0.5;" width="116.7129" x="622" y="151.8481"/><text fill="#000000" font-family="sans-serif" font-size="12" lengthAdjust="spacing" textLength="110.7129" x="625" y="169.3052">QualityMeasurement</text></g><!--class Concept--><g class="entity" data-qualified-name="Concept" data-source-line="23" id="ent0013"><rect fill="#FEFECE" height="25.0938" rx="2.5" ry="2.5" style="stroke:#404040;stroke-width:0.5;" width="50.6953" x="7" y="48.8481"/><text fill="#000000" font-family="sans-serif" font-size="12" lengthAdjust="spacing" textLength="44.6953" x="10" y="66.3052">Concept</text></g><!--class Identifier--><g class="entity" data-qualified-name="Identifier" data-source-line="24" id="ent0014"><rect fill="#FEFECE" height="25.0938" rx="2.5" ry="2.5" style="stroke:#404040;stroke-width:0.5;" width="52.0254" x="93.5" y="48.8481"/><text fill="#000000" font-family="sans-serif" font-size="12" lengthAdjust="spacing" textLength="46.0254" x="96.5" y="66.3052">Identifier</text></g><!--class DefinedTerm--><g class="entity" data-qualified-name="DefinedTerm" data-source-line="25" id="ent0015"><rect fill="#FEFECE" height="25.0938" rx="2.5" ry="2.5" style="stroke:#404040;stroke-width:0.5;" width="75.3574" x="820" y="151.8481"/><text fill="#000000" font-family="sans-serif" font-size="12" lengthAdjust="spacing" textLength="69.3574" x="823" y="169.3052">DefinedTerm</text></g><!--class DataDownload--><g class="entity" data-qualified-name="DataDownload" data-source-line="26" id="ent0016"><rect fill="#FEFECE" height="25.0938" rx="2.5" ry="2.5" style="stroke:#404040;stroke-width:0.5;" width="84.7148" x="181" y="48.8481"/><text fill="#000000" font-family="sans-serif" font-size="12" lengthAdjust="spacing" textLength="78.7148" x="184" y="66.3052">DataDownload</text></g><!--class WebAPI--><g class="entity" data-qualified-name="WebAPI" data-source-line="27" id="ent0017"><rect fill="#FCF3CF" height="25.0938" rx="2.5" ry="2.5" style="stroke:#404040;stroke-width:0.5;" width="50.0156" x="7.5" y="151.8481"/><text fill="#000000" font-family="sans-serif" font-size="12" lengthAdjust="spacing" textLength="44.0156" x="10.5" y="169.3052">WebAPI</text></g><!--class ActionResult--><g class="entity" data-qualified-name="ActionResult" data-source-line="28" id="ent0018"><rect fill="#FCF3CF" height="25.0938" rx="2.5" ry="2.5" style="stroke:#404040;stroke-width:0.5;" width="73.3652" x="93" y="151.8481"/><text fill="#000000" font-family="sans-serif" font-size="12" lengthAdjust="spacing" textLength="67.3652" x="96" y="169.3052">ActionResult</text></g><!--class ProvActivity--><g class="entity" data-qualified-name="ProvActivity" data-source-line="29" id="ent0019"><rect fill="#FEFECE" height="25.0938" rx="2.5" ry="2.5" style="stroke:#404040;stroke-width:0.5;" width="68.6777" x="930" y="151.8481"/><text fill="#000000" font-family="sans-serif" font-size="12" lengthAdjust="spacing" textLength="62.6777" x="933" y="169.3052">ProvActivity</text></g><!--class CatalogRecord--><g class="entity" data-qualified-name="CatalogRecord" data-source-line="30" id="ent0020"><rect fill="#FEFECE" height="25.0938" rx="2.5" ry="2.5" style="stroke:#404040;stroke-width:0.5;" width="86.0449" x="1104.5" y="151.8481"/><text fill="#000000" font-family="sans-serif" font-size="12" lengthAdjust="spacing" textLength="80.0449" x="1107.5" y="169.3052">CatalogRecord</text></g><!--reverse link AbstractGeometry to GeoCoordinates--><g class="link" data-entity-1="ent0005" data-entity-2="ent0006" data-link-type="extension" data-source-line="31" id="lnk21"><path codeLine="31" d="M270.3453,295.6768 C259.5953,315.0468 246.83,338.0881 236.02,357.5881" fill="none" id="AbstractGeometry-backto-GeoCoordinates" style="stroke:#404040;stroke-width:1.2;"/><polygon fill="none" points="279.08,279.9381,265.0991,292.7652,275.5915,298.5884,279.08,279.9381" style="stroke:#404040;stroke-width:1.2;"/></g><!--reverse link AbstractGeometry to GeoShape--><g class="link" data-entity-1="ent0005" data-entity-2="ent0007" data-link-type="extension" data-source-line="32" id="lnk22"><path codeLine="32" d="M300.892,295.6111 C311.832,314.9811 324.86,338.0881 335.86,357.5881" fill="none" id="AbstractGeometry-backto-GeoShape" style="stroke:#404040;stroke-width:1.2;"/><polygon fill="none" points="292.04,279.9381,295.6676,298.5618,306.1163,292.6605,292.04,279.9381" style="stroke:#404040;stroke-width:1.2;"/></g><!--link Dataset to VariableMeasured--><g class="link" data-entity-1="ent0002" data-entity-2="ent0003" data-link-type="dependency" data-source-line="33" id="lnk23"><path codeLine="33" d="M747.89,62.2181 C664.6,62.0981 385.24,64.6981 306.5,103.8481 C285.02,114.5281 271.2094,132.636 262.3794,146.706" fill="none" id="Dataset-to-VariableMeasured" style="stroke:#404040;stroke-width:1.2;"/><polygon fill="#404040" points="259.19,151.7881,267.3622,146.2913,261.8478,147.5531,260.586,142.0387,259.19,151.7881" style="stroke:#404040;stroke-width:1.2;"/><text fill="#000000" font-family="sans-serif" font-size="13" lengthAdjust="spacing" textLength="103.3335" x="307.5" y="118.3433">variableMeasured</text><text fill="#000000" font-family="sans-serif" font-size="13" lengthAdjust="spacing" textLength="19.5127" x="239.0565" y="140.8554">0..*</text></g><!--link Dataset to SpatialExtent--><g class="link" data-entity-1="ent0002" data-entity-2="ent0004" data-link-type="dependency" data-source-line="34" id="lnk24"><path codeLine="34" d="M747.6,62.7881 C680.13,64.4081 489.64,71.7881 437.5,103.8481 C419.47,114.9281 410.0684,131.9941 404.2284,145.9341" fill="none" id="Dataset-to-SpatialExtent" style="stroke:#404040;stroke-width:1.2;"/><polygon fill="#404040" points="401.91,151.4681,409.0769,144.7128,403.842,146.8565,401.6983,141.6216,401.91,151.4681" style="stroke:#404040;stroke-width:1.2;"/><text fill="#000000" font-family="sans-serif" font-size="13" lengthAdjust="spacing" textLength="93.9453" x="438.5" y="118.3433">spatialCoverage</text><text fill="#000000" font-family="sans-serif" font-size="13" lengthAdjust="spacing" textLength="19.5127" x="381.1223" y="141.0519">0..*</text></g><!--link Dataset to TemporalExtent--><g class="link" data-entity-1="ent0002" data-entity-2="ent0008" data-link-type="dependency" data-source-line="35" id="lnk25"><path codeLine="35" d="M747.7,63.8681 C697.18,67.5581 581.45,78.6081 552.5,103.8481 C538.53,116.0181 534.8591,132.2942 533.5891,145.8642" fill="none" id="Dataset-to-TemporalExtent" style="stroke:#404040;stroke-width:1.2;"/><polygon fill="#404040" points="533.03,151.8381,537.8512,143.25,533.4959,146.8599,529.886,142.5046,533.03,151.8381" style="stroke:#404040;stroke-width:1.2;"/><text fill="#000000" font-family="sans-serif" font-size="13" lengthAdjust="spacing" textLength="106.9453" x="553.5" y="118.3433">temporalCoverage</text><text fill="#000000" font-family="sans-serif" font-size="13" lengthAdjust="spacing" textLength="19.5127" x="510.4968" y="140.9261">0..*</text></g><!--link Dataset to QualityMeasurement--><g class="link" data-entity-1="ent0002" data-entity-2="ent0012" data-link-type="dependency" data-source-line="36" id="lnk26"><path codeLine="36" d="M747.82,65.0081 C724.45,69.0281 689.93,79.0481 673.5,103.8481 C663.96,118.2381 667.4684,133.4348 672.7084,146.2448" fill="none" id="Dataset-to-QualityMeasurement" style="stroke:#404040;stroke-width:1.2;"/><polygon fill="#404040" points="674.98,151.7981,675.2748,141.9537,673.087,147.1703,667.8703,144.9825,674.98,151.7981" style="stroke:#404040;stroke-width:1.2;"/><text fill="#000000" font-family="sans-serif" font-size="13" lengthAdjust="spacing" textLength="140.8989" x="674.5" y="118.3433">hasQualityMeasurement</text><text fill="#000000" font-family="sans-serif" font-size="13" lengthAdjust="spacing" textLength="19.5127" x="649.9492" y="140.8696">0..*</text></g><!--link Dataset to ProvActivity--><g class="link" data-entity-1="ent0002" data-entity-2="ent0019" data-link-type="dependency" data-source-line="37" id="lnk27"><path codeLine="37" d="M795.14,66.7081 C822.04,72.3781 866.6,83.9781 900.5,103.8481 C922.49,116.7381 939.2355,133.807 950.8655,147.137" fill="none" id="Dataset-to-ProvActivity" style="stroke:#404040;stroke-width:1.2;"/><polygon fill="#404040" points="954.81,151.6581,951.9073,142.2467,951.5229,147.8905,945.8791,147.5061,954.81,151.6581" style="stroke:#404040;stroke-width:1.2;"/><text fill="#000000" font-family="sans-serif" font-size="13" lengthAdjust="spacing" textLength="99.7217" x="925.5" y="118.3433">wasGeneratedBy</text><text fill="#000000" font-family="sans-serif" font-size="13" lengthAdjust="spacing" textLength="19.5127" x="928.4183" y="141.0573">0..*</text></g><!--link Dataset to CatalogRecord--><g class="link" data-entity-1="ent0002" data-entity-2="ent0020" data-link-type="dependency" data-source-line="38" id="lnk28"><path codeLine="38" d="M795.23,63.5381 C841.95,66.4381 948.67,75.8181 1033.5,103.8481 C1069.54,115.7581 1102.8977,134.8991 1124.6677,148.5591" fill="none" id="Dataset-to-CatalogRecord" style="stroke:#404040;stroke-width:1.2;"/><polygon fill="#404040" points="1129.75,151.7481,1124.2525,143.5764,1125.5147,149.0906,1120.0005,150.3528,1129.75,151.7481" style="stroke:#404040;stroke-width:1.2;"/><text fill="#000000" font-family="sans-serif" font-size="13" lengthAdjust="spacing" textLength="54.9136" x="1077.5" y="118.3433">subjectOf</text><text fill="#000000" font-family="sans-serif" font-size="13" lengthAdjust="spacing" textLength="7.23" x="1114.0225" y="140.7989">1</text></g><!--link CatalogRecord to Dataset--><g class="link" data-entity-1="ent0020" data-entity-2="ent0002" data-link-type="dependency" data-source-line="45" id="lnk35"><path codeLine="45" d="M1149.98,151.4581 C1152.03,137.9481 1152.89,116.1681 1140.5,103.8481 C1115.96,79.4381 878.9241,67.0443 801.2341,63.5943" fill="none" id="CatalogRecord-to-Dataset" style="stroke:#404040;stroke-width:1.2;"/><polygon fill="#404040" points="795.24,63.3281,804.0537,67.7235,800.2351,63.55,804.4086,59.7313,795.24,63.3281" style="stroke:#404040;stroke-width:1.2;"/><text fill="#000000" font-family="sans-serif" font-size="13" lengthAdjust="spacing" textLength="32.5317" x="1150.5" y="118.3433">about</text><text fill="#000000" font-family="sans-serif" font-size="13" lengthAdjust="spacing" textLength="21.6836" x="803.1959" y="59.4609">0..1</text></g><!--link Dataset to DefinedTerm--><g class="link" data-entity-1="ent0002" data-entity-2="ent0015" data-link-type="dependency" data-source-line="39" id="lnk29"><path codeLine="39" d="M789.3,73.9781 C800.07,81.5981 813.58,92.2681 823.5,103.8481 C836.19,118.6681 844.0706,133.4681 849.8906,146.1081" fill="none" id="Dataset-to-DefinedTerm" style="stroke:#404040;stroke-width:1.2;"/><polygon fill="#404040" points="852.4,151.5581,852.2692,141.7101,850.3088,147.0164,845.0025,145.056,852.4,151.5581" style="stroke:#404040;stroke-width:1.2;"/><text fill="#000000" font-family="sans-serif" font-size="13" lengthAdjust="spacing" textLength="54.9072" x="837.5" y="118.3433">keywords</text><text fill="#000000" font-family="sans-serif" font-size="13" lengthAdjust="spacing" textLength="19.5127" x="827.6818" y="140.9179">0..*</text></g><!--link SpatialExtent to AbstractGeometry--><g class="link" data-entity-1="ent0004" data-entity-2="ent0005" data-link-type="dependency" data-source-line="40" id="lnk30"><path codeLine="40" d="M384.65,176.9381 C363.16,196.3081 324.6155,231.0696 302.9955,250.5696" fill="none" id="SpatialExtent-to-AbstractGeometry" style="stroke:#404040;stroke-width:1.2;"/><polygon fill="#404040" points="298.54,254.5881,307.9022,251.5306,302.2529,251.2393,302.5441,245.59,298.54,254.5881" style="stroke:#404040;stroke-width:1.2;"/><text fill="#000000" font-family="sans-serif" font-size="13" lengthAdjust="spacing" textLength="21.6899" x="349.5" y="221.3433">geo</text><text fill="#000000" font-family="sans-serif" font-size="13" lengthAdjust="spacing" textLength="21.6836" x="278.7343" y="243.9598">0..1</text></g><!--link SpatialExtent to Geometry--><g class="link" data-entity-1="ent0004" data-entity-2="ent0011" data-link-type="dependency" data-source-line="41" id="lnk31"><path codeLine="41" d="M397.96,176.9381 C398.73,196.3081 400.0233,229.0928 400.7933,248.5928" fill="none" id="SpatialExtent-to-Geometry" style="stroke:#404040;stroke-width:1.2;"/><polygon fill="#404040" points="401.03,254.5881,404.6718,245.4373,400.8327,249.592,396.678,245.753,401.03,254.5881" style="stroke:#404040;stroke-width:1.2;"/><text fill="#000000" font-family="sans-serif" font-size="13" lengthAdjust="spacing" textLength="78.0317" x="401.5" y="221.3433">hasGeometry</text><text fill="#000000" font-family="sans-serif" font-size="13" lengthAdjust="spacing" textLength="21.6836" x="375.9078" y="243.9598">0..1</text></g><!--link TemporalExtent to Instant--><g class="link" data-entity-1="ent0008" data-entity-2="ent0009" data-link-type="dependency" data-source-line="42" id="lnk32"><path codeLine="42" d="M527.3,177.0581 C522.56,189.6381 517.41,209.8281 525.5,224.8481 C534.32,241.2181 547.2598,249.7554 561.9098,256.2854" fill="none" id="TemporalExtent-to-Instant" style="stroke:#404040;stroke-width:1.2;"/><polygon fill="#404040" points="567.39,258.7281,560.7981,251.4105,562.8231,256.6925,557.5411,258.7175,567.39,258.7281" style="stroke:#404040;stroke-width:1.2;"/><text fill="#000000" font-family="sans-serif" font-size="13" lengthAdjust="spacing" textLength="78.7871" x="526.5" y="221.3433">hasBeginning</text><text fill="#000000" font-family="sans-serif" font-size="13" lengthAdjust="spacing" textLength="21.6836" x="537.9835" y="251.7913">0..1</text></g><!--link TemporalExtent to Instant--><g class="link" data-entity-1="ent0008" data-entity-2="ent0009" data-link-type="dependency" data-source-line="43" id="lnk33"><path codeLine="43" d="M571.92,176.9781 C586.35,183.3581 601.17,192.8981 609.5,206.8481 C618.71,222.2781 611.0777,237.5415 601.8377,249.9815" fill="none" id="TemporalExtent-to-Instant-1" style="stroke:#404040;stroke-width:1.2;"/><polygon fill="#404040" points="598.26,254.7981,606.8376,249.9582,601.2414,250.7842,600.4154,245.188,598.26,254.7981" style="stroke:#404040;stroke-width:1.2;"/><text fill="#000000" font-family="sans-serif" font-size="13" lengthAdjust="spacing" textLength="44.0908" x="614.5" y="221.3433">hasEnd</text><text fill="#000000" font-family="sans-serif" font-size="13" lengthAdjust="spacing" textLength="21.6836" x="577.0909" y="243.8696">0..1</text></g><!--link Instant to TimePosition--><g class="link" data-entity-1="ent0009" data-entity-2="ent0010" data-link-type="dependency" data-source-line="44" id="lnk34"><path codeLine="44" d="M588.5,279.9381 C588.5,299.3081 588.5,332.0881 588.5,351.5881" fill="none" id="Instant-to-TimePosition" style="stroke:#404040;stroke-width:1.2;"/><polygon fill="#404040" points="588.5,357.5881,592.5,348.5881,588.5,352.5881,584.5,348.5881,588.5,357.5881" style="stroke:#404040;stroke-width:1.2;"/><text fill="#000000" font-family="sans-serif" font-size="13" lengthAdjust="spacing" textLength="85.2554" x="589.5" y="324.3433">inTimePosition</text><text fill="#000000" font-family="sans-serif" font-size="13" lengthAdjust="spacing" textLength="21.6836" x="563.4298" y="346.9598">0..1</text></g><?plantuml-src ZLHDZvim4BtxLrZihLAYpROdL5LAIBBQGzLq4xNd0IR13TYHxOJI3wa_eh-mlwG6GzOOKbLSPfxV6tkU1skcSwGBK2nPCfM82ygA_ldrczRHXM59CfOYJPXCShGn5YTTqGAB6AKYwiZu2IGKL6MGYfBn0zr3hj1PcKifobt6aYD7fUXi-k0i9ZaOx3kXbXQ9N4Xwz-Q-_Wou4395wQDhmVMMVKCwUo0_2R4rWYLeKAW32egsCRrRhzQhQDLHFe5a4EVu7a6T9QODrmTzqVO4ca6--ggHs-ezv4g7M6a9YMvx2kPj_eYYG2shHkg3_cO6ZuHfcd7Gg1f97neHR3CuOKTj4f-qCxScPA-7FkGBdhZIq3BRU52J5RWHYcackAte02EdVF7WLkyVpv0pNRNtK7Gd7SA-C18ymPDbj_6WeTJes9wXj3rTKv-un3tZcEvG5dQINl81rGpPKfGy5v1Ufwu3VF9dZEURfuPcGqE8rg-ZTKUO9xLnpwZEkUt41NpoHefBlNunnZHa5nZOOuwLYyCp9cQAh4akSgKFPlFjZyd46x_Rf6RmIFVZJIRlQ70_dRuAXlzNI2yUD2Rh_sGXLJQFwgS93gCxUJCTKjq2_nADZ5T8Cr13V4pTypsa9QX7v6OlZUcYwWjcWUUxwUaSVy54VzYFbNOdBwH7h4eZKgJlIyStnGSt4z83YjjyXvVLnxOPyKnq1Dr3qF0NU62Sc_V-VmKhdf8ES3YzLoEaZBi0wHlco3g_GWgnE6lo5m00?></g></svg>