<svg xmlns="http://www.w3.org/2000/svg" xmlns:xlink="http://www.w3.org/1999/xlink" contentStyleType="text/css" data-diagram-type="CLASS" height="507px" preserveAspectRatio="none" style="width:1928px;height:507px;background:#FFFFFF;" version="1.1" viewBox="0 0 1928 507" width="1928px" zoomAndPan="magnify"><?plantuml 1.2026.3?><defs/><g><g class="title" data-source-line="1"><text fill="#000000" font-family="sans-serif" font-size="14" font-weight="700" lengthAdjust="spacing" textLength="186.4297" x="867.301" y="24.5332">BasicDiscovery &#8212; overview</text></g><!--class Dataset--><g class="entity" data-qualified-name="Dataset" data-source-line="12" id="ent0002"><rect fill="#FEFECE" height="25.0938" rx="2.5" ry="2.5" style="stroke:#404040;stroke-width:0.5;" width="47.3555" x="1182" y="49.3529"/><text fill="#000000" font-family="sans-serif" font-size="12" lengthAdjust="spacing" textLength="41.3555" x="1185" y="66.81">Dataset</text></g><!--class VariableMeasured--><g class="entity" data-qualified-name="VariableMeasured" data-source-line="13" id="ent0003"><rect fill="#FEFECE" height="25.0938" rx="2.5" ry="2.5" style="stroke:#404040;stroke-width:0.5;" width="103.3887" x="257" y="152.3529"/><text fill="#000000" font-family="sans-serif" font-size="12" lengthAdjust="spacing" textLength="97.3887" x="260" y="169.81">VariableMeasured</text></g><!--class SpatialExtent--><g class="entity" data-qualified-name="SpatialExtent" data-source-line="14" id="ent0004"><rect fill="#FEFECE" height="25.0938" rx="2.5" ry="2.5" style="stroke:#404040;stroke-width:0.5;" width="76.7109" x="415" y="152.3529"/><text fill="#000000" font-family="sans-serif" font-size="12" lengthAdjust="spacing" textLength="70.7109" x="418" y="169.81">SpatialExtent</text></g><!--class AbstractGeometry--><g class="entity" data-qualified-name="AbstractGeometry" data-source-line="15" id="ent0005"><rect fill="#FEFECE" height="25.0938" rx="2.5" ry="2.5" style="stroke:#404040;stroke-width:0.5;" width="102.6973" x="293" y="262.3529"/><text fill="#000000" font-family="sans-serif" font-size="12" font-style="italic" lengthAdjust="spacing" textLength="96.6973" x="296" y="279.81">AbstractGeometry</text></g><!--class GeoCoordinates--><g class="entity" data-qualified-name="GeoCoordinates" data-source-line="16" id="ent0006"><rect fill="#FEFECE" height="25.0938" rx="2.5" ry="2.5" style="stroke:#404040;stroke-width:0.5;" width="93.3867" x="355" y="365.3529"/><text fill="#000000" font-family="sans-serif" font-size="12" lengthAdjust="spacing" textLength="87.3867" x="358" y="382.81">GeoCoordinates</text></g><!--class GeoShape--><g class="entity" data-qualified-name="GeoShape" data-source-line="17" id="ent0007"><rect fill="#FEFECE" height="25.0938" rx="2.5" ry="2.5" style="stroke:#404040;stroke-width:0.5;" width="63.3809" x="257" y="365.3529"/><text fill="#000000" font-family="sans-serif" font-size="12" lengthAdjust="spacing" textLength="57.3809" x="260" y="382.81">GeoShape</text></g><!--class TemporalExtent--><g class="entity" data-qualified-name="TemporalExtent" data-source-line="18" id="ent0008"><rect fill="#FEFECE" height="25.0938" rx="2.5" ry="2.5" style="stroke:#404040;stroke-width:0.5;" width="90.7031" x="543" y="152.3529"/><text fill="#000000" font-family="sans-serif" font-size="12" lengthAdjust="spacing" textLength="84.7031" x="546" y="169.81">TemporalExtent</text></g><!--class Instant--><g class="entity" data-qualified-name="Instant" data-source-line="19" id="ent0009"><rect fill="#FEFECE" height="25.0938" rx="2.5" ry="2.5" style="stroke:#404040;stroke-width:0.5;" width="42.0234" x="623.5" y="262.3529"/><text fill="#000000" font-family="sans-serif" font-size="12" lengthAdjust="spacing" textLength="36.0234" x="626.5" y="279.81">Instant</text></g><!--class TimePosition--><g class="entity" data-qualified-name="TimePosition" data-source-line="20" id="ent0010"><rect fill="#FEFECE" height="25.0938" rx="2.5" ry="2.5" style="stroke:#404040;stroke-width:0.5;" width="75.3574" x="607" y="365.3529"/><text fill="#000000" font-family="sans-serif" font-size="12" lengthAdjust="spacing" textLength="69.3574" x="610" y="382.81">TimePosition</text></g><!--class Geometry--><g class="entity" data-qualified-name="Geometry" data-source-line="21" id="ent0011"><rect fill="#FEFECE" height="25.0938" rx="2.5" ry="2.5" style="stroke:#404040;stroke-width:0.5;" width="58.6816" x="431" y="262.3529"/><text fill="#000000" font-family="sans-serif" font-size="12" lengthAdjust="spacing" textLength="52.6816" x="434" y="279.81">Geometry</text></g><!--class QualityMeasurement--><g class="entity" data-qualified-name="QualityMeasurement" data-source-line="22" id="ent0012"><rect fill="#FEFECE" height="25.0938" rx="2.5" ry="2.5" style="stroke:#404040;stroke-width:0.5;" width="116.7129" x="676" y="152.3529"/><text fill="#000000" font-family="sans-serif" font-size="12" lengthAdjust="spacing" textLength="110.7129" x="679" y="169.81">QualityMeasurement</text></g><!--class Concept--><g class="entity" data-qualified-name="Concept" data-source-line="23" id="ent0013"><rect fill="#FEFECE" height="25.0938" rx="2.5" ry="2.5" style="stroke:#404040;stroke-width:0.5;" width="50.6953" x="19" y="49.3529"/><text fill="#000000" font-family="sans-serif" font-size="12" lengthAdjust="spacing" textLength="44.6953" x="22" y="66.81">Concept</text></g><!--class Identifier--><g class="entity" data-qualified-name="Identifier" data-source-line="24" id="ent0014"><rect fill="#FEFECE" height="25.0938" rx="2.5" ry="2.5" style="stroke:#404040;stroke-width:0.5;" width="52.0254" x="105.5" y="49.3529"/><text fill="#000000" font-family="sans-serif" font-size="12" lengthAdjust="spacing" textLength="46.0254" x="108.5" y="66.81">Identifier</text></g><!--class DefinedTerm--><g class="entity" data-qualified-name="DefinedTerm" data-source-line="25" id="ent0015"><rect fill="#FEFECE" height="25.0938" rx="2.5" ry="2.5" style="stroke:#404040;stroke-width:0.5;" width="75.3574" x="828" y="152.3529"/><text fill="#000000" font-family="sans-serif" font-size="12" lengthAdjust="spacing" textLength="69.3574" x="831" y="169.81">DefinedTerm</text></g><!--class AbstractDistribution--><g class="entity" data-qualified-name="AbstractDistribution" data-source-line="26" id="ent0016"><rect fill="#D6EAF8" height="25.0938" rx="2.5" ry="2.5" style="stroke:#404040;stroke-width:0.5;" width="110.0391" x="938.5" y="152.3529"/><text fill="#000000" font-family="sans-serif" font-size="12" font-style="italic" lengthAdjust="spacing" textLength="104.0391" x="941.5" y="169.81">AbstractDistribution</text></g><!--class DataDownload--><g class="entity" data-qualified-name="DataDownload" data-source-line="27" id="ent0017"><rect fill="#FEFECE" height="25.0938" rx="2.5" ry="2.5" style="stroke:#404040;stroke-width:0.5;" width="84.7148" x="948" y="262.3529"/><text fill="#000000" font-family="sans-serif" font-size="12" lengthAdjust="spacing" textLength="78.7148" x="951" y="279.81">DataDownload</text></g><!--class WebAPI--><g class="entity" data-qualified-name="WebAPI" data-source-line="28" id="ent0018"><rect fill="#D6EAF8" height="25.0938" rx="2.5" ry="2.5" style="stroke:#404040;stroke-width:0.5;" width="50.0156" x="862.5" y="262.3529"/><text fill="#000000" font-family="sans-serif" font-size="12" lengthAdjust="spacing" textLength="44.0156" x="865.5" y="279.81">WebAPI</text></g><!--class Action--><g class="entity" data-qualified-name="Action" data-source-line="29" id="ent0019"><rect fill="#D6EAF8" height="25.0938" rx="2.5" ry="2.5" style="stroke:#404040;stroke-width:0.5;" width="39.3516" x="868" y="365.3529"/><text fill="#000000" font-family="sans-serif" font-size="12" lengthAdjust="spacing" textLength="33.3516" x="871" y="382.81">Action</text></g><!--class EntryPoint--><g class="entity" data-qualified-name="EntryPoint" data-source-line="30" id="ent0020"><rect fill="#D6EAF8" height="25.0938" rx="2.5" ry="2.5" style="stroke:#404040;stroke-width:0.5;" width="61.3594" x="755" y="468.3529"/><text fill="#000000" font-family="sans-serif" font-size="12" lengthAdjust="spacing" textLength="55.3594" x="758" y="485.81">EntryPoint</text></g><!--class ActionResult--><g class="entity" data-qualified-name="ActionResult" data-source-line="31" id="ent0021"><rect fill="#D6EAF8" height="25.0938" rx="2.5" ry="2.5" style="stroke:#404040;stroke-width:0.5;" width="73.3652" x="851" y="468.3529"/><text fill="#000000" font-family="sans-serif" font-size="12" lengthAdjust="spacing" textLength="67.3652" x="854" y="485.81">ActionResult</text></g><!--class PropertyValueSpecification--><g class="entity" data-qualified-name="PropertyValueSpecification" data-source-line="32" id="ent0022"><rect fill="#D6EAF8" height="25.0938" rx="2.5" ry="2.5" style="stroke:#404040;stroke-width:0.5;" width="150.082" x="959.5" y="468.3529"/><text fill="#000000" font-family="sans-serif" font-size="12" lengthAdjust="spacing" textLength="144.082" x="962.5" y="485.81">PropertyValueSpecification</text></g><!--class Agent--><g class="entity" data-qualified-name="Agent" data-source-line="33" id="ent0023"><rect fill="#D6EAF8" height="25.0938" rx="2.5" ry="2.5" style="stroke:#404040;stroke-width:0.5;" width="37.3594" x="1236" y="365.3529"/><text fill="#000000" font-family="sans-serif" font-size="12" font-style="italic" lengthAdjust="spacing" textLength="31.3594" x="1239" y="382.81">Agent</text></g><!--class Person--><g class="entity" data-qualified-name="Person" data-source-line="34" id="ent0024"><rect fill="#D6EAF8" height="25.0938" rx="2.5" ry="2.5" style="stroke:#404040;stroke-width:0.5;" width="44.0215" x="1290.5" y="468.3529"/><text fill="#000000" font-family="sans-serif" font-size="12" lengthAdjust="spacing" textLength="38.0215" x="1293.5" y="485.81">Person</text></g><!--class ContactPoint--><g class="entity" data-qualified-name="ContactPoint" data-source-line="35" id="ent0025"><rect fill="#D6EAF8" height="25.0938" rx="2.5" ry="2.5" style="stroke:#404040;stroke-width:0.5;" width="74.707" x="7" y="152.3529"/><text fill="#000000" font-family="sans-serif" font-size="12" lengthAdjust="spacing" textLength="68.707" x="10" y="169.81">ContactPoint</text></g><!--class Organization--><g class="entity" data-qualified-name="Organization" data-source-line="36" id="ent0026"><rect fill="#D6EAF8" height="25.0938" rx="2.5" ry="2.5" style="stroke:#404040;stroke-width:0.5;" width="74.0391" x="1181.5" y="468.3529"/><text fill="#000000" font-family="sans-serif" font-size="12" lengthAdjust="spacing" textLength="68.0391" x="1184.5" y="485.81">Organization</text></g><!--class Contributor--><g class="entity" data-qualified-name="Contributor" data-source-line="37" id="ent0027"><rect fill="#D6EAF8" height="25.0938" rx="2.5" ry="2.5" style="stroke:#404040;stroke-width:0.5;" width="65.3613" x="1314" y="207.3529"/><text fill="#000000" font-family="sans-serif" font-size="12" lengthAdjust="spacing" textLength="59.3613" x="1317" y="224.81">Contributor</text></g><!--class AdditionalProperty--><g class="entity" data-qualified-name="AdditionalProperty" data-source-line="38" id="ent0028"><rect fill="#D6EAF8" height="25.0938" rx="2.5" ry="2.5" style="stroke:#404040;stroke-width:0.5;" width="104.0566" x="117.5" y="152.3529"/><text fill="#000000" font-family="sans-serif" font-size="12" lengthAdjust="spacing" textLength="98.0566" x="120.5" y="169.81">AdditionalProperty</text></g><!--class Reference--><g class="entity" data-qualified-name="Reference" data-source-line="39" id="ent0029"><rect fill="#D6EAF8" height="25.0938" rx="2.5" ry="2.5" style="stroke:#404040;stroke-width:0.5;" width="61.3652" x="1368" y="152.3529"/><text fill="#000000" font-family="sans-serif" font-size="12" lengthAdjust="spacing" textLength="55.3652" x="1371" y="169.81">Reference</text></g><!--class MonetaryGrant--><g class="entity" data-qualified-name="MonetaryGrant" data-source-line="40" id="ent0030"><rect fill="#D6EAF8" height="25.0938" rx="2.5" ry="2.5" style="stroke:#404040;stroke-width:0.5;" width="86.0332" x="1437.5" y="207.3529"/><text fill="#000000" font-family="sans-serif" font-size="12" lengthAdjust="spacing" textLength="80.0332" x="1440.5" y="224.81">MonetaryGrant</text></g><!--class ProvActivity--><g class="entity" data-qualified-name="ProvActivity" data-source-line="41" id="ent0031"><rect fill="#FEFECE" height="25.0938" rx="2.5" ry="2.5" style="stroke:#404040;stroke-width:0.5;" width="68.6777" x="1536" y="152.3529"/><text fill="#000000" font-family="sans-serif" font-size="12" lengthAdjust="spacing" textLength="62.6777" x="1539" y="169.81">ProvActivity</text></g><!--class DerivedFrom--><g class="entity" data-qualified-name="DerivedFrom" data-source-line="42" id="ent0032"><rect fill="#D6EAF8" height="25.0938" rx="2.5" ry="2.5" style="stroke:#404040;stroke-width:0.5;" width="75.3457" x="1670" y="152.3529"/><text fill="#000000" font-family="sans-serif" font-size="12" lengthAdjust="spacing" textLength="69.3457" x="1673" y="169.81">DerivedFrom</text></g><!--class CatalogRecord--><g class="entity" data-qualified-name="CatalogRecord" data-source-line="43" id="ent0033"><rect fill="#FEFECE" height="25.0938" rx="2.5" ry="2.5" style="stroke:#404040;stroke-width:0.5;" width="86.0449" x="1804.5" y="152.3529"/><text fill="#000000" font-family="sans-serif" font-size="12" lengthAdjust="spacing" textLength="80.0449" x="1807.5" y="169.81">CatalogRecord</text></g><!--reverse link AbstractGeometry to GeoCoordinates--><g class="link" data-entity-1="ent0005" data-entity-2="ent0006" data-link-type="extension" data-source-line="44" id="lnk34"><path codeLine="44" d="M359.892,303.1159 C370.832,322.4859 383.86,345.5929 394.86,365.0929" fill="none" id="AbstractGeometry-backto-GeoCoordinates" style="stroke:#404040;stroke-width:1.2;"/><polygon fill="none" points="351.04,287.4429,354.6676,306.0666,365.1163,300.1653,351.04,287.4429" style="stroke:#404040;stroke-width:1.2;"/></g><!--reverse link AbstractGeometry to GeoShape--><g class="link" data-entity-1="ent0005" data-entity-2="ent0007" data-link-type="extension" data-source-line="45" id="lnk35"><path codeLine="45" d="M329.3453,303.1816 C318.5953,322.5516 305.83,345.5929 295.02,365.0929" fill="none" id="AbstractGeometry-backto-GeoShape" style="stroke:#404040;stroke-width:1.2;"/><polygon fill="none" points="338.08,287.4429,324.0991,300.2701,334.5915,306.0932,338.08,287.4429" style="stroke:#404040;stroke-width:1.2;"/></g><!--reverse link AbstractDistribution to DataDownload--><g class="link" data-entity-1="ent0016" data-entity-2="ent0017" data-link-type="extension" data-source-line="46" id="lnk36"><path codeLine="46" d="M992.6754,195.4059 C992.0954,216.0859 991.41,241.1929 990.83,262.0529" fill="none" id="AbstractDistribution-backto-DataDownload" style="stroke:#404040;stroke-width:1.2;"/><polygon fill="none" points="993.18,177.4129,986.6777,195.2377,998.673,195.5741,993.18,177.4129" style="stroke:#404040;stroke-width:1.2;"/></g><!--reverse link AbstractDistribution to WebAPI--><g class="link" data-entity-1="ent0016" data-entity-2="ent0018" data-link-type="extension" data-source-line="47" id="lnk37"><path codeLine="47" d="M969.5506,190.2583 C949.2506,210.9383 919.55,241.1929 899.08,262.0529" fill="none" id="AbstractDistribution-backto-WebAPI" style="stroke:#404040;stroke-width:1.2;"/><polygon fill="none" points="982.16,177.4129,965.2688,186.0552,973.8324,194.4615,982.16,177.4129" style="stroke:#404040;stroke-width:1.2;"/></g><!--reverse link Agent to Person--><g class="link" data-entity-1="ent0023" data-entity-2="ent0024" data-link-type="extension" data-source-line="48" id="lnk38"><path codeLine="48" d="M1270.1178,406.05 C1281.2478,425.42 1294.55,448.5929 1305.75,468.0929" fill="none" id="Agent-backto-Person" style="stroke:#404040;stroke-width:1.2;"/><polygon fill="none" points="1261.15,390.4429,1264.9154,409.0392,1275.3201,403.0607,1261.15,390.4429" style="stroke:#404040;stroke-width:1.2;"/></g><!--reverse link Agent to Organization--><g class="link" data-entity-1="ent0023" data-entity-2="ent0026" data-link-type="extension" data-source-line="49" id="lnk39"><path codeLine="49" d="M1244.322,407.3965 C1237.412,426.7665 1229.64,448.5929 1222.69,468.0929" fill="none" id="Agent-backto-Organization" style="stroke:#404040;stroke-width:1.2;"/><polygon fill="none" points="1250.37,390.4429,1238.6709,405.3805,1249.9732,409.4125,1250.37,390.4429" style="stroke:#404040;stroke-width:1.2;"/></g><!--link Dataset to VariableMeasured--><g class="link" data-entity-1="ent0002" data-entity-2="ent0003" data-link-type="dependency" data-source-line="50" id="lnk40"><path codeLine="50" d="M1181.79,63.0729 C1053.84,64.3629 448.79,72.1529 372.5,104.3529 C348.46,114.5029 331.4875,133.1166 320.5375,147.3566" fill="none" id="Dataset-to-VariableMeasured" style="stroke:#404040;stroke-width:1.2;"/><polygon fill="#404040" points="316.88,152.1129,325.5371,147.4167,319.9279,148.1493,319.1953,142.5401,316.88,152.1129" style="stroke:#404040;stroke-width:1.2;"/><text fill="#000000" font-family="sans-serif" font-size="13" lengthAdjust="spacing" textLength="103.3335" x="373.5" y="118.8481">variableMeasured</text><text fill="#000000" font-family="sans-serif" font-size="13" lengthAdjust="spacing" textLength="19.5127" x="297.4634" y="141.4924">0..*</text></g><!--link Dataset to SpatialExtent--><g class="link" data-entity-1="ent0002" data-entity-2="ent0004" data-link-type="dependency" data-source-line="51" id="lnk41"><path codeLine="51" d="M1181.96,63.2129 C1067.32,65.1229 570.47,75.0229 508.5,104.3529 C486.63,114.7029 472.5352,132.9372 463.5352,147.1172" fill="none" id="Dataset-to-SpatialExtent" style="stroke:#404040;stroke-width:1.2;"/><polygon fill="#404040" points="460.32,152.1829,468.5201,146.7278,462.9994,147.9615,461.7657,142.4408,460.32,152.1829" style="stroke:#404040;stroke-width:1.2;"/><text fill="#000000" font-family="sans-serif" font-size="13" lengthAdjust="spacing" textLength="93.9453" x="509.5" y="118.8481">spatialCoverage</text><text fill="#000000" font-family="sans-serif" font-size="13" lengthAdjust="spacing" textLength="19.5127" x="440.4226" y="141.59">0..*</text></g><!--link Dataset to TemporalExtent--><g class="link" data-entity-1="ent0002" data-entity-2="ent0008" data-link-type="dependency" data-source-line="52" id="lnk42"><path codeLine="52" d="M1181.67,63.3629 C1079.08,65.7029 678.02,76.5929 629.5,104.3529 C610.77,115.0729 601.0217,132.7103 595.1217,146.7703" fill="none" id="Dataset-to-TemporalExtent" style="stroke:#404040;stroke-width:1.2;"/><polygon fill="#404040" points="592.8,152.3029,599.9709,145.5518,594.7347,147.6924,592.5941,142.4562,592.8,152.3029" style="stroke:#404040;stroke-width:1.2;"/><text fill="#000000" font-family="sans-serif" font-size="13" lengthAdjust="spacing" textLength="106.9453" x="630.5" y="118.8481">temporalCoverage</text><text fill="#000000" font-family="sans-serif" font-size="13" lengthAdjust="spacing" textLength="19.5127" x="571.822" y="141.3744">0..*</text></g><!--link Dataset to QualityMeasurement--><g class="link" data-entity-1="ent0002" data-entity-2="ent0012" data-link-type="dependency" data-source-line="53" id="lnk43"><path codeLine="53" d="M1181.8,63.6429 C1094.44,66.7629 793.75,79.2229 759.5,104.3529 C744.14,115.6229 739.1374,132.2431 736.8474,146.1131" fill="none" id="Dataset-to-QualityMeasurement" style="stroke:#404040;stroke-width:1.2;"/><polygon fill="#404040" points="735.87,152.0329,741.2827,143.8048,736.6845,147.0997,733.3895,142.5016,735.87,152.0329" style="stroke:#404040;stroke-width:1.2;"/><text fill="#000000" font-family="sans-serif" font-size="13" lengthAdjust="spacing" textLength="140.8989" x="760.5" y="118.8481">hasQualityMeasurement</text><text fill="#000000" font-family="sans-serif" font-size="13" lengthAdjust="spacing" textLength="19.5127" x="713.8263" y="141.3809">0..*</text></g><!--link Dataset to Agent--><g class="link" data-entity-1="ent0002" data-entity-2="ent0023" data-link-type="dependency" data-source-line="54" id="lnk44"><path codeLine="54" d="M1185.9,74.5229 C1146.16,99.8529 1061.5,163.1729 1081.5,232.3529 C1096.54,284.3529 1104.66,301.0029 1146.5,335.3529 C1173.2,357.2729 1206.9154,367.2055 1230.0054,372.1955" fill="none" id="Dataset-to-Agent" style="stroke:#404040;stroke-width:1.2;"/><polygon fill="#404040" points="1235.87,373.4629,1227.918,367.6521,1230.9828,372.4068,1226.2281,375.4716,1235.87,373.4629" style="stroke:#404040;stroke-width:1.2;"/><text fill="#000000" font-family="sans-serif" font-size="13" lengthAdjust="spacing" textLength="46.9663" x="1082.5" y="225.3481">provider</text><text fill="#000000" font-family="sans-serif" font-size="13" lengthAdjust="spacing" textLength="19.5127" x="1208.6293" y="367.3564">0..*</text></g><!--link Dataset to Agent--><g class="link" data-entity-1="ent0002" data-entity-2="ent0023" data-link-type="dependency" data-source-line="56" id="lnk46"><path codeLine="56" d="M1199.28,74.4629 C1185.32,102.0429 1153.87,173.6329 1169.5,232.3529 C1184.02,286.9229 1221.5459,337.123 1240.7059,360.493" fill="none" id="Dataset-to-Agent-1" style="stroke:#404040;stroke-width:1.2;"/><polygon fill="#404040" points="1244.51,365.1329,1241.8972,355.637,1241.3399,361.2663,1235.7106,360.7091,1244.51,365.1329" style="stroke:#404040;stroke-width:1.2;"/><text fill="#000000" font-family="sans-serif" font-size="13" lengthAdjust="spacing" textLength="40.46" x="1170.5" y="225.3481">creator</text><text fill="#000000" font-family="sans-serif" font-size="13" lengthAdjust="spacing" textLength="19.5127" x="1244.3472" y="354.5203">0..*</text></g><!--link Dataset to Agent--><g class="link" data-entity-1="ent0002" data-entity-2="ent0023" data-link-type="dependency" data-source-line="58" id="lnk48"><path codeLine="58" d="M1207.3,74.4029 C1214.99,123.6329 1244.0455,309.8346 1251.7555,359.2746" fill="none" id="Dataset-to-Agent-2" style="stroke:#404040;stroke-width:1.2;"/><polygon fill="#404040" points="1252.68,365.2029,1255.2455,355.6941,1251.9096,360.2627,1247.341,356.9268,1252.68,365.2029" style="stroke:#404040;stroke-width:1.2;"/><text fill="#000000" font-family="sans-serif" font-size="13" lengthAdjust="spacing" textLength="52.7554" x="1233.5" y="225.3481">publisher</text><text fill="#000000" font-family="sans-serif" font-size="13" lengthAdjust="spacing" textLength="21.6836" x="1256.1616" y="354.6179">0..1</text></g><!--link Dataset to AbstractDistribution--><g class="link" data-entity-1="ent0002" data-entity-2="ent0016" data-link-type="dependency" data-source-line="55" id="lnk45"><path codeLine="55" d="M1181.91,64.9229 C1135.84,69.4329 1036.21,81.6129 1011.5,104.3529 C998.16,116.6329 994.9741,132.4359 994.0841,145.9559" fill="none" id="Dataset-to-AbstractDistribution" style="stroke:#404040;stroke-width:1.2;"/><polygon fill="#404040" points="993.69,151.9429,998.2725,143.2251,994.0184,146.9537,990.2898,142.6996,993.69,151.9429" style="stroke:#404040;stroke-width:1.2;"/><text fill="#000000" font-family="sans-serif" font-size="13" lengthAdjust="spacing" textLength="62.8672" x="1012.5" y="118.8481">distribution</text><text fill="#000000" font-family="sans-serif" font-size="13" lengthAdjust="spacing" textLength="19.5127" x="971.2308" y="141.5153">0..*</text></g><!--link Dataset to Contributor--><g class="link" data-entity-1="ent0002" data-entity-2="ent0027" data-link-type="dependency" data-source-line="57" id="lnk47"><path codeLine="57" d="M1222.63,74.5629 C1233.47,82.3829 1247.48,93.2329 1258.5,104.3529 C1292.21,138.3629 1321.2985,180.3529 1335.5785,202.0229" fill="none" id="Dataset-to-Contributor" style="stroke:#404040;stroke-width:1.2;"/><polygon fill="#404040" points="1338.88,207.0329,1337.2678,197.3169,1336.1288,202.8579,1330.5878,201.7189,1338.88,207.0329" style="stroke:#404040;stroke-width:1.2;"/><text fill="#000000" font-family="sans-serif" font-size="13" lengthAdjust="spacing" textLength="61.4199" x="1275.5" y="118.8481">contributor</text><text fill="#000000" font-family="sans-serif" font-size="13" lengthAdjust="spacing" textLength="19.5127" x="1313.1688" y="196.3809">0..*</text></g><!--link Dataset to MonetaryGrant--><g class="link" data-entity-1="ent0002" data-entity-2="ent0030" data-link-type="dependency" data-source-line="59" id="lnk49"><path codeLine="59" d="M1229.15,64.5129 C1280.01,68.5229 1397.65,80.1929 1428.5,104.3529 C1462.19,130.7329 1473.7613,177.9201 1477.8013,201.3701" fill="none" id="Dataset-to-MonetaryGrant" style="stroke:#404040;stroke-width:1.2;"/><polygon fill="#404040" points="1478.82,207.2829,1481.2339,197.7345,1477.9711,202.3555,1473.35,199.0927,1478.82,207.2829" style="stroke:#404040;stroke-width:1.2;"/><text fill="#000000" font-family="sans-serif" font-size="13" lengthAdjust="spacing" textLength="42.6499" x="1446.5" y="118.8481">funding</text><text fill="#000000" font-family="sans-serif" font-size="13" lengthAdjust="spacing" textLength="19.5127" x="1455.3071" y="196.3461">0..*</text></g><!--link Dataset to ProvActivity--><g class="link" data-entity-1="ent0002" data-entity-2="ent0031" data-link-type="dependency" data-source-line="60" id="lnk50"><path codeLine="60" d="M1229.43,63.5029 C1295.17,65.6729 1477,74.3129 1527.5,104.3529 C1546.12,115.4329 1556.4216,132.601 1562.9616,146.541" fill="none" id="Dataset-to-ProvActivity" style="stroke:#404040;stroke-width:1.2;"/><polygon fill="#404040" points="1565.51,151.9729,1565.3087,142.1261,1563.3863,147.4464,1558.0661,145.524,1565.51,151.9729" style="stroke:#404040;stroke-width:1.2;"/><text fill="#000000" font-family="sans-serif" font-size="13" lengthAdjust="spacing" textLength="99.7217" x="1548.5" y="118.8481">wasGeneratedBy</text><text fill="#000000" font-family="sans-serif" font-size="13" lengthAdjust="spacing" textLength="19.5127" x="1541.1449" y="141.5567">0..*</text></g><!--link Dataset to DerivedFrom--><g class="link" data-entity-1="ent0002" data-entity-2="ent0032" data-link-type="dependency" data-source-line="61" id="lnk51"><path codeLine="61" d="M1229.28,62.7229 C1311.23,62.6229 1580.97,65.3229 1656.5,104.3529 C1677.29,115.0929 1690.1511,133.0777 1698.3311,147.1277" fill="none" id="Dataset-to-DerivedFrom" style="stroke:#404040;stroke-width:1.2;"/><polygon fill="#404040" points="1701.35,152.3129,1700.2785,142.5225,1698.8343,147.9919,1693.3649,146.5477,1701.35,152.3129" style="stroke:#404040;stroke-width:1.2;"/><text fill="#000000" font-family="sans-serif" font-size="13" lengthAdjust="spacing" textLength="98.2427" x="1678.5" y="118.8481">wasDerivedFrom</text><text fill="#000000" font-family="sans-serif" font-size="13" lengthAdjust="spacing" textLength="19.5127" x="1675.9288" y="141.3885">0..*</text></g><!--link Dataset to CatalogRecord--><g class="link" data-entity-1="ent0002" data-entity-2="ent0033" data-link-type="dependency" data-source-line="62" id="lnk52"><path codeLine="62" d="M1229.02,62.4329 C1324.57,61.0429 1683.44,59.0029 1785.5,104.3529 C1808.95,114.7729 1825.2936,133.2428 1835.8436,147.3928" fill="none" id="Dataset-to-CatalogRecord" style="stroke:#404040;stroke-width:1.2;"/><polygon fill="#404040" points="1839.43,152.2029,1837.2572,142.5968,1836.4413,148.1945,1830.8436,147.3786,1839.43,152.2029" style="stroke:#404040;stroke-width:1.2;"/><text fill="#000000" font-family="sans-serif" font-size="13" lengthAdjust="spacing" textLength="54.9136" x="1811.5" y="118.8481">subjectOf</text><text fill="#000000" font-family="sans-serif" font-size="13" lengthAdjust="spacing" textLength="7.23" x="1827.9107" y="141.6179">1</text></g><!--link CatalogRecord to Dataset--><g class="link" data-entity-1="ent0033" data-entity-2="ent0002" data-link-type="dependency" data-source-line="77" id="lnk67"><path codeLine="77" d="M1859.95,152.0529 C1872.22,139.0229 1887.4,118.0729 1874.5,104.3529 C1851.94,80.3429 1351.5981,66.4829 1235.1981,63.5729" fill="none" id="CatalogRecord-to-Dataset" style="stroke:#404040;stroke-width:1.2;"/><polygon fill="#404040" points="1229.2,63.4229,1238.0972,67.6466,1234.1984,63.5479,1238.2972,59.6491,1229.2,63.4229" style="stroke:#404040;stroke-width:1.2;"/><text fill="#000000" font-family="sans-serif" font-size="13" lengthAdjust="spacing" textLength="32.5317" x="1879.5" y="118.8481">about</text><text fill="#000000" font-family="sans-serif" font-size="13" lengthAdjust="spacing" textLength="21.6836" x="1237.1467" y="59.4609">0..1</text></g><!--link Dataset to DefinedTerm--><g class="link" data-entity-1="ent0002" data-entity-2="ent0015" data-link-type="dependency" data-source-line="63" id="lnk53"><path codeLine="63" d="M1181.63,62.3229 C1133.15,62.1329 1020.65,66.2429 936.5,104.3529 C911.6,115.6329 892.5188,133.7541 879.7788,147.6241" fill="none" id="Dataset-to-DefinedTerm" style="stroke:#404040;stroke-width:1.2;"/><polygon fill="#404040" points="875.72,152.0429,884.7541,148.1206,879.1023,148.3606,878.8623,142.7088,875.72,152.0429" style="stroke:#404040;stroke-width:1.2;"/><text fill="#000000" font-family="sans-serif" font-size="13" lengthAdjust="spacing" textLength="54.9072" x="937.5" y="118.8481">keywords</text><text fill="#000000" font-family="sans-serif" font-size="13" lengthAdjust="spacing" textLength="19.5127" x="857.0341" y="141.3949">0..*</text></g><!--link Dataset to Reference--><g class="link" data-entity-1="ent0002" data-entity-2="ent0029" data-link-type="dependency" data-source-line="64" id="lnk54"><path codeLine="64" d="M1229.23,63.8129 C1261.98,66.2529 1321.52,74.7529 1361.5,104.3529 C1377.93,116.5129 1386.4833,132.7695 1391.9633,146.3395" fill="none" id="Dataset-to-Reference" style="stroke:#404040;stroke-width:1.2;"/><polygon fill="#404040" points="1394.21,151.9029,1394.5489,142.0599,1392.3377,147.2667,1387.1309,145.0555,1394.21,151.9029" style="stroke:#404040;stroke-width:1.2;"/><text fill="#000000" font-family="sans-serif" font-size="13" lengthAdjust="spacing" textLength="40.4663" x="1379.5" y="118.8481">license</text><text fill="#000000" font-family="sans-serif" font-size="13" lengthAdjust="spacing" textLength="19.5127" x="1369.9807" y="141.46">0..*</text></g><!--link SpatialExtent to AbstractGeometry--><g class="link" data-entity-1="ent0004" data-entity-2="ent0005" data-link-type="dependency" data-source-line="65" id="lnk55"><path codeLine="65" d="M441.84,177.4129 C420.97,198.0929 381.7218,236.9696 360.6718,257.8296" fill="none" id="SpatialExtent-to-AbstractGeometry" style="stroke:#404040;stroke-width:1.2;"/><polygon fill="#404040" points="356.41,262.0529,365.6183,258.5591,359.9615,258.5335,359.9872,252.8767,356.41,262.0529" style="stroke:#404040;stroke-width:1.2;"/><text fill="#000000" font-family="sans-serif" font-size="13" lengthAdjust="spacing" textLength="21.6899" x="410.5" y="225.3481">geo</text><text fill="#000000" font-family="sans-serif" font-size="13" lengthAdjust="spacing" textLength="21.6836" x="336.1594" y="251.4088">0..1</text></g><!--link SpatialExtent to Geometry--><g class="link" data-entity-1="ent0004" data-entity-2="ent0011" data-link-type="dependency" data-source-line="66" id="lnk56"><path codeLine="66" d="M454.25,177.4129 C455.59,198.0929 457.9896,235.2057 459.3496,256.0657" fill="none" id="SpatialExtent-to-Geometry" style="stroke:#404040;stroke-width:1.2;"/><polygon fill="#404040" points="459.74,262.0529,463.146,252.8118,459.4147,257.0635,455.1629,253.3322,459.74,262.0529" style="stroke:#404040;stroke-width:1.2;"/><text fill="#000000" font-family="sans-serif" font-size="13" lengthAdjust="spacing" textLength="78.0317" x="459.5" y="225.3481">hasGeometry</text><text fill="#000000" font-family="sans-serif" font-size="13" lengthAdjust="spacing" textLength="21.6836" x="434.5036" y="251.4088">0..1</text></g><!--link TemporalExtent to Instant--><g class="link" data-entity-1="ent0008" data-entity-2="ent0009" data-link-type="dependency" data-source-line="67" id="lnk57"><path codeLine="67" d="M583.49,177.4429 C578.3,191.3529 572.14,214.9829 581.5,232.3529 C590.32,248.7229 603.2598,257.2602 617.9098,263.7902" fill="none" id="TemporalExtent-to-Instant" style="stroke:#404040;stroke-width:1.2;"/><polygon fill="#404040" points="623.39,266.2329,616.7981,258.9154,618.8231,264.1973,613.5411,266.2223,623.39,266.2329" style="stroke:#404040;stroke-width:1.2;"/><text fill="#000000" font-family="sans-serif" font-size="13" lengthAdjust="spacing" textLength="78.7871" x="582.5" y="225.3481">hasBeginning</text><text fill="#000000" font-family="sans-serif" font-size="13" lengthAdjust="spacing" textLength="21.6836" x="593.9835" y="259.2961">0..1</text></g><!--link TemporalExtent to Instant--><g class="link" data-entity-1="ent0008" data-entity-2="ent0009" data-link-type="dependency" data-source-line="68" id="lnk58"><path codeLine="68" d="M627.92,177.4829 C642.35,183.8629 657.17,193.4029 665.5,207.3529 C675.93,224.8129 667.0563,243.0844 657.3663,256.9544" fill="none" id="TemporalExtent-to-Instant-1" style="stroke:#404040;stroke-width:1.2;"/><polygon fill="#404040" points="653.93,261.8729,662.3634,256.7859,656.7935,257.7742,655.8053,252.2043,653.93,261.8729" style="stroke:#404040;stroke-width:1.2;"/><text fill="#000000" font-family="sans-serif" font-size="13" lengthAdjust="spacing" textLength="44.0908" x="670.5" y="225.3481">hasEnd</text><text fill="#000000" font-family="sans-serif" font-size="13" lengthAdjust="spacing" textLength="21.6836" x="632.6479" y="251.4186">0..1</text></g><!--link Instant to TimePosition--><g class="link" data-entity-1="ent0009" data-entity-2="ent0010" data-link-type="dependency" data-source-line="69" id="lnk59"><path codeLine="69" d="M644.5,287.4429 C644.5,306.8129 644.5,339.5929 644.5,359.0929" fill="none" id="Instant-to-TimePosition" style="stroke:#404040;stroke-width:1.2;"/><polygon fill="#404040" points="644.5,365.0929,648.5,356.0929,644.5,360.0929,640.5,356.0929,644.5,365.0929" style="stroke:#404040;stroke-width:1.2;"/><text fill="#000000" font-family="sans-serif" font-size="13" lengthAdjust="spacing" textLength="85.2554" x="645.5" y="331.8481">inTimePosition</text><text fill="#000000" font-family="sans-serif" font-size="13" lengthAdjust="spacing" textLength="21.6836" x="619.4298" y="354.4646">0..1</text></g><!--link DataDownload to Agent--><g class="link" data-entity-1="ent0017" data-entity-2="ent0023" data-link-type="dependency" data-source-line="70" id="lnk60"><path codeLine="70" d="M991.4,287.4329 C993.12,301.0729 998.1,323.3929 1012.5,335.3529 C1046.6,363.6829 1179.0581,373.061 1229.7681,375.701" fill="none" id="DataDownload-to-Agent" style="stroke:#404040;stroke-width:1.2;"/><polygon fill="#404040" points="1235.76,376.0129,1226.9801,371.5504,1230.7668,375.753,1226.5642,379.5396,1235.76,376.0129" style="stroke:#404040;stroke-width:1.2;"/><text fill="#000000" font-family="sans-serif" font-size="13" lengthAdjust="spacing" textLength="46.9663" x="1013.5" y="331.8481">provider</text><text fill="#000000" font-family="sans-serif" font-size="13" lengthAdjust="spacing" textLength="19.5127" x="1208.487" y="391.3554">0..*</text></g><!--link WebAPI to Action--><g class="link" data-entity-1="ent0018" data-entity-2="ent0019" data-link-type="dependency" data-source-line="71" id="lnk61"><path codeLine="71" d="M886.7,287.7029 C885.98,299.7129 885.1,318.8229 885.5,335.3529 C885.74,345.4529 885.9816,350.9225 886.4516,359.2425" fill="none" id="WebAPI-to-Action" style="stroke:#404040;stroke-width:1.2;"/><polygon fill="#404040" points="886.79,365.2329,890.276,356.0217,886.508,360.2409,882.2888,356.4729,886.79,365.2329" style="stroke:#404040;stroke-width:1.2;"/><text fill="#000000" font-family="sans-serif" font-size="13" lengthAdjust="spacing" textLength="85.2808" x="886.5" y="331.8481">potentialAction</text><text fill="#000000" font-family="sans-serif" font-size="13" lengthAdjust="spacing" textLength="19.5127" x="863.6116" y="354.2755">0..*</text></g><!--link Action to EntryPoint--><g class="link" data-entity-1="ent0019" data-entity-2="ent0020" data-link-type="dependency" data-source-line="72" id="lnk62"><path codeLine="72" d="M875.38,390.4129 C866.73,398.6929 854.84,410.1529 844.5,420.3529 C827.93,436.7029 813.2334,451.5715 801.3834,463.6415" fill="none" id="Action-to-EntryPoint" style="stroke:#404040;stroke-width:1.2;"/><polygon fill="#404040" points="797.18,467.9229,806.3395,464.303,800.6829,464.355,800.6308,458.6984,797.18,467.9229" style="stroke:#404040;stroke-width:1.2;"/><text fill="#000000" font-family="sans-serif" font-size="13" lengthAdjust="spacing" textLength="33.2427" x="845.5" y="434.8481">target</text><text fill="#000000" font-family="sans-serif" font-size="13" lengthAdjust="spacing" textLength="7.23" x="793.274" y="457.4876">1</text></g><!--link Action to ActionResult--><g class="link" data-entity-1="ent0019" data-entity-2="ent0021" data-link-type="dependency" data-source-line="73" id="lnk63"><path codeLine="73" d="M887.5,390.4429 C887.5,409.8129 887.5,442.5929 887.5,462.0929" fill="none" id="Action-to-ActionResult" style="stroke:#404040;stroke-width:1.2;"/><polygon fill="#404040" points="887.5,468.0929,891.5,459.0929,887.5,463.0929,883.5,459.0929,887.5,468.0929" style="stroke:#404040;stroke-width:1.2;"/><text fill="#000000" font-family="sans-serif" font-size="13" lengthAdjust="spacing" textLength="31.7891" x="888.5" y="434.8481">result</text><text fill="#000000" font-family="sans-serif" font-size="13" lengthAdjust="spacing" textLength="21.6836" x="862.4283" y="457.4646">0..1</text></g><!--link Action to PropertyValueSpecification--><g class="link" data-entity-1="ent0019" data-entity-2="ent0022" data-link-type="dependency" data-source-line="74" id="lnk64"><path codeLine="74" d="M904.36,390.4429 C932.57,409.8129 984.0654,445.1943 1012.4354,464.6943" fill="none" id="Action-to-PropertyValueSpecification" style="stroke:#404040;stroke-width:1.2;"/><polygon fill="#404040" points="1017.38,468.0929,1012.2289,459.6986,1013.2595,465.2607,1007.6973,466.2914,1017.38,468.0929" style="stroke:#404040;stroke-width:1.2;"/><text fill="#000000" font-family="sans-serif" font-size="13" lengthAdjust="spacing" textLength="61.4326" x="971.5" y="434.8481">queryInput</text><text fill="#000000" font-family="sans-serif" font-size="13" lengthAdjust="spacing" textLength="19.5127" x="987.9832" y="457.4646">0..*</text></g><!--link Contributor to Agent--><g class="link" data-entity-1="ent0027" data-entity-2="ent0023" data-link-type="dependency" data-source-line="75" id="lnk65"><path codeLine="75" d="M1339.9,232.6429 C1328.17,253.4929 1302.84,298.1829 1280.5,335.3529 C1274.37,345.5529 1270.3916,351.9512 1265.1216,360.2312" fill="none" id="Contributor-to-Agent" style="stroke:#404040;stroke-width:1.2;"/><polygon fill="#404040" points="1261.9,365.2929,1270.107,359.8481,1264.5847,361.0749,1263.358,355.5526,1261.9,365.2929" style="stroke:#404040;stroke-width:1.2;"/><text fill="#000000" font-family="sans-serif" font-size="13" lengthAdjust="spacing" textLength="61.4199" x="1324.5" y="280.3481">contributor</text><text fill="#000000" font-family="sans-serif" font-size="13" lengthAdjust="spacing" textLength="21.6836" x="1281.3168" y="374.0246">0..1</text></g><!--link MonetaryGrant to Agent--><g class="link" data-entity-1="ent0030" data-entity-2="ent0023" data-link-type="dependency" data-source-line="76" id="lnk66"><path codeLine="76" d="M1466.19,232.5529 C1449.36,246.1629 1420.43,269.0929 1394.5,287.3529 C1352.28,317.0829 1305.7806,345.8822 1278.5506,362.3922" fill="none" id="MonetaryGrant-to-Agent" style="stroke:#404040;stroke-width:1.2;"/><polygon fill="#404040" points="1273.42,365.5029,1283.1898,364.2572,1277.6955,362.9106,1279.0421,357.4164,1273.42,365.5029" style="stroke:#404040;stroke-width:1.2;"/><text fill="#000000" font-family="sans-serif" font-size="13" lengthAdjust="spacing" textLength="36.8608" x="1428.5" y="280.3481">funder</text><text fill="#000000" font-family="sans-serif" font-size="13" lengthAdjust="spacing" textLength="19.5127" x="1281.4347" y="357.3109">0..*</text></g><!--link CatalogRecord to Agent--><g class="link" data-entity-1="ent0033" data-entity-2="ent0023" data-link-type="dependency" data-source-line="78" id="lnk68"><path codeLine="78" d="M1814.77,177.4929 C1705.88,216.2429 1363.4928,338.0716 1278.8428,368.1916" fill="none" id="CatalogRecord-to-Agent" style="stroke:#404040;stroke-width:1.2;"/><polygon fill="#404040" points="1273.19,370.2029,1283.0101,370.9544,1277.9007,368.5268,1280.3283,363.4173,1273.19,370.2029" style="stroke:#404040;stroke-width:1.2;"/><text fill="#000000" font-family="sans-serif" font-size="13" lengthAdjust="spacing" textLength="60.6963" x="1571.5" y="280.3481">maintainer</text><text fill="#000000" font-family="sans-serif" font-size="13" lengthAdjust="spacing" textLength="21.6836" x="1281.4453" y="383.8328">0..1</text></g><?plantuml-src ZLRRQjmm47ttLuZDMo4X2QKKKmfx3Na8IPEGFi_AirurjkHAycutRQ4VqI_ibrIsV95bRLgM1StHcP5qDAEnPZf3CWF5w88fAdOe3-JFhz-a6kqOxgCjIv1G9cc6TenveGyantoDKaNgcV429EH4RI4HUyPJie5CeJCpbLBi7xUCFdDKYboSNJgJD0E3VO-8fSr59YGvUNjU_Gmu4p91wQChmVK3Uq5oSHdzZ28ROx803GhrX80YpPYSh9QhvNpPKfv0CbXdU8EWIeb9pVL1t-cX0CqWMtxJo6tq0TBHOQsq1AgRCqscZNs58aSj3xMh3_gB6NmkpA4P1usgTXb20OU7BHJOKcl39psQMnDoS8OXv3jSSwMXOJRZKKoMuvrGJ3F1RKG72Eoor-3OsJ-La35zQEuXRtSwXdt7kU0K2yjkngC39SQFRHXAUwREz8aBt32EoIFAt6PIR__pfaqDQSdMPIT9Q8ASBDujfwltRjekn9vd0f8kTrl0tzrdN4_lhckQ7VhHfhHVd8QMMtAZ_9rWZRYz6OvqZwhCj1FF0ZxvJee2fJuyGLRYGu7KQ4kXsyhnwIxGIDEqlVzwD5hGl3vjy7he4qmUQ1EkFwaB-EHRcG9dB_s6NI0KkRvC8Rl0ZJtIC4dgSe2iLS2UQ0JxZlUuGOacasj-P_cq6y5HWpnSoRPO1qZWbdRLBUvOin4N61U2P3jCLbAqXT3P8qLCncOYlKTgdYchYOjqaKUFtuSVfwVU-tQSLBziKR2aQefRDw_GRDr4Dgjgn2QGYxZN7xMzvFJq8vcSdvszcOnRHans7XHo6_QDc2Xhpwjk2oc6NBndEYQw0Lvp2hoOCTc26kCXRwj3J0gJ7ARZoo0d96zC4iTyBJIL2APSGXItcWonjqRa2sUhvJfZQXlUwx0aOh8fkScrD4GTr4DCzg2ka1kPDIQpGyZ1BOgQxm13ljdji2ZCzPVhBqZrxIOSkUyxCNd6mzuugH2pVnrYaZ6At7nz3JFDLSolhfYaA8xp7TwsKiDQaPUMZaFxjL3pPvWopYkn_zDXoPEe1HpEuDCY9eoxG3HecAybSjCoNGfjGXQYsfUHm29HCz5UdTCcJGc2J54FA8suReUCYQm7Fi-csR5s69ElfVa8l-P5gIEt5W9PxnR7CCa38bHPRoGOvg0Jj4sicC1QL6iV8xO1Sp1gcBy9-XS0?></g></svg>