<svg xmlns="http://www.w3.org/2000/svg" xmlns:xlink="http://www.w3.org/1999/xlink" contentStyleType="text/css" data-diagram-type="CLASS" height="393px" preserveAspectRatio="none" style="width:964px;height:393px;background:#FFFFFF;" version="1.1" viewBox="0 0 964 393" width="964px" zoomAndPan="magnify"><?plantuml 1.2026.3?><defs/><g><g class="title" data-source-line="1"><text fill="#000000" font-family="sans-serif" font-size="14" font-weight="700" lengthAdjust="spacing" textLength="186.4297" x="385.396" y="24.5332">BasicDiscovery &#8212; overview</text></g><!--class Dataset--><g class="entity" data-qualified-name="Dataset" data-source-line="12" id="ent0002"><rect fill="#FEFECE" height="25.0938" rx="2.5" ry="2.5" style="stroke:#404040;stroke-width:0.5;" width="47.3555" x="509" y="45.6094"/><text fill="#000000" font-family="sans-serif" font-size="12" lengthAdjust="spacing" textLength="41.3555" x="512" y="63.0664">Dataset</text></g><!--class VariableMeasured--><g class="entity" data-qualified-name="VariableMeasured" data-source-line="13" id="ent0003"><rect fill="#FEFECE" height="25.0938" rx="2.5" ry="2.5" style="stroke:#404040;stroke-width:0.5;" width="103.3887" x="127" y="148.6094"/><text fill="#000000" font-family="sans-serif" font-size="12" lengthAdjust="spacing" textLength="97.3887" x="130" y="166.0664">VariableMeasured</text></g><!--class SpatialExtent--><g class="entity" data-qualified-name="SpatialExtent" data-source-line="14" id="ent0004"><rect fill="#FEFECE" height="25.0938" rx="2.5" ry="2.5" style="stroke:#404040;stroke-width:0.5;" width="76.7109" x="285" y="148.6094"/><text fill="#000000" font-family="sans-serif" font-size="12" lengthAdjust="spacing" textLength="70.7109" x="288" y="166.0664">SpatialExtent</text></g><!--class AbstractGeometry--><g class="entity" data-qualified-name="AbstractGeometry" data-source-line="15" id="ent0005"><rect fill="#FEFECE" height="25.0938" rx="2.5" ry="2.5" style="stroke:#404040;stroke-width:0.5;" width="102.6973" x="160" y="251.6094"/><text fill="#000000" font-family="sans-serif" font-size="12" font-style="italic" lengthAdjust="spacing" textLength="96.6973" x="163" y="269.0664">AbstractGeometry</text></g><!--class GeoCoordinates--><g class="entity" data-qualified-name="GeoCoordinates" data-source-line="16" id="ent0006"><rect fill="#FEFECE" height="25.0938" rx="2.5" ry="2.5" style="stroke:#404040;stroke-width:0.5;" width="93.3867" x="109" y="354.6094"/><text fill="#000000" font-family="sans-serif" font-size="12" lengthAdjust="spacing" textLength="87.3867" x="112" y="372.0664">GeoCoordinates</text></g><!--class GeoShape--><g class="entity" data-qualified-name="GeoShape" data-source-line="17" id="ent0007"><rect fill="#FEFECE" height="25.0938" rx="2.5" ry="2.5" style="stroke:#404040;stroke-width:0.5;" width="63.3809" x="237" y="354.6094"/><text fill="#000000" font-family="sans-serif" font-size="12" lengthAdjust="spacing" textLength="57.3809" x="240" y="372.0664">GeoShape</text></g><!--class TemporalExtent--><g class="entity" data-qualified-name="TemporalExtent" data-source-line="18" id="ent0008"><rect fill="#FEFECE" height="25.0938" rx="2.5" ry="2.5" style="stroke:#404040;stroke-width:0.5;" width="90.7031" x="413" y="148.6094"/><text fill="#000000" font-family="sans-serif" font-size="12" lengthAdjust="spacing" textLength="84.7031" x="416" y="166.0664">TemporalExtent</text></g><!--class Instant--><g class="entity" data-qualified-name="Instant" data-source-line="19" id="ent0009"><rect fill="#FEFECE" height="25.0938" rx="2.5" ry="2.5" style="stroke:#404040;stroke-width:0.5;" width="42.0234" x="493.5" y="251.6094"/><text fill="#000000" font-family="sans-serif" font-size="12" lengthAdjust="spacing" textLength="36.0234" x="496.5" y="269.0664">Instant</text></g><!--class TimePosition--><g class="entity" data-qualified-name="TimePosition" data-source-line="20" id="ent0010"><rect fill="#FEFECE" height="25.0938" rx="2.5" ry="2.5" style="stroke:#404040;stroke-width:0.5;" width="75.3574" x="477" y="354.6094"/><text fill="#000000" font-family="sans-serif" font-size="12" lengthAdjust="spacing" textLength="69.3574" x="480" y="372.0664">TimePosition</text></g><!--class Geometry--><g class="entity" data-qualified-name="Geometry" data-source-line="21" id="ent0011"><rect fill="#FEFECE" height="25.0938" rx="2.5" ry="2.5" style="stroke:#404040;stroke-width:0.5;" width="58.6816" x="298" y="251.6094"/><text fill="#000000" font-family="sans-serif" font-size="12" lengthAdjust="spacing" textLength="52.6816" x="301" y="269.0664">Geometry</text></g><!--class QualityMeasurement--><g class="entity" data-qualified-name="QualityMeasurement" data-source-line="22" id="ent0012"><rect fill="#FEFECE" height="25.0938" rx="2.5" ry="2.5" style="stroke:#404040;stroke-width:0.5;" width="116.7129" x="548" y="148.6094"/><text fill="#000000" font-family="sans-serif" font-size="12" lengthAdjust="spacing" textLength="110.7129" x="551" y="166.0664">QualityMeasurement</text></g><!--class Concept--><g class="entity" data-qualified-name="Concept" data-source-line="23" id="ent0013"><rect fill="#FEFECE" height="25.0938" rx="2.5" ry="2.5" style="stroke:#404040;stroke-width:0.5;" width="50.6953" x="24" y="45.6094"/><text fill="#000000" font-family="sans-serif" font-size="12" lengthAdjust="spacing" textLength="44.6953" x="27" y="63.0664">Concept</text></g><!--class Identifier--><g class="entity" data-qualified-name="Identifier" data-source-line="24" id="ent0014"><rect fill="#FEFECE" height="25.0938" rx="2.5" ry="2.5" style="stroke:#404040;stroke-width:0.5;" width="52.0254" x="110.5" y="45.6094"/><text fill="#000000" font-family="sans-serif" font-size="12" lengthAdjust="spacing" textLength="46.0254" x="113.5" y="63.0664">Identifier</text></g><!--class DefinedTerm--><g class="entity" data-qualified-name="DefinedTerm" data-source-line="25" id="ent0015"><rect fill="#FEFECE" height="25.0938" rx="2.5" ry="2.5" style="stroke:#404040;stroke-width:0.5;" width="75.3574" x="751" y="148.6094"/><text fill="#000000" font-family="sans-serif" font-size="12" lengthAdjust="spacing" textLength="69.3574" x="754" y="166.0664">DefinedTerm</text></g><!--class DataDownload--><g class="entity" data-qualified-name="DataDownload" data-source-line="26" id="ent0016"><rect fill="#FEFECE" height="25.0938" rx="2.5" ry="2.5" style="stroke:#404040;stroke-width:0.5;" width="84.7148" x="7" y="148.6094"/><text fill="#000000" font-family="sans-serif" font-size="12" lengthAdjust="spacing" textLength="78.7148" x="10" y="166.0664">DataDownload</text></g><!--class ProvActivity--><g class="entity" data-qualified-name="ProvActivity" data-source-line="27" id="ent0017"><rect fill="#FEFECE" height="25.0938" rx="2.5" ry="2.5" style="stroke:#404040;stroke-width:0.5;" width="68.6777" x="861" y="148.6094"/><text fill="#000000" font-family="sans-serif" font-size="12" lengthAdjust="spacing" textLength="62.6777" x="864" y="166.0664">ProvActivity</text></g><!--reverse link AbstractGeometry to GeoCoordinates--><g class="link" data-entity-1="ent0005" data-entity-2="ent0006" data-link-type="extension" data-source-line="28" id="lnk18"><path codeLine="28" d="M196.3453,292.438 C185.5953,311.808 172.83,334.8494 162.02,354.3494" fill="none" id="AbstractGeometry-backto-GeoCoordinates" style="stroke:#404040;stroke-width:1.2;"/><polygon fill="none" points="205.08,276.6994,191.0991,289.5265,201.5915,295.3496,205.08,276.6994" style="stroke:#404040;stroke-width:1.2;"/></g><!--reverse link AbstractGeometry to GeoShape--><g class="link" data-entity-1="ent0005" data-entity-2="ent0007" data-link-type="extension" data-source-line="29" id="lnk19"><path codeLine="29" d="M226.892,292.3724 C237.832,311.7424 250.86,334.8494 261.86,354.3494" fill="none" id="AbstractGeometry-backto-GeoShape" style="stroke:#404040;stroke-width:1.2;"/><polygon fill="none" points="218.04,276.6994,221.6676,295.323,232.1163,289.4217,218.04,276.6994" style="stroke:#404040;stroke-width:1.2;"/></g><!--link Dataset to VariableMeasured--><g class="link" data-entity-1="ent0002" data-entity-2="ent0003" data-link-type="dependency" data-source-line="30" id="lnk20"><path codeLine="30" d="M508.93,59.8694 C445.04,62.3094 270.12,71.5394 221.5,100.6094 C202.9,111.7294 192.5914,128.8889 186.0514,142.8089" fill="none" id="Dataset-to-VariableMeasured" style="stroke:#404040;stroke-width:1.2;"/><polygon fill="#404040" points="183.5,148.2394,190.9474,141.7946,185.6262,143.714,183.7068,138.3927,183.5,148.2394" style="stroke:#404040;stroke-width:1.2;"/><text fill="#000000" font-family="sans-serif" font-size="13" lengthAdjust="spacing" textLength="103.3335" x="222.5" y="115.1045">variableMeasured</text><text fill="#000000" font-family="sans-serif" font-size="13" lengthAdjust="spacing" textLength="19.5127" x="162.808" y="137.827">0..*</text></g><!--link Dataset to SpatialExtent--><g class="link" data-entity-1="ent0002" data-entity-2="ent0004" data-link-type="dependency" data-source-line="31" id="lnk21"><path codeLine="31" d="M508.8,61.6794 C464.57,66.8994 371.71,80.0494 347.5,100.6094 C333.24,112.7194 328.3866,128.6478 326.0266,142.2378" fill="none" id="Dataset-to-SpatialExtent" style="stroke:#404040;stroke-width:1.2;"/><polygon fill="#404040" points="325,148.1494,330.4809,139.9665,325.8555,143.2231,322.5989,138.5977,325,148.1494" style="stroke:#404040;stroke-width:1.2;"/><text fill="#000000" font-family="sans-serif" font-size="13" lengthAdjust="spacing" textLength="93.9453" x="348.5" y="115.1045">spatialCoverage</text><text fill="#000000" font-family="sans-serif" font-size="13" lengthAdjust="spacing" textLength="19.5127" x="303.1028" y="137.7026">0..*</text></g><!--link Dataset to TemporalExtent--><g class="link" data-entity-1="ent0002" data-entity-2="ent0008" data-link-type="dependency" data-source-line="32" id="lnk22"><path codeLine="32" d="M508.73,64.8494 C490.63,70.5994 466.94,81.4394 455.5,100.6094 C446.8,115.1694 448.775,129.7467 452.545,142.4667" fill="none" id="Dataset-to-TemporalExtent" style="stroke:#404040;stroke-width:1.2;"/><polygon fill="#404040" points="454.25,148.2194,455.5276,138.4537,452.8292,143.4255,447.8574,140.7271,454.25,148.2194" style="stroke:#404040;stroke-width:1.2;"/><text fill="#000000" font-family="sans-serif" font-size="13" lengthAdjust="spacing" textLength="106.9453" x="456.5" y="115.1045">temporalCoverage</text><text fill="#000000" font-family="sans-serif" font-size="13" lengthAdjust="spacing" textLength="19.5127" x="430.1621" y="137.7993">0..*</text></g><!--link Dataset to QualityMeasurement--><g class="link" data-entity-1="ent0002" data-entity-2="ent0012" data-link-type="dependency" data-source-line="33" id="lnk23"><path codeLine="33" d="M543,70.7894 C550.16,78.9394 559.73,90.1794 567.5,100.6094 C579.46,116.6494 588.7517,131.1117 596.2717,143.3117" fill="none" id="Dataset-to-QualityMeasurement" style="stroke:#404040;stroke-width:1.2;"/><polygon fill="#404040" points="599.42,148.4194,598.1026,138.659,596.7964,144.163,591.2924,142.8568,599.42,148.4194" style="stroke:#404040;stroke-width:1.2;"/><text fill="#000000" font-family="sans-serif" font-size="13" lengthAdjust="spacing" textLength="140.8989" x="581.5" y="115.1045">hasQualityMeasurement</text><text fill="#000000" font-family="sans-serif" font-size="13" lengthAdjust="spacing" textLength="19.5127" x="574.0491" y="137.8186">0..*</text></g><!--link Dataset to ProvActivity--><g class="link" data-entity-1="ent0002" data-entity-2="ent0017" data-link-type="dependency" data-source-line="34" id="lnk24"><path codeLine="34" d="M556.19,58.5594 C606.58,58.2294 727.27,61.9294 818.5,100.6094 C844.94,111.8194 865.9607,130.1535 879.9607,144.0435" fill="none" id="Dataset-to-ProvActivity" style="stroke:#404040;stroke-width:1.2;"/><polygon fill="#404040" points="884.22,148.2694,880.6482,139.091,880.6705,144.7478,875.0137,144.7701,884.22,148.2694" style="stroke:#404040;stroke-width:1.2;"/><text fill="#000000" font-family="sans-serif" font-size="13" lengthAdjust="spacing" textLength="99.7217" x="848.5" y="115.1045">wasGeneratedBy</text><text fill="#000000" font-family="sans-serif" font-size="13" lengthAdjust="spacing" textLength="19.5127" x="857.4568" y="137.8684">0..*</text></g><!--link Dataset to DefinedTerm--><g class="link" data-entity-1="ent0002" data-entity-2="ent0015" data-link-type="dependency" data-source-line="35" id="lnk25"><path codeLine="35" d="M556.29,59.6794 C595.09,61.5394 673.4,69.2394 730.5,100.6094 C751.99,112.4194 766.9763,129.9377 776.9963,143.6277" fill="none" id="Dataset-to-DefinedTerm" style="stroke:#404040;stroke-width:1.2;"/><polygon fill="#404040" points="780.54,148.4694,778.4522,138.8444,777.5869,144.4346,771.9966,143.5693,780.54,148.4694" style="stroke:#404040;stroke-width:1.2;"/><text fill="#000000" font-family="sans-serif" font-size="13" lengthAdjust="spacing" textLength="54.9072" x="755.5" y="115.1045">keywords</text><text fill="#000000" font-family="sans-serif" font-size="13" lengthAdjust="spacing" textLength="19.5127" x="754.3698" y="137.5037">0..*</text></g><!--link SpatialExtent to AbstractGeometry--><g class="link" data-entity-1="ent0004" data-entity-2="ent0005" data-link-type="dependency" data-source-line="36" id="lnk26"><path codeLine="36" d="M310.65,173.6994 C289.16,193.0694 250.6155,227.8308 228.9955,247.3308" fill="none" id="SpatialExtent-to-AbstractGeometry" style="stroke:#404040;stroke-width:1.2;"/><polygon fill="#404040" points="224.54,251.3494,233.9022,248.2918,228.2529,248.0006,228.5441,242.3512,224.54,251.3494" style="stroke:#404040;stroke-width:1.2;"/><text fill="#000000" font-family="sans-serif" font-size="13" lengthAdjust="spacing" textLength="21.6899" x="275.5" y="218.1045">geo</text><text fill="#000000" font-family="sans-serif" font-size="13" lengthAdjust="spacing" textLength="21.6836" x="204.7343" y="240.721">0..1</text></g><!--link SpatialExtent to Geometry--><g class="link" data-entity-1="ent0004" data-entity-2="ent0011" data-link-type="dependency" data-source-line="37" id="lnk27"><path codeLine="37" d="M323.96,173.6994 C324.73,193.0694 326.0233,225.854 326.7933,245.354" fill="none" id="SpatialExtent-to-Geometry" style="stroke:#404040;stroke-width:1.2;"/><polygon fill="#404040" points="327.03,251.3494,330.6718,242.1986,326.8327,246.3533,322.678,242.5142,327.03,251.3494" style="stroke:#404040;stroke-width:1.2;"/><text fill="#000000" font-family="sans-serif" font-size="13" lengthAdjust="spacing" textLength="78.0317" x="327.5" y="218.1045">hasGeometry</text><text fill="#000000" font-family="sans-serif" font-size="13" lengthAdjust="spacing" textLength="21.6836" x="301.9078" y="240.721">0..1</text></g><!--link TemporalExtent to Instant--><g class="link" data-entity-1="ent0008" data-entity-2="ent0009" data-link-type="dependency" data-source-line="38" id="lnk28"><path codeLine="38" d="M453.3,173.8194 C448.56,186.3994 443.41,206.5894 451.5,221.6094 C460.32,237.9794 473.2598,246.5166 487.9098,253.0466" fill="none" id="TemporalExtent-to-Instant" style="stroke:#404040;stroke-width:1.2;"/><polygon fill="#404040" points="493.39,255.4894,486.7981,248.1718,488.8231,253.4538,483.5411,255.4788,493.39,255.4894" style="stroke:#404040;stroke-width:1.2;"/><text fill="#000000" font-family="sans-serif" font-size="13" lengthAdjust="spacing" textLength="78.7871" x="452.5" y="218.1045">hasBeginning</text><text fill="#000000" font-family="sans-serif" font-size="13" lengthAdjust="spacing" textLength="21.6836" x="463.9835" y="248.5525">0..1</text></g><!--link TemporalExtent to Instant--><g class="link" data-entity-1="ent0008" data-entity-2="ent0009" data-link-type="dependency" data-source-line="39" id="lnk29"><path codeLine="39" d="M497.92,173.7394 C512.35,180.1194 527.17,189.6594 535.5,203.6094 C544.71,219.0394 537.0777,234.3027 527.8377,246.7427" fill="none" id="TemporalExtent-to-Instant-1" style="stroke:#404040;stroke-width:1.2;"/><polygon fill="#404040" points="524.26,251.5594,532.8376,246.7195,527.2414,247.5455,526.4154,241.9493,524.26,251.5594" style="stroke:#404040;stroke-width:1.2;"/><text fill="#000000" font-family="sans-serif" font-size="13" lengthAdjust="spacing" textLength="44.0908" x="540.5" y="218.1045">hasEnd</text><text fill="#000000" font-family="sans-serif" font-size="13" lengthAdjust="spacing" textLength="21.6836" x="503.0909" y="240.6308">0..1</text></g><!--link Instant to TimePosition--><g class="link" data-entity-1="ent0009" data-entity-2="ent0010" data-link-type="dependency" data-source-line="40" id="lnk30"><path codeLine="40" d="M514.5,276.6994 C514.5,296.0694 514.5,328.8494 514.5,348.3494" fill="none" id="Instant-to-TimePosition" style="stroke:#404040;stroke-width:1.2;"/><polygon fill="#404040" points="514.5,354.3494,518.5,345.3494,514.5,349.3494,510.5,345.3494,514.5,354.3494" style="stroke:#404040;stroke-width:1.2;"/><text fill="#000000" font-family="sans-serif" font-size="13" lengthAdjust="spacing" textLength="85.2554" x="515.5" y="321.1045">inTimePosition</text><text fill="#000000" font-family="sans-serif" font-size="13" lengthAdjust="spacing" textLength="21.6836" x="489.4298" y="343.721">0..1</text></g><?plantuml-src ZPJDYjim4CVlUeh1UoiaR9OzcL98d6JfOM5BGkyJUn8FiQKWQUEw7z27w1FsIQhu8slBpb9ycVdxzvSqqaYMRKQmGCFnaasipgHB-Flx3roYCrCXKau8OjPnHdLC-ScMa5E-8ss4ER8yeSOSJ8g9AbWUO8-PeSwVkTQgsAOS7oKP0xFfG-TddA7JVWYeiKXbIiFTu_tbS-92wOIqhwwLj1l-JZ1x4B-4gCS8bcZHa0q03JGntArNwrMqQf6lg1bt6JqJcbTDISNwec_QdD0oPgjlbcGzUa-vuhWpLcDicvg2UPC_aSh9whAo-g8_cTCZvOfcYPPCPUbB8uPDYYTgqIhneQqxDQLxDVGbt_1P6eiDsSI3CJcd5sNOifBrY1rXP9LlUt2hzY-lcB4jctF8svKEPTyOAHdJgQQRU51GudoyPz9rJTVK1vUqPqd9bdHUTz9RFa1TaorL8JE5oRNhMi67NxGwpsFBPrTA1NU5ApneZuy_9nEl0sv3rTcBjlSdaqyGt4-d7u9XYuTmzgGnMx_FGp1r7brU1poCpkIrLGYs4TupZPnm22cQeJxcxcra20MQ9v9kBal9eXmpT8yqX2ELXTjR8_hLjlmi6DxP40waRlCTBhqifiw4jpKTGtl3Adv11vRIFQJ_QrZ9HBH2X-bTnn1OTWNn3m00?></g></svg>