<svg xmlns="http://www.w3.org/2000/svg" xmlns:xlink="http://www.w3.org/1999/xlink" contentStyleType="text/css" data-diagram-type="CLASS" height="213px" preserveAspectRatio="none" style="width:489px;height:213px;background:#FFFFFF;" version="1.1" viewBox="0 0 489 213" width="489px" zoomAndPan="magnify"><?plantuml 1.2026.3?><defs/><g><g class="title" data-source-line="1"><text fill="#000000" font-family="sans-serif" font-size="14" font-weight="700" lengthAdjust="spacing" textLength="170.0303" x="156.0244" y="24.5332">CDIFCodelist &#8212; overview</text></g><!--class ConceptScheme--><g class="entity" data-qualified-name="ConceptScheme" data-source-line="12" id="ent0002"><rect fill="#FEFECE" height="25.0938" rx="2.5" ry="2.5" style="stroke:#404040;stroke-width:0.5;" width="94.7168" x="40.33" y="45.6094"/><text fill="#000000" font-family="sans-serif" font-size="12" lengthAdjust="spacing" textLength="88.7168" x="43.33" y="63.0664">ConceptScheme</text></g><!--class Concept--><g class="entity" data-qualified-name="Concept" data-source-line="13" id="ent0003"><rect fill="#FEFECE" height="25.0938" rx="2.5" ry="2.5" style="stroke:#404040;stroke-width:0.5;" width="50.6953" x="62.33" y="150.1094"/><text fill="#000000" font-family="sans-serif" font-size="12" lengthAdjust="spacing" textLength="44.6953" x="65.33" y="167.5664">Concept</text></g><!--class Identifier--><g class="entity" data-qualified-name="Identifier" data-source-line="14" id="ent0004"><rect fill="#FEFECE" height="25.0938" rx="2.5" ry="2.5" style="stroke:#404040;stroke-width:0.5;" width="52.0254" x="170.83" y="45.6094"/><text fill="#000000" font-family="sans-serif" font-size="12" lengthAdjust="spacing" textLength="46.0254" x="173.83" y="63.0664">Identifier</text></g><!--class Reference--><g class="entity" data-qualified-name="Reference" data-source-line="15" id="ent0005"><rect fill="#FEFECE" height="25.0938" rx="2.5" ry="2.5" style="stroke:#404040;stroke-width:0.5;" width="61.3652" x="258.33" y="45.6094"/><text fill="#000000" font-family="sans-serif" font-size="12" lengthAdjust="spacing" textLength="55.3652" x="261.33" y="63.0664">Reference</text></g><!--link ConceptScheme to Concept--><g class="link" data-entity-1="ent0002" data-entity-2="ent0003" data-link-type="dependency" data-source-line="16" id="lnk6"><path codeLine="16" d="M54.57,70.6194 C40.96,77.1594 26.61,86.8594 18.83,100.6094 C6,123.2894 31.9706,139.4664 56.5306,149.9364" fill="none" id="ConceptScheme-to-Concept" style="stroke:#404040;stroke-width:1.2;"/><polygon fill="#404040" points="62.05,152.2894,55.3395,145.0804,57.4505,150.3286,52.2023,152.4396,62.05,152.2894" style="stroke:#404040;stroke-width:1.2;"/><text fill="#000000" font-family="sans-serif" font-size="13" lengthAdjust="spacing" textLength="91.7808" x="19.83" y="115.1045">hasTopConcept</text><text fill="#000000" font-family="sans-serif" font-size="13" lengthAdjust="spacing" textLength="19.5127" x="34.986" y="145.5778">1..*</text></g><!--link Concept to ConceptScheme--><g class="link" data-entity-1="ent0003" data-entity-2="ent0002" data-link-type="dependency" data-source-line="17" id="lnk7"><path codeLine="17" d="M98.99,149.8294 C108.98,137.8094 121.29,118.4394 115.83,100.6094 C112.43,89.4694 108.7059,83.266 102.3259,75.456" fill="none" id="Concept-to-ConceptScheme" style="stroke:#404040;stroke-width:1.2;"/><polygon fill="#404040" points="98.53,70.8094,101.126,80.3099,101.6932,74.6816,107.3216,75.2488,98.53,70.8094" style="stroke:#404040;stroke-width:1.2;"/><text fill="#000000" font-family="sans-serif" font-size="13" lengthAdjust="spacing" textLength="57.8081" x="117.83" y="115.1045">inScheme</text><text fill="#000000" font-family="sans-serif" font-size="13" lengthAdjust="spacing" textLength="19.5127" x="80.1392" y="92.2455">1..*</text></g><!--link Concept to Concept--><g class="link" data-entity-1="ent0003" data-entity-2="ent0003" data-link-type="dependency" data-source-line="18" id="lnk8"><path codeLine="18" d="M113.64,160.8394 C131.17,160.3194 148.33,160.9094 148.33,162.6094 C148.33,164.2994 137.1675,165.0639 119.6375,164.5539" fill="none" id="Concept-to-Concept" style="stroke:#404040;stroke-width:1.2;"/><polygon fill="#404040" points="113.64,164.3794,122.5199,168.6394,118.6379,164.5248,122.7525,160.6428,113.64,164.3794" style="stroke:#404040;stroke-width:1.2;"/><text fill="#000000" font-family="sans-serif" font-size="13" lengthAdjust="spacing" textLength="44.8081" x="154.33" y="168.1045">broader</text><text fill="#000000" font-family="sans-serif" font-size="13" lengthAdjust="spacing" textLength="19.5127" x="121.007" y="160.6161">0..*</text></g><!--link Concept to Concept--><g class="link" data-entity-1="ent0003" data-entity-2="ent0003" data-link-type="dependency" data-source-line="19" id="lnk9"><path codeLine="19" d="M113.46,160.0294 C151.36,157.6294 204.33,158.4894 204.33,162.6094 C204.33,166.7194 157.3481,167.957 119.4481,165.567" fill="none" id="Concept-to-Concept-1" style="stroke:#404040;stroke-width:1.2;"/><polygon fill="#404040" points="113.46,165.1894,122.1904,169.7479,118.4501,165.5041,122.6939,161.7637,113.46,165.1894" style="stroke:#404040;stroke-width:1.2;"/><text fill="#000000" font-family="sans-serif" font-size="13" lengthAdjust="spacing" textLength="51.2954" x="210.33" y="168.1045">narrower</text><text fill="#000000" font-family="sans-serif" font-size="13" lengthAdjust="spacing" textLength="19.5127" x="121.2341" y="181.0271">0..*</text></g><!--link Concept to Concept--><g class="link" data-entity-1="ent0003" data-entity-2="ent0003" data-link-type="dependency" data-source-line="20" id="lnk10"><path codeLine="20" d="M113.35,159.5894 C169.61,154.9894 267.33,155.9994 267.33,162.6094 C267.33,169.2194 175.59,170.7183 119.33,166.1183" fill="none" id="Concept-to-Concept-2" style="stroke:#404040;stroke-width:1.2;"/><polygon fill="#404040" points="113.35,165.6294,121.9941,170.3495,118.3334,166.0368,122.646,162.3761,113.35,165.6294" style="stroke:#404040;stroke-width:1.2;"/><text fill="#000000" font-family="sans-serif" font-size="13" lengthAdjust="spacing" textLength="39.749" x="273.33" y="168.1045">related</text><text fill="#000000" font-family="sans-serif" font-size="13" lengthAdjust="spacing" textLength="19.5127" x="120.2252" y="196.684">0..*</text></g><!--link Concept to Concept--><g class="link" data-entity-1="ent0003" data-entity-2="ent0003" data-link-type="dependency" data-source-line="21" id="lnk11"><path codeLine="21" d="M113.58,159.1994 C184.09,152.3694 318.33,153.5094 318.33,162.6094 C318.33,171.7094 190.0621,173.417 119.5521,166.597" fill="none" id="Concept-to-Concept-3" style="stroke:#404040;stroke-width:1.2;"/><polygon fill="#404040" points="113.58,166.0194,122.1531,170.8673,118.5568,166.5007,122.9233,162.9044,113.58,166.0194" style="stroke:#404040;stroke-width:1.2;"/><text fill="#000000" font-family="sans-serif" font-size="13" lengthAdjust="spacing" textLength="66.4727" x="324.33" y="168.1045">exactMatch</text><text fill="#000000" font-family="sans-serif" font-size="13" lengthAdjust="spacing" textLength="19.5127" x="120.9346" y="181.8944">0..*</text></g><!--link Concept to Concept--><g class="link" data-entity-1="ent0003" data-entity-2="ent0003" data-link-type="dependency" data-source-line="22" id="lnk12"><path codeLine="22" d="M113.46,159.0194 C201.69,149.7394 396.33,150.9394 396.33,162.6094 C396.33,174.2694 207.6572,176.0963 119.4272,166.8263" fill="none" id="Concept-to-Concept-4" style="stroke:#404040;stroke-width:1.2;"/><polygon fill="#404040" points="113.46,166.1994,121.9928,171.1179,118.4326,166.7218,122.8287,163.1617,113.46,166.1994" style="stroke:#404040;stroke-width:1.2;"/><text fill="#000000" font-family="sans-serif" font-size="13" lengthAdjust="spacing" textLength="65.749" x="402.33" y="168.1045">closeMatch</text><text fill="#000000" font-family="sans-serif" font-size="13" lengthAdjust="spacing" textLength="19.5127" x="121.7488" y="156.6307">0..*</text></g><?plantuml-src XT1BQiCm40RWlKynEBj2GXowogBGkZPaqKsJ2oZoxrf4bin8n7rGw25wmfwaJfowjYaksipZqqYCLrw3uljD6jiCMZbFNn-VP8_Weq8T52e3ISLIeurHLlw5IfHxi0lSGPbAi2Z95IApjJ9Fb0ljqElSCjjwLoXvC72EeiMgrvHQDBMtW5eMMssPPjVBqscATvOpyBYQMkEtwXKKhOBt86XdXB4r4fNVoW8bGXAE1XMQfKcQnCc8z-6OR38Oht85FglVT0mVaOFHp3YxBklOy2Fp-Gs5qM9n5NOFhwaGRcUhI_vpuGzwcR4cPTfmQ9UZiNksejdWD3BYjFl_54CBZsmQuLb8_o2yBAQTrDQXTTy0?></g></svg>