<svg xmlns="http://www.w3.org/2000/svg" xmlns:xlink="http://www.w3.org/1999/xlink" contentStyleType="text/css" data-diagram-type="CLASS" height="1071px" preserveAspectRatio="none" style="width:4319px;height:1071px;background:#FFFFFF;" version="1.1" viewBox="0 0 4319 1071" width="4319px" zoomAndPan="magnify"><?plantuml 1.2026.3?><defs/><g><g class="title" data-source-line="1"><text fill="#000000" font-family="sans-serif" font-size="14" font-weight="700" lengthAdjust="spacing" textLength="50.5791" x="2131.1567" y="24.5332">Dataset</text></g><!--class Dataset--><g class="entity" data-qualified-name="Dataset" data-source-line="16" id="ent0002"><rect fill="#FEFECE" height="621.75" rx="2.5" ry="2.5" style="stroke:#404040;stroke-width:0.5;" width="531.6035" x="1704.75" y="45.6094"/><text fill="#000000" font-family="sans-serif" font-size="30" lengthAdjust="spacing" textLength="103.3887" x="1918.8574" y="81.752">Dataset</text><line style="stroke:#404040;stroke-width:0.5;" x1="1705.75" x2="2235.3535" y1="93.3438" y2="93.3438"/><g data-visibility-modifier="PUBLIC_FIELD"><ellipse cx="1715.75" cy="117.7109" fill="none" rx="3" ry="3" style="stroke:#038048;stroke-width:1;"/></g><text fill="#000000" font-family="sans-serif" font-size="30" lengthAdjust="spacing" textLength="295.1514" x="1731.75" y="128.4863">identifier : Identifier [1]</text><g data-visibility-modifier="PUBLIC_FIELD"><ellipse cx="1715.75" cy="155.4453" fill="none" rx="3" ry="3" style="stroke:#038048;stroke-width:1;"/></g><text fill="#000000" font-family="sans-serif" font-size="30" lengthAdjust="spacing" textLength="215.0977" x="1731.75" y="166.2207">name : string [1]</text><g data-visibility-modifier="PUBLIC_FIELD"><ellipse cx="1715.75" cy="193.1797" fill="none" rx="3" ry="3" style="stroke:#038048;stroke-width:1;"/></g><text fill="#000000" font-family="sans-serif" font-size="30" lengthAdjust="spacing" textLength="318.4863" x="1731.75" y="203.9551">description : string [0..1]</text><g data-visibility-modifier="PUBLIC_FIELD"><ellipse cx="1715.75" cy="230.9141" fill="none" rx="3" ry="3" style="stroke:#038048;stroke-width:1;"/></g><text fill="#000000" font-family="sans-serif" font-size="30" lengthAdjust="spacing" textLength="463.5645" x="1731.75" y="241.6895">additionalType : DefinedTerm [0..*]</text><g data-visibility-modifier="PUBLIC_FIELD"><ellipse cx="1715.75" cy="268.6484" fill="none" rx="3" ry="3" style="stroke:#038048;stroke-width:1;"/></g><text fill="#000000" font-family="sans-serif" font-size="30" lengthAdjust="spacing" textLength="318.4717" x="1731.75" y="279.4238">sameAs : Identifier [0..*]</text><g data-visibility-modifier="PUBLIC_FIELD"><ellipse cx="1715.75" cy="306.3828" fill="none" rx="3" ry="3" style="stroke:#038048;stroke-width:1;"/></g><text fill="#000000" font-family="sans-serif" font-size="30" lengthAdjust="spacing" textLength="270.1172" x="1731.75" y="317.1582">version : string [0..1]</text><g data-visibility-modifier="PUBLIC_FIELD"><ellipse cx="1715.75" cy="344.1172" fill="none" rx="3" ry="3" style="stroke:#038048;stroke-width:1;"/></g><text fill="#000000" font-family="sans-serif" font-size="30" lengthAdjust="spacing" textLength="442.0459" x="1731.75" y="354.8926">inLanguage : XsdLanguage [0..1]</text><g data-visibility-modifier="PUBLIC_FIELD"><ellipse cx="1715.75" cy="381.8516" fill="none" rx="3" ry="3" style="stroke:#038048;stroke-width:1;"/></g><text fill="#000000" font-family="sans-serif" font-size="30" lengthAdjust="spacing" textLength="353.54" x="1731.75" y="392.627">dateModified : XsdDate [1]</text><g data-visibility-modifier="PUBLIC_FIELD"><ellipse cx="1715.75" cy="419.5859" fill="none" rx="3" ry="3" style="stroke:#038048;stroke-width:1;"/></g><text fill="#000000" font-family="sans-serif" font-size="30" lengthAdjust="spacing" textLength="405.2637" x="1731.75" y="430.3613">datePublished : XsdDate [0..1]</text><g data-visibility-modifier="PUBLIC_FIELD"><ellipse cx="1715.75" cy="457.3203" fill="none" rx="3" ry="3" style="stroke:#038048;stroke-width:1;"/></g><text fill="#000000" font-family="sans-serif" font-size="30" lengthAdjust="spacing" textLength="275.0977" x="1731.75" y="468.0957">url : XsdAnyUri [0..1]</text><g data-visibility-modifier="PUBLIC_FIELD"><ellipse cx="1715.75" cy="495.0547" fill="none" rx="3" ry="3" style="stroke:#038048;stroke-width:1;"/></g><text fill="#000000" font-family="sans-serif" font-size="30" lengthAdjust="spacing" textLength="326.8359" x="1731.75" y="505.8301">license : Reference [0..*]</text><g data-visibility-modifier="PUBLIC_FIELD"><ellipse cx="1715.75" cy="532.7891" fill="none" rx="3" ry="3" style="stroke:#038048;stroke-width:1;"/></g><text fill="#000000" font-family="sans-serif" font-size="30" lengthAdjust="spacing" textLength="496.9043" x="1731.75" y="543.5645">conditionsOfAccess : Reference [0..*]</text><g data-visibility-modifier="PUBLIC_FIELD"><ellipse cx="1715.75" cy="570.5234" fill="none" rx="3" ry="3" style="stroke:#038048;stroke-width:1;"/></g><text fill="#000000" font-family="sans-serif" font-size="30" lengthAdjust="spacing" textLength="498.6035" x="1731.75" y="581.2988">publishingPrinciples : Reference [0..*]</text><g data-visibility-modifier="PUBLIC_FIELD"><ellipse cx="1715.75" cy="608.2578" fill="none" rx="3" ry="3" style="stroke:#038048;stroke-width:1;"/></g><text fill="#000000" font-family="sans-serif" font-size="30" lengthAdjust="spacing" textLength="395.1416" x="1731.75" y="619.0332">keywords : DefinedTerm [0..*]</text><g data-visibility-modifier="PUBLIC_FIELD"><ellipse cx="1715.75" cy="645.9922" fill="none" rx="3" ry="3" style="stroke:#038048;stroke-width:1;"/></g><text fill="#000000" font-family="sans-serif" font-size="30" lengthAdjust="spacing" textLength="380.2148" x="1731.75" y="656.7676">relatedLink : Reference [0..*]</text></g><!--class Agent--><g class="entity" data-qualified-name="Agent" data-source-line="33" id="ent0003"><rect fill="#EEEEEE" height="47.7344" rx="2.5" ry="2.5" style="stroke:#404040;stroke-width:0.5;" width="84.3984" x="175.75" y="987.1094"/><text fill="#000000" font-family="sans-serif" font-size="30" font-style="italic" lengthAdjust="spacing" textLength="78.3984" x="178.75" y="1023.252">Agent</text></g><!--class AbstractDistribution--><g class="entity" data-qualified-name="AbstractDistribution" data-source-line="35" id="ent0005"><rect fill="#EEEEEE" height="47.7344" rx="2.5" ry="2.5" style="stroke:#404040;stroke-width:0.5;" width="266.0977" x="365.75" y="987.1094"/><text fill="#000000" font-family="sans-serif" font-size="30" font-style="italic" lengthAdjust="spacing" textLength="260.0977" x="368.75" y="1023.252">AbstractDistribution</text></g><!--class Contributor--><g class="entity" data-qualified-name="Contributor" data-source-line="38" id="ent0008"><rect fill="#EEEEEE" height="47.7344" rx="2.5" ry="2.5" style="stroke:#404040;stroke-width:0.5;" width="154.4033" x="651.75" y="987.1094"/><text fill="#000000" font-family="sans-serif" font-size="30" lengthAdjust="spacing" textLength="148.4033" x="654.75" y="1023.252">Contributor</text></g><!--class MonetaryGrant--><g class="entity" data-qualified-name="MonetaryGrant" data-source-line="41" id="ent0011"><rect fill="#EEEEEE" height="47.7344" rx="2.5" ry="2.5" style="stroke:#404040;stroke-width:0.5;" width="206.083" x="825.75" y="987.1094"/><text fill="#000000" font-family="sans-serif" font-size="30" lengthAdjust="spacing" textLength="200.083" x="828.75" y="1023.252">MonetaryGrant</text></g><!--class ProvActivity--><g class="entity" data-qualified-name="ProvActivity" data-source-line="43" id="ent0013"><rect fill="#EEEEEE" height="47.7344" rx="2.5" ry="2.5" style="stroke:#404040;stroke-width:0.5;" width="162.6943" x="1052.25" y="987.1094"/><text fill="#000000" font-family="sans-serif" font-size="30" lengthAdjust="spacing" textLength="156.6943" x="1055.25" y="1023.252">ProvActivity</text></g><!--class DerivedFrom--><g class="entity" data-qualified-name="DerivedFrom" data-source-line="45" id="ent0015"><rect fill="#EEEEEE" height="47.7344" rx="2.5" ry="2.5" style="stroke:#404040;stroke-width:0.5;" width="179.3643" x="1286.25" y="987.1094"/><text fill="#000000" font-family="sans-serif" font-size="30" lengthAdjust="spacing" textLength="173.3643" x="1289.25" y="1023.252">DerivedFrom</text></g><!--class CatalogRecord--><g class="entity" data-qualified-name="CatalogRecord" data-source-line="47" id="ent0017"><rect fill="#EEEEEE" height="47.7344" rx="2.5" ry="2.5" style="stroke:#404040;stroke-width:0.5;" width="206.1123" x="1612.75" y="987.1094"/><text fill="#000000" font-family="sans-serif" font-size="30" lengthAdjust="spacing" textLength="200.1123" x="1615.75" y="1023.252">CatalogRecord</text></g><!--class DefinedTerm--><g class="entity" data-qualified-name="DefinedTerm" data-source-line="49" id="ent0019"><rect fill="#EEEEEE" height="47.7344" rx="2.5" ry="2.5" style="stroke:#404040;stroke-width:0.5;" width="179.3936" x="1970.25" y="987.1094"/><text fill="#000000" font-family="sans-serif" font-size="30" lengthAdjust="spacing" textLength="173.3936" x="1973.25" y="1023.252">DefinedTerm</text></g><!--class Reference--><g class="entity" data-qualified-name="Reference" data-source-line="51" id="ent0021"><rect fill="#EEEEEE" height="47.7344" rx="2.5" ry="2.5" style="stroke:#404040;stroke-width:0.5;" width="144.4131" x="2648.75" y="987.1094"/><text fill="#000000" font-family="sans-serif" font-size="30" lengthAdjust="spacing" textLength="138.4131" x="2651.75" y="1023.252">Reference</text></g><!--class Identifier--><g class="entity" data-qualified-name="Identifier" data-source-line="54" id="ent0024"><rect fill="#EEEEEE" height="47.7344" rx="2.5" ry="2.5" style="stroke:#404040;stroke-width:0.5;" width="121.0635" x="3451.25" y="987.1094"/><text fill="#000000" font-family="sans-serif" font-size="30" lengthAdjust="spacing" textLength="115.0635" x="3454.25" y="1023.252">Identifier</text></g><!--class XsdLanguage--><g class="entity" data-qualified-name="XsdLanguage" data-source-line="58" id="ent0028"><rect fill="#FAE5D3" height="93.0156" rx="2.5" ry="2.5" style="stroke:#404040;stroke-width:0.5;" width="192.1426" x="3664.75" y="964.6094"/><text fill="#000000" font-family="sans-serif" font-size="36" font-style="italic" lengthAdjust="spacing" textLength="190.1426" x="3665.75" y="1006.9805">&#171;dataType&#187;</text><text fill="#000000" font-family="sans-serif" font-size="30" lengthAdjust="spacing" textLength="185.1709" x="3668.2358" y="1046.0332">XsdLanguage</text></g><!--class XsdDate--><g class="entity" data-qualified-name="XsdDate" data-source-line="60" id="ent0030"><rect fill="#FAE5D3" height="93.0156" rx="2.5" ry="2.5" style="stroke:#404040;stroke-width:0.5;" width="192.1426" x="3879.75" y="964.6094"/><text fill="#000000" font-family="sans-serif" font-size="36" font-style="italic" lengthAdjust="spacing" textLength="190.1426" x="3880.75" y="1006.9805">&#171;dataType&#187;</text><text fill="#000000" font-family="sans-serif" font-size="30" lengthAdjust="spacing" textLength="115.0635" x="3918.2896" y="1046.0332">XsdDate</text></g><!--class XsdAnyUri--><g class="entity" data-qualified-name="XsdAnyUri" data-source-line="62" id="ent0032"><rect fill="#FAE5D3" height="93.0156" rx="2.5" ry="2.5" style="stroke:#404040;stroke-width:0.5;" width="192.1426" x="4112.75" y="964.6094"/><text fill="#000000" font-family="sans-serif" font-size="36" font-style="italic" lengthAdjust="spacing" textLength="190.1426" x="4113.75" y="1006.9805">&#171;dataType&#187;</text><text fill="#000000" font-family="sans-serif" font-size="30" lengthAdjust="spacing" textLength="141.709" x="4137.9668" y="1046.0332">XsdAnyUri</text></g><!--link Dataset to Agent--><g class="link" data-entity-1="ent0002" data-entity-2="ent0003" data-link-type="dependency" data-source-line="34" id="lnk4"><path codeLine="34" d="M1704.45,378.2694 C1228.71,421.3094 263.5,538.4794 60.75,792.6094 C6,861.2294 111.9616,943.4614 174.3016,983.7714" fill="none" id="Dataset-to-Agent" style="stroke:#404040;stroke-width:1.2;"/><polygon fill="#404040" points="179.34,987.0294,173.9543,978.7835,175.1413,984.3144,169.6104,985.5014,179.34,987.0294" style="stroke:#404040;stroke-width:1.2;"/><text fill="#000000" font-family="sans-serif" font-size="36" lengthAdjust="spacing" textLength="130.0605" x="61.75" y="830.9805">provider</text><text fill="#000000" font-family="sans-serif" font-size="36" lengthAdjust="spacing" textLength="54.0352" x="113.6565" y="971.1521">0..*</text></g><!--link Dataset to Agent--><g class="link" data-entity-1="ent0002" data-entity-2="ent0003" data-link-type="dependency" data-source-line="37" id="lnk7"><path codeLine="37" d="M1704.72,384.1394 C1260.77,434.4994 399.47,560.2894 217.75,792.6094 C173.08,849.7194 193.5697,937.7986 207.5297,981.1186" fill="none" id="Dataset-to-Agent-1" style="stroke:#404040;stroke-width:1.2;"/><polygon fill="#404040" points="209.37,986.8294,210.4167,977.0363,207.8364,982.0704,202.8023,979.4901,209.37,986.8294" style="stroke:#404040;stroke-width:1.2;"/><text fill="#000000" font-family="sans-serif" font-size="36" lengthAdjust="spacing" textLength="112.043" x="218.75" y="830.9805">creator</text><text fill="#000000" font-family="sans-serif" font-size="36" lengthAdjust="spacing" textLength="54.0352" x="212.5391" y="971.2072">0..*</text></g><!--link Dataset to Agent--><g class="link" data-entity-1="ent0002" data-entity-2="ent0003" data-link-type="dependency" data-source-line="40" id="lnk10"><path codeLine="40" d="M1704.74,374.0594 C1365.96,406.6994 775.65,503.8494 367.75,792.6094 C362.98,795.9794 274.3747,926.4616 236.8447,981.8716" fill="none" id="Dataset-to-Agent-2" style="stroke:#404040;stroke-width:1.2;"/><polygon fill="#404040" points="233.48,986.8394,241.8389,981.6309,236.2839,982.6996,235.2153,977.1446,233.48,986.8394" style="stroke:#404040;stroke-width:1.2;"/><text fill="#000000" font-family="sans-serif" font-size="36" lengthAdjust="spacing" textLength="146.0918" x="368.75" y="830.9805">publisher</text><text fill="#000000" font-family="sans-serif" font-size="36" lengthAdjust="spacing" textLength="60.0469" x="268.2151" y="1023.0693">0..1</text></g><!--link Dataset to AbstractDistribution--><g class="link" data-entity-1="ent0002" data-entity-2="ent0005" data-link-type="dependency" data-source-line="36" id="lnk6"><path codeLine="36" d="M1704.55,406.1894 C1338.27,478.3294 706.18,623.5994 548.75,792.6094 C497.78,847.3294 494.9885,937.1646 496.8285,981.0246" fill="none" id="Dataset-to-AbstractDistribution" style="stroke:#404040;stroke-width:1.2;"/><polygon fill="#404040" points="497.08,987.0194,500.6993,977.8596,496.8704,982.0238,492.7063,978.1949,497.08,987.0194" style="stroke:#404040;stroke-width:1.2;"/><text fill="#000000" font-family="sans-serif" font-size="36" lengthAdjust="spacing" textLength="174.0938" x="549.75" y="830.9805">distribution</text><text fill="#000000" font-family="sans-serif" font-size="36" lengthAdjust="spacing" textLength="54.0352" x="437.9676" y="971.1403">0..*</text></g><!--link Dataset to Contributor--><g class="link" data-entity-1="ent0002" data-entity-2="ent0008" data-link-type="dependency" data-source-line="39" id="lnk9"><path codeLine="39" d="M1704.57,373.3594 C1421.05,405.4794 982.22,502.2694 752.75,792.6094 C707.52,849.8294 715.6204,937.6549 723.0104,980.9449" fill="none" id="Dataset-to-Contributor" style="stroke:#404040;stroke-width:1.2;"/><polygon fill="#404040" points="724.02,986.8594,726.4485,977.3146,723.1786,981.9307,718.5626,978.6608,724.02,986.8594" style="stroke:#404040;stroke-width:1.2;"/><text fill="#000000" font-family="sans-serif" font-size="36" lengthAdjust="spacing" textLength="170.0859" x="753.75" y="830.9805">contributor</text><text fill="#000000" font-family="sans-serif" font-size="36" lengthAdjust="spacing" textLength="54.0352" x="664.5348" y="971.2423">0..*</text></g><!--link Dataset to MonetaryGrant--><g class="link" data-entity-1="ent0002" data-entity-2="ent0011" data-link-type="dependency" data-source-line="42" id="lnk12"><path codeLine="42" d="M1704.52,394.9794 C1466.74,443.3994 1129.35,552.2294 951.75,792.6094 C908.54,851.0894 916.1277,937.8687 923.1877,980.8587" fill="none" id="Dataset-to-MonetaryGrant" style="stroke:#404040;stroke-width:1.2;"/><polygon fill="#404040" points="924.16,986.7794,926.6486,977.2501,923.3497,981.8455,918.7544,978.5466,924.16,986.7794" style="stroke:#404040;stroke-width:1.2;"/><text fill="#000000" font-family="sans-serif" font-size="36" lengthAdjust="spacing" textLength="118.1074" x="952.75" y="830.9805">funding</text><text fill="#000000" font-family="sans-serif" font-size="36" lengthAdjust="spacing" textLength="54.0352" x="864.7264" y="971.1486">0..*</text></g><!--link Dataset to ProvActivity--><g class="link" data-entity-1="ent0002" data-entity-2="ent0013" data-link-type="dependency" data-source-line="44" id="lnk14"><path codeLine="44" d="M1704.62,410.0094 C1497.63,466.2494 1223.95,578.1694 1090.75,792.6094 C1052.05,854.8994 1091.7473,939.7306 1116.1273,981.7206" fill="none" id="Dataset-to-ProvActivity" style="stroke:#404040;stroke-width:1.2;"/><polygon fill="#404040" points="1119.14,986.9094,1118.0802,977.1177,1116.6294,982.5854,1111.1618,981.1346,1119.14,986.9094" style="stroke:#404040;stroke-width:1.2;"/><text fill="#000000" font-family="sans-serif" font-size="36" lengthAdjust="spacing" textLength="276.1523" x="1091.75" y="830.9805">wasGeneratedBy</text><text fill="#000000" font-family="sans-serif" font-size="36" lengthAdjust="spacing" textLength="54.0352" x="1058.0176" y="971.3009">0..*</text></g><!--link Dataset to DerivedFrom--><g class="link" data-entity-1="ent0002" data-entity-2="ent0015" data-link-type="dependency" data-source-line="46" id="lnk16"><path codeLine="46" d="M1704.59,488.6394 C1587.05,561.1794 1459.86,663.0994 1389.75,792.6094 C1355.52,855.8294 1363.4206,939.0982 1370.2606,980.8782" fill="none" id="Dataset-to-DerivedFrom" style="stroke:#404040;stroke-width:1.2;"/><polygon fill="#404040" points="1371.23,986.7994,1373.7234,977.2714,1370.4222,981.8651,1365.8285,978.5639,1371.23,986.7994" style="stroke:#404040;stroke-width:1.2;"/><text fill="#000000" font-family="sans-serif" font-size="36" lengthAdjust="spacing" textLength="272.0566" x="1390.75" y="830.9805">wasDerivedFrom</text><text fill="#000000" font-family="sans-serif" font-size="36" lengthAdjust="spacing" textLength="54.0352" x="1311.7842" y="971.172">0..*</text></g><!--link Dataset to CatalogRecord--><g class="link" data-entity-1="ent0002" data-entity-2="ent0017" data-link-type="dependency" data-source-line="48" id="lnk18"><path codeLine="48" d="M1728.63,667.6094 C1706.7,707.9294 1687.85,750.0494 1674.75,792.6094 C1653.48,861.6494 1683.0498,941.1397 1701.5898,981.3897" fill="none" id="Dataset-to-CatalogRecord" style="stroke:#404040;stroke-width:1.2;"/><polygon fill="#404040" points="1704.1,986.8394,1703.9678,976.9914,1702.0081,982.298,1696.7016,980.3384,1704.1,986.8394" style="stroke:#404040;stroke-width:1.2;"/><text fill="#000000" font-family="sans-serif" font-size="36" lengthAdjust="spacing" textLength="152.0684" x="1675.75" y="830.9805">subjectOf</text><text fill="#000000" font-family="sans-serif" font-size="36" lengthAdjust="spacing" textLength="20.0215" x="1680.3711" y="971.2189">1</text></g><!--link CatalogRecord to Dataset--><g class="link" data-entity-1="ent0017" data-entity-2="ent0002" data-link-type="dependency" data-source-line="53" id="lnk23"><path codeLine="53" d="M1734.63,986.9294 C1759.54,955.3494 1803.3,896.2294 1829.75,839.6094 C1854.98,785.5994 1874.9824,731.7706 1893.3924,673.5006" fill="none" id="CatalogRecord-to-Dataset" style="stroke:#404040;stroke-width:1.2;"/><polygon fill="#404040" points="1895.2,667.7794,1888.6745,675.1562,1893.6937,672.5471,1896.3028,677.5663,1895.2,667.7794" style="stroke:#404040;stroke-width:1.2;"/><text fill="#000000" font-family="sans-serif" font-size="36" lengthAdjust="spacing" textLength="90.0879" x="1847.75" y="830.9805">about</text><text fill="#000000" font-family="sans-serif" font-size="36" lengthAdjust="spacing" textLength="60.0469" x="1832.7314" y="712.9771">0..1</text></g><!--link Dataset to DefinedTerm--><g class="link" data-entity-1="ent0002" data-entity-2="ent0019" data-link-type="dependency" data-source-line="50" id="lnk20"><path codeLine="50" d="M1948.87,667.8394 C1950.95,725.5294 1957.32,784.8494 1970.75,839.6094 C1984.71,896.5194 2017.9486,950.5866 2039.6186,982.0766" fill="none" id="Dataset-to-DefinedTerm" style="stroke:#404040;stroke-width:1.2;"/><polygon fill="#404040" points="2043.02,987.0194,2041.2131,977.3377,2040.1855,982.9004,2034.6228,981.8728,2043.02,987.0194" style="stroke:#404040;stroke-width:1.2;"/><text fill="#000000" font-family="sans-serif" font-size="36" lengthAdjust="spacing" textLength="152.0508" x="1971.75" y="830.9805">keywords</text><text fill="#000000" font-family="sans-serif" font-size="36" lengthAdjust="spacing" textLength="54.0352" x="1981.1987" y="971.1403">0..*</text></g><!--link Dataset to DefinedTerm--><g class="link" data-entity-1="ent0002" data-entity-2="ent0019" data-link-type="dependency" data-source-line="56" id="lnk26"><path codeLine="56" d="M2095.63,667.7994 C2108.04,709.1894 2118.65,751.5294 2125.75,792.6094 C2138.31,865.3194 2100.3368,942.6846 2077.3268,981.8946" fill="none" id="Dataset-to-DefinedTerm-1" style="stroke:#404040;stroke-width:1.2;"/><polygon fill="#404040" points="2074.29,987.0694,2082.295,981.3317,2076.8206,982.7571,2075.3953,977.2827,2074.29,987.0694" style="stroke:#404040;stroke-width:1.2;"/><text fill="#000000" font-family="sans-serif" font-size="36" lengthAdjust="spacing" textLength="234.1582" x="2129.75" y="830.9805">additionalType</text><text fill="#000000" font-family="sans-serif" font-size="36" lengthAdjust="spacing" textLength="54.0352" x="2081.6574" y="971.1992">0..*</text></g><!--link Dataset to Reference--><g class="link" data-entity-1="ent0002" data-entity-2="ent0021" data-link-type="dependency" data-source-line="52" id="lnk22"><path codeLine="52" d="M2236.82,645.6694 C2281.41,694.5194 2327.04,744.8694 2369.75,792.6094 C2388.23,813.2694 2389.16,822.2194 2410.75,839.6094 C2491.58,904.7294 2595.3059,955.7454 2660.1959,984.5454" fill="none" id="Dataset-to-Reference" style="stroke:#404040;stroke-width:1.2;"/><polygon fill="#404040" points="2665.68,986.9794,2659.0765,979.6723,2661.1099,984.951,2655.8311,986.9844,2665.68,986.9794" style="stroke:#404040;stroke-width:1.2;"/><text fill="#000000" font-family="sans-serif" font-size="36" lengthAdjust="spacing" textLength="112.0605" x="2411.75" y="830.9805">license</text><text fill="#000000" font-family="sans-serif" font-size="36" lengthAdjust="spacing" textLength="54.0352" x="2597.0276" y="971.0932">0..*</text></g><!--link Dataset to Reference--><g class="link" data-entity-1="ent0002" data-entity-2="ent0021" data-link-type="dependency" data-source-line="64" id="lnk34"><path codeLine="64" d="M2236.93,529.5494 C2335.96,602.3894 2444.02,693.3894 2525.75,792.6094 C2540.66,810.7094 2535.94,820.6494 2549.75,839.6094 C2592.69,898.5694 2651.6869,952.2652 2687.9969,983.1052" fill="none" id="Dataset-to-Reference-1" style="stroke:#404040;stroke-width:1.2;"/><polygon fill="#404040" points="2692.57,986.9894,2688.2998,978.1144,2688.7591,983.7526,2683.1209,984.2118,2692.57,986.9894" style="stroke:#404040;stroke-width:1.2;"/><text fill="#000000" font-family="sans-serif" font-size="36" lengthAdjust="spacing" textLength="316.1426" x="2550.75" y="830.9805">conditionsOfAccess</text><text fill="#000000" font-family="sans-serif" font-size="36" lengthAdjust="spacing" textLength="54.0352" x="2692.3262" y="971.105">0..*</text></g><!--link Dataset to Reference--><g class="link" data-entity-1="ent0002" data-entity-2="ent0021" data-link-type="dependency" data-source-line="65" id="lnk35"><path codeLine="65" d="M2236.81,407.0294 C2448.54,461.8594 2731.33,573.3494 2868.75,792.6094 C2914.1,864.9794 2819.1728,944.2781 2762.0328,983.5981" fill="none" id="Dataset-to-Reference-2" style="stroke:#404040;stroke-width:1.2;"/><polygon fill="#404040" points="2757.09,986.9994,2766.7717,985.1926,2761.209,984.165,2762.2366,978.6022,2757.09,986.9994" style="stroke:#404040;stroke-width:1.2;"/><text fill="#000000" font-family="sans-serif" font-size="36" lengthAdjust="spacing" textLength="318.1816" x="2881.75" y="830.9805">publishingPrinciples</text><text fill="#000000" font-family="sans-serif" font-size="36" lengthAdjust="spacing" textLength="54.0352" x="2768.3388" y="971.1168">0..*</text></g><!--link Dataset to Reference--><g class="link" data-entity-1="ent0002" data-entity-2="ent0021" data-link-type="dependency" data-source-line="66" id="lnk36"><path codeLine="66" d="M2236.87,366.5794 C2529.38,392.3994 2986.8,483.3594 3205.75,792.6094 C3312.99,944.0894 2958.3387,991.2938 2798.8087,1004.7838" fill="none" id="Dataset-to-Reference-3" style="stroke:#404040;stroke-width:1.2;"/><polygon fill="#404040" points="2792.83,1005.2894,2802.135,1008.5168,2797.8122,1004.8681,2801.461,1000.5453,2792.83,1005.2894" style="stroke:#404040;stroke-width:1.2;"/><text fill="#000000" font-family="sans-serif" font-size="36" lengthAdjust="spacing" textLength="176.1152" x="3225.75" y="830.9805">relatedLink</text><text fill="#000000" font-family="sans-serif" font-size="36" lengthAdjust="spacing" textLength="54.0352" x="2801.0194" y="1044.0644">0..*</text></g><!--link Dataset to Identifier--><g class="link" data-entity-1="ent0002" data-entity-2="ent0024" data-link-type="dependency" data-source-line="55" id="lnk25"><path codeLine="55" d="M2236.89,374.4394 C2550.85,407.3694 3072.38,504.7294 3407.75,792.6094 C3439.43,819.7994 3482.8162,931.0692 3501.3362,981.3492" fill="none" id="Dataset-to-Identifier" style="stroke:#404040;stroke-width:1.2;"/><polygon fill="#404040" points="3503.41,986.9794,3504.0527,977.1515,3501.6818,982.2875,3496.5458,979.9166,3503.41,986.9794" style="stroke:#404040;stroke-width:1.2;"/><text fill="#000000" font-family="sans-serif" font-size="36" lengthAdjust="spacing" textLength="136.0723" x="3441.75" y="830.9805">identifier</text><text fill="#000000" font-family="sans-serif" font-size="36" lengthAdjust="spacing" textLength="20.0215" x="3480.1394" y="971.0932">1</text></g><!--link Dataset to Identifier--><g class="link" data-entity-1="ent0002" data-entity-2="ent0024" data-link-type="dependency" data-source-line="57" id="lnk27"><path codeLine="57" d="M2237.1,390.5594 C2650.78,447.8194 3417.2,580.2894 3579.75,792.6094 C3625.8,852.7694 3568.6234,939.9244 3535.0134,982.3944" fill="none" id="Dataset-to-Identifier-1" style="stroke:#404040;stroke-width:1.2;"/><polygon fill="#404040" points="3531.29,987.0994,3540.0117,982.5242,3534.3928,983.1786,3533.7385,977.5597,3531.29,987.0994" style="stroke:#404040;stroke-width:1.2;"/><text fill="#000000" font-family="sans-serif" font-size="36" lengthAdjust="spacing" textLength="130.043" x="3597.75" y="830.9805">sameAs</text><text fill="#000000" font-family="sans-serif" font-size="36" lengthAdjust="spacing" textLength="54.0352" x="3539.5774" y="971.2346">0..*</text></g><!--link Dataset to XsdLanguage--><g class="link" data-entity-1="ent0002" data-entity-2="ent0028" data-link-type="dependency" data-source-line="59" id="lnk29"><path codeLine="59" d="M2237.07,386.5894 C2679.55,440.4694 3537.1,571.1794 3733.75,792.6094 C3775.31,839.4094 3775.3223,909.9118 3769.5023,958.5918" fill="none" id="Dataset-to-XsdLanguage" style="stroke:#404040;stroke-width:1.2;stroke-dasharray:7,7;"/><polygon fill="#404040" points="3768.79,964.5494,3773.8301,956.0879,3769.3836,959.5847,3765.8867,955.1382,3768.79,964.5494" style="stroke:#404040;stroke-width:1.2;"/><text fill="#000000" font-family="sans-serif" font-size="36" lengthAdjust="spacing" textLength="188.1914" x="3760.75" y="830.9805">inLanguage</text></g><!--link Dataset to XsdDate--><g class="link" data-entity-1="ent0002" data-entity-2="ent0030" data-link-type="dependency" data-source-line="61" id="lnk31"><path codeLine="61" d="M2236.95,378.3594 C2723.13,422.0794 3725.6,541.0694 3951.75,792.6094 C3973.78,817.1194 3976.9945,902.3094 3976.7645,958.5394" fill="none" id="Dataset-to-XsdDate" style="stroke:#404040;stroke-width:1.2;stroke-dasharray:7,7;"/><polygon fill="#404040" points="3976.74,964.5394,3980.7768,955.5558,3976.7605,959.5394,3972.7768,955.5231,3976.74,964.5394" style="stroke:#404040;stroke-width:1.2;"/><text fill="#000000" font-family="sans-serif" font-size="36" lengthAdjust="spacing" textLength="206.1387" x="3970.75" y="830.9805">dateModified</text></g><!--link Dataset to XsdAnyUri--><g class="link" data-entity-1="ent0002" data-entity-2="ent0032" data-link-type="dependency" data-source-line="63" id="lnk33"><path codeLine="63" d="M2236.85,371.8494 C2766.06,405.9994 3922.17,511.6594 4182.75,792.6094 C4225.29,838.4794 4224.6708,909.2504 4218.2408,958.2404" fill="none" id="Dataset-to-XsdAnyUri" style="stroke:#404040;stroke-width:1.2;stroke-dasharray:7,7;"/><polygon fill="#404040" points="4217.46,964.1894,4222.5972,955.7864,4218.1107,959.2319,4214.6652,954.7454,4217.46,964.1894" style="stroke:#404040;stroke-width:1.2;"/><text fill="#000000" font-family="sans-serif" font-size="36" lengthAdjust="spacing" textLength="40.0078" x="4209.75" y="830.9805">url</text></g><?plantuml-src ZLNVJzim47xFNs6LjqrK1SOU8bIfq1OXWK2CIPEcFRZsfVMQsf7jjEec_dSkTduuaAQqB_7TTz-Tp-VFLjWKo9HQQi16Ay61CA5P2luRDfdTamri5g1DPDP2PbJJ3J4hojLEo2L9Q6eWy4oqLhkNbM1h2SQGi-5vuDHKhWravFno55Ybuk2ieP53GlFKpfMqFyG_81VV0oTBANB_ZuXFTwDIfSd9jr7nH-ErqXpqUsj8XO7MQh78BJJcKVGQHPvwK7PaGAYfkaDEvhFvx6Rcydx5xaWh4W6QnEIkMVm--rEu9Tq0EWmcmIQLHjmcqoApGid0DneElPjoBWeVJL_sMH4zXKH8u2-WDmxsnS4CKa_CkworTui7TO1Vo7igbpbT5jo_3AzN3OHJ2m-A5wJSWt3pKDUFtq_v8XLcrNRNyRbElNqYzp-r23ofO21DaVaP4j0W6GHLCoNztirZCc6ic9nkOERJuyQUS7TCP2aSWgvXlyD1C0SRgI75wlczaEikYjU8Bh27bDbotWQJ9JRSZOJx8YSpzukg0Jaz7PD14Jme0J79jDhYgEYFNELwAemVHDoyf-vmz6RgmiU41yk-0fa6QfMkvlu6RuCBKzfL4wpxYWXXoDciFe3FWjwKerGdVr0IBDNxMzG9t-UMfQ-0DZ0cIOu39PSLynCUmuHPiHLsxuX3Gnzl2nUJ7JMt844NStEzhyK2jDW2dskryOBHhFkuGvYZ3WprUM1OgfRFm72K_Oc4bcvwx74RXMAGB_u2iuz9KtDz9SgQcolIMtC3YqbrnIhI-WuvokP6zH0se9YK6X6rYmycfugF2Lset5Pf6o5qUGDTFDIUkr2z6oa_lkEsHdVXMzHUgwiw0yrrXOOQV7M5waeBql4ONvh9x79wKTCFX-CM66kkjJmWByIu8dR2_1bI1qIz29G_eFGwNf6MgluPsX8Q4tmIZftxH_K_5j7r31oB2UG-UWC0?></g></svg>