<svg xmlns="http://www.w3.org/2000/svg" xmlns:xlink="http://www.w3.org/1999/xlink" contentStyleType="text/css" data-diagram-type="CLASS" height="646px" preserveAspectRatio="none" style="width:1208px;height:646px;background:#FFFFFF;" version="1.1" viewBox="0 0 1208 646" width="1208px" zoomAndPan="magnify"><?plantuml 1.2026.3?><defs/><g><g class="title" data-source-line="1"><text fill="#000000" font-family="sans-serif" font-size="14" font-weight="700" lengthAdjust="spacing" textLength="50.5791" x="575.4522" y="24.5332">Dataset</text></g><!--class Dataset--><g class="entity" data-qualified-name="Dataset" data-source-line="15" id="ent0002"><rect fill="#FEFECE" height="297.2344" rx="2.5" ry="2.5" style="stroke:#404040;stroke-width:0.5;" width="258.6816" x="602.1026" y="45.6094"/><text fill="#000000" font-family="sans-serif" font-size="12" lengthAdjust="spacing" textLength="41.3555" x="710.7657" y="63.0664">Dataset</text><line style="stroke:#404040;stroke-width:0.5;" x1="603.1026" x2="859.7843" y1="70.7031" y2="70.7031"/><g data-visibility-modifier="PUBLIC_FIELD"><ellipse cx="613.1026" cy="85.0078" fill="none" rx="3" ry="3" style="stroke:#038048;stroke-width:1;"/></g><text fill="#000000" font-family="sans-serif" font-size="14" lengthAdjust="spacing" textLength="137.7373" x="622.1026" y="89.2363">identifier : Identifier [1]</text><g data-visibility-modifier="PUBLIC_FIELD"><ellipse cx="613.1026" cy="102.6172" fill="none" rx="3" ry="3" style="stroke:#038048;stroke-width:1;"/></g><text fill="#000000" font-family="sans-serif" font-size="14" lengthAdjust="spacing" textLength="100.3789" x="622.1026" y="106.8457">name : string [1]</text><g data-visibility-modifier="PUBLIC_FIELD"><ellipse cx="613.1026" cy="120.2266" fill="none" rx="3" ry="3" style="stroke:#038048;stroke-width:1;"/></g><text fill="#000000" font-family="sans-serif" font-size="14" lengthAdjust="spacing" textLength="148.627" x="622.1026" y="124.4551">description : string [0..1]</text><g data-visibility-modifier="PUBLIC_FIELD"><ellipse cx="613.1026" cy="137.8359" fill="none" rx="3" ry="3" style="stroke:#038048;stroke-width:1;"/></g><text fill="#000000" font-family="sans-serif" font-size="14" lengthAdjust="spacing" textLength="216.3301" x="622.1026" y="142.0645">additionalType : DefinedTerm [0..*]</text><g data-visibility-modifier="PUBLIC_FIELD"><ellipse cx="613.1026" cy="155.4453" fill="none" rx="3" ry="3" style="stroke:#038048;stroke-width:1;"/></g><text fill="#000000" font-family="sans-serif" font-size="14" lengthAdjust="spacing" textLength="148.6201" x="622.1026" y="159.6738">sameAs : Identifier [0..*]</text><g data-visibility-modifier="PUBLIC_FIELD"><ellipse cx="613.1026" cy="173.0547" fill="none" rx="3" ry="3" style="stroke:#038048;stroke-width:1;"/></g><text fill="#000000" font-family="sans-serif" font-size="14" lengthAdjust="spacing" textLength="126.0547" x="622.1026" y="177.2832">version : string [0..1]</text><g data-visibility-modifier="PUBLIC_FIELD"><ellipse cx="613.1026" cy="190.6641" fill="none" rx="3" ry="3" style="stroke:#038048;stroke-width:1;"/></g><text fill="#000000" font-family="sans-serif" font-size="14" lengthAdjust="spacing" textLength="206.2881" x="622.1026" y="194.8926">inLanguage : XsdLanguage [0..1]</text><g data-visibility-modifier="PUBLIC_FIELD"><ellipse cx="613.1026" cy="208.2734" fill="none" rx="3" ry="3" style="stroke:#038048;stroke-width:1;"/></g><text fill="#000000" font-family="sans-serif" font-size="14" lengthAdjust="spacing" textLength="164.9854" x="622.1026" y="212.502">dateModified : XsdDate [1]</text><g data-visibility-modifier="PUBLIC_FIELD"><ellipse cx="613.1026" cy="225.8828" fill="none" rx="3" ry="3" style="stroke:#038048;stroke-width:1;"/></g><text fill="#000000" font-family="sans-serif" font-size="14" lengthAdjust="spacing" textLength="189.123" x="622.1026" y="230.1113">datePublished : XsdDate [0..1]</text><g data-visibility-modifier="PUBLIC_FIELD"><ellipse cx="613.1026" cy="243.4922" fill="none" rx="3" ry="3" style="stroke:#038048;stroke-width:1;"/></g><text fill="#000000" font-family="sans-serif" font-size="14" lengthAdjust="spacing" textLength="128.3789" x="622.1026" y="247.7207">url : XsdAnyUri [0..1]</text><g data-visibility-modifier="PUBLIC_FIELD"><ellipse cx="613.1026" cy="261.1016" fill="none" rx="3" ry="3" style="stroke:#038048;stroke-width:1;"/></g><text fill="#000000" font-family="sans-serif" font-size="14" lengthAdjust="spacing" textLength="152.5234" x="622.1026" y="265.3301">license : Reference [0..*]</text><g data-visibility-modifier="PUBLIC_FIELD"><ellipse cx="613.1026" cy="278.7109" fill="none" rx="3" ry="3" style="stroke:#038048;stroke-width:1;"/></g><text fill="#000000" font-family="sans-serif" font-size="14" lengthAdjust="spacing" textLength="231.8887" x="622.1026" y="282.9395">conditionsOfAccess : Reference [0..*]</text><g data-visibility-modifier="PUBLIC_FIELD"><ellipse cx="613.1026" cy="296.3203" fill="none" rx="3" ry="3" style="stroke:#038048;stroke-width:1;"/></g><text fill="#000000" font-family="sans-serif" font-size="14" lengthAdjust="spacing" textLength="232.6816" x="622.1026" y="300.5488">publishingPrinciples : Reference [0..*]</text><g data-visibility-modifier="PUBLIC_FIELD"><ellipse cx="613.1026" cy="313.9297" fill="none" rx="3" ry="3" style="stroke:#038048;stroke-width:1;"/></g><text fill="#000000" font-family="sans-serif" font-size="14" lengthAdjust="spacing" textLength="184.3994" x="622.1026" y="318.1582">keywords : DefinedTerm [0..*]</text><g data-visibility-modifier="PUBLIC_FIELD"><ellipse cx="613.1026" cy="331.5391" fill="none" rx="3" ry="3" style="stroke:#038048;stroke-width:1;"/></g><text fill="#000000" font-family="sans-serif" font-size="14" lengthAdjust="spacing" textLength="177.4336" x="622.1026" y="335.7676">relatedLink : Reference [0..*]</text></g><!--class Agent--><g class="entity" data-qualified-name="Agent" data-source-line="32" id="ent0003"><rect fill="#EEEEEE" height="25.0938" rx="2.5" ry="2.5" style="stroke:#404040;stroke-width:0.5;" width="37.3594" x="23.1026" y="600.1094"/><text fill="#000000" font-family="sans-serif" font-size="12" font-style="italic" lengthAdjust="spacing" textLength="31.3594" x="26.1026" y="617.5664">Agent</text></g><!--class AbstractDistribution--><g class="entity" data-qualified-name="AbstractDistribution" data-source-line="34" id="ent0005"><rect fill="#EEEEEE" height="25.0938" rx="2.5" ry="2.5" style="stroke:#404040;stroke-width:0.5;" width="110.0391" x="80.6026" y="600.1094"/><text fill="#000000" font-family="sans-serif" font-size="12" font-style="italic" lengthAdjust="spacing" textLength="104.0391" x="83.6026" y="617.5664">AbstractDistribution</text></g><!--class Contributor--><g class="entity" data-qualified-name="Contributor" data-source-line="37" id="ent0008"><rect fill="#EEEEEE" height="25.0938" rx="2.5" ry="2.5" style="stroke:#404040;stroke-width:0.5;" width="65.3613" x="211.1026" y="600.1094"/><text fill="#000000" font-family="sans-serif" font-size="12" lengthAdjust="spacing" textLength="59.3613" x="214.1026" y="617.5664">Contributor</text></g><!--class MonetaryGrant--><g class="entity" data-qualified-name="MonetaryGrant" data-source-line="40" id="ent0011"><rect fill="#EEEEEE" height="25.0938" rx="2.5" ry="2.5" style="stroke:#404040;stroke-width:0.5;" width="86.0332" x="296.6026" y="600.1094"/><text fill="#000000" font-family="sans-serif" font-size="12" lengthAdjust="spacing" textLength="80.0332" x="299.6026" y="617.5664">MonetaryGrant</text></g><!--class ProvActivity--><g class="entity" data-qualified-name="ProvActivity" data-source-line="42" id="ent0013"><rect fill="#EEEEEE" height="25.0938" rx="2.5" ry="2.5" style="stroke:#404040;stroke-width:0.5;" width="68.6777" x="403.1026" y="600.1094"/><text fill="#000000" font-family="sans-serif" font-size="12" lengthAdjust="spacing" textLength="62.6777" x="406.1026" y="617.5664">ProvActivity</text></g><!--class DerivedFrom--><g class="entity" data-qualified-name="DerivedFrom" data-source-line="44" id="ent0015"><rect fill="#EEEEEE" height="25.0938" rx="2.5" ry="2.5" style="stroke:#404040;stroke-width:0.5;" width="75.3457" x="492.1026" y="600.1094"/><text fill="#000000" font-family="sans-serif" font-size="12" lengthAdjust="spacing" textLength="69.3457" x="495.1026" y="617.5664">DerivedFrom</text></g><!--class CatalogRecord--><g class="entity" data-qualified-name="CatalogRecord" data-source-line="46" id="ent0017"><rect fill="#EEEEEE" height="25.0938" rx="2.5" ry="2.5" style="stroke:#404040;stroke-width:0.5;" width="86.0449" x="587.6026" y="600.1094"/><text fill="#000000" font-family="sans-serif" font-size="12" lengthAdjust="spacing" textLength="80.0449" x="590.6026" y="617.5664">CatalogRecord</text></g><!--class DefinedTerm--><g class="entity" data-qualified-name="DefinedTerm" data-source-line="48" id="ent0019"><rect fill="#EEEEEE" height="25.0938" rx="2.5" ry="2.5" style="stroke:#404040;stroke-width:0.5;" width="75.3574" x="694.1026" y="600.1094"/><text fill="#000000" font-family="sans-serif" font-size="12" lengthAdjust="spacing" textLength="69.3574" x="697.1026" y="617.5664">DefinedTerm</text></g><!--class Reference--><g class="entity" data-qualified-name="Reference" data-source-line="50" id="ent0021"><rect fill="#EEEEEE" height="25.0938" rx="2.5" ry="2.5" style="stroke:#404040;stroke-width:0.5;" width="61.3652" x="789.1026" y="600.1094"/><text fill="#000000" font-family="sans-serif" font-size="12" lengthAdjust="spacing" textLength="55.3652" x="792.1026" y="617.5664">Reference</text></g><!--class Identifier--><g class="entity" data-qualified-name="Identifier" data-source-line="53" id="ent0024"><rect fill="#EEEEEE" height="25.0938" rx="2.5" ry="2.5" style="stroke:#404040;stroke-width:0.5;" width="52.0254" x="870.6026" y="600.1094"/><text fill="#000000" font-family="sans-serif" font-size="12" lengthAdjust="spacing" textLength="46.0254" x="873.6026" y="617.5664">Identifier</text></g><!--class XsdLanguage--><g class="entity" data-qualified-name="XsdLanguage" data-source-line="57" id="ent0028"><rect fill="#FAE5D3" height="40.1875" rx="2.5" ry="2.5" style="stroke:#404040;stroke-width:0.5;" width="80.0684" x="942.6026" y="592.6094"/><text fill="#000000" font-family="sans-serif" font-size="12" font-style="italic" lengthAdjust="spacing" textLength="63.3809" x="950.9464" y="610.0664">&#171;dataType&#187;</text><text fill="#000000" font-family="sans-serif" font-size="12" lengthAdjust="spacing" textLength="74.0684" x="945.6026" y="625.1602">XsdLanguage</text></g><!--class XsdDate--><g class="entity" data-qualified-name="XsdDate" data-source-line="59" id="ent0030"><rect fill="#FAE5D3" height="40.1875" rx="2.5" ry="2.5" style="stroke:#404040;stroke-width:0.5;" width="65.3809" x="1043.1026" y="592.6094"/><text fill="#000000" font-family="sans-serif" font-size="12" font-style="italic" lengthAdjust="spacing" textLength="63.3809" x="1044.1026" y="610.0664">&#171;dataType&#187;</text><text fill="#000000" font-family="sans-serif" font-size="12" lengthAdjust="spacing" textLength="46.0254" x="1052.7804" y="625.1602">XsdDate</text></g><!--class XsdAnyUri--><g class="entity" data-qualified-name="XsdAnyUri" data-source-line="61" id="ent0032"><rect fill="#FAE5D3" height="40.1875" rx="2.5" ry="2.5" style="stroke:#404040;stroke-width:0.5;" width="65.3809" x="1128.1026" y="592.6094"/><text fill="#000000" font-family="sans-serif" font-size="12" font-style="italic" lengthAdjust="spacing" textLength="63.3809" x="1129.1026" y="610.0664">&#171;dataType&#187;</text><text fill="#000000" font-family="sans-serif" font-size="12" lengthAdjust="spacing" textLength="56.6836" x="1132.4513" y="625.1602">XsdAnyUri</text></g><!--link Dataset to Agent--><g class="link" data-entity-1="ent0002" data-entity-2="ent0003" data-link-type="dependency" data-source-line="33" id="lnk4"><path codeLine="33" d="M601.9526,144.6094 C404.4426,144.6094 50.8526,144.6094 50.8526,144.6094 C50.8526,144.6094 50.8526,519.6694 50.8526,594.0894" fill="none" id="Dataset-to-Agent" style="stroke:#404040;stroke-width:1.2;"/><polygon fill="#404040" points="50.8526,600.0894,54.8526,591.0894,50.8526,595.0894,46.8526,591.0894,50.8526,600.0894" style="stroke:#404040;stroke-width:1.2;"/><text fill="#000000" font-family="sans-serif" font-size="13" lengthAdjust="spacing" textLength="46.9663" x="51.6626" y="141.1045">provider</text><text fill="#000000" font-family="sans-serif" font-size="13" lengthAdjust="spacing" textLength="19.5127" x="58.6186" y="589.1732">0..*</text></g><!--link Dataset to Agent--><g class="link" data-entity-1="ent0002" data-entity-2="ent0003" data-link-type="dependency" data-source-line="36" id="lnk7"><path codeLine="36" d="M601.7226,78.6094 C399.5026,78.6094 32.3526,78.6094 32.3526,78.6094 C32.3526,78.6094 32.3526,513.0694 32.3526,593.9394" fill="none" id="Dataset-to-Agent-1" style="stroke:#404040;stroke-width:1.2;"/><polygon fill="#404040" points="32.3526,599.9394,36.3526,590.9394,32.3526,594.9394,28.3526,590.9394,32.3526,599.9394" style="stroke:#404040;stroke-width:1.2;"/><text fill="#000000" font-family="sans-serif" font-size="13" lengthAdjust="spacing" textLength="40.46" x="15.3726" y="75.1045">creator</text><text fill="#000000" font-family="sans-serif" font-size="13" lengthAdjust="spacing" textLength="19.5127" x="6" y="589.3464">0..*</text></g><!--link Dataset to Agent--><g class="link" data-entity-1="ent0002" data-entity-2="ent0003" data-link-type="dependency" data-source-line="39" id="lnk10"><path codeLine="39" d="M601.8226,111.6094 C401.9426,111.6094 41.6026,111.6094 41.6026,111.6094 C41.6026,111.6094 41.6026,516.1894 41.6026,593.9794" fill="none" id="Dataset-to-Agent-2" style="stroke:#404040;stroke-width:1.2;"/><polygon fill="#404040" points="41.6026,599.9794,45.6026,590.9794,41.6026,594.9794,37.6026,590.9794,41.6026,599.9794" style="stroke:#404040;stroke-width:1.2;"/><text fill="#000000" font-family="sans-serif" font-size="13" lengthAdjust="spacing" textLength="52.7554" x="24.5326" y="108.1045">publisher</text><text fill="#000000" font-family="sans-serif" font-size="13" lengthAdjust="spacing" textLength="21.6836" x="46.0007" y="589.0178">0..1</text></g><!--link Dataset to AbstractDistribution--><g class="link" data-entity-1="ent0002" data-entity-2="ent0005" data-link-type="dependency" data-source-line="35" id="lnk6"><path codeLine="35" d="M601.9126,177.6094 C426.5826,177.6094 135.6026,177.6094 135.6026,177.6094 C135.6026,177.6094 135.6026,522.7394 135.6026,594.0594" fill="none" id="Dataset-to-AbstractDistribution" style="stroke:#404040;stroke-width:1.2;"/><polygon fill="#404040" points="135.6026,600.0594,139.6026,591.0594,135.6026,595.0594,131.6026,591.0594,135.6026,600.0594" style="stroke:#404040;stroke-width:1.2;"/><text fill="#000000" font-family="sans-serif" font-size="13" lengthAdjust="spacing" textLength="62.8672" x="94.5326" y="174.1045">distribution</text><text fill="#000000" font-family="sans-serif" font-size="13" lengthAdjust="spacing" textLength="19.5127" x="112.7816" y="589.1308">0..*</text></g><!--link Dataset to Contributor--><g class="link" data-entity-1="ent0002" data-entity-2="ent0008" data-link-type="dependency" data-source-line="38" id="lnk9"><path codeLine="38" d="M601.7926,210.6094 C457.2226,210.6094 243.6026,210.6094 243.6026,210.6094 C243.6026,210.6094 243.6026,524.8794 243.6026,593.6894" fill="none" id="Dataset-to-Contributor" style="stroke:#404040;stroke-width:1.2;"/><polygon fill="#404040" points="243.6026,599.6894,247.6026,590.6894,243.6026,594.6894,239.6026,590.6894,243.6026,599.6894" style="stroke:#404040;stroke-width:1.2;"/><text fill="#000000" font-family="sans-serif" font-size="13" lengthAdjust="spacing" textLength="61.4199" x="181.6026" y="222.5545">contributor</text><text fill="#000000" font-family="sans-serif" font-size="13" lengthAdjust="spacing" textLength="19.5127" x="221.0096" y="589.2579">0..*</text></g><!--link Dataset to MonetaryGrant--><g class="link" data-entity-1="ent0002" data-entity-2="ent0011" data-link-type="dependency" data-source-line="41" id="lnk12"><path codeLine="41" d="M601.8926,243.6094 C487.7426,243.6094 339.6026,243.6094 339.6026,243.6094 C339.6026,243.6094 339.6026,529.0194 339.6026,593.9094" fill="none" id="Dataset-to-MonetaryGrant" style="stroke:#404040;stroke-width:1.2;"/><polygon fill="#404040" points="339.6026,599.9094,343.6026,590.9094,339.6026,594.9094,335.6026,590.9094,339.6026,599.9094" style="stroke:#404040;stroke-width:1.2;"/><text fill="#000000" font-family="sans-serif" font-size="13" lengthAdjust="spacing" textLength="42.6499" x="296.6026" y="287.1145">funding</text><text fill="#000000" font-family="sans-serif" font-size="13" lengthAdjust="spacing" textLength="19.5127" x="316.9564" y="589.3046">0..*</text></g><!--link Dataset to ProvActivity--><g class="link" data-entity-1="ent0002" data-entity-2="ent0013" data-link-type="dependency" data-source-line="43" id="lnk14"><path codeLine="43" d="M601.7926,276.6094 C523.0326,276.6094 437.6026,276.6094 437.6026,276.6094 C437.6026,276.6094 437.6026,532.4694 437.6026,593.8494" fill="none" id="Dataset-to-ProvActivity" style="stroke:#404040;stroke-width:1.2;"/><polygon fill="#404040" points="437.6026,599.8494,441.6026,590.8494,437.6026,594.8494,433.6026,590.8494,437.6026,599.8494" style="stroke:#404040;stroke-width:1.2;"/><text fill="#000000" font-family="sans-serif" font-size="13" lengthAdjust="spacing" textLength="99.7217" x="337.6026" y="352.6245">wasGeneratedBy</text><text fill="#000000" font-family="sans-serif" font-size="13" lengthAdjust="spacing" textLength="19.5127" x="415.0264" y="589.221">0..*</text></g><!--link Dataset to DerivedFrom--><g class="link" data-entity-1="ent0002" data-entity-2="ent0015" data-link-type="dependency" data-source-line="45" id="lnk16"><path codeLine="45" d="M601.9626,309.6094 C562.6226,309.6094 529.6026,309.6094 529.6026,309.6094 C529.6026,309.6094 529.6026,536.6294 529.6026,593.9794" fill="none" id="Dataset-to-DerivedFrom" style="stroke:#404040;stroke-width:1.2;"/><polygon fill="#404040" points="529.6026,599.9794,533.6026,590.9794,529.6026,594.9794,525.6026,590.9794,529.6026,599.9794" style="stroke:#404040;stroke-width:1.2;"/><text fill="#000000" font-family="sans-serif" font-size="13" lengthAdjust="spacing" textLength="98.2427" x="430.6026" y="415.1145">wasDerivedFrom</text><text fill="#000000" font-family="sans-serif" font-size="13" lengthAdjust="spacing" textLength="19.5127" x="506.7183" y="589.0178">0..*</text></g><!--link Dataset to CatalogRecord--><g class="link" data-entity-1="ent0002" data-entity-2="ent0017" data-link-type="dependency" data-source-line="47" id="lnk18"><path codeLine="47" d="M649.7726,342.8394 C649.7726,442.2194 649.7726,555.5194 649.7726,593.9994" fill="none" id="Dataset-to-CatalogRecord" style="stroke:#404040;stroke-width:1.2;"/><polygon fill="#404040" points="649.7726,599.9994,653.7726,590.9994,649.7726,594.9994,645.7726,590.9994,649.7726,599.9994" style="stroke:#404040;stroke-width:1.2;"/><text fill="#000000" font-family="sans-serif" font-size="13" lengthAdjust="spacing" textLength="54.9136" x="594.7726" y="467.9145">subjectOf</text><text fill="#000000" font-family="sans-serif" font-size="13" lengthAdjust="spacing" textLength="7.23" x="649.2747" y="589.046">1</text></g><!--link CatalogRecord to Dataset--><g class="link" data-entity-1="ent0017" data-entity-2="ent0002" data-link-type="dependency" data-source-line="52" id="lnk23"><path codeLine="52" d="M625.9326,600.0894 C625.9326,561.6994 625.9326,448.2594 625.9326,348.7994" fill="none" id="CatalogRecord-to-Dataset" style="stroke:#404040;stroke-width:1.2;"/><polygon fill="#404040" points="625.9326,342.7994,621.9326,351.7994,625.9326,347.7994,629.9326,351.7994,625.9326,342.7994" style="stroke:#404040;stroke-width:1.2;"/><text fill="#000000" font-family="sans-serif" font-size="13" lengthAdjust="spacing" textLength="32.5317" x="592.9326" y="485.9345">about</text><text fill="#000000" font-family="sans-serif" font-size="13" lengthAdjust="spacing" textLength="21.6836" x="598.9684" y="364.3768">0..1</text></g><!--link Dataset to DefinedTerm--><g class="link" data-entity-1="ent0002" data-entity-2="ent0019" data-link-type="dependency" data-source-line="49" id="lnk20"><path codeLine="49" d="M719.1026,342.8394 C719.1026,442.2194 719.1026,555.5194 719.1026,593.9994" fill="none" id="Dataset-to-DefinedTerm" style="stroke:#404040;stroke-width:1.2;"/><polygon fill="#404040" points="719.1026,599.9994,723.1026,590.9994,719.1026,594.9994,715.1026,590.9994,719.1026,599.9994" style="stroke:#404040;stroke-width:1.2;"/><text fill="#000000" font-family="sans-serif" font-size="13" lengthAdjust="spacing" textLength="54.9072" x="664.1026" y="467.9145">keywords</text><text fill="#000000" font-family="sans-serif" font-size="13" lengthAdjust="spacing" textLength="19.5127" x="691.0597" y="589.046">0..*</text></g><!--link Dataset to DefinedTerm--><g class="link" data-entity-1="ent0002" data-entity-2="ent0019" data-link-type="dependency" data-source-line="55" id="lnk26"><path codeLine="55" d="M744.1026,342.8394 C744.1026,442.2194 744.1026,555.5194 744.1026,593.9994" fill="none" id="Dataset-to-DefinedTerm-1" style="stroke:#404040;stroke-width:1.2;"/><polygon fill="#404040" points="744.1026,599.9994,748.1026,590.9994,744.1026,594.9994,740.1026,590.9994,744.1026,599.9994" style="stroke:#404040;stroke-width:1.2;"/><text fill="#000000" font-family="sans-serif" font-size="13" lengthAdjust="spacing" textLength="84.5571" x="659.1026" y="485.9145">additionalType</text><text fill="#000000" font-family="sans-serif" font-size="13" lengthAdjust="spacing" textLength="19.5127" x="726.3722" y="589.046">0..*</text></g><!--link Dataset to Reference--><g class="link" data-entity-1="ent0002" data-entity-2="ent0021" data-link-type="dependency" data-source-line="51" id="lnk22"><path codeLine="51" d="M813.5026,342.8394 C813.5026,442.2194 813.5026,555.5194 813.5026,593.9994" fill="none" id="Dataset-to-Reference" style="stroke:#404040;stroke-width:1.2;"/><polygon fill="#404040" points="813.5026,599.9994,817.5026,590.9994,813.5026,594.9994,809.5026,590.9994,813.5026,599.9994" style="stroke:#404040;stroke-width:1.2;"/><text fill="#000000" font-family="sans-serif" font-size="13" lengthAdjust="spacing" textLength="40.4663" x="772.5026" y="467.9145">license</text><text fill="#000000" font-family="sans-serif" font-size="13" lengthAdjust="spacing" textLength="19.5127" x="788.098" y="589.046">0..*</text></g><!--link Dataset to Reference--><g class="link" data-entity-1="ent0002" data-entity-2="ent0021" data-link-type="dependency" data-source-line="63" id="lnk34"><path codeLine="63" d="M801.3026,342.8394 C801.3026,442.2194 801.3026,555.5194 801.3026,593.9994" fill="none" id="Dataset-to-Reference-1" style="stroke:#404040;stroke-width:1.2;"/><polygon fill="#404040" points="801.3026,599.9994,805.3026,590.9994,801.3026,594.9994,797.3026,590.9994,801.3026,599.9994" style="stroke:#404040;stroke-width:1.2;"/><text fill="#000000" font-family="sans-serif" font-size="13" lengthAdjust="spacing" textLength="114.1626" x="802.3026" y="485.9145">conditionsOfAccess</text><text fill="#000000" font-family="sans-serif" font-size="13" lengthAdjust="spacing" textLength="19.5127" x="770.8655" y="589.046">0..*</text></g><!--link Dataset to Reference--><g class="link" data-entity-1="ent0002" data-entity-2="ent0021" data-link-type="dependency" data-source-line="64" id="lnk35"><path codeLine="64" d="M825.7026,342.8394 C825.7026,442.2194 825.7026,555.5194 825.7026,593.9994" fill="none" id="Dataset-to-Reference-2" style="stroke:#404040;stroke-width:1.2;"/><polygon fill="#404040" points="825.7026,599.9994,829.7026,590.9994,825.7026,594.9994,821.7026,590.9994,825.7026,599.9994" style="stroke:#404040;stroke-width:1.2;"/><text fill="#000000" font-family="sans-serif" font-size="13" lengthAdjust="spacing" textLength="114.8989" x="826.7026" y="467.9145">publishingPrinciples</text><text fill="#000000" font-family="sans-serif" font-size="13" lengthAdjust="spacing" textLength="19.5127" x="832.168" y="589.046">0..*</text></g><!--link Dataset to Reference--><g class="link" data-entity-1="ent0002" data-entity-2="ent0021" data-link-type="dependency" data-source-line="65" id="lnk36"><path codeLine="65" d="M837.9026,342.8394 C837.9026,442.2194 837.9026,555.5194 837.9026,593.9994" fill="none" id="Dataset-to-Reference-3" style="stroke:#404040;stroke-width:1.2;"/><polygon fill="#404040" points="837.9026,599.9994,841.9026,590.9994,837.9026,594.9994,833.9026,590.9994,837.9026,599.9994" style="stroke:#404040;stroke-width:1.2;"/><text fill="#000000" font-family="sans-serif" font-size="13" lengthAdjust="spacing" textLength="63.5972" x="773.9026" y="485.9145">relatedLink</text><text fill="#000000" font-family="sans-serif" font-size="13" lengthAdjust="spacing" textLength="19.5127" x="849.4005" y="589.046">0..*</text></g><!--link Dataset to Identifier--><g class="link" data-entity-1="ent0002" data-entity-2="ent0024" data-link-type="dependency" data-source-line="54" id="lnk25"><path codeLine="54" d="M852.8526,342.8194 C852.8526,464.8494 852.8526,617.6094 852.8526,617.6094 C852.8526,617.6094 855.0826,617.6094 864.3926,617.6094" fill="none" id="Dataset-to-Identifier" style="stroke:#404040;stroke-width:1.2;"/><polygon fill="#404040" points="870.3926,617.6094,861.3926,613.6094,865.3926,617.6094,861.3926,621.6094,870.3926,617.6094" style="stroke:#404040;stroke-width:1.2;"/><text fill="#000000" font-family="sans-serif" font-size="13" lengthAdjust="spacing" textLength="49.1372" x="802.8526" y="503.4845">identifier</text><text fill="#000000" font-family="sans-serif" font-size="13" lengthAdjust="spacing" textLength="7.23" x="855.4356" y="614.3329">1</text></g><!--link Dataset to Identifier--><g class="link" data-entity-1="ent0002" data-entity-2="ent0024" data-link-type="dependency" data-source-line="56" id="lnk27"><path codeLine="56" d="M855.6026,342.8794 C855.6026,461.7594 855.6026,608.6094 855.6026,608.6094 C855.6026,608.6094 856.3726,608.6094 864.4026,608.6094" fill="none" id="Dataset-to-Identifier-1" style="stroke:#404040;stroke-width:1.2;"/><polygon fill="#404040" points="870.4026,608.6094,861.4026,604.6094,865.4026,608.6094,861.4026,612.6094,870.4026,608.6094" style="stroke:#404040;stroke-width:1.2;"/><text fill="#000000" font-family="sans-serif" font-size="13" lengthAdjust="spacing" textLength="46.96" x="856.6026" y="497.6345">sameAs</text><text fill="#000000" font-family="sans-serif" font-size="13" lengthAdjust="spacing" textLength="19.5127" x="843.2782" y="625.4149">0..*</text></g><!--link Dataset to XsdLanguage--><g class="link" data-entity-1="ent0002" data-entity-2="ent0028" data-link-type="dependency" data-source-line="58" id="lnk29"><path codeLine="58" d="M858.3526,342.8394 C858.3526,457.4994 858.3526,596.6094 858.3526,596.6094 C858.3526,596.6094 899.9826,596.6094 936.2626,596.6094" fill="none" id="Dataset-to-XsdLanguage" style="stroke:#404040;stroke-width:1.2;stroke-dasharray:7,7;"/><polygon fill="#404040" points="942.2626,596.6094,933.2626,592.6094,937.2626,596.6094,933.2626,600.6094,942.2626,596.6094" style="stroke:#404040;stroke-width:1.2;"/><text fill="#000000" font-family="sans-serif" font-size="13" lengthAdjust="spacing" textLength="67.958" x="790.3526" y="526.1745">inLanguage</text></g><!--link Dataset to XsdDate--><g class="link" data-entity-1="ent0002" data-entity-2="ent0030" data-link-type="dependency" data-source-line="60" id="lnk31"><path codeLine="60" d="M861.1626,243.6094 C958.6826,243.6094 1075.6026,243.6094 1075.6026,243.6094 C1075.6026,243.6094 1075.6026,509.5094 1075.6026,586.5094" fill="none" id="Dataset-to-XsdDate" style="stroke:#404040;stroke-width:1.2;stroke-dasharray:7,7;"/><polygon fill="#404040" points="1075.6026,592.5094,1079.6026,583.5094,1075.6026,587.5094,1071.6026,583.5094,1075.6026,592.5094" style="stroke:#404040;stroke-width:1.2;"/><text fill="#000000" font-family="sans-serif" font-size="13" lengthAdjust="spacing" textLength="74.439" x="1000.6026" y="307.3345">dateModified</text></g><!--link Dataset to XsdAnyUri--><g class="link" data-entity-1="ent0002" data-entity-2="ent0032" data-link-type="dependency" data-source-line="62" id="lnk33"><path codeLine="62" d="M861.1926,144.6094 C987.4826,144.6094 1160.6026,144.6094 1160.6026,144.6094 C1160.6026,144.6094 1160.6026,496.9194 1160.6026,586.4994" fill="none" id="Dataset-to-XsdAnyUri" style="stroke:#404040;stroke-width:1.2;stroke-dasharray:7,7;"/><polygon fill="#404040" points="1160.6026,592.4994,1164.6026,583.4994,1160.6026,587.4994,1156.6026,583.4994,1160.6026,592.4994" style="stroke:#404040;stroke-width:1.2;"/><text fill="#000000" font-family="sans-serif" font-size="13" lengthAdjust="spacing" textLength="14.4473" x="1145.6026" y="215.3445">url</text></g><?plantuml-src ZLLTQzim57tthn3fsyP2qwqlfWJS9Yc5bfQkWy7OWo9V9rfioKXoWZVwttSbVycjupHviUuzElT3LqU6cnJ8WXggmGHR7WDXNB4Kgc_8SbEI3B8rA1te7HSvLJGZUajZUU1YGnAQQl0yaLBoyBBbR2T0QpARNdXEHSLEGqukBiyzgv0nEAjlJBa0K-P0f39RwJbOIf7tNq2gK3SobOgSVJktVpHUInM3UcjTIM6-yxz0PXV1Qn1K79Ewx0cXkca1ELijLykRfGlm6LiW34yuA1AIksxnQ_RRkWND01tQADk9seYrCCLpmwNmVEVJQUMcSSojZwOljhgGB231KkCNK9c3VN8mZTIHVXErzUxnD8xmSt5FnQQW6ylzKyVjgeF4rC23Z2rfN86mU6Zpn--dOfrolUsxs_s5IYjx9CeVYdkUb3CGsaP-XWGK20PUraoAgdRzc4ICsV4O1kPLU2pi2QjZF4_X67G7vG5FN1zjf88Kiu_lkTWDKRm6T8qzfCpKWpM9DjXmDnBkYvmjtIze1kJBbpcPsCsJ6X2INCazZefwprMl5zoUqxgmnLVK0uxHI4FuaCJUSYn1fe0QgPgvly7RuBP9vRBnrcD9-33ax5Rlm3ElD_KejS4V95vigifR58EgpptBM09zO4YI0WTAR1hc9po6Y1c-vwPqnBvXZBU72yc1wbiGeEpSN9UjM83YUuXNIcQLO7JhCMuVvgWzGtiUk2sLcsTWEChLYVYMONhiSH-5Ob2i_m0pZqcNStibwfoxApAQSmSBINF56jBs3ZdAxaQD47QWaDGQ4VIJzoQdsHyIkfQ5QS9sGkZYUhfuh3rtldftKdwwuhv63-5xr9LMDtbwckiIzJNuwWhLbLhI-HnVccXvkVZQqa-dynuOSswrt2EtOjmGEs7-2Aa3ebvuokzHLZhUaDQg_X7Q6XeIV19EdVjxzJ-rO-WPEBN7a_lWFm00?></g></svg>