<svg xmlns="http://www.w3.org/2000/svg" xmlns:xlink="http://www.w3.org/1999/xlink" contentStyleType="text/css" data-diagram-type="CLASS" height="474px" preserveAspectRatio="none" style="width:2220px;height:474px;background:#FFFFFF;" version="1.1" viewBox="0 0 2220 474" width="2220px" zoomAndPan="magnify"><?plantuml 1.2026.3?><defs/><g><g class="title" data-source-line="1"><text fill="#000000" font-family="sans-serif" font-size="14" font-weight="700" lengthAdjust="spacing" textLength="50.5791" x="1081.4009" y="24.5332">Dataset</text></g><!--class Dataset--><g class="entity" data-qualified-name="Dataset" data-source-line="12" id="ent0002"><rect fill="#FEFECE" height="297.2344" rx="2.5" ry="2.5" style="stroke:#404040;stroke-width:0.5;" width="258.6816" x="918" y="45.6094"/><text fill="#000000" font-family="sans-serif" font-size="12" lengthAdjust="spacing" textLength="41.3555" x="1026.6631" y="63.0664">Dataset</text><line style="stroke:#404040;stroke-width:0.5;" x1="919" x2="1175.6816" y1="70.7031" y2="70.7031"/><g data-visibility-modifier="PUBLIC_FIELD"><ellipse cx="929" cy="85.0078" fill="none" rx="3" ry="3" style="stroke:#038048;stroke-width:1;"/></g><text fill="#000000" font-family="sans-serif" font-size="14" lengthAdjust="spacing" textLength="137.7373" x="938" y="89.2363">identifier : Identifier [1]</text><g data-visibility-modifier="PUBLIC_FIELD"><ellipse cx="929" cy="102.6172" fill="none" rx="3" ry="3" style="stroke:#038048;stroke-width:1;"/></g><text fill="#000000" font-family="sans-serif" font-size="14" lengthAdjust="spacing" textLength="100.3789" x="938" y="106.8457">name : string [1]</text><g data-visibility-modifier="PUBLIC_FIELD"><ellipse cx="929" cy="120.2266" fill="none" rx="3" ry="3" style="stroke:#038048;stroke-width:1;"/></g><text fill="#000000" font-family="sans-serif" font-size="14" lengthAdjust="spacing" textLength="148.627" x="938" y="124.4551">description : string [0..1]</text><g data-visibility-modifier="PUBLIC_FIELD"><ellipse cx="929" cy="137.8359" fill="none" rx="3" ry="3" style="stroke:#038048;stroke-width:1;"/></g><text fill="#000000" font-family="sans-serif" font-size="14" lengthAdjust="spacing" textLength="216.3301" x="938" y="142.0645">additionalType : DefinedTerm [0..*]</text><g data-visibility-modifier="PUBLIC_FIELD"><ellipse cx="929" cy="155.4453" fill="none" rx="3" ry="3" style="stroke:#038048;stroke-width:1;"/></g><text fill="#000000" font-family="sans-serif" font-size="14" lengthAdjust="spacing" textLength="148.6201" x="938" y="159.6738">sameAs : Identifier [0..*]</text><g data-visibility-modifier="PUBLIC_FIELD"><ellipse cx="929" cy="173.0547" fill="none" rx="3" ry="3" style="stroke:#038048;stroke-width:1;"/></g><text fill="#000000" font-family="sans-serif" font-size="14" lengthAdjust="spacing" textLength="126.0547" x="938" y="177.2832">version : string [0..1]</text><g data-visibility-modifier="PUBLIC_FIELD"><ellipse cx="929" cy="190.6641" fill="none" rx="3" ry="3" style="stroke:#038048;stroke-width:1;"/></g><text fill="#000000" font-family="sans-serif" font-size="14" lengthAdjust="spacing" textLength="206.2881" x="938" y="194.8926">inLanguage : XsdLanguage [0..1]</text><g data-visibility-modifier="PUBLIC_FIELD"><ellipse cx="929" cy="208.2734" fill="none" rx="3" ry="3" style="stroke:#038048;stroke-width:1;"/></g><text fill="#000000" font-family="sans-serif" font-size="14" lengthAdjust="spacing" textLength="164.9854" x="938" y="212.502">dateModified : XsdDate [1]</text><g data-visibility-modifier="PUBLIC_FIELD"><ellipse cx="929" cy="225.8828" fill="none" rx="3" ry="3" style="stroke:#038048;stroke-width:1;"/></g><text fill="#000000" font-family="sans-serif" font-size="14" lengthAdjust="spacing" textLength="189.123" x="938" y="230.1113">datePublished : XsdDate [0..1]</text><g data-visibility-modifier="PUBLIC_FIELD"><ellipse cx="929" cy="243.4922" fill="none" rx="3" ry="3" style="stroke:#038048;stroke-width:1;"/></g><text fill="#000000" font-family="sans-serif" font-size="14" lengthAdjust="spacing" textLength="128.3789" x="938" y="247.7207">url : XsdAnyUri [0..1]</text><g data-visibility-modifier="PUBLIC_FIELD"><ellipse cx="929" cy="261.1016" fill="none" rx="3" ry="3" style="stroke:#038048;stroke-width:1;"/></g><text fill="#000000" font-family="sans-serif" font-size="14" lengthAdjust="spacing" textLength="152.5234" x="938" y="265.3301">license : Reference [0..*]</text><g data-visibility-modifier="PUBLIC_FIELD"><ellipse cx="929" cy="278.7109" fill="none" rx="3" ry="3" style="stroke:#038048;stroke-width:1;"/></g><text fill="#000000" font-family="sans-serif" font-size="14" lengthAdjust="spacing" textLength="231.8887" x="938" y="282.9395">conditionsOfAccess : Reference [0..*]</text><g data-visibility-modifier="PUBLIC_FIELD"><ellipse cx="929" cy="296.3203" fill="none" rx="3" ry="3" style="stroke:#038048;stroke-width:1;"/></g><text fill="#000000" font-family="sans-serif" font-size="14" lengthAdjust="spacing" textLength="232.6816" x="938" y="300.5488">publishingPrinciples : Reference [0..*]</text><g data-visibility-modifier="PUBLIC_FIELD"><ellipse cx="929" cy="313.9297" fill="none" rx="3" ry="3" style="stroke:#038048;stroke-width:1;"/></g><text fill="#000000" font-family="sans-serif" font-size="14" lengthAdjust="spacing" textLength="184.3994" x="938" y="318.1582">keywords : DefinedTerm [0..*]</text><g data-visibility-modifier="PUBLIC_FIELD"><ellipse cx="929" cy="331.5391" fill="none" rx="3" ry="3" style="stroke:#038048;stroke-width:1;"/></g><text fill="#000000" font-family="sans-serif" font-size="14" lengthAdjust="spacing" textLength="177.4336" x="938" y="335.7676">relatedLink : Reference [0..*]</text></g><!--class ProvActivity--><g class="entity" data-qualified-name="ProvActivity" data-source-line="29" id="ent0003"><rect fill="#EEEEEE" height="25.0938" rx="2.5" ry="2.5" style="stroke:#404040;stroke-width:0.5;" width="68.6777" x="7" y="428.1094"/><text fill="#000000" font-family="sans-serif" font-size="12" lengthAdjust="spacing" textLength="62.6777" x="10" y="445.5664">ProvActivity</text></g><!--class Agent--><g class="entity" data-qualified-name="Agent" data-source-line="31" id="ent0005"><rect fill="#EEEEEE" height="25.0938" rx="2.5" ry="2.5" style="stroke:#404040;stroke-width:0.5;" width="37.3594" x="252" y="428.1094"/><text fill="#000000" font-family="sans-serif" font-size="12" font-style="italic" lengthAdjust="spacing" textLength="31.3594" x="255" y="445.5664">Agent</text></g><!--class AbstractDistribution--><g class="entity" data-qualified-name="AbstractDistribution" data-source-line="33" id="ent0007"><rect fill="#EEEEEE" height="25.0938" rx="2.5" ry="2.5" style="stroke:#404040;stroke-width:0.5;" width="110.0391" x="368.5" y="428.1094"/><text fill="#000000" font-family="sans-serif" font-size="12" font-style="italic" lengthAdjust="spacing" textLength="104.0391" x="371.5" y="445.5664">AbstractDistribution</text></g><!--class Contributor--><g class="entity" data-qualified-name="Contributor" data-source-line="36" id="ent0010"><rect fill="#EEEEEE" height="25.0938" rx="2.5" ry="2.5" style="stroke:#404040;stroke-width:0.5;" width="65.3613" x="514" y="428.1094"/><text fill="#000000" font-family="sans-serif" font-size="12" lengthAdjust="spacing" textLength="59.3613" x="517" y="445.5664">Contributor</text></g><!--class MonetaryGrant--><g class="entity" data-qualified-name="MonetaryGrant" data-source-line="39" id="ent0013"><rect fill="#EEEEEE" height="25.0938" rx="2.5" ry="2.5" style="stroke:#404040;stroke-width:0.5;" width="86.0332" x="614.5" y="428.1094"/><text fill="#000000" font-family="sans-serif" font-size="12" lengthAdjust="spacing" textLength="80.0332" x="617.5" y="445.5664">MonetaryGrant</text></g><!--class DerivedFrom--><g class="entity" data-qualified-name="DerivedFrom" data-source-line="41" id="ent0015"><rect fill="#EEEEEE" height="25.0938" rx="2.5" ry="2.5" style="stroke:#404040;stroke-width:0.5;" width="75.3457" x="736" y="428.1094"/><text fill="#000000" font-family="sans-serif" font-size="12" lengthAdjust="spacing" textLength="69.3457" x="739" y="445.5664">DerivedFrom</text></g><!--class CatalogRecord--><g class="entity" data-qualified-name="CatalogRecord" data-source-line="43" id="ent0017"><rect fill="#EEEEEE" height="25.0938" rx="2.5" ry="2.5" style="stroke:#404040;stroke-width:0.5;" width="86.0449" x="897.5" y="428.1094"/><text fill="#000000" font-family="sans-serif" font-size="12" lengthAdjust="spacing" textLength="80.0449" x="900.5" y="445.5664">CatalogRecord</text></g><!--class DefinedTerm--><g class="entity" data-qualified-name="DefinedTerm" data-source-line="45" id="ent0019"><rect fill="#EEEEEE" height="25.0938" rx="2.5" ry="2.5" style="stroke:#404040;stroke-width:0.5;" width="75.3574" x="1042" y="428.1094"/><text fill="#000000" font-family="sans-serif" font-size="12" lengthAdjust="spacing" textLength="69.3574" x="1045" y="445.5664">DefinedTerm</text></g><!--class Reference--><g class="entity" data-qualified-name="Reference" data-source-line="47" id="ent0021"><rect fill="#EEEEEE" height="25.0938" rx="2.5" ry="2.5" style="stroke:#404040;stroke-width:0.5;" width="61.3652" x="1399" y="428.1094"/><text fill="#000000" font-family="sans-serif" font-size="12" lengthAdjust="spacing" textLength="55.3652" x="1402" y="445.5664">Reference</text></g><!--class Identifier--><g class="entity" data-qualified-name="Identifier" data-source-line="50" id="ent0024"><rect fill="#EEEEEE" height="25.0938" rx="2.5" ry="2.5" style="stroke:#404040;stroke-width:0.5;" width="52.0254" x="1781.5" y="428.1094"/><text fill="#000000" font-family="sans-serif" font-size="12" lengthAdjust="spacing" textLength="46.0254" x="1784.5" y="445.5664">Identifier</text></g><!--class XsdLanguage--><g class="entity" data-qualified-name="XsdLanguage" data-source-line="54" id="ent0028"><rect fill="#FAE5D3" height="40.1875" rx="2.5" ry="2.5" style="stroke:#404040;stroke-width:0.5;" width="80.0684" x="1907.5" y="420.6094"/><text fill="#000000" font-family="sans-serif" font-size="12" font-style="italic" lengthAdjust="spacing" textLength="63.3809" x="1915.8438" y="438.0664">&#171;dataType&#187;</text><text fill="#000000" font-family="sans-serif" font-size="12" lengthAdjust="spacing" textLength="74.0684" x="1910.5" y="453.1602">XsdLanguage</text></g><!--class XsdDate--><g class="entity" data-qualified-name="XsdDate" data-source-line="56" id="ent0030"><rect fill="#FAE5D3" height="40.1875" rx="2.5" ry="2.5" style="stroke:#404040;stroke-width:0.5;" width="65.3809" x="2024" y="420.6094"/><text fill="#000000" font-family="sans-serif" font-size="12" font-style="italic" lengthAdjust="spacing" textLength="63.3809" x="2025" y="438.0664">&#171;dataType&#187;</text><text fill="#000000" font-family="sans-serif" font-size="12" lengthAdjust="spacing" textLength="46.0254" x="2033.6777" y="453.1602">XsdDate</text></g><!--class XsdAnyUri--><g class="entity" data-qualified-name="XsdAnyUri" data-source-line="58" id="ent0032"><rect fill="#FAE5D3" height="40.1875" rx="2.5" ry="2.5" style="stroke:#404040;stroke-width:0.5;" width="65.3809" x="2140" y="420.6094"/><text fill="#000000" font-family="sans-serif" font-size="12" font-style="italic" lengthAdjust="spacing" textLength="63.3809" x="2141" y="438.0664">&#171;dataType&#187;</text><text fill="#000000" font-family="sans-serif" font-size="12" lengthAdjust="spacing" textLength="56.6836" x="2144.3486" y="453.1602">XsdAnyUri</text></g><!--reverse link Dataset to ProvActivity--><g class="link" data-entity-1="ent0002" data-entity-2="ent0003" data-link-type="composition" data-source-line="30" id="lnk4"><path codeLine="30" d="M905.8885,203.5154 C669.3585,219.8354 192.4,265.1094 65.5,372.6094 C49,386.5894 43.84,412.7594 42.23,427.9294" fill="none" id="Dataset-backto-ProvActivity" style="stroke:#404040;stroke-width:1.2;"/><polygon fill="#404040" points="917.86,202.6894,911.5989,199.1119,905.8885,203.5154,912.1496,207.0929,917.86,202.6894" style="stroke:#404040;stroke-width:1.2;"/><text fill="#000000" font-family="sans-serif" font-size="13" lengthAdjust="spacing" textLength="99.7217" x="66.5" y="387.1045">wasGeneratedBy</text><text fill="#000000" font-family="sans-serif" font-size="13" lengthAdjust="spacing" textLength="19.5127" x="19.9412" y="417.3325">0..*</text></g><!--link Dataset to Agent--><g class="link" data-entity-1="ent0002" data-entity-2="ent0005" data-link-type="dependency" data-source-line="32" id="lnk6"><path codeLine="32" d="M917.84,202.1694 C699.02,217.0894 271.23,260.2294 179.5,372.6094 C155.68,401.7894 213.0239,423.196 246.0639,432.916" fill="none" id="Dataset-to-Agent" style="stroke:#404040;stroke-width:1.2;"/><polygon fill="#404040" points="251.82,434.6094,244.3148,428.2319,247.0233,433.1982,242.057,435.9067,251.82,434.6094" style="stroke:#404040;stroke-width:1.2;"/><text fill="#000000" font-family="sans-serif" font-size="13" lengthAdjust="spacing" textLength="46.9663" x="180.5" y="387.1045">provider</text><text fill="#000000" font-family="sans-serif" font-size="13" lengthAdjust="spacing" textLength="19.5127" x="224.5646" y="428.0299">0..*</text></g><!--link Dataset to Agent--><g class="link" data-entity-1="ent0002" data-entity-2="ent0005" data-link-type="dependency" data-source-line="35" id="lnk9"><path codeLine="35" d="M917.65,205.4794 C717.28,224.4794 347.41,272.4694 267.5,372.6094 C254.94,388.3494 258.7471,407.753 263.8271,422.343" fill="none" id="Dataset-to-Agent-1" style="stroke:#404040;stroke-width:1.2;"/><polygon fill="#404040" points="265.8,428.0094,266.6182,418.1946,264.1559,423.2874,259.063,420.8251,265.8,428.0094" style="stroke:#404040;stroke-width:1.2;"/><text fill="#000000" font-family="sans-serif" font-size="13" lengthAdjust="spacing" textLength="40.46" x="268.5" y="387.1045">creator</text><text fill="#000000" font-family="sans-serif" font-size="13" lengthAdjust="spacing" textLength="19.5127" x="267.8116" y="417.0602">0..*</text></g><!--link Dataset to Agent--><g class="link" data-entity-1="ent0002" data-entity-2="ent0005" data-link-type="dependency" data-source-line="38" id="lnk12"><path codeLine="38" d="M917.8,228.0494 C792.42,260.9394 597.71,314.8094 432.5,372.6094 C379.64,391.0994 324.5516,415.1673 294.6616,428.6173" fill="none" id="Dataset-to-Agent-2" style="stroke:#404040;stroke-width:1.2;"/><polygon fill="#404040" points="289.19,431.0794,299.0388,431.0339,293.7496,429.0276,295.7559,423.7385,289.19,431.0794" style="stroke:#404040;stroke-width:1.2;"/><text fill="#000000" font-family="sans-serif" font-size="13" lengthAdjust="spacing" textLength="52.7554" x="433.5" y="387.1045">publisher</text><text fill="#000000" font-family="sans-serif" font-size="13" lengthAdjust="spacing" textLength="21.6836" x="297.4453" y="423.6804">0..1</text></g><!--link Dataset to AbstractDistribution--><g class="link" data-entity-1="ent0002" data-entity-2="ent0007" data-link-type="dependency" data-source-line="34" id="lnk8"><path codeLine="34" d="M917.91,229.5094 C810.29,260.3494 654.66,310.2994 526.5,372.6094 C493.5,388.6494 463.1653,409.7999 443.6453,424.3099" fill="none" id="Dataset-to-AbstractDistribution" style="stroke:#404040;stroke-width:1.2;"/><polygon fill="#404040" points="438.83,427.8894,448.4393,425.7304,442.8428,424.9065,443.6667,419.31,438.83,427.8894" style="stroke:#404040;stroke-width:1.2;"/><text fill="#000000" font-family="sans-serif" font-size="13" lengthAdjust="spacing" textLength="62.8672" x="527.5" y="387.1045">distribution</text><text fill="#000000" font-family="sans-serif" font-size="13" lengthAdjust="spacing" textLength="19.5127" x="422.2188" y="417.2767">0..*</text></g><!--link Dataset to Contributor--><g class="link" data-entity-1="ent0002" data-entity-2="ent0010" data-link-type="dependency" data-source-line="37" id="lnk11"><path codeLine="37" d="M917.58,236.8494 C830.55,267.7594 715.37,314.5094 622.5,372.6094 C596.85,388.6594 575.5229,409.0685 561.5529,423.5685" fill="none" id="Dataset-to-Contributor" style="stroke:#404040;stroke-width:1.2;"/><polygon fill="#404040" points="557.39,427.8894,566.515,424.1834,560.8591,424.2886,560.7538,418.6328,557.39,427.8894" style="stroke:#404040;stroke-width:1.2;"/><text fill="#000000" font-family="sans-serif" font-size="13" lengthAdjust="spacing" textLength="61.4199" x="623.5" y="387.1045">contributor</text><text fill="#000000" font-family="sans-serif" font-size="13" lengthAdjust="spacing" textLength="19.5127" x="538.9671" y="417.2767">0..*</text></g><!--link Dataset to MonetaryGrant--><g class="link" data-entity-1="ent0002" data-entity-2="ent0013" data-link-type="dependency" data-source-line="40" id="lnk14"><path codeLine="40" d="M917.99,247.2294 C851.49,277.7694 771.62,320.5894 709.5,372.6094 C690.08,388.8694 676.4374,408.4273 667.5074,422.8573" fill="none" id="Dataset-to-MonetaryGrant" style="stroke:#404040;stroke-width:1.2;"/><polygon fill="#404040" points="664.35,427.9594,672.4875,422.4112,666.9812,423.7077,665.6847,418.2014,664.35,427.9594" style="stroke:#404040;stroke-width:1.2;"/><text fill="#000000" font-family="sans-serif" font-size="13" lengthAdjust="spacing" textLength="42.6499" x="710.5" y="387.1045">funding</text><text fill="#000000" font-family="sans-serif" font-size="13" lengthAdjust="spacing" textLength="19.5127" x="644.401" y="417.3743">0..*</text></g><!--link Dataset to DerivedFrom--><g class="link" data-entity-1="ent0002" data-entity-2="ent0015" data-link-type="dependency" data-source-line="42" id="lnk16"><path codeLine="42" d="M917.67,242.6894 C860.2,271.0094 798.29,313.2294 765.5,372.6094 C755.87,390.0394 760.344,408.2936 765.924,422.3336" fill="none" id="Dataset-to-DerivedFrom" style="stroke:#404040;stroke-width:1.2;"/><polygon fill="#404040" points="768.14,427.9094,768.5332,418.0684,766.2933,423.2629,761.0988,421.0231,768.14,427.9094" style="stroke:#404040;stroke-width:1.2;"/><text fill="#000000" font-family="sans-serif" font-size="13" lengthAdjust="spacing" textLength="98.2427" x="766.5" y="387.1045">wasDerivedFrom</text><text fill="#000000" font-family="sans-serif" font-size="13" lengthAdjust="spacing" textLength="19.5127" x="743.3218" y="417.3046">0..*</text></g><!--link Dataset to CatalogRecord--><g class="link" data-entity-1="ent0002" data-entity-2="ent0017" data-link-type="dependency" data-source-line="44" id="lnk18"><path codeLine="44" d="M917.98,303.0794 C900.25,324.1794 884.67,347.5994 874.5,372.6094 C864.84,396.3594 886.5417,413.3826 908.8817,425.1526" fill="none" id="Dataset-to-CatalogRecord" style="stroke:#404040;stroke-width:1.2;"/><polygon fill="#404040" points="914.19,427.9494,908.092,420.2154,909.7664,425.6188,904.363,427.2932,914.19,427.9494" style="stroke:#404040;stroke-width:1.2;"/><text fill="#000000" font-family="sans-serif" font-size="13" lengthAdjust="spacing" textLength="54.9136" x="875.5" y="387.1045">subjectOf</text><text fill="#000000" font-family="sans-serif" font-size="13" lengthAdjust="spacing" textLength="7.23" x="895.4887" y="417.3604">1</text></g><!--link CatalogRecord to Dataset--><g class="link" data-entity-1="ent0017" data-entity-2="ent0002" data-link-type="dependency" data-source-line="49" id="lnk23"><path codeLine="49" d="M945.54,428.0894 C952.85,411.3894 964.8246,384.0261 980.5346,348.1261" fill="none" id="CatalogRecord-to-Dataset" style="stroke:#404040;stroke-width:1.2;"/><polygon fill="#404040" points="982.94,342.6294,975.6674,349.2709,980.9355,347.21,982.9964,352.4781,982.94,342.6294" style="stroke:#404040;stroke-width:1.2;"/><text fill="#000000" font-family="sans-serif" font-size="13" lengthAdjust="spacing" textLength="32.5317" x="970.5" y="387.1045">about</text><text fill="#000000" font-family="sans-serif" font-size="13" lengthAdjust="spacing" textLength="21.6836" x="958.0956" y="364.1981">0..1</text></g><!--link Dataset to DefinedTerm--><g class="link" data-entity-1="ent0002" data-entity-2="ent0019" data-link-type="dependency" data-source-line="46" id="lnk20"><path codeLine="46" d="M1035,342.6194 C1036.62,359.0394 1039.61,375.3394 1044.5,390.6094 C1049.09,404.9494 1055.5802,414.196 1063.8902,423.446" fill="none" id="Dataset-to-DefinedTerm" style="stroke:#404040;stroke-width:1.2;"/><polygon fill="#404040" points="1067.9,427.9094,1064.8609,418.5411,1064.5585,424.1899,1058.9097,423.8875,1067.9,427.9094" style="stroke:#404040;stroke-width:1.2;"/><text fill="#000000" font-family="sans-serif" font-size="13" lengthAdjust="spacing" textLength="54.9072" x="1045.5" y="387.1045">keywords</text><text fill="#000000" font-family="sans-serif" font-size="13" lengthAdjust="spacing" textLength="19.5127" x="1040.6224" y="417.3046">0..*</text></g><!--link Dataset to DefinedTerm--><g class="link" data-entity-1="ent0002" data-entity-2="ent0019" data-link-type="dependency" data-source-line="52" id="lnk26"><path codeLine="52" d="M1098.71,342.9494 C1101,352.9094 1102.97,362.8594 1104.5,372.6094 C1105.74,380.5094 1106.37,382.8294 1104.5,390.6094 C1101.24,404.1694 1096.7581,413.1165 1090.7681,422.6665" fill="none" id="Dataset-to-DefinedTerm-1" style="stroke:#404040;stroke-width:1.2;"/><polygon fill="#404040" points="1087.58,427.7494,1095.7508,422.2504,1090.2368,423.5136,1088.9736,417.9996,1087.58,427.7494" style="stroke:#404040;stroke-width:1.2;"/><text fill="#000000" font-family="sans-serif" font-size="13" lengthAdjust="spacing" textLength="84.5571" x="1107.5" y="387.1045">additionalType</text><text fill="#000000" font-family="sans-serif" font-size="13" lengthAdjust="spacing" textLength="19.5127" x="1068.0682" y="417.3408">0..*</text></g><!--link Dataset to Reference--><g class="link" data-entity-1="ent0002" data-entity-2="ent0021" data-link-type="dependency" data-source-line="48" id="lnk22"><path codeLine="48" d="M1177.03,327.1494 C1204.89,350.6694 1235.37,373.1794 1266.5,390.6094 C1309.17,414.4994 1358.8983,426.8444 1392.8983,433.3944" fill="none" id="Dataset-to-Reference" style="stroke:#404040;stroke-width:1.2;"/><polygon fill="#404040" points="1398.79,434.5294,1390.7092,428.8991,1393.8803,433.5835,1389.1958,436.7546,1398.79,434.5294" style="stroke:#404040;stroke-width:1.2;"/><text fill="#000000" font-family="sans-serif" font-size="13" lengthAdjust="spacing" textLength="40.4663" x="1267.5" y="387.1045">license</text><text fill="#000000" font-family="sans-serif" font-size="13" lengthAdjust="spacing" textLength="19.5127" x="1371.5119" y="429.1471">0..*</text></g><!--link Dataset to Reference--><g class="link" data-entity-1="ent0002" data-entity-2="ent0021" data-link-type="dependency" data-source-line="60" id="lnk34"><path codeLine="60" d="M1177.3,280.7094 C1230.16,315.2294 1292.01,355.1894 1348.5,390.6094 C1369.39,403.7094 1388.4565,415.2067 1404.9265,425.0267" fill="none" id="Dataset-to-Reference-1" style="stroke:#404040;stroke-width:1.2;"/><polygon fill="#404040" points="1410.08,428.0994,1404.3982,420.0547,1405.7854,425.5388,1400.3013,426.926,1410.08,428.0994" style="stroke:#404040;stroke-width:1.2;"/><text fill="#000000" font-family="sans-serif" font-size="13" lengthAdjust="spacing" textLength="114.1626" x="1349.5" y="387.1045">conditionsOfAccess</text><text fill="#000000" font-family="sans-serif" font-size="13" lengthAdjust="spacing" textLength="19.5127" x="1406.0184" y="417.1873">0..*</text></g><!--link Dataset to Reference--><g class="link" data-entity-1="ent0002" data-entity-2="ent0021" data-link-type="dependency" data-source-line="61" id="lnk35"><path codeLine="61" d="M1177.16,211.5594 C1275.44,231.5794 1404.19,275.6994 1468.5,372.6094 C1481,391.4494 1464.842,410.4989 1449.132,424.0589" fill="none" id="Dataset-to-Reference-2" style="stroke:#404040;stroke-width:1.2;"/><polygon fill="#404040" points="1444.59,427.9794,1454.0167,425.1267,1448.375,424.7123,1448.7894,419.0707,1444.59,427.9794" style="stroke:#404040;stroke-width:1.2;"/><text fill="#000000" font-family="sans-serif" font-size="13" lengthAdjust="spacing" textLength="114.8989" x="1473.5" y="387.1045">publishingPrinciples</text><text fill="#000000" font-family="sans-serif" font-size="13" lengthAdjust="spacing" textLength="19.5127" x="1454.7638" y="417.0178">0..*</text></g><!--link Dataset to Reference--><g class="link" data-entity-1="ent0002" data-entity-2="ent0021" data-link-type="dependency" data-source-line="62" id="lnk36"><path codeLine="62" d="M1177.04,218.8994 C1323.06,248.6494 1546.66,304.1194 1596.5,372.6094 C1632.16,421.6094 1523.8587,434.4514 1466.4087,437.9814" fill="none" id="Dataset-to-Reference-3" style="stroke:#404040;stroke-width:1.2;"/><polygon fill="#404040" points="1460.42,438.3494,1469.6484,441.7899,1465.4106,438.0427,1469.1577,433.8049,1460.42,438.3494" style="stroke:#404040;stroke-width:1.2;"/><text fill="#000000" font-family="sans-serif" font-size="13" lengthAdjust="spacing" textLength="63.5972" x="1604.5" y="387.1045">relatedLink</text><text fill="#000000" font-family="sans-serif" font-size="13" lengthAdjust="spacing" textLength="19.5127" x="1468.3922" y="452.9999">0..*</text></g><!--link Dataset to Identifier--><g class="link" data-entity-1="ent0002" data-entity-2="ent0024" data-link-type="dependency" data-source-line="51" id="lnk25"><path codeLine="51" d="M1177.04,223.7194 C1305.95,254.0394 1508.29,306.6094 1676.5,372.6094 C1717.4,388.6594 1757.281,410.3943 1782.451,424.8943" fill="none" id="Dataset-to-Identifier" style="stroke:#404040;stroke-width:1.2;"/><polygon fill="#404040" points="1787.65,427.8894,1781.8482,419.9308,1783.3175,425.3935,1777.8548,426.8628,1787.65,427.8894" style="stroke:#404040;stroke-width:1.2;"/><text fill="#000000" font-family="sans-serif" font-size="13" lengthAdjust="spacing" textLength="49.1372" x="1718.5" y="387.1045">identifier</text><text fill="#000000" font-family="sans-serif" font-size="13" lengthAdjust="spacing" textLength="7.23" x="1771.4962" y="417.2767">1</text></g><!--link Dataset to Identifier--><g class="link" data-entity-1="ent0002" data-entity-2="ent0024" data-link-type="dependency" data-source-line="53" id="lnk27"><path codeLine="53" d="M1177.01,212.8894 C1360.98,240.4094 1685.76,297.9994 1776.5,372.6094 C1793.82,386.8494 1800.6266,407.0771 1804.0366,422.1571" fill="none" id="Dataset-to-Identifier-1" style="stroke:#404040;stroke-width:1.2;"/><polygon fill="#404040" points="1805.36,428.0094,1807.2765,418.3488,1804.2572,423.1325,1799.4735,420.1132,1805.36,428.0094" style="stroke:#404040;stroke-width:1.2;"/><text fill="#000000" font-family="sans-serif" font-size="13" lengthAdjust="spacing" textLength="46.96" x="1792.5" y="387.1045">sameAs</text><text fill="#000000" font-family="sans-serif" font-size="13" lengthAdjust="spacing" textLength="19.5127" x="1808.4965" y="417.0602">0..*</text></g><!--link Dataset to XsdLanguage--><g class="link" data-entity-1="ent0002" data-entity-2="ent0028" data-link-type="dependency" data-source-line="55" id="lnk29"><path codeLine="55" d="M1177.06,208.8494 C1339.14,229.3794 1622.7,276.4194 1847.5,372.6094 C1875.93,384.7794 1900.1776,401.581 1919.5776,416.701" fill="none" id="Dataset-to-XsdLanguage" style="stroke:#404040;stroke-width:1.2;stroke-dasharray:7,7;"/><polygon fill="#404040" points="1924.31,420.3894,1919.6703,411.7019,1920.3663,417.3157,1914.7524,418.0118,1924.31,420.3894" style="stroke:#404040;stroke-width:1.2;"/><text fill="#000000" font-family="sans-serif" font-size="13" lengthAdjust="spacing" textLength="67.958" x="1881.5" y="387.1045">inLanguage</text></g><!--link Dataset to XsdDate--><g class="link" data-entity-1="ent0002" data-entity-2="ent0030" data-link-type="dependency" data-source-line="57" id="lnk31"><path codeLine="57" d="M1177.3,204.0194 C1358.21,220.0494 1693.66,262.9794 1957.5,372.6094 C1986.06,384.4794 2010.2207,401.4863 2029.3507,416.7563" fill="none" id="Dataset-to-XsdDate" style="stroke:#404040;stroke-width:1.2;stroke-dasharray:7,7;"/><polygon fill="#404040" points="2034.04,420.4994,2029.5015,411.7586,2030.1323,417.3801,2024.5107,418.0109,2034.04,420.4994" style="stroke:#404040;stroke-width:1.2;"/><text fill="#000000" font-family="sans-serif" font-size="13" lengthAdjust="spacing" textLength="74.439" x="1990.5" y="387.1045">dateModified</text></g><!--link Dataset to XsdAnyUri--><g class="link" data-entity-1="ent0002" data-entity-2="ent0032" data-link-type="dependency" data-source-line="59" id="lnk33"><path codeLine="59" d="M1177.4,200.1294 C1376.91,211.6394 1767.72,249.3694 2073.5,372.6094 C2102.18,384.1694 2126.3365,401.2066 2145.4265,416.5766" fill="none" id="Dataset-to-XsdAnyUri" style="stroke:#404040;stroke-width:1.2;stroke-dasharray:7,7;"/><polygon fill="#404040" points="2150.1,420.3394,2145.5983,411.5795,2146.2054,417.2037,2140.5812,417.8109,2150.1,420.3394" style="stroke:#404040;stroke-width:1.2;"/><text fill="#000000" font-family="sans-serif" font-size="13" lengthAdjust="spacing" textLength="14.4473" x="2108.5" y="387.1045">url</text></g><?plantuml-src ZLLTQzim57tthn3fMqT2qsqlfWJS9Yc5bfQkWy7OWo9T9rfioKXoGZRstwSFVyYDuxHzYUuzElVewkfOCvq1ccED5UXemoWWmYJ9mF-6lD07b4E-0gaYjMMym1BdI6qm5Nl6roZ5cO8WaqWfzcyRHhOSb4BJoNMG91asiRyHyh0xaGc9BhvSsNyJl1MIWdmVNGgklx4_WARNqRyeyXoZIl88OLNBHnVBnN9njt05FXdvNBEKWKGnUcWNFwU_R9hZ74n2QMbFKGKfA29PePdWGUvgCl5fJ2cpEPoz7GgxUmufuq3VGEOETkbWob0dwbtL9hipdJp1p_WZvkiIhott3qMRLGkXMCEJe9QKUf0vF3JwpU-NSfKnjUccc_sbp7myuOVlaWMPZ17WobP-XHGaS0A1QYAuFxjwJXD2xDNs0mjVtXpinPoEi2A3Kz0j7FRcnjN9Hah8Z7hwoFYsZ-9VFGilKkmIejcEwOCRY320BXRkBwgdv78yHYFBCEhYOhJ7wXuuI5lqzX3XbRaXJ7GrjgDaRQxJyRjVHyJZyQmcze0O5QQ06KHvp5MjvynEmQgqhVNKFOd1Idtu6D5WEIIGIC1QoBgJT-QjkMr2EZN1UaX423ESxUe8F0rwKmrgK_n9SD1O7kubhlhSYGm9w09Zb9PcNFcwCGkGR0TqAKNk3QDT3x66C3STGQ3fcDcMYVKh43FAlcTXf9_UTA6BCcPGhdu3qSzfgxbv4fNczeaCQcvXCQgVM4tQl257sRwe0S8M5AFA8wAk-E1kw_qnmYjHwhfiQuIkRk2Bfzhp4BftQ-NdJzprw3vyXzfxTQqpy5mdDFJWcnlZhjYIpcRcIvCiliu_D_IJoQm3DfeRBm_8hHdNnCwOFqBgWEP51yuVK7eVhqahL_y8RGMDaVaadBltO_S_jwFlCt1kJs3tqNy0?></g></svg>