<svg xmlns="http://www.w3.org/2000/svg" xmlns:xlink="http://www.w3.org/1999/xlink" contentStyleType="text/css" data-diagram-type="CLASS" height="1071px" preserveAspectRatio="none" style="width:4347px;height:1071px;background:#FFFFFF;" version="1.1" viewBox="0 0 4347 1071" width="4347px" zoomAndPan="magnify"><?plantuml 1.2026.3?><defs/><g><g class="title" data-source-line="1"><text fill="#000000" font-family="sans-serif" font-size="14" font-weight="700" lengthAdjust="spacing" textLength="50.5791" x="2145.0317" y="24.5332">Dataset</text></g><!--class Dataset--><g class="entity" data-qualified-name="Dataset" data-source-line="16" id="ent0002"><rect fill="#FEFECE" height="621.75" rx="2.5" ry="2.5" style="stroke:#404040;stroke-width:0.5;" width="531.6035" x="1732.5" y="45.6094"/><text fill="#000000" font-family="sans-serif" font-size="30" lengthAdjust="spacing" textLength="103.3887" x="1946.6074" y="81.752">Dataset</text><line style="stroke:#404040;stroke-width:0.5;" x1="1733.5" x2="2263.1035" y1="93.3438" y2="93.3438"/><g data-visibility-modifier="PUBLIC_FIELD"><ellipse cx="1743.5" cy="117.7109" fill="none" rx="3" ry="3" style="stroke:#038048;stroke-width:1;"/></g><text fill="#000000" font-family="sans-serif" font-size="30" lengthAdjust="spacing" textLength="295.1514" x="1759.5" y="128.4863">identifier : Identifier [1]</text><g data-visibility-modifier="PUBLIC_FIELD"><ellipse cx="1743.5" cy="155.4453" fill="none" rx="3" ry="3" style="stroke:#038048;stroke-width:1;"/></g><text fill="#000000" font-family="sans-serif" font-size="30" lengthAdjust="spacing" textLength="215.0977" x="1759.5" y="166.2207">name : string [1]</text><g data-visibility-modifier="PUBLIC_FIELD"><ellipse cx="1743.5" cy="193.1797" fill="none" rx="3" ry="3" style="stroke:#038048;stroke-width:1;"/></g><text fill="#000000" font-family="sans-serif" font-size="30" lengthAdjust="spacing" textLength="318.4863" x="1759.5" y="203.9551">description : string [0..1]</text><g data-visibility-modifier="PUBLIC_FIELD"><ellipse cx="1743.5" cy="230.9141" fill="none" rx="3" ry="3" style="stroke:#038048;stroke-width:1;"/></g><text fill="#000000" font-family="sans-serif" font-size="30" lengthAdjust="spacing" textLength="463.5645" x="1759.5" y="241.6895">additionalType : DefinedTerm [0..*]</text><g data-visibility-modifier="PUBLIC_FIELD"><ellipse cx="1743.5" cy="268.6484" fill="none" rx="3" ry="3" style="stroke:#038048;stroke-width:1;"/></g><text fill="#000000" font-family="sans-serif" font-size="30" lengthAdjust="spacing" textLength="318.4717" x="1759.5" y="279.4238">sameAs : Identifier [0..*]</text><g data-visibility-modifier="PUBLIC_FIELD"><ellipse cx="1743.5" cy="306.3828" fill="none" rx="3" ry="3" style="stroke:#038048;stroke-width:1;"/></g><text fill="#000000" font-family="sans-serif" font-size="30" lengthAdjust="spacing" textLength="270.1172" x="1759.5" y="317.1582">version : string [0..1]</text><g data-visibility-modifier="PUBLIC_FIELD"><ellipse cx="1743.5" cy="344.1172" fill="none" rx="3" ry="3" style="stroke:#038048;stroke-width:1;"/></g><text fill="#000000" font-family="sans-serif" font-size="30" lengthAdjust="spacing" textLength="442.0459" x="1759.5" y="354.8926">inLanguage : XsdLanguage [0..1]</text><g data-visibility-modifier="PUBLIC_FIELD"><ellipse cx="1743.5" cy="381.8516" fill="none" rx="3" ry="3" style="stroke:#038048;stroke-width:1;"/></g><text fill="#000000" font-family="sans-serif" font-size="30" lengthAdjust="spacing" textLength="353.54" x="1759.5" y="392.627">dateModified : XsdDate [1]</text><g data-visibility-modifier="PUBLIC_FIELD"><ellipse cx="1743.5" cy="419.5859" fill="none" rx="3" ry="3" style="stroke:#038048;stroke-width:1;"/></g><text fill="#000000" font-family="sans-serif" font-size="30" lengthAdjust="spacing" textLength="405.2637" x="1759.5" y="430.3613">datePublished : XsdDate [0..1]</text><g data-visibility-modifier="PUBLIC_FIELD"><ellipse cx="1743.5" cy="457.3203" fill="none" rx="3" ry="3" style="stroke:#038048;stroke-width:1;"/></g><text fill="#000000" font-family="sans-serif" font-size="30" lengthAdjust="spacing" textLength="275.0977" x="1759.5" y="468.0957">url : XsdAnyUri [0..1]</text><g data-visibility-modifier="PUBLIC_FIELD"><ellipse cx="1743.5" cy="495.0547" fill="none" rx="3" ry="3" style="stroke:#038048;stroke-width:1;"/></g><text fill="#000000" font-family="sans-serif" font-size="30" lengthAdjust="spacing" textLength="326.8359" x="1759.5" y="505.8301">license : Reference [0..*]</text><g data-visibility-modifier="PUBLIC_FIELD"><ellipse cx="1743.5" cy="532.7891" fill="none" rx="3" ry="3" style="stroke:#038048;stroke-width:1;"/></g><text fill="#000000" font-family="sans-serif" font-size="30" lengthAdjust="spacing" textLength="496.9043" x="1759.5" y="543.5645">conditionsOfAccess : Reference [0..*]</text><g data-visibility-modifier="PUBLIC_FIELD"><ellipse cx="1743.5" cy="570.5234" fill="none" rx="3" ry="3" style="stroke:#038048;stroke-width:1;"/></g><text fill="#000000" font-family="sans-serif" font-size="30" lengthAdjust="spacing" textLength="498.6035" x="1759.5" y="581.2988">publishingPrinciples : Reference [0..*]</text><g data-visibility-modifier="PUBLIC_FIELD"><ellipse cx="1743.5" cy="608.2578" fill="none" rx="3" ry="3" style="stroke:#038048;stroke-width:1;"/></g><text fill="#000000" font-family="sans-serif" font-size="30" lengthAdjust="spacing" textLength="395.1416" x="1759.5" y="619.0332">keywords : DefinedTerm [0..*]</text><g data-visibility-modifier="PUBLIC_FIELD"><ellipse cx="1743.5" cy="645.9922" fill="none" rx="3" ry="3" style="stroke:#038048;stroke-width:1;"/></g><text fill="#000000" font-family="sans-serif" font-size="30" lengthAdjust="spacing" textLength="380.2148" x="1759.5" y="656.7676">relatedLink : Reference [0..*]</text></g><!--class ProvActivity--><g class="entity" data-qualified-name="ProvActivity" data-source-line="33" id="ent0003"><rect fill="#EEEEEE" height="47.7344" rx="2.5" ry="2.5" style="stroke:#404040;stroke-width:0.5;" width="162.6943" x="7" y="987.1094"/><text fill="#000000" font-family="sans-serif" font-size="30" lengthAdjust="spacing" textLength="156.6943" x="10" y="1023.252">ProvActivity</text></g><!--class Agent--><g class="entity" data-qualified-name="Agent" data-source-line="35" id="ent0005"><rect fill="#EEEEEE" height="47.7344" rx="2.5" ry="2.5" style="stroke:#404040;stroke-width:0.5;" width="84.3984" x="506.5" y="987.1094"/><text fill="#000000" font-family="sans-serif" font-size="30" font-style="italic" lengthAdjust="spacing" textLength="78.3984" x="509.5" y="1023.252">Agent</text></g><!--class AbstractDistribution--><g class="entity" data-qualified-name="AbstractDistribution" data-source-line="37" id="ent0007"><rect fill="#EEEEEE" height="47.7344" rx="2.5" ry="2.5" style="stroke:#404040;stroke-width:0.5;" width="266.0977" x="696.5" y="987.1094"/><text fill="#000000" font-family="sans-serif" font-size="30" font-style="italic" lengthAdjust="spacing" textLength="260.0977" x="699.5" y="1023.252">AbstractDistribution</text></g><!--class Contributor--><g class="entity" data-qualified-name="Contributor" data-source-line="40" id="ent0010"><rect fill="#EEEEEE" height="47.7344" rx="2.5" ry="2.5" style="stroke:#404040;stroke-width:0.5;" width="154.4033" x="982.5" y="987.1094"/><text fill="#000000" font-family="sans-serif" font-size="30" lengthAdjust="spacing" textLength="148.4033" x="985.5" y="1023.252">Contributor</text></g><!--class MonetaryGrant--><g class="entity" data-qualified-name="MonetaryGrant" data-source-line="43" id="ent0013"><rect fill="#EEEEEE" height="47.7344" rx="2.5" ry="2.5" style="stroke:#404040;stroke-width:0.5;" width="206.083" x="1156.5" y="987.1094"/><text fill="#000000" font-family="sans-serif" font-size="30" lengthAdjust="spacing" textLength="200.083" x="1159.5" y="1023.252">MonetaryGrant</text></g><!--class DerivedFrom--><g class="entity" data-qualified-name="DerivedFrom" data-source-line="45" id="ent0015"><rect fill="#EEEEEE" height="47.7344" rx="2.5" ry="2.5" style="stroke:#404040;stroke-width:0.5;" width="179.3643" x="1383" y="987.1094"/><text fill="#000000" font-family="sans-serif" font-size="30" lengthAdjust="spacing" textLength="173.3643" x="1386" y="1023.252">DerivedFrom</text></g><!--class CatalogRecord--><g class="entity" data-qualified-name="CatalogRecord" data-source-line="47" id="ent0017"><rect fill="#EEEEEE" height="47.7344" rx="2.5" ry="2.5" style="stroke:#404040;stroke-width:0.5;" width="206.1123" x="1640.5" y="987.1094"/><text fill="#000000" font-family="sans-serif" font-size="30" lengthAdjust="spacing" textLength="200.1123" x="1643.5" y="1023.252">CatalogRecord</text></g><!--class DefinedTerm--><g class="entity" data-qualified-name="DefinedTerm" data-source-line="49" id="ent0019"><rect fill="#EEEEEE" height="47.7344" rx="2.5" ry="2.5" style="stroke:#404040;stroke-width:0.5;" width="179.3936" x="1998" y="987.1094"/><text fill="#000000" font-family="sans-serif" font-size="30" lengthAdjust="spacing" textLength="173.3936" x="2001" y="1023.252">DefinedTerm</text></g><!--class Reference--><g class="entity" data-qualified-name="Reference" data-source-line="51" id="ent0021"><rect fill="#EEEEEE" height="47.7344" rx="2.5" ry="2.5" style="stroke:#404040;stroke-width:0.5;" width="144.4131" x="2676.5" y="987.1094"/><text fill="#000000" font-family="sans-serif" font-size="30" lengthAdjust="spacing" textLength="138.4131" x="2679.5" y="1023.252">Reference</text></g><!--class Identifier--><g class="entity" data-qualified-name="Identifier" data-source-line="54" id="ent0024"><rect fill="#EEEEEE" height="47.7344" rx="2.5" ry="2.5" style="stroke:#404040;stroke-width:0.5;" width="121.0635" x="3479" y="987.1094"/><text fill="#000000" font-family="sans-serif" font-size="30" lengthAdjust="spacing" textLength="115.0635" x="3482" y="1023.252">Identifier</text></g><!--class XsdLanguage--><g class="entity" data-qualified-name="XsdLanguage" data-source-line="58" id="ent0028"><rect fill="#FAE5D3" height="93.0156" rx="2.5" ry="2.5" style="stroke:#404040;stroke-width:0.5;" width="192.1426" x="3692.5" y="964.6094"/><text fill="#000000" font-family="sans-serif" font-size="36" font-style="italic" lengthAdjust="spacing" textLength="190.1426" x="3693.5" y="1006.9805">&#171;dataType&#187;</text><text fill="#000000" font-family="sans-serif" font-size="30" lengthAdjust="spacing" textLength="185.1709" x="3695.9858" y="1046.0332">XsdLanguage</text></g><!--class XsdDate--><g class="entity" data-qualified-name="XsdDate" data-source-line="60" id="ent0030"><rect fill="#FAE5D3" height="93.0156" rx="2.5" ry="2.5" style="stroke:#404040;stroke-width:0.5;" width="192.1426" x="3907.5" y="964.6094"/><text fill="#000000" font-family="sans-serif" font-size="36" font-style="italic" lengthAdjust="spacing" textLength="190.1426" x="3908.5" y="1006.9805">&#171;dataType&#187;</text><text fill="#000000" font-family="sans-serif" font-size="30" lengthAdjust="spacing" textLength="115.0635" x="3946.0396" y="1046.0332">XsdDate</text></g><!--class XsdAnyUri--><g class="entity" data-qualified-name="XsdAnyUri" data-source-line="62" id="ent0032"><rect fill="#FAE5D3" height="93.0156" rx="2.5" ry="2.5" style="stroke:#404040;stroke-width:0.5;" width="192.1426" x="4140.5" y="964.6094"/><text fill="#000000" font-family="sans-serif" font-size="36" font-style="italic" lengthAdjust="spacing" textLength="190.1426" x="4141.5" y="1006.9805">&#171;dataType&#187;</text><text fill="#000000" font-family="sans-serif" font-size="30" lengthAdjust="spacing" textLength="141.709" x="4165.7168" y="1046.0332">XsdAnyUri</text></g><!--reverse link Dataset to ProvActivity--><g class="link" data-entity-1="ent0002" data-entity-2="ent0003" data-link-type="composition" data-source-line="34" id="lnk4"><path codeLine="34" d="M1720.352,380.1953 C1246.702,424.4353 299.84,542.2294 94.5,792.6094 C48.39,848.8394 68.23,943.4894 80.91,986.9794" fill="none" id="Dataset-backto-ProvActivity" style="stroke:#404040;stroke-width:1.2;"/><polygon fill="#404040" points="1732.3,379.0794,1725.954,375.6547,1720.352,380.1953,1726.698,383.62,1732.3,379.0794" style="stroke:#404040;stroke-width:1.2;"/><text fill="#000000" font-family="sans-serif" font-size="36" lengthAdjust="spacing" textLength="276.1523" x="95.5" y="830.9805">wasGeneratedBy</text><text fill="#000000" font-family="sans-serif" font-size="36" lengthAdjust="spacing" textLength="54.0352" x="20.779" y="971.0932">0..*</text></g><!--link Dataset to Agent--><g class="link" data-entity-1="ent0002" data-entity-2="ent0005" data-link-type="dependency" data-source-line="36" id="lnk6"><path codeLine="36" d="M1732.47,390.6094 C1319.3,447.9394 553.82,580.5094 391.5,792.6094 C338.29,862.1394 442.8618,943.5911 504.8518,983.6811" fill="none" id="Dataset-to-Agent" style="stroke:#404040;stroke-width:1.2;"/><polygon fill="#404040" points="509.89,986.9394,504.5049,978.6931,505.6915,984.2241,500.1605,985.4107,509.89,986.9394" style="stroke:#404040;stroke-width:1.2;"/><text fill="#000000" font-family="sans-serif" font-size="36" lengthAdjust="spacing" textLength="130.0605" x="392.5" y="830.9805">provider</text><text fill="#000000" font-family="sans-serif" font-size="36" lengthAdjust="spacing" textLength="54.0352" x="444.5821" y="971.3361">0..*</text></g><!--link Dataset to Agent--><g class="link" data-entity-1="ent0002" data-entity-2="ent0005" data-link-type="dependency" data-source-line="39" id="lnk9"><path codeLine="39" d="M1732.26,399.0094 C1353.78,463.9194 690.19,602.1794 548.5,792.6094 C505.22,850.7794 525.0588,938.3161 538.5888,981.3061" fill="none" id="Dataset-to-Agent-1" style="stroke:#404040;stroke-width:1.2;"/><polygon fill="#404040" points="540.39,987.0294,541.5036,977.2437,538.889,982.26,533.8726,979.6453,540.39,987.0294" style="stroke:#404040;stroke-width:1.2;"/><text fill="#000000" font-family="sans-serif" font-size="36" lengthAdjust="spacing" textLength="112.043" x="549.5" y="830.9805">creator</text><text fill="#000000" font-family="sans-serif" font-size="36" lengthAdjust="spacing" textLength="54.0352" x="543.7224" y="971.1521">0..*</text></g><!--link Dataset to Agent--><g class="link" data-entity-1="ent0002" data-entity-2="ent0005" data-link-type="dependency" data-source-line="42" id="lnk12"><path codeLine="42" d="M1732.26,396.8094 C1453.15,448.6494 1012.85,561.8994 702.5,792.6094 C683.75,806.5494 602.0149,928.9016 566.9649,982.0116" fill="none" id="Dataset-to-Agent-2" style="stroke:#404040;stroke-width:1.2;"/><polygon fill="#404040" points="563.66,987.0194,571.9558,981.711,566.4141,982.8462,565.2788,977.3045,563.66,987.0194" style="stroke:#404040;stroke-width:1.2;"/><text fill="#000000" font-family="sans-serif" font-size="36" lengthAdjust="spacing" textLength="146.0918" x="703.5" y="830.9805">publisher</text><text fill="#000000" font-family="sans-serif" font-size="36" lengthAdjust="spacing" textLength="60.0469" x="599.0851" y="1023.3537">0..1</text></g><!--link Dataset to AbstractDistribution--><g class="link" data-entity-1="ent0002" data-entity-2="ent0007" data-link-type="dependency" data-source-line="38" id="lnk8"><path codeLine="38" d="M1732.31,390.9794 C1477.73,437.0994 1101.28,544.8594 883.5,792.6094 C834.05,848.8594 828.4055,937.4995 828.6555,980.9895" fill="none" id="Dataset-to-AbstractDistribution" style="stroke:#404040;stroke-width:1.2;"/><polygon fill="#404040" points="828.69,986.9894,832.6382,977.9665,828.6613,981.9895,824.6383,978.0125,828.69,986.9894" style="stroke:#404040;stroke-width:1.2;"/><text fill="#000000" font-family="sans-serif" font-size="36" lengthAdjust="spacing" textLength="174.0938" x="884.5" y="830.9805">distribution</text><text fill="#000000" font-family="sans-serif" font-size="36" lengthAdjust="spacing" textLength="54.0352" x="769.7308" y="971.105">0..*</text></g><!--link Dataset to Contributor--><g class="link" data-entity-1="ent0002" data-entity-2="ent0010" data-link-type="dependency" data-source-line="41" id="lnk11"><path codeLine="41" d="M1732.49,410.8894 C1521.6,467.8694 1237.86,580.3494 1085.5,792.6094 C1043.03,851.7694 1048.7194,938.1871 1054.6994,980.9671" fill="none" id="Dataset-to-Contributor" style="stroke:#404040;stroke-width:1.2;"/><polygon fill="#404040" points="1055.53,986.9094,1058.2455,977.4423,1054.8378,981.9575,1050.3226,978.5498,1055.53,986.9094" style="stroke:#404040;stroke-width:1.2;"/><text fill="#000000" font-family="sans-serif" font-size="36" lengthAdjust="spacing" textLength="170.0859" x="1086.5" y="830.9805">contributor</text><text fill="#000000" font-family="sans-serif" font-size="36" lengthAdjust="spacing" textLength="54.0352" x="996.1754" y="971.3009">0..*</text></g><!--link Dataset to MonetaryGrant--><g class="link" data-entity-1="ent0002" data-entity-2="ent0013" data-link-type="dependency" data-source-line="44" id="lnk14"><path codeLine="44" d="M1732.14,449.1694 C1574.01,518.0594 1384.78,629.0194 1281.5,792.6094 C1242.8,853.9094 1248.7625,938.8681 1254.7125,981.0781" fill="none" id="Dataset-to-MonetaryGrant" style="stroke:#404040;stroke-width:1.2;"/><polygon fill="#404040" points="1255.55,987.0194,1258.2546,977.5492,1254.8521,982.0683,1250.3329,978.6658,1255.55,987.0194" style="stroke:#404040;stroke-width:1.2;"/><text fill="#000000" font-family="sans-serif" font-size="36" lengthAdjust="spacing" textLength="118.1074" x="1282.5" y="830.9805">funding</text><text fill="#000000" font-family="sans-serif" font-size="36" lengthAdjust="spacing" textLength="54.0352" x="1196.0328" y="971.1403">0..*</text></g><!--link Dataset to DerivedFrom--><g class="link" data-entity-1="ent0002" data-entity-2="ent0015" data-link-type="dependency" data-source-line="46" id="lnk16"><path codeLine="46" d="M1732.42,484.3994 C1612.96,556.6194 1484.12,659.5094 1417.5,792.6094 C1384.46,858.6094 1427.2439,941.0205 1453.3839,982.0105" fill="none" id="Dataset-to-DerivedFrom" style="stroke:#404040;stroke-width:1.2;"/><polygon fill="#404040" points="1456.61,987.0694,1455.1434,977.3303,1453.9216,982.8537,1448.3982,981.6318,1456.61,987.0694" style="stroke:#404040;stroke-width:1.2;"/><text fill="#000000" font-family="sans-serif" font-size="36" lengthAdjust="spacing" textLength="272.0566" x="1418.5" y="830.9805">wasDerivedFrom</text><text fill="#000000" font-family="sans-serif" font-size="36" lengthAdjust="spacing" textLength="54.0352" x="1394.9409" y="971.1992">0..*</text></g><!--link Dataset to CatalogRecord--><g class="link" data-entity-1="ent0002" data-entity-2="ent0017" data-link-type="dependency" data-source-line="48" id="lnk18"><path codeLine="48" d="M1756.38,667.6094 C1734.46,707.9294 1715.61,750.0494 1702.5,792.6094 C1681.24,861.6494 1710.8098,941.1397 1729.3498,981.3897" fill="none" id="Dataset-to-CatalogRecord" style="stroke:#404040;stroke-width:1.2;"/><polygon fill="#404040" points="1731.86,986.8394,1731.7278,976.9914,1729.7681,982.298,1724.4616,980.3384,1731.86,986.8394" style="stroke:#404040;stroke-width:1.2;"/><text fill="#000000" font-family="sans-serif" font-size="36" lengthAdjust="spacing" textLength="152.0684" x="1703.5" y="830.9805">subjectOf</text><text fill="#000000" font-family="sans-serif" font-size="36" lengthAdjust="spacing" textLength="20.0215" x="1708.1328" y="971.2189">1</text></g><!--link CatalogRecord to Dataset--><g class="link" data-entity-1="ent0017" data-entity-2="ent0002" data-link-type="dependency" data-source-line="53" id="lnk23"><path codeLine="53" d="M1762.38,986.9294 C1787.29,955.3494 1831.05,896.2294 1857.5,839.6094 C1882.73,785.5994 1902.7315,731.7703 1921.1515,673.5003" fill="none" id="CatalogRecord-to-Dataset" style="stroke:#404040;stroke-width:1.2;"/><polygon fill="#404040" points="1922.96,667.7794,1916.4333,675.1552,1921.4529,672.5468,1924.0613,677.5665,1922.96,667.7794" style="stroke:#404040;stroke-width:1.2;"/><text fill="#000000" font-family="sans-serif" font-size="36" lengthAdjust="spacing" textLength="90.0879" x="1875.5" y="830.9805">about</text><text fill="#000000" font-family="sans-serif" font-size="36" lengthAdjust="spacing" textLength="60.0469" x="1860.4916" y="712.9771">0..1</text></g><!--link Dataset to DefinedTerm--><g class="link" data-entity-1="ent0002" data-entity-2="ent0019" data-link-type="dependency" data-source-line="50" id="lnk20"><path codeLine="50" d="M1976.62,667.8394 C1978.71,725.5294 1985.07,784.8494 1998.5,839.6094 C2012.46,896.5194 2045.7097,950.5859 2067.3697,982.0759" fill="none" id="Dataset-to-DefinedTerm" style="stroke:#404040;stroke-width:1.2;"/><polygon fill="#404040" points="2070.77,987.0194,2068.9652,977.3373,2067.9364,982.8998,2062.3739,981.871,2070.77,987.0194" style="stroke:#404040;stroke-width:1.2;"/><text fill="#000000" font-family="sans-serif" font-size="36" lengthAdjust="spacing" textLength="152.0508" x="1999.5" y="830.9805">keywords</text><text fill="#000000" font-family="sans-serif" font-size="36" lengthAdjust="spacing" textLength="54.0352" x="2008.9487" y="971.1403">0..*</text></g><!--link Dataset to DefinedTerm--><g class="link" data-entity-1="ent0002" data-entity-2="ent0019" data-link-type="dependency" data-source-line="56" id="lnk26"><path codeLine="56" d="M2123.39,667.7994 C2135.79,709.1894 2146.4,751.5294 2153.5,792.6094 C2166.07,865.3194 2128.0977,942.6852 2105.0777,981.8952" fill="none" id="Dataset-to-DefinedTerm-1" style="stroke:#404040;stroke-width:1.2;"/><polygon fill="#404040" points="2102.04,987.0694,2110.0461,981.3333,2104.5714,982.7576,2103.1472,977.2829,2102.04,987.0694" style="stroke:#404040;stroke-width:1.2;"/><text fill="#000000" font-family="sans-serif" font-size="36" lengthAdjust="spacing" textLength="234.1582" x="2157.5" y="830.9805">additionalType</text><text fill="#000000" font-family="sans-serif" font-size="36" lengthAdjust="spacing" textLength="54.0352" x="2109.4074" y="971.1992">0..*</text></g><!--link Dataset to Reference--><g class="link" data-entity-1="ent0002" data-entity-2="ent0021" data-link-type="dependency" data-source-line="52" id="lnk22"><path codeLine="52" d="M2264.58,645.6694 C2309.16,694.5194 2354.8,744.8694 2397.5,792.6094 C2415.98,813.2694 2416.91,822.2194 2438.5,839.6094 C2519.34,904.7294 2623.0559,955.7454 2687.9459,984.5454" fill="none" id="Dataset-to-Reference" style="stroke:#404040;stroke-width:1.2;"/><polygon fill="#404040" points="2693.43,986.9794,2686.8265,979.6723,2688.8599,984.951,2683.5811,986.9844,2693.43,986.9794" style="stroke:#404040;stroke-width:1.2;"/><text fill="#000000" font-family="sans-serif" font-size="36" lengthAdjust="spacing" textLength="112.0605" x="2439.5" y="830.9805">license</text><text fill="#000000" font-family="sans-serif" font-size="36" lengthAdjust="spacing" textLength="54.0352" x="2624.7776" y="971.0932">0..*</text></g><!--link Dataset to Reference--><g class="link" data-entity-1="ent0002" data-entity-2="ent0021" data-link-type="dependency" data-source-line="64" id="lnk34"><path codeLine="64" d="M2264.68,529.5494 C2363.72,602.3894 2471.77,693.3894 2553.5,792.6094 C2568.41,810.7094 2563.69,820.6494 2577.5,839.6094 C2620.45,898.5694 2679.4369,952.2652 2715.7469,983.1052" fill="none" id="Dataset-to-Reference-1" style="stroke:#404040;stroke-width:1.2;"/><polygon fill="#404040" points="2720.32,986.9894,2716.0498,978.1144,2716.5091,983.7526,2710.8709,984.2118,2720.32,986.9894" style="stroke:#404040;stroke-width:1.2;"/><text fill="#000000" font-family="sans-serif" font-size="36" lengthAdjust="spacing" textLength="316.1426" x="2578.5" y="830.9805">conditionsOfAccess</text><text fill="#000000" font-family="sans-serif" font-size="36" lengthAdjust="spacing" textLength="54.0352" x="2720.0762" y="971.105">0..*</text></g><!--link Dataset to Reference--><g class="link" data-entity-1="ent0002" data-entity-2="ent0021" data-link-type="dependency" data-source-line="65" id="lnk35"><path codeLine="65" d="M2264.56,407.0294 C2476.29,461.8594 2759.08,573.3494 2896.5,792.6094 C2941.86,864.9794 2846.9228,944.2781 2789.7828,983.5981" fill="none" id="Dataset-to-Reference-2" style="stroke:#404040;stroke-width:1.2;"/><polygon fill="#404040" points="2784.84,986.9994,2794.5217,985.1926,2788.959,984.165,2789.9866,978.6022,2784.84,986.9994" style="stroke:#404040;stroke-width:1.2;"/><text fill="#000000" font-family="sans-serif" font-size="36" lengthAdjust="spacing" textLength="318.1816" x="2909.5" y="830.9805">publishingPrinciples</text><text fill="#000000" font-family="sans-serif" font-size="36" lengthAdjust="spacing" textLength="54.0352" x="2796.0888" y="971.1168">0..*</text></g><!--link Dataset to Reference--><g class="link" data-entity-1="ent0002" data-entity-2="ent0021" data-link-type="dependency" data-source-line="66" id="lnk36"><path codeLine="66" d="M2264.62,366.5794 C2557.13,392.3994 3014.55,483.3594 3233.5,792.6094 C3340.75,944.0894 2986.0987,991.2938 2826.5587,1004.7838" fill="none" id="Dataset-to-Reference-3" style="stroke:#404040;stroke-width:1.2;"/><polygon fill="#404040" points="2820.58,1005.2894,2829.885,1008.5169,2825.5622,1004.8681,2829.211,1000.5453,2820.58,1005.2894" style="stroke:#404040;stroke-width:1.2;"/><text fill="#000000" font-family="sans-serif" font-size="36" lengthAdjust="spacing" textLength="176.1152" x="3253.5" y="830.9805">relatedLink</text><text fill="#000000" font-family="sans-serif" font-size="36" lengthAdjust="spacing" textLength="54.0352" x="2828.7694" y="1044.0644">0..*</text></g><!--link Dataset to Identifier--><g class="link" data-entity-1="ent0002" data-entity-2="ent0024" data-link-type="dependency" data-source-line="55" id="lnk25"><path codeLine="55" d="M2264.65,374.4394 C2578.6,407.3694 3100.13,504.7294 3435.5,792.6094 C3467.18,819.7994 3510.5652,931.0695 3529.0952,981.3495" fill="none" id="Dataset-to-Identifier" style="stroke:#404040;stroke-width:1.2;"/><polygon fill="#404040" points="3531.17,986.9794,3531.811,977.1514,3529.441,982.2878,3524.3046,979.9178,3531.17,986.9794" style="stroke:#404040;stroke-width:1.2;"/><text fill="#000000" font-family="sans-serif" font-size="36" lengthAdjust="spacing" textLength="136.0723" x="3469.5" y="830.9805">identifier</text><text fill="#000000" font-family="sans-serif" font-size="36" lengthAdjust="spacing" textLength="20.0215" x="3507.9012" y="971.0932">1</text></g><!--link Dataset to Identifier--><g class="link" data-entity-1="ent0002" data-entity-2="ent0024" data-link-type="dependency" data-source-line="57" id="lnk27"><path codeLine="57" d="M2264.85,390.5594 C2678.53,447.8194 3444.96,580.2894 3607.5,792.6094 C3653.55,852.7694 3596.3834,939.9244 3562.7734,982.3944" fill="none" id="Dataset-to-Identifier-1" style="stroke:#404040;stroke-width:1.2;"/><polygon fill="#404040" points="3559.05,987.0994,3567.7717,982.5242,3562.1528,983.1786,3561.4985,977.5597,3559.05,987.0994" style="stroke:#404040;stroke-width:1.2;"/><text fill="#000000" font-family="sans-serif" font-size="36" lengthAdjust="spacing" textLength="130.043" x="3625.5" y="830.9805">sameAs</text><text fill="#000000" font-family="sans-serif" font-size="36" lengthAdjust="spacing" textLength="54.0352" x="3567.3392" y="971.2346">0..*</text></g><!--link Dataset to XsdLanguage--><g class="link" data-entity-1="ent0002" data-entity-2="ent0028" data-link-type="dependency" data-source-line="59" id="lnk29"><path codeLine="59" d="M2264.82,386.5894 C2707.3,440.4694 3564.85,571.1794 3761.5,792.6094 C3803.06,839.4094 3803.0711,909.9117 3797.2611,958.5917" fill="none" id="Dataset-to-XsdLanguage" style="stroke:#404040;stroke-width:1.2;stroke-dasharray:7,7;"/><polygon fill="#404040" points="3796.55,964.5494,3801.5884,956.0868,3797.1425,959.5846,3793.6448,955.1388,3796.55,964.5494" style="stroke:#404040;stroke-width:1.2;"/><text fill="#000000" font-family="sans-serif" font-size="36" lengthAdjust="spacing" textLength="188.1914" x="3788.5" y="830.9805">inLanguage</text></g><!--link Dataset to XsdDate--><g class="link" data-entity-1="ent0002" data-entity-2="ent0030" data-link-type="dependency" data-source-line="61" id="lnk31"><path codeLine="61" d="M2264.71,378.3594 C2750.89,422.0794 3753.36,541.0694 3979.5,792.6094 C4001.53,817.1194 4004.7445,902.3094 4004.5145,958.5394" fill="none" id="Dataset-to-XsdDate" style="stroke:#404040;stroke-width:1.2;stroke-dasharray:7,7;"/><polygon fill="#404040" points="4004.49,964.5394,4008.5268,955.5558,4004.5105,959.5394,4000.5268,955.5231,4004.49,964.5394" style="stroke:#404040;stroke-width:1.2;"/><text fill="#000000" font-family="sans-serif" font-size="36" lengthAdjust="spacing" textLength="206.1387" x="3998.5" y="830.9805">dateModified</text></g><!--link Dataset to XsdAnyUri--><g class="link" data-entity-1="ent0002" data-entity-2="ent0032" data-link-type="dependency" data-source-line="63" id="lnk33"><path codeLine="63" d="M2264.6,371.8494 C2793.82,405.9994 3949.92,511.6594 4210.5,792.6094 C4253.04,838.4794 4252.432,909.2506 4245.992,958.2406" fill="none" id="Dataset-to-XsdAnyUri" style="stroke:#404040;stroke-width:1.2;stroke-dasharray:7,7;"/><polygon fill="#404040" points="4245.21,964.1894,4250.3489,955.7875,4245.8617,959.232,4242.4171,954.7448,4245.21,964.1894" style="stroke:#404040;stroke-width:1.2;"/><text fill="#000000" font-family="sans-serif" font-size="36" lengthAdjust="spacing" textLength="40.0078" x="4237.5" y="830.9805">url</text></g><?plantuml-src ZLLDRzim3BtxLmZfhKE2j5rtC8e0RfCK1Lgqw3fWmB238j695aSo93b1DlI_ZvRy8JTVJIuM-VX8KTIJ5JO3CgQM6h3HGd0WJ6YMWV-6LMwtP0Mh6MWJcQMGETLqHSo2ShKHSavIcXa8F8dMQlEs46mfmHXoCRWCd9hAfO6SN5uF0wjK79mrD798QP7PgPBsk_WBvEfRu6GPHUv_4V7fxbIcD3dxEYp_QBnLceF-Q0sfCD1QBMQ5XTOyZDwZo5Ftgexq23LrTyZPT3ATt4rStY_O7Mb5Aa2Jc3oqYryNlqktf2j0Xy4asAJAYDjaMkHMA1duXeE1TrFEHUcZsTisBwF7a0e9_0tqoi7E7SmWTM8-P6syQpoe0_n2Fb8vB-YyvFvfUBDg8PnQU5Ay9EKUX9k7fdxyVYbccJ2Bhhk9BtJcxOdS_j0Yy6I2WJHbvbT8GODa45JDbFHxDyzfmbWvEVk1kK-F6tl1tJ6HPt08keJj1WV176oaXWohvuz2BlTHlDUpyABLEc5Mh8NTke483UHiudvHFINd_JxfbGozBYuc6shkGO8kazvk8ph34wBCLjFSI-Pud8xVVUqGz_kZcjW3Of9Z0Xn4lSjLhSV2-377rdhgFOwZcVRXOyA3vR42cGPgbQuxUOTtpOKfxQe9riUA2678sQvsm1T1Rwf1RP8_AGcMwkqzgf3lSyToh80kC2PfWUCgvurOW1Phu5EjLbumslKnrX3cfYCmD1t3i4pDNu7XAFkUXPRzzDY5BWh5e9Zz0MQVqxRcvafKDRTNv6ZDBImczHMhIPixv2ZR6tM4i0N5fDA8g5jySBPrV4peJ1MsJjiAeSiRwEAXzZo4wjrA-UaTTpLw7xv3xRMwhZFGN5TegC4tDwYkj2GTZV2bIIRNuwk6VZ0OTS1OSwFb0NafnZMn4-RFa3eWtkX0-GDAh-CrQQNgdw6je3719-7KkU-g_wc8VS_0gPX0xgF_?></g></svg>