<svg xmlns="http://www.w3.org/2000/svg" xmlns:xlink="http://www.w3.org/1999/xlink" contentStyleType="text/css" data-diagram-type="CLASS" height="993px" preserveAspectRatio="none" style="width:654px;height:993px;background:#FFFFFF;" version="1.1" viewBox="0 0 654 993" width="654px" zoomAndPan="magnify"><?plantuml 1.2026.3?><defs/><g><g class="title" data-source-line="1"><text fill="#000000" font-family="sans-serif" font-size="14" font-weight="700" lengthAdjust="spacing" textLength="47.4619" x="299.7905" y="24.5332">Person</text></g><!--class Person--><g class="entity" data-qualified-name="Person" data-source-line="16" id="ent0002"><rect fill="#FEFECE" height="244.4063" rx="2.5" ry="2.5" style="stroke:#404040;stroke-width:0.5;" width="469.9189" x="57" y="390.6094"/><text fill="#000000" font-family="sans-serif" font-size="30" lengthAdjust="spacing" textLength="95.0537" x="244.4326" y="426.752">Person</text><line style="stroke:#404040;stroke-width:0.5;" x1="58" x2="525.9189" y1="438.3438" y2="438.3438"/><g data-visibility-modifier="PUBLIC_FIELD"><ellipse cx="68" cy="462.7109" fill="none" rx="3" ry="3" style="stroke:#038048;stroke-width:1;"/></g><text fill="#000000" font-family="sans-serif" font-size="30" lengthAdjust="spacing" textLength="318.4863" x="84" y="473.4863">description : string [0..1]</text><g data-visibility-modifier="PUBLIC_FIELD"><ellipse cx="68" cy="500.4453" fill="none" rx="3" ry="3" style="stroke:#038048;stroke-width:1;"/></g><text fill="#000000" font-family="sans-serif" font-size="30" lengthAdjust="spacing" textLength="370.1807" x="84" y="511.2207">alternateName : string [0..1]</text><g data-visibility-modifier="PUBLIC_FIELD"><ellipse cx="68" cy="538.1797" fill="none" rx="3" ry="3" style="stroke:#038048;stroke-width:1;"/></g><text fill="#000000" font-family="sans-serif" font-size="30" lengthAdjust="spacing" textLength="388.5498" x="84" y="548.9551">affiliation : Organization [0..1]</text><g data-visibility-modifier="PUBLIC_FIELD"><ellipse cx="68" cy="575.9141" fill="none" rx="3" ry="3" style="stroke:#038048;stroke-width:1;"/></g><text fill="#000000" font-family="sans-serif" font-size="30" lengthAdjust="spacing" textLength="436.9189" x="84" y="586.6895">contactPoint : ContactPoint [0..1]</text><g data-visibility-modifier="PUBLIC_FIELD"><ellipse cx="68" cy="613.6484" fill="none" rx="3" ry="3" style="stroke:#038048;stroke-width:1;"/></g><text fill="#000000" font-family="sans-serif" font-size="30" lengthAdjust="spacing" textLength="318.4717" x="84" y="624.4238">sameAs : Identifier [0..*]</text></g><!--class Agent--><g class="entity" data-qualified-name="Agent" data-source-line="23" id="ent0003"><rect fill="#D6EAF8" height="47.7344" rx="2.5" ry="2.5" style="stroke:#404040;stroke-width:0.5;" width="84.3984" x="214" y="45.6094"/><text fill="#000000" font-family="sans-serif" font-size="30" font-style="italic" lengthAdjust="spacing" textLength="78.3984" x="217" y="81.752">Agent</text></g><!--class ProvActivity--><g class="entity" data-qualified-name="ProvActivity" data-source-line="25" id="ent0005"><rect fill="#EEEEEE" height="47.7344" rx="2.5" ry="2.5" style="stroke:#404040;stroke-width:0.5;" width="162.6943" x="322.5" y="45.6094"/><text fill="#000000" font-family="sans-serif" font-size="30" lengthAdjust="spacing" textLength="156.6943" x="325.5" y="81.752">ProvActivity</text></g><!--class Organization--><g class="entity" data-qualified-name="Organization" data-source-line="28" id="ent0008"><rect fill="#EEEEEE" height="47.7344" rx="2.5" ry="2.5" style="stroke:#404040;stroke-width:0.5;" width="176.0977" x="7" y="931.6094"/><text fill="#000000" font-family="sans-serif" font-size="30" lengthAdjust="spacing" textLength="170.0977" x="10" y="967.752">Organization</text></g><!--class ContactPoint--><g class="entity" data-qualified-name="ContactPoint" data-source-line="30" id="ent0010"><rect fill="#EEEEEE" height="47.7344" rx="2.5" ry="2.5" style="stroke:#404040;stroke-width:0.5;" width="177.7676" x="203" y="931.6094"/><text fill="#000000" font-family="sans-serif" font-size="30" lengthAdjust="spacing" textLength="171.7676" x="206" y="967.752">ContactPoint</text></g><!--class Identifier--><g class="entity" data-qualified-name="Identifier" data-source-line="32" id="ent0012"><rect fill="#EEEEEE" height="47.7344" rx="2.5" ry="2.5" style="stroke:#404040;stroke-width:0.5;" width="121.0635" x="456.5" y="931.6094"/><text fill="#000000" font-family="sans-serif" font-size="30" lengthAdjust="spacing" textLength="115.0635" x="459.5" y="967.752">Identifier</text></g><!--reverse link Agent to Person--><g class="link" data-entity-1="ent0003" data-entity-2="ent0002" data-link-type="extension" data-source-line="24" id="lnk4"><path codeLine="24" d="M259.0573,111.6796 C261.7773,148.1896 265.96,203.5094 271,265.6094 C274.3,306.2994 278.05,350.7694 281.46,390.5694" fill="none" id="Agent-backto-Person" style="stroke:#404040;stroke-width:1.2;"/><polygon fill="none" points="257.72,93.7294,253.0739,112.1254,265.0407,111.2339,257.72,93.7294" style="stroke:#404040;stroke-width:1.2;"/></g><!--link ProvActivity to Person--><g class="link" data-entity-1="ent0005" data-entity-2="ent0002" data-link-type="dependency" data-source-line="26" id="lnk6"><path codeLine="26" d="M378.52,93.8194 C351.06,120.7294 309.02,167.8994 292,218.6094 C273.71,273.0994 271.1922,330.5907 274.5022,384.4907" fill="none" id="ProvActivity-to-Person" style="stroke:#404040;stroke-width:1.2;"/><polygon fill="#404040" points="274.87,390.4794,278.3108,381.2511,274.5635,385.4888,270.3259,381.7415,274.87,390.4794" style="stroke:#404040;stroke-width:1.2;"/><text fill="#000000" font-family="sans-serif" font-size="36" lengthAdjust="spacing" textLength="90.0879" x="293" y="256.9805">agent</text><text fill="#000000" font-family="sans-serif" font-size="36" lengthAdjust="spacing" textLength="60.0469" x="212.149" y="374.4854">0..1</text></g><!--link ProvActivity to Person--><g class="link" data-entity-1="ent0005" data-entity-2="ent0002" data-link-type="dependency" data-source-line="27" id="lnk7"><path codeLine="27" d="M403.71,93.7394 C402.82,130.5894 399.22,204.6594 385,265.6094 C375.3,307.1794 362.4471,345.6044 347.2871,384.7444" fill="none" id="ProvActivity-to-Person-1" style="stroke:#404040;stroke-width:1.2;"/><polygon fill="#404040" points="345.12,390.3394,352.1006,383.3916,346.9259,385.6769,344.6406,380.5022,345.12,390.3394" style="stroke:#404040;stroke-width:1.2;"/><text fill="#000000" font-family="sans-serif" font-size="36" lengthAdjust="spacing" textLength="166.0957" x="395" y="256.9805">participant</text><text fill="#000000" font-family="sans-serif" font-size="36" lengthAdjust="spacing" textLength="54.0352" x="292.5516" y="374.7899">0..*</text></g><!--link Person to Organization--><g class="link" data-entity-1="ent0002" data-entity-2="ent0008" data-link-type="dependency" data-source-line="29" id="lnk9"><path codeLine="29" d="M208.56,634.8894 C184.78,673.4694 160.59,717.1694 143,759.6094 C118.37,819.0294 105.2523,888.1638 99.3223,925.4538" fill="none" id="Person-to-Organization" style="stroke:#404040;stroke-width:1.2;"/><polygon fill="#404040" points="98.38,931.3794,103.7438,923.1193,99.1653,926.4414,95.8431,921.8629,98.38,931.3794" style="stroke:#404040;stroke-width:1.2;"/><text fill="#000000" font-family="sans-serif" font-size="36" lengthAdjust="spacing" textLength="142.084" x="144" y="797.9805">affiliation</text><text fill="#000000" font-family="sans-serif" font-size="36" lengthAdjust="spacing" textLength="60.0469" x="33.8003" y="915.7657">0..1</text></g><!--link Person to ContactPoint--><g class="link" data-entity-1="ent0002" data-entity-2="ent0010" data-link-type="dependency" data-source-line="31" id="lnk11"><path codeLine="31" d="M292,634.6994 C292,737.4594 292,870.6494 292,925.2594" fill="none" id="Person-to-ContactPoint" style="stroke:#404040;stroke-width:1.2;"/><polygon fill="#404040" points="292,931.2594,296,922.2594,292,926.2594,288,922.2594,292,931.2594" style="stroke:#404040;stroke-width:1.2;"/><text fill="#000000" font-family="sans-serif" font-size="36" lengthAdjust="spacing" textLength="198.123" x="293" y="797.9805">contactPoint</text><text fill="#000000" font-family="sans-serif" font-size="36" lengthAdjust="spacing" textLength="60.0469" x="226.8678" y="915.6251">0..1</text></g><!--link Person to Identifier--><g class="link" data-entity-1="ent0002" data-entity-2="ent0012" data-link-type="dependency" data-source-line="33" id="lnk13"><path codeLine="33" d="M413.44,634.7294 C444.22,671.9594 473.93,714.9794 493,759.6094 C517.79,817.6394 519.4619,887.6318 518.3819,925.3218" fill="none" id="Person-to-Identifier" style="stroke:#404040;stroke-width:1.2;"/><polygon fill="#404040" points="518.21,931.3194,522.4661,922.4376,518.3532,926.3214,514.4694,922.2085,518.21,931.3194" style="stroke:#404040;stroke-width:1.2;"/><text fill="#000000" font-family="sans-serif" font-size="36" lengthAdjust="spacing" textLength="130.043" x="508" y="797.9805">sameAs</text><text fill="#000000" font-family="sans-serif" font-size="36" lengthAdjust="spacing" textLength="54.0352" x="459.7749" y="915.6954">0..*</text></g><?plantuml-src TL9DJ-Cm4BtxLupI6wXL-LY4448A9PMui4XmGnnSPzAEcjYHFO1WT__xJfs6E0YIY_tUyvln6pDnZN2FFZYhDbGY6FAcncwDJSllq62p4e4AMxAjzhg1iD6bUoExXahN0HCczzwzFMx8R2s604UpuuJqscu3jd3yQvwWrfKOqHGiiT8lDI-TvGVwG3WvIqXJQ_7-ew0hjt2ryp0vdUz-0Q-TBz5_HLChESZiQVN2EC1pzK-fpZhh0ib0XtqsC5aMos9HnAg7qh3nr389SG51h2IAf_biTlIyetNDwArclDCDVYkeAgf9xy__zcjjwQFR3Y8ZdMd3zuuiYsgHRWTLa19v4FwsHCjK4Vh87ZpBTVHAIikXVM9PlXPDl5LSmUJchCYNvwhRNVwTJlkdqEVWtMjkc5w9txiq4W0cHVpK29nEho3RjPVrqLs0tlb_Bpj8P39T9aEj5l6-WJIRsC0ehCy6EeUaz4Wc3Go1zyvfdj5v5F3FpelnMD8fzTR3AA9nCfaVR2M4H2GF9WvL_GS0?></g></svg>