<svg xmlns="http://www.w3.org/2000/svg" xmlns:xlink="http://www.w3.org/1999/xlink" contentStyleType="text/css" data-diagram-type="CLASS" height="290px" preserveAspectRatio="none" style="width:915px;height:290px;background:#FFFFFF;" version="1.1" viewBox="0 0 915 290" width="915px" zoomAndPan="magnify"><?plantuml 1.2026.3?><defs/><g><g class="title" data-source-line="1"><text fill="#000000" font-family="sans-serif" font-size="14" font-weight="700" lengthAdjust="spacing" textLength="181.7334" x="363.5828" y="24.5332">CDIFDiscovery &#8212; overview</text></g><!--class Dataset--><g class="entity" data-qualified-name="Dataset" data-source-line="12" id="ent0002"><rect fill="#FEFECE" height="25.0938" rx="2.5" ry="2.5" style="stroke:#404040;stroke-width:0.5;" width="47.3555" x="420.5" y="45.6094"/><text fill="#000000" font-family="sans-serif" font-size="12" lengthAdjust="spacing" textLength="41.3555" x="423.5" y="63.0664">Dataset</text></g><!--class CatalogRecord--><g class="entity" data-qualified-name="CatalogRecord" data-source-line="13" id="ent0003"><rect fill="#FEFECE" height="25.0938" rx="2.5" ry="2.5" style="stroke:#404040;stroke-width:0.5;" width="86.0449" x="7" y="148.6094"/><text fill="#000000" font-family="sans-serif" font-size="12" lengthAdjust="spacing" textLength="80.0449" x="10" y="166.0664">CatalogRecord</text></g><!--class DefinedTerm--><g class="entity" data-qualified-name="DefinedTerm" data-source-line="14" id="ent0004"><rect fill="#D5F5E3" height="25.0938" rx="2.5" ry="2.5" style="stroke:#404040;stroke-width:0.5;" width="75.3574" x="154.5" y="251.6094"/><text fill="#000000" font-family="sans-serif" font-size="12" lengthAdjust="spacing" textLength="69.3574" x="157.5" y="269.0664">DefinedTerm</text></g><!--class VariableMeasured--><g class="entity" data-qualified-name="VariableMeasured" data-source-line="15" id="ent0005"><rect fill="#D5F5E3" height="25.0938" rx="2.5" ry="2.5" style="stroke:#404040;stroke-width:0.5;" width="103.3887" x="340.5" y="148.6094"/><text fill="#000000" font-family="sans-serif" font-size="12" lengthAdjust="spacing" textLength="97.3887" x="343.5" y="166.0664">VariableMeasured</text></g><!--class SpatialExtent--><g class="entity" data-qualified-name="SpatialExtent" data-source-line="16" id="ent0006"><rect fill="#D5F5E3" height="25.0938" rx="2.5" ry="2.5" style="stroke:#404040;stroke-width:0.5;" width="76.7109" x="478.5" y="148.6094"/><text fill="#000000" font-family="sans-serif" font-size="12" lengthAdjust="spacing" textLength="70.7109" x="481.5" y="166.0664">SpatialExtent</text></g><!--class TemporalExtent--><g class="entity" data-qualified-name="TemporalExtent" data-source-line="17" id="ent0007"><rect fill="#D5F5E3" height="25.0938" rx="2.5" ry="2.5" style="stroke:#404040;stroke-width:0.5;" width="90.7031" x="606.5" y="148.6094"/><text fill="#000000" font-family="sans-serif" font-size="12" lengthAdjust="spacing" textLength="84.7031" x="609.5" y="166.0664">TemporalExtent</text></g><!--class QualityMeasure--><g class="entity" data-qualified-name="QualityMeasure" data-source-line="18" id="ent0008"><rect fill="#D5F5E3" height="25.0938" rx="2.5" ry="2.5" style="stroke:#404040;stroke-width:0.5;" width="90.0352" x="755" y="148.6094"/><text fill="#000000" font-family="sans-serif" font-size="12" lengthAdjust="spacing" textLength="84.0352" x="758" y="166.0664">QualityMeasure</text></g><!--reverse link Dataset to CatalogRecord--><g class="link" data-entity-1="ent0002" data-entity-2="ent0003" data-link-type="composition" data-source-line="19" id="lnk9"><path codeLine="19" d="M408.43,59.0011 C336.99,59.0711 136.41,62.5294 81,100.6094 C64.68,111.8294 56.37,134.3794 52.62,148.2694" fill="none" id="Dataset-backto-CatalogRecord" style="stroke:#404040;stroke-width:1.2;"/><polygon fill="#404040" points="420.43,58.9894,414.4261,54.9953,408.43,59.0011,414.4339,62.9953,420.43,58.9894" style="stroke:#404040;stroke-width:1.2;"/><text fill="#000000" font-family="sans-serif" font-size="13" lengthAdjust="spacing" textLength="54.9136" x="82" y="115.1045">subjectOf</text><text fill="#000000" font-family="sans-serif" font-size="13" lengthAdjust="spacing" textLength="7.23" x="45.3198" y="137.8684">1</text></g><!--link Dataset to DefinedTerm--><g class="link" data-entity-1="ent0002" data-entity-2="ent0004" data-link-type="dependency" data-source-line="20" id="lnk10"><path codeLine="20" d="M420.21,58.8194 C366.74,59.6194 237.3,69.9794 181,148.6094 C158.56,179.9494 173.7468,223.6383 183.7868,245.9383" fill="none" id="Dataset-to-DefinedTerm" style="stroke:#404040;stroke-width:1.2;"/><polygon fill="#404040" points="186.25,251.4094,186.2026,241.5606,184.1973,246.8502,178.9078,244.8449,186.25,251.4094" style="stroke:#404040;stroke-width:1.2;"/><text fill="#000000" font-family="sans-serif" font-size="13" lengthAdjust="spacing" textLength="140.188" x="182" y="166.6045">measurementTechnique</text><text fill="#000000" font-family="sans-serif" font-size="13" lengthAdjust="spacing" textLength="19.5127" x="161.2759" y="240.8046">0..*</text></g><!--reverse link Dataset to VariableMeasured--><g class="link" data-entity-1="ent0002" data-entity-2="ent0005" data-link-type="composition" data-source-line="21" id="lnk11"><path codeLine="21" d="M409.089,68.9538 C391.499,74.8338 380.03,81.8894 369,100.6094 C359.89,116.0694 371.52,135.7894 381.29,148.1894" fill="none" id="Dataset-backto-VariableMeasured" style="stroke:#404040;stroke-width:1.2;"/><polygon fill="#404040" points="420.47,65.1494,413.5114,63.2579,409.089,68.9538,416.0477,70.8452,420.47,65.1494" style="stroke:#404040;stroke-width:1.2;"/><text fill="#000000" font-family="sans-serif" font-size="13" lengthAdjust="spacing" textLength="103.3335" x="370" y="115.1045">variableMeasured</text><text fill="#000000" font-family="sans-serif" font-size="13" lengthAdjust="spacing" textLength="19.5127" x="354.6086" y="137.7579">0..*</text></g><!--reverse link Dataset to SpatialExtent--><g class="link" data-entity-1="ent0002" data-entity-2="ent0006" data-link-type="composition" data-source-line="22" id="lnk12"><path codeLine="22" d="M461.9354,79.9696 C468.8854,88.1396 470.39,90.2494 478,100.6094 C489.84,116.7394 502.31,136.2794 509.88,148.4594" fill="none" id="Dataset-backto-SpatialExtent" style="stroke:#404040;stroke-width:1.2;"/><polygon fill="#404040" points="454.16,70.8294,455.0009,77.9913,461.9354,79.9696,461.0944,72.8077,454.16,70.8294" style="stroke:#404040;stroke-width:1.2;"/><text fill="#000000" font-family="sans-serif" font-size="13" lengthAdjust="spacing" textLength="93.9453" x="492" y="115.1045">spatialCoverage</text><text fill="#000000" font-family="sans-serif" font-size="13" lengthAdjust="spacing" textLength="19.5127" x="484.4937" y="137.8743">0..*</text></g><!--reverse link Dataset to TemporalExtent--><g class="link" data-entity-1="ent0002" data-entity-2="ent0007" data-link-type="composition" data-source-line="23" id="lnk13"><path codeLine="23" d="M479.4753,63.4049 C510.3453,67.7049 553.42,76.6094 594,100.6094 C614.86,112.9494 633.32,134.7194 643.55,148.2194" fill="none" id="Dataset-backto-TemporalExtent" style="stroke:#404040;stroke-width:1.2;"/><polygon fill="#404040" points="467.59,61.7494,472.9808,66.5389,479.4753,63.4049,474.0845,58.6154,467.59,61.7494" style="stroke:#404040;stroke-width:1.2;"/><text fill="#000000" font-family="sans-serif" font-size="13" lengthAdjust="spacing" textLength="106.9453" x="617" y="115.1045">temporalCoverage</text><text fill="#000000" font-family="sans-serif" font-size="13" lengthAdjust="spacing" textLength="19.5127" x="617.8609" y="137.7993">0..*</text></g><!--reverse link Dataset to QualityMeasure--><g class="link" data-entity-1="ent0002" data-entity-2="ent0008" data-link-type="composition" data-source-line="24" id="lnk14"><path codeLine="24" d="M479.6562,61.689 C539.7762,66.209 684.84,78.9294 732,100.6094 C756.23,111.7494 778.27,134.3294 790.34,148.2494" fill="none" id="Dataset-backto-QualityMeasure" style="stroke:#404040;stroke-width:1.2;"/><polygon fill="#404040" points="467.69,60.7894,473.3732,65.2279,479.6562,61.689,473.973,57.2505,467.69,60.7894" style="stroke:#404040;stroke-width:1.2;"/><text fill="#000000" font-family="sans-serif" font-size="13" lengthAdjust="spacing" textLength="140.8989" x="759" y="115.1045">hasQualityMeasurement</text><text fill="#000000" font-family="sans-serif" font-size="13" lengthAdjust="spacing" textLength="19.5127" x="764.1263" y="137.8408">0..*</text></g><!--link VariableMeasured to DefinedTerm--><g class="link" data-entity-1="ent0005" data-entity-2="ent0004" data-link-type="dependency" data-source-line="25" id="lnk15"><path codeLine="25" d="M369.06,173.6994 C330.58,193.1294 258.8462,229.3555 220.3362,248.7955" fill="none" id="VariableMeasured-to-DefinedTerm" style="stroke:#404040;stroke-width:1.2;"/><polygon fill="#404040" points="214.98,251.4994,224.8169,251.0144,219.4435,249.2462,221.2118,243.8728,214.98,251.4994" style="stroke:#404040;stroke-width:1.2;"/><text fill="#000000" font-family="sans-serif" font-size="13" lengthAdjust="spacing" textLength="140.188" x="305" y="218.1045">measurementTechnique</text><text fill="#000000" font-family="sans-serif" font-size="13" lengthAdjust="spacing" textLength="21.6836" x="199.1953" y="240.546">0..1</text></g><?plantuml-src ZPBVJi8m5CRlznGduuvaXA7SxC94zoVnmXXbyRvq1rRfLcmx48s93-4J-YGMnf0MOanlJd_zljFJBzLCSuGukSqIfgXOeTp0z-SNRAiLmxLNiWA1CaavjZLMIxs12gifIkMf1QkNH98AL4aAiMRr76Q4ApmwkPPIhFEIqKMDIa4u61qTKauCU_UWbSM22mczo-5s6NWZP87IfPcezOIz8OGZxyFpsXv-GZHHg7qW2lOrzB8qI-EqayG6Sp5_H6hwxeGMSUK9pbYDHOwoQhl-xg6NZBDnUj59duXaPChn3ebg9BRDNUYQ9akY6U7fgyQwdTiYhZmtsGjfwMta6XuQmfdUxA_V6MnqC7HvzOC0_D1tOeb0DTDdfFf-Tb06mHNumy6WxrknHEPhx5fNPfuSQLcpbmRj_gth99m8LWuwPxCJCfEr-tZxOydyx4rEI17eFVZBv0GLGKcKpROlz4vUqUKI_YkN7m00?></g></svg>