<svg xmlns="http://www.w3.org/2000/svg" xmlns:xlink="http://www.w3.org/1999/xlink" contentStyleType="text/css" data-diagram-type="CLASS" height="376px" preserveAspectRatio="none" style="width:1850px;height:376px;background:#FFFFFF;" version="1.1" viewBox="0 0 1850 376" width="1850px" zoomAndPan="magnify"><?plantuml 1.2026.3?><defs/><g><g class="title" data-source-line="1"><text fill="#000000" font-family="sans-serif" font-size="14" font-weight="700" lengthAdjust="spacing" textLength="181.7334" x="830.6558" y="24.5332">CDIFDiscovery &#8212; overview</text></g><!--class Dataset--><g class="entity" data-qualified-name="Dataset" data-source-line="12" id="ent0002"><rect fill="#FEFECE" height="25.0938" rx="2.5" ry="2.5" style="stroke:#404040;stroke-width:0.5;" width="47.3555" x="1023.5" y="45.6094"/><text fill="#000000" font-family="sans-serif" font-size="12" lengthAdjust="spacing" textLength="41.3555" x="1026.5" y="63.0664">Dataset</text></g><!--class VariableMeasured--><g class="entity" data-qualified-name="VariableMeasured" data-source-line="13" id="ent0003"><rect fill="#FEFECE" height="25.0938" rx="2.5" ry="2.5" style="stroke:#404040;stroke-width:0.5;" width="103.3887" x="146.5" y="148.6094"/><text fill="#000000" font-family="sans-serif" font-size="12" lengthAdjust="spacing" textLength="97.3887" x="149.5" y="166.0664">VariableMeasured</text></g><!--class SpatialExtent--><g class="entity" data-qualified-name="SpatialExtent" data-source-line="14" id="ent0004"><rect fill="#FEFECE" height="25.0938" rx="2.5" ry="2.5" style="stroke:#404040;stroke-width:0.5;" width="76.7109" x="304.5" y="148.6094"/><text fill="#000000" font-family="sans-serif" font-size="12" lengthAdjust="spacing" textLength="70.7109" x="307.5" y="166.0664">SpatialExtent</text></g><!--class AbstractGeometry--><g class="entity" data-qualified-name="AbstractGeometry" data-source-line="15" id="ent0005"><rect fill="#FEFECE" height="25.0938" rx="2.5" ry="2.5" style="stroke:#404040;stroke-width:0.5;" width="102.6973" x="291.5" y="251.6094"/><text fill="#000000" font-family="sans-serif" font-size="12" font-style="italic" lengthAdjust="spacing" textLength="96.6973" x="294.5" y="269.0664">AbstractGeometry</text></g><!--class GeoCoordinates--><g class="entity" data-qualified-name="GeoCoordinates" data-source-line="16" id="ent0006"><rect fill="#FEFECE" height="25.0938" rx="2.5" ry="2.5" style="stroke:#404040;stroke-width:0.5;" width="93.3867" x="240.5" y="337.6094"/><text fill="#000000" font-family="sans-serif" font-size="12" lengthAdjust="spacing" textLength="87.3867" x="243.5" y="355.0664">GeoCoordinates</text></g><!--class GeoShape--><g class="entity" data-qualified-name="GeoShape" data-source-line="17" id="ent0007"><rect fill="#FEFECE" height="25.0938" rx="2.5" ry="2.5" style="stroke:#404040;stroke-width:0.5;" width="63.3809" x="368.5" y="337.6094"/><text fill="#000000" font-family="sans-serif" font-size="12" lengthAdjust="spacing" textLength="57.3809" x="371.5" y="355.0664">GeoShape</text></g><!--class TemporalExtent--><g class="entity" data-qualified-name="TemporalExtent" data-source-line="18" id="ent0008"><rect fill="#FEFECE" height="25.0938" rx="2.5" ry="2.5" style="stroke:#404040;stroke-width:0.5;" width="90.7031" x="432.5" y="148.6094"/><text fill="#000000" font-family="sans-serif" font-size="12" lengthAdjust="spacing" textLength="84.7031" x="435.5" y="166.0664">TemporalExtent</text></g><!--class QualityMeasure--><g class="entity" data-qualified-name="QualityMeasure" data-source-line="19" id="ent0009"><rect fill="#FEFECE" height="25.0938" rx="2.5" ry="2.5" style="stroke:#404040;stroke-width:0.5;" width="90.0352" x="575" y="148.6094"/><text fill="#000000" font-family="sans-serif" font-size="12" lengthAdjust="spacing" textLength="84.0352" x="578" y="166.0664">QualityMeasure</text></g><!--class Concept--><g class="entity" data-qualified-name="Concept" data-source-line="20" id="ent0010"><rect fill="#FEFECE" height="25.0938" rx="2.5" ry="2.5" style="stroke:#404040;stroke-width:0.5;" width="50.6953" x="33.5" y="45.6094"/><text fill="#000000" font-family="sans-serif" font-size="12" lengthAdjust="spacing" textLength="44.6953" x="36.5" y="63.0664">Concept</text></g><!--class Identifier--><g class="entity" data-qualified-name="Identifier" data-source-line="21" id="ent0011"><rect fill="#FEFECE" height="25.0938" rx="2.5" ry="2.5" style="stroke:#404040;stroke-width:0.5;" width="52.0254" x="120" y="45.6094"/><text fill="#000000" font-family="sans-serif" font-size="12" lengthAdjust="spacing" textLength="46.0254" x="123" y="63.0664">Identifier</text></g><!--class DefinedTerm--><g class="entity" data-qualified-name="DefinedTerm" data-source-line="22" id="ent0012"><rect fill="#FEFECE" height="25.0938" rx="2.5" ry="2.5" style="stroke:#404040;stroke-width:0.5;" width="75.3574" x="700.5" y="148.6094"/><text fill="#000000" font-family="sans-serif" font-size="12" lengthAdjust="spacing" textLength="69.3574" x="703.5" y="166.0664">DefinedTerm</text></g><!--class AbstractDistribution--><g class="entity" data-qualified-name="AbstractDistribution" data-source-line="23" id="ent0013"><rect fill="#FEFECE" height="25.0938" rx="2.5" ry="2.5" style="stroke:#404040;stroke-width:0.5;" width="110.0391" x="811" y="148.6094"/><text fill="#000000" font-family="sans-serif" font-size="12" font-style="italic" lengthAdjust="spacing" textLength="104.0391" x="814" y="166.0664">AbstractDistribution</text></g><!--class DataDownload--><g class="entity" data-qualified-name="DataDownload" data-source-line="24" id="ent0014"><rect fill="#FEFECE" height="25.0938" rx="2.5" ry="2.5" style="stroke:#404040;stroke-width:0.5;" width="84.7148" x="762.5" y="251.6094"/><text fill="#000000" font-family="sans-serif" font-size="12" lengthAdjust="spacing" textLength="78.7148" x="765.5" y="269.0664">DataDownload</text></g><!--class WebAPI--><g class="entity" data-qualified-name="WebAPI" data-source-line="25" id="ent0015"><rect fill="#FEFECE" height="25.0938" rx="2.5" ry="2.5" style="stroke:#404040;stroke-width:0.5;" width="50.0156" x="883" y="251.6094"/><text fill="#000000" font-family="sans-serif" font-size="12" lengthAdjust="spacing" textLength="44.0156" x="886" y="269.0664">WebAPI</text></g><!--class Agent--><g class="entity" data-qualified-name="Agent" data-source-line="26" id="ent0016"><rect fill="#FEFECE" height="25.0938" rx="2.5" ry="2.5" style="stroke:#404040;stroke-width:0.5;" width="37.3594" x="1129.5" y="251.6094"/><text fill="#000000" font-family="sans-serif" font-size="12" font-style="italic" lengthAdjust="spacing" textLength="31.3594" x="1132.5" y="269.0664">Agent</text></g><!--class Person--><g class="entity" data-qualified-name="Person" data-source-line="27" id="ent0017"><rect fill="#FEFECE" height="25.0938" rx="2.5" ry="2.5" style="stroke:#404040;stroke-width:0.5;" width="44.0215" x="1079" y="337.6094"/><text fill="#000000" font-family="sans-serif" font-size="12" lengthAdjust="spacing" textLength="38.0215" x="1082" y="355.0664">Person</text></g><!--class Organization--><g class="entity" data-qualified-name="Organization" data-source-line="28" id="ent0018"><rect fill="#FEFECE" height="25.0938" rx="2.5" ry="2.5" style="stroke:#404040;stroke-width:0.5;" width="74.0391" x="1158" y="337.6094"/><text fill="#000000" font-family="sans-serif" font-size="12" lengthAdjust="spacing" textLength="68.0391" x="1161" y="355.0664">Organization</text></g><!--class Contributor--><g class="entity" data-qualified-name="Contributor" data-source-line="29" id="ent0019"><rect fill="#FEFECE" height="25.0938" rx="2.5" ry="2.5" style="stroke:#404040;stroke-width:0.5;" width="65.3613" x="1192.5" y="148.6094"/><text fill="#000000" font-family="sans-serif" font-size="12" lengthAdjust="spacing" textLength="59.3613" x="1195.5" y="166.0664">Contributor</text></g><!--class AdditionalProperty--><g class="entity" data-qualified-name="AdditionalProperty" data-source-line="30" id="ent0020"><rect fill="#FEFECE" height="25.0938" rx="2.5" ry="2.5" style="stroke:#404040;stroke-width:0.5;" width="104.0566" x="7" y="148.6094"/><text fill="#000000" font-family="sans-serif" font-size="12" lengthAdjust="spacing" textLength="98.0566" x="10" y="166.0664">AdditionalProperty</text></g><!--class Reference--><g class="entity" data-qualified-name="Reference" data-source-line="31" id="ent0021"><rect fill="#FEFECE" height="25.0938" rx="2.5" ry="2.5" style="stroke:#404040;stroke-width:0.5;" width="61.3652" x="1292.5" y="148.6094"/><text fill="#000000" font-family="sans-serif" font-size="12" lengthAdjust="spacing" textLength="55.3652" x="1295.5" y="166.0664">Reference</text></g><!--class MonetaryGrant--><g class="entity" data-qualified-name="MonetaryGrant" data-source-line="32" id="ent0022"><rect fill="#FEFECE" height="25.0938" rx="2.5" ry="2.5" style="stroke:#404040;stroke-width:0.5;" width="86.0332" x="1389" y="148.6094"/><text fill="#000000" font-family="sans-serif" font-size="12" lengthAdjust="spacing" textLength="80.0332" x="1392" y="166.0664">MonetaryGrant</text></g><!--class ProvActivity--><g class="entity" data-qualified-name="ProvActivity" data-source-line="33" id="ent0023"><rect fill="#FEFECE" height="25.0938" rx="2.5" ry="2.5" style="stroke:#404040;stroke-width:0.5;" width="68.6777" x="1510.5" y="148.6094"/><text fill="#000000" font-family="sans-serif" font-size="12" lengthAdjust="spacing" textLength="62.6777" x="1513.5" y="166.0664">ProvActivity</text></g><!--class DerivedFrom--><g class="entity" data-qualified-name="DerivedFrom" data-source-line="34" id="ent0024"><rect fill="#FEFECE" height="25.0938" rx="2.5" ry="2.5" style="stroke:#404040;stroke-width:0.5;" width="75.3457" x="1614.5" y="148.6094"/><text fill="#000000" font-family="sans-serif" font-size="12" lengthAdjust="spacing" textLength="69.3457" x="1617.5" y="166.0664">DerivedFrom</text></g><!--class CatalogRecord--><g class="entity" data-qualified-name="CatalogRecord" data-source-line="35" id="ent0025"><rect fill="#FEFECE" height="25.0938" rx="2.5" ry="2.5" style="stroke:#404040;stroke-width:0.5;" width="86.0449" x="1749" y="148.6094"/><text fill="#000000" font-family="sans-serif" font-size="12" lengthAdjust="spacing" textLength="80.0449" x="1752" y="166.0664">CatalogRecord</text></g><!--reverse link AbstractGeometry to GeoCoordinates--><g class="link" data-entity-1="ent0005" data-entity-2="ent0006" data-link-type="extension" data-source-line="36" id="lnk26"><path codeLine="36" d="M325.2254,291.7663 C314.5254,307.8163 305.38,321.5294 294.72,337.5294" fill="none" id="AbstractGeometry-backto-GeoCoordinates" style="stroke:#404040;stroke-width:1.2;"/><polygon fill="none" points="335.21,276.7894,320.2331,288.4381,330.2177,295.0945,335.21,276.7894" style="stroke:#404040;stroke-width:1.2;"/></g><!--reverse link AbstractGeometry to GeoShape--><g class="link" data-entity-1="ent0005" data-entity-2="ent0007" data-link-type="extension" data-source-line="37" id="lnk27"><path codeLine="37" d="M361.0363,291.6844 C371.9263,307.7344 381.29,321.5294 392.14,337.5294" fill="none" id="AbstractGeometry-backto-GeoShape" style="stroke:#404040;stroke-width:1.2;"/><polygon fill="none" points="350.93,276.7894,356.0713,295.0532,366.0014,288.3156,350.93,276.7894" style="stroke:#404040;stroke-width:1.2;"/></g><!--reverse link AbstractDistribution to DataDownload--><g class="link" data-entity-1="ent0013" data-entity-2="ent0014" data-link-type="extension" data-source-line="38" id="lnk28"><path codeLine="38" d="M849.6935,189.1068 C837.9935,208.4768 823.88,231.8494 812.1,251.3494" fill="none" id="AbstractDistribution-backto-DataDownload" style="stroke:#404040;stroke-width:1.2;"/><polygon fill="none" points="859,173.6994,844.5577,186.0046,854.8293,192.209,859,173.6994" style="stroke:#404040;stroke-width:1.2;"/></g><!--reverse link AbstractDistribution to WebAPI--><g class="link" data-entity-1="ent0013" data-entity-2="ent0015" data-link-type="extension" data-source-line="39" id="lnk29"><path codeLine="39" d="M877.7352,190.3181 C885.7952,209.6881 895,231.8494 903.11,251.3494" fill="none" id="AbstractDistribution-backto-WebAPI" style="stroke:#404040;stroke-width:1.2;"/><polygon fill="none" points="870.82,173.6994,872.1956,192.6231,883.2747,188.013,870.82,173.6994" style="stroke:#404040;stroke-width:1.2;"/></g><!--reverse link Agent to Person--><g class="link" data-entity-1="ent0016" data-entity-2="ent0017" data-link-type="extension" data-source-line="40" id="lnk30"><path codeLine="40" d="M1132.6786,292.502 C1123.7086,308.552 1116.43,321.5294 1107.48,337.5294" fill="none" id="Agent-backto-Person" style="stroke:#404040;stroke-width:1.2;"/><polygon fill="none" points="1141.46,276.7894,1127.441,289.5748,1137.9161,295.4291,1141.46,276.7894" style="stroke:#404040;stroke-width:1.2;"/></g><!--reverse link Agent to Organization--><g class="link" data-entity-1="ent0016" data-entity-2="ent0018" data-link-type="extension" data-source-line="41" id="lnk31"><path codeLine="41" d="M1163.3214,292.502 C1172.2914,308.552 1179.57,321.5294 1188.52,337.5294" fill="none" id="Agent-backto-Organization" style="stroke:#404040;stroke-width:1.2;"/><polygon fill="none" points="1154.54,276.7894,1158.0839,295.4291,1168.559,289.5748,1154.54,276.7894" style="stroke:#404040;stroke-width:1.2;"/></g><!--link Dataset to VariableMeasured--><g class="link" data-entity-1="ent0002" data-entity-2="ent0003" data-link-type="dependency" data-source-line="42" id="lnk32"><path codeLine="42" d="M1023.35,59.3694 C899.7,60.8394 330.53,69.2794 259,100.6094 C235.69,110.8194 219.6919,129.3118 209.3819,143.5318" fill="none" id="Dataset-to-VariableMeasured" style="stroke:#404040;stroke-width:1.2;"/><polygon fill="#404040" points="205.86,148.3894,214.3813,143.4509,208.7949,144.3414,207.9045,138.7551,205.86,148.3894" style="stroke:#404040;stroke-width:1.2;"/><text fill="#000000" font-family="sans-serif" font-size="13" lengthAdjust="spacing" textLength="103.3335" x="260" y="115.1045">variableMeasured</text><text fill="#000000" font-family="sans-serif" font-size="13" lengthAdjust="spacing" textLength="19.5127" x="186.2387" y="137.7767">0..*</text></g><!--link Dataset to SpatialExtent--><g class="link" data-entity-1="ent0002" data-entity-2="ent0004" data-link-type="dependency" data-source-line="43" id="lnk33"><path codeLine="43" d="M1023.43,59.5094 C913.06,61.5394 450.19,71.7294 393,100.6094 C372.28,111.0694 359.7564,129.0914 351.8564,143.2314" fill="none" id="Dataset-to-SpatialExtent" style="stroke:#404040;stroke-width:1.2;"/><polygon fill="#404040" points="348.93,148.4694,356.8116,142.5634,351.3687,144.1044,349.8277,138.6615,348.93,148.4694" style="stroke:#404040;stroke-width:1.2;"/><text fill="#000000" font-family="sans-serif" font-size="13" lengthAdjust="spacing" textLength="93.9453" x="394" y="115.1045">spatialCoverage</text><text fill="#000000" font-family="sans-serif" font-size="13" lengthAdjust="spacing" textLength="19.5127" x="328.6227" y="137.5037">0..*</text></g><!--link Dataset to TemporalExtent--><g class="link" data-entity-1="ent0002" data-entity-2="ent0008" data-link-type="dependency" data-source-line="44" id="lnk34"><path codeLine="44" d="M1023.18,59.6594 C925.1,62.0794 555.63,72.9794 512,100.6094 C494.91,111.4294 487.3192,128.3923 482.9392,142.4123" fill="none" id="Dataset-to-TemporalExtent" style="stroke:#404040;stroke-width:1.2;"/><polygon fill="#404040" points="481.15,148.1394,487.6518,140.7416,482.641,143.3669,480.0158,138.356,481.15,148.1394" style="stroke:#404040;stroke-width:1.2;"/><text fill="#000000" font-family="sans-serif" font-size="13" lengthAdjust="spacing" textLength="106.9453" x="513" y="115.1045">temporalCoverage</text><text fill="#000000" font-family="sans-serif" font-size="13" lengthAdjust="spacing" textLength="19.5127" x="459.8834" y="137.6888">0..*</text></g><!--link Dataset to QualityMeasure--><g class="link" data-entity-1="ent0002" data-entity-2="ent0009" data-link-type="dependency" data-source-line="45" id="lnk35"><path codeLine="45" d="M1023.35,60.0394 C940.99,63.4894 670.07,76.5894 640,100.6094 C625.53,112.1694 621.9421,128.6388 620.8321,142.4088" fill="none" id="Dataset-to-QualityMeasure" style="stroke:#404040;stroke-width:1.2;"/><polygon fill="#404040" points="620.35,148.3894,625.0602,139.7399,620.7517,143.4055,617.0861,139.0971,620.35,148.3894" style="stroke:#404040;stroke-width:1.2;"/><text fill="#000000" font-family="sans-serif" font-size="13" lengthAdjust="spacing" textLength="140.8989" x="641" y="115.1045">hasQualityMeasurement</text><text fill="#000000" font-family="sans-serif" font-size="13" lengthAdjust="spacing" textLength="19.5127" x="597.8412" y="137.7767">0..*</text></g><!--link Dataset to AbstractDistribution--><g class="link" data-entity-1="ent0002" data-entity-2="ent0013" data-link-type="dependency" data-source-line="46" id="lnk36"><path codeLine="46" d="M1023.36,60.4794 C992.32,63.3694 937.49,72.4094 901,100.6094 C885.07,112.9194 877.0694,129.0787 872.0194,142.5987" fill="none" id="Dataset-to-AbstractDistribution" style="stroke:#404040;stroke-width:1.2;"/><polygon fill="#404040" points="869.92,148.2194,876.8163,141.188,871.6695,143.5355,869.322,138.3887,869.92,148.2194" style="stroke:#404040;stroke-width:1.2;"/><text fill="#000000" font-family="sans-serif" font-size="13" lengthAdjust="spacing" textLength="62.8672" x="902" y="115.1045">distribution</text><text fill="#000000" font-family="sans-serif" font-size="13" lengthAdjust="spacing" textLength="19.5127" x="848.8829" y="137.7993">0..*</text></g><!--link Dataset to Agent--><g class="link" data-entity-1="ent0002" data-entity-2="ent0016" data-link-type="dependency" data-source-line="47" id="lnk37"><path codeLine="47" d="M1039.09,70.6694 C1025.6,91.9094 1001.18,138.2394 1018,173.6094 C1039.89,219.6394 1092.9559,243.9936 1123.4259,254.9836" fill="none" id="Dataset-to-Agent" style="stroke:#404040;stroke-width:1.2;"/><polygon fill="#404040" points="1129.07,257.0194,1121.961,250.2031,1124.3666,255.3229,1119.2467,257.7285,1129.07,257.0194" style="stroke:#404040;stroke-width:1.2;"/><text fill="#000000" font-family="sans-serif" font-size="13" lengthAdjust="spacing" textLength="40.46" x="1019" y="166.6045">creator</text><text fill="#000000" font-family="sans-serif" font-size="13" lengthAdjust="spacing" textLength="19.5127" x="1102.0956" y="250.3067">0..*</text></g><!--link Dataset to Agent--><g class="link" data-entity-1="ent0002" data-entity-2="ent0016" data-link-type="dependency" data-source-line="49" id="lnk39"><path codeLine="49" d="M1052.72,70.6594 C1070.41,106.3994 1121.4775,209.5525 1139.4275,245.8025" fill="none" id="Dataset-to-Agent-1" style="stroke:#404040;stroke-width:1.2;"/><polygon fill="#404040" points="1142.09,251.1794,1141.6809,241.339,1139.8713,246.6986,1134.5117,244.889,1142.09,251.1794" style="stroke:#404040;stroke-width:1.2;"/><text fill="#000000" font-family="sans-serif" font-size="13" lengthAdjust="spacing" textLength="52.7554" x="1104" y="166.6045">publisher</text><text fill="#000000" font-family="sans-serif" font-size="13" lengthAdjust="spacing" textLength="21.6836" x="1143.9017" y="240.7441">0..1</text></g><!--link Dataset to Contributor--><g class="link" data-entity-1="ent0002" data-entity-2="ent0019" data-link-type="dependency" data-source-line="48" id="lnk38"><path codeLine="48" d="M1070.61,70.3894 C1087.15,78.4494 1109.66,89.7494 1129,100.6094 C1156.87,116.2594 1183.1346,132.8367 1202.1946,145.1867" fill="none" id="Dataset-to-Contributor" style="stroke:#404040;stroke-width:1.2;"/><polygon fill="#404040" points="1207.23,148.4494,1201.8521,140.1984,1203.0339,145.7305,1197.5018,146.9123,1207.23,148.4494" style="stroke:#404040;stroke-width:1.2;"/><text fill="#000000" font-family="sans-serif" font-size="13" lengthAdjust="spacing" textLength="61.4199" x="1160" y="115.1045">contributor</text><text fill="#000000" font-family="sans-serif" font-size="13" lengthAdjust="spacing" textLength="19.5127" x="1177.5222" y="137.8604">0..*</text></g><!--link Dataset to MonetaryGrant--><g class="link" data-entity-1="ent0002" data-entity-2="ent0022" data-link-type="dependency" data-source-line="50" id="lnk40"><path codeLine="50" d="M1070.69,60.3494 C1117.85,63.3594 1226.4,72.9494 1313,100.6094 C1350.4,112.5594 1385.4617,131.798 1408.2517,145.438" fill="none" id="Dataset-to-MonetaryGrant" style="stroke:#404040;stroke-width:1.2;"/><polygon fill="#404040" points="1413.4,148.5194,1407.7317,140.4652,1409.1097,145.9516,1403.6233,147.3296,1413.4,148.5194" style="stroke:#404040;stroke-width:1.2;"/><text fill="#000000" font-family="sans-serif" font-size="13" lengthAdjust="spacing" textLength="42.6499" x="1359" y="115.1045">funding</text><text fill="#000000" font-family="sans-serif" font-size="13" lengthAdjust="spacing" textLength="19.5127" x="1382.9076" y="137.5743">0..*</text></g><!--link Dataset to ProvActivity--><g class="link" data-entity-1="ent0002" data-entity-2="ent0023" data-link-type="dependency" data-source-line="51" id="lnk41"><path codeLine="51" d="M1070.82,59.3694 C1129.52,60.5494 1285.41,66.8694 1410,100.6094 C1452.28,112.0594 1493.0151,131.9372 1518.9251,145.7472" fill="none" id="Dataset-to-ProvActivity" style="stroke:#404040;stroke-width:1.2;"/><polygon fill="#404040" points="1524.22,148.5694,1518.1592,140.8062,1519.8076,146.2176,1514.3963,147.8661,1524.22,148.5694" style="stroke:#404040;stroke-width:1.2;"/><text fill="#000000" font-family="sans-serif" font-size="13" lengthAdjust="spacing" textLength="99.7217" x="1461" y="115.1045">wasGeneratedBy</text><text fill="#000000" font-family="sans-serif" font-size="13" lengthAdjust="spacing" textLength="19.5127" x="1492.9017" y="137.6449">0..*</text></g><!--link Dataset to DerivedFrom--><g class="link" data-entity-1="ent0002" data-entity-2="ent0024" data-link-type="dependency" data-source-line="52" id="lnk42"><path codeLine="52" d="M1070.7,59.3194 C1159.96,60.3494 1475.51,66.4094 1569,100.6094 C1597.64,111.0894 1620.8872,130.231 1635.9372,144.371" fill="none" id="Dataset-to-DerivedFrom" style="stroke:#404040;stroke-width:1.2;"/><polygon fill="#404040" points="1640.31,148.4794,1636.4897,139.4016,1636.666,145.0557,1631.0119,145.232,1640.31,148.4794" style="stroke:#404040;stroke-width:1.2;"/><text fill="#000000" font-family="sans-serif" font-size="13" lengthAdjust="spacing" textLength="98.2427" x="1603" y="115.1045">wasDerivedFrom</text><text fill="#000000" font-family="sans-serif" font-size="13" lengthAdjust="spacing" textLength="19.5127" x="1612.6036" y="137.5178">0..*</text></g><!--link Dataset to CatalogRecord--><g class="link" data-entity-1="ent0002" data-entity-2="ent0025" data-link-type="dependency" data-source-line="53" id="lnk43"><path codeLine="53" d="M1070.83,58.8394 C1174.79,57.9094 1588.85,57.0594 1710,100.6094 C1738.47,110.8394 1761.372,130.0339 1776.172,144.2439" fill="none" id="Dataset-to-CatalogRecord" style="stroke:#404040;stroke-width:1.2;"/><polygon fill="#404040" points="1780.5,148.3994,1776.7783,139.2808,1776.8933,144.9365,1771.2376,145.0515,1780.5,148.3994" style="stroke:#404040;stroke-width:1.2;"/><text fill="#000000" font-family="sans-serif" font-size="13" lengthAdjust="spacing" textLength="54.9136" x="1742" y="115.1045">subjectOf</text><text fill="#000000" font-family="sans-serif" font-size="13" lengthAdjust="spacing" textLength="7.23" x="1767.6302" y="137.7907">1</text></g><!--link Dataset to DefinedTerm--><g class="link" data-entity-1="ent0002" data-entity-2="ent0012" data-link-type="dependency" data-source-line="54" id="lnk44"><path codeLine="54" d="M1023.26,60.0694 C980.98,62.5094 890.58,71.0494 821,100.6094 C793.26,112.3994 770.2351,130.7727 754.8951,144.4727" fill="none" id="Dataset-to-DefinedTerm" style="stroke:#404040;stroke-width:1.2;"/><polygon fill="#404040" points="750.42,148.4694,759.7971,145.4578,754.1493,145.1388,754.4682,139.491,750.42,148.4694" style="stroke:#404040;stroke-width:1.2;"/><text fill="#000000" font-family="sans-serif" font-size="13" lengthAdjust="spacing" textLength="54.9072" x="822" y="115.1045">keywords</text><text fill="#000000" font-family="sans-serif" font-size="13" lengthAdjust="spacing" textLength="19.5127" x="732.6565" y="137.5037">0..*</text></g><!--link Dataset to Reference--><g class="link" data-entity-1="ent0002" data-entity-2="ent0021" data-link-type="dependency" data-source-line="55" id="lnk45"><path codeLine="55" d="M1070.61,61.8094 C1106.26,66.4694 1175.45,77.7994 1230,100.6094 C1259.89,113.1094 1286.0763,131.3815 1303.6663,144.8515" fill="none" id="Dataset-to-Reference" style="stroke:#404040;stroke-width:1.2;"/><polygon fill="#404040" points="1308.43,148.4994,1303.7164,139.8517,1304.4603,145.4594,1298.8525,146.2033,1308.43,148.4994" style="stroke:#404040;stroke-width:1.2;"/><text fill="#000000" font-family="sans-serif" font-size="13" lengthAdjust="spacing" textLength="40.4663" x="1264" y="115.1045">license</text><text fill="#000000" font-family="sans-serif" font-size="13" lengthAdjust="spacing" textLength="19.5127" x="1279.5315" y="137.546">0..*</text></g><!--link SpatialExtent to AbstractGeometry--><g class="link" data-entity-1="ent0004" data-entity-2="ent0005" data-link-type="dependency" data-source-line="56" id="lnk46"><path codeLine="56" d="M343,173.6994 C343,193.0694 343,225.8494 343,245.3494" fill="none" id="SpatialExtent-to-AbstractGeometry" style="stroke:#404040;stroke-width:1.2;"/><polygon fill="#404040" points="343,251.3494,347,242.3494,343,246.3494,339,242.3494,343,251.3494" style="stroke:#404040;stroke-width:1.2;"/><text fill="#000000" font-family="sans-serif" font-size="13" lengthAdjust="spacing" textLength="21.6899" x="344" y="218.1045">geo</text><text fill="#000000" font-family="sans-serif" font-size="13" lengthAdjust="spacing" textLength="21.6836" x="318.0598" y="240.721">0..1</text></g><!--link Contributor to Agent--><g class="link" data-entity-1="ent0019" data-entity-2="ent0016" data-link-type="dependency" data-source-line="57" id="lnk47"><path codeLine="57" d="M1216.17,173.6994 C1201.39,193.0694 1175.4667,227.0771 1160.6067,246.5771" fill="none" id="Contributor-to-Agent" style="stroke:#404040;stroke-width:1.2;"/><polygon fill="#404040" points="1156.97,251.3494,1165.6066,246.6155,1160.0006,247.3725,1159.2436,241.7665,1156.97,251.3494" style="stroke:#404040;stroke-width:1.2;"/><text fill="#000000" font-family="sans-serif" font-size="13" lengthAdjust="spacing" textLength="32.5317" x="1193" y="218.1045">agent</text><text fill="#000000" font-family="sans-serif" font-size="13" lengthAdjust="spacing" textLength="21.6836" x="1164.7001" y="240.721">0..1</text></g><!--link MonetaryGrant to Agent--><g class="link" data-entity-1="ent0022" data-entity-2="ent0016" data-link-type="dependency" data-source-line="58" id="lnk48"><path codeLine="58" d="M1399.42,173.6994 C1339.54,194.9894 1219.4329,237.6983 1172.1529,254.5183" fill="none" id="MonetaryGrant-to-Agent" style="stroke:#404040;stroke-width:1.2;"/><polygon fill="#404040" points="1166.5,256.5294,1176.3201,257.2814,1171.2108,254.8535,1173.6387,249.7442,1166.5,256.5294" style="stroke:#404040;stroke-width:1.2;"/><text fill="#000000" font-family="sans-serif" font-size="13" lengthAdjust="spacing" textLength="36.8608" x="1309" y="218.1045">funder</text><text fill="#000000" font-family="sans-serif" font-size="13" lengthAdjust="spacing" textLength="19.5127" x="1174.7475" y="270.1857">0..*</text></g><?plantuml-src XLNBRjim4BphAmZdLi114lGa50KSFu8SWgH9q9vNqbfc8v72ahQhFe1-HB-mNr9Qb6oIObBuOEvePaNkpbAQwmhPV76xMd2LonrIo_x-_iCEgnt7VRBX1RASKrwXNMFTw9RLM6T8Ab4lN3H0K3ErWKBkkIZP6Yg5pfCPaTm_RtZ-8b0fTdb-vJpCAp3OZuHPsbnMajZP-ul3pu3NaWga45r9eP_uTsINLycl9B4v9WlGe51F62ZMhzdPQhbQpfS3vJCGXwp2EmIr9ImwRWY6egS6D8Tg-KsZiDazv4Y7J6c2NFTdcipw-0PbZPhQJXg2uSiCFfVcq5o0HjL9V2WYUDf0WmEr2qBIi-cQ9EyCFXGAFcsXuhhjIz89V2WKpAN8iR6f-tL8kItCY_YQ8tMiKnWI5xZc0ejdfDesynJ_jzZ6nffujjLS2g_WxeFH2urR5d8lAWd5qJu349A_O3PxkEreTldwdigXsDqgJFHW1gZVf5s6X7igGV3lS3oB2qGQOCydQMZ248VKML7mGmge7aWsIBgtvWWEXO-uHaBJt8v_Z4BQdHIeWTeRWlxy7ZAg0ydTBDTyn_kDkC3O6yHtMAn83juungEAc2PMidp4t0oFhOcB7EcZaVpmSpeDfkvrKZTlITHb7SMrqXiqQwN46gL3h2TSn6r_Cjnmq-b7DhauFtyt6LzaATi5K4pctsOfKpQU7xu1K69C4bmUATCzy9Oek41IjW7bOxL95bD6ovQomWcZij9kBYS4CmOnYZibXdYAHkJBKxvccrLSRJ2QqRTwojPROJnKngYUprEs1tM3mfHFOt7TnWIksJk-0_XyirlVxAQjs-mhvlf-7Szykc9JzeBjteXKZ7cQ-fHLF4TXllM-WzoAXLEJiX9bubOzKbyu_2T-8IDjFLJMzE0V?></g></svg>