<svg xmlns="http://www.w3.org/2000/svg" xmlns:xlink="http://www.w3.org/1999/xlink" contentStyleType="text/css" data-diagram-type="CLASS" height="634px" preserveAspectRatio="none" style="width:604px;height:634px;background:#FFFFFF;" version="1.1" viewBox="0 0 604 634" width="604px" zoomAndPan="magnify"><?plantuml 1.2026.3?><defs/><g><g class="title" data-source-line="1"><text fill="#000000" font-family="sans-serif" font-size="14" font-weight="700" lengthAdjust="spacing" textLength="181.7334" x="207.6509" y="24.5332">CDIFDiscovery &#8212; overview</text></g><!--class Dataset--><g class="entity" data-qualified-name="Dataset" data-source-line="15" id="ent0002"><rect fill="#FEFECE" height="25.0938" rx="2.5" ry="2.5" style="stroke:#404040;stroke-width:0.5;" width="47.3555" x="250.5" y="45.6094"/><text fill="#000000" font-family="sans-serif" font-size="12" lengthAdjust="spacing" textLength="41.3555" x="253.5" y="63.0664">Dataset</text></g><!--class CatalogRecord--><g class="entity" data-qualified-name="CatalogRecord" data-source-line="16" id="ent0003"><rect fill="#FEFECE" height="25.0938" rx="2.5" ry="2.5" style="stroke:#404040;stroke-width:0.5;" width="86.0449" x="19" y="320.6094"/><text fill="#000000" font-family="sans-serif" font-size="12" lengthAdjust="spacing" textLength="80.0449" x="22" y="338.0664">CatalogRecord</text></g><!--class DefinedTerm--><g class="entity" data-qualified-name="DefinedTerm" data-source-line="17" id="ent0004"><rect fill="#D5F5E3" height="25.0938" rx="2.5" ry="2.5" style="stroke:#404040;stroke-width:0.5;" width="75.3574" x="139.5" y="595.6094"/><text fill="#000000" font-family="sans-serif" font-size="12" lengthAdjust="spacing" textLength="69.3574" x="142.5" y="613.0664">DefinedTerm</text></g><!--class VariableMeasured--><g class="entity" data-qualified-name="VariableMeasured" data-source-line="18" id="ent0005"><rect fill="#D5F5E3" height="25.0938" rx="2.5" ry="2.5" style="stroke:#404040;stroke-width:0.5;" width="103.3887" x="167.5" y="320.6094"/><text fill="#000000" font-family="sans-serif" font-size="12" lengthAdjust="spacing" textLength="97.3887" x="170.5" y="338.0664">VariableMeasured</text></g><!--class SpatialExtent--><g class="entity" data-qualified-name="SpatialExtent" data-source-line="19" id="ent0006"><rect fill="#D5F5E3" height="25.0938" rx="2.5" ry="2.5" style="stroke:#404040;stroke-width:0.5;" width="76.7109" x="290.5" y="320.6094"/><text fill="#000000" font-family="sans-serif" font-size="12" lengthAdjust="spacing" textLength="70.7109" x="293.5" y="338.0664">SpatialExtent</text></g><!--class TemporalExtent--><g class="entity" data-qualified-name="TemporalExtent" data-source-line="20" id="ent0007"><rect fill="#D5F5E3" height="25.0938" rx="2.5" ry="2.5" style="stroke:#404040;stroke-width:0.5;" width="90.7031" x="387.5" y="320.6094"/><text fill="#000000" font-family="sans-serif" font-size="12" lengthAdjust="spacing" textLength="84.7031" x="390.5" y="338.0664">TemporalExtent</text></g><!--class QualityMeasure--><g class="entity" data-qualified-name="QualityMeasure" data-source-line="21" id="ent0008"><rect fill="#D5F5E3" height="25.0938" rx="2.5" ry="2.5" style="stroke:#404040;stroke-width:0.5;" width="90.0352" x="499" y="320.6094"/><text fill="#000000" font-family="sans-serif" font-size="12" lengthAdjust="spacing" textLength="84.0352" x="502" y="338.0664">QualityMeasure</text></g><!--reverse link Dataset to CatalogRecord--><g class="link" data-entity-1="ent0002" data-entity-2="ent0003" data-link-type="composition" data-source-line="22" id="lnk9"><path codeLine="22" d="M238.09,58.6094 C182.65,58.6094 62,58.6094 62,58.6094 C62,58.6094 62,266.8994 62,320.5994" fill="none" id="Dataset-backto-CatalogRecord" style="stroke:#404040;stroke-width:1.2;"/><polygon fill="#404040" points="250.09,58.6094,244.09,54.6094,238.09,58.6094,244.09,62.6094,250.09,58.6094" style="stroke:#404040;stroke-width:1.2;"/><text fill="#000000" font-family="sans-serif" font-size="13" lengthAdjust="spacing" textLength="54.9136" x="7" y="92.0545">subjectOf</text><text fill="#000000" font-family="sans-serif" font-size="13" lengthAdjust="spacing" textLength="7.23" x="53.5944" y="309.6873">1</text></g><!--link Dataset to DefinedTerm--><g class="link" data-entity-1="ent0002" data-entity-2="ent0004" data-link-type="dependency" data-source-line="23" id="lnk10"><path codeLine="23" d="M280.5,70.6394 C280.5,152.5794 280.5,608.6094 280.5,608.6094 C280.5,608.6094 250.25,608.6094 220.66,608.6094" fill="none" id="Dataset-to-DefinedTerm" style="stroke:#404040;stroke-width:1.2;"/><polygon fill="#404040" points="214.66,608.6094,223.66,612.6094,219.66,608.6094,223.66,604.6094,214.66,608.6094" style="stroke:#404040;stroke-width:1.2;"/><text fill="#000000" font-family="sans-serif" font-size="13" lengthAdjust="spacing" textLength="140.188" x="139.5" y="369.0445">measurementTechnique</text><text fill="#000000" font-family="sans-serif" font-size="13" lengthAdjust="spacing" textLength="19.5127" x="222.779" y="604.8376">0..*</text></g><!--reverse link Dataset to VariableMeasured--><g class="link" data-entity-1="ent0002" data-entity-2="ent0005" data-link-type="composition" data-source-line="24" id="lnk11"><path codeLine="24" d="M260.5,82.6394 C260.5,128.4494 260.5,274.5694 260.5,320.5094" fill="none" id="Dataset-backto-VariableMeasured" style="stroke:#404040;stroke-width:1.2;"/><polygon fill="#404040" points="260.5,70.6394,256.5,76.6394,260.5,82.6394,264.5,76.6394,260.5,70.6394" style="stroke:#404040;stroke-width:1.2;"/><text fill="#000000" font-family="sans-serif" font-size="13" lengthAdjust="spacing" textLength="103.3335" x="156.5" y="192.0645">variableMeasured</text><text fill="#000000" font-family="sans-serif" font-size="13" lengthAdjust="spacing" textLength="19.5127" x="254.7256" y="309.5602">0..*</text></g><!--reverse link Dataset to SpatialExtent--><g class="link" data-entity-1="ent0002" data-entity-2="ent0006" data-link-type="composition" data-source-line="25" id="lnk12"><path codeLine="25" d="M294,82.6394 C294,128.4494 294,274.5694 294,320.5094" fill="none" id="Dataset-backto-SpatialExtent" style="stroke:#404040;stroke-width:1.2;"/><polygon fill="#404040" points="294,70.6394,290,76.6394,294,82.6394,298,76.6394,294,70.6394" style="stroke:#404040;stroke-width:1.2;"/><text fill="#000000" font-family="sans-serif" font-size="13" lengthAdjust="spacing" textLength="93.9453" x="200" y="210.0645">spatialCoverage</text><text fill="#000000" font-family="sans-serif" font-size="13" lengthAdjust="spacing" textLength="19.5127" x="265.438" y="309.6479">0..*</text></g><!--reverse link Dataset to TemporalExtent--><g class="link" data-entity-1="ent0002" data-entity-2="ent0007" data-link-type="composition" data-source-line="26" id="lnk13"><path codeLine="26" d="M309.8,62.6094 C354.16,62.6094 433,62.6094 433,62.6094 C433,62.6094 433,266.9494 433,320.4294" fill="none" id="Dataset-backto-TemporalExtent" style="stroke:#404040;stroke-width:1.2;"/><polygon fill="#404040" points="297.8,62.6094,303.8,66.6094,309.8,62.6094,303.8,58.6094,297.8,62.6094" style="stroke:#404040;stroke-width:1.2;"/><text fill="#000000" font-family="sans-serif" font-size="13" lengthAdjust="spacing" textLength="106.9453" x="326" y="120.4145">temporalCoverage</text><text fill="#000000" font-family="sans-serif" font-size="13" lengthAdjust="spacing" textLength="19.5127" x="410.4188" y="309.8325">0..*</text></g><!--reverse link Dataset to QualityMeasure--><g class="link" data-entity-1="ent0002" data-entity-2="ent0008" data-link-type="composition" data-source-line="27" id="lnk14"><path codeLine="27" d="M309.96,54.6094 C376.04,54.6094 544,54.6094 544,54.6094 C544,54.6094 544,265.9394 544,320.4194" fill="none" id="Dataset-backto-QualityMeasure" style="stroke:#404040;stroke-width:1.2;"/><polygon fill="#404040" points="297.96,54.6094,303.96,58.6094,309.96,54.6094,303.96,50.6094,297.96,54.6094" style="stroke:#404040;stroke-width:1.2;"/><text fill="#000000" font-family="sans-serif" font-size="13" lengthAdjust="spacing" textLength="140.8989" x="403" y="60.9945">hasQualityMeasurement</text><text fill="#000000" font-family="sans-serif" font-size="13" lengthAdjust="spacing" textLength="19.5127" x="521.3534" y="309.8186">0..*</text></g><!--link VariableMeasured to DefinedTerm--><g class="link" data-entity-1="ent0005" data-entity-2="ent0004" data-link-type="dependency" data-source-line="28" id="lnk15"><path codeLine="28" d="M191,345.6394 C191,391.4494 191,543.5694 191,589.5094" fill="none" id="VariableMeasured-to-DefinedTerm" style="stroke:#404040;stroke-width:1.2;"/><polygon fill="#404040" points="191,595.5094,195,586.5094,191,590.5094,187,586.5094,191,595.5094" style="stroke:#404040;stroke-width:1.2;"/><text fill="#000000" font-family="sans-serif" font-size="13" lengthAdjust="spacing" textLength="140.188" x="50" y="467.0645">measurementTechnique</text><text fill="#000000" font-family="sans-serif" font-size="13" lengthAdjust="spacing" textLength="21.6836" x="171.511" y="584.5602">0..1</text></g><?plantuml-src ZPBFJW8n4CRl-nIJvKO20PJB7anq_oGUZ568zs5tO2lTTcqBYCR4X_09VH8B2xYjnfYzjBz-yytqsnfcE46SN6S9qxbSazh2v_i7x5PhHfkWP0L1pbJEgLbJLPijL5JDIEb0BvceKM45kiH2RfXOm1ovfjR9fL9oCorPlXIaDGpxezQXGh7KLCDeF6XH8GlQqpRaJ93PrWHIcLAs3dAErlSrWAPLBBbKq3aVx3uBhwGgIFaqay9Cs0l1S1Iy1K7Z4IPeK9C90JKSrj39qYoDqwCajfZBnJtbrdSlT8WlJsXkvowcfAh6zNiFdMISZTEpe_G15SCPfnj2lLBKcFlGBvhKQ1ZozDcGQEPsY2-VslydbQDtaLzmjqBEpFRGVb_WebF1CQzkhmVXCFHYYK2lPe-KczlvITdhNK0uwFUxeHDBP9_NthgoyqmfBmLxMf7htrJz22U2jOT-AtCJifCr-tZtwd7nQoSlf0ZC0VnLv0KLGOdQPRiR1ZzkSSnb-AzSlW00?></g></svg>