<svg xmlns="http://www.w3.org/2000/svg" xmlns:xlink="http://www.w3.org/1999/xlink" contentStyleType="text/css" data-diagram-type="CLASS" height="393px" preserveAspectRatio="none" style="width:841px;height:393px;background:#FFFFFF;" version="1.1" viewBox="0 0 841 393" width="841px" zoomAndPan="magnify"><?plantuml 1.2026.3?><defs/><g><g class="title" data-source-line="1"><text fill="#000000" font-family="sans-serif" font-size="14" font-weight="700" lengthAdjust="spacing" textLength="181.7334" x="326.312" y="24.5332">CDIFDiscovery &#8212; overview</text></g><!--class Dataset--><g class="entity" data-qualified-name="Dataset" data-source-line="12" id="ent0002"><rect fill="#D5F5E3" height="25.0938" rx="2.5" ry="2.5" style="stroke:#404040;stroke-width:0.5;" width="47.3555" x="435" y="45.6094"/><text fill="#000000" font-family="sans-serif" font-size="12" lengthAdjust="spacing" textLength="41.3555" x="438" y="63.0664">Dataset</text></g><!--class VariableMeasured--><g class="entity" data-qualified-name="VariableMeasured" data-source-line="13" id="ent0003"><rect fill="#FCF3CF" height="25.0938" rx="2.5" ry="2.5" style="stroke:#404040;stroke-width:0.5;" width="103.3887" x="127" y="148.6094"/><text fill="#000000" font-family="sans-serif" font-size="12" lengthAdjust="spacing" textLength="97.3887" x="130" y="166.0664">VariableMeasured</text></g><!--class SpatialExtent--><g class="entity" data-qualified-name="SpatialExtent" data-source-line="14" id="ent0004"><rect fill="#D5F5E3" height="25.0938" rx="2.5" ry="2.5" style="stroke:#404040;stroke-width:0.5;" width="76.7109" x="285" y="148.6094"/><text fill="#000000" font-family="sans-serif" font-size="12" lengthAdjust="spacing" textLength="70.7109" x="288" y="166.0664">SpatialExtent</text></g><!--class AbstractGeometry--><g class="entity" data-qualified-name="AbstractGeometry" data-source-line="15" id="ent0005"><rect fill="#D5F5E3" height="25.0938" rx="2.5" ry="2.5" style="stroke:#404040;stroke-width:0.5;" width="102.6973" x="160" y="251.6094"/><text fill="#000000" font-family="sans-serif" font-size="12" font-style="italic" lengthAdjust="spacing" textLength="96.6973" x="163" y="269.0664">AbstractGeometry</text></g><!--class GeoCoordinates--><g class="entity" data-qualified-name="GeoCoordinates" data-source-line="16" id="ent0006"><rect fill="#D5F5E3" height="25.0938" rx="2.5" ry="2.5" style="stroke:#404040;stroke-width:0.5;" width="93.3867" x="109" y="354.6094"/><text fill="#000000" font-family="sans-serif" font-size="12" lengthAdjust="spacing" textLength="87.3867" x="112" y="372.0664">GeoCoordinates</text></g><!--class GeoShape--><g class="entity" data-qualified-name="GeoShape" data-source-line="17" id="ent0007"><rect fill="#D5F5E3" height="25.0938" rx="2.5" ry="2.5" style="stroke:#404040;stroke-width:0.5;" width="63.3809" x="237" y="354.6094"/><text fill="#000000" font-family="sans-serif" font-size="12" lengthAdjust="spacing" textLength="57.3809" x="240" y="372.0664">GeoShape</text></g><!--class TemporalExtent--><g class="entity" data-qualified-name="TemporalExtent" data-source-line="18" id="ent0008"><rect fill="#D5F5E3" height="25.0938" rx="2.5" ry="2.5" style="stroke:#404040;stroke-width:0.5;" width="90.7031" x="413" y="148.6094"/><text fill="#000000" font-family="sans-serif" font-size="12" lengthAdjust="spacing" textLength="84.7031" x="416" y="166.0664">TemporalExtent</text></g><!--class Instant--><g class="entity" data-qualified-name="Instant" data-source-line="19" id="ent0009"><rect fill="#D5F5E3" height="25.0938" rx="2.5" ry="2.5" style="stroke:#404040;stroke-width:0.5;" width="42.0234" x="493.5" y="251.6094"/><text fill="#000000" font-family="sans-serif" font-size="12" lengthAdjust="spacing" textLength="36.0234" x="496.5" y="269.0664">Instant</text></g><!--class TimePosition--><g class="entity" data-qualified-name="TimePosition" data-source-line="20" id="ent0010"><rect fill="#D5F5E3" height="25.0938" rx="2.5" ry="2.5" style="stroke:#404040;stroke-width:0.5;" width="75.3574" x="477" y="354.6094"/><text fill="#000000" font-family="sans-serif" font-size="12" lengthAdjust="spacing" textLength="69.3574" x="480" y="372.0664">TimePosition</text></g><!--class Geometry--><g class="entity" data-qualified-name="Geometry" data-source-line="21" id="ent0011"><rect fill="#D5F5E3" height="25.0938" rx="2.5" ry="2.5" style="stroke:#404040;stroke-width:0.5;" width="58.6816" x="298" y="251.6094"/><text fill="#000000" font-family="sans-serif" font-size="12" lengthAdjust="spacing" textLength="52.6816" x="301" y="269.0664">Geometry</text></g><!--class QualityMeasurement--><g class="entity" data-qualified-name="QualityMeasurement" data-source-line="22" id="ent0012"><rect fill="#D5F5E3" height="25.0938" rx="2.5" ry="2.5" style="stroke:#404040;stroke-width:0.5;" width="116.7129" x="548" y="148.6094"/><text fill="#000000" font-family="sans-serif" font-size="12" lengthAdjust="spacing" textLength="110.7129" x="551" y="166.0664">QualityMeasurement</text></g><!--class Concept--><g class="entity" data-qualified-name="Concept" data-source-line="23" id="ent0013"><rect fill="#FCF3CF" height="25.0938" rx="2.5" ry="2.5" style="stroke:#404040;stroke-width:0.5;" width="50.6953" x="24" y="45.6094"/><text fill="#000000" font-family="sans-serif" font-size="12" lengthAdjust="spacing" textLength="44.6953" x="27" y="63.0664">Concept</text></g><!--class Identifier--><g class="entity" data-qualified-name="Identifier" data-source-line="24" id="ent0014"><rect fill="#FCF3CF" height="25.0938" rx="2.5" ry="2.5" style="stroke:#404040;stroke-width:0.5;" width="52.0254" x="110.5" y="45.6094"/><text fill="#000000" font-family="sans-serif" font-size="12" lengthAdjust="spacing" textLength="46.0254" x="113.5" y="63.0664">Identifier</text></g><!--class DefinedTerm--><g class="entity" data-qualified-name="DefinedTerm" data-source-line="25" id="ent0015"><rect fill="#FCF3CF" height="25.0938" rx="2.5" ry="2.5" style="stroke:#404040;stroke-width:0.5;" width="75.3574" x="751" y="148.6094"/><text fill="#000000" font-family="sans-serif" font-size="12" lengthAdjust="spacing" textLength="69.3574" x="754" y="166.0664">DefinedTerm</text></g><!--class DataDownload--><g class="entity" data-qualified-name="DataDownload" data-source-line="26" id="ent0016"><rect fill="#FCF3CF" height="25.0938" rx="2.5" ry="2.5" style="stroke:#404040;stroke-width:0.5;" width="84.7148" x="7" y="148.6094"/><text fill="#000000" font-family="sans-serif" font-size="12" lengthAdjust="spacing" textLength="78.7148" x="10" y="166.0664">DataDownload</text></g><!--reverse link AbstractGeometry to GeoCoordinates--><g class="link" data-entity-1="ent0005" data-entity-2="ent0006" data-link-type="extension" data-source-line="27" id="lnk17"><path codeLine="27" d="M196.3453,292.438 C185.5953,311.808 172.83,334.8494 162.02,354.3494" fill="none" id="AbstractGeometry-backto-GeoCoordinates" style="stroke:#404040;stroke-width:1.2;"/><polygon fill="none" points="205.08,276.6994,191.0991,289.5265,201.5915,295.3496,205.08,276.6994" style="stroke:#404040;stroke-width:1.2;"/></g><!--reverse link AbstractGeometry to GeoShape--><g class="link" data-entity-1="ent0005" data-entity-2="ent0007" data-link-type="extension" data-source-line="28" id="lnk18"><path codeLine="28" d="M226.892,292.3724 C237.832,311.7424 250.86,334.8494 261.86,354.3494" fill="none" id="AbstractGeometry-backto-GeoShape" style="stroke:#404040;stroke-width:1.2;"/><polygon fill="none" points="218.04,276.6994,221.6676,295.323,232.1163,289.4217,218.04,276.6994" style="stroke:#404040;stroke-width:1.2;"/></g><!--link Dataset to VariableMeasured--><g class="link" data-entity-1="ent0002" data-entity-2="ent0003" data-link-type="dependency" data-source-line="29" id="lnk19"><path codeLine="29" d="M434.72,61.2394 C382.9,66.2294 261.62,79.8194 226.5,100.6094 C207.08,112.0994 195.228,129.3379 187.478,143.1379" fill="none" id="Dataset-to-VariableMeasured" style="stroke:#404040;stroke-width:1.2;"/><polygon fill="#404040" points="184.54,148.3694,192.4346,142.4808,186.9883,144.0098,185.4593,138.5635,184.54,148.3694" style="stroke:#404040;stroke-width:1.2;"/><text fill="#000000" font-family="sans-serif" font-size="13" lengthAdjust="spacing" textLength="103.3335" x="227.5" y="115.1045">variableMeasured</text><text fill="#000000" font-family="sans-serif" font-size="13" lengthAdjust="spacing" textLength="19.5127" x="164.202" y="137.7489">0..*</text></g><!--link Dataset to SpatialExtent--><g class="link" data-entity-1="ent0002" data-entity-2="ent0004" data-link-type="dependency" data-source-line="30" id="lnk20"><path codeLine="30" d="M434.76,63.1894 C411.34,68.3194 375.74,79.1694 352.5,100.6094 C338.31,113.6994 331.9422,129.48 328.0722,142.73" fill="none" id="Dataset-to-SpatialExtent" style="stroke:#404040;stroke-width:1.2;"/><polygon fill="#404040" points="326.39,148.4894,332.7528,140.9718,327.7918,143.6899,325.0737,138.7289,326.39,148.4894" style="stroke:#404040;stroke-width:1.2;"/><text fill="#000000" font-family="sans-serif" font-size="13" lengthAdjust="spacing" textLength="93.9453" x="353.5" y="115.1045">spatialCoverage</text><text fill="#000000" font-family="sans-serif" font-size="13" lengthAdjust="spacing" textLength="19.5127" x="304.8287" y="137.5319">0..*</text></g><!--link Dataset to TemporalExtent--><g class="link" data-entity-1="ent0002" data-entity-2="ent0008" data-link-type="dependency" data-source-line="31" id="lnk21"><path codeLine="31" d="M457.44,70.7294 C456.73,79.0394 455.86,90.4994 455.5,100.6094 C454.9,117.1494 455.6822,130.2835 456.7622,142.2835" fill="none" id="Dataset-to-TemporalExtent" style="stroke:#404040;stroke-width:1.2;"/><polygon fill="#404040" points="457.3,148.2594,460.4772,138.9371,456.8518,143.2795,452.5094,139.6542,457.3,148.2594" style="stroke:#404040;stroke-width:1.2;"/><text fill="#000000" font-family="sans-serif" font-size="13" lengthAdjust="spacing" textLength="106.9453" x="456.5" y="115.1045">temporalCoverage</text><text fill="#000000" font-family="sans-serif" font-size="13" lengthAdjust="spacing" textLength="19.5127" x="434.3749" y="137.8546">0..*</text></g><!--link Dataset to QualityMeasurement--><g class="link" data-entity-1="ent0002" data-entity-2="ent0012" data-link-type="dependency" data-source-line="32" id="lnk22"><path codeLine="32" d="M482.34,63.6794 C505.99,69.1694 542.25,80.3094 567.5,100.6094 C583.67,113.6094 592.8835,129.7273 599.0535,143.0173" fill="none" id="Dataset-to-QualityMeasurement" style="stroke:#404040;stroke-width:1.2;"/><polygon fill="#404040" points="601.58,148.4594,601.4183,138.6118,599.4745,143.9243,594.1621,141.9806,601.58,148.4594" style="stroke:#404040;stroke-width:1.2;"/><text fill="#000000" font-family="sans-serif" font-size="13" lengthAdjust="spacing" textLength="140.8989" x="584.5" y="115.1045">hasQualityMeasurement</text><text fill="#000000" font-family="sans-serif" font-size="13" lengthAdjust="spacing" textLength="19.5127" x="577.0596" y="137.8743">0..*</text></g><!--link Dataset to DefinedTerm--><g class="link" data-entity-1="ent0002" data-entity-2="ent0015" data-link-type="dependency" data-source-line="33" id="lnk23"><path codeLine="33" d="M482.11,60.6694 C540.46,64.8294 689.87,77.4994 733.5,100.6094 C754.63,111.8094 768.6259,129.3743 777.8759,143.2743" fill="none" id="Dataset-to-DefinedTerm" style="stroke:#404040;stroke-width:1.2;"/><polygon fill="#404040" points="781.2,148.2694,779.544,138.5607,778.43,144.1068,772.8839,142.9928,781.2,148.2694" style="stroke:#404040;stroke-width:1.2;"/><text fill="#000000" font-family="sans-serif" font-size="13" lengthAdjust="spacing" textLength="54.9072" x="756.5" y="115.1045">keywords</text><text fill="#000000" font-family="sans-serif" font-size="13" lengthAdjust="spacing" textLength="19.5127" x="755.8246" y="137.8684">0..*</text></g><!--link SpatialExtent to AbstractGeometry--><g class="link" data-entity-1="ent0004" data-entity-2="ent0005" data-link-type="dependency" data-source-line="34" id="lnk24"><path codeLine="34" d="M310.65,173.6994 C289.16,193.0694 250.6155,227.8308 228.9955,247.3308" fill="none" id="SpatialExtent-to-AbstractGeometry" style="stroke:#404040;stroke-width:1.2;"/><polygon fill="#404040" points="224.54,251.3494,233.9022,248.2918,228.2529,248.0006,228.5441,242.3512,224.54,251.3494" style="stroke:#404040;stroke-width:1.2;"/><text fill="#000000" font-family="sans-serif" font-size="13" lengthAdjust="spacing" textLength="21.6899" x="275.5" y="218.1045">geo</text><text fill="#000000" font-family="sans-serif" font-size="13" lengthAdjust="spacing" textLength="21.6836" x="204.7343" y="240.721">0..1</text></g><!--link SpatialExtent to Geometry--><g class="link" data-entity-1="ent0004" data-entity-2="ent0011" data-link-type="dependency" data-source-line="35" id="lnk25"><path codeLine="35" d="M323.96,173.6994 C324.73,193.0694 326.0233,225.854 326.7933,245.354" fill="none" id="SpatialExtent-to-Geometry" style="stroke:#404040;stroke-width:1.2;"/><polygon fill="#404040" points="327.03,251.3494,330.6718,242.1986,326.8327,246.3533,322.678,242.5142,327.03,251.3494" style="stroke:#404040;stroke-width:1.2;"/><text fill="#000000" font-family="sans-serif" font-size="13" lengthAdjust="spacing" textLength="78.0317" x="327.5" y="218.1045">hasGeometry</text><text fill="#000000" font-family="sans-serif" font-size="13" lengthAdjust="spacing" textLength="21.6836" x="301.9078" y="240.721">0..1</text></g><!--link TemporalExtent to Instant--><g class="link" data-entity-1="ent0008" data-entity-2="ent0009" data-link-type="dependency" data-source-line="36" id="lnk26"><path codeLine="36" d="M453.3,173.8194 C448.56,186.3994 443.41,206.5894 451.5,221.6094 C460.32,237.9794 473.2598,246.5166 487.9098,253.0466" fill="none" id="TemporalExtent-to-Instant" style="stroke:#404040;stroke-width:1.2;"/><polygon fill="#404040" points="493.39,255.4894,486.7981,248.1718,488.8231,253.4538,483.5411,255.4788,493.39,255.4894" style="stroke:#404040;stroke-width:1.2;"/><text fill="#000000" font-family="sans-serif" font-size="13" lengthAdjust="spacing" textLength="78.7871" x="452.5" y="218.1045">hasBeginning</text><text fill="#000000" font-family="sans-serif" font-size="13" lengthAdjust="spacing" textLength="21.6836" x="463.9835" y="248.5525">0..1</text></g><!--link TemporalExtent to Instant--><g class="link" data-entity-1="ent0008" data-entity-2="ent0009" data-link-type="dependency" data-source-line="37" id="lnk27"><path codeLine="37" d="M497.92,173.7394 C512.35,180.1194 527.17,189.6594 535.5,203.6094 C544.71,219.0394 537.0777,234.3027 527.8377,246.7427" fill="none" id="TemporalExtent-to-Instant-1" style="stroke:#404040;stroke-width:1.2;"/><polygon fill="#404040" points="524.26,251.5594,532.8376,246.7195,527.2414,247.5455,526.4154,241.9493,524.26,251.5594" style="stroke:#404040;stroke-width:1.2;"/><text fill="#000000" font-family="sans-serif" font-size="13" lengthAdjust="spacing" textLength="44.0908" x="540.5" y="218.1045">hasEnd</text><text fill="#000000" font-family="sans-serif" font-size="13" lengthAdjust="spacing" textLength="21.6836" x="503.0909" y="240.6308">0..1</text></g><!--link Instant to TimePosition--><g class="link" data-entity-1="ent0009" data-entity-2="ent0010" data-link-type="dependency" data-source-line="38" id="lnk28"><path codeLine="38" d="M514.5,276.6994 C514.5,296.0694 514.5,328.8494 514.5,348.3494" fill="none" id="Instant-to-TimePosition" style="stroke:#404040;stroke-width:1.2;"/><polygon fill="#404040" points="514.5,354.3494,518.5,345.3494,514.5,349.3494,510.5,345.3494,514.5,354.3494" style="stroke:#404040;stroke-width:1.2;"/><text fill="#000000" font-family="sans-serif" font-size="13" lengthAdjust="spacing" textLength="85.2554" x="515.5" y="321.1045">inTimePosition</text><text fill="#000000" font-family="sans-serif" font-size="13" lengthAdjust="spacing" textLength="21.6836" x="489.4298" y="343.721">0..1</text></g><?plantuml-src ZLJDZfj03BxFKrZaLYdHPhTxGLMbNGXL3fLQ9UhT0IUn0ZDePZQK_aXzY3vXdwI4domCfAgusDzydySUsrYsAK4GhgEGJQpEf4luy-itNAmpKo6Ed134hEEK6fkot9QGKROZROGviSnHOmRcY8agM1vWZwcXticJrghO7Za-IJ86belxtc6SOeLz5z3G0fKg3REtTvUl0f-LJaYxQAIatV0tWkMz-2b44yCBqQ8Xwm4QQ6sOXO_Hu-gXetn1pRXBwIEXUT6Kr5mNX5aKH0z1r8asELh6TFNLacoY3v3h7RWpLcDisvgyfzR_G2eZgyjQwe9kXXKUgAfebcZ9r98XD27O736dZbexBcbRTKtfGGr3o1MifR7OCbjx59Cp-gGCMrQoYTW39h9yVODRjNz-mPHjsVOXwp8TmwumK3Acl66tjjl4TLBfUC-acvgkhaiCQS-IaYtfh9caLtz4hOOiL8LC5IRNgUk0AtdKyNS_vdEdgRT9TJj5Dyxp-NlmxXQBDzvuQdquEz2KR3YwFfZ63ouBZuV9cvn9yS6smBz44qtpuOXcZ4-f-u_kmudAedeg8uR9T_obDzug7mwaRlDxl2gdpXDEfJr1jmCr_vaEB6Nrg_jVmKeceWDwdC72-C2o3uY_?></g></svg>