<svg xmlns="http://www.w3.org/2000/svg" xmlns:xlink="http://www.w3.org/1999/xlink" contentStyleType="text/css" data-diagram-type="CLASS" height="187px" preserveAspectRatio="none" style="width:779px;height:187px;background:#FFFFFF;" version="1.1" viewBox="0 0 779 187" width="779px" zoomAndPan="magnify"><?plantuml 1.2026.3?><defs/><g><g class="title" data-source-line="1"><text fill="#000000" font-family="sans-serif" font-size="14" font-weight="700" lengthAdjust="spacing" textLength="173.9609" x="299.219" y="24.5332">cdifDiscovery &#8212; overview</text></g><!--class Dataset--><g class="entity" data-qualified-name="Dataset" data-source-line="12" id="ent0002"><rect fill="#FEFECE" height="25.0938" rx="2.5" ry="2.5" style="stroke:#404040;stroke-width:0.5;" width="47.3555" x="348" y="45.6094"/><text fill="#000000" font-family="sans-serif" font-size="12" lengthAdjust="spacing" textLength="41.3555" x="351" y="63.0664">Dataset</text></g><!--class DefinedTerm--><g class="entity" data-qualified-name="DefinedTerm" data-source-line="14" id="ent0003"><rect fill="#FEFECE" height="25.0938" rx="2.5" ry="2.5" style="stroke:#404040;stroke-width:0.5;" width="75.3574" x="7" y="148.6094"/><text fill="#000000" font-family="sans-serif" font-size="12" lengthAdjust="spacing" textLength="69.3574" x="10" y="166.0664">DefinedTerm</text></g><!--class VariableMeasured--><g class="entity" data-qualified-name="VariableMeasured" data-source-line="16" id="ent0004"><rect fill="#FEFECE" height="25.0938" rx="2.5" ry="2.5" style="stroke:#404040;stroke-width:0.5;" width="103.3887" x="175" y="148.6094"/><text fill="#000000" font-family="sans-serif" font-size="12" lengthAdjust="spacing" textLength="97.3887" x="178" y="166.0664">VariableMeasured</text></g><!--class SpatialExtent--><g class="entity" data-qualified-name="SpatialExtent" data-source-line="18" id="ent0005"><rect fill="#FEFECE" height="25.0938" rx="2.5" ry="2.5" style="stroke:#404040;stroke-width:0.5;" width="76.7109" x="333" y="148.6094"/><text fill="#000000" font-family="sans-serif" font-size="12" lengthAdjust="spacing" textLength="70.7109" x="336" y="166.0664">SpatialExtent</text></g><!--class TemporalExtent--><g class="entity" data-qualified-name="TemporalExtent" data-source-line="20" id="ent0006"><rect fill="#FEFECE" height="25.0938" rx="2.5" ry="2.5" style="stroke:#404040;stroke-width:0.5;" width="90.7031" x="461" y="148.6094"/><text fill="#000000" font-family="sans-serif" font-size="12" lengthAdjust="spacing" textLength="84.7031" x="464" y="166.0664">TemporalExtent</text></g><!--class QualityMeasure--><g class="entity" data-qualified-name="QualityMeasure" data-source-line="22" id="ent0007"><rect fill="#FEFECE" height="25.0938" rx="2.5" ry="2.5" style="stroke:#404040;stroke-width:0.5;" width="90.0352" x="609.5" y="148.6094"/><text fill="#000000" font-family="sans-serif" font-size="12" lengthAdjust="spacing" textLength="84.0352" x="612.5" y="166.0664">QualityMeasure</text></g><!--link Dataset to DefinedTerm--><g class="link" data-entity-1="ent0002" data-entity-2="ent0003" data-link-type="dependency" data-source-line="24" id="lnk8"><path codeLine="24" d="M347.88,60.4294 C288.77,64.0594 136.06,75.6794 92.5,100.6094 C72.92,111.8194 61.089,129.1318 53.389,143.0218" fill="none" id="Dataset-to-DefinedTerm" style="stroke:#404040;stroke-width:1.2;"/><polygon fill="#404040" points="50.48,148.2694,58.342,142.3373,52.9042,143.8964,51.3452,138.4586,50.48,148.2694" style="stroke:#404040;stroke-width:1.2;"/><text fill="#000000" font-family="sans-serif" font-size="13" lengthAdjust="spacing" textLength="140.188" x="93.5" y="115.1045">measurementTechnique</text><text fill="#000000" font-family="sans-serif" font-size="13" lengthAdjust="spacing" textLength="19.5127" x="30.1676" y="137.8684">0..*</text></g><!--link Dataset to VariableMeasured--><g class="link" data-entity-1="ent0002" data-entity-2="ent0004" data-link-type="dependency" data-source-line="25" id="lnk9"><path codeLine="25" d="M347.91,62.1894 C322.38,66.6294 281.79,77.0594 255.5,100.6094 C241.12,113.4894 234.7609,129.3181 230.9709,142.6481" fill="none" id="Dataset-to-VariableMeasured" style="stroke:#404040;stroke-width:1.2;"/><polygon fill="#404040" points="229.33,148.4194,235.6388,140.8564,230.6974,143.61,227.9438,138.6686,229.33,148.4194" style="stroke:#404040;stroke-width:1.2;"/><text fill="#000000" font-family="sans-serif" font-size="13" lengthAdjust="spacing" textLength="103.3335" x="256.5" y="115.1045">variableMeasured</text><text fill="#000000" font-family="sans-serif" font-size="13" lengthAdjust="spacing" textLength="19.5127" x="207.7281" y="137.8186">0..*</text></g><!--link Dataset to SpatialExtent--><g class="link" data-entity-1="ent0002" data-entity-2="ent0005" data-link-type="dependency" data-source-line="26" id="lnk10"><path codeLine="26" d="M370.3,70.9594 C369.22,82.9594 367.9,102.0694 368.5,118.6094 C368.86,128.7194 369.2192,134.2012 369.9292,142.5112" fill="none" id="Dataset-to-SpatialExtent" style="stroke:#404040;stroke-width:1.2;"/><polygon fill="#404040" points="370.44,148.4894,373.6593,139.1815,370.0144,143.5075,365.6884,139.8626,370.44,148.4894" style="stroke:#404040;stroke-width:1.2;"/><text fill="#000000" font-family="sans-serif" font-size="13" lengthAdjust="spacing" textLength="93.9453" x="369.5" y="115.1045">spatialCoverage</text><text fill="#000000" font-family="sans-serif" font-size="13" lengthAdjust="spacing" textLength="19.5127" x="347.2494" y="137.5319">0..*</text></g><!--link Dataset to TemporalExtent--><g class="link" data-entity-1="ent0002" data-entity-2="ent0006" data-link-type="dependency" data-source-line="27" id="lnk11"><path codeLine="27" d="M395.29,65.1694 C416.1,71.3994 446.24,82.7294 467.5,100.6094 C483.38,113.9694 492.6342,130.0004 498.8942,143.1704" fill="none" id="Dataset-to-TemporalExtent" style="stroke:#404040;stroke-width:1.2;"/><polygon fill="#404040" points="501.47,148.5894,501.219,138.7437,499.3235,144.0736,493.9937,142.1781,501.47,148.5894" style="stroke:#404040;stroke-width:1.2;"/><text fill="#000000" font-family="sans-serif" font-size="13" lengthAdjust="spacing" textLength="106.9453" x="484.5" y="115.1045">temporalCoverage</text><text fill="#000000" font-family="sans-serif" font-size="13" lengthAdjust="spacing" textLength="19.5127" x="476.6433" y="137.6732">0..*</text></g><!--link Dataset to QualityMeasure--><g class="link" data-entity-1="ent0002" data-entity-2="ent0007" data-link-type="dependency" data-source-line="28" id="lnk12"><path codeLine="28" d="M395.11,58.6194 C438.38,58.7194 532.15,63.6094 599.5,100.6094 C620.46,112.1194 634.4844,129.6054 643.7944,143.4054" fill="none" id="Dataset-to-QualityMeasure" style="stroke:#404040;stroke-width:1.2;"/><polygon fill="#404040" points="647.15,148.3794,645.4326,138.6814,644.3537,144.2344,638.8006,143.1555,647.15,148.3794" style="stroke:#404040;stroke-width:1.2;"/><text fill="#000000" font-family="sans-serif" font-size="13" lengthAdjust="spacing" textLength="140.8989" x="622.5" y="115.1045">hasQualityMeasurement</text><text fill="#000000" font-family="sans-serif" font-size="13" lengthAdjust="spacing" textLength="19.5127" x="621.6093" y="137.7628">0..*</text></g><?plantuml-src VPB1Re9048RlFCK4RqqqQdhYqAHLlFNGI7eVOPI9owwTNR2sQTA7w1FsIGfYeml6S9dzPZvs_mN7JX6a6Q_dR5DJaHpWz_i7cgfYsWSvPtMV9LNKrbJit04AAbOaDh1RrZiKBC3cc9azwmsiKLcww3oAc7sISxhLP2rCHjEBPggmPfy1j6Cpeup0u7xSF3LyCfAHTEd2QBVa3uB9DFWAWlOTuHmTMd8Xe8LJ3OD5l8XdyNc6rgmfIqYATkwyxis-eZ2k53qJsb8eEmfTsBEMEtICAdvtfDkpUAGtdzGNQiGJVDGpNafKx0wd4nmD7vsD_siO3XyW78z6Tw6NEAg_uz4ewdqIIdFDRoLTitgn8wWww9hcHu_0jkjPytlXvkfEdV0Hk1Eu9NNoHv2ZzLcJy0y0?></g></svg>