<svg xmlns="http://www.w3.org/2000/svg" xmlns:xlink="http://www.w3.org/1999/xlink" contentStyleType="text/css" data-diagram-type="CLASS" height="797px" preserveAspectRatio="none" style="width:2069px;height:797px;background:#FFFFFF;" version="1.1" viewBox="0 0 2069 797" width="2069px" zoomAndPan="magnify"><?plantuml 1.2026.3?><defs/><g><g class="title" data-source-line="1"><text fill="#000000" font-family="sans-serif" font-size="14" font-weight="700" lengthAdjust="spacing" textLength="181.7334" x="940.2241" y="24.5332">CDIFDiscovery &#8212; overview</text></g><!--class Dataset--><g class="entity" data-qualified-name="Dataset" data-source-line="16" id="ent0002"><rect fill="#FEFECE" height="47.7344" rx="2.5" ry="2.5" style="stroke:#404040;stroke-width:0.5;" width="109.3887" x="839.5" y="45.6094"/><text fill="#000000" font-family="sans-serif" font-size="30" lengthAdjust="spacing" textLength="103.3887" x="842.5" y="81.752">Dataset</text></g><!--class CatalogRecord--><g class="entity" data-qualified-name="CatalogRecord" data-source-line="17" id="ent0003"><rect fill="#FEFECE" height="47.7344" rx="2.5" ry="2.5" style="stroke:#404040;stroke-width:0.5;" width="206.1123" x="7" y="390.6094"/><text fill="#000000" font-family="sans-serif" font-size="30" lengthAdjust="spacing" textLength="200.1123" x="10" y="426.752">CatalogRecord</text></g><!--class DefinedTerm--><g class="entity" data-qualified-name="DefinedTerm" data-source-line="18" id="ent0004"><rect fill="#D5F5E3" height="47.7344" rx="2.5" ry="2.5" style="stroke:#404040;stroke-width:0.5;" width="179.3936" x="208.5" y="735.6094"/><text fill="#000000" font-family="sans-serif" font-size="30" lengthAdjust="spacing" textLength="173.3936" x="211.5" y="771.752">DefinedTerm</text></g><!--class VariableMeasured--><g class="entity" data-qualified-name="VariableMeasured" data-source-line="19" id="ent0005"><rect fill="#D5F5E3" height="47.7344" rx="2.5" ry="2.5" style="stroke:#404040;stroke-width:0.5;" width="249.4717" x="690.5" y="390.6094"/><text fill="#000000" font-family="sans-serif" font-size="30" lengthAdjust="spacing" textLength="243.4717" x="693.5" y="426.752">VariableMeasured</text></g><!--class SpatialExtent--><g class="entity" data-qualified-name="SpatialExtent" data-source-line="20" id="ent0006"><rect fill="#D5F5E3" height="47.7344" rx="2.5" ry="2.5" style="stroke:#404040;stroke-width:0.5;" width="182.7773" x="959.5" y="390.6094"/><text fill="#000000" font-family="sans-serif" font-size="30" lengthAdjust="spacing" textLength="176.7773" x="962.5" y="426.752">SpatialExtent</text></g><!--class TemporalExtent--><g class="entity" data-qualified-name="TemporalExtent" data-source-line="21" id="ent0007"><rect fill="#D5F5E3" height="47.7344" rx="2.5" ry="2.5" style="stroke:#404040;stroke-width:0.5;" width="217.7578" x="1229" y="390.6094"/><text fill="#000000" font-family="sans-serif" font-size="30" lengthAdjust="spacing" textLength="211.7578" x="1232" y="426.752">TemporalExtent</text></g><!--class QualityMeasure--><g class="entity" data-qualified-name="QualityMeasure" data-source-line="22" id="ent0008"><rect fill="#D5F5E3" height="47.7344" rx="2.5" ry="2.5" style="stroke:#404040;stroke-width:0.5;" width="216.0879" x="1553" y="390.6094"/><text fill="#000000" font-family="sans-serif" font-size="30" lengthAdjust="spacing" textLength="210.0879" x="1556" y="426.752">QualityMeasure</text></g><!--reverse link Dataset to CatalogRecord--><g class="link" data-entity-1="ent0002" data-entity-2="ent0003" data-link-type="composition" data-source-line="23" id="lnk9"><path codeLine="23" d="M827.3586,72.7145 C665.0686,78.8745 203.42,105.8994 110,218.6094 C69.28,267.7394 88.52,350.2394 101.51,390.3394" fill="none" id="Dataset-backto-CatalogRecord" style="stroke:#404040;stroke-width:1.2;"/><polygon fill="#404040" points="839.35,72.2594,833.2026,68.4898,827.3586,72.7145,833.506,76.4841,839.35,72.2594" style="stroke:#404040;stroke-width:1.2;"/><text fill="#000000" font-family="sans-serif" font-size="36" lengthAdjust="spacing" textLength="152.0684" x="111" y="256.9805">subjectOf</text><text fill="#000000" font-family="sans-serif" font-size="36" lengthAdjust="spacing" textLength="20.0215" x="78.3242" y="374.7189">1</text></g><!--link Dataset to DefinedTerm--><g class="link" data-entity-1="ent0002" data-entity-2="ent0004" data-link-type="dependency" data-source-line="24" id="lnk10"><path codeLine="24" d="M839.37,80.2794 C715.2,105.5294 413,186.2494 290,390.6094 C221.95,503.6694 266.9777,668.0923 287.6777,729.6523" fill="none" id="Dataset-to-DefinedTerm" style="stroke:#404040;stroke-width:1.2;"/><polygon fill="#404040" points="289.59,735.3394,290.5129,725.5339,287.9964,730.6001,282.9301,728.0836,289.59,735.3394" style="stroke:#404040;stroke-width:1.2;"/><text fill="#000000" font-family="sans-serif" font-size="36" lengthAdjust="spacing" textLength="388.2129" x="291" y="429.4805">measurementTechnique</text><text fill="#000000" font-family="sans-serif" font-size="36" lengthAdjust="spacing" textLength="54.0352" x="229.4731" y="719.7189">0..*</text></g><!--reverse link Dataset to VariableMeasured--><g class="link" data-entity-1="ent0002" data-entity-2="ent0005" data-link-type="composition" data-source-line="25" id="lnk11"><path codeLine="25" d="M845.3097,100.4573 C807.3197,125.7373 761.73,163.3894 738,218.6094 C711.63,279.9694 762.63,353.5594 793.63,390.3094" fill="none" id="Dataset-backto-VariableMeasured" style="stroke:#404040;stroke-width:1.2;"/><polygon fill="#404040" points="855.3,93.8094,848.0889,93.8032,845.3097,100.4573,852.5208,100.4634,855.3,93.8094" style="stroke:#404040;stroke-width:1.2;"/><text fill="#000000" font-family="sans-serif" font-size="36" lengthAdjust="spacing" textLength="286.1543" x="739" y="256.9805">variableMeasured</text><text fill="#000000" font-family="sans-serif" font-size="36" lengthAdjust="spacing" textLength="54.0352" x="731.2789" y="374.6837">0..*</text></g><!--reverse link Dataset to SpatialExtent--><g class="link" data-entity-1="ent0002" data-entity-2="ent0006" data-link-type="composition" data-source-line="26" id="lnk12"><path codeLine="26" d="M932.6955,101.4831 C964.1355,127.9831 1003.38,166.7294 1027,218.6094 C1053.22,276.1994 1054.04,352.7094 1052.51,390.4894" fill="none" id="Dataset-backto-SpatialExtent" style="stroke:#404040;stroke-width:1.2;"/><polygon fill="#404040" points="923.52,93.7494,925.5298,100.6747,932.6955,101.4831,930.6856,94.5578,923.52,93.7494" style="stroke:#404040;stroke-width:1.2;"/><text fill="#000000" font-family="sans-serif" font-size="36" lengthAdjust="spacing" textLength="260.1563" x="1044" y="256.9805">spatialCoverage</text><text fill="#000000" font-family="sans-serif" font-size="36" lengthAdjust="spacing" textLength="54.0352" x="993.9926" y="374.605">0..*</text></g><!--reverse link Dataset to TemporalExtent--><g class="link" data-entity-1="ent0002" data-entity-2="ent0007" data-link-type="composition" data-source-line="27" id="lnk13"><path codeLine="27" d="M960.5548,73.8082 C1051.0548,80.7582 1219.22,107.6694 1310,218.6094 C1350.83,268.4994 1346.71,350.6494 1341.7,390.4894" fill="none" id="Dataset-backto-TemporalExtent" style="stroke:#404040;stroke-width:1.2;"/><polygon fill="#404040" points="948.59,72.8894,954.2661,77.3371,960.5548,73.8082,954.8787,69.3605,948.59,72.8894" style="stroke:#404040;stroke-width:1.2;"/><text fill="#000000" font-family="sans-serif" font-size="36" lengthAdjust="spacing" textLength="296.1563" x="1336" y="256.9805">temporalCoverage</text><text fill="#000000" font-family="sans-serif" font-size="36" lengthAdjust="spacing" textLength="54.0352" x="1283.5744" y="374.605">0..*</text></g><!--reverse link Dataset to QualityMeasure--><g class="link" data-entity-1="ent0002" data-entity-2="ent0008" data-link-type="composition" data-source-line="28" id="lnk14"><path codeLine="28" d="M960.4988,74.153 C1115.7588,83.403 1543.09,117.4594 1637,218.6094 C1680.98,265.9794 1673,350.0694 1665.89,390.5594" fill="none" id="Dataset-backto-QualityMeasure" style="stroke:#404040;stroke-width:1.2;"/><polygon fill="#404040" points="948.52,73.4394,954.2715,77.7891,960.4988,74.153,954.7473,69.8033,948.52,73.4394" style="stroke:#404040;stroke-width:1.2;"/><text fill="#000000" font-family="sans-serif" font-size="36" lengthAdjust="spacing" textLength="390.1816" x="1663" y="256.9805">hasQualityMeasurement</text><text fill="#000000" font-family="sans-serif" font-size="36" lengthAdjust="spacing" textLength="54.0352" x="1607.947" y="374.6875">0..*</text></g><!--link VariableMeasured to DefinedTerm--><g class="link" data-entity-1="ent0005" data-entity-2="ent0004" data-link-type="dependency" data-source-line="29" id="lnk15"><path codeLine="29" d="M780.28,438.6494 C686.21,501.0594 432.1996,669.5722 337.9096,732.1322" fill="none" id="VariableMeasured-to-DefinedTerm" style="stroke:#404040;stroke-width:1.2;"/><polygon fill="#404040" points="332.91,735.4494,342.6209,733.8067,337.0764,732.6851,338.198,727.1405,332.91,735.4494" style="stroke:#404040;stroke-width:1.2;"/><text fill="#000000" font-family="sans-serif" font-size="36" lengthAdjust="spacing" textLength="388.2129" x="589" y="601.9805">measurementTechnique</text><text fill="#000000" font-family="sans-serif" font-size="36" lengthAdjust="spacing" textLength="60.0469" x="344.4412" y="719.5579">0..1</text></g><?plantuml-src ZPDDJiCm48NtESKetI6rwWzbaGKIv4TYWH1GiPycqyRKiOljj1I4n24u8IV1RTeI6uHGDlRdUM_6BubXXXF4oLMMC9tB5QaDVBv_m7QrOhGEIbOGv4pbd9erLKkpWOggAIaTw0KJIrHOWIwna6icvZ13hgbrSg6KN4zAbYy4QGs3th1rg50iD2rXEEwtg905xMWR5ZJ3cfjC2dFFNWX6Pwt3dAFrVWsWQHTBBXLqJllRny9BgGfIFcrRMQ4nYarhGz-u7xm5GMCT9cXGama1DUpNqCdIB8tJGqbiCPVpEyfjkrsXG_poX6PCK34XLJMkttle9EDid8uEfG-e64uvNHFgMb5ZxaDVTBz4mv2dpuP4CxT3_FA9VRLIEVKkyWMtDN9cDllsEu6BZe93NYVTBeI3q8ib0brF7oatDxDZPRTx3c6_rpi9dLWY--Njh2ixpuJoKh2dcbp_HlKZd0XM7lfDvYPa9slsyVQ7mFcldRoG8Z1xy9V82og24hNBjZSCVjpYaClWNxby0G00?></g></svg>