<svg xmlns="http://www.w3.org/2000/svg" xmlns:xlink="http://www.w3.org/1999/xlink" contentStyleType="text/css" data-diagram-type="CLASS" height="509px" preserveAspectRatio="none" style="width:2567px;height:509px;background:#FFFFFF;" version="1.1" viewBox="0 0 2567 509" width="2567px" zoomAndPan="magnify"><?plantuml 1.2026.3?><defs/><g><g class="title" data-source-line="1"><text fill="#000000" font-family="sans-serif" font-size="14" font-weight="700" lengthAdjust="spacing" textLength="50.5791" x="1255.1509" y="24.5332">Dataset</text></g><!--class Dataset--><g class="entity" data-qualified-name="Dataset" data-source-line="12" id="ent0002"><rect fill="#FEFECE" height="332.4531" rx="2.5" ry="2.5" style="stroke:#404040;stroke-width:0.5;" width="302.2402" x="1201" y="45.6094"/><text fill="#000000" font-family="sans-serif" font-size="12" lengthAdjust="spacing" textLength="41.3555" x="1331.4424" y="63.0664">Dataset</text><line style="stroke:#404040;stroke-width:0.5;" x1="1202" x2="1502.2402" y1="70.7031" y2="70.7031"/><g data-visibility-modifier="PUBLIC_FIELD"><ellipse cx="1212" cy="85.0078" fill="none" rx="3" ry="3" style="stroke:#038048;stroke-width:1;"/></g><text fill="#000000" font-family="sans-serif" font-size="14" lengthAdjust="spacing" textLength="276.2402" x="1221" y="89.2363">measurementTechnique : DefinedTerm [0..*]</text><g data-visibility-modifier="PUBLIC_FIELD"><ellipse cx="1212" cy="102.6172" fill="none" rx="3" ry="3" style="stroke:#038048;stroke-width:1;"/></g><text fill="#000000" font-family="sans-serif" font-size="14" lengthAdjust="spacing" textLength="137.7373" x="1221" y="106.8457">identifier : Identifier [1]</text><g data-visibility-modifier="PUBLIC_FIELD"><ellipse cx="1212" cy="120.2266" fill="none" rx="3" ry="3" style="stroke:#038048;stroke-width:1;"/></g><text fill="#000000" font-family="sans-serif" font-size="14" lengthAdjust="spacing" textLength="100.3789" x="1221" y="124.4551">name : string [1]</text><g data-visibility-modifier="PUBLIC_FIELD"><ellipse cx="1212" cy="137.8359" fill="none" rx="3" ry="3" style="stroke:#038048;stroke-width:1;"/></g><text fill="#000000" font-family="sans-serif" font-size="14" lengthAdjust="spacing" textLength="148.627" x="1221" y="142.0645">description : string [0..1]</text><g data-visibility-modifier="PUBLIC_FIELD"><ellipse cx="1212" cy="155.4453" fill="none" rx="3" ry="3" style="stroke:#038048;stroke-width:1;"/></g><text fill="#000000" font-family="sans-serif" font-size="14" lengthAdjust="spacing" textLength="216.3301" x="1221" y="159.6738">additionalType : DefinedTerm [0..*]</text><g data-visibility-modifier="PUBLIC_FIELD"><ellipse cx="1212" cy="173.0547" fill="none" rx="3" ry="3" style="stroke:#038048;stroke-width:1;"/></g><text fill="#000000" font-family="sans-serif" font-size="14" lengthAdjust="spacing" textLength="148.6201" x="1221" y="177.2832">sameAs : Identifier [0..*]</text><g data-visibility-modifier="PUBLIC_FIELD"><ellipse cx="1212" cy="190.6641" fill="none" rx="3" ry="3" style="stroke:#038048;stroke-width:1;"/></g><text fill="#000000" font-family="sans-serif" font-size="14" lengthAdjust="spacing" textLength="126.0547" x="1221" y="194.8926">version : string [0..1]</text><g data-visibility-modifier="PUBLIC_FIELD"><ellipse cx="1212" cy="208.2734" fill="none" rx="3" ry="3" style="stroke:#038048;stroke-width:1;"/></g><text fill="#000000" font-family="sans-serif" font-size="14" lengthAdjust="spacing" textLength="206.2881" x="1221" y="212.502">inLanguage : XsdLanguage [0..1]</text><g data-visibility-modifier="PUBLIC_FIELD"><ellipse cx="1212" cy="225.8828" fill="none" rx="3" ry="3" style="stroke:#038048;stroke-width:1;"/></g><text fill="#000000" font-family="sans-serif" font-size="14" lengthAdjust="spacing" textLength="164.9854" x="1221" y="230.1113">dateModified : XsdDate [1]</text><g data-visibility-modifier="PUBLIC_FIELD"><ellipse cx="1212" cy="243.4922" fill="none" rx="3" ry="3" style="stroke:#038048;stroke-width:1;"/></g><text fill="#000000" font-family="sans-serif" font-size="14" lengthAdjust="spacing" textLength="189.123" x="1221" y="247.7207">datePublished : XsdDate [0..1]</text><g data-visibility-modifier="PUBLIC_FIELD"><ellipse cx="1212" cy="261.1016" fill="none" rx="3" ry="3" style="stroke:#038048;stroke-width:1;"/></g><text fill="#000000" font-family="sans-serif" font-size="14" lengthAdjust="spacing" textLength="128.3789" x="1221" y="265.3301">url : XsdAnyUri [0..1]</text><g data-visibility-modifier="PUBLIC_FIELD"><ellipse cx="1212" cy="278.7109" fill="none" rx="3" ry="3" style="stroke:#038048;stroke-width:1;"/></g><text fill="#000000" font-family="sans-serif" font-size="14" lengthAdjust="spacing" textLength="152.5234" x="1221" y="282.9395">license : Reference [0..*]</text><g data-visibility-modifier="PUBLIC_FIELD"><ellipse cx="1212" cy="296.3203" fill="none" rx="3" ry="3" style="stroke:#038048;stroke-width:1;"/></g><text fill="#000000" font-family="sans-serif" font-size="14" lengthAdjust="spacing" textLength="231.8887" x="1221" y="300.5488">conditionsOfAccess : Reference [0..*]</text><g data-visibility-modifier="PUBLIC_FIELD"><ellipse cx="1212" cy="313.9297" fill="none" rx="3" ry="3" style="stroke:#038048;stroke-width:1;"/></g><text fill="#000000" font-family="sans-serif" font-size="14" lengthAdjust="spacing" textLength="232.6816" x="1221" y="318.1582">publishingPrinciples : Reference [0..*]</text><g data-visibility-modifier="PUBLIC_FIELD"><ellipse cx="1212" cy="331.5391" fill="none" rx="3" ry="3" style="stroke:#038048;stroke-width:1;"/></g><text fill="#000000" font-family="sans-serif" font-size="14" lengthAdjust="spacing" textLength="184.3994" x="1221" y="335.7676">keywords : DefinedTerm [0..*]</text><g data-visibility-modifier="PUBLIC_FIELD"><ellipse cx="1212" cy="349.1484" fill="none" rx="3" ry="3" style="stroke:#038048;stroke-width:1;"/></g><text fill="#000000" font-family="sans-serif" font-size="14" lengthAdjust="spacing" textLength="250.5986" x="1221" y="353.377">includedInDataCatalog : Reference [0..*]</text><g data-visibility-modifier="PUBLIC_FIELD"><ellipse cx="1212" cy="366.7578" fill="none" rx="3" ry="3" style="stroke:#038048;stroke-width:1;"/></g><text fill="#000000" font-family="sans-serif" font-size="14" lengthAdjust="spacing" textLength="177.4336" x="1221" y="370.9863">relatedLink : Reference [0..*]</text></g><!--class AbstractVariable--><g class="entity" data-qualified-name="AbstractVariable" data-source-line="31" id="ent0003"><rect fill="#EEEEEE" height="25.0938" rx="2.5" ry="2.5" style="stroke:#404040;stroke-width:0.5;" width="94.043" x="7" y="463.1094"/><text fill="#000000" font-family="sans-serif" font-size="12" font-style="italic" lengthAdjust="spacing" textLength="88.043" x="10" y="480.5664">AbstractVariable</text></g><!--class PrimaryKey--><g class="entity" data-qualified-name="PrimaryKey" data-source-line="33" id="ent0005"><rect fill="#EEEEEE" height="25.0938" rx="2.5" ry="2.5" style="stroke:#404040;stroke-width:0.5;" width="68.0098" x="165" y="463.1094"/><text fill="#000000" font-family="sans-serif" font-size="12" lengthAdjust="spacing" textLength="62.0098" x="168" y="480.5664">PrimaryKey</text></g><!--class Statistics--><g class="entity" data-qualified-name="Statistics" data-source-line="35" id="ent0007"><rect fill="#EEEEEE" height="25.0938" rx="2.5" ry="2.5" style="stroke:#404040;stroke-width:0.5;" width="54.0117" x="272" y="463.1094"/><text fill="#000000" font-family="sans-serif" font-size="12" lengthAdjust="spacing" textLength="48.0117" x="275" y="480.5664">Statistics</text></g><!--class StatisticsCollection--><g class="entity" data-qualified-name="StatisticsCollection" data-source-line="37" id="ent0009"><rect fill="#EEEEEE" height="25.0938" rx="2.5" ry="2.5" style="stroke:#404040;stroke-width:0.5;" width="106.7051" x="361.5" y="463.1094"/><text fill="#000000" font-family="sans-serif" font-size="12" lengthAdjust="spacing" textLength="100.7051" x="364.5" y="480.5664">StatisticsCollection</text></g><!--class SpatialExtent--><g class="entity" data-qualified-name="SpatialExtent" data-source-line="39" id="ent0011"><rect fill="#EEEEEE" height="25.0938" rx="2.5" ry="2.5" style="stroke:#404040;stroke-width:0.5;" width="76.7109" x="503.5" y="463.1094"/><text fill="#000000" font-family="sans-serif" font-size="12" lengthAdjust="spacing" textLength="70.7109" x="506.5" y="480.5664">SpatialExtent</text></g><!--class TemporalExtent--><g class="entity" data-qualified-name="TemporalExtent" data-source-line="41" id="ent0013"><rect fill="#EEEEEE" height="25.0938" rx="2.5" ry="2.5" style="stroke:#404040;stroke-width:0.5;" width="90.7031" x="615.5" y="463.1094"/><text fill="#000000" font-family="sans-serif" font-size="12" lengthAdjust="spacing" textLength="84.7031" x="618.5" y="480.5664">TemporalExtent</text></g><!--class QualityMeasurement--><g class="entity" data-qualified-name="QualityMeasurement" data-source-line="43" id="ent0015"><rect fill="#EEEEEE" height="25.0938" rx="2.5" ry="2.5" style="stroke:#404040;stroke-width:0.5;" width="116.7129" x="745.5" y="463.1094"/><text fill="#000000" font-family="sans-serif" font-size="12" lengthAdjust="spacing" textLength="110.7129" x="748.5" y="480.5664">QualityMeasurement</text></g><!--class Agent--><g class="entity" data-qualified-name="Agent" data-source-line="45" id="ent0017"><rect fill="#EEEEEE" height="25.0938" rx="2.5" ry="2.5" style="stroke:#404040;stroke-width:0.5;" width="37.3594" x="1113.5" y="463.1094"/><text fill="#000000" font-family="sans-serif" font-size="12" font-style="italic" lengthAdjust="spacing" textLength="31.3594" x="1116.5" y="480.5664">Agent</text></g><!--class AbstractDistribution--><g class="entity" data-qualified-name="AbstractDistribution" data-source-line="48" id="ent0020"><rect fill="#EEEEEE" height="25.0938" rx="2.5" ry="2.5" style="stroke:#404040;stroke-width:0.5;" width="110.0391" x="1272" y="463.1094"/><text fill="#000000" font-family="sans-serif" font-size="12" font-style="italic" lengthAdjust="spacing" textLength="104.0391" x="1275" y="480.5664">AbstractDistribution</text></g><!--class Contributor--><g class="entity" data-qualified-name="Contributor" data-source-line="51" id="ent0023"><rect fill="#EEEEEE" height="25.0938" rx="2.5" ry="2.5" style="stroke:#404040;stroke-width:0.5;" width="65.3613" x="1417.5" y="463.1094"/><text fill="#000000" font-family="sans-serif" font-size="12" lengthAdjust="spacing" textLength="59.3613" x="1420.5" y="480.5664">Contributor</text></g><!--class MonetaryGrant--><g class="entity" data-qualified-name="MonetaryGrant" data-source-line="54" id="ent0026"><rect fill="#EEEEEE" height="25.0938" rx="2.5" ry="2.5" style="stroke:#404040;stroke-width:0.5;" width="86.0332" x="1518" y="463.1094"/><text fill="#000000" font-family="sans-serif" font-size="12" lengthAdjust="spacing" textLength="80.0332" x="1521" y="480.5664">MonetaryGrant</text></g><!--class ProvActivity--><g class="entity" data-qualified-name="ProvActivity" data-source-line="56" id="ent0028"><rect fill="#EEEEEE" height="25.0938" rx="2.5" ry="2.5" style="stroke:#404040;stroke-width:0.5;" width="68.6777" x="1639.5" y="463.1094"/><text fill="#000000" font-family="sans-serif" font-size="12" lengthAdjust="spacing" textLength="62.6777" x="1642.5" y="480.5664">ProvActivity</text></g><!--class DerivedFrom--><g class="entity" data-qualified-name="DerivedFrom" data-source-line="58" id="ent0030"><rect fill="#EEEEEE" height="25.0938" rx="2.5" ry="2.5" style="stroke:#404040;stroke-width:0.5;" width="75.3457" x="1746.5" y="463.1094"/><text fill="#000000" font-family="sans-serif" font-size="12" lengthAdjust="spacing" textLength="69.3457" x="1749.5" y="480.5664">DerivedFrom</text></g><!--class CatalogRecord--><g class="entity" data-qualified-name="CatalogRecord" data-source-line="60" id="ent0032"><rect fill="#EEEEEE" height="25.0938" rx="2.5" ry="2.5" style="stroke:#404040;stroke-width:0.5;" width="86.0449" x="1904" y="463.1094"/><text fill="#000000" font-family="sans-serif" font-size="12" lengthAdjust="spacing" textLength="80.0449" x="1907" y="480.5664">CatalogRecord</text></g><!--class DefinedTerm--><g class="entity" data-qualified-name="DefinedTerm" data-source-line="62" id="ent0034"><rect fill="#EEEEEE" height="25.0938" rx="2.5" ry="2.5" style="stroke:#404040;stroke-width:0.5;" width="75.3574" x="2049.5" y="463.1094"/><text fill="#000000" font-family="sans-serif" font-size="12" lengthAdjust="spacing" textLength="69.3574" x="2052.5" y="480.5664">DefinedTerm</text></g><!--class Reference--><g class="entity" data-qualified-name="Reference" data-source-line="64" id="ent0036"><rect fill="#EEEEEE" height="25.0938" rx="2.5" ry="2.5" style="stroke:#404040;stroke-width:0.5;" width="61.3652" x="2159.5" y="463.1094"/><text fill="#000000" font-family="sans-serif" font-size="12" lengthAdjust="spacing" textLength="55.3652" x="2162.5" y="480.5664">Reference</text></g><!--class XsdLanguage--><g class="entity" data-qualified-name="XsdLanguage" data-source-line="67" id="ent0039"><rect fill="#FAE5D3" height="40.1875" rx="2.5" ry="2.5" style="stroke:#404040;stroke-width:0.5;" width="80.0684" x="2256" y="455.6094"/><text fill="#000000" font-family="sans-serif" font-size="12" font-style="italic" lengthAdjust="spacing" textLength="63.3809" x="2264.3438" y="473.0664">&#171;dataType&#187;</text><text fill="#000000" font-family="sans-serif" font-size="12" lengthAdjust="spacing" textLength="74.0684" x="2259" y="488.1602">XsdLanguage</text></g><!--class XsdDate--><g class="entity" data-qualified-name="XsdDate" data-source-line="69" id="ent0041"><rect fill="#FAE5D3" height="40.1875" rx="2.5" ry="2.5" style="stroke:#404040;stroke-width:0.5;" width="65.3809" x="2371.5" y="455.6094"/><text fill="#000000" font-family="sans-serif" font-size="12" font-style="italic" lengthAdjust="spacing" textLength="63.3809" x="2372.5" y="473.0664">&#171;dataType&#187;</text><text fill="#000000" font-family="sans-serif" font-size="12" lengthAdjust="spacing" textLength="46.0254" x="2381.1777" y="488.1602">XsdDate</text></g><!--class XsdAnyUri--><g class="entity" data-qualified-name="XsdAnyUri" data-source-line="71" id="ent0043"><rect fill="#FAE5D3" height="40.1875" rx="2.5" ry="2.5" style="stroke:#404040;stroke-width:0.5;" width="65.3809" x="2487.5" y="455.6094"/><text fill="#000000" font-family="sans-serif" font-size="12" font-style="italic" lengthAdjust="spacing" textLength="63.3809" x="2488.5" y="473.0664">&#171;dataType&#187;</text><text fill="#000000" font-family="sans-serif" font-size="12" lengthAdjust="spacing" textLength="56.6836" x="2491.8486" y="488.1602">XsdAnyUri</text></g><!--link Dataset to AbstractVariable--><g class="link" data-entity-1="ent0002" data-entity-2="ent0003" data-link-type="dependency" data-source-line="32" id="lnk4"><path codeLine="32" d="M1200.98,213.3894 C965.11,219.6994 499.21,252.7894 141,407.6094 C110.2,420.9194 84.8864,443.3705 69.4164,458.7405" fill="none" id="Dataset-to-AbstractVariable" style="stroke:#404040;stroke-width:1.2;"/><polygon fill="#404040" points="65.16,462.9694,74.3638,459.4637,68.707,459.4453,68.7253,453.7885,65.16,462.9694" style="stroke:#404040;stroke-width:1.2;"/><text fill="#000000" font-family="sans-serif" font-size="13" lengthAdjust="spacing" textLength="103.3335" x="142" y="422.1045">variableMeasured</text><text fill="#000000" font-family="sans-serif" font-size="13" lengthAdjust="spacing" textLength="19.5127" x="46.9416" y="452.0037">1..*</text></g><!--link Dataset to PrimaryKey--><g class="link" data-entity-1="ent0002" data-entity-2="ent0005" data-link-type="dependency" data-source-line="34" id="lnk6"><path codeLine="34" d="M1200.59,217.4194 C987.23,229.1594 590,269.4694 284,407.6094 C253.86,421.2194 229.2088,443.5131 214.0988,458.7931" fill="none" id="Dataset-to-PrimaryKey" style="stroke:#404040;stroke-width:1.2;"/><polygon fill="#404040" points="209.88,463.0594,219.0525,459.4725,213.3957,459.5041,213.3641,453.8474,209.88,463.0594" style="stroke:#404040;stroke-width:1.2;"/><text fill="#000000" font-family="sans-serif" font-size="13" lengthAdjust="spacing" textLength="88.1372" x="285" y="422.1045">hasPrimaryKey</text><text fill="#000000" font-family="sans-serif" font-size="13" lengthAdjust="spacing" textLength="21.6836" x="189.1757" y="452.1308">0..1</text></g><!--link Dataset to Statistics--><g class="link" data-entity-1="ent0002" data-entity-2="ent0007" data-link-type="dependency" data-source-line="36" id="lnk8"><path codeLine="36" d="M1200.63,229.8994 C1012.74,254.5894 684.65,308.3394 419,407.6094 C380.11,422.1394 343.6481,444.5499 321.0781,459.5399" fill="none" id="Dataset-to-Statistics" style="stroke:#404040;stroke-width:1.2;"/><polygon fill="#404040" points="316.08,462.8594,325.7901,461.2122,320.2451,460.0931,321.3641,454.5481,316.08,462.8594" style="stroke:#404040;stroke-width:1.2;"/><text fill="#000000" font-family="sans-serif" font-size="13" lengthAdjust="spacing" textLength="49.8418" x="420" y="422.1045">statistics</text><text fill="#000000" font-family="sans-serif" font-size="13" lengthAdjust="spacing" textLength="19.5127" x="300.1633" y="452.2349">0..*</text></g><!--link Dataset to StatisticsCollection--><g class="link" data-entity-1="ent0002" data-entity-2="ent0009" data-link-type="dependency" data-source-line="38" id="lnk10"><path codeLine="38" d="M1200.62,229.2194 C1027.07,252.3594 737.08,303.7494 508,407.6094 C476.28,421.9894 448.9604,444.0399 432.0004,459.0699" fill="none" id="Dataset-to-StatisticsCollection" style="stroke:#404040;stroke-width:1.2;"/><polygon fill="#404040" points="427.51,463.0494,436.8986,460.0738,431.252,459.7332,431.5927,454.0866,427.51,463.0494" style="stroke:#404040;stroke-width:1.2;"/><text fill="#000000" font-family="sans-serif" font-size="13" lengthAdjust="spacing" textLength="49.8418" x="509" y="422.1045">statistics</text><text fill="#000000" font-family="sans-serif" font-size="13" lengthAdjust="spacing" textLength="19.5127" x="409.9182" y="452.1167">0..*</text></g><!--link Dataset to SpatialExtent--><g class="link" data-entity-1="ent0002" data-entity-2="ent0011" data-link-type="dependency" data-source-line="40" id="lnk12"><path codeLine="40" d="M1200.82,217.7694 C1034.55,230.4494 766.65,272.2994 583,407.6094 C563.79,421.7694 553.8087,442.2697 548.0787,457.3697" fill="none" id="Dataset-to-SpatialExtent" style="stroke:#404040;stroke-width:1.2;"/><polygon fill="#404040" points="545.95,462.9794,552.8829,455.984,547.7239,458.3046,545.4033,453.1457,545.95,462.9794" style="stroke:#404040;stroke-width:1.2;"/><text fill="#000000" font-family="sans-serif" font-size="13" lengthAdjust="spacing" textLength="93.9453" x="584" y="422.1045">spatialCoverage</text><text fill="#000000" font-family="sans-serif" font-size="13" lengthAdjust="spacing" textLength="19.5127" x="524.826" y="452.0178">0..*</text></g><!--link Dataset to TemporalExtent--><g class="link" data-entity-1="ent0002" data-entity-2="ent0013" data-link-type="dependency" data-source-line="42" id="lnk14"><path codeLine="42" d="M1200.79,226.4694 C1058.87,246.2294 847.13,293.7794 701,407.6094 C682.3,422.1794 672.5755,442.5209 666.9655,457.4909" fill="none" id="Dataset-to-TemporalExtent" style="stroke:#404040;stroke-width:1.2;"/><polygon fill="#404040" points="664.86,463.1094,671.7639,456.0854,666.6146,458.4273,664.2726,453.278,664.86,463.1094" style="stroke:#404040;stroke-width:1.2;"/><text fill="#000000" font-family="sans-serif" font-size="13" lengthAdjust="spacing" textLength="106.9453" x="702" y="422.1045">temporalCoverage</text><text fill="#000000" font-family="sans-serif" font-size="13" lengthAdjust="spacing" textLength="19.5127" x="643.7005" y="452.2014">0..*</text></g><!--link Dataset to QualityMeasurement--><g class="link" data-entity-1="ent0002" data-entity-2="ent0015" data-link-type="dependency" data-source-line="44" id="lnk16"><path codeLine="44" d="M1200.72,234.2694 C1085.09,258.2194 929.05,307.5794 829,407.6094 C813.72,422.8794 808.589,442.4217 806.279,457.1617" fill="none" id="Dataset-to-QualityMeasurement" style="stroke:#404040;stroke-width:1.2;"/><polygon fill="#404040" points="805.35,463.0894,810.6952,454.8172,806.1241,458.1497,802.7917,453.5786,805.35,463.0894" style="stroke:#404040;stroke-width:1.2;"/><text fill="#000000" font-family="sans-serif" font-size="13" lengthAdjust="spacing" textLength="140.8989" x="830" y="422.1045">hasQualityMeasurement</text><text fill="#000000" font-family="sans-serif" font-size="13" lengthAdjust="spacing" textLength="19.5127" x="783.1531" y="452.1732">0..*</text></g><!--link Dataset to Agent--><g class="link" data-entity-1="ent0002" data-entity-2="ent0017" data-link-type="dependency" data-source-line="46" id="lnk18"><path codeLine="46" d="M1200.57,251.5594 C1120.96,280.5694 1030.31,329.0994 983,407.6094 C952.92,457.5294 1061.154,470.0703 1107.394,473.2303" fill="none" id="Dataset-to-Agent" style="stroke:#404040;stroke-width:1.2;"/><polygon fill="#404040" points="1113.38,473.6394,1104.6737,469.0351,1108.3916,473.2985,1104.1282,477.0164,1113.38,473.6394" style="stroke:#404040;stroke-width:1.2;"/><text fill="#000000" font-family="sans-serif" font-size="13" lengthAdjust="spacing" textLength="60.6963" x="984" y="422.1045">maintainer</text><text fill="#000000" font-family="sans-serif" font-size="13" lengthAdjust="spacing" textLength="19.5127" x="1086.1423" y="468.2437">0..*</text></g><!--link Dataset to Agent--><g class="link" data-entity-1="ent0002" data-entity-2="ent0017" data-link-type="dependency" data-source-line="47" id="lnk19"><path codeLine="47" d="M1200.84,286.9194 C1155.11,317.5394 1110.35,357.7094 1085,407.6094 C1074.45,428.3894 1091.8814,446.4643 1109.2414,459.3443" fill="none" id="Dataset-to-Agent-1" style="stroke:#404040;stroke-width:1.2;"/><polygon fill="#404040" points="1114.06,462.9194,1109.2155,454.3444,1110.0445,459.9401,1104.4487,460.7691,1114.06,462.9194" style="stroke:#404040;stroke-width:1.2;"/><text fill="#000000" font-family="sans-serif" font-size="13" lengthAdjust="spacing" textLength="46.9663" x="1086" y="422.1045">provider</text><text fill="#000000" font-family="sans-serif" font-size="13" lengthAdjust="spacing" textLength="19.5127" x="1110.7669" y="452.3186">0..*</text></g><!--link Dataset to Agent--><g class="link" data-entity-1="ent0002" data-entity-2="ent0017" data-link-type="dependency" data-source-line="50" id="lnk22"><path codeLine="50" d="M1200.79,372.5294 C1191.14,384.1994 1181.78,395.9594 1173,407.6094 C1159.21,425.9094 1148.7478,443.7801 1141.1978,457.5301" fill="none" id="Dataset-to-Agent-2" style="stroke:#404040;stroke-width:1.2;"/><polygon fill="#404040" points="1138.31,462.7894,1146.148,456.8256,1140.7165,458.4066,1139.1356,452.9752,1138.31,462.7894" style="stroke:#404040;stroke-width:1.2;"/><text fill="#000000" font-family="sans-serif" font-size="13" lengthAdjust="spacing" textLength="40.46" x="1174" y="422.1045">creator</text><text fill="#000000" font-family="sans-serif" font-size="13" lengthAdjust="spacing" textLength="19.5127" x="1144.5654" y="452.1374">0..*</text></g><!--link Dataset to Agent--><g class="link" data-entity-1="ent0002" data-entity-2="ent0017" data-link-type="dependency" data-source-line="53" id="lnk25"><path codeLine="53" d="M1260.83,377.8594 C1247.96,394.9694 1233.97,411.2994 1219,425.6094 C1198.82,444.8894 1175.1312,456.9507 1156.2312,464.9907" fill="none" id="Dataset-to-Agent-3" style="stroke:#404040;stroke-width:1.2;"/><polygon fill="#404040" points="1150.71,467.3394,1160.5576,467.4971,1155.311,465.3821,1157.426,460.1355,1150.71,467.3394" style="stroke:#404040;stroke-width:1.2;"/><text fill="#000000" font-family="sans-serif" font-size="13" lengthAdjust="spacing" textLength="52.7554" x="1235" y="422.1045">publisher</text><text fill="#000000" font-family="sans-serif" font-size="13" lengthAdjust="spacing" textLength="21.6836" x="1158.9709" y="480.7948">0..1</text></g><!--link Dataset to AbstractDistribution--><g class="link" data-entity-1="ent0002" data-entity-2="ent0020" data-link-type="dependency" data-source-line="49" id="lnk21"><path codeLine="49" d="M1336.24,377.7994 C1332.79,413.9694 1330.2592,440.4264 1328.6792,457.0064" fill="none" id="Dataset-to-AbstractDistribution" style="stroke:#404040;stroke-width:1.2;"/><polygon fill="#404040" points="1328.11,462.9794,1332.9458,454.3994,1328.5843,458.0019,1324.9818,453.6405,1328.11,462.9794" style="stroke:#404040;stroke-width:1.2;"/><text fill="#000000" font-family="sans-serif" font-size="13" lengthAdjust="spacing" textLength="62.8672" x="1335" y="422.1045">distribution</text><text fill="#000000" font-family="sans-serif" font-size="13" lengthAdjust="spacing" textLength="19.5127" x="1305.7468" y="452.0178">0..*</text></g><!--link Dataset to Contributor--><g class="link" data-entity-1="ent0002" data-entity-2="ent0023" data-link-type="dependency" data-source-line="52" id="lnk24"><path codeLine="52" d="M1413.79,377.7994 C1427.32,413.9694 1437.3485,440.7795 1443.5485,457.3595" fill="none" id="Dataset-to-Contributor" style="stroke:#404040;stroke-width:1.2;"/><polygon fill="#404040" points="1445.65,462.9794,1446.2443,453.1485,1443.8987,458.2961,1438.7511,455.9505,1445.65,462.9794" style="stroke:#404040;stroke-width:1.2;"/><text fill="#000000" font-family="sans-serif" font-size="13" lengthAdjust="spacing" textLength="61.4199" x="1433" y="422.1045">contributor</text><text fill="#000000" font-family="sans-serif" font-size="13" lengthAdjust="spacing" textLength="19.5127" x="1420.9681" y="452.0178">0..*</text></g><!--link Dataset to MonetaryGrant--><g class="link" data-entity-1="ent0002" data-entity-2="ent0026" data-link-type="dependency" data-source-line="55" id="lnk27"><path codeLine="55" d="M1483.77,377.7994 C1512.63,413.9694 1534.7594,441.7081 1547.9794,458.2881" fill="none" id="Dataset-to-MonetaryGrant" style="stroke:#404040;stroke-width:1.2;"/><polygon fill="#404040" points="1551.72,462.9794,1549.2367,453.4487,1548.6029,459.07,1542.9816,458.4362,1551.72,462.9794" style="stroke:#404040;stroke-width:1.2;"/><text fill="#000000" font-family="sans-serif" font-size="13" lengthAdjust="spacing" textLength="42.6499" x="1523" y="422.1045">funding</text><text fill="#000000" font-family="sans-serif" font-size="13" lengthAdjust="spacing" textLength="19.5127" x="1525.0721" y="452.0178">0..*</text></g><!--link Dataset to ProvActivity--><g class="link" data-entity-1="ent0002" data-entity-2="ent0028" data-link-type="dependency" data-source-line="57" id="lnk29"><path codeLine="57" d="M1503.1,335.5494 C1566.17,386.8694 1626.6258,436.0627 1654.8458,459.0227" fill="none" id="Dataset-to-ProvActivity" style="stroke:#404040;stroke-width:1.2;"/><polygon fill="#404040" points="1659.5,462.8094,1655.0432,454.0266,1655.6215,459.6538,1649.9943,460.2322,1659.5,462.8094" style="stroke:#404040;stroke-width:1.2;"/><text fill="#000000" font-family="sans-serif" font-size="13" lengthAdjust="spacing" textLength="99.7217" x="1614" y="422.1045">wasGeneratedBy</text><text fill="#000000" font-family="sans-serif" font-size="13" lengthAdjust="spacing" textLength="19.5127" x="1631.2144" y="452.1652">0..*</text></g><!--link Dataset to DerivedFrom--><g class="link" data-entity-1="ent0002" data-entity-2="ent0030" data-link-type="dependency" data-source-line="59" id="lnk31"><path codeLine="59" d="M1503.44,277.9894 C1573.3,311.6794 1655.33,356.4394 1722,407.6094 C1743.62,424.2094 1760.4902,444.0181 1771.6502,458.3281" fill="none" id="Dataset-to-DerivedFrom" style="stroke:#404040;stroke-width:1.2;"/><polygon fill="#404040" points="1775.34,463.0594,1772.9595,453.5025,1772.2651,459.1166,1766.6511,458.4223,1775.34,463.0594" style="stroke:#404040;stroke-width:1.2;"/><text fill="#000000" font-family="sans-serif" font-size="13" lengthAdjust="spacing" textLength="98.2427" x="1742" y="422.1045">wasDerivedFrom</text><text fill="#000000" font-family="sans-serif" font-size="13" lengthAdjust="spacing" textLength="19.5127" x="1748.8834" y="452.1308">0..*</text></g><!--link Dataset to CatalogRecord--><g class="link" data-entity-1="ent0002" data-entity-2="ent0032" data-link-type="dependency" data-source-line="61" id="lnk33"><path codeLine="61" d="M1503.24,261.9194 C1603.79,297.0994 1737.38,348.5294 1849,407.6094 C1880.33,424.1894 1909.0467,445.0779 1927.6367,459.3979" fill="none" id="Dataset-to-CatalogRecord" style="stroke:#404040;stroke-width:1.2;"/><polygon fill="#404040" points="1932.39,463.0594,1927.7011,454.3983,1928.4289,460.0081,1922.8191,460.736,1932.39,463.0594" style="stroke:#404040;stroke-width:1.2;"/><text fill="#000000" font-family="sans-serif" font-size="13" lengthAdjust="spacing" textLength="54.9136" x="1879" y="422.1045">subjectOf</text><text fill="#000000" font-family="sans-serif" font-size="13" lengthAdjust="spacing" textLength="7.23" x="1917.9578" y="452.1308">1</text></g><!--link CatalogRecord to Dataset--><g class="link" data-entity-1="ent0032" data-entity-2="ent0002" data-link-type="dependency" data-source-line="66" id="lnk38"><path codeLine="66" d="M1949.68,463.0594 C1952.34,448.5194 1954.42,423.5094 1942,407.6094 C1838.08,274.5494 1646.6913,231.8856 1508.9813,218.3656" fill="none" id="CatalogRecord-to-Dataset" style="stroke:#404040;stroke-width:1.2;"/><polygon fill="#404040" points="1503.01,217.7794,1511.5761,222.6396,1507.9861,218.2679,1512.3578,214.6779,1503.01,217.7794" style="stroke:#404040;stroke-width:1.2;"/><text fill="#000000" font-family="sans-serif" font-size="13" lengthAdjust="spacing" textLength="32.5317" x="1951" y="422.1045">about</text><text fill="#000000" font-family="sans-serif" font-size="13" lengthAdjust="spacing" textLength="21.6836" x="1511.3493" y="215.1775">0..1</text></g><!--link Dataset to DefinedTerm--><g class="link" data-entity-1="ent0002" data-entity-2="ent0034" data-link-type="dependency" data-source-line="63" id="lnk35"><path codeLine="63" d="M1503.22,244.2894 C1636.23,275.4694 1832.89,329.7694 1992,407.6094 C2023.36,422.9494 2051.1092,444.3201 2068.7992,459.0501" fill="none" id="Dataset-to-DefinedTerm" style="stroke:#404040;stroke-width:1.2;"/><polygon fill="#404040" points="2073.41,462.8894,2069.0533,454.0565,2069.5676,459.6899,2063.9342,460.2043,2073.41,462.8894" style="stroke:#404040;stroke-width:1.2;"/><text fill="#000000" font-family="sans-serif" font-size="13" lengthAdjust="spacing" textLength="54.9072" x="2024" y="422.1045">keywords</text><text fill="#000000" font-family="sans-serif" font-size="13" lengthAdjust="spacing" textLength="19.5127" x="2045.3489" y="452.2767">0..*</text></g><!--link Dataset to Reference--><g class="link" data-entity-1="ent0002" data-entity-2="ent0036" data-link-type="dependency" data-source-line="65" id="lnk37"><path codeLine="65" d="M1503.12,238.1294 C1655.11,267.1294 1893.96,321.8594 2087,407.6094 C2120.92,422.6794 2151.5591,444.5548 2170.7591,459.3648" fill="none" id="Dataset-to-Reference" style="stroke:#404040;stroke-width:1.2;"/><polygon fill="#404040" points="2175.51,463.0294,2170.8268,454.3652,2171.5509,459.9755,2165.9406,460.6997,2175.51,463.0294" style="stroke:#404040;stroke-width:1.2;"/><text fill="#000000" font-family="sans-serif" font-size="13" lengthAdjust="spacing" textLength="40.4663" x="2121" y="422.1045">license</text><text fill="#000000" font-family="sans-serif" font-size="13" lengthAdjust="spacing" textLength="19.5127" x="2146.6445" y="452.0884">0..*</text></g><!--link Dataset to XsdLanguage--><g class="link" data-entity-1="ent0002" data-entity-2="ent0039" data-link-type="dependency" data-source-line="68" id="lnk40"><path codeLine="68" d="M1503.18,236.7294 C1669.99,266.0494 1944.67,322.4394 2170,407.6094 C2204.07,420.4894 2235.4074,437.5952 2260.2974,452.4452" fill="none" id="Dataset-to-XsdLanguage" style="stroke:#404040;stroke-width:1.2;stroke-dasharray:7,7;"/><polygon fill="#404040" points="2265.45,455.5194,2259.7705,447.473,2261.1562,452.9576,2255.6716,454.3432,2265.45,455.5194" style="stroke:#404040;stroke-width:1.2;"/><text fill="#000000" font-family="sans-serif" font-size="13" lengthAdjust="spacing" textLength="67.958" x="2211" y="422.1045">inLanguage</text></g><!--link Dataset to XsdDate--><g class="link" data-entity-1="ent0002" data-entity-2="ent0041" data-link-type="dependency" data-source-line="70" id="lnk42"><path codeLine="70" d="M1503.05,229.2794 C1691.38,253.3794 2020.94,306.5994 2287,407.6094 C2319.39,419.9094 2348.415,437.0855 2371.375,452.1655" fill="none" id="Dataset-to-XsdDate" style="stroke:#404040;stroke-width:1.2;stroke-dasharray:7,7;"/><polygon fill="#404040" points="2376.39,455.4594,2371.0633,447.1752,2372.2108,452.7145,2366.6716,453.862,2376.39,455.4594" style="stroke:#404040;stroke-width:1.2;"/><text fill="#000000" font-family="sans-serif" font-size="13" lengthAdjust="spacing" textLength="74.439" x="2325" y="422.1045">dateModified</text></g><!--link Dataset to XsdAnyUri--><g class="link" data-entity-1="ent0002" data-entity-2="ent0043" data-link-type="dependency" data-source-line="72" id="lnk44"><path codeLine="72" d="M1503.42,223.5694 C1712.64,242.4794 2099.27,291.0994 2408,407.6094 C2439.59,419.5294 2467.4302,436.8349 2489.2902,452.0949" fill="none" id="Dataset-to-XsdAnyUri" style="stroke:#404040;stroke-width:1.2;stroke-dasharray:7,7;"/><polygon fill="#404040" points="2494.21,455.5294,2489.1199,447.0978,2490.1101,452.6674,2484.5406,453.6576,2494.21,455.5294" style="stroke:#404040;stroke-width:1.2;"/><text fill="#000000" font-family="sans-serif" font-size="13" lengthAdjust="spacing" textLength="14.4473" x="2444" y="422.1045">url</text></g><?plantuml-src ZLRRJXin47tVhx32Mwj6GDkN5K8AkI1K41JIgXBgWsDF4ZTUExMzeMd5ltUyDtjpMG6Aj3DpzfpnUZnZ9vm4CgAEMd39Kd0WJ1WceNo6REss98Di1iOcTYNKcXgQ4RkaNBy8jI1pAYr4aO4n-cMw56obm5forZ-FWanIzFrBI0aRQgaDEVbqwl_HUQKD1xFhdMZbdiHV86VdoMkIb1ozAkKUeRPEdvnCnfFnS5m8lC-0sjn01ifDWIsL-9q3ISa8va81duB9oFDfl__kfmVZMfKJSm468JV1U3uhmefc_bthZ5zovUHWcH5h9xIAOaXPXYddmiUed6xNnvKjKW_iZceJtU1dFy8lr2rLYvmkFFSFonihG3XrSAUv9-Kb2ByKDFdZyqC-ay8ks-7c_Tp8qZzGssz6H14f62ZhbHzX3WOKWoXhfbMvTdi_7p3cw-0mS5tAuy8US7LCh2KSWwvW-uBbOOzleM8ovy1lb2-78VwaNXmXCo1nfVnMgDKXn6j2P_YzANDLnVO6bVsT6a5d4egostMIat7nbzJr-E739UcT8MLl7vkIJVLuLnOghoiRFqL6pVOBR0kLO1xcztlIYr4fML8Rx9hsoL4dh1FC5hJ1F4gBQKSeNuAriS-9XrO2ytk-mnu2RzE9y0SLr-YXSlp7uMaffM9FfqOBYEIbFTHuoF3Sr0fJx7dQj2JQhYwD7MHANENOLVcQKodSzYuqgK9ftzsbTW1TRFw-Vx-W5xLayTIbKW9Iab6X7Fx0TA7MHc-mcvgZHsWaV2kRvKsj70fqvdC8dn8UcLq9CWFKQLDln12dI_6QDaKsaTsLH0n3pc0TEfpDjwcwRID-fnKuFARNXbQxqV9q9T06fcIUOyzLYz14z6Q0nsY3TL2raU3euctXKl92xJNWbljsUTNqaX4OiG4-CJeh1t2mkxXZM44TEPhzA1lt8p3izkMEn9uZFRQtWyBJdSz-OH-vduUScwbHvHocI6VE0PQIUWhLfCteA2Z38EaW3A2KL6CqQISVLKxzVaheJEUkbet6VI4SZ_-B2npirDyvBY_nHZGOVnvzRFBezozRu9I4QqH4xky1DN5n9tWBQG74SnXTEYBAyWfHarONYhVGLj2Ku6qa-Gy0?></g></svg>