<svg xmlns="http://www.w3.org/2000/svg" xmlns:xlink="http://www.w3.org/1999/xlink" contentStyleType="text/css" data-diagram-type="CLASS" height="248px" preserveAspectRatio="none" style="width:841px;height:248px;background:#FFFFFF;" version="1.1" viewBox="0 0 841 248" width="841px" zoomAndPan="magnify"><?plantuml 1.2026.3?><defs/><g><g class="title" data-source-line="1"><text fill="#000000" font-family="sans-serif" font-size="14" font-weight="700" lengthAdjust="spacing" textLength="50.5791" x="392.1599" y="24.5332">Dataset</text></g><!--class Dataset--><g class="entity" data-qualified-name="Dataset" data-source-line="12" id="ent0002"><rect fill="#FEFECE" height="85.9219" rx="2.5" ry="2.5" style="stroke:#404040;stroke-width:0.5;" width="204.2061" x="250" y="45.6094"/><text fill="#000000" font-family="sans-serif" font-size="12" lengthAdjust="spacing" textLength="41.3555" x="331.4253" y="63.0664">Dataset</text><line style="stroke:#404040;stroke-width:0.5;" x1="251" x2="453.2061" y1="70.7031" y2="70.7031"/><g data-visibility-modifier="PUBLIC_FIELD"><ellipse cx="261" cy="85.0078" fill="none" rx="3" ry="3" style="stroke:#038048;stroke-width:1;"/></g><text fill="#000000" font-family="sans-serif" font-size="14" lengthAdjust="spacing" textLength="128.3994" x="270" y="89.2363">subjectOf : any [0..1]</text><g data-visibility-modifier="PUBLIC_FIELD"><ellipse cx="261" cy="102.6172" fill="none" rx="3" ry="3" style="stroke:#038048;stroke-width:1;"/></g><text fill="#000000" font-family="sans-serif" font-size="14" lengthAdjust="spacing" textLength="178.2061" x="270" y="106.8457">variableMeasured : any [1..*]</text><g data-visibility-modifier="PUBLIC_FIELD"><ellipse cx="261" cy="120.2266" fill="none" rx="3" ry="3" style="stroke:#038048;stroke-width:1;"/></g><text fill="#000000" font-family="sans-serif" font-size="14" lengthAdjust="spacing" textLength="134.627" x="270" y="124.4551">distribution : any [0..*]</text></g><!--class CdifKey--><g class="entity" data-qualified-name="CdifKey" data-source-line="18" id="ent0003"><rect fill="#D6EAF8" height="25.0938" rx="2.5" ry="2.5" style="stroke:#404040;stroke-width:0.5;" width="48.0176" x="7" y="209.6094"/><text fill="#000000" font-family="sans-serif" font-size="12" lengthAdjust="spacing" textLength="42.0176" x="10" y="227.0664">CdifKey</text></g><!--class CdifStatistics--><g class="entity" data-qualified-name="CdifStatistics" data-source-line="20" id="ent0004"><rect fill="#D6EAF8" height="25.0938" rx="2.5" ry="2.5" style="stroke:#404040;stroke-width:0.5;" width="75.3516" x="118.5" y="209.6094"/><text fill="#000000" font-family="sans-serif" font-size="12" lengthAdjust="spacing" textLength="69.3516" x="121.5" y="227.0664">CdifStatistics</text></g><!--class DefinedTerm--><g class="entity" data-qualified-name="DefinedTerm" data-source-line="22" id="ent0005"><rect fill="#FEFECE" height="25.0938" rx="2.5" ry="2.5" style="stroke:#404040;stroke-width:0.5;" width="75.3574" x="228.5" y="209.6094"/><text fill="#000000" font-family="sans-serif" font-size="12" lengthAdjust="spacing" textLength="69.3574" x="231.5" y="227.0664">DefinedTerm</text></g><!--class SpatialExtent--><g class="entity" data-qualified-name="SpatialExtent" data-source-line="24" id="ent0006"><rect fill="#FEFECE" height="25.0938" rx="2.5" ry="2.5" style="stroke:#404040;stroke-width:0.5;" width="76.7109" x="404.5" y="209.6094"/><text fill="#000000" font-family="sans-serif" font-size="12" lengthAdjust="spacing" textLength="70.7109" x="407.5" y="227.0664">SpatialExtent</text></g><!--class TemporalExtent--><g class="entity" data-qualified-name="TemporalExtent" data-source-line="26" id="ent0007"><rect fill="#FEFECE" height="25.0938" rx="2.5" ry="2.5" style="stroke:#404040;stroke-width:0.5;" width="90.7031" x="532.5" y="209.6094"/><text fill="#000000" font-family="sans-serif" font-size="12" lengthAdjust="spacing" textLength="84.7031" x="535.5" y="227.0664">TemporalExtent</text></g><!--class QualityMeasure--><g class="entity" data-qualified-name="QualityMeasure" data-source-line="28" id="ent0008"><rect fill="#FEFECE" height="25.0938" rx="2.5" ry="2.5" style="stroke:#404040;stroke-width:0.5;" width="90.0352" x="681" y="209.6094"/><text fill="#000000" font-family="sans-serif" font-size="12" lengthAdjust="spacing" textLength="84.0352" x="684" y="227.0664">QualityMeasure</text></g><!--link Dataset to CdifKey--><g class="link" data-entity-1="ent0002" data-entity-2="ent0003" data-link-type="dependency" data-source-line="30" id="lnk9"><path codeLine="30" d="M249.85,102.3794 C197.02,112.4694 133.27,130.2994 83,161.6094 C63.44,173.7894 50.4497,190.5916 41.5597,204.1516" fill="none" id="Dataset-to-CdifKey" style="stroke:#404040;stroke-width:1.2;"/><polygon fill="#404040" points="38.27,209.1694,46.5497,203.8358,41.0114,204.9879,39.8593,199.4496,38.27,209.1694" style="stroke:#404040;stroke-width:1.2;"/><text fill="#000000" font-family="sans-serif" font-size="13" lengthAdjust="spacing" textLength="88.1372" x="84" y="176.1045">hasPrimaryKey</text><text fill="#000000" font-family="sans-serif" font-size="13" lengthAdjust="spacing" textLength="21.6836" x="16.1655" y="198.7303">0..1</text></g><!--link Dataset to CdifStatistics--><g class="link" data-entity-1="ent0002" data-entity-2="ent0004" data-link-type="dependency" data-source-line="31" id="lnk10"><path codeLine="31" d="M249.78,126.9594 C230.76,136.5494 211.89,148.0694 196,161.6094 C180.27,175.0094 170.8131,190.6877 164.2131,203.8277" fill="none" id="Dataset-to-CdifStatistics" style="stroke:#404040;stroke-width:1.2;"/><polygon fill="#404040" points="161.52,209.1894,169.134,202.9423,163.7642,204.7213,161.9852,199.3515,161.52,209.1894" style="stroke:#404040;stroke-width:1.2;"/><text fill="#000000" font-family="sans-serif" font-size="13" lengthAdjust="spacing" textLength="49.8418" x="197" y="176.1045">statistics</text><text fill="#000000" font-family="sans-serif" font-size="13" lengthAdjust="spacing" textLength="19.5127" x="141.0333" y="198.7579">0..*</text></g><!--link Dataset to DefinedTerm--><g class="link" data-entity-1="ent0002" data-entity-2="ent0005" data-link-type="dependency" data-source-line="32" id="lnk11"><path codeLine="32" d="M281.13,131.7194 C271.79,140.3894 263.55,150.3694 258,161.6094 C250.43,176.9394 253.6573,191.4605 258.5273,203.9305" fill="none" id="Dataset-to-DefinedTerm" style="stroke:#404040;stroke-width:1.2;"/><polygon fill="#404040" points="260.71,209.5194,261.1619,199.6809,258.8911,204.8619,253.71,202.5911,260.71,209.5194" style="stroke:#404040;stroke-width:1.2;"/><text fill="#000000" font-family="sans-serif" font-size="13" lengthAdjust="spacing" textLength="140.188" x="259" y="176.1045">measurementTechnique</text><text fill="#000000" font-family="sans-serif" font-size="13" lengthAdjust="spacing" textLength="19.5127" x="235.6412" y="198.5743">0..*</text></g><!--link Dataset to SpatialExtent--><g class="link" data-entity-1="ent0002" data-entity-2="ent0006" data-link-type="dependency" data-source-line="33" id="lnk12"><path codeLine="33" d="M382.84,131.6394 C389.88,141.4194 397.27,151.8294 404,161.6094 C415.34,178.0894 424.7122,192.488 432.4422,204.548" fill="none" id="Dataset-to-SpatialExtent" style="stroke:#404040;stroke-width:1.2;"/><polygon fill="#404040" points="435.68,209.5994,434.191,199.8637,432.9819,205.3899,427.4557,204.1808,435.68,209.5994" style="stroke:#404040;stroke-width:1.2;"/><text fill="#000000" font-family="sans-serif" font-size="13" lengthAdjust="spacing" textLength="93.9453" x="418" y="176.1045">spatialCoverage</text><text fill="#000000" font-family="sans-serif" font-size="13" lengthAdjust="spacing" textLength="19.5127" x="409.9071" y="198.6873">0..*</text></g><!--link Dataset to TemporalExtent--><g class="link" data-entity-1="ent0002" data-entity-2="ent0007" data-link-type="dependency" data-source-line="34" id="lnk13"><path codeLine="34" d="M454.44,125.8994 C476.93,135.9194 499.99,147.8694 520,161.6094 C539.74,175.1594 554.4945,191.4962 565.0845,204.5762" fill="none" id="Dataset-to-TemporalExtent" style="stroke:#404040;stroke-width:1.2;"/><polygon fill="#404040" points="568.86,209.2394,566.3056,199.7275,565.7138,205.3534,560.0879,204.7615,568.86,209.2394" style="stroke:#404040;stroke-width:1.2;"/><text fill="#000000" font-family="sans-serif" font-size="13" lengthAdjust="spacing" textLength="106.9453" x="543" y="176.1045">temporalCoverage</text><text fill="#000000" font-family="sans-serif" font-size="13" lengthAdjust="spacing" textLength="19.5127" x="542.9078" y="198.827">0..*</text></g><!--link Dataset to QualityMeasure--><g class="link" data-entity-1="ent0002" data-entity-2="ent0008" data-link-type="dependency" data-source-line="35" id="lnk14"><path codeLine="35" d="M454.15,100.9594 C515.78,110.8294 594.42,128.9194 658,161.6094 C681.72,173.8094 699.9013,191.584 712.1413,205.154" fill="none" id="Dataset-to-QualityMeasure" style="stroke:#404040;stroke-width:1.2;"/><polygon fill="#404040" points="716.16,209.6094,713.1022,200.2472,712.8111,205.8966,707.1617,205.6055,716.16,209.6094" style="stroke:#404040;stroke-width:1.2;"/><text fill="#000000" font-family="sans-serif" font-size="13" lengthAdjust="spacing" textLength="140.8989" x="685" y="176.1045">hasQualityMeasurement</text><text fill="#000000" font-family="sans-serif" font-size="13" lengthAdjust="spacing" textLength="19.5127" x="689.2807" y="198.7014">0..*</text></g><?plantuml-src VL9DJy904BttLqpA3MC3n1ZJWmb2kHYZXjwCXw6Tqf5s5tUtO3N-TvUs50h4x6NdpNlpyNODcunWYWOr6IVbc21Y5MLKtobVcn9ooXUajADNBDQeC0UTOYotB9QGOARfA3DMIcx3bAEL8ArXw8sEab665ljneAPDP2OLz6u6ksF11wbYKgVeJ0epvs-2uSZvTPowXjkCx0Bg_VZGcmMpO19K3QvqiVYWo3mdu0EA4ju6dZTytsKsg1WN6JqHwa9Hl2SCFQzV4MBMHl6YC2p5aTec3_qdCIUFL5RzcplqfhV1U7RNuSmD6bkE8zrI3z2POae92uf3KdczsI7URzTovsjR1hFWov2eVUWWP_pGFgPK7K4NEbEy5fYnAHkVAaKNEYZsJt1zVG_kpcctTSM75FMBuXnLQUCpQjyzTSK7tGQNwCUk-FPtLhFaTeEGebJmPq6NL5rtR8ywdiWDALnUb9puuuDfWFz49nPLwtUntQX_?></g></svg>