<svg xmlns="http://www.w3.org/2000/svg" xmlns:xlink="http://www.w3.org/1999/xlink" contentStyleType="text/css" data-diagram-type="CLASS" height="492px" preserveAspectRatio="none" style="width:3346px;height:492px;background:#FFFFFF;" version="1.1" viewBox="0 0 3346 492" width="3346px" zoomAndPan="magnify"><?plantuml 1.2026.3?><defs/><g><g class="title" data-source-line="1"><text fill="#000000" font-family="sans-serif" font-size="14" font-weight="700" lengthAdjust="spacing" textLength="50.5791" x="1644.6509" y="24.5332">Dataset</text></g><!--class Dataset--><g class="entity" data-qualified-name="Dataset" data-source-line="12" id="ent0002"><rect fill="#FEFECE" height="314.8438" rx="2.5" ry="2.5" style="stroke:#404040;stroke-width:0.5;" width="302.2402" x="1531" y="45.6094"/><text fill="#000000" font-family="sans-serif" font-size="12" lengthAdjust="spacing" textLength="41.3555" x="1661.4424" y="63.0664">Dataset</text><line style="stroke:#404040;stroke-width:0.5;" x1="1532" x2="1832.2402" y1="70.7031" y2="70.7031"/><g data-visibility-modifier="PUBLIC_FIELD"><ellipse cx="1542" cy="85.0078" fill="none" rx="3" ry="3" style="stroke:#038048;stroke-width:1;"/></g><text fill="#000000" font-family="sans-serif" font-size="14" lengthAdjust="spacing" textLength="276.2402" x="1551" y="89.2363">measurementTechnique : DefinedTerm [0..*]</text><g data-visibility-modifier="PUBLIC_FIELD"><ellipse cx="1542" cy="102.6172" fill="none" rx="3" ry="3" style="stroke:#038048;stroke-width:1;"/></g><text fill="#000000" font-family="sans-serif" font-size="14" lengthAdjust="spacing" textLength="137.7373" x="1551" y="106.8457">identifier : Identifier [1]</text><g data-visibility-modifier="PUBLIC_FIELD"><ellipse cx="1542" cy="120.2266" fill="none" rx="3" ry="3" style="stroke:#038048;stroke-width:1;"/></g><text fill="#000000" font-family="sans-serif" font-size="14" lengthAdjust="spacing" textLength="100.3789" x="1551" y="124.4551">name : string [1]</text><g data-visibility-modifier="PUBLIC_FIELD"><ellipse cx="1542" cy="137.8359" fill="none" rx="3" ry="3" style="stroke:#038048;stroke-width:1;"/></g><text fill="#000000" font-family="sans-serif" font-size="14" lengthAdjust="spacing" textLength="148.627" x="1551" y="142.0645">description : string [0..1]</text><g data-visibility-modifier="PUBLIC_FIELD"><ellipse cx="1542" cy="155.4453" fill="none" rx="3" ry="3" style="stroke:#038048;stroke-width:1;"/></g><text fill="#000000" font-family="sans-serif" font-size="14" lengthAdjust="spacing" textLength="216.3301" x="1551" y="159.6738">additionalType : DefinedTerm [0..*]</text><g data-visibility-modifier="PUBLIC_FIELD"><ellipse cx="1542" cy="173.0547" fill="none" rx="3" ry="3" style="stroke:#038048;stroke-width:1;"/></g><text fill="#000000" font-family="sans-serif" font-size="14" lengthAdjust="spacing" textLength="148.6201" x="1551" y="177.2832">sameAs : Identifier [0..*]</text><g data-visibility-modifier="PUBLIC_FIELD"><ellipse cx="1542" cy="190.6641" fill="none" rx="3" ry="3" style="stroke:#038048;stroke-width:1;"/></g><text fill="#000000" font-family="sans-serif" font-size="14" lengthAdjust="spacing" textLength="126.0547" x="1551" y="194.8926">version : string [0..1]</text><g data-visibility-modifier="PUBLIC_FIELD"><ellipse cx="1542" cy="208.2734" fill="none" rx="3" ry="3" style="stroke:#038048;stroke-width:1;"/></g><text fill="#000000" font-family="sans-serif" font-size="14" lengthAdjust="spacing" textLength="206.2881" x="1551" y="212.502">inLanguage : XsdLanguage [0..1]</text><g data-visibility-modifier="PUBLIC_FIELD"><ellipse cx="1542" cy="225.8828" fill="none" rx="3" ry="3" style="stroke:#038048;stroke-width:1;"/></g><text fill="#000000" font-family="sans-serif" font-size="14" lengthAdjust="spacing" textLength="164.9854" x="1551" y="230.1113">dateModified : XsdDate [1]</text><g data-visibility-modifier="PUBLIC_FIELD"><ellipse cx="1542" cy="243.4922" fill="none" rx="3" ry="3" style="stroke:#038048;stroke-width:1;"/></g><text fill="#000000" font-family="sans-serif" font-size="14" lengthAdjust="spacing" textLength="189.123" x="1551" y="247.7207">datePublished : XsdDate [0..1]</text><g data-visibility-modifier="PUBLIC_FIELD"><ellipse cx="1542" cy="261.1016" fill="none" rx="3" ry="3" style="stroke:#038048;stroke-width:1;"/></g><text fill="#000000" font-family="sans-serif" font-size="14" lengthAdjust="spacing" textLength="128.3789" x="1551" y="265.3301">url : XsdAnyUri [0..1]</text><g data-visibility-modifier="PUBLIC_FIELD"><ellipse cx="1542" cy="278.7109" fill="none" rx="3" ry="3" style="stroke:#038048;stroke-width:1;"/></g><text fill="#000000" font-family="sans-serif" font-size="14" lengthAdjust="spacing" textLength="152.5234" x="1551" y="282.9395">license : Reference [0..*]</text><g data-visibility-modifier="PUBLIC_FIELD"><ellipse cx="1542" cy="296.3203" fill="none" rx="3" ry="3" style="stroke:#038048;stroke-width:1;"/></g><text fill="#000000" font-family="sans-serif" font-size="14" lengthAdjust="spacing" textLength="231.8887" x="1551" y="300.5488">conditionsOfAccess : Reference [0..*]</text><g data-visibility-modifier="PUBLIC_FIELD"><ellipse cx="1542" cy="313.9297" fill="none" rx="3" ry="3" style="stroke:#038048;stroke-width:1;"/></g><text fill="#000000" font-family="sans-serif" font-size="14" lengthAdjust="spacing" textLength="232.6816" x="1551" y="318.1582">publishingPrinciples : Reference [0..*]</text><g data-visibility-modifier="PUBLIC_FIELD"><ellipse cx="1542" cy="331.5391" fill="none" rx="3" ry="3" style="stroke:#038048;stroke-width:1;"/></g><text fill="#000000" font-family="sans-serif" font-size="14" lengthAdjust="spacing" textLength="184.3994" x="1551" y="335.7676">keywords : DefinedTerm [0..*]</text><g data-visibility-modifier="PUBLIC_FIELD"><ellipse cx="1542" cy="349.1484" fill="none" rx="3" ry="3" style="stroke:#038048;stroke-width:1;"/></g><text fill="#000000" font-family="sans-serif" font-size="14" lengthAdjust="spacing" textLength="177.4336" x="1551" y="353.377">relatedLink : Reference [0..*]</text></g><!--class AbstractVariable--><g class="entity" data-qualified-name="AbstractVariable" data-source-line="30" id="ent0003"><rect fill="#EEEEEE" height="25.0938" rx="2.5" ry="2.5" style="stroke:#404040;stroke-width:0.5;" width="94.043" x="7" y="446.1094"/><text fill="#000000" font-family="sans-serif" font-size="12" font-style="italic" lengthAdjust="spacing" textLength="88.043" x="10" y="463.5664">AbstractVariable</text></g><!--class PrimaryKey--><g class="entity" data-qualified-name="PrimaryKey" data-source-line="32" id="ent0005"><rect fill="#EEEEEE" height="25.0938" rx="2.5" ry="2.5" style="stroke:#404040;stroke-width:0.5;" width="68.0098" x="165" y="446.1094"/><text fill="#000000" font-family="sans-serif" font-size="12" lengthAdjust="spacing" textLength="62.0098" x="168" y="463.5664">PrimaryKey</text></g><!--class Statistics--><g class="entity" data-qualified-name="Statistics" data-source-line="34" id="ent0007"><rect fill="#EEEEEE" height="25.0938" rx="2.5" ry="2.5" style="stroke:#404040;stroke-width:0.5;" width="54.0117" x="272" y="446.1094"/><text fill="#000000" font-family="sans-serif" font-size="12" lengthAdjust="spacing" textLength="48.0117" x="275" y="463.5664">Statistics</text></g><!--class StatisticsCollection--><g class="entity" data-qualified-name="StatisticsCollection" data-source-line="36" id="ent0009"><rect fill="#EEEEEE" height="25.0938" rx="2.5" ry="2.5" style="stroke:#404040;stroke-width:0.5;" width="106.7051" x="361.5" y="446.1094"/><text fill="#000000" font-family="sans-serif" font-size="12" lengthAdjust="spacing" textLength="100.7051" x="364.5" y="463.5664">StatisticsCollection</text></g><!--class SpatialExtent--><g class="entity" data-qualified-name="SpatialExtent" data-source-line="38" id="ent0011"><rect fill="#EEEEEE" height="25.0938" rx="2.5" ry="2.5" style="stroke:#404040;stroke-width:0.5;" width="76.7109" x="503.5" y="446.1094"/><text fill="#000000" font-family="sans-serif" font-size="12" lengthAdjust="spacing" textLength="70.7109" x="506.5" y="463.5664">SpatialExtent</text></g><!--class TemporalExtent--><g class="entity" data-qualified-name="TemporalExtent" data-source-line="40" id="ent0013"><rect fill="#EEEEEE" height="25.0938" rx="2.5" ry="2.5" style="stroke:#404040;stroke-width:0.5;" width="90.7031" x="615.5" y="446.1094"/><text fill="#000000" font-family="sans-serif" font-size="12" lengthAdjust="spacing" textLength="84.7031" x="618.5" y="463.5664">TemporalExtent</text></g><!--class QualityMeasurement--><g class="entity" data-qualified-name="QualityMeasurement" data-source-line="42" id="ent0015"><rect fill="#EEEEEE" height="25.0938" rx="2.5" ry="2.5" style="stroke:#404040;stroke-width:0.5;" width="116.7129" x="745.5" y="446.1094"/><text fill="#000000" font-family="sans-serif" font-size="12" lengthAdjust="spacing" textLength="110.7129" x="748.5" y="463.5664">QualityMeasurement</text></g><!--class Agent--><g class="entity" data-qualified-name="Agent" data-source-line="44" id="ent0017"><rect fill="#EEEEEE" height="25.0938" rx="2.5" ry="2.5" style="stroke:#404040;stroke-width:0.5;" width="37.3594" x="1055.5" y="446.1094"/><text fill="#000000" font-family="sans-serif" font-size="12" font-style="italic" lengthAdjust="spacing" textLength="31.3594" x="1058.5" y="463.5664">Agent</text></g><!--class AbstractDistribution--><g class="entity" data-qualified-name="AbstractDistribution" data-source-line="46" id="ent0019"><rect fill="#EEEEEE" height="25.0938" rx="2.5" ry="2.5" style="stroke:#404040;stroke-width:0.5;" width="110.0391" x="1170" y="446.1094"/><text fill="#000000" font-family="sans-serif" font-size="12" font-style="italic" lengthAdjust="spacing" textLength="104.0391" x="1173" y="463.5664">AbstractDistribution</text></g><!--class Contributor--><g class="entity" data-qualified-name="Contributor" data-source-line="49" id="ent0022"><rect fill="#EEEEEE" height="25.0938" rx="2.5" ry="2.5" style="stroke:#404040;stroke-width:0.5;" width="65.3613" x="1315.5" y="446.1094"/><text fill="#000000" font-family="sans-serif" font-size="12" lengthAdjust="spacing" textLength="59.3613" x="1318.5" y="463.5664">Contributor</text></g><!--class MonetaryGrant--><g class="entity" data-qualified-name="MonetaryGrant" data-source-line="52" id="ent0025"><rect fill="#EEEEEE" height="25.0938" rx="2.5" ry="2.5" style="stroke:#404040;stroke-width:0.5;" width="86.0332" x="1416" y="446.1094"/><text fill="#000000" font-family="sans-serif" font-size="12" lengthAdjust="spacing" textLength="80.0332" x="1419" y="463.5664">MonetaryGrant</text></g><!--class ProvActivity--><g class="entity" data-qualified-name="ProvActivity" data-source-line="54" id="ent0027"><rect fill="#EEEEEE" height="25.0938" rx="2.5" ry="2.5" style="stroke:#404040;stroke-width:0.5;" width="68.6777" x="1537.5" y="446.1094"/><text fill="#000000" font-family="sans-serif" font-size="12" lengthAdjust="spacing" textLength="62.6777" x="1540.5" y="463.5664">ProvActivity</text></g><!--class DerivedFrom--><g class="entity" data-qualified-name="DerivedFrom" data-source-line="56" id="ent0029"><rect fill="#EEEEEE" height="25.0938" rx="2.5" ry="2.5" style="stroke:#404040;stroke-width:0.5;" width="75.3457" x="1644.5" y="446.1094"/><text fill="#000000" font-family="sans-serif" font-size="12" lengthAdjust="spacing" textLength="69.3457" x="1647.5" y="463.5664">DerivedFrom</text></g><!--class CatalogRecord--><g class="entity" data-qualified-name="CatalogRecord" data-source-line="58" id="ent0031"><rect fill="#EEEEEE" height="25.0938" rx="2.5" ry="2.5" style="stroke:#404040;stroke-width:0.5;" width="86.0449" x="1827" y="446.1094"/><text fill="#000000" font-family="sans-serif" font-size="12" lengthAdjust="spacing" textLength="80.0449" x="1830" y="463.5664">CatalogRecord</text></g><!--class DefinedTerm--><g class="entity" data-qualified-name="DefinedTerm" data-source-line="60" id="ent0033"><rect fill="#EEEEEE" height="25.0938" rx="2.5" ry="2.5" style="stroke:#404040;stroke-width:0.5;" width="75.3574" x="2050.5" y="446.1094"/><text fill="#000000" font-family="sans-serif" font-size="12" lengthAdjust="spacing" textLength="69.3574" x="2053.5" y="463.5664">DefinedTerm</text></g><!--class Reference--><g class="entity" data-qualified-name="Reference" data-source-line="62" id="ent0035"><rect fill="#EEEEEE" height="25.0938" rx="2.5" ry="2.5" style="stroke:#404040;stroke-width:0.5;" width="61.3652" x="2525.5" y="446.1094"/><text fill="#000000" font-family="sans-serif" font-size="12" lengthAdjust="spacing" textLength="55.3652" x="2528.5" y="463.5664">Reference</text></g><!--class Identifier--><g class="entity" data-qualified-name="Identifier" data-source-line="66" id="ent0039"><rect fill="#EEEEEE" height="25.0938" rx="2.5" ry="2.5" style="stroke:#404040;stroke-width:0.5;" width="52.0254" x="2908" y="446.1094"/><text fill="#000000" font-family="sans-serif" font-size="12" lengthAdjust="spacing" textLength="46.0254" x="2911" y="463.5664">Identifier</text></g><!--class XsdLanguage--><g class="entity" data-qualified-name="XsdLanguage" data-source-line="70" id="ent0043"><rect fill="#FAE5D3" height="40.1875" rx="2.5" ry="2.5" style="stroke:#404040;stroke-width:0.5;" width="80.0684" x="3034" y="438.6094"/><text fill="#000000" font-family="sans-serif" font-size="12" font-style="italic" lengthAdjust="spacing" textLength="63.3809" x="3042.3438" y="456.0664">&#171;dataType&#187;</text><text fill="#000000" font-family="sans-serif" font-size="12" lengthAdjust="spacing" textLength="74.0684" x="3037" y="471.1602">XsdLanguage</text></g><!--class XsdDate--><g class="entity" data-qualified-name="XsdDate" data-source-line="72" id="ent0045"><rect fill="#FAE5D3" height="40.1875" rx="2.5" ry="2.5" style="stroke:#404040;stroke-width:0.5;" width="65.3809" x="3150.5" y="438.6094"/><text fill="#000000" font-family="sans-serif" font-size="12" font-style="italic" lengthAdjust="spacing" textLength="63.3809" x="3151.5" y="456.0664">&#171;dataType&#187;</text><text fill="#000000" font-family="sans-serif" font-size="12" lengthAdjust="spacing" textLength="46.0254" x="3160.1777" y="471.1602">XsdDate</text></g><!--class XsdAnyUri--><g class="entity" data-qualified-name="XsdAnyUri" data-source-line="74" id="ent0047"><rect fill="#FAE5D3" height="40.1875" rx="2.5" ry="2.5" style="stroke:#404040;stroke-width:0.5;" width="65.3809" x="3266.5" y="438.6094"/><text fill="#000000" font-family="sans-serif" font-size="12" font-style="italic" lengthAdjust="spacing" textLength="63.3809" x="3267.5" y="456.0664">&#171;dataType&#187;</text><text fill="#000000" font-family="sans-serif" font-size="12" lengthAdjust="spacing" textLength="56.6836" x="3270.8486" y="471.1602">XsdAnyUri</text></g><!--link Dataset to AbstractVariable--><g class="link" data-entity-1="ent0002" data-entity-2="ent0003" data-link-type="dependency" data-source-line="31" id="lnk4"><path codeLine="31" d="M1530.99,211.6194 C1192.95,230.1394 385.44,284.3994 136,390.6094 C106.06,403.3594 82.3782,426.09 68.1082,441.63" fill="none" id="Dataset-to-AbstractVariable" style="stroke:#404040;stroke-width:1.2;"/><polygon fill="#404040" points="64.05,446.0494,73.0836,442.1258,67.4318,442.3666,67.1911,436.7148,64.05,446.0494" style="stroke:#404040;stroke-width:1.2;"/><text fill="#000000" font-family="sans-serif" font-size="13" lengthAdjust="spacing" textLength="103.3335" x="137" y="405.1045">variableMeasured</text><text fill="#000000" font-family="sans-serif" font-size="13" lengthAdjust="spacing" textLength="19.5127" x="45.3738" y="435.1167">1..*</text></g><!--link Dataset to PrimaryKey--><g class="link" data-entity-1="ent0002" data-entity-2="ent0005" data-link-type="dependency" data-source-line="33" id="lnk6"><path codeLine="33" d="M1530.77,213.2894 C1215.51,234.1694 498.93,291.2794 277,390.6094 C248.16,403.5194 225.8453,426.0802 212.3953,441.5602" fill="none" id="Dataset-to-PrimaryKey" style="stroke:#404040;stroke-width:1.2;"/><polygon fill="#404040" points="208.46,446.0894,217.3824,441.9191,211.7394,442.315,211.3434,436.6721,208.46,446.0894" style="stroke:#404040;stroke-width:1.2;"/><text fill="#000000" font-family="sans-serif" font-size="13" lengthAdjust="spacing" textLength="88.1372" x="278" y="405.1045">hasPrimaryKey</text><text fill="#000000" font-family="sans-serif" font-size="13" lengthAdjust="spacing" textLength="21.6836" x="187.17" y="435.1732">0..1</text></g><!--link Dataset to Statistics--><g class="link" data-entity-1="ent0002" data-entity-2="ent0007" data-link-type="dependency" data-source-line="35" id="lnk8"><path codeLine="35" d="M1530.7,207.8994 C1288.39,218.0094 801.2,255.0394 414,390.6094 C375.62,404.0494 340.5244,427.1668 319.2944,442.4968" fill="none" id="Dataset-to-Statistics" style="stroke:#404040;stroke-width:1.2;"/><polygon fill="#404040" points="314.43,446.0094,324.0682,443.9835,318.4836,443.0823,319.3849,437.4977,314.43,446.0094" style="stroke:#404040;stroke-width:1.2;"/><text fill="#000000" font-family="sans-serif" font-size="13" lengthAdjust="spacing" textLength="49.8418" x="415" y="405.1045">statistics</text><text fill="#000000" font-family="sans-serif" font-size="13" lengthAdjust="spacing" textLength="19.5127" x="297.9795" y="435.0602">0..*</text></g><!--link Dataset to StatisticsCollection--><g class="link" data-entity-1="ent0002" data-entity-2="ent0009" data-link-type="dependency" data-source-line="37" id="lnk10"><path codeLine="37" d="M1530.81,205.2194 C1300.52,211.8694 852.03,244.4794 505,390.6094 C473.4,403.9094 447.0473,426.4435 430.9573,441.8235" fill="none" id="Dataset-to-StatisticsCollection" style="stroke:#404040;stroke-width:1.2;"/><polygon fill="#404040" points="426.62,445.9694,435.8898,442.6421,430.2344,442.5145,430.362,436.8591,426.62,445.9694" style="stroke:#404040;stroke-width:1.2;"/><text fill="#000000" font-family="sans-serif" font-size="13" lengthAdjust="spacing" textLength="49.8418" x="506" y="405.1045">statistics</text><text fill="#000000" font-family="sans-serif" font-size="13" lengthAdjust="spacing" textLength="19.5127" x="408.6611" y="435.0037">0..*</text></g><!--link Dataset to SpatialExtent--><g class="link" data-entity-1="ent0002" data-entity-2="ent0011" data-link-type="dependency" data-source-line="39" id="lnk12"><path codeLine="39" d="M1530.91,213.9594 C1266.25,233.7394 732.51,285.6794 581,390.6094 C561.53,404.0994 552.2828,425.0125 547.2228,440.3225" fill="none" id="Dataset-to-SpatialExtent" style="stroke:#404040;stroke-width:1.2;"/><polygon fill="#404040" points="545.34,446.0194,551.9622,438.7292,546.909,441.2719,544.3663,436.2188,545.34,446.0194" style="stroke:#404040;stroke-width:1.2;"/><text fill="#000000" font-family="sans-serif" font-size="13" lengthAdjust="spacing" textLength="93.9453" x="582" y="405.1045">spatialCoverage</text><text fill="#000000" font-family="sans-serif" font-size="13" lengthAdjust="spacing" textLength="19.5127" x="523.9644" y="435.0743">0..*</text></g><!--link Dataset to TemporalExtent--><g class="link" data-entity-1="ent0002" data-entity-2="ent0013" data-link-type="dependency" data-source-line="41" id="lnk14"><path codeLine="41" d="M1530.74,217.6894 C1289.89,241.7794 832.95,298.3394 701,390.6094 C681.46,404.2694 671.8596,425.1554 666.5296,440.4054" fill="none" id="Dataset-to-TemporalExtent" style="stroke:#404040;stroke-width:1.2;"/><polygon fill="#404040" points="664.55,446.0694,671.2954,438.8931,666.1997,441.3494,663.7434,436.2536,664.55,446.0694" style="stroke:#404040;stroke-width:1.2;"/><text fill="#000000" font-family="sans-serif" font-size="13" lengthAdjust="spacing" textLength="106.9453" x="702" y="405.1045">temporalCoverage</text><text fill="#000000" font-family="sans-serif" font-size="13" lengthAdjust="spacing" textLength="19.5127" x="643.2626" y="435.1449">0..*</text></g><!--link Dataset to QualityMeasurement--><g class="link" data-entity-1="ent0002" data-entity-2="ent0015" data-link-type="dependency" data-source-line="43" id="lnk16"><path codeLine="43" d="M1530.6,219.7594 C1314.55,244.9394 932.42,300.9094 829,390.6094 C812.59,404.8494 807.6917,424.9779 805.7617,440.0579" fill="none" id="Dataset-to-QualityMeasurement" style="stroke:#404040;stroke-width:1.2;"/><polygon fill="#404040" points="805,446.0094,810.1102,437.59,805.6347,441.0498,802.1749,436.5744,805,446.0094" style="stroke:#404040;stroke-width:1.2;"/><text fill="#000000" font-family="sans-serif" font-size="13" lengthAdjust="spacing" textLength="140.8989" x="830" y="405.1045">hasQualityMeasurement</text><text fill="#000000" font-family="sans-serif" font-size="13" lengthAdjust="spacing" textLength="19.5127" x="782.6587" y="435.0602">0..*</text></g><!--link Dataset to Agent--><g class="link" data-entity-1="ent0002" data-entity-2="ent0017" data-link-type="dependency" data-source-line="45" id="lnk18"><path codeLine="45" d="M1530.89,222.9294 C1345.99,249.4094 1049.28,304.3294 983,390.6094 C960.05,420.4794 1016.9477,441.5571 1049.7177,451.0671" fill="none" id="Dataset-to-Agent" style="stroke:#404040;stroke-width:1.2;"/><polygon fill="#404040" points="1055.48,452.7394,1047.9514,446.3895,1050.6781,451.3458,1045.7218,454.0725,1055.48,452.7394" style="stroke:#404040;stroke-width:1.2;"/><text fill="#000000" font-family="sans-serif" font-size="13" lengthAdjust="spacing" textLength="46.9663" x="984" y="405.1045">provider</text><text fill="#000000" font-family="sans-serif" font-size="13" lengthAdjust="spacing" textLength="19.5127" x="1027.9224" y="446.0263">0..*</text></g><!--link Dataset to Agent--><g class="link" data-entity-1="ent0002" data-entity-2="ent0017" data-link-type="dependency" data-source-line="48" id="lnk21"><path codeLine="48" d="M1530.69,229.2794 C1368.23,259.7494 1125.98,316.3494 1071,390.6094 C1059.08,406.7094 1062.6209,425.7312 1067.4809,440.2112" fill="none" id="Dataset-to-Agent-1" style="stroke:#404040;stroke-width:1.2;"/><polygon fill="#404040" points="1069.39,445.8994,1070.3184,436.0944,1067.799,441.1592,1062.7342,438.6399,1069.39,445.8994" style="stroke:#404040;stroke-width:1.2;"/><text fill="#000000" font-family="sans-serif" font-size="13" lengthAdjust="spacing" textLength="40.46" x="1072" y="405.1045">creator</text><text fill="#000000" font-family="sans-serif" font-size="13" lengthAdjust="spacing" textLength="19.5127" x="1071.3456" y="435.2907">0..*</text></g><!--link Dataset to Agent--><g class="link" data-entity-1="ent0002" data-entity-2="ent0017" data-link-type="dependency" data-source-line="51" id="lnk24"><path codeLine="51" d="M1530.93,267.0994 C1379,330.4494 1163.6979,420.2104 1098.3879,447.4404" fill="none" id="Dataset-to-Agent-2" style="stroke:#404040;stroke-width:1.2;"/><polygon fill="#404040" points="1092.85,449.7494,1102.6962,449.9779,1097.4649,447.8252,1099.6176,442.594,1092.85,449.7494" style="stroke:#404040;stroke-width:1.2;"/><text fill="#000000" font-family="sans-serif" font-size="13" lengthAdjust="spacing" textLength="52.7554" x="1222" y="405.1045">publisher</text><text fill="#000000" font-family="sans-serif" font-size="13" lengthAdjust="spacing" textLength="21.6836" x="1100.7814" y="442.748">0..1</text></g><!--link Dataset to AbstractDistribution--><g class="link" data-entity-1="ent0002" data-entity-2="ent0019" data-link-type="dependency" data-source-line="47" id="lnk20"><path codeLine="47" d="M1530.71,284.9694 C1470.77,317.3694 1401.39,355.3294 1339,390.6094 C1305.43,409.5894 1271.9682,429.4378 1249.3982,442.9478" fill="none" id="Dataset-to-AbstractDistribution" style="stroke:#404040;stroke-width:1.2;"/><polygon fill="#404040" points="1244.25,446.0294,1254.0267,444.8391,1248.5401,443.4614,1249.9179,437.9748,1244.25,446.0294" style="stroke:#404040;stroke-width:1.2;"/><text fill="#000000" font-family="sans-serif" font-size="13" lengthAdjust="spacing" textLength="62.8672" x="1340" y="405.1045">distribution</text><text fill="#000000" font-family="sans-serif" font-size="13" lengthAdjust="spacing" textLength="19.5127" x="1229.3696" y="435.0884">0..*</text></g><!--link Dataset to Contributor--><g class="link" data-entity-1="ent0002" data-entity-2="ent0022" data-link-type="dependency" data-source-line="50" id="lnk23"><path codeLine="50" d="M1530.95,314.8194 C1497.83,339.5194 1463.08,365.7594 1431,390.6094 C1406.4,409.6594 1382.9813,428.7447 1366.5913,442.2447" fill="none" id="Dataset-to-Contributor" style="stroke:#404040;stroke-width:1.2;"/><polygon fill="#404040" points="1361.96,446.0594,1371.45,443.4249,1365.8194,442.8805,1366.3638,437.2499,1361.96,446.0594" style="stroke:#404040;stroke-width:1.2;"/><text fill="#000000" font-family="sans-serif" font-size="13" lengthAdjust="spacing" textLength="61.4199" x="1432" y="405.1045">contributor</text><text fill="#000000" font-family="sans-serif" font-size="13" lengthAdjust="spacing" textLength="19.5127" x="1344.831" y="435.1308">0..*</text></g><!--link Dataset to MonetaryGrant--><g class="link" data-entity-1="ent0002" data-entity-2="ent0025" data-link-type="dependency" data-source-line="53" id="lnk26"><path codeLine="53" d="M1542.04,360.8394 C1533.21,370.8994 1524.47,380.8794 1516,390.6094 C1499.36,409.7294 1484.1936,427.6388 1472.8736,441.0888" fill="none" id="Dataset-to-MonetaryGrant" style="stroke:#404040;stroke-width:1.2;"/><polygon fill="#404040" points="1469.01,445.6794,1477.8657,441.3693,1472.2296,441.8539,1471.745,436.2179,1469.01,445.6794" style="stroke:#404040;stroke-width:1.2;"/><text fill="#000000" font-family="sans-serif" font-size="13" lengthAdjust="spacing" textLength="42.6499" x="1517" y="405.1045">funding</text><text fill="#000000" font-family="sans-serif" font-size="13" lengthAdjust="spacing" textLength="19.5127" x="1450.2958" y="435.2441">0..*</text></g><!--link Dataset to ProvActivity--><g class="link" data-entity-1="ent0002" data-entity-2="ent0027" data-link-type="dependency" data-source-line="55" id="lnk28"><path codeLine="55" d="M1580.23,360.6894 C1576.25,370.5894 1572.77,380.5994 1570,390.6094 C1564.78,409.4494 1566.2539,426.506 1568.5839,440.066" fill="none" id="Dataset-to-ProvActivity" style="stroke:#404040;stroke-width:1.2;"/><polygon fill="#404040" points="1569.6,445.9794,1572.0181,436.432,1568.7533,441.0516,1564.1337,437.7868,1569.6,445.9794" style="stroke:#404040;stroke-width:1.2;"/><text fill="#000000" font-family="sans-serif" font-size="13" lengthAdjust="spacing" textLength="99.7217" x="1571" y="405.1045">wasGeneratedBy</text><text fill="#000000" font-family="sans-serif" font-size="13" lengthAdjust="spacing" textLength="19.5127" x="1545.8635" y="435.0178">0..*</text></g><!--link Dataset to DerivedFrom--><g class="link" data-entity-1="ent0002" data-entity-2="ent0029" data-link-type="dependency" data-source-line="57" id="lnk30"><path codeLine="57" d="M1678.25,360.7094 C1678.3,376.8894 1678.53,393.0794 1679,408.6094 C1679.39,421.3894 1679.9101,430.0255 1680.6401,439.9555" fill="none" id="Dataset-to-DerivedFrom" style="stroke:#404040;stroke-width:1.2;"/><polygon fill="#404040" points="1681.08,445.9394,1684.4094,436.6703,1680.7134,440.9528,1676.4309,437.2569,1681.08,445.9394" style="stroke:#404040;stroke-width:1.2;"/><text fill="#000000" font-family="sans-serif" font-size="13" lengthAdjust="spacing" textLength="98.2427" x="1680" y="405.1045">wasDerivedFrom</text><text fill="#000000" font-family="sans-serif" font-size="13" lengthAdjust="spacing" textLength="19.5127" x="1658.01" y="435.3464">0..*</text></g><!--link Dataset to CatalogRecord--><g class="link" data-entity-1="ent0002" data-entity-2="ent0031" data-link-type="dependency" data-source-line="59" id="lnk32"><path codeLine="59" d="M1781.82,360.7694 C1793.85,377.2994 1806.37,393.5494 1819,408.6094 C1830.52,422.3494 1840.9977,432.372 1851.7277,441.872" fill="none" id="Dataset-to-CatalogRecord" style="stroke:#404040;stroke-width:1.2;"/><polygon fill="#404040" points="1856.22,445.8494,1852.1331,436.8885,1852.4764,442.5349,1846.83,442.8782,1856.22,445.8494" style="stroke:#404040;stroke-width:1.2;"/><text fill="#000000" font-family="sans-serif" font-size="13" lengthAdjust="spacing" textLength="54.9136" x="1820" y="405.1045">subjectOf</text><text fill="#000000" font-family="sans-serif" font-size="13" lengthAdjust="spacing" textLength="7.23" x="1842.4524" y="435.221">1</text></g><!--link CatalogRecord to Dataset--><g class="link" data-entity-1="ent0031" data-entity-2="ent0002" data-link-type="dependency" data-source-line="64" id="lnk37"><path codeLine="64" d="M1875.22,445.7194 C1880.48,431.9194 1886.79,408.7194 1879,390.6094 C1868.06,365.1894 1855.724,346.1322 1837.114,324.8922" fill="none" id="CatalogRecord-to-Dataset" style="stroke:#404040;stroke-width:1.2;"/><polygon fill="#404040" points="1833.16,320.3794,1836.0825,329.7846,1836.455,324.1401,1842.0996,324.5126,1833.16,320.3794" style="stroke:#404040;stroke-width:1.2;"/><text fill="#000000" font-family="sans-serif" font-size="13" lengthAdjust="spacing" textLength="32.5317" x="1884" y="405.1045">about</text><text fill="#000000" font-family="sans-serif" font-size="13" lengthAdjust="spacing" textLength="21.6836" x="1841.0011" y="323.1796">0..1</text></g><!--link Dataset to DefinedTerm--><g class="link" data-entity-1="ent0002" data-entity-2="ent0033" data-link-type="dependency" data-source-line="61" id="lnk34"><path codeLine="61" d="M1833.37,310.5094 C1882.21,343.3194 1937.14,378.6694 1989,408.6094 C2013.25,422.6094 2036.5993,434.0497 2056.8593,443.4697" fill="none" id="Dataset-to-DefinedTerm" style="stroke:#404040;stroke-width:1.2;"/><polygon fill="#404040" points="2062.3,445.9994,2055.8255,438.5778,2057.7661,443.8913,2052.4526,445.832,2062.3,445.9994" style="stroke:#404040;stroke-width:1.2;"/><text fill="#000000" font-family="sans-serif" font-size="13" lengthAdjust="spacing" textLength="54.9072" x="1990" y="405.1045">keywords</text><text fill="#000000" font-family="sans-serif" font-size="13" lengthAdjust="spacing" textLength="19.5127" x="2028.812" y="435.046">0..*</text></g><!--link Dataset to DefinedTerm--><g class="link" data-entity-1="ent0002" data-entity-2="ent0033" data-link-type="dependency" data-source-line="65" id="lnk38"><path codeLine="65" d="M1833.06,257.5894 C1904.58,288.3594 1987.56,332.5794 2049,390.6094 C2065.93,406.5994 2075.5267,426.0226 2081.4367,440.5326" fill="none" id="Dataset-to-DefinedTerm-1" style="stroke:#404040;stroke-width:1.2;"/><polygon fill="#404040" points="2083.7,446.0894,2084.0096,436.2454,2081.8139,441.4587,2076.6006,439.2631,2083.7,446.0894" style="stroke:#404040;stroke-width:1.2;"/><text fill="#000000" font-family="sans-serif" font-size="13" lengthAdjust="spacing" textLength="140.188" x="2065" y="405.1045">measurementTechnique</text><text fill="#000000" font-family="sans-serif" font-size="13" lengthAdjust="spacing" textLength="19.5127" x="2059.0395" y="435.1732">0..*</text></g><!--link Dataset to DefinedTerm--><g class="link" data-entity-1="ent0002" data-entity-2="ent0033" data-link-type="dependency" data-source-line="68" id="lnk41"><path codeLine="68" d="M1833,211.5394 C1957.94,226.6194 2128.3,269.7594 2214,390.6094 C2239.01,425.8794 2177.288,443.1525 2131.688,451.2325" fill="none" id="Dataset-to-DefinedTerm-2" style="stroke:#404040;stroke-width:1.2;"/><polygon fill="#404040" points="2125.78,452.2794,2135.3399,454.6477,2130.7033,451.407,2133.9441,446.7705,2125.78,452.2794" style="stroke:#404040;stroke-width:1.2;"/><text fill="#000000" font-family="sans-serif" font-size="13" lengthAdjust="spacing" textLength="84.5571" x="2221" y="405.1045">additionalType</text><text fill="#000000" font-family="sans-serif" font-size="13" lengthAdjust="spacing" textLength="19.5127" x="2133.9196" y="447.3337">0..*</text></g><!--link Dataset to Reference--><g class="link" data-entity-1="ent0002" data-entity-2="ent0035" data-link-type="dependency" data-source-line="63" id="lnk36"><path codeLine="63" d="M1833.24,247.9794 C2045.04,309.4094 2410.5475,415.4179 2519.4175,446.9979" fill="none" id="Dataset-to-Reference" style="stroke:#404040;stroke-width:1.2;"/><polygon fill="#404040" points="2525.18,448.6694,2517.6506,442.3204,2520.3779,447.2764,2515.422,450.0037,2525.18,448.6694" style="stroke:#404040;stroke-width:1.2;"/><text fill="#000000" font-family="sans-serif" font-size="13" lengthAdjust="spacing" textLength="40.4663" x="2369" y="405.1045">license</text><text fill="#000000" font-family="sans-serif" font-size="13" lengthAdjust="spacing" textLength="19.5127" x="2497.8792" y="442.491">0..*</text></g><!--link Dataset to Reference--><g class="link" data-entity-1="ent0002" data-entity-2="ent0035" data-link-type="dependency" data-source-line="76" id="lnk49"><path codeLine="76" d="M1833.06,232.9694 C1983.77,263.9394 2220.66,318.5594 2418,390.6094 C2461.28,406.4094 2503.8354,428.5529 2530.2854,443.1329" fill="none" id="Dataset-to-Reference-1" style="stroke:#404040;stroke-width:1.2;"/><polygon fill="#404040" points="2535.54,446.0294,2529.5891,438.1816,2531.1612,443.6157,2525.7272,445.1877,2535.54,446.0294" style="stroke:#404040;stroke-width:1.2;"/><text fill="#000000" font-family="sans-serif" font-size="13" lengthAdjust="spacing" textLength="114.1626" x="2462" y="405.1045">conditionsOfAccess</text><text fill="#000000" font-family="sans-serif" font-size="13" lengthAdjust="spacing" textLength="19.5127" x="2531.0494" y="435.0884">0..*</text></g><!--link Dataset to Reference--><g class="link" data-entity-1="ent0002" data-entity-2="ent0035" data-link-type="dependency" data-source-line="77" id="lnk50"><path codeLine="77" d="M1833.09,212.8994 C2065.03,229.9094 2491.86,276.2694 2585,390.6094 C2598.69,407.4094 2585.219,427.25 2572.069,441.5" fill="none" id="Dataset-to-Reference-2" style="stroke:#404040;stroke-width:1.2;"/><polygon fill="#404040" points="2568,445.9094,2577.0432,442.0079,2571.3909,442.2349,2571.1639,436.5826,2568,445.9094" style="stroke:#404040;stroke-width:1.2;"/><text fill="#000000" font-family="sans-serif" font-size="13" lengthAdjust="spacing" textLength="114.8989" x="2591" y="405.1045">publishingPrinciples</text><text fill="#000000" font-family="sans-serif" font-size="13" lengthAdjust="spacing" textLength="19.5127" x="2576.4947" y="435.3046">0..*</text></g><!--link Dataset to Reference--><g class="link" data-entity-1="ent0002" data-entity-2="ent0035" data-link-type="dependency" data-source-line="78" id="lnk51"><path codeLine="78" d="M1833.11,208.5594 C2092.07,219.7194 2603.5,258.3494 2714,390.6094 C2750.87,434.7394 2648.3155,449.8681 2592.6755,454.9081" fill="none" id="Dataset-to-Reference-3" style="stroke:#404040;stroke-width:1.2;"/><polygon fill="#404040" points="2586.7,455.4494,2596.0242,458.6211,2591.6796,454.9983,2595.3025,450.6538,2586.7,455.4494" style="stroke:#404040;stroke-width:1.2;"/><text fill="#000000" font-family="sans-serif" font-size="13" lengthAdjust="spacing" textLength="63.5972" x="2723" y="405.1045">relatedLink</text><text fill="#000000" font-family="sans-serif" font-size="13" lengthAdjust="spacing" textLength="19.5127" x="2595.0065" y="450.6693">0..*</text></g><!--link Dataset to Identifier--><g class="link" data-entity-1="ent0002" data-entity-2="ent0039" data-link-type="dependency" data-source-line="67" id="lnk40"><path codeLine="67" d="M1833.24,215.7994 C2050.35,235.6194 2460.99,284.4994 2795,390.6094 C2839.68,404.7994 2883.0282,427.9091 2909.2782,442.9991" fill="none" id="Dataset-to-Identifier" style="stroke:#404040;stroke-width:1.2;"/><polygon fill="#404040" points="2914.48,445.9894,2908.6709,438.0361,2910.1452,443.4975,2904.6838,444.9718,2914.48,445.9894" style="stroke:#404040;stroke-width:1.2;"/><text fill="#000000" font-family="sans-serif" font-size="13" lengthAdjust="spacing" textLength="49.1372" x="2840" y="405.1045">identifier</text><text fill="#000000" font-family="sans-serif" font-size="13" lengthAdjust="spacing" textLength="7.23" x="2898.0264" y="435.0319">1</text></g><!--link Dataset to Identifier--><g class="link" data-entity-1="ent0002" data-entity-2="ent0039" data-link-type="dependency" data-source-line="69" id="lnk42"><path codeLine="69" d="M1833.03,210.6694 C2119.68,225.7594 2729.06,271.2794 2898,390.6094 C2916.98,404.0194 2925.2501,424.885 2929.5801,440.225" fill="none" id="Dataset-to-Identifier-1" style="stroke:#404040;stroke-width:1.2;"/><polygon fill="#404040" points="2931.21,445.9994,2932.6147,436.2512,2929.8517,441.1874,2924.9155,438.4244,2931.21,445.9994" style="stroke:#404040;stroke-width:1.2;"/><text fill="#000000" font-family="sans-serif" font-size="13" lengthAdjust="spacing" textLength="46.96" x="2916" y="405.1045">sameAs</text><text fill="#000000" font-family="sans-serif" font-size="13" lengthAdjust="spacing" textLength="19.5127" x="2934.0784" y="435.046">0..*</text></g><!--link Dataset to XsdLanguage--><g class="link" data-entity-1="ent0002" data-entity-2="ent0043" data-link-type="dependency" data-source-line="71" id="lnk44"><path codeLine="71" d="M1833.12,205.1394 C2079.35,211.3394 2579,242.9694 2971,390.6094 C3000.94,401.8894 3026.4285,419.2598 3046.3185,434.7698" fill="none" id="Dataset-to-XsdLanguage" style="stroke:#404040;stroke-width:1.2;stroke-dasharray:7,7;"/><polygon fill="#404040" points="3051.05,438.4594,3046.4125,429.7707,3047.1071,435.3847,3041.493,436.0794,3051.05,438.4594" style="stroke:#404040;stroke-width:1.2;"/><text fill="#000000" font-family="sans-serif" font-size="13" lengthAdjust="spacing" textLength="67.958" x="3009" y="405.1045">inLanguage</text></g><!--link Dataset to XsdDate--><g class="link" data-entity-1="ent0002" data-entity-2="ent0045" data-link-type="dependency" data-source-line="73" id="lnk46"><path codeLine="73" d="M1833.11,215.2994 C2146.85,239.9694 2858.49,303.8194 3085,390.6094 C3113.87,401.6694 3137.9292,418.9421 3156.7392,434.5221" fill="none" id="Dataset-to-XsdDate" style="stroke:#404040;stroke-width:1.2;stroke-dasharray:7,7;"/><polygon fill="#404040" points="3161.36,438.3494,3156.9804,429.5279,3157.5093,435.1599,3151.8773,435.6889,3161.36,438.3494" style="stroke:#404040;stroke-width:1.2;"/><text fill="#000000" font-family="sans-serif" font-size="13" lengthAdjust="spacing" textLength="74.439" x="3121" y="405.1045">dateModified</text></g><!--link Dataset to XsdAnyUri--><g class="link" data-entity-1="ent0002" data-entity-2="ent0047" data-link-type="dependency" data-source-line="75" id="lnk48"><path codeLine="75" d="M1833.28,213.2494 C2166.87,234.9094 2955.7,294.8494 3204,390.6094 C3232.43,401.5794 3255.8383,418.9986 3273.9783,434.6586" fill="none" id="Dataset-to-XsdAnyUri" style="stroke:#404040;stroke-width:1.2;stroke-dasharray:7,7;"/><polygon fill="#404040" points="3278.52,438.5794,3274.3213,429.6703,3274.7352,435.312,3269.0935,435.726,3278.52,438.5794" style="stroke:#404040;stroke-width:1.2;"/><text fill="#000000" font-family="sans-serif" font-size="13" lengthAdjust="spacing" textLength="14.4473" x="3238" y="405.1045">url</text></g><?plantuml-src ZLPDRnen4Btlhx38hLLHIDlBAa8YV4HHWv8cjAeKzM2y0xZisjJsGccL_zvPxuUzi2o1oyxu-SspFHwFuIO6CgA6QZ31YaT065SiXlmRaetPamIIEIWTw3KN6wfeGlIAHdB7nP8iQAp16nae9NUp5MTh0LgJNlVA6sGnHT-_WEImeOob8XUVBhC_Ec-aYa0TUYTIc6V-5qZlAdWDWfoZKqZk4AfB-UHYCfwCXsCRu7q2LASA4X1c1cmb-EyKI4X6iE02eXceXBnSThllVcPWNAimVC518UJE6IyzEoneaitLHcLBBfmHQARund0fl36ap8Tf5F5iZCQp_UPqP8tK0tqGjHhTuhQVuEVYdefbIfSPzmyTLPQ3HDJ0L4OPQPI3SAUWqe_VZ-ayvdfL7wxcfohE_GEn_wQuDn9p1a9daPzW0Ge40qyrao9VktvO31ZByg0PkCd3uy8USNMCRs8u1Lt3VeVfeKzkf88OrKVtNAoRA5u3EiSzfCmKMTWP5FPtgZYTns1JwT19BiRs5vGvzk53dtHwIDavnePaMtnEy-IBocp5vILKxR_0taPnPZD_jiyT7nMI5TNEBccV3JLS6ywqfNNcILgKxQ6oj2gDOqwyY36mx1mFsDt0s-9u-CQ86_JGUFp7u0t8G_cUrXWr89Bdzb3YnS6xK4QOOHsJgXQYxcgBSO0CYIaSXr6-fZJcPZzrXST6EdQtHMj0syC_zXydzB8CQR_QekI0a6oKt6BjKoSlnuXdXMUULbdGDD0QgGaVaiWpsmGo1TH8LMxn4Dy2EqqggyQpsqJuCEHqLjErg_Qcg8rLyAaKOF02tYfQx7FDqoQW3Wp98iKAAPQkFCZj02_85a-uA13EqSPRmuLaH_Kj24nAB8GtLPKOWU9RY2PA9lbpwUmsRXzcgJr7THuuBPRB9s1Oc_CJyJqdgcVd08NtDft_mWhni72QgnfVQ7OrlrMpWuMaV3DAqkfHi9JkYMWXTA2G58zUK1VlPKuvFoHqBbDpNc1JZrAATVs0LUkr1wSszSvlObn7Srv6lLLfmjUeyvQbrEcr7bQetufSNsEJGJFIVX-xiy7uy-XZHT_jzcjWr5orD1vvrfEKnBO_UGkf1MALyHeWZp9lPqhIehbv2sq13GbsHkUovRW9EZUZgHiwDyVhUeB_?></g></svg>