<svg xmlns="http://www.w3.org/2000/svg" xmlns:xlink="http://www.w3.org/1999/xlink" contentStyleType="text/css" data-diagram-type="CLASS" height="384px" preserveAspectRatio="none" style="width:743px;height:384px;background:#FFFFFF;" version="1.1" viewBox="0 0 743 384" width="743px" zoomAndPan="magnify"><?plantuml 1.2026.3?><defs/><g><g class="title" data-source-line="1"><text fill="#000000" font-family="sans-serif" font-size="14" font-weight="700" lengthAdjust="spacing" textLength="99.5723" x="318.2319" y="24.5332">CatalogRecord</text></g><!--class CatalogRecord--><g class="entity" data-qualified-name="CatalogRecord" data-source-line="12" id="ent0002"><rect fill="#FEFECE" height="103.5313" rx="2.5" ry="2.5" style="stroke:#404040;stroke-width:0.5;" width="278.9365" x="126" y="148.6094"/><text fill="#000000" font-family="sans-serif" font-size="12" lengthAdjust="spacing" textLength="80.0449" x="225.4458" y="166.0664">CatalogRecord</text><line style="stroke:#404040;stroke-width:0.5;" x1="127" x2="403.9365" y1="173.7031" y2="173.7031"/><g data-visibility-modifier="PUBLIC_FIELD"><ellipse cx="137" cy="188.0078" fill="none" rx="3" ry="3" style="stroke:#038048;stroke-width:1;"/></g><text fill="#000000" font-family="sans-serif" font-size="14" lengthAdjust="spacing" textLength="216.3301" x="146" y="192.2363">additionalType : DefinedTerm [1..*]</text><g data-visibility-modifier="PUBLIC_FIELD"><ellipse cx="137" cy="205.6172" fill="none" rx="3" ry="3" style="stroke:#038048;stroke-width:1;"/></g><text fill="#000000" font-family="sans-serif" font-size="14" lengthAdjust="spacing" textLength="184.3926" x="146" y="209.8457">conformsTo : XsdAnyUri [1..*]</text><g data-visibility-modifier="PUBLIC_FIELD"><ellipse cx="137" cy="223.2266" fill="none" rx="3" ry="3" style="stroke:#038048;stroke-width:1;"/></g><text fill="#000000" font-family="sans-serif" font-size="14" lengthAdjust="spacing" textLength="206.2334" x="146" y="227.4551">sdDatePublished : XsdDate [0..1]</text><g data-visibility-modifier="PUBLIC_FIELD"><ellipse cx="137" cy="240.8359" fill="none" rx="3" ry="3" style="stroke:#038048;stroke-width:1;"/></g><text fill="#000000" font-family="sans-serif" font-size="14" lengthAdjust="spacing" textLength="252.9365" x="146" y="245.0645">includedInDataCatalog : Reference [0..1]</text></g><!--class Dataset--><g class="entity" data-qualified-name="Dataset" data-source-line="18" id="ent0003"><rect fill="#EEEEEE" height="25.0938" rx="2.5" ry="2.5" style="stroke:#404040;stroke-width:0.5;" width="47.3555" x="7" y="338.1094"/><text fill="#000000" font-family="sans-serif" font-size="12" lengthAdjust="spacing" textLength="41.3555" x="10" y="355.5664">Dataset</text></g><!--class DataDownload--><g class="entity" data-qualified-name="DataDownload" data-source-line="20" id="ent0005"><rect fill="#EEEEEE" height="25.0938" rx="2.5" ry="2.5" style="stroke:#404040;stroke-width:0.5;" width="84.7148" x="223" y="45.6094"/><text fill="#000000" font-family="sans-serif" font-size="12" lengthAdjust="spacing" textLength="78.7148" x="226" y="63.0664">DataDownload</text></g><!--class Agent--><g class="entity" data-qualified-name="Agent" data-source-line="23" id="ent0008"><rect fill="#EEEEEE" height="25.0938" rx="2.5" ry="2.5" style="stroke:#404040;stroke-width:0.5;" width="37.3594" x="145" y="338.1094"/><text fill="#000000" font-family="sans-serif" font-size="12" font-style="italic" lengthAdjust="spacing" textLength="31.3594" x="148" y="355.5664">Agent</text></g><!--class DefinedTerm--><g class="entity" data-qualified-name="DefinedTerm" data-source-line="25" id="ent0010"><rect fill="#EEEEEE" height="25.0938" rx="2.5" ry="2.5" style="stroke:#404040;stroke-width:0.5;" width="75.3574" x="228" y="338.1094"/><text fill="#000000" font-family="sans-serif" font-size="12" lengthAdjust="spacing" textLength="69.3574" x="231" y="355.5664">DefinedTerm</text></g><!--class XsdAnyUri--><g class="entity" data-qualified-name="XsdAnyUri" data-source-line="27" id="ent0012"><rect fill="#FAE5D3" height="40.1875" rx="2.5" ry="2.5" style="stroke:#404040;stroke-width:0.5;" width="65.3809" x="359" y="330.6094"/><text fill="#000000" font-family="sans-serif" font-size="12" font-style="italic" lengthAdjust="spacing" textLength="63.3809" x="360" y="348.0664">&#171;dataType&#187;</text><text fill="#000000" font-family="sans-serif" font-size="12" lengthAdjust="spacing" textLength="56.6836" x="363.3486" y="363.1602">XsdAnyUri</text></g><!--class XsdDate--><g class="entity" data-qualified-name="XsdDate" data-source-line="29" id="ent0014"><rect fill="#FAE5D3" height="40.1875" rx="2.5" ry="2.5" style="stroke:#404040;stroke-width:0.5;" width="65.3809" x="469" y="330.6094"/><text fill="#000000" font-family="sans-serif" font-size="12" font-style="italic" lengthAdjust="spacing" textLength="63.3809" x="470" y="348.0664">&#171;dataType&#187;</text><text fill="#000000" font-family="sans-serif" font-size="12" lengthAdjust="spacing" textLength="46.0254" x="478.6777" y="363.1602">XsdDate</text></g><!--class Reference--><g class="entity" data-qualified-name="Reference" data-source-line="31" id="ent0016"><rect fill="#EEEEEE" height="25.0938" rx="2.5" ry="2.5" style="stroke:#404040;stroke-width:0.5;" width="61.3652" x="611" y="338.1094"/><text fill="#000000" font-family="sans-serif" font-size="12" lengthAdjust="spacing" textLength="55.3652" x="614" y="355.5664">Reference</text></g><!--link Dataset to CatalogRecord--><g class="link" data-entity-1="ent0003" data-entity-2="ent0002" data-link-type="dependency" data-source-line="19" id="lnk4"><path codeLine="19" d="M44.55,338.0694 C61.73,324.1894 91.92,300.5194 119.5,282.6094 C135.18,272.4294 147.0192,265.2039 163.7492,255.6539" fill="none" id="Dataset-to-CatalogRecord" style="stroke:#404040;stroke-width:1.2;"/><polygon fill="#404040" points="168.96,252.6794,159.1608,253.6672,164.6177,255.1581,163.1268,260.615,168.96,252.6794" style="stroke:#404040;stroke-width:1.2;"/><text fill="#000000" font-family="sans-serif" font-size="13" lengthAdjust="spacing" textLength="54.9136" x="120.5" y="297.1045">subjectOf</text><text fill="#000000" font-family="sans-serif" font-size="13" lengthAdjust="spacing" textLength="7.23" x="149.7855" y="273.5455">1</text></g><!--link CatalogRecord to Dataset--><g class="link" data-entity-1="ent0002" data-entity-2="ent0003" data-link-type="dependency" data-source-line="22" id="lnk7"><path codeLine="22" d="M125.99,234.2294 C98.87,245.8394 72.65,261.5094 52.5,282.6094 C37.87,297.9294 33.6335,317.1762 31.9935,331.9162" fill="none" id="CatalogRecord-to-Dataset" style="stroke:#404040;stroke-width:1.2;"/><polygon fill="#404040" points="31.33,337.8794,36.3007,329.3769,31.8829,332.91,28.3497,328.4923,31.33,337.8794" style="stroke:#404040;stroke-width:1.2;"/><text fill="#000000" font-family="sans-serif" font-size="13" lengthAdjust="spacing" textLength="32.5317" x="53.5" y="297.1045">about</text><text fill="#000000" font-family="sans-serif" font-size="13" lengthAdjust="spacing" textLength="21.6836" x="6.587" y="327.2628">0..1</text></g><!--link DataDownload to CatalogRecord--><g class="link" data-entity-1="ent0005" data-entity-2="ent0002" data-link-type="dependency" data-source-line="21" id="lnk6"><path codeLine="21" d="M265.5,71.0894 C265.5,88.1394 265.5,114.4594 265.5,142.4194" fill="none" id="DataDownload-to-CatalogRecord" style="stroke:#404040;stroke-width:1.2;"/><polygon fill="#404040" points="265.5,148.4194,269.5,139.4194,265.5,143.4194,261.5,139.4194,265.5,148.4194" style="stroke:#404040;stroke-width:1.2;"/><text fill="#000000" font-family="sans-serif" font-size="13" lengthAdjust="spacing" textLength="54.9136" x="266.5" y="115.1045">subjectOf</text><text fill="#000000" font-family="sans-serif" font-size="13" lengthAdjust="spacing" textLength="21.6836" x="243.1393" y="137.8816">0..1</text></g><!--link CatalogRecord to Agent--><g class="link" data-entity-1="ent0002" data-entity-2="ent0008" data-link-type="dependency" data-source-line="24" id="lnk9"><path codeLine="24" d="M214.96,252.7494 C206.88,262.2594 199.05,272.4194 192.5,282.6094 C180.99,300.5294 174.0476,318.1043 169.2876,331.9743" fill="none" id="CatalogRecord-to-Agent" style="stroke:#404040;stroke-width:1.2;"/><polygon fill="#404040" points="167.34,337.6494,174.0448,330.4351,168.963,332.9201,166.478,327.8383,167.34,337.6494" style="stroke:#404040;stroke-width:1.2;"/><text fill="#000000" font-family="sans-serif" font-size="13" lengthAdjust="spacing" textLength="60.6963" x="193.5" y="297.1045">maintainer</text><text fill="#000000" font-family="sans-serif" font-size="13" lengthAdjust="spacing" textLength="21.6836" x="143.8627" y="327.2026">0..1</text></g><!--link CatalogRecord to DefinedTerm--><g class="link" data-entity-1="ent0002" data-entity-2="ent0010" data-link-type="dependency" data-source-line="26" id="lnk11"><path codeLine="26" d="M262.76,252.7394 C262.26,268.1294 262.02,285.0594 262.5,300.6094 C262.89,313.3894 263.4101,322.0255 264.1401,331.9555" fill="none" id="CatalogRecord-to-DefinedTerm" style="stroke:#404040;stroke-width:1.2;"/><polygon fill="#404040" points="264.58,337.9394,267.9094,328.6703,264.2134,332.9528,259.9309,329.2569,264.58,337.9394" style="stroke:#404040;stroke-width:1.2;"/><text fill="#000000" font-family="sans-serif" font-size="13" lengthAdjust="spacing" textLength="84.5571" x="263.5" y="297.1045">additionalType</text><text fill="#000000" font-family="sans-serif" font-size="13" lengthAdjust="spacing" textLength="19.5127" x="241.5077" y="327.3464">1..*</text></g><!--link CatalogRecord to XsdAnyUri--><g class="link" data-entity-1="ent0002" data-entity-2="ent0012" data-link-type="dependency" data-source-line="28" id="lnk13"><path codeLine="28" d="M325.45,252.9894 C334.99,262.3894 344.38,272.4494 352.5,282.6094 C364.43,297.5394 372.3802,311.1814 379.5402,325.1314" fill="none" id="CatalogRecord-to-XsdAnyUri" style="stroke:#404040;stroke-width:1.2;stroke-dasharray:7,7;"/><polygon fill="#404040" points="382.28,330.4694,381.729,320.6359,379.9969,326.0211,374.6117,324.289,382.28,330.4694" style="stroke:#404040;stroke-width:1.2;"/><text fill="#000000" font-family="sans-serif" font-size="13" lengthAdjust="spacing" textLength="68.6309" x="365.5" y="297.1045">conformsTo</text></g><!--link CatalogRecord to XsdDate--><g class="link" data-entity-1="ent0002" data-entity-2="ent0014" data-link-type="dependency" data-source-line="30" id="lnk15"><path codeLine="30" d="M394.37,252.7394 C411.2,261.6494 427.72,271.6294 442.5,282.6094 C460.66,296.1094 473.7021,311.1978 484.6421,325.7978" fill="none" id="CatalogRecord-to-XsdDate" style="stroke:#404040;stroke-width:1.2;stroke-dasharray:7,7;"/><polygon fill="#404040" points="488.24,330.5994,486.0442,320.9984,485.2418,326.5981,479.6421,325.7956,488.24,330.5994" style="stroke:#404040;stroke-width:1.2;"/><text fill="#000000" font-family="sans-serif" font-size="13" lengthAdjust="spacing" textLength="98.2871" x="463.5" y="297.1045">sdDatePublished</text></g><!--link CatalogRecord to Reference--><g class="link" data-entity-1="ent0002" data-entity-2="ent0016" data-link-type="dependency" data-source-line="32" id="lnk17"><path codeLine="32" d="M405.05,223.4394 C459.03,235.7094 519.88,254.4294 570.5,282.6094 C596.41,297.0394 616.2638,318.4194 628.6438,333.4394" fill="none" id="CatalogRecord-to-Reference" style="stroke:#404040;stroke-width:1.2;"/><polygon fill="#404040" points="632.46,338.0694,629.8224,328.5803,629.2798,334.2111,623.6491,333.6685,632.46,338.0694" style="stroke:#404040;stroke-width:1.2;"/><text fill="#000000" font-family="sans-serif" font-size="13" lengthAdjust="spacing" textLength="131.5361" x="595.5" y="297.1045">includedInDataCatalog</text><text fill="#000000" font-family="sans-serif" font-size="13" lengthAdjust="spacing" textLength="21.6836" x="603.4654" y="327.1449">0..1</text></g><?plantuml-src ZPBVQzim4CVVzLSSpjjAJTrrBwO4iiI1FQrq6GnA7yxIET4gIq5I2Ede_pvPZd-5hPkDGRhxwgCxtzTBhmYMw56PxIDnOmNRIK70fUMAsZNLUt-2ckgIh6FkHUezMgp1xL2OezHRg50v6cKMrfhZPYVvYoRd84jlHqckCCH-CMXbIwECXTdTJVE6uETG0zdBwDfe_qs-4cItx8snbf5C2ay0tRGLcAsBTR4iucLNA8JqqcXKczEU88SLLLAJs92juIbBqm_FZOmRNHbRkuq9aXzEBFJfkvKZWHChzFHmA9LqEnAjgWd1qqsQPb4ZDLS7GUAB3Way5nMKZrIH9SrxxLlNIgDpv6CJvpNCYlYmRdzzFOSaIowQpC4Tof_4_TTg35kPerO6HK_i0XDi7upifgRtyDFCw4XNOGvOceDdM3flaVlpi9F5bdJRMrpr9VmLsCfog55g7pwoVM_3rDhMHbDy1zkCBvc8GwqJHtGNz3EF-C41z_SYO1lbV1wSjIW-hJvUt9Icyz6170OlZU2DLJfqjCt_WwCy36Jgm8xTcolI1wlzysSFqXp-w5ps6m00?></g></svg>