<svg xmlns="http://www.w3.org/2000/svg" xmlns:xlink="http://www.w3.org/1999/xlink" contentStyleType="text/css" data-diagram-type="CLASS" height="660px" preserveAspectRatio="none" style="width:1075px;height:660px;background:#FFFFFF;" version="1.1" viewBox="0 0 1075 660" width="1075px" zoomAndPan="magnify"><?plantuml 1.2026.3?><defs/><g><g class="title" data-source-line="1"><text fill="#000000" font-family="sans-serif" font-size="14" font-weight="700" lengthAdjust="spacing" textLength="92.5791" x="488.1431" y="24.5332">DataStructure</text></g><!--class DataStructure--><g class="entity" data-qualified-name="DataStructure" data-source-line="15" id="ent0002"><rect fill="#FEFECE" height="50.7031" rx="2.5" ry="2.5" style="stroke:#404040;stroke-width:0.5;" width="131.0479" x="489.5" y="320.6094"/><text fill="#000000" font-family="sans-serif" font-size="12" lengthAdjust="spacing" textLength="74.0332" x="518.0073" y="338.0664">DataStructure</text><line style="stroke:#404040;stroke-width:0.5;" x1="490.5" x2="619.5479" y1="345.7031" y2="345.7031"/><g data-visibility-modifier="PUBLIC_FIELD"><ellipse cx="500.5" cy="360.0078" fill="none" rx="3" ry="3" style="stroke:#038048;stroke-width:1;"/></g><text fill="#000000" font-family="sans-serif" font-size="14" lengthAdjust="spacing" textLength="105.0479" x="509.5" y="364.2363">type : string [1..*]</text></g><!--class DataDownload--><g class="entity" data-qualified-name="DataDownload" data-source-line="18" id="ent0003"><rect fill="#EEEEEE" height="25.0938" rx="2.5" ry="2.5" style="stroke:#404040;stroke-width:0.5;" width="84.7148" x="512.5" y="45.6094"/><text fill="#000000" font-family="sans-serif" font-size="12" lengthAdjust="spacing" textLength="78.7148" x="515.5" y="63.0664">DataDownload</text></g><!--class IdentifierComponent--><g class="entity" data-qualified-name="IdentifierComponent" data-source-line="20" id="ent0005"><rect fill="#EEEEEE" height="25.0938" rx="2.5" ry="2.5" style="stroke:#404040;stroke-width:0.5;" width="114.0645" x="7" y="621.6094"/><text fill="#000000" font-family="sans-serif" font-size="12" lengthAdjust="spacing" textLength="108.0645" x="10" y="639.0664">IdentifierComponent</text></g><!--class MeasureComponent--><g class="entity" data-qualified-name="MeasureComponent" data-source-line="22" id="ent0007"><rect fill="#EEEEEE" height="25.0938" rx="2.5" ry="2.5" style="stroke:#404040;stroke-width:0.5;" width="114.7266" x="141.5" y="621.6094"/><text fill="#000000" font-family="sans-serif" font-size="12" lengthAdjust="spacing" textLength="108.7266" x="144.5" y="639.0664">MeasureComponent</text></g><!--class AttributeComponent--><g class="entity" data-qualified-name="AttributeComponent" data-source-line="24" id="ent0009"><rect fill="#EEEEEE" height="25.0938" rx="2.5" ry="2.5" style="stroke:#404040;stroke-width:0.5;" width="112.7285" x="276.5" y="621.6094"/><text fill="#000000" font-family="sans-serif" font-size="12" lengthAdjust="spacing" textLength="106.7285" x="279.5" y="639.0664">AttributeComponent</text></g><!--class DimensionComponent--><g class="entity" data-qualified-name="DimensionComponent" data-source-line="26" id="ent0011"><rect fill="#EEEEEE" height="25.0938" rx="2.5" ry="2.5" style="stroke:#404040;stroke-width:0.5;" width="124.7285" x="409.5" y="621.6094"/><text fill="#000000" font-family="sans-serif" font-size="12" lengthAdjust="spacing" textLength="118.7285" x="412.5" y="639.0664">DimensionComponent</text></g><!--class VariableDescriptorComponent--><g class="entity" data-qualified-name="VariableDescriptorComponent" data-source-line="28" id="ent0013"><rect fill="#EEEEEE" height="25.0938" rx="2.5" ry="2.5" style="stroke:#404040;stroke-width:0.5;" width="166.7461" x="554.5" y="621.6094"/><text fill="#000000" font-family="sans-serif" font-size="12" lengthAdjust="spacing" textLength="160.7461" x="557.5" y="639.0664">VariableDescriptorComponent</text></g><!--class VariableValueComponent--><g class="entity" data-qualified-name="VariableValueComponent" data-source-line="30" id="ent0015"><rect fill="#EEEEEE" height="25.0938" rx="2.5" ry="2.5" style="stroke:#404040;stroke-width:0.5;" width="142.7578" x="741.5" y="621.6094"/><text fill="#000000" font-family="sans-serif" font-size="12" lengthAdjust="spacing" textLength="136.7578" x="744.5" y="639.0664">VariableValueComponent</text></g><!--class PrimaryKey--><g class="entity" data-qualified-name="PrimaryKey" data-source-line="32" id="ent0017"><rect fill="#EEEEEE" height="25.0938" rx="2.5" ry="2.5" style="stroke:#404040;stroke-width:0.5;" width="68.0098" x="905" y="621.6094"/><text fill="#000000" font-family="sans-serif" font-size="12" lengthAdjust="spacing" textLength="62.0098" x="908" y="639.0664">PrimaryKey</text></g><!--class ForeignKey--><g class="entity" data-qualified-name="ForeignKey" data-source-line="34" id="ent0019"><rect fill="#EEEEEE" height="25.0938" rx="2.5" ry="2.5" style="stroke:#404040;stroke-width:0.5;" width="67.3652" x="993.5" y="621.6094"/><text fill="#000000" font-family="sans-serif" font-size="12" lengthAdjust="spacing" textLength="61.3652" x="996.5" y="639.0664">ForeignKey</text></g><!--link DataDownload to DataStructure--><g class="link" data-entity-1="ent0003" data-entity-2="ent0002" data-link-type="dependency" data-source-line="19" id="lnk4"><path codeLine="19" d="M555,70.8594 C555,114.8394 555,254.7894 555,314.4094" fill="none" id="DataDownload-to-DataStructure" style="stroke:#404040;stroke-width:1.2;"/><polygon fill="#404040" points="555,320.4094,559,311.4094,555,315.4094,551,311.4094,555,320.4094" style="stroke:#404040;stroke-width:1.2;"/><text fill="#000000" font-family="sans-serif" font-size="13" lengthAdjust="spacing" textLength="84.5317" x="470" y="192.1245">isStructuredBy</text><text fill="#000000" font-family="sans-serif" font-size="13" lengthAdjust="spacing" textLength="21.6836" x="531.5181" y="309.7691">0..1</text></g><!--reverse link DataStructure to IdentifierComponent--><g class="link" data-entity-1="ent0002" data-entity-2="ent0005" data-link-type="composition" data-source-line="21" id="lnk6"><path codeLine="21" d="M477.29,333.6094 C343.5,333.6094 64,333.6094 64,333.6094 C64,333.6094 64,564.7094 64,621.5794" fill="none" id="DataStructure-backto-IdentifierComponent" style="stroke:#404040;stroke-width:1.2;"/><polygon fill="#404040" points="489.29,333.6094,483.29,329.6094,477.29,333.6094,483.29,337.6094,489.29,333.6094" style="stroke:#404040;stroke-width:1.2;"/><text fill="#000000" font-family="sans-serif" font-size="13" lengthAdjust="spacing" textLength="88.1689" x="43.66" y="330.1045">hasComponent</text><text fill="#000000" font-family="sans-serif" font-size="13" lengthAdjust="spacing" textLength="19.5127" x="41.1737" y="610.659">0..*</text></g><!--reverse link DataStructure to MeasureComponent--><g class="link" data-entity-1="ent0002" data-entity-2="ent0007" data-link-type="composition" data-source-line="23" id="lnk8"><path codeLine="23" d="M477.29,346.6094 C374.43,346.6094 199,346.6094 199,346.6094 C199,346.6094 199,565.7494 199,621.3894" fill="none" id="DataStructure-backto-MeasureComponent" style="stroke:#404040;stroke-width:1.2;"/><polygon fill="#404040" points="489.29,346.6094,483.29,342.6094,477.29,346.6094,483.29,350.6094,489.29,346.6094" style="stroke:#404040;stroke-width:1.2;"/><text fill="#000000" font-family="sans-serif" font-size="13" lengthAdjust="spacing" textLength="88.1689" x="117.76" y="361.1045">hasComponent</text><text fill="#000000" font-family="sans-serif" font-size="13" lengthAdjust="spacing" textLength="19.5127" x="176.4141" y="610.7767">0..*</text></g><!--reverse link DataStructure to AttributeComponent--><g class="link" data-entity-1="ent0002" data-entity-2="ent0009" data-link-type="composition" data-source-line="25" id="lnk10"><path codeLine="25" d="M477.29,359.6094 C411.83,359.6094 333,359.6094 333,359.6094 C333,359.6094 333,567.8994 333,621.5994" fill="none" id="DataStructure-backto-AttributeComponent" style="stroke:#404040;stroke-width:1.2;"/><polygon fill="#404040" points="489.29,359.6094,483.29,355.6094,477.29,359.6094,483.29,363.6094,489.29,359.6094" style="stroke:#404040;stroke-width:1.2;"/><text fill="#000000" font-family="sans-serif" font-size="13" lengthAdjust="spacing" textLength="88.1689" x="244" y="408.9545">hasComponent</text><text fill="#000000" font-family="sans-serif" font-size="13" lengthAdjust="spacing" textLength="19.5127" x="310.243" y="610.6873">0..*</text></g><!--reverse link DataStructure to DimensionComponent--><g class="link" data-entity-1="ent0002" data-entity-2="ent0011" data-link-type="composition" data-source-line="27" id="lnk12"><path codeLine="27" d="M512,383.6694 C512,443.2794 512,577.7694 512,621.5494" fill="none" id="DataStructure-backto-DimensionComponent" style="stroke:#404040;stroke-width:1.2;"/><polygon fill="#404040" points="512,371.6694,508,377.6694,512,383.6694,516,377.6694,512,371.6694" style="stroke:#404040;stroke-width:1.2;"/><text fill="#000000" font-family="sans-serif" font-size="13" lengthAdjust="spacing" textLength="88.1689" x="423" y="493.1045">hasComponent</text><text fill="#000000" font-family="sans-serif" font-size="13" lengthAdjust="spacing" textLength="19.5127" x="505.743" y="610.6167">0..*</text></g><!--reverse link DataStructure to VariableDescriptorComponent--><g class="link" data-entity-1="ent0002" data-entity-2="ent0013" data-link-type="composition" data-source-line="29" id="lnk14"><path codeLine="29" d="M587.5,383.6694 C587.5,443.2794 587.5,577.7694 587.5,621.5494" fill="none" id="DataStructure-backto-VariableDescriptorComponent" style="stroke:#404040;stroke-width:1.2;"/><polygon fill="#404040" points="587.5,371.6694,583.5,377.6694,587.5,383.6694,591.5,377.6694,587.5,371.6694" style="stroke:#404040;stroke-width:1.2;"/><text fill="#000000" font-family="sans-serif" font-size="13" lengthAdjust="spacing" textLength="88.1689" x="498.5" y="511.1045">hasComponent</text><text fill="#000000" font-family="sans-serif" font-size="13" lengthAdjust="spacing" textLength="19.5127" x="543.9081" y="610.6167">0..*</text></g><!--reverse link DataStructure to VariableValueComponent--><g class="link" data-entity-1="ent0002" data-entity-2="ent0015" data-link-type="composition" data-source-line="31" id="lnk16"><path codeLine="31" d="M632.77,359.6094 C709.21,359.6094 813,359.6094 813,359.6094 C813,359.6094 813,567.8994 813,621.5994" fill="none" id="DataStructure-backto-VariableValueComponent" style="stroke:#404040;stroke-width:1.2;"/><polygon fill="#404040" points="620.77,359.6094,626.77,363.6094,632.77,359.6094,626.77,355.6094,620.77,359.6094" style="stroke:#404040;stroke-width:1.2;"/><text fill="#000000" font-family="sans-serif" font-size="13" lengthAdjust="spacing" textLength="88.1689" x="724" y="390.9845">hasComponent</text><text fill="#000000" font-family="sans-serif" font-size="13" lengthAdjust="spacing" textLength="19.5127" x="790.2369" y="610.6873">0..*</text></g><!--reverse link DataStructure to PrimaryKey--><g class="link" data-entity-1="ent0002" data-entity-2="ent0017" data-link-type="composition" data-source-line="33" id="lnk18"><path codeLine="33" d="M632.58,346.6094 C742.25,346.6094 939,346.6094 939,346.6094 C939,346.6094 939,565.7494 939,621.3894" fill="none" id="DataStructure-backto-PrimaryKey" style="stroke:#404040;stroke-width:1.2;"/><polygon fill="#404040" points="620.58,346.6094,626.58,350.6094,632.58,346.6094,626.58,342.6094,620.58,346.6094" style="stroke:#404040;stroke-width:1.2;"/><text fill="#000000" font-family="sans-serif" font-size="13" lengthAdjust="spacing" textLength="88.1372" x="828.18" y="343.1045">hasPrimaryKey</text><text fill="#000000" font-family="sans-serif" font-size="13" lengthAdjust="spacing" textLength="21.6836" x="913.9983" y="610.7767">0..1</text></g><!--reverse link DataStructure to ForeignKey--><g class="link" data-entity-1="ent0002" data-entity-2="ent0019" data-link-type="composition" data-source-line="35" id="lnk20"><path codeLine="35" d="M632.63,333.6094 C762.32,333.6094 1027,333.6094 1027,333.6094 C1027,333.6094 1027,564.7094 1027,621.5794" fill="none" id="DataStructure-backto-ForeignKey" style="stroke:#404040;stroke-width:1.2;"/><polygon fill="#404040" points="620.63,333.6094,626.63,337.6094,632.63,333.6094,626.63,329.6094,620.63,333.6094" style="stroke:#404040;stroke-width:1.2;"/><text fill="#000000" font-family="sans-serif" font-size="13" lengthAdjust="spacing" textLength="87.439" x="968.8" y="330.1045">hasForeignKey</text><text fill="#000000" font-family="sans-serif" font-size="13" lengthAdjust="spacing" textLength="19.5127" x="1004.1117" y="610.659">0..*</text></g><?plantuml-src ZPDDIyD048Rl-HL3Ugiqj4KlFGYr7o0Y28eNyR1DncRePZVCRYbH_E-cgsa-kZGcbymxUTzdPaCiMOcm55OyMzx7TiyOf9GWnCIn_7l6BBS5P9Xja4rWTgHomI83auf47qXjuKD8WutEd5aVNbAATmgDWKaqRJHPg9t17AOtuuQgT89EROgI5DeYHz1iKzren5AKkLy1_A8MMcg6mVNuU9VYdUO4kQkkjRBFz8amcGRVGV2R4RQM3q6Ozd70OBrQhnOh1xjomyp0M3wk_JQ9ek5xcTM8Mkg3abeafwHAWC7ANK5B78rk8Hn7qIJiO6T0vbGbTqN5k4zGMVgWutfPhbLPEPH7Rn7hvE5ev933q6kQGIhCgQomZoXCQMupks8_yCpXfyrjUS2RlUtmpkL-eiVZPoufGsL8gpRpNEvdUZn-vgjW4Xk9IpGnKsvrvwDUwFTFSSbyUPnN8VVedwJT-lyG7P-V_yIK2IuUi73CkkpXb3zFursNNTTL-5epqbPLuNNPlqJZNHTUry4F?></g></svg>