<svg xmlns="http://www.w3.org/2000/svg" xmlns:xlink="http://www.w3.org/1999/xlink" contentStyleType="text/css" data-diagram-type="CLASS" height="474px" preserveAspectRatio="none" style="width:3579px;height:474px;background:#FFFFFF;" version="1.1" viewBox="0 0 3579 474" width="3579px" zoomAndPan="magnify"><?plantuml 1.2026.3?><defs/><g><g class="title" data-source-line="1"><text fill="#000000" font-family="sans-serif" font-size="14" font-weight="700" lengthAdjust="spacing" textLength="50.5791" x="1760.7659" y="24.5332">Dataset</text></g><!--class Dataset--><g class="entity" data-qualified-name="Dataset" data-source-line="12" id="ent0002"><rect fill="#FEFECE" height="297.2344" rx="2.5" ry="2.5" style="stroke:#404040;stroke-width:0.5;" width="258.6816" x="1552.73" y="45.6094"/><text fill="#000000" font-family="sans-serif" font-size="12" lengthAdjust="spacing" textLength="41.3555" x="1661.3931" y="63.0664">Dataset</text><line style="stroke:#404040;stroke-width:0.5;" x1="1553.73" x2="1810.4116" y1="70.7031" y2="70.7031"/><g data-visibility-modifier="PUBLIC_FIELD"><ellipse cx="1563.73" cy="85.0078" fill="none" rx="3" ry="3" style="stroke:#038048;stroke-width:1;"/></g><text fill="#000000" font-family="sans-serif" font-size="14" lengthAdjust="spacing" textLength="137.7373" x="1572.73" y="89.2363">identifier : Identifier [1]</text><g data-visibility-modifier="PUBLIC_FIELD"><ellipse cx="1563.73" cy="102.6172" fill="none" rx="3" ry="3" style="stroke:#038048;stroke-width:1;"/></g><text fill="#000000" font-family="sans-serif" font-size="14" lengthAdjust="spacing" textLength="100.3789" x="1572.73" y="106.8457">name : string [1]</text><g data-visibility-modifier="PUBLIC_FIELD"><ellipse cx="1563.73" cy="120.2266" fill="none" rx="3" ry="3" style="stroke:#038048;stroke-width:1;"/></g><text fill="#000000" font-family="sans-serif" font-size="14" lengthAdjust="spacing" textLength="148.627" x="1572.73" y="124.4551">description : string [0..1]</text><g data-visibility-modifier="PUBLIC_FIELD"><ellipse cx="1563.73" cy="137.8359" fill="none" rx="3" ry="3" style="stroke:#038048;stroke-width:1;"/></g><text fill="#000000" font-family="sans-serif" font-size="14" lengthAdjust="spacing" textLength="216.3301" x="1572.73" y="142.0645">additionalType : DefinedTerm [0..*]</text><g data-visibility-modifier="PUBLIC_FIELD"><ellipse cx="1563.73" cy="155.4453" fill="none" rx="3" ry="3" style="stroke:#038048;stroke-width:1;"/></g><text fill="#000000" font-family="sans-serif" font-size="14" lengthAdjust="spacing" textLength="148.6201" x="1572.73" y="159.6738">sameAs : Identifier [0..*]</text><g data-visibility-modifier="PUBLIC_FIELD"><ellipse cx="1563.73" cy="173.0547" fill="none" rx="3" ry="3" style="stroke:#038048;stroke-width:1;"/></g><text fill="#000000" font-family="sans-serif" font-size="14" lengthAdjust="spacing" textLength="126.0547" x="1572.73" y="177.2832">version : string [0..1]</text><g data-visibility-modifier="PUBLIC_FIELD"><ellipse cx="1563.73" cy="190.6641" fill="none" rx="3" ry="3" style="stroke:#038048;stroke-width:1;"/></g><text fill="#000000" font-family="sans-serif" font-size="14" lengthAdjust="spacing" textLength="206.2881" x="1572.73" y="194.8926">inLanguage : XsdLanguage [0..1]</text><g data-visibility-modifier="PUBLIC_FIELD"><ellipse cx="1563.73" cy="208.2734" fill="none" rx="3" ry="3" style="stroke:#038048;stroke-width:1;"/></g><text fill="#000000" font-family="sans-serif" font-size="14" lengthAdjust="spacing" textLength="164.9854" x="1572.73" y="212.502">dateModified : XsdDate [1]</text><g data-visibility-modifier="PUBLIC_FIELD"><ellipse cx="1563.73" cy="225.8828" fill="none" rx="3" ry="3" style="stroke:#038048;stroke-width:1;"/></g><text fill="#000000" font-family="sans-serif" font-size="14" lengthAdjust="spacing" textLength="189.123" x="1572.73" y="230.1113">datePublished : XsdDate [0..1]</text><g data-visibility-modifier="PUBLIC_FIELD"><ellipse cx="1563.73" cy="243.4922" fill="none" rx="3" ry="3" style="stroke:#038048;stroke-width:1;"/></g><text fill="#000000" font-family="sans-serif" font-size="14" lengthAdjust="spacing" textLength="128.3789" x="1572.73" y="247.7207">url : XsdAnyUri [0..1]</text><g data-visibility-modifier="PUBLIC_FIELD"><ellipse cx="1563.73" cy="261.1016" fill="none" rx="3" ry="3" style="stroke:#038048;stroke-width:1;"/></g><text fill="#000000" font-family="sans-serif" font-size="14" lengthAdjust="spacing" textLength="152.5234" x="1572.73" y="265.3301">license : Reference [0..*]</text><g data-visibility-modifier="PUBLIC_FIELD"><ellipse cx="1563.73" cy="278.7109" fill="none" rx="3" ry="3" style="stroke:#038048;stroke-width:1;"/></g><text fill="#000000" font-family="sans-serif" font-size="14" lengthAdjust="spacing" textLength="231.8887" x="1572.73" y="282.9395">conditionsOfAccess : Reference [0..*]</text><g data-visibility-modifier="PUBLIC_FIELD"><ellipse cx="1563.73" cy="296.3203" fill="none" rx="3" ry="3" style="stroke:#038048;stroke-width:1;"/></g><text fill="#000000" font-family="sans-serif" font-size="14" lengthAdjust="spacing" textLength="232.6816" x="1572.73" y="300.5488">publishingPrinciples : Reference [0..*]</text><g data-visibility-modifier="PUBLIC_FIELD"><ellipse cx="1563.73" cy="313.9297" fill="none" rx="3" ry="3" style="stroke:#038048;stroke-width:1;"/></g><text fill="#000000" font-family="sans-serif" font-size="14" lengthAdjust="spacing" textLength="184.3994" x="1572.73" y="318.1582">keywords : DefinedTerm [0..*]</text><g data-visibility-modifier="PUBLIC_FIELD"><ellipse cx="1563.73" cy="331.5391" fill="none" rx="3" ry="3" style="stroke:#038048;stroke-width:1;"/></g><text fill="#000000" font-family="sans-serif" font-size="14" lengthAdjust="spacing" textLength="177.4336" x="1572.73" y="335.7676">relatedLink : Reference [0..*]</text></g><!--class Agent--><g class="entity" data-qualified-name="Agent" data-source-line="29" id="ent0003"><rect fill="#EEEEEE" height="25.0938" rx="2.5" ry="2.5" style="stroke:#404040;stroke-width:0.5;" width="37.3594" x="103.73" y="428.1094"/><text fill="#000000" font-family="sans-serif" font-size="12" font-style="italic" lengthAdjust="spacing" textLength="31.3594" x="106.73" y="445.5664">Agent</text></g><!--class AbstractDistribution--><g class="entity" data-qualified-name="AbstractDistribution" data-source-line="31" id="ent0005"><rect fill="#EEEEEE" height="25.0938" rx="2.5" ry="2.5" style="stroke:#404040;stroke-width:0.5;" width="110.0391" x="218.23" y="428.1094"/><text fill="#000000" font-family="sans-serif" font-size="12" font-style="italic" lengthAdjust="spacing" textLength="104.0391" x="221.23" y="445.5664">AbstractDistribution</text></g><!--class Contributor--><g class="entity" data-qualified-name="Contributor" data-source-line="34" id="ent0008"><rect fill="#EEEEEE" height="25.0938" rx="2.5" ry="2.5" style="stroke:#404040;stroke-width:0.5;" width="65.3613" x="363.73" y="428.1094"/><text fill="#000000" font-family="sans-serif" font-size="12" lengthAdjust="spacing" textLength="59.3613" x="366.73" y="445.5664">Contributor</text></g><!--class MonetaryGrant--><g class="entity" data-qualified-name="MonetaryGrant" data-source-line="37" id="ent0011"><rect fill="#EEEEEE" height="25.0938" rx="2.5" ry="2.5" style="stroke:#404040;stroke-width:0.5;" width="86.0332" x="464.23" y="428.1094"/><text fill="#000000" font-family="sans-serif" font-size="12" lengthAdjust="spacing" textLength="80.0332" x="467.23" y="445.5664">MonetaryGrant</text></g><!--class ProvActivity--><g class="entity" data-qualified-name="ProvActivity" data-source-line="39" id="ent0013"><rect fill="#EEEEEE" height="25.0938" rx="2.5" ry="2.5" style="stroke:#404040;stroke-width:0.5;" width="68.6777" x="585.73" y="428.1094"/><text fill="#000000" font-family="sans-serif" font-size="12" lengthAdjust="spacing" textLength="62.6777" x="588.73" y="445.5664">ProvActivity</text></g><!--class DerivedFrom--><g class="entity" data-qualified-name="DerivedFrom" data-source-line="41" id="ent0015"><rect fill="#EEEEEE" height="25.0938" rx="2.5" ry="2.5" style="stroke:#404040;stroke-width:0.5;" width="75.3457" x="692.73" y="428.1094"/><text fill="#000000" font-family="sans-serif" font-size="12" lengthAdjust="spacing" textLength="69.3457" x="695.73" y="445.5664">DerivedFrom</text></g><!--class CatalogRecord--><g class="entity" data-qualified-name="CatalogRecord" data-source-line="43" id="ent0017"><rect fill="#EEEEEE" height="25.0938" rx="2.5" ry="2.5" style="stroke:#404040;stroke-width:0.5;" width="86.0449" x="875.23" y="428.1094"/><text fill="#000000" font-family="sans-serif" font-size="12" lengthAdjust="spacing" textLength="80.0449" x="878.23" y="445.5664">CatalogRecord</text></g><!--class DefinedTerm--><g class="entity" data-qualified-name="DefinedTerm" data-source-line="45" id="ent0019"><rect fill="#EEEEEE" height="25.0938" rx="2.5" ry="2.5" style="stroke:#404040;stroke-width:0.5;" width="75.3574" x="1098.73" y="428.1094"/><text fill="#000000" font-family="sans-serif" font-size="12" lengthAdjust="spacing" textLength="69.3574" x="1101.73" y="445.5664">DefinedTerm</text></g><!--class Reference--><g class="entity" data-qualified-name="Reference" data-source-line="47" id="ent0021"><rect fill="#EEEEEE" height="25.0938" rx="2.5" ry="2.5" style="stroke:#404040;stroke-width:0.5;" width="61.3652" x="1573.73" y="428.1094"/><text fill="#000000" font-family="sans-serif" font-size="12" lengthAdjust="spacing" textLength="55.3652" x="1576.73" y="445.5664">Reference</text></g><!--class VariableMeasured--><g class="entity" data-qualified-name="VariableMeasured" data-source-line="50" id="ent0024"><rect fill="#EEEEEE" height="25.0938" rx="2.5" ry="2.5" style="stroke:#404040;stroke-width:0.5;" width="103.3887" x="1891.73" y="428.1094"/><text fill="#000000" font-family="sans-serif" font-size="12" lengthAdjust="spacing" textLength="97.3887" x="1894.73" y="445.5664">VariableMeasured</text></g><!--class SpatialExtent--><g class="entity" data-qualified-name="SpatialExtent" data-source-line="52" id="ent0026"><rect fill="#EEEEEE" height="25.0938" rx="2.5" ry="2.5" style="stroke:#404040;stroke-width:0.5;" width="76.7109" x="2049.73" y="428.1094"/><text fill="#000000" font-family="sans-serif" font-size="12" lengthAdjust="spacing" textLength="70.7109" x="2052.73" y="445.5664">SpatialExtent</text></g><!--class TemporalExtent--><g class="entity" data-qualified-name="TemporalExtent" data-source-line="54" id="ent0028"><rect fill="#EEEEEE" height="25.0938" rx="2.5" ry="2.5" style="stroke:#404040;stroke-width:0.5;" width="90.7031" x="2177.73" y="428.1094"/><text fill="#000000" font-family="sans-serif" font-size="12" lengthAdjust="spacing" textLength="84.7031" x="2180.73" y="445.5664">TemporalExtent</text></g><!--class QualityMeasure--><g class="entity" data-qualified-name="QualityMeasure" data-source-line="56" id="ent0030"><rect fill="#EEEEEE" height="25.0938" rx="2.5" ry="2.5" style="stroke:#404040;stroke-width:0.5;" width="90.0352" x="2326.23" y="428.1094"/><text fill="#000000" font-family="sans-serif" font-size="12" lengthAdjust="spacing" textLength="84.0352" x="2329.23" y="445.5664">QualityMeasure</text></g><!--class InstanceVariable--><g class="entity" data-qualified-name="InstanceVariable" data-source-line="58" id="ent0032"><rect fill="#EEEEEE" height="25.0938" rx="2.5" ry="2.5" style="stroke:#404040;stroke-width:0.5;" width="95.3906" x="2505.73" y="428.1094"/><text fill="#000000" font-family="sans-serif" font-size="12" lengthAdjust="spacing" textLength="89.3906" x="2508.73" y="445.5664">InstanceVariable</text></g><!--class PrimaryKey--><g class="entity" data-qualified-name="PrimaryKey" data-source-line="60" id="ent0034"><rect fill="#EEEEEE" height="25.0938" rx="2.5" ry="2.5" style="stroke:#404040;stroke-width:0.5;" width="68.0098" x="2664.23" y="428.1094"/><text fill="#000000" font-family="sans-serif" font-size="12" lengthAdjust="spacing" textLength="62.0098" x="2667.23" y="445.5664">PrimaryKey</text></g><!--class Statistics--><g class="entity" data-qualified-name="Statistics" data-source-line="62" id="ent0036"><rect fill="#EEEEEE" height="25.0938" rx="2.5" ry="2.5" style="stroke:#404040;stroke-width:0.5;" width="54.0117" x="2787.23" y="428.1094"/><text fill="#000000" font-family="sans-serif" font-size="12" lengthAdjust="spacing" textLength="48.0117" x="2790.23" y="445.5664">Statistics</text></g><!--class DataDownload--><g class="entity" data-qualified-name="DataDownload" data-source-line="64" id="ent0038"><rect fill="#EEEEEE" height="25.0938" rx="2.5" ry="2.5" style="stroke:#404040;stroke-width:0.5;" width="84.7148" x="2876.73" y="428.1094"/><text fill="#000000" font-family="sans-serif" font-size="12" lengthAdjust="spacing" textLength="78.7148" x="2879.73" y="445.5664">DataDownload</text></g><!--class WebAPI--><g class="entity" data-qualified-name="WebAPI" data-source-line="66" id="ent0040"><rect fill="#EEEEEE" height="25.0938" rx="2.5" ry="2.5" style="stroke:#404040;stroke-width:0.5;" width="50.0156" x="2998.23" y="428.1094"/><text fill="#000000" font-family="sans-serif" font-size="12" lengthAdjust="spacing" textLength="44.0156" x="3001.23" y="445.5664">WebAPI</text></g><!--class Identifier--><g class="entity" data-qualified-name="Identifier" data-source-line="69" id="ent0043"><rect fill="#EEEEEE" height="25.0938" rx="2.5" ry="2.5" style="stroke:#404040;stroke-width:0.5;" width="52.0254" x="3140.23" y="428.1094"/><text fill="#000000" font-family="sans-serif" font-size="12" lengthAdjust="spacing" textLength="46.0254" x="3143.23" y="445.5664">Identifier</text></g><!--class XsdLanguage--><g class="entity" data-qualified-name="XsdLanguage" data-source-line="73" id="ent0047"><rect fill="#FAE5D3" height="40.1875" rx="2.5" ry="2.5" style="stroke:#404040;stroke-width:0.5;" width="80.0684" x="3266.23" y="420.6094"/><text fill="#000000" font-family="sans-serif" font-size="12" font-style="italic" lengthAdjust="spacing" textLength="63.3809" x="3274.5738" y="438.0664">&#171;dataType&#187;</text><text fill="#000000" font-family="sans-serif" font-size="12" lengthAdjust="spacing" textLength="74.0684" x="3269.23" y="453.1602">XsdLanguage</text></g><!--class XsdDate--><g class="entity" data-qualified-name="XsdDate" data-source-line="75" id="ent0049"><rect fill="#FAE5D3" height="40.1875" rx="2.5" ry="2.5" style="stroke:#404040;stroke-width:0.5;" width="65.3809" x="3382.73" y="420.6094"/><text fill="#000000" font-family="sans-serif" font-size="12" font-style="italic" lengthAdjust="spacing" textLength="63.3809" x="3383.73" y="438.0664">&#171;dataType&#187;</text><text fill="#000000" font-family="sans-serif" font-size="12" lengthAdjust="spacing" textLength="46.0254" x="3392.4077" y="453.1602">XsdDate</text></g><!--class XsdAnyUri--><g class="entity" data-qualified-name="XsdAnyUri" data-source-line="77" id="ent0051"><rect fill="#FAE5D3" height="40.1875" rx="2.5" ry="2.5" style="stroke:#404040;stroke-width:0.5;" width="65.3809" x="3498.73" y="420.6094"/><text fill="#000000" font-family="sans-serif" font-size="12" font-style="italic" lengthAdjust="spacing" textLength="63.3809" x="3499.73" y="438.0664">&#171;dataType&#187;</text><text fill="#000000" font-family="sans-serif" font-size="12" lengthAdjust="spacing" textLength="56.6836" x="3503.0786" y="453.1602">XsdAnyUri</text></g><!--link Dataset to Agent--><g class="link" data-entity-1="ent0002" data-entity-2="ent0003" data-link-type="dependency" data-source-line="30" id="lnk4"><path codeLine="30" d="M1552.59,199.2894 C1181.05,212.5894 132.49,259.8794 31.23,372.6094 C6,400.7094 64.4241,422.7017 97.8141,432.7417" fill="none" id="Dataset-to-Agent" style="stroke:#404040;stroke-width:1.2;"/><polygon fill="#404040" points="103.56,434.4694,96.093,428.0472,98.7718,433.0296,93.7894,435.7084,103.56,434.4694" style="stroke:#404040;stroke-width:1.2;"/><text fill="#000000" font-family="sans-serif" font-size="13" lengthAdjust="spacing" textLength="46.9663" x="32.23" y="387.1045">provider</text><text fill="#000000" font-family="sans-serif" font-size="13" lengthAdjust="spacing" textLength="19.5127" x="76.3076" y="427.8487">0..*</text></g><!--link Dataset to Agent--><g class="link" data-entity-1="ent0002" data-entity-2="ent0003" data-link-type="dependency" data-source-line="33" id="lnk7"><path codeLine="33" d="M1552.5,200.1294 C1194.72,215.2794 214.21,266.2294 119.23,372.6094 C105.74,387.7194 109.9202,407.6004 115.3002,422.4004" fill="none" id="Dataset-to-Agent-1" style="stroke:#404040;stroke-width:1.2;"/><polygon fill="#404040" points="117.35,428.0394,118.0346,418.2143,115.6418,423.3402,110.5159,420.9475,117.35,428.0394" style="stroke:#404040;stroke-width:1.2;"/><text fill="#000000" font-family="sans-serif" font-size="13" lengthAdjust="spacing" textLength="40.46" x="120.23" y="387.1045">creator</text><text fill="#000000" font-family="sans-serif" font-size="13" lengthAdjust="spacing" textLength="19.5127" x="119.2874" y="417.1025">0..*</text></g><!--link Dataset to Agent--><g class="link" data-entity-1="ent0002" data-entity-2="ent0003" data-link-type="dependency" data-source-line="36" id="lnk10"><path codeLine="36" d="M1552.61,199.4194 C1302.16,210.3894 736.07,248.0094 278.23,372.6094 C226.47,386.6994 174.7778,411.8407 146.1478,426.8007" fill="none" id="Dataset-to-Agent-2" style="stroke:#404040;stroke-width:1.2;"/><polygon fill="#404040" points="140.83,429.5794,150.6591,428.9565,145.2615,427.2638,146.9542,421.8661,140.83,429.5794" style="stroke:#404040;stroke-width:1.2;"/><text fill="#000000" font-family="sans-serif" font-size="13" lengthAdjust="spacing" textLength="52.7554" x="279.23" y="387.1045">publisher</text><text fill="#000000" font-family="sans-serif" font-size="13" lengthAdjust="spacing" textLength="21.6836" x="149.06" y="421.7586">0..1</text></g><!--link Dataset to AbstractDistribution--><g class="link" data-entity-1="ent0002" data-entity-2="ent0005" data-link-type="dependency" data-source-line="32" id="lnk6"><path codeLine="32" d="M1552.61,205.4494 C1266.76,229.4294 590.65,292.9094 376.23,372.6094 C341.04,385.6894 310.1795,408.6326 291.4395,424.0826" fill="none" id="Dataset-to-AbstractDistribution" style="stroke:#404040;stroke-width:1.2;"/><polygon fill="#404040" points="286.81,427.8994,296.2988,425.2606,290.6679,424.7187,291.2098,419.0879,286.81,427.8994" style="stroke:#404040;stroke-width:1.2;"/><text fill="#000000" font-family="sans-serif" font-size="13" lengthAdjust="spacing" textLength="62.8672" x="377.23" y="387.1045">distribution</text><text fill="#000000" font-family="sans-serif" font-size="13" lengthAdjust="spacing" textLength="19.5127" x="269.5097" y="417.2907">0..*</text></g><!--link Dataset to Contributor--><g class="link" data-entity-1="ent0002" data-entity-2="ent0008" data-link-type="dependency" data-source-line="35" id="lnk9"><path codeLine="35" d="M1552.62,205.3394 C1282.4,228.0894 668.13,287.6594 477.23,372.6094 C447.89,385.6694 424.6672,408.0191 410.4772,423.4791" fill="none" id="Dataset-to-Contributor" style="stroke:#404040;stroke-width:1.2;"/><polygon fill="#404040" points="406.42,427.8994,415.4527,423.9737,409.801,424.2158,409.5589,418.5641,406.42,427.8994" style="stroke:#404040;stroke-width:1.2;"/><text fill="#000000" font-family="sans-serif" font-size="13" lengthAdjust="spacing" textLength="61.4199" x="478.23" y="387.1045">contributor</text><text fill="#000000" font-family="sans-serif" font-size="13" lengthAdjust="spacing" textLength="19.5127" x="387.7215" y="417.2907">0..*</text></g><!--link Dataset to MonetaryGrant--><g class="link" data-entity-1="ent0002" data-entity-2="ent0011" data-link-type="dependency" data-source-line="38" id="lnk12"><path codeLine="38" d="M1552.44,205.5394 C1297.44,227.7094 741.16,284.7594 572.23,372.6094 C546.93,385.7694 529.1306,407.5838 518.3306,423.0138" fill="none" id="Dataset-to-MonetaryGrant" style="stroke:#404040;stroke-width:1.2;"/><polygon fill="#404040" points="514.89,427.9294,523.3279,422.8498,517.7571,423.8331,516.7738,418.2624,514.89,427.9294" style="stroke:#404040;stroke-width:1.2;"/><text fill="#000000" font-family="sans-serif" font-size="13" lengthAdjust="spacing" textLength="42.6499" x="573.23" y="387.1045">funding</text><text fill="#000000" font-family="sans-serif" font-size="13" lengthAdjust="spacing" textLength="19.5127" x="495.2599" y="417.3325">0..*</text></g><!--link Dataset to ProvActivity--><g class="link" data-entity-1="ent0002" data-entity-2="ent0013" data-link-type="dependency" data-source-line="40" id="lnk14"><path codeLine="40" d="M1552.71,199.3494 C1302,210.3094 763.62,248.0794 634.23,372.6094 C619.25,387.0294 617.875,407.0487 618.715,422.0687" fill="none" id="Dataset-to-ProvActivity" style="stroke:#404040;stroke-width:1.2;"/><polygon fill="#404040" points="619.05,428.0594,622.5412,418.8501,618.7708,423.0672,614.5537,419.2968,619.05,428.0594" style="stroke:#404040;stroke-width:1.2;"/><text fill="#000000" font-family="sans-serif" font-size="13" lengthAdjust="spacing" textLength="99.7217" x="635.23" y="387.1045">wasGeneratedBy</text><text fill="#000000" font-family="sans-serif" font-size="13" lengthAdjust="spacing" textLength="19.5127" x="595.8167" y="417.1308">0..*</text></g><!--link Dataset to DerivedFrom--><g class="link" data-entity-1="ent0002" data-entity-2="ent0015" data-link-type="dependency" data-source-line="42" id="lnk16"><path codeLine="42" d="M1552.42,204.4294 C1326.59,223.0994 874.07,272.2194 755.23,372.6094 C738.64,386.6294 733.7889,406.835 731.9089,421.985" fill="none" id="Dataset-to-DerivedFrom" style="stroke:#404040;stroke-width:1.2;"/><polygon fill="#404040" points="731.17,427.9394,736.2479,419.5005,731.7857,422.9774,728.3088,418.5153,731.17,427.9394" style="stroke:#404040;stroke-width:1.2;"/><text fill="#000000" font-family="sans-serif" font-size="13" lengthAdjust="spacing" textLength="98.2427" x="756.23" y="387.1045">wasDerivedFrom</text><text fill="#000000" font-family="sans-serif" font-size="13" lengthAdjust="spacing" textLength="19.5127" x="708.8324" y="417.3464">0..*</text></g><!--link Dataset to CatalogRecord--><g class="link" data-entity-1="ent0002" data-entity-2="ent0017" data-link-type="dependency" data-source-line="44" id="lnk18"><path codeLine="44" d="M1552.54,204.0694 C1344.73,221.4294 951.84,267.5994 867.23,372.6094 C851.83,391.7294 873.605,411.2852 893.845,424.7552" fill="none" id="Dataset-to-CatalogRecord" style="stroke:#404040;stroke-width:1.2;"/><polygon fill="#404040" points="898.84,428.0794,893.5637,419.7631,894.6775,425.3092,889.1314,426.423,898.84,428.0794" style="stroke:#404040;stroke-width:1.2;"/><text fill="#000000" font-family="sans-serif" font-size="13" lengthAdjust="spacing" textLength="54.9136" x="868.23" y="387.1045">subjectOf</text><text fill="#000000" font-family="sans-serif" font-size="13" lengthAdjust="spacing" textLength="7.23" x="882.436" y="417.159">1</text></g><!--link CatalogRecord to Dataset--><g class="link" data-entity-1="ent0017" data-entity-2="ent0002" data-link-type="dependency" data-source-line="68" id="lnk42"><path codeLine="68" d="M927.42,428.0394 C940,412.9894 964.01,386.9394 990.23,372.6094 C1170.75,273.9294 1401.9248,229.4187 1546.4948,209.7387" fill="none" id="CatalogRecord-to-Dataset" style="stroke:#404040;stroke-width:1.2;"/><polygon fill="#404040" points="1552.44,208.9294,1542.9827,206.1799,1547.4857,209.6038,1544.0618,214.1068,1552.44,208.9294" style="stroke:#404040;stroke-width:1.2;"/><text fill="#000000" font-family="sans-serif" font-size="13" lengthAdjust="spacing" textLength="32.5317" x="991.23" y="387.1045">about</text><text fill="#000000" font-family="sans-serif" font-size="13" lengthAdjust="spacing" textLength="21.6836" x="1522.9216" y="206.8437">0..1</text></g><!--link Dataset to DefinedTerm--><g class="link" data-entity-1="ent0002" data-entity-2="ent0019" data-link-type="dependency" data-source-line="46" id="lnk20"><path codeLine="46" d="M1552.59,212.1894 C1382.81,237.5294 1099.4,291.0294 1037.23,372.6094 C1016.73,399.5194 1056.7256,417.5868 1092.6656,428.4268" fill="none" id="Dataset-to-DefinedTerm" style="stroke:#404040;stroke-width:1.2;"/><polygon fill="#404040" points="1098.41,430.1594,1090.9485,423.7309,1093.623,428.7155,1088.6383,431.3901,1098.41,430.1594" style="stroke:#404040;stroke-width:1.2;"/><text fill="#000000" font-family="sans-serif" font-size="13" lengthAdjust="spacing" textLength="54.9072" x="1038.23" y="387.1045">keywords</text><text fill="#000000" font-family="sans-serif" font-size="13" lengthAdjust="spacing" textLength="19.5127" x="1071.2902" y="424.5056">0..*</text></g><!--link Dataset to DefinedTerm--><g class="link" data-entity-1="ent0002" data-entity-2="ent0019" data-link-type="dependency" data-source-line="49" id="lnk23"><path codeLine="49" d="M1552.69,218.8994 C1406.67,248.6494 1183.07,304.1194 1133.23,372.6094 C1121.45,388.7994 1124.9515,407.7877 1129.7715,422.2377" fill="none" id="Dataset-to-DefinedTerm-1" style="stroke:#404040;stroke-width:1.2;"/><polygon fill="#404040" points="1131.67,427.9294,1132.6166,418.1261,1130.0879,423.1863,1125.0277,420.6575,1131.67,427.9294" style="stroke:#404040;stroke-width:1.2;"/><text fill="#000000" font-family="sans-serif" font-size="13" lengthAdjust="spacing" textLength="140.188" x="1134.23" y="387.1045">measurementTechnique</text><text fill="#000000" font-family="sans-serif" font-size="13" lengthAdjust="spacing" textLength="19.5127" x="1107.1644" y="417.3325">0..*</text></g><!--link Dataset to DefinedTerm--><g class="link" data-entity-1="ent0002" data-entity-2="ent0019" data-link-type="dependency" data-source-line="71" id="lnk45"><path codeLine="71" d="M1552.48,263.0394 C1474.37,302.6594 1372.34,352.2394 1279.23,390.6094 C1244.17,405.0594 1208.8492,416.9953 1179.7492,426.2253" fill="none" id="Dataset-to-DefinedTerm-2" style="stroke:#404040;stroke-width:1.2;"/><polygon fill="#404040" points="1174.03,428.0394,1183.8182,429.1311,1178.796,426.5277,1181.3995,421.5055,1174.03,428.0394" style="stroke:#404040;stroke-width:1.2;"/><text fill="#000000" font-family="sans-serif" font-size="13" lengthAdjust="spacing" textLength="84.5571" x="1314.23" y="387.1045">additionalType</text><text fill="#000000" font-family="sans-serif" font-size="13" lengthAdjust="spacing" textLength="19.5127" x="1166.7358" y="417.1025">0..*</text></g><!--link Dataset to Reference--><g class="link" data-entity-1="ent0002" data-entity-2="ent0021" data-link-type="dependency" data-source-line="48" id="lnk22"><path codeLine="48" d="M1552.43,258.5494 C1508.89,286.9594 1465.32,324.9594 1441.23,372.6094 C1414.8,424.8994 1513.1364,436.1731 1567.3764,438.6731" fill="none" id="Dataset-to-Reference" style="stroke:#404040;stroke-width:1.2;"/><polygon fill="#404040" points="1573.37,438.9494,1564.5637,434.5392,1568.3753,438.7192,1564.1954,442.5307,1573.37,438.9494" style="stroke:#404040;stroke-width:1.2;"/><text fill="#000000" font-family="sans-serif" font-size="13" lengthAdjust="spacing" textLength="40.4663" x="1442.23" y="387.1045">license</text><text fill="#000000" font-family="sans-serif" font-size="13" lengthAdjust="spacing" textLength="19.5127" x="1546.061" y="434.4787">0..*</text></g><!--link Dataset to Reference--><g class="link" data-entity-1="ent0002" data-entity-2="ent0021" data-link-type="dependency" data-source-line="79" id="lnk53"><path codeLine="79" d="M1552.68,318.4494 C1540.77,335.4894 1530.47,353.6794 1523.23,372.6094 C1512.87,399.7094 1541.0525,416.7777 1568.1125,427.5077" fill="none" id="Dataset-to-Reference-1" style="stroke:#404040;stroke-width:1.2;"/><polygon fill="#404040" points="1573.69,429.7194,1566.7981,422.6836,1569.0421,427.8763,1563.8493,430.1203,1573.69,429.7194" style="stroke:#404040;stroke-width:1.2;"/><text fill="#000000" font-family="sans-serif" font-size="13" lengthAdjust="spacing" textLength="114.1626" x="1524.23" y="387.1045">conditionsOfAccess</text><text fill="#000000" font-family="sans-serif" font-size="13" lengthAdjust="spacing" textLength="19.5127" x="1562.4206" y="417.1304">0..*</text></g><!--link Dataset to Reference--><g class="link" data-entity-1="ent0002" data-entity-2="ent0021" data-link-type="dependency" data-source-line="80" id="lnk54"><path codeLine="80" d="M1660.68,342.7294 C1655.97,359.2494 1650.23,375.5394 1643.23,390.6094 C1636.64,404.8094 1629.2611,414.1881 1620.4411,423.4781" fill="none" id="Dataset-to-Reference-2" style="stroke:#404040;stroke-width:1.2;"/><polygon fill="#404040" points="1616.31,427.8294,1625.4076,424.0565,1619.7526,424.2033,1619.6059,418.5484,1616.31,427.8294" style="stroke:#404040;stroke-width:1.2;"/><text fill="#000000" font-family="sans-serif" font-size="13" lengthAdjust="spacing" textLength="114.8989" x="1651.23" y="387.1045">publishingPrinciples</text><text fill="#000000" font-family="sans-serif" font-size="13" lengthAdjust="spacing" textLength="19.5127" x="1598.3549" y="417.1931">0..*</text></g><!--link Dataset to Reference--><g class="link" data-entity-1="ent0002" data-entity-2="ent0021" data-link-type="dependency" data-source-line="81" id="lnk55"><path codeLine="81" d="M1787.06,342.7994 C1788.77,359.5294 1785.34,375.8494 1774.23,390.6094 C1757.47,412.8794 1684.9557,427.2578 1640.7157,434.2878" fill="none" id="Dataset-to-Reference-3" style="stroke:#404040;stroke-width:1.2;"/><polygon fill="#404040" points="1634.79,435.2294,1644.3062,437.7674,1639.728,434.4447,1643.0507,429.8665,1634.79,435.2294" style="stroke:#404040;stroke-width:1.2;"/><text fill="#000000" font-family="sans-serif" font-size="13" lengthAdjust="spacing" textLength="63.5972" x="1784.23" y="387.1045">relatedLink</text><text fill="#000000" font-family="sans-serif" font-size="13" lengthAdjust="spacing" textLength="19.5127" x="1643.0676" y="429.9915">0..*</text></g><!--reverse link Dataset to VariableMeasured--><g class="link" data-entity-1="ent0002" data-entity-2="ent0024" data-link-type="composition" data-source-line="51" id="lnk25"><path codeLine="51" d="M1820.7269,324.844 C1869.0869,370.154 1908.83,407.3794 1930.9,428.0594" fill="none" id="Dataset-backto-VariableMeasured" style="stroke:#404040;stroke-width:1.2;"/><polygon fill="#404040" points="1811.97,316.6394,1813.6136,323.6607,1820.7269,324.844,1819.0833,317.8227,1811.97,316.6394" style="stroke:#404040;stroke-width:1.2;"/><text fill="#000000" font-family="sans-serif" font-size="13" lengthAdjust="spacing" textLength="103.3335" x="1888.23" y="387.1045">variableMeasured</text><text fill="#000000" font-family="sans-serif" font-size="13" lengthAdjust="spacing" textLength="19.5127" x="1902.9207" y="417.1308">0..*</text></g><!--reverse link Dataset to SpatialExtent--><g class="link" data-entity-1="ent0002" data-entity-2="ent0026" data-link-type="composition" data-source-line="53" id="lnk27"><path codeLine="53" d="M1822.51,267.819 C1881.15,299.469 1940.07,333.1994 2000.23,372.6094 C2027.54,390.4994 2057.39,414.1694 2074.36,428.0594" fill="none" id="Dataset-backto-SpatialExtent" style="stroke:#404040;stroke-width:1.2;"/><polygon fill="#404040" points="1811.95,262.1194,1815.3301,268.4892,1822.51,267.819,1819.1299,261.4492,1811.95,262.1194" style="stroke:#404040;stroke-width:1.2;"/><text fill="#000000" font-family="sans-serif" font-size="13" lengthAdjust="spacing" textLength="93.9453" x="2026.23" y="387.1045">spatialCoverage</text><text fill="#000000" font-family="sans-serif" font-size="13" lengthAdjust="spacing" textLength="19.5127" x="2045.8852" y="417.1308">0..*</text></g><!--reverse link Dataset to TemporalExtent--><g class="link" data-entity-1="ent0002" data-entity-2="ent0028" data-link-type="composition" data-source-line="55" id="lnk29"><path codeLine="55" d="M1823.0718,241.5065 C1914.0818,273.4765 2026.02,317.2294 2128.23,372.6094 C2158.75,389.1494 2191.15,413.7094 2209.12,428.0394" fill="none" id="Dataset-backto-TemporalExtent" style="stroke:#404040;stroke-width:1.2;"/><polygon fill="#404040" points="1811.75,237.5294,1816.0852,243.2919,1823.0718,241.5065,1818.7366,235.744,1811.75,237.5294" style="stroke:#404040;stroke-width:1.2;"/><text fill="#000000" font-family="sans-serif" font-size="13" lengthAdjust="spacing" textLength="106.9453" x="2157.23" y="387.1045">temporalCoverage</text><text fill="#000000" font-family="sans-serif" font-size="13" lengthAdjust="spacing" textLength="19.5127" x="2180.5478" y="417.1025">0..*</text></g><!--reverse link Dataset to QualityMeasure--><g class="link" data-entity-1="ent0002" data-entity-2="ent0030" data-link-type="composition" data-source-line="57" id="lnk31"><path codeLine="57" d="M1823.5021,224.8501 C1945.8921,253.1201 2121.03,300.7594 2272.23,372.6094 C2304.66,388.0194 2338.47,413.1994 2356.99,427.9094" fill="none" id="Dataset-backto-QualityMeasure" style="stroke:#404040;stroke-width:1.2;"/><polygon fill="#404040" points="1811.81,222.1494,1816.7558,227.3971,1823.5021,224.8501,1818.5563,219.6023,1811.81,222.1494" style="stroke:#404040;stroke-width:1.2;"/><text fill="#000000" font-family="sans-serif" font-size="13" lengthAdjust="spacing" textLength="140.8989" x="2305.23" y="387.1045">hasQualityMeasurement</text><text fill="#000000" font-family="sans-serif" font-size="13" lengthAdjust="spacing" textLength="19.5127" x="2328.7364" y="417.3046">0..*</text></g><!--reverse link Dataset to InstanceVariable--><g class="link" data-entity-1="ent0002" data-entity-2="ent0032" data-link-type="composition" data-source-line="59" id="lnk33"><path codeLine="59" d="M1823.6899,211.6913 C1980.8599,233.1313 2239.55,279.1794 2454.23,372.6094 C2487.53,387.0994 2521.57,413.0894 2539.77,428.0794" fill="none" id="Dataset-backto-InstanceVariable" style="stroke:#404040;stroke-width:1.2;"/><polygon fill="#404040" points="1811.8,210.0694,1817.2043,214.8436,1823.6899,211.6913,1818.2856,206.917,1811.8,210.0694" style="stroke:#404040;stroke-width:1.2;"/><text fill="#000000" font-family="sans-serif" font-size="13" lengthAdjust="spacing" textLength="103.3335" x="2487.23" y="387.1045">variableMeasured</text><text fill="#000000" font-family="sans-serif" font-size="13" lengthAdjust="spacing" textLength="19.5127" x="2511.3242" y="417.159">1..*</text></g><!--reverse link Dataset to PrimaryKey--><g class="link" data-entity-1="ent0002" data-entity-2="ent0034" data-link-type="composition" data-source-line="61" id="lnk35"><path codeLine="61" d="M1823.8254,204.7731 C2005.8554,220.5131 2332.8,262.1294 2599.23,372.6094 C2632.78,386.5194 2666.73,412.7194 2684.85,427.9094" fill="none" id="Dataset-backto-PrimaryKey" style="stroke:#404040;stroke-width:1.2;"/><polygon fill="#404040" points="1811.87,203.7394,1817.5031,208.2414,1823.8254,204.7731,1818.1923,200.2711,1811.87,203.7394" style="stroke:#404040;stroke-width:1.2;"/><text fill="#000000" font-family="sans-serif" font-size="13" lengthAdjust="spacing" textLength="88.1372" x="2632.23" y="387.1045">hasPrimaryKey</text><text fill="#000000" font-family="sans-serif" font-size="13" lengthAdjust="spacing" textLength="21.6836" x="2654.5799" y="417.3046">0..1</text></g><!--reverse link Dataset to Statistics--><g class="link" data-entity-1="ent0002" data-entity-2="ent0036" data-link-type="composition" data-source-line="63" id="lnk37"><path codeLine="63" d="M1823.7631,197.126 C2027.5831,204.036 2419.8,235.2694 2729.23,372.6094 C2759.46,386.0294 2788.3,412.6594 2803.37,427.9994" fill="none" id="Dataset-backto-Statistics" style="stroke:#404040;stroke-width:1.2;"/><polygon fill="#404040" points="1811.77,196.7194,1817.631,200.9204,1823.7631,197.126,1817.9021,192.925,1811.77,196.7194" style="stroke:#404040;stroke-width:1.2;"/><text fill="#000000" font-family="sans-serif" font-size="13" lengthAdjust="spacing" textLength="49.8418" x="2761.23" y="387.1045">statistics</text><text fill="#000000" font-family="sans-serif" font-size="13" lengthAdjust="spacing" textLength="19.5127" x="2776.0748" y="417.046">0..*</text></g><!--reverse link Dataset to DataDownload--><g class="link" data-entity-1="ent0002" data-entity-2="ent0038" data-link-type="composition" data-source-line="65" id="lnk39"><path codeLine="65" d="M1823.8327,197.6967 C2039.9427,205.2167 2472.43,237.0594 2819.23,372.6094 C2853.49,385.9994 2887.91,412.6494 2906.08,427.9894" fill="none" id="Dataset-backto-DataDownload" style="stroke:#404040;stroke-width:1.2;"/><polygon fill="#404040" points="1811.84,197.2794,1817.6973,201.4856,1823.8327,197.6967,1817.9755,193.4905,1811.84,197.2794" style="stroke:#404040;stroke-width:1.2;"/><text fill="#000000" font-family="sans-serif" font-size="13" lengthAdjust="spacing" textLength="62.8672" x="2856.23" y="387.1045">distribution</text><text fill="#000000" font-family="sans-serif" font-size="13" lengthAdjust="spacing" textLength="19.5127" x="2877.9014" y="417.0319">0..*</text></g><!--reverse link Dataset to WebAPI--><g class="link" data-entity-1="ent0002" data-entity-2="ent0040" data-link-type="composition" data-source-line="67" id="lnk41"><path codeLine="67" d="M1823.8839,206.9697 C2100.0939,231.2397 2725.63,293.1494 2927.23,372.6094 C2960.51,385.7294 2993.41,412.4794 3010.72,427.9094" fill="none" id="Dataset-backto-WebAPI" style="stroke:#404040;stroke-width:1.2;"/><polygon fill="#404040" points="1811.93,205.9194,1817.5568,210.4292,1823.8839,206.9697,1818.2571,202.4599,1811.93,205.9194" style="stroke:#404040;stroke-width:1.2;"/><text fill="#000000" font-family="sans-serif" font-size="13" lengthAdjust="spacing" textLength="62.8672" x="2963.23" y="387.1045">distribution</text><text fill="#000000" font-family="sans-serif" font-size="13" lengthAdjust="spacing" textLength="19.5127" x="2983.1514" y="417.3046">0..*</text></g><!--link Dataset to Identifier--><g class="link" data-entity-1="ent0002" data-entity-2="ent0043" data-link-type="dependency" data-source-line="70" id="lnk44"><path codeLine="70" d="M1812.07,197.6494 C2056.62,205.5794 2600.02,238.2394 3034.23,372.6094 C3077.44,385.9794 3118.5368,409.4677 3143.1868,424.8177" fill="none" id="Dataset-to-Identifier" style="stroke:#404040;stroke-width:1.2;"/><polygon fill="#404040" points="3148.28,427.9894,3142.7546,419.8365,3144.0357,425.3463,3138.5258,426.6274,3148.28,427.9894" style="stroke:#404040;stroke-width:1.2;"/><text fill="#000000" font-family="sans-serif" font-size="13" lengthAdjust="spacing" textLength="49.1372" x="3081.23" y="387.1045">identifier</text><text fill="#000000" font-family="sans-serif" font-size="13" lengthAdjust="spacing" textLength="7.23" x="3132.4741" y="417.0319">1</text></g><!--link Dataset to Identifier--><g class="link" data-entity-1="ent0002" data-entity-2="ent0043" data-link-type="dependency" data-source-line="72" id="lnk46"><path codeLine="72" d="M1811.76,194.5194 C2128.77,195.5794 2932.83,214.2394 3139.23,372.6094 C3156.74,386.0494 3162.1029,406.7381 3164.2629,422.0681" fill="none" id="Dataset-to-Identifier-1" style="stroke:#404040;stroke-width:1.2;"/><polygon fill="#404040" points="3165.1,428.0094,3167.8052,418.5393,3164.4024,423.0583,3159.8834,419.6555,3165.1,428.0094" style="stroke:#404040;stroke-width:1.2;"/><text fill="#000000" font-family="sans-serif" font-size="13" lengthAdjust="spacing" textLength="46.96" x="3155.23" y="387.1045">sameAs</text><text fill="#000000" font-family="sans-serif" font-size="13" lengthAdjust="spacing" textLength="19.5127" x="3168.6531" y="417.0602">0..*</text></g><!--link Dataset to XsdLanguage--><g class="link" data-entity-1="ent0002" data-entity-2="ent0047" data-link-type="dependency" data-source-line="74" id="lnk48"><path codeLine="74" d="M1811.87,202.0094 C2132.45,220.3794 2954.91,275.7794 3210.23,372.6094 C3238.93,383.4894 3262.6095,400.9504 3280.9495,416.6304" fill="none" id="Dataset-to-XsdLanguage" style="stroke:#404040;stroke-width:1.2;stroke-dasharray:7,7;"/><polygon fill="#404040" points="3285.51,420.5294,3281.2687,411.6406,3281.7096,417.2802,3276.07,417.7212,3285.51,420.5294" style="stroke:#404040;stroke-width:1.2;"/><text fill="#000000" font-family="sans-serif" font-size="13" lengthAdjust="spacing" textLength="67.958" x="3246.23" y="387.1045">inLanguage</text></g><!--link Dataset to XsdDate--><g class="link" data-entity-1="ent0002" data-entity-2="ent0049" data-link-type="dependency" data-source-line="76" id="lnk50"><path codeLine="76" d="M1811.81,200.5994 C2148.91,216.2194 3046.22,266.7994 3322.23,372.6094 C3350.29,383.3694 3373.1274,400.7511 3390.8074,416.4811" fill="none" id="Dataset-to-XsdDate" style="stroke:#404040;stroke-width:1.2;stroke-dasharray:7,7;"/><polygon fill="#404040" points="3395.29,420.4694,3391.2249,411.4986,3391.5545,417.1459,3385.9072,417.4755,3395.29,420.4694" style="stroke:#404040;stroke-width:1.2;"/><text fill="#000000" font-family="sans-serif" font-size="13" lengthAdjust="spacing" textLength="74.439" x="3357.23" y="387.1045">dateModified</text></g><!--link Dataset to XsdAnyUri--><g class="link" data-entity-1="ent0002" data-entity-2="ent0051" data-link-type="dependency" data-source-line="78" id="lnk52"><path codeLine="78" d="M1811.79,199.3494 C2165.69,212.3194 3142.16,257.8094 3440.23,372.6094 C3467.88,383.2594 3490.1416,400.601 3507.3916,416.371" fill="none" id="Dataset-to-XsdAnyUri" style="stroke:#404040;stroke-width:1.2;stroke-dasharray:7,7;"/><polygon fill="#404040" points="3511.82,420.4194,3507.8764,411.3945,3508.1297,417.0457,3502.4785,417.299,3511.82,420.4194" style="stroke:#404040;stroke-width:1.2;"/><text fill="#000000" font-family="sans-serif" font-size="13" lengthAdjust="spacing" textLength="14.4473" x="3473.23" y="387.1045">url</text></g><?plantuml-src ZLPDRzim3BtxLmZfRKE3PHyNeoYGDUbGh4MxBli0XXqKcKcqsb8coScoOVzzb6JPifCuQoyc-VH8YHBp33Sva0arL8D9LZm3mhXYEVXlADPcHmeevg1qef-uM5D52w9ND9DRBfPaGNCDKMIibDpELfmz2T2QZ8Oleo3BAVh-9CJ3hcGk5Jbx_SB-e_EjL1cehlTQ2lEH_mOoUfdyJHBFCQXA7X2gG_dax7fwFRsQkWJFiNnX-8A38YcvQOnle-ysB6W16D16sLrKpWmqKtnjk1HHxCLmwCCqoxYDqNosMzlL4rXm0TaCLE5WpnnC8_LOTxBMqGsUv15-BcwfM9PqQRc_wgos6aX63Tp9p99c7eIRXxf-_7uevpdNgtQuNb-gtFl7OlT9yIYISmP2syoFi005Wa5KDPF2xrtVByQCsTOU1gvzUjpO0-wEyNKEnw1FiDjYn_NHWrIGO_NPBHTFXoZ-9dIEPqYPgIxMOBp40tTNmdsHiwdxIy85EJ-_90ExU501Kh9MSeDNHUrpLVQ4spxDIxjvJtqWq9lf43ubMMJs5SWKK2DLkFTN-1hSCgbSDP7TLqGCGyx6sWEFehEfhbAT_4uAC5JjtYbQdNFBqrT06vYIHOaNIYm3ymEsOSmCtt2pSyIneu-tXKl9bkft843PU_DsLmyBK7m3sRMIXHyOZTt77SCSTUIe-u7BShby18PNsNSazXocnpDket0ObFCVmCpzegcvVX9LpSqJwQsvWQKaFB50MhyXHzcyg1x21fIIQaQSpbi0rQM20k_H3DXAy9ybX1e-KyNfF8SxZ_67rdNkLVJi_3oasiEcPDDnXLmVrzHmcaz_cJ0OMfw-B6qWDiZRLn87ECxaa666Fv5IjLAqNNqvEiYKcChHpVAXf3bUy6fxBalRrPUbWqp9Ykgsp_OffBeHsb1iTpXbbwphF9nkvDBjOO-t1tyY2fm9xo6y-M0UtSve4AFSLXgxxhh1Lcd3cVOjhytUVZSe-zCSZ5XlJEHMv99cjUW8ZZxU5gupzYlkBp0VFzmuLl_PnrSXEapjSHBDyi2G4ZgNPTFbMfhu_ZPAvTZ0kedrL2EkJi-2jcewX6zHU_KKwenKa2iqLaKN5wXtg2Mzl4JjDvw-cRogwOV3onOOQwxLLKHkvL4WTbBfVqWT41iGQR68qYkhG5hfhF-XhQ0fGP5sQXBlwx5JAmu9irDh8W6M_0C0?></g></svg>