<svg xmlns="http://www.w3.org/2000/svg" xmlns:xlink="http://www.w3.org/1999/xlink" contentStyleType="text/css" data-diagram-type="CLASS" height="763px" preserveAspectRatio="none" style="width:1219px;height:763px;background:#FFFFFF;" version="1.1" viewBox="0 0 1219 763" width="1219px" zoomAndPan="magnify"><?plantuml 1.2026.3?><defs/><g><g class="title" data-source-line="1"><text fill="#000000" font-family="sans-serif" font-size="14" font-weight="700" lengthAdjust="spacing" textLength="97.2275" x="557.8149" y="24.5332">DataDownload</text></g><!--class DataDownload--><g class="entity" data-qualified-name="DataDownload" data-source-line="15" id="ent0002"><rect fill="#FEFECE" height="138.75" rx="2.5" ry="2.5" style="stroke:#404040;stroke-width:0.5;" width="252.4336" x="438" y="320.6094"/><text fill="#000000" font-family="sans-serif" font-size="12" lengthAdjust="spacing" textLength="78.7148" x="524.8594" y="338.0664">DataDownload</text><line style="stroke:#404040;stroke-width:0.5;" x1="439" x2="689.4336" y1="345.7031" y2="345.7031"/><g data-visibility-modifier="PUBLIC_FIELD"><ellipse cx="449" cy="360.0078" fill="none" rx="3" ry="3" style="stroke:#038048;stroke-width:1;"/></g><text fill="#000000" font-family="sans-serif" font-size="14" lengthAdjust="spacing" textLength="176.627" x="458" y="364.2363">contentUrl : XsdAnyUri [0..1]</text><g data-visibility-modifier="PUBLIC_FIELD"><ellipse cx="449" cy="377.6172" fill="none" rx="3" ry="3" style="stroke:#038048;stroke-width:1;"/></g><text fill="#000000" font-family="sans-serif" font-size="14" lengthAdjust="spacing" textLength="226.4336" x="458" y="381.8457">encodingFormat : DefinedTerm [0..*]</text><g data-visibility-modifier="PUBLIC_FIELD"><ellipse cx="449" cy="395.2266" fill="none" rx="3" ry="3" style="stroke:#038048;stroke-width:1;"/></g><text fill="#000000" font-family="sans-serif" font-size="14" lengthAdjust="spacing" textLength="154.082" x="458" y="399.4551">contentSize : string [0..1]</text><g data-visibility-modifier="PUBLIC_FIELD"><ellipse cx="449" cy="412.8359" fill="none" rx="3" ry="3" style="stroke:#038048;stroke-width:1;"/></g><text fill="#000000" font-family="sans-serif" font-size="14" lengthAdjust="spacing" textLength="141.6064" x="458" y="417.0645">checksum : string [0..*]</text><g data-visibility-modifier="PUBLIC_FIELD"><ellipse cx="449" cy="430.4453" fill="none" rx="3" ry="3" style="stroke:#038048;stroke-width:1;"/></g><text fill="#000000" font-family="sans-serif" font-size="14" lengthAdjust="spacing" textLength="184.3926" x="458" y="434.6738">conformsTo : XsdAnyUri [0..*]</text><g data-visibility-modifier="PUBLIC_FIELD"><ellipse cx="449" cy="448.0547" fill="none" rx="3" ry="3" style="stroke:#038048;stroke-width:1;"/></g><text fill="#000000" font-family="sans-serif" font-size="14" lengthAdjust="spacing" textLength="160.2959" x="458" y="452.2832">characterSet : string [0..1]</text></g><!--class AbstractDistribution--><g class="entity" data-qualified-name="AbstractDistribution" data-source-line="23" id="ent0003"><rect fill="#D6EAF8" height="25.0938" rx="2.5" ry="2.5" style="stroke:#404040;stroke-width:0.5;" width="110.0391" x="460" y="45.6094"/><text fill="#000000" font-family="sans-serif" font-size="12" font-style="italic" lengthAdjust="spacing" textLength="104.0391" x="463" y="63.0664">AbstractDistribution</text></g><!--class Dataset--><g class="entity" data-qualified-name="Dataset" data-source-line="25" id="ent0005"><rect fill="#EEEEEE" height="25.0938" rx="2.5" ry="2.5" style="stroke:#404040;stroke-width:0.5;" width="47.3555" x="590.5" y="45.6094"/><text fill="#000000" font-family="sans-serif" font-size="12" lengthAdjust="spacing" textLength="41.3555" x="593.5" y="63.0664">Dataset</text></g><!--class Agent--><g class="entity" data-qualified-name="Agent" data-source-line="27" id="ent0007"><rect fill="#EEEEEE" height="25.0938" rx="2.5" ry="2.5" style="stroke:#404040;stroke-width:0.5;" width="37.3594" x="21.5" y="717.1094"/><text fill="#000000" font-family="sans-serif" font-size="12" font-style="italic" lengthAdjust="spacing" textLength="31.3594" x="24.5" y="734.5664">Agent</text></g><!--class AbstractMapping--><g class="entity" data-qualified-name="AbstractMapping" data-source-line="29" id="ent0009"><rect fill="#EEEEEE" height="25.0938" rx="2.5" ry="2.5" style="stroke:#404040;stroke-width:0.5;" width="96.0469" x="79" y="717.1094"/><text fill="#000000" font-family="sans-serif" font-size="12" font-style="italic" lengthAdjust="spacing" textLength="90.0469" x="82" y="734.5664">AbstractMapping</text></g><!--class AbstractDataSet--><g class="entity" data-qualified-name="AbstractDataSet" data-source-line="31" id="ent0011"><rect fill="#EEEEEE" height="25.0938" rx="2.5" ry="2.5" style="stroke:#404040;stroke-width:0.5;" width="93.375" x="195.5" y="717.1094"/><text fill="#000000" font-family="sans-serif" font-size="12" font-style="italic" lengthAdjust="spacing" textLength="87.375" x="198.5" y="734.5664">AbstractDataSet</text></g><!--class DataFingerprint--><g class="entity" data-qualified-name="DataFingerprint" data-source-line="33" id="ent0013"><rect fill="#EEEEEE" height="25.0938" rx="2.5" ry="2.5" style="stroke:#404040;stroke-width:0.5;" width="88.7051" x="308.5" y="717.1094"/><text fill="#000000" font-family="sans-serif" font-size="12" lengthAdjust="spacing" textLength="82.7051" x="311.5" y="734.5664">DataFingerprint</text></g><!--class CatalogRecord--><g class="entity" data-qualified-name="CatalogRecord" data-source-line="35" id="ent0015"><rect fill="#EEEEEE" height="25.0938" rx="2.5" ry="2.5" style="stroke:#404040;stroke-width:0.5;" width="86.0449" x="418" y="717.1094"/><text fill="#000000" font-family="sans-serif" font-size="12" lengthAdjust="spacing" textLength="80.0449" x="421" y="734.5664">CatalogRecord</text></g><!--class DataStructure--><g class="entity" data-qualified-name="DataStructure" data-source-line="37" id="ent0017"><rect fill="#EEEEEE" height="25.0938" rx="2.5" ry="2.5" style="stroke:#404040;stroke-width:0.5;" width="80.0332" x="524" y="717.1094"/><text fill="#000000" font-family="sans-serif" font-size="12" lengthAdjust="spacing" textLength="74.0332" x="527" y="734.5664">DataStructure</text></g><!--class DimensionalDataStructure--><g class="entity" data-qualified-name="DimensionalDataStructure" data-source-line="39" id="ent0019"><rect fill="#EEEEEE" height="25.0938" rx="2.5" ry="2.5" style="stroke:#404040;stroke-width:0.5;" width="146.0625" x="624" y="717.1094"/><text fill="#000000" font-family="sans-serif" font-size="12" lengthAdjust="spacing" textLength="140.0625" x="627" y="734.5664">DimensionalDataStructure</text></g><!--class LongDataStructure--><g class="entity" data-qualified-name="LongDataStructure" data-source-line="41" id="ent0021"><rect fill="#EEEEEE" height="25.0938" rx="2.5" ry="2.5" style="stroke:#404040;stroke-width:0.5;" width="106.7285" x="790.5" y="717.1094"/><text fill="#000000" font-family="sans-serif" font-size="12" lengthAdjust="spacing" textLength="100.7285" x="793.5" y="734.5664">LongDataStructure</text></g><!--class WideDataStructure--><g class="entity" data-qualified-name="WideDataStructure" data-source-line="43" id="ent0023"><rect fill="#EEEEEE" height="25.0938" rx="2.5" ry="2.5" style="stroke:#404040;stroke-width:0.5;" width="107.373" x="917.5" y="717.1094"/><text fill="#000000" font-family="sans-serif" font-size="12" lengthAdjust="spacing" textLength="101.373" x="920.5" y="734.5664">WideDataStructure</text></g><!--class XsdAnyUri--><g class="entity" data-qualified-name="XsdAnyUri" data-source-line="45" id="ent0025"><rect fill="#FAE5D3" height="40.1875" rx="2.5" ry="2.5" style="stroke:#404040;stroke-width:0.5;" width="65.3809" x="1044.5" y="709.6094"/><text fill="#000000" font-family="sans-serif" font-size="12" font-style="italic" lengthAdjust="spacing" textLength="63.3809" x="1045.5" y="727.0664">&#171;dataType&#187;</text><text fill="#000000" font-family="sans-serif" font-size="12" lengthAdjust="spacing" textLength="56.6836" x="1048.8486" y="742.1602">XsdAnyUri</text></g><!--class DefinedTerm--><g class="entity" data-qualified-name="DefinedTerm" data-source-line="47" id="ent0027"><rect fill="#EEEEEE" height="25.0938" rx="2.5" ry="2.5" style="stroke:#404040;stroke-width:0.5;" width="75.3574" x="1129.5" y="717.1094"/><text fill="#000000" font-family="sans-serif" font-size="12" lengthAdjust="spacing" textLength="69.3574" x="1132.5" y="734.5664">DefinedTerm</text></g><!--reverse link AbstractDistribution to DataDownload--><g class="link" data-entity-1="ent0003" data-entity-2="ent0002" data-link-type="extension" data-source-line="24" id="lnk4"><path codeLine="24" d="M515,88.7194 C515,129.1094 515,239.3694 515,320.5394" fill="none" id="AbstractDistribution-backto-DataDownload" style="stroke:#404040;stroke-width:1.2;"/><polygon fill="none" points="515,70.7194,509,88.7194,521,88.7194,515,70.7194" style="stroke:#404040;stroke-width:1.2;"/></g><!--reverse link Dataset to DataDownload--><g class="link" data-entity-1="ent0005" data-entity-2="ent0002" data-link-type="composition" data-source-line="26" id="lnk6"><path codeLine="26" d="M614,82.7194 C614,123.1094 614,239.3694 614,320.5394" fill="none" id="Dataset-backto-DataDownload" style="stroke:#404040;stroke-width:1.2;"/><polygon fill="#404040" points="614,70.7194,610,76.7194,614,82.7194,618,76.7194,614,70.7194" style="stroke:#404040;stroke-width:1.2;"/><text fill="#000000" font-family="sans-serif" font-size="13" lengthAdjust="spacing" textLength="62.8672" x="551" y="192.1245">distribution</text><text fill="#000000" font-family="sans-serif" font-size="13" lengthAdjust="spacing" textLength="19.5127" x="599.434" y="309.5832">0..*</text></g><!--link DataDownload to Agent--><g class="link" data-entity-1="ent0002" data-entity-2="ent0007" data-link-type="dependency" data-source-line="28" id="lnk8"><path codeLine="28" d="M437.82,348.6094 C282.77,348.6094 40,348.6094 40,348.6094 C40,348.6094 40,644.8194 40,710.9294" fill="none" id="DataDownload-to-Agent" style="stroke:#404040;stroke-width:1.2;"/><polygon fill="#404040" points="40,716.9294,44,707.9294,40,711.9294,36,707.9294,40,716.9294" style="stroke:#404040;stroke-width:1.2;"/><text fill="#000000" font-family="sans-serif" font-size="13" lengthAdjust="spacing" textLength="46.9663" x="7.75" y="345.1045">provider</text><text fill="#000000" font-family="sans-serif" font-size="13" lengthAdjust="spacing" textLength="19.5127" x="17.2896" y="706.3325">0..*</text></g><!--reverse link DataDownload to AbstractMapping--><g class="link" data-entity-1="ent0002" data-entity-2="ent0009" data-link-type="composition" data-source-line="30" id="lnk10"><path codeLine="30" d="M425.89,376.6094 C296.81,376.6094 127,376.6094 127,376.6094 C127,376.6094 127,654.1594 127,717.0494" fill="none" id="DataDownload-backto-AbstractMapping" style="stroke:#404040;stroke-width:1.2;"/><polygon fill="#404040" points="437.89,376.6094,431.89,372.6094,425.89,376.6094,431.89,380.6094,437.89,376.6094" style="stroke:#404040;stroke-width:1.2;"/><text fill="#000000" font-family="sans-serif" font-size="13" lengthAdjust="spacing" textLength="119.2344" x="7" y="387.8745">hasPhysicalMapping</text><text fill="#000000" font-family="sans-serif" font-size="13" lengthAdjust="spacing" textLength="19.5127" x="104.1773" y="706.1167">0..*</text></g><!--reverse link DataDownload to AbstractDataSet--><g class="link" data-entity-1="ent0002" data-entity-2="ent0011" data-link-type="aggregation" data-source-line="32" id="lnk12"><path codeLine="32" d="M425.66,404.6094 C335.45,404.6094 242,404.6094 242,404.6094 C242,404.6094 242,656.7794 242,716.8694" fill="none" id="DataDownload-backto-AbstractDataSet" style="stroke:#404040;stroke-width:1.2;"/><polygon fill="none" points="437.66,404.6094,431.66,400.6094,425.66,404.6094,431.66,408.6094,437.66,404.6094" style="stroke:#404040;stroke-width:1.2;"/><text fill="#000000" font-family="sans-serif" font-size="13" lengthAdjust="spacing" textLength="75.1499" x="166" y="459.4045">alsoTypedAs</text><text fill="#000000" font-family="sans-serif" font-size="13" lengthAdjust="spacing" textLength="21.6836" x="216.9264" y="706.2489">0..1</text></g><!--reverse link DataDownload to DataFingerprint--><g class="link" data-entity-1="ent0002" data-entity-2="ent0013" data-link-type="composition" data-source-line="34" id="lnk14"><path codeLine="34" d="M425.91,432.6094 C380.85,432.6094 353,432.6094 353,432.6094 C353,432.6094 353,659.9994 353,716.8494" fill="none" id="DataDownload-backto-DataFingerprint" style="stroke:#404040;stroke-width:1.2;"/><polygon fill="#404040" points="437.91,432.6094,431.91,428.6094,425.91,432.6094,431.91,436.6094,437.91,432.6094" style="stroke:#404040;stroke-width:1.2;"/><text fill="#000000" font-family="sans-serif" font-size="13" lengthAdjust="spacing" textLength="57.8081" x="295" y="528.7645">fingerprint</text><text fill="#000000" font-family="sans-serif" font-size="13" lengthAdjust="spacing" textLength="21.6836" x="328.0583" y="706.221">0..1</text></g><!--link DataDownload to CatalogRecord--><g class="link" data-entity-1="ent0002" data-entity-2="ent0015" data-link-type="dependency" data-source-line="36" id="lnk16"><path codeLine="36" d="M471,459.6294 C471,542.6594 471,669.5294 471,710.8994" fill="none" id="DataDownload-to-CatalogRecord" style="stroke:#404040;stroke-width:1.2;"/><polygon fill="#404040" points="471,716.8994,475,707.8994,471,711.8994,467,707.8994,471,716.8994" style="stroke:#404040;stroke-width:1.2;"/><text fill="#000000" font-family="sans-serif" font-size="13" lengthAdjust="spacing" textLength="54.9136" x="416" y="584.7645">subjectOf</text><text fill="#000000" font-family="sans-serif" font-size="13" lengthAdjust="spacing" textLength="21.6836" x="449.9289" y="706.2907">0..1</text></g><!--link DataDownload to DataStructure--><g class="link" data-entity-1="ent0002" data-entity-2="ent0017" data-link-type="dependency" data-source-line="38" id="lnk18"><path codeLine="38" d="M564,459.6294 C564,542.6594 564,669.5294 564,710.8994" fill="none" id="DataDownload-to-DataStructure" style="stroke:#404040;stroke-width:1.2;"/><polygon fill="#404040" points="564,716.8994,568,707.8994,564,711.8994,560,707.8994,564,716.8994" style="stroke:#404040;stroke-width:1.2;"/><text fill="#000000" font-family="sans-serif" font-size="13" lengthAdjust="spacing" textLength="84.5317" x="479" y="584.7645">isStructuredBy</text><text fill="#000000" font-family="sans-serif" font-size="13" lengthAdjust="spacing" textLength="21.6836" x="538.9937" y="706.2907">0..1</text></g><!--link DataDownload to DimensionalDataStructure--><g class="link" data-entity-1="ent0002" data-entity-2="ent0019" data-link-type="dependency" data-source-line="40" id="lnk20"><path codeLine="40" d="M646,459.6294 C646,542.6594 646,669.5294 646,710.8994" fill="none" id="DataDownload-to-DimensionalDataStructure" style="stroke:#404040;stroke-width:1.2;"/><polygon fill="#404040" points="646,716.8994,650,707.8994,646,711.8994,642,707.8994,646,716.8994" style="stroke:#404040;stroke-width:1.2;"/><text fill="#000000" font-family="sans-serif" font-size="13" lengthAdjust="spacing" textLength="84.5317" x="561" y="602.7645">isStructuredBy</text><text fill="#000000" font-family="sans-serif" font-size="13" lengthAdjust="spacing" textLength="21.6836" x="600.9067" y="706.2907">0..1</text></g><!--link DataDownload to LongDataStructure--><g class="link" data-entity-1="ent0002" data-entity-2="ent0021" data-link-type="dependency" data-source-line="42" id="lnk22"><path codeLine="42" d="M690.08,425.6094 C764.39,425.6094 844,425.6094 844,425.6094 C844,425.6094 844,653.3994 844,710.9294" fill="none" id="DataDownload-to-LongDataStructure" style="stroke:#404040;stroke-width:1.2;"/><polygon fill="#404040" points="844,716.9294,848,707.9294,844,711.9294,840,707.9294,844,716.9294" style="stroke:#404040;stroke-width:1.2;"/><text fill="#000000" font-family="sans-serif" font-size="13" lengthAdjust="spacing" textLength="84.5317" x="759" y="490.8045">isStructuredBy</text><text fill="#000000" font-family="sans-serif" font-size="13" lengthAdjust="spacing" textLength="21.6836" x="819.0537" y="706.3325">0..1</text></g><!--link DataDownload to WideDataStructure--><g class="link" data-entity-1="ent0002" data-entity-2="ent0023" data-link-type="dependency" data-source-line="44" id="lnk24"><path codeLine="44" d="M690.27,390.6094 C809.77,390.6094 971,390.6094 971,390.6094 C971,390.6094 971,648.8094 971,710.7294" fill="none" id="DataDownload-to-WideDataStructure" style="stroke:#404040;stroke-width:1.2;"/><polygon fill="#404040" points="971,716.7294,975,707.7294,971,711.7294,967,707.7294,971,716.7294" style="stroke:#404040;stroke-width:1.2;"/><text fill="#000000" font-family="sans-serif" font-size="13" lengthAdjust="spacing" textLength="84.5317" x="886" y="409.8045">isStructuredBy</text><text fill="#000000" font-family="sans-serif" font-size="13" lengthAdjust="spacing" textLength="21.6836" x="946.0561" y="706.3131">0..1</text></g><!--link DataDownload to XsdAnyUri--><g class="link" data-entity-1="ent0002" data-entity-2="ent0025" data-link-type="dependency" data-source-line="46" id="lnk26"><path codeLine="46" d="M668,459.9094 C668,555.0094 668,713.6094 668,713.6094 C668,713.6094 941.17,713.6094 1038.22,713.6094" fill="none" id="DataDownload-to-XsdAnyUri" style="stroke:#404040;stroke-width:1.2;stroke-dasharray:7,7;"/><polygon fill="#404040" points="1044.22,713.6094,1035.22,709.6094,1039.22,713.6094,1035.22,717.6094,1044.22,713.6094" style="stroke:#404040;stroke-width:1.2;"/><text fill="#000000" font-family="sans-serif" font-size="13" lengthAdjust="spacing" textLength="59.249" x="669.26" y="710.1045">contentUrl</text></g><!--link DataDownload to DefinedTerm--><g class="link" data-entity-1="ent0002" data-entity-2="ent0027" data-link-type="dependency" data-source-line="48" id="lnk28"><path codeLine="48" d="M690.04,355.6094 C866.81,355.6094 1167,355.6094 1167,355.6094 C1167,355.6094 1167,644.9694 1167,710.7394" fill="none" id="DataDownload-to-DefinedTerm" style="stroke:#404040;stroke-width:1.2;"/><polygon fill="#404040" points="1167,716.7394,1171,707.7394,1167,711.7394,1163,707.7394,1167,716.7394" style="stroke:#404040;stroke-width:1.2;"/><text fill="#000000" font-family="sans-serif" font-size="13" lengthAdjust="spacing" textLength="93.939" x="1015.08" y="352.1045">encodingFormat</text><text fill="#000000" font-family="sans-serif" font-size="13" lengthAdjust="spacing" textLength="19.5127" x="1144.4077" y="706.327">0..*</text></g><?plantuml-src XLHDZzem4BtdLup2RIiGq6vLHGY9vUFKgbLXrKhL7emp49V4ZcpJ5Mttl-_aWyGXP85B_ERDFC-pFLRO6671B5kePnah5dgH216uq3p6uXkJr9uWmMIBsdZc86JAD4l0H2nKpqBkOSTYWqvafhLwtaI27oGQ0wF1s0bg9Wy6KnZV3nrKgX1pr0LZ8T6UKWIbRQIS08yPrVtdGI4rLx7IqFimpFu4FYWTehv4LqhQjVYBC1fxBvvNrF3TtdrWfc46z5RBrNA-pANUSIg0qZxg60BuQSAPF3rg0R-6Wy7eAIEWv2eaGrPA9ymIQO4xQY7Se4vosjsJKoVVIm36wip3kWgFa1_CCMd6gjGT5JSRrTf2IOZ886vHhz6sYhzuR4i8nKi7_LcvNeYCkJrQeMJkmhK0z1OVbxFL9-zgSFA_ts_U9CTXWxOobxwXjyn_tdbzHxb-reJVz3-0qD5eRtzFFXRxpRuQPQiQ_VxqNBjW1P1gzOUkjkxqumjBKpAkOKM9NHTn6hZa1n0nyoqw6S5PN8BT1q55rwLP5zXrOLKAZ_mMFm1wbsf33oYS6VSqLhG3r2bTZVfK7Epj3aT-Yn_0hbwTXUP4YjN-Et9wZRbC0tdxh4YaoQQhVDp-Hcw_xjnErbOVkJrghFgea9i2JNO0mbIhyE5KgOW4fQ7Bn-8hWXt1szfTYLtR-ApalgtVGcyAjpEw57_G0sahjj2RYksCBiLgdkLAzNIRJ4BAp-xnT4eJURQyNxnloWq6KuSVG3sfgsEi9t5nSivalZKrN6u0pI7llG80?></g></svg>