<svg xmlns="http://www.w3.org/2000/svg" xmlns:xlink="http://www.w3.org/1999/xlink" contentStyleType="text/css" data-diagram-type="CLASS" height="331px" preserveAspectRatio="none" style="width:778px;height:331px;background:#FFFFFF;" version="1.1" viewBox="0 0 778 331" width="778px" zoomAndPan="magnify"><?plantuml 1.2026.3?><defs/><g><g class="title" data-source-line="1"><text fill="#000000" font-family="sans-serif" font-size="14" font-weight="700" lengthAdjust="spacing" textLength="77.8271" x="346.769" y="24.5332">PrimaryKey</text></g><!--class PrimaryKey--><g class="entity" data-qualified-name="PrimaryKey" data-source-line="12" id="ent0002"><rect fill="#FEFECE" height="50.7031" rx="2.5" ry="2.5" style="stroke:#404040;stroke-width:0.5;" width="191.7373" x="284.5" y="148.6094"/><text fill="#000000" font-family="sans-serif" font-size="12" lengthAdjust="spacing" textLength="62.0098" x="349.3638" y="166.0664">PrimaryKey</text><line style="stroke:#404040;stroke-width:0.5;" x1="285.5" x2="475.2373" y1="173.7031" y2="173.7031"/><g data-visibility-modifier="PUBLIC_FIELD"><ellipse cx="295.5" cy="188.0078" fill="none" rx="3" ry="3" style="stroke:#038048;stroke-width:1;"/></g><text fill="#000000" font-family="sans-serif" font-size="14" lengthAdjust="spacing" textLength="165.7373" x="304.5" y="192.2363">identifier : XsdAnyUri [0..1]</text></g><!--class Dataset--><g class="entity" data-qualified-name="Dataset" data-source-line="15" id="ent0003"><rect fill="#EEEEEE" height="25.0938" rx="2.5" ry="2.5" style="stroke:#404040;stroke-width:0.5;" width="47.3555" x="7" y="45.6094"/><text fill="#000000" font-family="sans-serif" font-size="12" lengthAdjust="spacing" textLength="41.3555" x="10" y="63.0664">Dataset</text></g><!--class RepresentedVariable--><g class="entity" data-qualified-name="RepresentedVariable" data-source-line="17" id="ent0005"><rect fill="#EEEEEE" height="25.0938" rx="2.5" ry="2.5" style="stroke:#404040;stroke-width:0.5;" width="118.7402" x="258" y="285.1094"/><text fill="#000000" font-family="sans-serif" font-size="12" lengthAdjust="spacing" textLength="112.7402" x="261" y="302.5664">RepresentedVariable</text></g><!--class DataStructure--><g class="entity" data-qualified-name="DataStructure" data-source-line="19" id="ent0007"><rect fill="#EEEEEE" height="25.0938" rx="2.5" ry="2.5" style="stroke:#404040;stroke-width:0.5;" width="80.0332" x="111.5" y="45.6094"/><text fill="#000000" font-family="sans-serif" font-size="12" lengthAdjust="spacing" textLength="74.0332" x="114.5" y="63.0664">DataStructure</text></g><!--class DimensionalDataStructure--><g class="entity" data-qualified-name="DimensionalDataStructure" data-source-line="21" id="ent0009"><rect fill="#EEEEEE" height="25.0938" rx="2.5" ry="2.5" style="stroke:#404040;stroke-width:0.5;" width="146.0625" x="226.5" y="45.6094"/><text fill="#000000" font-family="sans-serif" font-size="12" lengthAdjust="spacing" textLength="140.0625" x="229.5" y="63.0664">DimensionalDataStructure</text></g><!--class LongDataStructure--><g class="entity" data-qualified-name="LongDataStructure" data-source-line="23" id="ent0011"><rect fill="#EEEEEE" height="25.0938" rx="2.5" ry="2.5" style="stroke:#404040;stroke-width:0.5;" width="106.7285" x="408" y="45.6094"/><text fill="#000000" font-family="sans-serif" font-size="12" lengthAdjust="spacing" textLength="100.7285" x="411" y="63.0664">LongDataStructure</text></g><!--class WideDataStructure--><g class="entity" data-qualified-name="WideDataStructure" data-source-line="25" id="ent0013"><rect fill="#EEEEEE" height="25.0938" rx="2.5" ry="2.5" style="stroke:#404040;stroke-width:0.5;" width="107.373" x="550" y="45.6094"/><text fill="#000000" font-family="sans-serif" font-size="12" lengthAdjust="spacing" textLength="101.373" x="553" y="63.0664">WideDataStructure</text></g><!--class ForeignKey--><g class="entity" data-qualified-name="ForeignKey" data-source-line="27" id="ent0015"><rect fill="#EEEEEE" height="25.0938" rx="2.5" ry="2.5" style="stroke:#404040;stroke-width:0.5;" width="67.3652" x="696" y="45.6094"/><text fill="#000000" font-family="sans-serif" font-size="12" lengthAdjust="spacing" textLength="61.3652" x="699" y="63.0664">ForeignKey</text></g><!--class XsdAnyUri--><g class="entity" data-qualified-name="XsdAnyUri" data-source-line="29" id="ent0017"><rect fill="#FAE5D3" height="40.1875" rx="2.5" ry="2.5" style="stroke:#404040;stroke-width:0.5;" width="65.3809" x="412" y="277.6094"/><text fill="#000000" font-family="sans-serif" font-size="12" font-style="italic" lengthAdjust="spacing" textLength="63.3809" x="413" y="295.0664">&#171;dataType&#187;</text><text fill="#000000" font-family="sans-serif" font-size="12" lengthAdjust="spacing" textLength="56.6836" x="416.3486" y="310.1602">XsdAnyUri</text></g><!--reverse link Dataset to PrimaryKey--><g class="link" data-entity-1="ent0003" data-entity-2="ent0002" data-link-type="composition" data-source-line="16" id="lnk4"><path codeLine="16" d="M47.6847,79.9131 C59.4147,93.6431 73.02,106.9294 96.5,118.6094 C154.94,147.6794 227.26,161.2794 284.3,167.6294" fill="none" id="Dataset-backto-PrimaryKey" style="stroke:#404040;stroke-width:1.2;"/><polygon fill="#404040" points="39.89,70.7894,40.7461,77.9495,47.6847,79.9131,46.8286,72.753,39.89,70.7894" style="stroke:#404040;stroke-width:1.2;"/><text fill="#000000" font-family="sans-serif" font-size="13" lengthAdjust="spacing" textLength="88.1372" x="97.5" y="115.1045">hasPrimaryKey</text><text fill="#000000" font-family="sans-serif" font-size="13" lengthAdjust="spacing" textLength="21.6836" x="254.835" y="163.9965">0..1</text></g><!--link PrimaryKey to RepresentedVariable--><g class="link" data-entity-1="ent0002" data-entity-2="ent0005" data-link-type="dependency" data-source-line="18" id="lnk6"><path codeLine="18" d="M339.39,199.7094 C329.4,207.8694 320.01,217.9094 314.5,229.6094 C306.06,247.5194 308.6145,265.3918 312.3145,279.2718" fill="none" id="PrimaryKey-to-RepresentedVariable" style="stroke:#404040;stroke-width:1.2;"/><polygon fill="#404040" points="313.86,285.0694,315.4068,275.3427,312.5721,280.2381,307.6768,277.4034,313.86,285.0694" style="stroke:#404040;stroke-width:1.2;"/><text fill="#000000" font-family="sans-serif" font-size="13" lengthAdjust="spacing" textLength="85.979" x="315.5" y="244.1045">isComposedOf</text><text fill="#000000" font-family="sans-serif" font-size="13" lengthAdjust="spacing" textLength="19.5127" x="289.5991" y="274.1449">1..*</text></g><!--reverse link DataStructure to PrimaryKey--><g class="link" data-entity-1="ent0007" data-entity-2="ent0002" data-link-type="composition" data-source-line="20" id="lnk8"><path codeLine="20" d="M170.2417,79.422 C182.7717,92.652 196.66,105.4594 219.5,118.6094 C240.47,130.6894 264.52,140.6194 287.53,148.5394" fill="none" id="DataStructure-backto-PrimaryKey" style="stroke:#404040;stroke-width:1.2;"/><polygon fill="#404040" points="161.99,70.7094,163.2116,77.8162,170.2417,79.422,169.02,72.3151,161.99,70.7094" style="stroke:#404040;stroke-width:1.2;"/><text fill="#000000" font-family="sans-serif" font-size="13" lengthAdjust="spacing" textLength="88.1372" x="220.5" y="115.1045">hasPrimaryKey</text><text fill="#000000" font-family="sans-serif" font-size="13" lengthAdjust="spacing" textLength="21.6836" x="254.621" y="142.1904">0..1</text></g><!--reverse link DimensionalDataStructure to PrimaryKey--><g class="link" data-entity-1="ent0009" data-entity-2="ent0002" data-link-type="composition" data-source-line="22" id="lnk10"><path codeLine="22" d="M308.3437,81.7843 C313.3337,94.2043 317.74,103.1394 328.5,118.6094 C335.82,129.1294 345.15,139.5794 353.89,148.4794" fill="none" id="DimensionalDataStructure-backto-PrimaryKey" style="stroke:#404040;stroke-width:1.2;"/><polygon fill="#404040" points="303.87,70.6494,302.3952,77.7081,308.3437,81.7843,309.8185,74.7256,303.87,70.6494" style="stroke:#404040;stroke-width:1.2;"/><text fill="#000000" font-family="sans-serif" font-size="13" lengthAdjust="spacing" textLength="88.1372" x="329.5" y="115.1045">hasPrimaryKey</text><text fill="#000000" font-family="sans-serif" font-size="13" lengthAdjust="spacing" textLength="21.6836" x="323.9598" y="137.8562">0..1</text></g><!--reverse link LongDataStructure to PrimaryKey--><g class="link" data-entity-1="ent0011" data-entity-2="ent0002" data-link-type="composition" data-source-line="24" id="lnk12"><path codeLine="24" d="M447.8809,80.8408 C440.2409,92.9608 434.1,102.3094 422.5,118.6094 C415.44,128.5394 407.33,139.2094 400.14,148.4494" fill="none" id="LongDataStructure-backto-PrimaryKey" style="stroke:#404040;stroke-width:1.2;"/><polygon fill="#404040" points="454.28,70.6894,447.6966,73.6321,447.8809,80.8408,454.4643,77.8981,454.28,70.6894" style="stroke:#404040;stroke-width:1.2;"/><text fill="#000000" font-family="sans-serif" font-size="13" lengthAdjust="spacing" textLength="88.1372" x="435.5" y="115.1045">hasPrimaryKey</text><text fill="#000000" font-family="sans-serif" font-size="13" lengthAdjust="spacing" textLength="21.6836" x="381.4832" y="137.8189">0..1</text></g><!--reverse link WideDataStructure to PrimaryKey--><g class="link" data-entity-1="ent0013" data-entity-2="ent0002" data-link-type="composition" data-source-line="26" id="lnk14"><path codeLine="26" d="M583.4095,79.5193 C570.1195,92.6993 555.66,105.3194 532.5,118.6094 C511.83,130.4694 488.13,140.4594 465.69,148.5194" fill="none" id="WideDataStructure-backto-PrimaryKey" style="stroke:#404040;stroke-width:1.2;"/><polygon fill="#404040" points="591.93,71.0694,584.8531,72.4542,583.4095,79.5193,590.4864,78.1345,591.93,71.0694" style="stroke:#404040;stroke-width:1.2;"/><text fill="#000000" font-family="sans-serif" font-size="13" lengthAdjust="spacing" textLength="88.1372" x="558.5" y="115.1045">hasPrimaryKey</text><text fill="#000000" font-family="sans-serif" font-size="13" lengthAdjust="spacing" textLength="21.6836" x="463.011" y="137.906">0..1</text></g><!--link ForeignKey to PrimaryKey--><g class="link" data-entity-1="ent0015" data-entity-2="ent0002" data-link-type="dependency" data-source-line="28" id="lnk16"><path codeLine="28" d="M718.66,70.7294 C705.2,84.4094 680.9,106.7594 655.5,118.6094 C599.37,144.7894 537.05,157.6361 482.57,164.7161" fill="none" id="ForeignKey-to-PrimaryKey" style="stroke:#404040;stroke-width:1.2;"/><polygon fill="#404040" points="476.62,165.4894,486.0604,168.2962,481.5783,164.845,485.0295,160.3629,476.62,165.4894" style="stroke:#404040;stroke-width:1.2;"/><text fill="#000000" font-family="sans-serif" font-size="13" lengthAdjust="spacing" textLength="61.4199" x="684.5" y="115.1045">references</text><text fill="#000000" font-family="sans-serif" font-size="13" lengthAdjust="spacing" textLength="21.6836" x="484.15" y="161.8387">0..1</text></g><!--link PrimaryKey to XsdAnyUri--><g class="link" data-entity-1="ent0002" data-entity-2="ent0017" data-link-type="dependency" data-source-line="30" id="lnk18"><path codeLine="30" d="M393.45,199.6994 C405.5,222.5794 420.4352,250.91 431.5052,271.94" fill="none" id="PrimaryKey-to-XsdAnyUri" style="stroke:#404040;stroke-width:1.2;stroke-dasharray:7,7;"/><polygon fill="#404040" points="434.3,277.2494,433.6474,267.4222,431.971,272.8249,426.5683,271.1486,434.3,277.2494" style="stroke:#404040;stroke-width:1.2;"/><text fill="#000000" font-family="sans-serif" font-size="13" lengthAdjust="spacing" textLength="49.1372" x="418.5" y="244.1045">identifier</text></g><?plantuml-src bPDDRy8m38Rl_HLMkJ6r0hPT4Ah4e5msQTDW7zAqGsWDHBH9vGIXRjf_NoZGPcivjBaahvFtiIjRSvqWF15F6UNtc3iR7YD4dA84ZtjCCvr3YkaIIJbgoqN6YAMWDYoMUoxMi6A9GYio9fBxnOP7Mu5AGTyVMC4eOKRxTk1uRI8JIT2vwHsM4UyanKZ_rPaKUiw_4Fe3vyTnZXvkbRKBJ5b5G6SMpi99M62kJ152ynL7WY6ygtWiyXVYyD7p_VwdiJkvJPbc2dLXTTf39om-vtpkUXwuXtUkJHl2XYdh5vuCdp4ZL8QDyIiZpfO95kODUWcoN3ql0BVl-rstySKGk9h8D9CAuyULNSHSqoxIEyAob5BvKr2bjYfhobCKYal1aWRQXM05ldIXLGuFKgphy9fQKkkHLhWtqq9rN4qjSVL8AznC4lArEFTrTIm1bbIqIOCpuGe9HOJgR5ksVk5Q3S9e59jS5tc6GM0cPnpUJg_jHlJzmBfj-gwS9-SN?></g></svg>