<svg xmlns="http://www.w3.org/2000/svg" xmlns:xlink="http://www.w3.org/1999/xlink" contentStyleType="text/css" data-diagram-type="CLASS" height="497px" preserveAspectRatio="none" style="width:6271px;height:497px;background:#FFFFFF;" version="1.1" viewBox="0 0 6271 497" width="6271px" zoomAndPan="magnify"><?plantuml 1.2026.3?><defs/><g><g class="title" data-source-line="1"><text fill="#000000" font-family="sans-serif" font-size="14" font-weight="700" lengthAdjust="spacing" textLength="71.5723" x="3096.2217" y="24.5332">XsdAnyUri</text></g><!--class XsdAnyUri--><g class="entity" data-qualified-name="XsdAnyUri" data-source-line="16" id="ent0002"><rect fill="#FAE5D3" height="93.0156" rx="2.5" ry="2.5" style="stroke:#404040;stroke-width:0.5;" width="192.1426" x="2637" y="390.6094"/><text fill="#000000" font-family="sans-serif" font-size="36" font-style="italic" lengthAdjust="spacing" textLength="190.1426" x="2638" y="432.9805">&#171;dataType&#187;</text><text fill="#000000" font-family="sans-serif" font-size="30" lengthAdjust="spacing" textLength="141.709" x="2662.2168" y="472.0332">XsdAnyUri</text></g><!--class CompositeProfile--><g class="entity" data-qualified-name="CompositeProfile" data-source-line="17" id="ent0003"><rect fill="#EEEEEE" height="47.7344" rx="2.5" ry="2.5" style="stroke:#404040;stroke-width:0.5;" width="234.4277" x="7" y="45.6094"/><text fill="#000000" font-family="sans-serif" font-size="30" font-style="italic" lengthAdjust="spacing" textLength="228.4277" x="10" y="81.752">CompositeProfile</text></g><!--class Dataset--><g class="entity" data-qualified-name="Dataset" data-source-line="19" id="ent0005"><rect fill="#EEEEEE" height="47.7344" rx="2.5" ry="2.5" style="stroke:#404040;stroke-width:0.5;" width="109.3887" x="261.5" y="45.6094"/><text fill="#000000" font-family="sans-serif" font-size="30" lengthAdjust="spacing" textLength="103.3887" x="264.5" y="81.752">Dataset</text></g><!--class DataDownload--><g class="entity" data-qualified-name="DataDownload" data-source-line="21" id="ent0007"><rect fill="#EEEEEE" height="47.7344" rx="2.5" ry="2.5" style="stroke:#404040;stroke-width:0.5;" width="202.7871" x="431.5" y="45.6094"/><text fill="#000000" font-family="sans-serif" font-size="30" lengthAdjust="spacing" textLength="196.7871" x="434.5" y="81.752">DataDownload</text></g><!--class WebAPI--><g class="entity" data-qualified-name="WebAPI" data-source-line="24" id="ent0010"><rect fill="#EEEEEE" height="47.7344" rx="2.5" ry="2.5" style="stroke:#404040;stroke-width:0.5;" width="116.0391" x="732" y="45.6094"/><text fill="#000000" font-family="sans-serif" font-size="30" lengthAdjust="spacing" textLength="110.0391" x="735" y="81.752">WebAPI</text></g><!--class ActionResult--><g class="entity" data-qualified-name="ActionResult" data-source-line="26" id="ent0012"><rect fill="#EEEEEE" height="47.7344" rx="2.5" ry="2.5" style="stroke:#404040;stroke-width:0.5;" width="174.4131" x="868" y="45.6094"/><text fill="#000000" font-family="sans-serif" font-size="30" lengthAdjust="spacing" textLength="168.4131" x="871" y="81.752">ActionResult</text></g><!--class DefinedTerm--><g class="entity" data-qualified-name="DefinedTerm" data-source-line="28" id="ent0014"><rect fill="#EEEEEE" height="47.7344" rx="2.5" ry="2.5" style="stroke:#404040;stroke-width:0.5;" width="179.3936" x="1086.5" y="45.6094"/><text fill="#000000" font-family="sans-serif" font-size="30" lengthAdjust="spacing" textLength="173.3936" x="1089.5" y="81.752">DefinedTerm</text></g><!--class Identifier--><g class="entity" data-qualified-name="Identifier" data-source-line="31" id="ent0017"><rect fill="#EEEEEE" height="47.7344" rx="2.5" ry="2.5" style="stroke:#404040;stroke-width:0.5;" width="121.0635" x="1291.5" y="45.6094"/><text fill="#000000" font-family="sans-serif" font-size="30" lengthAdjust="spacing" textLength="115.0635" x="1294.5" y="81.752">Identifier</text></g><!--class AdditionalProperty--><g class="entity" data-qualified-name="AdditionalProperty" data-source-line="33" id="ent0019"><rect fill="#EEEEEE" height="47.7344" rx="2.5" ry="2.5" style="stroke:#404040;stroke-width:0.5;" width="251.1416" x="1432.5" y="45.6094"/><text fill="#000000" font-family="sans-serif" font-size="30" lengthAdjust="spacing" textLength="245.1416" x="1435.5" y="81.752">AdditionalProperty</text></g><!--class Reference--><g class="entity" data-qualified-name="Reference" data-source-line="35" id="ent0021"><rect fill="#EEEEEE" height="47.7344" rx="2.5" ry="2.5" style="stroke:#404040;stroke-width:0.5;" width="144.4131" x="1704" y="45.6094"/><text fill="#000000" font-family="sans-serif" font-size="30" lengthAdjust="spacing" textLength="138.4131" x="1707" y="81.752">Reference</text></g><!--class ProvActivity--><g class="entity" data-qualified-name="ProvActivity" data-source-line="38" id="ent0024"><rect fill="#EEEEEE" height="47.7344" rx="2.5" ry="2.5" style="stroke:#404040;stroke-width:0.5;" width="162.6943" x="1868.5" y="45.6094"/><text fill="#000000" font-family="sans-serif" font-size="30" lengthAdjust="spacing" textLength="156.6943" x="1871.5" y="81.752">ProvActivity</text></g><!--class DerivedFrom--><g class="entity" data-qualified-name="DerivedFrom" data-source-line="40" id="ent0026"><rect fill="#EEEEEE" height="47.7344" rx="2.5" ry="2.5" style="stroke:#404040;stroke-width:0.5;" width="179.3643" x="2051.5" y="45.6094"/><text fill="#000000" font-family="sans-serif" font-size="30" lengthAdjust="spacing" textLength="173.3643" x="2054.5" y="81.752">DerivedFrom</text></g><!--class CatalogRecord--><g class="entity" data-qualified-name="CatalogRecord" data-source-line="43" id="ent0029"><rect fill="#EEEEEE" height="47.7344" rx="2.5" ry="2.5" style="stroke:#404040;stroke-width:0.5;" width="206.1123" x="2251" y="45.6094"/><text fill="#000000" font-family="sans-serif" font-size="30" lengthAdjust="spacing" textLength="200.1123" x="2254" y="81.752">CatalogRecord</text></g><!--class CdifConceptOrTerm--><g class="entity" data-qualified-name="CdifConceptOrTerm" data-source-line="45" id="ent0031"><rect fill="#EEEEEE" height="47.7344" rx="2.5" ry="2.5" style="stroke:#404040;stroke-width:0.5;" width="274.4033" x="2477" y="45.6094"/><text fill="#000000" font-family="sans-serif" font-size="30" lengthAdjust="spacing" textLength="268.4033" x="2480" y="81.752">CdifConceptOrTerm</text></g><!--class VariableMeasured--><g class="entity" data-qualified-name="VariableMeasured" data-source-line="47" id="ent0033"><rect fill="#EEEEEE" height="47.7344" rx="2.5" ry="2.5" style="stroke:#404040;stroke-width:0.5;" width="249.4717" x="2771.5" y="45.6094"/><text fill="#000000" font-family="sans-serif" font-size="30" lengthAdjust="spacing" textLength="243.4717" x="2774.5" y="81.752">VariableMeasured</text></g><!--class SpatialExtent--><g class="entity" data-qualified-name="SpatialExtent" data-source-line="49" id="ent0035"><rect fill="#EEEEEE" height="47.7344" rx="2.5" ry="2.5" style="stroke:#404040;stroke-width:0.5;" width="182.7773" x="3040.5" y="45.6094"/><text fill="#000000" font-family="sans-serif" font-size="30" lengthAdjust="spacing" textLength="176.7773" x="3043.5" y="81.752">SpatialExtent</text></g><!--class QualityMeasure--><g class="entity" data-qualified-name="QualityMeasure" data-source-line="51" id="ent0037"><rect fill="#EEEEEE" height="47.7344" rx="2.5" ry="2.5" style="stroke:#404040;stroke-width:0.5;" width="216.0879" x="3244" y="45.6094"/><text fill="#000000" font-family="sans-serif" font-size="30" lengthAdjust="spacing" textLength="210.0879" x="3247" y="81.752">QualityMeasure</text></g><!--class QualityMeasurement--><g class="entity" data-qualified-name="QualityMeasurement" data-source-line="53" id="ent0039"><rect fill="#EEEEEE" height="47.7344" rx="2.5" ry="2.5" style="stroke:#404040;stroke-width:0.5;" width="282.7822" x="3480.5" y="45.6094"/><text fill="#000000" font-family="sans-serif" font-size="30" lengthAdjust="spacing" textLength="276.7822" x="3483.5" y="81.752">QualityMeasurement</text></g><!--class AbstractGeometry--><g class="entity" data-qualified-name="AbstractGeometry" data-source-line="55" id="ent0041"><rect fill="#EEEEEE" height="47.7344" rx="2.5" ry="2.5" style="stroke:#404040;stroke-width:0.5;" width="247.7432" x="3784" y="45.6094"/><text fill="#000000" font-family="sans-serif" font-size="30" font-style="italic" lengthAdjust="spacing" textLength="241.7432" x="3787" y="81.752">AbstractGeometry</text></g><!--class Geometry--><g class="entity" data-qualified-name="Geometry" data-source-line="57" id="ent0043"><rect fill="#EEEEEE" height="47.7344" rx="2.5" ry="2.5" style="stroke:#404040;stroke-width:0.5;" width="137.7041" x="4052" y="45.6094"/><text fill="#000000" font-family="sans-serif" font-size="30" lengthAdjust="spacing" textLength="131.7041" x="4055" y="81.752">Geometry</text></g><!--class Instant--><g class="entity" data-qualified-name="Instant" data-source-line="60" id="ent0046"><rect fill="#EEEEEE" height="47.7344" rx="2.5" ry="2.5" style="stroke:#404040;stroke-width:0.5;" width="96.0586" x="4210" y="45.6094"/><text fill="#000000" font-family="sans-serif" font-size="30" lengthAdjust="spacing" textLength="90.0586" x="4213" y="81.752">Instant</text></g><!--class TimePosition--><g class="entity" data-qualified-name="TimePosition" data-source-line="62" id="ent0048"><rect fill="#EEEEEE" height="47.7344" rx="2.5" ry="2.5" style="stroke:#404040;stroke-width:0.5;" width="179.3936" x="4326.5" y="45.6094"/><text fill="#000000" font-family="sans-serif" font-size="30" lengthAdjust="spacing" textLength="173.3936" x="4329.5" y="81.752">TimePosition</text></g><!--class InstanceVariable--><g class="entity" data-qualified-name="InstanceVariable" data-source-line="64" id="ent0050"><rect fill="#EEEEEE" height="47.7344" rx="2.5" ry="2.5" style="stroke:#404040;stroke-width:0.5;" width="229.4766" x="4525.5" y="45.6094"/><text fill="#000000" font-family="sans-serif" font-size="30" lengthAdjust="spacing" textLength="223.4766" x="4528.5" y="81.752">InstanceVariable</text></g><!--class AbstractMapping--><g class="entity" data-qualified-name="AbstractMapping" data-source-line="66" id="ent0052"><rect fill="#EEEEEE" height="47.7344" rx="2.5" ry="2.5" style="stroke:#404040;stroke-width:0.5;" width="231.1172" x="4774.5" y="45.6094"/><text fill="#000000" font-family="sans-serif" font-size="30" font-style="italic" lengthAdjust="spacing" textLength="225.1172" x="4777.5" y="81.752">AbstractMapping</text></g><!--class AbstractDataSet--><g class="entity" data-qualified-name="AbstractDataSet" data-source-line="68" id="ent0054"><rect fill="#EEEEEE" height="47.7344" rx="2.5" ry="2.5" style="stroke:#404040;stroke-width:0.5;" width="224.4375" x="5026" y="45.6094"/><text fill="#000000" font-family="sans-serif" font-size="30" font-style="italic" lengthAdjust="spacing" textLength="218.4375" x="5029" y="81.752">AbstractDataSet</text></g><!--class PrimaryKey--><g class="entity" data-qualified-name="PrimaryKey" data-source-line="70" id="ent0056"><rect fill="#EEEEEE" height="47.7344" rx="2.5" ry="2.5" style="stroke:#404040;stroke-width:0.5;" width="161.0244" x="5270.5" y="45.6094"/><text fill="#000000" font-family="sans-serif" font-size="30" lengthAdjust="spacing" textLength="155.0244" x="5273.5" y="81.752">PrimaryKey</text></g><!--class Statistics--><g class="entity" data-qualified-name="Statistics" data-source-line="72" id="ent0058"><rect fill="#EEEEEE" height="47.7344" rx="2.5" ry="2.5" style="stroke:#404040;stroke-width:0.5;" width="126.0293" x="5452" y="45.6094"/><text fill="#000000" font-family="sans-serif" font-size="30" lengthAdjust="spacing" textLength="120.0293" x="5455" y="81.752">Statistics</text></g><!--class SubstantiveValueDomain--><g class="entity" data-qualified-name="SubstantiveValueDomain" data-source-line="74" id="ent0060"><rect fill="#EEEEEE" height="47.7344" rx="2.5" ry="2.5" style="stroke:#404040;stroke-width:0.5;" width="342.8701" x="5598.5" y="45.6094"/><text fill="#000000" font-family="sans-serif" font-size="30" lengthAdjust="spacing" textLength="336.8701" x="5601.5" y="81.752">SubstantiveValueDomain</text></g><!--class SentinelValueDomain--><g class="entity" data-qualified-name="SentinelValueDomain" data-source-line="76" id="ent0062"><rect fill="#EEEEEE" height="47.7344" rx="2.5" ry="2.5" style="stroke:#404040;stroke-width:0.5;" width="294.5156" x="5961.5" y="45.6094"/><text fill="#000000" font-family="sans-serif" font-size="30" lengthAdjust="spacing" textLength="288.5156" x="5964.5" y="81.752">SentinelValueDomain</text></g><!--link CompositeProfile to XsdAnyUri--><g class="link" data-entity-1="ent0003" data-entity-2="ent0002" data-link-type="dependency" data-source-line="18" id="lnk4"><path codeLine="18" d="M119.58,93.7294 C113.15,135.1094 106.76,221.5994 155,265.6094 C341.39,435.6594 2185.59,438.5236 2630.95,436.7236" fill="none" id="CompositeProfile-to-XsdAnyUri" style="stroke:#404040;stroke-width:1.2;stroke-dasharray:7,7;"/><polygon fill="#404040" points="2636.95,436.6994,2627.9339,432.7358,2631.95,436.7196,2627.9662,440.7357,2636.95,436.6994" style="stroke:#404040;stroke-width:1.2;"/><text fill="#000000" font-family="sans-serif" font-size="36" lengthAdjust="spacing" textLength="136.0723" x="156" y="256.9805">identifier</text></g><!--link Dataset to XsdAnyUri--><g class="link" data-entity-1="ent0005" data-entity-2="ent0002" data-link-type="dependency" data-source-line="20" id="lnk6"><path codeLine="20" d="M307.86,93.8594 C295.22,134.6594 276.65,219.2194 321,265.6094 C483.45,435.5294 2202.3001,438.6557 2630.9701,436.7757" fill="none" id="Dataset-to-XsdAnyUri" style="stroke:#404040;stroke-width:1.2;stroke-dasharray:7,7;"/><polygon fill="#404040" points="2636.97,436.7494,2627.9525,432.7889,2631.97,436.7713,2627.9876,440.7888,2636.97,436.7494" style="stroke:#404040;stroke-width:1.2;"/><text fill="#000000" font-family="sans-serif" font-size="36" lengthAdjust="spacing" textLength="40.0078" x="322" y="256.9805">url</text></g><!--link DataDownload to XsdAnyUri--><g class="link" data-entity-1="ent0007" data-entity-2="ent0002" data-link-type="dependency" data-source-line="22" id="lnk8"><path codeLine="22" d="M492.86,93.6294 C432.04,131.2694 329.04,207.5894 383,265.6094 C538.7,433.0194 2208.66,438.0794 2630.87,436.6694" fill="none" id="DataDownload-to-XsdAnyUri" style="stroke:#404040;stroke-width:1.2;stroke-dasharray:7,7;"/><polygon fill="#404040" points="2636.87,436.6494,2627.8567,432.6795,2631.87,436.6661,2627.8834,440.6794,2636.87,436.6494" style="stroke:#404040;stroke-width:1.2;"/><text fill="#000000" font-family="sans-serif" font-size="36" lengthAdjust="spacing" textLength="164.0742" x="384" y="256.9805">contentUrl</text></g><!--link DataDownload to XsdAnyUri--><g class="link" data-entity-1="ent0007" data-entity-2="ent0002" data-link-type="dependency" data-source-line="23" id="lnk9"><path codeLine="23" d="M534.97,93.6994 C539.47,140.3594 552.15,243.3194 578,265.6094 C735.67,401.5394 2232.8005,429.8417 2630.7405,434.9917" fill="none" id="DataDownload-to-XsdAnyUri-1" style="stroke:#404040;stroke-width:1.2;stroke-dasharray:7,7;"/><polygon fill="#404040" points="2636.74,435.0694,2627.7925,430.9532,2631.7404,435.0047,2627.689,438.9526,2636.74,435.0694" style="stroke:#404040;stroke-width:1.2;"/><text fill="#000000" font-family="sans-serif" font-size="36" lengthAdjust="spacing" textLength="190.0547" x="579" y="256.9805">conformsTo</text></g><!--link WebAPI to XsdAnyUri--><g class="link" data-entity-1="ent0010" data-entity-2="ent0002" data-link-type="dependency" data-source-line="25" id="lnk11"><path codeLine="25" d="M782.37,93.8394 C770.59,134.6294 753.68,219.1594 798,265.6094 C926.08,399.8394 2257.8207,429.199 2630.8807,434.819" fill="none" id="WebAPI-to-XsdAnyUri" style="stroke:#404040;stroke-width:1.2;stroke-dasharray:7,7;"/><polygon fill="#404040" points="2636.88,434.9094,2627.9413,430.7743,2631.8806,434.8341,2627.8208,438.7734,2636.88,434.9094" style="stroke:#404040;stroke-width:1.2;"/><text fill="#000000" font-family="sans-serif" font-size="36" lengthAdjust="spacing" textLength="136.0723" x="799" y="256.9805">identifier</text></g><!--link ActionResult to XsdAnyUri--><g class="link" data-entity-1="ent0012" data-entity-2="ent0002" data-link-type="dependency" data-source-line="27" id="lnk13"><path codeLine="27" d="M950.91,93.6794 C943.3,139.7894 929.68,241.0494 952,265.6094 C1066.12,391.1694 2276.8714,426.4691 2630.8914,434.1591" fill="none" id="ActionResult-to-XsdAnyUri" style="stroke:#404040;stroke-width:1.2;stroke-dasharray:7,7;"/><polygon fill="#404040" points="2636.89,434.2894,2627.979,430.0949,2631.8912,434.1808,2627.8053,438.093,2636.89,434.2894" style="stroke:#404040;stroke-width:1.2;"/><text fill="#000000" font-family="sans-serif" font-size="36" lengthAdjust="spacing" textLength="190.0547" x="953" y="256.9805">conformsTo</text></g><!--link DefinedTerm to XsdAnyUri--><g class="link" data-entity-1="ent0014" data-entity-2="ent0002" data-link-type="dependency" data-source-line="29" id="lnk15"><path codeLine="29" d="M1166.37,93.8994 C1151.36,134.3794 1128.27,217.9594 1171,265.6094 C1269.26,375.1794 2305.9339,420.9627 2630.8739,432.7027" fill="none" id="DefinedTerm-to-XsdAnyUri" style="stroke:#404040;stroke-width:1.2;stroke-dasharray:7,7;"/><polygon fill="#404040" points="2636.87,432.9194,2628.0203,428.597,2631.8733,432.7388,2627.7314,436.5918,2636.87,432.9194" style="stroke:#404040;stroke-width:1.2;"/><text fill="#000000" font-family="sans-serif" font-size="36" lengthAdjust="spacing" textLength="290.127" x="1172" y="256.9805">inDefinedTermSet</text></g><!--link DefinedTerm to XsdAnyUri--><g class="link" data-entity-1="ent0014" data-entity-2="ent0002" data-link-type="dependency" data-source-line="30" id="lnk16"><path codeLine="30" d="M1252.75,93.6194 C1316.67,116.2694 1406.28,156.5594 1464,218.6094 C1479.46,235.2294 1465.96,251.8294 1484,265.6094 C1664.91,403.7294 2370.3811,429.8447 2630.8211,434.8247" fill="none" id="DefinedTerm-to-XsdAnyUri-1" style="stroke:#404040;stroke-width:1.2;stroke-dasharray:7,7;"/><polygon fill="#404040" points="2636.82,434.9394,2627.8981,430.768,2631.8209,434.8438,2627.7452,438.7666,2636.82,434.9394" style="stroke:#404040;stroke-width:1.2;"/><text fill="#000000" font-family="sans-serif" font-size="36" lengthAdjust="spacing" textLength="234.1582" x="1485" y="256.9805">additionalType</text></g><!--link Identifier to XsdAnyUri--><g class="link" data-entity-1="ent0017" data-entity-2="ent0002" data-link-type="dependency" data-source-line="32" id="lnk18"><path codeLine="32" d="M1412.81,91.8294 C1512.4,127.0094 1701.63,195.7994 1725,218.6094 C1741.25,234.4594 1727.2,251.5194 1745,265.6094 C1882.58,374.5394 2410.321,417.2755 2630.851,430.6755" fill="none" id="Identifier-to-XsdAnyUri" style="stroke:#404040;stroke-width:1.2;stroke-dasharray:7,7;"/><polygon fill="#404040" points="2636.84,431.0394,2628.0992,426.5009,2631.8492,430.7361,2627.614,434.4862,2636.84,431.0394" style="stroke:#404040;stroke-width:1.2;"/><text fill="#000000" font-family="sans-serif" font-size="36" lengthAdjust="spacing" textLength="40.0078" x="1746" y="256.9805">url</text></g><!--link AdditionalProperty to XsdAnyUri--><g class="link" data-entity-1="ent0019" data-entity-2="ent0002" data-link-type="dependency" data-source-line="34" id="lnk20"><path codeLine="34" d="M1612.99,93.6294 C1665.2,117.9294 1742.81,160.7494 1792,218.6094 C1806.7,235.9094 1794.29,251.4094 1812,265.6094 C1938.56,367.0694 2421.2069,413.4896 2630.7269,429.2396" fill="none" id="AdditionalProperty-to-XsdAnyUri" style="stroke:#404040;stroke-width:1.2;stroke-dasharray:7,7;"/><polygon fill="#404040" points="2636.71,429.6894,2628.0352,425.026,2631.7241,429.3146,2627.4355,433.0035,2636.71,429.6894" style="stroke:#404040;stroke-width:1.2;"/><text fill="#000000" font-family="sans-serif" font-size="36" lengthAdjust="spacing" textLength="144.1055" x="1813" y="256.9805">unitCode</text></g><!--link Reference to XsdAnyUri--><g class="link" data-entity-1="ent0021" data-entity-2="ent0002" data-link-type="dependency" data-source-line="36" id="lnk22"><path codeLine="36" d="M1814.04,93.6294 C1854.92,119.8494 1919.82,165.9394 1963,218.6094 C1977.87,236.7494 1968.5,251.1994 1987,265.6094 C2087.89,344.1794 2452.9111,400.2079 2630.7411,423.5679" fill="none" id="Reference-to-XsdAnyUri" style="stroke:#404040;stroke-width:1.2;stroke-dasharray:7,7;"/><polygon fill="#404040" points="2636.69,424.3494,2628.2876,419.2113,2631.7326,423.6982,2627.2457,427.1431,2636.69,424.3494" style="stroke:#404040;stroke-width:1.2;"/><text fill="#000000" font-family="sans-serif" font-size="36" lengthAdjust="spacing" textLength="40.0078" x="1988" y="256.9805">url</text></g><!--link Reference to XsdAnyUri--><g class="link" data-entity-1="ent0021" data-entity-2="ent0002" data-link-type="dependency" data-source-line="37" id="lnk23"><path codeLine="37" d="M1838.7,93.7194 C1895.33,117.4094 1977.59,159.1894 2030,218.6094 C2045.02,235.6394 2032.73,250.8694 2050,265.6094 C2138.14,340.8394 2464.5049,397.2894 2630.9049,421.9594" fill="none" id="Reference-to-XsdAnyUri-1" style="stroke:#404040;stroke-width:1.2;stroke-dasharray:7,7;"/><polygon fill="#404040" points="2636.84,422.8394,2628.5239,417.5627,2631.8941,422.1061,2627.3507,425.4762,2636.84,422.8394" style="stroke:#404040;stroke-width:1.2;"/><text fill="#000000" font-family="sans-serif" font-size="36" lengthAdjust="spacing" textLength="118.0723" x="2051" y="256.9805">relation</text></g><!--link ProvActivity to XsdAnyUri--><g class="link" data-entity-1="ent0024" data-entity-2="ent0002" data-link-type="dependency" data-source-line="39" id="lnk25"><path codeLine="39" d="M2001.91,93.6694 C2052.1,118.2694 2127.36,161.5394 2175,218.6094 C2189.55,236.0394 2178.2,250.3394 2195,265.6094 C2319.44,378.7094 2512.8651,416.1409 2630.7851,428.9609" fill="none" id="ProvActivity-to-XsdAnyUri" style="stroke:#404040;stroke-width:1.2;stroke-dasharray:7,7;"/><polygon fill="#404040" points="2636.75,429.6094,2628.235,424.6601,2631.7793,429.069,2627.3704,432.6132,2636.75,429.6094" style="stroke:#404040;stroke-width:1.2;"/><text fill="#000000" font-family="sans-serif" font-size="36" lengthAdjust="spacing" textLength="78.0645" x="2196" y="256.9805">used</text></g><!--link DerivedFrom to XsdAnyUri--><g class="link" data-entity-1="ent0026" data-entity-2="ent0002" data-link-type="dependency" data-source-line="41" id="lnk27"><path codeLine="41" d="M2166.64,93.6394 C2196.42,121.2794 2245.82,170.0294 2280,218.6094 C2293.5,237.7894 2286.66,249.8194 2304,265.6094 C2398.68,351.7994 2536.4016,395.4693 2630.9716,417.1393" fill="none" id="DerivedFrom-to-XsdAnyUri" style="stroke:#404040;stroke-width:1.2;stroke-dasharray:7,7;"/><polygon fill="#404040" points="2636.82,418.4794,2628.9408,412.5702,2631.9463,417.3626,2627.1539,420.3681,2636.82,418.4794" style="stroke:#404040;stroke-width:1.2;"/><text fill="#000000" font-family="sans-serif" font-size="36" lengthAdjust="spacing" textLength="40.0078" x="2305" y="256.9805">url</text></g><!--link DerivedFrom to XsdAnyUri--><g class="link" data-entity-1="ent0026" data-entity-2="ent0002" data-link-type="dependency" data-source-line="42" id="lnk28"><path codeLine="42" d="M2186.75,93.7594 C2232.64,118.9894 2302.69,163.2594 2347,218.6094 C2361.19,236.3294 2351.22,249.2894 2367,265.6094 C2440.82,341.9594 2549.7071,385.9119 2630.9871,410.5019" fill="none" id="DerivedFrom-to-XsdAnyUri-1" style="stroke:#404040;stroke-width:1.2;stroke-dasharray:7,7;"/><polygon fill="#404040" points="2636.73,412.2394,2629.2739,405.8046,2631.9442,410.7915,2626.9573,413.4618,2636.73,412.2394" style="stroke:#404040;stroke-width:1.2;"/><text fill="#000000" font-family="sans-serif" font-size="36" lengthAdjust="spacing" textLength="118.0723" x="2368" y="256.9805">relation</text></g><!--link CatalogRecord to XsdAnyUri--><g class="link" data-entity-1="ent0029" data-entity-2="ent0002" data-link-type="dependency" data-source-line="44" id="lnk30"><path codeLine="44" d="M2380.58,93.7494 C2410.75,121.1394 2459.93,169.2694 2492,218.6094 C2504.37,237.6394 2498.12,247.6494 2512,265.6094 C2551.12,316.2194 2603.6315,356.6808 2650.1915,387.1908" fill="none" id="CatalogRecord-to-XsdAnyUri" style="stroke:#404040;stroke-width:1.2;stroke-dasharray:7,7;"/><polygon fill="#404040" points="2655.21,390.4794,2649.8746,382.2009,2651.0279,387.7389,2645.4899,388.8922,2655.21,390.4794" style="stroke:#404040;stroke-width:1.2;"/><text fill="#000000" font-family="sans-serif" font-size="36" lengthAdjust="spacing" textLength="190.0547" x="2513" y="256.9805">conformsTo</text></g><!--link CdifConceptOrTerm to XsdAnyUri--><g class="link" data-entity-1="ent0031" data-entity-2="ent0002" data-link-type="dependency" data-source-line="46" id="lnk32"><path codeLine="46" d="M2633.89,93.9094 C2656.32,121.6294 2691.88,170.2594 2709,218.6094 C2729.1,275.3694 2733.4513,339.2197 2733.8913,384.1897" fill="none" id="CdifConceptOrTerm-to-XsdAnyUri" style="stroke:#404040;stroke-width:1.2;stroke-dasharray:7,7;"/><polygon fill="#404040" points="2733.95,390.1894,2737.8618,381.1507,2733.9011,385.1896,2729.8621,381.2289,2733.95,390.1894" style="stroke:#404040;stroke-width:1.2;"/><text fill="#000000" font-family="sans-serif" font-size="36" lengthAdjust="spacing" textLength="136.0723" x="2722" y="256.9805">identifier</text></g><!--link VariableMeasured to XsdAnyUri--><g class="link" data-entity-1="ent0033" data-entity-2="ent0002" data-link-type="dependency" data-source-line="48" id="lnk34"><path codeLine="48" d="M2895.8,93.8494 C2894.71,131.4694 2889.23,207.3694 2864,265.6094 C2843.59,312.7094 2811.3514,353.9555 2782.1314,386.1655" fill="none" id="VariableMeasured-to-XsdAnyUri" style="stroke:#404040;stroke-width:1.2;stroke-dasharray:7,7;"/><polygon fill="#404040" points="2778.1,390.6094,2787.1096,386.6311,2781.4595,386.9061,2781.1845,381.256,2778.1,390.6094" style="stroke:#404040;stroke-width:1.2;"/><text fill="#000000" font-family="sans-serif" font-size="36" lengthAdjust="spacing" textLength="136.0723" x="2880" y="256.9805">identifier</text></g><!--link SpatialExtent to XsdAnyUri--><g class="link" data-entity-1="ent0035" data-entity-2="ent0002" data-link-type="dependency" data-source-line="50" id="lnk36"><path codeLine="50" d="M3123.55,93.8494 C3108.32,133.1594 3073.03,213.5794 3022,265.6094 C2967.03,321.6494 2895.2622,363.3285 2834.4922,392.6985" fill="none" id="SpatialExtent-to-XsdAnyUri" style="stroke:#404040;stroke-width:1.2;stroke-dasharray:7,7;"/><polygon fill="#404040" points="2829.09,395.3094,2838.9338,394.9945,2833.5918,393.1337,2835.4527,387.7916,2829.09,395.3094" style="stroke:#404040;stroke-width:1.2;"/><text fill="#000000" font-family="sans-serif" font-size="36" lengthAdjust="spacing" textLength="136.0723" x="3057" y="256.9805">identifier</text></g><!--link QualityMeasure to XsdAnyUri--><g class="link" data-entity-1="ent0037" data-entity-2="ent0002" data-link-type="dependency" data-source-line="52" id="lnk38"><path codeLine="52" d="M3339.57,93.8694 C3316.84,134.3094 3264.81,217.8194 3199,265.6094 C3085.9,347.7494 2934.826,392.9088 2835.056,415.9588" fill="none" id="QualityMeasure-to-XsdAnyUri" style="stroke:#404040;stroke-width:1.2;stroke-dasharray:7,7;"/><polygon fill="#404040" points="2829.21,417.3094,2838.8794,419.1808,2834.0817,416.1839,2837.0786,411.3861,2829.21,417.3094" style="stroke:#404040;stroke-width:1.2;"/><text fill="#000000" font-family="sans-serif" font-size="36" lengthAdjust="spacing" textLength="136.0723" x="3250" y="256.9805">identifier</text></g><!--link QualityMeasurement to XsdAnyUri--><g class="link" data-entity-1="ent0039" data-entity-2="ent0002" data-link-type="dependency" data-source-line="54" id="lnk40"><path codeLine="54" d="M3601.63,93.6794 C3564.23,134.5894 3480.31,219.8394 3392,265.6094 C3206.16,361.9394 2967.9534,405.7673 2835.1434,424.1373" fill="none" id="QualityMeasurement-to-XsdAnyUri" style="stroke:#404040;stroke-width:1.2;stroke-dasharray:7,7;"/><polygon fill="#404040" points="2829.2,424.9594,2838.6632,427.6885,2834.1528,424.2743,2837.5671,419.764,2829.2,424.9594" style="stroke:#404040;stroke-width:1.2;"/><text fill="#000000" font-family="sans-serif" font-size="36" lengthAdjust="spacing" textLength="136.0723" x="3462" y="256.9805">identifier</text></g><!--link AbstractGeometry to XsdAnyUri--><g class="link" data-entity-1="ent0041" data-entity-2="ent0002" data-link-type="dependency" data-source-line="56" id="lnk42"><path codeLine="56" d="M3880.25,93.6294 C3829.06,134.8494 3714.85,221.0994 3604,265.6094 C3335.9,373.2594 2999.2569,414.1529 2835.1069,428.6129" fill="none" id="AbstractGeometry-to-XsdAnyUri" style="stroke:#404040;stroke-width:1.2;stroke-dasharray:7,7;"/><polygon fill="#404040" points="2829.13,429.1394,2838.4463,432.3342,2834.1107,428.7006,2837.7443,424.3651,2829.13,429.1394" style="stroke:#404040;stroke-width:1.2;"/><text fill="#000000" font-family="sans-serif" font-size="36" lengthAdjust="spacing" textLength="136.0723" x="3693" y="256.9805">identifier</text></g><!--link Geometry to XsdAnyUri--><g class="link" data-entity-1="ent0043" data-entity-2="ent0002" data-link-type="dependency" data-source-line="58" id="lnk44"><path codeLine="58" d="M4095.7,93.7894 C4048.42,135.6594 3941.77,223.4694 3835,265.6094 C3482.73,404.6594 3031.3384,430.6193 2835.1884,435.1993" fill="none" id="Geometry-to-XsdAnyUri" style="stroke:#404040;stroke-width:1.2;stroke-dasharray:7,7;"/><polygon fill="#404040" points="2829.19,435.3394,2838.2809,439.1282,2834.1886,435.2227,2838.0942,431.1304,2829.19,435.3394" style="stroke:#404040;stroke-width:1.2;"/><text fill="#000000" font-family="sans-serif" font-size="36" lengthAdjust="spacing" textLength="136.0723" x="3928" y="256.9805">identifier</text></g><!--link Geometry to XsdAnyUri--><g class="link" data-entity-1="ent0043" data-entity-2="ent0002" data-link-type="dependency" data-source-line="59" id="lnk45"><path codeLine="59" d="M4122.53,93.7294 C4123.87,135.1094 4120.08,221.6094 4070,265.6094 C3976.78,347.5194 3126.0469,410.3528 2835.1269,429.6228" fill="none" id="Geometry-to-XsdAnyUri-1" style="stroke:#404040;stroke-width:1.2;stroke-dasharray:7,7;"/><polygon fill="#404040" points="2829.14,430.0194,2838.3847,433.4158,2834.1291,429.6889,2837.8559,425.4333,2829.14,430.0194" style="stroke:#404040;stroke-width:1.2;"/><text fill="#000000" font-family="sans-serif" font-size="36" lengthAdjust="spacing" textLength="47.9883" x="4102" y="256.9805">crs</text></g><!--link Instant to XsdAnyUri--><g class="link" data-entity-1="ent0046" data-entity-2="ent0002" data-link-type="dependency" data-source-line="61" id="lnk47"><path codeLine="61" d="M4253.11,93.9294 C4242.94,136.0294 4215.27,224.1894 4155,265.6094 C3938.74,414.2194 3118.4898,433.6317 2835.0798,435.8817" fill="none" id="Instant-to-XsdAnyUri" style="stroke:#404040;stroke-width:1.2;stroke-dasharray:7,7;"/><polygon fill="#404040" points="2829.08,435.9294,2838.1115,439.8578,2834.0798,435.8897,2838.048,431.8581,2829.08,435.9294" style="stroke:#404040;stroke-width:1.2;"/><text fill="#000000" font-family="sans-serif" font-size="36" lengthAdjust="spacing" textLength="136.0723" x="4201" y="256.9805">identifier</text></g><!--link TimePosition to XsdAnyUri--><g class="link" data-entity-1="ent0048" data-entity-2="ent0002" data-link-type="dependency" data-source-line="63" id="lnk49"><path codeLine="63" d="M4414.83,93.7594 C4411.35,135.5894 4397.58,223.3294 4343,265.6094 C4222.94,358.6094 3164.0832,415.8139 2835.2732,431.4739" fill="none" id="TimePosition-to-XsdAnyUri" style="stroke:#404040;stroke-width:1.2;stroke-dasharray:7,7;"/><polygon fill="#404040" points="2829.28,431.7594,2838.4601,435.3267,2834.2743,431.5215,2838.0795,427.3358,2829.28,431.7594" style="stroke:#404040;stroke-width:1.2;"/><text fill="#000000" font-family="sans-serif" font-size="36" lengthAdjust="spacing" textLength="130.043" x="4382" y="256.9805">hasTRS</text></g><!--link InstanceVariable to XsdAnyUri--><g class="link" data-entity-1="ent0050" data-entity-2="ent0002" data-link-type="dependency" data-source-line="65" id="lnk51"><path codeLine="65" d="M4633.06,93.8494 C4619.05,136.2394 4583.06,225.4094 4518,265.6094 C4373.59,354.8394 3185.3737,415.5242 2835.1637,431.6042" fill="none" id="InstanceVariable-to-XsdAnyUri" style="stroke:#404040;stroke-width:1.2;stroke-dasharray:7,7;"/><polygon fill="#404040" points="2829.17,431.8794,2838.344,435.4624,2834.1647,431.65,2837.9771,427.4708,2829.17,431.8794" style="stroke:#404040;stroke-width:1.2;"/><text fill="#000000" font-family="sans-serif" font-size="36" lengthAdjust="spacing" textLength="136.0723" x="4569" y="256.9805">identifier</text></g><!--link AbstractMapping to XsdAnyUri--><g class="link" data-entity-1="ent0052" data-entity-2="ent0002" data-link-type="dependency" data-source-line="67" id="lnk53"><path codeLine="67" d="M4876.88,93.7794 C4851.28,136.4494 4790.18,226.6694 4711,265.6094 C4374.06,431.3194 3183.9199,438.4859 2835.1199,436.9459" fill="none" id="AbstractMapping-to-XsdAnyUri" style="stroke:#404040;stroke-width:1.2;stroke-dasharray:7,7;"/><polygon fill="#404040" points="2829.12,436.9194,2838.1023,440.9591,2834.12,436.9415,2838.1376,432.9591,2829.12,436.9194" style="stroke:#404040;stroke-width:1.2;"/><text fill="#000000" font-family="sans-serif" font-size="36" lengthAdjust="spacing" textLength="136.0723" x="4776" y="256.9805">identifier</text></g><!--link AbstractDataSet to XsdAnyUri--><g class="link" data-entity-1="ent0054" data-entity-2="ent0002" data-link-type="dependency" data-source-line="69" id="lnk55"><path codeLine="69" d="M5120.54,93.8994 C5086.85,136.7694 5008.2,227.3094 4918,265.6094 C4533.3,428.9594 3205.77,437.5233 2835.2,436.6633" fill="none" id="AbstractDataSet-to-XsdAnyUri" style="stroke:#404040;stroke-width:1.2;stroke-dasharray:7,7;"/><polygon fill="#404040" points="2829.2,436.6494,2838.1907,440.6703,2834.2,436.661,2838.2093,432.6703,2829.2,436.6494" style="stroke:#404040;stroke-width:1.2;"/><text fill="#000000" font-family="sans-serif" font-size="36" lengthAdjust="spacing" textLength="136.0723" x="4994" y="256.9805">identifier</text></g><!--link PrimaryKey to XsdAnyUri--><g class="link" data-entity-1="ent0056" data-entity-2="ent0002" data-link-type="dependency" data-source-line="71" id="lnk57"><path codeLine="71" d="M5334.34,93.6194 C5301.82,136.4394 5225.21,227.4994 5136,265.6094 C4921.16,357.3894 3256.7766,418.638 2835.3166,432.788" fill="none" id="PrimaryKey-to-XsdAnyUri" style="stroke:#404040;stroke-width:1.2;stroke-dasharray:7,7;"/><polygon fill="#404040" points="2829.32,432.9894,2838.4492,436.6851,2834.3172,432.8216,2838.1807,428.6896,2829.32,432.9894" style="stroke:#404040;stroke-width:1.2;"/><text fill="#000000" font-family="sans-serif" font-size="36" lengthAdjust="spacing" textLength="136.0723" x="5211" y="256.9805">identifier</text></g><!--link Statistics to XsdAnyUri--><g class="link" data-entity-1="ent0058" data-entity-2="ent0002" data-link-type="dependency" data-source-line="73" id="lnk59"><path codeLine="73" d="M5503.8,93.8794 C5481.77,136.7394 5428.29,227.2394 5353,265.6094 C5124.61,381.9894 3280.8088,425.3704 2835.2688,434.2104" fill="none" id="Statistics-to-XsdAnyUri" style="stroke:#404040;stroke-width:1.2;stroke-dasharray:7,7;"/><polygon fill="#404040" points="2829.27,434.3294,2838.3476,438.1501,2834.269,434.2302,2838.1889,430.1516,2829.27,434.3294" style="stroke:#404040;stroke-width:1.2;"/><text fill="#000000" font-family="sans-serif" font-size="36" lengthAdjust="spacing" textLength="136.0723" x="5414" y="256.9805">identifier</text></g><!--link SubstantiveValueDomain to XsdAnyUri--><g class="link" data-entity-1="ent0060" data-entity-2="ent0002" data-link-type="dependency" data-source-line="75" id="lnk61"><path codeLine="75" d="M5753.48,93.6994 C5721.22,136.6694 5645.13,227.9594 5556,265.6094 C5300.38,373.5794 3300.8685,423.6871 2835.2985,433.9571" fill="none" id="SubstantiveValueDomain-to-XsdAnyUri" style="stroke:#404040;stroke-width:1.2;stroke-dasharray:7,7;"/><polygon fill="#404040" points="2829.3,434.0894,2838.386,437.8899,2834.2988,433.9791,2838.2096,429.8919,2829.3,434.0894" style="stroke:#404040;stroke-width:1.2;"/><text fill="#000000" font-family="sans-serif" font-size="36" lengthAdjust="spacing" textLength="136.0723" x="5631" y="256.9805">identifier</text></g><!--link SentinelValueDomain to XsdAnyUri--><g class="link" data-entity-1="ent0062" data-entity-2="ent0002" data-link-type="dependency" data-source-line="77" id="lnk63"><path codeLine="77" d="M6080.19,93.7794 C6024.69,136.8694 5897.38,228.3694 5773,265.6094 C5202.68,436.3894 3288.4399,438.6649 2835.3599,436.7349" fill="none" id="SentinelValueDomain-to-XsdAnyUri" style="stroke:#404040;stroke-width:1.2;stroke-dasharray:7,7;"/><polygon fill="#404040" points="2829.36,436.7094,2838.3429,440.7477,2834.36,436.7307,2838.377,432.7477,2829.36,436.7094" style="stroke:#404040;stroke-width:1.2;"/><text fill="#000000" font-family="sans-serif" font-size="36" lengthAdjust="spacing" textLength="136.0723" x="5882" y="256.9805">identifier</text></g><?plantuml-src dPPTJzim58Rlyoiik4SCnYucX9IrCA49hMiBxDPDJgY5OqV7BgoRzj_dVFWZSMawu2RdEUbxtXmVEz5CSo0_LPwAxJsoPCro81d3Z4Dx3MMbjwI4SWMe4lNCH4MHbaIjQIvVcNWY1UKAWaoAA5-NQvOz2r2AV3Wv2v98nRE2YfnTd0PKo1mQ6i8S2hhX-aOAlM2_WPn_2f8PfqRxJqBQSXF99PBZZwVrlu5V9EQ0GnfAcHzgZMorqU3nQV8tILhf8zUJ8qALxn2vlCoffijj1LTNvFWclRwOdYTqfJJIJ7U-ZYQohAHY6cOe2yQXqHX2SdpT_2LHukJaAgZucPY549eL3D2wcneF2dIZsrqxEHiFLJR8mvzFvQlWakPEmuAUa8D3jSnqpRYwDw9ZznKIIxMKjlWZhDBPRLEslNG5kt3yyTDCCodceCo0D48XS78zEEvh2WKJa2y1oxOdFlOj2LXaKmJP1UYzDzCyPxKxokjHiXPktPCs3dpe30Hep_gcJjsCL0MejssN8knx5QSYVS7qnEnKMsGE1I28h9rk5pb9JtOvVJkBm6bjnTOnXbxgfNnXtME4m5NhmQYWWjmlCx8No6zGscLsSR3Cdkqoloy_j3ynkuFBfpbavb1g3uAG-5EWHyV7TPApOY9D0olz7TtGHjJhHvdnVVP0aT4LXpkWQeFGsXz2Lo5AZ1TOLAPNb5__gi-IHhr7d7IVZkl-s51k1g5pqWZtaLCUuF-LBgtl6BzHeXnvWk6x9EtYho1BqDZjv07q-tYO67-Wdd0aU8ZGc_Tavfl17cr2QThrghlsXreNZtjTiX9czRlIRB16AWHEhmU7eckgblD5trO6TdO3VnuEZ0Q9TwpZ7QqgyztKMyQEHQje-JlAr2_bHVU5C61H6Sl7-pz3LbBSVWDx4jimE8STEc3xQxEjbMQPQlU-2_t6z-W0kSsg6IHpDZzGle6fB2bhvsHtofVPdJwWP0q4yAXUp7sn7RazbVu1?></g></svg>