<svg xmlns="http://www.w3.org/2000/svg" xmlns:xlink="http://www.w3.org/1999/xlink" contentStyleType="text/css" data-diagram-type="CLASS" height="1038px" preserveAspectRatio="none" style="width:1964px;height:1038px;background:#FFFFFF;" version="1.1" viewBox="0 0 1964 1038" width="1964px" zoomAndPan="magnify"><?plantuml 1.2026.3?><defs/><g><g class="title" data-source-line="1"><text fill="#000000" font-family="sans-serif" font-size="14" font-weight="700" lengthAdjust="spacing" textLength="85.5723" x="935.9253" y="24.5332">DefinedTerm</text></g><!--class DefinedTerm--><g class="entity" data-qualified-name="DefinedTerm" data-source-line="16" id="ent0002"><rect fill="#FEFECE" height="244.4063" rx="2.5" ry="2.5" style="stroke:#404040;stroke-width:0.5;" width="516.5303" x="589.71" y="390.6094"/><text fill="#000000" font-family="sans-serif" font-size="30" lengthAdjust="spacing" textLength="173.3936" x="761.2784" y="426.752">DefinedTerm</text><line style="stroke:#404040;stroke-width:0.5;" x1="590.71" x2="1105.2403" y1="438.3438" y2="438.3438"/><g data-visibility-modifier="PUBLIC_FIELD"><ellipse cx="600.71" cy="462.7109" fill="none" rx="3" ry="3" style="stroke:#038048;stroke-width:1;"/></g><text fill="#000000" font-family="sans-serif" font-size="30" lengthAdjust="spacing" textLength="328.5059" x="616.71" y="473.4863">identifier : Identifier [0..1]</text><g data-visibility-modifier="PUBLIC_FIELD"><ellipse cx="600.71" cy="500.4453" fill="none" rx="3" ry="3" style="stroke:#038048;stroke-width:1;"/></g><text fill="#000000" font-family="sans-serif" font-size="30" lengthAdjust="spacing" textLength="215.0977" x="616.71" y="511.2207">name : string [1]</text><g data-visibility-modifier="PUBLIC_FIELD"><ellipse cx="600.71" cy="538.1797" fill="none" rx="3" ry="3" style="stroke:#038048;stroke-width:1;"/></g><text fill="#000000" font-family="sans-serif" font-size="30" lengthAdjust="spacing" textLength="305.127" x="616.71" y="548.9551">termCode : string [0..1]</text><g data-visibility-modifier="PUBLIC_FIELD"><ellipse cx="600.71" cy="575.9141" fill="none" rx="3" ry="3" style="stroke:#038048;stroke-width:1;"/></g><text fill="#000000" font-family="sans-serif" font-size="30" lengthAdjust="spacing" textLength="483.5303" x="616.71" y="586.6895">inDefinedTermSet : XsdAnyUri [0..1]</text><g data-visibility-modifier="PUBLIC_FIELD"><ellipse cx="600.71" cy="613.6484" fill="none" rx="3" ry="3" style="stroke:#038048;stroke-width:1;"/></g><text fill="#000000" font-family="sans-serif" font-size="30" lengthAdjust="spacing" textLength="431.8799" x="616.71" y="624.4238">additionalType : XsdAnyUri [0..*]</text></g><!--class Dataset--><g class="entity" data-qualified-name="Dataset" data-source-line="23" id="ent0003"><rect fill="#EEEEEE" height="47.7344" rx="2.5" ry="2.5" style="stroke:#404040;stroke-width:0.5;" width="109.3887" x="82.71" y="45.6094"/><text fill="#000000" font-family="sans-serif" font-size="30" lengthAdjust="spacing" textLength="103.3887" x="85.71" y="81.752">Dataset</text></g><!--class VariableMeasured--><g class="entity" data-qualified-name="VariableMeasured" data-source-line="26" id="ent0006"><rect fill="#EEEEEE" height="47.7344" rx="2.5" ry="2.5" style="stroke:#404040;stroke-width:0.5;" width="249.4717" x="516.71" y="45.6094"/><text fill="#000000" font-family="sans-serif" font-size="30" lengthAdjust="spacing" textLength="243.4717" x="519.71" y="81.752">VariableMeasured</text></g><!--class InstanceVariable--><g class="entity" data-qualified-name="InstanceVariable" data-source-line="28" id="ent0008"><rect fill="#EEEEEE" height="47.7344" rx="2.5" ry="2.5" style="stroke:#404040;stroke-width:0.5;" width="229.4766" x="1322.71" y="45.6094"/><text fill="#000000" font-family="sans-serif" font-size="30" lengthAdjust="spacing" textLength="223.4766" x="1325.71" y="81.752">InstanceVariable</text></g><!--class Identifier--><g class="entity" data-qualified-name="Identifier" data-source-line="32" id="ent0012"><rect fill="#EEEEEE" height="47.7344" rx="2.5" ry="2.5" style="stroke:#404040;stroke-width:0.5;" width="121.0635" x="699.71" y="954.1094"/><text fill="#000000" font-family="sans-serif" font-size="30" lengthAdjust="spacing" textLength="115.0635" x="702.71" y="990.252">Identifier</text></g><!--class XsdAnyUri--><g class="entity" data-qualified-name="XsdAnyUri" data-source-line="34" id="ent0014"><rect fill="#FAE5D3" height="93.0156" rx="2.5" ry="2.5" style="stroke:#404040;stroke-width:0.5;" width="192.1426" x="841.21" y="931.6094"/><text fill="#000000" font-family="sans-serif" font-size="36" font-style="italic" lengthAdjust="spacing" textLength="190.1426" x="842.21" y="973.9805">&#171;dataType&#187;</text><text fill="#000000" font-family="sans-serif" font-size="30" lengthAdjust="spacing" textLength="141.709" x="866.4268" y="1013.0332">XsdAnyUri</text></g><!--link Dataset to DefinedTerm--><g class="link" data-entity-1="ent0003" data-entity-2="ent0002" data-link-type="dependency" data-source-line="24" id="lnk4"><path codeLine="24" d="M111.46,93.8694 C72.18,132.1694 6,209.8294 47.21,265.6094 C112.71,354.2294 375.3299,422.9259 583.6299,465.2059" fill="none" id="Dataset-to-DefinedTerm" style="stroke:#404040;stroke-width:1.2;"/><polygon fill="#404040" points="589.51,466.3994,581.4855,460.689,584.6099,465.4048,579.8942,468.5292,589.51,466.3994" style="stroke:#404040;stroke-width:1.2;"/><text fill="#000000" font-family="sans-serif" font-size="36" lengthAdjust="spacing" textLength="152.0508" x="48.21" y="256.9805">keywords</text><text fill="#000000" font-family="sans-serif" font-size="36" lengthAdjust="spacing" textLength="54.0352" x="527.9278" y="503.139">0..*</text></g><!--link Dataset to DefinedTerm--><g class="link" data-entity-1="ent0003" data-entity-2="ent0002" data-link-type="dependency" data-source-line="25" id="lnk5"><path codeLine="25" d="M146.6,93.9294 C165.54,140.0394 208.85,240.5394 236.21,265.6094 C334.8,355.9194 465.0296,413.2092 583.7596,450.7792" fill="none" id="Dataset-to-DefinedTerm-1" style="stroke:#404040;stroke-width:1.2;"/><polygon fill="#404040" points="589.48,452.5894,582.1061,446.0606,584.713,451.0809,579.6926,453.6878,589.48,452.5894" style="stroke:#404040;stroke-width:1.2;"/><text fill="#000000" font-family="sans-serif" font-size="36" lengthAdjust="spacing" textLength="388.2129" x="237.21" y="256.9805">measurementTechnique</text><text fill="#000000" font-family="sans-serif" font-size="36" lengthAdjust="spacing" textLength="54.0352" x="527.897" y="442.7669">0..*</text></g><!--link VariableMeasured to DefinedTerm--><g class="link" data-entity-1="ent0006" data-entity-2="ent0002" data-link-type="dependency" data-source-line="27" id="lnk7"><path codeLine="27" d="M636.26,93.7094 C629.31,131.1394 619.75,206.7694 641.21,265.6094 C657.76,310.9694 682.883,349.1802 714.023,385.9602" fill="none" id="VariableMeasured-to-DefinedTerm" style="stroke:#404040;stroke-width:1.2;"/><polygon fill="#404040" points="717.9,390.5394,715.1373,381.0859,714.6692,386.7234,709.0317,386.2553,717.9,390.5394" style="stroke:#404040;stroke-width:1.2;"/><text fill="#000000" font-family="sans-serif" font-size="36" lengthAdjust="spacing" textLength="388.2129" x="642.21" y="256.9805">measurementTechnique</text><text fill="#000000" font-family="sans-serif" font-size="36" lengthAdjust="spacing" textLength="60.0469" x="648.647" y="374.5489">0..1</text></g><!--link InstanceVariable to DefinedTerm--><g class="link" data-entity-1="ent0008" data-entity-2="ent0002" data-link-type="dependency" data-source-line="29" id="lnk9"><path codeLine="29" d="M1322.33,92.3394 C1240.04,112.9194 1130.99,151.0694 1056.21,218.6094 C1038.81,234.3294 1044.62,245.6994 1032.21,265.6094 C1006.06,307.5994 978.3161,346.6615 948.9661,385.5215" fill="none" id="InstanceVariable-to-DefinedTerm" style="stroke:#404040;stroke-width:1.2;"/><polygon fill="#404040" points="945.35,390.3094,953.9661,385.5384,948.3635,386.3195,947.5823,380.7168,945.35,390.3094" style="stroke:#404040;stroke-width:1.2;"/><text fill="#000000" font-family="sans-serif" font-size="36" lengthAdjust="spacing" textLength="354.252" x="1057.21" y="256.9805">hasIntendedDataType</text><text fill="#000000" font-family="sans-serif" font-size="36" lengthAdjust="spacing" textLength="60.0469" x="889.0358" y="374.7583">0..1</text></g><!--link InstanceVariable to DefinedTerm--><g class="link" data-entity-1="ent0008" data-entity-2="ent0002" data-link-type="dependency" data-source-line="30" id="lnk10"><path codeLine="30" d="M1441.15,93.6994 C1446.54,133.1494 1451.58,214.2194 1413.21,265.6094 C1339.69,364.0894 1224.092,421.8827 1112.692,457.7027" fill="none" id="InstanceVariable-to-DefinedTerm-1" style="stroke:#404040;stroke-width:1.2;"/><polygon fill="#404040" points="1106.98,459.5394,1116.7724,460.5924,1111.74,458.0088,1114.3235,452.9764,1106.98,459.5394" style="stroke:#404040;stroke-width:1.2;"/><text fill="#000000" font-family="sans-serif" font-size="36" lengthAdjust="spacing" textLength="108.0527" x="1435.21" y="256.9805">source</text><text fill="#000000" font-family="sans-serif" font-size="36" lengthAdjust="spacing" textLength="54.0352" x="1114.5775" y="449.9015">0..*</text></g><!--link InstanceVariable to DefinedTerm--><g class="link" data-entity-1="ent0008" data-entity-2="ent0002" data-link-type="dependency" data-source-line="31" id="lnk11"><path codeLine="31" d="M1467.71,93.7194 C1513.36,131.1594 1589.88,206.8094 1548.21,265.6094 C1448.7,406.0594 1268.2773,465.9164 1112.8573,491.9964" fill="none" id="InstanceVariable-to-DefinedTerm-2" style="stroke:#404040;stroke-width:1.2;"/><polygon fill="#404040" points="1106.94,492.9894,1116.4779,495.4448,1111.8711,492.1619,1115.1539,487.5551,1106.94,492.9894" style="stroke:#404040;stroke-width:1.2;"/><text fill="#000000" font-family="sans-serif" font-size="36" lengthAdjust="spacing" textLength="388.2129" x="1560.21" y="256.9805">measurementTechnique</text><text fill="#000000" font-family="sans-serif" font-size="36" lengthAdjust="spacing" textLength="54.0352" x="1114.5364" y="530.4353">0..*</text></g><!--link DefinedTerm to Identifier--><g class="link" data-entity-1="ent0002" data-entity-2="ent0012" data-link-type="dependency" data-source-line="33" id="lnk13"><path codeLine="33" d="M805.75,634.8994 C793.6,674.2194 781.65,718.3494 774.21,759.6094 C761.6,829.6194 759.957,908.0994 759.977,948.0394" fill="none" id="DefinedTerm-to-Identifier" style="stroke:#404040;stroke-width:1.2;"/><polygon fill="#404040" points="759.98,954.0394,763.98,945.0394,759.98,949.0394,755.98,945.0394,759.98,954.0394" style="stroke:#404040;stroke-width:1.2;"/><text fill="#000000" font-family="sans-serif" font-size="36" lengthAdjust="spacing" textLength="136.0723" x="775.21" y="797.9805">identifier</text><text fill="#000000" font-family="sans-serif" font-size="36" lengthAdjust="spacing" textLength="60.0469" x="694.5938" y="938.1639">0..1</text></g><!--link DefinedTerm to XsdAnyUri--><g class="link" data-entity-1="ent0002" data-entity-2="ent0014" data-link-type="dependency" data-source-line="35" id="lnk15"><path codeLine="35" d="M884.06,634.7994 C894.71,674.3094 905.57,718.5694 913.21,759.6094 C924.17,818.4294 930.2672,881.2172 933.6872,925.4272" fill="none" id="DefinedTerm-to-XsdAnyUri" style="stroke:#404040;stroke-width:1.2;stroke-dasharray:7,7;"/><polygon fill="#404040" points="934.15,931.4094,937.4439,922.1277,933.7644,926.4243,929.4678,922.7447,934.15,931.4094" style="stroke:#404040;stroke-width:1.2;"/><text fill="#000000" font-family="sans-serif" font-size="36" lengthAdjust="spacing" textLength="290.127" x="921.21" y="797.9805">inDefinedTermSet</text></g><?plantuml-src bLDDRwD03BtpAwpajbLHqeyzH5MaR4ga77fgMgrKzU0mpc85FEdCe2Yjzh_l00McYTfLuGBFzdlp7iQnombkQSD2QaMcY39M12cRDAVccOgTEq11nPgCZUoMPOS62x0PAhrd-GCRp2q5bPanUh_AEDqAMGlZ-28e6fIjfHrSN8y2LBIY6Wr1HHiiSxVGukxvbU3oPr1CS_JSRn4qSdETQmF3gr5rU_2NDehCCHfI-K7d3AzBHpqyYlv6KKCz258P0Dem9HWkaaKoJshzCv-IEDum6PZ0idzv6iNn-Bdg42p8rwpNytazDQ3pH7FlEoXq0oo1sZqvt_FRgfaS7Wm7RQWKEzQ2-UgmevEc7y_UJki67LfoZPFc6OP9VKNj-_dv50RLtE23sGbiwR3tWTh_TnQ4jZHK-11Mb6R2BoMrHtX4mxZEwQxfKVLPZi7kK2U5LdFy7SsbM8UIKijMQnw3dUP9uLFD3ErI78aYLMLInV_vz4bALfSc_Sx0bnQxZMlCzGlOVT-0At2q3FUsN-AMjzkbchRVh9iRzUvuElK_mYovlhty8177qw3TKnyjS_GF?></g></svg>