<svg xmlns="http://www.w3.org/2000/svg" xmlns:xlink="http://www.w3.org/1999/xlink" contentStyleType="text/css" data-diagram-type="CLASS" height="503px" preserveAspectRatio="none" style="width:1367px;height:503px;background:#FFFFFF;" version="1.1" viewBox="0 0 1367 503" width="1367px" zoomAndPan="magnify"><?plantuml 1.2026.3?><defs/><g><g class="title" data-source-line="1"><text fill="#000000" font-family="sans-serif" font-size="14" font-weight="700" lengthAdjust="spacing" textLength="194.1748" x="583.0234" y="24.5332">CDIFProvenance &#8212; overview</text></g><!--class ProvActivity--><g class="entity" data-qualified-name="ProvActivity" data-source-line="12" id="ent0002"><rect fill="#FEFECE" height="25.0938" rx="2.5" ry="2.5" style="stroke:#404040;stroke-width:0.5;" width="68.6777" x="912" y="361.6094"/><text fill="#000000" font-family="sans-serif" font-size="12" lengthAdjust="spacing" textLength="62.6777" x="915" y="379.0664">ProvActivity</text></g><!--class Instrument--><g class="entity" data-qualified-name="Instrument" data-source-line="13" id="ent0003"><rect fill="#FEFECE" height="25.0938" rx="2.5" ry="2.5" style="stroke:#404040;stroke-width:0.5;" width="62.6895" x="846" y="464.6094"/><text fill="#000000" font-family="sans-serif" font-size="12" lengthAdjust="spacing" textLength="56.6895" x="849" y="482.0664">Instrument</text></g><!--class Dataset--><g class="entity" data-qualified-name="Dataset" data-source-line="14" id="ent0004"><rect fill="#FEFECE" height="25.0938" rx="2.5" ry="2.5" style="stroke:#404040;stroke-width:0.5;" width="47.3555" x="772" y="45.6094"/><text fill="#000000" font-family="sans-serif" font-size="12" lengthAdjust="spacing" textLength="41.3555" x="775" y="63.0664">Dataset</text></g><!--class AbstractDistribution--><g class="entity" data-qualified-name="AbstractDistribution" data-source-line="15" id="ent0005"><rect fill="#D6EAF8" height="25.0938" rx="2.5" ry="2.5" style="stroke:#404040;stroke-width:0.5;" width="110.0391" x="238.5" y="148.6094"/><text fill="#000000" font-family="sans-serif" font-size="12" font-style="italic" lengthAdjust="spacing" textLength="104.0391" x="241.5" y="166.0664">AbstractDistribution</text></g><!--class DataDownload--><g class="entity" data-qualified-name="DataDownload" data-source-line="16" id="ent0006"><rect fill="#FEFECE" height="25.0938" rx="2.5" ry="2.5" style="stroke:#404040;stroke-width:0.5;" width="84.7148" x="251" y="258.6094"/><text fill="#000000" font-family="sans-serif" font-size="12" lengthAdjust="spacing" textLength="78.7148" x="254" y="276.0664">DataDownload</text></g><!--class WebAPI--><g class="entity" data-qualified-name="WebAPI" data-source-line="17" id="ent0007"><rect fill="#FEFECE" height="25.0938" rx="2.5" ry="2.5" style="stroke:#404040;stroke-width:0.5;" width="50.0156" x="165.5" y="258.6094"/><text fill="#000000" font-family="sans-serif" font-size="12" lengthAdjust="spacing" textLength="44.0156" x="168.5" y="276.0664">WebAPI</text></g><!--class Action--><g class="entity" data-qualified-name="Action" data-source-line="18" id="ent0008"><rect fill="#D6EAF8" height="25.0938" rx="2.5" ry="2.5" style="stroke:#404040;stroke-width:0.5;" width="39.3516" x="171" y="361.6094"/><text fill="#000000" font-family="sans-serif" font-size="12" lengthAdjust="spacing" textLength="33.3516" x="174" y="379.0664">Action</text></g><!--class EntryPoint--><g class="entity" data-qualified-name="EntryPoint" data-source-line="19" id="ent0009"><rect fill="#D6EAF8" height="25.0938" rx="2.5" ry="2.5" style="stroke:#404040;stroke-width:0.5;" width="61.3594" x="301" y="464.6094"/><text fill="#000000" font-family="sans-serif" font-size="12" lengthAdjust="spacing" textLength="55.3594" x="304" y="482.0664">EntryPoint</text></g><!--class ActionResult--><g class="entity" data-qualified-name="ActionResult" data-source-line="20" id="ent0010"><rect fill="#FEFECE" height="25.0938" rx="2.5" ry="2.5" style="stroke:#404040;stroke-width:0.5;" width="73.3652" x="7" y="464.6094"/><text fill="#000000" font-family="sans-serif" font-size="12" lengthAdjust="spacing" textLength="67.3652" x="10" y="482.0664">ActionResult</text></g><!--class PropertyValueSpecification--><g class="entity" data-qualified-name="PropertyValueSpecification" data-source-line="21" id="ent0011"><rect fill="#D6EAF8" height="25.0938" rx="2.5" ry="2.5" style="stroke:#404040;stroke-width:0.5;" width="150.082" x="115.5" y="464.6094"/><text fill="#000000" font-family="sans-serif" font-size="12" lengthAdjust="spacing" textLength="144.082" x="118.5" y="482.0664">PropertyValueSpecification</text></g><!--class Agent--><g class="entity" data-qualified-name="Agent" data-source-line="22" id="ent0012"><rect fill="#D6EAF8" height="25.0938" rx="2.5" ry="2.5" style="stroke:#404040;stroke-width:0.5;" width="37.3594" x="686" y="361.6094"/><text fill="#000000" font-family="sans-serif" font-size="12" font-style="italic" lengthAdjust="spacing" textLength="31.3594" x="689" y="379.0664">Agent</text></g><!--class Person--><g class="entity" data-qualified-name="Person" data-source-line="23" id="ent0013"><rect fill="#D6EAF8" height="25.0938" rx="2.5" ry="2.5" style="stroke:#404040;stroke-width:0.5;" width="44.0215" x="944.5" y="464.6094"/><text fill="#000000" font-family="sans-serif" font-size="12" lengthAdjust="spacing" textLength="38.0215" x="947.5" y="482.0664">Person</text></g><!--class ContactPoint--><g class="entity" data-qualified-name="ContactPoint" data-source-line="24" id="ent0014"><rect fill="#D6EAF8" height="25.0938" rx="2.5" ry="2.5" style="stroke:#404040;stroke-width:0.5;" width="74.707" x="114" y="45.6094"/><text fill="#000000" font-family="sans-serif" font-size="12" lengthAdjust="spacing" textLength="68.707" x="117" y="63.0664">ContactPoint</text></g><!--class Organization--><g class="entity" data-qualified-name="Organization" data-source-line="25" id="ent0015"><rect fill="#D6EAF8" height="25.0938" rx="2.5" ry="2.5" style="stroke:#404040;stroke-width:0.5;" width="74.0391" x="696.5" y="464.6094"/><text fill="#000000" font-family="sans-serif" font-size="12" lengthAdjust="spacing" textLength="68.0391" x="699.5" y="482.0664">Organization</text></g><!--class Contributor--><g class="entity" data-qualified-name="Contributor" data-source-line="26" id="ent0016"><rect fill="#D6EAF8" height="25.0938" rx="2.5" ry="2.5" style="stroke:#404040;stroke-width:0.5;" width="65.3613" x="388" y="203.6094"/><text fill="#000000" font-family="sans-serif" font-size="12" lengthAdjust="spacing" textLength="59.3613" x="391" y="221.0664">Contributor</text></g><!--class DefinedTerm--><g class="entity" data-qualified-name="DefinedTerm" data-source-line="27" id="ent0017"><rect fill="#FEFECE" height="25.0938" rx="2.5" ry="2.5" style="stroke:#404040;stroke-width:0.5;" width="75.3574" x="870" y="148.6094"/><text fill="#000000" font-family="sans-serif" font-size="12" lengthAdjust="spacing" textLength="69.3574" x="873" y="166.0664">DefinedTerm</text></g><!--class Identifier--><g class="entity" data-qualified-name="Identifier" data-source-line="28" id="ent0018"><rect fill="#FEFECE" height="25.0938" rx="2.5" ry="2.5" style="stroke:#404040;stroke-width:0.5;" width="52.0254" x="224.5" y="45.6094"/><text fill="#000000" font-family="sans-serif" font-size="12" lengthAdjust="spacing" textLength="46.0254" x="227.5" y="63.0664">Identifier</text></g><!--class AdditionalProperty--><g class="entity" data-qualified-name="AdditionalProperty" data-source-line="29" id="ent0019"><rect fill="#D6EAF8" height="25.0938" rx="2.5" ry="2.5" style="stroke:#404040;stroke-width:0.5;" width="104.0566" x="99.5" y="148.6094"/><text fill="#000000" font-family="sans-serif" font-size="12" lengthAdjust="spacing" textLength="98.0566" x="102.5" y="166.0664">AdditionalProperty</text></g><!--class Reference--><g class="entity" data-qualified-name="Reference" data-source-line="30" id="ent0020"><rect fill="#D6EAF8" height="25.0938" rx="2.5" ry="2.5" style="stroke:#404040;stroke-width:0.5;" width="61.3652" x="980" y="148.6094"/><text fill="#000000" font-family="sans-serif" font-size="12" lengthAdjust="spacing" textLength="55.3652" x="983" y="166.0664">Reference</text></g><!--class MonetaryGrant--><g class="entity" data-qualified-name="MonetaryGrant" data-source-line="31" id="ent0021"><rect fill="#D6EAF8" height="25.0938" rx="2.5" ry="2.5" style="stroke:#404040;stroke-width:0.5;" width="86.0332" x="496.5" y="203.6094"/><text fill="#000000" font-family="sans-serif" font-size="12" lengthAdjust="spacing" textLength="80.0332" x="499.5" y="221.0664">MonetaryGrant</text></g><!--class DerivedFrom--><g class="entity" data-qualified-name="DerivedFrom" data-source-line="32" id="ent0022"><rect fill="#D6EAF8" height="25.0938" rx="2.5" ry="2.5" style="stroke:#404040;stroke-width:0.5;" width="75.3457" x="1148" y="148.6094"/><text fill="#000000" font-family="sans-serif" font-size="12" lengthAdjust="spacing" textLength="69.3457" x="1151" y="166.0664">DerivedFrom</text></g><!--class CatalogRecord--><g class="entity" data-qualified-name="CatalogRecord" data-source-line="33" id="ent0023"><rect fill="#FEFECE" height="25.0938" rx="2.5" ry="2.5" style="stroke:#404040;stroke-width:0.5;" width="86.0449" x="604.5" y="148.6094"/><text fill="#000000" font-family="sans-serif" font-size="12" lengthAdjust="spacing" textLength="80.0449" x="607.5" y="166.0664">CatalogRecord</text></g><!--reverse link AbstractDistribution to DataDownload--><g class="link" data-entity-1="ent0005" data-entity-2="ent0006" data-link-type="extension" data-source-line="34" id="lnk24"><path codeLine="34" d="M293.5,191.6694 C293.5,212.3494 293.5,237.4494 293.5,258.3094" fill="none" id="AbstractDistribution-backto-DataDownload" style="stroke:#404040;stroke-width:1.2;"/><polygon fill="none" points="293.5,173.6694,287.5,191.6694,299.5,191.6694,293.5,173.6694" style="stroke:#404040;stroke-width:1.2;"/></g><!--reverse link AbstractDistribution to WebAPI--><g class="link" data-entity-1="ent0005" data-entity-2="ent0007" data-link-type="extension" data-source-line="35" id="lnk25"><path codeLine="35" d="M270.058,186.6961 C250.338,207.3761 221.64,237.4494 201.76,258.3094" fill="none" id="AbstractDistribution-backto-WebAPI" style="stroke:#404040;stroke-width:1.2;"/><polygon fill="none" points="282.48,173.6694,265.7158,182.5554,274.4003,190.8367,282.48,173.6694" style="stroke:#404040;stroke-width:1.2;"/></g><!--reverse link Agent to Person--><g class="link" data-entity-1="ent0012" data-entity-2="ent0013" data-link-type="extension" data-source-line="36" id="lnk26"><path codeLine="36" d="M740.1345,388.8458 C787.3045,407.0358 893.51,447.9694 944.18,467.5094" fill="none" id="Agent-backto-Person" style="stroke:#404040;stroke-width:1.2;"/><polygon fill="none" points="723.34,382.3694,737.9757,394.444,742.2933,383.2476,723.34,382.3694" style="stroke:#404040;stroke-width:1.2;"/></g><!--reverse link Agent to Organization--><g class="link" data-entity-1="ent0012" data-entity-2="ent0015" data-link-type="extension" data-source-line="37" id="lnk27"><path codeLine="37" d="M712.7962,404.0007 C718.3562,423.3707 724.53,444.8494 730.12,464.3494" fill="none" id="Agent-backto-Organization" style="stroke:#404040;stroke-width:1.2;"/><polygon fill="none" points="707.83,386.6994,707.0291,405.6561,718.5633,402.3453,707.83,386.6994" style="stroke:#404040;stroke-width:1.2;"/></g><!--link ProvActivity to Instrument--><g class="link" data-entity-1="ent0002" data-entity-2="ent0003" data-link-type="dependency" data-source-line="38" id="lnk28"><path codeLine="38" d="M931.92,386.6194 C922.85,394.3594 911.44,405.1994 903.5,416.6094 C892.95,431.7894 887.136,446.2468 882.966,458.7668" fill="none" id="ProvActivity-to-Instrument" style="stroke:#404040;stroke-width:1.2;"/><polygon fill="#404040" points="881.07,464.4594,887.709,457.1845,882.65,459.7156,880.119,454.6565,881.07,464.4594" style="stroke:#404040;stroke-width:1.2;"/><text fill="#000000" font-family="sans-serif" font-size="13" lengthAdjust="spacing" textLength="27.46" x="904.5" y="431.1045">uses</text><text fill="#000000" font-family="sans-serif" font-size="13" lengthAdjust="spacing" textLength="19.5127" x="859.8971" y="453.8743">0..*</text></g><!--link ProvActivity to Person--><g class="link" data-entity-1="ent0002" data-entity-2="ent0013" data-link-type="dependency" data-source-line="39" id="lnk29"><path codeLine="39" d="M943.89,386.7194 C941.62,398.8694 939.31,418.3894 943.5,434.6094 C946.3,445.4594 949.2904,451.498 954.6004,459.458" fill="none" id="ProvActivity-to-Person" style="stroke:#404040;stroke-width:1.2;"/><polygon fill="#404040" points="957.93,464.4494,956.2631,454.7426,955.1553,460.2899,949.608,459.1821,957.93,464.4494" style="stroke:#404040;stroke-width:1.2;"/><text fill="#000000" font-family="sans-serif" font-size="13" lengthAdjust="spacing" textLength="32.5317" x="944.5" y="431.1045">agent</text><text fill="#000000" font-family="sans-serif" font-size="13" lengthAdjust="spacing" textLength="21.6836" x="929.5515" y="453.8604">0..1</text></g><!--link ProvActivity to Person--><g class="link" data-entity-1="ent0002" data-entity-2="ent0013" data-link-type="dependency" data-source-line="41" id="lnk31"><path codeLine="41" d="M960.17,386.6594 C968.06,394.2594 977.23,404.9194 981.5,416.6094 C987.42,432.8194 982.6226,447.0236 976.2626,459.1736" fill="none" id="ProvActivity-to-Person-1" style="stroke:#404040;stroke-width:1.2;"/><polygon fill="#404040" points="973.48,464.4894,981.1977,458.3708,975.7988,460.0596,974.11,454.6607,973.48,464.4894" style="stroke:#404040;stroke-width:1.2;"/><text fill="#000000" font-family="sans-serif" font-size="13" lengthAdjust="spacing" textLength="59.979" x="984.5" y="431.1045">participant</text><text fill="#000000" font-family="sans-serif" font-size="13" lengthAdjust="spacing" textLength="19.5127" x="980.3793" y="453.5319">0..*</text></g><!--link ProvActivity to Organization--><g class="link" data-entity-1="ent0002" data-entity-2="ent0015" data-link-type="dependency" data-source-line="40" id="lnk30"><path codeLine="40" d="M918.88,386.6994 C899.83,394.8094 873.98,406.0394 851.5,416.6094 C817.66,432.5194 784.392,449.5188 760.822,461.7888" fill="none" id="ProvActivity-to-Organization" style="stroke:#404040;stroke-width:1.2;"/><polygon fill="#404040" points="755.5,464.5594,765.3301,463.9516,759.935,462.2506,761.636,456.8555,755.5,464.5594" style="stroke:#404040;stroke-width:1.2;"/><text fill="#000000" font-family="sans-serif" font-size="13" lengthAdjust="spacing" textLength="32.5317" x="852.5" y="431.1045">agent</text><text fill="#000000" font-family="sans-serif" font-size="13" lengthAdjust="spacing" textLength="21.6836" x="739.3767" y="453.6308">0..1</text></g><!--reverse link Dataset to ProvActivity--><g class="link" data-entity-1="ent0004" data-entity-2="ent0002" data-link-type="composition" data-source-line="42" id="lnk32"><path codeLine="42" d="M831.1283,59.6511 C920.3383,61.1511 1221.19,68.4994 1250.5,100.6094 C1351.81,211.5794 1076.84,325.6294 979.33,361.5594" fill="none" id="Dataset-backto-ProvActivity" style="stroke:#404040;stroke-width:1.2;"/><polygon fill="#404040" points="819.13,59.4494,825.0619,63.5497,831.1283,59.6511,825.1964,55.5508,819.13,59.4494" style="stroke:#404040;stroke-width:1.2;"/><text fill="#000000" font-family="sans-serif" font-size="13" lengthAdjust="spacing" textLength="99.7217" x="1251.5" y="221.6045">wasGeneratedBy</text><text fill="#000000" font-family="sans-serif" font-size="13" lengthAdjust="spacing" textLength="19.5127" x="970.1258" y="350.6308">0..*</text></g><!--link Dataset to Agent--><g class="link" data-entity-1="ent0004" data-entity-2="ent0012" data-link-type="dependency" data-source-line="43" id="lnk33"><path codeLine="43" d="M789.75,70.7194 C778.16,94.7894 752.3,152.1594 742.5,203.6094 C735.84,238.5494 747.7,248.7794 740.5,283.6094 C734.47,312.8094 722.1682,339.3358 713.5582,356.0458" fill="none" id="Dataset-to-Agent" style="stroke:#404040;stroke-width:1.2;"/><polygon fill="#404040" points="710.81,361.3794,718.488,355.2111,713.1002,356.9347,711.3766,351.5468,710.81,361.3794" style="stroke:#404040;stroke-width:1.2;"/><text fill="#000000" font-family="sans-serif" font-size="13" lengthAdjust="spacing" textLength="46.9663" x="743.5" y="221.6045">provider</text><text fill="#000000" font-family="sans-serif" font-size="13" lengthAdjust="spacing" textLength="19.5127" x="717.0654" y="350.7628">0..*</text></g><!--link Dataset to Agent--><g class="link" data-entity-1="ent0004" data-entity-2="ent0012" data-link-type="dependency" data-source-line="45" id="lnk35"><path codeLine="45" d="M796.9,70.7694 C799.92,98.4594 805.86,170.2594 794.5,228.6094 C785.08,276.9694 782.27,291.6094 753.5,331.6094 C745.04,343.3794 737.3816,350.3455 727.1216,357.8555" fill="none" id="Dataset-to-Agent-1" style="stroke:#404040;stroke-width:1.2;"/><polygon fill="#404040" points="722.28,361.3994,731.905,359.3113,726.3146,358.4461,727.1798,352.8558,722.28,361.3994" style="stroke:#404040;stroke-width:1.2;"/><text fill="#000000" font-family="sans-serif" font-size="13" lengthAdjust="spacing" textLength="40.46" x="798.5" y="221.6045">creator</text><text fill="#000000" font-family="sans-serif" font-size="13" lengthAdjust="spacing" textLength="19.5127" x="731.3419" y="373.377">0..*</text></g><!--link Dataset to Agent--><g class="link" data-entity-1="ent0004" data-entity-2="ent0012" data-link-type="dependency" data-source-line="47" id="lnk37"><path codeLine="47" d="M819.23,59.9094 C893.21,63.3894 1111.61,81.5094 1058.5,173.6094 C982.73,304.9994 790.4085,355.1601 728.8685,368.2601" fill="none" id="Dataset-to-Agent-2" style="stroke:#404040;stroke-width:1.2;"/><polygon fill="#404040" points="723,369.5094,732.6356,371.5479,727.8904,368.4684,730.9699,363.7232,723,369.5094" style="stroke:#404040;stroke-width:1.2;"/><text fill="#000000" font-family="sans-serif" font-size="13" lengthAdjust="spacing" textLength="52.7554" x="1037.5" y="221.6045">publisher</text><text fill="#000000" font-family="sans-serif" font-size="13" lengthAdjust="spacing" textLength="21.6836" x="731.2018" y="383.997">0..1</text></g><!--link Dataset to AbstractDistribution--><g class="link" data-entity-1="ent0004" data-entity-2="ent0005" data-link-type="dependency" data-source-line="44" id="lnk34"><path codeLine="44" d="M771.86,59.7894 C681.01,62.5894 357.62,74.3394 320.5,100.6094 C304.76,111.7494 299.1869,128.4439 296.4269,142.3639" fill="none" id="Dataset-to-AbstractDistribution" style="stroke:#404040;stroke-width:1.2;"/><polygon fill="#404040" points="295.26,148.2494,300.934,140.1992,296.2324,143.3449,293.0868,138.6433,295.26,148.2494" style="stroke:#404040;stroke-width:1.2;"/><text fill="#000000" font-family="sans-serif" font-size="13" lengthAdjust="spacing" textLength="62.8672" x="321.5" y="115.1045">distribution</text><text fill="#000000" font-family="sans-serif" font-size="13" lengthAdjust="spacing" textLength="19.5127" x="273.3994" y="137.8408">0..*</text></g><!--link Dataset to Contributor--><g class="link" data-entity-1="ent0004" data-entity-2="ent0016" data-link-type="dependency" data-source-line="46" id="lnk36"><path codeLine="46" d="M771.69,59.4094 C706.3,60.6694 525.73,67.1794 478.5,100.6094 C442.85,125.8494 429.0477,173.6927 423.9477,197.4827" fill="none" id="Dataset-to-Contributor" style="stroke:#404040;stroke-width:1.2;"/><polygon fill="#404040" points="422.69,203.3494,428.4877,195.3878,423.7381,198.4605,420.6654,193.7109,422.69,203.3494" style="stroke:#404040;stroke-width:1.2;"/><text fill="#000000" font-family="sans-serif" font-size="13" lengthAdjust="spacing" textLength="61.4199" x="479.5" y="115.1045">contributor</text><text fill="#000000" font-family="sans-serif" font-size="13" lengthAdjust="spacing" textLength="19.5127" x="400.8415" y="192.721">0..*</text></g><!--link Dataset to MonetaryGrant--><g class="link" data-entity-1="ent0004" data-entity-2="ent0021" data-link-type="dependency" data-source-line="48" id="lnk38"><path codeLine="48" d="M771.94,60.0294 C718.82,62.6194 592.02,71.7294 562.5,100.6094 C534.24,128.2594 535.1004,174.2484 537.3904,197.4384" fill="none" id="Dataset-to-MonetaryGrant" style="stroke:#404040;stroke-width:1.2;"/><polygon fill="#404040" points="537.98,203.4094,541.0762,194.0599,537.4886,198.4336,533.1149,194.846,537.98,203.4094" style="stroke:#404040;stroke-width:1.2;"/><text fill="#000000" font-family="sans-serif" font-size="13" lengthAdjust="spacing" textLength="42.6499" x="563.5" y="115.1045">funding</text><text fill="#000000" font-family="sans-serif" font-size="13" lengthAdjust="spacing" textLength="19.5127" x="514.7353" y="192.8046">0..*</text></g><!--link Dataset to DerivedFrom--><g class="link" data-entity-1="ent0004" data-entity-2="ent0022" data-link-type="dependency" data-source-line="49" id="lnk39"><path codeLine="49" d="M819.33,60.4794 C883.96,64.4594 1061.31,77.2694 1114.5,100.6094 C1139.54,111.5894 1158.5957,129.7882 1171.2857,143.7582" fill="none" id="Dataset-to-DerivedFrom" style="stroke:#404040;stroke-width:1.2;"/><polygon fill="#404040" points="1175.32,148.1994,1172.2294,138.848,1171.9581,144.4984,1166.3077,144.2271,1175.32,148.1994" style="stroke:#404040;stroke-width:1.2;"/><text fill="#000000" font-family="sans-serif" font-size="13" lengthAdjust="spacing" textLength="98.2427" x="1143.5" y="115.1045">wasDerivedFrom</text><text fill="#000000" font-family="sans-serif" font-size="13" lengthAdjust="spacing" textLength="19.5127" x="1148.8488" y="137.7717">0..*</text></g><!--link Dataset to CatalogRecord--><g class="link" data-entity-1="ent0004" data-entity-2="ent0023" data-link-type="dependency" data-source-line="50" id="lnk40"><path codeLine="50" d="M771.85,61.1294 C728.32,65.3894 638.25,76.9194 619.5,100.6094 C607.88,115.2894 618.4977,131.2387 630.6077,143.9287" fill="none" id="Dataset-to-CatalogRecord" style="stroke:#404040;stroke-width:1.2;"/><polygon fill="#404040" points="634.75,148.2694,631.4304,138.9968,631.2981,144.6521,625.6428,144.5199,634.75,148.2694" style="stroke:#404040;stroke-width:1.2;"/><text fill="#000000" font-family="sans-serif" font-size="13" lengthAdjust="spacing" textLength="54.9136" x="620.5" y="115.1045">subjectOf</text><text fill="#000000" font-family="sans-serif" font-size="13" lengthAdjust="spacing" textLength="7.23" x="621.59" y="137.8684">1</text></g><!--link CatalogRecord to Dataset--><g class="link" data-entity-1="ent0023" data-entity-2="ent0004" data-link-type="dependency" data-source-line="60" id="lnk50"><path codeLine="60" d="M659.3,148.1994 C672.32,135.4494 694.25,115.1094 715.5,100.6094 C733.47,88.3494 750.0743,79.7098 766.4643,72.0498" fill="none" id="CatalogRecord-to-Dataset" style="stroke:#404040;stroke-width:1.2;"/><polygon fill="#404040" points="771.9,69.5094,762.0529,69.6962,767.3703,71.6264,765.4401,76.9437,771.9,69.5094" style="stroke:#404040;stroke-width:1.2;"/><text fill="#000000" font-family="sans-serif" font-size="13" lengthAdjust="spacing" textLength="32.5317" x="716.5" y="115.1045">about</text><text fill="#000000" font-family="sans-serif" font-size="13" lengthAdjust="spacing" textLength="21.6836" x="742.2039" y="67.9088">0..1</text></g><!--link Dataset to DefinedTerm--><g class="link" data-entity-1="ent0004" data-entity-2="ent0017" data-link-type="dependency" data-source-line="51" id="lnk41"><path codeLine="51" d="M808.72,70.6694 C818.17,78.9594 831.17,90.4194 842.5,100.6094 C860.7,116.9794 877.1304,132.0605 890.2004,144.1205" fill="none" id="Dataset-to-DefinedTerm" style="stroke:#404040;stroke-width:1.2;"/><polygon fill="#404040" points="894.61,148.1894,890.7082,139.1464,890.9353,144.7987,885.283,145.0258,894.61,148.1894" style="stroke:#404040;stroke-width:1.2;"/><text fill="#000000" font-family="sans-serif" font-size="13" lengthAdjust="spacing" textLength="54.9072" x="862.5" y="115.1045">keywords</text><text fill="#000000" font-family="sans-serif" font-size="13" lengthAdjust="spacing" textLength="19.5127" x="867.1034" y="137.7579">0..*</text></g><!--link Dataset to Reference--><g class="link" data-entity-1="ent0004" data-entity-2="ent0020" data-link-type="dependency" data-source-line="52" id="lnk42"><path codeLine="52" d="M819.34,64.4194 C846.06,70.8894 890.26,83.1594 925.5,100.6094 C952.46,113.9594 975.7667,131.4217 991.9467,144.5917" fill="none" id="Dataset-to-Reference" style="stroke:#404040;stroke-width:1.2;"/><polygon fill="#404040" points="996.6,148.3794,992.1451,139.5956,992.7222,145.223,987.0949,145.8001,996.6,148.3794" style="stroke:#404040;stroke-width:1.2;"/><text fill="#000000" font-family="sans-serif" font-size="13" lengthAdjust="spacing" textLength="40.4663" x="955.5" y="115.1045">license</text><text fill="#000000" font-family="sans-serif" font-size="13" lengthAdjust="spacing" textLength="19.5127" x="968.4153" y="137.7628">0..*</text></g><!--link DataDownload to Agent--><g class="link" data-entity-1="ent0006" data-entity-2="ent0012" data-link-type="dependency" data-source-line="53" id="lnk43"><path codeLine="53" d="M297.69,284.0194 C303.28,297.9894 314.61,320.6194 332.5,331.6094 C392.72,368.5994 613.1401,372.6534 679.8801,373.0534" fill="none" id="DataDownload-to-Agent" style="stroke:#404040;stroke-width:1.2;"/><polygon fill="#404040" points="685.88,373.0894,676.9041,369.0355,680.8801,373.0594,676.8562,377.0354,685.88,373.0894" style="stroke:#404040;stroke-width:1.2;"/><text fill="#000000" font-family="sans-serif" font-size="13" lengthAdjust="spacing" textLength="46.9663" x="333.5" y="328.1045">provider</text><text fill="#000000" font-family="sans-serif" font-size="13" lengthAdjust="spacing" textLength="19.5127" x="658.6423" y="388.6727">0..*</text></g><!--link WebAPI to Action--><g class="link" data-entity-1="ent0007" data-entity-2="ent0008" data-link-type="dependency" data-source-line="54" id="lnk44"><path codeLine="54" d="M190.5,283.6994 C190.5,303.0694 190.5,335.8494 190.5,355.3494" fill="none" id="WebAPI-to-Action" style="stroke:#404040;stroke-width:1.2;"/><polygon fill="#404040" points="190.5,361.3494,194.5,352.3494,190.5,356.3494,186.5,352.3494,190.5,361.3494" style="stroke:#404040;stroke-width:1.2;"/><text fill="#000000" font-family="sans-serif" font-size="13" lengthAdjust="spacing" textLength="85.2808" x="191.5" y="328.1045">potentialAction</text><text fill="#000000" font-family="sans-serif" font-size="13" lengthAdjust="spacing" textLength="19.5127" x="167.7911" y="350.721">0..*</text></g><!--link Action to EntryPoint--><g class="link" data-entity-1="ent0008" data-entity-2="ent0009" data-link-type="dependency" data-source-line="55" id="lnk45"><path codeLine="55" d="M210.05,385.3294 C224.64,393.2394 244.84,404.7994 261.5,416.6094 C282.84,431.7394 301.1634,447.8273 314.7334,460.3673" fill="none" id="Action-to-EntryPoint" style="stroke:#404040;stroke-width:1.2;"/><polygon fill="#404040" points="319.14,464.4394,315.2449,455.3935,315.4679,461.046,309.8154,461.2689,319.14,464.4394" style="stroke:#404040;stroke-width:1.2;"/><text fill="#000000" font-family="sans-serif" font-size="13" lengthAdjust="spacing" textLength="33.2427" x="285.5" y="431.1045">target</text><text fill="#000000" font-family="sans-serif" font-size="13" lengthAdjust="spacing" textLength="7.23" x="305.8697" y="453.8464">1</text></g><!--link Action to ActionResult--><g class="link" data-entity-1="ent0008" data-entity-2="ent0010" data-link-type="dependency" data-source-line="56" id="lnk46"><path codeLine="56" d="M173.64,386.6994 C145.43,406.0694 93.9346,441.4507 65.5646,460.9507" fill="none" id="Action-to-ActionResult" style="stroke:#404040;stroke-width:1.2;"/><polygon fill="#404040" points="60.62,464.3494,70.3027,462.5478,64.7405,461.5172,65.7711,455.955,60.62,464.3494" style="stroke:#404040;stroke-width:1.2;"/><text fill="#000000" font-family="sans-serif" font-size="13" lengthAdjust="spacing" textLength="31.7891" x="127.5" y="431.1045">result</text><text fill="#000000" font-family="sans-serif" font-size="13" lengthAdjust="spacing" textLength="21.6836" x="42.2893" y="453.721">0..1</text></g><!--link Action to PropertyValueSpecification--><g class="link" data-entity-1="ent0008" data-entity-2="ent0011" data-link-type="dependency" data-source-line="57" id="lnk47"><path codeLine="57" d="M190.5,386.6994 C190.5,406.0694 190.5,438.8494 190.5,458.3494" fill="none" id="Action-to-PropertyValueSpecification" style="stroke:#404040;stroke-width:1.2;"/><polygon fill="#404040" points="190.5,464.3494,194.5,455.3494,190.5,459.3494,186.5,455.3494,190.5,464.3494" style="stroke:#404040;stroke-width:1.2;"/><text fill="#000000" font-family="sans-serif" font-size="13" lengthAdjust="spacing" textLength="61.4326" x="191.5" y="431.1045">queryInput</text><text fill="#000000" font-family="sans-serif" font-size="13" lengthAdjust="spacing" textLength="19.5127" x="167.8442" y="453.721">0..*</text></g><!--link Contributor to Agent--><g class="link" data-entity-1="ent0016" data-entity-2="ent0012" data-link-type="dependency" data-source-line="58" id="lnk48"><path codeLine="58" d="M428.85,228.7694 C439.66,243.1894 459.7,267.7594 481.5,283.6094 C548.48,332.3094 639.8258,357.8888 680.1058,367.5588" fill="none" id="Contributor-to-Agent" style="stroke:#404040;stroke-width:1.2;"/><polygon fill="#404040" points="685.94,368.9594,678.1224,362.969,681.0781,367.7922,676.2549,370.7479,685.94,368.9594" style="stroke:#404040;stroke-width:1.2;"/><text fill="#000000" font-family="sans-serif" font-size="13" lengthAdjust="spacing" textLength="61.4199" x="482.5" y="276.6045">contributor</text><text fill="#000000" font-family="sans-serif" font-size="13" lengthAdjust="spacing" textLength="21.6836" x="656.4512" y="362.6295">0..1</text></g><!--link MonetaryGrant to Agent--><g class="link" data-entity-1="ent0021" data-entity-2="ent0012" data-link-type="dependency" data-source-line="59" id="lnk49"><path codeLine="59" d="M542.43,228.7394 C546.33,242.6994 554.2,266.3594 566.5,283.6094 C597.17,326.6194 650.0075,351.9852 680.0475,363.9752" fill="none" id="MonetaryGrant-to-Agent" style="stroke:#404040;stroke-width:1.2;"/><polygon fill="#404040" points="685.62,366.1994,678.744,359.1481,680.9762,364.3459,675.7784,366.5781,685.62,366.1994" style="stroke:#404040;stroke-width:1.2;"/><text fill="#000000" font-family="sans-serif" font-size="13" lengthAdjust="spacing" textLength="36.8608" x="567.5" y="276.6045">funder</text><text fill="#000000" font-family="sans-serif" font-size="13" lengthAdjust="spacing" textLength="19.5127" x="677.9447" y="350.6751">0..*</text></g><!--link CatalogRecord to Agent--><g class="link" data-entity-1="ent0023" data-entity-2="ent0012" data-link-type="dependency" data-source-line="61" id="lnk51"><path codeLine="61" d="M649.7,173.9394 C653.86,195.7794 663.45,243.8394 674.5,283.6094 C682.35,311.8694 691.8244,338.7362 698.0544,355.7262" fill="none" id="CatalogRecord-to-Agent" style="stroke:#404040;stroke-width:1.2;"/><polygon fill="#404040" points="700.12,361.3594,700.777,351.5325,698.3986,356.665,693.2661,354.2866,700.12,361.3594" style="stroke:#404040;stroke-width:1.2;"/><text fill="#000000" font-family="sans-serif" font-size="13" lengthAdjust="spacing" textLength="60.6963" x="675.5" y="276.6045">maintainer</text><text fill="#000000" font-family="sans-serif" font-size="13" lengthAdjust="spacing" textLength="21.6836" x="702.5936" y="350.7349">0..1</text></g><?plantuml-src VLLRQzim57xthn3fMo6bAMCCCmPfBYKFew4jsxCidoHQRScJv0Ht6-n7x1Vkb_JOyaMsbH12T8u-dSjtBZ7S940Moyrwg-GH11KCoF-__mWAwiZX51nu38HnnHAmPqWpKv0KqWYK3lGh5nbLD2NwG6Dvuc9FTZJHuDpCbPAdbmDdhmAq9hERE-UI9HHrlm9YOGkPI4MkFjoM7rJUInM36chNKfXd_WPaTXVy2G9hOrAcC6U67xaf9eHguYh8rNgrNYrM3NWZj55v2i9Kq4uS0fVKK0qMLPzR28tm5MMcpc8oh-KbnryUvOPBKJtqNP2hvSVLVFt9TRIK9v586hVU6iKmgkyGpRUR2cQFGq2PT-ES-TojX575LlAQW4uS0ktp9z1vOXnxLZ5qYvHde4pnZIOvF6V0-8upsePo_hhrEk9qtzIeEWsZss8NDiQhun2mm5v1Srschc88VbHxAlXR5x2hy5ckYYbLQxYMHxM57HSGlu1ARMaxUTIOCMQ9j80rsecZ2iSnByEYISEgPMca7WRp13jGW9DUuLjf2Fig1HYgYWT5Q-Pwcd6AYXyXNYlPfDZA8-AmiHEvVmA6qssfSpLjejwf-VnxEksDnWMO7Ot0DawbiJtYQjmA1xsDCPr-8PFRcvlhYRiUGf9hq7xaRD8qOKXewU8ihDTN5y7NZarScOOpdY7zGREBhZ671kU-3yc9wWSGeAY1-Bve7pY6BGre5n_YRbTUZ8_TaCIEUCaqKq1n87mGTruGs4aZyCm9DOyIhW_-MFiD6f9TBcByH_91tVQig78KVJmwxxTdI7GU_G1c7dT-ozriX-GLYXC-qZvaDteXIJW3WN-RlQL_gLJrsdSXhAvD9asvD6XYDK5zqMJZhFgG85rxC3r8JRYxvKEYgiCGPvlkt4eFoSySLB4HMMu2jzgUkhhbxvVHGq9PLwIWNnR7QCCr3bOaIz_dW8t1b28R-4MZxm00?></g></svg>