<svg xmlns="http://www.w3.org/2000/svg" xmlns:xlink="http://www.w3.org/1999/xlink" contentStyleType="text/css" data-diagram-type="CLASS" height="1513px" preserveAspectRatio="none" style="width:2726px;height:1513px;background:#FFFFFF;" version="1.1" viewBox="0 0 2726 1513" width="2726px" zoomAndPan="magnify"><?plantuml 1.2026.3?><defs/><g><g class="title" data-source-line="1"><text fill="#000000" font-family="sans-serif" font-size="14" font-weight="700" lengthAdjust="spacing" textLength="194.1748" x="1262.6909" y="24.5332">CDIFProvenance &#8212; overview</text></g><!--class ProvActivity--><g class="entity" data-qualified-name="ProvActivity" data-source-line="16" id="ent0002"><rect fill="#FEFECE" height="47.7344" rx="2.5" ry="2.5" style="stroke:#404040;stroke-width:0.5;" width="162.6943" x="697" y="1107.033"/><text fill="#000000" font-family="sans-serif" font-size="30" lengthAdjust="spacing" textLength="156.6943" x="700" y="1143.1756">ProvActivity</text></g><!--class Instrument--><g class="entity" data-qualified-name="Instrument" data-source-line="17" id="ent0003"><rect fill="#FEFECE" height="47.7344" rx="2.5" ry="2.5" style="stroke:#404040;stroke-width:0.5;" width="147.7236" x="601.5" y="1452.033"/><text fill="#000000" font-family="sans-serif" font-size="30" lengthAdjust="spacing" textLength="141.7236" x="604.5" y="1488.1756">Instrument</text></g><!--class Dataset--><g class="entity" data-qualified-name="Dataset" data-source-line="18" id="ent0004"><rect fill="#FEFECE" height="47.7344" rx="2.5" ry="2.5" style="stroke:#404040;stroke-width:0.5;" width="109.3887" x="1516" y="71.033"/><text fill="#000000" font-family="sans-serif" font-size="30" lengthAdjust="spacing" textLength="103.3887" x="1519" y="107.1756">Dataset</text></g><!--class AbstractDistribution--><g class="entity" data-qualified-name="AbstractDistribution" data-source-line="19" id="ent0005"><rect fill="#D6EAF8" height="47.7344" rx="2.5" ry="2.5" style="stroke:#404040;stroke-width:0.5;" width="266.0977" x="1213.5" y="416.033"/><text fill="#000000" font-family="sans-serif" font-size="30" font-style="italic" lengthAdjust="spacing" textLength="260.0977" x="1216.5" y="452.1756">AbstractDistribution</text></g><!--class DataDownload--><g class="entity" data-qualified-name="DataDownload" data-source-line="20" id="ent0006"><rect fill="#FEFECE" height="47.7344" rx="2.5" ry="2.5" style="stroke:#404040;stroke-width:0.5;" width="202.7871" x="1214" y="762.033"/><text fill="#000000" font-family="sans-serif" font-size="30" lengthAdjust="spacing" textLength="196.7871" x="1217" y="798.1756">DataDownload</text></g><!--class WebAPI--><g class="entity" data-qualified-name="WebAPI" data-source-line="21" id="ent0007"><rect fill="#FCF3CF" height="47.7344" rx="2.5" ry="2.5" style="stroke:#404040;stroke-width:0.5;" width="116.0391" x="2003.5" y="762.033"/><text fill="#000000" font-family="sans-serif" font-size="30" lengthAdjust="spacing" textLength="110.0391" x="2006.5" y="798.1756">WebAPI</text></g><!--class Action--><g class="entity" data-qualified-name="Action" data-source-line="22" id="ent0008"><rect fill="#D6EAF8" height="47.7344" rx="2.5" ry="2.5" style="stroke:#404040;stroke-width:0.5;" width="89.3789" x="2017" y="1107.033"/><text fill="#000000" font-family="sans-serif" font-size="30" lengthAdjust="spacing" textLength="83.3789" x="2020" y="1143.1756">Action</text></g><!--class EntryPoint--><g class="entity" data-qualified-name="EntryPoint" data-source-line="23" id="ent0009"><rect fill="#D6EAF8" height="47.7344" rx="2.5" ry="2.5" style="stroke:#404040;stroke-width:0.5;" width="144.3984" x="1810.5" y="1452.033"/><text fill="#000000" font-family="sans-serif" font-size="30" lengthAdjust="spacing" textLength="138.3984" x="1813.5" y="1488.1756">EntryPoint</text></g><!--class ActionResult--><g class="entity" data-qualified-name="ActionResult" data-source-line="24" id="ent0010"><rect fill="#FCF3CF" height="47.7344" rx="2.5" ry="2.5" style="stroke:#404040;stroke-width:0.5;" width="174.4131" x="1974.5" y="1452.033"/><text fill="#000000" font-family="sans-serif" font-size="30" lengthAdjust="spacing" textLength="168.4131" x="1977.5" y="1488.1756">ActionResult</text></g><!--class PropertyValueSpecification--><g class="entity" data-qualified-name="PropertyValueSpecification" data-source-line="25" id="ent0011"><rect fill="#D6EAF8" height="47.7344" rx="2.5" ry="2.5" style="stroke:#404040;stroke-width:0.5;" width="366.2051" x="2168.5" y="1452.033"/><text fill="#000000" font-family="sans-serif" font-size="30" lengthAdjust="spacing" textLength="360.2051" x="2171.5" y="1488.1756">PropertyValueSpecification</text></g><!--class Agent--><g class="entity" data-qualified-name="Agent" data-source-line="26" id="ent0012"><rect fill="#D6EAF8" height="47.7344" rx="2.5" ry="2.5" style="stroke:#404040;stroke-width:0.5;" width="84.3984" x="1181.5" y="1107.033"/><text fill="#000000" font-family="sans-serif" font-size="30" font-style="italic" lengthAdjust="spacing" textLength="78.3984" x="1184.5" y="1143.1756">Agent</text></g><!--class Person--><g class="entity" data-qualified-name="Person" data-source-line="27" id="ent0013"><rect fill="#D6EAF8" height="47.7344" rx="2.5" ry="2.5" style="stroke:#404040;stroke-width:0.5;" width="101.0537" x="845" y="1452.033"/><text fill="#000000" font-family="sans-serif" font-size="30" lengthAdjust="spacing" textLength="95.0537" x="848" y="1488.1756">Person</text></g><!--class ContactPoint--><g class="entity" data-qualified-name="ContactPoint" data-source-line="28" id="ent0014"><rect fill="#D6EAF8" height="47.7344" rx="2.5" ry="2.5" style="stroke:#404040;stroke-width:0.5;" width="177.7676" x="43.5" y="71.033"/><text fill="#000000" font-family="sans-serif" font-size="30" lengthAdjust="spacing" textLength="171.7676" x="46.5" y="107.1756">ContactPoint</text></g><!--class Organization--><g class="entity" data-qualified-name="Organization" data-source-line="29" id="ent0015"><rect fill="#D6EAF8" height="47.7344" rx="2.5" ry="2.5" style="stroke:#404040;stroke-width:0.5;" width="176.0977" x="1081.5" y="1452.033"/><text fill="#000000" font-family="sans-serif" font-size="30" lengthAdjust="spacing" textLength="170.0977" x="1084.5" y="1488.1756">Organization</text></g><!--class Contributor--><g class="entity" data-qualified-name="Contributor" data-source-line="30" id="ent0016"><rect fill="#D6EAF8" height="47.7344" rx="2.5" ry="2.5" style="stroke:#404040;stroke-width:0.5;" width="154.4033" x="1394.5" y="589.033"/><text fill="#000000" font-family="sans-serif" font-size="30" lengthAdjust="spacing" textLength="148.4033" x="1397.5" y="625.1756">Contributor</text></g><!--class DefinedTerm--><g class="entity" data-qualified-name="DefinedTerm" data-source-line="31" id="ent0017"><rect fill="#FAE5D3" height="47.7344" rx="2.5" ry="2.5" style="stroke:#404040;stroke-width:0.5;" width="179.3936" x="2019" y="416.033"/><text fill="#000000" font-family="sans-serif" font-size="30" lengthAdjust="spacing" textLength="173.3936" x="2022" y="452.1756">DefinedTerm</text></g><!--class Identifier--><g class="entity" data-qualified-name="Identifier" data-source-line="32" id="ent0018"><rect fill="#D6EAF8" height="47.7344" rx="2.5" ry="2.5" style="stroke:#404040;stroke-width:0.5;" width="121.0635" x="242" y="71.033"/><text fill="#000000" font-family="sans-serif" font-size="30" lengthAdjust="spacing" textLength="115.0635" x="245" y="107.1756">Identifier</text></g><!--class AdditionalProperty--><g class="entity" data-qualified-name="AdditionalProperty" data-source-line="33" id="ent0019"><rect fill="#D6EAF8" height="47.7344" rx="2.5" ry="2.5" style="stroke:#404040;stroke-width:0.5;" width="251.1416" x="7" y="416.033"/><text fill="#000000" font-family="sans-serif" font-size="30" lengthAdjust="spacing" textLength="245.1416" x="10" y="452.1756">AdditionalProperty</text></g><!--class Reference--><g class="entity" data-qualified-name="Reference" data-source-line="34" id="ent0020"><rect fill="#D6EAF8" height="47.7344" rx="2.5" ry="2.5" style="stroke:#404040;stroke-width:0.5;" width="144.4131" x="2218.5" y="416.033"/><text fill="#000000" font-family="sans-serif" font-size="30" lengthAdjust="spacing" textLength="138.4131" x="2221.5" y="452.1756">Reference</text></g><!--class MonetaryGrant--><g class="entity" data-qualified-name="MonetaryGrant" data-source-line="35" id="ent0021"><rect fill="#D6EAF8" height="47.7344" rx="2.5" ry="2.5" style="stroke:#404040;stroke-width:0.5;" width="206.083" x="1566.5" y="589.033"/><text fill="#000000" font-family="sans-serif" font-size="30" lengthAdjust="spacing" textLength="200.083" x="1569.5" y="625.1756">MonetaryGrant</text></g><!--class DerivedFrom--><g class="entity" data-qualified-name="DerivedFrom" data-source-line="36" id="ent0022"><rect fill="#D6EAF8" height="47.7344" rx="2.5" ry="2.5" style="stroke:#404040;stroke-width:0.5;" width="179.3643" x="2383" y="416.033"/><text fill="#000000" font-family="sans-serif" font-size="30" lengthAdjust="spacing" textLength="173.3643" x="2386" y="452.1756">DerivedFrom</text></g><!--class CatalogRecord--><g class="entity" data-qualified-name="CatalogRecord" data-source-line="37" id="ent0023"><rect fill="#FEFECE" height="47.7344" rx="2.5" ry="2.5" style="stroke:#404040;stroke-width:0.5;" width="206.1123" x="1711.5" y="416.033"/><text fill="#000000" font-family="sans-serif" font-size="30" lengthAdjust="spacing" textLength="200.1123" x="1714.5" y="452.1756">CatalogRecord</text></g><!--class CdifConceptOrTerm--><g class="entity" data-qualified-name="CdifConceptOrTerm" data-source-line="38" id="ent0024"><rect fill="#FAE5D3" height="47.7344" rx="2.5" ry="2.5" style="stroke:#404040;stroke-width:0.5;" width="274.4033" x="278.5" y="416.033"/><text fill="#000000" font-family="sans-serif" font-size="30" lengthAdjust="spacing" textLength="268.4033" x="281.5" y="452.1756">CdifConceptOrTerm</text></g><!--reverse link AbstractDistribution to DataDownload--><g class="link" data-entity-1="ent0005" data-entity-2="ent0006" data-link-type="extension" data-source-line="39" id="lnk25"><path codeLine="39" d="M1343.7425,482.2418 C1341.2525,518.9718 1337.26,574.673 1331.5,637.033 C1327.41,681.293 1321.6,732.893 1318.22,761.983" fill="none" id="AbstractDistribution-backto-DataDownload" style="stroke:#404040;stroke-width:1.2;"/><polygon fill="none" points="1344.96,464.283,1337.7563,481.8359,1349.7288,482.6476,1344.96,464.283" style="stroke:#404040;stroke-width:1.2;"/></g><!--reverse link AbstractDistribution to WebAPI--><g class="link" data-entity-1="ent0005" data-entity-2="ent0007" data-link-type="extension" data-source-line="40" id="lnk26"><path codeLine="40" d="M1456.2744,468.8274 C1546.6844,493.3074 1669.53,531.673 1782.5,589.033 C1881.99,639.553 1986.23,721.943 2034.29,761.873" fill="none" id="AbstractDistribution-backto-WebAPI" style="stroke:#404040;stroke-width:1.2;"/><polygon fill="none" points="1438.9,464.123,1454.7062,474.6188,1457.8425,463.0359,1438.9,464.123" style="stroke:#404040;stroke-width:1.2;"/></g><!--reverse link Agent to Person--><g class="link" data-entity-1="ent0012" data-entity-2="ent0013" data-link-type="extension" data-source-line="41" id="lnk27"><path codeLine="41" d="M1190.804,1168.4729 C1165.024,1197.3129 1131.8,1235.023 1094.5,1280.033 C1077.54,1300.503 1075.6,1307.553 1057.5,1327.033 C1013.55,1374.333 956.78,1423.883 923.43,1451.963" fill="none" id="Agent-backto-Person" style="stroke:#404040;stroke-width:1.2;"/><polygon fill="none" points="1202.8,1155.053,1186.3306,1164.4742,1195.2773,1172.4716,1202.8,1155.053" style="stroke:#404040;stroke-width:1.2;"/></g><!--reverse link Agent to Organization--><g class="link" data-entity-1="ent0012" data-entity-2="ent0015" data-link-type="extension" data-source-line="42" id="lnk28"><path codeLine="42" d="M1222.585,1173.3064 C1221.595,1210.0364 1218.87,1265.593 1208.5,1327.033 C1200.92,1371.963 1185.99,1423.123 1176.96,1451.993" fill="none" id="Agent-backto-Organization" style="stroke:#404040;stroke-width:1.2;"/><polygon fill="none" points="1223.07,1155.313,1216.5872,1173.1448,1228.5828,1173.4681,1223.07,1155.313" style="stroke:#404040;stroke-width:1.2;"/></g><!--link ProvActivity to Instrument--><g class="link" data-entity-1="ent0002" data-entity-2="ent0003" data-link-type="dependency" data-source-line="43" id="lnk29"><path codeLine="43" d="M755.48,1155.173 C730.21,1182.373 691.15,1230.153 675.5,1280.033 C656.8,1339.633 664.0961,1408.6909 670.1561,1445.9209" fill="none" id="ProvActivity-to-Instrument" style="stroke:#404040;stroke-width:1.2;"/><polygon fill="#404040" points="671.12,1451.843,673.6221,1442.3173,670.3167,1446.9079,665.726,1443.6025,671.12,1451.843" style="stroke:#404040;stroke-width:1.2;"/><text fill="#000000" font-family="sans-serif" font-size="36" lengthAdjust="spacing" textLength="76.043" x="676.5" y="1318.4041">uses</text><text fill="#000000" font-family="sans-serif" font-size="36" lengthAdjust="spacing" textLength="54.0352" x="611.7533" y="1436.2362">0..*</text></g><!--link ProvActivity to Person--><g class="link" data-entity-1="ent0002" data-entity-2="ent0013" data-link-type="dependency" data-source-line="44" id="lnk30"><path codeLine="44" d="M773.76,1155.063 C767.1,1192.383 757.94,1267.873 778.5,1327.033 C796.29,1378.233 835.5922,1421.0006 864.2522,1447.7306" fill="none" id="ProvActivity-to-Person" style="stroke:#404040;stroke-width:1.2;"/><polygon fill="#404040" points="868.64,1451.823,864.7865,1442.7593,864.9835,1448.4127,859.3301,1448.6097,868.64,1451.823" style="stroke:#404040;stroke-width:1.2;"/><text fill="#000000" font-family="sans-serif" font-size="36" lengthAdjust="spacing" textLength="90.0879" x="779.5" y="1318.4041">agent</text><text fill="#000000" font-family="sans-serif" font-size="36" lengthAdjust="spacing" textLength="60.0469" x="798.8666" y="1436.2128">0..1</text></g><!--link ProvActivity to Person--><g class="link" data-entity-1="ent0002" data-entity-2="ent0013" data-link-type="dependency" data-source-line="46" id="lnk32"><path codeLine="46" d="M797.86,1155.443 C819.7,1183.273 854.41,1232.003 871.5,1280.033 C892.59,1339.323 895.7323,1408.443 895.8423,1445.773" fill="none" id="ProvActivity-to-Person-1" style="stroke:#404040;stroke-width:1.2;"/><polygon fill="#404040" points="895.86,1451.773,899.8335,1442.7612,895.8453,1446.773,891.8335,1442.7848,895.86,1451.773" style="stroke:#404040;stroke-width:1.2;"/><text fill="#000000" font-family="sans-serif" font-size="36" lengthAdjust="spacing" textLength="166.0957" x="885.5" y="1318.4041">participant</text><text fill="#000000" font-family="sans-serif" font-size="36" lengthAdjust="spacing" textLength="54.0352" x="900.5609" y="1436.1542">0..*</text></g><!--link ProvActivity to Organization--><g class="link" data-entity-1="ent0002" data-entity-2="ent0015" data-link-type="dependency" data-source-line="45" id="lnk31"><path codeLine="45" d="M845.1,1155.033 C906.15,1178.763 996.11,1220.673 1057.5,1280.033 C1110.26,1331.053 1143.7743,1406.7036 1159.0043,1446.2636" fill="none" id="ProvActivity-to-Organization" style="stroke:#404040;stroke-width:1.2;"/><polygon fill="#404040" points="1161.16,1451.863,1161.6594,1442.0268,1159.3636,1447.1968,1154.1936,1444.901,1161.16,1451.863" style="stroke:#404040;stroke-width:1.2;"/><text fill="#000000" font-family="sans-serif" font-size="36" lengthAdjust="spacing" textLength="90.0879" x="1098.5" y="1318.4041">agent</text><text fill="#000000" font-family="sans-serif" font-size="36" lengthAdjust="spacing" textLength="60.0469" x="1094.5659" y="1436.2597">0..1</text></g><!--reverse link Dataset to ProvActivity--><g class="link" data-entity-1="ent0004" data-entity-2="ent0002" data-link-type="composition" data-source-line="47" id="lnk33"><path codeLine="47" d="M1503.7209,101.8304 C1394.9509,112.8304 1158.63,146.263 976.5,244.033 C776.38,351.453 691.04,381.173 599.5,589.033 C514.17,782.793 696.58,1030.653 758.74,1106.773" fill="none" id="Dataset-backto-ProvActivity" style="stroke:#404040;stroke-width:1.2;"/><polygon fill="#404040" points="1515.66,100.623,1509.288,97.247,1503.7209,101.8304,1510.0929,105.2064,1515.66,100.623" style="stroke:#404040;stroke-width:1.2;"/><text fill="#000000" font-family="sans-serif" font-size="36" lengthAdjust="spacing" textLength="276.1523" x="600.5" y="627.9041">wasGeneratedBy</text><text fill="#000000" font-family="sans-serif" font-size="36" lengthAdjust="spacing" textLength="54.0352" x="696.7324" y="1091.1542">0..*</text></g><!--link Dataset to Agent--><g class="link" data-entity-1="ent0004" data-entity-2="ent0012" data-link-type="dependency" data-source-line="48" id="lnk34"><path codeLine="48" d="M1515.77,95.753 C1408.71,98.143 1169.63,118.243 1027.5,244.033 C903.46,353.813 918.43,426.493 886.5,589.033 C855.09,748.893 979.71,919.943 1027.5,982.033 C1069.89,1037.113 1132.571,1079.0407 1176.291,1104.4207" fill="none" id="Dataset-to-Agent" style="stroke:#404040;stroke-width:1.2;"/><polygon fill="#404040" points="1181.48,1107.433,1175.7046,1099.4552,1177.1558,1104.9227,1171.6883,1106.3739,1181.48,1107.433" style="stroke:#404040;stroke-width:1.2;"/><text fill="#000000" font-family="sans-serif" font-size="36" lengthAdjust="spacing" textLength="130.0605" x="887.5" y="627.9041">provider</text><text fill="#000000" font-family="sans-serif" font-size="36" lengthAdjust="spacing" textLength="54.0352" x="1119.4786" y="1094.5054">0..*</text></g><!--link Dataset to Agent--><g class="link" data-entity-1="ent0004" data-entity-2="ent0012" data-link-type="dependency" data-source-line="50" id="lnk36"><path codeLine="50" d="M1515.92,101.363 C1430.09,112.583 1263.4,146.293 1166.5,244.033 C1051.89,359.643 1071.24,428.623 1043.5,589.033 C1007.57,796.793 1152.6279,1028.4076 1203.5179,1102.0176" fill="none" id="Dataset-to-Agent-1" style="stroke:#404040;stroke-width:1.2;"/><polygon fill="#404040" points="1206.93,1106.953,1205.1022,1097.2752,1204.0866,1102.8402,1198.5217,1101.8246,1206.93,1106.953" style="stroke:#404040;stroke-width:1.2;"/><text fill="#000000" font-family="sans-serif" font-size="36" lengthAdjust="spacing" textLength="112.043" x="1044.5" y="627.9041">creator</text><text fill="#000000" font-family="sans-serif" font-size="36" lengthAdjust="spacing" textLength="54.0352" x="1208.7555" y="1091.0757">0..*</text></g><!--link Dataset to Agent--><g class="link" data-entity-1="ent0004" data-entity-2="ent0012" data-link-type="dependency" data-source-line="52" id="lnk38"><path codeLine="52" d="M1515.77,107.113 C1445.23,124.243 1323.45,163.903 1254.5,244.033 C1202.5,304.473 1220.58,338.153 1203.5,416.033 C1186.86,491.913 1184.07,511.543 1178.5,589.033 C1164.07,789.733 1203.9082,1026.055 1217.8982,1100.945" fill="none" id="Dataset-to-Agent-2" style="stroke:#404040;stroke-width:1.2;"/><polygon fill="#404040" points="1219,1106.843,1221.2793,1097.2615,1218.0818,1101.928,1213.4153,1098.7305,1219,1106.843" style="stroke:#404040;stroke-width:1.2;"/><text fill="#000000" font-family="sans-serif" font-size="36" lengthAdjust="spacing" textLength="146.0918" x="1179.5" y="627.9041">publisher</text><text fill="#000000" font-family="sans-serif" font-size="36" lengthAdjust="spacing" textLength="60.0469" x="1153.0401" y="1091.2362">0..1</text></g><!--link Dataset to AbstractDistribution--><g class="link" data-entity-1="ent0004" data-entity-2="ent0005" data-link-type="dependency" data-source-line="49" id="lnk35"><path codeLine="49" d="M1515.7,105.243 C1445.05,120.373 1324.96,157.913 1271.5,244.033 C1236.01,301.193 1287.3797,373.3868 1320.5397,411.2968" fill="none" id="Dataset-to-AbstractDistribution" style="stroke:#404040;stroke-width:1.2;"/><polygon fill="#404040" points="1324.49,415.813,1321.5753,406.4053,1321.1981,412.0495,1315.5538,411.6723,1324.49,415.813" style="stroke:#404040;stroke-width:1.2;"/><text fill="#000000" font-family="sans-serif" font-size="36" lengthAdjust="spacing" textLength="174.0938" x="1272.5" y="282.4041">distribution</text><text fill="#000000" font-family="sans-serif" font-size="36" lengthAdjust="spacing" textLength="54.0352" x="1262.061" y="400.2011">0..*</text></g><!--link Dataset to Contributor--><g class="link" data-entity-1="ent0004" data-entity-2="ent0016" data-link-type="dependency" data-source-line="51" id="lnk37"><path codeLine="51" d="M1548.58,119.393 C1524.52,146.783 1487.34,194.753 1472.5,244.033 C1466.48,264.033 1471.09,270.193 1472.5,291.033 C1477.72,368.113 1494.17,386.913 1489.5,464.033 C1486.82,508.343 1480.5556,553.7717 1476.1156,582.8517" fill="none" id="Dataset-to-Contributor" style="stroke:#404040;stroke-width:1.2;"/><polygon fill="#404040" points="1475.21,588.783,1480.5226,580.4898,1475.9647,583.8403,1472.6142,579.2823,1475.21,588.783" style="stroke:#404040;stroke-width:1.2;"/><text fill="#000000" font-family="sans-serif" font-size="36" lengthAdjust="spacing" textLength="170.0859" x="1473.5" y="282.4041">contributor</text><text fill="#000000" font-family="sans-serif" font-size="36" lengthAdjust="spacing" textLength="54.0352" x="1417.1754" y="573.1659">0..*</text></g><!--link Dataset to MonetaryGrant--><g class="link" data-entity-1="ent0004" data-entity-2="ent0021" data-link-type="dependency" data-source-line="53" id="lnk39"><path codeLine="53" d="M1586.15,119.423 C1604.08,147.623 1632.65,197.073 1645.5,244.033 C1680.05,370.323 1675.0803,523.6838 1671.5303,582.6938" fill="none" id="Dataset-to-MonetaryGrant" style="stroke:#404040;stroke-width:1.2;"/><polygon fill="#404040" points="1671.17,588.683,1675.7032,579.9394,1671.4703,583.692,1667.7177,579.459,1671.17,588.683" style="stroke:#404040;stroke-width:1.2;"/><text fill="#000000" font-family="sans-serif" font-size="36" lengthAdjust="spacing" textLength="118.1074" x="1655.5" y="282.4041">funding</text><text fill="#000000" font-family="sans-serif" font-size="36" lengthAdjust="spacing" textLength="54.0352" x="1612.8123" y="573.0487">0..*</text></g><!--link Dataset to DerivedFrom--><g class="link" data-entity-1="ent0004" data-entity-2="ent0022" data-link-type="dependency" data-source-line="54" id="lnk40"><path codeLine="54" d="M1625.13,98.673 C1791.17,107.753 2285.76,142.903 2404.5,244.033 C2456.5,288.313 2468.3425,368.6875 2471.2225,409.9775" fill="none" id="Dataset-to-DerivedFrom" style="stroke:#404040;stroke-width:1.2;"/><polygon fill="#404040" points="2471.64,415.963,2475.0041,406.7065,2471.2921,410.9751,2467.0235,407.2631,2471.64,415.963" style="stroke:#404040;stroke-width:1.2;"/><text fill="#000000" font-family="sans-serif" font-size="36" lengthAdjust="spacing" textLength="272.0566" x="2438.5" y="282.4041">wasDerivedFrom</text><text fill="#000000" font-family="sans-serif" font-size="36" lengthAdjust="spacing" textLength="54.0352" x="2412.6481" y="400.0875">0..*</text></g><!--link Dataset to CatalogRecord--><g class="link" data-entity-1="ent0004" data-entity-2="ent0023" data-link-type="dependency" data-source-line="55" id="lnk41"><path codeLine="55" d="M1625.32,117.023 C1677.09,139.933 1752.33,181.853 1790.5,244.033 C1823.87,298.393 1821.8788,371.4119 1818.0688,410.0519" fill="none" id="Dataset-to-CatalogRecord" style="stroke:#404040;stroke-width:1.2;"/><polygon fill="#404040" points="1817.48,416.023,1822.3438,407.4589,1817.9706,411.0471,1814.3824,406.6739,1817.48,416.023" style="stroke:#404040;stroke-width:1.2;"/><text fill="#000000" font-family="sans-serif" font-size="36" lengthAdjust="spacing" textLength="152.0684" x="1809.5" y="282.4041">subjectOf</text><text fill="#000000" font-family="sans-serif" font-size="36" lengthAdjust="spacing" textLength="20.0215" x="1796.2215" y="400.1582">1</text></g><!--link CatalogRecord to Dataset--><g class="link" data-entity-1="ent0023" data-entity-2="ent0004" data-link-type="dependency" data-source-line="65" id="lnk51"><path codeLine="65" d="M1856.17,415.993 C1915.46,380.173 2012.29,308.533 1967.5,244.033 C1889.25,131.353 1720.2947,104.7309 1631.0747,98.3509" fill="none" id="CatalogRecord-to-Dataset" style="stroke:#404040;stroke-width:1.2;"/><polygon fill="#404040" points="1625.09,97.923,1633.7818,102.5547,1630.0773,98.2796,1634.3524,94.5751,1625.09,97.923" style="stroke:#404040;stroke-width:1.2;"/><text fill="#000000" font-family="sans-serif" font-size="36" lengthAdjust="spacing" textLength="90.0879" x="1979.5" y="282.4041">about</text><text fill="#000000" font-family="sans-serif" font-size="36" lengthAdjust="spacing" textLength="60.0469" x="1633.4" y="88.3906">0..1</text></g><!--link Dataset to DefinedTerm--><g class="link" data-entity-1="ent0004" data-entity-2="ent0017" data-link-type="dependency" data-source-line="56" id="lnk42"><path codeLine="56" d="M1625.03,104.603 C1742.77,124.213 2015.03,176.003 2075.5,244.033 C2118.61,292.533 2116.6864,369.7368 2112.3964,409.9568" fill="none" id="Dataset-to-DefinedTerm" style="stroke:#404040;stroke-width:1.2;"/><polygon fill="#404040" points="2111.76,415.923,2116.692,407.398,2112.2903,410.9512,2108.7371,406.5495,2111.76,415.923" style="stroke:#404040;stroke-width:1.2;"/><text fill="#000000" font-family="sans-serif" font-size="36" lengthAdjust="spacing" textLength="152.0508" x="2101.5" y="282.4041">keywords</text><text fill="#000000" font-family="sans-serif" font-size="36" lengthAdjust="spacing" textLength="54.0352" x="2053.4994" y="400.0404">0..*</text></g><!--link Dataset to Reference--><g class="link" data-entity-1="ent0004" data-entity-2="ent0020" data-link-type="dependency" data-source-line="57" id="lnk43"><path codeLine="57" d="M1625.12,99.973 C1772.32,111.743 2172.04,151.723 2259.5,244.033 C2304.18,291.183 2300.4832,369.4343 2295.1432,409.9943" fill="none" id="Dataset-to-Reference" style="stroke:#404040;stroke-width:1.2;"/><polygon fill="#404040" points="2294.36,415.943,2299.5006,407.5421,2295.0127,410.9858,2291.569,406.4979,2294.36,415.943" style="stroke:#404040;stroke-width:1.2;"/><text fill="#000000" font-family="sans-serif" font-size="36" lengthAdjust="spacing" textLength="112.0605" x="2286.5" y="282.4041">license</text><text fill="#000000" font-family="sans-serif" font-size="36" lengthAdjust="spacing" textLength="54.0352" x="2236.2045" y="400.0639">0..*</text></g><!--link DataDownload to Agent--><g class="link" data-entity-1="ent0006" data-entity-2="ent0012" data-link-type="dependency" data-source-line="58" id="lnk44"><path codeLine="58" d="M1309.32,810.073 C1292.6,872.403 1248.1545,1038.1079 1231.3245,1100.8479" fill="none" id="DataDownload-to-Agent" style="stroke:#404040;stroke-width:1.2;"/><polygon fill="#404040" points="1229.77,1106.643,1235.9652,1098.9867,1231.0655,1101.8137,1228.2384,1096.9139,1229.77,1106.643" style="stroke:#404040;stroke-width:1.2;"/><text fill="#000000" font-family="sans-serif" font-size="36" lengthAdjust="spacing" textLength="130.0605" x="1275.5" y="973.4041">provider</text><text fill="#000000" font-family="sans-serif" font-size="36" lengthAdjust="spacing" textLength="54.0352" x="1235.4571" y="1091.0018">0..*</text></g><!--link WebAPI to Action--><g class="link" data-entity-1="ent0007" data-entity-2="ent0008" data-link-type="dependency" data-source-line="59" id="lnk45"><path codeLine="59" d="M2061.5,810.073 C2061.5,872.403 2061.5,1037.903 2061.5,1100.643" fill="none" id="WebAPI-to-Action" style="stroke:#404040;stroke-width:1.2;"/><polygon fill="#404040" points="2061.5,1106.643,2065.5,1097.643,2061.5,1101.643,2057.5,1097.643,2061.5,1106.643" style="stroke:#404040;stroke-width:1.2;"/><text fill="#000000" font-family="sans-serif" font-size="36" lengthAdjust="spacing" textLength="236.1621" x="2062.5" y="973.4041">potentialAction</text><text fill="#000000" font-family="sans-serif" font-size="36" lengthAdjust="spacing" textLength="54.0352" x="2002.8298" y="1091.0018">0..*</text></g><!--link Action to EntryPoint--><g class="link" data-entity-1="ent0008" data-entity-2="ent0009" data-link-type="dependency" data-source-line="60" id="lnk46"><path codeLine="60" d="M2043.85,1155.213 C2022.76,1183.603 1987.21,1233.653 1962.5,1280.033 C1930.76,1339.623 1905.1853,1408.934 1892.2753,1446.174" fill="none" id="Action-to-EntryPoint" style="stroke:#404040;stroke-width:1.2;"/><polygon fill="#404040" points="1890.31,1451.843,1897.0373,1444.6496,1891.9477,1447.1188,1889.4786,1442.0293,1890.31,1451.843" style="stroke:#404040;stroke-width:1.2;"/><text fill="#000000" font-family="sans-serif" font-size="36" lengthAdjust="spacing" textLength="92.0566" x="1963.5" y="1318.4041">target</text><text fill="#000000" font-family="sans-serif" font-size="36" lengthAdjust="spacing" textLength="20.0215" x="1869.9012" y="1436.2362">1</text></g><!--link Action to ActionResult--><g class="link" data-entity-1="ent0008" data-entity-2="ent0010" data-link-type="dependency" data-source-line="61" id="lnk47"><path codeLine="61" d="M2061.5,1155.073 C2061.5,1217.403 2061.5,1382.903 2061.5,1445.643" fill="none" id="Action-to-ActionResult" style="stroke:#404040;stroke-width:1.2;"/><polygon fill="#404040" points="2061.5,1451.643,2065.5,1442.643,2061.5,1446.643,2057.5,1442.643,2061.5,1451.643" style="stroke:#404040;stroke-width:1.2;"/><text fill="#000000" font-family="sans-serif" font-size="36" lengthAdjust="spacing" textLength="88.0313" x="2062.5" y="1318.4041">result</text><text fill="#000000" font-family="sans-serif" font-size="36" lengthAdjust="spacing" textLength="60.0469" x="1996.3123" y="1436.0018">0..1</text></g><!--link Action to PropertyValueSpecification--><g class="link" data-entity-1="ent0008" data-entity-2="ent0011" data-link-type="dependency" data-source-line="62" id="lnk48"><path codeLine="62" d="M2080.98,1155.073 C2133.68,1217.403 2274.8064,1384.3209 2327.8464,1447.0609" fill="none" id="Action-to-PropertyValueSpecification" style="stroke:#404040;stroke-width:1.2;"/><polygon fill="#404040" points="2331.72,1451.643,2328.9643,1442.1875,2328.492,1447.8246,2322.8549,1447.3523,2331.72,1451.643" style="stroke:#404040;stroke-width:1.2;"/><text fill="#000000" font-family="sans-serif" font-size="36" lengthAdjust="spacing" textLength="170.1211" x="2224.5" y="1318.4041">queryInput</text><text fill="#000000" font-family="sans-serif" font-size="36" lengthAdjust="spacing" textLength="54.0352" x="2269.6651" y="1436.0018">0..*</text></g><!--link Contributor to Agent--><g class="link" data-entity-1="ent0016" data-entity-2="ent0012" data-link-type="dependency" data-source-line="63" id="lnk49"><path codeLine="63" d="M1473.25,637.073 C1476.8,698.053 1479.39,866.883 1411.5,982.033 C1377,1040.533 1315.1443,1081.786 1271.1443,1106.046" fill="none" id="Contributor-to-Agent" style="stroke:#404040;stroke-width:1.2;"/><polygon fill="#404040" points="1265.89,1108.943,1275.7027,1108.1003,1270.2686,1106.5288,1271.8401,1101.0946,1265.89,1108.943" style="stroke:#404040;stroke-width:1.2;"/><text fill="#000000" font-family="sans-serif" font-size="36" lengthAdjust="spacing" textLength="170.0859" x="1472.5" y="800.9041">contributor</text><text fill="#000000" font-family="sans-serif" font-size="36" lengthAdjust="spacing" textLength="60.0469" x="1273.7884" y="1146.3888">0..1</text></g><!--link MonetaryGrant to Agent--><g class="link" data-entity-1="ent0021" data-entity-2="ent0012" data-link-type="dependency" data-source-line="64" id="lnk50"><path codeLine="64" d="M1671.93,637.123 C1674.87,675.533 1676.13,753.913 1645.5,810.033 C1558.38,969.623 1359.5392,1071.1804 1271.0592,1110.2304" fill="none" id="MonetaryGrant-to-Agent" style="stroke:#404040;stroke-width:1.2;"/><polygon fill="#404040" points="1265.57,1112.653,1275.4188,1112.6785,1270.1443,1110.6341,1272.1887,1105.3596,1265.57,1112.653" style="stroke:#404040;stroke-width:1.2;"/><text fill="#000000" font-family="sans-serif" font-size="36" lengthAdjust="spacing" textLength="102.0762" x="1663.5" y="800.9041">funder</text><text fill="#000000" font-family="sans-serif" font-size="36" lengthAdjust="spacing" textLength="54.0352" x="1273.9658" y="1100.0751">0..*</text></g><!--link CatalogRecord to Agent--><g class="link" data-entity-1="ent0023" data-entity-2="ent0012" data-link-type="dependency" data-source-line="66" id="lnk52"><path codeLine="66" d="M1817.83,464.183 C1825.45,525.463 1838.66,695.023 1771.5,810.033 C1657.34,1005.543 1379.1591,1091.9108 1271.5491,1118.9508" fill="none" id="CatalogRecord-to-Agent" style="stroke:#404040;stroke-width:1.2;"/><polygon fill="#404040" points="1265.73,1120.413,1275.4335,1122.0991,1270.5793,1119.1945,1273.4838,1114.3403,1265.73,1120.413" style="stroke:#404040;stroke-width:1.2;"/><text fill="#000000" font-family="sans-serif" font-size="36" lengthAdjust="spacing" textLength="168.082" x="1793.5" y="800.9041">maintainer</text><text fill="#000000" font-family="sans-serif" font-size="36" lengthAdjust="spacing" textLength="60.0469" x="1274.0613" y="1159.1893">0..1</text></g><?plantuml-src VLLBRjim4Dth58Ip2-30JfgW48e2Zcq5NXGnag1TqzJ8PYsJAadPKDe2FKHFs9Dq9Ef3VMm80ZYFRsR8DqFIS1C3cIzMmLh98mWg691_V_uIDDIHmydRyH08uuh5OCTmI4n63d3OWDAUtdEHK4KFHEzeA4zSR4b4OmtEp4mfUNhRSRONe3MPtjmwaugAlOQ4tDvF75J840hK1KE8Q1gRG0hpoj-1t3quaooc6FkdHsowkOob8bSV9lc7uADK8QWkweP2HsCKtwG66dZY_VOy6tgKApHZXX-voKQ4Qk82v2fO1ilviYAlX3OgFO0m1RKnkyG5DLI3PPNZca8tw4MPAJStcfNsWckxKYv5uJWqGQuM3yjPyD5Dj90d4KiQrjageBkgRx2PhLS5pGwHC0_kva55oFTT9MT3wPR2g6mjUIb0OtQ9rlq5D9RMYMU1RbgKF05bigyqJk4r0SOZpcYzbFFJTTQUfjkgHiMekxerDdaLl1Xs2NFi5GpNxDG5kkHdjQM2lpSBTe6Xo4KnfQe3btQljX1n0U4Rg8CjRMEZWhFb_UAkRimGTucoW0tQcBswX27FbqNZIbMhKW_kEhv010hm8YdujTMbVP4235NP4zu0LhaMqj-YuaS80oMhBTPsJpXix5XkNu3XeRVIkKYtr-SXZr1R1ebvLhM4FRGMSl2mVVer7hTEr0MQFL6UxRS2iQtb8cvZUAsBPZp-J4QJcvlhaNkh-2JLe8UPqr7LkpwXUOgpj5OxNYHVEp7n0ZQSyGIhvbLNs3NkeUAv_ZuvKVq40XGr43vcjOCJsCg0ST4HNnmro1bIroUXOruApHHGF4T35FUO8R6nUkIfizHq4tEz6rvhkwzz4gKYn7ToYEfsTI6L0xJvcBpTrJxHwUOxCFCS3KTkhWIVx24xePCUOZOdrYSnPo3mCM-z5PTALRuMBeMLjKcaoUyQ6bl4AoUgtJWlX4zGhYsO5gKKt7qSVAAAGPTdc-xSI-2J7oceR2MIr7XkjGVgwfQ_NSO14VAweWJjiZX1AwtnO6radliSiGfueAW6_XZqFm00?></g></svg>