<svg xmlns="http://www.w3.org/2000/svg" xmlns:xlink="http://www.w3.org/1999/xlink" contentStyleType="text/css" data-diagram-type="CLASS" height="1511px" preserveAspectRatio="none" style="width:2795px;height:1511px;background:#FFFFFF;" version="1.1" viewBox="0 0 2795 1511" width="2795px" zoomAndPan="magnify"><?plantuml 1.2026.3?><defs/><g><g class="title" data-source-line="1"><text fill="#000000" font-family="sans-serif" font-size="14" font-weight="700" lengthAdjust="spacing" textLength="194.1748" x="1296.9565" y="24.5332">CDIFProvenance &#8212; overview</text></g><!--class ProvActivity--><g class="entity" data-qualified-name="ProvActivity" data-source-line="16" id="ent0002"><rect fill="#FEFECE" height="47.7344" rx="2.5" ry="2.5" style="stroke:#404040;stroke-width:0.5;" width="162.6943" x="757.5" y="1104.902"/><text fill="#000000" font-family="sans-serif" font-size="30" lengthAdjust="spacing" textLength="156.6943" x="760.5" y="1141.0446">ProvActivity</text></g><!--class Instrument--><g class="entity" data-qualified-name="Instrument" data-source-line="17" id="ent0003"><rect fill="#FEFECE" height="47.7344" rx="2.5" ry="2.5" style="stroke:#404040;stroke-width:0.5;" width="147.7236" x="527" y="1449.902"/><text fill="#000000" font-family="sans-serif" font-size="30" lengthAdjust="spacing" textLength="141.7236" x="530" y="1486.0446">Instrument</text></g><!--class AgentInRole--><g class="entity" data-qualified-name="AgentInRole" data-source-line="18" id="ent0004"><rect fill="#FEFECE" height="47.7344" rx="2.5" ry="2.5" style="stroke:#404040;stroke-width:0.5;" width="171.1172" x="695.5" y="1449.902"/><text fill="#000000" font-family="sans-serif" font-size="30" lengthAdjust="spacing" textLength="165.1172" x="698.5" y="1486.0446">AgentInRole</text></g><!--class Dataset--><g class="entity" data-qualified-name="Dataset" data-source-line="19" id="ent0005"><rect fill="#FEFECE" height="47.7344" rx="2.5" ry="2.5" style="stroke:#404040;stroke-width:0.5;" width="109.3887" x="1602.5" y="68.902"/><text fill="#000000" font-family="sans-serif" font-size="30" lengthAdjust="spacing" textLength="103.3887" x="1605.5" y="105.0446">Dataset</text></g><!--class AbstractDistribution--><g class="entity" data-qualified-name="AbstractDistribution" data-source-line="20" id="ent0006"><rect fill="#D6EAF8" height="47.7344" rx="2.5" ry="2.5" style="stroke:#404040;stroke-width:0.5;" width="266.0977" x="1390" y="413.902"/><text fill="#000000" font-family="sans-serif" font-size="30" font-style="italic" lengthAdjust="spacing" textLength="260.0977" x="1393" y="450.0446">AbstractDistribution</text></g><!--class DataDownload--><g class="entity" data-qualified-name="DataDownload" data-source-line="21" id="ent0007"><rect fill="#FEFECE" height="47.7344" rx="2.5" ry="2.5" style="stroke:#404040;stroke-width:0.5;" width="202.7871" x="1560.5" y="759.902"/><text fill="#000000" font-family="sans-serif" font-size="30" lengthAdjust="spacing" textLength="196.7871" x="1563.5" y="796.0446">DataDownload</text></g><!--class WebAPI--><g class="entity" data-qualified-name="WebAPI" data-source-line="22" id="ent0008"><rect fill="#FCF3CF" height="47.7344" rx="2.5" ry="2.5" style="stroke:#404040;stroke-width:0.5;" width="116.0391" x="1928" y="759.902"/><text fill="#000000" font-family="sans-serif" font-size="30" lengthAdjust="spacing" textLength="110.0391" x="1931" y="796.0446">WebAPI</text></g><!--class Action--><g class="entity" data-qualified-name="Action" data-source-line="23" id="ent0009"><rect fill="#D6EAF8" height="47.7344" rx="2.5" ry="2.5" style="stroke:#404040;stroke-width:0.5;" width="89.3789" x="1941.5" y="1104.902"/><text fill="#000000" font-family="sans-serif" font-size="30" lengthAdjust="spacing" textLength="83.3789" x="1944.5" y="1141.0446">Action</text></g><!--class EntryPoint--><g class="entity" data-qualified-name="EntryPoint" data-source-line="24" id="ent0010"><rect fill="#D6EAF8" height="47.7344" rx="2.5" ry="2.5" style="stroke:#404040;stroke-width:0.5;" width="144.3984" x="2189" y="1449.902"/><text fill="#000000" font-family="sans-serif" font-size="30" lengthAdjust="spacing" textLength="138.3984" x="2192" y="1486.0446">EntryPoint</text></g><!--class ActionResult--><g class="entity" data-qualified-name="ActionResult" data-source-line="25" id="ent0011"><rect fill="#FCF3CF" height="47.7344" rx="2.5" ry="2.5" style="stroke:#404040;stroke-width:0.5;" width="174.4131" x="1609" y="1449.902"/><text fill="#000000" font-family="sans-serif" font-size="30" lengthAdjust="spacing" textLength="168.4131" x="1612" y="1486.0446">ActionResult</text></g><!--class PropertyValueSpecification--><g class="entity" data-qualified-name="PropertyValueSpecification" data-source-line="26" id="ent0012"><rect fill="#D6EAF8" height="47.7344" rx="2.5" ry="2.5" style="stroke:#404040;stroke-width:0.5;" width="366.2051" x="1803" y="1449.902"/><text fill="#000000" font-family="sans-serif" font-size="30" lengthAdjust="spacing" textLength="360.2051" x="1806" y="1486.0446">PropertyValueSpecification</text></g><!--class Agent--><g class="entity" data-qualified-name="Agent" data-source-line="27" id="ent0013"><rect fill="#D6EAF8" height="47.7344" rx="2.5" ry="2.5" style="stroke:#404040;stroke-width:0.5;" width="84.3984" x="1301" y="1104.902"/><text fill="#000000" font-family="sans-serif" font-size="30" font-style="italic" lengthAdjust="spacing" textLength="78.3984" x="1304" y="1141.0446">Agent</text></g><!--class Person--><g class="entity" data-qualified-name="Person" data-source-line="28" id="ent0014"><rect fill="#D6EAF8" height="47.7344" rx="2.5" ry="2.5" style="stroke:#404040;stroke-width:0.5;" width="101.0537" x="964.5" y="1449.902"/><text fill="#000000" font-family="sans-serif" font-size="30" lengthAdjust="spacing" textLength="95.0537" x="967.5" y="1486.0446">Person</text></g><!--class ContactPoint--><g class="entity" data-qualified-name="ContactPoint" data-source-line="29" id="ent0015"><rect fill="#D6EAF8" height="47.7344" rx="2.5" ry="2.5" style="stroke:#404040;stroke-width:0.5;" width="177.7676" x="55" y="68.902"/><text fill="#000000" font-family="sans-serif" font-size="30" lengthAdjust="spacing" textLength="171.7676" x="58" y="105.0446">ContactPoint</text></g><!--class Organization--><g class="entity" data-qualified-name="Organization" data-source-line="30" id="ent0016"><rect fill="#D6EAF8" height="47.7344" rx="2.5" ry="2.5" style="stroke:#404040;stroke-width:0.5;" width="176.0977" x="1187" y="1449.902"/><text fill="#000000" font-family="sans-serif" font-size="30" lengthAdjust="spacing" textLength="170.0977" x="1190" y="1486.0446">Organization</text></g><!--class Contributor--><g class="entity" data-qualified-name="Contributor" data-source-line="31" id="ent0017"><rect fill="#D6EAF8" height="47.7344" rx="2.5" ry="2.5" style="stroke:#404040;stroke-width:0.5;" width="154.4033" x="1470" y="586.902"/><text fill="#000000" font-family="sans-serif" font-size="30" lengthAdjust="spacing" textLength="148.4033" x="1473" y="623.0446">Contributor</text></g><!--class DefinedTerm--><g class="entity" data-qualified-name="DefinedTerm" data-source-line="32" id="ent0018"><rect fill="#FEFECE" height="47.7344" rx="2.5" ry="2.5" style="stroke:#404040;stroke-width:0.5;" width="179.3936" x="1676.5" y="413.902"/><text fill="#000000" font-family="sans-serif" font-size="30" lengthAdjust="spacing" textLength="173.3936" x="1679.5" y="450.0446">DefinedTerm</text></g><!--class Identifier--><g class="entity" data-qualified-name="Identifier" data-source-line="33" id="ent0019"><rect fill="#D6EAF8" height="47.7344" rx="2.5" ry="2.5" style="stroke:#404040;stroke-width:0.5;" width="121.0635" x="253.5" y="68.902"/><text fill="#000000" font-family="sans-serif" font-size="30" lengthAdjust="spacing" textLength="115.0635" x="256.5" y="105.0446">Identifier</text></g><!--class AdditionalProperty--><g class="entity" data-qualified-name="AdditionalProperty" data-source-line="34" id="ent0020"><rect fill="#D6EAF8" height="47.7344" rx="2.5" ry="2.5" style="stroke:#404040;stroke-width:0.5;" width="251.1416" x="394.5" y="68.902"/><text fill="#000000" font-family="sans-serif" font-size="30" lengthAdjust="spacing" textLength="245.1416" x="397.5" y="105.0446">AdditionalProperty</text></g><!--class Reference--><g class="entity" data-qualified-name="Reference" data-source-line="35" id="ent0021"><rect fill="#D6EAF8" height="47.7344" rx="2.5" ry="2.5" style="stroke:#404040;stroke-width:0.5;" width="144.4131" x="1876" y="413.902"/><text fill="#000000" font-family="sans-serif" font-size="30" lengthAdjust="spacing" textLength="138.4131" x="1879" y="450.0446">Reference</text></g><!--class MonetaryGrant--><g class="entity" data-qualified-name="MonetaryGrant" data-source-line="36" id="ent0022"><rect fill="#D6EAF8" height="47.7344" rx="2.5" ry="2.5" style="stroke:#404040;stroke-width:0.5;" width="206.083" x="1717" y="586.902"/><text fill="#000000" font-family="sans-serif" font-size="30" lengthAdjust="spacing" textLength="200.083" x="1720" y="623.0446">MonetaryGrant</text></g><!--class DerivedFrom--><g class="entity" data-qualified-name="DerivedFrom" data-source-line="37" id="ent0023"><rect fill="#D6EAF8" height="47.7344" rx="2.5" ry="2.5" style="stroke:#404040;stroke-width:0.5;" width="179.3643" x="2130.5" y="413.902"/><text fill="#000000" font-family="sans-serif" font-size="30" lengthAdjust="spacing" textLength="173.3643" x="2133.5" y="450.0446">DerivedFrom</text></g><!--class CatalogRecord--><g class="entity" data-qualified-name="CatalogRecord" data-source-line="38" id="ent0024"><rect fill="#FEFECE" height="47.7344" rx="2.5" ry="2.5" style="stroke:#404040;stroke-width:0.5;" width="206.1123" x="2416" y="413.902"/><text fill="#000000" font-family="sans-serif" font-size="30" lengthAdjust="spacing" textLength="200.1123" x="2419" y="450.0446">CatalogRecord</text></g><!--class CdifConceptOrTerm--><g class="entity" data-qualified-name="CdifConceptOrTerm" data-source-line="39" id="ent0025"><rect fill="#FAE5D3" height="47.7344" rx="2.5" ry="2.5" style="stroke:#404040;stroke-width:0.5;" width="274.4033" x="7" y="413.902"/><text fill="#000000" font-family="sans-serif" font-size="30" lengthAdjust="spacing" textLength="268.4033" x="10" y="450.0446">CdifConceptOrTerm</text></g><!--class CdifConceptOrTermOrString--><g class="entity" data-qualified-name="CdifConceptOrTermOrString" data-source-line="40" id="ent0026"><rect fill="#FAE5D3" height="47.7344" rx="2.5" ry="2.5" style="stroke:#404040;stroke-width:0.5;" width="386.0977" x="301" y="413.902"/><text fill="#000000" font-family="sans-serif" font-size="30" lengthAdjust="spacing" textLength="380.0977" x="304" y="450.0446">CdifConceptOrTermOrString</text></g><!--reverse link AbstractDistribution to DataDownload--><g class="link" data-entity-1="ent0006" data-entity-2="ent0007" data-link-type="extension" data-source-line="41" id="lnk27"><path codeLine="41" d="M1558.8963,475.1941 C1584.9063,502.4941 1613.47,537.352 1634,586.902 C1658.4,645.812 1662.14,722.262 1662.35,759.902" fill="none" id="AbstractDistribution-backto-DataDownload" style="stroke:#404040;stroke-width:1.2;"/><polygon fill="none" points="1546.48,462.162,1554.5523,479.3329,1563.2403,471.0553,1546.48,462.162" style="stroke:#404040;stroke-width:1.2;"/></g><!--reverse link AbstractDistribution to WebAPI--><g class="link" data-entity-1="ent0006" data-entity-2="ent0008" data-link-type="extension" data-source-line="42" id="lnk28"><path codeLine="42" d="M1634.3282,466.5894 C1741.3082,494.7194 1889.55,539.722 1933,586.902 C1978.13,635.912 1985.51,719.382 1986.28,759.722" fill="none" id="AbstractDistribution-backto-WebAPI" style="stroke:#404040;stroke-width:1.2;"/><polygon fill="none" points="1616.92,462.012,1632.8024,472.3922,1635.8541,460.7867,1616.92,462.012" style="stroke:#404040;stroke-width:1.2;"/></g><!--reverse link Agent to Person--><g class="link" data-entity-1="ent0013" data-entity-2="ent0014" data-link-type="extension" data-source-line="43" id="lnk29"><path codeLine="43" d="M1344.3291,1170.9198 C1344.9391,1210.2598 1340.54,1273.182 1301,1324.902 C1241.83,1402.292 1130.71,1442.902 1065.77,1460.942" fill="none" id="Agent-backto-Person" style="stroke:#404040;stroke-width:1.2;"/><polygon fill="none" points="1344.05,1152.922,1338.3298,1171.0129,1350.3284,1170.8268,1344.05,1152.922" style="stroke:#404040;stroke-width:1.2;"/></g><!--reverse link Agent to Organization--><g class="link" data-entity-1="ent0013" data-entity-2="ent0016" data-link-type="extension" data-source-line="44" id="lnk30"><path codeLine="44" d="M1343.1462,1171.0019 C1343.0362,1207.7919 1341.04,1263.802 1328,1324.902 C1318.26,1370.542 1297.88,1421.242 1285.43,1449.882" fill="none" id="Agent-backto-Organization" style="stroke:#404040;stroke-width:1.2;"/><polygon fill="none" points="1343.2,1153.002,1337.1462,1170.984,1349.1462,1171.0199,1343.2,1153.002" style="stroke:#404040;stroke-width:1.2;"/></g><!--link ProvActivity to Instrument--><g class="link" data-entity-1="ent0002" data-entity-2="ent0003" data-link-type="dependency" data-source-line="45" id="lnk31"><path codeLine="45" d="M811.13,1152.962 C779.44,1180.272 727.62,1228.342 693,1277.902 C653.24,1334.832 624.832,1406.0002 611.082,1443.9902" fill="none" id="ProvActivity-to-Instrument" style="stroke:#404040;stroke-width:1.2;"/><polygon fill="#404040" points="609.04,1449.632,615.8642,1442.5306,610.7417,1444.9305,608.3418,1439.8079,609.04,1449.632" style="stroke:#404040;stroke-width:1.2;"/><text fill="#000000" font-family="sans-serif" font-size="36" lengthAdjust="spacing" textLength="76.043" x="694" y="1316.2731">uses</text><text fill="#000000" font-family="sans-serif" font-size="36" lengthAdjust="spacing" textLength="54.0352" x="551.808" y="1434.0115">0..*</text></g><!--link ProvActivity to Person--><g class="link" data-entity-1="ent0002" data-entity-2="ent0014" data-link-type="dependency" data-source-line="46" id="lnk32"><path codeLine="46" d="M843.11,1153.192 C850.38,1190.892 867.7,1266.902 898,1324.902 C923.48,1373.672 961.7709,1417.8188 987.9309,1445.3988" fill="none" id="ProvActivity-to-Person" style="stroke:#404040;stroke-width:1.2;"/><polygon fill="#404040" points="992.06,1449.752,988.7685,1440.4694,988.6191,1446.1243,982.9642,1445.9749,992.06,1449.752" style="stroke:#404040;stroke-width:1.2;"/><text fill="#000000" font-family="sans-serif" font-size="36" lengthAdjust="spacing" textLength="90.0879" x="899" y="1316.2731">agent</text><text fill="#000000" font-family="sans-serif" font-size="36" lengthAdjust="spacing" textLength="60.0469" x="922.6295" y="1433.8623">0..1</text></g><!--link ProvActivity to Person--><g class="link" data-entity-1="ent0002" data-entity-2="ent0014" data-link-type="dependency" data-source-line="48" id="lnk34"><path codeLine="48" d="M874.04,1153.012 C909.99,1178.832 964.32,1224.122 991,1277.902 C1019.2,1334.732 1019.4324,1405.9318 1017.2624,1443.8918" fill="none" id="ProvActivity-to-Person-1" style="stroke:#404040;stroke-width:1.2;"/><polygon fill="#404040" points="1016.92,1449.882,1021.4271,1441.125,1017.2054,1444.8902,1013.4402,1440.6684,1016.92,1449.882" style="stroke:#404040;stroke-width:1.2;"/><text fill="#000000" font-family="sans-serif" font-size="36" lengthAdjust="spacing" textLength="166.0957" x="1009" y="1316.2731">participant</text><text fill="#000000" font-family="sans-serif" font-size="36" lengthAdjust="spacing" textLength="54.0352" x="1022.0697" y="1434.0154">0..*</text></g><!--link ProvActivity to Organization--><g class="link" data-entity-1="ent0002" data-entity-2="ent0016" data-link-type="dependency" data-source-line="47" id="lnk33"><path codeLine="47" d="M920.73,1147.822 C996.41,1168.082 1107.96,1207.782 1181,1277.902 C1232.1,1326.962 1257.3783,1403.7008 1267.9683,1443.8108" fill="none" id="ProvActivity-to-Organization" style="stroke:#404040;stroke-width:1.2;"/><polygon fill="#404040" points="1269.5,1449.612,1271.07,1439.8891,1268.2236,1444.7777,1263.335,1441.9313,1269.5,1449.612" style="stroke:#404040;stroke-width:1.2;"/><text fill="#000000" font-family="sans-serif" font-size="36" lengthAdjust="spacing" textLength="90.0879" x="1218" y="1316.2731">agent</text><text fill="#000000" font-family="sans-serif" font-size="36" lengthAdjust="spacing" textLength="60.0469" x="1203.3941" y="1433.9881">0..1</text></g><!--link ProvActivity to AgentInRole--><g class="link" data-entity-1="ent0002" data-entity-2="ent0004" data-link-type="dependency" data-source-line="49" id="lnk35"><path codeLine="49" d="M826.84,1152.932 C812.56,1181.372 789.74,1231.672 781,1277.902 C769.43,1339.112 773.8779,1407.1033 777.6479,1443.8633" fill="none" id="ProvActivity-to-AgentInRole" style="stroke:#404040;stroke-width:1.2;"/><polygon fill="#404040" points="778.26,1449.832,781.3209,1440.4709,777.7499,1444.8581,773.3627,1441.2871,778.26,1449.832" style="stroke:#404040;stroke-width:1.2;"/><text fill="#000000" font-family="sans-serif" font-size="36" lengthAdjust="spacing" textLength="90.0879" x="782" y="1316.2731">agent</text><text fill="#000000" font-family="sans-serif" font-size="36" lengthAdjust="spacing" textLength="54.0352" x="718.9553" y="1433.9565">0..*</text></g><!--reverse link Dataset to ProvActivity--><g class="link" data-entity-1="ent0005" data-entity-2="ent0002" data-link-type="composition" data-source-line="50" id="lnk36"><path codeLine="50" d="M1590.4815,101.6395 C1488.5715,114.9795 1276.76,151.362 1112,241.902 C912.66,351.442 825.81,378.802 734,586.902 C651.16,774.662 780.86,1027.592 825.09,1104.662" fill="none" id="Dataset-backto-ProvActivity" style="stroke:#404040;stroke-width:1.2;"/><polygon fill="#404040" points="1602.38,100.082,1595.9116,96.8946,1590.4815,101.6395,1596.9499,104.8269,1602.38,100.082" style="stroke:#404040;stroke-width:1.2;"/><text fill="#000000" font-family="sans-serif" font-size="36" lengthAdjust="spacing" textLength="276.1523" x="735" y="625.7731">wasGeneratedBy</text><text fill="#000000" font-family="sans-serif" font-size="36" lengthAdjust="spacing" textLength="54.0352" x="764.0879" y="1089.0467">0..*</text></g><!--link Dataset to Agent--><g class="link" data-entity-1="ent0005" data-entity-2="ent0013" data-link-type="dependency" data-source-line="51" id="lnk37"><path codeLine="51" d="M1602.4,95.402 C1502.54,101.002 1289.06,126.652 1162,241.902 C1039.31,353.182 1052.93,424.362 1021,586.902 C989.64,746.502 1114.61,915.802 1162,979.902 C1201.46,1033.262 1259.2965,1075.5819 1299.5965,1101.5519" fill="none" id="Dataset-to-Agent" style="stroke:#404040;stroke-width:1.2;"/><polygon fill="#404040" points="1304.64,1104.802,1299.2415,1096.5645,1300.4371,1102.0936,1294.908,1103.2892,1304.64,1104.802" style="stroke:#404040;stroke-width:1.2;"/><text fill="#000000" font-family="sans-serif" font-size="36" lengthAdjust="spacing" textLength="130.0605" x="1022" y="625.7731">provider</text><text fill="#000000" font-family="sans-serif" font-size="36" lengthAdjust="spacing" textLength="54.0352" x="1238.9654" y="1088.9212">0..*</text></g><!--link Dataset to Agent--><g class="link" data-entity-1="ent0005" data-entity-2="ent0013" data-link-type="dependency" data-source-line="53" id="lnk39"><path codeLine="53" d="M1602.47,102.372 C1525.08,117.182 1383.62,154.912 1301,241.902 C1188.9,359.932 1205.74,426.492 1178,586.902 C1142.36,793.002 1277.0178,1025.6071 1324.3478,1099.6271" fill="none" id="Dataset-to-Agent-1" style="stroke:#404040;stroke-width:1.2;"/><polygon fill="#404040" points="1327.58,1104.682,1326.1016,1094.9447,1324.8865,1100.4695,1319.3617,1099.2544,1327.58,1104.682" style="stroke:#404040;stroke-width:1.2;"/><text fill="#000000" font-family="sans-serif" font-size="36" lengthAdjust="spacing" textLength="112.043" x="1179" y="625.7731">creator</text><text fill="#000000" font-family="sans-serif" font-size="36" lengthAdjust="spacing" textLength="54.0352" x="1329.5391" y="1089.0701">0..*</text></g><!--link Dataset to Agent--><g class="link" data-entity-1="ent0005" data-entity-2="ent0013" data-link-type="dependency" data-source-line="55" id="lnk41"><path codeLine="55" d="M1602.42,101.832 C1528.27,115.772 1397.87,152.252 1336,241.902 C1242.84,376.872 1321.18,816.262 1332,979.902 C1334.92,1024.122 1338.4215,1069.7503 1340.7015,1098.8603" fill="none" id="Dataset-to-Agent-2" style="stroke:#404040;stroke-width:1.2;"/><polygon fill="#404040" points="1341.17,1104.842,1344.455,1095.5571,1340.7796,1099.8573,1336.4795,1096.1818,1341.17,1104.842" style="stroke:#404040;stroke-width:1.2;"/><text fill="#000000" font-family="sans-serif" font-size="36" lengthAdjust="spacing" textLength="146.0918" x="1298" y="625.7731">publisher</text><text fill="#000000" font-family="sans-serif" font-size="36" lengthAdjust="spacing" textLength="60.0469" x="1275.469" y="1088.9683">0..1</text></g><!--link Dataset to AbstractDistribution--><g class="link" data-entity-1="ent0005" data-entity-2="ent0006" data-link-type="dependency" data-source-line="52" id="lnk38"><path codeLine="52" d="M1635.31,116.932 C1610.8,144.402 1571.75,192.792 1552,241.902 C1528.38,300.652 1523.8701,370.3232 1523.1201,407.7832" fill="none" id="Dataset-to-AbstractDistribution" style="stroke:#404040;stroke-width:1.2;"/><polygon fill="#404040" points="1523,413.782,1527.1794,404.8639,1523.1001,408.783,1519.181,404.7037,1523,413.782" style="stroke:#404040;stroke-width:1.2;"/><text fill="#000000" font-family="sans-serif" font-size="36" lengthAdjust="spacing" textLength="174.0938" x="1553" y="280.2731">distribution</text><text fill="#000000" font-family="sans-serif" font-size="36" lengthAdjust="spacing" textLength="54.0352" x="1464.1851" y="397.8976">0..*</text></g><!--link Dataset to Contributor--><g class="link" data-entity-1="ent0005" data-entity-2="ent0017" data-link-type="dependency" data-source-line="54" id="lnk40"><path codeLine="54" d="M1602.25,103.292 C1532.02,118.602 1412.98,156.302 1360,241.902 C1335.31,281.792 1317.58,342.122 1380,461.902 C1408.82,517.212 1462.3826,558.2636 1501.9226,583.5036" fill="none" id="Dataset-to-Contributor" style="stroke:#404040;stroke-width:1.2;"/><polygon fill="#404040" points="1506.98,586.732,1501.5461,578.5178,1502.7655,584.0417,1497.2416,585.2611,1506.98,586.732" style="stroke:#404040;stroke-width:1.2;"/><text fill="#000000" font-family="sans-serif" font-size="36" lengthAdjust="spacing" textLength="170.0859" x="1361" y="280.2731">contributor</text><text fill="#000000" font-family="sans-serif" font-size="36" lengthAdjust="spacing" textLength="54.0352" x="1441.4293" y="571.1287">0..*</text></g><!--link Dataset to MonetaryGrant--><g class="link" data-entity-1="ent0005" data-entity-2="ent0022" data-link-type="dependency" data-source-line="56" id="lnk42"><path codeLine="56" d="M1711.81,96.332 C1799.49,103.532 1969.13,131.762 2045,241.902 C2070.71,279.222 2103.18,334.592 2030,461.902 C1995.66,521.642 1931.7005,560.6094 1882.0805,584.1594" fill="none" id="Dataset-to-MonetaryGrant" style="stroke:#404040;stroke-width:1.2;"/><polygon fill="#404040" points="1876.66,586.732,1886.5058,586.4868,1881.1771,584.5882,1883.0757,579.2594,1876.66,586.732" style="stroke:#404040;stroke-width:1.2;"/><text fill="#000000" font-family="sans-serif" font-size="36" lengthAdjust="spacing" textLength="118.1074" x="2070" y="280.2731">funding</text><text fill="#000000" font-family="sans-serif" font-size="36" lengthAdjust="spacing" textLength="54.0352" x="1827.7537" y="571.1287">0..*</text></g><!--link Dataset to DerivedFrom--><g class="link" data-entity-1="ent0005" data-entity-2="ent0023" data-link-type="dependency" data-source-line="57" id="lnk43"><path codeLine="57" d="M1711.65,101.172 C1835.59,118.832 2132.16,168.022 2196,241.902 C2217.8,267.132 2220.3052,361.552 2220.2652,407.602" fill="none" id="Dataset-to-DerivedFrom" style="stroke:#404040;stroke-width:1.2;"/><polygon fill="#404040" points="2220.26,413.602,2224.26,404.602,2220.26,408.602,2216.26,404.602,2220.26,413.602" style="stroke:#404040;stroke-width:1.2;"/><text fill="#000000" font-family="sans-serif" font-size="36" lengthAdjust="spacing" textLength="272.0566" x="2213" y="280.2731">wasDerivedFrom</text><text fill="#000000" font-family="sans-serif" font-size="36" lengthAdjust="spacing" textLength="54.0352" x="2161.6358" y="397.9763">0..*</text></g><!--link Dataset to CatalogRecord--><g class="link" data-entity-1="ent0005" data-entity-2="ent0024" data-link-type="dependency" data-source-line="58" id="lnk44"><path codeLine="58" d="M1711.65,95.542 C1879.43,101.762 2382.36,129.612 2491,241.902 C2536.07,288.482 2530.6798,367.0229 2524.3598,407.7629" fill="none" id="Dataset-to-CatalogRecord" style="stroke:#404040;stroke-width:1.2;"/><polygon fill="#404040" points="2523.44,413.692,2528.7724,405.4116,2524.2065,408.7511,2520.8669,404.1852,2523.44,413.692" style="stroke:#404040;stroke-width:1.2;"/><text fill="#000000" font-family="sans-serif" font-size="36" lengthAdjust="spacing" textLength="152.0684" x="2518" y="280.2731">subjectOf</text><text fill="#000000" font-family="sans-serif" font-size="36" lengthAdjust="spacing" textLength="20.0215" x="2502.4766" y="398.0818">1</text></g><!--link CatalogRecord to Dataset--><g class="link" data-entity-1="ent0024" data-entity-2="ent0005" data-link-type="dependency" data-source-line="68" id="lnk54"><path codeLine="68" d="M2560.73,413.892 C2622.65,376.892 2726.2,302.252 2674,241.902 C2610.2,168.152 1919.6342,112.8571 1717.6042,98.1671" fill="none" id="CatalogRecord-to-Dataset" style="stroke:#404040;stroke-width:1.2;"/><polygon fill="#404040" points="1711.62,97.732,1720.3062,102.3742,1716.6068,98.0946,1720.8864,94.3952,1711.62,97.732" style="stroke:#404040;stroke-width:1.2;"/><text fill="#000000" font-family="sans-serif" font-size="36" lengthAdjust="spacing" textLength="90.0879" x="2689" y="280.2731">about</text><text fill="#000000" font-family="sans-serif" font-size="36" lengthAdjust="spacing" textLength="60.0469" x="1719.933" y="88.3906">0..1</text></g><!--link Dataset to DefinedTerm--><g class="link" data-entity-1="ent0005" data-entity-2="ent0018" data-link-type="dependency" data-source-line="59" id="lnk45"><path codeLine="59" d="M1671.72,117.012 C1689.08,145.332 1717.51,195.312 1733,241.902 C1752.99,302.012 1760.8132,370.7826 1763.8932,407.8526" fill="none" id="Dataset-to-DefinedTerm" style="stroke:#404040;stroke-width:1.2;"/><polygon fill="#404040" points="1764.39,413.832,1767.6311,404.5317,1763.976,408.8492,1759.6585,405.1941,1764.39,413.832" style="stroke:#404040;stroke-width:1.2;"/><text fill="#000000" font-family="sans-serif" font-size="36" lengthAdjust="spacing" textLength="152.0508" x="1746" y="280.2731">keywords</text><text fill="#000000" font-family="sans-serif" font-size="36" lengthAdjust="spacing" textLength="54.0352" x="1705.2619" y="397.9565">0..*</text></g><!--link Dataset to Reference--><g class="link" data-entity-1="ent0005" data-entity-2="ent0021" data-link-type="dependency" data-source-line="60" id="lnk46"><path codeLine="60" d="M1711.67,111.972 C1768.62,133.682 1856.08,175.692 1904,241.902 C1942.15,294.622 1947.9571,368.7223 1948.3671,407.8123" fill="none" id="Dataset-to-Reference" style="stroke:#404040;stroke-width:1.2;"/><polygon fill="#404040" points="1948.43,413.812,1952.3354,404.7705,1948.3776,408.8123,1944.3358,404.8545,1948.43,413.812" style="stroke:#404040;stroke-width:1.2;"/><text fill="#000000" font-family="sans-serif" font-size="36" lengthAdjust="spacing" textLength="112.0605" x="1927" y="280.2731">license</text><text fill="#000000" font-family="sans-serif" font-size="36" lengthAdjust="spacing" textLength="54.0352" x="1889.6636" y="397.933">0..*</text></g><!--link DataDownload to Agent--><g class="link" data-entity-1="ent0007" data-entity-2="ent0013" data-link-type="dependency" data-source-line="61" id="lnk47"><path codeLine="61" d="M1640.57,807.942 C1582.6,870.272 1427.1965,1037.3788 1368.8365,1100.1188" fill="none" id="DataDownload-to-Agent" style="stroke:#404040;stroke-width:1.2;"/><polygon fill="#404040" points="1364.75,1104.512,1373.8086,1100.6465,1368.1554,1100.851,1367.951,1095.1978,1364.75,1104.512" style="stroke:#404040;stroke-width:1.2;"/><text fill="#000000" font-family="sans-serif" font-size="36" lengthAdjust="spacing" textLength="130.0605" x="1522" y="971.2731">provider</text><text fill="#000000" font-family="sans-serif" font-size="36" lengthAdjust="spacing" textLength="54.0352" x="1373.0977" y="1088.8709">0..*</text></g><!--link WebAPI to Action--><g class="link" data-entity-1="ent0008" data-entity-2="ent0009" data-link-type="dependency" data-source-line="62" id="lnk48"><path codeLine="62" d="M1986,807.942 C1986,870.272 1986,1035.772 1986,1098.512" fill="none" id="WebAPI-to-Action" style="stroke:#404040;stroke-width:1.2;"/><polygon fill="#404040" points="1986,1104.512,1990,1095.512,1986,1099.512,1982,1095.512,1986,1104.512" style="stroke:#404040;stroke-width:1.2;"/><text fill="#000000" font-family="sans-serif" font-size="36" lengthAdjust="spacing" textLength="236.1621" x="1987" y="971.2731">potentialAction</text><text fill="#000000" font-family="sans-serif" font-size="36" lengthAdjust="spacing" textLength="54.0352" x="1927.3298" y="1088.8709">0..*</text></g><!--link Action to EntryPoint--><g class="link" data-entity-1="ent0009" data-entity-2="ent0010" data-link-type="dependency" data-source-line="63" id="lnk49"><path codeLine="63" d="M2021.64,1153.072 C2060.29,1179.592 2121.96,1226.102 2163,1277.902 C2206.88,1333.292 2236.7674,1405.8413 2250.8874,1444.2013" fill="none" id="Action-to-EntryPoint" style="stroke:#404040;stroke-width:1.2;"/><polygon fill="#404040" points="2252.96,1449.832,2253.6049,1440.0043,2251.2328,1445.1398,2246.0973,1442.7677,2252.96,1449.832" style="stroke:#404040;stroke-width:1.2;"/><text fill="#000000" font-family="sans-serif" font-size="36" lengthAdjust="spacing" textLength="92.0566" x="2194" y="1316.2731">target</text><text fill="#000000" font-family="sans-serif" font-size="36" lengthAdjust="spacing" textLength="20.0215" x="2229.7131" y="1433.9565">1</text></g><!--link Action to ActionResult--><g class="link" data-entity-1="ent0009" data-entity-2="ent0011" data-link-type="dependency" data-source-line="64" id="lnk50"><path codeLine="64" d="M1966.52,1152.942 C1913.82,1215.272 1772.6936,1382.19 1719.6536,1444.93" fill="none" id="Action-to-ActionResult" style="stroke:#404040;stroke-width:1.2;"/><polygon fill="#404040" points="1715.78,1449.512,1724.6451,1445.2214,1719.008,1445.6936,1718.5357,1440.0565,1715.78,1449.512" style="stroke:#404040;stroke-width:1.2;"/><text fill="#000000" font-family="sans-serif" font-size="36" lengthAdjust="spacing" textLength="88.0313" x="1859" y="1316.2731">result</text><text fill="#000000" font-family="sans-serif" font-size="36" lengthAdjust="spacing" textLength="60.0469" x="1653.992" y="1433.8709">0..1</text></g><!--link Action to PropertyValueSpecification--><g class="link" data-entity-1="ent0009" data-entity-2="ent0012" data-link-type="dependency" data-source-line="65" id="lnk51"><path codeLine="65" d="M1986,1152.942 C1986,1215.272 1986,1380.772 1986,1443.512" fill="none" id="Action-to-PropertyValueSpecification" style="stroke:#404040;stroke-width:1.2;"/><polygon fill="#404040" points="1986,1449.512,1990,1440.512,1986,1444.512,1982,1440.512,1986,1449.512" style="stroke:#404040;stroke-width:1.2;"/><text fill="#000000" font-family="sans-serif" font-size="36" lengthAdjust="spacing" textLength="170.1211" x="1987" y="1316.2731">queryInput</text><text fill="#000000" font-family="sans-serif" font-size="36" lengthAdjust="spacing" textLength="54.0352" x="1927.3448" y="1433.8709">0..*</text></g><!--link Contributor to Agent--><g class="link" data-entity-1="ent0017" data-entity-2="ent0013" data-link-type="dependency" data-source-line="66" id="lnk52"><path codeLine="66" d="M1506.54,634.902 C1466.61,660.022 1407.51,704.192 1379,759.902 C1318.75,877.622 1331.4088,1038.218 1338.9488,1098.788" fill="none" id="Contributor-to-Agent" style="stroke:#404040;stroke-width:1.2;"/><polygon fill="#404040" points="1339.69,1104.742,1342.5476,1095.3168,1339.0723,1099.7803,1334.6089,1096.3051,1339.69,1104.742" style="stroke:#404040;stroke-width:1.2;"/><text fill="#000000" font-family="sans-serif" font-size="36" lengthAdjust="spacing" textLength="170.0859" x="1380" y="798.7731">contributor</text><text fill="#000000" font-family="sans-serif" font-size="36" lengthAdjust="spacing" textLength="60.0469" x="1233.6471" y="1140.2066">0..1</text></g><!--link MonetaryGrant to Agent--><g class="link" data-entity-1="ent0022" data-entity-2="ent0013" data-link-type="dependency" data-source-line="67" id="lnk53"><path codeLine="67" d="M1817.32,635.092 C1812.38,672.682 1799.89,748.652 1774,807.902 C1737.08,892.392 1728.02,919.912 1658,979.902 C1574.14,1051.742 1455.2181,1094.6786 1390.7481,1114.3786" fill="none" id="MonetaryGrant-to-Agent" style="stroke:#404040;stroke-width:1.2;"/><polygon fill="#404040" points="1385.01,1116.132,1394.7861,1117.3273,1389.7917,1114.6709,1392.4482,1109.6765,1385.01,1116.132" style="stroke:#404040;stroke-width:1.2;"/><text fill="#000000" font-family="sans-serif" font-size="36" lengthAdjust="spacing" textLength="102.0762" x="1791" y="798.7731">funder</text><text fill="#000000" font-family="sans-serif" font-size="36" lengthAdjust="spacing" textLength="54.0352" x="1393.3985" y="1154.7223">0..*</text></g><!--link CatalogRecord to Agent--><g class="link" data-entity-1="ent0024" data-entity-2="ent0013" data-link-type="dependency" data-source-line="69" id="lnk55"><path codeLine="69" d="M2514.21,462.172 C2495.34,547.402 2417.79,844.522 2229,979.902 C2090.39,1079.302 1547.7305,1116.5541 1391.0005,1125.3941" fill="none" id="CatalogRecord-to-Agent" style="stroke:#404040;stroke-width:1.2;"/><polygon fill="#404040" points="1385.01,1125.732,1394.221,1129.2188,1390.0021,1125.4504,1393.7705,1121.2315,1385.01,1125.732" style="stroke:#404040;stroke-width:1.2;"/><text fill="#000000" font-family="sans-serif" font-size="36" lengthAdjust="spacing" textLength="168.082" x="2407" y="798.7731">maintainer</text><text fill="#000000" font-family="sans-serif" font-size="36" lengthAdjust="spacing" textLength="60.0469" x="1393.3158" y="1115.1666">0..1</text></g><?plantuml-src VLRRRjim37ttLmZfMu4KQRiMWp4CI9EuoCEGe2ssPqMc4osEv4bo0dSRi8_O5-vBHbk-o9S4HG7pwF1G8aKgXfiOo6o-3DPA7a5GmO3y-_ENeA6E74xUZeT065Si1liDXyHav0273IZjwJqN2LNqGFIEXlB4nPP4DDRWh4oLagUt7MTx0LgJsvixPr5HiTUGaBk7YOCA6KA1kc084KrZ4qXXNlaxaFj7Pv755BL_UiI6cybOAdBrOPB_8VWaLGYgYxfIw6YCuflKG0DFlD-UPwL7UOQcpF0ZDzc8K4rSW5m5Ys0nMrJafT16fGSGfg0sPfSutIAu52yoXeBfs5tgd1ggmGgMtpM5RZ00POPKigKzvzeUYajXzGSMoDNySJ4DFhg1vl8aOad3Ebe5T7Vr3JRJzRAWsKyap8BxML2Va3N1sL2uXJ0gMqjUvgenkqJh_W8QRu6ZPu5kMAnE0ifaNscSmci2Z4USqNehvvVhgBsSRgjo5b_TtQsn7ohnuhDBcE6rGhdcf2xG9Q_KbWh-tcpO1OQKYs9ALGkNTg-s4741uHkeWorjO_VkS8YdnBI05MtCNbt2aEVRed6LLPkb7jnrV8485E3CAVYrrQLzaG8CLTap3WkRkHRIFwBYHmW39QiZrdOlSNYnOxbz0ORpmQREHRePcOKymjmoICnArIdieUWsNJpCxy-whTGhraTiXzshrLfci6S__HgFMurvWMORqxFNja3i3NKHztvvhT4s7dyceydDpVN8dMC-IJNeOURjg6e1dz0yn5bQwrPV95yxcZZo3MSyeHV8xY2jXAkfUOtdhJHTTv-Sg7u60OeQ29-osg6hc-y17V4zL8ESeKhu97JCIz9C0SNM7QAudOt4nkgHRvsjffkOwztmNjkjv9Ce5I5UlY6gsqX5gXoWpSVWxKRoYKuttu6PLJIit4mXd-mXEw6J7c8sGy8dCMSWyAT6wtcwLAhoWN8fhAnD8aq-tcXi4QzSg4xZF4e-mNHjmRGePSBTzyWdglZeykobE_Vu-EH72YfRYYGrdbljWRgwvM-NSI09ULqn1UsoEA9Lhh5NDZAFVOvO2HuePWF_KVG_?></g></svg>