<svg xmlns="http://www.w3.org/2000/svg" xmlns:xlink="http://www.w3.org/1999/xlink" contentStyleType="text/css" data-diagram-type="CLASS" height="504px" preserveAspectRatio="none" style="width:713px;height:504px;background:#FFFFFF;" version="1.1" viewBox="0 0 713 504" width="713px" zoomAndPan="magnify"><?plantuml 1.2026.3?><defs/><g><g class="title" data-source-line="1"><text fill="#000000" font-family="sans-serif" font-size="14" font-weight="700" lengthAdjust="spacing" textLength="224.499" x="240.8168" y="24.5332">CDIFConceptScheme &#8212; overview</text></g><!--class ConceptScheme--><g class="entity" data-qualified-name="ConceptScheme" data-source-line="16" id="ent0002"><rect fill="#FEFECE" height="47.7344" rx="2.5" ry="2.5" style="stroke:#404040;stroke-width:0.5;" width="227.792" x="240.0643" y="45.6094"/><text fill="#000000" font-family="sans-serif" font-size="30" lengthAdjust="spacing" textLength="221.792" x="243.0643" y="81.752">ConceptScheme</text></g><!--class Concept--><g class="entity" data-qualified-name="Concept" data-source-line="17" id="ent0003"><rect fill="#FEFECE" height="47.7344" rx="2.5" ry="2.5" style="stroke:#404040;stroke-width:0.5;" width="117.7383" x="14.0643" y="395.1094"/><text fill="#000000" font-family="sans-serif" font-size="30" lengthAdjust="spacing" textLength="111.7383" x="17.0643" y="431.252">Concept</text></g><!--class CatalogRecord--><g class="entity" data-qualified-name="CatalogRecord" data-source-line="18" id="ent0004"><rect fill="#FEFECE" height="47.7344" rx="2.5" ry="2.5" style="stroke:#404040;stroke-width:0.5;" width="206.1123" x="478.0643" y="395.1094"/><text fill="#000000" font-family="sans-serif" font-size="30" lengthAdjust="spacing" textLength="200.1123" x="481.0643" y="431.252">CatalogRecord</text></g><!--reverse link ConceptScheme to CatalogRecord--><g class="link" data-entity-1="ent0002" data-entity-2="ent0004" data-link-type="composition" data-source-line="19" id="lnk5"><path codeLine="19" d="M400.2571,100.497 C438.1871,126.457 486.9443,165.2494 521.0643,218.6094 C557.4943,275.5994 572.7143,355.7794 578.2743,394.8694" fill="none" id="ConceptScheme-backto-CatalogRecord" style="stroke:#404040;stroke-width:1.2;"/><polygon fill="#404040" points="390.3543,93.7194,393.0465,100.4091,400.2571,100.497,397.5649,93.8073,390.3543,93.7194" style="stroke:#404040;stroke-width:1.2;"/><text fill="#000000" font-family="sans-serif" font-size="36" lengthAdjust="spacing" textLength="152.0684" x="545.0643" y="256.9805">subjectOf</text><text fill="#000000" font-family="sans-serif" font-size="36" lengthAdjust="spacing" textLength="60.0469" x="512.6329" y="379.254">0..1</text></g><!--reverse link ConceptScheme to Concept--><g class="link" data-entity-1="ent0002" data-entity-2="ent0003" data-link-type="composition" data-source-line="20" id="lnk6"><path codeLine="20" d="M246.0709,97.3454 C181.5509,118.2954 112.8743,152.6394 73.0643,218.6094 C39.5043,274.2094 55.1043,355.3894 65.8543,394.8494" fill="none" id="ConceptScheme-backto-Concept" style="stroke:#404040;stroke-width:1.2;"/><polygon fill="#404040" points="257.4843,93.6394,250.5423,91.6879,246.0709,97.3454,253.013,99.2968,257.4843,93.6394" style="stroke:#404040;stroke-width:1.2;"/><text fill="#000000" font-family="sans-serif" font-size="36" lengthAdjust="spacing" textLength="254.1621" x="74.0643" y="256.9805">hasTopConcept</text><text fill="#000000" font-family="sans-serif" font-size="36" lengthAdjust="spacing" textLength="54.0352" x="6" y="379.2306">1..*</text></g><!--link Concept to ConceptScheme--><g class="link" data-entity-1="ent0003" data-entity-2="ent0002" data-link-type="dependency" data-source-line="21" id="lnk7"><path codeLine="21" d="M132.1343,400.2894 C192.5343,378.7394 283.8643,336.2994 330.0643,265.6094 C364.9543,212.2194 362.3329,138.7431 358.0329,99.8031" fill="none" id="Concept-to-ConceptScheme" style="stroke:#404040;stroke-width:1.2;"/><polygon fill="#404040" points="357.3743,93.8394,354.3863,103.224,357.9231,98.8092,362.338,102.346,357.3743,93.8394" style="stroke:#404040;stroke-width:1.2;"/><text fill="#000000" font-family="sans-serif" font-size="36" lengthAdjust="spacing" textLength="160.084" x="350.0643" y="256.9805">inScheme</text><text fill="#000000" font-family="sans-serif" font-size="36" lengthAdjust="spacing" textLength="54.0352" x="299.6181" y="138.7016">0..*</text></g><!--link Concept to Concept--><g class="link" data-entity-1="ent0003" data-entity-2="ent0003" data-link-type="dependency" data-source-line="22" id="lnk8"><path codeLine="22" d="M132.3243,403.3494 C143.8643,405.1794 152.0643,410.4294 152.0643,419.1094 C152.0643,427.7894 149.7903,432.1096 138.2503,433.9396" fill="none" id="Concept-to-Concept" style="stroke:#404040;stroke-width:1.2;"/><polygon fill="#404040" points="132.3243,434.8794,141.8397,437.4204,137.2626,434.0963,140.5868,429.5191,132.3243,434.8794" style="stroke:#404040;stroke-width:1.2;"/><text fill="#000000" font-family="sans-serif" font-size="36" lengthAdjust="spacing" textLength="124.084" x="158.0643" y="433.9805">broader</text><text fill="#000000" font-family="sans-serif" font-size="36" lengthAdjust="spacing" textLength="54.0352" x="110.7616" y="488.1496">0..*</text></g><!--link Concept to Concept--><g class="link" data-entity-1="ent0003" data-entity-2="ent0003" data-link-type="dependency" data-source-line="23" id="lnk9"><path codeLine="23" d="M117.8043,395.0894 C182.7343,377.6294 288.0643,385.6394 288.0643,419.1094 C288.0643,452.5894 188.5285,462.1575 123.5985,444.6975" fill="none" id="Concept-to-Concept-1" style="stroke:#404040;stroke-width:1.2;"/><polygon fill="#404040" points="117.8043,443.1394,125.4569,449.3393,122.6328,444.4378,127.5343,441.6137,117.8043,443.1394" style="stroke:#404040;stroke-width:1.2;"/><text fill="#000000" font-family="sans-serif" font-size="36" lengthAdjust="spacing" textLength="142.0488" x="294.0643" y="433.9805">narrower</text><text fill="#000000" font-family="sans-serif" font-size="36" lengthAdjust="spacing" textLength="54.0352" x="66.7671" y="488.2623">0..*</text></g><?plantuml-src VP7FJiCm3CRlVGghkqrgrOu_XnqcGLabJaXiB-2cxXgM9bMIRGA4n4FmX3m9sJgsjA0f5-Vppvyjst8h2BA7npnJab5h5wocXk3xymlKblIMqoweUKd0k6Q2kfYQrhv2Gqr1sWHcpMMB6XimDPPgn-KAAXI6lCoTrcgth3bRIp86qdZY9JNAjQ4M9ZU9fqfLqa7rnP8gt0YRAsaN_8tWwjPBCe7E-ps0hbscXD8mkaxspudtIfUaXwflvGgjrRpOM3hBIV0H19rrs5jI26YWlxPHFi_dsNo0--0V12qAjNecvgRhG5yvuVq-uoY2C8dZD1pWKp2RueMOVQh-AqdZU1oUHfb2ZMQfskF_jm2YQ7PmFwD7ZobmsOKNM4SLMg5RzML8ulv8Zle1?></g></svg>