<svg xmlns="http://www.w3.org/2000/svg" xmlns:xlink="http://www.w3.org/1999/xlink" contentStyleType="text/css" data-diagram-type="CLASS" height="281px" preserveAspectRatio="none" style="width:399px;height:281px;background:#FFFFFF;" version="1.1" viewBox="0 0 399 281" width="399px" zoomAndPan="magnify"><?plantuml 1.2026.3?><defs/><g><g class="title" data-source-line="1"><text fill="#000000" font-family="sans-serif" font-size="14" font-weight="700" lengthAdjust="spacing" textLength="56" x="168.0427" y="24.5332">Concept</text></g><!--class Concept--><g class="entity" data-qualified-name="Concept" data-source-line="12" id="ent0002"><rect fill="#FEFECE" height="103.5313" rx="2.5" ry="2.5" style="stroke:#404040;stroke-width:0.5;" width="181.0527" x="122.29" y="45.6094"/><text fill="#000000" font-family="sans-serif" font-size="12" lengthAdjust="spacing" textLength="44.6953" x="190.4687" y="63.0664">Concept</text><line style="stroke:#404040;stroke-width:0.5;" x1="123.29" x2="302.3427" y1="70.7031" y2="70.7031"/><g data-visibility-modifier="PUBLIC_FIELD"><ellipse cx="133.29" cy="85.0078" fill="none" rx="3" ry="3" style="stroke:#038048;stroke-width:1;"/></g><text fill="#000000" font-family="sans-serif" font-size="14" lengthAdjust="spacing" textLength="136.1787" x="142.29" y="89.2363">identifier : String [0..1]</text><g data-visibility-modifier="PUBLIC_FIELD"><ellipse cx="133.29" cy="102.6172" fill="none" rx="3" ry="3" style="stroke:#038048;stroke-width:1;"/></g><text fill="#000000" font-family="sans-serif" font-size="14" lengthAdjust="spacing" textLength="107.3857" x="142.29" y="106.8457">type : String [1..*]</text><g data-visibility-modifier="PUBLIC_FIELD"><ellipse cx="133.29" cy="120.2266" fill="none" rx="3" ry="3" style="stroke:#038048;stroke-width:1;"/></g><text fill="#000000" font-family="sans-serif" font-size="14" lengthAdjust="spacing" textLength="130.7441" x="142.29" y="124.4551">notation : String [1..*]</text><g data-visibility-modifier="PUBLIC_FIELD"><ellipse cx="133.29" cy="137.8359" fill="none" rx="3" ry="3" style="stroke:#038048;stroke-width:1;"/></g><text fill="#000000" font-family="sans-serif" font-size="14" lengthAdjust="spacing" textLength="155.0527" x="142.29" y="142.0645">inScheme : @id-ref [0..1]</text></g><!--class LanguageTaggedValue--><g class="entity" data-qualified-name="LanguageTaggedValue" data-source-line="19" id="ent0003"><rect fill="#FAE5D3" height="40.1875" rx="2.5" ry="2.5" style="stroke:#404040;stroke-width:0.5;" width="130.7813" x="53.29" y="227.6094"/><text fill="#000000" font-family="sans-serif" font-size="12" font-style="italic" lengthAdjust="spacing" textLength="63.3809" x="86.9902" y="245.0664">&#171;dataType&#187;</text><text fill="#000000" font-family="sans-serif" font-size="12" lengthAdjust="spacing" textLength="124.7813" x="56.29" y="260.1602">LanguageTaggedValue</text></g><!--class ConceptRef--><g class="entity" data-qualified-name="ConceptRef" data-source-line="21" id="ent0004"><rect fill="#FEFECE" height="25.0938" rx="2.5" ry="2.5" style="stroke:#404040;stroke-width:0.5;" width="69.3691" x="288.29" y="235.1094"/><text fill="#000000" font-family="sans-serif" font-size="12" lengthAdjust="spacing" textLength="63.3691" x="291.29" y="252.5664">ConceptRef</text></g><!--link Concept to LanguageTaggedValue--><g class="link" data-entity-1="ent0002" data-entity-2="ent0003" data-link-type="dependency" data-source-line="23" id="lnk5"><path codeLine="23" d="M122.19,113.7394 C83.86,125.0994 42.82,144.9594 19.79,179.6094 C6,200.3494 21.3735,214.0097 47.4635,225.1697" fill="none" id="Concept-to-LanguageTaggedValue" style="stroke:#404040;stroke-width:1.2;"/><polygon fill="#404040" points="52.98,227.5294,46.2784,220.3122,48.3829,225.563,43.1321,227.6675,52.98,227.5294" style="stroke:#404040;stroke-width:1.2;"/><text fill="#000000" font-family="sans-serif" font-size="13" lengthAdjust="spacing" textLength="54.209" x="20.79" y="194.1045">prefLabel</text><text fill="#000000" font-family="sans-serif" font-size="13" lengthAdjust="spacing" textLength="7.23" x="37.992" y="221.7872">1</text></g><!--link Concept to LanguageTaggedValue--><g class="link" data-entity-1="ent0002" data-entity-2="ent0003" data-link-type="dependency" data-source-line="24" id="lnk6"><path codeLine="24" d="M136.75,149.7894 C128.29,158.7094 120.9,168.6794 115.79,179.6094 C108.78,194.5894 109.2512,207.6845 112.1412,221.6145" fill="none" id="Concept-to-LanguageTaggedValue-1" style="stroke:#404040;stroke-width:1.2;"/><polygon fill="#404040" points="113.36,227.4894,115.4483,217.8645,112.3443,222.5936,107.6151,219.4896,113.36,227.4894" style="stroke:#404040;stroke-width:1.2;"/><text fill="#000000" font-family="sans-serif" font-size="13" lengthAdjust="spacing" textLength="52.0381" x="116.79" y="194.1045">definition</text><text fill="#000000" font-family="sans-serif" font-size="13" lengthAdjust="spacing" textLength="21.6836" x="87.8131" y="216.7483">0..1</text></g><!--link Concept to LanguageTaggedValue--><g class="link" data-entity-1="ent0002" data-entity-2="ent0003" data-link-type="dependency" data-source-line="25" id="lnk7"><path codeLine="25" d="M197.83,149.7494 C191.79,165.8694 183.83,183.2194 173.79,197.6094 C165.96,208.8294 159.6784,215.3992 149.6584,223.7092" fill="none" id="Concept-to-LanguageTaggedValue-2" style="stroke:#404040;stroke-width:1.2;"/><polygon fill="#404040" points="145.04,227.5394,154.521,224.873,148.8887,224.3475,149.4141,218.7151,145.04,227.5394" style="stroke:#404040;stroke-width:1.2;"/><text fill="#000000" font-family="sans-serif" font-size="13" lengthAdjust="spacing" textLength="25.3018" x="185.79" y="194.1045">note</text><text fill="#000000" font-family="sans-serif" font-size="13" lengthAdjust="spacing" textLength="21.6836" x="128.7991" y="216.813">0..1</text></g><!--link Concept to ConceptRef--><g class="link" data-entity-1="ent0002" data-entity-2="ent0004" data-link-type="dependency" data-source-line="26" id="lnk8"><path codeLine="26" d="M243.32,149.6694 C253.41,165.4494 265.06,182.6194 276.79,197.6094 C287.43,211.2094 296.8842,221.23 306.5542,230.84" fill="none" id="Concept-to-ConceptRef" style="stroke:#404040;stroke-width:1.2;"/><polygon fill="#404040" points="310.81,235.0694,307.2459,225.888,307.2635,231.5449,301.6067,231.5625,310.81,235.0694" style="stroke:#404040;stroke-width:1.2;"/><text fill="#000000" font-family="sans-serif" font-size="13" lengthAdjust="spacing" textLength="44.8081" x="277.79" y="194.1045">broader</text><text fill="#000000" font-family="sans-serif" font-size="13" lengthAdjust="spacing" textLength="19.5127" x="282.9791" y="224.1449">0..*</text></g><!--link Concept to ConceptRef--><g class="link" data-entity-1="ent0002" data-entity-2="ent0004" data-link-type="dependency" data-source-line="27" id="lnk9"><path codeLine="27" d="M303.55,149.5694 C312.85,158.3894 321,168.3894 326.79,179.6094 C335.87,197.2094 332.8627,215.235 328.6427,229.225" fill="none" id="Concept-to-ConceptRef-1" style="stroke:#404040;stroke-width:1.2;"/><polygon fill="#404040" points="326.91,234.9694,333.3387,227.508,328.354,230.1824,325.6796,225.1977,326.91,234.9694" style="stroke:#404040;stroke-width:1.2;"/><text fill="#000000" font-family="sans-serif" font-size="13" lengthAdjust="spacing" textLength="51.2954" x="331.79" y="194.1045">narrower</text><text fill="#000000" font-family="sans-serif" font-size="13" lengthAdjust="spacing" textLength="19.5127" x="332.5579" y="224.0037">0..*</text></g><?plantuml-src ZPBFJy8m5CVl_IjUnWt3mb0lX10HnucJ42_6msDzsrxOsgKj8MZytst1nOaOJI_jz_twVDiwTXN1NAkC6YTAbWGPcwoYqvxgnXsWfdf3nWgxPTMWmHfiYLBlMHMGOsMf4vaPe_VhahEj8ciXYKUTO5QXrzu4dDBckj86UZV3iBnuhuqaSwukj78hVYL8Hk9TY5EFw1Cv0hGjFlGMwIATfyS1LnvVESwP38nXvKo0VHx6SV8IekxGK4TFuhX_r9Lsw5YhIp5MgwoaEjJTiHmOojk6NrXBLCKE2rfZKP1ymcf7HyGBEamc4XskFSbqwjbdwUt3zRc_Hygx5lsnTIb4Qtimc4AKH1TdZA7nd4lSKFKzFu3_LY8fPyNX6lvVuo-EVcJteoxu63P6et_XF_CKXkz1vWC0?></g></svg>