<svg xmlns="http://www.w3.org/2000/svg" xmlns:xlink="http://www.w3.org/1999/xlink" contentStyleType="text/css" data-diagram-type="CLASS" height="492px" preserveAspectRatio="none" style="width:3029px;height:492px;background:#FFFFFF;" version="1.1" viewBox="0 0 3029 492" width="3029px" zoomAndPan="magnify"><?plantuml 1.2026.3?><defs/><g><g class="title" data-source-line="1"><text fill="#000000" font-family="sans-serif" font-size="14" font-weight="700" lengthAdjust="spacing" textLength="50.5791" x="1485.9009" y="24.5332">Dataset</text></g><!--class Dataset--><g class="entity" data-qualified-name="Dataset" data-source-line="12" id="ent0002"><rect fill="#FEFECE" height="314.8438" rx="2.5" ry="2.5" style="stroke:#404040;stroke-width:0.5;" width="302.2402" x="1401.5" y="45.6094"/><text fill="#000000" font-family="sans-serif" font-size="12" lengthAdjust="spacing" textLength="41.3555" x="1531.9424" y="63.0664">Dataset</text><line style="stroke:#404040;stroke-width:0.5;" x1="1402.5" x2="1702.7402" y1="70.7031" y2="70.7031"/><g data-visibility-modifier="PUBLIC_FIELD"><ellipse cx="1412.5" cy="85.0078" fill="none" rx="3" ry="3" style="stroke:#038048;stroke-width:1;"/></g><text fill="#000000" font-family="sans-serif" font-size="14" lengthAdjust="spacing" textLength="276.2402" x="1421.5" y="89.2363">measurementTechnique : DefinedTerm [0..*]</text><g data-visibility-modifier="PUBLIC_FIELD"><ellipse cx="1412.5" cy="102.6172" fill="none" rx="3" ry="3" style="stroke:#038048;stroke-width:1;"/></g><text fill="#000000" font-family="sans-serif" font-size="14" lengthAdjust="spacing" textLength="137.7373" x="1421.5" y="106.8457">identifier : Identifier [1]</text><g data-visibility-modifier="PUBLIC_FIELD"><ellipse cx="1412.5" cy="120.2266" fill="none" rx="3" ry="3" style="stroke:#038048;stroke-width:1;"/></g><text fill="#000000" font-family="sans-serif" font-size="14" lengthAdjust="spacing" textLength="100.3789" x="1421.5" y="124.4551">name : string [1]</text><g data-visibility-modifier="PUBLIC_FIELD"><ellipse cx="1412.5" cy="137.8359" fill="none" rx="3" ry="3" style="stroke:#038048;stroke-width:1;"/></g><text fill="#000000" font-family="sans-serif" font-size="14" lengthAdjust="spacing" textLength="148.627" x="1421.5" y="142.0645">description : string [0..1]</text><g data-visibility-modifier="PUBLIC_FIELD"><ellipse cx="1412.5" cy="155.4453" fill="none" rx="3" ry="3" style="stroke:#038048;stroke-width:1;"/></g><text fill="#000000" font-family="sans-serif" font-size="14" lengthAdjust="spacing" textLength="216.3301" x="1421.5" y="159.6738">additionalType : DefinedTerm [0..*]</text><g data-visibility-modifier="PUBLIC_FIELD"><ellipse cx="1412.5" cy="173.0547" fill="none" rx="3" ry="3" style="stroke:#038048;stroke-width:1;"/></g><text fill="#000000" font-family="sans-serif" font-size="14" lengthAdjust="spacing" textLength="148.6201" x="1421.5" y="177.2832">sameAs : Identifier [0..*]</text><g data-visibility-modifier="PUBLIC_FIELD"><ellipse cx="1412.5" cy="190.6641" fill="none" rx="3" ry="3" style="stroke:#038048;stroke-width:1;"/></g><text fill="#000000" font-family="sans-serif" font-size="14" lengthAdjust="spacing" textLength="126.0547" x="1421.5" y="194.8926">version : string [0..1]</text><g data-visibility-modifier="PUBLIC_FIELD"><ellipse cx="1412.5" cy="208.2734" fill="none" rx="3" ry="3" style="stroke:#038048;stroke-width:1;"/></g><text fill="#000000" font-family="sans-serif" font-size="14" lengthAdjust="spacing" textLength="206.2881" x="1421.5" y="212.502">inLanguage : XsdLanguage [0..1]</text><g data-visibility-modifier="PUBLIC_FIELD"><ellipse cx="1412.5" cy="225.8828" fill="none" rx="3" ry="3" style="stroke:#038048;stroke-width:1;"/></g><text fill="#000000" font-family="sans-serif" font-size="14" lengthAdjust="spacing" textLength="164.9854" x="1421.5" y="230.1113">dateModified : XsdDate [1]</text><g data-visibility-modifier="PUBLIC_FIELD"><ellipse cx="1412.5" cy="243.4922" fill="none" rx="3" ry="3" style="stroke:#038048;stroke-width:1;"/></g><text fill="#000000" font-family="sans-serif" font-size="14" lengthAdjust="spacing" textLength="189.123" x="1421.5" y="247.7207">datePublished : XsdDate [0..1]</text><g data-visibility-modifier="PUBLIC_FIELD"><ellipse cx="1412.5" cy="261.1016" fill="none" rx="3" ry="3" style="stroke:#038048;stroke-width:1;"/></g><text fill="#000000" font-family="sans-serif" font-size="14" lengthAdjust="spacing" textLength="128.3789" x="1421.5" y="265.3301">url : XsdAnyUri [0..1]</text><g data-visibility-modifier="PUBLIC_FIELD"><ellipse cx="1412.5" cy="278.7109" fill="none" rx="3" ry="3" style="stroke:#038048;stroke-width:1;"/></g><text fill="#000000" font-family="sans-serif" font-size="14" lengthAdjust="spacing" textLength="152.5234" x="1421.5" y="282.9395">license : Reference [0..*]</text><g data-visibility-modifier="PUBLIC_FIELD"><ellipse cx="1412.5" cy="296.3203" fill="none" rx="3" ry="3" style="stroke:#038048;stroke-width:1;"/></g><text fill="#000000" font-family="sans-serif" font-size="14" lengthAdjust="spacing" textLength="231.8887" x="1421.5" y="300.5488">conditionsOfAccess : Reference [0..*]</text><g data-visibility-modifier="PUBLIC_FIELD"><ellipse cx="1412.5" cy="313.9297" fill="none" rx="3" ry="3" style="stroke:#038048;stroke-width:1;"/></g><text fill="#000000" font-family="sans-serif" font-size="14" lengthAdjust="spacing" textLength="232.6816" x="1421.5" y="318.1582">publishingPrinciples : Reference [0..*]</text><g data-visibility-modifier="PUBLIC_FIELD"><ellipse cx="1412.5" cy="331.5391" fill="none" rx="3" ry="3" style="stroke:#038048;stroke-width:1;"/></g><text fill="#000000" font-family="sans-serif" font-size="14" lengthAdjust="spacing" textLength="184.3994" x="1421.5" y="335.7676">keywords : DefinedTerm [0..*]</text><g data-visibility-modifier="PUBLIC_FIELD"><ellipse cx="1412.5" cy="349.1484" fill="none" rx="3" ry="3" style="stroke:#038048;stroke-width:1;"/></g><text fill="#000000" font-family="sans-serif" font-size="14" lengthAdjust="spacing" textLength="177.4336" x="1421.5" y="353.377">relatedLink : Reference [0..*]</text></g><!--class VariableMeasured--><g class="entity" data-qualified-name="VariableMeasured" data-source-line="30" id="ent0003"><rect fill="#EEEEEE" height="25.0938" rx="2.5" ry="2.5" style="stroke:#404040;stroke-width:0.5;" width="103.3887" x="7" y="446.1094"/><text fill="#000000" font-family="sans-serif" font-size="12" lengthAdjust="spacing" textLength="97.3887" x="10" y="463.5664">VariableMeasured</text></g><!--class SpatialExtent--><g class="entity" data-qualified-name="SpatialExtent" data-source-line="32" id="ent0005"><rect fill="#EEEEEE" height="25.0938" rx="2.5" ry="2.5" style="stroke:#404040;stroke-width:0.5;" width="76.7109" x="165" y="446.1094"/><text fill="#000000" font-family="sans-serif" font-size="12" lengthAdjust="spacing" textLength="70.7109" x="168" y="463.5664">SpatialExtent</text></g><!--class TemporalExtent--><g class="entity" data-qualified-name="TemporalExtent" data-source-line="34" id="ent0007"><rect fill="#EEEEEE" height="25.0938" rx="2.5" ry="2.5" style="stroke:#404040;stroke-width:0.5;" width="90.7031" x="293" y="446.1094"/><text fill="#000000" font-family="sans-serif" font-size="12" lengthAdjust="spacing" textLength="84.7031" x="296" y="463.5664">TemporalExtent</text></g><!--class QualityMeasurement--><g class="entity" data-qualified-name="QualityMeasurement" data-source-line="36" id="ent0009"><rect fill="#EEEEEE" height="25.0938" rx="2.5" ry="2.5" style="stroke:#404040;stroke-width:0.5;" width="116.7129" x="428" y="446.1094"/><text fill="#000000" font-family="sans-serif" font-size="12" lengthAdjust="spacing" textLength="110.7129" x="431" y="463.5664">QualityMeasurement</text></g><!--class Agent--><g class="entity" data-qualified-name="Agent" data-source-line="38" id="ent0011"><rect fill="#EEEEEE" height="25.0938" rx="2.5" ry="2.5" style="stroke:#404040;stroke-width:0.5;" width="37.3594" x="738" y="446.1094"/><text fill="#000000" font-family="sans-serif" font-size="12" font-style="italic" lengthAdjust="spacing" textLength="31.3594" x="741" y="463.5664">Agent</text></g><!--class AbstractDistribution--><g class="entity" data-qualified-name="AbstractDistribution" data-source-line="40" id="ent0013"><rect fill="#EEEEEE" height="25.0938" rx="2.5" ry="2.5" style="stroke:#404040;stroke-width:0.5;" width="110.0391" x="852.5" y="446.1094"/><text fill="#000000" font-family="sans-serif" font-size="12" font-style="italic" lengthAdjust="spacing" textLength="104.0391" x="855.5" y="463.5664">AbstractDistribution</text></g><!--class Contributor--><g class="entity" data-qualified-name="Contributor" data-source-line="43" id="ent0016"><rect fill="#EEEEEE" height="25.0938" rx="2.5" ry="2.5" style="stroke:#404040;stroke-width:0.5;" width="65.3613" x="998" y="446.1094"/><text fill="#000000" font-family="sans-serif" font-size="12" lengthAdjust="spacing" textLength="59.3613" x="1001" y="463.5664">Contributor</text></g><!--class MonetaryGrant--><g class="entity" data-qualified-name="MonetaryGrant" data-source-line="46" id="ent0019"><rect fill="#EEEEEE" height="25.0938" rx="2.5" ry="2.5" style="stroke:#404040;stroke-width:0.5;" width="86.0332" x="1098.5" y="446.1094"/><text fill="#000000" font-family="sans-serif" font-size="12" lengthAdjust="spacing" textLength="80.0332" x="1101.5" y="463.5664">MonetaryGrant</text></g><!--class ProvActivity--><g class="entity" data-qualified-name="ProvActivity" data-source-line="48" id="ent0021"><rect fill="#EEEEEE" height="25.0938" rx="2.5" ry="2.5" style="stroke:#404040;stroke-width:0.5;" width="68.6777" x="1220" y="446.1094"/><text fill="#000000" font-family="sans-serif" font-size="12" lengthAdjust="spacing" textLength="62.6777" x="1223" y="463.5664">ProvActivity</text></g><!--class DerivedFrom--><g class="entity" data-qualified-name="DerivedFrom" data-source-line="50" id="ent0023"><rect fill="#EEEEEE" height="25.0938" rx="2.5" ry="2.5" style="stroke:#404040;stroke-width:0.5;" width="75.3457" x="1327" y="446.1094"/><text fill="#000000" font-family="sans-serif" font-size="12" lengthAdjust="spacing" textLength="69.3457" x="1330" y="463.5664">DerivedFrom</text></g><!--class CatalogRecord--><g class="entity" data-qualified-name="CatalogRecord" data-source-line="52" id="ent0025"><rect fill="#EEEEEE" height="25.0938" rx="2.5" ry="2.5" style="stroke:#404040;stroke-width:0.5;" width="86.0449" x="1509.5" y="446.1094"/><text fill="#000000" font-family="sans-serif" font-size="12" lengthAdjust="spacing" textLength="80.0449" x="1512.5" y="463.5664">CatalogRecord</text></g><!--class DefinedTerm--><g class="entity" data-qualified-name="DefinedTerm" data-source-line="54" id="ent0027"><rect fill="#EEEEEE" height="25.0938" rx="2.5" ry="2.5" style="stroke:#404040;stroke-width:0.5;" width="75.3574" x="1733" y="446.1094"/><text fill="#000000" font-family="sans-serif" font-size="12" lengthAdjust="spacing" textLength="69.3574" x="1736" y="463.5664">DefinedTerm</text></g><!--class Reference--><g class="entity" data-qualified-name="Reference" data-source-line="56" id="ent0029"><rect fill="#EEEEEE" height="25.0938" rx="2.5" ry="2.5" style="stroke:#404040;stroke-width:0.5;" width="61.3652" x="2208" y="446.1094"/><text fill="#000000" font-family="sans-serif" font-size="12" lengthAdjust="spacing" textLength="55.3652" x="2211" y="463.5664">Reference</text></g><!--class Identifier--><g class="entity" data-qualified-name="Identifier" data-source-line="60" id="ent0033"><rect fill="#EEEEEE" height="25.0938" rx="2.5" ry="2.5" style="stroke:#404040;stroke-width:0.5;" width="52.0254" x="2590.5" y="446.1094"/><text fill="#000000" font-family="sans-serif" font-size="12" lengthAdjust="spacing" textLength="46.0254" x="2593.5" y="463.5664">Identifier</text></g><!--class XsdLanguage--><g class="entity" data-qualified-name="XsdLanguage" data-source-line="64" id="ent0037"><rect fill="#FAE5D3" height="40.1875" rx="2.5" ry="2.5" style="stroke:#404040;stroke-width:0.5;" width="80.0684" x="2716.5" y="438.6094"/><text fill="#000000" font-family="sans-serif" font-size="12" font-style="italic" lengthAdjust="spacing" textLength="63.3809" x="2724.8438" y="456.0664">&#171;dataType&#187;</text><text fill="#000000" font-family="sans-serif" font-size="12" lengthAdjust="spacing" textLength="74.0684" x="2719.5" y="471.1602">XsdLanguage</text></g><!--class XsdDate--><g class="entity" data-qualified-name="XsdDate" data-source-line="66" id="ent0039"><rect fill="#FAE5D3" height="40.1875" rx="2.5" ry="2.5" style="stroke:#404040;stroke-width:0.5;" width="65.3809" x="2833" y="438.6094"/><text fill="#000000" font-family="sans-serif" font-size="12" font-style="italic" lengthAdjust="spacing" textLength="63.3809" x="2834" y="456.0664">&#171;dataType&#187;</text><text fill="#000000" font-family="sans-serif" font-size="12" lengthAdjust="spacing" textLength="46.0254" x="2842.6777" y="471.1602">XsdDate</text></g><!--class XsdAnyUri--><g class="entity" data-qualified-name="XsdAnyUri" data-source-line="68" id="ent0041"><rect fill="#FAE5D3" height="40.1875" rx="2.5" ry="2.5" style="stroke:#404040;stroke-width:0.5;" width="65.3809" x="2949" y="438.6094"/><text fill="#000000" font-family="sans-serif" font-size="12" font-style="italic" lengthAdjust="spacing" textLength="63.3809" x="2950" y="456.0664">&#171;dataType&#187;</text><text fill="#000000" font-family="sans-serif" font-size="12" lengthAdjust="spacing" textLength="56.6836" x="2953.3486" y="471.1602">XsdAnyUri</text></g><!--link Dataset to VariableMeasured--><g class="link" data-entity-1="ent0002" data-entity-2="ent0003" data-link-type="dependency" data-source-line="31" id="lnk4"><path codeLine="31" d="M1401.49,211.7294 C1082.05,229.7894 348.92,282.0594 126.5,390.6094 C100.14,403.4794 81.2587,425.734 69.9387,441.234" fill="none" id="Dataset-to-VariableMeasured" style="stroke:#404040;stroke-width:1.2;"/><polygon fill="#404040" points="66.4,446.0794,74.9383,441.1704,69.3489,442.0416,68.4778,436.4522,66.4,446.0794" style="stroke:#404040;stroke-width:1.2;"/><text fill="#000000" font-family="sans-serif" font-size="13" lengthAdjust="spacing" textLength="103.3335" x="127.5" y="405.1045">variableMeasured</text><text fill="#000000" font-family="sans-serif" font-size="13" lengthAdjust="spacing" textLength="19.5127" x="46.7656" y="435.159">0..*</text></g><!--link Dataset to SpatialExtent--><g class="link" data-entity-1="ent0002" data-entity-2="ent0005" data-link-type="dependency" data-source-line="33" id="lnk6"><path codeLine="33" d="M1401.39,212.7294 C1104.13,231.8194 455.41,284.5794 261.5,390.6094 C237.74,403.5994 222.3177,425.2488 213.0677,440.7288" fill="none" id="Dataset-to-SpatialExtent" style="stroke:#404040;stroke-width:1.2;"/><polygon fill="#404040" points="209.99,445.8794,218.0402,440.2054,212.5547,441.5873,211.1728,436.1018,209.99,445.8794" style="stroke:#404040;stroke-width:1.2;"/><text fill="#000000" font-family="sans-serif" font-size="13" lengthAdjust="spacing" textLength="93.9453" x="262.5" y="405.1045">spatialCoverage</text><text fill="#000000" font-family="sans-serif" font-size="13" lengthAdjust="spacing" textLength="19.5127" x="189.9627" y="435.2628">0..*</text></g><!--link Dataset to TemporalExtent--><g class="link" data-entity-1="ent0002" data-entity-2="ent0007" data-link-type="dependency" data-source-line="35" id="lnk8"><path codeLine="35" d="M1401.32,213.1094 C1124.29,232.0394 548.44,283.3394 382.5,390.6094 C361.93,403.9094 351.084,425.0208 344.914,440.4008" fill="none" id="Dataset-to-TemporalExtent" style="stroke:#404040;stroke-width:1.2;"/><polygon fill="#404040" points="342.68,445.9694,349.7433,439.1058,344.5416,441.3289,342.3185,436.1272,342.68,445.9694" style="stroke:#404040;stroke-width:1.2;"/><text fill="#000000" font-family="sans-serif" font-size="13" lengthAdjust="spacing" textLength="106.9453" x="383.5" y="405.1045">temporalCoverage</text><text fill="#000000" font-family="sans-serif" font-size="13" lengthAdjust="spacing" textLength="19.5127" x="321.6525" y="435.0037">0..*</text></g><!--link Dataset to QualityMeasurement--><g class="link" data-entity-1="ent0002" data-entity-2="ent0009" data-link-type="dependency" data-source-line="37" id="lnk10"><path codeLine="37" d="M1401.47,212.8094 C1145.86,230.4494 642.85,278.6894 510.5,390.6094 C493.99,404.5694 489.4728,424.7828 487.8628,439.9628" fill="none" id="Dataset-to-QualityMeasurement" style="stroke:#404040;stroke-width:1.2;"/><polygon fill="#404040" points="487.23,445.9294,492.1569,437.4014,487.7573,440.9573,484.2015,436.5577,487.23,445.9294" style="stroke:#404040;stroke-width:1.2;"/><text fill="#000000" font-family="sans-serif" font-size="13" lengthAdjust="spacing" textLength="140.8989" x="511.5" y="405.1045">hasQualityMeasurement</text><text fill="#000000" font-family="sans-serif" font-size="13" lengthAdjust="spacing" textLength="19.5127" x="464.9343" y="435.3325">0..*</text></g><!--link Dataset to Agent--><g class="link" data-entity-1="ent0002" data-entity-2="ent0011" data-link-type="dependency" data-source-line="39" id="lnk12"><path codeLine="39" d="M1401.26,213.5394 C1172.77,231.2894 756.48,278.5094 665.5,390.6094 C641.76,419.8594 699.0639,441.2262 732.0739,450.9362" fill="none" id="Dataset-to-Agent" style="stroke:#404040;stroke-width:1.2;"/><polygon fill="#404040" points="737.83,452.6294,730.3246,446.2522,733.0332,451.2184,728.067,453.927,737.83,452.6294" style="stroke:#404040;stroke-width:1.2;"/><text fill="#000000" font-family="sans-serif" font-size="13" lengthAdjust="spacing" textLength="46.9663" x="666.5" y="405.1045">provider</text><text fill="#000000" font-family="sans-serif" font-size="13" lengthAdjust="spacing" textLength="19.5127" x="710.5776" y="446.0557">0..*</text></g><!--link Dataset to Agent--><g class="link" data-entity-1="ent0002" data-entity-2="ent0011" data-link-type="dependency" data-source-line="42" id="lnk15"><path codeLine="42" d="M1401.07,217.4294 C1192.31,239.2794 832.8,290.6694 753.5,390.6094 C740.98,406.3894 744.7828,425.771 749.8428,440.351" fill="none" id="Dataset-to-Agent-1" style="stroke:#404040;stroke-width:1.2;"/><polygon fill="#404040" points="751.81,446.0194,752.6381,436.2054,750.1707,441.2958,745.0803,438.8283,751.81,446.0194" style="stroke:#404040;stroke-width:1.2;"/><text fill="#000000" font-family="sans-serif" font-size="13" lengthAdjust="spacing" textLength="40.46" x="754.5" y="405.1045">creator</text><text fill="#000000" font-family="sans-serif" font-size="13" lengthAdjust="spacing" textLength="19.5127" x="753.8257" y="435.0743">0..*</text></g><!--link Dataset to Agent--><g class="link" data-entity-1="ent0002" data-entity-2="ent0011" data-link-type="dependency" data-source-line="45" id="lnk18"><path codeLine="45" d="M1401.33,245.7594 C1274.51,281.5694 1089.04,335.9294 929.5,390.6094 C872.52,410.1394 812.0255,434.5986 780.5555,447.5986" fill="none" id="Dataset-to-Agent-2" style="stroke:#404040;stroke-width:1.2;"/><polygon fill="#404040" points="775.01,449.8894,784.8554,450.1502,779.6312,447.9804,781.801,442.7562,775.01,449.8894" style="stroke:#404040;stroke-width:1.2;"/><text fill="#000000" font-family="sans-serif" font-size="13" lengthAdjust="spacing" textLength="52.7554" x="930.5" y="405.1045">publisher</text><text fill="#000000" font-family="sans-serif" font-size="13" lengthAdjust="spacing" textLength="21.6836" x="783.2147" y="442.7182">0..1</text></g><!--link Dataset to AbstractDistribution--><g class="link" data-entity-1="ent0002" data-entity-2="ent0013" data-link-type="dependency" data-source-line="41" id="lnk14"><path codeLine="41" d="M1401.37,249.1694 C1293.94,283.1794 1147.34,333.6094 1023.5,390.6094 C987.16,407.3294 952.3402,428.5896 930.0802,442.8696" fill="none" id="Dataset-to-AbstractDistribution" style="stroke:#404040;stroke-width:1.2;"/><polygon fill="#404040" points="925.03,446.1094,934.7651,444.6166,929.2385,443.4096,930.4454,437.883,925.03,446.1094" style="stroke:#404040;stroke-width:1.2;"/><text fill="#000000" font-family="sans-serif" font-size="13" lengthAdjust="spacing" textLength="62.8672" x="1024.5" y="405.1045">distribution</text><text fill="#000000" font-family="sans-serif" font-size="13" lengthAdjust="spacing" textLength="19.5127" x="909.4401" y="435.2014">0..*</text></g><!--link Dataset to Contributor--><g class="link" data-entity-1="ent0002" data-entity-2="ent0016" data-link-type="dependency" data-source-line="44" id="lnk17"><path codeLine="44" d="M1401.4,259.3194 C1316.52,292.7794 1209.99,338.9294 1120.5,390.6094 C1091.66,407.2694 1065.7871,427.7137 1048.7371,442.0137" fill="none" id="Dataset-to-Contributor" style="stroke:#404040;stroke-width:1.2;"/><polygon fill="#404040" points="1044.14,445.8694,1053.6062,443.1506,1047.971,442.6563,1048.4653,437.0211,1044.14,445.8694" style="stroke:#404040;stroke-width:1.2;"/><text fill="#000000" font-family="sans-serif" font-size="13" lengthAdjust="spacing" textLength="61.4199" x="1121.5" y="405.1045">contributor</text><text fill="#000000" font-family="sans-serif" font-size="13" lengthAdjust="spacing" textLength="19.5127" x="1026.7999" y="435.2489">0..*</text></g><!--link Dataset to MonetaryGrant--><g class="link" data-entity-1="ent0002" data-entity-2="ent0019" data-link-type="dependency" data-source-line="47" id="lnk20"><path codeLine="47" d="M1401.32,275.8694 C1340.18,307.6394 1270.3,347.5594 1211.5,390.6094 C1188.43,407.4994 1169.1869,427.0888 1156.1369,441.3088" fill="none" id="Dataset-to-MonetaryGrant" style="stroke:#404040;stroke-width:1.2;"/><polygon fill="#404040" points="1152.08,445.7294,1161.1124,441.8031,1155.4607,442.0455,1155.2183,436.3939,1152.08,445.7294" style="stroke:#404040;stroke-width:1.2;"/><text fill="#000000" font-family="sans-serif" font-size="13" lengthAdjust="spacing" textLength="42.6499" x="1212.5" y="405.1045">funding</text><text fill="#000000" font-family="sans-serif" font-size="13" lengthAdjust="spacing" textLength="19.5127" x="1133.5832" y="435.3131">0..*</text></g><!--link Dataset to ProvActivity--><g class="link" data-entity-1="ent0002" data-entity-2="ent0021" data-link-type="dependency" data-source-line="49" id="lnk22"><path codeLine="49" d="M1401.43,276.0494 C1353.64,305.4994 1304.68,343.7994 1271.5,390.6094 C1259.63,407.3494 1256.4828,425.6365 1255.4028,439.9065" fill="none" id="Dataset-to-ProvActivity" style="stroke:#404040;stroke-width:1.2;"/><polygon fill="#404040" points="1254.95,445.8894,1259.6178,437.2169,1255.3273,440.9036,1251.6406,436.6132,1254.95,445.8894" style="stroke:#404040;stroke-width:1.2;"/><text fill="#000000" font-family="sans-serif" font-size="13" lengthAdjust="spacing" textLength="99.7217" x="1272.5" y="405.1045">wasGeneratedBy</text><text fill="#000000" font-family="sans-serif" font-size="13" lengthAdjust="spacing" textLength="19.5127" x="1232.5509" y="435.2767">0..*</text></g><!--link Dataset to DerivedFrom--><g class="link" data-entity-1="ent0002" data-entity-2="ent0023" data-link-type="dependency" data-source-line="51" id="lnk24"><path codeLine="51" d="M1407.78,360.7494 C1400.9,370.5894 1394.41,380.5794 1388.5,390.6094 C1377.96,408.4894 1372.4264,425.9515 1368.8264,439.8315" fill="none" id="Dataset-to-DerivedFrom" style="stroke:#404040;stroke-width:1.2;"/><polygon fill="#404040" points="1367.32,445.6394,1373.4514,437.9319,1368.5753,440.7995,1365.7076,435.9234,1367.32,445.6394" style="stroke:#404040;stroke-width:1.2;"/><text fill="#000000" font-family="sans-serif" font-size="13" lengthAdjust="spacing" textLength="98.2427" x="1389.5" y="405.1045">wasDerivedFrom</text><text fill="#000000" font-family="sans-serif" font-size="13" lengthAdjust="spacing" textLength="19.5127" x="1345.8051" y="435.1888">0..*</text></g><!--link Dataset to CatalogRecord--><g class="link" data-entity-1="ent0002" data-entity-2="ent0025" data-link-type="dependency" data-source-line="53" id="lnk26"><path codeLine="53" d="M1492.52,360.7294 C1492.41,377.1394 1495.01,393.3794 1501.5,408.6094 C1508.19,424.3094 1517.8159,433.8553 1529.6359,442.5453" fill="none" id="Dataset-to-CatalogRecord" style="stroke:#404040;stroke-width:1.2;"/><polygon fill="#404040" points="1534.47,446.0994,1529.5882,437.5456,1530.4416,443.1377,1524.8494,443.9911,1534.47,446.0994" style="stroke:#404040;stroke-width:1.2;"/><text fill="#000000" font-family="sans-serif" font-size="13" lengthAdjust="spacing" textLength="54.9136" x="1502.5" y="405.1045">subjectOf</text><text fill="#000000" font-family="sans-serif" font-size="13" lengthAdjust="spacing" textLength="7.23" x="1518.627" y="435.1873">1</text></g><!--link CatalogRecord to Dataset--><g class="link" data-entity-1="ent0025" data-entity-2="ent0002" data-link-type="dependency" data-source-line="58" id="lnk31"><path codeLine="58" d="M1555.25,446.0094 C1557.44,436.1294 1560.32,421.5294 1561.5,408.6094 C1562.91,393.1294 1563.5317,382.9592 1563.6617,366.7992" fill="none" id="CatalogRecord-to-Dataset" style="stroke:#404040;stroke-width:1.2;"/><polygon fill="#404040" points="1563.71,360.7994,1559.6377,369.7669,1563.6698,365.7992,1567.6375,369.8313,1563.71,360.7994" style="stroke:#404040;stroke-width:1.2;"/><text fill="#000000" font-family="sans-serif" font-size="13" lengthAdjust="spacing" textLength="32.5317" x="1564.5" y="405.1045">about</text><text fill="#000000" font-family="sans-serif" font-size="13" lengthAdjust="spacing" textLength="21.6836" x="1542.7522" y="381.8138">0..1</text></g><!--link Dataset to DefinedTerm--><g class="link" data-entity-1="ent0002" data-entity-2="ent0027" data-link-type="dependency" data-source-line="55" id="lnk28"><path codeLine="55" d="M1630.32,360.7494 C1642.68,378.0694 1656.42,394.5094 1671.5,408.6094 C1689.71,425.6294 1709.3783,435.7984 1729.8183,443.8584" fill="none" id="Dataset-to-DefinedTerm" style="stroke:#404040;stroke-width:1.2;"/><polygon fill="#404040" points="1735.4,446.0594,1728.4948,439.0367,1730.7486,444.2252,1725.5601,446.479,1735.4,446.0594" style="stroke:#404040;stroke-width:1.2;"/><text fill="#000000" font-family="sans-serif" font-size="13" lengthAdjust="spacing" textLength="54.9072" x="1672.5" y="405.1045">keywords</text><text fill="#000000" font-family="sans-serif" font-size="13" lengthAdjust="spacing" textLength="19.5127" x="1705.5477" y="438.5769">0..*</text></g><!--link Dataset to DefinedTerm--><g class="link" data-entity-1="ent0002" data-entity-2="ent0027" data-link-type="dependency" data-source-line="59" id="lnk32"><path codeLine="59" d="M1703.73,355.9894 C1713.43,367.4494 1722.79,379.0494 1731.5,390.6094 C1745.11,408.6594 1754.9327,426.53 1761.9527,440.35" fill="none" id="Dataset-to-DefinedTerm-1" style="stroke:#404040;stroke-width:1.2;"/><polygon fill="#404040" points="1764.67,445.6994,1764.1603,435.8637,1762.4056,441.2415,1757.0278,439.4868,1764.67,445.6994" style="stroke:#404040;stroke-width:1.2;"/><text fill="#000000" font-family="sans-serif" font-size="13" lengthAdjust="spacing" textLength="140.188" x="1745.5" y="405.1045">measurementTechnique</text><text fill="#000000" font-family="sans-serif" font-size="13" lengthAdjust="spacing" textLength="19.5127" x="1739.855" y="435.2717">0..*</text></g><!--link Dataset to DefinedTerm--><g class="link" data-entity-1="ent0002" data-entity-2="ent0027" data-link-type="dependency" data-source-line="62" id="lnk35"><path codeLine="62" d="M1703.55,246.6494 C1774.69,275.1094 1852.9,320.5394 1894.5,390.6094 C1916.05,426.8994 1858.1687,443.6665 1814.2587,451.4165" fill="none" id="Dataset-to-DefinedTerm-2" style="stroke:#404040;stroke-width:1.2;"/><polygon fill="#404040" points="1808.35,452.4594,1817.9083,454.8342,1813.2739,451.5903,1816.5178,446.956,1808.35,452.4594" style="stroke:#404040;stroke-width:1.2;"/><text fill="#000000" font-family="sans-serif" font-size="13" lengthAdjust="spacing" textLength="84.5571" x="1900.5" y="405.1045">additionalType</text><text fill="#000000" font-family="sans-serif" font-size="13" lengthAdjust="spacing" textLength="19.5127" x="1816.5016" y="447.5446">0..*</text></g><!--link Dataset to Reference--><g class="link" data-entity-1="ent0002" data-entity-2="ent0029" data-link-type="dependency" data-source-line="57" id="lnk30"><path codeLine="57" d="M1703.77,266.9994 C1807.57,309.2194 1948.9,364.9094 2075.5,408.6094 C2121.17,424.3694 2169.2127,438.37 2202.1427,447.6" fill="none" id="Dataset-to-Reference" style="stroke:#404040;stroke-width:1.2;"/><polygon fill="#404040" points="2207.92,449.2194,2200.3335,442.9388,2203.1055,447.8699,2198.1744,450.6419,2207.92,449.2194" style="stroke:#404040;stroke-width:1.2;"/><text fill="#000000" font-family="sans-serif" font-size="13" lengthAdjust="spacing" textLength="40.4663" x="2076.5" y="405.1045">license</text><text fill="#000000" font-family="sans-serif" font-size="13" lengthAdjust="spacing" textLength="19.5127" x="2180.6687" y="443.1544">0..*</text></g><!--link Dataset to Reference--><g class="link" data-entity-1="ent0002" data-entity-2="ent0029" data-link-type="dependency" data-source-line="70" id="lnk43"><path codeLine="70" d="M1703.58,244.5194 C1820.08,277.8494 1984,329.4694 2121.5,390.6094 C2140.86,399.2194 2186.1886,426.0564 2214.0986,442.8464" fill="none" id="Dataset-to-Reference-1" style="stroke:#404040;stroke-width:1.2;"/><polygon fill="#404040" points="2219.24,445.9394,2213.5899,437.8724,2214.9555,443.3619,2209.466,444.7276,2219.24,445.9394" style="stroke:#404040;stroke-width:1.2;"/><text fill="#000000" font-family="sans-serif" font-size="13" lengthAdjust="spacing" textLength="114.1626" x="2154.5" y="405.1045">conditionsOfAccess</text><text fill="#000000" font-family="sans-serif" font-size="13" lengthAdjust="spacing" textLength="19.5127" x="2215.426" y="435.3464">0..*</text></g><!--link Dataset to Reference--><g class="link" data-entity-1="ent0002" data-entity-2="ent0029" data-link-type="dependency" data-source-line="71" id="lnk44"><path codeLine="71" d="M1703.8,221.3694 C1895.06,246.6594 2207.87,300.7994 2277.5,390.6094 C2291.44,408.5894 2274.5405,428.1304 2258.3405,441.9804" fill="none" id="Dataset-to-Reference-2" style="stroke:#404040;stroke-width:1.2;"/><polygon fill="#404040" points="2253.78,445.8794,2263.2201,443.0713,2257.5804,442.6303,2258.0215,436.9906,2253.78,445.8794" style="stroke:#404040;stroke-width:1.2;"/><text fill="#000000" font-family="sans-serif" font-size="13" lengthAdjust="spacing" textLength="114.8989" x="2283.5" y="405.1045">publishingPrinciples</text><text fill="#000000" font-family="sans-serif" font-size="13" lengthAdjust="spacing" textLength="19.5127" x="2263.5662" y="435.2628">0..*</text></g><!--link Dataset to Reference--><g class="link" data-entity-1="ent0002" data-entity-2="ent0029" data-link-type="dependency" data-source-line="72" id="lnk45"><path codeLine="72" d="M1703.61,214.8894 C1924.79,234.1594 2319.89,283.0394 2406.5,390.6094 C2444.9,438.2994 2333.3064,451.8062 2275.0964,455.7262" fill="none" id="Dataset-to-Reference-3" style="stroke:#404040;stroke-width:1.2;"/><polygon fill="#404040" points="2269.11,456.1294,2278.3584,459.5156,2274.0987,455.7934,2277.8209,451.5337,2269.11,456.1294" style="stroke:#404040;stroke-width:1.2;"/><text fill="#000000" font-family="sans-serif" font-size="13" lengthAdjust="spacing" textLength="63.5972" x="2415.5" y="405.1045">relatedLink</text><text fill="#000000" font-family="sans-serif" font-size="13" lengthAdjust="spacing" textLength="19.5127" x="2277.3979" y="470.7896">0..*</text></g><!--link Dataset to Identifier--><g class="link" data-entity-1="ent0002" data-entity-2="ent0033" data-link-type="dependency" data-source-line="61" id="lnk34"><path codeLine="61" d="M1703.73,220.9394 C1891.55,244.8494 2219.88,296.5594 2487.5,390.6094 C2528.93,405.1694 2568.5173,427.7492 2592.9073,442.7292" fill="none" id="Dataset-to-Identifier" style="stroke:#404040;stroke-width:1.2;"/><polygon fill="#404040" points="2598.02,445.8694,2592.4444,437.7507,2593.7594,443.2526,2588.2575,444.5676,2598.02,445.8694" style="stroke:#404040;stroke-width:1.2;"/><text fill="#000000" font-family="sans-serif" font-size="13" lengthAdjust="spacing" textLength="49.1372" x="2529.5" y="405.1045">identifier</text><text fill="#000000" font-family="sans-serif" font-size="13" lengthAdjust="spacing" textLength="7.23" x="2582.4057" y="435.2489">1</text></g><!--link Dataset to Identifier--><g class="link" data-entity-1="ent0002" data-entity-2="ent0033" data-link-type="dependency" data-source-line="63" id="lnk36"><path codeLine="63" d="M1703.56,213.9694 C1956.88,233.2894 2452.87,283.8894 2587.5,390.6094 C2604.88,404.3894 2610.9651,424.7383 2613.7651,439.9683" fill="none" id="Dataset-to-Identifier-1" style="stroke:#404040;stroke-width:1.2;"/><polygon fill="#404040" points="2614.85,445.8694,2617.1567,436.2945,2613.9459,440.9518,2609.2886,437.741,2614.85,445.8694" style="stroke:#404040;stroke-width:1.2;"/><text fill="#000000" font-family="sans-serif" font-size="13" lengthAdjust="spacing" textLength="46.96" x="2602.5" y="405.1045">sameAs</text><text fill="#000000" font-family="sans-serif" font-size="13" lengthAdjust="spacing" textLength="19.5127" x="2618.0369" y="435.2489">0..*</text></g><!--link Dataset to XsdLanguage--><g class="link" data-entity-1="ent0002" data-entity-2="ent0037" data-link-type="dependency" data-source-line="65" id="lnk38"><path codeLine="65" d="M1703.62,209.3694 C1921.64,221.3994 2333.78,260.9094 2657.5,390.6094 C2686.2,402.1094 2710.3589,419.1536 2729.4489,434.5436" fill="none" id="Dataset-to-XsdLanguage" style="stroke:#404040;stroke-width:1.2;stroke-dasharray:7,7;"/><polygon fill="#404040" points="2734.12,438.3094,2729.6239,429.5467,2730.2274,435.1713,2724.6029,435.7748,2734.12,438.3094" style="stroke:#404040;stroke-width:1.2;"/><text fill="#000000" font-family="sans-serif" font-size="13" lengthAdjust="spacing" textLength="67.958" x="2693.5" y="405.1045">inLanguage</text></g><!--link Dataset to XsdDate--><g class="link" data-entity-1="ent0002" data-entity-2="ent0039" data-link-type="dependency" data-source-line="67" id="lnk40"><path codeLine="67" d="M1703.87,205.4894 C1939.86,212.3694 2406.09,245.1694 2769.5,390.6094 C2797.8,401.9394 2821.3101,419.125 2839.7201,434.625" fill="none" id="Dataset-to-XsdDate" style="stroke:#404040;stroke-width:1.2;stroke-dasharray:7,7;"/><polygon fill="#404040" points="2844.31,438.4894,2840.0015,429.6329,2840.4851,435.2691,2834.849,435.7527,2844.31,438.4894" style="stroke:#404040;stroke-width:1.2;"/><text fill="#000000" font-family="sans-serif" font-size="13" lengthAdjust="spacing" textLength="74.439" x="2805.5" y="405.1045">dateModified</text></g><!--link Dataset to XsdAnyUri--><g class="link" data-entity-1="ent0002" data-entity-2="ent0041" data-link-type="dependency" data-source-line="69" id="lnk42"><path codeLine="69" d="M1703.74,216.0094 C2006.37,241.3094 2675.63,305.2094 2888.5,390.6094 C2916.2,401.7194 2938.8582,418.8642 2956.6082,434.4242" fill="none" id="Dataset-to-XsdAnyUri" style="stroke:#404040;stroke-width:1.2;stroke-dasharray:7,7;"/><polygon fill="#404040" points="2961.12,438.3794,2956.989,429.4387,2957.3601,435.0834,2951.7155,435.4545,2961.12,438.3794" style="stroke:#404040;stroke-width:1.2;"/><text fill="#000000" font-family="sans-serif" font-size="13" lengthAdjust="spacing" textLength="14.4473" x="2922.5" y="405.1045">url</text></g><?plantuml-src ZLPTRzem57tFhx3eswQYqcqlKOL4-QWg5RLhsJIfseDnBk2HsCnsO6pgVz-DdGy7GcZx4jzxVEwnVUs3uIO6CgA6QZ31YaT065Si1lSDoSRiIGB979GEz9gB3LKq8Nf58xdZOaaMDDRWPGPAoTrinTbQWDQarxtsaYoc6FiN40SRobWgSl7vAll7uArK4QZ3w4GAyyB_0kbT1sz1u3WwkUGEeRgGJoucuybuEBO5FYP0TQeW0M5cm5Q2_qw1X6G42ouWce5AoEjLj_lXPmR6jGh35nmKGkwhmMlFfWLDihdQg6p9UJ02pHJV62w5bqDAbwPHnBCSZMVxpUdA6ga7-g1gcTtYjf_Wv-A1YcLAbndt3nsLemeIKGDJ6MMaaGFXJa6f7x-VqddCzQgUBkUdAdRnWTX_KzpBn9o1q5dbPrY00i70KysaS6lNZui1OraVD0CthZmkx0bNn_WcXbFGDUnts1xwv4OgY55zzC35kedYhMYSxrHnEezXwleZiXrq62GNO_iN5ArrUTaddOofSumDoVOWLDHwsL33QJp-O_1iRQ5QfArA7OZdxyP3YIs1frnKcE4DbQfMeXvggt6038d90uTLlgOqvcO_hQwKhNGSRglMW0x9YkhZU43dsEwKcVp1w0oMHKdxrLR50KAoKNABjreTS-NZ4S-kr3pD-jHHDoHQApNXGn9vmpQ1J04rKXLRFCHNpawJoghnncqYV1XoLgCZSC_Rc_pMbyMdKe2XQd-dQBxFjKYRW3em98iKxxvO5inFU0m3PlWMJzWI-u4stXek93kgxq1WK-8LlzsN9W2ARo6QA9au8wZ6RTm-p59xWV8yS5eiby_0yDLn9-97ckbnZ-ielBVf_1SmyxYeD9UlLwwvUirQDLUma1IlOK5QFdUMidhyMWWhK4ZovpoeY_SwfvWV4ZgNgJaliCbz2x6Lqrcrdl6TsjHxtvuhhpulesx2JVWQjJFZGgTdgbQeRx8tDsYVD2Fjz_5tns3yPVIffEzs-pKmQYxDsYFFtBOWjixx7b8Bn5V6itQFqXbrGPhRzdjeSsX8qFFFTSknlP-RqUJpv-PuVXxy1m00?></g></svg>