<svg xmlns="http://www.w3.org/2000/svg" xmlns:xlink="http://www.w3.org/1999/xlink" contentStyleType="text/css" data-diagram-type="CLASS" height="281px" preserveAspectRatio="none" style="width:743px;height:281px;background:#FFFFFF;" version="1.1" viewBox="0 0 743 281" width="743px" zoomAndPan="magnify"><?plantuml 1.2026.3?><defs/><g><g class="title" data-source-line="1"><text fill="#000000" font-family="sans-serif" font-size="14" font-weight="700" lengthAdjust="spacing" textLength="99.5723" x="318.2319" y="24.5332">CatalogRecord</text></g><!--class CatalogRecord--><g class="entity" data-qualified-name="CatalogRecord" data-source-line="12" id="ent0002"><rect fill="#FEFECE" height="103.5313" rx="2.5" ry="2.5" style="stroke:#404040;stroke-width:0.5;" width="278.9365" x="126" y="45.6094"/><text fill="#000000" font-family="sans-serif" font-size="12" lengthAdjust="spacing" textLength="80.0449" x="225.4458" y="63.0664">CatalogRecord</text><line style="stroke:#404040;stroke-width:0.5;" x1="127" x2="403.9365" y1="70.7031" y2="70.7031"/><g data-visibility-modifier="PUBLIC_FIELD"><ellipse cx="137" cy="85.0078" fill="none" rx="3" ry="3" style="stroke:#038048;stroke-width:1;"/></g><text fill="#000000" font-family="sans-serif" font-size="14" lengthAdjust="spacing" textLength="216.3301" x="146" y="89.2363">additionalType : DefinedTerm [1..*]</text><g data-visibility-modifier="PUBLIC_FIELD"><ellipse cx="137" cy="102.6172" fill="none" rx="3" ry="3" style="stroke:#038048;stroke-width:1;"/></g><text fill="#000000" font-family="sans-serif" font-size="14" lengthAdjust="spacing" textLength="184.3926" x="146" y="106.8457">conformsTo : XsdAnyUri [1..*]</text><g data-visibility-modifier="PUBLIC_FIELD"><ellipse cx="137" cy="120.2266" fill="none" rx="3" ry="3" style="stroke:#038048;stroke-width:1;"/></g><text fill="#000000" font-family="sans-serif" font-size="14" lengthAdjust="spacing" textLength="206.2334" x="146" y="124.4551">sdDatePublished : XsdDate [0..1]</text><g data-visibility-modifier="PUBLIC_FIELD"><ellipse cx="137" cy="137.8359" fill="none" rx="3" ry="3" style="stroke:#038048;stroke-width:1;"/></g><text fill="#000000" font-family="sans-serif" font-size="14" lengthAdjust="spacing" textLength="252.9365" x="146" y="142.0645">includedInDataCatalog : Reference [0..1]</text></g><!--class Dataset--><g class="entity" data-qualified-name="Dataset" data-source-line="18" id="ent0003"><rect fill="#EEEEEE" height="25.0938" rx="2.5" ry="2.5" style="stroke:#404040;stroke-width:0.5;" width="47.3555" x="7" y="235.1094"/><text fill="#000000" font-family="sans-serif" font-size="12" lengthAdjust="spacing" textLength="41.3555" x="10" y="252.5664">Dataset</text></g><!--class Agent--><g class="entity" data-qualified-name="Agent" data-source-line="21" id="ent0006"><rect fill="#EEEEEE" height="25.0938" rx="2.5" ry="2.5" style="stroke:#404040;stroke-width:0.5;" width="37.3594" x="145" y="235.1094"/><text fill="#000000" font-family="sans-serif" font-size="12" font-style="italic" lengthAdjust="spacing" textLength="31.3594" x="148" y="252.5664">Agent</text></g><!--class DefinedTerm--><g class="entity" data-qualified-name="DefinedTerm" data-source-line="23" id="ent0008"><rect fill="#EEEEEE" height="25.0938" rx="2.5" ry="2.5" style="stroke:#404040;stroke-width:0.5;" width="75.3574" x="228" y="235.1094"/><text fill="#000000" font-family="sans-serif" font-size="12" lengthAdjust="spacing" textLength="69.3574" x="231" y="252.5664">DefinedTerm</text></g><!--class XsdAnyUri--><g class="entity" data-qualified-name="XsdAnyUri" data-source-line="25" id="ent0010"><rect fill="#FAE5D3" height="40.1875" rx="2.5" ry="2.5" style="stroke:#404040;stroke-width:0.5;" width="65.3809" x="359" y="227.6094"/><text fill="#000000" font-family="sans-serif" font-size="12" font-style="italic" lengthAdjust="spacing" textLength="63.3809" x="360" y="245.0664">&#171;dataType&#187;</text><text fill="#000000" font-family="sans-serif" font-size="12" lengthAdjust="spacing" textLength="56.6836" x="363.3486" y="260.1602">XsdAnyUri</text></g><!--class XsdDate--><g class="entity" data-qualified-name="XsdDate" data-source-line="27" id="ent0012"><rect fill="#FAE5D3" height="40.1875" rx="2.5" ry="2.5" style="stroke:#404040;stroke-width:0.5;" width="65.3809" x="469" y="227.6094"/><text fill="#000000" font-family="sans-serif" font-size="12" font-style="italic" lengthAdjust="spacing" textLength="63.3809" x="470" y="245.0664">&#171;dataType&#187;</text><text fill="#000000" font-family="sans-serif" font-size="12" lengthAdjust="spacing" textLength="46.0254" x="478.6777" y="260.1602">XsdDate</text></g><!--class Reference--><g class="entity" data-qualified-name="Reference" data-source-line="29" id="ent0014"><rect fill="#EEEEEE" height="25.0938" rx="2.5" ry="2.5" style="stroke:#404040;stroke-width:0.5;" width="61.3652" x="611" y="235.1094"/><text fill="#000000" font-family="sans-serif" font-size="12" lengthAdjust="spacing" textLength="55.3652" x="614" y="252.5664">Reference</text></g><!--link Dataset to CatalogRecord--><g class="link" data-entity-1="ent0003" data-entity-2="ent0002" data-link-type="dependency" data-source-line="19" id="lnk4"><path codeLine="19" d="M44.17,235.0094 C60.9,221.0594 90.36,197.3294 117.5,179.6094 C133.2,169.3594 145.067,162.1224 161.887,152.6124" fill="none" id="Dataset-to-CatalogRecord" style="stroke:#404040;stroke-width:1.2;"/><polygon fill="#404040" points="167.11,149.6594,157.3068,150.607,162.7575,152.1203,161.2442,157.5709,167.11,149.6594" style="stroke:#404040;stroke-width:1.2;"/><text fill="#000000" font-family="sans-serif" font-size="13" lengthAdjust="spacing" textLength="54.9136" x="118.5" y="194.1045">subjectOf</text><text fill="#000000" font-family="sans-serif" font-size="13" lengthAdjust="spacing" textLength="7.23" x="147.71" y="170.5231">1</text></g><!--link CatalogRecord to Dataset--><g class="link" data-entity-1="ent0002" data-entity-2="ent0003" data-link-type="dependency" data-source-line="20" id="lnk5"><path codeLine="20" d="M125.95,130.5594 C98.42,142.2294 71.81,158.0794 51.5,179.6094 C37.03,194.9494 33.0973,214.1763 31.6973,228.9163" fill="none" id="CatalogRecord-to-Dataset" style="stroke:#404040;stroke-width:1.2;"/><polygon fill="#404040" points="31.13,234.8894,35.9631,226.3079,31.6028,229.9118,27.9989,225.5515,31.13,234.8894" style="stroke:#404040;stroke-width:1.2;"/><text fill="#000000" font-family="sans-serif" font-size="13" lengthAdjust="spacing" textLength="32.5317" x="52.5" y="194.1045">about</text><text fill="#000000" font-family="sans-serif" font-size="13" lengthAdjust="spacing" textLength="21.6836" x="6.3083" y="224.2767">0..1</text></g><!--link CatalogRecord to Agent--><g class="link" data-entity-1="ent0002" data-entity-2="ent0006" data-link-type="dependency" data-source-line="22" id="lnk7"><path codeLine="22" d="M214.13,149.6094 C205.96,159.1294 198.06,169.3294 191.5,179.6094 C180.11,197.4594 173.4592,215.0315 168.9592,228.9215" fill="none" id="CatalogRecord-to-Agent" style="stroke:#404040;stroke-width:1.2;"/><polygon fill="#404040" points="167.11,234.6294,173.6891,227.3003,168.651,229.8728,166.0785,224.8347,167.11,234.6294" style="stroke:#404040;stroke-width:1.2;"/><text fill="#000000" font-family="sans-serif" font-size="13" lengthAdjust="spacing" textLength="60.6963" x="192.5" y="194.1045">maintainer</text><text fill="#000000" font-family="sans-serif" font-size="13" lengthAdjust="spacing" textLength="21.6836" x="143.545" y="224.175">0..1</text></g><!--link CatalogRecord to DefinedTerm--><g class="link" data-entity-1="ent0002" data-entity-2="ent0008" data-link-type="dependency" data-source-line="24" id="lnk9"><path codeLine="24" d="M262.76,149.7394 C262.26,165.1294 262.02,182.0594 262.5,197.6094 C262.89,210.3894 263.4101,219.0255 264.1401,228.9555" fill="none" id="CatalogRecord-to-DefinedTerm" style="stroke:#404040;stroke-width:1.2;"/><polygon fill="#404040" points="264.58,234.9394,267.9094,225.6703,264.2134,229.9528,259.9309,226.2569,264.58,234.9394" style="stroke:#404040;stroke-width:1.2;"/><text fill="#000000" font-family="sans-serif" font-size="13" lengthAdjust="spacing" textLength="84.5571" x="263.5" y="194.1045">additionalType</text><text fill="#000000" font-family="sans-serif" font-size="13" lengthAdjust="spacing" textLength="19.5127" x="241.5077" y="224.3464">1..*</text></g><!--link CatalogRecord to XsdAnyUri--><g class="link" data-entity-1="ent0002" data-entity-2="ent0010" data-link-type="dependency" data-source-line="26" id="lnk11"><path codeLine="26" d="M325.45,149.9894 C334.99,159.3894 344.38,169.4494 352.5,179.6094 C364.43,194.5394 372.3802,208.1814 379.5402,222.1314" fill="none" id="CatalogRecord-to-XsdAnyUri" style="stroke:#404040;stroke-width:1.2;stroke-dasharray:7,7;"/><polygon fill="#404040" points="382.28,227.4694,381.729,217.6359,379.9969,223.0211,374.6117,221.289,382.28,227.4694" style="stroke:#404040;stroke-width:1.2;"/><text fill="#000000" font-family="sans-serif" font-size="13" lengthAdjust="spacing" textLength="68.6309" x="365.5" y="194.1045">conformsTo</text></g><!--link CatalogRecord to XsdDate--><g class="link" data-entity-1="ent0002" data-entity-2="ent0012" data-link-type="dependency" data-source-line="28" id="lnk13"><path codeLine="28" d="M394.37,149.7394 C411.2,158.6494 427.72,168.6294 442.5,179.6094 C460.66,193.1094 473.7021,208.1978 484.6421,222.7978" fill="none" id="CatalogRecord-to-XsdDate" style="stroke:#404040;stroke-width:1.2;stroke-dasharray:7,7;"/><polygon fill="#404040" points="488.24,227.5994,486.0442,217.9984,485.2418,223.5981,479.6421,222.7956,488.24,227.5994" style="stroke:#404040;stroke-width:1.2;"/><text fill="#000000" font-family="sans-serif" font-size="13" lengthAdjust="spacing" textLength="98.2871" x="463.5" y="194.1045">sdDatePublished</text></g><!--link CatalogRecord to Reference--><g class="link" data-entity-1="ent0002" data-entity-2="ent0014" data-link-type="dependency" data-source-line="30" id="lnk15"><path codeLine="30" d="M405.05,120.4394 C459.03,132.7094 519.88,151.4294 570.5,179.6094 C596.41,194.0394 616.2638,215.4194 628.6438,230.4394" fill="none" id="CatalogRecord-to-Reference" style="stroke:#404040;stroke-width:1.2;"/><polygon fill="#404040" points="632.46,235.0694,629.8224,225.5803,629.2798,231.2111,623.6491,230.6685,632.46,235.0694" style="stroke:#404040;stroke-width:1.2;"/><text fill="#000000" font-family="sans-serif" font-size="13" lengthAdjust="spacing" textLength="131.5361" x="595.5" y="194.1045">includedInDataCatalog</text><text fill="#000000" font-family="sans-serif" font-size="13" lengthAdjust="spacing" textLength="21.6836" x="603.4654" y="224.1449">0..1</text></g><?plantuml-src ZP9RIyCm5CVVyoaEtPjYiLvUYWpcre5FYauGXWzfShf5qsGa6JB5xswQhhVXhQEGdVFh_rp-SS99X2brLEhLFJ9jE5aBZi24OHBhCvORjuCIonoD9VPLg0qrj0Ixfbo_2RM2WagBlSp46FssM0lsgj1QIEApNf99wcCV16figgKsCBeuhNu-UErxG7COdMlb7iGxGd96FWcfDQ91un5GEnm5HlDidaspKEoOSYwSq8hAnMw3aC8C2w6GBz2Ki4pY-EYvmfXMXJQbNMYFF5a-KRj78tg0vJFgy6wRIs7No6kg2i7oD8wJm0Z5v9OZlr4-GVTDUV8U2pIeMCj-DgDKd4KNXjYVOPI5XpJ_Jqx642NHmP0fs6t-WipT5cIO2NnL9sebKw2vtZf2S-iCPMxlHZHPeQgBXrDR-aV16akXf48v_w9f9-dMMa_JM_ClijL-em7iUnrOrXHeJGdodKLNLzpBLkHuxAsVP9UpyuDASJpkVP12PtPFlFAoaGw-_byuuDwGuHLfj5ltWtft5_vSTeUcyEtL8by0?></g></svg>