<svg xmlns="http://www.w3.org/2000/svg" xmlns:xlink="http://www.w3.org/1999/xlink" contentStyleType="text/css" data-diagram-type="CLASS" height="299px" preserveAspectRatio="none" style="width:2457px;height:299px;background:#FFFFFF;" version="1.1" viewBox="0 0 2457 299" width="2457px" zoomAndPan="magnify"><?plantuml 1.2026.3?><defs/><g><g class="title" data-source-line="1"><text fill="#000000" font-family="sans-serif" font-size="14" font-weight="700" lengthAdjust="spacing" textLength="181.2549" x="1134.7766" y="24.5332">ControlledVocabularyEntry</text></g><!--class ControlledVocabularyEntry--><g class="entity" data-qualified-name="ControlledVocabularyEntry" data-source-line="12" id="ent0002"><rect fill="#FAE5D3" height="136.2344" rx="2.5" ry="2.5" style="stroke:#404040;stroke-width:0.5;" width="230.6611" x="1012.85" y="148.6094"/><text fill="#000000" font-family="sans-serif" font-size="12" font-style="italic" lengthAdjust="spacing" textLength="63.3809" x="1096.4901" y="166.0664">&#171;dataType&#187;</text><text fill="#000000" font-family="sans-serif" font-size="12" lengthAdjust="spacing" textLength="142.7402" x="1056.8104" y="181.1602">ControlledVocabularyEntry</text><line style="stroke:#404040;stroke-width:0.5;" x1="1013.85" x2="1242.5111" y1="188.7969" y2="188.7969"/><g data-visibility-modifier="PUBLIC_FIELD"><ellipse cx="1023.85" cy="203.1016" fill="none" rx="3" ry="3" style="stroke:#038048;stroke-width:1;"/></g><text fill="#000000" font-family="sans-serif" font-size="14" lengthAdjust="spacing" textLength="204.6611" x="1032.85" y="207.3301">entryReference : Reference [1..*]</text><g data-visibility-modifier="PUBLIC_FIELD"><ellipse cx="1023.85" cy="220.7109" fill="none" rx="3" ry="3" style="stroke:#038048;stroke-width:1;"/></g><text fill="#000000" font-family="sans-serif" font-size="14" lengthAdjust="spacing" textLength="145.5166" x="1032.85" y="224.9395">entryValue : string [1..*]</text><g data-visibility-modifier="PUBLIC_FIELD"><ellipse cx="1023.85" cy="238.3203" fill="none" rx="3" ry="3" style="stroke:#038048;stroke-width:1;"/></g><text fill="#000000" font-family="sans-serif" font-size="14" lengthAdjust="spacing" textLength="100.3789" x="1032.85" y="242.5488">name : string [1]</text><g data-visibility-modifier="PUBLIC_FIELD"><ellipse cx="1023.85" cy="255.9297" fill="none" rx="3" ry="3" style="stroke:#038048;stroke-width:1;"/></g><text fill="#000000" font-family="sans-serif" font-size="14" lengthAdjust="spacing" textLength="154.8408" x="1032.85" y="260.1582">valueForOther : string [1]</text><g data-visibility-modifier="PUBLIC_FIELD"><ellipse cx="1023.85" cy="273.5391" fill="none" rx="3" ry="3" style="stroke:#038048;stroke-width:1;"/></g><text fill="#000000" font-family="sans-serif" font-size="14" lengthAdjust="spacing" textLength="163.4199" x="1032.85" y="277.7676">vocabulary : Reference [1]</text></g><!--class ReferenceVariable--><g class="entity" data-qualified-name="ReferenceVariable" data-source-line="19" id="ent0003"><rect fill="#EEEEEE" height="25.0938" rx="2.5" ry="2.5" style="stroke:#404040;stroke-width:0.5;" width="105.3926" x="346.85" y="45.6094"/><text fill="#000000" font-family="sans-serif" font-size="12" lengthAdjust="spacing" textLength="99.3926" x="349.85" y="63.0664">ReferenceVariable</text></g><!--class DescriptorVariable--><g class="entity" data-qualified-name="DescriptorVariable" data-source-line="27" id="ent0011"><rect fill="#EEEEEE" height="25.0938" rx="2.5" ry="2.5" style="stroke:#404040;stroke-width:0.5;" width="104.707" x="1265.85" y="45.6094"/><text fill="#000000" font-family="sans-serif" font-size="12" lengthAdjust="spacing" textLength="98.707" x="1268.85" y="63.0664">DescriptorVariable</text></g><!--class SubstantiveValueDomain--><g class="entity" data-qualified-name="SubstantiveValueDomain" data-source-line="35" id="ent0019"><rect fill="#EEEEEE" height="25.0938" rx="2.5" ry="2.5" style="stroke:#404040;stroke-width:0.5;" width="140.748" x="1817.85" y="45.6094"/><text fill="#000000" font-family="sans-serif" font-size="12" lengthAdjust="spacing" textLength="134.748" x="1820.85" y="63.0664">SubstantiveValueDomain</text></g><!--class SentinelValueDomain--><g class="entity" data-qualified-name="SentinelValueDomain" data-source-line="37" id="ent0021"><rect fill="#EEEEEE" height="25.0938" rx="2.5" ry="2.5" style="stroke:#404040;stroke-width:0.5;" width="121.4063" x="2066.85" y="45.6094"/><text fill="#000000" font-family="sans-serif" font-size="12" lengthAdjust="spacing" textLength="115.4063" x="2069.85" y="63.0664">SentinelValueDomain</text></g><!--class DescriptorValueDomain--><g class="entity" data-qualified-name="DescriptorValueDomain" data-source-line="40" id="ent0024"><rect fill="#EEEEEE" height="25.0938" rx="2.5" ry="2.5" style="stroke:#404040;stroke-width:0.5;" width="132.7207" x="2300.85" y="45.6094"/><text fill="#000000" font-family="sans-serif" font-size="12" lengthAdjust="spacing" textLength="126.7207" x="2303.85" y="63.0664">DescriptorValueDomain</text></g><!--link ReferenceVariable to ControlledVocabularyEntry--><g class="link" data-entity-1="ent0003" data-entity-2="ent0002" data-link-type="dependency" data-source-line="20" id="lnk4"><path codeLine="20" d="M346.55,59.9294 C238.57,62.5194 6,73.3794 47.35,118.6094 C111.52,188.7894 740.7112,208.4911 1006.4312,213.7311" fill="none" id="ReferenceVariable-to-ControlledVocabularyEntry" style="stroke:#404040;stroke-width:1.2;stroke-dasharray:7,7;"/><polygon fill="#404040" points="1012.43,213.8494,1003.5106,209.6727,1007.431,213.7508,1003.3529,217.6712,1012.43,213.8494" style="stroke:#404040;stroke-width:1.2;"/><text fill="#000000" font-family="sans-serif" font-size="13" lengthAdjust="spacing" textLength="45.5317" x="48.35" y="115.1045">function</text></g><!--link ReferenceVariable to ControlledVocabularyEntry--><g class="link" data-entity-1="ent0003" data-entity-2="ent0002" data-link-type="dependency" data-source-line="21" id="lnk5"><path codeLine="21" d="M346.58,59.5894 C277.24,61.4694 161.11,69.3394 134.35,100.6094 C129.15,106.6894 128.98,112.6794 134.35,118.6094 C192.42,182.6194 756.9424,205.5885 1006.4924,212.6985" fill="none" id="ReferenceVariable-to-ControlledVocabularyEntry-1" style="stroke:#404040;stroke-width:1.2;stroke-dasharray:7,7;"/><polygon fill="#404040" points="1012.49,212.8694,1003.6076,208.6147,1007.492,212.727,1003.3797,216.6114,1012.49,212.8694" style="stroke:#404040;stroke-width:1.2;"/><text fill="#000000" font-family="sans-serif" font-size="13" lengthAdjust="spacing" textLength="103.3271" x="135.35" y="115.1045">physicalDataType</text></g><!--link ReferenceVariable to ControlledVocabularyEntry--><g class="link" data-entity-1="ent0003" data-entity-2="ent0002" data-link-type="dependency" data-source-line="22" id="lnk6"><path codeLine="22" d="M346.85,67.0294 C304.41,75.5794 255.36,91.7194 279.35,118.6094 C327.35,172.3994 785.9166,200.148 1006.7966,210.518" fill="none" id="ReferenceVariable-to-ControlledVocabularyEntry-2" style="stroke:#404040;stroke-width:1.2;stroke-dasharray:7,7;"/><polygon fill="#404040" points="1012.79,210.7994,1003.9875,206.3817,1007.7955,210.5649,1003.6123,214.3729,1012.79,210.7994" style="stroke:#404040;stroke-width:1.2;"/><text fill="#000000" font-family="sans-serif" font-size="13" lengthAdjust="spacing" textLength="75.8608" x="280.35" y="115.1045">platformType</text></g><!--link ReferenceVariable to ControlledVocabularyEntry--><g class="link" data-entity-1="ent0003" data-entity-2="ent0002" data-link-type="dependency" data-source-line="23" id="lnk7"><path codeLine="23" d="M394.47,70.7394 C389.77,83.9994 384.9,105.5394 396.35,118.6094 C436.3,164.1994 810.7435,194.9672 1006.7835,208.1372" fill="none" id="ReferenceVariable-to-ControlledVocabularyEntry-3" style="stroke:#404040;stroke-width:1.2;stroke-dasharray:7,7;"/><polygon fill="#404040" points="1012.77,208.5394,1004.0584,203.9451,1007.7812,208.2042,1003.5221,211.9271,1012.77,208.5394" style="stroke:#404040;stroke-width:1.2;"/><text fill="#000000" font-family="sans-serif" font-size="13" lengthAdjust="spacing" textLength="21.6772" x="397.35" y="115.1045">role</text></g><!--link ReferenceVariable to ControlledVocabularyEntry--><g class="link" data-entity-1="ent0003" data-entity-2="ent0002" data-link-type="dependency" data-source-line="24" id="lnk8"><path codeLine="24" d="M407.56,70.9694 C417.9,84.8894 437.03,107.4794 459.35,118.6094 C554.14,165.8794 841.8583,194.2417 1006.8583,207.1417" fill="none" id="ReferenceVariable-to-ControlledVocabularyEntry-4" style="stroke:#404040;stroke-width:1.2;stroke-dasharray:7,7;"/><polygon fill="#404040" points="1012.84,207.6094,1004.1792,202.92,1007.8552,207.2197,1003.5556,210.8957,1012.84,207.6094" style="stroke:#404040;stroke-width:1.2;"/><text fill="#000000" font-family="sans-serif" font-size="13" lengthAdjust="spacing" textLength="143.7871" x="460.35" y="115.1045">describedUnitOfMeasure</text></g><!--link ReferenceVariable to ControlledVocabularyEntry--><g class="link" data-entity-1="ent0003" data-entity-2="ent0002" data-link-type="dependency" data-source-line="25" id="lnk9"><path codeLine="25" d="M451.9,65.5694 C494.79,71.7794 556.55,82.8794 608.35,100.6094 C625.28,106.3994 627.43,112.7994 644.35,118.6094 C766.74,160.6294 907.202,185.9689 1006.712,200.3889" fill="none" id="ReferenceVariable-to-ControlledVocabularyEntry-5" style="stroke:#404040;stroke-width:1.2;stroke-dasharray:7,7;"/><polygon fill="#404040" points="1012.65,201.2494,1004.3167,196,1007.7017,200.5323,1003.1694,203.9173,1012.65,201.2494" style="stroke:#404040;stroke-width:1.2;"/><text fill="#000000" font-family="sans-serif" font-size="13" lengthAdjust="spacing" textLength="127.9243" x="645.35" y="115.1045">hasIntendedDataType</text></g><!--link ReferenceVariable to ControlledVocabularyEntry--><g class="link" data-entity-1="ent0003" data-entity-2="ent0002" data-link-type="dependency" data-source-line="26" id="lnk10"><path codeLine="26" d="M451.87,61.4394 C525.39,65.4694 662.82,75.8394 777.35,100.6094 C789.48,103.2294 909.5056,142.8188 1007.0656,175.2088" fill="none" id="ReferenceVariable-to-ControlledVocabularyEntry-6" style="stroke:#404040;stroke-width:1.2;stroke-dasharray:7,7;"/><polygon fill="#404040" points="1012.76,177.0994,1005.4788,170.4673,1008.0147,175.5239,1002.9581,178.0598,1012.76,177.0994" style="stroke:#404040;stroke-width:1.2;"/><text fill="#000000" font-family="sans-serif" font-size="13" lengthAdjust="spacing" textLength="111.2808" x="830.35" y="115.1045">unitOfMeasureKind</text></g><!--link DescriptorVariable to ControlledVocabularyEntry--><g class="link" data-entity-1="ent0011" data-entity-2="ent0002" data-link-type="dependency" data-source-line="28" id="lnk12"><path codeLine="28" d="M1265.57,61.5294 C1172.21,66.3594 985.87,78.6494 966.35,100.6094 C939.65,130.6394 965.3949,154.5654 1007.2649,174.5454" fill="none" id="DescriptorVariable-to-ControlledVocabularyEntry" style="stroke:#404040;stroke-width:1.2;stroke-dasharray:7,7;"/><polygon fill="#404040" points="1012.68,177.1294,1006.2801,169.6433,1008.1675,174.976,1002.8347,176.8634,1012.68,177.1294" style="stroke:#404040;stroke-width:1.2;"/><text fill="#000000" font-family="sans-serif" font-size="13" lengthAdjust="spacing" textLength="45.5317" x="967.35" y="115.1045">function</text></g><!--link DescriptorVariable to ControlledVocabularyEntry--><g class="link" data-entity-1="ent0011" data-entity-2="ent0002" data-link-type="dependency" data-source-line="29" id="lnk13"><path codeLine="29" d="M1265.58,59.5894 C1196.24,61.4694 1080.11,69.3394 1053.35,100.6094 C1040.8,115.2794 1040.5945,127.0456 1050.4245,143.2956" fill="none" id="DescriptorVariable-to-ControlledVocabularyEntry-1" style="stroke:#404040;stroke-width:1.2;stroke-dasharray:7,7;"/><polygon fill="#404040" points="1053.53,148.4294,1052.2942,138.6584,1050.9421,144.1512,1045.4492,142.7991,1053.53,148.4294" style="stroke:#404040;stroke-width:1.2;"/><text fill="#000000" font-family="sans-serif" font-size="13" lengthAdjust="spacing" textLength="103.3271" x="1054.35" y="115.1045">physicalDataType</text></g><!--link DescriptorVariable to ControlledVocabularyEntry--><g class="link" data-entity-1="ent0011" data-entity-2="ent0002" data-link-type="dependency" data-source-line="30" id="lnk14"><path codeLine="30" d="M1265.71,68.9394 C1243.17,75.1494 1217.66,85.0494 1198.35,100.6094 C1182.43,113.4494 1172.2987,125.7955 1161.8087,143.2655" fill="none" id="DescriptorVariable-to-ControlledVocabularyEntry-2" style="stroke:#404040;stroke-width:1.2;stroke-dasharray:7,7;"/><polygon fill="#404040" points="1158.72,148.4094,1166.7823,142.7526,1161.2939,144.1228,1159.9238,138.6344,1158.72,148.4094" style="stroke:#404040;stroke-width:1.2;"/><text fill="#000000" font-family="sans-serif" font-size="13" lengthAdjust="spacing" textLength="75.8608" x="1199.35" y="115.1045">platformType</text></g><!--link DescriptorVariable to ControlledVocabularyEntry--><g class="link" data-entity-1="ent0011" data-entity-2="ent0002" data-link-type="dependency" data-source-line="31" id="lnk15"><path codeLine="31" d="M1312.68,70.6494 C1305.99,83.4494 1293.92,104.1794 1279.35,118.6094 C1268.62,129.2494 1261.3364,135.738 1248.7964,145.108" fill="none" id="DescriptorVariable-to-ControlledVocabularyEntry-3" style="stroke:#404040;stroke-width:1.2;stroke-dasharray:7,7;"/><polygon fill="#404040" points="1243.99,148.6994,1253.5939,146.5165,1247.9954,145.7065,1248.8054,140.108,1243.99,148.6994" style="stroke:#404040;stroke-width:1.2;"/><text fill="#000000" font-family="sans-serif" font-size="13" lengthAdjust="spacing" textLength="21.6772" x="1296.35" y="115.1045">role</text></g><!--link DescriptorVariable to ControlledVocabularyEntry--><g class="link" data-entity-1="ent0011" data-entity-2="ent0002" data-link-type="dependency" data-source-line="32" id="lnk16"><path codeLine="32" d="M1324.21,71.0194 C1329.57,83.7694 1335.4,104.1094 1326.35,118.6094 C1307.51,148.8194 1281.6964,167.4059 1249.4964,181.9759" fill="none" id="DescriptorVariable-to-ControlledVocabularyEntry-4" style="stroke:#404040;stroke-width:1.2;stroke-dasharray:7,7;"/><polygon fill="#404040" points="1244.03,184.4494,1253.8786,184.3834,1248.5854,182.3881,1250.5807,177.0949,1244.03,184.4494" style="stroke:#404040;stroke-width:1.2;"/><text fill="#000000" font-family="sans-serif" font-size="13" lengthAdjust="spacing" textLength="143.7871" x="1332.35" y="115.1045">describedUnitOfMeasure</text></g><!--link DescriptorVariable to ControlledVocabularyEntry--><g class="link" data-entity-1="ent0011" data-entity-2="ent0002" data-link-type="dependency" data-source-line="33" id="lnk17"><path codeLine="33" d="M1371.09,60.6394 C1430.89,64.3594 1516.23,76.8894 1484.35,118.6094 C1454.99,157.0394 1342.3266,182.8824 1249.9866,198.4424" fill="none" id="DescriptorVariable-to-ControlledVocabularyEntry-5" style="stroke:#404040;stroke-width:1.2;stroke-dasharray:7,7;"/><polygon fill="#404040" points="1244.07,199.4394,1253.6095,201.8883,1249.0005,198.6085,1252.2802,193.9995,1244.07,199.4394" style="stroke:#404040;stroke-width:1.2;"/><text fill="#000000" font-family="sans-serif" font-size="13" lengthAdjust="spacing" textLength="127.9243" x="1492.35" y="115.1045">hasIntendedDataType</text></g><!--link DescriptorVariable to ControlledVocabularyEntry--><g class="link" data-entity-1="ent0011" data-entity-2="ent0002" data-link-type="dependency" data-source-line="34" id="lnk18"><path codeLine="34" d="M1370.97,58.1894 C1450.49,58.0494 1595.54,63.1194 1628.35,100.6094 C1633.62,106.6294 1633.44,112.4394 1628.35,118.6094 C1580.6,176.5094 1382.3248,199.8421 1250.1048,209.2821" fill="none" id="DescriptorVariable-to-ControlledVocabularyEntry-6" style="stroke:#404040;stroke-width:1.2;stroke-dasharray:7,7;"/><polygon fill="#404040" points="1244.12,209.7094,1253.382,213.0583,1249.1073,209.3533,1252.8123,205.0786,1244.12,209.7094" style="stroke:#404040;stroke-width:1.2;"/><text fill="#000000" font-family="sans-serif" font-size="13" lengthAdjust="spacing" textLength="111.2808" x="1633.35" y="115.1045">unitOfMeasureKind</text></g><!--link SubstantiveValueDomain to ControlledVocabularyEntry--><g class="link" data-entity-1="ent0019" data-entity-2="ent0002" data-link-type="dependency" data-source-line="36" id="lnk20"><path codeLine="36" d="M1866.57,70.8394 C1840.42,84.4194 1794.9,106.4594 1753.35,118.6094 C1579.85,169.3594 1377.0143,194.3941 1250.0543,206.1941" fill="none" id="SubstantiveValueDomain-to-ControlledVocabularyEntry" style="stroke:#404040;stroke-width:1.2;stroke-dasharray:7,7;"/><polygon fill="#404040" points="1244.08,206.7494,1253.4116,209.8993,1249.0585,206.2867,1252.6712,201.9336,1244.08,206.7494" style="stroke:#404040;stroke-width:1.2;"/><text fill="#000000" font-family="sans-serif" font-size="13" lengthAdjust="spacing" textLength="139.458" x="1803.35" y="115.1045">recommendedDataType</text></g><!--link SentinelValueDomain to ControlledVocabularyEntry--><g class="link" data-entity-1="ent0021" data-entity-2="ent0002" data-link-type="dependency" data-source-line="38" id="lnk22"><path codeLine="38" d="M2099.22,70.6594 C2064.9,84.2694 2004.84,106.5494 1951.35,118.6094 C1702.93,174.5994 1410.5882,199.154 1250.1182,209.214" fill="none" id="SentinelValueDomain-to-ControlledVocabularyEntry" style="stroke:#404040;stroke-width:1.2;stroke-dasharray:7,7;"/><polygon fill="#404040" points="1244.13,209.5894,1253.3626,213.0184,1249.1202,209.2765,1252.8621,205.0341,1244.13,209.5894" style="stroke:#404040;stroke-width:1.2;"/><text fill="#000000" font-family="sans-serif" font-size="13" lengthAdjust="spacing" textLength="75.8608" x="2015.35" y="115.1045">platformType</text></g><!--link SentinelValueDomain to ControlledVocabularyEntry--><g class="link" data-entity-1="ent0021" data-entity-2="ent0002" data-link-type="dependency" data-source-line="39" id="lnk23"><path codeLine="39" d="M2125.36,70.9494 C2122.35,84.8494 2115.2,107.4094 2099.35,118.6094 C2030.83,167.0394 1492.7729,198.318 1250.2829,210.108" fill="none" id="SentinelValueDomain-to-ControlledVocabularyEntry-1" style="stroke:#404040;stroke-width:1.2;stroke-dasharray:7,7;"/><polygon fill="#404040" points="1244.29,210.3994,1253.4736,213.9576,1249.2841,210.1566,1253.0851,205.967,1244.29,210.3994" style="stroke:#404040;stroke-width:1.2;"/><text fill="#000000" font-family="sans-serif" font-size="13" lengthAdjust="spacing" textLength="139.458" x="2114.35" y="115.1045">recommendedDataType</text></g><!--link DescriptorValueDomain to ControlledVocabularyEntry--><g class="link" data-entity-1="ent0024" data-entity-2="ent0002" data-link-type="dependency" data-source-line="41" id="lnk25"><path codeLine="41" d="M2351.98,70.6794 C2332.34,84.7494 2296.78,107.9394 2262.35,118.6094 C2074.55,176.7894 1499.4862,202.9166 1250.0362,211.7666" fill="none" id="DescriptorValueDomain-to-ControlledVocabularyEntry" style="stroke:#404040;stroke-width:1.2;stroke-dasharray:7,7;"/><polygon fill="#404040" points="1244.04,211.9794,1253.1762,215.6578,1249.0369,211.8021,1252.8925,207.6628,1244.04,211.9794" style="stroke:#404040;stroke-width:1.2;"/><text fill="#000000" font-family="sans-serif" font-size="13" lengthAdjust="spacing" textLength="139.458" x="2302.35" y="115.1045">recommendedDataType</text></g><?plantuml-src fLHDJ-Cm4BtdLrZqnaeHPTaBGfM0jj8A8QG5Ua4S9lPaO-6FQEo0ieZ_JfBID2K9i2QvME_DJDxClDXBhv2TM-F9AeLYPJaaXG8g5nLKHfaKoBWahd1zHftxacdK2PABt8CqEH1evZ8GzacQlom5vR33d1BPfvjCyWU3ph5fVDWXkO8AUuxOEkpSAajiSdHGlnLuPaaWlKUNbTnh-G_Pz31wYQ9rZRtH9lOOkF4MsSc900ytPOwp6PiiJnU_vZyRHJ-mvlzWYeI68pjcs_FTD8xtxzkW5QYY3d2UwX5iMGDw1s_0npfwQUdAPqXzjjNtxeltLRDllRRm2aX2eh3fiOUooQ9veZuJnxCFPdBCqi9mBwq9ICspqaaEQlusrf0I2dngIGUcLtX8ca37IIOeRetqL-abWYief506xhVnQ0IARmoXwAgua4PijZzlTERUqixw-t2x_m7gomO8oEqv8AH6rm81-Oq70l96J11GQSW50ML6RN1T9Cw3yV8Hc_jdRZL8qrXXc6hjC49_EbBaLklTXZPQgcjG6bGz8NrygsA0-ozNX1Jue8VkRdQx66G6Vwxl2Na5?></g></svg>