<svg xmlns="http://www.w3.org/2000/svg" xmlns:xlink="http://www.w3.org/1999/xlink" contentStyleType="text/css" data-diagram-type="CLASS" height="229px" preserveAspectRatio="none" style="width:819px;height:229px;background:#FFFFFF;" version="1.1" viewBox="0 0 819 229" width="819px" zoomAndPan="magnify"><?plantuml 1.2026.3?><defs/><g><g class="title" data-source-line="1"><text fill="#000000" font-family="sans-serif" font-size="14" font-weight="700" lengthAdjust="spacing" textLength="124.4482" x="343.9702" y="24.5332">InternationalString</text></g><!--class InternationalString--><g class="entity" data-qualified-name="InternationalString" data-source-line="12" id="ent0002"><rect fill="#FAE5D3" height="65.7969" rx="2.5" ry="2.5" style="stroke:#404040;stroke-width:0.5;" width="312.4189" x="227.5" y="148.6094"/><text fill="#000000" font-family="sans-serif" font-size="12" font-style="italic" lengthAdjust="spacing" textLength="63.3809" x="352.019" y="166.0664">&#171;dataType&#187;</text><text fill="#000000" font-family="sans-serif" font-size="12" lengthAdjust="spacing" textLength="97.3945" x="335.0122" y="181.1602">InternationalString</text><line style="stroke:#404040;stroke-width:0.5;" x1="228.5" x2="538.9189" y1="188.7969" y2="188.7969"/><g data-visibility-modifier="PUBLIC_FIELD"><ellipse cx="238.5" cy="203.1016" fill="none" rx="3" ry="3" style="stroke:#038048;stroke-width:1;"/></g><text fill="#000000" font-family="sans-serif" font-size="14" lengthAdjust="spacing" textLength="286.4189" x="247.5" y="207.3301">languageSpecificString : LanguageString [1..*]</text></g><!--class RepresentedVariable--><g class="entity" data-qualified-name="RepresentedVariable" data-source-line="15" id="ent0003"><rect fill="#EEEEEE" height="25.0938" rx="2.5" ry="2.5" style="stroke:#404040;stroke-width:0.5;" width="118.7402" x="7" y="45.6094"/><text fill="#000000" font-family="sans-serif" font-size="12" lengthAdjust="spacing" textLength="112.7402" x="10" y="63.0664">RepresentedVariable</text></g><!--class ReferenceVariable--><g class="entity" data-qualified-name="ReferenceVariable" data-source-line="17" id="ent0005"><rect fill="#EEEEEE" height="25.0938" rx="2.5" ry="2.5" style="stroke:#404040;stroke-width:0.5;" width="105.3926" x="176" y="45.6094"/><text fill="#000000" font-family="sans-serif" font-size="12" lengthAdjust="spacing" textLength="99.3926" x="179" y="63.0664">ReferenceVariable</text></g><!--class DescriptorVariable--><g class="entity" data-qualified-name="DescriptorVariable" data-source-line="20" id="ent0008"><rect fill="#EEEEEE" height="25.0938" rx="2.5" ry="2.5" style="stroke:#404040;stroke-width:0.5;" width="104.707" x="375" y="45.6094"/><text fill="#000000" font-family="sans-serif" font-size="12" lengthAdjust="spacing" textLength="98.707" x="378" y="63.0664">DescriptorVariable</text></g><!--class InstanceVariable--><g class="entity" data-qualified-name="InstanceVariable" data-source-line="23" id="ent0011"><rect fill="#EEEEEE" height="25.0938" rx="2.5" ry="2.5" style="stroke:#404040;stroke-width:0.5;" width="95.3906" x="559" y="45.6094"/><text fill="#000000" font-family="sans-serif" font-size="12" lengthAdjust="spacing" textLength="89.3906" x="562" y="63.0664">InstanceVariable</text></g><!--class EnumerationDomain--><g class="entity" data-qualified-name="EnumerationDomain" data-source-line="25" id="ent0013"><rect fill="#EEEEEE" height="25.0938" rx="2.5" ry="2.5" style="stroke:#404040;stroke-width:0.5;" width="115.3887" x="689" y="45.6094"/><text fill="#000000" font-family="sans-serif" font-size="12" lengthAdjust="spacing" textLength="109.3887" x="692" y="63.0664">EnumerationDomain</text></g><!--link RepresentedVariable to InternationalString--><g class="link" data-entity-1="ent0003" data-entity-2="ent0002" data-link-type="dependency" data-source-line="16" id="lnk4"><path codeLine="16" d="M68.1,70.6294 C70.61,84.2094 76.82,106.4694 91.5,118.6094 C113.31,136.6494 163.7797,149.5556 221.2397,159.6056" fill="none" id="RepresentedVariable-to-InternationalString" style="stroke:#404040;stroke-width:1.2;stroke-dasharray:7,7;"/><polygon fill="#404040" points="227.15,160.6394,218.9737,155.1486,222.2248,159.7779,217.5954,163.029,227.15,160.6394" style="stroke:#404040;stroke-width:1.2;"/><text fill="#000000" font-family="sans-serif" font-size="13" lengthAdjust="spacing" textLength="52.0381" x="92.5" y="115.1045">definition</text></g><!--link ReferenceVariable to InternationalString--><g class="link" data-entity-1="ent0005" data-entity-2="ent0002" data-link-type="dependency" data-source-line="18" id="lnk6"><path codeLine="18" d="M196.02,70.7494 C170.85,81.6094 142.58,99.0394 157.5,118.6094 C167.74,132.0394 189.3231,141.6485 221.6131,150.7085" fill="none" id="ReferenceVariable-to-InternationalString" style="stroke:#404040;stroke-width:1.2;stroke-dasharray:7,7;"/><polygon fill="#404040" points="227.39,152.3294,219.8052,146.0468,222.5759,150.9786,217.644,153.7493,227.39,152.3294" style="stroke:#404040;stroke-width:1.2;"/><text fill="#000000" font-family="sans-serif" font-size="13" lengthAdjust="spacing" textLength="87.4199" x="158.5" y="115.1045">descriptiveText</text></g><!--link ReferenceVariable to InternationalString--><g class="link" data-entity-1="ent0005" data-entity-2="ent0002" data-link-type="dependency" data-source-line="19" id="lnk7"><path codeLine="19" d="M243.36,70.7594 C265.94,88.4594 304.9882,119.0674 337.6282,144.6574" fill="none" id="ReferenceVariable-to-InternationalString-1" style="stroke:#404040;stroke-width:1.2;stroke-dasharray:7,7;"/><polygon fill="#404040" points="342.35,148.3594,337.7352,139.6586,338.4151,145.2744,332.7993,145.9543,342.35,148.3594" style="stroke:#404040;stroke-width:1.2;"/><text fill="#000000" font-family="sans-serif" font-size="13" lengthAdjust="spacing" textLength="52.0381" x="301.5" y="115.1045">definition</text></g><!--link DescriptorVariable to InternationalString--><g class="link" data-entity-1="ent0008" data-entity-2="ent0002" data-link-type="dependency" data-source-line="21" id="lnk9"><path codeLine="21" d="M407.81,70.6694 C397.61,77.8594 386.14,88.1094 380.5,100.6094 C373.81,115.4294 373.0775,127.4719 375.0975,142.6319" fill="none" id="DescriptorVariable-to-InternationalString" style="stroke:#404040;stroke-width:1.2;stroke-dasharray:7,7;"/><polygon fill="#404040" points="375.89,148.5794,378.6663,139.1299,375.2296,143.6232,370.7363,140.1865,375.89,148.5794" style="stroke:#404040;stroke-width:1.2;"/><text fill="#000000" font-family="sans-serif" font-size="13" lengthAdjust="spacing" textLength="87.4199" x="381.5" y="115.1045">descriptiveText</text></g><!--link DescriptorVariable to InternationalString--><g class="link" data-entity-1="ent0008" data-entity-2="ent0002" data-link-type="dependency" data-source-line="22" id="lnk10"><path codeLine="22" d="M447.1,70.7794 C463.57,82.1994 483.03,100.4594 473.5,118.6094 C467.32,130.3694 462.5172,136.6343 451.9372,144.9043" fill="none" id="DescriptorVariable-to-InternationalString-1" style="stroke:#404040;stroke-width:1.2;stroke-dasharray:7,7;"/><polygon fill="#404040" points="447.21,148.5994,456.7642,146.2082,451.1493,145.5201,451.8374,139.9053,447.21,148.5994" style="stroke:#404040;stroke-width:1.2;"/><text fill="#000000" font-family="sans-serif" font-size="13" lengthAdjust="spacing" textLength="52.0381" x="476.5" y="115.1045">definition</text></g><!--link InstanceVariable to InternationalString--><g class="link" data-entity-1="ent0011" data-entity-2="ent0002" data-link-type="dependency" data-source-line="24" id="lnk12"><path codeLine="24" d="M595.23,70.9394 C582.28,83.9894 559.92,104.9494 537.5,118.6094 C518.92,129.9294 503.4365,137.6571 483.0365,146.1771" fill="none" id="InstanceVariable-to-InternationalString" style="stroke:#404040;stroke-width:1.2;stroke-dasharray:7,7;"/><polygon fill="#404040" points="477.5,148.4894,487.3463,148.7119,482.1138,146.5624,484.2633,141.3299,477.5,148.4894" style="stroke:#404040;stroke-width:1.2;"/><text fill="#000000" font-family="sans-serif" font-size="13" lengthAdjust="spacing" textLength="52.0381" x="562.5" y="115.1045">definition</text></g><!--link EnumerationDomain to InternationalString--><g class="link" data-entity-1="ent0013" data-entity-2="ent0002" data-link-type="dependency" data-source-line="26" id="lnk14"><path codeLine="26" d="M725.72,70.7394 C701.7,83.7994 660.69,104.9594 623.5,118.6094 C592.69,129.9094 564.7482,138.4362 532.5482,147.0062" fill="none" id="EnumerationDomain-to-InternationalString" style="stroke:#404040;stroke-width:1.2;stroke-dasharray:7,7;"/><polygon fill="#404040" points="526.75,148.5494,536.476,150.1001,531.5818,147.2634,534.4185,142.3692,526.75,148.5494" style="stroke:#404040;stroke-width:1.2;"/><text fill="#000000" font-family="sans-serif" font-size="13" lengthAdjust="spacing" textLength="46.979" x="665.5" y="115.1045">purpose</text></g><?plantuml-src bPD1Jy8m5CVl_HIDt3HP1FL220aA92IUX7Wn7XxT6xpGjSrh4T7utHqR8dRJo7PPVl--_lvhqa11evoOW6mWa3MWfu79BCIIKfIAM6cilZ5tOIjppEV8NlWL6GSCkVHBIEsc694PQ8z7oO3PRcPBKYk3tijsqZaAbOQ2lGjPBRkpsh9iNL_ktWBUMawHOpgs9apf3MMx8pw4gFOuQwX_9i4t_PRizL88CDiwxFTbQpmOtGoloXON6inY3GkSEbIKaTeFTENzLr21ftQId3yN-htz0HsZnyALFW8Jp3MMzWOkMwFo4KrPalGR6tTbYXaPsi5lPuQCHc5aZEYHBqx-idd5v0Azu0nVmucpSTFXVZVBFwhMyQ5hG_J_iYSEnsqdnWU8ZpM6XwQru1JLoAnpv7BTqEP0fdJLw45MJtwtkJKxMrp5Jm00?></g></svg>