<svg xmlns="http://www.w3.org/2000/svg" xmlns:xlink="http://www.w3.org/1999/xlink" contentStyleType="text/css" data-diagram-type="CLASS" height="384px" preserveAspectRatio="none" style="width:366px;height:384px;background:#FFFFFF;" version="1.1" viewBox="0 0 366 384" width="366px" zoomAndPan="magnify"><?plantuml 1.2026.3?><defs/><g><g class="title" data-source-line="1"><text fill="#000000" font-family="sans-serif" font-size="14" font-weight="700" lengthAdjust="spacing" textLength="170.0303" x="94.7573" y="24.5332">CDIFCodelist &#8212; overview</text></g><!--class ConceptScheme--><g class="entity" data-qualified-name="ConceptScheme" data-source-line="15" id="ent0002"><rect fill="#E8DAEF" height="25.0938" rx="2.5" ry="2.5" style="stroke:#404040;stroke-width:0.5;" width="94.7168" x="118" y="45.6094"/><text fill="#000000" font-family="sans-serif" font-size="12" lengthAdjust="spacing" textLength="88.7168" x="121" y="63.0664">ConceptScheme</text></g><!--class Concept--><g class="entity" data-qualified-name="Concept" data-source-line="16" id="ent0003"><rect fill="#E8DAEF" height="25.0938" rx="2.5" ry="2.5" style="stroke:#404040;stroke-width:0.5;" width="50.6953" x="86" y="320.6094"/><text fill="#000000" font-family="sans-serif" font-size="12" lengthAdjust="spacing" textLength="44.6953" x="89" y="338.0664">Concept</text></g><!--class Identifier--><g class="entity" data-qualified-name="Identifier" data-source-line="17" id="ent0004"><rect fill="#D6EAF8" height="25.0938" rx="2.5" ry="2.5" style="stroke:#404040;stroke-width:0.5;" width="52.0254" x="193.5" y="320.6094"/><text fill="#000000" font-family="sans-serif" font-size="12" lengthAdjust="spacing" textLength="46.0254" x="196.5" y="338.0664">Identifier</text></g><!--class CatalogRecord--><g class="entity" data-qualified-name="CatalogRecord" data-source-line="18" id="ent0005"><rect fill="#FEFECE" height="25.0938" rx="2.5" ry="2.5" style="stroke:#404040;stroke-width:0.5;" width="86.0449" x="265.5" y="320.6094"/><text fill="#000000" font-family="sans-serif" font-size="12" lengthAdjust="spacing" textLength="80.0449" x="268.5" y="338.0664">CatalogRecord</text></g><!--class Reference--><g class="entity" data-qualified-name="Reference" data-source-line="19" id="ent0006"><rect fill="#D6EAF8" height="25.0938" rx="2.5" ry="2.5" style="stroke:#404040;stroke-width:0.5;" width="61.3652" x="233" y="45.6094"/><text fill="#000000" font-family="sans-serif" font-size="12" lengthAdjust="spacing" textLength="55.3652" x="236" y="63.0664">Reference</text></g><!--reverse link ConceptScheme to CatalogRecord--><g class="link" data-entity-1="ent0002" data-entity-2="ent0005" data-link-type="composition" data-source-line="20" id="lnk7"><path codeLine="20" d="M206.5,82.9194 C206.5,104.4594 206.5,133.6094 206.5,133.6094 C206.5,133.6094 279.75,133.6094 279.75,133.6094 C279.75,133.6094 279.75,276.2994 279.75,320.3294" fill="none" id="ConceptScheme-backto-CatalogRecord" style="stroke:#404040;stroke-width:1.2;"/><polygon fill="#404040" points="206.5,70.9194,202.5,76.9194,206.5,82.9194,210.5,76.9194,206.5,70.9194" style="stroke:#404040;stroke-width:1.2;"/><text fill="#000000" font-family="sans-serif" font-size="13" lengthAdjust="spacing" textLength="54.9136" x="224.75" y="155.4945">subjectOf</text><text fill="#000000" font-family="sans-serif" font-size="13" lengthAdjust="spacing" textLength="7.23" x="260.088" y="309.6931">1</text></g><!--reverse link ConceptScheme to Identifier--><g class="link" data-entity-1="ent0002" data-entity-2="ent0004" data-link-type="composition" data-source-line="21" id="lnk8"><path codeLine="21" d="M200,82.6394 C200,128.4494 200,274.5694 200,320.5094" fill="none" id="ConceptScheme-backto-Identifier" style="stroke:#404040;stroke-width:1.2;"/><polygon fill="#404040" points="200,70.6394,196,76.6394,200,82.6394,204,76.6394,200,70.6394" style="stroke:#404040;stroke-width:1.2;"/><text fill="#000000" font-family="sans-serif" font-size="13" lengthAdjust="spacing" textLength="49.1372" x="150" y="192.0645">identifier</text><text fill="#000000" font-family="sans-serif" font-size="13" lengthAdjust="spacing" textLength="21.6836" x="166.7608" y="309.5602">0..1</text></g><!--reverse link ConceptScheme to Concept--><g class="link" data-entity-1="ent0002" data-entity-2="ent0003" data-link-type="composition" data-source-line="22" id="lnk9"><path codeLine="22" d="M130.67,82.6394 C130.67,128.4494 130.67,274.5694 130.67,320.5094" fill="none" id="ConceptScheme-backto-Concept" style="stroke:#404040;stroke-width:1.2;"/><polygon fill="#404040" points="130.67,70.6394,126.67,76.6394,130.67,82.6394,134.67,76.6394,130.67,70.6394" style="stroke:#404040;stroke-width:1.2;"/><text fill="#000000" font-family="sans-serif" font-size="13" lengthAdjust="spacing" textLength="91.7808" x="38.67" y="192.0645">hasTopConcept</text><text fill="#000000" font-family="sans-serif" font-size="13" lengthAdjust="spacing" textLength="19.5127" x="115.8275" y="309.5602">1..*</text></g><!--link Concept to ConceptScheme--><g class="link" data-entity-1="ent0003" data-entity-2="ent0002" data-link-type="dependency" data-source-line="23" id="lnk10"><path codeLine="23" d="M124.33,320.5794 C124.33,274.7694 124.33,122.6494 124.33,76.7094" fill="none" id="Concept-to-ConceptScheme" style="stroke:#404040;stroke-width:1.2;"/><polygon fill="#404040" points="124.33,70.7094,120.33,79.7094,124.33,75.7094,128.33,79.7094,124.33,70.7094" style="stroke:#404040;stroke-width:1.2;"/><text fill="#000000" font-family="sans-serif" font-size="13" lengthAdjust="spacing" textLength="57.8081" x="66.33" y="210.1445">inScheme</text><text fill="#000000" font-family="sans-serif" font-size="13" lengthAdjust="spacing" textLength="19.5127" x="90.5626" y="90.2936">1..*</text></g><!--link Concept to Concept--><g class="link" data-entity-1="ent0003" data-entity-2="ent0003" data-link-type="dependency" data-source-line="24" id="lnk11"><path codeLine="24" d="M107.33,320.4194 C107.33,286.3794 107.33,195.6094 107.33,195.6094 C107.33,195.6094 62,195.6094 62,195.6094 C62,195.6094 62,369.6094 62,369.6094 C62,369.6094 120,369.6094 120,369.6094 C120,369.6094 120,362.3994 120,351.8794" fill="none" id="Concept-to-Concept" style="stroke:#404040;stroke-width:1.2;"/><polygon fill="#404040" points="120,345.8794,116,354.8794,120,350.8794,124,354.8794,120,345.8794" style="stroke:#404040;stroke-width:1.2;"/><text fill="#000000" font-family="sans-serif" font-size="13" lengthAdjust="spacing" textLength="44.8081" x="12" y="229.8945">broader</text><text fill="#000000" font-family="sans-serif" font-size="13" lengthAdjust="spacing" textLength="19.5127" x="100.782" y="367.081">0..*</text></g><!--link Concept to Concept--><g class="link" data-entity-1="ent0003" data-entity-2="ent0003" data-link-type="dependency" data-source-line="25" id="lnk12"><path codeLine="25" d="M96.67,320.4694 C96.67,299.2194 96.67,258.6094 96.67,258.6094 C96.67,258.6094 74,258.6094 74,258.6094 C74,258.6094 74,356.6094 74,356.6094 C74,356.6094 103,356.6094 103,356.6094 C103,356.6094 103,357.2694 103,351.6894" fill="none" id="Concept-to-Concept-1" style="stroke:#404040;stroke-width:1.2;"/><polygon fill="#404040" points="103,345.6894,99,354.6894,103,350.6894,107,354.6894,103,345.6894" style="stroke:#404040;stroke-width:1.2;"/><text fill="#000000" font-family="sans-serif" font-size="13" lengthAdjust="spacing" textLength="51.2954" x="17" y="276.8045">narrower</text><text fill="#000000" font-family="sans-serif" font-size="13" lengthAdjust="spacing" textLength="19.5127" x="77.2933" y="367.0798">0..*</text></g><?plantuml-src RPBHQi8m58Rl-nI7zawmLDc6U35mjGMl1keBnFJKPgP9ESaKDmPxY3tXdcJHkXgBvEQS_tpvpq-85LOYfFD5dke2fJ0MVhz_GE-HzW8FGIKA12w8Isnhh1jxX1hh3P89p4weXX6hmLIiq0UXjb0oQT2Rp8ZqOLq9lbDe38pYiJSafdO66nW_9fwgN9QpwejIABJ71a6JhRGtu98vtyy0sbMfbfeWUaXEnualcWgalffhPLVY0s4q3hw2eFK8KwquDdR5Awmn16RWHe4ecyndMTx3VR2FB0fKLfG2wKnTMuZcJzaidtHUp3AfjqlaBc_hw2iGvLcUfTa_liGI2TtACzfrdUjjxi5m2E4ex5bEmRnltf3Rr_8UdyInk-8bdeBechiBudWGTWynXOgPjMuk_Vy560wVU-Z5mzchjhnbavxjXZGhhWdkGugT_eAZ_W00?></g></svg>