<svg xmlns="http://www.w3.org/2000/svg" xmlns:xlink="http://www.w3.org/1999/xlink" contentStyleType="text/css" data-diagram-type="CLASS" height="384px" preserveAspectRatio="none" style="width:287px;height:384px;background:#FFFFFF;" version="1.1" viewBox="0 0 287 384" width="287px" zoomAndPan="magnify"><?plantuml 1.2026.3?><defs/><g><g class="title" data-source-line="1"><text fill="#000000" font-family="sans-serif" font-size="14" font-weight="700" lengthAdjust="spacing" textLength="170.0303" x="55.0573" y="24.5332">CDIFCodelist &#8212; overview</text></g><!--class ConceptScheme--><g class="entity" data-qualified-name="ConceptScheme" data-source-line="15" id="ent0002"><rect fill="#E8DAEF" height="25.0938" rx="2.5" ry="2.5" style="stroke:#404040;stroke-width:0.5;" width="94.7168" x="56.6" y="45.6094"/><text fill="#000000" font-family="sans-serif" font-size="12" lengthAdjust="spacing" textLength="88.7168" x="59.6" y="63.0664">ConceptScheme</text></g><!--class Concept--><g class="entity" data-qualified-name="Concept" data-source-line="16" id="ent0003"><rect fill="#E8DAEF" height="25.0938" rx="2.5" ry="2.5" style="stroke:#404040;stroke-width:0.5;" width="50.6953" x="78.6" y="320.6094"/><text fill="#000000" font-family="sans-serif" font-size="12" lengthAdjust="spacing" textLength="44.6953" x="81.6" y="338.0664">Concept</text></g><!--class CatalogRecord--><g class="entity" data-qualified-name="CatalogRecord" data-source-line="17" id="ent0004"><rect fill="#FEFECE" height="25.0938" rx="2.5" ry="2.5" style="stroke:#404040;stroke-width:0.5;" width="86.0449" x="186.1" y="320.6094"/><text fill="#000000" font-family="sans-serif" font-size="12" lengthAdjust="spacing" textLength="80.0449" x="189.1" y="338.0664">CatalogRecord</text></g><!--reverse link ConceptScheme to CatalogRecord--><g class="link" data-entity-1="ent0002" data-entity-2="ent0004" data-link-type="composition" data-source-line="18" id="lnk5"><path codeLine="18" d="M146.1,82.6594 C146.1,136.5594 146.1,333.6094 146.1,333.6094 C146.1,333.6094 165.57,333.6094 185.66,333.6094" fill="none" id="ConceptScheme-backto-CatalogRecord" style="stroke:#404040;stroke-width:1.2;"/><polygon fill="#404040" points="146.1,70.6594,142.1,76.6594,146.1,82.6594,150.1,76.6594,146.1,70.6594" style="stroke:#404040;stroke-width:1.2;"/><text fill="#000000" font-family="sans-serif" font-size="13" lengthAdjust="spacing" textLength="54.9136" x="91.1" y="218.4045">subjectOf</text><text fill="#000000" font-family="sans-serif" font-size="13" lengthAdjust="spacing" textLength="7.23" x="170.9009" y="329.8837">1</text></g><!--reverse link ConceptScheme to Concept--><g class="link" data-entity-1="ent0002" data-entity-2="ent0003" data-link-type="composition" data-source-line="19" id="lnk6"><path codeLine="19" d="M99,82.6394 C99,128.4494 99,274.5694 99,320.5094" fill="none" id="ConceptScheme-backto-Concept" style="stroke:#404040;stroke-width:1.2;"/><polygon fill="#404040" points="99,70.6394,95,76.6394,99,82.6394,103,76.6394,99,70.6394" style="stroke:#404040;stroke-width:1.2;"/><text fill="#000000" font-family="sans-serif" font-size="13" lengthAdjust="spacing" textLength="91.7808" x="7" y="192.0645">hasTopConcept</text><text fill="#000000" font-family="sans-serif" font-size="13" lengthAdjust="spacing" textLength="19.5127" x="74.1461" y="309.5602">1..*</text></g><!--link Concept to ConceptScheme--><g class="link" data-entity-1="ent0003" data-entity-2="ent0002" data-link-type="dependency" data-source-line="20" id="lnk7"><path codeLine="20" d="M88.8,320.5794 C88.8,274.7694 88.8,122.6494 88.8,76.7094" fill="none" id="Concept-to-ConceptScheme" style="stroke:#404040;stroke-width:1.2;"/><polygon fill="#404040" points="88.8,70.7094,84.8,79.7094,88.8,75.7094,92.8,79.7094,88.8,70.7094" style="stroke:#404040;stroke-width:1.2;"/><text fill="#000000" font-family="sans-serif" font-size="13" lengthAdjust="spacing" textLength="57.8081" x="30.8" y="210.1445">inScheme</text><text fill="#000000" font-family="sans-serif" font-size="13" lengthAdjust="spacing" textLength="19.5127" x="60.4967" y="92.1074">1..*</text></g><!--link Concept to Concept--><g class="link" data-entity-1="ent0003" data-entity-2="ent0003" data-link-type="dependency" data-source-line="21" id="lnk8"><path codeLine="21" d="M109.2,320.5594 C109.2,279.9294 109.2,154.6094 109.2,154.6094 C109.2,154.6094 140.6,154.6094 140.6,154.6094 C140.6,154.6094 140.6,369.6094 140.6,369.6094 C140.6,369.6094 95.6,369.6094 95.6,369.6094 C95.6,369.6094 95.6,362.3994 95.6,351.8794" fill="none" id="Concept-to-Concept" style="stroke:#404040;stroke-width:1.2;"/><polygon fill="#404040" points="95.6,345.8794,91.6,354.8794,95.6,350.8794,99.6,354.8794,95.6,345.8794" style="stroke:#404040;stroke-width:1.2;"/><text fill="#000000" font-family="sans-serif" font-size="13" lengthAdjust="spacing" textLength="44.8081" x="146.6" y="189.2945">broader</text><text fill="#000000" font-family="sans-serif" font-size="13" lengthAdjust="spacing" textLength="19.5127" x="70.1132" y="367.081">0..*</text></g><!--link Concept to Concept--><g class="link" data-entity-1="ent0003" data-entity-2="ent0003" data-link-type="dependency" data-source-line="22" id="lnk9"><path codeLine="22" d="M119.4,320.2294 C119.4,294.1594 119.4,237.6094 119.4,237.6094 C119.4,237.6094 135.1,237.6094 135.1,237.6094 C135.1,237.6094 135.1,356.6094 135.1,356.6094 C135.1,356.6094 112.6,356.6094 112.6,356.6094 C112.6,356.6094 112.6,357.2694 112.6,351.6894" fill="none" id="Concept-to-Concept-1" style="stroke:#404040;stroke-width:1.2;"/><polygon fill="#404040" points="112.6,345.6894,108.6,354.6894,112.6,350.6894,116.6,354.6894,112.6,345.6894" style="stroke:#404040;stroke-width:1.2;"/><text fill="#000000" font-family="sans-serif" font-size="13" lengthAdjust="spacing" textLength="51.2954" x="78.1" y="256.1545">narrower</text><text fill="#000000" font-family="sans-serif" font-size="13" lengthAdjust="spacing" textLength="19.5127" x="119.6183" y="367.0798">0..*</text></g><?plantuml-src VP7HIiCm58RlynI7zcxGiXO5wOKmknQy4jnU84lFrjWqfoHnPOhWG_Y4FecTdP9r8hb9llFbFuV4IQSGykLzcLE5Ibe7d-yVG7iqUuazgsM58AGH2iSzjfqxG8lj1erbjf6wuuQtO6jUKI_r3hPSMVGg2sEeNzTID1gjXIHElQBXkh7OGNezzwWUPlccFbHIepjq26HSJLv1A3xalZ8OM-Mao41uDJ-k0TwHgT1CQKdQhUGBGfAoDyR6Z20dBR1pAr5ZYm5m2sS4mk9ckIZAYUwB5mftND7k4SKmnYZw1CAoA8kyOETzPb44GH9Ct0piy-O9XNlO_kd7yIpudIE3cjirTQVppmM8ejk9Uih8GEfnU-xE9x4RGtnuqFybpOzVCLXV?></g></svg>