<svg xmlns="http://www.w3.org/2000/svg" xmlns:xlink="http://www.w3.org/1999/xlink" contentStyleType="text/css" data-diagram-type="CLASS" height="504px" preserveAspectRatio="none" style="width:864px;height:504px;background:#FFFFFF;" version="1.1" viewBox="0 0 864 504" width="864px" zoomAndPan="magnify"><?plantuml 1.2026.3?><defs/><g><g class="title" data-source-line="1"><text fill="#000000" font-family="sans-serif" font-size="14" font-weight="700" lengthAdjust="spacing" textLength="170.0303" x="343.5229" y="24.5332">CDIFCodelist &#8212; overview</text></g><!--class ConceptScheme--><g class="entity" data-qualified-name="ConceptScheme" data-source-line="16" id="ent0002"><rect fill="#E8DAEF" height="47.7344" rx="2.5" ry="2.5" style="stroke:#404040;stroke-width:0.5;" width="227.792" x="333.0077" y="45.6094"/><text fill="#000000" font-family="sans-serif" font-size="30" lengthAdjust="spacing" textLength="221.792" x="336.0077" y="81.752">ConceptScheme</text></g><!--class Concept--><g class="entity" data-qualified-name="Concept" data-source-line="17" id="ent0003"><rect fill="#E8DAEF" height="47.7344" rx="2.5" ry="2.5" style="stroke:#404040;stroke-width:0.5;" width="117.7383" x="15.0077" y="395.1094"/><text fill="#000000" font-family="sans-serif" font-size="30" lengthAdjust="spacing" textLength="111.7383" x="18.0077" y="431.252">Concept</text></g><!--class Identifier--><g class="entity" data-qualified-name="Identifier" data-source-line="18" id="ent0004"><rect fill="#D6EAF8" height="47.7344" rx="2.5" ry="2.5" style="stroke:#404040;stroke-width:0.5;" width="121.0635" x="480.5077" y="395.1094"/><text fill="#000000" font-family="sans-serif" font-size="30" lengthAdjust="spacing" textLength="115.0635" x="483.5077" y="431.252">Identifier</text></g><!--class CatalogRecord--><g class="entity" data-qualified-name="CatalogRecord" data-source-line="19" id="ent0005"><rect fill="#FEFECE" height="47.7344" rx="2.5" ry="2.5" style="stroke:#404040;stroke-width:0.5;" width="206.1123" x="622.0077" y="395.1094"/><text fill="#000000" font-family="sans-serif" font-size="30" lengthAdjust="spacing" textLength="200.1123" x="625.0077" y="431.252">CatalogRecord</text></g><!--class Reference--><g class="entity" data-qualified-name="Reference" data-source-line="20" id="ent0006"><rect fill="#D6EAF8" height="47.7344" rx="2.5" ry="2.5" style="stroke:#404040;stroke-width:0.5;" width="144.4131" x="581.0077" y="45.6094"/><text fill="#000000" font-family="sans-serif" font-size="30" lengthAdjust="spacing" textLength="138.4131" x="584.0077" y="81.752">Reference</text></g><!--reverse link ConceptScheme to CatalogRecord--><g class="link" data-entity-1="ent0002" data-entity-2="ent0005" data-link-type="composition" data-source-line="21" id="lnk7"><path codeLine="21" d="M514.2241,98.8091 C565.4341,122.6791 628.4277,159.6694 671.0077,218.6094 C710.5077,273.2894 721.1177,355.2594 723.9577,394.9394" fill="none" id="ConceptScheme-backto-CatalogRecord" style="stroke:#404040;stroke-width:1.2;"/><polygon fill="#404040" points="503.3477,93.7394,507.096,99.8997,514.2241,98.8091,510.4758,92.6488,503.3477,93.7394" style="stroke:#404040;stroke-width:1.2;"/><text fill="#000000" font-family="sans-serif" font-size="36" lengthAdjust="spacing" textLength="152.0684" x="696.0077" y="256.9805">subjectOf</text><text fill="#000000" font-family="sans-serif" font-size="36" lengthAdjust="spacing" textLength="20.0215" x="702.0506" y="379.3361">1</text></g><!--reverse link ConceptScheme to Identifier--><g class="link" data-entity-1="ent0002" data-entity-2="ent0004" data-link-type="composition" data-source-line="22" id="lnk8"><path codeLine="22" d="M466.8359,104.1899 C483.1059,132.5699 503.6177,172.1894 517.0077,218.6094 C534.8877,280.6194 539.4577,357.1994 540.6177,394.8994" fill="none" id="ConceptScheme-backto-Identifier" style="stroke:#404040;stroke-width:1.2;"/><polygon fill="#404040" points="460.8677,93.7794,460.3816,100.9741,466.8359,104.1899,467.322,96.9952,460.8677,93.7794" style="stroke:#404040;stroke-width:1.2;"/><text fill="#000000" font-family="sans-serif" font-size="36" lengthAdjust="spacing" textLength="136.0723" x="529.0077" y="256.9805">identifier</text><text fill="#000000" font-family="sans-serif" font-size="36" lengthAdjust="spacing" textLength="60.0469" x="475.3929" y="379.2892">0..1</text></g><!--reverse link ConceptScheme to Concept--><g class="link" data-entity-1="ent0002" data-entity-2="ent0003" data-link-type="composition" data-source-line="23" id="lnk9"><path codeLine="23" d="M320.901,84.1789 C233.641,99.6089 130.7077,133.7194 73.0077,218.6094 C36.2977,272.6094 54.1877,355.2494 66.1777,395.0794" fill="none" id="ConceptScheme-backto-Concept" style="stroke:#404040;stroke-width:1.2;"/><polygon fill="#404040" points="332.7177,82.0894,326.1128,79.1952,320.901,84.1789,327.5058,87.073,332.7177,82.0894" style="stroke:#404040;stroke-width:1.2;"/><text fill="#000000" font-family="sans-serif" font-size="36" lengthAdjust="spacing" textLength="254.1621" x="74.0077" y="256.9805">hasTopConcept</text><text fill="#000000" font-family="sans-serif" font-size="36" lengthAdjust="spacing" textLength="54.0352" x="6" y="379.211">1..*</text></g><!--link Concept to ConceptScheme--><g class="link" data-entity-1="ent0003" data-entity-2="ent0002" data-link-type="dependency" data-source-line="24" id="lnk10"><path codeLine="24" d="M133.1077,395.7094 C190.2477,371.3894 275.8977,327.5694 330.0077,265.6094 C344.9377,248.5194 339.2977,238.6294 350.0077,218.6094 C374.7177,172.4294 406.03,126.9773 426.53,98.5273" fill="none" id="Concept-to-ConceptScheme" style="stroke:#404040;stroke-width:1.2;"/><polygon fill="#404040" points="430.0377,93.6594,421.5309,98.6228,427.1146,97.716,428.0215,103.2997,430.0377,93.6594" style="stroke:#404040;stroke-width:1.2;"/><text fill="#000000" font-family="sans-serif" font-size="36" lengthAdjust="spacing" textLength="160.084" x="351.0077" y="256.9805">inScheme</text><text fill="#000000" font-family="sans-serif" font-size="36" lengthAdjust="spacing" textLength="54.0352" x="368.7753" y="138.7856">1..*</text></g><!--link Concept to Concept--><g class="link" data-entity-1="ent0003" data-entity-2="ent0003" data-link-type="dependency" data-source-line="25" id="lnk11"><path codeLine="25" d="M133.2577,403.3494 C144.8077,405.1794 153.0077,410.4294 153.0077,419.1094 C153.0077,427.7894 150.7337,432.1104 139.1837,433.9404" fill="none" id="Concept-to-Concept" style="stroke:#404040;stroke-width:1.2;"/><polygon fill="#404040" points="133.2577,434.8794,142.7727,437.4217,138.1961,434.0969,141.5208,429.5203,133.2577,434.8794" style="stroke:#404040;stroke-width:1.2;"/><text fill="#000000" font-family="sans-serif" font-size="36" lengthAdjust="spacing" textLength="124.084" x="159.0077" y="433.9805">broader</text><text fill="#000000" font-family="sans-serif" font-size="36" lengthAdjust="spacing" textLength="54.0352" x="130.7595" y="488.1496">0..*</text></g><!--link Concept to Concept--><g class="link" data-entity-1="ent0003" data-entity-2="ent0003" data-link-type="dependency" data-source-line="26" id="lnk12"><path codeLine="26" d="M118.7477,395.0894 C183.6777,377.6294 289.0077,385.6394 289.0077,419.1094 C289.0077,452.5894 189.4718,462.1575 124.5418,444.6975" fill="none" id="Concept-to-Concept-1" style="stroke:#404040;stroke-width:1.2;"/><polygon fill="#404040" points="118.7477,443.1394,126.4002,449.3393,123.5761,444.4378,128.4776,441.6137,118.7477,443.1394" style="stroke:#404040;stroke-width:1.2;"/><text fill="#000000" font-family="sans-serif" font-size="36" lengthAdjust="spacing" textLength="142.0488" x="295.0077" y="433.9805">narrower</text><text fill="#000000" font-family="sans-serif" font-size="36" lengthAdjust="spacing" textLength="54.0352" x="67.7104" y="488.2623">0..*</text></g><?plantuml-src RPBHRe8m58RlUOeJk3E1eDkCySB48IHUBL5Ve9I3T9QMj5MpBKls47l2FScgA5PYkEdvpzVl70Y66OwGB9PP8WlaJ1lu-_a5UK1rO7ZqAbOWKAOen_QCTMC-eCOwHwKzlMEY8OhKe2jIo2CJMoW9r-Xqvah9uwPYT2TGQnX68wUfYDXfR63q4ZkfiBkSKpSii2HxRZ8fp9fz8ZoDdIRbnBg_F6Z79P9B1S5pV7fi-2fLWQgVkYfxqHZ5yht1MnnxtvxNglr42egDMTCAQ_I1QBXB84WdYtcQzN0Nx2FB0eLX9KDrfcub18jnEiycdOiOmkLsXTI-Hcjq4mYoD4kJz8gli4I5TkGPxQhEUh_t80p17_ezvHJqFdz7QjxAHtmSHVQAi_4KM5Sy71150x_x45EeYDx8vb9VBq0OpdhenM7reZtUit5Fcoj9Yji6Zo51Jh-8fVu1?></g></svg>