<svg xmlns="http://www.w3.org/2000/svg" xmlns:xlink="http://www.w3.org/1999/xlink" contentStyleType="text/css" data-diagram-type="CLASS" height="1199px" preserveAspectRatio="none" style="width:978px;height:1199px;background:#FFFFFF;" version="1.1" viewBox="0 0 978 1199" width="978px" zoomAndPan="magnify"><?plantuml 1.2026.3?><defs/><g><g class="title" data-source-line="1"><text fill="#000000" font-family="sans-serif" font-size="14" font-weight="700" lengthAdjust="spacing" textLength="146.6992" x="412.1729" y="24.5332">CDIFCore &#8212; overview</text></g><!--class Dataset--><g class="entity" data-qualified-name="Dataset" data-source-line="15" id="ent0002"><rect fill="#FEFECE" height="25.0938" rx="2.5" ry="2.5" style="stroke:#404040;stroke-width:0.5;" width="47.3555" x="531.5" y="60.5204"/><text fill="#000000" font-family="sans-serif" font-size="12" lengthAdjust="spacing" textLength="41.3555" x="534.5" y="77.9774">Dataset</text></g><!--class AbstractDistribution--><g class="entity" data-qualified-name="AbstractDistribution" data-source-line="16" id="ent0003"><rect fill="#D6EAF8" height="25.0938" rx="2.5" ry="2.5" style="stroke:#404040;stroke-width:0.5;" width="110.0391" x="219" y="335.5204"/><text fill="#000000" font-family="sans-serif" font-size="12" font-style="italic" lengthAdjust="spacing" textLength="104.0391" x="222" y="352.9774">AbstractDistribution</text></g><!--class DataDownload--><g class="entity" data-qualified-name="DataDownload" data-source-line="17" id="ent0004"><rect fill="#FEFECE" height="25.0938" rx="2.5" ry="2.5" style="stroke:#404040;stroke-width:0.5;" width="84.7148" x="237.5" y="610.5204"/><text fill="#000000" font-family="sans-serif" font-size="12" lengthAdjust="spacing" textLength="78.7148" x="240.5" y="627.9774">DataDownload</text></g><!--class WebAPI--><g class="entity" data-qualified-name="WebAPI" data-source-line="18" id="ent0005"><rect fill="#FCF3CF" height="25.0938" rx="2.5" ry="2.5" style="stroke:#404040;stroke-width:0.5;" width="50.0156" x="132" y="610.5204"/><text fill="#000000" font-family="sans-serif" font-size="12" lengthAdjust="spacing" textLength="44.0156" x="135" y="627.9774">WebAPI</text></g><!--class Action--><g class="entity" data-qualified-name="Action" data-source-line="19" id="ent0006"><rect fill="#D6EAF8" height="25.0938" rx="2.5" ry="2.5" style="stroke:#404040;stroke-width:0.5;" width="39.3516" x="125.5" y="885.5204"/><text fill="#000000" font-family="sans-serif" font-size="12" lengthAdjust="spacing" textLength="33.3516" x="128.5" y="902.9774">Action</text></g><!--class EntryPoint--><g class="entity" data-qualified-name="EntryPoint" data-source-line="20" id="ent0007"><rect fill="#D6EAF8" height="25.0938" rx="2.5" ry="2.5" style="stroke:#404040;stroke-width:0.5;" width="61.3594" x="10.5" y="1160.5204"/><text fill="#000000" font-family="sans-serif" font-size="12" lengthAdjust="spacing" textLength="55.3594" x="13.5" y="1177.9774">EntryPoint</text></g><!--class ActionResult--><g class="entity" data-qualified-name="ActionResult" data-source-line="21" id="ent0008"><rect fill="#FCF3CF" height="25.0938" rx="2.5" ry="2.5" style="stroke:#404040;stroke-width:0.5;" width="73.3652" x="91.5" y="1160.5204"/><text fill="#000000" font-family="sans-serif" font-size="12" lengthAdjust="spacing" textLength="67.3652" x="94.5" y="1177.9774">ActionResult</text></g><!--class PropertyValueSpecification--><g class="entity" data-qualified-name="PropertyValueSpecification" data-source-line="22" id="ent0009"><rect fill="#D6EAF8" height="25.0938" rx="2.5" ry="2.5" style="stroke:#404040;stroke-width:0.5;" width="150.082" x="185" y="1160.5204"/><text fill="#000000" font-family="sans-serif" font-size="12" lengthAdjust="spacing" textLength="144.082" x="188" y="1177.9774">PropertyValueSpecification</text></g><!--class Agent--><g class="entity" data-qualified-name="Agent" data-source-line="23" id="ent0010"><rect fill="#D6EAF8" height="25.0938" rx="2.5" ry="2.5" style="stroke:#404040;stroke-width:0.5;" width="37.3594" x="373.5" y="885.5204"/><text fill="#000000" font-family="sans-serif" font-size="12" font-style="italic" lengthAdjust="spacing" textLength="31.3594" x="376.5" y="902.9774">Agent</text></g><!--class Person--><g class="entity" data-qualified-name="Person" data-source-line="24" id="ent0011"><rect fill="#D6EAF8" height="25.0938" rx="2.5" ry="2.5" style="stroke:#404040;stroke-width:0.5;" width="44.0215" x="449" y="1160.5204"/><text fill="#000000" font-family="sans-serif" font-size="12" lengthAdjust="spacing" textLength="38.0215" x="452" y="1177.9774">Person</text></g><!--class ContactPoint--><g class="entity" data-qualified-name="ContactPoint" data-source-line="25" id="ent0012"><rect fill="#D6EAF8" height="25.0938" rx="2.5" ry="2.5" style="stroke:#404040;stroke-width:0.5;" width="74.707" x="109.5" y="60.5204"/><text fill="#000000" font-family="sans-serif" font-size="12" lengthAdjust="spacing" textLength="68.707" x="112.5" y="77.9774">ContactPoint</text></g><!--class Organization--><g class="entity" data-qualified-name="Organization" data-source-line="26" id="ent0013"><rect fill="#D6EAF8" height="25.0938" rx="2.5" ry="2.5" style="stroke:#404040;stroke-width:0.5;" width="74.0391" x="355" y="1160.5204"/><text fill="#000000" font-family="sans-serif" font-size="12" lengthAdjust="spacing" textLength="68.0391" x="358" y="1177.9774">Organization</text></g><!--class Contributor--><g class="entity" data-qualified-name="Contributor" data-source-line="27" id="ent0014"><rect fill="#D6EAF8" height="25.0938" rx="2.5" ry="2.5" style="stroke:#404040;stroke-width:0.5;" width="65.3613" x="431.5" y="610.5204"/><text fill="#000000" font-family="sans-serif" font-size="12" lengthAdjust="spacing" textLength="59.3613" x="434.5" y="627.9774">Contributor</text></g><!--class DefinedTerm--><g class="entity" data-qualified-name="DefinedTerm" data-source-line="28" id="ent0015"><rect fill="#D5F5E3" height="25.0938" rx="2.5" ry="2.5" style="stroke:#404040;stroke-width:0.5;" width="75.3574" x="473.5" y="335.5204"/><text fill="#000000" font-family="sans-serif" font-size="12" lengthAdjust="spacing" textLength="69.3574" x="476.5" y="352.9774">DefinedTerm</text></g><!--class Identifier--><g class="entity" data-qualified-name="Identifier" data-source-line="29" id="ent0016"><rect fill="#D6EAF8" height="25.0938" rx="2.5" ry="2.5" style="stroke:#404040;stroke-width:0.5;" width="52.0254" x="205" y="60.5204"/><text fill="#000000" font-family="sans-serif" font-size="12" lengthAdjust="spacing" textLength="46.0254" x="208" y="77.9774">Identifier</text></g><!--class AdditionalProperty--><g class="entity" data-qualified-name="AdditionalProperty" data-source-line="30" id="ent0017"><rect fill="#D6EAF8" height="25.0938" rx="2.5" ry="2.5" style="stroke:#404040;stroke-width:0.5;" width="104.0566" x="95" y="335.5204"/><text fill="#000000" font-family="sans-serif" font-size="12" lengthAdjust="spacing" textLength="98.0566" x="98" y="352.9774">AdditionalProperty</text></g><!--class Reference--><g class="entity" data-qualified-name="Reference" data-source-line="31" id="ent0018"><rect fill="#D6EAF8" height="25.0938" rx="2.5" ry="2.5" style="stroke:#404040;stroke-width:0.5;" width="61.3652" x="568.5" y="335.5204"/><text fill="#000000" font-family="sans-serif" font-size="12" lengthAdjust="spacing" textLength="55.3652" x="571.5" y="352.9774">Reference</text></g><!--class MonetaryGrant--><g class="entity" data-qualified-name="MonetaryGrant" data-source-line="32" id="ent0019"><rect fill="#D6EAF8" height="25.0938" rx="2.5" ry="2.5" style="stroke:#404040;stroke-width:0.5;" width="86.0332" x="567" y="610.5204"/><text fill="#000000" font-family="sans-serif" font-size="12" lengthAdjust="spacing" textLength="80.0332" x="570" y="627.9774">MonetaryGrant</text></g><!--class ProvActivity--><g class="entity" data-qualified-name="ProvActivity" data-source-line="33" id="ent0020"><rect fill="#FEFECE" height="25.0938" rx="2.5" ry="2.5" style="stroke:#404040;stroke-width:0.5;" width="68.6777" x="692.5" y="335.5204"/><text fill="#000000" font-family="sans-serif" font-size="12" lengthAdjust="spacing" textLength="62.6777" x="695.5" y="352.9774">ProvActivity</text></g><!--class DerivedFrom--><g class="entity" data-qualified-name="DerivedFrom" data-source-line="34" id="ent0021"><rect fill="#D6EAF8" height="25.0938" rx="2.5" ry="2.5" style="stroke:#404040;stroke-width:0.5;" width="75.3457" x="781.5" y="335.5204"/><text fill="#000000" font-family="sans-serif" font-size="12" lengthAdjust="spacing" textLength="69.3457" x="784.5" y="352.9774">DerivedFrom</text></g><!--class CatalogRecord--><g class="entity" data-qualified-name="CatalogRecord" data-source-line="35" id="ent0022"><rect fill="#FEFECE" height="25.0938" rx="2.5" ry="2.5" style="stroke:#404040;stroke-width:0.5;" width="86.0449" x="877" y="335.5204"/><text fill="#000000" font-family="sans-serif" font-size="12" lengthAdjust="spacing" textLength="80.0449" x="880" y="352.9774">CatalogRecord</text></g><!--reverse link AbstractDistribution to DataDownload--><g class="link" data-entity-1="ent0003" data-entity-2="ent0004" data-link-type="extension" data-source-line="36" id="lnk23"><path codeLine="36" d="M280,378.5504 C280,424.3604 280,564.4804 280,610.4204" fill="none" id="AbstractDistribution-backto-DataDownload" style="stroke:#404040;stroke-width:1.2;"/><polygon fill="none" points="280,360.5504,274,378.5504,286,378.5504,280,360.5504" style="stroke:#404040;stroke-width:1.2;"/></g><!--reverse link AbstractDistribution to WebAPI--><g class="link" data-entity-1="ent0003" data-entity-2="ent0005" data-link-type="extension" data-source-line="37" id="lnk24"><path codeLine="37" d="M228.25,378.5704 C228.25,432.4704 228.25,623.5204 228.25,623.5204 C228.25,623.5204 202.8,623.5204 182.32,623.5204" fill="none" id="AbstractDistribution-backto-WebAPI" style="stroke:#404040;stroke-width:1.2;"/><polygon fill="none" points="228.25,360.5704,222.25,378.5704,234.25,378.5704,228.25,360.5704" style="stroke:#404040;stroke-width:1.2;"/></g><!--reverse link Agent to Person--><g class="link" data-entity-1="ent0010" data-entity-2="ent0011" data-link-type="extension" data-source-line="38" id="lnk25"><path codeLine="38" d="M428.72,905.5204 C452.08,905.5204 471,905.5204 471,905.5204 C471,905.5204 471,1107.5904 471,1160.4804" fill="none" id="Agent-backto-Person" style="stroke:#404040;stroke-width:1.2;"/><polygon fill="none" points="410.72,905.5204,428.72,911.5204,428.72,899.5204,410.72,905.5204" style="stroke:#404040;stroke-width:1.2;"/></g><!--reverse link Agent to Organization--><g class="link" data-entity-1="ent0010" data-entity-2="ent0013" data-link-type="extension" data-source-line="39" id="lnk26"><path codeLine="39" d="M392,928.5504 C392,974.3604 392,1114.4804 392,1160.4204" fill="none" id="Agent-backto-Organization" style="stroke:#404040;stroke-width:1.2;"/><polygon fill="none" points="392,910.5504,386,928.5504,398,928.5504,392,910.5504" style="stroke:#404040;stroke-width:1.2;"/></g><!--link Dataset to Agent--><g class="link" data-entity-1="ent0002" data-entity-2="ent0010" data-link-type="dependency" data-source-line="40" id="lnk27"><path codeLine="40" d="M531.27,80.5204 C488.54,80.5204 403.1,80.5204 403.1,80.5204 C403.1,80.5204 403.1,776.6504 403.1,879.5104" fill="none" id="Dataset-to-Agent" style="stroke:#404040;stroke-width:1.2;"/><polygon fill="#404040" points="403.1,885.5104,407.1,876.5104,403.1,880.5104,399.1,876.5104,403.1,885.5104" style="stroke:#404040;stroke-width:1.2;"/><text fill="#000000" font-family="sans-serif" font-size="13" lengthAdjust="spacing" textLength="46.9663" x="356.1" y="433.4255">provider</text><text fill="#000000" font-family="sans-serif" font-size="13" lengthAdjust="spacing" textLength="19.5127" x="411.6291" y="874.5983">0..*</text></g><!--link Dataset to Agent--><g class="link" data-entity-1="ent0002" data-entity-2="ent0010" data-link-type="dependency" data-source-line="42" id="lnk29"><path codeLine="42" d="M531.49,75.5204 C487.18,75.5204 395.7,75.5204 395.7,75.5204 C395.7,75.5204 395.7,775.9504 395.7,879.4304" fill="none" id="Dataset-to-Agent-1" style="stroke:#404040;stroke-width:1.2;"/><polygon fill="#404040" points="395.7,885.4304,399.7,876.4304,395.7,880.4304,391.7,876.4304,395.7,885.4304" style="stroke:#404040;stroke-width:1.2;"/><text fill="#000000" font-family="sans-serif" font-size="13" lengthAdjust="spacing" textLength="40.46" x="396.7" y="409.0755">creator</text><text fill="#000000" font-family="sans-serif" font-size="13" lengthAdjust="spacing" textLength="19.5127" x="374.3391" y="874.4853">0..*</text></g><!--link Dataset to Agent--><g class="link" data-entity-1="ent0002" data-entity-2="ent0010" data-link-type="dependency" data-source-line="44" id="lnk31"><path codeLine="44" d="M531.47,70.5204 C485.52,70.5204 388.3,70.5204 388.3,70.5204 C388.3,70.5204 388.3,775.2404 388.3,879.3504" fill="none" id="Dataset-to-Agent-2" style="stroke:#404040;stroke-width:1.2;"/><polygon fill="#404040" points="388.3,885.3504,392.3,876.3504,388.3,880.3504,384.3,876.3504,388.3,885.3504" style="stroke:#404040;stroke-width:1.2;"/><text fill="#000000" font-family="sans-serif" font-size="13" lengthAdjust="spacing" textLength="52.7554" x="335.3" y="402.8455">publisher</text><text fill="#000000" font-family="sans-serif" font-size="13" lengthAdjust="spacing" textLength="21.6836" x="361.7726" y="874.7574">0..1</text></g><!--link Dataset to AbstractDistribution--><g class="link" data-entity-1="ent0002" data-entity-2="ent0003" data-link-type="dependency" data-source-line="41" id="lnk28"><path codeLine="41" d="M531.29,65.5204 C466.79,65.5204 293,65.5204 293,65.5204 C293,65.5204 293,274.8404 293,329.5204" fill="none" id="Dataset-to-AbstractDistribution" style="stroke:#404040;stroke-width:1.2;"/><polygon fill="#404040" points="293,335.5204,297,326.5204,293,330.5204,289,326.5204,293,335.5204" style="stroke:#404040;stroke-width:1.2;"/><text fill="#000000" font-family="sans-serif" font-size="13" lengthAdjust="spacing" textLength="62.8672" x="294" y="77.8655">distribution</text><text fill="#000000" font-family="sans-serif" font-size="13" lengthAdjust="spacing" textLength="19.5127" x="278.0164" y="324.6124">0..*</text></g><!--link Dataset to Contributor--><g class="link" data-entity-1="ent0002" data-entity-2="ent0014" data-link-type="dependency" data-source-line="43" id="lnk30"><path codeLine="43" d="M554.67,85.7204 C554.67,167.7804 554.67,619.5204 554.67,619.5204 C554.67,619.5204 528.7,619.5204 502.73,619.5204" fill="none" id="Dataset-to-Contributor" style="stroke:#404040;stroke-width:1.2;"/><polygon fill="#404040" points="496.73,619.5204,505.73,623.5204,501.73,619.5204,505.73,615.5204,496.73,619.5204" style="stroke:#404040;stroke-width:1.2;"/><text fill="#000000" font-family="sans-serif" font-size="13" lengthAdjust="spacing" textLength="61.4199" x="492.67" y="378.0855">contributor</text><text fill="#000000" font-family="sans-serif" font-size="13" lengthAdjust="spacing" textLength="19.5127" x="504.7945" y="614.8479">0..*</text></g><!--link Dataset to MonetaryGrant--><g class="link" data-entity-1="ent0002" data-entity-2="ent0019" data-link-type="dependency" data-source-line="45" id="lnk32"><path codeLine="45" d="M560.83,85.6404 C560.83,168.1804 560.83,627.5204 560.83,627.5204 C560.83,627.5204 557.19,627.5204 560.86,627.5204" fill="none" id="Dataset-to-MonetaryGrant" style="stroke:#404040;stroke-width:1.2;"/><polygon fill="#404040" points="566.86,627.5204,557.86,623.5204,561.86,627.5204,557.86,631.5204,566.86,627.5204" style="stroke:#404040;stroke-width:1.2;"/><text fill="#000000" font-family="sans-serif" font-size="13" lengthAdjust="spacing" textLength="42.6499" x="561.83" y="374.0955">funding</text><text fill="#000000" font-family="sans-serif" font-size="13" lengthAdjust="spacing" textLength="19.5127" x="539.5087" y="624.4782">0..*</text></g><!--link Dataset to ProvActivity--><g class="link" data-entity-1="ent0002" data-entity-2="ent0020" data-link-type="dependency" data-source-line="46" id="lnk33"><path codeLine="46" d="M578.56,80.5204 C625.66,80.5204 727,80.5204 727,80.5204 C727,80.5204 727,276.5904 727,329.4804" fill="none" id="Dataset-to-ProvActivity" style="stroke:#404040;stroke-width:1.2;"/><polygon fill="#404040" points="727,335.4804,731,326.4804,727,330.4804,723,326.4804,727,335.4804" style="stroke:#404040;stroke-width:1.2;"/><text fill="#000000" font-family="sans-serif" font-size="13" lengthAdjust="spacing" textLength="99.7217" x="627" y="130.2755">wasGeneratedBy</text><text fill="#000000" font-family="sans-serif" font-size="13" lengthAdjust="spacing" textLength="19.5127" x="704.2535" y="324.5559">0..*</text></g><!--link Dataset to DerivedFrom--><g class="link" data-entity-1="ent0002" data-entity-2="ent0021" data-link-type="dependency" data-source-line="47" id="lnk34"><path codeLine="47" d="M578.89,75.5204 C643.88,75.5204 819,75.5204 819,75.5204 C819,75.5204 819,275.3704 819,329.2404" fill="none" id="Dataset-to-DerivedFrom" style="stroke:#404040;stroke-width:1.2;"/><polygon fill="#404040" points="819,335.2404,823,326.2404,819,330.2404,815,326.2404,819,335.2404" style="stroke:#404040;stroke-width:1.2;"/><text fill="#000000" font-family="sans-serif" font-size="13" lengthAdjust="spacing" textLength="98.2427" x="720" y="81.8255">wasDerivedFrom</text><text fill="#000000" font-family="sans-serif" font-size="13" lengthAdjust="spacing" textLength="19.5127" x="796.2923" y="324.6041">0..*</text></g><!--link Dataset to CatalogRecord--><g class="link" data-entity-1="ent0002" data-entity-2="ent0022" data-link-type="dependency" data-source-line="48" id="lnk35"><path codeLine="48" d="M578.55,70.5204 C657.18,70.5204 905.67,70.5204 905.67,70.5204 C905.67,70.5204 905.67,275.0904 905.67,329.3804" fill="none" id="Dataset-to-CatalogRecord" style="stroke:#404040;stroke-width:1.2;"/><polygon fill="#404040" points="905.67,335.3804,909.67,326.3804,905.67,330.3804,901.67,326.3804,905.67,335.3804" style="stroke:#404040;stroke-width:1.2;"/><text fill="#000000" font-family="sans-serif" font-size="13" lengthAdjust="spacing" textLength="54.9136" x="875.54" y="85.0155">subjectOf</text><text fill="#000000" font-family="sans-serif" font-size="13" lengthAdjust="spacing" textLength="7.23" x="891.3533" y="324.4147">1</text></g><!--link CatalogRecord to Dataset--><g class="link" data-entity-1="ent0022" data-entity-2="ent0002" data-link-type="dependency" data-source-line="58" id="lnk45"><path codeLine="58" d="M934.33,335.5204 C934.33,280.8404 934.33,65.5204 934.33,65.5204 C934.33,65.5204 667.77,65.5204 584.73,65.5204" fill="none" id="CatalogRecord-to-Dataset" style="stroke:#404040;stroke-width:1.2;"/><polygon fill="#404040" points="578.73,65.5204,587.73,69.5204,583.73,65.5204,587.73,61.5204,578.73,65.5204" style="stroke:#404040;stroke-width:1.2;"/><text fill="#000000" font-family="sans-serif" font-size="13" lengthAdjust="spacing" textLength="32.5317" x="858.53" y="62.0155">about</text><text fill="#000000" font-family="sans-serif" font-size="13" lengthAdjust="spacing" textLength="21.6836" x="586.6836" y="59.4609">0..1</text></g><!--link Dataset to DefinedTerm--><g class="link" data-entity-1="ent0002" data-entity-2="ent0015" data-link-type="dependency" data-source-line="49" id="lnk36"><path codeLine="49" d="M540,85.5504 C540,131.3604 540,283.4804 540,329.4204" fill="none" id="Dataset-to-DefinedTerm" style="stroke:#404040;stroke-width:1.2;"/><polygon fill="#404040" points="540,335.4204,544,326.4204,540,330.4204,536,326.4204,540,335.4204" style="stroke:#404040;stroke-width:1.2;"/><text fill="#000000" font-family="sans-serif" font-size="13" lengthAdjust="spacing" textLength="54.9072" x="485" y="206.9755">keywords</text><text fill="#000000" font-family="sans-serif" font-size="13" lengthAdjust="spacing" textLength="19.5127" x="529.0758" y="324.4712">0..*</text></g><!--link Dataset to Reference--><g class="link" data-entity-1="ent0002" data-entity-2="ent0018" data-link-type="dependency" data-source-line="50" id="lnk37"><path codeLine="50" d="M573.5,85.5504 C573.5,131.3604 573.5,283.4804 573.5,329.4204" fill="none" id="Dataset-to-Reference" style="stroke:#404040;stroke-width:1.2;"/><polygon fill="#404040" points="573.5,335.4204,577.5,326.4204,573.5,330.4204,569.5,326.4204,573.5,335.4204" style="stroke:#404040;stroke-width:1.2;"/><text fill="#000000" font-family="sans-serif" font-size="13" lengthAdjust="spacing" textLength="40.4663" x="532.5" y="224.9755">license</text><text fill="#000000" font-family="sans-serif" font-size="13" lengthAdjust="spacing" textLength="19.5127" x="545.7259" y="324.6321">0..*</text></g><!--link DataDownload to Agent--><g class="link" data-entity-1="ent0004" data-entity-2="ent0010" data-link-type="dependency" data-source-line="51" id="lnk38"><path codeLine="51" d="M322.79,623.5204 C350.29,623.5204 380.9,623.5204 380.9,623.5204 C380.9,623.5204 380.9,825.8104 380.9,879.5104" fill="none" id="DataDownload-to-Agent" style="stroke:#404040;stroke-width:1.2;"/><polygon fill="#404040" points="380.9,885.5104,384.9,876.5104,380.9,880.5104,376.9,876.5104,380.9,885.5104" style="stroke:#404040;stroke-width:1.2;"/><text fill="#000000" font-family="sans-serif" font-size="13" lengthAdjust="spacing" textLength="46.9663" x="333.9" y="721.9555">provider</text><text fill="#000000" font-family="sans-serif" font-size="13" lengthAdjust="spacing" textLength="19.5127" x="345.7379" y="895.5554">0..*</text></g><!--link WebAPI to Action--><g class="link" data-entity-1="ent0005" data-entity-2="ent0006" data-link-type="dependency" data-source-line="52" id="lnk39"><path codeLine="52" d="M148.25,635.5504 C148.25,681.3604 148.25,833.4804 148.25,879.4204" fill="none" id="WebAPI-to-Action" style="stroke:#404040;stroke-width:1.2;"/><polygon fill="#404040" points="148.25,885.4204,152.25,876.4204,148.25,880.4204,144.25,876.4204,148.25,885.4204" style="stroke:#404040;stroke-width:1.2;"/><text fill="#000000" font-family="sans-serif" font-size="13" lengthAdjust="spacing" textLength="85.2808" x="62.25" y="756.9755">potentialAction</text><text fill="#000000" font-family="sans-serif" font-size="13" lengthAdjust="spacing" textLength="19.5127" x="126.7051" y="874.4712">0..*</text></g><!--link Action to EntryPoint--><g class="link" data-entity-1="ent0006" data-entity-2="ent0007" data-link-type="dependency" data-source-line="53" id="lnk40"><path codeLine="53" d="M125.44,898.5204 C95.31,898.5204 41,898.5204 41,898.5204 C41,898.5204 41,1100.8104 41,1154.5104" fill="none" id="Action-to-EntryPoint" style="stroke:#404040;stroke-width:1.2;"/><polygon fill="#404040" points="41,1160.5104,45,1151.5104,41,1155.5104,37,1151.5104,41,1160.5104" style="stroke:#404040;stroke-width:1.2;"/><text fill="#000000" font-family="sans-serif" font-size="13" lengthAdjust="spacing" textLength="33.2427" x="7" y="983.7955">target</text><text fill="#000000" font-family="sans-serif" font-size="13" lengthAdjust="spacing" textLength="7.23" x="32.5296" y="1149.5983">1</text></g><!--link Action to ActionResult--><g class="link" data-entity-1="ent0006" data-entity-2="ent0008" data-link-type="dependency" data-source-line="54" id="lnk41"><path codeLine="54" d="M145,910.5504 C145,956.3604 145,1108.4804 145,1154.4204" fill="none" id="Action-to-ActionResult" style="stroke:#404040;stroke-width:1.2;"/><polygon fill="#404040" points="145,1160.4204,149,1151.4204,145,1155.4204,141,1151.4204,145,1160.4204" style="stroke:#404040;stroke-width:1.2;"/><text fill="#000000" font-family="sans-serif" font-size="13" lengthAdjust="spacing" textLength="31.7891" x="113" y="1031.9755">result</text><text fill="#000000" font-family="sans-serif" font-size="13" lengthAdjust="spacing" textLength="21.6836" x="126.7469" y="1149.4712">0..1</text></g><!--link Action to PropertyValueSpecification--><g class="link" data-entity-1="ent0006" data-entity-2="ent0009" data-link-type="dependency" data-source-line="55" id="lnk42"><path codeLine="55" d="M164.66,898.5204 C177.54,898.5204 192,898.5204 192,898.5204 C192,898.5204 192,1100.8104 192,1154.5104" fill="none" id="Action-to-PropertyValueSpecification" style="stroke:#404040;stroke-width:1.2;"/><polygon fill="#404040" points="192,1160.5104,196,1151.5104,192,1155.5104,188,1151.5104,192,1160.5104" style="stroke:#404040;stroke-width:1.2;"/><text fill="#000000" font-family="sans-serif" font-size="13" lengthAdjust="spacing" textLength="61.4326" x="130" y="1012.3455">queryInput</text><text fill="#000000" font-family="sans-serif" font-size="13" lengthAdjust="spacing" textLength="19.5127" x="157.06" y="1153.8019">0..*</text></g><!--link Contributor to Agent--><g class="link" data-entity-1="ent0014" data-entity-2="ent0010" data-link-type="dependency" data-source-line="56" id="lnk43"><path codeLine="56" d="M440.25,635.5604 C440.25,688.4504 440.25,890.5204 440.25,890.5204 C440.25,890.5204 430.12,890.5204 416.52,890.5204" fill="none" id="Contributor-to-Agent" style="stroke:#404040;stroke-width:1.2;"/><polygon fill="#404040" points="410.52,890.5204,419.52,894.5204,415.52,890.5204,419.52,886.5204,410.52,890.5204" style="stroke:#404040;stroke-width:1.2;"/><text fill="#000000" font-family="sans-serif" font-size="13" lengthAdjust="spacing" textLength="61.4199" x="378.25" y="774.4055">contributor</text><text fill="#000000" font-family="sans-serif" font-size="13" lengthAdjust="spacing" textLength="21.6836" x="418.7275" y="904.1924">0..1</text></g><!--link MonetaryGrant to Agent--><g class="link" data-entity-1="ent0019" data-entity-2="ent0010" data-link-type="dependency" data-source-line="57" id="lnk44"><path codeLine="57" d="M610,635.8004 C610,689.6704 610,895.5204 610,895.5204 C610,895.5204 469.31,895.5204 416.59,895.5204" fill="none" id="MonetaryGrant-to-Agent" style="stroke:#404040;stroke-width:1.2;"/><polygon fill="#404040" points="410.59,895.5204,419.59,899.5204,415.59,895.5204,419.59,891.5204,410.59,895.5204" style="stroke:#404040;stroke-width:1.2;"/><text fill="#000000" font-family="sans-serif" font-size="13" lengthAdjust="spacing" textLength="36.8608" x="573" y="861.8655">funder</text><text fill="#000000" font-family="sans-serif" font-size="13" lengthAdjust="spacing" textLength="19.5127" x="418.864" y="889.969">0..*</text></g><!--link CatalogRecord to Agent--><g class="link" data-entity-1="ent0022" data-entity-2="ent0010" data-link-type="dependency" data-source-line="59" id="lnk46"><path codeLine="59" d="M920,360.6004 C920,442.8404 920,900.5204 920,900.5204 C920,900.5204 510.85,900.5204 416.79,900.5204" fill="none" id="CatalogRecord-to-Agent" style="stroke:#404040;stroke-width:1.2;"/><polygon fill="#404040" points="410.79,900.5204,419.79,904.5204,415.79,900.5204,419.79,896.5204,410.79,900.5204" style="stroke:#404040;stroke-width:1.2;"/><text fill="#000000" font-family="sans-serif" font-size="13" lengthAdjust="spacing" textLength="60.6963" x="859" y="881.6555">maintainer</text><text fill="#000000" font-family="sans-serif" font-size="13" lengthAdjust="spacing" textLength="21.6836" x="418.7053" y="916.872">0..1</text></g><?plantuml-src VLNRRjim37ttLmZfsu0KQRiEWp4CI9EuoCFGe2ssPrbc4YsEv55o0dSRi8_O5-vBnbY-o8vR1474eoEI8WyLAsqAR3PVHZEDmFxz-Slq0V0WuHXiPG9CI1Gfk3NiCrkmFUnZG1EOdLGPHxvdPiiJVPHgmzOyDU3jJ17ryNahnKw1CUpgyjhRHAvs1Z9sVJlnKAKJA54VJAK2MsJ0DDgjzZP4oidlpu2vK3ETQcGNxoUd3u5t6XF0FXffPP_a2x2hw-1t43WVepctt80TCMvOjMONqI9Qp1O1Zur5BcmLRpIjxBcaNnddLcfL7XpQO1Vp3ujfzD4FDDT7bMgUDD5ge0bPaRz1F5qjIvfR4c4MtSoYcZ0LRN0n56wXB1OhBPMxMclsYUxu8vWyjPu_1_J3hb1dWBRuojCSdZ8GSYq5Rr9vVRk9UbRJ3LGfbgj-TYlINEsyNFO9C-egkMjlwWDzyWDkk98lRS8-CEIvRAR6nd5bd_KMrYJLv1bmxrhRsaIzZMuNDpLrcT0jgIpWdBRcML-IH9xIucbTLLUbCxX_y17MWA04bFp6wjE-Q1ekZiKz3QIhN0SvQmJgmqaP1rabuWDz-Su1vG6I27LTZyO-gp9DGQetZo1eQ5sTVQJnF3XYdtwDnvqvUeFcvYXmAYiH9oWVyUKGrA_1UFoPZIQNb-z6bKH3bj7TwMd4GSvG1Y5BFFCjrmA1ayA6ABu0YTXQP-GhBzKyJgNP3kVQxNZ8rhbAw44VedRQ7R8ZD_UW0Bc5vAuOEk3tlEHxG9TFsNPx7ZAJnzz1s8VriETskaAsW-98XymGinL_I7yc0XJzJNMUtRTwMpsyFaLKpSoqFOqjJnqIL1lrRRp7DcHKtmtO3gNgaF_EXWpBHP_dAl_Qengo7pbWiLHPRWDV7WD2yFNIxVj04Kv2e19qs-8vhMiTCXxhK-pNYBN3FQTgq9US_WS0?></g></svg>