<svg xmlns="http://www.w3.org/2000/svg" xmlns:xlink="http://www.w3.org/1999/xlink" contentStyleType="text/css" data-diagram-type="CLASS" height="1488px" preserveAspectRatio="none" style="width:2563px;height:1488px;background:#FFFFFF;" version="1.1" viewBox="0 0 2563 1488" width="2563px" zoomAndPan="magnify"><?plantuml 1.2026.3?><defs/><g><g class="title" data-source-line="1"><text fill="#000000" font-family="sans-serif" font-size="14" font-weight="700" lengthAdjust="spacing" textLength="146.6992" x="1204.6787" y="24.5332">CDIFCore &#8212; overview</text></g><!--class Dataset--><g class="entity" data-qualified-name="Dataset" data-source-line="16" id="ent0002"><rect fill="#FEFECE" height="47.7344" rx="2.5" ry="2.5" style="stroke:#404040;stroke-width:0.5;" width="109.3887" x="1496.5" y="45.6094"/><text fill="#000000" font-family="sans-serif" font-size="30" lengthAdjust="spacing" textLength="103.3887" x="1499.5" y="81.752">Dataset</text></g><!--class AbstractDistribution--><g class="entity" data-qualified-name="AbstractDistribution" data-source-line="17" id="ent0003"><rect fill="#D6EAF8" height="47.7344" rx="2.5" ry="2.5" style="stroke:#404040;stroke-width:0.5;" width="266.0977" x="551" y="390.6094"/><text fill="#000000" font-family="sans-serif" font-size="30" font-style="italic" lengthAdjust="spacing" textLength="260.0977" x="554" y="426.752">AbstractDistribution</text></g><!--class DataDownload--><g class="entity" data-qualified-name="DataDownload" data-source-line="18" id="ent0004"><rect fill="#FEFECE" height="47.7344" rx="2.5" ry="2.5" style="stroke:#404040;stroke-width:0.5;" width="202.7871" x="605.5" y="736.6094"/><text fill="#000000" font-family="sans-serif" font-size="30" lengthAdjust="spacing" textLength="196.7871" x="608.5" y="772.752">DataDownload</text></g><!--class WebAPI--><g class="entity" data-qualified-name="WebAPI" data-source-line="19" id="ent0005"><rect fill="#FCF3CF" height="47.7344" rx="2.5" ry="2.5" style="stroke:#404040;stroke-width:0.5;" width="116.0391" x="428" y="736.6094"/><text fill="#000000" font-family="sans-serif" font-size="30" lengthAdjust="spacing" textLength="110.0391" x="431" y="772.752">WebAPI</text></g><!--class Action--><g class="entity" data-qualified-name="Action" data-source-line="20" id="ent0006"><rect fill="#D6EAF8" height="47.7344" rx="2.5" ry="2.5" style="stroke:#404040;stroke-width:0.5;" width="89.3789" x="420.5" y="1081.6094"/><text fill="#000000" font-family="sans-serif" font-size="30" lengthAdjust="spacing" textLength="83.3789" x="423.5" y="1117.752">Action</text></g><!--class EntryPoint--><g class="entity" data-qualified-name="EntryPoint" data-source-line="21" id="ent0007"><rect fill="#D6EAF8" height="47.7344" rx="2.5" ry="2.5" style="stroke:#404040;stroke-width:0.5;" width="144.3984" x="393" y="1426.6094"/><text fill="#000000" font-family="sans-serif" font-size="30" lengthAdjust="spacing" textLength="138.3984" x="396" y="1462.752">EntryPoint</text></g><!--class ActionResult--><g class="entity" data-qualified-name="ActionResult" data-source-line="22" id="ent0008"><rect fill="#FCF3CF" height="47.7344" rx="2.5" ry="2.5" style="stroke:#404040;stroke-width:0.5;" width="174.4131" x="557" y="1426.6094"/><text fill="#000000" font-family="sans-serif" font-size="30" lengthAdjust="spacing" textLength="168.4131" x="560" y="1462.752">ActionResult</text></g><!--class PropertyValueSpecification--><g class="entity" data-qualified-name="PropertyValueSpecification" data-source-line="23" id="ent0009"><rect fill="#D6EAF8" height="47.7344" rx="2.5" ry="2.5" style="stroke:#404040;stroke-width:0.5;" width="366.2051" x="7" y="1426.6094"/><text fill="#000000" font-family="sans-serif" font-size="30" lengthAdjust="spacing" textLength="360.2051" x="10" y="1462.752">PropertyValueSpecification</text></g><!--class Agent--><g class="entity" data-qualified-name="Agent" data-source-line="24" id="ent0010"><rect fill="#D6EAF8" height="47.7344" rx="2.5" ry="2.5" style="stroke:#404040;stroke-width:0.5;" width="84.3984" x="1236" y="1081.6094"/><text fill="#000000" font-family="sans-serif" font-size="30" font-style="italic" lengthAdjust="spacing" textLength="78.3984" x="1239" y="1117.752">Agent</text></g><!--class Person--><g class="entity" data-qualified-name="Person" data-source-line="25" id="ent0011"><rect fill="#D6EAF8" height="47.7344" rx="2.5" ry="2.5" style="stroke:#404040;stroke-width:0.5;" width="101.0537" x="1148.5" y="1426.6094"/><text fill="#000000" font-family="sans-serif" font-size="30" lengthAdjust="spacing" textLength="95.0537" x="1151.5" y="1462.752">Person</text></g><!--class ContactPoint--><g class="entity" data-qualified-name="ContactPoint" data-source-line="26" id="ent0012"><rect fill="#D6EAF8" height="47.7344" rx="2.5" ry="2.5" style="stroke:#404040;stroke-width:0.5;" width="177.7676" x="316" y="45.6094"/><text fill="#000000" font-family="sans-serif" font-size="30" lengthAdjust="spacing" textLength="171.7676" x="319" y="81.752">ContactPoint</text></g><!--class Organization--><g class="entity" data-qualified-name="Organization" data-source-line="27" id="ent0013"><rect fill="#D6EAF8" height="47.7344" rx="2.5" ry="2.5" style="stroke:#404040;stroke-width:0.5;" width="176.0977" x="1270" y="1426.6094"/><text fill="#000000" font-family="sans-serif" font-size="30" lengthAdjust="spacing" textLength="170.0977" x="1273" y="1462.752">Organization</text></g><!--class Contributor--><g class="entity" data-qualified-name="Contributor" data-source-line="28" id="ent0014"><rect fill="#D6EAF8" height="47.7344" rx="2.5" ry="2.5" style="stroke:#404040;stroke-width:0.5;" width="154.4033" x="1029" y="563.6094"/><text fill="#000000" font-family="sans-serif" font-size="30" lengthAdjust="spacing" textLength="148.4033" x="1032" y="599.752">Contributor</text></g><!--class Identifier--><g class="entity" data-qualified-name="Identifier" data-source-line="29" id="ent0015"><rect fill="#D6EAF8" height="47.7344" rx="2.5" ry="2.5" style="stroke:#404040;stroke-width:0.5;" width="121.0635" x="514.5" y="45.6094"/><text fill="#000000" font-family="sans-serif" font-size="30" lengthAdjust="spacing" textLength="115.0635" x="517.5" y="81.752">Identifier</text></g><!--class AdditionalProperty--><g class="entity" data-qualified-name="AdditionalProperty" data-source-line="30" id="ent0016"><rect fill="#D6EAF8" height="47.7344" rx="2.5" ry="2.5" style="stroke:#404040;stroke-width:0.5;" width="251.1416" x="279.5" y="390.6094"/><text fill="#000000" font-family="sans-serif" font-size="30" lengthAdjust="spacing" textLength="245.1416" x="282.5" y="426.752">AdditionalProperty</text></g><!--class Reference--><g class="entity" data-qualified-name="Reference" data-source-line="31" id="ent0017"><rect fill="#D6EAF8" height="47.7344" rx="2.5" ry="2.5" style="stroke:#404040;stroke-width:0.5;" width="144.4131" x="1782" y="390.6094"/><text fill="#000000" font-family="sans-serif" font-size="30" lengthAdjust="spacing" textLength="138.4131" x="1785" y="426.752">Reference</text></g><!--class MonetaryGrant--><g class="entity" data-qualified-name="MonetaryGrant" data-source-line="32" id="ent0018"><rect fill="#D6EAF8" height="47.7344" rx="2.5" ry="2.5" style="stroke:#404040;stroke-width:0.5;" width="206.083" x="1188" y="563.6094"/><text fill="#000000" font-family="sans-serif" font-size="30" lengthAdjust="spacing" textLength="200.083" x="1191" y="599.752">MonetaryGrant</text></g><!--class ProvActivity--><g class="entity" data-qualified-name="ProvActivity" data-source-line="33" id="ent0019"><rect fill="#FEFECE" height="47.7344" rx="2.5" ry="2.5" style="stroke:#404040;stroke-width:0.5;" width="162.6943" x="1946.5" y="390.6094"/><text fill="#000000" font-family="sans-serif" font-size="30" lengthAdjust="spacing" textLength="156.6943" x="1949.5" y="426.752">ProvActivity</text></g><!--class DerivedFrom--><g class="entity" data-qualified-name="DerivedFrom" data-source-line="34" id="ent0020"><rect fill="#D6EAF8" height="47.7344" rx="2.5" ry="2.5" style="stroke:#404040;stroke-width:0.5;" width="179.3643" x="2223.5" y="390.6094"/><text fill="#000000" font-family="sans-serif" font-size="30" lengthAdjust="spacing" textLength="173.3643" x="2226.5" y="426.752">DerivedFrom</text></g><!--class CatalogRecord--><g class="entity" data-qualified-name="CatalogRecord" data-source-line="35" id="ent0021"><rect fill="#FEFECE" height="47.7344" rx="2.5" ry="2.5" style="stroke:#404040;stroke-width:0.5;" width="206.1123" x="1319" y="390.6094"/><text fill="#000000" font-family="sans-serif" font-size="30" lengthAdjust="spacing" textLength="200.1123" x="1322" y="426.752">CatalogRecord</text></g><!--reverse link AbstractDistribution to DataDownload--><g class="link" data-entity-1="ent0003" data-entity-2="ent0004" data-link-type="extension" data-source-line="36" id="lnk22"><path codeLine="36" d="M686.7408,456.6693 C690.9308,519.3393 701.28,674.0594 705.46,736.6094" fill="none" id="AbstractDistribution-backto-DataDownload" style="stroke:#404040;stroke-width:1.2;"/><polygon fill="none" points="685.54,438.7094,680.7541,457.0695,692.7274,456.269,685.54,438.7094" style="stroke:#404040;stroke-width:1.2;"/></g><!--reverse link AbstractDistribution to WebAPI--><g class="link" data-entity-1="ent0003" data-entity-2="ent0005" data-link-type="extension" data-source-line="37" id="lnk23"><path codeLine="37" d="M661.721,454.3099 C625.651,516.9799 535.24,674.0594 499.24,736.6094" fill="none" id="AbstractDistribution-backto-WebAPI" style="stroke:#404040;stroke-width:1.2;"/><polygon fill="none" points="670.7,438.7094,656.5208,451.317,666.9212,457.3029,670.7,438.7094" style="stroke:#404040;stroke-width:1.2;"/></g><!--reverse link Agent to Person--><g class="link" data-entity-1="ent0010" data-entity-2="ent0011" data-link-type="extension" data-source-line="38" id="lnk24"><path codeLine="38" d="M1268.6516,1147.1905 C1254.3016,1209.5205 1218.84,1363.4794 1204.39,1426.2194" fill="none" id="Agent-backto-Person" style="stroke:#404040;stroke-width:1.2;"/><polygon fill="none" points="1272.69,1129.6494,1262.8045,1145.8444,1274.4986,1148.5366,1272.69,1129.6494" style="stroke:#404040;stroke-width:1.2;"/></g><!--reverse link Agent to Organization--><g class="link" data-entity-1="ent0010" data-entity-2="ent0013" data-link-type="extension" data-source-line="39" id="lnk25"><path codeLine="39" d="M1287.4592,1147.1787 C1301.9992,1209.5087 1337.91,1363.4794 1352.54,1426.2194" fill="none" id="Agent-backto-Organization" style="stroke:#404040;stroke-width:1.2;"/><polygon fill="none" points="1283.37,1129.6494,1281.616,1148.5418,1293.3023,1145.8157,1283.37,1129.6494" style="stroke:#404040;stroke-width:1.2;"/></g><!--link Dataset to Agent--><g class="link" data-entity-1="ent0002" data-entity-2="ent0010" data-link-type="dependency" data-source-line="40" id="lnk26"><path codeLine="40" d="M1570.11,93.9194 C1591.49,121.6594 1624.85,170.2894 1638,218.6094 C1643.27,237.9594 1629.72,679.4194 1581,784.6094 C1518.46,919.6394 1380.8986,1030.6751 1316.0786,1077.9251" fill="none" id="Dataset-to-Agent" style="stroke:#404040;stroke-width:1.2;"/><polygon fill="#404040" points="1311.23,1081.4594,1320.8591,1079.3903,1315.2705,1078.5141,1316.1466,1072.9255,1311.23,1081.4594" style="stroke:#404040;stroke-width:1.2;"/><text fill="#000000" font-family="sans-serif" font-size="36" lengthAdjust="spacing" textLength="130.0605" x="1623" y="602.4805">provider</text><text fill="#000000" font-family="sans-serif" font-size="36" lengthAdjust="spacing" textLength="54.0352" x="1258.3074" y="1065.5696">0..*</text></g><!--link Dataset to Agent--><g class="link" data-entity-1="ent0002" data-entity-2="ent0010" data-link-type="dependency" data-source-line="42" id="lnk28"><path codeLine="42" d="M1571.96,93.8494 C1636.58,168.4094 1824.34,408.6194 1756,611.6094 C1694.57,794.0794 1633.42,823.8294 1494,956.6094 C1439.68,1008.3394 1370.8402,1051.8591 1325.0802,1078.3991" fill="none" id="Dataset-to-Agent-1" style="stroke:#404040;stroke-width:1.2;"/><polygon fill="#404040" points="1319.89,1081.4094,1329.6822,1080.3542,1324.2152,1078.9008,1325.6685,1073.4339,1319.89,1081.4094" style="stroke:#404040;stroke-width:1.2;"/><text fill="#000000" font-family="sans-serif" font-size="36" lengthAdjust="spacing" textLength="112.043" x="1769" y="602.4805">creator</text><text fill="#000000" font-family="sans-serif" font-size="36" lengthAdjust="spacing" textLength="54.0352" x="1328.2638" y="1068.1222">0..*</text></g><!--link Dataset to Agent--><g class="link" data-entity-1="ent0002" data-entity-2="ent0010" data-link-type="dependency" data-source-line="44" id="lnk30"><path codeLine="44" d="M1496.1,70.6094 C1389.9,73.5194 1154.44,94.5894 1014,218.6094 C889.59,328.4794 903.4,400.8194 871,563.6094 C822.93,805.1094 1120.9803,1010.5471 1232.7103,1078.3371" fill="none" id="Dataset-to-Agent-2" style="stroke:#404040;stroke-width:1.2;"/><polygon fill="#404040" points="1237.84,1081.4494,1232.2204,1073.3611,1233.5653,1078.8558,1228.0706,1080.2007,1237.84,1081.4494" style="stroke:#404040;stroke-width:1.2;"/><text fill="#000000" font-family="sans-serif" font-size="36" lengthAdjust="spacing" textLength="146.0918" x="872" y="602.4805">publisher</text><text fill="#000000" font-family="sans-serif" font-size="36" lengthAdjust="spacing" textLength="60.0469" x="1167.949" y="1067.2974">0..1</text></g><!--link Dataset to AbstractDistribution--><g class="link" data-entity-1="ent0002" data-entity-2="ent0003" data-link-type="dependency" data-source-line="41" id="lnk27"><path codeLine="41" d="M1496.24,71.1894 C1322.55,74.2794 789.18,93.9494 684,218.6094 C642.74,267.5094 660.5338,344.787 673.6538,384.877" fill="none" id="Dataset-to-AbstractDistribution" style="stroke:#404040;stroke-width:1.2;"/><polygon fill="#404040" points="675.52,390.5794,676.5223,380.7817,673.9648,385.8274,668.9191,383.2699,675.52,390.5794" style="stroke:#404040;stroke-width:1.2;"/><text fill="#000000" font-family="sans-serif" font-size="36" lengthAdjust="spacing" textLength="174.0938" x="685" y="256.9805">distribution</text><text fill="#000000" font-family="sans-serif" font-size="36" lengthAdjust="spacing" textLength="54.0352" x="615.1946" y="374.711">0..*</text></g><!--link Dataset to Contributor--><g class="link" data-entity-1="ent0002" data-entity-2="ent0014" data-link-type="dependency" data-source-line="43" id="lnk29"><path codeLine="43" d="M1496.41,78.1794 C1376.5,96.0294 1096.37,144.8894 1041,218.6094 C960.15,326.2494 1049.9431,496.0486 1088.0531,558.4586" fill="none" id="Dataset-to-Contributor" style="stroke:#404040;stroke-width:1.2;"/><polygon fill="#404040" points="1091.18,563.5794,1089.9034,553.8136,1088.5742,559.3121,1083.0757,557.9829,1091.18,563.5794" style="stroke:#404040;stroke-width:1.2;"/><text fill="#000000" font-family="sans-serif" font-size="36" lengthAdjust="spacing" textLength="170.0859" x="1042" y="256.9805">contributor</text><text fill="#000000" font-family="sans-serif" font-size="36" lengthAdjust="spacing" textLength="54.0352" x="1029.698" y="547.711">0..*</text></g><!--link Dataset to MonetaryGrant--><g class="link" data-entity-1="ent0002" data-entity-2="ent0018" data-link-type="dependency" data-source-line="45" id="lnk31"><path codeLine="45" d="M1496.24,78.5094 C1422.76,92.3794 1294.92,128.7294 1238,218.6094 C1166.68,331.2194 1242.0859,496.3056 1274.9959,557.9956" fill="none" id="Dataset-to-MonetaryGrant" style="stroke:#404040;stroke-width:1.2;"/><polygon fill="#404040" points="1277.82,563.2894,1277.113,553.4659,1275.4666,558.8779,1270.0546,557.2314,1277.82,563.2894" style="stroke:#404040;stroke-width:1.2;"/><text fill="#000000" font-family="sans-serif" font-size="36" lengthAdjust="spacing" textLength="118.1074" x="1239" y="256.9805">funding</text><text fill="#000000" font-family="sans-serif" font-size="36" lengthAdjust="spacing" textLength="54.0352" x="1216.91" y="547.6603">0..*</text></g><!--link Dataset to ProvActivity--><g class="link" data-entity-1="ent0002" data-entity-2="ent0019" data-link-type="dependency" data-source-line="46" id="lnk32"><path codeLine="46" d="M1605.81,81.0294 C1682.86,98.0694 1824.02,138.3694 1916,218.6094 C1971.6,267.1194 2004.1421,344.6353 2018.4221,384.8453" fill="none" id="Dataset-to-ProvActivity" style="stroke:#404040;stroke-width:1.2;"/><polygon fill="#404040" points="2020.43,390.4994,2021.1874,380.6797,2018.7567,385.7877,2013.6487,383.357,2020.43,390.4994" style="stroke:#404040;stroke-width:1.2;"/><text fill="#000000" font-family="sans-serif" font-size="36" lengthAdjust="spacing" textLength="276.1523" x="1958" y="256.9805">wasGeneratedBy</text><text fill="#000000" font-family="sans-serif" font-size="36" lengthAdjust="spacing" textLength="54.0352" x="1960.3026" y="374.6168">0..*</text></g><!--link Dataset to DerivedFrom--><g class="link" data-entity-1="ent0002" data-entity-2="ent0020" data-link-type="dependency" data-source-line="47" id="lnk33"><path codeLine="47" d="M1605.74,75.6294 C1751.4,89.9994 2143.97,135.7194 2240,218.6094 C2291.99,263.4894 2306.3986,343.1916 2310.6886,384.3916" fill="none" id="Dataset-to-DerivedFrom" style="stroke:#404040;stroke-width:1.2;"/><polygon fill="#404040" points="2311.31,390.3594,2314.3564,380.9935,2310.7922,385.3863,2306.3994,381.822,2311.31,390.3594" style="stroke:#404040;stroke-width:1.2;"/><text fill="#000000" font-family="sans-serif" font-size="36" lengthAdjust="spacing" textLength="272.0566" x="2275" y="256.9805">wasDerivedFrom</text><text fill="#000000" font-family="sans-serif" font-size="36" lengthAdjust="spacing" textLength="54.0352" x="2252.3506" y="374.7423">0..*</text></g><!--link Dataset to CatalogRecord--><g class="link" data-entity-1="ent0002" data-entity-2="ent0021" data-link-type="dependency" data-source-line="48" id="lnk34"><path codeLine="48" d="M1504.32,93.7294 C1460.96,118.0994 1399.13,160.9694 1372,218.6094 C1344.46,277.1094 1379.6661,347.7976 1403.0661,385.3376" fill="none" id="Dataset-to-CatalogRecord" style="stroke:#404040;stroke-width:1.2;"/><polygon fill="#404040" points="1406.24,390.4294,1404.8737,380.6758,1403.5951,386.1862,1398.0846,384.9076,1406.24,390.4294" style="stroke:#404040;stroke-width:1.2;"/><text fill="#000000" font-family="sans-serif" font-size="36" lengthAdjust="spacing" textLength="152.0684" x="1373" y="256.9805">subjectOf</text><text fill="#000000" font-family="sans-serif" font-size="36" lengthAdjust="spacing" textLength="20.0215" x="1381.8047" y="374.8243">1</text></g><!--link CatalogRecord to Dataset--><g class="link" data-entity-1="ent0021" data-entity-2="ent0002" data-link-type="dependency" data-source-line="57" id="lnk43"><path codeLine="57" d="M1444.35,390.1694 C1469.1,362.6994 1507.99,314.6694 1527,265.6094 C1549.8,206.7694 1552.2489,137.139 1551.8189,99.709" fill="none" id="CatalogRecord-to-Dataset" style="stroke:#404040;stroke-width:1.2;"/><polygon fill="#404040" points="1551.75,93.7094,1547.8537,102.7547,1551.8074,98.709,1555.8531,102.6628,1551.75,93.7094" style="stroke:#404040;stroke-width:1.2;"/><text fill="#000000" font-family="sans-serif" font-size="36" lengthAdjust="spacing" textLength="90.0879" x="1542" y="256.9805">about</text><text fill="#000000" font-family="sans-serif" font-size="36" lengthAdjust="spacing" textLength="60.0469" x="1486.8772" y="138.8439">0..1</text></g><!--link Dataset to Reference--><g class="link" data-entity-1="ent0002" data-entity-2="ent0017" data-link-type="dependency" data-source-line="49" id="lnk35"><path codeLine="49" d="M1599.25,93.6294 C1647.24,118.6194 1720.28,162.5694 1767,218.6094 C1811.39,271.8594 1835.7525,345.576 1846.5225,384.566" fill="none" id="Dataset-to-Reference" style="stroke:#404040;stroke-width:1.2;"/><polygon fill="#404040" points="1848.12,390.3494,1849.5793,380.6092,1846.7887,385.5299,1841.8681,382.7393,1848.12,390.3494" style="stroke:#404040;stroke-width:1.2;"/><text fill="#000000" font-family="sans-serif" font-size="36" lengthAdjust="spacing" textLength="112.0605" x="1798" y="256.9805">license</text><text fill="#000000" font-family="sans-serif" font-size="36" lengthAdjust="spacing" textLength="54.0352" x="1788.4363" y="374.7306">0..*</text></g><!--link DataDownload to Agent--><g class="link" data-entity-1="ent0004" data-entity-2="ent0010" data-link-type="dependency" data-source-line="50" id="lnk36"><path codeLine="50" d="M706.34,784.8994 C705.53,830.9294 706.37,931.3194 728,956.6094 C795.17,1035.1294 1113.3011,1083.3081 1230.0311,1098.6381" fill="none" id="DataDownload-to-Agent" style="stroke:#404040;stroke-width:1.2;"/><polygon fill="#404040" points="1235.98,1099.4194,1227.5775,1094.2815,1231.0226,1098.7683,1226.5358,1102.2134,1235.98,1099.4194" style="stroke:#404040;stroke-width:1.2;"/><text fill="#000000" font-family="sans-serif" font-size="36" lengthAdjust="spacing" textLength="130.0605" x="729" y="947.9805">provider</text><text fill="#000000" font-family="sans-serif" font-size="36" lengthAdjust="spacing" textLength="54.0352" x="1173.9786" y="1138.7079">0..*</text></g><!--link WebAPI to Action--><g class="link" data-entity-1="ent0005" data-entity-2="ent0006" data-link-type="dependency" data-source-line="51" id="lnk37"><path codeLine="51" d="M481.67,784.8294 C476.49,813.8794 468.13,865.2094 465,909.6094 C460.63,971.5794 462.2855,1038.904 463.7155,1075.464" fill="none" id="WebAPI-to-Action" style="stroke:#404040;stroke-width:1.2;"/><polygon fill="#404040" points="463.95,1081.4594,467.5952,1072.3099,463.7546,1076.4632,459.6013,1072.6226,463.95,1081.4594" style="stroke:#404040;stroke-width:1.2;"/><text fill="#000000" font-family="sans-serif" font-size="36" lengthAdjust="spacing" textLength="236.1621" x="466" y="947.9805">potentialAction</text><text fill="#000000" font-family="sans-serif" font-size="36" lengthAdjust="spacing" textLength="54.0352" x="404.923" y="1065.5696">0..*</text></g><!--link Action to EntryPoint--><g class="link" data-entity-1="ent0006" data-entity-2="ent0007" data-link-type="dependency" data-source-line="52" id="lnk38"><path codeLine="52" d="M465,1129.6494 C465,1191.9794 465,1357.4794 465,1420.2194" fill="none" id="Action-to-EntryPoint" style="stroke:#404040;stroke-width:1.2;"/><polygon fill="#404040" points="465,1426.2194,469,1417.2194,465,1421.2194,461,1417.2194,465,1426.2194" style="stroke:#404040;stroke-width:1.2;"/><text fill="#000000" font-family="sans-serif" font-size="36" lengthAdjust="spacing" textLength="92.0566" x="466" y="1292.9805">target</text><text fill="#000000" font-family="sans-serif" font-size="36" lengthAdjust="spacing" textLength="20.0215" x="443.2489" y="1410.5782">1</text></g><!--link Action to ActionResult--><g class="link" data-entity-1="ent0006" data-entity-2="ent0008" data-link-type="dependency" data-source-line="53" id="lnk39"><path codeLine="53" d="M482.65,1129.7894 C503.74,1158.1794 539.29,1208.2294 564,1254.6094 C595.74,1314.1994 621.3147,1383.5104 634.2247,1420.7504" fill="none" id="Action-to-ActionResult" style="stroke:#404040;stroke-width:1.2;"/><polygon fill="#404040" points="636.19,1426.4194,637.0214,1416.6057,634.5523,1421.6952,629.4627,1419.226,636.19,1426.4194" style="stroke:#404040;stroke-width:1.2;"/><text fill="#000000" font-family="sans-serif" font-size="36" lengthAdjust="spacing" textLength="88.0313" x="588" y="1292.9805">result</text><text fill="#000000" font-family="sans-serif" font-size="36" lengthAdjust="spacing" textLength="60.0469" x="569.6599" y="1410.8126">0..1</text></g><!--link Action to PropertyValueSpecification--><g class="link" data-entity-1="ent0006" data-entity-2="ent0009" data-link-type="dependency" data-source-line="54" id="lnk40"><path codeLine="54" d="M429.36,1129.7794 C390.71,1156.2994 329.04,1202.8094 288,1254.6094 C244.12,1309.9994 214.2326,1382.5487 200.1126,1420.9087" fill="none" id="Action-to-PropertyValueSpecification" style="stroke:#404040;stroke-width:1.2;"/><polygon fill="#404040" points="198.04,1426.5394,204.9027,1419.4751,199.7672,1421.8472,197.3951,1416.7117,198.04,1426.5394" style="stroke:#404040;stroke-width:1.2;"/><text fill="#000000" font-family="sans-serif" font-size="36" lengthAdjust="spacing" textLength="170.1211" x="289" y="1292.9805">queryInput</text><text fill="#000000" font-family="sans-serif" font-size="36" lengthAdjust="spacing" textLength="54.0352" x="140.6476" y="1410.6639">0..*</text></g><!--link Contributor to Agent--><g class="link" data-entity-1="ent0014" data-entity-2="ent0010" data-link-type="dependency" data-source-line="55" id="lnk41"><path codeLine="55" d="M1103.1,611.7094 C1099.18,648.8394 1094.35,723.7994 1110,784.6094 C1140.97,904.9294 1221.0407,1025.6683 1257.3207,1076.4183" fill="none" id="Contributor-to-Agent" style="stroke:#404040;stroke-width:1.2;"/><polygon fill="#404040" points="1260.81,1081.2994,1258.83,1071.6516,1257.9022,1077.2318,1252.322,1076.304,1260.81,1081.2994" style="stroke:#404040;stroke-width:1.2;"/><text fill="#000000" font-family="sans-serif" font-size="36" lengthAdjust="spacing" textLength="170.0859" x="1111" y="775.4805">contributor</text><text fill="#000000" font-family="sans-serif" font-size="36" lengthAdjust="spacing" textLength="60.0469" x="1168.246" y="1117.6141">0..1</text></g><!--link MonetaryGrant to Agent--><g class="link" data-entity-1="ent0018" data-entity-2="ent0010" data-link-type="dependency" data-source-line="56" id="lnk42"><path codeLine="56" d="M1290.42,611.7794 C1288.26,697.4794 1280.8914,989.9113 1278.7314,1075.5013" fill="none" id="MonetaryGrant-to-Agent" style="stroke:#404040;stroke-width:1.2;"/><polygon fill="#404040" points="1278.58,1081.4994,1282.8058,1072.6032,1278.7061,1076.501,1274.8083,1072.4013,1278.58,1081.4994" style="stroke:#404040;stroke-width:1.2;"/><text fill="#000000" font-family="sans-serif" font-size="36" lengthAdjust="spacing" textLength="102.0762" x="1289" y="775.4805">funder</text><text fill="#000000" font-family="sans-serif" font-size="36" lengthAdjust="spacing" textLength="54.0352" x="1219.8416" y="1065.6168">0..*</text></g><!--link CatalogRecord to Agent--><g class="link" data-entity-1="ent0021" data-entity-2="ent0010" data-link-type="dependency" data-source-line="58" id="lnk44"><path codeLine="58" d="M1422.72,438.8194 C1424.06,497.4894 1424.61,656.2394 1397,784.6094 C1372.2,899.9294 1316.6258,1023.9104 1291.9558,1075.8104" fill="none" id="CatalogRecord-to-Agent" style="stroke:#404040;stroke-width:1.2;"/><polygon fill="#404040" points="1289.38,1081.2294,1296.8564,1074.8182,1291.5265,1076.7136,1289.6311,1071.3837,1289.38,1081.2294" style="stroke:#404040;stroke-width:1.2;"/><text fill="#000000" font-family="sans-serif" font-size="36" lengthAdjust="spacing" textLength="168.082" x="1407" y="775.4805">maintainer</text><text fill="#000000" font-family="sans-serif" font-size="36" lengthAdjust="spacing" textLength="60.0469" x="1327.4939" y="1117.1144">0..1</text></g><?plantuml-src VLNRRjim37ttLn39su0KQRiLWp4CI9suoCFGe1ssPrbc4gsEv55oWdGRi8_e5-vBfbY-o8vR1074eoEIuY5b8qo64CsNSQG8uT_V5r1xfBt0Gx0LAG8Nn3DqQzpbvWWxt2L8Ej1FGkQCs0xqbgNg8EG6rYpJwEtCYDJXwrRm9ubQm-N5bRT9J3vfpE7gmzH3fKgnH7qmnJKhCXChQHx5CyBrZRV9CsPz_mh0XOjKfWZ6xwUddmLl5QL8VTHtPGyQGo8f3BRmDFWJ1CxrQCuCqsX6m3HKQnZ7YtWHBGAMQ4ECcogDqQoovq8xdqB9yk3G1epdDujP_D4FD5S7cIcMDj5ge0bPaRzZCbijIvfRMa8KNqTnJPZnDZWV2hUGXeuh9QIxMclsYUxu0sehWkVF0VsmAr8vaZb-Orc1ZpboiHQSDQcyljr4FQlf1giKorK_kvLjnzfvkUmJ8gkgTTVUr0Vwv7lQC2cUsuHzOCXpAQQYnd5bzwdBrAPkxugEsPfdnKvJSOh5ihfKxkfdSF_W0wwHK78i-OtLftrH4WsZuvqTG5UE3d9MNLBxaznxKINY0_sUd2E9FQOngPthtzO-AvrjxKnj7f3R0NN5yv76y-3SVFezcNI6umsQ6ux0jKw9k2xn4L_Ze1xnoUGpZAON5-z6LT-5aDkxswUG1Zb36OIGUkPRhZaXisqpHF6xoX9RwunywQLQ99dGs-5Skug7i2vaQX_m8Mf7xX0EJD-XH686qzlZq05VyvBl0Ls-pRQhUGYwI7uWD_Vh8SzjIuUG2OxIVcmwB-HRYbLlf4_XbKIvCgTXP9b3WcgZpj5x5qEmLTkWwL2gkljFOWXKBleyLy_NthyGVXP8nwNC2nFueW_8wtT1Lys18fpajINe5jjpMjSw19QeK-pNYBN37RFLi7_hz3y0?></g></svg>