<svg xmlns="http://www.w3.org/2000/svg" xmlns:xlink="http://www.w3.org/1999/xlink" contentStyleType="text/css" data-diagram-type="CLASS" height="1512px" preserveAspectRatio="none" style="width:2718px;height:1512px;background:#FFFFFF;" version="1.1" viewBox="0 0 2718 1512" width="2718px" zoomAndPan="magnify"><?plantuml 1.2026.3?><defs/><g><g class="title" data-source-line="1"><text fill="#000000" font-family="sans-serif" font-size="14" font-weight="700" lengthAdjust="spacing" textLength="146.6992" x="1282.4443" y="24.5332">CDIFCore &#8212; overview</text></g><!--class Dataset--><g class="entity" data-qualified-name="Dataset" data-source-line="16" id="ent0002"><rect fill="#FEFECE" height="47.7344" rx="2.5" ry="2.5" style="stroke:#404040;stroke-width:0.5;" width="109.3887" x="1412" y="69.8247"/><text fill="#000000" font-family="sans-serif" font-size="30" lengthAdjust="spacing" textLength="103.3887" x="1415" y="105.9673">Dataset</text></g><!--class AbstractDistribution--><g class="entity" data-qualified-name="AbstractDistribution" data-source-line="17" id="ent0003"><rect fill="#D6EAF8" height="47.7344" rx="2.5" ry="2.5" style="stroke:#404040;stroke-width:0.5;" width="266.0977" x="572.5" y="414.8247"/><text fill="#000000" font-family="sans-serif" font-size="30" font-style="italic" lengthAdjust="spacing" textLength="260.0977" x="575.5" y="450.9673">AbstractDistribution</text></g><!--class DataDownload--><g class="entity" data-qualified-name="DataDownload" data-source-line="18" id="ent0004"><rect fill="#FEFECE" height="47.7344" rx="2.5" ry="2.5" style="stroke:#404040;stroke-width:0.5;" width="202.7871" x="627" y="760.8247"/><text fill="#000000" font-family="sans-serif" font-size="30" lengthAdjust="spacing" textLength="196.7871" x="630" y="796.9673">DataDownload</text></g><!--class WebAPI--><g class="entity" data-qualified-name="WebAPI" data-source-line="19" id="ent0005"><rect fill="#FCF3CF" height="47.7344" rx="2.5" ry="2.5" style="stroke:#404040;stroke-width:0.5;" width="116.0391" x="449.5" y="760.8247"/><text fill="#000000" font-family="sans-serif" font-size="30" lengthAdjust="spacing" textLength="110.0391" x="452.5" y="796.9673">WebAPI</text></g><!--class Action--><g class="entity" data-qualified-name="Action" data-source-line="20" id="ent0006"><rect fill="#D6EAF8" height="47.7344" rx="2.5" ry="2.5" style="stroke:#404040;stroke-width:0.5;" width="89.3789" x="442" y="1105.8247"/><text fill="#000000" font-family="sans-serif" font-size="30" lengthAdjust="spacing" textLength="83.3789" x="445" y="1141.9673">Action</text></g><!--class EntryPoint--><g class="entity" data-qualified-name="EntryPoint" data-source-line="21" id="ent0007"><rect fill="#D6EAF8" height="47.7344" rx="2.5" ry="2.5" style="stroke:#404040;stroke-width:0.5;" width="144.3984" x="235.5" y="1450.8247"/><text fill="#000000" font-family="sans-serif" font-size="30" lengthAdjust="spacing" textLength="138.3984" x="238.5" y="1486.9673">EntryPoint</text></g><!--class ActionResult--><g class="entity" data-qualified-name="ActionResult" data-source-line="22" id="ent0008"><rect fill="#FCF3CF" height="47.7344" rx="2.5" ry="2.5" style="stroke:#404040;stroke-width:0.5;" width="174.4131" x="399.5" y="1450.8247"/><text fill="#000000" font-family="sans-serif" font-size="30" lengthAdjust="spacing" textLength="168.4131" x="402.5" y="1486.9673">ActionResult</text></g><!--class PropertyValueSpecification--><g class="entity" data-qualified-name="PropertyValueSpecification" data-source-line="23" id="ent0009"><rect fill="#D6EAF8" height="47.7344" rx="2.5" ry="2.5" style="stroke:#404040;stroke-width:0.5;" width="366.2051" x="593.5" y="1450.8247"/><text fill="#000000" font-family="sans-serif" font-size="30" lengthAdjust="spacing" textLength="360.2051" x="596.5" y="1486.9673">PropertyValueSpecification</text></g><!--class Agent--><g class="entity" data-qualified-name="Agent" data-source-line="24" id="ent0010"><rect fill="#D6EAF8" height="47.7344" rx="2.5" ry="2.5" style="stroke:#404040;stroke-width:0.5;" width="84.3984" x="1151.5" y="1105.8247"/><text fill="#000000" font-family="sans-serif" font-size="30" font-style="italic" lengthAdjust="spacing" textLength="78.3984" x="1154.5" y="1141.9673">Agent</text></g><!--class Person--><g class="entity" data-qualified-name="Person" data-source-line="25" id="ent0011"><rect fill="#D6EAF8" height="47.7344" rx="2.5" ry="2.5" style="stroke:#404040;stroke-width:0.5;" width="101.0537" x="1239" y="1450.8247"/><text fill="#000000" font-family="sans-serif" font-size="30" lengthAdjust="spacing" textLength="95.0537" x="1242" y="1486.9673">Person</text></g><!--class ContactPoint--><g class="entity" data-qualified-name="ContactPoint" data-source-line="26" id="ent0012"><rect fill="#D6EAF8" height="47.7344" rx="2.5" ry="2.5" style="stroke:#404040;stroke-width:0.5;" width="177.7676" x="43.5" y="69.8247"/><text fill="#000000" font-family="sans-serif" font-size="30" lengthAdjust="spacing" textLength="171.7676" x="46.5" y="105.9673">ContactPoint</text></g><!--class Organization--><g class="entity" data-qualified-name="Organization" data-source-line="27" id="ent0013"><rect fill="#D6EAF8" height="47.7344" rx="2.5" ry="2.5" style="stroke:#404040;stroke-width:0.5;" width="176.0977" x="1042.5" y="1450.8247"/><text fill="#000000" font-family="sans-serif" font-size="30" lengthAdjust="spacing" textLength="170.0977" x="1045.5" y="1486.9673">Organization</text></g><!--class Contributor--><g class="entity" data-qualified-name="Contributor" data-source-line="28" id="ent0014"><rect fill="#D6EAF8" height="47.7344" rx="2.5" ry="2.5" style="stroke:#404040;stroke-width:0.5;" width="154.4033" x="1346.5" y="587.8247"/><text fill="#000000" font-family="sans-serif" font-size="30" lengthAdjust="spacing" textLength="148.4033" x="1349.5" y="623.9673">Contributor</text></g><!--class DefinedTerm--><g class="entity" data-qualified-name="DefinedTerm" data-source-line="29" id="ent0015"><rect fill="#FEFECE" height="47.7344" rx="2.5" ry="2.5" style="stroke:#404040;stroke-width:0.5;" width="179.3936" x="1287" y="414.8247"/><text fill="#000000" font-family="sans-serif" font-size="30" lengthAdjust="spacing" textLength="173.3936" x="1290" y="450.9673">DefinedTerm</text></g><!--class Identifier--><g class="entity" data-qualified-name="Identifier" data-source-line="30" id="ent0016"><rect fill="#D6EAF8" height="47.7344" rx="2.5" ry="2.5" style="stroke:#404040;stroke-width:0.5;" width="121.0635" x="242" y="69.8247"/><text fill="#000000" font-family="sans-serif" font-size="30" lengthAdjust="spacing" textLength="115.0635" x="245" y="105.9673">Identifier</text></g><!--class AdditionalProperty--><g class="entity" data-qualified-name="AdditionalProperty" data-source-line="31" id="ent0017"><rect fill="#D6EAF8" height="47.7344" rx="2.5" ry="2.5" style="stroke:#404040;stroke-width:0.5;" width="251.1416" x="7" y="414.8247"/><text fill="#000000" font-family="sans-serif" font-size="30" lengthAdjust="spacing" textLength="245.1416" x="10" y="450.9673">AdditionalProperty</text></g><!--class Reference--><g class="entity" data-qualified-name="Reference" data-source-line="32" id="ent0018"><rect fill="#D6EAF8" height="47.7344" rx="2.5" ry="2.5" style="stroke:#404040;stroke-width:0.5;" width="144.4131" x="1486.5" y="414.8247"/><text fill="#000000" font-family="sans-serif" font-size="30" lengthAdjust="spacing" textLength="138.4131" x="1489.5" y="450.9673">Reference</text></g><!--class MonetaryGrant--><g class="entity" data-qualified-name="MonetaryGrant" data-source-line="33" id="ent0019"><rect fill="#D6EAF8" height="47.7344" rx="2.5" ry="2.5" style="stroke:#404040;stroke-width:0.5;" width="206.083" x="1524.5" y="587.8247"/><text fill="#000000" font-family="sans-serif" font-size="30" lengthAdjust="spacing" textLength="200.083" x="1527.5" y="623.9673">MonetaryGrant</text></g><!--class ProvActivity--><g class="entity" data-qualified-name="ProvActivity" data-source-line="34" id="ent0020"><rect fill="#FEFECE" height="47.7344" rx="2.5" ry="2.5" style="stroke:#404040;stroke-width:0.5;" width="162.6943" x="1759" y="414.8247"/><text fill="#000000" font-family="sans-serif" font-size="30" lengthAdjust="spacing" textLength="156.6943" x="1762" y="450.9673">ProvActivity</text></g><!--class DerivedFrom--><g class="entity" data-qualified-name="DerivedFrom" data-source-line="35" id="ent0021"><rect fill="#D6EAF8" height="47.7344" rx="2.5" ry="2.5" style="stroke:#404040;stroke-width:0.5;" width="179.3643" x="2054" y="414.8247"/><text fill="#000000" font-family="sans-serif" font-size="30" lengthAdjust="spacing" textLength="173.3643" x="2057" y="450.9673">DerivedFrom</text></g><!--class CatalogRecord--><g class="entity" data-qualified-name="CatalogRecord" data-source-line="36" id="ent0022"><rect fill="#FEFECE" height="47.7344" rx="2.5" ry="2.5" style="stroke:#404040;stroke-width:0.5;" width="206.1123" x="2339.5" y="414.8247"/><text fill="#000000" font-family="sans-serif" font-size="30" lengthAdjust="spacing" textLength="200.1123" x="2342.5" y="450.9673">CatalogRecord</text></g><!--class CdifConceptOrTerm--><g class="entity" data-qualified-name="CdifConceptOrTerm" data-source-line="37" id="ent0023"><rect fill="#FAE5D3" height="47.7344" rx="2.5" ry="2.5" style="stroke:#404040;stroke-width:0.5;" width="274.4033" x="278.5" y="414.8247"/><text fill="#000000" font-family="sans-serif" font-size="30" lengthAdjust="spacing" textLength="268.4033" x="281.5" y="450.9673">CdifConceptOrTerm</text></g><!--reverse link AbstractDistribution to DataDownload--><g class="link" data-entity-1="ent0003" data-entity-2="ent0004" data-link-type="extension" data-source-line="38" id="lnk24"><path codeLine="38" d="M708.2408,480.8846 C712.4308,543.5546 722.78,698.2747 726.96,760.8247" fill="none" id="AbstractDistribution-backto-DataDownload" style="stroke:#404040;stroke-width:1.2;"/><polygon fill="none" points="707.04,462.9247,702.2541,481.2849,714.2274,480.4843,707.04,462.9247" style="stroke:#404040;stroke-width:1.2;"/></g><!--reverse link AbstractDistribution to WebAPI--><g class="link" data-entity-1="ent0003" data-entity-2="ent0005" data-link-type="extension" data-source-line="39" id="lnk25"><path codeLine="39" d="M683.221,478.5253 C647.151,541.1953 556.74,698.2747 520.74,760.8247" fill="none" id="AbstractDistribution-backto-WebAPI" style="stroke:#404040;stroke-width:1.2;"/><polygon fill="none" points="692.2,462.9247,678.0208,475.5323,688.4212,481.5183,692.2,462.9247" style="stroke:#404040;stroke-width:1.2;"/></g><!--reverse link Agent to Person--><g class="link" data-entity-1="ent0010" data-entity-2="ent0011" data-link-type="extension" data-source-line="40" id="lnk26"><path codeLine="40" d="M1204.8001,1171.1989 C1222.2401,1233.5289 1265.39,1387.6947 1282.95,1450.4347" fill="none" id="Agent-backto-Person" style="stroke:#404040;stroke-width:1.2;"/><polygon fill="none" points="1199.95,1153.8647,1199.0221,1172.8157,1210.5782,1169.5822,1199.95,1153.8647" style="stroke:#404040;stroke-width:1.2;"/></g><!--reverse link Agent to Organization--><g class="link" data-entity-1="ent0010" data-entity-2="ent0013" data-link-type="extension" data-source-line="41" id="lnk27"><path codeLine="41" d="M1186.0178,1171.5685 C1174.5678,1233.8985 1146.32,1387.6947 1134.8,1450.4347" fill="none" id="Agent-backto-Organization" style="stroke:#404040;stroke-width:1.2;"/><polygon fill="none" points="1189.27,1153.8647,1180.1166,1170.4844,1191.9191,1172.6525,1189.27,1153.8647" style="stroke:#404040;stroke-width:1.2;"/></g><!--link Dataset to Agent--><g class="link" data-entity-1="ent0002" data-entity-2="ent0010" data-link-type="dependency" data-source-line="42" id="lnk28"><path codeLine="42" d="M1411.82,99.4247 C1322.52,109.7247 1144.71,142.3047 1038.5,242.8247 C918.19,356.6847 929.43,425.2847 897.5,587.8247 C866.25,746.8847 991.94,912.5047 1038.5,980.8247 C1073.28,1031.8647 1123.4036,1075.2386 1157.6736,1102.0386" fill="none" id="Dataset-to-Agent" style="stroke:#404040;stroke-width:1.2;"/><polygon fill="#404040" points="1162.4,1105.7347,1157.7745,1097.0396,1158.4614,1102.6546,1152.8464,1103.3414,1162.4,1105.7347" style="stroke:#404040;stroke-width:1.2;"/><text fill="#000000" font-family="sans-serif" font-size="36" lengthAdjust="spacing" textLength="130.0605" x="898.5" y="626.6958">provider</text><text fill="#000000" font-family="sans-serif" font-size="36" lengthAdjust="spacing" textLength="54.0352" x="1098.0186" y="1089.8556">0..*</text></g><!--link Dataset to Agent--><g class="link" data-entity-1="ent0002" data-entity-2="ent0010" data-link-type="dependency" data-source-line="44" id="lnk30"><path codeLine="44" d="M1411.89,103.0147 C1336.23,117.3447 1200.71,154.3747 1128.5,242.8247 C908.54,512.2347 1123.8551,989.099 1178.9251,1100.189" fill="none" id="Dataset-to-Agent-1" style="stroke:#404040;stroke-width:1.2;"/><polygon fill="#404040" points="1181.59,1105.5647,1181.1765,1095.7245,1179.3693,1101.0849,1174.0089,1099.2777,1181.59,1105.5647" style="stroke:#404040;stroke-width:1.2;"/><text fill="#000000" font-family="sans-serif" font-size="36" lengthAdjust="spacing" textLength="112.043" x="1037.5" y="626.6958">creator</text><text fill="#000000" font-family="sans-serif" font-size="36" lengthAdjust="spacing" textLength="54.0352" x="1184.1524" y="1089.9459">0..*</text></g><!--link Dataset to Agent--><g class="link" data-entity-1="ent0002" data-entity-2="ent0010" data-link-type="dependency" data-source-line="46" id="lnk32"><path codeLine="46" d="M1411.81,104.4047 C1342,119.8847 1224.01,157.7347 1171.5,242.8247 C1125.04,318.1147 1179.2955,967.3077 1190.9055,1099.6177" fill="none" id="Dataset-to-Agent-2" style="stroke:#404040;stroke-width:1.2;"/><polygon fill="#404040" points="1191.43,1105.5947,1194.628,1096.2795,1190.9929,1100.6138,1186.6586,1096.9788,1191.43,1105.5947" style="stroke:#404040;stroke-width:1.2;"/><text fill="#000000" font-family="sans-serif" font-size="36" lengthAdjust="spacing" textLength="146.0918" x="1160.5" y="626.6958">publisher</text><text fill="#000000" font-family="sans-serif" font-size="36" lengthAdjust="spacing" textLength="60.0469" x="1125.8878" y="1089.9811">0..1</text></g><!--link Dataset to AbstractDistribution--><g class="link" data-entity-1="ent0002" data-entity-2="ent0003" data-link-type="dependency" data-source-line="43" id="lnk29"><path codeLine="43" d="M1411.75,96.8147 C1252.6,103.8647 795.65,133.4447 705.5,242.8247 C664.91,292.0647 682.257,368.8048 695.187,408.8648" fill="none" id="Dataset-to-AbstractDistribution" style="stroke:#404040;stroke-width:1.2;"/><polygon fill="#404040" points="697.03,414.5747,698.0722,404.7811,695.4942,409.8164,690.4589,407.2384,697.03,414.5747" style="stroke:#404040;stroke-width:1.2;"/><text fill="#000000" font-family="sans-serif" font-size="36" lengthAdjust="spacing" textLength="174.0938" x="706.5" y="281.1958">distribution</text><text fill="#000000" font-family="sans-serif" font-size="36" lengthAdjust="spacing" textLength="54.0352" x="636.9282" y="398.9576">0..*</text></g><!--link Dataset to Contributor--><g class="link" data-entity-1="ent0002" data-entity-2="ent0014" data-link-type="dependency" data-source-line="45" id="lnk31"><path codeLine="45" d="M1411.89,106.6047 C1346.51,123.9447 1239.93,163.3047 1192.5,242.8247 C1113.68,374.9847 1302.2635,526.7413 1384.1135,584.3513" fill="none" id="Dataset-to-Contributor" style="stroke:#404040;stroke-width:1.2;"/><polygon fill="#404040" points="1389.02,587.8047,1383.9625,579.3535,1384.9312,584.9268,1379.358,585.8955,1389.02,587.8047" style="stroke:#404040;stroke-width:1.2;"/><text fill="#000000" font-family="sans-serif" font-size="36" lengthAdjust="spacing" textLength="170.0859" x="1193.5" y="281.1958">contributor</text><text fill="#000000" font-family="sans-serif" font-size="36" lengthAdjust="spacing" textLength="54.0352" x="1324.0361" y="571.9381">0..*</text></g><!--link Dataset to MonetaryGrant--><g class="link" data-entity-1="ent0002" data-entity-2="ent0019" data-link-type="dependency" data-source-line="47" id="lnk33"><path codeLine="47" d="M1519.48,117.9747 C1566.48,141.7447 1632.11,183.6247 1661.5,242.8247 C1720.27,361.2147 1664.7216,521.8054 1639.8916,582.1954" fill="none" id="Dataset-to-MonetaryGrant" style="stroke:#404040;stroke-width:1.2;"/><polygon fill="#404040" points="1637.61,587.7447,1644.7319,580.9419,1639.5114,583.1203,1637.333,577.8997,1637.61,587.7447" style="stroke:#404040;stroke-width:1.2;"/><text fill="#000000" font-family="sans-serif" font-size="36" lengthAdjust="spacing" textLength="118.1074" x="1679.5" y="281.1958">funding</text><text fill="#000000" font-family="sans-serif" font-size="36" lengthAdjust="spacing" textLength="54.0352" x="1580.5972" y="571.8674">0..*</text></g><!--link Dataset to ProvActivity--><g class="link" data-entity-1="ent0002" data-entity-2="ent0020" data-link-type="dependency" data-source-line="48" id="lnk34"><path codeLine="48" d="M1521.15,101.0547 C1600.18,113.1847 1744.76,147.7847 1816.5,242.8247 C1855.13,294.0047 1850.7926,369.2314 1845.3226,408.7514" fill="none" id="Dataset-to-ProvActivity" style="stroke:#404040;stroke-width:1.2;"/><polygon fill="#404040" points="1844.5,414.6947,1849.6962,406.3281,1845.1855,409.7419,1841.7717,405.2313,1844.5,414.6947" style="stroke:#404040;stroke-width:1.2;"/><text fill="#000000" font-family="sans-serif" font-size="36" lengthAdjust="spacing" textLength="276.1523" x="1839.5" y="281.1958">wasGeneratedBy</text><text fill="#000000" font-family="sans-serif" font-size="36" lengthAdjust="spacing" textLength="54.0352" x="1786.4335" y="398.8085">0..*</text></g><!--link Dataset to DerivedFrom--><g class="link" data-entity-1="ent0002" data-entity-2="ent0021" data-link-type="dependency" data-source-line="49" id="lnk35"><path codeLine="49" d="M1521.01,99.2747 C1663.03,112.0447 2038.95,153.7547 2119.5,242.8247 C2141.92,267.6147 2144.1087,362.7548 2143.8887,408.7948" fill="none" id="Dataset-to-DerivedFrom" style="stroke:#404040;stroke-width:1.2;"/><polygon fill="#404040" points="2143.86,414.7947,2147.903,405.8139,2143.8839,409.7947,2139.9031,405.7757,2143.86,414.7947" style="stroke:#404040;stroke-width:1.2;"/><text fill="#000000" font-family="sans-serif" font-size="36" lengthAdjust="spacing" textLength="272.0566" x="2136.5" y="281.1958">wasDerivedFrom</text><text fill="#000000" font-family="sans-serif" font-size="36" lengthAdjust="spacing" textLength="54.0352" x="2085.0854" y="398.9263">0..*</text></g><!--link Dataset to CatalogRecord--><g class="link" data-entity-1="ent0002" data-entity-2="ent0022" data-link-type="dependency" data-source-line="50" id="lnk36"><path codeLine="50" d="M1521.02,95.1847 C1703.5,97.5647 2288.44,115.2047 2414.5,242.8247 C2460.05,288.9347 2454.4489,367.6986 2447.9689,408.5986" fill="none" id="Dataset-to-CatalogRecord" style="stroke:#404040;stroke-width:1.2;"/><polygon fill="#404040" points="2447.03,414.5247,2452.3891,406.2615,2447.8124,409.5863,2444.4876,405.0096,2447.03,414.5247" style="stroke:#404040;stroke-width:1.2;"/><text fill="#000000" font-family="sans-serif" font-size="36" lengthAdjust="spacing" textLength="152.0684" x="2441.5" y="281.1958">subjectOf</text><text fill="#000000" font-family="sans-serif" font-size="36" lengthAdjust="spacing" textLength="20.0215" x="2426.082" y="398.899">1</text></g><!--link CatalogRecord to Dataset--><g class="link" data-entity-1="ent0022" data-entity-2="ent0002" data-link-type="dependency" data-source-line="60" id="lnk46"><path codeLine="60" d="M2484.34,414.7247 C2546.39,377.6047 2650.13,302.7947 2597.5,242.8247 C2525.45,160.7347 1743.5502,110.558 1527.1802,98.158" fill="none" id="CatalogRecord-to-Dataset" style="stroke:#404040;stroke-width:1.2;"/><polygon fill="#404040" points="1521.19,97.8147,1529.9464,102.3231,1526.1818,98.1008,1530.4041,94.3362,1521.19,97.8147" style="stroke:#404040;stroke-width:1.2;"/><text fill="#000000" font-family="sans-serif" font-size="36" lengthAdjust="spacing" textLength="90.0879" x="2612.5" y="281.1958">about</text><text fill="#000000" font-family="sans-serif" font-size="36" lengthAdjust="spacing" textLength="60.0469" x="1529.5098" y="88.3906">0..1</text></g><!--link Dataset to DefinedTerm--><g class="link" data-entity-1="ent0002" data-entity-2="ent0015" data-link-type="dependency" data-source-line="51" id="lnk37"><path codeLine="51" d="M1447,118.0747 C1425.18,145.7447 1391.09,194.3247 1377.5,242.8247 C1360.64,302.9647 1366.7279,371.7627 1371.9179,408.8227" fill="none" id="Dataset-to-DefinedTerm" style="stroke:#404040;stroke-width:1.2;"/><polygon fill="#404040" points="1372.75,414.7647,1375.4631,405.2969,1372.0566,409.813,1367.5404,406.4064,1372.75,414.7647" style="stroke:#404040;stroke-width:1.2;"/><text fill="#000000" font-family="sans-serif" font-size="36" lengthAdjust="spacing" textLength="152.0508" x="1378.5" y="281.1958">keywords</text><text fill="#000000" font-family="sans-serif" font-size="36" lengthAdjust="spacing" textLength="54.0352" x="1313.2407" y="398.891">0..*</text></g><!--link Dataset to Reference--><g class="link" data-entity-1="ent0002" data-entity-2="ent0018" data-link-type="dependency" data-source-line="52" id="lnk38"><path codeLine="52" d="M1479.29,117.8747 C1494.49,146.3447 1519.43,196.6747 1532.5,242.8247 C1549.63,303.2847 1555.2494,371.5833 1557.2294,408.5833" fill="none" id="Dataset-to-Reference" style="stroke:#404040;stroke-width:1.2;"/><polygon fill="#404040" points="1557.55,414.5747,1561.0634,405.3738,1557.2828,409.5818,1553.0748,405.8013,1557.55,414.5747" style="stroke:#404040;stroke-width:1.2;"/><text fill="#000000" font-family="sans-serif" font-size="36" lengthAdjust="spacing" textLength="112.0605" x="1543.5" y="281.1958">license</text><text fill="#000000" font-family="sans-serif" font-size="36" lengthAdjust="spacing" textLength="54.0352" x="1498.7136" y="398.9576">0..*</text></g><!--link DataDownload to Agent--><g class="link" data-entity-1="ent0004" data-entity-2="ent0010" data-link-type="dependency" data-source-line="53" id="lnk39"><path codeLine="53" d="M723.71,808.9247 C716.88,848.7447 709.23,930.8447 749.5,980.8247 C850.56,1106.2647 1055.3725,1126.0014 1145.3425,1128.6014" fill="none" id="DataDownload-to-Agent" style="stroke:#404040;stroke-width:1.2;"/><polygon fill="#404040" points="1151.34,1128.7747,1142.4593,1124.5164,1146.3421,1128.6303,1142.2282,1132.513,1151.34,1128.7747" style="stroke:#404040;stroke-width:1.2;"/><text fill="#000000" font-family="sans-serif" font-size="36" lengthAdjust="spacing" textLength="130.0605" x="750.5" y="972.1958">provider</text><text fill="#000000" font-family="sans-serif" font-size="36" lengthAdjust="spacing" textLength="54.0352" x="1089.3224" y="1168.6576">0..*</text></g><!--link WebAPI to Action--><g class="link" data-entity-1="ent0005" data-entity-2="ent0006" data-link-type="dependency" data-source-line="54" id="lnk40"><path codeLine="54" d="M503.17,809.0447 C497.99,838.0947 489.63,889.4247 486.5,933.8247 C482.13,995.7947 483.7855,1063.1193 485.2155,1099.6793" fill="none" id="WebAPI-to-Action" style="stroke:#404040;stroke-width:1.2;"/><polygon fill="#404040" points="485.45,1105.6747,489.0952,1096.5252,485.2546,1100.6785,481.1013,1096.8379,485.45,1105.6747" style="stroke:#404040;stroke-width:1.2;"/><text fill="#000000" font-family="sans-serif" font-size="36" lengthAdjust="spacing" textLength="236.1621" x="487.5" y="972.1958">potentialAction</text><text fill="#000000" font-family="sans-serif" font-size="36" lengthAdjust="spacing" textLength="54.0352" x="426.423" y="1089.785">0..*</text></g><!--link Action to EntryPoint--><g class="link" data-entity-1="ent0006" data-entity-2="ent0007" data-link-type="dependency" data-source-line="55" id="lnk41"><path codeLine="55" d="M468.85,1154.0047 C447.76,1182.3947 412.21,1232.4447 387.5,1278.8247 C355.76,1338.4147 330.1853,1407.7257 317.2753,1444.9657" fill="none" id="Action-to-EntryPoint" style="stroke:#404040;stroke-width:1.2;"/><polygon fill="#404040" points="315.31,1450.6347,322.0373,1443.4414,316.9477,1445.9105,314.4786,1440.821,315.31,1450.6347" style="stroke:#404040;stroke-width:1.2;"/><text fill="#000000" font-family="sans-serif" font-size="36" lengthAdjust="spacing" textLength="92.0566" x="388.5" y="1317.1958">target</text><text fill="#000000" font-family="sans-serif" font-size="36" lengthAdjust="spacing" textLength="20.0215" x="294.9012" y="1435.0279">1</text></g><!--link Action to ActionResult--><g class="link" data-entity-1="ent0006" data-entity-2="ent0008" data-link-type="dependency" data-source-line="56" id="lnk42"><path codeLine="56" d="M486.5,1153.8647 C486.5,1216.1947 486.5,1381.6947 486.5,1444.4347" fill="none" id="Action-to-ActionResult" style="stroke:#404040;stroke-width:1.2;"/><polygon fill="#404040" points="486.5,1450.4347,490.5,1441.4347,486.5,1445.4347,482.5,1441.4347,486.5,1450.4347" style="stroke:#404040;stroke-width:1.2;"/><text fill="#000000" font-family="sans-serif" font-size="36" lengthAdjust="spacing" textLength="88.0313" x="487.5" y="1317.1958">result</text><text fill="#000000" font-family="sans-serif" font-size="36" lengthAdjust="spacing" textLength="60.0469" x="421.3123" y="1434.7936">0..1</text></g><!--link Action to PropertyValueSpecification--><g class="link" data-entity-1="ent0006" data-entity-2="ent0009" data-link-type="dependency" data-source-line="57" id="lnk43"><path codeLine="57" d="M505.98,1153.8647 C558.68,1216.1947 699.8064,1383.1127 752.8464,1445.8527" fill="none" id="Action-to-PropertyValueSpecification" style="stroke:#404040;stroke-width:1.2;"/><polygon fill="#404040" points="756.72,1450.4347,753.9643,1440.9792,753.492,1446.6163,747.8549,1446.1441,756.72,1450.4347" style="stroke:#404040;stroke-width:1.2;"/><text fill="#000000" font-family="sans-serif" font-size="36" lengthAdjust="spacing" textLength="170.1211" x="650.5" y="1317.1958">queryInput</text><text fill="#000000" font-family="sans-serif" font-size="36" lengthAdjust="spacing" textLength="54.0352" x="694.6651" y="1434.7936">0..*</text></g><!--link Contributor to Agent--><g class="link" data-entity-1="ent0014" data-entity-2="ent0010" data-link-type="dependency" data-source-line="58" id="lnk44"><path codeLine="58" d="M1413.17,635.9947 C1374.97,721.6947 1244.3927,1014.6444 1206.2427,1100.2344" fill="none" id="Contributor-to-Agent" style="stroke:#404040;stroke-width:1.2;"/><polygon fill="#404040" points="1203.8,1105.7147,1211.1176,1099.1228,1205.8356,1101.1478,1203.8106,1095.8658,1203.8,1105.7147" style="stroke:#404040;stroke-width:1.2;"/><text fill="#000000" font-family="sans-serif" font-size="36" lengthAdjust="spacing" textLength="170.0859" x="1357.5" y="799.6958">contributor</text><text fill="#000000" font-family="sans-serif" font-size="36" lengthAdjust="spacing" textLength="60.0469" x="1242.9211" y="1141.7826">0..1</text></g><!--link MonetaryGrant to Agent--><g class="link" data-entity-1="ent0019" data-entity-2="ent0010" data-link-type="dependency" data-source-line="59" id="lnk45"><path codeLine="59" d="M1619.55,636.0647 C1605.78,674.3747 1574.94,752.1647 1533.5,808.8247 C1439.71,937.0647 1295.0308,1052.9024 1230.1108,1101.8524" fill="none" id="MonetaryGrant-to-Agent" style="stroke:#404040;stroke-width:1.2;"/><polygon fill="#404040" points="1225.32,1105.4647,1234.9143,1103.2401,1229.3123,1102.4545,1230.098,1096.8524,1225.32,1105.4647" style="stroke:#404040;stroke-width:1.2;"/><text fill="#000000" font-family="sans-serif" font-size="36" lengthAdjust="spacing" textLength="102.0762" x="1564.5" y="799.6958">funder</text><text fill="#000000" font-family="sans-serif" font-size="36" lengthAdjust="spacing" textLength="54.0352" x="1235.3985" y="1089.8287">0..*</text></g><!--link CatalogRecord to Agent--><g class="link" data-entity-1="ent0022" data-entity-2="ent0010" data-link-type="dependency" data-source-line="61" id="lnk47"><path codeLine="61" d="M2400.59,462.9447 C2210,568.0847 1431.4837,997.5466 1240.7437,1102.7666" fill="none" id="CatalogRecord-to-Agent" style="stroke:#404040;stroke-width:1.2;"/><polygon fill="#404040" points="1235.49,1105.6647,1245.3026,1104.8199,1239.868,1103.2496,1241.4384,1097.8151,1235.49,1105.6647" style="stroke:#404040;stroke-width:1.2;"/><text fill="#000000" font-family="sans-serif" font-size="36" lengthAdjust="spacing" textLength="168.082" x="1860.5" y="799.6958">maintainer</text><text fill="#000000" font-family="sans-serif" font-size="36" lengthAdjust="spacing" textLength="60.0469" x="1243.7935" y="1142.8755">0..1</text></g><?plantuml-src VLNRRjim37ttLmZfsu0KQRiMWp4CI9suoCFGe2ksPrcY4osEv55oWdGRi8_O5-vBfbY-o9SMGG3nw8Ya3adP29C1YHQhE588vD-VlqGT00y2Zi5MS21C8Cl0hM6VcnFPmpu1r87U2PbJf7kYjvIhev0Raj9CWxSpHrJ7vwrWEmbQawlBQsyJgTnfoCdrxSn3fU9GeZx88QL5Pc8bpHVn0kJcpjja6RM-VmR4XOjKff1Sl9-TVnQyLyW1-wZloXuq1aLI66ZXMV0x29phoO8Qgi5C2DMaMfEBU1alesL04ssGCbEbCPbNza9evrCeMHuSso0NYxlbFFxW1rgeeymKvKsq6cX2LkHlaCpNgvBcbfOGnJTHN1Fch0tEni8jfS7JMWdfhjQQVQ8x_WJQ5i7pvu1-s3Mg7D2SljAiW2yvC94AHfjKNjzkeWuqtK2LOhdgPxUsxLWxBvTzGcIhQjsrD_M1FlaHDrIAbpPX7nZpN1PJOUEuiWUrXLH8uC-0UrVQrkvNTiNjBQqiu9osvg0kd8jpMZIhLNKg3U3-mIT80K4oAFcDrQTzLX8CnTE3dLMdN0SP50BLuTmP1r4buWFzIou0nG5uZAhMex47AjifoDJc2PYTPQUpZ_GzHroajX0CSlE8ZTu3r1wRBsyNDy7eP7xyDPrsnkyDcXk_m3LdYRW-z16_YuBw4PbEFv79xFBotQJgx93aLZBxsE8ePoo3a73FVCirGw2sCSSeVjzQOciDo5TUgaMI2RqTpxNRA2592ydj9sACskcIa1ofVW09I0tm-zFO0RzLIhu7TFassswhX4GNoNTWvZ4TzzmEPKXsS3hQGtgCsSvCI3B1GDeFN-UrVgksrNljKrXLp5oPyxJJp251jL7VndkZGsBrtO3fKAeA-SzpIB1Sz7bE-TVUuf3yA01FAvaN9l3ROwGH_7xfrdr4X7CZM0cwPV6Srbg7X2Rg7FirOkrmJwqQzc-T_WS0?></g></svg>