<svg xmlns="http://www.w3.org/2000/svg" xmlns:xlink="http://www.w3.org/1999/xlink" contentStyleType="text/css" data-diagram-type="CLASS" height="503px" preserveAspectRatio="none" style="width:1331px;height:503px;background:#FFFFFF;" version="1.1" viewBox="0 0 1331 503" width="1331px" zoomAndPan="magnify"><?plantuml 1.2026.3?><defs/><g><g class="title" data-source-line="1"><text fill="#000000" font-family="sans-serif" font-size="14" font-weight="700" lengthAdjust="spacing" textLength="146.6992" x="588.7717" y="24.5332">CDIFCore &#8212; overview</text></g><!--class Dataset--><g class="entity" data-qualified-name="Dataset" data-source-line="12" id="ent0002"><rect fill="#FEFECE" height="25.0938" rx="2.5" ry="2.5" style="stroke:#404040;stroke-width:0.5;" width="47.3555" x="785.5" y="45.6094"/><text fill="#000000" font-family="sans-serif" font-size="12" lengthAdjust="spacing" textLength="41.3555" x="788.5" y="63.0664">Dataset</text></g><!--class AbstractDistribution--><g class="entity" data-qualified-name="AbstractDistribution" data-source-line="13" id="ent0003"><rect fill="#D6EAF8" height="25.0938" rx="2.5" ry="2.5" style="stroke:#404040;stroke-width:0.5;" width="110.0391" x="259" y="148.6094"/><text fill="#000000" font-family="sans-serif" font-size="12" font-style="italic" lengthAdjust="spacing" textLength="104.0391" x="262" y="166.0664">AbstractDistribution</text></g><!--class DataDownload--><g class="entity" data-qualified-name="DataDownload" data-source-line="14" id="ent0004"><rect fill="#FEFECE" height="25.0938" rx="2.5" ry="2.5" style="stroke:#404040;stroke-width:0.5;" width="84.7148" x="283.5" y="258.6094"/><text fill="#000000" font-family="sans-serif" font-size="12" lengthAdjust="spacing" textLength="78.7148" x="286.5" y="276.0664">DataDownload</text></g><!--class WebAPI--><g class="entity" data-qualified-name="WebAPI" data-source-line="15" id="ent0005"><rect fill="#FCF3CF" height="25.0938" rx="2.5" ry="2.5" style="stroke:#404040;stroke-width:0.5;" width="50.0156" x="198" y="258.6094"/><text fill="#000000" font-family="sans-serif" font-size="12" lengthAdjust="spacing" textLength="44.0156" x="201" y="276.0664">WebAPI</text></g><!--class Action--><g class="entity" data-qualified-name="Action" data-source-line="16" id="ent0006"><rect fill="#D6EAF8" height="25.0938" rx="2.5" ry="2.5" style="stroke:#404040;stroke-width:0.5;" width="39.3516" x="203.5" y="361.6094"/><text fill="#000000" font-family="sans-serif" font-size="12" lengthAdjust="spacing" textLength="33.3516" x="206.5" y="379.0664">Action</text></g><!--class EntryPoint--><g class="entity" data-qualified-name="EntryPoint" data-source-line="17" id="ent0007"><rect fill="#D6EAF8" height="25.0938" rx="2.5" ry="2.5" style="stroke:#404040;stroke-width:0.5;" width="61.3594" x="192.5" y="464.6094"/><text fill="#000000" font-family="sans-serif" font-size="12" lengthAdjust="spacing" textLength="55.3594" x="195.5" y="482.0664">EntryPoint</text></g><!--class ActionResult--><g class="entity" data-qualified-name="ActionResult" data-source-line="18" id="ent0008"><rect fill="#FCF3CF" height="25.0938" rx="2.5" ry="2.5" style="stroke:#404040;stroke-width:0.5;" width="73.3652" x="288.5" y="464.6094"/><text fill="#000000" font-family="sans-serif" font-size="12" lengthAdjust="spacing" textLength="67.3652" x="291.5" y="482.0664">ActionResult</text></g><!--class PropertyValueSpecification--><g class="entity" data-qualified-name="PropertyValueSpecification" data-source-line="19" id="ent0009"><rect fill="#D6EAF8" height="25.0938" rx="2.5" ry="2.5" style="stroke:#404040;stroke-width:0.5;" width="150.082" x="7" y="464.6094"/><text fill="#000000" font-family="sans-serif" font-size="12" lengthAdjust="spacing" textLength="144.082" x="10" y="482.0664">PropertyValueSpecification</text></g><!--class Agent--><g class="entity" data-qualified-name="Agent" data-source-line="20" id="ent0010"><rect fill="#D6EAF8" height="25.0938" rx="2.5" ry="2.5" style="stroke:#404040;stroke-width:0.5;" width="37.3594" x="624.5" y="361.6094"/><text fill="#000000" font-family="sans-serif" font-size="12" font-style="italic" lengthAdjust="spacing" textLength="31.3594" x="627.5" y="379.0664">Agent</text></g><!--class Person--><g class="entity" data-qualified-name="Person" data-source-line="21" id="ent0011"><rect fill="#D6EAF8" height="25.0938" rx="2.5" ry="2.5" style="stroke:#404040;stroke-width:0.5;" width="44.0215" x="574" y="464.6094"/><text fill="#000000" font-family="sans-serif" font-size="12" lengthAdjust="spacing" textLength="38.0215" x="577" y="482.0664">Person</text></g><!--class ContactPoint--><g class="entity" data-qualified-name="ContactPoint" data-source-line="22" id="ent0012"><rect fill="#D6EAF8" height="25.0938" rx="2.5" ry="2.5" style="stroke:#404040;stroke-width:0.5;" width="74.707" x="134.5" y="45.6094"/><text fill="#000000" font-family="sans-serif" font-size="12" lengthAdjust="spacing" textLength="68.707" x="137.5" y="63.0664">ContactPoint</text></g><!--class Organization--><g class="entity" data-qualified-name="Organization" data-source-line="23" id="ent0013"><rect fill="#D6EAF8" height="25.0938" rx="2.5" ry="2.5" style="stroke:#404040;stroke-width:0.5;" width="74.0391" x="653" y="464.6094"/><text fill="#000000" font-family="sans-serif" font-size="12" lengthAdjust="spacing" textLength="68.0391" x="656" y="482.0664">Organization</text></g><!--class Contributor--><g class="entity" data-qualified-name="Contributor" data-source-line="24" id="ent0014"><rect fill="#D6EAF8" height="25.0938" rx="2.5" ry="2.5" style="stroke:#404040;stroke-width:0.5;" width="65.3613" x="487.5" y="203.6094"/><text fill="#000000" font-family="sans-serif" font-size="12" lengthAdjust="spacing" textLength="59.3613" x="490.5" y="221.0664">Contributor</text></g><!--class Identifier--><g class="entity" data-qualified-name="Identifier" data-source-line="25" id="ent0015"><rect fill="#D6EAF8" height="25.0938" rx="2.5" ry="2.5" style="stroke:#404040;stroke-width:0.5;" width="52.0254" x="245" y="45.6094"/><text fill="#000000" font-family="sans-serif" font-size="12" lengthAdjust="spacing" textLength="46.0254" x="248" y="63.0664">Identifier</text></g><!--class AdditionalProperty--><g class="entity" data-qualified-name="AdditionalProperty" data-source-line="26" id="ent0016"><rect fill="#D6EAF8" height="25.0938" rx="2.5" ry="2.5" style="stroke:#404040;stroke-width:0.5;" width="104.0566" x="120" y="148.6094"/><text fill="#000000" font-family="sans-serif" font-size="12" lengthAdjust="spacing" textLength="98.0566" x="123" y="166.0664">AdditionalProperty</text></g><!--class Reference--><g class="entity" data-qualified-name="Reference" data-source-line="27" id="ent0017"><rect fill="#D6EAF8" height="25.0938" rx="2.5" ry="2.5" style="stroke:#404040;stroke-width:0.5;" width="61.3652" x="998.5" y="148.6094"/><text fill="#000000" font-family="sans-serif" font-size="12" lengthAdjust="spacing" textLength="55.3652" x="1001.5" y="166.0664">Reference</text></g><!--class MonetaryGrant--><g class="entity" data-qualified-name="MonetaryGrant" data-source-line="28" id="ent0018"><rect fill="#D6EAF8" height="25.0938" rx="2.5" ry="2.5" style="stroke:#404040;stroke-width:0.5;" width="86.0332" x="593" y="203.6094"/><text fill="#000000" font-family="sans-serif" font-size="12" lengthAdjust="spacing" textLength="80.0332" x="596" y="221.0664">MonetaryGrant</text></g><!--class ProvActivity--><g class="entity" data-qualified-name="ProvActivity" data-source-line="29" id="ent0019"><rect fill="#FEFECE" height="25.0938" rx="2.5" ry="2.5" style="stroke:#404040;stroke-width:0.5;" width="68.6777" x="1094.5" y="148.6094"/><text fill="#000000" font-family="sans-serif" font-size="12" lengthAdjust="spacing" textLength="62.6777" x="1097.5" y="166.0664">ProvActivity</text></g><!--class DerivedFrom--><g class="entity" data-qualified-name="DerivedFrom" data-source-line="30" id="ent0020"><rect fill="#D6EAF8" height="25.0938" rx="2.5" ry="2.5" style="stroke:#404040;stroke-width:0.5;" width="75.3457" x="1223.5" y="148.6094"/><text fill="#000000" font-family="sans-serif" font-size="12" lengthAdjust="spacing" textLength="69.3457" x="1226.5" y="166.0664">DerivedFrom</text></g><!--class CatalogRecord--><g class="entity" data-qualified-name="CatalogRecord" data-source-line="31" id="ent0021"><rect fill="#FEFECE" height="25.0938" rx="2.5" ry="2.5" style="stroke:#404040;stroke-width:0.5;" width="86.0449" x="708" y="148.6094"/><text fill="#000000" font-family="sans-serif" font-size="12" lengthAdjust="spacing" textLength="80.0449" x="711" y="166.0664">CatalogRecord</text></g><!--reverse link AbstractDistribution to DataDownload--><g class="link" data-entity-1="ent0003" data-entity-2="ent0004" data-link-type="extension" data-source-line="32" id="lnk22"><path codeLine="32" d="M317.2697,191.5591 C319.5697,212.2391 322.37,237.4494 324.69,258.3094" fill="none" id="AbstractDistribution-backto-DataDownload" style="stroke:#404040;stroke-width:1.2;"/><polygon fill="none" points="315.28,173.6694,311.3064,192.2223,323.2329,190.8958,315.28,173.6694" style="stroke:#404040;stroke-width:1.2;"/></g><!--reverse link AbstractDistribution to WebAPI--><g class="link" data-entity-1="ent0003" data-entity-2="ent0005" data-link-type="extension" data-source-line="33" id="lnk23"><path codeLine="33" d="M292.6635,187.4361 C275.2435,208.1161 250.52,237.4494 232.94,258.3094" fill="none" id="AbstractDistribution-backto-WebAPI" style="stroke:#404040;stroke-width:1.2;"/><polygon fill="none" points="304.26,173.6694,288.0746,183.5706,297.2524,191.3015,304.26,173.6694" style="stroke:#404040;stroke-width:1.2;"/></g><!--reverse link Agent to Person--><g class="link" data-entity-1="ent0010" data-entity-2="ent0011" data-link-type="extension" data-source-line="34" id="lnk24"><path codeLine="34" d="M630.0114,403.0169 C620.9914,422.3869 610.55,444.8494 601.47,464.3494" fill="none" id="Agent-backto-Person" style="stroke:#404040;stroke-width:1.2;"/><polygon fill="none" points="637.61,386.6994,624.5723,400.4841,635.4506,405.5498,637.61,386.6994" style="stroke:#404040;stroke-width:1.2;"/></g><!--reverse link Agent to Organization--><g class="link" data-entity-1="ent0010" data-entity-2="ent0013" data-link-type="extension" data-source-line="35" id="lnk25"><path codeLine="35" d="M655.9886,403.0169 C665.0086,422.3869 675.45,444.8494 684.53,464.3494" fill="none" id="Agent-backto-Organization" style="stroke:#404040;stroke-width:1.2;"/><polygon fill="none" points="648.39,386.6994,650.5494,405.5498,661.4277,400.4841,648.39,386.6994" style="stroke:#404040;stroke-width:1.2;"/></g><!--link Dataset to Agent--><g class="link" data-entity-1="ent0002" data-entity-2="ent0010" data-link-type="dependency" data-source-line="36" id="lnk26"><path codeLine="36" d="M815.18,70.7094 C819.15,78.8294 823.92,90.0694 826,100.6094 C827.55,108.4594 827.06,110.6794 826,118.6094 C820.77,157.6794 774.28,283.2394 774,283.6094 C743.74,323.5794 695.7495,349.4388 667.3795,362.5088" fill="none" id="Dataset-to-Agent" style="stroke:#404040;stroke-width:1.2;"/><polygon fill="#404040" points="661.93,365.0194,671.778,364.8865,666.4712,362.9272,668.4305,357.6205,661.93,365.0194" style="stroke:#404040;stroke-width:1.2;"/><text fill="#000000" font-family="sans-serif" font-size="13" lengthAdjust="spacing" textLength="46.9663" x="804" y="221.6045">provider</text><text fill="#000000" font-family="sans-serif" font-size="13" lengthAdjust="spacing" textLength="19.5127" x="669.9475" y="357.7442">0..*</text></g><!--link Dataset to Agent--><g class="link" data-entity-1="ent0002" data-entity-2="ent0010" data-link-type="dependency" data-source-line="38" id="lnk28"><path codeLine="38" d="M826.74,70.7194 C836.32,78.0494 847.32,88.4294 853,100.6094 C877.07,152.2194 880.4,175.8294 859,228.6094 C835.02,287.7394 812.65,297.0794 759,331.6094 C727.88,351.6394 691.6918,362.1808 667.7018,367.8008" fill="none" id="Dataset-to-Agent-1" style="stroke:#404040;stroke-width:1.2;"/><polygon fill="#404040" points="661.86,369.1694,671.5351,371.0111,666.7282,368.0289,669.7104,363.222,661.86,369.1694" style="stroke:#404040;stroke-width:1.2;"/><text fill="#000000" font-family="sans-serif" font-size="13" lengthAdjust="spacing" textLength="40.46" x="869" y="221.6045">creator</text><text fill="#000000" font-family="sans-serif" font-size="13" lengthAdjust="spacing" textLength="19.5127" x="669.8578" y="383.5614">0..*</text></g><!--link Dataset to Agent--><g class="link" data-entity-1="ent0002" data-entity-2="ent0010" data-link-type="dependency" data-source-line="40" id="lnk30"><path codeLine="40" d="M785.32,59.0294 C738.28,59.6794 630.59,65.2794 549,100.6094 C480.39,130.3194 448.92,136.4794 416,203.6094 C369.33,298.7794 556.2583,352.4184 618.4183,367.4584" fill="none" id="Dataset-to-Agent-2" style="stroke:#404040;stroke-width:1.2;"/><polygon fill="#404040" points="624.25,368.8694,616.4431,362.865,619.3902,367.6935,614.5617,370.6407,624.25,368.8694" style="stroke:#404040;stroke-width:1.2;"/><text fill="#000000" font-family="sans-serif" font-size="13" lengthAdjust="spacing" textLength="52.7554" x="417" y="221.6045">publisher</text><text fill="#000000" font-family="sans-serif" font-size="13" lengthAdjust="spacing" textLength="21.6836" x="594.7054" y="362.5131">0..1</text></g><!--link Dataset to AbstractDistribution--><g class="link" data-entity-1="ent0002" data-entity-2="ent0003" data-link-type="dependency" data-source-line="37" id="lnk27"><path codeLine="37" d="M785.46,59.6294 C694.26,61.8594 367.49,71.7894 332,100.6094 C317.76,112.1694 314.7425,128.6247 314.1625,142.3947" fill="none" id="Dataset-to-AbstractDistribution" style="stroke:#404040;stroke-width:1.2;"/><polygon fill="#404040" points="313.91,148.3894,318.2852,139.5657,314.1204,143.3938,310.2923,139.229,313.91,148.3894" style="stroke:#404040;stroke-width:1.2;"/><text fill="#000000" font-family="sans-serif" font-size="13" lengthAdjust="spacing" textLength="62.8672" x="333" y="115.1045">distribution</text><text fill="#000000" font-family="sans-serif" font-size="13" lengthAdjust="spacing" textLength="19.5127" x="291.2272" y="137.7767">0..*</text></g><!--link Dataset to Contributor--><g class="link" data-entity-1="ent0002" data-entity-2="ent0014" data-link-type="dependency" data-source-line="39" id="lnk29"><path codeLine="39" d="M785.19,60.5294 C732.1,64.1294 606.06,75.1794 573,100.6094 C538.97,126.7894 527.0405,174.0938 522.8205,197.5938" fill="none" id="Dataset-to-Contributor" style="stroke:#404040;stroke-width:1.2;"/><polygon fill="#404040" points="521.76,203.4994,527.2878,195.3481,522.6437,198.5781,519.4137,193.9341,521.76,203.4994" style="stroke:#404040;stroke-width:1.2;"/><text fill="#000000" font-family="sans-serif" font-size="13" lengthAdjust="spacing" textLength="61.4199" x="574" y="115.1045">contributor</text><text fill="#000000" font-family="sans-serif" font-size="13" lengthAdjust="spacing" textLength="19.5127" x="499.5985" y="192.546">0..*</text></g><!--link Dataset to MonetaryGrant--><g class="link" data-entity-1="ent0002" data-entity-2="ent0018" data-link-type="dependency" data-source-line="41" id="lnk31"><path codeLine="41" d="M785.47,58.1394 C751.35,58.1294 688.55,63.5694 655,100.6094 C628.76,129.5794 630.6496,174.444 633.4596,197.354" fill="none" id="Dataset-to-MonetaryGrant" style="stroke:#404040;stroke-width:1.2;"/><polygon fill="#404040" points="634.19,203.3094,637.0646,193.8894,633.5813,198.3466,629.1241,194.8633,634.19,203.3094" style="stroke:#404040;stroke-width:1.2;"/><text fill="#000000" font-family="sans-serif" font-size="13" lengthAdjust="spacing" textLength="42.6499" x="656" y="115.1045">funding</text><text fill="#000000" font-family="sans-serif" font-size="13" lengthAdjust="spacing" textLength="19.5127" x="610.8311" y="192.6652">0..*</text></g><!--link Dataset to ProvActivity--><g class="link" data-entity-1="ent0002" data-entity-2="ent0019" data-link-type="dependency" data-source-line="42" id="lnk32"><path codeLine="42" d="M832.73,59.8594 C876.39,61.9794 971.67,70.0194 1045,100.6094 C1073.04,112.3094 1096.3836,130.7367 1111.9236,144.4667" fill="none" id="Dataset-to-ProvActivity" style="stroke:#404040;stroke-width:1.2;"/><polygon fill="#404040" points="1116.42,148.4394,1112.3239,139.4827,1112.673,145.1288,1107.0269,145.4779,1116.42,148.4394" style="stroke:#404040;stroke-width:1.2;"/><text fill="#000000" font-family="sans-serif" font-size="13" lengthAdjust="spacing" textLength="99.7217" x="1079" y="115.1045">wasGeneratedBy</text><text fill="#000000" font-family="sans-serif" font-size="13" lengthAdjust="spacing" textLength="19.5127" x="1088.8904" y="137.8464">0..*</text></g><!--link Dataset to DerivedFrom--><g class="link" data-entity-1="ent0002" data-entity-2="ent0020" data-link-type="dependency" data-source-line="43" id="lnk33"><path codeLine="43" d="M832.68,59.9794 C905.04,62.9094 1122.29,73.7594 1187,100.6094 C1213.19,111.4794 1233.4755,130.2324 1246.6755,144.2424" fill="none" id="Dataset-to-DerivedFrom" style="stroke:#404040;stroke-width:1.2;"/><polygon fill="#404040" points="1250.79,148.6094,1247.5296,139.3159,1247.3612,144.9702,1241.7069,144.8019,1250.79,148.6094" style="stroke:#404040;stroke-width:1.2;"/><text fill="#000000" font-family="sans-serif" font-size="13" lengthAdjust="spacing" textLength="98.2427" x="1217" y="115.1045">wasDerivedFrom</text><text fill="#000000" font-family="sans-serif" font-size="13" lengthAdjust="spacing" textLength="19.5127" x="1223.6941" y="137.7014">0..*</text></g><!--link Dataset to CatalogRecord--><g class="link" data-entity-1="ent0002" data-entity-2="ent0021" data-link-type="dependency" data-source-line="44" id="lnk34"><path codeLine="44" d="M785.08,61.6894 C761.49,65.6494 726.62,75.6294 710,100.6094 C698.81,117.4294 713.1305,133.0022 728.8505,144.9322" fill="none" id="Dataset-to-CatalogRecord" style="stroke:#404040;stroke-width:1.2;"/><polygon fill="#404040" points="733.63,148.5594,728.8789,139.9323,729.6471,145.5367,724.0426,146.3049,733.63,148.5594" style="stroke:#404040;stroke-width:1.2;"/><text fill="#000000" font-family="sans-serif" font-size="13" lengthAdjust="spacing" textLength="54.9136" x="711" y="115.1045">subjectOf</text><text fill="#000000" font-family="sans-serif" font-size="13" lengthAdjust="spacing" textLength="7.23" x="718.0593" y="137.6308">1</text></g><!--link CatalogRecord to Dataset--><g class="link" data-entity-1="ent0021" data-entity-2="ent0002" data-link-type="dependency" data-source-line="53" id="lnk43"><path codeLine="53" d="M757.75,148.3494 C768.95,128.8494 788.2307,95.2717 799.3607,75.9017" fill="none" id="CatalogRecord-to-Dataset" style="stroke:#404040;stroke-width:1.2;"/><polygon fill="#404040" points="802.35,70.6994,794.3979,76.51,799.8589,75.0347,801.3343,80.4957,802.35,70.6994" style="stroke:#404040;stroke-width:1.2;"/><text fill="#000000" font-family="sans-serif" font-size="13" lengthAdjust="spacing" textLength="32.5317" x="785" y="115.1045">about</text><text fill="#000000" font-family="sans-serif" font-size="13" lengthAdjust="spacing" textLength="21.6836" x="774.8741" y="92.0936">0..1</text></g><!--link Dataset to Reference--><g class="link" data-entity-1="ent0002" data-entity-2="ent0017" data-link-type="dependency" data-source-line="45" id="lnk35"><path codeLine="45" d="M832.77,61.1394 C865.76,64.8294 926.39,74.7994 971,100.6094 C991.98,112.7494 1006.7972,129.7815 1016.9872,143.3515" fill="none" id="Dataset-to-Reference" style="stroke:#404040;stroke-width:1.2;"/><polygon fill="#404040" points="1020.59,148.1494,1018.3843,138.5507,1017.5876,144.1511,1011.9872,143.3544,1020.59,148.1494" style="stroke:#404040;stroke-width:1.2;"/><text fill="#000000" font-family="sans-serif" font-size="13" lengthAdjust="spacing" textLength="40.4663" x="996" y="115.1045">license</text><text fill="#000000" font-family="sans-serif" font-size="13" lengthAdjust="spacing" textLength="19.5127" x="994.7899" y="137.7026">0..*</text></g><!--link DataDownload to Agent--><g class="link" data-entity-1="ent0004" data-entity-2="ent0010" data-link-type="dependency" data-source-line="46" id="lnk36"><path codeLine="46" d="M326.84,283.7694 C328.5,297.4794 333.42,319.8594 348,331.6094 C390.89,366.1694 560.6308,371.8487 618.4608,372.8187" fill="none" id="DataDownload-to-Agent" style="stroke:#404040;stroke-width:1.2;"/><polygon fill="#404040" points="624.46,372.9194,615.5283,368.769,619.4607,372.8355,615.3942,376.7679,624.46,372.9194" style="stroke:#404040;stroke-width:1.2;"/><text fill="#000000" font-family="sans-serif" font-size="13" lengthAdjust="spacing" textLength="46.9663" x="349" y="328.1045">provider</text><text fill="#000000" font-family="sans-serif" font-size="13" lengthAdjust="spacing" textLength="19.5127" x="596.8962" y="388.5395">0..*</text></g><!--link WebAPI to Action--><g class="link" data-entity-1="ent0005" data-entity-2="ent0006" data-link-type="dependency" data-source-line="47" id="lnk37"><path codeLine="47" d="M222.2,283.9594 C221.48,295.9694 220.6,315.0794 221,331.6094 C221.24,341.7094 221.4816,347.1789 221.9516,355.4989" fill="none" id="WebAPI-to-Action" style="stroke:#404040;stroke-width:1.2;"/><polygon fill="#404040" points="222.29,361.4894,225.776,352.2781,222.008,356.4973,217.7888,352.7293,222.29,361.4894" style="stroke:#404040;stroke-width:1.2;"/><text fill="#000000" font-family="sans-serif" font-size="13" lengthAdjust="spacing" textLength="85.2808" x="222" y="328.1045">potentialAction</text><text fill="#000000" font-family="sans-serif" font-size="13" lengthAdjust="spacing" textLength="19.5127" x="199.1116" y="350.5319">0..*</text></g><!--link Action to EntryPoint--><g class="link" data-entity-1="ent0006" data-entity-2="ent0007" data-link-type="dependency" data-source-line="48" id="lnk38"><path codeLine="48" d="M223,386.6994 C223,406.0694 223,438.8494 223,458.3494" fill="none" id="Action-to-EntryPoint" style="stroke:#404040;stroke-width:1.2;"/><polygon fill="#404040" points="223,464.3494,227,455.3494,223,459.3494,219,455.3494,223,464.3494" style="stroke:#404040;stroke-width:1.2;"/><text fill="#000000" font-family="sans-serif" font-size="13" lengthAdjust="spacing" textLength="33.2427" x="224" y="431.1045">target</text><text fill="#000000" font-family="sans-serif" font-size="13" lengthAdjust="spacing" textLength="7.23" x="214.5964" y="453.721">1</text></g><!--link Action to ActionResult--><g class="link" data-entity-1="ent0006" data-entity-2="ent0008" data-link-type="dependency" data-source-line="49" id="lnk39"><path codeLine="49" d="M235.12,386.6694 C243.77,394.9494 255.66,406.4094 266,416.6094 C282.57,432.9594 297.2666,447.8279 309.1166,459.8979" fill="none" id="Action-to-ActionResult" style="stroke:#404040;stroke-width:1.2;"/><polygon fill="#404040" points="313.32,464.1794,309.8692,454.9549,309.8171,460.6115,304.1605,460.5594,313.32,464.1794" style="stroke:#404040;stroke-width:1.2;"/><text fill="#000000" font-family="sans-serif" font-size="13" lengthAdjust="spacing" textLength="31.7891" x="285" y="431.1045">result</text><text fill="#000000" font-family="sans-serif" font-size="13" lengthAdjust="spacing" textLength="21.6836" x="283.9246" y="453.7441">0..1</text></g><!--link Action to PropertyValueSpecification--><g class="link" data-entity-1="ent0006" data-entity-2="ent0009" data-link-type="dependency" data-source-line="50" id="lnk40"><path codeLine="50" d="M203.45,385.3294 C188.86,393.2394 168.66,404.7994 152,416.6094 C130.66,431.7394 112.3366,447.8273 98.7666,460.3673" fill="none" id="Action-to-PropertyValueSpecification" style="stroke:#404040;stroke-width:1.2;"/><polygon fill="#404040" points="94.36,464.4394,103.6846,461.2689,98.0321,461.046,98.2551,455.3935,94.36,464.4394" style="stroke:#404040;stroke-width:1.2;"/><text fill="#000000" font-family="sans-serif" font-size="13" lengthAdjust="spacing" textLength="61.4326" x="153" y="431.1045">queryInput</text><text fill="#000000" font-family="sans-serif" font-size="13" lengthAdjust="spacing" textLength="19.5127" x="76.5709" y="453.8464">0..*</text></g><!--link Contributor to Agent--><g class="link" data-entity-1="ent0014" data-entity-2="ent0010" data-link-type="dependency" data-source-line="51" id="lnk41"><path codeLine="51" d="M527.68,228.6294 C536.75,242.0694 552.44,264.8394 567,283.6094 C589.36,312.4394 613.6197,340.2286 628.5897,357.0386" fill="none" id="Contributor-to-Agent" style="stroke:#404040;stroke-width:1.2;"/><polygon fill="#404040" points="632.58,361.5194,629.5817,352.138,629.2547,357.7854,623.6073,357.4584,632.58,361.5194" style="stroke:#404040;stroke-width:1.2;"/><text fill="#000000" font-family="sans-serif" font-size="13" lengthAdjust="spacing" textLength="61.4199" x="568" y="276.6045">contributor</text><text fill="#000000" font-family="sans-serif" font-size="13" lengthAdjust="spacing" textLength="21.6836" x="632.6799" y="350.5743">0..1</text></g><!--link MonetaryGrant to Agent--><g class="link" data-entity-1="ent0018" data-entity-2="ent0010" data-link-type="dependency" data-source-line="52" id="lnk42"><path codeLine="52" d="M636.53,228.8394 C637.82,257.7494 640.8897,326.2055 642.1997,355.2555" fill="none" id="MonetaryGrant-to-Agent" style="stroke:#404040;stroke-width:1.2;"/><polygon fill="#404040" points="642.47,361.2494,646.0605,352.0783,642.2448,356.2545,638.0686,352.4387,642.47,361.2494" style="stroke:#404040;stroke-width:1.2;"/><text fill="#000000" font-family="sans-serif" font-size="13" lengthAdjust="spacing" textLength="36.8608" x="640" y="276.6045">funder</text><text fill="#000000" font-family="sans-serif" font-size="13" lengthAdjust="spacing" textLength="19.5127" x="645.919" y="350.8408">0..*</text></g><!--link CatalogRecord to Agent--><g class="link" data-entity-1="ent0021" data-entity-2="ent0010" data-link-type="dependency" data-source-line="54" id="lnk44"><path codeLine="54" d="M745.55,173.7494 C732.53,201.4094 698.35,273.1394 667,331.6094 C661.49,341.8794 657.8912,348.169 652.9912,356.429" fill="none" id="CatalogRecord-to-Agent" style="stroke:#404040;stroke-width:1.2;"/><polygon fill="#404040" points="649.93,361.5894,657.962,355.8897,652.481,357.2891,651.0816,351.8081,649.93,361.5894" style="stroke:#404040;stroke-width:1.2;"/><text fill="#000000" font-family="sans-serif" font-size="13" lengthAdjust="spacing" textLength="60.6963" x="705" y="276.6045">maintainer</text><text fill="#000000" font-family="sans-serif" font-size="13" lengthAdjust="spacing" textLength="21.6836" x="610.1866" y="350.9335">0..1</text></g><?plantuml-src VLLHQzim47xthn3fso2bxSOOPWnI9ovv60tjs9vb-P9eLIJl92Uass0_OhzmlsIA9TkoevOGellqwUxqtUbYk150ilaopnG2-VVdBr5xm3s7GxBb9H36aGbmQzXLvaXsi2i0TQAVkAmeqXtHMrgg0vSRigP2Gx0pGrI7BrlEdYHeJQulRu9D9gZ5VYR4qJ8b59ABTrUdZmLl5PQ0OpHNqZpoPo3NDydl974-9dDgg0Op8LGJloON-I9VP8k45jeWPSR7cyoyFUVsbnUruKes1sCRv6B-VZ7BFuI1vkeWXQ9b5wq5kf2U_0sAsMhPqDpI4hByRPQtX1dhWxDOk8KqU5mfBjtLUdDCTCSVGDV21FuSC0wxGbK1ckDNAcfuh83nDMUqI-NbxIxgcQORy2asgt5sAzilhVDcEIPajghMNN_J41YJxt539N_k4mw1cEUcc0exnzuUKvUbJTtU5HopDy_4Baj-YaL5AvMx-XayFlW0Qq2G31f-PurfdvK4G_5uXzJBCK3Er4MrFvLxptqY8J3koJaWtqEPezgv_ktjC-biQmkrUG1cNw8JBqGwpz5ty_7NT3fu7A_GtED8NEiqYEkI40bhdBHFV3hzH2PNbvTl9hxlKbBPkzjPXL5EB8EKb87vcck6G6tRn2XXLrbYRvsHhuDKwq9mlOtdEgnuIjQrBEs4ZL47vKx9WUexa83KG7bxZ1q8Qzxm0s38jzaEQvuINHVVWPdxTSnptz8f4Po1jFy6WmdvMiNyZ0mfp9UeKkRq6AbmIE8tsXo3kPWIgze6p83YTGz7OagmMOnvJi-NvbzAVjI0nwMiQfE4HO-KD-o2OJKZ8fpAQoKOYXquRRLE2ItKAVPBnDRXZberxDSw_Gy0?></g></svg>