<svg xmlns="http://www.w3.org/2000/svg" xmlns:xlink="http://www.w3.org/1999/xlink" contentStyleType="text/css" data-diagram-type="CLASS" height="1488px" preserveAspectRatio="none" style="width:2726px;height:1488px;background:#FFFFFF;" version="1.1" viewBox="0 0 2726 1488" width="2726px" zoomAndPan="magnify"><?plantuml 1.2026.3?><defs/><g><g class="title" data-source-line="1"><text fill="#000000" font-family="sans-serif" font-size="14" font-weight="700" lengthAdjust="spacing" textLength="146.6992" x="1286.1787" y="24.5332">CDIFCore &#8212; overview</text></g><!--class Dataset--><g class="entity" data-qualified-name="Dataset" data-source-line="16" id="ent0002"><rect fill="#FEFECE" height="47.7344" rx="2.5" ry="2.5" style="stroke:#404040;stroke-width:0.5;" width="109.3887" x="1582.5" y="45.6094"/><text fill="#000000" font-family="sans-serif" font-size="30" lengthAdjust="spacing" textLength="103.3887" x="1585.5" y="81.752">Dataset</text></g><!--class AbstractDistribution--><g class="entity" data-qualified-name="AbstractDistribution" data-source-line="17" id="ent0003"><rect fill="#D6EAF8" height="47.7344" rx="2.5" ry="2.5" style="stroke:#404040;stroke-width:0.5;" width="266.0977" x="551" y="390.6094"/><text fill="#000000" font-family="sans-serif" font-size="30" font-style="italic" lengthAdjust="spacing" textLength="260.0977" x="554" y="426.752">AbstractDistribution</text></g><!--class DataDownload--><g class="entity" data-qualified-name="DataDownload" data-source-line="18" id="ent0004"><rect fill="#FEFECE" height="47.7344" rx="2.5" ry="2.5" style="stroke:#404040;stroke-width:0.5;" width="202.7871" x="605.5" y="736.6094"/><text fill="#000000" font-family="sans-serif" font-size="30" lengthAdjust="spacing" textLength="196.7871" x="608.5" y="772.752">DataDownload</text></g><!--class WebAPI--><g class="entity" data-qualified-name="WebAPI" data-source-line="19" id="ent0005"><rect fill="#FCF3CF" height="47.7344" rx="2.5" ry="2.5" style="stroke:#404040;stroke-width:0.5;" width="116.0391" x="428" y="736.6094"/><text fill="#000000" font-family="sans-serif" font-size="30" lengthAdjust="spacing" textLength="110.0391" x="431" y="772.752">WebAPI</text></g><!--class Action--><g class="entity" data-qualified-name="Action" data-source-line="20" id="ent0006"><rect fill="#D6EAF8" height="47.7344" rx="2.5" ry="2.5" style="stroke:#404040;stroke-width:0.5;" width="89.3789" x="420.5" y="1081.6094"/><text fill="#000000" font-family="sans-serif" font-size="30" lengthAdjust="spacing" textLength="83.3789" x="423.5" y="1117.752">Action</text></g><!--class EntryPoint--><g class="entity" data-qualified-name="EntryPoint" data-source-line="21" id="ent0007"><rect fill="#D6EAF8" height="47.7344" rx="2.5" ry="2.5" style="stroke:#404040;stroke-width:0.5;" width="144.3984" x="393" y="1426.6094"/><text fill="#000000" font-family="sans-serif" font-size="30" lengthAdjust="spacing" textLength="138.3984" x="396" y="1462.752">EntryPoint</text></g><!--class ActionResult--><g class="entity" data-qualified-name="ActionResult" data-source-line="22" id="ent0008"><rect fill="#FCF3CF" height="47.7344" rx="2.5" ry="2.5" style="stroke:#404040;stroke-width:0.5;" width="174.4131" x="557" y="1426.6094"/><text fill="#000000" font-family="sans-serif" font-size="30" lengthAdjust="spacing" textLength="168.4131" x="560" y="1462.752">ActionResult</text></g><!--class PropertyValueSpecification--><g class="entity" data-qualified-name="PropertyValueSpecification" data-source-line="23" id="ent0009"><rect fill="#D6EAF8" height="47.7344" rx="2.5" ry="2.5" style="stroke:#404040;stroke-width:0.5;" width="366.2051" x="7" y="1426.6094"/><text fill="#000000" font-family="sans-serif" font-size="30" lengthAdjust="spacing" textLength="360.2051" x="10" y="1462.752">PropertyValueSpecification</text></g><!--class Agent--><g class="entity" data-qualified-name="Agent" data-source-line="24" id="ent0010"><rect fill="#D6EAF8" height="47.7344" rx="2.5" ry="2.5" style="stroke:#404040;stroke-width:0.5;" width="84.3984" x="1236" y="1081.6094"/><text fill="#000000" font-family="sans-serif" font-size="30" font-style="italic" lengthAdjust="spacing" textLength="78.3984" x="1239" y="1117.752">Agent</text></g><!--class Person--><g class="entity" data-qualified-name="Person" data-source-line="25" id="ent0011"><rect fill="#D6EAF8" height="47.7344" rx="2.5" ry="2.5" style="stroke:#404040;stroke-width:0.5;" width="101.0537" x="1148.5" y="1426.6094"/><text fill="#000000" font-family="sans-serif" font-size="30" lengthAdjust="spacing" textLength="95.0537" x="1151.5" y="1462.752">Person</text></g><!--class ContactPoint--><g class="entity" data-qualified-name="ContactPoint" data-source-line="26" id="ent0012"><rect fill="#D6EAF8" height="47.7344" rx="2.5" ry="2.5" style="stroke:#404040;stroke-width:0.5;" width="177.7676" x="316" y="45.6094"/><text fill="#000000" font-family="sans-serif" font-size="30" lengthAdjust="spacing" textLength="171.7676" x="319" y="81.752">ContactPoint</text></g><!--class Organization--><g class="entity" data-qualified-name="Organization" data-source-line="27" id="ent0013"><rect fill="#D6EAF8" height="47.7344" rx="2.5" ry="2.5" style="stroke:#404040;stroke-width:0.5;" width="176.0977" x="1270" y="1426.6094"/><text fill="#000000" font-family="sans-serif" font-size="30" lengthAdjust="spacing" textLength="170.0977" x="1273" y="1462.752">Organization</text></g><!--class Contributor--><g class="entity" data-qualified-name="Contributor" data-source-line="28" id="ent0014"><rect fill="#D6EAF8" height="47.7344" rx="2.5" ry="2.5" style="stroke:#404040;stroke-width:0.5;" width="154.4033" x="1029" y="563.6094"/><text fill="#000000" font-family="sans-serif" font-size="30" lengthAdjust="spacing" textLength="148.4033" x="1032" y="599.752">Contributor</text></g><!--class DefinedTerm--><g class="entity" data-qualified-name="DefinedTerm" data-source-line="29" id="ent0015"><rect fill="#FAE5D3" height="47.7344" rx="2.5" ry="2.5" style="stroke:#404040;stroke-width:0.5;" width="179.3936" x="1749.5" y="390.6094"/><text fill="#000000" font-family="sans-serif" font-size="30" lengthAdjust="spacing" textLength="173.3936" x="1752.5" y="426.752">DefinedTerm</text></g><!--class Identifier--><g class="entity" data-qualified-name="Identifier" data-source-line="30" id="ent0016"><rect fill="#D6EAF8" height="47.7344" rx="2.5" ry="2.5" style="stroke:#404040;stroke-width:0.5;" width="121.0635" x="514.5" y="45.6094"/><text fill="#000000" font-family="sans-serif" font-size="30" lengthAdjust="spacing" textLength="115.0635" x="517.5" y="81.752">Identifier</text></g><!--class AdditionalProperty--><g class="entity" data-qualified-name="AdditionalProperty" data-source-line="31" id="ent0017"><rect fill="#D6EAF8" height="47.7344" rx="2.5" ry="2.5" style="stroke:#404040;stroke-width:0.5;" width="251.1416" x="279.5" y="390.6094"/><text fill="#000000" font-family="sans-serif" font-size="30" lengthAdjust="spacing" textLength="245.1416" x="282.5" y="426.752">AdditionalProperty</text></g><!--class Reference--><g class="entity" data-qualified-name="Reference" data-source-line="32" id="ent0018"><rect fill="#D6EAF8" height="47.7344" rx="2.5" ry="2.5" style="stroke:#404040;stroke-width:0.5;" width="144.4131" x="1949" y="390.6094"/><text fill="#000000" font-family="sans-serif" font-size="30" lengthAdjust="spacing" textLength="138.4131" x="1952" y="426.752">Reference</text></g><!--class MonetaryGrant--><g class="entity" data-qualified-name="MonetaryGrant" data-source-line="33" id="ent0019"><rect fill="#D6EAF8" height="47.7344" rx="2.5" ry="2.5" style="stroke:#404040;stroke-width:0.5;" width="206.083" x="1188" y="563.6094"/><text fill="#000000" font-family="sans-serif" font-size="30" lengthAdjust="spacing" textLength="200.083" x="1191" y="599.752">MonetaryGrant</text></g><!--class ProvActivity--><g class="entity" data-qualified-name="ProvActivity" data-source-line="34" id="ent0020"><rect fill="#FEFECE" height="47.7344" rx="2.5" ry="2.5" style="stroke:#404040;stroke-width:0.5;" width="162.6943" x="2113.5" y="390.6094"/><text fill="#000000" font-family="sans-serif" font-size="30" lengthAdjust="spacing" textLength="156.6943" x="2116.5" y="426.752">ProvActivity</text></g><!--class DerivedFrom--><g class="entity" data-qualified-name="DerivedFrom" data-source-line="35" id="ent0021"><rect fill="#D6EAF8" height="47.7344" rx="2.5" ry="2.5" style="stroke:#404040;stroke-width:0.5;" width="179.3643" x="2390.5" y="390.6094"/><text fill="#000000" font-family="sans-serif" font-size="30" lengthAdjust="spacing" textLength="173.3643" x="2393.5" y="426.752">DerivedFrom</text></g><!--class CatalogRecord--><g class="entity" data-qualified-name="CatalogRecord" data-source-line="36" id="ent0022"><rect fill="#FEFECE" height="47.7344" rx="2.5" ry="2.5" style="stroke:#404040;stroke-width:0.5;" width="206.1123" x="1319" y="390.6094"/><text fill="#000000" font-family="sans-serif" font-size="30" lengthAdjust="spacing" textLength="200.1123" x="1322" y="426.752">CatalogRecord</text></g><!--reverse link AbstractDistribution to DataDownload--><g class="link" data-entity-1="ent0003" data-entity-2="ent0004" data-link-type="extension" data-source-line="37" id="lnk23"><path codeLine="37" d="M686.7408,456.6693 C690.9308,519.3393 701.28,674.0594 705.46,736.6094" fill="none" id="AbstractDistribution-backto-DataDownload" style="stroke:#404040;stroke-width:1.2;"/><polygon fill="none" points="685.54,438.7094,680.7541,457.0695,692.7274,456.269,685.54,438.7094" style="stroke:#404040;stroke-width:1.2;"/></g><!--reverse link AbstractDistribution to WebAPI--><g class="link" data-entity-1="ent0003" data-entity-2="ent0005" data-link-type="extension" data-source-line="38" id="lnk24"><path codeLine="38" d="M661.721,454.3099 C625.651,516.9799 535.24,674.0594 499.24,736.6094" fill="none" id="AbstractDistribution-backto-WebAPI" style="stroke:#404040;stroke-width:1.2;"/><polygon fill="none" points="670.7,438.7094,656.5208,451.317,666.9212,457.3029,670.7,438.7094" style="stroke:#404040;stroke-width:1.2;"/></g><!--reverse link Agent to Person--><g class="link" data-entity-1="ent0010" data-entity-2="ent0011" data-link-type="extension" data-source-line="39" id="lnk25"><path codeLine="39" d="M1268.6516,1147.1905 C1254.3016,1209.5205 1218.84,1363.4794 1204.39,1426.2194" fill="none" id="Agent-backto-Person" style="stroke:#404040;stroke-width:1.2;"/><polygon fill="none" points="1272.69,1129.6494,1262.8045,1145.8444,1274.4986,1148.5366,1272.69,1129.6494" style="stroke:#404040;stroke-width:1.2;"/></g><!--reverse link Agent to Organization--><g class="link" data-entity-1="ent0010" data-entity-2="ent0013" data-link-type="extension" data-source-line="40" id="lnk26"><path codeLine="40" d="M1287.4592,1147.1787 C1301.9992,1209.5087 1337.91,1363.4794 1352.54,1426.2194" fill="none" id="Agent-backto-Organization" style="stroke:#404040;stroke-width:1.2;"/><polygon fill="none" points="1283.37,1129.6494,1281.616,1148.5418,1293.3023,1145.8157,1283.37,1129.6494" style="stroke:#404040;stroke-width:1.2;"/></g><!--link Dataset to Agent--><g class="link" data-entity-1="ent0002" data-entity-2="ent0010" data-link-type="dependency" data-source-line="41" id="lnk27"><path codeLine="41" d="M1645.11,93.8194 C1654.72,122.6494 1670.16,173.5494 1676,218.6094 C1678.68,239.3294 1677.89,244.8094 1676,265.6094 C1675.34,272.9094 1584.32,778.0794 1581,784.6094 C1513.49,917.6494 1377.8051,1030.0596 1314.6951,1077.7996" fill="none" id="Dataset-to-Agent" style="stroke:#404040;stroke-width:1.2;"/><polygon fill="#404040" points="1309.91,1081.4194,1319.5009,1079.1798,1313.8976,1078.4029,1314.6745,1072.7997,1309.91,1081.4194" style="stroke:#404040;stroke-width:1.2;"/><text fill="#000000" font-family="sans-serif" font-size="36" lengthAdjust="spacing" textLength="130.0605" x="1623" y="602.4805">provider</text><text fill="#000000" font-family="sans-serif" font-size="36" lengthAdjust="spacing" textLength="54.0352" x="1320.0039" y="1065.8126">0..*</text></g><!--link Dataset to Agent--><g class="link" data-entity-1="ent0002" data-entity-2="ent0010" data-link-type="dependency" data-source-line="43" id="lnk29"><path codeLine="43" d="M1647.26,93.7494 C1659.66,122.5194 1680.42,173.3494 1693,218.6094 C1704.85,261.2194 1770.23,569.7394 1756,611.6094 C1677.29,843.2994 1422.6486,1017.2488 1322.7486,1078.3488" fill="none" id="Dataset-to-Agent-1" style="stroke:#404040;stroke-width:1.2;"/><polygon fill="#404040" points="1317.63,1081.4794,1327.3949,1080.1959,1321.8955,1078.8706,1323.2208,1073.3712,1317.63,1081.4794" style="stroke:#404040;stroke-width:1.2;"/><text fill="#000000" font-family="sans-serif" font-size="36" lengthAdjust="spacing" textLength="112.043" x="1760" y="602.4805">creator</text><text fill="#000000" font-family="sans-serif" font-size="36" lengthAdjust="spacing" textLength="54.0352" x="1328.2202" y="1118.6343">0..*</text></g><!--link Dataset to Agent--><g class="link" data-entity-1="ent0002" data-entity-2="ent0010" data-link-type="dependency" data-source-line="45" id="lnk31"><path codeLine="45" d="M1582.16,78.1894 C1451.12,97.2294 1124.44,150.4494 1040,218.6094 C907.14,325.8594 909.55,397.2794 871,563.6094 C815.34,803.7694 1118.9636,1010.4849 1232.3536,1078.4449" fill="none" id="Dataset-to-Agent-2" style="stroke:#404040;stroke-width:1.2;"/><polygon fill="#404040" points="1237.5,1081.5294,1231.8367,1073.4717,1233.2113,1078.959,1227.724,1080.3336,1237.5,1081.5294" style="stroke:#404040;stroke-width:1.2;"/><text fill="#000000" font-family="sans-serif" font-size="36" lengthAdjust="spacing" textLength="146.0918" x="872" y="602.4805">publisher</text><text fill="#000000" font-family="sans-serif" font-size="36" lengthAdjust="spacing" textLength="60.0469" x="1168.0029" y="1067.678">0..1</text></g><!--link Dataset to AbstractDistribution--><g class="link" data-entity-1="ent0002" data-entity-2="ent0003" data-link-type="dependency" data-source-line="42" id="lnk28"><path codeLine="42" d="M1582.45,70.2594 C1397.84,70.3594 801.51,81.4394 684,218.6094 C642.37,267.1994 660.3326,344.6306 673.5726,384.8206" fill="none" id="Dataset-to-AbstractDistribution" style="stroke:#404040;stroke-width:1.2;"/><polygon fill="#404040" points="675.45,390.5194,676.4331,380.7197,673.8855,385.7704,668.8348,383.2229,675.45,390.5194" style="stroke:#404040;stroke-width:1.2;"/><text fill="#000000" font-family="sans-serif" font-size="36" lengthAdjust="spacing" textLength="174.0938" x="685" y="256.9805">distribution</text><text fill="#000000" font-family="sans-serif" font-size="36" lengthAdjust="spacing" textLength="54.0352" x="615.1121" y="374.6403">0..*</text></g><!--link Dataset to Contributor--><g class="link" data-entity-1="ent0002" data-entity-2="ent0014" data-link-type="dependency" data-source-line="44" id="lnk30"><path codeLine="44" d="M1582.08,76.4694 C1452.03,91.6094 1131.37,136.6494 1068,218.6094 C986.48,324.0494 1059.3923,494.965 1090.9623,557.975" fill="none" id="Dataset-to-Contributor" style="stroke:#404040;stroke-width:1.2;"/><polygon fill="#404040" points="1093.65,563.3394,1093.1947,553.501,1091.4102,558.8691,1086.0422,557.0847,1093.65,563.3394" style="stroke:#404040;stroke-width:1.2;"/><text fill="#000000" font-family="sans-serif" font-size="36" lengthAdjust="spacing" textLength="170.0859" x="1069" y="256.9805">contributor</text><text fill="#000000" font-family="sans-serif" font-size="36" lengthAdjust="spacing" textLength="54.0352" x="1032.8551" y="547.7189">0..*</text></g><!--link Dataset to MonetaryGrant--><g class="link" data-entity-1="ent0002" data-entity-2="ent0019" data-link-type="dependency" data-source-line="46" id="lnk32"><path codeLine="46" d="M1582.45,74.0794 C1497.92,82.7394 1337.58,112.9894 1266,218.6094 C1191.63,328.3394 1251.5232,495.7016 1278.0732,557.8616" fill="none" id="Dataset-to-MonetaryGrant" style="stroke:#404040;stroke-width:1.2;"/><polygon fill="#404040" points="1280.43,563.3794,1280.5734,553.5316,1278.466,558.7812,1273.2163,556.6739,1280.43,563.3794" style="stroke:#404040;stroke-width:1.2;"/><text fill="#000000" font-family="sans-serif" font-size="36" lengthAdjust="spacing" textLength="118.1074" x="1267" y="256.9805">funding</text><text fill="#000000" font-family="sans-serif" font-size="36" lengthAdjust="spacing" textLength="54.0352" x="1219.9685" y="547.7657">0..*</text></g><!--link Dataset to ProvActivity--><g class="link" data-entity-1="ent0002" data-entity-2="ent0020" data-link-type="dependency" data-source-line="47" id="lnk33"><path codeLine="47" d="M1691.86,76.9994 C1780.87,89.8194 1958.53,125.8594 2075,218.6094 C2133.93,265.5294 2169.235,344.2321 2184.705,384.8621" fill="none" id="Dataset-to-ProvActivity" style="stroke:#404040;stroke-width:1.2;"/><polygon fill="#404040" points="2186.84,390.4694,2187.3757,380.6351,2185.0608,385.7966,2179.8993,383.4818,2186.84,390.4694" style="stroke:#404040;stroke-width:1.2;"/><text fill="#000000" font-family="sans-serif" font-size="36" lengthAdjust="spacing" textLength="276.1523" x="2120" y="256.9805">wasGeneratedBy</text><text fill="#000000" font-family="sans-serif" font-size="36" lengthAdjust="spacing" textLength="54.0352" x="2126.6075" y="374.5814">0..*</text></g><!--link Dataset to DerivedFrom--><g class="link" data-entity-1="ent0002" data-entity-2="ent0021" data-link-type="dependency" data-source-line="48" id="lnk34"><path codeLine="48" d="M1691.62,74.4594 C1847.88,86.4994 2292.52,128.1194 2402,218.6094 C2455.54,262.8594 2471.8378,343.2767 2477.0578,384.5867" fill="none" id="Dataset-to-DerivedFrom" style="stroke:#404040;stroke-width:1.2;"/><polygon fill="#404040" points="2477.81,390.5394,2480.6502,381.1089,2477.1832,385.5788,2472.7133,382.1118,2477.81,390.5394" style="stroke:#404040;stroke-width:1.2;"/><text fill="#000000" font-family="sans-serif" font-size="36" lengthAdjust="spacing" textLength="272.0566" x="2438" y="256.9805">wasDerivedFrom</text><text fill="#000000" font-family="sans-serif" font-size="36" lengthAdjust="spacing" textLength="54.0352" x="2418.5812" y="374.6639">0..*</text></g><!--link Dataset to CatalogRecord--><g class="link" data-entity-1="ent0002" data-entity-2="ent0022" data-link-type="dependency" data-source-line="49" id="lnk35"><path codeLine="49" d="M1582.24,87.8094 C1526.05,108.7394 1441.67,150.0494 1404,218.6094 C1373.47,274.1794 1394.7794,346.6936 1409.7994,384.9936" fill="none" id="Dataset-to-CatalogRecord" style="stroke:#404040;stroke-width:1.2;"/><polygon fill="#404040" points="1411.99,390.5794,1412.428,380.7403,1410.1645,385.9245,1404.9803,383.661,1411.99,390.5794" style="stroke:#404040;stroke-width:1.2;"/><text fill="#000000" font-family="sans-serif" font-size="36" lengthAdjust="spacing" textLength="152.0684" x="1405" y="256.9805">subjectOf</text><text fill="#000000" font-family="sans-serif" font-size="36" lengthAdjust="spacing" textLength="20.0215" x="1388.4176" y="374.711">1</text></g><!--link CatalogRecord to Dataset--><g class="link" data-entity-1="ent0022" data-entity-2="ent0002" data-link-type="dependency" data-source-line="59" id="lnk45"><path codeLine="59" d="M1448.56,390.5494 C1478.68,363.2494 1527.67,315.1794 1559,265.6094 C1577.95,235.6394 1611.136,144.3084 1626.946,99.4384" fill="none" id="CatalogRecord-to-Dataset" style="stroke:#404040;stroke-width:1.2;"/><polygon fill="#404040" points="1628.94,93.7794,1622.1764,100.9386,1627.2784,98.4952,1629.7217,103.5972,1628.94,93.7794" style="stroke:#404040;stroke-width:1.2;"/><text fill="#000000" font-family="sans-serif" font-size="36" lengthAdjust="spacing" textLength="90.0879" x="1582" y="256.9805">about</text><text fill="#000000" font-family="sans-serif" font-size="36" lengthAdjust="spacing" textLength="60.0469" x="1562.847" y="138.6321">0..1</text></g><!--link Dataset to DefinedTerm--><g class="link" data-entity-1="ent0002" data-entity-2="ent0015" data-link-type="dependency" data-source-line="50" id="lnk36"><path codeLine="50" d="M1653.09,93.7994 C1672.87,122.5994 1707.12,173.4694 1734,218.6094 C1770.2,279.3994 1805.8831,348.1897 1824.6231,385.0897" fill="none" id="Dataset-to-DefinedTerm" style="stroke:#404040;stroke-width:1.2;"/><polygon fill="#404040" points="1827.34,390.4394,1826.8311,380.6037,1825.0759,385.9813,1819.6983,384.2262,1827.34,390.4394" style="stroke:#404040;stroke-width:1.2;"/><text fill="#000000" font-family="sans-serif" font-size="36" lengthAdjust="spacing" textLength="152.0508" x="1760" y="256.9805">keywords</text><text fill="#000000" font-family="sans-serif" font-size="36" lengthAdjust="spacing" textLength="54.0352" x="1766.6645" y="374.8361">0..*</text></g><!--link Dataset to Reference--><g class="link" data-entity-1="ent0002" data-entity-2="ent0018" data-link-type="dependency" data-source-line="51" id="lnk37"><path codeLine="51" d="M1691.65,88.2394 C1753.12,110.3794 1852.85,153.5394 1918,218.6094 C1968.93,269.4794 1998.6979,345.1089 2011.9379,384.7189" fill="none" id="Dataset-to-Reference" style="stroke:#404040;stroke-width:1.2;"/><polygon fill="#404040" points="2013.84,390.4094,2014.7805,380.6055,2012.2549,385.6673,2007.1932,383.1417,2013.84,390.4094" style="stroke:#404040;stroke-width:1.2;"/><text fill="#000000" font-family="sans-serif" font-size="36" lengthAdjust="spacing" textLength="112.0605" x="1957" y="256.9805">license</text><text fill="#000000" font-family="sans-serif" font-size="36" lengthAdjust="spacing" textLength="54.0352" x="1953.9363" y="374.8009">0..*</text></g><!--link DataDownload to Agent--><g class="link" data-entity-1="ent0004" data-entity-2="ent0010" data-link-type="dependency" data-source-line="52" id="lnk38"><path codeLine="52" d="M706.34,784.8994 C705.53,830.9294 706.37,931.3194 728,956.6094 C795.17,1035.1294 1113.3011,1083.3081 1230.0311,1098.6381" fill="none" id="DataDownload-to-Agent" style="stroke:#404040;stroke-width:1.2;"/><polygon fill="#404040" points="1235.98,1099.4194,1227.5775,1094.2815,1231.0226,1098.7683,1226.5358,1102.2134,1235.98,1099.4194" style="stroke:#404040;stroke-width:1.2;"/><text fill="#000000" font-family="sans-serif" font-size="36" lengthAdjust="spacing" textLength="130.0605" x="729" y="947.9805">provider</text><text fill="#000000" font-family="sans-serif" font-size="36" lengthAdjust="spacing" textLength="54.0352" x="1173.9786" y="1138.7079">0..*</text></g><!--link WebAPI to Action--><g class="link" data-entity-1="ent0005" data-entity-2="ent0006" data-link-type="dependency" data-source-line="53" id="lnk39"><path codeLine="53" d="M481.67,784.8294 C476.49,813.8794 468.13,865.2094 465,909.6094 C460.63,971.5794 462.2855,1038.904 463.7155,1075.464" fill="none" id="WebAPI-to-Action" style="stroke:#404040;stroke-width:1.2;"/><polygon fill="#404040" points="463.95,1081.4594,467.5952,1072.3099,463.7546,1076.4632,459.6013,1072.6226,463.95,1081.4594" style="stroke:#404040;stroke-width:1.2;"/><text fill="#000000" font-family="sans-serif" font-size="36" lengthAdjust="spacing" textLength="236.1621" x="466" y="947.9805">potentialAction</text><text fill="#000000" font-family="sans-serif" font-size="36" lengthAdjust="spacing" textLength="54.0352" x="404.923" y="1065.5696">0..*</text></g><!--link Action to EntryPoint--><g class="link" data-entity-1="ent0006" data-entity-2="ent0007" data-link-type="dependency" data-source-line="54" id="lnk40"><path codeLine="54" d="M465,1129.6494 C465,1191.9794 465,1357.4794 465,1420.2194" fill="none" id="Action-to-EntryPoint" style="stroke:#404040;stroke-width:1.2;"/><polygon fill="#404040" points="465,1426.2194,469,1417.2194,465,1421.2194,461,1417.2194,465,1426.2194" style="stroke:#404040;stroke-width:1.2;"/><text fill="#000000" font-family="sans-serif" font-size="36" lengthAdjust="spacing" textLength="92.0566" x="466" y="1292.9805">target</text><text fill="#000000" font-family="sans-serif" font-size="36" lengthAdjust="spacing" textLength="20.0215" x="443.2489" y="1410.5782">1</text></g><!--link Action to ActionResult--><g class="link" data-entity-1="ent0006" data-entity-2="ent0008" data-link-type="dependency" data-source-line="55" id="lnk41"><path codeLine="55" d="M482.65,1129.7894 C503.74,1158.1794 539.29,1208.2294 564,1254.6094 C595.74,1314.1994 621.3147,1383.5104 634.2247,1420.7504" fill="none" id="Action-to-ActionResult" style="stroke:#404040;stroke-width:1.2;"/><polygon fill="#404040" points="636.19,1426.4194,637.0214,1416.6057,634.5523,1421.6952,629.4627,1419.226,636.19,1426.4194" style="stroke:#404040;stroke-width:1.2;"/><text fill="#000000" font-family="sans-serif" font-size="36" lengthAdjust="spacing" textLength="88.0313" x="588" y="1292.9805">result</text><text fill="#000000" font-family="sans-serif" font-size="36" lengthAdjust="spacing" textLength="60.0469" x="569.6599" y="1410.8126">0..1</text></g><!--link Action to PropertyValueSpecification--><g class="link" data-entity-1="ent0006" data-entity-2="ent0009" data-link-type="dependency" data-source-line="56" id="lnk42"><path codeLine="56" d="M429.36,1129.7794 C390.71,1156.2994 329.04,1202.8094 288,1254.6094 C244.12,1309.9994 214.2326,1382.5487 200.1126,1420.9087" fill="none" id="Action-to-PropertyValueSpecification" style="stroke:#404040;stroke-width:1.2;"/><polygon fill="#404040" points="198.04,1426.5394,204.9027,1419.4751,199.7672,1421.8472,197.3951,1416.7117,198.04,1426.5394" style="stroke:#404040;stroke-width:1.2;"/><text fill="#000000" font-family="sans-serif" font-size="36" lengthAdjust="spacing" textLength="170.1211" x="289" y="1292.9805">queryInput</text><text fill="#000000" font-family="sans-serif" font-size="36" lengthAdjust="spacing" textLength="54.0352" x="140.6476" y="1410.6639">0..*</text></g><!--link Contributor to Agent--><g class="link" data-entity-1="ent0014" data-entity-2="ent0010" data-link-type="dependency" data-source-line="57" id="lnk43"><path codeLine="57" d="M1103.1,611.7094 C1099.18,648.8394 1094.35,723.7994 1110,784.6094 C1140.97,904.9294 1221.0407,1025.6683 1257.3207,1076.4183" fill="none" id="Contributor-to-Agent" style="stroke:#404040;stroke-width:1.2;"/><polygon fill="#404040" points="1260.81,1081.2994,1258.83,1071.6516,1257.9022,1077.2318,1252.322,1076.304,1260.81,1081.2994" style="stroke:#404040;stroke-width:1.2;"/><text fill="#000000" font-family="sans-serif" font-size="36" lengthAdjust="spacing" textLength="170.0859" x="1111" y="775.4805">contributor</text><text fill="#000000" font-family="sans-serif" font-size="36" lengthAdjust="spacing" textLength="60.0469" x="1262.9815" y="1065.672">0..1</text></g><!--link MonetaryGrant to Agent--><g class="link" data-entity-1="ent0019" data-entity-2="ent0010" data-link-type="dependency" data-source-line="58" id="lnk44"><path codeLine="58" d="M1290.42,611.7794 C1288.26,697.4794 1280.8914,989.9113 1278.7314,1075.5013" fill="none" id="MonetaryGrant-to-Agent" style="stroke:#404040;stroke-width:1.2;"/><polygon fill="#404040" points="1278.58,1081.4994,1282.8058,1072.6032,1278.7061,1076.501,1274.8083,1072.4013,1278.58,1081.4994" style="stroke:#404040;stroke-width:1.2;"/><text fill="#000000" font-family="sans-serif" font-size="36" lengthAdjust="spacing" textLength="102.0762" x="1289" y="775.4805">funder</text><text fill="#000000" font-family="sans-serif" font-size="36" lengthAdjust="spacing" textLength="54.0352" x="1219.8416" y="1065.6168">0..*</text></g><!--link CatalogRecord to Agent--><g class="link" data-entity-1="ent0022" data-entity-2="ent0010" data-link-type="dependency" data-source-line="60" id="lnk46"><path codeLine="60" d="M1422.72,438.8194 C1424.06,497.4894 1424.61,656.2394 1397,784.6094 C1372.2,899.9294 1316.6258,1023.9104 1291.9558,1075.8104" fill="none" id="CatalogRecord-to-Agent" style="stroke:#404040;stroke-width:1.2;"/><polygon fill="#404040" points="1289.38,1081.2294,1296.8564,1074.8182,1291.5265,1076.7136,1289.6311,1071.3837,1289.38,1081.2294" style="stroke:#404040;stroke-width:1.2;"/><text fill="#000000" font-family="sans-serif" font-size="36" lengthAdjust="spacing" textLength="168.082" x="1407" y="775.4805">maintainer</text><text fill="#000000" font-family="sans-serif" font-size="36" lengthAdjust="spacing" textLength="60.0469" x="1167.3539" y="1113.2988">0..1</text></g><?plantuml-src VLNRRjim37ttLmZfsu0KQRiMWp4CIEsuoCFGe2ksPrcc4osEv55o0dSRi8_O5-vBfbY-o9SMGG3nw8YaU4XPSvq12S9r54W4yk_FNoAFW4SE9s_74o2C8yl0hk6Gwv8Su103Aa_jkSWfqWDHEvh84nTRaj9CWREpH9IdvnrdUm5AaQlBQsSJgTWhoCdrxS91XKoWGbqmWPGMcOwaq5_u2v2REsUJPTJu_kaH6owGcKHoyNvn_XdmNc82E4HTL-QWriZZGaC7BxpVdcTTpqAggG8z8rIHUaqkebMq2bOUZPL6odITncnPso5NrYUNeZeujK4kmhlLClhW1WhbIMII9csq1cX3rkHl42ytwufcbuOGH3T1r12Mh0lEfiAjXCPo8xcmL-lC8T4UVm9bH73yMM0OTeCo1zJbLveLy2K7nbFEQ9lAwzjjr55Djr2dMAs6sMrCEpREg-MG41XLZRlkfYum93_YbWh-qYNi0bEUAp4bjevhUwGjf5n0yWnuiD9sjgdWSdKRtZJKTM9kQSe2rcbdZdH94dvEYsPDLMsLHl3mu1EaW20OLFpM6j8-Im6QOlbWPjLMheUCX41vF7V6aTU9kC2mVKD0VeGaGjdKexL7LJPJaCdj4p0poxREBj9wdXonZx_cyzuSlK6pS-JPBgiGsr0kuhQ3rxm6y_adCbjSNhwRrItgazpStRoQECcPoi0dYME-vPeXKDDXKnIt0GsniqRaAoVL8iwusatdsbVS9saX4lFMJr5xSllaHDK3242g8RalfmwucbTy1-ZpJRPzpNsYYlWxCFsOJdlkfiidUoXFvf2QOdRDxvECCn3c2zPxTj_IjdvuNGghnSobFeyjpIpYrHlDRPp7rYUclblGFKgjaFlE-WIhnP1dA__Qe-gJ7mLWkHPveJstFIOQmUsNlkuJHJWtWYb1NnR7QLDhdz1OdcE_HcmS7gYfXlaRf_y1?></g></svg>