<svg xmlns="http://www.w3.org/2000/svg" xmlns:xlink="http://www.w3.org/1999/xlink" contentStyleType="text/css" data-diagram-type="CLASS" height="1071px" preserveAspectRatio="none" style="width:7229px;height:1071px;background:#FFFFFF;" version="1.1" viewBox="0 0 7229 1071" width="7229px" zoomAndPan="magnify"><?plantuml 1.2026.3?><defs/><g><g class="title" data-source-line="1"><text fill="#000000" font-family="sans-serif" font-size="14" font-weight="700" lengthAdjust="spacing" textLength="50.5791" x="3585.7967" y="24.5332">Dataset</text></g><!--class Dataset--><g class="entity" data-qualified-name="Dataset" data-source-line="16" id="ent0002"><rect fill="#FEFECE" height="621.75" rx="2.5" ry="2.5" style="stroke:#404040;stroke-width:0.5;" width="531.6035" x="3045.03" y="45.6094"/><text fill="#000000" font-family="sans-serif" font-size="30" lengthAdjust="spacing" textLength="103.3887" x="3259.1374" y="81.752">Dataset</text><line style="stroke:#404040;stroke-width:0.5;" x1="3046.03" x2="3575.6335" y1="93.3438" y2="93.3438"/><g data-visibility-modifier="PUBLIC_FIELD"><ellipse cx="3056.03" cy="117.7109" fill="none" rx="3" ry="3" style="stroke:#038048;stroke-width:1;"/></g><text fill="#000000" font-family="sans-serif" font-size="30" lengthAdjust="spacing" textLength="295.1514" x="3072.03" y="128.4863">identifier : Identifier [1]</text><g data-visibility-modifier="PUBLIC_FIELD"><ellipse cx="3056.03" cy="155.4453" fill="none" rx="3" ry="3" style="stroke:#038048;stroke-width:1;"/></g><text fill="#000000" font-family="sans-serif" font-size="30" lengthAdjust="spacing" textLength="215.0977" x="3072.03" y="166.2207">name : string [1]</text><g data-visibility-modifier="PUBLIC_FIELD"><ellipse cx="3056.03" cy="193.1797" fill="none" rx="3" ry="3" style="stroke:#038048;stroke-width:1;"/></g><text fill="#000000" font-family="sans-serif" font-size="30" lengthAdjust="spacing" textLength="318.4863" x="3072.03" y="203.9551">description : string [0..1]</text><g data-visibility-modifier="PUBLIC_FIELD"><ellipse cx="3056.03" cy="230.9141" fill="none" rx="3" ry="3" style="stroke:#038048;stroke-width:1;"/></g><text fill="#000000" font-family="sans-serif" font-size="30" lengthAdjust="spacing" textLength="463.5645" x="3072.03" y="241.6895">additionalType : DefinedTerm [0..*]</text><g data-visibility-modifier="PUBLIC_FIELD"><ellipse cx="3056.03" cy="268.6484" fill="none" rx="3" ry="3" style="stroke:#038048;stroke-width:1;"/></g><text fill="#000000" font-family="sans-serif" font-size="30" lengthAdjust="spacing" textLength="318.4717" x="3072.03" y="279.4238">sameAs : Identifier [0..*]</text><g data-visibility-modifier="PUBLIC_FIELD"><ellipse cx="3056.03" cy="306.3828" fill="none" rx="3" ry="3" style="stroke:#038048;stroke-width:1;"/></g><text fill="#000000" font-family="sans-serif" font-size="30" lengthAdjust="spacing" textLength="270.1172" x="3072.03" y="317.1582">version : string [0..1]</text><g data-visibility-modifier="PUBLIC_FIELD"><ellipse cx="3056.03" cy="344.1172" fill="none" rx="3" ry="3" style="stroke:#038048;stroke-width:1;"/></g><text fill="#000000" font-family="sans-serif" font-size="30" lengthAdjust="spacing" textLength="442.0459" x="3072.03" y="354.8926">inLanguage : XsdLanguage [0..1]</text><g data-visibility-modifier="PUBLIC_FIELD"><ellipse cx="3056.03" cy="381.8516" fill="none" rx="3" ry="3" style="stroke:#038048;stroke-width:1;"/></g><text fill="#000000" font-family="sans-serif" font-size="30" lengthAdjust="spacing" textLength="353.54" x="3072.03" y="392.627">dateModified : XsdDate [1]</text><g data-visibility-modifier="PUBLIC_FIELD"><ellipse cx="3056.03" cy="419.5859" fill="none" rx="3" ry="3" style="stroke:#038048;stroke-width:1;"/></g><text fill="#000000" font-family="sans-serif" font-size="30" lengthAdjust="spacing" textLength="405.2637" x="3072.03" y="430.3613">datePublished : XsdDate [0..1]</text><g data-visibility-modifier="PUBLIC_FIELD"><ellipse cx="3056.03" cy="457.3203" fill="none" rx="3" ry="3" style="stroke:#038048;stroke-width:1;"/></g><text fill="#000000" font-family="sans-serif" font-size="30" lengthAdjust="spacing" textLength="275.0977" x="3072.03" y="468.0957">url : XsdAnyUri [0..1]</text><g data-visibility-modifier="PUBLIC_FIELD"><ellipse cx="3056.03" cy="495.0547" fill="none" rx="3" ry="3" style="stroke:#038048;stroke-width:1;"/></g><text fill="#000000" font-family="sans-serif" font-size="30" lengthAdjust="spacing" textLength="326.8359" x="3072.03" y="505.8301">license : Reference [0..*]</text><g data-visibility-modifier="PUBLIC_FIELD"><ellipse cx="3056.03" cy="532.7891" fill="none" rx="3" ry="3" style="stroke:#038048;stroke-width:1;"/></g><text fill="#000000" font-family="sans-serif" font-size="30" lengthAdjust="spacing" textLength="496.9043" x="3072.03" y="543.5645">conditionsOfAccess : Reference [0..*]</text><g data-visibility-modifier="PUBLIC_FIELD"><ellipse cx="3056.03" cy="570.5234" fill="none" rx="3" ry="3" style="stroke:#038048;stroke-width:1;"/></g><text fill="#000000" font-family="sans-serif" font-size="30" lengthAdjust="spacing" textLength="498.6035" x="3072.03" y="581.2988">publishingPrinciples : Reference [0..*]</text><g data-visibility-modifier="PUBLIC_FIELD"><ellipse cx="3056.03" cy="608.2578" fill="none" rx="3" ry="3" style="stroke:#038048;stroke-width:1;"/></g><text fill="#000000" font-family="sans-serif" font-size="30" lengthAdjust="spacing" textLength="395.1416" x="3072.03" y="619.0332">keywords : DefinedTerm [0..*]</text><g data-visibility-modifier="PUBLIC_FIELD"><ellipse cx="3056.03" cy="645.9922" fill="none" rx="3" ry="3" style="stroke:#038048;stroke-width:1;"/></g><text fill="#000000" font-family="sans-serif" font-size="30" lengthAdjust="spacing" textLength="380.2148" x="3072.03" y="656.7676">relatedLink : Reference [0..*]</text></g><!--class Agent--><g class="entity" data-qualified-name="Agent" data-source-line="33" id="ent0003"><rect fill="#EEEEEE" height="47.7344" rx="2.5" ry="2.5" style="stroke:#404040;stroke-width:0.5;" width="84.3984" x="179.03" y="987.1094"/><text fill="#000000" font-family="sans-serif" font-size="30" font-style="italic" lengthAdjust="spacing" textLength="78.3984" x="182.03" y="1023.252">Agent</text></g><!--class AbstractDistribution--><g class="entity" data-qualified-name="AbstractDistribution" data-source-line="35" id="ent0005"><rect fill="#EEEEEE" height="47.7344" rx="2.5" ry="2.5" style="stroke:#404040;stroke-width:0.5;" width="266.0977" x="369.03" y="987.1094"/><text fill="#000000" font-family="sans-serif" font-size="30" font-style="italic" lengthAdjust="spacing" textLength="260.0977" x="372.03" y="1023.252">AbstractDistribution</text></g><!--class Contributor--><g class="entity" data-qualified-name="Contributor" data-source-line="38" id="ent0008"><rect fill="#EEEEEE" height="47.7344" rx="2.5" ry="2.5" style="stroke:#404040;stroke-width:0.5;" width="154.4033" x="655.03" y="987.1094"/><text fill="#000000" font-family="sans-serif" font-size="30" lengthAdjust="spacing" textLength="148.4033" x="658.03" y="1023.252">Contributor</text></g><!--class MonetaryGrant--><g class="entity" data-qualified-name="MonetaryGrant" data-source-line="41" id="ent0011"><rect fill="#EEEEEE" height="47.7344" rx="2.5" ry="2.5" style="stroke:#404040;stroke-width:0.5;" width="206.083" x="829.03" y="987.1094"/><text fill="#000000" font-family="sans-serif" font-size="30" lengthAdjust="spacing" textLength="200.083" x="832.03" y="1023.252">MonetaryGrant</text></g><!--class ProvActivity--><g class="entity" data-qualified-name="ProvActivity" data-source-line="43" id="ent0013"><rect fill="#EEEEEE" height="47.7344" rx="2.5" ry="2.5" style="stroke:#404040;stroke-width:0.5;" width="162.6943" x="1055.53" y="987.1094"/><text fill="#000000" font-family="sans-serif" font-size="30" lengthAdjust="spacing" textLength="156.6943" x="1058.53" y="1023.252">ProvActivity</text></g><!--class DerivedFrom--><g class="entity" data-qualified-name="DerivedFrom" data-source-line="45" id="ent0015"><rect fill="#EEEEEE" height="47.7344" rx="2.5" ry="2.5" style="stroke:#404040;stroke-width:0.5;" width="179.3643" x="1289.53" y="987.1094"/><text fill="#000000" font-family="sans-serif" font-size="30" lengthAdjust="spacing" textLength="173.3643" x="1292.53" y="1023.252">DerivedFrom</text></g><!--class CatalogRecord--><g class="entity" data-qualified-name="CatalogRecord" data-source-line="47" id="ent0017"><rect fill="#EEEEEE" height="47.7344" rx="2.5" ry="2.5" style="stroke:#404040;stroke-width:0.5;" width="206.1123" x="1664.03" y="987.1094"/><text fill="#000000" font-family="sans-serif" font-size="30" lengthAdjust="spacing" textLength="200.1123" x="1667.03" y="1023.252">CatalogRecord</text></g><!--class DefinedTerm--><g class="entity" data-qualified-name="DefinedTerm" data-source-line="49" id="ent0019"><rect fill="#EEEEEE" height="47.7344" rx="2.5" ry="2.5" style="stroke:#404040;stroke-width:0.5;" width="179.3936" x="2063.53" y="987.1094"/><text fill="#000000" font-family="sans-serif" font-size="30" lengthAdjust="spacing" textLength="173.3936" x="2066.53" y="1023.252">DefinedTerm</text></g><!--class Reference--><g class="entity" data-qualified-name="Reference" data-source-line="51" id="ent0021"><rect fill="#EEEEEE" height="47.7344" rx="2.5" ry="2.5" style="stroke:#404040;stroke-width:0.5;" width="144.4131" x="3067.03" y="987.1094"/><text fill="#000000" font-family="sans-serif" font-size="30" lengthAdjust="spacing" textLength="138.4131" x="3070.03" y="1023.252">Reference</text></g><!--class VariableMeasured--><g class="entity" data-qualified-name="VariableMeasured" data-source-line="54" id="ent0024"><rect fill="#EEEEEE" height="47.7344" rx="2.5" ry="2.5" style="stroke:#404040;stroke-width:0.5;" width="249.4717" x="3734.53" y="987.1094"/><text fill="#000000" font-family="sans-serif" font-size="30" lengthAdjust="spacing" textLength="243.4717" x="3737.53" y="1023.252">VariableMeasured</text></g><!--class SpatialExtent--><g class="entity" data-qualified-name="SpatialExtent" data-source-line="56" id="ent0026"><rect fill="#EEEEEE" height="47.7344" rx="2.5" ry="2.5" style="stroke:#404040;stroke-width:0.5;" width="182.7773" x="4080.53" y="987.1094"/><text fill="#000000" font-family="sans-serif" font-size="30" lengthAdjust="spacing" textLength="176.7773" x="4083.53" y="1023.252">SpatialExtent</text></g><!--class TemporalExtent--><g class="entity" data-qualified-name="TemporalExtent" data-source-line="58" id="ent0028"><rect fill="#EEEEEE" height="47.7344" rx="2.5" ry="2.5" style="stroke:#404040;stroke-width:0.5;" width="217.7578" x="4350.03" y="987.1094"/><text fill="#000000" font-family="sans-serif" font-size="30" lengthAdjust="spacing" textLength="211.7578" x="4353.03" y="1023.252">TemporalExtent</text></g><!--class QualityMeasure--><g class="entity" data-qualified-name="QualityMeasure" data-source-line="60" id="ent0030"><rect fill="#EEEEEE" height="47.7344" rx="2.5" ry="2.5" style="stroke:#404040;stroke-width:0.5;" width="216.0879" x="4674.03" y="987.1094"/><text fill="#000000" font-family="sans-serif" font-size="30" lengthAdjust="spacing" textLength="210.0879" x="4677.03" y="1023.252">QualityMeasure</text></g><!--class InstanceVariable--><g class="entity" data-qualified-name="InstanceVariable" data-source-line="62" id="ent0032"><rect fill="#EEEEEE" height="47.7344" rx="2.5" ry="2.5" style="stroke:#404040;stroke-width:0.5;" width="229.4766" x="5084.53" y="987.1094"/><text fill="#000000" font-family="sans-serif" font-size="30" lengthAdjust="spacing" textLength="223.4766" x="5087.53" y="1023.252">InstanceVariable</text></g><!--class PrimaryKey--><g class="entity" data-qualified-name="PrimaryKey" data-source-line="64" id="ent0034"><rect fill="#EEEEEE" height="47.7344" rx="2.5" ry="2.5" style="stroke:#404040;stroke-width:0.5;" width="161.0244" x="5431.53" y="987.1094"/><text fill="#000000" font-family="sans-serif" font-size="30" lengthAdjust="spacing" textLength="155.0244" x="5434.53" y="1023.252">PrimaryKey</text></g><!--class Statistics--><g class="entity" data-qualified-name="Statistics" data-source-line="66" id="ent0036"><rect fill="#EEEEEE" height="47.7344" rx="2.5" ry="2.5" style="stroke:#404040;stroke-width:0.5;" width="126.0293" x="5710.03" y="987.1094"/><text fill="#000000" font-family="sans-serif" font-size="30" lengthAdjust="spacing" textLength="120.0293" x="5713.03" y="1023.252">Statistics</text></g><!--class DataDownload--><g class="entity" data-qualified-name="DataDownload" data-source-line="68" id="ent0038"><rect fill="#EEEEEE" height="47.7344" rx="2.5" ry="2.5" style="stroke:#404040;stroke-width:0.5;" width="202.7871" x="5856.53" y="987.1094"/><text fill="#000000" font-family="sans-serif" font-size="30" lengthAdjust="spacing" textLength="196.7871" x="5859.53" y="1023.252">DataDownload</text></g><!--class WebAPI--><g class="entity" data-qualified-name="WebAPI" data-source-line="70" id="ent0040"><rect fill="#EEEEEE" height="47.7344" rx="2.5" ry="2.5" style="stroke:#404040;stroke-width:0.5;" width="116.0391" x="6091.03" y="987.1094"/><text fill="#000000" font-family="sans-serif" font-size="30" lengthAdjust="spacing" textLength="110.0391" x="6094.03" y="1023.252">WebAPI</text></g><!--class Identifier--><g class="entity" data-qualified-name="Identifier" data-source-line="73" id="ent0043"><rect fill="#EEEEEE" height="47.7344" rx="2.5" ry="2.5" style="stroke:#404040;stroke-width:0.5;" width="121.0635" x="6360.53" y="987.1094"/><text fill="#000000" font-family="sans-serif" font-size="30" lengthAdjust="spacing" textLength="115.0635" x="6363.53" y="1023.252">Identifier</text></g><!--class XsdLanguage--><g class="entity" data-qualified-name="XsdLanguage" data-source-line="77" id="ent0047"><rect fill="#FAE5D3" height="93.0156" rx="2.5" ry="2.5" style="stroke:#404040;stroke-width:0.5;" width="192.1426" x="6574.03" y="964.6094"/><text fill="#000000" font-family="sans-serif" font-size="36" font-style="italic" lengthAdjust="spacing" textLength="190.1426" x="6575.03" y="1006.9805">&#171;dataType&#187;</text><text fill="#000000" font-family="sans-serif" font-size="30" lengthAdjust="spacing" textLength="185.1709" x="6577.5158" y="1046.0332">XsdLanguage</text></g><!--class XsdDate--><g class="entity" data-qualified-name="XsdDate" data-source-line="79" id="ent0049"><rect fill="#FAE5D3" height="93.0156" rx="2.5" ry="2.5" style="stroke:#404040;stroke-width:0.5;" width="192.1426" x="6789.03" y="964.6094"/><text fill="#000000" font-family="sans-serif" font-size="36" font-style="italic" lengthAdjust="spacing" textLength="190.1426" x="6790.03" y="1006.9805">&#171;dataType&#187;</text><text fill="#000000" font-family="sans-serif" font-size="30" lengthAdjust="spacing" textLength="115.0635" x="6827.5696" y="1046.0332">XsdDate</text></g><!--class XsdAnyUri--><g class="entity" data-qualified-name="XsdAnyUri" data-source-line="81" id="ent0051"><rect fill="#FAE5D3" height="93.0156" rx="2.5" ry="2.5" style="stroke:#404040;stroke-width:0.5;" width="192.1426" x="7022.03" y="964.6094"/><text fill="#000000" font-family="sans-serif" font-size="36" font-style="italic" lengthAdjust="spacing" textLength="190.1426" x="7023.03" y="1006.9805">&#171;dataType&#187;</text><text fill="#000000" font-family="sans-serif" font-size="30" lengthAdjust="spacing" textLength="141.709" x="7047.2468" y="1046.0332">XsdAnyUri</text></g><!--link Dataset to Agent--><g class="link" data-entity-1="ent0002" data-entity-2="ent0003" data-link-type="dependency" data-source-line="34" id="lnk4"><path codeLine="34" d="M3045,373.4494 C2304.35,420.2394 259.92,568.7294 64.03,792.6094 C6,858.9394 114.5346,942.7968 177.7046,983.7268" fill="none" id="Dataset-to-Agent" style="stroke:#404040;stroke-width:1.2;"/><polygon fill="#404040" points="182.74,986.9894,177.362,978.7385,178.5438,984.2705,173.0118,985.4524,182.74,986.9894" style="stroke:#404040;stroke-width:1.2;"/><text fill="#000000" font-family="sans-serif" font-size="36" lengthAdjust="spacing" textLength="130.0605" x="65.03" y="830.9805">provider</text><text fill="#000000" font-family="sans-serif" font-size="36" lengthAdjust="spacing" textLength="54.0352" x="117.0779" y="971.105">0..*</text></g><!--link Dataset to Agent--><g class="link" data-entity-1="ent0002" data-entity-2="ent0003" data-link-type="dependency" data-source-line="37" id="lnk7"><path codeLine="37" d="M3044.72,375.3694 C2329.06,425.7994 405.77,580.0394 221.03,792.6094 C173.23,847.6194 195.5719,937.6276 210.4219,981.3876" fill="none" id="Dataset-to-Agent-1" style="stroke:#404040;stroke-width:1.2;"/><polygon fill="#404040" points="212.35,987.0694,213.2457,977.2613,210.7432,982.3346,205.67,979.8321,212.35,987.0694" style="stroke:#404040;stroke-width:1.2;"/><text fill="#000000" font-family="sans-serif" font-size="36" lengthAdjust="spacing" textLength="112.043" x="222.03" y="830.9805">creator</text><text fill="#000000" font-family="sans-serif" font-size="36" lengthAdjust="spacing" textLength="54.0352" x="215.5809" y="971.1992">0..*</text></g><!--link Dataset to Agent--><g class="link" data-entity-1="ent0002" data-entity-2="ent0003" data-link-type="dependency" data-source-line="40" id="lnk10"><path codeLine="40" d="M3044.92,366.6494 C2403.19,393.1394 791.72,488.9094 361.03,792.6094 C341.7,806.2394 348.22,819.3294 336.03,839.6094 C303.48,893.7794 264.4607,949.6693 241.3207,982.0193" fill="none" id="Dataset-to-Agent-2" style="stroke:#404040;stroke-width:1.2;"/><polygon fill="#404040" points="237.83,986.8994,246.3194,981.9064,240.7389,982.8327,239.8127,977.2522,237.83,986.8994" style="stroke:#404040;stroke-width:1.2;"/><text fill="#000000" font-family="sans-serif" font-size="36" lengthAdjust="spacing" textLength="146.0918" x="362.03" y="830.9805">publisher</text><text fill="#000000" font-family="sans-serif" font-size="36" lengthAdjust="spacing" textLength="60.0469" x="271.0498" y="1023.2469">0..1</text></g><!--link Dataset to AbstractDistribution--><g class="link" data-entity-1="ent0002" data-entity-2="ent0005" data-link-type="dependency" data-source-line="36" id="lnk6"><path codeLine="36" d="M3044.78,360.4094 C2418.51,372.8494 878.78,439.4894 532.03,792.6094 C505.39,819.7394 502.0703,930.6694 501.9003,980.9694" fill="none" id="Dataset-to-AbstractDistribution" style="stroke:#404040;stroke-width:1.2;"/><polygon fill="#404040" points="501.88,986.9694,505.9104,977.9829,501.8969,981.9694,497.9104,977.9559,501.88,986.9694" style="stroke:#404040;stroke-width:1.2;"/><text fill="#000000" font-family="sans-serif" font-size="36" lengthAdjust="spacing" textLength="174.0938" x="533.03" y="830.9805">distribution</text><text fill="#000000" font-family="sans-serif" font-size="36" lengthAdjust="spacing" textLength="54.0352" x="443.0383" y="971.0814">0..*</text></g><!--link Dataset to Contributor--><g class="link" data-entity-1="ent0002" data-entity-2="ent0008" data-link-type="dependency" data-source-line="39" id="lnk9"><path codeLine="39" d="M3044.76,361.4594 C2448.12,376.2394 1033.03,447.7094 736.03,792.6094 C688.59,847.6994 708.4567,937.1905 722.1067,981.0405" fill="none" id="Dataset-to-Contributor" style="stroke:#404040;stroke-width:1.2;"/><polygon fill="#404040" points="723.89,986.7694,725.0342,976.9872,722.4039,981.9953,717.3958,979.365,723.89,986.7694" style="stroke:#404040;stroke-width:1.2;"/><text fill="#000000" font-family="sans-serif" font-size="36" lengthAdjust="spacing" textLength="170.0859" x="737.03" y="830.9805">contributor</text><text fill="#000000" font-family="sans-serif" font-size="36" lengthAdjust="spacing" textLength="54.0352" x="663.8187" y="971.1368">0..*</text></g><!--link Dataset to MonetaryGrant--><g class="link" data-entity-1="ent0002" data-entity-2="ent0011" data-link-type="dependency" data-source-line="42" id="lnk12"><path codeLine="42" d="M3044.84,365.6494 C2482.91,388.7494 1205.12,475.7294 936.03,792.6094 C888.97,848.0294 908.6573,937.3472 922.1873,981.0972" fill="none" id="Dataset-to-MonetaryGrant" style="stroke:#404040;stroke-width:1.2;"/><polygon fill="#404040" points="923.96,986.8294,925.1224,977.0493,922.4827,982.0526,917.4795,979.413,923.96,986.8294" style="stroke:#404040;stroke-width:1.2;"/><text fill="#000000" font-family="sans-serif" font-size="36" lengthAdjust="spacing" textLength="118.1074" x="937.03" y="830.9805">funding</text><text fill="#000000" font-family="sans-serif" font-size="36" lengthAdjust="spacing" textLength="54.0352" x="863.9282" y="971.2072">0..*</text></g><!--link Dataset to ProvActivity--><g class="link" data-entity-1="ent0002" data-entity-2="ent0013" data-link-type="dependency" data-source-line="44" id="lnk14"><path codeLine="44" d="M3044.82,368.6994 C2507.97,397.2194 1325.6,493.3494 1079.03,792.6094 C1031.32,850.5194 1084.2786,939.0514 1115.4986,982.1214" fill="none" id="Dataset-to-ProvActivity" style="stroke:#404040;stroke-width:1.2;"/><polygon fill="#404040" points="1119.02,986.9794,1116.9766,977.3448,1116.0855,982.9311,1110.4993,982.04,1119.02,986.9794" style="stroke:#404040;stroke-width:1.2;"/><text fill="#000000" font-family="sans-serif" font-size="36" lengthAdjust="spacing" textLength="276.1523" x="1080.03" y="830.9805">wasGeneratedBy</text><text fill="#000000" font-family="sans-serif" font-size="36" lengthAdjust="spacing" textLength="54.0352" x="1057.0329" y="971.0932">0..*</text></g><!--link Dataset to DerivedFrom--><g class="link" data-entity-1="ent0002" data-entity-2="ent0015" data-link-type="dependency" data-source-line="46" id="lnk16"><path codeLine="46" d="M3044.83,378.1794 C2566.5,421.2094 1591.95,538.5594 1384.03,792.6094 C1337.98,848.8794 1356.6489,937.7485 1369.5889,981.2385" fill="none" id="Dataset-to-DerivedFrom" style="stroke:#404040;stroke-width:1.2;"/><polygon fill="#404040" points="1371.3,986.9894,1372.5672,977.2224,1369.8741,982.197,1364.8995,979.5039,1371.3,986.9894" style="stroke:#404040;stroke-width:1.2;"/><text fill="#000000" font-family="sans-serif" font-size="36" lengthAdjust="spacing" textLength="272.0566" x="1385.03" y="830.9805">wasDerivedFrom</text><text fill="#000000" font-family="sans-serif" font-size="36" lengthAdjust="spacing" textLength="54.0352" x="1311.0844" y="971.105">0..*</text></g><!--link Dataset to CatalogRecord--><g class="link" data-entity-1="ent0002" data-entity-2="ent0017" data-link-type="dependency" data-source-line="48" id="lnk18"><path codeLine="48" d="M3045.01,389.3794 C2626.25,445.4594 1843.79,576.9094 1678.03,792.6094 C1630.67,854.2394 1698.9437,940.243 1739.0937,982.433" fill="none" id="Dataset-to-CatalogRecord" style="stroke:#404040;stroke-width:1.2;"/><polygon fill="#404040" points="1743.23,986.7794,1739.9232,977.5022,1739.7831,983.1574,1734.128,983.0173,1743.23,986.7794" style="stroke:#404040;stroke-width:1.2;"/><text fill="#000000" font-family="sans-serif" font-size="36" lengthAdjust="spacing" textLength="152.0684" x="1679.03" y="830.9805">subjectOf</text><text fill="#000000" font-family="sans-serif" font-size="36" lengthAdjust="spacing" textLength="20.0215" x="1717.4128" y="971.1486">1</text></g><!--link CatalogRecord to Dataset--><g class="link" data-entity-1="ent0017" data-entity-2="ent0002" data-link-type="dependency" data-source-line="72" id="lnk42"><path codeLine="72" d="M1776.07,986.9994 C1797.03,933.8494 1848.36,806.3994 1864.03,792.6094 C2199.05,497.7894 2721.8578,403.2861 3038.9178,372.6661" fill="none" id="CatalogRecord-to-Dataset" style="stroke:#404040;stroke-width:1.2;"/><polygon fill="#404040" points="3044.89,372.0894,3035.5472,368.973,3039.9132,372.57,3036.3162,376.936,3044.89,372.0894" style="stroke:#404040;stroke-width:1.2;"/><text fill="#000000" font-family="sans-serif" font-size="36" lengthAdjust="spacing" textLength="90.0879" x="1865.03" y="830.9805">about</text><text fill="#000000" font-family="sans-serif" font-size="36" lengthAdjust="spacing" textLength="60.0469" x="2977.0297" y="364.2811">0..1</text></g><!--link Dataset to DefinedTerm--><g class="link" data-entity-1="ent0002" data-entity-2="ent0019" data-link-type="dependency" data-source-line="50" id="lnk20"><path codeLine="50" d="M3045.03,406.1594 C2692.77,476.4794 2101.11,617.6294 1974.03,792.6094 C1920.44,866.4094 2034.7073,945.1559 2103.5473,984.0859" fill="none" id="Dataset-to-DefinedTerm" style="stroke:#404040;stroke-width:1.2;"/><polygon fill="#404040" points="2108.77,987.0394,2102.9049,979.1273,2104.4177,984.5781,2098.9669,986.0909,2108.77,987.0394" style="stroke:#404040;stroke-width:1.2;"/><text fill="#000000" font-family="sans-serif" font-size="36" lengthAdjust="spacing" textLength="152.0508" x="1975.03" y="830.9805">keywords</text><text fill="#000000" font-family="sans-serif" font-size="36" lengthAdjust="spacing" textLength="54.0352" x="2042.0449" y="971.1639">0..*</text></g><!--link Dataset to DefinedTerm--><g class="link" data-entity-1="ent0002" data-entity-2="ent0019" data-link-type="dependency" data-source-line="53" id="lnk23"><path codeLine="53" d="M3044.72,373.9194 C2769.54,406.6494 2352.88,504.0594 2153.03,792.6094 C2111.86,852.0594 2130.5548,938.5258 2143.4548,981.2258" fill="none" id="Dataset-to-DefinedTerm-1" style="stroke:#404040;stroke-width:1.2;"/><polygon fill="#404040" points="2145.19,986.9694,2146.4163,977.1972,2143.744,982.183,2138.7581,979.5107,2145.19,986.9694" style="stroke:#404040;stroke-width:1.2;"/><text fill="#000000" font-family="sans-serif" font-size="36" lengthAdjust="spacing" textLength="388.2129" x="2154.03" y="830.9805">measurementTechnique</text><text fill="#000000" font-family="sans-serif" font-size="36" lengthAdjust="spacing" textLength="54.0352" x="2148.571" y="971.0814">0..*</text></g><!--link Dataset to DefinedTerm--><g class="link" data-entity-1="ent0002" data-entity-2="ent0019" data-link-type="dependency" data-source-line="75" id="lnk45"><path codeLine="75" d="M3044.96,484.2994 C2898.68,561.4194 2719.2,668.8194 2580.03,792.6094 C2560.37,810.0994 2564.75,823.3894 2544.03,839.6094 C2450.59,912.7594 2326.6521,959.3664 2242.7221,985.3264" fill="none" id="Dataset-to-DefinedTerm-2" style="stroke:#404040;stroke-width:1.2;"/><polygon fill="#404040" points="2236.99,987.0994,2246.7701,988.2613,2241.7667,985.6219,2244.4061,980.6186,2236.99,987.0994" style="stroke:#404040;stroke-width:1.2;"/><text fill="#000000" font-family="sans-serif" font-size="36" lengthAdjust="spacing" textLength="234.1582" x="2581.03" y="830.9805">additionalType</text><text fill="#000000" font-family="sans-serif" font-size="36" lengthAdjust="spacing" textLength="54.0352" x="2251.1838" y="973.5464">0..*</text></g><!--link Dataset to Reference--><g class="link" data-entity-1="ent0002" data-entity-2="ent0021" data-link-type="dependency" data-source-line="52" id="lnk22"><path codeLine="52" d="M3044.81,529.2794 C2959.43,599.5894 2875.11,688.9594 2829.03,792.6094 C2780.03,902.8494 2954.7401,965.3012 3060.9201,992.6812" fill="none" id="Dataset-to-Reference" style="stroke:#404040;stroke-width:1.2;"/><polygon fill="#404040" points="3066.73,994.1794,3059.0139,988.0588,3061.8884,992.9309,3057.0163,995.8054,3066.73,994.1794" style="stroke:#404040;stroke-width:1.2;"/><text fill="#000000" font-family="sans-serif" font-size="36" lengthAdjust="spacing" textLength="112.0605" x="2830.03" y="830.9805">license</text><text fill="#000000" font-family="sans-serif" font-size="36" lengthAdjust="spacing" textLength="54.0352" x="3005.1129" y="983.5525">0..*</text></g><!--link Dataset to Reference--><g class="link" data-entity-1="ent0002" data-entity-2="ent0021" data-link-type="dependency" data-source-line="83" id="lnk53"><path codeLine="83" d="M3044.86,642.3894 C3013.44,689.6394 2986.15,740.3594 2968.03,792.6094 C2939.31,875.4294 3033.3265,947.5606 3092.6265,983.9606" fill="none" id="Dataset-to-Reference-1" style="stroke:#404040;stroke-width:1.2;"/><polygon fill="#404040" points="3097.74,987.0994,3092.1623,978.9822,3093.4788,984.4837,3087.9772,985.8002,3097.74,987.0994" style="stroke:#404040;stroke-width:1.2;"/><text fill="#000000" font-family="sans-serif" font-size="36" lengthAdjust="spacing" textLength="316.1426" x="2969.03" y="830.9805">conditionsOfAccess</text><text fill="#000000" font-family="sans-serif" font-size="36" lengthAdjust="spacing" textLength="54.0352" x="3095.1609" y="971.2346">0..*</text></g><!--link Dataset to Reference--><g class="link" data-entity-1="ent0002" data-entity-2="ent0021" data-link-type="dependency" data-source-line="84" id="lnk54"><path codeLine="84" d="M3325.82,667.8994 C3320.24,726.4494 3308.56,786.0694 3287.03,839.6094 C3261.95,901.9794 3208.6494,953.4464 3173.1594,983.1764" fill="none" id="Dataset-to-Reference-2" style="stroke:#404040;stroke-width:1.2;"/><polygon fill="#404040" points="3168.56,987.0294,3178.0278,984.3162,3172.3929,983.8186,3172.8905,978.1837,3168.56,987.0294" style="stroke:#404040;stroke-width:1.2;"/><text fill="#000000" font-family="sans-serif" font-size="36" lengthAdjust="spacing" textLength="318.1816" x="3301.03" y="830.9805">publishingPrinciples</text><text fill="#000000" font-family="sans-serif" font-size="36" lengthAdjust="spacing" textLength="54.0352" x="3178.5957" y="971.1521">0..*</text></g><!--link Dataset to Reference--><g class="link" data-entity-1="ent0002" data-entity-2="ent0021" data-link-type="dependency" data-source-line="85" id="lnk55"><path codeLine="85" d="M3577.19,578.3894 C3645.31,661.2694 3684.52,755.6894 3625.03,839.6094 C3530.14,973.4694 3327.5711,1002.7036 3217.0511,1008.7136" fill="none" id="Dataset-to-Reference-3" style="stroke:#404040;stroke-width:1.2;"/><polygon fill="#404040" points="3211.06,1009.0394,3220.2639,1012.5448,3216.0526,1008.7679,3219.8295,1004.5566,3211.06,1009.0394" style="stroke:#404040;stroke-width:1.2;"/><text fill="#000000" font-family="sans-serif" font-size="36" lengthAdjust="spacing" textLength="176.1152" x="3647.03" y="830.9805">relatedLink</text><text fill="#000000" font-family="sans-serif" font-size="36" lengthAdjust="spacing" textLength="54.0352" x="3219.5542" y="1048.1897">0..*</text></g><!--reverse link Dataset to VariableMeasured--><g class="link" data-entity-1="ent0002" data-entity-2="ent0024" data-link-type="composition" data-source-line="55" id="lnk25"><path codeLine="55" d="M3586.767,527.9432 C3681.357,599.5632 3769.48,684.7994 3829.03,792.6094 C3864.05,856.0094 3863.61,945.1094 3861.06,986.8394" fill="none" id="Dataset-backto-VariableMeasured" style="stroke:#404040;stroke-width:1.2;"/><polygon fill="#404040" points="3577.2,520.6994,3579.5689,527.5103,3586.767,527.9432,3584.3981,521.1323,3577.2,520.6994" style="stroke:#404040;stroke-width:1.2;"/><text fill="#000000" font-family="sans-serif" font-size="36" lengthAdjust="spacing" textLength="286.1543" x="3849.03" y="830.9805">variableMeasured</text><text fill="#000000" font-family="sans-serif" font-size="36" lengthAdjust="spacing" textLength="54.0352" x="3802.7308" y="971.2189">0..*</text></g><!--reverse link Dataset to SpatialExtent--><g class="link" data-entity-1="ent0002" data-entity-2="ent0026" data-link-type="composition" data-source-line="57" id="lnk27"><path codeLine="57" d="M3588.8342,430.624 C3777.0842,493.924 4007.43,603.3994 4141.03,792.6094 C4183.16,852.2794 4179.61,944.3794 4175.14,987.0094" fill="none" id="Dataset-backto-SpatialExtent" style="stroke:#404040;stroke-width:1.2;"/><polygon fill="#404040" points="3577.46,426.7994,3581.8722,432.5031,3588.8342,430.624,3584.422,424.9203,3577.46,426.7994" style="stroke:#404040;stroke-width:1.2;"/><text fill="#000000" font-family="sans-serif" font-size="36" lengthAdjust="spacing" textLength="260.1563" x="4164.03" y="830.9805">spatialCoverage</text><text fill="#000000" font-family="sans-serif" font-size="36" lengthAdjust="spacing" textLength="54.0352" x="4116.9076" y="971.1285">0..*</text></g><!--reverse link Dataset to TemporalExtent--><g class="link" data-entity-1="ent0002" data-entity-2="ent0028" data-link-type="composition" data-source-line="59" id="lnk29"><path codeLine="59" d="M3589.0715,386.3813 C3849.2815,427.7013 4223.67,530.1394 4430.03,792.6094 C4475.24,850.1094 4468.95,943.6994 4462.98,986.9094" fill="none" id="Dataset-backto-TemporalExtent" style="stroke:#404040;stroke-width:1.2;"/><polygon fill="#404040" points="3577.22,384.4994,3582.5184,389.3909,3589.0715,386.3813,3583.7731,381.4899,3577.22,384.4994" style="stroke:#404040;stroke-width:1.2;"/><text fill="#000000" font-family="sans-serif" font-size="36" lengthAdjust="spacing" textLength="296.1563" x="4456.03" y="830.9805">temporalCoverage</text><text fill="#000000" font-family="sans-serif" font-size="36" lengthAdjust="spacing" textLength="54.0352" x="4405.0421" y="971.3009">0..*</text></g><!--reverse link Dataset to QualityMeasure--><g class="link" data-entity-1="ent0002" data-entity-2="ent0030" data-link-type="composition" data-source-line="61" id="lnk31"><path codeLine="61" d="M3588.988,403.8875 C3963.858,471.7675 4606.86,611.0494 4758.03,792.6094 C4782.22,821.6594 4783.31,936.9694 4782.59,986.8794" fill="none" id="Dataset-backto-QualityMeasure" style="stroke:#404040;stroke-width:1.2;"/><polygon fill="#404040" points="3577.18,401.7494,3582.3713,406.7544,3588.988,403.8875,3583.7967,398.8825,3577.18,401.7494" style="stroke:#404040;stroke-width:1.2;"/><text fill="#000000" font-family="sans-serif" font-size="36" lengthAdjust="spacing" textLength="390.1816" x="4775.03" y="830.9805">hasQualityMeasurement</text><text fill="#000000" font-family="sans-serif" font-size="36" lengthAdjust="spacing" textLength="54.0352" x="4724.0411" y="971.2657">0..*</text></g><!--reverse link Dataset to InstanceVariable--><g class="link" data-entity-1="ent0002" data-entity-2="ent0032" data-link-type="composition" data-source-line="63" id="lnk33"><path codeLine="63" d="M3589.3711,384.2535 C4051.3411,433.9735 4960.08,559.0294 5171.03,792.6094 C5220.28,847.1394 5211.19,943.0694 5203.73,986.9794" fill="none" id="Dataset-backto-InstanceVariable" style="stroke:#404040;stroke-width:1.2;"/><polygon fill="#404040" points="3577.44,382.9694,3582.9775,387.5885,3589.3711,384.2535,3583.8336,379.6344,3577.44,382.9694" style="stroke:#404040;stroke-width:1.2;"/><text fill="#000000" font-family="sans-serif" font-size="36" lengthAdjust="spacing" textLength="286.1543" x="5199.03" y="830.9805">variableMeasured</text><text fill="#000000" font-family="sans-serif" font-size="36" lengthAdjust="spacing" textLength="54.0352" x="5145.7185" y="971.0932">1..*</text></g><!--reverse link Dataset to PrimaryKey--><g class="link" data-entity-1="ent0002" data-entity-2="ent0034" data-link-type="composition" data-source-line="65" id="lnk35"><path codeLine="65" d="M3589.1528,373.3764 C4112.2628,408.6364 5233.75,515.0994 5488.03,792.6094 C5513.63,820.5494 5513.91,937.0294 5512.78,987.0894" fill="none" id="Dataset-backto-PrimaryKey" style="stroke:#404040;stroke-width:1.2;"/><polygon fill="#404040" points="3577.18,372.5694,3582.8974,376.9638,3589.1528,373.3764,3583.4354,368.9819,3577.18,372.5694" style="stroke:#404040;stroke-width:1.2;"/><text fill="#000000" font-family="sans-serif" font-size="36" lengthAdjust="spacing" textLength="244.0723" x="5507.03" y="830.9805">hasPrimaryKey</text><text fill="#000000" font-family="sans-serif" font-size="36" lengthAdjust="spacing" textLength="60.0469" x="5447.5718" y="971.2228">0..1</text></g><!--reverse link Dataset to Statistics--><g class="link" data-entity-1="ent0002" data-entity-2="ent0036" data-link-type="composition" data-source-line="67" id="lnk37"><path codeLine="67" d="M3589.2407,365.7509 C4161.7207,388.2609 5469.39,473.8394 5757.03,792.6094 C5805.99,846.8594 5790.22,942.9294 5779.5,986.9294" fill="none" id="Dataset-backto-Statistics" style="stroke:#404040;stroke-width:1.2;"/><polygon fill="#404040" points="3577.25,365.2794,3583.0882,369.512,3589.2407,365.7509,3583.4025,361.5182,3577.25,365.2794" style="stroke:#404040;stroke-width:1.2;"/><text fill="#000000" font-family="sans-serif" font-size="36" lengthAdjust="spacing" textLength="138.0234" x="5783.03" y="830.9805">statistics</text><text fill="#000000" font-family="sans-serif" font-size="36" lengthAdjust="spacing" textLength="54.0352" x="5721.9719" y="971.3243">0..*</text></g><!--reverse link Dataset to DataDownload--><g class="link" data-entity-1="ent0002" data-entity-2="ent0038" data-link-type="composition" data-source-line="69" id="lnk39"><path codeLine="69" d="M3589.1135,364.1732 C4187.2335,383.8132 5599.04,464.3794 5924.03,792.6094 C5950.86,819.6994 5956.52,936.6594 5957.71,986.9594" fill="none" id="Dataset-backto-DataDownload" style="stroke:#404040;stroke-width:1.2;"/><polygon fill="#404040" points="3577.12,363.7794,3582.9855,367.9741,3589.1135,364.1732,3583.248,359.9784,3577.12,363.7794" style="stroke:#404040;stroke-width:1.2;"/><text fill="#000000" font-family="sans-serif" font-size="36" lengthAdjust="spacing" textLength="174.0938" x="5945.03" y="830.9805">distribution</text><text fill="#000000" font-family="sans-serif" font-size="36" lengthAdjust="spacing" textLength="54.0352" x="5898.8657" y="971.0696">0..*</text></g><!--reverse link Dataset to WebAPI--><g class="link" data-entity-1="ent0002" data-entity-2="ent0040" data-link-type="composition" data-source-line="71" id="lnk41"><path codeLine="71" d="M3589.1386,359.384 C4221.9786,369.124 5777.82,429.9594 6125.03,792.6094 C6151.24,819.9794 6151.18,936.7794 6149.87,986.9994" fill="none" id="Dataset-backto-WebAPI" style="stroke:#404040;stroke-width:1.2;"/><polygon fill="#404040" points="3577.14,359.1994,3583.0777,363.2912,3589.1386,359.384,3583.2008,355.2922,3577.14,359.1994" style="stroke:#404040;stroke-width:1.2;"/><text fill="#000000" font-family="sans-serif" font-size="36" lengthAdjust="spacing" textLength="174.0938" x="6144.03" y="830.9805">distribution</text><text fill="#000000" font-family="sans-serif" font-size="36" lengthAdjust="spacing" textLength="54.0352" x="6091.2099" y="971.1168">0..*</text></g><!--link Dataset to Identifier--><g class="link" data-entity-1="ent0002" data-entity-2="ent0043" data-link-type="dependency" data-source-line="74" id="lnk44"><path codeLine="74" d="M3577.24,363.8294 C4230.97,384.0494 5893.35,467.0094 6324.03,792.6094 C6332.4,798.9394 6386.1802,926.4518 6409.0502,981.2818" fill="none" id="Dataset-to-Identifier" style="stroke:#404040;stroke-width:1.2;"/><polygon fill="#404040" points="6411.36,986.8194,6411.5871,976.9731,6409.4352,982.2047,6404.2036,980.0528,6411.36,986.8194" style="stroke:#404040;stroke-width:1.2;"/><text fill="#000000" font-family="sans-serif" font-size="36" lengthAdjust="spacing" textLength="136.0723" x="6349.03" y="830.9805">identifier</text><text fill="#000000" font-family="sans-serif" font-size="36" lengthAdjust="spacing" textLength="20.0215" x="6387.9756" y="971.1954">1</text></g><!--link Dataset to Identifier--><g class="link" data-entity-1="ent0002" data-entity-2="ent0043" data-link-type="dependency" data-source-line="76" id="lnk46"><path codeLine="76" d="M3577.31,374.2794 C4307.16,422.6594 6298.06,573.7194 6489.03,792.6094 C6538.97,849.8494 6479.5046,938.8893 6444.7746,982.1793" fill="none" id="Dataset-to-Identifier-1" style="stroke:#404040;stroke-width:1.2;"/><polygon fill="#404040" points="6441.02,986.8594,6449.772,982.3424,6444.1489,982.9593,6443.5319,977.3362,6441.02,986.8594" style="stroke:#404040;stroke-width:1.2;"/><text fill="#000000" font-family="sans-serif" font-size="36" lengthAdjust="spacing" textLength="130.043" x="6509.03" y="830.9805">sameAs</text><text fill="#000000" font-family="sans-serif" font-size="36" lengthAdjust="spacing" textLength="54.0352" x="6449.094" y="971.2423">0..*</text></g><!--link Dataset to XsdLanguage--><g class="link" data-entity-1="ent0002" data-entity-2="ent0047" data-link-type="dependency" data-source-line="78" id="lnk48"><path codeLine="78" d="M3577.14,373.7194 C4329.28,421.7894 6430.26,574.5194 6645.03,792.6094 C6668.17,816.0994 6671.4629,901.6495 6671.1529,958.2195" fill="none" id="Dataset-to-XsdLanguage" style="stroke:#404040;stroke-width:1.2;stroke-dasharray:7,7;"/><polygon fill="#404040" points="6671.12,964.2194,6675.1693,955.2414,6671.1474,959.2195,6667.1694,955.1976,6671.12,964.2194" style="stroke:#404040;stroke-width:1.2;"/><text fill="#000000" font-family="sans-serif" font-size="36" lengthAdjust="spacing" textLength="188.1914" x="6664.03" y="830.9805">inLanguage</text></g><!--link Dataset to XsdDate--><g class="link" data-entity-1="ent0002" data-entity-2="ent0049" data-link-type="dependency" data-source-line="80" id="lnk50"><path codeLine="80" d="M3577.04,371.6194 C4361.65,415.4594 6626.17,561.0894 6858.03,792.6094 C6881.39,815.9294 6885.4677,901.5494 6885.6777,958.1694" fill="none" id="Dataset-to-XsdDate" style="stroke:#404040;stroke-width:1.2;stroke-dasharray:7,7;"/><polygon fill="#404040" points="6885.7,964.1694,6889.6666,955.1546,6885.6815,959.1694,6881.6666,955.1843,6885.7,964.1694" style="stroke:#404040;stroke-width:1.2;"/><text fill="#000000" font-family="sans-serif" font-size="36" lengthAdjust="spacing" textLength="206.1387" x="6878.03" y="830.9805">dateModified</text></g><!--link Dataset to XsdAnyUri--><g class="link" data-entity-1="ent0002" data-entity-2="ent0051" data-link-type="dependency" data-source-line="82" id="lnk52"><path codeLine="82" d="M3577.12,369.5594 C4396.29,408.8594 6840.03,545.9394 7090.03,792.6094 C7134.88,836.8594 7134.2454,908.8523 7127.6154,958.4223" fill="none" id="Dataset-to-XsdAnyUri" style="stroke:#404040;stroke-width:1.2;stroke-dasharray:7,7;"/><polygon fill="#404040" points="7126.82,964.3694,7131.9778,955.9791,7127.4828,959.4135,7124.0484,954.9185,7126.82,964.3694" style="stroke:#404040;stroke-width:1.2;"/><text fill="#000000" font-family="sans-serif" font-size="36" lengthAdjust="spacing" textLength="40.0078" x="7118.03" y="830.9805">url</text></g><?plantuml-src ZLRVRziu37xtNo6aRniQDFlrO0m5iYOTYbkntfRj3ZZSWo8pYIwov4boijom_tsqPDcoapXhNqpoqqUAf1XQRWMG6RNKW4qsF0F2k6O2_3VaXJsG7F8bQ9EOBPS5rJGdPaCpjUToJLPK68WiKwtLVh7XR2l1638PluYCcigjWOAyU7qJQQNAm6bZPGOhMWfxhwJzpFy7yl9DP6I28lUFX7XtTqeeJQvUtLJ_g7odT0QwhusfyA2rcYzB2wtw9lcP99vwL6TaHAW9sI5Nz_Fx-TtS-NsEsP6MhpXeafA7LlXdyczbbZG7D1XqWacgbNXDfdbXkPAHxMOyzcQQPRooKR4u5DNf6QouX6m1EdUmPmvca7fgUbuRwmuBTOQVomzKhakwhhZ_DbaZjP2CMdXKMKMQUH1U7fhuyVkfN0fkDbrpSxxKmkkdyl15yyWYE0DfAi-VO0KQ98CeQgQalxlvk9eoLdNEQM3XtUF5dl1sZ1S2pa6tSDXZ8vYpYTGWCFhi0vVRKnG_4xh4759cwtuRJTUOSDSIxejSpTrV4Xha-lgMZAh3engGaaAh7RQAFkQgvHatlX7nyfxwX67GqobyIh9870gGQQ1MwT3tT_WQt36bNJIHF1H434FELZe2JwBSrAtKE7zK4YpLX_Su9toUEvgX0Bh0bAnAR2Yv3inFM8Ofitp7xS4HnueXtWuk9NjgteC4NVNDkqCpB43p7MJtMkL-OBJo47SCSzIHega77XDg_GaOjhAlIAmvJOyvxg9m69JB_u3PZwisvkP9r36tJsGmvXQMal340cdpXXnb-w8625jGIkePSTbl3jIK6dBiemMmZUJVIWWnVAMQqwM0Hu_nIUihZo9wTdqTN1rXKxBhgOAlpmMrd8hvTni6GqSpvAKBn09v-KxX0CUP73miy1TOwOwBhch8Hm-P4bih-bx-BAd01g-lvxnqLKDUUiYKRAZfwgew1LSFqbYAvGvPTixwojFk9ixT4VPyUV0d8iUPy0U4Dn_4izUPZ6AKkqehDrMtM2fZEJE-v8quMEyMLVqq1o7UDsPgBuMYMRDq1CKGRmVN6_irzr-md3uzE5R_ESHN8tfCtN4IpVB0a1AwL6LRvMOryVLjDvLp0-iXtgVQvUhoBEXkJQVm7Mg_FOKueot81HflHM_Vuhv3AzBRMzpzflFNivSD_NXysm5ZpCrs5P5Nwr4WTglIxv0w81OWsiKYIhzP1T9wp_eTsXgQ4bpIBatYuttiqebJYzcbCz42blm2?></g></svg>