<svg xmlns="http://www.w3.org/2000/svg" xmlns:xlink="http://www.w3.org/1999/xlink" contentStyleType="text/css" data-diagram-type="CLASS" height="2080px" preserveAspectRatio="none" style="width:3636px;height:2080px;background:#FFFFFF;" version="1.1" viewBox="0 0 3636 2080" width="3636px" zoomAndPan="magnify"><?plantuml 1.2026.3?><defs/><g><g class="title" data-source-line="1"><text fill="#000000" font-family="sans-serif" font-size="14" font-weight="700" lengthAdjust="spacing" textLength="207.3818" x="1711.0191" y="24.5332">CDIFDataStructure &#8212; overview</text></g><!--class DataDownload--><g class="entity" data-qualified-name="DataDownload" data-source-line="16" id="ent0002"><rect fill="#FEFECE" height="25.0938" rx="2.5" ry="2.5" style="stroke:#404040;stroke-width:0.5;" width="84.7148" x="1144.91" y="45.6094"/><text fill="#000000" font-family="sans-serif" font-size="12" lengthAdjust="spacing" textLength="78.7148" x="1147.91" y="63.0664">DataDownload</text></g><!--class CatalogRecord--><g class="entity" data-qualified-name="CatalogRecord" data-source-line="17" id="ent0003"><rect fill="#FEFECE" height="25.0938" rx="2.5" ry="2.5" style="stroke:#404040;stroke-width:0.5;" width="86.0449" x="619.41" y="544.6094"/><text fill="#000000" font-family="sans-serif" font-size="12" lengthAdjust="spacing" textLength="80.0449" x="622.41" y="562.0664">CatalogRecord</text></g><!--class RepresentedVariable--><g class="entity" data-qualified-name="RepresentedVariable" data-source-line="18" id="ent0004"><rect fill="#FAE5D3" height="25.0938" rx="2.5" ry="2.5" style="stroke:#404040;stroke-width:0.5;" width="118.7402" x="3034.91" y="2041.6094"/><text fill="#000000" font-family="sans-serif" font-size="12" lengthAdjust="spacing" textLength="112.7402" x="3037.91" y="2059.0664">RepresentedVariable</text></g><!--class DataStructure--><g class="entity" data-qualified-name="DataStructure" data-source-line="19" id="ent0005"><rect fill="#FAE5D3" height="25.0938" rx="2.5" ry="2.5" style="stroke:#404040;stroke-width:0.5;" width="80.0332" x="1147.41" y="544.6094"/><text fill="#000000" font-family="sans-serif" font-size="12" lengthAdjust="spacing" textLength="74.0332" x="1150.41" y="562.0664">DataStructure</text></g><!--class DimensionalDataStructure--><g class="entity" data-qualified-name="DimensionalDataStructure" data-source-line="20" id="ent0006"><rect fill="#FAE5D3" height="25.0938" rx="2.5" ry="2.5" style="stroke:#404040;stroke-width:0.5;" width="146.0625" x="2242.41" y="544.6094"/><text fill="#000000" font-family="sans-serif" font-size="12" lengthAdjust="spacing" textLength="140.0625" x="2245.41" y="562.0664">DimensionalDataStructure</text></g><!--class LongDataStructure--><g class="entity" data-qualified-name="LongDataStructure" data-source-line="21" id="ent0007"><rect fill="#FAE5D3" height="25.0938" rx="2.5" ry="2.5" style="stroke:#404040;stroke-width:0.5;" width="106.7285" x="715.91" y="544.6094"/><text fill="#000000" font-family="sans-serif" font-size="12" lengthAdjust="spacing" textLength="100.7285" x="718.91" y="562.0664">LongDataStructure</text></g><!--class WideDataStructure--><g class="entity" data-qualified-name="WideDataStructure" data-source-line="22" id="ent0008"><rect fill="#FAE5D3" height="25.0938" rx="2.5" ry="2.5" style="stroke:#404040;stroke-width:0.5;" width="107.373" x="3033.91" y="544.6094"/><text fill="#000000" font-family="sans-serif" font-size="12" lengthAdjust="spacing" textLength="101.373" x="3036.91" y="562.0664">WideDataStructure</text></g><!--class DimensionGroup--><g class="entity" data-qualified-name="DimensionGroup" data-source-line="23" id="ent0009"><rect fill="#FAE5D3" height="25.0938" rx="2.5" ry="2.5" style="stroke:#404040;stroke-width:0.5;" width="96.041" x="1850.41" y="544.6094"/><text fill="#000000" font-family="sans-serif" font-size="12" lengthAdjust="spacing" textLength="90.041" x="1853.41" y="562.0664">DimensionGroup</text></g><!--class IdentifierComponent--><g class="entity" data-qualified-name="IdentifierComponent" data-source-line="24" id="ent0010"><rect fill="#FAE5D3" height="25.0938" rx="2.5" ry="2.5" style="stroke:#404040;stroke-width:0.5;" width="114.0645" x="1563.41" y="1043.6094"/><text fill="#000000" font-family="sans-serif" font-size="12" lengthAdjust="spacing" textLength="108.0645" x="1566.41" y="1061.0664">IdentifierComponent</text></g><!--class MeasureComponent--><g class="entity" data-qualified-name="MeasureComponent" data-source-line="25" id="ent0011"><rect fill="#FAE5D3" height="25.0938" rx="2.5" ry="2.5" style="stroke:#404040;stroke-width:0.5;" width="114.7266" x="2604.91" y="1043.6094"/><text fill="#000000" font-family="sans-serif" font-size="12" lengthAdjust="spacing" textLength="108.7266" x="2607.91" y="1061.0664">MeasureComponent</text></g><!--class AttributeComponent--><g class="entity" data-qualified-name="AttributeComponent" data-source-line="26" id="ent0012"><rect fill="#FAE5D3" height="25.0938" rx="2.5" ry="2.5" style="stroke:#404040;stroke-width:0.5;" width="112.7285" x="1038.91" y="1043.6094"/><text fill="#000000" font-family="sans-serif" font-size="12" lengthAdjust="spacing" textLength="106.7285" x="1041.91" y="1061.0664">AttributeComponent</text></g><!--class DimensionComponent--><g class="entity" data-qualified-name="DimensionComponent" data-source-line="27" id="ent0013"><rect fill="#FAE5D3" height="25.0938" rx="2.5" ry="2.5" style="stroke:#404040;stroke-width:0.5;" width="124.7285" x="2113.91" y="1043.6094"/><text fill="#000000" font-family="sans-serif" font-size="12" lengthAdjust="spacing" textLength="118.7285" x="2116.91" y="1061.0664">DimensionComponent</text></g><!--class VariableDescriptorComponent--><g class="entity" data-qualified-name="VariableDescriptorComponent" data-source-line="28" id="ent0014"><rect fill="#FAE5D3" height="25.0938" rx="2.5" ry="2.5" style="stroke:#404040;stroke-width:0.5;" width="166.7461" x="529.91" y="1043.6094"/><text fill="#000000" font-family="sans-serif" font-size="12" lengthAdjust="spacing" textLength="160.7461" x="532.91" y="1061.0664">VariableDescriptorComponent</text></g><!--class VariableValueComponent--><g class="entity" data-qualified-name="VariableValueComponent" data-source-line="29" id="ent0015"><rect fill="#FAE5D3" height="25.0938" rx="2.5" ry="2.5" style="stroke:#404040;stroke-width:0.5;" width="142.7578" x="343.91" y="1043.6094"/><text fill="#000000" font-family="sans-serif" font-size="12" lengthAdjust="spacing" textLength="136.7578" x="346.91" y="1061.0664">VariableValueComponent</text></g><!--class PrimaryKey--><g class="entity" data-qualified-name="PrimaryKey" data-source-line="30" id="ent0016"><rect fill="#FAE5D3" height="25.0938" rx="2.5" ry="2.5" style="stroke:#404040;stroke-width:0.5;" width="68.0098" x="2976.41" y="1542.6094"/><text fill="#000000" font-family="sans-serif" font-size="12" lengthAdjust="spacing" textLength="62.0098" x="2979.41" y="1560.0664">PrimaryKey</text></g><!--class ForeignKey--><g class="entity" data-qualified-name="ForeignKey" data-source-line="31" id="ent0017"><rect fill="#FAE5D3" height="25.0938" rx="2.5" ry="2.5" style="stroke:#404040;stroke-width:0.5;" width="67.3652" x="3140.91" y="1043.6094"/><text fill="#000000" font-family="sans-serif" font-size="12" lengthAdjust="spacing" textLength="61.3652" x="3143.91" y="1061.0664">ForeignKey</text></g><!--link DataDownload to CatalogRecord--><g class="link" data-entity-1="ent0002" data-entity-2="ent0003" data-link-type="dependency" data-source-line="32" id="lnk18"><path codeLine="32" d="M1171.69,70.6594 C1127.09,103.6894 996.6,202.2394 898.41,295.6094 C803.99,385.3894 706.7236,501.9691 675.7636,539.7391" fill="none" id="DataDownload-to-CatalogRecord" style="stroke:#404040;stroke-width:1.2;"/><polygon fill="#404040" points="671.96,544.3794,680.759,539.9547,675.1297,540.5125,674.5719,534.8832,671.96,544.3794" style="stroke:#404040;stroke-width:1.2;"/><text fill="#000000" font-family="sans-serif" font-size="18" lengthAdjust="spacing" textLength="76.0342" x="899.41" y="315.2949">subjectOf</text><text fill="#000000" font-family="sans-serif" font-size="18" lengthAdjust="spacing" textLength="30.0234" x="640.0146" y="532.7085">0..1</text></g><!--link DataDownload to DataStructure--><g class="link" data-entity-1="ent0002" data-entity-2="ent0005" data-link-type="dependency" data-source-line="33" id="lnk19"><path codeLine="33" d="M1187.41,70.9094 C1187.41,138.5194 1187.41,470.2894 1187.41,538.1994" fill="none" id="DataDownload-to-DataStructure" style="stroke:#404040;stroke-width:1.2;"/><polygon fill="#404040" points="1187.41,544.1994,1191.41,535.1994,1187.41,539.1994,1183.41,535.1994,1187.41,544.1994" style="stroke:#404040;stroke-width:1.2;"/><text fill="#000000" font-family="sans-serif" font-size="18" lengthAdjust="spacing" textLength="117.0439" x="1188.41" y="315.2949">isStructuredBy</text><text fill="#000000" font-family="sans-serif" font-size="18" lengthAdjust="spacing" textLength="30.0234" x="1152.2521" y="532.7599">0..1</text></g><!--link DataDownload to DimensionalDataStructure--><g class="link" data-entity-1="ent0002" data-entity-2="ent0006" data-link-type="dependency" data-source-line="34" id="lnk20"><path codeLine="34" d="M1213.63,70.6594 C1365.96,137.7794 2130.0593,474.4503 2283.3393,541.9803" fill="none" id="DataDownload-to-DimensionalDataStructure" style="stroke:#404040;stroke-width:1.2;"/><polygon fill="#404040" points="2288.83,544.3994,2282.2066,537.1103,2284.2544,542.3835,2278.9812,544.4313,2288.83,544.3994" style="stroke:#404040;stroke-width:1.2;"/><text fill="#000000" font-family="sans-serif" font-size="18" lengthAdjust="spacing" textLength="117.0439" x="1752.41" y="315.2949">isStructuredBy</text><text fill="#000000" font-family="sans-serif" font-size="18" lengthAdjust="spacing" textLength="30.0234" x="2244.0102" y="532.7356">0..1</text></g><!--link DataDownload to LongDataStructure--><g class="link" data-entity-1="ent0002" data-entity-2="ent0007" data-link-type="dependency" data-source-line="35" id="lnk21"><path codeLine="35" d="M1177.49,70.9094 C1120.62,138.5194 840.4021,471.6977 783.2821,539.6077" fill="none" id="DataDownload-to-LongDataStructure" style="stroke:#404040;stroke-width:1.2;"/><polygon fill="#404040" points="779.42,544.1994,788.2744,539.8866,782.6385,540.3729,782.1521,534.737,779.42,544.1994" style="stroke:#404040;stroke-width:1.2;"/><text fill="#000000" font-family="sans-serif" font-size="18" lengthAdjust="spacing" textLength="117.0439" x="979.41" y="315.2949">isStructuredBy</text><text fill="#000000" font-family="sans-serif" font-size="18" lengthAdjust="spacing" textLength="30.0234" x="747.7554" y="532.7599">0..1</text></g><!--link DataDownload to WideDataStructure--><g class="link" data-entity-1="ent0002" data-entity-2="ent0008" data-link-type="dependency" data-source-line="36" id="lnk22"><path codeLine="36" d="M1230.21,70.3094 C1483.74,136.6194 2780.5553,475.841 3037.5353,543.061" fill="none" id="DataDownload-to-WideDataStructure" style="stroke:#404040;stroke-width:1.2;"/><polygon fill="#404040" points="3043.34,544.5794,3035.6452,538.432,3038.5028,543.3141,3033.6207,546.1716,3043.34,544.5794" style="stroke:#404040;stroke-width:1.2;"/><text fill="#000000" font-family="sans-serif" font-size="18" lengthAdjust="spacing" textLength="117.0439" x="2138.41" y="315.2949">isStructuredBy</text><text fill="#000000" font-family="sans-serif" font-size="18" lengthAdjust="spacing" textLength="30.0234" x="2995.9368" y="534.4333">0..1</text></g><!--reverse link DataStructure to IdentifierComponent--><g class="link" data-entity-1="ent0005" data-entity-2="ent0010" data-link-type="composition" data-source-line="37" id="lnk23"><path codeLine="37" d="M1214.8733,576.4373 C1261.7933,608.1373 1382.53,693.8894 1467.41,794.6094 C1539.91,880.6394 1598.33,1005.3894 1615.37,1043.5694" fill="none" id="DataStructure-backto-IdentifierComponent" style="stroke:#404040;stroke-width:1.2;"/><polygon fill="#404040" points="1204.93,569.7194,1207.6624,576.3928,1214.8733,576.4373,1212.141,569.7639,1204.93,569.7194" style="stroke:#404040;stroke-width:1.2;"/><text fill="#000000" font-family="sans-serif" font-size="18" lengthAdjust="spacing" textLength="122.0801" x="1484.41" y="814.2949">hasComponent</text><text fill="#000000" font-family="sans-serif" font-size="18" lengthAdjust="spacing" textLength="27.0176" x="1581.5247" y="1031.6754">0..*</text></g><!--reverse link DataStructure to MeasureComponent--><g class="link" data-entity-1="ent0005" data-entity-2="ent0011" data-link-type="composition" data-source-line="38" id="lnk24"><path codeLine="38" d="M1239.6052,563.4446 C1428.8052,583.1846 2217.35,671.5194 2432.41,794.6094 C2444.71,801.6494 2444.05,807.9694 2453.41,818.6094 C2529.39,905.0194 2621.35,1008.8094 2651.95,1043.3194" fill="none" id="DataStructure-backto-MeasureComponent" style="stroke:#404040;stroke-width:1.2;"/><polygon fill="#404040" points="1227.67,562.1994,1233.2225,566.8004,1239.6052,563.4446,1234.0527,558.8436,1227.67,562.1994" style="stroke:#404040;stroke-width:1.2;"/><text fill="#000000" font-family="sans-serif" font-size="18" lengthAdjust="spacing" textLength="122.0801" x="2454.41" y="814.2949">hasComponent</text><text fill="#000000" font-family="sans-serif" font-size="18" lengthAdjust="spacing" textLength="27.0176" x="2616.4661" y="1031.6271">0..*</text></g><!--reverse link DataStructure to AttributeComponent--><g class="link" data-entity-1="ent0005" data-entity-2="ent0012" data-link-type="composition" data-source-line="39" id="lnk25"><path codeLine="39" d="M1154.6079,575.567 C1101.4079,604.857 978.29,681.5094 928.41,794.6094 C882.67,898.3194 1025.78,1008.0394 1077.5,1043.4094" fill="none" id="DataStructure-backto-AttributeComponent" style="stroke:#404040;stroke-width:1.2;"/><polygon fill="#404040" points="1165.12,569.7794,1157.9348,569.1691,1154.6079,575.567,1161.7931,576.1772,1165.12,569.7794" style="stroke:#404040;stroke-width:1.2;"/><text fill="#000000" font-family="sans-serif" font-size="18" lengthAdjust="spacing" textLength="122.0801" x="929.41" y="814.2949">hasComponent</text><text fill="#000000" font-family="sans-serif" font-size="18" lengthAdjust="spacing" textLength="27.0176" x="1039.3617" y="1031.7492">0..*</text></g><!--reverse link DataStructure to DimensionComponent--><g class="link" data-entity-1="ent0005" data-entity-2="ent0013" data-link-type="composition" data-source-line="40" id="lnk26"><path codeLine="40" d="M1239.6332,559.2539 C1369.4932,563.6339 1771.71,593.1294 2023.41,794.6094 C2032.88,802.1894 2030.43,808.0594 2036.41,818.6094 C2085.8,905.7894 2148.37,1009.0794 2169.26,1043.3894" fill="none" id="DataStructure-backto-DimensionComponent" style="stroke:#404040;stroke-width:1.2;"/><polygon fill="#404040" points="1227.64,558.8494,1233.5018,563.0494,1239.6332,559.2539,1233.7714,555.0539,1227.64,558.8494" style="stroke:#404040;stroke-width:1.2;"/><text fill="#000000" font-family="sans-serif" font-size="18" lengthAdjust="spacing" textLength="122.0801" x="2037.41" y="814.2949">hasComponent</text><text fill="#000000" font-family="sans-serif" font-size="18" lengthAdjust="spacing" textLength="27.0176" x="2134.9549" y="1031.7221">0..*</text></g><!--reverse link DataStructure to VariableDescriptorComponent--><g class="link" data-entity-1="ent0005" data-entity-2="ent0014" data-link-type="composition" data-source-line="41" id="lnk27"><path codeLine="41" d="M1135.4892,565.1821 C1035.6692,580.5221 786.75,633.0694 660.41,794.6094 C599.4,872.6194 607.8,1003.8894 611.98,1043.4694" fill="none" id="DataStructure-backto-VariableDescriptorComponent" style="stroke:#404040;stroke-width:1.2;"/><polygon fill="#404040" points="1147.35,563.3594,1140.812,560.3171,1135.4892,565.1821,1142.0272,568.2243,1147.35,563.3594" style="stroke:#404040;stroke-width:1.2;"/><text fill="#000000" font-family="sans-serif" font-size="18" lengthAdjust="spacing" textLength="122.0801" x="661.41" y="814.2949">hasComponent</text><text fill="#000000" font-family="sans-serif" font-size="18" lengthAdjust="spacing" textLength="27.0176" x="579.5246" y="1031.5385">0..*</text></g><!--reverse link DataStructure to VariableValueComponent--><g class="link" data-entity-1="ent0005" data-entity-2="ent0015" data-link-type="composition" data-source-line="42" id="lnk28"><path codeLine="42" d="M1135.3299,562.1327 C1021.5499,572.5427 705.01,616.2194 519.41,794.6094 C443.57,867.4994 421.67,1002.8394 416.68,1043.3594" fill="none" id="DataStructure-backto-VariableValueComponent" style="stroke:#404040;stroke-width:1.2;"/><polygon fill="#404040" points="1147.28,561.0394,1140.9405,557.6027,1135.3299,562.1327,1141.6694,565.5694,1147.28,561.0394" style="stroke:#404040;stroke-width:1.2;"/><text fill="#000000" font-family="sans-serif" font-size="18" lengthAdjust="spacing" textLength="122.0801" x="520.41" y="814.2949">hasComponent</text><text fill="#000000" font-family="sans-serif" font-size="18" lengthAdjust="spacing" textLength="27.0176" x="385.3693" y="1031.6814">0..*</text></g><!--reverse link DataStructure to PrimaryKey--><g class="link" data-entity-1="ent0005" data-entity-2="ent0016" data-link-type="composition" data-source-line="43" id="lnk29"><path codeLine="43" d="M1154.0818,575.3652 C1099.7518,604.4652 973.51,680.8494 919.41,794.6094 C867.07,904.6594 833.56,973.2294 909.41,1068.6094 C1183.35,1413.0794 2726.41,1534.3394 2976.24,1551.8194" fill="none" id="DataStructure-backto-PrimaryKey" style="stroke:#404040;stroke-width:1.2;"/><polygon fill="#404040" points="1164.66,569.6994,1157.4823,569.0062,1154.0818,575.3652,1161.2595,576.0584,1164.66,569.6994" style="stroke:#404040;stroke-width:1.2;"/><text fill="#000000" font-family="sans-serif" font-size="18" lengthAdjust="spacing" textLength="122.0361" x="910.41" y="1063.7949">hasPrimaryKey</text><text fill="#000000" font-family="sans-serif" font-size="18" lengthAdjust="spacing" textLength="30.0234" x="2938.4046" y="1546.271">0..1</text></g><!--reverse link DataStructure to ForeignKey--><g class="link" data-entity-1="ent0005" data-entity-2="ent0017" data-link-type="composition" data-source-line="44" id="lnk30"><path codeLine="44" d="M1239.6378,559.0114 C1478.5578,563.6314 2698.94,596.6394 3009.41,794.6094 C3015.7,798.6194 3136.23,993.3094 3167.2,1043.4394" fill="none" id="DataStructure-backto-ForeignKey" style="stroke:#404040;stroke-width:1.2;"/><polygon fill="#404040" points="1227.64,558.7794,1233.5615,562.8946,1239.6378,559.0114,1233.7162,554.8961,1227.64,558.7794" style="stroke:#404040;stroke-width:1.2;"/><text fill="#000000" font-family="sans-serif" font-size="18" lengthAdjust="spacing" textLength="121.0693" x="3026.41" y="814.2949">hasForeignKey</text><text fill="#000000" font-family="sans-serif" font-size="18" lengthAdjust="spacing" textLength="27.0176" x="3132.7601" y="1031.7899">0..*</text></g><!--reverse link DimensionalDataStructure to IdentifierComponent--><g class="link" data-entity-1="ent0006" data-entity-2="ent0010" data-link-type="composition" data-source-line="45" id="lnk31"><path codeLine="45" d="M2245.5274,572.2897 C2136.5374,596.5797 1910.93,659.5594 1762.41,794.6094 C1751.81,804.2494 1652.37,993.9194 1626.52,1043.3894" fill="none" id="DimensionalDataStructure-backto-IdentifierComponent" style="stroke:#404040;stroke-width:1.2;"/><polygon fill="#404040" points="2257.24,569.6794,2250.5136,567.0803,2245.5274,572.2897,2252.2538,574.8888,2257.24,569.6794" style="stroke:#404040;stroke-width:1.2;"/><text fill="#000000" font-family="sans-serif" font-size="18" lengthAdjust="spacing" textLength="122.0801" x="1763.41" y="814.2949">hasComponent</text><text fill="#000000" font-family="sans-serif" font-size="18" lengthAdjust="spacing" textLength="27.0176" x="1633.4977" y="1031.7221">0..*</text></g><!--reverse link DimensionalDataStructure to MeasureComponent--><g class="link" data-entity-1="ent0006" data-entity-2="ent0011" data-link-type="composition" data-source-line="46" id="lnk32"><path codeLine="46" d="M2375.0997,572.7776 C2464.1097,596.9776 2640.91,659.2694 2718.41,794.6094 C2767.72,880.7194 2695.08,1005.4094 2670.23,1043.5794" fill="none" id="DimensionalDataStructure-backto-MeasureComponent" style="stroke:#404040;stroke-width:1.2;"/><polygon fill="#404040" points="2363.52,569.6294,2368.2604,575.0634,2375.0997,572.7776,2370.3593,567.3436,2363.52,569.6294" style="stroke:#404040;stroke-width:1.2;"/><text fill="#000000" font-family="sans-serif" font-size="18" lengthAdjust="spacing" textLength="122.0801" x="2727.41" y="814.2949">hasComponent</text><text fill="#000000" font-family="sans-serif" font-size="18" lengthAdjust="spacing" textLength="27.0176" x="2678.1454" y="1031.6891">0..*</text></g><!--reverse link DimensionalDataStructure to AttributeComponent--><g class="link" data-entity-1="ent0006" data-entity-2="ent0012" data-link-type="composition" data-source-line="47" id="lnk33"><path codeLine="47" d="M2230.3764,565.9411 C2009.0264,587.4711 1363.21,660.4794 1202.41,794.6094 C1191.97,803.3194 1118.85,993.6694 1099.89,1043.3394" fill="none" id="DimensionalDataStructure-backto-AttributeComponent" style="stroke:#404040;stroke-width:1.2;"/><polygon fill="#404040" points="2242.32,564.7794,2235.9609,561.379,2230.3764,565.9411,2236.7354,569.3414,2242.32,564.7794" style="stroke:#404040;stroke-width:1.2;"/><text fill="#000000" font-family="sans-serif" font-size="18" lengthAdjust="spacing" textLength="122.0801" x="1203.41" y="814.2949">hasComponent</text><text fill="#000000" font-family="sans-serif" font-size="18" lengthAdjust="spacing" textLength="27.0176" x="1106.3469" y="1031.6543">0..*</text></g><!--reverse link DimensionalDataStructure to DimensionComponent--><g class="link" data-entity-1="ent0006" data-entity-2="ent0013" data-link-type="composition" data-source-line="48" id="lnk34"><path codeLine="48" d="M2317.5611,581.775 C2320.7711,618.995 2327.14,725.6294 2301.41,818.6094 C2275.52,912.1594 2208.59,1010.5894 2184.88,1043.5794" fill="none" id="DimensionalDataStructure-backto-DimensionComponent" style="stroke:#404040;stroke-width:1.2;"/><polygon fill="#404040" points="2316.53,569.8194,2313.0603,576.1409,2317.5611,581.775,2321.0308,575.4535,2316.53,569.8194" style="stroke:#404040;stroke-width:1.2;"/><text fill="#000000" font-family="sans-serif" font-size="18" lengthAdjust="spacing" textLength="122.0801" x="2307.41" y="814.2949">hasComponent</text><text fill="#000000" font-family="sans-serif" font-size="18" lengthAdjust="spacing" textLength="27.0176" x="2193.0347" y="1031.6891">1..*</text></g><!--reverse link DimensionalDataStructure to PrimaryKey--><g class="link" data-entity-1="ent0006" data-entity-2="ent0016" data-link-type="composition" data-source-line="49" id="lnk35"><path codeLine="49" d="M2400.5631,558.7463 C2544.9931,563.6463 2853.12,597.0494 2996.41,794.6094 C3019.32,826.1994 3011.83,1448.9294 3010.57,1542.4094" fill="none" id="DimensionalDataStructure-backto-PrimaryKey" style="stroke:#404040;stroke-width:1.2;"/><polygon fill="#404040" points="2388.57,558.3394,2394.4309,562.5405,2400.5631,558.7463,2394.7022,554.5451,2388.57,558.3394" style="stroke:#404040;stroke-width:1.2;"/><text fill="#000000" font-family="sans-serif" font-size="18" lengthAdjust="spacing" textLength="122.0361" x="3012.41" y="1063.7949">hasPrimaryKey</text><text fill="#000000" font-family="sans-serif" font-size="18" lengthAdjust="spacing" textLength="30.0234" x="2975.2857" y="1530.7492">0..1</text></g><!--reverse link DimensionalDataStructure to ForeignKey--><g class="link" data-entity-1="ent0006" data-entity-2="ent0017" data-link-type="composition" data-source-line="50" id="lnk36"><path codeLine="50" d="M2400.5046,569.8797 C2585.5846,596.8497 3052.57,675.2394 3151.41,794.6094 C3183.26,833.0794 3177.35,997.8094 3175.06,1043.3894" fill="none" id="DimensionalDataStructure-backto-ForeignKey" style="stroke:#404040;stroke-width:1.2;"/><polygon fill="#404040" points="2388.63,568.1494,2393.9905,572.9728,2400.5046,569.8797,2395.1441,565.0564,2388.63,568.1494" style="stroke:#404040;stroke-width:1.2;"/><text fill="#000000" font-family="sans-serif" font-size="18" lengthAdjust="spacing" textLength="121.0693" x="3163.41" y="814.2949">hasForeignKey</text><text fill="#000000" font-family="sans-serif" font-size="18" lengthAdjust="spacing" textLength="27.0176" x="3180.039" y="1031.7221">0..*</text></g><!--reverse link LongDataStructure to IdentifierComponent--><g class="link" data-entity-1="ent0007" data-entity-2="ent0010" data-link-type="composition" data-source-line="51" id="lnk37"><path codeLine="51" d="M834.9055,570.8848 C942.6855,593.8948 1176.1,656.2894 1328.41,794.6094 C1337.39,802.7694 1333.76,809.1894 1341.41,818.6094 C1424.07,920.3994 1554.91,1011.8594 1602.42,1043.4194" fill="none" id="LongDataStructure-backto-IdentifierComponent" style="stroke:#404040;stroke-width:1.2;"/><polygon fill="#404040" points="823.17,568.3794,828.2026,573.5439,834.9055,570.8848,829.8729,565.7202,823.17,568.3794" style="stroke:#404040;stroke-width:1.2;"/><text fill="#000000" font-family="sans-serif" font-size="18" lengthAdjust="spacing" textLength="122.0801" x="1342.41" y="814.2949">hasComponent</text><text fill="#000000" font-family="sans-serif" font-size="18" lengthAdjust="spacing" textLength="10.0107" x="1584.2202" y="1031.7628">1</text></g><!--reverse link LongDataStructure to VariableDescriptorComponent--><g class="link" data-entity-1="ent0007" data-entity-2="ent0014" data-link-type="composition" data-source-line="52" id="lnk38"><path codeLine="52" d="M706.6237,572.6697 C614.5537,596.5297 434.77,657.8694 355.41,794.6094 C288.71,909.5294 502.34,1010.2394 583.47,1043.5094" fill="none" id="LongDataStructure-backto-VariableDescriptorComponent" style="stroke:#404040;stroke-width:1.2;"/><polygon fill="#404040" points="718.24,569.6594,711.4284,567.2925,706.6237,572.6697,713.4353,575.0366,718.24,569.6594" style="stroke:#404040;stroke-width:1.2;"/><text fill="#000000" font-family="sans-serif" font-size="18" lengthAdjust="spacing" textLength="122.0801" x="356.41" y="814.2949">hasComponent</text><text fill="#000000" font-family="sans-serif" font-size="18" lengthAdjust="spacing" textLength="10.0107" x="560.6347" y="1031.5933">1</text></g><!--reverse link LongDataStructure to VariableValueComponent--><g class="link" data-entity-1="ent0007" data-entity-2="ent0015" data-link-type="composition" data-source-line="53" id="lnk39"><path codeLine="53" d="M716.1736,573.0225 C598.8236,606.6225 281.92,704.0394 222.41,794.6094 C156.88,894.3294 332.24,1007.5394 394.46,1043.5094" fill="none" id="LongDataStructure-backto-VariableValueComponent" style="stroke:#404040;stroke-width:1.2;"/><polygon fill="#404040" points="727.71,569.7194,720.8407,567.5255,716.1736,573.0225,723.0428,575.2164,727.71,569.7194" style="stroke:#404040;stroke-width:1.2;"/><text fill="#000000" font-family="sans-serif" font-size="18" lengthAdjust="spacing" textLength="122.0801" x="223.41" y="814.2949">hasComponent</text><text fill="#000000" font-family="sans-serif" font-size="18" lengthAdjust="spacing" textLength="10.0107" x="374.9376" y="1031.5933">1</text></g><!--reverse link LongDataStructure to AttributeComponent--><g class="link" data-entity-1="ent0007" data-entity-2="ent0012" data-link-type="composition" data-source-line="54" id="lnk40"><path codeLine="54" d="M765.8104,581.5641 C760.2304,619.8741 748.55,733.1194 795.41,818.6094 C859.64,935.7994 1008.62,1015.0294 1069.14,1043.4494" fill="none" id="LongDataStructure-backto-AttributeComponent" style="stroke:#404040;stroke-width:1.2;"/><polygon fill="#404040" points="767.54,569.6894,762.717,575.0502,765.8104,581.5641,770.6334,576.2033,767.54,569.6894" style="stroke:#404040;stroke-width:1.2;"/><text fill="#000000" font-family="sans-serif" font-size="18" lengthAdjust="spacing" textLength="122.0801" x="796.41" y="814.2949">hasComponent</text><text fill="#000000" font-family="sans-serif" font-size="18" lengthAdjust="spacing" textLength="27.0176" x="1064.4844" y="1031.5111">0..*</text></g><!--reverse link LongDataStructure to PrimaryKey--><g class="link" data-entity-1="ent0007" data-entity-2="ent0016" data-link-type="composition" data-source-line="55" id="lnk41"><path codeLine="55" d="M714.8162,572.9055 C594.5662,606.2455 271.31,702.7094 210.41,794.6094 C190.14,825.1894 6,813.6794 214.41,1068.6094 C585.49,1522.5194 2683.23,1552.0694 2976.39,1553.9794" fill="none" id="LongDataStructure-backto-PrimaryKey" style="stroke:#404040;stroke-width:1.2;"/><polygon fill="#404040" points="726.38,569.6994,719.5294,567.4478,714.8162,572.9055,721.6668,575.157,726.38,569.6994" style="stroke:#404040;stroke-width:1.2;"/><text fill="#000000" font-family="sans-serif" font-size="18" lengthAdjust="spacing" textLength="122.0361" x="215.41" y="1063.7949">hasPrimaryKey</text><text fill="#000000" font-family="sans-serif" font-size="18" lengthAdjust="spacing" textLength="30.0234" x="2938.2722" y="1574.3449">0..1</text></g><!--reverse link WideDataStructure to IdentifierComponent--><g class="link" data-entity-1="ent0008" data-entity-2="ent0010" data-link-type="composition" data-source-line="56" id="lnk42"><path codeLine="56" d="M3074.6791,580.2521 C3050.2891,622.0221 2967.55,753.7094 2852.41,818.6094 C2644.77,935.6394 1891.6,1025.4294 1677.52,1049.0094" fill="none" id="WideDataStructure-backto-IdentifierComponent" style="stroke:#404040;stroke-width:1.2;"/><polygon fill="#404040" points="3080.73,569.8894,3074.2503,573.0538,3074.6791,580.2521,3081.1588,577.0877,3080.73,569.8894" style="stroke:#404040;stroke-width:1.2;"/><text fill="#000000" font-family="sans-serif" font-size="18" lengthAdjust="spacing" textLength="122.0801" x="2884.41" y="814.2949">hasComponent</text><text fill="#000000" font-family="sans-serif" font-size="18" lengthAdjust="spacing" textLength="27.0176" x="1685.6816" y="1043.6337">0..*</text></g><!--reverse link WideDataStructure to MeasureComponent--><g class="link" data-entity-1="ent0008" data-entity-2="ent0011" data-link-type="composition" data-source-line="57" id="lnk43"><path codeLine="57" d="M3119.8892,575.5022 C3185.1092,611.4522 3358.42,718.8194 3289.41,818.6094 C3157.06,1009.9794 2848.82,1046.6794 2720.29,1053.5794" fill="none" id="WideDataStructure-backto-MeasureComponent" style="stroke:#404040;stroke-width:1.2;"/><polygon fill="#404040" points="3109.38,569.7094,3112.7037,576.1088,3119.8892,575.5022,3116.5655,569.1027,3109.38,569.7094" style="stroke:#404040;stroke-width:1.2;"/><text fill="#000000" font-family="sans-serif" font-size="18" lengthAdjust="spacing" textLength="122.0801" x="3301.41" y="814.2949">hasComponent</text><text fill="#000000" font-family="sans-serif" font-size="18" lengthAdjust="spacing" textLength="27.0176" x="2727.6661" y="1048.8978">0..*</text></g><!--reverse link WideDataStructure to AttributeComponent--><g class="link" data-entity-1="ent0008" data-entity-2="ent0012" data-link-type="composition" data-source-line="58" id="lnk44"><path codeLine="58" d="M3021.8389,563.8113 C2815.0589,582.5313 2083.69,657.2694 1897.41,794.6094 C1887.64,801.8094 1893.82,810.9594 1884.41,818.6094 C1658.23,1002.5594 1291.89,1043.5194 1152.09,1052.5694" fill="none" id="WideDataStructure-backto-AttributeComponent" style="stroke:#404040;stroke-width:1.2;"/><polygon fill="#404040" points="3033.79,562.7294,3027.4538,559.2866,3021.8389,563.8113,3028.1751,567.2541,3033.79,562.7294" style="stroke:#404040;stroke-width:1.2;"/><text fill="#000000" font-family="sans-serif" font-size="18" lengthAdjust="spacing" textLength="122.0801" x="1898.41" y="814.2949">hasComponent</text><text fill="#000000" font-family="sans-serif" font-size="18" lengthAdjust="spacing" textLength="27.0176" x="1159.7817" y="1047.6945">0..*</text></g><!--reverse link WideDataStructure to PrimaryKey--><g class="link" data-entity-1="ent0008" data-entity-2="ent0016" data-link-type="composition" data-source-line="59" id="lnk45"><path codeLine="59" d="M3152.8959,564.341 C3289.0259,579.541 3621.42,635.1294 3560.41,818.6094 C3445.44,1164.3294 3097.53,1478.8494 3024.11,1542.4394" fill="none" id="WideDataStructure-backto-PrimaryKey" style="stroke:#404040;stroke-width:1.2;"/><polygon fill="#404040" points="3140.97,563.0094,3146.4891,567.6505,3152.8959,564.341,3147.3768,559.6999,3140.97,563.0094" style="stroke:#404040;stroke-width:1.2;"/><text fill="#000000" font-family="sans-serif" font-size="18" lengthAdjust="spacing" textLength="122.0361" x="3454.41" y="1063.7949">hasPrimaryKey</text><text fill="#000000" font-family="sans-serif" font-size="18" lengthAdjust="spacing" textLength="30.0234" x="3034.3368" y="1530.7899">0..1</text></g><!--reverse link WideDataStructure to ForeignKey--><g class="link" data-entity-1="ent0008" data-entity-2="ent0017" data-link-type="composition" data-source-line="60" id="lnk46"><path codeLine="60" d="M3133.3619,573.7581 C3206.1519,600.1381 3362.34,668.3794 3428.41,794.6094 C3489.48,911.2894 3282.59,1010.7094 3203.71,1043.5794" fill="none" id="WideDataStructure-backto-ForeignKey" style="stroke:#404040;stroke-width:1.2;"/><polygon fill="#404040" points="3122.08,569.6694,3126.3581,575.4744,3133.3619,573.7581,3129.0839,567.9531,3122.08,569.6694" style="stroke:#404040;stroke-width:1.2;"/><text fill="#000000" font-family="sans-serif" font-size="18" lengthAdjust="spacing" textLength="121.0693" x="3436.41" y="814.2949">hasForeignKey</text><text fill="#000000" font-family="sans-serif" font-size="18" lengthAdjust="spacing" textLength="27.0176" x="3216.2314" y="1033.4333">0..*</text></g><!--reverse link DimensionGroup to IdentifierComponent--><g class="link" data-entity-1="ent0009" data-entity-2="ent0010" data-link-type="composition" data-source-line="61" id="lnk47"><path codeLine="61" d="M1863.7512,575.074 C1807.2912,603.754 1677.26,679.0294 1623.41,794.6094 C1582.53,882.3394 1607.9,1005.4294 1617.32,1043.4594" fill="none" id="DimensionGroup-backto-IdentifierComponent" style="stroke:#404040;stroke-width:1.2;"/><polygon fill="#404040" points="1874.45,569.6394,1867.289,568.7904,1863.7512,575.074,1870.9122,575.923,1874.45,569.6394" style="stroke:#404040;stroke-width:1.2;"/><text fill="#000000" font-family="sans-serif" font-size="18" lengthAdjust="spacing" textLength="122.0801" x="1624.41" y="814.2949">hasComponent</text><text fill="#000000" font-family="sans-serif" font-size="18" lengthAdjust="spacing" textLength="27.0176" x="1621.15" y="1031.5248">0..*</text></g><!--reverse link DimensionGroup to MeasureComponent--><g class="link" data-entity-1="ent0009" data-entity-2="ent0011" data-link-type="composition" data-source-line="62" id="lnk48"><path codeLine="62" d="M1958.4685,561.4584 C2081.7285,570.4084 2399.91,610.4094 2579.41,794.6094 C2597.79,813.4794 2646.71,995.5194 2659.38,1043.5394" fill="none" id="DimensionGroup-backto-MeasureComponent" style="stroke:#404040;stroke-width:1.2;"/><polygon fill="#404040" points="1946.5,560.5894,1952.1946,565.0134,1958.4685,561.4584,1952.7739,557.0344,1946.5,560.5894" style="stroke:#404040;stroke-width:1.2;"/><text fill="#000000" font-family="sans-serif" font-size="18" lengthAdjust="spacing" textLength="122.0801" x="2591.41" y="814.2949">hasComponent</text><text fill="#000000" font-family="sans-serif" font-size="18" lengthAdjust="spacing" textLength="27.0176" x="2663.2945" y="1031.6343">0..*</text></g><!--reverse link DimensionGroup to AttributeComponent--><g class="link" data-entity-1="ent0009" data-entity-2="ent0012" data-link-type="composition" data-source-line="63" id="lnk49"><path codeLine="63" d="M1838.297,565.8686 C1675.807,587.7186 1164.86,665.5494 1067.41,794.6094 C1008.34,872.8394 1068.56,1003.9594 1089.09,1043.4894" fill="none" id="DimensionGroup-backto-AttributeComponent" style="stroke:#404040;stroke-width:1.2;"/><polygon fill="#404040" points="1850.19,564.2694,1843.7104,561.1047,1838.297,565.8686,1844.7766,569.0333,1850.19,564.2694" style="stroke:#404040;stroke-width:1.2;"/><text fill="#000000" font-family="sans-serif" font-size="18" lengthAdjust="spacing" textLength="122.0801" x="1068.41" y="814.2949">hasComponent</text><text fill="#000000" font-family="sans-serif" font-size="18" lengthAdjust="spacing" textLength="27.0176" x="1091.7909" y="1031.5659">0..*</text></g><!--reverse link DimensionGroup to DimensionComponent--><g class="link" data-entity-1="ent0009" data-entity-2="ent0013" data-link-type="composition" data-source-line="64" id="lnk50"><path codeLine="64" d="M1930.8407,575.4095 C1983.9007,604.6395 2108.28,681.6894 2162.41,794.6094 C2204.3,882.0094 2185.94,1005.3194 2178.78,1043.4294" fill="none" id="DimensionGroup-backto-DimensionComponent" style="stroke:#404040;stroke-width:1.2;"/><polygon fill="#404040" points="1920.33,569.6194,1923.6553,576.018,1930.8407,575.4095,1927.5154,569.0109,1920.33,569.6194" style="stroke:#404040;stroke-width:1.2;"/><text fill="#000000" font-family="sans-serif" font-size="18" lengthAdjust="spacing" textLength="122.0801" x="2171.41" y="814.2949">hasComponent</text><text fill="#000000" font-family="sans-serif" font-size="18" lengthAdjust="spacing" textLength="27.0176" x="2147.8664" y="1031.7763">0..*</text></g><!--link PrimaryKey to RepresentedVariable--><g class="link" data-entity-1="ent0016" data-entity-2="ent0004" data-link-type="dependency" data-source-line="65" id="lnk51"><path codeLine="65" d="M3011.3,1567.8594 C3014.19,1604.7094 3024.08,1721.2594 3040.41,1816.6094 C3055.33,1903.7794 3080.5655,2001.2816 3089.7055,2035.5916" fill="none" id="PrimaryKey-to-RepresentedVariable" style="stroke:#404040;stroke-width:1.2;"/><polygon fill="#404040" points="3091.25,2041.3894,3092.7984,2031.663,3089.9629,2036.5579,3085.068,2033.7223,3091.25,2041.3894" style="stroke:#404040;stroke-width:1.2;"/><text fill="#000000" font-family="sans-serif" font-size="18" lengthAdjust="spacing" textLength="119.0479" x="3041.41" y="1812.2949">isComposedOf</text><text fill="#000000" font-family="sans-serif" font-size="18" lengthAdjust="spacing" textLength="27.0176" x="3058.3643" y="2029.7221">1..*</text></g><!--link ForeignKey to RepresentedVariable--><g class="link" data-entity-1="ent0017" data-entity-2="ent0004" data-link-type="dependency" data-source-line="66" id="lnk52"><path codeLine="66" d="M3175.26,1068.7994 C3180.16,1139.3194 3203.12,1515.1094 3159.41,1816.6094 C3146.58,1905.1094 3113.1106,2001.9207 3100.7606,2035.8807" fill="none" id="ForeignKey-to-RepresentedVariable" style="stroke:#404040;stroke-width:1.2;"/><polygon fill="#404040" points="3098.71,2041.5194,3105.545,2034.4284,3100.4188,2036.8204,3098.0267,2031.6942,3098.71,2041.5194" style="stroke:#404040;stroke-width:1.2;"/><text fill="#000000" font-family="sans-serif" font-size="18" lengthAdjust="spacing" textLength="119.0479" x="3183.41" y="1562.7949">isComposedOf</text><text fill="#000000" font-family="sans-serif" font-size="18" lengthAdjust="spacing" textLength="27.0176" x="3105.3249" y="2029.6069">1..*</text></g><!--link ForeignKey to PrimaryKey--><g class="link" data-entity-1="ent0017" data-entity-2="ent0016" data-link-type="dependency" data-source-line="67" id="lnk53"><path codeLine="67" d="M3168.74,1068.6694 C3152.3,1102.5394 3103.9,1204.7594 3074.41,1293.6094 C3043.16,1387.7594 3020.7336,1499.6755 3013.6936,1536.6055" fill="none" id="ForeignKey-to-PrimaryKey" style="stroke:#404040;stroke-width:1.2;"/><polygon fill="#404040" points="3012.57,1542.4994,3018.1846,1534.4076,3013.5063,1537.5878,3010.3261,1532.9095,3012.57,1542.4994" style="stroke:#404040;stroke-width:1.2;"/><text fill="#000000" font-family="sans-serif" font-size="18" lengthAdjust="spacing" textLength="85.043" x="3075.41" y="1313.2949">references</text><text fill="#000000" font-family="sans-serif" font-size="18" lengthAdjust="spacing" textLength="30.0234" x="3018.9003" y="1530.5796">0..1</text></g><?plantuml-src fPRVRjiW5CRl_HGelQkKAEbQQSh5f3P_fcgRDhLJTqtiauG6WmMuKJPDsaFi2VSa8xPYOp0sQPMRy1r-ny3vZh4YYWAQpU-NSwpmen9vh781wD-VluY_W7WXi8-s904K4n5JAFz3cga3IY5TWP2Ht16MOO5J9BSuuNl2DcYDgGGZSYi4tt_VadZ7G4eq6LqPGO7PJaA6hc_6Xifu0aTrOee9h75ErP8pzKX-0fgyDu8nnJhthmYLZvjnoWMwk1uVVrgyuo81OQjcAWqg9SWgLr3BLz7lA2fJ3uw7DETxHZbE1WXBP0heOhbOBcQBq-IPZb6-UO1OFxYOtL3iwG-G2RrXfY1vmeBW5OK2Qj4rUhkucRypbrNLhbfNNKrxEac1IS8PfYsa9sWd-SpPngKTrSP-QF-ucADwb_nHy3nhBhIGRE0-qIT6rkHOy3JZJ8yAgaMtqI-0fLv2axD56wgCqyHSsRkp9kZADdWomnnaB4YckBNJZhWlrHEcERHdQORi1Dy4IR4uV8930TL3U-AI2o0RTffO3wk9ZOuQ3Z-WmNWqcWoitfaYcQ-U8LPVrrwYQQWf8h8Q9NS7F-PhWE0CRXC4esuZjA9r-78uBDZBGQkrfsYBPJNqiuwzGy4MWuUYBHOFHRkyVMuEozb1kAwKuV42gSV-HnfsBvXw77bTTsQ10zBqrZeWHq3PExDCGXtGjvQUIWHifQCeRYENYmygXHy-mxtzIRhjw-53Y-Z7ky_TVOsTP-DEli-_dN3_dltu6_OSqldbTymh-zs1WxlS8S_eROVjxsZZ18jxhtmJj7ta7c--WfEGw6lUECAtWIsL5B060Im66Vq7?></g></svg>