<svg xmlns="http://www.w3.org/2000/svg" xmlns:xlink="http://www.w3.org/1999/xlink" contentStyleType="text/css" data-diagram-type="CLASS" height="1193px" preserveAspectRatio="none" style="width:1166px;height:1193px;background:#FFFFFF;" version="1.1" viewBox="0 0 1166 1193" width="1166px" zoomAndPan="magnify"><?plantuml 1.2026.3?><defs/><g><g class="title" data-source-line="1"><text fill="#000000" font-family="sans-serif" font-size="14" font-weight="700" lengthAdjust="spacing" textLength="207.3818" x="476.0886" y="24.5332">CDIFDataStructure &#8212; overview</text></g><!--class DataDownload--><g class="entity" data-qualified-name="DataDownload" data-source-line="15" id="ent0002"><rect fill="#FEFECE" height="25.0938" rx="2.5" ry="2.5" style="stroke:#404040;stroke-width:0.5;" width="84.7148" x="729.33" y="53.9658"/><text fill="#000000" font-family="sans-serif" font-size="12" lengthAdjust="spacing" textLength="78.7148" x="732.33" y="71.4229">DataDownload</text></g><!--class CatalogRecord--><g class="entity" data-qualified-name="CatalogRecord" data-source-line="16" id="ent0003"><rect fill="#FEFECE" height="25.0938" rx="2.5" ry="2.5" style="stroke:#404040;stroke-width:0.5;" width="86.0449" x="992.83" y="328.9658"/><text fill="#000000" font-family="sans-serif" font-size="12" lengthAdjust="spacing" textLength="80.0449" x="995.83" y="346.4229">CatalogRecord</text></g><!--class RepresentedVariable--><g class="entity" data-qualified-name="RepresentedVariable" data-source-line="17" id="ent0004"><rect fill="#FAE5D3" height="25.0938" rx="2.5" ry="2.5" style="stroke:#404040;stroke-width:0.5;" width="118.7402" x="973.33" y="1153.9658"/><text fill="#000000" font-family="sans-serif" font-size="12" lengthAdjust="spacing" textLength="112.7402" x="976.33" y="1171.4229">RepresentedVariable</text></g><!--class DataStructure--><g class="entity" data-qualified-name="DataStructure" data-source-line="18" id="ent0005"><rect fill="#FAE5D3" height="25.0938" rx="2.5" ry="2.5" style="stroke:#404040;stroke-width:0.5;" width="80.0332" x="482.83" y="328.9658"/><text fill="#000000" font-family="sans-serif" font-size="12" lengthAdjust="spacing" textLength="74.0332" x="485.83" y="346.4229">DataStructure</text></g><!--class DimensionalDataStructure--><g class="entity" data-qualified-name="DimensionalDataStructure" data-source-line="19" id="ent0006"><rect fill="#FAE5D3" height="25.0938" rx="2.5" ry="2.5" style="stroke:#404040;stroke-width:0.5;" width="146.0625" x="698.83" y="328.9658"/><text fill="#000000" font-family="sans-serif" font-size="12" lengthAdjust="spacing" textLength="140.0625" x="701.83" y="346.4229">DimensionalDataStructure</text></g><!--class LongDataStructure--><g class="entity" data-qualified-name="LongDataStructure" data-source-line="20" id="ent0007"><rect fill="#FAE5D3" height="25.0938" rx="2.5" ry="2.5" style="stroke:#404040;stroke-width:0.5;" width="106.7285" x="298.33" y="328.9658"/><text fill="#000000" font-family="sans-serif" font-size="12" lengthAdjust="spacing" textLength="100.7285" x="301.33" y="346.4229">LongDataStructure</text></g><!--class WideDataStructure--><g class="entity" data-qualified-name="WideDataStructure" data-source-line="21" id="ent0008"><rect fill="#FAE5D3" height="25.0938" rx="2.5" ry="2.5" style="stroke:#404040;stroke-width:0.5;" width="107.373" x="865.33" y="328.9658"/><text fill="#000000" font-family="sans-serif" font-size="12" lengthAdjust="spacing" textLength="101.373" x="868.33" y="346.4229">WideDataStructure</text></g><!--class DimensionGroup--><g class="entity" data-qualified-name="DimensionGroup" data-source-line="22" id="ent0009"><rect fill="#FAE5D3" height="25.0938" rx="2.5" ry="2.5" style="stroke:#404040;stroke-width:0.5;" width="96.041" x="582.83" y="328.9658"/><text fill="#000000" font-family="sans-serif" font-size="12" lengthAdjust="spacing" textLength="90.041" x="585.83" y="346.4229">DimensionGroup</text></g><!--class IdentifierComponent--><g class="entity" data-qualified-name="IdentifierComponent" data-source-line="23" id="ent0010"><rect fill="#FAE5D3" height="25.0938" rx="2.5" ry="2.5" style="stroke:#404040;stroke-width:0.5;" width="114.0645" x="574.83" y="603.9658"/><text fill="#000000" font-family="sans-serif" font-size="12" lengthAdjust="spacing" textLength="108.0645" x="577.83" y="621.4229">IdentifierComponent</text></g><!--class MeasureComponent--><g class="entity" data-qualified-name="MeasureComponent" data-source-line="24" id="ent0011"><rect fill="#FAE5D3" height="25.0938" rx="2.5" ry="2.5" style="stroke:#404040;stroke-width:0.5;" width="114.7266" x="854.33" y="603.9658"/><text fill="#000000" font-family="sans-serif" font-size="12" lengthAdjust="spacing" textLength="108.7266" x="857.33" y="621.4229">MeasureComponent</text></g><!--class AttributeComponent--><g class="entity" data-qualified-name="AttributeComponent" data-source-line="25" id="ent0012"><rect fill="#FAE5D3" height="25.0938" rx="2.5" ry="2.5" style="stroke:#404040;stroke-width:0.5;" width="112.7285" x="441.33" y="603.9658"/><text fill="#000000" font-family="sans-serif" font-size="12" lengthAdjust="spacing" textLength="106.7285" x="444.33" y="621.4229">AttributeComponent</text></g><!--class DimensionComponent--><g class="entity" data-qualified-name="DimensionComponent" data-source-line="26" id="ent0013"><rect fill="#FAE5D3" height="25.0938" rx="2.5" ry="2.5" style="stroke:#404040;stroke-width:0.5;" width="124.7285" x="709.33" y="603.9658"/><text fill="#000000" font-family="sans-serif" font-size="12" lengthAdjust="spacing" textLength="118.7285" x="712.33" y="621.4229">DimensionComponent</text></g><!--class VariableDescriptorComponent--><g class="entity" data-qualified-name="VariableDescriptorComponent" data-source-line="27" id="ent0014"><rect fill="#FAE5D3" height="25.0938" rx="2.5" ry="2.5" style="stroke:#404040;stroke-width:0.5;" width="166.7461" x="211.33" y="603.9658"/><text fill="#000000" font-family="sans-serif" font-size="12" lengthAdjust="spacing" textLength="160.7461" x="214.33" y="621.4229">VariableDescriptorComponent</text></g><!--class VariableValueComponent--><g class="entity" data-qualified-name="VariableValueComponent" data-source-line="28" id="ent0015"><rect fill="#FAE5D3" height="25.0938" rx="2.5" ry="2.5" style="stroke:#404040;stroke-width:0.5;" width="142.7578" x="48.33" y="603.9658"/><text fill="#000000" font-family="sans-serif" font-size="12" lengthAdjust="spacing" textLength="136.7578" x="51.33" y="621.4229">VariableValueComponent</text></g><!--class PrimaryKey--><g class="entity" data-qualified-name="PrimaryKey" data-source-line="29" id="ent0016"><rect fill="#FAE5D3" height="25.0938" rx="2.5" ry="2.5" style="stroke:#404040;stroke-width:0.5;" width="68.0098" x="966.83" y="878.9658"/><text fill="#000000" font-family="sans-serif" font-size="12" lengthAdjust="spacing" textLength="62.0098" x="969.83" y="896.4229">PrimaryKey</text></g><!--class ForeignKey--><g class="entity" data-qualified-name="ForeignKey" data-source-line="30" id="ent0017"><rect fill="#FAE5D3" height="25.0938" rx="2.5" ry="2.5" style="stroke:#404040;stroke-width:0.5;" width="67.3652" x="1032.33" y="603.9658"/><text fill="#000000" font-family="sans-serif" font-size="12" lengthAdjust="spacing" textLength="61.3652" x="1035.33" y="621.4229">ForeignKey</text></g><!--link DataDownload to CatalogRecord--><g class="link" data-entity-1="ent0002" data-entity-2="ent0003" data-link-type="dependency" data-source-line="31" id="lnk18"><path codeLine="31" d="M814.54,62.9658 C889.26,62.9658 1035.83,62.9658 1035.83,62.9658 C1035.83,62.9658 1035.83,268.2958 1035.83,322.7758" fill="none" id="DataDownload-to-CatalogRecord" style="stroke:#404040;stroke-width:1.2;"/><polygon fill="#404040" points="1035.83,328.7758,1039.83,319.7758,1035.83,323.7758,1031.83,319.7758,1035.83,328.7758" style="stroke:#404040;stroke-width:1.2;"/><text fill="#000000" font-family="sans-serif" font-size="13" lengthAdjust="spacing" textLength="54.9136" x="980.83" y="81.7209">subjectOf</text><text fill="#000000" font-family="sans-serif" font-size="13" lengthAdjust="spacing" textLength="21.6836" x="1010.8214" y="318.175">0..1</text></g><!--link DataDownload to DataStructure--><g class="link" data-entity-1="ent0002" data-entity-2="ent0005" data-link-type="dependency" data-source-line="32" id="lnk19"><path codeLine="32" d="M729.31,70.9658 C658.19,70.9658 522.83,70.9658 522.83,70.9658 C522.83,70.9658 522.83,269.3058 522.83,322.7858" fill="none" id="DataDownload-to-DataStructure" style="stroke:#404040;stroke-width:1.2;"/><polygon fill="#404040" points="522.83,328.7858,526.83,319.7858,522.83,323.7858,518.83,319.7858,522.83,328.7858" style="stroke:#404040;stroke-width:1.2;"/><text fill="#000000" font-family="sans-serif" font-size="13" lengthAdjust="spacing" textLength="84.5317" x="437.83" y="93.1309">isStructuredBy</text><text fill="#000000" font-family="sans-serif" font-size="13" lengthAdjust="spacing" textLength="21.6836" x="497.8237" y="318.1889">0..1</text></g><!--link DataDownload to DimensionalDataStructure--><g class="link" data-entity-1="ent0002" data-entity-2="ent0006" data-link-type="dependency" data-source-line="33" id="lnk20"><path codeLine="33" d="M771.83,78.9958 C771.83,124.8058 771.83,276.9258 771.83,322.8658" fill="none" id="DataDownload-to-DimensionalDataStructure" style="stroke:#404040;stroke-width:1.2;"/><polygon fill="#404040" points="771.83,328.8658,775.83,319.8658,771.83,323.8658,767.83,319.8658,771.83,328.8658" style="stroke:#404040;stroke-width:1.2;"/><text fill="#000000" font-family="sans-serif" font-size="13" lengthAdjust="spacing" textLength="84.5317" x="686.83" y="200.4209">isStructuredBy</text><text fill="#000000" font-family="sans-serif" font-size="13" lengthAdjust="spacing" textLength="21.6836" x="746.6269" y="317.9166">0..1</text></g><!--link DataDownload to LongDataStructure--><g class="link" data-entity-1="ent0002" data-entity-2="ent0007" data-link-type="dependency" data-source-line="34" id="lnk21"><path codeLine="34" d="M729.25,62.9658 C622.47,62.9658 351.83,62.9658 351.83,62.9658 C351.83,62.9658 351.83,268.2958 351.83,322.7758" fill="none" id="DataDownload-to-LongDataStructure" style="stroke:#404040;stroke-width:1.2;"/><polygon fill="#404040" points="351.83,328.7758,355.83,319.7758,351.83,323.7758,347.83,319.7758,351.83,328.7758" style="stroke:#404040;stroke-width:1.2;"/><text fill="#000000" font-family="sans-serif" font-size="13" lengthAdjust="spacing" textLength="84.5317" x="322.64" y="59.4609">isStructuredBy</text><text fill="#000000" font-family="sans-serif" font-size="13" lengthAdjust="spacing" textLength="21.6836" x="326.8837" y="318.175">0..1</text></g><!--link DataDownload to WideDataStructure--><g class="link" data-entity-1="ent0002" data-entity-2="ent0008" data-link-type="dependency" data-source-line="35" id="lnk22"><path codeLine="35" d="M814.35,70.9658 C857.77,70.9658 918.83,70.9658 918.83,70.9658 C918.83,70.9658 918.83,269.3058 918.83,322.7858" fill="none" id="DataDownload-to-WideDataStructure" style="stroke:#404040;stroke-width:1.2;"/><polygon fill="#404040" points="918.83,328.7858,922.83,319.7858,918.83,323.7858,914.83,319.7858,918.83,328.7858" style="stroke:#404040;stroke-width:1.2;"/><text fill="#000000" font-family="sans-serif" font-size="13" lengthAdjust="spacing" textLength="84.5317" x="833.83" y="144.1309">isStructuredBy</text><text fill="#000000" font-family="sans-serif" font-size="13" lengthAdjust="spacing" textLength="21.6836" x="893.7568" y="318.1889">0..1</text></g><!--reverse link DataStructure to IdentifierComponent--><g class="link" data-entity-1="ent0005" data-entity-2="ent0010" data-link-type="composition" data-source-line="36" id="lnk23"><path codeLine="36" d="M560.71,366.2058 C560.71,420.8758 560.71,620.9658 560.71,620.9658 C560.71,620.9658 566.49,620.9658 574.76,620.9658" fill="none" id="DataStructure-backto-IdentifierComponent" style="stroke:#404040;stroke-width:1.2;"/><polygon fill="#404040" points="560.71,354.2058,556.71,360.2058,560.71,366.2058,564.71,360.2058,560.71,354.2058" style="stroke:#404040;stroke-width:1.2;"/><text fill="#000000" font-family="sans-serif" font-size="13" lengthAdjust="spacing" textLength="88.1689" x="471.71" y="509.1009">hasComponent</text><text fill="#000000" font-family="sans-serif" font-size="13" lengthAdjust="spacing" textLength="19.5127" x="561.7191" y="617.102">0..*</text></g><!--reverse link DataStructure to MeasureComponent--><g class="link" data-entity-1="ent0005" data-entity-2="ent0011" data-link-type="composition" data-source-line="37" id="lnk24"><path codeLine="37" d="M513.48,366.1458 C513.48,405.9858 513.48,513.9658 513.48,513.9658 C513.48,513.9658 858,513.9658 858,513.9658 C858,513.9658 858,576.5258 858,603.8958" fill="none" id="DataStructure-backto-MeasureComponent" style="stroke:#404040;stroke-width:1.2;"/><polygon fill="#404040" points="513.48,354.1458,509.48,360.1458,513.48,366.1458,517.48,360.1458,513.48,354.1458" style="stroke:#404040;stroke-width:1.2;"/><text fill="#000000" font-family="sans-serif" font-size="13" lengthAdjust="spacing" textLength="88.1689" x="561.8" y="510.4609">hasComponent</text><text fill="#000000" font-family="sans-serif" font-size="13" lengthAdjust="spacing" textLength="19.5127" x="838.5923" y="593.1592">0..*</text></g><!--reverse link DataStructure to AttributeComponent--><g class="link" data-entity-1="ent0005" data-entity-2="ent0012" data-link-type="composition" data-source-line="38" id="lnk25"><path codeLine="38" d="M503.26,365.9958 C503.26,411.8058 503.26,557.9258 503.26,603.8658" fill="none" id="DataStructure-backto-AttributeComponent" style="stroke:#404040;stroke-width:1.2;"/><polygon fill="#404040" points="503.26,353.9958,499.26,359.9958,503.26,365.9958,507.26,359.9958,503.26,353.9958" style="stroke:#404040;stroke-width:1.2;"/><text fill="#000000" font-family="sans-serif" font-size="13" lengthAdjust="spacing" textLength="88.1689" x="414.26" y="475.4209">hasComponent</text><text fill="#000000" font-family="sans-serif" font-size="13" lengthAdjust="spacing" textLength="19.5127" x="482.7429" y="592.9166">0..*</text></g><!--reverse link DataStructure to DimensionComponent--><g class="link" data-entity-1="ent0005" data-entity-2="ent0013" data-link-type="composition" data-source-line="39" id="lnk26"><path codeLine="39" d="M558.58,366.0958 C558.58,412.5158 558.58,558.9658 558.58,558.9658 C558.58,558.9658 751,558.9658 751,558.9658 C751,558.9658 751,586.7658 751,603.7058" fill="none" id="DataStructure-backto-DimensionComponent" style="stroke:#404040;stroke-width:1.2;"/><polygon fill="#404040" points="558.58,354.0958,554.58,360.0958,558.58,366.0958,562.58,360.0958,558.58,354.0958" style="stroke:#404040;stroke-width:1.2;"/><text fill="#000000" font-family="sans-serif" font-size="13" lengthAdjust="spacing" textLength="88.1689" x="485.73" y="555.4609">hasComponent</text><text fill="#000000" font-family="sans-serif" font-size="13" lengthAdjust="spacing" textLength="19.5127" x="720.2119" y="593.0774">0..*</text></g><!--reverse link DataStructure to VariableDescriptorComponent--><g class="link" data-entity-1="ent0005" data-entity-2="ent0014" data-link-type="composition" data-source-line="40" id="lnk27"><path codeLine="40" d="M470.65,341.9658 C443.03,341.9658 423.33,341.9658 423.33,341.9658 C423.33,341.9658 423.33,612.9658 423.33,612.9658 C423.33,612.9658 402.93,612.9658 378.39,612.9658" fill="none" id="DataStructure-backto-VariableDescriptorComponent" style="stroke:#404040;stroke-width:1.2;"/><polygon fill="#404040" points="482.65,341.9658,476.65,337.9658,470.65,341.9658,476.65,345.9658,482.65,341.9658" style="stroke:#404040;stroke-width:1.2;"/><text fill="#000000" font-family="sans-serif" font-size="13" lengthAdjust="spacing" textLength="88.1689" x="334.33" y="484.7709">hasComponent</text><text fill="#000000" font-family="sans-serif" font-size="13" lengthAdjust="spacing" textLength="19.5127" x="386.1283" y="609.5193">0..*</text></g><!--reverse link DataStructure to VariableValueComponent--><g class="link" data-entity-1="ent0005" data-entity-2="ent0015" data-link-type="composition" data-source-line="41" id="lnk28"><path codeLine="41" d="M493.05,366.2858 C493.05,376.4458 493.05,376.9658 493.05,376.9658 C493.05,376.9658 143.67,376.9658 143.67,376.9658 C143.67,376.9658 143.67,554.6458 143.67,603.9258" fill="none" id="DataStructure-backto-VariableValueComponent" style="stroke:#404040;stroke-width:1.2;"/><polygon fill="#404040" points="493.05,354.2858,489.05,360.2858,493.05,366.2858,497.05,360.2858,493.05,354.2858" style="stroke:#404040;stroke-width:1.2;"/><text fill="#000000" font-family="sans-serif" font-size="13" lengthAdjust="spacing" textLength="88.1689" x="127.22" y="373.4609">hasComponent</text><text fill="#000000" font-family="sans-serif" font-size="13" lengthAdjust="spacing" textLength="19.5127" x="130.7409" y="593.0014">0..*</text></g><!--reverse link DataStructure to PrimaryKey--><g class="link" data-entity-1="ent0005" data-entity-2="ent0016" data-link-type="composition" data-source-line="42" id="lnk29"><path codeLine="42" d="M556.46,365.9958 C556.46,447.9358 556.46,891.9658 556.46,891.9658 C556.46,891.9658 862.65,891.9658 966.7,891.9658" fill="none" id="DataStructure-backto-PrimaryKey" style="stroke:#404040;stroke-width:1.2;"/><polygon fill="#404040" points="556.46,353.9958,552.46,359.9958,556.46,365.9958,560.46,359.9958,556.46,353.9958" style="stroke:#404040;stroke-width:1.2;"/><text fill="#000000" font-family="sans-serif" font-size="13" lengthAdjust="spacing" textLength="88.1372" x="467.46" y="824.6009">hasPrimaryKey</text><text fill="#000000" font-family="sans-serif" font-size="13" lengthAdjust="spacing" textLength="21.6836" x="937.2566" y="888.0558">0..1</text></g><!--reverse link DataStructure to ForeignKey--><g class="link" data-entity-1="ent0005" data-entity-2="ent0017" data-link-type="composition" data-source-line="43" id="lnk30"><path codeLine="43" d="M523.69,366.2158 C523.69,402.3658 523.69,490.9658 523.69,490.9658 C523.69,490.9658 1047.83,490.9658 1047.83,490.9658 C1047.83,490.9658 1047.83,571.4458 1047.83,603.5058" fill="none" id="DataStructure-backto-ForeignKey" style="stroke:#404040;stroke-width:1.2;"/><polygon fill="#404040" points="523.69,354.2158,519.69,360.2158,523.69,366.2158,527.69,360.2158,523.69,354.2158" style="stroke:#404040;stroke-width:1.2;"/><text fill="#000000" font-family="sans-serif" font-size="13" lengthAdjust="spacing" textLength="87.439" x="685.66" y="487.4609">hasForeignKey</text><text fill="#000000" font-family="sans-serif" font-size="13" lengthAdjust="spacing" textLength="19.5127" x="1018.3737" y="593.0591">0..*</text></g><!--reverse link DimensionalDataStructure to IdentifierComponent--><g class="link" data-entity-1="ent0006" data-entity-2="ent0010" data-link-type="composition" data-source-line="44" id="lnk31"><path codeLine="44" d="M705.83,366.2058 C705.83,420.8758 705.83,620.9658 705.83,620.9658 C705.83,620.9658 698.79,620.9658 689.04,620.9658" fill="none" id="DimensionalDataStructure-backto-IdentifierComponent" style="stroke:#404040;stroke-width:1.2;"/><polygon fill="#404040" points="705.83,354.2058,701.83,360.2058,705.83,366.2058,709.83,360.2058,705.83,354.2058" style="stroke:#404040;stroke-width:1.2;"/><text fill="#000000" font-family="sans-serif" font-size="13" lengthAdjust="spacing" textLength="88.1689" x="706.83" y="510.4709">hasComponent</text><text fill="#000000" font-family="sans-serif" font-size="13" lengthAdjust="spacing" textLength="19.5127" x="681.7113" y="617.2015">0..*</text></g><!--reverse link DimensionalDataStructure to MeasureComponent--><g class="link" data-entity-1="ent0006" data-entity-2="ent0011" data-link-type="composition" data-source-line="45" id="lnk32"><path codeLine="45" d="M842.21,366.0158 C842.21,419.9158 842.21,616.9658 842.21,616.9658 C842.21,616.9658 846.98,616.9658 854.02,616.9658" fill="none" id="DimensionalDataStructure-backto-MeasureComponent" style="stroke:#404040;stroke-width:1.2;"/><polygon fill="#404040" points="842.21,354.0158,838.21,360.0158,842.21,366.0158,846.21,360.0158,842.21,354.0158" style="stroke:#404040;stroke-width:1.2;"/><text fill="#000000" font-family="sans-serif" font-size="13" lengthAdjust="spacing" textLength="88.1689" x="843.21" y="487.8909">hasComponent</text><text fill="#000000" font-family="sans-serif" font-size="13" lengthAdjust="spacing" textLength="19.5127" x="841.8788" y="633.7512">0..*</text></g><!--reverse link DimensionalDataStructure to AttributeComponent--><g class="link" data-entity-1="ent0006" data-entity-2="ent0012" data-link-type="composition" data-source-line="46" id="lnk33"><path codeLine="46" d="M702.33,366.1558 C702.33,393.7958 702.33,444.9658 702.33,444.9658 C702.33,444.9658 533.9,444.9658 533.9,444.9658 C533.9,444.9658 533.9,564.2458 533.9,603.8558" fill="none" id="DimensionalDataStructure-backto-AttributeComponent" style="stroke:#404040;stroke-width:1.2;"/><polygon fill="#404040" points="702.33,354.1558,698.33,360.1558,702.33,366.1558,706.33,360.1558,702.33,354.1558" style="stroke:#404040;stroke-width:1.2;"/><text fill="#000000" font-family="sans-serif" font-size="13" lengthAdjust="spacing" textLength="88.1689" x="495.08" y="441.4609">hasComponent</text><text fill="#000000" font-family="sans-serif" font-size="13" lengthAdjust="spacing" textLength="19.5127" x="526.0219" y="592.9025">0..*</text></g><!--reverse link DimensionalDataStructure to DimensionComponent--><g class="link" data-entity-1="ent0006" data-entity-2="ent0013" data-link-type="composition" data-source-line="47" id="lnk34"><path codeLine="47" d="M792.67,365.9958 C792.67,411.8058 792.67,557.9258 792.67,603.8658" fill="none" id="DimensionalDataStructure-backto-DimensionComponent" style="stroke:#404040;stroke-width:1.2;"/><polygon fill="#404040" points="792.67,353.9958,788.67,359.9958,792.67,365.9958,796.67,359.9958,792.67,353.9958" style="stroke:#404040;stroke-width:1.2;"/><text fill="#000000" font-family="sans-serif" font-size="13" lengthAdjust="spacing" textLength="88.1689" x="793.67" y="475.4209">hasComponent</text><text fill="#000000" font-family="sans-serif" font-size="13" lengthAdjust="spacing" textLength="19.5127" x="778.5095" y="592.9166">1..*</text></g><!--reverse link DimensionalDataStructure to PrimaryKey--><g class="link" data-entity-1="ent0006" data-entity-2="ent0016" data-link-type="composition" data-source-line="48" id="lnk35"><path codeLine="48" d="M836.96,366.1258 C836.96,447.8758 836.96,885.9658 836.96,885.9658 C836.96,885.9658 918.43,885.9658 966.48,885.9658" fill="none" id="DimensionalDataStructure-backto-PrimaryKey" style="stroke:#404040;stroke-width:1.2;"/><polygon fill="#404040" points="836.96,354.1258,832.96,360.1258,836.96,366.1258,840.96,360.1258,836.96,354.1258" style="stroke:#404040;stroke-width:1.2;"/><text fill="#000000" font-family="sans-serif" font-size="13" lengthAdjust="spacing" textLength="88.1372" x="747.96" y="681.3009">hasPrimaryKey</text><text fill="#000000" font-family="sans-serif" font-size="13" lengthAdjust="spacing" textLength="21.6836" x="937.2729" y="899.9456">0..1</text></g><!--reverse link DimensionalDataStructure to ForeignKey--><g class="link" data-entity-1="ent0006" data-entity-2="ent0017" data-link-type="composition" data-source-line="49" id="lnk36"><path codeLine="49" d="M839.58,366.1558 C839.58,383.3658 839.58,399.9658 839.58,399.9658 C839.58,399.9658 1063.33,399.9658 1063.33,399.9658 C1063.33,399.9658 1063.33,557.6858 1063.33,603.8858" fill="none" id="DimensionalDataStructure-backto-ForeignKey" style="stroke:#404040;stroke-width:1.2;"/><polygon fill="#404040" points="839.58,354.1558,835.58,360.1558,839.58,366.1558,843.58,360.1558,839.58,354.1558" style="stroke:#404040;stroke-width:1.2;"/><text fill="#000000" font-family="sans-serif" font-size="13" lengthAdjust="spacing" textLength="87.439" x="942.52" y="396.4609">hasForeignKey</text><text fill="#000000" font-family="sans-serif" font-size="13" lengthAdjust="spacing" textLength="19.5127" x="1066.2479" y="592.9449">0..*</text></g><!--reverse link LongDataStructure to IdentifierComponent--><g class="link" data-entity-1="ent0007" data-entity-2="ent0010" data-link-type="composition" data-source-line="50" id="lnk37"><path codeLine="50" d="M391.83,366.0558 C391.83,415.5458 391.83,581.9658 391.83,581.9658 C391.83,581.9658 578.83,581.9658 578.83,581.9658 C578.83,581.9658 578.83,593.8058 578.83,603.6158" fill="none" id="LongDataStructure-backto-IdentifierComponent" style="stroke:#404040;stroke-width:1.2;"/><polygon fill="#404040" points="391.83,354.0558,387.83,360.0558,391.83,366.0558,395.83,360.0558,391.83,354.0558" style="stroke:#404040;stroke-width:1.2;"/><text fill="#000000" font-family="sans-serif" font-size="13" lengthAdjust="spacing" textLength="88.1689" x="302.83" y="568.8309">hasComponent</text><text fill="#000000" font-family="sans-serif" font-size="13" lengthAdjust="spacing" textLength="7.23" x="562.0438" y="595.5917">1</text></g><!--reverse link LongDataStructure to VariableDescriptorComponent--><g class="link" data-entity-1="ent0007" data-entity-2="ent0014" data-link-type="composition" data-source-line="51" id="lnk38"><path codeLine="51" d="M338.33,365.9958 C338.33,411.8058 338.33,557.9258 338.33,603.8658" fill="none" id="LongDataStructure-backto-VariableDescriptorComponent" style="stroke:#404040;stroke-width:1.2;"/><polygon fill="#404040" points="338.33,353.9958,334.33,359.9958,338.33,365.9958,342.33,359.9958,338.33,353.9958" style="stroke:#404040;stroke-width:1.2;"/><text fill="#000000" font-family="sans-serif" font-size="13" lengthAdjust="spacing" textLength="88.1689" x="249.33" y="475.4209">hasComponent</text><text fill="#000000" font-family="sans-serif" font-size="13" lengthAdjust="spacing" textLength="7.23" x="347.9298" y="592.9166">1</text></g><!--reverse link LongDataStructure to VariableValueComponent--><g class="link" data-entity-1="ent0007" data-entity-2="ent0015" data-link-type="composition" data-source-line="52" id="lnk39"><path codeLine="52" d="M286.2,341.9658 C211.18,341.9658 96,341.9658 96,341.9658 C96,341.9658 96,550.2558 96,603.9558" fill="none" id="LongDataStructure-backto-VariableValueComponent" style="stroke:#404040;stroke-width:1.2;"/><polygon fill="#404040" points="298.2,341.9658,292.2,337.9658,286.2,341.9658,292.2,345.9658,298.2,341.9658" style="stroke:#404040;stroke-width:1.2;"/><text fill="#000000" font-family="sans-serif" font-size="13" lengthAdjust="spacing" textLength="88.1689" x="7" y="368.3509">hasComponent</text><text fill="#000000" font-family="sans-serif" font-size="13" lengthAdjust="spacing" textLength="7.23" x="77.8238" y="593.0437">1</text></g><!--reverse link LongDataStructure to AttributeComponent--><g class="link" data-entity-1="ent0007" data-entity-2="ent0012" data-link-type="composition" data-source-line="53" id="lnk40"><path codeLine="53" d="M398.58,366.2058 C398.58,420.8758 398.58,620.9658 398.58,620.9658 C398.58,620.9658 418.96,620.9658 441.25,620.9658" fill="none" id="LongDataStructure-backto-AttributeComponent" style="stroke:#404040;stroke-width:1.2;"/><polygon fill="#404040" points="398.58,354.2058,394.58,360.2058,398.58,366.2058,402.58,360.2058,398.58,354.2058" style="stroke:#404040;stroke-width:1.2;"/><text fill="#000000" font-family="sans-serif" font-size="13" lengthAdjust="spacing" textLength="88.1689" x="309.58" y="505.4109">hasComponent</text><text fill="#000000" font-family="sans-serif" font-size="13" lengthAdjust="spacing" textLength="19.5127" x="413.8337" y="618.029">0..*</text></g><!--reverse link LongDataStructure to PrimaryKey--><g class="link" data-entity-1="ent0007" data-entity-2="ent0016" data-link-type="composition" data-source-line="54" id="lnk41"><path codeLine="54" d="M385.08,366.1358 C385.08,448.9658 385.08,897.9658 385.08,897.9658 C385.08,897.9658 836.74,897.9658 966.41,897.9658" fill="none" id="LongDataStructure-backto-PrimaryKey" style="stroke:#404040;stroke-width:1.2;"/><polygon fill="#404040" points="385.08,354.1358,381.08,360.1358,385.08,366.1358,389.08,360.1358,385.08,354.1358" style="stroke:#404040;stroke-width:1.2;"/><text fill="#000000" font-family="sans-serif" font-size="13" lengthAdjust="spacing" textLength="88.1372" x="314.83" y="894.4609">hasPrimaryKey</text><text fill="#000000" font-family="sans-serif" font-size="13" lengthAdjust="spacing" textLength="21.6836" x="937.19" y="914.1581">0..1</text></g><!--reverse link WideDataStructure to IdentifierComponent--><g class="link" data-entity-1="ent0008" data-entity-2="ent0010" data-link-type="composition" data-source-line="55" id="lnk42"><path codeLine="55" d="M917.33,366.2258 C917.33,409.4958 917.33,535.9658 917.33,535.9658 C917.33,535.9658 683.83,535.9658 683.83,535.9658 C683.83,535.9658 683.83,581.2458 683.83,603.8858" fill="none" id="WideDataStructure-backto-IdentifierComponent" style="stroke:#404040;stroke-width:1.2;"/><polygon fill="#404040" points="917.33,354.2258,913.33,360.2258,917.33,366.2258,921.33,360.2258,917.33,354.2258" style="stroke:#404040;stroke-width:1.2;"/><text fill="#000000" font-family="sans-serif" font-size="13" lengthAdjust="spacing" textLength="88.1689" x="768.49" y="532.4609">hasComponent</text><text fill="#000000" font-family="sans-serif" font-size="13" lengthAdjust="spacing" textLength="19.5127" x="682.4537" y="592.9449">0..*</text></g><!--reverse link WideDataStructure to MeasureComponent--><g class="link" data-entity-1="ent0008" data-entity-2="ent0011" data-link-type="composition" data-source-line="56" id="lnk43"><path codeLine="56" d="M943.33,365.9958 C943.33,411.8058 943.33,557.9258 943.33,603.8658" fill="none" id="WideDataStructure-backto-MeasureComponent" style="stroke:#404040;stroke-width:1.2;"/><polygon fill="#404040" points="943.33,353.9958,939.33,359.9958,943.33,365.9958,947.33,359.9958,943.33,353.9958" style="stroke:#404040;stroke-width:1.2;"/><text fill="#000000" font-family="sans-serif" font-size="13" lengthAdjust="spacing" textLength="88.1689" x="944.33" y="475.4209">hasComponent</text><text fill="#000000" font-family="sans-serif" font-size="13" lengthAdjust="spacing" textLength="19.5127" x="933.5671" y="592.9166">0..*</text></g><!--reverse link WideDataStructure to AttributeComponent--><g class="link" data-entity-1="ent0008" data-entity-2="ent0012" data-link-type="composition" data-source-line="57" id="lnk44"><path codeLine="57" d="M891.33,366.0558 C891.33,398.0558 891.33,467.9658 891.33,467.9658 C891.33,467.9658 544.12,467.9658 544.12,467.9658 C544.12,467.9658 544.12,567.8958 544.12,603.8058" fill="none" id="WideDataStructure-backto-AttributeComponent" style="stroke:#404040;stroke-width:1.2;"/><polygon fill="#404040" points="891.33,354.0558,887.33,360.0558,891.33,366.0558,895.33,360.0558,891.33,354.0558" style="stroke:#404040;stroke-width:1.2;"/><text fill="#000000" font-family="sans-serif" font-size="13" lengthAdjust="spacing" textLength="88.1689" x="617.76" y="464.4609">hasComponent</text><text fill="#000000" font-family="sans-serif" font-size="13" lengthAdjust="spacing" textLength="19.5127" x="562.028" y="594.7567">0..*</text></g><!--reverse link WideDataStructure to PrimaryKey--><g class="link" data-entity-1="ent0008" data-entity-2="ent0016" data-link-type="composition" data-source-line="58" id="lnk45"><path codeLine="58" d="M984.71,345.9658 C984.71,345.9658 979.17,796.8758 979.17,878.7858" fill="none" id="WideDataStructure-backto-PrimaryKey" style="stroke:#404040;stroke-width:1.2;"/><polygon fill="#404040" points="972.71,345.9658,978.71,349.9658,984.71,345.9658,978.71,341.9658,972.71,345.9658" style="stroke:#404040;stroke-width:1.2;"/><text fill="#000000" font-family="sans-serif" font-size="13" lengthAdjust="spacing" textLength="88.1372" x="957.67" y="623.6409">hasPrimaryKey</text><text fill="#000000" font-family="sans-serif" font-size="13" lengthAdjust="spacing" textLength="21.6836" x="974.9084" y="868.1889">0..1</text></g><!--reverse link WideDataStructure to ForeignKey--><g class="link" data-entity-1="ent0008" data-entity-2="ent0017" data-link-type="composition" data-source-line="59" id="lnk46"><path codeLine="59" d="M984.41,337.9658 C992.39,337.9658 986,337.9658 986,337.9658 C986,337.9658 986,612.9658 986,612.9658 C986,612.9658 1010.22,612.9658 1031.98,612.9658" fill="none" id="WideDataStructure-backto-ForeignKey" style="stroke:#404040;stroke-width:1.2;"/><polygon fill="#404040" points="972.41,337.9658,978.41,341.9658,984.41,337.9658,978.41,333.9658,972.41,337.9658" style="stroke:#404040;stroke-width:1.2;"/><text fill="#000000" font-family="sans-serif" font-size="13" lengthAdjust="spacing" textLength="87.439" x="898" y="506.1509">hasForeignKey</text><text fill="#000000" font-family="sans-serif" font-size="13" lengthAdjust="spacing" textLength="19.5127" x="1004.7305" y="608.2933">0..*</text></g><!--reverse link DimensionGroup to IdentifierComponent--><g class="link" data-entity-1="ent0009" data-entity-2="ent0010" data-link-type="composition" data-source-line="60" id="lnk47"><path codeLine="60" d="M614.83,365.9958 C614.83,411.8058 614.83,557.9258 614.83,603.8658" fill="none" id="DimensionGroup-backto-IdentifierComponent" style="stroke:#404040;stroke-width:1.2;"/><polygon fill="#404040" points="614.83,353.9958,610.83,359.9958,614.83,365.9958,618.83,359.9958,614.83,353.9958" style="stroke:#404040;stroke-width:1.2;"/><text fill="#000000" font-family="sans-serif" font-size="13" lengthAdjust="spacing" textLength="88.1689" x="525.83" y="475.4209">hasComponent</text><text fill="#000000" font-family="sans-serif" font-size="13" lengthAdjust="spacing" textLength="19.5127" x="584.9912" y="592.9166">0..*</text></g><!--reverse link DimensionGroup to MeasureComponent--><g class="link" data-entity-1="ent0009" data-entity-2="ent0011" data-link-type="composition" data-source-line="61" id="lnk48"><path codeLine="61" d="M646.83,366.1958 C646.83,389.1258 646.83,422.9658 646.83,422.9658 C646.83,422.9658 861.67,422.9658 861.67,422.9658 C861.67,422.9658 861.67,560.7258 861.67,603.7658" fill="none" id="DimensionGroup-backto-MeasureComponent" style="stroke:#404040;stroke-width:1.2;"/><polygon fill="#404040" points="646.83,354.1958,642.83,360.1958,646.83,366.1958,650.83,360.1958,646.83,354.1958" style="stroke:#404040;stroke-width:1.2;"/><text fill="#000000" font-family="sans-serif" font-size="13" lengthAdjust="spacing" textLength="88.1689" x="721.27" y="419.4609">hasComponent</text><text fill="#000000" font-family="sans-serif" font-size="13" lengthAdjust="spacing" textLength="19.5127" x="845.8149" y="593.1611">0..*</text></g><!--reverse link DimensionGroup to AttributeComponent--><g class="link" data-entity-1="ent0009" data-entity-2="ent0012" data-link-type="composition" data-source-line="62" id="lnk49"><path codeLine="62" d="M570.59,341.9658 C562.59,341.9658 568.83,341.9658 568.83,341.9658 C568.83,341.9658 568.83,612.9658 568.83,612.9658 C568.83,612.9658 562.9,612.9658 554.47,612.9658" fill="none" id="DimensionGroup-backto-AttributeComponent" style="stroke:#404040;stroke-width:1.2;"/><polygon fill="#404040" points="582.59,341.9658,576.59,337.9658,570.59,341.9658,576.59,345.9658,582.59,341.9658" style="stroke:#404040;stroke-width:1.2;"/><text fill="#000000" font-family="sans-serif" font-size="13" lengthAdjust="spacing" textLength="88.1689" x="569.83" y="492.2609">hasComponent</text><text fill="#000000" font-family="sans-serif" font-size="13" lengthAdjust="spacing" textLength="19.5127" x="562.0121" y="628.1829">0..*</text></g><!--reverse link DimensionGroup to DimensionComponent--><g class="link" data-entity-1="ent0009" data-entity-2="ent0013" data-link-type="composition" data-source-line="63" id="lnk50"><path codeLine="63" d="M690.9,341.9658 C699.53,341.9658 693.83,341.9658 693.83,341.9658 C693.83,341.9658 693.83,612.9658 693.83,612.9658 C693.83,612.9658 700.18,612.9658 709.24,612.9658" fill="none" id="DimensionGroup-backto-DimensionComponent" style="stroke:#404040;stroke-width:1.2;"/><polygon fill="#404040" points="678.9,341.9658,684.9,345.9658,690.9,341.9658,684.9,337.9658,678.9,341.9658" style="stroke:#404040;stroke-width:1.2;"/><text fill="#000000" font-family="sans-serif" font-size="13" lengthAdjust="spacing" textLength="88.1689" x="694.83" y="474.2009">hasComponent</text><text fill="#000000" font-family="sans-serif" font-size="13" lengthAdjust="spacing" textLength="19.5127" x="681.9178" y="606.4532">0..*</text></g><!--link PrimaryKey to RepresentedVariable--><g class="link" data-entity-1="ent0016" data-entity-2="ent0004" data-link-type="dependency" data-source-line="64" id="lnk51"><path codeLine="64" d="M1004.08,903.9958 C1004.08,949.8058 1004.08,1101.9258 1004.08,1147.8658" fill="none" id="PrimaryKey-to-RepresentedVariable" style="stroke:#404040;stroke-width:1.2;"/><polygon fill="#404040" points="1004.08,1153.8658,1008.08,1144.8658,1004.08,1148.8658,1000.08,1144.8658,1004.08,1153.8658" style="stroke:#404040;stroke-width:1.2;"/><text fill="#000000" font-family="sans-serif" font-size="13" lengthAdjust="spacing" textLength="85.979" x="918.08" y="1025.4209">isComposedOf</text><text fill="#000000" font-family="sans-serif" font-size="13" lengthAdjust="spacing" textLength="19.5127" x="969.4612" y="1142.9166">1..*</text></g><!--link ForeignKey to RepresentedVariable--><g class="link" data-entity-1="ent0017" data-entity-2="ent0004" data-link-type="dependency" data-source-line="65" id="lnk52"><path codeLine="65" d="M1063.58,628.9858 C1063.58,702.6958 1063.58,1073.4058 1063.58,1147.7258" fill="none" id="ForeignKey-to-RepresentedVariable" style="stroke:#404040;stroke-width:1.2;"/><polygon fill="#404040" points="1063.58,1153.7258,1067.58,1144.7258,1063.58,1148.7258,1059.58,1144.7258,1063.58,1153.7258" style="stroke:#404040;stroke-width:1.2;"/><text fill="#000000" font-family="sans-serif" font-size="13" lengthAdjust="spacing" textLength="85.979" x="1064.58" y="887.8509">isComposedOf</text><text fill="#000000" font-family="sans-serif" font-size="13" lengthAdjust="spacing" textLength="19.5127" x="1053.0993" y="1143.1053">1..*</text></g><!--link ForeignKey to PrimaryKey--><g class="link" data-entity-1="ent0017" data-entity-2="ent0016" data-link-type="dependency" data-source-line="66" id="lnk53"><path codeLine="66" d="M1032.11,620.9658 C1021.54,620.9658 1012.58,620.9658 1012.58,620.9658 C1012.58,620.9658 1012.58,819.3058 1012.58,872.7858" fill="none" id="ForeignKey-to-PrimaryKey" style="stroke:#404040;stroke-width:1.2;"/><polygon fill="#404040" points="1012.58,878.7858,1016.58,869.7858,1012.58,873.7858,1008.58,869.7858,1012.58,878.7858" style="stroke:#404040;stroke-width:1.2;"/><text fill="#000000" font-family="sans-serif" font-size="13" lengthAdjust="spacing" textLength="61.4199" x="950.58" y="736.6109">references</text><text fill="#000000" font-family="sans-serif" font-size="13" lengthAdjust="spacing" textLength="21.6836" x="1021.4736" y="868.1889">0..1</text></g><?plantuml-src fPRDZjem4CVlUGgBlQq40jgzSAZ4yb6jsghLRhKzcsG0byIEniuYMbNgG_G9-oGrYSY77IUcAoxuF_vDRCz_uYYcOY2BvSDwIHLzKfY5AaCWVt__8U85y8N1CTYp24Z8C8oX-0z9gauaWMG3A0DvO3obI1CYzpGIHyPtP4jZ2RN8754Sl-vPUE0W9PcCfhKWKdwGa9BftRYcSX51hjR5c75GfnI8GBKNjK0OKvttPq2AHor4B93Sl1sVVrgy5nW1ckfQSFN4VW2PJ8DVGL3a69nFOYcEF1Oq6X0gILqWD-lLUhLONIOlT2mMkqS8zHFosGt5dFu8AUfTSGNHCqL6Dp7aK8kkqVdgRlcclgooGEMwgfAPqra2N3B1QTn2Ee9cae-2xspQKaticpQ9ZLcgSydlKMHfSw6vP08FaJunjcNdoYQfu7gKKoswYNu2AlKIcfmfcj1SAMIRJ1cOBJjtrWHjsGGlPbY2396bIXWxxOYxKZtJE8FsBCsGcU0BieJYwGESSgWQcXFN0e7j-6LYDImdDZfgE7n71kFHQ38mUcT6PBRv3g7wl7KIJKFD29FbABe_kJ5N0tXdi9l06xKReHMjmhV3OSxU3bgjFIDxAikXcxNixGks6DmNRR6uBzhbxMjp6CxsmdMbQXxFaMhiVcJDxZbJZGEdwwuii4UQtbfxvF0eUsUMYQy3-jRIKmcFhNGKnMxaOl5UfN33LxYtFqctVHsyRn7TUFUvsw-nwspSoVVvjnFktxCRVyMUVJg_-8xvptwtOEykjyWhUjjY-pkwTeBvlLUy2Te-SiytNyv9YFGrNpl2ru4jbKJO0W8FGGR_0000?></g></svg>