<svg xmlns="http://www.w3.org/2000/svg" xmlns:xlink="http://www.w3.org/1999/xlink" contentStyleType="text/css" data-diagram-type="CLASS" height="1511px" preserveAspectRatio="none" style="width:2660px;height:1511px;background:#FFFFFF;" version="1.1" viewBox="0 0 2660 1511" width="2660px" zoomAndPan="magnify"><?plantuml 1.2026.3?><defs/><g><g class="title" data-source-line="1"><text fill="#000000" font-family="sans-serif" font-size="14" font-weight="700" lengthAdjust="spacing" textLength="194.1748" x="1229.7065" y="24.5332">CDIFProvenance &#8212; overview</text></g><!--class ProvActivity--><g class="entity" data-qualified-name="ProvActivity" data-source-line="16" id="ent0002"><rect fill="#FEFECE" height="47.7344" rx="2.5" ry="2.5" style="stroke:#404040;stroke-width:0.5;" width="162.6943" x="623" y="1104.913"/><text fill="#000000" font-family="sans-serif" font-size="30" lengthAdjust="spacing" textLength="156.6943" x="626" y="1141.0556">ProvActivity</text></g><!--class Instrument--><g class="entity" data-qualified-name="Instrument" data-source-line="17" id="ent0003"><rect fill="#FEFECE" height="47.7344" rx="2.5" ry="2.5" style="stroke:#404040;stroke-width:0.5;" width="147.7236" x="392.5" y="1449.913"/><text fill="#000000" font-family="sans-serif" font-size="30" lengthAdjust="spacing" textLength="141.7236" x="395.5" y="1486.0556">Instrument</text></g><!--class AgentInRole--><g class="entity" data-qualified-name="AgentInRole" data-source-line="18" id="ent0004"><rect fill="#FEFECE" height="47.7344" rx="2.5" ry="2.5" style="stroke:#404040;stroke-width:0.5;" width="171.1172" x="561" y="1449.913"/><text fill="#000000" font-family="sans-serif" font-size="30" lengthAdjust="spacing" textLength="165.1172" x="564" y="1486.0556">AgentInRole</text></g><!--class Dataset--><g class="entity" data-qualified-name="Dataset" data-source-line="19" id="ent0005"><rect fill="#FEFECE" height="47.7344" rx="2.5" ry="2.5" style="stroke:#404040;stroke-width:0.5;" width="109.3887" x="1467" y="68.913"/><text fill="#000000" font-family="sans-serif" font-size="30" lengthAdjust="spacing" textLength="103.3887" x="1470" y="105.0556">Dataset</text></g><!--class AbstractDistribution--><g class="entity" data-qualified-name="AbstractDistribution" data-source-line="20" id="ent0006"><rect fill="#D6EAF8" height="47.7344" rx="2.5" ry="2.5" style="stroke:#404040;stroke-width:0.5;" width="266.0977" x="1255.5" y="413.913"/><text fill="#000000" font-family="sans-serif" font-size="30" font-style="italic" lengthAdjust="spacing" textLength="260.0977" x="1258.5" y="450.0556">AbstractDistribution</text></g><!--class DataDownload--><g class="entity" data-qualified-name="DataDownload" data-source-line="21" id="ent0007"><rect fill="#FEFECE" height="47.7344" rx="2.5" ry="2.5" style="stroke:#404040;stroke-width:0.5;" width="202.7871" x="1426" y="759.913"/><text fill="#000000" font-family="sans-serif" font-size="30" lengthAdjust="spacing" textLength="196.7871" x="1429" y="796.0556">DataDownload</text></g><!--class WebAPI--><g class="entity" data-qualified-name="WebAPI" data-source-line="22" id="ent0008"><rect fill="#FCF3CF" height="47.7344" rx="2.5" ry="2.5" style="stroke:#404040;stroke-width:0.5;" width="116.0391" x="1793.5" y="759.913"/><text fill="#000000" font-family="sans-serif" font-size="30" lengthAdjust="spacing" textLength="110.0391" x="1796.5" y="796.0556">WebAPI</text></g><!--class Action--><g class="entity" data-qualified-name="Action" data-source-line="23" id="ent0009"><rect fill="#D6EAF8" height="47.7344" rx="2.5" ry="2.5" style="stroke:#404040;stroke-width:0.5;" width="89.3789" x="1807" y="1104.913"/><text fill="#000000" font-family="sans-serif" font-size="30" lengthAdjust="spacing" textLength="83.3789" x="1810" y="1141.0556">Action</text></g><!--class EntryPoint--><g class="entity" data-qualified-name="EntryPoint" data-source-line="24" id="ent0010"><rect fill="#D6EAF8" height="47.7344" rx="2.5" ry="2.5" style="stroke:#404040;stroke-width:0.5;" width="144.3984" x="2054.5" y="1449.913"/><text fill="#000000" font-family="sans-serif" font-size="30" lengthAdjust="spacing" textLength="138.3984" x="2057.5" y="1486.0556">EntryPoint</text></g><!--class ActionResult--><g class="entity" data-qualified-name="ActionResult" data-source-line="25" id="ent0011"><rect fill="#FCF3CF" height="47.7344" rx="2.5" ry="2.5" style="stroke:#404040;stroke-width:0.5;" width="174.4131" x="1474.5" y="1449.913"/><text fill="#000000" font-family="sans-serif" font-size="30" lengthAdjust="spacing" textLength="168.4131" x="1477.5" y="1486.0556">ActionResult</text></g><!--class PropertyValueSpecification--><g class="entity" data-qualified-name="PropertyValueSpecification" data-source-line="26" id="ent0012"><rect fill="#D6EAF8" height="47.7344" rx="2.5" ry="2.5" style="stroke:#404040;stroke-width:0.5;" width="366.2051" x="1668.5" y="1449.913"/><text fill="#000000" font-family="sans-serif" font-size="30" lengthAdjust="spacing" textLength="360.2051" x="1671.5" y="1486.0556">PropertyValueSpecification</text></g><!--class Agent--><g class="entity" data-qualified-name="Agent" data-source-line="27" id="ent0013"><rect fill="#D6EAF8" height="47.7344" rx="2.5" ry="2.5" style="stroke:#404040;stroke-width:0.5;" width="84.3984" x="1166.5" y="1104.913"/><text fill="#000000" font-family="sans-serif" font-size="30" font-style="italic" lengthAdjust="spacing" textLength="78.3984" x="1169.5" y="1141.0556">Agent</text></g><!--class Person--><g class="entity" data-qualified-name="Person" data-source-line="28" id="ent0014"><rect fill="#D6EAF8" height="47.7344" rx="2.5" ry="2.5" style="stroke:#404040;stroke-width:0.5;" width="101.0537" x="830" y="1449.913"/><text fill="#000000" font-family="sans-serif" font-size="30" lengthAdjust="spacing" textLength="95.0537" x="833" y="1486.0556">Person</text></g><!--class ContactPoint--><g class="entity" data-qualified-name="ContactPoint" data-source-line="29" id="ent0015"><rect fill="#D6EAF8" height="47.7344" rx="2.5" ry="2.5" style="stroke:#404040;stroke-width:0.5;" width="177.7676" x="43.5" y="68.913"/><text fill="#000000" font-family="sans-serif" font-size="30" lengthAdjust="spacing" textLength="171.7676" x="46.5" y="105.0556">ContactPoint</text></g><!--class Organization--><g class="entity" data-qualified-name="Organization" data-source-line="30" id="ent0016"><rect fill="#D6EAF8" height="47.7344" rx="2.5" ry="2.5" style="stroke:#404040;stroke-width:0.5;" width="176.0977" x="1052.5" y="1449.913"/><text fill="#000000" font-family="sans-serif" font-size="30" lengthAdjust="spacing" textLength="170.0977" x="1055.5" y="1486.0556">Organization</text></g><!--class Contributor--><g class="entity" data-qualified-name="Contributor" data-source-line="31" id="ent0017"><rect fill="#D6EAF8" height="47.7344" rx="2.5" ry="2.5" style="stroke:#404040;stroke-width:0.5;" width="154.4033" x="1335.5" y="586.913"/><text fill="#000000" font-family="sans-serif" font-size="30" lengthAdjust="spacing" textLength="148.4033" x="1338.5" y="623.0556">Contributor</text></g><!--class DefinedTerm--><g class="entity" data-qualified-name="DefinedTerm" data-source-line="32" id="ent0018"><rect fill="#FEFECE" height="47.7344" rx="2.5" ry="2.5" style="stroke:#404040;stroke-width:0.5;" width="179.3936" x="1542" y="413.913"/><text fill="#000000" font-family="sans-serif" font-size="30" lengthAdjust="spacing" textLength="173.3936" x="1545" y="450.0556">DefinedTerm</text></g><!--class Identifier--><g class="entity" data-qualified-name="Identifier" data-source-line="33" id="ent0019"><rect fill="#D6EAF8" height="47.7344" rx="2.5" ry="2.5" style="stroke:#404040;stroke-width:0.5;" width="121.0635" x="242" y="68.913"/><text fill="#000000" font-family="sans-serif" font-size="30" lengthAdjust="spacing" textLength="115.0635" x="245" y="105.0556">Identifier</text></g><!--class AdditionalProperty--><g class="entity" data-qualified-name="AdditionalProperty" data-source-line="34" id="ent0020"><rect fill="#D6EAF8" height="47.7344" rx="2.5" ry="2.5" style="stroke:#404040;stroke-width:0.5;" width="251.1416" x="7" y="413.913"/><text fill="#000000" font-family="sans-serif" font-size="30" lengthAdjust="spacing" textLength="245.1416" x="10" y="450.0556">AdditionalProperty</text></g><!--class Reference--><g class="entity" data-qualified-name="Reference" data-source-line="35" id="ent0021"><rect fill="#D6EAF8" height="47.7344" rx="2.5" ry="2.5" style="stroke:#404040;stroke-width:0.5;" width="144.4131" x="1741.5" y="413.913"/><text fill="#000000" font-family="sans-serif" font-size="30" lengthAdjust="spacing" textLength="138.4131" x="1744.5" y="450.0556">Reference</text></g><!--class MonetaryGrant--><g class="entity" data-qualified-name="MonetaryGrant" data-source-line="36" id="ent0022"><rect fill="#D6EAF8" height="47.7344" rx="2.5" ry="2.5" style="stroke:#404040;stroke-width:0.5;" width="206.083" x="1582.5" y="586.913"/><text fill="#000000" font-family="sans-serif" font-size="30" lengthAdjust="spacing" textLength="200.083" x="1585.5" y="623.0556">MonetaryGrant</text></g><!--class DerivedFrom--><g class="entity" data-qualified-name="DerivedFrom" data-source-line="37" id="ent0023"><rect fill="#D6EAF8" height="47.7344" rx="2.5" ry="2.5" style="stroke:#404040;stroke-width:0.5;" width="179.3643" x="1996" y="413.913"/><text fill="#000000" font-family="sans-serif" font-size="30" lengthAdjust="spacing" textLength="173.3643" x="1999" y="450.0556">DerivedFrom</text></g><!--class CatalogRecord--><g class="entity" data-qualified-name="CatalogRecord" data-source-line="38" id="ent0024"><rect fill="#FEFECE" height="47.7344" rx="2.5" ry="2.5" style="stroke:#404040;stroke-width:0.5;" width="206.1123" x="2281.5" y="413.913"/><text fill="#000000" font-family="sans-serif" font-size="30" lengthAdjust="spacing" textLength="200.1123" x="2284.5" y="450.0556">CatalogRecord</text></g><!--class CdifConceptOrTerm--><g class="entity" data-qualified-name="CdifConceptOrTerm" data-source-line="39" id="ent0025"><rect fill="#FAE5D3" height="47.7344" rx="2.5" ry="2.5" style="stroke:#404040;stroke-width:0.5;" width="274.4033" x="278.5" y="413.913"/><text fill="#000000" font-family="sans-serif" font-size="30" lengthAdjust="spacing" textLength="268.4033" x="281.5" y="450.0556">CdifConceptOrTerm</text></g><!--reverse link AbstractDistribution to DataDownload--><g class="link" data-entity-1="ent0006" data-entity-2="ent0007" data-link-type="extension" data-source-line="40" id="lnk26"><path codeLine="40" d="M1424.3963,475.2051 C1450.4063,502.5051 1478.97,537.363 1499.5,586.913 C1523.9,645.823 1527.64,722.273 1527.85,759.913" fill="none" id="AbstractDistribution-backto-DataDownload" style="stroke:#404040;stroke-width:1.2;"/><polygon fill="none" points="1411.98,462.173,1420.0523,479.3439,1428.7403,471.0663,1411.98,462.173" style="stroke:#404040;stroke-width:1.2;"/></g><!--reverse link AbstractDistribution to WebAPI--><g class="link" data-entity-1="ent0006" data-entity-2="ent0008" data-link-type="extension" data-source-line="41" id="lnk27"><path codeLine="41" d="M1499.8282,466.6004 C1606.8082,494.7304 1755.05,539.733 1798.5,586.913 C1843.63,635.923 1851.01,719.393 1851.78,759.733" fill="none" id="AbstractDistribution-backto-WebAPI" style="stroke:#404040;stroke-width:1.2;"/><polygon fill="none" points="1482.42,462.023,1498.3024,472.4032,1501.3541,460.7977,1482.42,462.023" style="stroke:#404040;stroke-width:1.2;"/></g><!--reverse link Agent to Person--><g class="link" data-entity-1="ent0013" data-entity-2="ent0014" data-link-type="extension" data-source-line="42" id="lnk28"><path codeLine="42" d="M1209.8291,1170.9308 C1210.4391,1210.2708 1206.04,1273.193 1166.5,1324.913 C1107.33,1402.303 996.21,1442.913 931.27,1460.953" fill="none" id="Agent-backto-Person" style="stroke:#404040;stroke-width:1.2;"/><polygon fill="none" points="1209.55,1152.933,1203.8298,1171.0239,1215.8284,1170.8378,1209.55,1152.933" style="stroke:#404040;stroke-width:1.2;"/></g><!--reverse link Agent to Organization--><g class="link" data-entity-1="ent0013" data-entity-2="ent0016" data-link-type="extension" data-source-line="43" id="lnk29"><path codeLine="43" d="M1208.6462,1171.0129 C1208.5362,1207.8029 1206.54,1263.813 1193.5,1324.913 C1183.76,1370.553 1163.38,1421.253 1150.93,1449.893" fill="none" id="Agent-backto-Organization" style="stroke:#404040;stroke-width:1.2;"/><polygon fill="none" points="1208.7,1153.013,1202.6462,1170.995,1214.6462,1171.0308,1208.7,1153.013" style="stroke:#404040;stroke-width:1.2;"/></g><!--link ProvActivity to Instrument--><g class="link" data-entity-1="ent0002" data-entity-2="ent0003" data-link-type="dependency" data-source-line="44" id="lnk30"><path codeLine="44" d="M676.63,1152.973 C644.94,1180.283 593.12,1228.353 558.5,1277.913 C518.74,1334.843 490.332,1406.0112 476.582,1444.0012" fill="none" id="ProvActivity-to-Instrument" style="stroke:#404040;stroke-width:1.2;"/><polygon fill="#404040" points="474.54,1449.643,481.3642,1442.5416,476.2417,1444.9415,473.8418,1439.8189,474.54,1449.643" style="stroke:#404040;stroke-width:1.2;"/><text fill="#000000" font-family="sans-serif" font-size="36" lengthAdjust="spacing" textLength="76.043" x="559.5" y="1316.2841">uses</text><text fill="#000000" font-family="sans-serif" font-size="36" lengthAdjust="spacing" textLength="54.0352" x="417.308" y="1434.0225">0..*</text></g><!--link ProvActivity to Person--><g class="link" data-entity-1="ent0002" data-entity-2="ent0014" data-link-type="dependency" data-source-line="45" id="lnk31"><path codeLine="45" d="M708.61,1153.203 C715.88,1190.903 733.2,1266.913 763.5,1324.913 C788.98,1373.683 827.2709,1417.8298 853.4309,1445.4098" fill="none" id="ProvActivity-to-Person" style="stroke:#404040;stroke-width:1.2;"/><polygon fill="#404040" points="857.56,1449.763,854.2685,1440.4804,854.1191,1446.1353,848.4642,1445.9859,857.56,1449.763" style="stroke:#404040;stroke-width:1.2;"/><text fill="#000000" font-family="sans-serif" font-size="36" lengthAdjust="spacing" textLength="90.0879" x="764.5" y="1316.2841">agent</text><text fill="#000000" font-family="sans-serif" font-size="36" lengthAdjust="spacing" textLength="60.0469" x="788.1295" y="1433.8733">0..1</text></g><!--link ProvActivity to Person--><g class="link" data-entity-1="ent0002" data-entity-2="ent0014" data-link-type="dependency" data-source-line="47" id="lnk33"><path codeLine="47" d="M739.54,1153.023 C775.49,1178.843 829.82,1224.133 856.5,1277.913 C884.7,1334.743 884.9324,1405.9428 882.7624,1443.9028" fill="none" id="ProvActivity-to-Person-1" style="stroke:#404040;stroke-width:1.2;"/><polygon fill="#404040" points="882.42,1449.893,886.9271,1441.1359,882.7054,1444.9011,878.9402,1440.6794,882.42,1449.893" style="stroke:#404040;stroke-width:1.2;"/><text fill="#000000" font-family="sans-serif" font-size="36" lengthAdjust="spacing" textLength="166.0957" x="874.5" y="1316.2841">participant</text><text fill="#000000" font-family="sans-serif" font-size="36" lengthAdjust="spacing" textLength="54.0352" x="887.5697" y="1434.0264">0..*</text></g><!--link ProvActivity to Organization--><g class="link" data-entity-1="ent0002" data-entity-2="ent0016" data-link-type="dependency" data-source-line="46" id="lnk32"><path codeLine="46" d="M786.23,1147.833 C861.91,1168.093 973.46,1207.793 1046.5,1277.913 C1097.6,1326.973 1122.8783,1403.7118 1133.4683,1443.8218" fill="none" id="ProvActivity-to-Organization" style="stroke:#404040;stroke-width:1.2;"/><polygon fill="#404040" points="1135,1449.623,1136.57,1439.9001,1133.7236,1444.7886,1128.835,1441.9423,1135,1449.623" style="stroke:#404040;stroke-width:1.2;"/><text fill="#000000" font-family="sans-serif" font-size="36" lengthAdjust="spacing" textLength="90.0879" x="1084.5" y="1316.2841">agent</text><text fill="#000000" font-family="sans-serif" font-size="36" lengthAdjust="spacing" textLength="60.0469" x="1068.8941" y="1433.999">0..1</text></g><!--link ProvActivity to AgentInRole--><g class="link" data-entity-1="ent0002" data-entity-2="ent0004" data-link-type="dependency" data-source-line="48" id="lnk34"><path codeLine="48" d="M692.34,1152.943 C678.06,1181.383 655.24,1231.683 646.5,1277.913 C634.93,1339.123 639.3779,1407.1143 643.1479,1443.8743" fill="none" id="ProvActivity-to-AgentInRole" style="stroke:#404040;stroke-width:1.2;"/><polygon fill="#404040" points="643.76,1449.843,646.8209,1440.4819,643.2499,1444.8691,638.8627,1441.298,643.76,1449.843" style="stroke:#404040;stroke-width:1.2;"/><text fill="#000000" font-family="sans-serif" font-size="36" lengthAdjust="spacing" textLength="90.0879" x="647.5" y="1316.2841">agent</text><text fill="#000000" font-family="sans-serif" font-size="36" lengthAdjust="spacing" textLength="54.0352" x="584.4553" y="1433.9675">0..*</text></g><!--reverse link Dataset to ProvActivity--><g class="link" data-entity-1="ent0005" data-entity-2="ent0002" data-link-type="composition" data-source-line="49" id="lnk35"><path codeLine="49" d="M1455.0825,101.6778 C1353.3525,115.0578 1141.96,151.493 977.5,241.913 C778.19,351.503 691.31,378.813 599.5,586.913 C516.66,774.673 646.36,1027.603 690.59,1104.673" fill="none" id="Dataset-backto-ProvActivity" style="stroke:#404040;stroke-width:1.2;"/><polygon fill="#404040" points="1466.98,100.113,1460.5096,96.9296,1455.0825,101.6778,1461.5528,104.8612,1466.98,100.113" style="stroke:#404040;stroke-width:1.2;"/><text fill="#000000" font-family="sans-serif" font-size="36" lengthAdjust="spacing" textLength="276.1523" x="600.5" y="625.7841">wasGeneratedBy</text><text fill="#000000" font-family="sans-serif" font-size="36" lengthAdjust="spacing" textLength="54.0352" x="629.5879" y="1089.0576">0..*</text></g><!--link Dataset to Agent--><g class="link" data-entity-1="ent0005" data-entity-2="ent0013" data-link-type="dependency" data-source-line="50" id="lnk36"><path codeLine="50" d="M1466.62,95.463 C1366.79,101.173 1154.13,126.993 1027.5,241.913 C904.84,353.233 918.43,424.373 886.5,586.913 C855.14,746.513 980.11,915.813 1027.5,979.913 C1066.96,1033.273 1124.7965,1075.5929 1165.0965,1101.5629" fill="none" id="Dataset-to-Agent" style="stroke:#404040;stroke-width:1.2;"/><polygon fill="#404040" points="1170.14,1104.813,1164.7415,1096.5755,1165.9371,1102.1046,1160.408,1103.3002,1170.14,1104.813" style="stroke:#404040;stroke-width:1.2;"/><text fill="#000000" font-family="sans-serif" font-size="36" lengthAdjust="spacing" textLength="130.0605" x="887.5" y="625.7841">provider</text><text fill="#000000" font-family="sans-serif" font-size="36" lengthAdjust="spacing" textLength="54.0352" x="1104.4654" y="1088.9322">0..*</text></g><!--link Dataset to Agent--><g class="link" data-entity-1="ent0005" data-entity-2="ent0013" data-link-type="dependency" data-source-line="52" id="lnk38"><path codeLine="52" d="M1466.8,102.493 C1389.55,117.393 1248.77,155.203 1166.5,241.913 C1054.45,360.003 1071.24,426.503 1043.5,586.913 C1007.86,793.013 1142.5178,1025.618 1189.8478,1099.638" fill="none" id="Dataset-to-Agent-1" style="stroke:#404040;stroke-width:1.2;"/><polygon fill="#404040" points="1193.08,1104.693,1191.6016,1094.9557,1190.3865,1100.4805,1184.8617,1099.2654,1193.08,1104.693" style="stroke:#404040;stroke-width:1.2;"/><text fill="#000000" font-family="sans-serif" font-size="36" lengthAdjust="spacing" textLength="112.043" x="1044.5" y="625.7841">creator</text><text fill="#000000" font-family="sans-serif" font-size="36" lengthAdjust="spacing" textLength="54.0352" x="1195.0391" y="1089.0811">0..*</text></g><!--link Dataset to Agent--><g class="link" data-entity-1="ent0005" data-entity-2="ent0013" data-link-type="dependency" data-source-line="54" id="lnk40"><path codeLine="54" d="M1466.77,101.953 C1392.79,116.003 1263.08,152.583 1201.5,241.913 C1108.42,376.943 1186.68,816.273 1197.5,979.913 C1200.42,1024.133 1203.9215,1069.7613 1206.2015,1098.8713" fill="none" id="Dataset-to-Agent-2" style="stroke:#404040;stroke-width:1.2;"/><polygon fill="#404040" points="1206.67,1104.853,1209.955,1095.5681,1206.2796,1099.8683,1201.9795,1096.1928,1206.67,1104.853" style="stroke:#404040;stroke-width:1.2;"/><text fill="#000000" font-family="sans-serif" font-size="36" lengthAdjust="spacing" textLength="146.0918" x="1163.5" y="625.7841">publisher</text><text fill="#000000" font-family="sans-serif" font-size="36" lengthAdjust="spacing" textLength="60.0469" x="1140.969" y="1088.9793">0..1</text></g><!--link Dataset to AbstractDistribution--><g class="link" data-entity-1="ent0005" data-entity-2="ent0006" data-link-type="dependency" data-source-line="51" id="lnk37"><path codeLine="51" d="M1500.02,116.983 C1475.75,144.493 1437.07,192.923 1417.5,241.913 C1394.01,300.713 1389.4466,370.3643 1388.6566,407.8043" fill="none" id="Dataset-to-AbstractDistribution" style="stroke:#404040;stroke-width:1.2;"/><polygon fill="#404040" points="1388.53,413.803,1392.719,404.8894,1388.6355,408.8041,1384.7208,404.7206,1388.53,413.803" style="stroke:#404040;stroke-width:1.2;"/><text fill="#000000" font-family="sans-serif" font-size="36" lengthAdjust="spacing" textLength="174.0938" x="1418.5" y="280.2841">distribution</text><text fill="#000000" font-family="sans-serif" font-size="36" lengthAdjust="spacing" textLength="54.0352" x="1329.7204" y="397.9204">0..*</text></g><!--link Dataset to Contributor--><g class="link" data-entity-1="ent0005" data-entity-2="ent0017" data-link-type="dependency" data-source-line="53" id="lnk39"><path codeLine="53" d="M1466.93,103.363 C1396.93,118.733 1278.28,156.503 1225.5,241.913 C1200.83,281.833 1183.15,342.253 1245.5,461.913 C1274.32,517.223 1327.8826,558.2746 1367.4226,583.5146" fill="none" id="Dataset-to-Contributor" style="stroke:#404040;stroke-width:1.2;"/><polygon fill="#404040" points="1372.48,586.743,1367.0461,578.5288,1368.2655,584.0527,1362.7416,585.2721,1372.48,586.743" style="stroke:#404040;stroke-width:1.2;"/><text fill="#000000" font-family="sans-serif" font-size="36" lengthAdjust="spacing" textLength="170.0859" x="1226.5" y="280.2841">contributor</text><text fill="#000000" font-family="sans-serif" font-size="36" lengthAdjust="spacing" textLength="54.0352" x="1306.9293" y="571.1397">0..*</text></g><!--link Dataset to MonetaryGrant--><g class="link" data-entity-1="ent0005" data-entity-2="ent0022" data-link-type="dependency" data-source-line="55" id="lnk41"><path codeLine="55" d="M1576.09,96.273 C1663.89,103.353 1834.31,131.413 1910.5,241.913 C1936.22,279.213 1968.72,334.533 1895.5,461.913 C1861.16,521.653 1797.2005,560.6204 1747.5805,584.1704" fill="none" id="Dataset-to-MonetaryGrant" style="stroke:#404040;stroke-width:1.2;"/><polygon fill="#404040" points="1742.16,586.743,1752.0058,586.4977,1746.6771,584.5992,1748.5757,579.2704,1742.16,586.743" style="stroke:#404040;stroke-width:1.2;"/><text fill="#000000" font-family="sans-serif" font-size="36" lengthAdjust="spacing" textLength="118.1074" x="1935.5" y="280.2841">funding</text><text fill="#000000" font-family="sans-serif" font-size="36" lengthAdjust="spacing" textLength="54.0352" x="1693.2537" y="571.1397">0..*</text></g><!--link Dataset to DerivedFrom--><g class="link" data-entity-1="ent0005" data-entity-2="ent0023" data-link-type="dependency" data-source-line="56" id="lnk42"><path codeLine="56" d="M1576.25,101.173 C1700.41,118.793 1997.53,167.913 2061.5,241.913 C2083.31,267.133 2085.8039,361.553 2085.7739,407.613" fill="none" id="Dataset-to-DerivedFrom" style="stroke:#404040;stroke-width:1.2;"/><polygon fill="#404040" points="2085.77,413.613,2089.77,404.613,2085.77,408.613,2081.77,404.613,2085.77,413.613" style="stroke:#404040;stroke-width:1.2;"/><text fill="#000000" font-family="sans-serif" font-size="36" lengthAdjust="spacing" textLength="272.0566" x="2078.5" y="280.2841">wasDerivedFrom</text><text fill="#000000" font-family="sans-serif" font-size="36" lengthAdjust="spacing" textLength="54.0352" x="2027.1475" y="397.9873">0..*</text></g><!--link Dataset to CatalogRecord--><g class="link" data-entity-1="ent0005" data-entity-2="ent0024" data-link-type="dependency" data-source-line="57" id="lnk43"><path codeLine="57" d="M1576.21,95.543 C1744.19,101.733 2247.72,129.503 2356.5,241.913 C2401.57,288.483 2396.1798,367.0339 2389.8598,407.7739" fill="none" id="Dataset-to-CatalogRecord" style="stroke:#404040;stroke-width:1.2;"/><polygon fill="#404040" points="2388.94,413.703,2394.2724,405.4226,2389.7065,408.7621,2386.3669,404.1962,2388.94,413.703" style="stroke:#404040;stroke-width:1.2;"/><text fill="#000000" font-family="sans-serif" font-size="36" lengthAdjust="spacing" textLength="152.0684" x="2383.5" y="280.2841">subjectOf</text><text fill="#000000" font-family="sans-serif" font-size="36" lengthAdjust="spacing" textLength="20.0215" x="2367.9766" y="398.0928">1</text></g><!--link CatalogRecord to Dataset--><g class="link" data-entity-1="ent0024" data-entity-2="ent0005" data-link-type="dependency" data-source-line="67" id="lnk53"><path codeLine="67" d="M2426.24,413.893 C2488.15,376.903 2591.7,302.253 2539.5,241.913 C2475.64,168.093 1784.3842,112.8577 1582.1642,98.1677" fill="none" id="CatalogRecord-to-Dataset" style="stroke:#404040;stroke-width:1.2;"/><polygon fill="#404040" points="1576.18,97.733,1584.8665,102.3746,1581.1669,98.0953,1585.4462,94.3956,1576.18,97.733" style="stroke:#404040;stroke-width:1.2;"/><text fill="#000000" font-family="sans-serif" font-size="36" lengthAdjust="spacing" textLength="90.0879" x="2554.5" y="280.2841">about</text><text fill="#000000" font-family="sans-serif" font-size="36" lengthAdjust="spacing" textLength="60.0469" x="1584.4989" y="88.3906">0..1</text></g><!--link Dataset to DefinedTerm--><g class="link" data-entity-1="ent0005" data-entity-2="ent0018" data-link-type="dependency" data-source-line="58" id="lnk44"><path codeLine="58" d="M1536.43,116.993 C1554.02,145.283 1582.84,195.233 1598.5,241.913 C1618.65,301.973 1626.4115,370.7629 1629.4415,407.8529" fill="none" id="Dataset-to-DefinedTerm" style="stroke:#404040;stroke-width:1.2;"/><polygon fill="#404040" points="1629.93,413.833,1633.1839,404.5372,1629.5229,408.8496,1625.2105,405.1886,1629.93,413.833" style="stroke:#404040;stroke-width:1.2;"/><text fill="#000000" font-family="sans-serif" font-size="36" lengthAdjust="spacing" textLength="152.0508" x="1611.5" y="280.2841">keywords</text><text fill="#000000" font-family="sans-serif" font-size="36" lengthAdjust="spacing" textLength="54.0352" x="1570.809" y="397.9557">0..*</text></g><!--link Dataset to Reference--><g class="link" data-entity-1="ent0005" data-entity-2="ent0021" data-link-type="dependency" data-source-line="59" id="lnk45"><path codeLine="59" d="M1576.13,111.823 C1633.3,133.453 1721.31,175.443 1769.5,241.913 C1807.7,294.593 1813.4786,368.7133 1813.8786,407.8133" fill="none" id="Dataset-to-Reference" style="stroke:#404040;stroke-width:1.2;"/><polygon fill="#404040" points="1813.94,413.813,1817.8477,404.7725,1813.8889,408.8133,1809.8481,404.8544,1813.94,413.813" style="stroke:#404040;stroke-width:1.2;"/><text fill="#000000" font-family="sans-serif" font-size="36" lengthAdjust="spacing" textLength="112.0605" x="1792.5" y="280.2841">license</text><text fill="#000000" font-family="sans-serif" font-size="36" lengthAdjust="spacing" textLength="54.0352" x="1755.1753" y="397.9322">0..*</text></g><!--link DataDownload to Agent--><g class="link" data-entity-1="ent0007" data-entity-2="ent0013" data-link-type="dependency" data-source-line="60" id="lnk46"><path codeLine="60" d="M1506.07,807.953 C1448.1,870.283 1292.6965,1037.3898 1234.3365,1100.1298" fill="none" id="DataDownload-to-Agent" style="stroke:#404040;stroke-width:1.2;"/><polygon fill="#404040" points="1230.25,1104.523,1239.3086,1100.6575,1233.6554,1100.862,1233.451,1095.2088,1230.25,1104.523" style="stroke:#404040;stroke-width:1.2;"/><text fill="#000000" font-family="sans-serif" font-size="36" lengthAdjust="spacing" textLength="130.0605" x="1387.5" y="971.2841">provider</text><text fill="#000000" font-family="sans-serif" font-size="36" lengthAdjust="spacing" textLength="54.0352" x="1238.5977" y="1088.8819">0..*</text></g><!--link WebAPI to Action--><g class="link" data-entity-1="ent0008" data-entity-2="ent0009" data-link-type="dependency" data-source-line="61" id="lnk47"><path codeLine="61" d="M1851.5,807.953 C1851.5,870.283 1851.5,1035.783 1851.5,1098.523" fill="none" id="WebAPI-to-Action" style="stroke:#404040;stroke-width:1.2;"/><polygon fill="#404040" points="1851.5,1104.523,1855.5,1095.523,1851.5,1099.523,1847.5,1095.523,1851.5,1104.523" style="stroke:#404040;stroke-width:1.2;"/><text fill="#000000" font-family="sans-serif" font-size="36" lengthAdjust="spacing" textLength="236.1621" x="1852.5" y="971.2841">potentialAction</text><text fill="#000000" font-family="sans-serif" font-size="36" lengthAdjust="spacing" textLength="54.0352" x="1792.8298" y="1088.8819">0..*</text></g><!--link Action to EntryPoint--><g class="link" data-entity-1="ent0009" data-entity-2="ent0010" data-link-type="dependency" data-source-line="62" id="lnk48"><path codeLine="62" d="M1887.14,1153.083 C1925.79,1179.603 1987.46,1226.113 2028.5,1277.913 C2072.38,1333.303 2102.2674,1405.8523 2116.3874,1444.2123" fill="none" id="Action-to-EntryPoint" style="stroke:#404040;stroke-width:1.2;"/><polygon fill="#404040" points="2118.46,1449.843,2119.1049,1440.0153,2116.7328,1445.1508,2111.5973,1442.7787,2118.46,1449.843" style="stroke:#404040;stroke-width:1.2;"/><text fill="#000000" font-family="sans-serif" font-size="36" lengthAdjust="spacing" textLength="92.0566" x="2059.5" y="1316.2841">target</text><text fill="#000000" font-family="sans-serif" font-size="36" lengthAdjust="spacing" textLength="20.0215" x="2095.2131" y="1433.9675">1</text></g><!--link Action to ActionResult--><g class="link" data-entity-1="ent0009" data-entity-2="ent0011" data-link-type="dependency" data-source-line="63" id="lnk49"><path codeLine="63" d="M1832.02,1152.953 C1779.32,1215.283 1638.1936,1382.201 1585.1536,1444.941" fill="none" id="Action-to-ActionResult" style="stroke:#404040;stroke-width:1.2;"/><polygon fill="#404040" points="1581.28,1449.523,1590.1451,1445.2324,1584.508,1445.7046,1584.0357,1440.0675,1581.28,1449.523" style="stroke:#404040;stroke-width:1.2;"/><text fill="#000000" font-family="sans-serif" font-size="36" lengthAdjust="spacing" textLength="88.0313" x="1724.5" y="1316.2841">result</text><text fill="#000000" font-family="sans-serif" font-size="36" lengthAdjust="spacing" textLength="60.0469" x="1519.492" y="1433.8819">0..1</text></g><!--link Action to PropertyValueSpecification--><g class="link" data-entity-1="ent0009" data-entity-2="ent0012" data-link-type="dependency" data-source-line="64" id="lnk50"><path codeLine="64" d="M1851.5,1152.953 C1851.5,1215.283 1851.5,1380.783 1851.5,1443.523" fill="none" id="Action-to-PropertyValueSpecification" style="stroke:#404040;stroke-width:1.2;"/><polygon fill="#404040" points="1851.5,1449.523,1855.5,1440.523,1851.5,1444.523,1847.5,1440.523,1851.5,1449.523" style="stroke:#404040;stroke-width:1.2;"/><text fill="#000000" font-family="sans-serif" font-size="36" lengthAdjust="spacing" textLength="170.1211" x="1852.5" y="1316.2841">queryInput</text><text fill="#000000" font-family="sans-serif" font-size="36" lengthAdjust="spacing" textLength="54.0352" x="1792.8448" y="1433.8819">0..*</text></g><!--link Contributor to Agent--><g class="link" data-entity-1="ent0017" data-entity-2="ent0013" data-link-type="dependency" data-source-line="65" id="lnk51"><path codeLine="65" d="M1372.04,634.913 C1332.11,660.033 1273.01,704.203 1244.5,759.913 C1184.25,877.633 1196.9088,1038.2289 1204.4488,1098.7989" fill="none" id="Contributor-to-Agent" style="stroke:#404040;stroke-width:1.2;"/><polygon fill="#404040" points="1205.19,1104.753,1208.0476,1095.3278,1204.5723,1099.7913,1200.1089,1096.316,1205.19,1104.753" style="stroke:#404040;stroke-width:1.2;"/><text fill="#000000" font-family="sans-serif" font-size="36" lengthAdjust="spacing" textLength="170.0859" x="1245.5" y="798.7841">contributor</text><text fill="#000000" font-family="sans-serif" font-size="36" lengthAdjust="spacing" textLength="60.0469" x="1099.1471" y="1140.2176">0..1</text></g><!--link MonetaryGrant to Agent--><g class="link" data-entity-1="ent0022" data-entity-2="ent0013" data-link-type="dependency" data-source-line="66" id="lnk52"><path codeLine="66" d="M1682.82,635.103 C1677.88,672.693 1665.39,748.663 1639.5,807.913 C1602.58,892.403 1593.52,919.923 1523.5,979.913 C1439.64,1051.753 1320.7181,1094.6896 1256.2481,1114.3896" fill="none" id="MonetaryGrant-to-Agent" style="stroke:#404040;stroke-width:1.2;"/><polygon fill="#404040" points="1250.51,1116.143,1260.2861,1117.3383,1255.2917,1114.6818,1257.9482,1109.6875,1250.51,1116.143" style="stroke:#404040;stroke-width:1.2;"/><text fill="#000000" font-family="sans-serif" font-size="36" lengthAdjust="spacing" textLength="102.0762" x="1656.5" y="798.7841">funder</text><text fill="#000000" font-family="sans-serif" font-size="36" lengthAdjust="spacing" textLength="54.0352" x="1258.8985" y="1154.7333">0..*</text></g><!--link CatalogRecord to Agent--><g class="link" data-entity-1="ent0024" data-entity-2="ent0013" data-link-type="dependency" data-source-line="68" id="lnk54"><path codeLine="68" d="M2379.71,462.183 C2360.84,547.413 2283.29,844.533 2094.5,979.913 C1955.89,1079.313 1413.2305,1116.5651 1256.5005,1125.4051" fill="none" id="CatalogRecord-to-Agent" style="stroke:#404040;stroke-width:1.2;"/><polygon fill="#404040" points="1250.51,1125.743,1259.721,1129.2298,1255.5021,1125.4614,1259.2705,1121.2425,1250.51,1125.743" style="stroke:#404040;stroke-width:1.2;"/><text fill="#000000" font-family="sans-serif" font-size="36" lengthAdjust="spacing" textLength="168.082" x="2272.5" y="798.7841">maintainer</text><text fill="#000000" font-family="sans-serif" font-size="36" lengthAdjust="spacing" textLength="60.0469" x="1258.8158" y="1115.1776">0..1</text></g><?plantuml-src VLRTQjim5BxtKuZqhf2IjciPPWpI92wv60rfsQuL-JZHuaYU92Uuss0FiIVSa-pOye_yar0AFfy-VKSwVuhX9WOoco-3bP9745Gm8F_-_2Leg2E7axVZ8H365Ol1ViCXCHavm643IdjwpqL25JqGlQEXF76n9H6DDJWhKwNawMt7sLw0rkJsvivPL5JiDIJaxc7Ye4A6KA0k6494qzW4KfXN_Wxa_j5PP355xPyUiUvcCfQAN7sOv7y8FaaLWkgYhXHkD4RnJMgWWIVURy-pqgCyGbDc-96RR4Ie9Yv0he95i9WjAl9IQAFI0mXJK1kpIvnk4LoAjOoXO3fsbpgdXcgmWkLtJQ4RT42P8PLiQS-vjfVYKbZzWGLoDNzSJ8EFhgEvF8bOqh3sLW7TKts3pNIrB6Zs4mcpu7uMr3TaZNCsv6uXZCfMafUnQimkqMvVWyOgSFGiq7MBsKb0cUmhZLDuJO3nY3DQ7-NySksr5zDjbSxYgtkw5VP39LvyTWapB2kKQsxg0btoYzfImT-R0xl0a7AHJAbguTBkvHOYBY1y0tMmgMtiNWs7U4iC2rZHnkpb9GnvVYmQLr6rKUh1tOrhY401pfo2NrjTsXSfm52LFUEmi95h8VqhAdw4C52okc9jzmA7XHtBxHeOpWSREXVfHcGMyWXZoo0nBweEOG_5RTF5m_pU6sosJx_6urP7NQ3PZl9ilHM8BIqNSGl3QysayVWp6KrkRgv7xW3oIQf13pDlHrNj-eJcBixIMkLuaNpjQEAiDfpnX5uWknEm4gx6tJNUjz9qj_laHFKp253KGFYKrHkwklaPS2C-P6gGCvG9duIEUKcQAQ3OSqCKjoMHs5Wzygrpr7GJSxqRFckx1tmIfIB4vtU8wdP04Ie7QFFHURi3VABJpNTWvYKQLcx6Xq_sa9rmanvYDjtjavWp4FWReVMkN4fL-RAu55Rc9f4cdqiqjeXNBbItSLuJds2ujc1Qb3BWxaFY4rLyT7cswCwz6ZxvaOBAbY99ZUTcUo2lRlhRQHm8GfvN344xBOve5MlibOtCVPyZLe87Yj70VnJz3m00?></g></svg>