<svg xmlns="http://www.w3.org/2000/svg" xmlns:xlink="http://www.w3.org/1999/xlink" contentStyleType="text/css" data-diagram-type="CLASS" height="1216px" preserveAspectRatio="none" style="width:863px;height:1216px;background:#FFFFFF;" version="1.1" viewBox="0 0 863 1216" width="863px" zoomAndPan="magnify"><?plantuml 1.2026.3?><defs/><g><g class="title" data-source-line="1"><text fill="#000000" font-family="sans-serif" font-size="14" font-weight="700" lengthAdjust="spacing" textLength="194.1748" x="331.3354" y="24.5332">CDIFProvenance &#8212; overview</text></g><!--class ProvActivity--><g class="entity" data-qualified-name="ProvActivity" data-source-line="15" id="ent0002"><rect fill="#FEFECE" height="25.0938" rx="2.5" ry="2.5" style="stroke:#404040;stroke-width:0.5;" width="68.6777" x="141.5" y="882.9658"/><text fill="#000000" font-family="sans-serif" font-size="12" lengthAdjust="spacing" textLength="62.6777" x="144.5" y="900.4229">ProvActivity</text></g><!--class Instrument--><g class="entity" data-qualified-name="Instrument" data-source-line="16" id="ent0003"><rect fill="#FEFECE" height="25.0938" rx="2.5" ry="2.5" style="stroke:#404040;stroke-width:0.5;" width="62.6895" x="70.5" y="1157.9658"/><text fill="#000000" font-family="sans-serif" font-size="12" lengthAdjust="spacing" textLength="56.6895" x="73.5" y="1175.4229">Instrument</text></g><!--class Dataset--><g class="entity" data-qualified-name="Dataset" data-source-line="17" id="ent0004"><rect fill="#FEFECE" height="25.0938" rx="2.5" ry="2.5" style="stroke:#404040;stroke-width:0.5;" width="47.3555" x="343.5" y="57.9658"/><text fill="#000000" font-family="sans-serif" font-size="12" lengthAdjust="spacing" textLength="41.3555" x="346.5" y="75.4229">Dataset</text></g><!--class AbstractDistribution--><g class="entity" data-qualified-name="AbstractDistribution" data-source-line="18" id="ent0005"><rect fill="#D6EAF8" height="25.0938" rx="2.5" ry="2.5" style="stroke:#404040;stroke-width:0.5;" width="110.0391" x="467" y="332.9658"/><text fill="#000000" font-family="sans-serif" font-size="12" font-style="italic" lengthAdjust="spacing" textLength="104.0391" x="470" y="350.4229">AbstractDistribution</text></g><!--class DataDownload--><g class="entity" data-qualified-name="DataDownload" data-source-line="19" id="ent0006"><rect fill="#FEFECE" height="25.0938" rx="2.5" ry="2.5" style="stroke:#404040;stroke-width:0.5;" width="84.7148" x="489.5" y="607.9658"/><text fill="#000000" font-family="sans-serif" font-size="12" lengthAdjust="spacing" textLength="78.7148" x="492.5" y="625.4229">DataDownload</text></g><!--class WebAPI--><g class="entity" data-qualified-name="WebAPI" data-source-line="20" id="ent0007"><rect fill="#FCF3CF" height="25.0938" rx="2.5" ry="2.5" style="stroke:#404040;stroke-width:0.5;" width="50.0156" x="595" y="607.9658"/><text fill="#000000" font-family="sans-serif" font-size="12" lengthAdjust="spacing" textLength="44.0156" x="598" y="625.4229">WebAPI</text></g><!--class Action--><g class="entity" data-qualified-name="Action" data-source-line="21" id="ent0008"><rect fill="#D6EAF8" height="25.0938" rx="2.5" ry="2.5" style="stroke:#404040;stroke-width:0.5;" width="39.3516" x="600.5" y="882.9658"/><text fill="#000000" font-family="sans-serif" font-size="12" lengthAdjust="spacing" textLength="33.3516" x="603.5" y="900.4229">Action</text></g><!--class EntryPoint--><g class="entity" data-qualified-name="EntryPoint" data-source-line="22" id="ent0009"><rect fill="#D6EAF8" height="25.0938" rx="2.5" ry="2.5" style="stroke:#404040;stroke-width:0.5;" width="61.3594" x="502.5" y="1157.9658"/><text fill="#000000" font-family="sans-serif" font-size="12" lengthAdjust="spacing" textLength="55.3594" x="505.5" y="1175.4229">EntryPoint</text></g><!--class ActionResult--><g class="entity" data-qualified-name="ActionResult" data-source-line="23" id="ent0010"><rect fill="#FCF3CF" height="25.0938" rx="2.5" ry="2.5" style="stroke:#404040;stroke-width:0.5;" width="73.3652" x="583.5" y="1157.9658"/><text fill="#000000" font-family="sans-serif" font-size="12" lengthAdjust="spacing" textLength="67.3652" x="586.5" y="1175.4229">ActionResult</text></g><!--class PropertyValueSpecification--><g class="entity" data-qualified-name="PropertyValueSpecification" data-source-line="24" id="ent0011"><rect fill="#D6EAF8" height="25.0938" rx="2.5" ry="2.5" style="stroke:#404040;stroke-width:0.5;" width="150.082" x="677" y="1157.9658"/><text fill="#000000" font-family="sans-serif" font-size="12" lengthAdjust="spacing" textLength="144.082" x="680" y="1175.4229">PropertyValueSpecification</text></g><!--class Agent--><g class="entity" data-qualified-name="Agent" data-source-line="25" id="ent0012"><rect fill="#D6EAF8" height="25.0938" rx="2.5" ry="2.5" style="stroke:#404040;stroke-width:0.5;" width="37.3594" x="236.5" y="882.9658"/><text fill="#000000" font-family="sans-serif" font-size="12" font-style="italic" lengthAdjust="spacing" textLength="31.3594" x="239.5" y="900.4229">Agent</text></g><!--class Person--><g class="entity" data-qualified-name="Person" data-source-line="26" id="ent0013"><rect fill="#D6EAF8" height="25.0938" rx="2.5" ry="2.5" style="stroke:#404040;stroke-width:0.5;" width="44.0215" x="154" y="1157.9658"/><text fill="#000000" font-family="sans-serif" font-size="12" lengthAdjust="spacing" textLength="38.0215" x="157" y="1175.4229">Person</text></g><!--class ContactPoint--><g class="entity" data-qualified-name="ContactPoint" data-source-line="27" id="ent0014"><rect fill="#D6EAF8" height="25.0938" rx="2.5" ry="2.5" style="stroke:#404040;stroke-width:0.5;" width="74.707" x="21.5" y="57.9658"/><text fill="#000000" font-family="sans-serif" font-size="12" lengthAdjust="spacing" textLength="68.707" x="24.5" y="75.4229">ContactPoint</text></g><!--class Organization--><g class="entity" data-qualified-name="Organization" data-source-line="28" id="ent0015"><rect fill="#D6EAF8" height="25.0938" rx="2.5" ry="2.5" style="stroke:#404040;stroke-width:0.5;" width="74.0391" x="218" y="1157.9658"/><text fill="#000000" font-family="sans-serif" font-size="12" lengthAdjust="spacing" textLength="68.0391" x="221" y="1175.4229">Organization</text></g><!--class Contributor--><g class="entity" data-qualified-name="Contributor" data-source-line="29" id="ent0016"><rect fill="#D6EAF8" height="25.0938" rx="2.5" ry="2.5" style="stroke:#404040;stroke-width:0.5;" width="65.3613" x="255.5" y="607.9658"/><text fill="#000000" font-family="sans-serif" font-size="12" lengthAdjust="spacing" textLength="59.3613" x="258.5" y="625.4229">Contributor</text></g><!--class DefinedTerm--><g class="entity" data-qualified-name="DefinedTerm" data-source-line="30" id="ent0017"><rect fill="#D5F5E3" height="25.0938" rx="2.5" ry="2.5" style="stroke:#404040;stroke-width:0.5;" width="75.3574" x="597.5" y="332.9658"/><text fill="#000000" font-family="sans-serif" font-size="12" lengthAdjust="spacing" textLength="69.3574" x="600.5" y="350.4229">DefinedTerm</text></g><!--class Identifier--><g class="entity" data-qualified-name="Identifier" data-source-line="31" id="ent0018"><rect fill="#D6EAF8" height="25.0938" rx="2.5" ry="2.5" style="stroke:#404040;stroke-width:0.5;" width="52.0254" x="117" y="57.9658"/><text fill="#000000" font-family="sans-serif" font-size="12" lengthAdjust="spacing" textLength="46.0254" x="120" y="75.4229">Identifier</text></g><!--class AdditionalProperty--><g class="entity" data-qualified-name="AdditionalProperty" data-source-line="32" id="ent0019"><rect fill="#D6EAF8" height="25.0938" rx="2.5" ry="2.5" style="stroke:#404040;stroke-width:0.5;" width="104.0566" x="7" y="332.9658"/><text fill="#000000" font-family="sans-serif" font-size="12" lengthAdjust="spacing" textLength="98.0566" x="10" y="350.4229">AdditionalProperty</text></g><!--class Reference--><g class="entity" data-qualified-name="Reference" data-source-line="33" id="ent0020"><rect fill="#D6EAF8" height="25.0938" rx="2.5" ry="2.5" style="stroke:#404040;stroke-width:0.5;" width="61.3652" x="692.5" y="332.9658"/><text fill="#000000" font-family="sans-serif" font-size="12" lengthAdjust="spacing" textLength="55.3652" x="695.5" y="350.4229">Reference</text></g><!--class MonetaryGrant--><g class="entity" data-qualified-name="MonetaryGrant" data-source-line="34" id="ent0021"><rect fill="#D6EAF8" height="25.0938" rx="2.5" ry="2.5" style="stroke:#404040;stroke-width:0.5;" width="86.0332" x="341" y="607.9658"/><text fill="#000000" font-family="sans-serif" font-size="12" lengthAdjust="spacing" textLength="80.0332" x="344" y="625.4229">MonetaryGrant</text></g><!--class DerivedFrom--><g class="entity" data-qualified-name="DerivedFrom" data-source-line="35" id="ent0022"><rect fill="#D6EAF8" height="25.0938" rx="2.5" ry="2.5" style="stroke:#404040;stroke-width:0.5;" width="75.3457" x="773.5" y="332.9658"/><text fill="#000000" font-family="sans-serif" font-size="12" lengthAdjust="spacing" textLength="69.3457" x="776.5" y="350.4229">DerivedFrom</text></g><!--class CatalogRecord--><g class="entity" data-qualified-name="CatalogRecord" data-source-line="36" id="ent0023"><rect fill="#FEFECE" height="25.0938" rx="2.5" ry="2.5" style="stroke:#404040;stroke-width:0.5;" width="86.0449" x="361" y="332.9658"/><text fill="#000000" font-family="sans-serif" font-size="12" lengthAdjust="spacing" textLength="80.0449" x="364" y="350.4229">CatalogRecord</text></g><!--reverse link AbstractDistribution to DataDownload--><g class="link" data-entity-1="ent0005" data-entity-2="ent0006" data-link-type="extension" data-source-line="37" id="lnk24"><path codeLine="37" d="M532,375.9958 C532,421.8058 532,561.9258 532,607.8658" fill="none" id="AbstractDistribution-backto-DataDownload" style="stroke:#404040;stroke-width:1.2;"/><polygon fill="none" points="532,357.9958,526,375.9958,538,375.9958,532,357.9958" style="stroke:#404040;stroke-width:1.2;"/></g><!--reverse link AbstractDistribution to WebAPI--><g class="link" data-entity-1="ent0005" data-entity-2="ent0007" data-link-type="extension" data-source-line="38" id="lnk25"><path codeLine="38" d="M595.23,345.9658 C595.23,345.9658 589.25,620.9658 589.25,620.9658 C589.25,620.9658 591.55,620.9658 594.89,620.9658" fill="none" id="AbstractDistribution-backto-WebAPI" style="stroke:#404040;stroke-width:1.2;"/><polygon fill="none" points="577.23,345.9658,595.23,351.9658,595.23,339.9658,577.23,345.9658" style="stroke:#404040;stroke-width:1.2;"/></g><!--reverse link Agent to Person--><g class="link" data-entity-1="ent0012" data-entity-2="ent0013" data-link-type="extension" data-source-line="39" id="lnk26"><path codeLine="39" d="M218.06,895.9658 C207.41,895.9658 214.25,895.9658 214.25,895.9658 C214.25,895.9658 214.25,1166.9658 214.25,1166.9658 C214.25,1166.9658 206.66,1166.9658 198.25,1166.9658" fill="none" id="Agent-backto-Person" style="stroke:#404040;stroke-width:1.2;"/><polygon fill="none" points="236.06,895.9658,218.06,889.9658,218.06,901.9658,236.06,895.9658" style="stroke:#404040;stroke-width:1.2;"/></g><!--reverse link Agent to Organization--><g class="link" data-entity-1="ent0012" data-entity-2="ent0015" data-link-type="extension" data-source-line="40" id="lnk27"><path codeLine="40" d="M255,925.9958 C255,971.8058 255,1111.9258 255,1157.8658" fill="none" id="Agent-backto-Organization" style="stroke:#404040;stroke-width:1.2;"/><polygon fill="none" points="255,907.9958,249,925.9958,261,925.9958,255,907.9958" style="stroke:#404040;stroke-width:1.2;"/></g><!--link ProvActivity to Instrument--><g class="link" data-entity-1="ent0002" data-entity-2="ent0003" data-link-type="dependency" data-source-line="41" id="lnk28"><path codeLine="41" d="M147.75,908.0158 C147.75,961.9158 147.75,1170.9658 147.75,1170.9658 C147.75,1170.9658 147.58,1170.9658 139.77,1170.9658" fill="none" id="ProvActivity-to-Instrument" style="stroke:#404040;stroke-width:1.2;"/><polygon fill="#404040" points="133.77,1170.9658,142.77,1174.9658,138.77,1170.9658,142.77,1166.9658,133.77,1170.9658" style="stroke:#404040;stroke-width:1.2;"/><text fill="#000000" font-family="sans-serif" font-size="13" lengthAdjust="spacing" textLength="27.46" x="119.75" y="1042.9709">uses</text><text fill="#000000" font-family="sans-serif" font-size="13" lengthAdjust="spacing" textLength="19.5127" x="126.4719" y="1162.0461">0..*</text></g><!--link ProvActivity to Person--><g class="link" data-entity-1="ent0002" data-entity-2="ent0013" data-link-type="dependency" data-source-line="42" id="lnk29"><path codeLine="42" d="M168.67,907.9958 C168.67,953.8058 168.67,1105.9258 168.67,1151.8658" fill="none" id="ProvActivity-to-Person" style="stroke:#404040;stroke-width:1.2;"/><polygon fill="#404040" points="168.67,1157.8658,172.67,1148.8658,168.67,1152.8658,164.67,1148.8658,168.67,1157.8658" style="stroke:#404040;stroke-width:1.2;"/><text fill="#000000" font-family="sans-serif" font-size="13" lengthAdjust="spacing" textLength="32.5317" x="169.67" y="1029.4209">agent</text><text fill="#000000" font-family="sans-serif" font-size="13" lengthAdjust="spacing" textLength="21.6836" x="170.1142" y="1146.9166">0..1</text></g><!--link ProvActivity to Person--><g class="link" data-entity-1="ent0002" data-entity-2="ent0013" data-link-type="dependency" data-source-line="44" id="lnk31"><path codeLine="44" d="M183.33,907.9958 C183.33,953.8058 183.33,1105.9258 183.33,1151.8658" fill="none" id="ProvActivity-to-Person-1" style="stroke:#404040;stroke-width:1.2;"/><polygon fill="#404040" points="183.33,1157.8658,187.33,1148.8658,183.33,1152.8658,179.33,1148.8658,183.33,1157.8658" style="stroke:#404040;stroke-width:1.2;"/><text fill="#000000" font-family="sans-serif" font-size="13" lengthAdjust="spacing" textLength="59.979" x="184.33" y="1047.4209">participant</text><text fill="#000000" font-family="sans-serif" font-size="13" lengthAdjust="spacing" textLength="19.5127" x="190.3737" y="1146.9166">0..*</text></g><!--link ProvActivity to Organization--><g class="link" data-entity-1="ent0002" data-entity-2="ent0015" data-link-type="dependency" data-source-line="43" id="lnk30"><path codeLine="43" d="M204.25,908.2058 C204.25,962.8758 204.25,1174.9658 204.25,1174.9658 C204.25,1174.9658 204.11,1174.9658 211.85,1174.9658" fill="none" id="ProvActivity-to-Organization" style="stroke:#404040;stroke-width:1.2;"/><polygon fill="#404040" points="217.85,1174.9658,208.85,1170.9658,212.85,1174.9658,208.85,1178.9658,217.85,1174.9658" style="stroke:#404040;stroke-width:1.2;"/><text fill="#000000" font-family="sans-serif" font-size="13" lengthAdjust="spacing" textLength="32.5317" x="171.25" y="1062.8809">agent</text><text fill="#000000" font-family="sans-serif" font-size="13" lengthAdjust="spacing" textLength="21.6836" x="188.5714" y="1199.7273">0..1</text></g><!--reverse link Dataset to ProvActivity--><g class="link" data-entity-1="ent0004" data-entity-2="ent0002" data-link-type="composition" data-source-line="45" id="lnk32"><path codeLine="45" d="M331.46,62.9658 C283.25,62.9658 189.75,62.9658 189.75,62.9658 C189.75,62.9658 189.75,777.9858 189.75,882.7258" fill="none" id="Dataset-backto-ProvActivity" style="stroke:#404040;stroke-width:1.2;"/><polygon fill="#404040" points="343.46,62.9658,337.46,58.9658,331.46,62.9658,337.46,66.9658,343.46,62.9658" style="stroke:#404040;stroke-width:1.2;"/><text fill="#000000" font-family="sans-serif" font-size="13" lengthAdjust="spacing" textLength="99.7217" x="89.75" y="392.4809">wasGeneratedBy</text><text fill="#000000" font-family="sans-serif" font-size="13" lengthAdjust="spacing" textLength="19.5127" x="172.5878" y="872.1053">0..*</text></g><!--link Dataset to Agent--><g class="link" data-entity-1="ent0004" data-entity-2="ent0012" data-link-type="dependency" data-source-line="46" id="lnk33"><path codeLine="46" d="M343.47,66.9658 C306.82,66.9658 240.3,66.9658 240.3,66.9658 C240.3,66.9658 240.3,772.5458 240.3,876.7858" fill="none" id="Dataset-to-Agent" style="stroke:#404040;stroke-width:1.2;"/><polygon fill="#404040" points="240.3,882.7858,244.3,873.7858,240.3,877.7858,236.3,873.7858,240.3,882.7858" style="stroke:#404040;stroke-width:1.2;"/><text fill="#000000" font-family="sans-serif" font-size="13" lengthAdjust="spacing" textLength="46.9663" x="193.3" y="419.7909">provider</text><text fill="#000000" font-family="sans-serif" font-size="13" lengthAdjust="spacing" textLength="19.5127" x="211.8014" y="872.1889">0..*</text></g><!--link Dataset to Agent--><g class="link" data-entity-1="ent0004" data-entity-2="ent0012" data-link-type="dependency" data-source-line="48" id="lnk35"><path codeLine="48" d="M343.3,70.9658 C307.59,70.9658 244.1,70.9658 244.1,70.9658 C244.1,70.9658 244.1,773.1158 244.1,876.8458" fill="none" id="Dataset-to-Agent-1" style="stroke:#404040;stroke-width:1.2;"/><polygon fill="#404040" points="244.1,882.8458,248.1,873.8458,244.1,877.8458,240.1,873.8458,244.1,882.8458" style="stroke:#404040;stroke-width:1.2;"/><text fill="#000000" font-family="sans-serif" font-size="13" lengthAdjust="spacing" textLength="40.46" x="203.1" y="441.8009">creator</text><text fill="#000000" font-family="sans-serif" font-size="13" lengthAdjust="spacing" textLength="19.5127" x="243.5541" y="871.8884">0..*</text></g><!--link Dataset to Agent--><g class="link" data-entity-1="ent0004" data-entity-2="ent0012" data-link-type="dependency" data-source-line="50" id="lnk37"><path codeLine="50" d="M343.47,74.9658 C308.76,74.9658 247.9,74.9658 247.9,74.9658 C247.9,74.9658 247.9,773.6758 247.9,876.9058" fill="none" id="Dataset-to-Agent-2" style="stroke:#404040;stroke-width:1.2;"/><polygon fill="#404040" points="247.9,882.9058,251.9,873.9058,247.9,877.9058,243.9,873.9058,247.9,882.9058" style="stroke:#404040;stroke-width:1.2;"/><text fill="#000000" font-family="sans-serif" font-size="13" lengthAdjust="spacing" textLength="52.7554" x="248.9" y="427.6509">publisher</text><text fill="#000000" font-family="sans-serif" font-size="13" lengthAdjust="spacing" textLength="21.6836" x="206.4105" y="891.1944">0..1</text></g><!--link Dataset to AbstractDistribution--><g class="link" data-entity-1="ent0004" data-entity-2="ent0005" data-link-type="dependency" data-source-line="47" id="lnk34"><path codeLine="47" d="M390.54,77.9658 C433.9,77.9658 522,77.9658 522,77.9658 C522,77.9658 522,274.0358 522,326.9258" fill="none" id="Dataset-to-AbstractDistribution" style="stroke:#404040;stroke-width:1.2;"/><polygon fill="#404040" points="522,332.9258,526,323.9258,522,327.9258,518,323.9258,522,332.9258" style="stroke:#404040;stroke-width:1.2;"/><text fill="#000000" font-family="sans-serif" font-size="13" lengthAdjust="spacing" textLength="62.8672" x="459" y="136.2109">distribution</text><text fill="#000000" font-family="sans-serif" font-size="13" lengthAdjust="spacing" textLength="19.5127" x="499.1789" y="322.0014">0..*</text></g><!--link Dataset to Contributor--><g class="link" data-entity-1="ent0004" data-entity-2="ent0016" data-link-type="dependency" data-source-line="49" id="lnk36"><path codeLine="49" d="M343.3,78.9658 C320.03,78.9658 288,78.9658 288,78.9658 C288,78.9658 288,520.5758 288,601.8758" fill="none" id="Dataset-to-Contributor" style="stroke:#404040;stroke-width:1.2;"/><polygon fill="#404040" points="288,607.8758,292,598.8758,288,602.8758,284,598.8758,288,607.8758" style="stroke:#404040;stroke-width:1.2;"/><text fill="#000000" font-family="sans-serif" font-size="13" lengthAdjust="spacing" textLength="61.4199" x="226" y="312.2709">contributor</text><text fill="#000000" font-family="sans-serif" font-size="13" lengthAdjust="spacing" textLength="19.5127" x="265.1125" y="596.9307">0..*</text></g><!--link Dataset to MonetaryGrant--><g class="link" data-entity-1="ent0004" data-entity-2="ent0021" data-link-type="dependency" data-source-line="51" id="lnk38"><path codeLine="51" d="M352.25,82.9858 C352.25,156.6958 352.25,527.4058 352.25,601.7258" fill="none" id="Dataset-to-MonetaryGrant" style="stroke:#404040;stroke-width:1.2;"/><polygon fill="#404040" points="352.25,607.7258,356.25,598.7258,352.25,602.7258,348.25,598.7258,352.25,607.7258" style="stroke:#404040;stroke-width:1.2;"/><text fill="#000000" font-family="sans-serif" font-size="13" lengthAdjust="spacing" textLength="42.6499" x="309.25" y="341.8509">funding</text><text fill="#000000" font-family="sans-serif" font-size="13" lengthAdjust="spacing" textLength="19.5127" x="317.1022" y="597.1053">0..*</text></g><!--link Dataset to DerivedFrom--><g class="link" data-entity-1="ent0004" data-entity-2="ent0022" data-link-type="dependency" data-source-line="52" id="lnk39"><path codeLine="52" d="M390.56,62.9658 C482.35,62.9658 811,62.9658 811,62.9658 C811,62.9658 811,272.2858 811,326.9658" fill="none" id="Dataset-to-DerivedFrom" style="stroke:#404040;stroke-width:1.2;"/><polygon fill="#404040" points="811,332.9658,815,323.9658,811,327.9658,807,323.9658,811,332.9658" style="stroke:#404040;stroke-width:1.2;"/><text fill="#000000" font-family="sans-serif" font-size="13" lengthAdjust="spacing" textLength="98.2427" x="736.78" y="59.4609">wasDerivedFrom</text><text fill="#000000" font-family="sans-serif" font-size="13" lengthAdjust="spacing" textLength="19.5127" x="788.1157" y="322.0579">0..*</text></g><!--link Dataset to CatalogRecord--><g class="link" data-entity-1="ent0004" data-entity-2="ent0023" data-link-type="dependency" data-source-line="53" id="lnk40"><path codeLine="53" d="M380.67,82.9958 C380.67,128.8058 380.67,280.9258 380.67,326.8658" fill="none" id="Dataset-to-CatalogRecord" style="stroke:#404040;stroke-width:1.2;"/><polygon fill="#404040" points="380.67,332.8658,384.67,323.8658,380.67,327.8658,376.67,323.8658,380.67,332.8658" style="stroke:#404040;stroke-width:1.2;"/><text fill="#000000" font-family="sans-serif" font-size="13" lengthAdjust="spacing" textLength="54.9136" x="325.67" y="204.4209">subjectOf</text><text fill="#000000" font-family="sans-serif" font-size="13" lengthAdjust="spacing" textLength="7.23" x="362.6408" y="321.9166">1</text></g><!--link CatalogRecord to Dataset--><g class="link" data-entity-1="ent0023" data-entity-2="ent0004" data-link-type="dependency" data-source-line="63" id="lnk50"><path codeLine="63" d="M370.83,332.9358 C370.83,287.1258 370.83,135.0058 370.83,89.0658" fill="none" id="CatalogRecord-to-Dataset" style="stroke:#404040;stroke-width:1.2;"/><polygon fill="#404040" points="370.83,83.0658,366.83,92.0658,370.83,88.0658,374.83,92.0658,370.83,83.0658" style="stroke:#404040;stroke-width:1.2;"/><text fill="#000000" font-family="sans-serif" font-size="13" lengthAdjust="spacing" textLength="32.5317" x="337.83" y="222.5009">about</text><text fill="#000000" font-family="sans-serif" font-size="13" lengthAdjust="spacing" textLength="21.6836" x="347.3496" y="104.4638">0..1</text></g><!--link Dataset to DefinedTerm--><g class="link" data-entity-1="ent0004" data-entity-2="ent0017" data-link-type="dependency" data-source-line="54" id="lnk41"><path codeLine="54" d="M390.78,72.9658 C456.37,72.9658 635,72.9658 635,72.9658 C635,72.9658 635,272.8158 635,326.6858" fill="none" id="Dataset-to-DefinedTerm" style="stroke:#404040;stroke-width:1.2;"/><polygon fill="#404040" points="635,332.6858,639,323.6858,635,327.6858,631,323.6858,635,332.6858" style="stroke:#404040;stroke-width:1.2;"/><text fill="#000000" font-family="sans-serif" font-size="13" lengthAdjust="spacing" textLength="54.9072" x="580" y="77.2109">keywords</text><text fill="#000000" font-family="sans-serif" font-size="13" lengthAdjust="spacing" textLength="19.5127" x="612.2899" y="322.0496">0..*</text></g><!--link Dataset to Reference--><g class="link" data-entity-1="ent0004" data-entity-2="ent0020" data-link-type="dependency" data-source-line="55" id="lnk42"><path codeLine="55" d="M390.63,67.9658 C470.14,67.9658 723,67.9658 723,67.9658 C723,67.9658 723,272.5358 723,326.8258" fill="none" id="Dataset-to-Reference" style="stroke:#404040;stroke-width:1.2;"/><polygon fill="#404040" points="723,332.8258,727,323.8258,723,327.8258,719,323.8258,723,332.8258" style="stroke:#404040;stroke-width:1.2;"/><text fill="#000000" font-family="sans-serif" font-size="13" lengthAdjust="spacing" textLength="40.4663" x="648.24" y="64.4609">license</text><text fill="#000000" font-family="sans-serif" font-size="13" lengthAdjust="spacing" textLength="19.5127" x="700.1117" y="321.8601">0..*</text></g><!--link DataDownload to Agent--><g class="link" data-entity-1="ent0006" data-entity-2="ent0012" data-link-type="dependency" data-source-line="56" id="lnk43"><path codeLine="56" d="M496,633.0158 C496,686.9158 496,895.9658 496,895.9658 C496,895.9658 335.94,895.9658 279.51,895.9658" fill="none" id="DataDownload-to-Agent" style="stroke:#404040;stroke-width:1.2;"/><polygon fill="#404040" points="273.51,895.9658,282.51,899.9658,278.51,895.9658,282.51,891.9658,273.51,895.9658" style="stroke:#404040;stroke-width:1.2;"/><text fill="#000000" font-family="sans-serif" font-size="13" lengthAdjust="spacing" textLength="46.9663" x="449" y="872.2309">provider</text><text fill="#000000" font-family="sans-serif" font-size="13" lengthAdjust="spacing" textLength="19.5127" x="281.7605" y="911.9957">0..*</text></g><!--link WebAPI to Action--><g class="link" data-entity-1="ent0007" data-entity-2="ent0008" data-link-type="dependency" data-source-line="57" id="lnk44"><path codeLine="57" d="M620,632.9958 C620,678.8058 620,830.9258 620,876.8658" fill="none" id="WebAPI-to-Action" style="stroke:#404040;stroke-width:1.2;"/><polygon fill="#404040" points="620,882.8658,624,873.8658,620,877.8658,616,873.8658,620,882.8658" style="stroke:#404040;stroke-width:1.2;"/><text fill="#000000" font-family="sans-serif" font-size="13" lengthAdjust="spacing" textLength="85.2808" x="534" y="754.4209">potentialAction</text><text fill="#000000" font-family="sans-serif" font-size="13" lengthAdjust="spacing" textLength="19.5127" x="597.1145" y="871.9166">0..*</text></g><!--link Action to EntryPoint--><g class="link" data-entity-1="ent0008" data-entity-2="ent0009" data-link-type="dependency" data-source-line="58" id="lnk45"><path codeLine="58" d="M600.26,901.9658 C574.59,901.9658 533,901.9658 533,901.9658 C533,901.9658 533,1098.7958 533,1151.8758" fill="none" id="Action-to-EntryPoint" style="stroke:#404040;stroke-width:1.2;"/><polygon fill="#404040" points="533,1157.8758,537,1148.8758,533,1152.8758,529,1148.8758,533,1157.8758" style="stroke:#404040;stroke-width:1.2;"/><text fill="#000000" font-family="sans-serif" font-size="13" lengthAdjust="spacing" textLength="33.2427" x="499" y="992.7909">target</text><text fill="#000000" font-family="sans-serif" font-size="13" lengthAdjust="spacing" textLength="7.23" x="524.5296" y="1146.9307">1</text></g><!--link Action to ActionResult--><g class="link" data-entity-1="ent0008" data-entity-2="ent0010" data-link-type="dependency" data-source-line="59" id="lnk46"><path codeLine="59" d="M620,907.9958 C620,953.8058 620,1105.9258 620,1151.8658" fill="none" id="Action-to-ActionResult" style="stroke:#404040;stroke-width:1.2;"/><polygon fill="#404040" points="620,1157.8658,624,1148.8658,620,1152.8658,616,1148.8658,620,1157.8658" style="stroke:#404040;stroke-width:1.2;"/><text fill="#000000" font-family="sans-serif" font-size="13" lengthAdjust="spacing" textLength="31.7891" x="588" y="1029.4209">result</text><text fill="#000000" font-family="sans-serif" font-size="13" lengthAdjust="spacing" textLength="21.6836" x="594.7344" y="1146.9166">0..1</text></g><!--link Action to PropertyValueSpecification--><g class="link" data-entity-1="ent0008" data-entity-2="ent0011" data-link-type="dependency" data-source-line="60" id="lnk47"><path codeLine="60" d="M639.78,895.9658 C658.82,895.9658 684.75,895.9658 684.75,895.9658 C684.75,895.9658 684.75,1098.2558 684.75,1151.9558" fill="none" id="Action-to-PropertyValueSpecification" style="stroke:#404040;stroke-width:1.2;"/><polygon fill="#404040" points="684.75,1157.9558,688.75,1148.9558,684.75,1152.9558,680.75,1148.9558,684.75,1157.9558" style="stroke:#404040;stroke-width:1.2;"/><text fill="#000000" font-family="sans-serif" font-size="13" lengthAdjust="spacing" textLength="61.4326" x="622.75" y="1000.9709">queryInput</text><text fill="#000000" font-family="sans-serif" font-size="13" lengthAdjust="spacing" textLength="19.5127" x="649.9647" y="1151.2473">0..*</text></g><!--link Contributor to Agent--><g class="link" data-entity-1="ent0016" data-entity-2="ent0012" data-link-type="dependency" data-source-line="61" id="lnk48"><path codeLine="61" d="M264.5,632.9958 C264.5,678.8058 264.5,830.9258 264.5,876.8658" fill="none" id="Contributor-to-Agent" style="stroke:#404040;stroke-width:1.2;"/><polygon fill="#404040" points="264.5,882.8658,268.5,873.8658,264.5,877.8658,260.5,873.8658,264.5,882.8658" style="stroke:#404040;stroke-width:1.2;"/><text fill="#000000" font-family="sans-serif" font-size="13" lengthAdjust="spacing" textLength="61.4199" x="202.5" y="754.4209">contributor</text><text fill="#000000" font-family="sans-serif" font-size="13" lengthAdjust="spacing" textLength="21.6836" x="272.8169" y="871.9166">0..1</text></g><!--link MonetaryGrant to Agent--><g class="link" data-entity-1="ent0021" data-entity-2="ent0012" data-link-type="dependency" data-source-line="62" id="lnk49"><path codeLine="62" d="M384,633.1058 C384,686.3858 384,889.9658 384,889.9658 C384,889.9658 315.54,889.9658 279.76,889.9658" fill="none" id="MonetaryGrant-to-Agent" style="stroke:#404040;stroke-width:1.2;"/><polygon fill="#404040" points="273.76,889.9658,282.76,893.9658,278.76,889.9658,282.76,885.9658,273.76,889.9658" style="stroke:#404040;stroke-width:1.2;"/><text fill="#000000" font-family="sans-serif" font-size="13" lengthAdjust="spacing" textLength="36.8608" x="347" y="813.1509">funder</text><text fill="#000000" font-family="sans-serif" font-size="13" lengthAdjust="spacing" textLength="19.5127" x="281.7297" y="883.7003">0..*</text></g><!--link CatalogRecord to Agent--><g class="link" data-entity-1="ent0023" data-entity-2="ent0012" data-link-type="dependency" data-source-line="64" id="lnk51"><path codeLine="64" d="M360.76,345.9658 C315.74,345.9658 251.7,345.9658 251.7,345.9658 C251.7,345.9658 251.7,795.1658 251.7,876.9558" fill="none" id="CatalogRecord-to-Agent" style="stroke:#404040;stroke-width:1.2;"/><polygon fill="#404040" points="251.7,882.9558,255.7,873.9558,251.7,877.9558,247.7,873.9558,251.7,882.9558" style="stroke:#404040;stroke-width:1.2;"/><text fill="#000000" font-family="sans-serif" font-size="13" lengthAdjust="spacing" textLength="60.6963" x="190.7" y="556.4209">maintainer</text><text fill="#000000" font-family="sans-serif" font-size="13" lengthAdjust="spacing" textLength="21.6836" x="225.0744" y="872.0437">0..1</text></g><?plantuml-src VLLBRjim4Dth58Ip2-0WJfgY48e2Zcq5NXGnqg1TKzJOPYsHAadPKDe2FKHFs9Dq9Ef3VMm4HZYFZpFacuyCDp6GnN8TR9GyWg220Vdtvoz1GnqvdBmzZu0mhbWCTWr9QdAIG1A2qfu-S95IHHEYzpII9ovsP4jZ3SxEN2bvUjrpTX2WDPdTt3cRYeg3XfJSFTmwg90HbAWBnbo0oLCWKfczT3POJD7lJu_OK0iPIqMktjqMVmW-IXM1wgE15EOBVmCok_D-UvxrCIbac3F3Zzpa4q8rSG5o5Qo2rM9LazT26vKb84n9RSq-SKaDrM1PrRgXq11FKMQgLqpcbRta-9-7cU5Ib0V7DiZLylrg7dnm0otbISIIHasq6kZVwXk4yyswfDab4XR1_IAe2SMxw-1iBDnA69Ll9Ay4QCq-qHv_0Pt5nl5dWNvOb3m5PVAlDCxWImgCRpcZpLNERpTH1vhkwXoLg_xjDbZ9jVDosISii5RGNVjI5-YJdzME2lxMNjW5nZoNoPIgSLpPWzp25XiWUWMLsDIsDb8VWeVLVLEO4RuIPG7hj3K7UOaYNboBnhMgLgK1t3_u0bjGWDEYv3TMd_PPOijIbJzXcrlbEiZmYOeV8GgKh9_Os0FXiB1ZkNi1XjrjfNEHfjP7k-RZh-cqqneNQBOrF5iu9M9hn4NS37kTYJ6TVYAJsvkRwuax7doIQT3ZpDcaBaAVq2B4MLgdhYwIhnsVE38DPpn5-Rrw5btZ6sgUUzud9wgVG82Y1gB7l3dWEBOoe5yyYDy7DSePKzSdaMDUSiqKK6o8COhRBqXihG5vvbmr2sEkz-DtxHQeJxQPYF2hDaProxEKoW6wV0pUBK-Vw2py3imyRySzjxtjamFa9poanvXjw_duWMGWyDFR6VgNKbMDVPV2gjoaqXH3WyOMyQgD-ZNEgFS9ohK3qw5KWhjJtYUgNFHvjkZEZNIV_CX0vMkHPiPpipsILpVztJIEY53a5INefiLnMckDZHNA8lOvOkqmeQW6_j3fVm00?></g></svg>