<svg xmlns="http://www.w3.org/2000/svg" xmlns:xlink="http://www.w3.org/1999/xlink" contentStyleType="text/css" data-diagram-type="CLASS" height="1699px" preserveAspectRatio="none" style="width:2958px;height:1699px;background:#FFFFFF;" version="1.1" viewBox="0 0 2958 1699" width="2958px" zoomAndPan="magnify"><?plantuml 1.2026.3?><defs/><g><g class="title" data-source-line="1"><text fill="#000000" font-family="sans-serif" font-size="14" font-weight="700" lengthAdjust="spacing" textLength="194.1748" x="1378.7876" y="24.5332">CDIFProvenance &#8212; overview</text></g><!--class ProvActivity--><g class="entity" data-qualified-name="ProvActivity" data-source-line="16" id="ent0002"><rect fill="#FEFECE" height="47.7344" rx="2.5" ry="2.5" style="stroke:#404040;stroke-width:0.5;" width="162.6943" x="1454.5" y="1292.5294"/><text fill="#000000" font-family="sans-serif" font-size="30" lengthAdjust="spacing" textLength="156.6943" x="1457.5" y="1328.672">ProvActivity</text></g><!--class Instrument--><g class="entity" data-qualified-name="Instrument" data-source-line="17" id="ent0003"><rect fill="#FEFECE" height="47.7344" rx="2.5" ry="2.5" style="stroke:#404040;stroke-width:0.5;" width="147.7236" x="1359" y="1637.5294"/><text fill="#000000" font-family="sans-serif" font-size="30" lengthAdjust="spacing" textLength="141.7236" x="1362" y="1673.672">Instrument</text></g><!--class Dataset--><g class="entity" data-qualified-name="Dataset" data-source-line="18" id="ent0004"><rect fill="#FEFECE" height="47.7344" rx="2.5" ry="2.5" style="stroke:#404040;stroke-width:0.5;" width="109.3887" x="1364.5" y="256.5294"/><text fill="#000000" font-family="sans-serif" font-size="30" lengthAdjust="spacing" textLength="103.3887" x="1367.5" y="292.672">Dataset</text></g><!--class AbstractDistribution--><g class="entity" data-qualified-name="AbstractDistribution" data-source-line="19" id="ent0005"><rect fill="#D6EAF8" height="47.7344" rx="2.5" ry="2.5" style="stroke:#404040;stroke-width:0.5;" width="266.0977" x="443" y="601.5294"/><text fill="#000000" font-family="sans-serif" font-size="30" font-style="italic" lengthAdjust="spacing" textLength="260.0977" x="446" y="637.672">AbstractDistribution</text></g><!--class DataDownload--><g class="entity" data-qualified-name="DataDownload" data-source-line="20" id="ent0006"><rect fill="#FEFECE" height="47.7344" rx="2.5" ry="2.5" style="stroke:#404040;stroke-width:0.5;" width="202.7871" x="524.5" y="947.5294"/><text fill="#000000" font-family="sans-serif" font-size="30" lengthAdjust="spacing" textLength="196.7871" x="527.5" y="983.672">DataDownload</text></g><!--class WebAPI--><g class="entity" data-qualified-name="WebAPI" data-source-line="21" id="ent0007"><rect fill="#FCF3CF" height="47.7344" rx="2.5" ry="2.5" style="stroke:#404040;stroke-width:0.5;" width="116.0391" x="347" y="947.5294"/><text fill="#000000" font-family="sans-serif" font-size="30" lengthAdjust="spacing" textLength="110.0391" x="350" y="983.672">WebAPI</text></g><!--class Action--><g class="entity" data-qualified-name="Action" data-source-line="22" id="ent0008"><rect fill="#D6EAF8" height="47.7344" rx="2.5" ry="2.5" style="stroke:#404040;stroke-width:0.5;" width="89.3789" x="339.5" y="1292.5294"/><text fill="#000000" font-family="sans-serif" font-size="30" lengthAdjust="spacing" textLength="83.3789" x="342.5" y="1328.672">Action</text></g><!--class EntryPoint--><g class="entity" data-qualified-name="EntryPoint" data-source-line="23" id="ent0009"><rect fill="#D6EAF8" height="47.7344" rx="2.5" ry="2.5" style="stroke:#404040;stroke-width:0.5;" width="144.3984" x="587" y="1637.5294"/><text fill="#000000" font-family="sans-serif" font-size="30" lengthAdjust="spacing" textLength="138.3984" x="590" y="1673.672">EntryPoint</text></g><!--class ActionResult--><g class="entity" data-qualified-name="ActionResult" data-source-line="24" id="ent0010"><rect fill="#FCF3CF" height="47.7344" rx="2.5" ry="2.5" style="stroke:#404040;stroke-width:0.5;" width="174.4131" x="7" y="1637.5294"/><text fill="#000000" font-family="sans-serif" font-size="30" lengthAdjust="spacing" textLength="168.4131" x="10" y="1673.672">ActionResult</text></g><!--class PropertyValueSpecification--><g class="entity" data-qualified-name="PropertyValueSpecification" data-source-line="25" id="ent0011"><rect fill="#D6EAF8" height="47.7344" rx="2.5" ry="2.5" style="stroke:#404040;stroke-width:0.5;" width="366.2051" x="201" y="1637.5294"/><text fill="#000000" font-family="sans-serif" font-size="30" lengthAdjust="spacing" textLength="360.2051" x="204" y="1673.672">PropertyValueSpecification</text></g><!--class Agent--><g class="entity" data-qualified-name="Agent" data-source-line="26" id="ent0012"><rect fill="#D6EAF8" height="47.7344" rx="2.5" ry="2.5" style="stroke:#404040;stroke-width:0.5;" width="84.3984" x="1209" y="1292.5294"/><text fill="#000000" font-family="sans-serif" font-size="30" font-style="italic" lengthAdjust="spacing" textLength="78.3984" x="1212" y="1328.672">Agent</text></g><!--class Person--><g class="entity" data-qualified-name="Person" data-source-line="27" id="ent0013"><rect fill="#D6EAF8" height="47.7344" rx="2.5" ry="2.5" style="stroke:#404040;stroke-width:0.5;" width="101.0537" x="1527.5" y="1637.5294"/><text fill="#000000" font-family="sans-serif" font-size="30" lengthAdjust="spacing" textLength="95.0537" x="1530.5" y="1673.672">Person</text></g><!--class ContactPoint--><g class="entity" data-qualified-name="ContactPoint" data-source-line="28" id="ent0014"><rect fill="#D6EAF8" height="47.7344" rx="2.5" ry="2.5" style="stroke:#404040;stroke-width:0.5;" width="177.7676" x="208" y="256.5294"/><text fill="#000000" font-family="sans-serif" font-size="30" lengthAdjust="spacing" textLength="171.7676" x="211" y="292.672">ContactPoint</text></g><!--class Organization--><g class="entity" data-qualified-name="Organization" data-source-line="29" id="ent0015"><rect fill="#D6EAF8" height="47.7344" rx="2.5" ry="2.5" style="stroke:#404040;stroke-width:0.5;" width="176.0977" x="1163" y="1637.5294"/><text fill="#000000" font-family="sans-serif" font-size="30" lengthAdjust="spacing" textLength="170.0977" x="1166" y="1673.672">Organization</text></g><!--class Contributor--><g class="entity" data-qualified-name="Contributor" data-source-line="30" id="ent0016"><rect fill="#D6EAF8" height="47.7344" rx="2.5" ry="2.5" style="stroke:#404040;stroke-width:0.5;" width="154.4033" x="709" y="774.5294"/><text fill="#000000" font-family="sans-serif" font-size="30" lengthAdjust="spacing" textLength="148.4033" x="712" y="810.672">Contributor</text></g><!--class DefinedTerm--><g class="entity" data-qualified-name="DefinedTerm" data-source-line="31" id="ent0017"><rect fill="#D5F5E3" height="47.7344" rx="2.5" ry="2.5" style="stroke:#404040;stroke-width:0.5;" width="179.3936" x="1464.5" y="601.5294"/><text fill="#000000" font-family="sans-serif" font-size="30" lengthAdjust="spacing" textLength="173.3936" x="1467.5" y="637.672">DefinedTerm</text></g><!--class Identifier--><g class="entity" data-qualified-name="Identifier" data-source-line="32" id="ent0018"><rect fill="#D6EAF8" height="47.7344" rx="2.5" ry="2.5" style="stroke:#404040;stroke-width:0.5;" width="121.0635" x="406.5" y="256.5294"/><text fill="#000000" font-family="sans-serif" font-size="30" lengthAdjust="spacing" textLength="115.0635" x="409.5" y="292.672">Identifier</text></g><!--class AdditionalProperty--><g class="entity" data-qualified-name="AdditionalProperty" data-source-line="33" id="ent0019"><rect fill="#D6EAF8" height="47.7344" rx="2.5" ry="2.5" style="stroke:#404040;stroke-width:0.5;" width="251.1416" x="171.5" y="601.5294"/><text fill="#000000" font-family="sans-serif" font-size="30" lengthAdjust="spacing" textLength="245.1416" x="174.5" y="637.672">AdditionalProperty</text></g><!--class Reference--><g class="entity" data-qualified-name="Reference" data-source-line="34" id="ent0020"><rect fill="#D6EAF8" height="47.7344" rx="2.5" ry="2.5" style="stroke:#404040;stroke-width:0.5;" width="144.4131" x="1664" y="601.5294"/><text fill="#000000" font-family="sans-serif" font-size="30" lengthAdjust="spacing" textLength="138.4131" x="1667" y="637.672">Reference</text></g><!--class MonetaryGrant--><g class="entity" data-qualified-name="MonetaryGrant" data-source-line="35" id="ent0021"><rect fill="#D6EAF8" height="47.7344" rx="2.5" ry="2.5" style="stroke:#404040;stroke-width:0.5;" width="206.083" x="882" y="774.5294"/><text fill="#000000" font-family="sans-serif" font-size="30" lengthAdjust="spacing" textLength="200.083" x="885" y="810.672">MonetaryGrant</text></g><!--class DerivedFrom--><g class="entity" data-qualified-name="DerivedFrom" data-source-line="36" id="ent0022"><rect fill="#D6EAF8" height="47.7344" rx="2.5" ry="2.5" style="stroke:#404040;stroke-width:0.5;" width="179.3643" x="1870.5" y="601.5294"/><text fill="#000000" font-family="sans-serif" font-size="30" lengthAdjust="spacing" textLength="173.3643" x="1873.5" y="637.672">DerivedFrom</text></g><!--class CatalogRecord--><g class="entity" data-qualified-name="CatalogRecord" data-source-line="37" id="ent0023"><rect fill="#FEFECE" height="47.7344" rx="2.5" ry="2.5" style="stroke:#404040;stroke-width:0.5;" width="206.1123" x="1048" y="601.5294"/><text fill="#000000" font-family="sans-serif" font-size="30" lengthAdjust="spacing" textLength="200.1123" x="1051" y="637.672">CatalogRecord</text></g><!--reverse link AbstractDistribution to DataDownload--><g class="link" data-entity-1="ent0005" data-entity-2="ent0006" data-link-type="extension" data-source-line="38" id="lnk24"><path codeLine="38" d="M581.9493,667.4422 C591.0593,730.1122 613.56,884.9794 622.66,947.5294" fill="none" id="AbstractDistribution-backto-DataDownload" style="stroke:#404040;stroke-width:1.2;"/><polygon fill="none" points="579.36,649.6294,576.0118,668.3053,587.8869,666.579,579.36,649.6294" style="stroke:#404040;stroke-width:1.2;"/></g><!--reverse link AbstractDistribution to WebAPI--><g class="link" data-entity-1="ent0005" data-entity-2="ent0007" data-link-type="extension" data-source-line="39" id="lnk25"><path codeLine="39" d="M556.4982,665.7481 C525.3482,728.4181 447.53,884.9794 416.44,947.5294" fill="none" id="AbstractDistribution-backto-WebAPI" style="stroke:#404040;stroke-width:1.2;"/><polygon fill="none" points="564.51,649.6294,551.1254,663.0775,561.8711,668.4186,564.51,649.6294" style="stroke:#404040;stroke-width:1.2;"/></g><!--reverse link Agent to Person--><g class="link" data-entity-1="ent0012" data-entity-2="ent0013" data-link-type="extension" data-source-line="40" id="lnk26"><path codeLine="40" d="M1284.085,1353.8538 C1317.575,1390.5438 1373.24,1451.1194 1432,1512.5294 C1474.8,1557.2494 1525.78,1608.4794 1554.77,1637.4194" fill="none" id="Agent-backto-Person" style="stroke:#404040;stroke-width:1.2;"/><polygon fill="none" points="1271.95,1340.5594,1279.6535,1357.8988,1288.5164,1349.8089,1271.95,1340.5594" style="stroke:#404040;stroke-width:1.2;"/></g><!--reverse link Agent to Organization--><g class="link" data-entity-1="ent0012" data-entity-2="ent0015" data-link-type="extension" data-source-line="41" id="lnk27"><path codeLine="41" d="M1251,1358.5694 C1251,1420.8994 1251,1574.3994 1251,1637.1394" fill="none" id="Agent-backto-Organization" style="stroke:#404040;stroke-width:1.2;"/><polygon fill="none" points="1251,1340.5694,1245,1358.5694,1257,1358.5694,1251,1340.5694" style="stroke:#404040;stroke-width:1.2;"/></g><!--link ProvActivity to Instrument--><g class="link" data-entity-1="ent0002" data-entity-2="ent0003" data-link-type="dependency" data-source-line="42" id="lnk28"><path codeLine="42" d="M1517.33,1340.9994 C1496.32,1368.8794 1463.16,1417.6494 1448,1465.5294 C1429.09,1525.2494 1429.3632,1594.1862 1431.1432,1631.3762" fill="none" id="ProvActivity-to-Instrument" style="stroke:#404040;stroke-width:1.2;"/><polygon fill="#404040" points="1431.43,1637.3694,1434.9952,1628.1884,1431.191,1632.3751,1427.0043,1628.5709,1431.43,1637.3694" style="stroke:#404040;stroke-width:1.2;"/><text fill="#000000" font-family="sans-serif" font-size="36" lengthAdjust="spacing" textLength="76.043" x="1449" y="1503.9005">uses</text><text fill="#000000" font-family="sans-serif" font-size="36" lengthAdjust="spacing" textLength="54.0352" x="1372.3687" y="1621.4779">0..*</text></g><!--link ProvActivity to Person--><g class="link" data-entity-1="ent0002" data-entity-2="ent0013" data-link-type="dependency" data-source-line="43" id="lnk29"><path codeLine="43" d="M1533.94,1340.7894 C1531.15,1377.4894 1527.44,1450.9994 1536,1512.5294 C1542.29,1557.7694 1556.8896,1602.9534 1567.2396,1631.7334" fill="none" id="ProvActivity-to-Person" style="stroke:#404040;stroke-width:1.2;"/><polygon fill="#404040" points="1569.27,1637.3794,1569.9883,1627.5567,1567.578,1632.6744,1562.4603,1630.264,1569.27,1637.3794" style="stroke:#404040;stroke-width:1.2;"/><text fill="#000000" font-family="sans-serif" font-size="36" lengthAdjust="spacing" textLength="90.0879" x="1537" y="1503.9005">agent</text><text fill="#000000" font-family="sans-serif" font-size="36" lengthAdjust="spacing" textLength="60.0469" x="1510.9139" y="1621.7204">0..1</text></g><!--link ProvActivity to Person--><g class="link" data-entity-1="ent0002" data-entity-2="ent0013" data-link-type="dependency" data-source-line="45" id="lnk31"><path codeLine="45" d="M1556.41,1340.6094 C1579.24,1368.1094 1614.89,1416.5394 1629,1465.5294 C1646.78,1527.2294 1615.8142,1595.4414 1595.1742,1632.0914" fill="none" id="ProvActivity-to-Person-1" style="stroke:#404040;stroke-width:1.2;"/><polygon fill="#404040" points="1592.23,1637.3194,1600.1316,1631.4402,1594.6835,1632.9627,1593.161,1627.5146,1592.23,1637.3194" style="stroke:#404040;stroke-width:1.2;"/><text fill="#000000" font-family="sans-serif" font-size="36" lengthAdjust="spacing" textLength="166.0957" x="1634" y="1503.9005">participant</text><text fill="#000000" font-family="sans-serif" font-size="36" lengthAdjust="spacing" textLength="54.0352" x="1599.3148" y="1621.7092">0..*</text></g><!--link ProvActivity to Organization--><g class="link" data-entity-1="ent0002" data-entity-2="ent0015" data-link-type="dependency" data-source-line="44" id="lnk30"><path codeLine="44" d="M1494.01,1340.7094 C1450.65,1366.4194 1383.36,1411.4794 1340,1465.5294 C1296.45,1519.8094 1270.7671,1593.0933 1259.1471,1631.7533" fill="none" id="ProvActivity-to-Organization" style="stroke:#404040;stroke-width:1.2;"/><polygon fill="#404040" points="1257.42,1637.4994,1263.8413,1630.0317,1258.8592,1632.711,1256.1799,1627.7289,1257.42,1637.4994" style="stroke:#404040;stroke-width:1.2;"/><text fill="#000000" font-family="sans-serif" font-size="36" lengthAdjust="spacing" textLength="90.0879" x="1341" y="1503.9005">agent</text><text fill="#000000" font-family="sans-serif" font-size="36" lengthAdjust="spacing" textLength="60.0469" x="1193.2153" y="1621.631">0..1</text></g><!--reverse link Dataset to ProvActivity--><g class="link" data-entity-1="ent0004" data-entity-2="ent0002" data-link-type="composition" data-source-line="46" id="lnk32"><path codeLine="46" d="M1485.5231,284.6154 C1640.1931,292.8254 2064.03,324.4094 2150,429.5294 C2230.67,528.1594 2943.75,44.6094 1855,1167.5294 C1789.98,1234.5894 1688.73,1274.3594 1617.79,1295.4994" fill="none" id="Dataset-backto-ProvActivity" style="stroke:#404040;stroke-width:1.2;"/><polygon fill="#404040" points="1473.54,283.9794,1479.3195,288.2918,1485.5231,284.6154,1479.7436,280.303,1473.54,283.9794" style="stroke:#404040;stroke-width:1.2;"/><text fill="#000000" font-family="sans-serif" font-size="36" lengthAdjust="spacing" textLength="276.1523" x="2211" y="813.4005">wasGeneratedBy</text><text fill="#000000" font-family="sans-serif" font-size="36" lengthAdjust="spacing" textLength="54.0352" x="1625.1108" y="1284.9642">0..*</text></g><!--link Dataset to Agent--><g class="link" data-entity-1="ent0004" data-entity-2="ent0012" data-link-type="dependency" data-source-line="47" id="lnk33"><path codeLine="47" d="M1415.64,304.6994 C1403.42,389.2194 1361.53,680.8594 1352,774.5294 C1342.03,872.4694 1353.19,898.4194 1337,995.5294 C1318.13,1108.7294 1278.3403,1234.1483 1260.8603,1286.4983" fill="none" id="Dataset-to-Agent" style="stroke:#404040;stroke-width:1.2;"/><polygon fill="#404040" points="1258.96,1292.1894,1265.6045,1284.9196,1260.5436,1287.4468,1258.0164,1282.3858,1258.96,1292.1894" style="stroke:#404040;stroke-width:1.2;"/><text fill="#000000" font-family="sans-serif" font-size="36" lengthAdjust="spacing" textLength="130.0605" x="1353" y="813.4005">provider</text><text fill="#000000" font-family="sans-serif" font-size="36" lengthAdjust="spacing" textLength="54.0352" x="1201.6563" y="1276.5568">0..*</text></g><!--link Dataset to Agent--><g class="link" data-entity-1="ent0004" data-entity-2="ent0012" data-link-type="dependency" data-source-line="49" id="lnk35"><path codeLine="49" d="M1420.17,304.9294 C1423.32,363.3794 1433.29,520.3894 1455,649.5294 C1467.94,726.4894 1502.15,746.3994 1485,822.5294 C1441.27,1016.6194 1315.1272,1219.0231 1270.0272,1287.2931" fill="none" id="Dataset-to-Agent-1" style="stroke:#404040;stroke-width:1.2;"/><polygon fill="#404040" points="1266.72,1292.2994,1275.0183,1286.9948,1269.476,1288.1275,1268.3433,1282.5852,1266.72,1292.2994" style="stroke:#404040;stroke-width:1.2;"/><text fill="#000000" font-family="sans-serif" font-size="36" lengthAdjust="spacing" textLength="112.043" x="1490" y="813.4005">creator</text><text fill="#000000" font-family="sans-serif" font-size="36" lengthAdjust="spacing" textLength="54.0352" x="1274.0313" y="1276.6857">0..*</text></g><!--link Dataset to Agent--><g class="link" data-entity-1="ent0004" data-entity-2="ent0012" data-link-type="dependency" data-source-line="51" id="lnk37"><path codeLine="51" d="M1473.52,285.2994 C1558.68,294.3794 1721.71,325.1994 1801,429.5294 C1860.34,507.6094 1851.87,557.4994 1818,649.5294 C1705.63,954.8494 1388.9977,1211.9831 1287.1477,1288.9131" fill="none" id="Dataset-to-Agent-2" style="stroke:#404040;stroke-width:1.2;"/><polygon fill="#404040" points="1282.36,1292.5294,1291.9525,1290.2967,1286.3498,1289.5158,1287.1307,1283.9131,1282.36,1292.5294" style="stroke:#404040;stroke-width:1.2;"/><text fill="#000000" font-family="sans-serif" font-size="36" lengthAdjust="spacing" textLength="146.0918" x="1757" y="813.4005">publisher</text><text fill="#000000" font-family="sans-serif" font-size="36" lengthAdjust="spacing" textLength="60.0469" x="1301.0977" y="1329.5248">0..1</text></g><!--link Dataset to AbstractDistribution--><g class="link" data-entity-1="ent0004" data-entity-2="ent0005" data-link-type="dependency" data-source-line="48" id="lnk34"><path codeLine="48" d="M1364.25,282.3994 C1193.78,286.3594 677.77,308.3394 576,429.5294 C534.85,478.5294 552.5977,555.7557 565.6777,595.8157" fill="none" id="Dataset-to-AbstractDistribution" style="stroke:#404040;stroke-width:1.2;"/><polygon fill="#404040" points="567.54,601.5194,568.549,591.7223,565.9881,596.7663,560.9441,594.2054,567.54,601.5194" style="stroke:#404040;stroke-width:1.2;"/><text fill="#000000" font-family="sans-serif" font-size="36" lengthAdjust="spacing" textLength="174.0938" x="577" y="467.9005">distribution</text><text fill="#000000" font-family="sans-serif" font-size="36" lengthAdjust="spacing" textLength="54.0352" x="507.2181" y="585.6546">0..*</text></g><!--link Dataset to Contributor--><g class="link" data-entity-1="ent0004" data-entity-2="ent0016" data-link-type="dependency" data-source-line="50" id="lnk36"><path codeLine="50" d="M1364.35,285.6594 C1223.02,297.5894 851.36,337.2994 778,429.5294 C735.63,482.7894 768.2864,696.2673 780.7864,768.4673" fill="none" id="Dataset-to-Contributor" style="stroke:#404040;stroke-width:1.2;"/><polygon fill="#404040" points="781.81,774.3794,784.216,764.8289,780.957,769.4527,776.3333,766.1937,781.81,774.3794" style="stroke:#404040;stroke-width:1.2;"/><text fill="#000000" font-family="sans-serif" font-size="36" lengthAdjust="spacing" textLength="170.0859" x="779" y="467.9005">contributor</text><text fill="#000000" font-family="sans-serif" font-size="36" lengthAdjust="spacing" textLength="54.0352" x="722.2215" y="758.4896">0..*</text></g><!--link Dataset to MonetaryGrant--><g class="link" data-entity-1="ent0004" data-entity-2="ent0021" data-link-type="dependency" data-source-line="52" id="lnk38"><path codeLine="52" d="M1364.16,281.1694 C1267.45,283.8894 1068.37,305.1794 979,429.5294 C901.62,537.1994 951.5864,706.4545 974.0664,768.8545" fill="none" id="Dataset-to-MonetaryGrant" style="stroke:#404040;stroke-width:1.2;"/><polygon fill="#404040" points="976.1,774.4994,976.8128,764.6763,974.4053,769.7953,969.2864,767.3878,976.1,774.4994" style="stroke:#404040;stroke-width:1.2;"/><text fill="#000000" font-family="sans-serif" font-size="36" lengthAdjust="spacing" textLength="118.1074" x="980" y="467.9005">funding</text><text fill="#000000" font-family="sans-serif" font-size="36" lengthAdjust="spacing" textLength="54.0352" x="915.7011" y="758.631">0..*</text></g><!--link Dataset to DerivedFrom--><g class="link" data-entity-1="ent0004" data-entity-2="ent0022" data-link-type="dependency" data-source-line="53" id="lnk39"><path codeLine="53" d="M1473.6,287.0494 C1562.5,298.6594 1739.74,333.0494 1851,429.5294 C1868.72,444.8994 1863.82,455.9094 1875,476.5294 C1899.22,521.2094 1926.0767,567.2744 1943.1967,596.2344" fill="none" id="Dataset-to-DerivedFrom" style="stroke:#404040;stroke-width:1.2;"/><polygon fill="#404040" points="1946.25,601.3994,1945.1133,591.6163,1943.7056,597.0952,1938.2267,595.6874,1946.25,601.3994" style="stroke:#404040;stroke-width:1.2;"/><text fill="#000000" font-family="sans-serif" font-size="36" lengthAdjust="spacing" textLength="272.0566" x="1876" y="467.9005">wasDerivedFrom</text><text fill="#000000" font-family="sans-serif" font-size="36" lengthAdjust="spacing" textLength="54.0352" x="1884.9621" y="585.5132">0..*</text></g><!--link Dataset to CatalogRecord--><g class="link" data-entity-1="ent0004" data-entity-2="ent0023" data-link-type="dependency" data-source-line="54" id="lnk40"><path codeLine="54" d="M1364.32,290.6194 C1293.49,305.6394 1172.74,343.0894 1119,429.5294 C1085.22,483.8694 1114.8745,557.2047 1134.9745,595.9047" fill="none" id="Dataset-to-CatalogRecord" style="stroke:#404040;stroke-width:1.2;"/><polygon fill="#404040" points="1137.74,601.2294,1137.1415,591.3987,1135.4354,596.7922,1130.042,595.0861,1137.74,601.2294" style="stroke:#404040;stroke-width:1.2;"/><text fill="#000000" font-family="sans-serif" font-size="36" lengthAdjust="spacing" textLength="152.0684" x="1120" y="467.9005">subjectOf</text><text fill="#000000" font-family="sans-serif" font-size="36" lengthAdjust="spacing" textLength="20.0215" x="1113.7344" y="585.6037">1</text></g><!--link CatalogRecord to Dataset--><g class="link" data-entity-1="ent0023" data-entity-2="ent0004" data-link-type="dependency" data-source-line="64" id="lnk50"><path codeLine="64" d="M1173.2,601.1994 C1199.28,573.0694 1242.93,523.6694 1274,476.5294 C1286.91,456.9494 1285.17,449.1694 1298,429.5294 C1328.68,382.5694 1367.5454,337.5603 1393.1654,309.3603" fill="none" id="CatalogRecord-to-Dataset" style="stroke:#404040;stroke-width:1.2;"/><polygon fill="#404040" points="1397.2,304.9194,1388.1874,308.891,1393.8378,308.6201,1394.1087,314.2705,1397.2,304.9194" style="stroke:#404040;stroke-width:1.2;"/><text fill="#000000" font-family="sans-serif" font-size="36" lengthAdjust="spacing" textLength="90.0879" x="1299" y="467.9005">about</text><text fill="#000000" font-family="sans-serif" font-size="36" lengthAdjust="spacing" textLength="60.0469" x="1329.242" y="349.5124">0..1</text></g><!--link Dataset to DefinedTerm--><g class="link" data-entity-1="ent0004" data-entity-2="ent0017" data-link-type="dependency" data-source-line="55" id="lnk41"><path codeLine="55" d="M1428.07,304.5694 C1452.6,366.8994 1517.9028,532.8161 1542.5928,595.5561" fill="none" id="Dataset-to-DefinedTerm" style="stroke:#404040;stroke-width:1.2;"/><polygon fill="#404040" points="1544.79,601.1394,1545.2164,591.2998,1542.959,596.4867,1537.7721,594.2293,1544.79,601.1394" style="stroke:#404040;stroke-width:1.2;"/><text fill="#000000" font-family="sans-serif" font-size="36" lengthAdjust="spacing" textLength="152.0508" x="1495" y="467.9005">keywords</text><text fill="#000000" font-family="sans-serif" font-size="36" lengthAdjust="spacing" textLength="54.0352" x="1484.5356" y="585.4982">0..*</text></g><!--link Dataset to Reference--><g class="link" data-entity-1="ent0004" data-entity-2="ent0020" data-link-type="dependency" data-source-line="56" id="lnk42"><path codeLine="56" d="M1473.99,304.5494 C1526.2,328.8494 1603.8,371.6694 1653,429.5294 C1697.69,482.0894 1720.0237,556.4289 1729.5337,595.5789" fill="none" id="Dataset-to-Reference" style="stroke:#404040;stroke-width:1.2;"/><polygon fill="#404040" points="1730.95,601.4094,1732.7125,591.7195,1729.7698,596.5507,1724.9386,593.6079,1730.95,601.4094" style="stroke:#404040;stroke-width:1.2;"/><text fill="#000000" font-family="sans-serif" font-size="36" lengthAdjust="spacing" textLength="112.0605" x="1683" y="467.9005">license</text><text fill="#000000" font-family="sans-serif" font-size="36" lengthAdjust="spacing" textLength="54.0352" x="1671.2074" y="585.525">0..*</text></g><!--link DataDownload to Agent--><g class="link" data-entity-1="ent0006" data-entity-2="ent0012" data-link-type="dependency" data-source-line="57" id="lnk43"><path codeLine="57" d="M625.29,995.8594 C624.39,1041.9694 625.08,1142.4794 647,1167.5294 C722.1,1253.3494 1078.583,1297.6811 1203.003,1310.7811" fill="none" id="DataDownload-to-Agent" style="stroke:#404040;stroke-width:1.2;"/><polygon fill="#404040" points="1208.97,1311.4094,1200.4383,1306.489,1203.9975,1310.8858,1199.6006,1314.445,1208.97,1311.4094" style="stroke:#404040;stroke-width:1.2;"/><text fill="#000000" font-family="sans-serif" font-size="36" lengthAdjust="spacing" textLength="130.0605" x="648" y="1158.9005">provider</text><text fill="#000000" font-family="sans-serif" font-size="36" lengthAdjust="spacing" textLength="54.0352" x="1146.9674" y="1350.8216">0..*</text></g><!--link WebAPI to Action--><g class="link" data-entity-1="ent0007" data-entity-2="ent0008" data-link-type="dependency" data-source-line="58" id="lnk44"><path codeLine="58" d="M400.67,995.7494 C395.49,1024.7994 387.13,1076.1294 384,1120.5294 C379.63,1182.4994 381.2855,1249.824 382.7155,1286.384" fill="none" id="WebAPI-to-Action" style="stroke:#404040;stroke-width:1.2;"/><polygon fill="#404040" points="382.95,1292.3794,386.5952,1283.2299,382.7546,1287.3832,378.6013,1283.5426,382.95,1292.3794" style="stroke:#404040;stroke-width:1.2;"/><text fill="#000000" font-family="sans-serif" font-size="36" lengthAdjust="spacing" textLength="236.1621" x="385" y="1158.9005">potentialAction</text><text fill="#000000" font-family="sans-serif" font-size="36" lengthAdjust="spacing" textLength="54.0352" x="323.923" y="1276.4896">0..*</text></g><!--link Action to EntryPoint--><g class="link" data-entity-1="ent0008" data-entity-2="ent0009" data-link-type="dependency" data-source-line="59" id="lnk45"><path codeLine="59" d="M419.64,1340.6994 C458.29,1367.2194 519.96,1413.7294 561,1465.5294 C604.88,1520.9194 634.7674,1593.4687 648.8874,1631.8287" fill="none" id="Action-to-EntryPoint" style="stroke:#404040;stroke-width:1.2;"/><polygon fill="#404040" points="650.96,1637.4594,651.6049,1627.6317,649.2328,1632.7672,644.0973,1630.3951,650.96,1637.4594" style="stroke:#404040;stroke-width:1.2;"/><text fill="#000000" font-family="sans-serif" font-size="36" lengthAdjust="spacing" textLength="92.0566" x="593" y="1503.9005">target</text><text fill="#000000" font-family="sans-serif" font-size="36" lengthAdjust="spacing" textLength="20.0215" x="627.7131" y="1621.5839">1</text></g><!--link Action to ActionResult--><g class="link" data-entity-1="ent0008" data-entity-2="ent0010" data-link-type="dependency" data-source-line="60" id="lnk46"><path codeLine="60" d="M364.52,1340.5694 C311.82,1402.8994 170.6936,1569.8173 117.6536,1632.5573" fill="none" id="Action-to-ActionResult" style="stroke:#404040;stroke-width:1.2;"/><polygon fill="#404040" points="113.78,1637.1394,122.6451,1632.8487,117.008,1633.321,116.5357,1627.6839,113.78,1637.1394" style="stroke:#404040;stroke-width:1.2;"/><text fill="#000000" font-family="sans-serif" font-size="36" lengthAdjust="spacing" textLength="88.0313" x="258" y="1503.9005">result</text><text fill="#000000" font-family="sans-serif" font-size="36" lengthAdjust="spacing" textLength="60.0469" x="51.992" y="1621.4982">0..1</text></g><!--link Action to PropertyValueSpecification--><g class="link" data-entity-1="ent0008" data-entity-2="ent0011" data-link-type="dependency" data-source-line="61" id="lnk47"><path codeLine="61" d="M384,1340.5694 C384,1402.8994 384,1568.3994 384,1631.1394" fill="none" id="Action-to-PropertyValueSpecification" style="stroke:#404040;stroke-width:1.2;"/><polygon fill="#404040" points="384,1637.1394,388,1628.1394,384,1632.1394,380,1628.1394,384,1637.1394" style="stroke:#404040;stroke-width:1.2;"/><text fill="#000000" font-family="sans-serif" font-size="36" lengthAdjust="spacing" textLength="170.1211" x="385" y="1503.9005">queryInput</text><text fill="#000000" font-family="sans-serif" font-size="36" lengthAdjust="spacing" textLength="54.0352" x="325.3448" y="1621.4982">0..*</text></g><!--link Contributor to Agent--><g class="link" data-entity-1="ent0016" data-entity-2="ent0012" data-link-type="dependency" data-source-line="62" id="lnk48"><path codeLine="62" d="M786.19,822.6094 C787.53,861.3694 794.76,940.6494 830,995.5294 C927.36,1147.1294 1117.464,1251.7358 1203.414,1293.5258" fill="none" id="Contributor-to-Agent" style="stroke:#404040;stroke-width:1.2;"/><polygon fill="#404040" points="1208.81,1296.1494,1202.4651,1288.6166,1204.3133,1293.963,1198.9669,1295.8113,1208.81,1296.1494" style="stroke:#404040;stroke-width:1.2;"/><text fill="#000000" font-family="sans-serif" font-size="36" lengthAdjust="spacing" textLength="170.0859" x="831" y="986.4005">contributor</text><text fill="#000000" font-family="sans-serif" font-size="36" lengthAdjust="spacing" textLength="60.0469" x="1140.895" y="1283.8604">0..1</text></g><!--link MonetaryGrant to Agent--><g class="link" data-entity-1="ent0021" data-entity-2="ent0012" data-link-type="dependency" data-source-line="63" id="lnk49"><path codeLine="63" d="M986.42,822.6894 C989.37,860.2194 998,936.1294 1022,995.5294 C1072.41,1120.3094 1176.7036,1238.2031 1224.0136,1287.9131" fill="none" id="MonetaryGrant-to-Agent" style="stroke:#404040;stroke-width:1.2;"/><polygon fill="#404040" points="1228.15,1292.2594,1224.8429,1282.9824,1224.703,1288.6375,1219.0479,1288.4976,1228.15,1292.2594" style="stroke:#404040;stroke-width:1.2;"/><text fill="#000000" font-family="sans-serif" font-size="36" lengthAdjust="spacing" textLength="102.0762" x="1023" y="986.4005">funder</text><text fill="#000000" font-family="sans-serif" font-size="36" lengthAdjust="spacing" textLength="54.0352" x="1147.258" y="1328.8261">0..*</text></g><!--link CatalogRecord to Agent--><g class="link" data-entity-1="ent0023" data-entity-2="ent0012" data-link-type="dependency" data-source-line="65" id="lnk51"><path codeLine="65" d="M1150.2,649.5794 C1148.54,707.8994 1146.39,865.8894 1166,995.5294 C1183.15,1108.9194 1223.2646,1234.2367 1240.9846,1286.5367" fill="none" id="CatalogRecord-to-Agent" style="stroke:#404040;stroke-width:1.2;"/><polygon fill="#404040" points="1242.91,1292.2194,1243.8104,1282.4118,1241.3055,1287.4838,1236.2335,1284.9789,1242.91,1292.2194" style="stroke:#404040;stroke-width:1.2;"/><text fill="#000000" font-family="sans-serif" font-size="36" lengthAdjust="spacing" textLength="168.082" x="1167" y="986.4005">maintainer</text><text fill="#000000" font-family="sans-serif" font-size="36" lengthAdjust="spacing" textLength="60.0469" x="1246.6456" y="1276.592">0..1</text></g><?plantuml-src VLNTQjim5BxtKuZqhf2Ij6iPPWpI92wv60rjsQuL-JZHOakU92Uuss0FiIVSa-pOye_iE244T3vzEaVwpeyDDp6G-M8Lh9KyWA220Vdtvoz1Gnqu7BqT3u4mhbWCTWr9QdAIGB81fJszvoAbYYP4xsWeZrniIKHZ3SxEJ2bvVDjnjXUWDPdUt3gRYegzXfJStaySLCWGIjG5GuXe5fj02lFAtu7SFJYRBARe-wT7RBYvZAKYLnycnG_1Hwb2K7tKTOK7ZL5yanbeuOdts_Eiwr6Xq8mPVk0c7n6gYGkGgs0PBEVBchmIsgWi0M5AQclsYGjgg0RBgjODXMxm56McUjneLjaBhkrDkHJbmQ4DShLuMCw2ZswWXJoAMDAmYLO3_LjzWyrilIffTec4UN0t3sf2yUuwE1iAjnH6vMl9Am5Qiq-qnrz0OseTVnReXqN9Kr0c_qhZ35vJO3pYZ3PNER_TH3tHT5ldg5prRxV68g-Tbyi-OOwrWkxQbxf0d_oijbJmz_R2BZ3akKocL8tZoZx9BKHSGFW6Ah6fRMsatWVtoxkcC4Dy9Se2rcbhdkGb37bnBHhNgbgLJk3-mHU8G04EafBVM7tQ5od0K9K_uGImodMGqoSgVe0mKB9-OcEV28U57Slj2p1iUYkTYpIrFjWrdtwDnvtMk42phU7PmYaHMoCkucROwqoCyVWp6KrkRgv7xdZmIQP13pEdexe8VKAB46TfdRgwIBvsVE8aDPpn5ENtwbbqZM-eUUvvdnofVW81YXe87_FcWEFOoe1-yI1-EjGWPqXTduIEUSarKq2n8OOeRhyWiRLEo5FdgjacvdetVDTkWVeaoaI87xmXgbkUfLGEqELZy6vv-aHdc-_0p7CqxBdjRP_i8J_Y8Jt4R5lF9p5d8F2ht1dwbr9LZNsNmghSfD8KGuF65l6gZVerpgZt2Sgr1TEXL8AxKzudgbpqURReperqd_p8GEKhaMR6SxCza5St_Tqq3eXGv1KbwAR5SLfhZOsraKNiSyJQOK9H3VoZq_y0?></g></svg>