<svg xmlns="http://www.w3.org/2000/svg" xmlns:xlink="http://www.w3.org/1999/xlink" contentStyleType="text/css" data-diagram-type="CLASS" height="202px" preserveAspectRatio="none" style="width:1124px;height:202px;background:#FFFFFF;" version="1.1" viewBox="0 0 1124 202" width="1124px" zoomAndPan="magnify"><?plantuml 1.2026.3?><defs/><g><g class="title" data-source-line="1"><text fill="#000000" font-family="sans-serif" font-size="14" font-weight="700" lengthAdjust="spacing" textLength="71.5723" x="522.9863" y="24.5332">XsdAnyUri</text></g><!--class XsdAnyUri--><g class="entity" data-qualified-name="XsdAnyUri" data-source-line="12" id="ent0002"><rect fill="#FAE5D3" height="40.1875" rx="2.5" ry="2.5" style="stroke:#404040;stroke-width:0.5;" width="65.3809" x="577" y="148.6094"/><text fill="#000000" font-family="sans-serif" font-size="12" font-style="italic" lengthAdjust="spacing" textLength="63.3809" x="578" y="166.0664">&#171;dataType&#187;</text><text fill="#000000" font-family="sans-serif" font-size="12" lengthAdjust="spacing" textLength="56.6836" x="581.3486" y="181.1602">XsdAnyUri</text></g><!--class Dataset--><g class="entity" data-qualified-name="Dataset" data-source-line="13" id="ent0003"><rect fill="#EEEEEE" height="25.0938" rx="2.5" ry="2.5" style="stroke:#404040;stroke-width:0.5;" width="47.3555" x="7" y="45.6094"/><text fill="#000000" font-family="sans-serif" font-size="12" lengthAdjust="spacing" textLength="41.3555" x="10" y="63.0664">Dataset</text></g><!--class DataDownload--><g class="entity" data-qualified-name="DataDownload" data-source-line="15" id="ent0005"><rect fill="#EEEEEE" height="25.0938" rx="2.5" ry="2.5" style="stroke:#404040;stroke-width:0.5;" width="84.7148" x="115" y="45.6094"/><text fill="#000000" font-family="sans-serif" font-size="12" lengthAdjust="spacing" textLength="78.7148" x="118" y="63.0664">DataDownload</text></g><!--class ActionResult--><g class="entity" data-qualified-name="ActionResult" data-source-line="18" id="ent0008"><rect fill="#EEEEEE" height="25.0938" rx="2.5" ry="2.5" style="stroke:#404040;stroke-width:0.5;" width="73.3652" x="261" y="45.6094"/><text fill="#000000" font-family="sans-serif" font-size="12" lengthAdjust="spacing" textLength="67.3652" x="264" y="63.0664">ActionResult</text></g><!--class DefinedTerm--><g class="entity" data-qualified-name="DefinedTerm" data-source-line="20" id="ent0010"><rect fill="#EEEEEE" height="25.0938" rx="2.5" ry="2.5" style="stroke:#404040;stroke-width:0.5;" width="75.3574" x="370" y="45.6094"/><text fill="#000000" font-family="sans-serif" font-size="12" lengthAdjust="spacing" textLength="69.3574" x="373" y="63.0664">DefinedTerm</text></g><!--class Identifier--><g class="entity" data-qualified-name="Identifier" data-source-line="22" id="ent0012"><rect fill="#EEEEEE" height="25.0938" rx="2.5" ry="2.5" style="stroke:#404040;stroke-width:0.5;" width="52.0254" x="482.5" y="45.6094"/><text fill="#000000" font-family="sans-serif" font-size="12" lengthAdjust="spacing" textLength="46.0254" x="485.5" y="63.0664">Identifier</text></g><!--class AdditionalProperty--><g class="entity" data-qualified-name="AdditionalProperty" data-source-line="24" id="ent0014"><rect fill="#EEEEEE" height="25.0938" rx="2.5" ry="2.5" style="stroke:#404040;stroke-width:0.5;" width="104.0566" x="569.5" y="45.6094"/><text fill="#000000" font-family="sans-serif" font-size="12" lengthAdjust="spacing" textLength="98.0566" x="572.5" y="63.0664">AdditionalProperty</text></g><!--class Reference--><g class="entity" data-qualified-name="Reference" data-source-line="26" id="ent0016"><rect fill="#EEEEEE" height="25.0938" rx="2.5" ry="2.5" style="stroke:#404040;stroke-width:0.5;" width="61.3652" x="712" y="45.6094"/><text fill="#000000" font-family="sans-serif" font-size="12" lengthAdjust="spacing" textLength="55.3652" x="715" y="63.0664">Reference</text></g><!--class ProvActivity--><g class="entity" data-qualified-name="ProvActivity" data-source-line="29" id="ent0019"><rect fill="#EEEEEE" height="25.0938" rx="2.5" ry="2.5" style="stroke:#404040;stroke-width:0.5;" width="68.6777" x="809" y="45.6094"/><text fill="#000000" font-family="sans-serif" font-size="12" lengthAdjust="spacing" textLength="62.6777" x="812" y="63.0664">ProvActivity</text></g><!--class DerivedFrom--><g class="entity" data-qualified-name="DerivedFrom" data-source-line="31" id="ent0021"><rect fill="#EEEEEE" height="25.0938" rx="2.5" ry="2.5" style="stroke:#404040;stroke-width:0.5;" width="75.3457" x="913" y="45.6094"/><text fill="#000000" font-family="sans-serif" font-size="12" lengthAdjust="spacing" textLength="69.3457" x="916" y="63.0664">DerivedFrom</text></g><!--class CatalogRecord--><g class="entity" data-qualified-name="CatalogRecord" data-source-line="34" id="ent0024"><rect fill="#EEEEEE" height="25.0938" rx="2.5" ry="2.5" style="stroke:#404040;stroke-width:0.5;" width="86.0449" x="1023.5" y="45.6094"/><text fill="#000000" font-family="sans-serif" font-size="12" lengthAdjust="spacing" textLength="80.0449" x="1026.5" y="63.0664">CatalogRecord</text></g><!--link Dataset to XsdAnyUri--><g class="link" data-entity-1="ent0003" data-entity-2="ent0002" data-link-type="dependency" data-source-line="14" id="lnk4"><path codeLine="14" d="M31.86,70.9394 C34.14,84.8294 40.12,107.3794 55.5,118.6094 C97.66,149.3894 457.9129,162.9416 570.6329,166.4716" fill="none" id="Dataset-to-XsdAnyUri" style="stroke:#404040;stroke-width:1.2;stroke-dasharray:7,7;"/><polygon fill="#404040" points="576.63,166.6594,567.7596,162.3796,571.6325,166.5029,567.5092,170.3757,576.63,166.6594" style="stroke:#404040;stroke-width:1.2;"/><text fill="#000000" font-family="sans-serif" font-size="13" lengthAdjust="spacing" textLength="14.4473" x="56.5" y="115.1045">url</text></g><!--link DataDownload to XsdAnyUri--><g class="link" data-entity-1="ent0005" data-entity-2="ent0002" data-link-type="dependency" data-source-line="16" id="lnk6"><path codeLine="16" d="M124.26,70.6594 C97.25,81.7794 66.23,99.6594 83.5,118.6094 C116.78,155.1294 460.7612,164.7709 570.6712,166.9409" fill="none" id="DataDownload-to-XsdAnyUri" style="stroke:#404040;stroke-width:1.2;stroke-dasharray:7,7;"/><polygon fill="#404040" points="576.67,167.0594,567.7507,162.8825,571.671,166.9607,567.5928,170.8809,576.67,167.0594" style="stroke:#404040;stroke-width:1.2;"/><text fill="#000000" font-family="sans-serif" font-size="13" lengthAdjust="spacing" textLength="59.249" x="84.5" y="115.1045">contentUrl</text></g><!--link DataDownload to XsdAnyUri--><g class="link" data-entity-1="ent0005" data-entity-2="ent0002" data-link-type="dependency" data-source-line="17" id="lnk7"><path codeLine="17" d="M170.42,70.7194 C186.67,84.5994 216.03,107.3794 245.5,118.6094 C361.54,162.8394 505.68,168.1294 570.89,168.1294" fill="none" id="DataDownload-to-XsdAnyUri-1" style="stroke:#404040;stroke-width:1.2;stroke-dasharray:7,7;"/><polygon fill="#404040" points="576.89,168.1294,567.89,164.1294,571.89,168.1294,567.89,172.1294,576.89,168.1294" style="stroke:#404040;stroke-width:1.2;"/><text fill="#000000" font-family="sans-serif" font-size="13" lengthAdjust="spacing" textLength="68.6309" x="246.5" y="115.1045">conformsTo</text></g><!--link ActionResult to XsdAnyUri--><g class="link" data-entity-1="ent0008" data-entity-2="ent0002" data-link-type="dependency" data-source-line="19" id="lnk9"><path codeLine="19" d="M303.17,70.8294 C310.48,84.6094 324.55,107.0594 343.5,118.6094 C382.29,142.2594 508.441,157.54 570.641,163.89" fill="none" id="ActionResult-to-XsdAnyUri" style="stroke:#404040;stroke-width:1.2;stroke-dasharray:7,7;"/><polygon fill="#404040" points="576.61,164.4994,568.0628,159.606,571.6359,163.9916,567.2503,167.5646,576.61,164.4994" style="stroke:#404040;stroke-width:1.2;"/><text fill="#000000" font-family="sans-serif" font-size="13" lengthAdjust="spacing" textLength="68.6309" x="344.5" y="115.1045">conformsTo</text></g><!--link DefinedTerm to XsdAnyUri--><g class="link" data-entity-1="ent0010" data-entity-2="ent0002" data-link-type="dependency" data-source-line="21" id="lnk11"><path codeLine="21" d="M409.96,70.9694 C413.38,84.4594 420.86,106.2094 435.5,118.6094 C475.97,152.8894 532.8598,162.7722 570.9098,165.8722" fill="none" id="DefinedTerm-to-XsdAnyUri" style="stroke:#404040;stroke-width:1.2;stroke-dasharray:7,7;"/><polygon fill="#404040" points="576.89,166.3594,568.2445,161.6418,571.9065,165.9534,567.5949,169.6153,576.89,166.3594" style="stroke:#404040;stroke-width:1.2;"/><text fill="#000000" font-family="sans-serif" font-size="13" lengthAdjust="spacing" textLength="104.7681" x="436.5" y="115.1045">inDefinedTermSet</text></g><!--link Identifier to XsdAnyUri--><g class="link" data-entity-1="ent0012" data-entity-2="ent0002" data-link-type="dependency" data-source-line="23" id="lnk13"><path codeLine="23" d="M519.31,70.7194 C536.61,89.3094 566.6223,121.5473 587.5723,144.0573" fill="none" id="Identifier-to-XsdAnyUri" style="stroke:#404040;stroke-width:1.2;stroke-dasharray:7,7;"/><polygon fill="#404040" points="591.66,148.4494,588.4565,139.1361,588.2536,144.7893,582.6004,144.5864,591.66,148.4494" style="stroke:#404040;stroke-width:1.2;"/><text fill="#000000" font-family="sans-serif" font-size="13" lengthAdjust="spacing" textLength="14.4473" x="562.5" y="115.1045">url</text></g><!--link AdditionalProperty to XsdAnyUri--><g class="link" data-entity-1="ent0014" data-entity-2="ent0002" data-link-type="dependency" data-source-line="25" id="lnk15"><path codeLine="25" d="M616.04,70.7994 C612.54,78.9494 608.32,90.1994 606.5,100.6094 C603.71,116.5494 604.1184,128.9717 605.7284,142.4517" fill="none" id="AdditionalProperty-to-XsdAnyUri" style="stroke:#404040;stroke-width:1.2;stroke-dasharray:7,7;"/><polygon fill="#404040" points="606.44,148.4094,609.3444,138.9985,605.847,143.4447,601.4009,139.9473,606.44,148.4094" style="stroke:#404040;stroke-width:1.2;"/><text fill="#000000" font-family="sans-serif" font-size="13" lengthAdjust="spacing" textLength="52.0381" x="607.5" y="115.1045">unitCode</text></g><!--link Reference to XsdAnyUri--><g class="link" data-entity-1="ent0016" data-entity-2="ent0002" data-link-type="dependency" data-source-line="27" id="lnk17"><path codeLine="27" d="M728.27,70.7194 C705.48,89.3094 665.229,122.1464 637.639,144.6564" fill="none" id="Reference-to-XsdAnyUri" style="stroke:#404040;stroke-width:1.2;stroke-dasharray:7,7;"/><polygon fill="#404040" points="632.99,148.4494,642.4922,145.8592,636.8642,145.2885,637.4348,139.6605,632.99,148.4494" style="stroke:#404040;stroke-width:1.2;"/><text fill="#000000" font-family="sans-serif" font-size="13" lengthAdjust="spacing" textLength="14.4473" x="688.5" y="115.1045">url</text></g><!--link Reference to XsdAnyUri--><g class="link" data-entity-1="ent0016" data-entity-2="ent0002" data-link-type="dependency" data-source-line="28" id="lnk18"><path codeLine="28" d="M738.85,71.0094 C734.3,84.1394 725.39,105.1594 711.5,118.6094 C692.02,137.4694 669.552,148.2156 647.772,155.9756" fill="none" id="Reference-to-XsdAnyUri-1" style="stroke:#404040;stroke-width:1.2;stroke-dasharray:7,7;"/><polygon fill="#404040" points="642.12,157.9894,651.9405,158.7367,646.83,156.3113,649.2555,151.2008,642.12,157.9894" style="stroke:#404040;stroke-width:1.2;"/><text fill="#000000" font-family="sans-serif" font-size="13" lengthAdjust="spacing" textLength="42.6372" x="725.5" y="115.1045">relation</text></g><!--link ProvActivity to XsdAnyUri--><g class="link" data-entity-1="ent0019" data-entity-2="ent0002" data-link-type="dependency" data-source-line="30" id="lnk20"><path codeLine="30" d="M833.3,70.8794 C821.07,84.2794 799.36,105.9494 776.5,118.6094 C733.28,142.5494 683.0478,154.7865 648.1278,161.3165" fill="none" id="ProvActivity-to-XsdAnyUri" style="stroke:#404040;stroke-width:1.2;stroke-dasharray:7,7;"/><polygon fill="#404040" points="642.23,162.4194,651.8119,164.6969,647.1448,161.5003,650.3414,156.8332,642.23,162.4194" style="stroke:#404040;stroke-width:1.2;"/><text fill="#000000" font-family="sans-serif" font-size="13" lengthAdjust="spacing" textLength="28.1899" x="801.5" y="115.1045">used</text></g><!--link DerivedFrom to XsdAnyUri--><g class="link" data-entity-1="ent0021" data-entity-2="ent0002" data-link-type="dependency" data-source-line="32" id="lnk22"><path codeLine="32" d="M932.6,70.6394 C911.07,84.0194 873.46,105.8694 838.5,118.6094 C770.89,143.2594 693.2428,156.4228 648.0928,162.7028" fill="none" id="DerivedFrom-to-XsdAnyUri" style="stroke:#404040;stroke-width:1.2;stroke-dasharray:7,7;"/><polygon fill="#404040" points="642.15,163.5294,651.6152,166.2513,647.1023,162.8405,650.5131,158.3276,642.15,163.5294" style="stroke:#404040;stroke-width:1.2;"/><text fill="#000000" font-family="sans-serif" font-size="13" lengthAdjust="spacing" textLength="14.4473" x="877.5" y="115.1045">url</text></g><!--link DerivedFrom to XsdAnyUri--><g class="link" data-entity-1="ent0021" data-entity-2="ent0002" data-link-type="dependency" data-source-line="33" id="lnk23"><path codeLine="33" d="M944.1,70.8894 C935.93,84.7194 920.41,107.2194 900.5,118.6094 C856.75,143.6294 714.3369,158.6032 647.9969,164.4432" fill="none" id="DerivedFrom-to-XsdAnyUri-1" style="stroke:#404040;stroke-width:1.2;stroke-dasharray:7,7;"/><polygon fill="#404040" points="642.02,164.9694,651.3361,168.1647,647.0007,164.5309,650.6346,160.1956,642.02,164.9694" style="stroke:#404040;stroke-width:1.2;"/><text fill="#000000" font-family="sans-serif" font-size="13" lengthAdjust="spacing" textLength="42.6372" x="922.5" y="115.1045">relation</text></g><!--link CatalogRecord to XsdAnyUri--><g class="link" data-entity-1="ent0024" data-entity-2="ent0002" data-link-type="dependency" data-source-line="35" id="lnk25"><path codeLine="35" d="M1052.73,70.6994 C1035.43,84.5694 1004.27,107.3294 973.5,118.6094 C856.91,161.3594 713.0499,167.3879 648.0199,167.8379" fill="none" id="CatalogRecord-to-XsdAnyUri" style="stroke:#404040;stroke-width:1.2;stroke-dasharray:7,7;"/><polygon fill="#404040" points="642.02,167.8794,651.0475,171.817,647.0199,167.8448,650.9921,163.8172,642.02,167.8794" style="stroke:#404040;stroke-width:1.2;"/><text fill="#000000" font-family="sans-serif" font-size="13" lengthAdjust="spacing" textLength="68.6309" x="1009.5" y="115.1045">conformsTo</text></g><?plantuml-src XPDDRy8m38Rl_HKHtD5WssL2I1q5QRU93sdNh7718asG4q1isdzVQ6cQjXkqb_Xnyjflt5gq4jY74R4whmcZBGfWAL8geLn3lhTdbaF-2MGYiqErvyHpPhPSw1Eg3SkuD11aOY9zMcqntIamXWq7eo2PIkxOTyJARLCjDR7-qyFbTV1Lam1gqxbMTebVm8QZw2UAIesURxh7kAajiF5OSCjNvprC9gm_ZsVFoMDr9d4P0xOuSLsp_gnueYeU32Q1sWixa0oF9_gafER2QrIW8UHXMorrNa3PjHEzjo_Jb9kLheh7gKMj5c0EiZGG0b-y0U-B9f2X0h42oaj3TLpx2LXR4LMGNOAjTD-4CuaP0XMoTUXL0tJZncCXy6A8otVIUo1xBgrtS7q1tLH7Nw6TQW5LaGLaGA1IABHzv2LhybUd_sS99B-qKjLn3HqlypdYrKO8VBK6x1Gq8EhP4Hv1p4bNi_DnCBkQ_TNyhNox_QdxNgNUB21rVsbHiK5ypIQzyGt-0W00?></g></svg>