<svg xmlns="http://www.w3.org/2000/svg" xmlns:xlink="http://www.w3.org/1999/xlink" contentStyleType="text/css" data-diagram-type="CLASS" height="497px" preserveAspectRatio="none" style="width:2080px;height:497px;background:#FFFFFF;" version="1.1" viewBox="0 0 2080 497" width="2080px" zoomAndPan="magnify"><?plantuml 1.2026.3?><defs/><g><g class="title" data-source-line="1"><text fill="#000000" font-family="sans-serif" font-size="14" font-weight="700" lengthAdjust="spacing" textLength="71.5723" x="1000.9912" y="24.5332">XsdAnyUri</text></g><!--class XsdAnyUri--><g class="entity" data-qualified-name="XsdAnyUri" data-source-line="16" id="ent0002"><rect fill="#FAE5D3" height="93.0156" rx="2.5" ry="2.5" style="stroke:#404040;stroke-width:0.5;" width="192.1426" x="1041.5" y="390.6094"/><text fill="#000000" font-family="sans-serif" font-size="36" font-style="italic" lengthAdjust="spacing" textLength="190.1426" x="1042.5" y="432.9805">&#171;dataType&#187;</text><text fill="#000000" font-family="sans-serif" font-size="30" lengthAdjust="spacing" textLength="141.709" x="1066.7168" y="472.0332">XsdAnyUri</text></g><!--class Dataset--><g class="entity" data-qualified-name="Dataset" data-source-line="17" id="ent0003"><rect fill="#EEEEEE" height="47.7344" rx="2.5" ry="2.5" style="stroke:#404040;stroke-width:0.5;" width="109.3887" x="7" y="45.6094"/><text fill="#000000" font-family="sans-serif" font-size="30" lengthAdjust="spacing" textLength="103.3887" x="10" y="81.752">Dataset</text></g><!--class DataDownload--><g class="entity" data-qualified-name="DataDownload" data-source-line="19" id="ent0005"><rect fill="#EEEEEE" height="47.7344" rx="2.5" ry="2.5" style="stroke:#404040;stroke-width:0.5;" width="202.7871" x="177" y="45.6094"/><text fill="#000000" font-family="sans-serif" font-size="30" lengthAdjust="spacing" textLength="196.7871" x="180" y="81.752">DataDownload</text></g><!--class ActionResult--><g class="entity" data-qualified-name="ActionResult" data-source-line="22" id="ent0008"><rect fill="#EEEEEE" height="47.7344" rx="2.5" ry="2.5" style="stroke:#404040;stroke-width:0.5;" width="174.4131" x="449.5" y="45.6094"/><text fill="#000000" font-family="sans-serif" font-size="30" lengthAdjust="spacing" textLength="168.4131" x="452.5" y="81.752">ActionResult</text></g><!--class DefinedTerm--><g class="entity" data-qualified-name="DefinedTerm" data-source-line="24" id="ent0010"><rect fill="#EEEEEE" height="47.7344" rx="2.5" ry="2.5" style="stroke:#404040;stroke-width:0.5;" width="179.3936" x="664" y="45.6094"/><text fill="#000000" font-family="sans-serif" font-size="30" lengthAdjust="spacing" textLength="173.3936" x="667" y="81.752">DefinedTerm</text></g><!--class Identifier--><g class="entity" data-qualified-name="Identifier" data-source-line="26" id="ent0012"><rect fill="#EEEEEE" height="47.7344" rx="2.5" ry="2.5" style="stroke:#404040;stroke-width:0.5;" width="121.0635" x="867" y="45.6094"/><text fill="#000000" font-family="sans-serif" font-size="30" lengthAdjust="spacing" textLength="115.0635" x="870" y="81.752">Identifier</text></g><!--class AdditionalProperty--><g class="entity" data-qualified-name="AdditionalProperty" data-source-line="28" id="ent0014"><rect fill="#EEEEEE" height="47.7344" rx="2.5" ry="2.5" style="stroke:#404040;stroke-width:0.5;" width="251.1416" x="1008" y="45.6094"/><text fill="#000000" font-family="sans-serif" font-size="30" lengthAdjust="spacing" textLength="245.1416" x="1011" y="81.752">AdditionalProperty</text></g><!--class Reference--><g class="entity" data-qualified-name="Reference" data-source-line="30" id="ent0016"><rect fill="#EEEEEE" height="47.7344" rx="2.5" ry="2.5" style="stroke:#404040;stroke-width:0.5;" width="144.4131" x="1279.5" y="45.6094"/><text fill="#000000" font-family="sans-serif" font-size="30" lengthAdjust="spacing" textLength="138.4131" x="1282.5" y="81.752">Reference</text></g><!--class ProvActivity--><g class="entity" data-qualified-name="ProvActivity" data-source-line="33" id="ent0019"><rect fill="#EEEEEE" height="47.7344" rx="2.5" ry="2.5" style="stroke:#404040;stroke-width:0.5;" width="162.6943" x="1444" y="45.6094"/><text fill="#000000" font-family="sans-serif" font-size="30" lengthAdjust="spacing" textLength="156.6943" x="1447" y="81.752">ProvActivity</text></g><!--class DerivedFrom--><g class="entity" data-qualified-name="DerivedFrom" data-source-line="35" id="ent0021"><rect fill="#EEEEEE" height="47.7344" rx="2.5" ry="2.5" style="stroke:#404040;stroke-width:0.5;" width="179.3643" x="1627" y="45.6094"/><text fill="#000000" font-family="sans-serif" font-size="30" lengthAdjust="spacing" textLength="173.3643" x="1630" y="81.752">DerivedFrom</text></g><!--class CatalogRecord--><g class="entity" data-qualified-name="CatalogRecord" data-source-line="38" id="ent0024"><rect fill="#EEEEEE" height="47.7344" rx="2.5" ry="2.5" style="stroke:#404040;stroke-width:0.5;" width="206.1123" x="1826.5" y="45.6094"/><text fill="#000000" font-family="sans-serif" font-size="30" lengthAdjust="spacing" textLength="200.1123" x="1829.5" y="81.752">CatalogRecord</text></g><!--link Dataset to XsdAnyUri--><g class="link" data-entity-1="ent0003" data-entity-2="ent0002" data-link-type="dependency" data-source-line="18" id="lnk4"><path codeLine="18" d="M53.97,93.8294 C42.48,134.2194 26.08,217.6594 68.5,265.6094 C195.98,409.7194 797.3706,432.2965 1035.4506,435.5865" fill="none" id="Dataset-to-XsdAnyUri" style="stroke:#404040;stroke-width:1.2;stroke-dasharray:7,7;"/><polygon fill="#404040" points="1041.45,435.6694,1032.5061,431.5454,1036.4505,435.6003,1032.3956,439.5446,1041.45,435.6694" style="stroke:#404040;stroke-width:1.2;"/><text fill="#000000" font-family="sans-serif" font-size="36" lengthAdjust="spacing" textLength="40.0078" x="69.5" y="256.9805">url</text></g><!--link DataDownload to XsdAnyUri--><g class="link" data-entity-1="ent0005" data-entity-2="ent0002" data-link-type="dependency" data-source-line="20" id="lnk6"><path codeLine="20" d="M238.03,93.6594 C178,130.7094 77.63,205.4194 128.5,265.6094 C245.04,403.4994 806.5514,429.7776 1035.4814,434.8076" fill="none" id="DataDownload-to-XsdAnyUri" style="stroke:#404040;stroke-width:1.2;stroke-dasharray:7,7;"/><polygon fill="#404040" points="1041.48,434.9394,1032.57,430.7426,1036.4812,434.8295,1032.3943,438.7407,1041.48,434.9394" style="stroke:#404040;stroke-width:1.2;"/><text fill="#000000" font-family="sans-serif" font-size="36" lengthAdjust="spacing" textLength="164.0742" x="129.5" y="256.9805">contentUrl</text></g><!--link DataDownload to XsdAnyUri--><g class="link" data-entity-1="ent0005" data-entity-2="ent0002" data-link-type="dependency" data-source-line="21" id="lnk7"><path codeLine="21" d="M280.12,93.7694 C283.84,140.0594 294.59,241.6294 318.5,265.6094 C419.19,366.5894 841.3406,412.4822 1035.3206,428.6122" fill="none" id="DataDownload-to-XsdAnyUri-1" style="stroke:#404040;stroke-width:1.2;stroke-dasharray:7,7;"/><polygon fill="#404040" points="1041.3,429.1094,1032.6624,424.3773,1036.3172,428.695,1031.9995,432.3498,1041.3,429.1094" style="stroke:#404040;stroke-width:1.2;"/><text fill="#000000" font-family="sans-serif" font-size="36" lengthAdjust="spacing" textLength="190.0547" x="319.5" y="256.9805">conformsTo</text></g><!--link ActionResult to XsdAnyUri--><g class="link" data-entity-1="ent0008" data-entity-2="ent0002" data-link-type="dependency" data-source-line="23" id="lnk9"><path codeLine="23" d="M528.2,93.8294 C515.65,133.4694 497.11,214.8394 535.5,265.6094 C596.51,346.2994 881.4569,398.9362 1035.4369,422.1162" fill="none" id="ActionResult-to-XsdAnyUri" style="stroke:#404040;stroke-width:1.2;stroke-dasharray:7,7;"/><polygon fill="#404040" points="1041.37,423.0094,1033.0657,417.7142,1036.4257,422.2651,1031.8748,425.6251,1041.37,423.0094" style="stroke:#404040;stroke-width:1.2;"/><text fill="#000000" font-family="sans-serif" font-size="36" lengthAdjust="spacing" textLength="190.0547" x="536.5" y="256.9805">conformsTo</text></g><!--link DefinedTerm to XsdAnyUri--><g class="link" data-entity-1="ent0010" data-entity-2="ent0002" data-link-type="dependency" data-source-line="25" id="lnk11"><path codeLine="25" d="M745.24,93.9194 C732.97,132.9794 714.88,212.5894 749.5,265.6094 C813.76,364.0294 943.0164,404.8847 1035.5564,422.5447" fill="none" id="DefinedTerm-to-XsdAnyUri" style="stroke:#404040;stroke-width:1.2;stroke-dasharray:7,7;"/><polygon fill="#404040" points="1041.45,423.6694,1033.3594,418.0532,1036.5386,422.7321,1031.8597,425.9114,1041.45,423.6694" style="stroke:#404040;stroke-width:1.2;"/><text fill="#000000" font-family="sans-serif" font-size="36" lengthAdjust="spacing" textLength="290.127" x="750.5" y="256.9805">inDefinedTermSet</text></g><!--link Identifier to XsdAnyUri--><g class="link" data-entity-1="ent0012" data-entity-2="ent0002" data-link-type="dependency" data-source-line="27" id="lnk13"><path codeLine="27" d="M949.52,93.6794 C975.27,121.5594 1018.01,170.7294 1046.5,218.6094 C1079.78,274.5394 1104.8522,339.2312 1120.5722,384.5112" fill="none" id="Identifier-to-XsdAnyUri" style="stroke:#404040;stroke-width:1.2;stroke-dasharray:7,7;"/><polygon fill="#404040" points="1122.54,390.1794,1123.367,380.3653,1120.9001,385.4559,1115.8095,382.9891,1122.54,390.1794" style="stroke:#404040;stroke-width:1.2;"/><text fill="#000000" font-family="sans-serif" font-size="36" lengthAdjust="spacing" textLength="40.0078" x="1071.5" y="256.9805">url</text></g><!--link AdditionalProperty to XsdAnyUri--><g class="link" data-entity-1="ent0014" data-entity-2="ent0002" data-link-type="dependency" data-source-line="29" id="lnk15"><path codeLine="29" d="M1133.75,93.7494 C1134.4,153.1494 1136.0744,305.8197 1136.9344,384.5297" fill="none" id="AdditionalProperty-to-XsdAnyUri" style="stroke:#404040;stroke-width:1.2;stroke-dasharray:7,7;"/><polygon fill="#404040" points="1137,390.5294,1140.9014,381.4862,1136.9454,385.5297,1132.9019,381.5736,1137,390.5294" style="stroke:#404040;stroke-width:1.2;"/><text fill="#000000" font-family="sans-serif" font-size="36" lengthAdjust="spacing" textLength="144.1055" x="1136.5" y="256.9805">unitCode</text></g><!--link Reference to XsdAnyUri--><g class="link" data-entity-1="ent0016" data-entity-2="ent0002" data-link-type="dependency" data-source-line="31" id="lnk17"><path codeLine="31" d="M1346.58,93.7294 C1337.89,131.5094 1317.57,208.0294 1284.5,265.6094 C1257.74,312.2094 1221.5187,353.6532 1189.8287,386.0032" fill="none" id="Reference-to-XsdAnyUri" style="stroke:#404040;stroke-width:1.2;stroke-dasharray:7,7;"/><polygon fill="#404040" points="1185.63,390.2894,1194.7855,386.6593,1189.1289,386.7176,1189.0706,381.061,1185.63,390.2894" style="stroke:#404040;stroke-width:1.2;"/><text fill="#000000" font-family="sans-serif" font-size="36" lengthAdjust="spacing" textLength="40.0078" x="1307.5" y="256.9805">url</text></g><!--link Reference to XsdAnyUri--><g class="link" data-entity-1="ent0016" data-entity-2="ent0002" data-link-type="dependency" data-source-line="32" id="lnk18"><path codeLine="32" d="M1357.63,93.6494 C1366.45,131.6494 1378.83,208.8794 1351.5,265.6094 C1325.52,319.5294 1278.3617,358.5053 1232.0017,387.4053" fill="none" id="Reference-to-XsdAnyUri-1" style="stroke:#404040;stroke-width:1.2;stroke-dasharray:7,7;"/><polygon fill="#404040" points="1226.91,390.5794,1236.6636,389.2127,1231.1531,387.9343,1232.4315,382.4238,1226.91,390.5794" style="stroke:#404040;stroke-width:1.2;"/><text fill="#000000" font-family="sans-serif" font-size="36" lengthAdjust="spacing" textLength="118.0723" x="1365.5" y="256.9805">relation</text></g><!--link ProvActivity to XsdAnyUri--><g class="link" data-entity-1="ent0019" data-entity-2="ent0002" data-link-type="dependency" data-source-line="34" id="lnk20"><path codeLine="34" d="M1527.53,93.6794 C1529.75,133.0994 1528.73,214.1294 1489.5,265.6094 C1426.94,347.6994 1320.3558,390.7944 1239.3858,413.5744" fill="none" id="ProvActivity-to-XsdAnyUri" style="stroke:#404040;stroke-width:1.2;stroke-dasharray:7,7;"/><polygon fill="#404040" points="1233.61,415.1994,1243.357,416.6125,1238.4231,413.8453,1241.1904,408.9114,1233.61,415.1994" style="stroke:#404040;stroke-width:1.2;"/><text fill="#000000" font-family="sans-serif" font-size="36" lengthAdjust="spacing" textLength="78.0645" x="1512.5" y="256.9805">used</text></g><!--link DerivedFrom to XsdAnyUri--><g class="link" data-entity-1="ent0021" data-entity-2="ent0002" data-link-type="dependency" data-source-line="36" id="lnk22"><path codeLine="36" d="M1708.08,93.8894 C1692.3,134.3694 1654.57,217.9394 1596.5,265.6094 C1489.73,353.2594 1339.4388,397.0914 1239.5988,418.3214" fill="none" id="DerivedFrom-to-XsdAnyUri" style="stroke:#404040;stroke-width:1.2;stroke-dasharray:7,7;"/><polygon fill="#404040" points="1233.73,419.5694,1243.3651,421.61,1238.6207,418.5294,1241.7012,413.7849,1233.73,419.5694" style="stroke:#404040;stroke-width:1.2;"/><text fill="#000000" font-family="sans-serif" font-size="36" lengthAdjust="spacing" textLength="40.0078" x="1639.5" y="256.9805">url</text></g><!--link DerivedFrom to XsdAnyUri--><g class="link" data-entity-1="ent0021" data-entity-2="ent0002" data-link-type="dependency" data-source-line="37" id="lnk23"><path codeLine="37" d="M1719.95,93.6194 C1724.59,133.6794 1727.9,216.6194 1685.5,265.6094 C1571.56,397.2694 1363.8114,428.309 1239.6214,434.949" fill="none" id="DerivedFrom-to-XsdAnyUri-1" style="stroke:#404040;stroke-width:1.2;stroke-dasharray:7,7;"/><polygon fill="#404040" points="1233.63,435.2694,1242.8307,438.7832,1238.6229,435.0024,1242.4036,430.7946,1233.63,435.2694" style="stroke:#404040;stroke-width:1.2;"/><text fill="#000000" font-family="sans-serif" font-size="36" lengthAdjust="spacing" textLength="118.0723" x="1711.5" y="256.9805">relation</text></g><!--link CatalogRecord to XsdAnyUri--><g class="link" data-entity-1="ent0024" data-entity-2="ent0002" data-link-type="dependency" data-source-line="39" id="lnk25"><path codeLine="39" d="M1925.04,93.8494 C1915.89,135.0294 1891,220.6794 1835.5,265.6094 C1743.28,340.2794 1408.5664,397.2581 1239.6664,422.0481" fill="none" id="CatalogRecord-to-XsdAnyUri" style="stroke:#404040;stroke-width:1.2;stroke-dasharray:7,7;"/><polygon fill="#404040" points="1233.73,422.9194,1243.2155,425.57,1238.677,422.1933,1242.0537,417.6548,1233.73,422.9194" style="stroke:#404040;stroke-width:1.2;"/><text fill="#000000" font-family="sans-serif" font-size="36" lengthAdjust="spacing" textLength="190.0547" x="1874.5" y="256.9805">conformsTo</text></g><?plantuml-src XPDDRy8m38Rl_HKHt17xF4m8gQD3scrY8EsQDUwmI9FA2Q1ksdzVQ6cImiRQI_ouUL_RIIrQ2UpDY5JLAy9aZG9OZfHBQDTGLhPc9PJlG2On6rGL9ruoi-P2xr5zi89B0r4c9TBxvHhpZG9ZsDNeEaeILni35Rk-6qTKQG4DZQ60Wc-bdMjbN_4JsCrzbCmbTzfV2MljPbfgOiFRyU5ry56J03gbiPJRQ2tX-zP2mEFaEqbQwO6VoO1n4oR49XF1BL_M5KodR3XFd-wocsvFvZ86RBFZk6R3f-P9kdWqcaPg3snBCjwUwRsIcWklqO6Ua8UdQhdh1PHTET7_lYiqbMQfE_CqjwZL0eoRUMCU0s_UW_-BPb2W0h44Ajk6GXpwYTYf8gee-mgsqtqMhaai4AYH3Q5NZT25YQT2uA4XBbz8Lq2sRbi_ms40vwapVOLsvcvqPxA00WXK3essZxna8BzL-dUMGF93APsFAsXtE9yT7jk8WNVhmJD30oAS7U4En9nqTtO-ZiukiD-AlvG_BN_cxglK7ml8tS_REFQ8z-pJ2tVm1m00?></g></svg>