<svg xmlns="http://www.w3.org/2000/svg" xmlns:xlink="http://www.w3.org/1999/xlink" contentStyleType="text/css" data-diagram-type="CLASS" height="202px" preserveAspectRatio="none" style="width:1082px;height:202px;background:#FFFFFF;" version="1.1" viewBox="0 0 1082 202" width="1082px" zoomAndPan="magnify"><?plantuml 1.2026.3?><defs/><g><g class="title" data-source-line="1"><text fill="#000000" font-family="sans-serif" font-size="14" font-weight="700" lengthAdjust="spacing" textLength="56.0205" x="509.9342" y="24.5332">XsdDate</text></g><!--class XsdDate--><g class="entity" data-qualified-name="XsdDate" data-source-line="12" id="ent0002"><rect fill="#FAE5D3" height="40.1875" rx="2.5" ry="2.5" style="stroke:#404040;stroke-width:0.5;" width="65.3809" x="519.95" y="148.6094"/><text fill="#000000" font-family="sans-serif" font-size="12" font-style="italic" lengthAdjust="spacing" textLength="63.3809" x="520.95" y="166.0664">&#171;dataType&#187;</text><text fill="#000000" font-family="sans-serif" font-size="12" lengthAdjust="spacing" textLength="46.0254" x="529.6277" y="181.1602">XsdDate</text></g><!--class Dataset--><g class="entity" data-qualified-name="Dataset" data-source-line="13" id="ent0003"><rect fill="#EEEEEE" height="25.0938" rx="2.5" ry="2.5" style="stroke:#404040;stroke-width:0.5;" width="47.3555" x="59.95" y="45.6094"/><text fill="#000000" font-family="sans-serif" font-size="12" lengthAdjust="spacing" textLength="41.3555" x="62.95" y="63.0664">Dataset</text></g><!--class DataDownload--><g class="entity" data-qualified-name="DataDownload" data-source-line="16" id="ent0006"><rect fill="#EEEEEE" height="25.0938" rx="2.5" ry="2.5" style="stroke:#404040;stroke-width:0.5;" width="84.7148" x="280.95" y="45.6094"/><text fill="#000000" font-family="sans-serif" font-size="12" lengthAdjust="spacing" textLength="78.7148" x="283.95" y="63.0664">DataDownload</text></g><!--class Contributor--><g class="entity" data-qualified-name="Contributor" data-source-line="19" id="ent0009"><rect fill="#EEEEEE" height="25.0938" rx="2.5" ry="2.5" style="stroke:#404040;stroke-width:0.5;" width="65.3613" x="513.95" y="45.6094"/><text fill="#000000" font-family="sans-serif" font-size="12" lengthAdjust="spacing" textLength="59.3613" x="516.95" y="63.0664">Contributor</text></g><!--class ProvActivity--><g class="entity" data-qualified-name="ProvActivity" data-source-line="22" id="ent0012"><rect fill="#EEEEEE" height="25.0938" rx="2.5" ry="2.5" style="stroke:#404040;stroke-width:0.5;" width="68.6777" x="716.95" y="45.6094"/><text fill="#000000" font-family="sans-serif" font-size="12" lengthAdjust="spacing" textLength="62.6777" x="719.95" y="63.0664">ProvActivity</text></g><!--class CatalogRecord--><g class="entity" data-qualified-name="CatalogRecord" data-source-line="25" id="ent0015"><rect fill="#EEEEEE" height="25.0938" rx="2.5" ry="2.5" style="stroke:#404040;stroke-width:0.5;" width="86.0449" x="944.45" y="45.6094"/><text fill="#000000" font-family="sans-serif" font-size="12" lengthAdjust="spacing" textLength="80.0449" x="947.45" y="63.0664">CatalogRecord</text></g><!--link Dataset to XsdDate--><g class="link" data-entity-1="ent0003" data-entity-2="ent0002" data-link-type="dependency" data-source-line="14" id="lnk4"><path codeLine="14" d="M59.57,69.4794 C36.09,81.0694 6,100.5694 22.45,118.6094 C56.03,155.4394 403.4511,164.8752 513.7511,166.9752" fill="none" id="Dataset-to-XsdDate" style="stroke:#404040;stroke-width:1.2;stroke-dasharray:7,7;"/><polygon fill="#404040" points="519.75,167.0894,510.8278,162.9188,514.7509,166.9942,510.6755,170.9173,519.75,167.0894" style="stroke:#404040;stroke-width:1.2;"/><text fill="#000000" font-family="sans-serif" font-size="13" lengthAdjust="spacing" textLength="74.439" x="23.45" y="115.1045">dateModified</text></g><!--link Dataset to XsdDate--><g class="link" data-entity-1="ent0003" data-entity-2="ent0002" data-link-type="dependency" data-source-line="15" id="lnk5"><path codeLine="15" d="M95.49,70.7694 C110.67,84.6994 138.23,107.5294 166.45,118.6094 C230.74,143.8494 432.6437,159.6238 513.6837,165.1138" fill="none" id="Dataset-to-XsdDate-1" style="stroke:#404040;stroke-width:1.2;stroke-dasharray:7,7;"/><polygon fill="#404040" points="519.67,165.5194,510.9609,160.9202,514.6814,165.1814,510.4202,168.9019,519.67,165.5194" style="stroke:#404040;stroke-width:1.2;"/><text fill="#000000" font-family="sans-serif" font-size="13" lengthAdjust="spacing" textLength="82.3989" x="167.45" y="115.1045">datePublished</text></g><!--link DataDownload to XsdDate--><g class="link" data-entity-1="ent0006" data-entity-2="ent0002" data-link-type="dependency" data-source-line="17" id="lnk7"><path codeLine="17" d="M296.84,70.7394 C274.13,82.2794 247.36,100.7594 262.45,118.6094 C295.12,157.2694 445.1119,165.2892 513.8219,167.0092" fill="none" id="DataDownload-to-XsdDate" style="stroke:#404040;stroke-width:1.2;stroke-dasharray:7,7;"/><polygon fill="#404040" points="519.82,167.1594,510.9229,162.9354,514.8216,167.0343,510.7227,170.9329,519.82,167.1594" style="stroke:#404040;stroke-width:1.2;"/><text fill="#000000" font-family="sans-serif" font-size="13" lengthAdjust="spacing" textLength="74.439" x="263.45" y="115.1045">dateModified</text></g><!--link DataDownload to XsdDate--><g class="link" data-entity-1="ent0006" data-entity-2="ent0002" data-link-type="dependency" data-source-line="18" id="lnk8"><path codeLine="18" d="M337.59,70.7294 C354.03,83.7894 382.38,104.9394 409.45,118.6094 C445.64,136.8894 484.4508,149.3366 514.1208,157.6166" fill="none" id="DataDownload-to-XsdDate-1" style="stroke:#404040;stroke-width:1.2;stroke-dasharray:7,7;"/><polygon fill="#404040" points="519.9,159.2294,512.3064,152.9574,515.084,157.8854,510.156,160.663,519.9,159.2294" style="stroke:#404040;stroke-width:1.2;"/><text fill="#000000" font-family="sans-serif" font-size="13" lengthAdjust="spacing" textLength="82.3989" x="410.45" y="115.1045">datePublished</text></g><!--link Contributor to XsdDate--><g class="link" data-entity-1="ent0009" data-entity-2="ent0002" data-link-type="dependency" data-source-line="20" id="lnk10"><path codeLine="20" d="M528,70.7994 C512.72,82.0794 494.68,100.1294 502.45,118.6094 C507.3,130.1494 511.8525,136.3566 520.9225,144.4066" fill="none" id="Contributor-to-XsdDate" style="stroke:#404040;stroke-width:1.2;stroke-dasharray:7,7;"/><polygon fill="#404040" points="525.41,148.3894,521.334,139.4235,521.6705,145.0704,516.0236,145.4068,525.41,148.3894" style="stroke:#404040;stroke-width:1.2;"/><text fill="#000000" font-family="sans-serif" font-size="13" lengthAdjust="spacing" textLength="52.7427" x="503.45" y="115.1045">startDate</text></g><!--link Contributor to XsdDate--><g class="link" data-entity-1="ent0009" data-entity-2="ent0002" data-link-type="dependency" data-source-line="21" id="lnk11"><path codeLine="21" d="M551.54,70.8294 C554.81,78.9994 558.75,90.2594 560.45,100.6094 C563.08,116.6794 561.7697,129.1853 558.8597,142.6253" fill="none" id="Contributor-to-XsdDate-1" style="stroke:#404040;stroke-width:1.2;stroke-dasharray:7,7;"/><polygon fill="#404040" points="557.59,148.4894,563.4039,140.5397,558.6481,143.6026,555.5851,138.8467,557.59,148.4894" style="stroke:#404040;stroke-width:1.2;"/><text fill="#000000" font-family="sans-serif" font-size="13" lengthAdjust="spacing" textLength="49.1499" x="563.45" y="115.1045">endDate</text></g><!--link ProvActivity to XsdDate--><g class="link" data-entity-1="ent0012" data-entity-2="ent0002" data-link-type="dependency" data-source-line="23" id="lnk13"><path codeLine="23" d="M730.15,70.7194 C695.36,89.6894 631.3676,124.5767 590.3476,146.9467" fill="none" id="ProvActivity-to-XsdDate" style="stroke:#404040;stroke-width:1.2;stroke-dasharray:7,7;"/><polygon fill="#404040" points="585.08,149.8194,594.8965,149.0221,589.4697,147.4255,591.0663,141.9986,585.08,149.8194" style="stroke:#404040;stroke-width:1.2;"/><text fill="#000000" font-family="sans-serif" font-size="13" lengthAdjust="spacing" textLength="80.9136" x="671.45" y="115.1045">startedAtTime</text></g><!--link ProvActivity to XsdDate--><g class="link" data-entity-1="ent0012" data-entity-2="ent0002" data-link-type="dependency" data-source-line="24" id="lnk14"><path codeLine="24" d="M757.99,70.9594 C764.23,84.0294 771.21,105.0094 760.45,118.6094 C738.97,145.7294 644.3592,158.7325 591.3392,164.1225" fill="none" id="ProvActivity-to-XsdDate-1" style="stroke:#404040;stroke-width:1.2;stroke-dasharray:7,7;"/><polygon fill="#404040" points="585.37,164.7294,594.7284,167.7986,590.3444,164.2237,593.9193,159.8396,585.37,164.7294" style="stroke:#404040;stroke-width:1.2;"/><text fill="#000000" font-family="sans-serif" font-size="13" lengthAdjust="spacing" textLength="77.3208" x="767.45" y="115.1045">endedAtTime</text></g><!--link CatalogRecord to XsdDate--><g class="link" data-entity-1="ent0015" data-entity-2="ent0002" data-link-type="dependency" data-source-line="26" id="lnk16"><path codeLine="26" d="M965.82,70.7994 C939.87,84.3294 894.67,106.3194 853.45,118.6094 C758.31,146.9594 647.0364,159.5372 591.1064,164.5172" fill="none" id="CatalogRecord-to-XsdDate" style="stroke:#404040;stroke-width:1.2;stroke-dasharray:7,7;"/><polygon fill="#404040" points="585.13,165.0494,594.4493,168.2354,590.1103,164.6059,593.7398,160.2669,585.13,165.0494" style="stroke:#404040;stroke-width:1.2;"/><text fill="#000000" font-family="sans-serif" font-size="13" lengthAdjust="spacing" textLength="71.5508" x="904.45" y="115.1045">dateCreated</text></g><!--link CatalogRecord to XsdDate--><g class="link" data-entity-1="ent0015" data-entity-2="ent0002" data-link-type="dependency" data-source-line="27" id="lnk17"><path codeLine="27" d="M990.84,70.8794 C993.92,84.2794 996.34,105.9394 984.45,118.6094 C957.19,147.6294 687.3843,161.8381 591.2643,166.0281" fill="none" id="CatalogRecord-to-XsdDate-1" style="stroke:#404040;stroke-width:1.2;stroke-dasharray:7,7;"/><polygon fill="#404040" points="585.27,166.2894,594.4357,169.8936,590.2653,166.0716,594.0873,161.9012,585.27,166.2894" style="stroke:#404040;stroke-width:1.2;"/><text fill="#000000" font-family="sans-serif" font-size="13" lengthAdjust="spacing" textLength="74.439" x="992.45" y="115.1045">dateModified</text></g><?plantuml-src XPBBRi8m44Nt_eeHx56XxQP2I6c0NINKikZMn0CPuSHeR42qwh_NpSDr2eL4YkphepcsCuwSHdYtQYeTYfmKGaQSwMQCnSwTeC1YXMo5tLAvaomBiBbKvaZb1jPIMunM4cPpNEQKRKkq5eQ3KRIOQUcpJm4rbXfj6FeFTp-l3vyDA-I_wToKxeq-48OZyIL4NQFNRBa7qhRRX_5OIIUNfnrE9j2V9xF7wNtBUq1QT1NVZA4_gnxHpWU3IQZr1BuMlXX5Qq9r1LdiLvfixfd8D3N7KXkfWguDEiuGtX1VuSxigRyjfjNU6QxaqJouuwnRqZh9hcg5_naiwsPfX0isXoHpT21tgenn49ITy88JLUAMLE0rq8i3rfxMtuuscrVCVElKvusJtnDtqlDhJ1dzLztamc_v1W00?></g></svg>