<svg xmlns="http://www.w3.org/2000/svg" xmlns:xlink="http://www.w3.org/1999/xlink" contentStyleType="text/css" data-diagram-type="CLASS" height="507px" preserveAspectRatio="none" style="width:2112px;height:507px;background:#FFFFFF;" version="1.1" viewBox="0 0 2112 507" width="2112px" zoomAndPan="magnify"><?plantuml 1.2026.3?><defs/><g><g class="title" data-source-line="1"><text fill="#000000" font-family="sans-serif" font-size="14" font-weight="700" lengthAdjust="spacing" textLength="186.4297" x="959.4846" y="24.5332">BasicDiscovery &#8212; overview</text></g><!--class CompositeProfile--><g class="entity" data-qualified-name="CompositeProfile" data-source-line="12" id="ent0002"><rect fill="#FEFECE" height="25.0938" rx="2.5" ry="2.5" style="stroke:#404040;stroke-width:0.5;" width="97.3711" x="7" y="49.1332"/><text fill="#000000" font-family="sans-serif" font-size="12" font-style="italic" lengthAdjust="spacing" textLength="91.3711" x="10" y="66.5902">CompositeProfile</text></g><!--class Dataset--><g class="entity" data-qualified-name="Dataset" data-source-line="13" id="ent0003"><rect fill="#FEFECE" height="25.0938" rx="2.5" ry="2.5" style="stroke:#404040;stroke-width:0.5;" width="47.3555" x="1012" y="49.1332"/><text fill="#000000" font-family="sans-serif" font-size="12" lengthAdjust="spacing" textLength="41.3555" x="1015" y="66.5902">Dataset</text></g><!--class AbstractDistribution--><g class="entity" data-qualified-name="AbstractDistribution" data-source-line="14" id="ent0004"><rect fill="#D6EAF8" height="25.0938" rx="2.5" ry="2.5" style="stroke:#404040;stroke-width:0.5;" width="110.0391" x="255.5" y="152.1332"/><text fill="#000000" font-family="sans-serif" font-size="12" font-style="italic" lengthAdjust="spacing" textLength="104.0391" x="258.5" y="169.5902">AbstractDistribution</text></g><!--class DataDownload--><g class="entity" data-qualified-name="DataDownload" data-source-line="15" id="ent0005"><rect fill="#FEFECE" height="25.0938" rx="2.5" ry="2.5" style="stroke:#404040;stroke-width:0.5;" width="84.7148" x="280" y="262.1332"/><text fill="#000000" font-family="sans-serif" font-size="12" lengthAdjust="spacing" textLength="78.7148" x="283" y="279.5902">DataDownload</text></g><!--class WebAPI--><g class="entity" data-qualified-name="WebAPI" data-source-line="16" id="ent0006"><rect fill="#FCF3CF" height="25.0938" rx="2.5" ry="2.5" style="stroke:#404040;stroke-width:0.5;" width="50.0156" x="194.5" y="262.1332"/><text fill="#000000" font-family="sans-serif" font-size="12" lengthAdjust="spacing" textLength="44.0156" x="197.5" y="279.5902">WebAPI</text></g><!--class Action--><g class="entity" data-qualified-name="Action" data-source-line="17" id="ent0007"><rect fill="#D6EAF8" height="25.0938" rx="2.5" ry="2.5" style="stroke:#404040;stroke-width:0.5;" width="39.3516" x="200" y="365.1332"/><text fill="#000000" font-family="sans-serif" font-size="12" lengthAdjust="spacing" textLength="33.3516" x="203" y="382.5902">Action</text></g><!--class EntryPoint--><g class="entity" data-qualified-name="EntryPoint" data-source-line="18" id="ent0008"><rect fill="#D6EAF8" height="25.0938" rx="2.5" ry="2.5" style="stroke:#404040;stroke-width:0.5;" width="61.3594" x="87" y="468.1332"/><text fill="#000000" font-family="sans-serif" font-size="12" lengthAdjust="spacing" textLength="55.3594" x="90" y="485.5902">EntryPoint</text></g><!--class ActionResult--><g class="entity" data-qualified-name="ActionResult" data-source-line="19" id="ent0009"><rect fill="#FCF3CF" height="25.0938" rx="2.5" ry="2.5" style="stroke:#404040;stroke-width:0.5;" width="73.3652" x="183" y="468.1332"/><text fill="#000000" font-family="sans-serif" font-size="12" lengthAdjust="spacing" textLength="67.3652" x="186" y="485.5902">ActionResult</text></g><!--class PropertyValueSpecification--><g class="entity" data-qualified-name="PropertyValueSpecification" data-source-line="20" id="ent0010"><rect fill="#D6EAF8" height="25.0938" rx="2.5" ry="2.5" style="stroke:#404040;stroke-width:0.5;" width="150.082" x="291.5" y="468.1332"/><text fill="#000000" font-family="sans-serif" font-size="12" lengthAdjust="spacing" textLength="144.082" x="294.5" y="485.5902">PropertyValueSpecification</text></g><!--class Agent--><g class="entity" data-qualified-name="Agent" data-source-line="21" id="ent0011"><rect fill="#D6EAF8" height="25.0938" rx="2.5" ry="2.5" style="stroke:#404040;stroke-width:0.5;" width="37.3594" x="570" y="365.1332"/><text fill="#000000" font-family="sans-serif" font-size="12" font-style="italic" lengthAdjust="spacing" textLength="31.3594" x="573" y="382.5902">Agent</text></g><!--class Person--><g class="entity" data-qualified-name="Person" data-source-line="22" id="ent0012"><rect fill="#D6EAF8" height="25.0938" rx="2.5" ry="2.5" style="stroke:#404040;stroke-width:0.5;" width="44.0215" x="623.5" y="468.1332"/><text fill="#000000" font-family="sans-serif" font-size="12" lengthAdjust="spacing" textLength="38.0215" x="626.5" y="485.5902">Person</text></g><!--class ContactPoint--><g class="entity" data-qualified-name="ContactPoint" data-source-line="23" id="ent0013"><rect fill="#D6EAF8" height="25.0938" rx="2.5" ry="2.5" style="stroke:#404040;stroke-width:0.5;" width="74.707" x="139" y="49.1332"/><text fill="#000000" font-family="sans-serif" font-size="12" lengthAdjust="spacing" textLength="68.707" x="142" y="66.5902">ContactPoint</text></g><!--class Organization--><g class="entity" data-qualified-name="Organization" data-source-line="24" id="ent0014"><rect fill="#D6EAF8" height="25.0938" rx="2.5" ry="2.5" style="stroke:#404040;stroke-width:0.5;" width="74.0391" x="514.5" y="468.1332"/><text fill="#000000" font-family="sans-serif" font-size="12" lengthAdjust="spacing" textLength="68.0391" x="517.5" y="485.5902">Organization</text></g><!--class Contributor--><g class="entity" data-qualified-name="Contributor" data-source-line="25" id="ent0015"><rect fill="#D6EAF8" height="25.0938" rx="2.5" ry="2.5" style="stroke:#404040;stroke-width:0.5;" width="65.3613" x="648" y="207.1332"/><text fill="#000000" font-family="sans-serif" font-size="12" lengthAdjust="spacing" textLength="59.3613" x="651" y="224.5902">Contributor</text></g><!--class DefinedTerm--><g class="entity" data-qualified-name="DefinedTerm" data-source-line="26" id="ent0016"><rect fill="#D5F5E3" height="25.0938" rx="2.5" ry="2.5" style="stroke:#404040;stroke-width:0.5;" width="75.3574" x="998" y="262.1332"/><text fill="#000000" font-family="sans-serif" font-size="12" lengthAdjust="spacing" textLength="69.3574" x="1001" y="279.5902">DefinedTerm</text></g><!--class Identifier--><g class="entity" data-qualified-name="Identifier" data-source-line="27" id="ent0017"><rect fill="#D6EAF8" height="25.0938" rx="2.5" ry="2.5" style="stroke:#404040;stroke-width:0.5;" width="52.0254" x="29.5" y="152.1332"/><text fill="#000000" font-family="sans-serif" font-size="12" lengthAdjust="spacing" textLength="46.0254" x="32.5" y="169.5902">Identifier</text></g><!--class AdditionalProperty--><g class="entity" data-qualified-name="AdditionalProperty" data-source-line="28" id="ent0018"><rect fill="#D6EAF8" height="25.0938" rx="2.5" ry="2.5" style="stroke:#404040;stroke-width:0.5;" width="104.0566" x="116.5" y="152.1332"/><text fill="#000000" font-family="sans-serif" font-size="12" lengthAdjust="spacing" textLength="98.0566" x="119.5" y="169.5902">AdditionalProperty</text></g><!--class Reference--><g class="entity" data-qualified-name="Reference" data-source-line="29" id="ent0019"><rect fill="#D6EAF8" height="25.0938" rx="2.5" ry="2.5" style="stroke:#404040;stroke-width:0.5;" width="61.3652" x="904" y="152.1332"/><text fill="#000000" font-family="sans-serif" font-size="12" lengthAdjust="spacing" textLength="55.3652" x="907" y="169.5902">Reference</text></g><!--class MonetaryGrant--><g class="entity" data-qualified-name="MonetaryGrant" data-source-line="30" id="ent0020"><rect fill="#D6EAF8" height="25.0938" rx="2.5" ry="2.5" style="stroke:#404040;stroke-width:0.5;" width="86.0332" x="789.5" y="207.1332"/><text fill="#000000" font-family="sans-serif" font-size="12" lengthAdjust="spacing" textLength="80.0332" x="792.5" y="224.5902">MonetaryGrant</text></g><!--class ProvActivity--><g class="entity" data-qualified-name="ProvActivity" data-source-line="31" id="ent0021"><rect fill="#FEFECE" height="25.0938" rx="2.5" ry="2.5" style="stroke:#404040;stroke-width:0.5;" width="68.6777" x="1213" y="152.1332"/><text fill="#000000" font-family="sans-serif" font-size="12" lengthAdjust="spacing" textLength="62.6777" x="1216" y="169.5902">ProvActivity</text></g><!--class DerivedFrom--><g class="entity" data-qualified-name="DerivedFrom" data-source-line="32" id="ent0022"><rect fill="#D6EAF8" height="25.0938" rx="2.5" ry="2.5" style="stroke:#404040;stroke-width:0.5;" width="75.3457" x="1317" y="152.1332"/><text fill="#000000" font-family="sans-serif" font-size="12" lengthAdjust="spacing" textLength="69.3457" x="1320" y="169.5902">DerivedFrom</text></g><!--class CatalogRecord--><g class="entity" data-qualified-name="CatalogRecord" data-source-line="33" id="ent0023"><rect fill="#FEFECE" height="25.0938" rx="2.5" ry="2.5" style="stroke:#404040;stroke-width:0.5;" width="86.0449" x="1565.5" y="152.1332"/><text fill="#000000" font-family="sans-serif" font-size="12" lengthAdjust="spacing" textLength="80.0449" x="1568.5" y="169.5902">CatalogRecord</text></g><!--class VariableMeasured--><g class="entity" data-qualified-name="VariableMeasured" data-source-line="34" id="ent0024"><rect fill="#D5F5E3" height="25.0938" rx="2.5" ry="2.5" style="stroke:#404040;stroke-width:0.5;" width="103.3887" x="1427" y="152.1332"/><text fill="#000000" font-family="sans-serif" font-size="12" lengthAdjust="spacing" textLength="97.3887" x="1430" y="169.5902">VariableMeasured</text></g><!--class SpatialExtent--><g class="entity" data-qualified-name="SpatialExtent" data-source-line="35" id="ent0025"><rect fill="#D5F5E3" height="25.0938" rx="2.5" ry="2.5" style="stroke:#404040;stroke-width:0.5;" width="76.7109" x="1687" y="152.1332"/><text fill="#000000" font-family="sans-serif" font-size="12" lengthAdjust="spacing" textLength="70.7109" x="1690" y="169.5902">SpatialExtent</text></g><!--class TemporalExtent--><g class="entity" data-qualified-name="TemporalExtent" data-source-line="36" id="ent0026"><rect fill="#D5F5E3" height="25.0938" rx="2.5" ry="2.5" style="stroke:#404040;stroke-width:0.5;" width="90.7031" x="1799" y="152.1332"/><text fill="#000000" font-family="sans-serif" font-size="12" lengthAdjust="spacing" textLength="84.7031" x="1802" y="169.5902">TemporalExtent</text></g><!--class QualityMeasure--><g class="entity" data-qualified-name="QualityMeasure" data-source-line="37" id="ent0027"><rect fill="#D5F5E3" height="25.0938" rx="2.5" ry="2.5" style="stroke:#404040;stroke-width:0.5;" width="90.0352" x="1947.5" y="152.1332"/><text fill="#000000" font-family="sans-serif" font-size="12" lengthAdjust="spacing" textLength="84.0352" x="1950.5" y="169.5902">QualityMeasure</text></g><!--reverse link AbstractDistribution to DataDownload--><g class="link" data-entity-1="ent0004" data-entity-2="ent0005" data-link-type="extension" data-source-line="38" id="lnk28"><path codeLine="38" d="M313.7697,195.0829 C316.0697,215.7629 318.87,240.9732 321.19,261.8332" fill="none" id="AbstractDistribution-backto-DataDownload" style="stroke:#404040;stroke-width:1.2;"/><polygon fill="none" points="311.78,177.1932,307.8064,195.7461,319.7329,194.4197,311.78,177.1932" style="stroke:#404040;stroke-width:1.2;"/></g><!--reverse link AbstractDistribution to WebAPI--><g class="link" data-entity-1="ent0004" data-entity-2="ent0006" data-link-type="extension" data-source-line="39" id="lnk29"><path codeLine="39" d="M289.1635,190.9599 C271.7435,211.6399 247.02,240.9732 229.44,261.8332" fill="none" id="AbstractDistribution-backto-WebAPI" style="stroke:#404040;stroke-width:1.2;"/><polygon fill="none" points="300.76,177.1932,284.5746,187.0944,293.7524,194.8254,300.76,177.1932" style="stroke:#404040;stroke-width:1.2;"/></g><!--reverse link Agent to Person--><g class="link" data-entity-1="ent0011" data-entity-2="ent0012" data-link-type="extension" data-source-line="40" id="lnk30"><path codeLine="40" d="M603.892,405.8962 C614.832,425.2662 627.86,448.3732 638.86,467.8732" fill="none" id="Agent-backto-Person" style="stroke:#404040;stroke-width:1.2;"/><polygon fill="none" points="595.04,390.2232,598.6676,408.8469,609.1163,402.9456,595.04,390.2232" style="stroke:#404040;stroke-width:1.2;"/></g><!--reverse link Agent to Organization--><g class="link" data-entity-1="ent0011" data-entity-2="ent0014" data-link-type="extension" data-source-line="41" id="lnk31"><path codeLine="41" d="M578.0652,407.1236 C570.9652,426.4936 562.95,448.3732 555.81,467.8732" fill="none" id="Agent-backto-Organization" style="stroke:#404040;stroke-width:1.2;"/><polygon fill="none" points="584.26,390.2232,572.4317,405.0587,583.6987,409.1886,584.26,390.2232" style="stroke:#404040;stroke-width:1.2;"/></g><!--link Dataset to Agent--><g class="link" data-entity-1="ent0003" data-entity-2="ent0011" data-link-type="dependency" data-source-line="42" id="lnk32"><path codeLine="42" d="M1011.84,63.1532 C911.81,65.5332 526.56,76.4432 480.5,104.1332 C425.82,137.0032 397.78,170.8432 415.5,232.1332 C430.54,284.1332 438.66,300.7832 480.5,335.1332 C507.2,357.0532 540.9154,366.9858 564.0054,371.9758" fill="none" id="Dataset-to-Agent" style="stroke:#404040;stroke-width:1.2;"/><polygon fill="#404040" points="569.87,373.2432,561.918,367.4324,564.9828,372.187,560.2281,375.2518,569.87,373.2432" style="stroke:#404040;stroke-width:1.2;"/><text fill="#000000" font-family="sans-serif" font-size="13" lengthAdjust="spacing" textLength="46.9663" x="416.5" y="225.1283">provider</text><text fill="#000000" font-family="sans-serif" font-size="13" lengthAdjust="spacing" textLength="19.5127" x="542.6293" y="367.1366">0..*</text></g><!--link Dataset to Agent--><g class="link" data-entity-1="ent0003" data-entity-2="ent0011" data-link-type="dependency" data-source-line="44" id="lnk34"><path codeLine="44" d="M1011.7,63.3532 C920.23,66.3132 594.58,78.5832 556.5,104.1332 C505.37,138.4432 487.67,172.6332 503.5,232.1332 C518.02,286.7032 555.5459,336.9033 574.7059,360.2733" fill="none" id="Dataset-to-Agent-1" style="stroke:#404040;stroke-width:1.2;"/><polygon fill="#404040" points="578.51,364.9132,575.8972,355.4173,575.3399,361.0466,569.7106,360.4894,578.51,364.9132" style="stroke:#404040;stroke-width:1.2;"/><text fill="#000000" font-family="sans-serif" font-size="13" lengthAdjust="spacing" textLength="40.46" x="504.5" y="225.1283">creator</text><text fill="#000000" font-family="sans-serif" font-size="13" lengthAdjust="spacing" textLength="19.5127" x="578.3472" y="354.3006">0..*</text></g><!--link Dataset to Agent--><g class="link" data-entity-1="ent0003" data-entity-2="ent0011" data-link-type="dependency" data-source-line="46" id="lnk36"><path codeLine="46" d="M1011.86,62.3532 C935.86,61.8632 699.1,63.7032 636.5,104.1332 C592,132.8732 590.31,155.9832 576.5,207.1332 C560.97,264.6632 575.8394,331.1452 583.4694,359.0852" fill="none" id="Dataset-to-Agent-2" style="stroke:#404040;stroke-width:1.2;"/><polygon fill="#404040" points="585.05,364.8732,586.5378,355.1374,583.7328,360.0498,578.8203,357.2449,585.05,364.8732" style="stroke:#404040;stroke-width:1.2;"/><text fill="#000000" font-family="sans-serif" font-size="13" lengthAdjust="spacing" textLength="52.7554" x="577.5" y="225.1283">publisher</text><text fill="#000000" font-family="sans-serif" font-size="13" lengthAdjust="spacing" textLength="21.6836" x="558.621" y="354.2448">0..1</text></g><!--link Dataset to AbstractDistribution--><g class="link" data-entity-1="ent0003" data-entity-2="ent0004" data-link-type="dependency" data-source-line="43" id="lnk33"><path codeLine="43" d="M1011.68,62.4432 C894.55,61.7132 383.17,61.0132 328.5,104.1332 C314.09,115.4932 311.1096,132.0076 310.5796,145.8476" fill="none" id="Dataset-to-AbstractDistribution" style="stroke:#404040;stroke-width:1.2;"/><polygon fill="#404040" points="310.35,151.8432,314.6915,143.0029,310.5413,146.8469,306.6973,142.6967,310.35,151.8432" style="stroke:#404040;stroke-width:1.2;"/><text fill="#000000" font-family="sans-serif" font-size="13" lengthAdjust="spacing" textLength="62.8672" x="329.5" y="118.6283">distribution</text><text fill="#000000" font-family="sans-serif" font-size="13" lengthAdjust="spacing" textLength="19.5127" x="287.6436" y="141.203">0..*</text></g><!--link Dataset to Contributor--><g class="link" data-entity-1="ent0003" data-entity-2="ent0015" data-link-type="dependency" data-source-line="45" id="lnk35"><path codeLine="45" d="M1011.86,63.3932 C932.11,66.2132 676.6,77.2832 652.5,104.1332 C625.98,133.6832 652.2921,179.2928 668.2521,202.0228" fill="none" id="Dataset-to-Contributor" style="stroke:#404040;stroke-width:1.2;"/><polygon fill="#404040" points="671.7,206.9332,669.8018,197.269,668.8268,202.8412,663.2546,201.8662,671.7,206.9332" style="stroke:#404040;stroke-width:1.2;"/><text fill="#000000" font-family="sans-serif" font-size="13" lengthAdjust="spacing" textLength="61.4199" x="653.5" y="118.6283">contributor</text><text fill="#000000" font-family="sans-serif" font-size="13" lengthAdjust="spacing" textLength="19.5127" x="645.5242" y="196.3285">0..*</text></g><!--link Dataset to MonetaryGrant--><g class="link" data-entity-1="ent0003" data-entity-2="ent0020" data-link-type="dependency" data-source-line="47" id="lnk37"><path codeLine="47" d="M1011.79,64.9432 C983.22,68.7832 935.02,78.7732 902.5,104.1332 C866.67,132.0732 846.8561,178.2429 838.4761,201.3429" fill="none" id="Dataset-to-MonetaryGrant" style="stroke:#404040;stroke-width:1.2;"/><polygon fill="#404040" points="836.43,206.9832,843.2594,199.8868,838.1351,202.2829,835.739,197.1586,836.43,206.9832" style="stroke:#404040;stroke-width:1.2;"/><text fill="#000000" font-family="sans-serif" font-size="13" lengthAdjust="spacing" textLength="42.6499" x="903.5" y="118.6283">funding</text><text fill="#000000" font-family="sans-serif" font-size="13" lengthAdjust="spacing" textLength="19.5127" x="815.3312" y="196.3981">0..*</text></g><!--link Dataset to ProvActivity--><g class="link" data-entity-1="ent0003" data-entity-2="ent0021" data-link-type="dependency" data-source-line="48" id="lnk38"><path codeLine="48" d="M1046.65,74.3532 C1059.96,87.7032 1083.46,109.3232 1107.5,122.1332 C1141.17,140.0732 1177.7689,150.026 1207.0489,156.196" fill="none" id="Dataset-to-ProvActivity" style="stroke:#404040;stroke-width:1.2;"/><polygon fill="#404040" points="1212.92,157.4332,1204.9382,151.6634,1208.0274,156.4022,1203.2886,159.4915,1212.92,157.4332" style="stroke:#404040;stroke-width:1.2;"/><text fill="#000000" font-family="sans-serif" font-size="13" lengthAdjust="spacing" textLength="99.7217" x="1108.5" y="118.6283">wasGeneratedBy</text><text fill="#000000" font-family="sans-serif" font-size="13" lengthAdjust="spacing" textLength="19.5127" x="1185.5968" y="152.0554">0..*</text></g><!--link Dataset to DerivedFrom--><g class="link" data-entity-1="ent0003" data-entity-2="ent0022" data-link-type="dependency" data-source-line="49" id="lnk39"><path codeLine="49" d="M1059.2,66.3732 C1093.64,72.2132 1159.22,84.8632 1212.5,104.1332 C1229.32,110.2132 1232.15,114.8632 1248.5,122.1332 C1273.06,133.0532 1295.8208,141.9797 1317.0308,149.9197" fill="none" id="Dataset-to-DerivedFrom" style="stroke:#404040;stroke-width:1.2;"/><polygon fill="#404040" points="1322.65,152.0232,1315.6236,145.1218,1317.9674,150.2703,1312.8189,152.614,1322.65,152.0232" style="stroke:#404040;stroke-width:1.2;"/><text fill="#000000" font-family="sans-serif" font-size="13" lengthAdjust="spacing" textLength="98.2427" x="1249.5" y="118.6283">wasDerivedFrom</text><text fill="#000000" font-family="sans-serif" font-size="13" lengthAdjust="spacing" textLength="19.5127" x="1289.4646" y="142.478">0..*</text></g><!--link Dataset to CatalogRecord--><g class="link" data-entity-1="ent0003" data-entity-2="ent0023" data-link-type="dependency" data-source-line="50" id="lnk40"><path codeLine="50" d="M1059.01,63.2132 C1156.66,65.7832 1527.23,77.2432 1571.5,104.1332 C1589.38,114.9932 1597.922,132.4728 1602.922,146.4728" fill="none" id="Dataset-to-CatalogRecord" style="stroke:#404040;stroke-width:1.2;"/><polygon fill="#404040" points="1604.94,152.1232,1605.6799,142.3022,1603.2583,147.4145,1598.146,144.9929,1604.94,152.1232" style="stroke:#404040;stroke-width:1.2;"/><text fill="#000000" font-family="sans-serif" font-size="13" lengthAdjust="spacing" textLength="54.9136" x="1590.5" y="118.6283">subjectOf</text><text fill="#000000" font-family="sans-serif" font-size="13" lengthAdjust="spacing" textLength="7.23" x="1595.0659" y="141.2111">1</text></g><!--link CatalogRecord to Dataset--><g class="link" data-entity-1="ent0023" data-entity-2="ent0003" data-link-type="dependency" data-source-line="65" id="lnk55"><path codeLine="65" d="M1585.93,151.9932 C1570.08,143.7732 1548.42,132.4232 1529.5,122.1332 C1515.16,114.3332 1513.08,108.9732 1497.5,104.1332 C1414.24,78.2932 1147.3759,66.6942 1065.1559,63.6642" fill="none" id="CatalogRecord-to-Dataset" style="stroke:#404040;stroke-width:1.2;"/><polygon fill="#404040" points="1059.16,63.4432,1068.0066,67.7719,1064.1566,63.6273,1068.3012,59.7774,1059.16,63.4432" style="stroke:#404040;stroke-width:1.2;"/><text fill="#000000" font-family="sans-serif" font-size="13" lengthAdjust="spacing" textLength="32.5317" x="1530.5" y="118.6283">about</text><text fill="#000000" font-family="sans-serif" font-size="13" lengthAdjust="spacing" textLength="21.6836" x="1067.5265" y="59.4609">0..1</text></g><!--link Dataset to DefinedTerm--><g class="link" data-entity-1="ent0003" data-entity-2="ent0016" data-link-type="dependency" data-source-line="51" id="lnk41"><path codeLine="51" d="M1011.68,63.3832 C961.16,66.3832 843.23,81.0432 786.5,152.1332 C763.94,180.4132 747.99,204.6432 771.5,232.1332 C800.18,265.6732 926.041,272.1757 991.881,273.3557" fill="none" id="Dataset-to-DefinedTerm" style="stroke:#404040;stroke-width:1.2;"/><polygon fill="#404040" points="997.88,273.4632,988.9531,269.3026,992.8808,273.3736,988.8098,277.3013,997.88,273.4632" style="stroke:#404040;stroke-width:1.2;"/><text fill="#000000" font-family="sans-serif" font-size="13" lengthAdjust="spacing" textLength="54.9072" x="787.5" y="170.1283">keywords</text><text fill="#000000" font-family="sans-serif" font-size="13" lengthAdjust="spacing" textLength="19.5127" x="970.5006" y="269.3479">0..*</text></g><!--link Dataset to DefinedTerm--><g class="link" data-entity-1="ent0003" data-entity-2="ent0016" data-link-type="dependency" data-source-line="53" id="lnk43"><path codeLine="53" d="M1035.5,74.2732 C1035.5,111.1732 1035.5,219.1832 1035.5,256.0232" fill="none" id="Dataset-to-DefinedTerm-1" style="stroke:#404040;stroke-width:1.2;"/><polygon fill="#404040" points="1035.5,262.0232,1039.5,253.0232,1035.5,257.0232,1031.5,253.0232,1035.5,262.0232" style="stroke:#404040;stroke-width:1.2;"/><text fill="#000000" font-family="sans-serif" font-size="13" lengthAdjust="spacing" textLength="140.188" x="1036.5" y="170.1283">measurementTechnique</text><text fill="#000000" font-family="sans-serif" font-size="13" lengthAdjust="spacing" textLength="19.5127" x="1012.6133" y="251.0699">0..*</text></g><!--link Dataset to Reference--><g class="link" data-entity-1="ent0003" data-entity-2="ent0019" data-link-type="dependency" data-source-line="52" id="lnk42"><path codeLine="52" d="M1011.99,73.1332 C997.82,80.3332 980.14,90.9632 967.5,104.1332 C953.93,118.2832 946.3395,133.5449 941.0995,146.4349" fill="none" id="Dataset-to-Reference" style="stroke:#404040;stroke-width:1.2;"/><polygon fill="#404040" points="938.84,151.9932,945.9348,145.1621,940.7229,147.3613,938.5238,142.1494,938.84,151.9932" style="stroke:#404040;stroke-width:1.2;"/><text fill="#000000" font-family="sans-serif" font-size="13" lengthAdjust="spacing" textLength="40.4663" x="968.5" y="118.6283">license</text><text fill="#000000" font-family="sans-serif" font-size="13" lengthAdjust="spacing" textLength="19.5127" x="917.7419" y="141.0275">0..*</text></g><!--reverse link Dataset to VariableMeasured--><g class="link" data-entity-1="ent0003" data-entity-2="ent0024" data-link-type="composition" data-source-line="54" id="lnk44"><path codeLine="54" d="M1071.1251,63.4066 C1124.5751,64.9366 1246.35,71.6532 1352.5,104.1332 C1369.61,109.3632 1372.38,114.3832 1388.5,122.1332 C1410.06,132.4932 1434.74,143.8332 1452.8,152.0432" fill="none" id="Dataset-backto-VariableMeasured" style="stroke:#404040;stroke-width:1.2;"/><polygon fill="#404040" points="1059.13,63.0632,1065.0131,67.2333,1071.1251,63.4066,1065.242,59.2365,1059.13,63.0632" style="stroke:#404040;stroke-width:1.2;"/><text fill="#000000" font-family="sans-serif" font-size="13" lengthAdjust="spacing" textLength="103.3335" x="1389.5" y="118.6283">variableMeasured</text><text fill="#000000" font-family="sans-serif" font-size="13" lengthAdjust="spacing" textLength="19.5127" x="1419.3056" y="141.0981">0..*</text></g><!--reverse link Dataset to SpatialExtent--><g class="link" data-entity-1="ent0003" data-entity-2="ent0025" data-link-type="composition" data-source-line="55" id="lnk45"><path codeLine="55" d="M1071.0993,62.1703 C1170.4293,61.0703 1542.48,59.9432 1653.5,104.1332 C1679.41,114.4532 1703.01,137.7632 1715.7,151.9532" fill="none" id="Dataset-backto-SpatialExtent" style="stroke:#404040;stroke-width:1.2;"/><polygon fill="#404040" points="1059.1,62.3032,1065.1439,66.2365,1071.0993,62.1703,1065.0553,58.237,1059.1,62.3032" style="stroke:#404040;stroke-width:1.2;"/><text fill="#000000" font-family="sans-serif" font-size="13" lengthAdjust="spacing" textLength="93.9453" x="1683.5" y="118.6283">spatialCoverage</text><text fill="#000000" font-family="sans-serif" font-size="13" lengthAdjust="spacing" textLength="19.5127" x="1689.2585" y="141.3563">0..*</text></g><!--reverse link Dataset to TemporalExtent--><g class="link" data-entity-1="ent0003" data-entity-2="ent0026" data-link-type="composition" data-source-line="56" id="lnk46"><path codeLine="56" d="M1071.1988,63.101 C1191.3188,64.781 1717.93,73.7532 1785.5,104.1332 C1808.32,114.3932 1827.11,137.7232 1836.98,151.9332" fill="none" id="Dataset-backto-TemporalExtent" style="stroke:#404040;stroke-width:1.2;"/><polygon fill="#404040" points="1059.2,62.9332,1065.1435,67.0167,1071.1988,63.101,1065.2554,59.0175,1059.2,62.9332" style="stroke:#404040;stroke-width:1.2;"/><text fill="#000000" font-family="sans-serif" font-size="13" lengthAdjust="spacing" textLength="106.9453" x="1811.5" y="118.6283">temporalCoverage</text><text fill="#000000" font-family="sans-serif" font-size="13" lengthAdjust="spacing" textLength="19.5127" x="1811.4378" y="141.3285">0..*</text></g><!--reverse link Dataset to QualityMeasure--><g class="link" data-entity-1="ent0003" data-entity-2="ent0027" data-link-type="composition" data-source-line="57" id="lnk47"><path codeLine="57" d="M1071.0897,62.8726 C1203.9897,63.8626 1844.24,70.3132 1926.5,104.1332 C1951.04,114.2232 1972.4,137.6132 1983.77,151.8732" fill="none" id="Dataset-backto-QualityMeasure" style="stroke:#404040;stroke-width:1.2;"/><polygon fill="#404040" points="1059.09,62.7832,1065.06,66.8278,1071.0897,62.8726,1065.1196,58.828,1059.09,62.7832" style="stroke:#404040;stroke-width:1.2;"/><text fill="#000000" font-family="sans-serif" font-size="13" lengthAdjust="spacing" textLength="140.8989" x="1955.5" y="118.6283">hasQualityMeasurement</text><text fill="#000000" font-family="sans-serif" font-size="13" lengthAdjust="spacing" textLength="19.5127" x="1957.686" y="141.2448">0..*</text></g><!--link DataDownload to Agent--><g class="link" data-entity-1="ent0005" data-entity-2="ent0011" data-link-type="dependency" data-source-line="58" id="lnk48"><path codeLine="58" d="M323.4,287.2232 C325.12,300.8632 330.09,323.1832 344.5,335.1332 C378.98,363.7332 513.1576,372.9714 563.9876,375.5314" fill="none" id="DataDownload-to-Agent" style="stroke:#404040;stroke-width:1.2;"/><polygon fill="#404040" points="569.98,375.8332,561.1926,371.3856,564.9863,375.5817,560.7902,379.3754,569.98,375.8332" style="stroke:#404040;stroke-width:1.2;"/><text fill="#000000" font-family="sans-serif" font-size="13" lengthAdjust="spacing" textLength="46.9663" x="345.5" y="331.6283">provider</text><text fill="#000000" font-family="sans-serif" font-size="13" lengthAdjust="spacing" textLength="19.5127" x="542.4224" y="391.2666">0..*</text></g><!--link WebAPI to Action--><g class="link" data-entity-1="ent0006" data-entity-2="ent0007" data-link-type="dependency" data-source-line="59" id="lnk49"><path codeLine="59" d="M218.7,287.4832 C217.98,299.4932 217.1,318.6032 217.5,335.1332 C217.74,345.2332 217.9816,350.7028 218.4516,359.0228" fill="none" id="WebAPI-to-Action" style="stroke:#404040;stroke-width:1.2;"/><polygon fill="#404040" points="218.79,365.0132,222.276,355.8019,218.508,360.0212,214.2888,356.2531,218.79,365.0132" style="stroke:#404040;stroke-width:1.2;"/><text fill="#000000" font-family="sans-serif" font-size="13" lengthAdjust="spacing" textLength="85.2808" x="218.5" y="331.6283">potentialAction</text><text fill="#000000" font-family="sans-serif" font-size="13" lengthAdjust="spacing" textLength="19.5127" x="195.6116" y="354.0558">0..*</text></g><!--link Action to EntryPoint--><g class="link" data-entity-1="ent0007" data-entity-2="ent0008" data-link-type="dependency" data-source-line="60" id="lnk50"><path codeLine="60" d="M207.38,390.1932 C198.73,398.4732 186.84,409.9332 176.5,420.1332 C159.93,436.4832 145.2334,451.3517 133.3834,463.4217" fill="none" id="Action-to-EntryPoint" style="stroke:#404040;stroke-width:1.2;"/><polygon fill="#404040" points="129.18,467.7032,138.3395,464.0833,132.6829,464.1353,132.6308,458.4787,129.18,467.7032" style="stroke:#404040;stroke-width:1.2;"/><text fill="#000000" font-family="sans-serif" font-size="13" lengthAdjust="spacing" textLength="33.2427" x="177.5" y="434.6283">target</text><text fill="#000000" font-family="sans-serif" font-size="13" lengthAdjust="spacing" textLength="7.23" x="125.274" y="457.2679">1</text></g><!--link Action to ActionResult--><g class="link" data-entity-1="ent0007" data-entity-2="ent0009" data-link-type="dependency" data-source-line="61" id="lnk51"><path codeLine="61" d="M219.5,390.2232 C219.5,409.5932 219.5,442.3732 219.5,461.8732" fill="none" id="Action-to-ActionResult" style="stroke:#404040;stroke-width:1.2;"/><polygon fill="#404040" points="219.5,467.8732,223.5,458.8732,219.5,462.8732,215.5,458.8732,219.5,467.8732" style="stroke:#404040;stroke-width:1.2;"/><text fill="#000000" font-family="sans-serif" font-size="13" lengthAdjust="spacing" textLength="31.7891" x="220.5" y="434.6283">result</text><text fill="#000000" font-family="sans-serif" font-size="13" lengthAdjust="spacing" textLength="21.6836" x="194.4283" y="457.2448">0..1</text></g><!--link Action to PropertyValueSpecification--><g class="link" data-entity-1="ent0007" data-entity-2="ent0010" data-link-type="dependency" data-source-line="62" id="lnk52"><path codeLine="62" d="M236.36,390.2232 C264.57,409.5932 316.0654,444.9746 344.4354,464.4746" fill="none" id="Action-to-PropertyValueSpecification" style="stroke:#404040;stroke-width:1.2;"/><polygon fill="#404040" points="349.38,467.8732,344.2289,459.4788,345.2595,465.041,339.6973,466.0716,349.38,467.8732" style="stroke:#404040;stroke-width:1.2;"/><text fill="#000000" font-family="sans-serif" font-size="13" lengthAdjust="spacing" textLength="61.4326" x="303.5" y="434.6283">queryInput</text><text fill="#000000" font-family="sans-serif" font-size="13" lengthAdjust="spacing" textLength="19.5127" x="319.9832" y="457.2448">0..*</text></g><!--link Contributor to Agent--><g class="link" data-entity-1="ent0015" data-entity-2="ent0011" data-link-type="dependency" data-source-line="63" id="lnk53"><path codeLine="63" d="M673.9,232.4232 C662.17,253.2732 636.84,297.9632 614.5,335.1332 C608.37,345.3332 604.3916,351.7315 599.1216,360.0115" fill="none" id="Contributor-to-Agent" style="stroke:#404040;stroke-width:1.2;"/><polygon fill="#404040" points="595.9,365.0732,604.107,359.6284,598.5847,360.8551,597.358,355.3329,595.9,365.0732" style="stroke:#404040;stroke-width:1.2;"/><text fill="#000000" font-family="sans-serif" font-size="13" lengthAdjust="spacing" textLength="61.4199" x="658.5" y="280.1283">contributor</text><text fill="#000000" font-family="sans-serif" font-size="13" lengthAdjust="spacing" textLength="21.6836" x="603.3506" y="354.1405">0..1</text></g><!--link MonetaryGrant to Agent--><g class="link" data-entity-1="ent0020" data-entity-2="ent0011" data-link-type="dependency" data-source-line="64" id="lnk54"><path codeLine="64" d="M814.16,232.3632 C768.83,261.3432 656.975,332.8511 611.775,361.7511" fill="none" id="MonetaryGrant-to-Agent" style="stroke:#404040;stroke-width:1.2;"/><polygon fill="#404040" points="606.72,364.9832,616.4573,363.5051,610.9325,362.2898,612.1478,356.765,606.72,364.9832" style="stroke:#404040;stroke-width:1.2;"/><text fill="#000000" font-family="sans-serif" font-size="13" lengthAdjust="spacing" textLength="36.8608" x="767.5" y="280.1283">funder</text><text fill="#000000" font-family="sans-serif" font-size="13" lengthAdjust="spacing" textLength="19.5127" x="615.2327" y="377.0937">0..*</text></g><!--link CatalogRecord to Agent--><g class="link" data-entity-1="ent0023" data-entity-2="ent0011" data-link-type="dependency" data-source-line="66" id="lnk56"><path codeLine="66" d="M1585.36,177.1432 C1554.61,191.9732 1498.23,217.5932 1447.5,232.1332 C1118.6,326.4232 706.0871,366.3891 613.2571,374.5291" fill="none" id="CatalogRecord-to-Agent" style="stroke:#404040;stroke-width:1.2;"/><polygon fill="#404040" points="607.28,375.0532,616.595,378.2518,612.2609,374.6165,615.8962,370.2823,607.28,375.0532" style="stroke:#404040;stroke-width:1.2;"/><text fill="#000000" font-family="sans-serif" font-size="13" lengthAdjust="spacing" textLength="60.6963" x="1321.5" y="280.1283">maintainer</text><text fill="#000000" font-family="sans-serif" font-size="13" lengthAdjust="spacing" textLength="21.6836" x="615.1926" y="390.0396">0..1</text></g><!--link VariableMeasured to DefinedTerm--><g class="link" data-entity-1="ent0024" data-entity-2="ent0016" data-link-type="dependency" data-source-line="67" id="lnk57"><path codeLine="67" d="M1431.09,177.1932 C1342.59,198.7632 1159.7493,243.3424 1079.1293,262.9924" fill="none" id="VariableMeasured-to-DefinedTerm" style="stroke:#404040;stroke-width:1.2;"/><polygon fill="#404040" points="1073.3,264.4132,1082.9912,266.1682,1078.1578,263.2292,1081.0968,258.3957,1073.3,264.4132" style="stroke:#404040;stroke-width:1.2;"/><text fill="#000000" font-family="sans-serif" font-size="13" lengthAdjust="spacing" textLength="140.188" x="1298.5" y="225.1283">measurementTechnique</text><text fill="#000000" font-family="sans-serif" font-size="13" lengthAdjust="spacing" textLength="21.6836" x="1081.3267" y="258.912">0..1</text></g><?plantuml-src XLPBRjim4Dth58Ip2-0WdwOeXAA0Orj15a7Sn4ZN53MssKYaIb9stG_GG_I4FKb7ecHHbE8W2C1vUlFXy0rfmqqAv8PgpcPSCxa5jIV__lmbvMhBOHTiU0A4SSLIi6l8ShCd6MGnA1te5ovogcX6z8OcSiV5cgnegi7vCb5AxfORpbu4Q4qkpYwTZoobYFqCYALDPIeLENbtNluXU2DL0if78odC4_y1vE8o-1q4DDP6KMRgOAEfp7AfkO65aYkUmeXGJNoGd4JpQ3wT1xNJZ1ggmLJSUdsW-0acjOqzCuh7XU5IL8v37yZ9xFry4drm4ytaJgII9eTi3U1NzGNYoUAkejab4gRHrJHg21FM9cT3wUR2gFr2Sc6trfe-qRe_WYvIuyIpW9yMcvY3CljdcXRmb0FZAyxeePJNFn-ozdgwXhh4QkLNjq2rDS6hfK-OeYOmNBjJ5_393sfD1V_H5km2Gv6hmvJg4BYsUsSBAouWMOBAxD6sDbAle-lvLKEzIt2Ns1QmGLkpTov9mikoQDfqrNQf1_kEZx021O9P_HyidtOl1HYgzhUArfth8Bs3K79RAcFBwq9Se3TKeFWMaaZ9fXy7kzTbd89KhX-1uSZRFhk87_cPAaxZ5Ew1waA1zV11l-TFEHumJUVVJQEr3kBJbtZNITNXTo7VuND1K-n2dRvow487Xy6BukElyRXp6noXsTiWiBDI8NOiNCGLTT3SQUFn9p8wFpix7TM35f8SJn2lTZN86QeW98bZ7WlD552Sao6AEqP8RAqU-S8fjOXJhZV3jNPr6v9L8H9ya8Qe7T66P4VrBGXGr41oinzoS9LRyHsWoyTgkyeDYIxYhy3CmseuSdj7XEG5zZjqqaFCTeH3ad860f_PDmDcLdaPzcy9R2FujwBrEaMLr5wzsGd9reE6tBe3X5krzhJy0K7NWvcy6Gg9gO5ZJjuSXMH3THShTnXqtj9ZKgzVKvV2QctdigmBDs6HeFxG7AxpWcBfLAt1T2YrODt7CoIgMlWyAyJNNigGu56f_Pt82nEuqp8m5-xuTCTWe0dbN60BkYfrWZRj3mcDPPdxDM8JCAFO3Vp7e3qPkN7V5kP_?></g></svg>