<svg xmlns="http://www.w3.org/2000/svg" xmlns:xlink="http://www.w3.org/1999/xlink" contentStyleType="text/css" data-diagram-type="CLASS" height="497px" preserveAspectRatio="none" style="width:1474px;height:497px;background:#FFFFFF;" version="1.1" viewBox="0 0 1474 497" width="1474px" zoomAndPan="magnify"><?plantuml 1.2026.3?><defs/><g><g class="title" data-source-line="1"><text fill="#000000" font-family="sans-serif" font-size="14" font-weight="700" lengthAdjust="spacing" textLength="71.5723" x="698.1826" y="24.5332">XsdAnyUri</text></g><!--class XsdAnyUri--><g class="entity" data-qualified-name="XsdAnyUri" data-source-line="16" id="ent0002"><rect fill="#FAE5D3" height="93.0156" rx="2.5" ry="2.5" style="stroke:#404040;stroke-width:0.5;" width="192.1426" x="523.5" y="390.6094"/><text fill="#000000" font-family="sans-serif" font-size="36" font-style="italic" lengthAdjust="spacing" textLength="190.1426" x="524.5" y="432.9805">&#171;dataType&#187;</text><text fill="#000000" font-family="sans-serif" font-size="30" lengthAdjust="spacing" textLength="141.709" x="548.7168" y="472.0332">XsdAnyUri</text></g><!--class Dataset--><g class="entity" data-qualified-name="Dataset" data-source-line="17" id="ent0003"><rect fill="#EEEEEE" height="47.7344" rx="2.5" ry="2.5" style="stroke:#404040;stroke-width:0.5;" width="109.3887" x="7" y="45.6094"/><text fill="#000000" font-family="sans-serif" font-size="30" lengthAdjust="spacing" textLength="103.3887" x="10" y="81.752">Dataset</text></g><!--class CatalogRecord--><g class="entity" data-qualified-name="CatalogRecord" data-source-line="19" id="ent0005"><rect fill="#EEEEEE" height="47.7344" rx="2.5" ry="2.5" style="stroke:#404040;stroke-width:0.5;" width="206.1123" x="136.5" y="45.6094"/><text fill="#000000" font-family="sans-serif" font-size="30" lengthAdjust="spacing" textLength="200.1123" x="139.5" y="81.752">CatalogRecord</text></g><!--class ArchivePart--><g class="entity" data-qualified-name="ArchivePart" data-source-line="21" id="ent0007"><rect fill="#EEEEEE" height="47.7344" rx="2.5" ry="2.5" style="stroke:#404040;stroke-width:0.5;" width="161.0537" x="376" y="45.6094"/><text fill="#000000" font-family="sans-serif" font-size="30" lengthAdjust="spacing" textLength="155.0537" x="379" y="81.752">ArchivePart</text></g><!--class DefinedTerm--><g class="entity" data-qualified-name="DefinedTerm" data-source-line="23" id="ent0009"><rect fill="#EEEEEE" height="47.7344" rx="2.5" ry="2.5" style="stroke:#404040;stroke-width:0.5;" width="179.3936" x="625" y="45.6094"/><text fill="#000000" font-family="sans-serif" font-size="30" lengthAdjust="spacing" textLength="173.3936" x="628" y="81.752">DefinedTerm</text></g><!--class AbstractMapping--><g class="entity" data-qualified-name="AbstractMapping" data-source-line="26" id="ent0012"><rect fill="#EEEEEE" height="47.7344" rx="2.5" ry="2.5" style="stroke:#404040;stroke-width:0.5;" width="231.1172" x="984" y="45.6094"/><text fill="#000000" font-family="sans-serif" font-size="30" font-style="italic" lengthAdjust="spacing" textLength="225.1172" x="987" y="81.752">AbstractMapping</text></g><!--class AbstractDataSet--><g class="entity" data-qualified-name="AbstractDataSet" data-source-line="28" id="ent0014"><rect fill="#EEEEEE" height="47.7344" rx="2.5" ry="2.5" style="stroke:#404040;stroke-width:0.5;" width="224.4375" x="1235.5" y="45.6094"/><text fill="#000000" font-family="sans-serif" font-size="30" font-style="italic" lengthAdjust="spacing" textLength="218.4375" x="1238.5" y="81.752">AbstractDataSet</text></g><!--link Dataset to XsdAnyUri--><g class="link" data-entity-1="ent0003" data-entity-2="ent0002" data-link-type="dependency" data-source-line="18" id="lnk4"><path codeLine="18" d="M58.35,93.9094 C54.3,134.0494 52.2,216.6194 94.5,265.6094 C202.69,390.9194 397.946,424.311 517.386,433.061" fill="none" id="Dataset-to-XsdAnyUri" style="stroke:#404040;stroke-width:1.2;stroke-dasharray:7,7;"/><polygon fill="#404040" points="523.37,433.4994,514.6863,428.8525,518.3834,433.1341,514.1018,436.8311,523.37,433.4994" style="stroke:#404040;stroke-width:1.2;"/><text fill="#000000" font-family="sans-serif" font-size="36" lengthAdjust="spacing" textLength="136.0723" x="95.5" y="256.9805">identifier</text></g><!--link CatalogRecord to XsdAnyUri--><g class="link" data-entity-1="ent0005" data-entity-2="ent0002" data-link-type="dependency" data-source-line="20" id="lnk6"><path codeLine="20" d="M234.67,93.7994 C227.87,133.0394 220.03,213.3594 256.5,265.6094 C318.26,354.1094 432.4817,396.5243 517.5917,417.3343" fill="none" id="CatalogRecord-to-XsdAnyUri" style="stroke:#404040;stroke-width:1.2;stroke-dasharray:7,7;"/><polygon fill="#404040" points="523.42,418.7594,515.6276,412.7362,518.5631,417.5718,513.7275,420.5073,523.42,418.7594" style="stroke:#404040;stroke-width:1.2;"/><text fill="#000000" font-family="sans-serif" font-size="36" lengthAdjust="spacing" textLength="190.0547" x="257.5" y="256.9805">conformsTo</text></g><!--link ArchivePart to XsdAnyUri--><g class="link" data-entity-1="ent0007" data-entity-2="ent0002" data-link-type="dependency" data-source-line="22" id="lnk8"><path codeLine="22" d="M452.86,93.9094 C448.01,131.6194 442.58,207.6394 466.5,265.6094 C486.83,314.8794 523.3401,355.2547 557.7701,386.3947" fill="none" id="ArchivePart-to-XsdAnyUri" style="stroke:#404040;stroke-width:1.2;stroke-dasharray:7,7;"/><polygon fill="#404040" points="562.22,390.4194,558.2283,381.4157,558.5117,387.0655,552.862,387.3489,562.22,390.4194" style="stroke:#404040;stroke-width:1.2;"/><text fill="#000000" font-family="sans-serif" font-size="36" lengthAdjust="spacing" textLength="136.0723" x="467.5" y="256.9805">identifier</text></g><!--link DefinedTerm to XsdAnyUri--><g class="link" data-entity-1="ent0009" data-entity-2="ent0002" data-link-type="dependency" data-source-line="24" id="lnk10"><path codeLine="24" d="M693.24,94.0994 C669.91,121.6094 633.85,169.6794 619.5,218.6094 C602.65,276.0394 605.9382,339.7742 611.4382,384.5342" fill="none" id="DefinedTerm-to-XsdAnyUri" style="stroke:#404040;stroke-width:1.2;stroke-dasharray:7,7;"/><polygon fill="#404040" points="612.17,390.4894,615.0425,381.0687,611.5602,385.5267,607.1022,382.0444,612.17,390.4894" style="stroke:#404040;stroke-width:1.2;"/><text fill="#000000" font-family="sans-serif" font-size="36" lengthAdjust="spacing" textLength="136.0723" x="620.5" y="256.9805">identifier</text></g><!--link DefinedTerm to XsdAnyUri--><g class="link" data-entity-1="ent0009" data-entity-2="ent0002" data-link-type="dependency" data-source-line="25" id="lnk11"><path codeLine="25" d="M727.9,93.6294 C747.64,130.6294 779.97,205.2894 758.5,265.6094 C741.21,314.1794 707.7641,354.7183 675.9841,386.1783" fill="none" id="DefinedTerm-to-XsdAnyUri-1" style="stroke:#404040;stroke-width:1.2;stroke-dasharray:7,7;"/><polygon fill="#404040" points="671.72,390.3994,680.9302,386.9104,675.2734,386.8818,675.302,381.225,671.72,390.3994" style="stroke:#404040;stroke-width:1.2;"/><text fill="#000000" font-family="sans-serif" font-size="36" lengthAdjust="spacing" textLength="290.127" x="766.5" y="256.9805">inDefinedTermSet</text></g><!--link AbstractMapping to XsdAnyUri--><g class="link" data-entity-1="ent0012" data-entity-2="ent0002" data-link-type="dependency" data-source-line="27" id="lnk13"><path codeLine="27" d="M1101.82,93.7294 C1104.51,133.5894 1104.12,215.7394 1062.5,265.6094 C975.64,369.6894 823.4191,409.4899 721.4691,425.2999" fill="none" id="AbstractMapping-to-XsdAnyUri" style="stroke:#404040;stroke-width:1.2;stroke-dasharray:7,7;"/><polygon fill="#404040" points="715.54,426.2194,725.0467,428.7929,720.4809,425.4532,723.8207,420.8874,715.54,426.2194" style="stroke:#404040;stroke-width:1.2;"/><text fill="#000000" font-family="sans-serif" font-size="36" lengthAdjust="spacing" textLength="136.0723" x="1088.5" y="256.9805">identifier</text></g><!--link AbstractDataSet to XsdAnyUri--><g class="link" data-entity-1="ent0014" data-entity-2="ent0002" data-link-type="dependency" data-source-line="29" id="lnk15"><path codeLine="29" d="M1340.08,93.7394 C1325.71,134.7494 1290.16,220.1394 1230.5,265.6094 C1076.23,383.1894 851.0071,419.1555 721.7471,430.4855" fill="none" id="AbstractDataSet-to-XsdAnyUri" style="stroke:#404040;stroke-width:1.2;stroke-dasharray:7,7;"/><polygon fill="#404040" points="715.77,431.0094,725.0849,434.2082,720.7509,430.5728,724.3864,426.2388,715.77,431.0094" style="stroke:#404040;stroke-width:1.2;"/><text fill="#000000" font-family="sans-serif" font-size="36" lengthAdjust="spacing" textLength="136.0723" x="1274.5" y="256.9805">identifier</text></g><?plantuml-src XP9DRy8m38Rl-HKMt163iSE4a3e-RfEcqKcxXiIb4MrIEM68JVll2osbQQTrpIL-7B_sczGfbo6yMndfynifbYg981I93AizveKxGuxv3iaoUr2wuCHpi2cNvgJq7XAUMGmo4P4vnQaI1utMmjre4YI9wuF50YQpSK2raLZI44fC-35p6wFTLdqYJ1-2fCYur_vYKBLRcimG3E_7b-NXao69rAMXb2zqZjJkwB31O_RDM2KzkDt90BXjRWZcSyaTZyy5BXOmt4JhsMfQrwnyng8hAwvx6AxBZzNnQBG8r1x1Nx9sAb58jShIdypC_XM5Tr5gjSXDiKsxkiBen51kOrFhHYHIzO4ldAe9W_Yc6RB_9rrXeZJA62clF3TnupjWFOgzntIGtQ9ZV6STSU6WTdQDdtbH-5-oSjTcZSCExvdfhpQNfznUdxd3VhMfUK-R7m00?></g></svg>