<svg xmlns="http://www.w3.org/2000/svg" xmlns:xlink="http://www.w3.org/1999/xlink" contentStyleType="text/css" data-diagram-type="CLASS" height="202px" preserveAspectRatio="none" style="width:1467px;height:202px;background:#FFFFFF;" version="1.1" viewBox="0 0 1467 202" width="1467px" zoomAndPan="magnify"><?plantuml 1.2026.3?><defs/><g><g class="title" data-source-line="1"><text fill="#000000" font-family="sans-serif" font-size="14" font-weight="700" lengthAdjust="spacing" textLength="71.5723" x="694.4863" y="24.5332">XsdAnyUri</text></g><!--class XsdAnyUri--><g class="entity" data-qualified-name="XsdAnyUri" data-source-line="12" id="ent0002"><rect fill="#FAE5D3" height="40.1875" rx="2.5" ry="2.5" style="stroke:#404040;stroke-width:0.5;" width="65.3809" x="703" y="148.6094"/><text fill="#000000" font-family="sans-serif" font-size="12" font-style="italic" lengthAdjust="spacing" textLength="63.3809" x="704" y="166.0664">&#171;dataType&#187;</text><text fill="#000000" font-family="sans-serif" font-size="12" lengthAdjust="spacing" textLength="56.6836" x="707.3486" y="181.1602">XsdAnyUri</text></g><!--class VariableMeasured--><g class="entity" data-qualified-name="VariableMeasured" data-source-line="13" id="ent0003"><rect fill="#EEEEEE" height="25.0938" rx="2.5" ry="2.5" style="stroke:#404040;stroke-width:0.5;" width="103.3887" x="7" y="45.6094"/><text fill="#000000" font-family="sans-serif" font-size="12" lengthAdjust="spacing" textLength="97.3887" x="10" y="63.0664">VariableMeasured</text></g><!--class DataDownload--><g class="entity" data-qualified-name="DataDownload" data-source-line="15" id="ent0005"><rect fill="#EEEEEE" height="25.0938" rx="2.5" ry="2.5" style="stroke:#404040;stroke-width:0.5;" width="84.7148" x="158" y="45.6094"/><text fill="#000000" font-family="sans-serif" font-size="12" lengthAdjust="spacing" textLength="78.7148" x="161" y="63.0664">DataDownload</text></g><!--class Concept--><g class="entity" data-qualified-name="Concept" data-source-line="18" id="ent0008"><rect fill="#EEEEEE" height="25.0938" rx="2.5" ry="2.5" style="stroke:#404040;stroke-width:0.5;" width="50.6953" x="290" y="45.6094"/><text fill="#000000" font-family="sans-serif" font-size="12" lengthAdjust="spacing" textLength="44.6953" x="293" y="63.0664">Concept</text></g><!--class Identifier--><g class="entity" data-qualified-name="Identifier" data-source-line="20" id="ent0010"><rect fill="#EEEEEE" height="25.0938" rx="2.5" ry="2.5" style="stroke:#404040;stroke-width:0.5;" width="52.0254" x="388.5" y="45.6094"/><text fill="#000000" font-family="sans-serif" font-size="12" lengthAdjust="spacing" textLength="46.0254" x="391.5" y="63.0664">Identifier</text></g><!--class DefinedTerm--><g class="entity" data-qualified-name="DefinedTerm" data-source-line="22" id="ent0012"><rect fill="#EEEEEE" height="25.0938" rx="2.5" ry="2.5" style="stroke:#404040;stroke-width:0.5;" width="75.3574" x="479" y="45.6094"/><text fill="#000000" font-family="sans-serif" font-size="12" lengthAdjust="spacing" textLength="69.3574" x="482" y="63.0664">DefinedTerm</text></g><!--class Dataset--><g class="entity" data-qualified-name="Dataset" data-source-line="25" id="ent0015"><rect fill="#EEEEEE" height="25.0938" rx="2.5" ry="2.5" style="stroke:#404040;stroke-width:0.5;" width="47.3555" x="591" y="45.6094"/><text fill="#000000" font-family="sans-serif" font-size="12" lengthAdjust="spacing" textLength="41.3555" x="594" y="63.0664">Dataset</text></g><!--class AbstractGeometry--><g class="entity" data-qualified-name="AbstractGeometry" data-source-line="27" id="ent0017"><rect fill="#EEEEEE" height="25.0938" rx="2.5" ry="2.5" style="stroke:#404040;stroke-width:0.5;" width="102.6973" x="673" y="45.6094"/><text fill="#000000" font-family="sans-serif" font-size="12" font-style="italic" lengthAdjust="spacing" textLength="96.6973" x="676" y="63.0664">AbstractGeometry</text></g><!--class QualityMeasure--><g class="entity" data-qualified-name="QualityMeasure" data-source-line="29" id="ent0019"><rect fill="#EEEEEE" height="25.0938" rx="2.5" ry="2.5" style="stroke:#404040;stroke-width:0.5;" width="90.0352" x="811.5" y="45.6094"/><text fill="#000000" font-family="sans-serif" font-size="12" lengthAdjust="spacing" textLength="84.0352" x="814.5" y="63.0664">QualityMeasure</text></g><!--class WebAPI--><g class="entity" data-qualified-name="WebAPI" data-source-line="32" id="ent0022"><rect fill="#EEEEEE" height="25.0938" rx="2.5" ry="2.5" style="stroke:#404040;stroke-width:0.5;" width="50.0156" x="936.5" y="45.6094"/><text fill="#000000" font-family="sans-serif" font-size="12" lengthAdjust="spacing" textLength="44.0156" x="939.5" y="63.0664">WebAPI</text></g><!--class Organization--><g class="entity" data-qualified-name="Organization" data-source-line="34" id="ent0024"><rect fill="#EEEEEE" height="25.0938" rx="2.5" ry="2.5" style="stroke:#404040;stroke-width:0.5;" width="74.0391" x="1021.5" y="45.6094"/><text fill="#000000" font-family="sans-serif" font-size="12" lengthAdjust="spacing" textLength="68.0391" x="1024.5" y="63.0664">Organization</text></g><!--class AdditionalProperty--><g class="entity" data-qualified-name="AdditionalProperty" data-source-line="36" id="ent0026"><rect fill="#EEEEEE" height="25.0938" rx="2.5" ry="2.5" style="stroke:#404040;stroke-width:0.5;" width="104.0566" x="1130.5" y="45.6094"/><text fill="#000000" font-family="sans-serif" font-size="12" lengthAdjust="spacing" textLength="98.0566" x="1133.5" y="63.0664">AdditionalProperty</text></g><!--class Reference--><g class="entity" data-qualified-name="Reference" data-source-line="38" id="ent0028"><rect fill="#EEEEEE" height="25.0938" rx="2.5" ry="2.5" style="stroke:#404040;stroke-width:0.5;" width="61.3652" x="1270" y="45.6094"/><text fill="#000000" font-family="sans-serif" font-size="12" lengthAdjust="spacing" textLength="55.3652" x="1273" y="63.0664">Reference</text></g><!--class CatalogRecord--><g class="entity" data-qualified-name="CatalogRecord" data-source-line="40" id="ent0030"><rect fill="#EEEEEE" height="25.0938" rx="2.5" ry="2.5" style="stroke:#404040;stroke-width:0.5;" width="86.0449" x="1366.5" y="45.6094"/><text fill="#000000" font-family="sans-serif" font-size="12" lengthAdjust="spacing" textLength="80.0449" x="1369.5" y="63.0664">CatalogRecord</text></g><!--link VariableMeasured to XsdAnyUri--><g class="link" data-entity-1="ent0003" data-entity-2="ent0002" data-link-type="dependency" data-source-line="14" id="lnk4"><path codeLine="14" d="M59.83,70.9694 C62.09,84.8894 68.04,107.4794 83.5,118.6094 C134.05,155.0094 571.2509,164.9079 696.6009,167.0279" fill="none" id="VariableMeasured-to-XsdAnyUri" style="stroke:#404040;stroke-width:1.2;stroke-dasharray:7,7;"/><polygon fill="#404040" points="702.6,167.1294,693.6689,162.9778,697.6007,167.0448,693.5336,170.9766,702.6,167.1294" style="stroke:#404040;stroke-width:1.2;"/><text fill="#000000" font-family="sans-serif" font-size="13" lengthAdjust="spacing" textLength="58.5317" x="84.5" y="115.1045">propertyId</text></g><!--link DataDownload to XsdAnyUri--><g class="link" data-entity-1="ent0005" data-entity-2="ent0002" data-link-type="dependency" data-source-line="16" id="lnk6"><path codeLine="16" d="M181.34,70.8094 C163.36,83.1894 141.21,103.0694 155.5,118.6094 C192.68,159.0694 579.3503,166.0875 696.6103,167.2975" fill="none" id="DataDownload-to-XsdAnyUri" style="stroke:#404040;stroke-width:1.2;stroke-dasharray:7,7;"/><polygon fill="#404040" points="702.61,167.3594,693.6518,163.2667,697.6103,167.3078,693.5692,171.2663,702.61,167.3594" style="stroke:#404040;stroke-width:1.2;"/><text fill="#000000" font-family="sans-serif" font-size="13" lengthAdjust="spacing" textLength="59.249" x="156.5" y="115.1045">contentUrl</text></g><!--link DataDownload to XsdAnyUri--><g class="link" data-entity-1="ent0005" data-entity-2="ent0002" data-link-type="dependency" data-source-line="17" id="lnk7"><path codeLine="17" d="M217.79,70.7194 C239.4,84.6094 278.01,107.3794 314.5,118.6094 C454.46,161.6694 625.2201,167.3543 697.0001,167.7743" fill="none" id="DataDownload-to-XsdAnyUri-1" style="stroke:#404040;stroke-width:1.2;stroke-dasharray:7,7;"/><polygon fill="#404040" points="703,167.8094,694.0236,163.7568,698.0001,167.7801,693.9767,171.7566,703,167.8094" style="stroke:#404040;stroke-width:1.2;"/><text fill="#000000" font-family="sans-serif" font-size="13" lengthAdjust="spacing" textLength="14.4473" x="315.5" y="115.1045">url</text></g><!--link Concept to XsdAnyUri--><g class="link" data-entity-1="ent0008" data-entity-2="ent0002" data-link-type="dependency" data-source-line="19" id="lnk9"><path codeLine="19" d="M320.3,70.9894 C326.61,84.9194 339.09,107.5094 357.5,118.6094 C415.45,153.5394 616.0335,163.7237 696.8035,166.4937" fill="none" id="Concept-to-XsdAnyUri" style="stroke:#404040;stroke-width:1.2;stroke-dasharray:7,7;"/><polygon fill="#404040" points="702.8,166.6994,693.9424,162.3933,697.8029,166.528,693.6682,170.3886,702.8,166.6994" style="stroke:#404040;stroke-width:1.2;"/><text fill="#000000" font-family="sans-serif" font-size="13" lengthAdjust="spacing" textLength="57.8081" x="358.5" y="115.1045">inScheme</text></g><!--link Identifier to XsdAnyUri--><g class="link" data-entity-1="ent0010" data-entity-2="ent0002" data-link-type="dependency" data-source-line="21" id="lnk11"><path codeLine="21" d="M415.8,70.7294 C417.99,84.4194 423.72,106.7694 438.5,118.6094 C478.88,150.9594 628.4683,162.2633 696.8983,165.8733" fill="none" id="Identifier-to-XsdAnyUri" style="stroke:#404040;stroke-width:1.2;stroke-dasharray:7,7;"/><polygon fill="#404040" points="702.89,166.1894,694.1132,161.7208,697.8969,165.926,693.6918,169.7097,702.89,166.1894" style="stroke:#404040;stroke-width:1.2;"/><text fill="#000000" font-family="sans-serif" font-size="13" lengthAdjust="spacing" textLength="14.4473" x="439.5" y="115.1045">url</text></g><!--link DefinedTerm to XsdAnyUri--><g class="link" data-entity-1="ent0012" data-entity-2="ent0002" data-link-type="dependency" data-source-line="23" id="lnk13"><path codeLine="23" d="M495.56,70.7694 C476.64,82.7894 453.7,102.0594 467.5,118.6094 C497.11,154.1194 631.7951,163.7225 696.6351,166.3925" fill="none" id="DefinedTerm-to-XsdAnyUri" style="stroke:#404040;stroke-width:1.2;stroke-dasharray:7,7;"/><polygon fill="#404040" points="702.63,166.6394,693.8022,162.2725,697.6342,166.4337,693.473,170.2657,702.63,166.6394" style="stroke:#404040;stroke-width:1.2;"/><text fill="#000000" font-family="sans-serif" font-size="13" lengthAdjust="spacing" textLength="49.1372" x="468.5" y="115.1045">identifier</text></g><!--link DefinedTerm to XsdAnyUri--><g class="link" data-entity-1="ent0012" data-entity-2="ent0002" data-link-type="dependency" data-source-line="24" id="lnk14"><path codeLine="24" d="M521,71.0494 C526.72,84.6094 537.9,106.4194 554.5,118.6094 C598.98,151.2694 657.9261,161.6005 696.7261,165.2305" fill="none" id="DefinedTerm-to-XsdAnyUri-1" style="stroke:#404040;stroke-width:1.2;stroke-dasharray:7,7;"/><polygon fill="#404040" points="702.7,165.7894,694.1117,160.9684,697.7217,165.3236,693.3665,168.9336,702.7,165.7894" style="stroke:#404040;stroke-width:1.2;"/><text fill="#000000" font-family="sans-serif" font-size="13" lengthAdjust="spacing" textLength="104.7681" x="555.5" y="115.1045">inDefinedTermSet</text></g><!--link Dataset to XsdAnyUri--><g class="link" data-entity-1="ent0015" data-entity-2="ent0002" data-link-type="dependency" data-source-line="26" id="lnk16"><path codeLine="26" d="M631.01,70.9294 C641.93,78.9494 656.41,89.9994 668.5,100.6094 C685.93,115.9094 700.3477,130.3387 713.4977,144.1187" fill="none" id="Dataset-to-XsdAnyUri" style="stroke:#404040;stroke-width:1.2;stroke-dasharray:7,7;"/><polygon fill="#404040" points="717.64,148.4594,714.3204,139.1868,714.1881,144.8421,708.5328,144.7098,717.64,148.4594" style="stroke:#404040;stroke-width:1.2;"/><text fill="#000000" font-family="sans-serif" font-size="13" lengthAdjust="spacing" textLength="14.4473" x="688.5" y="115.1045">url</text></g><!--link AbstractGeometry to XsdAnyUri--><g class="link" data-entity-1="ent0017" data-entity-2="ent0002" data-link-type="dependency" data-source-line="28" id="lnk18"><path codeLine="28" d="M725.68,70.7194 C727.56,89.3094 730.6627,119.9702 732.9527,142.4802" fill="none" id="AbstractGeometry-to-XsdAnyUri" style="stroke:#404040;stroke-width:1.2;stroke-dasharray:7,7;"/><polygon fill="#404040" points="733.56,148.4494,736.6286,139.0907,733.0539,143.475,728.6696,139.9004,733.56,148.4494" style="stroke:#404040;stroke-width:1.2;"/><text fill="#000000" font-family="sans-serif" font-size="13" lengthAdjust="spacing" textLength="17.3291" x="730.5" y="115.1045">crs</text></g><!--link QualityMeasure to XsdAnyUri--><g class="link" data-entity-1="ent0019" data-entity-2="ent0002" data-link-type="dependency" data-source-line="30" id="lnk20"><path codeLine="30" d="M843.55,70.7194 C822.82,89.3094 786.4476,121.9343 761.3376,144.4443" fill="none" id="QualityMeasure-to-XsdAnyUri" style="stroke:#404040;stroke-width:1.2;stroke-dasharray:7,7;"/><polygon fill="#404040" points="756.87,148.4494,766.2415,145.4202,760.593,145.1118,760.9014,139.4634,756.87,148.4494" style="stroke:#404040;stroke-width:1.2;"/><text fill="#000000" font-family="sans-serif" font-size="13" lengthAdjust="spacing" textLength="35.3882" x="807.5" y="115.1045">metric</text></g><!--link QualityMeasure to XsdAnyUri--><g class="link" data-entity-1="ent0019" data-entity-2="ent0002" data-link-type="dependency" data-source-line="31" id="lnk21"><path codeLine="31" d="M858.83,70.8394 C860.71,83.7994 861.6,104.6794 851.5,118.6094 C832.12,145.3294 801.117,156.3709 774.127,161.9209" fill="none" id="QualityMeasure-to-XsdAnyUri-1" style="stroke:#404040;stroke-width:1.2;stroke-dasharray:7,7;"/><polygon fill="#404040" points="768.25,163.1294,777.8712,165.2346,773.1475,162.1223,776.2599,157.3986,768.25,163.1294" style="stroke:#404040;stroke-width:1.2;"/><text fill="#000000" font-family="sans-serif" font-size="13" lengthAdjust="spacing" textLength="20.96" x="859.5" y="115.1045">unit</text></g><!--link WebAPI to XsdAnyUri--><g class="link" data-entity-1="ent0022" data-entity-2="ent0002" data-link-type="dependency" data-source-line="33" id="lnk23"><path codeLine="33" d="M950.11,70.7294 C936.54,83.9794 912.65,105.5194 888.5,118.6094 C849.64,139.6794 806.0948,152.0937 774.1048,159.5137" fill="none" id="WebAPI-to-XsdAnyUri" style="stroke:#404040;stroke-width:1.2;stroke-dasharray:7,7;"/><polygon fill="#404040" points="768.26,160.8694,777.931,162.7324,773.1307,159.7396,776.1235,154.9393,768.26,160.8694" style="stroke:#404040;stroke-width:1.2;"/><text fill="#000000" font-family="sans-serif" font-size="13" lengthAdjust="spacing" textLength="14.4473" x="914.5" y="115.1045">url</text></g><!--link Organization to XsdAnyUri--><g class="link" data-entity-1="ent0024" data-entity-2="ent0002" data-link-type="dependency" data-source-line="35" id="lnk25"><path codeLine="35" d="M1038.54,70.6194 C1015.03,83.7794 974.48,105.2194 937.5,118.6094 C879.48,139.6194 814.7395,153.3357 774.2295,160.8457" fill="none" id="Organization-to-XsdAnyUri" style="stroke:#404040;stroke-width:1.2;stroke-dasharray:7,7;"/><polygon fill="#404040" points="768.33,161.9394,777.9083,164.2318,773.2462,161.028,776.4501,156.3659,768.33,161.9394" style="stroke:#404040;stroke-width:1.2;"/><text fill="#000000" font-family="sans-serif" font-size="13" lengthAdjust="spacing" textLength="14.4473" x="978.5" y="115.1045">url</text></g><!--link AdditionalProperty to XsdAnyUri--><g class="link" data-entity-1="ent0026" data-entity-2="ent0002" data-link-type="dependency" data-source-line="37" id="lnk27"><path codeLine="37" d="M1151.81,70.6094 C1116.1,83.6594 1055.18,104.9094 1001.5,118.6094 C918.46,139.7994 824.567,154.8124 774.097,162.1824" fill="none" id="AdditionalProperty-to-XsdAnyUri" style="stroke:#404040;stroke-width:1.2;stroke-dasharray:7,7;"/><polygon fill="#404040" points="768.16,163.0494,777.6435,165.7069,773.1075,162.3269,776.4876,157.7909,768.16,163.0494" style="stroke:#404040;stroke-width:1.2;"/><text fill="#000000" font-family="sans-serif" font-size="13" lengthAdjust="spacing" textLength="52.0381" x="1062.5" y="115.1045">unitCode</text></g><!--link Reference to XsdAnyUri--><g class="link" data-entity-1="ent0028" data-entity-2="ent0002" data-link-type="dependency" data-source-line="39" id="lnk29"><path codeLine="39" d="M1271.88,70.6994 C1237.29,84.2394 1177.07,106.3494 1123.5,118.6094 C993.78,148.2894 841.2369,160.8537 774.0569,165.2937" fill="none" id="Reference-to-XsdAnyUri" style="stroke:#404040;stroke-width:1.2;stroke-dasharray:7,7;"/><polygon fill="#404040" points="768.07,165.6894,777.3142,169.0871,773.0591,165.3596,776.7866,161.1046,768.07,165.6894" style="stroke:#404040;stroke-width:1.2;"/><text fill="#000000" font-family="sans-serif" font-size="13" lengthAdjust="spacing" textLength="14.4473" x="1188.5" y="115.1045">url</text></g><!--link CatalogRecord to XsdAnyUri--><g class="link" data-entity-1="ent0030" data-entity-2="ent0002" data-link-type="dependency" data-source-line="41" id="lnk31"><path codeLine="41" d="M1377.74,70.6894 C1339.02,84.3394 1271.34,106.6494 1211.5,118.6094 C1046.94,151.4994 851.7043,162.7274 774.1343,166.1174" fill="none" id="CatalogRecord-to-XsdAnyUri" style="stroke:#404040;stroke-width:1.2;stroke-dasharray:7,7;"/><polygon fill="#404040" points="768.14,166.3794,777.3061,169.9826,773.1352,166.1611,776.9568,161.9902,768.14,166.3794" style="stroke:#404040;stroke-width:1.2;"/><text fill="#000000" font-family="sans-serif" font-size="13" lengthAdjust="spacing" textLength="68.6309" x="1283.5" y="115.1045">conformsTo</text></g><?plantuml-src XLJ1Rjim3BtxAuJa7gnTTocA06xI5ZaCxPfqxLMHw8IeB1cKWi0TzkzJR4UMxS1BBk8ZzHv9aNRe5B0FArDTlX4cUvJ0199GK9yXBrp9SiYtG3QndwWBJZndTi-bEQBUiOmh2v4d9JB7pHx5fmPhsTNiEd8AnJts9s5rsC8eGsnwy-tqz-2z8GdKHn-DTcly0dPrdVnDaffZ4fAUC6xR4jZTdUIERye2vdCsVKmVVYo_d-_yveHyg-0dS7iWaDNLFiYc3zKl6JXcitaaTCiACWMGArVoBB3qqajprChmcZm60d47x9CANorezqPgFExW0nhLXT422bS9DkUWTRRxrr6lnHvoE7Eif1V5384gcjOCJ14qaiiICjGWDq1vtO3MRkkFi45UGMKyJ4VUDRZu0Iouq7j_xhJzP5_Adc-j8ovSCw6JjB6VmEJWgAm8-s1W7ZW6Z-gNfs7-TU0ANTaCLSNRXG9h3-vpdfHG_2_ge34qvnsswSkgagoFGQenHzxrcNPSunTtQ7J540E1fmEEiALIuYc6gvTcX-e63-2snKFNfL8NHeQHVeKC2FpuLzp12fGjChPRVcYKsRs2yD-cUiDYfDsp3dfXgJD3kTsOv1y0?></g></svg>