<svg xmlns="http://www.w3.org/2000/svg" xmlns:xlink="http://www.w3.org/1999/xlink" contentStyleType="text/css" data-diagram-type="CLASS" height="599px" preserveAspectRatio="none" style="width:1622px;height:599px;background:#FFFFFF;" version="1.1" viewBox="0 0 1622 599" width="1622px" zoomAndPan="magnify"><?plantuml 1.2026.3?><defs/><g><g class="title" data-source-line="1"><text fill="#000000" font-family="sans-serif" font-size="14" font-weight="700" lengthAdjust="spacing" textLength="207.3818" x="704.0441" y="24.5332">CDIFDataStructure &#8212; overview</text></g><!--class DataStructure--><g class="entity" data-qualified-name="DataStructure" data-source-line="12" id="ent0002"><rect fill="#FEFECE" height="25.0938" rx="2.5" ry="2.5" style="stroke:#404040;stroke-width:0.5;" width="80.0332" x="33.5" y="45.6094"/><text fill="#000000" font-family="sans-serif" font-size="12" lengthAdjust="spacing" textLength="74.0332" x="36.5" y="63.0664">DataStructure</text></g><!--class WideDataStructure--><g class="entity" data-qualified-name="WideDataStructure" data-source-line="13" id="ent0003"><rect fill="#FEFECE" height="25.0938" rx="2.5" ry="2.5" style="stroke:#404040;stroke-width:0.5;" width="107.373" x="654" y="45.6094"/><text fill="#000000" font-family="sans-serif" font-size="12" lengthAdjust="spacing" textLength="101.373" x="657" y="63.0664">WideDataStructure</text></g><!--class LongDataStructure--><g class="entity" data-qualified-name="LongDataStructure" data-source-line="14" id="ent0004"><rect fill="#FEFECE" height="25.0938" rx="2.5" ry="2.5" style="stroke:#404040;stroke-width:0.5;" width="106.7285" x="1208" y="148.6094"/><text fill="#000000" font-family="sans-serif" font-size="12" lengthAdjust="spacing" textLength="100.7285" x="1211" y="166.0664">LongDataStructure</text></g><!--class DimensionalDataStructure--><g class="entity" data-qualified-name="DimensionalDataStructure" data-source-line="15" id="ent0005"><rect fill="#FEFECE" height="25.0938" rx="2.5" ry="2.5" style="stroke:#404040;stroke-width:0.5;" width="146.0625" x="829.5" y="148.6094"/><text fill="#000000" font-family="sans-serif" font-size="12" lengthAdjust="spacing" textLength="140.0625" x="832.5" y="166.0664">DimensionalDataStructure</text></g><!--class DataStructureComponent--><g class="entity" data-qualified-name="DataStructureComponent" data-source-line="16" id="ent0006"><rect fill="#FEFECE" height="25.0938" rx="2.5" ry="2.5" style="stroke:#404040;stroke-width:0.5;" width="142.0723" x="148.5" y="45.6094"/><text fill="#000000" font-family="sans-serif" font-size="12" lengthAdjust="spacing" textLength="136.0723" x="151.5" y="63.0664">DataStructureComponent</text></g><!--class IdentifierComponent--><g class="entity" data-qualified-name="IdentifierComponent" data-source-line="17" id="ent0007"><rect fill="#FEFECE" height="25.0938" rx="2.5" ry="2.5" style="stroke:#404040;stroke-width:0.5;" width="114.0645" x="539.5" y="354.6094"/><text fill="#000000" font-family="sans-serif" font-size="12" lengthAdjust="spacing" textLength="108.0645" x="542.5" y="372.0664">IdentifierComponent</text></g><!--class MeasureComponent--><g class="entity" data-qualified-name="MeasureComponent" data-source-line="18" id="ent0008"><rect fill="#FEFECE" height="25.0938" rx="2.5" ry="2.5" style="stroke:#404040;stroke-width:0.5;" width="114.7266" x="1090" y="354.6094"/><text fill="#000000" font-family="sans-serif" font-size="12" lengthAdjust="spacing" textLength="108.7266" x="1093" y="372.0664">MeasureComponent</text></g><!--class AttributeComponent--><g class="entity" data-qualified-name="AttributeComponent" data-source-line="19" id="ent0009"><rect fill="#FEFECE" height="25.0938" rx="2.5" ry="2.5" style="stroke:#404040;stroke-width:0.5;" width="112.7285" x="985" y="251.6094"/><text fill="#000000" font-family="sans-serif" font-size="12" lengthAdjust="spacing" textLength="106.7285" x="988" y="269.0664">AttributeComponent</text></g><!--class DimensionComponent--><g class="entity" data-qualified-name="DimensionComponent" data-source-line="20" id="ent0010"><rect fill="#FEFECE" height="25.0938" rx="2.5" ry="2.5" style="stroke:#404040;stroke-width:0.5;" width="124.7285" x="739" y="354.6094"/><text fill="#000000" font-family="sans-serif" font-size="12" lengthAdjust="spacing" textLength="118.7285" x="742" y="372.0664">DimensionComponent</text></g><!--class VariableValueComponent--><g class="entity" data-qualified-name="VariableValueComponent" data-source-line="21" id="ent0011"><rect fill="#FEFECE" height="25.0938" rx="2.5" ry="2.5" style="stroke:#404040;stroke-width:0.5;" width="142.7578" x="1226" y="251.6094"/><text fill="#000000" font-family="sans-serif" font-size="12" lengthAdjust="spacing" textLength="136.7578" x="1229" y="269.0664">VariableValueComponent</text></g><!--class VariableDescriptorComponent--><g class="entity" data-qualified-name="VariableDescriptorComponent" data-source-line="22" id="ent0012"><rect fill="#FEFECE" height="25.0938" rx="2.5" ry="2.5" style="stroke:#404040;stroke-width:0.5;" width="166.7461" x="1404" y="251.6094"/><text fill="#000000" font-family="sans-serif" font-size="12" lengthAdjust="spacing" textLength="160.7461" x="1407" y="269.0664">VariableDescriptorComponent</text></g><!--class ComponentPosition--><g class="entity" data-qualified-name="ComponentPosition" data-source-line="23" id="ent0013"><rect fill="#FEFECE" height="25.0938" rx="2.5" ry="2.5" style="stroke:#404040;stroke-width:0.5;" width="110.7305" x="746" y="251.6094"/><text fill="#000000" font-family="sans-serif" font-size="12" lengthAdjust="spacing" textLength="104.7305" x="749" y="269.0664">ComponentPosition</text></g><!--class PrimaryKey--><g class="entity" data-qualified-name="PrimaryKey" data-source-line="24" id="ent0014"><rect fill="#FEFECE" height="25.0938" rx="2.5" ry="2.5" style="stroke:#404040;stroke-width:0.5;" width="68.0098" x="521.5" y="148.6094"/><text fill="#000000" font-family="sans-serif" font-size="12" lengthAdjust="spacing" textLength="62.0098" x="524.5" y="166.0664">PrimaryKey</text></g><!--class PrimaryKeyComponent--><g class="entity" data-qualified-name="PrimaryKeyComponent" data-source-line="25" id="ent0015"><rect fill="#FEFECE" height="25.0938" rx="2.5" ry="2.5" style="stroke:#404040;stroke-width:0.5;" width="130.0488" x="396.5" y="251.6094"/><text fill="#000000" font-family="sans-serif" font-size="12" lengthAdjust="spacing" textLength="124.0488" x="399.5" y="269.0664">PrimaryKeyComponent</text></g><!--class RepresentedVariable--><g class="entity" data-qualified-name="RepresentedVariable" data-source-line="26" id="ent0016"><rect fill="#FEFECE" height="25.0938" rx="2.5" ry="2.5" style="stroke:#404040;stroke-width:0.5;" width="118.7402" x="871" y="457.6094"/><text fill="#000000" font-family="sans-serif" font-size="12" lengthAdjust="spacing" textLength="112.7402" x="874" y="475.0664">RepresentedVariable</text></g><!--class ReferenceVariable--><g class="entity" data-qualified-name="ReferenceVariable" data-source-line="27" id="ent0017"><rect fill="#FEFECE" height="25.0938" rx="2.5" ry="2.5" style="stroke:#404040;stroke-width:0.5;" width="105.3926" x="1245" y="354.6094"/><text fill="#000000" font-family="sans-serif" font-size="12" lengthAdjust="spacing" textLength="99.3926" x="1248" y="372.0664">ReferenceVariable</text></g><!--class DescriptorVariable--><g class="entity" data-qualified-name="DescriptorVariable" data-source-line="28" id="ent0018"><rect fill="#FEFECE" height="25.0938" rx="2.5" ry="2.5" style="stroke:#404040;stroke-width:0.5;" width="104.707" x="1435" y="354.6094"/><text fill="#000000" font-family="sans-serif" font-size="12" lengthAdjust="spacing" textLength="98.707" x="1438" y="372.0664">DescriptorVariable</text></g><!--class InstanceVariable--><g class="entity" data-qualified-name="InstanceVariable" data-source-line="29" id="ent0019"><rect fill="#FEFECE" height="25.0938" rx="2.5" ry="2.5" style="stroke:#404040;stroke-width:0.5;" width="95.3906" x="326" y="45.6094"/><text fill="#000000" font-family="sans-serif" font-size="12" lengthAdjust="spacing" textLength="89.3906" x="329" y="63.0664">InstanceVariable</text></g><!--class SubstantiveValueDomain--><g class="entity" data-qualified-name="SubstantiveValueDomain" data-source-line="30" id="ent0020"><rect fill="#FEFECE" height="25.0938" rx="2.5" ry="2.5" style="stroke:#404040;stroke-width:0.5;" width="140.748" x="755" y="560.6094"/><text fill="#000000" font-family="sans-serif" font-size="12" lengthAdjust="spacing" textLength="134.748" x="758" y="578.0664">SubstantiveValueDomain</text></g><!--class SentinelValueDomain--><g class="entity" data-qualified-name="SentinelValueDomain" data-source-line="31" id="ent0021"><rect fill="#FEFECE" height="25.0938" rx="2.5" ry="2.5" style="stroke:#404040;stroke-width:0.5;" width="121.4063" x="976" y="560.6094"/><text fill="#000000" font-family="sans-serif" font-size="12" lengthAdjust="spacing" textLength="115.4063" x="979" y="578.0664">SentinelValueDomain</text></g><!--class DescriptorValueDomain--><g class="entity" data-qualified-name="DescriptorValueDomain" data-source-line="32" id="ent0022"><rect fill="#FEFECE" height="25.0938" rx="2.5" ry="2.5" style="stroke:#404040;stroke-width:0.5;" width="132.7207" x="7" y="148.6094"/><text fill="#000000" font-family="sans-serif" font-size="12" lengthAdjust="spacing" textLength="126.7207" x="10" y="166.0664">DescriptorValueDomain</text></g><!--class EnumerationDomain--><g class="entity" data-qualified-name="EnumerationDomain" data-source-line="33" id="ent0023"><rect fill="#FEFECE" height="25.0938" rx="2.5" ry="2.5" style="stroke:#404040;stroke-width:0.5;" width="115.3887" x="175" y="148.6094"/><text fill="#000000" font-family="sans-serif" font-size="12" lengthAdjust="spacing" textLength="109.3887" x="178" y="166.0664">EnumerationDomain</text></g><!--link WideDataStructure to IdentifierComponent--><g class="link" data-entity-1="ent0003" data-entity-2="ent0007" data-link-type="dependency" data-source-line="34" id="lnk24"><path codeLine="34" d="M654.13,70.6794 C574.89,91.1994 429.96,142.5294 378.5,251.6094 C345.99,320.5294 458.5028,348.1135 533.4528,359.0435" fill="none" id="WideDataStructure-to-IdentifierComponent" style="stroke:#404040;stroke-width:1.2;"/><polygon fill="#404040" points="539.39,359.9094,531.0614,354.6525,534.4423,359.1879,529.907,362.5688,539.39,359.9094" style="stroke:#404040;stroke-width:1.2;"/><text fill="#000000" font-family="sans-serif" font-size="13" lengthAdjust="spacing" textLength="20.96" x="409.5" y="218.1045">has</text><text fill="#000000" font-family="sans-serif" font-size="13" lengthAdjust="spacing" textLength="19.5127" x="511.8843" y="373.5235">1..*</text></g><!--link WideDataStructure to MeasureComponent--><g class="link" data-entity-1="ent0003" data-entity-2="ent0008" data-link-type="dependency" data-source-line="35" id="lnk25"><path codeLine="35" d="M761.11,61.6294 C937.57,71.2094 1494.34,112.2294 1588.5,251.6094 C1607.47,279.6894 1594.18,305.0694 1566.5,324.6094 C1504.71,368.2194 1302.62,345.8894 1227.5,354.6094 C1220.25,355.4494 1218.5956,355.6129 1211.0756,356.6329" fill="none" id="WideDataStructure-to-MeasureComponent" style="stroke:#404040;stroke-width:1.2;"/><polygon fill="#404040" points="1205.13,357.4394,1214.586,360.1934,1210.0846,356.7673,1213.5107,352.266,1205.13,357.4394" style="stroke:#404040;stroke-width:1.2;"/><text fill="#000000" font-family="sans-serif" font-size="13" lengthAdjust="spacing" textLength="20.96" x="1556.5" y="218.1045">has</text><text fill="#000000" font-family="sans-serif" font-size="13" lengthAdjust="spacing" textLength="19.5127" x="1212.9374" y="352.9063">1..*</text></g><!--link WideDataStructure to AttributeComponent--><g class="link" data-entity-1="ent0003" data-entity-2="ent0009" data-link-type="dependency" data-source-line="36" id="lnk26"><path codeLine="36" d="M712.87,70.6294 C724.08,93.4894 752.19,144.8994 790.5,173.6094 C848.91,217.3694 924.7784,239.9083 978.9084,251.7383" fill="none" id="WideDataStructure-to-AttributeComponent" style="stroke:#404040;stroke-width:1.2;"/><polygon fill="#404040" points="984.77,253.0194,976.8316,247.19,979.8853,251.9518,975.1235,255.0056,984.77,253.0194" style="stroke:#404040;stroke-width:1.2;"/><text fill="#000000" font-family="sans-serif" font-size="13" lengthAdjust="spacing" textLength="20.96" x="791.5" y="166.6045">has</text><text fill="#000000" font-family="sans-serif" font-size="13" lengthAdjust="spacing" textLength="19.5127" x="957.3345" y="248.0851">0..*</text></g><!--link WideDataStructure to PrimaryKey--><g class="link" data-entity-1="ent0003" data-entity-2="ent0014" data-link-type="dependency" data-source-line="37" id="lnk27"><path codeLine="37" d="M690.06,70.6994 C660.9,90.0694 607.537,125.5283 578.197,145.0283" fill="none" id="WideDataStructure-to-PrimaryKey" style="stroke:#404040;stroke-width:1.2;"/><polygon fill="#404040" points="573.2,148.3494,582.9096,146.699,577.3642,145.5818,578.4814,140.0363,573.2,148.3494" style="stroke:#404040;stroke-width:1.2;"/><text fill="#000000" font-family="sans-serif" font-size="13" lengthAdjust="spacing" textLength="20.96" x="642.5" y="115.1045">has</text><text fill="#000000" font-family="sans-serif" font-size="13" lengthAdjust="spacing" textLength="21.6836" x="555.1677" y="137.721">0..1</text></g><!--link LongDataStructure to IdentifierComponent--><g class="link" data-entity-1="ent0004" data-entity-2="ent0007" data-link-type="dependency" data-source-line="38" id="lnk28"><path codeLine="38" d="M1207.89,170.4594 C1142.98,182.0694 1031.66,206.8894 945.5,251.6094 C899.79,275.3394 902.52,303.5994 855.5,324.6094 C820.37,340.3094 724.7149,352.7217 659.6949,359.7817" fill="none" id="LongDataStructure-to-IdentifierComponent" style="stroke:#404040;stroke-width:1.2;"/><polygon fill="#404040" points="653.73,360.4294,663.1092,363.4345,658.7008,359.8896,662.2456,355.4812,653.73,360.4294" style="stroke:#404040;stroke-width:1.2;"/><text fill="#000000" font-family="sans-serif" font-size="13" lengthAdjust="spacing" textLength="20.96" x="946.5" y="269.6045">has</text><text fill="#000000" font-family="sans-serif" font-size="13" lengthAdjust="spacing" textLength="19.5127" x="661.4716" y="356.242">1..*</text></g><!--link LongDataStructure to VariableDescriptorComponent--><g class="link" data-entity-1="ent0004" data-entity-2="ent0012" data-link-type="dependency" data-source-line="39" id="lnk29"><path codeLine="39" d="M1287.43,173.6994 C1330.9,193.1294 1412.5419,229.6118 1456.0519,249.0518" fill="none" id="LongDataStructure-to-VariableDescriptorComponent" style="stroke:#404040;stroke-width:1.2;"/><polygon fill="#404040" points="1461.53,251.4994,1454.9446,244.176,1456.9649,249.4597,1451.6812,251.4801,1461.53,251.4994" style="stroke:#404040;stroke-width:1.2;"/><text fill="#000000" font-family="sans-serif" font-size="13" lengthAdjust="spacing" textLength="20.96" x="1388.5" y="218.1045">has</text><text fill="#000000" font-family="sans-serif" font-size="13" lengthAdjust="spacing" textLength="19.5127" x="1428.0567" y="240.546">1..*</text></g><!--link LongDataStructure to VariableValueComponent--><g class="link" data-entity-1="ent0004" data-entity-2="ent0011" data-link-type="dependency" data-source-line="40" id="lnk30"><path codeLine="40" d="M1265.63,173.6994 C1272.54,193.0694 1284.3457,226.1976 1291.2957,245.6976" fill="none" id="LongDataStructure-to-VariableValueComponent" style="stroke:#404040;stroke-width:1.2;"/><polygon fill="#404040" points="1293.31,251.3494,1294.0563,241.5288,1291.6314,246.6396,1286.5206,244.2146,1293.31,251.3494" style="stroke:#404040;stroke-width:1.2;"/><text fill="#000000" font-family="sans-serif" font-size="13" lengthAdjust="spacing" textLength="20.96" x="1282.5" y="218.1045">has</text><text fill="#000000" font-family="sans-serif" font-size="13" lengthAdjust="spacing" textLength="19.5127" x="1269.0682" y="240.721">1..*</text></g><!--link LongDataStructure to AttributeComponent--><g class="link" data-entity-1="ent0004" data-entity-2="ent0009" data-link-type="dependency" data-source-line="41" id="lnk31"><path codeLine="41" d="M1236.26,173.6994 C1193.94,193.1294 1114.5829,229.5563 1072.2329,248.9963" fill="none" id="LongDataStructure-to-AttributeComponent" style="stroke:#404040;stroke-width:1.2;"/><polygon fill="#404040" points="1066.78,251.4994,1076.6281,251.3801,1071.3241,249.4135,1073.2907,244.1095,1066.78,251.4994" style="stroke:#404040;stroke-width:1.2;"/><text fill="#000000" font-family="sans-serif" font-size="13" lengthAdjust="spacing" textLength="20.96" x="1165.5" y="218.1045">has</text><text fill="#000000" font-family="sans-serif" font-size="13" lengthAdjust="spacing" textLength="19.5127" x="1054.451" y="240.546">0..*</text></g><!--link DimensionalDataStructure to IdentifierComponent--><g class="link" data-entity-1="ent0005" data-entity-2="ent0007" data-link-type="dependency" data-source-line="42" id="lnk32"><path codeLine="42" d="M829.48,170.7394 C796.11,176.7494 756.9,186.8294 724.5,203.6094 C658.49,237.7994 617.9895,317.4621 603.9695,348.8121" fill="none" id="DimensionalDataStructure-to-IdentifierComponent" style="stroke:#404040;stroke-width:1.2;"/><polygon fill="#404040" points="601.52,354.2894,608.8457,347.7065,603.5612,349.725,601.5427,344.4405,601.52,354.2894" style="stroke:#404040;stroke-width:1.2;"/><text fill="#000000" font-family="sans-serif" font-size="13" lengthAdjust="spacing" textLength="20.96" x="665.5" y="269.6045">has</text><text fill="#000000" font-family="sans-serif" font-size="13" lengthAdjust="spacing" textLength="19.5127" x="580.8442" y="343.6374">0..*</text></g><!--link DimensionalDataStructure to DimensionComponent--><g class="link" data-entity-1="ent0005" data-entity-2="ent0010" data-link-type="dependency" data-source-line="43" id="lnk33"><path codeLine="43" d="M832.59,173.6494 C787.82,185.1194 733.26,207.6794 706.5,251.6094 C681.44,292.7494 738.0689,331.7986 773.5089,351.5486" fill="none" id="DimensionalDataStructure-to-DimensionComponent" style="stroke:#404040;stroke-width:1.2;"/><polygon fill="#404040" points="778.75,354.4694,772.8355,346.5942,774.3824,352.0354,768.9412,353.5823,778.75,354.4694" style="stroke:#404040;stroke-width:1.2;"/><text fill="#000000" font-family="sans-serif" font-size="13" lengthAdjust="spacing" textLength="20.96" x="707.5" y="269.6045">has</text><text fill="#000000" font-family="sans-serif" font-size="13" lengthAdjust="spacing" textLength="19.5127" x="746.6086" y="343.5037">1..*</text></g><!--link DimensionalDataStructure to MeasureComponent--><g class="link" data-entity-1="ent0005" data-entity-2="ent0008" data-link-type="dependency" data-source-line="44" id="lnk34"><path codeLine="44" d="M955.76,173.6694 C1002.56,186.1394 1070.09,210.0294 1115.5,251.6094 C1136.2,270.5594 1139.15,279.5294 1146.5,306.6094 C1150.88,322.7594 1150.6845,336.326 1149.5345,348.496" fill="none" id="DimensionalDataStructure-to-MeasureComponent" style="stroke:#404040;stroke-width:1.2;"/><polygon fill="#404040" points="1148.97,354.4694,1153.7989,345.8856,1149.4404,349.4915,1145.8344,345.133,1148.97,354.4694" style="stroke:#404040;stroke-width:1.2;"/><text fill="#000000" font-family="sans-serif" font-size="13" lengthAdjust="spacing" textLength="20.96" x="1136.5" y="269.6045">has</text><text fill="#000000" font-family="sans-serif" font-size="13" lengthAdjust="spacing" textLength="19.5127" x="1126.8198" y="343.5037">1..*</text></g><!--link DimensionalDataStructure to AttributeComponent--><g class="link" data-entity-1="ent0005" data-entity-2="ent0009" data-link-type="dependency" data-source-line="45" id="lnk35"><path codeLine="45" d="M918.45,173.6994 C945.12,193.0694 993.6265,228.3219 1020.4565,247.8219" fill="none" id="DimensionalDataStructure-to-AttributeComponent" style="stroke:#404040;stroke-width:1.2;"/><polygon fill="#404040" points="1025.31,251.3494,1020.3814,242.8224,1021.2654,248.4098,1015.6781,249.2938,1025.31,251.3494" style="stroke:#404040;stroke-width:1.2;"/><text fill="#000000" font-family="sans-serif" font-size="13" lengthAdjust="spacing" textLength="20.96" x="980.5" y="218.1045">has</text><text fill="#000000" font-family="sans-serif" font-size="13" lengthAdjust="spacing" textLength="19.5127" x="996.3489" y="240.721">0..*</text></g><!--link DimensionalDataStructure to ComponentPosition--><g class="link" data-entity-1="ent0005" data-entity-2="ent0013" data-link-type="dependency" data-source-line="46" id="lnk36"><path codeLine="46" d="M861.87,173.7894 C845.99,180.2294 828.89,189.7994 817.5,203.6094 C806.2,217.3094 803.2797,232.2762 802.2997,245.3162" fill="none" id="DimensionalDataStructure-to-ComponentPosition" style="stroke:#404040;stroke-width:1.2;"/><polygon fill="#404040" points="801.85,251.2994,806.5132,242.6245,802.2247,246.3134,798.5357,242.0249,801.85,251.2994" style="stroke:#404040;stroke-width:1.2;"/><text fill="#000000" font-family="sans-serif" font-size="13" lengthAdjust="spacing" textLength="20.96" x="818.5" y="218.1045">has</text><text fill="#000000" font-family="sans-serif" font-size="13" lengthAdjust="spacing" textLength="19.5127" x="779.4012" y="240.6513">1..*</text></g><!--link IdentifierComponent to RepresentedVariable--><g class="link" data-entity-1="ent0007" data-entity-2="ent0016" data-link-type="dependency" data-source-line="47" id="lnk37"><path codeLine="47" d="M630.22,379.6894 C666.64,392.0594 726.44,411.9994 778.5,427.6094 C814.53,438.4094 849.899,448.0471 880.299,456.0771" fill="none" id="IdentifierComponent-to-RepresentedVariable" style="stroke:#404040;stroke-width:1.2;"/><polygon fill="#404040" points="886.1,457.6094,878.42,451.4435,881.2658,456.3324,876.3769,459.1783,886.1,457.6094" style="stroke:#404040;stroke-width:1.2;"/><text fill="#000000" font-family="sans-serif" font-size="13" lengthAdjust="spacing" textLength="69.3672" x="779.5" y="424.1045">isDefinedBy</text><text fill="#000000" font-family="sans-serif" font-size="13" lengthAdjust="spacing" textLength="7.23" x="859.4423" y="446.7014">1</text></g><!--link MeasureComponent to RepresentedVariable--><g class="link" data-entity-1="ent0008" data-entity-2="ent0016" data-link-type="dependency" data-source-line="48" id="lnk38"><path codeLine="48" d="M1122.61,379.6994 C1080.86,399.1294 1002.6497,435.5277 960.8797,454.9677" fill="none" id="MeasureComponent-to-RepresentedVariable" style="stroke:#404040;stroke-width:1.2;"/><polygon fill="#404040" points="955.44,457.4994,965.2874,457.3283,959.9731,455.3896,961.9118,450.0754,955.44,457.4994" style="stroke:#404040;stroke-width:1.2;"/><text fill="#000000" font-family="sans-serif" font-size="13" lengthAdjust="spacing" textLength="69.3672" x="1052.5" y="424.1045">isDefinedBy</text><text fill="#000000" font-family="sans-serif" font-size="13" lengthAdjust="spacing" textLength="7.23" x="957.385" y="446.546">1</text></g><!--link AttributeComponent to RepresentedVariable--><g class="link" data-entity-1="ent0009" data-entity-2="ent0016" data-link-type="dependency" data-source-line="49" id="lnk39"><path codeLine="49" d="M1035.21,276.6594 C1015.77,312.3994 959.5883,415.6594 939.8583,451.9094" fill="none" id="AttributeComponent-to-RepresentedVariable" style="stroke:#404040;stroke-width:1.2;"/><polygon fill="#404040" points="936.99,457.1794,944.8058,451.1866,939.3803,452.7877,937.7792,447.3622,936.99,457.1794" style="stroke:#404040;stroke-width:1.2;"/><text fill="#000000" font-family="sans-serif" font-size="13" lengthAdjust="spacing" textLength="69.3672" x="992.5" y="372.6045">isDefinedBy</text><text fill="#000000" font-family="sans-serif" font-size="13" lengthAdjust="spacing" textLength="7.23" x="931.2233" y="446.7441">1</text></g><!--link AttributeComponent to MeasureComponent--><g class="link" data-entity-1="ent0009" data-entity-2="ent0008" data-link-type="dependency" data-source-line="50" id="lnk40"><path codeLine="50" d="M1050.47,276.6694 C1060.37,289.1194 1077.1,309.2094 1093.5,324.6094 C1105.22,335.6194 1114.8563,343.1398 1125.8863,351.0598" fill="none" id="AttributeComponent-to-MeasureComponent" style="stroke:#404040;stroke-width:1.2;"/><polygon fill="#404040" points="1130.76,354.5594,1125.7824,346.0609,1126.6986,351.6431,1121.1164,352.5592,1130.76,354.5594" style="stroke:#404040;stroke-width:1.2;"/><text fill="#000000" font-family="sans-serif" font-size="13" lengthAdjust="spacing" textLength="47.6963" x="1094.5" y="321.1045">qualifies</text><text fill="#000000" font-family="sans-serif" font-size="13" lengthAdjust="spacing" textLength="19.5127" x="1101.0981" y="343.6308">0..*</text></g><!--link DimensionComponent to RepresentedVariable--><g class="link" data-entity-1="ent0010" data-entity-2="ent0016" data-link-type="dependency" data-source-line="51" id="lnk41"><path codeLine="51" d="M816.3,379.6994 C841.05,399.0694 885.8562,434.15 910.7562,453.65" fill="none" id="DimensionComponent-to-RepresentedVariable" style="stroke:#404040;stroke-width:1.2;"/><polygon fill="#404040" points="915.48,457.3494,910.8605,448.6511,911.5435,454.2666,905.928,454.9495,915.48,457.3494" style="stroke:#404040;stroke-width:1.2;"/><text fill="#000000" font-family="sans-serif" font-size="13" lengthAdjust="spacing" textLength="69.3672" x="874.5" y="424.1045">isDefinedBy</text><text fill="#000000" font-family="sans-serif" font-size="13" lengthAdjust="spacing" textLength="7.23" x="901.2842" y="446.721">1</text></g><!--link VariableValueComponent to ReferenceVariable--><g class="link" data-entity-1="ent0011" data-entity-2="ent0017" data-link-type="dependency" data-source-line="52" id="lnk42"><path codeLine="52" d="M1297.5,276.6994 C1297.5,296.0694 1297.5,328.8494 1297.5,348.3494" fill="none" id="VariableValueComponent-to-ReferenceVariable" style="stroke:#404040;stroke-width:1.2;"/><polygon fill="#404040" points="1297.5,354.3494,1301.5,345.3494,1297.5,349.3494,1293.5,345.3494,1297.5,354.3494" style="stroke:#404040;stroke-width:1.2;"/><text fill="#000000" font-family="sans-serif" font-size="13" lengthAdjust="spacing" textLength="69.3672" x="1298.5" y="321.1045">isDefinedBy</text><text fill="#000000" font-family="sans-serif" font-size="13" lengthAdjust="spacing" textLength="7.23" x="1289.0899" y="343.721">1</text></g><!--link VariableDescriptorComponent to DescriptorVariable--><g class="link" data-entity-1="ent0012" data-entity-2="ent0018" data-link-type="dependency" data-source-line="53" id="lnk43"><path codeLine="53" d="M1487.5,276.6994 C1487.5,296.0694 1487.5,328.8494 1487.5,348.3494" fill="none" id="VariableDescriptorComponent-to-DescriptorVariable" style="stroke:#404040;stroke-width:1.2;"/><polygon fill="#404040" points="1487.5,354.3494,1491.5,345.3494,1487.5,349.3494,1483.5,345.3494,1487.5,354.3494" style="stroke:#404040;stroke-width:1.2;"/><text fill="#000000" font-family="sans-serif" font-size="13" lengthAdjust="spacing" textLength="69.3672" x="1488.5" y="321.1045">isDefinedBy</text><text fill="#000000" font-family="sans-serif" font-size="13" lengthAdjust="spacing" textLength="7.23" x="1479.2248" y="343.721">1</text></g><!--link ComponentPosition to DimensionComponent--><g class="link" data-entity-1="ent0013" data-entity-2="ent0010" data-link-type="dependency" data-source-line="54" id="lnk44"><path codeLine="54" d="M801.5,276.6994 C801.5,296.0694 801.5,328.8494 801.5,348.3494" fill="none" id="ComponentPosition-to-DimensionComponent" style="stroke:#404040;stroke-width:1.2;"/><polygon fill="#404040" points="801.5,354.3494,805.5,345.3494,801.5,349.3494,797.5,345.3494,801.5,354.3494" style="stroke:#404040;stroke-width:1.2;"/><text fill="#000000" font-family="sans-serif" font-size="13" lengthAdjust="spacing" textLength="44.8081" x="802.5" y="321.1045">indexes</text><text fill="#000000" font-family="sans-serif" font-size="13" lengthAdjust="spacing" textLength="7.23" x="793.2206" y="343.721">1</text></g><!--link PrimaryKey to PrimaryKeyComponent--><g class="link" data-entity-1="ent0014" data-entity-2="ent0015" data-link-type="dependency" data-source-line="55" id="lnk45"><path codeLine="55" d="M525.22,173.7694 C510.91,180.5994 494.57,190.4894 483.5,203.6094 C471.71,217.5794 467.1367,232.5659 464.5467,245.5159" fill="none" id="PrimaryKey-to-PrimaryKeyComponent" style="stroke:#404040;stroke-width:1.2;"/><polygon fill="#404040" points="463.37,251.3994,469.0574,243.3586,464.3506,246.4965,461.2127,241.7897,463.37,251.3994" style="stroke:#404040;stroke-width:1.2;"/><text fill="#000000" font-family="sans-serif" font-size="13" lengthAdjust="spacing" textLength="85.979" x="484.5" y="218.1045">isComposedOf</text><text fill="#000000" font-family="sans-serif" font-size="13" lengthAdjust="spacing" textLength="19.5127" x="441.457" y="240.7907">1..*</text></g><!--link PrimaryKeyComponent to IdentifierComponent--><g class="link" data-entity-1="ent0015" data-entity-2="ent0007" data-link-type="dependency" data-source-line="56" id="lnk46"><path codeLine="56" d="M462.65,276.7294 C464.55,289.9994 469.55,311.5294 482.5,324.6094 C497.76,340.0294 513.4593,348.0047 533.6293,354.1347" fill="none" id="PrimaryKeyComponent-to-IdentifierComponent" style="stroke:#404040;stroke-width:1.2;"/><polygon fill="#404040" points="539.37,355.8794,531.922,349.4352,534.5861,354.4255,529.5958,357.0895,539.37,355.8794" style="stroke:#404040;stroke-width:1.2;"/><text fill="#000000" font-family="sans-serif" font-size="13" lengthAdjust="spacing" textLength="86.709" x="483.5" y="321.1045">correspondsTo</text><text fill="#000000" font-family="sans-serif" font-size="13" lengthAdjust="spacing" textLength="7.23" x="524.234" y="350.8078">1</text></g><!--link RepresentedVariable to SubstantiveValueDomain--><g class="link" data-entity-1="ent0016" data-entity-2="ent0020" data-link-type="dependency" data-source-line="57" id="lnk47"><path codeLine="57" d="M870.88,480.3894 C852.27,486.3994 833.7,496.2994 822.5,512.6094 C812.78,526.7594 815.1073,541.8629 819.2173,554.7529" fill="none" id="RepresentedVariable-to-SubstantiveValueDomain" style="stroke:#404040;stroke-width:1.2;"/><polygon fill="#404040" points="821.04,560.4694,822.1169,550.6796,819.5211,555.7057,814.495,553.1098,821.04,560.4694" style="stroke:#404040;stroke-width:1.2;"/><text fill="#000000" font-family="sans-serif" font-size="13" lengthAdjust="spacing" textLength="169.0825" x="823.5" y="527.1045">takesSubstantiveValuesFrom</text><text fill="#000000" font-family="sans-serif" font-size="13" lengthAdjust="spacing" textLength="19.5127" x="796.4392" y="549.5037">0..*</text></g><!--link RepresentedVariable to SentinelValueDomain--><g class="link" data-entity-1="ent0016" data-entity-2="ent0021" data-link-type="dependency" data-source-line="58" id="lnk48"><path codeLine="58" d="M954.59,482.6894 C968.21,490.0094 984.96,500.3894 997.5,512.6094 C1012.18,526.9194 1021.4606,542.3615 1028.1106,555.2015" fill="none" id="RepresentedVariable-to-SentinelValueDomain" style="stroke:#404040;stroke-width:1.2;"/><polygon fill="#404040" points="1030.87,560.5294,1030.2829,550.698,1028.5705,556.0895,1023.1791,554.3772,1030.87,560.5294" style="stroke:#404040;stroke-width:1.2;"/><text fill="#000000" font-family="sans-serif" font-size="13" lengthAdjust="spacing" textLength="148.1289" x="1013.5" y="527.1045">takesSentinelValuesFrom</text><text fill="#000000" font-family="sans-serif" font-size="13" lengthAdjust="spacing" textLength="19.5127" x="1005.6508" y="549.5884">0..*</text></g><?plantuml-src fPN1Rjim38RlVWh1lGrea1GxvJ2WZHEWs8OLIz6T5PjfXDXI9id9ic707c9Fk2UP7IEfJD9ErY6N-AS-KgH4oYkVWvWazxD4UZdtjanzQK7y-VLRc2tOhO9Tj58PY5JPD8VcFnGRlnS550kmBd9hfJVIoaAubSpCJkbdiPIvWy1oQwtPFQvKkjRWd1WDRW9ZcijA-n69Pjd4vCQAgxV3-bU9TyPcOB4wCzhFrNSGevlePnGrFk9M5h6GJhJpkffDPzF9zBZyIvKDHOYAiGz6FrECg1XBL07QAQDbpkopmqYSXCQ9AJP6W_OqrPC9ExZFAb4jLLtIa6PqZ7u4wKXKB6Berdkh5gL769KxouMo9386dwHLSf73aynB59KtTJb8mALMRRonl1V6ZbsT30_6AL_j-k20g1XxiAgGTlyUzeVrBv_T2zjRP7ICVeQD1LSP83icT40PdQ9BiA1JG21IoOcUwjNYg4pkh7PUud1OnD2yNDGBlDesnvsOGggc_ho9EAWRGaDEQAhtPTg6MGl6fxeimChwPWGeKKyOdLZNr-z4F1eCtiHiOu_5Ihf-ZFHrBpCyC4nJdwD6SNYxczLqabwKJY_MrxF_WAF1qKkUgKddn0_WxcJxwMRJpAYy7Euu_qjs_SgKcxXqDZOiLue6YzcHDHRA9R2i6ZMxsqSacyjH9fl_XuTTDVvQohpECYZMQ-9stDSN1tXKypZNBKSVpDXkEw4dUKAvYwbq1j-gl8Dn45mBxa6hmns-76IVbX6tv1YHRwJKsAgErMVc7at4LJKuh8v7OooyN8F3LZUpfZZhadb9Zlv2K-FiBm00?></g></svg>