<svg xmlns="http://www.w3.org/2000/svg" xmlns:xlink="http://www.w3.org/1999/xlink" contentStyleType="text/css" data-diagram-type="CLASS" height="1487px" preserveAspectRatio="none" style="width:6768px;height:1487px;background:#FFFFFF;" version="1.1" viewBox="0 0 6768 1487" width="6768px" zoomAndPan="magnify"><?plantuml 1.2026.3?><defs/><g><g class="title" data-source-line="1"><text fill="#000000" font-family="sans-serif" font-size="14" font-weight="700" lengthAdjust="spacing" textLength="207.3818" x="3277.1902" y="24.5332">CDIFDataStructure &#8212; overview</text></g><!--class DataDownload--><g class="entity" data-qualified-name="DataDownload" data-source-line="16" id="ent0002"><rect fill="#FEFECE" height="47.7344" rx="2.5" ry="2.5" style="stroke:#404040;stroke-width:0.5;" width="202.7871" x="1885.19" y="45.6094"/><text fill="#000000" font-family="sans-serif" font-size="30" lengthAdjust="spacing" textLength="196.7871" x="1888.19" y="81.752">DataDownload</text></g><!--class CatalogRecord--><g class="entity" data-qualified-name="CatalogRecord" data-source-line="17" id="ent0003"><rect fill="#FEFECE" height="47.7344" rx="2.5" ry="2.5" style="stroke:#404040;stroke-width:0.5;" width="206.1123" x="821.69" y="390.6094"/><text fill="#000000" font-family="sans-serif" font-size="30" lengthAdjust="spacing" textLength="200.1123" x="824.69" y="426.752">CatalogRecord</text></g><!--class RepresentedVariable--><g class="entity" data-qualified-name="RepresentedVariable" data-source-line="18" id="ent0004"><rect fill="#FAE5D3" height="47.7344" rx="2.5" ry="2.5" style="stroke:#404040;stroke-width:0.5;" width="287.8506" x="5570.69" y="1425.6094"/><text fill="#000000" font-family="sans-serif" font-size="30" lengthAdjust="spacing" textLength="281.8506" x="5573.69" y="1461.752">RepresentedVariable</text></g><!--class DataStructure--><g class="entity" data-qualified-name="DataStructure" data-source-line="19" id="ent0005"><rect fill="#FAE5D3" height="47.7344" rx="2.5" ry="2.5" style="stroke:#404040;stroke-width:0.5;" width="191.083" x="1891.19" y="390.6094"/><text fill="#000000" font-family="sans-serif" font-size="30" lengthAdjust="spacing" textLength="185.083" x="1894.19" y="426.752">DataStructure</text></g><!--class DimensionalDataStructure--><g class="entity" data-qualified-name="DimensionalDataStructure" data-source-line="20" id="ent0006"><rect fill="#FAE5D3" height="47.7344" rx="2.5" ry="2.5" style="stroke:#404040;stroke-width:0.5;" width="356.1563" x="4006.69" y="390.6094"/><text fill="#000000" font-family="sans-serif" font-size="30" lengthAdjust="spacing" textLength="350.1563" x="4009.69" y="426.752">DimensionalDataStructure</text></g><!--class LongDataStructure--><g class="entity" data-qualified-name="LongDataStructure" data-source-line="21" id="ent0007"><rect fill="#FAE5D3" height="47.7344" rx="2.5" ry="2.5" style="stroke:#404040;stroke-width:0.5;" width="257.8213" x="1047.69" y="390.6094"/><text fill="#000000" font-family="sans-serif" font-size="30" lengthAdjust="spacing" textLength="251.8213" x="1050.69" y="426.752">LongDataStructure</text></g><!--class WideDataStructure--><g class="entity" data-qualified-name="WideDataStructure" data-source-line="22" id="ent0008"><rect fill="#FAE5D3" height="47.7344" rx="2.5" ry="2.5" style="stroke:#404040;stroke-width:0.5;" width="259.4326" x="5557.19" y="390.6094"/><text fill="#000000" font-family="sans-serif" font-size="30" lengthAdjust="spacing" textLength="253.4326" x="5560.19" y="426.752">WideDataStructure</text></g><!--class DimensionGroup--><g class="entity" data-qualified-name="DimensionGroup" data-source-line="23" id="ent0009"><rect fill="#FAE5D3" height="47.7344" rx="2.5" ry="2.5" style="stroke:#404040;stroke-width:0.5;" width="231.1025" x="3234.19" y="390.6094"/><text fill="#000000" font-family="sans-serif" font-size="30" lengthAdjust="spacing" textLength="225.1025" x="3237.19" y="426.752">DimensionGroup</text></g><!--class IdentifierComponent--><g class="entity" data-qualified-name="IdentifierComponent" data-source-line="24" id="ent0010"><rect fill="#FAE5D3" height="47.7344" rx="2.5" ry="2.5" style="stroke:#404040;stroke-width:0.5;" width="276.1611" x="2691.69" y="735.6094"/><text fill="#000000" font-family="sans-serif" font-size="30" lengthAdjust="spacing" textLength="270.1611" x="2694.69" y="771.752">IdentifierComponent</text></g><!--class MeasureComponent--><g class="entity" data-qualified-name="MeasureComponent" data-source-line="25" id="ent0011"><rect fill="#FAE5D3" height="47.7344" rx="2.5" ry="2.5" style="stroke:#404040;stroke-width:0.5;" width="277.8164" x="4722.69" y="735.6094"/><text fill="#000000" font-family="sans-serif" font-size="30" lengthAdjust="spacing" textLength="271.8164" x="4725.69" y="771.752">MeasureComponent</text></g><!--class AttributeComponent--><g class="entity" data-qualified-name="AttributeComponent" data-source-line="26" id="ent0012"><rect fill="#FAE5D3" height="47.7344" rx="2.5" ry="2.5" style="stroke:#404040;stroke-width:0.5;" width="272.8213" x="1705.19" y="735.6094"/><text fill="#000000" font-family="sans-serif" font-size="30" lengthAdjust="spacing" textLength="266.8213" x="1708.19" y="771.752">AttributeComponent</text></g><!--class DimensionComponent--><g class="entity" data-qualified-name="DimensionComponent" data-source-line="27" id="ent0013"><rect fill="#FAE5D3" height="47.7344" rx="2.5" ry="2.5" style="stroke:#404040;stroke-width:0.5;" width="302.8213" x="3762.19" y="735.6094"/><text fill="#000000" font-family="sans-serif" font-size="30" lengthAdjust="spacing" textLength="296.8213" x="3765.19" y="771.752">DimensionComponent</text></g><!--class VariableDescriptorComponent--><g class="entity" data-qualified-name="VariableDescriptorComponent" data-source-line="28" id="ent0014"><rect fill="#FAE5D3" height="47.7344" rx="2.5" ry="2.5" style="stroke:#404040;stroke-width:0.5;" width="407.8652" x="698.69" y="735.6094"/><text fill="#000000" font-family="sans-serif" font-size="30" lengthAdjust="spacing" textLength="401.8652" x="701.69" y="771.752">VariableDescriptorComponent</text></g><!--class VariableValueComponent--><g class="entity" data-qualified-name="VariableValueComponent" data-source-line="29" id="ent0015"><rect fill="#FAE5D3" height="47.7344" rx="2.5" ry="2.5" style="stroke:#404040;stroke-width:0.5;" width="347.8945" x="327.69" y="735.6094"/><text fill="#000000" font-family="sans-serif" font-size="30" lengthAdjust="spacing" textLength="341.8945" x="330.69" y="771.752">VariableValueComponent</text></g><!--class PrimaryKey--><g class="entity" data-qualified-name="PrimaryKey" data-source-line="30" id="ent0016"><rect fill="#FAE5D3" height="47.7344" rx="2.5" ry="2.5" style="stroke:#404040;stroke-width:0.5;" width="161.0244" x="5461.19" y="1080.6094"/><text fill="#000000" font-family="sans-serif" font-size="30" lengthAdjust="spacing" textLength="155.0244" x="5464.19" y="1116.752">PrimaryKey</text></g><!--class ForeignKey--><g class="entity" data-qualified-name="ForeignKey" data-source-line="31" id="ent0017"><rect fill="#FAE5D3" height="47.7344" rx="2.5" ry="2.5" style="stroke:#404040;stroke-width:0.5;" width="159.4131" x="5797.19" y="735.6094"/><text fill="#000000" font-family="sans-serif" font-size="30" lengthAdjust="spacing" textLength="153.4131" x="5800.19" y="771.752">ForeignKey</text></g><!--link DataDownload to CatalogRecord--><g class="link" data-entity-1="ent0002" data-entity-2="ent0003" data-link-type="dependency" data-source-line="32" id="lnk18"><path codeLine="32" d="M1885.01,89.6294 C1762.34,113.8394 1550.65,159.6994 1374.69,218.6094 C1222.7,269.4994 1056.2918,348.3367 976.0118,387.9067" fill="none" id="DataDownload-to-CatalogRecord" style="stroke:#404040;stroke-width:1.2;"/><polygon fill="#404040" points="970.63,390.5594,980.4711,390.1682,975.1148,388.3488,976.9342,382.9925,970.63,390.5594" style="stroke:#404040;stroke-width:1.2;"/><text fill="#000000" font-family="sans-serif" font-size="36" lengthAdjust="spacing" textLength="152.0684" x="1375.69" y="256.9805">subjectOf</text><text fill="#000000" font-family="sans-serif" font-size="36" lengthAdjust="spacing" textLength="60.0469" x="913.4635" y="374.6875">0..1</text></g><!--link DataDownload to DataStructure--><g class="link" data-entity-1="ent0002" data-entity-2="ent0005" data-link-type="dependency" data-source-line="33" id="lnk19"><path codeLine="33" d="M1986.69,93.6494 C1986.69,155.9794 1986.69,321.4794 1986.69,384.2194" fill="none" id="DataDownload-to-DataStructure" style="stroke:#404040;stroke-width:1.2;"/><polygon fill="#404040" points="1986.69,390.2194,1990.69,381.2194,1986.69,385.2194,1982.69,381.2194,1986.69,390.2194" style="stroke:#404040;stroke-width:1.2;"/><text fill="#000000" font-family="sans-serif" font-size="36" lengthAdjust="spacing" textLength="234.0879" x="1987.69" y="256.9805">isStructuredBy</text><text fill="#000000" font-family="sans-serif" font-size="36" lengthAdjust="spacing" textLength="60.0469" x="1921.5306" y="374.5782">0..1</text></g><!--link DataDownload to DimensionalDataStructure--><g class="link" data-entity-1="ent0002" data-entity-2="ent0006" data-link-type="dependency" data-source-line="34" id="lnk20"><path codeLine="34" d="M2088.3,86.4694 C2441.95,141.6494 3614.1618,324.5742 4031.0318,389.6342" fill="none" id="DataDownload-to-DimensionalDataStructure" style="stroke:#404040;stroke-width:1.2;"/><polygon fill="#404040" points="4036.96,390.5594,4028.6844,385.2194,4032.0198,389.7884,4027.4508,393.1237,4036.96,390.5594" style="stroke:#404040;stroke-width:1.2;"/><text fill="#000000" font-family="sans-serif" font-size="36" lengthAdjust="spacing" textLength="234.0879" x="3218.69" y="256.9805">isStructuredBy</text><text fill="#000000" font-family="sans-serif" font-size="36" lengthAdjust="spacing" textLength="60.0469" x="3945.2921" y="374.6875">0..1</text></g><!--link DataDownload to LongDataStructure--><g class="link" data-entity-1="ent0002" data-entity-2="ent0007" data-link-type="dependency" data-source-line="35" id="lnk21"><path codeLine="35" d="M1932.29,93.6494 C1784.82,156.0994 1384.1551,325.7599 1236.6451,388.2199" fill="none" id="DataDownload-to-LongDataStructure" style="stroke:#404040;stroke-width:1.2;"/><polygon fill="#404040" points="1231.12,390.5594,1240.9673,390.7335,1235.7243,388.6098,1237.848,383.3667,1231.12,390.5594" style="stroke:#404040;stroke-width:1.2;"/><text fill="#000000" font-family="sans-serif" font-size="36" lengthAdjust="spacing" textLength="234.0879" x="1631.69" y="256.9805">isStructuredBy</text><text fill="#000000" font-family="sans-serif" font-size="36" lengthAdjust="spacing" textLength="60.0469" x="1175.4917" y="374.6875">0..1</text></g><!--link DataDownload to WideDataStructure--><g class="link" data-entity-1="ent0002" data-entity-2="ent0008" data-link-type="dependency" data-source-line="36" id="lnk22"><path codeLine="36" d="M2088.54,80.0494 C2609.57,128.3494 4968.9356,347.0755 5551.0156,401.0355" fill="none" id="DataDownload-to-WideDataStructure" style="stroke:#404040;stroke-width:1.2;"/><polygon fill="#404040" points="5556.99,401.5894,5548.3976,396.7757,5552.0113,401.1278,5547.6592,404.7415,5556.99,401.5894" style="stroke:#404040;stroke-width:1.2;"/><text fill="#000000" font-family="sans-serif" font-size="36" lengthAdjust="spacing" textLength="234.0879" x="4058.69" y="256.9805">isStructuredBy</text><text fill="#000000" font-family="sans-serif" font-size="36" lengthAdjust="spacing" textLength="60.0469" x="5489.2452" y="392.2532">0..1</text></g><!--reverse link DataStructure to IdentifierComponent--><g class="link" data-entity-1="ent0005" data-entity-2="ent0010" data-link-type="composition" data-source-line="37" id="lnk23"><path codeLine="37" d="M2094.4209,419.3151 C2212.8809,427.5851 2403.02,456.8694 2534.69,563.6094 C2552.91,578.3794 2542.34,593.7994 2558.69,610.6094 C2616.72,670.2694 2704.03,711.9994 2763.77,735.6094" fill="none" id="DataStructure-backto-IdentifierComponent" style="stroke:#404040;stroke-width:1.2;"/><polygon fill="#404040" points="2082.45,418.4794,2088.1569,422.8875,2094.4209,419.3151,2088.714,414.9069,2082.45,418.4794" style="stroke:#404040;stroke-width:1.2;"/><text fill="#000000" font-family="sans-serif" font-size="36" lengthAdjust="spacing" textLength="244.1602" x="2559.69" y="601.9805">hasComponent</text><text fill="#000000" font-family="sans-serif" font-size="36" lengthAdjust="spacing" textLength="54.0352" x="2693.2074" y="719.7464">0..*</text></g><!--reverse link DataStructure to MeasureComponent--><g class="link" data-entity-1="ent0005" data-entity-2="ent0011" data-link-type="composition" data-source-line="38" id="lnk24"><path codeLine="38" d="M2094.2937,419.0286 C2533.9637,433.2986 4332.48,495.6194 4430.69,563.6094 C4449.5,576.6294 4434.93,595.0394 4451.69,610.6094 C4526.27,679.8794 4635.66,717.2094 4722.69,737.0494" fill="none" id="DataStructure-backto-MeasureComponent" style="stroke:#404040;stroke-width:1.2;"/><polygon fill="#404040" points="2082.3,418.6394,2088.1671,422.8319,2094.2937,419.0286,2088.4266,414.8361,2082.3,418.6394" style="stroke:#404040;stroke-width:1.2;"/><text fill="#000000" font-family="sans-serif" font-size="36" lengthAdjust="spacing" textLength="244.1602" x="4452.69" y="601.9805">hasComponent</text><text fill="#000000" font-family="sans-serif" font-size="36" lengthAdjust="spacing" textLength="54.0352" x="4660.6547" y="727.2511">0..*</text></g><!--reverse link DataStructure to AttributeComponent--><g class="link" data-entity-1="ent0005" data-entity-2="ent0012" data-link-type="composition" data-source-line="39" id="lnk25"><path codeLine="39" d="M1879.2126,431.3468 C1745.3626,452.8968 1524.7,497.0994 1474.69,563.6094 C1403.74,657.9694 1573.42,711.3694 1705.11,737.6194" fill="none" id="DataStructure-backto-AttributeComponent" style="stroke:#404040;stroke-width:1.2;"/><polygon fill="#404040" points="1891.06,429.4394,1884.5005,426.444,1879.2126,431.3468,1885.7721,434.3422,1891.06,429.4394" style="stroke:#404040;stroke-width:1.2;"/><text fill="#000000" font-family="sans-serif" font-size="36" lengthAdjust="spacing" textLength="244.1602" x="1475.69" y="601.9805">hasComponent</text><text fill="#000000" font-family="sans-serif" font-size="36" lengthAdjust="spacing" textLength="54.0352" x="1643.1918" y="727.8487">0..*</text></g><!--reverse link DataStructure to DimensionComponent--><g class="link" data-entity-1="ent0005" data-entity-2="ent0013" data-link-type="composition" data-source-line="40" id="lnk26"><path codeLine="40" d="M2094.3632,419.0241 C2425.0432,430.1841 3494.22,472.9594 3618.69,563.6094 C3637.04,576.9694 3623.39,593.8394 3638.69,610.6094 C3694.42,671.6894 3781.34,712.5094 3842.52,735.5494" fill="none" id="DataStructure-backto-DimensionComponent" style="stroke:#404040;stroke-width:1.2;"/><polygon fill="#404040" points="2082.37,418.6194,2088.2317,422.8195,2094.3632,419.0241,2088.5015,414.824,2082.37,418.6194" style="stroke:#404040;stroke-width:1.2;"/><text fill="#000000" font-family="sans-serif" font-size="36" lengthAdjust="spacing" textLength="244.1602" x="3639.69" y="601.9805">hasComponent</text><text fill="#000000" font-family="sans-serif" font-size="36" lengthAdjust="spacing" textLength="54.0352" x="3771.0525" y="719.6757">0..*</text></g><!--reverse link DataStructure to VariableDescriptorComponent--><g class="link" data-entity-1="ent0005" data-entity-2="ent0014" data-link-type="composition" data-source-line="41" id="lnk27"><path codeLine="41" d="M1879.1,414.9745 C1645.05,415.4645 1064.6,430.1494 930.69,563.6094 C884.66,609.4794 891.54,694.6794 898.14,735.5594" fill="none" id="DataStructure-backto-VariableDescriptorComponent" style="stroke:#404040;stroke-width:1.2;"/><polygon fill="#404040" points="1891.1,414.9494,1885.0916,410.9619,1879.1,414.9745,1885.1084,418.9619,1891.1,414.9494" style="stroke:#404040;stroke-width:1.2;"/><text fill="#000000" font-family="sans-serif" font-size="36" lengthAdjust="spacing" textLength="244.1602" x="931.69" y="601.9805">hasComponent</text><text fill="#000000" font-family="sans-serif" font-size="36" lengthAdjust="spacing" textLength="54.0352" x="838.5353" y="719.6875">0..*</text></g><!--reverse link DataStructure to VariableValueComponent--><g class="link" data-entity-1="ent0005" data-entity-2="ent0015" data-link-type="composition" data-source-line="42" id="lnk28"><path codeLine="42" d="M1878.8418,416.9246 C1609.9618,421.5246 866.35,444.7594 653.69,563.6094 C635.05,574.0294 553.54,686.0794 518.17,735.4594" fill="none" id="DataStructure-backto-VariableValueComponent" style="stroke:#404040;stroke-width:1.2;"/><polygon fill="#404040" points="1890.84,416.7194,1884.7725,412.8226,1878.8418,416.9246,1884.9093,420.8214,1890.84,416.7194" style="stroke:#404040;stroke-width:1.2;"/><text fill="#000000" font-family="sans-serif" font-size="36" lengthAdjust="spacing" textLength="244.1602" x="654.69" y="601.9805">hasComponent</text><text fill="#000000" font-family="sans-serif" font-size="36" lengthAdjust="spacing" textLength="54.0352" x="462.3086" y="719.5696">0..*</text></g><!--reverse link DataStructure to PrimaryKey--><g class="link" data-entity-1="ent0005" data-entity-2="ent0016" data-link-type="composition" data-source-line="43" id="lnk29"><path codeLine="43" d="M1879.0436,430.315 C1740.6836,451.135 1507.4,495.0494 1453.69,563.6094 C1423.54,602.1094 1415.49,747.7094 1448.69,783.6094 C1731.58,1089.4794 4911.99,1103.5594 5461.16,1103.7094" fill="none" id="DataStructure-backto-PrimaryKey" style="stroke:#404040;stroke-width:1.2;"/><polygon fill="#404040" points="1890.91,428.5294,1884.3816,425.4667,1879.0436,430.315,1885.572,433.3777,1890.91,428.5294" style="stroke:#404040;stroke-width:1.2;"/><text fill="#000000" font-family="sans-serif" font-size="36" lengthAdjust="spacing" textLength="244.0723" x="1449.69" y="774.4805">hasPrimaryKey</text><text fill="#000000" font-family="sans-serif" font-size="36" lengthAdjust="spacing" textLength="60.0469" x="5393.0438" y="1142.6868">0..1</text></g><!--reverse link DataStructure to ForeignKey--><g class="link" data-entity-1="ent0005" data-entity-2="ent0017" data-link-type="composition" data-source-line="44" id="lnk30"><path codeLine="44" d="M2094.4155,418.5164 C2654.1755,433.7764 5469.44,512.9494 5542.69,563.6094 C5561.36,576.5194 5546.95,594.2494 5562.69,610.6094 C5626.95,677.3694 5727.28,717.3194 5797.18,738.5894" fill="none" id="DataStructure-backto-ForeignKey" style="stroke:#404040;stroke-width:1.2;"/><polygon fill="#404040" points="2082.42,418.1894,2088.3088,422.3514,2094.4155,418.5164,2088.5268,414.3544,2082.42,418.1894" style="stroke:#404040;stroke-width:1.2;"/><text fill="#000000" font-family="sans-serif" font-size="36" lengthAdjust="spacing" textLength="242.1387" x="5563.69" y="601.9805">hasForeignKey</text><text fill="#000000" font-family="sans-serif" font-size="36" lengthAdjust="spacing" textLength="54.0352" x="5735.0109" y="727.6494">0..*</text></g><!--reverse link DimensionalDataStructure to IdentifierComponent--><g class="link" data-entity-1="ent0006" data-entity-2="ent0010" data-link-type="composition" data-source-line="45" id="lnk31"><path codeLine="45" d="M3994.4887,420.7157 C3725.1387,430.9657 3242.67,462.8594 3100.69,563.6094 C3081.56,577.1794 3092.71,593.4694 3076.69,610.6094 C3022.76,668.3194 2941.31,711.1694 2886.86,735.5194" fill="none" id="DimensionalDataStructure-backto-IdentifierComponent" style="stroke:#404040;stroke-width:1.2;"/><polygon fill="#404040" points="4006.48,420.2594,4000.3322,416.4904,3994.4887,420.7157,4000.6364,424.4846,4006.48,420.2594" style="stroke:#404040;stroke-width:1.2;"/><text fill="#000000" font-family="sans-serif" font-size="36" lengthAdjust="spacing" textLength="244.1602" x="3101.69" y="601.9805">hasComponent</text><text fill="#000000" font-family="sans-serif" font-size="36" lengthAdjust="spacing" textLength="54.0352" x="2838.2228" y="719.6403">0..*</text></g><!--reverse link DimensionalDataStructure to MeasureComponent--><g class="link" data-entity-1="ent0006" data-entity-2="ent0011" data-link-type="composition" data-source-line="46" id="lnk32"><path codeLine="46" d="M4374.6857,424.1625 C4583.0957,437.4425 4897.6,471.9094 4973.69,563.6094 C5020.06,619.4894 4939.93,697.1094 4892.64,735.3794" fill="none" id="DimensionalDataStructure-backto-MeasureComponent" style="stroke:#404040;stroke-width:1.2;"/><polygon fill="#404040" points="4362.71,423.3994,4368.4435,427.7728,4374.6857,424.1625,4368.9522,419.789,4362.71,423.3994" style="stroke:#404040;stroke-width:1.2;"/><text fill="#000000" font-family="sans-serif" font-size="36" lengthAdjust="spacing" textLength="244.1602" x="4987.69" y="601.9805">hasComponent</text><text fill="#000000" font-family="sans-serif" font-size="36" lengthAdjust="spacing" textLength="54.0352" x="4839.3377" y="719.7657">0..*</text></g><!--reverse link DimensionalDataStructure to AttributeComponent--><g class="link" data-entity-1="ent0006" data-entity-2="ent0012" data-link-type="composition" data-source-line="47" id="lnk33"><path codeLine="47" d="M3994.4501,423.1917 C3489.6401,443.9217 2093.49,506.1394 2012.69,563.6094 C1994.19,576.7694 2005.49,591.8594 1992.69,610.6094 C1958.24,661.0894 1904.73,708.5094 1871.52,735.4994" fill="none" id="DimensionalDataStructure-backto-AttributeComponent" style="stroke:#404040;stroke-width:1.2;"/><polygon fill="#404040" points="4006.44,422.6994,4000.2809,418.9489,3994.4501,423.1917,4000.6092,426.9422,4006.44,422.6994" style="stroke:#404040;stroke-width:1.2;"/><text fill="#000000" font-family="sans-serif" font-size="36" lengthAdjust="spacing" textLength="244.1602" x="2013.69" y="601.9805">hasComponent</text><text fill="#000000" font-family="sans-serif" font-size="36" lengthAdjust="spacing" textLength="54.0352" x="1818.0431" y="719.6168">0..*</text></g><!--reverse link DimensionalDataStructure to DimensionComponent--><g class="link" data-entity-1="ent0006" data-entity-2="ent0013" data-link-type="composition" data-source-line="48" id="lnk34"><path codeLine="48" d="M4189.2887,450.7478 C4193.5587,489.6678 4195.47,557.1394 4160.69,610.6094 C4119.94,673.2594 4042.55,713.2094 3985.21,735.6094" fill="none" id="DimensionalDataStructure-backto-DimensionComponent" style="stroke:#404040;stroke-width:1.2;"/><polygon fill="#404040" points="4187.98,438.8194,4184.6582,445.2198,4189.2887,450.7478,4192.6105,444.3474,4187.98,438.8194" style="stroke:#404040;stroke-width:1.2;"/><text fill="#000000" font-family="sans-serif" font-size="36" lengthAdjust="spacing" textLength="244.1602" x="4180.69" y="601.9805">hasComponent</text><text fill="#000000" font-family="sans-serif" font-size="36" lengthAdjust="spacing" textLength="54.0352" x="3939.1592" y="719.7464">1..*</text></g><!--reverse link DimensionalDataStructure to PrimaryKey--><g class="link" data-entity-1="ent0006" data-entity-2="ent0016" data-link-type="composition" data-source-line="49" id="lnk35"><path codeLine="49" d="M4374.8276,423.3139 C4719.3676,438.9639 5438.14,481.0494 5515.69,563.6094 C5533.62,582.6994 5540.05,979.1694 5541.4,1080.2994" fill="none" id="DimensionalDataStructure-backto-PrimaryKey" style="stroke:#404040;stroke-width:1.2;"/><polygon fill="#404040" points="4362.84,422.7694,4368.6523,427.0375,4374.8276,423.3139,4369.0153,419.0458,4362.84,422.7694" style="stroke:#404040;stroke-width:1.2;"/><text fill="#000000" font-family="sans-serif" font-size="36" lengthAdjust="spacing" textLength="244.0723" x="5534.69" y="774.4805">hasPrimaryKey</text><text fill="#000000" font-family="sans-serif" font-size="36" lengthAdjust="spacing" textLength="60.0469" x="5476.1958" y="1064.672">0..1</text></g><!--reverse link DimensionalDataStructure to ForeignKey--><g class="link" data-entity-1="ent0006" data-entity-2="ent0017" data-link-type="composition" data-source-line="50" id="lnk36"><path codeLine="50" d="M4374.9832,421.3441 C4773.8532,434.8041 5700.04,475.1694 5811.69,563.6094 C5818.68,569.1494 5854.42,685.0494 5869.72,735.4894" fill="none" id="DimensionalDataStructure-backto-ForeignKey" style="stroke:#404040;stroke-width:1.2;"/><polygon fill="#404040" points="4362.99,420.9394,4368.8517,425.1395,4374.9832,421.3441,4369.1215,417.144,4362.99,420.9394" style="stroke:#404040;stroke-width:1.2;"/><text fill="#000000" font-family="sans-serif" font-size="36" lengthAdjust="spacing" textLength="242.1387" x="5829.69" y="601.9805">hasForeignKey</text><text fill="#000000" font-family="sans-serif" font-size="36" lengthAdjust="spacing" textLength="54.0352" x="5809.6354" y="719.605">0..*</text></g><!--reverse link LongDataStructure to IdentifierComponent--><g class="link" data-entity-1="ent0007" data-entity-2="ent0010" data-link-type="composition" data-source-line="51" id="lnk37"><path codeLine="51" d="M1317.8163,417.8889 C1572.5163,424.2489 2115.79,450.7294 2263.69,563.6094 C2281.74,577.3794 2266.57,595.6994 2283.69,610.6094 C2397.28,709.5494 2570.74,743.0594 2691.57,754.0294" fill="none" id="LongDataStructure-backto-IdentifierComponent" style="stroke:#404040;stroke-width:1.2;"/><polygon fill="#404040" points="1305.82,417.5894,1311.7183,421.7379,1317.8163,417.8889,1311.918,413.7404,1305.82,417.5894" style="stroke:#404040;stroke-width:1.2;"/><text fill="#000000" font-family="sans-serif" font-size="36" lengthAdjust="spacing" textLength="244.1602" x="2284.69" y="601.9805">hasComponent</text><text fill="#000000" font-family="sans-serif" font-size="36" lengthAdjust="spacing" textLength="20.0215" x="2663.4659" y="744.8798">1</text></g><!--reverse link LongDataStructure to VariableDescriptorComponent--><g class="link" data-entity-1="ent0007" data-entity-2="ent0014" data-link-type="composition" data-source-line="52" id="lnk38"><path codeLine="52" d="M1035.7583,440.1003 C807.8083,479.8403 369.18,557.0294 363.69,563.6094 C350.31,579.6494 351.03,593.9994 363.69,610.6094 C409.29,670.4194 597.26,712.0594 738.49,735.5994" fill="none" id="LongDataStructure-backto-VariableDescriptorComponent" style="stroke:#404040;stroke-width:1.2;"/><polygon fill="#404040" points="1047.58,438.0394,1040.9822,435.1293,1035.7583,440.1003,1042.3561,443.0104,1047.58,438.0394" style="stroke:#404040;stroke-width:1.2;"/><text fill="#000000" font-family="sans-serif" font-size="36" lengthAdjust="spacing" textLength="244.1602" x="364.69" y="601.9805">hasComponent</text><text fill="#000000" font-family="sans-serif" font-size="36" lengthAdjust="spacing" textLength="20.0215" x="687.4745" y="719.7346">1</text></g><!--reverse link LongDataStructure to VariableValueComponent--><g class="link" data-entity-1="ent0007" data-entity-2="ent0015" data-link-type="composition" data-source-line="53" id="lnk39"><path codeLine="53" d="M1035.7375,438.9207 C828.6375,469.9107 241.59,406.0194 103.69,563.6094 C23.06,655.7494 196.44,708.6894 339.21,735.5594" fill="none" id="LongDataStructure-backto-VariableValueComponent" style="stroke:#404040;stroke-width:1.2;"/><polygon fill="#404040" points="1047.6,437.1094,1041.065,434.0609,1035.7375,438.9207,1042.2725,441.9692,1047.6,437.1094" style="stroke:#404040;stroke-width:1.2;"/><text fill="#000000" font-family="sans-serif" font-size="36" lengthAdjust="spacing" textLength="244.1602" x="104.69" y="601.9805">hasComponent</text><text fill="#000000" font-family="sans-serif" font-size="36" lengthAdjust="spacing" textLength="20.0215" x="299.2743" y="722.5797">1</text></g><!--reverse link LongDataStructure to AttributeComponent--><g class="link" data-entity-1="ent0007" data-entity-2="ent0012" data-link-type="composition" data-source-line="54" id="lnk40"><path codeLine="54" d="M1171.3867,450.521 C1166.1767,490.961 1163.43,563.0594 1207.69,610.6094 C1241.79,647.2494 1532.21,704.0394 1707.93,735.5494" fill="none" id="LongDataStructure-backto-AttributeComponent" style="stroke:#404040;stroke-width:1.2;"/><polygon fill="#404040" points="1172.92,438.6194,1168.1861,444.0591,1171.3867,450.521,1176.1206,445.0813,1172.92,438.6194" style="stroke:#404040;stroke-width:1.2;"/><text fill="#000000" font-family="sans-serif" font-size="36" lengthAdjust="spacing" textLength="244.1602" x="1208.69" y="601.9805">hasComponent</text><text fill="#000000" font-family="sans-serif" font-size="36" lengthAdjust="spacing" textLength="54.0352" x="1688.9324" y="719.6757">0..*</text></g><!--reverse link LongDataStructure to PrimaryKey--><g class="link" data-entity-1="ent0007" data-entity-2="ent0016" data-link-type="composition" data-source-line="55" id="lnk41"><path codeLine="55" d="M1035.7383,438.936 C823.1383,470.376 223.75,405.0394 78.69,563.6094 C12.66,635.7894 6,711.1194 71.69,783.6094 C261.12,992.6594 4797.51,1089.0694 5461.01,1102.0794" fill="none" id="LongDataStructure-backto-PrimaryKey" style="stroke:#404040;stroke-width:1.2;"/><polygon fill="#404040" points="1047.6,437.1194,1041.0636,434.0738,1035.7383,438.936,1042.2747,441.9816,1047.6,437.1194" style="stroke:#404040;stroke-width:1.2;"/><text fill="#000000" font-family="sans-serif" font-size="36" lengthAdjust="spacing" textLength="244.0723" x="72.69" y="774.4805">hasPrimaryKey</text><text fill="#000000" font-family="sans-serif" font-size="36" lengthAdjust="spacing" textLength="60.0469" x="5393.2286" y="1092.7098">0..1</text></g><!--reverse link WideDataStructure to IdentifierComponent--><g class="link" data-entity-1="ent0008" data-entity-2="ent0010" data-link-type="composition" data-source-line="56" id="lnk42"><path codeLine="56" d="M5591.6574,442.1718 C5510.0674,466.6818 5395.45,506.2994 5295.69,563.6094 C5266.92,580.1394 5268.61,598.5694 5237.69,610.6094 C5026.31,692.8894 3448.44,741.8894 2968.06,755.0194" fill="none" id="WideDataStructure-backto-IdentifierComponent" style="stroke:#404040;stroke-width:1.2;"/><polygon fill="#404040" points="5603.15,438.7194,5596.2529,436.6147,5591.6574,442.1718,5598.5545,444.2765,5603.15,438.7194" style="stroke:#404040;stroke-width:1.2;"/><text fill="#000000" font-family="sans-serif" font-size="36" lengthAdjust="spacing" textLength="244.1602" x="5296.69" y="601.9805">hasComponent</text><text fill="#000000" font-family="sans-serif" font-size="36" lengthAdjust="spacing" textLength="54.0352" x="2976.0671" y="746.0915">0..*</text></g><!--reverse link WideDataStructure to MeasureComponent--><g class="link" data-entity-1="ent0008" data-entity-2="ent0011" data-link-type="composition" data-source-line="57" id="lnk43"><path codeLine="57" d="M5828.1815,428.7735 C5918.6815,444.1035 6021.61,478.3094 6080.69,563.6094 C6092.58,580.7794 6094.54,594.9694 6080.69,610.6094 C6009.98,690.4194 5305.31,735.8794 5000.73,751.9294" fill="none" id="WideDataStructure-backto-MeasureComponent" style="stroke:#404040;stroke-width:1.2;"/><polygon fill="#404040" points="5816.35,426.7694,5821.5977,431.7153,5828.1815,428.7735,5822.9338,423.8276,5816.35,426.7694" style="stroke:#404040;stroke-width:1.2;"/><text fill="#000000" font-family="sans-serif" font-size="36" lengthAdjust="spacing" textLength="244.1602" x="6090.69" y="601.9805">hasComponent</text><text fill="#000000" font-family="sans-serif" font-size="36" lengthAdjust="spacing" textLength="54.0352" x="5008.2586" y="742.9453">0..*</text></g><!--reverse link WideDataStructure to AttributeComponent--><g class="link" data-entity-1="ent0008" data-entity-2="ent0012" data-link-type="composition" data-source-line="58" id="lnk44"><path codeLine="58" d="M5544.8702,416.1171 C5082.5902,418.7271 3546.67,436.8894 3367.69,563.6094 C3349.16,576.7294 3365.99,597.1794 3347.69,610.6094 C3238.56,690.7194 2328.82,737.7694 1978.48,753.0694" fill="none" id="WideDataStructure-backto-AttributeComponent" style="stroke:#404040;stroke-width:1.2;"/><polygon fill="#404040" points="5556.87,416.0494,5550.8475,412.0833,5544.8702,416.1171,5550.8927,420.0832,5556.87,416.0494" style="stroke:#404040;stroke-width:1.2;"/><text fill="#000000" font-family="sans-serif" font-size="36" lengthAdjust="spacing" textLength="244.1602" x="3368.69" y="601.9805">hasComponent</text><text fill="#000000" font-family="sans-serif" font-size="36" lengthAdjust="spacing" textLength="54.0352" x="1985.9066" y="744.137">0..*</text></g><!--reverse link WideDataStructure to PrimaryKey--><g class="link" data-entity-1="ent0008" data-entity-2="ent0016" data-link-type="composition" data-source-line="59" id="lnk45"><path codeLine="59" d="M5828.4001,420.0961 C6105.2701,431.3361 6709.98,471.6394 6620.69,610.6094 C6391.21,967.7594 5831.75,1069.3894 5622.47,1095.4294" fill="none" id="WideDataStructure-backto-PrimaryKey" style="stroke:#404040;stroke-width:1.2;"/><polygon fill="#404040" points="5816.41,419.6094,5822.2428,423.8495,5828.4001,420.0961,5822.5673,415.856,5816.41,419.6094" style="stroke:#404040;stroke-width:1.2;"/><text fill="#000000" font-family="sans-serif" font-size="36" lengthAdjust="spacing" textLength="244.0723" x="6508.69" y="774.4805">hasPrimaryKey</text><text fill="#000000" font-family="sans-serif" font-size="36" lengthAdjust="spacing" textLength="60.0469" x="5630.26" y="1085.5922">0..1</text></g><!--reverse link WideDataStructure to ForeignKey--><g class="link" data-entity-1="ent0008" data-entity-2="ent0017" data-link-type="composition" data-source-line="60" id="lnk46"><path codeLine="60" d="M5828.2468,426.7477 C6002.4268,443.1977 6285.88,481.5494 6351.69,563.6094 C6461.97,701.1294 6118.45,742.5494 5956.41,754.2794" fill="none" id="WideDataStructure-backto-ForeignKey" style="stroke:#404040;stroke-width:1.2;"/><polygon fill="#404040" points="5816.3,425.6194,5821.8973,430.1658,5828.2468,426.7477,5822.6495,422.2012,5816.3,425.6194" style="stroke:#404040;stroke-width:1.2;"/><text fill="#000000" font-family="sans-serif" font-size="36" lengthAdjust="spacing" textLength="242.1387" x="6372.69" y="601.9805">hasForeignKey</text><text fill="#000000" font-family="sans-serif" font-size="36" lengthAdjust="spacing" textLength="54.0352" x="5964.5663" y="744.5407">0..*</text></g><!--reverse link DimensionGroup to IdentifierComponent--><g class="link" data-entity-1="ent0009" data-entity-2="ent0010" data-link-type="composition" data-source-line="61" id="lnk47"><path codeLine="61" d="M3222.345,434.0717 C3084.505,456.4417 2878.33,499.1894 2829.69,563.6094 C2791.34,614.3994 2809.32,695.7594 2821.57,735.3894" fill="none" id="DimensionGroup-backto-IdentifierComponent" style="stroke:#404040;stroke-width:1.2;"/><polygon fill="#404040" points="3234.19,432.1494,3227.6267,429.1622,3222.345,434.0717,3228.9083,437.0589,3234.19,432.1494" style="stroke:#404040;stroke-width:1.2;"/><text fill="#000000" font-family="sans-serif" font-size="36" lengthAdjust="spacing" textLength="244.1602" x="2830.69" y="601.9805">hasComponent</text><text fill="#000000" font-family="sans-serif" font-size="36" lengthAdjust="spacing" textLength="54.0352" x="2761.5229" y="719.7775">0..*</text></g><!--reverse link DimensionGroup to MeasureComponent--><g class="link" data-entity-1="ent0009" data-entity-2="ent0011" data-link-type="composition" data-source-line="62" id="lnk48"><path codeLine="62" d="M3477.242,422.2565 C3786.482,439.2165 4604.16,490.4394 4702.69,563.6094 C4720.92,577.1394 4710.28,591.5994 4722.69,610.6094 C4754.96,660.0594 4804.51,708.1594 4834.91,735.4994" fill="none" id="DimensionGroup-backto-MeasureComponent" style="stroke:#404040;stroke-width:1.2;"/><polygon fill="#404040" points="3465.26,421.5994,3471.0319,425.9219,3477.242,422.2565,3471.47,417.9339,3465.26,421.5994" style="stroke:#404040;stroke-width:1.2;"/><text fill="#000000" font-family="sans-serif" font-size="36" lengthAdjust="spacing" textLength="244.1602" x="4723.69" y="601.9805">hasComponent</text><text fill="#000000" font-family="sans-serif" font-size="36" lengthAdjust="spacing" textLength="54.0352" x="4771.3499" y="719.6168">0..*</text></g><!--reverse link DimensionGroup to AttributeComponent--><g class="link" data-entity-1="ent0009" data-entity-2="ent0012" data-link-type="composition" data-source-line="63" id="lnk49"><path codeLine="63" d="M3221.9223,417.7253 C2870.4723,424.6353 1845.68,453.9694 1745.69,563.6094 C1698.02,615.8894 1771.68,696.1894 1814.51,735.4294" fill="none" id="DimensionGroup-backto-AttributeComponent" style="stroke:#404040;stroke-width:1.2;"/><polygon fill="#404040" points="3233.92,417.4894,3227.8425,413.6081,3221.9223,417.7253,3227.9998,421.6065,3233.92,417.4894" style="stroke:#404040;stroke-width:1.2;"/><text fill="#000000" font-family="sans-serif" font-size="36" lengthAdjust="spacing" textLength="244.1602" x="1746.69" y="601.9805">hasComponent</text><text fill="#000000" font-family="sans-serif" font-size="36" lengthAdjust="spacing" textLength="54.0352" x="1751.2162" y="719.8243">0..*</text></g><!--reverse link DimensionGroup to DimensionComponent--><g class="link" data-entity-1="ent0009" data-entity-2="ent0013" data-link-type="composition" data-source-line="64" id="lnk50"><path codeLine="64" d="M3477.0699,433.9313 C3618.6199,456.5313 3834.62,499.9094 3889.69,563.6094 C3911.5,588.8294 3913.99,689.2494 3913.96,735.3094" fill="none" id="DimensionGroup-backto-DimensionComponent" style="stroke:#404040;stroke-width:1.2;"/><polygon fill="#404040" points="3465.22,432.0394,3470.5143,436.9353,3477.0699,433.9313,3471.7756,429.0354,3465.22,432.0394" style="stroke:#404040;stroke-width:1.2;"/><text fill="#000000" font-family="sans-serif" font-size="36" lengthAdjust="spacing" textLength="244.1602" x="3906.69" y="601.9805">hasComponent</text><text fill="#000000" font-family="sans-serif" font-size="36" lengthAdjust="spacing" textLength="54.0352" x="3855.3842" y="719.6837">0..*</text></g><!--link PrimaryKey to RepresentedVariable--><g class="link" data-entity-1="ent0016" data-entity-2="ent0004" data-link-type="dependency" data-source-line="65" id="lnk51"><path codeLine="65" d="M5547.29,1128.7094 C5556.86,1166.1294 5578.33,1241.7594 5608.69,1300.6094 C5633.18,1348.0794 5667.7004,1392.7505 5690.9404,1420.7805" fill="none" id="PrimaryKey-to-RepresentedVariable" style="stroke:#404040;stroke-width:1.2;"/><polygon fill="#404040" points="5694.77,1425.3994,5692.1049,1415.918,5691.5787,1421.5503,5685.9464,1421.0241,5694.77,1425.3994" style="stroke:#404040;stroke-width:1.2;"/><text fill="#000000" font-family="sans-serif" font-size="36" lengthAdjust="spacing" textLength="238.0957" x="5609.69" y="1291.9805">isComposedOf</text><text fill="#000000" font-family="sans-serif" font-size="36" lengthAdjust="spacing" textLength="54.0352" x="5632.7215" y="1409.7892">1..*</text></g><!--link ForeignKey to RepresentedVariable--><g class="link" data-entity-1="ent0017" data-entity-2="ent0004" data-link-type="dependency" data-source-line="66" id="lnk52"><path codeLine="66" d="M5880.85,783.6594 C5893.67,860.6494 5927.21,1114.5294 5849.69,1300.6094 C5827.76,1353.2594 5783.1933,1395.4263 5750.6433,1421.6363" fill="none" id="ForeignKey-to-RepresentedVariable" style="stroke:#404040;stroke-width:1.2;"/><polygon fill="#404040" points="5745.97,1425.3994,5755.4886,1422.8703,5749.8644,1422.2635,5750.4712,1416.6393,5745.97,1425.3994" style="stroke:#404040;stroke-width:1.2;"/><text fill="#000000" font-family="sans-serif" font-size="36" lengthAdjust="spacing" textLength="238.0957" x="5896.69" y="1119.4805">isComposedOf</text><text fill="#000000" font-family="sans-serif" font-size="36" lengthAdjust="spacing" textLength="54.0352" x="5756.0027" y="1409.7892">1..*</text></g><!--link ForeignKey to PrimaryKey--><g class="link" data-entity-1="ent0017" data-entity-2="ent0016" data-link-type="dependency" data-source-line="67" id="lnk53"><path codeLine="67" d="M5838.03,783.7694 C5795.45,810.4594 5726.44,857.2694 5676.69,908.6094 C5623.25,963.7594 5578.9806,1036.825 5557.2706,1075.265" fill="none" id="ForeignKey-to-PrimaryKey" style="stroke:#404040;stroke-width:1.2;"/><polygon fill="#404040" points="5554.32,1080.4894,5562.2288,1074.6199,5556.7788,1076.1357,5555.263,1070.6858,5554.32,1080.4894" style="stroke:#404040;stroke-width:1.2;"/><text fill="#000000" font-family="sans-serif" font-size="36" lengthAdjust="spacing" textLength="170.0859" x="5677.69" y="946.9805">references</text><text fill="#000000" font-family="sans-serif" font-size="36" lengthAdjust="spacing" textLength="60.0469" x="5561.9155" y="1064.605">0..1</text></g><?plantuml-src fPRVRjiW5CRl_HGelQkKA6dNNUHYKfi_KxLDczgfkoRsIKA3mGBSA9icxI7sX7kI4LknCHYRjCfD-0w_O-1ynrWHHG7DvlVBELRuKOayLha0zE_FNyHVGBmGs4TRaW2AYOWfbFyXpTG1fP2kGCX8xWZBiC0fabkSy3rX6xJ6L88HkHM2xxzlIRnZ82MQZAwCeC1i9o53LpTZGsKyWK8rnGJMEATgoPbw93y1NRytWZ75ElUl29MFct7A1RfuDpx-j7Z7HGB2LirK6bHAa5Mke9R7qUyeAbCFZeSqvtj6EKu624ja2kXYkLWkPelJv9cEKRvvW5W_k9ZTKEpf3v09lM6c87d2Wk0LXG9gqJLwkxYPNvlBgcfNhQkkfZsTfC0auGpJ5j8Jj9DyvcpZqevgOp-qVrpCKRrB_YXudZKNMaWsS9_e4oDhSYnucd6cHmNLejle5y1IBw79sQ8DLSPfOgxitLaJT6KRF9bX3Z8M95FSscb7t9Vg2TCSshCqGtQ2RuAaM1m-mQ60wg4zSSa5a0qxJQo7rSH6Hms77z1WF1fD1bRlJ97CLyyGgwzhBz4qr1GHMOsIkuCVypL0S0Qt2O9Hjn5QqJfyEHmMxEMWrTfJjCMo6lfPnzwXO8l1Gz4MYuUYNTu-DuVbx21SLyhmU87KO_yZ3RiNJ3sElAuxiy01QNfh7P0ZeEoTMIQX3kXRIqyb0hRIKHItaSl51vN23v_XtluatVRryA55zEFTv-w-niwpSIVVvzzEk7_FVlmDUmxf_F8xvfNzxi31NUwGP_Ism_Ptj762nRrNlWdQFdAFDr_1IKZqDMySuTl0baeAM8C05eEC_WC0?></g></svg>