<svg xmlns="http://www.w3.org/2000/svg" xmlns:xlink="http://www.w3.org/1999/xlink" contentStyleType="text/css" data-diagram-type="CLASS" height="649px" preserveAspectRatio="none" style="width:283px;height:649px;background:#FFFFFF;" version="1.1" viewBox="0 0 283 649" width="283px" zoomAndPan="magnify"><?plantuml 1.2026.3?><defs/><g><g class="title" data-source-line="1"><text fill="#000000" font-family="sans-serif" font-size="14" font-weight="700" lengthAdjust="spacing" textLength="216.7266" x="29.9058" y="24.5332">cdifConceptScheme &#8212; overview</text></g><!--class ConceptScheme--><g class="entity" data-qualified-name="ConceptScheme" data-source-line="15" id="ent0002"><rect fill="#FEFECE" height="25.0938" rx="2.5" ry="2.5" style="stroke:#404040;stroke-width:0.5;" width="94.7168" x="138.5" y="45.6094"/><text fill="#000000" font-family="sans-serif" font-size="12" lengthAdjust="spacing" textLength="88.7168" x="141.5" y="63.0664">ConceptScheme</text></g><!--class Concept--><g class="entity" data-qualified-name="Concept" data-source-line="17" id="ent0003"><rect fill="#FEFECE" height="25.0938" rx="2.5" ry="2.5" style="stroke:#404040;stroke-width:0.5;" width="50.6953" x="73.5" y="320.6094"/><text fill="#000000" font-family="sans-serif" font-size="12" lengthAdjust="spacing" textLength="44.6953" x="76.5" y="338.0664">Concept</text></g><!--class ConceptRef--><g class="entity" data-qualified-name="ConceptRef" data-source-line="19" id="ent0004"><rect fill="#FEFECE" height="25.0938" rx="2.5" ry="2.5" style="stroke:#404040;stroke-width:0.5;" width="69.3691" x="31.5" y="603.1094"/><text fill="#000000" font-family="sans-serif" font-size="12" lengthAdjust="spacing" textLength="63.3691" x="34.5" y="620.5664">ConceptRef</text></g><!--class LanguageTaggedValue--><g class="entity" data-qualified-name="LanguageTaggedValue" data-source-line="21" id="ent0005"><rect fill="#FAE5D3" height="40.1875" rx="2.5" ry="2.5" style="stroke:#404040;stroke-width:0.5;" width="130.7813" x="120.5" y="595.6094"/><text fill="#000000" font-family="sans-serif" font-size="12" font-style="italic" lengthAdjust="spacing" textLength="63.3809" x="154.2002" y="613.0664">&#171;dataType&#187;</text><text fill="#000000" font-family="sans-serif" font-size="12" lengthAdjust="spacing" textLength="124.7813" x="123.5" y="628.1602">LanguageTaggedValue</text></g><!--link ConceptScheme to LanguageTaggedValue--><g class="link" data-entity-1="ent0002" data-entity-2="ent0005" data-link-type="dependency" data-source-line="23" id="lnk6"><path codeLine="23" d="M157.5,70.7994 C157.5,143.4094 157.5,500.0694 157.5,589.5994" fill="none" id="ConceptScheme-to-LanguageTaggedValue" style="stroke:#404040;stroke-width:1.2;"/><polygon fill="#404040" points="157.5,595.5994,161.5,586.5994,157.5,590.5994,153.5,586.5994,157.5,595.5994" style="stroke:#404040;stroke-width:1.2;"/><text fill="#000000" font-family="sans-serif" font-size="13" lengthAdjust="spacing" textLength="54.209" x="158.5" y="329.6945">prefLabel</text><text fill="#000000" font-family="sans-serif" font-size="13" lengthAdjust="spacing" textLength="7.23" x="141.1659" y="584.8907">1</text></g><!--link ConceptScheme to LanguageTaggedValue--><g class="link" data-entity-1="ent0002" data-entity-2="ent0005" data-link-type="dependency" data-source-line="24" id="lnk7"><path codeLine="24" d="M176.5,70.7994 C176.5,143.4094 176.5,500.0694 176.5,589.5994" fill="none" id="ConceptScheme-to-LanguageTaggedValue-1" style="stroke:#404040;stroke-width:1.2;"/><polygon fill="#404040" points="176.5,595.5994,180.5,586.5994,176.5,590.5994,172.5,586.5994,176.5,595.5994" style="stroke:#404040;stroke-width:1.2;"/><text fill="#000000" font-family="sans-serif" font-size="13" lengthAdjust="spacing" textLength="45.5381" x="130.5" y="347.6945">altLabel</text><text fill="#000000" font-family="sans-serif" font-size="13" lengthAdjust="spacing" textLength="21.6836" x="176.9263" y="584.8907">0..1</text></g><!--link ConceptScheme to LanguageTaggedValue--><g class="link" data-entity-1="ent0002" data-entity-2="ent0005" data-link-type="dependency" data-source-line="25" id="lnk8"><path codeLine="25" d="M214.5,70.7994 C214.5,143.4094 214.5,500.0694 214.5,589.5994" fill="none" id="ConceptScheme-to-LanguageTaggedValue-2" style="stroke:#404040;stroke-width:1.2;"/><polygon fill="#404040" points="214.5,595.5994,218.5,586.5994,214.5,590.5994,210.5,586.5994,214.5,595.5994" style="stroke:#404040;stroke-width:1.2;"/><text fill="#000000" font-family="sans-serif" font-size="13" lengthAdjust="spacing" textLength="52.0381" x="215.5" y="329.6945">definition</text><text fill="#000000" font-family="sans-serif" font-size="13" lengthAdjust="spacing" textLength="7.23" x="214.9097" y="584.8907">1</text></g><!--link ConceptScheme to LanguageTaggedValue--><g class="link" data-entity-1="ent0002" data-entity-2="ent0005" data-link-type="dependency" data-source-line="26" id="lnk9"><path codeLine="26" d="M195.5,70.7994 C195.5,143.4094 195.5,500.0694 195.5,589.5994" fill="none" id="ConceptScheme-to-LanguageTaggedValue-3" style="stroke:#404040;stroke-width:1.2;"/><polygon fill="#404040" points="195.5,595.5994,199.5,586.5994,195.5,590.5994,191.5,586.5994,195.5,595.5994" style="stroke:#404040;stroke-width:1.2;"/><text fill="#000000" font-family="sans-serif" font-size="13" lengthAdjust="spacing" textLength="25.3018" x="196.5" y="347.6945">note</text><text fill="#000000" font-family="sans-serif" font-size="13" lengthAdjust="spacing" textLength="21.6836" x="201.5075" y="584.8907">0..1</text></g><!--link ConceptScheme to Concept--><g class="link" data-entity-1="ent0002" data-entity-2="ent0003" data-link-type="dependency" data-source-line="27" id="lnk10"><path codeLine="27" d="M138.43,58.6094 C118.12,58.6094 99,58.6094 99,58.6094 C99,58.6094 99,260.8994 99,314.5994" fill="none" id="ConceptScheme-to-Concept" style="stroke:#404040;stroke-width:1.2;"/><polygon fill="#404040" points="99,320.5994,103,311.5994,99,315.5994,95,311.5994,99,320.5994" style="stroke:#404040;stroke-width:1.2;"/><text fill="#000000" font-family="sans-serif" font-size="13" lengthAdjust="spacing" textLength="91.7808" x="7" y="166.3845">hasTopConcept</text><text fill="#000000" font-family="sans-serif" font-size="13" lengthAdjust="spacing" textLength="19.5127" x="76.2498" y="309.6873">1..*</text></g><!--link Concept to LanguageTaggedValue--><g class="link" data-entity-1="ent0003" data-entity-2="ent0005" data-link-type="dependency" data-source-line="28" id="lnk11"><path codeLine="28" d="M110.5,345.9594 C110.5,399.1994 110.5,599.6094 110.5,599.6094 C110.5,599.6094 108.38,599.6094 114.37,599.6094" fill="none" id="Concept-to-LanguageTaggedValue" style="stroke:#404040;stroke-width:1.2;"/><polygon fill="#404040" points="120.37,599.6094,111.37,595.6094,115.37,599.6094,111.37,603.6094,120.37,599.6094" style="stroke:#404040;stroke-width:1.2;"/><text fill="#000000" font-family="sans-serif" font-size="13" lengthAdjust="spacing" textLength="54.209" x="111.5" y="492.2145">prefLabel</text><text fill="#000000" font-family="sans-serif" font-size="13" lengthAdjust="spacing" textLength="7.23" x="105.4028" y="594.339">1</text></g><!--link Concept to LanguageTaggedValue--><g class="link" data-entity-1="ent0003" data-entity-2="ent0005" data-link-type="dependency" data-source-line="29" id="lnk12"><path codeLine="29" d="M105.5,345.8694 C105.5,398.6994 105.5,597.6094 105.5,597.6094 C105.5,597.6094 105.52,597.6094 114.26,597.6094" fill="none" id="Concept-to-LanguageTaggedValue-1" style="stroke:#404040;stroke-width:1.2;"/><polygon fill="#404040" points="120.26,597.6094,111.26,593.6094,115.26,597.6094,111.26,601.6094,120.26,597.6094" style="stroke:#404040;stroke-width:1.2;"/><text fill="#000000" font-family="sans-serif" font-size="13" lengthAdjust="spacing" textLength="52.0381" x="106.5" y="475.6145">definition</text><text fill="#000000" font-family="sans-serif" font-size="13" lengthAdjust="spacing" textLength="21.6836" x="91.0805" y="605.6994">0..1</text></g><!--link Concept to LanguageTaggedValue--><g class="link" data-entity-1="ent0003" data-entity-2="ent0005" data-link-type="dependency" data-source-line="30" id="lnk13"><path codeLine="30" d="M115.5,345.6994 C115.5,398.7794 115.5,601.6094 115.5,601.6094 C115.5,601.6094 111.22,601.6094 114.13,601.6094" fill="none" id="Concept-to-LanguageTaggedValue-2" style="stroke:#404040;stroke-width:1.2;"/><polygon fill="#404040" points="120.13,601.6094,111.13,597.6094,115.13,601.6094,111.13,605.6094,120.13,601.6094" style="stroke:#404040;stroke-width:1.2;"/><text fill="#000000" font-family="sans-serif" font-size="13" lengthAdjust="spacing" textLength="25.3018" x="89.5" y="490.4645">note</text><text fill="#000000" font-family="sans-serif" font-size="13" lengthAdjust="spacing" textLength="21.6836" x="90.6111" y="587.3236">0..1</text></g><!--link Concept to ConceptRef--><g class="link" data-entity-1="ent0003" data-entity-2="ent0004" data-link-type="dependency" data-source-line="31" id="lnk14"><path codeLine="31" d="M91.5,345.6094 C91.5,392.2794 91.5,549.9694 91.5,596.9294" fill="none" id="Concept-to-ConceptRef" style="stroke:#404040;stroke-width:1.2;"/><polygon fill="#404040" points="91.5,602.9294,95.5,593.9294,91.5,597.9294,87.5,593.9294,91.5,602.9294" style="stroke:#404040;stroke-width:1.2;"/><text fill="#000000" font-family="sans-serif" font-size="13" lengthAdjust="spacing" textLength="44.8081" x="46.5" y="470.7645">broader</text><text fill="#000000" font-family="sans-serif" font-size="13" lengthAdjust="spacing" textLength="19.5127" x="78.8283" y="592.3325">0..*</text></g><!--link Concept to ConceptRef--><g class="link" data-entity-1="ent0003" data-entity-2="ent0004" data-link-type="dependency" data-source-line="32" id="lnk15"><path codeLine="32" d="M82.5,345.6094 C82.5,392.2794 82.5,549.9694 82.5,596.9294" fill="none" id="Concept-to-ConceptRef-1" style="stroke:#404040;stroke-width:1.2;"/><polygon fill="#404040" points="82.5,602.9294,86.5,593.9294,82.5,597.9294,78.5,593.9294,82.5,602.9294" style="stroke:#404040;stroke-width:1.2;"/><text fill="#000000" font-family="sans-serif" font-size="13" lengthAdjust="spacing" textLength="51.2954" x="30.5" y="488.7645">narrower</text><text fill="#000000" font-family="sans-serif" font-size="13" lengthAdjust="spacing" textLength="19.5127" x="92.7658" y="592.3325">0..*</text></g><?plantuml-src bLBBRi8m4BpxArRXLea8QBaWX4HfE74gKUzBl4ai73ko3OXMbVeH_S9-IKFJKWE94FB5EpkpZz4wuIH1maKwqogXqYsJd0g2huzFq5ioMq4xbWjUSOH99DL_AagtXuAA5HdBx5ge4WqMO7FaUYTK1YbAIrvcQepUnRb8regiXNuuy986rTfI2ODXpqELvlI3-g0KYjo-9D36vTfB91AhkcyCwbOpBRM1paFly2hmKHjEvXoTQ-MMufMWFs3lZDKrWXCd0a0Bfzvqvj4ycaNdV9_PndccrATLuGLpWIhRO4OnPXdn5vIRUeO67CPZZWxZoe_9f2eqZOPFzuoTJjljJY3e1utw4PI6qWMkI3QfUc7OAaJfMdMj8awfKC89hMvjfxIZnbPXU1SSNHz1ZZRMvM_y9xZLW-lZN2vosmf7zl_mXriOmSfeh0xrAa_XuSh9V0C0?></g></svg>