<svg xmlns="http://www.w3.org/2000/svg" xmlns:xlink="http://www.w3.org/1999/xlink" contentStyleType="text/css" data-diagram-type="CLASS" height="305px" preserveAspectRatio="none" style="width:664px;height:305px;background:#FFFFFF;" version="1.1" viewBox="0 0 664 305" width="664px" zoomAndPan="magnify"><?plantuml 1.2026.3?><defs/><g><g class="title" data-source-line="1"><text fill="#000000" font-family="sans-serif" font-size="14" font-weight="700" lengthAdjust="spacing" textLength="216.7266" x="220.2726" y="24.5332">cdifConceptScheme &#8212; overview</text></g><!--class ConceptScheme--><g class="entity" data-qualified-name="ConceptScheme" data-source-line="12" id="ent0002"><rect fill="#FEFECE" height="25.0938" rx="2.5" ry="2.5" style="stroke:#404040;stroke-width:0.5;" width="94.7168" x="478.47" y="45.6094"/><text fill="#000000" font-family="sans-serif" font-size="12" lengthAdjust="spacing" textLength="88.7168" x="481.47" y="63.0664">ConceptScheme</text></g><!--class Concept--><g class="entity" data-qualified-name="Concept" data-source-line="14" id="ent0003"><rect fill="#FEFECE" height="25.0938" rx="2.5" ry="2.5" style="stroke:#404040;stroke-width:0.5;" width="50.6953" x="187.47" y="148.6094"/><text fill="#000000" font-family="sans-serif" font-size="12" lengthAdjust="spacing" textLength="44.6953" x="190.47" y="166.0664">Concept</text></g><!--class ConceptRef--><g class="entity" data-qualified-name="ConceptRef" data-source-line="16" id="ent0004"><rect fill="#FEFECE" height="25.0938" rx="2.5" ry="2.5" style="stroke:#404040;stroke-width:0.5;" width="69.3691" x="32.47" y="259.1094"/><text fill="#000000" font-family="sans-serif" font-size="12" lengthAdjust="spacing" textLength="63.3691" x="35.47" y="276.5664">ConceptRef</text></g><!--class LanguageTaggedValue--><g class="entity" data-qualified-name="LanguageTaggedValue" data-source-line="18" id="ent0005"><rect fill="#FAE5D3" height="40.1875" rx="2.5" ry="2.5" style="stroke:#404040;stroke-width:0.5;" width="130.7813" x="377.47" y="251.6094"/><text fill="#000000" font-family="sans-serif" font-size="12" font-style="italic" lengthAdjust="spacing" textLength="63.3809" x="411.1702" y="269.0664">&#171;dataType&#187;</text><text fill="#000000" font-family="sans-serif" font-size="12" lengthAdjust="spacing" textLength="124.7813" x="380.47" y="284.1602">LanguageTaggedValue</text></g><!--link ConceptScheme to LanguageTaggedValue--><g class="link" data-entity-1="ent0002" data-entity-2="ent0005" data-link-type="dependency" data-source-line="20" id="lnk6"><path codeLine="20" d="M504.95,70.6894 C480.92,85.2794 442.86,112.8194 426.97,148.6094 C411.89,182.5794 422.5027,221.1462 432.2627,245.9462" fill="none" id="ConceptScheme-to-LanguageTaggedValue" style="stroke:#404040;stroke-width:1.2;"/><polygon fill="#404040" points="434.46,251.5294,434.8862,241.6897,432.629,246.8767,427.442,244.6194,434.46,251.5294" style="stroke:#404040;stroke-width:1.2;"/><text fill="#000000" font-family="sans-serif" font-size="13" lengthAdjust="spacing" textLength="54.209" x="427.97" y="166.6045">prefLabel</text><text fill="#000000" font-family="sans-serif" font-size="13" lengthAdjust="spacing" textLength="7.23" x="423.998" y="240.8001">1</text></g><!--link ConceptScheme to LanguageTaggedValue--><g class="link" data-entity-1="ent0002" data-entity-2="ent0005" data-link-type="dependency" data-source-line="21" id="lnk7"><path codeLine="21" d="M522.46,70.6194 C516.03,91.4094 501.66,136.5094 486.97,173.6094 C476.08,201.1194 464.207,226.7205 454.897,246.1105" fill="none" id="ConceptScheme-to-LanguageTaggedValue-1" style="stroke:#404040;stroke-width:1.2;"/><polygon fill="#404040" points="452.3,251.5194,459.8014,245.1375,454.4642,247.012,452.5896,241.6748,452.3,251.5194" style="stroke:#404040;stroke-width:1.2;"/><text fill="#000000" font-family="sans-serif" font-size="13" lengthAdjust="spacing" textLength="45.5381" x="496.97" y="166.6045">altLabel</text><text fill="#000000" font-family="sans-serif" font-size="13" lengthAdjust="spacing" textLength="21.6836" x="458.2576" y="240.7872">0..1</text></g><!--link ConceptScheme to LanguageTaggedValue--><g class="link" data-entity-1="ent0002" data-entity-2="ent0005" data-link-type="dependency" data-source-line="22" id="lnk8"><path codeLine="22" d="M533.05,70.6394 C545.09,91.8494 566.8,138.1194 550.97,173.6094 C535.78,207.6794 507.0851,231.4909 481.3351,248.2909" fill="none" id="ConceptScheme-to-LanguageTaggedValue-2" style="stroke:#404040;stroke-width:1.2;"/><polygon fill="#404040" points="476.31,251.5694,486.0333,250.0017,480.4976,248.8373,481.662,243.3016,476.31,251.5694" style="stroke:#404040;stroke-width:1.2;"/><text fill="#000000" font-family="sans-serif" font-size="13" lengthAdjust="spacing" textLength="52.0381" x="556.97" y="166.6045">definition</text><text fill="#000000" font-family="sans-serif" font-size="13" lengthAdjust="spacing" textLength="7.23" x="487.1977" y="240.8518">1</text></g><!--link ConceptScheme to LanguageTaggedValue--><g class="link" data-entity-1="ent0002" data-entity-2="ent0005" data-link-type="dependency" data-source-line="23" id="lnk9"><path codeLine="23" d="M547.77,70.6794 C581.42,90.1794 639.94,131.5694 617.97,173.6094 C596.25,215.1694 554.4405,237.8798 514.4105,251.9498" fill="none" id="ConceptScheme-to-LanguageTaggedValue-3" style="stroke:#404040;stroke-width:1.2;"/><polygon fill="#404040" points="508.75,253.9394,518.5672,254.7287,513.4671,252.2814,515.9144,247.1813,508.75,253.9394" style="stroke:#404040;stroke-width:1.2;"/><text fill="#000000" font-family="sans-serif" font-size="13" lengthAdjust="spacing" textLength="25.3018" x="622.97" y="166.6045">note</text><text fill="#000000" font-family="sans-serif" font-size="13" lengthAdjust="spacing" textLength="21.6836" x="516.3032" y="248.9157">0..1</text></g><!--link ConceptScheme to Concept--><g class="link" data-entity-1="ent0002" data-entity-2="ent0003" data-link-type="dependency" data-source-line="24" id="lnk10"><path codeLine="24" d="M478.08,59.5994 C426.95,61.8194 344.69,70.3594 280.97,100.6094 C256.88,112.0494 238.7561,130.0184 226.6361,143.8384" fill="none" id="ConceptScheme-to-Concept" style="stroke:#404040;stroke-width:1.2;"/><polygon fill="#404040" points="222.68,148.3494,231.6215,144.2203,225.9768,144.5902,225.6068,138.9455,222.68,148.3494" style="stroke:#404040;stroke-width:1.2;"/><text fill="#000000" font-family="sans-serif" font-size="13" lengthAdjust="spacing" textLength="91.7808" x="281.97" y="115.1045">hasTopConcept</text><text fill="#000000" font-family="sans-serif" font-size="13" lengthAdjust="spacing" textLength="19.5127" x="203.9236" y="137.721">1..*</text></g><!--link Concept to LanguageTaggedValue--><g class="link" data-entity-1="ent0003" data-entity-2="ent0005" data-link-type="dependency" data-source-line="25" id="lnk11"><path codeLine="25" d="M205.16,173.9594 C197.62,187.0394 188.85,208.0294 199.97,221.6094 C222.02,248.5394 307.2322,260.4842 371.4022,266.0142" fill="none" id="Concept-to-LanguageTaggedValue" style="stroke:#404040;stroke-width:1.2;"/><polygon fill="#404040" points="377.38,266.5294,368.7567,261.7714,372.3985,266.1001,368.0698,269.7419,377.38,266.5294" style="stroke:#404040;stroke-width:1.2;"/><text fill="#000000" font-family="sans-serif" font-size="13" lengthAdjust="spacing" textLength="54.209" x="200.97" y="218.1045">prefLabel</text><text fill="#000000" font-family="sans-serif" font-size="13" lengthAdjust="spacing" textLength="7.23" x="362.4174" y="280.3716">1</text></g><!--link Concept to LanguageTaggedValue--><g class="link" data-entity-1="ent0003" data-entity-2="ent0005" data-link-type="dependency" data-source-line="26" id="lnk12"><path codeLine="26" d="M226.53,173.7994 C242.31,186.9294 269.6,208.1494 295.97,221.6094 C321.49,234.6294 345.4862,243.5321 371.5062,251.5521" fill="none" id="Concept-to-LanguageTaggedValue-1" style="stroke:#404040;stroke-width:1.2;"/><polygon fill="#404040" points="377.24,253.3194,369.8175,246.8459,372.4618,251.8466,367.4611,254.491,377.24,253.3194" style="stroke:#404040;stroke-width:1.2;"/><text fill="#000000" font-family="sans-serif" font-size="13" lengthAdjust="spacing" textLength="52.0381" x="296.97" y="218.1045">definition</text><text fill="#000000" font-family="sans-serif" font-size="13" lengthAdjust="spacing" textLength="21.6836" x="347.9517" y="247.948">0..1</text></g><!--link Concept to LanguageTaggedValue--><g class="link" data-entity-1="ent0003" data-entity-2="ent0005" data-link-type="dependency" data-source-line="27" id="lnk13"><path codeLine="27" d="M238.7,166.7794 C267.78,172.7094 316.01,184.5294 353.97,203.6094 C379.37,216.3794 400.4171,232.6384 417.5871,247.5284" fill="none" id="Concept-to-LanguageTaggedValue-2" style="stroke:#404040;stroke-width:1.2;"/><polygon fill="#404040" points="422.12,251.4594,417.9413,242.5409,418.3426,248.1835,412.7,248.5848,422.12,251.4594" style="stroke:#404040;stroke-width:1.2;"/><text fill="#000000" font-family="sans-serif" font-size="13" lengthAdjust="spacing" textLength="25.3018" x="383.97" y="218.1045">note</text><text fill="#000000" font-family="sans-serif" font-size="13" lengthAdjust="spacing" textLength="21.6836" x="392.0435" y="240.7095">0..1</text></g><!--link Concept to ConceptRef--><g class="link" data-entity-1="ent0003" data-entity-2="ent0004" data-link-type="dependency" data-source-line="28" id="lnk14"><path codeLine="28" d="M187.2,163.7894 C139.76,167.4694 41.58,178.0694 20.97,203.6094 C6,222.1694 26.0022,241.8703 44.6222,255.5303" fill="none" id="Concept-to-ConceptRef" style="stroke:#404040;stroke-width:1.2;"/><polygon fill="#404040" points="49.46,259.0794,44.5694,250.5306,45.4285,256.1218,39.8373,256.9809,49.46,259.0794" style="stroke:#404040;stroke-width:1.2;"/><text fill="#000000" font-family="sans-serif" font-size="13" lengthAdjust="spacing" textLength="44.8081" x="21.97" y="218.1045">broader</text><text fill="#000000" font-family="sans-serif" font-size="13" lengthAdjust="spacing" textLength="19.5127" x="19.348" y="248.159">0..*</text></g><!--link Concept to ConceptRef--><g class="link" data-entity-1="ent0003" data-entity-2="ent0004" data-link-type="dependency" data-source-line="29" id="lnk15"><path codeLine="29" d="M187.41,167.1494 C164.27,172.7694 130.34,183.8094 106.97,203.6094 C88.99,218.8494 79.1807,238.7415 73.3307,253.5015" fill="none" id="Concept-to-ConceptRef-1" style="stroke:#404040;stroke-width:1.2;"/><polygon fill="#404040" points="71.12,259.0794,78.1547,252.1864,72.9623,254.4312,70.7175,249.2387,71.12,259.0794" style="stroke:#404040;stroke-width:1.2;"/><text fill="#000000" font-family="sans-serif" font-size="13" lengthAdjust="spacing" textLength="51.2954" x="107.97" y="218.1045">narrower</text><text fill="#000000" font-family="sans-serif" font-size="13" lengthAdjust="spacing" textLength="19.5127" x="49.9427" y="248.159">0..*</text></g><?plantuml-src bPBDQi904CVl-nH3l1KCQjkBY63JvEIfXjx7x2HPtEo6tLMnfT27w1FsIHf9QnDD4DdBpiplFr-C4quI95oaWLO9bMwLv5GGV7z-WTwHsGdQirpmYX4caLJ_gIZT0GegrcGiinkXIZHOWCsHwxrG6QGeBJKY2sFqFiv5ib5aBOpzIIEOIAnyxmngBD1I6nWyZ8wlSZvfmycSUoEjt4gy4Omdx8EnEeVNci83jD2UQn25KHY4vtoJx6DUA6rYbNb1Bb5bMymenYmZ_efoM_VGuOVPZAF3-53IV5ubMeIFp_UCjRiT3kVWZRrE_HHAG-aIroIxL2FVxnMYTBswNX6dL2ZXX5QtbbFQKMSftx_pJbkVGeusrkMl_IUuTGVNsxaSvBOHJlH_yyTRcCBQQAmEzIgdy7ZbP7u0?></g></svg>