<svg xmlns="http://www.w3.org/2000/svg" xmlns:xlink="http://www.w3.org/1999/xlink" contentStyleType="text/css" data-diagram-type="CLASS" height="842px" preserveAspectRatio="none" style="width:1352px;height:842px;background:#FFFFFF;" version="1.1" viewBox="0 0 1352 842" width="1352px" zoomAndPan="magnify"><?plantuml 1.2026.3?><defs/><g><g class="title" data-source-line="1"><text fill="#000000" font-family="sans-serif" font-size="14" font-weight="700" lengthAdjust="spacing" textLength="216.7266" x="564.4699" y="24.5332">cdifConceptScheme &#8212; overview</text></g><!--class ConceptScheme--><g class="entity" data-qualified-name="ConceptScheme" data-source-line="16" id="ent0002"><rect fill="#FEFECE" height="47.7344" rx="2.5" ry="2.5" style="stroke:#404040;stroke-width:0.5;" width="227.792" x="860.6" y="45.6094"/><text fill="#000000" font-family="sans-serif" font-size="30" lengthAdjust="spacing" textLength="221.792" x="863.6" y="81.752">ConceptScheme</text></g><!--class Concept--><g class="entity" data-qualified-name="Concept" data-source-line="18" id="ent0003"><rect fill="#FEFECE" height="47.7344" rx="2.5" ry="2.5" style="stroke:#404040;stroke-width:0.5;" width="117.7383" x="328.6" y="390.6094"/><text fill="#000000" font-family="sans-serif" font-size="30" lengthAdjust="spacing" textLength="111.7383" x="331.6" y="426.752">Concept</text></g><!--class ConceptRef--><g class="entity" data-qualified-name="ConceptRef" data-source-line="20" id="ent0004"><rect fill="#FEFECE" height="47.7344" rx="2.5" ry="2.5" style="stroke:#404040;stroke-width:0.5;" width="164.4229" x="40.6" y="758.1094"/><text fill="#000000" font-family="sans-serif" font-size="30" lengthAdjust="spacing" textLength="158.4229" x="43.6" y="794.252">ConceptRef</text></g><!--class LanguageTaggedValue--><g class="entity" data-qualified-name="LanguageTaggedValue" data-source-line="22" id="ent0005"><rect fill="#FAE5D3" height="93.0156" rx="2.5" ry="2.5" style="stroke:#404040;stroke-width:0.5;" width="317.9531" x="644.6" y="735.6094"/><text fill="#000000" font-family="sans-serif" font-size="36" font-style="italic" lengthAdjust="spacing" textLength="190.1426" x="708.5053" y="777.9805">&#171;dataType&#187;</text><text fill="#000000" font-family="sans-serif" font-size="30" lengthAdjust="spacing" textLength="311.9531" x="647.6" y="817.0332">LanguageTaggedValue</text></g><!--link ConceptScheme to LanguageTaggedValue--><g class="link" data-entity-1="ent0002" data-entity-2="ent0005" data-link-type="dependency" data-source-line="24" id="lnk6"><path codeLine="24" d="M956.3,93.6994 C917.72,144.0294 829.02,268.8894 797.6,390.6094 C781.12,454.4594 792.696,640.7166 799.426,729.3966" fill="none" id="ConceptScheme-to-LanguageTaggedValue" style="stroke:#404040;stroke-width:1.2;"/><polygon fill="#404040" points="799.88,735.3794,803.1875,726.1025,799.5016,730.3937,795.2104,726.7079,799.88,735.3794" style="stroke:#404040;stroke-width:1.2;"/><text fill="#000000" font-family="sans-serif" font-size="36" lengthAdjust="spacing" textLength="150.1172" x="798.6" y="429.4805">prefLabel</text><text fill="#000000" font-family="sans-serif" font-size="36" lengthAdjust="spacing" textLength="20.0215" x="778.2976" y="719.7611">1</text></g><!--link ConceptScheme to LanguageTaggedValue--><g class="link" data-entity-1="ent0002" data-entity-2="ent0005" data-link-type="dependency" data-source-line="25" id="lnk7"><path codeLine="25" d="M975.78,93.8394 C978.2,152.5494 981.12,311.2894 950.6,438.6094 C923.87,550.1394 866.5244,666.1364 832.0344,730.1964" fill="none" id="ConceptScheme-to-LanguageTaggedValue-1" style="stroke:#404040;stroke-width:1.2;"/><polygon fill="#404040" points="829.19,735.4794,836.9785,729.4512,831.5603,731.0769,829.9346,725.6587,829.19,735.4794" style="stroke:#404040;stroke-width:1.2;"/><text fill="#000000" font-family="sans-serif" font-size="36" lengthAdjust="spacing" textLength="126.1055" x="959.6" y="429.4805">altLabel</text><text fill="#000000" font-family="sans-serif" font-size="36" lengthAdjust="spacing" textLength="60.0469" x="835.623" y="719.8727">0..1</text></g><!--link ConceptScheme to LanguageTaggedValue--><g class="link" data-entity-1="ent0002" data-entity-2="ent0005" data-link-type="dependency" data-source-line="26" id="lnk8"><path codeLine="26" d="M992.6,93.6594 C1035.83,151.9594 1138.56,309.8094 1091.6,438.6094 C1045.77,564.3394 935.8008,672.0425 865.7608,731.6025" fill="none" id="ConceptScheme-to-LanguageTaggedValue-2" style="stroke:#404040;stroke-width:1.2;"/><polygon fill="#404040" points="861.19,735.4894,870.6374,732.7063,864.999,732.2503,865.4549,726.6119,861.19,735.4894" style="stroke:#404040;stroke-width:1.2;"/><text fill="#000000" font-family="sans-serif" font-size="36" lengthAdjust="spacing" textLength="144.1055" x="1102.6" y="429.4805">definition</text><text fill="#000000" font-family="sans-serif" font-size="36" lengthAdjust="spacing" textLength="20.0215" x="846.6965" y="719.8838">1</text></g><!--link ConceptScheme to LanguageTaggedValue--><g class="link" data-entity-1="ent0002" data-entity-2="ent0005" data-link-type="dependency" data-source-line="27" id="lnk9"><path codeLine="27" d="M1016.42,93.6794 C1110.31,148.6894 1324.26,293.8294 1252.6,438.6094 C1181.5,582.2794 1023.4562,679.4958 914.6362,732.9058" fill="none" id="ConceptScheme-to-LanguageTaggedValue-3" style="stroke:#404040;stroke-width:1.2;"/><polygon fill="#404040" points="909.25,735.5494,919.0917,735.1748,913.7385,733.3464,915.5669,727.9931,909.25,735.5494" style="stroke:#404040;stroke-width:1.2;"/><text fill="#000000" font-family="sans-serif" font-size="36" lengthAdjust="spacing" textLength="70.0664" x="1266.6" y="429.4805">note</text><text fill="#000000" font-family="sans-serif" font-size="36" lengthAdjust="spacing" textLength="60.0469" x="925.7881" y="719.52">0..1</text></g><!--link ConceptScheme to Concept--><g class="link" data-entity-1="ent0002" data-entity-2="ent0003" data-link-type="dependency" data-source-line="28" id="lnk10"><path codeLine="28" d="M860.39,84.5994 C759.63,101.8094 613.26,139.1994 510.6,218.6094 C450.61,265.0194 414.2305,343.9835 398.2305,384.7835" fill="none" id="ConceptScheme-to-Concept" style="stroke:#404040;stroke-width:1.2;"/><polygon fill="#404040" points="396.04,390.3694,403.0497,383.451,397.8654,385.7145,395.6019,380.5303,396.04,390.3694" style="stroke:#404040;stroke-width:1.2;"/><text fill="#000000" font-family="sans-serif" font-size="36" lengthAdjust="spacing" textLength="254.1621" x="511.6" y="256.9805">hasTopConcept</text><text fill="#000000" font-family="sans-serif" font-size="36" lengthAdjust="spacing" textLength="54.0352" x="338.8755" y="374.754">1..*</text></g><!--link Concept to LanguageTaggedValue--><g class="link" data-entity-1="ent0003" data-entity-2="ent0005" data-link-type="dependency" data-source-line="29" id="lnk11"><path codeLine="29" d="M376.34,438.6994 C359.08,477.7994 331.62,557.9094 367.6,610.6094 C429.35,701.0594 541.0217,742.3271 638.5117,762.2671" fill="none" id="Concept-to-LanguageTaggedValue" style="stroke:#404040;stroke-width:1.2;"/><polygon fill="#404040" points="644.39,763.4694,636.3741,757.747,639.4914,762.4674,634.771,765.5848,644.39,763.4694" style="stroke:#404040;stroke-width:1.2;"/><text fill="#000000" font-family="sans-serif" font-size="36" lengthAdjust="spacing" textLength="150.1172" x="368.6" y="601.9805">prefLabel</text><text fill="#000000" font-family="sans-serif" font-size="36" lengthAdjust="spacing" textLength="20.0215" x="616.7242" y="753.9823">1</text></g><!--link Concept to LanguageTaggedValue--><g class="link" data-entity-1="ent0003" data-entity-2="ent0005" data-link-type="dependency" data-source-line="30" id="lnk12"><path codeLine="30" d="M412.04,438.8494 C440.45,466.6994 487.63,515.6394 520.6,563.6094 C533.89,582.9394 528.95,593.1394 544.6,610.6094 C591.2,662.6394 651.8563,702.8134 705.5163,732.6534" fill="none" id="Concept-to-LanguageTaggedValue-1" style="stroke:#404040;stroke-width:1.2;"/><polygon fill="#404040" points="710.76,735.5694,704.8384,727.6995,706.3902,733.1394,700.9504,734.6912,710.76,735.5694" style="stroke:#404040;stroke-width:1.2;"/><text fill="#000000" font-family="sans-serif" font-size="36" lengthAdjust="spacing" textLength="144.1055" x="545.6" y="601.9805">definition</text><text fill="#000000" font-family="sans-serif" font-size="36" lengthAdjust="spacing" textLength="60.0469" x="635.7946" y="719.5424">0..1</text></g><!--link Concept to LanguageTaggedValue--><g class="link" data-entity-1="ent0003" data-entity-2="ent0005" data-link-type="dependency" data-source-line="31" id="lnk13"><path codeLine="31" d="M446.61,431.8494 C513.26,452.7694 621.52,494.8494 691.6,563.6094 C708.34,580.0394 704.89,589.7394 715.6,610.6094 C737.36,652.9894 759.5143,695.8896 777.2643,730.2196" fill="none" id="Concept-to-LanguageTaggedValue-2" style="stroke:#404040;stroke-width:1.2;"/><polygon fill="#404040" points="780.02,735.5494,779.4396,725.7176,777.7236,731.1079,772.3333,729.3919,780.02,735.5494" style="stroke:#404040;stroke-width:1.2;"/><text fill="#000000" font-family="sans-serif" font-size="36" lengthAdjust="spacing" textLength="70.0664" x="716.6" y="601.9805">note</text><text fill="#000000" font-family="sans-serif" font-size="36" lengthAdjust="spacing" textLength="60.0469" x="713.4957" y="719.52">0..1</text></g><!--link Concept to ConceptRef--><g class="link" data-entity-1="ent0003" data-entity-2="ent0004" data-link-type="dependency" data-source-line="32" id="lnk14"><path codeLine="32" d="M328.29,421.9694 C248.68,434.0394 110.06,468.2994 47.6,563.6094 C6,627.0794 63.6486,711.5237 98.0986,753.2237" fill="none" id="Concept-to-ConceptRef" style="stroke:#404040;stroke-width:1.2;"/><polygon fill="#404040" points="101.92,757.8494,99.2716,748.3633,98.7355,753.9947,93.1041,753.4585,101.92,757.8494" style="stroke:#404040;stroke-width:1.2;"/><text fill="#000000" font-family="sans-serif" font-size="36" lengthAdjust="spacing" textLength="124.084" x="48.6" y="601.9805">broader</text><text fill="#000000" font-family="sans-serif" font-size="36" lengthAdjust="spacing" textLength="54.0352" x="39.6917" y="742.2306">0..*</text></g><!--link Concept to ConceptRef--><g class="link" data-entity-1="ent0003" data-entity-2="ent0004" data-link-type="dependency" data-source-line="33" id="lnk15"><path codeLine="33" d="M345.77,438.6094 C303.15,464.0294 237.9,508.7094 198.6,563.6094 C175.49,595.8894 144.1362,703.0984 130.4862,752.2284" fill="none" id="Concept-to-ConceptRef-1" style="stroke:#404040;stroke-width:1.2;"/><polygon fill="#404040" points="128.88,758.0094,135.1433,750.4086,130.2185,753.1919,127.4352,748.2671,128.88,758.0094" style="stroke:#404040;stroke-width:1.2;"/><text fill="#000000" font-family="sans-serif" font-size="36" lengthAdjust="spacing" textLength="142.0488" x="199.6" y="601.9805">narrower</text><text fill="#000000" font-family="sans-serif" font-size="36" lengthAdjust="spacing" textLength="54.0352" x="134.7735" y="742.1285">0..*</text></g><?plantuml-src bLBBRi8m4BpdArRXLgbHWD83GaYKXXEd4lM-IJQ9XMD7jWEYLQL-HB-mNrBJj10W4KA-sBCpim-lOOOJn0bBvrB4L9fLd5D1yFtv1N93QiDew-GiiHocOaxrdOhIxA2W8YAb7RrceaI51UWS4xbb8eCKkQP6PAQKt8OvYzU2j8Q-DsW45OgrfX868x-12fdGBze44qgnucOXXLcnDuBXOoCOSxJUxmxKwUQIImMz1tz_BFWaLKBg76rQMQ4nYaMLeIFiEn-EKrkx9qDo0JMSZgst21R1F3ZdDvbTd1TAcpJxl60kKMGLPXHYbb7oYhogQsZ1OJ99q62uAsawjKQpOFGyT9pJQk_lf-3stLRz64f5wH8Zucqgt_CwXSXDfwvJP3-M2MQO5BUc4z9GQohFktCFKnz3ZZgKvT_xNt3h3AwNSzd8RIqSsCVYzximXaX9jFjxbITml_oaVW00?></g></svg>