<svg xmlns="http://www.w3.org/2000/svg" xmlns:xlink="http://www.w3.org/1999/xlink" contentStyleType="text/css" data-diagram-type="CLASS" height="1459px" preserveAspectRatio="none" style="width:739px;height:1459px;background:#FFFFFF;" version="1.1" viewBox="0 0 739 1459" width="739px" zoomAndPan="magnify"><?plantuml 1.2026.3?><defs/><g><g class="title" data-source-line="1"><text fill="#000000" font-family="sans-serif" font-size="14" font-weight="700" lengthAdjust="spacing" textLength="226.8574" x="252.8271" y="24.5332">BasicDataDescription &#8212; overview</text></g><!--class CompositeProfile--><g class="entity" data-qualified-name="CompositeProfile" data-source-line="15" id="ent0002"><rect fill="#FEFECE" height="25.0938" rx="2.5" ry="2.5" style="stroke:#404040;stroke-width:0.5;" width="97.3711" x="337" y="45.6094"/><text fill="#000000" font-family="sans-serif" font-size="12" font-style="italic" lengthAdjust="spacing" textLength="91.3711" x="340" y="63.0664">CompositeProfile</text></g><!--class Dataset--><g class="entity" data-qualified-name="Dataset" data-source-line="16" id="ent0003"><rect fill="#FEFECE" height="25.0938" rx="2.5" ry="2.5" style="stroke:#404040;stroke-width:0.5;" width="47.3555" x="454" y="45.6094"/><text fill="#000000" font-family="sans-serif" font-size="12" lengthAdjust="spacing" textLength="41.3555" x="457" y="63.0664">Dataset</text></g><!--class DataDownload--><g class="entity" data-qualified-name="DataDownload" data-source-line="17" id="ent0004"><rect fill="#FEFECE" height="25.0938" rx="2.5" ry="2.5" style="stroke:#404040;stroke-width:0.5;" width="84.7148" x="160" y="320.6094"/><text fill="#000000" font-family="sans-serif" font-size="12" lengthAdjust="spacing" textLength="78.7148" x="163" y="338.0664">DataDownload</text></g><!--class WebAPI--><g class="entity" data-qualified-name="WebAPI" data-source-line="18" id="ent0005"><rect fill="#FCF3CF" height="25.0938" rx="2.5" ry="2.5" style="stroke:#404040;stroke-width:0.5;" width="50.0156" x="274.5" y="320.6094"/><text fill="#000000" font-family="sans-serif" font-size="12" lengthAdjust="spacing" textLength="44.0156" x="277.5" y="338.0664">WebAPI</text></g><!--class ActionResult--><g class="entity" data-qualified-name="ActionResult" data-source-line="19" id="ent0006"><rect fill="#FCF3CF" height="25.0938" rx="2.5" ry="2.5" style="stroke:#404040;stroke-width:0.5;" width="73.3652" x="294" y="595.6094"/><text fill="#000000" font-family="sans-serif" font-size="12" lengthAdjust="spacing" textLength="67.3652" x="297" y="613.0664">ActionResult</text></g><!--class ProvActivity--><g class="entity" data-qualified-name="ProvActivity" data-source-line="20" id="ent0007"><rect fill="#FEFECE" height="25.0938" rx="2.5" ry="2.5" style="stroke:#404040;stroke-width:0.5;" width="68.6777" x="345" y="320.6094"/><text fill="#000000" font-family="sans-serif" font-size="12" lengthAdjust="spacing" textLength="62.6777" x="348" y="338.0664">ProvActivity</text></g><!--class CatalogRecord--><g class="entity" data-qualified-name="CatalogRecord" data-source-line="21" id="ent0008"><rect fill="#FEFECE" height="25.0938" rx="2.5" ry="2.5" style="stroke:#404040;stroke-width:0.5;" width="86.0449" x="434.5" y="320.6094"/><text fill="#000000" font-family="sans-serif" font-size="12" lengthAdjust="spacing" textLength="80.0449" x="437.5" y="338.0664">CatalogRecord</text></g><!--class InstanceVariable--><g class="entity" data-qualified-name="InstanceVariable" data-source-line="22" id="ent0009"><rect fill="#FCF3CF" height="25.0938" rx="2.5" ry="2.5" style="stroke:#404040;stroke-width:0.5;" width="95.3906" x="504" y="1145.6094"/><text fill="#000000" font-family="sans-serif" font-size="12" lengthAdjust="spacing" textLength="89.3906" x="507" y="1163.0664">InstanceVariable</text></g><!--class AbstractMapping--><g class="entity" data-qualified-name="AbstractMapping" data-source-line="23" id="ent0010"><rect fill="#FCF3CF" height="25.0938" rx="2.5" ry="2.5" style="stroke:#404040;stroke-width:0.5;" width="96.0469" x="277.5" y="870.6094"/><text fill="#000000" font-family="sans-serif" font-size="12" font-style="italic" lengthAdjust="spacing" textLength="90.0469" x="280.5" y="888.0664">AbstractMapping</text></g><!--class PhysicalMapping--><g class="entity" data-qualified-name="PhysicalMapping" data-source-line="24" id="ent0011"><rect fill="#FCF3CF" height="25.0938" rx="2.5" ry="2.5" style="stroke:#404040;stroke-width:0.5;" width="96.7148" x="387" y="1145.6094"/><text fill="#000000" font-family="sans-serif" font-size="12" lengthAdjust="spacing" textLength="90.7148" x="390" y="1163.0664">PhysicalMapping</text></g><!--class TextMapping--><g class="entity" data-qualified-name="TextMapping" data-source-line="25" id="ent0012"><rect fill="#FCF3CF" height="25.0938" rx="2.5" ry="2.5" style="stroke:#404040;stroke-width:0.5;" width="75.3691" x="179" y="1145.6094"/><text fill="#000000" font-family="sans-serif" font-size="12" lengthAdjust="spacing" textLength="69.3691" x="182" y="1163.0664">TextMapping</text></g><!--class LocatorMapping--><g class="entity" data-qualified-name="LocatorMapping" data-source-line="26" id="ent0013"><rect fill="#FCF3CF" height="25.0938" rx="2.5" ry="2.5" style="stroke:#404040;stroke-width:0.5;" width="92.0566" x="274.5" y="1145.6094"/><text fill="#000000" font-family="sans-serif" font-size="12" lengthAdjust="spacing" textLength="86.0566" x="277.5" y="1163.0664">LocatorMapping</text></g><!--class AbstractDataSet--><g class="entity" data-qualified-name="AbstractDataSet" data-source-line="27" id="ent0014"><rect fill="#FCF3CF" height="25.0938" rx="2.5" ry="2.5" style="stroke:#404040;stroke-width:0.5;" width="93.375" x="138" y="595.6094"/><text fill="#000000" font-family="sans-serif" font-size="12" font-style="italic" lengthAdjust="spacing" textLength="87.375" x="141" y="613.0664">AbstractDataSet</text></g><!--class TabularTextDataSet--><g class="entity" data-qualified-name="TabularTextDataSet" data-source-line="28" id="ent0015"><rect fill="#FCF3CF" height="25.0938" rx="2.5" ry="2.5" style="stroke:#404040;stroke-width:0.5;" width="113.3848" x="7" y="870.6094"/><text fill="#000000" font-family="sans-serif" font-size="12" lengthAdjust="spacing" textLength="107.3848" x="10" y="888.0664">TabularTextDataSet</text></g><!--class StructuredDataSet--><g class="entity" data-qualified-name="StructuredDataSet" data-source-line="29" id="ent0016"><rect fill="#FCF3CF" height="25.0938" rx="2.5" ry="2.5" style="stroke:#404040;stroke-width:0.5;" width="104.7188" x="140" y="870.6094"/><text fill="#000000" font-family="sans-serif" font-size="12" lengthAdjust="spacing" textLength="98.7188" x="143" y="888.0664">StructuredDataSet</text></g><!--class DataFingerprint--><g class="entity" data-qualified-name="DataFingerprint" data-source-line="30" id="ent0017"><rect fill="#FCF3CF" height="25.0938" rx="2.5" ry="2.5" style="stroke:#404040;stroke-width:0.5;" width="88.7051" x="29" y="595.6094"/><text fill="#000000" font-family="sans-serif" font-size="12" lengthAdjust="spacing" textLength="82.7051" x="32" y="613.0664">DataFingerprint</text></g><!--class PrimaryKey--><g class="entity" data-qualified-name="PrimaryKey" data-source-line="31" id="ent0018"><rect fill="#FAE5D3" height="25.0938" rx="2.5" ry="2.5" style="stroke:#404040;stroke-width:0.5;" width="68.0098" x="582.5" y="320.6094"/><text fill="#000000" font-family="sans-serif" font-size="12" lengthAdjust="spacing" textLength="62.0098" x="585.5" y="338.0664">PrimaryKey</text></g><!--class Statistics--><g class="entity" data-qualified-name="Statistics" data-source-line="32" id="ent0019"><rect fill="#FCF3CF" height="25.0938" rx="2.5" ry="2.5" style="stroke:#404040;stroke-width:0.5;" width="54.0117" x="670.5" y="320.6094"/><text fill="#000000" font-family="sans-serif" font-size="12" lengthAdjust="spacing" textLength="48.0117" x="673.5" y="338.0664">Statistics</text></g><!--class SubstantiveValueDomain--><g class="entity" data-qualified-name="SubstantiveValueDomain" data-source-line="33" id="ent0020"><rect fill="#FCF3CF" height="25.0938" rx="2.5" ry="2.5" style="stroke:#404040;stroke-width:0.5;" width="140.748" x="405" y="1420.6094"/><text fill="#000000" font-family="sans-serif" font-size="12" lengthAdjust="spacing" textLength="134.748" x="408" y="1438.0664">SubstantiveValueDomain</text></g><!--class SentinelValueDomain--><g class="entity" data-qualified-name="SentinelValueDomain" data-source-line="34" id="ent0021"><rect fill="#FCF3CF" height="25.0938" rx="2.5" ry="2.5" style="stroke:#404040;stroke-width:0.5;" width="121.4063" x="566" y="1420.6094"/><text fill="#000000" font-family="sans-serif" font-size="12" lengthAdjust="spacing" textLength="115.4063" x="569" y="1438.0664">SentinelValueDomain</text></g><!--reverse link AbstractMapping to PhysicalMapping--><g class="link" data-entity-1="ent0010" data-entity-2="ent0011" data-link-type="extension" data-source-line="35" id="lnk22"><path codeLine="35" d="M370,913.6594 C370,967.5594 370,1158.6094 370,1158.6094 C370,1158.6094 377.22,1158.6094 386.87,1158.6094" fill="none" id="AbstractMapping-backto-PhysicalMapping" style="stroke:#404040;stroke-width:1.2;"/><polygon fill="none" points="370,895.6594,364,913.6594,376,913.6594,370,895.6594" style="stroke:#404040;stroke-width:1.2;"/></g><!--reverse link AbstractMapping to TextMapping--><g class="link" data-entity-1="ent0010" data-entity-2="ent0012" data-link-type="extension" data-source-line="36" id="lnk23"><path codeLine="36" d="M259.37,883.6094 C244.29,883.6094 249.5,883.6094 249.5,883.6094 C249.5,883.6094 249.5,1091.8994 249.5,1145.5994" fill="none" id="AbstractMapping-backto-TextMapping" style="stroke:#404040;stroke-width:1.2;"/><polygon fill="none" points="277.37,883.6094,259.37,877.6094,259.37,889.6094,277.37,883.6094" style="stroke:#404040;stroke-width:1.2;"/></g><!--reverse link AbstractMapping to LocatorMapping--><g class="link" data-entity-1="ent0010" data-entity-2="ent0013" data-link-type="extension" data-source-line="37" id="lnk24"><path codeLine="37" d="M322,913.6394 C322,959.4494 322,1099.5694 322,1145.5094" fill="none" id="AbstractMapping-backto-LocatorMapping" style="stroke:#404040;stroke-width:1.2;"/><polygon fill="none" points="322,895.6394,316,913.6394,328,913.6394,322,895.6394" style="stroke:#404040;stroke-width:1.2;"/></g><!--reverse link AbstractDataSet to TabularTextDataSet--><g class="link" data-entity-1="ent0014" data-entity-2="ent0015" data-link-type="extension" data-source-line="38" id="lnk25"><path codeLine="38" d="M119.92,608.6094 C119.92,608.6094 129,883.6094 129,883.6094 C129,883.6094 125.52,883.6094 120.17,883.6094" fill="none" id="AbstractDataSet-backto-TabularTextDataSet" style="stroke:#404040;stroke-width:1.2;"/><polygon fill="none" points="137.92,608.6094,119.92,602.6094,119.92,614.6094,137.92,608.6094" style="stroke:#404040;stroke-width:1.2;"/></g><!--reverse link AbstractDataSet to StructuredDataSet--><g class="link" data-entity-1="ent0014" data-entity-2="ent0016" data-link-type="extension" data-source-line="39" id="lnk26"><path codeLine="39" d="M185.5,638.6394 C185.5,684.4494 185.5,824.5694 185.5,870.5094" fill="none" id="AbstractDataSet-backto-StructuredDataSet" style="stroke:#404040;stroke-width:1.2;"/><polygon fill="none" points="185.5,620.6394,179.5,638.6394,191.5,638.6394,185.5,620.6394" style="stroke:#404040;stroke-width:1.2;"/></g><!--link Dataset to ProvActivity--><g class="link" data-entity-1="ent0003" data-entity-2="ent0007" data-link-type="dependency" data-source-line="40" id="lnk27"><path codeLine="40" d="M477.5,70.6494 C477.5,114.5494 477.5,258.6094 477.5,258.6094 C477.5,258.6094 379.5,258.6094 379.5,258.6094 C379.5,258.6094 379.5,293.2194 379.5,314.4694" fill="none" id="Dataset-to-ProvActivity" style="stroke:#404040;stroke-width:1.2;"/><polygon fill="#404040" points="379.5,320.4694,383.5,311.4694,379.5,315.4694,375.5,311.4694,379.5,320.4694" style="stroke:#404040;stroke-width:1.2;"/><text fill="#000000" font-family="sans-serif" font-size="13" lengthAdjust="spacing" textLength="99.7217" x="377.5" y="241.0545">wasGeneratedBy</text><text fill="#000000" font-family="sans-serif" font-size="13" lengthAdjust="spacing" textLength="19.5127" x="356.7535" y="309.5037">0..*</text></g><!--link Dataset to CatalogRecord--><g class="link" data-entity-1="ent0003" data-entity-2="ent0008" data-link-type="dependency" data-source-line="41" id="lnk28"><path codeLine="41" d="M493.17,70.6394 C493.17,116.4494 493.17,268.5694 493.17,314.5094" fill="none" id="Dataset-to-CatalogRecord" style="stroke:#404040;stroke-width:1.2;"/><polygon fill="#404040" points="493.17,320.5094,497.17,311.5094,493.17,315.5094,489.17,311.5094,493.17,320.5094" style="stroke:#404040;stroke-width:1.2;"/><text fill="#000000" font-family="sans-serif" font-size="13" lengthAdjust="spacing" textLength="54.9136" x="438.17" y="192.0645">subjectOf</text><text fill="#000000" font-family="sans-serif" font-size="13" lengthAdjust="spacing" textLength="7.23" x="491.2283" y="309.5602">1</text></g><!--link CatalogRecord to Dataset--><g class="link" data-entity-1="ent0008" data-entity-2="ent0003" data-link-type="dependency" data-source-line="52" id="lnk39"><path codeLine="52" d="M485.33,320.5794 C485.33,274.7694 485.33,122.6494 485.33,76.7094" fill="none" id="CatalogRecord-to-Dataset" style="stroke:#404040;stroke-width:1.2;"/><polygon fill="#404040" points="485.33,70.7094,481.33,79.7094,485.33,75.7094,489.33,79.7094,485.33,70.7094" style="stroke:#404040;stroke-width:1.2;"/><text fill="#000000" font-family="sans-serif" font-size="13" lengthAdjust="spacing" textLength="32.5317" x="452.33" y="210.1445">about</text><text fill="#000000" font-family="sans-serif" font-size="13" lengthAdjust="spacing" textLength="21.6836" x="463.3746" y="92.1074">0..1</text></g><!--reverse link Dataset to InstanceVariable--><g class="link" data-entity-1="ent0003" data-entity-2="ent0009" data-link-type="composition" data-source-line="42" id="lnk29"><path codeLine="42" d="M513.32,64.6094 C534.95,64.6094 551.5,64.6094 551.5,64.6094 C551.5,64.6094 551.5,1023.6894 551.5,1145.4494" fill="none" id="Dataset-backto-InstanceVariable" style="stroke:#404040;stroke-width:1.2;"/><polygon fill="#404040" points="501.32,64.6094,507.32,68.6094,513.32,64.6094,507.32,60.6094,501.32,64.6094" style="stroke:#404040;stroke-width:1.2;"/><text fill="#000000" font-family="sans-serif" font-size="13" lengthAdjust="spacing" textLength="103.3335" x="447.5" y="576.4345">variableMeasured</text><text fill="#000000" font-family="sans-serif" font-size="13" lengthAdjust="spacing" textLength="19.5127" x="528.7834" y="1134.8604">1..*</text></g><!--reverse link Dataset to PrimaryKey--><g class="link" data-entity-1="ent0003" data-entity-2="ent0018" data-link-type="composition" data-source-line="43" id="lnk30"><path codeLine="43" d="M513.08,58.6094 C552.74,58.6094 616.5,58.6094 616.5,58.6094 C616.5,58.6094 616.5,266.8994 616.5,320.5994" fill="none" id="Dataset-backto-PrimaryKey" style="stroke:#404040;stroke-width:1.2;"/><polygon fill="#404040" points="501.08,58.6094,507.08,62.6094,513.08,58.6094,507.08,54.6094,501.08,58.6094" style="stroke:#404040;stroke-width:1.2;"/><text fill="#000000" font-family="sans-serif" font-size="13" lengthAdjust="spacing" textLength="88.1372" x="527.5" y="128.3945">hasPrimaryKey</text><text fill="#000000" font-family="sans-serif" font-size="13" lengthAdjust="spacing" textLength="21.6836" x="591.3077" y="309.6873">0..1</text></g><!--reverse link Dataset to Statistics--><g class="link" data-entity-1="ent0003" data-entity-2="ent0019" data-link-type="composition" data-source-line="44" id="lnk31"><path codeLine="44" d="M513.04,52.6094 C569.8,52.6094 697.5,52.6094 697.5,52.6094 C697.5,52.6094 697.5,265.4494 697.5,320.3294" fill="none" id="Dataset-backto-Statistics" style="stroke:#404040;stroke-width:1.2;"/><polygon fill="#404040" points="501.04,52.6094,507.04,56.6094,513.04,52.6094,507.04,48.6094,501.04,52.6094" style="stroke:#404040;stroke-width:1.2;"/><text fill="#000000" font-family="sans-serif" font-size="13" lengthAdjust="spacing" textLength="49.8418" x="647.5" y="84.7345">statistics</text><text fill="#000000" font-family="sans-serif" font-size="13" lengthAdjust="spacing" textLength="19.5127" x="674.858" y="309.6931">0..*</text></g><!--reverse link Dataset to DataDownload--><g class="link" data-entity-1="ent0003" data-entity-2="ent0004" data-link-type="composition" data-source-line="45" id="lnk32"><path codeLine="45" d="M461.83,82.9194 C461.83,104.4594 461.83,133.6094 461.83,133.6094 C461.83,133.6094 202.5,133.6094 202.5,133.6094 C202.5,133.6094 202.5,276.2994 202.5,320.3294" fill="none" id="Dataset-backto-DataDownload" style="stroke:#404040;stroke-width:1.2;"/><polygon fill="#404040" points="461.83,70.9194,457.83,76.9194,461.83,82.9194,465.83,76.9194,461.83,70.9194" style="stroke:#404040;stroke-width:1.2;"/><text fill="#000000" font-family="sans-serif" font-size="13" lengthAdjust="spacing" textLength="62.8672" x="207.15" y="130.1045">distribution</text><text fill="#000000" font-family="sans-serif" font-size="13" lengthAdjust="spacing" textLength="19.5127" x="179.9165" y="309.6931">0..*</text></g><!--reverse link Dataset to WebAPI--><g class="link" data-entity-1="ent0003" data-entity-2="ent0005" data-link-type="composition" data-source-line="46" id="lnk33"><path codeLine="46" d="M469.67,82.7994 C469.67,116.8394 469.67,195.6094 469.67,195.6094 C469.67,195.6094 299.5,195.6094 299.5,195.6094 C299.5,195.6094 299.5,286.3794 299.5,320.4194" fill="none" id="Dataset-backto-WebAPI" style="stroke:#404040;stroke-width:1.2;"/><polygon fill="#404040" points="469.67,70.7994,465.67,76.7994,469.67,82.7994,473.67,76.7994,469.67,70.7994" style="stroke:#404040;stroke-width:1.2;"/><text fill="#000000" font-family="sans-serif" font-size="13" lengthAdjust="spacing" textLength="62.8672" x="321.58" y="192.1045">distribution</text><text fill="#000000" font-family="sans-serif" font-size="13" lengthAdjust="spacing" textLength="19.5127" x="276.8572" y="309.8186">0..*</text></g><!--reverse link DataDownload to AbstractMapping--><g class="link" data-entity-1="ent0004" data-entity-2="ent0010" data-link-type="composition" data-source-line="47" id="lnk34"><path codeLine="47" d="M238,357.6594 C238,411.5594 238,608.6094 238,608.6094 C238,608.6094 285.75,608.6094 285.75,608.6094 C285.75,608.6094 285.75,816.8994 285.75,870.5994" fill="none" id="DataDownload-backto-AbstractMapping" style="stroke:#404040;stroke-width:1.2;"/><polygon fill="#404040" points="238,345.6594,234,351.6594,238,357.6594,242,351.6594,238,345.6594" style="stroke:#404040;stroke-width:1.2;"/><text fill="#000000" font-family="sans-serif" font-size="13" lengthAdjust="spacing" textLength="119.2344" x="232.15" y="623.1045">hasPhysicalMapping</text><text fill="#000000" font-family="sans-serif" font-size="13" lengthAdjust="spacing" textLength="19.5127" x="252.7395" y="859.9331">0..*</text></g><!--reverse link DataDownload to AbstractDataSet--><g class="link" data-entity-1="ent0004" data-entity-2="ent0014" data-link-type="aggregation" data-source-line="48" id="lnk35"><path codeLine="48" d="M195.5,357.6394 C195.5,403.4494 195.5,549.5694 195.5,595.5094" fill="none" id="DataDownload-backto-AbstractDataSet" style="stroke:#404040;stroke-width:1.2;"/><polygon fill="none" points="195.5,345.6394,191.5,351.6394,195.5,357.6394,199.5,351.6394,195.5,345.6394" style="stroke:#404040;stroke-width:1.2;"/><text fill="#000000" font-family="sans-serif" font-size="13" lengthAdjust="spacing" textLength="75.1499" x="119.5" y="467.0645">alsoTypedAs</text><text fill="#000000" font-family="sans-serif" font-size="13" lengthAdjust="spacing" textLength="21.6836" x="174.7699" y="584.5602">0..1</text></g><!--reverse link DataDownload to DataFingerprint--><g class="link" data-entity-1="ent0004" data-entity-2="ent0017" data-link-type="composition" data-source-line="49" id="lnk36"><path codeLine="49" d="M147.9,333.6094 C110.33,333.6094 73.5,333.6094 73.5,333.6094 C73.5,333.6094 73.5,541.8994 73.5,595.5994" fill="none" id="DataDownload-backto-DataFingerprint" style="stroke:#404040;stroke-width:1.2;"/><polygon fill="#404040" points="159.9,333.6094,153.9,329.6094,147.9,333.6094,153.9,337.6094,159.9,333.6094" style="stroke:#404040;stroke-width:1.2;"/><text fill="#000000" font-family="sans-serif" font-size="13" lengthAdjust="spacing" textLength="57.8081" x="15.5" y="417.8945">fingerprint</text><text fill="#000000" font-family="sans-serif" font-size="13" lengthAdjust="spacing" textLength="21.6836" x="48.3706" y="584.6873">0..1</text></g><!--reverse link WebAPI to ActionResult--><g class="link" data-entity-1="ent0005" data-entity-2="ent0006" data-link-type="composition" data-source-line="50" id="lnk37"><path codeLine="50" d="M309.25,357.6394 C309.25,403.4494 309.25,549.5694 309.25,595.5094" fill="none" id="WebAPI-backto-ActionResult" style="stroke:#404040;stroke-width:1.2;"/><polygon fill="#404040" points="309.25,345.6394,305.25,351.6394,309.25,357.6394,313.25,351.6394,309.25,345.6394" style="stroke:#404040;stroke-width:1.2;"/><text fill="#000000" font-family="sans-serif" font-size="13" lengthAdjust="spacing" textLength="122.1289" x="186.25" y="485.0645">potentialActionResult</text><text fill="#000000" font-family="sans-serif" font-size="13" lengthAdjust="spacing" textLength="19.5127" x="277.596" y="584.5602">0..*</text></g><!--reverse link ActionResult to AbstractMapping--><g class="link" data-entity-1="ent0006" data-entity-2="ent0010" data-link-type="composition" data-source-line="51" id="lnk38"><path codeLine="51" d="M330.5,632.6394 C330.5,678.4494 330.5,824.5694 330.5,870.5094" fill="none" id="ActionResult-backto-AbstractMapping" style="stroke:#404040;stroke-width:1.2;"/><polygon fill="#404040" points="330.5,620.6394,326.5,626.6394,330.5,632.6394,334.5,626.6394,330.5,620.6394" style="stroke:#404040;stroke-width:1.2;"/><text fill="#000000" font-family="sans-serif" font-size="13" lengthAdjust="spacing" textLength="119.2344" x="210.5" y="742.0645">hasPhysicalMapping</text><text fill="#000000" font-family="sans-serif" font-size="13" lengthAdjust="spacing" textLength="19.5127" x="309.7398" y="859.5602">0..*</text></g><!--link InstanceVariable to SubstantiveValueDomain--><g class="link" data-entity-1="ent0009" data-entity-2="ent0020" data-link-type="dependency" data-source-line="53" id="lnk40"><path codeLine="53" d="M525,1170.6394 C525,1216.4494 525,1368.5694 525,1414.5094" fill="none" id="InstanceVariable-to-SubstantiveValueDomain" style="stroke:#404040;stroke-width:1.2;"/><polygon fill="#404040" points="525,1420.5094,529,1411.5094,525,1415.5094,521,1411.5094,525,1420.5094" style="stroke:#404040;stroke-width:1.2;"/><text fill="#000000" font-family="sans-serif" font-size="13" lengthAdjust="spacing" textLength="169.0825" x="355" y="1292.0645">takesSubstantiveValuesFrom</text><text fill="#000000" font-family="sans-serif" font-size="13" lengthAdjust="spacing" textLength="21.6836" x="520.2805" y="1409.5602">0..1</text></g><!--link InstanceVariable to SentinelValueDomain--><g class="link" data-entity-1="ent0009" data-entity-2="ent0021" data-link-type="dependency" data-source-line="54" id="lnk41"><path codeLine="54" d="M582.5,1170.6394 C582.5,1216.4494 582.5,1368.5694 582.5,1414.5094" fill="none" id="InstanceVariable-to-SentinelValueDomain" style="stroke:#404040;stroke-width:1.2;"/><polygon fill="#404040" points="582.5,1420.5094,586.5,1411.5094,582.5,1415.5094,578.5,1411.5094,582.5,1420.5094" style="stroke:#404040;stroke-width:1.2;"/><text fill="#000000" font-family="sans-serif" font-size="13" lengthAdjust="spacing" textLength="148.1289" x="433.5" y="1310.0645">takesSentinelValuesFrom</text><text fill="#000000" font-family="sans-serif" font-size="13" lengthAdjust="spacing" textLength="19.5127" x="541.4532" y="1409.5602">0..*</text></g><!--link AbstractMapping to InstanceVariable--><g class="link" data-entity-1="ent0010" data-entity-2="ent0009" data-link-type="dependency" data-source-line="55" id="lnk42"><path codeLine="55" d="M373.59,883.6094 C428.93,883.6094 512.25,883.6094 512.25,883.6094 C512.25,883.6094 512.25,1085.8994 512.25,1139.5994" fill="none" id="AbstractMapping-to-InstanceVariable" style="stroke:#404040;stroke-width:1.2;"/><polygon fill="#404040" points="512.25,1145.5994,516.25,1136.5994,512.25,1140.5994,508.25,1136.5994,512.25,1145.5994" style="stroke:#404040;stroke-width:1.2;"/><text fill="#000000" font-family="sans-serif" font-size="13" lengthAdjust="spacing" textLength="43.3418" x="468.25" y="941.7745">formats</text><text fill="#000000" font-family="sans-serif" font-size="13" lengthAdjust="spacing" textLength="7.23" x="490.0824" y="1134.7524">1</text></g><?plantuml-src bLLTRziW57tdLo3thLAgfbrVh6bIciHJjLMhrcfxliOt3Gi62t2ox4FQZzWlt2yPZkq4WwjfyWiSphttN3XWowr0UWk6imLOMA1XcbUMAqd__FfDrHRrbkEEh7c1b77D1BPZB2kxfoMMEMf3p8RB2ZIKrAoXK3ikd-aAX45lPQQrsZsjETj8D8PEBwwyHGroOx2YLpUN7YfLWGVK1mMNQFSLKgNjMdaBJ83B-vtGjjHS2QNfsQlBvdFWhT85wX3DbBIF_1lIwHNvIGZancfWjakMp5LPASCjFcYruW8J2eQ683tBbjbolYHTKBEJ1ks1sut7A0kraq91SUJrG4Z-ZFdiuUv0QuUECC-kvrbFcB7cn3wYgKLRrGT2iXEzRTQttEuFP1y8Iy-TBA6UFo9pkzSsxoCX_KuQ2vBX9z0SycwxGl0eADpiMJU_Xwfo3cex6M9HC-kziou8FoJ0mf0d_3geuCr3wdl5m2hjiuVGFrjfZlMniqA0HReWhmNeHeuV5SDXuAFLDRErniAFYz0mh84prmFgIdDvSgk7nTRX9UZzE-oDqqyTSRQyMLoV987bnd9cEYtzDD9UvuqvdFcSFKID2rK2bstGw5AK01r3eeYYO_mO6dhgzO_997JDECdpoZXXQ0yI7dcR93hHSLvqWgH_J2QJDpIvlBWuJuQNDwKxC6zHeWQBnUr-631DWikRKbFdNv3P3wiZyzmLJgQ7rD6zJUcs6zuZc4ROCCmfcYQ-ArAw1dEQHsnNnBE6atESZ547JsHA2yVKFA-RbswCtZsL8yHZ4eyTdcOhFV3485YTMWwFBwNktwUUt4-gc9dnajCakcmfNPrcf9FlI_GVzPHMoZOU1-7ZP43wt_w6zkXTraarRMEvgYs9hE5nNxYtARMmGHEkcaohykLyZKD6RdAVp5zgCuLzziuVCVDAwHAi8Ny1?></g></svg>