<svg xmlns="http://www.w3.org/2000/svg" xmlns:xlink="http://www.w3.org/1999/xlink" contentStyleType="text/css" data-diagram-type="CLASS" height="608px" preserveAspectRatio="none" style="width:1098px;height:608px;background:#FFFFFF;" version="1.1" viewBox="0 0 1098 608" width="1098px" zoomAndPan="magnify"><?plantuml 1.2026.3?><defs/><g><g class="title" data-source-line="1"><text fill="#000000" font-family="sans-serif" font-size="14" font-weight="700" lengthAdjust="spacing" textLength="226.8574" x="432.3271" y="24.5332">BasicDataDescription &#8212; overview</text></g><!--class CompositeProfile--><g class="entity" data-qualified-name="CompositeProfile" data-source-line="12" id="ent0002"><rect fill="#FEFECE" height="25.0938" rx="2.5" ry="2.5" style="stroke:#404040;stroke-width:0.5;" width="97.3711" x="530" y="53.9394"/><text fill="#000000" font-family="sans-serif" font-size="12" font-style="italic" lengthAdjust="spacing" textLength="91.3711" x="533" y="71.3964">CompositeProfile</text></g><!--class Dataset--><g class="entity" data-qualified-name="Dataset" data-source-line="13" id="ent0003"><rect fill="#FEFECE" height="25.0938" rx="2.5" ry="2.5" style="stroke:#404040;stroke-width:0.5;" width="47.3555" x="662" y="53.9394"/><text fill="#000000" font-family="sans-serif" font-size="12" lengthAdjust="spacing" textLength="41.3555" x="665" y="71.3964">Dataset</text></g><!--class DataDownload--><g class="entity" data-qualified-name="DataDownload" data-source-line="14" id="ent0004"><rect fill="#FEFECE" height="25.0938" rx="2.5" ry="2.5" style="stroke:#404040;stroke-width:0.5;" width="84.7148" x="365" y="156.9394"/><text fill="#000000" font-family="sans-serif" font-size="12" lengthAdjust="spacing" textLength="78.7148" x="368" y="174.3964">DataDownload</text></g><!--class WebAPI--><g class="entity" data-qualified-name="WebAPI" data-source-line="15" id="ent0005"><rect fill="#FCF3CF" height="25.0938" rx="2.5" ry="2.5" style="stroke:#404040;stroke-width:0.5;" width="50.0156" x="491.5" y="156.9394"/><text fill="#000000" font-family="sans-serif" font-size="12" lengthAdjust="spacing" textLength="44.0156" x="494.5" y="174.3964">WebAPI</text></g><!--class ActionResult--><g class="entity" data-qualified-name="ActionResult" data-source-line="16" id="ent0006"><rect fill="#FCF3CF" height="25.0938" rx="2.5" ry="2.5" style="stroke:#404040;stroke-width:0.5;" width="73.3652" x="679" y="259.9394"/><text fill="#000000" font-family="sans-serif" font-size="12" lengthAdjust="spacing" textLength="67.3652" x="682" y="277.3964">ActionResult</text></g><!--class ProvActivity--><g class="entity" data-qualified-name="ProvActivity" data-source-line="17" id="ent0007"><rect fill="#FEFECE" height="25.0938" rx="2.5" ry="2.5" style="stroke:#404040;stroke-width:0.5;" width="68.6777" x="581" y="156.9394"/><text fill="#000000" font-family="sans-serif" font-size="12" lengthAdjust="spacing" textLength="62.6777" x="584" y="174.3964">ProvActivity</text></g><!--class CatalogRecord--><g class="entity" data-qualified-name="CatalogRecord" data-source-line="18" id="ent0008"><rect fill="#FEFECE" height="25.0938" rx="2.5" ry="2.5" style="stroke:#404040;stroke-width:0.5;" width="86.0449" x="742.5" y="156.9394"/><text fill="#000000" font-family="sans-serif" font-size="12" lengthAdjust="spacing" textLength="80.0449" x="745.5" y="174.3964">CatalogRecord</text></g><!--class InstanceVariable--><g class="entity" data-qualified-name="InstanceVariable" data-source-line="19" id="ent0009"><rect fill="#FAE5D3" height="25.0938" rx="2.5" ry="2.5" style="stroke:#404040;stroke-width:0.5;" width="95.3906" x="135" y="465.9394"/><text fill="#000000" font-family="sans-serif" font-size="12" lengthAdjust="spacing" textLength="89.3906" x="138" y="483.3964">InstanceVariable</text></g><!--class AbstractMapping--><g class="entity" data-qualified-name="AbstractMapping" data-source-line="20" id="ent0010"><rect fill="#FCF3CF" height="25.0938" rx="2.5" ry="2.5" style="stroke:#404040;stroke-width:0.5;" width="96.0469" x="474.5" y="362.9394"/><text fill="#000000" font-family="sans-serif" font-size="12" font-style="italic" lengthAdjust="spacing" textLength="90.0469" x="477.5" y="380.3964">AbstractMapping</text></g><!--class PhysicalMapping--><g class="entity" data-qualified-name="PhysicalMapping" data-source-line="21" id="ent0011"><rect fill="#FCF3CF" height="25.0938" rx="2.5" ry="2.5" style="stroke:#404040;stroke-width:0.5;" width="96.7148" x="353" y="465.9394"/><text fill="#000000" font-family="sans-serif" font-size="12" lengthAdjust="spacing" textLength="90.7148" x="356" y="483.3964">PhysicalMapping</text></g><!--class TextMapping--><g class="entity" data-qualified-name="TextMapping" data-source-line="22" id="ent0012"><rect fill="#FCF3CF" height="25.0938" rx="2.5" ry="2.5" style="stroke:#404040;stroke-width:0.5;" width="75.3691" x="485" y="465.9394"/><text fill="#000000" font-family="sans-serif" font-size="12" lengthAdjust="spacing" textLength="69.3691" x="488" y="483.3964">TextMapping</text></g><!--class LocatorMapping--><g class="entity" data-qualified-name="LocatorMapping" data-source-line="23" id="ent0013"><rect fill="#FCF3CF" height="25.0938" rx="2.5" ry="2.5" style="stroke:#404040;stroke-width:0.5;" width="92.0566" x="595.5" y="465.9394"/><text fill="#000000" font-family="sans-serif" font-size="12" lengthAdjust="spacing" textLength="86.0566" x="598.5" y="483.3964">LocatorMapping</text></g><!--class AbstractDataSet--><g class="entity" data-qualified-name="AbstractDataSet" data-source-line="24" id="ent0014"><rect fill="#FCF3CF" height="25.0938" rx="2.5" ry="2.5" style="stroke:#404040;stroke-width:0.5;" width="93.375" x="235" y="259.9394"/><text fill="#000000" font-family="sans-serif" font-size="12" font-style="italic" lengthAdjust="spacing" textLength="87.375" x="238" y="277.3964">AbstractDataSet</text></g><!--class TabularTextDataSet--><g class="entity" data-qualified-name="TabularTextDataSet" data-source-line="25" id="ent0015"><rect fill="#FCF3CF" height="25.0938" rx="2.5" ry="2.5" style="stroke:#404040;stroke-width:0.5;" width="113.3848" x="307" y="362.9394"/><text fill="#000000" font-family="sans-serif" font-size="12" lengthAdjust="spacing" textLength="107.3848" x="310" y="380.3964">TabularTextDataSet</text></g><!--class StructuredDataSet--><g class="entity" data-qualified-name="StructuredDataSet" data-source-line="26" id="ent0016"><rect fill="#FCF3CF" height="25.0938" rx="2.5" ry="2.5" style="stroke:#404040;stroke-width:0.5;" width="104.7188" x="167" y="362.9394"/><text fill="#000000" font-family="sans-serif" font-size="12" lengthAdjust="spacing" textLength="98.7188" x="170" y="380.3964">StructuredDataSet</text></g><!--class DataFingerprint--><g class="entity" data-qualified-name="DataFingerprint" data-source-line="27" id="ent0017"><rect fill="#FCF3CF" height="25.0938" rx="2.5" ry="2.5" style="stroke:#404040;stroke-width:0.5;" width="88.7051" x="363" y="259.9394"/><text fill="#000000" font-family="sans-serif" font-size="12" lengthAdjust="spacing" textLength="82.7051" x="366" y="277.3964">DataFingerprint</text></g><!--class PrimaryKey--><g class="entity" data-qualified-name="PrimaryKey" data-source-line="28" id="ent0018"><rect fill="#FAE5D3" height="25.0938" rx="2.5" ry="2.5" style="stroke:#404040;stroke-width:0.5;" width="68.0098" x="892.5" y="156.9394"/><text fill="#000000" font-family="sans-serif" font-size="12" lengthAdjust="spacing" textLength="62.0098" x="895.5" y="174.3964">PrimaryKey</text></g><!--class Statistics--><g class="entity" data-qualified-name="Statistics" data-source-line="29" id="ent0019"><rect fill="#FCF3CF" height="25.0938" rx="2.5" ry="2.5" style="stroke:#404040;stroke-width:0.5;" width="54.0117" x="1029.5" y="156.9394"/><text fill="#000000" font-family="sans-serif" font-size="12" lengthAdjust="spacing" textLength="48.0117" x="1032.5" y="174.3964">Statistics</text></g><!--class SubstantiveValueDomain--><g class="entity" data-qualified-name="SubstantiveValueDomain" data-source-line="30" id="ent0020"><rect fill="#FCF3CF" height="25.0938" rx="2.5" ry="2.5" style="stroke:#404040;stroke-width:0.5;" width="140.748" x="7" y="568.9394"/><text fill="#000000" font-family="sans-serif" font-size="12" lengthAdjust="spacing" textLength="134.748" x="10" y="586.3964">SubstantiveValueDomain</text></g><!--class SentinelValueDomain--><g class="entity" data-qualified-name="SentinelValueDomain" data-source-line="31" id="ent0021"><rect fill="#FCF3CF" height="25.0938" rx="2.5" ry="2.5" style="stroke:#404040;stroke-width:0.5;" width="121.4063" x="228" y="568.9394"/><text fill="#000000" font-family="sans-serif" font-size="12" lengthAdjust="spacing" textLength="115.4063" x="231" y="586.3964">SentinelValueDomain</text></g><!--reverse link AbstractMapping to PhysicalMapping--><g class="link" data-entity-1="ent0010" data-entity-2="ent0011" data-link-type="extension" data-source-line="32" id="lnk22"><path codeLine="32" d="M494.7979,399.5597 C471.5779,418.9297 438.95,446.1794 415.59,465.6794" fill="none" id="AbstractMapping-backto-PhysicalMapping" style="stroke:#404040;stroke-width:1.2;"/><polygon fill="none" points="508.62,388.0294,490.9544,394.9523,498.6413,404.1671,508.62,388.0294" style="stroke:#404040;stroke-width:1.2;"/></g><!--reverse link AbstractMapping to TextMapping--><g class="link" data-entity-1="ent0010" data-entity-2="ent0012" data-link-type="extension" data-source-line="33" id="lnk23"><path codeLine="33" d="M522.5,406.0294 C522.5,425.3994 522.5,446.1794 522.5,465.6794" fill="none" id="AbstractMapping-backto-TextMapping" style="stroke:#404040;stroke-width:1.2;"/><polygon fill="none" points="522.5,388.0294,516.5,406.0294,528.5,406.0294,522.5,388.0294" style="stroke:#404040;stroke-width:1.2;"/></g><!--reverse link AbstractMapping to LocatorMapping--><g class="link" data-entity-1="ent0010" data-entity-2="ent0013" data-link-type="extension" data-source-line="34" id="lnk24"><path codeLine="34" d="M549.8754,399.6747 C572.7054,419.0447 604.67,446.1794 627.64,465.6794" fill="none" id="AbstractMapping-backto-LocatorMapping" style="stroke:#404040;stroke-width:1.2;"/><polygon fill="none" points="536.15,388.0294,545.9937,404.2498,553.7572,395.0995,536.15,388.0294" style="stroke:#404040;stroke-width:1.2;"/></g><!--reverse link AbstractDataSet to TabularTextDataSet--><g class="link" data-entity-1="ent0014" data-entity-2="ent0015" data-link-type="extension" data-source-line="35" id="lnk25"><path codeLine="35" d="M302.2571,299.0023 C317.9871,318.3723 338.12,343.1794 353.95,362.6794" fill="none" id="AbstractDataSet-backto-TabularTextDataSet" style="stroke:#404040;stroke-width:1.2;"/><polygon fill="none" points="290.91,285.0294,297.5995,302.7847,306.9148,295.2199,290.91,285.0294" style="stroke:#404040;stroke-width:1.2;"/></g><!--reverse link AbstractDataSet to StructuredDataSet--><g class="link" data-entity-1="ent0014" data-entity-2="ent0016" data-link-type="extension" data-source-line="36" id="lnk26"><path codeLine="36" d="M264.9677,300.3663 C253.0677,319.7363 238.69,343.1794 226.72,362.6794" fill="none" id="AbstractDataSet-backto-StructuredDataSet" style="stroke:#404040;stroke-width:1.2;"/><polygon fill="none" points="274.39,285.0294,259.8554,297.2255,270.08,303.507,274.39,285.0294" style="stroke:#404040;stroke-width:1.2;"/></g><!--link Dataset to ProvActivity--><g class="link" data-entity-1="ent0003" data-entity-2="ent0007" data-link-type="dependency" data-source-line="37" id="lnk27"><path codeLine="37" d="M661.87,73.8994 C644.84,79.9294 623.06,90.7894 612.5,108.9394 C603.97,123.5994 605.9163,138.1404 609.6263,150.8304" fill="none" id="Dataset-to-ProvActivity" style="stroke:#404040;stroke-width:1.2;"/><polygon fill="#404040" points="611.31,156.5894,612.6238,146.8285,609.907,151.7903,604.9452,149.0734,611.31,156.5894" style="stroke:#404040;stroke-width:1.2;"/><text fill="#000000" font-family="sans-serif" font-size="13" lengthAdjust="spacing" textLength="99.7217" x="613.5" y="123.4345">wasGeneratedBy</text><text fill="#000000" font-family="sans-serif" font-size="13" lengthAdjust="spacing" textLength="19.5127" x="587.2499" y="146.1846">0..*</text></g><!--link Dataset to CatalogRecord--><g class="link" data-entity-1="ent0003" data-entity-2="ent0008" data-link-type="dependency" data-source-line="38" id="lnk28"><path codeLine="38" d="M696.97,79.0294 C716.16,98.3994 750.3293,132.9149 769.6293,152.4149" fill="none" id="Dataset-to-CatalogRecord" style="stroke:#404040;stroke-width:1.2;"/><polygon fill="#404040" points="773.85,156.6794,770.3619,147.4689,770.3327,153.1257,764.676,153.0965,773.85,156.6794" style="stroke:#404040;stroke-width:1.2;"/><text fill="#000000" font-family="sans-serif" font-size="13" lengthAdjust="spacing" textLength="54.9136" x="742.5" y="123.4345">subjectOf</text><text fill="#000000" font-family="sans-serif" font-size="13" lengthAdjust="spacing" textLength="7.23" x="760.9211" y="146.051">1</text></g><!--link CatalogRecord to Dataset--><g class="link" data-entity-1="ent0008" data-entity-2="ent0003" data-link-type="dependency" data-source-line="49" id="lnk39"><path codeLine="49" d="M795.41,156.5494 C804.74,143.8194 815.87,123.4994 805.5,108.9394 C783.63,78.2394 743.4241,70.4654 715.1541,68.4054" fill="none" id="CatalogRecord-to-Dataset" style="stroke:#404040;stroke-width:1.2;"/><polygon fill="#404040" points="709.17,67.9694,717.8555,72.6129,714.1568,68.3328,718.4369,64.634,709.17,67.9694" style="stroke:#404040;stroke-width:1.2;"/><text fill="#000000" font-family="sans-serif" font-size="13" lengthAdjust="spacing" textLength="32.5317" x="811.5" y="123.4345">about</text><text fill="#000000" font-family="sans-serif" font-size="13" lengthAdjust="spacing" textLength="21.6836" x="717.5389" y="63.9189">0..1</text></g><!--reverse link Dataset to InstanceVariable--><g class="link" data-entity-1="ent0003" data-entity-2="ent0009" data-link-type="composition" data-source-line="39" id="lnk29"><path codeLine="39" d="M650.2257,77.8837 C644.5957,79.4437 650.15,77.7694 644.5,78.9394 C523.27,104.1594 94.5,44.6094 94.5,168.4394 C94.5,168.4394 94.5,168.4394 94.5,376.4394 C94.5,417.1394 135.62,449.3894 161.65,465.7294" fill="none" id="Dataset-backto-InstanceVariable" style="stroke:#404040;stroke-width:1.2;"/><polygon fill="#404040" points="661.79,74.6794,654.9398,72.4268,650.2257,77.8837,657.076,80.1363,661.79,74.6794" style="stroke:#404040;stroke-width:1.2;"/><text fill="#000000" font-family="sans-serif" font-size="13" lengthAdjust="spacing" textLength="103.3335" x="95.5" y="277.9345">variableMeasured</text><text fill="#000000" font-family="sans-serif" font-size="13" lengthAdjust="spacing" textLength="19.5127" x="130.7237" y="455.1207">1..*</text></g><!--reverse link Dataset to PrimaryKey--><g class="link" data-entity-1="ent0003" data-entity-2="ent0018" data-link-type="composition" data-source-line="40" id="lnk30"><path codeLine="40" d="M720.9075,71.5946 C754.2775,75.9846 804.73,85.2494 852.5,108.9394 C877.31,121.2394 901.43,143.0194 915.07,156.5394" fill="none" id="Dataset-backto-PrimaryKey" style="stroke:#404040;stroke-width:1.2;"/><polygon fill="#404040" points="709.01,70.0294,714.437,74.7778,720.9075,71.5946,715.4805,66.8461,709.01,70.0294" style="stroke:#404040;stroke-width:1.2;"/><text fill="#000000" font-family="sans-serif" font-size="13" lengthAdjust="spacing" textLength="88.1372" x="882.5" y="123.4345">hasPrimaryKey</text><text fill="#000000" font-family="sans-serif" font-size="13" lengthAdjust="spacing" textLength="21.6836" x="885.8376" y="146.1155">0..1</text></g><!--reverse link Dataset to Statistics--><g class="link" data-entity-1="ent0003" data-entity-2="ent0019" data-link-type="composition" data-source-line="41" id="lnk31"><path codeLine="41" d="M721.0591,66.6121 C772.3791,65.9821 885.22,69.1794 979.5,108.9394 C1005.96,120.0994 1031.24,142.6794 1045.23,156.5894" fill="none" id="Dataset-backto-Statistics" style="stroke:#404040;stroke-width:1.2;"/><polygon fill="#404040" points="709.06,66.7594,715.1086,70.6854,721.0591,66.6121,715.0104,62.686,709.06,66.7594" style="stroke:#404040;stroke-width:1.2;"/><text fill="#000000" font-family="sans-serif" font-size="13" lengthAdjust="spacing" textLength="49.8418" x="1009.5" y="123.4345">statistics</text><text fill="#000000" font-family="sans-serif" font-size="13" lengthAdjust="spacing" textLength="19.5127" x="1018.4069" y="146.1846">0..*</text></g><!--reverse link Dataset to DataDownload--><g class="link" data-entity-1="ent0003" data-entity-2="ent0004" data-link-type="composition" data-source-line="42" id="lnk32"><path codeLine="42" d="M650.2005,77.7946 C644.5705,79.3446 650.13,77.7094 644.5,78.9394 C560.54,97.2394 527.46,65.1894 453.5,108.9394 C434.4,120.2394 420.38,142.7694 413.12,156.6294" fill="none" id="Dataset-backto-DataDownload" style="stroke:#404040;stroke-width:1.2;"/><polygon fill="#404040" points="661.77,74.6094,654.9235,72.3455,650.2005,77.7946,657.047,80.0585,661.77,74.6094" style="stroke:#404040;stroke-width:1.2;"/><text fill="#000000" font-family="sans-serif" font-size="13" lengthAdjust="spacing" textLength="62.8672" x="454.5" y="123.4345">distribution</text><text fill="#000000" font-family="sans-serif" font-size="13" lengthAdjust="spacing" textLength="19.5127" x="392.7493" y="145.9813">0..*</text></g><!--reverse link Dataset to WebAPI--><g class="link" data-entity-1="ent0003" data-entity-2="ent0005" data-link-type="composition" data-source-line="43" id="lnk33"><path codeLine="43" d="M650.0979,77.3871 C644.4779,78.9671 650.05,77.3894 644.5,78.9394 C596.52,92.3294 572.65,74.6694 536.5,108.9394 C523.21,121.5394 518.75,143.2194 517.26,156.6494" fill="none" id="Dataset-backto-WebAPI" style="stroke:#404040;stroke-width:1.2;"/><polygon fill="#404040" points="661.65,74.1394,654.7913,71.9125,650.0979,77.3871,656.9565,79.614,661.65,74.1394" style="stroke:#404040;stroke-width:1.2;"/><text fill="#000000" font-family="sans-serif" font-size="13" lengthAdjust="spacing" textLength="62.8672" x="537.5" y="123.4345">distribution</text><text fill="#000000" font-family="sans-serif" font-size="13" lengthAdjust="spacing" textLength="19.5127" x="494.9165" y="146.0092">0..*</text></g><!--reverse link DataDownload to AbstractMapping--><g class="link" data-entity-1="ent0004" data-entity-2="ent0010" data-link-type="composition" data-source-line="44" id="lnk34"><path codeLine="44" d="M446.3948,187.5219 C459.8948,194.3919 464.54,198.8894 474.5,211.9394 C510.72,259.4194 519.68,333.7794 521.84,362.5294" fill="none" id="DataDownload-backto-AbstractMapping" style="stroke:#404040;stroke-width:1.2;"/><polygon fill="#404040" points="435.7,182.0794,439.2333,188.3656,446.3948,187.5219,442.8616,181.2357,435.7,182.0794" style="stroke:#404040;stroke-width:1.2;"/><text fill="#000000" font-family="sans-serif" font-size="13" lengthAdjust="spacing" textLength="119.2344" x="509.5" y="277.9345">hasPhysicalMapping</text><text fill="#000000" font-family="sans-serif" font-size="13" lengthAdjust="spacing" textLength="19.5127" x="499.0553" y="352.1017">0..*</text></g><!--reverse link DataDownload to AbstractDataSet--><g class="link" data-entity-1="ent0004" data-entity-2="ent0014" data-link-type="aggregation" data-source-line="45" id="lnk35"><path codeLine="45" d="M362.9954,186.6664 C346.2854,193.5964 337.56,198.9794 322.5,211.9394 C306.72,225.5294 294.16,246.5094 287.29,259.5894" fill="none" id="DataDownload-backto-AbstractDataSet" style="stroke:#404040;stroke-width:1.2;"/><polygon fill="none" points="374.08,182.0694,367.0054,180.673,362.9954,186.6664,370.0701,188.0627,374.08,182.0694" style="stroke:#404040;stroke-width:1.2;"/><text fill="#000000" font-family="sans-serif" font-size="13" lengthAdjust="spacing" textLength="75.1499" x="323.5" y="226.4345">alsoTypedAs</text><text fill="#000000" font-family="sans-serif" font-size="13" lengthAdjust="spacing" textLength="21.6836" x="264.5531" y="249.1846">0..1</text></g><!--reverse link DataDownload to DataFingerprint--><g class="link" data-entity-1="ent0004" data-entity-2="ent0017" data-link-type="composition" data-source-line="46" id="lnk36"><path codeLine="46" d="M407.5,194.0294 C407.5,213.3994 407.5,240.1794 407.5,259.6794" fill="none" id="DataDownload-backto-DataFingerprint" style="stroke:#404040;stroke-width:1.2;"/><polygon fill="#404040" points="407.5,182.0294,403.5,188.0294,407.5,194.0294,411.5,188.0294,407.5,182.0294" style="stroke:#404040;stroke-width:1.2;"/><text fill="#000000" font-family="sans-serif" font-size="13" lengthAdjust="spacing" textLength="57.8081" x="408.5" y="226.4345">fingerprint</text><text fill="#000000" font-family="sans-serif" font-size="13" lengthAdjust="spacing" textLength="21.6836" x="382.5583" y="249.051">0..1</text></g><!--reverse link WebAPI to ActionResult--><g class="link" data-entity-1="ent0005" data-entity-2="ent0006" data-link-type="composition" data-source-line="47" id="lnk37"><path codeLine="47" d="M550.0305,187.4607 C588.3105,206.8907 654.32,240.3894 692.63,259.8294" fill="none" id="WebAPI-backto-ActionResult" style="stroke:#404040;stroke-width:1.2;"/><polygon fill="#404040" points="539.33,182.0294,542.8698,188.3119,550.0305,187.4607,546.4907,181.1782,539.33,182.0294" style="stroke:#404040;stroke-width:1.2;"/><text fill="#000000" font-family="sans-serif" font-size="13" lengthAdjust="spacing" textLength="122.1289" x="629.5" y="226.4345">potentialActionResult</text><text fill="#000000" font-family="sans-serif" font-size="13" lengthAdjust="spacing" textLength="19.5127" x="660.3078" y="248.876">0..*</text></g><!--reverse link ActionResult to AbstractMapping--><g class="link" data-entity-1="ent0006" data-entity-2="ent0010" data-link-type="composition" data-source-line="48" id="lnk38"><path codeLine="48" d="M682.7278,290.5932 C645.5978,310.0232 581.83,343.3894 544.68,362.8294" fill="none" id="ActionResult-backto-AbstractMapping" style="stroke:#404040;stroke-width:1.2;"/><polygon fill="#404040" points="693.36,285.0294,686.1893,284.2672,682.7278,290.5932,689.8985,291.3553,693.36,285.0294" style="stroke:#404040;stroke-width:1.2;"/><text fill="#000000" font-family="sans-serif" font-size="13" lengthAdjust="spacing" textLength="119.2344" x="632.5" y="329.4345">hasPhysicalMapping</text><text fill="#000000" font-family="sans-serif" font-size="13" lengthAdjust="spacing" textLength="19.5127" x="531.0066" y="351.876">0..*</text></g><!--link InstanceVariable to SubstantiveValueDomain--><g class="link" data-entity-1="ent0009" data-entity-2="ent0020" data-link-type="dependency" data-source-line="50" id="lnk40"><path codeLine="50" d="M134.72,485.3794 C112.53,490.7994 88.09,501.1594 74.5,520.9394 C64.78,535.0894 67.1073,550.1929 71.2173,563.0829" fill="none" id="InstanceVariable-to-SubstantiveValueDomain" style="stroke:#404040;stroke-width:1.2;"/><polygon fill="#404040" points="73.04,568.7994,74.1169,559.0096,71.5211,564.0357,66.495,561.4398,73.04,568.7994" style="stroke:#404040;stroke-width:1.2;"/><text fill="#000000" font-family="sans-serif" font-size="13" lengthAdjust="spacing" textLength="169.0825" x="75.5" y="535.4345">takesSubstantiveValuesFrom</text><text fill="#000000" font-family="sans-serif" font-size="13" lengthAdjust="spacing" textLength="21.6836" x="46.062" y="557.8337">0..1</text></g><!--link InstanceVariable to SentinelValueDomain--><g class="link" data-entity-1="ent0009" data-entity-2="ent0021" data-link-type="dependency" data-source-line="51" id="lnk41"><path codeLine="51" d="M206.59,491.0194 C220.21,498.3394 236.96,508.7194 249.5,520.9394 C264.18,535.2494 273.4606,550.6915 280.1106,563.5315" fill="none" id="InstanceVariable-to-SentinelValueDomain" style="stroke:#404040;stroke-width:1.2;"/><polygon fill="#404040" points="282.87,568.8594,282.2829,559.028,280.5705,564.4195,275.1791,562.7072,282.87,568.8594" style="stroke:#404040;stroke-width:1.2;"/><text fill="#000000" font-family="sans-serif" font-size="13" lengthAdjust="spacing" textLength="148.1289" x="266.5" y="535.4345">takesSentinelValuesFrom</text><text fill="#000000" font-family="sans-serif" font-size="13" lengthAdjust="spacing" textLength="19.5127" x="257.6508" y="557.9184">0..*</text></g><!--link AbstractMapping to InstanceVariable--><g class="link" data-entity-1="ent0010" data-entity-2="ent0009" data-link-type="dependency" data-source-line="52" id="lnk42"><path codeLine="52" d="M483.5,388.0294 C418,407.4794 292.4316,444.7807 227.0616,464.2007" fill="none" id="AbstractMapping-to-InstanceVariable" style="stroke:#404040;stroke-width:1.2;"/><polygon fill="#404040" points="221.31,465.9094,231.0765,467.1808,226.103,464.4855,228.7982,459.512,221.31,465.9094" style="stroke:#404040;stroke-width:1.2;"/><text fill="#000000" font-family="sans-serif" font-size="13" lengthAdjust="spacing" textLength="43.3418" x="374.5" y="432.4345">formats</text><text fill="#000000" font-family="sans-serif" font-size="13" lengthAdjust="spacing" textLength="7.23" x="228.8422" y="454.989">1</text></g><?plantuml-src bLNBRjim4BppAmZb5i16dBGNeIZWs5OHj463n6ZFAseTiwP4WQJikW-W7v4lx9UKiXwcIELG-A8TpYntkKFQS2EGteBcR0a6bgYPugNXig1__xnGkKUrvtWWMvuXPLmnWSqtvgKvqXpp59KcUiUB4XJaL6yXamTUFDCD28tEobmfULXlETiLg3MTJQ-THIR0OZy9RMWBAQIY5s-kwfy5RwNAKFbe8Wlpn7yWdLsJtuH0geq2PjfaqKBcfTJSu8EI6oumeg2f3zABP9Mi5YlIYkfJq6XEtFPxZBAKXq98o7fU1_ZahvZE7-vEjERJ4XR9pIBf27DMd_OZwaeqkxg0JxP5x-lrFJV74za5_AqNjYmXdn-HsTDhcdSHdtvNQ0C5mo-WEAJjSVcW5SrNRvStmM7Fs_WUoj9El-baY0NDR8_MTY1SYOVvaZL-7-pWn3xrasHWf7BPGwWNlDPAFTQdrWeU5jG5QIL0rUMugX3sXKz6LSnK2ZDN5w2-h8OJsmEgKl7Yx5O72wt3Sr37ZzWPfmlxaVObWU7QSARRMhemgBrAQtDOyrbxY0gNCWTUDABHfI01MaQ18b27U2_rFVNkrsJYksQSv7Xbd32q1_57tYG99ZhE2oP8kiTaCdbFewlfz38QNjwO7a1_m08L6CnkZqF1BF8kRqnrbNv3PZvlUkQbtJYQdL87zpQc-_Rp7a7NXGrbjg9PvBeYfblGvpXWsqqSQzXo-c2CEdWYOvfPfk9fLRzqO_JsgHmXzaaSjZ_DfdJF4mEnFBViZo-czdzBheybPdCzlkKi2YvRJ3VdYBJbkoMwZtfCIsbgZuDmSJ8W_Mz_GtjqBcjBrKrZgQmC2QpXS5-vjp4ri4Fjh-f4oVprVBL3HcvobynTQZBvVNRE7p7pHgeSZ2R_0000?></g></svg>