<svg xmlns="http://www.w3.org/2000/svg" xmlns:xlink="http://www.w3.org/1999/xlink" contentStyleType="text/css" data-diagram-type="CLASS" height="497px" preserveAspectRatio="none" style="width:1177px;height:497px;background:#FFFFFF;" version="1.1" viewBox="0 0 1177 497" width="1177px" zoomAndPan="magnify"><?plantuml 1.2026.3?><defs/><g><g class="title" data-source-line="1"><text fill="#000000" font-family="sans-serif" font-size="14" font-weight="700" lengthAdjust="spacing" textLength="71.5723" x="549.2178" y="24.5332">XsdAnyUri</text></g><!--class XsdAnyUri--><g class="entity" data-qualified-name="XsdAnyUri" data-source-line="16" id="ent0002"><rect fill="#FAE5D3" height="93.0156" rx="2.5" ry="2.5" style="stroke:#404040;stroke-width:0.5;" width="192.1426" x="493" y="390.6094"/><text fill="#000000" font-family="sans-serif" font-size="36" font-style="italic" lengthAdjust="spacing" textLength="190.1426" x="494" y="432.9805">&#171;dataType&#187;</text><text fill="#000000" font-family="sans-serif" font-size="30" lengthAdjust="spacing" textLength="141.709" x="518.2168" y="472.0332">XsdAnyUri</text></g><!--class ConceptScheme--><g class="entity" data-qualified-name="ConceptScheme" data-source-line="17" id="ent0003"><rect fill="#EEEEEE" height="47.7344" rx="2.5" ry="2.5" style="stroke:#404040;stroke-width:0.5;" width="227.792" x="7" y="45.6094"/><text fill="#000000" font-family="sans-serif" font-size="30" lengthAdjust="spacing" textLength="221.792" x="10" y="81.752">ConceptScheme</text></g><!--class Concept--><g class="entity" data-qualified-name="Concept" data-source-line="20" id="ent0006"><rect fill="#EEEEEE" height="47.7344" rx="2.5" ry="2.5" style="stroke:#404040;stroke-width:0.5;" width="117.7383" x="273" y="45.6094"/><text fill="#000000" font-family="sans-serif" font-size="30" lengthAdjust="spacing" textLength="111.7383" x="276" y="81.752">Concept</text></g><!--class Identifier--><g class="entity" data-qualified-name="Identifier" data-source-line="22" id="ent0008"><rect fill="#EEEEEE" height="47.7344" rx="2.5" ry="2.5" style="stroke:#404040;stroke-width:0.5;" width="121.0635" x="470.5" y="45.6094"/><text fill="#000000" font-family="sans-serif" font-size="30" lengthAdjust="spacing" textLength="115.0635" x="473.5" y="81.752">Identifier</text></g><!--class CatalogRecord--><g class="entity" data-qualified-name="CatalogRecord" data-source-line="25" id="ent0011"><rect fill="#EEEEEE" height="47.7344" rx="2.5" ry="2.5" style="stroke:#404040;stroke-width:0.5;" width="206.1123" x="648" y="45.6094"/><text fill="#000000" font-family="sans-serif" font-size="30" lengthAdjust="spacing" textLength="200.1123" x="651" y="81.752">CatalogRecord</text></g><!--class Reference--><g class="entity" data-qualified-name="Reference" data-source-line="27" id="ent0013"><rect fill="#EEEEEE" height="47.7344" rx="2.5" ry="2.5" style="stroke:#404040;stroke-width:0.5;" width="144.4131" x="977" y="45.6094"/><text fill="#000000" font-family="sans-serif" font-size="30" lengthAdjust="spacing" textLength="138.4131" x="980" y="81.752">Reference</text></g><!--link ConceptScheme to XsdAnyUri--><g class="link" data-entity-1="ent0003" data-entity-2="ent0002" data-link-type="dependency" data-source-line="18" id="lnk4"><path codeLine="18" d="M109.72,93.8494 C92.44,133.1694 65.1,213.5894 102,265.6094 C190.63,390.5494 372.1678,424.187 486.9178,433.057" fill="none" id="ConceptScheme-to-XsdAnyUri" style="stroke:#404040;stroke-width:1.2;stroke-dasharray:7,7;"/><polygon fill="#404040" points="492.9,433.5194,484.235,428.8377,487.9149,433.134,483.6185,436.8139,492.9,433.5194" style="stroke:#404040;stroke-width:1.2;"/><text fill="#000000" font-family="sans-serif" font-size="36" lengthAdjust="spacing" textLength="136.0723" x="103" y="256.9805">identifier</text></g><!--link ConceptScheme to XsdAnyUri--><g class="link" data-entity-1="ent0003" data-entity-2="ent0002" data-link-type="dependency" data-source-line="19" id="lnk5"><path codeLine="19" d="M139.72,93.9594 C178.87,142.6394 267.18,251.6694 284,265.6094 C347.63,318.3594 424.5273,360.6497 487.5873,391.1097" fill="none" id="ConceptScheme-to-XsdAnyUri-1" style="stroke:#404040;stroke-width:1.2;stroke-dasharray:7,7;"/><polygon fill="#404040" points="492.99,393.7194,486.6257,386.203,488.4877,391.5446,483.1461,393.4067,492.99,393.7194" style="stroke:#404040;stroke-width:1.2;"/><text fill="#000000" font-family="sans-serif" font-size="36" lengthAdjust="spacing" textLength="40.0078" x="285" y="256.9805">url</text></g><!--link Concept to XsdAnyUri--><g class="link" data-entity-1="ent0006" data-entity-2="ent0002" data-link-type="dependency" data-source-line="21" id="lnk7"><path codeLine="21" d="M327.96,93.7594 C322.46,132.2394 316.61,210.5894 348,265.6094 C380.51,322.5894 435.4905,362.3501 487.6105,390.7301" fill="none" id="Concept-to-XsdAnyUri" style="stroke:#404040;stroke-width:1.2;stroke-dasharray:7,7;"/><polygon fill="#404040" points="492.88,393.5994,486.8887,385.7825,488.4888,391.2083,483.063,392.8084,492.88,393.5994" style="stroke:#404040;stroke-width:1.2;"/><text fill="#000000" font-family="sans-serif" font-size="36" lengthAdjust="spacing" textLength="136.0723" x="349" y="256.9805">identifier</text></g><!--link Identifier to XsdAnyUri--><g class="link" data-entity-1="ent0008" data-entity-2="ent0002" data-link-type="dependency" data-source-line="23" id="lnk9"><path codeLine="23" d="M520.31,93.6494 C504.72,130.3694 479.21,204.2694 495,265.6094 C506.71,311.1094 530.0862,352.4808 552.0462,385.3408" fill="none" id="Identifier-to-XsdAnyUri" style="stroke:#404040;stroke-width:1.2;stroke-dasharray:7,7;"/><polygon fill="#404040" points="555.38,390.3294,553.705,380.624,552.6018,386.1722,547.0536,385.0691,555.38,390.3294" style="stroke:#404040;stroke-width:1.2;"/><text fill="#000000" font-family="sans-serif" font-size="36" lengthAdjust="spacing" textLength="162.0879" x="496" y="256.9805">propertyId</text></g><!--link Identifier to XsdAnyUri--><g class="link" data-entity-1="ent0008" data-entity-2="ent0002" data-link-type="dependency" data-source-line="24" id="lnk10"><path codeLine="24" d="M561.12,93.6894 C592.67,119.9694 640.33,166.0994 660,218.6094 C681.95,277.1894 653.2123,340.9391 625.3823,385.2291" fill="none" id="Identifier-to-XsdAnyUri-1" style="stroke:#404040;stroke-width:1.2;stroke-dasharray:7,7;"/><polygon fill="#404040" points="622.19,390.3094,630.3653,384.8171,624.8502,386.0758,623.5915,380.5607,622.19,390.3094" style="stroke:#404040;stroke-width:1.2;"/><text fill="#000000" font-family="sans-serif" font-size="36" lengthAdjust="spacing" textLength="40.0078" x="669" y="256.9805">url</text></g><!--link CatalogRecord to XsdAnyUri--><g class="link" data-entity-1="ent0011" data-entity-2="ent0002" data-link-type="dependency" data-source-line="26" id="lnk12"><path codeLine="26" d="M750.08,93.8094 C747.87,131.3694 740.36,207.1894 715,265.6094 C694.78,312.1994 663.6618,353.5685 635.6618,385.9885" fill="none" id="CatalogRecord-to-XsdAnyUri" style="stroke:#404040;stroke-width:1.2;stroke-dasharray:7,7;"/><polygon fill="#404040" points="631.74,390.5294,640.6499,386.3326,635.0082,386.7453,634.5954,381.1035,631.74,390.5294" style="stroke:#404040;stroke-width:1.2;"/><text fill="#000000" font-family="sans-serif" font-size="36" lengthAdjust="spacing" textLength="190.0547" x="732" y="256.9805">conformsTo</text></g><!--link Reference to XsdAnyUri--><g class="link" data-entity-1="ent0013" data-entity-2="ent0002" data-link-type="dependency" data-source-line="28" id="lnk14"><path codeLine="28" d="M1036.74,93.7294 C1012.15,139.4694 956.74,239.3294 928,265.6094 C857.5,330.0694 763.7143,374.0665 690.7743,401.9565" fill="none" id="Reference-to-XsdAnyUri" style="stroke:#404040;stroke-width:1.2;stroke-dasharray:7,7;"/><polygon fill="#404040" points="685.17,404.0994,695.005,404.6212,689.8402,402.3136,692.1478,397.1488,685.17,404.0994" style="stroke:#404040;stroke-width:1.2;"/><text fill="#000000" font-family="sans-serif" font-size="36" lengthAdjust="spacing" textLength="136.0723" x="963" y="256.9805">identifier</text></g><!--link Reference to XsdAnyUri--><g class="link" data-entity-1="ent0013" data-entity-2="ent0002" data-link-type="dependency" data-source-line="29" id="lnk15"><path codeLine="29" d="M1067.42,93.8394 C1095.92,132.7794 1143.58,212.2294 1105,265.6094 C1055.26,334.4294 826.2403,389.567 691.1603,416.957" fill="none" id="Reference-to-XsdAnyUri-1" style="stroke:#404040;stroke-width:1.2;stroke-dasharray:7,7;"/><polygon fill="#404040" points="685.28,418.1494,694.8954,420.2811,690.1803,417.1558,693.3056,412.4406,685.28,418.1494" style="stroke:#404040;stroke-width:1.2;"/><text fill="#000000" font-family="sans-serif" font-size="36" lengthAdjust="spacing" textLength="40.0078" x="1121" y="256.9805">url</text></g><?plantuml-src XP71Ri8m343l-GeBxeZ1s652I8o1n1MOj6j8N1gH9f4JXBff_xxGZZPKWhMNvjb-TjoWWaRuz79koWzIB5SIGIWI6kjlB5meeS1YZ-IPFohZEF42VCwbFIjpW8nhZqbaJcJFkro9eq7luMamIeB4pT6ZWz5ac51Z9LOqXH8pVj9XPKtOgY-4yKiI59f7zpU3kjt2QalGVnvUtWZVB4caBarLiJ04KljJm1OFsGzZjRhNxAG7tBSRWkbKyi1tfSFP3Fgh-NBoFhxMBAmHwC9Mv5XWLNT3eB-i7dPB1uDPud-5k7OJLAQG_aayaUvqJdjskptgysTPDwGIjSV6bQ2kpf5rIA5SoqTPwSnnZzeUDYZYtwedJqax_mtj2eKrcQN2x-pLky4C2UETAsTpQdmjUR2H-qcN6_m2?></g></svg>