<svg xmlns="http://www.w3.org/2000/svg" xmlns:xlink="http://www.w3.org/1999/xlink" contentStyleType="text/css" data-diagram-type="CLASS" height="374px" preserveAspectRatio="none" style="width:466px;height:374px;background:#FFFFFF;" version="1.1" viewBox="0 0 466 374" width="466px" zoomAndPan="magnify"><?plantuml 1.2026.3?><defs/><g><g class="title" data-source-line="1"><text fill="#000000" font-family="sans-serif" font-size="14" font-weight="700" lengthAdjust="spacing" textLength="71.5723" x="194.0615" y="24.5332">XsdAnyUri</text></g><!--class XsdAnyUri--><g class="entity" data-qualified-name="XsdAnyUri" data-source-line="15" id="ent0002"><rect fill="#FAE5D3" height="40.1875" rx="2.5" ry="2.5" style="stroke:#404040;stroke-width:0.5;" width="65.3809" x="205.33" y="320.6094"/><text fill="#000000" font-family="sans-serif" font-size="12" font-style="italic" lengthAdjust="spacing" textLength="63.3809" x="206.33" y="338.0664">&#171;dataType&#187;</text><text fill="#000000" font-family="sans-serif" font-size="12" lengthAdjust="spacing" textLength="56.6836" x="209.6786" y="353.1602">XsdAnyUri</text></g><!--class ConceptScheme--><g class="entity" data-qualified-name="ConceptScheme" data-source-line="16" id="ent0003"><rect fill="#EEEEEE" height="25.0938" rx="2.5" ry="2.5" style="stroke:#404040;stroke-width:0.5;" width="94.7168" x="25.33" y="45.6094"/><text fill="#000000" font-family="sans-serif" font-size="12" lengthAdjust="spacing" textLength="88.7168" x="28.33" y="63.0664">ConceptScheme</text></g><!--class Concept--><g class="entity" data-qualified-name="Concept" data-source-line="19" id="ent0006"><rect fill="#EEEEEE" height="25.0938" rx="2.5" ry="2.5" style="stroke:#404040;stroke-width:0.5;" width="50.6953" x="140.33" y="45.6094"/><text fill="#000000" font-family="sans-serif" font-size="12" lengthAdjust="spacing" textLength="44.6953" x="143.33" y="63.0664">Concept</text></g><!--class Identifier--><g class="entity" data-qualified-name="Identifier" data-source-line="21" id="ent0008"><rect fill="#EEEEEE" height="25.0938" rx="2.5" ry="2.5" style="stroke:#404040;stroke-width:0.5;" width="52.0254" x="211.83" y="45.6094"/><text fill="#000000" font-family="sans-serif" font-size="12" lengthAdjust="spacing" textLength="46.0254" x="214.83" y="63.0664">Identifier</text></g><!--class CatalogRecord--><g class="entity" data-qualified-name="CatalogRecord" data-source-line="24" id="ent0011"><rect fill="#EEEEEE" height="25.0938" rx="2.5" ry="2.5" style="stroke:#404040;stroke-width:0.5;" width="86.0449" x="283.83" y="45.6094"/><text fill="#000000" font-family="sans-serif" font-size="12" lengthAdjust="spacing" textLength="80.0449" x="286.83" y="63.0664">CatalogRecord</text></g><!--class Reference--><g class="entity" data-qualified-name="Reference" data-source-line="26" id="ent0013"><rect fill="#EEEEEE" height="25.0938" rx="2.5" ry="2.5" style="stroke:#404040;stroke-width:0.5;" width="61.3652" x="390.33" y="45.6094"/><text fill="#000000" font-family="sans-serif" font-size="12" lengthAdjust="spacing" textLength="55.3652" x="393.33" y="63.0664">Reference</text></g><!--link ConceptScheme to XsdAnyUri--><g class="link" data-entity-1="ent0003" data-entity-2="ent0002" data-link-type="dependency" data-source-line="17" id="lnk4"><path codeLine="17" d="M57,70.6794 C57,126.6594 57,350.6094 57,350.6094 C57,350.6094 146.97,350.6094 199.09,350.6094" fill="none" id="ConceptScheme-to-XsdAnyUri" style="stroke:#404040;stroke-width:1.2;stroke-dasharray:7,7;"/><polygon fill="#404040" points="205.09,350.6094,196.09,346.6094,200.09,350.6094,196.09,354.6094,205.09,350.6094" style="stroke:#404040;stroke-width:1.2;"/><text fill="#000000" font-family="sans-serif" font-size="13" lengthAdjust="spacing" textLength="49.1372" x="7" y="281.1845">identifier</text></g><!--link ConceptScheme to XsdAnyUri--><g class="link" data-entity-1="ent0003" data-entity-2="ent0002" data-link-type="dependency" data-source-line="18" id="lnk5"><path codeLine="18" d="M88.67,70.6094 C88.67,125.2894 88.67,340.6094 88.67,340.6094 C88.67,340.6094 155.19,340.6094 199.1,340.6094" fill="none" id="ConceptScheme-to-XsdAnyUri-1" style="stroke:#404040;stroke-width:1.2;stroke-dasharray:7,7;"/><polygon fill="#404040" points="205.1,340.6094,196.1,336.6094,200.1,340.6094,196.1,344.6094,205.1,340.6094" style="stroke:#404040;stroke-width:1.2;"/><text fill="#000000" font-family="sans-serif" font-size="13" lengthAdjust="spacing" textLength="14.4473" x="73.67" y="260.3245">url</text></g><!--link Concept to XsdAnyUri--><g class="link" data-entity-1="ent0006" data-entity-2="ent0002" data-link-type="dependency" data-source-line="20" id="lnk7"><path codeLine="20" d="M165.83,70.8894 C165.83,124.7594 165.83,330.6094 165.83,330.6094 C165.83,330.6094 180.15,330.6094 199.2,330.6094" fill="none" id="Concept-to-XsdAnyUri" style="stroke:#404040;stroke-width:1.2;stroke-dasharray:7,7;"/><polygon fill="#404040" points="205.2,330.6094,196.2,326.6094,200.2,330.6094,196.2,334.6094,205.2,330.6094" style="stroke:#404040;stroke-width:1.2;"/><text fill="#000000" font-family="sans-serif" font-size="13" lengthAdjust="spacing" textLength="49.1372" x="115.83" y="216.9245">identifier</text></g><!--link Identifier to XsdAnyUri--><g class="link" data-entity-1="ent0008" data-entity-2="ent0002" data-link-type="dependency" data-source-line="22" id="lnk9"><path codeLine="22" d="M246.5,70.6094 C246.5,115.0294 246.5,259.5094 246.5,314.3794" fill="none" id="Identifier-to-XsdAnyUri" style="stroke:#404040;stroke-width:1.2;stroke-dasharray:7,7;"/><polygon fill="#404040" points="246.5,320.3794,250.5,311.3794,246.5,315.3794,242.5,311.3794,246.5,320.3794" style="stroke:#404040;stroke-width:1.2;"/><text fill="#000000" font-family="sans-serif" font-size="13" lengthAdjust="spacing" textLength="58.5317" x="187.5" y="191.9945">propertyId</text></g><!--link Identifier to XsdAnyUri--><g class="link" data-entity-1="ent0008" data-entity-2="ent0002" data-link-type="dependency" data-source-line="23" id="lnk10"><path codeLine="23" d="M229.17,70.6094 C229.17,115.0294 229.17,259.5094 229.17,314.3794" fill="none" id="Identifier-to-XsdAnyUri-1" style="stroke:#404040;stroke-width:1.2;stroke-dasharray:7,7;"/><polygon fill="#404040" points="229.17,320.3794,233.17,311.3794,229.17,315.3794,225.17,311.3794,229.17,320.3794" style="stroke:#404040;stroke-width:1.2;"/><text fill="#000000" font-family="sans-serif" font-size="13" lengthAdjust="spacing" textLength="14.4473" x="214.17" y="209.9945">url</text></g><!--link CatalogRecord to XsdAnyUri--><g class="link" data-entity-1="ent0011" data-entity-2="ent0002" data-link-type="dependency" data-source-line="25" id="lnk12"><path codeLine="25" d="M326.83,70.8894 C326.83,124.7594 326.83,330.6094 326.83,330.6094 C326.83,330.6094 301.87,330.6094 276.47,330.6094" fill="none" id="CatalogRecord-to-XsdAnyUri" style="stroke:#404040;stroke-width:1.2;stroke-dasharray:7,7;"/><polygon fill="#404040" points="270.47,330.6094,279.47,334.6094,275.47,330.6094,279.47,326.6094,270.47,330.6094" style="stroke:#404040;stroke-width:1.2;"/><text fill="#000000" font-family="sans-serif" font-size="13" lengthAdjust="spacing" textLength="68.6309" x="257.83" y="225.4245">conformsTo</text></g><!--link Reference to XsdAnyUri--><g class="link" data-entity-1="ent0013" data-entity-2="ent0002" data-link-type="dependency" data-source-line="27" id="lnk14"><path codeLine="27" d="M431,70.6794 C431,126.6594 431,350.6094 431,350.6094 C431,350.6094 331.71,350.6094 276.6,350.6094" fill="none" id="Reference-to-XsdAnyUri" style="stroke:#404040;stroke-width:1.2;stroke-dasharray:7,7;"/><polygon fill="#404040" points="270.6,350.6094,279.6,354.6094,275.6,350.6094,279.6,346.6094,270.6,350.6094" style="stroke:#404040;stroke-width:1.2;"/><text fill="#000000" font-family="sans-serif" font-size="13" lengthAdjust="spacing" textLength="49.1372" x="381" y="305.3345">identifier</text></g><!--link Reference to XsdAnyUri--><g class="link" data-entity-1="ent0013" data-entity-2="ent0002" data-link-type="dependency" data-source-line="28" id="lnk15"><path codeLine="28" d="M410.67,70.6094 C410.67,125.2894 410.67,340.6094 410.67,340.6094 C410.67,340.6094 326.41,340.6094 276.34,340.6094" fill="none" id="Reference-to-XsdAnyUri-1" style="stroke:#404040;stroke-width:1.2;stroke-dasharray:7,7;"/><polygon fill="#404040" points="270.34,340.6094,279.34,344.6094,275.34,340.6094,279.34,336.6094,270.34,340.6094" style="stroke:#404040;stroke-width:1.2;"/><text fill="#000000" font-family="sans-serif" font-size="13" lengthAdjust="spacing" textLength="14.4473" x="395.67" y="272.2645">url</text></g><?plantuml-src XP5DRy8m343l_HKMt16mSPaG4cCWSGKcxPebBer8uyZ9XBff_tsX7MseDDPUccVd-QD11uFmvjNILg-iiq8h1AbP6co-iNIXWXBBTsIV-PEsJh0emHT2qLdR8-J2U4mYIsOw7mejJnQzXybecWHPs9D71zFPEA6M5DOqXKPR39L380u59G5fHFH-PT2KMf4XXk7Z-F96-4oiaFjqGpRizIV2P9fzPrdZ6BI33q3uRWqmdoiHn25MNonWk5ckPoyFrpihiX9TsCi2IwpltH0OhkidkwMZqIBnFq7ShGqwryZ_97wmwLLEQ_QhtQlpQzcsf1PrnzQLeBxECJdaK6tLlQoqvxX7GySTolXRcivJqlL_G_j2IJOdBls1hjuTviWOPwwTxQdrTUJEHlvEkapm0m00?></g></svg>