<svg xmlns="http://www.w3.org/2000/svg" xmlns:xlink="http://www.w3.org/1999/xlink" contentStyleType="text/css" data-diagram-type="CLASS" height="202px" preserveAspectRatio="none" style="width:629px;height:202px;background:#FFFFFF;" version="1.1" viewBox="0 0 629 202" width="629px" zoomAndPan="magnify"><?plantuml 1.2026.3?><defs/><g><g class="title" data-source-line="1"><text fill="#000000" font-family="sans-serif" font-size="14" font-weight="700" lengthAdjust="spacing" textLength="71.5723" x="275.3965" y="24.5332">XsdAnyUri</text></g><!--class XsdAnyUri--><g class="entity" data-qualified-name="XsdAnyUri" data-source-line="12" id="ent0002"><rect fill="#FAE5D3" height="40.1875" rx="2.5" ry="2.5" style="stroke:#404040;stroke-width:0.5;" width="65.3809" x="290" y="148.6094"/><text fill="#000000" font-family="sans-serif" font-size="12" font-style="italic" lengthAdjust="spacing" textLength="63.3809" x="291" y="166.0664">&#171;dataType&#187;</text><text fill="#000000" font-family="sans-serif" font-size="12" lengthAdjust="spacing" textLength="56.6836" x="294.3486" y="181.1602">XsdAnyUri</text></g><!--class ConceptScheme--><g class="entity" data-qualified-name="ConceptScheme" data-source-line="13" id="ent0003"><rect fill="#EEEEEE" height="25.0938" rx="2.5" ry="2.5" style="stroke:#404040;stroke-width:0.5;" width="94.7168" x="7" y="45.6094"/><text fill="#000000" font-family="sans-serif" font-size="12" lengthAdjust="spacing" textLength="88.7168" x="10" y="63.0664">ConceptScheme</text></g><!--class Concept--><g class="entity" data-qualified-name="Concept" data-source-line="16" id="ent0006"><rect fill="#EEEEEE" height="25.0938" rx="2.5" ry="2.5" style="stroke:#404040;stroke-width:0.5;" width="50.6953" x="156" y="45.6094"/><text fill="#000000" font-family="sans-serif" font-size="12" lengthAdjust="spacing" textLength="44.6953" x="159" y="63.0664">Concept</text></g><!--class Identifier--><g class="entity" data-qualified-name="Identifier" data-source-line="18" id="ent0008"><rect fill="#EEEEEE" height="25.0938" rx="2.5" ry="2.5" style="stroke:#404040;stroke-width:0.5;" width="52.0254" x="272.5" y="45.6094"/><text fill="#000000" font-family="sans-serif" font-size="12" lengthAdjust="spacing" textLength="46.0254" x="275.5" y="63.0664">Identifier</text></g><!--class CatalogRecord--><g class="entity" data-qualified-name="CatalogRecord" data-source-line="21" id="ent0011"><rect fill="#EEEEEE" height="25.0938" rx="2.5" ry="2.5" style="stroke:#404040;stroke-width:0.5;" width="86.0449" x="385.5" y="45.6094"/><text fill="#000000" font-family="sans-serif" font-size="12" lengthAdjust="spacing" textLength="80.0449" x="388.5" y="63.0664">CatalogRecord</text></g><!--class Reference--><g class="entity" data-qualified-name="Reference" data-source-line="23" id="ent0013"><rect fill="#EEEEEE" height="25.0938" rx="2.5" ry="2.5" style="stroke:#404040;stroke-width:0.5;" width="61.3652" x="553" y="45.6094"/><text fill="#000000" font-family="sans-serif" font-size="12" lengthAdjust="spacing" textLength="55.3652" x="556" y="63.0664">Reference</text></g><!--link ConceptScheme to XsdAnyUri--><g class="link" data-entity-1="ent0003" data-entity-2="ent0002" data-link-type="dependency" data-source-line="14" id="lnk4"><path codeLine="14" d="M43.57,70.7994 C32.82,83.7194 19.63,104.5694 31.5,118.6094 C64.29,157.3894 214.8118,165.3432 283.7618,167.0232" fill="none" id="ConceptScheme-to-XsdAnyUri" style="stroke:#404040;stroke-width:1.2;stroke-dasharray:7,7;"/><polygon fill="#404040" points="289.76,167.1694,280.8601,162.9513,284.7615,167.0476,280.6652,170.949,289.76,167.1694" style="stroke:#404040;stroke-width:1.2;"/><text fill="#000000" font-family="sans-serif" font-size="13" lengthAdjust="spacing" textLength="49.1372" x="32.5" y="115.1045">identifier</text></g><!--link ConceptScheme to XsdAnyUri--><g class="link" data-entity-1="ent0003" data-entity-2="ent0002" data-link-type="dependency" data-source-line="15" id="lnk5"><path codeLine="15" d="M74.94,70.6094 C98.13,83.3794 137.29,104.0794 172.5,118.6094 C212.01,134.9094 253.2987,147.8638 284.0387,156.8038" fill="none" id="ConceptScheme-to-XsdAnyUri-1" style="stroke:#404040;stroke-width:1.2;stroke-dasharray:7,7;"/><polygon fill="#404040" points="289.8,158.4794,282.2751,152.1252,284.9989,157.0831,280.041,159.8069,289.8,158.4794" style="stroke:#404040;stroke-width:1.2;"/><text fill="#000000" font-family="sans-serif" font-size="13" lengthAdjust="spacing" textLength="14.4473" x="173.5" y="115.1045">url</text></g><!--link Concept to XsdAnyUri--><g class="link" data-entity-1="ent0006" data-entity-2="ent0002" data-link-type="dependency" data-source-line="17" id="lnk7"><path codeLine="17" d="M184.05,70.6394 C187.52,83.8094 194.89,105.2694 208.5,118.6094 C230.96,140.6294 259.1003,151.8586 284.1103,158.8286" fill="none" id="Concept-to-XsdAnyUri" style="stroke:#404040;stroke-width:1.2;stroke-dasharray:7,7;"/><polygon fill="#404040" points="289.89,160.4394,282.2942,154.1701,285.0735,159.0971,280.1465,161.8764,289.89,160.4394" style="stroke:#404040;stroke-width:1.2;"/><text fill="#000000" font-family="sans-serif" font-size="13" lengthAdjust="spacing" textLength="49.1372" x="209.5" y="115.1045">identifier</text></g><!--link Identifier to XsdAnyUri--><g class="link" data-entity-1="ent0008" data-entity-2="ent0002" data-link-type="dependency" data-source-line="19" id="lnk9"><path codeLine="19" d="M286.22,70.8294 C275.3,82.7294 262.13,101.7594 269.5,118.6094 C274.62,130.3194 279.4818,136.625 289.0018,144.605" fill="none" id="Identifier-to-XsdAnyUri" style="stroke:#404040;stroke-width:1.2;stroke-dasharray:7,7;"/><polygon fill="#404040" points="293.6,148.4594,289.2723,139.6123,289.7681,145.2474,284.1331,145.7433,293.6,148.4594" style="stroke:#404040;stroke-width:1.2;"/><text fill="#000000" font-family="sans-serif" font-size="13" lengthAdjust="spacing" textLength="58.5317" x="270.5" y="115.1045">propertyId</text></g><!--link Identifier to XsdAnyUri--><g class="link" data-entity-1="ent0008" data-entity-2="ent0002" data-link-type="dependency" data-source-line="20" id="lnk10"><path codeLine="20" d="M312.17,70.6594 C320.06,78.2594 329.23,88.9194 333.5,100.6094 C339.16,116.1094 337.2636,129.0161 332.6436,142.6661" fill="none" id="Identifier-to-XsdAnyUri-1" style="stroke:#404040;stroke-width:1.2;stroke-dasharray:7,7;"/><polygon fill="#404040" points="330.72,148.3494,337.3942,141.1068,332.323,143.6133,329.8165,138.542,330.72,148.3494" style="stroke:#404040;stroke-width:1.2;"/><text fill="#000000" font-family="sans-serif" font-size="13" lengthAdjust="spacing" textLength="14.4473" x="337.5" y="115.1045">url</text></g><!--link CatalogRecord to XsdAnyUri--><g class="link" data-entity-1="ent0011" data-entity-2="ent0002" data-link-type="dependency" data-source-line="22" id="lnk12"><path codeLine="22" d="M417.16,70.7194 C399,89.3094 367.4028,121.6475 345.4128,144.1575" fill="none" id="CatalogRecord-to-XsdAnyUri" style="stroke:#404040;stroke-width:1.2;stroke-dasharray:7,7;"/><polygon fill="#404040" points="341.22,148.4494,350.3704,144.8067,344.714,144.8728,344.6479,139.2163,341.22,148.4494" style="stroke:#404040;stroke-width:1.2;"/><text fill="#000000" font-family="sans-serif" font-size="13" lengthAdjust="spacing" textLength="68.6309" x="386.5" y="115.1045">conformsTo</text></g><!--link Reference to XsdAnyUri--><g class="link" data-entity-1="ent0013" data-entity-2="ent0002" data-link-type="dependency" data-source-line="24" id="lnk14"><path codeLine="24" d="M562.2,70.6894 C538.5,83.3394 498.88,103.7594 463.5,118.6094 C427.06,133.8994 389.7171,146.5488 360.8571,155.7388" fill="none" id="Reference-to-XsdAnyUri" style="stroke:#404040;stroke-width:1.2;stroke-dasharray:7,7;"/><polygon fill="#404040" points="355.14,157.5594,364.9294,158.64,359.9043,156.0423,362.502,151.0172,355.14,157.5594" style="stroke:#404040;stroke-width:1.2;"/><text fill="#000000" font-family="sans-serif" font-size="13" lengthAdjust="spacing" textLength="49.1372" x="501.5" y="115.1045">identifier</text></g><!--link Reference to XsdAnyUri--><g class="link" data-entity-1="ent0013" data-entity-2="ent0002" data-link-type="dependency" data-source-line="25" id="lnk15"><path codeLine="25" d="M582.12,70.6294 C579.85,84.2194 574.04,106.4694 559.5,118.6094 C528.78,144.2594 418.5097,158.2669 361.0397,164.0669" fill="none" id="Reference-to-XsdAnyUri-1" style="stroke:#404040;stroke-width:1.2;stroke-dasharray:7,7;"/><polygon fill="#404040" points="355.07,164.6694,364.4262,167.7454,360.0447,164.1673,363.6229,159.7859,355.07,164.6694" style="stroke:#404040;stroke-width:1.2;"/><text fill="#000000" font-family="sans-serif" font-size="13" lengthAdjust="spacing" textLength="14.4473" x="574.5" y="115.1045">url</text></g><?plantuml-src XP7FJuCm583l_IjUnfsugHUpaE3SabqtJBpMyXZDIajUQnOq_kzsuA2GYENIVdtztW-ST0hXpUQfRbv9ibBc24AIKDZjiQfT0nLMxqYMsRFKDITUWIrvRYvIdw3Woc9manAPIrPASTPeBIpZLN0f5FViYq4NjZ7A44GFTzVFmsT3ETAKxensH_c9i5onRyOwnw8lUW7S3Yt0UfrpnxEcnYI1Q9Tk7r_kRsysHWkitL6KM67xRaGWshQBZMaS9u7_2VnSj9E5HFedy8FK97EOSvfjBi-lPT-JLZGSUrU0fhgQJ8tacdq-5nNMxEUepEc0ml-MhlAG3FMFw5GeZ2uCLJOpD-y12oJqFRVE_jJx1Z8paR-3hXty0000?></g></svg>