<svg xmlns="http://www.w3.org/2000/svg" xmlns:xlink="http://www.w3.org/1999/xlink" contentStyleType="text/css" data-diagram-type="CLASS" height="202px" preserveAspectRatio="none" style="width:2089px;height:202px;background:#FFFFFF;" version="1.1" viewBox="0 0 2089 202" width="2089px" zoomAndPan="magnify"><?plantuml 1.2026.3?><defs/><g><g class="title" data-source-line="1"><text fill="#000000" font-family="sans-serif" font-size="14" font-weight="700" lengthAdjust="spacing" textLength="71.5723" x="1005.6543" y="24.5332">XsdAnyUri</text></g><!--class XsdAnyUri--><g class="entity" data-qualified-name="XsdAnyUri" data-source-line="12" id="ent0002"><rect fill="#FAE5D3" height="40.1875" rx="2.5" ry="2.5" style="stroke:#404040;stroke-width:0.5;" width="65.3809" x="1044.75" y="148.6094"/><text fill="#000000" font-family="sans-serif" font-size="12" font-style="italic" lengthAdjust="spacing" textLength="63.3809" x="1045.75" y="166.0664">&#171;dataType&#187;</text><text fill="#000000" font-family="sans-serif" font-size="12" lengthAdjust="spacing" textLength="56.6836" x="1049.0986" y="181.1602">XsdAnyUri</text></g><!--class Dataset--><g class="entity" data-qualified-name="Dataset" data-source-line="13" id="ent0003"><rect fill="#EEEEEE" height="25.0938" rx="2.5" ry="2.5" style="stroke:#404040;stroke-width:0.5;" width="47.3555" x="211.75" y="45.6094"/><text fill="#000000" font-family="sans-serif" font-size="12" lengthAdjust="spacing" textLength="41.3555" x="214.75" y="63.0664">Dataset</text></g><!--class DataDownload--><g class="entity" data-qualified-name="DataDownload" data-source-line="19" id="ent0009"><rect fill="#EEEEEE" height="25.0938" rx="2.5" ry="2.5" style="stroke:#404040;stroke-width:0.5;" width="84.7148" x="627.75" y="45.6094"/><text fill="#000000" font-family="sans-serif" font-size="12" lengthAdjust="spacing" textLength="78.7148" x="630.75" y="63.0664">DataDownload</text></g><!--class WebAPI--><g class="entity" data-qualified-name="WebAPI" data-source-line="24" id="ent0014"><rect fill="#EEEEEE" height="25.0938" rx="2.5" ry="2.5" style="stroke:#404040;stroke-width:0.5;" width="50.0156" x="925.25" y="45.6094"/><text fill="#000000" font-family="sans-serif" font-size="12" lengthAdjust="spacing" textLength="44.0156" x="928.25" y="63.0664">WebAPI</text></g><!--class Agent--><g class="entity" data-qualified-name="Agent" data-source-line="28" id="ent0018"><rect fill="#EEEEEE" height="25.0938" rx="2.5" ry="2.5" style="stroke:#404040;stroke-width:0.5;" width="37.3594" x="1114.75" y="45.6094"/><text fill="#000000" font-family="sans-serif" font-size="12" font-style="italic" lengthAdjust="spacing" textLength="31.3594" x="1117.75" y="63.0664">Agent</text></g><!--class Organization--><g class="entity" data-qualified-name="Organization" data-source-line="30" id="ent0020"><rect fill="#EEEEEE" height="25.0938" rx="2.5" ry="2.5" style="stroke:#404040;stroke-width:0.5;" width="74.0391" x="1187.25" y="45.6094"/><text fill="#000000" font-family="sans-serif" font-size="12" lengthAdjust="spacing" textLength="68.0391" x="1190.25" y="63.0664">Organization</text></g><!--class DefinedTerm--><g class="entity" data-qualified-name="DefinedTerm" data-source-line="32" id="ent0022"><rect fill="#EEEEEE" height="25.0938" rx="2.5" ry="2.5" style="stroke:#404040;stroke-width:0.5;" width="75.3574" x="1306.75" y="45.6094"/><text fill="#000000" font-family="sans-serif" font-size="12" lengthAdjust="spacing" textLength="69.3574" x="1309.75" y="63.0664">DefinedTerm</text></g><!--class Identifier--><g class="entity" data-qualified-name="Identifier" data-source-line="35" id="ent0025"><rect fill="#EEEEEE" height="25.0938" rx="2.5" ry="2.5" style="stroke:#404040;stroke-width:0.5;" width="52.0254" x="1427.25" y="45.6094"/><text fill="#000000" font-family="sans-serif" font-size="12" lengthAdjust="spacing" textLength="46.0254" x="1430.25" y="63.0664">Identifier</text></g><!--class LabeledLink--><g class="entity" data-qualified-name="LabeledLink" data-source-line="37" id="ent0027"><rect fill="#EEEEEE" height="25.0938" rx="2.5" ry="2.5" style="stroke:#404040;stroke-width:0.5;" width="70.7227" x="1514.75" y="45.6094"/><text fill="#000000" font-family="sans-serif" font-size="12" lengthAdjust="spacing" textLength="64.7227" x="1517.75" y="63.0664">LabeledLink</text></g><!--class MonetaryGrant--><g class="entity" data-qualified-name="MonetaryGrant" data-source-line="39" id="ent0029"><rect fill="#EEEEEE" height="25.0938" rx="2.5" ry="2.5" style="stroke:#404040;stroke-width:0.5;" width="86.0332" x="1621.25" y="45.6094"/><text fill="#000000" font-family="sans-serif" font-size="12" lengthAdjust="spacing" textLength="80.0332" x="1624.25" y="63.0664">MonetaryGrant</text></g><!--class ProvActivity--><g class="entity" data-qualified-name="ProvActivity" data-source-line="41" id="ent0031"><rect fill="#EEEEEE" height="25.0938" rx="2.5" ry="2.5" style="stroke:#404040;stroke-width:0.5;" width="68.6777" x="1742.75" y="45.6094"/><text fill="#000000" font-family="sans-serif" font-size="12" lengthAdjust="spacing" textLength="62.6777" x="1745.75" y="63.0664">ProvActivity</text></g><!--class DerivedFrom--><g class="entity" data-qualified-name="DerivedFrom" data-source-line="43" id="ent0033"><rect fill="#EEEEEE" height="25.0938" rx="2.5" ry="2.5" style="stroke:#404040;stroke-width:0.5;" width="75.3457" x="1846.75" y="45.6094"/><text fill="#000000" font-family="sans-serif" font-size="12" lengthAdjust="spacing" textLength="69.3457" x="1849.75" y="63.0664">DerivedFrom</text></g><!--class CatalogRecord--><g class="entity" data-qualified-name="CatalogRecord" data-source-line="45" id="ent0035"><rect fill="#EEEEEE" height="25.0938" rx="2.5" ry="2.5" style="stroke:#404040;stroke-width:0.5;" width="86.0449" x="1982.25" y="45.6094"/><text fill="#000000" font-family="sans-serif" font-size="12" lengthAdjust="spacing" textLength="80.0449" x="1985.25" y="63.0664">CatalogRecord</text></g><!--link Dataset to XsdAnyUri--><g class="link" data-entity-1="ent0003" data-entity-2="ent0002" data-link-type="dependency" data-source-line="14" id="lnk4"><path codeLine="14" d="M211.72,59.3594 C152.64,60.7194 6,69.0394 53.25,118.6094 C88.27,155.3494 868.0203,165.4568 1038.7203,167.2368" fill="none" id="Dataset-to-XsdAnyUri" style="stroke:#404040;stroke-width:1.2;stroke-dasharray:7,7;"/><polygon fill="#404040" points="1044.72,167.2994,1035.7622,163.2057,1039.7203,167.2472,1035.6788,171.2053,1044.72,167.2994" style="stroke:#404040;stroke-width:1.2;"/><text fill="#000000" font-family="sans-serif" font-size="13" lengthAdjust="spacing" textLength="49.1372" x="54.25" y="115.1045">identifier</text></g><!--link Dataset to XsdAnyUri--><g class="link" data-entity-1="ent0003" data-entity-2="ent0002" data-link-type="dependency" data-source-line="15" id="lnk5"><path codeLine="15" d="M211.47,64.7494 C177.19,73.9094 120.47,93.5494 144.25,118.6094 C175.89,151.9594 877.4607,164.5775 1038.7307,167.0475" fill="none" id="Dataset-to-XsdAnyUri-1" style="stroke:#404040;stroke-width:1.2;stroke-dasharray:7,7;"/><polygon fill="#404040" points="1044.73,167.1394,1035.7923,163.002,1039.7306,167.0628,1035.6698,171.0011,1044.73,167.1394" style="stroke:#404040;stroke-width:1.2;"/><text fill="#000000" font-family="sans-serif" font-size="13" lengthAdjust="spacing" textLength="46.96" x="145.25" y="115.1045">sameAs</text></g><!--link Dataset to XsdAnyUri--><g class="link" data-entity-1="ent0003" data-entity-2="ent0002" data-link-type="dependency" data-source-line="16" id="lnk6"><path codeLine="16" d="M230.2,70.8894 C225.34,84.2994 220.32,105.9694 232.25,118.6094 C260.63,148.6794 886.5613,163.6331 1038.5813,166.8331" fill="none" id="Dataset-to-XsdAnyUri-2" style="stroke:#404040;stroke-width:1.2;stroke-dasharray:7,7;"/><polygon fill="#404040" points="1044.58,166.9594,1035.6662,162.7709,1039.5811,166.8541,1035.4978,170.7691,1044.58,166.9594" style="stroke:#404040;stroke-width:1.2;"/><text fill="#000000" font-family="sans-serif" font-size="13" lengthAdjust="spacing" textLength="14.4473" x="233.25" y="115.1045">url</text></g><!--link Dataset to XsdAnyUri--><g class="link" data-entity-1="ent0003" data-entity-2="ent0002" data-link-type="dependency" data-source-line="17" id="lnk7"><path codeLine="17" d="M241.71,70.7594 C250.28,84.9194 266.85,108.2094 288.25,118.6094 C357.06,152.0694 898.6911,164.3067 1038.7311,166.9367" fill="none" id="Dataset-to-XsdAnyUri-3" style="stroke:#404040;stroke-width:1.2;stroke-dasharray:7,7;"/><polygon fill="#404040" points="1044.73,167.0494,1035.8067,162.8811,1039.7309,166.9555,1035.6565,170.8797,1044.73,167.0494" style="stroke:#404040;stroke-width:1.2;"/><text fill="#000000" font-family="sans-serif" font-size="13" lengthAdjust="spacing" textLength="40.4663" x="289.25" y="115.1045">license</text></g><!--link Dataset to XsdAnyUri--><g class="link" data-entity-1="ent0003" data-entity-2="ent0002" data-link-type="dependency" data-source-line="18" id="lnk8"><path codeLine="18" d="M258.86,68.8294 C296.44,84.1594 368.39,112.7794 395.25,118.6094 C521.55,146.0394 920.4138,162.0447 1038.5838,166.2747" fill="none" id="Dataset-to-XsdAnyUri-4" style="stroke:#404040;stroke-width:1.2;stroke-dasharray:7,7;"/><polygon fill="#404040" points="1044.58,166.4894,1035.7289,162.17,1039.5832,166.3105,1035.4427,170.1649,1044.58,166.4894" style="stroke:#404040;stroke-width:1.2;"/><text fill="#000000" font-family="sans-serif" font-size="13" lengthAdjust="spacing" textLength="114.8989" x="396.25" y="115.1045">publishingPrinciples</text></g><!--link DataDownload to XsdAnyUri--><g class="link" data-entity-1="ent0009" data-entity-2="ent0002" data-link-type="dependency" data-source-line="20" id="lnk10"><path codeLine="20" d="M627.43,62.6194 C574.22,68.5294 494.11,83.4894 526.25,118.6094 C561.34,156.9594 925.1607,165.3983 1038.4507,167.1183" fill="none" id="DataDownload-to-XsdAnyUri" style="stroke:#404040;stroke-width:1.2;stroke-dasharray:7,7;"/><polygon fill="#404040" points="1044.45,167.2094,1035.5118,163.0732,1039.4506,167.1335,1035.3903,171.0723,1044.45,167.2094" style="stroke:#404040;stroke-width:1.2;"/><text fill="#000000" font-family="sans-serif" font-size="13" lengthAdjust="spacing" textLength="49.1372" x="527.25" y="115.1045">identifier</text></g><!--link DataDownload to XsdAnyUri--><g class="link" data-entity-1="ent0009" data-entity-2="ent0002" data-link-type="dependency" data-source-line="21" id="lnk11"><path codeLine="21" d="M647.62,70.7694 C627.16,82.7794 602.36,102.0494 617.25,118.6094 C645.81,150.3694 938.6035,162.974 1038.7435,166.404" fill="none" id="DataDownload-to-XsdAnyUri-1" style="stroke:#404040;stroke-width:1.2;stroke-dasharray:7,7;"/><polygon fill="#404040" points="1044.74,166.6094,1035.8822,162.3036,1039.7429,166.4382,1035.6083,170.2989,1044.74,166.6094" style="stroke:#404040;stroke-width:1.2;"/><text fill="#000000" font-family="sans-serif" font-size="13" lengthAdjust="spacing" textLength="59.249" x="618.25" y="115.1045">contentUrl</text></g><!--link DataDownload to XsdAnyUri--><g class="link" data-entity-1="ent0009" data-entity-2="ent0002" data-link-type="dependency" data-source-line="22" id="lnk12"><path codeLine="22" d="M676.21,70.9894 C683.88,84.9194 698.6,107.5194 718.25,118.6094 C773.85,149.9894 961.0172,162.1159 1038.6172,165.9159" fill="none" id="DataDownload-to-XsdAnyUri-2" style="stroke:#404040;stroke-width:1.2;stroke-dasharray:7,7;"/><polygon fill="#404040" points="1044.61,166.2094,1035.8164,161.774,1039.616,165.9648,1035.4251,169.7644,1044.61,166.2094" style="stroke:#404040;stroke-width:1.2;"/><text fill="#000000" font-family="sans-serif" font-size="13" lengthAdjust="spacing" textLength="14.4473" x="719.25" y="115.1045">url</text></g><!--link DataDownload to XsdAnyUri--><g class="link" data-entity-1="ent0009" data-entity-2="ent0002" data-link-type="dependency" data-source-line="23" id="lnk13"><path codeLine="23" d="M691.56,70.7094 C717.14,84.1494 761.66,106.0594 802.25,118.6094 C887.5,144.9694 986.3051,158.1013 1038.4951,163.7713" fill="none" id="DataDownload-to-XsdAnyUri-3" style="stroke:#404040;stroke-width:1.2;stroke-dasharray:7,7;"/><polygon fill="#404040" points="1044.46,164.4194,1035.9447,159.4707,1039.4892,163.8793,1035.0806,167.4239,1044.46,164.4194" style="stroke:#404040;stroke-width:1.2;"/><text fill="#000000" font-family="sans-serif" font-size="13" lengthAdjust="spacing" textLength="40.4663" x="803.25" y="115.1045">license</text></g><!--link WebAPI to XsdAnyUri--><g class="link" data-entity-1="ent0014" data-entity-2="ent0002" data-link-type="dependency" data-source-line="25" id="lnk15"><path codeLine="25" d="M925.14,64.4194 C890.42,72.8894 834.37,91.3494 856.25,118.6094 C879.49,147.5694 982.8919,159.9672 1038.5619,164.7372" fill="none" id="WebAPI-to-XsdAnyUri" style="stroke:#404040;stroke-width:1.2;stroke-dasharray:7,7;"/><polygon fill="#404040" points="1044.54,165.2494,1035.9143,160.4956,1039.5583,164.8225,1035.2314,168.4664,1044.54,165.2494" style="stroke:#404040;stroke-width:1.2;"/><text fill="#000000" font-family="sans-serif" font-size="13" lengthAdjust="spacing" textLength="49.1372" x="857.25" y="115.1045">identifier</text></g><!--link WebAPI to XsdAnyUri--><g class="link" data-entity-1="ent0014" data-entity-2="ent0002" data-link-type="dependency" data-source-line="26" id="lnk16"><path codeLine="26" d="M945.78,70.7694 C941.64,83.6594 937.48,104.4894 947.25,118.6094 C969,150.0494 1007.7008,160.5605 1038.5608,164.6005" fill="none" id="WebAPI-to-XsdAnyUri-1" style="stroke:#404040;stroke-width:1.2;stroke-dasharray:7,7;"/><polygon fill="#404040" points="1044.51,165.3794,1036.1054,160.245,1039.5523,164.7303,1035.0669,168.1773,1044.51,165.3794" style="stroke:#404040;stroke-width:1.2;"/><text fill="#000000" font-family="sans-serif" font-size="13" lengthAdjust="spacing" textLength="85.2808" x="948.25" y="115.1045">documentation</text></g><!--link WebAPI to XsdAnyUri--><g class="link" data-entity-1="ent0014" data-entity-2="ent0002" data-link-type="dependency" data-source-line="27" id="lnk17"><path codeLine="27" d="M975.35,66.4094 C994.36,72.9394 1020.2,84.0594 1038.25,100.6094 C1052.73,113.8894 1060.9557,128.331 1067.4357,143.001" fill="none" id="WebAPI-to-XsdAnyUri-2" style="stroke:#404040;stroke-width:1.2;stroke-dasharray:7,7;"/><polygon fill="#404040" points="1069.86,148.4894,1069.8824,138.6405,1067.8397,143.9157,1062.5646,141.873,1069.86,148.4894" style="stroke:#404040;stroke-width:1.2;"/><text fill="#000000" font-family="sans-serif" font-size="13" lengthAdjust="spacing" textLength="14.4473" x="1055.25" y="115.1045">url</text></g><!--link Agent to XsdAnyUri--><g class="link" data-entity-1="ent0018" data-entity-2="ent0002" data-link-type="dependency" data-source-line="29" id="lnk19"><path codeLine="29" d="M1127.26,70.7194 C1117.66,89.3094 1101.5122,120.6078 1089.8922,143.1178" fill="none" id="Agent-to-XsdAnyUri" style="stroke:#404040;stroke-width:1.2;stroke-dasharray:7,7;"/><polygon fill="#404040" points="1087.14,148.4494,1094.8227,142.2869,1089.4335,144.0064,1087.714,138.6173,1087.14,148.4494" style="stroke:#404040;stroke-width:1.2;"/><text fill="#000000" font-family="sans-serif" font-size="13" lengthAdjust="spacing" textLength="49.1372" x="1112.25" y="115.1045">identifier</text></g><!--link Organization to XsdAnyUri--><g class="link" data-entity-1="ent0020" data-entity-2="ent0002" data-link-type="dependency" data-source-line="31" id="lnk21"><path codeLine="31" d="M1215.71,70.7394 C1205.82,83.6194 1188.55,104.4194 1170.25,118.6094 C1151.79,132.9194 1133.9803,142.6389 1115.3403,151.3089" fill="none" id="Organization-to-XsdAnyUri" style="stroke:#404040;stroke-width:1.2;stroke-dasharray:7,7;"/><polygon fill="#404040" points="1109.9,153.8394,1119.7474,153.6706,1114.4336,151.7307,1116.3735,146.4168,1109.9,153.8394" style="stroke:#404040;stroke-width:1.2;"/><text fill="#000000" font-family="sans-serif" font-size="13" lengthAdjust="spacing" textLength="14.4473" x="1191.25" y="115.1045">url</text></g><!--link DefinedTerm to XsdAnyUri--><g class="link" data-entity-1="ent0022" data-entity-2="ent0002" data-link-type="dependency" data-source-line="33" id="lnk23"><path codeLine="33" d="M1320.56,70.6994 C1294.7,83.1694 1251.95,103.2694 1214.25,118.6094 C1179.03,132.9394 1143.5639,145.4276 1115.6139,154.8776" fill="none" id="DefinedTerm-to-XsdAnyUri" style="stroke:#404040;stroke-width:1.2;stroke-dasharray:7,7;"/><polygon fill="#404040" points="1109.93,156.7994,1119.737,157.706,1114.6666,155.1979,1117.1747,150.1275,1109.93,156.7994" style="stroke:#404040;stroke-width:1.2;"/><text fill="#000000" font-family="sans-serif" font-size="13" lengthAdjust="spacing" textLength="49.1372" x="1255.25" y="115.1045">identifier</text></g><!--link DefinedTerm to XsdAnyUri--><g class="link" data-entity-1="ent0022" data-entity-2="ent0002" data-link-type="dependency" data-source-line="34" id="lnk24"><path codeLine="34" d="M1341.45,70.6994 C1337.53,84.3494 1329.04,106.6594 1313.25,118.6094 C1281.54,142.5894 1172.8633,157.3071 1115.8633,163.6371" fill="none" id="DefinedTerm-to-XsdAnyUri-1" style="stroke:#404040;stroke-width:1.2;stroke-dasharray:7,7;"/><polygon fill="#404040" points="1109.9,164.2994,1119.2865,167.2816,1114.8695,163.7475,1118.4035,159.3304,1109.9,164.2994" style="stroke:#404040;stroke-width:1.2;"/><text fill="#000000" font-family="sans-serif" font-size="13" lengthAdjust="spacing" textLength="104.7681" x="1330.25" y="115.1045">inDefinedTermSet</text></g><!--link Identifier to XsdAnyUri--><g class="link" data-entity-1="ent0025" data-entity-2="ent0002" data-link-type="dependency" data-source-line="36" id="lnk26"><path codeLine="36" d="M1455,71.0294 C1456.25,84.5694 1455.9,106.3794 1443.25,118.6094 C1396.13,164.1794 1196.74,168.2257 1116,168.0057" fill="none" id="Identifier-to-XsdAnyUri" style="stroke:#404040;stroke-width:1.2;stroke-dasharray:7,7;"/><polygon fill="#404040" points="1110,167.9894,1118.9891,172.0139,1115,168.003,1119.0109,164.0139,1110,167.9894" style="stroke:#404040;stroke-width:1.2;"/><text fill="#000000" font-family="sans-serif" font-size="13" lengthAdjust="spacing" textLength="14.4473" x="1454.25" y="115.1045">url</text></g><!--link LabeledLink to XsdAnyUri--><g class="link" data-entity-1="ent0027" data-entity-2="ent0002" data-link-type="dependency" data-source-line="38" id="lnk28"><path codeLine="38" d="M1539.73,71.0494 C1526.62,85.0494 1502.82,107.7094 1477.25,118.6094 C1411.04,146.8294 1198.8608,161.007 1115.7708,165.617" fill="none" id="LabeledLink-to-XsdAnyUri" style="stroke:#404040;stroke-width:1.2;stroke-dasharray:7,7;"/><polygon fill="#404040" points="1109.78,165.9494,1118.9878,169.4447,1114.7723,165.6724,1118.5446,161.4569,1109.78,165.9494" style="stroke:#404040;stroke-width:1.2;"/><text fill="#000000" font-family="sans-serif" font-size="13" lengthAdjust="spacing" textLength="49.1372" x="1507.25" y="115.1045">identifier</text></g><!--link MonetaryGrant to XsdAnyUri--><g class="link" data-entity-1="ent0029" data-entity-2="ent0002" data-link-type="dependency" data-source-line="40" id="lnk30"><path codeLine="40" d="M1649.84,70.6094 C1631.42,84.6194 1597.98,107.7394 1565.25,118.6094 C1480.2,146.8494 1211.0636,161.5015 1115.9536,165.9115" fill="none" id="MonetaryGrant-to-XsdAnyUri" style="stroke:#404040;stroke-width:1.2;stroke-dasharray:7,7;"/><polygon fill="#404040" points="1109.96,166.1894,1119.1356,169.7682,1114.9546,165.9578,1118.7651,161.7768,1109.96,166.1894" style="stroke:#404040;stroke-width:1.2;"/><text fill="#000000" font-family="sans-serif" font-size="13" lengthAdjust="spacing" textLength="49.1372" x="1604.25" y="115.1045">identifier</text></g><!--link ProvActivity to XsdAnyUri--><g class="link" data-entity-1="ent0031" data-entity-2="ent0002" data-link-type="dependency" data-source-line="42" id="lnk32"><path codeLine="42" d="M1760.23,70.6694 C1738.54,84.7294 1699.4,107.9094 1662.25,118.6094 C1557.21,148.8694 1223.4864,162.6111 1116.0964,166.3411" fill="none" id="ProvActivity-to-XsdAnyUri" style="stroke:#404040;stroke-width:1.2;stroke-dasharray:7,7;"/><polygon fill="#404040" points="1110.1,166.5494,1119.2334,170.2346,1115.097,166.3758,1118.9557,162.2394,1110.1,166.5494" style="stroke:#404040;stroke-width:1.2;"/><text fill="#000000" font-family="sans-serif" font-size="13" lengthAdjust="spacing" textLength="49.1372" x="1706.25" y="115.1045">identifier</text></g><!--link DerivedFrom to XsdAnyUri--><g class="link" data-entity-1="ent0033" data-entity-2="ent0002" data-link-type="dependency" data-source-line="44" id="lnk34"><path codeLine="44" d="M1866.43,70.7294 C1843.74,84.8594 1802.84,108.1094 1764.25,118.6094 C1638.49,152.8394 1234.7285,164.1762 1115.8485,166.8162" fill="none" id="DerivedFrom-to-XsdAnyUri" style="stroke:#404040;stroke-width:1.2;stroke-dasharray:7,7;"/><polygon fill="#404040" points="1109.85,166.9494,1118.9366,170.7486,1114.8488,166.8384,1118.759,162.7505,1109.85,166.9494" style="stroke:#404040;stroke-width:1.2;"/><text fill="#000000" font-family="sans-serif" font-size="13" lengthAdjust="spacing" textLength="49.1372" x="1810.25" y="115.1045">identifier</text></g><!--link CatalogRecord to XsdAnyUri--><g class="link" data-entity-1="ent0035" data-entity-2="ent0002" data-link-type="dependency" data-source-line="46" id="lnk36"><path codeLine="46" d="M2001.46,70.7194 C1971.29,84.8294 1917.26,108.0594 1868.25,118.6094 C1719.95,150.5394 1246.2883,163.6779 1116.1083,166.7479" fill="none" id="CatalogRecord-to-XsdAnyUri" style="stroke:#404040;stroke-width:1.2;stroke-dasharray:7,7;"/><polygon fill="#404040" points="1110.11,166.8894,1119.2018,170.6761,1115.1086,166.7715,1119.0132,162.6783,1110.11,166.8894" style="stroke:#404040;stroke-width:1.2;"/><text fill="#000000" font-family="sans-serif" font-size="13" lengthAdjust="spacing" textLength="49.1372" x="1927.25" y="115.1045">identifier</text></g><!--link CatalogRecord to XsdAnyUri--><g class="link" data-entity-1="ent0035" data-entity-2="ent0002" data-link-type="dependency" data-source-line="47" id="lnk37"><path codeLine="47" d="M2021.17,70.7094 C2015.52,84.8094 2003.87,108.0394 1985.25,118.6094 C1907.9,162.5294 1268.99,167.0814 1115.8,167.5414" fill="none" id="CatalogRecord-to-XsdAnyUri-1" style="stroke:#404040;stroke-width:1.2;stroke-dasharray:7,7;"/><polygon fill="#404040" points="1109.8,167.5594,1118.812,171.5323,1114.8,167.5444,1118.7879,163.5324,1109.8,167.5594" style="stroke:#404040;stroke-width:1.2;"/><text fill="#000000" font-family="sans-serif" font-size="13" lengthAdjust="spacing" textLength="68.6309" x="2005.25" y="115.1045">conformsTo</text></g><?plantuml-src XLJ1Rjim3BtxAuJa7gpTTXcA05xJ30KwB5XJh5TPOX8YicHGIe9qsBzFbMrP7cRRleYFZqzyecM7JW5xjJBNrnV2x80Ic40I2kerb9MxiXBA0iXczeYwuiHBPWzScWlgFTjnPI79v4JciZsWE6gmbjqiRfEaKDnZlpDMq-wDCiJcdpwylnxyQaW2_OkkZNRF-0RivZRxasMrnYmsFMFSTXROtPtaZc-l5IoNRBxE7pwlFhOrAv-nu495isRpX_1aRRnOB1ErByoVWdQuGw11YkKbv7OmVI8rc5CeGFlp6yfNfqAXFVY3tX1gWPK2cxfPcOjMXijegGLwlY8uOMwG9_m8FFEbSJB8EqqHMh-DXLzGv9l7q7ozZ6qtuKZ30mnfnAdq9ExGw27IUv-yi8wuSCr7ESltlYgq4bQnapeQQQIf_q5xhl4jx1jaKY2gzS3_jTKE5tQeGMw1odgsNToDDi769Zj6qqds6Lox_MCi3xjtOTmyWKPiFF425CWdrCSWbCHHASMcZ_cxqU0uNRyHRyRLGw9g7vtMtP0vvyBX6TqroAP0LEs1qw8h83o3N9DffnZZP8eTDgruxs-NClkV8Fo_CcZsaAZQHqTqnud-ukyCbNPhihy0?></g></svg>