<svg xmlns="http://www.w3.org/2000/svg" xmlns:xlink="http://www.w3.org/1999/xlink" contentStyleType="text/css" data-diagram-type="CLASS" height="497px" preserveAspectRatio="none" style="width:7950px;height:497px;background:#FFFFFF;" version="1.1" viewBox="0 0 7950 497" width="7950px" zoomAndPan="magnify"><?plantuml 1.2026.3?><defs/><g><g class="title" data-source-line="1"><text fill="#000000" font-family="sans-serif" font-size="14" font-weight="700" lengthAdjust="spacing" textLength="71.5723" x="3936.0781" y="24.5332">XsdAnyUri</text></g><!--class XsdAnyUri--><g class="entity" data-qualified-name="XsdAnyUri" data-source-line="16" id="ent0002"><rect fill="#FAE5D3" height="93.0156" rx="2.5" ry="2.5" style="stroke:#404040;stroke-width:0.5;" width="192.1426" x="3371" y="390.6094"/><text fill="#000000" font-family="sans-serif" font-size="36" font-style="italic" lengthAdjust="spacing" textLength="190.1426" x="3372" y="432.9805">&#171;dataType&#187;</text><text fill="#000000" font-family="sans-serif" font-size="30" lengthAdjust="spacing" textLength="141.709" x="3396.2168" y="472.0332">XsdAnyUri</text></g><!--class CompositeProfile--><g class="entity" data-qualified-name="CompositeProfile" data-source-line="17" id="ent0003"><rect fill="#EEEEEE" height="47.7344" rx="2.5" ry="2.5" style="stroke:#404040;stroke-width:0.5;" width="234.4277" x="7" y="45.6094"/><text fill="#000000" font-family="sans-serif" font-size="30" font-style="italic" lengthAdjust="spacing" textLength="228.4277" x="10" y="81.752">CompositeProfile</text></g><!--class Dataset--><g class="entity" data-qualified-name="Dataset" data-source-line="19" id="ent0005"><rect fill="#EEEEEE" height="47.7344" rx="2.5" ry="2.5" style="stroke:#404040;stroke-width:0.5;" width="109.3887" x="261.5" y="45.6094"/><text fill="#000000" font-family="sans-serif" font-size="30" lengthAdjust="spacing" textLength="103.3887" x="264.5" y="81.752">Dataset</text></g><!--class DataDownload--><g class="entity" data-qualified-name="DataDownload" data-source-line="21" id="ent0007"><rect fill="#EEEEEE" height="47.7344" rx="2.5" ry="2.5" style="stroke:#404040;stroke-width:0.5;" width="202.7871" x="431.5" y="45.6094"/><text fill="#000000" font-family="sans-serif" font-size="30" lengthAdjust="spacing" textLength="196.7871" x="434.5" y="81.752">DataDownload</text></g><!--class WebAPI--><g class="entity" data-qualified-name="WebAPI" data-source-line="24" id="ent0010"><rect fill="#EEEEEE" height="47.7344" rx="2.5" ry="2.5" style="stroke:#404040;stroke-width:0.5;" width="116.0391" x="732" y="45.6094"/><text fill="#000000" font-family="sans-serif" font-size="30" lengthAdjust="spacing" textLength="110.0391" x="735" y="81.752">WebAPI</text></g><!--class ActionResult--><g class="entity" data-qualified-name="ActionResult" data-source-line="26" id="ent0012"><rect fill="#EEEEEE" height="47.7344" rx="2.5" ry="2.5" style="stroke:#404040;stroke-width:0.5;" width="174.4131" x="868" y="45.6094"/><text fill="#000000" font-family="sans-serif" font-size="30" lengthAdjust="spacing" textLength="168.4131" x="871" y="81.752">ActionResult</text></g><!--class DefinedTerm--><g class="entity" data-qualified-name="DefinedTerm" data-source-line="28" id="ent0014"><rect fill="#EEEEEE" height="47.7344" rx="2.5" ry="2.5" style="stroke:#404040;stroke-width:0.5;" width="179.3936" x="1072.5" y="45.6094"/><text fill="#000000" font-family="sans-serif" font-size="30" lengthAdjust="spacing" textLength="173.3936" x="1075.5" y="81.752">DefinedTerm</text></g><!--class Identifier--><g class="entity" data-qualified-name="Identifier" data-source-line="31" id="ent0017"><rect fill="#EEEEEE" height="47.7344" rx="2.5" ry="2.5" style="stroke:#404040;stroke-width:0.5;" width="121.0635" x="1271.5" y="45.6094"/><text fill="#000000" font-family="sans-serif" font-size="30" lengthAdjust="spacing" textLength="115.0635" x="1274.5" y="81.752">Identifier</text></g><!--class AdditionalProperty--><g class="entity" data-qualified-name="AdditionalProperty" data-source-line="33" id="ent0019"><rect fill="#EEEEEE" height="47.7344" rx="2.5" ry="2.5" style="stroke:#404040;stroke-width:0.5;" width="251.1416" x="1412.5" y="45.6094"/><text fill="#000000" font-family="sans-serif" font-size="30" lengthAdjust="spacing" textLength="245.1416" x="1415.5" y="81.752">AdditionalProperty</text></g><!--class Reference--><g class="entity" data-qualified-name="Reference" data-source-line="35" id="ent0021"><rect fill="#EEEEEE" height="47.7344" rx="2.5" ry="2.5" style="stroke:#404040;stroke-width:0.5;" width="144.4131" x="1684" y="45.6094"/><text fill="#000000" font-family="sans-serif" font-size="30" lengthAdjust="spacing" textLength="138.4131" x="1687" y="81.752">Reference</text></g><!--class ProvActivity--><g class="entity" data-qualified-name="ProvActivity" data-source-line="38" id="ent0024"><rect fill="#EEEEEE" height="47.7344" rx="2.5" ry="2.5" style="stroke:#404040;stroke-width:0.5;" width="162.6943" x="1848.5" y="45.6094"/><text fill="#000000" font-family="sans-serif" font-size="30" lengthAdjust="spacing" textLength="156.6943" x="1851.5" y="81.752">ProvActivity</text></g><!--class DerivedFrom--><g class="entity" data-qualified-name="DerivedFrom" data-source-line="40" id="ent0026"><rect fill="#EEEEEE" height="47.7344" rx="2.5" ry="2.5" style="stroke:#404040;stroke-width:0.5;" width="179.3643" x="2031.5" y="45.6094"/><text fill="#000000" font-family="sans-serif" font-size="30" lengthAdjust="spacing" textLength="173.3643" x="2034.5" y="81.752">DerivedFrom</text></g><!--class CatalogRecord--><g class="entity" data-qualified-name="CatalogRecord" data-source-line="43" id="ent0029"><rect fill="#EEEEEE" height="47.7344" rx="2.5" ry="2.5" style="stroke:#404040;stroke-width:0.5;" width="206.1123" x="2231" y="45.6094"/><text fill="#000000" font-family="sans-serif" font-size="30" lengthAdjust="spacing" textLength="200.1123" x="2234" y="81.752">CatalogRecord</text></g><!--class CdifConceptOrTerm--><g class="entity" data-qualified-name="CdifConceptOrTerm" data-source-line="45" id="ent0031"><rect fill="#EEEEEE" height="47.7344" rx="2.5" ry="2.5" style="stroke:#404040;stroke-width:0.5;" width="274.4033" x="2457" y="45.6094"/><text fill="#000000" font-family="sans-serif" font-size="30" lengthAdjust="spacing" textLength="268.4033" x="2460" y="81.752">CdifConceptOrTerm</text></g><!--class VariableMeasured--><g class="entity" data-qualified-name="VariableMeasured" data-source-line="47" id="ent0033"><rect fill="#EEEEEE" height="47.7344" rx="2.5" ry="2.5" style="stroke:#404040;stroke-width:0.5;" width="249.4717" x="2751.5" y="45.6094"/><text fill="#000000" font-family="sans-serif" font-size="30" lengthAdjust="spacing" textLength="243.4717" x="2754.5" y="81.752">VariableMeasured</text></g><!--class SpatialExtent--><g class="entity" data-qualified-name="SpatialExtent" data-source-line="49" id="ent0035"><rect fill="#EEEEEE" height="47.7344" rx="2.5" ry="2.5" style="stroke:#404040;stroke-width:0.5;" width="182.7773" x="3020.5" y="45.6094"/><text fill="#000000" font-family="sans-serif" font-size="30" lengthAdjust="spacing" textLength="176.7773" x="3023.5" y="81.752">SpatialExtent</text></g><!--class QualityMeasure--><g class="entity" data-qualified-name="QualityMeasure" data-source-line="51" id="ent0037"><rect fill="#EEEEEE" height="47.7344" rx="2.5" ry="2.5" style="stroke:#404040;stroke-width:0.5;" width="216.0879" x="3224" y="45.6094"/><text fill="#000000" font-family="sans-serif" font-size="30" lengthAdjust="spacing" textLength="210.0879" x="3227" y="81.752">QualityMeasure</text></g><!--class QualityMeasurement--><g class="entity" data-qualified-name="QualityMeasurement" data-source-line="53" id="ent0039"><rect fill="#EEEEEE" height="47.7344" rx="2.5" ry="2.5" style="stroke:#404040;stroke-width:0.5;" width="282.7822" x="3460.5" y="45.6094"/><text fill="#000000" font-family="sans-serif" font-size="30" lengthAdjust="spacing" textLength="276.7822" x="3463.5" y="81.752">QualityMeasurement</text></g><!--class AbstractGeometry--><g class="entity" data-qualified-name="AbstractGeometry" data-source-line="55" id="ent0041"><rect fill="#EEEEEE" height="47.7344" rx="2.5" ry="2.5" style="stroke:#404040;stroke-width:0.5;" width="247.7432" x="3764" y="45.6094"/><text fill="#000000" font-family="sans-serif" font-size="30" font-style="italic" lengthAdjust="spacing" textLength="241.7432" x="3767" y="81.752">AbstractGeometry</text></g><!--class Geometry--><g class="entity" data-qualified-name="Geometry" data-source-line="57" id="ent0043"><rect fill="#EEEEEE" height="47.7344" rx="2.5" ry="2.5" style="stroke:#404040;stroke-width:0.5;" width="137.7041" x="4032" y="45.6094"/><text fill="#000000" font-family="sans-serif" font-size="30" lengthAdjust="spacing" textLength="131.7041" x="4035" y="81.752">Geometry</text></g><!--class Instant--><g class="entity" data-qualified-name="Instant" data-source-line="60" id="ent0046"><rect fill="#EEEEEE" height="47.7344" rx="2.5" ry="2.5" style="stroke:#404040;stroke-width:0.5;" width="96.0586" x="4190" y="45.6094"/><text fill="#000000" font-family="sans-serif" font-size="30" lengthAdjust="spacing" textLength="90.0586" x="4193" y="81.752">Instant</text></g><!--class TimePosition--><g class="entity" data-qualified-name="TimePosition" data-source-line="62" id="ent0048"><rect fill="#EEEEEE" height="47.7344" rx="2.5" ry="2.5" style="stroke:#404040;stroke-width:0.5;" width="179.3936" x="4306.5" y="45.6094"/><text fill="#000000" font-family="sans-serif" font-size="30" lengthAdjust="spacing" textLength="173.3936" x="4309.5" y="81.752">TimePosition</text></g><!--class InstanceVariable--><g class="entity" data-qualified-name="InstanceVariable" data-source-line="64" id="ent0050"><rect fill="#EEEEEE" height="47.7344" rx="2.5" ry="2.5" style="stroke:#404040;stroke-width:0.5;" width="229.4766" x="4505.5" y="45.6094"/><text fill="#000000" font-family="sans-serif" font-size="30" lengthAdjust="spacing" textLength="223.4766" x="4508.5" y="81.752">InstanceVariable</text></g><!--class SubstantiveValueDomain--><g class="entity" data-qualified-name="SubstantiveValueDomain" data-source-line="66" id="ent0052"><rect fill="#EEEEEE" height="47.7344" rx="2.5" ry="2.5" style="stroke:#404040;stroke-width:0.5;" width="342.8701" x="4754.5" y="45.6094"/><text fill="#000000" font-family="sans-serif" font-size="30" lengthAdjust="spacing" textLength="336.8701" x="4757.5" y="81.752">SubstantiveValueDomain</text></g><!--class SentinelValueDomain--><g class="entity" data-qualified-name="SentinelValueDomain" data-source-line="68" id="ent0054"><rect fill="#EEEEEE" height="47.7344" rx="2.5" ry="2.5" style="stroke:#404040;stroke-width:0.5;" width="294.5156" x="5117.5" y="45.6094"/><text fill="#000000" font-family="sans-serif" font-size="30" lengthAdjust="spacing" textLength="288.5156" x="5120.5" y="81.752">SentinelValueDomain</text></g><!--class EnumerationDomain--><g class="entity" data-qualified-name="EnumerationDomain" data-source-line="70" id="ent0056"><rect fill="#EEEEEE" height="47.7344" rx="2.5" ry="2.5" style="stroke:#404040;stroke-width:0.5;" width="279.4717" x="5432.5" y="45.6094"/><text fill="#000000" font-family="sans-serif" font-size="30" lengthAdjust="spacing" textLength="273.4717" x="5435.5" y="81.752">EnumerationDomain</text></g><!--class ValueAndConceptDescription--><g class="entity" data-qualified-name="ValueAndConceptDescription" data-source-line="72" id="ent0058"><rect fill="#EEEEEE" height="47.7344" rx="2.5" ry="2.5" style="stroke:#404040;stroke-width:0.5;" width="397.9043" x="5732" y="45.6094"/><text fill="#000000" font-family="sans-serif" font-size="30" lengthAdjust="spacing" textLength="391.9043" x="5735" y="81.752">ValueAndConceptDescription</text></g><!--class AbstractMapping--><g class="entity" data-qualified-name="AbstractMapping" data-source-line="75" id="ent0061"><rect fill="#EEEEEE" height="47.7344" rx="2.5" ry="2.5" style="stroke:#404040;stroke-width:0.5;" width="231.1172" x="6150.5" y="45.6094"/><text fill="#000000" font-family="sans-serif" font-size="30" font-style="italic" lengthAdjust="spacing" textLength="225.1172" x="6153.5" y="81.752">AbstractMapping</text></g><!--class AbstractDataSet--><g class="entity" data-qualified-name="AbstractDataSet" data-source-line="77" id="ent0063"><rect fill="#EEEEEE" height="47.7344" rx="2.5" ry="2.5" style="stroke:#404040;stroke-width:0.5;" width="224.4375" x="6402" y="45.6094"/><text fill="#000000" font-family="sans-serif" font-size="30" font-style="italic" lengthAdjust="spacing" textLength="218.4375" x="6405" y="81.752">AbstractDataSet</text></g><!--class PrimaryKey--><g class="entity" data-qualified-name="PrimaryKey" data-source-line="79" id="ent0065"><rect fill="#EEEEEE" height="47.7344" rx="2.5" ry="2.5" style="stroke:#404040;stroke-width:0.5;" width="161.0244" x="6646.5" y="45.6094"/><text fill="#000000" font-family="sans-serif" font-size="30" lengthAdjust="spacing" textLength="155.0244" x="6649.5" y="81.752">PrimaryKey</text></g><!--class ComponentPosition--><g class="entity" data-qualified-name="ComponentPosition" data-source-line="81" id="ent0067"><rect fill="#EEEEEE" height="47.7344" rx="2.5" ry="2.5" style="stroke:#404040;stroke-width:0.5;" width="267.8262" x="6828" y="45.6094"/><text fill="#000000" font-family="sans-serif" font-size="30" lengthAdjust="spacing" textLength="261.8262" x="6831" y="81.752">ComponentPosition</text></g><!--class Statistics--><g class="entity" data-qualified-name="Statistics" data-source-line="83" id="ent0069"><rect fill="#EEEEEE" height="47.7344" rx="2.5" ry="2.5" style="stroke:#404040;stroke-width:0.5;" width="126.0293" x="7116" y="45.6094"/><text fill="#000000" font-family="sans-serif" font-size="30" lengthAdjust="spacing" textLength="120.0293" x="7119" y="81.752">Statistics</text></g><!--class CategoryStatistics--><g class="entity" data-qualified-name="CategoryStatistics" data-source-line="85" id="ent0071"><rect fill="#EEEEEE" height="47.7344" rx="2.5" ry="2.5" style="stroke:#404040;stroke-width:0.5;" width="247.7578" x="7262" y="45.6094"/><text fill="#000000" font-family="sans-serif" font-size="30" lengthAdjust="spacing" textLength="241.7578" x="7265" y="81.752">CategoryStatistics</text></g><!--class StatisticsCollection--><g class="entity" data-qualified-name="StatisticsCollection" data-source-line="87" id="ent0073"><rect fill="#EEEEEE" height="47.7344" rx="2.5" ry="2.5" style="stroke:#404040;stroke-width:0.5;" width="257.7627" x="7530" y="45.6094"/><text fill="#000000" font-family="sans-serif" font-size="30" lengthAdjust="spacing" textLength="251.7627" x="7533" y="81.752">StatisticsCollection</text></g><!--class Category--><g class="entity" data-qualified-name="Category" data-source-line="89" id="ent0075"><rect fill="#EEEEEE" height="47.7344" rx="2.5" ry="2.5" style="stroke:#404040;stroke-width:0.5;" width="127.7285" x="7808" y="45.6094"/><text fill="#000000" font-family="sans-serif" font-size="30" lengthAdjust="spacing" textLength="121.7285" x="7811" y="81.752">Category</text></g><!--link CompositeProfile to XsdAnyUri--><g class="link" data-entity-1="ent0003" data-entity-2="ent0002" data-link-type="dependency" data-source-line="18" id="lnk4"><path codeLine="18" d="M119.51,93.7994 C112.98,135.2894 106.44,221.9494 155,265.6094 C277.76,375.9794 2833.4409,425.3468 3364.9609,434.4368" fill="none" id="CompositeProfile-to-XsdAnyUri" style="stroke:#404040;stroke-width:1.2;stroke-dasharray:7,7;"/><polygon fill="#404040" points="3370.96,434.5394,3362.0297,430.3861,3365.9607,434.4539,3361.8929,438.3849,3370.96,434.5394" style="stroke:#404040;stroke-width:1.2;"/><text fill="#000000" font-family="sans-serif" font-size="36" lengthAdjust="spacing" textLength="136.0723" x="156" y="256.9805">identifier</text></g><!--link Dataset to XsdAnyUri--><g class="link" data-entity-1="ent0005" data-entity-2="ent0002" data-link-type="dependency" data-source-line="20" id="lnk6"><path codeLine="20" d="M307.78,93.9294 C295.02,134.8494 276.27,219.5894 321,265.6094 C429.98,377.7394 2848.7709,425.4956 3364.9309,434.4256" fill="none" id="Dataset-to-XsdAnyUri" style="stroke:#404040;stroke-width:1.2;stroke-dasharray:7,7;"/><polygon fill="#404040" points="3370.93,434.5294,3362.0005,430.3743,3365.9307,434.4429,3361.8622,438.3731,3370.93,434.5294" style="stroke:#404040;stroke-width:1.2;"/><text fill="#000000" font-family="sans-serif" font-size="36" lengthAdjust="spacing" textLength="40.0078" x="322" y="256.9805">url</text></g><!--link DataDownload to XsdAnyUri--><g class="link" data-entity-1="ent0007" data-entity-2="ent0002" data-link-type="dependency" data-source-line="22" id="lnk8"><path codeLine="22" d="M492.75,93.7394 C431.77,131.5294 328.54,208.0594 383,265.6094 C488.21,376.7994 2854.031,425.1916 3364.691,434.3616" fill="none" id="DataDownload-to-XsdAnyUri" style="stroke:#404040;stroke-width:1.2;stroke-dasharray:7,7;"/><polygon fill="#404040" points="3370.69,434.4694,3361.7633,430.3084,3365.6908,434.3796,3361.6196,438.3071,3370.69,434.4694" style="stroke:#404040;stroke-width:1.2;"/><text fill="#000000" font-family="sans-serif" font-size="36" lengthAdjust="spacing" textLength="164.0742" x="384" y="256.9805">contentUrl</text></g><!--link DataDownload to XsdAnyUri--><g class="link" data-entity-1="ent0007" data-entity-2="ent0002" data-link-type="dependency" data-source-line="23" id="lnk9"><path codeLine="23" d="M534.44,93.7194 C537.87,140.4094 548.25,243.4194 574,265.6094 C682.33,358.9494 2874.432,420.834 3364.642,433.534" fill="none" id="DataDownload-to-XsdAnyUri-1" style="stroke:#404040;stroke-width:1.2;stroke-dasharray:7,7;"/><polygon fill="#404040" points="3370.64,433.6894,3361.7466,429.4576,3365.6417,433.5599,3361.5394,437.4549,3370.64,433.6894" style="stroke:#404040;stroke-width:1.2;"/><text fill="#000000" font-family="sans-serif" font-size="36" lengthAdjust="spacing" textLength="190.0547" x="575" y="256.9805">conformsTo</text></g><!--link WebAPI to XsdAnyUri--><g class="link" data-entity-1="ent0010" data-entity-2="ent0002" data-link-type="dependency" data-source-line="25" id="lnk11"><path codeLine="25" d="M781.68,93.8694 C768.75,134.6794 749.62,219.2694 794,265.6094 C884.96,360.5894 2896.9822,420.6962 3364.7822,433.4262" fill="none" id="WebAPI-to-XsdAnyUri" style="stroke:#404040;stroke-width:1.2;stroke-dasharray:7,7;"/><polygon fill="#404040" points="3370.78,433.5894,3361.8921,429.346,3365.7819,433.4534,3361.6745,437.3431,3370.78,433.5894" style="stroke:#404040;stroke-width:1.2;"/><text fill="#000000" font-family="sans-serif" font-size="36" lengthAdjust="spacing" textLength="136.0723" x="795" y="256.9805">identifier</text></g><!--link ActionResult to XsdAnyUri--><g class="link" data-entity-1="ent0012" data-entity-2="ent0002" data-link-type="dependency" data-source-line="27" id="lnk13"><path codeLine="27" d="M946.85,93.8694 C934.19,134.6894 915.59,219.2794 960,265.6094 C1045,354.2794 2915.323,418.7193 3364.853,432.9693" fill="none" id="ActionResult-to-XsdAnyUri" style="stroke:#404040;stroke-width:1.2;stroke-dasharray:7,7;"/><polygon fill="#404040" points="3370.85,433.1594,3361.9813,428.8762,3365.8525,433.001,3361.7278,436.8722,3370.85,433.1594" style="stroke:#404040;stroke-width:1.2;"/><text fill="#000000" font-family="sans-serif" font-size="36" lengthAdjust="spacing" textLength="190.0547" x="961" y="256.9805">conformsTo</text></g><!--link DefinedTerm to XsdAnyUri--><g class="link" data-entity-1="ent0014" data-entity-2="ent0002" data-link-type="dependency" data-source-line="29" id="lnk15"><path codeLine="29" d="M1159.44,93.7994 C1154.87,140.1394 1147.85,241.7994 1171,265.6094 C1326.44,425.4594 2949.09,436.1876 3364.82,436.3076" fill="none" id="DefinedTerm-to-XsdAnyUri" style="stroke:#404040;stroke-width:1.2;stroke-dasharray:7,7;"/><polygon fill="#404040" points="3370.82,436.3094,3361.82,432.3094,3365.82,436.3094,3361.82,440.3094,3370.82,436.3094" style="stroke:#404040;stroke-width:1.2;"/><text fill="#000000" font-family="sans-serif" font-size="36" lengthAdjust="spacing" textLength="290.127" x="1172" y="256.9805">inDefinedTermSet</text></g><!--link DefinedTerm to XsdAnyUri--><g class="link" data-entity-1="ent0014" data-entity-2="ent0002" data-link-type="dependency" data-source-line="30" id="lnk16"><path codeLine="30" d="M1245.48,93.6994 C1312.28,115.9594 1404.35,155.6894 1464,218.6094 C1479.62,235.0794 1465.62,252.2894 1484,265.6094 C1638.06,377.2594 2988.8524,422.8303 3364.8024,433.4303" fill="none" id="DefinedTerm-to-XsdAnyUri-1" style="stroke:#404040;stroke-width:1.2;stroke-dasharray:7,7;"/><polygon fill="#404040" points="3370.8,433.5994,3361.9163,429.3473,3365.802,433.4585,3361.6908,437.3441,3370.8,433.5994" style="stroke:#404040;stroke-width:1.2;"/><text fill="#000000" font-family="sans-serif" font-size="36" lengthAdjust="spacing" textLength="234.1582" x="1485" y="256.9805">additionalType</text></g><!--link Identifier to XsdAnyUri--><g class="link" data-entity-1="ent0017" data-entity-2="ent0002" data-link-type="dependency" data-source-line="32" id="lnk18"><path codeLine="32" d="M1392.73,90.5394 C1496.7,125.0994 1700.07,194.7094 1725,218.6094 C1741.39,234.3194 1726.7,252.1694 1745,265.6094 C1876.65,362.3194 3021.6053,417.5163 3364.8153,432.0063" fill="none" id="Identifier-to-XsdAnyUri" style="stroke:#404040;stroke-width:1.2;stroke-dasharray:7,7;"/><polygon fill="#404040" points="3370.81,432.2594,3361.9867,427.8833,3365.8145,432.0485,3361.6493,435.8762,3370.81,432.2594" style="stroke:#404040;stroke-width:1.2;"/><text fill="#000000" font-family="sans-serif" font-size="36" lengthAdjust="spacing" textLength="40.0078" x="1746" y="256.9805">url</text></g><!--link AdditionalProperty to XsdAnyUri--><g class="link" data-entity-1="ent0019" data-entity-2="ent0002" data-link-type="dependency" data-source-line="34" id="lnk20"><path codeLine="34" d="M1600.7,93.7194 C1657.33,117.4094 1739.59,159.1894 1792,218.6094 C1807.02,235.6394 1793.73,252.1294 1812,265.6094 C1937.92,358.4994 3030.4065,416.0105 3364.8165,431.5705" fill="none" id="AdditionalProperty-to-XsdAnyUri" style="stroke:#404040;stroke-width:1.2;stroke-dasharray:7,7;"/><polygon fill="#404040" points="3370.81,431.8494,3362.0056,427.4354,3365.8154,431.617,3361.6338,435.4267,3370.81,431.8494" style="stroke:#404040;stroke-width:1.2;"/><text fill="#000000" font-family="sans-serif" font-size="36" lengthAdjust="spacing" textLength="144.1055" x="1813" y="256.9805">unitCode</text></g><!--link Reference to XsdAnyUri--><g class="link" data-entity-1="ent0021" data-entity-2="ent0002" data-link-type="dependency" data-source-line="36" id="lnk22"><path codeLine="36" d="M1799.92,93.6494 C1845.37,119.2494 1916.15,164.2194 1963,218.6094 C1978.31,236.3794 1967.73,252.2394 1987,265.6094 C2212.24,421.9194 3073.4,436.263 3364.83,436.573" fill="none" id="Reference-to-XsdAnyUri" style="stroke:#404040;stroke-width:1.2;stroke-dasharray:7,7;"/><polygon fill="#404040" points="3370.83,436.5794,3361.8343,432.5698,3365.83,436.5741,3361.8258,440.5698,3370.83,436.5794" style="stroke:#404040;stroke-width:1.2;"/><text fill="#000000" font-family="sans-serif" font-size="36" lengthAdjust="spacing" textLength="40.0078" x="1988" y="256.9805">url</text></g><!--link Reference to XsdAnyUri--><g class="link" data-entity-1="ent0021" data-entity-2="ent0002" data-link-type="dependency" data-source-line="37" id="lnk23"><path codeLine="37" d="M1826.62,93.6194 C1887.58,116.6794 1974.38,157.5594 2030,218.6094 C2045.29,235.3894 2031.85,251.9794 2050,265.6094 C2259.16,422.6794 3081.09,436.6379 3364.92,436.7079" fill="none" id="Reference-to-XsdAnyUri-1" style="stroke:#404040;stroke-width:1.2;stroke-dasharray:7,7;"/><polygon fill="#404040" points="3370.92,436.7094,3361.92,432.7094,3365.92,436.7094,3361.92,440.7094,3370.92,436.7094" style="stroke:#404040;stroke-width:1.2;"/><text fill="#000000" font-family="sans-serif" font-size="36" lengthAdjust="spacing" textLength="118.0723" x="2051" y="256.9805">relation</text></g><!--link ProvActivity to XsdAnyUri--><g class="link" data-entity-1="ent0024" data-entity-2="ent0002" data-link-type="dependency" data-source-line="39" id="lnk25"><path codeLine="39" d="M1989.16,93.6894 C2043.81,117.6394 2124.02,159.8794 2175,218.6094 C2189.88,235.7494 2176.94,251.8594 2195,265.6094 C2379.79,406.3394 3101.3408,430.832 3364.9608,435.112" fill="none" id="ProvActivity-to-XsdAnyUri" style="stroke:#404040;stroke-width:1.2;stroke-dasharray:7,7;"/><polygon fill="#404040" points="3370.96,435.2094,3362.0261,431.0638,3365.9607,435.1282,3361.8963,439.0627,3370.96,435.2094" style="stroke:#404040;stroke-width:1.2;"/><text fill="#000000" font-family="sans-serif" font-size="36" lengthAdjust="spacing" textLength="78.0645" x="2196" y="256.9805">used</text></g><!--link DerivedFrom to XsdAnyUri--><g class="link" data-entity-1="ent0026" data-entity-2="ent0002" data-link-type="dependency" data-source-line="41" id="lnk27"><path codeLine="41" d="M2151.53,93.6094 C2185.95,120.6794 2242.05,168.3494 2280,218.6094 C2294.13,237.3294 2284.94,251.9394 2304,265.6094 C2474.81,388.0994 3117.7942,423.6336 3364.7842,432.9336" fill="none" id="DerivedFrom-to-XsdAnyUri" style="stroke:#404040;stroke-width:1.2;stroke-dasharray:7,7;"/><polygon fill="#404040" points="3370.78,433.1594,3361.9369,428.8236,3365.7835,432.9712,3361.6359,436.8179,3370.78,433.1594" style="stroke:#404040;stroke-width:1.2;"/><text fill="#000000" font-family="sans-serif" font-size="36" lengthAdjust="spacing" textLength="40.0078" x="2305" y="256.9805">url</text></g><!--link DerivedFrom to XsdAnyUri--><g class="link" data-entity-1="ent0026" data-entity-2="ent0002" data-link-type="dependency" data-source-line="42" id="lnk28"><path codeLine="42" d="M2164.61,93.7394 C2212.31,120.2194 2289.61,166.6994 2347,218.6094 C2366.92,236.6294 2361.74,252.1794 2385,265.6094 C2552.67,362.4094 3132.1854,412.6599 3364.7354,429.3499" fill="none" id="DerivedFrom-to-XsdAnyUri-1" style="stroke:#404040;stroke-width:1.2;stroke-dasharray:7,7;"/><polygon fill="#404040" points="3370.72,429.7794,3362.0294,425.1454,3365.7328,429.4214,3361.4567,433.1248,3370.72,429.7794" style="stroke:#404040;stroke-width:1.2;"/><text fill="#000000" font-family="sans-serif" font-size="36" lengthAdjust="spacing" textLength="118.0723" x="2386" y="256.9805">relation</text></g><!--link CatalogRecord to XsdAnyUri--><g class="link" data-entity-1="ent0029" data-entity-2="ent0002" data-link-type="dependency" data-source-line="44" id="lnk30"><path codeLine="44" d="M2356.19,93.8394 C2397.32,135.3994 2489.99,222.1694 2586,265.6094 C2853.2,386.4994 3197.8312,421.4226 3364.7012,431.6426" fill="none" id="CatalogRecord-to-XsdAnyUri" style="stroke:#404040;stroke-width:1.2;stroke-dasharray:7,7;"/><polygon fill="#404040" points="3370.69,432.0094,3361.9514,427.4667,3365.6994,431.7037,3361.4623,435.4517,3370.69,432.0094" style="stroke:#404040;stroke-width:1.2;"/><text fill="#000000" font-family="sans-serif" font-size="36" lengthAdjust="spacing" textLength="190.0547" x="2587" y="256.9805">conformsTo</text></g><!--link CdifConceptOrTerm to XsdAnyUri--><g class="link" data-entity-1="ent0031" data-entity-2="ent0002" data-link-type="dependency" data-source-line="46" id="lnk32"><path codeLine="46" d="M2619,93.6094 C2664.19,134.0294 2763.9,217.9994 2862,265.6094 C3031.72,347.9794 3242.2133,395.751 3364.8433,418.801" fill="none" id="CdifConceptOrTerm-to-XsdAnyUri" style="stroke:#404040;stroke-width:1.2;stroke-dasharray:7,7;"/><polygon fill="#404040" points="3370.74,419.9094,3362.6338,414.3157,3365.8261,418.9857,3361.156,422.178,3370.74,419.9094" style="stroke:#404040;stroke-width:1.2;"/><text fill="#000000" font-family="sans-serif" font-size="36" lengthAdjust="spacing" textLength="136.0723" x="2863" y="256.9805">identifier</text></g><!--link VariableMeasured to XsdAnyUri--><g class="link" data-entity-1="ent0033" data-entity-2="ent0002" data-link-type="dependency" data-source-line="48" id="lnk34"><path codeLine="48" d="M2892.96,93.6794 C2923.21,133.4494 2990.17,215.4794 3063,265.6094 C3159.26,331.8694 3279.6256,378.1093 3365.1556,405.9993" fill="none" id="VariableMeasured-to-XsdAnyUri" style="stroke:#404040;stroke-width:1.2;stroke-dasharray:7,7;"/><polygon fill="#404040" points="3370.86,407.8594,3363.5435,401.2663,3366.1063,406.3093,3361.0634,408.8721,3370.86,407.8594" style="stroke:#404040;stroke-width:1.2;"/><text fill="#000000" font-family="sans-serif" font-size="36" lengthAdjust="spacing" textLength="136.0723" x="3064" y="256.9805">identifier</text></g><!--link SpatialExtent to XsdAnyUri--><g class="link" data-entity-1="ent0035" data-entity-2="ent0002" data-link-type="dependency" data-source-line="50" id="lnk36"><path codeLine="50" d="M3124.33,93.6594 C3145.53,132.0094 3191.67,210.1694 3244,265.6094 C3289.41,313.7194 3344.4187,355.3605 3390.7187,387.0505" fill="none" id="SpatialExtent-to-XsdAnyUri" style="stroke:#404040;stroke-width:1.2;stroke-dasharray:7,7;"/><polygon fill="#404040" points="3395.67,390.4394,3390.5023,382.0552,3391.5439,387.6153,3385.9838,388.6569,3395.67,390.4394" style="stroke:#404040;stroke-width:1.2;"/><text fill="#000000" font-family="sans-serif" font-size="36" lengthAdjust="spacing" textLength="136.0723" x="3245" y="256.9805">identifier</text></g><!--link QualityMeasure to XsdAnyUri--><g class="link" data-entity-1="ent0037" data-entity-2="ent0002" data-link-type="dependency" data-source-line="52" id="lnk38"><path codeLine="52" d="M3340.55,93.7494 C3362.49,153.1494 3419.0106,306.1912 3448.0906,384.9012" fill="none" id="QualityMeasure-to-XsdAnyUri" style="stroke:#404040;stroke-width:1.2;stroke-dasharray:7,7;"/><polygon fill="#404040" points="3450.17,390.5294,3450.8031,380.7009,3448.4372,385.8392,3443.2988,383.4734,3450.17,390.5294" style="stroke:#404040;stroke-width:1.2;"/><text fill="#000000" font-family="sans-serif" font-size="36" lengthAdjust="spacing" textLength="136.0723" x="3404" y="256.9805">identifier</text></g><!--link QualityMeasurement to XsdAnyUri--><g class="link" data-entity-1="ent0039" data-entity-2="ent0002" data-link-type="dependency" data-source-line="54" id="lnk40"><path codeLine="54" d="M3596.57,93.7994 C3587.66,130.7094 3568.63,204.8794 3546,265.6094 C3529.88,308.8694 3510.1112,351.0168 3493.2712,384.8868" fill="none" id="QualityMeasurement-to-XsdAnyUri" style="stroke:#404040;stroke-width:1.2;stroke-dasharray:7,7;"/><polygon fill="#404040" points="3490.6,390.2594,3498.1885,383.9813,3492.826,385.7822,3491.0251,380.4197,3490.6,390.2594" style="stroke:#404040;stroke-width:1.2;"/><text fill="#000000" font-family="sans-serif" font-size="36" lengthAdjust="spacing" textLength="136.0723" x="3561" y="256.9805">identifier</text></g><!--link AbstractGeometry to XsdAnyUri--><g class="link" data-entity-1="ent0041" data-entity-2="ent0002" data-link-type="dependency" data-source-line="56" id="lnk42"><path codeLine="56" d="M3868.46,93.8594 C3836.02,131.8294 3768.16,208.6194 3703,265.6094 C3650.31,311.6994 3590.5231,354.4725 3542.1831,387.1025" fill="none" id="AbstractGeometry-to-XsdAnyUri" style="stroke:#404040;stroke-width:1.2;stroke-dasharray:7,7;"/><polygon fill="#404040" points="3537.21,390.4594,3546.9075,388.7394,3541.3542,387.662,3542.4317,382.1087,3537.21,390.4594" style="stroke:#404040;stroke-width:1.2;"/><text fill="#000000" font-family="sans-serif" font-size="36" lengthAdjust="spacing" textLength="136.0723" x="3752" y="256.9805">identifier</text></g><!--link Geometry to XsdAnyUri--><g class="link" data-entity-1="ent0043" data-entity-2="ent0002" data-link-type="dependency" data-source-line="58" id="lnk44"><path codeLine="58" d="M4074.14,93.8094 C4041.32,122.4094 3984.43,172.8794 3938,218.6094 C3917.61,238.6894 3917.63,249.4694 3894,265.6094 C3790.67,336.1694 3659.5457,382.5446 3568.9357,409.2246" fill="none" id="Geometry-to-XsdAnyUri" style="stroke:#404040;stroke-width:1.2;stroke-dasharray:7,7;"/><polygon fill="#404040" points="3563.18,410.9194,3572.9433,412.2144,3567.9764,409.5071,3570.6837,404.5401,3563.18,410.9194" style="stroke:#404040;stroke-width:1.2;"/><text fill="#000000" font-family="sans-serif" font-size="36" lengthAdjust="spacing" textLength="136.0723" x="3939" y="256.9805">identifier</text></g><!--link Geometry to XsdAnyUri--><g class="link" data-entity-1="ent0043" data-entity-2="ent0002" data-link-type="dependency" data-source-line="59" id="lnk45"><path codeLine="59" d="M4105.57,93.6494 C4112.09,133.7394 4119.04,216.7394 4077,265.6094 C4010.22,343.2394 3723.6578,397.2316 3569.2278,421.4016" fill="none" id="Geometry-to-XsdAnyUri-1" style="stroke:#404040;stroke-width:1.2;stroke-dasharray:7,7;"/><polygon fill="#404040" points="3563.3,422.3294,3572.8103,424.8896,3568.2399,421.5562,3571.5732,416.9858,3563.3,422.3294" style="stroke:#404040;stroke-width:1.2;"/><text fill="#000000" font-family="sans-serif" font-size="36" lengthAdjust="spacing" textLength="47.9883" x="4102" y="256.9805">crs</text></g><!--link Instant to XsdAnyUri--><g class="link" data-entity-1="ent0046" data-entity-2="ent0002" data-link-type="dependency" data-source-line="61" id="lnk47"><path codeLine="61" d="M4234.9,93.7694 C4228.16,134.8194 4208.21,220.2694 4155,265.6094 C4066.07,341.3794 3736.5168,397.6811 3569.1368,422.1611" fill="none" id="Instant-to-XsdAnyUri" style="stroke:#404040;stroke-width:1.2;stroke-dasharray:7,7;"/><polygon fill="#404040" points="3563.2,423.0294,3572.6841,425.6848,3568.1474,422.3058,3571.5264,417.7691,3563.2,423.0294" style="stroke:#404040;stroke-width:1.2;"/><text fill="#000000" font-family="sans-serif" font-size="36" lengthAdjust="spacing" textLength="136.0723" x="4192" y="256.9805">identifier</text></g><!--link TimePosition to XsdAnyUri--><g class="link" data-entity-1="ent0048" data-entity-2="ent0002" data-link-type="dependency" data-source-line="63" id="lnk49"><path codeLine="63" d="M4395.8,93.8494 C4394.12,135.0194 4384.36,220.6694 4334,265.6094 C4220.76,366.6594 3770.5711,412.884 3569.2611,428.884" fill="none" id="TimePosition-to-XsdAnyUri" style="stroke:#404040;stroke-width:1.2;stroke-dasharray:7,7;"/><polygon fill="#404040" points="3563.28,429.3594,3572.5686,432.6337,3568.2643,428.9632,3571.9348,424.6589,3563.28,429.3594" style="stroke:#404040;stroke-width:1.2;"/><text fill="#000000" font-family="sans-serif" font-size="36" lengthAdjust="spacing" textLength="130.043" x="4367" y="256.9805">hasTRS</text></g><!--link InstanceVariable to XsdAnyUri--><g class="link" data-entity-1="ent0050" data-entity-2="ent0002" data-link-type="dependency" data-source-line="65" id="lnk51"><path codeLine="65" d="M4613.27,93.7394 C4599.8,135.5394 4565.37,223.2294 4503,265.6094 C4350.24,369.3894 3796.2573,415.3088 3569.3973,430.1088" fill="none" id="InstanceVariable-to-XsdAnyUri" style="stroke:#404040;stroke-width:1.2;stroke-dasharray:7,7;"/><polygon fill="#404040" points="3563.41,430.4994,3572.6513,433.905,3568.3994,430.1739,3572.1305,425.922,3563.41,430.4994" style="stroke:#404040;stroke-width:1.2;"/><text fill="#000000" font-family="sans-serif" font-size="36" lengthAdjust="spacing" textLength="136.0723" x="4552" y="256.9805">identifier</text></g><!--link SubstantiveValueDomain to XsdAnyUri--><g class="link" data-entity-1="ent0052" data-entity-2="ent0002" data-link-type="dependency" data-source-line="67" id="lnk53"><path codeLine="67" d="M4906.77,93.7094 C4870.21,135.8594 4786.06,224.6594 4694,265.6094 C4490.86,355.9594 3821.5147,411.151 3569.1947,429.211" fill="none" id="SubstantiveValueDomain-to-XsdAnyUri" style="stroke:#404040;stroke-width:1.2;stroke-dasharray:7,7;"/><polygon fill="#404040" points="3563.21,429.6394,3572.4726,432.9866,3568.1972,429.2824,3571.9015,425.007,3563.21,429.6394" style="stroke:#404040;stroke-width:1.2;"/><text fill="#000000" font-family="sans-serif" font-size="36" lengthAdjust="spacing" textLength="136.0723" x="4773" y="256.9805">identifier</text></g><!--link SentinelValueDomain to XsdAnyUri--><g class="link" data-entity-1="ent0054" data-entity-2="ent0002" data-link-type="dependency" data-source-line="69" id="lnk55"><path codeLine="69" d="M5233.68,93.6994 C5174.72,135.8394 5041.74,224.6294 4915,265.6094 C4661.28,347.6594 3850.4056,409.7233 3569.1756,429.2733" fill="none" id="SentinelValueDomain-to-XsdAnyUri" style="stroke:#404040;stroke-width:1.2;stroke-dasharray:7,7;"/><polygon fill="#404040" points="3563.19,429.6894,3572.4457,433.0556,3568.178,429.3426,3571.8909,425.0749,3563.19,429.6894" style="stroke:#404040;stroke-width:1.2;"/><text fill="#000000" font-family="sans-serif" font-size="36" lengthAdjust="spacing" textLength="136.0723" x="5027" y="256.9805">identifier</text></g><!--link EnumerationDomain to XsdAnyUri--><g class="link" data-entity-1="ent0056" data-entity-2="ent0002" data-link-type="dependency" data-source-line="71" id="lnk57"><path codeLine="71" d="M5535.69,93.6394 C5467.09,135.8794 5312.43,225.0994 5169,265.6094 C4862.67,352.1194 3881.8605,412.9723 3569.0505,430.5723" fill="none" id="EnumerationDomain-to-XsdAnyUri" style="stroke:#404040;stroke-width:1.2;stroke-dasharray:7,7;"/><polygon fill="#404040" points="3563.06,430.9094,3572.2705,434.3975,3568.0521,430.6285,3571.8211,426.4101,3563.06,430.9094" style="stroke:#404040;stroke-width:1.2;"/><text fill="#000000" font-family="sans-serif" font-size="36" lengthAdjust="spacing" textLength="136.0723" x="5296" y="256.9805">identifier</text></g><!--link ValueAndConceptDescription to XsdAnyUri--><g class="link" data-entity-1="ent0058" data-entity-2="ent0002" data-link-type="dependency" data-source-line="73" id="lnk59"><path codeLine="73" d="M5885.89,93.6394 C5800.82,135.8794 5609.78,225.1194 5438,265.6094 C5074.65,351.2494 3913.2426,414.0813 3569.2426,431.1913" fill="none" id="ValueAndConceptDescription-to-XsdAnyUri" style="stroke:#404040;stroke-width:1.2;stroke-dasharray:7,7;"/><polygon fill="#404040" points="3563.25,431.4894,3572.4376,435.0373,3568.2438,431.241,3572.0402,427.0472,3563.25,431.4894" style="stroke:#404040;stroke-width:1.2;"/><text fill="#000000" font-family="sans-serif" font-size="36" lengthAdjust="spacing" textLength="136.0723" x="5592" y="256.9805">identifier</text></g><!--link ValueAndConceptDescription to XsdAnyUri--><g class="link" data-entity-1="ent0058" data-entity-2="ent0002" data-link-type="dependency" data-source-line="74" id="lnk60"><path codeLine="74" d="M5915.98,93.8894 C5886.85,136.7594 5818.07,227.2894 5734,265.6094 C5534.23,356.6694 3975.2062,418.0246 3569.0362,432.5746" fill="none" id="ValueAndConceptDescription-to-XsdAnyUri-1" style="stroke:#404040;stroke-width:1.2;stroke-dasharray:7,7;"/><polygon fill="#404040" points="3563.04,432.7894,3572.1774,436.4646,3568.0368,432.6104,3571.891,428.4697,3563.04,432.7894" style="stroke:#404040;stroke-width:1.2;"/><text fill="#000000" font-family="sans-serif" font-size="36" lengthAdjust="spacing" textLength="278.1563" x="5804" y="256.9805">externalDefinition</text></g><!--link AbstractMapping to XsdAnyUri--><g class="link" data-entity-1="ent0061" data-entity-2="ent0002" data-link-type="dependency" data-source-line="76" id="lnk62"><path codeLine="76" d="M6253.06,93.9294 C6227.79,136.8594 6167.32,227.4894 6088,265.6094 C5856.87,376.6694 4014.3785,424.0661 3569.1885,433.9561" fill="none" id="AbstractMapping-to-XsdAnyUri" style="stroke:#404040;stroke-width:1.2;stroke-dasharray:7,7;"/><polygon fill="#404040" points="3563.19,434.0894,3572.2766,437.8885,3568.1888,433.9783,3572.0989,429.8905,3563.19,434.0894" style="stroke:#404040;stroke-width:1.2;"/><text fill="#000000" font-family="sans-serif" font-size="36" lengthAdjust="spacing" textLength="136.0723" x="6153" y="256.9805">identifier</text></g><!--link AbstractDataSet to XsdAnyUri--><g class="link" data-entity-1="ent0063" data-entity-2="ent0002" data-link-type="dependency" data-source-line="78" id="lnk64"><path codeLine="78" d="M6496.97,93.7094 C6463.72,136.6894 6385.5,227.9994 6295,265.6094 C6038.23,372.3094 4034.6085,423.404 3569.0585,433.914" fill="none" id="AbstractDataSet-to-XsdAnyUri" style="stroke:#404040;stroke-width:1.2;stroke-dasharray:7,7;"/><polygon fill="#404040" points="3563.06,434.0494,3572.148,437.8452,3568.0587,433.9365,3571.9674,429.8473,3563.06,434.0494" style="stroke:#404040;stroke-width:1.2;"/><text fill="#000000" font-family="sans-serif" font-size="36" lengthAdjust="spacing" textLength="136.0723" x="6371" y="256.9805">identifier</text></g><!--link PrimaryKey to XsdAnyUri--><g class="link" data-entity-1="ent0065" data-entity-2="ent0002" data-link-type="dependency" data-source-line="80" id="lnk66"><path codeLine="80" d="M6710.5,93.7394 C6678.26,136.7694 6602.22,228.1594 6513,265.6094 C6235.55,382.0794 4056.4191,426.0156 3569.1191,434.4456" fill="none" id="PrimaryKey-to-XsdAnyUri" style="stroke:#404040;stroke-width:1.2;stroke-dasharray:7,7;"/><polygon fill="#404040" points="3563.12,434.5494,3572.1878,438.3931,3568.1193,434.4629,3572.0495,430.3943,3563.12,434.5494" style="stroke:#404040;stroke-width:1.2;"/><text fill="#000000" font-family="sans-serif" font-size="36" lengthAdjust="spacing" textLength="136.0723" x="6588" y="256.9805">identifier</text></g><!--link ComponentPosition to XsdAnyUri--><g class="link" data-entity-1="ent0067" data-entity-2="ent0002" data-link-type="dependency" data-source-line="82" id="lnk68"><path codeLine="82" d="M6943.65,93.7894 C6907.92,136.9194 6824.22,228.4594 6730,265.6094 C6428.87,384.3494 4076.7793,426.7968 3569.0993,434.6268" fill="none" id="ComponentPosition-to-XsdAnyUri" style="stroke:#404040;stroke-width:1.2;stroke-dasharray:7,7;"/><polygon fill="#404040" points="3563.1,434.7194,3572.1606,438.5801,3568.0994,434.6423,3572.0372,430.5811,3563.1,434.7194" style="stroke:#404040;stroke-width:1.2;"/><text fill="#000000" font-family="sans-serif" font-size="36" lengthAdjust="spacing" textLength="136.0723" x="6810" y="256.9805">identifier</text></g><!--link Statistics to XsdAnyUri--><g class="link" data-entity-1="ent0069" data-entity-2="ent0002" data-link-type="dependency" data-source-line="84" id="lnk70"><path codeLine="84" d="M7161.18,93.8194 C7126.44,136.9794 7044.9,228.5794 6952,265.6094 C6629.59,394.1194 4097.2496,429.122 3569.0696,435.052" fill="none" id="Statistics-to-XsdAnyUri" style="stroke:#404040;stroke-width:1.2;stroke-dasharray:7,7;"/><polygon fill="#404040" points="3563.07,435.1194,3572.1143,439.0181,3568.0697,435.0632,3572.0245,431.0186,3563.07,435.1194" style="stroke:#404040;stroke-width:1.2;"/><text fill="#000000" font-family="sans-serif" font-size="36" lengthAdjust="spacing" textLength="136.0723" x="7030" y="256.9805">identifier</text></g><!--link CategoryStatistics to XsdAnyUri--><g class="link" data-entity-1="ent0071" data-entity-2="ent0002" data-link-type="dependency" data-source-line="86" id="lnk72"><path codeLine="86" d="M7369.53,93.8194 C7337.35,136.9894 7261.4,228.5994 7172,265.6094 C6829.9,407.2194 4117.8699,431.9603 3569.2999,435.5303" fill="none" id="CategoryStatistics-to-XsdAnyUri" style="stroke:#404040;stroke-width:1.2;stroke-dasharray:7,7;"/><polygon fill="#404040" points="3563.3,435.5694,3572.3258,439.5107,3568.2999,435.5368,3572.2738,431.5109,3563.3,435.5694" style="stroke:#404040;stroke-width:1.2;"/><text fill="#000000" font-family="sans-serif" font-size="36" lengthAdjust="spacing" textLength="136.0723" x="7247" y="256.9805">identifier</text></g><!--link StatisticsCollection to XsdAnyUri--><g class="link" data-entity-1="ent0073" data-entity-2="ent0002" data-link-type="dependency" data-source-line="88" id="lnk74"><path codeLine="88" d="M7636.81,93.9094 C7593.83,137.2194 7494.14,229.0694 7389,265.6094 C7017.62,394.6694 4135.2597,429.5296 3569.0997,435.1696" fill="none" id="StatisticsCollection-to-XsdAnyUri" style="stroke:#404040;stroke-width:1.2;stroke-dasharray:7,7;"/><polygon fill="#404040" points="3563.1,435.2294,3572.1394,439.1395,3568.0998,435.1796,3572.0597,431.1399,3563.1,435.2294" style="stroke:#404040;stroke-width:1.2;"/><text fill="#000000" font-family="sans-serif" font-size="36" lengthAdjust="spacing" textLength="136.0723" x="7479" y="256.9805">identifier</text></g><!--link Category to XsdAnyUri--><g class="link" data-entity-1="ent0075" data-entity-2="ent0002" data-link-type="dependency" data-source-line="90" id="lnk76"><path codeLine="90" d="M7851.74,93.9094 C7812.41,137.2394 7720.76,229.1094 7621,265.6094 C7228.7,409.1494 4154.9699,432.477 3569.0799,435.637" fill="none" id="Category-to-XsdAnyUri" style="stroke:#404040;stroke-width:1.2;stroke-dasharray:7,7;"/><polygon fill="#404040" points="3563.08,435.6694,3572.1014,439.6208,3568.0799,435.6424,3572.0583,431.6209,3563.08,435.6694" style="stroke:#404040;stroke-width:1.2;"/><text fill="#000000" font-family="sans-serif" font-size="36" lengthAdjust="spacing" textLength="136.0723" x="7706" y="256.9805">identifier</text></g><?plantuml-src dLVVJzim47xFNs71Es8mzZ0XfAmj4vhGkhR0NjtaGYqSEpexi6xQ_pxdb-t4RLC6Bxdlaky-d-_EhcQQ0_cfqbXi7v156vO2IHWc79fdo0kz9JdaQq0LgHSc2eeq9sf3K_d6n3F9A5VWUM94-RRQiEH5W5Bamzc5vqGgNXGKvEBgt4E5JA56VJ25Z9PStqgXb-mtaCjFdZFXr73_YKWJRYAvH7BwyRpwD-0NYIdW4FMfp8TQ8rkN6Xny7lsDeeRwnERaX53bCaIkhrEgwMfRmCqDERsDPrVJouYkbKQQw5RNoKJcXLHCmnnbnZZK74EGdCxgloXmd9tTU14_4xCHGhEC0NRgfaQ30btpji-MhhE7B2Lo__EfV1DSqjHoT42Fo893jiHapQXwCAHZxsKISxMINV0dMCVpkpfiysW3jkRuykD4CoaMe4o1r4G-OEbwuBYkAMHCGBe2p9kSEDkbnCC2cSBpBa4VV9ccAQlKKLwLKYVXpgwqLk1CAy233knlRDbDIHM0UjjaAO1Tha9Nm2-OdfXExO8i80C4aJJLRIrBwP1TIlTx4JYjf7HnZA3NQYjVMRiC7x3HUc0GK47gjXdPAwItABjjjhQtpGxR9VwGVoX_Ohg3o-S596OeDOF0HzmKwA7ZvJf9MJQH9e65_ewsQ0FKyGUUyJvxfCZeciCzK5KYDFA7e8qGECO3B0kJAyfdlwfPKhFt44lTHyTvVvIKcq9ebTJ4VSWo3-3tKkUTxX3U4o8VMS7mB8bR-ol873IsdJm0NHyF7UCBwX47XCSGxNqdCNU6RhG9fMcRg_RP3RNM7jUwOZdCgxFID5XDvGEMhmSEIJTKhHRBlgm4kjhrz3bm8DHp757XvRfUd9aNZvINC9KvPOtstIvNyxlTHuIi004yY1VYBjWEttYacIXpm7hSUN42r4O9FSVC8ACe5caxkwQW4cI5BO3zRcykxNtbGFXtV0LcBA4vEki3lwwwlLryJul2t9fxJTnYGGzt-7yCY-fAjcplXmCi2DFXurinHvPJt7w3xXpkJEyKjj0uNNtl5GRjTNI0zk_9FSyHlQ1DjIdD4jMqW3LTvJle2CbKmxF4xO0sXFrZVUXwZshp6uP3OfEpox5Z9Pxp-3NrLXBeFqJq3m00?></g></svg>