<svg xmlns="http://www.w3.org/2000/svg" xmlns:xlink="http://www.w3.org/1999/xlink" contentStyleType="text/css" data-diagram-type="CLASS" height="497px" preserveAspectRatio="none" style="width:2337px;height:497px;background:#FFFFFF;" version="1.1" viewBox="0 0 2337 497" width="2337px" zoomAndPan="magnify"><?plantuml 1.2026.3?><defs/><g><g class="title" data-source-line="1"><text fill="#000000" font-family="sans-serif" font-size="14" font-weight="700" lengthAdjust="spacing" textLength="71.5723" x="1129.6655" y="24.5332">XsdAnyUri</text></g><!--class XsdAnyUri--><g class="entity" data-qualified-name="XsdAnyUri" data-source-line="16" id="ent0002"><rect fill="#FAE5D3" height="93.0156" rx="2.5" ry="2.5" style="stroke:#404040;stroke-width:0.5;" width="192.1426" x="1126.5" y="390.6094"/><text fill="#000000" font-family="sans-serif" font-size="36" font-style="italic" lengthAdjust="spacing" textLength="190.1426" x="1127.5" y="432.9805">&#171;dataType&#187;</text><text fill="#000000" font-family="sans-serif" font-size="30" lengthAdjust="spacing" textLength="141.709" x="1151.7168" y="472.0332">XsdAnyUri</text></g><!--class Dataset--><g class="entity" data-qualified-name="Dataset" data-source-line="17" id="ent0003"><rect fill="#EEEEEE" height="47.7344" rx="2.5" ry="2.5" style="stroke:#404040;stroke-width:0.5;" width="109.3887" x="7" y="45.6094"/><text fill="#000000" font-family="sans-serif" font-size="30" lengthAdjust="spacing" textLength="103.3887" x="10" y="81.752">Dataset</text></g><!--class DataDownload--><g class="entity" data-qualified-name="DataDownload" data-source-line="19" id="ent0005"><rect fill="#EEEEEE" height="47.7344" rx="2.5" ry="2.5" style="stroke:#404040;stroke-width:0.5;" width="202.7871" x="177" y="45.6094"/><text fill="#000000" font-family="sans-serif" font-size="30" lengthAdjust="spacing" textLength="196.7871" x="180" y="81.752">DataDownload</text></g><!--class ActionResult--><g class="entity" data-qualified-name="ActionResult" data-source-line="22" id="ent0008"><rect fill="#EEEEEE" height="47.7344" rx="2.5" ry="2.5" style="stroke:#404040;stroke-width:0.5;" width="174.4131" x="449.5" y="45.6094"/><text fill="#000000" font-family="sans-serif" font-size="30" lengthAdjust="spacing" textLength="168.4131" x="452.5" y="81.752">ActionResult</text></g><!--class DefinedTerm--><g class="entity" data-qualified-name="DefinedTerm" data-source-line="24" id="ent0010"><rect fill="#EEEEEE" height="47.7344" rx="2.5" ry="2.5" style="stroke:#404040;stroke-width:0.5;" width="179.3936" x="664" y="45.6094"/><text fill="#000000" font-family="sans-serif" font-size="30" lengthAdjust="spacing" textLength="173.3936" x="667" y="81.752">DefinedTerm</text></g><!--class Identifier--><g class="entity" data-qualified-name="Identifier" data-source-line="26" id="ent0012"><rect fill="#EEEEEE" height="47.7344" rx="2.5" ry="2.5" style="stroke:#404040;stroke-width:0.5;" width="121.0635" x="863" y="45.6094"/><text fill="#000000" font-family="sans-serif" font-size="30" lengthAdjust="spacing" textLength="115.0635" x="866" y="81.752">Identifier</text></g><!--class AdditionalProperty--><g class="entity" data-qualified-name="AdditionalProperty" data-source-line="28" id="ent0014"><rect fill="#EEEEEE" height="47.7344" rx="2.5" ry="2.5" style="stroke:#404040;stroke-width:0.5;" width="251.1416" x="1004" y="45.6094"/><text fill="#000000" font-family="sans-serif" font-size="30" lengthAdjust="spacing" textLength="245.1416" x="1007" y="81.752">AdditionalProperty</text></g><!--class Reference--><g class="entity" data-qualified-name="Reference" data-source-line="30" id="ent0016"><rect fill="#EEEEEE" height="47.7344" rx="2.5" ry="2.5" style="stroke:#404040;stroke-width:0.5;" width="144.4131" x="1275.5" y="45.6094"/><text fill="#000000" font-family="sans-serif" font-size="30" lengthAdjust="spacing" textLength="138.4131" x="1278.5" y="81.752">Reference</text></g><!--class ProvActivity--><g class="entity" data-qualified-name="ProvActivity" data-source-line="33" id="ent0019"><rect fill="#EEEEEE" height="47.7344" rx="2.5" ry="2.5" style="stroke:#404040;stroke-width:0.5;" width="162.6943" x="1440" y="45.6094"/><text fill="#000000" font-family="sans-serif" font-size="30" lengthAdjust="spacing" textLength="156.6943" x="1443" y="81.752">ProvActivity</text></g><!--class DerivedFrom--><g class="entity" data-qualified-name="DerivedFrom" data-source-line="35" id="ent0021"><rect fill="#EEEEEE" height="47.7344" rx="2.5" ry="2.5" style="stroke:#404040;stroke-width:0.5;" width="179.3643" x="1623" y="45.6094"/><text fill="#000000" font-family="sans-serif" font-size="30" lengthAdjust="spacing" textLength="173.3643" x="1626" y="81.752">DerivedFrom</text></g><!--class CatalogRecord--><g class="entity" data-qualified-name="CatalogRecord" data-source-line="38" id="ent0024"><rect fill="#EEEEEE" height="47.7344" rx="2.5" ry="2.5" style="stroke:#404040;stroke-width:0.5;" width="206.1123" x="1822.5" y="45.6094"/><text fill="#000000" font-family="sans-serif" font-size="30" lengthAdjust="spacing" textLength="200.1123" x="1825.5" y="81.752">CatalogRecord</text></g><!--class CdifConceptOrTerm--><g class="entity" data-qualified-name="CdifConceptOrTerm" data-source-line="40" id="ent0026"><rect fill="#EEEEEE" height="47.7344" rx="2.5" ry="2.5" style="stroke:#404040;stroke-width:0.5;" width="274.4033" x="2048.5" y="45.6094"/><text fill="#000000" font-family="sans-serif" font-size="30" lengthAdjust="spacing" textLength="268.4033" x="2051.5" y="81.752">CdifConceptOrTerm</text></g><!--link Dataset to XsdAnyUri--><g class="link" data-entity-1="ent0003" data-entity-2="ent0002" data-link-type="dependency" data-source-line="18" id="lnk4"><path codeLine="18" d="M53.77,93.8594 C41.95,134.2994 24.93,217.7994 67.5,265.6094 C206.84,422.0994 868.46,437.0306 1120.18,436.9806" fill="none" id="Dataset-to-XsdAnyUri" style="stroke:#404040;stroke-width:1.2;stroke-dasharray:7,7;"/><polygon fill="#404040" points="1126.18,436.9794,1117.18,432.9794,1121.18,436.9794,1117.18,440.9794,1126.18,436.9794" style="stroke:#404040;stroke-width:1.2;"/><text fill="#000000" font-family="sans-serif" font-size="36" lengthAdjust="spacing" textLength="40.0078" x="68.5" y="256.9805">url</text></g><!--link DataDownload to XsdAnyUri--><g class="link" data-entity-1="ent0005" data-entity-2="ent0002" data-link-type="dependency" data-source-line="20" id="lnk6"><path codeLine="20" d="M237.94,93.7394 C177.78,130.8894 77.25,205.7494 128.5,265.6094 C256.88,415.5494 877.3701,434.6079 1120.1301,436.2879" fill="none" id="DataDownload-to-XsdAnyUri" style="stroke:#404040;stroke-width:1.2;stroke-dasharray:7,7;"/><polygon fill="#404040" points="1126.13,436.3294,1117.1579,432.2672,1121.1301,436.2948,1117.1025,440.267,1126.13,436.3294" style="stroke:#404040;stroke-width:1.2;"/><text fill="#000000" font-family="sans-serif" font-size="36" lengthAdjust="spacing" textLength="164.0742" x="129.5" y="256.9805">contentUrl</text></g><!--link DataDownload to XsdAnyUri--><g class="link" data-entity-1="ent0005" data-entity-2="ent0002" data-link-type="dependency" data-source-line="21" id="lnk7"><path codeLine="21" d="M279.83,93.7994 C282.99,140.1394 292.52,241.7894 316.5,265.6094 C429.75,378.1394 910.7206,418.4728 1120.1506,430.9428" fill="none" id="DataDownload-to-XsdAnyUri-1" style="stroke:#404040;stroke-width:1.2;stroke-dasharray:7,7;"/><polygon fill="#404040" points="1126.14,431.2994,1117.3937,426.7715,1121.1488,431.0022,1116.9182,434.7574,1126.14,431.2994" style="stroke:#404040;stroke-width:1.2;"/><text fill="#000000" font-family="sans-serif" font-size="36" lengthAdjust="spacing" textLength="190.0547" x="317.5" y="256.9805">conformsTo</text></g><!--link ActionResult to XsdAnyUri--><g class="link" data-entity-1="ent0008" data-entity-2="ent0002" data-link-type="dependency" data-source-line="23" id="lnk9"><path codeLine="23" d="M527.95,93.6494 C514.85,133.3794 495.17,215.3494 534.5,265.6094 C606.97,358.2294 948.7467,406.927 1120.3367,425.987" fill="none" id="ActionResult-to-XsdAnyUri" style="stroke:#404040;stroke-width:1.2;stroke-dasharray:7,7;"/><polygon fill="#404040" points="1126.3,426.6494,1117.7966,421.6802,1121.3306,426.0974,1116.9134,429.6313,1126.3,426.6494" style="stroke:#404040;stroke-width:1.2;"/><text fill="#000000" font-family="sans-serif" font-size="36" lengthAdjust="spacing" textLength="190.0547" x="535.5" y="256.9805">conformsTo</text></g><!--link DefinedTerm to XsdAnyUri--><g class="link" data-entity-1="ent0010" data-entity-2="ent0002" data-link-type="dependency" data-source-line="25" id="lnk11"><path codeLine="25" d="M744.95,93.8594 C732.11,133.1994 713,213.6594 749.5,265.6094 C834.55,386.6794 1008.3546,421.6263 1120.1446,431.7863" fill="none" id="DefinedTerm-to-XsdAnyUri" style="stroke:#404040;stroke-width:1.2;stroke-dasharray:7,7;"/><polygon fill="#404040" points="1126.12,432.3294,1117.519,427.5312,1121.1405,431.8768,1116.7949,435.4984,1126.12,432.3294" style="stroke:#404040;stroke-width:1.2;"/><text fill="#000000" font-family="sans-serif" font-size="36" lengthAdjust="spacing" textLength="290.127" x="750.5" y="256.9805">inDefinedTermSet</text></g><!--link Identifier to XsdAnyUri--><g class="link" data-entity-1="ent0012" data-entity-2="ent0002" data-link-type="dependency" data-source-line="27" id="lnk13"><path codeLine="27" d="M943.17,93.6994 C967.7,122.6194 1010.76,173.8194 1046.5,218.6094 C1062.91,239.1794 1066.15,244.9894 1082.5,265.6094 C1116.42,308.3694 1152.1137,351.7461 1180.5037,385.8861" fill="none" id="Identifier-to-XsdAnyUri" style="stroke:#404040;stroke-width:1.2;stroke-dasharray:7,7;"/><polygon fill="#404040" points="1184.34,390.4994,1181.6611,381.0219,1181.1431,386.6549,1175.51,386.137,1184.34,390.4994" style="stroke:#404040;stroke-width:1.2;"/><text fill="#000000" font-family="sans-serif" font-size="36" lengthAdjust="spacing" textLength="40.0078" x="1083.5" y="256.9805">url</text></g><!--link AdditionalProperty to XsdAnyUri--><g class="link" data-entity-1="ent0014" data-entity-2="ent0002" data-link-type="dependency" data-source-line="29" id="lnk15"><path codeLine="29" d="M1127.36,93.8794 C1124.63,130.9094 1121.97,205.2294 1137.5,265.6094 C1149.03,310.4594 1170.3094,352.0787 1189.9994,385.2787" fill="none" id="AdditionalProperty-to-XsdAnyUri" style="stroke:#404040;stroke-width:1.2;stroke-dasharray:7,7;"/><polygon fill="#404040" points="1193.06,390.4394,1191.9095,380.6579,1190.5095,386.1388,1185.0286,384.7388,1193.06,390.4394" style="stroke:#404040;stroke-width:1.2;"/><text fill="#000000" font-family="sans-serif" font-size="36" lengthAdjust="spacing" textLength="144.1055" x="1138.5" y="256.9805">unitCode</text></g><!--link Reference to XsdAnyUri--><g class="link" data-entity-1="ent0016" data-entity-2="ent0002" data-link-type="dependency" data-source-line="31" id="lnk17"><path codeLine="31" d="M1340.3,93.8094 C1328.87,130.4394 1305.69,203.8594 1284.5,265.6094 C1269.93,308.0594 1254.458,350.4544 1241.748,384.6944" fill="none" id="Reference-to-XsdAnyUri" style="stroke:#404040;stroke-width:1.2;stroke-dasharray:7,7;"/><polygon fill="#404040" points="1239.66,390.3194,1246.542,383.2739,1241.4,385.6319,1239.042,380.4899,1239.66,390.3194" style="stroke:#404040;stroke-width:1.2;"/><text fill="#000000" font-family="sans-serif" font-size="36" lengthAdjust="spacing" textLength="40.0078" x="1299.5" y="256.9805">url</text></g><!--link Reference to XsdAnyUri--><g class="link" data-entity-1="ent0016" data-entity-2="ent0002" data-link-type="dependency" data-source-line="32" id="lnk18"><path codeLine="32" d="M1351.68,93.8594 C1357.44,131.1794 1365.01,206.2694 1345.5,265.6094 C1329.94,312.9394 1299.9734,353.7735 1271.6834,385.7835" fill="none" id="Reference-to-XsdAnyUri-1" style="stroke:#404040;stroke-width:1.2;stroke-dasharray:7,7;"/><polygon fill="#404040" points="1267.71,390.2794,1276.6672,386.1845,1271.0211,386.5329,1270.6728,380.8867,1267.71,390.2794" style="stroke:#404040;stroke-width:1.2;"/><text fill="#000000" font-family="sans-serif" font-size="36" lengthAdjust="spacing" textLength="118.0723" x="1355.5" y="256.9805">relation</text></g><!--link ProvActivity to XsdAnyUri--><g class="link" data-entity-1="ent0019" data-entity-2="ent0002" data-link-type="dependency" data-source-line="34" id="lnk20"><path codeLine="34" d="M1521.94,93.8094 C1521.58,132.7194 1515.99,212.1094 1479.5,265.6094 C1440.05,323.4494 1379.1955,363.9349 1323.8655,392.3949" fill="none" id="ProvActivity-to-XsdAnyUri" style="stroke:#404040;stroke-width:1.2;stroke-dasharray:7,7;"/><polygon fill="#404040" points="1318.53,395.1394,1328.3629,394.5798,1322.9763,392.8523,1324.7037,387.4657,1318.53,395.1394" style="stroke:#404040;stroke-width:1.2;"/><text fill="#000000" font-family="sans-serif" font-size="36" lengthAdjust="spacing" textLength="78.0645" x="1501.5" y="256.9805">used</text></g><!--link DerivedFrom to XsdAnyUri--><g class="link" data-entity-1="ent0021" data-entity-2="ent0002" data-link-type="dependency" data-source-line="36" id="lnk22"><path codeLine="36" d="M1702.65,93.6994 C1684.65,133.5194 1642.94,215.6094 1585.5,265.6094 C1507.25,333.7294 1402.792,378.3529 1324.402,405.3929" fill="none" id="DerivedFrom-to-XsdAnyUri" style="stroke:#404040;stroke-width:1.2;stroke-dasharray:7,7;"/><polygon fill="#404040" points="1318.73,407.3494,1328.5424,408.1959,1323.4567,405.7189,1325.9337,400.6332,1318.73,407.3494" style="stroke:#404040;stroke-width:1.2;"/><text fill="#000000" font-family="sans-serif" font-size="36" lengthAdjust="spacing" textLength="40.0078" x="1629.5" y="256.9805">url</text></g><!--link DerivedFrom to XsdAnyUri--><g class="link" data-entity-1="ent0021" data-entity-2="ent0002" data-link-type="dependency" data-source-line="37" id="lnk23"><path codeLine="37" d="M1714.86,93.7594 C1717.61,133.6694 1717.3,215.8994 1675.5,265.6094 C1586,372.0494 1428.8285,411.2723 1324.6885,426.3023" fill="none" id="DerivedFrom-to-XsdAnyUri-1" style="stroke:#404040;stroke-width:1.2;stroke-dasharray:7,7;"/><polygon fill="#404040" points="1318.75,427.1594,1328.2291,429.8328,1323.6987,426.4452,1327.0863,421.9148,1318.75,427.1594" style="stroke:#404040;stroke-width:1.2;"/><text fill="#000000" font-family="sans-serif" font-size="36" lengthAdjust="spacing" textLength="118.0723" x="1701.5" y="256.9805">relation</text></g><!--link CatalogRecord to XsdAnyUri--><g class="link" data-entity-1="ent0024" data-entity-2="ent0002" data-link-type="dependency" data-source-line="39" id="lnk25"><path codeLine="39" d="M1920.14,93.6794 C1909.42,134.5794 1881.42,219.8094 1825.5,265.6094 C1677.27,387.0194 1453.5618,421.613 1324.6618,431.663" fill="none" id="CatalogRecord-to-XsdAnyUri" style="stroke:#404040;stroke-width:1.2;stroke-dasharray:7,7;"/><polygon fill="#404040" points="1318.68,432.1294,1327.9637,435.4177,1323.6649,431.7407,1327.3418,427.4419,1318.68,432.1294" style="stroke:#404040;stroke-width:1.2;"/><text fill="#000000" font-family="sans-serif" font-size="36" lengthAdjust="spacing" textLength="190.0547" x="1865.5" y="256.9805">conformsTo</text></g><!--link CdifConceptOrTerm to XsdAnyUri--><g class="link" data-entity-1="ent0026" data-entity-2="ent0002" data-link-type="dependency" data-source-line="41" id="lnk27"><path codeLine="41" d="M2177.67,93.8694 C2162.39,135.4694 2124.47,222.2994 2061.5,265.6094 C1941.33,348.2594 1518.3027,403.7214 1324.6027,425.4214" fill="none" id="CdifConceptOrTerm-to-XsdAnyUri" style="stroke:#404040;stroke-width:1.2;stroke-dasharray:7,7;"/><polygon fill="#404040" points="1318.64,426.0894,1328.0294,429.0625,1323.6089,425.5327,1327.1387,421.1123,1318.64,426.0894" style="stroke:#404040;stroke-width:1.2;"/><text fill="#000000" font-family="sans-serif" font-size="36" lengthAdjust="spacing" textLength="136.0723" x="2107.5" y="256.9805">identifier</text></g><?plantuml-src XPDHJy8m4CVVzoaQUIS8weCn97D0ufC6CV6rhZUvqBNBjK3G-DqjcsixfZ9UThzR__-xws7HIc2lHgJgy4AOh540ov5o2Sqxb9Kzi1BADo2Jc0sgYXClcLbpeVUetbd1fO4eanBf_MgD-KQ1CUnoE8wInDN6GCN6rwE8AYsWfZ4KKF2jj0kjx3D-09lSHCbSSgVzcR36BjDI4njSZOu_1-yr2Q1J6akvWzOIlcqj13nAlfAaaRxmCxbWt8G9iRixmIrV7IgOJjbWaSwlPvFspCnb3DZwnCyx6yph9sdZuN0QgTsoBSdu-4plbTHSU8qMT8GyF5NBNI-Wx8iJFVTTeQaqAzsQfxb5hPPWtCnhynXuymuyBpg30XM85L3PD1JYq4_4JXLHHTbdiAtkWt1DOe50jMm8lMg4_fbuAWGU6-BoYNG5P0zDwpqS1j1FzVGLsinjT6koX088L0wrje-yP22_LVftba3oOocjZojeTxoV7Vwq4GFlre4zGmCYt1tX3iI2T7jtFexkBh3VYlylVrf-vlPLwlSbvExFMpjsYFViqlCxc0aiCkq6MDb7yflOeq6_b-bjfT-jv1i0?></g></svg>