<svg xmlns="http://www.w3.org/2000/svg" xmlns:xlink="http://www.w3.org/1999/xlink" contentStyleType="text/css" data-diagram-type="CLASS" height="382px" preserveAspectRatio="none" style="width:930px;height:382px;background:#FFFFFF;" version="1.1" viewBox="0 0 930 382" width="930px" zoomAndPan="magnify"><?plantuml 1.2026.3?><defs/><g><g class="title" data-source-line="1"><text fill="#000000" font-family="sans-serif" font-size="14" font-weight="700" lengthAdjust="spacing" textLength="71.5723" x="425.9863" y="24.5332">XsdAnyUri</text></g><!--class XsdAnyUri--><g class="entity" data-qualified-name="XsdAnyUri" data-source-line="15" id="ent0002"><rect fill="#FAE5D3" height="40.1875" rx="2.5" ry="2.5" style="stroke:#404040;stroke-width:0.5;" width="65.3809" x="459" y="320.6094"/><text fill="#000000" font-family="sans-serif" font-size="12" font-style="italic" lengthAdjust="spacing" textLength="63.3809" x="460" y="338.0664">&#171;dataType&#187;</text><text fill="#000000" font-family="sans-serif" font-size="12" lengthAdjust="spacing" textLength="56.6836" x="463.3486" y="353.1602">XsdAnyUri</text></g><!--class Dataset--><g class="entity" data-qualified-name="Dataset" data-source-line="16" id="ent0003"><rect fill="#EEEEEE" height="25.0938" rx="2.5" ry="2.5" style="stroke:#404040;stroke-width:0.5;" width="47.3555" x="7" y="45.6094"/><text fill="#000000" font-family="sans-serif" font-size="12" lengthAdjust="spacing" textLength="41.3555" x="10" y="63.0664">Dataset</text></g><!--class DataDownload--><g class="entity" data-qualified-name="DataDownload" data-source-line="18" id="ent0005"><rect fill="#EEEEEE" height="25.0938" rx="2.5" ry="2.5" style="stroke:#404040;stroke-width:0.5;" width="84.7148" x="74" y="45.6094"/><text fill="#000000" font-family="sans-serif" font-size="12" lengthAdjust="spacing" textLength="78.7148" x="77" y="63.0664">DataDownload</text></g><!--class ActionResult--><g class="entity" data-qualified-name="ActionResult" data-source-line="21" id="ent0008"><rect fill="#EEEEEE" height="25.0938" rx="2.5" ry="2.5" style="stroke:#404040;stroke-width:0.5;" width="73.3652" x="179" y="45.6094"/><text fill="#000000" font-family="sans-serif" font-size="12" lengthAdjust="spacing" textLength="67.3652" x="182" y="63.0664">ActionResult</text></g><!--class DefinedTerm--><g class="entity" data-qualified-name="DefinedTerm" data-source-line="23" id="ent0010"><rect fill="#EEEEEE" height="25.0938" rx="2.5" ry="2.5" style="stroke:#404040;stroke-width:0.5;" width="75.3574" x="272" y="45.6094"/><text fill="#000000" font-family="sans-serif" font-size="12" lengthAdjust="spacing" textLength="69.3574" x="275" y="63.0664">DefinedTerm</text></g><!--class Identifier--><g class="entity" data-qualified-name="Identifier" data-source-line="25" id="ent0012"><rect fill="#EEEEEE" height="25.0938" rx="2.5" ry="2.5" style="stroke:#404040;stroke-width:0.5;" width="52.0254" x="367.5" y="45.6094"/><text fill="#000000" font-family="sans-serif" font-size="12" lengthAdjust="spacing" textLength="46.0254" x="370.5" y="63.0664">Identifier</text></g><!--class AdditionalProperty--><g class="entity" data-qualified-name="AdditionalProperty" data-source-line="27" id="ent0014"><rect fill="#EEEEEE" height="25.0938" rx="2.5" ry="2.5" style="stroke:#404040;stroke-width:0.5;" width="104.0566" x="439.5" y="45.6094"/><text fill="#000000" font-family="sans-serif" font-size="12" lengthAdjust="spacing" textLength="98.0566" x="442.5" y="63.0664">AdditionalProperty</text></g><!--class Reference--><g class="entity" data-qualified-name="Reference" data-source-line="29" id="ent0016"><rect fill="#EEEEEE" height="25.0938" rx="2.5" ry="2.5" style="stroke:#404040;stroke-width:0.5;" width="61.3652" x="564" y="45.6094"/><text fill="#000000" font-family="sans-serif" font-size="12" lengthAdjust="spacing" textLength="55.3652" x="567" y="63.0664">Reference</text></g><!--class ProvActivity--><g class="entity" data-qualified-name="ProvActivity" data-source-line="32" id="ent0019"><rect fill="#EEEEEE" height="25.0938" rx="2.5" ry="2.5" style="stroke:#404040;stroke-width:0.5;" width="68.6777" x="645" y="45.6094"/><text fill="#000000" font-family="sans-serif" font-size="12" lengthAdjust="spacing" textLength="62.6777" x="648" y="63.0664">ProvActivity</text></g><!--class DerivedFrom--><g class="entity" data-qualified-name="DerivedFrom" data-source-line="34" id="ent0021"><rect fill="#EEEEEE" height="25.0938" rx="2.5" ry="2.5" style="stroke:#404040;stroke-width:0.5;" width="75.3457" x="734" y="45.6094"/><text fill="#000000" font-family="sans-serif" font-size="12" lengthAdjust="spacing" textLength="69.3457" x="737" y="63.0664">DerivedFrom</text></g><!--class CatalogRecord--><g class="entity" data-qualified-name="CatalogRecord" data-source-line="37" id="ent0024"><rect fill="#EEEEEE" height="25.0938" rx="2.5" ry="2.5" style="stroke:#404040;stroke-width:0.5;" width="86.0449" x="829.5" y="45.6094"/><text fill="#000000" font-family="sans-serif" font-size="12" lengthAdjust="spacing" textLength="80.0449" x="832.5" y="63.0664">CatalogRecord</text></g><!--link Dataset to XsdAnyUri--><g class="link" data-entity-1="ent0003" data-entity-2="ent0002" data-link-type="dependency" data-source-line="17" id="lnk4"><path codeLine="17" d="M30.5,70.8894 C30.5,127.8394 30.5,355.6094 30.5,355.6094 C30.5,355.6094 347.4,355.6094 452.72,355.6094" fill="none" id="Dataset-to-XsdAnyUri" style="stroke:#404040;stroke-width:1.2;stroke-dasharray:7,7;"/><polygon fill="#404040" points="458.72,355.6094,449.72,351.6094,453.72,355.6094,449.72,359.6094,458.72,355.6094" style="stroke:#404040;stroke-width:1.2;"/><text fill="#000000" font-family="sans-serif" font-size="13" lengthAdjust="spacing" textLength="14.4473" x="87.25" y="352.1045">url</text></g><!--link DataDownload to XsdAnyUri--><g class="link" data-entity-1="ent0005" data-entity-2="ent0002" data-link-type="dependency" data-source-line="19" id="lnk6"><path codeLine="19" d="M130.67,70.7494 C130.67,125.9994 130.67,343.6094 130.67,343.6094 C130.67,343.6094 364.02,343.6094 452.84,343.6094" fill="none" id="DataDownload-to-XsdAnyUri" style="stroke:#404040;stroke-width:1.2;stroke-dasharray:7,7;"/><polygon fill="#404040" points="458.84,343.6094,449.84,339.6094,453.84,343.6094,449.84,347.6094,458.84,343.6094" style="stroke:#404040;stroke-width:1.2;"/><text fill="#000000" font-family="sans-serif" font-size="13" lengthAdjust="spacing" textLength="59.249" x="159.32" y="358.1045">contentUrl</text></g><!--link DataDownload to XsdAnyUri--><g class="link" data-entity-1="ent0005" data-entity-2="ent0002" data-link-type="dependency" data-source-line="20" id="lnk7"><path codeLine="20" d="M102.33,70.6394 C102.33,126.4294 102.33,349.6094 102.33,349.6094 C102.33,349.6094 359.46,349.6094 452.99,349.6094" fill="none" id="DataDownload-to-XsdAnyUri-1" style="stroke:#404040;stroke-width:1.2;stroke-dasharray:7,7;"/><polygon fill="#404040" points="458.99,349.6094,449.99,345.6094,453.99,349.6094,449.99,353.6094,458.99,349.6094" style="stroke:#404040;stroke-width:1.2;"/><text fill="#000000" font-family="sans-serif" font-size="13" lengthAdjust="spacing" textLength="68.6309" x="89.67" y="364.1045">conformsTo</text></g><!--link ActionResult to XsdAnyUri--><g class="link" data-entity-1="ent0008" data-entity-2="ent0002" data-link-type="dependency" data-source-line="22" id="lnk9"><path codeLine="22" d="M215.5,70.8894 C215.5,125.7694 215.5,338.6094 215.5,338.6094 C215.5,338.6094 379.65,338.6094 452.76,338.6094" fill="none" id="ActionResult-to-XsdAnyUri" style="stroke:#404040;stroke-width:1.2;stroke-dasharray:7,7;"/><polygon fill="#404040" points="458.76,338.6094,449.76,334.6094,453.76,338.6094,449.76,342.6094,458.76,338.6094" style="stroke:#404040;stroke-width:1.2;"/><text fill="#000000" font-family="sans-serif" font-size="13" lengthAdjust="spacing" textLength="68.6309" x="146.5" y="322.8745">conformsTo</text></g><!--link DefinedTerm to XsdAnyUri--><g class="link" data-entity-1="ent0010" data-entity-2="ent0002" data-link-type="dependency" data-source-line="24" id="lnk11"><path codeLine="24" d="M309.5,70.6194 C309.5,124.3194 309.5,332.6094 309.5,332.6094 C309.5,332.6094 400.61,332.6094 452.96,332.6094" fill="none" id="DefinedTerm-to-XsdAnyUri" style="stroke:#404040;stroke-width:1.2;stroke-dasharray:7,7;"/><polygon fill="#404040" points="458.96,332.6094,449.96,328.6094,453.96,332.6094,449.96,336.6094,458.96,332.6094" style="stroke:#404040;stroke-width:1.2;"/><text fill="#000000" font-family="sans-serif" font-size="13" lengthAdjust="spacing" textLength="104.7681" x="204.5" y="272.8445">inDefinedTermSet</text></g><!--link Identifier to XsdAnyUri--><g class="link" data-entity-1="ent0012" data-entity-2="ent0002" data-link-type="dependency" data-source-line="26" id="lnk13"><path codeLine="26" d="M393.5,70.6994 C393.5,123.7794 393.5,326.6094 393.5,326.6094 C393.5,326.6094 424.36,326.6094 452.87,326.6094" fill="none" id="Identifier-to-XsdAnyUri" style="stroke:#404040;stroke-width:1.2;stroke-dasharray:7,7;"/><polygon fill="#404040" points="458.87,326.6094,449.87,322.6094,453.87,326.6094,449.87,330.6094,458.87,326.6094" style="stroke:#404040;stroke-width:1.2;"/><text fill="#000000" font-family="sans-serif" font-size="13" lengthAdjust="spacing" textLength="14.4473" x="378.5" y="227.8345">url</text></g><!--link AdditionalProperty to XsdAnyUri--><g class="link" data-entity-1="ent0014" data-entity-2="ent0002" data-link-type="dependency" data-source-line="28" id="lnk15"><path codeLine="28" d="M491.5,70.6094 C491.5,115.0294 491.5,259.5094 491.5,314.3794" fill="none" id="AdditionalProperty-to-XsdAnyUri" style="stroke:#404040;stroke-width:1.2;stroke-dasharray:7,7;"/><polygon fill="#404040" points="491.5,320.3794,495.5,311.3794,491.5,315.3794,487.5,311.3794,491.5,320.3794" style="stroke:#404040;stroke-width:1.2;"/><text fill="#000000" font-family="sans-serif" font-size="13" lengthAdjust="spacing" textLength="52.0381" x="438.5" y="191.9945">unitCode</text></g><!--link Reference to XsdAnyUri--><g class="link" data-entity-1="ent0016" data-entity-2="ent0002" data-link-type="dependency" data-source-line="30" id="lnk17"><path codeLine="30" d="M584.33,70.6994 C584.33,123.7794 584.33,326.6094 584.33,326.6094 C584.33,326.6094 556.96,326.6094 530.23,326.6094" fill="none" id="Reference-to-XsdAnyUri" style="stroke:#404040;stroke-width:1.2;stroke-dasharray:7,7;"/><polygon fill="#404040" points="524.23,326.6094,533.23,330.6094,529.23,326.6094,533.23,322.6094,524.23,326.6094" style="stroke:#404040;stroke-width:1.2;"/><text fill="#000000" font-family="sans-serif" font-size="13" lengthAdjust="spacing" textLength="14.4473" x="569.33" y="225.2045">url</text></g><!--link Reference to XsdAnyUri--><g class="link" data-entity-1="ent0016" data-entity-2="ent0002" data-link-type="dependency" data-source-line="31" id="lnk18"><path codeLine="31" d="M604.67,70.6194 C604.67,124.3194 604.67,332.6094 604.67,332.6094 C604.67,332.6094 563.65,332.6094 530.23,332.6094" fill="none" id="Reference-to-XsdAnyUri-1" style="stroke:#404040;stroke-width:1.2;stroke-dasharray:7,7;"/><polygon fill="#404040" points="524.23,332.6094,533.23,336.6094,529.23,332.6094,533.23,328.6094,524.23,332.6094" style="stroke:#404040;stroke-width:1.2;"/><text fill="#000000" font-family="sans-serif" font-size="13" lengthAdjust="spacing" textLength="42.6372" x="561.67" y="256.3245">relation</text></g><!--link ProvActivity to XsdAnyUri--><g class="link" data-entity-1="ent0019" data-entity-2="ent0002" data-link-type="dependency" data-source-line="33" id="lnk20"><path codeLine="33" d="M679.5,70.8894 C679.5,125.7694 679.5,338.6094 679.5,338.6094 C679.5,338.6094 584.11,338.6094 530.25,338.6094" fill="none" id="ProvActivity-to-XsdAnyUri" style="stroke:#404040;stroke-width:1.2;stroke-dasharray:7,7;"/><polygon fill="#404040" points="524.25,338.6094,533.25,342.6094,529.25,338.6094,533.25,334.6094,524.25,338.6094" style="stroke:#404040;stroke-width:1.2;"/><text fill="#000000" font-family="sans-serif" font-size="13" lengthAdjust="spacing" textLength="28.1899" x="650.5" y="278.8745">used</text></g><!--link DerivedFrom to XsdAnyUri--><g class="link" data-entity-1="ent0021" data-entity-2="ent0002" data-link-type="dependency" data-source-line="35" id="lnk22"><path codeLine="35" d="M759,70.7494 C759,125.9994 759,343.6094 759,343.6094 C759,343.6094 601.32,343.6094 530.03,343.6094" fill="none" id="DerivedFrom-to-XsdAnyUri" style="stroke:#404040;stroke-width:1.2;stroke-dasharray:7,7;"/><polygon fill="#404040" points="524.03,343.6094,533.03,347.6094,529.03,343.6094,533.03,339.6094,524.03,343.6094" style="stroke:#404040;stroke-width:1.2;"/><text fill="#000000" font-family="sans-serif" font-size="13" lengthAdjust="spacing" textLength="14.4473" x="744" y="321.1545">url</text></g><!--link DerivedFrom to XsdAnyUri--><g class="link" data-entity-1="ent0021" data-entity-2="ent0002" data-link-type="dependency" data-source-line="36" id="lnk23"><path codeLine="36" d="M784,70.6394 C784,126.4294 784,349.6094 784,349.6094 C784,349.6094 606.53,349.6094 530.2,349.6094" fill="none" id="DerivedFrom-to-XsdAnyUri-1" style="stroke:#404040;stroke-width:1.2;stroke-dasharray:7,7;"/><polygon fill="#404040" points="524.2,349.6094,533.2,353.6094,529.2,349.6094,533.2,345.6094,524.2,349.6094" style="stroke:#404040;stroke-width:1.2;"/><text fill="#000000" font-family="sans-serif" font-size="13" lengthAdjust="spacing" textLength="42.6372" x="741" y="354.5145">relation</text></g><!--link CatalogRecord to XsdAnyUri--><g class="link" data-entity-1="ent0024" data-entity-2="ent0002" data-link-type="dependency" data-source-line="38" id="lnk25"><path codeLine="38" d="M872.5,70.8894 C872.5,127.8394 872.5,355.6094 872.5,355.6094 C872.5,355.6094 622.73,355.6094 530.31,355.6094" fill="none" id="CatalogRecord-to-XsdAnyUri" style="stroke:#404040;stroke-width:1.2;stroke-dasharray:7,7;"/><polygon fill="#404040" points="524.31,355.6094,533.31,359.6094,529.31,355.6094,533.31,351.6094,524.31,355.6094" style="stroke:#404040;stroke-width:1.2;"/><text fill="#000000" font-family="sans-serif" font-size="13" lengthAdjust="spacing" textLength="68.6309" x="841.77" y="352.1045">conformsTo</text></g><?plantuml-src XPF1Ri8m38RlVOfetD76ncL2I1qCQRU9WRHhrhZ38eqh9u3Oj7TVQDSq1GRj9VxS_ByTfmwT1l5kLMhsIyPaXGf4XfnfgDTGb6ul2YW-W6rYrsXAoR8GTYKLxT1yYbng2r4cPQRTOeNPse2rugu_Y98ipTf2AGR3suWQKb3H66equFOb26AteYYHQUbrlnDHMqr84ulUm-tXzV29M04VqnaPzuPV8Eu6oK-Ir1eteV4R8Mrx368qKjB9XNSVZqLlbZuFf_VDdgdFM73LZh-rw3rNJzB4_VuuKdiK6zRnzYdjZ2QfWaO3Ea817gjblXSmRkb5htsN4nTsGOrvcZaaCmUxqNK3CGZc7NXTT0gv7vLQ01TrGstSzXEnOqKqKVODNAFxedoJc2Dm9Tk6GJL25quyLGeF3KdzobG2kttT-Wbk3-0qTQ9lq4tyjMrCvf03WycWqWvHa6p9kKh_pp9eUIYbyV45RG_psU9V6p48RXruOcX1jRDZt8AQCJMp2t4qkvQTA_vI_hZyYR-lcZxdaFc_j7BiaE3PfHVku2y0?></g></svg>