<svg xmlns="http://www.w3.org/2000/svg" xmlns:xlink="http://www.w3.org/1999/xlink" contentStyleType="text/css" data-diagram-type="CLASS" height="497px" preserveAspectRatio="none" style="width:2742px;height:497px;background:#FFFFFF;" version="1.1" viewBox="0 0 2742 497" width="2742px" zoomAndPan="magnify"><?plantuml 1.2026.3?><defs/><g><g class="title" data-source-line="1"><text fill="#000000" font-family="sans-serif" font-size="14" font-weight="700" lengthAdjust="spacing" textLength="71.5723" x="1332.0127" y="24.5332">XsdAnyUri</text></g><!--class XsdAnyUri--><g class="entity" data-qualified-name="XsdAnyUri" data-source-line="16" id="ent0002"><rect fill="#FAE5D3" height="93.0156" rx="2.5" ry="2.5" style="stroke:#404040;stroke-width:0.5;" width="192.1426" x="1212.5" y="390.6094"/><text fill="#000000" font-family="sans-serif" font-size="36" font-style="italic" lengthAdjust="spacing" textLength="190.1426" x="1213.5" y="432.9805">&#171;dataType&#187;</text><text fill="#000000" font-family="sans-serif" font-size="30" lengthAdjust="spacing" textLength="141.709" x="1237.7168" y="472.0332">XsdAnyUri</text></g><!--class Dataset--><g class="entity" data-qualified-name="Dataset" data-source-line="17" id="ent0003"><rect fill="#EEEEEE" height="47.7344" rx="2.5" ry="2.5" style="stroke:#404040;stroke-width:0.5;" width="109.3887" x="7" y="45.6094"/><text fill="#000000" font-family="sans-serif" font-size="30" lengthAdjust="spacing" textLength="103.3887" x="10" y="81.752">Dataset</text></g><!--class DataDownload--><g class="entity" data-qualified-name="DataDownload" data-source-line="19" id="ent0005"><rect fill="#EEEEEE" height="47.7344" rx="2.5" ry="2.5" style="stroke:#404040;stroke-width:0.5;" width="202.7871" x="177" y="45.6094"/><text fill="#000000" font-family="sans-serif" font-size="30" lengthAdjust="spacing" textLength="196.7871" x="180" y="81.752">DataDownload</text></g><!--class ActionResult--><g class="entity" data-qualified-name="ActionResult" data-source-line="22" id="ent0008"><rect fill="#EEEEEE" height="47.7344" rx="2.5" ry="2.5" style="stroke:#404040;stroke-width:0.5;" width="174.4131" x="449.5" y="45.6094"/><text fill="#000000" font-family="sans-serif" font-size="30" lengthAdjust="spacing" textLength="168.4131" x="452.5" y="81.752">ActionResult</text></g><!--class DefinedTerm--><g class="entity" data-qualified-name="DefinedTerm" data-source-line="24" id="ent0010"><rect fill="#EEEEEE" height="47.7344" rx="2.5" ry="2.5" style="stroke:#404040;stroke-width:0.5;" width="179.3936" x="663" y="45.6094"/><text fill="#000000" font-family="sans-serif" font-size="30" lengthAdjust="spacing" textLength="173.3936" x="666" y="81.752">DefinedTerm</text></g><!--class Identifier--><g class="entity" data-qualified-name="Identifier" data-source-line="26" id="ent0012"><rect fill="#EEEEEE" height="47.7344" rx="2.5" ry="2.5" style="stroke:#404040;stroke-width:0.5;" width="121.0635" x="862" y="45.6094"/><text fill="#000000" font-family="sans-serif" font-size="30" lengthAdjust="spacing" textLength="115.0635" x="865" y="81.752">Identifier</text></g><!--class AdditionalProperty--><g class="entity" data-qualified-name="AdditionalProperty" data-source-line="28" id="ent0014"><rect fill="#EEEEEE" height="47.7344" rx="2.5" ry="2.5" style="stroke:#404040;stroke-width:0.5;" width="251.1416" x="1003" y="45.6094"/><text fill="#000000" font-family="sans-serif" font-size="30" lengthAdjust="spacing" textLength="245.1416" x="1006" y="81.752">AdditionalProperty</text></g><!--class Reference--><g class="entity" data-qualified-name="Reference" data-source-line="30" id="ent0016"><rect fill="#EEEEEE" height="47.7344" rx="2.5" ry="2.5" style="stroke:#404040;stroke-width:0.5;" width="144.4131" x="1274.5" y="45.6094"/><text fill="#000000" font-family="sans-serif" font-size="30" lengthAdjust="spacing" textLength="138.4131" x="1277.5" y="81.752">Reference</text></g><!--class ProvActivity--><g class="entity" data-qualified-name="ProvActivity" data-source-line="33" id="ent0019"><rect fill="#EEEEEE" height="47.7344" rx="2.5" ry="2.5" style="stroke:#404040;stroke-width:0.5;" width="162.6943" x="1439" y="45.6094"/><text fill="#000000" font-family="sans-serif" font-size="30" lengthAdjust="spacing" textLength="156.6943" x="1442" y="81.752">ProvActivity</text></g><!--class DerivedFrom--><g class="entity" data-qualified-name="DerivedFrom" data-source-line="35" id="ent0021"><rect fill="#EEEEEE" height="47.7344" rx="2.5" ry="2.5" style="stroke:#404040;stroke-width:0.5;" width="179.3643" x="1622" y="45.6094"/><text fill="#000000" font-family="sans-serif" font-size="30" lengthAdjust="spacing" textLength="173.3643" x="1625" y="81.752">DerivedFrom</text></g><!--class CatalogRecord--><g class="entity" data-qualified-name="CatalogRecord" data-source-line="38" id="ent0024"><rect fill="#EEEEEE" height="47.7344" rx="2.5" ry="2.5" style="stroke:#404040;stroke-width:0.5;" width="206.1123" x="1821.5" y="45.6094"/><text fill="#000000" font-family="sans-serif" font-size="30" lengthAdjust="spacing" textLength="200.1123" x="1824.5" y="81.752">CatalogRecord</text></g><!--class CdifConceptOrTerm--><g class="entity" data-qualified-name="CdifConceptOrTerm" data-source-line="40" id="ent0026"><rect fill="#EEEEEE" height="47.7344" rx="2.5" ry="2.5" style="stroke:#404040;stroke-width:0.5;" width="274.4033" x="2047.5" y="45.6094"/><text fill="#000000" font-family="sans-serif" font-size="30" lengthAdjust="spacing" textLength="268.4033" x="2050.5" y="81.752">CdifConceptOrTerm</text></g><!--class CdifConceptOrTermOrString--><g class="entity" data-qualified-name="CdifConceptOrTermOrString" data-source-line="42" id="ent0028"><rect fill="#EEEEEE" height="47.7344" rx="2.5" ry="2.5" style="stroke:#404040;stroke-width:0.5;" width="386.0977" x="2341.5" y="45.6094"/><text fill="#000000" font-family="sans-serif" font-size="30" lengthAdjust="spacing" textLength="380.0977" x="2344.5" y="81.752">CdifConceptOrTermOrString</text></g><!--link Dataset to XsdAnyUri--><g class="link" data-entity-1="ent0003" data-entity-2="ent0002" data-link-type="dependency" data-source-line="18" id="lnk4"><path codeLine="18" d="M53.72,93.9094 C41.82,134.4094 24.69,218.0194 67.5,265.6094 C144.03,350.6994 927.7836,410.7352 1206.0936,429.5252" fill="none" id="Dataset-to-XsdAnyUri" style="stroke:#404040;stroke-width:1.2;stroke-dasharray:7,7;"/><polygon fill="#404040" points="1212.08,429.9294,1203.3699,425.3322,1207.0914,429.5926,1202.831,433.314,1212.08,429.9294" style="stroke:#404040;stroke-width:1.2;"/><text fill="#000000" font-family="sans-serif" font-size="36" lengthAdjust="spacing" textLength="40.0078" x="68.5" y="256.9805">url</text></g><!--link DataDownload to XsdAnyUri--><g class="link" data-entity-1="ent0005" data-entity-2="ent0002" data-link-type="dependency" data-source-line="20" id="lnk6"><path codeLine="20" d="M237.86,93.8094 C177.6,131.0494 76.92,206.0394 128.5,265.6094 C199.42,347.5194 937.6663,409.0472 1206.4063,428.9072" fill="none" id="DataDownload-to-XsdAnyUri" style="stroke:#404040;stroke-width:1.2;stroke-dasharray:7,7;"/><polygon fill="#404040" points="1212.39,429.3494,1203.7093,424.697,1207.4036,428.9809,1203.1197,432.6752,1212.39,429.3494" style="stroke:#404040;stroke-width:1.2;"/><text fill="#000000" font-family="sans-serif" font-size="36" lengthAdjust="spacing" textLength="164.0742" x="129.5" y="256.9805">contentUrl</text></g><!--link DataDownload to XsdAnyUri--><g class="link" data-entity-1="ent0005" data-entity-2="ent0002" data-link-type="dependency" data-source-line="21" id="lnk7"><path codeLine="21" d="M279.93,93.8294 C283.27,140.2394 293.25,242.0094 317.5,265.6094 C443.93,388.6694 982.4952,423.44 1206.1052,432.74" fill="none" id="DataDownload-to-XsdAnyUri-1" style="stroke:#404040;stroke-width:1.2;stroke-dasharray:7,7;"/><polygon fill="#404040" points="1212.1,432.9894,1203.274,428.6188,1207.1043,432.7816,1202.9416,436.6119,1212.1,432.9894" style="stroke:#404040;stroke-width:1.2;"/><text fill="#000000" font-family="sans-serif" font-size="36" lengthAdjust="spacing" textLength="190.0547" x="318.5" y="256.9805">conformsTo</text></g><!--link ActionResult to XsdAnyUri--><g class="link" data-entity-1="ent0008" data-entity-2="ent0002" data-link-type="dependency" data-source-line="23" id="lnk9"><path codeLine="23" d="M527.99,93.7594 C514.96,133.6494 495.53,215.8594 535.5,265.6094 C619.48,370.1294 1018.5394,413.8878 1206.4194,429.0178" fill="none" id="ActionResult-to-XsdAnyUri" style="stroke:#404040;stroke-width:1.2;stroke-dasharray:7,7;"/><polygon fill="#404040" points="1212.4,429.4994,1203.7501,424.7899,1207.4161,429.098,1203.108,432.764,1212.4,429.4994" style="stroke:#404040;stroke-width:1.2;"/><text fill="#000000" font-family="sans-serif" font-size="36" lengthAdjust="spacing" textLength="190.0547" x="536.5" y="256.9805">conformsTo</text></g><!--link DefinedTerm to XsdAnyUri--><g class="link" data-entity-1="ent0010" data-entity-2="ent0002" data-link-type="dependency" data-source-line="25" id="lnk11"><path codeLine="25" d="M744.31,93.7494 C731.93,133.2594 713.65,214.4394 751.5,265.6094 C806.6,340.1094 1062.3107,394.2701 1206.5607,419.6401" fill="none" id="DefinedTerm-to-XsdAnyUri" style="stroke:#404040;stroke-width:1.2;stroke-dasharray:7,7;"/><polygon fill="#404040" points="1212.47,420.6794,1204.2989,415.1809,1207.5456,419.8133,1202.9132,423.06,1212.47,420.6794" style="stroke:#404040;stroke-width:1.2;"/><text fill="#000000" font-family="sans-serif" font-size="36" lengthAdjust="spacing" textLength="290.127" x="752.5" y="256.9805">inDefinedTermSet</text></g><!--link Identifier to XsdAnyUri--><g class="link" data-entity-1="ent0012" data-entity-2="ent0002" data-link-type="dependency" data-source-line="27" id="lnk13"><path codeLine="27" d="M941.48,93.7694 C978.41,138.6394 1059.05,235.6194 1090.5,265.6094 C1138.66,311.5394 1193.6726,354.1334 1238.4726,386.8134" fill="none" id="Identifier-to-XsdAnyUri" style="stroke:#404040;stroke-width:1.2;stroke-dasharray:7,7;"/><polygon fill="#404040" points="1243.32,390.3494,1238.4063,381.8138,1239.2805,387.4027,1233.6916,388.277,1243.32,390.3494" style="stroke:#404040;stroke-width:1.2;"/><text fill="#000000" font-family="sans-serif" font-size="36" lengthAdjust="spacing" textLength="40.0078" x="1091.5" y="256.9805">url</text></g><!--link AdditionalProperty to XsdAnyUri--><g class="link" data-entity-1="ent0014" data-entity-2="ent0002" data-link-type="dependency" data-source-line="29" id="lnk15"><path codeLine="29" d="M1127.1,93.7494 C1125.75,131.5694 1126.95,208.1294 1153.5,265.6094 C1176.06,314.4594 1213.2611,355.0026 1247.7011,386.3226" fill="none" id="AdditionalProperty-to-XsdAnyUri" style="stroke:#404040;stroke-width:1.2;stroke-dasharray:7,7;"/><polygon fill="#404040" points="1252.14,390.3594,1248.1728,381.3449,1248.4409,386.9954,1242.7904,387.2635,1252.14,390.3594" style="stroke:#404040;stroke-width:1.2;"/><text fill="#000000" font-family="sans-serif" font-size="36" lengthAdjust="spacing" textLength="144.1055" x="1154.5" y="256.9805">unitCode</text></g><!--link Reference to XsdAnyUri--><g class="link" data-entity-1="ent0016" data-entity-2="ent0002" data-link-type="dependency" data-source-line="31" id="lnk17"><path codeLine="31" d="M1338.59,93.8394 C1329.23,122.6894 1314.19,173.6094 1308.5,218.6094 C1301.05,277.6094 1302.4303,340.3484 1304.8603,384.5084" fill="none" id="Reference-to-XsdAnyUri" style="stroke:#404040;stroke-width:1.2;stroke-dasharray:7,7;"/><polygon fill="#404040" points="1305.19,390.4994,1308.6895,381.2932,1304.9153,385.5069,1300.7015,381.7327,1305.19,390.4994" style="stroke:#404040;stroke-width:1.2;"/><text fill="#000000" font-family="sans-serif" font-size="36" lengthAdjust="spacing" textLength="40.0078" x="1309.5" y="256.9805">url</text></g><!--link Reference to XsdAnyUri--><g class="link" data-entity-1="ent0016" data-entity-2="ent0002" data-link-type="dependency" data-source-line="32" id="lnk18"><path codeLine="32" d="M1347.52,93.6794 C1348.75,122.7894 1350.75,174.3994 1351.5,218.6094 C1351.85,239.4994 1354.07,244.8794 1351.5,265.6094 C1346.16,308.6294 1335.2341,350.6324 1325.0341,384.6324" fill="none" id="Reference-to-XsdAnyUri-1" style="stroke:#404040;stroke-width:1.2;stroke-dasharray:7,7;"/><polygon fill="#404040" points="1323.31,390.3794,1329.7274,382.9083,1324.7467,385.5902,1322.0648,380.6095,1323.31,390.3794" style="stroke:#404040;stroke-width:1.2;"/><text fill="#000000" font-family="sans-serif" font-size="36" lengthAdjust="spacing" textLength="118.0723" x="1353.5" y="256.9805">relation</text></g><!--link ProvActivity to XsdAnyUri--><g class="link" data-entity-1="ent0019" data-entity-2="ent0002" data-link-type="dependency" data-source-line="34" id="lnk20"><path codeLine="34" d="M1519.53,93.6794 C1517.07,131.7094 1508.36,208.9894 1477.5,265.6094 C1450.67,314.8294 1409.9737,355.5277 1373.0237,386.7377" fill="none" id="ProvActivity-to-XsdAnyUri" style="stroke:#404040;stroke-width:1.2;stroke-dasharray:7,7;"/><polygon fill="#404040" points="1368.44,390.6094,1377.8967,387.8577,1372.2598,387.383,1372.7345,381.7461,1368.44,390.6094" style="stroke:#404040;stroke-width:1.2;"/><text fill="#000000" font-family="sans-serif" font-size="36" lengthAdjust="spacing" textLength="78.0645" x="1497.5" y="256.9805">used</text></g><!--link DerivedFrom to XsdAnyUri--><g class="link" data-entity-1="ent0021" data-entity-2="ent0002" data-link-type="dependency" data-source-line="36" id="lnk22"><path codeLine="36" d="M1700.16,93.9194 C1680.3,132.9894 1636.09,212.6094 1581.5,265.6094 C1528.87,316.6894 1463.7304,357.3603 1407.5904,387.6503" fill="none" id="DerivedFrom-to-XsdAnyUri" style="stroke:#404040;stroke-width:1.2;stroke-dasharray:7,7;"/><polygon fill="#404040" points="1402.31,390.4994,1412.13,389.7461,1406.7104,388.1252,1408.3313,382.7055,1402.31,390.4994" style="stroke:#404040;stroke-width:1.2;"/><text fill="#000000" font-family="sans-serif" font-size="36" lengthAdjust="spacing" textLength="40.0078" x="1620.5" y="256.9805">url</text></g><!--link DerivedFrom to XsdAnyUri--><g class="link" data-entity-1="ent0021" data-entity-2="ent0002" data-link-type="dependency" data-source-line="37" id="lnk23"><path codeLine="37" d="M1712.32,93.7994 C1712.5,133.3894 1707.4,214.6794 1666.5,265.6094 C1600.77,347.4694 1492.0883,390.6834 1410.2783,413.5634" fill="none" id="DerivedFrom-to-XsdAnyUri-1" style="stroke:#404040;stroke-width:1.2;stroke-dasharray:7,7;"/><polygon fill="#404040" points="1404.5,415.1794,1414.2448,416.6075,1409.3152,413.8327,1412.0901,408.9032,1404.5,415.1794" style="stroke:#404040;stroke-width:1.2;"/><text fill="#000000" font-family="sans-serif" font-size="36" lengthAdjust="spacing" textLength="118.0723" x="1693.5" y="256.9805">relation</text></g><!--link CatalogRecord to XsdAnyUri--><g class="link" data-entity-1="ent0024" data-entity-2="ent0002" data-link-type="dependency" data-source-line="39" id="lnk25"><path codeLine="39" d="M1917.96,93.7494 C1905.3,134.3794 1873.65,218.6894 1817.5,265.6094 C1697.18,366.1494 1521.0804,407.2682 1410.4304,424.2682" fill="none" id="CatalogRecord-to-XsdAnyUri" style="stroke:#404040;stroke-width:1.2;stroke-dasharray:7,7;"/><polygon fill="#404040" points="1404.5,425.1794,1414.003,427.7663,1409.442,424.4201,1412.7882,419.8591,1404.5,425.1794" style="stroke:#404040;stroke-width:1.2;"/><text fill="#000000" font-family="sans-serif" font-size="36" lengthAdjust="spacing" textLength="190.0547" x="1858.5" y="256.9805">conformsTo</text></g><!--link CdifConceptOrTerm to XsdAnyUri--><g class="link" data-entity-1="ent0026" data-entity-2="ent0002" data-link-type="dependency" data-source-line="41" id="lnk27"><path codeLine="41" d="M2175.86,93.7294 C2159.14,135.1094 2118.31,221.6094 2054.5,265.6094 C1853.26,404.3894 1561.9175,431.5846 1410.5775,435.9946" fill="none" id="CdifConceptOrTerm-to-XsdAnyUri" style="stroke:#404040;stroke-width:1.2;stroke-dasharray:7,7;"/><polygon fill="#404040" points="1404.58,436.1694,1413.6927,439.9055,1409.5779,436.0237,1413.4597,431.9089,1404.58,436.1694" style="stroke:#404040;stroke-width:1.2;"/><text fill="#000000" font-family="sans-serif" font-size="36" lengthAdjust="spacing" textLength="136.0723" x="2101.5" y="256.9805">identifier</text></g><!--link CdifConceptOrTermOrString to XsdAnyUri--><g class="link" data-entity-1="ent0028" data-entity-2="ent0002" data-link-type="dependency" data-source-line="43" id="lnk29"><path codeLine="43" d="M2508.18,93.8194 C2459.58,135.3394 2350.86,222.0594 2243.5,265.6094 C1952.8,383.5394 1584.1577,419.955 1410.6077,431.095" fill="none" id="CdifConceptOrTermOrString-to-XsdAnyUri" style="stroke:#404040;stroke-width:1.2;stroke-dasharray:7,7;"/><polygon fill="#404040" points="1404.62,431.4794,1413.8577,434.8946,1409.6097,431.1591,1413.3453,426.9111,1404.62,431.4794" style="stroke:#404040;stroke-width:1.2;"/><text fill="#000000" font-family="sans-serif" font-size="36" lengthAdjust="spacing" textLength="136.0723" x="2329.5" y="256.9805">identifier</text></g><?plantuml-src XPHDZzem48Rl-HNMSaTqjzj3jK9AmoBrj1MmKg_UU08Z73iQ6n2j-jzhalL721zmoJmJl-_CUC2YbS1-6v6hupjXja41h4Gg9NJFK3Vso6geFu1CPhQe6awyPcR3XJwWMhEAImD99YVIXzK6owq2OzYNyMEI9Aws1Xhs-3n9gD82Mff20HNVIJlNoYxn3x2dRqcobDnf_yrOPrTegOcDlavENmT_Q190vpILSWUj9VpOMOXualtBiaxw8SpaWN4J9yHUNWItV7LiO3fbetd--ZnxycTcBcF0jYS-dzdejVraFXwFfudQTxOZcHwVwOEIcekWuK5FAC1pjTBr0ig-Ez5xxrMQQhFItZmlBMgr0EDctfgd89Ztu7tH6LIeGAo0wgwX6CT-4dQkY2h9Bi5wtP_2DOaL0hMoCGog2RenyLm8F3N4vI_I3P0zTgqFS1p0C3NGLsWBjz7UP04L4AWIMkqG1Sb8BbLwFKiW-QaKx-CAsf_kPu-VRQGWkFNWmD20Y7T7k0Sn9-tlBiJ9tKLsgVXR-VFo2xUlKgyNKBeVR-lO8y6pJ-_lO26mAhGRO6FVA6pYW4RzGMQmbM6thdgyqTBzkwZrPI-VlUuPthZX_Hy0?></g></svg>