<svg xmlns="http://www.w3.org/2000/svg" xmlns:xlink="http://www.w3.org/1999/xlink" contentStyleType="text/css" data-diagram-type="CLASS" height="202px" preserveAspectRatio="none" style="width:1227px;height:202px;background:#FFFFFF;" version="1.1" viewBox="0 0 1227 202" width="1227px" zoomAndPan="magnify"><?plantuml 1.2026.3?><defs/><g><g class="title" data-source-line="1"><text fill="#000000" font-family="sans-serif" font-size="14" font-weight="700" lengthAdjust="spacing" textLength="56.0205" x="582.3933" y="24.5332">XsdDate</text></g><!--class XsdDate--><g class="entity" data-qualified-name="XsdDate" data-source-line="12" id="ent0002"><rect fill="#FAE5D3" height="40.1875" rx="2.5" ry="2.5" style="stroke:#404040;stroke-width:0.5;" width="65.3809" x="567.02" y="148.6094"/><text fill="#000000" font-family="sans-serif" font-size="12" font-style="italic" lengthAdjust="spacing" textLength="63.3809" x="568.02" y="166.0664">&#171;dataType&#187;</text><text fill="#000000" font-family="sans-serif" font-size="12" lengthAdjust="spacing" textLength="46.0254" x="576.6977" y="181.1602">XsdDate</text></g><!--class Dataset--><g class="entity" data-qualified-name="Dataset" data-source-line="13" id="ent0003"><rect fill="#EEEEEE" height="25.0938" rx="2.5" ry="2.5" style="stroke:#404040;stroke-width:0.5;" width="47.3555" x="60.02" y="45.6094"/><text fill="#000000" font-family="sans-serif" font-size="12" lengthAdjust="spacing" textLength="41.3555" x="63.02" y="63.0664">Dataset</text></g><!--class DataDownload--><g class="entity" data-qualified-name="DataDownload" data-source-line="16" id="ent0006"><rect fill="#EEEEEE" height="25.0938" rx="2.5" ry="2.5" style="stroke:#404040;stroke-width:0.5;" width="84.7148" x="281.02" y="45.6094"/><text fill="#000000" font-family="sans-serif" font-size="12" lengthAdjust="spacing" textLength="78.7148" x="284.02" y="63.0664">DataDownload</text></g><!--class Contributor--><g class="entity" data-qualified-name="Contributor" data-source-line="19" id="ent0009"><rect fill="#EEEEEE" height="25.0938" rx="2.5" ry="2.5" style="stroke:#404040;stroke-width:0.5;" width="65.3613" x="514.02" y="45.6094"/><text fill="#000000" font-family="sans-serif" font-size="12" lengthAdjust="spacing" textLength="59.3613" x="517.02" y="63.0664">Contributor</text></g><!--class ProvActivity--><g class="entity" data-qualified-name="ProvActivity" data-source-line="22" id="ent0012"><rect fill="#EEEEEE" height="25.0938" rx="2.5" ry="2.5" style="stroke:#404040;stroke-width:0.5;" width="68.6777" x="717.02" y="45.6094"/><text fill="#000000" font-family="sans-serif" font-size="12" lengthAdjust="spacing" textLength="62.6777" x="720.02" y="63.0664">ProvActivity</text></g><!--class CatalogRecord--><g class="entity" data-qualified-name="CatalogRecord" data-source-line="25" id="ent0015"><rect fill="#EEEEEE" height="25.0938" rx="2.5" ry="2.5" style="stroke:#404040;stroke-width:0.5;" width="86.0449" x="1001.52" y="45.6094"/><text fill="#000000" font-family="sans-serif" font-size="12" lengthAdjust="spacing" textLength="80.0449" x="1004.52" y="63.0664">CatalogRecord</text></g><!--link Dataset to XsdDate--><g class="link" data-entity-1="ent0003" data-entity-2="ent0002" data-link-type="dependency" data-source-line="14" id="lnk4"><path codeLine="14" d="M59.61,69.5094 C36.12,81.1094 6,100.6294 22.52,118.6094 C59.5,158.8694 444.1403,166.0246 560.8003,167.2846" fill="none" id="Dataset-to-XsdDate" style="stroke:#404040;stroke-width:1.2;stroke-dasharray:7,7;"/><polygon fill="#404040" points="566.8,167.3494,557.8437,163.2524,561.8003,167.2954,557.7573,171.2519,566.8,167.3494" style="stroke:#404040;stroke-width:1.2;"/><text fill="#000000" font-family="sans-serif" font-size="13" lengthAdjust="spacing" textLength="74.439" x="23.52" y="115.1045">dateModified</text></g><!--link Dataset to XsdDate--><g class="link" data-entity-1="ent0003" data-entity-2="ent0002" data-link-type="dependency" data-source-line="15" id="lnk5"><path codeLine="15" d="M95.53,70.8294 C110.7,84.8294 138.22,107.7194 166.52,118.6094 C239.86,146.8294 473.338,161.2097 560.998,165.7397" fill="none" id="Dataset-to-XsdDate-1" style="stroke:#404040;stroke-width:1.2;stroke-dasharray:7,7;"/><polygon fill="#404040" points="566.99,166.0494,558.2084,161.5902,561.9967,165.7913,557.7956,169.5796,566.99,166.0494" style="stroke:#404040;stroke-width:1.2;"/><text fill="#000000" font-family="sans-serif" font-size="13" lengthAdjust="spacing" textLength="82.3989" x="167.52" y="115.1045">datePublished</text></g><!--link DataDownload to XsdDate--><g class="link" data-entity-1="ent0006" data-entity-2="ent0002" data-link-type="dependency" data-source-line="17" id="lnk7"><path codeLine="17" d="M296.82,70.8194 C274.05,82.4094 247.23,100.9294 262.52,118.6094 C301.73,163.9394 484.22,168.2135 560.93,168.0335" fill="none" id="DataDownload-to-XsdDate" style="stroke:#404040;stroke-width:1.2;stroke-dasharray:7,7;"/><polygon fill="#404040" points="566.93,168.0194,557.9206,164.0405,561.93,168.0311,557.9394,172.0405,566.93,168.0194" style="stroke:#404040;stroke-width:1.2;"/><text fill="#000000" font-family="sans-serif" font-size="13" lengthAdjust="spacing" textLength="74.439" x="263.52" y="115.1045">dateModified</text></g><!--link DataDownload to XsdDate--><g class="link" data-entity-1="ent0006" data-entity-2="ent0002" data-link-type="dependency" data-source-line="18" id="lnk8"><path codeLine="18" d="M336.53,70.6594 C352.28,84.0594 380.1,105.9294 407.52,118.6094 C460.45,143.0794 521.5373,155.6694 560.7773,162.0294" fill="none" id="DataDownload-to-XsdDate-1" style="stroke:#404040;stroke-width:1.2;stroke-dasharray:7,7;"/><polygon fill="#404040" points="566.7,162.9894,558.4559,157.601,561.7644,162.1894,557.176,165.4979,566.7,162.9894" style="stroke:#404040;stroke-width:1.2;"/><text fill="#000000" font-family="sans-serif" font-size="13" lengthAdjust="spacing" textLength="82.3989" x="408.52" y="115.1045">datePublished</text></g><!--link Contributor to XsdDate--><g class="link" data-entity-1="ent0009" data-entity-2="ent0002" data-link-type="dependency" data-source-line="20" id="lnk10"><path codeLine="20" d="M527.74,70.7694 C511.38,82.4694 491.82,101.2094 502.52,118.6094 C516.46,141.2694 538.7241,152.1018 561.0741,158.8218" fill="none" id="Contributor-to-XsdDate" style="stroke:#404040;stroke-width:1.2;stroke-dasharray:7,7;"/><polygon fill="#404040" points="566.82,160.5494,559.3529,154.1273,562.0318,159.1097,557.0494,161.7885,566.82,160.5494" style="stroke:#404040;stroke-width:1.2;"/><text fill="#000000" font-family="sans-serif" font-size="13" lengthAdjust="spacing" textLength="52.7427" x="503.52" y="115.1045">startDate</text></g><!--link Contributor to XsdDate--><g class="link" data-entity-1="ent0009" data-entity-2="ent0002" data-link-type="dependency" data-source-line="21" id="lnk11"><path codeLine="21" d="M552.19,70.7194 C561.27,89.3094 576.5257,120.5486 587.5257,143.0586" fill="none" id="Contributor-to-XsdDate-1" style="stroke:#404040;stroke-width:1.2;stroke-dasharray:7,7;"/><polygon fill="#404040" points="590.16,148.4494,589.8024,138.607,587.9647,143.9571,582.6147,142.1194,590.16,148.4494" style="stroke:#404040;stroke-width:1.2;"/><text fill="#000000" font-family="sans-serif" font-size="13" lengthAdjust="spacing" textLength="49.1499" x="576.52" y="115.1045">endDate</text></g><!--link ProvActivity to XsdDate--><g class="link" data-entity-1="ent0012" data-entity-2="ent0002" data-link-type="dependency" data-source-line="23" id="lnk13"><path codeLine="23" d="M732.79,70.7294 C719.9,78.8594 702.47,90.0994 687.52,100.6094 C665.53,116.0794 645.9943,130.9606 628.5343,144.6306" fill="none" id="ProvActivity-to-XsdDate" style="stroke:#404040;stroke-width:1.2;stroke-dasharray:7,7;"/><polygon fill="#404040" points="623.81,148.3294,633.3623,145.9307,627.7469,145.247,628.4306,139.6317,623.81,148.3294" style="stroke:#404040;stroke-width:1.2;"/><text fill="#000000" font-family="sans-serif" font-size="13" lengthAdjust="spacing" textLength="80.9136" x="688.52" y="115.1045">startedAtTime</text></g><!--link ProvActivity to XsdDate--><g class="link" data-entity-1="ent0012" data-entity-2="ent0002" data-link-type="dependency" data-source-line="24" id="lnk14"><path codeLine="24" d="M762.23,71.0594 C772.33,83.8394 784.42,104.2094 773.52,118.6094 C756.51,141.0594 683.7405,155.2087 638.2205,162.1987" fill="none" id="ProvActivity-to-XsdDate-1" style="stroke:#404040;stroke-width:1.2;stroke-dasharray:7,7;"/><polygon fill="#404040" points="632.29,163.1094,641.7928,165.697,637.2321,162.3505,640.5786,157.7897,632.29,163.1094" style="stroke:#404040;stroke-width:1.2;"/><text fill="#000000" font-family="sans-serif" font-size="13" lengthAdjust="spacing" textLength="77.3208" x="779.52" y="115.1045">endedAtTime</text></g><!--link CatalogRecord to XsdDate--><g class="link" data-entity-1="ent0015" data-entity-2="ent0002" data-link-type="dependency" data-source-line="26" id="lnk16"><path codeLine="26" d="M1014.18,70.6294 C978.88,83.6994 918.65,104.9594 865.52,118.6094 C782.52,139.9394 688.6078,154.8973 638.1178,162.2273" fill="none" id="CatalogRecord-to-XsdDate" style="stroke:#404040;stroke-width:1.2;stroke-dasharray:7,7;"/><polygon fill="#404040" points="632.18,163.0894,641.6613,165.7548,637.1281,162.371,640.5119,157.8378,632.18,163.0894" style="stroke:#404040;stroke-width:1.2;"/><text fill="#000000" font-family="sans-serif" font-size="13" lengthAdjust="spacing" textLength="71.5508" x="926.52" y="115.1045">dateCreated</text></g><!--link CatalogRecord to XsdDate--><g class="link" data-entity-1="ent0015" data-entity-2="ent0002" data-link-type="dependency" data-source-line="27" id="lnk17"><path codeLine="27" d="M1040.31,70.9894 C1034.7,84.9294 1023.36,107.5394 1005.52,118.6094 C943.23,157.2594 723.2588,165.3181 638.1988,167.0381" fill="none" id="CatalogRecord-to-XsdDate-1" style="stroke:#404040;stroke-width:1.2;stroke-dasharray:7,7;"/><polygon fill="#404040" points="632.2,167.1594,641.279,170.9766,637.199,167.0583,641.1173,162.9782,632.2,167.1594" style="stroke:#404040;stroke-width:1.2;"/><text fill="#000000" font-family="sans-serif" font-size="13" lengthAdjust="spacing" textLength="74.439" x="1025.52" y="115.1045">dateModified</text></g><!--link CatalogRecord to XsdDate--><g class="link" data-entity-1="ent0015" data-entity-2="ent0002" data-link-type="dependency" data-source-line="28" id="lnk18"><path codeLine="28" d="M1072.56,70.7894 C1096.48,82.3594 1124.64,100.8694 1108.52,118.6094 C1076.43,153.9294 745.2284,164.3512 638.0384,166.8212" fill="none" id="CatalogRecord-to-XsdDate-2" style="stroke:#404040;stroke-width:1.2;stroke-dasharray:7,7;"/><polygon fill="#404040" points="632.04,166.9594,641.1298,170.751,637.0387,166.8442,640.9455,162.7531,632.04,166.9594" style="stroke:#404040;stroke-width:1.2;"/><text fill="#000000" font-family="sans-serif" font-size="13" lengthAdjust="spacing" textLength="98.2871" x="1113.52" y="115.1045">sdDatePublished</text></g><?plantuml-src XP9DRy8m38Rl-HKMtD5WssL2I1qVjqbeux1hQ0orI1kK612Rzj-NzIEaOokDL3blNlc97JEnHdXtQYOPHKOA8IMRwZh6VCzdo35VetN2xQZOIojpS9bKvaJ55ZPIEunE4clDQPLHkYlGEHWEHj5XggNNFWLKjgdHnaB_uUvdUV7PM8Nsjxem1R_H1y9m9Bw4g7BqwYltGBhc-Z0UAyboTTxZP0BzHJ9_dDqtVc-G3hdqrp7qv-KdclrWC0cvdi3dmXUZQ4EeEYpBmrgJoxmd8itCgT16ge1hX1OpY3V07Ruh-jHtozBwmCQMy6WVsB7MJkbOMYv7uNyF5jMmrC2bDSSaPJeIdqjYB0HaI_o3YIhX5UNOPVJWO6kgzTtHPlkAgH-TgjvOkLJSKg_REBNe_-gcBpnBbx4ABY_p3G00?></g></svg>