<svg xmlns="http://www.w3.org/2000/svg" xmlns:xlink="http://www.w3.org/1999/xlink" contentStyleType="text/css" data-diagram-type="CLASS" height="299px" preserveAspectRatio="none" style="width:2587px;height:299px;background:#FFFFFF;" version="1.1" viewBox="0 0 2587 299" width="2587px" zoomAndPan="magnify"><?plantuml 1.2026.3?><defs/><g><g class="title" data-source-line="1"><text fill="#000000" font-family="sans-serif" font-size="14" font-weight="700" lengthAdjust="spacing" textLength="181.2549" x="1199.6184" y="24.5332">ControlledVocabularyEntry</text></g><!--class ControlledVocabularyEntry--><g class="entity" data-qualified-name="ControlledVocabularyEntry" data-source-line="12" id="ent0002"><rect fill="#FAE5D3" height="136.2344" rx="2.5" ry="2.5" style="stroke:#404040;stroke-width:0.5;" width="230.6611" x="1085.98" y="148.6094"/><text fill="#000000" font-family="sans-serif" font-size="12" font-style="italic" lengthAdjust="spacing" textLength="63.3809" x="1169.6201" y="166.0664">&#171;dataType&#187;</text><text fill="#000000" font-family="sans-serif" font-size="12" lengthAdjust="spacing" textLength="142.7402" x="1129.9404" y="181.1602">ControlledVocabularyEntry</text><line style="stroke:#404040;stroke-width:0.5;" x1="1086.98" x2="1315.6411" y1="188.7969" y2="188.7969"/><g data-visibility-modifier="PUBLIC_FIELD"><ellipse cx="1096.98" cy="203.1016" fill="none" rx="3" ry="3" style="stroke:#038048;stroke-width:1;"/></g><text fill="#000000" font-family="sans-serif" font-size="14" lengthAdjust="spacing" textLength="204.6611" x="1105.98" y="207.3301">entryReference : Reference [1..*]</text><g data-visibility-modifier="PUBLIC_FIELD"><ellipse cx="1096.98" cy="220.7109" fill="none" rx="3" ry="3" style="stroke:#038048;stroke-width:1;"/></g><text fill="#000000" font-family="sans-serif" font-size="14" lengthAdjust="spacing" textLength="145.5166" x="1105.98" y="224.9395">entryValue : string [1..*]</text><g data-visibility-modifier="PUBLIC_FIELD"><ellipse cx="1096.98" cy="238.3203" fill="none" rx="3" ry="3" style="stroke:#038048;stroke-width:1;"/></g><text fill="#000000" font-family="sans-serif" font-size="14" lengthAdjust="spacing" textLength="100.3789" x="1105.98" y="242.5488">name : string [1]</text><g data-visibility-modifier="PUBLIC_FIELD"><ellipse cx="1096.98" cy="255.9297" fill="none" rx="3" ry="3" style="stroke:#038048;stroke-width:1;"/></g><text fill="#000000" font-family="sans-serif" font-size="14" lengthAdjust="spacing" textLength="154.8408" x="1105.98" y="260.1582">valueForOther : string [1]</text><g data-visibility-modifier="PUBLIC_FIELD"><ellipse cx="1096.98" cy="273.5391" fill="none" rx="3" ry="3" style="stroke:#038048;stroke-width:1;"/></g><text fill="#000000" font-family="sans-serif" font-size="14" lengthAdjust="spacing" textLength="163.4199" x="1105.98" y="277.7676">vocabulary : Reference [1]</text></g><!--class ReferenceVariable--><g class="entity" data-qualified-name="ReferenceVariable" data-source-line="19" id="ent0003"><rect fill="#EEEEEE" height="25.0938" rx="2.5" ry="2.5" style="stroke:#404040;stroke-width:0.5;" width="105.3926" x="346.98" y="45.6094"/><text fill="#000000" font-family="sans-serif" font-size="12" lengthAdjust="spacing" textLength="99.3926" x="349.98" y="63.0664">ReferenceVariable</text></g><!--class DescriptorVariable--><g class="entity" data-qualified-name="DescriptorVariable" data-source-line="27" id="ent0011"><rect fill="#EEEEEE" height="25.0938" rx="2.5" ry="2.5" style="stroke:#404040;stroke-width:0.5;" width="104.707" x="1265.98" y="45.6094"/><text fill="#000000" font-family="sans-serif" font-size="12" lengthAdjust="spacing" textLength="98.707" x="1268.98" y="63.0664">DescriptorVariable</text></g><!--class SubstantiveValueDomain--><g class="entity" data-qualified-name="SubstantiveValueDomain" data-source-line="35" id="ent0019"><rect fill="#EEEEEE" height="25.0938" rx="2.5" ry="2.5" style="stroke:#404040;stroke-width:0.5;" width="140.748" x="1817.98" y="45.6094"/><text fill="#000000" font-family="sans-serif" font-size="12" lengthAdjust="spacing" textLength="134.748" x="1820.98" y="63.0664">SubstantiveValueDomain</text></g><!--class SentinelValueDomain--><g class="entity" data-qualified-name="SentinelValueDomain" data-source-line="37" id="ent0021"><rect fill="#EEEEEE" height="25.0938" rx="2.5" ry="2.5" style="stroke:#404040;stroke-width:0.5;" width="121.4063" x="2066.98" y="45.6094"/><text fill="#000000" font-family="sans-serif" font-size="12" lengthAdjust="spacing" textLength="115.4063" x="2069.98" y="63.0664">SentinelValueDomain</text></g><!--class DescriptorValueDomain--><g class="entity" data-qualified-name="DescriptorValueDomain" data-source-line="40" id="ent0024"><rect fill="#EEEEEE" height="25.0938" rx="2.5" ry="2.5" style="stroke:#404040;stroke-width:0.5;" width="132.7207" x="2300.98" y="45.6094"/><text fill="#000000" font-family="sans-serif" font-size="12" lengthAdjust="spacing" textLength="126.7207" x="2303.98" y="63.0664">DescriptorValueDomain</text></g><!--class Statistic--><g class="entity" data-qualified-name="Statistic" data-source-line="42" id="ent0026"><rect fill="#EEEEEE" height="25.0938" rx="2.5" ry="2.5" style="stroke:#404040;stroke-width:0.5;" width="48.0117" x="2524.48" y="45.6094"/><text fill="#000000" font-family="sans-serif" font-size="12" lengthAdjust="spacing" textLength="42.0117" x="2527.48" y="63.0664">Statistic</text></g><!--link ReferenceVariable to ControlledVocabularyEntry--><g class="link" data-entity-1="ent0003" data-entity-2="ent0002" data-link-type="dependency" data-source-line="20" id="lnk4"><path codeLine="20" d="M346.66,59.9394 C238.64,62.5794 6,73.4994 47.48,118.6094 C116.82,194.0194 801.2105,210.7593 1079.8005,214.4793" fill="none" id="ReferenceVariable-to-ControlledVocabularyEntry" style="stroke:#404040;stroke-width:1.2;stroke-dasharray:7,7;"/><polygon fill="#404040" points="1085.8,214.5594,1076.8542,210.4396,1080.8004,214.4926,1076.7474,218.4389,1085.8,214.5594" style="stroke:#404040;stroke-width:1.2;"/><text fill="#000000" font-family="sans-serif" font-size="13" lengthAdjust="spacing" textLength="45.5317" x="48.48" y="115.1045">function</text></g><!--link ReferenceVariable to ControlledVocabularyEntry--><g class="link" data-entity-1="ent0003" data-entity-2="ent0002" data-link-type="dependency" data-source-line="21" id="lnk5"><path codeLine="21" d="M346.71,59.5894 C277.37,61.4694 161.23,69.3394 134.48,100.6094 C129.28,106.6894 129.09,112.6994 134.48,118.6094 C197.67,187.7994 816.4313,208.0433 1079.5813,213.5733" fill="none" id="ReferenceVariable-to-ControlledVocabularyEntry-1" style="stroke:#404040;stroke-width:1.2;stroke-dasharray:7,7;"/><polygon fill="#404040" points="1085.58,213.6994,1076.666,209.5112,1080.5811,213.5943,1076.4979,217.5094,1085.58,213.6994" style="stroke:#404040;stroke-width:1.2;"/><text fill="#000000" font-family="sans-serif" font-size="13" lengthAdjust="spacing" textLength="103.3271" x="135.48" y="115.1045">physicalDataType</text></g><!--link ReferenceVariable to ControlledVocabularyEntry--><g class="link" data-entity-1="ent0003" data-entity-2="ent0002" data-link-type="dependency" data-source-line="22" id="lnk6"><path codeLine="22" d="M346.92,67.0794 C304.44,75.6594 255.36,91.8194 279.48,118.6094 C332.52,177.5194 843.9241,202.9878 1079.5941,211.6978" fill="none" id="ReferenceVariable-to-ControlledVocabularyEntry-2" style="stroke:#404040;stroke-width:1.2;stroke-dasharray:7,7;"/><polygon fill="#404040" points="1085.59,211.9194,1076.7439,207.5897,1080.5934,211.7347,1076.4484,215.5842,1085.59,211.9194" style="stroke:#404040;stroke-width:1.2;"/><text fill="#000000" font-family="sans-serif" font-size="13" lengthAdjust="spacing" textLength="75.8608" x="280.48" y="115.1045">platformType</text></g><!--link ReferenceVariable to ControlledVocabularyEntry--><g class="link" data-entity-1="ent0003" data-entity-2="ent0002" data-link-type="dependency" data-source-line="23" id="lnk7"><path codeLine="23" d="M394.57,70.7594 C389.85,84.0494 384.95,105.6094 396.48,118.6094 C441.43,169.2994 867.9587,198.2763 1079.7687,209.6963" fill="none" id="ReferenceVariable-to-ControlledVocabularyEntry-3" style="stroke:#404040;stroke-width:1.2;stroke-dasharray:7,7;"/><polygon fill="#404040" points="1085.76,210.0194,1076.9884,205.5406,1080.7673,209.7502,1076.5577,213.529,1085.76,210.0194" style="stroke:#404040;stroke-width:1.2;"/><text fill="#000000" font-family="sans-serif" font-size="13" lengthAdjust="spacing" textLength="21.6772" x="397.48" y="115.1045">role</text></g><!--link ReferenceVariable to ControlledVocabularyEntry--><g class="link" data-entity-1="ent0003" data-entity-2="ent0002" data-link-type="dependency" data-source-line="24" id="lnk8"><path codeLine="24" d="M407.66,71.0294 C417.97,84.9994 437.08,107.6394 459.48,118.6094 C567.18,171.3794 899.4712,198.1236 1079.7312,209.1336" fill="none" id="ReferenceVariable-to-ControlledVocabularyEntry-4" style="stroke:#404040;stroke-width:1.2;stroke-dasharray:7,7;"/><polygon fill="#404040" points="1085.72,209.4994,1076.9806,204.9581,1080.7293,209.1946,1076.4929,212.9433,1085.72,209.4994" style="stroke:#404040;stroke-width:1.2;"/><text fill="#000000" font-family="sans-serif" font-size="13" lengthAdjust="spacing" textLength="143.7871" x="460.48" y="115.1045">describedUnitOfMeasure</text></g><!--link ReferenceVariable to ControlledVocabularyEntry--><g class="link" data-entity-1="ent0003" data-entity-2="ent0002" data-link-type="dependency" data-source-line="25" id="lnk9"><path codeLine="25" d="M452.03,65.5694 C494.92,71.7794 556.68,82.8794 608.48,100.6094 C625.4,106.3994 627.49,113.0194 644.48,118.6094 C792.61,167.3694 965.445,192.322 1079.795,204.732" fill="none" id="ReferenceVariable-to-ControlledVocabularyEntry-5" style="stroke:#404040;stroke-width:1.2;stroke-dasharray:7,7;"/><polygon fill="#404040" points="1085.76,205.3794,1077.2441,200.4317,1080.7892,204.8399,1076.381,208.385,1085.76,205.3794" style="stroke:#404040;stroke-width:1.2;"/><text fill="#000000" font-family="sans-serif" font-size="13" lengthAdjust="spacing" textLength="127.9243" x="645.48" y="115.1045">hasIntendedDataType</text></g><!--link ReferenceVariable to ControlledVocabularyEntry--><g class="link" data-entity-1="ent0003" data-entity-2="ent0002" data-link-type="dependency" data-source-line="26" id="lnk10"><path codeLine="26" d="M452.24,61.7894 C525.75,66.2194 662.86,77.0494 777.48,100.6094 C804.33,106.1294 810.12,111.0894 836.48,118.6094 C919.55,142.3094 1007.9827,165.8008 1079.8927,184.4808" fill="none" id="ReferenceVariable-to-ControlledVocabularyEntry-6" style="stroke:#404040;stroke-width:1.2;stroke-dasharray:7,7;"/><polygon fill="#404040" points="1085.7,185.9894,1077.9948,179.855,1080.8606,184.7323,1075.9834,187.5981,1085.7,185.9894" style="stroke:#404040;stroke-width:1.2;"/><text fill="#000000" font-family="sans-serif" font-size="13" lengthAdjust="spacing" textLength="111.2808" x="837.48" y="115.1045">unitOfMeasureKind</text></g><!--link DescriptorVariable to ControlledVocabularyEntry--><g class="link" data-entity-1="ent0011" data-entity-2="ent0002" data-link-type="dependency" data-source-line="28" id="lnk12"><path codeLine="28" d="M1265.7,61.5294 C1172.34,66.3594 986,78.6494 966.48,100.6094 C922.12,150.5094 1000.3213,179.7709 1079.9513,196.7109" fill="none" id="DescriptorVariable-to-ControlledVocabularyEntry" style="stroke:#404040;stroke-width:1.2;stroke-dasharray:7,7;"/><polygon fill="#404040" points="1085.82,197.9594,1077.8493,192.1742,1080.9294,196.919,1076.1847,199.9991,1085.82,197.9594" style="stroke:#404040;stroke-width:1.2;"/><text fill="#000000" font-family="sans-serif" font-size="13" lengthAdjust="spacing" textLength="45.5317" x="967.48" y="115.1045">function</text></g><!--link DescriptorVariable to ControlledVocabularyEntry--><g class="link" data-entity-1="ent0011" data-entity-2="ent0002" data-link-type="dependency" data-source-line="29" id="lnk13"><path codeLine="29" d="M1265.71,59.5894 C1196.37,61.4694 1080.23,69.3394 1053.48,100.6094 C1030.95,126.9394 1047.6024,148.2374 1080.7824,167.6674" fill="none" id="DescriptorVariable-to-ControlledVocabularyEntry-1" style="stroke:#404040;stroke-width:1.2;stroke-dasharray:7,7;"/><polygon fill="#404040" points="1085.96,170.6994,1080.2149,162.6997,1081.6454,168.1727,1076.1723,169.6032,1085.96,170.6994" style="stroke:#404040;stroke-width:1.2;"/><text fill="#000000" font-family="sans-serif" font-size="13" lengthAdjust="spacing" textLength="103.3271" x="1054.48" y="115.1045">physicalDataType</text></g><!--link DescriptorVariable to ControlledVocabularyEntry--><g class="link" data-entity-1="ent0011" data-entity-2="ent0002" data-link-type="dependency" data-source-line="30" id="lnk14"><path codeLine="30" d="M1265.86,63.5594 C1241.15,68.5994 1213.83,79.0594 1198.48,100.6094 C1188.69,114.3594 1185.5584,125.5608 1185.9284,142.4308" fill="none" id="DescriptorVariable-to-ControlledVocabularyEntry-2" style="stroke:#404040;stroke-width:1.2;stroke-dasharray:7,7;"/><polygon fill="#404040" points="1186.06,148.4294,1189.8617,139.3438,1185.9504,143.4306,1181.8636,139.5192,1186.06,148.4294" style="stroke:#404040;stroke-width:1.2;"/><text fill="#000000" font-family="sans-serif" font-size="13" lengthAdjust="spacing" textLength="75.8608" x="1199.48" y="115.1045">platformType</text></g><!--link DescriptorVariable to ControlledVocabularyEntry--><g class="link" data-entity-1="ent0011" data-entity-2="ent0002" data-link-type="dependency" data-source-line="31" id="lnk15"><path codeLine="31" d="M1311.33,70.7394 C1303.74,82.8994 1291.25,102.4294 1279.48,118.6094 C1272.36,128.3994 1268.3308,133.8167 1260.5808,143.7067" fill="none" id="DescriptorVariable-to-ControlledVocabularyEntry-3" style="stroke:#404040;stroke-width:1.2;stroke-dasharray:7,7;"/><polygon fill="#404040" points="1256.88,148.4294,1265.5797,143.8125,1259.964,144.4938,1259.2827,138.8781,1256.88,148.4294" style="stroke:#404040;stroke-width:1.2;"/><text fill="#000000" font-family="sans-serif" font-size="13" lengthAdjust="spacing" textLength="21.6772" x="1293.48" y="115.1045">role</text></g><!--link DescriptorVariable to ControlledVocabularyEntry--><g class="link" data-entity-1="ent0011" data-entity-2="ent0002" data-link-type="dependency" data-source-line="32" id="lnk16"><path codeLine="32" d="M1322.82,70.7094 C1326.74,83.1894 1330.87,103.2994 1323.48,118.6094 C1318.25,129.4594 1315.1483,134.9857 1306.9883,144.1157" fill="none" id="DescriptorVariable-to-ControlledVocabularyEntry-4" style="stroke:#404040;stroke-width:1.2;stroke-dasharray:7,7;"/><polygon fill="#404040" points="1302.99,148.5894,1311.9699,144.5445,1306.3219,144.8614,1306.0051,139.2134,1302.99,148.5894" style="stroke:#404040;stroke-width:1.2;"/><text fill="#000000" font-family="sans-serif" font-size="13" lengthAdjust="spacing" textLength="143.7871" x="1329.48" y="115.1045">describedUnitOfMeasure</text></g><!--link DescriptorVariable to ControlledVocabularyEntry--><g class="link" data-entity-1="ent0011" data-entity-2="ent0002" data-link-type="dependency" data-source-line="33" id="lnk17"><path codeLine="33" d="M1371.11,60.5994 C1429.32,64.2994 1511.22,76.8294 1481.48,118.6094 C1444.19,170.9994 1382.4461,194.2376 1322.9961,205.4476" fill="none" id="DescriptorVariable-to-ControlledVocabularyEntry-5" style="stroke:#404040;stroke-width:1.2;stroke-dasharray:7,7;"/><polygon fill="#404040" points="1317.1,206.5594,1326.6853,208.8224,1322.0134,205.6329,1325.203,200.961,1317.1,206.5594" style="stroke:#404040;stroke-width:1.2;"/><text fill="#000000" font-family="sans-serif" font-size="13" lengthAdjust="spacing" textLength="127.9243" x="1489.48" y="115.1045">hasIntendedDataType</text></g><!--link DescriptorVariable to ControlledVocabularyEntry--><g class="link" data-entity-1="ent0011" data-entity-2="ent0002" data-link-type="dependency" data-source-line="34" id="lnk18"><path codeLine="34" d="M1371.23,58.2694 C1450.13,58.2694 1593.1,63.5494 1625.48,100.6094 C1630.74,106.6294 1630.47,112.3494 1625.48,118.6094 C1587.53,166.2194 1435.1312,191.6578 1323.1012,204.4678" fill="none" id="DescriptorVariable-to-ControlledVocabularyEntry-6" style="stroke:#404040;stroke-width:1.2;stroke-dasharray:7,7;"/><polygon fill="#404040" points="1317.14,205.1494,1326.5362,208.101,1322.1076,204.5814,1325.6273,200.1528,1317.14,205.1494" style="stroke:#404040;stroke-width:1.2;"/><text fill="#000000" font-family="sans-serif" font-size="13" lengthAdjust="spacing" textLength="111.2808" x="1630.48" y="115.1045">unitOfMeasureKind</text></g><!--link SubstantiveValueDomain to ControlledVocabularyEntry--><g class="link" data-entity-1="ent0019" data-entity-2="ent0002" data-link-type="dependency" data-source-line="36" id="lnk20"><path codeLine="36" d="M1866.13,70.6694 C1839.33,84.0794 1792.72,105.9594 1750.48,118.6094 C1604.1,162.4494 1435.424,188.3681 1323.054,202.3581" fill="none" id="SubstantiveValueDomain-to-ControlledVocabularyEntry" style="stroke:#404040;stroke-width:1.2;stroke-dasharray:7,7;"/><polygon fill="#404040" points="1317.1,203.0994,1326.5252,205.9568,1322.0617,202.4816,1325.5369,198.0181,1317.1,203.0994" style="stroke:#404040;stroke-width:1.2;"/><text fill="#000000" font-family="sans-serif" font-size="13" lengthAdjust="spacing" textLength="139.458" x="1797.48" y="115.1045">recommendedDataType</text></g><!--link SentinelValueDomain to ControlledVocabularyEntry--><g class="link" data-entity-1="ent0021" data-entity-2="ent0002" data-link-type="dependency" data-source-line="38" id="lnk22"><path codeLine="38" d="M2098.01,70.6294 C2062.4,84.1094 2000.43,106.1594 1945.48,118.6094 C1726.18,168.2994 1470.3096,194.5849 1323.0196,206.7649" fill="none" id="SentinelValueDomain-to-ControlledVocabularyEntry" style="stroke:#404040;stroke-width:1.2;stroke-dasharray:7,7;"/><polygon fill="#404040" points="1317.04,207.2594,1326.339,210.5041,1322.023,206.8473,1325.6797,202.5313,1317.04,207.2594" style="stroke:#404040;stroke-width:1.2;"/><text fill="#000000" font-family="sans-serif" font-size="13" lengthAdjust="spacing" textLength="75.8608" x="2006.48" y="115.1045">platformType</text></g><!--link SentinelValueDomain to ControlledVocabularyEntry--><g class="link" data-entity-1="ent0021" data-entity-2="ent0002" data-link-type="dependency" data-source-line="39" id="lnk23"><path codeLine="39" d="M2123.68,71.0094 C2118.56,84.9694 2107.98,107.5994 2090.48,118.6094 C1964.41,197.9294 1533.9096,212.7685 1323.1396,215.2585" fill="none" id="SentinelValueDomain-to-ControlledVocabularyEntry-1" style="stroke:#404040;stroke-width:1.2;stroke-dasharray:7,7;"/><polygon fill="#404040" points="1317.14,215.3294,1326.1866,219.2228,1322.1397,215.2703,1326.0921,211.2233,1317.14,215.3294" style="stroke:#404040;stroke-width:1.2;"/><text fill="#000000" font-family="sans-serif" font-size="13" lengthAdjust="spacing" textLength="139.458" x="2108.48" y="115.1045">recommendedDataType</text></g><!--link DescriptorValueDomain to ControlledVocabularyEntry--><g class="link" data-entity-1="ent0024" data-entity-2="ent0002" data-link-type="dependency" data-source-line="41" id="lnk25"><path codeLine="41" d="M2351.1,70.6294 C2330.22,84.6494 2292.5,107.7894 2256.48,118.6094 C2083.19,170.6794 1559.0938,199.7357 1323.0038,210.5157" fill="none" id="DescriptorValueDomain-to-ControlledVocabularyEntry" style="stroke:#404040;stroke-width:1.2;stroke-dasharray:7,7;"/><polygon fill="#404040" points="1317.01,210.7894,1326.1831,214.3747,1322.0048,210.5613,1325.8182,206.383,1317.01,210.7894" style="stroke:#404040;stroke-width:1.2;"/><text fill="#000000" font-family="sans-serif" font-size="13" lengthAdjust="spacing" textLength="139.458" x="2298.48" y="115.1045">recommendedDataType</text></g><!--link Statistic to ControlledVocabularyEntry--><g class="link" data-entity-1="ent0026" data-entity-2="ent0002" data-link-type="dependency" data-source-line="43" id="lnk27"><path codeLine="43" d="M2533.61,70.7294 C2514.61,84.8494 2480.14,108.0894 2446.48,118.6094 C2237.74,183.8494 1590.7681,206.3495 1323.3881,213.0295" fill="none" id="Statistic-to-ControlledVocabularyEntry" style="stroke:#404040;stroke-width:1.2;stroke-dasharray:7,7;"/><polygon fill="#404040" points="1317.39,213.1794,1326.4871,216.9533,1322.3884,213.0545,1326.2873,208.9558,1317.39,213.1794" style="stroke:#404040;stroke-width:1.2;"/><text fill="#000000" font-family="sans-serif" font-size="13" lengthAdjust="spacing" textLength="83.8081" x="2485.48" y="115.1045">typeOfStatistic</text></g><?plantuml-src hLJ1Rjim3BtxAuJcjW76qcsNeWZGDGam34E0jSjbw86Mw9ceB1cKtC8Rzk-pdSPnQhjTrTaN-JtoYQIUvSbh59VMUBPQezfQ2KcfWQjL3LLHHWg599OQTslC2r-97FC4sKNkbam13Bbm6IXxJ-QdI44xx34NpFR-EYDvQz0vCOzFUwJKK6E_8x4BkxJQifXzUDUyDVZ9ia9-ZAxhSg_e5uhvQVGdYdOQ9vDDd0XmqosAytC57gwh0XSBCLjVh3uktxSLlSM6_uOfCXg9uamSrZ_cSVpcfWlQWYwR0EUv6S61DP0VuIrurqIlBMzyXZnak_eUxNXJD_lGQmTlWGaIZMsF0rJCLkqJ3PauNZmnapEHbaPwiYOWjSWgHnBqyc6i8H8QV6ev3qolyP0qXKuo9QY-6_ARz2k2Apb4A0FtsNWq2jKhXb3sg_X2HkrFVzdMMNZBHyS_XBlp7w7-sG01kGC7X6ZqBH2GtteW86_2105AOou8a9cqmLMPE0_6qnsszy_Iva2cjS8urTbXWdvsf2XjdXytjA-blWR9e1uKCiGFLOnmBt95YC0JFVJFvhYBKMRqv_e_m_JWoNcIkn7klmw3wv3dDl6rwYRjugE_?></g></svg>