<svg xmlns="http://www.w3.org/2000/svg" xmlns:xlink="http://www.w3.org/1999/xlink" contentStyleType="text/css" data-diagram-type="CLASS" height="352px" preserveAspectRatio="none" style="width:3015px;height:352px;background:#FFFFFF;" version="1.1" viewBox="0 0 3015 352" width="3015px" zoomAndPan="magnify"><?plantuml 1.2026.3?><defs/><g><g class="title" data-source-line="1"><text fill="#000000" font-family="sans-serif" font-size="14" font-weight="700" lengthAdjust="spacing" textLength="59.1172" x="1474.4473" y="24.5332">Identifier</text></g><!--class Identifier--><g class="entity" data-qualified-name="Identifier" data-source-line="12" id="ent0002"><rect fill="#FAE5D3" height="189.0625" rx="2.5" ry="2.5" style="stroke:#404040;stroke-width:0.5;" width="364.5293" x="1356.5" y="148.6094"/><text fill="#000000" font-family="sans-serif" font-size="12" font-style="italic" lengthAdjust="spacing" textLength="63.3809" x="1507.0742" y="166.0664">&#171;dataType&#187;</text><text fill="#000000" font-family="sans-serif" font-size="12" lengthAdjust="spacing" textLength="46.0254" x="1515.752" y="181.1602">Identifier</text><line style="stroke:#404040;stroke-width:0.5;" x1="1357.5" x2="1720.0293" y1="188.7969" y2="188.7969"/><g data-visibility-modifier="PUBLIC_FIELD"><ellipse cx="1367.5" cy="203.1016" fill="none" rx="3" ry="3" style="stroke:#038048;stroke-width:1;"/></g><text fill="#000000" font-family="sans-serif" font-size="14" lengthAdjust="spacing" textLength="338.5293" x="1376.5" y="207.3301">ddiIdentifier : InternationalRegistrationDataIdentifier [1]</text><g data-visibility-modifier="PUBLIC_FIELD"><ellipse cx="1367.5" cy="220.7109" fill="none" rx="3" ry="3" style="stroke:#038048;stroke-width:1;"/></g><text fill="#000000" font-family="sans-serif" font-size="14" lengthAdjust="spacing" textLength="228.0127" x="1376.5" y="224.9395">isDdiIdentifierPersistent : boolean [1]</text><g data-visibility-modifier="PUBLIC_FIELD"><ellipse cx="1367.5" cy="238.3203" fill="none" rx="3" ry="3" style="stroke:#038048;stroke-width:1;"/></g><text fill="#000000" font-family="sans-serif" font-size="14" lengthAdjust="spacing" textLength="278.5918" x="1376.5" y="242.5488">isDdiIdentifierUniversallyUnique : boolean [1]</text><g data-visibility-modifier="PUBLIC_FIELD"><ellipse cx="1367.5" cy="255.9297" fill="none" rx="3" ry="3" style="stroke:#038048;stroke-width:1;"/></g><text fill="#000000" font-family="sans-serif" font-size="14" lengthAdjust="spacing" textLength="242.7988" x="1376.5" y="260.1582">nonDdiIdentifier : NonDdiIdentifier [1..*]</text><g data-visibility-modifier="PUBLIC_FIELD"><ellipse cx="1367.5" cy="273.5391" fill="none" rx="3" ry="3" style="stroke:#038048;stroke-width:1;"/></g><text fill="#000000" font-family="sans-serif" font-size="14" lengthAdjust="spacing" textLength="112.8135" x="1376.5" y="277.7676">uri : XsdAnyUri [1]</text><g data-visibility-modifier="PUBLIC_FIELD"><ellipse cx="1367.5" cy="291.1484" fill="none" rx="3" ry="3" style="stroke:#038048;stroke-width:1;"/></g><text fill="#000000" font-family="sans-serif" font-size="14" lengthAdjust="spacing" textLength="159.5234" x="1376.5" y="295.377">versionDate : XsdDate [1]</text><g data-visibility-modifier="PUBLIC_FIELD"><ellipse cx="1367.5" cy="308.7578" fill="none" rx="3" ry="3" style="stroke:#038048;stroke-width:1;"/></g><text fill="#000000" font-family="sans-serif" font-size="14" lengthAdjust="spacing" textLength="252.9229" x="1376.5" y="312.9863">versionRationale : RationaleDefinition [1]</text><g data-visibility-modifier="PUBLIC_FIELD"><ellipse cx="1367.5" cy="326.3672" fill="none" rx="3" ry="3" style="stroke:#038048;stroke-width:1;"/></g><text fill="#000000" font-family="sans-serif" font-size="14" lengthAdjust="spacing" textLength="239.6816" x="1376.5" y="330.5957">versionResponsibility : AgentInRole [1]</text></g><!--class DataStructure--><g class="entity" data-qualified-name="DataStructure" data-source-line="22" id="ent0003"><rect fill="#EEEEEE" height="25.0938" rx="2.5" ry="2.5" style="stroke:#404040;stroke-width:0.5;" width="80.0332" x="7" y="45.6094"/><text fill="#000000" font-family="sans-serif" font-size="12" lengthAdjust="spacing" textLength="74.0332" x="10" y="63.0664">DataStructure</text></g><!--class WideDataStructure--><g class="entity" data-qualified-name="WideDataStructure" data-source-line="24" id="ent0005"><rect fill="#EEEEEE" height="25.0938" rx="2.5" ry="2.5" style="stroke:#404040;stroke-width:0.5;" width="107.373" x="122.5" y="45.6094"/><text fill="#000000" font-family="sans-serif" font-size="12" lengthAdjust="spacing" textLength="101.373" x="125.5" y="63.0664">WideDataStructure</text></g><!--class LongDataStructure--><g class="entity" data-qualified-name="LongDataStructure" data-source-line="26" id="ent0007"><rect fill="#EEEEEE" height="25.0938" rx="2.5" ry="2.5" style="stroke:#404040;stroke-width:0.5;" width="106.7285" x="264.5" y="45.6094"/><text fill="#000000" font-family="sans-serif" font-size="12" lengthAdjust="spacing" textLength="100.7285" x="267.5" y="63.0664">LongDataStructure</text></g><!--class DimensionalDataStructure--><g class="entity" data-qualified-name="DimensionalDataStructure" data-source-line="28" id="ent0009"><rect fill="#EEEEEE" height="25.0938" rx="2.5" ry="2.5" style="stroke:#404040;stroke-width:0.5;" width="146.0625" x="407" y="45.6094"/><text fill="#000000" font-family="sans-serif" font-size="12" lengthAdjust="spacing" textLength="140.0625" x="410" y="63.0664">DimensionalDataStructure</text></g><!--class DataStructureComponent--><g class="entity" data-qualified-name="DataStructureComponent" data-source-line="30" id="ent0011"><rect fill="#EEEEEE" height="25.0938" rx="2.5" ry="2.5" style="stroke:#404040;stroke-width:0.5;" width="142.0723" x="588" y="45.6094"/><text fill="#000000" font-family="sans-serif" font-size="12" lengthAdjust="spacing" textLength="136.0723" x="591" y="63.0664">DataStructureComponent</text></g><!--class IdentifierComponent--><g class="entity" data-qualified-name="IdentifierComponent" data-source-line="32" id="ent0013"><rect fill="#EEEEEE" height="25.0938" rx="2.5" ry="2.5" style="stroke:#404040;stroke-width:0.5;" width="114.0645" x="765" y="45.6094"/><text fill="#000000" font-family="sans-serif" font-size="12" lengthAdjust="spacing" textLength="108.0645" x="768" y="63.0664">IdentifierComponent</text></g><!--class MeasureComponent--><g class="entity" data-qualified-name="MeasureComponent" data-source-line="34" id="ent0015"><rect fill="#EEEEEE" height="25.0938" rx="2.5" ry="2.5" style="stroke:#404040;stroke-width:0.5;" width="114.7266" x="914.5" y="45.6094"/><text fill="#000000" font-family="sans-serif" font-size="12" lengthAdjust="spacing" textLength="108.7266" x="917.5" y="63.0664">MeasureComponent</text></g><!--class AttributeComponent--><g class="entity" data-qualified-name="AttributeComponent" data-source-line="36" id="ent0017"><rect fill="#EEEEEE" height="25.0938" rx="2.5" ry="2.5" style="stroke:#404040;stroke-width:0.5;" width="112.7285" x="1064.5" y="45.6094"/><text fill="#000000" font-family="sans-serif" font-size="12" lengthAdjust="spacing" textLength="106.7285" x="1067.5" y="63.0664">AttributeComponent</text></g><!--class DimensionComponent--><g class="entity" data-qualified-name="DimensionComponent" data-source-line="38" id="ent0019"><rect fill="#EEEEEE" height="25.0938" rx="2.5" ry="2.5" style="stroke:#404040;stroke-width:0.5;" width="124.7285" x="1212.5" y="45.6094"/><text fill="#000000" font-family="sans-serif" font-size="12" lengthAdjust="spacing" textLength="118.7285" x="1215.5" y="63.0664">DimensionComponent</text></g><!--class VariableValueComponent--><g class="entity" data-qualified-name="VariableValueComponent" data-source-line="40" id="ent0021"><rect fill="#EEEEEE" height="25.0938" rx="2.5" ry="2.5" style="stroke:#404040;stroke-width:0.5;" width="142.7578" x="1372.5" y="45.6094"/><text fill="#000000" font-family="sans-serif" font-size="12" lengthAdjust="spacing" textLength="136.7578" x="1375.5" y="63.0664">VariableValueComponent</text></g><!--class VariableDescriptorComponent--><g class="entity" data-qualified-name="VariableDescriptorComponent" data-source-line="42" id="ent0023"><rect fill="#EEEEEE" height="25.0938" rx="2.5" ry="2.5" style="stroke:#404040;stroke-width:0.5;" width="166.7461" x="1550.5" y="45.6094"/><text fill="#000000" font-family="sans-serif" font-size="12" lengthAdjust="spacing" textLength="160.7461" x="1553.5" y="63.0664">VariableDescriptorComponent</text></g><!--class PrimaryKey--><g class="entity" data-qualified-name="PrimaryKey" data-source-line="44" id="ent0025"><rect fill="#EEEEEE" height="25.0938" rx="2.5" ry="2.5" style="stroke:#404040;stroke-width:0.5;" width="68.0098" x="1753" y="45.6094"/><text fill="#000000" font-family="sans-serif" font-size="12" lengthAdjust="spacing" textLength="62.0098" x="1756" y="63.0664">PrimaryKey</text></g><!--class PrimaryKeyComponent--><g class="entity" data-qualified-name="PrimaryKeyComponent" data-source-line="46" id="ent0027"><rect fill="#EEEEEE" height="25.0938" rx="2.5" ry="2.5" style="stroke:#404040;stroke-width:0.5;" width="130.0488" x="1856" y="45.6094"/><text fill="#000000" font-family="sans-serif" font-size="12" lengthAdjust="spacing" textLength="124.0488" x="1859" y="63.0664">PrimaryKeyComponent</text></g><!--class ReferenceVariable--><g class="entity" data-qualified-name="ReferenceVariable" data-source-line="48" id="ent0029"><rect fill="#EEEEEE" height="25.0938" rx="2.5" ry="2.5" style="stroke:#404040;stroke-width:0.5;" width="105.3926" x="2021.5" y="45.6094"/><text fill="#000000" font-family="sans-serif" font-size="12" lengthAdjust="spacing" textLength="99.3926" x="2024.5" y="63.0664">ReferenceVariable</text></g><!--class DescriptorVariable--><g class="entity" data-qualified-name="DescriptorVariable" data-source-line="50" id="ent0031"><rect fill="#EEEEEE" height="25.0938" rx="2.5" ry="2.5" style="stroke:#404040;stroke-width:0.5;" width="104.707" x="2161.5" y="45.6094"/><text fill="#000000" font-family="sans-serif" font-size="12" lengthAdjust="spacing" textLength="98.707" x="2164.5" y="63.0664">DescriptorVariable</text></g><!--class SubstantiveValueDomain--><g class="entity" data-qualified-name="SubstantiveValueDomain" data-source-line="52" id="ent0033"><rect fill="#EEEEEE" height="25.0938" rx="2.5" ry="2.5" style="stroke:#404040;stroke-width:0.5;" width="140.748" x="2301.5" y="45.6094"/><text fill="#000000" font-family="sans-serif" font-size="12" lengthAdjust="spacing" textLength="134.748" x="2304.5" y="63.0664">SubstantiveValueDomain</text></g><!--class SentinelValueDomain--><g class="entity" data-qualified-name="SentinelValueDomain" data-source-line="54" id="ent0035"><rect fill="#EEEEEE" height="25.0938" rx="2.5" ry="2.5" style="stroke:#404040;stroke-width:0.5;" width="121.4063" x="2477.5" y="45.6094"/><text fill="#000000" font-family="sans-serif" font-size="12" lengthAdjust="spacing" textLength="115.4063" x="2480.5" y="63.0664">SentinelValueDomain</text></g><!--class DescriptorValueDomain--><g class="entity" data-qualified-name="DescriptorValueDomain" data-source-line="56" id="ent0037"><rect fill="#EEEEEE" height="25.0938" rx="2.5" ry="2.5" style="stroke:#404040;stroke-width:0.5;" width="132.7207" x="2633.5" y="45.6094"/><text fill="#000000" font-family="sans-serif" font-size="12" lengthAdjust="spacing" textLength="126.7207" x="2636.5" y="63.0664">DescriptorValueDomain</text></g><!--class EnumerationDomain--><g class="entity" data-qualified-name="EnumerationDomain" data-source-line="58" id="ent0039"><rect fill="#EEEEEE" height="25.0938" rx="2.5" ry="2.5" style="stroke:#404040;stroke-width:0.5;" width="115.3887" x="2801.5" y="45.6094"/><text fill="#000000" font-family="sans-serif" font-size="12" lengthAdjust="spacing" textLength="109.3887" x="2804.5" y="63.0664">EnumerationDomain</text></g><!--class Statistic--><g class="entity" data-qualified-name="Statistic" data-source-line="60" id="ent0041"><rect fill="#EEEEEE" height="25.0938" rx="2.5" ry="2.5" style="stroke:#404040;stroke-width:0.5;" width="48.0117" x="2952" y="45.6094"/><text fill="#000000" font-family="sans-serif" font-size="12" lengthAdjust="spacing" textLength="42.0117" x="2955" y="63.0664">Statistic</text></g><!--link DataStructure to Identifier--><g class="link" data-entity-1="ent0003" data-entity-2="ent0002" data-link-type="dependency" data-source-line="23" id="lnk4"><path codeLine="23" d="M87.12,69.3094 C140.27,82.4794 237.11,105.2894 321,118.6094 C686.12,176.5694 1111.3756,212.3471 1350.3356,229.6071" fill="none" id="DataStructure-to-Identifier" style="stroke:#404040;stroke-width:1.2;stroke-dasharray:7,7;"/><polygon fill="#404040" points="1356.32,230.0394,1347.6316,225.4014,1351.333,229.6792,1347.0552,233.3806,1356.32,230.0394" style="stroke:#404040;stroke-width:1.2;"/><text fill="#000000" font-family="sans-serif" font-size="13" lengthAdjust="spacing" textLength="49.1372" x="322" y="115.1045">identifier</text></g><!--link WideDataStructure to Identifier--><g class="link" data-entity-1="ent0005" data-entity-2="ent0002" data-link-type="dependency" data-source-line="25" id="lnk6"><path codeLine="25" d="M228.5,70.6694 C288.93,83.6694 391.26,104.7694 480,118.6094 C786.11,166.3394 1138.6584,203.8659 1350.2084,224.5359" fill="none" id="WideDataStructure-to-Identifier" style="stroke:#404040;stroke-width:1.2;stroke-dasharray:7,7;"/><polygon fill="#404040" points="1356.18,225.1194,1347.6116,220.2631,1351.2037,224.6332,1346.8337,228.2252,1356.18,225.1194" style="stroke:#404040;stroke-width:1.2;"/><text fill="#000000" font-family="sans-serif" font-size="13" lengthAdjust="spacing" textLength="49.1372" x="481" y="115.1045">identifier</text></g><!--link LongDataStructure to Identifier--><g class="link" data-entity-1="ent0007" data-entity-2="ent0002" data-link-type="dependency" data-source-line="27" id="lnk8"><path codeLine="27" d="M371.53,70.0394 C434.26,82.6594 541.42,103.5894 634,118.6094 C883.46,159.0894 1167.1263,196.2853 1350.2063,219.1653" fill="none" id="LongDataStructure-to-Identifier" style="stroke:#404040;stroke-width:1.2;stroke-dasharray:7,7;"/><polygon fill="#404040" points="1356.16,219.9094,1347.7255,214.8242,1351.1986,219.2893,1346.7334,222.7624,1356.16,219.9094" style="stroke:#404040;stroke-width:1.2;"/><text fill="#000000" font-family="sans-serif" font-size="13" lengthAdjust="spacing" textLength="49.1372" x="635" y="115.1045">identifier</text></g><!--link DimensionalDataStructure to Identifier--><g class="link" data-entity-1="ent0009" data-entity-2="ent0002" data-link-type="dependency" data-source-line="29" id="lnk10"><path codeLine="29" d="M536.4,70.6394 C597.54,83.0194 698.05,103.0094 785,118.6094 C979.7,153.5394 1197.4931,188.7454 1350.3631,212.8354" fill="none" id="DimensionalDataStructure-to-Identifier" style="stroke:#404040;stroke-width:1.2;stroke-dasharray:7,7;"/><polygon fill="#404040" points="1356.29,213.7694,1348.0224,208.4172,1351.3509,212.9911,1346.7771,216.3196,1356.29,213.7694" style="stroke:#404040;stroke-width:1.2;"/><text fill="#000000" font-family="sans-serif" font-size="13" lengthAdjust="spacing" textLength="49.1372" x="786" y="115.1045">identifier</text></g><!--link DataStructureComponent to Identifier--><g class="link" data-entity-1="ent0011" data-entity-2="ent0002" data-link-type="dependency" data-source-line="31" id="lnk12"><path codeLine="31" d="M708.55,70.6494 C761.55,82.8994 848.1,102.6594 923,118.6094 C1068.49,149.5794 1227.8924,181.4535 1350.6024,205.5435" fill="none" id="DataStructureComponent-to-Identifier" style="stroke:#404040;stroke-width:1.2;stroke-dasharray:7,7;"/><polygon fill="#404040" points="1356.49,206.6994,1348.4291,201.0405,1351.5837,205.7362,1346.888,208.8907,1356.49,206.6994" style="stroke:#404040;stroke-width:1.2;"/><text fill="#000000" font-family="sans-serif" font-size="13" lengthAdjust="spacing" textLength="49.1372" x="924" y="115.1045">identifier</text></g><!--link IdentifierComponent to Identifier--><g class="link" data-entity-1="ent0013" data-entity-2="ent0002" data-link-type="dependency" data-source-line="33" id="lnk14"><path codeLine="33" d="M866.31,70.7094 C912.42,82.7594 986.74,102.1294 1051,118.6094 C1151.95,144.4994 1258.9222,171.6019 1350.6222,194.7319" fill="none" id="IdentifierComponent-to-Identifier" style="stroke:#404040;stroke-width:1.2;stroke-dasharray:7,7;"/><polygon fill="#404040" points="1356.44,196.1994,1348.6916,190.1197,1351.5918,194.9765,1346.735,197.8767,1356.44,196.1994" style="stroke:#404040;stroke-width:1.2;"/><text fill="#000000" font-family="sans-serif" font-size="13" lengthAdjust="spacing" textLength="49.1372" x="1052" y="115.1045">identifier</text></g><!--link MeasureComponent to Identifier--><g class="link" data-entity-1="ent0015" data-entity-2="ent0002" data-link-type="dependency" data-source-line="35" id="lnk16"><path codeLine="35" d="M1007.9,70.6994 C1076.73,92.9094 1225.8,141.0266 1350.61,181.3066" fill="none" id="MeasureComponent-to-Identifier" style="stroke:#404040;stroke-width:1.2;stroke-dasharray:7,7;"/><polygon fill="#404040" points="1356.32,183.1494,1348.9835,176.5785,1351.5617,181.6137,1346.5265,184.1919,1356.32,183.1494" style="stroke:#404040;stroke-width:1.2;"/><text fill="#000000" font-family="sans-serif" font-size="13" lengthAdjust="spacing" textLength="49.1372" x="1157" y="115.1045">identifier</text></g><!--link AttributeComponent to Identifier--><g class="link" data-entity-1="ent0017" data-entity-2="ent0002" data-link-type="dependency" data-source-line="37" id="lnk18"><path codeLine="37" d="M1147.46,70.6994 C1189.68,89.1794 1270.2636,124.4633 1350.9936,159.8033" fill="none" id="AttributeComponent-to-Identifier" style="stroke:#404040;stroke-width:1.2;stroke-dasharray:7,7;"/><polygon fill="#404040" points="1356.49,162.2094,1349.8494,154.936,1351.9096,160.2043,1346.6413,162.2645,1356.49,162.2094" style="stroke:#404040;stroke-width:1.2;"/><text fill="#000000" font-family="sans-serif" font-size="13" lengthAdjust="spacing" textLength="49.1372" x="1257" y="115.1045">identifier</text></g><!--link DimensionComponent to Identifier--><g class="link" data-entity-1="ent0019" data-entity-2="ent0002" data-link-type="dependency" data-source-line="39" id="lnk20"><path codeLine="39" d="M1291.92,70.8394 C1315.19,86.9694 1354.3591,114.1208 1398.9291,145.0208" fill="none" id="DimensionComponent-to-Identifier" style="stroke:#404040;stroke-width:1.2;stroke-dasharray:7,7;"/><polygon fill="#404040" points="1403.86,148.4394,1398.7427,140.0243,1399.7509,145.5906,1394.1847,146.5988,1403.86,148.4394" style="stroke:#404040;stroke-width:1.2;"/><text fill="#000000" font-family="sans-serif" font-size="13" lengthAdjust="spacing" textLength="49.1372" x="1361" y="115.1045">identifier</text></g><!--link VariableValueComponent to Identifier--><g class="link" data-entity-1="ent0021" data-entity-2="ent0002" data-link-type="dependency" data-source-line="41" id="lnk22"><path codeLine="41" d="M1450.09,70.8394 C1458.44,86.9294 1471.4855,112.0642 1487.4855,142.8842" fill="none" id="VariableValueComponent-to-Identifier" style="stroke:#404040;stroke-width:1.2;stroke-dasharray:7,7;"/><polygon fill="#404040" points="1490.25,148.2094,1489.6533,138.3786,1487.9462,143.7717,1482.5531,142.0646,1490.25,148.2094" style="stroke:#404040;stroke-width:1.2;"/><text fill="#000000" font-family="sans-serif" font-size="13" lengthAdjust="spacing" textLength="49.1372" x="1475" y="115.1045">identifier</text></g><!--link VariableDescriptorComponent to Identifier--><g class="link" data-entity-1="ent0023" data-entity-2="ent0002" data-link-type="dependency" data-source-line="43" id="lnk24"><path codeLine="43" d="M1627.91,70.8394 C1619.56,86.9294 1606.5145,112.0642 1590.5145,142.8842" fill="none" id="VariableDescriptorComponent-to-Identifier" style="stroke:#404040;stroke-width:1.2;stroke-dasharray:7,7;"/><polygon fill="#404040" points="1587.75,148.2094,1595.4469,142.0646,1590.0538,143.7717,1588.3467,138.3786,1587.75,148.2094" style="stroke:#404040;stroke-width:1.2;"/><text fill="#000000" font-family="sans-serif" font-size="13" lengthAdjust="spacing" textLength="49.1372" x="1612" y="115.1045">identifier</text></g><!--link PrimaryKey to Identifier--><g class="link" data-entity-1="ent0025" data-entity-2="ent0002" data-link-type="dependency" data-source-line="45" id="lnk26"><path codeLine="45" d="M1771.11,70.8394 C1749.25,86.9694 1712.6477,113.9766 1670.7777,144.8766" fill="none" id="PrimaryKey-to-Identifier" style="stroke:#404040;stroke-width:1.2;stroke-dasharray:7,7;"/><polygon fill="#404040" points="1665.95,148.4394,1675.5667,146.3136,1669.9731,145.4704,1670.8163,139.8767,1665.95,148.4394" style="stroke:#404040;stroke-width:1.2;"/><text fill="#000000" font-family="sans-serif" font-size="13" lengthAdjust="spacing" textLength="49.1372" x="1728" y="115.1045">identifier</text></g><!--link PrimaryKeyComponent to Identifier--><g class="link" data-entity-1="ent0027" data-entity-2="ent0002" data-link-type="dependency" data-source-line="47" id="lnk28"><path codeLine="47" d="M1896.81,70.6994 C1860.98,87.8594 1795.9712,119.0072 1727.0212,152.0372" fill="none" id="PrimaryKeyComponent-to-Identifier" style="stroke:#404040;stroke-width:1.2;stroke-dasharray:7,7;"/><polygon fill="#404040" points="1721.61,154.6294,1731.4549,154.3485,1726.1193,152.4692,1727.9986,147.1337,1721.61,154.6294" style="stroke:#404040;stroke-width:1.2;"/><text fill="#000000" font-family="sans-serif" font-size="13" lengthAdjust="spacing" textLength="49.1372" x="1829" y="115.1045">identifier</text></g><!--link ReferenceVariable to Identifier--><g class="link" data-entity-1="ent0029" data-entity-2="ent0002" data-link-type="dependency" data-source-line="49" id="lnk30"><path codeLine="49" d="M2040.13,70.6994 C1977.08,92.2594 1843.2671,138.0377 1727.4271,177.6577" fill="none" id="ReferenceVariable-to-Identifier" style="stroke:#404040;stroke-width:1.2;stroke-dasharray:7,7;"/><polygon fill="#404040" points="1721.75,179.5994,1731.5602,180.4716,1726.4809,177.9813,1728.9712,172.9021,1721.75,179.5994" style="stroke:#404040;stroke-width:1.2;"/><text fill="#000000" font-family="sans-serif" font-size="13" lengthAdjust="spacing" textLength="49.1372" x="1945" y="115.1045">identifier</text></g><!--link DescriptorVariable to Identifier--><g class="link" data-entity-1="ent0031" data-entity-2="ent0002" data-link-type="dependency" data-source-line="51" id="lnk32"><path codeLine="51" d="M2173.6,70.6894 C2131.17,82.8094 2062.47,102.3094 2003,118.6094 C1910.34,143.9994 1812.8705,170.025 1727.3205,192.655" fill="none" id="DescriptorVariable-to-Identifier" style="stroke:#404040;stroke-width:1.2;stroke-dasharray:7,7;"/><polygon fill="#404040" points="1721.52,194.1894,1731.2437,195.7548,1726.3537,192.9107,1729.1978,188.0208,1721.52,194.1894" style="stroke:#404040;stroke-width:1.2;"/><text fill="#000000" font-family="sans-serif" font-size="13" lengthAdjust="spacing" textLength="49.1372" x="2067" y="115.1045">identifier</text></g><!--link SubstantiveValueDomain to Identifier--><g class="link" data-entity-1="ent0033" data-entity-2="ent0002" data-link-type="dependency" data-source-line="53" id="lnk34"><path codeLine="53" d="M2325.66,70.6894 C2276.09,82.9794 2195.13,102.7794 2125,118.6094 C1990.24,149.0294 1843.3766,179.9385 1727.6266,203.7885" fill="none" id="SubstantiveValueDomain-to-Identifier" style="stroke:#404040;stroke-width:1.2;stroke-dasharray:7,7;"/><polygon fill="#404040" points="1721.75,204.9994,1731.3721,207.1008,1726.6471,203.9903,1729.7576,199.2654,1721.75,204.9994" style="stroke:#404040;stroke-width:1.2;"/><text fill="#000000" font-family="sans-serif" font-size="13" lengthAdjust="spacing" textLength="49.1372" x="2200" y="115.1045">identifier</text></g><!--link SentinelValueDomain to Identifier--><g class="link" data-entity-1="ent0035" data-entity-2="ent0002" data-link-type="dependency" data-source-line="55" id="lnk36"><path codeLine="55" d="M2486.77,70.6294 C2430.72,83.0794 2338.16,103.2094 2258,118.6094 C2076.09,153.5494 1873.2909,187.8982 1727.7609,211.7682" fill="none" id="SentinelValueDomain-to-Identifier" style="stroke:#404040;stroke-width:1.2;stroke-dasharray:7,7;"/><polygon fill="#404040" points="1721.84,212.7394,1731.3688,215.2299,1726.7741,211.9301,1730.0739,207.3354,1721.84,212.7394" style="stroke:#404040;stroke-width:1.2;"/><text fill="#000000" font-family="sans-serif" font-size="13" lengthAdjust="spacing" textLength="49.1372" x="2343" y="115.1045">identifier</text></g><!--link DescriptorValueDomain to Identifier--><g class="link" data-entity-1="ent0037" data-entity-2="ent0002" data-link-type="dependency" data-source-line="57" id="lnk38"><path codeLine="57" d="M2646.69,70.6194 C2587.01,83.2994 2487.34,103.8494 2401,118.6094 C2167.41,158.5494 1902.6489,195.0983 1727.8489,218.0483" fill="none" id="DescriptorValueDomain-to-Identifier" style="stroke:#404040;stroke-width:1.2;stroke-dasharray:7,7;"/><polygon fill="#404040" points="1721.9,218.8294,1731.3441,221.6238,1726.8575,218.1785,1730.3027,213.6918,1721.9,218.8294" style="stroke:#404040;stroke-width:1.2;"/><text fill="#000000" font-family="sans-serif" font-size="13" lengthAdjust="spacing" textLength="49.1372" x="2492" y="115.1045">identifier</text></g><!--link EnumerationDomain to Identifier--><g class="link" data-entity-1="ent0039" data-entity-2="ent0002" data-link-type="dependency" data-source-line="59" id="lnk40"><path codeLine="59" d="M2805.05,70.6594 C2743.54,83.5694 2639.86,104.4894 2550,118.6094 C2261.56,163.9394 1930.5568,201.5491 1727.6668,222.9791" fill="none" id="EnumerationDomain-to-Identifier" style="stroke:#404040;stroke-width:1.2;stroke-dasharray:7,7;"/><polygon fill="#404040" points="1721.7,223.6094,1731.0704,226.6419,1726.6723,223.0842,1730.2301,218.6861,1721.7,223.6094" style="stroke:#404040;stroke-width:1.2;"/><text fill="#000000" font-family="sans-serif" font-size="13" lengthAdjust="spacing" textLength="49.1372" x="2653" y="115.1045">identifier</text></g><!--link Statistic to Identifier--><g class="link" data-entity-1="ent0041" data-entity-2="ent0002" data-link-type="dependency" data-source-line="61" id="lnk42"><path codeLine="61" d="M2951.63,66.0294 C2945.87,67.5994 2939.73,69.2094 2934,70.6094 C2835.52,94.6694 2811.11,102.6094 2711,118.6094 C2363.12,174.2094 1958.9818,210.4222 1727.7318,228.4822" fill="none" id="Statistic-to-Identifier" style="stroke:#404040;stroke-width:1.2;stroke-dasharray:7,7;"/><polygon fill="#404040" points="1721.75,228.9494,1731.0341,232.2365,1726.7348,228.5601,1730.4112,224.2608,1721.75,228.9494" style="stroke:#404040;stroke-width:1.2;"/><text fill="#000000" font-family="sans-serif" font-size="13" lengthAdjust="spacing" textLength="49.1372" x="2809" y="115.1045">identifier</text></g><?plantuml-src bPRBRjim44Nt-WeYthM0KQVj9WWCk94367qWS1uj47H1IMDx48fqIIg1MkJVGr4szI1TIFQ6l7SuPpYSXJHg1cIL0TUuGP3H3ZCWASgKGRs6VAzBaaEUW5IHUaA-fvBcHEre9bwGRyc6CWKjPo6bUBdROVh4GIaocvwtp9HHe_sBI1rs9PYGPFBfG_KtuXSXCv1zzLfmVOj_WSpEezSegdESDLMV4QfQbo2NbndLzAxSmtnE9jUBvUVuesM-pp9inLsG5TSWETKeE6LhsABIqkvYaw0L-JZxNHr75RSJt9YMc1DcQr8bGZ2W_4JeFSTd4qqPAytoJm7-2MwelV9-zAN7sNJwpaON4at0BvKjU7blreSa5QGk7shRhhhc-d3VAiAjOzWWnshJZmQr5rnXWWpD95oGnTQKi-9hKxmDVJq-IDMpMosBL1SIx9jq539Psb_KLQVJEUbS6fjfF2J-QIG_kQSwWEyCW7mJVEj3FDL1V6S09COSkB8T3tJhXDaqxbJ047Bxm9N8pPkQ4F-Ld1L-hiOUm6piBZ2WErh86u3w3bHv5-kB3k8P0mWBhIKcXUunVDbH0jQO4UazaYVxOp6Ayq0bqeJ10sL5xqvXo_5Es2EOCQXKubuB6GO7V8yUYXbGmet4dChoAvIMs6mTe2MDojUzIa0F44QLleODIE0f75jWGPxgCBupPFnSMpiKNsx6pxS6S6wBH6bgnETwZcAHK-IM5ROSxuGzX5a979W7zFM65l16jh4B2ph1Peu2BdcHm-7RfO5vgWFvpf06QdD0QKphjXrtJRESyhzaRm00?></g></svg>