<svg xmlns="http://www.w3.org/2000/svg" xmlns:xlink="http://www.w3.org/1999/xlink" contentStyleType="text/css" data-diagram-type="CLASS" height="352px" preserveAspectRatio="none" style="width:2931px;height:352px;background:#FFFFFF;" version="1.1" viewBox="0 0 2931 352" width="2931px" zoomAndPan="magnify"><?plantuml 1.2026.3?><defs/><g><g class="title" data-source-line="1"><text fill="#000000" font-family="sans-serif" font-size="14" font-weight="700" lengthAdjust="spacing" textLength="59.1172" x="1432.8857" y="24.5332">Identifier</text></g><!--class Identifier--><g class="entity" data-qualified-name="Identifier" data-source-line="12" id="ent0002"><rect fill="#FAE5D3" height="189.0625" rx="2.5" ry="2.5" style="stroke:#404040;stroke-width:0.5;" width="364.5293" x="1261.5" y="148.6094"/><text fill="#000000" font-family="sans-serif" font-size="12" font-style="italic" lengthAdjust="spacing" textLength="63.3809" x="1412.0742" y="166.0664">&#171;dataType&#187;</text><text fill="#000000" font-family="sans-serif" font-size="12" lengthAdjust="spacing" textLength="46.0254" x="1420.752" y="181.1602">Identifier</text><line style="stroke:#404040;stroke-width:0.5;" x1="1262.5" x2="1625.0293" y1="188.7969" y2="188.7969"/><g data-visibility-modifier="PUBLIC_FIELD"><ellipse cx="1272.5" cy="203.1016" fill="none" rx="3" ry="3" style="stroke:#038048;stroke-width:1;"/></g><text fill="#000000" font-family="sans-serif" font-size="14" lengthAdjust="spacing" textLength="338.5293" x="1281.5" y="207.3301">ddiIdentifier : InternationalRegistrationDataIdentifier [1]</text><g data-visibility-modifier="PUBLIC_FIELD"><ellipse cx="1272.5" cy="220.7109" fill="none" rx="3" ry="3" style="stroke:#038048;stroke-width:1;"/></g><text fill="#000000" font-family="sans-serif" font-size="14" lengthAdjust="spacing" textLength="228.0127" x="1281.5" y="224.9395">isDdiIdentifierPersistent : boolean [1]</text><g data-visibility-modifier="PUBLIC_FIELD"><ellipse cx="1272.5" cy="238.3203" fill="none" rx="3" ry="3" style="stroke:#038048;stroke-width:1;"/></g><text fill="#000000" font-family="sans-serif" font-size="14" lengthAdjust="spacing" textLength="278.5918" x="1281.5" y="242.5488">isDdiIdentifierUniversallyUnique : boolean [1]</text><g data-visibility-modifier="PUBLIC_FIELD"><ellipse cx="1272.5" cy="255.9297" fill="none" rx="3" ry="3" style="stroke:#038048;stroke-width:1;"/></g><text fill="#000000" font-family="sans-serif" font-size="14" lengthAdjust="spacing" textLength="242.7988" x="1281.5" y="260.1582">nonDdiIdentifier : NonDdiIdentifier [1..*]</text><g data-visibility-modifier="PUBLIC_FIELD"><ellipse cx="1272.5" cy="273.5391" fill="none" rx="3" ry="3" style="stroke:#038048;stroke-width:1;"/></g><text fill="#000000" font-family="sans-serif" font-size="14" lengthAdjust="spacing" textLength="112.8135" x="1281.5" y="277.7676">uri : XsdAnyUri [1]</text><g data-visibility-modifier="PUBLIC_FIELD"><ellipse cx="1272.5" cy="291.1484" fill="none" rx="3" ry="3" style="stroke:#038048;stroke-width:1;"/></g><text fill="#000000" font-family="sans-serif" font-size="14" lengthAdjust="spacing" textLength="159.5234" x="1281.5" y="295.377">versionDate : XsdDate [1]</text><g data-visibility-modifier="PUBLIC_FIELD"><ellipse cx="1272.5" cy="308.7578" fill="none" rx="3" ry="3" style="stroke:#038048;stroke-width:1;"/></g><text fill="#000000" font-family="sans-serif" font-size="14" lengthAdjust="spacing" textLength="252.9229" x="1281.5" y="312.9863">versionRationale : RationaleDefinition [1]</text><g data-visibility-modifier="PUBLIC_FIELD"><ellipse cx="1272.5" cy="326.3672" fill="none" rx="3" ry="3" style="stroke:#038048;stroke-width:1;"/></g><text fill="#000000" font-family="sans-serif" font-size="14" lengthAdjust="spacing" textLength="239.6816" x="1281.5" y="330.5957">versionResponsibility : AgentInRole [1]</text></g><!--class DataStructure--><g class="entity" data-qualified-name="DataStructure" data-source-line="22" id="ent0003"><rect fill="#EEEEEE" height="25.0938" rx="2.5" ry="2.5" style="stroke:#404040;stroke-width:0.5;" width="80.0332" x="7" y="45.6094"/><text fill="#000000" font-family="sans-serif" font-size="12" lengthAdjust="spacing" textLength="74.0332" x="10" y="63.0664">DataStructure</text></g><!--class WideDataStructure--><g class="entity" data-qualified-name="WideDataStructure" data-source-line="24" id="ent0005"><rect fill="#EEEEEE" height="25.0938" rx="2.5" ry="2.5" style="stroke:#404040;stroke-width:0.5;" width="107.373" x="122.5" y="45.6094"/><text fill="#000000" font-family="sans-serif" font-size="12" lengthAdjust="spacing" textLength="101.373" x="125.5" y="63.0664">WideDataStructure</text></g><!--class LongDataStructure--><g class="entity" data-qualified-name="LongDataStructure" data-source-line="26" id="ent0007"><rect fill="#EEEEEE" height="25.0938" rx="2.5" ry="2.5" style="stroke:#404040;stroke-width:0.5;" width="106.7285" x="264.5" y="45.6094"/><text fill="#000000" font-family="sans-serif" font-size="12" lengthAdjust="spacing" textLength="100.7285" x="267.5" y="63.0664">LongDataStructure</text></g><!--class DimensionalDataStructure--><g class="entity" data-qualified-name="DimensionalDataStructure" data-source-line="28" id="ent0009"><rect fill="#EEEEEE" height="25.0938" rx="2.5" ry="2.5" style="stroke:#404040;stroke-width:0.5;" width="146.0625" x="407" y="45.6094"/><text fill="#000000" font-family="sans-serif" font-size="12" lengthAdjust="spacing" textLength="140.0625" x="410" y="63.0664">DimensionalDataStructure</text></g><!--class DataStructureComponent--><g class="entity" data-qualified-name="DataStructureComponent" data-source-line="30" id="ent0011"><rect fill="#EEEEEE" height="25.0938" rx="2.5" ry="2.5" style="stroke:#404040;stroke-width:0.5;" width="142.0723" x="588" y="45.6094"/><text fill="#000000" font-family="sans-serif" font-size="12" lengthAdjust="spacing" textLength="136.0723" x="591" y="63.0664">DataStructureComponent</text></g><!--class IdentifierComponent--><g class="entity" data-qualified-name="IdentifierComponent" data-source-line="32" id="ent0013"><rect fill="#EEEEEE" height="25.0938" rx="2.5" ry="2.5" style="stroke:#404040;stroke-width:0.5;" width="114.0645" x="765" y="45.6094"/><text fill="#000000" font-family="sans-serif" font-size="12" lengthAdjust="spacing" textLength="108.0645" x="768" y="63.0664">IdentifierComponent</text></g><!--class MeasureComponent--><g class="entity" data-qualified-name="MeasureComponent" data-source-line="34" id="ent0015"><rect fill="#EEEEEE" height="25.0938" rx="2.5" ry="2.5" style="stroke:#404040;stroke-width:0.5;" width="114.7266" x="914.5" y="45.6094"/><text fill="#000000" font-family="sans-serif" font-size="12" lengthAdjust="spacing" textLength="108.7266" x="917.5" y="63.0664">MeasureComponent</text></g><!--class AttributeComponent--><g class="entity" data-qualified-name="AttributeComponent" data-source-line="36" id="ent0017"><rect fill="#EEEEEE" height="25.0938" rx="2.5" ry="2.5" style="stroke:#404040;stroke-width:0.5;" width="112.7285" x="1064.5" y="45.6094"/><text fill="#000000" font-family="sans-serif" font-size="12" lengthAdjust="spacing" textLength="106.7285" x="1067.5" y="63.0664">AttributeComponent</text></g><!--class DimensionComponent--><g class="entity" data-qualified-name="DimensionComponent" data-source-line="38" id="ent0019"><rect fill="#EEEEEE" height="25.0938" rx="2.5" ry="2.5" style="stroke:#404040;stroke-width:0.5;" width="124.7285" x="1212.5" y="45.6094"/><text fill="#000000" font-family="sans-serif" font-size="12" lengthAdjust="spacing" textLength="118.7285" x="1215.5" y="63.0664">DimensionComponent</text></g><!--class VariableValueComponent--><g class="entity" data-qualified-name="VariableValueComponent" data-source-line="40" id="ent0021"><rect fill="#EEEEEE" height="25.0938" rx="2.5" ry="2.5" style="stroke:#404040;stroke-width:0.5;" width="142.7578" x="1372.5" y="45.6094"/><text fill="#000000" font-family="sans-serif" font-size="12" lengthAdjust="spacing" textLength="136.7578" x="1375.5" y="63.0664">VariableValueComponent</text></g><!--class VariableDescriptorComponent--><g class="entity" data-qualified-name="VariableDescriptorComponent" data-source-line="42" id="ent0023"><rect fill="#EEEEEE" height="25.0938" rx="2.5" ry="2.5" style="stroke:#404040;stroke-width:0.5;" width="166.7461" x="1550.5" y="45.6094"/><text fill="#000000" font-family="sans-serif" font-size="12" lengthAdjust="spacing" textLength="160.7461" x="1553.5" y="63.0664">VariableDescriptorComponent</text></g><!--class PrimaryKey--><g class="entity" data-qualified-name="PrimaryKey" data-source-line="44" id="ent0025"><rect fill="#EEEEEE" height="25.0938" rx="2.5" ry="2.5" style="stroke:#404040;stroke-width:0.5;" width="68.0098" x="1753" y="45.6094"/><text fill="#000000" font-family="sans-serif" font-size="12" lengthAdjust="spacing" textLength="62.0098" x="1756" y="63.0664">PrimaryKey</text></g><!--class PrimaryKeyComponent--><g class="entity" data-qualified-name="PrimaryKeyComponent" data-source-line="46" id="ent0027"><rect fill="#EEEEEE" height="25.0938" rx="2.5" ry="2.5" style="stroke:#404040;stroke-width:0.5;" width="130.0488" x="1856" y="45.6094"/><text fill="#000000" font-family="sans-serif" font-size="12" lengthAdjust="spacing" textLength="124.0488" x="1859" y="63.0664">PrimaryKeyComponent</text></g><!--class ReferenceVariable--><g class="entity" data-qualified-name="ReferenceVariable" data-source-line="48" id="ent0029"><rect fill="#EEEEEE" height="25.0938" rx="2.5" ry="2.5" style="stroke:#404040;stroke-width:0.5;" width="105.3926" x="2021.5" y="45.6094"/><text fill="#000000" font-family="sans-serif" font-size="12" lengthAdjust="spacing" textLength="99.3926" x="2024.5" y="63.0664">ReferenceVariable</text></g><!--class DescriptorVariable--><g class="entity" data-qualified-name="DescriptorVariable" data-source-line="50" id="ent0031"><rect fill="#EEEEEE" height="25.0938" rx="2.5" ry="2.5" style="stroke:#404040;stroke-width:0.5;" width="104.707" x="2161.5" y="45.6094"/><text fill="#000000" font-family="sans-serif" font-size="12" lengthAdjust="spacing" textLength="98.707" x="2164.5" y="63.0664">DescriptorVariable</text></g><!--class SubstantiveValueDomain--><g class="entity" data-qualified-name="SubstantiveValueDomain" data-source-line="52" id="ent0033"><rect fill="#EEEEEE" height="25.0938" rx="2.5" ry="2.5" style="stroke:#404040;stroke-width:0.5;" width="140.748" x="2301.5" y="45.6094"/><text fill="#000000" font-family="sans-serif" font-size="12" lengthAdjust="spacing" textLength="134.748" x="2304.5" y="63.0664">SubstantiveValueDomain</text></g><!--class SentinelValueDomain--><g class="entity" data-qualified-name="SentinelValueDomain" data-source-line="54" id="ent0035"><rect fill="#EEEEEE" height="25.0938" rx="2.5" ry="2.5" style="stroke:#404040;stroke-width:0.5;" width="121.4063" x="2477.5" y="45.6094"/><text fill="#000000" font-family="sans-serif" font-size="12" lengthAdjust="spacing" textLength="115.4063" x="2480.5" y="63.0664">SentinelValueDomain</text></g><!--class DescriptorValueDomain--><g class="entity" data-qualified-name="DescriptorValueDomain" data-source-line="56" id="ent0037"><rect fill="#EEEEEE" height="25.0938" rx="2.5" ry="2.5" style="stroke:#404040;stroke-width:0.5;" width="132.7207" x="2633.5" y="45.6094"/><text fill="#000000" font-family="sans-serif" font-size="12" lengthAdjust="spacing" textLength="126.7207" x="2636.5" y="63.0664">DescriptorValueDomain</text></g><!--class EnumerationDomain--><g class="entity" data-qualified-name="EnumerationDomain" data-source-line="58" id="ent0039"><rect fill="#EEEEEE" height="25.0938" rx="2.5" ry="2.5" style="stroke:#404040;stroke-width:0.5;" width="115.3887" x="2801.5" y="45.6094"/><text fill="#000000" font-family="sans-serif" font-size="12" lengthAdjust="spacing" textLength="109.3887" x="2804.5" y="63.0664">EnumerationDomain</text></g><!--link DataStructure to Identifier--><g class="link" data-entity-1="ent0003" data-entity-2="ent0002" data-link-type="dependency" data-source-line="23" id="lnk4"><path codeLine="23" d="M87.14,69.3294 C139.82,82.4294 235.29,105.0294 318,118.6094 C648.63,172.8794 1031.9305,209.114 1255.3505,227.624" fill="none" id="DataStructure-to-Identifier" style="stroke:#404040;stroke-width:1.2;stroke-dasharray:7,7;"/><polygon fill="#404040" points="1261.33,228.1194,1252.691,223.3899,1256.3471,227.7065,1252.0305,231.3626,1261.33,228.1194" style="stroke:#404040;stroke-width:1.2;"/><text fill="#000000" font-family="sans-serif" font-size="13" lengthAdjust="spacing" textLength="49.1372" x="319" y="115.1045">identifier</text></g><!--link WideDataStructure to Identifier--><g class="link" data-entity-1="ent0005" data-entity-2="ent0002" data-link-type="dependency" data-source-line="25" id="lnk6"><path codeLine="25" d="M228.37,70.6294 C288.08,83.5094 388.74,104.4094 476,118.6094 C748.56,162.9694 1060.5068,200.2455 1255.5168,221.9555" fill="none" id="WideDataStructure-to-Identifier" style="stroke:#404040;stroke-width:1.2;stroke-dasharray:7,7;"/><polygon fill="#404040" points="1261.48,222.6194,1252.9778,217.6481,1256.5107,222.0662,1252.0927,225.599,1261.48,222.6194" style="stroke:#404040;stroke-width:1.2;"/><text fill="#000000" font-family="sans-serif" font-size="13" lengthAdjust="spacing" textLength="49.1372" x="477" y="115.1045">identifier</text></g><!--link LongDataStructure to Identifier--><g class="link" data-entity-1="ent0007" data-entity-2="ent0002" data-link-type="dependency" data-source-line="27" id="lnk8"><path codeLine="27" d="M371.54,70.0094 C433.42,82.4494 538.38,103.0794 629,118.6094 C845.69,155.7394 1089.8706,191.9286 1255.2606,215.6186" fill="none" id="LongDataStructure-to-Identifier" style="stroke:#404040;stroke-width:1.2;stroke-dasharray:7,7;"/><polygon fill="#404040" points="1261.2,216.4694,1252.8581,211.2337,1256.2505,215.7604,1251.7238,219.1529,1261.2,216.4694" style="stroke:#404040;stroke-width:1.2;"/><text fill="#000000" font-family="sans-serif" font-size="13" lengthAdjust="spacing" textLength="49.1372" x="630" y="115.1045">identifier</text></g><!--link DimensionalDataStructure to Identifier--><g class="link" data-entity-1="ent0009" data-entity-2="ent0002" data-link-type="dependency" data-source-line="29" id="lnk10"><path codeLine="29" d="M536.53,70.6394 C596.43,82.7994 693.82,102.3994 778,118.6094 C941.25,150.0394 1121.4079,183.3397 1255.2879,207.8297" fill="none" id="DimensionalDataStructure-to-Identifier" style="stroke:#404040;stroke-width:1.2;stroke-dasharray:7,7;"/><polygon fill="#404040" points="1261.19,208.9094,1253.0567,203.3552,1256.2716,208.0097,1251.6171,211.2246,1261.19,208.9094" style="stroke:#404040;stroke-width:1.2;"/><text fill="#000000" font-family="sans-serif" font-size="13" lengthAdjust="spacing" textLength="49.1372" x="779" y="115.1045">identifier</text></g><!--link DataStructureComponent to Identifier--><g class="link" data-entity-1="ent0011" data-entity-2="ent0002" data-link-type="dependency" data-source-line="31" id="lnk12"><path codeLine="31" d="M708.36,70.6294 C759.73,82.6194 842.5,101.9394 914,118.6094 C1029.47,145.5394 1153.2565,174.378 1255.4165,198.178" fill="none" id="DataStructureComponent-to-Identifier" style="stroke:#404040;stroke-width:1.2;stroke-dasharray:7,7;"/><polygon fill="#404040" points="1261.26,199.5394,1253.4023,193.6017,1256.3904,198.4049,1251.5872,201.393,1261.26,199.5394" style="stroke:#404040;stroke-width:1.2;"/><text fill="#000000" font-family="sans-serif" font-size="13" lengthAdjust="spacing" textLength="49.1372" x="915" y="115.1045">identifier</text></g><!--link IdentifierComponent to Identifier--><g class="link" data-entity-1="ent0013" data-entity-2="ent0002" data-link-type="dependency" data-source-line="33" id="lnk14"><path codeLine="33" d="M861.38,70.6994 C940.16,93.8694 1115.8139,145.5559 1255.4439,186.6359" fill="none" id="IdentifierComponent-to-Identifier" style="stroke:#404040;stroke-width:1.2;stroke-dasharray:7,7;"/><polygon fill="#404040" points="1261.2,188.3294,1253.6949,181.9518,1256.4033,186.9182,1251.4369,189.6265,1261.2,188.3294" style="stroke:#404040;stroke-width:1.2;"/><text fill="#000000" font-family="sans-serif" font-size="13" lengthAdjust="spacing" textLength="49.1372" x="1025" y="115.1045">identifier</text></g><!--link MeasureComponent to Identifier--><g class="link" data-entity-1="ent0015" data-entity-2="ent0002" data-link-type="dependency" data-source-line="35" id="lnk16"><path codeLine="35" d="M1001.88,70.6994 C1053.66,90.7694 1158.2657,131.3305 1255.6857,169.1005" fill="none" id="MeasureComponent-to-Identifier" style="stroke:#404040;stroke-width:1.2;stroke-dasharray:7,7;"/><polygon fill="#404040" points="1261.28,171.2694,1254.3345,164.2865,1256.6181,169.4619,1251.4427,171.7455,1261.28,171.2694" style="stroke:#404040;stroke-width:1.2;"/><text fill="#000000" font-family="sans-serif" font-size="13" lengthAdjust="spacing" textLength="49.1372" x="1126" y="115.1045">identifier</text></g><!--link AttributeComponent to Identifier--><g class="link" data-entity-1="ent0017" data-entity-2="ent0002" data-link-type="dependency" data-source-line="37" id="lnk18"><path codeLine="37" d="M1141.7,70.8394 C1170.17,86.9694 1218.9099,114.5813 1273.4399,145.4813" fill="none" id="AttributeComponent-to-Identifier" style="stroke:#404040;stroke-width:1.2;stroke-dasharray:7,7;"/><polygon fill="#404040" points="1278.66,148.4394,1272.8018,140.5222,1274.3099,145.9743,1268.8577,147.4824,1278.66,148.4394" style="stroke:#404040;stroke-width:1.2;"/><text fill="#000000" font-family="sans-serif" font-size="13" lengthAdjust="spacing" textLength="49.1372" x="1226" y="115.1045">identifier</text></g><!--link DimensionComponent to Identifier--><g class="link" data-entity-1="ent0019" data-entity-2="ent0002" data-link-type="dependency" data-source-line="39" id="lnk20"><path codeLine="39" d="M1285.83,70.8394 C1300.69,86.9294 1324.7495,112.9813 1353.2095,143.8013" fill="none" id="DimensionComponent-to-Identifier" style="stroke:#404040;stroke-width:1.2;stroke-dasharray:7,7;"/><polygon fill="#404040" points="1357.28,148.2094,1354.1129,138.8836,1353.8879,144.536,1348.2355,144.311,1357.28,148.2094" style="stroke:#404040;stroke-width:1.2;"/><text fill="#000000" font-family="sans-serif" font-size="13" lengthAdjust="spacing" textLength="49.1372" x="1330" y="115.1045">identifier</text></g><!--link VariableValueComponent to Identifier--><g class="link" data-entity-1="ent0021" data-entity-2="ent0002" data-link-type="dependency" data-source-line="41" id="lnk22"><path codeLine="41" d="M1444,70.8394 C1444,86.9294 1444,111.3894 1444,142.2094" fill="none" id="VariableValueComponent-to-Identifier" style="stroke:#404040;stroke-width:1.2;stroke-dasharray:7,7;"/><polygon fill="#404040" points="1444,148.2094,1448,139.2094,1444,143.2094,1440,139.2094,1444,148.2094" style="stroke:#404040;stroke-width:1.2;"/><text fill="#000000" font-family="sans-serif" font-size="13" lengthAdjust="spacing" textLength="49.1372" x="1445" y="115.1045">identifier</text></g><!--link VariableDescriptorComponent to Identifier--><g class="link" data-entity-1="ent0023" data-entity-2="ent0002" data-link-type="dependency" data-source-line="43" id="lnk24"><path codeLine="43" d="M1621.83,70.8394 C1605.12,86.9294 1577.8116,113.2272 1545.8116,144.0472" fill="none" id="VariableDescriptorComponent-to-Identifier" style="stroke:#404040;stroke-width:1.2;stroke-dasharray:7,7;"/><polygon fill="#404040" points="1541.49,148.2094,1550.7472,144.8471,1545.0913,144.7409,1545.1975,139.085,1541.49,148.2094" style="stroke:#404040;stroke-width:1.2;"/><text fill="#000000" font-family="sans-serif" font-size="13" lengthAdjust="spacing" textLength="49.1372" x="1589" y="115.1045">identifier</text></g><!--link PrimaryKey to Identifier--><g class="link" data-entity-1="ent0025" data-entity-2="ent0002" data-link-type="dependency" data-source-line="45" id="lnk26"><path codeLine="45" d="M1765.28,70.6994 C1735.09,86.7994 1682.8636,114.6649 1624.7436,145.6749" fill="none" id="PrimaryKey-to-Identifier" style="stroke:#404040;stroke-width:1.2;stroke-dasharray:7,7;"/><polygon fill="#404040" points="1619.45,148.4994,1629.2734,147.7918,1623.8614,146.1457,1625.5075,140.7336,1619.45,148.4994" style="stroke:#404040;stroke-width:1.2;"/><text fill="#000000" font-family="sans-serif" font-size="13" lengthAdjust="spacing" textLength="49.1372" x="1705" y="115.1045">identifier</text></g><!--link PrimaryKeyComponent to Identifier--><g class="link" data-entity-1="ent0027" data-entity-2="ent0002" data-link-type="dependency" data-source-line="47" id="lnk28"><path codeLine="47" d="M1890.8,70.6994 C1838.12,90.9094 1731.1819,131.9301 1632.2419,169.8901" fill="none" id="PrimaryKeyComponent-to-Identifier" style="stroke:#404040;stroke-width:1.2;stroke-dasharray:7,7;"/><polygon fill="#404040" points="1626.64,172.0394,1636.4756,172.5501,1631.3082,170.2483,1633.6099,165.0809,1626.64,172.0394" style="stroke:#404040;stroke-width:1.2;"/><text fill="#000000" font-family="sans-serif" font-size="13" lengthAdjust="spacing" textLength="49.1372" x="1806" y="115.1045">identifier</text></g><!--link ReferenceVariable to Identifier--><g class="link" data-entity-1="ent0029" data-entity-2="ent0002" data-link-type="dependency" data-source-line="49" id="lnk30"><path codeLine="49" d="M2034.11,70.6994 C1953.85,94.0094 1774.1518,146.2055 1632.4018,187.3855" fill="none" id="ReferenceVariable-to-Identifier" style="stroke:#404040;stroke-width:1.2;stroke-dasharray:7,7;"/><polygon fill="#404040" points="1626.64,189.0594,1636.3986,190.3898,1631.4415,187.6645,1634.1668,182.7074,1626.64,189.0594" style="stroke:#404040;stroke-width:1.2;"/><text fill="#000000" font-family="sans-serif" font-size="13" lengthAdjust="spacing" textLength="49.1372" x="1922" y="115.1045">identifier</text></g><!--link DescriptorVariable to Identifier--><g class="link" data-entity-1="ent0031" data-entity-2="ent0002" data-link-type="dependency" data-source-line="51" id="lnk32"><path codeLine="51" d="M2169.65,70.6994 C2122.64,82.9194 2046.2,102.5694 1980,118.6094 C1862.6,147.0594 1736.1911,176.2208 1632.4311,199.7808" fill="none" id="DescriptorVariable-to-Identifier" style="stroke:#404040;stroke-width:1.2;stroke-dasharray:7,7;"/><polygon fill="#404040" points="1626.58,201.1094,1636.2423,203.0172,1631.4559,200.0022,1634.4709,195.2158,1626.58,201.1094" style="stroke:#404040;stroke-width:1.2;"/><text fill="#000000" font-family="sans-serif" font-size="13" lengthAdjust="spacing" textLength="49.1372" x="2051" y="115.1045">identifier</text></g><!--link SubstantiveValueDomain to Identifier--><g class="link" data-entity-1="ent0033" data-entity-2="ent0002" data-link-type="dependency" data-source-line="53" id="lnk34"><path codeLine="53" d="M2323.65,70.6394 C2270.98,83.0594 2184.2,103.1294 2109,118.6094 C1946.4,152.0894 1766.4866,185.1948 1632.6866,209.0848" fill="none" id="SubstantiveValueDomain-to-Identifier" style="stroke:#404040;stroke-width:1.2;stroke-dasharray:7,7;"/><polygon fill="#404040" points="1626.78,210.1394,1636.343,212.4952,1631.7022,209.2605,1634.9368,204.6197,1626.78,210.1394" style="stroke:#404040;stroke-width:1.2;"/><text fill="#000000" font-family="sans-serif" font-size="13" lengthAdjust="spacing" textLength="49.1372" x="2189" y="115.1045">identifier</text></g><!--link SentinelValueDomain to Identifier--><g class="link" data-entity-1="ent0035" data-entity-2="ent0002" data-link-type="dependency" data-source-line="55" id="lnk36"><path codeLine="55" d="M2485.58,70.6394 C2427.43,83.2294 2330.75,103.6194 2247,118.6094 C2034.75,156.6094 1795.5793,192.408 1632.5393,215.778" fill="none" id="SentinelValueDomain-to-Identifier" style="stroke:#404040;stroke-width:1.2;stroke-dasharray:7,7;"/><polygon fill="#404040" points="1626.6,216.6294,1636.0765,219.3119,1631.5494,215.9199,1634.9414,211.3928,1626.6,216.6294" style="stroke:#404040;stroke-width:1.2;"/><text fill="#000000" font-family="sans-serif" font-size="13" lengthAdjust="spacing" textLength="49.1372" x="2336" y="115.1045">identifier</text></g><!--link DescriptorValueDomain to Identifier--><g class="link" data-entity-1="ent0037" data-entity-2="ent0002" data-link-type="dependency" data-source-line="57" id="lnk38"><path codeLine="57" d="M2646.29,70.6094 C2585.33,83.4194 2482.82,104.2194 2394,118.6094 C2128.03,161.7094 1824.2105,199.032 1632.5805,221.132" fill="none" id="DescriptorValueDomain-to-Identifier" style="stroke:#404040;stroke-width:1.2;stroke-dasharray:7,7;"/><polygon fill="#404040" points="1626.62,221.8194,1636.019,224.7619,1631.5871,221.2465,1635.1025,216.8146,1626.62,221.8194" style="stroke:#404040;stroke-width:1.2;"/><text fill="#000000" font-family="sans-serif" font-size="13" lengthAdjust="spacing" textLength="49.1372" x="2496" y="115.1045">identifier</text></g><!--link EnumerationDomain to Identifier--><g class="link" data-entity-1="ent0039" data-entity-2="ent0002" data-link-type="dependency" data-source-line="59" id="lnk40"><path codeLine="59" d="M2806.88,70.6294 C2746.33,83.6894 2643.33,104.9494 2554,118.6094 C2228.88,168.3194 1853.2554,205.8368 1632.7554,225.8568" fill="none" id="EnumerationDomain-to-Identifier" style="stroke:#404040;stroke-width:1.2;stroke-dasharray:7,7;"/><polygon fill="#404040" points="1626.78,226.3994,1636.1048,229.5692,1631.7595,225.9473,1635.3814,221.602,1626.78,226.3994" style="stroke:#404040;stroke-width:1.2;"/><text fill="#000000" font-family="sans-serif" font-size="13" lengthAdjust="spacing" textLength="49.1372" x="2656" y="115.1045">identifier</text></g><?plantuml-src bPRBRjim44Nt-WeYthM0KQVj9WWCk94367qWi9EqGD059OtjGIZI9Qa4Qf5_3qKvr8Dq8TaRyjxXdE5m5jAe6P1L1bpZ5a56Uyo0f2XJ1lKQyeCkIGvv0b95wX7vWKgQ4xMdcNX6lYDRoXIqd8MKulbsZ-aZ1wN8R7hUCbD6ZVOl8dNObM12aicd3zNVY5-4p43srMl1zGR_0fcTHozHLESuQwe-8rIrBa4kBpEgwMrvWFcSJAuNoy_nHyjydsNOYhiWAwv1SgfHSChMi4EbfTt59a4hyc7skpgEAcudk34jCIVCrgHAX610-OdGEuvF9feoLfhbdmBy4znGU-Nzw4iFi-dqdOqk99g0NofRyFBEh8z9AaXTFjIsNNNDzV6-LOHRnx15ZjMc7mtg8BZ211cQIRWWYvqfPyNNfdWR-lBs85NFDbeMgIuas3VfA6IojB-egqwdSzAvD3RJU4pyqqX-Sazr0DyP0Fac-Cw7UAg3-Cu0I8mvS6Kx7kZM2RDftAc08UJsWIkHcpSr8VuhEIlyN8qzWDdONM10TxIGDm3r7QZoBjON7SGp1X0MMajC2jrZ-BAZ1Amn8z9x94_sns8KvvvAf0c3UygAtft2bkETi4SmOr2fn8CMCWmE-1uz53EWX1k9EPNbLoWjiTawG4iQbQzxbO0U88mgVGrRaC1JU6k11Ncgm_ZEaF5pRUrGVBaPFzyQmDaKYTBKY4_r7CKYfyWjAsmvtWbx2BCIE30FwEiDBU2DR6CN5dI2pHm5NF8YX-EtImFpL0VodVz1NW40?></g></svg>