<svg xmlns="http://www.w3.org/2000/svg" xmlns:xlink="http://www.w3.org/1999/xlink" contentStyleType="text/css" data-diagram-type="CLASS" height="202px" preserveAspectRatio="none" style="width:2164px;height:202px;background:#FFFFFF;" version="1.1" viewBox="0 0 2164 202" width="2164px" zoomAndPan="magnify"><?plantuml 1.2026.3?><defs/><g><g class="title" data-source-line="1"><text fill="#000000" font-family="sans-serif" font-size="14" font-weight="700" lengthAdjust="spacing" textLength="71.5723" x="1042.9863" y="24.5332">XsdAnyUri</text></g><!--class XsdAnyUri--><g class="entity" data-qualified-name="XsdAnyUri" data-source-line="12" id="ent0002"><rect fill="#FAE5D3" height="40.1875" rx="2.5" ry="2.5" style="stroke:#404040;stroke-width:0.5;" width="65.3809" x="1067" y="148.6094"/><text fill="#000000" font-family="sans-serif" font-size="12" font-style="italic" lengthAdjust="spacing" textLength="63.3809" x="1068" y="166.0664">&#171;dataType&#187;</text><text fill="#000000" font-family="sans-serif" font-size="12" lengthAdjust="spacing" textLength="56.6836" x="1071.3486" y="181.1602">XsdAnyUri</text></g><!--class Dataset--><g class="entity" data-qualified-name="Dataset" data-source-line="13" id="ent0003"><rect fill="#EEEEEE" height="25.0938" rx="2.5" ry="2.5" style="stroke:#404040;stroke-width:0.5;" width="47.3555" x="7" y="45.6094"/><text fill="#000000" font-family="sans-serif" font-size="12" lengthAdjust="spacing" textLength="41.3555" x="10" y="63.0664">Dataset</text></g><!--class VariableMeasured--><g class="entity" data-qualified-name="VariableMeasured" data-source-line="15" id="ent0005"><rect fill="#EEEEEE" height="25.0938" rx="2.5" ry="2.5" style="stroke:#404040;stroke-width:0.5;" width="103.3887" x="89" y="45.6094"/><text fill="#000000" font-family="sans-serif" font-size="12" lengthAdjust="spacing" textLength="97.3887" x="92" y="63.0664">VariableMeasured</text></g><!--class AbstractGeometry--><g class="entity" data-qualified-name="AbstractGeometry" data-source-line="17" id="ent0007"><rect fill="#EEEEEE" height="25.0938" rx="2.5" ry="2.5" style="stroke:#404040;stroke-width:0.5;" width="102.6973" x="227" y="45.6094"/><text fill="#000000" font-family="sans-serif" font-size="12" font-style="italic" lengthAdjust="spacing" textLength="96.6973" x="230" y="63.0664">AbstractGeometry</text></g><!--class TemporalExtent--><g class="entity" data-qualified-name="TemporalExtent" data-source-line="19" id="ent0009"><rect fill="#EEEEEE" height="25.0938" rx="2.5" ry="2.5" style="stroke:#404040;stroke-width:0.5;" width="90.7031" x="389" y="45.6094"/><text fill="#000000" font-family="sans-serif" font-size="12" lengthAdjust="spacing" textLength="84.7031" x="392" y="63.0664">TemporalExtent</text></g><!--class Instant--><g class="entity" data-qualified-name="Instant" data-source-line="22" id="ent0012"><rect fill="#EEEEEE" height="25.0938" rx="2.5" ry="2.5" style="stroke:#404040;stroke-width:0.5;" width="42.0234" x="582.5" y="45.6094"/><text fill="#000000" font-family="sans-serif" font-size="12" lengthAdjust="spacing" textLength="36.0234" x="585.5" y="63.0664">Instant</text></g><!--class TimePosition--><g class="entity" data-qualified-name="TimePosition" data-source-line="24" id="ent0014"><rect fill="#EEEEEE" height="25.0938" rx="2.5" ry="2.5" style="stroke:#404040;stroke-width:0.5;" width="75.3574" x="660" y="45.6094"/><text fill="#000000" font-family="sans-serif" font-size="12" lengthAdjust="spacing" textLength="69.3574" x="663" y="63.0664">TimePosition</text></g><!--class Geometry--><g class="entity" data-qualified-name="Geometry" data-source-line="26" id="ent0016"><rect fill="#EEEEEE" height="25.0938" rx="2.5" ry="2.5" style="stroke:#404040;stroke-width:0.5;" width="58.6816" x="770" y="45.6094"/><text fill="#000000" font-family="sans-serif" font-size="12" lengthAdjust="spacing" textLength="52.6816" x="773" y="63.0664">Geometry</text></g><!--class QualityMeasurement--><g class="entity" data-qualified-name="QualityMeasurement" data-source-line="28" id="ent0018"><rect fill="#EEEEEE" height="25.0938" rx="2.5" ry="2.5" style="stroke:#404040;stroke-width:0.5;" width="116.7129" x="869" y="45.6094"/><text fill="#000000" font-family="sans-serif" font-size="12" lengthAdjust="spacing" textLength="110.7129" x="872" y="63.0664">QualityMeasurement</text></g><!--class Concept--><g class="entity" data-qualified-name="Concept" data-source-line="31" id="ent0021"><rect fill="#EEEEEE" height="25.0938" rx="2.5" ry="2.5" style="stroke:#404040;stroke-width:0.5;" width="50.6953" x="1025" y="45.6094"/><text fill="#000000" font-family="sans-serif" font-size="12" lengthAdjust="spacing" textLength="44.6953" x="1028" y="63.0664">Concept</text></g><!--class Identifier--><g class="entity" data-qualified-name="Identifier" data-source-line="33" id="ent0023"><rect fill="#EEEEEE" height="25.0938" rx="2.5" ry="2.5" style="stroke:#404040;stroke-width:0.5;" width="52.0254" x="1123.5" y="45.6094"/><text fill="#000000" font-family="sans-serif" font-size="12" lengthAdjust="spacing" textLength="46.0254" x="1126.5" y="63.0664">Identifier</text></g><!--class DefinedTerm--><g class="entity" data-qualified-name="DefinedTerm" data-source-line="35" id="ent0025"><rect fill="#EEEEEE" height="25.0938" rx="2.5" ry="2.5" style="stroke:#404040;stroke-width:0.5;" width="75.3574" x="1235" y="45.6094"/><text fill="#000000" font-family="sans-serif" font-size="12" lengthAdjust="spacing" textLength="69.3574" x="1238" y="63.0664">DefinedTerm</text></g><!--class DataDownload--><g class="entity" data-qualified-name="DataDownload" data-source-line="38" id="ent0028"><rect fill="#EEEEEE" height="25.0938" rx="2.5" ry="2.5" style="stroke:#404040;stroke-width:0.5;" width="84.7148" x="1403" y="45.6094"/><text fill="#000000" font-family="sans-serif" font-size="12" lengthAdjust="spacing" textLength="78.7148" x="1406" y="63.0664">DataDownload</text></g><!--class WebAPI--><g class="entity" data-qualified-name="WebAPI" data-source-line="41" id="ent0031"><rect fill="#EEEEEE" height="25.0938" rx="2.5" ry="2.5" style="stroke:#404040;stroke-width:0.5;" width="50.0156" x="1529.5" y="45.6094"/><text fill="#000000" font-family="sans-serif" font-size="12" lengthAdjust="spacing" textLength="44.0156" x="1532.5" y="63.0664">WebAPI</text></g><!--class Organization--><g class="entity" data-qualified-name="Organization" data-source-line="43" id="ent0033"><rect fill="#EEEEEE" height="25.0938" rx="2.5" ry="2.5" style="stroke:#404040;stroke-width:0.5;" width="74.0391" x="1614.5" y="45.6094"/><text fill="#000000" font-family="sans-serif" font-size="12" lengthAdjust="spacing" textLength="68.0391" x="1617.5" y="63.0664">Organization</text></g><!--class AdditionalProperty--><g class="entity" data-qualified-name="AdditionalProperty" data-source-line="45" id="ent0035"><rect fill="#EEEEEE" height="25.0938" rx="2.5" ry="2.5" style="stroke:#404040;stroke-width:0.5;" width="104.0566" x="1723.5" y="45.6094"/><text fill="#000000" font-family="sans-serif" font-size="12" lengthAdjust="spacing" textLength="98.0566" x="1726.5" y="63.0664">AdditionalProperty</text></g><!--class Reference--><g class="entity" data-qualified-name="Reference" data-source-line="47" id="ent0037"><rect fill="#EEEEEE" height="25.0938" rx="2.5" ry="2.5" style="stroke:#404040;stroke-width:0.5;" width="61.3652" x="1863" y="45.6094"/><text fill="#000000" font-family="sans-serif" font-size="12" lengthAdjust="spacing" textLength="55.3652" x="1866" y="63.0664">Reference</text></g><!--class ProvActivity--><g class="entity" data-qualified-name="ProvActivity" data-source-line="49" id="ent0039"><rect fill="#EEEEEE" height="25.0938" rx="2.5" ry="2.5" style="stroke:#404040;stroke-width:0.5;" width="68.6777" x="1959" y="45.6094"/><text fill="#000000" font-family="sans-serif" font-size="12" lengthAdjust="spacing" textLength="62.6777" x="1962" y="63.0664">ProvActivity</text></g><!--class CatalogRecord--><g class="entity" data-qualified-name="CatalogRecord" data-source-line="51" id="ent0041"><rect fill="#EEEEEE" height="25.0938" rx="2.5" ry="2.5" style="stroke:#404040;stroke-width:0.5;" width="86.0449" x="2063.5" y="45.6094"/><text fill="#000000" font-family="sans-serif" font-size="12" lengthAdjust="spacing" textLength="80.0449" x="2066.5" y="63.0664">CatalogRecord</text></g><!--link Dataset to XsdAnyUri--><g class="link" data-entity-1="ent0003" data-entity-2="ent0002" data-link-type="dependency" data-source-line="14" id="lnk4"><path codeLine="14" d="M48.77,70.8494 C72.04,85.0994 113.98,108.4694 153.5,118.6094 C331.71,164.3294 915.07,167.5557 1060.73,167.6457" fill="none" id="Dataset-to-XsdAnyUri" style="stroke:#404040;stroke-width:1.2;stroke-dasharray:7,7;"/><polygon fill="#404040" points="1066.73,167.6494,1057.73,163.6494,1061.73,167.6494,1057.73,171.6494,1066.73,167.6494" style="stroke:#404040;stroke-width:1.2;"/><text fill="#000000" font-family="sans-serif" font-size="13" lengthAdjust="spacing" textLength="14.4473" x="154.5" y="115.1045">url</text></g><!--link VariableMeasured to XsdAnyUri--><g class="link" data-entity-1="ent0005" data-entity-2="ent0002" data-link-type="dependency" data-source-line="16" id="lnk6"><path codeLine="16" d="M149.07,70.8294 C160.24,85.0594 181.24,108.4094 205.5,118.6094 C286.1,152.4994 909.6108,164.5722 1060.8908,167.0222" fill="none" id="VariableMeasured-to-XsdAnyUri" style="stroke:#404040;stroke-width:1.2;stroke-dasharray:7,7;"/><polygon fill="#404040" points="1066.89,167.1194,1057.956,162.9742,1061.8907,167.0384,1057.8264,170.9731,1066.89,167.1194" style="stroke:#404040;stroke-width:1.2;"/><text fill="#000000" font-family="sans-serif" font-size="13" lengthAdjust="spacing" textLength="58.5317" x="206.5" y="115.1045">propertyId</text></g><!--link AbstractGeometry to XsdAnyUri--><g class="link" data-entity-1="ent0007" data-entity-2="ent0002" data-link-type="dependency" data-source-line="18" id="lnk8"><path codeLine="18" d="M274.98,70.9894 C271.8,84.4994 269.27,106.2694 281.5,118.6094 C309.6,146.9694 911.4917,163.125 1060.6717,166.715" fill="none" id="AbstractGeometry-to-XsdAnyUri" style="stroke:#404040;stroke-width:1.2;stroke-dasharray:7,7;"/><polygon fill="#404040" points="1066.67,166.8594,1057.7688,162.644,1061.6714,166.7391,1057.5764,170.6417,1066.67,166.8594" style="stroke:#404040;stroke-width:1.2;"/><text fill="#000000" font-family="sans-serif" font-size="13" lengthAdjust="spacing" textLength="17.3291" x="282.5" y="115.1045">crs</text></g><!--link TemporalExtent to XsdAnyUri--><g class="link" data-entity-1="ent0009" data-entity-2="ent0002" data-link-type="dependency" data-source-line="20" id="lnk10"><path codeLine="20" d="M388.99,66.0194 C345.35,74.4494 289.64,91.0894 315.5,118.6094 C341.62,146.4094 914.992,162.8949 1060.552,166.6449" fill="none" id="TemporalExtent-to-XsdAnyUri" style="stroke:#404040;stroke-width:1.2;stroke-dasharray:7,7;"/><polygon fill="#404040" points="1066.55,166.7994,1057.656,162.5689,1061.5517,166.6706,1057.45,170.5663,1066.55,166.7994" style="stroke:#404040;stroke-width:1.2;"/><text fill="#000000" font-family="sans-serif" font-size="13" lengthAdjust="spacing" textLength="98.9917" x="316.5" y="115.1045">intervalStartedBy</text></g><!--link TemporalExtent to XsdAnyUri--><g class="link" data-entity-1="ent0009" data-entity-2="ent0002" data-link-type="dependency" data-source-line="21" id="lnk11"><path codeLine="21" d="M447.05,70.7094 C463.15,84.8194 492.59,108.0394 522.5,118.6094 C624.16,154.5294 954.5515,164.5274 1060.9415,166.8674" fill="none" id="TemporalExtent-to-XsdAnyUri-1" style="stroke:#404040;stroke-width:1.2;stroke-dasharray:7,7;"/><polygon fill="#404040" points="1066.94,166.9994,1058.0301,162.8024,1061.9412,166.8894,1057.8542,170.8005,1066.94,166.9994" style="stroke:#404040;stroke-width:1.2;"/><text fill="#000000" font-family="sans-serif" font-size="13" lengthAdjust="spacing" textLength="106.2153" x="523.5" y="115.1045">intervalFinishedBy</text></g><!--link Instant to XsdAnyUri--><g class="link" data-entity-1="ent0012" data-entity-2="ent0002" data-link-type="dependency" data-source-line="23" id="lnk13"><path codeLine="23" d="M611.65,71.0994 C621.93,85.1394 641.01,107.8394 663.5,118.6094 C734.95,152.8194 972.1232,163.5926 1060.8032,166.5026" fill="none" id="Instant-to-XsdAnyUri" style="stroke:#404040;stroke-width:1.2;stroke-dasharray:7,7;"/><polygon fill="#404040" points="1066.8,166.6994,1057.936,162.4064,1061.8027,166.5354,1057.6737,170.4021,1066.8,166.6994" style="stroke:#404040;stroke-width:1.2;"/><text fill="#000000" font-family="sans-serif" font-size="13" lengthAdjust="spacing" textLength="49.1372" x="664.5" y="115.1045">identifier</text></g><!--link TimePosition to XsdAnyUri--><g class="link" data-entity-1="ent0014" data-entity-2="ent0002" data-link-type="dependency" data-source-line="25" id="lnk15"><path codeLine="25" d="M703.08,70.9794 C710.31,84.8994 724.29,107.4894 743.5,118.6094 C798.24,150.2894 983.5769,162.2415 1060.8069,165.9515" fill="none" id="TimePosition-to-XsdAnyUri" style="stroke:#404040;stroke-width:1.2;stroke-dasharray:7,7;"/><polygon fill="#404040" points="1066.8,166.2394,1058.0023,161.8121,1061.8058,165.9995,1057.6184,169.8029,1066.8,166.2394" style="stroke:#404040;stroke-width:1.2;"/><text fill="#000000" font-family="sans-serif" font-size="13" lengthAdjust="spacing" textLength="46.96" x="744.5" y="115.1045">hasTRS</text></g><!--link Geometry to XsdAnyUri--><g class="link" data-entity-1="ent0016" data-entity-2="ent0002" data-link-type="dependency" data-source-line="27" id="lnk17"><path codeLine="27" d="M797.82,70.9594 C796.64,84.4294 797.06,106.1594 809.5,118.6094 C845.18,154.3194 992.7844,163.8703 1060.8344,166.4703" fill="none" id="Geometry-to-XsdAnyUri" style="stroke:#404040;stroke-width:1.2;stroke-dasharray:7,7;"/><polygon fill="#404040" points="1066.83,166.6994,1057.9893,162.3587,1061.8336,166.5085,1057.6838,170.3528,1066.83,166.6994" style="stroke:#404040;stroke-width:1.2;"/><text fill="#000000" font-family="sans-serif" font-size="13" lengthAdjust="spacing" textLength="17.3291" x="810.5" y="115.1045">crs</text></g><!--link QualityMeasurement to XsdAnyUri--><g class="link" data-entity-1="ent0018" data-entity-2="ent0002" data-link-type="dependency" data-source-line="29" id="lnk19"><path codeLine="29" d="M885.95,70.6794 C856.21,81.0394 824.25,97.7694 841.5,118.6094 C869.78,152.7594 998.0173,163.0039 1060.8873,166.1039" fill="none" id="QualityMeasurement-to-XsdAnyUri" style="stroke:#404040;stroke-width:1.2;stroke-dasharray:7,7;"/><polygon fill="#404040" points="1066.88,166.3994,1058.0879,161.961,1061.8861,166.1531,1057.6939,169.9513,1066.88,166.3994" style="stroke:#404040;stroke-width:1.2;"/><text fill="#000000" font-family="sans-serif" font-size="13" lengthAdjust="spacing" textLength="102.5908" x="842.5" y="115.1045">isMeasurementOf</text></g><!--link QualityMeasurement to XsdAnyUri--><g class="link" data-entity-1="ent0018" data-entity-2="ent0002" data-link-type="dependency" data-source-line="30" id="lnk20"><path codeLine="30" d="M943.39,70.7194 C960.44,83.0394 988.45,102.8494 1013.5,118.6094 C1030.81,129.4994 1045.3683,137.9298 1061.5983,146.9698" fill="none" id="QualityMeasurement-to-XsdAnyUri-1" style="stroke:#404040;stroke-width:1.2;stroke-dasharray:7,7;"/><polygon fill="#404040" points="1066.84,149.8894,1060.9238,142.0155,1062.4719,147.4564,1057.031,149.0044,1066.84,149.8894" style="stroke:#404040;stroke-width:1.2;"/><text fill="#000000" font-family="sans-serif" font-size="13" lengthAdjust="spacing" textLength="20.96" x="1014.5" y="115.1045">unit</text></g><!--link Concept to XsdAnyUri--><g class="link" data-entity-1="ent0021" data-entity-2="ent0002" data-link-type="dependency" data-source-line="32" id="lnk22"><path codeLine="32" d="M1046.9,71.0594 C1043.82,83.4894 1040.86,103.2294 1047.5,118.6094 C1052.56,130.3394 1057.3998,136.6718 1066.8398,144.7018" fill="none" id="Concept-to-XsdAnyUri" style="stroke:#404040;stroke-width:1.2;stroke-dasharray:7,7;"/><polygon fill="#404040" points="1071.41,148.5894,1067.1464,139.7112,1067.6015,145.3497,1061.963,145.8048,1071.41,148.5894" style="stroke:#404040;stroke-width:1.2;"/><text fill="#000000" font-family="sans-serif" font-size="13" lengthAdjust="spacing" textLength="57.8081" x="1048.5" y="115.1045">inScheme</text></g><!--link Identifier to XsdAnyUri--><g class="link" data-entity-1="ent0023" data-entity-2="ent0002" data-link-type="dependency" data-source-line="34" id="lnk24"><path codeLine="34" d="M1144.15,70.7194 C1135.58,89.3094 1121.2105,120.4898 1110.8405,142.9998" fill="none" id="Identifier-to-XsdAnyUri" style="stroke:#404040;stroke-width:1.2;stroke-dasharray:7,7;"/><polygon fill="#404040" points="1108.33,148.4494,1115.7288,141.9488,1110.4221,143.9081,1108.4627,138.6014,1108.33,148.4494" style="stroke:#404040;stroke-width:1.2;"/><text fill="#000000" font-family="sans-serif" font-size="13" lengthAdjust="spacing" textLength="14.4473" x="1129.5" y="115.1045">url</text></g><!--link DefinedTerm to XsdAnyUri--><g class="link" data-entity-1="ent0025" data-entity-2="ent0002" data-link-type="dependency" data-source-line="36" id="lnk26"><path codeLine="36" d="M1252.45,70.6994 C1238.38,78.8994 1219.18,90.2494 1202.5,100.6094 C1177.13,116.3694 1153.7154,131.6209 1133.1554,145.2109" fill="none" id="DefinedTerm-to-XsdAnyUri" style="stroke:#404040;stroke-width:1.2;stroke-dasharray:7,7;"/><polygon fill="#404040" points="1128.15,148.5194,1137.8637,146.8935,1132.3211,145.7623,1133.4524,140.2197,1128.15,148.5194" style="stroke:#404040;stroke-width:1.2;"/><text fill="#000000" font-family="sans-serif" font-size="13" lengthAdjust="spacing" textLength="49.1372" x="1203.5" y="115.1045">identifier</text></g><!--link DefinedTerm to XsdAnyUri--><g class="link" data-entity-1="ent0025" data-entity-2="ent0002" data-link-type="dependency" data-source-line="37" id="lnk27"><path codeLine="37" d="M1272.77,70.7594 C1272.42,84.0494 1269.81,105.6194 1257.5,118.6094 C1224.71,153.2094 1173.9892,163.0403 1138.1692,166.0303" fill="none" id="DefinedTerm-to-XsdAnyUri-1" style="stroke:#404040;stroke-width:1.2;stroke-dasharray:7,7;"/><polygon fill="#404040" points="1132.19,166.5294,1141.4915,169.7669,1137.1727,166.1135,1140.8261,161.7946,1132.19,166.5294" style="stroke:#404040;stroke-width:1.2;"/><text fill="#000000" font-family="sans-serif" font-size="13" lengthAdjust="spacing" textLength="104.7681" x="1267.5" y="115.1045">inDefinedTermSet</text></g><!--link DataDownload to XsdAnyUri--><g class="link" data-entity-1="ent0028" data-entity-2="ent0002" data-link-type="dependency" data-source-line="39" id="lnk29"><path codeLine="39" d="M1436.32,70.8594 C1424.84,84.6594 1403.84,107.1394 1380.5,118.6094 C1297.62,159.3594 1192.359,166.6278 1138.059,167.6378" fill="none" id="DataDownload-to-XsdAnyUri" style="stroke:#404040;stroke-width:1.2;stroke-dasharray:7,7;"/><polygon fill="#404040" points="1132.06,167.7494,1141.1328,171.5813,1137.0591,167.6564,1140.9841,163.5827,1132.06,167.7494" style="stroke:#404040;stroke-width:1.2;"/><text fill="#000000" font-family="sans-serif" font-size="13" lengthAdjust="spacing" textLength="59.249" x="1406.5" y="115.1045">contentUrl</text></g><!--link DataDownload to XsdAnyUri--><g class="link" data-entity-1="ent0028" data-entity-2="ent0002" data-link-type="dependency" data-source-line="40" id="lnk30"><path codeLine="40" d="M1458.4,70.6894 C1471.15,83.5094 1487.08,104.2694 1474.5,118.6094 C1452,144.2394 1225.0492,160.1787 1138.0292,165.4187" fill="none" id="DataDownload-to-XsdAnyUri-1" style="stroke:#404040;stroke-width:1.2;stroke-dasharray:7,7;"/><polygon fill="#404040" points="1132.04,165.7794,1141.2642,169.2312,1137.031,165.4788,1140.7833,161.2456,1132.04,165.7794" style="stroke:#404040;stroke-width:1.2;"/><text fill="#000000" font-family="sans-serif" font-size="13" lengthAdjust="spacing" textLength="14.4473" x="1479.5" y="115.1045">url</text></g><!--link WebAPI to XsdAnyUri--><g class="link" data-entity-1="ent0031" data-entity-2="ent0002" data-link-type="dependency" data-source-line="42" id="lnk32"><path codeLine="42" d="M1547.82,71.0494 C1539.28,85.0394 1523.11,107.6994 1502.5,118.6094 C1438.34,152.5694 1222.4861,163.3844 1138.2661,166.4044" fill="none" id="WebAPI-to-XsdAnyUri" style="stroke:#404040;stroke-width:1.2;stroke-dasharray:7,7;"/><polygon fill="#404040" points="1132.27,166.6194,1141.4076,170.2943,1137.2668,166.4402,1141.1209,162.2994,1132.27,166.6194" style="stroke:#404040;stroke-width:1.2;"/><text fill="#000000" font-family="sans-serif" font-size="13" lengthAdjust="spacing" textLength="14.4473" x="1524.5" y="115.1045">url</text></g><!--link Organization to XsdAnyUri--><g class="link" data-entity-1="ent0033" data-entity-2="ent0002" data-link-type="dependency" data-source-line="44" id="lnk34"><path codeLine="44" d="M1635.91,70.7994 C1616.37,84.7594 1581.33,107.6094 1547.5,118.6094 C1469.93,143.8294 1227.5295,160.114 1138.0295,165.424" fill="none" id="Organization-to-XsdAnyUri" style="stroke:#404040;stroke-width:1.2;stroke-dasharray:7,7;"/><polygon fill="#404040" points="1132.04,165.7794,1141.2611,169.2393,1137.0312,165.4832,1140.7873,161.2534,1132.04,165.7794" style="stroke:#404040;stroke-width:1.2;"/><text fill="#000000" font-family="sans-serif" font-size="13" lengthAdjust="spacing" textLength="14.4473" x="1587.5" y="115.1045">url</text></g><!--link AdditionalProperty to XsdAnyUri--><g class="link" data-entity-1="ent0035" data-entity-2="ent0002" data-link-type="dependency" data-source-line="46" id="lnk36"><path codeLine="46" d="M1749.81,70.6594 C1717.86,84.4894 1661.31,107.1994 1610.5,118.6094 C1433.11,158.4394 1219.9391,165.7966 1138.2291,167.1966" fill="none" id="AdditionalProperty-to-XsdAnyUri" style="stroke:#404040;stroke-width:1.2;stroke-dasharray:7,7;"/><polygon fill="#404040" points="1132.23,167.2994,1141.2972,171.1446,1137.2293,167.2137,1141.1602,163.1458,1132.23,167.2994" style="stroke:#404040;stroke-width:1.2;"/><text fill="#000000" font-family="sans-serif" font-size="13" lengthAdjust="spacing" textLength="52.0381" x="1671.5" y="115.1045">unitCode</text></g><!--link Reference to XsdAnyUri--><g class="link" data-entity-1="ent0037" data-entity-2="ent0002" data-link-type="dependency" data-source-line="48" id="lnk38"><path codeLine="48" d="M1868.77,70.6994 C1837.71,84.6894 1782.42,107.6794 1732.5,118.6094 C1506.93,168.0194 1232.6296,169.4412 1138.2396,168.3112" fill="none" id="Reference-to-XsdAnyUri" style="stroke:#404040;stroke-width:1.2;stroke-dasharray:7,7;"/><polygon fill="#404040" points="1132.24,168.2394,1141.1915,172.3468,1137.2396,168.2992,1141.2872,164.3474,1132.24,168.2394" style="stroke:#404040;stroke-width:1.2;"/><text fill="#000000" font-family="sans-serif" font-size="13" lengthAdjust="spacing" textLength="14.4473" x="1791.5" y="115.1045">url</text></g><!--link ProvActivity to XsdAnyUri--><g class="link" data-entity-1="ent0039" data-entity-2="ent0002" data-link-type="dependency" data-source-line="50" id="lnk40"><path codeLine="50" d="M1965.88,70.7294 C1931.21,84.7294 1869.6,107.7494 1814.5,118.6094 C1680.98,144.9294 1259.576,161.8313 1138.026,166.2513" fill="none" id="ProvActivity-to-XsdAnyUri" style="stroke:#404040;stroke-width:1.2;stroke-dasharray:7,7;"/><polygon fill="#404040" points="1132.03,166.4694,1141.1694,170.1397,1137.0267,166.2877,1140.8787,162.145,1132.03,166.4694" style="stroke:#404040;stroke-width:1.2;"/><text fill="#000000" font-family="sans-serif" font-size="13" lengthAdjust="spacing" textLength="28.1899" x="1880.5" y="115.1045">used</text></g><!--link CatalogRecord to XsdAnyUri--><g class="link" data-entity-1="ent0041" data-entity-2="ent0002" data-link-type="dependency" data-source-line="52" id="lnk42"><path codeLine="52" d="M2077.6,70.6594 C2041,84.7094 1975.69,107.8794 1917.5,118.6094 C1762.73,147.1594 1270.4776,162.7891 1138.0676,166.5491" fill="none" id="CatalogRecord-to-XsdAnyUri" style="stroke:#404040;stroke-width:1.2;stroke-dasharray:7,7;"/><polygon fill="#404040" points="1132.07,166.7194,1141.1799,170.4623,1137.068,166.5774,1140.9528,162.4655,1132.07,166.7194" style="stroke:#404040;stroke-width:1.2;"/><text fill="#000000" font-family="sans-serif" font-size="13" lengthAdjust="spacing" textLength="68.6309" x="1986.5" y="115.1045">conformsTo</text></g><?plantuml-src ZLLBZzem4BxdLrXmHzrjUwbMI5aU5OTgAR1jhoQU46iTEneRQBRgVw-RE8wJe0YuUBxnVFFoJ0mt0iWlpM9PlYAFCiw091mJ0VKPyiAK98Vy2AWZ_SPbGP7cH6UKgIkN9v9IeI7Gn8ZgUiXuyYP1Q_8mUmoKYQ0M-nEH-jf22OLa-kd3_xy5dnKom3wwLjBi-JkGXyVeRnJL71CVz8HGtQP0dfuODVHG5Z2Va-awNdrUVcnibbQZmLGMxaocg-eNDV9iDW_Olf0pYiRy1qLEZmA-0TLd15Rnz45FE53qcGjK1Q0fDooYHssG9iOLQ18x-Ike70oMbQS-w3qD57rFYUsTOpxOZYgaOlNRWAmhqOKyQm_kSt9f02zKx0r50-ovlDTWpINNMMNXOjf8RQWBnfrz58qyO6FM1qyveC-Cvx1LcXkkP9rN0BHPXM2VDAFwiDitX9tY3uf-Jx6_dwdWfdGl86yAFeGzwmtL87CTQ5_IUqpEaficfeMI2HHr8ExilJVoi7Nx9BFKlc6--7NFlDYshOL61ce9APV03e1vFPEjtCvbW8qyWj5hCj3kmOJhOAckKYZA_4veWCvYyE2WsNOtsHXURKwZzuAaVy8ntcugV_NHUtBYYEqBdgZaxzI_yH3mF1rmX2rch9e3AhPk5TLxPW2tcsQeklNM5ehvjxA3513ikwgulUGfMsGaKklj4YU6NxYBCGGyLGSSi6bWVWPiguGwxI2n7vnw4aAadOSEUgFtgS9S7rJq3m00?></g></svg>