<svg xmlns="http://www.w3.org/2000/svg" xmlns:xlink="http://www.w3.org/1999/xlink" contentStyleType="text/css" data-diagram-type="CLASS" height="374px" preserveAspectRatio="none" style="width:628px;height:374px;background:#FFFFFF;" version="1.1" viewBox="0 0 628 374" width="628px" zoomAndPan="magnify"><?plantuml 1.2026.3?><defs/><g><g class="title" data-source-line="1"><text fill="#000000" font-family="sans-serif" font-size="14" font-weight="700" lengthAdjust="spacing" textLength="71.5723" x="274.7314" y="24.5332">XsdAnyUri</text></g><!--class XsdAnyUri--><g class="entity" data-qualified-name="XsdAnyUri" data-source-line="15" id="ent0002"><rect fill="#FAE5D3" height="40.1875" rx="2.5" ry="2.5" style="stroke:#404040;stroke-width:0.5;" width="65.3809" x="266.5" y="320.6094"/><text fill="#000000" font-family="sans-serif" font-size="12" font-style="italic" lengthAdjust="spacing" textLength="63.3809" x="267.5" y="338.0664">&#171;dataType&#187;</text><text fill="#000000" font-family="sans-serif" font-size="12" lengthAdjust="spacing" textLength="56.6836" x="270.8486" y="353.1602">XsdAnyUri</text></g><!--class Dataset--><g class="entity" data-qualified-name="Dataset" data-source-line="16" id="ent0003"><rect fill="#EEEEEE" height="25.0938" rx="2.5" ry="2.5" style="stroke:#404040;stroke-width:0.5;" width="47.3555" x="33.5" y="45.6094"/><text fill="#000000" font-family="sans-serif" font-size="12" lengthAdjust="spacing" textLength="41.3555" x="36.5" y="63.0664">Dataset</text></g><!--class CatalogRecord--><g class="entity" data-qualified-name="CatalogRecord" data-source-line="18" id="ent0005"><rect fill="#EEEEEE" height="25.0938" rx="2.5" ry="2.5" style="stroke:#404040;stroke-width:0.5;" width="86.0449" x="101" y="45.6094"/><text fill="#000000" font-family="sans-serif" font-size="12" lengthAdjust="spacing" textLength="80.0449" x="104" y="63.0664">CatalogRecord</text></g><!--class DefinedTerm--><g class="entity" data-qualified-name="DefinedTerm" data-source-line="20" id="ent0007"><rect fill="#EEEEEE" height="25.0938" rx="2.5" ry="2.5" style="stroke:#404040;stroke-width:0.5;" width="75.3574" x="207.5" y="45.6094"/><text fill="#000000" font-family="sans-serif" font-size="12" lengthAdjust="spacing" textLength="69.3574" x="210.5" y="63.0664">DefinedTerm</text></g><!--class VariableMeasured--><g class="entity" data-qualified-name="VariableMeasured" data-source-line="22" id="ent0009"><rect fill="#EEEEEE" height="25.0938" rx="2.5" ry="2.5" style="stroke:#404040;stroke-width:0.5;" width="103.3887" x="302.5" y="45.6094"/><text fill="#000000" font-family="sans-serif" font-size="12" lengthAdjust="spacing" textLength="97.3887" x="305.5" y="63.0664">VariableMeasured</text></g><!--class SpatialExtent--><g class="entity" data-qualified-name="SpatialExtent" data-source-line="24" id="ent0011"><rect fill="#EEEEEE" height="25.0938" rx="2.5" ry="2.5" style="stroke:#404040;stroke-width:0.5;" width="76.7109" x="425.5" y="45.6094"/><text fill="#000000" font-family="sans-serif" font-size="12" lengthAdjust="spacing" textLength="70.7109" x="428.5" y="63.0664">SpatialExtent</text></g><!--class QualityMeasure--><g class="entity" data-qualified-name="QualityMeasure" data-source-line="26" id="ent0013"><rect fill="#EEEEEE" height="25.0938" rx="2.5" ry="2.5" style="stroke:#404040;stroke-width:0.5;" width="90.0352" x="523" y="45.6094"/><text fill="#000000" font-family="sans-serif" font-size="12" lengthAdjust="spacing" textLength="84.0352" x="526" y="63.0664">QualityMeasure</text></g><!--link Dataset to XsdAnyUri--><g class="link" data-entity-1="ent0003" data-entity-2="ent0002" data-link-type="dependency" data-source-line="17" id="lnk4"><path codeLine="17" d="M57,70.9194 C57,126.9494 57,347.6094 57,347.6094 C57,347.6094 194.31,347.6094 260.36,347.6094" fill="none" id="Dataset-to-XsdAnyUri" style="stroke:#404040;stroke-width:1.2;stroke-dasharray:7,7;"/><polygon fill="#404040" points="266.36,347.6094,257.36,343.6094,261.36,347.6094,257.36,351.6094,266.36,347.6094" style="stroke:#404040;stroke-width:1.2;"/><text fill="#000000" font-family="sans-serif" font-size="13" lengthAdjust="spacing" textLength="49.1372" x="7" y="310.4445">identifier</text></g><!--link CatalogRecord to XsdAnyUri--><g class="link" data-entity-1="ent0005" data-entity-2="ent0002" data-link-type="dependency" data-source-line="19" id="lnk6"><path codeLine="19" d="M144,70.7094 C144,124.7994 144,334.6094 144,334.6094 C144,334.6094 214.63,334.6094 260.13,334.6094" fill="none" id="CatalogRecord-to-XsdAnyUri" style="stroke:#404040;stroke-width:1.2;stroke-dasharray:7,7;"/><polygon fill="#404040" points="266.13,334.6094,257.13,330.6094,261.13,334.6094,257.13,338.6094,266.13,334.6094" style="stroke:#404040;stroke-width:1.2;"/><text fill="#000000" font-family="sans-serif" font-size="13" lengthAdjust="spacing" textLength="68.6309" x="75" y="260.2145">conformsTo</text></g><!--link DefinedTerm to XsdAnyUri--><g class="link" data-entity-1="ent0007" data-entity-2="ent0002" data-link-type="dependency" data-source-line="21" id="lnk8"><path codeLine="21" d="M274.5,70.6094 C274.5,115.0294 274.5,259.5094 274.5,314.3794" fill="none" id="DefinedTerm-to-XsdAnyUri" style="stroke:#404040;stroke-width:1.2;stroke-dasharray:7,7;"/><polygon fill="#404040" points="274.5,320.3794,278.5,311.3794,274.5,315.3794,270.5,311.3794,274.5,320.3794" style="stroke:#404040;stroke-width:1.2;"/><text fill="#000000" font-family="sans-serif" font-size="13" lengthAdjust="spacing" textLength="49.1372" x="224.5" y="191.9945">identifier</text></g><!--link VariableMeasured to XsdAnyUri--><g class="link" data-entity-1="ent0009" data-entity-2="ent0002" data-link-type="dependency" data-source-line="23" id="lnk10"><path codeLine="23" d="M317,70.6094 C317,115.0294 317,259.5094 317,314.3794" fill="none" id="VariableMeasured-to-XsdAnyUri" style="stroke:#404040;stroke-width:1.2;stroke-dasharray:7,7;"/><polygon fill="#404040" points="317,320.3794,321,311.3794,317,315.3794,313,311.3794,317,320.3794" style="stroke:#404040;stroke-width:1.2;"/><text fill="#000000" font-family="sans-serif" font-size="13" lengthAdjust="spacing" textLength="49.1372" x="267" y="209.9945">identifier</text></g><!--link SpatialExtent to XsdAnyUri--><g class="link" data-entity-1="ent0011" data-entity-2="ent0002" data-link-type="dependency" data-source-line="25" id="lnk12"><path codeLine="25" d="M464,70.7094 C464,124.7994 464,334.6094 464,334.6094 C464,334.6094 385.68,334.6094 337.6,334.6094" fill="none" id="SpatialExtent-to-XsdAnyUri" style="stroke:#404040;stroke-width:1.2;stroke-dasharray:7,7;"/><polygon fill="#404040" points="331.6,334.6094,340.6,338.6094,336.6,334.6094,340.6,330.6094,331.6,334.6094" style="stroke:#404040;stroke-width:1.2;"/><text fill="#000000" font-family="sans-serif" font-size="13" lengthAdjust="spacing" textLength="49.1372" x="414" y="265.3545">identifier</text></g><!--link QualityMeasure to XsdAnyUri--><g class="link" data-entity-1="ent0013" data-entity-2="ent0002" data-link-type="dependency" data-source-line="27" id="lnk14"><path codeLine="27" d="M568,70.9194 C568,126.9494 568,347.6094 568,347.6094 C568,347.6094 409.4,347.6094 337.72,347.6094" fill="none" id="QualityMeasure-to-XsdAnyUri" style="stroke:#404040;stroke-width:1.2;stroke-dasharray:7,7;"/><polygon fill="#404040" points="331.72,347.6094,340.72,351.6094,336.72,347.6094,340.72,343.6094,331.72,347.6094" style="stroke:#404040;stroke-width:1.2;"/><text fill="#000000" font-family="sans-serif" font-size="13" lengthAdjust="spacing" textLength="35.3882" x="532" y="323.9045">metric</text></g><?plantuml-src XP0zRy8m48Pt_ueJx0XeMIg4HFdOEhIaLTThSY4d73iw6z6qwd-lcq18qe5aiPytVkwDFNjDyEwIfIbVXLN62K7C4ckgrvGNleISyWyIfzo1JO62ERWC4tjYiuSKjQDMiXInfoZZ-638EPYCfgrGq1mS5J2TZLlKs8GgseQQ3Vco8B3YCziAOet1-wsW7hMosWeCxyT_Ru2FLXAIFjrQutVyHJ2PgX-bQiUW-V41eBjU0ypd2NgCmlJ50eRRvMQslhkSMOV4aQzEdDSmt5IFkkn7eqNBzW3X9etdb4akbbNuKjlz2yMXRkNgaCROfNrlR4rg9NUHRTfH6kujYKZokk5rVstPOhURlg4mVcXw8dH7eRfi7pRkVy7j0Ri2FQFUVFgGLFOEQTHTUjlxV4JDlZmtgSHTr9XxkA_EoGl7wXS0?></g></svg>