<svg xmlns="http://www.w3.org/2000/svg" xmlns:xlink="http://www.w3.org/1999/xlink" contentStyleType="text/css" data-diagram-type="CLASS" height="497px" preserveAspectRatio="none" style="width:1265px;height:497px;background:#FFFFFF;" version="1.1" viewBox="0 0 1265 497" width="1265px" zoomAndPan="magnify"><?plantuml 1.2026.3?><defs/><g><g class="title" data-source-line="1"><text fill="#000000" font-family="sans-serif" font-size="14" font-weight="700" lengthAdjust="spacing" textLength="71.5723" x="593.5078" y="24.5332">XsdAnyUri</text></g><!--class XsdAnyUri--><g class="entity" data-qualified-name="XsdAnyUri" data-source-line="16" id="ent0002"><rect fill="#FAE5D3" height="93.0156" rx="2.5" ry="2.5" style="stroke:#404040;stroke-width:0.5;" width="192.1426" x="475.5" y="390.6094"/><text fill="#000000" font-family="sans-serif" font-size="36" font-style="italic" lengthAdjust="spacing" textLength="190.1426" x="476.5" y="432.9805">&#171;dataType&#187;</text><text fill="#000000" font-family="sans-serif" font-size="30" lengthAdjust="spacing" textLength="141.709" x="500.7168" y="472.0332">XsdAnyUri</text></g><!--class Dataset--><g class="entity" data-qualified-name="Dataset" data-source-line="17" id="ent0003"><rect fill="#EEEEEE" height="47.7344" rx="2.5" ry="2.5" style="stroke:#404040;stroke-width:0.5;" width="109.3887" x="7" y="45.6094"/><text fill="#000000" font-family="sans-serif" font-size="30" lengthAdjust="spacing" textLength="103.3887" x="10" y="81.752">Dataset</text></g><!--class CatalogRecord--><g class="entity" data-qualified-name="CatalogRecord" data-source-line="19" id="ent0005"><rect fill="#EEEEEE" height="47.7344" rx="2.5" ry="2.5" style="stroke:#404040;stroke-width:0.5;" width="206.1123" x="136.5" y="45.6094"/><text fill="#000000" font-family="sans-serif" font-size="30" lengthAdjust="spacing" textLength="200.1123" x="139.5" y="81.752">CatalogRecord</text></g><!--class DefinedTerm--><g class="entity" data-qualified-name="DefinedTerm" data-source-line="21" id="ent0007"><rect fill="#EEEEEE" height="47.7344" rx="2.5" ry="2.5" style="stroke:#404040;stroke-width:0.5;" width="179.3936" x="363" y="45.6094"/><text fill="#000000" font-family="sans-serif" font-size="30" lengthAdjust="spacing" textLength="173.3936" x="366" y="81.752">DefinedTerm</text></g><!--class VariableMeasured--><g class="entity" data-qualified-name="VariableMeasured" data-source-line="23" id="ent0009"><rect fill="#EEEEEE" height="47.7344" rx="2.5" ry="2.5" style="stroke:#404040;stroke-width:0.5;" width="249.4717" x="562" y="45.6094"/><text fill="#000000" font-family="sans-serif" font-size="30" lengthAdjust="spacing" textLength="243.4717" x="565" y="81.752">VariableMeasured</text></g><!--class SpatialExtent--><g class="entity" data-qualified-name="SpatialExtent" data-source-line="25" id="ent0011"><rect fill="#EEEEEE" height="47.7344" rx="2.5" ry="2.5" style="stroke:#404040;stroke-width:0.5;" width="182.7773" x="831" y="45.6094"/><text fill="#000000" font-family="sans-serif" font-size="30" lengthAdjust="spacing" textLength="176.7773" x="834" y="81.752">SpatialExtent</text></g><!--class QualityMeasure--><g class="entity" data-qualified-name="QualityMeasure" data-source-line="27" id="ent0013"><rect fill="#EEEEEE" height="47.7344" rx="2.5" ry="2.5" style="stroke:#404040;stroke-width:0.5;" width="216.0879" x="1034.5" y="45.6094"/><text fill="#000000" font-family="sans-serif" font-size="30" lengthAdjust="spacing" textLength="210.0879" x="1037.5" y="81.752">QualityMeasure</text></g><!--link Dataset to XsdAnyUri--><g class="link" data-entity-1="ent0003" data-entity-2="ent0002" data-link-type="dependency" data-source-line="18" id="lnk4"><path codeLine="18" d="M60.48,93.8994 C60,134.0294 64.86,216.5694 108.5,265.6094 C203.03,371.8294 363.7106,411.139 469.1706,426.239" fill="none" id="Dataset-to-XsdAnyUri" style="stroke:#404040;stroke-width:1.2;stroke-dasharray:7,7;"/><polygon fill="#404040" points="475.11,427.0894,466.7678,421.8541,470.1605,426.3807,465.6339,429.7734,475.11,427.0894" style="stroke:#404040;stroke-width:1.2;"/><text fill="#000000" font-family="sans-serif" font-size="36" lengthAdjust="spacing" textLength="136.0723" x="109.5" y="256.9805">identifier</text></g><!--link CatalogRecord to XsdAnyUri--><g class="link" data-entity-1="ent0005" data-entity-2="ent0002" data-link-type="dependency" data-source-line="20" id="lnk6"><path codeLine="20" d="M237.4,93.6894 C235.06,132.7694 235.61,212.8494 272.5,265.6094 C321.12,335.1594 402.2046,377.8433 469.7546,403.9933" fill="none" id="CatalogRecord-to-XsdAnyUri" style="stroke:#404040;stroke-width:1.2;stroke-dasharray:7,7;"/><polygon fill="#404040" points="475.35,406.1594,468.401,399.18,470.6872,404.3543,465.5129,406.6405,475.35,406.1594" style="stroke:#404040;stroke-width:1.2;"/><text fill="#000000" font-family="sans-serif" font-size="36" lengthAdjust="spacing" textLength="190.0547" x="273.5" y="256.9805">conformsTo</text></g><!--link DefinedTerm to XsdAnyUri--><g class="link" data-entity-1="ent0007" data-entity-2="ent0002" data-link-type="dependency" data-source-line="22" id="lnk8"><path codeLine="22" d="M453.61,93.6894 C455.92,130.7794 462.81,205.5594 482.5,265.6094 C497.12,310.1894 519.4226,352.0387 539.3426,385.3787" fill="none" id="DefinedTerm-to-XsdAnyUri" style="stroke:#404040;stroke-width:1.2;stroke-dasharray:7,7;"/><polygon fill="#404040" points="542.42,390.5294,541.2376,380.7517,539.8555,386.2371,534.3701,384.855,542.42,390.5294" style="stroke:#404040;stroke-width:1.2;"/><text fill="#000000" font-family="sans-serif" font-size="36" lengthAdjust="spacing" textLength="136.0723" x="483.5" y="256.9805">identifier</text></g><!--link VariableMeasured to XsdAnyUri--><g class="link" data-entity-1="ent0009" data-entity-2="ent0002" data-link-type="dependency" data-source-line="24" id="lnk10"><path codeLine="24" d="M679.22,93.7494 C660.53,153.1494 612.4005,306.0959 587.6405,384.8059" fill="none" id="VariableMeasured-to-XsdAnyUri" style="stroke:#404040;stroke-width:1.2;stroke-dasharray:7,7;"/><polygon fill="#404040" points="585.84,390.5294,592.3563,383.1444,587.3404,385.7598,584.725,380.7438,585.84,390.5294" style="stroke:#404040;stroke-width:1.2;"/><text fill="#000000" font-family="sans-serif" font-size="36" lengthAdjust="spacing" textLength="136.0723" x="639.5" y="256.9805">identifier</text></g><!--link SpatialExtent to XsdAnyUri--><g class="link" data-entity-1="ent0011" data-entity-2="ent0002" data-link-type="dependency" data-source-line="26" id="lnk12"><path codeLine="26" d="M908.61,93.7094 C885.13,131.7894 834.89,209.1494 781.5,265.6094 C737.13,312.5294 684.6709,354.6574 641.1309,386.9174" fill="none" id="SpatialExtent-to-XsdAnyUri" style="stroke:#404040;stroke-width:1.2;stroke-dasharray:7,7;"/><polygon fill="#404040" points="636.31,390.4894,645.9227,388.3454,640.3274,387.5128,641.1601,381.9175,636.31,390.4894" style="stroke:#404040;stroke-width:1.2;"/><text fill="#000000" font-family="sans-serif" font-size="36" lengthAdjust="spacing" textLength="136.0723" x="820.5" y="256.9805">identifier</text></g><!--link QualityMeasure to XsdAnyUri--><g class="link" data-entity-1="ent0013" data-entity-2="ent0002" data-link-type="dependency" data-source-line="28" id="lnk14"><path codeLine="28" d="M1126.32,93.6294 C1097.41,133.3394 1033.27,215.2694 962.5,265.6094 C870.93,330.7494 756.2112,376.6398 673.3312,404.7898" fill="none" id="QualityMeasure-to-XsdAnyUri" style="stroke:#404040;stroke-width:1.2;stroke-dasharray:7,7;"/><polygon fill="#404040" points="667.65,406.7194,677.4583,407.6124,672.3844,405.1114,674.8855,400.0374,667.65,406.7194" style="stroke:#404040;stroke-width:1.2;"/><text fill="#000000" font-family="sans-serif" font-size="36" lengthAdjust="spacing" textLength="97.998" x="1018.5" y="256.9805">metric</text></g><?plantuml-src XP8zRy8m48Pt_meBTaIXTAWG4kLZwz2ILbqF-m8MZXsT7T6qwd-lcq3Yf0FnOZ-NU_pc5A-yHlxXvDAKRwJOKKdaGf7GMEynott9CypsI8wvap8v46JS7K7Qip87de9s65MMHFQS79Ku6NIEtuqcKP70d1pcV38RHzHOYHMDeSGK2kstrlYT-a8-VOYAGaDmVpDUNxUosX8Vte__Le1FbYHIdyQgqEWzgNtXiSLZziDOhHuqCnbmSEs4-7mkmKDIvhXOyE5skPcjfzUUTQWuz5N7PS-7c-fXr_Dej8XiZpmCsNYLAgIhPHNUrFRmYY9yHUNgaCROfNsli2QrbBd4DkamLGPbWfJL2Tjpcp9YjvE-0odOQtn6S0LX7ROF6_U_mkqBTZbu1NhpwKEbidT8e-xIszwN0hJovIL99UwYnjp3VNM6uISIx1S0?></g></svg>