<svg xmlns="http://www.w3.org/2000/svg" xmlns:xlink="http://www.w3.org/1999/xlink" contentStyleType="text/css" data-diagram-type="CLASS" height="202px" preserveAspectRatio="none" style="width:1405px;height:202px;background:#FFFFFF;" version="1.1" viewBox="0 0 1405 202" width="1405px" zoomAndPan="magnify"><?plantuml 1.2026.3?><defs/><g><g class="title" data-source-line="1"><text fill="#000000" font-family="sans-serif" font-size="14" font-weight="700" lengthAdjust="spacing" textLength="56.0205" x="670.9933" y="24.5332">XsdDate</text></g><!--class XsdDate--><g class="entity" data-qualified-name="XsdDate" data-source-line="12" id="ent0002"><rect fill="#FAE5D3" height="40.1875" rx="2.5" ry="2.5" style="stroke:#404040;stroke-width:0.5;" width="65.3809" x="658.22" y="148.6094"/><text fill="#000000" font-family="sans-serif" font-size="12" font-style="italic" lengthAdjust="spacing" textLength="63.3809" x="659.22" y="166.0664">&#171;dataType&#187;</text><text fill="#000000" font-family="sans-serif" font-size="12" lengthAdjust="spacing" textLength="46.0254" x="667.8977" y="181.1602">XsdDate</text></g><!--class Dataset--><g class="entity" data-qualified-name="Dataset" data-source-line="13" id="ent0003"><rect fill="#EEEEEE" height="25.0938" rx="2.5" ry="2.5" style="stroke:#404040;stroke-width:0.5;" width="47.3555" x="60.22" y="45.6094"/><text fill="#000000" font-family="sans-serif" font-size="12" lengthAdjust="spacing" textLength="41.3555" x="63.22" y="63.0664">Dataset</text></g><!--class TemporalExtent--><g class="entity" data-qualified-name="TemporalExtent" data-source-line="16" id="ent0006"><rect fill="#EEEEEE" height="25.0938" rx="2.5" ry="2.5" style="stroke:#404040;stroke-width:0.5;" width="90.7031" x="251.22" y="45.6094"/><text fill="#000000" font-family="sans-serif" font-size="12" lengthAdjust="spacing" textLength="84.7031" x="254.22" y="63.0664">TemporalExtent</text></g><!--class DataDownload--><g class="entity" data-qualified-name="DataDownload" data-source-line="19" id="ent0009"><rect fill="#EEEEEE" height="25.0938" rx="2.5" ry="2.5" style="stroke:#404040;stroke-width:0.5;" width="84.7148" x="466.22" y="45.6094"/><text fill="#000000" font-family="sans-serif" font-size="12" lengthAdjust="spacing" textLength="78.7148" x="469.22" y="63.0664">DataDownload</text></g><!--class Contributor--><g class="entity" data-qualified-name="Contributor" data-source-line="22" id="ent0012"><rect fill="#EEEEEE" height="25.0938" rx="2.5" ry="2.5" style="stroke:#404040;stroke-width:0.5;" width="65.3613" x="699.22" y="45.6094"/><text fill="#000000" font-family="sans-serif" font-size="12" lengthAdjust="spacing" textLength="59.3613" x="702.22" y="63.0664">Contributor</text></g><!--class ProvActivity--><g class="entity" data-qualified-name="ProvActivity" data-source-line="25" id="ent0015"><rect fill="#EEEEEE" height="25.0938" rx="2.5" ry="2.5" style="stroke:#404040;stroke-width:0.5;" width="68.6777" x="902.22" y="45.6094"/><text fill="#000000" font-family="sans-serif" font-size="12" lengthAdjust="spacing" textLength="62.6777" x="905.22" y="63.0664">ProvActivity</text></g><!--class CatalogRecord--><g class="entity" data-qualified-name="CatalogRecord" data-source-line="28" id="ent0018"><rect fill="#EEEEEE" height="25.0938" rx="2.5" ry="2.5" style="stroke:#404040;stroke-width:0.5;" width="86.0449" x="1186.72" y="45.6094"/><text fill="#000000" font-family="sans-serif" font-size="12" lengthAdjust="spacing" textLength="80.0449" x="1189.72" y="63.0664">CatalogRecord</text></g><!--link Dataset to XsdDate--><g class="link" data-entity-1="ent0003" data-entity-2="ent0002" data-link-type="dependency" data-source-line="14" id="lnk4"><path codeLine="14" d="M60.2,69.3294 C36.61,80.9394 6,100.6194 22.72,118.6094 C66.3,165.5094 523.35,167.9901 651.82,167.7601" fill="none" id="Dataset-to-XsdDate" style="stroke:#404040;stroke-width:1.2;stroke-dasharray:7,7;"/><polygon fill="#404040" points="657.82,167.7494,648.8129,163.7655,652.82,167.7583,648.8272,171.7655,657.82,167.7494" style="stroke:#404040;stroke-width:1.2;"/><text fill="#000000" font-family="sans-serif" font-size="13" lengthAdjust="spacing" textLength="74.439" x="23.72" y="115.1045">dateModified</text></g><!--link Dataset to XsdDate--><g class="link" data-entity-1="ent0003" data-entity-2="ent0002" data-link-type="dependency" data-source-line="15" id="lnk5"><path codeLine="15" d="M95.43,70.6794 C110.5,84.7494 138.15,107.9394 166.72,118.6094 C257.55,152.5494 551.9725,163.7161 651.9925,166.6061" fill="none" id="Dataset-to-XsdDate-1" style="stroke:#404040;stroke-width:1.2;stroke-dasharray:7,7;"/><polygon fill="#404040" points="657.99,166.7794,649.1093,162.5211,652.9921,166.635,648.8782,170.5178,657.99,166.7794" style="stroke:#404040;stroke-width:1.2;"/><text fill="#000000" font-family="sans-serif" font-size="13" lengthAdjust="spacing" textLength="82.3989" x="167.72" y="115.1045">datePublished</text></g><!--link TemporalExtent to XsdDate--><g class="link" data-entity-1="ent0006" data-entity-2="ent0002" data-link-type="dependency" data-source-line="17" id="lnk7"><path codeLine="17" d="M281.93,70.7694 C267.55,83.4794 249.65,103.9594 262.72,118.6094 C288.98,148.0494 556.7155,161.9931 652.1355,166.0731" fill="none" id="TemporalExtent-to-XsdDate" style="stroke:#404040;stroke-width:1.2;stroke-dasharray:7,7;"/><polygon fill="#404040" points="658.13,166.3294,649.3091,161.9486,653.1346,166.1158,648.9673,169.9412,658.13,166.3294" style="stroke:#404040;stroke-width:1.2;"/><text fill="#000000" font-family="sans-serif" font-size="13" lengthAdjust="spacing" textLength="52.7427" x="263.72" y="115.1045">startDate</text></g><!--link TemporalExtent to XsdDate--><g class="link" data-entity-1="ent0006" data-entity-2="ent0002" data-link-type="dependency" data-source-line="18" id="lnk8"><path codeLine="18" d="M309.97,70.8394 C326.32,84.6194 355.56,107.0794 384.72,118.6094 C479.02,155.9094 594.3641,164.628 651.7841,166.748" fill="none" id="TemporalExtent-to-XsdDate-1" style="stroke:#404040;stroke-width:1.2;stroke-dasharray:7,7;"/><polygon fill="#404040" points="657.78,166.9694,648.9337,162.64,652.7834,166.7849,648.6385,170.6346,657.78,166.9694" style="stroke:#404040;stroke-width:1.2;"/><text fill="#000000" font-family="sans-serif" font-size="13" lengthAdjust="spacing" textLength="49.1499" x="385.72" y="115.1045">endDate</text></g><!--link DataDownload to XsdDate--><g class="link" data-entity-1="ent0009" data-entity-2="ent0002" data-link-type="dependency" data-source-line="20" id="lnk10"><path codeLine="20" d="M482.23,70.6394 C459.62,82.0994 432.91,100.5194 447.72,118.6094 C473.95,150.6594 592.1418,161.844 652.1318,165.604" fill="none" id="DataDownload-to-XsdDate" style="stroke:#404040;stroke-width:1.2;stroke-dasharray:7,7;"/><polygon fill="#404040" points="658.12,165.9794,649.3878,161.4242,653.1298,165.6666,648.8874,169.4086,658.12,165.9794" style="stroke:#404040;stroke-width:1.2;"/><text fill="#000000" font-family="sans-serif" font-size="13" lengthAdjust="spacing" textLength="74.439" x="448.72" y="115.1045">dateModified</text></g><!--link DataDownload to XsdDate--><g class="link" data-entity-1="ent0009" data-entity-2="ent0002" data-link-type="dependency" data-source-line="21" id="lnk11"><path codeLine="21" d="M523.22,70.6094 C539.41,83.1894 566.64,103.5494 591.72,118.6094 C613.09,131.4394 632.8501,141.348 652.4701,150.478" fill="none" id="DataDownload-to-XsdDate-1" style="stroke:#404040;stroke-width:1.2;stroke-dasharray:7,7;"/><polygon fill="#404040" points="657.91,153.0094,651.4378,145.5857,653.3768,150.8999,648.0626,152.8389,657.91,153.0094" style="stroke:#404040;stroke-width:1.2;"/><text fill="#000000" font-family="sans-serif" font-size="13" lengthAdjust="spacing" textLength="82.3989" x="592.72" y="115.1045">datePublished</text></g><!--link Contributor to XsdDate--><g class="link" data-entity-1="ent0012" data-entity-2="ent0002" data-link-type="dependency" data-source-line="23" id="lnk13"><path codeLine="23" d="M713.26,70.9494 C703.7,78.2194 692.96,88.4594 687.72,100.6094 C681.21,115.6794 681.6188,128.5928 684.3488,142.4328" fill="none" id="Contributor-to-XsdDate" style="stroke:#404040;stroke-width:1.2;stroke-dasharray:7,7;"/><polygon fill="#404040" points="685.51,148.3194,687.6927,138.7154,684.5424,143.4139,679.8439,140.2636,685.51,148.3194" style="stroke:#404040;stroke-width:1.2;"/><text fill="#000000" font-family="sans-serif" font-size="13" lengthAdjust="spacing" textLength="52.7427" x="688.72" y="115.1045">startDate</text></g><!--link Contributor to XsdDate--><g class="link" data-entity-1="ent0012" data-entity-2="ent0002" data-link-type="dependency" data-source-line="24" id="lnk14"><path codeLine="24" d="M738.84,70.9394 C745.28,83.2594 752.75,102.9194 745.72,118.6094 C740.43,130.3994 735.4228,136.7334 725.6428,144.6534" fill="none" id="Contributor-to-XsdDate-1" style="stroke:#404040;stroke-width:1.2;stroke-dasharray:7,7;"/><polygon fill="#404040" points="720.98,148.4294,730.4915,145.8739,724.8657,145.2827,725.4569,139.6568,720.98,148.4294" style="stroke:#404040;stroke-width:1.2;"/><text fill="#000000" font-family="sans-serif" font-size="13" lengthAdjust="spacing" textLength="49.1499" x="749.72" y="115.1045">endDate</text></g><!--link ProvActivity to XsdDate--><g class="link" data-entity-1="ent0015" data-entity-2="ent0002" data-link-type="dependency" data-source-line="26" id="lnk16"><path codeLine="26" d="M912.1,70.7794 C886.23,82.9694 844.29,102.5194 807.72,118.6094 C779.5,131.0194 752.6985,142.2258 729.1785,151.9058" fill="none" id="ProvActivity-to-XsdDate" style="stroke:#404040;stroke-width:1.2;stroke-dasharray:7,7;"/><polygon fill="#404040" points="723.63,154.1894,733.4751,154.463,728.2537,152.2864,730.4303,147.0651,723.63,154.1894" style="stroke:#404040;stroke-width:1.2;"/><text fill="#000000" font-family="sans-serif" font-size="13" lengthAdjust="spacing" textLength="80.9136" x="848.72" y="115.1045">startedAtTime</text></g><!--link ProvActivity to XsdDate--><g class="link" data-entity-1="ent0015" data-entity-2="ent0002" data-link-type="dependency" data-source-line="27" id="lnk17"><path codeLine="27" d="M940.89,70.6094 C944.86,83.7594 948.73,105.1994 937.72,118.6094 C910.95,151.2094 790.1396,162.1566 729.3596,165.7366" fill="none" id="ProvActivity-to-XsdDate-1" style="stroke:#404040;stroke-width:1.2;stroke-dasharray:7,7;"/><polygon fill="#404040" points="723.37,166.0894,732.5896,169.5533,728.3613,165.7954,732.1192,161.5671,723.37,166.0894" style="stroke:#404040;stroke-width:1.2;"/><text fill="#000000" font-family="sans-serif" font-size="13" lengthAdjust="spacing" textLength="77.3208" x="945.72" y="115.1045">endedAtTime</text></g><!--link CatalogRecord to XsdDate--><g class="link" data-entity-1="ent0018" data-entity-2="ent0002" data-link-type="dependency" data-source-line="29" id="lnk19"><path codeLine="29" d="M1196.83,70.6394 C1157.87,83.9194 1090.78,105.5694 1031.72,118.6094 C919.88,143.3094 790.5105,157.8752 729.4205,163.9552" fill="none" id="CatalogRecord-to-XsdDate" style="stroke:#404040;stroke-width:1.2;stroke-dasharray:7,7;"/><polygon fill="#404040" points="723.45,164.5494,732.8019,167.6384,728.4254,164.0542,732.0096,159.6777,723.45,164.5494" style="stroke:#404040;stroke-width:1.2;"/><text fill="#000000" font-family="sans-serif" font-size="13" lengthAdjust="spacing" textLength="71.5508" x="1099.72" y="115.1045">dateCreated</text></g><!--link CatalogRecord to XsdDate--><g class="link" data-entity-1="ent0018" data-entity-2="ent0002" data-link-type="dependency" data-source-line="30" id="lnk20"><path codeLine="30" d="M1223.73,70.6194 C1215.76,84.6394 1200.24,107.7694 1179.72,118.6094 C1100.12,160.6494 825.5398,166.6282 729.3598,167.4482" fill="none" id="CatalogRecord-to-XsdDate-1" style="stroke:#404040;stroke-width:1.2;stroke-dasharray:7,7;"/><polygon fill="#404040" points="723.36,167.4994,732.3938,171.4225,728.3598,167.4567,732.3256,163.4228,723.36,167.4994" style="stroke:#404040;stroke-width:1.2;"/><text fill="#000000" font-family="sans-serif" font-size="13" lengthAdjust="spacing" textLength="74.439" x="1202.72" y="115.1045">dateModified</text></g><!--link CatalogRecord to XsdDate--><g class="link" data-entity-1="ent0018" data-entity-2="ent0002" data-link-type="dependency" data-source-line="31" id="lnk21"><path codeLine="31" d="M1253.52,70.6694 C1275.05,82.6094 1301.19,101.8094 1285.72,118.6094 C1247.45,160.1594 848.8898,166.4311 729.6298,167.3911" fill="none" id="CatalogRecord-to-XsdDate-2" style="stroke:#404040;stroke-width:1.2;stroke-dasharray:7,7;"/><polygon fill="#404040" points="723.63,167.4394,732.6619,171.3668,728.6298,167.3991,732.5975,163.3671,723.63,167.4394" style="stroke:#404040;stroke-width:1.2;"/><text fill="#000000" font-family="sans-serif" font-size="13" lengthAdjust="spacing" textLength="98.2871" x="1290.72" y="115.1045">sdDatePublished</text></g><?plantuml-src XPBBRi8m44Nt_eeHx56XxQP2I2cFNINKPj6jYGTYuTXeRA2qwh_NpSCuj8H4YiRNHtDzFN7IAOHtAsRS8SkbGCWaPQgkiTYv4nHOh90iirkfTvnu0JRdmXobti2QAulHJa9aZcakiwr6Qs4u64MRcU9U-s9GOLEZ347_uUxtzUAp8O5qgIwCTc_o4s4uOj-CLJrwzP5xm6rpV1YF1NSyFUrmCe7-8fa_pkuRtWFSeYlvkeR-l7nOinuC9g7N4_XU-6A4N4iK7SXolrBIvfwfdL9_QOQucdyur9LXMmg-5tAxjtMSN3cLJWnrDReevimSjJ9SXAoDq0eSn1kfExW_qQT-L2HNUsUeD8_MmJlMhYM-pbp4NP8v99cJ1-bEfMCi1CkM-8ydYiIbii0kq1i7h4dhRqUPpIjc_h-jyiRAEN5B_NkDKqB_5JUvC9Oki2hEa_a1?></g></svg>