<svg xmlns="http://www.w3.org/2000/svg" xmlns:xlink="http://www.w3.org/1999/xlink" contentStyleType="text/css" data-diagram-type="CLASS" height="1811px" preserveAspectRatio="none" style="width:2989px;height:1811px;background:#FFFFFF;" version="1.1" viewBox="0 0 2989 1811" width="2989px" zoomAndPan="magnify"><?plantuml 1.2026.3?><defs/><g><g class="title" data-source-line="1"><text fill="#000000" font-family="sans-serif" font-size="14" font-weight="700" lengthAdjust="spacing" textLength="180.9678" x="1400.915" y="24.5332">CoreDiscovery &#8212; overview</text></g><!--class CompositeProfile--><g class="entity" data-qualified-name="CompositeProfile" data-source-line="16" id="ent0002"><rect fill="#FEFECE" height="35.1563" rx="2.5" ry="2.5" style="stroke:#404040;stroke-width:0.5;" width="158.2852" x="7" y="45.6094"/><text fill="#000000" font-family="sans-serif" font-size="20" font-style="italic" lengthAdjust="spacing" textLength="152.2852" x="10" y="71.3711">CompositeProfile</text></g><!--class Dataset--><g class="entity" data-qualified-name="Dataset" data-source-line="17" id="ent0003"><rect fill="#FEFECE" height="35.1563" rx="2.5" ry="2.5" style="stroke:#404040;stroke-width:0.5;" width="74.9258" x="1233.5" y="45.6094"/><text fill="#000000" font-family="sans-serif" font-size="20" lengthAdjust="spacing" textLength="68.9258" x="1236.5" y="71.3711">Dataset</text></g><!--class AbstractDistribution--><g class="entity" data-qualified-name="AbstractDistribution" data-source-line="18" id="ent0004"><rect fill="#D6EAF8" height="35.1563" rx="2.5" ry="2.5" style="stroke:#404040;stroke-width:0.5;" width="179.3984" x="726.5" y="474.6094"/><text fill="#000000" font-family="sans-serif" font-size="20" font-style="italic" lengthAdjust="spacing" textLength="173.3984" x="729.5" y="500.3711">AbstractDistribution</text></g><!--class DataDownload--><g class="entity" data-qualified-name="DataDownload" data-source-line="19" id="ent0005"><rect fill="#FEFECE" height="35.1563" rx="2.5" ry="2.5" style="stroke:#404040;stroke-width:0.5;" width="137.1914" x="747.5" y="904.6094"/><text fill="#000000" font-family="sans-serif" font-size="20" lengthAdjust="spacing" textLength="131.1914" x="750.5" y="930.3711">DataDownload</text></g><!--class WebAPI--><g class="entity" data-qualified-name="WebAPI" data-source-line="20" id="ent0006"><rect fill="#FCF3CF" height="35.1563" rx="2.5" ry="2.5" style="stroke:#404040;stroke-width:0.5;" width="79.3594" x="1002.5" y="904.6094"/><text fill="#000000" font-family="sans-serif" font-size="20" lengthAdjust="spacing" textLength="73.3594" x="1005.5" y="930.3711">WebAPI</text></g><!--class Action--><g class="entity" data-qualified-name="Action" data-source-line="21" id="ent0007"><rect fill="#D6EAF8" height="35.1563" rx="2.5" ry="2.5" style="stroke:#404040;stroke-width:0.5;" width="61.5859" x="909" y="1333.6094"/><text fill="#000000" font-family="sans-serif" font-size="20" lengthAdjust="spacing" textLength="55.5859" x="912" y="1359.3711">Action</text></g><!--class EntryPoint--><g class="entity" data-qualified-name="EntryPoint" data-source-line="22" id="ent0008"><rect fill="#D6EAF8" height="35.1563" rx="2.5" ry="2.5" style="stroke:#404040;stroke-width:0.5;" width="98.2656" x="769" y="1762.6094"/><text fill="#000000" font-family="sans-serif" font-size="20" lengthAdjust="spacing" textLength="92.2656" x="772" y="1788.3711">EntryPoint</text></g><!--class ActionResult--><g class="entity" data-qualified-name="ActionResult" data-source-line="23" id="ent0009"><rect fill="#FCF3CF" height="35.1563" rx="2.5" ry="2.5" style="stroke:#404040;stroke-width:0.5;" width="118.2754" x="881" y="1762.6094"/><text fill="#000000" font-family="sans-serif" font-size="20" lengthAdjust="spacing" textLength="112.2754" x="884" y="1788.3711">ActionResult</text></g><!--class PropertyValueSpecification--><g class="entity" data-qualified-name="PropertyValueSpecification" data-source-line="24" id="ent0010"><rect fill="#D6EAF8" height="35.1563" rx="2.5" ry="2.5" style="stroke:#404040;stroke-width:0.5;" width="246.1367" x="1013" y="1762.6094"/><text fill="#000000" font-family="sans-serif" font-size="20" lengthAdjust="spacing" textLength="240.1367" x="1016" y="1788.3711">PropertyValueSpecification</text></g><!--class Agent--><g class="entity" data-qualified-name="Agent" data-source-line="25" id="ent0011"><rect fill="#D6EAF8" height="35.1563" rx="2.5" ry="2.5" style="stroke:#404040;stroke-width:0.5;" width="58.2656" x="580" y="1333.6094"/><text fill="#000000" font-family="sans-serif" font-size="20" font-style="italic" lengthAdjust="spacing" textLength="52.2656" x="583" y="1359.3711">Agent</text></g><!--class Person--><g class="entity" data-qualified-name="Person" data-source-line="26" id="ent0012"><rect fill="#D6EAF8" height="35.1563" rx="2.5" ry="2.5" style="stroke:#404040;stroke-width:0.5;" width="69.3691" x="628.5" y="1762.6094"/><text fill="#000000" font-family="sans-serif" font-size="20" lengthAdjust="spacing" textLength="63.3691" x="631.5" y="1788.3711">Person</text></g><!--class ContactPoint--><g class="entity" data-qualified-name="ContactPoint" data-source-line="27" id="ent0013"><rect fill="#D6EAF8" height="35.1563" rx="2.5" ry="2.5" style="stroke:#404040;stroke-width:0.5;" width="120.5117" x="179.5" y="45.6094"/><text fill="#000000" font-family="sans-serif" font-size="20" lengthAdjust="spacing" textLength="114.5117" x="182.5" y="71.3711">ContactPoint</text></g><!--class Organization--><g class="entity" data-qualified-name="Organization" data-source-line="28" id="ent0014"><rect fill="#D6EAF8" height="35.1563" rx="2.5" ry="2.5" style="stroke:#404040;stroke-width:0.5;" width="119.3984" x="495.5" y="1762.6094"/><text fill="#000000" font-family="sans-serif" font-size="20" lengthAdjust="spacing" textLength="113.3984" x="498.5" y="1788.3711">Organization</text></g><!--class Contributor--><g class="entity" data-qualified-name="Contributor" data-source-line="29" id="ent0015"><rect fill="#D6EAF8" height="35.1563" rx="2.5" ry="2.5" style="stroke:#404040;stroke-width:0.5;" width="104.9355" x="660.5" y="689.6094"/><text fill="#000000" font-family="sans-serif" font-size="20" lengthAdjust="spacing" textLength="98.9355" x="663.5" y="715.3711">Contributor</text></g><!--class DefinedTerm--><g class="entity" data-qualified-name="DefinedTerm" data-source-line="30" id="ent0016"><rect fill="#FAE5D3" height="35.1563" rx="2.5" ry="2.5" style="stroke:#404040;stroke-width:0.5;" width="121.5957" x="1262" y="904.6094"/><text fill="#000000" font-family="sans-serif" font-size="20" lengthAdjust="spacing" textLength="115.5957" x="1265" y="930.3711">DefinedTerm</text></g><!--class Identifier--><g class="entity" data-qualified-name="Identifier" data-source-line="31" id="ent0017"><rect fill="#D6EAF8" height="35.1563" rx="2.5" ry="2.5" style="stroke:#404040;stroke-width:0.5;" width="82.709" x="44.5" y="474.6094"/><text fill="#000000" font-family="sans-serif" font-size="20" lengthAdjust="spacing" textLength="76.709" x="47.5" y="500.3711">Identifier</text></g><!--class AdditionalProperty--><g class="entity" data-qualified-name="AdditionalProperty" data-source-line="32" id="ent0018"><rect fill="#D6EAF8" height="35.1563" rx="2.5" ry="2.5" style="stroke:#404040;stroke-width:0.5;" width="169.4277" x="141.5" y="474.6094"/><text fill="#000000" font-family="sans-serif" font-size="20" lengthAdjust="spacing" textLength="163.4277" x="144.5" y="500.3711">AdditionalProperty</text></g><!--class Reference--><g class="entity" data-qualified-name="Reference" data-source-line="33" id="ent0019"><rect fill="#D6EAF8" height="35.1563" rx="2.5" ry="2.5" style="stroke:#404040;stroke-width:0.5;" width="98.2754" x="1773" y="474.6094"/><text fill="#000000" font-family="sans-serif" font-size="20" lengthAdjust="spacing" textLength="92.2754" x="1776" y="500.3711">Reference</text></g><!--class MonetaryGrant--><g class="entity" data-qualified-name="MonetaryGrant" data-source-line="34" id="ent0020"><rect fill="#D6EAF8" height="35.1563" rx="2.5" ry="2.5" style="stroke:#404040;stroke-width:0.5;" width="139.3887" x="871.5" y="689.6094"/><text fill="#000000" font-family="sans-serif" font-size="20" lengthAdjust="spacing" textLength="133.3887" x="874.5" y="715.3711">MonetaryGrant</text></g><!--class ProvActivity--><g class="entity" data-qualified-name="ProvActivity" data-source-line="35" id="ent0021"><rect fill="#FEFECE" height="35.1563" rx="2.5" ry="2.5" style="stroke:#404040;stroke-width:0.5;" width="110.4629" x="1885" y="474.6094"/><text fill="#000000" font-family="sans-serif" font-size="20" lengthAdjust="spacing" textLength="104.4629" x="1888" y="500.3711">ProvActivity</text></g><!--class DerivedFrom--><g class="entity" data-qualified-name="DerivedFrom" data-source-line="36" id="ent0022"><rect fill="#D6EAF8" height="35.1563" rx="2.5" ry="2.5" style="stroke:#404040;stroke-width:0.5;" width="121.5762" x="2009" y="474.6094"/><text fill="#000000" font-family="sans-serif" font-size="20" lengthAdjust="spacing" textLength="115.5762" x="2012" y="500.3711">DerivedFrom</text></g><!--class CatalogRecord--><g class="entity" data-qualified-name="CatalogRecord" data-source-line="37" id="ent0023"><rect fill="#FEFECE" height="35.1563" rx="2.5" ry="2.5" style="stroke:#404040;stroke-width:0.5;" width="139.4082" x="988.5" y="474.6094"/><text fill="#000000" font-family="sans-serif" font-size="20" lengthAdjust="spacing" textLength="133.4082" x="991.5" y="500.3711">CatalogRecord</text></g><!--class VariableMeasured--><g class="entity" data-qualified-name="VariableMeasured" data-source-line="38" id="ent0024"><rect fill="#D5F5E3" height="35.1563" rx="2.5" ry="2.5" style="stroke:#404040;stroke-width:0.5;" width="168.3145" x="1591" y="474.6094"/><text fill="#000000" font-family="sans-serif" font-size="20" lengthAdjust="spacing" textLength="162.3145" x="1594" y="500.3711">VariableMeasured</text></g><!--class SpatialExtent--><g class="entity" data-qualified-name="SpatialExtent" data-source-line="39" id="ent0025"><rect fill="#D5F5E3" height="35.1563" rx="2.5" ry="2.5" style="stroke:#404040;stroke-width:0.5;" width="123.8516" x="2185" y="474.6094"/><text fill="#000000" font-family="sans-serif" font-size="20" lengthAdjust="spacing" textLength="117.8516" x="2188" y="500.3711">SpatialExtent</text></g><!--class TemporalExtent--><g class="entity" data-qualified-name="TemporalExtent" data-source-line="40" id="ent0026"><rect fill="#D5F5E3" height="35.1563" rx="2.5" ry="2.5" style="stroke:#404040;stroke-width:0.5;" width="147.1719" x="2381.5" y="474.6094"/><text fill="#000000" font-family="sans-serif" font-size="20" lengthAdjust="spacing" textLength="141.1719" x="2384.5" y="500.3711">TemporalExtent</text></g><!--class QualityMeasure--><g class="entity" data-qualified-name="QualityMeasure" data-source-line="41" id="ent0027"><rect fill="#D5F5E3" height="35.1563" rx="2.5" ry="2.5" style="stroke:#404040;stroke-width:0.5;" width="146.0586" x="2616" y="474.6094"/><text fill="#000000" font-family="sans-serif" font-size="20" lengthAdjust="spacing" textLength="140.0586" x="2619" y="500.3711">QualityMeasure</text></g><!--reverse link AbstractDistribution to DataDownload--><g class="link" data-entity-1="ent0004" data-entity-2="ent0005" data-link-type="extension" data-source-line="42" id="lnk28"><path codeLine="42" d="M816,527.6294 C816,595.6794 816,836.0194 816,904.4094" fill="none" id="AbstractDistribution-backto-DataDownload" style="stroke:#404040;stroke-width:1.2;"/><polygon fill="none" points="816,509.6294,810,527.6294,822,527.6294,816,509.6294" style="stroke:#404040;stroke-width:1.2;"/></g><!--reverse link AbstractDistribution to WebAPI--><g class="link" data-entity-1="ent0004" data-entity-2="ent0006" data-link-type="extension" data-source-line="43" id="lnk29"><path codeLine="43" d="M857.1412,519.6225 C901.8012,549.4325 976.81,606.8594 1017,689.6094 C1052.68,763.0594 1047.62,864.7294 1043.89,904.3594" fill="none" id="AbstractDistribution-backto-WebAPI" style="stroke:#404040;stroke-width:1.2;"/><polygon fill="none" points="842.17,509.6294,853.8102,524.6129,860.4723,514.6321,842.17,509.6294" style="stroke:#404040;stroke-width:1.2;"/></g><!--reverse link Agent to Person--><g class="link" data-entity-1="ent0011" data-entity-2="ent0012" data-link-type="extension" data-source-line="44" id="lnk30"><path codeLine="44" d="M613.3787,1386.7071 C622.0187,1455.0171 652.29,1694.3894 660.9,1762.4894" fill="none" id="Agent-backto-Person" style="stroke:#404040;stroke-width:1.2;"/><polygon fill="none" points="611.12,1368.8494,607.4261,1387.46,619.3313,1385.9542,611.12,1368.8494" style="stroke:#404040;stroke-width:1.2;"/></g><!--reverse link Agent to Organization--><g class="link" data-entity-1="ent0011" data-entity-2="ent0014" data-link-type="extension" data-source-line="45" id="lnk31"><path codeLine="45" d="M604.6213,1386.7071 C595.9813,1455.0171 565.71,1694.3894 557.1,1762.4894" fill="none" id="Agent-backto-Organization" style="stroke:#404040;stroke-width:1.2;"/><polygon fill="none" points="606.88,1368.8494,598.6687,1385.9542,610.5739,1387.46,606.88,1368.8494" style="stroke:#404040;stroke-width:1.2;"/></g><!--link Dataset to Agent--><g class="link" data-entity-1="ent0003" data-entity-2="ent0011" data-link-type="dependency" data-source-line="46" id="lnk32"><path codeLine="46" d="M1233.48,67.7494 C1086.46,82.7694 551.97,144.6494 436,260.6094 C297.49,399.1094 357.6,495.0394 335,689.6094 C314.41,866.9094 314.96,919.1494 436,1153.6094 C475.82,1230.7494 547.9706,1298.2575 584.3606,1329.5475" fill="none" id="Dataset-to-Agent" style="stroke:#404040;stroke-width:1.2;"/><polygon fill="#404040" points="588.91,1333.4594,584.6937,1324.5586,585.1188,1330.1995,579.4779,1330.6246,588.91,1333.4594" style="stroke:#404040;stroke-width:1.2;"/><text fill="#000000" font-family="sans-serif" font-size="26" lengthAdjust="spacing" textLength="93.9326" x="336" y="718.0996">provider</text><text fill="#000000" font-family="sans-serif" font-size="26" lengthAdjust="spacing" textLength="39.0254" x="539.7343" y="1319.8969">0..*</text></g><!--link Dataset to Agent--><g class="link" data-entity-1="ent0003" data-entity-2="ent0011" data-link-type="dependency" data-source-line="48" id="lnk34"><path codeLine="48" d="M1233.2,63.5794 C1124.06,64.2594 806.23,82.1794 649,260.6094 C501.65,427.8194 590.8139,1203.4347 606.1539,1327.5347" fill="none" id="Dataset-to-Agent-1" style="stroke:#404040;stroke-width:1.2;"/><polygon fill="#404040" points="606.89,1333.4894,609.7557,1324.0666,606.2766,1328.5271,601.8161,1325.0481,606.89,1333.4894" style="stroke:#404040;stroke-width:1.2;"/><text fill="#000000" font-family="sans-serif" font-size="26" lengthAdjust="spacing" textLength="80.9199" x="567" y="718.0996">creator</text><text fill="#000000" font-family="sans-serif" font-size="26" lengthAdjust="spacing" textLength="39.0254" x="611.3154" y="1319.9346">0..*</text></g><!--link Dataset to Agent--><g class="link" data-entity-1="ent0003" data-entity-2="ent0011" data-link-type="dependency" data-source-line="50" id="lnk36"><path codeLine="50" d="M1233.13,64.7394 C1124.23,68.5694 806.55,94.2094 626,260.6094 C464.5,409.4494 429.72,506.5594 456,724.6094 C485.76,971.5694 577.4674,1256.059 601.4474,1327.779" fill="none" id="Dataset-to-Agent-2" style="stroke:#404040;stroke-width:1.2;"/><polygon fill="#404040" points="603.35,1333.4694,604.2897,1323.6654,601.7645,1328.7274,596.7025,1326.2022,603.35,1333.4694" style="stroke:#404040;stroke-width:1.2;"/><text fill="#000000" font-family="sans-serif" font-size="26" lengthAdjust="spacing" textLength="105.5107" x="457" y="718.0996">publisher</text><text fill="#000000" font-family="sans-serif" font-size="26" lengthAdjust="spacing" textLength="43.3672" x="528.5084" y="1358.8539">0..1</text></g><!--link Dataset to AbstractDistribution--><g class="link" data-entity-1="ent0003" data-entity-2="ent0004" data-link-type="dependency" data-source-line="47" id="lnk33"><path codeLine="47" d="M1233.18,66.9094 C1141.61,75.9494 908.37,113.1294 811,260.6094 C766.12,328.5894 793.7821,428.4713 807.8221,468.9113" fill="none" id="Dataset-to-AbstractDistribution" style="stroke:#404040;stroke-width:1.2;"/><polygon fill="#404040" points="809.79,474.5794,810.617,464.7653,808.1501,469.8559,803.0595,467.3891,809.79,474.5794" style="stroke:#404040;stroke-width:1.2;"/><text fill="#000000" font-family="sans-serif" font-size="26" lengthAdjust="spacing" textLength="125.7344" x="812" y="288.5996">distribution</text><text fill="#000000" font-family="sans-serif" font-size="26" lengthAdjust="spacing" textLength="39.0254" x="764.154" y="461.0476">0..*</text></g><!--link Dataset to Contributor--><g class="link" data-entity-1="ent0003" data-entity-2="ent0015" data-link-type="dependency" data-source-line="49" id="lnk35"><path codeLine="49" d="M1233.28,70.5494 C1112.34,92.0494 738.08,165.3894 669,260.6094 C569.05,398.3794 669.5996,621.1065 701.5296,684.1665" fill="none" id="Dataset-to-Contributor" style="stroke:#404040;stroke-width:1.2;"/><polygon fill="#404040" points="704.24,689.5194,703.743,679.6831,701.9813,685.0586,696.6058,683.2969,704.24,689.5194" style="stroke:#404040;stroke-width:1.2;"/><text fill="#000000" font-family="sans-serif" font-size="26" lengthAdjust="spacing" textLength="122.8398" x="670" y="288.5996">contributor</text><text fill="#000000" font-family="sans-serif" font-size="26" lengthAdjust="spacing" textLength="39.0254" x="658.0099" y="675.9722">0..*</text></g><!--link Dataset to MonetaryGrant--><g class="link" data-entity-1="ent0003" data-entity-2="ent0020" data-link-type="dependency" data-source-line="51" id="lnk37"><path codeLine="51" d="M1233.3,75.6094 C1165.76,98.4494 1025.56,156.5094 965,260.6094 C880.09,406.5594 921.0345,621.1545 935.4645,683.3745" fill="none" id="Dataset-to-MonetaryGrant" style="stroke:#404040;stroke-width:1.2;"/><polygon fill="#404040" points="936.82,689.2194,938.6833,679.5484,935.6904,684.3486,930.8901,681.3558,936.82,689.2194" style="stroke:#404040;stroke-width:1.2;"/><text fill="#000000" font-family="sans-serif" font-size="26" lengthAdjust="spacing" textLength="85.2998" x="966" y="288.5996">funding</text><text fill="#000000" font-family="sans-serif" font-size="26" lengthAdjust="spacing" textLength="39.0254" x="892.0037" y="676.0156">0..*</text></g><!--link Dataset to ProvActivity--><g class="link" data-entity-1="ent0003" data-entity-2="ent0021" data-link-type="dependency" data-source-line="52" id="lnk38"><path codeLine="52" d="M1308.76,69.5294 C1401.06,84.4694 1641.52,133.8994 1792,260.6094 C1805.41,271.8994 1802.77,279.7094 1812,294.6094 C1853.8,362.0994 1902.8464,435.8073 1925.4364,469.4673" fill="none" id="Dataset-to-ProvActivity" style="stroke:#404040;stroke-width:1.2;"/><polygon fill="#404040" points="1928.78,474.4494,1927.086,464.7473,1925.9937,470.2977,1920.4433,469.2054,1928.78,474.4494" style="stroke:#404040;stroke-width:1.2;"/><text fill="#000000" font-family="sans-serif" font-size="26" lengthAdjust="spacing" textLength="199.4434" x="1813" y="288.5996">wasGeneratedBy</text><text fill="#000000" font-family="sans-serif" font-size="26" lengthAdjust="spacing" textLength="39.0254" x="1881.8519" y="460.8843">0..*</text></g><!--link Dataset to DerivedFrom--><g class="link" data-entity-1="ent0003" data-entity-2="ent0022" data-link-type="dependency" data-source-line="53" id="lnk39"><path codeLine="53" d="M1308.87,69.0494 C1445.47,87.6294 1910.19,157.4994 2012,260.6094 C2042.44,291.4394 2061.2166,420.8469 2067.2466,468.4869" fill="none" id="Dataset-to-DerivedFrom" style="stroke:#404040;stroke-width:1.2;"/><polygon fill="#404040" points="2068,474.4394,2070.8382,465.0083,2067.3721,469.479,2062.9015,466.0129,2068,474.4394" style="stroke:#404040;stroke-width:1.2;"/><text fill="#000000" font-family="sans-serif" font-size="26" lengthAdjust="spacing" textLength="196.4854" x="2032" y="288.5996">wasDerivedFrom</text><text fill="#000000" font-family="sans-serif" font-size="26" lengthAdjust="spacing" textLength="39.0254" x="2023.5482" y="460.8717">0..*</text></g><!--link Dataset to CatalogRecord--><g class="link" data-entity-1="ent0003" data-entity-2="ent0023" data-link-type="dependency" data-source-line="54" id="lnk40"><path codeLine="54" d="M1259.16,80.8594 C1236.01,114.0494 1183.99,191.0094 1149,260.6094 C1110.16,337.8694 1078.0994,430.2146 1065.3094,468.7646" fill="none" id="Dataset-to-CatalogRecord" style="stroke:#404040;stroke-width:1.2;"/><polygon fill="#404040" points="1063.42,474.4594,1070.0506,467.1768,1064.9945,469.7137,1062.4576,464.6577,1063.42,474.4594" style="stroke:#404040;stroke-width:1.2;"/><text fill="#000000" font-family="sans-serif" font-size="26" lengthAdjust="spacing" textLength="109.8271" x="1150" y="288.5996">subjectOf</text><text fill="#000000" font-family="sans-serif" font-size="26" lengthAdjust="spacing" textLength="14.46" x="1049.0218" y="460.8969">1</text></g><!--link CatalogRecord to Dataset--><g class="link" data-entity-1="ent0023" data-entity-2="ent0003" data-link-type="dependency" data-source-line="69" id="lnk55"><path codeLine="69" d="M1054.4,474.5294 C1046.74,435.2794 1032.05,334.4594 1065,260.6094 C1102.66,176.2094 1190.1293,113.4351 1237.2893,84.0151" fill="none" id="CatalogRecord-to-Dataset" style="stroke:#404040;stroke-width:1.2;"/><polygon fill="#404040" points="1242.38,80.8394,1232.6269,82.2092,1238.1378,83.4858,1236.8612,88.9967,1242.38,80.8394" style="stroke:#404040;stroke-width:1.2;"/><text fill="#000000" font-family="sans-serif" font-size="26" lengthAdjust="spacing" textLength="65.0635" x="1066" y="288.5996">about</text><text fill="#000000" font-family="sans-serif" font-size="26" lengthAdjust="spacing" textLength="43.3672" x="1187.8408" y="115.6929">0..1</text></g><!--link Dataset to DefinedTerm--><g class="link" data-entity-1="ent0003" data-entity-2="ent0016" data-link-type="dependency" data-source-line="55" id="lnk41"><path codeLine="55" d="M1272.47,80.6794 C1275.37,119.0894 1279.88,216.8194 1259,294.6094 C1232.05,394.9894 1148.27,407.3694 1167,509.6094 C1196.46,670.4294 1282.9039,844.6102 1311.3839,899.1802" fill="none" id="Dataset-to-DefinedTerm" style="stroke:#404040;stroke-width:1.2;"/><polygon fill="#404040" points="1314.16,904.4994,1313.542,894.6699,1311.8466,900.0667,1306.4498,898.3713,1314.16,904.4994" style="stroke:#404040;stroke-width:1.2;"/><text fill="#000000" font-family="sans-serif" font-size="26" lengthAdjust="spacing" textLength="109.8145" x="1168" y="503.0996">keywords</text><text fill="#000000" font-family="sans-serif" font-size="26" lengthAdjust="spacing" textLength="39.0254" x="1267.9529" y="890.9471">0..*</text></g><!--link Dataset to DefinedTerm--><g class="link" data-entity-1="ent0003" data-entity-2="ent0016" data-link-type="dependency" data-source-line="57" id="lnk43"><path codeLine="57" d="M1272.02,80.8394 C1278.62,189.6194 1314.9966,789.1804 1321.6166,898.2804" fill="none" id="Dataset-to-DefinedTerm-1" style="stroke:#404040;stroke-width:1.2;"/><polygon fill="#404040" points="1321.98,904.2694,1325.4276,895.0436,1321.6772,899.2786,1317.4422,895.5282,1321.98,904.2694" style="stroke:#404040;stroke-width:1.2;"/><text fill="#000000" font-family="sans-serif" font-size="26" lengthAdjust="spacing" textLength="280.376" x="1299" y="503.0996">measurementTechnique</text><text fill="#000000" font-family="sans-serif" font-size="26" lengthAdjust="spacing" textLength="39.0254" x="1326.5369" y="891.0778">0..*</text></g><!--link Dataset to Reference--><g class="link" data-entity-1="ent0003" data-entity-2="ent0019" data-link-type="dependency" data-source-line="56" id="lnk42"><path codeLine="56" d="M1308.78,73.3794 C1388.12,94.4994 1574.36,152.8594 1691,260.6094 C1693.26,262.6894 1779.9154,416.3916 1809.6054,469.1016" fill="none" id="Dataset-to-Reference" style="stroke:#404040;stroke-width:1.2;"/><polygon fill="#404040" points="1812.55,474.3294,1811.6182,464.5247,1810.0961,469.9729,1804.6479,468.4509,1812.55,474.3294" style="stroke:#404040;stroke-width:1.2;"/><text fill="#000000" font-family="sans-serif" font-size="26" lengthAdjust="spacing" textLength="80.9326" x="1710" y="288.5996">license</text><text fill="#000000" font-family="sans-serif" font-size="26" lengthAdjust="spacing" textLength="39.0254" x="1766.0995" y="460.7336">0..*</text></g><!--reverse link Dataset to VariableMeasured--><g class="link" data-entity-1="ent0003" data-entity-2="ent0024" data-link-type="composition" data-source-line="58" id="lnk44"><path codeLine="58" d="M1294.1739,89.607 C1328.8339,127.717 1408.85,215.3194 1484,294.6094 C1547.82,361.9394 1625.23,440.7094 1658.5,474.4294" fill="none" id="Dataset-backto-VariableMeasured" style="stroke:#404040;stroke-width:1.2;"/><polygon fill="#404040" points="1286.1,80.7294,1287.1778,87.8595,1294.1739,89.607,1293.0962,82.4769,1286.1,80.7294" style="stroke:#404040;stroke-width:1.2;"/><text fill="#000000" font-family="sans-serif" font-size="26" lengthAdjust="spacing" textLength="206.667" x="1485" y="288.5996">variableMeasured</text><text fill="#000000" font-family="sans-serif" font-size="26" lengthAdjust="spacing" textLength="39.0254" x="1610.238" y="460.8592">0..*</text></g><!--reverse link Dataset to SpatialExtent--><g class="link" data-entity-1="ent0003" data-entity-2="ent0025" data-link-type="composition" data-source-line="59" id="lnk45"><path codeLine="59" d="M1320.6616,66.6636 C1482.4616,75.6336 2103.79,118.7694 2229,260.6094 C2256.89,292.2094 2251.14,427.0694 2248.17,474.5194" fill="none" id="Dataset-backto-SpatialExtent" style="stroke:#404040;stroke-width:1.2;"/><polygon fill="#404040" points="1308.68,65.9994,1314.4494,70.3254,1320.6616,66.6636,1314.8922,62.3376,1308.68,65.9994" style="stroke:#404040;stroke-width:1.2;"/><text fill="#000000" font-family="sans-serif" font-size="26" lengthAdjust="spacing" textLength="187.8906" x="2244" y="288.5996">spatialCoverage</text><text fill="#000000" font-family="sans-serif" font-size="26" lengthAdjust="spacing" textLength="39.0254" x="2204.4952" y="460.9722">0..*</text></g><!--reverse link Dataset to TemporalExtent--><g class="link" data-entity-1="ent0003" data-entity-2="ent0026" data-link-type="composition" data-source-line="60" id="lnk46"><path codeLine="60" d="M1320.7384,64.7575 C1503.0284,67.7675 2277.98,90.3794 2435,260.6094 C2490.83,321.1394 2470.07,432.5294 2459.58,474.5194" fill="none" id="Dataset-backto-TemporalExtent" style="stroke:#404040;stroke-width:1.2;"/><polygon fill="#404040" points="1308.74,64.5594,1314.6731,68.6579,1320.7384,64.7575,1314.8052,60.659,1308.74,64.5594" style="stroke:#404040;stroke-width:1.2;"/><text fill="#000000" font-family="sans-serif" font-size="26" lengthAdjust="spacing" textLength="213.8906" x="2456" y="288.5996">temporalCoverage</text><text fill="#000000" font-family="sans-serif" font-size="26" lengthAdjust="spacing" textLength="39.0254" x="2416.738" y="460.9722">0..*</text></g><!--reverse link Dataset to QualityMeasure--><g class="link" data-entity-1="ent0003" data-entity-2="ent0027" data-link-type="composition" data-source-line="61" id="lnk47"><path codeLine="61" d="M1320.7222,67.4362 C1534.4122,82.0162 2574.38,157.8494 2671,260.6094 C2727.37,320.5594 2705,432.2994 2693.85,474.4494" fill="none" id="Dataset-backto-QualityMeasure" style="stroke:#404040;stroke-width:1.2;"/><polygon fill="#404040" points="1308.75,66.6194,1314.4638,71.0185,1320.7222,67.4362,1315.0084,63.0371,1308.75,66.6194" style="stroke:#404040;stroke-width:1.2;"/><text fill="#000000" font-family="sans-serif" font-size="26" lengthAdjust="spacing" textLength="281.7979" x="2692" y="288.5996">hasQualityMeasurement</text><text fill="#000000" font-family="sans-serif" font-size="26" lengthAdjust="spacing" textLength="39.0254" x="2651.0917" y="460.8843">0..*</text></g><!--link DataDownload to Agent--><g class="link" data-entity-1="ent0005" data-entity-2="ent0011" data-link-type="dependency" data-source-line="62" id="lnk48"><path codeLine="62" d="M807.89,939.8494 C774.77,1008.1594 652.6871,1259.9902 619.6771,1328.0902" fill="none" id="DataDownload-to-Agent" style="stroke:#404040;stroke-width:1.2;"/><polygon fill="#404040" points="617.06,1333.4894,624.5851,1327.1354,619.2409,1328.9901,617.3862,1323.6459,617.06,1333.4894" style="stroke:#404040;stroke-width:1.2;"/><text fill="#000000" font-family="sans-serif" font-size="26" lengthAdjust="spacing" textLength="93.9326" x="720" y="1147.5996">provider</text><text fill="#000000" font-family="sans-serif" font-size="26" lengthAdjust="spacing" textLength="39.0254" x="646.5579" y="1359.0321">0..*</text></g><!--link WebAPI to Action--><g class="link" data-entity-1="ent0006" data-entity-2="ent0007" data-link-type="dependency" data-source-line="63" id="lnk49"><path codeLine="63" d="M1038,939.8494 C1021.68,1008.1594 961.6342,1259.5536 945.3642,1327.6536" fill="none" id="WebAPI-to-Action" style="stroke:#404040;stroke-width:1.2;"/><polygon fill="#404040" points="943.97,1333.4894,949.9519,1325.6652,945.1319,1328.6262,942.1709,1323.8062,943.97,1333.4894" style="stroke:#404040;stroke-width:1.2;"/><text fill="#000000" font-family="sans-serif" font-size="26" lengthAdjust="spacing" textLength="170.5615" x="996" y="1147.5996">potentialAction</text><text fill="#000000" font-family="sans-serif" font-size="26" lengthAdjust="spacing" textLength="39.0254" x="901.0467" y="1319.9346">0..*</text></g><!--link Action to EntryPoint--><g class="link" data-entity-1="ent0007" data-entity-2="ent0008" data-link-type="dependency" data-source-line="64" id="lnk50"><path codeLine="64" d="M933.18,1368.6894 C919.58,1402.2194 888.7,1480.6794 869,1548.6094 C846.11,1627.5294 828.8518,1718.3141 821.9818,1756.5241" fill="none" id="Action-to-EntryPoint" style="stroke:#404040;stroke-width:1.2;"/><polygon fill="#404040" points="820.92,1762.4294,826.4495,1754.2792,821.8048,1757.5083,818.5758,1752.8636,820.92,1762.4294" style="stroke:#404040;stroke-width:1.2;"/><text fill="#000000" font-family="sans-serif" font-size="26" lengthAdjust="spacing" textLength="66.4854" x="870" y="1576.5996">target</text><text fill="#000000" font-family="sans-serif" font-size="26" lengthAdjust="spacing" textLength="14.46" x="805.8994" y="1748.8592">1</text></g><!--link Action to ActionResult--><g class="link" data-entity-1="ent0007" data-entity-2="ent0009" data-link-type="dependency" data-source-line="65" id="lnk51"><path codeLine="65" d="M940,1368.8494 C940,1437.1594 940,1688.3894 940,1756.4894" fill="none" id="Action-to-ActionResult" style="stroke:#404040;stroke-width:1.2;"/><polygon fill="#404040" points="940,1762.4894,944,1753.4894,940,1757.4894,936,1753.4894,940,1762.4894" style="stroke:#404040;stroke-width:1.2;"/><text fill="#000000" font-family="sans-serif" font-size="26" lengthAdjust="spacing" textLength="63.5781" x="941" y="1576.5996">result</text><text fill="#000000" font-family="sans-serif" font-size="26" lengthAdjust="spacing" textLength="43.3672" x="891.5024" y="1748.9346">0..1</text></g><!--link Action to PropertyValueSpecification--><g class="link" data-entity-1="ent0007" data-entity-2="ent0010" data-link-type="dependency" data-source-line="66" id="lnk52"><path codeLine="66" d="M947.68,1368.8494 C979.04,1437.1594 1094.6069,1688.9364 1125.8669,1757.0364" fill="none" id="Action-to-PropertyValueSpecification" style="stroke:#404040;stroke-width:1.2;"/><polygon fill="#404040" points="1128.37,1762.4894,1128.2507,1752.6412,1126.2841,1757.9453,1120.9801,1755.9787,1128.37,1762.4894" style="stroke:#404040;stroke-width:1.2;"/><text fill="#000000" font-family="sans-serif" font-size="26" lengthAdjust="spacing" textLength="122.8652" x="1045" y="1576.5996">queryInput</text><text fill="#000000" font-family="sans-serif" font-size="26" lengthAdjust="spacing" textLength="39.0254" x="1082.4037" y="1748.9346">0..*</text></g><!--link Contributor to Agent--><g class="link" data-entity-1="ent0015" data-entity-2="ent0011" data-link-type="dependency" data-source-line="67" id="lnk53"><path codeLine="67" d="M701.57,724.7294 C679.86,757.4094 633.29,833.0494 616,904.6094 C576.57,1067.7694 598.1829,1268.4699 605.9129,1327.6499" fill="none" id="Contributor-to-Agent" style="stroke:#404040;stroke-width:1.2;"/><polygon fill="#404040" points="606.69,1333.5994,609.4906,1324.1571,606.0424,1328.6415,601.558,1325.1933,606.69,1333.5994" style="stroke:#404040;stroke-width:1.2;"/><text fill="#000000" font-family="sans-serif" font-size="26" lengthAdjust="spacing" textLength="122.8398" x="617" y="933.0996">contributor</text><text fill="#000000" font-family="sans-serif" font-size="26" lengthAdjust="spacing" textLength="43.3672" x="557.6017" y="1320.0727">0..1</text></g><!--link MonetaryGrant to Agent--><g class="link" data-entity-1="ent0020" data-entity-2="ent0011" data-link-type="dependency" data-source-line="68" id="lnk54"><path codeLine="68" d="M939.89,724.9294 C935.11,786.8994 911.94,1006.5794 817,1153.6094 C765.8,1232.8994 680.8969,1299.2443 638.0169,1329.9743" fill="none" id="MonetaryGrant-to-Agent" style="stroke:#404040;stroke-width:1.2;"/><polygon fill="#404040" points="633.14,1333.4694,642.7855,1331.4781,637.2041,1330.5568,638.1254,1324.9755,633.14,1333.4694" style="stroke:#404040;stroke-width:1.2;"/><text fill="#000000" font-family="sans-serif" font-size="26" lengthAdjust="spacing" textLength="73.7217" x="914" y="933.0996">funder</text><text fill="#000000" font-family="sans-serif" font-size="26" lengthAdjust="spacing" textLength="39.0254" x="644.292" y="1319.9094">0..*</text></g><!--link CatalogRecord to Agent--><g class="link" data-entity-1="ent0023" data-entity-2="ent0011" data-link-type="dependency" data-source-line="70" id="lnk56"><path codeLine="70" d="M1060.64,509.8394 C1075.86,607.2294 1150.41,1098.8694 1113,1153.6094 C1000.53,1318.1794 734.093,1344.6505 644.263,1348.9805" fill="none" id="CatalogRecord-to-Agent" style="stroke:#404040;stroke-width:1.2;"/><polygon fill="#404040" points="638.27,1349.2694,647.4521,1352.8314,643.2642,1349.0286,647.067,1344.8407,638.27,1349.2694" style="stroke:#404040;stroke-width:1.2;"/><text fill="#000000" font-family="sans-serif" font-size="26" lengthAdjust="spacing" textLength="121.3926" x="1117" y="933.0996">maintainer</text><text fill="#000000" font-family="sans-serif" font-size="26" lengthAdjust="spacing" textLength="43.3672" x="646.3696" y="1378.5599">0..1</text></g><!--link VariableMeasured to DefinedTerm--><g class="link" data-entity-1="ent0024" data-entity-2="ent0016" data-link-type="dependency" data-source-line="71" id="lnk57"><path codeLine="71" d="M1661.42,509.6294 C1605.45,577.6794 1396.7914,831.3854 1340.5414,899.7754" fill="none" id="VariableMeasured-to-DefinedTerm" style="stroke:#404040;stroke-width:1.2;"/><polygon fill="#404040" points="1336.73,904.4094,1345.5364,899.9994,1339.9061,900.5478,1339.3578,894.9175,1336.73,904.4094" style="stroke:#404040;stroke-width:1.2;"/><text fill="#000000" font-family="sans-serif" font-size="26" lengthAdjust="spacing" textLength="280.376" x="1511" y="718.0996">measurementTechnique</text><text fill="#000000" font-family="sans-serif" font-size="26" lengthAdjust="spacing" textLength="43.3672" x="1345.8565" y="890.8341">0..1</text></g><?plantuml-src XLRRJjmm47tFLrZmLWa4fQ0ggYejUwbuG510zDdhpEww97OwTdQxlKZzY7vXlwIJE1V72Q3LIfxZCnVFnOwLDWKsrGWpQOJU0kxPlpz_MRdQIjX56va04n952cuDMMxtB8Di2MWYyoHLpf5dp6nuedTIhTcAfmQydGcYtZrif7XIO0mxFNxhRI9NJmPoTdPnug5A9r2Yf-yyC84LBrAxqChUon_0tbvucoBbPFjdn9oxgKuriiDt9-MFm4kD2M28-gP8qLgKoy921vz4lwE8Bur5Bcpjus2girmRQU4MzKgcSC2uOI783XVpnNmwZsgb6RVSWAsuzRgbX0ucjKmbSH59hIh5iGrsEBkOJnRlVKSplLEfvadhhG72gBx0Sd9xLT7SaWZJnTbqqH0cedCknjpDbSNzhPRA7QqJGw9JlmD39VJiEI1qIqdC0Ut-aQS5tESWv4eAteRo_7RhTP3JDTGXLgimkbjgviPujGm9K-e9CjUTr0T2yWskkP8_ke1zOCnoLKoDhU5Q7jGMLb91yW2OkT9sCcLmCZ-VdJNKguHEIMa1PxGJ1tL94bc6nTCcgovB0pXKl8CL82ZX-h-LGjgrLc0vxZ_HfBlCzP118L1loyxOoZeG7nWC5Q3SGh90tUIZbGTPfYb8zVeE1Dq4Biy-4bf-v2ZvCeLhuAP0S1eXI3xE5-VpDkVtEHMOf_Fljkcr7XBI7-WgrTZZzw5GuNF1Kyf2xRvIw4EjmkX5yU7NqL7lDdY1vcw3oCrAXRYny16_gQFcJZiw-iWEJewFtnpKWnQpd2f8BmUESiOYY5dYYI-P5WYSvcICueyH4JjfG3xrGYsMgJIRyLZxVHkpLQ4IUk_6gBscZTcEcq-W0Bc5v78_fk1tRiNtW3wVekrtRinCiVmAmjwinYrtTqJCdc2_8oKpnkn6E6Qf5A3e5N_LOEOwBwFyFO3OAFcjwBJUK9VKMeFPYTasWCRK-WD4HtNojFm-uUjHJy4CnSpMm4jAmHp5RCDD7ojF6FNUqfTQlNvDVOgeUplNPLnq28T4zKPJNEy5fT0vhi7sA7N3-ezdpB1QX3pNYC-zb36ZKk7-IkM5ZVnf6PaBVtpwOp2IX78kA0NzBlMCDkcF6L_gqlTpnCPWnYaRz2UZWpRoxRxUcFy1?></g></svg>