<svg xmlns="http://www.w3.org/2000/svg" xmlns:xlink="http://www.w3.org/1999/xlink" contentStyleType="text/css" data-diagram-type="CLASS" height="1504px" preserveAspectRatio="none" style="width:4207px;height:1504px;background:#FFFFFF;" version="1.1" viewBox="0 0 4207 1504" width="4207px" zoomAndPan="magnify"><?plantuml 1.2026.3?><defs/><g><g class="title" data-source-line="1"><text fill="#000000" font-family="sans-serif" font-size="14" font-weight="700" lengthAdjust="spacing" textLength="180.9678" x="2009.6069" y="24.5332">CoreDiscovery &#8212; overview</text></g><!--class CompositeProfile--><g class="entity" data-qualified-name="CompositeProfile" data-source-line="16" id="ent0002"><rect fill="#FEFECE" height="47.7344" rx="2.5" ry="2.5" style="stroke:#404040;stroke-width:0.5;" width="234.4277" x="7" y="61.9453"/><text fill="#000000" font-family="sans-serif" font-size="30" font-style="italic" lengthAdjust="spacing" textLength="228.4277" x="10" y="98.0878">CompositeProfile</text></g><!--class Dataset--><g class="entity" data-qualified-name="Dataset" data-source-line="17" id="ent0003"><rect fill="#FEFECE" height="47.7344" rx="2.5" ry="2.5" style="stroke:#404040;stroke-width:0.5;" width="109.3887" x="1725.5" y="61.9453"/><text fill="#000000" font-family="sans-serif" font-size="30" lengthAdjust="spacing" textLength="103.3887" x="1728.5" y="98.0878">Dataset</text></g><!--class AbstractDistribution--><g class="entity" data-qualified-name="AbstractDistribution" data-source-line="18" id="ent0004"><rect fill="#D6EAF8" height="47.7344" rx="2.5" ry="2.5" style="stroke:#404040;stroke-width:0.5;" width="266.0977" x="1029" y="406.9453"/><text fill="#000000" font-family="sans-serif" font-size="30" font-style="italic" lengthAdjust="spacing" textLength="260.0977" x="1032" y="443.0878">AbstractDistribution</text></g><!--class DataDownload--><g class="entity" data-qualified-name="DataDownload" data-source-line="19" id="ent0005"><rect fill="#FEFECE" height="47.7344" rx="2.5" ry="2.5" style="stroke:#404040;stroke-width:0.5;" width="202.7871" x="1060.5" y="752.9453"/><text fill="#000000" font-family="sans-serif" font-size="30" lengthAdjust="spacing" textLength="196.7871" x="1063.5" y="789.0878">DataDownload</text></g><!--class WebAPI--><g class="entity" data-qualified-name="WebAPI" data-source-line="20" id="ent0006"><rect fill="#FCF3CF" height="47.7344" rx="2.5" ry="2.5" style="stroke:#404040;stroke-width:0.5;" width="116.0391" x="1428" y="752.9453"/><text fill="#000000" font-family="sans-serif" font-size="30" lengthAdjust="spacing" textLength="110.0391" x="1431" y="789.0878">WebAPI</text></g><!--class Action--><g class="entity" data-qualified-name="Action" data-source-line="21" id="ent0007"><rect fill="#D6EAF8" height="47.7344" rx="2.5" ry="2.5" style="stroke:#404040;stroke-width:0.5;" width="89.3789" x="1295.5" y="1097.9453"/><text fill="#000000" font-family="sans-serif" font-size="30" lengthAdjust="spacing" textLength="83.3789" x="1298.5" y="1134.0878">Action</text></g><!--class EntryPoint--><g class="entity" data-qualified-name="EntryPoint" data-source-line="22" id="ent0008"><rect fill="#D6EAF8" height="47.7344" rx="2.5" ry="2.5" style="stroke:#404040;stroke-width:0.5;" width="144.3984" x="1089" y="1442.9453"/><text fill="#000000" font-family="sans-serif" font-size="30" lengthAdjust="spacing" textLength="138.3984" x="1092" y="1479.0878">EntryPoint</text></g><!--class ActionResult--><g class="entity" data-qualified-name="ActionResult" data-source-line="23" id="ent0009"><rect fill="#FCF3CF" height="47.7344" rx="2.5" ry="2.5" style="stroke:#404040;stroke-width:0.5;" width="174.4131" x="1253" y="1442.9453"/><text fill="#000000" font-family="sans-serif" font-size="30" lengthAdjust="spacing" textLength="168.4131" x="1256" y="1479.0878">ActionResult</text></g><!--class PropertyValueSpecification--><g class="entity" data-qualified-name="PropertyValueSpecification" data-source-line="24" id="ent0010"><rect fill="#D6EAF8" height="47.7344" rx="2.5" ry="2.5" style="stroke:#404040;stroke-width:0.5;" width="366.2051" x="1447" y="1442.9453"/><text fill="#000000" font-family="sans-serif" font-size="30" lengthAdjust="spacing" textLength="360.2051" x="1450" y="1479.0878">PropertyValueSpecification</text></g><!--class Agent--><g class="entity" data-qualified-name="Agent" data-source-line="25" id="ent0011"><rect fill="#D6EAF8" height="47.7344" rx="2.5" ry="2.5" style="stroke:#404040;stroke-width:0.5;" width="84.3984" x="826" y="1097.9453"/><text fill="#000000" font-family="sans-serif" font-size="30" font-style="italic" lengthAdjust="spacing" textLength="78.3984" x="829" y="1134.0878">Agent</text></g><!--class Person--><g class="entity" data-qualified-name="Person" data-source-line="26" id="ent0012"><rect fill="#D6EAF8" height="47.7344" rx="2.5" ry="2.5" style="stroke:#404040;stroke-width:0.5;" width="101.0537" x="892.5" y="1442.9453"/><text fill="#000000" font-family="sans-serif" font-size="30" lengthAdjust="spacing" textLength="95.0537" x="895.5" y="1479.0878">Person</text></g><!--class ContactPoint--><g class="entity" data-qualified-name="ContactPoint" data-source-line="27" id="ent0013"><rect fill="#D6EAF8" height="47.7344" rx="2.5" ry="2.5" style="stroke:#404040;stroke-width:0.5;" width="177.7676" x="261" y="61.9453"/><text fill="#000000" font-family="sans-serif" font-size="30" lengthAdjust="spacing" textLength="171.7676" x="264" y="98.0878">ContactPoint</text></g><!--class Organization--><g class="entity" data-qualified-name="Organization" data-source-line="28" id="ent0014"><rect fill="#D6EAF8" height="47.7344" rx="2.5" ry="2.5" style="stroke:#404040;stroke-width:0.5;" width="176.0977" x="696" y="1442.9453"/><text fill="#000000" font-family="sans-serif" font-size="30" lengthAdjust="spacing" textLength="170.0977" x="699" y="1479.0878">Organization</text></g><!--class Contributor--><g class="entity" data-qualified-name="Contributor" data-source-line="29" id="ent0015"><rect fill="#D6EAF8" height="47.7344" rx="2.5" ry="2.5" style="stroke:#404040;stroke-width:0.5;" width="154.4033" x="936" y="579.9453"/><text fill="#000000" font-family="sans-serif" font-size="30" lengthAdjust="spacing" textLength="148.4033" x="939" y="616.0878">Contributor</text></g><!--class DefinedTerm--><g class="entity" data-qualified-name="DefinedTerm" data-source-line="30" id="ent0016"><rect fill="#D5F5E3" height="47.7344" rx="2.5" ry="2.5" style="stroke:#404040;stroke-width:0.5;" width="179.3936" x="1784.5" y="752.9453"/><text fill="#000000" font-family="sans-serif" font-size="30" lengthAdjust="spacing" textLength="173.3936" x="1787.5" y="789.0878">DefinedTerm</text></g><!--class Identifier--><g class="entity" data-qualified-name="Identifier" data-source-line="31" id="ent0017"><rect fill="#D6EAF8" height="47.7344" rx="2.5" ry="2.5" style="stroke:#404040;stroke-width:0.5;" width="121.0635" x="63.5" y="406.9453"/><text fill="#000000" font-family="sans-serif" font-size="30" lengthAdjust="spacing" textLength="115.0635" x="66.5" y="443.0878">Identifier</text></g><!--class AdditionalProperty--><g class="entity" data-qualified-name="AdditionalProperty" data-source-line="32" id="ent0018"><rect fill="#D6EAF8" height="47.7344" rx="2.5" ry="2.5" style="stroke:#404040;stroke-width:0.5;" width="251.1416" x="204.5" y="406.9453"/><text fill="#000000" font-family="sans-serif" font-size="30" lengthAdjust="spacing" textLength="245.1416" x="207.5" y="443.0878">AdditionalProperty</text></g><!--class Reference--><g class="entity" data-qualified-name="Reference" data-source-line="33" id="ent0019"><rect fill="#D6EAF8" height="47.7344" rx="2.5" ry="2.5" style="stroke:#404040;stroke-width:0.5;" width="144.4131" x="2504" y="406.9453"/><text fill="#000000" font-family="sans-serif" font-size="30" lengthAdjust="spacing" textLength="138.4131" x="2507" y="443.0878">Reference</text></g><!--class MonetaryGrant--><g class="entity" data-qualified-name="MonetaryGrant" data-source-line="34" id="ent0020"><rect fill="#D6EAF8" height="47.7344" rx="2.5" ry="2.5" style="stroke:#404040;stroke-width:0.5;" width="206.083" x="1221" y="579.9453"/><text fill="#000000" font-family="sans-serif" font-size="30" lengthAdjust="spacing" textLength="200.083" x="1224" y="616.0878">MonetaryGrant</text></g><!--class ProvActivity--><g class="entity" data-qualified-name="ProvActivity" data-source-line="35" id="ent0021"><rect fill="#FEFECE" height="47.7344" rx="2.5" ry="2.5" style="stroke:#404040;stroke-width:0.5;" width="162.6943" x="2668.5" y="406.9453"/><text fill="#000000" font-family="sans-serif" font-size="30" lengthAdjust="spacing" textLength="156.6943" x="2671.5" y="443.0878">ProvActivity</text></g><!--class DerivedFrom--><g class="entity" data-qualified-name="DerivedFrom" data-source-line="36" id="ent0022"><rect fill="#D6EAF8" height="47.7344" rx="2.5" ry="2.5" style="stroke:#404040;stroke-width:0.5;" width="179.3643" x="2851.5" y="406.9453"/><text fill="#000000" font-family="sans-serif" font-size="30" lengthAdjust="spacing" textLength="173.3643" x="2854.5" y="443.0878">DerivedFrom</text></g><!--class CatalogRecord--><g class="entity" data-qualified-name="CatalogRecord" data-source-line="37" id="ent0023"><rect fill="#FEFECE" height="47.7344" rx="2.5" ry="2.5" style="stroke:#404040;stroke-width:0.5;" width="206.1123" x="1384" y="406.9453"/><text fill="#000000" font-family="sans-serif" font-size="30" lengthAdjust="spacing" textLength="200.1123" x="1387" y="443.0878">CatalogRecord</text></g><!--class VariableMeasured--><g class="entity" data-qualified-name="VariableMeasured" data-source-line="38" id="ent0024"><rect fill="#D5F5E3" height="47.7344" rx="2.5" ry="2.5" style="stroke:#404040;stroke-width:0.5;" width="249.4717" x="2234.5" y="406.9453"/><text fill="#000000" font-family="sans-serif" font-size="30" lengthAdjust="spacing" textLength="243.4717" x="2237.5" y="443.0878">VariableMeasured</text></g><!--class SpatialExtent--><g class="entity" data-qualified-name="SpatialExtent" data-source-line="39" id="ent0025"><rect fill="#D5F5E3" height="47.7344" rx="2.5" ry="2.5" style="stroke:#404040;stroke-width:0.5;" width="182.7773" x="3099.5" y="406.9453"/><text fill="#000000" font-family="sans-serif" font-size="30" lengthAdjust="spacing" textLength="176.7773" x="3102.5" y="443.0878">SpatialExtent</text></g><!--class TemporalExtent--><g class="entity" data-qualified-name="TemporalExtent" data-source-line="40" id="ent0026"><rect fill="#D5F5E3" height="47.7344" rx="2.5" ry="2.5" style="stroke:#404040;stroke-width:0.5;" width="217.7578" x="3369" y="406.9453"/><text fill="#000000" font-family="sans-serif" font-size="30" lengthAdjust="spacing" textLength="211.7578" x="3372" y="443.0878">TemporalExtent</text></g><!--class QualityMeasure--><g class="entity" data-qualified-name="QualityMeasure" data-source-line="41" id="ent0027"><rect fill="#D5F5E3" height="47.7344" rx="2.5" ry="2.5" style="stroke:#404040;stroke-width:0.5;" width="216.0879" x="3693" y="406.9453"/><text fill="#000000" font-family="sans-serif" font-size="30" lengthAdjust="spacing" textLength="210.0879" x="3696" y="443.0878">QualityMeasure</text></g><!--reverse link AbstractDistribution to DataDownload--><g class="link" data-entity-1="ent0004" data-entity-2="ent0005" data-link-type="extension" data-source-line="42" id="lnk28"><path codeLine="42" d="M1162,473.0453 C1162,535.7153 1162,690.3953 1162,752.9453" fill="none" id="AbstractDistribution-backto-DataDownload" style="stroke:#404040;stroke-width:1.2;"/><polygon fill="none" points="1162,455.0453,1156,473.0453,1168,473.0453,1162,455.0453" style="stroke:#404040;stroke-width:1.2;"/></g><!--reverse link AbstractDistribution to WebAPI--><g class="link" data-entity-1="ent0004" data-entity-2="ent0006" data-link-type="extension" data-source-line="43" id="lnk29"><path codeLine="43" d="M1258.5105,461.0638 C1320.7705,483.1938 1387.82,516.7153 1437,579.9453 C1477.48,631.9953 1484.93,713.3053 1486.03,752.8253" fill="none" id="AbstractDistribution-backto-WebAPI" style="stroke:#404040;stroke-width:1.2;"/><polygon fill="none" points="1241.55,455.0353,1256.501,466.7173,1260.52,455.4103,1241.55,455.0353" style="stroke:#404040;stroke-width:1.2;"/></g><!--reverse link Agent to Person--><g class="link" data-entity-1="ent0011" data-entity-2="ent0012" data-link-type="extension" data-source-line="44" id="lnk30"><path codeLine="44" d="M876.8853,1163.5697 C890.5153,1225.8997 924.17,1379.8153 937.89,1442.5553" fill="none" id="Agent-backto-Person" style="stroke:#404040;stroke-width:1.2;"/><polygon fill="none" points="873.04,1145.9853,871.0238,1164.8515,882.7468,1162.288,873.04,1145.9853" style="stroke:#404040;stroke-width:1.2;"/></g><!--reverse link Agent to Organization--><g class="link" data-entity-1="ent0011" data-entity-2="ent0014" data-link-type="extension" data-source-line="45" id="lnk31"><path codeLine="45" d="M858.0769,1163.4683 C842.8069,1225.7983 805.09,1379.8153 789.73,1442.5553" fill="none" id="Agent-backto-Organization" style="stroke:#404040;stroke-width:1.2;"/><polygon fill="none" points="862.36,1145.9853,852.2492,1162.0406,863.9046,1164.896,862.36,1145.9853" style="stroke:#404040;stroke-width:1.2;"/></g><!--link Dataset to Agent--><g class="link" data-entity-1="ent0003" data-entity-2="ent0011" data-link-type="dependency" data-source-line="46" id="lnk32"><path codeLine="46" d="M1725.38,86.8953 C1520.85,87.7553 802.97,100.4653 628,234.9453 C480.87,348.0253 451.23,445.8553 487,627.9453 C518.93,790.4853 520.9,846.5853 628,972.9453 C682.76,1037.5453 767.5827,1080.0911 820.4127,1102.4011" fill="none" id="Dataset-to-Agent" style="stroke:#404040;stroke-width:1.2;"/><polygon fill="#404040" points="825.94,1104.7353,819.2051,1097.5491,821.3339,1102.7901,816.0929,1104.9189,825.94,1104.7353" style="stroke:#404040;stroke-width:1.2;"/><text fill="#000000" font-family="sans-serif" font-size="36" lengthAdjust="spacing" textLength="130.0605" x="488" y="618.8164">provider</text><text fill="#000000" font-family="sans-serif" font-size="36" lengthAdjust="spacing" textLength="54.0352" x="763.9339" y="1092.5465">0..*</text></g><!--link Dataset to Agent--><g class="link" data-entity-1="ent0003" data-entity-2="ent0011" data-link-type="dependency" data-source-line="48" id="lnk34"><path codeLine="48" d="M1725.49,89.1353 C1556.15,97.0053 1043.33,129.2853 922,234.9453 C800.63,340.6353 836.74,420.9153 812,579.9453 C798.05,669.6153 785.58,528.4653 843,972.9453 C848.73,1017.2653 856.885,1062.7298 862.385,1091.8098" fill="none" id="Dataset-to-Agent-1" style="stroke:#404040;stroke-width:1.2;"/><polygon fill="#404040" points="863.5,1097.7053,865.7578,1088.1187,862.5708,1092.7924,857.8971,1089.6054,863.5,1097.7053" style="stroke:#404040;stroke-width:1.2;"/><text fill="#000000" font-family="sans-serif" font-size="36" lengthAdjust="spacing" textLength="112.043" x="813" y="618.8164">creator</text><text fill="#000000" font-family="sans-serif" font-size="36" lengthAdjust="spacing" textLength="54.0352" x="867.336" y="1082.0899">0..*</text></g><!--link Dataset to Agent--><g class="link" data-entity-1="ent0003" data-entity-2="ent0011" data-link-type="dependency" data-source-line="50" id="lnk36"><path codeLine="50" d="M1725.48,90.1453 C1552.14,101.1753 1016.73,142.1653 874,234.9453 C705.07,344.7553 606.02,430.8753 648,627.9453 C689,820.4553 807.6265,1023.7708 850.0565,1092.4508" fill="none" id="Dataset-to-Agent-2" style="stroke:#404040;stroke-width:1.2;"/><polygon fill="#404040" points="853.21,1097.5553,851.8827,1087.7962,850.5821,1093.3015,845.0768,1092.0009,853.21,1097.5553" style="stroke:#404040;stroke-width:1.2;"/><text fill="#000000" font-family="sans-serif" font-size="36" lengthAdjust="spacing" textLength="146.0918" x="649" y="618.8164">publisher</text><text fill="#000000" font-family="sans-serif" font-size="36" lengthAdjust="spacing" textLength="60.0469" x="785.4815" y="1081.9141">0..1</text></g><!--link Dataset to AbstractDistribution--><g class="link" data-entity-1="ent0003" data-entity-2="ent0004" data-link-type="dependency" data-source-line="47" id="lnk33"><path codeLine="47" d="M1725.26,91.2553 C1585.1,103.5353 1219.24,143.8653 1147,234.9453 C1107.23,285.0953 1131.8052,361.5967 1148.7752,401.3667" fill="none" id="Dataset-to-AbstractDistribution" style="stroke:#404040;stroke-width:1.2;"/><polygon fill="#404040" points="1151.13,406.8853,1151.2769,397.0375,1149.1677,402.2864,1143.9187,400.1772,1151.13,406.8853" style="stroke:#404040;stroke-width:1.2;"/><text fill="#000000" font-family="sans-serif" font-size="36" lengthAdjust="spacing" textLength="174.0938" x="1148" y="273.3164">distribution</text><text fill="#000000" font-family="sans-serif" font-size="36" lengthAdjust="spacing" textLength="54.0352" x="1090.3788" y="391.0116">0..*</text></g><!--link Dataset to Contributor--><g class="link" data-entity-1="ent0003" data-entity-2="ent0015" data-link-type="dependency" data-source-line="49" id="lnk35"><path codeLine="49" d="M1725.26,87.9853 C1556.69,92.4653 1050.78,115.7753 951,234.9453 C864.49,338.2753 956.3612,511.5056 995.0212,574.7656" fill="none" id="Dataset-to-Contributor" style="stroke:#404040;stroke-width:1.2;"/><polygon fill="#404040" points="998.15,579.8853,996.87,570.1199,995.5427,575.6189,990.0438,574.2916,998.15,579.8853" style="stroke:#404040;stroke-width:1.2;"/><text fill="#000000" font-family="sans-serif" font-size="36" lengthAdjust="spacing" textLength="170.0859" x="952" y="273.3164">contributor</text><text fill="#000000" font-family="sans-serif" font-size="36" lengthAdjust="spacing" textLength="54.0352" x="936.6627" y="564.0116">0..*</text></g><!--link Dataset to MonetaryGrant--><g class="link" data-entity-1="ent0003" data-entity-2="ent0020" data-link-type="dependency" data-source-line="51" id="lnk37"><path codeLine="51" d="M1725.42,87.5953 C1631.11,91.9753 1439.03,115.9253 1348,234.9453 C1306.58,289.1053 1317.0682,501.9087 1321.8982,573.8787" fill="none" id="Dataset-to-MonetaryGrant" style="stroke:#404040;stroke-width:1.2;"/><polygon fill="#404040" points="1322.3,579.8653,1325.6884,570.6176,1321.9652,574.8765,1317.7063,571.1533,1322.3,579.8653" style="stroke:#404040;stroke-width:1.2;"/><text fill="#000000" font-family="sans-serif" font-size="36" lengthAdjust="spacing" textLength="118.1074" x="1349" y="273.3164">funding</text><text fill="#000000" font-family="sans-serif" font-size="36" lengthAdjust="spacing" textLength="54.0352" x="1263.1836" y="563.988">0..*</text></g><!--link Dataset to ProvActivity--><g class="link" data-entity-1="ent0003" data-entity-2="ent0021" data-link-type="dependency" data-source-line="52" id="lnk38"><path codeLine="52" d="M1834.51,91.2453 C1992.2,104.5953 2445.09,149.6653 2563,234.9453 C2582.34,248.9353 2574.24,263.1753 2589,281.9453 C2628.19,331.7853 2680.0542,375.8756 2714.6442,403.0856" fill="none" id="Dataset-to-ProvActivity" style="stroke:#404040;stroke-width:1.2;"/><polygon fill="#404040" points="2719.36,406.7953,2714.7594,398.087,2715.4302,403.7039,2709.8132,404.3747,2719.36,406.7953" style="stroke:#404040;stroke-width:1.2;"/><text fill="#000000" font-family="sans-serif" font-size="36" lengthAdjust="spacing" textLength="276.1523" x="2590" y="273.3164">wasGeneratedBy</text><text fill="#000000" font-family="sans-serif" font-size="36" lengthAdjust="spacing" textLength="54.0352" x="2655.1232" y="390.9055">0..*</text></g><!--link Dataset to DerivedFrom--><g class="link" data-entity-1="ent0003" data-entity-2="ent0022" data-link-type="dependency" data-source-line="53" id="lnk39"><path codeLine="53" d="M1834.75,87.1953 C2032.37,89.1653 2705.82,105.4253 2868,234.9453 C2882.05,246.1653 2916.5683,352.0522 2932.0383,401.1922" fill="none" id="Dataset-to-DerivedFrom" style="stroke:#404040;stroke-width:1.2;"/><polygon fill="#404040" points="2933.84,406.9153,2934.9528,397.1295,2932.3386,402.146,2927.322,399.5318,2933.84,406.9153" style="stroke:#404040;stroke-width:1.2;"/><text fill="#000000" font-family="sans-serif" font-size="36" lengthAdjust="spacing" textLength="272.0566" x="2891" y="273.3164">wasDerivedFrom</text><text fill="#000000" font-family="sans-serif" font-size="36" lengthAdjust="spacing" textLength="54.0352" x="2873.7259" y="391.0469">0..*</text></g><!--link Dataset to CatalogRecord--><g class="link" data-entity-1="ent0003" data-entity-2="ent0023" data-link-type="dependency" data-source-line="54" id="lnk40"><path codeLine="54" d="M1746.57,109.9853 C1709.6,136.7253 1650,183.7653 1610,234.9453 C1595.56,253.4253 1597.87,261.7153 1586,281.9453 C1559.24,327.5353 1527.5424,373.3693 1507.1224,402.0193" fill="none" id="Dataset-to-CatalogRecord" style="stroke:#404040;stroke-width:1.2;"/><polygon fill="#404040" points="1503.64,406.9053,1512.121,401.8979,1506.542,402.8336,1505.6063,397.2547,1503.64,406.9053" style="stroke:#404040;stroke-width:1.2;"/><text fill="#000000" font-family="sans-serif" font-size="36" lengthAdjust="spacing" textLength="152.0684" x="1611" y="273.3164">subjectOf</text><text fill="#000000" font-family="sans-serif" font-size="36" lengthAdjust="spacing" textLength="20.0215" x="1484.8147" y="391.0351">1</text></g><!--link CatalogRecord to Dataset--><g class="link" data-entity-1="ent0023" data-entity-2="ent0003" data-link-type="dependency" data-source-line="69" id="lnk55"><path codeLine="69" d="M1480.08,406.8053 C1469.94,367.9953 1455.62,288.7453 1489,234.9453 C1540.92,151.2653 1650.5648,114.3494 1719.4148,98.3994" fill="none" id="CatalogRecord-to-Dataset" style="stroke:#404040;stroke-width:1.2;"/><polygon fill="#404040" points="1725.26,97.0453,1715.5895,95.1796,1720.389,98.1737,1717.3949,102.9732,1725.26,97.0453" style="stroke:#404040;stroke-width:1.2;"/><text fill="#000000" font-family="sans-serif" font-size="36" lengthAdjust="spacing" textLength="90.0879" x="1490" y="273.3164">about</text><text fill="#000000" font-family="sans-serif" font-size="36" lengthAdjust="spacing" textLength="60.0469" x="1657.4323" y="88.3906">0..1</text></g><!--link Dataset to DefinedTerm--><g class="link" data-entity-1="ent0003" data-entity-2="ent0016" data-link-type="dependency" data-source-line="55" id="lnk41"><path codeLine="55" d="M1783.07,110.0853 C1787.05,147.8953 1790.73,224.4553 1765,281.9453 C1726.77,367.3553 1616.47,365.8253 1645,454.9453 C1686.01,583.0553 1794.6973,699.4333 1844.9973,748.5533" fill="none" id="Dataset-to-DefinedTerm" style="stroke:#404040;stroke-width:1.2;"/><polygon fill="#404040" points="1849.29,752.7453,1845.6456,743.5955,1845.7128,749.2519,1840.0563,749.3191,1849.29,752.7453" style="stroke:#404040;stroke-width:1.2;"/><text fill="#000000" font-family="sans-serif" font-size="36" lengthAdjust="spacing" textLength="152.0508" x="1646" y="445.8164">keywords</text><text fill="#000000" font-family="sans-serif" font-size="36" lengthAdjust="spacing" textLength="54.0352" x="1786.3715" y="737.1368">0..*</text></g><!--link Dataset to DefinedTerm--><g class="link" data-entity-1="ent0003" data-entity-2="ent0016" data-link-type="dependency" data-source-line="57" id="lnk43"><path codeLine="57" d="M1783.18,110.2653 C1797.56,215.6953 1855.6291,641.2703 1870.0091,746.6903" fill="none" id="Dataset-to-DefinedTerm-1" style="stroke:#404040;stroke-width:1.2;"/><polygon fill="#404040" points="1870.82,752.6353,1873.5669,743.1772,1870.1442,747.6811,1865.6403,744.2585,1870.82,752.6353" style="stroke:#404040;stroke-width:1.2;"/><text fill="#000000" font-family="sans-serif" font-size="36" lengthAdjust="spacing" textLength="388.2129" x="1832" y="445.8164">measurementTechnique</text><text fill="#000000" font-family="sans-serif" font-size="36" lengthAdjust="spacing" textLength="54.0352" x="1874.8833" y="737.0079">0..*</text></g><!--link Dataset to Reference--><g class="link" data-entity-1="ent0003" data-entity-2="ent0019" data-link-type="dependency" data-source-line="56" id="lnk42"><path codeLine="56" d="M1834.81,89.3853 C1947.77,96.6153 2211.52,124.9353 2398,234.9453 C2417.59,246.5053 2509.913,352.8217 2552.153,402.0517" fill="none" id="Dataset-to-Reference" style="stroke:#404040;stroke-width:1.2;"/><polygon fill="#404040" points="2556.06,406.6053,2553.2352,397.1702,2552.8041,402.8106,2547.1637,402.3796,2556.06,406.6053" style="stroke:#404040;stroke-width:1.2;"/><text fill="#000000" font-family="sans-serif" font-size="36" lengthAdjust="spacing" textLength="112.0605" x="2445" y="273.3164">license</text><text fill="#000000" font-family="sans-serif" font-size="36" lengthAdjust="spacing" textLength="54.0352" x="2493.9597" y="390.9727">0..*</text></g><!--reverse link Dataset to VariableMeasured--><g class="link" data-entity-1="ent0003" data-entity-2="ent0024" data-link-type="composition" data-source-line="58" id="lnk44"><path codeLine="58" d="M1829.2143,116.1015 C1934.5643,178.5115 2214.3,344.2253 2319.9,406.7853" fill="none" id="Dataset-backto-VariableMeasured" style="stroke:#404040;stroke-width:1.2;"/><polygon fill="#404040" points="1818.89,109.9853,1822.0134,116.4848,1829.2143,116.1015,1826.0909,109.6019,1818.89,109.9853" style="stroke:#404040;stroke-width:1.2;"/><text fill="#000000" font-family="sans-serif" font-size="36" lengthAdjust="spacing" textLength="286.1543" x="2106" y="273.3164">variableMeasured</text><text fill="#000000" font-family="sans-serif" font-size="36" lengthAdjust="spacing" textLength="54.0352" x="2254.0871" y="390.8937">0..*</text></g><!--reverse link Dataset to SpatialExtent--><g class="link" data-entity-1="ent0003" data-entity-2="ent0025" data-link-type="composition" data-source-line="59" id="lnk45"><path codeLine="59" d="M1846.652,89.274 C2091.802,98.244 3070.28,139.7753 3167,234.9453 C3190.83,258.3953 3192.24,360.2453 3191.59,406.6953" fill="none" id="Dataset-backto-SpatialExtent" style="stroke:#404040;stroke-width:1.2;"/><polygon fill="#404040" points="1834.66,88.8353,1840.5097,93.052,1846.652,89.274,1840.8022,85.0573,1834.66,88.8353" style="stroke:#404040;stroke-width:1.2;"/><text fill="#000000" font-family="sans-serif" font-size="36" lengthAdjust="spacing" textLength="260.1563" x="3186" y="273.3164">spatialCoverage</text><text fill="#000000" font-family="sans-serif" font-size="36" lengthAdjust="spacing" textLength="54.0352" x="3133.0729" y="391.0782">0..*</text></g><!--reverse link Dataset to TemporalExtent--><g class="link" data-entity-1="ent0003" data-entity-2="ent0026" data-link-type="composition" data-source-line="60" id="lnk46"><path codeLine="60" d="M1846.9081,88.027 C2122.2781,92.887 3332.5,120.6253 3452,234.9453 C3476.19,258.0853 3478.58,360.0953 3478.37,406.6453" fill="none" id="Dataset-backto-TemporalExtent" style="stroke:#404040;stroke-width:1.2;"/><polygon fill="#404040" points="1834.91,87.8153,1840.8385,91.9205,1846.9081,88.027,1840.9797,83.9218,1834.91,87.8153" style="stroke:#404040;stroke-width:1.2;"/><text fill="#000000" font-family="sans-serif" font-size="36" lengthAdjust="spacing" textLength="296.1563" x="3471" y="273.3164">temporalCoverage</text><text fill="#000000" font-family="sans-serif" font-size="36" lengthAdjust="spacing" textLength="54.0352" x="3419.8168" y="391.0196">0..*</text></g><!--reverse link Dataset to QualityMeasure--><g class="link" data-entity-1="ent0003" data-entity-2="ent0027" data-link-type="composition" data-source-line="61" id="lnk47"><path codeLine="61" d="M1846.97,87.0394 C2153.13,87.9094 3627.5,99.0853 3773,234.9453 C3820.62,279.4153 3812.87,365.6753 3805.79,406.9153" fill="none" id="Dataset-backto-QualityMeasure" style="stroke:#404040;stroke-width:1.2;"/><polygon fill="#404040" points="1834.97,87.0053,1840.9586,91.0223,1846.97,87.0394,1840.9813,83.0223,1834.97,87.0053" style="stroke:#404040;stroke-width:1.2;"/><text fill="#000000" font-family="sans-serif" font-size="36" lengthAdjust="spacing" textLength="390.1816" x="3801" y="273.3164">hasQualityMeasurement</text><text fill="#000000" font-family="sans-serif" font-size="36" lengthAdjust="spacing" textLength="54.0352" x="3747.8291" y="391.0469">0..*</text></g><!--link DataDownload to Agent--><g class="link" data-entity-1="ent0005" data-entity-2="ent0011" data-link-type="dependency" data-source-line="62" id="lnk48"><path codeLine="62" d="M1142.25,800.9853 C1088.82,863.3153 945.7349,1030.2598 891.9549,1092.9998" fill="none" id="DataDownload-to-Agent" style="stroke:#404040;stroke-width:1.2;"/><polygon fill="#404040" points="888.05,1097.5553,896.9443,1093.3254,891.3041,1093.7591,890.8703,1088.1189,888.05,1097.5553" style="stroke:#404040;stroke-width:1.2;"/><text fill="#000000" font-family="sans-serif" font-size="36" lengthAdjust="spacing" textLength="130.0605" x="1034" y="964.3164">provider</text><text fill="#000000" font-family="sans-serif" font-size="36" lengthAdjust="spacing" textLength="54.0352" x="917.9286" y="1133.8958">0..*</text></g><!--link WebAPI to Action--><g class="link" data-entity-1="ent0006" data-entity-2="ent0007" data-link-type="dependency" data-source-line="63" id="lnk49"><path codeLine="63" d="M1476.19,800.9853 C1449.66,863.3153 1379.0095,1029.2944 1352.3095,1092.0344" fill="none" id="WebAPI-to-Action" style="stroke:#404040;stroke-width:1.2;"/><polygon fill="#404040" points="1349.96,1097.5553,1357.1648,1090.8403,1351.9179,1092.9545,1349.8037,1087.7076,1349.96,1097.5553" style="stroke:#404040;stroke-width:1.2;"/><text fill="#000000" font-family="sans-serif" font-size="36" lengthAdjust="spacing" textLength="236.1621" x="1423" y="964.3164">potentialAction</text><text fill="#000000" font-family="sans-serif" font-size="36" lengthAdjust="spacing" textLength="54.0352" x="1293.0017" y="1081.9141">0..*</text></g><!--link Action to EntryPoint--><g class="link" data-entity-1="ent0007" data-entity-2="ent0008" data-link-type="dependency" data-source-line="64" id="lnk50"><path codeLine="64" d="M1322.35,1146.1253 C1301.26,1174.5153 1265.71,1224.5653 1241,1270.9453 C1209.26,1330.5353 1183.6853,1399.8463 1170.7753,1437.0863" fill="none" id="Action-to-EntryPoint" style="stroke:#404040;stroke-width:1.2;"/><polygon fill="#404040" points="1168.81,1442.7553,1175.5373,1435.5619,1170.4477,1438.0311,1167.9786,1432.9416,1168.81,1442.7553" style="stroke:#404040;stroke-width:1.2;"/><text fill="#000000" font-family="sans-serif" font-size="36" lengthAdjust="spacing" textLength="92.0566" x="1242" y="1309.3164">target</text><text fill="#000000" font-family="sans-serif" font-size="36" lengthAdjust="spacing" textLength="20.0215" x="1148.4012" y="1427.1485">1</text></g><!--link Action to ActionResult--><g class="link" data-entity-1="ent0007" data-entity-2="ent0009" data-link-type="dependency" data-source-line="65" id="lnk51"><path codeLine="65" d="M1340,1145.9853 C1340,1208.3153 1340,1373.8153 1340,1436.5553" fill="none" id="Action-to-ActionResult" style="stroke:#404040;stroke-width:1.2;"/><polygon fill="#404040" points="1340,1442.5553,1344,1433.5553,1340,1437.5553,1336,1433.5553,1340,1442.5553" style="stroke:#404040;stroke-width:1.2;"/><text fill="#000000" font-family="sans-serif" font-size="36" lengthAdjust="spacing" textLength="88.0313" x="1341" y="1309.3164">result</text><text fill="#000000" font-family="sans-serif" font-size="36" lengthAdjust="spacing" textLength="60.0469" x="1274.8123" y="1426.9141">0..1</text></g><!--link Action to PropertyValueSpecification--><g class="link" data-entity-1="ent0007" data-entity-2="ent0010" data-link-type="dependency" data-source-line="66" id="lnk52"><path codeLine="66" d="M1359.48,1145.9853 C1412.18,1208.3153 1553.3064,1375.2332 1606.3464,1437.9732" fill="none" id="Action-to-PropertyValueSpecification" style="stroke:#404040;stroke-width:1.2;"/><polygon fill="#404040" points="1610.22,1442.5553,1607.4643,1433.0998,1606.992,1438.7369,1601.3549,1438.2646,1610.22,1442.5553" style="stroke:#404040;stroke-width:1.2;"/><text fill="#000000" font-family="sans-serif" font-size="36" lengthAdjust="spacing" textLength="170.1211" x="1504" y="1309.3164">queryInput</text><text fill="#000000" font-family="sans-serif" font-size="36" lengthAdjust="spacing" textLength="54.0352" x="1548.1651" y="1426.9141">0..*</text></g><!--link Contributor to Agent--><g class="link" data-entity-1="ent0015" data-entity-2="ent0011" data-link-type="dependency" data-source-line="67" id="lnk53"><path codeLine="67" d="M981.49,628.0553 C948.74,654.1853 899.33,700.0453 878,752.9453 C828.88,874.7553 851.0836,1032.2363 862.1836,1091.9563" fill="none" id="Contributor-to-Agent" style="stroke:#404040;stroke-width:1.2;"/><polygon fill="#404040" points="863.28,1097.8553,865.568,1088.2759,862.3663,1092.9395,857.7027,1089.7378,863.28,1097.8553" style="stroke:#404040;stroke-width:1.2;"/><text fill="#000000" font-family="sans-serif" font-size="36" lengthAdjust="spacing" textLength="170.0859" x="879" y="791.8164">contributor</text><text fill="#000000" font-family="sans-serif" font-size="36" lengthAdjust="spacing" textLength="60.0469" x="867.7517" y="1081.9762">0..1</text></g><!--link MonetaryGrant to Agent--><g class="link" data-entity-1="ent0020" data-entity-2="ent0011" data-link-type="dependency" data-source-line="68" id="lnk54"><path codeLine="68" d="M1321.04,628.1553 C1311.6,692.5653 1276.3,875.2053 1170,972.9453 C1091.99,1044.6753 978.5126,1087.282 915.7426,1107.062" fill="none" id="MonetaryGrant-to-Agent" style="stroke:#404040;stroke-width:1.2;"/><polygon fill="#404040" points="910.02,1108.8653,919.8061,1109.9754,914.7888,1107.3625,917.4017,1102.3453,910.02,1108.8653" style="stroke:#404040;stroke-width:1.2;"/><text fill="#000000" font-family="sans-serif" font-size="36" lengthAdjust="spacing" textLength="102.0762" x="1293" y="791.8164">funder</text><text fill="#000000" font-family="sans-serif" font-size="36" lengthAdjust="spacing" textLength="54.0352" x="918.4097" y="1147.4177">0..*</text></g><!--link CatalogRecord to Agent--><g class="link" data-entity-1="ent0023" data-entity-2="ent0011" data-link-type="dependency" data-source-line="70" id="lnk56"><path codeLine="70" d="M1495.53,455.2553 C1528.86,548.2053 1645.35,891.3653 1579,972.9453 C1493.48,1078.0953 1056.1006,1110.6789 916.2806,1118.5289" fill="none" id="CatalogRecord-to-Agent" style="stroke:#404040;stroke-width:1.2;"/><polygon fill="#404040" points="910.29,1118.8653,919.5001,1122.3545,915.2821,1118.585,919.0516,1114.3671,910.29,1118.8653" style="stroke:#404040;stroke-width:1.2;"/><text fill="#000000" font-family="sans-serif" font-size="36" lengthAdjust="spacing" textLength="168.082" x="1592" y="791.8164">maintainer</text><text fill="#000000" font-family="sans-serif" font-size="36" lengthAdjust="spacing" textLength="60.0469" x="918.1775" y="1108.4684">0..1</text></g><!--link VariableMeasured to DefinedTerm--><g class="link" data-entity-1="ent0024" data-entity-2="ent0016" data-link-type="dependency" data-source-line="71" id="lnk57"><path codeLine="71" d="M2326.42,455.0453 C2238.07,517.7153 1999.514,686.9241 1911.324,749.4741" fill="none" id="VariableMeasured-to-DefinedTerm" style="stroke:#404040;stroke-width:1.2;"/><polygon fill="#404040" points="1906.43,752.9453,1916.0851,751.0012,1910.5083,750.0526,1911.4569,744.4759,1906.43,752.9453" style="stroke:#404040;stroke-width:1.2;"/><text fill="#000000" font-family="sans-serif" font-size="36" lengthAdjust="spacing" textLength="388.2129" x="2147" y="618.8164">measurementTechnique</text><text fill="#000000" font-family="sans-serif" font-size="36" lengthAdjust="spacing" textLength="60.0469" x="1917.5195" y="737.0822">0..1</text></g><?plantuml-src XLRTJjim5BxFKrXmXmJYPw0fcYQLqY8k40mgTkqwfwr7OcV7JhkoJTf3x0dt93k9ayPn0gYgvFFvEpy-FtQij2cmiKQuaaReDU2M_VlpbvMhjOHDj989C25HfE3MaELsopB8ve0cCizIvHnvnioA9teZrP8jU6h0snaXwiri9SMp0cFOoT6fjubSFHl8sUdviOSgdK25-c022rwaTggLVPGlmCukl4sHShBzCsBEtLYd6jd-X-FoH-2bnWGmH7rJf6WjodbXeOMFezzHnEV68XUszh4trbckZRHmZteXKzXZtB0GPFlJoNGodaIrqXMtt82jkFLwHmaTZ6gPIk8YabfLYaCRRF_gOZAQVlGTNUcDIZLFTjuQ88pgAyn7zpSLpIs9C9wUZQSDOIHQvsB8tKHPtDvhgTpHMZ4aElK7C5H2pvu3GhUKn1pGRfzuMi1Z3a8kfE2xK5xVtddjvNG9TOZLAepkdfgvCLujGyAOUeBCjIVrWP1yXqkkv4iRi0yCMQwAgN5dk9PxjOM5L93C03DNsbOcwldqV7BMK6yIEYMb1PpHLkpL9Kba6HPFcwowBFNWKF415e2WXEl_dHJIRhK2ot5xJPFkCjT1UeL0lIuxOothG7oWDrI0SWt957MJZvtSop9DGQgN3o3e9d1vzf7GyXD7oUSft08t1OBJ2C4mvuyv5PYdan-swRKE4j9dT9LgxF2xKAZmfU0fPQ5sNobqePt2u4NnwTVXOUSsU8FcReF8pKg5kB7m4R-fe-PEEppypFQEZuuEzkf1YrbE5QIN0mSvGn74BF74jqmB14vpCaJnnuY8hTGZdtYX5lDKcjLmhDs-ZTcYK0czTqFKJjF6RCFDDIX0RY6vt0uf-9rRyJsWowTekvqRCrFClu6mTujXo-qT4RDds6v8oGmnsn6EMIe5A7h5tpMOkSxBA7yp42iblnUjrW5rIQtLcvsOhGDeIAqxG7HK9u_BxnE-7FGKp53CR0syfHJCKSnMt7InyeHHvorzgzNhrzIdYBgtSrt6HOTmI5HlDCNrNb0AdUCIR8TIDwp_UCOCgqN8SutusaiPCoeLRczKNjZ8dvQ1kV37fpi60qaevu9IqErIpsYJ_fZnkIvzlqPi36QSia5_Cjfh8z_k-utv7m00?></g></svg>