<svg xmlns="http://www.w3.org/2000/svg" xmlns:xlink="http://www.w3.org/1999/xlink" contentStyleType="text/css" data-diagram-type="CLASS" height="202px" preserveAspectRatio="none" style="width:352px;height:202px;background:#FFFFFF;" version="1.1" viewBox="0 0 352 202" width="352px" zoomAndPan="magnify"><?plantuml 1.2026.3?><defs/><g><g class="title" data-source-line="1"><text fill="#000000" font-family="sans-serif" font-size="14" font-weight="700" lengthAdjust="spacing" textLength="170.0303" x="87.617" y="24.5332">CDIFCodelist &#8212; overview</text></g><!--class ConceptScheme--><g class="entity" data-qualified-name="ConceptScheme" data-source-line="12" id="ent0002"><rect fill="#E8DAEF" height="25.0938" rx="2.5" ry="2.5" style="stroke:#404040;stroke-width:0.5;" width="94.7168" x="120.7194" y="45.6094"/><text fill="#000000" font-family="sans-serif" font-size="12" lengthAdjust="spacing" textLength="88.7168" x="123.7194" y="63.0664">ConceptScheme</text></g><!--class Concept--><g class="entity" data-qualified-name="Concept" data-source-line="13" id="ent0003"><rect fill="#E8DAEF" height="25.0938" rx="2.5" ry="2.5" style="stroke:#404040;stroke-width:0.5;" width="50.6953" x="9.7194" y="150.1094"/><text fill="#000000" font-family="sans-serif" font-size="12" lengthAdjust="spacing" textLength="44.6953" x="12.7194" y="167.5664">Concept</text></g><!--class CatalogRecord--><g class="entity" data-qualified-name="CatalogRecord" data-source-line="14" id="ent0004"><rect fill="#FEFECE" height="25.0938" rx="2.5" ry="2.5" style="stroke:#404040;stroke-width:0.5;" width="86.0449" x="251.2194" y="150.1094"/><text fill="#000000" font-family="sans-serif" font-size="12" lengthAdjust="spacing" textLength="80.0449" x="254.2194" y="167.5664">CatalogRecord</text></g><!--reverse link ConceptScheme to CatalogRecord--><g class="link" data-entity-1="ent0002" data-entity-2="ent0004" data-link-type="composition" data-source-line="15" id="lnk5"><path codeLine="15" d="M200.3863,76.6615 C213.9563,84.3615 221.0494,89.1894 235.2194,100.6094 C254.2594,115.9594 273.4194,137.0494 284.5294,149.9894" fill="none" id="ConceptScheme-backto-CatalogRecord" style="stroke:#404040;stroke-width:1.2;"/><polygon fill="#404040" points="189.9494,70.7394,193.1938,77.1794,200.3863,76.6615,197.1419,70.2215,189.9494,70.7394" style="stroke:#404040;stroke-width:1.2;"/><text fill="#000000" font-family="sans-serif" font-size="13" lengthAdjust="spacing" textLength="54.9136" x="255.2194" y="115.1045">subjectOf</text><text fill="#000000" font-family="sans-serif" font-size="13" lengthAdjust="spacing" textLength="7.23" x="272.1267" y="139.0319">1</text></g><!--reverse link ConceptScheme to Concept--><g class="link" data-entity-1="ent0002" data-entity-2="ent0003" data-link-type="composition" data-source-line="16" id="lnk6"><path codeLine="16" d="M108.503,61.3867 C77.953,64.7867 52.3394,73.4294 32.2194,100.6094 C21.6194,114.9294 26.2194,136.7294 30.6394,150.0194" fill="none" id="ConceptScheme-backto-Concept" style="stroke:#404040;stroke-width:1.2;"/><polygon fill="#404040" points="120.4294,60.0594,114.0238,56.7476,108.503,61.3867,114.9087,64.6985,120.4294,60.0594" style="stroke:#404040;stroke-width:1.2;"/><text fill="#000000" font-family="sans-serif" font-size="13" lengthAdjust="spacing" textLength="91.7808" x="33.2194" y="115.1045">hasTopConcept</text><text fill="#000000" font-family="sans-serif" font-size="13" lengthAdjust="spacing" textLength="19.5127" x="6" y="139.0743">1..*</text></g><!--link Concept to ConceptScheme--><g class="link" data-entity-1="ent0003" data-entity-2="ent0002" data-link-type="dependency" data-source-line="17" id="lnk7"><path codeLine="17" d="M60.9494,154.2094 C81.1894,147.4294 109.2094,135.7994 129.2194,118.6094 C144.7694,105.2494 153.937,89.6008 160.297,76.4508" fill="none" id="Concept-to-ConceptScheme" style="stroke:#404040;stroke-width:1.2;"/><polygon fill="#404040" points="162.9094,71.0494,155.3899,77.4099,160.7324,75.5506,162.5918,80.8931,162.9094,71.0494" style="stroke:#404040;stroke-width:1.2;"/><text fill="#000000" font-family="sans-serif" font-size="13" lengthAdjust="spacing" textLength="57.8081" x="145.2194" y="115.1045">inScheme</text><text fill="#000000" font-family="sans-serif" font-size="13" lengthAdjust="spacing" textLength="19.5127" x="138.595" y="92.3137">1..*</text></g><!--link Concept to Concept--><g class="link" data-entity-1="ent0003" data-entity-2="ent0003" data-link-type="dependency" data-source-line="18" id="lnk8"><path codeLine="18" d="M61.0194,158.1894 C78.5594,156.8994 95.7194,158.3694 95.7194,162.6094 C95.7194,166.8494 84.5433,168.7695 67.0033,167.4795" fill="none" id="Concept-to-Concept" style="stroke:#404040;stroke-width:1.2;"/><polygon fill="#404040" points="61.0194,167.0394,69.7018,171.6887,66.0059,167.4061,70.2886,163.7103,61.0194,167.0394" style="stroke:#404040;stroke-width:1.2;"/><text fill="#000000" font-family="sans-serif" font-size="13" lengthAdjust="spacing" textLength="44.8081" x="101.7194" y="168.1045">broader</text><text fill="#000000" font-family="sans-serif" font-size="13" lengthAdjust="spacing" textLength="19.5127" x="68.3843" y="163.8248">0..*</text></g><!--link Concept to Concept--><g class="link" data-entity-1="ent0003" data-entity-2="ent0003" data-link-type="dependency" data-source-line="19" id="lnk9"><path codeLine="19" d="M60.8494,156.1694 C98.7394,150.1794 151.7194,152.3294 151.7194,162.6094 C151.7194,172.8994 104.6658,175.9863 66.7758,169.9963" fill="none" id="Concept-to-Concept-1" style="stroke:#404040;stroke-width:1.2;"/><polygon fill="#404040" points="60.8494,169.0594,69.1144,174.4157,65.7881,169.8401,70.3636,166.5138,60.8494,169.0594" style="stroke:#404040;stroke-width:1.2;"/><text fill="#000000" font-family="sans-serif" font-size="13" lengthAdjust="spacing" textLength="51.2954" x="157.7194" y="168.1045">narrower</text><text fill="#000000" font-family="sans-serif" font-size="13" lengthAdjust="spacing" textLength="19.5127" x="68.6235" y="185.7436">0..*</text></g><?plantuml-src VP71IiGm48RlUOgXlIsqR1SFqeEmTblm9BZx0jDqTXitpPGaRb4HV0YVq2UnIrTfgqWkas--_1aIhxmco3PtHSOLQUKyVBv_09_8dXHrebOLWLHMQXfgQbh_30qr9Ladt56P5Yqsu6gik5Fc07lKZaQTjRNSxMebZuQSWoHUZPfIOyzU1GnQnfejX5VBy-hXBTkAx9mMRFnMlH0aA_4cn90HP6majNuhQsee07Gm8H3crvjrNipqiVXBGO-Q3mya-p46SKmWBF8Ypt8nlMSHHH0amSnDmJsLZoJz_VvFFuuNmSySATJeTjnUzjy788fkPkeb8mLbXdBgBcUnfMNi7_H_oU3vAthh2m00?></g></svg>