<svg xmlns="http://www.w3.org/2000/svg" xmlns:xlink="http://www.w3.org/1999/xlink" contentStyleType="text/css" data-diagram-type="CLASS" height="202px" preserveAspectRatio="none" style="width:436px;height:202px;background:#FFFFFF;" version="1.1" viewBox="0 0 436 202" width="436px" zoomAndPan="magnify"><?plantuml 1.2026.3?><defs/><g><g class="title" data-source-line="1"><text fill="#000000" font-family="sans-serif" font-size="14" font-weight="700" lengthAdjust="spacing" textLength="170.0303" x="129.7573" y="24.5332">CDIFCodelist &#8212; overview</text></g><!--class ConceptScheme--><g class="entity" data-qualified-name="ConceptScheme" data-source-line="12" id="ent0002"><rect fill="#E8DAEF" height="25.0938" rx="2.5" ry="2.5" style="stroke:#404040;stroke-width:0.5;" width="94.7168" x="175" y="45.6094"/><text fill="#000000" font-family="sans-serif" font-size="12" lengthAdjust="spacing" textLength="88.7168" x="178" y="63.0664">ConceptScheme</text></g><!--class Concept--><g class="entity" data-qualified-name="Concept" data-source-line="13" id="ent0003"><rect fill="#FEFECE" height="25.0938" rx="2.5" ry="2.5" style="stroke:#404040;stroke-width:0.5;" width="50.6953" x="7" y="150.1094"/><text fill="#000000" font-family="sans-serif" font-size="12" lengthAdjust="spacing" textLength="44.6953" x="10" y="167.5664">Concept</text></g><!--class Identifier--><g class="entity" data-qualified-name="Identifier" data-source-line="14" id="ent0004"><rect fill="#FEFECE" height="25.0938" rx="2.5" ry="2.5" style="stroke:#404040;stroke-width:0.5;" width="52.0254" x="248.5" y="150.1094"/><text fill="#000000" font-family="sans-serif" font-size="12" lengthAdjust="spacing" textLength="46.0254" x="251.5" y="167.5664">Identifier</text></g><!--class CatalogRecord--><g class="entity" data-qualified-name="CatalogRecord" data-source-line="15" id="ent0005"><rect fill="#FEFECE" height="25.0938" rx="2.5" ry="2.5" style="stroke:#404040;stroke-width:0.5;" width="86.0449" x="335.5" y="150.1094"/><text fill="#000000" font-family="sans-serif" font-size="12" lengthAdjust="spacing" textLength="80.0449" x="338.5" y="167.5664">CatalogRecord</text></g><!--reverse link ConceptScheme to CatalogRecord--><g class="link" data-entity-1="ent0002" data-entity-2="ent0005" data-link-type="composition" data-source-line="16" id="lnk6"><path codeLine="16" d="M264.0476,75.2091 C281.8276,82.5691 293.19,88.4194 311.5,100.6094 C333.24,115.0894 354.95,136.4394 367.54,149.6594" fill="none" id="ConceptScheme-backto-CatalogRecord" style="stroke:#404040;stroke-width:1.2;"/><polygon fill="#404040" points="252.96,70.6194,256.9739,76.6101,264.0476,75.2091,260.0337,69.2184,252.96,70.6194" style="stroke:#404040;stroke-width:1.2;"/><text fill="#000000" font-family="sans-serif" font-size="13" lengthAdjust="spacing" textLength="54.9136" x="333.5" y="115.1045">subjectOf</text><text fill="#000000" font-family="sans-serif" font-size="13" lengthAdjust="spacing" textLength="7.23" x="355.0624" y="139.2165">1</text></g><!--reverse link ConceptScheme to Identifier--><g class="link" data-entity-1="ent0002" data-entity-2="ent0004" data-link-type="composition" data-source-line="17" id="lnk7"><path codeLine="17" d="M233.8993,81.5709 C243.9293,101.3409 258.62,130.3094 268.6,149.9894" fill="none" id="ConceptScheme-backto-Identifier" style="stroke:#404040;stroke-width:1.2;"/><polygon fill="#404040" points="228.47,70.8694,227.6174,78.0299,233.8993,81.5709,234.7518,74.4104,228.47,70.8694" style="stroke:#404040;stroke-width:1.2;"/><text fill="#000000" font-family="sans-serif" font-size="13" lengthAdjust="spacing" textLength="49.1372" x="253.5" y="115.1045">identifier</text><text fill="#000000" font-family="sans-serif" font-size="13" lengthAdjust="spacing" textLength="21.6836" x="240.9708" y="139.0319">0..1</text></g><!--reverse link ConceptScheme to Concept--><g class="link" data-entity-1="ent0002" data-entity-2="ent0003" data-link-type="composition" data-source-line="18" id="lnk8"><path codeLine="18" d="M162.9355,64.7936 C114.2355,70.2836 55.22,80.2494 37.5,100.6094 C25.78,114.0794 27.29,136.1394 29.71,149.7194" fill="none" id="ConceptScheme-backto-Concept" style="stroke:#404040;stroke-width:1.2;"/><polygon fill="#404040" points="174.86,63.4494,168.4497,60.1467,162.9355,64.7936,169.3459,68.0963,174.86,63.4494" style="stroke:#404040;stroke-width:1.2;"/><text fill="#000000" font-family="sans-serif" font-size="13" lengthAdjust="spacing" textLength="91.7808" x="38.5" y="115.1045">hasTopConcept</text><text fill="#000000" font-family="sans-serif" font-size="13" lengthAdjust="spacing" textLength="19.5127" x="6.1803" y="139.2993">1..*</text></g><!--link Concept to ConceptScheme--><g class="link" data-entity-1="ent0003" data-entity-2="ent0002" data-link-type="dependency" data-source-line="19" id="lnk9"><path codeLine="19" d="M58.29,152.3494 C79.31,144.4194 109.5,132.1694 134.5,118.6094 C161.25,104.1094 185.2702,87.1763 202.3802,74.4163" fill="none" id="Concept-to-ConceptScheme" style="stroke:#404040;stroke-width:1.2;"/><polygon fill="#404040" points="207.19,70.8294,197.5841,73.0033,203.1819,73.8185,202.3666,79.4163,207.19,70.8294" style="stroke:#404040;stroke-width:1.2;"/><text fill="#000000" font-family="sans-serif" font-size="13" lengthAdjust="spacing" textLength="57.8081" x="166.5" y="115.1045">inScheme</text><text fill="#000000" font-family="sans-serif" font-size="13" lengthAdjust="spacing" textLength="19.5127" x="178.8829" y="92.2731">1..*</text></g><!--link Concept to Concept--><g class="link" data-entity-1="ent0003" data-entity-2="ent0003" data-link-type="dependency" data-source-line="20" id="lnk10"><path codeLine="20" d="M58.3,158.1894 C75.84,156.8994 93,158.3694 93,162.6094 C93,166.8494 81.8238,168.7695 64.2838,167.4795" fill="none" id="Concept-to-Concept" style="stroke:#404040;stroke-width:1.2;"/><polygon fill="#404040" points="58.3,167.0394,66.9824,171.6887,63.2865,167.4061,67.5691,163.7103,58.3,167.0394" style="stroke:#404040;stroke-width:1.2;"/><text fill="#000000" font-family="sans-serif" font-size="13" lengthAdjust="spacing" textLength="44.8081" x="99" y="168.1045">broader</text><text fill="#000000" font-family="sans-serif" font-size="13" lengthAdjust="spacing" textLength="19.5127" x="65.6649" y="163.8248">0..*</text></g><!--link Concept to Concept--><g class="link" data-entity-1="ent0003" data-entity-2="ent0003" data-link-type="dependency" data-source-line="21" id="lnk11"><path codeLine="21" d="M58.13,156.1694 C96.02,150.1794 149,152.3294 149,162.6094 C149,172.8994 101.9464,175.9863 64.0564,169.9963" fill="none" id="Concept-to-Concept-1" style="stroke:#404040;stroke-width:1.2;"/><polygon fill="#404040" points="58.13,169.0594,66.395,174.4157,63.0687,169.8401,67.6442,166.5138,58.13,169.0594" style="stroke:#404040;stroke-width:1.2;"/><text fill="#000000" font-family="sans-serif" font-size="13" lengthAdjust="spacing" textLength="51.2954" x="155" y="168.1045">narrower</text><text fill="#000000" font-family="sans-serif" font-size="13" lengthAdjust="spacing" textLength="19.5127" x="65.9041" y="185.7436">0..*</text></g><?plantuml-src RP51ReCm44NtFiK8Tf5047LHiQYK492ogjJa0iPCWXjZ8ziDQgjAFKHFs9FKAGa1XBoP-VFc-rkst0g4TBFDKrMYuCR2x_SFg3FgCyUMLBn4O5mpWLsDTMFVeSQwG6s8EN7PK4rhC1KjLSlb4GvK61nCLbghTbznTf9e3CJXSZ1aWZhjaq27fKee3Vv3T3bEN2jTefwgkP9snpyGuYNv8gJpy58b6JPsnogiqGDgOAI0dprkLba-mOSW-7cMPsbsGxObIiiF7FK_TM-dO4ej5UhuWipbxHo7Ie-F0os20BpOcx09cBVY5PbzFipnKHYwbK6K17ZVp5uGXWklVs425JLxrLpxsm84mTC4lNeuUzcLOpQQs1PQqVAUO1wIzFB9Zle3?></g></svg>