<svg xmlns="http://www.w3.org/2000/svg" xmlns:xlink="http://www.w3.org/1999/xlink" contentStyleType="text/css" data-diagram-type="CLASS" height="378px" preserveAspectRatio="none" style="width:608px;height:378px;background:#FFFFFF;" version="1.1" viewBox="0 0 608 378" width="608px" zoomAndPan="magnify"><?plantuml 1.2026.3?><defs/><g><g class="title" data-source-line="1"><text fill="#000000" font-family="sans-serif" font-size="14" font-weight="700" lengthAdjust="spacing" textLength="181.7334" x="209.8328" y="24.5332">CDIFDiscovery &#8212; overview</text></g><!--class Dataset--><g class="entity" data-qualified-name="Dataset" data-source-line="12" id="ent0002"><rect fill="#FEFECE" height="25.0938" rx="2.5" ry="2.5" style="stroke:#404040;stroke-width:0.5;" width="47.3555" x="247" y="46.1094"/><text fill="#000000" font-family="sans-serif" font-size="12" lengthAdjust="spacing" textLength="41.3555" x="250" y="63.5664">Dataset</text></g><!--class VariableMeasured--><g class="entity" data-qualified-name="VariableMeasured" data-source-line="13" id="ent0003"><rect fill="#FEFECE" height="25.0938" rx="2.5" ry="2.5" style="stroke:#404040;stroke-width:0.5;" width="103.3887" x="7" y="150.6094"/><text fill="#000000" font-family="sans-serif" font-size="12" lengthAdjust="spacing" textLength="97.3887" x="10" y="168.0664">VariableMeasured</text></g><!--class SpatialExtent--><g class="entity" data-qualified-name="SpatialExtent" data-source-line="14" id="ent0004"><rect fill="#FEFECE" height="25.0938" rx="2.5" ry="2.5" style="stroke:#404040;stroke-width:0.5;" width="76.7109" x="165" y="150.6094"/><text fill="#000000" font-family="sans-serif" font-size="12" lengthAdjust="spacing" textLength="70.7109" x="168" y="168.0664">SpatialExtent</text></g><!--class AbstractGeometry--><g class="entity" data-qualified-name="AbstractGeometry" data-source-line="15" id="ent0005"><rect fill="#FEFECE" height="25.0938" rx="2.5" ry="2.5" style="stroke:#404040;stroke-width:0.5;" width="102.6973" x="152" y="253.6094"/><text fill="#000000" font-family="sans-serif" font-size="12" font-style="italic" lengthAdjust="spacing" textLength="96.6973" x="155" y="271.0664">AbstractGeometry</text></g><!--class GeoCoordinates--><g class="entity" data-qualified-name="GeoCoordinates" data-source-line="16" id="ent0006"><rect fill="#FEFECE" height="25.0938" rx="2.5" ry="2.5" style="stroke:#404040;stroke-width:0.5;" width="93.3867" x="101" y="339.6094"/><text fill="#000000" font-family="sans-serif" font-size="12" lengthAdjust="spacing" textLength="87.3867" x="104" y="357.0664">GeoCoordinates</text></g><!--class GeoShape--><g class="entity" data-qualified-name="GeoShape" data-source-line="17" id="ent0007"><rect fill="#FEFECE" height="25.0938" rx="2.5" ry="2.5" style="stroke:#404040;stroke-width:0.5;" width="63.3809" x="229" y="339.6094"/><text fill="#000000" font-family="sans-serif" font-size="12" lengthAdjust="spacing" textLength="57.3809" x="232" y="357.0664">GeoShape</text></g><!--class TemporalExtent--><g class="entity" data-qualified-name="TemporalExtent" data-source-line="18" id="ent0008"><rect fill="#FEFECE" height="25.0938" rx="2.5" ry="2.5" style="stroke:#404040;stroke-width:0.5;" width="90.7031" x="293" y="150.6094"/><text fill="#000000" font-family="sans-serif" font-size="12" lengthAdjust="spacing" textLength="84.7031" x="296" y="168.0664">TemporalExtent</text></g><!--class QualityMeasure--><g class="entity" data-qualified-name="QualityMeasure" data-source-line="19" id="ent0009"><rect fill="#FEFECE" height="25.0938" rx="2.5" ry="2.5" style="stroke:#404040;stroke-width:0.5;" width="90.0352" x="441.5" y="150.6094"/><text fill="#000000" font-family="sans-serif" font-size="12" lengthAdjust="spacing" textLength="84.0352" x="444.5" y="168.0664">QualityMeasure</text></g><!--class Concept--><g class="entity" data-qualified-name="Concept" data-source-line="20" id="ent0010"><rect fill="#FEFECE" height="25.0938" rx="2.5" ry="2.5" style="stroke:#404040;stroke-width:0.5;" width="50.6953" x="329" y="46.1094"/><text fill="#000000" font-family="sans-serif" font-size="12" lengthAdjust="spacing" textLength="44.6953" x="332" y="63.5664">Concept</text></g><!--reverse link AbstractGeometry to GeoCoordinates--><g class="link" data-entity-1="ent0005" data-entity-2="ent0006" data-link-type="extension" data-source-line="22" id="lnk11"><path codeLine="22" d="M185.7254,293.7663 C175.0254,309.8163 165.88,323.5294 155.22,339.5294" fill="none" id="AbstractGeometry-backto-GeoCoordinates" style="stroke:#404040;stroke-width:1.2;"/><polygon fill="none" points="195.71,278.7894,180.7331,290.4381,190.7177,297.0945,195.71,278.7894" style="stroke:#404040;stroke-width:1.2;"/></g><!--reverse link AbstractGeometry to GeoShape--><g class="link" data-entity-1="ent0005" data-entity-2="ent0007" data-link-type="extension" data-source-line="23" id="lnk12"><path codeLine="23" d="M221.5363,293.6844 C232.4263,309.7344 241.79,323.5294 252.64,339.5294" fill="none" id="AbstractGeometry-backto-GeoShape" style="stroke:#404040;stroke-width:1.2;"/><polygon fill="none" points="211.43,278.7894,216.5713,297.0532,226.5014,290.3156,211.43,278.7894" style="stroke:#404040;stroke-width:1.2;"/></g><!--link Dataset to VariableMeasured--><g class="link" data-entity-1="ent0002" data-entity-2="ent0003" data-link-type="dependency" data-source-line="24" id="lnk13"><path codeLine="24" d="M246.91,62.3394 C202.38,67.9094 108.16,81.8594 83.5,102.6094 C69.1,114.7294 63.9583,130.6764 61.3583,144.2564" fill="none" id="Dataset-to-VariableMeasured" style="stroke:#404040;stroke-width:1.2;"/><polygon fill="#404040" points="60.23,150.1494,65.851,142.0621,61.1702,145.2386,57.9937,140.5578,60.23,150.1494" style="stroke:#404040;stroke-width:1.2;"/><text fill="#000000" font-family="sans-serif" font-size="13" lengthAdjust="spacing" textLength="103.3335" x="84.5" y="117.1045">variableMeasured</text><text fill="#000000" font-family="sans-serif" font-size="13" lengthAdjust="spacing" textLength="19.5127" x="38.2913" y="139.7026">0..*</text></g><!--link Dataset to SpatialExtent--><g class="link" data-entity-1="ent0002" data-entity-2="ent0004" data-link-type="dependency" data-source-line="25" id="lnk14"><path codeLine="25" d="M246.76,67.2194 C230.55,73.7994 210.32,85.0594 200.5,102.6094 C192.22,117.4094 194.1251,131.9021 197.7551,144.5521" fill="none" id="Dataset-to-SpatialExtent" style="stroke:#404040;stroke-width:1.2;"/><polygon fill="#404040" points="199.41,150.3194,200.7724,140.5652,198.0309,145.5133,193.0827,142.7718,199.41,150.3194" style="stroke:#404040;stroke-width:1.2;"/><text fill="#000000" font-family="sans-serif" font-size="13" lengthAdjust="spacing" textLength="93.9453" x="201.5" y="117.1045">spatialCoverage</text><text fill="#000000" font-family="sans-serif" font-size="13" lengthAdjust="spacing" textLength="19.5127" x="175.2168" y="139.6792">0..*</text></g><!--link Dataset to TemporalExtent--><g class="link" data-entity-1="ent0002" data-entity-2="ent0008" data-link-type="dependency" data-source-line="26" id="lnk15"><path codeLine="26" d="M278.42,71.2594 C284.27,79.8994 292.42,91.9594 299.5,102.6094 C310.44,119.0694 319.666,133.1614 327.506,145.2014" fill="none" id="Dataset-to-TemporalExtent" style="stroke:#404040;stroke-width:1.2;"/><polygon fill="#404040" points="330.78,150.2294,329.2209,140.5047,328.0516,146.0394,322.5169,144.8701,330.78,150.2294" style="stroke:#404040;stroke-width:1.2;"/><text fill="#000000" font-family="sans-serif" font-size="13" lengthAdjust="spacing" textLength="106.9453" x="312.5" y="117.1045">temporalCoverage</text><text fill="#000000" font-family="sans-serif" font-size="13" lengthAdjust="spacing" textLength="19.5127" x="305.3692" y="139.8131">0..*</text></g><!--link Dataset to QualityMeasure--><g class="link" data-entity-1="ent0002" data-entity-2="ent0009" data-link-type="dependency" data-source-line="27" id="lnk16"><path codeLine="27" d="M294.28,67.3894 C299.91,69.1594 305.9,70.9994 311.5,72.6094 C362.68,87.3294 381.32,76.0894 427.5,102.6094 C448.69,114.7794 463.828,131.8388 474.238,145.4088" fill="none" id="Dataset-to-QualityMeasure" style="stroke:#404040;stroke-width:1.2;"/><polygon fill="#404040" points="477.89,150.1694,475.5857,140.5939,474.8467,146.2022,469.2383,145.4632,477.89,150.1694" style="stroke:#404040;stroke-width:1.2;"/><text fill="#000000" font-family="sans-serif" font-size="13" lengthAdjust="spacing" textLength="140.8989" x="451.5" y="117.1045">hasQualityMeasurement</text><text fill="#000000" font-family="sans-serif" font-size="13" lengthAdjust="spacing" textLength="19.5127" x="452.0766" y="139.7303">0..*</text></g><!--link SpatialExtent to AbstractGeometry--><g class="link" data-entity-1="ent0004" data-entity-2="ent0005" data-link-type="dependency" data-source-line="28" id="lnk17"><path codeLine="28" d="M203.5,175.6994 C203.5,195.0694 203.5,227.8494 203.5,247.3494" fill="none" id="SpatialExtent-to-AbstractGeometry" style="stroke:#404040;stroke-width:1.2;"/><polygon fill="#404040" points="203.5,253.3494,207.5,244.3494,203.5,248.3494,199.5,244.3494,203.5,253.3494" style="stroke:#404040;stroke-width:1.2;"/><text fill="#000000" font-family="sans-serif" font-size="13" lengthAdjust="spacing" textLength="21.6899" x="204.5" y="220.1045">geo</text><text fill="#000000" font-family="sans-serif" font-size="13" lengthAdjust="spacing" textLength="21.6836" x="178.5598" y="242.721">0..1</text></g><!--link Concept to Concept--><g class="link" data-entity-1="ent0010" data-entity-2="ent0010" data-link-type="dependency" data-source-line="29" id="lnk18"><path codeLine="29" d="M380.3,49.7694 C397.84,47.1794 415,50.1294 415,58.6094 C415,67.0894 403.7756,70.9158 386.2356,68.3258" fill="none" id="Concept-to-Concept" style="stroke:#404040;stroke-width:1.2;"/><polygon fill="#404040" points="380.3,67.4494,388.6191,72.7212,385.2464,68.1798,389.7878,64.807,380.3,67.4494" style="stroke:#404040;stroke-width:1.2;"/><text fill="#000000" font-family="sans-serif" font-size="13" lengthAdjust="spacing" textLength="27.46" x="421" y="64.1045">uses</text><text fill="#000000" font-family="sans-serif" font-size="13" lengthAdjust="spacing" textLength="19.5127" x="387.6649" y="65.1443">1..*</text></g><?plantuml-src bPFFJeD04CRl-nGJUZEXAOqdOamg1UF1WsdZVGfZsHHOihjjnJ-93-4J-YJI1KntMqqCbzdVVjyCCmEQwu8WcjybSwvIiIFPmDV79noY7QSzotb6a7AP5jJ5LDQwWPBA5Kd5r8PNDKeiGUMOYJslrl24XQAZcvcKOh_CURgfI2a8njEZoxJ0bhqow6IHA8I4qUNayBJmHiYCf4iJKUa5Vo48fkoTiIw7DqUDYhG7gA2FOPJ4IHp5W-GH9STLGVU4QYifCreNkgP5ZPfZ4Jzhghhi5lcHuqffYQdkU_9c_VcMH4bQDiRgGhTOooFHDiqhrAICnKPd38iSQngavk2AbktMXBHwi95hUDXYmNNJZyGOREGQ8b6bL7Uf-_W_afEnNBtvljFvxoBJCnjsxllNu4t6umllTBKXx1nqpcRlDmJLdQF3Nu7hivMSSOQWU_2NoHbf23agcvLjCcQ_pk0FlDEFAOGr2JOCroW3Ksb08MnLEybl?></g></svg>