<svg xmlns="http://www.w3.org/2000/svg" xmlns:xlink="http://www.w3.org/1999/xlink" contentStyleType="text/css" data-diagram-type="CLASS" height="396px" preserveAspectRatio="none" style="width:1131px;height:396px;background:#FFFFFF;" version="1.1" viewBox="0 0 1131 396" width="1131px" zoomAndPan="magnify"><?plantuml 1.2026.3?><defs/><g><g class="title" data-source-line="1"><text fill="#000000" font-family="sans-serif" font-size="14" font-weight="700" lengthAdjust="spacing" textLength="186.4297" x="469.0576" y="24.5332">BasicDiscovery &#8212; overview</text></g><!--class Dataset--><g class="entity" data-qualified-name="Dataset" data-source-line="12" id="ent0002"><rect fill="#FEFECE" height="25.0938" rx="2.5" ry="2.5" style="stroke:#404040;stroke-width:0.5;" width="47.3555" x="674" y="48.8969"/><text fill="#000000" font-family="sans-serif" font-size="12" lengthAdjust="spacing" textLength="41.3555" x="677" y="66.3539">Dataset</text></g><!--class VariableMeasured--><g class="entity" data-qualified-name="VariableMeasured" data-source-line="13" id="ent0003"><rect fill="#FEFECE" height="25.0938" rx="2.5" ry="2.5" style="stroke:#404040;stroke-width:0.5;" width="103.3887" x="127" y="151.8969"/><text fill="#000000" font-family="sans-serif" font-size="12" lengthAdjust="spacing" textLength="97.3887" x="130" y="169.3539">VariableMeasured</text></g><!--class SpatialExtent--><g class="entity" data-qualified-name="SpatialExtent" data-source-line="14" id="ent0004"><rect fill="#FEFECE" height="25.0938" rx="2.5" ry="2.5" style="stroke:#404040;stroke-width:0.5;" width="76.7109" x="285" y="151.8969"/><text fill="#000000" font-family="sans-serif" font-size="12" lengthAdjust="spacing" textLength="70.7109" x="288" y="169.3539">SpatialExtent</text></g><!--class AbstractGeometry--><g class="entity" data-qualified-name="AbstractGeometry" data-source-line="15" id="ent0005"><rect fill="#FEFECE" height="25.0938" rx="2.5" ry="2.5" style="stroke:#404040;stroke-width:0.5;" width="102.6973" x="160" y="254.8969"/><text fill="#000000" font-family="sans-serif" font-size="12" font-style="italic" lengthAdjust="spacing" textLength="96.6973" x="163" y="272.3539">AbstractGeometry</text></g><!--class GeoCoordinates--><g class="entity" data-qualified-name="GeoCoordinates" data-source-line="16" id="ent0006"><rect fill="#FEFECE" height="25.0938" rx="2.5" ry="2.5" style="stroke:#404040;stroke-width:0.5;" width="93.3867" x="109" y="357.8969"/><text fill="#000000" font-family="sans-serif" font-size="12" lengthAdjust="spacing" textLength="87.3867" x="112" y="375.3539">GeoCoordinates</text></g><!--class GeoShape--><g class="entity" data-qualified-name="GeoShape" data-source-line="17" id="ent0007"><rect fill="#FEFECE" height="25.0938" rx="2.5" ry="2.5" style="stroke:#404040;stroke-width:0.5;" width="63.3809" x="237" y="357.8969"/><text fill="#000000" font-family="sans-serif" font-size="12" lengthAdjust="spacing" textLength="57.3809" x="240" y="375.3539">GeoShape</text></g><!--class TemporalExtent--><g class="entity" data-qualified-name="TemporalExtent" data-source-line="18" id="ent0008"><rect fill="#FEFECE" height="25.0938" rx="2.5" ry="2.5" style="stroke:#404040;stroke-width:0.5;" width="90.7031" x="413" y="151.8969"/><text fill="#000000" font-family="sans-serif" font-size="12" lengthAdjust="spacing" textLength="84.7031" x="416" y="169.3539">TemporalExtent</text></g><!--class Instant--><g class="entity" data-qualified-name="Instant" data-source-line="19" id="ent0009"><rect fill="#FEFECE" height="25.0938" rx="2.5" ry="2.5" style="stroke:#404040;stroke-width:0.5;" width="42.0234" x="493.5" y="254.8969"/><text fill="#000000" font-family="sans-serif" font-size="12" lengthAdjust="spacing" textLength="36.0234" x="496.5" y="272.3539">Instant</text></g><!--class TimePosition--><g class="entity" data-qualified-name="TimePosition" data-source-line="20" id="ent0010"><rect fill="#FEFECE" height="25.0938" rx="2.5" ry="2.5" style="stroke:#404040;stroke-width:0.5;" width="75.3574" x="477" y="357.8969"/><text fill="#000000" font-family="sans-serif" font-size="12" lengthAdjust="spacing" textLength="69.3574" x="480" y="375.3539">TimePosition</text></g><!--class Geometry--><g class="entity" data-qualified-name="Geometry" data-source-line="21" id="ent0011"><rect fill="#FEFECE" height="25.0938" rx="2.5" ry="2.5" style="stroke:#404040;stroke-width:0.5;" width="58.6816" x="298" y="254.8969"/><text fill="#000000" font-family="sans-serif" font-size="12" lengthAdjust="spacing" textLength="52.6816" x="301" y="272.3539">Geometry</text></g><!--class QualityMeasurement--><g class="entity" data-qualified-name="QualityMeasurement" data-source-line="22" id="ent0012"><rect fill="#FEFECE" height="25.0938" rx="2.5" ry="2.5" style="stroke:#404040;stroke-width:0.5;" width="116.7129" x="548" y="151.8969"/><text fill="#000000" font-family="sans-serif" font-size="12" lengthAdjust="spacing" textLength="110.7129" x="551" y="169.3539">QualityMeasurement</text></g><!--class Concept--><g class="entity" data-qualified-name="Concept" data-source-line="23" id="ent0013"><rect fill="#FEFECE" height="25.0938" rx="2.5" ry="2.5" style="stroke:#404040;stroke-width:0.5;" width="50.6953" x="24" y="48.8969"/><text fill="#000000" font-family="sans-serif" font-size="12" lengthAdjust="spacing" textLength="44.6953" x="27" y="66.3539">Concept</text></g><!--class Identifier--><g class="entity" data-qualified-name="Identifier" data-source-line="24" id="ent0014"><rect fill="#FEFECE" height="25.0938" rx="2.5" ry="2.5" style="stroke:#404040;stroke-width:0.5;" width="52.0254" x="110.5" y="48.8969"/><text fill="#000000" font-family="sans-serif" font-size="12" lengthAdjust="spacing" textLength="46.0254" x="113.5" y="66.3539">Identifier</text></g><!--class DefinedTerm--><g class="entity" data-qualified-name="DefinedTerm" data-source-line="25" id="ent0015"><rect fill="#FEFECE" height="25.0938" rx="2.5" ry="2.5" style="stroke:#404040;stroke-width:0.5;" width="75.3574" x="745" y="151.8969"/><text fill="#000000" font-family="sans-serif" font-size="12" lengthAdjust="spacing" textLength="69.3574" x="748" y="169.3539">DefinedTerm</text></g><!--class DataDownload--><g class="entity" data-qualified-name="DataDownload" data-source-line="26" id="ent0016"><rect fill="#FEFECE" height="25.0938" rx="2.5" ry="2.5" style="stroke:#404040;stroke-width:0.5;" width="84.7148" x="7" y="151.8969"/><text fill="#000000" font-family="sans-serif" font-size="12" lengthAdjust="spacing" textLength="78.7148" x="10" y="169.3539">DataDownload</text></g><!--class ProvActivity--><g class="entity" data-qualified-name="ProvActivity" data-source-line="27" id="ent0017"><rect fill="#FEFECE" height="25.0938" rx="2.5" ry="2.5" style="stroke:#404040;stroke-width:0.5;" width="68.6777" x="855" y="151.8969"/><text fill="#000000" font-family="sans-serif" font-size="12" lengthAdjust="spacing" textLength="62.6777" x="858" y="169.3539">ProvActivity</text></g><!--class CatalogRecord--><g class="entity" data-qualified-name="CatalogRecord" data-source-line="28" id="ent0018"><rect fill="#FEFECE" height="25.0938" rx="2.5" ry="2.5" style="stroke:#404040;stroke-width:0.5;" width="86.0449" x="1030.5" y="151.8969"/><text fill="#000000" font-family="sans-serif" font-size="12" lengthAdjust="spacing" textLength="80.0449" x="1033.5" y="169.3539">CatalogRecord</text></g><!--reverse link AbstractGeometry to GeoCoordinates--><g class="link" data-entity-1="ent0005" data-entity-2="ent0006" data-link-type="extension" data-source-line="29" id="lnk19"><path codeLine="29" d="M196.3453,295.7256 C185.5953,315.0956 172.83,338.1369 162.02,357.6369" fill="none" id="AbstractGeometry-backto-GeoCoordinates" style="stroke:#404040;stroke-width:1.2;"/><polygon fill="none" points="205.08,279.9869,191.0991,292.814,201.5915,298.6371,205.08,279.9869" style="stroke:#404040;stroke-width:1.2;"/></g><!--reverse link AbstractGeometry to GeoShape--><g class="link" data-entity-1="ent0005" data-entity-2="ent0007" data-link-type="extension" data-source-line="30" id="lnk20"><path codeLine="30" d="M226.892,295.6599 C237.832,315.0299 250.86,338.1369 261.86,357.6369" fill="none" id="AbstractGeometry-backto-GeoShape" style="stroke:#404040;stroke-width:1.2;"/><polygon fill="none" points="218.04,279.9869,221.6676,298.6105,232.1163,292.7092,218.04,279.9869" style="stroke:#404040;stroke-width:1.2;"/></g><!--link Dataset to VariableMeasured--><g class="link" data-entity-1="ent0002" data-entity-2="ent0003" data-link-type="dependency" data-source-line="31" id="lnk21"><path codeLine="31" d="M673.89,62.2669 C590.6,62.1469 311.24,64.7469 232.5,103.8969 C211.02,114.5769 197.2094,132.6848 188.3794,146.7548" fill="none" id="Dataset-to-VariableMeasured" style="stroke:#404040;stroke-width:1.2;"/><polygon fill="#404040" points="185.19,151.8369,193.3622,146.34,187.8478,147.6018,186.586,142.0875,185.19,151.8369" style="stroke:#404040;stroke-width:1.2;"/><text fill="#000000" font-family="sans-serif" font-size="13" lengthAdjust="spacing" textLength="103.3335" x="233.5" y="118.392">variableMeasured</text><text fill="#000000" font-family="sans-serif" font-size="13" lengthAdjust="spacing" textLength="19.5127" x="165.0565" y="140.9042">0..*</text></g><!--link Dataset to SpatialExtent--><g class="link" data-entity-1="ent0002" data-entity-2="ent0004" data-link-type="dependency" data-source-line="32" id="lnk22"><path codeLine="32" d="M673.6,62.8369 C606.13,64.4569 415.64,71.8369 363.5,103.8969 C345.47,114.9769 336.0684,132.0429 330.2284,145.9829" fill="none" id="Dataset-to-SpatialExtent" style="stroke:#404040;stroke-width:1.2;"/><polygon fill="#404040" points="327.91,151.5169,335.0769,144.7615,329.842,146.9052,327.6983,141.6703,327.91,151.5169" style="stroke:#404040;stroke-width:1.2;"/><text fill="#000000" font-family="sans-serif" font-size="13" lengthAdjust="spacing" textLength="93.9453" x="364.5" y="118.392">spatialCoverage</text><text fill="#000000" font-family="sans-serif" font-size="13" lengthAdjust="spacing" textLength="19.5127" x="307.1223" y="141.1007">0..*</text></g><!--link Dataset to TemporalExtent--><g class="link" data-entity-1="ent0002" data-entity-2="ent0008" data-link-type="dependency" data-source-line="33" id="lnk23"><path codeLine="33" d="M673.7,63.9169 C623.18,67.6069 507.45,78.6569 478.5,103.8969 C464.53,116.0669 460.8591,132.343 459.5891,145.913" fill="none" id="Dataset-to-TemporalExtent" style="stroke:#404040;stroke-width:1.2;"/><polygon fill="#404040" points="459.03,151.8869,463.8512,143.2988,459.4959,146.9087,455.886,142.5533,459.03,151.8869" style="stroke:#404040;stroke-width:1.2;"/><text fill="#000000" font-family="sans-serif" font-size="13" lengthAdjust="spacing" textLength="106.9453" x="479.5" y="118.392">temporalCoverage</text><text fill="#000000" font-family="sans-serif" font-size="13" lengthAdjust="spacing" textLength="19.5127" x="436.4968" y="140.9748">0..*</text></g><!--link Dataset to QualityMeasurement--><g class="link" data-entity-1="ent0002" data-entity-2="ent0012" data-link-type="dependency" data-source-line="34" id="lnk24"><path codeLine="34" d="M673.82,65.0569 C650.45,69.0769 615.93,79.0969 599.5,103.8969 C589.96,118.2869 593.4684,133.4835 598.7084,146.2935" fill="none" id="Dataset-to-QualityMeasurement" style="stroke:#404040;stroke-width:1.2;"/><polygon fill="#404040" points="600.98,151.8469,601.2748,142.0025,599.087,147.2191,593.8703,145.0313,600.98,151.8469" style="stroke:#404040;stroke-width:1.2;"/><text fill="#000000" font-family="sans-serif" font-size="13" lengthAdjust="spacing" textLength="140.8989" x="600.5" y="118.392">hasQualityMeasurement</text><text fill="#000000" font-family="sans-serif" font-size="13" lengthAdjust="spacing" textLength="19.5127" x="575.9492" y="140.9183">0..*</text></g><!--link Dataset to ProvActivity--><g class="link" data-entity-1="ent0002" data-entity-2="ent0017" data-link-type="dependency" data-source-line="35" id="lnk25"><path codeLine="35" d="M721.44,66.8969 C748.17,72.6369 792.07,84.2469 825.5,103.8969 C847.47,116.8069 864.2238,133.8772 875.8538,147.1972" fill="none" id="Dataset-to-ProvActivity" style="stroke:#404040;stroke-width:1.2;"/><polygon fill="#404040" points="879.8,151.7169,876.8938,142.3066,876.5115,147.9505,870.8676,147.5682,879.8,151.7169" style="stroke:#404040;stroke-width:1.2;"/><text fill="#000000" font-family="sans-serif" font-size="13" lengthAdjust="spacing" textLength="99.7217" x="850.5" y="118.392">wasGeneratedBy</text><text fill="#000000" font-family="sans-serif" font-size="13" lengthAdjust="spacing" textLength="19.5127" x="853.4044" y="141.12">0..*</text></g><!--link Dataset to CatalogRecord--><g class="link" data-entity-1="ent0002" data-entity-2="ent0018" data-link-type="dependency" data-source-line="36" id="lnk26"><path codeLine="36" d="M721.13,63.6269 C767.65,66.5969 873.94,76.1069 958.5,103.8969 C994.8,115.8269 1028.5029,134.9915 1050.4829,148.6415" fill="none" id="Dataset-to-CatalogRecord" style="stroke:#404040;stroke-width:1.2;"/><polygon fill="#404040" points="1055.58,151.8069,1050.0446,143.6608,1051.3324,149.1691,1045.8241,150.4569,1055.58,151.8069" style="stroke:#404040;stroke-width:1.2;"/><text fill="#000000" font-family="sans-serif" font-size="13" lengthAdjust="spacing" textLength="54.9136" x="1002.5" y="118.392">subjectOf</text><text fill="#000000" font-family="sans-serif" font-size="13" lengthAdjust="spacing" textLength="7.23" x="1039.7824" y="140.8618">1</text></g><!--link CatalogRecord to Dataset--><g class="link" data-entity-1="ent0018" data-entity-2="ent0002" data-link-type="dependency" data-source-line="43" id="lnk33"><path codeLine="43" d="M1075.75,151.4769 C1077.55,137.9469 1078.01,116.1469 1065.5,103.8969 C1040.83,79.7469 804.5838,67.1894 727.1538,63.6694" fill="none" id="CatalogRecord-to-Dataset" style="stroke:#404040;stroke-width:1.2;"/><polygon fill="#404040" points="721.16,63.3969,729.9691,67.8015,726.1548,63.624,730.3324,59.8097,721.16,63.3969" style="stroke:#404040;stroke-width:1.2;"/><text fill="#000000" font-family="sans-serif" font-size="13" lengthAdjust="spacing" textLength="32.5317" x="1075.5" y="118.392">about</text><text fill="#000000" font-family="sans-serif" font-size="13" lengthAdjust="spacing" textLength="21.6836" x="729.5265" y="59.4609">0..1</text></g><!--link Dataset to DefinedTerm--><g class="link" data-entity-1="ent0002" data-entity-2="ent0015" data-link-type="dependency" data-source-line="37" id="lnk27"><path codeLine="37" d="M715.35,73.9769 C726.14,81.5869 739.66,92.2569 749.5,103.8969 C762.01,118.6869 769.6048,133.4589 775.1948,146.1089" fill="none" id="Dataset-to-DefinedTerm" style="stroke:#404040;stroke-width:1.2;"/><polygon fill="#404040" points="777.62,151.5969,777.641,141.7481,775.599,147.0235,770.3236,144.9816,777.62,151.5969" style="stroke:#404040;stroke-width:1.2;"/><text fill="#000000" font-family="sans-serif" font-size="13" lengthAdjust="spacing" textLength="54.9072" x="762.5" y="118.392">keywords</text><text fill="#000000" font-family="sans-serif" font-size="13" lengthAdjust="spacing" textLength="19.5127" x="752.9884" y="140.9528">0..*</text></g><!--link SpatialExtent to AbstractGeometry--><g class="link" data-entity-1="ent0004" data-entity-2="ent0005" data-link-type="dependency" data-source-line="38" id="lnk28"><path codeLine="38" d="M310.65,176.9869 C289.16,196.3569 250.6155,231.1183 228.9955,250.6183" fill="none" id="SpatialExtent-to-AbstractGeometry" style="stroke:#404040;stroke-width:1.2;"/><polygon fill="#404040" points="224.54,254.6369,233.9022,251.5794,228.2529,251.2881,228.5441,245.6387,224.54,254.6369" style="stroke:#404040;stroke-width:1.2;"/><text fill="#000000" font-family="sans-serif" font-size="13" lengthAdjust="spacing" textLength="21.6899" x="275.5" y="221.392">geo</text><text fill="#000000" font-family="sans-serif" font-size="13" lengthAdjust="spacing" textLength="21.6836" x="204.7343" y="244.0085">0..1</text></g><!--link SpatialExtent to Geometry--><g class="link" data-entity-1="ent0004" data-entity-2="ent0011" data-link-type="dependency" data-source-line="39" id="lnk29"><path codeLine="39" d="M323.96,176.9869 C324.73,196.3569 326.0233,229.1416 326.7933,248.6416" fill="none" id="SpatialExtent-to-Geometry" style="stroke:#404040;stroke-width:1.2;"/><polygon fill="#404040" points="327.03,254.6369,330.6718,245.4861,326.8327,249.6408,322.678,245.8017,327.03,254.6369" style="stroke:#404040;stroke-width:1.2;"/><text fill="#000000" font-family="sans-serif" font-size="13" lengthAdjust="spacing" textLength="78.0317" x="327.5" y="221.392">hasGeometry</text><text fill="#000000" font-family="sans-serif" font-size="13" lengthAdjust="spacing" textLength="21.6836" x="301.9078" y="244.0085">0..1</text></g><!--link TemporalExtent to Instant--><g class="link" data-entity-1="ent0008" data-entity-2="ent0009" data-link-type="dependency" data-source-line="40" id="lnk30"><path codeLine="40" d="M453.3,177.1069 C448.56,189.6869 443.41,209.8769 451.5,224.8969 C460.32,241.2669 473.2598,249.8042 487.9098,256.3342" fill="none" id="TemporalExtent-to-Instant" style="stroke:#404040;stroke-width:1.2;"/><polygon fill="#404040" points="493.39,258.7769,486.7981,251.4593,488.8231,256.7413,483.5411,258.7663,493.39,258.7769" style="stroke:#404040;stroke-width:1.2;"/><text fill="#000000" font-family="sans-serif" font-size="13" lengthAdjust="spacing" textLength="78.7871" x="452.5" y="221.392">hasBeginning</text><text fill="#000000" font-family="sans-serif" font-size="13" lengthAdjust="spacing" textLength="21.6836" x="463.9835" y="251.84">0..1</text></g><!--link TemporalExtent to Instant--><g class="link" data-entity-1="ent0008" data-entity-2="ent0009" data-link-type="dependency" data-source-line="41" id="lnk31"><path codeLine="41" d="M497.92,177.0269 C512.35,183.4069 527.17,192.9469 535.5,206.8969 C544.71,222.3269 537.0777,237.5902 527.8377,250.0302" fill="none" id="TemporalExtent-to-Instant-1" style="stroke:#404040;stroke-width:1.2;"/><polygon fill="#404040" points="524.26,254.8469,532.8376,250.007,527.2414,250.833,526.4154,245.2368,524.26,254.8469" style="stroke:#404040;stroke-width:1.2;"/><text fill="#000000" font-family="sans-serif" font-size="13" lengthAdjust="spacing" textLength="44.0908" x="540.5" y="221.392">hasEnd</text><text fill="#000000" font-family="sans-serif" font-size="13" lengthAdjust="spacing" textLength="21.6836" x="503.0909" y="243.9183">0..1</text></g><!--link Instant to TimePosition--><g class="link" data-entity-1="ent0009" data-entity-2="ent0010" data-link-type="dependency" data-source-line="42" id="lnk32"><path codeLine="42" d="M514.5,279.9869 C514.5,299.3569 514.5,332.1369 514.5,351.6369" fill="none" id="Instant-to-TimePosition" style="stroke:#404040;stroke-width:1.2;"/><polygon fill="#404040" points="514.5,357.6369,518.5,348.6369,514.5,352.6369,510.5,348.6369,514.5,357.6369" style="stroke:#404040;stroke-width:1.2;"/><text fill="#000000" font-family="sans-serif" font-size="13" lengthAdjust="spacing" textLength="85.2554" x="515.5" y="324.392">inTimePosition</text><text fill="#000000" font-family="sans-serif" font-size="13" lengthAdjust="spacing" textLength="21.6836" x="489.4298" y="347.0085">0..1</text></g><?plantuml-src ZLJBZjim3BphAmZlhK22pQ8deoYGvs8FHRTDq3jZCp4tjXH8Ibpt0VGZ-eNzaYf-P6tPAGfVoF4CfQ4eMROfmGmDHmisaJgJBk3FhzzmYSvCkKWu9eXOHobLCML7Mq16sPQq4UR0yeWQCp09nYfdkOSTfePQVwPQgtoJS7IGP0nCnW-jdr6A3likeABDLQeqtBszltmEd2aTa_RHbP9spTy89W_Yfn1LZM215WtP0D107SFTQhbQpfSDvGjgncrA7mZDILDSSdtG5wsFQ1dJvLTBighUGQvqt1ghCRArfs1Qvu-aChAwAAK-w2_cyBbofbcY9LDAkj20O9tWaHfgcVYaZJirfJiUkf0lU9B6OisiurvDpkXP6RQiP5Mn1GpiyhK7jxn_Ec7AjgZF8MjsseTzuLp9Y8uLkuvxXcAdunsJhZnTKv-ue1rBYZUaisgINlCUrGtPGkKoLHXVfwu1VFApLkTfPFdih9JaDj0pv0gbQl-P8dVkbQqsSgNtfkdTZz786vZRf79KH7DLHgFt4DoFns-2_eq8uUn1GxBkjGZ1LFdyyfZWVd0bRmf3i3NmBz70G8IGeEdZG-fEtqF8qJoIT6jPYcT5Lp09lBuxJwVj2qNsusweT7jMGZXGaJkH4Ts-D7nNl7So8Un9tUQtUCbbsrKcl2Qs1CtLBVapshEKxeN-Ny5Ing81MfpEFG-1PHiGtOQrP4s_Gi2jEbdn5m00?></g></svg>