<svg xmlns="http://www.w3.org/2000/svg" xmlns:xlink="http://www.w3.org/1999/xlink" contentStyleType="text/css" data-diagram-type="CLASS" height="897px" preserveAspectRatio="none" style="width:1709px;height:897px;background:#FFFFFF;" version="1.1" viewBox="0 0 1709 897" width="1709px" zoomAndPan="magnify"><?plantuml 1.2026.3?><defs/><g><g class="title" data-source-line="1"><text fill="#000000" font-family="sans-serif" font-size="14" font-weight="700" lengthAdjust="spacing" textLength="181.7334" x="760.209" y="24.5332">CDIFDiscovery &#8212; overview</text></g><!--class Dataset--><g class="entity" data-qualified-name="Dataset" data-source-line="16" id="ent0002"><rect fill="#FEFECE" height="40.1875" rx="2.5" ry="2.5" style="stroke:#404040;stroke-width:0.5;" width="88.7109" x="688.5" y="45.6094"/><text fill="#000000" font-family="sans-serif" font-size="24" lengthAdjust="spacing" textLength="82.7109" x="691.5" y="75.5234">Dataset</text></g><!--class CatalogRecord--><g class="entity" data-qualified-name="CatalogRecord" data-source-line="17" id="ent0003"><rect fill="#FEFECE" height="40.1875" rx="2.5" ry="2.5" style="stroke:#404040;stroke-width:0.5;" width="166.0898" x="7" y="444.6094"/><text fill="#000000" font-family="sans-serif" font-size="24" lengthAdjust="spacing" textLength="160.0898" x="10" y="474.5234">CatalogRecord</text></g><!--class DefinedTerm--><g class="entity" data-qualified-name="DefinedTerm" data-source-line="18" id="ent0004"><rect fill="#D5F5E3" height="40.1875" rx="2.5" ry="2.5" style="stroke:#404040;stroke-width:0.5;" width="144.7148" x="174.5" y="843.6094"/><text fill="#000000" font-family="sans-serif" font-size="24" lengthAdjust="spacing" textLength="138.7148" x="177.5" y="873.5234">DefinedTerm</text></g><!--class VariableMeasured--><g class="entity" data-qualified-name="VariableMeasured" data-source-line="19" id="ent0005"><rect fill="#D5F5E3" height="40.1875" rx="2.5" ry="2.5" style="stroke:#404040;stroke-width:0.5;" width="200.7773" x="573.5" y="444.6094"/><text fill="#000000" font-family="sans-serif" font-size="24" lengthAdjust="spacing" textLength="194.7773" x="576.5" y="474.5234">VariableMeasured</text></g><!--class SpatialExtent--><g class="entity" data-qualified-name="SpatialExtent" data-source-line="20" id="ent0006"><rect fill="#D5F5E3" height="40.1875" rx="2.5" ry="2.5" style="stroke:#404040;stroke-width:0.5;" width="147.4219" x="790.5" y="444.6094"/><text fill="#000000" font-family="sans-serif" font-size="24" lengthAdjust="spacing" textLength="141.4219" x="793.5" y="474.5234">SpatialExtent</text></g><!--class TemporalExtent--><g class="entity" data-qualified-name="TemporalExtent" data-source-line="21" id="ent0007"><rect fill="#D5F5E3" height="40.1875" rx="2.5" ry="2.5" style="stroke:#404040;stroke-width:0.5;" width="175.4063" x="1015.5" y="444.6094"/><text fill="#000000" font-family="sans-serif" font-size="24" lengthAdjust="spacing" textLength="169.4063" x="1018.5" y="474.5234">TemporalExtent</text></g><!--class QualityMeasure--><g class="entity" data-qualified-name="QualityMeasure" data-source-line="22" id="ent0008"><rect fill="#D5F5E3" height="40.1875" rx="2.5" ry="2.5" style="stroke:#404040;stroke-width:0.5;" width="174.0703" x="1285" y="444.6094"/><text fill="#000000" font-family="sans-serif" font-size="24" lengthAdjust="spacing" textLength="168.0703" x="1288" y="474.5234">QualityMeasure</text></g><!--reverse link Dataset to CatalogRecord--><g class="link" data-entity-1="ent0002" data-entity-2="ent0003" data-link-type="composition" data-source-line="23" id="lnk9"><path codeLine="23" d="M676.3818,73.6991 C543.1118,91.1691 165.22,148.3294 91,245.6094 C45.43,305.3394 69.93,403.5094 83.23,444.5994" fill="none" id="Dataset-backto-CatalogRecord" style="stroke:#404040;stroke-width:1.2;"/><polygon fill="#404040" points="688.28,72.1394,681.811,68.9532,676.3818,73.6991,682.8508,76.8853,688.28,72.1394" style="stroke:#404040;stroke-width:1.2;"/><text fill="#000000" font-family="sans-serif" font-size="30" lengthAdjust="spacing" textLength="126.7236" x="92" y="277.752">subjectOf</text><text fill="#000000" font-family="sans-serif" font-size="30" lengthAdjust="spacing" textLength="16.6846" x="63.8832" y="429.8997">1</text></g><!--link Dataset to DefinedTerm--><g class="link" data-entity-1="ent0002" data-entity-2="ent0004" data-link-type="dependency" data-source-line="24" id="lnk10"><path codeLine="24" d="M688.17,84.3694 C585.75,127.7394 336.04,249.9594 240,444.6094 C171.44,583.5694 220.3626,775.7364 239.0826,837.6164" fill="none" id="Dataset-to-DefinedTerm" style="stroke:#404040;stroke-width:1.2;"/><polygon fill="#404040" points="240.82,843.3594,242.0426,833.5867,239.3722,838.5736,234.3853,835.9032,240.82,843.3594" style="stroke:#404040;stroke-width:1.2;"/><text fill="#000000" font-family="sans-serif" font-size="30" lengthAdjust="spacing" textLength="323.5107" x="241" y="477.252">measurementTechnique</text><text fill="#000000" font-family="sans-serif" font-size="30" lengthAdjust="spacing" textLength="45.0293" x="189.5806" y="829.0852">0..*</text></g><!--reverse link Dataset to VariableMeasured--><g class="link" data-entity-1="ent0002" data-entity-2="ent0005" data-link-type="composition" data-source-line="25" id="lnk11"><path codeLine="25" d="M704.2611,94.161 C673.6911,124.561 625.53,178.8994 604,245.6094 C580.31,318.9994 632.73,406.3494 659.5,444.3594" fill="none" id="Dataset-backto-VariableMeasured" style="stroke:#404040;stroke-width:1.2;"/><polygon fill="#404040" points="712.77,85.6994,705.695,87.0939,704.2611,94.161,711.3361,92.7665,712.77,85.6994" style="stroke:#404040;stroke-width:1.2;"/><text fill="#000000" font-family="sans-serif" font-size="30" lengthAdjust="spacing" textLength="238.4619" x="605" y="277.752">variableMeasured</text><text fill="#000000" font-family="sans-serif" font-size="30" lengthAdjust="spacing" textLength="45.0293" x="606.4338" y="430.0852">0..*</text></g><!--reverse link Dataset to SpatialExtent--><g class="link" data-entity-1="ent0002" data-entity-2="ent0006" data-link-type="composition" data-source-line="26" id="lnk12"><path codeLine="26" d="M756.6735,95.0538 C781.9235,126.2238 822.57,181.6394 844,245.6094 C867.54,315.8794 866.82,405.5894 865.14,444.3494" fill="none" id="Dataset-backto-SpatialExtent" style="stroke:#404040;stroke-width:1.2;"/><polygon fill="#404040" points="749.12,85.7294,749.7886,92.9094,756.6735,95.0538,756.0049,87.8738,749.12,85.7294" style="stroke:#404040;stroke-width:1.2;"/><text fill="#000000" font-family="sans-serif" font-size="30" lengthAdjust="spacing" textLength="216.7969" x="855" y="277.752">spatialCoverage</text><text fill="#000000" font-family="sans-serif" font-size="30" lengthAdjust="spacing" textLength="45.0293" x="815.4246" y="430.073">0..*</text></g><!--reverse link Dataset to TemporalExtent--><g class="link" data-entity-1="ent0002" data-entity-2="ent0007" data-link-type="composition" data-source-line="27" id="lnk13"><path codeLine="27" d="M789.1767,78.6379 C864.4467,96.7579 1004.02,141.8494 1076,245.6094 C1118.93,307.4994 1111.69,403.6394 1106.14,444.3594" fill="none" id="Dataset-backto-TemporalExtent" style="stroke:#404040;stroke-width:1.2;"/><polygon fill="#404040" points="777.51,75.8294,782.4072,81.1226,789.1767,78.6379,784.2795,73.3448,777.51,75.8294" style="stroke:#404040;stroke-width:1.2;"/><text fill="#000000" font-family="sans-serif" font-size="30" lengthAdjust="spacing" textLength="246.7969" x="1096" y="277.752">temporalCoverage</text><text fill="#000000" font-family="sans-serif" font-size="30" lengthAdjust="spacing" textLength="45.0293" x="1056.8638" y="430.0852">0..*</text></g><!--reverse link Dataset to QualityMeasure--><g class="link" data-entity-1="ent0002" data-entity-2="ent0008" data-link-type="composition" data-source-line="28" id="lnk14"><path codeLine="28" d="M789.4696,75 C917.8096,94.81 1271.75,156.3794 1347,245.6094 C1395.75,303.4094 1383.93,402.6494 1376.16,444.3094" fill="none" id="Dataset-backto-QualityMeasure" style="stroke:#404040;stroke-width:1.2;"/><polygon fill="#404040" points="777.61,73.1694,782.9296,78.0379,789.4696,75,784.15,70.1315,777.61,73.1694" style="stroke:#404040;stroke-width:1.2;"/><text fill="#000000" font-family="sans-serif" font-size="30" lengthAdjust="spacing" textLength="325.1514" x="1368" y="277.752">hasQualityMeasurement</text><text fill="#000000" font-family="sans-serif" font-size="30" lengthAdjust="spacing" textLength="45.0293" x="1327.1436" y="430.0243">0..*</text></g><!--link VariableMeasured to DefinedTerm--><g class="link" data-entity-1="ent0005" data-entity-2="ent0004" data-link-type="dependency" data-source-line="29" id="lnk15"><path codeLine="29" d="M653.4,484.7594 C581.19,551.8994 344.3142,772.134 272.0342,839.334" fill="none" id="VariableMeasured-to-DefinedTerm" style="stroke:#404040;stroke-width:1.2;"/><polygon fill="#404040" points="267.64,843.4194,276.955,840.2208,271.3019,840.0149,271.5078,834.3618,267.64,843.4194" style="stroke:#404040;stroke-width:1.2;"/><text fill="#000000" font-family="sans-serif" font-size="30" lengthAdjust="spacing" textLength="323.5107" x="475" y="676.752">measurementTechnique</text><text fill="#000000" font-family="sans-serif" font-size="30" lengthAdjust="spacing" textLength="50.0391" x="277.6592" y="829.1583">0..1</text></g><?plantuml-src ZPFDRk8m58NtUOghi4C2yTSkigZKoO_KHLLDYxg_91VYmR6fxS3GqKXzY3vXdwGE0HgxQ3JAnlvypxdN9ubXXXF4oLsMC9tBBQazVBozGxFQCje59Ii8SgPoJksQgetPGqNLWfGEz9g93IgiG9TOo1qJArWYrzGvkLLAxkObozU2j8RnSD8vL2ZMcZOmdOmwLCY26Zg-xi22bbXpaqbXdjWhmRIho3bQxpy1jErYoQM2tcpKF1R-aAeWvTEkbHKQezYYDdJ6ardmDmXQwp11WvfC2AZXk8PUbcPfd9vAOekvN3rIRjiT2XtYboUqP8AAEQcgTVtQGo-vogxIwQdq6HN31QTxGbqhQirzw8kUDcWOylIt8T7ExH2_V6vVhLHElOjymSyQEJFxO_k3m4LdmIcl_c00uJZqOeb0rujVb9k7vRboCBY1S3GSzaCdbiX-UGVhoiupfxmKxAKcrxzLVGidWgs7BidSXEnaxJvkVWXSNUpaXHI1EO9_YRoW8YXHkwovOV3j5gTSnl-LooS0?></g></svg>