<svg xmlns="http://www.w3.org/2000/svg" xmlns:xlink="http://www.w3.org/1999/xlink" contentStyleType="text/css" data-diagram-type="CLASS" height="397px" preserveAspectRatio="none" style="width:2148px;height:397px;background:#FFFFFF;" version="1.1" viewBox="0 0 2148 397" width="2148px" zoomAndPan="magnify"><?plantuml 1.2026.3?><defs/><g><g class="title" data-source-line="1"><text fill="#000000" font-family="sans-serif" font-size="14" font-weight="700" lengthAdjust="spacing" textLength="181.7334" x="979.6558" y="24.5332">CDIFDiscovery &#8212; overview</text></g><!--class Dataset--><g class="entity" data-qualified-name="Dataset" data-source-line="12" id="ent0002"><rect fill="#FEFECE" height="25.0938" rx="2.5" ry="2.5" style="stroke:#404040;stroke-width:0.5;" width="47.3555" x="1223.5" y="49.5746"/><text fill="#000000" font-family="sans-serif" font-size="12" lengthAdjust="spacing" textLength="41.3555" x="1226.5" y="67.0316">Dataset</text></g><!--class VariableMeasured--><g class="entity" data-qualified-name="VariableMeasured" data-source-line="13" id="ent0003"><rect fill="#FEFECE" height="25.0938" rx="2.5" ry="2.5" style="stroke:#404040;stroke-width:0.5;" width="103.3887" x="146.5" y="152.5746"/><text fill="#000000" font-family="sans-serif" font-size="12" lengthAdjust="spacing" textLength="97.3887" x="149.5" y="170.0316">VariableMeasured</text></g><!--class SpatialExtent--><g class="entity" data-qualified-name="SpatialExtent" data-source-line="14" id="ent0004"><rect fill="#FEFECE" height="25.0938" rx="2.5" ry="2.5" style="stroke:#404040;stroke-width:0.5;" width="76.7109" x="304.5" y="152.5746"/><text fill="#000000" font-family="sans-serif" font-size="12" lengthAdjust="spacing" textLength="70.7109" x="307.5" y="170.0316">SpatialExtent</text></g><!--class AbstractGeometry--><g class="entity" data-qualified-name="AbstractGeometry" data-source-line="15" id="ent0005"><rect fill="#FEFECE" height="25.0938" rx="2.5" ry="2.5" style="stroke:#404040;stroke-width:0.5;" width="102.6973" x="177.5" y="255.5746"/><text fill="#000000" font-family="sans-serif" font-size="12" font-style="italic" lengthAdjust="spacing" textLength="96.6973" x="180.5" y="273.0316">AbstractGeometry</text></g><!--class GeoCoordinates--><g class="entity" data-qualified-name="GeoCoordinates" data-source-line="16" id="ent0006"><rect fill="#FEFECE" height="25.0938" rx="2.5" ry="2.5" style="stroke:#404040;stroke-width:0.5;" width="93.3867" x="126.5" y="358.5746"/><text fill="#000000" font-family="sans-serif" font-size="12" lengthAdjust="spacing" textLength="87.3867" x="129.5" y="376.0316">GeoCoordinates</text></g><!--class GeoShape--><g class="entity" data-qualified-name="GeoShape" data-source-line="17" id="ent0007"><rect fill="#FEFECE" height="25.0938" rx="2.5" ry="2.5" style="stroke:#404040;stroke-width:0.5;" width="63.3809" x="254.5" y="358.5746"/><text fill="#000000" font-family="sans-serif" font-size="12" lengthAdjust="spacing" textLength="57.3809" x="257.5" y="376.0316">GeoShape</text></g><!--class TemporalExtent--><g class="entity" data-qualified-name="TemporalExtent" data-source-line="18" id="ent0008"><rect fill="#FEFECE" height="25.0938" rx="2.5" ry="2.5" style="stroke:#404040;stroke-width:0.5;" width="90.7031" x="428.5" y="152.5746"/><text fill="#000000" font-family="sans-serif" font-size="12" lengthAdjust="spacing" textLength="84.7031" x="431.5" y="170.0316">TemporalExtent</text></g><!--class Instant--><g class="entity" data-qualified-name="Instant" data-source-line="19" id="ent0009"><rect fill="#FEFECE" height="25.0938" rx="2.5" ry="2.5" style="stroke:#404040;stroke-width:0.5;" width="42.0234" x="511" y="255.5746"/><text fill="#000000" font-family="sans-serif" font-size="12" lengthAdjust="spacing" textLength="36.0234" x="514" y="273.0316">Instant</text></g><!--class TimePosition--><g class="entity" data-qualified-name="TimePosition" data-source-line="20" id="ent0010"><rect fill="#FEFECE" height="25.0938" rx="2.5" ry="2.5" style="stroke:#404040;stroke-width:0.5;" width="75.3574" x="494.5" y="358.5746"/><text fill="#000000" font-family="sans-serif" font-size="12" lengthAdjust="spacing" textLength="69.3574" x="497.5" y="376.0316">TimePosition</text></g><!--class Geometry--><g class="entity" data-qualified-name="Geometry" data-source-line="21" id="ent0011"><rect fill="#FEFECE" height="25.0938" rx="2.5" ry="2.5" style="stroke:#404040;stroke-width:0.5;" width="58.6816" x="315.5" y="255.5746"/><text fill="#000000" font-family="sans-serif" font-size="12" lengthAdjust="spacing" textLength="52.6816" x="318.5" y="273.0316">Geometry</text></g><!--class QualityMeasurement--><g class="entity" data-qualified-name="QualityMeasurement" data-source-line="22" id="ent0012"><rect fill="#FEFECE" height="25.0938" rx="2.5" ry="2.5" style="stroke:#404040;stroke-width:0.5;" width="116.7129" x="554.5" y="152.5746"/><text fill="#000000" font-family="sans-serif" font-size="12" lengthAdjust="spacing" textLength="110.7129" x="557.5" y="170.0316">QualityMeasurement</text></g><!--class Concept--><g class="entity" data-qualified-name="Concept" data-source-line="23" id="ent0013"><rect fill="#FEFECE" height="25.0938" rx="2.5" ry="2.5" style="stroke:#404040;stroke-width:0.5;" width="50.6953" x="33.5" y="49.5746"/><text fill="#000000" font-family="sans-serif" font-size="12" lengthAdjust="spacing" textLength="44.6953" x="36.5" y="67.0316">Concept</text></g><!--class Identifier--><g class="entity" data-qualified-name="Identifier" data-source-line="24" id="ent0014"><rect fill="#FEFECE" height="25.0938" rx="2.5" ry="2.5" style="stroke:#404040;stroke-width:0.5;" width="52.0254" x="120" y="49.5746"/><text fill="#000000" font-family="sans-serif" font-size="12" lengthAdjust="spacing" textLength="46.0254" x="123" y="67.0316">Identifier</text></g><!--class DefinedTerm--><g class="entity" data-qualified-name="DefinedTerm" data-source-line="25" id="ent0015"><rect fill="#FEFECE" height="25.0938" rx="2.5" ry="2.5" style="stroke:#404040;stroke-width:0.5;" width="75.3574" x="706.5" y="152.5746"/><text fill="#000000" font-family="sans-serif" font-size="12" lengthAdjust="spacing" textLength="69.3574" x="709.5" y="170.0316">DefinedTerm</text></g><!--class AbstractDistribution--><g class="entity" data-qualified-name="AbstractDistribution" data-source-line="26" id="ent0016"><rect fill="#FEFECE" height="25.0938" rx="2.5" ry="2.5" style="stroke:#404040;stroke-width:0.5;" width="110.0391" x="817" y="152.5746"/><text fill="#000000" font-family="sans-serif" font-size="12" font-style="italic" lengthAdjust="spacing" textLength="104.0391" x="820" y="170.0316">AbstractDistribution</text></g><!--class DataDownload--><g class="entity" data-qualified-name="DataDownload" data-source-line="27" id="ent0017"><rect fill="#FEFECE" height="25.0938" rx="2.5" ry="2.5" style="stroke:#404040;stroke-width:0.5;" width="84.7148" x="768.5" y="255.5746"/><text fill="#000000" font-family="sans-serif" font-size="12" lengthAdjust="spacing" textLength="78.7148" x="771.5" y="273.0316">DataDownload</text></g><!--class WebAPI--><g class="entity" data-qualified-name="WebAPI" data-source-line="28" id="ent0018"><rect fill="#FEFECE" height="25.0938" rx="2.5" ry="2.5" style="stroke:#404040;stroke-width:0.5;" width="50.0156" x="889" y="255.5746"/><text fill="#000000" font-family="sans-serif" font-size="12" lengthAdjust="spacing" textLength="44.0156" x="892" y="273.0316">WebAPI</text></g><!--class Agent--><g class="entity" data-qualified-name="Agent" data-source-line="29" id="ent0019"><rect fill="#FEFECE" height="25.0938" rx="2.5" ry="2.5" style="stroke:#404040;stroke-width:0.5;" width="37.3594" x="1284.5" y="255.5746"/><text fill="#000000" font-family="sans-serif" font-size="12" font-style="italic" lengthAdjust="spacing" textLength="31.3594" x="1287.5" y="273.0316">Agent</text></g><!--class Person--><g class="entity" data-qualified-name="Person" data-source-line="30" id="ent0020"><rect fill="#FEFECE" height="25.0938" rx="2.5" ry="2.5" style="stroke:#404040;stroke-width:0.5;" width="44.0215" x="1234" y="358.5746"/><text fill="#000000" font-family="sans-serif" font-size="12" lengthAdjust="spacing" textLength="38.0215" x="1237" y="376.0316">Person</text></g><!--class Organization--><g class="entity" data-qualified-name="Organization" data-source-line="31" id="ent0021"><rect fill="#FEFECE" height="25.0938" rx="2.5" ry="2.5" style="stroke:#404040;stroke-width:0.5;" width="74.0391" x="1313" y="358.5746"/><text fill="#000000" font-family="sans-serif" font-size="12" lengthAdjust="spacing" textLength="68.0391" x="1316" y="376.0316">Organization</text></g><!--class Contributor--><g class="entity" data-qualified-name="Contributor" data-source-line="32" id="ent0022"><rect fill="#FEFECE" height="25.0938" rx="2.5" ry="2.5" style="stroke:#404040;stroke-width:0.5;" width="65.3613" x="1448.5" y="152.5746"/><text fill="#000000" font-family="sans-serif" font-size="12" lengthAdjust="spacing" textLength="59.3613" x="1451.5" y="170.0316">Contributor</text></g><!--class AdditionalProperty--><g class="entity" data-qualified-name="AdditionalProperty" data-source-line="33" id="ent0023"><rect fill="#FEFECE" height="25.0938" rx="2.5" ry="2.5" style="stroke:#404040;stroke-width:0.5;" width="104.0566" x="7" y="152.5746"/><text fill="#000000" font-family="sans-serif" font-size="12" lengthAdjust="spacing" textLength="98.0566" x="10" y="170.0316">AdditionalProperty</text></g><!--class Reference--><g class="entity" data-qualified-name="Reference" data-source-line="34" id="ent0024"><rect fill="#FEFECE" height="25.0938" rx="2.5" ry="2.5" style="stroke:#404040;stroke-width:0.5;" width="61.3652" x="1548.5" y="152.5746"/><text fill="#000000" font-family="sans-serif" font-size="12" lengthAdjust="spacing" textLength="55.3652" x="1551.5" y="170.0316">Reference</text></g><!--class MonetaryGrant--><g class="entity" data-qualified-name="MonetaryGrant" data-source-line="35" id="ent0025"><rect fill="#FEFECE" height="25.0938" rx="2.5" ry="2.5" style="stroke:#404040;stroke-width:0.5;" width="86.0332" x="1645" y="152.5746"/><text fill="#000000" font-family="sans-serif" font-size="12" lengthAdjust="spacing" textLength="80.0332" x="1648" y="170.0316">MonetaryGrant</text></g><!--class ProvActivity--><g class="entity" data-qualified-name="ProvActivity" data-source-line="36" id="ent0026"><rect fill="#FEFECE" height="25.0938" rx="2.5" ry="2.5" style="stroke:#404040;stroke-width:0.5;" width="68.6777" x="1766.5" y="152.5746"/><text fill="#000000" font-family="sans-serif" font-size="12" lengthAdjust="spacing" textLength="62.6777" x="1769.5" y="170.0316">ProvActivity</text></g><!--class DerivedFrom--><g class="entity" data-qualified-name="DerivedFrom" data-source-line="37" id="ent0027"><rect fill="#FEFECE" height="25.0938" rx="2.5" ry="2.5" style="stroke:#404040;stroke-width:0.5;" width="75.3457" x="1870.5" y="152.5746"/><text fill="#000000" font-family="sans-serif" font-size="12" lengthAdjust="spacing" textLength="69.3457" x="1873.5" y="170.0316">DerivedFrom</text></g><!--class CatalogRecord--><g class="entity" data-qualified-name="CatalogRecord" data-source-line="38" id="ent0028"><rect fill="#FEFECE" height="25.0938" rx="2.5" ry="2.5" style="stroke:#404040;stroke-width:0.5;" width="86.0449" x="2047" y="152.5746"/><text fill="#000000" font-family="sans-serif" font-size="12" lengthAdjust="spacing" textLength="80.0449" x="2050" y="170.0316">CatalogRecord</text></g><!--reverse link AbstractGeometry to GeoCoordinates--><g class="link" data-entity-1="ent0005" data-entity-2="ent0006" data-link-type="extension" data-source-line="39" id="lnk29"><path codeLine="39" d="M213.8453,296.4032 C203.0953,315.7732 190.33,338.8146 179.52,358.3146" fill="none" id="AbstractGeometry-backto-GeoCoordinates" style="stroke:#404040;stroke-width:1.2;"/><polygon fill="none" points="222.58,280.6646,208.5991,293.4917,219.0915,299.3148,222.58,280.6646" style="stroke:#404040;stroke-width:1.2;"/></g><!--reverse link AbstractGeometry to GeoShape--><g class="link" data-entity-1="ent0005" data-entity-2="ent0007" data-link-type="extension" data-source-line="40" id="lnk30"><path codeLine="40" d="M244.392,296.3376 C255.332,315.7076 268.36,338.8146 279.36,358.3146" fill="none" id="AbstractGeometry-backto-GeoShape" style="stroke:#404040;stroke-width:1.2;"/><polygon fill="none" points="235.54,280.6646,239.1676,299.2882,249.6163,293.3869,235.54,280.6646" style="stroke:#404040;stroke-width:1.2;"/></g><!--reverse link AbstractDistribution to DataDownload--><g class="link" data-entity-1="ent0016" data-entity-2="ent0017" data-link-type="extension" data-source-line="41" id="lnk31"><path codeLine="41" d="M855.6935,193.072 C843.9935,212.442 829.88,235.8146 818.1,255.3146" fill="none" id="AbstractDistribution-backto-DataDownload" style="stroke:#404040;stroke-width:1.2;"/><polygon fill="none" points="865,177.6646,850.5577,189.9698,860.8293,196.1742,865,177.6646" style="stroke:#404040;stroke-width:1.2;"/></g><!--reverse link AbstractDistribution to WebAPI--><g class="link" data-entity-1="ent0016" data-entity-2="ent0018" data-link-type="extension" data-source-line="42" id="lnk32"><path codeLine="42" d="M883.7352,194.2833 C891.7952,213.6533 901,235.8146 909.11,255.3146" fill="none" id="AbstractDistribution-backto-WebAPI" style="stroke:#404040;stroke-width:1.2;"/><polygon fill="none" points="876.82,177.6646,878.1956,196.5883,889.2747,191.9782,876.82,177.6646" style="stroke:#404040;stroke-width:1.2;"/></g><!--reverse link Agent to Person--><g class="link" data-entity-1="ent0019" data-entity-2="ent0020" data-link-type="extension" data-source-line="43" id="lnk33"><path codeLine="43" d="M1290.0114,296.9821 C1280.9914,316.3521 1270.55,338.8146 1261.47,358.3146" fill="none" id="Agent-backto-Person" style="stroke:#404040;stroke-width:1.2;"/><polygon fill="none" points="1297.61,280.6646,1284.5723,294.4493,1295.4506,299.515,1297.61,280.6646" style="stroke:#404040;stroke-width:1.2;"/></g><!--reverse link Agent to Organization--><g class="link" data-entity-1="ent0019" data-entity-2="ent0021" data-link-type="extension" data-source-line="44" id="lnk34"><path codeLine="44" d="M1315.9886,296.9821 C1325.0086,316.3521 1335.45,338.8146 1344.53,358.3146" fill="none" id="Agent-backto-Organization" style="stroke:#404040;stroke-width:1.2;"/><polygon fill="none" points="1308.39,280.6646,1310.5494,299.515,1321.4277,294.4493,1308.39,280.6646" style="stroke:#404040;stroke-width:1.2;"/></g><!--link Dataset to VariableMeasured--><g class="link" data-entity-1="ent0002" data-entity-2="ent0003" data-link-type="dependency" data-source-line="45" id="lnk35"><path codeLine="45" d="M1223.15,63.0446 C1081.03,63.0346 348.96,64.8746 258,104.5746 C234.87,114.6646 219.1994,133.1523 209.1294,147.4223" fill="none" id="Dataset-to-VariableMeasured" style="stroke:#404040;stroke-width:1.2;"/><polygon fill="#404040" points="205.67,152.3246,214.1273,147.2774,208.5529,148.2393,207.5909,142.6649,205.67,152.3246" style="stroke:#404040;stroke-width:1.2;"/><text fill="#000000" font-family="sans-serif" font-size="13" lengthAdjust="spacing" textLength="103.3335" x="259" y="119.0697">variableMeasured</text><text fill="#000000" font-family="sans-serif" font-size="13" lengthAdjust="spacing" textLength="19.5127" x="185.9739" y="141.7001">0..*</text></g><!--link Dataset to SpatialExtent--><g class="link" data-entity-1="ent0002" data-entity-2="ent0004" data-link-type="dependency" data-source-line="46" id="lnk36"><path codeLine="46" d="M1223.44,63.0846 C1093.56,63.3046 468.12,66.3646 392,104.5746 C371.43,114.9046 359.2317,132.9356 351.5717,147.1156" fill="none" id="Dataset-to-SpatialExtent" style="stroke:#404040;stroke-width:1.2;"/><polygon fill="#404040" points="348.72,152.3946,356.5169,146.3772,351.0964,147.9954,349.4782,142.5749,348.72,152.3946" style="stroke:#404040;stroke-width:1.2;"/><text fill="#000000" font-family="sans-serif" font-size="13" lengthAdjust="spacing" textLength="93.9453" x="393" y="119.0697">spatialCoverage</text><text fill="#000000" font-family="sans-serif" font-size="13" lengthAdjust="spacing" textLength="19.5127" x="328.3895" y="141.7977">0..*</text></g><!--link Dataset to TemporalExtent--><g class="link" data-entity-1="ent0002" data-entity-2="ent0008" data-link-type="dependency" data-source-line="47" id="lnk37"><path codeLine="47" d="M1223.29,63.1546 C1104.33,63.7446 575.73,68.3646 513,104.5746 C494.6,115.1946 485.4741,132.8046 480.0541,146.8946" fill="none" id="Dataset-to-TemporalExtent" style="stroke:#404040;stroke-width:1.2;"/><polygon fill="#404040" points="477.9,152.4946,484.8645,145.5307,479.6951,147.8279,477.3979,142.6585,477.9,152.4946" style="stroke:#404040;stroke-width:1.2;"/><text fill="#000000" font-family="sans-serif" font-size="13" lengthAdjust="spacing" textLength="106.9453" x="514" y="119.0697">temporalCoverage</text><text fill="#000000" font-family="sans-serif" font-size="13" lengthAdjust="spacing" textLength="19.5127" x="456.757" y="141.5536">0..*</text></g><!--link Dataset to QualityMeasurement--><g class="link" data-entity-1="ent0002" data-entity-2="ent0012" data-link-type="dependency" data-source-line="48" id="lnk38"><path codeLine="48" d="M1223.44,63.3646 C1118.23,64.8446 694.29,72.7646 645,104.5746 C628.25,115.3846 621.2331,132.2927 617.3431,146.3227" fill="none" id="Dataset-to-QualityMeasurement" style="stroke:#404040;stroke-width:1.2;"/><polygon fill="#404040" points="615.74,152.1046,621.9992,144.5005,617.0759,147.2863,614.2901,142.363,615.74,152.1046" style="stroke:#404040;stroke-width:1.2;"/><text fill="#000000" font-family="sans-serif" font-size="13" lengthAdjust="spacing" textLength="140.8989" x="646" y="119.0697">hasQualityMeasurement</text><text fill="#000000" font-family="sans-serif" font-size="13" lengthAdjust="spacing" textLength="19.5127" x="594.3152" y="141.654">0..*</text></g><!--link Dataset to Agent--><g class="link" data-entity-1="ent0002" data-entity-2="ent0019" data-link-type="dependency" data-source-line="49" id="lnk39"><path codeLine="49" d="M1223.18,65.1746 C1157.11,72.0246 979.3,98.1046 1024,177.5746 C1044.14,213.3846 1064.78,210.5146 1103,225.5746 C1166.84,250.7246 1242.4729,260.9369 1278.5029,264.7269" fill="none" id="Dataset-to-Agent" style="stroke:#404040;stroke-width:1.2;"/><polygon fill="#404040" points="1284.47,265.3546,1275.9378,260.435,1279.4974,264.8315,1275.1009,268.3911,1284.47,265.3546" style="stroke:#404040;stroke-width:1.2;"/><text fill="#000000" font-family="sans-serif" font-size="13" lengthAdjust="spacing" textLength="60.6963" x="1025" y="170.5697">maintainer</text><text fill="#000000" font-family="sans-serif" font-size="13" lengthAdjust="spacing" textLength="19.5127" x="1256.9093" y="280.5062">0..*</text></g><!--link Dataset to Agent--><g class="link" data-entity-1="ent0002" data-entity-2="ent0019" data-link-type="dependency" data-source-line="50" id="lnk40"><path codeLine="50" d="M1225.54,74.6146 C1192.4,94.0746 1134.72,135.4146 1156,177.5746 C1181.71,228.5246 1245.0981,251.6615 1278.5681,260.9415" fill="none" id="Dataset-to-Agent-1" style="stroke:#404040;stroke-width:1.2;"/><polygon fill="#404040" points="1284.35,262.5446,1276.7459,256.2853,1279.5318,261.2087,1274.6085,263.9945,1284.35,262.5446" style="stroke:#404040;stroke-width:1.2;"/><text fill="#000000" font-family="sans-serif" font-size="13" lengthAdjust="spacing" textLength="46.9663" x="1157" y="170.5697">provider</text><text fill="#000000" font-family="sans-serif" font-size="13" lengthAdjust="spacing" textLength="19.5127" x="1257.1035" y="256.1031">0..*</text></g><!--link Dataset to Agent--><g class="link" data-entity-1="ent0002" data-entity-2="ent0019" data-link-type="dependency" data-source-line="52" id="lnk42"><path codeLine="52" d="M1249.45,74.8546 C1253.85,95.7046 1263.61,140.3946 1274,177.5746 C1281.87,205.7346 1290.9359,232.6086 1296.8659,249.6286" fill="none" id="Dataset-to-Agent-2" style="stroke:#404040;stroke-width:1.2;"/><polygon fill="#404040" points="1298.84,255.2946,1299.6562,245.4796,1297.1949,250.573,1292.1016,248.1117,1298.84,255.2946" style="stroke:#404040;stroke-width:1.2;"/><text fill="#000000" font-family="sans-serif" font-size="13" lengthAdjust="spacing" textLength="40.46" x="1275" y="170.5697">creator</text><text fill="#000000" font-family="sans-serif" font-size="13" lengthAdjust="spacing" textLength="19.5127" x="1300.9728" y="244.6583">0..*</text></g><!--link Dataset to Agent--><g class="link" data-entity-1="ent0002" data-entity-2="ent0019" data-link-type="dependency" data-source-line="54" id="lnk44"><path codeLine="54" d="M1261.66,74.7946 C1279.69,90.3146 1309.25,119.5946 1320,152.5746 C1331.83,188.8746 1319.0034,228.8078 1310.4334,249.8478" fill="none" id="Dataset-to-Agent-3" style="stroke:#404040;stroke-width:1.2;"/><polygon fill="#404040" points="1308.17,255.4046,1315.2695,248.5784,1310.0561,250.774,1307.8606,245.5606,1308.17,255.4046" style="stroke:#404040;stroke-width:1.2;"/><text fill="#000000" font-family="sans-serif" font-size="13" lengthAdjust="spacing" textLength="52.7554" x="1326" y="170.5697">publisher</text><text fill="#000000" font-family="sans-serif" font-size="13" lengthAdjust="spacing" textLength="21.6836" x="1314.4039" y="244.8116">0..1</text></g><!--link Dataset to AbstractDistribution--><g class="link" data-entity-1="ent0002" data-entity-2="ent0016" data-link-type="dependency" data-source-line="51" id="lnk41"><path codeLine="51" d="M1223.07,63.2946 C1154.56,64.3446 959.22,70.3446 907,104.5746 C889.96,115.7446 882.037,132.629 877.347,146.539" fill="none" id="Dataset-to-AbstractDistribution" style="stroke:#404040;stroke-width:1.2;"/><polygon fill="#404040" points="875.43,152.2246,882.0958,144.9743,877.0275,147.4866,874.5151,142.4183,875.43,152.2246" style="stroke:#404040;stroke-width:1.2;"/><text fill="#000000" font-family="sans-serif" font-size="13" lengthAdjust="spacing" textLength="62.8672" x="908" y="119.0697">distribution</text><text fill="#000000" font-family="sans-serif" font-size="13" lengthAdjust="spacing" textLength="19.5127" x="854.2061" y="141.8198">0..*</text></g><!--link Dataset to Contributor--><g class="link" data-entity-1="ent0002" data-entity-2="ent0022" data-link-type="dependency" data-source-line="53" id="lnk43"><path codeLine="53" d="M1270.63,68.1746 C1298.66,74.6746 1346.45,87.2046 1385,104.5746 C1414.85,118.0346 1441.7197,135.7782 1460.1897,148.9082" fill="none" id="Dataset-to-Contributor" style="stroke:#404040;stroke-width:1.2;"/><polygon fill="#404040" points="1465.08,152.3846,1460.0622,143.9098,1461.0048,149.4876,1455.427,150.4301,1465.08,152.3846" style="stroke:#404040;stroke-width:1.2;"/><text fill="#000000" font-family="sans-serif" font-size="13" lengthAdjust="spacing" textLength="61.4199" x="1419" y="119.0697">contributor</text><text fill="#000000" font-family="sans-serif" font-size="13" lengthAdjust="spacing" textLength="19.5127" x="1436.1007" y="141.7838">0..*</text></g><!--link Dataset to MonetaryGrant--><g class="link" data-entity-1="ent0002" data-entity-2="ent0025" data-link-type="dependency" data-source-line="55" id="lnk45"><path codeLine="55" d="M1270.6,63.2346 C1325.25,64.2146 1464.24,70.1846 1574,104.5746 C1610.43,115.9846 1644.0039,135.4741 1665.6339,149.2941" fill="none" id="Dataset-to-MonetaryGrant" style="stroke:#404040;stroke-width:1.2;"/><polygon fill="#404040" points="1670.69,152.5246,1665.2595,144.3081,1666.4766,149.8325,1660.9522,151.0496,1670.69,152.5246" style="stroke:#404040;stroke-width:1.2;"/><text fill="#000000" font-family="sans-serif" font-size="13" lengthAdjust="spacing" textLength="42.6499" x="1618" y="119.0697">funding</text><text fill="#000000" font-family="sans-serif" font-size="13" lengthAdjust="spacing" textLength="19.5127" x="1640.7298" y="141.596">0..*</text></g><!--link Dataset to ProvActivity--><g class="link" data-entity-1="ent0002" data-entity-2="ent0026" data-link-type="dependency" data-source-line="56" id="lnk46"><path codeLine="56" d="M1270.81,62.7346 C1335.83,62.3846 1521.41,65.1946 1669,104.5746 C1710.53,115.6546 1750.226,135.5872 1775.486,149.5172" fill="none" id="Dataset-to-ProvActivity" style="stroke:#404040;stroke-width:1.2;"/><polygon fill="#404040" points="1780.74,152.4146,1774.7905,144.5657,1776.3616,150.0001,1770.9273,151.5711,1780.74,152.4146" style="stroke:#404040;stroke-width:1.2;"/><text fill="#000000" font-family="sans-serif" font-size="13" lengthAdjust="spacing" textLength="99.7217" x="1719" y="119.0697">wasGeneratedBy</text><text fill="#000000" font-family="sans-serif" font-size="13" lengthAdjust="spacing" textLength="19.5127" x="1750.1864" y="141.8256">0..*</text></g><!--link Dataset to DerivedFrom--><g class="link" data-entity-1="ent0002" data-entity-2="ent0027" data-link-type="dependency" data-source-line="57" id="lnk47"><path codeLine="57" d="M1270.69,63.0346 C1366.13,63.1146 1722.31,66.0646 1827,104.5746 C1855.17,114.9346 1877.743,134.0573 1892.353,148.2273" fill="none" id="Dataset-to-DerivedFrom" style="stroke:#404040;stroke-width:1.2;"/><polygon fill="#404040" points="1896.66,152.4046,1892.9844,143.2673,1893.0708,148.9235,1887.4146,149.01,1896.66,152.4046" style="stroke:#404040;stroke-width:1.2;"/><text fill="#000000" font-family="sans-serif" font-size="13" lengthAdjust="spacing" textLength="98.2427" x="1860" y="119.0697">wasDerivedFrom</text><text fill="#000000" font-family="sans-serif" font-size="13" lengthAdjust="spacing" textLength="19.5127" x="1869.4871" y="141.8116">0..*</text></g><!--link Dataset to CatalogRecord--><g class="link" data-entity-1="ent0002" data-entity-2="ent0028" data-link-type="dependency" data-source-line="58" id="lnk48"><path codeLine="58" d="M1270.84,63.2046 C1379.81,63.9646 1830.97,69.2546 1967,104.5746 C2006.49,114.8246 2043.3187,135.0385 2066.5987,149.2485" fill="none" id="Dataset-to-CatalogRecord" style="stroke:#404040;stroke-width:1.2;"/><polygon fill="#404040" points="2071.72,152.3746,2066.122,144.2713,2067.4522,149.7695,2061.954,151.0997,2071.72,152.3746" style="stroke:#404040;stroke-width:1.2;"/><text fill="#000000" font-family="sans-serif" font-size="13" lengthAdjust="spacing" textLength="54.9136" x="2013" y="119.0697">subjectOf</text><text fill="#000000" font-family="sans-serif" font-size="13" lengthAdjust="spacing" textLength="7.23" x="2056.1806" y="141.7698">1</text></g><!--link CatalogRecord to Dataset--><g class="link" data-entity-1="ent0028" data-entity-2="ent0002" data-link-type="dependency" data-source-line="68" id="lnk58"><path codeLine="68" d="M2091.01,152.3546 C2091.48,138.5746 2089.86,116.1246 2076,104.5746 C2044.25,78.1046 1409.1691,65.8479 1276.7891,63.5679" fill="none" id="CatalogRecord-to-Dataset" style="stroke:#404040;stroke-width:1.2;"/><polygon fill="#404040" points="1270.79,63.4646,1279.7198,67.619,1275.7893,63.5507,1279.8575,59.6202,1270.79,63.4646" style="stroke:#404040;stroke-width:1.2;"/><text fill="#000000" font-family="sans-serif" font-size="13" lengthAdjust="spacing" textLength="32.5317" x="2088" y="119.0697">about</text><text fill="#000000" font-family="sans-serif" font-size="13" lengthAdjust="spacing" textLength="21.6836" x="1278.7575" y="59.4609">0..1</text></g><!--link Dataset to DefinedTerm--><g class="link" data-entity-1="ent0002" data-entity-2="ent0015" data-link-type="dependency" data-source-line="59" id="lnk49"><path codeLine="59" d="M1223.26,63.8046 C1145.71,66.4546 900.54,76.8746 827,104.5746 C798.46,115.3246 775.1886,134.3931 760.1186,148.4431" fill="none" id="Dataset-to-DefinedTerm" style="stroke:#404040;stroke-width:1.2;"/><polygon fill="#404040" points="755.73,152.5346,765.0405,149.323,759.3871,149.125,759.5852,143.4716,755.73,152.5346" style="stroke:#404040;stroke-width:1.2;"/><text fill="#000000" font-family="sans-serif" font-size="13" lengthAdjust="spacing" textLength="54.9072" x="828" y="119.0697">keywords</text><text fill="#000000" font-family="sans-serif" font-size="13" lengthAdjust="spacing" textLength="19.5127" x="737.6819" y="141.6101">0..*</text></g><!--link Dataset to Reference--><g class="link" data-entity-1="ent0002" data-entity-2="ent0024" data-link-type="dependency" data-source-line="60" id="lnk50"><path codeLine="60" d="M1270.54,63.9146 C1314.83,66.1646 1412.9,74.4446 1489,104.5746 C1518.61,116.2946 1543.9342,134.8877 1560.7342,148.6177" fill="none" id="Dataset-to-Reference" style="stroke:#404040;stroke-width:1.2;"/><polygon fill="#404040" points="1565.38,152.4146,1560.9425,143.622,1561.5085,149.2505,1555.88,149.8165,1565.38,152.4146" style="stroke:#404040;stroke-width:1.2;"/><text fill="#000000" font-family="sans-serif" font-size="13" lengthAdjust="spacing" textLength="40.4663" x="1525" y="119.0697">license</text><text fill="#000000" font-family="sans-serif" font-size="13" lengthAdjust="spacing" textLength="19.5127" x="1537.3055" y="141.8256">0..*</text></g><!--link SpatialExtent to AbstractGeometry--><g class="link" data-entity-1="ent0004" data-entity-2="ent0005" data-link-type="dependency" data-source-line="61" id="lnk51"><path codeLine="61" d="M329.92,177.6646 C308.05,197.0346 268.7701,231.8347 246.7701,251.3347" fill="none" id="SpatialExtent-to-AbstractGeometry" style="stroke:#404040;stroke-width:1.2;"/><polygon fill="#404040" points="242.28,255.3146,251.6684,252.3382,246.0217,251.998,246.3619,246.3514,242.28,255.3146" style="stroke:#404040;stroke-width:1.2;"/><text fill="#000000" font-family="sans-serif" font-size="13" lengthAdjust="spacing" textLength="21.6899" x="294" y="222.0697">geo</text><text fill="#000000" font-family="sans-serif" font-size="13" lengthAdjust="spacing" textLength="21.6836" x="222.5688" y="244.6862">0..1</text></g><!--link SpatialExtent to Geometry--><g class="link" data-entity-1="ent0004" data-entity-2="ent0011" data-link-type="dependency" data-source-line="62" id="lnk52"><path codeLine="62" d="M343.23,177.6646 C343.61,197.0346 344.26,229.8158 344.65,249.3158" fill="none" id="SpatialExtent-to-Geometry" style="stroke:#404040;stroke-width:1.2;"/><polygon fill="#404040" points="344.77,255.3146,348.5892,246.2364,344.67,250.3156,340.5908,246.3964,344.77,255.3146" style="stroke:#404040;stroke-width:1.2;"/><text fill="#000000" font-family="sans-serif" font-size="13" lengthAdjust="spacing" textLength="78.0317" x="346" y="222.0697">hasGeometry</text><text fill="#000000" font-family="sans-serif" font-size="13" lengthAdjust="spacing" textLength="21.6836" x="319.7423" y="244.6862">0..1</text></g><!--link TemporalExtent to Instant--><g class="link" data-entity-1="ent0008" data-entity-2="ent0009" data-link-type="dependency" data-source-line="63" id="lnk53"><path codeLine="63" d="M469.4,177.8046 C465.26,190.3946 460.94,210.6046 469,225.5746 C477.82,241.9446 490.7598,250.4818 505.4098,257.0118" fill="none" id="TemporalExtent-to-Instant" style="stroke:#404040;stroke-width:1.2;"/><polygon fill="#404040" points="510.89,259.4546,504.2981,252.137,506.3231,257.419,501.0411,259.444,510.89,259.4546" style="stroke:#404040;stroke-width:1.2;"/><text fill="#000000" font-family="sans-serif" font-size="13" lengthAdjust="spacing" textLength="78.7871" x="470" y="222.0697">hasBeginning</text><text fill="#000000" font-family="sans-serif" font-size="13" lengthAdjust="spacing" textLength="21.6836" x="481.4835" y="252.5177">0..1</text></g><!--link TemporalExtent to Instant--><g class="link" data-entity-1="ent0008" data-entity-2="ent0009" data-link-type="dependency" data-source-line="64" id="lnk54"><path codeLine="64" d="M514.84,177.6446 C529.5,183.9846 544.51,193.5146 553,207.5746 C562.29,222.9546 554.6414,238.2307 545.3714,250.6907" fill="none" id="TemporalExtent-to-Instant-1" style="stroke:#404040;stroke-width:1.2;"/><polygon fill="#404040" points="541.79,255.5046,550.3714,250.6714,544.7745,251.493,543.9529,245.8961,541.79,255.5046" style="stroke:#404040;stroke-width:1.2;"/><text fill="#000000" font-family="sans-serif" font-size="13" lengthAdjust="spacing" textLength="44.0908" x="558" y="222.0697">hasEnd</text><text fill="#000000" font-family="sans-serif" font-size="13" lengthAdjust="spacing" textLength="21.6836" x="520.6333" y="244.5677">0..1</text></g><!--link Instant to TimePosition--><g class="link" data-entity-1="ent0009" data-entity-2="ent0010" data-link-type="dependency" data-source-line="65" id="lnk55"><path codeLine="65" d="M532,280.6646 C532,300.0346 532,332.8146 532,352.3146" fill="none" id="Instant-to-TimePosition" style="stroke:#404040;stroke-width:1.2;"/><polygon fill="#404040" points="532,358.3146,536,349.3146,532,353.3146,528,349.3146,532,358.3146" style="stroke:#404040;stroke-width:1.2;"/><text fill="#000000" font-family="sans-serif" font-size="13" lengthAdjust="spacing" textLength="85.2554" x="533" y="325.0697">inTimePosition</text><text fill="#000000" font-family="sans-serif" font-size="13" lengthAdjust="spacing" textLength="21.6836" x="506.9298" y="347.6862">0..1</text></g><!--link Contributor to Agent--><g class="link" data-entity-1="ent0022" data-entity-2="ent0019" data-link-type="dependency" data-source-line="66" id="lnk56"><path codeLine="66" d="M1463.23,177.7346 C1444.17,190.0846 1412.87,209.9246 1385,225.5746 C1363.71,237.5246 1343.9809,247.401 1327.2009,255.521" fill="none" id="Contributor-to-Agent" style="stroke:#404040;stroke-width:1.2;"/><polygon fill="#404040" points="1321.8,258.1346,1331.6437,257.8149,1326.3007,255.9566,1328.159,250.6137,1321.8,258.1346" style="stroke:#404040;stroke-width:1.2;"/><text fill="#000000" font-family="sans-serif" font-size="13" lengthAdjust="spacing" textLength="32.5317" x="1416" y="222.0697">agent</text><text fill="#000000" font-family="sans-serif" font-size="13" lengthAdjust="spacing" textLength="21.6836" x="1329.7179" y="271.143">0..1</text></g><!--link MonetaryGrant to Agent--><g class="link" data-entity-1="ent0025" data-entity-2="ent0019" data-link-type="dependency" data-source-line="67" id="lnk57"><path codeLine="67" d="M1644.96,177.3646 C1561.37,199.2946 1385.9537,245.3123 1327.4337,260.6623" fill="none" id="MonetaryGrant-to-Agent" style="stroke:#404040;stroke-width:1.2;"/><polygon fill="#404040" points="1321.63,262.1846,1331.3504,263.7702,1326.4664,260.916,1329.3206,256.032,1321.63,262.1846" style="stroke:#404040;stroke-width:1.2;"/><text fill="#000000" font-family="sans-serif" font-size="13" lengthAdjust="spacing" textLength="36.8608" x="1520" y="222.0697">funder</text><text fill="#000000" font-family="sans-serif" font-size="13" lengthAdjust="spacing" textLength="19.5127" x="1329.9157" y="255.6374">0..*</text></g><?plantuml-src ZLRDRjim3BxxAOJqDY15M-na30FI_1Gz5CtQOZlJDkDmjQL0KfAbsu0zn9vmJpBPiXrPLh8X249-_aXBv4SfcdI1R3gxNyn8fMA7yi3-_FhDAcj7k8_Mb25BIQO5MXlBZJwm4ii4fOhKA_4DI2YPMaCcziHpje92eVDa8gNOlwmfVUMe5Bk-l74UfWKOx7l4B6qg2Y7PnVkhwcF0Mo4pb3ww45m_qnkowvlePnJP7ACPQ52eHmmKQsnsiPWlvjDvI_aCaY0fy051RILcDTS7_Q3d3MY2OlvD8xVPUqX7XqHf2QbkzZIQDFuTYXArFDIXFkY_pE1JOJPD73IgEgGF1GAUrx31bbexFkd5T4t8tXxwa1zmpvM6XjdOWvnKub8eqYIupUW0WLKUQt1gxv-sK90-D7qesvKEOJzmAdYA6yjkxC66CXD7Aq9fzzIvFd66A-AOlQ0ihPAE_ZyxRMP8IqgsNKb23mOlD5ATYJql16ITTbl09t_1PBAyhsdMFBsclArVRVc9bcPwcqLQqoSyoXmulK6t5nS8DC3kJyYs2QtlKoTPLYi4YgKK6vIwcOi1x0S-uGebckRM_CxpQG-2emPvk9EjVdl8e0vIx2QffXqr2t61eJOaxJ1RID5ge_C75J5DB4J-XAcPN5iJ5-deW_FWmu_ns1lvqwHwsAEWocgAAwKpD2kbo0gbHgmcNCHjVzGUh-FnHpQwkhnyDngUeZ7RUL0eh7-KnanPVrfTG91ZACGxkMAc6-1SKE0GYTaQr10FHTiwnAm4ujfyKPvZROo4p5KPveIQ4BFCSS-bJYM26QeGnPqvGpnw0_ArizHjKf1QXzVQ7voOhRRSA38FKNjJ4xCzg3iqLJBgpMuFeG1tT6g-0_JvPhNzqJ4YsIPVCTMFgt3cuu4TirSyx4sG2Z6FPqZC2agHcxyjVJsw5VDdC6OvYjDyXxUkgc6zo1El4z1UipN_5dFYl2hsVmRCUHQrWCFftSan8-u2aIkPW3YW-etwAWXeifA54L2_IKwwjl8cOIAsEleB?></g></svg>