<svg xmlns="http://www.w3.org/2000/svg" xmlns:xlink="http://www.w3.org/1999/xlink" contentStyleType="text/css" data-diagram-type="CLASS" height="1305px" preserveAspectRatio="none" style="width:2101px;height:1305px;background:#FFFFFF;" version="1.1" viewBox="0 0 2101 1305" width="2101px" zoomAndPan="magnify"><?plantuml 1.2026.3?><defs/><g><g class="title" data-source-line="1"><text fill="#000000" font-family="sans-serif" font-size="14" font-weight="700" lengthAdjust="spacing" textLength="181.7334" x="956.5073" y="24.5332">CDIFDiscovery &#8212; overview</text></g><!--class Dataset--><g class="entity" data-qualified-name="Dataset" data-source-line="16" id="ent0002"><rect fill="#FEFECE" height="40.1875" rx="2.5" ry="2.5" style="stroke:#404040;stroke-width:0.5;" width="88.7109" x="685.5" y="45.6094"/><text fill="#000000" font-family="sans-serif" font-size="24" lengthAdjust="spacing" textLength="82.7109" x="688.5" y="75.5234">Dataset</text></g><!--class CatalogRecord--><g class="entity" data-qualified-name="CatalogRecord" data-source-line="17" id="ent0003"><rect fill="#FEFECE" height="40.1875" rx="2.5" ry="2.5" style="stroke:#404040;stroke-width:0.5;" width="166.0898" x="7" y="449.1094"/><text fill="#000000" font-family="sans-serif" font-size="24" lengthAdjust="spacing" textLength="160.0898" x="10" y="479.0234">CatalogRecord</text></g><!--class DefinedTerm--><g class="entity" data-qualified-name="DefinedTerm" data-source-line="18" id="ent0004"><rect fill="#FAE5D3" height="40.1875" rx="2.5" ry="2.5" style="stroke:#404040;stroke-width:0.5;" width="144.7148" x="190.5" y="852.6094"/><text fill="#000000" font-family="sans-serif" font-size="24" lengthAdjust="spacing" textLength="138.7148" x="193.5" y="882.5234">DefinedTerm</text></g><!--class VariableMeasured--><g class="entity" data-qualified-name="VariableMeasured" data-source-line="19" id="ent0005"><rect fill="#D5F5E3" height="40.1875" rx="2.5" ry="2.5" style="stroke:#404040;stroke-width:0.5;" width="200.7773" x="573.5" y="449.1094"/><text fill="#000000" font-family="sans-serif" font-size="24" lengthAdjust="spacing" textLength="194.7773" x="576.5" y="479.0234">VariableMeasured</text></g><!--class SpatialExtent--><g class="entity" data-qualified-name="SpatialExtent" data-source-line="20" id="ent0006"><rect fill="#D5F5E3" height="40.1875" rx="2.5" ry="2.5" style="stroke:#404040;stroke-width:0.5;" width="147.4219" x="790.5" y="449.1094"/><text fill="#000000" font-family="sans-serif" font-size="24" lengthAdjust="spacing" textLength="141.4219" x="793.5" y="479.0234">SpatialExtent</text></g><!--class TemporalExtent--><g class="entity" data-qualified-name="TemporalExtent" data-source-line="21" id="ent0007"><rect fill="#D5F5E3" height="40.1875" rx="2.5" ry="2.5" style="stroke:#404040;stroke-width:0.5;" width="175.4063" x="1010.5" y="449.1094"/><text fill="#000000" font-family="sans-serif" font-size="24" lengthAdjust="spacing" textLength="169.4063" x="1013.5" y="479.0234">TemporalExtent</text></g><!--class QualityMeasure--><g class="entity" data-qualified-name="QualityMeasure" data-source-line="22" id="ent0008"><rect fill="#D5F5E3" height="40.1875" rx="2.5" ry="2.5" style="stroke:#404040;stroke-width:0.5;" width="174.0703" x="1761" y="852.6094"/><text fill="#000000" font-family="sans-serif" font-size="24" lengthAdjust="spacing" textLength="168.0703" x="1764" y="882.5234">QualityMeasure</text></g><!--class QualityMeasurement--><g class="entity" data-qualified-name="QualityMeasurement" data-source-line="23" id="ent0009"><rect fill="#D5F5E3" height="40.1875" rx="2.5" ry="2.5" style="stroke:#404040;stroke-width:0.5;" width="227.4258" x="1734.5" y="449.1094"/><text fill="#000000" font-family="sans-serif" font-size="24" lengthAdjust="spacing" textLength="221.4258" x="1737.5" y="479.0234">QualityMeasurement</text></g><!--class AbstractGeometry--><g class="entity" data-qualified-name="AbstractGeometry" data-source-line="24" id="ent0010"><rect fill="#D5F5E3" height="40.1875" rx="2.5" ry="2.5" style="stroke:#404040;stroke-width:0.5;" width="199.3945" x="597.5" y="852.6094"/><text fill="#000000" font-family="sans-serif" font-size="24" font-style="italic" lengthAdjust="spacing" textLength="193.3945" x="600.5" y="882.5234">AbstractGeometry</text></g><!--class GeoCoordinates--><g class="entity" data-qualified-name="GeoCoordinates" data-source-line="25" id="ent0011"><rect fill="#D5F5E3" height="40.1875" rx="2.5" ry="2.5" style="stroke:#404040;stroke-width:0.5;" width="180.7734" x="523.5" y="1251.6094"/><text fill="#000000" font-family="sans-serif" font-size="24" lengthAdjust="spacing" textLength="174.7734" x="526.5" y="1281.5234">GeoCoordinates</text></g><!--class GeoShape--><g class="entity" data-qualified-name="GeoShape" data-source-line="26" id="ent0012"><rect fill="#D5F5E3" height="40.1875" rx="2.5" ry="2.5" style="stroke:#404040;stroke-width:0.5;" width="120.7617" x="720.5" y="1251.6094"/><text fill="#000000" font-family="sans-serif" font-size="24" lengthAdjust="spacing" textLength="114.7617" x="723.5" y="1281.5234">GeoShape</text></g><!--class Geometry--><g class="entity" data-qualified-name="Geometry" data-source-line="27" id="ent0013"><rect fill="#D5F5E3" height="40.1875" rx="2.5" ry="2.5" style="stroke:#404040;stroke-width:0.5;" width="111.3633" x="812.5" y="852.6094"/><text fill="#000000" font-family="sans-serif" font-size="24" lengthAdjust="spacing" textLength="105.3633" x="815.5" y="882.5234">Geometry</text></g><!--class Instant--><g class="entity" data-qualified-name="Instant" data-source-line="28" id="ent0014"><rect fill="#D5F5E3" height="40.1875" rx="2.5" ry="2.5" style="stroke:#404040;stroke-width:0.5;" width="78.0469" x="1143" y="852.6094"/><text fill="#000000" font-family="sans-serif" font-size="24" lengthAdjust="spacing" textLength="72.0469" x="1146" y="882.5234">Instant</text></g><!--class TimePosition--><g class="entity" data-qualified-name="TimePosition" data-source-line="29" id="ent0015"><rect fill="#D5F5E3" height="40.1875" rx="2.5" ry="2.5" style="stroke:#404040;stroke-width:0.5;" width="144.7148" x="1109.5" y="1251.6094"/><text fill="#000000" font-family="sans-serif" font-size="24" lengthAdjust="spacing" textLength="138.7148" x="1112.5" y="1281.5234">TimePosition</text></g><!--reverse link AbstractGeometry to GeoCoordinates--><g class="link" data-entity-1="ent0010" data-entity-2="ent0011" data-link-type="extension" data-source-line="30" id="lnk16"><path codeLine="30" d="M689.3164,910.3784 C675.2964,977.4384 632.17,1183.6994 618.06,1251.1894" fill="none" id="AbstractGeometry-backto-GeoCoordinates" style="stroke:#404040;stroke-width:1.2;"/><polygon fill="none" points="693,892.7594,683.4434,909.1506,695.1895,911.6063,693,892.7594" style="stroke:#404040;stroke-width:1.2;"/></g><!--reverse link AbstractGeometry to GeoShape--><g class="link" data-entity-1="ent0010" data-entity-2="ent0012" data-link-type="extension" data-source-line="31" id="lnk17"><path codeLine="31" d="M704.7763,910.3694 C718.9663,977.4294 762.61,1183.6994 776.89,1251.1894" fill="none" id="AbstractGeometry-backto-GeoShape" style="stroke:#404040;stroke-width:1.2;"/><polygon fill="none" points="701.05,892.7594,698.9063,911.6116,710.6463,909.1273,701.05,892.7594" style="stroke:#404040;stroke-width:1.2;"/></g><!--reverse link Dataset to CatalogRecord--><g class="link" data-entity-1="ent0002" data-entity-2="ent0003" data-link-type="composition" data-source-line="32" id="lnk18"><path codeLine="32" d="M673.5839,73.7451 C540.9339,91.3151 164.84,148.6994 91,245.6094 C44.41,306.7594 69.65,407.2894 83.2,449.0194" fill="none" id="Dataset-backto-CatalogRecord" style="stroke:#404040;stroke-width:1.2;"/><polygon fill="#404040" points="685.48,72.1694,679.0067,68.9919,673.5839,73.7451,680.0572,76.9226,685.48,72.1694" style="stroke:#404040;stroke-width:1.2;"/><text fill="#000000" font-family="sans-serif" font-size="30" lengthAdjust="spacing" textLength="126.7236" x="92" y="277.752">subjectOf</text><text fill="#000000" font-family="sans-serif" font-size="30" lengthAdjust="spacing" textLength="16.6846" x="63.8463" y="434.3012">1</text></g><!--link Dataset to DefinedTerm--><g class="link" data-entity-1="ent0002" data-entity-2="ent0004" data-link-type="dependency" data-source-line="33" id="lnk19"><path codeLine="33" d="M685.44,84.4594 C583.62,127.9994 335.38,250.5594 240,444.6094 C169.92,587.1894 231.0426,784.1359 253.6526,846.7659" fill="none" id="Dataset-to-DefinedTerm" style="stroke:#404040;stroke-width:1.2;"/><polygon fill="#404040" points="255.69,852.4094,256.3963,842.5859,253.9922,847.7065,248.8716,845.3024,255.69,852.4094" style="stroke:#404040;stroke-width:1.2;"/><text fill="#000000" font-family="sans-serif" font-size="30" lengthAdjust="spacing" textLength="323.5107" x="241" y="481.752">measurementTechnique</text><text fill="#000000" font-family="sans-serif" font-size="30" lengthAdjust="spacing" textLength="45.0293" x="204.2035" y="838.1461">0..*</text></g><!--reverse link Dataset to VariableMeasured--><g class="link" data-entity-1="ent0002" data-entity-2="ent0005" data-link-type="composition" data-source-line="34" id="lnk20"><path codeLine="34" d="M701.2611,94.161 C670.6911,124.561 622.53,178.8994 601,245.6094 C576.65,321.0494 631.75,410.6594 659.39,449.0794" fill="none" id="Dataset-backto-VariableMeasured" style="stroke:#404040;stroke-width:1.2;"/><polygon fill="#404040" points="709.77,85.6994,702.695,87.0939,701.2611,94.161,708.3361,92.7665,709.77,85.6994" style="stroke:#404040;stroke-width:1.2;"/><text fill="#000000" font-family="sans-serif" font-size="30" lengthAdjust="spacing" textLength="238.4619" x="602" y="277.752">variableMeasured</text><text fill="#000000" font-family="sans-serif" font-size="30" lengthAdjust="spacing" textLength="45.0293" x="605.8374" y="434.3751">0..*</text></g><!--reverse link Dataset to SpatialExtent--><g class="link" data-entity-1="ent0002" data-entity-2="ent0006" data-link-type="composition" data-source-line="35" id="lnk21"><path codeLine="35" d="M753.5659,95.1061 C778.6959,126.3161 819.2,181.7594 841,245.6094 C865.6,317.6394 866.01,409.7994 864.86,449.0394" fill="none" id="Dataset-backto-SpatialExtent" style="stroke:#404040;stroke-width:1.2;"/><polygon fill="#404040" points="746.04,85.7594,746.6874,92.9414,753.5659,95.1061,752.9185,87.9241,746.04,85.7594" style="stroke:#404040;stroke-width:1.2;"/><text fill="#000000" font-family="sans-serif" font-size="30" lengthAdjust="spacing" textLength="216.7969" x="852" y="277.752">spatialCoverage</text><text fill="#000000" font-family="sans-serif" font-size="30" lengthAdjust="spacing" textLength="45.0293" x="814.8104" y="434.3259">0..*</text></g><!--reverse link Dataset to TemporalExtent--><g class="link" data-entity-1="ent0002" data-entity-2="ent0007" data-link-type="composition" data-source-line="36" id="lnk22"><path codeLine="36" d="M786.3025,78.5237 C861.7625,96.5237 1001.61,141.4494 1073,245.6094 C1116.51,309.0994 1107.67,407.4794 1101.43,448.7994" fill="none" id="Dataset-backto-TemporalExtent" style="stroke:#404040;stroke-width:1.2;"/><polygon fill="#404040" points="774.63,75.7394,779.5381,81.0224,786.3025,78.5237,781.3944,73.2407,774.63,75.7394" style="stroke:#404040;stroke-width:1.2;"/><text fill="#000000" font-family="sans-serif" font-size="30" lengthAdjust="spacing" textLength="246.7969" x="1093" y="277.752">temporalCoverage</text><text fill="#000000" font-family="sans-serif" font-size="30" lengthAdjust="spacing" textLength="45.0293" x="1052.2172" y="434.5121">0..*</text></g><!--reverse link Dataset to QualityMeasurement--><g class="link" data-entity-1="ent0002" data-entity-2="ent0009" data-link-type="composition" data-source-line="37" id="lnk23"><path codeLine="37" d="M786.2181,80.3343 C888.3281,105.6243 1134.85,169.3294 1344,245.6094 C1521.92,310.4994 1726.12,408.1094 1809.51,449.0094" fill="none" id="Dataset-backto-QualityMeasurement" style="stroke:#404040;stroke-width:1.2;"/><polygon fill="#404040" points="774.57,77.4494,779.4324,82.7745,786.2181,80.3343,781.3557,75.0092,774.57,77.4494" style="stroke:#404040;stroke-width:1.2;"/><text fill="#000000" font-family="sans-serif" font-size="30" lengthAdjust="spacing" textLength="325.1514" x="1444" y="277.752">hasQualityMeasurement</text><text fill="#000000" font-family="sans-serif" font-size="30" lengthAdjust="spacing" textLength="45.0293" x="1750.3602" y="434.2889">0..*</text></g><!--link VariableMeasured to DefinedTerm--><g class="link" data-entity-1="ent0005" data-entity-2="ent0004" data-link-type="dependency" data-source-line="38" id="lnk24"><path codeLine="38" d="M647.12,489.2294 C603.19,521.0394 514.17,587.8494 447,653.6094 C377.64,721.5194 310.2327,808.4314 280.7527,847.6914" fill="none" id="VariableMeasured-to-DefinedTerm" style="stroke:#404040;stroke-width:1.2;"/><polygon fill="#404040" points="277.15,852.4894,285.7527,847.6943,280.1523,848.4911,279.3555,842.8906,277.15,852.4894" style="stroke:#404040;stroke-width:1.2;"/><text fill="#000000" font-family="sans-serif" font-size="30" lengthAdjust="spacing" textLength="323.5107" x="448" y="685.752">measurementTechnique</text><text fill="#000000" font-family="sans-serif" font-size="30" lengthAdjust="spacing" textLength="50.0391" x="285.7495" y="838.2436">0..1</text></g><!--reverse link SpatialExtent to AbstractGeometry--><g class="link" data-entity-1="ent0006" data-entity-2="ent0010" data-link-type="composition" data-source-line="39" id="lnk25"><path codeLine="39" d="M851.4515,500.2892 C823.3215,567.9192 733.2,784.5794 704.99,852.3994" fill="none" id="SpatialExtent-backto-AbstractGeometry" style="stroke:#404040;stroke-width:1.2;"/><polygon fill="#404040" points="856.06,489.2094,850.0625,493.2131,851.4515,500.2892,857.449,496.2854,856.06,489.2094" style="stroke:#404040;stroke-width:1.2;"/><text fill="#000000" font-family="sans-serif" font-size="30" lengthAdjust="spacing" textLength="50.0537" x="787" y="685.752">geo</text><text fill="#000000" font-family="sans-serif" font-size="30" lengthAdjust="spacing" textLength="50.0391" x="651.2302" y="838.134">0..1</text></g><!--reverse link SpatialExtent to Geometry--><g class="link" data-entity-1="ent0006" data-entity-2="ent0013" data-link-type="composition" data-source-line="40" id="lnk26"><path codeLine="40" d="M864.3089,501.2088 C864.9789,568.8388 867.13,784.5794 867.81,852.3994" fill="none" id="SpatialExtent-backto-Geometry" style="stroke:#404040;stroke-width:1.2;"/><polygon fill="#404040" points="864.19,489.2094,860.2496,495.2487,864.3089,501.2088,868.2492,495.1695,864.19,489.2094" style="stroke:#404040;stroke-width:1.2;"/><text fill="#000000" font-family="sans-serif" font-size="30" lengthAdjust="spacing" textLength="180.0732" x="868" y="685.752">hasGeometry</text><text fill="#000000" font-family="sans-serif" font-size="30" lengthAdjust="spacing" textLength="50.0391" x="812.2642" y="838.134">0..1</text></g><!--reverse link TemporalExtent to Instant--><g class="link" data-entity-1="ent0007" data-entity-2="ent0014" data-link-type="composition" data-source-line="41" id="lnk27"><path codeLine="41" d="M1089.243,500.8221 C1078.683,539.8121 1061.76,619.3594 1081,692.6094 C1097.72,756.2794 1142.8,821.1494 1166.68,852.4194" fill="none" id="TemporalExtent-backto-Instant" style="stroke:#404040;stroke-width:1.2;"/><polygon fill="#404040" points="1092.38,489.2394,1086.9506,493.985,1089.243,500.8221,1094.6724,496.0764,1092.38,489.2394" style="stroke:#404040;stroke-width:1.2;"/><text fill="#000000" font-family="sans-serif" font-size="30" lengthAdjust="spacing" textLength="181.8164" x="1082" y="685.752">hasBeginning</text><text fill="#000000" font-family="sans-serif" font-size="30" lengthAdjust="spacing" textLength="50.0391" x="1107.8591" y="838.1583">0..1</text></g><!--reverse link TemporalExtent to Instant--><g class="link" data-entity-1="ent0007" data-entity-2="ent0014" data-link-type="composition" data-source-line="42" id="lnk28"><path codeLine="42" d="M1134.4367,496.4436 C1173.8167,526.2636 1235.97,580.8494 1264,653.6094 C1292.2,726.8094 1230.57,814.2594 1199.06,852.3194" fill="none" id="TemporalExtent-backto-Instant-1" style="stroke:#404040;stroke-width:1.2;"/><polygon fill="#404040" points="1124.87,489.1994,1127.2386,496.0104,1134.4367,496.4436,1132.0681,489.6326,1124.87,489.1994" style="stroke:#404040;stroke-width:1.2;"/><text fill="#000000" font-family="sans-serif" font-size="30" lengthAdjust="spacing" textLength="101.748" x="1273" y="685.752">hasEnd</text><text fill="#000000" font-family="sans-serif" font-size="30" lengthAdjust="spacing" textLength="50.0391" x="1208.2598" y="838.0365">0..1</text></g><!--link TemporalExtent to TemporalExtent--><g class="link" data-entity-1="ent0007" data-entity-2="ent0007" data-link-type="dependency" data-source-line="43" id="lnk29"><path codeLine="43" d="M1185.59,453.0194 C1195.26,456.0794 1201.5,461.4394 1201.5,469.1094 C1201.5,476.7794 1200.9804,480.3292 1191.3104,483.3892" fill="none" id="TemporalExtent-to-TemporalExtent" style="stroke:#404040;stroke-width:1.2;"/><polygon fill="#404040" points="1185.59,485.1994,1195.3774,486.2977,1190.357,483.6909,1192.9638,478.6705,1185.59,485.1994" style="stroke:#404040;stroke-width:1.2;"/><text fill="#000000" font-family="sans-serif" font-size="30" lengthAdjust="spacing" textLength="228.4424" x="1207.5" y="481.752">intervalStartedBy</text><text fill="#000000" font-family="sans-serif" font-size="30" lengthAdjust="spacing" textLength="45.0293" x="1178.0171" y="528.3263">0..*</text></g><!--link TemporalExtent to TemporalExtent--><g class="link" data-entity-1="ent0007" data-entity-2="ent0007" data-link-type="dependency" data-source-line="44" id="lnk30"><path codeLine="44" d="M1133.51,449.0394 C1224.81,419.3394 1441.5,426.0294 1441.5,469.1094 C1441.5,512.1894 1230.5157,520.7354 1139.2157,491.0354" fill="none" id="TemporalExtent-to-TemporalExtent-1" style="stroke:#404040;stroke-width:1.2;"/><polygon fill="#404040" points="1133.51,489.1794,1140.8312,495.7673,1138.2647,490.7261,1143.3059,488.1597,1133.51,489.1794" style="stroke:#404040;stroke-width:1.2;"/><text fill="#000000" font-family="sans-serif" font-size="30" lengthAdjust="spacing" textLength="245.1123" x="1447.5" y="481.752">intervalFinishedBy</text><text fill="#000000" font-family="sans-serif" font-size="30" lengthAdjust="spacing" textLength="45.0293" x="1091.1544" y="528.3334">0..*</text></g><!--link QualityMeasurement to QualityMeasure--><g class="link" data-entity-1="ent0009" data-entity-2="ent0008" data-link-type="dependency" data-source-line="45" id="lnk31"><path codeLine="45" d="M1848,489.2094 C1848,556.8394 1848,778.5794 1848,846.3994" fill="none" id="QualityMeasurement-to-QualityMeasure" style="stroke:#404040;stroke-width:1.2;"/><polygon fill="#404040" points="1848,852.3994,1852,843.3994,1848,847.3994,1844,843.3994,1848,852.3994" style="stroke:#404040;stroke-width:1.2;"/><text fill="#000000" font-family="sans-serif" font-size="30" lengthAdjust="spacing" textLength="236.748" x="1849" y="685.752">isMeasurementOf</text><text fill="#000000" font-family="sans-serif" font-size="30" lengthAdjust="spacing" textLength="16.6846" x="1830.3172" y="838.134">1</text></g><!--reverse link Instant to TimePosition--><g class="link" data-entity-1="ent0014" data-entity-2="ent0015" data-link-type="composition" data-source-line="46" id="lnk32"><path codeLine="46" d="M1182,904.7594 C1182,971.8194 1182,1183.6994 1182,1251.1894" fill="none" id="Instant-backto-TimePosition" style="stroke:#404040;stroke-width:1.2;"/><polygon fill="#404040" points="1182,892.7594,1178,898.7594,1182,904.7594,1186,898.7594,1182,892.7594" style="stroke:#404040;stroke-width:1.2;"/><text fill="#000000" font-family="sans-serif" font-size="30" lengthAdjust="spacing" textLength="196.7432" x="1183" y="1084.752">inTimePosition</text><text fill="#000000" font-family="sans-serif" font-size="30" lengthAdjust="spacing" textLength="50.0391" x="1126.5667" y="1236.878">0..1</text></g><?plantuml-src dPNRZjem48RlynHMk5k95OUb5r5L2NAezgBg0TJx8Hc8Is9Jsu7IWzI7w1FsIUeSrt5WjQguiR_y_undF0cAgWo97pn60PKnFw6uaB-__v1oTQ9uTbAQ88cfY3EirvWVrONac6zHI4SUA3k2W9p8519-fcnFTf19D9uiXU3dJKhZ0qCfoVH-PZmKm0uIZsG-cnYKyGHBEdrbm0HtK6GguaojwNSaSzCHPw1Z_t18dSxd6HTaz30fVngkk4XGsDGCfOrA2Rej57Puzk3ySfmwj1k00edA9I19ioQZA8n2FsmbliOPtt_2MAUhX3rYomFSKOR91aLUHttQQ-aoN0JpLleP18LjXkyGP26m3cv3CWeMqIBiJEiZA0fP-4qXgy_T8xPyew-MYvw-Zsp3nm8ogYvD-ihGHyyRyZRB47T6s4eb85RD_RhBPlyMUOvAN2g_3UsqcljSzvyoK2WhInzTCQnJE68hhJPNH4z7k9NwaKa5JPdDUj1sckC7BgcYdDLDDq0d7jJu-kTuR9LnMrGLuBHJUwUXEtMjuVI8BBPVC5RlTvroF7v3tCdz_PtR6qvFl__TNMqmJXdzMbZnQzTWH3roij0rMtzEzSdglLz-bc1_DPCrgXvH3NZET6NoF9A2779dK4dRc-cBUjElg3s2zWxkp2DxvBVrXauVjDqvLlc6eHsxIh_2FMLCVwLVQWXPOakDeHWqdJAb_pWWMoiG2fFLvN_C4MLKffNxoWLL4QRstPLsQSZq4BTr6ANrNgqoeGcSVm00?></g></svg>