<svg xmlns="http://www.w3.org/2000/svg" xmlns:xlink="http://www.w3.org/1999/xlink" contentStyleType="text/css" data-diagram-type="CLASS" height="497px" preserveAspectRatio="none" style="width:2744px;height:497px;background:#FFFFFF;" version="1.1" viewBox="0 0 2744 497" width="2744px" zoomAndPan="magnify"><?plantuml 1.2026.3?><defs/><g><g class="title" data-source-line="1"><text fill="#000000" font-family="sans-serif" font-size="14" font-weight="700" lengthAdjust="spacing" textLength="71.5723" x="1333.1655" y="24.5332">XsdAnyUri</text></g><!--class XsdAnyUri--><g class="entity" data-qualified-name="XsdAnyUri" data-source-line="16" id="ent0002"><rect fill="#FAE5D3" height="93.0156" rx="2.5" ry="2.5" style="stroke:#404040;stroke-width:0.5;" width="192.1426" x="1239.5" y="390.6094"/><text fill="#000000" font-family="sans-serif" font-size="36" font-style="italic" lengthAdjust="spacing" textLength="190.1426" x="1240.5" y="432.9805">&#171;dataType&#187;</text><text fill="#000000" font-family="sans-serif" font-size="30" lengthAdjust="spacing" textLength="141.709" x="1264.7168" y="472.0332">XsdAnyUri</text></g><!--class ProvActivity--><g class="entity" data-qualified-name="ProvActivity" data-source-line="17" id="ent0003"><rect fill="#EEEEEE" height="47.7344" rx="2.5" ry="2.5" style="stroke:#404040;stroke-width:0.5;" width="162.6943" x="7" y="45.6094"/><text fill="#000000" font-family="sans-serif" font-size="30" lengthAdjust="spacing" textLength="156.6943" x="10" y="81.752">ProvActivity</text></g><!--class Instrument--><g class="entity" data-qualified-name="Instrument" data-source-line="20" id="ent0006"><rect fill="#EEEEEE" height="47.7344" rx="2.5" ry="2.5" style="stroke:#404040;stroke-width:0.5;" width="147.7236" x="227.5" y="45.6094"/><text fill="#000000" font-family="sans-serif" font-size="30" lengthAdjust="spacing" textLength="141.7236" x="230.5" y="81.752">Instrument</text></g><!--class AgentInRole--><g class="entity" data-qualified-name="AgentInRole" data-source-line="22" id="ent0008"><rect fill="#EEEEEE" height="47.7344" rx="2.5" ry="2.5" style="stroke:#404040;stroke-width:0.5;" width="171.1172" x="396" y="45.6094"/><text fill="#000000" font-family="sans-serif" font-size="30" lengthAdjust="spacing" textLength="165.1172" x="399" y="81.752">AgentInRole</text></g><!--class Dataset--><g class="entity" data-qualified-name="Dataset" data-source-line="24" id="ent0010"><rect fill="#EEEEEE" height="47.7344" rx="2.5" ry="2.5" style="stroke:#404040;stroke-width:0.5;" width="109.3887" x="589" y="45.6094"/><text fill="#000000" font-family="sans-serif" font-size="30" lengthAdjust="spacing" textLength="103.3887" x="592" y="81.752">Dataset</text></g><!--class DataDownload--><g class="entity" data-qualified-name="DataDownload" data-source-line="26" id="ent0012"><rect fill="#EEEEEE" height="47.7344" rx="2.5" ry="2.5" style="stroke:#404040;stroke-width:0.5;" width="202.7871" x="759" y="45.6094"/><text fill="#000000" font-family="sans-serif" font-size="30" lengthAdjust="spacing" textLength="196.7871" x="762" y="81.752">DataDownload</text></g><!--class ActionResult--><g class="entity" data-qualified-name="ActionResult" data-source-line="29" id="ent0015"><rect fill="#EEEEEE" height="47.7344" rx="2.5" ry="2.5" style="stroke:#404040;stroke-width:0.5;" width="174.4131" x="1031.5" y="45.6094"/><text fill="#000000" font-family="sans-serif" font-size="30" lengthAdjust="spacing" textLength="168.4131" x="1034.5" y="81.752">ActionResult</text></g><!--class DefinedTerm--><g class="entity" data-qualified-name="DefinedTerm" data-source-line="31" id="ent0017"><rect fill="#EEEEEE" height="47.7344" rx="2.5" ry="2.5" style="stroke:#404040;stroke-width:0.5;" width="179.3936" x="1246" y="45.6094"/><text fill="#000000" font-family="sans-serif" font-size="30" lengthAdjust="spacing" textLength="173.3936" x="1249" y="81.752">DefinedTerm</text></g><!--class Identifier--><g class="entity" data-qualified-name="Identifier" data-source-line="33" id="ent0019"><rect fill="#EEEEEE" height="47.7344" rx="2.5" ry="2.5" style="stroke:#404040;stroke-width:0.5;" width="121.0635" x="1453" y="45.6094"/><text fill="#000000" font-family="sans-serif" font-size="30" lengthAdjust="spacing" textLength="115.0635" x="1456" y="81.752">Identifier</text></g><!--class AdditionalProperty--><g class="entity" data-qualified-name="AdditionalProperty" data-source-line="35" id="ent0021"><rect fill="#EEEEEE" height="47.7344" rx="2.5" ry="2.5" style="stroke:#404040;stroke-width:0.5;" width="251.1416" x="1594" y="45.6094"/><text fill="#000000" font-family="sans-serif" font-size="30" lengthAdjust="spacing" textLength="245.1416" x="1597" y="81.752">AdditionalProperty</text></g><!--class Reference--><g class="entity" data-qualified-name="Reference" data-source-line="37" id="ent0023"><rect fill="#EEEEEE" height="47.7344" rx="2.5" ry="2.5" style="stroke:#404040;stroke-width:0.5;" width="144.4131" x="1865.5" y="45.6094"/><text fill="#000000" font-family="sans-serif" font-size="30" lengthAdjust="spacing" textLength="138.4131" x="1868.5" y="81.752">Reference</text></g><!--class DerivedFrom--><g class="entity" data-qualified-name="DerivedFrom" data-source-line="40" id="ent0026"><rect fill="#EEEEEE" height="47.7344" rx="2.5" ry="2.5" style="stroke:#404040;stroke-width:0.5;" width="179.3643" x="2030" y="45.6094"/><text fill="#000000" font-family="sans-serif" font-size="30" lengthAdjust="spacing" textLength="173.3643" x="2033" y="81.752">DerivedFrom</text></g><!--class CatalogRecord--><g class="entity" data-qualified-name="CatalogRecord" data-source-line="43" id="ent0029"><rect fill="#EEEEEE" height="47.7344" rx="2.5" ry="2.5" style="stroke:#404040;stroke-width:0.5;" width="206.1123" x="2229.5" y="45.6094"/><text fill="#000000" font-family="sans-serif" font-size="30" lengthAdjust="spacing" textLength="200.1123" x="2232.5" y="81.752">CatalogRecord</text></g><!--class CdifConceptOrTerm--><g class="entity" data-qualified-name="CdifConceptOrTerm" data-source-line="45" id="ent0031"><rect fill="#EEEEEE" height="47.7344" rx="2.5" ry="2.5" style="stroke:#404040;stroke-width:0.5;" width="274.4033" x="2455.5" y="45.6094"/><text fill="#000000" font-family="sans-serif" font-size="30" lengthAdjust="spacing" textLength="268.4033" x="2458.5" y="81.752">CdifConceptOrTerm</text></g><!--link ProvActivity to XsdAnyUri--><g class="link" data-entity-1="ent0003" data-entity-2="ent0002" data-link-type="dependency" data-source-line="18" id="lnk4"><path codeLine="18" d="M72.85,93.9194 C48.03,134.0694 6.61,216.6594 49.5,265.6094 C127.95,355.1494 948.0812,412.7228 1233.3112,430.1828" fill="none" id="ProvActivity-to-XsdAnyUri" style="stroke:#404040;stroke-width:1.2;stroke-dasharray:7,7;"/><polygon fill="#404040" points="1239.3,430.5494,1230.5612,426.007,1234.3093,430.2439,1230.0724,433.992,1239.3,430.5494" style="stroke:#404040;stroke-width:1.2;"/><text fill="#000000" font-family="sans-serif" font-size="36" lengthAdjust="spacing" textLength="136.0723" x="50.5" y="256.9805">identifier</text></g><!--link ProvActivity to XsdAnyUri--><g class="link" data-entity-1="ent0003" data-entity-2="ent0002" data-link-type="dependency" data-source-line="19" id="lnk5"><path codeLine="19" d="M105.78,93.7194 C126.72,122.2394 162.41,172.6194 188.5,218.6094 C199.88,238.6694 192.02,251.7994 210.5,265.6094 C372.8,386.8794 991.3048,423.0396 1233.1048,432.7096" fill="none" id="ProvActivity-to-XsdAnyUri-1" style="stroke:#404040;stroke-width:1.2;stroke-dasharray:7,7;"/><polygon fill="#404040" points="1239.1,432.9494,1230.267,428.5929,1234.104,432.7496,1229.9473,436.5865,1239.1,432.9494" style="stroke:#404040;stroke-width:1.2;"/><text fill="#000000" font-family="sans-serif" font-size="36" lengthAdjust="spacing" textLength="78.0645" x="211.5" y="256.9805">used</text></g><!--link Instrument to XsdAnyUri--><g class="link" data-entity-1="ent0006" data-entity-2="ent0002" data-link-type="dependency" data-source-line="21" id="lnk7"><path codeLine="21" d="M295.78,93.7094 C287.24,134.2694 276.53,218.4794 320.5,265.6094 C444.3,398.2994 1004.6624,427.5986 1233.3324,434.1086" fill="none" id="Instrument-to-XsdAnyUri" style="stroke:#404040;stroke-width:1.2;stroke-dasharray:7,7;"/><polygon fill="#404040" points="1239.33,434.2794,1230.4475,430.0249,1234.332,434.1371,1230.2198,438.0216,1239.33,434.2794" style="stroke:#404040;stroke-width:1.2;"/><text fill="#000000" font-family="sans-serif" font-size="36" lengthAdjust="spacing" textLength="136.0723" x="321.5" y="256.9805">identifier</text></g><!--link AgentInRole to XsdAnyUri--><g class="link" data-entity-1="ent0008" data-entity-2="ent0002" data-link-type="dependency" data-source-line="23" id="lnk9"><path codeLine="23" d="M473.65,93.9194 C461.73,134.0694 444.54,216.6494 485.5,265.6094 C581.17,379.9694 1031.8806,419.0829 1233.4906,431.0829" fill="none" id="AgentInRole-to-XsdAnyUri" style="stroke:#404040;stroke-width:1.2;stroke-dasharray:7,7;"/><polygon fill="#404040" points="1239.48,431.4394,1230.7336,426.9117,1234.4888,431.1423,1230.2582,434.8976,1239.48,431.4394" style="stroke:#404040;stroke-width:1.2;"/><text fill="#000000" font-family="sans-serif" font-size="36" lengthAdjust="spacing" textLength="136.0723" x="486.5" y="256.9805">identifier</text></g><!--link Dataset to XsdAnyUri--><g class="link" data-entity-1="ent0010" data-entity-2="ent0002" data-link-type="dependency" data-source-line="25" id="lnk11"><path codeLine="25" d="M636.31,93.7894 C625.49,133.7294 610.28,216.0094 650.5,265.6094 C724.17,356.4494 1062.8294,405.9331 1233.4094,425.5731" fill="none" id="Dataset-to-XsdAnyUri" style="stroke:#404040;stroke-width:1.2;stroke-dasharray:7,7;"/><polygon fill="#404040" points="1239.37,426.2594,1230.8866,421.2562,1234.4028,425.6875,1229.9715,429.2037,1239.37,426.2594" style="stroke:#404040;stroke-width:1.2;"/><text fill="#000000" font-family="sans-serif" font-size="36" lengthAdjust="spacing" textLength="40.0078" x="651.5" y="256.9805">url</text></g><!--link DataDownload to XsdAnyUri--><g class="link" data-entity-1="ent0012" data-entity-2="ent0002" data-link-type="dependency" data-source-line="27" id="lnk13"><path codeLine="27" d="M819.78,93.6794 C760.62,130.1394 662.93,203.3194 710.5,265.6094 C774.54,349.4594 1074.4871,401.1636 1233.3271,423.2336" fill="none" id="DataDownload-to-XsdAnyUri" style="stroke:#404040;stroke-width:1.2;stroke-dasharray:7,7;"/><polygon fill="#404040" points="1239.27,424.0594,1230.9061,418.8588,1234.3176,423.3713,1229.8051,426.7827,1239.27,424.0594" style="stroke:#404040;stroke-width:1.2;"/><text fill="#000000" font-family="sans-serif" font-size="36" lengthAdjust="spacing" textLength="164.0742" x="711.5" y="256.9805">contentUrl</text></g><!--link DataDownload to XsdAnyUri--><g class="link" data-entity-1="ent0012" data-entity-2="ent0002" data-link-type="dependency" data-source-line="28" id="lnk14"><path codeLine="28" d="M861.98,93.8594 C865.73,133.9094 878.85,216.3494 924.5,265.6094 C1007.99,355.6994 1140.4494,398.3735 1233.2894,418.7435" fill="none" id="DataDownload-to-XsdAnyUri-1" style="stroke:#404040;stroke-width:1.2;stroke-dasharray:7,7;"/><polygon fill="#404040" points="1239.15,420.0294,1231.2164,414.1935,1234.2662,418.9578,1229.5019,422.0076,1239.15,420.0294" style="stroke:#404040;stroke-width:1.2;"/><text fill="#000000" font-family="sans-serif" font-size="36" lengthAdjust="spacing" textLength="190.0547" x="925.5" y="256.9805">conformsTo</text></g><!--link ActionResult to XsdAnyUri--><g class="link" data-entity-1="ent0015" data-entity-2="ent0002" data-link-type="dependency" data-source-line="30" id="lnk16"><path codeLine="30" d="M1115.61,93.7794 C1111.96,131.9594 1109.28,209.4594 1138.5,265.6094 C1165.54,317.5694 1210.7035,357.1646 1253.6135,386.9946" fill="none" id="ActionResult-to-XsdAnyUri" style="stroke:#404040;stroke-width:1.2;stroke-dasharray:7,7;"/><polygon fill="#404040" points="1258.54,390.4194,1253.4334,381.9978,1254.4346,387.5654,1248.867,388.5665,1258.54,390.4194" style="stroke:#404040;stroke-width:1.2;"/><text fill="#000000" font-family="sans-serif" font-size="36" lengthAdjust="spacing" textLength="190.0547" x="1139.5" y="256.9805">conformsTo</text></g><!--link DefinedTerm to XsdAnyUri--><g class="link" data-entity-1="ent0017" data-entity-2="ent0002" data-link-type="dependency" data-source-line="32" id="lnk18"><path codeLine="32" d="M1335.5,93.7494 C1335.5,153.1494 1335.5,305.8194 1335.5,384.5294" fill="none" id="DefinedTerm-to-XsdAnyUri" style="stroke:#404040;stroke-width:1.2;stroke-dasharray:7,7;"/><polygon fill="#404040" points="1335.5,390.5294,1339.5,381.5294,1335.5,385.5294,1331.5,381.5294,1335.5,390.5294" style="stroke:#404040;stroke-width:1.2;"/><text fill="#000000" font-family="sans-serif" font-size="36" lengthAdjust="spacing" textLength="290.127" x="1336.5" y="256.9805">inDefinedTermSet</text></g><!--link Identifier to XsdAnyUri--><g class="link" data-entity-1="ent0019" data-entity-2="ent0002" data-link-type="dependency" data-source-line="34" id="lnk20"><path codeLine="34" d="M1544.6,93.6294 C1589.78,130.0094 1664.45,203.0894 1628.5,265.6094 C1586.54,338.5694 1505.6681,381.1398 1437.4681,406.3398" fill="none" id="Identifier-to-XsdAnyUri" style="stroke:#404040;stroke-width:1.2;stroke-dasharray:7,7;"/><polygon fill="#404040" points="1431.84,408.4194,1441.6685,409.0521,1436.5301,406.6864,1438.8957,401.5479,1431.84,408.4194" style="stroke:#404040;stroke-width:1.2;"/><text fill="#000000" font-family="sans-serif" font-size="36" lengthAdjust="spacing" textLength="40.0078" x="1638.5" y="256.9805">url</text></g><!--link AdditionalProperty to XsdAnyUri--><g class="link" data-entity-1="ent0021" data-entity-2="ent0002" data-link-type="dependency" data-source-line="36" id="lnk22"><path codeLine="36" d="M1721.65,93.6594 C1724.08,133.0394 1723.48,214.0094 1684.5,265.6094 C1622.92,347.1294 1517.769,390.2206 1437.469,413.1706" fill="none" id="AdditionalProperty-to-XsdAnyUri" style="stroke:#404040;stroke-width:1.2;stroke-dasharray:7,7;"/><polygon fill="#404040" points="1431.7,414.8194,1441.4527,416.1922,1436.5075,413.4454,1439.2543,408.5002,1431.7,414.8194" style="stroke:#404040;stroke-width:1.2;"/><text fill="#000000" font-family="sans-serif" font-size="36" lengthAdjust="spacing" textLength="144.1055" x="1707.5" y="256.9805">unitCode</text></g><!--link Reference to XsdAnyUri--><g class="link" data-entity-1="ent0023" data-entity-2="ent0002" data-link-type="dependency" data-source-line="38" id="lnk24"><path codeLine="38" d="M1930.71,93.6994 C1916.71,139.8594 1883.77,241.1994 1857.5,265.6094 C1738.5,376.1594 1552.6481,414.3711 1437.6481,428.0411" fill="none" id="Reference-to-XsdAnyUri" style="stroke:#404040;stroke-width:1.2;stroke-dasharray:7,7;"/><polygon fill="#404040" points="1431.69,428.7494,1441.0992,431.6591,1436.655,428.1592,1440.1549,423.715,1431.69,428.7494" style="stroke:#404040;stroke-width:1.2;"/><text fill="#000000" font-family="sans-serif" font-size="36" lengthAdjust="spacing" textLength="40.0078" x="1886.5" y="256.9805">url</text></g><!--link Reference to XsdAnyUri--><g class="link" data-entity-1="ent0023" data-entity-2="ent0002" data-link-type="dependency" data-source-line="39" id="lnk25"><path codeLine="39" d="M1944.88,93.9194 C1955.91,133.7094 1971.49,215.2794 1932.5,265.6094 C1871.15,344.7994 1590.089,397.9591 1437.469,421.6491" fill="none" id="Reference-to-XsdAnyUri-1" style="stroke:#404040;stroke-width:1.2;stroke-dasharray:7,7;"/><polygon fill="#404040" points="1431.54,422.5694,1441.047,425.1416,1436.4808,421.8024,1439.82,417.2362,1431.54,422.5694" style="stroke:#404040;stroke-width:1.2;"/><text fill="#000000" font-family="sans-serif" font-size="36" lengthAdjust="spacing" textLength="118.0723" x="1953.5" y="256.9805">relation</text></g><!--link DerivedFrom to XsdAnyUri--><g class="link" data-entity-1="ent0026" data-entity-2="ent0002" data-link-type="dependency" data-source-line="41" id="lnk27"><path codeLine="41" d="M2117.59,93.7394 C2113.29,139.9794 2101.33,241.4494 2077.5,265.6094 C1987.87,356.4794 1617.1551,406.6328 1437.5351,426.1028" fill="none" id="DerivedFrom-to-XsdAnyUri" style="stroke:#404040;stroke-width:1.2;stroke-dasharray:7,7;"/><polygon fill="#404040" points="1431.57,426.7494,1440.9486,429.7562,1436.5409,426.2106,1440.0865,421.8028,1431.57,426.7494" style="stroke:#404040;stroke-width:1.2;"/><text fill="#000000" font-family="sans-serif" font-size="36" lengthAdjust="spacing" textLength="40.0078" x="2098.5" y="256.9805">url</text></g><!--link DerivedFrom to XsdAnyUri--><g class="link" data-entity-1="ent0026" data-entity-2="ent0002" data-link-type="dependency" data-source-line="42" id="lnk28"><path codeLine="42" d="M2132.25,93.7094 C2152.32,133.5394 2185.03,215.6494 2144.5,265.6094 C2055.6,375.1994 1631.9956,416.6139 1437.5056,430.1139" fill="none" id="DerivedFrom-to-XsdAnyUri-1" style="stroke:#404040;stroke-width:1.2;stroke-dasharray:7,7;"/><polygon fill="#404040" points="1431.52,430.5294,1440.7754,433.8966,1436.508,430.1831,1440.2214,425.9158,1431.52,430.5294" style="stroke:#404040;stroke-width:1.2;"/><text fill="#000000" font-family="sans-serif" font-size="36" lengthAdjust="spacing" textLength="118.0723" x="2163.5" y="256.9805">relation</text></g><!--link CatalogRecord to XsdAnyUri--><g class="link" data-entity-1="ent0029" data-entity-2="ent0002" data-link-type="dependency" data-source-line="44" id="lnk30"><path codeLine="44" d="M2334.6,93.7394 C2336.95,134.7294 2335.32,220.0994 2287.5,265.6094 C2165.26,381.9394 1654.0819,420.387 1437.5119,431.677" fill="none" id="CatalogRecord-to-XsdAnyUri" style="stroke:#404040;stroke-width:1.2;stroke-dasharray:7,7;"/><polygon fill="#404040" points="1431.52,431.9894,1440.716,435.5154,1436.5132,431.7291,1440.2996,427.5263,1431.52,431.9894" style="stroke:#404040;stroke-width:1.2;"/><text fill="#000000" font-family="sans-serif" font-size="36" lengthAdjust="spacing" textLength="190.0547" x="2317.5" y="256.9805">conformsTo</text></g><!--link CdifConceptOrTerm to XsdAnyUri--><g class="link" data-entity-1="ent0031" data-entity-2="ent0002" data-link-type="dependency" data-source-line="46" id="lnk32"><path codeLine="46" d="M2590.43,93.6194 C2585.36,135.2094 2568.41,222.5694 2513.5,265.6094 C2345.58,397.2294 1688.0678,427.2874 1437.7578,434.0474" fill="none" id="CdifConceptOrTerm-to-XsdAnyUri" style="stroke:#404040;stroke-width:1.2;stroke-dasharray:7,7;"/><polygon fill="#404040" points="1431.76,434.2094,1440.8647,437.9649,1436.7582,434.0744,1440.6487,429.9679,1431.76,434.2094" style="stroke:#404040;stroke-width:1.2;"/><text fill="#000000" font-family="sans-serif" font-size="36" lengthAdjust="spacing" textLength="136.0723" x="2550.5" y="256.9805">identifier</text></g><?plantuml-src XPHDRy8m38Rl_HNHk2FsUPWcfAuCQQTDZ4cxPeqB5cbIEG74flttXPOcWMu5BlNZ-dNyrgr5Au5z696gtJjXiaG1B4VA9JJNK5PsnqeeFu5CObQeAawyP6R9XTwYMh22ImDH9YNIs_aIyvK2OzZby2fA4bSh0nMxkXr5L6a1DOsXW8AlfPrgPT_m2zZrNPJC9NVQtmbhscLQQcA3cz7-x-2Z9W5qIcCfLsWjuUVQGi2Zv2T96kaBxya5uoOun1uU1BTylgjWF6Q3QVfqExbkQrv9RzBSuWRjhYwB0HiyrR_a20w7uqZydZdFbSK2WVhlMniGRTjdPIojIrTODmsXRncXdeO7kNJXoBEQQGcrNXHxmPYTLvmunmmqfpjSUwKsxWn8CYwVwAsIcWklqO8Z8GzFrNBtZDsftftekViAJQMPQ--6Um9QpS2uNMpiY43m8uRdHITGe08n1ogRWK8SvebOns8LPT_0-atmrZURuCEm2G7rE9uAWVk1k7HBM04TrhcBWm7TL4TVeStSczuscK4112fljin7NZAGlqxwVvP0ylrHWjc46n1JqgtPFexC3kolRdtvqtwPMp2f5pF8tLUexdX4VCzZUdvfCe55fjt4bNqXlpeT6lGxcPutzHS0?></g></svg>