<svg xmlns="http://www.w3.org/2000/svg" xmlns:xlink="http://www.w3.org/1999/xlink" contentStyleType="text/css" data-diagram-type="CLASS" height="497px" preserveAspectRatio="none" style="width:2581px;height:497px;background:#FFFFFF;" version="1.1" viewBox="0 0 2581 497" width="2581px" zoomAndPan="magnify"><?plantuml 1.2026.3?><defs/><g><g class="title" data-source-line="1"><text fill="#000000" font-family="sans-serif" font-size="14" font-weight="700" lengthAdjust="spacing" textLength="71.5723" x="1251.5155" y="24.5332">XsdAnyUri</text></g><!--class XsdAnyUri--><g class="entity" data-qualified-name="XsdAnyUri" data-source-line="16" id="ent0002"><rect fill="#FAE5D3" height="93.0156" rx="2.5" ry="2.5" style="stroke:#404040;stroke-width:0.5;" width="192.1426" x="1234.2" y="390.6094"/><text fill="#000000" font-family="sans-serif" font-size="36" font-style="italic" lengthAdjust="spacing" textLength="190.1426" x="1235.2" y="432.9805">&#171;dataType&#187;</text><text fill="#000000" font-family="sans-serif" font-size="30" lengthAdjust="spacing" textLength="141.709" x="1259.4168" y="472.0332">XsdAnyUri</text></g><!--class ProvActivity--><g class="entity" data-qualified-name="ProvActivity" data-source-line="17" id="ent0003"><rect fill="#EEEEEE" height="47.7344" rx="2.5" ry="2.5" style="stroke:#404040;stroke-width:0.5;" width="162.6943" x="13.7" y="45.6094"/><text fill="#000000" font-family="sans-serif" font-size="30" lengthAdjust="spacing" textLength="156.6943" x="16.7" y="81.752">ProvActivity</text></g><!--class Instrument--><g class="entity" data-qualified-name="Instrument" data-source-line="20" id="ent0006"><rect fill="#EEEEEE" height="47.7344" rx="2.5" ry="2.5" style="stroke:#404040;stroke-width:0.5;" width="147.7236" x="243.2" y="45.6094"/><text fill="#000000" font-family="sans-serif" font-size="30" lengthAdjust="spacing" textLength="141.7236" x="246.2" y="81.752">Instrument</text></g><!--class Dataset--><g class="entity" data-qualified-name="Dataset" data-source-line="22" id="ent0008"><rect fill="#EEEEEE" height="47.7344" rx="2.5" ry="2.5" style="stroke:#404040;stroke-width:0.5;" width="109.3887" x="425.7" y="45.6094"/><text fill="#000000" font-family="sans-serif" font-size="30" lengthAdjust="spacing" textLength="103.3887" x="428.7" y="81.752">Dataset</text></g><!--class DataDownload--><g class="entity" data-qualified-name="DataDownload" data-source-line="24" id="ent0010"><rect fill="#EEEEEE" height="47.7344" rx="2.5" ry="2.5" style="stroke:#404040;stroke-width:0.5;" width="202.7871" x="595.7" y="45.6094"/><text fill="#000000" font-family="sans-serif" font-size="30" lengthAdjust="spacing" textLength="196.7871" x="598.7" y="81.752">DataDownload</text></g><!--class ActionResult--><g class="entity" data-qualified-name="ActionResult" data-source-line="27" id="ent0013"><rect fill="#EEEEEE" height="47.7344" rx="2.5" ry="2.5" style="stroke:#404040;stroke-width:0.5;" width="174.4131" x="868.2" y="45.6094"/><text fill="#000000" font-family="sans-serif" font-size="30" lengthAdjust="spacing" textLength="168.4131" x="871.2" y="81.752">ActionResult</text></g><!--class DefinedTerm--><g class="entity" data-qualified-name="DefinedTerm" data-source-line="29" id="ent0015"><rect fill="#EEEEEE" height="47.7344" rx="2.5" ry="2.5" style="stroke:#404040;stroke-width:0.5;" width="179.3936" x="1082.7" y="45.6094"/><text fill="#000000" font-family="sans-serif" font-size="30" lengthAdjust="spacing" textLength="173.3936" x="1085.7" y="81.752">DefinedTerm</text></g><!--class Identifier--><g class="entity" data-qualified-name="Identifier" data-source-line="31" id="ent0017"><rect fill="#EEEEEE" height="47.7344" rx="2.5" ry="2.5" style="stroke:#404040;stroke-width:0.5;" width="121.0635" x="1289.7" y="45.6094"/><text fill="#000000" font-family="sans-serif" font-size="30" lengthAdjust="spacing" textLength="115.0635" x="1292.7" y="81.752">Identifier</text></g><!--class AdditionalProperty--><g class="entity" data-qualified-name="AdditionalProperty" data-source-line="33" id="ent0019"><rect fill="#EEEEEE" height="47.7344" rx="2.5" ry="2.5" style="stroke:#404040;stroke-width:0.5;" width="251.1416" x="1430.7" y="45.6094"/><text fill="#000000" font-family="sans-serif" font-size="30" lengthAdjust="spacing" textLength="245.1416" x="1433.7" y="81.752">AdditionalProperty</text></g><!--class Reference--><g class="entity" data-qualified-name="Reference" data-source-line="35" id="ent0021"><rect fill="#EEEEEE" height="47.7344" rx="2.5" ry="2.5" style="stroke:#404040;stroke-width:0.5;" width="144.4131" x="1702.2" y="45.6094"/><text fill="#000000" font-family="sans-serif" font-size="30" lengthAdjust="spacing" textLength="138.4131" x="1705.2" y="81.752">Reference</text></g><!--class DerivedFrom--><g class="entity" data-qualified-name="DerivedFrom" data-source-line="38" id="ent0024"><rect fill="#EEEEEE" height="47.7344" rx="2.5" ry="2.5" style="stroke:#404040;stroke-width:0.5;" width="179.3643" x="1866.7" y="45.6094"/><text fill="#000000" font-family="sans-serif" font-size="30" lengthAdjust="spacing" textLength="173.3643" x="1869.7" y="81.752">DerivedFrom</text></g><!--class CatalogRecord--><g class="entity" data-qualified-name="CatalogRecord" data-source-line="41" id="ent0027"><rect fill="#EEEEEE" height="47.7344" rx="2.5" ry="2.5" style="stroke:#404040;stroke-width:0.5;" width="206.1123" x="2066.2" y="45.6094"/><text fill="#000000" font-family="sans-serif" font-size="30" lengthAdjust="spacing" textLength="200.1123" x="2069.2" y="81.752">CatalogRecord</text></g><!--class CdifConceptOrTerm--><g class="entity" data-qualified-name="CdifConceptOrTerm" data-source-line="43" id="ent0029"><rect fill="#EEEEEE" height="47.7344" rx="2.5" ry="2.5" style="stroke:#404040;stroke-width:0.5;" width="274.4033" x="2292.2" y="45.6094"/><text fill="#000000" font-family="sans-serif" font-size="30" lengthAdjust="spacing" textLength="268.4033" x="2295.2" y="81.752">CdifConceptOrTerm</text></g><!--link ProvActivity to XsdAnyUri--><g class="link" data-entity-1="ent0003" data-entity-2="ent0002" data-link-type="dependency" data-source-line="18" id="lnk4"><path codeLine="18" d="M78.28,93.8394 C51.36,133.8694 6,216.2794 49.2,265.6094 C127.31,354.7994 943.7714,412.5696 1228.1314,430.1296" fill="none" id="ProvActivity-to-XsdAnyUri" style="stroke:#404040;stroke-width:1.2;stroke-dasharray:7,7;"/><polygon fill="#404040" points="1234.12,430.4994,1225.3837,425.9523,1229.1295,430.1912,1224.8906,433.9371,1234.12,430.4994" style="stroke:#404040;stroke-width:1.2;"/><text fill="#000000" font-family="sans-serif" font-size="36" lengthAdjust="spacing" textLength="136.0723" x="50.2" y="256.9805">identifier</text></g><!--link ProvActivity to XsdAnyUri--><g class="link" data-entity-1="ent0003" data-entity-2="ent0002" data-link-type="dependency" data-source-line="19" id="lnk5"><path codeLine="19" d="M110.38,93.6194 C129.24,122.4594 162.12,173.5694 188.2,218.6094 C200.06,239.0794 193.9,251.9294 213.2,265.6094 C377.13,381.8294 988.0864,420.952 1227.9664,432.052" fill="none" id="ProvActivity-to-XsdAnyUri-1" style="stroke:#404040;stroke-width:1.2;stroke-dasharray:7,7;"/><polygon fill="#404040" points="1233.96,432.3294,1225.1545,427.9176,1228.9653,432.0983,1224.7847,435.9091,1233.96,432.3294" style="stroke:#404040;stroke-width:1.2;"/><text fill="#000000" font-family="sans-serif" font-size="36" lengthAdjust="spacing" textLength="78.0645" x="214.2" y="256.9805">used</text></g><!--link Instrument to XsdAnyUri--><g class="link" data-entity-1="ent0006" data-entity-2="ent0002" data-link-type="dependency" data-source-line="21" id="lnk7"><path codeLine="21" d="M309.14,93.7094 C296.74,133.9094 278.51,217.0594 320.2,265.6094 C437.85,402.6394 998.6716,429.4214 1227.8016,434.6914" fill="none" id="Instrument-to-XsdAnyUri" style="stroke:#404040;stroke-width:1.2;stroke-dasharray:7,7;"/><polygon fill="#404040" points="1233.8,434.8294,1224.8944,430.6235,1228.8013,434.7144,1224.7104,438.6214,1233.8,434.8294" style="stroke:#404040;stroke-width:1.2;"/><text fill="#000000" font-family="sans-serif" font-size="36" lengthAdjust="spacing" textLength="136.0723" x="321.2" y="256.9805">identifier</text></g><!--link Dataset to XsdAnyUri--><g class="link" data-entity-1="ent0008" data-entity-2="ent0002" data-link-type="dependency" data-source-line="23" id="lnk9"><path codeLine="23" d="M472.73,93.6394 C461.31,133.7194 444.91,216.6894 486.2,265.6094 C581.61,378.6194 1027.7815,418.4285 1228.1915,430.8385" fill="none" id="Dataset-to-XsdAnyUri" style="stroke:#404040;stroke-width:1.2;stroke-dasharray:7,7;"/><polygon fill="#404040" points="1234.18,431.2094,1225.4444,426.6608,1229.1896,430.9004,1224.95,434.6455,1234.18,431.2094" style="stroke:#404040;stroke-width:1.2;"/><text fill="#000000" font-family="sans-serif" font-size="36" lengthAdjust="spacing" textLength="40.0078" x="487.2" y="256.9805">url</text></g><!--link DataDownload to XsdAnyUri--><g class="link" data-entity-1="ent0010" data-entity-2="ent0002" data-link-type="dependency" data-source-line="25" id="lnk11"><path codeLine="25" d="M656.58,93.6894 C596.96,130.4494 497.89,204.4094 547.2,265.6094 C632.52,371.5094 1038.1879,414.6364 1227.9879,429.3264" fill="none" id="DataDownload-to-XsdAnyUri" style="stroke:#404040;stroke-width:1.2;stroke-dasharray:7,7;"/><polygon fill="#404040" points="1233.97,429.7894,1225.3055,425.1068,1228.9849,429.4035,1224.6882,433.0829,1233.97,429.7894" style="stroke:#404040;stroke-width:1.2;"/><text fill="#000000" font-family="sans-serif" font-size="36" lengthAdjust="spacing" textLength="164.0742" x="548.2" y="256.9805">contentUrl</text></g><!--link DataDownload to XsdAnyUri--><g class="link" data-entity-1="ent0010" data-entity-2="ent0002" data-link-type="dependency" data-source-line="26" id="lnk12"><path codeLine="26" d="M695.84,93.9094 C694.8,134.3994 698.76,217.9994 744.2,265.6094 C811.64,336.2694 1079.994,392.5316 1228.184,419.0716" fill="none" id="DataDownload-to-XsdAnyUri-1" style="stroke:#404040;stroke-width:1.2;stroke-dasharray:7,7;"/><polygon fill="#404040" points="1234.09,420.1294,1225.9361,414.6054,1229.1683,419.2479,1224.5258,422.4801,1234.09,420.1294" style="stroke:#404040;stroke-width:1.2;"/><text fill="#000000" font-family="sans-serif" font-size="36" lengthAdjust="spacing" textLength="190.0547" x="745.2" y="256.9805">conformsTo</text></g><!--link ActionResult to XsdAnyUri--><g class="link" data-entity-1="ent0013" data-entity-2="ent0002" data-link-type="dependency" data-source-line="28" id="lnk14"><path codeLine="28" d="M948.43,93.6194 C938.43,132.5894 924.39,212.5094 959.2,265.6094 C1020.21,358.6794 1140.0699,400.4311 1228.1799,419.8011" fill="none" id="ActionResult-to-XsdAnyUri" style="stroke:#404040;stroke-width:1.2;stroke-dasharray:7,7;"/><polygon fill="#404040" points="1234.04,421.0894,1226.1087,415.2503,1229.1566,420.0158,1224.3911,423.0637,1234.04,421.0894" style="stroke:#404040;stroke-width:1.2;"/><text fill="#000000" font-family="sans-serif" font-size="36" lengthAdjust="spacing" textLength="190.0547" x="960.2" y="256.9805">conformsTo</text></g><!--link DefinedTerm to XsdAnyUri--><g class="link" data-entity-1="ent0015" data-entity-2="ent0002" data-link-type="dependency" data-source-line="30" id="lnk16"><path codeLine="30" d="M1166.09,93.8594 C1157.4,131.4994 1144.97,207.4294 1168.2,265.6094 C1188.26,315.8494 1226.3653,355.9007 1262.8853,386.5707" fill="none" id="DefinedTerm-to-XsdAnyUri" style="stroke:#404040;stroke-width:1.2;stroke-dasharray:7,7;"/><polygon fill="#404040" points="1267.48,390.4294,1263.1605,381.5783,1263.6511,387.2138,1258.0156,387.7045,1267.48,390.4294" style="stroke:#404040;stroke-width:1.2;"/><text fill="#000000" font-family="sans-serif" font-size="36" lengthAdjust="spacing" textLength="290.127" x="1169.2" y="256.9805">inDefinedTermSet</text></g><!--link Identifier to XsdAnyUri--><g class="link" data-entity-1="ent0017" data-entity-2="ent0002" data-link-type="dependency" data-source-line="32" id="lnk18"><path codeLine="32" d="M1380.05,93.7094 C1421.41,128.7594 1488.58,198.4194 1465.2,265.6094 C1448.39,313.9294 1415.7483,354.5729 1384.7983,386.1729" fill="none" id="Identifier-to-XsdAnyUri" style="stroke:#404040;stroke-width:1.2;stroke-dasharray:7,7;"/><polygon fill="#404040" points="1380.6,390.4594,1389.7552,386.8285,1384.0986,386.8873,1384.0398,381.2307,1380.6,390.4594" style="stroke:#404040;stroke-width:1.2;"/><text fill="#000000" font-family="sans-serif" font-size="36" lengthAdjust="spacing" textLength="40.0078" x="1470.2" y="256.9805">url</text></g><!--link AdditionalProperty to XsdAnyUri--><g class="link" data-entity-1="ent0019" data-entity-2="ent0002" data-link-type="dependency" data-source-line="34" id="lnk20"><path codeLine="34" d="M1555.97,93.8294 C1554.65,132.0894 1547.89,209.6894 1516.2,265.6094 C1487.69,315.9194 1443.9119,356.0553 1403.5619,386.6353" fill="none" id="AdditionalProperty-to-XsdAnyUri" style="stroke:#404040;stroke-width:1.2;stroke-dasharray:7,7;"/><polygon fill="#404040" points="1398.78,390.2594,1408.3688,388.0112,1402.7649,387.2393,1403.5368,381.6354,1398.78,390.2594" style="stroke:#404040;stroke-width:1.2;"/><text fill="#000000" font-family="sans-serif" font-size="36" lengthAdjust="spacing" textLength="144.1055" x="1536.2" y="256.9805">unitCode</text></g><!--link Reference to XsdAnyUri--><g class="link" data-entity-1="ent0021" data-entity-2="ent0002" data-link-type="dependency" data-source-line="36" id="lnk22"><path codeLine="36" d="M1769.28,93.6894 C1759.72,133.4794 1735.14,215.5394 1686.2,265.6094 C1614.59,338.8694 1510.9081,382.8607 1432.2981,408.3207" fill="none" id="Reference-to-XsdAnyUri" style="stroke:#404040;stroke-width:1.2;stroke-dasharray:7,7;"/><polygon fill="#404040" points="1426.59,410.1694,1436.3846,411.2017,1431.3467,408.6288,1433.9196,403.5909,1426.59,410.1694" style="stroke:#404040;stroke-width:1.2;"/><text fill="#000000" font-family="sans-serif" font-size="36" lengthAdjust="spacing" textLength="40.0078" x="1721.2" y="256.9805">url</text></g><!--link Reference to XsdAnyUri--><g class="link" data-entity-1="ent0021" data-entity-2="ent0002" data-link-type="dependency" data-source-line="37" id="lnk23"><path codeLine="37" d="M1780.86,93.8994 C1790.63,133.2894 1803.97,213.8194 1767.2,265.6094 C1689.3,375.3494 1535.8261,413.6571 1432.5861,427.5871" fill="none" id="Reference-to-XsdAnyUri-1" style="stroke:#404040;stroke-width:1.2;stroke-dasharray:7,7;"/><polygon fill="#404040" points="1426.64,428.3894,1436.094,431.15,1431.5951,427.7208,1435.0243,423.2218,1426.64,428.3894" style="stroke:#404040;stroke-width:1.2;"/><text fill="#000000" font-family="sans-serif" font-size="36" lengthAdjust="spacing" textLength="118.0723" x="1786.2" y="256.9805">relation</text></g><!--link DerivedFrom to XsdAnyUri--><g class="link" data-entity-1="ent0024" data-entity-2="ent0002" data-link-type="dependency" data-source-line="39" id="lnk25"><path codeLine="39" d="M1953.67,93.6494 C1948.15,139.6994 1933.64,240.8594 1910.2,265.6094 C1782.81,400.0994 1561.3741,429.9235 1432.4041,435.6435" fill="none" id="DerivedFrom-to-XsdAnyUri" style="stroke:#404040;stroke-width:1.2;stroke-dasharray:7,7;"/><polygon fill="#404040" points="1426.41,435.9094,1435.5784,439.5067,1431.4051,435.6878,1435.2239,431.5145,1426.41,435.9094" style="stroke:#404040;stroke-width:1.2;"/><text fill="#000000" font-family="sans-serif" font-size="36" lengthAdjust="spacing" textLength="40.0078" x="1931.2" y="256.9805">url</text></g><!--link DerivedFrom to XsdAnyUri--><g class="link" data-entity-1="ent0024" data-entity-2="ent0002" data-link-type="dependency" data-source-line="40" id="lnk26"><path codeLine="40" d="M1968.13,93.8394 C1986.63,133.5094 2016.27,214.9094 1977.2,265.6094 C1910.24,352.4994 1595.851,403.2238 1432.461,424.2438" fill="none" id="DerivedFrom-to-XsdAnyUri-1" style="stroke:#404040;stroke-width:1.2;stroke-dasharray:7,7;"/><polygon fill="#404040" points="1426.51,425.0094,1435.9468,427.8283,1431.4691,424.3714,1434.926,419.8937,1426.51,425.0094" style="stroke:#404040;stroke-width:1.2;"/><text fill="#000000" font-family="sans-serif" font-size="36" lengthAdjust="spacing" textLength="118.0723" x="1996.2" y="256.9805">relation</text></g><!--link CatalogRecord to XsdAnyUri--><g class="link" data-entity-1="ent0027" data-entity-2="ent0002" data-link-type="dependency" data-source-line="42" id="lnk28"><path codeLine="42" d="M2170.62,93.6194 C2171.78,134.4194 2167.88,219.5094 2120.2,265.6094 C2021.79,360.7694 1620.4128,409.3483 1432.2428,427.3383" fill="none" id="CatalogRecord-to-XsdAnyUri" style="stroke:#404040;stroke-width:1.2;stroke-dasharray:7,7;"/><polygon fill="#404040" points="1426.27,427.9094,1435.6098,431.0347,1431.2473,427.4335,1434.8485,423.071,1426.27,427.9094" style="stroke:#404040;stroke-width:1.2;"/><text fill="#000000" font-family="sans-serif" font-size="36" lengthAdjust="spacing" textLength="190.0547" x="2150.2" y="256.9805">conformsTo</text></g><!--link CdifConceptOrTerm to XsdAnyUri--><g class="link" data-entity-1="ent0029" data-entity-2="ent0002" data-link-type="dependency" data-source-line="44" id="lnk30"><path codeLine="44" d="M2426.49,93.8494 C2420.33,135.4294 2401.26,222.2294 2346.2,265.6094 C2204.04,377.6194 1657.7008,418.7581 1432.5408,431.2081" fill="none" id="CdifConceptOrTerm-to-XsdAnyUri" style="stroke:#404040;stroke-width:1.2;stroke-dasharray:7,7;"/><polygon fill="#404040" points="1426.55,431.5394,1435.7571,435.0364,1431.5424,431.2633,1435.3154,427.0486,1426.55,431.5394" style="stroke:#404040;stroke-width:1.2;"/><text fill="#000000" font-family="sans-serif" font-size="36" lengthAdjust="spacing" textLength="136.0723" x="2384.2" y="256.9805">identifier</text></g><?plantuml-src XPH1R-8m48Nl-HLMkIFQRdkeAgGq56bFkw9KwjMD9sM4OqTZ0w9L_tjDGco7q00NvfluFVjvWaKhWRqPaQhzAs6oGW4iHyebDB-XhEoUbL2-0vd4h55Ld7Z9p8eBlKFrmGek3KITb4ZlbYlCrmgCOTVZcwX9NAqDLEpcRX9HfGNKD8O22hwHTgwLVS5FOBVtKJENt6b_9QonoxJKn4P_9eUlWq-Q1D0fZQNSGci9tpSM0fuatqdII5_vJAuODo4XzlWekENBVGNJAHlDq-UxsMsxvZ_fRPfRtABTryjYm4RFzIVfmF5u6ea_C9UvibWWqF1p6mEYjVshZALDwHRMfg7qbX4QC3pApTpv33HQnzzUgArxso4PBv_fdPAQ2w_HWewGXwTgkRiHjwjN9thfkK9JQPQwDJ_afTK2Z9kSsZm6thm3BulEe405OWbKDWSATJXFn7eHgwZx0jRVcu--kJTVXdiBQ23nL0Wy78XBDp8Lq77u-ZW4q6_rz1NQpBsNhSa22Y1GETJQllAIWPpRwUzT0iaFMmbX4sv1p4ctOViw2ZkmSsv3_LE_p0sOr1yBoDr_HktO8TwpIoyFJIQmoBGxSMN_aH-T7WtwlSx0c_e3?></g></svg>