<svg xmlns="http://www.w3.org/2000/svg" xmlns:xlink="http://www.w3.org/1999/xlink" contentStyleType="text/css" data-diagram-type="CLASS" height="497px" preserveAspectRatio="none" style="width:2359px;height:497px;background:#FFFFFF;" version="1.1" viewBox="0 0 2359 497" width="2359px" zoomAndPan="magnify"><?plantuml 1.2026.3?><defs/><g><g class="title" data-source-line="1"><text fill="#000000" font-family="sans-serif" font-size="14" font-weight="700" lengthAdjust="spacing" textLength="71.5723" x="1140.6112" y="24.5332">XsdAnyUri</text></g><!--class XsdAnyUri--><g class="entity" data-qualified-name="XsdAnyUri" data-source-line="16" id="ent0002"><rect fill="#FAE5D3" height="93.0156" rx="2.5" ry="2.5" style="stroke:#404040;stroke-width:0.5;" width="192.1426" x="1075.74" y="390.6094"/><text fill="#000000" font-family="sans-serif" font-size="36" font-style="italic" lengthAdjust="spacing" textLength="190.1426" x="1076.74" y="432.9805">&#171;dataType&#187;</text><text fill="#000000" font-family="sans-serif" font-size="30" lengthAdjust="spacing" textLength="141.709" x="1100.9568" y="472.0332">XsdAnyUri</text></g><!--class ProvActivity--><g class="entity" data-qualified-name="ProvActivity" data-source-line="17" id="ent0003"><rect fill="#EEEEEE" height="47.7344" rx="2.5" ry="2.5" style="stroke:#404040;stroke-width:0.5;" width="162.6943" x="13.24" y="45.6094"/><text fill="#000000" font-family="sans-serif" font-size="30" lengthAdjust="spacing" textLength="156.6943" x="16.24" y="81.752">ProvActivity</text></g><!--class Instrument--><g class="entity" data-qualified-name="Instrument" data-source-line="20" id="ent0006"><rect fill="#EEEEEE" height="47.7344" rx="2.5" ry="2.5" style="stroke:#404040;stroke-width:0.5;" width="147.7236" x="242.74" y="45.6094"/><text fill="#000000" font-family="sans-serif" font-size="30" lengthAdjust="spacing" textLength="141.7236" x="245.74" y="81.752">Instrument</text></g><!--class Dataset--><g class="entity" data-qualified-name="Dataset" data-source-line="22" id="ent0008"><rect fill="#EEEEEE" height="47.7344" rx="2.5" ry="2.5" style="stroke:#404040;stroke-width:0.5;" width="109.3887" x="425.24" y="45.6094"/><text fill="#000000" font-family="sans-serif" font-size="30" lengthAdjust="spacing" textLength="103.3887" x="428.24" y="81.752">Dataset</text></g><!--class DataDownload--><g class="entity" data-qualified-name="DataDownload" data-source-line="24" id="ent0010"><rect fill="#EEEEEE" height="47.7344" rx="2.5" ry="2.5" style="stroke:#404040;stroke-width:0.5;" width="202.7871" x="595.24" y="45.6094"/><text fill="#000000" font-family="sans-serif" font-size="30" lengthAdjust="spacing" textLength="196.7871" x="598.24" y="81.752">DataDownload</text></g><!--class ActionResult--><g class="entity" data-qualified-name="ActionResult" data-source-line="27" id="ent0013"><rect fill="#EEEEEE" height="47.7344" rx="2.5" ry="2.5" style="stroke:#404040;stroke-width:0.5;" width="174.4131" x="867.74" y="45.6094"/><text fill="#000000" font-family="sans-serif" font-size="30" lengthAdjust="spacing" textLength="168.4131" x="870.74" y="81.752">ActionResult</text></g><!--class DefinedTerm--><g class="entity" data-qualified-name="DefinedTerm" data-source-line="29" id="ent0015"><rect fill="#EEEEEE" height="47.7344" rx="2.5" ry="2.5" style="stroke:#404040;stroke-width:0.5;" width="179.3936" x="1082.24" y="45.6094"/><text fill="#000000" font-family="sans-serif" font-size="30" lengthAdjust="spacing" textLength="173.3936" x="1085.24" y="81.752">DefinedTerm</text></g><!--class Identifier--><g class="entity" data-qualified-name="Identifier" data-source-line="31" id="ent0017"><rect fill="#EEEEEE" height="47.7344" rx="2.5" ry="2.5" style="stroke:#404040;stroke-width:0.5;" width="121.0635" x="1289.24" y="45.6094"/><text fill="#000000" font-family="sans-serif" font-size="30" lengthAdjust="spacing" textLength="115.0635" x="1292.24" y="81.752">Identifier</text></g><!--class AdditionalProperty--><g class="entity" data-qualified-name="AdditionalProperty" data-source-line="33" id="ent0019"><rect fill="#EEEEEE" height="47.7344" rx="2.5" ry="2.5" style="stroke:#404040;stroke-width:0.5;" width="251.1416" x="1430.24" y="45.6094"/><text fill="#000000" font-family="sans-serif" font-size="30" lengthAdjust="spacing" textLength="245.1416" x="1433.24" y="81.752">AdditionalProperty</text></g><!--class Reference--><g class="entity" data-qualified-name="Reference" data-source-line="35" id="ent0021"><rect fill="#EEEEEE" height="47.7344" rx="2.5" ry="2.5" style="stroke:#404040;stroke-width:0.5;" width="144.4131" x="1701.74" y="45.6094"/><text fill="#000000" font-family="sans-serif" font-size="30" lengthAdjust="spacing" textLength="138.4131" x="1704.74" y="81.752">Reference</text></g><!--class DerivedFrom--><g class="entity" data-qualified-name="DerivedFrom" data-source-line="38" id="ent0024"><rect fill="#EEEEEE" height="47.7344" rx="2.5" ry="2.5" style="stroke:#404040;stroke-width:0.5;" width="179.3643" x="1866.24" y="45.6094"/><text fill="#000000" font-family="sans-serif" font-size="30" lengthAdjust="spacing" textLength="173.3643" x="1869.24" y="81.752">DerivedFrom</text></g><!--class CatalogRecord--><g class="entity" data-qualified-name="CatalogRecord" data-source-line="41" id="ent0027"><rect fill="#EEEEEE" height="47.7344" rx="2.5" ry="2.5" style="stroke:#404040;stroke-width:0.5;" width="206.1123" x="2065.74" y="45.6094"/><text fill="#000000" font-family="sans-serif" font-size="30" lengthAdjust="spacing" textLength="200.1123" x="2068.74" y="81.752">CatalogRecord</text></g><!--link ProvActivity to XsdAnyUri--><g class="link" data-entity-1="ent0003" data-entity-2="ent0002" data-link-type="dependency" data-source-line="18" id="lnk4"><path codeLine="18" d="M77.92,93.7594 C51.14,133.6694 6,215.8894 48.74,265.6094 C181.23,419.7294 822.41,436.1855 1069.56,436.7555" fill="none" id="ProvActivity-to-XsdAnyUri" style="stroke:#404040;stroke-width:1.2;stroke-dasharray:7,7;"/><polygon fill="#404040" points="1075.56,436.7694,1066.5692,432.7486,1070.56,436.7578,1066.5508,440.7486,1075.56,436.7694" style="stroke:#404040;stroke-width:1.2;"/><text fill="#000000" font-family="sans-serif" font-size="36" lengthAdjust="spacing" textLength="136.0723" x="49.74" y="256.9805">identifier</text></g><!--link ProvActivity to XsdAnyUri--><g class="link" data-entity-1="ent0003" data-entity-2="ent0002" data-link-type="dependency" data-source-line="19" id="lnk5"><path codeLine="19" d="M109.68,93.7594 C128.3,122.7394 160.93,173.9994 187.74,218.6094 C200.15,239.2594 195.03,251.7494 214.74,265.6094 C353.05,362.8594 855.1586,411.8576 1069.4386,428.7576" fill="none" id="ProvActivity-to-XsdAnyUri-1" style="stroke:#404040;stroke-width:1.2;stroke-dasharray:7,7;"/><polygon fill="#404040" points="1075.42,429.2294,1066.7624,424.5341,1070.4355,428.8363,1066.1334,432.5094,1075.42,429.2294" style="stroke:#404040;stroke-width:1.2;"/><text fill="#000000" font-family="sans-serif" font-size="36" lengthAdjust="spacing" textLength="78.0645" x="215.74" y="256.9805">used</text></g><!--link Instrument to XsdAnyUri--><g class="link" data-entity-1="ent0006" data-entity-2="ent0002" data-link-type="dependency" data-source-line="21" id="lnk7"><path codeLine="21" d="M309.12,93.6194 C297.45,133.6794 280.54,216.6194 321.74,265.6094 C417.64,379.6494 867.6808,418.9201 1069.4008,431.0201" fill="none" id="Instrument-to-XsdAnyUri" style="stroke:#404040;stroke-width:1.2;stroke-dasharray:7,7;"/><polygon fill="#404040" points="1075.39,431.3794,1066.6457,426.8477,1070.399,431.08,1066.1666,434.8333,1075.39,431.3794" style="stroke:#404040;stroke-width:1.2;"/><text fill="#000000" font-family="sans-serif" font-size="36" lengthAdjust="spacing" textLength="136.0723" x="322.74" y="256.9805">identifier</text></g><!--link Dataset to XsdAnyUri--><g class="link" data-entity-1="ent0008" data-entity-2="ent0002" data-link-type="dependency" data-source-line="23" id="lnk9"><path codeLine="23" d="M472.55,93.7894 C461.73,133.7294 446.52,216.0094 486.74,265.6094 C560.41,356.4494 899.0694,405.9331 1069.6494,425.5731" fill="none" id="Dataset-to-XsdAnyUri" style="stroke:#404040;stroke-width:1.2;stroke-dasharray:7,7;"/><polygon fill="#404040" points="1075.61,426.2594,1067.1266,421.2562,1070.6428,425.6875,1066.2115,429.2037,1075.61,426.2594" style="stroke:#404040;stroke-width:1.2;"/><text fill="#000000" font-family="sans-serif" font-size="36" lengthAdjust="spacing" textLength="40.0078" x="487.74" y="256.9805">url</text></g><!--link DataDownload to XsdAnyUri--><g class="link" data-entity-1="ent0010" data-entity-2="ent0002" data-link-type="dependency" data-source-line="25" id="lnk11"><path codeLine="25" d="M656.02,93.6794 C596.86,130.1394 499.17,203.3194 546.74,265.6094 C610.78,349.4594 910.7271,401.1636 1069.5671,423.2336" fill="none" id="DataDownload-to-XsdAnyUri" style="stroke:#404040;stroke-width:1.2;stroke-dasharray:7,7;"/><polygon fill="#404040" points="1075.51,424.0594,1067.1461,418.8588,1070.5576,423.3713,1066.0451,426.7827,1075.51,424.0594" style="stroke:#404040;stroke-width:1.2;"/><text fill="#000000" font-family="sans-serif" font-size="36" lengthAdjust="spacing" textLength="164.0742" x="547.74" y="256.9805">contentUrl</text></g><!--link DataDownload to XsdAnyUri--><g class="link" data-entity-1="ent0010" data-entity-2="ent0002" data-link-type="dependency" data-source-line="26" id="lnk12"><path codeLine="26" d="M698.22,93.8594 C701.97,133.9094 715.09,216.3494 760.74,265.6094 C844.23,355.6994 976.6894,398.3735 1069.5294,418.7435" fill="none" id="DataDownload-to-XsdAnyUri-1" style="stroke:#404040;stroke-width:1.2;stroke-dasharray:7,7;"/><polygon fill="#404040" points="1075.39,420.0294,1067.4564,414.1935,1070.5062,418.9578,1065.7419,422.0076,1075.39,420.0294" style="stroke:#404040;stroke-width:1.2;"/><text fill="#000000" font-family="sans-serif" font-size="36" lengthAdjust="spacing" textLength="190.0547" x="761.74" y="256.9805">conformsTo</text></g><!--link ActionResult to XsdAnyUri--><g class="link" data-entity-1="ent0013" data-entity-2="ent0002" data-link-type="dependency" data-source-line="28" id="lnk14"><path codeLine="28" d="M951.85,93.7794 C948.2,131.9594 945.52,209.4594 974.74,265.6094 C1001.78,317.5694 1046.9435,357.1646 1089.8535,386.9946" fill="none" id="ActionResult-to-XsdAnyUri" style="stroke:#404040;stroke-width:1.2;stroke-dasharray:7,7;"/><polygon fill="#404040" points="1094.78,390.4194,1089.6734,381.9978,1090.6746,387.5654,1085.107,388.5665,1094.78,390.4194" style="stroke:#404040;stroke-width:1.2;"/><text fill="#000000" font-family="sans-serif" font-size="36" lengthAdjust="spacing" textLength="190.0547" x="975.74" y="256.9805">conformsTo</text></g><!--link DefinedTerm to XsdAnyUri--><g class="link" data-entity-1="ent0015" data-entity-2="ent0002" data-link-type="dependency" data-source-line="30" id="lnk16"><path codeLine="30" d="M1171.74,93.7494 C1171.74,153.1494 1171.74,305.8194 1171.74,384.5294" fill="none" id="DefinedTerm-to-XsdAnyUri" style="stroke:#404040;stroke-width:1.2;stroke-dasharray:7,7;"/><polygon fill="#404040" points="1171.74,390.5294,1175.74,381.5294,1171.74,385.5294,1167.74,381.5294,1171.74,390.5294" style="stroke:#404040;stroke-width:1.2;"/><text fill="#000000" font-family="sans-serif" font-size="36" lengthAdjust="spacing" textLength="290.127" x="1172.74" y="256.9805">inDefinedTermSet</text></g><!--link Identifier to XsdAnyUri--><g class="link" data-entity-1="ent0017" data-entity-2="ent0002" data-link-type="dependency" data-source-line="32" id="lnk18"><path codeLine="32" d="M1380.84,93.6294 C1426.02,130.0094 1500.69,203.0894 1464.74,265.6094 C1422.78,338.5694 1341.9081,381.1398 1273.7081,406.3398" fill="none" id="Identifier-to-XsdAnyUri" style="stroke:#404040;stroke-width:1.2;stroke-dasharray:7,7;"/><polygon fill="#404040" points="1268.08,408.4194,1277.9085,409.0521,1272.7701,406.6864,1275.1357,401.5479,1268.08,408.4194" style="stroke:#404040;stroke-width:1.2;"/><text fill="#000000" font-family="sans-serif" font-size="36" lengthAdjust="spacing" textLength="40.0078" x="1474.74" y="256.9805">url</text></g><!--link AdditionalProperty to XsdAnyUri--><g class="link" data-entity-1="ent0019" data-entity-2="ent0002" data-link-type="dependency" data-source-line="34" id="lnk20"><path codeLine="34" d="M1557.89,93.6594 C1560.32,133.0394 1559.72,214.0094 1520.74,265.6094 C1459.16,347.1294 1354.009,390.2206 1273.709,413.1706" fill="none" id="AdditionalProperty-to-XsdAnyUri" style="stroke:#404040;stroke-width:1.2;stroke-dasharray:7,7;"/><polygon fill="#404040" points="1267.94,414.8194,1277.6927,416.1922,1272.7475,413.4454,1275.4943,408.5002,1267.94,414.8194" style="stroke:#404040;stroke-width:1.2;"/><text fill="#000000" font-family="sans-serif" font-size="36" lengthAdjust="spacing" textLength="144.1055" x="1543.74" y="256.9805">unitCode</text></g><!--link Reference to XsdAnyUri--><g class="link" data-entity-1="ent0021" data-entity-2="ent0002" data-link-type="dependency" data-source-line="36" id="lnk22"><path codeLine="36" d="M1766.95,93.6994 C1752.95,139.8594 1720.01,241.1994 1693.74,265.6094 C1574.74,376.1594 1388.8881,414.3711 1273.8881,428.0411" fill="none" id="Reference-to-XsdAnyUri" style="stroke:#404040;stroke-width:1.2;stroke-dasharray:7,7;"/><polygon fill="#404040" points="1267.93,428.7494,1277.3392,431.6591,1272.895,428.1592,1276.3949,423.715,1267.93,428.7494" style="stroke:#404040;stroke-width:1.2;"/><text fill="#000000" font-family="sans-serif" font-size="36" lengthAdjust="spacing" textLength="40.0078" x="1722.74" y="256.9805">url</text></g><!--link Reference to XsdAnyUri--><g class="link" data-entity-1="ent0021" data-entity-2="ent0002" data-link-type="dependency" data-source-line="37" id="lnk23"><path codeLine="37" d="M1781.12,93.9194 C1792.15,133.7094 1807.73,215.2794 1768.74,265.6094 C1707.39,344.7994 1426.329,397.9591 1273.709,421.6491" fill="none" id="Reference-to-XsdAnyUri-1" style="stroke:#404040;stroke-width:1.2;stroke-dasharray:7,7;"/><polygon fill="#404040" points="1267.78,422.5694,1277.287,425.1416,1272.7208,421.8024,1276.06,417.2362,1267.78,422.5694" style="stroke:#404040;stroke-width:1.2;"/><text fill="#000000" font-family="sans-serif" font-size="36" lengthAdjust="spacing" textLength="118.0723" x="1789.74" y="256.9805">relation</text></g><!--link DerivedFrom to XsdAnyUri--><g class="link" data-entity-1="ent0024" data-entity-2="ent0002" data-link-type="dependency" data-source-line="39" id="lnk25"><path codeLine="39" d="M1953.83,93.7394 C1949.53,139.9794 1937.57,241.4494 1913.74,265.6094 C1824.11,356.4794 1453.3951,406.6328 1273.7751,426.1028" fill="none" id="DerivedFrom-to-XsdAnyUri" style="stroke:#404040;stroke-width:1.2;stroke-dasharray:7,7;"/><polygon fill="#404040" points="1267.81,426.7494,1277.1886,429.7562,1272.7809,426.2106,1276.3265,421.8028,1267.81,426.7494" style="stroke:#404040;stroke-width:1.2;"/><text fill="#000000" font-family="sans-serif" font-size="36" lengthAdjust="spacing" textLength="40.0078" x="1934.74" y="256.9805">url</text></g><!--link DerivedFrom to XsdAnyUri--><g class="link" data-entity-1="ent0024" data-entity-2="ent0002" data-link-type="dependency" data-source-line="40" id="lnk26"><path codeLine="40" d="M1968.49,93.7094 C1988.56,133.5394 2021.27,215.6494 1980.74,265.6094 C1891.84,375.1994 1468.2356,416.6139 1273.7456,430.1139" fill="none" id="DerivedFrom-to-XsdAnyUri-1" style="stroke:#404040;stroke-width:1.2;stroke-dasharray:7,7;"/><polygon fill="#404040" points="1267.76,430.5294,1277.0154,433.8966,1272.748,430.1831,1276.4614,425.9158,1267.76,430.5294" style="stroke:#404040;stroke-width:1.2;"/><text fill="#000000" font-family="sans-serif" font-size="36" lengthAdjust="spacing" textLength="118.0723" x="1999.74" y="256.9805">relation</text></g><!--link CatalogRecord to XsdAnyUri--><g class="link" data-entity-1="ent0027" data-entity-2="ent0002" data-link-type="dependency" data-source-line="42" id="lnk28"><path codeLine="42" d="M2170.84,93.7394 C2173.19,134.7294 2171.56,220.0994 2123.74,265.6094 C2001.5,381.9394 1490.3219,420.387 1273.7519,431.677" fill="none" id="CatalogRecord-to-XsdAnyUri" style="stroke:#404040;stroke-width:1.2;stroke-dasharray:7,7;"/><polygon fill="#404040" points="1267.76,431.9894,1276.956,435.5154,1272.7532,431.7291,1276.5396,427.5263,1267.76,431.9894" style="stroke:#404040;stroke-width:1.2;"/><text fill="#000000" font-family="sans-serif" font-size="36" lengthAdjust="spacing" textLength="190.0547" x="2153.74" y="256.9805">conformsTo</text></g><?plantuml-src XPJBRi8m44Nt-Gghx15zq4LL8QKyfEugIgLktNXIHZXsD3OWMlNVQn9YEuIciCcSoTnhNniiMWditOXK7Tu8apKAO1bI9g5-XgAq1rP0yG5a4hD1LNBY1JDhBlGUrIVBkJGGTL8YlL-jCTieC8PT3s-Y9d6rCL2oc_4eeaeBg6WC1UHyA-r2A_kANy1kxwDc9hdJ_avORJVLKXCRt8sENmUVD0cWSnfBkK5h2J-s5W8U9Jz9KajV-Kok63SX8VRuABZbgqC9amaRBDBvU7RRpBoGtgMPnHtQGpKM0pQOLv-a1OV3IIJ-m5pcocAEGFtlRGs8nlPP6KlRmWrMfg7qbX7gCJp9pTp-3DHQfsSlrDITvP2CnsTwhwJcmciqe2NauRbQvax4hUhDYVxtNgwfC2lTc1_pqce9njsSoZm6thm5_nUTGOuAn0geg3SKwh2VY7KYLb7t5Qm_DnzzVMw-3ESMK4_YgH1ut12NxigKGAVBryKXW6whew_GJjtliZ5PGWu4AeDAsrTUCf1BA_sxIo3vSIaXRC8TY0Nf9cnVHs47Ticjht_kDtKNJEhF9MJkFwDoR17lsQOzb-ON?></g></svg>