<svg xmlns="http://www.w3.org/2000/svg" xmlns:xlink="http://www.w3.org/1999/xlink" contentStyleType="text/css" data-diagram-type="CLASS" height="474px" preserveAspectRatio="none" style="width:3004px;height:474px;background:#FFFFFF;" version="1.1" viewBox="0 0 3004 474" width="3004px" zoomAndPan="magnify"><?plantuml 1.2026.3?><defs/><g><g class="title" data-source-line="1"><text fill="#000000" font-family="sans-serif" font-size="14" font-weight="700" lengthAdjust="spacing" textLength="50.5791" x="1473.6009" y="24.5332">Dataset</text></g><!--class Dataset--><g class="entity" data-qualified-name="Dataset" data-source-line="12" id="ent0002"><rect fill="#FEFECE" height="297.2344" rx="2.5" ry="2.5" style="stroke:#404040;stroke-width:0.5;" width="258.6816" x="1251.4" y="45.6094"/><text fill="#000000" font-family="sans-serif" font-size="12" lengthAdjust="spacing" textLength="41.3555" x="1360.0631" y="63.0664">Dataset</text><line style="stroke:#404040;stroke-width:0.5;" x1="1252.4" x2="1509.0816" y1="70.7031" y2="70.7031"/><g data-visibility-modifier="PUBLIC_FIELD"><ellipse cx="1262.4" cy="85.0078" fill="none" rx="3" ry="3" style="stroke:#038048;stroke-width:1;"/></g><text fill="#000000" font-family="sans-serif" font-size="14" lengthAdjust="spacing" textLength="137.7373" x="1271.4" y="89.2363">identifier : Identifier [1]</text><g data-visibility-modifier="PUBLIC_FIELD"><ellipse cx="1262.4" cy="102.6172" fill="none" rx="3" ry="3" style="stroke:#038048;stroke-width:1;"/></g><text fill="#000000" font-family="sans-serif" font-size="14" lengthAdjust="spacing" textLength="100.3789" x="1271.4" y="106.8457">name : string [1]</text><g data-visibility-modifier="PUBLIC_FIELD"><ellipse cx="1262.4" cy="120.2266" fill="none" rx="3" ry="3" style="stroke:#038048;stroke-width:1;"/></g><text fill="#000000" font-family="sans-serif" font-size="14" lengthAdjust="spacing" textLength="148.627" x="1271.4" y="124.4551">description : string [0..1]</text><g data-visibility-modifier="PUBLIC_FIELD"><ellipse cx="1262.4" cy="137.8359" fill="none" rx="3" ry="3" style="stroke:#038048;stroke-width:1;"/></g><text fill="#000000" font-family="sans-serif" font-size="14" lengthAdjust="spacing" textLength="216.3301" x="1271.4" y="142.0645">additionalType : DefinedTerm [0..*]</text><g data-visibility-modifier="PUBLIC_FIELD"><ellipse cx="1262.4" cy="155.4453" fill="none" rx="3" ry="3" style="stroke:#038048;stroke-width:1;"/></g><text fill="#000000" font-family="sans-serif" font-size="14" lengthAdjust="spacing" textLength="148.6201" x="1271.4" y="159.6738">sameAs : Identifier [0..*]</text><g data-visibility-modifier="PUBLIC_FIELD"><ellipse cx="1262.4" cy="173.0547" fill="none" rx="3" ry="3" style="stroke:#038048;stroke-width:1;"/></g><text fill="#000000" font-family="sans-serif" font-size="14" lengthAdjust="spacing" textLength="126.0547" x="1271.4" y="177.2832">version : string [0..1]</text><g data-visibility-modifier="PUBLIC_FIELD"><ellipse cx="1262.4" cy="190.6641" fill="none" rx="3" ry="3" style="stroke:#038048;stroke-width:1;"/></g><text fill="#000000" font-family="sans-serif" font-size="14" lengthAdjust="spacing" textLength="206.2881" x="1271.4" y="194.8926">inLanguage : XsdLanguage [0..1]</text><g data-visibility-modifier="PUBLIC_FIELD"><ellipse cx="1262.4" cy="208.2734" fill="none" rx="3" ry="3" style="stroke:#038048;stroke-width:1;"/></g><text fill="#000000" font-family="sans-serif" font-size="14" lengthAdjust="spacing" textLength="164.9854" x="1271.4" y="212.502">dateModified : XsdDate [1]</text><g data-visibility-modifier="PUBLIC_FIELD"><ellipse cx="1262.4" cy="225.8828" fill="none" rx="3" ry="3" style="stroke:#038048;stroke-width:1;"/></g><text fill="#000000" font-family="sans-serif" font-size="14" lengthAdjust="spacing" textLength="189.123" x="1271.4" y="230.1113">datePublished : XsdDate [0..1]</text><g data-visibility-modifier="PUBLIC_FIELD"><ellipse cx="1262.4" cy="243.4922" fill="none" rx="3" ry="3" style="stroke:#038048;stroke-width:1;"/></g><text fill="#000000" font-family="sans-serif" font-size="14" lengthAdjust="spacing" textLength="128.3789" x="1271.4" y="247.7207">url : XsdAnyUri [0..1]</text><g data-visibility-modifier="PUBLIC_FIELD"><ellipse cx="1262.4" cy="261.1016" fill="none" rx="3" ry="3" style="stroke:#038048;stroke-width:1;"/></g><text fill="#000000" font-family="sans-serif" font-size="14" lengthAdjust="spacing" textLength="152.5234" x="1271.4" y="265.3301">license : Reference [0..*]</text><g data-visibility-modifier="PUBLIC_FIELD"><ellipse cx="1262.4" cy="278.7109" fill="none" rx="3" ry="3" style="stroke:#038048;stroke-width:1;"/></g><text fill="#000000" font-family="sans-serif" font-size="14" lengthAdjust="spacing" textLength="231.8887" x="1271.4" y="282.9395">conditionsOfAccess : Reference [0..*]</text><g data-visibility-modifier="PUBLIC_FIELD"><ellipse cx="1262.4" cy="296.3203" fill="none" rx="3" ry="3" style="stroke:#038048;stroke-width:1;"/></g><text fill="#000000" font-family="sans-serif" font-size="14" lengthAdjust="spacing" textLength="232.6816" x="1271.4" y="300.5488">publishingPrinciples : Reference [0..*]</text><g data-visibility-modifier="PUBLIC_FIELD"><ellipse cx="1262.4" cy="313.9297" fill="none" rx="3" ry="3" style="stroke:#038048;stroke-width:1;"/></g><text fill="#000000" font-family="sans-serif" font-size="14" lengthAdjust="spacing" textLength="184.3994" x="1271.4" y="318.1582">keywords : DefinedTerm [0..*]</text><g data-visibility-modifier="PUBLIC_FIELD"><ellipse cx="1262.4" cy="331.5391" fill="none" rx="3" ry="3" style="stroke:#038048;stroke-width:1;"/></g><text fill="#000000" font-family="sans-serif" font-size="14" lengthAdjust="spacing" textLength="177.4336" x="1271.4" y="335.7676">relatedLink : Reference [0..*]</text></g><!--class Agent--><g class="entity" data-qualified-name="Agent" data-source-line="29" id="ent0003"><rect fill="#EEEEEE" height="25.0938" rx="2.5" ry="2.5" style="stroke:#404040;stroke-width:0.5;" width="37.3594" x="103.4" y="428.1094"/><text fill="#000000" font-family="sans-serif" font-size="12" font-style="italic" lengthAdjust="spacing" textLength="31.3594" x="106.4" y="445.5664">Agent</text></g><!--class AbstractDistribution--><g class="entity" data-qualified-name="AbstractDistribution" data-source-line="31" id="ent0005"><rect fill="#EEEEEE" height="25.0938" rx="2.5" ry="2.5" style="stroke:#404040;stroke-width:0.5;" width="110.0391" x="217.9" y="428.1094"/><text fill="#000000" font-family="sans-serif" font-size="12" font-style="italic" lengthAdjust="spacing" textLength="104.0391" x="220.9" y="445.5664">AbstractDistribution</text></g><!--class Contributor--><g class="entity" data-qualified-name="Contributor" data-source-line="34" id="ent0008"><rect fill="#EEEEEE" height="25.0938" rx="2.5" ry="2.5" style="stroke:#404040;stroke-width:0.5;" width="65.3613" x="363.4" y="428.1094"/><text fill="#000000" font-family="sans-serif" font-size="12" lengthAdjust="spacing" textLength="59.3613" x="366.4" y="445.5664">Contributor</text></g><!--class MonetaryGrant--><g class="entity" data-qualified-name="MonetaryGrant" data-source-line="37" id="ent0011"><rect fill="#EEEEEE" height="25.0938" rx="2.5" ry="2.5" style="stroke:#404040;stroke-width:0.5;" width="86.0332" x="463.9" y="428.1094"/><text fill="#000000" font-family="sans-serif" font-size="12" lengthAdjust="spacing" textLength="80.0332" x="466.9" y="445.5664">MonetaryGrant</text></g><!--class ProvActivity--><g class="entity" data-qualified-name="ProvActivity" data-source-line="39" id="ent0013"><rect fill="#EEEEEE" height="25.0938" rx="2.5" ry="2.5" style="stroke:#404040;stroke-width:0.5;" width="68.6777" x="585.4" y="428.1094"/><text fill="#000000" font-family="sans-serif" font-size="12" lengthAdjust="spacing" textLength="62.6777" x="588.4" y="445.5664">ProvActivity</text></g><!--class DerivedFrom--><g class="entity" data-qualified-name="DerivedFrom" data-source-line="41" id="ent0015"><rect fill="#EEEEEE" height="25.0938" rx="2.5" ry="2.5" style="stroke:#404040;stroke-width:0.5;" width="75.3457" x="692.4" y="428.1094"/><text fill="#000000" font-family="sans-serif" font-size="12" lengthAdjust="spacing" textLength="69.3457" x="695.4" y="445.5664">DerivedFrom</text></g><!--class CatalogRecord--><g class="entity" data-qualified-name="CatalogRecord" data-source-line="43" id="ent0017"><rect fill="#EEEEEE" height="25.0938" rx="2.5" ry="2.5" style="stroke:#404040;stroke-width:0.5;" width="86.0449" x="874.9" y="428.1094"/><text fill="#000000" font-family="sans-serif" font-size="12" lengthAdjust="spacing" textLength="80.0449" x="877.9" y="445.5664">CatalogRecord</text></g><!--class DefinedTerm--><g class="entity" data-qualified-name="DefinedTerm" data-source-line="45" id="ent0019"><rect fill="#EEEEEE" height="25.0938" rx="2.5" ry="2.5" style="stroke:#404040;stroke-width:0.5;" width="75.3574" x="1098.4" y="428.1094"/><text fill="#000000" font-family="sans-serif" font-size="12" lengthAdjust="spacing" textLength="69.3574" x="1101.4" y="445.5664">DefinedTerm</text></g><!--class Reference--><g class="entity" data-qualified-name="Reference" data-source-line="47" id="ent0021"><rect fill="#EEEEEE" height="25.0938" rx="2.5" ry="2.5" style="stroke:#404040;stroke-width:0.5;" width="61.3652" x="1573.4" y="428.1094"/><text fill="#000000" font-family="sans-serif" font-size="12" lengthAdjust="spacing" textLength="55.3652" x="1576.4" y="445.5664">Reference</text></g><!--class VariableMeasured--><g class="entity" data-qualified-name="VariableMeasured" data-source-line="50" id="ent0024"><rect fill="#EEEEEE" height="25.0938" rx="2.5" ry="2.5" style="stroke:#404040;stroke-width:0.5;" width="103.3887" x="1891.4" y="428.1094"/><text fill="#000000" font-family="sans-serif" font-size="12" lengthAdjust="spacing" textLength="97.3887" x="1894.4" y="445.5664">VariableMeasured</text></g><!--class SpatialExtent--><g class="entity" data-qualified-name="SpatialExtent" data-source-line="52" id="ent0026"><rect fill="#EEEEEE" height="25.0938" rx="2.5" ry="2.5" style="stroke:#404040;stroke-width:0.5;" width="76.7109" x="2049.4" y="428.1094"/><text fill="#000000" font-family="sans-serif" font-size="12" lengthAdjust="spacing" textLength="70.7109" x="2052.4" y="445.5664">SpatialExtent</text></g><!--class TemporalExtent--><g class="entity" data-qualified-name="TemporalExtent" data-source-line="54" id="ent0028"><rect fill="#EEEEEE" height="25.0938" rx="2.5" ry="2.5" style="stroke:#404040;stroke-width:0.5;" width="90.7031" x="2177.4" y="428.1094"/><text fill="#000000" font-family="sans-serif" font-size="12" lengthAdjust="spacing" textLength="84.7031" x="2180.4" y="445.5664">TemporalExtent</text></g><!--class QualityMeasure--><g class="entity" data-qualified-name="QualityMeasure" data-source-line="56" id="ent0030"><rect fill="#EEEEEE" height="25.0938" rx="2.5" ry="2.5" style="stroke:#404040;stroke-width:0.5;" width="90.0352" x="2325.9" y="428.1094"/><text fill="#000000" font-family="sans-serif" font-size="12" lengthAdjust="spacing" textLength="84.0352" x="2328.9" y="445.5664">QualityMeasure</text></g><!--class Identifier--><g class="entity" data-qualified-name="Identifier" data-source-line="59" id="ent0033"><rect fill="#EEEEEE" height="25.0938" rx="2.5" ry="2.5" style="stroke:#404040;stroke-width:0.5;" width="52.0254" x="2565.9" y="428.1094"/><text fill="#000000" font-family="sans-serif" font-size="12" lengthAdjust="spacing" textLength="46.0254" x="2568.9" y="445.5664">Identifier</text></g><!--class XsdLanguage--><g class="entity" data-qualified-name="XsdLanguage" data-source-line="63" id="ent0037"><rect fill="#FAE5D3" height="40.1875" rx="2.5" ry="2.5" style="stroke:#404040;stroke-width:0.5;" width="80.0684" x="2691.9" y="420.6094"/><text fill="#000000" font-family="sans-serif" font-size="12" font-style="italic" lengthAdjust="spacing" textLength="63.3809" x="2700.2437" y="438.0664">&#171;dataType&#187;</text><text fill="#000000" font-family="sans-serif" font-size="12" lengthAdjust="spacing" textLength="74.0684" x="2694.9" y="453.1602">XsdLanguage</text></g><!--class XsdDate--><g class="entity" data-qualified-name="XsdDate" data-source-line="65" id="ent0039"><rect fill="#FAE5D3" height="40.1875" rx="2.5" ry="2.5" style="stroke:#404040;stroke-width:0.5;" width="65.3809" x="2808.4" y="420.6094"/><text fill="#000000" font-family="sans-serif" font-size="12" font-style="italic" lengthAdjust="spacing" textLength="63.3809" x="2809.4" y="438.0664">&#171;dataType&#187;</text><text fill="#000000" font-family="sans-serif" font-size="12" lengthAdjust="spacing" textLength="46.0254" x="2818.0777" y="453.1602">XsdDate</text></g><!--class XsdAnyUri--><g class="entity" data-qualified-name="XsdAnyUri" data-source-line="67" id="ent0041"><rect fill="#FAE5D3" height="40.1875" rx="2.5" ry="2.5" style="stroke:#404040;stroke-width:0.5;" width="65.3809" x="2924.4" y="420.6094"/><text fill="#000000" font-family="sans-serif" font-size="12" font-style="italic" lengthAdjust="spacing" textLength="63.3809" x="2925.4" y="438.0664">&#171;dataType&#187;</text><text fill="#000000" font-family="sans-serif" font-size="12" lengthAdjust="spacing" textLength="56.6836" x="2928.7486" y="453.1602">XsdAnyUri</text></g><!--link Dataset to Agent--><g class="link" data-entity-1="ent0002" data-entity-2="ent0003" data-link-type="dependency" data-source-line="30" id="lnk4"><path codeLine="30" d="M1251.32,202.5694 C928.92,222.4594 110.82,281.4994 30.9,372.6094 C6,400.9994 64.2513,422.8612 97.5413,432.8112" fill="none" id="Dataset-to-Agent" style="stroke:#404040;stroke-width:1.2;"/><polygon fill="#404040" points="103.29,434.5294,95.8124,428.1196,98.4994,433.0975,93.5214,435.7845,103.29,434.5294" style="stroke:#404040;stroke-width:1.2;"/><text fill="#000000" font-family="sans-serif" font-size="13" lengthAdjust="spacing" textLength="46.9663" x="31.9" y="387.1045">provider</text><text fill="#000000" font-family="sans-serif" font-size="13" lengthAdjust="spacing" textLength="19.5127" x="76.0552" y="427.9264">0..*</text></g><!--link Dataset to Agent--><g class="link" data-entity-1="ent0002" data-entity-2="ent0003" data-link-type="dependency" data-source-line="33" id="lnk7"><path codeLine="33" d="M1251.35,203.8294 C944.34,225.7894 192.63,287.7794 118.9,372.6094 C105.61,387.8994 109.7331,407.7157 115.0531,422.4557" fill="none" id="Dataset-to-Agent-1" style="stroke:#404040;stroke-width:1.2;"/><polygon fill="#404040" points="117.09,428.0994,117.7971,418.2759,115.3926,423.3963,110.2722,420.9918,117.09,428.0994" style="stroke:#404040;stroke-width:1.2;"/><text fill="#000000" font-family="sans-serif" font-size="13" lengthAdjust="spacing" textLength="40.46" x="119.9" y="387.1045">creator</text><text fill="#000000" font-family="sans-serif" font-size="13" lengthAdjust="spacing" textLength="19.5127" x="119.0562" y="417.1873">0..*</text></g><!--link Dataset to Agent--><g class="link" data-entity-1="ent0002" data-entity-2="ent0003" data-link-type="dependency" data-source-line="36" id="lnk10"><path codeLine="36" d="M1251.28,206.2694 C1043.86,226.3094 625.89,275.6394 283.9,372.6094 C230.32,387.7994 175.9474,412.8682 146.2274,427.4382" fill="none" id="Dataset-to-Agent-2" style="stroke:#404040;stroke-width:1.2;"/><polygon fill="#404040" points="140.84,430.0794,150.6819,429.7093,145.3295,427.8784,147.1604,422.526,140.84,430.0794" style="stroke:#404040;stroke-width:1.2;"/><text fill="#000000" font-family="sans-serif" font-size="13" lengthAdjust="spacing" textLength="52.7554" x="284.9" y="387.1045">publisher</text><text fill="#000000" font-family="sans-serif" font-size="13" lengthAdjust="spacing" textLength="21.6836" x="148.7956" y="422.6292">0..1</text></g><!--link Dataset to AbstractDistribution--><g class="link" data-entity-1="ent0002" data-entity-2="ent0005" data-link-type="dependency" data-source-line="32" id="lnk6"><path codeLine="32" d="M1251.07,202.2794 C1056.02,216.5194 678.45,257.6894 379.9,372.6094 C344.11,386.3894 312.0005,408.9743 292.2605,424.2043" fill="none" id="Dataset-to-AbstractDistribution" style="stroke:#404040;stroke-width:1.2;"/><polygon fill="#404040" points="287.51,427.8694,297.0791,425.5387,291.4687,424.8151,292.1923,419.2047,287.51,427.8694" style="stroke:#404040;stroke-width:1.2;"/><text fill="#000000" font-family="sans-serif" font-size="13" lengthAdjust="spacing" textLength="62.8672" x="380.9" y="387.1045">distribution</text><text fill="#000000" font-family="sans-serif" font-size="13" lengthAdjust="spacing" textLength="19.5127" x="270.6153" y="417.2489">0..*</text></g><!--link Dataset to Contributor--><g class="link" data-entity-1="ent0002" data-entity-2="ent0008" data-link-type="dependency" data-source-line="35" id="lnk9"><path codeLine="35" d="M1251.27,201.1194 C1070.44,213.7394 735.79,252.6994 478.9,372.6094 C449.37,386.3994 425.3797,408.5751 410.6697,423.7951" fill="none" id="Dataset-to-Contributor" style="stroke:#404040;stroke-width:1.2;"/><polygon fill="#404040" points="406.5,428.1094,415.6308,424.4177,409.9748,424.5141,409.8784,418.8581,406.5,428.1094" style="stroke:#404040;stroke-width:1.2;"/><text fill="#000000" font-family="sans-serif" font-size="13" lengthAdjust="spacing" textLength="61.4199" x="479.9" y="387.1045">contributor</text><text fill="#000000" font-family="sans-serif" font-size="13" lengthAdjust="spacing" textLength="19.5127" x="387.985" y="417.2014">0..*</text></g><!--link Dataset to MonetaryGrant--><g class="link" data-entity-1="ent0002" data-entity-2="ent0011" data-link-type="dependency" data-source-line="38" id="lnk12"><path codeLine="38" d="M1251.26,200.6794 C1084.39,212.7694 790,251.1094 571.9,372.6094 C547.13,386.4094 529.3589,407.7824 518.3789,423.0124" fill="none" id="Dataset-to-MonetaryGrant" style="stroke:#404040;stroke-width:1.2;"/><polygon fill="#404040" points="514.87,427.8794,523.378,422.9181,517.794,423.8235,516.8886,418.2396,514.87,427.8794" style="stroke:#404040;stroke-width:1.2;"/><text fill="#000000" font-family="sans-serif" font-size="13" lengthAdjust="spacing" textLength="42.6499" x="572.9" y="387.1045">funding</text><text fill="#000000" font-family="sans-serif" font-size="13" lengthAdjust="spacing" textLength="19.5127" x="495.362" y="417.2628">0..*</text></g><!--link Dataset to ProvActivity--><g class="link" data-entity-1="ent0002" data-entity-2="ent0013" data-link-type="dependency" data-source-line="40" id="lnk14"><path codeLine="40" d="M1251.33,209.1894 C1060.84,232.5594 718.56,285.6094 633.9,372.6094 C619.48,387.4294 617.9383,407.0651 618.5883,421.9551" fill="none" id="Dataset-to-ProvActivity" style="stroke:#404040;stroke-width:1.2;"/><polygon fill="#404040" points="618.85,427.9494,622.4537,418.7835,618.6319,422.9541,614.4613,419.1324,618.85,427.9494" style="stroke:#404040;stroke-width:1.2;"/><text fill="#000000" font-family="sans-serif" font-size="13" lengthAdjust="spacing" textLength="99.7217" x="634.9" y="387.1045">wasGeneratedBy</text><text fill="#000000" font-family="sans-serif" font-size="13" lengthAdjust="spacing" textLength="19.5127" x="595.8603" y="417.3604">0..*</text></g><!--link Dataset to DerivedFrom--><g class="link" data-entity-1="ent0002" data-entity-2="ent0015" data-link-type="dependency" data-source-line="42" id="lnk16"><path codeLine="42" d="M1251.14,198.5994 C1111.7,209.1494 891.71,246.4394 754.9,372.6094 C739.02,387.2594 734.018,406.9982 731.908,421.9582" fill="none" id="Dataset-to-DerivedFrom" style="stroke:#404040;stroke-width:1.2;"/><polygon fill="#404040" points="731.07,427.8994,736.2877,419.5462,731.7683,422.9484,728.3661,418.4289,731.07,427.8994" style="stroke:#404040;stroke-width:1.2;"/><text fill="#000000" font-family="sans-serif" font-size="13" lengthAdjust="spacing" textLength="98.2427" x="755.9" y="387.1045">wasDerivedFrom</text><text fill="#000000" font-family="sans-serif" font-size="13" lengthAdjust="spacing" textLength="19.5127" x="708.8229" y="417.2907">0..*</text></g><!--link Dataset to CatalogRecord--><g class="link" data-entity-1="ent0002" data-entity-2="ent0017" data-link-type="dependency" data-source-line="44" id="lnk18"><path codeLine="44" d="M1251.23,199.7694 C1129.53,211.8694 953.61,250.9394 866.9,372.6094 C852.82,392.3694 873.4663,411.3384 893.2163,424.5784" fill="none" id="Dataset-to-CatalogRecord" style="stroke:#404040;stroke-width:1.2;"/><polygon fill="#404040" points="898.2,427.9194,892.9517,419.5854,894.0469,425.1352,888.497,426.2304,898.2,427.9194" style="stroke:#404040;stroke-width:1.2;"/><text fill="#000000" font-family="sans-serif" font-size="13" lengthAdjust="spacing" textLength="54.9136" x="867.9" y="387.1045">subjectOf</text><text fill="#000000" font-family="sans-serif" font-size="13" lengthAdjust="spacing" textLength="7.23" x="882.1014" y="417.3186">1</text></g><!--link CatalogRecord to Dataset--><g class="link" data-entity-1="ent0017" data-entity-2="ent0002" data-link-type="dependency" data-source-line="58" id="lnk32"><path codeLine="58" d="M928.53,427.9994 C942.16,413.6094 967,388.9894 991.9,372.6094 C1073.14,319.1594 1167.5321,276.1651 1245.7821,244.7451" fill="none" id="CatalogRecord-to-Dataset" style="stroke:#404040;stroke-width:1.2;"/><polygon fill="#404040" points="1251.35,242.5094,1241.5077,242.151,1246.7101,244.3725,1244.4886,249.5749,1251.35,242.5094" style="stroke:#404040;stroke-width:1.2;"/><text fill="#000000" font-family="sans-serif" font-size="13" lengthAdjust="spacing" textLength="32.5317" x="992.9" y="387.1045">about</text><text fill="#000000" font-family="sans-serif" font-size="13" lengthAdjust="spacing" textLength="21.6836" x="1221.8462" y="242.4699">0..1</text></g><!--link Dataset to DefinedTerm--><g class="link" data-entity-1="ent0002" data-entity-2="ent0019" data-link-type="dependency" data-source-line="46" id="lnk20"><path codeLine="46" d="M1251.18,225.7994 C1174.44,251.3494 1083.41,296.2794 1036.9,372.6094 C1019.46,401.2294 1057.6741,418.7155 1092.5041,428.9655" fill="none" id="Dataset-to-DefinedTerm" style="stroke:#404040;stroke-width:1.2;"/><polygon fill="#404040" points="1098.26,430.6594,1090.7554,424.2812,1093.4634,429.2478,1088.4968,431.9558,1098.26,430.6594" style="stroke:#404040;stroke-width:1.2;"/><text fill="#000000" font-family="sans-serif" font-size="13" lengthAdjust="spacing" textLength="54.9072" x="1037.9" y="387.1045">keywords</text><text fill="#000000" font-family="sans-serif" font-size="13" lengthAdjust="spacing" textLength="19.5127" x="1070.877" y="424.9801">0..*</text></g><!--link Dataset to DefinedTerm--><g class="link" data-entity-1="ent0002" data-entity-2="ent0019" data-link-type="dependency" data-source-line="49" id="lnk23"><path codeLine="49" d="M1251.35,255.3094 C1205.27,283.8694 1158.5,322.8094 1132.9,372.6094 C1123.85,390.2094 1126.5388,408.1997 1130.4388,422.1897" fill="none" id="Dataset-to-DefinedTerm-1" style="stroke:#404040;stroke-width:1.2;"/><polygon fill="#404040" points="1132.05,427.9694,1133.4863,418.2258,1130.7073,423.153,1125.7801,420.3741,1132.05,427.9694" style="stroke:#404040;stroke-width:1.2;"/><text fill="#000000" font-family="sans-serif" font-size="13" lengthAdjust="spacing" textLength="140.188" x="1133.9" y="387.1045">measurementTechnique</text><text fill="#000000" font-family="sans-serif" font-size="13" lengthAdjust="spacing" textLength="19.5127" x="1107.5752" y="417.0037">0..*</text></g><!--link Dataset to DefinedTerm--><g class="link" data-entity-1="ent0002" data-entity-2="ent0019" data-link-type="dependency" data-source-line="61" id="lnk35"><path codeLine="61" d="M1319.89,343.0094 C1308.18,360.6494 1294.58,377.1294 1278.9,390.6094 C1248.95,416.3594 1210.6879,427.6674 1179.3779,433.5174" fill="none" id="Dataset-to-DefinedTerm-2" style="stroke:#404040;stroke-width:1.2;"/><polygon fill="#404040" points="1173.48,434.6194,1183.0616,436.8984,1178.3949,433.7011,1181.5923,429.0345,1173.48,434.6194" style="stroke:#404040;stroke-width:1.2;"/><text fill="#000000" font-family="sans-serif" font-size="13" lengthAdjust="spacing" textLength="84.5571" x="1296.9" y="387.1045">additionalType</text><text fill="#000000" font-family="sans-serif" font-size="13" lengthAdjust="spacing" textLength="19.5127" x="1181.88" y="429.6455">0..*</text></g><!--link Dataset to Reference--><g class="link" data-entity-1="ent0002" data-entity-2="ent0021" data-link-type="dependency" data-source-line="48" id="lnk22"><path codeLine="48" d="M1408.63,342.9294 C1416.78,360.5794 1427.31,377.0894 1440.9,390.6094 C1476.53,426.0294 1530.7367,435.5625 1567.1567,438.2825" fill="none" id="Dataset-to-Reference" style="stroke:#404040;stroke-width:1.2;"/><polygon fill="#404040" points="1573.14,438.7294,1564.4629,434.0702,1568.1539,438.357,1563.8671,442.048,1573.14,438.7294" style="stroke:#404040;stroke-width:1.2;"/><text fill="#000000" font-family="sans-serif" font-size="13" lengthAdjust="spacing" textLength="40.4663" x="1441.9" y="387.1045">license</text><text fill="#000000" font-family="sans-serif" font-size="13" lengthAdjust="spacing" textLength="19.5127" x="1545.8516" y="434.2133">0..*</text></g><!--link Dataset to Reference--><g class="link" data-entity-1="ent0002" data-entity-2="ent0021" data-link-type="dependency" data-source-line="69" id="lnk43"><path codeLine="69" d="M1478.15,342.8194 C1492.19,359.8194 1507.23,376.1994 1522.9,390.6094 C1539.72,406.0694 1556.8271,416.4398 1573.8171,425.1998" fill="none" id="Dataset-to-Reference-1" style="stroke:#404040;stroke-width:1.2;"/><polygon fill="#404040" points="1579.15,427.9494,1572.9838,420.2697,1574.7059,425.658,1569.3176,427.3802,1579.15,427.9494" style="stroke:#404040;stroke-width:1.2;"/><text fill="#000000" font-family="sans-serif" font-size="13" lengthAdjust="spacing" textLength="114.1626" x="1523.9" y="387.1045">conditionsOfAccess</text><text fill="#000000" font-family="sans-serif" font-size="13" lengthAdjust="spacing" textLength="19.5127" x="1573.1743" y="417.3604">0..*</text></g><!--link Dataset to Reference--><g class="link" data-entity-1="ent0002" data-entity-2="ent0021" data-link-type="dependency" data-source-line="70" id="lnk44"><path codeLine="70" d="M1510.69,249.7794 C1561.51,278.3894 1614.39,318.8594 1642.9,372.6094 C1653.37,392.3494 1638.3682,410.6887 1623.3582,423.9387" fill="none" id="Dataset-to-Reference-2" style="stroke:#404040;stroke-width:1.2;"/><polygon fill="#404040" points="1618.86,427.9094,1628.2544,424.9521,1622.6085,424.6004,1622.9601,418.9545,1618.86,427.9094" style="stroke:#404040;stroke-width:1.2;"/><text fill="#000000" font-family="sans-serif" font-size="13" lengthAdjust="spacing" textLength="114.8989" x="1646.9" y="387.1045">publishingPrinciples</text><text fill="#000000" font-family="sans-serif" font-size="13" lengthAdjust="spacing" textLength="19.5127" x="1602.0389" y="417.3046">0..*</text></g><!--link Dataset to Reference--><g class="link" data-entity-1="ent0002" data-entity-2="ent0021" data-link-type="dependency" data-source-line="71" id="lnk45"><path codeLine="71" d="M1510.66,216.8494 C1600.25,239.3394 1713.1,284.2494 1769.9,372.6094 C1802.42,423.1894 1696.9314,435.2673 1640.5614,438.2973" fill="none" id="Dataset-to-Reference-3" style="stroke:#404040;stroke-width:1.2;"/><polygon fill="#404040" points="1634.57,438.6194,1643.7717,442.1305,1639.5628,438.351,1643.3423,434.1421,1634.57,438.6194" style="stroke:#404040;stroke-width:1.2;"/><text fill="#000000" font-family="sans-serif" font-size="13" lengthAdjust="spacing" textLength="63.5972" x="1776.9" y="387.1045">relatedLink</text><text fill="#000000" font-family="sans-serif" font-size="13" lengthAdjust="spacing" textLength="19.5127" x="1642.8703" y="434.0806">0..*</text></g><!--reverse link Dataset to VariableMeasured--><g class="link" data-entity-1="ent0002" data-entity-2="ent0024" data-link-type="composition" data-source-line="51" id="lnk25"><path codeLine="51" d="M1521.8168,237.9857 C1617.9968,269.4057 1739.5,314.1294 1848.9,372.6094 C1879.3,388.8594 1911.29,413.5194 1929,427.9494" fill="none" id="Dataset-backto-VariableMeasured" style="stroke:#404040;stroke-width:1.2;"/><polygon fill="#404040" points="1510.41,234.2594,1514.8713,239.9248,1521.8168,237.9857,1517.3555,232.3203,1510.41,234.2594" style="stroke:#404040;stroke-width:1.2;"/><text fill="#000000" font-family="sans-serif" font-size="13" lengthAdjust="spacing" textLength="103.3335" x="1877.9" y="387.1045">variableMeasured</text><text fill="#000000" font-family="sans-serif" font-size="13" lengthAdjust="spacing" textLength="19.5127" x="1900.8107" y="417.3604">0..*</text></g><!--reverse link Dataset to SpatialExtent--><g class="link" data-entity-1="ent0002" data-entity-2="ent0026" data-link-type="composition" data-source-line="53" id="lnk27"><path codeLine="53" d="M1522.2853,222.9522 C1648.5953,250.4522 1832.35,298.1194 1989.9,372.6094 C2022.32,387.9394 2055.95,413.3794 2074.16,428.1094" fill="none" id="Dataset-backto-SpatialExtent" style="stroke:#404040;stroke-width:1.2;"/><polygon fill="#404040" points="1510.56,220.3994,1515.5717,225.5842,1522.2853,222.9522,1517.2736,217.7673,1510.56,220.3994" style="stroke:#404040;stroke-width:1.2;"/><text fill="#000000" font-family="sans-serif" font-size="13" lengthAdjust="spacing" textLength="93.9453" x="2022.9" y="387.1045">spatialCoverage</text><text fill="#000000" font-family="sans-serif" font-size="13" lengthAdjust="spacing" textLength="19.5127" x="2045.7389" y="417.2014">0..*</text></g><!--reverse link Dataset to TemporalExtent--><g class="link" data-entity-1="ent0002" data-entity-2="ent0028" data-link-type="composition" data-source-line="55" id="lnk29"><path codeLine="55" d="M1522.4123,213.1352 C1674.6023,235.5152 1920.32,281.9994 2124.9,372.6094 C2157.69,387.1294 2191.18,412.8694 2209.27,427.8594" fill="none" id="Dataset-backto-TemporalExtent" style="stroke:#404040;stroke-width:1.2;"/><polygon fill="#404040" points="1510.54,211.3894,1515.8942,216.2197,1522.4123,213.1352,1517.0581,208.3049,1510.54,211.3894" style="stroke:#404040;stroke-width:1.2;"/><text fill="#000000" font-family="sans-serif" font-size="13" lengthAdjust="spacing" textLength="106.9453" x="2157.9" y="387.1045">temporalCoverage</text><text fill="#000000" font-family="sans-serif" font-size="13" lengthAdjust="spacing" textLength="19.5127" x="2181.3219" y="417.2349">0..*</text></g><!--reverse link Dataset to QualityMeasure--><g class="link" data-entity-1="ent0002" data-entity-2="ent0030" data-link-type="composition" data-source-line="57" id="lnk31"><path codeLine="57" d="M1522.4087,205.618 C1700.3587,222.128 2015.64,264.4294 2272.9,372.6094 C2306.15,386.5894 2339.74,412.7694 2357.66,427.9294" fill="none" id="Dataset-backto-QualityMeasure" style="stroke:#404040;stroke-width:1.2;"/><polygon fill="#404040" points="1510.46,204.5094,1516.0648,209.0466,1522.4087,205.618,1516.8039,201.0808,1510.46,204.5094" style="stroke:#404040;stroke-width:1.2;"/><text fill="#000000" font-family="sans-serif" font-size="13" lengthAdjust="spacing" textLength="140.8989" x="2305.9" y="387.1045">hasQualityMeasurement</text><text fill="#000000" font-family="sans-serif" font-size="13" lengthAdjust="spacing" textLength="19.5127" x="2329.8001" y="417.3325">0..*</text></g><!--link Dataset to Identifier--><g class="link" data-entity-1="ent0002" data-entity-2="ent0033" data-link-type="dependency" data-source-line="60" id="lnk34"><path codeLine="60" d="M1510.63,204.3194 C1715.42,221.5594 2124.34,266.9694 2454.9,372.6094 C2499.04,386.7094 2541.6723,409.8077 2567.5123,424.9377" fill="none" id="Dataset-to-Identifier" style="stroke:#404040;stroke-width:1.2;"/><polygon fill="#404040" points="2572.69,427.9694,2566.9445,419.97,2568.3752,425.443,2562.9023,426.8737,2572.69,427.9694" style="stroke:#404040;stroke-width:1.2;"/><text fill="#000000" font-family="sans-serif" font-size="13" lengthAdjust="spacing" textLength="49.1372" x="2498.9" y="387.1045">identifier</text><text fill="#000000" font-family="sans-serif" font-size="13" lengthAdjust="spacing" textLength="7.23" x="2556.3643" y="417.0037">1</text></g><!--link Dataset to Identifier--><g class="link" data-entity-1="ent0002" data-entity-2="ent0033" data-link-type="dependency" data-source-line="62" id="lnk36"><path codeLine="62" d="M1510.55,200.1094 C1780.32,212.7994 2390.8,254.1294 2556.9,372.6094 C2575.71,386.0194 2583.6543,406.8619 2587.7443,422.2019" fill="none" id="Dataset-to-Identifier-1" style="stroke:#404040;stroke-width:1.2;"/><polygon fill="#404040" points="2589.29,427.9994,2590.8364,418.2727,2588.0019,423.1681,2583.1064,420.3337,2589.29,427.9994" style="stroke:#404040;stroke-width:1.2;"/><text fill="#000000" font-family="sans-serif" font-size="13" lengthAdjust="spacing" textLength="46.96" x="2574.9" y="387.1045">sameAs</text><text fill="#000000" font-family="sans-serif" font-size="13" lengthAdjust="spacing" textLength="19.5127" x="2592.2326" y="417.046">0..*</text></g><!--link Dataset to XsdLanguage--><g class="link" data-entity-1="ent0002" data-entity-2="ent0037" data-link-type="dependency" data-source-line="64" id="lnk38"><path codeLine="64" d="M1510.44,195.1094 C1742.49,199.0794 2241.13,225.7494 2629.9,372.6094 C2659.63,383.8394 2684.8308,401.1914 2704.5008,416.7214" fill="none" id="Dataset-to-XsdLanguage" style="stroke:#404040;stroke-width:1.2;stroke-dasharray:7,7;"/><polygon fill="#404040" points="2709.21,420.4394,2704.6249,411.7229,2705.2857,417.341,2699.6676,418.0018,2709.21,420.4394" style="stroke:#404040;stroke-width:1.2;"/><text fill="#000000" font-family="sans-serif" font-size="13" lengthAdjust="spacing" textLength="67.958" x="2666.9" y="387.1045">inLanguage</text></g><!--link Dataset to XsdDate--><g class="link" data-entity-1="ent0002" data-entity-2="ent0039" data-link-type="dependency" data-source-line="66" id="lnk40"><path codeLine="66" d="M1510.66,204.2694 C1805.74,226.3494 2518.8,287.0694 2742.9,372.6094 C2771.79,383.6294 2795.8514,400.9094 2814.6514,416.4994" fill="none" id="Dataset-to-XsdDate" style="stroke:#404040;stroke-width:1.2;stroke-dasharray:7,7;"/><polygon fill="#404040" points="2819.27,420.3294,2814.8955,411.5054,2815.4212,417.1377,2809.7888,417.6635,2819.27,420.3294" style="stroke:#404040;stroke-width:1.2;"/><text fill="#000000" font-family="sans-serif" font-size="13" lengthAdjust="spacing" textLength="74.439" x="2778.9" y="387.1045">dateModified</text></g><!--link Dataset to XsdAnyUri--><g class="link" data-entity-1="ent0002" data-entity-2="ent0041" data-link-type="dependency" data-source-line="68" id="lnk42"><path codeLine="68" d="M1510.6,202.4894 C1824.2,221.6194 2615.79,278.0594 2861.9,372.6094 C2890.35,383.5394 2913.7495,400.9671 2931.8895,416.6371" fill="none" id="Dataset-to-XsdAnyUri" style="stroke:#404040;stroke-width:1.2;stroke-dasharray:7,7;"/><polygon fill="#404040" points="2936.43,420.5594,2932.2341,411.649,2932.6463,417.2908,2927.0044,417.703,2936.43,420.5594" style="stroke:#404040;stroke-width:1.2;"/><text fill="#000000" font-family="sans-serif" font-size="13" lengthAdjust="spacing" textLength="14.4473" x="2895.9" y="387.1045">url</text></g><?plantuml-src ZLRBRjim4BphAmZdbi96dBON8J3W-144I90qSOi2HGyqjRPPIwHAKdRT8l_U5Qa7vOUSv2Bk3cU7v99ZmqqCP4mDrM225O-0CAvO3EuRajJiI0B979GEz9gBb2gQ4BsYaTnoiIGB6clmCaEbv7QsucmjG6lIxrrxIHPJZFqBY8EDP2mLkVXqbVzZy5Qg2DH-T2g5UUL_WVIlWxSWS1oTGdA7K5tA9nVJoNGocjW27r2-C7p1GP6GtDU37_sVULhG132XZSfNKGGZq4pnr70flDnLh-VID8fudgFnR9VciyUmu0AY6QZ4mYujJ2FrKEzLhR8RtCaJ_5myKB7Cw3Bd_gwZQbH38chWKKOvQUH0k7YezEFtSpQFkLurqzNyJCKkFXIxhufxcPWp43gl_08BK20OUAgP56xj-canP2m_skF0r9N7XJtZwXXFOpW5NSDkYoUkJswaWXZLHmzSh8zHl0LqZdj8cIaQgpDSueRRbh1Vv69Y_uAoGRhT0Udaapi582IfaXji5NN8LOp7F3-dUPOltb4VIRHMEeOFIUGDsmGo1TH8LVRz26-3dIQLLUEDsqJuCEIiHmVWlhStHIjLnH-b04FLxaxHOfyRaJO1JM185Xasb5YMpCzu34Dc-8QRdINs0ssy3Ln8jbJVWG2LzytjhdeiGF4DH5Cb4_TWrECsRXzcgRr0THuuBPRB5s3Ookv4_CXnUjpZ9WeVWsp-2vXvMjIQgojHQAwlIAlc6XQIyegLfDKTifJrZMeXh44XATw8ytKJe3fJa60VpO2j1F-TGQdX6rMSpcDuT1YtQVl10qMNtMvPwW0RairUgAprcbB3QJpvOyg7eH5fgz84uW6vyKZY0uvlSbbXXXOfLQD4CzHMOmyP4bC4zgjyoMYC3LuiprPfXjggx253igAw6SlFAMXsfFSSb9GXeNEPcL9JxMvMZsTsfth-thVasf_FjrFJU8_X6zJEW4kTdf5QeRwntjoWPTAST330dm_3oUVnnug-rniqmAYvCcYFF7VOajYwxNj8BH1DmBDpZzAPSqbQMFLxQ0jeID3dprtcGqi_D-EOjv-Rutbuy1y0?></g></svg>