<svg xmlns="http://www.w3.org/2000/svg" xmlns:xlink="http://www.w3.org/1999/xlink" contentStyleType="text/css" data-diagram-type="CLASS" height="646px" preserveAspectRatio="none" style="width:1649px;height:646px;background:#FFFFFF;" version="1.1" viewBox="0 0 1649 646" width="1649px" zoomAndPan="magnify"><?plantuml 1.2026.3?><defs/><g><g class="title" data-source-line="1"><text fill="#000000" font-family="sans-serif" font-size="14" font-weight="700" lengthAdjust="spacing" textLength="50.5791" x="795.9522" y="24.5332">Dataset</text></g><!--class Dataset--><g class="entity" data-qualified-name="Dataset" data-source-line="15" id="ent0002"><rect fill="#FEFECE" height="297.2344" rx="2.5" ry="2.5" style="stroke:#404040;stroke-width:0.5;" width="258.6816" x="646.1026" y="45.6094"/><text fill="#000000" font-family="sans-serif" font-size="12" lengthAdjust="spacing" textLength="41.3555" x="754.7657" y="63.0664">Dataset</text><line style="stroke:#404040;stroke-width:0.5;" x1="647.1026" x2="903.7843" y1="70.7031" y2="70.7031"/><g data-visibility-modifier="PUBLIC_FIELD"><ellipse cx="657.1026" cy="85.0078" fill="none" rx="3" ry="3" style="stroke:#038048;stroke-width:1;"/></g><text fill="#000000" font-family="sans-serif" font-size="14" lengthAdjust="spacing" textLength="137.7373" x="666.1026" y="89.2363">identifier : Identifier [1]</text><g data-visibility-modifier="PUBLIC_FIELD"><ellipse cx="657.1026" cy="102.6172" fill="none" rx="3" ry="3" style="stroke:#038048;stroke-width:1;"/></g><text fill="#000000" font-family="sans-serif" font-size="14" lengthAdjust="spacing" textLength="100.3789" x="666.1026" y="106.8457">name : string [1]</text><g data-visibility-modifier="PUBLIC_FIELD"><ellipse cx="657.1026" cy="120.2266" fill="none" rx="3" ry="3" style="stroke:#038048;stroke-width:1;"/></g><text fill="#000000" font-family="sans-serif" font-size="14" lengthAdjust="spacing" textLength="148.627" x="666.1026" y="124.4551">description : string [0..1]</text><g data-visibility-modifier="PUBLIC_FIELD"><ellipse cx="657.1026" cy="137.8359" fill="none" rx="3" ry="3" style="stroke:#038048;stroke-width:1;"/></g><text fill="#000000" font-family="sans-serif" font-size="14" lengthAdjust="spacing" textLength="216.3301" x="666.1026" y="142.0645">additionalType : DefinedTerm [0..*]</text><g data-visibility-modifier="PUBLIC_FIELD"><ellipse cx="657.1026" cy="155.4453" fill="none" rx="3" ry="3" style="stroke:#038048;stroke-width:1;"/></g><text fill="#000000" font-family="sans-serif" font-size="14" lengthAdjust="spacing" textLength="148.6201" x="666.1026" y="159.6738">sameAs : Identifier [0..*]</text><g data-visibility-modifier="PUBLIC_FIELD"><ellipse cx="657.1026" cy="173.0547" fill="none" rx="3" ry="3" style="stroke:#038048;stroke-width:1;"/></g><text fill="#000000" font-family="sans-serif" font-size="14" lengthAdjust="spacing" textLength="126.0547" x="666.1026" y="177.2832">version : string [0..1]</text><g data-visibility-modifier="PUBLIC_FIELD"><ellipse cx="657.1026" cy="190.6641" fill="none" rx="3" ry="3" style="stroke:#038048;stroke-width:1;"/></g><text fill="#000000" font-family="sans-serif" font-size="14" lengthAdjust="spacing" textLength="206.2881" x="666.1026" y="194.8926">inLanguage : XsdLanguage [0..1]</text><g data-visibility-modifier="PUBLIC_FIELD"><ellipse cx="657.1026" cy="208.2734" fill="none" rx="3" ry="3" style="stroke:#038048;stroke-width:1;"/></g><text fill="#000000" font-family="sans-serif" font-size="14" lengthAdjust="spacing" textLength="164.9854" x="666.1026" y="212.502">dateModified : XsdDate [1]</text><g data-visibility-modifier="PUBLIC_FIELD"><ellipse cx="657.1026" cy="225.8828" fill="none" rx="3" ry="3" style="stroke:#038048;stroke-width:1;"/></g><text fill="#000000" font-family="sans-serif" font-size="14" lengthAdjust="spacing" textLength="189.123" x="666.1026" y="230.1113">datePublished : XsdDate [0..1]</text><g data-visibility-modifier="PUBLIC_FIELD"><ellipse cx="657.1026" cy="243.4922" fill="none" rx="3" ry="3" style="stroke:#038048;stroke-width:1;"/></g><text fill="#000000" font-family="sans-serif" font-size="14" lengthAdjust="spacing" textLength="128.3789" x="666.1026" y="247.7207">url : XsdAnyUri [0..1]</text><g data-visibility-modifier="PUBLIC_FIELD"><ellipse cx="657.1026" cy="261.1016" fill="none" rx="3" ry="3" style="stroke:#038048;stroke-width:1;"/></g><text fill="#000000" font-family="sans-serif" font-size="14" lengthAdjust="spacing" textLength="152.5234" x="666.1026" y="265.3301">license : Reference [0..*]</text><g data-visibility-modifier="PUBLIC_FIELD"><ellipse cx="657.1026" cy="278.7109" fill="none" rx="3" ry="3" style="stroke:#038048;stroke-width:1;"/></g><text fill="#000000" font-family="sans-serif" font-size="14" lengthAdjust="spacing" textLength="231.8887" x="666.1026" y="282.9395">conditionsOfAccess : Reference [0..*]</text><g data-visibility-modifier="PUBLIC_FIELD"><ellipse cx="657.1026" cy="296.3203" fill="none" rx="3" ry="3" style="stroke:#038048;stroke-width:1;"/></g><text fill="#000000" font-family="sans-serif" font-size="14" lengthAdjust="spacing" textLength="232.6816" x="666.1026" y="300.5488">publishingPrinciples : Reference [0..*]</text><g data-visibility-modifier="PUBLIC_FIELD"><ellipse cx="657.1026" cy="313.9297" fill="none" rx="3" ry="3" style="stroke:#038048;stroke-width:1;"/></g><text fill="#000000" font-family="sans-serif" font-size="14" lengthAdjust="spacing" textLength="184.3994" x="666.1026" y="318.1582">keywords : DefinedTerm [0..*]</text><g data-visibility-modifier="PUBLIC_FIELD"><ellipse cx="657.1026" cy="331.5391" fill="none" rx="3" ry="3" style="stroke:#038048;stroke-width:1;"/></g><text fill="#000000" font-family="sans-serif" font-size="14" lengthAdjust="spacing" textLength="177.4336" x="666.1026" y="335.7676">relatedLink : Reference [0..*]</text></g><!--class Agent--><g class="entity" data-qualified-name="Agent" data-source-line="32" id="ent0003"><rect fill="#EEEEEE" height="25.0938" rx="2.5" ry="2.5" style="stroke:#404040;stroke-width:0.5;" width="37.3594" x="23.1026" y="600.1094"/><text fill="#000000" font-family="sans-serif" font-size="12" font-style="italic" lengthAdjust="spacing" textLength="31.3594" x="26.1026" y="617.5664">Agent</text></g><!--class AbstractDistribution--><g class="entity" data-qualified-name="AbstractDistribution" data-source-line="34" id="ent0005"><rect fill="#EEEEEE" height="25.0938" rx="2.5" ry="2.5" style="stroke:#404040;stroke-width:0.5;" width="110.0391" x="80.6026" y="600.1094"/><text fill="#000000" font-family="sans-serif" font-size="12" font-style="italic" lengthAdjust="spacing" textLength="104.0391" x="83.6026" y="617.5664">AbstractDistribution</text></g><!--class Contributor--><g class="entity" data-qualified-name="Contributor" data-source-line="37" id="ent0008"><rect fill="#EEEEEE" height="25.0938" rx="2.5" ry="2.5" style="stroke:#404040;stroke-width:0.5;" width="65.3613" x="211.1026" y="600.1094"/><text fill="#000000" font-family="sans-serif" font-size="12" lengthAdjust="spacing" textLength="59.3613" x="214.1026" y="617.5664">Contributor</text></g><!--class MonetaryGrant--><g class="entity" data-qualified-name="MonetaryGrant" data-source-line="40" id="ent0011"><rect fill="#EEEEEE" height="25.0938" rx="2.5" ry="2.5" style="stroke:#404040;stroke-width:0.5;" width="86.0332" x="296.6026" y="600.1094"/><text fill="#000000" font-family="sans-serif" font-size="12" lengthAdjust="spacing" textLength="80.0332" x="299.6026" y="617.5664">MonetaryGrant</text></g><!--class ProvActivity--><g class="entity" data-qualified-name="ProvActivity" data-source-line="42" id="ent0013"><rect fill="#EEEEEE" height="25.0938" rx="2.5" ry="2.5" style="stroke:#404040;stroke-width:0.5;" width="68.6777" x="403.1026" y="600.1094"/><text fill="#000000" font-family="sans-serif" font-size="12" lengthAdjust="spacing" textLength="62.6777" x="406.1026" y="617.5664">ProvActivity</text></g><!--class DerivedFrom--><g class="entity" data-qualified-name="DerivedFrom" data-source-line="44" id="ent0015"><rect fill="#EEEEEE" height="25.0938" rx="2.5" ry="2.5" style="stroke:#404040;stroke-width:0.5;" width="75.3457" x="492.1026" y="600.1094"/><text fill="#000000" font-family="sans-serif" font-size="12" lengthAdjust="spacing" textLength="69.3457" x="495.1026" y="617.5664">DerivedFrom</text></g><!--class CatalogRecord--><g class="entity" data-qualified-name="CatalogRecord" data-source-line="46" id="ent0017"><rect fill="#EEEEEE" height="25.0938" rx="2.5" ry="2.5" style="stroke:#404040;stroke-width:0.5;" width="86.0449" x="587.6026" y="600.1094"/><text fill="#000000" font-family="sans-serif" font-size="12" lengthAdjust="spacing" textLength="80.0449" x="590.6026" y="617.5664">CatalogRecord</text></g><!--class DefinedTerm--><g class="entity" data-qualified-name="DefinedTerm" data-source-line="48" id="ent0019"><rect fill="#EEEEEE" height="25.0938" rx="2.5" ry="2.5" style="stroke:#404040;stroke-width:0.5;" width="75.3574" x="694.1026" y="600.1094"/><text fill="#000000" font-family="sans-serif" font-size="12" lengthAdjust="spacing" textLength="69.3574" x="697.1026" y="617.5664">DefinedTerm</text></g><!--class Reference--><g class="entity" data-qualified-name="Reference" data-source-line="50" id="ent0021"><rect fill="#EEEEEE" height="25.0938" rx="2.5" ry="2.5" style="stroke:#404040;stroke-width:0.5;" width="61.3652" x="789.1026" y="600.1094"/><text fill="#000000" font-family="sans-serif" font-size="12" lengthAdjust="spacing" textLength="55.3652" x="792.1026" y="617.5664">Reference</text></g><!--class VariableMeasured--><g class="entity" data-qualified-name="VariableMeasured" data-source-line="53" id="ent0024"><rect fill="#EEEEEE" height="25.0938" rx="2.5" ry="2.5" style="stroke:#404040;stroke-width:0.5;" width="103.3887" x="870.1026" y="600.1094"/><text fill="#000000" font-family="sans-serif" font-size="12" lengthAdjust="spacing" textLength="97.3887" x="873.1026" y="617.5664">VariableMeasured</text></g><!--class SpatialExtent--><g class="entity" data-qualified-name="SpatialExtent" data-source-line="55" id="ent0026"><rect fill="#EEEEEE" height="25.0938" rx="2.5" ry="2.5" style="stroke:#404040;stroke-width:0.5;" width="76.7109" x="993.1026" y="600.1094"/><text fill="#000000" font-family="sans-serif" font-size="12" lengthAdjust="spacing" textLength="70.7109" x="996.1026" y="617.5664">SpatialExtent</text></g><!--class TemporalExtent--><g class="entity" data-qualified-name="TemporalExtent" data-source-line="57" id="ent0028"><rect fill="#EEEEEE" height="25.0938" rx="2.5" ry="2.5" style="stroke:#404040;stroke-width:0.5;" width="90.7031" x="1090.1026" y="600.1094"/><text fill="#000000" font-family="sans-serif" font-size="12" lengthAdjust="spacing" textLength="84.7031" x="1093.1026" y="617.5664">TemporalExtent</text></g><!--class QualityMeasure--><g class="entity" data-qualified-name="QualityMeasure" data-source-line="59" id="ent0030"><rect fill="#EEEEEE" height="25.0938" rx="2.5" ry="2.5" style="stroke:#404040;stroke-width:0.5;" width="90.0352" x="1201.6026" y="600.1094"/><text fill="#000000" font-family="sans-serif" font-size="12" lengthAdjust="spacing" textLength="84.0352" x="1204.6026" y="617.5664">QualityMeasure</text></g><!--class Identifier--><g class="entity" data-qualified-name="Identifier" data-source-line="62" id="ent0033"><rect fill="#EEEEEE" height="25.0938" rx="2.5" ry="2.5" style="stroke:#404040;stroke-width:0.5;" width="52.0254" x="1311.6026" y="600.1094"/><text fill="#000000" font-family="sans-serif" font-size="12" lengthAdjust="spacing" textLength="46.0254" x="1314.6026" y="617.5664">Identifier</text></g><!--class XsdLanguage--><g class="entity" data-qualified-name="XsdLanguage" data-source-line="66" id="ent0037"><rect fill="#FAE5D3" height="40.1875" rx="2.5" ry="2.5" style="stroke:#404040;stroke-width:0.5;" width="80.0684" x="1383.6026" y="592.6094"/><text fill="#000000" font-family="sans-serif" font-size="12" font-style="italic" lengthAdjust="spacing" textLength="63.3809" x="1391.9464" y="610.0664">&#171;dataType&#187;</text><text fill="#000000" font-family="sans-serif" font-size="12" lengthAdjust="spacing" textLength="74.0684" x="1386.6026" y="625.1602">XsdLanguage</text></g><!--class XsdDate--><g class="entity" data-qualified-name="XsdDate" data-source-line="68" id="ent0039"><rect fill="#FAE5D3" height="40.1875" rx="2.5" ry="2.5" style="stroke:#404040;stroke-width:0.5;" width="65.3809" x="1484.1026" y="592.6094"/><text fill="#000000" font-family="sans-serif" font-size="12" font-style="italic" lengthAdjust="spacing" textLength="63.3809" x="1485.1026" y="610.0664">&#171;dataType&#187;</text><text fill="#000000" font-family="sans-serif" font-size="12" lengthAdjust="spacing" textLength="46.0254" x="1493.7804" y="625.1602">XsdDate</text></g><!--class XsdAnyUri--><g class="entity" data-qualified-name="XsdAnyUri" data-source-line="70" id="ent0041"><rect fill="#FAE5D3" height="40.1875" rx="2.5" ry="2.5" style="stroke:#404040;stroke-width:0.5;" width="65.3809" x="1569.1026" y="592.6094"/><text fill="#000000" font-family="sans-serif" font-size="12" font-style="italic" lengthAdjust="spacing" textLength="63.3809" x="1570.1026" y="610.0664">&#171;dataType&#187;</text><text fill="#000000" font-family="sans-serif" font-size="12" lengthAdjust="spacing" textLength="56.6836" x="1573.4513" y="625.1602">XsdAnyUri</text></g><!--link Dataset to Agent--><g class="link" data-entity-1="ent0002" data-entity-2="ent0003" data-link-type="dependency" data-source-line="33" id="lnk4"><path codeLine="33" d="M646.0326,144.6094 C437.5726,144.6094 50.8526,144.6094 50.8526,144.6094 C50.8526,144.6094 50.8526,519.6694 50.8526,594.0894" fill="none" id="Dataset-to-Agent" style="stroke:#404040;stroke-width:1.2;"/><polygon fill="#404040" points="50.8526,600.0894,54.8526,591.0894,50.8526,595.0894,46.8526,591.0894,50.8526,600.0894" style="stroke:#404040;stroke-width:1.2;"/><text fill="#000000" font-family="sans-serif" font-size="13" lengthAdjust="spacing" textLength="46.9663" x="73.7026" y="141.1045">provider</text><text fill="#000000" font-family="sans-serif" font-size="13" lengthAdjust="spacing" textLength="19.5127" x="58.6186" y="589.1732">0..*</text></g><!--link Dataset to Agent--><g class="link" data-entity-1="ent0002" data-entity-2="ent0003" data-link-type="dependency" data-source-line="36" id="lnk7"><path codeLine="36" d="M645.7126,78.6094 C432.6626,78.6094 32.3526,78.6094 32.3526,78.6094 C32.3526,78.6094 32.3526,513.0694 32.3526,593.9394" fill="none" id="Dataset-to-Agent-1" style="stroke:#404040;stroke-width:1.2;"/><polygon fill="#404040" points="32.3526,599.9394,36.3526,590.9394,32.3526,594.9394,28.3526,590.9394,32.3526,599.9394" style="stroke:#404040;stroke-width:1.2;"/><text fill="#000000" font-family="sans-serif" font-size="13" lengthAdjust="spacing" textLength="40.46" x="37.3726" y="75.1045">creator</text><text fill="#000000" font-family="sans-serif" font-size="13" lengthAdjust="spacing" textLength="19.5127" x="6" y="589.3464">0..*</text></g><!--link Dataset to Agent--><g class="link" data-entity-1="ent0002" data-entity-2="ent0003" data-link-type="dependency" data-source-line="39" id="lnk10"><path codeLine="39" d="M646.0726,111.6094 C435.3526,111.6094 41.6026,111.6094 41.6026,111.6094 C41.6026,111.6094 41.6026,516.1894 41.6026,593.9794" fill="none" id="Dataset-to-Agent-2" style="stroke:#404040;stroke-width:1.2;"/><polygon fill="#404040" points="41.6026,599.9794,45.6026,590.9794,41.6026,594.9794,37.6026,590.9794,41.6026,599.9794" style="stroke:#404040;stroke-width:1.2;"/><text fill="#000000" font-family="sans-serif" font-size="13" lengthAdjust="spacing" textLength="52.7554" x="46.6526" y="108.1045">publisher</text><text fill="#000000" font-family="sans-serif" font-size="13" lengthAdjust="spacing" textLength="21.6836" x="46.0007" y="589.0178">0..1</text></g><!--link Dataset to AbstractDistribution--><g class="link" data-entity-1="ent0002" data-entity-2="ent0005" data-link-type="dependency" data-source-line="35" id="lnk6"><path codeLine="35" d="M646.0926,177.6094 C459.0826,177.6094 135.6026,177.6094 135.6026,177.6094 C135.6026,177.6094 135.6026,522.7394 135.6026,594.0594" fill="none" id="Dataset-to-AbstractDistribution" style="stroke:#404040;stroke-width:1.2;"/><polygon fill="#404040" points="135.6026,600.0594,139.6026,591.0594,135.6026,595.0594,131.6026,591.0594,135.6026,600.0594" style="stroke:#404040;stroke-width:1.2;"/><text fill="#000000" font-family="sans-serif" font-size="13" lengthAdjust="spacing" textLength="62.8672" x="116.6226" y="174.1045">distribution</text><text fill="#000000" font-family="sans-serif" font-size="13" lengthAdjust="spacing" textLength="19.5127" x="112.7816" y="589.1308">0..*</text></g><!--link Dataset to Contributor--><g class="link" data-entity-1="ent0002" data-entity-2="ent0008" data-link-type="dependency" data-source-line="38" id="lnk9"><path codeLine="38" d="M645.8026,210.6094 C488.3126,210.6094 243.6026,210.6094 243.6026,210.6094 C243.6026,210.6094 243.6026,524.8794 243.6026,593.6894" fill="none" id="Dataset-to-Contributor" style="stroke:#404040;stroke-width:1.2;"/><polygon fill="#404040" points="243.6026,599.6894,247.6026,590.6894,243.6026,594.6894,239.6026,590.6894,243.6026,599.6894" style="stroke:#404040;stroke-width:1.2;"/><text fill="#000000" font-family="sans-serif" font-size="13" lengthAdjust="spacing" textLength="61.4199" x="188.1626" y="207.1045">contributor</text><text fill="#000000" font-family="sans-serif" font-size="13" lengthAdjust="spacing" textLength="19.5127" x="221.0096" y="589.2579">0..*</text></g><!--link Dataset to MonetaryGrant--><g class="link" data-entity-1="ent0002" data-entity-2="ent0011" data-link-type="dependency" data-source-line="41" id="lnk12"><path codeLine="41" d="M645.9726,243.6094 C517.4526,243.6094 339.6026,243.6094 339.6026,243.6094 C339.6026,243.6094 339.6026,529.0194 339.6026,593.9094" fill="none" id="Dataset-to-MonetaryGrant" style="stroke:#404040;stroke-width:1.2;"/><polygon fill="#404040" points="339.6026,599.9094,343.6026,590.9094,339.6026,594.9094,335.6026,590.9094,339.6026,599.9094" style="stroke:#404040;stroke-width:1.2;"/><text fill="#000000" font-family="sans-serif" font-size="13" lengthAdjust="spacing" textLength="42.6499" x="296.6026" y="265.0745">funding</text><text fill="#000000" font-family="sans-serif" font-size="13" lengthAdjust="spacing" textLength="19.5127" x="316.9564" y="589.3046">0..*</text></g><!--link Dataset to ProvActivity--><g class="link" data-entity-1="ent0002" data-entity-2="ent0013" data-link-type="dependency" data-source-line="43" id="lnk14"><path codeLine="43" d="M645.8926,276.6094 C550.5726,276.6094 437.6026,276.6094 437.6026,276.6094 C437.6026,276.6094 437.6026,532.4694 437.6026,593.8494" fill="none" id="Dataset-to-ProvActivity" style="stroke:#404040;stroke-width:1.2;"/><polygon fill="#404040" points="437.6026,599.8494,441.6026,590.8494,437.6026,594.8494,433.6026,590.8494,437.6026,599.8494" style="stroke:#404040;stroke-width:1.2;"/><text fill="#000000" font-family="sans-serif" font-size="13" lengthAdjust="spacing" textLength="99.7217" x="337.6026" y="330.5845">wasGeneratedBy</text><text fill="#000000" font-family="sans-serif" font-size="13" lengthAdjust="spacing" textLength="19.5127" x="415.0264" y="589.221">0..*</text></g><!--link Dataset to DerivedFrom--><g class="link" data-entity-1="ent0002" data-entity-2="ent0015" data-link-type="dependency" data-source-line="45" id="lnk16"><path codeLine="45" d="M645.7626,309.6094 C586.6226,309.6094 529.6026,309.6094 529.6026,309.6094 C529.6026,309.6094 529.6026,536.6294 529.6026,593.9794" fill="none" id="Dataset-to-DerivedFrom" style="stroke:#404040;stroke-width:1.2;"/><polygon fill="#404040" points="529.6026,599.9794,533.6026,590.9794,529.6026,594.9794,525.6026,590.9794,529.6026,599.9794" style="stroke:#404040;stroke-width:1.2;"/><text fill="#000000" font-family="sans-serif" font-size="13" lengthAdjust="spacing" textLength="98.2427" x="430.6026" y="393.2045">wasDerivedFrom</text><text fill="#000000" font-family="sans-serif" font-size="13" lengthAdjust="spacing" textLength="19.5127" x="506.7183" y="589.0178">0..*</text></g><!--link Dataset to CatalogRecord--><g class="link" data-entity-1="ent0002" data-entity-2="ent0017" data-link-type="dependency" data-source-line="47" id="lnk18"><path codeLine="47" d="M664.4326,342.8394 C664.4326,442.2194 664.4326,555.5194 664.4326,593.9994" fill="none" id="Dataset-to-CatalogRecord" style="stroke:#404040;stroke-width:1.2;"/><polygon fill="#404040" points="664.4326,599.9994,668.4326,590.9994,664.4326,594.9994,660.4326,590.9994,664.4326,599.9994" style="stroke:#404040;stroke-width:1.2;"/><text fill="#000000" font-family="sans-serif" font-size="13" lengthAdjust="spacing" textLength="54.9136" x="609.4326" y="467.9145">subjectOf</text><text fill="#000000" font-family="sans-serif" font-size="13" lengthAdjust="spacing" textLength="7.23" x="669.9819" y="589.046">1</text></g><!--link CatalogRecord to Dataset--><g class="link" data-entity-1="ent0017" data-entity-2="ent0002" data-link-type="dependency" data-source-line="61" id="lnk32"><path codeLine="61" d="M655.2726,600.0894 C655.2726,561.6994 655.2726,448.2594 655.2726,348.7994" fill="none" id="CatalogRecord-to-Dataset" style="stroke:#404040;stroke-width:1.2;"/><polygon fill="#404040" points="655.2726,342.7994,651.2726,351.7994,655.2726,347.7994,659.2726,351.7994,655.2726,342.7994" style="stroke:#404040;stroke-width:1.2;"/><text fill="#000000" font-family="sans-serif" font-size="13" lengthAdjust="spacing" textLength="32.5317" x="622.2726" y="485.9345">about</text><text fill="#000000" font-family="sans-serif" font-size="13" lengthAdjust="spacing" textLength="21.6836" x="627.5525" y="364.3768">0..1</text></g><!--link Dataset to DefinedTerm--><g class="link" data-entity-1="ent0002" data-entity-2="ent0019" data-link-type="dependency" data-source-line="49" id="lnk20"><path codeLine="49" d="M712.8526,342.8394 C712.8526,442.2194 712.8526,555.5194 712.8526,593.9994" fill="none" id="Dataset-to-DefinedTerm" style="stroke:#404040;stroke-width:1.2;"/><polygon fill="#404040" points="712.8526,599.9994,716.8526,590.9994,712.8526,594.9994,708.8526,590.9994,712.8526,599.9994" style="stroke:#404040;stroke-width:1.2;"/><text fill="#000000" font-family="sans-serif" font-size="13" lengthAdjust="spacing" textLength="54.9072" x="657.8526" y="485.9145">keywords</text><text fill="#000000" font-family="sans-serif" font-size="13" lengthAdjust="spacing" textLength="19.5127" x="682.2315" y="589.046">0..*</text></g><!--link Dataset to DefinedTerm--><g class="link" data-entity-1="ent0002" data-entity-2="ent0019" data-link-type="dependency" data-source-line="52" id="lnk23"><path codeLine="52" d="M750.3526,342.8394 C750.3526,442.2194 750.3526,555.5194 750.3526,593.9994" fill="none" id="Dataset-to-DefinedTerm-1" style="stroke:#404040;stroke-width:1.2;"/><polygon fill="#404040" points="750.3526,599.9994,754.3526,590.9994,750.3526,594.9994,746.3526,590.9994,750.3526,599.9994" style="stroke:#404040;stroke-width:1.2;"/><text fill="#000000" font-family="sans-serif" font-size="13" lengthAdjust="spacing" textLength="140.188" x="751.3526" y="467.9145">measurementTechnique</text><text fill="#000000" font-family="sans-serif" font-size="13" lengthAdjust="spacing" textLength="19.5127" x="735.2003" y="589.046">0..*</text></g><!--link Dataset to DefinedTerm--><g class="link" data-entity-1="ent0002" data-entity-2="ent0019" data-link-type="dependency" data-source-line="64" id="lnk35"><path codeLine="64" d="M731.6026,342.8394 C731.6026,442.2194 731.6026,555.5194 731.6026,593.9994" fill="none" id="Dataset-to-DefinedTerm-2" style="stroke:#404040;stroke-width:1.2;"/><polygon fill="#404040" points="731.6026,599.9994,735.6026,590.9994,731.6026,594.9994,727.6026,590.9994,731.6026,599.9994" style="stroke:#404040;stroke-width:1.2;"/><text fill="#000000" font-family="sans-serif" font-size="13" lengthAdjust="spacing" textLength="84.5571" x="732.6026" y="485.9145">additionalType</text><text fill="#000000" font-family="sans-serif" font-size="13" lengthAdjust="spacing" textLength="19.5127" x="708.7159" y="589.046">0..*</text></g><!--link Dataset to Reference--><g class="link" data-entity-1="ent0002" data-entity-2="ent0021" data-link-type="dependency" data-source-line="51" id="lnk22"><path codeLine="51" d="M825.7026,342.8394 C825.7026,442.2194 825.7026,555.5194 825.7026,593.9994" fill="none" id="Dataset-to-Reference" style="stroke:#404040;stroke-width:1.2;"/><polygon fill="#404040" points="825.7026,599.9994,829.7026,590.9994,825.7026,594.9994,821.7026,590.9994,825.7026,599.9994" style="stroke:#404040;stroke-width:1.2;"/><text fill="#000000" font-family="sans-serif" font-size="13" lengthAdjust="spacing" textLength="40.4663" x="826.7026" y="485.9145">license</text><text fill="#000000" font-family="sans-serif" font-size="13" lengthAdjust="spacing" textLength="19.5127" x="805.3305" y="589.046">0..*</text></g><!--link Dataset to Reference--><g class="link" data-entity-1="ent0002" data-entity-2="ent0021" data-link-type="dependency" data-source-line="72" id="lnk43"><path codeLine="72" d="M837.9026,342.8394 C837.9026,442.2194 837.9026,555.5194 837.9026,593.9994" fill="none" id="Dataset-to-Reference-1" style="stroke:#404040;stroke-width:1.2;"/><polygon fill="#404040" points="837.9026,599.9994,841.9026,590.9994,837.9026,594.9994,833.9026,590.9994,837.9026,599.9994" style="stroke:#404040;stroke-width:1.2;"/><text fill="#000000" font-family="sans-serif" font-size="13" lengthAdjust="spacing" textLength="114.1626" x="838.9026" y="485.9145">conditionsOfAccess</text><text fill="#000000" font-family="sans-serif" font-size="13" lengthAdjust="spacing" textLength="19.5127" x="849.4005" y="589.046">0..*</text></g><!--link Dataset to Reference--><g class="link" data-entity-1="ent0002" data-entity-2="ent0021" data-link-type="dependency" data-source-line="73" id="lnk44"><path codeLine="73" d="M813.5026,342.8394 C813.5026,442.2194 813.5026,555.5194 813.5026,593.9994" fill="none" id="Dataset-to-Reference-2" style="stroke:#404040;stroke-width:1.2;"/><polygon fill="#404040" points="813.5026,599.9994,817.5026,590.9994,813.5026,594.9994,809.5026,590.9994,813.5026,599.9994" style="stroke:#404040;stroke-width:1.2;"/><text fill="#000000" font-family="sans-serif" font-size="13" lengthAdjust="spacing" textLength="114.8989" x="698.5026" y="467.9145">publishingPrinciples</text><text fill="#000000" font-family="sans-serif" font-size="13" lengthAdjust="spacing" textLength="19.5127" x="788.098" y="589.046">0..*</text></g><!--link Dataset to Reference--><g class="link" data-entity-1="ent0002" data-entity-2="ent0021" data-link-type="dependency" data-source-line="74" id="lnk45"><path codeLine="74" d="M801.3026,342.8394 C801.3026,442.2194 801.3026,555.5194 801.3026,593.9994" fill="none" id="Dataset-to-Reference-3" style="stroke:#404040;stroke-width:1.2;"/><polygon fill="#404040" points="801.3026,599.9994,805.3026,590.9994,801.3026,594.9994,797.3026,590.9994,801.3026,599.9994" style="stroke:#404040;stroke-width:1.2;"/><text fill="#000000" font-family="sans-serif" font-size="13" lengthAdjust="spacing" textLength="63.5972" x="737.3026" y="485.9145">relatedLink</text><text fill="#000000" font-family="sans-serif" font-size="13" lengthAdjust="spacing" textLength="19.5127" x="770.8655" y="589.046">0..*</text></g><!--reverse link Dataset to VariableMeasured--><g class="link" data-entity-1="ent0002" data-entity-2="ent0024" data-link-type="composition" data-source-line="54" id="lnk25"><path codeLine="54" d="M881.7726,354.8394 C881.7726,454.2194 881.7726,561.5194 881.7726,599.9994" fill="none" id="Dataset-backto-VariableMeasured" style="stroke:#404040;stroke-width:1.2;"/><polygon fill="#404040" points="881.7726,342.8394,877.7726,348.8394,881.7726,354.8394,885.7726,348.8394,881.7726,342.8394" style="stroke:#404040;stroke-width:1.2;"/><text fill="#000000" font-family="sans-serif" font-size="13" lengthAdjust="spacing" textLength="103.3335" x="882.7726" y="467.9145">variableMeasured</text><text fill="#000000" font-family="sans-serif" font-size="13" lengthAdjust="spacing" textLength="19.5127" x="842.4496" y="589.046">0..*</text></g><!--reverse link Dataset to SpatialExtent--><g class="link" data-entity-1="ent0002" data-entity-2="ent0026" data-link-type="composition" data-source-line="56" id="lnk27"><path codeLine="56" d="M917.4726,305.6094 C980.8426,305.6094 1031.6026,305.6094 1031.6026,305.6094 C1031.6026,305.6094 1031.6026,541.7094 1031.6026,599.8094" fill="none" id="Dataset-backto-SpatialExtent" style="stroke:#404040;stroke-width:1.2;"/><polygon fill="#404040" points="905.4726,305.6094,911.4726,309.6094,917.4726,305.6094,911.4726,301.6094,905.4726,305.6094" style="stroke:#404040;stroke-width:1.2;"/><text fill="#000000" font-family="sans-serif" font-size="13" lengthAdjust="spacing" textLength="93.9453" x="937.6026" y="386.1445">spatialCoverage</text><text fill="#000000" font-family="sans-serif" font-size="13" lengthAdjust="spacing" textLength="19.5127" x="1009.0198" y="589.1652">0..*</text></g><!--reverse link Dataset to TemporalExtent--><g class="link" data-entity-1="ent0002" data-entity-2="ent0028" data-link-type="composition" data-source-line="58" id="lnk29"><path codeLine="58" d="M917.3126,268.6094 C1020.4826,268.6094 1135.6026,268.6094 1135.6026,268.6094 C1135.6026,268.6094 1135.6026,537.8994 1135.6026,599.9594" fill="none" id="Dataset-backto-TemporalExtent" style="stroke:#404040;stroke-width:1.2;"/><polygon fill="#404040" points="905.3126,268.6094,911.3126,272.6094,917.3126,268.6094,911.3126,264.6094,905.3126,268.6094" style="stroke:#404040;stroke-width:1.2;"/><text fill="#000000" font-family="sans-serif" font-size="13" lengthAdjust="spacing" textLength="106.9453" x="1028.6026" y="315.6345">temporalCoverage</text><text fill="#000000" font-family="sans-serif" font-size="13" lengthAdjust="spacing" textLength="19.5127" x="1113.0214" y="589.3743">0..*</text></g><!--reverse link Dataset to QualityMeasure--><g class="link" data-entity-1="ent0002" data-entity-2="ent0030" data-link-type="composition" data-source-line="60" id="lnk31"><path codeLine="60" d="M917.2426,231.6094 C1056.6626,231.6094 1246.6026,231.6094 1246.6026,231.6094 C1246.6026,231.6094 1246.6026,533.8194 1246.6026,599.9294" fill="none" id="Dataset-backto-QualityMeasure" style="stroke:#404040;stroke-width:1.2;"/><polygon fill="#404040" points="905.2426,231.6094,911.2426,235.6094,917.2426,231.6094,911.2426,227.6094,905.2426,231.6094" style="stroke:#404040;stroke-width:1.2;"/><text fill="#000000" font-family="sans-serif" font-size="13" lengthAdjust="spacing" textLength="140.8989" x="1105.6026" y="241.5845">hasQualityMeasurement</text><text fill="#000000" font-family="sans-serif" font-size="13" lengthAdjust="spacing" textLength="19.5127" x="1223.956" y="589.3325">0..*</text></g><!--link Dataset to Identifier--><g class="link" data-entity-1="ent0002" data-entity-2="ent0033" data-link-type="dependency" data-source-line="63" id="lnk34"><path codeLine="63" d="M905.4526,157.6094 C1073.8526,157.6094 1346.2726,157.6094 1346.2726,157.6094 C1346.2726,157.6094 1346.2726,520.4794 1346.2726,593.9694" fill="none" id="Dataset-to-Identifier" style="stroke:#404040;stroke-width:1.2;"/><polygon fill="#404040" points="1346.2726,599.9694,1350.2726,590.9694,1346.2726,594.9694,1342.2726,590.9694,1346.2726,599.9694" style="stroke:#404040;stroke-width:1.2;"/><text fill="#000000" font-family="sans-serif" font-size="13" lengthAdjust="spacing" textLength="49.1372" x="1296.2726" y="154.8745">identifier</text><text fill="#000000" font-family="sans-serif" font-size="13" lengthAdjust="spacing" textLength="7.23" x="1341.4474" y="589.0037">1</text></g><!--link Dataset to Identifier--><g class="link" data-entity-1="ent0002" data-entity-2="ent0033" data-link-type="dependency" data-source-line="65" id="lnk36"><path codeLine="65" d="M905.3326,194.6094 C1068.8826,194.6094 1328.9326,194.6094 1328.9326,194.6094 C1328.9326,194.6094 1328.9326,524.5494 1328.9326,594.0994" fill="none" id="Dataset-to-Identifier-1" style="stroke:#404040;stroke-width:1.2;"/><polygon fill="#404040" points="1328.9326,600.0994,1332.9326,591.0994,1328.9326,595.0994,1324.9326,591.0994,1328.9326,600.0994" style="stroke:#404040;stroke-width:1.2;"/><text fill="#000000" font-family="sans-serif" font-size="13" lengthAdjust="spacing" textLength="46.96" x="1272.8826" y="191.1045">sameAs</text><text fill="#000000" font-family="sans-serif" font-size="13" lengthAdjust="spacing" textLength="19.5127" x="1302.538" y="589.1873">0..*</text></g><!--link Dataset to XsdLanguage--><g class="link" data-entity-1="ent0002" data-entity-2="ent0037" data-link-type="dependency" data-source-line="67" id="lnk38"><path codeLine="67" d="M893.4326,342.8394 C893.4326,457.4994 893.4326,596.6094 893.4326,596.6094 C893.4326,596.6094 1253.5926,596.6094 1377.3226,596.6094" fill="none" id="Dataset-to-XsdLanguage" style="stroke:#404040;stroke-width:1.2;stroke-dasharray:7,7;"/><polygon fill="#404040" points="1383.3226,596.6094,1374.3226,592.6094,1378.3226,596.6094,1374.3226,600.6094,1383.3226,596.6094" style="stroke:#404040;stroke-width:1.2;"/><text fill="#000000" font-family="sans-serif" font-size="13" lengthAdjust="spacing" textLength="67.958" x="943.4926" y="593.1045">inLanguage</text></g><!--link Dataset to XsdDate--><g class="link" data-entity-1="ent0002" data-entity-2="ent0039" data-link-type="dependency" data-source-line="69" id="lnk40"><path codeLine="69" d="M905.5226,120.6094 C1118.0426,120.6094 1516.6026,120.6094 1516.6026,120.6094 C1516.6026,120.6094 1516.6026,493.8194 1516.6026,586.4094" fill="none" id="Dataset-to-XsdDate" style="stroke:#404040;stroke-width:1.2;stroke-dasharray:7,7;"/><polygon fill="#404040" points="1516.6026,592.4094,1520.6026,583.4094,1516.6026,587.4094,1512.6026,583.4094,1516.6026,592.4094" style="stroke:#404040;stroke-width:1.2;"/><text fill="#000000" font-family="sans-serif" font-size="13" lengthAdjust="spacing" textLength="74.439" x="1371.9626" y="117.1045">dateModified</text></g><!--link Dataset to XsdAnyUri--><g class="link" data-entity-1="ent0002" data-entity-2="ent0041" data-link-type="dependency" data-source-line="71" id="lnk42"><path codeLine="71" d="M905.1226,83.6094 C1137.5826,83.6094 1601.6026,83.6094 1601.6026,83.6094 C1601.6026,83.6094 1601.6026,489.8894 1601.6026,586.5194" fill="none" id="Dataset-to-XsdAnyUri" style="stroke:#404040;stroke-width:1.2;stroke-dasharray:7,7;"/><polygon fill="#404040" points="1601.6026,592.5194,1605.6026,583.5194,1601.6026,587.5194,1597.6026,583.5194,1601.6026,592.5194" style="stroke:#404040;stroke-width:1.2;"/><text fill="#000000" font-family="sans-serif" font-size="13" lengthAdjust="spacing" textLength="14.4473" x="1492.8126" y="80.1045">url</text></g><?plantuml-src ZLR9Rjim4BthAmZdbi96d3ON8J3WU0a294ZQk4M1eWUQ6jki9L8bARjkaN_lYDH2UP6JNCIPnpSBXtmstCH0njHG3IPOyGW8uuh5uBuXISsE993CGUb0hxb8gQ89qIiQoIqNIxAWiGRFCrHARcShpjO2j2RzthNdL5IiDQJa-kRAimePWRNwnfWBCBiKY5Hc9Jq7Yodo_Wk82pMIiLJaujDL_e_6EwaYKFlMgHJcbVy5qhyEteB0SNIAiZk4wh85v68wcKv64nlW0xP06BxWe4X87kh5Z_xFt2re0kZGHkMTA8nO2rCyDLmAptVLwpatZIAU-sWyowiBoHWMM6eq0vLOsAM5QQGUwhsebNU3ft62duj7AfOPNURSttLKhMf8H0qyoIWdZHm8YuSgV_n-oUOnrwkckzgVgTZPXsBtLN7F4tC6GkUHly0250W6NjPC2bUxVbuC6Sl7upWmTU6ni1UiZl4qXbFGDUosUEBwP2CLn9XzzCZ5-XZ5Mq3ds4FAJ35OdU4I6sv7mdwHYudz2ye1wNO7f9DlxXI0aAHARd1Kr25NiHxp_9pcMLwyepxYQ8rq31-Io5ks9SWKK2DLEVSZl0rscrGs6s_TbeGFGyvwTG3kUxqfHgaA_YJnObErkyV7mFMvOMbBe0aCoIB3WHBBala5Zs783DzmixF4lg6Dju4BoPRgUn2WyhcvsrMF1IY-WMYgPE8UZ7hTnkt3BBLdgCu3jyLo-GKOZh8x4Tzod1vxt4JXOv3DVm4ppuiwv-fA53dNLwGrvneMalAAbQJL7RAKzOrg8Qn18IdUYFDn4w0wKv3W7Cs0hGJ_dK6PmpUgE9t7yEGmhcdxneECBhlTCjG1DYIRFLCPwpMbXjDuyiUK3qF3qXQb2SG3SkkHn0SSt-GomWnbLgf6YAQfBSOUCYIcCEn7-PpH60UyACz6QPhQekmXGxAYkcdBpobeJgJt79IK8Q5pcPaofrhTR3wUs9sQ-GTVacjzFZzEJU4zXczGEm4ky_I4r2Rg2-ljBKecpKa70_pvC9pSZ3zMzBtUe076d2k1ziXpXIs9hTg-XzG2KGGyEVSedJYNf8LKluUsW8O4TVxSPJwKz7CxZcdxkJsUXWV_0G00?></g></svg>