<svg xmlns="http://www.w3.org/2000/svg" xmlns:xlink="http://www.w3.org/1999/xlink" contentStyleType="text/css" data-diagram-type="CLASS" height="2886px" preserveAspectRatio="none" style="width:3247px;height:2886px;background:#FFFFFF;" version="1.1" viewBox="0 0 3247 2886" width="3247px" zoomAndPan="magnify"><?plantuml 1.2026.3?><defs/><g><g class="title" data-source-line="1"><text fill="#000000" font-family="sans-serif" font-size="14" font-weight="700" lengthAdjust="spacing" textLength="222.1611" x="1509.1712" y="24.5332">CDIFDataDescription &#8212; overview</text></g><!--class Dataset--><g class="entity" data-qualified-name="Dataset" data-source-line="16" id="ent0002"><rect fill="#FEFECE" height="47.7344" rx="2.5" ry="2.5" style="stroke:#404040;stroke-width:0.5;" width="109.3887" x="2322.98" y="45.6094"/><text fill="#000000" font-family="sans-serif" font-size="30" lengthAdjust="spacing" textLength="103.3887" x="2325.98" y="81.752">Dataset</text></g><!--class CatalogRecord--><g class="entity" data-qualified-name="CatalogRecord" data-source-line="17" id="ent0003"><rect fill="#FEFECE" height="47.7344" rx="2.5" ry="2.5" style="stroke:#404040;stroke-width:0.5;" width="206.1123" x="1792.48" y="390.6094"/><text fill="#000000" font-family="sans-serif" font-size="30" lengthAdjust="spacing" textLength="200.1123" x="1795.48" y="426.752">CatalogRecord</text></g><!--class DataDownload--><g class="entity" data-qualified-name="DataDownload" data-source-line="18" id="ent0004"><rect fill="#FEFECE" height="47.7344" rx="2.5" ry="2.5" style="stroke:#404040;stroke-width:0.5;" width="202.7871" x="2165.98" y="390.6094"/><text fill="#000000" font-family="sans-serif" font-size="30" lengthAdjust="spacing" textLength="196.7871" x="2168.98" y="426.752">DataDownload</text></g><!--class WebAPI--><g class="entity" data-qualified-name="WebAPI" data-source-line="19" id="ent0005"><rect fill="#FCF3CF" height="47.7344" rx="2.5" ry="2.5" style="stroke:#404040;stroke-width:0.5;" width="116.0391" x="2018.48" y="390.6094"/><text fill="#000000" font-family="sans-serif" font-size="30" lengthAdjust="spacing" textLength="110.0391" x="2021.48" y="426.752">WebAPI</text></g><!--class ActionResult--><g class="entity" data-qualified-name="ActionResult" data-source-line="20" id="ent0006"><rect fill="#FCF3CF" height="47.7344" rx="2.5" ry="2.5" style="stroke:#404040;stroke-width:0.5;" width="174.4131" x="1258.48" y="735.6094"/><text fill="#000000" font-family="sans-serif" font-size="30" lengthAdjust="spacing" textLength="168.4131" x="1261.48" y="771.752">ActionResult</text></g><!--class InstanceVariable--><g class="entity" data-qualified-name="InstanceVariable" data-source-line="21" id="ent0007"><rect fill="#FCF3CF" height="47.7344" rx="2.5" ry="2.5" style="stroke:#404040;stroke-width:0.5;" width="229.4766" x="1785.98" y="1431.1094"/><text fill="#000000" font-family="sans-serif" font-size="30" lengthAdjust="spacing" textLength="223.4766" x="1788.98" y="1467.252">InstanceVariable</text></g><!--class SubstantiveValueDomain--><g class="entity" data-qualified-name="SubstantiveValueDomain" data-source-line="22" id="ent0008"><rect fill="#FAE5D3" height="47.7344" rx="2.5" ry="2.5" style="stroke:#404040;stroke-width:0.5;" width="342.8701" x="1728.98" y="1780.6094"/><text fill="#000000" font-family="sans-serif" font-size="30" lengthAdjust="spacing" textLength="336.8701" x="1731.98" y="1816.752">SubstantiveValueDomain</text></g><!--class SentinelValueDomain--><g class="entity" data-qualified-name="SentinelValueDomain" data-source-line="23" id="ent0009"><rect fill="#FAE5D3" height="47.7344" rx="2.5" ry="2.5" style="stroke:#404040;stroke-width:0.5;" width="294.5156" x="1239.98" y="1780.6094"/><text fill="#000000" font-family="sans-serif" font-size="30" lengthAdjust="spacing" textLength="288.5156" x="1242.98" y="1816.752">SentinelValueDomain</text></g><!--class EnumerationDomain--><g class="entity" data-qualified-name="EnumerationDomain" data-source-line="24" id="ent0010"><rect fill="#FAE5D3" height="47.7344" rx="2.5" ry="2.5" style="stroke:#404040;stroke-width:0.5;" width="279.4717" x="1349.98" y="2130.1094"/><text fill="#000000" font-family="sans-serif" font-size="30" lengthAdjust="spacing" textLength="273.4717" x="1352.98" y="2166.252">EnumerationDomain</text></g><!--class ValueAndConceptDescription--><g class="entity" data-qualified-name="ValueAndConceptDescription" data-source-line="25" id="ent0011"><rect fill="#FAE5D3" height="47.7344" rx="2.5" ry="2.5" style="stroke:#404040;stroke-width:0.5;" width="397.9043" x="931.48" y="2130.1094"/><text fill="#000000" font-family="sans-serif" font-size="30" lengthAdjust="spacing" textLength="391.9043" x="934.48" y="2166.252">ValueAndConceptDescription</text></g><!--class DefinedTerm--><g class="entity" data-qualified-name="DefinedTerm" data-source-line="26" id="ent0012"><rect fill="#FEFECE" height="47.7344" rx="2.5" ry="2.5" style="stroke:#404040;stroke-width:0.5;" width="179.3936" x="823.98" y="1780.6094"/><text fill="#000000" font-family="sans-serif" font-size="30" lengthAdjust="spacing" textLength="173.3936" x="826.98" y="1816.752">DefinedTerm</text></g><!--class CdifConceptOrTerm--><g class="entity" data-qualified-name="CdifConceptOrTerm" data-source-line="27" id="ent0013"><rect fill="#FAE5D3" height="47.7344" rx="2.5" ry="2.5" style="stroke:#404040;stroke-width:0.5;" width="274.4033" x="617.48" y="2479.6094"/><text fill="#000000" font-family="sans-serif" font-size="30" lengthAdjust="spacing" textLength="268.4033" x="620.48" y="2515.752">CdifConceptOrTerm</text></g><!--class AbstractMapping--><g class="entity" data-qualified-name="AbstractMapping" data-source-line="28" id="ent0014"><rect fill="#FEFECE" height="47.7344" rx="2.5" ry="2.5" style="stroke:#404040;stroke-width:0.5;" width="231.1172" x="1310.98" y="1081.6094"/><text fill="#000000" font-family="sans-serif" font-size="30" font-style="italic" lengthAdjust="spacing" textLength="225.1172" x="1313.98" y="1117.752">AbstractMapping</text></g><!--class PhysicalMapping--><g class="entity" data-qualified-name="PhysicalMapping" data-source-line="29" id="ent0015"><rect fill="#FEFECE" height="47.7344" rx="2.5" ry="2.5" style="stroke:#404040;stroke-width:0.5;" width="232.7871" x="1083.98" y="1431.1094"/><text fill="#000000" font-family="sans-serif" font-size="30" lengthAdjust="spacing" textLength="226.7871" x="1086.98" y="1467.252">PhysicalMapping</text></g><!--class TextMapping--><g class="entity" data-qualified-name="TextMapping" data-source-line="30" id="ent0016"><rect fill="#FEFECE" height="47.7344" rx="2.5" ry="2.5" style="stroke:#404040;stroke-width:0.5;" width="179.4229" x="1336.98" y="1431.1094"/><text fill="#000000" font-family="sans-serif" font-size="30" lengthAdjust="spacing" textLength="173.4229" x="1339.98" y="1467.252">TextMapping</text></g><!--class LocatorMapping--><g class="entity" data-qualified-name="LocatorMapping" data-source-line="31" id="ent0017"><rect fill="#FEFECE" height="47.7344" rx="2.5" ry="2.5" style="stroke:#404040;stroke-width:0.5;" width="221.1416" x="1535.98" y="1431.1094"/><text fill="#000000" font-family="sans-serif" font-size="30" lengthAdjust="spacing" textLength="215.1416" x="1538.98" y="1467.252">LocatorMapping</text></g><!--class AbstractDataSet--><g class="entity" data-qualified-name="AbstractDataSet" data-source-line="32" id="ent0018"><rect fill="#FEFECE" height="47.7344" rx="2.5" ry="2.5" style="stroke:#404040;stroke-width:0.5;" width="224.4375" x="1590.48" y="735.6094"/><text fill="#000000" font-family="sans-serif" font-size="30" font-style="italic" lengthAdjust="spacing" textLength="218.4375" x="1593.48" y="771.752">AbstractDataSet</text></g><!--class TabularTextDataSet--><g class="entity" data-qualified-name="TabularTextDataSet" data-source-line="33" id="ent0019"><rect fill="#FEFECE" height="47.7344" rx="2.5" ry="2.5" style="stroke:#404040;stroke-width:0.5;" width="274.4619" x="1562.48" y="1081.6094"/><text fill="#000000" font-family="sans-serif" font-size="30" lengthAdjust="spacing" textLength="268.4619" x="1565.48" y="1117.752">TabularTextDataSet</text></g><!--class StructuredDataSet--><g class="entity" data-qualified-name="StructuredDataSet" data-source-line="34" id="ent0020"><rect fill="#FEFECE" height="47.7344" rx="2.5" ry="2.5" style="stroke:#404040;stroke-width:0.5;" width="252.7969" x="1856.98" y="1081.6094"/><text fill="#000000" font-family="sans-serif" font-size="30" lengthAdjust="spacing" textLength="246.7969" x="1859.98" y="1117.752">StructuredDataSet</text></g><!--class DataFingerprint--><g class="entity" data-qualified-name="DataFingerprint" data-source-line="35" id="ent0021"><rect fill="#FCF3CF" height="47.7344" rx="2.5" ry="2.5" style="stroke:#404040;stroke-width:0.5;" width="212.7627" x="2239.98" y="735.6094"/><text fill="#000000" font-family="sans-serif" font-size="30" lengthAdjust="spacing" textLength="206.7627" x="2242.98" y="771.752">DataFingerprint</text></g><!--class PrimaryKey--><g class="entity" data-qualified-name="PrimaryKey" data-source-line="36" id="ent0022"><rect fill="#FAE5D3" height="47.7344" rx="2.5" ry="2.5" style="stroke:#404040;stroke-width:0.5;" width="161.0244" x="2401.98" y="390.6094"/><text fill="#000000" font-family="sans-serif" font-size="30" lengthAdjust="spacing" textLength="155.0244" x="2404.98" y="426.752">PrimaryKey</text></g><!--class ComponentPosition--><g class="entity" data-qualified-name="ComponentPosition" data-source-line="37" id="ent0023"><rect fill="#FCF3CF" height="47.7344" rx="2.5" ry="2.5" style="stroke:#404040;stroke-width:0.5;" width="267.8262" x="2183.48" y="908.6094"/><text fill="#000000" font-family="sans-serif" font-size="30" lengthAdjust="spacing" textLength="261.8262" x="2186.48" y="944.752">ComponentPosition</text></g><!--class Statistics--><g class="entity" data-qualified-name="Statistics" data-source-line="38" id="ent0024"><rect fill="#FCF3CF" height="47.7344" rx="2.5" ry="2.5" style="stroke:#404040;stroke-width:0.5;" width="126.0293" x="2557.48" y="2130.1094"/><text fill="#000000" font-family="sans-serif" font-size="30" lengthAdjust="spacing" textLength="120.0293" x="2560.48" y="2166.252">Statistics</text></g><!--class CategoryStatistics--><g class="entity" data-qualified-name="CategoryStatistics" data-source-line="39" id="ent0025"><rect fill="#FCF3CF" height="47.7344" rx="2.5" ry="2.5" style="stroke:#404040;stroke-width:0.5;" width="247.7578" x="2381.48" y="2479.6094"/><text fill="#000000" font-family="sans-serif" font-size="30" lengthAdjust="spacing" textLength="241.7578" x="2384.48" y="2515.752">CategoryStatistics</text></g><!--class StatisticsCollection--><g class="entity" data-qualified-name="StatisticsCollection" data-source-line="40" id="ent0026"><rect fill="#FCF3CF" height="47.7344" rx="2.5" ry="2.5" style="stroke:#404040;stroke-width:0.5;" width="257.7627" x="2803.48" y="1780.6094"/><text fill="#000000" font-family="sans-serif" font-size="30" lengthAdjust="spacing" textLength="251.7627" x="2806.48" y="1816.752">StatisticsCollection</text></g><!--class Category--><g class="entity" data-qualified-name="Category" data-source-line="41" id="ent0027"><rect fill="#FCF3CF" height="47.7344" rx="2.5" ry="2.5" style="stroke:#404040;stroke-width:0.5;" width="127.7285" x="2441.48" y="2824.6094"/><text fill="#000000" font-family="sans-serif" font-size="30" lengthAdjust="spacing" textLength="121.7285" x="2444.48" y="2860.752">Category</text></g><!--reverse link AbstractMapping to PhysicalMapping--><g class="link" data-entity-1="ent0014" data-entity-2="ent0015" data-link-type="extension" data-source-line="42" id="lnk28"><path codeLine="42" d="M1401.6567,1144.7691 C1360.6467,1207.8291 1256.8,1367.4994 1215.62,1430.8194" fill="none" id="AbstractMapping-backto-PhysicalMapping" style="stroke:#404040;stroke-width:1.2;"/><polygon fill="none" points="1411.47,1129.6794,1396.6268,1141.498,1406.6866,1148.0402,1411.47,1129.6794" style="stroke:#404040;stroke-width:1.2;"/></g><!--reverse link AbstractMapping to TextMapping--><g class="link" data-entity-1="ent0014" data-entity-2="ent0016" data-link-type="extension" data-source-line="43" id="lnk29"><path codeLine="43" d="M1426.48,1147.6794 C1426.48,1210.7394 1426.48,1367.4994 1426.48,1430.8194" fill="none" id="AbstractMapping-backto-TextMapping" style="stroke:#404040;stroke-width:1.2;"/><polygon fill="none" points="1426.48,1129.6794,1420.48,1147.6794,1432.48,1147.6794,1426.48,1129.6794" style="stroke:#404040;stroke-width:1.2;"/></g><!--reverse link AbstractMapping to LocatorMapping--><g class="link" data-entity-1="ent0014" data-entity-2="ent0017" data-link-type="extension" data-source-line="44" id="lnk30"><path codeLine="44" d="M1450.7078,1144.8881 C1490.6278,1207.9481 1591.65,1367.4994 1631.73,1430.8194" fill="none" id="AbstractMapping-backto-LocatorMapping" style="stroke:#404040;stroke-width:1.2;"/><polygon fill="none" points="1441.08,1129.6794,1445.6383,1148.0974,1455.7774,1141.6788,1441.08,1129.6794" style="stroke:#404040;stroke-width:1.2;"/></g><!--reverse link AbstractDataSet to TabularTextDataSet--><g class="link" data-entity-1="ent0018" data-entity-2="ent0019" data-link-type="extension" data-source-line="45" id="lnk31"><path codeLine="45" d="M1702.1149,801.7087 C1701.5749,864.3787 1700.22,1019.0594 1699.68,1081.6094" fill="none" id="AbstractDataSet-backto-TabularTextDataSet" style="stroke:#404040;stroke-width:1.2;"/><polygon fill="none" points="1702.27,783.7094,1696.1151,801.657,1708.1147,801.7604,1702.27,783.7094" style="stroke:#404040;stroke-width:1.2;"/></g><!--reverse link AbstractDataSet to StructuredDataSet--><g class="link" data-entity-1="ent0018" data-entity-2="ent0020" data-link-type="extension" data-source-line="46" id="lnk32"><path codeLine="46" d="M1732.7369,797.6499 C1783.9269,860.3199 1913.59,1019.0594 1964.68,1081.6094" fill="none" id="AbstractDataSet-backto-StructuredDataSet" style="stroke:#404040;stroke-width:1.2;"/><polygon fill="none" points="1721.35,783.7094,1728.09,801.4455,1737.3837,793.8543,1721.35,783.7094" style="stroke:#404040;stroke-width:1.2;"/></g><!--reverse link Dataset to CatalogRecord--><g class="link" data-entity-1="ent0002" data-entity-2="ent0003" data-link-type="composition" data-source-line="47" id="lnk33"><path codeLine="47" d="M2310.9743,81.8144 C2197.8943,101.8644 1956.36,151.3194 1904.48,218.6094 C1865.57,269.0694 1878.95,350.5794 1888.81,390.3194" fill="none" id="Dataset-backto-CatalogRecord" style="stroke:#404040;stroke-width:1.2;"/><polygon fill="#404040" points="2322.79,79.7194,2316.1838,76.8283,2310.9743,81.8144,2317.5805,84.7055,2322.79,79.7194" style="stroke:#404040;stroke-width:1.2;"/><text fill="#000000" font-family="sans-serif" font-size="36" lengthAdjust="spacing" textLength="152.0684" x="1905.48" y="256.9805">subjectOf</text><text fill="#000000" font-family="sans-serif" font-size="36" lengthAdjust="spacing" textLength="20.0215" x="1865.937" y="374.6954">1</text></g><!--reverse link Dataset to InstanceVariable--><g class="link" data-entity-1="ent0002" data-entity-2="ent0007" data-link-type="composition" data-source-line="48" id="lnk34"><path codeLine="48" d="M2444.1151,79.5419 C2521.3651,92.4819 2648.67,125.9694 2717.48,218.6094 C2769.51,288.6694 2740.48,326.3394 2740.48,413.6094 C2740.48,413.6094 2740.48,413.6094 2740.48,1106.6094 C2740.48,1261.7694 2244.94,1383.5794 2015.07,1431.7394" fill="none" id="Dataset-backto-InstanceVariable" style="stroke:#404040;stroke-width:1.2;"/><polygon fill="#404040" points="2432.28,77.5594,2437.5367,82.4956,2444.1151,79.5419,2438.8584,74.6056,2432.28,77.5594" style="stroke:#404040;stroke-width:1.2;"/><text fill="#000000" font-family="sans-serif" font-size="36" lengthAdjust="spacing" textLength="286.1543" x="2741.48" y="774.4805">variableMeasured</text><text fill="#000000" font-family="sans-serif" font-size="36" lengthAdjust="spacing" textLength="54.0352" x="1978.2708" y="1415.1336">1..*</text></g><!--reverse link Dataset to PrimaryKey--><g class="link" data-entity-1="ent0002" data-entity-2="ent0022" data-link-type="composition" data-source-line="49" id="lnk35"><path codeLine="49" d="M2398.9994,103.7806 C2416.7894,132.0006 2439.4,171.7394 2454.48,218.6094 C2473.8,278.6794 2479.81,353.4494 2481.66,390.5294" fill="none" id="Dataset-backto-PrimaryKey" style="stroke:#404040;stroke-width:1.2;"/><polygon fill="#404040" points="2392.6,93.6294,2392.4159,100.8381,2398.9994,103.7806,2399.1834,96.5719,2392.6,93.6294" style="stroke:#404040;stroke-width:1.2;"/><text fill="#000000" font-family="sans-serif" font-size="36" lengthAdjust="spacing" textLength="244.0723" x="2467.48" y="256.9805">hasPrimaryKey</text><text fill="#000000" font-family="sans-serif" font-size="36" lengthAdjust="spacing" textLength="60.0469" x="2416.1722" y="374.6521">0..1</text></g><!--reverse link Dataset to Statistics--><g class="link" data-entity-1="ent0002" data-entity-2="ent0024" data-link-type="composition" data-source-line="50" id="lnk36"><path codeLine="50" d="M2444.0918,72.0442 C2611.2318,78.2442 3092.48,120.8794 3092.48,413.6094 C3092.48,413.6094 3092.48,413.6094 3092.48,1805.6094 C3092.48,1895.4194 3100.27,1934.4994 3039.48,2000.6094 C2944.89,2103.4594 2775.39,2137.0894 2683.63,2147.9794" fill="none" id="Dataset-backto-Statistics" style="stroke:#404040;stroke-width:1.2;"/><polygon fill="#404040" points="2432.1,71.5994,2437.9476,75.819,2444.0918,72.0442,2438.2442,67.8245,2432.1,71.5994" style="stroke:#404040;stroke-width:1.2;"/><text fill="#000000" font-family="sans-serif" font-size="36" lengthAdjust="spacing" textLength="138.0234" x="3093.48" y="1120.4805">statistics</text><text fill="#000000" font-family="sans-serif" font-size="36" lengthAdjust="spacing" textLength="54.0352" x="2691.3775" y="2137.9136">0..*</text></g><!--reverse link Dataset to DataDownload--><g class="link" data-entity-1="ent0002" data-entity-2="ent0004" data-link-type="composition" data-source-line="51" id="lnk37"><path codeLine="51" d="M2346.3589,102.5969 C2321.0989,129.8269 2290.06,168.8594 2273.48,218.6094 C2253.72,277.8994 2259.32,353.0094 2264,390.3494" fill="none" id="Dataset-backto-DataDownload" style="stroke:#404040;stroke-width:1.2;"/><polygon fill="#404040" points="2354.52,93.7994,2347.5069,95.4778,2346.3589,102.5969,2353.372,100.9185,2354.52,93.7994" style="stroke:#404040;stroke-width:1.2;"/><text fill="#000000" font-family="sans-serif" font-size="36" lengthAdjust="spacing" textLength="174.0938" x="2274.48" y="256.9805">distribution</text><text fill="#000000" font-family="sans-serif" font-size="36" lengthAdjust="spacing" textLength="54.0352" x="2204.7826" y="374.7306">0..*</text></g><!--reverse link Dataset to WebAPI--><g class="link" data-entity-1="ent0002" data-entity-2="ent0005" data-link-type="composition" data-source-line="52" id="lnk38"><path codeLine="52" d="M2311.2214,82.9678 C2241.5514,98.6078 2135.27,134.0094 2081.48,218.6094 C2047.49,272.0494 2060.49,351.4694 2069.96,390.3894" fill="none" id="Dataset-backto-WebAPI" style="stroke:#404040;stroke-width:1.2;"/><polygon fill="#404040" points="2322.93,80.3394,2316.1996,77.7507,2311.2214,82.9678,2317.9518,85.5565,2322.93,80.3394" style="stroke:#404040;stroke-width:1.2;"/><text fill="#000000" font-family="sans-serif" font-size="36" lengthAdjust="spacing" textLength="174.0938" x="2082.48" y="256.9805">distribution</text><text fill="#000000" font-family="sans-serif" font-size="36" lengthAdjust="spacing" textLength="54.0352" x="2010.1984" y="374.7775">0..*</text></g><!--reverse link DataDownload to AbstractMapping--><g class="link" data-entity-1="ent0004" data-entity-2="ent0014" data-link-type="composition" data-source-line="53" id="lnk39"><path codeLine="53" d="M2228.7627,446.3996 C2164.7927,497.6196 2018.31,617.3994 1898.48,735.6094 C1804.8,828.0094 1804.76,875.0794 1701.48,956.6094 C1632.43,1011.1194 1540.44,1055.9794 1482.33,1081.5294" fill="none" id="DataDownload-backto-AbstractMapping" style="stroke:#404040;stroke-width:1.2;"/><polygon fill="#404040" points="2238.13,438.8994,2230.9463,439.5271,2228.7627,446.3996,2235.9464,445.7719,2238.13,438.8994" style="stroke:#404040;stroke-width:1.2;"/><text fill="#000000" font-family="sans-serif" font-size="36" lengthAdjust="spacing" textLength="330.1875" x="1899.48" y="774.4805">hasPhysicalMapping</text><text fill="#000000" font-family="sans-serif" font-size="36" lengthAdjust="spacing" textLength="54.0352" x="1433.4616" y="1065.6521">0..*</text></g><!--reverse link DataDownload to AbstractDataSet--><g class="link" data-entity-1="ent0004" data-entity-2="ent0018" data-link-type="aggregation" data-source-line="54" id="lnk40"><path codeLine="54" d="M2154.1631,437.6131 C1999.3831,468.5731 1731.01,526.6294 1702.48,563.6094 C1663.59,613.9894 1681.82,695.5394 1694.24,735.3094" fill="none" id="DataDownload-backto-AbstractDataSet" style="stroke:#404040;stroke-width:1.2;"/><polygon fill="none" points="2165.93,435.2594,2159.262,432.5139,2154.1631,437.6131,2160.8311,440.3585,2165.93,435.2594" style="stroke:#404040;stroke-width:1.2;"/><text fill="#000000" font-family="sans-serif" font-size="36" lengthAdjust="spacing" textLength="208.1074" x="1703.48" y="601.9805">alsoTypedAs</text><text fill="#000000" font-family="sans-serif" font-size="36" lengthAdjust="spacing" textLength="60.0469" x="1627.6339" y="719.6837">0..1</text></g><!--reverse link DataDownload to DataFingerprint--><g class="link" data-entity-1="ent0004" data-entity-2="ent0021" data-link-type="composition" data-source-line="55" id="lnk41"><path codeLine="55" d="M2271.0331,450.6016 C2274.9531,487.3416 2282.73,549.3394 2297.48,610.6094 C2308.31,655.6094 2326.53,706.5294 2337.44,735.3794" fill="none" id="DataDownload-backto-DataFingerprint" style="stroke:#404040;stroke-width:1.2;"/><polygon fill="#404040" points="2269.76,438.6694,2266.4191,445.0599,2271.0331,450.6016,2274.374,444.2111,2269.76,438.6694" style="stroke:#404040;stroke-width:1.2;"/><text fill="#000000" font-family="sans-serif" font-size="36" lengthAdjust="spacing" textLength="160.084" x="2298.48" y="601.9805">fingerprint</text><text fill="#000000" font-family="sans-serif" font-size="36" lengthAdjust="spacing" textLength="60.0469" x="2270.7544" y="719.7657">0..1</text></g><!--reverse link WebAPI to ActionResult--><g class="link" data-entity-1="ent0005" data-entity-2="ent0006" data-link-type="composition" data-source-line="56" id="lnk42"><path codeLine="56" d="M2006.8761,439.2061 C1713.3461,515.7761 1531.34,330.2894 1337.48,563.6094 C1296.66,612.7294 1320.29,695.2394 1335.59,735.3294" fill="none" id="WebAPI-backto-ActionResult" style="stroke:#404040;stroke-width:1.2;"/><polygon fill="#404040" points="2018.4,435.8594,2011.5225,433.6915,2006.8761,439.2061,2013.7537,441.374,2018.4,435.8594" style="stroke:#404040;stroke-width:1.2;"/><text fill="#000000" font-family="sans-serif" font-size="36" lengthAdjust="spacing" textLength="338.2031" x="1338.48" y="601.9805">potentialActionResult</text><text fill="#000000" font-family="sans-serif" font-size="36" lengthAdjust="spacing" textLength="54.0352" x="1275.2171" y="719.7072">0..*</text></g><!--reverse link ActionResult to AbstractMapping--><g class="link" data-entity-1="ent0006" data-entity-2="ent0014" data-link-type="composition" data-source-line="57" id="lnk43"><path codeLine="57" d="M1345.6553,795.6182 C1346.1653,832.6382 1349.07,895.4394 1364.48,956.6094 C1376.07,1002.6694 1399.72,1053.0294 1414.23,1081.5194" fill="none" id="ActionResult-backto-AbstractMapping" style="stroke:#404040;stroke-width:1.2;"/><polygon fill="#404040" points="1345.49,783.6194,1341.573,789.6739,1345.6553,795.6182,1349.5723,789.5637,1345.49,783.6194" style="stroke:#404040;stroke-width:1.2;"/><text fill="#000000" font-family="sans-serif" font-size="36" lengthAdjust="spacing" textLength="330.1875" x="1365.48" y="947.4805">hasPhysicalMapping</text><text fill="#000000" font-family="sans-serif" font-size="36" lengthAdjust="spacing" textLength="54.0352" x="1353.2313" y="1065.6403">0..*</text></g><!--link InstanceVariable to SubstantiveValueDomain--><g class="link" data-entity-1="ent0007" data-entity-2="ent0008" data-link-type="dependency" data-source-line="58" id="lnk44"><path codeLine="58" d="M1900.48,1479.1794 C1900.48,1542.2394 1900.48,1710.9994 1900.48,1774.3194" fill="none" id="InstanceVariable-to-SubstantiveValueDomain" style="stroke:#404040;stroke-width:1.2;"/><polygon fill="#404040" points="1900.48,1780.3194,1904.48,1771.3194,1900.48,1775.3194,1896.48,1771.3194,1900.48,1780.3194" style="stroke:#404040;stroke-width:1.2;"/><text fill="#000000" font-family="sans-serif" font-size="36" lengthAdjust="spacing" textLength="468.2285" x="1901.48" y="1646.9805">takesSubstantiveValuesFrom</text><text fill="#000000" font-family="sans-serif" font-size="36" lengthAdjust="spacing" textLength="60.0469" x="1835.3389" y="1764.6954">0..1</text></g><!--link InstanceVariable to SentinelValueDomain--><g class="link" data-entity-1="ent0007" data-entity-2="ent0009" data-link-type="dependency" data-source-line="59" id="lnk45"><path codeLine="59" d="M1814.89,1479.2294 C1708.08,1509.4494 1533.36,1563.7894 1483.48,1608.6094 C1430.43,1656.2694 1404.8892,1734.0423 1394.3692,1774.5223" fill="none" id="InstanceVariable-to-SentinelValueDomain" style="stroke:#404040;stroke-width:1.2;"/><polygon fill="#404040" points="1392.86,1780.3294,1398.9951,1772.6248,1394.1176,1775.4901,1391.2523,1770.6126,1392.86,1780.3294" style="stroke:#404040;stroke-width:1.2;"/><text fill="#000000" font-family="sans-serif" font-size="36" lengthAdjust="spacing" textLength="410.2031" x="1484.48" y="1646.9805">takesSentinelValuesFrom</text><text fill="#000000" font-family="sans-serif" font-size="36" lengthAdjust="spacing" textLength="54.0352" x="1335.1887" y="1764.7072">0..*</text></g><!--link InstanceVariable to CdifConceptOrTerm--><g class="link" data-entity-1="ent0007" data-entity-2="ent0013" data-link-type="dependency" data-source-line="60" id="lnk46"><path codeLine="60" d="M1793.14,1479.1494 C1784.14,1480.7794 1775.16,1482.2894 1766.48,1483.6094 C1489.39,1525.7294 699.58,1400.8394 511.48,1608.6094 C387.88,1745.1294 677.1793,2347.3965 740.1393,2474.0565" fill="none" id="InstanceVariable-to-CdifConceptOrTerm" style="stroke:#404040;stroke-width:1.2;"/><polygon fill="#404040" points="742.81,2479.4294,742.3858,2469.5897,740.5844,2474.952,735.222,2473.1506,742.81,2479.4294" style="stroke:#404040;stroke-width:1.2;"/><text fill="#000000" font-family="sans-serif" font-size="36" lengthAdjust="spacing" textLength="76.043" x="541.48" y="1991.9805">uses</text><text fill="#000000" font-family="sans-serif" font-size="36" lengthAdjust="spacing" textLength="54.0352" x="682.132" y="2463.8243">0..*</text></g><!--link InstanceVariable to CdifConceptOrTerm--><g class="link" data-entity-1="ent0007" data-entity-2="ent0013" data-link-type="dependency" data-source-line="62" id="lnk48"><path codeLine="62" d="M1793.14,1479.1694 C1784.14,1480.7894 1775.16,1482.2994 1766.48,1483.6094 C1199.97,1569.0894 1004.09,1369.4494 483.48,1608.6094 C282.1,1701.1194 210.46,1749.7794 123.48,1953.6094 C6,2228.8994 481.0775,2414.9334 672.8775,2477.6934" fill="none" id="InstanceVariable-to-CdifConceptOrTerm-1" style="stroke:#404040;stroke-width:1.2;"/><polygon fill="#404040" points="678.58,2479.5594,671.2702,2472.9588,673.8279,2478.0044,668.7823,2480.5621,678.58,2479.5594" style="stroke:#404040;stroke-width:1.2;"/><text fill="#000000" font-family="sans-serif" font-size="36" lengthAdjust="spacing" textLength="398.1797" x="124.48" y="1991.9805">describedUnitOfMeasure</text><text fill="#000000" font-family="sans-serif" font-size="36" lengthAdjust="spacing" textLength="60.0469" x="599.6848" y="2463.6875">0..1</text></g><!--link InstanceVariable to CdifConceptOrTerm--><g class="link" data-entity-1="ent0007" data-entity-2="ent0013" data-link-type="dependency" data-source-line="63" id="lnk49"><path codeLine="63" d="M2015.25,1477.3094 C2140.56,1503.0694 2329.14,1550.3994 2371.48,1608.6094 C2412.01,1664.3394 2455.33,1778.1294 2231.48,2000.6094 C1852.33,2377.4294 1185.8204,2471.1143 897.7004,2494.4843" fill="none" id="InstanceVariable-to-CdifConceptOrTerm-2" style="stroke:#404040;stroke-width:1.2;"/><polygon fill="#404040" points="891.72,2494.9694,901.0139,2498.2287,896.7036,2494.5651,900.3672,2490.2549,891.72,2494.9694" style="stroke:#404040;stroke-width:1.2;"/><text fill="#000000" font-family="sans-serif" font-size="36" lengthAdjust="spacing" textLength="126.0879" x="2274.48" y="1991.9805">function</text><text fill="#000000" font-family="sans-serif" font-size="36" lengthAdjust="spacing" textLength="54.0352" x="899.6665" y="2485.8454">0..*</text></g><!--link InstanceVariable to DefinedTerm--><g class="link" data-entity-1="ent0007" data-entity-2="ent0012" data-link-type="dependency" data-source-line="61" id="lnk47"><path codeLine="61" d="M1793.13,1479.1394 C1784.14,1480.7594 1775.16,1482.2794 1766.48,1483.6094 C1494.02,1525.2594 717.29,1404.1294 532.48,1608.6094 C439.55,1711.4194 678.3104,1766.9505 818.0104,1790.0505" fill="none" id="InstanceVariable-to-DefinedTerm" style="stroke:#404040;stroke-width:1.2;"/><polygon fill="#404040" points="823.93,1791.0294,815.7031,1785.6147,818.997,1790.2137,814.398,1793.5075,823.93,1791.0294" style="stroke:#404040;stroke-width:1.2;"/><text fill="#000000" font-family="sans-serif" font-size="36" lengthAdjust="spacing" textLength="354.252" x="533.48" y="1646.9805">hasIntendedDataType</text><text fill="#000000" font-family="sans-serif" font-size="36" lengthAdjust="spacing" textLength="60.0469" x="755.8861" y="1780.9947">0..1</text></g><!--link InstanceVariable to DefinedTerm--><g class="link" data-entity-1="ent0007" data-entity-2="ent0012" data-link-type="dependency" data-source-line="66" id="lnk52"><path codeLine="66" d="M1790.88,1479.1294 C1782.63,1480.6994 1774.43,1482.2094 1766.48,1483.6094 C1577.79,1516.7694 1038.74,1463.6494 913.48,1608.6094 C871.64,1657.0194 889.6971,1734.5425 902.9971,1774.7825" fill="none" id="InstanceVariable-to-DefinedTerm-1" style="stroke:#404040;stroke-width:1.2;"/><polygon fill="#404040" points="904.88,1780.4794,905.8535,1770.6788,903.3109,1775.732,898.2577,1773.1893,904.88,1780.4794" style="stroke:#404040;stroke-width:1.2;"/><text fill="#000000" font-family="sans-serif" font-size="36" lengthAdjust="spacing" textLength="108.0527" x="914.48" y="1646.9805">source</text><text fill="#000000" font-family="sans-serif" font-size="36" lengthAdjust="spacing" textLength="54.0352" x="844.5068" y="1764.5932">0..*</text></g><!--link InstanceVariable to DefinedTerm--><g class="link" data-entity-1="ent0007" data-entity-2="ent0012" data-link-type="dependency" data-source-line="67" id="lnk53"><path codeLine="67" d="M1789.38,1479.1694 C1781.64,1480.6994 1773.94,1482.1894 1766.48,1483.6094 C1449.55,1543.8194 1315.67,1423.4794 1051.48,1608.6094 C1031.75,1622.4294 1037.73,1635.4894 1024.48,1655.6094 C994.35,1701.3394 958.8652,1747.1218 936.0152,1775.7218" fill="none" id="InstanceVariable-to-DefinedTerm-2" style="stroke:#404040;stroke-width:1.2;"/><polygon fill="#404040" points="932.27,1780.4094,941.0128,1775.8747,935.391,1776.503,934.7627,1770.8812,932.27,1780.4094" style="stroke:#404040;stroke-width:1.2;"/><text fill="#000000" font-family="sans-serif" font-size="36" lengthAdjust="spacing" textLength="388.2129" x="1052.48" y="1646.9805">measurementTechnique</text><text fill="#000000" font-family="sans-serif" font-size="36" lengthAdjust="spacing" textLength="54.0352" x="940.1094" y="1764.8009">0..*</text></g><!--link InstanceVariable to InstanceVariable--><g class="link" data-entity-1="ent0007" data-entity-2="ent0007" data-link-type="dependency" data-source-line="64" id="lnk50"><path codeLine="64" d="M1938.69,1431.0194 C1983.22,1413.6494 2034.98,1421.6794 2034.98,1455.1094 C2034.98,1488.5394 1988.8098,1498.7498 1944.2798,1481.3798" fill="none" id="InstanceVariable-to-InstanceVariable" style="stroke:#404040;stroke-width:1.2;"/><polygon fill="#404040" points="1938.69,1479.1994,1945.6211,1486.1965,1943.3482,1481.0164,1948.5283,1478.7435,1938.69,1479.1994" style="stroke:#404040;stroke-width:1.2;"/><text fill="#000000" font-family="sans-serif" font-size="36" lengthAdjust="spacing" textLength="132.082" x="2040.98" y="1469.9805">qualifies</text><text fill="#000000" font-family="sans-serif" font-size="36" lengthAdjust="spacing" textLength="54.0352" x="1886.5101" y="1524.3322">0..*</text></g><!--link InstanceVariable to StatisticsCollection--><g class="link" data-entity-1="ent0007" data-entity-2="ent0026" data-link-type="dependency" data-source-line="65" id="lnk51"><path codeLine="65" d="M2015.18,1462.3794 C2232.53,1476.2794 2693.96,1516.0794 2820.48,1608.6094 C2839.41,1622.4594 2833.14,1635.0694 2844.48,1655.6094 C2869.25,1700.4994 2897.1701,1746.5527 2914.9901,1775.4427" fill="none" id="InstanceVariable-to-StatisticsCollection" style="stroke:#404040;stroke-width:1.2;"/><polygon fill="#404040" points="2918.14,1780.5494,2916.8196,1770.7894,2915.5151,1776.2938,2910.0107,1774.9893,2918.14,1780.5494" style="stroke:#404040;stroke-width:1.2;"/><text fill="#000000" font-family="sans-serif" font-size="36" lengthAdjust="spacing" textLength="230.0801" x="2845.48" y="1646.9805">isDescribedBy</text><text fill="#000000" font-family="sans-serif" font-size="36" lengthAdjust="spacing" textLength="54.0352" x="2856.8006" y="1764.6757">0..*</text></g><!--link StatisticsCollection to InstanceVariable--><g class="link" data-entity-1="ent0026" data-entity-2="ent0007" data-link-type="dependency" data-source-line="83" id="lnk69"><path codeLine="83" d="M2857.22,1780.6094 C2793.63,1757.8294 2703.83,1717.3194 2645.48,1655.6094 C2629.76,1638.9894 2642.28,1622.9794 2624.48,1608.6094 C2532.02,1533.9794 2201.0632,1488.2328 2021.2832,1468.2328" fill="none" id="StatisticsCollection-to-InstanceVariable" style="stroke:#404040;stroke-width:1.2;"/><polygon fill="#404040" points="2015.32,1467.5694,2023.8226,1472.5399,2020.2893,1468.1222,2024.7071,1464.589,2015.32,1467.5694" style="stroke:#404040;stroke-width:1.2;"/><text fill="#000000" font-family="sans-serif" font-size="36" lengthAdjust="spacing" textLength="168.1172" x="2646.48" y="1646.9805">indexedBy</text><text fill="#000000" font-family="sans-serif" font-size="36" lengthAdjust="spacing" textLength="54.0352" x="2023.5074" y="1459.3758">0..*</text></g><!--link SubstantiveValueDomain to EnumerationDomain--><g class="link" data-entity-1="ent0008" data-entity-2="ent0010" data-link-type="dependency" data-source-line="68" id="lnk54"><path codeLine="68" d="M1913.21,1828.7994 C1932.86,1868.0494 1964.6,1948.3794 1927.48,2000.6094 C1860.31,2095.1194 1736.0649,2130.7482 1635.0049,2144.5382" fill="none" id="SubstantiveValueDomain-to-EnumerationDomain" style="stroke:#404040;stroke-width:1.2;"/><polygon fill="#404040" points="1629.06,2145.3494,1638.5182,2148.0958,1634.0141,2144.6734,1637.4366,2140.1693,1629.06,2145.3494" style="stroke:#404040;stroke-width:1.2;"/><text fill="#000000" font-family="sans-serif" font-size="36" lengthAdjust="spacing" textLength="280.1074" x="1945.48" y="1991.9805">takesValuesFrom</text><text fill="#000000" font-family="sans-serif" font-size="36" lengthAdjust="spacing" textLength="60.0469" x="1637.2637" y="2136.2196">0..1</text></g><!--link SubstantiveValueDomain to ValueAndConceptDescription--><g class="link" data-entity-1="ent0008" data-entity-2="ent0011" data-link-type="dependency" data-source-line="69" id="lnk55"><path codeLine="69" d="M1853.39,1828.7894 C1806.59,1853.8894 1735.47,1897.9294 1690.48,1953.6094 C1676.21,1971.2694 1687.52,1985.6094 1670.48,2000.6094 C1609.47,2054.3194 1404.4287,2101.6588 1264.9587,2128.9088" fill="none" id="SubstantiveValueDomain-to-ValueAndConceptDescription" style="stroke:#404040;stroke-width:1.2;"/><polygon fill="#404040" points="1259.07,2130.0594,1268.67,2132.2593,1263.9772,2129.1006,1267.136,2124.4078,1259.07,2130.0594" style="stroke:#404040;stroke-width:1.2;"/><text fill="#000000" font-family="sans-serif" font-size="36" lengthAdjust="spacing" textLength="230.0801" x="1691.48" y="1991.9805">isDescribedBy</text><text fill="#000000" font-family="sans-serif" font-size="36" lengthAdjust="spacing" textLength="60.0469" x="1216.644" y="2114.1875">0..1</text></g><!--link SentinelValueDomain to EnumerationDomain--><g class="link" data-entity-1="ent0009" data-entity-2="ent0010" data-link-type="dependency" data-source-line="70" id="lnk56"><path codeLine="70" d="M1383.23,1828.7594 C1377.34,1865.9394 1369.33,1940.8394 1387.48,2000.6094 C1403.11,2052.1194 1438.5647,2097.603 1463.5647,2125.613" fill="none" id="SentinelValueDomain-to-EnumerationDomain" style="stroke:#404040;stroke-width:1.2;"/><polygon fill="#404040" points="1467.56,2130.0894,1464.5513,2120.7113,1464.2306,2126.3591,1458.5828,2126.0384,1467.56,2130.0894" style="stroke:#404040;stroke-width:1.2;"/><text fill="#000000" font-family="sans-serif" font-size="36" lengthAdjust="spacing" textLength="280.1074" x="1388.48" y="1991.9805">takesValuesFrom</text><text fill="#000000" font-family="sans-serif" font-size="36" lengthAdjust="spacing" textLength="60.0469" x="1398.2739" y="2114.2228">0..1</text></g><!--link SentinelValueDomain to ValueAndConceptDescription--><g class="link" data-entity-1="ent0009" data-entity-2="ent0011" data-link-type="dependency" data-source-line="71" id="lnk57"><path codeLine="71" d="M1313.39,1828.6694 C1255.81,1850.8294 1179.54,1890.4194 1141.48,1953.6094 C1107.92,2009.3194 1116.4856,2084.5576 1124.0756,2123.9776" fill="none" id="SentinelValueDomain-to-ValueAndConceptDescription" style="stroke:#404040;stroke-width:1.2;"/><polygon fill="#404040" points="1125.21,2129.8694,1127.4362,2120.2754,1124.2647,2124.9596,1119.5805,2121.788,1125.21,2129.8694" style="stroke:#404040;stroke-width:1.2;"/><text fill="#000000" font-family="sans-serif" font-size="36" lengthAdjust="spacing" textLength="230.0801" x="1142.48" y="1991.9805">isDescribedBy</text><text fill="#000000" font-family="sans-serif" font-size="36" lengthAdjust="spacing" textLength="60.0469" x="1059.1602" y="2114.254">0..1</text></g><!--link EnumerationDomain to CdifConceptOrTerm--><g class="link" data-entity-1="ent0010" data-entity-2="ent0013" data-link-type="dependency" data-source-line="72" id="lnk58"><path codeLine="72" d="M1440.68,2178.1794 C1307.14,2241.3194 942.1943,2413.8547 808.6743,2476.9847" fill="none" id="EnumerationDomain-to-CdifConceptOrTerm" style="stroke:#404040;stroke-width:1.2;"/><polygon fill="#404040" points="803.25,2479.5494,813.0962,2479.3186,807.7702,2477.4122,809.6766,2472.0862,803.25,2479.5494" style="stroke:#404040;stroke-width:1.2;"/><text fill="#000000" font-family="sans-serif" font-size="36" lengthAdjust="spacing" textLength="170.0859" x="1167.48" y="2345.9805">references</text><text fill="#000000" font-family="sans-serif" font-size="36" lengthAdjust="spacing" textLength="54.0352" x="753.095" y="2463.6757">0..*</text></g><!--link AbstractMapping to InstanceVariable--><g class="link" data-entity-1="ent0014" data-entity-2="ent0007" data-link-type="dependency" data-source-line="73" id="lnk59"><path codeLine="73" d="M1457.94,1129.6794 C1544.06,1192.8194 1778.0711,1364.3718 1864.1811,1427.5018" fill="none" id="AbstractMapping-to-InstanceVariable" style="stroke:#404040;stroke-width:1.2;"/><polygon fill="#404040" points="1869.02,1431.0494,1864.1267,1422.5021,1864.9876,1428.0931,1859.3966,1428.954,1869.02,1431.0494" style="stroke:#404040;stroke-width:1.2;"/><text fill="#000000" font-family="sans-serif" font-size="36" lengthAdjust="spacing" textLength="120.0234" x="1693.48" y="1292.9805">formats</text><text fill="#000000" font-family="sans-serif" font-size="36" lengthAdjust="spacing" textLength="20.0215" x="1841.5944" y="1415.1757">1</text></g><!--reverse link PrimaryKey to ComponentPosition--><g class="link" data-entity-1="ent0022" data-entity-2="ent0023" data-link-type="composition" data-source-line="74" id="lnk60"><path codeLine="74" d="M2482.0843,450.7485 C2481.1643,526.5185 2477.33,752.1794 2463.48,783.6094 C2439.75,837.4494 2387.05,882.7294 2351.89,908.5194" fill="none" id="PrimaryKey-backto-ComponentPosition" style="stroke:#404040;stroke-width:1.2;"/><polygon fill="#404040" points="2482.23,438.7494,2478.1574,444.7004,2482.0843,450.7485,2486.1569,444.7975,2482.23,438.7494" style="stroke:#404040;stroke-width:1.2;"/><text fill="#000000" font-family="sans-serif" font-size="36" lengthAdjust="spacing" textLength="238.0957" x="2480.48" y="601.9805">isComposedOf</text><text fill="#000000" font-family="sans-serif" font-size="36" lengthAdjust="spacing" textLength="54.0352" x="2299.2285" y="892.6403">1..*</text></g><!--link ComponentPosition to InstanceVariable--><g class="link" data-entity-1="ent0023" data-entity-2="ent0007" data-link-type="dependency" data-source-line="75" id="lnk61"><path codeLine="75" d="M2299.02,956.6494 C2230.06,1042.7194 1991.7016,1340.2369 1922.7016,1426.3569" fill="none" id="ComponentPosition-to-InstanceVariable" style="stroke:#404040;stroke-width:1.2;"/><polygon fill="#404040" points="1918.95,1431.0394,1927.6991,1426.5168,1922.0763,1427.1373,1921.4558,1421.5146,1918.95,1431.0394" style="stroke:#404040;stroke-width:1.2;"/><text fill="#000000" font-family="sans-serif" font-size="36" lengthAdjust="spacing" textLength="124.084" x="2196.48" y="1120.4805">indexes</text><text fill="#000000" font-family="sans-serif" font-size="36" lengthAdjust="spacing" textLength="20.0215" x="1900.4182" y="1415.1639">1</text></g><!--link Statistics to InstanceVariable--><g class="link" data-entity-1="ent0024" data-entity-2="ent0007" data-link-type="dependency" data-source-line="76" id="lnk62"><path codeLine="76" d="M2602.23,2129.9194 C2563.1,2078.8394 2471.18,1951.3294 2428.48,1828.6094 C2396.04,1735.4094 2462.39,1683.7894 2398.48,1608.6094 C2348.77,1550.1394 2151.9078,1503.3142 2020.9278,1477.6242" fill="none" id="Statistics-to-InstanceVariable" style="stroke:#404040;stroke-width:1.2;"/><polygon fill="#404040" points="2015.04,1476.4694,2023.1018,1482.1268,2019.9465,1477.4317,2024.6416,1474.2764,2015.04,1476.4694" style="stroke:#404040;stroke-width:1.2;"/><text fill="#000000" font-family="sans-serif" font-size="36" lengthAdjust="spacing" textLength="156.0938" x="2429.48" y="1819.4805">appliesTo</text><text fill="#000000" font-family="sans-serif" font-size="36" lengthAdjust="spacing" textLength="54.0352" x="1997.8591" y="1524.0463">0..*</text></g><!--link Statistics to InstanceVariable--><g class="link" data-entity-1="ent0024" data-entity-2="ent0007" data-link-type="dependency" data-source-line="77" id="lnk63"><path codeLine="77" d="M2623.44,2129.9994 C2630.16,2069.5094 2642.06,1902.7094 2587.48,1780.6094 C2544.74,1685.0194 2515.73,1663.3694 2426.48,1608.6094 C2297.92,1529.7394 2132.6469,1491.0547 2021.0069,1472.2747" fill="none" id="Statistics-to-InstanceVariable-1" style="stroke:#404040;stroke-width:1.2;"/><polygon fill="#404040" points="2015.09,1471.2794,2023.3017,1476.7169,2020.0207,1472.1088,2024.6289,1468.8278,2015.09,1471.2794" style="stroke:#404040;stroke-width:1.2;"/><text fill="#000000" font-family="sans-serif" font-size="36" lengthAdjust="spacing" textLength="170.0859" x="2605.48" y="1819.4805">hasWeight</text><text fill="#000000" font-family="sans-serif" font-size="36" lengthAdjust="spacing" textLength="60.0469" x="2023.4378" y="1510.9019">0..1</text></g><!--reverse link Statistics to CategoryStatistics--><g class="link" data-entity-1="ent0024" data-entity-2="ent0025" data-link-type="composition" data-source-line="78" id="lnk64"><path codeLine="78" d="M2625.7084,2190.2351 C2630.7584,2228.2951 2635.45,2293.8494 2614.48,2354.6094 C2597.19,2404.6794 2556.49,2452.0494 2530.01,2479.1594" fill="none" id="Statistics-backto-CategoryStatistics" style="stroke:#404040;stroke-width:1.2;"/><polygon fill="#404040" points="2624.13,2178.3394,2620.9539,2184.8134,2625.7084,2190.2351,2628.8844,2183.7611,2624.13,2178.3394" style="stroke:#404040;stroke-width:1.2;"/><text fill="#000000" font-family="sans-serif" font-size="36" lengthAdjust="spacing" textLength="58.043" x="2625.48" y="2345.9805">has</text><text fill="#000000" font-family="sans-serif" font-size="36" lengthAdjust="spacing" textLength="54.0352" x="2475.6239" y="2463.7997">0..*</text></g><!--reverse link CategoryStatistics to Statistics--><g class="link" data-entity-1="ent0025" data-entity-2="ent0024" data-link-type="composition" data-source-line="80" id="lnk66"><path codeLine="80" d="M2458.825,2472.7704 C2407.025,2437.2304 2332.65,2373.0794 2369.48,2307.6094 C2409.35,2236.7294 2496.97,2194.9694 2557.37,2173.5694" fill="none" id="CategoryStatistics-backto-Statistics" style="stroke:#404040;stroke-width:1.2;"/><polygon fill="#404040" points="2468.72,2479.5594,2466.0355,2472.8666,2458.825,2472.7704,2461.5095,2479.4632,2468.72,2479.5594" style="stroke:#404040;stroke-width:1.2;"/><text fill="#000000" font-family="sans-serif" font-size="36" lengthAdjust="spacing" textLength="238.0957" x="2370.48" y="2345.9805">isComposedOf</text><text fill="#000000" font-family="sans-serif" font-size="36" lengthAdjust="spacing" textLength="54.0352" x="2495.3448" y="2165.6941">1..*</text></g><!--reverse link Statistics to Statistics--><g class="link" data-entity-1="ent0024" data-entity-2="ent0024" data-link-type="composition" data-source-line="79" id="lnk65"><path codeLine="79" d="M2654.4383,2123.5071 C2681.8683,2106.3171 2703.48,2120.7694 2703.48,2154.1094 C2703.48,2187.4494 2671.7,2195.5294 2644.27,2178.3394" fill="none" id="Statistics-backto-Statistics" style="stroke:#404040;stroke-width:1.2;"/><polygon fill="#404040" points="2644.27,2129.8794,2651.4782,2130.0826,2654.4383,2123.5071,2647.23,2123.3038,2644.27,2129.8794" style="stroke:#404040;stroke-width:1.2;"/><text fill="#000000" font-family="sans-serif" font-size="36" lengthAdjust="spacing" textLength="58.043" x="2709.48" y="2168.9805">has</text><text fill="#000000" font-family="sans-serif" font-size="36" lengthAdjust="spacing" textLength="54.0352" x="2589.7589" y="2223.2016">0..*</text></g><!--link CategoryStatistics to Category--><g class="link" data-entity-1="ent0025" data-entity-2="ent0027" data-link-type="dependency" data-source-line="81" id="lnk67"><path codeLine="81" d="M2505.48,2527.6494 C2505.48,2589.9794 2505.48,2755.4794 2505.48,2818.2194" fill="none" id="CategoryStatistics-to-Category" style="stroke:#404040;stroke-width:1.2;"/><polygon fill="#404040" points="2505.48,2824.2194,2509.48,2815.2194,2505.48,2819.2194,2501.48,2815.2194,2505.48,2824.2194" style="stroke:#404040;stroke-width:1.2;"/><text fill="#000000" font-family="sans-serif" font-size="36" lengthAdjust="spacing" textLength="42.0117" x="2506.48" y="2690.9805">for</text><text fill="#000000" font-family="sans-serif" font-size="36" lengthAdjust="spacing" textLength="20.0215" x="2483.7864" y="2808.5782">1</text></g><!--reverse link StatisticsCollection to Statistics--><g class="link" data-entity-1="ent0026" data-entity-2="ent0024" data-link-type="composition" data-source-line="82" id="lnk68"><path codeLine="82" d="M2903.7437,1837.609 C2847.1337,1900.669 2698.24,2066.4994 2641.39,2129.8194" fill="none" id="StatisticsCollection-backto-Statistics" style="stroke:#404040;stroke-width:1.2;"/><polygon fill="#404040" points="2911.76,1828.6794,2904.7753,1830.4721,2903.7437,1837.609,2910.7284,1835.8163,2911.76,1828.6794" style="stroke:#404040;stroke-width:1.2;"/><text fill="#000000" font-family="sans-serif" font-size="36" lengthAdjust="spacing" textLength="238.0957" x="2795.48" y="1991.9805">isComposedOf</text><text fill="#000000" font-family="sans-serif" font-size="36" lengthAdjust="spacing" textLength="54.0352" x="2586.3438" y="2114.1954">1..*</text></g><?plantuml-src bLRRRjiu47tNLn3kMu4OITFkWx0euFe21DkYGUDjdsbf57D3aIf99VNk5kX7x1VkbtH4NKoHj5B3B-RXEJF3kP0op70WozNDPaKDNO7E5AiCauBy_-C_8Xz1FJ9uIlOi1v8nbN5e_qDPcGCfeTo1qeb-OAAYYfP4xsakdvYu9mNb6foTXLBoQRjdsOC0hSdL_9MpgQXuq52HLsyk7LJ872pgWZaKjEPc8uMvOty3kVxDsSmuHTl_9AHrjvHSAlBYzMNpG_2TL3ae7tLDeT0OnNQrWIDycNnFajRqh4cJ1ZCZL9FkFtcnMM_MotLFMIBCvVqdoD2T9OuGdsuJBvy4bpGVpFQ0J_u2kyNjZQMrVv6mt5mlDprXaJNL-mGQSsHfBk2JRuGsL6JmcIf6Tnoim0TzqLszQmY6FIA5rx2I9MN2IkDRQ62nVhEw7Wm0CWJmG1tYldGjwX8KRKxa20FKbrcB2v4l9PwhCawRM_tfRT_G2WgCCD-2AjjI7TT15-Iiw0n-L8CWG0SF55EdQ6P8NyXk_O5M5SvJMyinvhkytHyqooXt9HxcIxRmRUJ1MVlKzpAZHYgNFOO6mQcZD8rzrysEXmLnqLtDgMh2SLKXx0llZAepKol8NLs0nePmWsS0LIacZkFjOFuSt2fMKdNu0mvjeeUbtpHBMLPIO7FVIis6fWlGOCuCThGsBDFT4VgbJyJR1UwbEdY243xj0Qz43jaGMspZbDUHhu7aT-hl_rvS-BqO9paT62UCcoxn6war4lH9d1VqHTBVwIznTtOrywxkbEXwznScv6FXCUVpbxFmwap9O_Vt0r3T-1dBBkTpzE6qJahsL1_N0HkTEFN4S8P5Z3fwILAI8zE-RLZE6BrxKIB4mOZ3zelJXkwLU2IMnoFxrKW9VYx8xQ62VA7ZBgzcmKIcf3YkaYvyDqJtxKj99Ktpn53kuic8TExvWefVNBpjeptn6gR4q0VG_gxUA5cUjjSKFl8-ziRShUSjXQzGIceDUl8uxbjdSt4ZC9rvEpfDvIRLCPUvVMXtaFyf64vKDo9dHrxKmfPmKXWPpQyrvQnWKySUZPjp5wQ4wLKV_Rl3f85nthIiLGPd2CesAoLMU0lPNh2lDIGdMil9T_XDrBMAqoBFMvduCl9J4ElES-EPDd56CA6tPtf8GG4A4DF1esELLz4EAgGggT69Su4xhq7umZTXMbH3ZYz8I9ZmnN3Klc5uplK_tTuOFiVctigO9Eu3X_eBiFkzSINEbHZvfB2Y4_I05j4x-HhHnuaATNscXYyFMuqaEgs_v2EgdCvmMvActtu2?></g></svg>