<svg xmlns="http://www.w3.org/2000/svg" xmlns:xlink="http://www.w3.org/1999/xlink" contentStyleType="text/css" data-diagram-type="CLASS" height="1587px" preserveAspectRatio="none" style="width:835px;height:1587px;background:#FFFFFF;" version="1.1" viewBox="0 0 835 1587" width="835px" zoomAndPan="magnify"><?plantuml 1.2026.3?><defs/><g><g class="title" data-source-line="1"><text fill="#000000" font-family="sans-serif" font-size="14" font-weight="700" lengthAdjust="spacing" textLength="222.1611" x="303.0444" y="24.5332">CDIFDataDescription &#8212; overview</text></g><!--class Dataset--><g class="entity" data-qualified-name="Dataset" data-source-line="16" id="ent0002"><rect fill="#FEFECE" height="27.6094" rx="2.5" ry="2.5" style="stroke:#404040;stroke-width:0.5;" width="54.248" x="428.5" y="45.6094"/><text fill="#000000" font-family="sans-serif" font-size="14" lengthAdjust="spacing" textLength="48.248" x="431.5" y="65.1426">Dataset</text></g><!--class CatalogRecord--><g class="entity" data-qualified-name="CatalogRecord" data-source-line="17" id="ent0003"><rect fill="#FEFECE" height="27.6094" rx="2.5" ry="2.5" style="stroke:#404040;stroke-width:0.5;" width="99.3857" x="7" y="345.6094"/><text fill="#000000" font-family="sans-serif" font-size="14" lengthAdjust="spacing" textLength="93.3857" x="10" y="365.1426">CatalogRecord</text></g><!--class DataDownload--><g class="entity" data-qualified-name="DataDownload" data-source-line="18" id="ent0004"><rect fill="#FEFECE" height="27.6094" rx="2.5" ry="2.5" style="stroke:#404040;stroke-width:0.5;" width="97.834" x="360.5" y="345.6094"/><text fill="#000000" font-family="sans-serif" font-size="14" lengthAdjust="spacing" textLength="91.834" x="363.5" y="365.1426">DataDownload</text></g><!--class WebAPI--><g class="entity" data-qualified-name="WebAPI" data-source-line="19" id="ent0005"><rect fill="#FCF3CF" height="27.6094" rx="2.5" ry="2.5" style="stroke:#404040;stroke-width:0.5;" width="57.3516" x="490" y="345.6094"/><text fill="#000000" font-family="sans-serif" font-size="14" lengthAdjust="spacing" textLength="51.3516" x="493" y="365.1426">WebAPI</text></g><!--class ActionResult--><g class="entity" data-qualified-name="ActionResult" data-source-line="20" id="ent0006"><rect fill="#FCF3CF" height="27.6094" rx="2.5" ry="2.5" style="stroke:#404040;stroke-width:0.5;" width="84.5928" x="729" y="645.6094"/><text fill="#000000" font-family="sans-serif" font-size="14" lengthAdjust="spacing" textLength="78.5928" x="732" y="665.1426">ActionResult</text></g><!--class InstanceVariable--><g class="entity" data-qualified-name="InstanceVariable" data-source-line="21" id="ent0007"><rect fill="#FCF3CF" height="27.6094" rx="2.5" ry="2.5" style="stroke:#404040;stroke-width:0.5;" width="110.2891" x="170.5" y="1245.6094"/><text fill="#000000" font-family="sans-serif" font-size="14" lengthAdjust="spacing" textLength="104.2891" x="173.5" y="1265.1426">InstanceVariable</text></g><!--class AbstractMapping--><g class="entity" data-qualified-name="AbstractMapping" data-source-line="22" id="ent0008"><rect fill="#FCF3CF" height="27.6094" rx="2.5" ry="2.5" style="stroke:#404040;stroke-width:0.5;" width="111.0547" x="505" y="945.6094"/><text fill="#000000" font-family="sans-serif" font-size="14" font-style="italic" lengthAdjust="spacing" textLength="105.0547" x="508" y="965.1426">AbstractMapping</text></g><!--class PhysicalMapping--><g class="entity" data-qualified-name="PhysicalMapping" data-source-line="23" id="ent0009"><rect fill="#FCF3CF" height="27.6094" rx="2.5" ry="2.5" style="stroke:#404040;stroke-width:0.5;" width="111.834" x="384.5" y="1245.6094"/><text fill="#000000" font-family="sans-serif" font-size="14" lengthAdjust="spacing" textLength="105.834" x="387.5" y="1265.1426">PhysicalMapping</text></g><!--class TextMapping--><g class="entity" data-qualified-name="TextMapping" data-source-line="24" id="ent0010"><rect fill="#FCF3CF" height="27.6094" rx="2.5" ry="2.5" style="stroke:#404040;stroke-width:0.5;" width="86.9307" x="517" y="1245.6094"/><text fill="#000000" font-family="sans-serif" font-size="14" lengthAdjust="spacing" textLength="80.9307" x="520" y="1265.1426">TextMapping</text></g><!--class LocatorMapping--><g class="entity" data-qualified-name="LocatorMapping" data-source-line="25" id="ent0011"><rect fill="#FCF3CF" height="27.6094" rx="2.5" ry="2.5" style="stroke:#404040;stroke-width:0.5;" width="106.3994" x="624.5" y="1245.6094"/><text fill="#000000" font-family="sans-serif" font-size="14" lengthAdjust="spacing" textLength="100.3994" x="627.5" y="1265.1426">LocatorMapping</text></g><!--class AbstractDataSet--><g class="entity" data-qualified-name="AbstractDataSet" data-source-line="26" id="ent0012"><rect fill="#FCF3CF" height="27.6094" rx="2.5" ry="2.5" style="stroke:#404040;stroke-width:0.5;" width="107.9375" x="290.5" y="645.6094"/><text fill="#000000" font-family="sans-serif" font-size="14" font-style="italic" lengthAdjust="spacing" textLength="101.9375" x="293.5" y="665.1426">AbstractDataSet</text></g><!--class TabularTextDataSet--><g class="entity" data-qualified-name="TabularTextDataSet" data-source-line="27" id="ent0013"><rect fill="#FCF3CF" height="27.6094" rx="2.5" ry="2.5" style="stroke:#404040;stroke-width:0.5;" width="131.2822" x="334" y="945.6094"/><text fill="#000000" font-family="sans-serif" font-size="14" lengthAdjust="spacing" textLength="125.2822" x="337" y="965.1426">TabularTextDataSet</text></g><!--class StructuredDataSet--><g class="entity" data-qualified-name="StructuredDataSet" data-source-line="28" id="ent0014"><rect fill="#FCF3CF" height="27.6094" rx="2.5" ry="2.5" style="stroke:#404040;stroke-width:0.5;" width="121.1719" x="193" y="945.6094"/><text fill="#000000" font-family="sans-serif" font-size="14" lengthAdjust="spacing" textLength="115.1719" x="196" y="965.1426">StructuredDataSet</text></g><!--class DataFingerprint--><g class="entity" data-qualified-name="DataFingerprint" data-source-line="29" id="ent0015"><rect fill="#FCF3CF" height="27.6094" rx="2.5" ry="2.5" style="stroke:#404040;stroke-width:0.5;" width="102.4893" x="418.5" y="645.6094"/><text fill="#000000" font-family="sans-serif" font-size="14" lengthAdjust="spacing" textLength="96.4893" x="421.5" y="665.1426">DataFingerprint</text></g><!--class PrimaryKey--><g class="entity" data-qualified-name="PrimaryKey" data-source-line="30" id="ent0016"><rect fill="#FAE5D3" height="27.6094" rx="2.5" ry="2.5" style="stroke:#404040;stroke-width:0.5;" width="78.3447" x="572.5" y="345.6094"/><text fill="#000000" font-family="sans-serif" font-size="14" lengthAdjust="spacing" textLength="72.3447" x="575.5" y="365.1426">PrimaryKey</text></g><!--class Statistics--><g class="entity" data-qualified-name="Statistics" data-source-line="31" id="ent0017"><rect fill="#FCF3CF" height="27.6094" rx="2.5" ry="2.5" style="stroke:#404040;stroke-width:0.5;" width="62.0137" x="715.5" y="345.6094"/><text fill="#000000" font-family="sans-serif" font-size="14" lengthAdjust="spacing" textLength="56.0137" x="718.5" y="365.1426">Statistics</text></g><!--class SubstantiveValueDomain--><g class="entity" data-qualified-name="SubstantiveValueDomain" data-source-line="32" id="ent0018"><rect fill="#FCF3CF" height="27.6094" rx="2.5" ry="2.5" style="stroke:#404040;stroke-width:0.5;" width="163.2061" x="27" y="1545.6094"/><text fill="#000000" font-family="sans-serif" font-size="14" lengthAdjust="spacing" textLength="157.2061" x="30" y="1565.1426">SubstantiveValueDomain</text></g><!--class SentinelValueDomain--><g class="entity" data-qualified-name="SentinelValueDomain" data-source-line="33" id="ent0019"><rect fill="#FCF3CF" height="27.6094" rx="2.5" ry="2.5" style="stroke:#404040;stroke-width:0.5;" width="140.6406" x="273" y="1545.6094"/><text fill="#000000" font-family="sans-serif" font-size="14" lengthAdjust="spacing" textLength="134.6406" x="276" y="1565.1426">SentinelValueDomain</text></g><!--reverse link AbstractMapping to PhysicalMapping--><g class="link" data-entity-1="ent0008" data-entity-2="ent0009" data-link-type="extension" data-source-line="34" id="lnk20"><path codeLine="34" d="M548.4659,990.4963 C528.5959,1039.8363 465.51,1196.4894 445.75,1245.5694" fill="none" id="AbstractMapping-backto-PhysicalMapping" style="stroke:#404040;stroke-width:1.2;"/><polygon fill="none" points="555.19,973.7994,542.9003,988.2549,554.0315,992.7376,555.19,973.7994" style="stroke:#404040;stroke-width:1.2;"/></g><!--reverse link AbstractMapping to TextMapping--><g class="link" data-entity-1="ent0008" data-entity-2="ent0010" data-link-type="extension" data-source-line="35" id="lnk21"><path codeLine="35" d="M560.5,991.7994 C560.5,1041.1394 560.5,1196.4894 560.5,1245.5694" fill="none" id="AbstractMapping-backto-TextMapping" style="stroke:#404040;stroke-width:1.2;"/><polygon fill="none" points="560.5,973.7994,554.5,991.7994,566.5,991.7994,560.5,973.7994" style="stroke:#404040;stroke-width:1.2;"/></g><!--reverse link AbstractMapping to LocatorMapping--><g class="link" data-entity-1="ent0008" data-entity-2="ent0011" data-link-type="extension" data-source-line="36" id="lnk22"><path codeLine="36" d="M572.2578,990.5545 C591.6278,1039.8945 653.11,1196.4894 672.38,1245.5694" fill="none" id="AbstractMapping-backto-LocatorMapping" style="stroke:#404040;stroke-width:1.2;"/><polygon fill="none" points="565.68,973.7994,566.6727,992.7471,577.8428,988.3619,565.68,973.7994" style="stroke:#404040;stroke-width:1.2;"/></g><!--reverse link AbstractDataSet to TabularTextDataSet--><g class="link" data-entity-1="ent0012" data-entity-2="ent0013" data-link-type="extension" data-source-line="37" id="lnk23"><path codeLine="37" d="M350.1982,691.5002 C359.3082,740.8402 388.04,896.4894 397.09,945.5694" fill="none" id="AbstractDataSet-backto-TabularTextDataSet" style="stroke:#404040;stroke-width:1.2;"/><polygon fill="none" points="346.93,673.7994,344.298,692.5896,356.0985,690.4108,346.93,673.7994" style="stroke:#404040;stroke-width:1.2;"/></g><!--reverse link AbstractDataSet to StructuredDataSet--><g class="link" data-entity-1="ent0012" data-entity-2="ent0014" data-link-type="extension" data-source-line="38" id="lnk24"><path codeLine="38" d="M335.2152,691.0153 C320.1552,740.3553 272.47,896.4894 257.48,945.5694" fill="none" id="AbstractDataSet-backto-StructuredDataSet" style="stroke:#404040;stroke-width:1.2;"/><polygon fill="none" points="340.47,673.7994,329.4766,689.2637,340.9538,692.7669,340.47,673.7994" style="stroke:#404040;stroke-width:1.2;"/></g><!--reverse link Dataset to CatalogRecord--><g class="link" data-entity-1="ent0002" data-entity-2="ent0003" data-link-type="composition" data-source-line="39" id="lnk25"><path codeLine="39" d="M416.2805,60.3554 C341.5705,61.0154 145.05,74.2794 56.5,198.6094 C24.27,243.8594 42.4,316.0594 51.87,345.4894" fill="none" id="Dataset-backto-CatalogRecord" style="stroke:#404040;stroke-width:1.2;"/><polygon fill="#404040" points="428.28,60.2494,422.2449,56.3025,416.2805,60.3554,422.3156,64.3022,428.28,60.2494" style="stroke:#404040;stroke-width:1.2;"/><text fill="#000000" font-family="sans-serif" font-size="16" lengthAdjust="spacing" textLength="67.5859" x="57.5" y="216.2188">subjectOf</text><text fill="#000000" font-family="sans-serif" font-size="16" lengthAdjust="spacing" textLength="8.8984" x="41.0962" y="334.1944">1</text></g><!--reverse link Dataset to InstanceVariable--><g class="link" data-entity-1="ent0002" data-entity-2="ent0007" data-link-type="composition" data-source-line="40" id="lnk26"><path codeLine="40" d="M417.333,75.3328 C341.163,106.0928 141.5,200.9694 141.5,358.6094 C141.5,358.6094 141.5,358.6094 141.5,960.6094 C141.5,1074.5594 199.11,1204.1494 218.91,1245.3294" fill="none" id="Dataset-backto-InstanceVariable" style="stroke:#404040;stroke-width:1.2;"/><polygon fill="#404040" points="428.46,70.8394,421.3987,69.3771,417.333,75.3328,424.3943,76.7951,428.46,70.8394" style="stroke:#404040;stroke-width:1.2;"/><text fill="#000000" font-family="sans-serif" font-size="16" lengthAdjust="spacing" textLength="127.1797" x="142.5" y="666.2188">variableMeasured</text><text fill="#000000" font-family="sans-serif" font-size="16" lengthAdjust="spacing" textLength="24.0156" x="188.7068" y="1233.9814">1..*</text></g><!--reverse link Dataset to PrimaryKey--><g class="link" data-entity-1="ent0002" data-entity-2="ent0016" data-link-type="composition" data-source-line="41" id="lnk27"><path codeLine="41" d="M479.6918,81.8544 C505.0618,104.6744 546.79,146.0594 573.5,198.6094 C599.12,248.9994 607.84,317.1594 610.48,345.4494" fill="none" id="Dataset-backto-PrimaryKey" style="stroke:#404040;stroke-width:1.2;"/><polygon fill="#404040" points="470.77,73.8294,472.5559,80.8158,479.6918,81.8544,477.9059,74.868,470.77,73.8294" style="stroke:#404040;stroke-width:1.2;"/><text fill="#000000" font-family="sans-serif" font-size="16" lengthAdjust="spacing" textLength="108.4766" x="584.5" y="216.2188">hasPrimaryKey</text><text fill="#000000" font-family="sans-serif" font-size="16" lengthAdjust="spacing" textLength="26.6875" x="579.8926" y="334.1412">0..1</text></g><!--reverse link Dataset to Statistics--><g class="link" data-entity-1="ent0002" data-entity-2="ent0017" data-link-type="composition" data-source-line="42" id="lnk28"><path codeLine="42" d="M494.01,72.1638 C544.21,88.2138 640.44,125.7594 698.5,198.6094 C734.65,243.9694 743.61,316.1094 745.8,345.4994" fill="none" id="Dataset-backto-Statistics" style="stroke:#404040;stroke-width:1.2;"/><polygon fill="#404040" points="482.58,68.5094,487.0769,74.1466,494.01,72.1638,489.5131,66.5266,482.58,68.5094" style="stroke:#404040;stroke-width:1.2;"/><text fill="#000000" font-family="sans-serif" font-size="16" lengthAdjust="spacing" textLength="61.3438" x="711.5" y="216.2188">statistics</text><text fill="#000000" font-family="sans-serif" font-size="16" lengthAdjust="spacing" textLength="24.0156" x="717.5934" y="334.2077">0..*</text></g><!--reverse link Dataset to DataDownload--><g class="link" data-entity-1="ent0002" data-entity-2="ent0004" data-link-type="composition" data-source-line="43" id="lnk29"><path codeLine="43" d="M443.2924,84.587 C431.2824,108.657 412.22,150.7494 403.5,198.6094 C393.74,252.2094 402.44,317.5194 407.06,345.1994" fill="none" id="Dataset-backto-DataDownload" style="stroke:#404040;stroke-width:1.2;"/><polygon fill="#404040" points="448.65,73.8494,442.392,77.4323,443.2924,84.587,449.5504,81.004,448.65,73.8494" style="stroke:#404040;stroke-width:1.2;"/><text fill="#000000" font-family="sans-serif" font-size="16" lengthAdjust="spacing" textLength="77.375" x="404.5" y="216.2188">distribution</text><text fill="#000000" font-family="sans-serif" font-size="16" lengthAdjust="spacing" textLength="24.0156" x="378.4862" y="334.1102">0..*</text></g><!--reverse link Dataset to WebAPI--><g class="link" data-entity-1="ent0002" data-entity-2="ent0005" data-link-type="composition" data-source-line="44" id="lnk30"><path codeLine="44" d="M460.7718,85.5399 C471.2018,134.8799 505.37,296.4894 515.74,345.5694" fill="none" id="Dataset-backto-WebAPI" style="stroke:#404040;stroke-width:1.2;"/><polygon fill="#404040" points="458.29,73.7994,455.6174,80.4969,460.7718,85.5399,463.4444,78.8424,458.29,73.7994" style="stroke:#404040;stroke-width:1.2;"/><text fill="#000000" font-family="sans-serif" font-size="16" lengthAdjust="spacing" textLength="77.375" x="490.5" y="216.2188">distribution</text><text fill="#000000" font-family="sans-serif" font-size="16" lengthAdjust="spacing" textLength="24.0156" x="486.6085" y="334.0036">0..*</text></g><!--reverse link DataDownload to AbstractMapping--><g class="link" data-entity-1="ent0004" data-entity-2="ent0008" data-link-type="composition" data-source-line="45" id="lnk31"><path codeLine="45" d="M435.5736,381.3352 C462.7036,403.6152 506.1,444.1994 528.5,498.6094 C596.31,663.3194 570.42,889.1994 562.48,945.4994" fill="none" id="DataDownload-backto-AbstractMapping" style="stroke:#404040;stroke-width:1.2;"/><polygon fill="#404040" points="426.3,373.7194,428.3982,380.6185,435.5736,381.3352,433.4754,374.4361,426.3,373.7194" style="stroke:#404040;stroke-width:1.2;"/><text fill="#000000" font-family="sans-serif" font-size="16" lengthAdjust="spacing" textLength="146.75" x="569.5" y="666.2188">hasPhysicalMapping</text><text fill="#000000" font-family="sans-serif" font-size="16" lengthAdjust="spacing" textLength="24.0156" x="535.1544" y="934.2077">0..*</text></g><!--reverse link DataDownload to AbstractDataSet--><g class="link" data-entity-1="ent0004" data-entity-2="ent0012" data-link-type="aggregation" data-source-line="46" id="lnk32"><path codeLine="46" d="M395.0478,383.9141 C380.6078,407.6741 357.44,449.7794 346.5,498.6094 C334.54,552.0094 339.8,617.9694 342.86,645.5394" fill="none" id="DataDownload-backto-AbstractDataSet" style="stroke:#404040;stroke-width:1.2;"/><polygon fill="none" points="401.28,373.6594,394.7456,376.7093,395.0478,383.9141,401.5821,380.8641,401.28,373.6594" style="stroke:#404040;stroke-width:1.2;"/><text fill="#000000" font-family="sans-serif" font-size="16" lengthAdjust="spacing" textLength="92.4922" x="347.5" y="516.2188">alsoTypedAs</text><text fill="#000000" font-family="sans-serif" font-size="16" lengthAdjust="spacing" textLength="26.6875" x="311.9564" y="633.9633">0..1</text></g><!--reverse link DataDownload to DataFingerprint--><g class="link" data-entity-1="ent0004" data-entity-2="ent0015" data-link-type="composition" data-source-line="47" id="lnk33"><path codeLine="47" d="M416.8368,385.3315 C424.0268,409.7715 436.01,452.2794 445.5,498.6094 C456.55,552.5394 464.75,617.6794 467.98,645.2494" fill="none" id="DataDownload-backto-DataFingerprint" style="stroke:#404040;stroke-width:1.2;"/><polygon fill="#404040" points="413.45,373.8194,411.306,380.7044,416.8368,385.3315,418.9808,378.4465,413.45,373.8194" style="stroke:#404040;stroke-width:1.2;"/><text fill="#000000" font-family="sans-serif" font-size="16" lengthAdjust="spacing" textLength="71.1484" x="451.5" y="516.2188">fingerprint</text><text fill="#000000" font-family="sans-serif" font-size="16" lengthAdjust="spacing" textLength="26.6875" x="437.3833" y="634.1762">0..1</text></g><!--reverse link WebAPI to ActionResult--><g class="link" data-entity-1="ent0005" data-entity-2="ent0006" data-link-type="composition" data-source-line="48" id="lnk34"><path codeLine="48" d="M537.4654,382.948 C579.3454,432.288 718.76,596.4894 760.43,645.5694" fill="none" id="WebAPI-backto-ActionResult" style="stroke:#404040;stroke-width:1.2;"/><polygon fill="#404040" points="529.7,373.7994,530.5332,380.9622,537.4654,382.948,536.6323,375.7852,529.7,373.7994" style="stroke:#404040;stroke-width:1.2;"/><text fill="#000000" font-family="sans-serif" font-size="16" lengthAdjust="spacing" textLength="150.3125" x="653.5" y="516.2188">potentialActionResult</text><text fill="#000000" font-family="sans-serif" font-size="16" lengthAdjust="spacing" textLength="24.0156" x="728.5724" y="634.0036">0..*</text></g><!--reverse link ActionResult to AbstractMapping--><g class="link" data-entity-1="ent0006" data-entity-2="ent0008" data-link-type="composition" data-source-line="49" id="lnk35"><path codeLine="49" d="M755.2263,683.5935 C720.2963,732.9335 604.48,896.4894 569.73,945.5694" fill="none" id="ActionResult-backto-AbstractMapping" style="stroke:#404040;stroke-width:1.2;"/><polygon fill="#404040" points="762.16,673.7994,755.4285,676.3852,755.2263,683.5935,761.9579,681.0076,762.16,673.7994" style="stroke:#404040;stroke-width:1.2;"/><text fill="#000000" font-family="sans-serif" font-size="16" lengthAdjust="spacing" textLength="146.75" x="672.5" y="816.2188">hasPhysicalMapping</text><text fill="#000000" font-family="sans-serif" font-size="16" lengthAdjust="spacing" textLength="24.0156" x="577.0211" y="934.0036">0..*</text></g><!--link InstanceVariable to SubstantiveValueDomain--><g class="link" data-entity-1="ent0007" data-entity-2="ent0018" data-link-type="dependency" data-source-line="50" id="lnk36"><path codeLine="50" d="M208.55,1273.6194 C181.27,1295.7694 128.62,1343.7594 108.5,1398.6094 C89.65,1449.9794 98.6225,1511.1581 104.3125,1539.3381" fill="none" id="InstanceVariable-to-SubstantiveValueDomain" style="stroke:#404040;stroke-width:1.2;"/><polygon fill="#404040" points="105.5,1545.2194,107.6396,1535.6057,104.5104,1540.3183,99.7978,1537.1891,105.5,1545.2194" style="stroke:#404040;stroke-width:1.2;"/><text fill="#000000" font-family="sans-serif" font-size="16" lengthAdjust="spacing" textLength="208.1016" x="109.5" y="1416.2188">takesSubstantiveValuesFrom</text><text fill="#000000" font-family="sans-serif" font-size="16" lengthAdjust="spacing" textLength="26.6875" x="74.4767" y="1534.1366">0..1</text></g><!--link InstanceVariable to SentinelValueDomain--><g class="link" data-entity-1="ent0007" data-entity-2="ent0019" data-link-type="dependency" data-source-line="51" id="lnk37"><path codeLine="51" d="M237.67,1273.9094 C258.24,1297.2294 299.62,1347.8694 319.5,1398.6094 C339.69,1450.1294 342.9219,1511.1102 343.3819,1539.2402" fill="none" id="InstanceVariable-to-SentinelValueDomain" style="stroke:#404040;stroke-width:1.2;"/><polygon fill="#404040" points="343.48,1545.2394,347.3323,1536.1752,343.3982,1540.24,339.3334,1536.306,343.48,1545.2394" style="stroke:#404040;stroke-width:1.2;"/><text fill="#000000" font-family="sans-serif" font-size="16" lengthAdjust="spacing" textLength="182.3125" x="328.5" y="1416.2188">takesSentinelValuesFrom</text><text fill="#000000" font-family="sans-serif" font-size="16" lengthAdjust="spacing" textLength="24.0156" x="315.7084" y="1534.163">0..*</text></g><!--link AbstractMapping to InstanceVariable--><g class="link" data-entity-1="ent0008" data-entity-2="ent0007" data-link-type="dependency" data-source-line="52" id="lnk38"><path codeLine="52" d="M545.67,973.7994 C490.21,1023.1394 299.8128,1192.5014 244.6428,1241.5814" fill="none" id="AbstractMapping-to-InstanceVariable" style="stroke:#404040;stroke-width:1.2;"/><polygon fill="#404040" points="240.16,1245.5694,249.5429,1242.5759,243.8957,1242.246,244.2256,1236.5988,240.16,1245.5694" style="stroke:#404040;stroke-width:1.2;"/><text fill="#000000" font-family="sans-serif" font-size="16" lengthAdjust="spacing" textLength="53.3438" x="404.5" y="1116.2188">formats</text><text fill="#000000" font-family="sans-serif" font-size="16" lengthAdjust="spacing" textLength="8.8984" x="235.9291" y="1234.0036">1</text></g><?plantuml-src bLNRRjim37ttLmZfMu44IIzxC8O1MH83mLQiQ8ljcPQPHeii6PASBBi0-uX-uRvayYsH9HV3a1Vny1oI4cd6CCEHB9RhP0a6bgYfOeLXKf0_lr-8tAFQCpn4MvOXeKnHZiqPyy8SIOvvYaf7UiT40GfoehUGoGCJpsG3NAFZcIib3qzRHdS2jIQpoPNZL21s6WjoTJjrK24ph54Np7039JU95EQHVKSoU-CuAGSR-qT4cdGBoQKY5pVJwcV1zr9bg7pK3MM5nYYMbWRFy4tqAugQqAFgcJIQ4G5DsZEvI5R9Qh7gA0iBS_dyWDIcguaznAVN3oyFWal8Jc4xm2T_mNH-lwvfpT4I5idr8ka8Srfrxm6rVQEQvW8-UIsq0K7nCoW6ASTQu8Cd4QJQAA26TAbQ-mwAmdQyoTR7_8JtswDc5BWhyJ1VyeJVUXaSswT-b1ICL2wx3_tpAjNJFxRTzR2WBaXB3gegnrM5i2zyDAgafbIOkRe0zMKLdDWxe2eK4-S1TB3WjHNBGHq_uB5vw9DfYVFLxVBwN18OfWsZkgsbCuFQoxGQ3iFsTZnuYKkP0nEDQD0L143B4CW3TOYVfFvClVqv7ljJCqnoPcMOq1-Fo6zv4oJew30lw63KxOTBwntDHjuQY8akqwz8pQUDnvnCBaVXPnYJVNkyGz1LdhviEfdO74wJOx85VRO3jatYTDgMSpA6gBsj59FCCkizQPVB4BtTJWF4Kn27xJUdATrhSKyiprVskn4J-zSZduu5PdCzd78s2hwTc6pELjIMxvRexj6O5D9K8mlSnQCUwN_l5tHyF7xNLVlArnKJ0plKlbSdIkQlnwiQF_2zTS5SLnF9BxyED1kSqOrKEHWT_GK0?></g></svg>