<svg xmlns="http://www.w3.org/2000/svg" xmlns:xlink="http://www.w3.org/1999/xlink" contentStyleType="text/css" data-diagram-type="CLASS" height="705px" preserveAspectRatio="none" style="width:1209px;height:705px;background:#FFFFFF;" version="1.1" viewBox="0 0 1209 705" width="1209px" zoomAndPan="magnify"><?plantuml 1.2026.3?><defs/><g><g class="title" data-source-line="1"><text fill="#000000" font-family="sans-serif" font-size="14" font-weight="700" lengthAdjust="spacing" textLength="222.1611" x="489.9944" y="24.5332">CDIFDataDescription &#8212; overview</text></g><!--class AbstractVariable--><g class="entity" data-qualified-name="AbstractVariable" data-source-line="12" id="ent0002"><rect fill="#FCF3CF" height="25.0938" rx="2.5" ry="2.5" style="stroke:#404040;stroke-width:0.5;" width="94.043" x="303" y="45.6094"/><text fill="#000000" font-family="sans-serif" font-size="12" font-style="italic" lengthAdjust="spacing" textLength="88.043" x="306" y="63.0664">AbstractVariable</text></g><!--class InstanceVariable--><g class="entity" data-qualified-name="InstanceVariable" data-source-line="13" id="ent0003"><rect fill="#FAE5D3" height="25.0938" rx="2.5" ry="2.5" style="stroke:#404040;stroke-width:0.5;" width="95.3906" x="422.5" y="253.1094"/><text fill="#000000" font-family="sans-serif" font-size="12" lengthAdjust="spacing" textLength="89.3906" x="425.5" y="270.5664">InstanceVariable</text></g><!--class VariableMeasured--><g class="entity" data-qualified-name="VariableMeasured" data-source-line="14" id="ent0004"><rect fill="#FCF3CF" height="25.0938" rx="2.5" ry="2.5" style="stroke:#404040;stroke-width:0.5;" width="103.3887" x="366.5" y="148.6094"/><text fill="#000000" font-family="sans-serif" font-size="12" lengthAdjust="spacing" textLength="97.3887" x="369.5" y="166.0664">VariableMeasured</text></g><!--class DataDownload--><g class="entity" data-qualified-name="DataDownload" data-source-line="15" id="ent0005"><rect fill="#FCF3CF" height="25.0938" rx="2.5" ry="2.5" style="stroke:#404040;stroke-width:0.5;" width="84.7148" x="820.5" y="45.6094"/><text fill="#000000" font-family="sans-serif" font-size="12" lengthAdjust="spacing" textLength="78.7148" x="823.5" y="63.0664">DataDownload</text></g><!--class PrimaryKey--><g class="entity" data-qualified-name="PrimaryKey" data-source-line="16" id="ent0006"><rect fill="#FAE5D3" height="25.0938" rx="2.5" ry="2.5" style="stroke:#404040;stroke-width:0.5;" width="68.0098" x="536" y="45.6094"/><text fill="#000000" font-family="sans-serif" font-size="12" lengthAdjust="spacing" textLength="62.0098" x="539" y="63.0664">PrimaryKey</text></g><!--class PrimaryKeyComponent--><g class="entity" data-qualified-name="PrimaryKeyComponent" data-source-line="17" id="ent0007"><rect fill="#FAE5D3" height="25.0938" rx="2.5" ry="2.5" style="stroke:#404040;stroke-width:0.5;" width="130.0488" x="505" y="148.6094"/><text fill="#000000" font-family="sans-serif" font-size="12" lengthAdjust="spacing" textLength="124.0488" x="508" y="166.0664">PrimaryKeyComponent</text></g><!--class Statistic--><g class="entity" data-qualified-name="Statistic" data-source-line="18" id="ent0008"><rect fill="#FCF3CF" height="25.0938" rx="2.5" ry="2.5" style="stroke:#404040;stroke-width:0.5;" width="48.0117" x="9" y="45.6094"/><text fill="#000000" font-family="sans-serif" font-size="12" lengthAdjust="spacing" textLength="42.0117" x="12" y="63.0664">Statistic</text></g><!--class Statistics--><g class="entity" data-qualified-name="Statistics" data-source-line="19" id="ent0009"><rect fill="#FCF3CF" height="25.0938" rx="2.5" ry="2.5" style="stroke:#404040;stroke-width:0.5;" width="54.0117" x="285" y="460.6094"/><text fill="#000000" font-family="sans-serif" font-size="12" lengthAdjust="spacing" textLength="48.0117" x="288" y="478.0664">Statistics</text></g><!--class CategoryStatistics--><g class="entity" data-qualified-name="CategoryStatistics" data-source-line="20" id="ent0010"><rect fill="#FCF3CF" height="25.0938" rx="2.5" ry="2.5" style="stroke:#404040;stroke-width:0.5;" width="102.7031" x="472.5" y="563.6094"/><text fill="#000000" font-family="sans-serif" font-size="12" lengthAdjust="spacing" textLength="96.7031" x="475.5" y="581.0664">CategoryStatistics</text></g><!--class StatisticsCollection--><g class="entity" data-qualified-name="StatisticsCollection" data-source-line="21" id="ent0011"><rect fill="#FCF3CF" height="25.0938" rx="2.5" ry="2.5" style="stroke:#404040;stroke-width:0.5;" width="106.7051" x="361.5" y="357.6094"/><text fill="#000000" font-family="sans-serif" font-size="12" lengthAdjust="spacing" textLength="100.7051" x="364.5" y="375.0664">StatisticsCollection</text></g><!--class Category--><g class="entity" data-qualified-name="Category" data-source-line="22" id="ent0012"><rect fill="#FCF3CF" height="25.0938" rx="2.5" ry="2.5" style="stroke:#404040;stroke-width:0.5;" width="54.6914" x="496.5" y="666.6094"/><text fill="#000000" font-family="sans-serif" font-size="12" lengthAdjust="spacing" textLength="48.6914" x="499.5" y="684.0664">Category</text></g><!--class SubstantiveValueDomain--><g class="entity" data-qualified-name="SubstantiveValueDomain" data-source-line="23" id="ent0013"><rect fill="#FAE5D3" height="25.0938" rx="2.5" ry="2.5" style="stroke:#404040;stroke-width:0.5;" width="140.748" x="683.5" y="357.6094"/><text fill="#000000" font-family="sans-serif" font-size="12" lengthAdjust="spacing" textLength="134.748" x="686.5" y="375.0664">SubstantiveValueDomain</text></g><!--class SentinelValueDomain--><g class="entity" data-qualified-name="SentinelValueDomain" data-source-line="24" id="ent0014"><rect fill="#FAE5D3" height="25.0938" rx="2.5" ry="2.5" style="stroke:#404040;stroke-width:0.5;" width="121.4063" x="940.5" y="357.6094"/><text fill="#000000" font-family="sans-serif" font-size="12" lengthAdjust="spacing" textLength="115.4063" x="943.5" y="375.0664">SentinelValueDomain</text></g><!--class ValueAndConceptDescription--><g class="entity" data-qualified-name="ValueAndConceptDescription" data-source-line="25" id="ent0015"><rect fill="#FAE5D3" height="25.0938" rx="2.5" ry="2.5" style="stroke:#404040;stroke-width:0.5;" width="162.7617" x="776.5" y="460.6094"/><text fill="#000000" font-family="sans-serif" font-size="12" lengthAdjust="spacing" textLength="156.7617" x="779.5" y="478.0664">ValueAndConceptDescription</text></g><!--class EnumerationDomain--><g class="entity" data-qualified-name="EnumerationDomain" data-source-line="26" id="ent0016"><rect fill="#FAE5D3" height="25.0938" rx="2.5" ry="2.5" style="stroke:#404040;stroke-width:0.5;" width="115.3887" x="1021.5" y="460.6094"/><text fill="#000000" font-family="sans-serif" font-size="12" lengthAdjust="spacing" textLength="109.3887" x="1024.5" y="478.0664">EnumerationDomain</text></g><!--class PhysicalMapping--><g class="entity" data-qualified-name="PhysicalMapping" data-source-line="27" id="ent0017"><rect fill="#FCF3CF" height="25.0938" rx="2.5" ry="2.5" style="stroke:#404040;stroke-width:0.5;" width="96.7148" x="670.5" y="148.6094"/><text fill="#000000" font-family="sans-serif" font-size="12" lengthAdjust="spacing" textLength="90.7148" x="673.5" y="166.0664">PhysicalMapping</text></g><!--class TextMapping--><g class="entity" data-qualified-name="TextMapping" data-source-line="28" id="ent0018"><rect fill="#FCF3CF" height="25.0938" rx="2.5" ry="2.5" style="stroke:#404040;stroke-width:0.5;" width="75.3691" x="677.5" y="253.1094"/><text fill="#000000" font-family="sans-serif" font-size="12" lengthAdjust="spacing" textLength="69.3691" x="680.5" y="270.5664">TextMapping</text></g><!--class LocatorMapping--><g class="entity" data-qualified-name="LocatorMapping" data-source-line="29" id="ent0019"><rect fill="#FCF3CF" height="25.0938" rx="2.5" ry="2.5" style="stroke:#404040;stroke-width:0.5;" width="92.0566" x="788" y="253.1094"/><text fill="#000000" font-family="sans-serif" font-size="12" lengthAdjust="spacing" textLength="86.0566" x="791" y="270.5664">LocatorMapping</text></g><!--class TabularTextDataSet--><g class="entity" data-qualified-name="TabularTextDataSet" data-source-line="30" id="ent0020"><rect fill="#FAE5D3" height="25.0938" rx="2.5" ry="2.5" style="stroke:#404040;stroke-width:0.5;" width="113.3848" x="806.5" y="148.6094"/><text fill="#000000" font-family="sans-serif" font-size="12" lengthAdjust="spacing" textLength="107.3848" x="809.5" y="166.0664">TabularTextDataSet</text></g><!--class StructuredDataSet--><g class="entity" data-qualified-name="StructuredDataSet" data-source-line="31" id="ent0021"><rect fill="#FAE5D3" height="25.0938" rx="2.5" ry="2.5" style="stroke:#404040;stroke-width:0.5;" width="104.7188" x="954.5" y="148.6094"/><text fill="#000000" font-family="sans-serif" font-size="12" lengthAdjust="spacing" textLength="98.7188" x="957.5" y="166.0664">StructuredDataSet</text></g><!--class DataFingerprint--><g class="entity" data-qualified-name="DataFingerprint" data-source-line="32" id="ent0022"><rect fill="#FCF3CF" height="25.0938" rx="2.5" ry="2.5" style="stroke:#404040;stroke-width:0.5;" width="88.7051" x="92.5" y="45.6094"/><text fill="#000000" font-family="sans-serif" font-size="12" lengthAdjust="spacing" textLength="82.7051" x="95.5" y="63.0664">DataFingerprint</text></g><!--class Concept--><g class="entity" data-qualified-name="Concept" data-source-line="33" id="ent0023"><rect fill="#FCF3CF" height="25.0938" rx="2.5" ry="2.5" style="stroke:#404040;stroke-width:0.5;" width="50.6953" x="216.5" y="45.6094"/><text fill="#000000" font-family="sans-serif" font-size="12" lengthAdjust="spacing" textLength="44.6953" x="219.5" y="63.0664">Concept</text></g><!--class Identifier--><g class="entity" data-qualified-name="Identifier" data-source-line="34" id="ent0024"><rect fill="#FCF3CF" height="25.0938" rx="2.5" ry="2.5" style="stroke:#404040;stroke-width:0.5;" width="52.0254" x="7" y="148.6094"/><text fill="#000000" font-family="sans-serif" font-size="12" lengthAdjust="spacing" textLength="46.0254" x="10" y="166.0664">Identifier</text></g><!--class DefinedTerm--><g class="entity" data-qualified-name="DefinedTerm" data-source-line="35" id="ent0025"><rect fill="#FCF3CF" height="25.0938" rx="2.5" ry="2.5" style="stroke:#404040;stroke-width:0.5;" width="75.3574" x="94.5" y="148.6094"/><text fill="#000000" font-family="sans-serif" font-size="12" lengthAdjust="spacing" textLength="69.3574" x="97.5" y="166.0664">DefinedTerm</text></g><!--reverse link AbstractVariable to InstanceVariable--><g class="link" data-entity-1="ent0002" data-entity-2="ent0003" data-link-type="extension" data-source-line="36" id="lnk26"><path codeLine="36" d="M342.0508,88.3654 C336.4408,110.0454 332.04,139.6394 349,173.6094 C368.37,212.4094 413.04,238.9994 442.34,252.9994" fill="none" id="AbstractVariable-backto-InstanceVariable" style="stroke:#404040;stroke-width:1.2;"/><polygon fill="none" points="346.56,70.9394,336.2421,86.8623,347.8595,89.8685,346.56,70.9394" style="stroke:#404040;stroke-width:1.2;"/></g><!--reverse link AbstractVariable to VariableMeasured--><g class="link" data-entity-1="ent0002" data-entity-2="ent0004" data-link-type="extension" data-source-line="37" id="lnk27"><path codeLine="37" d="M367.8574,85.6275 C380.9074,104.9975 396.96,128.8494 410.08,148.3494" fill="none" id="AbstractVariable-backto-VariableMeasured" style="stroke:#404040;stroke-width:1.2;"/><polygon fill="none" points="357.8,70.6994,362.8814,88.98,372.8334,82.275,357.8,70.6994" style="stroke:#404040;stroke-width:1.2;"/></g><!--reverse link PhysicalMapping to TextMapping--><g class="link" data-entity-1="ent0017" data-entity-2="ent0018" data-link-type="extension" data-source-line="38" id="lnk28"><path codeLine="38" d="M717.8395,191.8557 C717.0695,211.6257 716.22,233.3094 715.45,252.9894" fill="none" id="PhysicalMapping-backto-TextMapping" style="stroke:#404040;stroke-width:1.2;"/><polygon fill="none" points="718.54,173.8694,711.844,191.6222,723.8349,192.0892,718.54,173.8694" style="stroke:#404040;stroke-width:1.2;"/></g><!--reverse link PhysicalMapping to LocatorMapping--><g class="link" data-entity-1="ent0017" data-entity-2="ent0019" data-link-type="extension" data-source-line="39" id="lnk29"><path codeLine="39" d="M745.6297,185.8433 C767.8197,205.6133 798.88,233.3094 820.96,252.9894" fill="none" id="PhysicalMapping-backto-LocatorMapping" style="stroke:#404040;stroke-width:1.2;"/><polygon fill="none" points="732.19,173.8694,741.6383,190.3232,749.621,181.3634,732.19,173.8694" style="stroke:#404040;stroke-width:1.2;"/></g><!--reverse link DataDownload to TabularTextDataSet--><g class="link" data-entity-1="ent0005" data-entity-2="ent0020" data-link-type="extension" data-source-line="40" id="lnk30"><path codeLine="40" d="M863,88.6994 C863,108.0694 863,128.8494 863,148.3494" fill="none" id="DataDownload-backto-TabularTextDataSet" style="stroke:#404040;stroke-width:1.2;"/><polygon fill="none" points="863,70.6994,857,88.6994,869,88.6994,863,70.6994" style="stroke:#404040;stroke-width:1.2;"/></g><!--reverse link DataDownload to StructuredDataSet--><g class="link" data-entity-1="ent0005" data-entity-2="ent0021" data-link-type="extension" data-source-line="41" id="lnk31"><path codeLine="41" d="M894.2589,81.0321 C921.8889,100.4021 962.43,128.8494 990.23,148.3494" fill="none" id="DataDownload-backto-StructuredDataSet" style="stroke:#404040;stroke-width:1.2;"/><polygon fill="none" points="879.52,70.6994,890.8147,85.945,897.7031,76.1191,879.52,70.6994" style="stroke:#404040;stroke-width:1.2;"/></g><!--link InstanceVariable to StatisticsCollection--><g class="link" data-entity-1="ent0003" data-entity-2="ent0011" data-link-type="dependency" data-source-line="42" id="lnk32"><path codeLine="42" d="M476.95,278.1094 C483.72,290.9394 491.8,311.9394 483,327.6094 C475.35,341.2394 466.5989,348.2812 453.1789,354.8512" fill="none" id="InstanceVariable-to-StatisticsCollection" style="stroke:#404040;stroke-width:1.2;"/><polygon fill="#404040" points="447.79,357.4894,457.6321,357.1246,452.2807,355.2909,454.1145,349.9395,447.79,357.4894" style="stroke:#404040;stroke-width:1.2;"/><text fill="#000000" font-family="sans-serif" font-size="13" lengthAdjust="spacing" textLength="83.0845" x="488" y="324.1045">isDescribedBy</text><text fill="#000000" font-family="sans-serif" font-size="13" lengthAdjust="spacing" textLength="21.6836" x="436.1864" y="346.5319">0..1</text></g><!--link StatisticsCollection to InstanceVariable--><g class="link" data-entity-1="ent0011" data-entity-2="ent0003" data-link-type="dependency" data-source-line="56" id="lnk46"><path codeLine="56" d="M361.29,357.5894 C328.79,348.0594 296.67,332.3594 314,309.6094 C327.19,292.2894 375.6828,281.1726 416.5528,274.3126" fill="none" id="StatisticsCollection-to-InstanceVariable" style="stroke:#404040;stroke-width:1.2;"/><polygon fill="#404040" points="422.47,273.3194,412.932,270.8644,417.539,274.147,414.2563,278.754,422.47,273.3194" style="stroke:#404040;stroke-width:1.2;"/><text fill="#000000" font-family="sans-serif" font-size="13" lengthAdjust="spacing" textLength="60.709" x="315" y="324.1045">indexedBy</text><text fill="#000000" font-family="sans-serif" font-size="13" lengthAdjust="spacing" textLength="19.5127" x="395.4171" y="298.0997">1..*</text></g><!--link StatisticsCollection to InstanceVariable--><g class="link" data-entity-1="ent0011" data-entity-2="ent0003" data-link-type="dependency" data-source-line="57" id="lnk47"><path codeLine="57" d="M411.16,357.4494 C407.75,344.9194 404.37,324.7594 412,309.6094 C418.93,295.8394 427.3996,288.3792 439.7296,281.2292" fill="none" id="StatisticsCollection-to-InstanceVariable-1" style="stroke:#404040;stroke-width:1.2;"/><polygon fill="#404040" points="444.92,278.2194,435.1278,279.2739,440.5946,280.7276,439.1409,286.1945,444.92,278.2194" style="stroke:#404040;stroke-width:1.2;"/><text fill="#000000" font-family="sans-serif" font-size="13" lengthAdjust="spacing" textLength="61.4199" x="413" y="324.1045">hasWeight</text><text fill="#000000" font-family="sans-serif" font-size="13" lengthAdjust="spacing" textLength="21.6836" x="439.4172" y="299.6212">0..1</text></g><!--link InstanceVariable to InstanceVariable--><g class="link" data-entity-1="ent0003" data-entity-2="ent0003" data-link-type="dependency" data-source-line="43" id="lnk33"><path codeLine="43" d="M517.89,255.9094 C536.75,255.4194 552.5,258.6494 552.5,265.6094 C552.5,272.5694 542.748,275.9552 523.888,275.4652" fill="none" id="InstanceVariable-to-InstanceVariable" style="stroke:#404040;stroke-width:1.2;"/><polygon fill="#404040" points="517.89,275.3094,526.7831,279.5418,522.8883,275.4392,526.9909,271.5445,517.89,275.3094" style="stroke:#404040;stroke-width:1.2;"/><text fill="#000000" font-family="sans-serif" font-size="13" lengthAdjust="spacing" textLength="47.6963" x="558.5" y="271.1045">qualifies</text><text fill="#000000" font-family="sans-serif" font-size="13" lengthAdjust="spacing" textLength="21.6836" x="525.7558" y="273.0503">0..1</text></g><!--link InstanceVariable to SubstantiveValueDomain--><g class="link" data-entity-1="ent0003" data-entity-2="ent0013" data-link-type="dependency" data-source-line="44" id="lnk34"><path codeLine="44" d="M517.51,273.3094 C555.87,279.7194 610.72,291.1894 656,309.6094 C687.16,322.2894 715.0182,340.6571 733.6582,354.0571" fill="none" id="InstanceVariable-to-SubstantiveValueDomain" style="stroke:#404040;stroke-width:1.2;"/><polygon fill="#404040" points="738.53,357.5594,733.5572,349.0581,734.4702,354.6408,728.8875,355.5539,738.53,357.5594" style="stroke:#404040;stroke-width:1.2;"/><text fill="#000000" font-family="sans-serif" font-size="13" lengthAdjust="spacing" textLength="169.0825" x="691" y="324.1045">takesSubstantiveValuesFrom</text><text fill="#000000" font-family="sans-serif" font-size="13" lengthAdjust="spacing" textLength="21.6836" x="707.0103" y="346.6308">0..1</text></g><!--link InstanceVariable to SentinelValueDomain--><g class="link" data-entity-1="ent0003" data-entity-2="ent0014" data-link-type="dependency" data-source-line="45" id="lnk35"><path codeLine="45" d="M517.75,269.8594 C608.78,276.3694 803.87,291.9094 869,309.6094 C910.48,320.8894 950.1792,340.7642 975.4692,354.6342" fill="none" id="InstanceVariable-to-SentinelValueDomain" style="stroke:#404040;stroke-width:1.2;"/><polygon fill="#404040" points="980.73,357.5194,974.7623,349.6844,976.346,355.115,970.9154,356.6987,980.73,357.5194" style="stroke:#404040;stroke-width:1.2;"/><text fill="#000000" font-family="sans-serif" font-size="13" lengthAdjust="spacing" textLength="148.1289" x="919" y="324.1045">takesSentinelValuesFrom</text><text fill="#000000" font-family="sans-serif" font-size="13" lengthAdjust="spacing" textLength="19.5127" x="949.4718" y="346.5743">0..*</text></g><!--link VariableMeasured to InstanceVariable--><g class="link" data-entity-1="ent0004" data-entity-2="ent0003" data-link-type="dependency" data-source-line="46" id="lnk36"><path codeLine="46" d="M422.25,173.7694 C426.84,185.9494 434.63,205.4994 443,221.6094 C448.69,232.5594 452.895,239.4016 458.565,247.8816" fill="none" id="VariableMeasured-to-InstanceVariable" style="stroke:#404040;stroke-width:1.2;"/><polygon fill="#404040" points="461.9,252.8694,460.2227,243.1644,459.1208,248.7129,453.5723,247.611,461.9,252.8694" style="stroke:#404040;stroke-width:1.2;"/><text fill="#000000" font-family="sans-serif" font-size="13" lengthAdjust="spacing" textLength="55.6372" x="444" y="218.1045">describes</text><text fill="#000000" font-family="sans-serif" font-size="13" lengthAdjust="spacing" textLength="21.6836" x="433.6339" y="242.2489">0..1</text></g><!--link DataDownload to PhysicalMapping--><g class="link" data-entity-1="ent0005" data-entity-2="ent0017" data-link-type="dependency" data-source-line="47" id="lnk37"><path codeLine="47" d="M820.2,62.3394 C791.96,66.7194 756.21,76.9294 734,100.6094 C721.76,113.6694 719.2827,129.2116 718.9227,142.4816" fill="none" id="DataDownload-to-PhysicalMapping" style="stroke:#404040;stroke-width:1.2;"/><polygon fill="#404040" points="718.76,148.4794,723.0026,139.5912,718.8956,143.4812,715.0055,139.3742,718.76,148.4794" style="stroke:#404040;stroke-width:1.2;"/><text fill="#000000" font-family="sans-serif" font-size="13" lengthAdjust="spacing" textLength="119.2344" x="735" y="115.1045">hasPhysicalMapping</text><text fill="#000000" font-family="sans-serif" font-size="13" lengthAdjust="spacing" textLength="19.5127" x="695.9068" y="137.5178">0..*</text></g><!--link PrimaryKey to PrimaryKeyComponent--><g class="link" data-entity-1="ent0006" data-entity-2="ent0007" data-link-type="dependency" data-source-line="48" id="lnk38"><path codeLine="48" d="M570,70.6994 C570,90.0694 570,122.8494 570,142.3494" fill="none" id="PrimaryKey-to-PrimaryKeyComponent" style="stroke:#404040;stroke-width:1.2;"/><polygon fill="#404040" points="570,148.3494,574,139.3494,570,143.3494,566,139.3494,570,148.3494" style="stroke:#404040;stroke-width:1.2;"/><text fill="#000000" font-family="sans-serif" font-size="13" lengthAdjust="spacing" textLength="85.979" x="571" y="115.1045">isComposedOf</text><text fill="#000000" font-family="sans-serif" font-size="13" lengthAdjust="spacing" textLength="19.5127" x="547.3507" y="137.721">1..*</text></g><!--link PrimaryKeyComponent to InstanceVariable--><g class="link" data-entity-1="ent0007" data-entity-2="ent0003" data-link-type="dependency" data-source-line="49" id="lnk39"><path codeLine="49" d="M558.53,173.8694 C539.24,193.6394 504.7299,229.0147 485.5299,248.6947" fill="none" id="PrimaryKeyComponent-to-InstanceVariable" style="stroke:#404040;stroke-width:1.2;"/><polygon fill="#404040" points="481.34,252.9894,490.488,249.3406,484.8316,249.4105,484.7618,243.754,481.34,252.9894" style="stroke:#404040;stroke-width:1.2;"/><text fill="#000000" font-family="sans-serif" font-size="13" lengthAdjust="spacing" textLength="44.8081" x="530" y="218.1045">indexes</text><text fill="#000000" font-family="sans-serif" font-size="13" lengthAdjust="spacing" textLength="7.23" x="477.5409" y="242.0319">1</text></g><!--link Statistics to InstanceVariable--><g class="link" data-entity-1="ent0009" data-entity-2="ent0003" data-link-type="dependency" data-source-line="50" id="lnk40"><path codeLine="50" d="M284.62,465.4094 C232.49,451.1994 126.81,414.5994 158,357.6094 C177,322.8894 196.17,324.0794 233,309.6094 C295.66,284.9894 367.2754,274.8811 416.2254,270.3611" fill="none" id="Statistics-to-InstanceVariable" style="stroke:#404040;stroke-width:1.2;"/><polygon fill="#404040" points="422.2,269.8094,412.8703,266.6539,417.2212,270.2691,413.6059,274.62,422.2,269.8094" style="stroke:#404040;stroke-width:1.2;"/><text fill="#000000" font-family="sans-serif" font-size="13" lengthAdjust="spacing" textLength="56.3672" x="159" y="375.6045">appliesTo</text><text fill="#000000" font-family="sans-serif" font-size="13" lengthAdjust="spacing" textLength="19.5127" x="395.1508" y="285.0382">1..*</text></g><!--link Statistics to InstanceVariable--><g class="link" data-entity-1="ent0009" data-entity-2="ent0003" data-link-type="dependency" data-source-line="51" id="lnk41"><path codeLine="51" d="M306.6,460.5694 C299.09,443.8294 285.88,411.6394 281,382.6094 C275.4,349.3194 276.28,331.4694 302,309.6094 C335.49,281.1394 379.4544,271.6997 416.1744,268.3797" fill="none" id="Statistics-to-InstanceVariable-1" style="stroke:#404040;stroke-width:1.2;"/><polygon fill="#404040" points="422.15,267.8394,412.8264,264.666,417.1703,268.2896,413.5467,272.6335,422.15,267.8394" style="stroke:#404040;stroke-width:1.2;"/><text fill="#000000" font-family="sans-serif" font-size="13" lengthAdjust="spacing" textLength="61.4199" x="282" y="375.6045">hasWeight</text><text fill="#000000" font-family="sans-serif" font-size="13" lengthAdjust="spacing" textLength="21.6836" x="392.9651" y="264.5412">0..1</text></g><!--link Statistics to CategoryStatistics--><g class="link" data-entity-1="ent0009" data-entity-2="ent0010" data-link-type="dependency" data-source-line="52" id="lnk42"><path codeLine="52" d="M336.32,485.6994 C377.1,505.1294 453.4132,541.4791 494.2232,560.9191" fill="none" id="Statistics-to-CategoryStatistics" style="stroke:#404040;stroke-width:1.2;"/><polygon fill="#404040" points="499.64,563.4994,493.235,556.0177,495.126,561.3491,489.7946,563.2401,499.64,563.4994" style="stroke:#404040;stroke-width:1.2;"/><text fill="#000000" font-family="sans-serif" font-size="13" lengthAdjust="spacing" textLength="20.96" x="432" y="530.1045">has</text><text fill="#000000" font-family="sans-serif" font-size="13" lengthAdjust="spacing" textLength="19.5127" x="466.8397" y="552.546">0..*</text></g><!--link CategoryStatistics to Category--><g class="link" data-entity-1="ent0010" data-entity-2="ent0012" data-link-type="dependency" data-source-line="53" id="lnk43"><path codeLine="53" d="M524,588.6994 C524,608.0694 524,640.8494 524,660.3494" fill="none" id="CategoryStatistics-to-Category" style="stroke:#404040;stroke-width:1.2;"/><polygon fill="#404040" points="524,666.3494,528,657.3494,524,661.3494,520,657.3494,524,666.3494" style="stroke:#404040;stroke-width:1.2;"/><text fill="#000000" font-family="sans-serif" font-size="13" lengthAdjust="spacing" textLength="15.1709" x="525" y="633.1045">for</text><text fill="#000000" font-family="sans-serif" font-size="13" lengthAdjust="spacing" textLength="7.23" x="515.7279" y="655.721">1</text></g><!--link CategoryStatistics to InstanceVariable--><g class="link" data-entity-1="ent0010" data-entity-2="ent0003" data-link-type="dependency" data-source-line="54" id="lnk44"><path codeLine="54" d="M532.06,563.5694 C558.43,524.2794 637.24,393.4494 580,309.6094 C565.95,289.0394 546.289,279.7216 523.379,274.1316" fill="none" id="CategoryStatistics-to-InstanceVariable" style="stroke:#404040;stroke-width:1.2;"/><polygon fill="#404040" points="517.55,272.7094,525.3453,278.7288,522.4075,273.8946,527.2417,270.9568,517.55,272.7094" style="stroke:#404040;stroke-width:1.2;"/><text fill="#000000" font-family="sans-serif" font-size="13" lengthAdjust="spacing" textLength="61.4199" x="599" y="427.1045">hasWeight</text><text fill="#000000" font-family="sans-serif" font-size="13" lengthAdjust="spacing" textLength="21.6836" x="525.7339" y="288.3461">0..1</text></g><!--link StatisticsCollection to Statistics--><g class="link" data-entity-1="ent0011" data-entity-2="ent0009" data-link-type="dependency" data-source-line="55" id="lnk45"><path codeLine="55" d="M403.18,382.6994 C383.42,402.0694 348.1644,436.6489 328.2744,456.1489" fill="none" id="StatisticsCollection-to-Statistics" style="stroke:#404040;stroke-width:1.2;"/><polygon fill="#404040" points="323.99,460.3494,333.2169,456.905,327.5604,456.849,327.6164,451.1924,323.99,460.3494" style="stroke:#404040;stroke-width:1.2;"/><text fill="#000000" font-family="sans-serif" font-size="13" lengthAdjust="spacing" textLength="20.96" x="371" y="427.1045">has</text><text fill="#000000" font-family="sans-serif" font-size="13" lengthAdjust="spacing" textLength="19.5127" x="306.0691" y="449.721">1..*</text></g><!--link SubstantiveValueDomain to EnumerationDomain--><g class="link" data-entity-1="ent0013" data-entity-2="ent0016" data-link-type="dependency" data-source-line="58" id="lnk48"><path codeLine="58" d="M771.95,382.6194 C797.62,398.9994 842.65,427.4194 851,430.6094 C906.62,451.8694 968.1652,461.7706 1015.2352,466.8906" fill="none" id="SubstantiveValueDomain-to-EnumerationDomain" style="stroke:#404040;stroke-width:1.2;"/><polygon fill="#404040" points="1021.2,467.5394,1012.6853,462.5896,1016.2293,466.9987,1011.8202,470.5427,1021.2,467.5394" style="stroke:#404040;stroke-width:1.2;"/><text fill="#000000" font-family="sans-serif" font-size="13" lengthAdjust="spacing" textLength="101.1499" x="852" y="427.1045">takesValuesFrom</text><text fill="#000000" font-family="sans-serif" font-size="13" lengthAdjust="spacing" textLength="21.6836" x="991.8939" y="463.3964">0..1</text></g><!--link SubstantiveValueDomain to ValueAndConceptDescription--><g class="link" data-entity-1="ent0013" data-entity-2="ent0015" data-link-type="dependency" data-source-line="59" id="lnk49"><path codeLine="59" d="M742.77,382.9194 C732.13,395.5694 719.26,415.8294 730,430.6094 C741.2,446.0094 752.5671,453.8555 770.5971,460.0655" fill="none" id="SubstantiveValueDomain-to-ValueAndConceptDescription" style="stroke:#404040;stroke-width:1.2;"/><polygon fill="#404040" points="776.27,462.0194,769.0632,455.3066,771.5426,460.3911,766.458,462.8705,776.27,462.0194" style="stroke:#404040;stroke-width:1.2;"/><text fill="#000000" font-family="sans-serif" font-size="13" lengthAdjust="spacing" textLength="83.0845" x="731" y="427.1045">isDescribedBy</text><text fill="#000000" font-family="sans-serif" font-size="13" lengthAdjust="spacing" textLength="21.6836" x="746.81" y="457.7665">0..1</text></g><!--link SentinelValueDomain to EnumerationDomain--><g class="link" data-entity-1="ent0014" data-entity-2="ent0016" data-link-type="dependency" data-source-line="60" id="lnk50"><path codeLine="60" d="M1047.61,382.7294 C1062.83,388.9794 1078.1,398.4294 1087,412.6094 C1096.09,427.0894 1092.5774,441.8992 1087.2074,454.6592" fill="none" id="SentinelValueDomain-to-EnumerationDomain" style="stroke:#404040;stroke-width:1.2;"/><polygon fill="#404040" points="1084.88,460.1894,1092.0579,453.4456,1086.8195,455.5809,1084.6842,450.3425,1084.88,460.1894" style="stroke:#404040;stroke-width:1.2;"/><text fill="#000000" font-family="sans-serif" font-size="13" lengthAdjust="spacing" textLength="101.1499" x="1092" y="427.1045">takesValuesFrom</text><text fill="#000000" font-family="sans-serif" font-size="13" lengthAdjust="spacing" textLength="21.6836" x="1062.1748" y="449.7579">0..1</text></g><!--link SentinelValueDomain to ValueAndConceptDescription--><g class="link" data-entity-1="ent0014" data-entity-2="ent0015" data-link-type="dependency" data-source-line="61" id="lnk51"><path codeLine="61" d="M996.04,382.7094 C989.84,395.9594 978.07,417.4794 962,430.6094 C945.14,444.3894 928.8183,452.1406 909.3883,458.6606" fill="none" id="SentinelValueDomain-to-ValueAndConceptDescription" style="stroke:#404040;stroke-width:1.2;"/><polygon fill="#404040" points="903.7,460.5694,913.5049,461.4984,908.4402,458.9787,910.9599,453.914,903.7,460.5694" style="stroke:#404040;stroke-width:1.2;"/><text fill="#000000" font-family="sans-serif" font-size="13" lengthAdjust="spacing" textLength="83.0845" x="978" y="427.1045">isDescribedBy</text><text fill="#000000" font-family="sans-serif" font-size="13" lengthAdjust="spacing" textLength="21.6836" x="897.4101" y="449.6449">0..1</text></g><!--link PhysicalMapping to InstanceVariable--><g class="link" data-entity-1="ent0017" data-entity-2="ent0003" data-link-type="dependency" data-source-line="62" id="lnk52"><path codeLine="62" d="M693.59,173.6694 C666.39,185.9394 621.89,205.7194 583,221.6094 C555.8,232.7294 530.1764,242.4652 507.4464,250.8852" fill="none" id="PhysicalMapping-to-InstanceVariable" style="stroke:#404040;stroke-width:1.2;"/><polygon fill="#404040" points="501.82,252.9694,511.649,253.594,506.5086,251.2325,508.8701,246.0921,501.82,252.9694" style="stroke:#404040;stroke-width:1.2;"/><text fill="#000000" font-family="sans-serif" font-size="13" lengthAdjust="spacing" textLength="43.3418" x="626" y="218.1045">formats</text><text fill="#000000" font-family="sans-serif" font-size="13" lengthAdjust="spacing" textLength="7.23" x="506.4689" y="242.0037">1</text></g><?plantuml-src bLLBRjim4Dtp58IpA-0WJjgDKHHmx0W8sg05OhJhiJIEYL2aIb9ntG_GG_I4FKafKROfad8QU6E-cJSpcgzXXYETBswp1HXOeCuLgmoJWlxz_OVA9rHF3BTammgaELCvH_SVoyhiQ8db2fKc-f692XIKL6-Wa5ic7kWQk4PFCbDARfSRbZyAr9fEpYyzOSx1OZy8TMfpoQMYPwylcfy5hwKgK8Le9eMvPz-HJYx9Bq9WfOs2t7J6HhFk_HaKWnN74GLDGv2UPVFiQfwHZdGhj06HOuyKWfOqktcpkDgJzlWTWguL5Yqf14DFRRxbLd09Zk03eV8dnKfGk_UuQrMFpp2KesGkoqeA52PW7F2GUc_0C6rOtX8Ehp2KWq3tzNIeE0U33rBj0a8C3tkm5UUOD-qO-3eAXhpsV4KUwbLJKSEUR4rvZGjP0kjy94LHhcp-c40UiMCyRXOhcebYBcr7LSORkQvjXiIXeHjHbwYW4NaHH6ZK8PkTPZdmEwWgEwUkE_fOcAubVZE-klSELJ_878nKldOVYcp3gkQW6fFD0DoZwzSOZjjLrRbf9ildHMX8Q-3Cne6gKgmRZW2BMigLmdMK-n-jZQ8f_9gXSWlZy8oc7jUsFuebgjAvFhuFgj6EUljpF8wMq81Qk7P8MDjMowjWMg5VDDBRJSv2LA24KbGD4gtIyVWT7LsSdqz6wV6UKgRT4AomkDwTD139flHh3RmfX3xjEJtqKshW4NKerPcIvR2zLwFa6jWRyqNEKdGfJdzIqML3znFkkGyhEgKRq058l1lIKYUEchWJJGdQbyRYuvgaL9o5PBXC5FZD1kljUyzVWc3ZuxPWInbH1bDYF-yBieUDIL6ibyJDQKaa8TX_ok5sJEbQga7D5yNazRMNWoYgvmY3MMu6P9ZyFw6c1y6Zn_UbQsoleP-tSkBAXGEVcgMNndFQn0k22IVhHD_RfYd1QF8F?></g></svg>