<svg xmlns="http://www.w3.org/2000/svg" xmlns:xlink="http://www.w3.org/1999/xlink" contentStyleType="text/css" data-diagram-type="CLASS" height="187px" preserveAspectRatio="none" style="width:874px;height:187px;background:#FFFFFF;" version="1.1" viewBox="0 0 874 187" width="874px" zoomAndPan="magnify"><?plantuml 1.2026.3?><defs/><g><g class="title" data-source-line="1"><text fill="#000000" font-family="sans-serif" font-size="14" font-weight="700" lengthAdjust="spacing" textLength="214.3887" x="326.4814" y="24.5332">cdifDataDescription &#8212; overview</text></g><!--class Dataset--><g class="entity" data-qualified-name="Dataset" data-source-line="12" id="ent0002"><rect fill="#FEFECE" height="25.0938" rx="2.5" ry="2.5" style="stroke:#404040;stroke-width:0.5;" width="47.3555" x="412" y="45.6094"/><text fill="#000000" font-family="sans-serif" font-size="12" lengthAdjust="spacing" textLength="41.3555" x="415" y="63.0664">Dataset</text></g><!--class DefinedTerm--><g class="entity" data-qualified-name="DefinedTerm" data-source-line="14" id="ent0003"><rect fill="#FEFECE" height="25.0938" rx="2.5" ry="2.5" style="stroke:#404040;stroke-width:0.5;" width="75.3574" x="7" y="148.6094"/><text fill="#000000" font-family="sans-serif" font-size="12" lengthAdjust="spacing" textLength="69.3574" x="10" y="166.0664">DefinedTerm</text></g><!--class SpatialExtent--><g class="entity" data-qualified-name="SpatialExtent" data-source-line="16" id="ent0004"><rect fill="#FEFECE" height="25.0938" rx="2.5" ry="2.5" style="stroke:#404040;stroke-width:0.5;" width="76.7109" x="188" y="148.6094"/><text fill="#000000" font-family="sans-serif" font-size="12" lengthAdjust="spacing" textLength="70.7109" x="191" y="166.0664">SpatialExtent</text></g><!--class TemporalExtent--><g class="entity" data-qualified-name="TemporalExtent" data-source-line="18" id="ent0005"><rect fill="#FEFECE" height="25.0938" rx="2.5" ry="2.5" style="stroke:#404040;stroke-width:0.5;" width="90.7031" x="316" y="148.6094"/><text fill="#000000" font-family="sans-serif" font-size="12" lengthAdjust="spacing" textLength="84.7031" x="319" y="166.0664">TemporalExtent</text></g><!--class QualityMeasure--><g class="entity" data-qualified-name="QualityMeasure" data-source-line="20" id="ent0006"><rect fill="#FEFECE" height="25.0938" rx="2.5" ry="2.5" style="stroke:#404040;stroke-width:0.5;" width="90.0352" x="464.5" y="148.6094"/><text fill="#000000" font-family="sans-serif" font-size="12" lengthAdjust="spacing" textLength="84.0352" x="467.5" y="166.0664">QualityMeasure</text></g><!--class CdifKey--><g class="entity" data-qualified-name="CdifKey" data-source-line="22" id="ent0007"><rect fill="#D6EAF8" height="25.0938" rx="2.5" ry="2.5" style="stroke:#404040;stroke-width:0.5;" width="48.0176" x="667.5" y="148.6094"/><text fill="#000000" font-family="sans-serif" font-size="12" lengthAdjust="spacing" textLength="42.0176" x="670.5" y="166.0664">CdifKey</text></g><!--class CdifStatistics--><g class="entity" data-qualified-name="CdifStatistics" data-source-line="24" id="ent0008"><rect fill="#D6EAF8" height="25.0938" rx="2.5" ry="2.5" style="stroke:#404040;stroke-width:0.5;" width="75.3516" x="784" y="148.6094"/><text fill="#000000" font-family="sans-serif" font-size="12" lengthAdjust="spacing" textLength="69.3516" x="787" y="166.0664">CdifStatistics</text></g><!--link Dataset to CdifKey--><g class="link" data-entity-1="ent0002" data-entity-2="ent0007" data-link-type="dependency" data-source-line="26" id="lnk9"><path codeLine="26" d="M459.29,59.6794 C498.09,61.5394 576.4,69.2394 633.5,100.6094 C654.99,112.4194 669.9763,129.9377 679.9963,143.6277" fill="none" id="Dataset-to-CdifKey" style="stroke:#404040;stroke-width:1.2;"/><polygon fill="#404040" points="683.54,148.4694,681.4522,138.8444,680.5869,144.4346,674.9966,143.5693,683.54,148.4694" style="stroke:#404040;stroke-width:1.2;"/><text fill="#000000" font-family="sans-serif" font-size="13" lengthAdjust="spacing" textLength="88.1372" x="658.5" y="115.1045">hasPrimaryKey</text><text fill="#000000" font-family="sans-serif" font-size="13" lengthAdjust="spacing" textLength="21.6836" x="655.0626" y="137.5037">0..1</text></g><!--link Dataset to CdifStatistics--><g class="link" data-entity-1="ent0002" data-entity-2="ent0008" data-link-type="dependency" data-source-line="27" id="lnk10"><path codeLine="27" d="M459.45,60.3694 C524.4,64.0794 702.57,76.2494 755.5,100.6094 C779.32,111.5694 796.7747,129.5952 808.3947,143.5752" fill="none" id="Dataset-to-CdifStatistics" style="stroke:#404040;stroke-width:1.2;"/><polygon fill="#404040" points="812.23,148.1894,809.5532,138.7112,809.034,144.3442,803.401,143.8249,812.23,148.1894" style="stroke:#404040;stroke-width:1.2;"/><text fill="#000000" font-family="sans-serif" font-size="13" lengthAdjust="spacing" textLength="49.8418" x="782.5" y="115.1045">statistics</text><text fill="#000000" font-family="sans-serif" font-size="13" lengthAdjust="spacing" textLength="19.5127" x="786.1047" y="137.7579">0..*</text></g><!--link Dataset to DefinedTerm--><g class="link" data-entity-1="ent0002" data-entity-2="ent0003" data-link-type="dependency" data-source-line="28" id="lnk11"><path codeLine="28" d="M411.66,59.4994 C342.41,61.0094 142.69,68.1294 87.5,100.6094 C68.83,111.5994 58.5243,128.7909 52.0143,142.7609" fill="none" id="Dataset-to-DefinedTerm" style="stroke:#404040;stroke-width:1.2;"/><polygon fill="#404040" points="49.48,148.1994,56.9072,141.7312,51.5919,143.6673,49.6558,138.3521,49.48,148.1994" style="stroke:#404040;stroke-width:1.2;"/><text fill="#000000" font-family="sans-serif" font-size="13" lengthAdjust="spacing" textLength="140.188" x="88.5" y="115.1045">measurementTechnique</text><text fill="#000000" font-family="sans-serif" font-size="13" lengthAdjust="spacing" textLength="19.5127" x="28.7863" y="137.7717">0..*</text></g><!--link Dataset to SpatialExtent--><g class="link" data-entity-1="ent0002" data-entity-2="ent0004" data-link-type="dependency" data-source-line="29" id="lnk12"><path codeLine="29" d="M411.8,61.6794 C367.57,66.8994 274.71,80.0494 250.5,100.6094 C236.24,112.7194 231.3866,128.6478 229.0266,142.2378" fill="none" id="Dataset-to-SpatialExtent" style="stroke:#404040;stroke-width:1.2;"/><polygon fill="#404040" points="228,148.1494,233.4809,139.9665,228.8555,143.2231,225.5989,138.5977,228,148.1494" style="stroke:#404040;stroke-width:1.2;"/><text fill="#000000" font-family="sans-serif" font-size="13" lengthAdjust="spacing" textLength="93.9453" x="251.5" y="115.1045">spatialCoverage</text><text fill="#000000" font-family="sans-serif" font-size="13" lengthAdjust="spacing" textLength="19.5127" x="206.1028" y="137.7026">0..*</text></g><!--link Dataset to TemporalExtent--><g class="link" data-entity-1="ent0002" data-entity-2="ent0005" data-link-type="dependency" data-source-line="30" id="lnk13"><path codeLine="30" d="M411.73,64.8494 C393.63,70.5994 369.94,81.4394 358.5,100.6094 C349.8,115.1694 351.775,129.7467 355.545,142.4667" fill="none" id="Dataset-to-TemporalExtent" style="stroke:#404040;stroke-width:1.2;"/><polygon fill="#404040" points="357.25,148.2194,358.5276,138.4537,355.8292,143.4255,350.8574,140.7271,357.25,148.2194" style="stroke:#404040;stroke-width:1.2;"/><text fill="#000000" font-family="sans-serif" font-size="13" lengthAdjust="spacing" textLength="106.9453" x="359.5" y="115.1045">temporalCoverage</text><text fill="#000000" font-family="sans-serif" font-size="13" lengthAdjust="spacing" textLength="19.5127" x="333.1621" y="137.7993">0..*</text></g><!--link Dataset to QualityMeasure--><g class="link" data-entity-1="ent0002" data-entity-2="ent0006" data-link-type="dependency" data-source-line="31" id="lnk14"><path codeLine="31" d="M446,70.7894 C453.16,78.9394 462.73,90.1794 470.5,100.6094 C482.46,116.6494 491.7517,131.1117 499.2717,143.3117" fill="none" id="Dataset-to-QualityMeasure" style="stroke:#404040;stroke-width:1.2;"/><polygon fill="#404040" points="502.42,148.4194,501.1026,138.659,499.7964,144.163,494.2924,142.8568,502.42,148.4194" style="stroke:#404040;stroke-width:1.2;"/><text fill="#000000" font-family="sans-serif" font-size="13" lengthAdjust="spacing" textLength="140.8989" x="484.5" y="115.1045">hasQualityMeasurement</text><text fill="#000000" font-family="sans-serif" font-size="13" lengthAdjust="spacing" textLength="19.5127" x="476.9856" y="137.8186">0..*</text></g><?plantuml-src VPB1JeD048RlFCM4tapQj8qnXeD9fN0n9fho0YjCowImYxFRLZGcFeHFw9EuG2q56iDbvj_ldztzMKCcGuWJMY-54KlKCLDXI4du-Ve6jKVU4nwSb19B4SSPDZNcXIaXn_m5MJjwIx8GB7BGgKZKWUG6rYBJUBQoO5Q7AALuAr5hc4tcPujn9gpsuK23-IfJ3AFhQVLPyLvnWjnNGoNDYjuHPdFdqt6Q6Mvr3ut61Q7XMCCe3CB03re6roGnYP3pXclx0RigX26H1My6PJErempuo4QZk6FeIWF7yqvaPCf757h7M3kwqi3Xs__rW6MD7ciOBM-2HNZROLR6dbGRYlK9RQNMyHVJU7m7xdGocRcdgHwaGZynvO9Bsm_GAxS_rGDzQYxXvrbxzWNLDynjBX76gQJN7LvoTJEtUpIzNxrGiRbewQNkWJaA_vbwmTVNxshLKNy1?></g></svg>