<svg xmlns="http://www.w3.org/2000/svg" xmlns:xlink="http://www.w3.org/1999/xlink" contentStyleType="text/css" data-diagram-type="CLASS" height="599px" preserveAspectRatio="none" style="width:818px;height:599px;background:#FFFFFF;" version="1.1" viewBox="0 0 818 599" width="818px" zoomAndPan="magnify"><?plantuml 1.2026.3?><defs/><g><g class="title" data-source-line="1"><text fill="#000000" font-family="sans-serif" font-size="14" font-weight="700" lengthAdjust="spacing" textLength="222.1611" x="294.8521" y="24.5332">CDIFDataDescription &#8212; overview</text></g><!--class Dataset--><g class="entity" data-qualified-name="Dataset" data-source-line="12" id="ent0002"><rect fill="#FEFECE" height="25.0938" rx="2.5" ry="2.5" style="stroke:#404040;stroke-width:0.5;" width="47.3555" x="425.5" y="45.6094"/><text fill="#000000" font-family="sans-serif" font-size="12" lengthAdjust="spacing" textLength="41.3555" x="428.5" y="63.0664">Dataset</text></g><!--class CatalogRecord--><g class="entity" data-qualified-name="CatalogRecord" data-source-line="13" id="ent0003"><rect fill="#FEFECE" height="25.0938" rx="2.5" ry="2.5" style="stroke:#404040;stroke-width:0.5;" width="86.0449" x="7" y="148.6094"/><text fill="#000000" font-family="sans-serif" font-size="12" lengthAdjust="spacing" textLength="80.0449" x="10" y="166.0664">CatalogRecord</text></g><!--class DataDownload--><g class="entity" data-qualified-name="DataDownload" data-source-line="14" id="ent0004"><rect fill="#FEFECE" height="25.0938" rx="2.5" ry="2.5" style="stroke:#404040;stroke-width:0.5;" width="84.7148" x="357.5" y="148.6094"/><text fill="#000000" font-family="sans-serif" font-size="12" lengthAdjust="spacing" textLength="78.7148" x="360.5" y="166.0664">DataDownload</text></g><!--class WebAPI--><g class="entity" data-qualified-name="WebAPI" data-source-line="15" id="ent0005"><rect fill="#FCF3CF" height="25.0938" rx="2.5" ry="2.5" style="stroke:#404040;stroke-width:0.5;" width="50.0156" x="483" y="148.6094"/><text fill="#000000" font-family="sans-serif" font-size="12" lengthAdjust="spacing" textLength="44.0156" x="486" y="166.0664">WebAPI</text></g><!--class ActionResult--><g class="entity" data-qualified-name="ActionResult" data-source-line="16" id="ent0006"><rect fill="#FCF3CF" height="25.0938" rx="2.5" ry="2.5" style="stroke:#404040;stroke-width:0.5;" width="73.3652" x="730.5" y="251.6094"/><text fill="#000000" font-family="sans-serif" font-size="12" lengthAdjust="spacing" textLength="67.3652" x="733.5" y="269.0664">ActionResult</text></g><!--class InstanceVariable--><g class="entity" data-qualified-name="InstanceVariable" data-source-line="17" id="ent0007"><rect fill="#FEFECE" height="25.0938" rx="2.5" ry="2.5" style="stroke:#404040;stroke-width:0.5;" width="95.3906" x="186.5" y="457.6094"/><text fill="#000000" font-family="sans-serif" font-size="12" lengthAdjust="spacing" textLength="89.3906" x="189.5" y="475.0664">InstanceVariable</text></g><!--class AbstractMapping--><g class="entity" data-qualified-name="AbstractMapping" data-source-line="18" id="ent0008"><rect fill="#FCF3CF" height="25.0938" rx="2.5" ry="2.5" style="stroke:#404040;stroke-width:0.5;" width="96.0469" x="526" y="354.6094"/><text fill="#000000" font-family="sans-serif" font-size="12" font-style="italic" lengthAdjust="spacing" textLength="90.0469" x="529" y="372.0664">AbstractMapping</text></g><!--class PhysicalMapping--><g class="entity" data-qualified-name="PhysicalMapping" data-source-line="19" id="ent0009"><rect fill="#FCF3CF" height="25.0938" rx="2.5" ry="2.5" style="stroke:#404040;stroke-width:0.5;" width="96.7148" x="404.5" y="457.6094"/><text fill="#000000" font-family="sans-serif" font-size="12" lengthAdjust="spacing" textLength="90.7148" x="407.5" y="475.0664">PhysicalMapping</text></g><!--class TextMapping--><g class="entity" data-qualified-name="TextMapping" data-source-line="20" id="ent0010"><rect fill="#FCF3CF" height="25.0938" rx="2.5" ry="2.5" style="stroke:#404040;stroke-width:0.5;" width="75.3691" x="536.5" y="457.6094"/><text fill="#000000" font-family="sans-serif" font-size="12" lengthAdjust="spacing" textLength="69.3691" x="539.5" y="475.0664">TextMapping</text></g><!--class LocatorMapping--><g class="entity" data-qualified-name="LocatorMapping" data-source-line="21" id="ent0011"><rect fill="#FCF3CF" height="25.0938" rx="2.5" ry="2.5" style="stroke:#404040;stroke-width:0.5;" width="92.0566" x="647" y="457.6094"/><text fill="#000000" font-family="sans-serif" font-size="12" lengthAdjust="spacing" textLength="86.0566" x="650" y="475.0664">LocatorMapping</text></g><!--class AbstractDataSet--><g class="entity" data-qualified-name="AbstractDataSet" data-source-line="22" id="ent0012"><rect fill="#FCF3CF" height="25.0938" rx="2.5" ry="2.5" style="stroke:#404040;stroke-width:0.5;" width="93.375" x="286.5" y="251.6094"/><text fill="#000000" font-family="sans-serif" font-size="12" font-style="italic" lengthAdjust="spacing" textLength="87.375" x="289.5" y="269.0664">AbstractDataSet</text></g><!--class TabularTextDataSet--><g class="entity" data-qualified-name="TabularTextDataSet" data-source-line="23" id="ent0013"><rect fill="#FEFECE" height="25.0938" rx="2.5" ry="2.5" style="stroke:#404040;stroke-width:0.5;" width="113.3848" x="358.5" y="354.6094"/><text fill="#000000" font-family="sans-serif" font-size="12" lengthAdjust="spacing" textLength="107.3848" x="361.5" y="372.0664">TabularTextDataSet</text></g><!--class StructuredDataSet--><g class="entity" data-qualified-name="StructuredDataSet" data-source-line="24" id="ent0014"><rect fill="#FEFECE" height="25.0938" rx="2.5" ry="2.5" style="stroke:#404040;stroke-width:0.5;" width="104.7188" x="218.5" y="354.6094"/><text fill="#000000" font-family="sans-serif" font-size="12" lengthAdjust="spacing" textLength="98.7188" x="221.5" y="372.0664">StructuredDataSet</text></g><!--class DataFingerprint--><g class="entity" data-qualified-name="DataFingerprint" data-source-line="25" id="ent0015"><rect fill="#FCF3CF" height="25.0938" rx="2.5" ry="2.5" style="stroke:#404040;stroke-width:0.5;" width="88.7051" x="414.5" y="251.6094"/><text fill="#000000" font-family="sans-serif" font-size="12" lengthAdjust="spacing" textLength="82.7051" x="417.5" y="269.0664">DataFingerprint</text></g><!--class PrimaryKey--><g class="entity" data-qualified-name="PrimaryKey" data-source-line="26" id="ent0016"><rect fill="#FEFECE" height="25.0938" rx="2.5" ry="2.5" style="stroke:#404040;stroke-width:0.5;" width="68.0098" x="571" y="148.6094"/><text fill="#000000" font-family="sans-serif" font-size="12" lengthAdjust="spacing" textLength="62.0098" x="574" y="166.0664">PrimaryKey</text></g><!--class Statistics--><g class="entity" data-qualified-name="Statistics" data-source-line="27" id="ent0017"><rect fill="#FCF3CF" height="25.0938" rx="2.5" ry="2.5" style="stroke:#404040;stroke-width:0.5;" width="54.0117" x="708" y="148.6094"/><text fill="#000000" font-family="sans-serif" font-size="12" lengthAdjust="spacing" textLength="48.0117" x="711" y="166.0664">Statistics</text></g><!--class SubstantiveValueDomain--><g class="entity" data-qualified-name="SubstantiveValueDomain" data-source-line="28" id="ent0018"><rect fill="#FEFECE" height="25.0938" rx="2.5" ry="2.5" style="stroke:#404040;stroke-width:0.5;" width="140.748" x="58.5" y="560.6094"/><text fill="#000000" font-family="sans-serif" font-size="12" lengthAdjust="spacing" textLength="134.748" x="61.5" y="578.0664">SubstantiveValueDomain</text></g><!--class SentinelValueDomain--><g class="entity" data-qualified-name="SentinelValueDomain" data-source-line="29" id="ent0019"><rect fill="#FEFECE" height="25.0938" rx="2.5" ry="2.5" style="stroke:#404040;stroke-width:0.5;" width="121.4063" x="279.5" y="560.6094"/><text fill="#000000" font-family="sans-serif" font-size="12" lengthAdjust="spacing" textLength="115.4063" x="282.5" y="578.0664">SentinelValueDomain</text></g><!--reverse link AbstractMapping to PhysicalMapping--><g class="link" data-entity-1="ent0008" data-entity-2="ent0009" data-link-type="extension" data-source-line="30" id="lnk20"><path codeLine="30" d="M546.2979,391.2297 C523.0779,410.5997 490.45,437.8494 467.09,457.3494" fill="none" id="AbstractMapping-backto-PhysicalMapping" style="stroke:#404040;stroke-width:1.2;"/><polygon fill="none" points="560.12,379.6994,542.4544,386.6223,550.1413,395.8371,560.12,379.6994" style="stroke:#404040;stroke-width:1.2;"/></g><!--reverse link AbstractMapping to TextMapping--><g class="link" data-entity-1="ent0008" data-entity-2="ent0010" data-link-type="extension" data-source-line="31" id="lnk21"><path codeLine="31" d="M574,397.6994 C574,417.0694 574,437.8494 574,457.3494" fill="none" id="AbstractMapping-backto-TextMapping" style="stroke:#404040;stroke-width:1.2;"/><polygon fill="none" points="574,379.6994,568,397.6994,580,397.6994,574,379.6994" style="stroke:#404040;stroke-width:1.2;"/></g><!--reverse link AbstractMapping to LocatorMapping--><g class="link" data-entity-1="ent0008" data-entity-2="ent0011" data-link-type="extension" data-source-line="32" id="lnk22"><path codeLine="32" d="M601.3754,391.3447 C624.2054,410.7147 656.17,437.8494 679.14,457.3494" fill="none" id="AbstractMapping-backto-LocatorMapping" style="stroke:#404040;stroke-width:1.2;"/><polygon fill="none" points="587.65,379.6994,597.4937,395.9198,605.2572,386.7695,587.65,379.6994" style="stroke:#404040;stroke-width:1.2;"/></g><!--reverse link AbstractDataSet to TabularTextDataSet--><g class="link" data-entity-1="ent0012" data-entity-2="ent0013" data-link-type="extension" data-source-line="33" id="lnk23"><path codeLine="33" d="M353.7571,290.6723 C369.4871,310.0423 389.62,334.8494 405.45,354.3494" fill="none" id="AbstractDataSet-backto-TabularTextDataSet" style="stroke:#404040;stroke-width:1.2;"/><polygon fill="none" points="342.41,276.6994,349.0995,294.4547,358.4148,286.8899,342.41,276.6994" style="stroke:#404040;stroke-width:1.2;"/></g><!--reverse link AbstractDataSet to StructuredDataSet--><g class="link" data-entity-1="ent0012" data-entity-2="ent0014" data-link-type="extension" data-source-line="34" id="lnk24"><path codeLine="34" d="M316.4677,292.0363 C304.5677,311.4063 290.19,334.8494 278.22,354.3494" fill="none" id="AbstractDataSet-backto-StructuredDataSet" style="stroke:#404040;stroke-width:1.2;"/><polygon fill="none" points="325.89,276.6994,311.3554,288.8955,321.58,295.177,325.89,276.6994" style="stroke:#404040;stroke-width:1.2;"/></g><!--reverse link Dataset to CatalogRecord--><g class="link" data-entity-1="ent0002" data-entity-2="ent0003" data-link-type="composition" data-source-line="35" id="lnk25"><path codeLine="35" d="M413.4717,60.6089 C334.0117,64.1189 91.18,76.5994 64,100.6094 C50.48,112.5494 48.74,134.8694 49.1,148.5194" fill="none" id="Dataset-backto-CatalogRecord" style="stroke:#404040;stroke-width:1.2;"/><polygon fill="#404040" points="425.46,60.0794,419.2893,56.3481,413.4717,60.6089,419.6424,64.3403,425.46,60.0794" style="stroke:#404040;stroke-width:1.2;"/><text fill="#000000" font-family="sans-serif" font-size="13" lengthAdjust="spacing" textLength="54.9136" x="65" y="115.1045">subjectOf</text><text fill="#000000" font-family="sans-serif" font-size="13" lengthAdjust="spacing" textLength="7.23" x="40.3232" y="137.5743">1</text></g><!--reverse link Dataset to InstanceVariable--><g class="link" data-entity-1="ent0002" data-entity-2="ent0007" data-link-type="composition" data-source-line="36" id="lnk26"><path codeLine="36" d="M413.3102,63.2983 C341.8802,72.1083 146,101.3294 146,160.1094 C146,160.1094 146,160.1094 146,368.1094 C146,408.8094 187.12,441.0594 213.15,457.3994" fill="none" id="Dataset-backto-InstanceVariable" style="stroke:#404040;stroke-width:1.2;"/><polygon fill="#404040" points="425.22,61.8294,418.7755,58.5939,413.3102,63.2983,419.7548,66.5338,425.22,61.8294" style="stroke:#404040;stroke-width:1.2;"/><text fill="#000000" font-family="sans-serif" font-size="13" lengthAdjust="spacing" textLength="103.3335" x="147" y="269.6045">variableMeasured</text><text fill="#000000" font-family="sans-serif" font-size="13" lengthAdjust="spacing" textLength="19.5127" x="182.2237" y="446.7907">1..*</text></g><!--reverse link Dataset to PrimaryKey--><g class="link" data-entity-1="ent0002" data-entity-2="ent0016" data-link-type="composition" data-source-line="37" id="lnk27"><path codeLine="37" d="M484.1378,67.8446 C506.7778,74.0146 529.63,82.3994 555,100.6094 C573.42,113.8294 589.19,135.3194 597.87,148.5394" fill="none" id="Dataset-backto-PrimaryKey" style="stroke:#404040;stroke-width:1.2;"/><polygon fill="#404040" points="472.56,64.6894,477.2971,70.1262,484.1378,67.8446,479.4006,62.4077,472.56,64.6894" style="stroke:#404040;stroke-width:1.2;"/><text fill="#000000" font-family="sans-serif" font-size="13" lengthAdjust="spacing" textLength="88.1372" x="575" y="115.1045">hasPrimaryKey</text><text fill="#000000" font-family="sans-serif" font-size="13" lengthAdjust="spacing" textLength="21.6836" x="569.7366" y="137.6025">0..1</text></g><!--reverse link Dataset to Statistics--><g class="link" data-entity-1="ent0002" data-entity-2="ent0017" data-link-type="composition" data-source-line="38" id="lnk28"><path codeLine="38" d="M484.5162,59.5003 C526.7662,60.5603 605.31,66.6994 672,100.6094 C694.8,112.1994 715.1,134.6394 726.17,148.3994" fill="none" id="Dataset-backto-Statistics" style="stroke:#404040;stroke-width:1.2;"/><polygon fill="#404040" points="472.52,59.1994,478.4178,63.3486,484.5162,59.5003,478.6184,55.3511,472.52,59.1994" style="stroke:#404040;stroke-width:1.2;"/><text fill="#000000" font-family="sans-serif" font-size="13" lengthAdjust="spacing" textLength="49.8418" x="698" y="115.1045">statistics</text><text fill="#000000" font-family="sans-serif" font-size="13" lengthAdjust="spacing" textLength="19.5127" x="700.0512" y="137.7907">0..*</text></g><!--reverse link Dataset to DataDownload--><g class="link" data-entity-1="ent0002" data-entity-2="ent0004" data-link-type="composition" data-source-line="39" id="lnk29"><path codeLine="39" d="M415.1531,76.3344 C403.3831,83.2744 400.61,87.3294 394,100.6094 C386.41,115.8494 391.01,135.9794 395.29,148.4794" fill="none" id="Dataset-backto-DataDownload" style="stroke:#404040;stroke-width:1.2;"/><polygon fill="#404040" points="425.49,70.2394,418.2899,69.8412,415.1531,76.3344,422.3532,76.7325,425.49,70.2394" style="stroke:#404040;stroke-width:1.2;"/><text fill="#000000" font-family="sans-serif" font-size="13" lengthAdjust="spacing" textLength="62.8672" x="395" y="115.1045">distribution</text><text fill="#000000" font-family="sans-serif" font-size="13" lengthAdjust="spacing" textLength="19.5127" x="370.5929" y="137.5178">0..*</text></g><!--reverse link Dataset to WebAPI--><g class="link" data-entity-1="ent0002" data-entity-2="ent0005" data-link-type="composition" data-source-line="40" id="lnk30"><path codeLine="40" d="M461.8248,81.0599 C473.1448,100.4299 489.74,128.8494 501.13,148.3494" fill="none" id="Dataset-backto-WebAPI" style="stroke:#404040;stroke-width:1.2;"/><polygon fill="#404040" points="455.77,70.6994,455.3439,77.8979,461.8248,81.0599,462.2509,73.8614,455.77,70.6994" style="stroke:#404040;stroke-width:1.2;"/><text fill="#000000" font-family="sans-serif" font-size="13" lengthAdjust="spacing" textLength="62.8672" x="484" y="115.1045">distribution</text><text fill="#000000" font-family="sans-serif" font-size="13" lengthAdjust="spacing" textLength="19.5127" x="475.7822" y="137.721">0..*</text></g><!--reverse link DataDownload to AbstractMapping--><g class="link" data-entity-1="ent0004" data-entity-2="ent0008" data-link-type="composition" data-source-line="41" id="lnk31"><path codeLine="41" d="M454.083,175.4445 C473.843,181.7445 485,188.1194 501,203.6094 C546.55,247.7094 565.96,325.3794 571.89,354.5794" fill="none" id="DataDownload-backto-AbstractMapping" style="stroke:#404040;stroke-width:1.2;"/><polygon fill="#404040" points="442.65,171.7994,447.1514,177.4329,454.083,175.4445,449.5815,169.8109,442.65,171.7994" style="stroke:#404040;stroke-width:1.2;"/><text fill="#000000" font-family="sans-serif" font-size="13" lengthAdjust="spacing" textLength="119.2344" x="549" y="269.6045">hasPhysicalMapping</text><text fill="#000000" font-family="sans-serif" font-size="13" lengthAdjust="spacing" textLength="19.5127" x="548.197" y="343.659">0..*</text></g><!--reverse link DataDownload to AbstractDataSet--><g class="link" data-entity-1="ent0004" data-entity-2="ent0012" data-link-type="aggregation" data-source-line="42" id="lnk32"><path codeLine="42" d="M364.2142,179.691 C352.0542,186.621 348.87,190.6594 341,203.6094 C332.13,218.2194 331.34,238.5294 331.92,251.2394" fill="none" id="DataDownload-backto-AbstractDataSet" style="stroke:#404040;stroke-width:1.2;"/><polygon fill="none" points="374.64,173.7494,367.4466,173.2449,364.2142,179.691,371.4077,180.1955,374.64,173.7494" style="stroke:#404040;stroke-width:1.2;"/><text fill="#000000" font-family="sans-serif" font-size="13" lengthAdjust="spacing" textLength="75.1499" x="342" y="218.1045">alsoTypedAs</text><text fill="#000000" font-family="sans-serif" font-size="13" lengthAdjust="spacing" textLength="21.6836" x="306.564" y="240.827">0..1</text></g><!--reverse link DataDownload to DataFingerprint--><g class="link" data-entity-1="ent0004" data-entity-2="ent0015" data-link-type="composition" data-source-line="43" id="lnk33"><path codeLine="43" d="M412.8248,184.0599 C424.1448,203.4299 440.74,231.8494 452.13,251.3494" fill="none" id="DataDownload-backto-DataFingerprint" style="stroke:#404040;stroke-width:1.2;"/><polygon fill="#404040" points="406.77,173.6994,406.3439,180.8979,412.8248,184.0599,413.2509,176.8614,406.77,173.6994" style="stroke:#404040;stroke-width:1.2;"/><text fill="#000000" font-family="sans-serif" font-size="13" lengthAdjust="spacing" textLength="57.8081" x="435" y="218.1045">fingerprint</text><text fill="#000000" font-family="sans-serif" font-size="13" lengthAdjust="spacing" textLength="21.6836" x="424.4832" y="240.721">0..1</text></g><!--reverse link WebAPI to ActionResult--><g class="link" data-entity-1="ent0005" data-entity-2="ent0006" data-link-type="composition" data-source-line="44" id="lnk34"><path codeLine="44" d="M544.4901,176.3389 C592.6001,195.0989 685.87,231.4694 737.24,251.5094" fill="none" id="WebAPI-backto-ActionResult" style="stroke:#404040;stroke-width:1.2;"/><polygon fill="#404040" points="533.31,171.9794,537.4469,177.8858,544.4901,176.3389,540.3532,170.4325,533.31,171.9794" style="stroke:#404040;stroke-width:1.2;"/><text fill="#000000" font-family="sans-serif" font-size="13" lengthAdjust="spacing" textLength="122.1289" x="654" y="218.1045">potentialActionResult</text><text fill="#000000" font-family="sans-serif" font-size="13" lengthAdjust="spacing" textLength="19.5127" x="702.8104" y="240.944">0..*</text></g><!--reverse link ActionResult to AbstractMapping--><g class="link" data-entity-1="ent0006" data-entity-2="ent0008" data-link-type="composition" data-source-line="45" id="lnk35"><path codeLine="45" d="M734.2278,282.2632 C697.0978,301.6932 633.33,335.0594 596.18,354.4994" fill="none" id="ActionResult-backto-AbstractMapping" style="stroke:#404040;stroke-width:1.2;"/><polygon fill="#404040" points="744.86,276.6994,737.6893,275.9372,734.2278,282.2632,741.3985,283.0253,744.86,276.6994" style="stroke:#404040;stroke-width:1.2;"/><text fill="#000000" font-family="sans-serif" font-size="13" lengthAdjust="spacing" textLength="119.2344" x="683" y="321.1045">hasPhysicalMapping</text><text fill="#000000" font-family="sans-serif" font-size="13" lengthAdjust="spacing" textLength="19.5127" x="582.5066" y="343.546">0..*</text></g><!--link InstanceVariable to SubstantiveValueDomain--><g class="link" data-entity-1="ent0007" data-entity-2="ent0018" data-link-type="dependency" data-source-line="46" id="lnk36"><path codeLine="46" d="M186.22,477.0494 C164.03,482.4694 139.59,492.8294 126,512.6094 C116.28,526.7594 118.6073,541.8629 122.7173,554.7529" fill="none" id="InstanceVariable-to-SubstantiveValueDomain" style="stroke:#404040;stroke-width:1.2;"/><polygon fill="#404040" points="124.54,560.4694,125.6169,550.6796,123.0211,555.7057,117.995,553.1098,124.54,560.4694" style="stroke:#404040;stroke-width:1.2;"/><text fill="#000000" font-family="sans-serif" font-size="13" lengthAdjust="spacing" textLength="169.0825" x="127" y="527.1045">takesSubstantiveValuesFrom</text><text fill="#000000" font-family="sans-serif" font-size="13" lengthAdjust="spacing" textLength="21.6836" x="97.562" y="549.5037">0..1</text></g><!--link InstanceVariable to SentinelValueDomain--><g class="link" data-entity-1="ent0007" data-entity-2="ent0019" data-link-type="dependency" data-source-line="47" id="lnk37"><path codeLine="47" d="M258.09,482.6894 C271.71,490.0094 288.46,500.3894 301,512.6094 C315.68,526.9194 324.9606,542.3615 331.6106,555.2015" fill="none" id="InstanceVariable-to-SentinelValueDomain" style="stroke:#404040;stroke-width:1.2;"/><polygon fill="#404040" points="334.37,560.5294,333.7829,550.698,332.0705,556.0895,326.6791,554.3772,334.37,560.5294" style="stroke:#404040;stroke-width:1.2;"/><text fill="#000000" font-family="sans-serif" font-size="13" lengthAdjust="spacing" textLength="148.1289" x="318" y="527.1045">takesSentinelValuesFrom</text><text fill="#000000" font-family="sans-serif" font-size="13" lengthAdjust="spacing" textLength="19.5127" x="309.1508" y="549.5884">0..*</text></g><!--link AbstractMapping to InstanceVariable--><g class="link" data-entity-1="ent0008" data-entity-2="ent0007" data-link-type="dependency" data-source-line="48" id="lnk38"><path codeLine="48" d="M535,379.6994 C469.5,399.1494 343.9316,436.4507 278.5616,455.8707" fill="none" id="AbstractMapping-to-InstanceVariable" style="stroke:#404040;stroke-width:1.2;"/><polygon fill="#404040" points="272.81,457.5794,282.5765,458.8508,277.603,456.1555,280.2982,451.182,272.81,457.5794" style="stroke:#404040;stroke-width:1.2;"/><text fill="#000000" font-family="sans-serif" font-size="13" lengthAdjust="spacing" textLength="43.3418" x="426" y="424.1045">formats</text><text fill="#000000" font-family="sans-serif" font-size="13" lengthAdjust="spacing" textLength="7.23" x="280.3422" y="446.659">1</text></g><?plantuml-src bLLBRjim4Dth58Io2s0ZJheIYWAkR0566ZI8ZNOzeiOnQqeKICgk-m5wY9wm9mbbVKoHygBGXlFuvaE-uKWppP74YrMo00qBL5IoKZDHa7z__X9nG7bWU0nsB4D2cQGScpNcfJwH7FCKfGhKdXKbICY9sa4cZgnu9LlW2gsTkPJYkDankYzGAJARtbkRb8F1VWQaeSM22qbktjtLdm4_2fcXTD5457hDVY2PtGU_Ww294TRdKAX30egqQtAJB9DblEmeiO6vU7r1QkAUYGF4fPzlHXmBBY3hmtQ0I_wAwVnvTQOrIqE8auSuwGXpMb_l2wgADqNQW4jU5Kf3GV4BI0OfnxE32_ObGAgq1Af9bwgrdw0iZIHDjY7c9dpUdHIZm6qN1tDTDlXzaC6oNUedGK4BQRE7KEzmxIZrrQzRTHtCgmlIYeEiox6zVDYLSArbHNKbCRFzF7IiJH9p1fIbPCMb0ItCkst9Sf2dHpmr5zsRVacWcTACghQMpdGZhgkqRWxD3gOzU8KBaGCh6gVHBIyJ6aQ1tFFsyTxLxQdtloOJjsl6ILQlZ1E6xH6uaZT1F4N7UPw2GJSVRirkE0kTCH0HLQNVaEhFMuSvdTw6_ZECoA5TFY6eEi_GxMuwDJaiaIEo0tMnFRP9OYbjokcDCUfWAaKaCqp9qgeUBcFqTZgD4FiW5jiLfodTaNZWB2v7TjM8YFatYCsfn6oknbFEGk_jH6HxiOAsVBj4Uuv6f1IwRbdWDXuCIFzxFa_noUH3L-sLrnKH3NjKxgvAfCYlnwk57tblNJ1xgudabdyED1ljqQsGEMWLl040?></g></svg>