<svg xmlns="http://www.w3.org/2000/svg" xmlns:xlink="http://www.w3.org/1999/xlink" contentStyleType="text/css" data-diagram-type="CLASS" height="421px" preserveAspectRatio="none" style="width:580px;height:421px;background:#FFFFFF;" version="1.1" viewBox="0 0 580 421" width="580px" zoomAndPan="magnify"><?plantuml 1.2026.3?><defs/><g><g class="title" data-source-line="1"><text fill="#000000" font-family="sans-serif" font-size="14" font-weight="700" lengthAdjust="spacing" textLength="56" x="258.7445" y="24.5332">Concept</text></g><!--class Concept--><g class="entity" data-qualified-name="Concept" data-source-line="12" id="ent0002"><rect fill="#FEFECE" height="244.4063" rx="2.5" ry="2.5" style="stroke:#404040;stroke-width:0.5;" width="183.1855" x="21.74" y="45.6094"/><text fill="#000000" font-family="sans-serif" font-size="12" lengthAdjust="spacing" textLength="44.6953" x="90.9851" y="63.0664">Concept</text><line style="stroke:#404040;stroke-width:0.5;" x1="22.74" x2="203.9255" y1="70.7031" y2="70.7031"/><g data-visibility-modifier="PUBLIC_FIELD"><ellipse cx="32.74" cy="85.0078" fill="none" rx="3" ry="3" style="stroke:#038048;stroke-width:1;"/></g><text fill="#000000" font-family="sans-serif" font-size="14" lengthAdjust="spacing" textLength="136.9648" x="41.74" y="89.2363">prefLabel : string [1..*]</text><g data-visibility-modifier="PUBLIC_FIELD"><ellipse cx="32.74" cy="102.6172" fill="none" rx="3" ry="3" style="stroke:#038048;stroke-width:1;"/></g><text fill="#000000" font-family="sans-serif" font-size="14" lengthAdjust="spacing" textLength="127.627" x="41.74" y="106.8457">altLabel : string [0..*]</text><g data-visibility-modifier="PUBLIC_FIELD"><ellipse cx="32.74" cy="120.2266" fill="none" rx="3" ry="3" style="stroke:#038048;stroke-width:1;"/></g><text fill="#000000" font-family="sans-serif" font-size="14" lengthAdjust="spacing" textLength="154.8818" x="41.74" y="124.4551">hiddenLabel : string [0..*]</text><g data-visibility-modifier="PUBLIC_FIELD"><ellipse cx="32.74" cy="137.8359" fill="none" rx="3" ry="3" style="stroke:#038048;stroke-width:1;"/></g><text fill="#000000" font-family="sans-serif" font-size="14" lengthAdjust="spacing" textLength="128.4063" x="41.74" y="142.0645">notation : string [0..*]</text><g data-visibility-modifier="PUBLIC_FIELD"><ellipse cx="32.74" cy="155.4453" fill="none" rx="3" ry="3" style="stroke:#038048;stroke-width:1;"/></g><text fill="#000000" font-family="sans-serif" font-size="14" lengthAdjust="spacing" textLength="134.627" x="41.74" y="159.6738">definition : string [1..*]</text><g data-visibility-modifier="PUBLIC_FIELD"><ellipse cx="32.74" cy="173.0547" fill="none" rx="3" ry="3" style="stroke:#038048;stroke-width:1;"/></g><text fill="#000000" font-family="sans-serif" font-size="14" lengthAdjust="spacing" textLength="145.5166" x="41.74" y="177.2832">scopeNote : string [0..*]</text><g data-visibility-modifier="PUBLIC_FIELD"><ellipse cx="32.74" cy="190.6641" fill="none" rx="3" ry="3" style="stroke:#038048;stroke-width:1;"/></g><text fill="#000000" font-family="sans-serif" font-size="14" lengthAdjust="spacing" textLength="105.834" x="41.74" y="194.8926">note : string [0..*]</text><g data-visibility-modifier="PUBLIC_FIELD"><ellipse cx="32.74" cy="208.2734" fill="none" rx="3" ry="3" style="stroke:#038048;stroke-width:1;"/></g><text fill="#000000" font-family="sans-serif" font-size="14" lengthAdjust="spacing" textLength="149.3926" x="41.74" y="212.502">historyNote : string [0..*]</text><g data-visibility-modifier="PUBLIC_FIELD"><ellipse cx="32.74" cy="225.8828" fill="none" rx="3" ry="3" style="stroke:#038048;stroke-width:1;"/></g><text fill="#000000" font-family="sans-serif" font-size="14" lengthAdjust="spacing" textLength="154.0889" x="41.74" y="230.1113">changeNote : string [0..*]</text><g data-visibility-modifier="PUBLIC_FIELD"><ellipse cx="32.74" cy="243.4922" fill="none" rx="3" ry="3" style="stroke:#038048;stroke-width:1;"/></g><text fill="#000000" font-family="sans-serif" font-size="14" lengthAdjust="spacing" textLength="157.1855" x="41.74" y="247.7207">editorialNote : string [0..*]</text><g data-visibility-modifier="PUBLIC_FIELD"><ellipse cx="32.74" cy="261.1016" fill="none" rx="3" ry="3" style="stroke:#038048;stroke-width:1;"/></g><text fill="#000000" font-family="sans-serif" font-size="14" lengthAdjust="spacing" textLength="131.5029" x="41.74" y="265.3301">example : string [0..*]</text><g data-visibility-modifier="PUBLIC_FIELD"><ellipse cx="32.74" cy="278.7109" fill="none" rx="3" ry="3" style="stroke:#038048;stroke-width:1;"/></g><text fill="#000000" font-family="sans-serif" font-size="14" lengthAdjust="spacing" textLength="150.1719" x="41.74" y="282.9395">identifier : XsdAnyUri [1]</text></g><!--class ConceptScheme--><g class="entity" data-qualified-name="ConceptScheme" data-source-line="26" id="ent0003"><rect fill="#EEEEEE" height="25.0938" rx="2.5" ry="2.5" style="stroke:#404040;stroke-width:0.5;" width="94.7168" x="15.74" y="375.1094"/><text fill="#000000" font-family="sans-serif" font-size="12" lengthAdjust="spacing" textLength="88.7168" x="18.74" y="392.5664">ConceptScheme</text></g><!--class XsdAnyUri--><g class="entity" data-qualified-name="XsdAnyUri" data-source-line="34" id="ent0011"><rect fill="#FAE5D3" height="40.1875" rx="2.5" ry="2.5" style="stroke:#404040;stroke-width:0.5;" width="65.3809" x="213.74" y="367.6094"/><text fill="#000000" font-family="sans-serif" font-size="12" font-style="italic" lengthAdjust="spacing" textLength="63.3809" x="214.74" y="385.0664">&#171;dataType&#187;</text><text fill="#000000" font-family="sans-serif" font-size="12" lengthAdjust="spacing" textLength="56.6836" x="218.0886" y="400.1602">XsdAnyUri</text></g><!--reverse link ConceptScheme to Concept--><g class="link" data-entity-1="ent0003" data-entity-2="ent0002" data-link-type="dependency" data-source-line="27" id="lnk4"><path codeLine="27" d="M67.2218,369.2613 C71.1018,352.3513 77.42,324.8094 85.47,289.7194" fill="none" id="ConceptScheme-backto-Concept" style="stroke:#404040;stroke-width:1.2;"/><polygon fill="#404040" points="65.88,375.1094,71.7914,367.2319,66.9982,370.236,63.9941,365.4428,65.88,375.1094" style="stroke:#404040;stroke-width:1.2;"/><text fill="#000000" font-family="sans-serif" font-size="13" lengthAdjust="spacing" textLength="91.7808" x="79.24" y="334.1045">hasTopConcept</text><text fill="#000000" font-family="sans-serif" font-size="13" lengthAdjust="spacing" textLength="19.5127" x="44.2144" y="364.2014">1..*</text></g><!--link Concept to ConceptScheme--><g class="link" data-entity-1="ent0002" data-entity-2="ent0003" data-link-type="dependency" data-source-line="28" id="lnk5"><path codeLine="28" d="M21.73,288.5694 C16.78,298.7194 12.51,309.1194 9.24,319.6094 C6.87,327.2494 6,330.2994 9.24,337.6094 C16.27,353.4694 26.306,362.9754 38.706,371.5554" fill="none" id="Concept-to-ConceptScheme" style="stroke:#404040;stroke-width:1.2;"/><polygon fill="#404040" points="43.64,374.9694,38.515,366.559,39.5283,372.1244,33.963,373.1377,43.64,374.9694" style="stroke:#404040;stroke-width:1.2;"/><text fill="#000000" font-family="sans-serif" font-size="13" lengthAdjust="spacing" textLength="57.8081" x="10.24" y="334.1045">inScheme</text><text fill="#000000" font-family="sans-serif" font-size="13" lengthAdjust="spacing" textLength="19.5127" x="12.8004" y="364.0037">1..*</text></g><!--link Concept to Concept--><g class="link" data-entity-1="ent0002" data-entity-2="ent0002" data-link-type="dependency" data-source-line="29" id="lnk6"><path codeLine="29" d="M204.78,161.7694 C225.01,162.3194 239.74,164.2694 239.74,167.6094 C239.74,170.9494 231.0078,172.7363 210.7778,173.2863" fill="none" id="Concept-to-Concept" style="stroke:#404040;stroke-width:1.2;"/><polygon fill="#404040" points="204.78,173.4494,213.8854,177.2033,209.7782,173.3135,213.668,169.2063,204.78,173.4494" style="stroke:#404040;stroke-width:1.2;"/><text fill="#000000" font-family="sans-serif" font-size="13" lengthAdjust="spacing" textLength="44.8081" x="245.74" y="173.1045">broader</text><text fill="#000000" font-family="sans-serif" font-size="13" lengthAdjust="spacing" textLength="19.5127" x="212.8447" y="170.7702">0..*</text></g><!--link Concept to Concept--><g class="link" data-entity-1="ent0002" data-entity-2="ent0002" data-link-type="dependency" data-source-line="30" id="lnk7"><path codeLine="30" d="M205.11,155.9294 C252.16,154.4094 295.74,158.2994 295.74,167.6094 C295.74,176.9194 258.1569,181.0031 211.1069,179.4831" fill="none" id="Concept-to-Concept-1" style="stroke:#404040;stroke-width:1.2;"/><polygon fill="#404040" points="205.11,179.2894,213.9762,183.5779,210.1074,179.4508,214.2345,175.5821,205.11,179.2894" style="stroke:#404040;stroke-width:1.2;"/><text fill="#000000" font-family="sans-serif" font-size="13" lengthAdjust="spacing" textLength="51.2954" x="301.74" y="173.1045">narrower</text><text fill="#000000" font-family="sans-serif" font-size="13" lengthAdjust="spacing" textLength="19.5127" x="212.8837" y="194.2891">0..*</text></g><!--link Concept to Concept--><g class="link" data-entity-1="ent0002" data-entity-2="ent0002" data-link-type="dependency" data-source-line="31" id="lnk8"><path codeLine="31" d="M204.94,151.6894 C277.96,146.2194 358.74,151.5294 358.74,167.6094 C358.74,183.6894 283.9432,189.4476 210.9232,183.9776" fill="none" id="Concept-to-Concept-2" style="stroke:#404040;stroke-width:1.2;"/><polygon fill="#404040" points="204.94,183.5294,213.616,188.1905,209.926,183.9029,214.2137,180.2129,204.94,183.5294" style="stroke:#404040;stroke-width:1.2;"/><text fill="#000000" font-family="sans-serif" font-size="13" lengthAdjust="spacing" textLength="39.749" x="364.74" y="173.1045">related</text><text fill="#000000" font-family="sans-serif" font-size="13" lengthAdjust="spacing" textLength="19.5127" x="213.0174" y="181.6534">0..*</text></g><!--link Concept to Concept--><g class="link" data-entity-1="ent0002" data-entity-2="ent0002" data-link-type="dependency" data-source-line="32" id="lnk9"><path codeLine="32" d="M204.8,148.1194 C297.05,138.1794 409.74,144.6694 409.74,167.6094 C409.74,190.5494 303.0155,197.6822 210.7655,187.7422" fill="none" id="Concept-to-Concept-3" style="stroke:#404040;stroke-width:1.2;"/><polygon fill="#404040" points="204.8,187.0994,213.3197,192.0405,209.7712,187.635,214.1767,184.0866,204.8,187.0994" style="stroke:#404040;stroke-width:1.2;"/><text fill="#000000" font-family="sans-serif" font-size="13" lengthAdjust="spacing" textLength="66.4727" x="415.74" y="173.1045">exactMatch</text><text fill="#000000" font-family="sans-serif" font-size="13" lengthAdjust="spacing" textLength="19.5127" x="212.8663" y="202.7829">0..*</text></g><!--link Concept to Concept--><g class="link" data-entity-1="ent0002" data-entity-2="ent0002" data-link-type="dependency" data-source-line="33" id="lnk10"><path codeLine="33" d="M205.11,145.6494 C323.27,129.9394 487.74,137.2594 487.74,167.6094 C487.74,197.9594 329.2177,206.0701 211.0577,190.3601" fill="none" id="Concept-to-Concept-4" style="stroke:#404040;stroke-width:1.2;"/><polygon fill="#404040" points="205.11,189.5694,213.5043,194.7206,210.0664,190.2284,214.5587,186.7904,205.11,189.5694" style="stroke:#404040;stroke-width:1.2;"/><text fill="#000000" font-family="sans-serif" font-size="13" lengthAdjust="spacing" textLength="65.749" x="493.74" y="173.1045">closeMatch</text><text fill="#000000" font-family="sans-serif" font-size="13" lengthAdjust="spacing" textLength="19.5127" x="212.4176" y="191.5055">0..*</text></g><!--link Concept to XsdAnyUri--><g class="link" data-entity-1="ent0002" data-entity-2="ent0011" data-link-type="dependency" data-source-line="35" id="lnk12"><path codeLine="35" d="M187.13,289.7194 C205.67,320.0994 220.3047,344.0876 231.4347,362.3276" fill="none" id="Concept-to-XsdAnyUri" style="stroke:#404040;stroke-width:1.2;stroke-dasharray:7,7;"/><polygon fill="#404040" points="234.56,367.4494,233.2866,357.6832,231.9556,363.1812,226.4575,361.8502,234.56,367.4494" style="stroke:#404040;stroke-width:1.2;"/><text fill="#000000" font-family="sans-serif" font-size="13" lengthAdjust="spacing" textLength="49.1372" x="214.24" y="334.1045">identifier</text></g><?plantuml-src XL91Ri8m4Bpd5IkujI82sbuGYaHfEBMzGALA5OV5tX0BnuviIvHM_NiTGj844MfVh9dnUZspJZX9CDUAKUw2L7029WoJL9ufozq1CiesP6nWTqBbQ303coBNUw6saA2qr61cnkZzAXLifyXQ68NZ1iaaUkmxW58srr8RwDyFY-t1HsqucNDqePLRYY-2qJZu2OAoHk_KSW_GLkr3Vn4ludbyVE0sDvGyuuOaJC0wK_JwCGh3ctL1edJdtB3Y_CSvgKvQQOTEQ7M9uvG89SxO-b7BT4wlsb57MRhSZNNQ7BgkiHJLjhCeSU4l2vITWa_CSdcHyl4h9n91nhFlbi_KuSq8_vsrJw4TmfAbb54pYXA1VdnSGHlj5OxqO3eOrCbD84MxqdarY1K-64ILl5rZ0aALnxPssDHwrSPez3DrNQImcCR_L8OaEkBNHTvGvbxGiVIwZabjgTITlAmjFlhuP_Xqoj7Xwf1J5Fa9dyKFJtTrxJ2C6b9lIXrQy0i0?></g></svg>