<svg xmlns="http://www.w3.org/2000/svg" xmlns:xlink="http://www.w3.org/1999/xlink" contentStyleType="text/css" data-diagram-type="CLASS" height="202px" preserveAspectRatio="none" style="width:2628px;height:202px;background:#FFFFFF;" version="1.1" viewBox="0 0 2628 202" width="2628px" zoomAndPan="magnify"><?plantuml 1.2026.3?><defs/><g><g class="title" data-source-line="1"><text fill="#000000" font-family="sans-serif" font-size="14" font-weight="700" lengthAdjust="spacing" textLength="71.5723" x="1274.917" y="24.5332">XsdAnyUri</text></g><!--class XsdAnyUri--><g class="entity" data-qualified-name="XsdAnyUri" data-source-line="12" id="ent0002"><rect fill="#FAE5D3" height="40.1875" rx="2.5" ry="2.5" style="stroke:#404040;stroke-width:0.5;" width="65.3809" x="1108" y="148.6094"/><text fill="#000000" font-family="sans-serif" font-size="12" font-style="italic" lengthAdjust="spacing" textLength="63.3809" x="1109" y="166.0664">&#171;dataType&#187;</text><text fill="#000000" font-family="sans-serif" font-size="12" lengthAdjust="spacing" textLength="56.6836" x="1112.3486" y="181.1602">XsdAnyUri</text></g><!--class CompositeProfile--><g class="entity" data-qualified-name="CompositeProfile" data-source-line="13" id="ent0003"><rect fill="#EEEEEE" height="25.0938" rx="2.5" ry="2.5" style="stroke:#404040;stroke-width:0.5;" width="97.3711" x="7" y="45.6094"/><text fill="#000000" font-family="sans-serif" font-size="12" font-style="italic" lengthAdjust="spacing" textLength="91.3711" x="10" y="63.0664">CompositeProfile</text></g><!--class Dataset--><g class="entity" data-qualified-name="Dataset" data-source-line="15" id="ent0005"><rect fill="#EEEEEE" height="25.0938" rx="2.5" ry="2.5" style="stroke:#404040;stroke-width:0.5;" width="47.3555" x="139" y="45.6094"/><text fill="#000000" font-family="sans-serif" font-size="12" lengthAdjust="spacing" textLength="41.3555" x="142" y="63.0664">Dataset</text></g><!--class DataDownload--><g class="entity" data-qualified-name="DataDownload" data-source-line="17" id="ent0007"><rect fill="#EEEEEE" height="25.0938" rx="2.5" ry="2.5" style="stroke:#404040;stroke-width:0.5;" width="84.7148" x="250" y="45.6094"/><text fill="#000000" font-family="sans-serif" font-size="12" lengthAdjust="spacing" textLength="78.7148" x="253" y="63.0664">DataDownload</text></g><!--class WebAPI--><g class="entity" data-qualified-name="WebAPI" data-source-line="20" id="ent0010"><rect fill="#EEEEEE" height="25.0938" rx="2.5" ry="2.5" style="stroke:#404040;stroke-width:0.5;" width="50.0156" x="394.5" y="45.6094"/><text fill="#000000" font-family="sans-serif" font-size="12" lengthAdjust="spacing" textLength="44.0156" x="397.5" y="63.0664">WebAPI</text></g><!--class ActionResult--><g class="entity" data-qualified-name="ActionResult" data-source-line="22" id="ent0012"><rect fill="#EEEEEE" height="25.0938" rx="2.5" ry="2.5" style="stroke:#404040;stroke-width:0.5;" width="73.3652" x="480" y="45.6094"/><text fill="#000000" font-family="sans-serif" font-size="12" lengthAdjust="spacing" textLength="67.3652" x="483" y="63.0664">ActionResult</text></g><!--class DefinedTerm--><g class="entity" data-qualified-name="DefinedTerm" data-source-line="24" id="ent0014"><rect fill="#EEEEEE" height="25.0938" rx="2.5" ry="2.5" style="stroke:#404040;stroke-width:0.5;" width="75.3574" x="588" y="45.6094"/><text fill="#000000" font-family="sans-serif" font-size="12" lengthAdjust="spacing" textLength="69.3574" x="591" y="63.0664">DefinedTerm</text></g><!--class Identifier--><g class="entity" data-qualified-name="Identifier" data-source-line="26" id="ent0016"><rect fill="#EEEEEE" height="25.0938" rx="2.5" ry="2.5" style="stroke:#404040;stroke-width:0.5;" width="52.0254" x="698.5" y="45.6094"/><text fill="#000000" font-family="sans-serif" font-size="12" lengthAdjust="spacing" textLength="46.0254" x="701.5" y="63.0664">Identifier</text></g><!--class AdditionalProperty--><g class="entity" data-qualified-name="AdditionalProperty" data-source-line="28" id="ent0018"><rect fill="#EEEEEE" height="25.0938" rx="2.5" ry="2.5" style="stroke:#404040;stroke-width:0.5;" width="104.0566" x="785.5" y="45.6094"/><text fill="#000000" font-family="sans-serif" font-size="12" lengthAdjust="spacing" textLength="98.0566" x="788.5" y="63.0664">AdditionalProperty</text></g><!--class Reference--><g class="entity" data-qualified-name="Reference" data-source-line="30" id="ent0020"><rect fill="#EEEEEE" height="25.0938" rx="2.5" ry="2.5" style="stroke:#404040;stroke-width:0.5;" width="61.3652" x="925" y="45.6094"/><text fill="#000000" font-family="sans-serif" font-size="12" lengthAdjust="spacing" textLength="55.3652" x="928" y="63.0664">Reference</text></g><!--class ProvActivity--><g class="entity" data-qualified-name="ProvActivity" data-source-line="33" id="ent0023"><rect fill="#EEEEEE" height="25.0938" rx="2.5" ry="2.5" style="stroke:#404040;stroke-width:0.5;" width="68.6777" x="1021" y="45.6094"/><text fill="#000000" font-family="sans-serif" font-size="12" lengthAdjust="spacing" textLength="62.6777" x="1024" y="63.0664">ProvActivity</text></g><!--class DerivedFrom--><g class="entity" data-qualified-name="DerivedFrom" data-source-line="35" id="ent0025"><rect fill="#EEEEEE" height="25.0938" rx="2.5" ry="2.5" style="stroke:#404040;stroke-width:0.5;" width="75.3457" x="1125" y="45.6094"/><text fill="#000000" font-family="sans-serif" font-size="12" lengthAdjust="spacing" textLength="69.3457" x="1128" y="63.0664">DerivedFrom</text></g><!--class CatalogRecord--><g class="entity" data-qualified-name="CatalogRecord" data-source-line="38" id="ent0028"><rect fill="#EEEEEE" height="25.0938" rx="2.5" ry="2.5" style="stroke:#404040;stroke-width:0.5;" width="86.0449" x="1235.5" y="45.6094"/><text fill="#000000" font-family="sans-serif" font-size="12" lengthAdjust="spacing" textLength="80.0449" x="1238.5" y="63.0664">CatalogRecord</text></g><!--class VariableMeasured--><g class="entity" data-qualified-name="VariableMeasured" data-source-line="40" id="ent0030"><rect fill="#EEEEEE" height="25.0938" rx="2.5" ry="2.5" style="stroke:#404040;stroke-width:0.5;" width="103.3887" x="1357" y="45.6094"/><text fill="#000000" font-family="sans-serif" font-size="12" lengthAdjust="spacing" textLength="97.3887" x="1360" y="63.0664">VariableMeasured</text></g><!--class SpatialExtent--><g class="entity" data-qualified-name="SpatialExtent" data-source-line="42" id="ent0032"><rect fill="#EEEEEE" height="25.0938" rx="2.5" ry="2.5" style="stroke:#404040;stroke-width:0.5;" width="76.7109" x="1495" y="45.6094"/><text fill="#000000" font-family="sans-serif" font-size="12" lengthAdjust="spacing" textLength="70.7109" x="1498" y="63.0664">SpatialExtent</text></g><!--class QualityMeasure--><g class="entity" data-qualified-name="QualityMeasure" data-source-line="44" id="ent0034"><rect fill="#EEEEEE" height="25.0938" rx="2.5" ry="2.5" style="stroke:#404040;stroke-width:0.5;" width="90.0352" x="1607.5" y="45.6094"/><text fill="#000000" font-family="sans-serif" font-size="12" lengthAdjust="spacing" textLength="84.0352" x="1610.5" y="63.0664">QualityMeasure</text></g><!--class InstanceVariable--><g class="entity" data-qualified-name="InstanceVariable" data-source-line="46" id="ent0036"><rect fill="#EEEEEE" height="25.0938" rx="2.5" ry="2.5" style="stroke:#404040;stroke-width:0.5;" width="95.3906" x="1733" y="45.6094"/><text fill="#000000" font-family="sans-serif" font-size="12" lengthAdjust="spacing" textLength="89.3906" x="1736" y="63.0664">InstanceVariable</text></g><!--class AbstractMapping--><g class="entity" data-qualified-name="AbstractMapping" data-source-line="48" id="ent0038"><rect fill="#EEEEEE" height="25.0938" rx="2.5" ry="2.5" style="stroke:#404040;stroke-width:0.5;" width="96.0469" x="1863.5" y="45.6094"/><text fill="#000000" font-family="sans-serif" font-size="12" font-style="italic" lengthAdjust="spacing" textLength="90.0469" x="1866.5" y="63.0664">AbstractMapping</text></g><!--class AbstractDataSet--><g class="entity" data-qualified-name="AbstractDataSet" data-source-line="50" id="ent0040"><rect fill="#EEEEEE" height="25.0938" rx="2.5" ry="2.5" style="stroke:#404040;stroke-width:0.5;" width="93.375" x="1995" y="45.6094"/><text fill="#000000" font-family="sans-serif" font-size="12" font-style="italic" lengthAdjust="spacing" textLength="87.375" x="1998" y="63.0664">AbstractDataSet</text></g><!--class PrimaryKey--><g class="entity" data-qualified-name="PrimaryKey" data-source-line="52" id="ent0042"><rect fill="#EEEEEE" height="25.0938" rx="2.5" ry="2.5" style="stroke:#404040;stroke-width:0.5;" width="68.0098" x="2123.5" y="45.6094"/><text fill="#000000" font-family="sans-serif" font-size="12" lengthAdjust="spacing" textLength="62.0098" x="2126.5" y="63.0664">PrimaryKey</text></g><!--class Statistics--><g class="entity" data-qualified-name="Statistics" data-source-line="54" id="ent0044"><rect fill="#EEEEEE" height="25.0938" rx="2.5" ry="2.5" style="stroke:#404040;stroke-width:0.5;" width="54.0117" x="2226.5" y="45.6094"/><text fill="#000000" font-family="sans-serif" font-size="12" lengthAdjust="spacing" textLength="48.0117" x="2229.5" y="63.0664">Statistics</text></g><!--class SubstantiveValueDomain--><g class="entity" data-qualified-name="SubstantiveValueDomain" data-source-line="56" id="ent0046"><rect fill="#EEEEEE" height="25.0938" rx="2.5" ry="2.5" style="stroke:#404040;stroke-width:0.5;" width="140.748" x="2316" y="45.6094"/><text fill="#000000" font-family="sans-serif" font-size="12" lengthAdjust="spacing" textLength="134.748" x="2319" y="63.0664">SubstantiveValueDomain</text></g><!--class SentinelValueDomain--><g class="entity" data-qualified-name="SentinelValueDomain" data-source-line="58" id="ent0048"><rect fill="#EEEEEE" height="25.0938" rx="2.5" ry="2.5" style="stroke:#404040;stroke-width:0.5;" width="121.4063" x="2492" y="45.6094"/><text fill="#000000" font-family="sans-serif" font-size="12" lengthAdjust="spacing" textLength="115.4063" x="2495" y="63.0664">SentinelValueDomain</text></g><!--link CompositeProfile to XsdAnyUri--><g class="link" data-entity-1="ent0003" data-entity-2="ent0002" data-link-type="dependency" data-source-line="14" id="lnk4"><path codeLine="14" d="M63,70.8394 C72.86,85.0794 91.64,108.4394 114.5,118.6094 C207.01,159.7794 936.9701,166.4337 1101.8201,167.4137" fill="none" id="CompositeProfile-to-XsdAnyUri" style="stroke:#404040;stroke-width:1.2;stroke-dasharray:7,7;"/><polygon fill="#404040" points="1107.82,167.4494,1098.8439,163.3959,1102.8201,167.4197,1098.7964,171.3958,1107.82,167.4494" style="stroke:#404040;stroke-width:1.2;"/><text fill="#000000" font-family="sans-serif" font-size="13" lengthAdjust="spacing" textLength="49.1372" x="115.5" y="115.1045">identifier</text></g><!--link Dataset to XsdAnyUri--><g class="link" data-entity-1="ent0005" data-entity-2="ent0002" data-link-type="dependency" data-source-line="16" id="lnk6"><path codeLine="16" d="M163.59,71.0194 C165.56,84.9894 171.08,107.6194 186.5,118.6094 C224.8,145.9094 938.4915,163.1771 1101.7515,166.7771" fill="none" id="Dataset-to-XsdAnyUri" style="stroke:#404040;stroke-width:1.2;stroke-dasharray:7,7;"/><polygon fill="#404040" points="1107.75,166.9094,1098.8404,162.7119,1102.7512,166.7991,1098.664,170.71,1107.75,166.9094" style="stroke:#404040;stroke-width:1.2;"/><text fill="#000000" font-family="sans-serif" font-size="13" lengthAdjust="spacing" textLength="14.4473" x="187.5" y="115.1045">url</text></g><!--link DataDownload to XsdAnyUri--><g class="link" data-entity-1="ent0007" data-entity-2="ent0002" data-link-type="dependency" data-source-line="18" id="lnk8"><path codeLine="18" d="M257.59,70.7094 C229.51,81.8094 197.48,99.6094 215.5,118.6094 C246.85,151.6594 941.5907,164.5048 1102.0007,167.0348" fill="none" id="DataDownload-to-XsdAnyUri" style="stroke:#404040;stroke-width:1.2;stroke-dasharray:7,7;"/><polygon fill="#404040" points="1108,167.1294,1099.0642,162.9879,1103.0006,167.0505,1098.938,170.9869,1108,167.1294" style="stroke:#404040;stroke-width:1.2;"/><text fill="#000000" font-family="sans-serif" font-size="13" lengthAdjust="spacing" textLength="59.249" x="216.5" y="115.1045">contentUrl</text></g><!--link DataDownload to XsdAnyUri--><g class="link" data-entity-1="ent0007" data-entity-2="ent0002" data-link-type="dependency" data-source-line="19" id="lnk9"><path codeLine="19" d="M305.51,70.8094 C322.21,85.0094 352.7,108.3394 383.5,118.6094 C520.93,164.4394 975.22,167.6894 1101.95,167.6894" fill="none" id="DataDownload-to-XsdAnyUri-1" style="stroke:#404040;stroke-width:1.2;stroke-dasharray:7,7;"/><polygon fill="#404040" points="1107.95,167.6894,1098.95,163.6894,1102.95,167.6894,1098.95,171.6894,1107.95,167.6894" style="stroke:#404040;stroke-width:1.2;"/><text fill="#000000" font-family="sans-serif" font-size="13" lengthAdjust="spacing" textLength="68.6309" x="384.5" y="115.1045">conformsTo</text></g><!--link WebAPI to XsdAnyUri--><g class="link" data-entity-1="ent0010" data-entity-2="ent0002" data-link-type="dependency" data-source-line="21" id="lnk11"><path codeLine="21" d="M428.97,70.7594 C441.25,84.9094 464.12,108.1794 489.5,118.6094 C603.25,165.3394 985.92,168.0728 1101.7,167.8128" fill="none" id="WebAPI-to-XsdAnyUri" style="stroke:#404040;stroke-width:1.2;stroke-dasharray:7,7;"/><polygon fill="#404040" points="1107.7,167.7994,1098.691,163.8196,1102.7,167.8106,1098.709,171.8196,1107.7,167.7994" style="stroke:#404040;stroke-width:1.2;"/><text fill="#000000" font-family="sans-serif" font-size="13" lengthAdjust="spacing" textLength="49.1372" x="490.5" y="115.1045">identifier</text></g><!--link ActionResult to XsdAnyUri--><g class="link" data-entity-1="ent0012" data-entity-2="ent0002" data-link-type="dependency" data-source-line="23" id="lnk13"><path codeLine="23" d="M523.54,70.6894 C532.81,84.7694 550.54,107.9794 572.5,118.6094 C667.93,164.8094 995.47,168.0101 1101.72,167.8201" fill="none" id="ActionResult-to-XsdAnyUri" style="stroke:#404040;stroke-width:1.2;stroke-dasharray:7,7;"/><polygon fill="#404040" points="1107.72,167.8094,1098.7129,163.8255,1102.72,167.8183,1098.7272,171.8255,1107.72,167.8094" style="stroke:#404040;stroke-width:1.2;"/><text fill="#000000" font-family="sans-serif" font-size="13" lengthAdjust="spacing" textLength="68.6309" x="573.5" y="115.1045">conformsTo</text></g><!--link DefinedTerm to XsdAnyUri--><g class="link" data-entity-1="ent0014" data-entity-2="ent0002" data-link-type="dependency" data-source-line="25" id="lnk15"><path codeLine="25" d="M631.02,71.0794 C638.19,85.1094 652.11,107.8094 671.5,118.6094 C746.59,160.4494 1008.0803,166.5637 1101.7903,167.4337" fill="none" id="DefinedTerm-to-XsdAnyUri" style="stroke:#404040;stroke-width:1.2;stroke-dasharray:7,7;"/><polygon fill="#404040" points="1107.79,167.4894,1098.8275,163.406,1102.7902,167.443,1098.7533,171.4057,1107.79,167.4894" style="stroke:#404040;stroke-width:1.2;"/><text fill="#000000" font-family="sans-serif" font-size="13" lengthAdjust="spacing" textLength="104.7681" x="672.5" y="115.1045">inDefinedTermSet</text></g><!--link Identifier to XsdAnyUri--><g class="link" data-entity-1="ent0016" data-entity-2="ent0002" data-link-type="dependency" data-source-line="27" id="lnk17"><path codeLine="27" d="M739.48,70.8194 C757.92,84.5894 790.71,107.0294 822.5,118.6094 C922.23,154.9294 1043.0951,164.0815 1101.8751,166.5115" fill="none" id="Identifier-to-XsdAnyUri" style="stroke:#404040;stroke-width:1.2;stroke-dasharray:7,7;"/><polygon fill="#404040" points="1107.87,166.7594,1099.0429,162.391,1102.8743,166.5528,1098.7125,170.3842,1107.87,166.7594" style="stroke:#404040;stroke-width:1.2;"/><text fill="#000000" font-family="sans-serif" font-size="13" lengthAdjust="spacing" textLength="14.4473" x="823.5" y="115.1045">url</text></g><!--link AdditionalProperty to XsdAnyUri--><g class="link" data-entity-1="ent0018" data-entity-2="ent0002" data-link-type="dependency" data-source-line="29" id="lnk19"><path codeLine="29" d="M838.62,70.6994 C840.58,84.3394 845.95,106.6594 860.5,118.6094 C897.87,149.2994 1036.1619,161.3414 1101.7419,165.4814" fill="none" id="AdditionalProperty-to-XsdAnyUri" style="stroke:#404040;stroke-width:1.2;stroke-dasharray:7,7;"/><polygon fill="#404040" points="1107.73,165.8594,1098.9999,161.3003,1102.7399,165.5444,1098.4959,169.2844,1107.73,165.8594" style="stroke:#404040;stroke-width:1.2;"/><text fill="#000000" font-family="sans-serif" font-size="13" lengthAdjust="spacing" textLength="52.0381" x="861.5" y="115.1045">unitCode</text></g><!--link Reference to XsdAnyUri--><g class="link" data-entity-1="ent0020" data-entity-2="ent0002" data-link-type="dependency" data-source-line="31" id="lnk21"><path codeLine="31" d="M942.73,70.9594 C930.61,83.6594 915.84,103.9594 927.5,118.6094 C949.66,146.4394 1047.6471,159.2203 1101.6971,164.3703" fill="none" id="Reference-to-XsdAnyUri" style="stroke:#404040;stroke-width:1.2;stroke-dasharray:7,7;"/><polygon fill="#404040" points="1107.67,164.9394,1099.09,160.1037,1102.6925,164.4651,1098.3312,168.0677,1107.67,164.9394" style="stroke:#404040;stroke-width:1.2;"/><text fill="#000000" font-family="sans-serif" font-size="13" lengthAdjust="spacing" textLength="14.4473" x="928.5" y="115.1045">url</text></g><!--link Reference to XsdAnyUri--><g class="link" data-entity-1="ent0020" data-entity-2="ent0002" data-link-type="dependency" data-source-line="32" id="lnk22"><path codeLine="32" d="M968.04,70.6994 C982.37,83.5394 1006.9,104.3094 1030.5,118.6094 C1055.17,133.5594 1079.6306,144.4225 1102.0806,153.3025" fill="none" id="Reference-to-XsdAnyUri-1" style="stroke:#404040;stroke-width:1.2;stroke-dasharray:7,7;"/><polygon fill="#404040" points="1107.66,155.5094,1100.7622,148.4794,1103.0105,153.6703,1097.8196,155.9186,1107.66,155.5094" style="stroke:#404040;stroke-width:1.2;"/><text fill="#000000" font-family="sans-serif" font-size="13" lengthAdjust="spacing" textLength="42.6372" x="1031.5" y="115.1045">relation</text></g><!--link ProvActivity to XsdAnyUri--><g class="link" data-entity-1="ent0023" data-entity-2="ent0002" data-link-type="dependency" data-source-line="34" id="lnk24"><path codeLine="34" d="M1062.94,70.8294 C1070.84,83.0594 1083.92,102.6494 1096.5,118.6094 C1104.57,128.8494 1110.1151,135.2662 1118.2851,144.1362" fill="none" id="ProvActivity-to-XsdAnyUri" style="stroke:#404040;stroke-width:1.2;stroke-dasharray:7,7;"/><polygon fill="#404040" points="1122.35,148.5494,1119.1947,139.2196,1118.9626,144.8717,1113.3105,144.6395,1122.35,148.5494" style="stroke:#404040;stroke-width:1.2;"/><text fill="#000000" font-family="sans-serif" font-size="13" lengthAdjust="spacing" textLength="28.1899" x="1097.5" y="115.1045">used</text></g><!--link DerivedFrom to XsdAnyUri--><g class="link" data-entity-1="ent0025" data-entity-2="ent0002" data-link-type="dependency" data-source-line="36" id="lnk26"><path codeLine="36" d="M1153.19,70.6494 C1147.43,78.5694 1140.56,89.5894 1137.5,100.6094 C1133.13,116.3194 1133.5329,128.9483 1135.6129,142.5483" fill="none" id="DerivedFrom-to-XsdAnyUri" style="stroke:#404040;stroke-width:1.2;stroke-dasharray:7,7;"/><polygon fill="#404040" points="1136.52,148.4794,1139.1134,138.9781,1135.7641,143.5368,1131.2053,140.1876,1136.52,148.4794" style="stroke:#404040;stroke-width:1.2;"/><text fill="#000000" font-family="sans-serif" font-size="13" lengthAdjust="spacing" textLength="14.4473" x="1138.5" y="115.1045">url</text></g><!--link DerivedFrom to XsdAnyUri--><g class="link" data-entity-1="ent0025" data-entity-2="ent0002" data-link-type="dependency" data-source-line="37" id="lnk27"><path codeLine="37" d="M1162.38,70.6394 C1162.06,82.7194 1160.98,102.1794 1157.5,118.6094 C1155.37,128.6494 1153.8816,133.8532 1150.5316,142.7632" fill="none" id="DerivedFrom-to-XsdAnyUri-1" style="stroke:#404040;stroke-width:1.2;stroke-dasharray:7,7;"/><polygon fill="#404040" points="1148.42,148.3794,1155.3315,141.3629,1150.1796,143.6992,1147.8433,138.5474,1148.42,148.3794" style="stroke:#404040;stroke-width:1.2;"/><text fill="#000000" font-family="sans-serif" font-size="13" lengthAdjust="spacing" textLength="42.6372" x="1160.5" y="115.1045">relation</text></g><!--link CatalogRecord to XsdAnyUri--><g class="link" data-entity-1="ent0028" data-entity-2="ent0002" data-link-type="dependency" data-source-line="39" id="lnk29"><path codeLine="39" d="M1266.05,70.9894 C1252.89,83.3594 1231.33,103.0594 1211.5,118.6094 C1198.18,129.0494 1187.7688,136.4809 1174.7288,145.2509" fill="none" id="CatalogRecord-to-XsdAnyUri" style="stroke:#404040;stroke-width:1.2;stroke-dasharray:7,7;"/><polygon fill="#404040" points="1169.75,148.5994,1179.4504,146.8959,1173.899,145.809,1174.9858,140.2575,1169.75,148.5994" style="stroke:#404040;stroke-width:1.2;"/><text fill="#000000" font-family="sans-serif" font-size="13" lengthAdjust="spacing" textLength="68.6309" x="1232.5" y="115.1045">conformsTo</text></g><!--link VariableMeasured to XsdAnyUri--><g class="link" data-entity-1="ent0030" data-entity-2="ent0002" data-link-type="dependency" data-source-line="41" id="lnk31"><path codeLine="41" d="M1392.05,70.8294 C1372.97,83.9694 1340.19,105.2094 1309.5,118.6094 C1263.87,138.5394 1213.682,151.6251 1178.992,159.4751" fill="none" id="VariableMeasured-to-XsdAnyUri" style="stroke:#404040;stroke-width:1.2;stroke-dasharray:7,7;"/><polygon fill="#404040" points="1173.14,160.7994,1182.8009,162.7143,1178.0167,159.6958,1181.0352,154.9116,1173.14,160.7994" style="stroke:#404040;stroke-width:1.2;"/><text fill="#000000" font-family="sans-serif" font-size="13" lengthAdjust="spacing" textLength="49.1372" x="1343.5" y="115.1045">identifier</text></g><!--link SpatialExtent to XsdAnyUri--><g class="link" data-entity-1="ent0032" data-entity-2="ent0002" data-link-type="dependency" data-source-line="43" id="lnk33"><path codeLine="43" d="M1512.17,70.6394 C1486.57,84.0194 1442.03,105.8694 1401.5,118.6094 C1321.45,143.7694 1229.2562,157.1958 1179.2062,163.2758" fill="none" id="SpatialExtent-to-XsdAnyUri" style="stroke:#404040;stroke-width:1.2;stroke-dasharray:7,7;"/><polygon fill="#404040" points="1173.25,163.9994,1182.6667,166.8849,1178.2135,163.3964,1181.702,158.9432,1173.25,163.9994" style="stroke:#404040;stroke-width:1.2;"/><text fill="#000000" font-family="sans-serif" font-size="13" lengthAdjust="spacing" textLength="49.1372" x="1446.5" y="115.1045">identifier</text></g><!--link QualityMeasure to XsdAnyUri--><g class="link" data-entity-1="ent0034" data-entity-2="ent0002" data-link-type="dependency" data-source-line="45" id="lnk35"><path codeLine="45" d="M1629.03,70.6794 C1600.35,84.2994 1550.02,106.5994 1504.5,118.6094 C1384.89,150.1794 1243.5191,161.6774 1179.1491,165.5674" fill="none" id="QualityMeasure-to-XsdAnyUri" style="stroke:#404040;stroke-width:1.2;stroke-dasharray:7,7;"/><polygon fill="#404040" points="1173.16,165.9294,1182.3849,169.3792,1178.1509,165.6278,1181.9023,161.3938,1173.16,165.9294" style="stroke:#404040;stroke-width:1.2;"/><text fill="#000000" font-family="sans-serif" font-size="13" lengthAdjust="spacing" textLength="35.3882" x="1559.5" y="115.1045">metric</text></g><!--link InstanceVariable to XsdAnyUri--><g class="link" data-entity-1="ent0036" data-entity-2="ent0002" data-link-type="dependency" data-source-line="47" id="lnk37"><path codeLine="47" d="M1752.53,70.6394 C1718.09,84.3394 1657.5,106.8194 1603.5,118.6094 C1444.57,153.2894 1255.3757,163.5036 1179.1657,166.3736" fill="none" id="InstanceVariable-to-XsdAnyUri" style="stroke:#404040;stroke-width:1.2;stroke-dasharray:7,7;"/><polygon fill="#404040" points="1173.17,166.5994,1182.3142,170.2578,1178.1665,166.4112,1182.0131,162.2635,1173.17,166.5994" style="stroke:#404040;stroke-width:1.2;"/><text fill="#000000" font-family="sans-serif" font-size="13" lengthAdjust="spacing" textLength="49.1372" x="1668.5" y="115.1045">identifier</text></g><!--link AbstractMapping to XsdAnyUri--><g class="link" data-entity-1="ent0038" data-entity-2="ent0002" data-link-type="dependency" data-source-line="49" id="lnk39"><path codeLine="49" d="M1882.57,70.6894 C1846.61,84.5494 1783.07,107.2994 1726.5,118.6094 C1518.77,160.1294 1268.7997,166.4771 1179.2597,167.4071" fill="none" id="AbstractMapping-to-XsdAnyUri" style="stroke:#404040;stroke-width:1.2;stroke-dasharray:7,7;"/><polygon fill="#404040" points="1173.26,167.4694,1182.3011,171.3757,1178.2597,167.4174,1182.218,163.3761,1173.26,167.4694" style="stroke:#404040;stroke-width:1.2;"/><text fill="#000000" font-family="sans-serif" font-size="13" lengthAdjust="spacing" textLength="49.1372" x="1794.5" y="115.1045">identifier</text></g><!--link AbstractDataSet to XsdAnyUri--><g class="link" data-entity-1="ent0040" data-entity-2="ent0002" data-link-type="dependency" data-source-line="51" id="lnk41"><path codeLine="51" d="M2012.27,70.6994 C1975.59,84.6694 1910.47,107.6494 1852.5,118.6094 C1594.09,167.4594 1280.7398,169.0425 1179.1398,168.1425" fill="none" id="AbstractDataSet-to-XsdAnyUri" style="stroke:#404040;stroke-width:1.2;stroke-dasharray:7,7;"/><polygon fill="#404040" points="1173.14,168.0894,1182.1042,172.1689,1178.1398,168.1337,1182.1751,164.1693,1173.14,168.0894" style="stroke:#404040;stroke-width:1.2;"/><text fill="#000000" font-family="sans-serif" font-size="13" lengthAdjust="spacing" textLength="49.1372" x="1921.5" y="115.1045">identifier</text></g><!--link PrimaryKey to XsdAnyUri--><g class="link" data-entity-1="ent0042" data-entity-2="ent0002" data-link-type="dependency" data-source-line="53" id="lnk43"><path codeLine="53" d="M2130.36,70.6994 C2095.97,84.7894 2034.53,107.9994 1979.5,118.6094 C1820.65,149.2394 1313.4782,163.4226 1178.9982,166.7126" fill="none" id="PrimaryKey-to-XsdAnyUri" style="stroke:#404040;stroke-width:1.2;stroke-dasharray:7,7;"/><polygon fill="#404040" points="1173,166.8594,1182.0951,170.6381,1177.9985,166.7371,1181.8995,162.6405,1173,166.8594" style="stroke:#404040;stroke-width:1.2;"/><text fill="#000000" font-family="sans-serif" font-size="13" lengthAdjust="spacing" textLength="49.1372" x="2044.5" y="115.1045">identifier</text></g><!--link Statistics to XsdAnyUri--><g class="link" data-entity-1="ent0044" data-entity-2="ent0002" data-link-type="dependency" data-source-line="55" id="lnk45"><path codeLine="55" d="M2230.7,70.8094 C2201.75,85.0194 2149.87,108.3594 2102.5,118.6094 C1919.44,158.2294 1326.1998,165.9751 1179.2498,167.3051" fill="none" id="Statistics-to-XsdAnyUri" style="stroke:#404040;stroke-width:1.2;stroke-dasharray:7,7;"/><polygon fill="#404040" points="1173.25,167.3594,1182.2858,171.2778,1178.2498,167.3141,1182.2134,163.2781,1173.25,167.3594" style="stroke:#404040;stroke-width:1.2;"/><text fill="#000000" font-family="sans-serif" font-size="13" lengthAdjust="spacing" textLength="49.1372" x="2158.5" y="115.1045">identifier</text></g><!--link SubstantiveValueDomain to XsdAnyUri--><g class="link" data-entity-1="ent0046" data-entity-2="ent0002" data-link-type="dependency" data-source-line="57" id="lnk47"><path codeLine="57" d="M2360.94,70.6994 C2328.23,84.9094 2269.46,108.3694 2216.5,118.6094 C2009.15,158.7194 1336.0398,166.1535 1179.0798,167.3535" fill="none" id="SubstantiveValueDomain-to-XsdAnyUri" style="stroke:#404040;stroke-width:1.2;stroke-dasharray:7,7;"/><polygon fill="#404040" points="1173.08,167.3994,1182.1103,171.3305,1178.0799,167.3611,1182.0492,163.3307,1173.08,167.3994" style="stroke:#404040;stroke-width:1.2;"/><text fill="#000000" font-family="sans-serif" font-size="13" lengthAdjust="spacing" textLength="49.1372" x="2279.5" y="115.1045">identifier</text></g><!--link SentinelValueDomain to XsdAnyUri--><g class="link" data-entity-1="ent0048" data-entity-2="ent0002" data-link-type="dependency" data-source-line="59" id="lnk49"><path codeLine="59" d="M2519.87,70.6694 C2478.18,84.8494 2403.5,108.2694 2337.5,118.6094 C2103.77,155.2394 1346.1396,165.3937 1179.0096,167.2237" fill="none" id="SentinelValueDomain-to-XsdAnyUri" style="stroke:#404040;stroke-width:1.2;stroke-dasharray:7,7;"/><polygon fill="#404040" points="1173.01,167.2894,1182.0533,171.1906,1178.0097,167.2346,1181.9657,163.1911,1173.01,167.2894" style="stroke:#404040;stroke-width:1.2;"/><text fill="#000000" font-family="sans-serif" font-size="13" lengthAdjust="spacing" textLength="49.1372" x="2415.5" y="115.1045">identifier</text></g><?plantuml-src dPLDZzem48Rl-HNMSaVTRNkfLaWf7zAgMea2s_PgaibYhMD7OmTAg_xtEd5Y9mubg739F1FUcV7C6Cqq1_93fR4ulo2B3Ym5aZ1CEDXdo0jz9ZdaUq0LgJSc2eeq9-f0KtbYufLab2leU694UTeTMF8cG2boFtteE1DE3ViT4VlQN7A9PFBXNVKryBF4532aAodqblq2SlyG_OaYgt7dahuZLFaIoEDZIZNTdGkOpSXa5Iy_Bjv7TAyqqaGt2TpDPLv8nJIiKMQCGwqHGZ9Prfzeu9XEPvs8duWvAQ5PnW3Rx1Oc1mMwrcsUdLnhXoebykxF5_8akAIfqsX1JyZ1K2qnfsQoUZ6YO-zb4dErastmxx2FrqzrMFle0ZRcUFbnefaK6r0bjsVG1Kwk1yVpMa361AGxmDoUYRVzaNJO84tHyMv1jxfFBlrQrfjEjOEkD2rEKrOLHBcPam9Gdstf0-mFOEWQw0kcvpA5DiW6Ca0GYHrPPpb9Jovb-cyl0gTLAcqSaz2nwi-HDMLqWOlMWuE02bBVEsH7I5SeszuvkzCxpoubVyqVfZyt8y_bwmOISwNOxUuIlzezEZw3toWokkVm35IL25OwX4vzu1ZVd6rXwg1y-RDQtbgzHvnqduxhVYqfDqrgCgc5-yWf1pYKpa4ZIzpk2AMfcQUsKhj10VHx53gkv1rUsN5ZFzEYCFyxThNwpEzLmFyZJ7LdRfiBF623C2qVxy8QMKxn_0NQdMhDpaOvTCEmQ3C4IhD4sKbnfXyJZswGA_TLVymwcmxn4XOofqnOwOik7-Qo-uQG5H301_66t0UxuBiIwIy0?></g></svg>