<svg xmlns="http://www.w3.org/2000/svg" xmlns:xlink="http://www.w3.org/1999/xlink" contentStyleType="text/css" data-diagram-type="CLASS" height="497px" preserveAspectRatio="none" style="width:4901px;height:497px;background:#FFFFFF;" version="1.1" viewBox="0 0 4901 497" width="4901px" zoomAndPan="magnify"><?plantuml 1.2026.3?><defs/><g><g class="title" data-source-line="1"><text fill="#000000" font-family="sans-serif" font-size="14" font-weight="700" lengthAdjust="spacing" textLength="71.5723" x="2411.2217" y="24.5332">XsdAnyUri</text></g><!--class XsdAnyUri--><g class="entity" data-qualified-name="XsdAnyUri" data-source-line="16" id="ent0002"><rect fill="#FAE5D3" height="93.0156" rx="2.5" ry="2.5" style="stroke:#404040;stroke-width:0.5;" width="192.1426" x="1957" y="390.6094"/><text fill="#000000" font-family="sans-serif" font-size="36" font-style="italic" lengthAdjust="spacing" textLength="190.1426" x="1958" y="432.9805">&#171;dataType&#187;</text><text fill="#000000" font-family="sans-serif" font-size="30" lengthAdjust="spacing" textLength="141.709" x="1982.2168" y="472.0332">XsdAnyUri</text></g><!--class CompositeProfile--><g class="entity" data-qualified-name="CompositeProfile" data-source-line="17" id="ent0003"><rect fill="#EEEEEE" height="47.7344" rx="2.5" ry="2.5" style="stroke:#404040;stroke-width:0.5;" width="234.4277" x="7" y="45.6094"/><text fill="#000000" font-family="sans-serif" font-size="30" font-style="italic" lengthAdjust="spacing" textLength="228.4277" x="10" y="81.752">CompositeProfile</text></g><!--class Dataset--><g class="entity" data-qualified-name="Dataset" data-source-line="19" id="ent0005"><rect fill="#EEEEEE" height="47.7344" rx="2.5" ry="2.5" style="stroke:#404040;stroke-width:0.5;" width="109.3887" x="261.5" y="45.6094"/><text fill="#000000" font-family="sans-serif" font-size="30" lengthAdjust="spacing" textLength="103.3887" x="264.5" y="81.752">Dataset</text></g><!--class DataDownload--><g class="entity" data-qualified-name="DataDownload" data-source-line="21" id="ent0007"><rect fill="#EEEEEE" height="47.7344" rx="2.5" ry="2.5" style="stroke:#404040;stroke-width:0.5;" width="202.7871" x="431.5" y="45.6094"/><text fill="#000000" font-family="sans-serif" font-size="30" lengthAdjust="spacing" textLength="196.7871" x="434.5" y="81.752">DataDownload</text></g><!--class WebAPI--><g class="entity" data-qualified-name="WebAPI" data-source-line="24" id="ent0010"><rect fill="#EEEEEE" height="47.7344" rx="2.5" ry="2.5" style="stroke:#404040;stroke-width:0.5;" width="116.0391" x="731" y="45.6094"/><text fill="#000000" font-family="sans-serif" font-size="30" lengthAdjust="spacing" textLength="110.0391" x="734" y="81.752">WebAPI</text></g><!--class ActionResult--><g class="entity" data-qualified-name="ActionResult" data-source-line="26" id="ent0012"><rect fill="#EEEEEE" height="47.7344" rx="2.5" ry="2.5" style="stroke:#404040;stroke-width:0.5;" width="174.4131" x="867" y="45.6094"/><text fill="#000000" font-family="sans-serif" font-size="30" lengthAdjust="spacing" textLength="168.4131" x="870" y="81.752">ActionResult</text></g><!--class DefinedTerm--><g class="entity" data-qualified-name="DefinedTerm" data-source-line="28" id="ent0014"><rect fill="#EEEEEE" height="47.7344" rx="2.5" ry="2.5" style="stroke:#404040;stroke-width:0.5;" width="179.3936" x="1061.5" y="45.6094"/><text fill="#000000" font-family="sans-serif" font-size="30" lengthAdjust="spacing" textLength="173.3936" x="1064.5" y="81.752">DefinedTerm</text></g><!--class Identifier--><g class="entity" data-qualified-name="Identifier" data-source-line="30" id="ent0016"><rect fill="#EEEEEE" height="47.7344" rx="2.5" ry="2.5" style="stroke:#404040;stroke-width:0.5;" width="121.0635" x="1260.5" y="45.6094"/><text fill="#000000" font-family="sans-serif" font-size="30" lengthAdjust="spacing" textLength="115.0635" x="1263.5" y="81.752">Identifier</text></g><!--class AdditionalProperty--><g class="entity" data-qualified-name="AdditionalProperty" data-source-line="32" id="ent0018"><rect fill="#EEEEEE" height="47.7344" rx="2.5" ry="2.5" style="stroke:#404040;stroke-width:0.5;" width="251.1416" x="1401.5" y="45.6094"/><text fill="#000000" font-family="sans-serif" font-size="30" lengthAdjust="spacing" textLength="245.1416" x="1404.5" y="81.752">AdditionalProperty</text></g><!--class Reference--><g class="entity" data-qualified-name="Reference" data-source-line="34" id="ent0020"><rect fill="#EEEEEE" height="47.7344" rx="2.5" ry="2.5" style="stroke:#404040;stroke-width:0.5;" width="144.4131" x="1673" y="45.6094"/><text fill="#000000" font-family="sans-serif" font-size="30" lengthAdjust="spacing" textLength="138.4131" x="1676" y="81.752">Reference</text></g><!--class ProvActivity--><g class="entity" data-qualified-name="ProvActivity" data-source-line="37" id="ent0023"><rect fill="#EEEEEE" height="47.7344" rx="2.5" ry="2.5" style="stroke:#404040;stroke-width:0.5;" width="162.6943" x="1837.5" y="45.6094"/><text fill="#000000" font-family="sans-serif" font-size="30" lengthAdjust="spacing" textLength="156.6943" x="1840.5" y="81.752">ProvActivity</text></g><!--class DerivedFrom--><g class="entity" data-qualified-name="DerivedFrom" data-source-line="39" id="ent0025"><rect fill="#EEEEEE" height="47.7344" rx="2.5" ry="2.5" style="stroke:#404040;stroke-width:0.5;" width="179.3643" x="2020.5" y="45.6094"/><text fill="#000000" font-family="sans-serif" font-size="30" lengthAdjust="spacing" textLength="173.3643" x="2023.5" y="81.752">DerivedFrom</text></g><!--class CatalogRecord--><g class="entity" data-qualified-name="CatalogRecord" data-source-line="42" id="ent0028"><rect fill="#EEEEEE" height="47.7344" rx="2.5" ry="2.5" style="stroke:#404040;stroke-width:0.5;" width="206.1123" x="2220" y="45.6094"/><text fill="#000000" font-family="sans-serif" font-size="30" lengthAdjust="spacing" textLength="200.1123" x="2223" y="81.752">CatalogRecord</text></g><!--class VariableMeasured--><g class="entity" data-qualified-name="VariableMeasured" data-source-line="44" id="ent0030"><rect fill="#EEEEEE" height="47.7344" rx="2.5" ry="2.5" style="stroke:#404040;stroke-width:0.5;" width="249.4717" x="2446.5" y="45.6094"/><text fill="#000000" font-family="sans-serif" font-size="30" lengthAdjust="spacing" textLength="243.4717" x="2449.5" y="81.752">VariableMeasured</text></g><!--class SpatialExtent--><g class="entity" data-qualified-name="SpatialExtent" data-source-line="46" id="ent0032"><rect fill="#EEEEEE" height="47.7344" rx="2.5" ry="2.5" style="stroke:#404040;stroke-width:0.5;" width="182.7773" x="2715.5" y="45.6094"/><text fill="#000000" font-family="sans-serif" font-size="30" lengthAdjust="spacing" textLength="176.7773" x="2718.5" y="81.752">SpatialExtent</text></g><!--class QualityMeasure--><g class="entity" data-qualified-name="QualityMeasure" data-source-line="48" id="ent0034"><rect fill="#EEEEEE" height="47.7344" rx="2.5" ry="2.5" style="stroke:#404040;stroke-width:0.5;" width="216.0879" x="2919" y="45.6094"/><text fill="#000000" font-family="sans-serif" font-size="30" lengthAdjust="spacing" textLength="210.0879" x="2922" y="81.752">QualityMeasure</text></g><!--class InstanceVariable--><g class="entity" data-qualified-name="InstanceVariable" data-source-line="50" id="ent0036"><rect fill="#EEEEEE" height="47.7344" rx="2.5" ry="2.5" style="stroke:#404040;stroke-width:0.5;" width="229.4766" x="3155.5" y="45.6094"/><text fill="#000000" font-family="sans-serif" font-size="30" lengthAdjust="spacing" textLength="223.4766" x="3158.5" y="81.752">InstanceVariable</text></g><!--class AbstractMapping--><g class="entity" data-qualified-name="AbstractMapping" data-source-line="52" id="ent0038"><rect fill="#EEEEEE" height="47.7344" rx="2.5" ry="2.5" style="stroke:#404040;stroke-width:0.5;" width="231.1172" x="3404.5" y="45.6094"/><text fill="#000000" font-family="sans-serif" font-size="30" font-style="italic" lengthAdjust="spacing" textLength="225.1172" x="3407.5" y="81.752">AbstractMapping</text></g><!--class AbstractDataSet--><g class="entity" data-qualified-name="AbstractDataSet" data-source-line="54" id="ent0040"><rect fill="#EEEEEE" height="47.7344" rx="2.5" ry="2.5" style="stroke:#404040;stroke-width:0.5;" width="224.4375" x="3656" y="45.6094"/><text fill="#000000" font-family="sans-serif" font-size="30" font-style="italic" lengthAdjust="spacing" textLength="218.4375" x="3659" y="81.752">AbstractDataSet</text></g><!--class PrimaryKey--><g class="entity" data-qualified-name="PrimaryKey" data-source-line="56" id="ent0042"><rect fill="#EEEEEE" height="47.7344" rx="2.5" ry="2.5" style="stroke:#404040;stroke-width:0.5;" width="161.0244" x="3900.5" y="45.6094"/><text fill="#000000" font-family="sans-serif" font-size="30" lengthAdjust="spacing" textLength="155.0244" x="3903.5" y="81.752">PrimaryKey</text></g><!--class Statistics--><g class="entity" data-qualified-name="Statistics" data-source-line="58" id="ent0044"><rect fill="#EEEEEE" height="47.7344" rx="2.5" ry="2.5" style="stroke:#404040;stroke-width:0.5;" width="126.0293" x="4082" y="45.6094"/><text fill="#000000" font-family="sans-serif" font-size="30" lengthAdjust="spacing" textLength="120.0293" x="4085" y="81.752">Statistics</text></g><!--class SubstantiveValueDomain--><g class="entity" data-qualified-name="SubstantiveValueDomain" data-source-line="60" id="ent0046"><rect fill="#EEEEEE" height="47.7344" rx="2.5" ry="2.5" style="stroke:#404040;stroke-width:0.5;" width="342.8701" x="4228.5" y="45.6094"/><text fill="#000000" font-family="sans-serif" font-size="30" lengthAdjust="spacing" textLength="336.8701" x="4231.5" y="81.752">SubstantiveValueDomain</text></g><!--class SentinelValueDomain--><g class="entity" data-qualified-name="SentinelValueDomain" data-source-line="62" id="ent0048"><rect fill="#EEEEEE" height="47.7344" rx="2.5" ry="2.5" style="stroke:#404040;stroke-width:0.5;" width="294.5156" x="4591.5" y="45.6094"/><text fill="#000000" font-family="sans-serif" font-size="30" lengthAdjust="spacing" textLength="288.5156" x="4594.5" y="81.752">SentinelValueDomain</text></g><!--link CompositeProfile to XsdAnyUri--><g class="link" data-entity-1="ent0003" data-entity-2="ent0002" data-link-type="dependency" data-source-line="18" id="lnk4"><path codeLine="18" d="M119.81,93.6394 C113.78,134.8594 108.13,221.1094 156,265.6094 C288.94,389.1794 1583.2614,426.0783 1950.7314,434.1083" fill="none" id="CompositeProfile-to-XsdAnyUri" style="stroke:#404040;stroke-width:1.2;stroke-dasharray:7,7;"/><polygon fill="#404040" points="1956.73,434.2394,1947.8195,430.0437,1951.7312,434.1301,1947.6448,438.0418,1956.73,434.2394" style="stroke:#404040;stroke-width:1.2;"/><text fill="#000000" font-family="sans-serif" font-size="36" lengthAdjust="spacing" textLength="136.0723" x="157" y="256.9805">identifier</text></g><!--link Dataset to XsdAnyUri--><g class="link" data-entity-1="ent0005" data-entity-2="ent0002" data-link-type="dependency" data-source-line="20" id="lnk6"><path codeLine="20" d="M308.13,93.7594 C295.94,134.3994 278.17,218.7194 322,265.6094 C434.32,385.7694 1603.272,424.7442 1950.732,433.7342" fill="none" id="Dataset-to-XsdAnyUri" style="stroke:#404040;stroke-width:1.2;stroke-dasharray:7,7;"/><polygon fill="#404040" points="1956.73,433.8894,1947.8365,429.6579,1951.7317,433.7601,1947.6296,437.6553,1956.73,433.8894" style="stroke:#404040;stroke-width:1.2;"/><text fill="#000000" font-family="sans-serif" font-size="36" lengthAdjust="spacing" textLength="40.0078" x="323" y="256.9805">url</text></g><!--link DataDownload to XsdAnyUri--><g class="link" data-entity-1="ent0007" data-entity-2="ent0002" data-link-type="dependency" data-source-line="22" id="lnk8"><path codeLine="22" d="M492.57,93.7594 C431.96,131.2494 330.04,206.9694 383,265.6094 C489.06,383.0494 1611.1624,423.7681 1950.7924,433.4681" fill="none" id="DataDownload-to-XsdAnyUri" style="stroke:#404040;stroke-width:1.2;stroke-dasharray:7,7;"/><polygon fill="#404040" points="1956.79,433.6394,1947.9079,429.3841,1951.792,433.4966,1947.6795,437.3808,1956.79,433.6394" style="stroke:#404040;stroke-width:1.2;"/><text fill="#000000" font-family="sans-serif" font-size="36" lengthAdjust="spacing" textLength="164.0742" x="384" y="256.9805">contentUrl</text></g><!--link DataDownload to XsdAnyUri--><g class="link" data-entity-1="ent0007" data-entity-2="ent0002" data-link-type="dependency" data-source-line="23" id="lnk9"><path codeLine="23" d="M534.19,93.9394 C537.09,140.5494 546.19,242.6594 571,265.6094 C672.96,359.9194 1638.5175,415.5887 1950.8375,431.2587" fill="none" id="DataDownload-to-XsdAnyUri-1" style="stroke:#404040;stroke-width:1.2;stroke-dasharray:7,7;"/><polygon fill="#404040" points="1956.83,431.5594,1948.0417,427.1134,1951.8363,431.3088,1947.6409,435.1034,1956.83,431.5594" style="stroke:#404040;stroke-width:1.2;"/><text fill="#000000" font-family="sans-serif" font-size="36" lengthAdjust="spacing" textLength="190.0547" x="572" y="256.9805">conformsTo</text></g><!--link WebAPI to XsdAnyUri--><g class="link" data-entity-1="ent0010" data-entity-2="ent0002" data-link-type="dependency" data-source-line="25" id="lnk11"><path codeLine="25" d="M780.49,93.8094 C767.35,134.1594 747.77,217.5394 790,265.6094 C867.04,353.2894 1669.1022,411.8763 1950.7922,429.8963" fill="none" id="WebAPI-to-XsdAnyUri" style="stroke:#404040;stroke-width:1.2;stroke-dasharray:7,7;"/><polygon fill="#404040" points="1956.78,430.2794,1948.0537,425.713,1951.7902,429.9602,1947.543,433.6967,1956.78,430.2794" style="stroke:#404040;stroke-width:1.2;"/><text fill="#000000" font-family="sans-serif" font-size="36" lengthAdjust="spacing" textLength="136.0723" x="791" y="256.9805">identifier</text></g><!--link ActionResult to XsdAnyUri--><g class="link" data-entity-1="ent0012" data-entity-2="ent0002" data-link-type="dependency" data-source-line="27" id="lnk13"><path codeLine="27" d="M945.45,93.6994 C932.21,133.8894 912.37,217.0194 954,265.6094 C1083.08,416.2594 1707.1001,434.8724 1950.6401,436.3724" fill="none" id="ActionResult-to-XsdAnyUri" style="stroke:#404040;stroke-width:1.2;stroke-dasharray:7,7;"/><polygon fill="#404040" points="1956.64,436.4094,1947.6648,432.354,1951.6401,436.3786,1947.6155,440.3539,1956.64,436.4094" style="stroke:#404040;stroke-width:1.2;"/><text fill="#000000" font-family="sans-serif" font-size="36" lengthAdjust="spacing" textLength="190.0547" x="955" y="256.9805">conformsTo</text></g><!--link DefinedTerm to XsdAnyUri--><g class="link" data-entity-1="ent0014" data-entity-2="ent0002" data-link-type="dependency" data-source-line="29" id="lnk15"><path codeLine="29" d="M1149.56,93.6394 C1147.2,139.6894 1144.77,240.8294 1167,265.6094 C1271.15,381.6894 1743.3391,420.0188 1950.6691,431.4588" fill="none" id="DefinedTerm-to-XsdAnyUri" style="stroke:#404040;stroke-width:1.2;stroke-dasharray:7,7;"/><polygon fill="#404040" points="1956.66,431.7894,1947.894,427.2996,1951.6676,431.5139,1947.4533,435.2875,1956.66,431.7894" style="stroke:#404040;stroke-width:1.2;"/><text fill="#000000" font-family="sans-serif" font-size="36" lengthAdjust="spacing" textLength="290.127" x="1168" y="256.9805">inDefinedTermSet</text></g><!--link Identifier to XsdAnyUri--><g class="link" data-entity-1="ent0016" data-entity-2="ent0002" data-link-type="dependency" data-source-line="31" id="lnk17"><path codeLine="31" d="M1345.97,93.6994 C1375.72,121.7894 1426.13,171.3494 1464,218.6094 C1479.65,238.1394 1474.96,250.6194 1495,265.6094 C1634.32,369.8094 1831.9122,410.1394 1950.7922,425.9294" fill="none" id="Identifier-to-XsdAnyUri" style="stroke:#404040;stroke-width:1.2;stroke-dasharray:7,7;"/><polygon fill="#404040" points="1956.74,426.7194,1948.345,421.5692,1951.7835,426.061,1947.2917,429.4996,1956.74,426.7194" style="stroke:#404040;stroke-width:1.2;"/><text fill="#000000" font-family="sans-serif" font-size="36" lengthAdjust="spacing" textLength="40.0078" x="1496" y="256.9805">url</text></g><!--link AdditionalProperty to XsdAnyUri--><g class="link" data-entity-1="ent0018" data-entity-2="ent0002" data-link-type="dependency" data-source-line="33" id="lnk19"><path codeLine="33" d="M1525.22,93.9094 C1523.47,134.0494 1525.85,216.6194 1569,265.6094 C1668.22,378.2594 1840.5511,415.7786 1950.8411,428.7486" fill="none" id="AdditionalProperty-to-XsdAnyUri" style="stroke:#404040;stroke-width:1.2;stroke-dasharray:7,7;"/><polygon fill="#404040" points="1956.8,429.4494,1948.3288,424.4256,1951.8342,428.8654,1947.3944,432.3709,1956.8,429.4494" style="stroke:#404040;stroke-width:1.2;"/><text fill="#000000" font-family="sans-serif" font-size="36" lengthAdjust="spacing" textLength="144.1055" x="1570" y="256.9805">unitCode</text></g><!--link Reference to XsdAnyUri--><g class="link" data-entity-1="ent0020" data-entity-2="ent0002" data-link-type="dependency" data-source-line="35" id="lnk21"><path codeLine="35" d="M1736.31,93.6194 C1723.28,132.2394 1703.49,211.2094 1736,265.6094 C1783.44,344.9994 1876.2563,387.7795 1950.9563,411.2695" fill="none" id="Reference-to-XsdAnyUri" style="stroke:#404040;stroke-width:1.2;stroke-dasharray:7,7;"/><polygon fill="#404040" points="1956.68,413.0694,1949.2944,406.5538,1951.9103,411.5695,1946.8946,414.1854,1956.68,413.0694" style="stroke:#404040;stroke-width:1.2;"/><text fill="#000000" font-family="sans-serif" font-size="36" lengthAdjust="spacing" textLength="40.0078" x="1737" y="256.9805">url</text></g><!--link Reference to XsdAnyUri--><g class="link" data-entity-1="ent0020" data-entity-2="ent0002" data-link-type="dependency" data-source-line="36" id="lnk22"><path codeLine="36" d="M1749.72,93.7094 C1758.55,132.4794 1780.51,211.6494 1822,265.6094 C1861.65,317.1794 1915.7985,357.311 1964.3685,387.381" fill="none" id="Reference-to-XsdAnyUri-1" style="stroke:#404040;stroke-width:1.2;stroke-dasharray:7,7;"/><polygon fill="#404040" points="1969.47,390.5394,1963.9234,382.4009,1965.2188,387.9074,1959.7123,389.2028,1969.47,390.5394" style="stroke:#404040;stroke-width:1.2;"/><text fill="#000000" font-family="sans-serif" font-size="36" lengthAdjust="spacing" textLength="118.0723" x="1823" y="256.9805">relation</text></g><!--link ProvActivity to XsdAnyUri--><g class="link" data-entity-1="ent0023" data-entity-2="ent0002" data-link-type="dependency" data-source-line="38" id="lnk24"><path codeLine="38" d="M1922.01,93.7094 C1927.29,130.8094 1939.85,205.6094 1962,265.6094 C1978.33,309.8294 2001.0637,351.718 2021.0337,385.158" fill="none" id="ProvActivity-to-XsdAnyUri" style="stroke:#404040;stroke-width:1.2;stroke-dasharray:7,7;"/><polygon fill="#404040" points="2024.11,390.3094,2022.9297,380.5315,2021.5464,386.0166,2016.0613,384.6333,2024.11,390.3094" style="stroke:#404040;stroke-width:1.2;"/><text fill="#000000" font-family="sans-serif" font-size="36" lengthAdjust="spacing" textLength="78.0645" x="1963" y="256.9805">used</text></g><!--link DerivedFrom to XsdAnyUri--><g class="link" data-entity-1="ent0025" data-entity-2="ent0002" data-link-type="dependency" data-source-line="40" id="lnk26"><path codeLine="40" d="M2098.04,93.6594 C2084.02,122.1294 2061.58,172.4594 2053,218.6094 C2042.13,277.0794 2044.1524,339.9484 2047.6924,384.2784" fill="none" id="DerivedFrom-to-XsdAnyUri" style="stroke:#404040;stroke-width:1.2;stroke-dasharray:7,7;"/><polygon fill="#404040" points="2048.17,390.2594,2051.4409,380.9695,2047.772,385.2752,2043.4663,381.6063,2048.17,390.2594" style="stroke:#404040;stroke-width:1.2;"/><text fill="#000000" font-family="sans-serif" font-size="36" lengthAdjust="spacing" textLength="40.0078" x="2054" y="256.9805">url</text></g><!--link DerivedFrom to XsdAnyUri--><g class="link" data-entity-1="ent0025" data-entity-2="ent0002" data-link-type="dependency" data-source-line="41" id="lnk27"><path codeLine="41" d="M2109.65,93.8694 C2108.79,130.5894 2105.88,204.1194 2096,265.6094 C2089.12,308.4094 2078.2912,350.4211 2068.5412,384.4811" fill="none" id="DerivedFrom-to-XsdAnyUri-1" style="stroke:#404040;stroke-width:1.2;stroke-dasharray:7,7;"/><polygon fill="#404040" points="2066.89,390.2494,2073.2124,382.6977,2068.266,385.4424,2065.5213,380.4961,2066.89,390.2494" style="stroke:#404040;stroke-width:1.2;"/><text fill="#000000" font-family="sans-serif" font-size="36" lengthAdjust="spacing" textLength="118.0723" x="2102" y="256.9805">relation</text></g><!--link CatalogRecord to XsdAnyUri--><g class="link" data-entity-1="ent0028" data-entity-2="ent0002" data-link-type="dependency" data-source-line="43" id="lnk29"><path codeLine="43" d="M2314.35,93.9094 C2299.6,131.9394 2267.16,208.8194 2226,265.6094 C2191.97,312.5594 2149.0901,354.2909 2112.5201,386.5409" fill="none" id="CatalogRecord-to-XsdAnyUri" style="stroke:#404040;stroke-width:1.2;stroke-dasharray:7,7;"/><polygon fill="#404040" points="2108.02,390.5094,2117.4158,387.5567,2111.7701,387.2023,2112.1245,381.5565,2108.02,390.5094" style="stroke:#404040;stroke-width:1.2;"/><text fill="#000000" font-family="sans-serif" font-size="36" lengthAdjust="spacing" textLength="190.0547" x="2255" y="256.9805">conformsTo</text></g><!--link VariableMeasured to XsdAnyUri--><g class="link" data-entity-1="ent0030" data-entity-2="ent0002" data-link-type="dependency" data-source-line="45" id="lnk31"><path codeLine="45" d="M2562.2,93.9194 C2545.98,134.0694 2507.73,216.6594 2451,265.6094 C2362.93,341.6094 2241.6681,386.3774 2154.9681,411.2074" fill="none" id="VariableMeasured-to-XsdAnyUri" style="stroke:#404040;stroke-width:1.2;stroke-dasharray:7,7;"/><polygon fill="#404040" points="2149.2,412.8594,2158.9535,414.2269,2154.0068,411.4828,2156.7509,406.5361,2149.2,412.8594" style="stroke:#404040;stroke-width:1.2;"/><text fill="#000000" font-family="sans-serif" font-size="36" lengthAdjust="spacing" textLength="136.0723" x="2494" y="256.9805">identifier</text></g><!--link SpatialExtent to XsdAnyUri--><g class="link" data-entity-1="ent0032" data-entity-2="ent0002" data-link-type="dependency" data-source-line="47" id="lnk33"><path codeLine="47" d="M2793.15,93.6394 C2767.39,134.4794 2708.13,219.6094 2636,265.6094 C2482.4,363.5594 2276.5662,406.0868 2155.0662,423.9468" fill="none" id="SpatialExtent-to-XsdAnyUri" style="stroke:#404040;stroke-width:1.2;stroke-dasharray:7,7;"/><polygon fill="#404040" points="2149.13,424.8194,2158.616,427.468,2154.0768,424.0922,2157.4526,419.553,2149.13,424.8194" style="stroke:#404040;stroke-width:1.2;"/><text fill="#000000" font-family="sans-serif" font-size="36" lengthAdjust="spacing" textLength="136.0723" x="2692" y="256.9805">identifier</text></g><!--link QualityMeasure to XsdAnyUri--><g class="link" data-entity-1="ent0034" data-entity-2="ent0002" data-link-type="dependency" data-source-line="49" id="lnk35"><path codeLine="49" d="M3011.18,93.7894 C2981.56,135.2594 2913.51,221.8894 2834,265.6094 C2609.63,388.9894 2308.9988,422.7225 2155.2188,432.1425" fill="none" id="QualityMeasure-to-XsdAnyUri" style="stroke:#404040;stroke-width:1.2;stroke-dasharray:7,7;"/><polygon fill="#404040" points="2149.23,432.5094,2158.4577,435.9516,2154.2206,432.2037,2157.9686,427.9666,2149.23,432.5094" style="stroke:#404040;stroke-width:1.2;"/><text fill="#000000" font-family="sans-serif" font-size="36" lengthAdjust="spacing" textLength="97.998" x="2896" y="256.9805">metric</text></g><!--link InstanceVariable to XsdAnyUri--><g class="link" data-entity-1="ent0036" data-entity-2="ent0002" data-link-type="dependency" data-source-line="51" id="lnk37"><path codeLine="51" d="M3245.82,93.9094 C3201.09,135.5694 3100.66,222.5094 2999,265.6094 C2706.12,389.7894 2330.8719,423.2568 2155.2619,432.4168" fill="none" id="InstanceVariable-to-XsdAnyUri" style="stroke:#404040;stroke-width:1.2;stroke-dasharray:7,7;"/><polygon fill="#404040" points="2149.27,432.7294,2158.4661,436.2551,2154.2632,432.4689,2158.0494,428.266,2149.27,432.7294" style="stroke:#404040;stroke-width:1.2;"/><text fill="#000000" font-family="sans-serif" font-size="36" lengthAdjust="spacing" textLength="136.0723" x="3080" y="256.9805">identifier</text></g><!--link AbstractMapping to XsdAnyUri--><g class="link" data-entity-1="ent0038" data-entity-2="ent0002" data-link-type="dependency" data-source-line="53" id="lnk39"><path codeLine="53" d="M3493.48,93.8494 C3443.96,135.8194 3332.43,223.7694 3222,265.6094 C2843.44,409.0194 2359.7192,432.5528 2155.2792,435.8428" fill="none" id="AbstractMapping-to-XsdAnyUri" style="stroke:#404040;stroke-width:1.2;stroke-dasharray:7,7;"/><polygon fill="#404040" points="2149.28,435.9394,2158.3432,439.794,2154.2794,435.8589,2158.2145,431.7951,2149.28,435.9394" style="stroke:#404040;stroke-width:1.2;"/><text fill="#000000" font-family="sans-serif" font-size="36" lengthAdjust="spacing" textLength="136.0723" x="3319" y="256.9805">identifier</text></g><!--link AbstractDataSet to XsdAnyUri--><g class="link" data-entity-1="ent0040" data-entity-2="ent0002" data-link-type="dependency" data-source-line="55" id="lnk41"><path codeLine="55" d="M3741.04,93.7594 C3690.17,135.9894 3574.86,224.9194 3461,265.6094 C3217.54,352.6094 2432.0268,411.2113 2155.4468,429.6013" fill="none" id="AbstractDataSet-to-XsdAnyUri" style="stroke:#404040;stroke-width:1.2;stroke-dasharray:7,7;"/><polygon fill="#404040" points="2149.46,429.9994,2158.7055,433.3935,2154.449,429.6677,2158.1748,425.4111,2149.46,429.9994" style="stroke:#404040;stroke-width:1.2;"/><text fill="#000000" font-family="sans-serif" font-size="36" lengthAdjust="spacing" textLength="136.0723" x="3561" y="256.9805">identifier</text></g><!--link PrimaryKey to XsdAnyUri--><g class="link" data-entity-1="ent0042" data-entity-2="ent0002" data-link-type="dependency" data-source-line="57" id="lnk43"><path codeLine="57" d="M3957.45,93.6594 C3912.4,136.1294 3809.04,226.0194 3703,265.6094 C3414.57,373.2994 2462.9451,419.7963 2155.1551,432.2763" fill="none" id="PrimaryKey-to-XsdAnyUri" style="stroke:#404040;stroke-width:1.2;stroke-dasharray:7,7;"/><polygon fill="#404040" points="2149.16,432.5194,2158.3147,436.1515,2154.1559,432.3168,2157.9906,428.158,2149.16,432.5194" style="stroke:#404040;stroke-width:1.2;"/><text fill="#000000" font-family="sans-serif" font-size="36" lengthAdjust="spacing" textLength="136.0723" x="3795" y="256.9805">identifier</text></g><!--link Statistics to XsdAnyUri--><g class="link" data-entity-1="ent0044" data-entity-2="ent0002" data-link-type="dependency" data-source-line="59" id="lnk45"><path codeLine="59" d="M4128.76,93.7794 C4097.36,136.4694 4023.71,226.7094 3937,265.6094 C3612.16,411.3394 2492.1898,432.4647 2155.0898,435.5347" fill="none" id="Statistics-to-XsdAnyUri" style="stroke:#404040;stroke-width:1.2;stroke-dasharray:7,7;"/><polygon fill="#404040" points="2149.09,435.5894,2158.1261,439.5072,2154.0898,435.5438,2158.0532,431.5076,2149.09,435.5894" style="stroke:#404040;stroke-width:1.2;"/><text fill="#000000" font-family="sans-serif" font-size="36" lengthAdjust="spacing" textLength="136.0723" x="4010" y="256.9805">identifier</text></g><!--link SubstantiveValueDomain to XsdAnyUri--><g class="link" data-entity-1="ent0046" data-entity-2="ent0002" data-link-type="dependency" data-source-line="61" id="lnk47"><path codeLine="61" d="M4379.61,93.8794 C4340.45,136.7294 4249.9,227.2194 4152,265.6094 C3779.5,411.6694 2515.6098,432.5594 2155.1198,435.5594" fill="none" id="SubstantiveValueDomain-to-XsdAnyUri" style="stroke:#404040;stroke-width:1.2;stroke-dasharray:7,7;"/><polygon fill="#404040" points="2149.12,435.6094,2158.153,439.5343,2154.1198,435.5678,2158.0864,431.5346,2149.12,435.6094" style="stroke:#404040;stroke-width:1.2;"/><text fill="#000000" font-family="sans-serif" font-size="36" lengthAdjust="spacing" textLength="136.0723" x="4236" y="256.9805">identifier</text></g><!--link SentinelValueDomain to XsdAnyUri--><g class="link" data-entity-1="ent0048" data-entity-2="ent0002" data-link-type="dependency" data-source-line="63" id="lnk49"><path codeLine="63" d="M4707.21,93.8894 C4646.7,136.7494 4509.28,227.2594 4378,265.6094 C3949.32,390.8394 2537.9188,426.7511 2155.0388,434.3011" fill="none" id="SentinelValueDomain-to-XsdAnyUri" style="stroke:#404040;stroke-width:1.2;stroke-dasharray:7,7;"/><polygon fill="#404040" points="2149.04,434.4194,2158.1171,438.2412,2154.039,434.3208,2157.9594,430.2427,2149.04,434.4194" style="stroke:#404040;stroke-width:1.2;"/><text fill="#000000" font-family="sans-serif" font-size="36" lengthAdjust="spacing" textLength="136.0723" x="4494" y="256.9805">identifier</text></g><?plantuml-src dPLHJzim4CVVyoai-euOZ3rC22bhGK8J4gDbxDMDBs3XsD7PWNNJllkSEB4TfslGsfVuTyt_V_RTkOOR0UI7PhdSFI3FdZa3Kd0i1BXdg6gp8nLKMq2TwHSkQugq8lgPClN6vHCfgT0GHN94zRPvviMB1At9X-FJA8XKlcYeoUdvIKIbOj3H638eQIFCjP9cpNy1EViK1Gj1hVRlZ3YxfH8AoUBZIVkry8j21fZIMCg-Q0poRMCWu9FiJvOvwID_9aU4wd12vEA2KKCtknekBydYEhywNvrbTAiDqiBqUHqjLLKhpGtSeIgvW4uZXMHnrNsoIU3u-39o_4ni8QJX9GSSiblP73IOJhT_zdB3EbLfKCIlhzIR58eohp60aP27gLfXJyrczM15vtvNAgpqHWtcZx3DxsuwM_Ve3Vlb_FRpmd0bxq7R1kc4Ok3bHd0-hnMKN0BR05RkJC8w74d49cdAABe6C-ZU-FGxsR3qgX4wKBISCTvkY0hR9pMWsRcjJt0uW6beeY-vMThn6qpkeGG4MRYMzIil6SY-JFyTHH2qJMNmiGczjlLvvVqsOk3THd1Yg865sY5_1NQDQgYTNqUr2snVyeVYQVfBs_92FTr3OMyQDzqn2QCzelCz-9qYfri1jq1rW-2aK-ZL9u7voLdNTXzKNFriXxTJ7n4lFQRpkjyQAcoH-amwuJ7ooWbEfIkmrtBXPqTgGsq_3Jjr4vJ0C4Tfu43UwPMTz-jRMjVsRysDrfY5kKhuVzYqT-Qwly0JDh4P-7mLxf1N57TVOPYfOHbDb4VlQ1PZcq0RNcZNANuPsYIWTyWrsxO-TfnjXKG3ArLHBftqtb2msHz-XsKB98Y9tvG7ipsn0qv_0G00?></g></svg>