<svg xmlns="http://www.w3.org/2000/svg" xmlns:xlink="http://www.w3.org/1999/xlink" contentStyleType="text/css" data-diagram-type="CLASS" height="202px" preserveAspectRatio="none" style="width:2254px;height:202px;background:#FFFFFF;" version="1.1" viewBox="0 0 2254 202" width="2254px" zoomAndPan="magnify"><?plantuml 1.2026.3?><defs/><g><g class="title" data-source-line="1"><text fill="#000000" font-family="sans-serif" font-size="14" font-weight="700" lengthAdjust="spacing" textLength="71.5723" x="1087.9863" y="24.5332">XsdAnyUri</text></g><!--class XsdAnyUri--><g class="entity" data-qualified-name="XsdAnyUri" data-source-line="12" id="ent0002"><rect fill="#FAE5D3" height="40.1875" rx="2.5" ry="2.5" style="stroke:#404040;stroke-width:0.5;" width="65.3809" x="1161" y="148.6094"/><text fill="#000000" font-family="sans-serif" font-size="12" font-style="italic" lengthAdjust="spacing" textLength="63.3809" x="1162" y="166.0664">&#171;dataType&#187;</text><text fill="#000000" font-family="sans-serif" font-size="12" lengthAdjust="spacing" textLength="56.6836" x="1165.3486" y="181.1602">XsdAnyUri</text></g><!--class VariableMeasured--><g class="entity" data-qualified-name="VariableMeasured" data-source-line="13" id="ent0003"><rect fill="#EEEEEE" height="25.0938" rx="2.5" ry="2.5" style="stroke:#404040;stroke-width:0.5;" width="103.3887" x="7" y="45.6094"/><text fill="#000000" font-family="sans-serif" font-size="12" lengthAdjust="spacing" textLength="97.3887" x="10" y="63.0664">VariableMeasured</text></g><!--class DataDownload--><g class="entity" data-qualified-name="DataDownload" data-source-line="15" id="ent0005"><rect fill="#EEEEEE" height="25.0938" rx="2.5" ry="2.5" style="stroke:#404040;stroke-width:0.5;" width="84.7148" x="167" y="45.6094"/><text fill="#000000" font-family="sans-serif" font-size="12" lengthAdjust="spacing" textLength="78.7148" x="170" y="63.0664">DataDownload</text></g><!--class EnumerationDomain--><g class="entity" data-qualified-name="EnumerationDomain" data-source-line="18" id="ent0008"><rect fill="#EEEEEE" height="25.0938" rx="2.5" ry="2.5" style="stroke:#404040;stroke-width:0.5;" width="115.3887" x="303" y="45.6094"/><text fill="#000000" font-family="sans-serif" font-size="12" lengthAdjust="spacing" textLength="109.3887" x="306" y="63.0664">EnumerationDomain</text></g><!--class Concept--><g class="entity" data-qualified-name="Concept" data-source-line="20" id="ent0010"><rect fill="#EEEEEE" height="25.0938" rx="2.5" ry="2.5" style="stroke:#404040;stroke-width:0.5;" width="50.6953" x="453" y="45.6094"/><text fill="#000000" font-family="sans-serif" font-size="12" lengthAdjust="spacing" textLength="44.6953" x="456" y="63.0664">Concept</text></g><!--class Identifier--><g class="entity" data-qualified-name="Identifier" data-source-line="22" id="ent0012"><rect fill="#EEEEEE" height="25.0938" rx="2.5" ry="2.5" style="stroke:#404040;stroke-width:0.5;" width="52.0254" x="545.5" y="45.6094"/><text fill="#000000" font-family="sans-serif" font-size="12" lengthAdjust="spacing" textLength="46.0254" x="548.5" y="63.0664">Identifier</text></g><!--class DefinedTerm--><g class="entity" data-qualified-name="DefinedTerm" data-source-line="24" id="ent0014"><rect fill="#EEEEEE" height="25.0938" rx="2.5" ry="2.5" style="stroke:#404040;stroke-width:0.5;" width="75.3574" x="659" y="45.6094"/><text fill="#000000" font-family="sans-serif" font-size="12" lengthAdjust="spacing" textLength="69.3574" x="662" y="63.0664">DefinedTerm</text></g><!--class Dataset--><g class="entity" data-qualified-name="Dataset" data-source-line="27" id="ent0017"><rect fill="#EEEEEE" height="25.0938" rx="2.5" ry="2.5" style="stroke:#404040;stroke-width:0.5;" width="47.3555" x="791" y="45.6094"/><text fill="#000000" font-family="sans-serif" font-size="12" lengthAdjust="spacing" textLength="41.3555" x="794" y="63.0664">Dataset</text></g><!--class AbstractGeometry--><g class="entity" data-qualified-name="AbstractGeometry" data-source-line="29" id="ent0019"><rect fill="#EEEEEE" height="25.0938" rx="2.5" ry="2.5" style="stroke:#404040;stroke-width:0.5;" width="102.6973" x="873" y="45.6094"/><text fill="#000000" font-family="sans-serif" font-size="12" font-style="italic" lengthAdjust="spacing" textLength="96.6973" x="876" y="63.0664">AbstractGeometry</text></g><!--class TemporalExtent--><g class="entity" data-qualified-name="TemporalExtent" data-source-line="31" id="ent0021"><rect fill="#EEEEEE" height="25.0938" rx="2.5" ry="2.5" style="stroke:#404040;stroke-width:0.5;" width="90.7031" x="1027" y="45.6094"/><text fill="#000000" font-family="sans-serif" font-size="12" lengthAdjust="spacing" textLength="84.7031" x="1030" y="63.0664">TemporalExtent</text></g><!--class Instant--><g class="entity" data-qualified-name="Instant" data-source-line="34" id="ent0024"><rect fill="#EEEEEE" height="25.0938" rx="2.5" ry="2.5" style="stroke:#404040;stroke-width:0.5;" width="42.0234" x="1161.5" y="45.6094"/><text fill="#000000" font-family="sans-serif" font-size="12" lengthAdjust="spacing" textLength="36.0234" x="1164.5" y="63.0664">Instant</text></g><!--class TimePosition--><g class="entity" data-qualified-name="TimePosition" data-source-line="36" id="ent0026"><rect fill="#EEEEEE" height="25.0938" rx="2.5" ry="2.5" style="stroke:#404040;stroke-width:0.5;" width="75.3574" x="1239" y="45.6094"/><text fill="#000000" font-family="sans-serif" font-size="12" lengthAdjust="spacing" textLength="69.3574" x="1242" y="63.0664">TimePosition</text></g><!--class Geometry--><g class="entity" data-qualified-name="Geometry" data-source-line="38" id="ent0028"><rect fill="#EEEEEE" height="25.0938" rx="2.5" ry="2.5" style="stroke:#404040;stroke-width:0.5;" width="58.6816" x="1349" y="45.6094"/><text fill="#000000" font-family="sans-serif" font-size="12" lengthAdjust="spacing" textLength="52.6816" x="1352" y="63.0664">Geometry</text></g><!--class QualityMeasurement--><g class="entity" data-qualified-name="QualityMeasurement" data-source-line="40" id="ent0030"><rect fill="#EEEEEE" height="25.0938" rx="2.5" ry="2.5" style="stroke:#404040;stroke-width:0.5;" width="116.7129" x="1443" y="45.6094"/><text fill="#000000" font-family="sans-serif" font-size="12" lengthAdjust="spacing" textLength="110.7129" x="1446" y="63.0664">QualityMeasurement</text></g><!--class ActionResult--><g class="entity" data-qualified-name="ActionResult" data-source-line="42" id="ent0032"><rect fill="#EEEEEE" height="25.0938" rx="2.5" ry="2.5" style="stroke:#404040;stroke-width:0.5;" width="73.3652" x="1595" y="45.6094"/><text fill="#000000" font-family="sans-serif" font-size="12" lengthAdjust="spacing" textLength="67.3652" x="1598" y="63.0664">ActionResult</text></g><!--class AdditionalProperty--><g class="entity" data-qualified-name="AdditionalProperty" data-source-line="44" id="ent0034"><rect fill="#EEEEEE" height="25.0938" rx="2.5" ry="2.5" style="stroke:#404040;stroke-width:0.5;" width="104.0566" x="1703.5" y="45.6094"/><text fill="#000000" font-family="sans-serif" font-size="12" lengthAdjust="spacing" textLength="98.0566" x="1706.5" y="63.0664">AdditionalProperty</text></g><!--class Reference--><g class="entity" data-qualified-name="Reference" data-source-line="46" id="ent0036"><rect fill="#EEEEEE" height="25.0938" rx="2.5" ry="2.5" style="stroke:#404040;stroke-width:0.5;" width="61.3652" x="1843" y="45.6094"/><text fill="#000000" font-family="sans-serif" font-size="12" lengthAdjust="spacing" textLength="55.3652" x="1846" y="63.0664">Reference</text></g><!--class ProvActivity--><g class="entity" data-qualified-name="ProvActivity" data-source-line="49" id="ent0039"><rect fill="#EEEEEE" height="25.0938" rx="2.5" ry="2.5" style="stroke:#404040;stroke-width:0.5;" width="68.6777" x="1939" y="45.6094"/><text fill="#000000" font-family="sans-serif" font-size="12" lengthAdjust="spacing" textLength="62.6777" x="1942" y="63.0664">ProvActivity</text></g><!--class DerivedFrom--><g class="entity" data-qualified-name="DerivedFrom" data-source-line="51" id="ent0041"><rect fill="#EEEEEE" height="25.0938" rx="2.5" ry="2.5" style="stroke:#404040;stroke-width:0.5;" width="75.3457" x="2043" y="45.6094"/><text fill="#000000" font-family="sans-serif" font-size="12" lengthAdjust="spacing" textLength="69.3457" x="2046" y="63.0664">DerivedFrom</text></g><!--class CatalogRecord--><g class="entity" data-qualified-name="CatalogRecord" data-source-line="54" id="ent0044"><rect fill="#EEEEEE" height="25.0938" rx="2.5" ry="2.5" style="stroke:#404040;stroke-width:0.5;" width="86.0449" x="2153.5" y="45.6094"/><text fill="#000000" font-family="sans-serif" font-size="12" lengthAdjust="spacing" textLength="80.0449" x="2156.5" y="63.0664">CatalogRecord</text></g><!--link VariableMeasured to XsdAnyUri--><g class="link" data-entity-1="ent0003" data-entity-2="ent0002" data-link-type="dependency" data-source-line="14" id="lnk4"><path codeLine="14" d="M59.78,71.0594 C61.98,85.0594 67.87,107.7194 83.5,118.6094 C128.83,150.1894 976.1907,164.4001 1154.8707,167.0601" fill="none" id="VariableMeasured-to-XsdAnyUri" style="stroke:#404040;stroke-width:1.2;stroke-dasharray:7,7;"/><polygon fill="#404040" points="1160.87,167.1494,1151.9305,163.0159,1155.8706,167.0749,1151.8115,171.015,1160.87,167.1494" style="stroke:#404040;stroke-width:1.2;"/><text fill="#000000" font-family="sans-serif" font-size="13" lengthAdjust="spacing" textLength="58.5317" x="84.5" y="115.1045">propertyId</text></g><!--link DataDownload to XsdAnyUri--><g class="link" data-entity-1="ent0005" data-entity-2="ent0002" data-link-type="dependency" data-source-line="16" id="lnk6"><path codeLine="16" d="M186.7,70.6694 C165.67,82.7694 139.9,102.2594 155.5,118.6094 C191.03,155.8594 982.3603,165.5809 1154.8103,167.2609" fill="none" id="DataDownload-to-XsdAnyUri" style="stroke:#404040;stroke-width:1.2;stroke-dasharray:7,7;"/><polygon fill="#404040" points="1160.81,167.3194,1151.8494,163.2319,1155.8102,167.2707,1151.7715,171.2315,1160.81,167.3194" style="stroke:#404040;stroke-width:1.2;"/><text fill="#000000" font-family="sans-serif" font-size="13" lengthAdjust="spacing" textLength="59.249" x="156.5" y="115.1045">contentUrl</text></g><!--link DataDownload to XsdAnyUri--><g class="link" data-entity-1="ent0005" data-entity-2="ent0002" data-link-type="dependency" data-source-line="17" id="lnk7"><path codeLine="17" d="M225.82,70.8394 C246.63,85.0694 284.3,108.4294 320.5,118.6094 C483.08,164.3194 1016.52,167.5863 1154.92,167.6563" fill="none" id="DataDownload-to-XsdAnyUri-1" style="stroke:#404040;stroke-width:1.2;stroke-dasharray:7,7;"/><polygon fill="#404040" points="1160.92,167.6594,1151.92,163.6594,1155.92,167.6594,1151.92,171.6594,1160.92,167.6594" style="stroke:#404040;stroke-width:1.2;"/><text fill="#000000" font-family="sans-serif" font-size="13" lengthAdjust="spacing" textLength="68.6309" x="321.5" y="115.1045">conformsTo</text></g><!--link EnumerationDomain to XsdAnyUri--><g class="link" data-entity-1="ent0008" data-entity-2="ent0002" data-link-type="dependency" data-source-line="19" id="lnk9"><path codeLine="19" d="M369.08,70.7994 C380.27,84.9894 401.29,108.2994 425.5,118.6094 C493.8,147.6894 1016.362,163.0535 1154.542,166.6435" fill="none" id="EnumerationDomain-to-XsdAnyUri" style="stroke:#404040;stroke-width:1.2;stroke-dasharray:7,7;"/><polygon fill="#404040" points="1160.54,166.7994,1151.6469,162.567,1155.5417,166.6695,1151.4391,170.5643,1160.54,166.7994" style="stroke:#404040;stroke-width:1.2;"/><text fill="#000000" font-family="sans-serif" font-size="13" lengthAdjust="spacing" textLength="61.4199" x="426.5" y="115.1045">references</text></g><!--link Concept to XsdAnyUri--><g class="link" data-entity-1="ent0010" data-entity-2="ent0002" data-link-type="dependency" data-source-line="21" id="lnk11"><path codeLine="21" d="M481.86,70.6194 C486.63,84.6394 496.79,107.7694 514.5,118.6094 C570,152.5894 1026.6013,164.2462 1154.7213,166.8762" fill="none" id="Concept-to-XsdAnyUri" style="stroke:#404040;stroke-width:1.2;stroke-dasharray:7,7;"/><polygon fill="#404040" points="1160.72,166.9994,1151.804,162.8155,1155.7211,166.8968,1151.6398,170.8138,1160.72,166.9994" style="stroke:#404040;stroke-width:1.2;"/><text fill="#000000" font-family="sans-serif" font-size="13" lengthAdjust="spacing" textLength="57.8081" x="515.5" y="115.1045">inScheme</text></g><!--link Identifier to XsdAnyUri--><g class="link" data-entity-1="ent0012" data-entity-2="ent0002" data-link-type="dependency" data-source-line="23" id="lnk13"><path codeLine="23" d="M572.64,70.9394 C574.67,84.8294 580.25,107.3794 595.5,118.6094 C641.22,152.2694 1036.7217,163.9878 1154.9117,166.7778" fill="none" id="Identifier-to-XsdAnyUri" style="stroke:#404040;stroke-width:1.2;stroke-dasharray:7,7;"/><polygon fill="#404040" points="1160.91,166.9194,1152.0069,162.7081,1155.9114,166.8014,1151.8181,170.7059,1160.91,166.9194" style="stroke:#404040;stroke-width:1.2;"/><text fill="#000000" font-family="sans-serif" font-size="13" lengthAdjust="spacing" textLength="14.4473" x="596.5" y="115.1045">url</text></g><!--link DefinedTerm to XsdAnyUri--><g class="link" data-entity-1="ent0014" data-entity-2="ent0002" data-link-type="dependency" data-source-line="25" id="lnk15"><path codeLine="25" d="M664.55,70.6094 C638.07,81.8394 607.34,99.9094 624.5,118.6094 C660.91,158.2894 1039.3004,165.8367 1154.8404,167.2367" fill="none" id="DefinedTerm-to-XsdAnyUri" style="stroke:#404040;stroke-width:1.2;stroke-dasharray:7,7;"/><polygon fill="#404040" points="1160.84,167.3094,1151.8891,163.2006,1155.8404,167.2488,1151.7922,171.2,1160.84,167.3094" style="stroke:#404040;stroke-width:1.2;"/><text fill="#000000" font-family="sans-serif" font-size="13" lengthAdjust="spacing" textLength="49.1372" x="625.5" y="115.1045">identifier</text></g><!--link DefinedTerm to XsdAnyUri--><g class="link" data-entity-1="ent0014" data-entity-2="ent0002" data-link-type="dependency" data-source-line="26" id="lnk16"><path codeLine="26" d="M704.83,71.0994 C715.33,85.1394 734.77,107.8394 757.5,118.6094 C829.09,152.5294 1066.1734,163.4771 1154.8134,166.4671" fill="none" id="DefinedTerm-to-XsdAnyUri-1" style="stroke:#404040;stroke-width:1.2;stroke-dasharray:7,7;"/><polygon fill="#404040" points="1160.81,166.6694,1151.95,162.3682,1155.8128,166.5008,1151.6803,170.3637,1160.81,166.6694" style="stroke:#404040;stroke-width:1.2;"/><text fill="#000000" font-family="sans-serif" font-size="13" lengthAdjust="spacing" textLength="104.7681" x="758.5" y="115.1045">inDefinedTermSet</text></g><!--link Dataset to XsdAnyUri--><g class="link" data-entity-1="ent0017" data-entity-2="ent0002" data-link-type="dependency" data-source-line="28" id="lnk18"><path codeLine="28" d="M828.65,70.7594 C846.07,84.4694 877.11,106.8394 907.5,118.6094 C994.88,152.4394 1100.2706,162.6236 1154.6506,165.8536" fill="none" id="Dataset-to-XsdAnyUri" style="stroke:#404040;stroke-width:1.2;stroke-dasharray:7,7;"/><polygon fill="#404040" points="1160.64,166.2094,1151.893,161.6828,1155.6488,165.9129,1151.4187,169.6687,1160.64,166.2094" style="stroke:#404040;stroke-width:1.2;"/><text fill="#000000" font-family="sans-serif" font-size="13" lengthAdjust="spacing" textLength="14.4473" x="908.5" y="115.1045">url</text></g><!--link AbstractGeometry to XsdAnyUri--><g class="link" data-entity-1="ent0019" data-entity-2="ent0002" data-link-type="dependency" data-source-line="30" id="lnk20"><path codeLine="30" d="M925.09,71.0894 C926.43,84.6794 930.74,106.5294 944.5,118.6094 C976.29,146.5094 1094.4812,159.6149 1154.5712,164.6849" fill="none" id="AbstractGeometry-to-XsdAnyUri" style="stroke:#404040;stroke-width:1.2;stroke-dasharray:7,7;"/><polygon fill="#404040" points="1160.55,165.1894,1151.9182,160.4469,1155.5677,164.769,1151.2456,168.4185,1160.55,165.1894" style="stroke:#404040;stroke-width:1.2;"/><text fill="#000000" font-family="sans-serif" font-size="13" lengthAdjust="spacing" textLength="17.3291" x="945.5" y="115.1045">crs</text></g><!--link TemporalExtent to XsdAnyUri--><g class="link" data-entity-1="ent0021" data-entity-2="ent0002" data-link-type="dependency" data-source-line="32" id="lnk22"><path codeLine="32" d="M1026.98,69.5494 C994.01,79.2694 958.2,95.7094 976.5,118.6094 C999.23,147.0394 1100.1643,159.6296 1154.9643,164.5796" fill="none" id="TemporalExtent-to-XsdAnyUri" style="stroke:#404040;stroke-width:1.2;stroke-dasharray:7,7;"/><polygon fill="#404040" points="1160.94,165.1194,1152.3363,160.3259,1155.9603,164.6696,1151.6166,168.2935,1160.94,165.1194" style="stroke:#404040;stroke-width:1.2;"/><text fill="#000000" font-family="sans-serif" font-size="13" lengthAdjust="spacing" textLength="98.9917" x="977.5" y="115.1045">intervalStartedBy</text></g><!--link TemporalExtent to XsdAnyUri--><g class="link" data-entity-1="ent0021" data-entity-2="ent0002" data-link-type="dependency" data-source-line="33" id="lnk23"><path codeLine="33" d="M1078.31,70.7094 C1085.17,83.5694 1097.54,104.3494 1112.5,118.6094 C1126.66,132.1094 1139.8671,140.795 1155.6171,149.275" fill="none" id="TemporalExtent-to-XsdAnyUri-1" style="stroke:#404040;stroke-width:1.2;stroke-dasharray:7,7;"/><polygon fill="#404040" points="1160.9,152.1194,1154.8719,144.3308,1156.4976,149.749,1151.0793,151.3747,1160.9,152.1194" style="stroke:#404040;stroke-width:1.2;"/><text fill="#000000" font-family="sans-serif" font-size="13" lengthAdjust="spacing" textLength="106.2153" x="1113.5" y="115.1045">intervalFinishedBy</text></g><!--link Instant to XsdAnyUri--><g class="link" data-entity-1="ent0024" data-entity-2="ent0002" data-link-type="dependency" data-source-line="35" id="lnk25"><path codeLine="35" d="M1201.78,70.7694 C1211.76,77.9794 1222.99,88.2294 1228.5,100.6094 C1235.86,117.1594 1229.037,130.793 1217.567,144.043" fill="none" id="Instant-to-XsdAnyUri" style="stroke:#404040;stroke-width:1.2;stroke-dasharray:7,7;"/><polygon fill="#404040" points="1213.64,148.5794,1222.5547,144.3928,1216.9125,144.799,1216.5062,139.1568,1213.64,148.5794" style="stroke:#404040;stroke-width:1.2;"/><text fill="#000000" font-family="sans-serif" font-size="13" lengthAdjust="spacing" textLength="49.1372" x="1231.5" y="115.1045">identifier</text></g><!--link TimePosition to XsdAnyUri--><g class="link" data-entity-1="ent0026" data-entity-2="ent0002" data-link-type="dependency" data-source-line="37" id="lnk27"><path codeLine="37" d="M1283.84,70.9094 C1290.67,83.5594 1298.56,103.8194 1289.5,118.6094 C1275.82,140.9494 1254.1235,151.7412 1232.0735,158.5412" fill="none" id="TimePosition-to-XsdAnyUri" style="stroke:#404040;stroke-width:1.2;stroke-dasharray:7,7;"/><polygon fill="#404040" points="1226.34,160.3094,1236.1191,161.4795,1231.118,158.8359,1233.7615,153.8348,1226.34,160.3094" style="stroke:#404040;stroke-width:1.2;"/><text fill="#000000" font-family="sans-serif" font-size="13" lengthAdjust="spacing" textLength="46.96" x="1294.5" y="115.1045">hasTRS</text></g><!--link Geometry to XsdAnyUri--><g class="link" data-entity-1="ent0028" data-entity-2="ent0002" data-link-type="dependency" data-source-line="39" id="lnk29"><path codeLine="39" d="M1375.76,70.8994 C1372.05,84.3294 1364.13,106.0094 1349.5,118.6094 C1314.33,148.8894 1266.4009,159.7134 1232.0609,164.1334" fill="none" id="Geometry-to-XsdAnyUri" style="stroke:#404040;stroke-width:1.2;stroke-dasharray:7,7;"/><polygon fill="#404040" points="1226.11,164.8994,1235.547,167.7177,1231.0691,164.2611,1234.5257,159.7832,1226.11,164.8994" style="stroke:#404040;stroke-width:1.2;"/><text fill="#000000" font-family="sans-serif" font-size="13" lengthAdjust="spacing" textLength="17.3291" x="1363.5" y="115.1045">crs</text></g><!--link QualityMeasurement to XsdAnyUri--><g class="link" data-entity-1="ent0030" data-entity-2="ent0002" data-link-type="dependency" data-source-line="41" id="lnk31"><path codeLine="41" d="M1483.14,70.6694 C1461.47,83.8694 1424.03,105.3494 1389.5,118.6094 C1333.84,139.9894 1271.5678,153.4765 1232.0478,160.8665" fill="none" id="QualityMeasurement-to-XsdAnyUri" style="stroke:#404040;stroke-width:1.2;stroke-dasharray:7,7;"/><polygon fill="#404040" points="1226.15,161.9694,1235.7319,164.247,1231.0648,161.0503,1234.2614,156.3833,1226.15,161.9694" style="stroke:#404040;stroke-width:1.2;"/><text fill="#000000" font-family="sans-serif" font-size="13" lengthAdjust="spacing" textLength="20.96" x="1428.5" y="115.1045">unit</text></g><!--link ActionResult to XsdAnyUri--><g class="link" data-entity-1="ent0032" data-entity-2="ent0002" data-link-type="dependency" data-source-line="43" id="lnk33"><path codeLine="43" d="M1602.04,70.6594 C1567.75,83.7594 1509.23,105.0394 1457.5,118.6094 C1375.43,140.1294 1282.5582,154.9606 1232.2882,162.2306" fill="none" id="ActionResult-to-XsdAnyUri" style="stroke:#404040;stroke-width:1.2;stroke-dasharray:7,7;"/><polygon fill="#404040" points="1226.35,163.0894,1235.8299,165.76,1231.2985,162.3737,1234.6848,157.8424,1226.35,163.0894" style="stroke:#404040;stroke-width:1.2;"/><text fill="#000000" font-family="sans-serif" font-size="13" lengthAdjust="spacing" textLength="68.6309" x="1516.5" y="115.1045">conformsTo</text></g><!--link AdditionalProperty to XsdAnyUri--><g class="link" data-entity-1="ent0034" data-entity-2="ent0002" data-link-type="dependency" data-source-line="45" id="lnk35"><path codeLine="45" d="M1729.7,70.6994 C1698.2,84.3394 1643.01,106.6494 1593.5,118.6094 C1459.52,150.9594 1300.8617,162.224 1232.0917,165.844" fill="none" id="AdditionalProperty-to-XsdAnyUri" style="stroke:#404040;stroke-width:1.2;stroke-dasharray:7,7;"/><polygon fill="#404040" points="1226.1,166.1594,1235.2978,169.6807,1231.0931,165.8965,1234.8773,161.6918,1226.1,166.1594" style="stroke:#404040;stroke-width:1.2;"/><text fill="#000000" font-family="sans-serif" font-size="13" lengthAdjust="spacing" textLength="52.0381" x="1653.5" y="115.1045">unitCode</text></g><!--link Reference to XsdAnyUri--><g class="link" data-entity-1="ent0036" data-entity-2="ent0002" data-link-type="dependency" data-source-line="47" id="lnk37"><path codeLine="47" d="M1848.8,70.6994 C1818.06,84.5594 1763.62,107.3194 1714.5,118.6094 C1533.43,160.2294 1315.1797,166.555 1232.2897,167.445" fill="none" id="Reference-to-XsdAnyUri" style="stroke:#404040;stroke-width:1.2;stroke-dasharray:7,7;"/><polygon fill="#404040" points="1226.29,167.5094,1235.3324,171.4125,1231.2897,167.4557,1235.2465,163.413,1226.29,167.5094" style="stroke:#404040;stroke-width:1.2;"/><text fill="#000000" font-family="sans-serif" font-size="13" lengthAdjust="spacing" textLength="14.4473" x="1773.5" y="115.1045">url</text></g><!--link Reference to XsdAnyUri--><g class="link" data-entity-1="ent0036" data-entity-2="ent0002" data-link-type="dependency" data-source-line="48" id="lnk38"><path codeLine="48" d="M1862.82,70.7294 C1849.04,84.8594 1823.6,108.1194 1796.5,118.6094 C1690.97,159.4794 1341.8097,166.1976 1232.0797,167.3276" fill="none" id="Reference-to-XsdAnyUri-1" style="stroke:#404040;stroke-width:1.2;stroke-dasharray:7,7;"/><polygon fill="#404040" points="1226.08,167.3894,1235.1207,171.2965,1231.0797,167.3379,1235.0383,163.2969,1226.08,167.3894" style="stroke:#404040;stroke-width:1.2;"/><text fill="#000000" font-family="sans-serif" font-size="13" lengthAdjust="spacing" textLength="42.6372" x="1827.5" y="115.1045">relation</text></g><!--link ProvActivity to XsdAnyUri--><g class="link" data-entity-1="ent0039" data-entity-2="ent0002" data-link-type="dependency" data-source-line="50" id="lnk40"><path codeLine="50" d="M1959.81,70.7694 C1942.27,84.9394 1910.32,108.2194 1878.5,118.6094 C1754.96,158.9294 1351.0897,166.0463 1232.1297,167.2963" fill="none" id="ProvActivity-to-XsdAnyUri" style="stroke:#404040;stroke-width:1.2;stroke-dasharray:7,7;"/><polygon fill="#404040" points="1226.13,167.3594,1235.1715,171.2646,1231.1297,167.3068,1235.0875,163.265,1226.13,167.3594" style="stroke:#404040;stroke-width:1.2;"/><text fill="#000000" font-family="sans-serif" font-size="13" lengthAdjust="spacing" textLength="28.1899" x="1915.5" y="115.1045">used</text></g><!--link DerivedFrom to XsdAnyUri--><g class="link" data-entity-1="ent0041" data-entity-2="ent0002" data-link-type="dependency" data-source-line="52" id="lnk42"><path codeLine="52" d="M2061.39,70.7594 C2037.08,84.9094 1993.34,108.1894 1952.5,118.6094 C1811.92,154.4794 1359.4191,164.7641 1232.3891,166.9941" fill="none" id="DerivedFrom-to-XsdAnyUri" style="stroke:#404040;stroke-width:1.2;stroke-dasharray:7,7;"/><polygon fill="#404040" points="1226.39,167.0994,1235.4588,170.9408,1231.3892,167.0116,1235.3184,162.942,1226.39,167.0994" style="stroke:#404040;stroke-width:1.2;"/><text fill="#000000" font-family="sans-serif" font-size="13" lengthAdjust="spacing" textLength="14.4473" x="2000.5" y="115.1045">url</text></g><!--link DerivedFrom to XsdAnyUri--><g class="link" data-entity-1="ent0041" data-entity-2="ent0002" data-link-type="dependency" data-source-line="53" id="lnk43"><path codeLine="53" d="M2073.33,70.7894 C2063.89,84.9794 2045.83,108.2894 2023.5,118.6094 C1950.2,152.4794 1376.9791,164.4754 1232.2091,166.9854" fill="none" id="DerivedFrom-to-XsdAnyUri-1" style="stroke:#404040;stroke-width:1.2;stroke-dasharray:7,7;"/><polygon fill="#404040" points="1226.21,167.0894,1235.278,170.9328,1231.2092,167.0027,1235.1393,162.934,1226.21,167.0894" style="stroke:#404040;stroke-width:1.2;"/><text fill="#000000" font-family="sans-serif" font-size="13" lengthAdjust="spacing" textLength="42.6372" x="2047.5" y="115.1045">relation</text></g><!--link CatalogRecord to XsdAnyUri--><g class="link" data-entity-1="ent0044" data-entity-2="ent0002" data-link-type="dependency" data-source-line="55" id="lnk45"><path codeLine="55" d="M2182.65,70.6094 C2164.59,84.8394 2131.4,108.4394 2098.5,118.6094 C1930.89,170.4394 1374.5698,169.1996 1232.3798,168.0096" fill="none" id="CatalogRecord-to-XsdAnyUri" style="stroke:#404040;stroke-width:1.2;stroke-dasharray:7,7;"/><polygon fill="#404040" points="1226.38,167.9594,1235.3462,172.0346,1231.3798,168.0012,1235.4132,164.0348,1226.38,167.9594" style="stroke:#404040;stroke-width:1.2;"/><text fill="#000000" font-family="sans-serif" font-size="13" lengthAdjust="spacing" textLength="68.6309" x="2138.5" y="115.1045">conformsTo</text></g><?plantuml-src ZLN9Rjim4BthAmZdRZHfUoa20ugN8eS2gQqKlTBYE2B2HHZITjMY_rvjf2ZHTM9VE6_8DnlvPBaLG7uQbghg6NbIS0OavvWBwDOWIriH2N8FQ1BpobL9aKfY2ihqcQiNSg32GE194VKvAtZ-gi0OSZk_2vove3Ns9o7TjgKM6idDfm_DlmOVD3B0ARhHokxuRo2tTydV9EauPZxf6Q5cA87StpDgQLQLi5YGcqsw_hpwwCxyeCZfNi0teEQ8mDgZKv3ShDjV4ZdcyqKGw0ifKPU0jdfaBi2g3htIPoKqxSX3m1EFm2bfNbSBoZwZU7FVGQCqcNR1r-ee0QdbMgsqf5or6KIeJoFsJ6CW7011vM1SZAMkhTAspFtQypbxoiBLBYz0WkDuP7Lz_C01Mvh1z4m1D2KxrdrnpOO3Ly0oGDdrUh27LWTOb9UFSdsR2hmxiE6i3LW_vdezcd1ZNygUxer5cjl-CSpItluAMeB5gYMSWfuvSaJt0lsmilhrQgHY_QkvKItl6FAi4pXkWGKyKR6p52smX-gz1pPSSLEq9zpmbR6qJwPV3sFlxIk3SfLn2K_QyERkTdK5m51L24v92sgoxSuHZfeVDVqzpVv-f8BRgXSBwHeUmvxrWYkwBuhx-vRcJHrRC4VHKOV0S3z2y6tDI1bhsqF5Kozc7NK43m5YrwMibvhv1xzrCj9oUyjJ3iYbz_9_Bu9erSl5gHCwDVMVU5z62FXe8p0AQ60GSq1-0hP1xVJ5su6-3DYbvA_vf-alQz4G-cKBUVqPx1GsH0QT7Q5NPlmF?></g></svg>