<svg xmlns="http://www.w3.org/2000/svg" xmlns:xlink="http://www.w3.org/1999/xlink" contentStyleType="text/css" data-diagram-type="CLASS" height="406px" preserveAspectRatio="none" style="width:565px;height:406px;background:#FFFFFF;" version="1.1" viewBox="0 0 565 406" width="565px" zoomAndPan="magnify"><?plantuml 1.2026.3?><defs/><g><g class="title" data-source-line="1"><text fill="#000000" font-family="sans-serif" font-size="14" font-weight="700" lengthAdjust="spacing" textLength="56" x="251.3745" y="24.5332">Concept</text></g><!--class Concept--><g class="entity" data-qualified-name="Concept" data-source-line="12" id="ent0002"><rect fill="#FEFECE" height="244.4063" rx="2.5" ry="2.5" style="stroke:#404040;stroke-width:0.5;" width="183.1855" x="7" y="45.6094"/><text fill="#000000" font-family="sans-serif" font-size="12" lengthAdjust="spacing" textLength="44.6953" x="76.2451" y="63.0664">Concept</text><line style="stroke:#404040;stroke-width:0.5;" x1="8" x2="189.1855" y1="70.7031" y2="70.7031"/><g data-visibility-modifier="PUBLIC_FIELD"><ellipse cx="18" cy="85.0078" fill="none" rx="3" ry="3" style="stroke:#038048;stroke-width:1;"/></g><text fill="#000000" font-family="sans-serif" font-size="14" lengthAdjust="spacing" textLength="136.9648" x="27" y="89.2363">prefLabel : string [1..*]</text><g data-visibility-modifier="PUBLIC_FIELD"><ellipse cx="18" cy="102.6172" fill="none" rx="3" ry="3" style="stroke:#038048;stroke-width:1;"/></g><text fill="#000000" font-family="sans-serif" font-size="14" lengthAdjust="spacing" textLength="127.627" x="27" y="106.8457">altLabel : string [0..*]</text><g data-visibility-modifier="PUBLIC_FIELD"><ellipse cx="18" cy="120.2266" fill="none" rx="3" ry="3" style="stroke:#038048;stroke-width:1;"/></g><text fill="#000000" font-family="sans-serif" font-size="14" lengthAdjust="spacing" textLength="154.8818" x="27" y="124.4551">hiddenLabel : string [0..*]</text><g data-visibility-modifier="PUBLIC_FIELD"><ellipse cx="18" cy="137.8359" fill="none" rx="3" ry="3" style="stroke:#038048;stroke-width:1;"/></g><text fill="#000000" font-family="sans-serif" font-size="14" lengthAdjust="spacing" textLength="128.4063" x="27" y="142.0645">notation : string [0..*]</text><g data-visibility-modifier="PUBLIC_FIELD"><ellipse cx="18" cy="155.4453" fill="none" rx="3" ry="3" style="stroke:#038048;stroke-width:1;"/></g><text fill="#000000" font-family="sans-serif" font-size="14" lengthAdjust="spacing" textLength="134.627" x="27" y="159.6738">definition : string [1..*]</text><g data-visibility-modifier="PUBLIC_FIELD"><ellipse cx="18" cy="173.0547" fill="none" rx="3" ry="3" style="stroke:#038048;stroke-width:1;"/></g><text fill="#000000" font-family="sans-serif" font-size="14" lengthAdjust="spacing" textLength="145.5166" x="27" y="177.2832">scopeNote : string [0..*]</text><g data-visibility-modifier="PUBLIC_FIELD"><ellipse cx="18" cy="190.6641" fill="none" rx="3" ry="3" style="stroke:#038048;stroke-width:1;"/></g><text fill="#000000" font-family="sans-serif" font-size="14" lengthAdjust="spacing" textLength="105.834" x="27" y="194.8926">note : string [0..*]</text><g data-visibility-modifier="PUBLIC_FIELD"><ellipse cx="18" cy="208.2734" fill="none" rx="3" ry="3" style="stroke:#038048;stroke-width:1;"/></g><text fill="#000000" font-family="sans-serif" font-size="14" lengthAdjust="spacing" textLength="149.3926" x="27" y="212.502">historyNote : string [0..*]</text><g data-visibility-modifier="PUBLIC_FIELD"><ellipse cx="18" cy="225.8828" fill="none" rx="3" ry="3" style="stroke:#038048;stroke-width:1;"/></g><text fill="#000000" font-family="sans-serif" font-size="14" lengthAdjust="spacing" textLength="154.0889" x="27" y="230.1113">changeNote : string [0..*]</text><g data-visibility-modifier="PUBLIC_FIELD"><ellipse cx="18" cy="243.4922" fill="none" rx="3" ry="3" style="stroke:#038048;stroke-width:1;"/></g><text fill="#000000" font-family="sans-serif" font-size="14" lengthAdjust="spacing" textLength="157.1855" x="27" y="247.7207">editorialNote : string [0..*]</text><g data-visibility-modifier="PUBLIC_FIELD"><ellipse cx="18" cy="261.1016" fill="none" rx="3" ry="3" style="stroke:#038048;stroke-width:1;"/></g><text fill="#000000" font-family="sans-serif" font-size="14" lengthAdjust="spacing" textLength="131.5029" x="27" y="265.3301">example : string [0..*]</text><g data-visibility-modifier="PUBLIC_FIELD"><ellipse cx="18" cy="278.7109" fill="none" rx="3" ry="3" style="stroke:#038048;stroke-width:1;"/></g><text fill="#000000" font-family="sans-serif" font-size="14" lengthAdjust="spacing" textLength="137.7373" x="27" y="282.9395">identifier : Identifier [1]</text></g><!--class ConceptScheme--><g class="entity" data-qualified-name="ConceptScheme" data-source-line="26" id="ent0003"><rect fill="#EEEEEE" height="25.0938" rx="2.5" ry="2.5" style="stroke:#404040;stroke-width:0.5;" width="94.7168" x="51" y="367.6094"/><text fill="#000000" font-family="sans-serif" font-size="12" lengthAdjust="spacing" textLength="88.7168" x="54" y="385.0664">ConceptScheme</text></g><!--reverse link ConceptScheme to Concept--><g class="link" data-entity-1="ent0003" data-entity-2="ent0002" data-link-type="dependency" data-source-line="27" id="lnk4"><path codeLine="27" d="M104.3004,361.5627 C106.8704,353.3427 108.17,347.8094 109.5,337.6094 C111.51,322.1594 112.22,305.8594 112.08,289.7294" fill="none" id="ConceptScheme-backto-Concept" style="stroke:#404040;stroke-width:1.2;"/><polygon fill="#404040" points="102.51,367.2894,109.0134,359.8931,104.002,362.5172,101.3779,357.5058,102.51,367.2894" style="stroke:#404040;stroke-width:1.2;"/><text fill="#000000" font-family="sans-serif" font-size="13" lengthAdjust="spacing" textLength="91.7808" x="111.5" y="334.1045">hasTopConcept</text><text fill="#000000" font-family="sans-serif" font-size="13" lengthAdjust="spacing" textLength="19.5127" x="81.505" y="356.6374">1..*</text></g><!--link Concept to ConceptScheme--><g class="link" data-entity-1="ent0002" data-entity-2="ent0003" data-link-type="dependency" data-source-line="28" id="lnk5"><path codeLine="28" d="M34.95,289.9294 C33.11,306.2694 34.92,322.5594 42.5,337.6094 C49.09,350.6894 56.7873,357.6292 68.5273,364.5292" fill="none" id="Concept-to-ConceptScheme" style="stroke:#404040;stroke-width:1.2;"/><polygon fill="#404040" points="73.7,367.5694,67.9677,359.5606,69.3894,365.0359,63.9141,366.4576,73.7,367.5694" style="stroke:#404040;stroke-width:1.2;"/><text fill="#000000" font-family="sans-serif" font-size="13" lengthAdjust="spacing" textLength="57.8081" x="43.5" y="334.1045">inScheme</text><text fill="#000000" font-family="sans-serif" font-size="13" lengthAdjust="spacing" textLength="19.5127" x="40.7154" y="356.6449">1..*</text></g><!--link Concept to Concept--><g class="link" data-entity-1="ent0002" data-entity-2="ent0002" data-link-type="dependency" data-source-line="29" id="lnk6"><path codeLine="29" d="M190.04,161.7694 C210.27,162.3194 225,164.2694 225,167.6094 C225,170.9494 216.2678,172.7363 196.0378,173.2863" fill="none" id="Concept-to-Concept" style="stroke:#404040;stroke-width:1.2;"/><polygon fill="#404040" points="190.04,173.4494,199.1454,177.2033,195.0382,173.3135,198.928,169.2063,190.04,173.4494" style="stroke:#404040;stroke-width:1.2;"/><text fill="#000000" font-family="sans-serif" font-size="13" lengthAdjust="spacing" textLength="44.8081" x="231" y="173.1045">broader</text><text fill="#000000" font-family="sans-serif" font-size="13" lengthAdjust="spacing" textLength="19.5127" x="198.1047" y="170.7702">0..*</text></g><!--link Concept to Concept--><g class="link" data-entity-1="ent0002" data-entity-2="ent0002" data-link-type="dependency" data-source-line="30" id="lnk7"><path codeLine="30" d="M190.36,155.9294 C237.41,154.4094 281,158.2994 281,167.6094 C281,176.9194 243.4069,181.0031 196.3569,179.4831" fill="none" id="Concept-to-Concept-1" style="stroke:#404040;stroke-width:1.2;"/><polygon fill="#404040" points="190.36,179.2894,199.2262,183.5779,195.3574,179.4508,199.4845,175.5821,190.36,179.2894" style="stroke:#404040;stroke-width:1.2;"/><text fill="#000000" font-family="sans-serif" font-size="13" lengthAdjust="spacing" textLength="51.2954" x="287" y="173.1045">narrower</text><text fill="#000000" font-family="sans-serif" font-size="13" lengthAdjust="spacing" textLength="19.5127" x="198.1329" y="194.2891">0..*</text></g><!--link Concept to Concept--><g class="link" data-entity-1="ent0002" data-entity-2="ent0002" data-link-type="dependency" data-source-line="31" id="lnk8"><path codeLine="31" d="M190.19,151.6894 C263.22,146.2194 344,151.5294 344,167.6094 C344,183.6894 269.2032,189.4475 196.1732,183.9775" fill="none" id="Concept-to-Concept-2" style="stroke:#404040;stroke-width:1.2;"/><polygon fill="#404040" points="190.19,183.5294,198.8661,188.1904,195.176,183.9028,199.4636,180.2128,190.19,183.5294" style="stroke:#404040;stroke-width:1.2;"/><text fill="#000000" font-family="sans-serif" font-size="13" lengthAdjust="spacing" textLength="39.749" x="350" y="173.1045">related</text><text fill="#000000" font-family="sans-serif" font-size="13" lengthAdjust="spacing" textLength="19.5127" x="198.2666" y="181.6534">0..*</text></g><!--link Concept to Concept--><g class="link" data-entity-1="ent0002" data-entity-2="ent0002" data-link-type="dependency" data-source-line="32" id="lnk9"><path codeLine="32" d="M190.06,148.1194 C282.31,138.1794 395,144.6694 395,167.6094 C395,190.5494 288.2755,197.6822 196.0255,187.7422" fill="none" id="Concept-to-Concept-3" style="stroke:#404040;stroke-width:1.2;"/><polygon fill="#404040" points="190.06,187.0994,198.5797,192.0405,195.0312,187.635,199.4367,184.0866,190.06,187.0994" style="stroke:#404040;stroke-width:1.2;"/><text fill="#000000" font-family="sans-serif" font-size="13" lengthAdjust="spacing" textLength="66.4727" x="401" y="173.1045">exactMatch</text><text fill="#000000" font-family="sans-serif" font-size="13" lengthAdjust="spacing" textLength="19.5127" x="198.1263" y="202.7829">0..*</text></g><!--link Concept to Concept--><g class="link" data-entity-1="ent0002" data-entity-2="ent0002" data-link-type="dependency" data-source-line="33" id="lnk10"><path codeLine="33" d="M190.37,145.6494 C308.52,129.9394 473,137.2594 473,167.6094 C473,197.9594 314.4677,206.0702 196.3177,190.3602" fill="none" id="Concept-to-Concept-4" style="stroke:#404040;stroke-width:1.2;"/><polygon fill="#404040" points="190.37,189.5694,198.7643,194.7207,195.3264,190.2284,199.8187,186.7905,190.37,189.5694" style="stroke:#404040;stroke-width:1.2;"/><text fill="#000000" font-family="sans-serif" font-size="13" lengthAdjust="spacing" textLength="65.749" x="479" y="173.1045">closeMatch</text><text fill="#000000" font-family="sans-serif" font-size="13" lengthAdjust="spacing" textLength="19.5127" x="197.6776" y="191.5055">0..*</text></g><?plantuml-src XP8nJyCm48Nt_8fJke5IDHLJXP2WIYKaO6ctgiFLkTHM7LzaMoe5yTzn6W99rPHaSTxxVBxudLTU4ypP2Afy95LE89GLcferbPK_GadbbgoBt5wP2YsMu2JcV51c1mLgHntdqLe-hAGIUqFEGJgUTaoXCMYV4JJOd3LR6DrDwZU8JsnpikVgWerVgW-2T1fzHL5J8_vfEGPqRVimMcIBR9wT3hYjB1Klk2KDCt3Urhskq_7uPbERgFsvDsczyECvcK7Ri4Uls5poSYgKKMVkxw5ES4Llx6cWB5tkndcsnw5jGgBP3HQbN8ND2lKWy8vbfIzQ8NxZLQ781lVvxsETRa8C_HIMGb99tImQ1KRPwOdwQbnVIGptIV8RtGmakXLNxIIsUf8yj7Y_nWoKQPPzTj9b0xMrZ66ehaC6wt7yZxAaqLD-7GetAlmhUY6lSqApeuRx1W00?></g></svg>