<svg xmlns="http://www.w3.org/2000/svg" xmlns:xlink="http://www.w3.org/1999/xlink" contentStyleType="text/css" data-diagram-type="CLASS" height="656px" preserveAspectRatio="none" style="width:725px;height:656px;background:#FFFFFF;" version="1.1" viewBox="0 0 725 656" width="725px" zoomAndPan="magnify"><?plantuml 1.2026.3?><defs/><g><g class="title" data-source-line="1"><text fill="#000000" font-family="sans-serif" font-size="14" font-weight="700" lengthAdjust="spacing" textLength="56" x="331.4994" y="24.5332">Concept</text></g><!--class Concept--><g class="entity" data-qualified-name="Concept" data-source-line="16" id="ent0002"><rect fill="#FEFECE" height="206.6719" rx="2.5" ry="2.5" style="stroke:#404040;stroke-width:0.5;" width="354.7969" x="45.95" y="45.6094"/><text fill="#000000" font-family="sans-serif" font-size="30" lengthAdjust="spacing" textLength="111.7383" x="167.4793" y="81.752">Concept</text><line style="stroke:#404040;stroke-width:0.5;" x1="46.95" x2="399.7469" y1="93.3438" y2="93.3438"/><g data-visibility-modifier="PUBLIC_FIELD"><ellipse cx="56.95" cy="117.7109" fill="none" rx="3" ry="3" style="stroke:#038048;stroke-width:1;"/></g><text fill="#000000" font-family="sans-serif" font-size="30" lengthAdjust="spacing" textLength="321.7969" x="72.95" y="128.4863">identifier : XsdAnyUri [1]</text><g data-visibility-modifier="PUBLIC_FIELD"><ellipse cx="56.95" cy="155.4453" fill="none" rx="3" ry="3" style="stroke:#038048;stroke-width:1;"/></g><text fill="#000000" font-family="sans-serif" font-size="30" lengthAdjust="spacing" textLength="265.1514" x="72.95" y="166.2207">prefLabel : string [1]</text><g data-visibility-modifier="PUBLIC_FIELD"><ellipse cx="56.95" cy="193.1797" fill="none" rx="3" ry="3" style="stroke:#038048;stroke-width:1;"/></g><text fill="#000000" font-family="sans-serif" font-size="30" lengthAdjust="spacing" textLength="246.8115" x="72.95" y="203.9551">notation : string [1]</text><g data-visibility-modifier="PUBLIC_FIELD"><ellipse cx="56.95" cy="230.9141" fill="none" rx="3" ry="3" style="stroke:#038048;stroke-width:1;"/></g><text fill="#000000" font-family="sans-serif" font-size="30" lengthAdjust="spacing" textLength="293.4961" x="72.95" y="241.6895">definition : string [0..1]</text></g><!--class ConceptScheme--><g class="entity" data-qualified-name="ConceptScheme" data-source-line="22" id="ent0003"><rect fill="#EEEEEE" height="47.7344" rx="2.5" ry="2.5" style="stroke:#404040;stroke-width:0.5;" width="227.792" x="15.45" y="572.1094"/><text fill="#000000" font-family="sans-serif" font-size="30" lengthAdjust="spacing" textLength="221.792" x="18.45" y="608.252">ConceptScheme</text></g><!--class XsdAnyUri--><g class="entity" data-qualified-name="XsdAnyUri" data-source-line="27" id="ent0008"><rect fill="#FAE5D3" height="93.0156" rx="2.5" ry="2.5" style="stroke:#404040;stroke-width:0.5;" width="192.1426" x="408.45" y="549.6094"/><text fill="#000000" font-family="sans-serif" font-size="36" font-style="italic" lengthAdjust="spacing" textLength="190.1426" x="409.45" y="591.9805">&#171;dataType&#187;</text><text fill="#000000" font-family="sans-serif" font-size="30" lengthAdjust="spacing" textLength="141.709" x="433.6668" y="631.0332">XsdAnyUri</text></g><!--reverse link ConceptScheme to Concept--><g class="link" data-entity-1="ent0003" data-entity-2="ent0002" data-link-type="composition" data-source-line="23" id="lnk4"><path codeLine="23" d="M147.0632,561.1597 C163.3032,529.0297 186.11,479.4894 199.45,424.6094 C213.03,368.7094 219.15,304.7594 221.82,252.6594" fill="none" id="ConceptScheme-backto-Concept" style="stroke:#404040;stroke-width:1.2;"/><polygon fill="#404040" points="141.65,571.8694,147.9265,568.3189,147.0632,561.1597,140.7867,564.7101,141.65,571.8694" style="stroke:#404040;stroke-width:1.2;"/><text fill="#000000" font-family="sans-serif" font-size="36" lengthAdjust="spacing" textLength="254.1621" x="210.45" y="415.9805">hasTopConcept</text><text fill="#000000" font-family="sans-serif" font-size="36" lengthAdjust="spacing" textLength="54.0352" x="166.0826" y="297.7302">1..*</text></g><!--link Concept to ConceptScheme--><g class="link" data-entity-1="ent0002" data-entity-2="ent0003" data-link-type="dependency" data-source-line="24" id="lnk5"><path codeLine="24" d="M111.22,252.8194 C79.51,288.8294 49.12,331.8194 32.45,377.6094 C6,450.2594 65.8696,528.4305 102.2596,567.6605" fill="none" id="Concept-to-ConceptScheme" style="stroke:#404040;stroke-width:1.2;"/><polygon fill="#404040" points="106.34,572.0594,103.1519,562.7408,102.9396,568.3936,97.2868,568.1813,106.34,572.0594" style="stroke:#404040;stroke-width:1.2;"/><text fill="#000000" font-family="sans-serif" font-size="36" lengthAdjust="spacing" textLength="160.084" x="33.45" y="415.9805">inScheme</text><text fill="#000000" font-family="sans-serif" font-size="36" lengthAdjust="spacing" textLength="54.0352" x="43.4358" y="556.1875">1..*</text></g><!--link Concept to Concept--><g class="link" data-entity-1="ent0002" data-entity-2="ent0002" data-link-type="dependency" data-source-line="25" id="lnk6"><path codeLine="25" d="M401.19,131.9594 C413.47,135.8894 420.95,141.5994 420.95,149.1094 C420.95,156.6194 419.1845,160.5006 406.9045,164.4306" fill="none" id="Concept-to-Concept" style="stroke:#404040;stroke-width:1.2;"/><polygon fill="#404040" points="401.19,166.2594,410.981,167.3258,405.9521,164.7354,408.5425,159.7065,401.19,166.2594" style="stroke:#404040;stroke-width:1.2;"/><text fill="#000000" font-family="sans-serif" font-size="36" lengthAdjust="spacing" textLength="124.084" x="426.95" y="163.9805">broader</text><text fill="#000000" font-family="sans-serif" font-size="36" lengthAdjust="spacing" textLength="54.0352" x="408.5521" y="205.0663">0..*</text></g><!--link Concept to Concept--><g class="link" data-entity-1="ent0002" data-entity-2="ent0002" data-link-type="dependency" data-source-line="26" id="lnk7"><path codeLine="26" d="M401.16,102.1094 C481.93,99.6694 556.95,115.3294 556.95,149.1094 C556.95,182.8894 487.9273,198.7305 407.1573,196.2905" fill="none" id="Concept-to-Concept-1" style="stroke:#404040;stroke-width:1.2;"/><polygon fill="#404040" points="401.16,196.1094,410.0351,200.3793,406.1577,196.2604,410.2767,192.383,401.16,196.1094" style="stroke:#404040;stroke-width:1.2;"/><text fill="#000000" font-family="sans-serif" font-size="36" lengthAdjust="spacing" textLength="142.0488" x="562.95" y="163.9805">narrower</text><text fill="#000000" font-family="sans-serif" font-size="36" lengthAdjust="spacing" textLength="54.0352" x="408.521" y="235.9891">0..*</text></g><!--link Concept to XsdAnyUri--><g class="link" data-entity-1="ent0002" data-entity-2="ent0008" data-link-type="dependency" data-source-line="28" id="lnk9"><path codeLine="28" d="M366.88,252.6294 C406.37,287.8494 445.24,330.4294 470.45,377.6094 C499.36,431.7094 505.3174,497.4697 505.7974,543.4797" fill="none" id="Concept-to-XsdAnyUri" style="stroke:#404040;stroke-width:1.2;stroke-dasharray:7,7;"/><polygon fill="#404040" points="505.86,549.4794,509.7659,540.4381,505.8078,544.4796,501.7663,540.5216,505.86,549.4794" style="stroke:#404040;stroke-width:1.2;"/><text fill="#000000" font-family="sans-serif" font-size="36" lengthAdjust="spacing" textLength="136.0723" x="488.45" y="415.9805">identifier</text></g><?plantuml-src VL51Ri8m4Bpx5QjmeqeKeFI0K2HAmwatg5Ifwi59DisAn8vi8qGh_bwJX61IgVR5cXdFxiuQCYN2MeeKQyCAoX1IKcc9xHkhsfoWmYf1fPdUawYvuXNeWcVoIE8BSbvgT9YLKlAuAoZT2zGQ9i7K8HKNUuqrJEUXWmgPOOEwO8OvFvHc8uNPqZV2xCaXqv9Rxny6RRcrBAM2qMDukHPybYf3DKHTA_lH64N9mU0D3jcPiTRQwnBnWEjhEZ3Qn9ju7JTr7smwmb1Eg601xpfRYTER8lYOV5xOMc7-oXCiBQbj8HjKnmXfk24f_X1sO18qeC8WiEnvqDKsBR12jxSMWL7S77QFZdqVl4aGZBr-b0KKNEzaVLty5VVzQ23jF1P0edtUQyE1RQ8ajzd_BnByiZMhwiRgusj6keMvN6RSyDsfnYYowQ_Y-SkiTmw2o97Q_lg5i5y0?></g></svg>