<svg xmlns="http://www.w3.org/2000/svg" xmlns:xlink="http://www.w3.org/1999/xlink" contentStyleType="text/css" data-diagram-type="CLASS" height="497px" preserveAspectRatio="none" style="width:1296px;height:497px;background:#FFFFFF;" version="1.1" viewBox="0 0 1296 497" width="1296px" zoomAndPan="magnify"><?plantuml 1.2026.3?><defs/><g><g class="title" data-source-line="1"><text fill="#000000" font-family="sans-serif" font-size="14" font-weight="700" lengthAdjust="spacing" textLength="71.5723" x="608.7178" y="24.5332">XsdAnyUri</text></g><!--class XsdAnyUri--><g class="entity" data-qualified-name="XsdAnyUri" data-source-line="16" id="ent0002"><rect fill="#FAE5D3" height="93.0156" rx="2.5" ry="2.5" style="stroke:#404040;stroke-width:0.5;" width="192.1426" x="588" y="390.6094"/><text fill="#000000" font-family="sans-serif" font-size="36" font-style="italic" lengthAdjust="spacing" textLength="190.1426" x="589" y="432.9805">&#171;dataType&#187;</text><text fill="#000000" font-family="sans-serif" font-size="30" lengthAdjust="spacing" textLength="141.709" x="613.2168" y="472.0332">XsdAnyUri</text></g><!--class ConceptScheme--><g class="entity" data-qualified-name="ConceptScheme" data-source-line="17" id="ent0003"><rect fill="#EEEEEE" height="47.7344" rx="2.5" ry="2.5" style="stroke:#404040;stroke-width:0.5;" width="227.792" x="7" y="45.6094"/><text fill="#000000" font-family="sans-serif" font-size="30" lengthAdjust="spacing" textLength="221.792" x="10" y="81.752">ConceptScheme</text></g><!--class Concept--><g class="entity" data-qualified-name="Concept" data-source-line="20" id="ent0006"><rect fill="#EEEEEE" height="47.7344" rx="2.5" ry="2.5" style="stroke:#404040;stroke-width:0.5;" width="117.7383" x="273" y="45.6094"/><text fill="#000000" font-family="sans-serif" font-size="30" lengthAdjust="spacing" textLength="111.7383" x="276" y="81.752">Concept</text></g><!--class Identifier--><g class="entity" data-qualified-name="Identifier" data-source-line="22" id="ent0008"><rect fill="#EEEEEE" height="47.7344" rx="2.5" ry="2.5" style="stroke:#404040;stroke-width:0.5;" width="121.0635" x="470.5" y="45.6094"/><text fill="#000000" font-family="sans-serif" font-size="30" lengthAdjust="spacing" textLength="115.0635" x="473.5" y="81.752">Identifier</text></g><!--class CatalogRecord--><g class="entity" data-qualified-name="CatalogRecord" data-source-line="25" id="ent0011"><rect fill="#EEEEEE" height="47.7344" rx="2.5" ry="2.5" style="stroke:#404040;stroke-width:0.5;" width="206.1123" x="717" y="45.6094"/><text fill="#000000" font-family="sans-serif" font-size="30" lengthAdjust="spacing" textLength="200.1123" x="720" y="81.752">CatalogRecord</text></g><!--class Reference--><g class="entity" data-qualified-name="Reference" data-source-line="28" id="ent0014"><rect fill="#EEEEEE" height="47.7344" rx="2.5" ry="2.5" style="stroke:#404040;stroke-width:0.5;" width="144.4131" x="1094" y="45.6094"/><text fill="#000000" font-family="sans-serif" font-size="30" lengthAdjust="spacing" textLength="138.4131" x="1097" y="81.752">Reference</text></g><!--link ConceptScheme to XsdAnyUri--><g class="link" data-entity-1="ent0003" data-entity-2="ent0002" data-link-type="dependency" data-source-line="18" id="lnk4"><path codeLine="18" d="M109.58,93.7394 C91.88,133.2594 63.66,214.4294 102,265.6094 C160.35,343.5094 432.0267,396.8533 581.7767,421.0233" fill="none" id="ConceptScheme-to-XsdAnyUri" style="stroke:#404040;stroke-width:1.2;stroke-dasharray:7,7;"/><polygon fill="#404040" points="587.7,421.9794,579.4523,416.5964,582.7639,421.1827,578.1776,424.4942,587.7,421.9794" style="stroke:#404040;stroke-width:1.2;"/><text fill="#000000" font-family="sans-serif" font-size="36" lengthAdjust="spacing" textLength="136.0723" x="103" y="256.9805">identifier</text></g><!--link ConceptScheme to XsdAnyUri--><g class="link" data-entity-1="ent0003" data-entity-2="ent0002" data-link-type="dependency" data-source-line="19" id="lnk5"><path codeLine="19" d="M140.02,93.8494 C163.77,122.9294 205.59,174.2894 241,218.6094 C257.59,239.3794 256.85,249.5094 278,265.6094 C372.13,337.2794 495.065,382.8687 582.135,409.0987" fill="none" id="ConceptScheme-to-XsdAnyUri-1" style="stroke:#404040;stroke-width:1.2;stroke-dasharray:7,7;"/><polygon fill="#404040" points="587.88,410.8294,580.4163,404.4034,583.0925,409.3871,578.1087,412.0633,587.88,410.8294" style="stroke:#404040;stroke-width:1.2;"/><text fill="#000000" font-family="sans-serif" font-size="36" lengthAdjust="spacing" textLength="40.0078" x="279" y="256.9805">url</text></g><!--link Concept to XsdAnyUri--><g class="link" data-entity-1="ent0006" data-entity-2="ent0002" data-link-type="dependency" data-source-line="21" id="lnk7"><path codeLine="21" d="M326.44,93.6094 C318.4,132.5794 308.07,212.4894 343,265.6094 C398.19,349.5294 501.9878,392.2675 582.0878,414.4575" fill="none" id="Concept-to-XsdAnyUri" style="stroke:#404040;stroke-width:1.2;stroke-dasharray:7,7;"/><polygon fill="#404040" points="587.87,416.0594,580.2646,409.8018,583.0515,414.7245,578.1288,417.5114,587.87,416.0594" style="stroke:#404040;stroke-width:1.2;"/><text fill="#000000" font-family="sans-serif" font-size="36" lengthAdjust="spacing" textLength="136.0723" x="344" y="256.9805">identifier</text></g><!--link Identifier to XsdAnyUri--><g class="link" data-entity-1="ent0008" data-entity-2="ent0002" data-link-type="dependency" data-source-line="23" id="lnk9"><path codeLine="23" d="M518.26,93.8594 C499.45,131.4894 469.12,207.4194 495,265.6094 C518.16,317.6994 561.0829,357.1085 602.8229,386.8385" fill="none" id="Identifier-to-XsdAnyUri" style="stroke:#404040;stroke-width:1.2;stroke-dasharray:7,7;"/><polygon fill="#404040" points="607.71,390.3194,602.7,381.84,603.6374,387.4186,598.0588,388.3561,607.71,390.3194" style="stroke:#404040;stroke-width:1.2;"/><text fill="#000000" font-family="sans-serif" font-size="36" lengthAdjust="spacing" textLength="162.0879" x="496" y="256.9805">propertyId</text></g><!--link Identifier to XsdAnyUri--><g class="link" data-entity-1="ent0008" data-entity-2="ent0002" data-link-type="dependency" data-source-line="24" id="lnk10"><path codeLine="24" d="M559.47,93.6494 C590.06,120.2294 637.34,166.9494 660,218.6094 C684.34,274.0994 687.7953,338.8707 686.8453,384.3507" fill="none" id="Identifier-to-XsdAnyUri-1" style="stroke:#404040;stroke-width:1.2;stroke-dasharray:7,7;"/><polygon fill="#404040" points="686.72,390.3494,690.9071,381.4349,686.8244,385.3505,682.9088,381.2678,686.72,390.3494" style="stroke:#404040;stroke-width:1.2;"/><text fill="#000000" font-family="sans-serif" font-size="36" lengthAdjust="spacing" textLength="40.0078" x="676" y="256.9805">url</text></g><!--link CatalogRecord to XsdAnyUri--><g class="link" data-entity-1="ent0011" data-entity-2="ent0002" data-link-type="dependency" data-source-line="26" id="lnk12"><path codeLine="26" d="M807.99,93.7594 C793.35,122.5294 768.42,173.3694 751,218.6094 C728.57,276.8694 709.8905,340.274 697.6705,384.724" fill="none" id="CatalogRecord-to-XsdAnyUri" style="stroke:#404040;stroke-width:1.2;stroke-dasharray:7,7;"/><polygon fill="#404040" points="696.08,390.5094,702.3226,382.8917,697.4054,385.6882,694.6088,380.771,696.08,390.5094" style="stroke:#404040;stroke-width:1.2;"/><text fill="#000000" font-family="sans-serif" font-size="36" lengthAdjust="spacing" textLength="190.0547" x="752" y="256.9805">conformsTo</text></g><!--link CatalogRecord to XsdAnyUri--><g class="link" data-entity-1="ent0011" data-entity-2="ent0002" data-link-type="dependency" data-source-line="27" id="lnk13"><path codeLine="27" d="M853.4,93.6694 C900.96,129.5194 978.79,201.1894 944,265.6094 C909.37,329.7294 844.4066,371.1226 785.5866,398.3026" fill="none" id="CatalogRecord-to-XsdAnyUri-1" style="stroke:#404040;stroke-width:1.2;stroke-dasharray:7,7;"/><polygon fill="#404040" points="780.14,400.8194,789.9878,400.6752,784.6788,398.722,786.632,393.4131,780.14,400.8194" style="stroke:#404040;stroke-width:1.2;"/><text fill="#000000" font-family="sans-serif" font-size="36" lengthAdjust="spacing" textLength="90.0879" x="954" y="256.9805">about</text></g><!--link Reference to XsdAnyUri--><g class="link" data-entity-1="ent0014" data-entity-2="ent0002" data-link-type="dependency" data-source-line="29" id="lnk15"><path codeLine="29" d="M1153.27,93.7194 C1126.26,142.4794 1064.5,252.4994 1050,265.6094 C972,336.1194 865.4459,380.6534 785.8659,407.0034" fill="none" id="Reference-to-XsdAnyUri" style="stroke:#404040;stroke-width:1.2;stroke-dasharray:7,7;"/><polygon fill="#404040" points="780.17,408.8894,789.9711,409.8577,784.9166,407.3177,787.4565,402.2631,780.17,408.8894" style="stroke:#404040;stroke-width:1.2;"/><text fill="#000000" font-family="sans-serif" font-size="36" lengthAdjust="spacing" textLength="136.0723" x="1082" y="256.9805">identifier</text></g><!--link Reference to XsdAnyUri--><g class="link" data-entity-1="ent0014" data-entity-2="ent0002" data-link-type="dependency" data-source-line="30" id="lnk16"><path codeLine="30" d="M1184.88,93.8594 C1214.1,132.8394 1263.04,212.3394 1224,265.6094 C1171.11,337.7694 926.3884,392.3997 785.9184,418.5897" fill="none" id="Reference-to-XsdAnyUri-1" style="stroke:#404040;stroke-width:1.2;stroke-dasharray:7,7;"/><polygon fill="#404040" points="780.02,419.6894,789.6007,421.972,784.9353,418.7729,788.1344,414.1076,780.02,419.6894" style="stroke:#404040;stroke-width:1.2;"/><text fill="#000000" font-family="sans-serif" font-size="36" lengthAdjust="spacing" textLength="40.0078" x="1240" y="256.9805">url</text></g><?plantuml-src XP51Ry8m38Nl-HKMt163iSE4a3e64bTWqguXSMb4cbHEAjHD--yBxMX3fK5pQJxRxxclNdcDyEbaOgeFKYnJ4a4e4XgRTymBNq6E-G79CNTIfk34St0Pb_Qip15IhXr6bOJ8dlUP4YU3pi7JQ18LYPkJmm8cit54ZPLOqnXAJ7cf_TeQlrDV2DENg2Wq3zhV31gxfTMMOFWylfm0ton9f3wDfSAWzwGEfSSEZzaFOutqeCra0Dnr2S5yBhdd-wh0nGA6wsGrUvzUPvRM22pyJcIOOprtGs2ugXzsIqUZHQJ_2Y5surMga1uqbgHxph5dt-sUpv_AfYMrK7TjjIBKbol85aY-siXxNV7E8KTjZriKuMyrcyUas_-6zWM5DQcbtEtjWqP-iAM_UcynHSAGI-tRtbhFZjn9xV-corV-0W00?></g></svg>