<svg xmlns="http://www.w3.org/2000/svg" xmlns:xlink="http://www.w3.org/1999/xlink" contentStyleType="text/css" data-diagram-type="CLASS" height="474px" preserveAspectRatio="none" style="width:1991px;height:474px;background:#FFFFFF;" version="1.1" viewBox="0 0 1991 474" width="1991px" zoomAndPan="magnify"><?plantuml 1.2026.3?><defs/><g><g class="title" data-source-line="1"><text fill="#000000" font-family="sans-serif" font-size="14" font-weight="700" lengthAdjust="spacing" textLength="50.5791" x="966.9009" y="24.5332">Dataset</text></g><!--class Dataset--><g class="entity" data-qualified-name="Dataset" data-source-line="12" id="ent0002"><rect fill="#FEFECE" height="297.2344" rx="2.5" ry="2.5" style="stroke:#404040;stroke-width:0.5;" width="302.2402" x="900.5" y="45.6094"/><text fill="#000000" font-family="sans-serif" font-size="12" lengthAdjust="spacing" textLength="41.3555" x="1030.9424" y="63.0664">Dataset</text><line style="stroke:#404040;stroke-width:0.5;" x1="901.5" x2="1201.7402" y1="70.7031" y2="70.7031"/><g data-visibility-modifier="PUBLIC_FIELD"><ellipse cx="911.5" cy="85.0078" fill="none" rx="3" ry="3" style="stroke:#038048;stroke-width:1;"/></g><text fill="#000000" font-family="sans-serif" font-size="14" lengthAdjust="spacing" textLength="276.2402" x="920.5" y="89.2363">measurementTechnique : DefinedTerm [0..*]</text><g data-visibility-modifier="PUBLIC_FIELD"><ellipse cx="911.5" cy="102.6172" fill="none" rx="3" ry="3" style="stroke:#038048;stroke-width:1;"/></g><text fill="#000000" font-family="sans-serif" font-size="14" lengthAdjust="spacing" textLength="137.7373" x="920.5" y="106.8457">identifier : Identifier [1]</text><g data-visibility-modifier="PUBLIC_FIELD"><ellipse cx="911.5" cy="120.2266" fill="none" rx="3" ry="3" style="stroke:#038048;stroke-width:1;"/></g><text fill="#000000" font-family="sans-serif" font-size="14" lengthAdjust="spacing" textLength="100.3789" x="920.5" y="124.4551">name : string [1]</text><g data-visibility-modifier="PUBLIC_FIELD"><ellipse cx="911.5" cy="137.8359" fill="none" rx="3" ry="3" style="stroke:#038048;stroke-width:1;"/></g><text fill="#000000" font-family="sans-serif" font-size="14" lengthAdjust="spacing" textLength="148.627" x="920.5" y="142.0645">description : string [0..1]</text><g data-visibility-modifier="PUBLIC_FIELD"><ellipse cx="911.5" cy="155.4453" fill="none" rx="3" ry="3" style="stroke:#038048;stroke-width:1;"/></g><text fill="#000000" font-family="sans-serif" font-size="14" lengthAdjust="spacing" textLength="216.3301" x="920.5" y="159.6738">additionalType : DefinedTerm [0..*]</text><g data-visibility-modifier="PUBLIC_FIELD"><ellipse cx="911.5" cy="173.0547" fill="none" rx="3" ry="3" style="stroke:#038048;stroke-width:1;"/></g><text fill="#000000" font-family="sans-serif" font-size="14" lengthAdjust="spacing" textLength="148.6201" x="920.5" y="177.2832">sameAs : Identifier [0..*]</text><g data-visibility-modifier="PUBLIC_FIELD"><ellipse cx="911.5" cy="190.6641" fill="none" rx="3" ry="3" style="stroke:#038048;stroke-width:1;"/></g><text fill="#000000" font-family="sans-serif" font-size="14" lengthAdjust="spacing" textLength="126.0547" x="920.5" y="194.8926">version : string [0..1]</text><g data-visibility-modifier="PUBLIC_FIELD"><ellipse cx="911.5" cy="208.2734" fill="none" rx="3" ry="3" style="stroke:#038048;stroke-width:1;"/></g><text fill="#000000" font-family="sans-serif" font-size="14" lengthAdjust="spacing" textLength="206.2881" x="920.5" y="212.502">inLanguage : XsdLanguage [0..1]</text><g data-visibility-modifier="PUBLIC_FIELD"><ellipse cx="911.5" cy="225.8828" fill="none" rx="3" ry="3" style="stroke:#038048;stroke-width:1;"/></g><text fill="#000000" font-family="sans-serif" font-size="14" lengthAdjust="spacing" textLength="164.9854" x="920.5" y="230.1113">dateModified : XsdDate [1]</text><g data-visibility-modifier="PUBLIC_FIELD"><ellipse cx="911.5" cy="243.4922" fill="none" rx="3" ry="3" style="stroke:#038048;stroke-width:1;"/></g><text fill="#000000" font-family="sans-serif" font-size="14" lengthAdjust="spacing" textLength="189.123" x="920.5" y="247.7207">datePublished : XsdDate [0..1]</text><g data-visibility-modifier="PUBLIC_FIELD"><ellipse cx="911.5" cy="261.1016" fill="none" rx="3" ry="3" style="stroke:#038048;stroke-width:1;"/></g><text fill="#000000" font-family="sans-serif" font-size="14" lengthAdjust="spacing" textLength="128.3789" x="920.5" y="265.3301">url : XsdAnyUri [0..1]</text><g data-visibility-modifier="PUBLIC_FIELD"><ellipse cx="911.5" cy="278.7109" fill="none" rx="3" ry="3" style="stroke:#038048;stroke-width:1;"/></g><text fill="#000000" font-family="sans-serif" font-size="14" lengthAdjust="spacing" textLength="152.5234" x="920.5" y="282.9395">license : Reference [0..*]</text><g data-visibility-modifier="PUBLIC_FIELD"><ellipse cx="911.5" cy="296.3203" fill="none" rx="3" ry="3" style="stroke:#038048;stroke-width:1;"/></g><text fill="#000000" font-family="sans-serif" font-size="14" lengthAdjust="spacing" textLength="231.8887" x="920.5" y="300.5488">conditionsOfAccess : Reference [0..*]</text><g data-visibility-modifier="PUBLIC_FIELD"><ellipse cx="911.5" cy="313.9297" fill="none" rx="3" ry="3" style="stroke:#038048;stroke-width:1;"/></g><text fill="#000000" font-family="sans-serif" font-size="14" lengthAdjust="spacing" textLength="232.6816" x="920.5" y="318.1582">publishingPrinciples : Reference [0..*]</text><g data-visibility-modifier="PUBLIC_FIELD"><ellipse cx="911.5" cy="331.5391" fill="none" rx="3" ry="3" style="stroke:#038048;stroke-width:1;"/></g><text fill="#000000" font-family="sans-serif" font-size="14" lengthAdjust="spacing" textLength="184.3994" x="920.5" y="335.7676">keywords : DefinedTerm [0..*]</text></g><!--class VariableMeasured--><g class="entity" data-qualified-name="VariableMeasured" data-source-line="29" id="ent0003"><rect fill="#EEEEEE" height="25.0938" rx="2.5" ry="2.5" style="stroke:#404040;stroke-width:0.5;" width="103.3887" x="7" y="428.1094"/><text fill="#000000" font-family="sans-serif" font-size="12" lengthAdjust="spacing" textLength="97.3887" x="10" y="445.5664">VariableMeasured</text></g><!--class SpatialExtent--><g class="entity" data-qualified-name="SpatialExtent" data-source-line="31" id="ent0005"><rect fill="#EEEEEE" height="25.0938" rx="2.5" ry="2.5" style="stroke:#404040;stroke-width:0.5;" width="76.7109" x="165" y="428.1094"/><text fill="#000000" font-family="sans-serif" font-size="12" lengthAdjust="spacing" textLength="70.7109" x="168" y="445.5664">SpatialExtent</text></g><!--class TemporalExtent--><g class="entity" data-qualified-name="TemporalExtent" data-source-line="33" id="ent0007"><rect fill="#EEEEEE" height="25.0938" rx="2.5" ry="2.5" style="stroke:#404040;stroke-width:0.5;" width="90.7031" x="293" y="428.1094"/><text fill="#000000" font-family="sans-serif" font-size="12" lengthAdjust="spacing" textLength="84.7031" x="296" y="445.5664">TemporalExtent</text></g><!--class QualityMeasure--><g class="entity" data-qualified-name="QualityMeasure" data-source-line="35" id="ent0009"><rect fill="#EEEEEE" height="25.0938" rx="2.5" ry="2.5" style="stroke:#404040;stroke-width:0.5;" width="90.0352" x="441.5" y="428.1094"/><text fill="#000000" font-family="sans-serif" font-size="12" lengthAdjust="spacing" textLength="84.0352" x="444.5" y="445.5664">QualityMeasure</text></g><!--class AbstractDistribution--><g class="entity" data-qualified-name="AbstractDistribution" data-source-line="37" id="ent0011"><rect fill="#EEEEEE" height="25.0938" rx="2.5" ry="2.5" style="stroke:#404040;stroke-width:0.5;" width="110.0391" x="613.5" y="428.1094"/><text fill="#000000" font-family="sans-serif" font-size="12" font-style="italic" lengthAdjust="spacing" textLength="104.0391" x="616.5" y="445.5664">AbstractDistribution</text></g><!--class Agent--><g class="entity" data-qualified-name="Agent" data-source-line="39" id="ent0013"><rect fill="#EEEEEE" height="25.0938" rx="2.5" ry="2.5" style="stroke:#404040;stroke-width:0.5;" width="37.3594" x="798" y="428.1094"/><text fill="#000000" font-family="sans-serif" font-size="12" font-style="italic" lengthAdjust="spacing" textLength="31.3594" x="801" y="445.5664">Agent</text></g><!--class Contributor--><g class="entity" data-qualified-name="Contributor" data-source-line="41" id="ent0015"><rect fill="#EEEEEE" height="25.0938" rx="2.5" ry="2.5" style="stroke:#404040;stroke-width:0.5;" width="65.3613" x="908" y="428.1094"/><text fill="#000000" font-family="sans-serif" font-size="12" lengthAdjust="spacing" textLength="59.3613" x="911" y="445.5664">Contributor</text></g><!--class MonetaryGrant--><g class="entity" data-qualified-name="MonetaryGrant" data-source-line="44" id="ent0018"><rect fill="#EEEEEE" height="25.0938" rx="2.5" ry="2.5" style="stroke:#404040;stroke-width:0.5;" width="86.0332" x="1008.5" y="428.1094"/><text fill="#000000" font-family="sans-serif" font-size="12" lengthAdjust="spacing" textLength="80.0332" x="1011.5" y="445.5664">MonetaryGrant</text></g><!--class ProvActivity--><g class="entity" data-qualified-name="ProvActivity" data-source-line="46" id="ent0020"><rect fill="#EEEEEE" height="25.0938" rx="2.5" ry="2.5" style="stroke:#404040;stroke-width:0.5;" width="68.6777" x="1130" y="428.1094"/><text fill="#000000" font-family="sans-serif" font-size="12" lengthAdjust="spacing" textLength="62.6777" x="1133" y="445.5664">ProvActivity</text></g><!--class DerivedFrom--><g class="entity" data-qualified-name="DerivedFrom" data-source-line="48" id="ent0022"><rect fill="#EEEEEE" height="25.0938" rx="2.5" ry="2.5" style="stroke:#404040;stroke-width:0.5;" width="75.3457" x="1239" y="428.1094"/><text fill="#000000" font-family="sans-serif" font-size="12" lengthAdjust="spacing" textLength="69.3457" x="1242" y="445.5664">DerivedFrom</text></g><!--class CatalogRecord--><g class="entity" data-qualified-name="CatalogRecord" data-source-line="50" id="ent0024"><rect fill="#EEEEEE" height="25.0938" rx="2.5" ry="2.5" style="stroke:#404040;stroke-width:0.5;" width="86.0449" x="1351.5" y="428.1094"/><text fill="#000000" font-family="sans-serif" font-size="12" lengthAdjust="spacing" textLength="80.0449" x="1354.5" y="445.5664">CatalogRecord</text></g><!--class DefinedTerm--><g class="entity" data-qualified-name="DefinedTerm" data-source-line="52" id="ent0026"><rect fill="#EEEEEE" height="25.0938" rx="2.5" ry="2.5" style="stroke:#404040;stroke-width:0.5;" width="75.3574" x="1473" y="428.1094"/><text fill="#000000" font-family="sans-serif" font-size="12" lengthAdjust="spacing" textLength="69.3574" x="1476" y="445.5664">DefinedTerm</text></g><!--class Reference--><g class="entity" data-qualified-name="Reference" data-source-line="54" id="ent0028"><rect fill="#EEEEEE" height="25.0938" rx="2.5" ry="2.5" style="stroke:#404040;stroke-width:0.5;" width="61.3652" x="1583" y="428.1094"/><text fill="#000000" font-family="sans-serif" font-size="12" lengthAdjust="spacing" textLength="55.3652" x="1586" y="445.5664">Reference</text></g><!--class XsdLanguage--><g class="entity" data-qualified-name="XsdLanguage" data-source-line="56" id="ent0030"><rect fill="#FAE5D3" height="40.1875" rx="2.5" ry="2.5" style="stroke:#404040;stroke-width:0.5;" width="80.0684" x="1679.5" y="420.6094"/><text fill="#000000" font-family="sans-serif" font-size="12" font-style="italic" lengthAdjust="spacing" textLength="63.3809" x="1687.8438" y="438.0664">&#171;dataType&#187;</text><text fill="#000000" font-family="sans-serif" font-size="12" lengthAdjust="spacing" textLength="74.0684" x="1682.5" y="453.1602">XsdLanguage</text></g><!--class XsdDate--><g class="entity" data-qualified-name="XsdDate" data-source-line="58" id="ent0032"><rect fill="#FAE5D3" height="40.1875" rx="2.5" ry="2.5" style="stroke:#404040;stroke-width:0.5;" width="65.3809" x="1795" y="420.6094"/><text fill="#000000" font-family="sans-serif" font-size="12" font-style="italic" lengthAdjust="spacing" textLength="63.3809" x="1796" y="438.0664">&#171;dataType&#187;</text><text fill="#000000" font-family="sans-serif" font-size="12" lengthAdjust="spacing" textLength="46.0254" x="1804.6777" y="453.1602">XsdDate</text></g><!--class XsdAnyUri--><g class="entity" data-qualified-name="XsdAnyUri" data-source-line="60" id="ent0034"><rect fill="#FAE5D3" height="40.1875" rx="2.5" ry="2.5" style="stroke:#404040;stroke-width:0.5;" width="65.3809" x="1911" y="420.6094"/><text fill="#000000" font-family="sans-serif" font-size="12" font-style="italic" lengthAdjust="spacing" textLength="63.3809" x="1912" y="438.0664">&#171;dataType&#187;</text><text fill="#000000" font-family="sans-serif" font-size="12" lengthAdjust="spacing" textLength="56.6836" x="1915.3486" y="453.1602">XsdAnyUri</text></g><!--link Dataset to VariableMeasured--><g class="link" data-entity-1="ent0002" data-entity-2="ent0003" data-link-type="dependency" data-source-line="30" id="lnk4"><path codeLine="30" d="M900.34,201.7394 C713.43,214.9494 389.41,254.4494 139.5,372.6094 C110.46,386.3394 87.1755,408.4839 72.8855,423.7139" fill="none" id="Dataset-to-VariableMeasured" style="stroke:#404040;stroke-width:1.2;"/><polygon fill="#404040" points="68.78,428.0894,77.8552,424.2631,72.2012,424.4431,72.0212,418.7891,68.78,428.0894" style="stroke:#404040;stroke-width:1.2;"/><text fill="#000000" font-family="sans-serif" font-size="13" lengthAdjust="spacing" textLength="103.3335" x="140.5" y="387.1045">variableMeasured</text><text fill="#000000" font-family="sans-serif" font-size="13" lengthAdjust="spacing" textLength="19.5127" x="50.1273" y="417.1732">0..*</text></g><!--link Dataset to SpatialExtent--><g class="link" data-entity-1="ent0002" data-entity-2="ent0005" data-link-type="dependency" data-source-line="32" id="lnk6"><path codeLine="32" d="M900.44,206.6394 C738.19,224.1394 476.73,267.3794 276.5,372.6094 C249.85,386.6094 229.3766,408.183 216.6566,423.343" fill="none" id="Dataset-to-SpatialExtent" style="stroke:#404040;stroke-width:1.2;"/><polygon fill="#404040" points="212.8,427.9394,221.6491,423.6159,216.0138,424.1091,215.5206,418.4737,212.8,427.9394" style="stroke:#404040;stroke-width:1.2;"/><text fill="#000000" font-family="sans-serif" font-size="13" lengthAdjust="spacing" textLength="93.9453" x="277.5" y="387.1045">spatialCoverage</text><text fill="#000000" font-family="sans-serif" font-size="13" lengthAdjust="spacing" textLength="19.5127" x="193.8791" y="417.3464">0..*</text></g><!--link Dataset to TemporalExtent--><g class="link" data-entity-1="ent0002" data-entity-2="ent0007" data-link-type="dependency" data-source-line="34" id="lnk8"><path codeLine="34" d="M900.3,212.1794 C761.99,233.1694 555.88,278.3794 400.5,372.6094 C376.79,386.9894 359.9451,408.0931 349.4951,423.1231" fill="none" id="Dataset-to-TemporalExtent" style="stroke:#404040;stroke-width:1.2;"/><polygon fill="#404040" points="346.07,428.0494,354.4919,422.9434,348.9243,423.9441,347.9235,418.3765,346.07,428.0494" style="stroke:#404040;stroke-width:1.2;"/><text fill="#000000" font-family="sans-serif" font-size="13" lengthAdjust="spacing" textLength="106.9453" x="401.5" y="387.1045">temporalCoverage</text><text fill="#000000" font-family="sans-serif" font-size="13" lengthAdjust="spacing" textLength="19.5127" x="326.4408" y="417.1167">0..*</text></g><!--link Dataset to QualityMeasure--><g class="link" data-entity-1="ent0002" data-entity-2="ent0009" data-link-type="dependency" data-source-line="36" id="lnk10"><path codeLine="36" d="M900.47,220.7794 C790.28,245.3494 641.88,291.1394 533.5,372.6094 C513.74,387.4694 501.7843,407.6984 494.4443,422.5784" fill="none" id="Dataset-to-QualityMeasure" style="stroke:#404040;stroke-width:1.2;"/><polygon fill="#404040" points="491.79,427.9594,499.3588,421.6575,494.0019,423.4752,492.1842,418.1184,491.79,427.9594" style="stroke:#404040;stroke-width:1.2;"/><text fill="#000000" font-family="sans-serif" font-size="13" lengthAdjust="spacing" textLength="140.8989" x="534.5" y="387.1045">hasQualityMeasurement</text><text fill="#000000" font-family="sans-serif" font-size="13" lengthAdjust="spacing" textLength="19.5127" x="471.2263" y="417.3743">0..*</text></g><!--link Dataset to AbstractDistribution--><g class="link" data-entity-1="ent0002" data-entity-2="ent0011" data-link-type="dependency" data-source-line="38" id="lnk12"><path codeLine="38" d="M900.12,241.6494 C829.71,269.8594 749.56,312.2794 694.5,372.6094 C679.95,388.5494 674.3449,407.6616 671.4949,422.1916" fill="none" id="Dataset-to-AbstractDistribution" style="stroke:#404040;stroke-width:1.2;"/><polygon fill="#404040" points="670.34,428.0794,675.9975,420.0176,671.3024,423.1729,668.1471,418.4778,670.34,428.0794" style="stroke:#404040;stroke-width:1.2;"/><text fill="#000000" font-family="sans-serif" font-size="13" lengthAdjust="spacing" textLength="62.8672" x="695.5" y="387.1045">distribution</text><text fill="#000000" font-family="sans-serif" font-size="13" lengthAdjust="spacing" textLength="19.5127" x="648.2779" y="417.159">0..*</text></g><!--link Dataset to Agent--><g class="link" data-entity-1="ent0002" data-entity-2="ent0013" data-link-type="dependency" data-source-line="40" id="lnk14"><path codeLine="40" d="M900.21,253.8394 C849.33,281.7194 798.23,320.5794 769.5,372.6094 C758.17,393.1294 776.1373,411.4734 793.7773,424.4534" fill="none" id="Dataset-to-Agent" style="stroke:#404040;stroke-width:1.2;"/><polygon fill="#404040" points="798.61,428.0094,793.7317,419.4536,794.5828,425.046,788.9903,425.8971,798.61,428.0094" style="stroke:#404040;stroke-width:1.2;"/><text fill="#000000" font-family="sans-serif" font-size="13" lengthAdjust="spacing" textLength="40.46" x="770.5" y="387.1045">creator</text><text fill="#000000" font-family="sans-serif" font-size="13" lengthAdjust="spacing" textLength="19.5127" x="770.5625" y="418.7234">0..*</text></g><!--link Dataset to Agent--><g class="link" data-entity-1="ent0002" data-entity-2="ent0013" data-link-type="dependency" data-source-line="43" id="lnk17"><path codeLine="43" d="M909.72,342.6294 C875.21,378.5294 847.7763,407.0621 831.7363,423.7621" fill="none" id="Dataset-to-Agent-1" style="stroke:#404040;stroke-width:1.2;"/><polygon fill="#404040" points="827.58,428.0894,836.6993,424.3693,831.0436,424.4833,830.9295,418.8276,827.58,428.0894" style="stroke:#404040;stroke-width:1.2;"/><text fill="#000000" font-family="sans-serif" font-size="13" lengthAdjust="spacing" textLength="52.7554" x="881.5" y="387.1045">publisher</text><text fill="#000000" font-family="sans-serif" font-size="13" lengthAdjust="spacing" textLength="21.6836" x="806.8861" y="417.1732">0..1</text></g><!--link Dataset to Contributor--><g class="link" data-entity-1="ent0002" data-entity-2="ent0015" data-link-type="dependency" data-source-line="42" id="lnk16"><path codeLine="42" d="M984.53,342.6294 C968.23,378.5294 955.7899,405.9258 948.2099,422.6258" fill="none" id="Dataset-to-Contributor" style="stroke:#404040;stroke-width:1.2;"/><polygon fill="#404040" points="945.73,428.0894,953.0922,421.5473,947.7965,423.5364,945.8074,418.2408,945.73,428.0894" style="stroke:#404040;stroke-width:1.2;"/><text fill="#000000" font-family="sans-serif" font-size="13" lengthAdjust="spacing" textLength="61.4199" x="971.5" y="387.1045">contributor</text><text fill="#000000" font-family="sans-serif" font-size="13" lengthAdjust="spacing" textLength="19.5127" x="924.9998" y="417.1732">0..*</text></g><!--link Dataset to MonetaryGrant--><g class="link" data-entity-1="ent0002" data-entity-2="ent0018" data-link-type="dependency" data-source-line="45" id="lnk19"><path codeLine="45" d="M1047.79,342.6994 C1047.82,358.8694 1048.03,375.0894 1048.5,390.6094 C1048.89,403.3894 1049.4101,412.0255 1050.1401,421.9555" fill="none" id="Dataset-to-MonetaryGrant" style="stroke:#404040;stroke-width:1.2;"/><polygon fill="#404040" points="1050.58,427.9394,1053.9094,418.6703,1050.2134,422.9528,1045.9309,419.2569,1050.58,427.9394" style="stroke:#404040;stroke-width:1.2;"/><text fill="#000000" font-family="sans-serif" font-size="13" lengthAdjust="spacing" textLength="42.6499" x="1049.5" y="387.1045">funding</text><text fill="#000000" font-family="sans-serif" font-size="13" lengthAdjust="spacing" textLength="19.5127" x="1027.5715" y="417.3464">0..*</text></g><!--link Dataset to ProvActivity--><g class="link" data-entity-1="ent0002" data-entity-2="ent0020" data-link-type="dependency" data-source-line="47" id="lnk21"><path codeLine="47" d="M1109.19,342.7294 C1116.61,359.0894 1124.44,375.3394 1132.5,390.6094 C1139.52,403.9094 1145.6589,413.3083 1152.5089,423.0083" fill="none" id="Dataset-to-ProvActivity" style="stroke:#404040;stroke-width:1.2;"/><polygon fill="#404040" points="1155.97,427.9094,1154.0458,418.2503,1153.0858,423.8251,1147.511,422.8651,1155.97,427.9094" style="stroke:#404040;stroke-width:1.2;"/><text fill="#000000" font-family="sans-serif" font-size="13" lengthAdjust="spacing" textLength="99.7217" x="1133.5" y="387.1045">wasGeneratedBy</text><text fill="#000000" font-family="sans-serif" font-size="13" lengthAdjust="spacing" textLength="19.5127" x="1130.0351" y="417.3046">0..*</text></g><!--link Dataset to DerivedFrom--><g class="link" data-entity-1="ent0002" data-entity-2="ent0022" data-link-type="dependency" data-source-line="49" id="lnk23"><path codeLine="49" d="M1202.62,332.0494 C1214.9,345.3194 1226.72,358.9394 1237.5,372.6094 C1251.67,390.5694 1261.5694,408.8366 1268.3994,422.7066" fill="none" id="Dataset-to-DerivedFrom" style="stroke:#404040;stroke-width:1.2;"/><polygon fill="#404040" points="1271.05,428.0894,1270.6626,418.2481,1268.8411,423.6037,1263.4855,421.7823,1271.05,428.0894" style="stroke:#404040;stroke-width:1.2;"/><text fill="#000000" font-family="sans-serif" font-size="13" lengthAdjust="spacing" textLength="98.2427" x="1251.5" y="387.1045">wasDerivedFrom</text><text fill="#000000" font-family="sans-serif" font-size="13" lengthAdjust="spacing" textLength="19.5127" x="1245.9176" y="417.1732">0..*</text></g><!--link Dataset to CatalogRecord--><g class="link" data-entity-1="ent0002" data-entity-2="ent0024" data-link-type="dependency" data-source-line="51" id="lnk25"><path codeLine="51" d="M1202.89,261.1594 C1256.61,289.8194 1314.58,327.2994 1358.5,372.6094 C1374.31,388.9194 1383.0145,407.9409 1388.4145,422.3509" fill="none" id="Dataset-to-CatalogRecord" style="stroke:#404040;stroke-width:1.2;"/><polygon fill="#404040" points="1390.52,427.9694,1391.1074,418.1381,1388.7655,423.2873,1383.6162,420.9453,1390.52,427.9694" style="stroke:#404040;stroke-width:1.2;"/><text fill="#000000" font-family="sans-serif" font-size="13" lengthAdjust="spacing" textLength="54.9136" x="1372.5" y="387.1045">subjectOf</text><text fill="#000000" font-family="sans-serif" font-size="13" lengthAdjust="spacing" textLength="7.23" x="1380.4727" y="417.0037">1</text></g><!--link Dataset to DefinedTerm--><g class="link" data-entity-1="ent0002" data-entity-2="ent0026" data-link-type="dependency" data-source-line="53" id="lnk27"><path codeLine="53" d="M1202.8,252.7694 C1275.81,283.6094 1363.06,325.0394 1435.5,372.6094 C1460.6,389.0894 1481.6647,409.3507 1495.5147,423.7107" fill="none" id="Dataset-to-DefinedTerm" style="stroke:#404040;stroke-width:1.2;"/><polygon fill="#404040" points="1499.68,428.0294,1496.3112,418.7746,1496.209,424.4305,1490.553,424.3283,1499.68,428.0294" style="stroke:#404040;stroke-width:1.2;"/><text fill="#000000" font-family="sans-serif" font-size="13" lengthAdjust="spacing" textLength="54.9072" x="1459.5" y="387.1045">keywords</text><text fill="#000000" font-family="sans-serif" font-size="13" lengthAdjust="spacing" textLength="19.5127" x="1472.33" y="417.0884">0..*</text></g><!--link Dataset to Reference--><g class="link" data-entity-1="ent0002" data-entity-2="ent0028" data-link-type="dependency" data-source-line="55" id="lnk29"><path codeLine="55" d="M1202.74,240.3394 C1297.46,271.4894 1420.46,317.1994 1522.5,372.6094 C1552.15,388.7094 1578.4645,409.5381 1595.5345,424.0181" fill="none" id="Dataset-to-Reference" style="stroke:#404040;stroke-width:1.2;"/><polygon fill="#404040" points="1600.11,427.8994,1595.8342,419.0271,1596.2971,424.665,1590.6592,425.1278,1600.11,427.8994" style="stroke:#404040;stroke-width:1.2;"/><text fill="#000000" font-family="sans-serif" font-size="13" lengthAdjust="spacing" textLength="40.4663" x="1552.5" y="387.1045">license</text><text fill="#000000" font-family="sans-serif" font-size="13" lengthAdjust="spacing" textLength="19.5127" x="1572.1261" y="417.2907">0..*</text></g><!--link Dataset to XsdLanguage--><g class="link" data-entity-1="ent0002" data-entity-2="ent0030" data-link-type="dependency" data-source-line="57" id="lnk31"><path codeLine="57" d="M1202.79,234.8994 C1315.03,266.5794 1470.62,315.0594 1601.5,372.6094 C1632.77,386.3594 1661.3699,402.8688 1684.7199,417.3388" fill="none" id="Dataset-to-XsdLanguage" style="stroke:#404040;stroke-width:1.2;stroke-dasharray:7,7;"/><polygon fill="#404040" points="1689.82,420.4994,1684.2769,412.3585,1685.5699,417.8656,1680.0628,419.1586,1689.82,420.4994" style="stroke:#404040;stroke-width:1.2;"/><text fill="#000000" font-family="sans-serif" font-size="13" lengthAdjust="spacing" textLength="67.958" x="1636.5" y="387.1045">inLanguage</text></g><!--link Dataset to XsdDate--><g class="link" data-entity-1="ent0002" data-entity-2="ent0032" data-link-type="dependency" data-source-line="59" id="lnk33"><path codeLine="59" d="M1202.58,223.7294 C1339.04,252.3494 1543.74,302.2594 1712.5,372.6094 C1743.64,385.5894 1771.6338,402.2826 1794.2738,417.0426" fill="none" id="Dataset-to-XsdDate" style="stroke:#404040;stroke-width:1.2;stroke-dasharray:7,7;"/><polygon fill="#404040" points="1799.3,420.3194,1793.9452,412.0534,1795.1115,417.5887,1789.5762,418.755,1799.3,420.3194" style="stroke:#404040;stroke-width:1.2;"/><text fill="#000000" font-family="sans-serif" font-size="13" lengthAdjust="spacing" textLength="74.439" x="1750.5" y="387.1045">dateModified</text></g><!--link Dataset to XsdAnyUri--><g class="link" data-entity-1="ent0002" data-entity-2="ent0034" data-link-type="dependency" data-source-line="61" id="lnk35"><path codeLine="61" d="M1202.86,214.6094 C1363.67,238.7094 1623.2,287.3594 1833.5,372.6094 C1864.17,385.0394 1891.2231,402.0507 1912.7431,417.1007" fill="none" id="Dataset-to-XsdAnyUri" style="stroke:#404040;stroke-width:1.2;stroke-dasharray:7,7;"/><polygon fill="#404040" points="1917.66,420.5394,1912.5771,412.1035,1913.5626,417.6739,1907.9922,418.6594,1917.66,420.5394" style="stroke:#404040;stroke-width:1.2;"/><text fill="#000000" font-family="sans-serif" font-size="13" lengthAdjust="spacing" textLength="14.4473" x="1868.5" y="387.1045">url</text></g><?plantuml-src ZLLDRzim3BtxLmZ9RKE3fjikHX4WpKSnO4MxDXi653ie4krejQLCafDbG__xAFbBJbEZoSKadzwZ98gqmcP0vjHI0pRQ20w42SqoAByXtze3oI5VWpQHUH9oIpNDYTbGhlP2fYIXcO4WCjLQxLSRmPua64F6euiWo3AAldyHAM4pbIbDXX_FtH-TLqfpqCVUfPBsGVm5Chw8dgEev1XKAGy8DNNwPBXSB1UpXHTudmCrXOOSf5q1sqZnkm0IapaaGW9VWSx9u_bezEwd0-DUfHM908sGpwtnEFPXINEtrbZjjbmvEHYcnTOA9OCOKfPXohbmCPgj3jlNbGrIJysHQXFTuR6_mY_a5ohJWgQE-uVXZTL2EBLmexWZvIK8JmgQ_F7xhbXdmcowuMPzeRFIFvM7Rre4aKmmaCOftqC26YI386kcPBbtSvjC6NDrS1guBULnOtUuEoQs6Rm6VOB37il3d3x8vxeilbCjw3g3c_BskQ-FOoSPBlmlgWldx6n21evfy18RazsHgzPws58hQBRuO_7cl537qwVI1UBjblPCuONZ7TOAAtn_IdSakgu-ZIDaJ6pbE5RvMj1Cs4ErFQ_ITVMf725Zig6cwtClCA9hB63ARDK21jFAdWjNsEl2LOjNFXNeqp-9ZmaFp9VYQNsQ_gkNFYtFZccWLkdwo6ROapozqfudiFlOGXXojjOByBYLhXu9DE8tIeAb-d2jQRMDZgSlWIum9ac1BrMcDVETLhifisA7j-U9GqSVRmSNapqrro2no2pmgqFJia6B7V2bLddPjbkxZpk4UUh0qTm7BijKUWyCUqHv8w7dD3sUSHU5xx1O_m9cRvCsvwRNL3ctlQStvnOMaxftrQHDV_EKRRVh8Mn1CQcQRyqMz7xF5yw2oqliyjGDeCa4n-DqyMd-eQ4VZIOTS4pQcHAGkw5G4_i1yHPI3yHd64oWWBAS9pLfDLtUGbj1OuAZAVeF?></g></svg>