<svg xmlns="http://www.w3.org/2000/svg" xmlns:xlink="http://www.w3.org/1999/xlink" contentStyleType="text/css" data-diagram-type="CLASS" height="228px" preserveAspectRatio="none" style="width:1005px;height:228px;background:#FFFFFF;" version="1.1" viewBox="0 0 1005 228" width="1005px" zoomAndPan="magnify"><?plantuml 1.2026.3?><defs/><g><g class="title" data-source-line="1"><text fill="#000000" font-family="sans-serif" font-size="14" font-weight="700" lengthAdjust="spacing" textLength="50.5791" x="474.1509" y="24.5332">Dataset</text></g><!--class Dataset--><g class="entity" data-qualified-name="Dataset" data-source-line="12" id="ent0002"><rect fill="#FEFECE" height="50.7031" rx="2.5" ry="2.5" style="stroke:#404040;stroke-width:0.5;" width="176.1719" x="405" y="45.6094"/><text fill="#000000" font-family="sans-serif" font-size="12" lengthAdjust="spacing" textLength="41.3555" x="472.4082" y="63.0664">Dataset</text><line style="stroke:#404040;stroke-width:0.5;" x1="406" x2="580.1719" y1="70.7031" y2="70.7031"/><g data-visibility-modifier="PUBLIC_FIELD"><ellipse cx="416" cy="85.0078" fill="none" rx="3" ry="3" style="stroke:#038048;stroke-width:1;"/></g><text fill="#000000" font-family="sans-serif" font-size="14" lengthAdjust="spacing" textLength="150.1719" x="425" y="89.2363">identifier : XsdAnyUri [1]</text></g><!--class CatalogRecord--><g class="entity" data-qualified-name="CatalogRecord" data-source-line="15" id="ent0003"><rect fill="#EEEEEE" height="25.0938" rx="2.5" ry="2.5" style="stroke:#404040;stroke-width:0.5;" width="86.0449" x="7" y="182.1094"/><text fill="#000000" font-family="sans-serif" font-size="12" lengthAdjust="spacing" textLength="80.0449" x="10" y="199.5664">CatalogRecord</text></g><!--class DefinedTerm--><g class="entity" data-qualified-name="DefinedTerm" data-source-line="17" id="ent0005"><rect fill="#EEEEEE" height="25.0938" rx="2.5" ry="2.5" style="stroke:#404040;stroke-width:0.5;" width="75.3574" x="128.5" y="182.1094"/><text fill="#000000" font-family="sans-serif" font-size="12" lengthAdjust="spacing" textLength="69.3574" x="131.5" y="199.5664">DefinedTerm</text></g><!--class VariableMeasured--><g class="entity" data-qualified-name="VariableMeasured" data-source-line="19" id="ent0007"><rect fill="#EEEEEE" height="25.0938" rx="2.5" ry="2.5" style="stroke:#404040;stroke-width:0.5;" width="103.3887" x="296.5" y="182.1094"/><text fill="#000000" font-family="sans-serif" font-size="12" lengthAdjust="spacing" textLength="97.3887" x="299.5" y="199.5664">VariableMeasured</text></g><!--class SpatialExtent--><g class="entity" data-qualified-name="SpatialExtent" data-source-line="21" id="ent0009"><rect fill="#EEEEEE" height="25.0938" rx="2.5" ry="2.5" style="stroke:#404040;stroke-width:0.5;" width="76.7109" x="454.5" y="182.1094"/><text fill="#000000" font-family="sans-serif" font-size="12" lengthAdjust="spacing" textLength="70.7109" x="457.5" y="199.5664">SpatialExtent</text></g><!--class TemporalExtent--><g class="entity" data-qualified-name="TemporalExtent" data-source-line="23" id="ent0011"><rect fill="#EEEEEE" height="25.0938" rx="2.5" ry="2.5" style="stroke:#404040;stroke-width:0.5;" width="90.7031" x="582.5" y="182.1094"/><text fill="#000000" font-family="sans-serif" font-size="12" lengthAdjust="spacing" textLength="84.7031" x="585.5" y="199.5664">TemporalExtent</text></g><!--class QualityMeasure--><g class="entity" data-qualified-name="QualityMeasure" data-source-line="25" id="ent0013"><rect fill="#EEEEEE" height="25.0938" rx="2.5" ry="2.5" style="stroke:#404040;stroke-width:0.5;" width="90.0352" x="731" y="182.1094"/><text fill="#000000" font-family="sans-serif" font-size="12" lengthAdjust="spacing" textLength="84.0352" x="734" y="199.5664">QualityMeasure</text></g><!--class XsdAnyUri--><g class="entity" data-qualified-name="XsdAnyUri" data-source-line="27" id="ent0015"><rect fill="#FAE5D3" height="40.1875" rx="2.5" ry="2.5" style="stroke:#404040;stroke-width:0.5;" width="65.3809" x="925.5" y="174.6094"/><text fill="#000000" font-family="sans-serif" font-size="12" font-style="italic" lengthAdjust="spacing" textLength="63.3809" x="926.5" y="192.0664">&#171;dataType&#187;</text><text fill="#000000" font-family="sans-serif" font-size="12" lengthAdjust="spacing" textLength="56.6836" x="929.8486" y="207.1602">XsdAnyUri</text></g><!--reverse link Dataset to CatalogRecord--><g class="link" data-entity-1="ent0002" data-entity-2="ent0003" data-link-type="composition" data-source-line="16" id="lnk4"><path codeLine="16" d="M392.8705,72.8216 C317.1905,75.9916 218.76,87.3894 131,126.6094 C101.68,139.7094 74.39,166.4694 60.2,181.9094" fill="none" id="Dataset-backto-CatalogRecord" style="stroke:#404040;stroke-width:1.2;"/><polygon fill="#404040" points="404.86,72.3194,398.6979,68.574,392.8705,72.8216,399.0327,76.567,404.86,72.3194" style="stroke:#404040;stroke-width:1.2;"/><text fill="#000000" font-family="sans-serif" font-size="13" lengthAdjust="spacing" textLength="54.9136" x="132" y="141.1045">subjectOf</text><text fill="#000000" font-family="sans-serif" font-size="13" lengthAdjust="spacing" textLength="7.23" x="55.8746" y="171.3046">1</text></g><!--link Dataset to DefinedTerm--><g class="link" data-entity-1="ent0002" data-entity-2="ent0005" data-link-type="dependency" data-source-line="18" id="lnk6"><path codeLine="18" d="M404.8,82.3194 C335.62,91.6094 246.02,106.8794 215,126.6094 C193.6,140.2194 181.0666,161.3752 173.6966,176.6552" fill="none" id="Dataset-to-DefinedTerm" style="stroke:#404040;stroke-width:1.2;"/><polygon fill="#404040" points="171.09,182.0594,178.6027,175.6908,173.2622,177.5559,171.3971,172.2153,171.09,182.0594" style="stroke:#404040;stroke-width:1.2;"/><text fill="#000000" font-family="sans-serif" font-size="13" lengthAdjust="spacing" textLength="140.188" x="216" y="141.1045">measurementTechnique</text><text fill="#000000" font-family="sans-serif" font-size="13" lengthAdjust="spacing" textLength="19.5127" x="150.3029" y="171.1308">0..*</text></g><!--reverse link Dataset to VariableMeasured--><g class="link" data-entity-1="ent0002" data-entity-2="ent0007" data-link-type="composition" data-source-line="20" id="lnk8"><path codeLine="20" d="M408.9255,102.1032 C393.4355,109.8432 388.93,114.3094 377,126.6094 C361.74,142.3494 353.86,167.4094 350.35,182.0094" fill="none" id="Dataset-backto-VariableMeasured" style="stroke:#404040;stroke-width:1.2;"/><polygon fill="#404040" points="419.66,96.7394,412.5048,95.8431,408.9255,102.1032,416.0807,102.9994,419.66,96.7394" style="stroke:#404040;stroke-width:1.2;"/><text fill="#000000" font-family="sans-serif" font-size="13" lengthAdjust="spacing" textLength="103.3335" x="378" y="141.1045">variableMeasured</text><text fill="#000000" font-family="sans-serif" font-size="13" lengthAdjust="spacing" textLength="19.5127" x="328.4262" y="171.0602">0..*</text></g><!--reverse link Dataset to SpatialExtent--><g class="link" data-entity-1="ent0002" data-entity-2="ent0009" data-link-type="composition" data-source-line="22" id="lnk10"><path codeLine="22" d="M490.3537,108.9168 C489.4937,122.9068 489.51,128.7394 490,144.6094 C490.39,157.3894 491.35,172.0094 492.08,181.9394" fill="none" id="Dataset-backto-SpatialExtent" style="stroke:#404040;stroke-width:1.2;"/><polygon fill="#404040" points="491.09,96.9394,486.7294,102.6826,490.3537,108.9168,494.7143,103.1735,491.09,96.9394" style="stroke:#404040;stroke-width:1.2;"/><text fill="#000000" font-family="sans-serif" font-size="13" lengthAdjust="spacing" textLength="93.9453" x="491" y="141.1045">spatialCoverage</text><text fill="#000000" font-family="sans-serif" font-size="13" lengthAdjust="spacing" textLength="19.5127" x="469.135" y="171.3464">0..*</text></g><!--reverse link Dataset to TemporalExtent--><g class="link" data-entity-1="ent0002" data-entity-2="ent0011" data-link-type="composition" data-source-line="24" id="lnk12"><path codeLine="24" d="M558.2343,102.5607 C572.7143,110.7207 577.15,114.8794 589,126.6094 C605.46,142.8894 617.41,167.5394 623.47,181.9594" fill="none" id="Dataset-backto-TemporalExtent" style="stroke:#404040;stroke-width:1.2;"/><polygon fill="#404040" points="547.78,96.6694,551.0434,103.0998,558.2343,102.5607,554.9709,96.1303,547.78,96.6694" style="stroke:#404040;stroke-width:1.2;"/><text fill="#000000" font-family="sans-serif" font-size="13" lengthAdjust="spacing" textLength="106.9453" x="604" y="141.1045">temporalCoverage</text><text fill="#000000" font-family="sans-serif" font-size="13" lengthAdjust="spacing" textLength="19.5127" x="599.1051" y="171.3743">0..*</text></g><!--reverse link Dataset to QualityMeasure--><g class="link" data-entity-1="ent0002" data-entity-2="ent0013" data-link-type="composition" data-source-line="26" id="lnk14"><path codeLine="26" d="M592.941,82.2864 C636.911,89.5164 677.57,101.1394 719,126.6094 C741.77,140.6094 760.04,166.7794 769.33,181.9394" fill="none" id="Dataset-backto-QualityMeasure" style="stroke:#404040;stroke-width:1.2;"/><polygon fill="#404040" points="581.1,80.3394,586.3715,85.2599,592.941,82.2864,587.6695,77.3659,581.1,80.3394" style="stroke:#404040;stroke-width:1.2;"/><text fill="#000000" font-family="sans-serif" font-size="13" lengthAdjust="spacing" textLength="140.8989" x="741" y="141.1045">hasQualityMeasurement</text><text fill="#000000" font-family="sans-serif" font-size="13" lengthAdjust="spacing" textLength="19.5127" x="744.0571" y="171.3464">0..*</text></g><!--link Dataset to XsdAnyUri--><g class="link" data-entity-1="ent0002" data-entity-2="ent0015" data-link-type="dependency" data-source-line="28" id="lnk16"><path codeLine="28" d="M581.11,77.7194 C681.13,85.2194 837.25,100.6594 890,126.6094 C912.31,137.5794 928.101,153.991 940.431,169.601" fill="none" id="Dataset-to-XsdAnyUri" style="stroke:#404040;stroke-width:1.2;stroke-dasharray:7,7;"/><polygon fill="#404040" points="944.15,174.3094,941.7104,164.7675,941.0508,170.3857,935.4325,169.7262,944.15,174.3094" style="stroke:#404040;stroke-width:1.2;"/><text fill="#000000" font-family="sans-serif" font-size="13" lengthAdjust="spacing" textLength="49.1372" x="916" y="141.1045">identifier</text></g><?plantuml-src VP9HJuCm58NV-HKtx6q6CgQ-a6N9PEpD61qQ4-D31vTHLoYsPHED_zqE1XlC35xewUdzpYrNKSKGvaGHYSf8Q8GGKX4ohBynpLK9AQOh5DAG6vhbH90KP48YlgFP6cB299xip8JWko2XuIP3AS6nnoUR8IDQ-p6WjdcSSG63cz7-rU8T5n6AlhhWcLhIRmHdRFmQHbt3F4GsWSWcFWmM_iBt_0fmfUDdYiOK1RZmAgDPLZuB2c_EkwvoAEBfWuoldp3KvAfKHu61Npr60nXQ5fYEsNEv88lL1uRg8MxJOKmpZ08KQPtmk3uhQbbJC4UsFJGxDbTVEv65m5Jt4M2OPFIpm0RmGWGbAuRtjQSEtnV_pr-ZphmkR7jImrhcH572_2-barIWZdA9qZNgYwhN7j-Y8Ekscq3F6HSTH5UwnEWvNL07eKzvB0YZgZoqLr6wqYLAp-b2GcHNs_-d1jNEMqKvJjza4kdIGPdZTAh7TURVpgzRccrFJwmk72VO-0C0?></g></svg>