<svg xmlns="http://www.w3.org/2000/svg" xmlns:xlink="http://www.w3.org/1999/xlink" contentStyleType="text/css" data-diagram-type="CLASS" height="202px" preserveAspectRatio="none" style="width:1732px;height:202px;background:#FFFFFF;" version="1.1" viewBox="0 0 1732 202" width="1732px" zoomAndPan="magnify"><?plantuml 1.2026.3?><defs/><g><g class="title" data-source-line="1"><text fill="#000000" font-family="sans-serif" font-size="14" font-weight="700" lengthAdjust="spacing" textLength="123.6963" x="800.7749" y="24.5332">SpecializationRole</text></g><!--class SpecializationRole--><g class="entity" data-qualified-name="SpecializationRole" data-source-line="12" id="ent0002"><rect fill="#FAE5D3" height="40.1875" rx="2.5" ry="2.5" style="stroke:#404040;stroke-width:0.5;" width="104.7246" x="769.5" y="148.6094"/><text fill="#000000" font-family="sans-serif" font-size="12" font-style="italic" lengthAdjust="spacing" textLength="63.3809" x="790.1719" y="166.0664">&#171;dataType&#187;</text><text fill="#000000" font-family="sans-serif" font-size="12" lengthAdjust="spacing" textLength="98.7246" x="772.5" y="181.1602">SpecializationRole</text></g><!--class DataStructure--><g class="entity" data-qualified-name="DataStructure" data-source-line="13" id="ent0003"><rect fill="#EEEEEE" height="25.0938" rx="2.5" ry="2.5" style="stroke:#404040;stroke-width:0.5;" width="80.0332" x="7" y="45.6094"/><text fill="#000000" font-family="sans-serif" font-size="12" lengthAdjust="spacing" textLength="74.0332" x="10" y="63.0664">DataStructure</text></g><!--class WideDataStructure--><g class="entity" data-qualified-name="WideDataStructure" data-source-line="15" id="ent0005"><rect fill="#EEEEEE" height="25.0938" rx="2.5" ry="2.5" style="stroke:#404040;stroke-width:0.5;" width="107.373" x="122.5" y="45.6094"/><text fill="#000000" font-family="sans-serif" font-size="12" lengthAdjust="spacing" textLength="101.373" x="125.5" y="63.0664">WideDataStructure</text></g><!--class LongDataStructure--><g class="entity" data-qualified-name="LongDataStructure" data-source-line="17" id="ent0007"><rect fill="#EEEEEE" height="25.0938" rx="2.5" ry="2.5" style="stroke:#404040;stroke-width:0.5;" width="106.7285" x="264.5" y="45.6094"/><text fill="#000000" font-family="sans-serif" font-size="12" lengthAdjust="spacing" textLength="100.7285" x="267.5" y="63.0664">LongDataStructure</text></g><!--class DimensionalDataStructure--><g class="entity" data-qualified-name="DimensionalDataStructure" data-source-line="19" id="ent0009"><rect fill="#EEEEEE" height="25.0938" rx="2.5" ry="2.5" style="stroke:#404040;stroke-width:0.5;" width="146.0625" x="407" y="45.6094"/><text fill="#000000" font-family="sans-serif" font-size="12" lengthAdjust="spacing" textLength="140.0625" x="410" y="63.0664">DimensionalDataStructure</text></g><!--class DataStructureComponent--><g class="entity" data-qualified-name="DataStructureComponent" data-source-line="21" id="ent0011"><rect fill="#EEEEEE" height="25.0938" rx="2.5" ry="2.5" style="stroke:#404040;stroke-width:0.5;" width="142.0723" x="588" y="45.6094"/><text fill="#000000" font-family="sans-serif" font-size="12" font-style="italic" lengthAdjust="spacing" textLength="136.0723" x="591" y="63.0664">DataStructureComponent</text></g><!--class IdentifierComponent--><g class="entity" data-qualified-name="IdentifierComponent" data-source-line="23" id="ent0013"><rect fill="#EEEEEE" height="25.0938" rx="2.5" ry="2.5" style="stroke:#404040;stroke-width:0.5;" width="114.0645" x="765" y="45.6094"/><text fill="#000000" font-family="sans-serif" font-size="12" lengthAdjust="spacing" textLength="108.0645" x="768" y="63.0664">IdentifierComponent</text></g><!--class MeasureComponent--><g class="entity" data-qualified-name="MeasureComponent" data-source-line="25" id="ent0015"><rect fill="#EEEEEE" height="25.0938" rx="2.5" ry="2.5" style="stroke:#404040;stroke-width:0.5;" width="114.7266" x="914.5" y="45.6094"/><text fill="#000000" font-family="sans-serif" font-size="12" lengthAdjust="spacing" textLength="108.7266" x="917.5" y="63.0664">MeasureComponent</text></g><!--class AttributeComponent--><g class="entity" data-qualified-name="AttributeComponent" data-source-line="27" id="ent0017"><rect fill="#EEEEEE" height="25.0938" rx="2.5" ry="2.5" style="stroke:#404040;stroke-width:0.5;" width="112.7285" x="1064.5" y="45.6094"/><text fill="#000000" font-family="sans-serif" font-size="12" lengthAdjust="spacing" textLength="106.7285" x="1067.5" y="63.0664">AttributeComponent</text></g><!--class DimensionComponent--><g class="entity" data-qualified-name="DimensionComponent" data-source-line="29" id="ent0019"><rect fill="#EEEEEE" height="25.0938" rx="2.5" ry="2.5" style="stroke:#404040;stroke-width:0.5;" width="124.7285" x="1212.5" y="45.6094"/><text fill="#000000" font-family="sans-serif" font-size="12" lengthAdjust="spacing" textLength="118.7285" x="1215.5" y="63.0664">DimensionComponent</text></g><!--class VariableValueComponent--><g class="entity" data-qualified-name="VariableValueComponent" data-source-line="31" id="ent0021"><rect fill="#EEEEEE" height="25.0938" rx="2.5" ry="2.5" style="stroke:#404040;stroke-width:0.5;" width="142.7578" x="1372.5" y="45.6094"/><text fill="#000000" font-family="sans-serif" font-size="12" lengthAdjust="spacing" textLength="136.7578" x="1375.5" y="63.0664">VariableValueComponent</text></g><!--class VariableDescriptorComponent--><g class="entity" data-qualified-name="VariableDescriptorComponent" data-source-line="33" id="ent0023"><rect fill="#EEEEEE" height="25.0938" rx="2.5" ry="2.5" style="stroke:#404040;stroke-width:0.5;" width="166.7461" x="1550.5" y="45.6094"/><text fill="#000000" font-family="sans-serif" font-size="12" lengthAdjust="spacing" textLength="160.7461" x="1553.5" y="63.0664">VariableDescriptorComponent</text></g><!--link DataStructure to SpecializationRole--><g class="link" data-entity-1="ent0003" data-entity-2="ent0002" data-link-type="dependency" data-source-line="14" id="lnk4"><path codeLine="14" d="M69.21,70.6194 C97.39,84.6294 147.91,107.7594 194,118.6094 C302.84,144.2394 632.5451,159.9425 763.1951,165.3225" fill="none" id="DataStructure-to-SpecializationRole" style="stroke:#404040;stroke-width:1.2;stroke-dasharray:7,7;"/><polygon fill="#404040" points="769.19,165.5694,760.3622,161.2025,764.1942,165.3637,760.033,169.1957,769.19,165.5694" style="stroke:#404040;stroke-width:1.2;"/><text fill="#000000" font-family="sans-serif" font-size="13" lengthAdjust="spacing" textLength="78.0444" x="195" y="115.1045">specialization</text></g><!--link WideDataStructure to SpecializationRole--><g class="link" data-entity-1="ent0005" data-entity-2="ent0002" data-link-type="dependency" data-source-line="16" id="lnk6"><path codeLine="16" d="M202.15,70.7294 C234.36,84.5094 291.09,107.0694 342,118.6094 C494.77,153.2394 674.4733,163.2293 763.4833,166.1993" fill="none" id="WideDataStructure-to-SpecializationRole" style="stroke:#404040;stroke-width:1.2;stroke-dasharray:7,7;"/><polygon fill="#404040" points="769.48,166.3994,760.6184,162.1015,764.4828,166.2326,760.3516,170.097,769.48,166.3994" style="stroke:#404040;stroke-width:1.2;"/><text fill="#000000" font-family="sans-serif" font-size="13" lengthAdjust="spacing" textLength="78.0444" x="343" y="115.1045">specialization</text></g><!--link LongDataStructure to SpecializationRole--><g class="link" data-entity-1="ent0007" data-entity-2="ent0002" data-link-type="dependency" data-source-line="18" id="lnk8"><path codeLine="18" d="M345.43,70.6994 C378.28,84.1394 435.24,106.0494 486,118.6094 C584.57,142.9994 696.6374,156.177 763.3174,162.567" fill="none" id="LongDataStructure-to-SpecializationRole" style="stroke:#404040;stroke-width:1.2;stroke-dasharray:7,7;"/><polygon fill="#404040" points="769.29,163.1394,760.7126,158.2991,764.3128,162.6624,759.9495,166.2626,769.29,163.1394" style="stroke:#404040;stroke-width:1.2;"/><text fill="#000000" font-family="sans-serif" font-size="13" lengthAdjust="spacing" textLength="78.0444" x="487" y="115.1045">specialization</text></g><!--link DimensionalDataStructure to SpecializationRole--><g class="link" data-entity-1="ent0009" data-entity-2="ent0002" data-link-type="dependency" data-source-line="20" id="lnk10"><path codeLine="20" d="M504.18,70.6194 C532.1,83.5694 579.61,104.6294 622,118.6094 C671.06,134.7894 722.5932,147.0521 763.2832,155.7721" fill="none" id="DimensionalDataStructure-to-SpecializationRole" style="stroke:#404040;stroke-width:1.2;stroke-dasharray:7,7;"/><polygon fill="#404040" points="769.15,157.0294,761.188,151.2323,764.261,155.9816,759.5116,159.0547,769.15,157.0294" style="stroke:#404040;stroke-width:1.2;"/><text fill="#000000" font-family="sans-serif" font-size="13" lengthAdjust="spacing" textLength="78.0444" x="623" y="115.1045">specialization</text></g><!--link DataStructureComponent to SpecializationRole--><g class="link" data-entity-1="ent0011" data-entity-2="ent0002" data-link-type="dependency" data-source-line="22" id="lnk12"><path codeLine="22" d="M672.32,70.7694 C686.93,83.2994 711.34,103.4594 734,118.6094 C749.99,129.2994 763.2077,137.0038 779.0977,145.5638" fill="none" id="DataStructureComponent-to-SpecializationRole" style="stroke:#404040;stroke-width:1.2;stroke-dasharray:7,7;"/><polygon fill="#404040" points="784.38,148.4094,778.3536,140.6195,779.9781,146.038,774.5595,147.6625,784.38,148.4094" style="stroke:#404040;stroke-width:1.2;"/><text fill="#000000" font-family="sans-serif" font-size="13" lengthAdjust="spacing" textLength="78.0444" x="735" y="115.1045">specialization</text></g><!--link IdentifierComponent to SpecializationRole--><g class="link" data-entity-1="ent0013" data-entity-2="ent0002" data-link-type="dependency" data-source-line="24" id="lnk14"><path codeLine="24" d="M822,70.7194 C822,89.3094 822,119.9394 822,142.4494" fill="none" id="IdentifierComponent-to-SpecializationRole" style="stroke:#404040;stroke-width:1.2;stroke-dasharray:7,7;"/><polygon fill="#404040" points="822,148.4494,826,139.4494,822,143.4494,818,139.4494,822,148.4494" style="stroke:#404040;stroke-width:1.2;"/><text fill="#000000" font-family="sans-serif" font-size="13" lengthAdjust="spacing" textLength="78.0444" x="823" y="115.1045">specialization</text></g><!--link MeasureComponent to SpecializationRole--><g class="link" data-entity-1="ent0015" data-entity-2="ent0002" data-link-type="dependency" data-source-line="26" id="lnk16"><path codeLine="26" d="M961.36,71.0094 C949.59,83.7394 929.68,104.0694 910,118.6094 C894.95,129.7294 882.4094,137.3057 866.7394,145.6257" fill="none" id="MeasureComponent-to-SpecializationRole" style="stroke:#404040;stroke-width:1.2;stroke-dasharray:7,7;"/><polygon fill="#404040" points="861.44,148.4394,871.2648,147.7517,865.8561,146.0946,867.5132,140.6859,861.44,148.4394" style="stroke:#404040;stroke-width:1.2;"/><text fill="#000000" font-family="sans-serif" font-size="13" lengthAdjust="spacing" textLength="78.0444" x="931" y="115.1045">specialization</text></g><!--link AttributeComponent to SpecializationRole--><g class="link" data-entity-1="ent0017" data-entity-2="ent0002" data-link-type="dependency" data-source-line="28" id="lnk18"><path codeLine="28" d="M1104.26,70.7594 C1084.47,84.0394 1050.16,105.5994 1018,118.6094 C971.18,137.5494 920.9082,149.5364 880.7182,157.4064" fill="none" id="AttributeComponent-to-SpecializationRole" style="stroke:#404040;stroke-width:1.2;stroke-dasharray:7,7;"/><polygon fill="#404040" points="874.83,158.5594,884.4309,160.7553,879.7368,157.5985,882.8936,152.9044,874.83,158.5594" style="stroke:#404040;stroke-width:1.2;"/><text fill="#000000" font-family="sans-serif" font-size="13" lengthAdjust="spacing" textLength="78.0444" x="1054" y="115.1045">specialization</text></g><!--link DimensionComponent to SpecializationRole--><g class="link" data-entity-1="ent0019" data-entity-2="ent0002" data-link-type="dependency" data-source-line="30" id="lnk20"><path codeLine="30" d="M1253.85,70.6194 C1227.99,84.1894 1182.52,106.4394 1141,118.6094 C1049.46,145.4394 944.5674,157.7392 880.5574,163.3092" fill="none" id="DimensionComponent-to-SpecializationRole" style="stroke:#404040;stroke-width:1.2;stroke-dasharray:7,7;"/><polygon fill="#404040" points="874.58,163.8294,883.8929,167.0341,879.5612,163.3959,883.1994,159.0642,874.58,163.8294" style="stroke:#404040;stroke-width:1.2;"/><text fill="#000000" font-family="sans-serif" font-size="13" lengthAdjust="spacing" textLength="78.0444" x="1191" y="115.1045">specialization</text></g><!--link VariableValueComponent to SpecializationRole--><g class="link" data-entity-1="ent0021" data-entity-2="ent0002" data-link-type="dependency" data-source-line="32" id="lnk22"><path codeLine="32" d="M1417.84,70.6794 C1385.62,84.4194 1328.88,106.9294 1278,118.6094 C1134.43,151.5594 966.2249,162.2328 880.6349,165.7528" fill="none" id="VariableValueComponent-to-SpecializationRole" style="stroke:#404040;stroke-width:1.2;stroke-dasharray:7,7;"/><polygon fill="#404040" points="874.64,165.9994,883.7968,169.6262,879.6358,165.7939,883.468,161.6329,874.64,165.9994" style="stroke:#404040;stroke-width:1.2;"/><text fill="#000000" font-family="sans-serif" font-size="13" lengthAdjust="spacing" textLength="78.0444" x="1339" y="115.1045">specialization</text></g><!--link VariableDescriptorComponent to SpecializationRole--><g class="link" data-entity-1="ent0023" data-entity-2="ent0002" data-link-type="dependency" data-source-line="34" id="lnk24"><path codeLine="34" d="M1601.33,70.6294 C1560.77,84.4394 1489.19,107.1294 1426,118.6094 C1224.41,155.2494 985.9885,164.3668 880.5585,166.6968" fill="none" id="VariableDescriptorComponent-to-SpecializationRole" style="stroke:#404040;stroke-width:1.2;stroke-dasharray:7,7;"/><polygon fill="#404040" points="874.56,166.8294,883.6462,170.6295,879.5588,166.7189,883.4694,162.6315,874.56,166.8294" style="stroke:#404040;stroke-width:1.2;"/><text fill="#000000" font-family="sans-serif" font-size="13" lengthAdjust="spacing" textLength="78.0444" x="1502" y="115.1045">specialization</text></g><?plantuml-src dP9HQy8m4CVV-oaEVPVfjfSXWbg5mVOonJrVqrCFqwGaAQ9ZttrrOjKcWhLzAVzVcj_bBewT99Zb91Wbxz6nLbzQKhJcb42m4QTlodAtWuooX8oDx8PLZWOpi6jCzPRL2fOeBLsGeJ5wEr-ps2Yo5hgTtWKK4ili9uBZih6Msa3xvUdmbk58cvHCFPrgvMQy9-ZsejyeEkxHygjl0Th0eQ3VJz7XV9VJO03jwN3o6Z-VTebBCdEc4Aumnmsk4cXF_f_eEkrq1Y7H6zYhy2JvBZlfYxoqalcaeV13gvKlzD9Aw9E6mfWpKhOCK0OwUWEUctjhmRrLO6ATGU4WDDMnpdAjI3b_l1KAp_cC6xRZFIr_uYKVxlAbF91NvX1hgFqajDw1ws4bz413sz0vmqdXQZu_hem1zEWzgmtLY_sxzR1pWOOnaRH0MTJE6aQL-mP-q1-J5OPpfqsuY03tAWcjkRUSFm00?></g></svg>