<svg xmlns="http://www.w3.org/2000/svg" xmlns:xlink="http://www.w3.org/1999/xlink" contentStyleType="text/css" data-diagram-type="CLASS" height="385px" preserveAspectRatio="none" style="width:2603px;height:385px;background:#FFFFFF;" version="1.1" viewBox="0 0 2603 385" width="2603px" zoomAndPan="magnify"><?plantuml 1.2026.3?><defs/><g><g class="title" data-source-line="1"><text fill="#000000" font-family="sans-serif" font-size="14" font-weight="700" lengthAdjust="spacing" textLength="71.5723" x="1262.3965" y="24.5332">XsdAnyUri</text></g><!--class XsdAnyUri--><g class="entity" data-qualified-name="XsdAnyUri" data-source-line="15" id="ent0002"><rect fill="#FAE5D3" height="40.1875" rx="2.5" ry="2.5" style="stroke:#404040;stroke-width:0.5;" width="65.3809" x="927" y="320.6094"/><text fill="#000000" font-family="sans-serif" font-size="12" font-style="italic" lengthAdjust="spacing" textLength="63.3809" x="928" y="338.0664">&#171;dataType&#187;</text><text fill="#000000" font-family="sans-serif" font-size="12" lengthAdjust="spacing" textLength="56.6836" x="931.3486" y="353.1602">XsdAnyUri</text></g><!--class CompositeProfile--><g class="entity" data-qualified-name="CompositeProfile" data-source-line="16" id="ent0003"><rect fill="#EEEEEE" height="25.0938" rx="2.5" ry="2.5" style="stroke:#404040;stroke-width:0.5;" width="97.3711" x="7" y="45.6094"/><text fill="#000000" font-family="sans-serif" font-size="12" font-style="italic" lengthAdjust="spacing" textLength="91.3711" x="10" y="63.0664">CompositeProfile</text></g><!--class Dataset--><g class="entity" data-qualified-name="Dataset" data-source-line="18" id="ent0005"><rect fill="#EEEEEE" height="25.0938" rx="2.5" ry="2.5" style="stroke:#404040;stroke-width:0.5;" width="47.3555" x="124" y="45.6094"/><text fill="#000000" font-family="sans-serif" font-size="12" lengthAdjust="spacing" textLength="41.3555" x="127" y="63.0664">Dataset</text></g><!--class DataDownload--><g class="entity" data-qualified-name="DataDownload" data-source-line="20" id="ent0007"><rect fill="#EEEEEE" height="25.0938" rx="2.5" ry="2.5" style="stroke:#404040;stroke-width:0.5;" width="84.7148" x="191" y="45.6094"/><text fill="#000000" font-family="sans-serif" font-size="12" lengthAdjust="spacing" textLength="78.7148" x="194" y="63.0664">DataDownload</text></g><!--class WebAPI--><g class="entity" data-qualified-name="WebAPI" data-source-line="24" id="ent0011"><rect fill="#EEEEEE" height="25.0938" rx="2.5" ry="2.5" style="stroke:#404040;stroke-width:0.5;" width="50.0156" x="296.5" y="45.6094"/><text fill="#000000" font-family="sans-serif" font-size="12" lengthAdjust="spacing" textLength="44.0156" x="299.5" y="63.0664">WebAPI</text></g><!--class ActionResult--><g class="entity" data-qualified-name="ActionResult" data-source-line="26" id="ent0013"><rect fill="#EEEEEE" height="25.0938" rx="2.5" ry="2.5" style="stroke:#404040;stroke-width:0.5;" width="73.3652" x="367" y="45.6094"/><text fill="#000000" font-family="sans-serif" font-size="12" lengthAdjust="spacing" textLength="67.3652" x="370" y="63.0664">ActionResult</text></g><!--class DefinedTerm--><g class="entity" data-qualified-name="DefinedTerm" data-source-line="28" id="ent0015"><rect fill="#EEEEEE" height="25.0938" rx="2.5" ry="2.5" style="stroke:#404040;stroke-width:0.5;" width="75.3574" x="460" y="45.6094"/><text fill="#000000" font-family="sans-serif" font-size="12" lengthAdjust="spacing" textLength="69.3574" x="463" y="63.0664">DefinedTerm</text></g><!--class Identifier--><g class="entity" data-qualified-name="Identifier" data-source-line="30" id="ent0017"><rect fill="#EEEEEE" height="25.0938" rx="2.5" ry="2.5" style="stroke:#404040;stroke-width:0.5;" width="52.0254" x="555.5" y="45.6094"/><text fill="#000000" font-family="sans-serif" font-size="12" lengthAdjust="spacing" textLength="46.0254" x="558.5" y="63.0664">Identifier</text></g><!--class AdditionalProperty--><g class="entity" data-qualified-name="AdditionalProperty" data-source-line="32" id="ent0019"><rect fill="#EEEEEE" height="25.0938" rx="2.5" ry="2.5" style="stroke:#404040;stroke-width:0.5;" width="104.0566" x="627.5" y="45.6094"/><text fill="#000000" font-family="sans-serif" font-size="12" lengthAdjust="spacing" textLength="98.0566" x="630.5" y="63.0664">AdditionalProperty</text></g><!--class Reference--><g class="entity" data-qualified-name="Reference" data-source-line="34" id="ent0021"><rect fill="#EEEEEE" height="25.0938" rx="2.5" ry="2.5" style="stroke:#404040;stroke-width:0.5;" width="61.3652" x="752" y="45.6094"/><text fill="#000000" font-family="sans-serif" font-size="12" lengthAdjust="spacing" textLength="55.3652" x="755" y="63.0664">Reference</text></g><!--class ProvActivity--><g class="entity" data-qualified-name="ProvActivity" data-source-line="37" id="ent0024"><rect fill="#EEEEEE" height="25.0938" rx="2.5" ry="2.5" style="stroke:#404040;stroke-width:0.5;" width="68.6777" x="833" y="45.6094"/><text fill="#000000" font-family="sans-serif" font-size="12" lengthAdjust="spacing" textLength="62.6777" x="836" y="63.0664">ProvActivity</text></g><!--class DerivedFrom--><g class="entity" data-qualified-name="DerivedFrom" data-source-line="39" id="ent0026"><rect fill="#EEEEEE" height="25.0938" rx="2.5" ry="2.5" style="stroke:#404040;stroke-width:0.5;" width="75.3457" x="922" y="45.6094"/><text fill="#000000" font-family="sans-serif" font-size="12" lengthAdjust="spacing" textLength="69.3457" x="925" y="63.0664">DerivedFrom</text></g><!--class CatalogRecord--><g class="entity" data-qualified-name="CatalogRecord" data-source-line="42" id="ent0029"><rect fill="#EEEEEE" height="25.0938" rx="2.5" ry="2.5" style="stroke:#404040;stroke-width:0.5;" width="86.0449" x="1017.5" y="45.6094"/><text fill="#000000" font-family="sans-serif" font-size="12" lengthAdjust="spacing" textLength="80.0449" x="1020.5" y="63.0664">CatalogRecord</text></g><!--class VariableMeasured--><g class="entity" data-qualified-name="VariableMeasured" data-source-line="44" id="ent0031"><rect fill="#EEEEEE" height="25.0938" rx="2.5" ry="2.5" style="stroke:#404040;stroke-width:0.5;" width="103.3887" x="1124" y="45.6094"/><text fill="#000000" font-family="sans-serif" font-size="12" lengthAdjust="spacing" textLength="97.3887" x="1127" y="63.0664">VariableMeasured</text></g><!--class SpatialExtent--><g class="entity" data-qualified-name="SpatialExtent" data-source-line="46" id="ent0033"><rect fill="#EEEEEE" height="25.0938" rx="2.5" ry="2.5" style="stroke:#404040;stroke-width:0.5;" width="76.7109" x="1247" y="45.6094"/><text fill="#000000" font-family="sans-serif" font-size="12" lengthAdjust="spacing" textLength="70.7109" x="1250" y="63.0664">SpatialExtent</text></g><!--class QualityMeasure--><g class="entity" data-qualified-name="QualityMeasure" data-source-line="48" id="ent0035"><rect fill="#EEEEEE" height="25.0938" rx="2.5" ry="2.5" style="stroke:#404040;stroke-width:0.5;" width="90.0352" x="1344.5" y="45.6094"/><text fill="#000000" font-family="sans-serif" font-size="12" lengthAdjust="spacing" textLength="84.0352" x="1347.5" y="63.0664">QualityMeasure</text></g><!--class InstanceVariable--><g class="entity" data-qualified-name="InstanceVariable" data-source-line="50" id="ent0037"><rect fill="#EEEEEE" height="25.0938" rx="2.5" ry="2.5" style="stroke:#404040;stroke-width:0.5;" width="95.3906" x="1455" y="45.6094"/><text fill="#000000" font-family="sans-serif" font-size="12" lengthAdjust="spacing" textLength="89.3906" x="1458" y="63.0664">InstanceVariable</text></g><!--class AbstractMapping--><g class="entity" data-qualified-name="AbstractMapping" data-source-line="52" id="ent0039"><rect fill="#EEEEEE" height="25.0938" rx="2.5" ry="2.5" style="stroke:#404040;stroke-width:0.5;" width="96.0469" x="1570.5" y="45.6094"/><text fill="#000000" font-family="sans-serif" font-size="12" font-style="italic" lengthAdjust="spacing" textLength="90.0469" x="1573.5" y="63.0664">AbstractMapping</text></g><!--class AbstractDataSet--><g class="entity" data-qualified-name="AbstractDataSet" data-source-line="54" id="ent0041"><rect fill="#EEEEEE" height="25.0938" rx="2.5" ry="2.5" style="stroke:#404040;stroke-width:0.5;" width="93.375" x="1687" y="45.6094"/><text fill="#000000" font-family="sans-serif" font-size="12" font-style="italic" lengthAdjust="spacing" textLength="87.375" x="1690" y="63.0664">AbstractDataSet</text></g><!--class PrimaryKey--><g class="entity" data-qualified-name="PrimaryKey" data-source-line="56" id="ent0043"><rect fill="#EEEEEE" height="25.0938" rx="2.5" ry="2.5" style="stroke:#404040;stroke-width:0.5;" width="68.0098" x="1800.5" y="45.6094"/><text fill="#000000" font-family="sans-serif" font-size="12" lengthAdjust="spacing" textLength="62.0098" x="1803.5" y="63.0664">PrimaryKey</text></g><!--class Statistics--><g class="entity" data-qualified-name="Statistics" data-source-line="58" id="ent0045"><rect fill="#EEEEEE" height="25.0938" rx="2.5" ry="2.5" style="stroke:#404040;stroke-width:0.5;" width="54.0117" x="1888.5" y="45.6094"/><text fill="#000000" font-family="sans-serif" font-size="12" lengthAdjust="spacing" textLength="48.0117" x="1891.5" y="63.0664">Statistics</text></g><!--class SubstantiveValueDomain--><g class="entity" data-qualified-name="SubstantiveValueDomain" data-source-line="60" id="ent0047"><rect fill="#EEEEEE" height="25.0938" rx="2.5" ry="2.5" style="stroke:#404040;stroke-width:0.5;" width="140.748" x="1963" y="45.6094"/><text fill="#000000" font-family="sans-serif" font-size="12" lengthAdjust="spacing" textLength="134.748" x="1966" y="63.0664">SubstantiveValueDomain</text></g><!--class SentinelValueDomain--><g class="entity" data-qualified-name="SentinelValueDomain" data-source-line="62" id="ent0049"><rect fill="#EEEEEE" height="25.0938" rx="2.5" ry="2.5" style="stroke:#404040;stroke-width:0.5;" width="121.4063" x="2124" y="45.6094"/><text fill="#000000" font-family="sans-serif" font-size="12" lengthAdjust="spacing" textLength="115.4063" x="2127" y="63.0664">SentinelValueDomain</text></g><!--class RepresentedVariable--><g class="entity" data-qualified-name="RepresentedVariable" data-source-line="64" id="ent0051"><rect fill="#EEEEEE" height="25.0938" rx="2.5" ry="2.5" style="stroke:#404040;stroke-width:0.5;" width="118.7402" x="2265" y="45.6094"/><text fill="#000000" font-family="sans-serif" font-size="12" lengthAdjust="spacing" textLength="112.7402" x="2268" y="63.0664">RepresentedVariable</text></g><!--class DimensionGroup--><g class="entity" data-qualified-name="DimensionGroup" data-source-line="66" id="ent0053"><rect fill="#EEEEEE" height="25.0938" rx="2.5" ry="2.5" style="stroke:#404040;stroke-width:0.5;" width="96.041" x="2404.5" y="45.6094"/><text fill="#000000" font-family="sans-serif" font-size="12" lengthAdjust="spacing" textLength="90.041" x="2407.5" y="63.0664">DimensionGroup</text></g><!--class ForeignKey--><g class="entity" data-qualified-name="ForeignKey" data-source-line="68" id="ent0055"><rect fill="#EEEEEE" height="25.0938" rx="2.5" ry="2.5" style="stroke:#404040;stroke-width:0.5;" width="67.3652" x="2521" y="45.6094"/><text fill="#000000" font-family="sans-serif" font-size="12" lengthAdjust="spacing" textLength="61.3652" x="2524" y="63.0664">ForeignKey</text></g><!--link CompositeProfile to XsdAnyUri--><g class="link" data-entity-1="ent0003" data-entity-2="ent0002" data-link-type="dependency" data-source-line="17" id="lnk4"><path codeLine="17" d="M55.5,70.6394 C55.5,127.5094 55.5,358.6094 55.5,358.6094 C55.5,358.6094 758.72,358.6094 920.79,358.6094" fill="none" id="CompositeProfile-to-XsdAnyUri" style="stroke:#404040;stroke-width:1.2;stroke-dasharray:7,7;"/><polygon fill="#404040" points="926.79,358.6094,917.79,354.6094,921.79,358.6094,917.79,362.6094,926.79,358.6094" style="stroke:#404040;stroke-width:1.2;"/><text fill="#000000" font-family="sans-serif" font-size="13" lengthAdjust="spacing" textLength="49.1372" x="297.16" y="355.1045">identifier</text></g><!--link Dataset to XsdAnyUri--><g class="link" data-entity-1="ent0005" data-entity-2="ent0002" data-link-type="dependency" data-source-line="19" id="lnk6"><path codeLine="19" d="M147.5,70.8894 C147.5,127.8394 147.5,355.6094 147.5,355.6094 C147.5,355.6094 769.45,355.6094 920.92,355.6094" fill="none" id="Dataset-to-XsdAnyUri" style="stroke:#404040;stroke-width:1.2;stroke-dasharray:7,7;"/><polygon fill="#404040" points="926.92,355.6094,917.92,351.6094,921.92,355.6094,917.92,359.6094,926.92,355.6094" style="stroke:#404040;stroke-width:1.2;"/><text fill="#000000" font-family="sans-serif" font-size="13" lengthAdjust="spacing" textLength="14.4473" x="379.85" y="352.1045">url</text></g><!--link DataDownload to XsdAnyUri--><g class="link" data-entity-1="ent0007" data-entity-2="ent0002" data-link-type="dependency" data-source-line="21" id="lnk8"><path codeLine="21" d="M212.25,70.7594 C212.25,127.1294 212.25,352.6094 212.25,352.6094 C212.25,352.6094 777.09,352.6094 920.91,352.6094" fill="none" id="DataDownload-to-XsdAnyUri" style="stroke:#404040;stroke-width:1.2;stroke-dasharray:7,7;"/><polygon fill="#404040" points="926.91,352.6094,917.91,348.6094,921.91,352.6094,917.91,356.6094,926.91,352.6094" style="stroke:#404040;stroke-width:1.2;"/><text fill="#000000" font-family="sans-serif" font-size="13" lengthAdjust="spacing" textLength="59.249" x="429.66" y="367.1045">contentUrl</text></g><!--link DataDownload to XsdAnyUri--><g class="link" data-entity-1="ent0007" data-entity-2="ent0002" data-link-type="dependency" data-source-line="22" id="lnk9"><path codeLine="22" d="M233.5,70.6394 C233.5,126.4294 233.5,349.6094 233.5,349.6094 C233.5,349.6094 779.63,349.6094 920.89,349.6094" fill="none" id="DataDownload-to-XsdAnyUri-1" style="stroke:#404040;stroke-width:1.2;stroke-dasharray:7,7;"/><polygon fill="#404040" points="926.89,349.6094,917.89,345.6094,921.89,349.6094,917.89,353.6094,926.89,349.6094" style="stroke:#404040;stroke-width:1.2;"/><text fill="#000000" font-family="sans-serif" font-size="13" lengthAdjust="spacing" textLength="68.6309" x="441.71" y="346.1045">conformsTo</text></g><!--link DataDownload to XsdAnyUri--><g class="link" data-entity-1="ent0007" data-entity-2="ent0002" data-link-type="dependency" data-source-line="23" id="lnk10"><path codeLine="23" d="M254.75,70.8794 C254.75,126.7094 254.75,346.6094 254.75,346.6094 C254.75,346.6094 782.32,346.6094 920.92,346.6094" fill="none" id="DataDownload-to-XsdAnyUri-2" style="stroke:#404040;stroke-width:1.2;stroke-dasharray:7,7;"/><polygon fill="#404040" points="926.92,346.6094,917.92,342.6094,921.92,346.6094,917.92,350.6094,926.92,346.6094" style="stroke:#404040;stroke-width:1.2;"/><text fill="#000000" font-family="sans-serif" font-size="13" lengthAdjust="spacing" textLength="49.1372" x="402.97" y="343.1045">identifier</text></g><!--link WebAPI to XsdAnyUri--><g class="link" data-entity-1="ent0011" data-entity-2="ent0002" data-link-type="dependency" data-source-line="25" id="lnk12"><path codeLine="25" d="M321.5,70.7494 C321.5,125.9994 321.5,343.6094 321.5,343.6094 C321.5,343.6094 790.97,343.6094 920.98,343.6094" fill="none" id="WebAPI-to-XsdAnyUri" style="stroke:#404040;stroke-width:1.2;stroke-dasharray:7,7;"/><polygon fill="#404040" points="926.98,343.6094,917.98,339.6094,921.98,343.6094,917.98,347.6094,926.98,343.6094" style="stroke:#404040;stroke-width:1.2;"/><text fill="#000000" font-family="sans-serif" font-size="13" lengthAdjust="spacing" textLength="49.1372" x="488.81" y="340.1045">identifier</text></g><!--link ActionResult to XsdAnyUri--><g class="link" data-entity-1="ent0013" data-entity-2="ent0002" data-link-type="dependency" data-source-line="27" id="lnk14"><path codeLine="27" d="M403.5,70.6094 C403.5,125.2894 403.5,340.6094 403.5,340.6094 C403.5,340.6094 801.61,340.6094 920.8,340.6094" fill="none" id="ActionResult-to-XsdAnyUri" style="stroke:#404040;stroke-width:1.2;stroke-dasharray:7,7;"/><polygon fill="#404040" points="926.8,340.6094,917.8,336.6094,921.8,340.6094,917.8,344.6094,926.8,340.6094" style="stroke:#404040;stroke-width:1.2;"/><text fill="#000000" font-family="sans-serif" font-size="13" lengthAdjust="spacing" textLength="68.6309" x="531.15" y="355.1045">conformsTo</text></g><!--link DefinedTerm to XsdAnyUri--><g class="link" data-entity-1="ent0015" data-entity-2="ent0002" data-link-type="dependency" data-source-line="29" id="lnk16"><path codeLine="29" d="M497.5,70.8894 C497.5,125.7694 497.5,338.6094 497.5,338.6094 C497.5,338.6094 815.1,338.6094 920.64,338.6094" fill="none" id="DefinedTerm-to-XsdAnyUri" style="stroke:#404040;stroke-width:1.2;stroke-dasharray:7,7;"/><polygon fill="#404040" points="926.64,338.6094,917.64,334.6094,921.64,338.6094,917.64,342.6094,926.64,338.6094" style="stroke:#404040;stroke-width:1.2;"/><text fill="#000000" font-family="sans-serif" font-size="13" lengthAdjust="spacing" textLength="104.7681" x="579.21" y="335.1045">inDefinedTermSet</text></g><!--link Identifier to XsdAnyUri--><g class="link" data-entity-1="ent0017" data-entity-2="ent0002" data-link-type="dependency" data-source-line="31" id="lnk18"><path codeLine="31" d="M581.5,70.7494 C581.5,125.0394 581.5,335.6094 581.5,335.6094 C581.5,335.6094 829.26,335.6094 920.94,335.6094" fill="none" id="Identifier-to-XsdAnyUri" style="stroke:#404040;stroke-width:1.2;stroke-dasharray:7,7;"/><polygon fill="#404040" points="926.94,335.6094,917.94,331.6094,921.94,335.6094,917.94,339.6094,926.94,335.6094" style="stroke:#404040;stroke-width:1.2;"/><text fill="#000000" font-family="sans-serif" font-size="13" lengthAdjust="spacing" textLength="14.4473" x="606.79" y="350.1045">url</text></g><!--link AdditionalProperty to XsdAnyUri--><g class="link" data-entity-1="ent0019" data-entity-2="ent0002" data-link-type="dependency" data-source-line="33" id="lnk20"><path codeLine="33" d="M679.5,70.6194 C679.5,124.3194 679.5,332.6094 679.5,332.6094 C679.5,332.6094 846.97,332.6094 920.83,332.6094" fill="none" id="AdditionalProperty-to-XsdAnyUri" style="stroke:#404040;stroke-width:1.2;stroke-dasharray:7,7;"/><polygon fill="#404040" points="926.83,332.6094,917.83,328.6094,921.83,332.6094,917.83,336.6094,926.83,332.6094" style="stroke:#404040;stroke-width:1.2;"/><text fill="#000000" font-family="sans-serif" font-size="13" lengthAdjust="spacing" textLength="52.0381" x="680.5" y="321.7745">unitCode</text></g><!--link Reference to XsdAnyUri--><g class="link" data-entity-1="ent0021" data-entity-2="ent0002" data-link-type="dependency" data-source-line="35" id="lnk22"><path codeLine="35" d="M772.33,70.8394 C772.33,124.5194 772.33,329.6094 772.33,329.6094 C772.33,329.6094 867.27,329.6094 920.9,329.6094" fill="none" id="Reference-to-XsdAnyUri" style="stroke:#404040;stroke-width:1.2;stroke-dasharray:7,7;"/><polygon fill="#404040" points="926.9,329.6094,917.9,325.6094,921.9,329.6094,917.9,333.6094,926.9,329.6094" style="stroke:#404040;stroke-width:1.2;"/><text fill="#000000" font-family="sans-serif" font-size="13" lengthAdjust="spacing" textLength="14.4473" x="757.33" y="274.0045">url</text></g><!--link Reference to XsdAnyUri--><g class="link" data-entity-1="ent0021" data-entity-2="ent0002" data-link-type="dependency" data-source-line="36" id="lnk23"><path codeLine="36" d="M792.67,70.6994 C792.67,123.7794 792.67,326.6094 792.67,326.6094 C792.67,326.6094 872.39,326.6094 920.94,326.6094" fill="none" id="Reference-to-XsdAnyUri-1" style="stroke:#404040;stroke-width:1.2;stroke-dasharray:7,7;"/><polygon fill="#404040" points="926.94,326.6094,917.94,322.6094,921.94,326.6094,917.94,330.6094,926.94,326.6094" style="stroke:#404040;stroke-width:1.2;"/><text fill="#000000" font-family="sans-serif" font-size="13" lengthAdjust="spacing" textLength="42.6372" x="793.67" y="262.2845">relation</text></g><!--link ProvActivity to XsdAnyUri--><g class="link" data-entity-1="ent0024" data-entity-2="ent0002" data-link-type="dependency" data-source-line="38" id="lnk25"><path codeLine="38" d="M867.5,70.9194 C867.5,123.9494 867.5,323.6094 867.5,323.6094 C867.5,323.6094 894.36,323.6094 920.81,323.6094" fill="none" id="ProvActivity-to-XsdAnyUri" style="stroke:#404040;stroke-width:1.2;stroke-dasharray:7,7;"/><polygon fill="#404040" points="926.81,323.6094,917.81,319.6094,921.81,323.6094,917.81,327.6094,926.81,323.6094" style="stroke:#404040;stroke-width:1.2;"/><text fill="#000000" font-family="sans-serif" font-size="13" lengthAdjust="spacing" textLength="28.1899" x="838.5" y="223.4145">used</text></g><!--link DerivedFrom to XsdAnyUri--><g class="link" data-entity-1="ent0026" data-entity-2="ent0002" data-link-type="dependency" data-source-line="40" id="lnk27"><path codeLine="40" d="M948.67,70.6094 C948.67,115.0294 948.67,259.5094 948.67,314.3794" fill="none" id="DerivedFrom-to-XsdAnyUri" style="stroke:#404040;stroke-width:1.2;stroke-dasharray:7,7;"/><polygon fill="#404040" points="948.67,320.3794,952.67,311.3794,948.67,315.3794,944.67,311.3794,948.67,320.3794" style="stroke:#404040;stroke-width:1.2;"/><text fill="#000000" font-family="sans-serif" font-size="13" lengthAdjust="spacing" textLength="14.4473" x="933.67" y="191.9945">url</text></g><!--link DerivedFrom to XsdAnyUri--><g class="link" data-entity-1="ent0026" data-entity-2="ent0002" data-link-type="dependency" data-source-line="41" id="lnk28"><path codeLine="41" d="M970.33,70.6094 C970.33,115.0294 970.33,259.5094 970.33,314.3794" fill="none" id="DerivedFrom-to-XsdAnyUri-1" style="stroke:#404040;stroke-width:1.2;stroke-dasharray:7,7;"/><polygon fill="#404040" points="970.33,320.3794,974.33,311.3794,970.33,315.3794,966.33,311.3794,970.33,320.3794" style="stroke:#404040;stroke-width:1.2;"/><text fill="#000000" font-family="sans-serif" font-size="13" lengthAdjust="spacing" textLength="42.6372" x="927.33" y="209.9945">relation</text></g><!--link CatalogRecord to XsdAnyUri--><g class="link" data-entity-1="ent0029" data-entity-2="ent0002" data-link-type="dependency" data-source-line="43" id="lnk30"><path codeLine="43" d="M1060.5,70.9194 C1060.5,123.9494 1060.5,323.6094 1060.5,323.6094 C1060.5,323.6094 1027.54,323.6094 998.01,323.6094" fill="none" id="CatalogRecord-to-XsdAnyUri" style="stroke:#404040;stroke-width:1.2;stroke-dasharray:7,7;"/><polygon fill="#404040" points="992.01,323.6094,1001.01,327.6094,997.01,323.6094,1001.01,319.6094,992.01,323.6094" style="stroke:#404040;stroke-width:1.2;"/><text fill="#000000" font-family="sans-serif" font-size="13" lengthAdjust="spacing" textLength="68.6309" x="991.5" y="228.0045">conformsTo</text></g><!--link VariableMeasured to XsdAnyUri--><g class="link" data-entity-1="ent0031" data-entity-2="ent0002" data-link-type="dependency" data-source-line="45" id="lnk32"><path codeLine="45" d="M1175.5,70.6994 C1175.5,123.7794 1175.5,326.6094 1175.5,326.6094 C1175.5,326.6094 1058.73,326.6094 998.31,326.6094" fill="none" id="VariableMeasured-to-XsdAnyUri" style="stroke:#404040;stroke-width:1.2;stroke-dasharray:7,7;"/><polygon fill="#404040" points="992.31,326.6094,1001.31,330.6094,997.31,326.6094,1001.31,322.6094,992.31,326.6094" style="stroke:#404040;stroke-width:1.2;"/><text fill="#000000" font-family="sans-serif" font-size="13" lengthAdjust="spacing" textLength="49.1372" x="1125.5" y="286.7445">identifier</text></g><!--link SpatialExtent to XsdAnyUri--><g class="link" data-entity-1="ent0033" data-entity-2="ent0002" data-link-type="dependency" data-source-line="47" id="lnk34"><path codeLine="47" d="M1285.5,70.7894 C1285.5,124.2694 1285.5,328.6094 1285.5,328.6094 C1285.5,328.6094 1080.92,328.6094 998.25,328.6094" fill="none" id="SpatialExtent-to-XsdAnyUri" style="stroke:#404040;stroke-width:1.2;stroke-dasharray:7,7;"/><polygon fill="#404040" points="992.25,328.6094,1001.25,332.6094,997.25,328.6094,1001.25,324.6094,992.25,328.6094" style="stroke:#404040;stroke-width:1.2;"/><text fill="#000000" font-family="sans-serif" font-size="13" lengthAdjust="spacing" textLength="49.1372" x="1217.78" y="325.1045">identifier</text></g><!--link QualityMeasure to XsdAnyUri--><g class="link" data-entity-1="ent0035" data-entity-2="ent0002" data-link-type="dependency" data-source-line="49" id="lnk36"><path codeLine="49" d="M1389.5,70.9294 C1389.5,125.0094 1389.5,331.6094 1389.5,331.6094 C1389.5,331.6094 1098.52,331.6094 998.17,331.6094" fill="none" id="QualityMeasure-to-XsdAnyUri" style="stroke:#404040;stroke-width:1.2;stroke-dasharray:7,7;"/><polygon fill="#404040" points="992.17,331.6094,1001.17,335.6094,997.17,331.6094,1001.17,327.6094,992.17,331.6094" style="stroke:#404040;stroke-width:1.2;"/><text fill="#000000" font-family="sans-serif" font-size="13" lengthAdjust="spacing" textLength="35.3882" x="1285.17" y="328.1045">metric</text></g><!--link InstanceVariable to XsdAnyUri--><g class="link" data-entity-1="ent0037" data-entity-2="ent0002" data-link-type="dependency" data-source-line="51" id="lnk38"><path codeLine="51" d="M1502.5,70.7094 C1502.5,124.7994 1502.5,334.6094 1502.5,334.6094 C1502.5,334.6094 1115.64,334.6094 998.24,334.6094" fill="none" id="InstanceVariable-to-XsdAnyUri" style="stroke:#404040;stroke-width:1.2;stroke-dasharray:7,7;"/><polygon fill="#404040" points="992.24,334.6094,1001.24,338.6094,997.24,334.6094,1001.24,330.6094,992.24,334.6094" style="stroke:#404040;stroke-width:1.2;"/><text fill="#000000" font-family="sans-serif" font-size="13" lengthAdjust="spacing" textLength="49.1372" x="1329.32" y="331.1045">identifier</text></g><!--link AbstractMapping to XsdAnyUri--><g class="link" data-entity-1="ent0039" data-entity-2="ent0002" data-link-type="dependency" data-source-line="53" id="lnk40"><path codeLine="53" d="M1618.5,70.7994 C1618.5,125.2794 1618.5,336.6094 1618.5,336.6094 C1618.5,336.6094 1131.15,336.6094 998.18,336.6094" fill="none" id="AbstractMapping-to-XsdAnyUri" style="stroke:#404040;stroke-width:1.2;stroke-dasharray:7,7;"/><polygon fill="#404040" points="992.18,336.6094,1001.18,340.6094,997.18,336.6094,1001.18,332.6094,992.18,336.6094" style="stroke:#404040;stroke-width:1.2;"/><text fill="#000000" font-family="sans-serif" font-size="13" lengthAdjust="spacing" textLength="49.1372" x="1388.24" y="333.1045">identifier</text></g><!--link AbstractDataSet to XsdAnyUri--><g class="link" data-entity-1="ent0041" data-entity-2="ent0002" data-link-type="dependency" data-source-line="55" id="lnk42"><path codeLine="55" d="M1733.5,70.9394 C1733.5,126.0094 1733.5,339.6094 1733.5,339.6094 C1733.5,339.6094 1145.58,339.6094 998.26,339.6094" fill="none" id="AbstractDataSet-to-XsdAnyUri" style="stroke:#404040;stroke-width:1.2;stroke-dasharray:7,7;"/><polygon fill="#404040" points="992.26,339.6094,1001.26,343.6094,997.26,339.6094,1001.26,335.6094,992.26,339.6094" style="stroke:#404040;stroke-width:1.2;"/><text fill="#000000" font-family="sans-serif" font-size="13" lengthAdjust="spacing" textLength="49.1372" x="1447.22" y="336.1045">identifier</text></g><!--link PrimaryKey to XsdAnyUri--><g class="link" data-entity-1="ent0043" data-entity-2="ent0002" data-link-type="dependency" data-source-line="57" id="lnk44"><path codeLine="57" d="M1834.5,70.6994 C1834.5,125.7594 1834.5,342.6094 1834.5,342.6094 C1834.5,342.6094 1157.05,342.6094 998.2,342.6094" fill="none" id="PrimaryKey-to-XsdAnyUri" style="stroke:#404040;stroke-width:1.2;stroke-dasharray:7,7;"/><polygon fill="#404040" points="992.2,342.6094,1001.2,346.6094,997.2,342.6094,1001.2,338.6094,992.2,342.6094" style="stroke:#404040;stroke-width:1.2;"/><text fill="#000000" font-family="sans-serif" font-size="13" lengthAdjust="spacing" textLength="49.1372" x="1499.31" y="339.1045">identifier</text></g><!--link Statistics to XsdAnyUri--><g class="link" data-entity-1="ent0045" data-entity-2="ent0002" data-link-type="dependency" data-source-line="59" id="lnk46"><path codeLine="59" d="M1915.5,70.7894 C1915.5,126.2394 1915.5,344.6094 1915.5,344.6094 C1915.5,344.6094 1165.68,344.6094 998.13,344.6094" fill="none" id="Statistics-to-XsdAnyUri" style="stroke:#404040;stroke-width:1.2;stroke-dasharray:7,7;"/><polygon fill="#404040" points="992.13,344.6094,1001.13,348.6094,997.13,344.6094,1001.13,340.6094,992.13,344.6094" style="stroke:#404040;stroke-width:1.2;"/><text fill="#000000" font-family="sans-serif" font-size="13" lengthAdjust="spacing" textLength="49.1372" x="1540.73" y="359.1045">identifier</text></g><!--link SubstantiveValueDomain to XsdAnyUri--><g class="link" data-entity-1="ent0047" data-entity-2="ent0002" data-link-type="dependency" data-source-line="61" id="lnk48"><path codeLine="61" d="M2033.5,70.9194 C2033.5,126.9494 2033.5,347.6094 2033.5,347.6094 C2033.5,347.6094 1178.22,347.6094 998.23,347.6094" fill="none" id="SubstantiveValueDomain-to-XsdAnyUri" style="stroke:#404040;stroke-width:1.2;stroke-dasharray:7,7;"/><polygon fill="#404040" points="992.23,347.6094,1001.23,351.6094,997.23,347.6094,1001.23,343.6094,992.23,347.6094" style="stroke:#404040;stroke-width:1.2;"/><text fill="#000000" font-family="sans-serif" font-size="13" lengthAdjust="spacing" textLength="49.1372" x="1601.21" y="344.1045">identifier</text></g><!--link SentinelValueDomain to XsdAnyUri--><g class="link" data-entity-1="ent0049" data-entity-2="ent0002" data-link-type="dependency" data-source-line="63" id="lnk50"><path codeLine="63" d="M2184.5,70.6794 C2184.5,126.6594 2184.5,350.6094 2184.5,350.6094 C2184.5,350.6094 1193.08,350.6094 998.27,350.6094" fill="none" id="SentinelValueDomain-to-XsdAnyUri" style="stroke:#404040;stroke-width:1.2;stroke-dasharray:7,7;"/><polygon fill="#404040" points="992.27,350.6094,1001.27,354.6094,997.27,350.6094,1001.27,346.6094,992.27,350.6094" style="stroke:#404040;stroke-width:1.2;"/><text fill="#000000" font-family="sans-serif" font-size="13" lengthAdjust="spacing" textLength="49.1372" x="1678.35" y="347.1045">identifier</text></g><!--link RepresentedVariable to XsdAnyUri--><g class="link" data-entity-1="ent0051" data-entity-2="ent0002" data-link-type="dependency" data-source-line="65" id="lnk52"><path codeLine="65" d="M2324.5,70.8094 C2324.5,127.3694 2324.5,353.6094 2324.5,353.6094 C2324.5,353.6094 1205.81,353.6094 998.23,353.6094" fill="none" id="RepresentedVariable-to-XsdAnyUri" style="stroke:#404040;stroke-width:1.2;stroke-dasharray:7,7;"/><polygon fill="#404040" points="992.23,353.6094,1001.23,357.6094,997.23,353.6094,1001.23,349.6094,992.23,353.6094" style="stroke:#404040;stroke-width:1.2;"/><text fill="#000000" font-family="sans-serif" font-size="13" lengthAdjust="spacing" textLength="49.1372" x="1749.77" y="350.1045">identifier</text></g><!--link DimensionGroup to XsdAnyUri--><g class="link" data-entity-1="ent0053" data-entity-2="ent0002" data-link-type="dependency" data-source-line="67" id="lnk54"><path codeLine="67" d="M2452.5,70.8894 C2452.5,127.8394 2452.5,355.6094 2452.5,355.6094 C2452.5,355.6094 1216.41,355.6094 998.07,355.6094" fill="none" id="DimensionGroup-to-XsdAnyUri" style="stroke:#404040;stroke-width:1.2;stroke-dasharray:7,7;"/><polygon fill="#404040" points="992.07,355.6094,1001.07,359.6094,997.07,355.6094,1001.07,351.6094,992.07,355.6094" style="stroke:#404040;stroke-width:1.2;"/><text fill="#000000" font-family="sans-serif" font-size="13" lengthAdjust="spacing" textLength="49.1372" x="1814.64" y="352.1045">identifier</text></g><!--link ForeignKey to XsdAnyUri--><g class="link" data-entity-1="ent0055" data-entity-2="ent0002" data-link-type="dependency" data-source-line="69" id="lnk56"><path codeLine="69" d="M2554.5,70.6394 C2554.5,127.5094 2554.5,358.6094 2554.5,358.6094 C2554.5,358.6094 1225.01,358.6094 998.08,358.6094" fill="none" id="ForeignKey-to-XsdAnyUri" style="stroke:#404040;stroke-width:1.2;stroke-dasharray:7,7;"/><polygon fill="#404040" points="992.08,358.6094,1001.08,362.6094,997.08,358.6094,1001.08,354.6094,992.08,358.6094" style="stroke:#404040;stroke-width:1.2;"/><text fill="#000000" font-family="sans-serif" font-size="13" lengthAdjust="spacing" textLength="49.1372" x="1867.28" y="355.1045">identifier</text></g><?plantuml-src dPRVRzem4CVVyrTOxNlLTUlBL5NAe4pLLAa3kktLn4UnwjZHsMd7fltlS-B4TXn6qE0bzpdutjdt0mmt0iWFpNAvVqAUxJW3Kd0i1BXdA2kp9oMK6q2TwHSkAugq97f7cNhZyfbigT0GUN94zRRUyU95WjRatSLLv4GgNpHKvEhwCg9ICMXf30MNOFOL48Lcfo978QZL_PqH5sgcX49o_k6oULluII43JEb2IRFYlu2ykyh-P9dJEFC7FoDKXsiWDpUC6hgsqMzloVaYlxkUly_eHXkaXUaIE9kfibAQ6tX4jUK2MeqKalExzfMD71SNjr74ZyJUjZHyom7xxEOs1mscrUsUlLnlfoerYlZhS_KcXQBCQ_HW8EHXgbROMxDPFLdHgSzj5PPwhOv_Rdp6xx397-_RzDoZJwmpfoNomd0bbw1huUug1bvk08_atryUR6t_iJLWwUuksE7g8ZPAKqRU5PXUzzwdtye6qwj6w4XnSyPuSo0gR3zLW6RlZZx2uGB6hf6-v6PcPx4FieGj8CZ2jRQtl6GWXpBzjnT1q2QLFevDwBMfpollZX437sq0Hm4ri50xvA_05gZwsdaxgbrWXv8_va_JdzcM5-fv2OLTFMuBn2IiW06Txi5l53dT27W0gci49vr2hpvoJ4_EghBdeEBkPpFahVg0UEaXdTRzMbDXYzHbqWeFaLTES2fTWa5U-DcHsb3RJ_r9tGGbCCnHwZYITxhQyyv-e5LbV-FSQ0rPcAk4_qUOPcUkkaMVi56OdazNuH5vIN7_1VgPwireeZmweLcCRG9jUA5TftWpj4b09yZLcwO-TfnjXKGDSrLIBftqGLS8SzXzGiW6I12ZU6CUWXtmJKTQGeNs7utzyMI3PZt0esKwzftm7u6N8BLTHfzHrPLRTmCKDjuGJqil509_bdt_1DDBHkY8t5y0?></g></svg>