<svg xmlns="http://www.w3.org/2000/svg" xmlns:xlink="http://www.w3.org/1999/xlink" contentStyleType="text/css" data-diagram-type="CLASS" height="202px" preserveAspectRatio="none" style="width:3648px;height:202px;background:#FFFFFF;" version="1.1" viewBox="0 0 3648 202" width="3648px" zoomAndPan="magnify"><?plantuml 1.2026.3?><defs/><g><g class="title" data-source-line="1"><text fill="#000000" font-family="sans-serif" font-size="14" font-weight="700" lengthAdjust="spacing" textLength="71.5723" x="1784.916" y="24.5332">XsdAnyUri</text></g><!--class XsdAnyUri--><g class="entity" data-qualified-name="XsdAnyUri" data-source-line="12" id="ent0002"><rect fill="#FAE5D3" height="40.1875" rx="2.5" ry="2.5" style="stroke:#404040;stroke-width:0.5;" width="65.3809" x="1398" y="148.6094"/><text fill="#000000" font-family="sans-serif" font-size="12" font-style="italic" lengthAdjust="spacing" textLength="63.3809" x="1399" y="166.0664">&#171;dataType&#187;</text><text fill="#000000" font-family="sans-serif" font-size="12" lengthAdjust="spacing" textLength="56.6836" x="1402.3486" y="181.1602">XsdAnyUri</text></g><!--class CompositeProfile--><g class="entity" data-qualified-name="CompositeProfile" data-source-line="13" id="ent0003"><rect fill="#EEEEEE" height="25.0938" rx="2.5" ry="2.5" style="stroke:#404040;stroke-width:0.5;" width="97.3711" x="7" y="45.6094"/><text fill="#000000" font-family="sans-serif" font-size="12" font-style="italic" lengthAdjust="spacing" textLength="91.3711" x="10" y="63.0664">CompositeProfile</text></g><!--class Dataset--><g class="entity" data-qualified-name="Dataset" data-source-line="15" id="ent0005"><rect fill="#EEEEEE" height="25.0938" rx="2.5" ry="2.5" style="stroke:#404040;stroke-width:0.5;" width="47.3555" x="139" y="45.6094"/><text fill="#000000" font-family="sans-serif" font-size="12" lengthAdjust="spacing" textLength="41.3555" x="142" y="63.0664">Dataset</text></g><!--class DataDownload--><g class="entity" data-qualified-name="DataDownload" data-source-line="17" id="ent0007"><rect fill="#EEEEEE" height="25.0938" rx="2.5" ry="2.5" style="stroke:#404040;stroke-width:0.5;" width="84.7148" x="277" y="45.6094"/><text fill="#000000" font-family="sans-serif" font-size="12" lengthAdjust="spacing" textLength="78.7148" x="280" y="63.0664">DataDownload</text></g><!--class WebAPI--><g class="entity" data-qualified-name="WebAPI" data-source-line="21" id="ent0011"><rect fill="#EEEEEE" height="25.0938" rx="2.5" ry="2.5" style="stroke:#404040;stroke-width:0.5;" width="50.0156" x="471.5" y="45.6094"/><text fill="#000000" font-family="sans-serif" font-size="12" lengthAdjust="spacing" textLength="44.0156" x="474.5" y="63.0664">WebAPI</text></g><!--class ActionResult--><g class="entity" data-qualified-name="ActionResult" data-source-line="23" id="ent0013"><rect fill="#EEEEEE" height="25.0938" rx="2.5" ry="2.5" style="stroke:#404040;stroke-width:0.5;" width="73.3652" x="557" y="45.6094"/><text fill="#000000" font-family="sans-serif" font-size="12" lengthAdjust="spacing" textLength="67.3652" x="560" y="63.0664">ActionResult</text></g><!--class DefinedTerm--><g class="entity" data-qualified-name="DefinedTerm" data-source-line="25" id="ent0015"><rect fill="#EEEEEE" height="25.0938" rx="2.5" ry="2.5" style="stroke:#404040;stroke-width:0.5;" width="75.3574" x="665" y="45.6094"/><text fill="#000000" font-family="sans-serif" font-size="12" lengthAdjust="spacing" textLength="69.3574" x="668" y="63.0664">DefinedTerm</text></g><!--class Identifier--><g class="entity" data-qualified-name="Identifier" data-source-line="27" id="ent0017"><rect fill="#EEEEEE" height="25.0938" rx="2.5" ry="2.5" style="stroke:#404040;stroke-width:0.5;" width="52.0254" x="775.5" y="45.6094"/><text fill="#000000" font-family="sans-serif" font-size="12" lengthAdjust="spacing" textLength="46.0254" x="778.5" y="63.0664">Identifier</text></g><!--class AdditionalProperty--><g class="entity" data-qualified-name="AdditionalProperty" data-source-line="29" id="ent0019"><rect fill="#EEEEEE" height="25.0938" rx="2.5" ry="2.5" style="stroke:#404040;stroke-width:0.5;" width="104.0566" x="862.5" y="45.6094"/><text fill="#000000" font-family="sans-serif" font-size="12" lengthAdjust="spacing" textLength="98.0566" x="865.5" y="63.0664">AdditionalProperty</text></g><!--class Reference--><g class="entity" data-qualified-name="Reference" data-source-line="31" id="ent0021"><rect fill="#EEEEEE" height="25.0938" rx="2.5" ry="2.5" style="stroke:#404040;stroke-width:0.5;" width="61.3652" x="1002" y="45.6094"/><text fill="#000000" font-family="sans-serif" font-size="12" lengthAdjust="spacing" textLength="55.3652" x="1005" y="63.0664">Reference</text></g><!--class ProvActivity--><g class="entity" data-qualified-name="ProvActivity" data-source-line="34" id="ent0024"><rect fill="#EEEEEE" height="25.0938" rx="2.5" ry="2.5" style="stroke:#404040;stroke-width:0.5;" width="68.6777" x="1098" y="45.6094"/><text fill="#000000" font-family="sans-serif" font-size="12" lengthAdjust="spacing" textLength="62.6777" x="1101" y="63.0664">ProvActivity</text></g><!--class DerivedFrom--><g class="entity" data-qualified-name="DerivedFrom" data-source-line="36" id="ent0026"><rect fill="#EEEEEE" height="25.0938" rx="2.5" ry="2.5" style="stroke:#404040;stroke-width:0.5;" width="75.3457" x="1202" y="45.6094"/><text fill="#000000" font-family="sans-serif" font-size="12" lengthAdjust="spacing" textLength="69.3457" x="1205" y="63.0664">DerivedFrom</text></g><!--class CatalogRecord--><g class="entity" data-qualified-name="CatalogRecord" data-source-line="39" id="ent0029"><rect fill="#EEEEEE" height="25.0938" rx="2.5" ry="2.5" style="stroke:#404040;stroke-width:0.5;" width="86.0449" x="1312.5" y="45.6094"/><text fill="#000000" font-family="sans-serif" font-size="12" lengthAdjust="spacing" textLength="80.0449" x="1315.5" y="63.0664">CatalogRecord</text></g><!--class VariableMeasured--><g class="entity" data-qualified-name="VariableMeasured" data-source-line="41" id="ent0031"><rect fill="#EEEEEE" height="25.0938" rx="2.5" ry="2.5" style="stroke:#404040;stroke-width:0.5;" width="103.3887" x="1434" y="45.6094"/><text fill="#000000" font-family="sans-serif" font-size="12" lengthAdjust="spacing" textLength="97.3887" x="1437" y="63.0664">VariableMeasured</text></g><!--class SpatialExtent--><g class="entity" data-qualified-name="SpatialExtent" data-source-line="43" id="ent0033"><rect fill="#EEEEEE" height="25.0938" rx="2.5" ry="2.5" style="stroke:#404040;stroke-width:0.5;" width="76.7109" x="1572" y="45.6094"/><text fill="#000000" font-family="sans-serif" font-size="12" lengthAdjust="spacing" textLength="70.7109" x="1575" y="63.0664">SpatialExtent</text></g><!--class QualityMeasure--><g class="entity" data-qualified-name="QualityMeasure" data-source-line="45" id="ent0035"><rect fill="#EEEEEE" height="25.0938" rx="2.5" ry="2.5" style="stroke:#404040;stroke-width:0.5;" width="90.0352" x="1684.5" y="45.6094"/><text fill="#000000" font-family="sans-serif" font-size="12" lengthAdjust="spacing" textLength="84.0352" x="1687.5" y="63.0664">QualityMeasure</text></g><!--class InstanceVariable--><g class="entity" data-qualified-name="InstanceVariable" data-source-line="47" id="ent0037"><rect fill="#EEEEEE" height="25.0938" rx="2.5" ry="2.5" style="stroke:#404040;stroke-width:0.5;" width="95.3906" x="1810" y="45.6094"/><text fill="#000000" font-family="sans-serif" font-size="12" lengthAdjust="spacing" textLength="89.3906" x="1813" y="63.0664">InstanceVariable</text></g><!--class AbstractMapping--><g class="entity" data-qualified-name="AbstractMapping" data-source-line="49" id="ent0039"><rect fill="#EEEEEE" height="25.0938" rx="2.5" ry="2.5" style="stroke:#404040;stroke-width:0.5;" width="96.0469" x="1940.5" y="45.6094"/><text fill="#000000" font-family="sans-serif" font-size="12" font-style="italic" lengthAdjust="spacing" textLength="90.0469" x="1943.5" y="63.0664">AbstractMapping</text></g><!--class AbstractDataSet--><g class="entity" data-qualified-name="AbstractDataSet" data-source-line="51" id="ent0041"><rect fill="#EEEEEE" height="25.0938" rx="2.5" ry="2.5" style="stroke:#404040;stroke-width:0.5;" width="93.375" x="2072" y="45.6094"/><text fill="#000000" font-family="sans-serif" font-size="12" font-style="italic" lengthAdjust="spacing" textLength="87.375" x="2075" y="63.0664">AbstractDataSet</text></g><!--class PrimaryKey--><g class="entity" data-qualified-name="PrimaryKey" data-source-line="53" id="ent0043"><rect fill="#EEEEEE" height="25.0938" rx="2.5" ry="2.5" style="stroke:#404040;stroke-width:0.5;" width="68.0098" x="2200.5" y="45.6094"/><text fill="#000000" font-family="sans-serif" font-size="12" lengthAdjust="spacing" textLength="62.0098" x="2203.5" y="63.0664">PrimaryKey</text></g><!--class Statistics--><g class="entity" data-qualified-name="Statistics" data-source-line="55" id="ent0045"><rect fill="#EEEEEE" height="25.0938" rx="2.5" ry="2.5" style="stroke:#404040;stroke-width:0.5;" width="54.0117" x="2303.5" y="45.6094"/><text fill="#000000" font-family="sans-serif" font-size="12" lengthAdjust="spacing" textLength="48.0117" x="2306.5" y="63.0664">Statistics</text></g><!--class SubstantiveValueDomain--><g class="entity" data-qualified-name="SubstantiveValueDomain" data-source-line="57" id="ent0047"><rect fill="#EEEEEE" height="25.0938" rx="2.5" ry="2.5" style="stroke:#404040;stroke-width:0.5;" width="140.748" x="2393" y="45.6094"/><text fill="#000000" font-family="sans-serif" font-size="12" lengthAdjust="spacing" textLength="134.748" x="2396" y="63.0664">SubstantiveValueDomain</text></g><!--class SentinelValueDomain--><g class="entity" data-qualified-name="SentinelValueDomain" data-source-line="59" id="ent0049"><rect fill="#EEEEEE" height="25.0938" rx="2.5" ry="2.5" style="stroke:#404040;stroke-width:0.5;" width="121.4063" x="2569" y="45.6094"/><text fill="#000000" font-family="sans-serif" font-size="12" lengthAdjust="spacing" textLength="115.4063" x="2572" y="63.0664">SentinelValueDomain</text></g><!--class AbstractDataStructureComponent--><g class="entity" data-qualified-name="AbstractDataStructureComponent" data-source-line="61" id="ent0051"><rect fill="#EEEEEE" height="25.0938" rx="2.5" ry="2.5" style="stroke:#404040;stroke-width:0.5;" width="186.0879" x="2725.5" y="45.6094"/><text fill="#000000" font-family="sans-serif" font-size="12" font-style="italic" lengthAdjust="spacing" textLength="180.0879" x="2728.5" y="63.0664">AbstractDataStructureComponent</text></g><!--class AbstractDataStructure--><g class="entity" data-qualified-name="AbstractDataStructure" data-source-line="63" id="ent0053"><rect fill="#EEEEEE" height="25.0938" rx="2.5" ry="2.5" style="stroke:#404040;stroke-width:0.5;" width="124.0488" x="2946.5" y="45.6094"/><text fill="#000000" font-family="sans-serif" font-size="12" font-style="italic" lengthAdjust="spacing" textLength="118.0488" x="2949.5" y="63.0664">AbstractDataStructure</text></g><!--class DimensionGroup--><g class="entity" data-qualified-name="DimensionGroup" data-source-line="65" id="ent0055"><rect fill="#EEEEEE" height="25.0938" rx="2.5" ry="2.5" style="stroke:#404040;stroke-width:0.5;" width="96.041" x="3105.5" y="45.6094"/><text fill="#000000" font-family="sans-serif" font-size="12" lengthAdjust="spacing" textLength="90.041" x="3108.5" y="63.0664">DimensionGroup</text></g><!--class PrimaryKeyComponent--><g class="entity" data-qualified-name="PrimaryKeyComponent" data-source-line="67" id="ent0057"><rect fill="#EEEEEE" height="25.0938" rx="2.5" ry="2.5" style="stroke:#404040;stroke-width:0.5;" width="130.0488" x="3236.5" y="45.6094"/><text fill="#000000" font-family="sans-serif" font-size="12" lengthAdjust="spacing" textLength="124.0488" x="3239.5" y="63.0664">PrimaryKeyComponent</text></g><!--class ForeignKey--><g class="entity" data-qualified-name="ForeignKey" data-source-line="69" id="ent0059"><rect fill="#EEEEEE" height="25.0938" rx="2.5" ry="2.5" style="stroke:#404040;stroke-width:0.5;" width="67.3652" x="3402" y="45.6094"/><text fill="#000000" font-family="sans-serif" font-size="12" lengthAdjust="spacing" textLength="61.3652" x="3405" y="63.0664">ForeignKey</text></g><!--class ForeignKeyComponent--><g class="entity" data-qualified-name="ForeignKeyComponent" data-source-line="71" id="ent0061"><rect fill="#EEEEEE" height="25.0938" rx="2.5" ry="2.5" style="stroke:#404040;stroke-width:0.5;" width="129.4043" x="3504" y="45.6094"/><text fill="#000000" font-family="sans-serif" font-size="12" lengthAdjust="spacing" textLength="123.4043" x="3507" y="63.0664">ForeignKeyComponent</text></g><!--link CompositeProfile to XsdAnyUri--><g class="link" data-entity-1="ent0003" data-entity-2="ent0002" data-link-type="dependency" data-source-line="14" id="lnk4"><path codeLine="14" d="M62.81,70.8694 C72.43,85.1494 90.82,108.5494 113.5,118.6094 C234.08,172.1194 1200.2601,169.0254 1391.8001,167.8754" fill="none" id="CompositeProfile-to-XsdAnyUri" style="stroke:#404040;stroke-width:1.2;stroke-dasharray:7,7;"/><polygon fill="#404040" points="1397.8,167.8394,1388.7761,163.8935,1392.8001,167.8694,1388.8242,171.8933,1397.8,167.8394" style="stroke:#404040;stroke-width:1.2;"/><text fill="#000000" font-family="sans-serif" font-size="13" lengthAdjust="spacing" textLength="49.1372" x="114.5" y="115.1045">identifier</text></g><!--link Dataset to XsdAnyUri--><g class="link" data-entity-1="ent0005" data-entity-2="ent0002" data-link-type="dependency" data-source-line="16" id="lnk6"><path codeLine="16" d="M163.36,71.0394 C165.07,85.0194 170.18,107.6594 185.5,118.6094 C236.23,154.8794 1199.9803,165.5143 1391.7203,167.2743" fill="none" id="Dataset-to-XsdAnyUri" style="stroke:#404040;stroke-width:1.2;stroke-dasharray:7,7;"/><polygon fill="#404040" points="1397.72,167.3294,1388.7571,163.2469,1392.7202,167.2835,1388.6837,171.2466,1397.72,167.3294" style="stroke:#404040;stroke-width:1.2;"/><text fill="#000000" font-family="sans-serif" font-size="13" lengthAdjust="spacing" textLength="14.4473" x="186.5" y="115.1045">url</text></g><!--link DataDownload to XsdAnyUri--><g class="link" data-entity-1="ent0007" data-entity-2="ent0002" data-link-type="dependency" data-source-line="18" id="lnk8"><path codeLine="18" d="M276.87,67.8094 C238.83,77.3594 192.44,94.6094 215.5,118.6094 C257.63,162.4794 1202.9,167.0541 1391.99,167.5341" fill="none" id="DataDownload-to-XsdAnyUri" style="stroke:#404040;stroke-width:1.2;stroke-dasharray:7,7;"/><polygon fill="#404040" points="1397.99,167.5494,1389.0002,163.5265,1392.99,167.5367,1388.9799,171.5265,1397.99,167.5494" style="stroke:#404040;stroke-width:1.2;"/><text fill="#000000" font-family="sans-serif" font-size="13" lengthAdjust="spacing" textLength="59.249" x="216.5" y="115.1045">contentUrl</text></g><!--link DataDownload to XsdAnyUri--><g class="link" data-entity-1="ent0007" data-entity-2="ent0002" data-link-type="dependency" data-source-line="19" id="lnk9"><path codeLine="19" d="M314.42,70.9194 C309.53,84.3494 304.49,106.0594 316.5,118.6094 C354.86,158.6894 1211.8701,166.241 1391.8101,167.391" fill="none" id="DataDownload-to-XsdAnyUri-1" style="stroke:#404040;stroke-width:1.2;stroke-dasharray:7,7;"/><polygon fill="#404040" points="1397.81,167.4294,1388.8357,163.3719,1392.8101,167.3974,1388.7846,171.3718,1397.81,167.4294" style="stroke:#404040;stroke-width:1.2;"/><text fill="#000000" font-family="sans-serif" font-size="13" lengthAdjust="spacing" textLength="68.6309" x="317.5" y="115.1045">conformsTo</text></g><!--link DataDownload to XsdAnyUri--><g class="link" data-entity-1="ent0007" data-entity-2="ent0002" data-link-type="dependency" data-source-line="20" id="lnk10"><path codeLine="20" d="M343.8,70.6594 C374.91,84.8394 430.86,108.2494 481.5,118.6094 C662.32,155.5994 1246.0205,165.2824 1391.7205,167.1524" fill="none" id="DataDownload-to-XsdAnyUri-2" style="stroke:#404040;stroke-width:1.2;stroke-dasharray:7,7;"/><polygon fill="#404040" points="1397.72,167.2294,1388.7721,163.1142,1392.7204,167.1652,1388.6694,171.1135,1397.72,167.2294" style="stroke:#404040;stroke-width:1.2;"/><text fill="#000000" font-family="sans-serif" font-size="13" lengthAdjust="spacing" textLength="49.1372" x="482.5" y="115.1045">identifier</text></g><!--link WebAPI to XsdAnyUri--><g class="link" data-entity-1="ent0011" data-entity-2="ent0002" data-link-type="dependency" data-source-line="22" id="lnk12"><path codeLine="22" d="M506.8,70.8394 C520.11,85.0694 544.78,108.4394 571.5,118.6094 C649.76,148.4094 1244.0515,163.4649 1391.7515,166.7749" fill="none" id="WebAPI-to-XsdAnyUri" style="stroke:#404040;stroke-width:1.2;stroke-dasharray:7,7;"/><polygon fill="#404040" points="1397.75,166.9094,1388.8419,162.7087,1392.7513,166.7974,1388.6626,170.7067,1397.75,166.9094" style="stroke:#404040;stroke-width:1.2;"/><text fill="#000000" font-family="sans-serif" font-size="13" lengthAdjust="spacing" textLength="49.1372" x="572.5" y="115.1045">identifier</text></g><!--link ActionResult to XsdAnyUri--><g class="link" data-entity-1="ent0013" data-entity-2="ent0002" data-link-type="dependency" data-source-line="24" id="lnk14"><path codeLine="24" d="M601.56,70.7894 C612.1,84.9794 632.01,108.2894 655.5,118.6094 C724.16,148.7794 1252.9117,163.375 1391.6917,166.715" fill="none" id="ActionResult-to-XsdAnyUri" style="stroke:#404040;stroke-width:1.2;stroke-dasharray:7,7;"/><polygon fill="#404040" points="1397.69,166.8594,1388.7888,162.644,1392.6914,166.7391,1388.5964,170.6417,1397.69,166.8594" style="stroke:#404040;stroke-width:1.2;"/><text fill="#000000" font-family="sans-serif" font-size="13" lengthAdjust="spacing" textLength="68.6309" x="656.5" y="115.1045">conformsTo</text></g><!--link DefinedTerm to XsdAnyUri--><g class="link" data-entity-1="ent0015" data-entity-2="ent0002" data-link-type="dependency" data-source-line="26" id="lnk16"><path codeLine="26" d="M708.98,70.7294 C717.57,84.8494 734.16,108.0894 755.5,118.6094 C813.47,147.1694 1264.3127,162.6485 1391.6527,166.4885" fill="none" id="DefinedTerm-to-XsdAnyUri" style="stroke:#404040;stroke-width:1.2;stroke-dasharray:7,7;"/><polygon fill="#404040" points="1397.65,166.6694,1388.7747,162.3999,1392.6523,166.5187,1388.5335,170.3963,1397.65,166.6694" style="stroke:#404040;stroke-width:1.2;"/><text fill="#000000" font-family="sans-serif" font-size="13" lengthAdjust="spacing" textLength="104.7681" x="756.5" y="115.1045">inDefinedTermSet</text></g><!--link Identifier to XsdAnyUri--><g class="link" data-entity-1="ent0017" data-entity-2="ent0002" data-link-type="dependency" data-source-line="28" id="lnk18"><path codeLine="28" d="M817.72,70.6194 C838.4,84.6294 875.77,107.7494 911.5,118.6094 C1003.29,146.4994 1292.986,161.5304 1391.916,165.9704" fill="none" id="Identifier-to-XsdAnyUri" style="stroke:#404040;stroke-width:1.2;stroke-dasharray:7,7;"/><polygon fill="#404040" points="1397.91,166.2394,1389.0984,161.8399,1392.915,166.0152,1388.7397,169.8318,1397.91,166.2394" style="stroke:#404040;stroke-width:1.2;"/><text fill="#000000" font-family="sans-serif" font-size="13" lengthAdjust="spacing" textLength="14.4473" x="912.5" y="115.1045">url</text></g><!--link AdditionalProperty to XsdAnyUri--><g class="link" data-entity-1="ent0019" data-entity-2="ent0002" data-link-type="dependency" data-source-line="30" id="lnk20"><path codeLine="30" d="M918.87,71.0594 C924.67,85.0494 936.36,107.7194 954.5,118.6094 C1029.46,163.6194 1296.98,167.7368 1391.84,167.7768" fill="none" id="AdditionalProperty-to-XsdAnyUri" style="stroke:#404040;stroke-width:1.2;stroke-dasharray:7,7;"/><polygon fill="#404040" points="1397.84,167.7794,1388.84,163.7794,1392.84,167.7794,1388.84,171.7794,1397.84,167.7794" style="stroke:#404040;stroke-width:1.2;"/><text fill="#000000" font-family="sans-serif" font-size="13" lengthAdjust="spacing" textLength="52.0381" x="955.5" y="115.1045">unitCode</text></g><!--link Reference to XsdAnyUri--><g class="link" data-entity-1="ent0021" data-entity-2="ent0002" data-link-type="dependency" data-source-line="32" id="lnk22"><path codeLine="32" d="M1025.63,70.6994 C1018.78,83.9394 1010.82,105.4494 1022.5,118.6094 C1047.33,146.5994 1299.3771,161.3269 1391.7971,165.8369" fill="none" id="Reference-to-XsdAnyUri" style="stroke:#404040;stroke-width:1.2;stroke-dasharray:7,7;"/><polygon fill="#404040" points="1397.79,166.1294,1388.9957,161.6955,1392.7959,165.8857,1388.6057,169.686,1397.79,166.1294" style="stroke:#404040;stroke-width:1.2;"/><text fill="#000000" font-family="sans-serif" font-size="13" lengthAdjust="spacing" textLength="14.4473" x="1023.5" y="115.1045">url</text></g><!--link Reference to XsdAnyUri--><g class="link" data-entity-1="ent0021" data-entity-2="ent0002" data-link-type="dependency" data-source-line="33" id="lnk23"><path codeLine="33" d="M1044.25,70.6494 C1059.06,84.4694 1085.94,107.1694 1113.5,118.6094 C1211.22,159.1694 1332.511,166.4088 1391.641,167.4988" fill="none" id="Reference-to-XsdAnyUri-1" style="stroke:#404040;stroke-width:1.2;stroke-dasharray:7,7;"/><polygon fill="#404040" points="1397.64,167.6094,1388.7153,163.4442,1392.6408,167.5172,1388.5678,171.4428,1397.64,167.6094" style="stroke:#404040;stroke-width:1.2;"/><text fill="#000000" font-family="sans-serif" font-size="13" lengthAdjust="spacing" textLength="42.6372" x="1114.5" y="115.1045">relation</text></g><!--link ProvActivity to XsdAnyUri--><g class="link" data-entity-1="ent0024" data-entity-2="ent0002" data-link-type="dependency" data-source-line="35" id="lnk25"><path codeLine="35" d="M1140.08,70.7694 C1149.65,84.4894 1167.43,106.8894 1188.5,118.6094 C1256.3,156.3294 1343.2049,164.9677 1391.8249,166.9277" fill="none" id="ProvActivity-to-XsdAnyUri" style="stroke:#404040;stroke-width:1.2;stroke-dasharray:7,7;"/><polygon fill="#404040" points="1397.82,167.1694,1388.9884,162.8101,1392.8241,166.968,1388.6662,170.8036,1397.82,167.1694" style="stroke:#404040;stroke-width:1.2;"/><text fill="#000000" font-family="sans-serif" font-size="13" lengthAdjust="spacing" textLength="28.1899" x="1189.5" y="115.1045">used</text></g><!--link DerivedFrom to XsdAnyUri--><g class="link" data-entity-1="ent0026" data-entity-2="ent0002" data-link-type="dependency" data-source-line="37" id="lnk27"><path codeLine="37" d="M1233.57,70.9594 C1227.96,84.0294 1221.86,105.0094 1232.5,118.6094 C1252.69,144.3994 1341.1392,157.8244 1391.9592,163.6644" fill="none" id="DerivedFrom-to-XsdAnyUri" style="stroke:#404040;stroke-width:1.2;stroke-dasharray:7,7;"/><polygon fill="#404040" points="1397.92,164.3494,1389.4355,159.3481,1392.9527,163.7786,1388.5222,167.2957,1397.92,164.3494" style="stroke:#404040;stroke-width:1.2;"/><text fill="#000000" font-family="sans-serif" font-size="13" lengthAdjust="spacing" textLength="14.4473" x="1233.5" y="115.1045">url</text></g><!--link DerivedFrom to XsdAnyUri--><g class="link" data-entity-1="ent0026" data-entity-2="ent0002" data-link-type="dependency" data-source-line="38" id="lnk28"><path codeLine="38" d="M1252.19,70.7594 C1266.7,83.6494 1291.55,104.4594 1315.5,118.6094 C1341.94,134.2294 1368.6662,145.4583 1392.3062,154.2483" fill="none" id="DerivedFrom-to-XsdAnyUri-1" style="stroke:#404040;stroke-width:1.2;stroke-dasharray:7,7;"/><polygon fill="#404040" points="1397.93,156.3394,1390.8883,149.4535,1393.2435,154.5968,1388.1002,156.952,1397.93,156.3394" style="stroke:#404040;stroke-width:1.2;"/><text fill="#000000" font-family="sans-serif" font-size="13" lengthAdjust="spacing" textLength="42.6372" x="1316.5" y="115.1045">relation</text></g><!--link CatalogRecord to XsdAnyUri--><g class="link" data-entity-1="ent0029" data-entity-2="ent0002" data-link-type="dependency" data-source-line="40" id="lnk30"><path codeLine="40" d="M1358.09,70.8194 C1361.26,83.3994 1367.46,103.5994 1377.5,118.6094 C1384.95,129.7594 1390.8774,136.2411 1400.5574,144.5511" fill="none" id="CatalogRecord-to-XsdAnyUri" style="stroke:#404040;stroke-width:1.2;stroke-dasharray:7,7;"/><polygon fill="#404040" points="1405.11,148.4594,1400.8867,139.562,1401.3162,145.2025,1395.6757,145.6321,1405.11,148.4594" style="stroke:#404040;stroke-width:1.2;"/><text fill="#000000" font-family="sans-serif" font-size="13" lengthAdjust="spacing" textLength="68.6309" x="1378.5" y="115.1045">conformsTo</text></g><!--link VariableMeasured to XsdAnyUri--><g class="link" data-entity-1="ent0031" data-entity-2="ent0002" data-link-type="dependency" data-source-line="42" id="lnk32"><path codeLine="42" d="M1479.61,70.7194 C1470.19,89.3094 1454.3446,120.5886 1442.9246,143.0986" fill="none" id="VariableMeasured-to-XsdAnyUri" style="stroke:#404040;stroke-width:1.2;stroke-dasharray:7,7;"/><polygon fill="#404040" points="1440.21,148.4494,1447.8491,142.2329,1442.4722,143.9904,1440.7147,138.6135,1440.21,148.4494" style="stroke:#404040;stroke-width:1.2;"/><text fill="#000000" font-family="sans-serif" font-size="13" lengthAdjust="spacing" textLength="49.1372" x="1463.5" y="115.1045">identifier</text></g><!--link SpatialExtent to XsdAnyUri--><g class="link" data-entity-1="ent0033" data-entity-2="ent0002" data-link-type="dependency" data-source-line="44" id="lnk34"><path codeLine="44" d="M1594.07,70.7794 C1576.44,83.1394 1547.46,102.9894 1521.5,118.6094 C1502.59,129.9894 1486.1564,138.9581 1468.6664,148.1081" fill="none" id="SpatialExtent-to-XsdAnyUri" style="stroke:#404040;stroke-width:1.2;stroke-dasharray:7,7;"/><polygon fill="#404040" points="1463.35,150.8894,1473.1788,150.2617,1467.7803,148.5716,1469.4704,143.1731,1463.35,150.8894" style="stroke:#404040;stroke-width:1.2;"/><text fill="#000000" font-family="sans-serif" font-size="13" lengthAdjust="spacing" textLength="49.1372" x="1549.5" y="115.1045">identifier</text></g><!--link QualityMeasure to XsdAnyUri--><g class="link" data-entity-1="ent0035" data-entity-2="ent0002" data-link-type="dependency" data-source-line="46" id="lnk36"><path codeLine="46" d="M1708.86,70.6294 C1685.01,83.5994 1644.3,104.6794 1607.5,118.6094 C1558.3,137.2394 1504.8366,150.8612 1468.8866,159.1512" fill="none" id="QualityMeasure-to-XsdAnyUri" style="stroke:#404040;stroke-width:1.2;stroke-dasharray:7,7;"/><polygon fill="#404040" points="1463.04,160.4994,1472.7087,162.3748,1467.9121,159.3759,1470.911,154.5794,1463.04,160.4994" style="stroke:#404040;stroke-width:1.2;"/><text fill="#000000" font-family="sans-serif" font-size="13" lengthAdjust="spacing" textLength="35.3882" x="1649.5" y="115.1045">metric</text></g><!--link InstanceVariable to XsdAnyUri--><g class="link" data-entity-1="ent0037" data-entity-2="ent0002" data-link-type="dependency" data-source-line="48" id="lnk38"><path codeLine="48" d="M1830.09,70.6194 C1797.88,83.7894 1742.59,105.2294 1693.5,118.6094 C1611.94,140.8394 1519.3617,155.3951 1469.2217,162.4351" fill="none" id="InstanceVariable-to-XsdAnyUri" style="stroke:#404040;stroke-width:1.2;stroke-dasharray:7,7;"/><polygon fill="#404040" points="1463.28,163.2694,1472.7487,165.9791,1468.2314,162.5742,1471.6364,158.0568,1463.28,163.2694" style="stroke:#404040;stroke-width:1.2;"/><text fill="#000000" font-family="sans-serif" font-size="13" lengthAdjust="spacing" textLength="49.1372" x="1748.5" y="115.1045">identifier</text></g><!--link AbstractMapping to XsdAnyUri--><g class="link" data-entity-1="ent0039" data-entity-2="ent0002" data-link-type="dependency" data-source-line="50" id="lnk40"><path codeLine="50" d="M1959.03,70.6294 C1923.42,84.1094 1861.45,106.1594 1806.5,118.6094 C1681.3,146.9694 1534.6636,160.1163 1469.0336,164.9763" fill="none" id="AbstractMapping-to-XsdAnyUri" style="stroke:#404040;stroke-width:1.2;stroke-dasharray:7,7;"/><polygon fill="#404040" points="1463.05,165.4194,1472.3208,168.7438,1468.0363,165.0501,1471.73,160.7657,1463.05,165.4194" style="stroke:#404040;stroke-width:1.2;"/><text fill="#000000" font-family="sans-serif" font-size="13" lengthAdjust="spacing" textLength="49.1372" x="1867.5" y="115.1045">identifier</text></g><!--link AbstractDataSet to XsdAnyUri--><g class="link" data-entity-1="ent0041" data-entity-2="ent0002" data-link-type="dependency" data-source-line="52" id="lnk42"><path codeLine="52" d="M2087.91,70.6394 C2050.26,84.3294 1984.1,106.7994 1925.5,118.6094 C1753.65,153.2394 1549.0861,163.5438 1469.2661,166.4138" fill="none" id="AbstractDataSet-to-XsdAnyUri" style="stroke:#404040;stroke-width:1.2;stroke-dasharray:7,7;"/><polygon fill="#404040" points="1463.27,166.6294,1472.4079,170.3034,1468.2668,166.4497,1472.1205,162.3086,1463.27,166.6294" style="stroke:#404040;stroke-width:1.2;"/><text fill="#000000" font-family="sans-serif" font-size="13" lengthAdjust="spacing" textLength="49.1372" x="1995.5" y="115.1045">identifier</text></g><!--link PrimaryKey to XsdAnyUri--><g class="link" data-entity-1="ent0043" data-entity-2="ent0002" data-link-type="dependency" data-source-line="54" id="lnk44"><path codeLine="54" d="M2206.54,70.6294 C2171.45,84.5394 2109.12,107.4494 2053.5,118.6094 C1831.18,163.2194 1562.63,167.6417 1469.31,167.7617" fill="none" id="PrimaryKey-to-XsdAnyUri" style="stroke:#404040;stroke-width:1.2;stroke-dasharray:7,7;"/><polygon fill="#404040" points="1463.31,167.7694,1472.3151,171.7578,1468.31,167.7629,1472.3048,163.7578,1463.31,167.7694" style="stroke:#404040;stroke-width:1.2;"/><text fill="#000000" font-family="sans-serif" font-size="13" lengthAdjust="spacing" textLength="49.1372" x="2119.5" y="115.1045">identifier</text></g><!--link Statistics to XsdAnyUri--><g class="link" data-entity-1="ent0045" data-entity-2="ent0002" data-link-type="dependency" data-source-line="56" id="lnk46"><path codeLine="56" d="M2307.35,70.6994 C2277.97,84.7894 2225.36,107.9994 2177.5,118.6094 C2038.24,149.4894 1594.6179,163.2791 1469.2279,166.6291" fill="none" id="Statistics-to-XsdAnyUri" style="stroke:#404040;stroke-width:1.2;stroke-dasharray:7,7;"/><polygon fill="#404040" points="1463.23,166.7894,1472.3336,170.5476,1468.2282,166.6558,1472.12,162.5504,1463.23,166.7894" style="stroke:#404040;stroke-width:1.2;"/><text fill="#000000" font-family="sans-serif" font-size="13" lengthAdjust="spacing" textLength="49.1372" x="2234.5" y="115.1045">identifier</text></g><!--link SubstantiveValueDomain to XsdAnyUri--><g class="link" data-entity-1="ent0047" data-entity-2="ent0002" data-link-type="dependency" data-source-line="58" id="lnk48"><path codeLine="58" d="M2437.48,70.7294 C2404.49,84.8494 2345.53,108.0894 2292.5,118.6094 C2129.3,150.9794 1606.9087,163.9328 1469.4387,166.8328" fill="none" id="SubstantiveValueDomain-to-XsdAnyUri" style="stroke:#404040;stroke-width:1.2;stroke-dasharray:7,7;"/><polygon fill="#404040" points="1463.44,166.9594,1472.5224,170.7687,1468.4389,166.8539,1472.3536,162.7704,1463.44,166.9594" style="stroke:#404040;stroke-width:1.2;"/><text fill="#000000" font-family="sans-serif" font-size="13" lengthAdjust="spacing" textLength="49.1372" x="2355.5" y="115.1045">identifier</text></g><!--link SentinelValueDomain to XsdAnyUri--><g class="link" data-entity-1="ent0049" data-entity-2="ent0002" data-link-type="dependency" data-source-line="60" id="lnk50"><path codeLine="60" d="M2596.33,70.6994 C2554.35,84.7894 2479.56,107.9994 2413.5,118.6094 C2224.34,148.9994 1618.2886,163.6209 1469.3786,166.8109" fill="none" id="SentinelValueDomain-to-XsdAnyUri" style="stroke:#404040;stroke-width:1.2;stroke-dasharray:7,7;"/><polygon fill="#404040" points="1463.38,166.9394,1472.4636,170.7457,1468.3789,166.8323,1472.2923,162.7475,1463.38,166.9394" style="stroke:#404040;stroke-width:1.2;"/><text fill="#000000" font-family="sans-serif" font-size="13" lengthAdjust="spacing" textLength="49.1372" x="2492.5" y="115.1045">identifier</text></g><!--link AbstractDataStructureComponent to XsdAnyUri--><g class="link" data-entity-1="ent0051" data-entity-2="ent0002" data-link-type="dependency" data-source-line="62" id="lnk52"><path codeLine="62" d="M2777.12,70.6594 C2724.81,84.7194 2631.77,107.8894 2550.5,118.6094 C2332.09,147.4094 1630.1687,163.4641 1469.2487,166.8241" fill="none" id="AbstractDataStructureComponent-to-XsdAnyUri" style="stroke:#404040;stroke-width:1.2;stroke-dasharray:7,7;"/><polygon fill="#404040" points="1463.25,166.9494,1472.3315,170.7606,1468.2489,166.845,1472.1645,162.7624,1463.25,166.9494" style="stroke:#404040;stroke-width:1.2;"/><text fill="#000000" font-family="sans-serif" font-size="13" lengthAdjust="spacing" textLength="49.1372" x="2647.5" y="115.1045">identifier</text></g><!--link AbstractDataStructure to XsdAnyUri--><g class="link" data-entity-1="ent0053" data-entity-2="ent0002" data-link-type="dependency" data-source-line="64" id="lnk54"><path codeLine="64" d="M2961.88,70.6094 C2902.69,84.6694 2797.22,107.9094 2705.5,118.6094 C2454.26,147.9294 1642.599,163.8215 1469.059,166.9415" fill="none" id="AbstractDataStructure-to-XsdAnyUri" style="stroke:#404040;stroke-width:1.2;stroke-dasharray:7,7;"/><polygon fill="#404040" points="1463.06,167.0494,1472.1304,170.8869,1468.0592,166.9595,1471.9866,162.8882,1463.06,167.0494" style="stroke:#404040;stroke-width:1.2;"/><text fill="#000000" font-family="sans-serif" font-size="13" lengthAdjust="spacing" textLength="49.1372" x="2815.5" y="115.1045">identifier</text></g><!--link DimensionGroup to XsdAnyUri--><g class="link" data-entity-1="ent0055" data-entity-2="ent0002" data-link-type="dependency" data-source-line="66" id="lnk56"><path codeLine="66" d="M3110.73,70.6494 C3056.14,84.8094 2958.59,108.2094 2873.5,118.6094 C2587.37,153.5994 1656.5997,165.205 1469.2797,167.215" fill="none" id="DimensionGroup-to-XsdAnyUri" style="stroke:#404040;stroke-width:1.2;stroke-dasharray:7,7;"/><polygon fill="#404040" points="1463.28,167.2794,1472.3224,171.1826,1468.2797,167.2257,1472.2366,163.183,1463.28,167.2794" style="stroke:#404040;stroke-width:1.2;"/><text fill="#000000" font-family="sans-serif" font-size="13" lengthAdjust="spacing" textLength="49.1372" x="2974.5" y="115.1045">identifier</text></g><!--link PrimaryKeyComponent to XsdAnyUri--><g class="link" data-entity-1="ent0057" data-entity-2="ent0002" data-link-type="dependency" data-source-line="68" id="lnk58"><path codeLine="68" d="M3260.44,70.7094 C3208.05,84.9294 3114.37,108.3894 3032.5,118.6094 C2713.07,158.4694 1668.4199,166.265 1469.2499,167.405" fill="none" id="PrimaryKeyComponent-to-XsdAnyUri" style="stroke:#404040;stroke-width:1.2;stroke-dasharray:7,7;"/><polygon fill="#404040" points="1463.25,167.4394,1472.2727,171.3878,1468.2499,167.4108,1472.227,163.3879,1463.25,167.4394" style="stroke:#404040;stroke-width:1.2;"/><text fill="#000000" font-family="sans-serif" font-size="13" lengthAdjust="spacing" textLength="49.1372" x="3137.5" y="115.1045">identifier</text></g><!--link ForeignKey to XsdAnyUri--><g class="link" data-entity-1="ent0059" data-entity-2="ent0002" data-link-type="dependency" data-source-line="70" id="lnk60"><path codeLine="70" d="M3401.77,69.9194 C3355.73,84.1094 3270.36,108.4094 3195.5,118.6094 C2842.22,166.7294 1679.59,167.8651 1469.12,167.6651" fill="none" id="ForeignKey-to-XsdAnyUri" style="stroke:#404040;stroke-width:1.2;stroke-dasharray:7,7;"/><polygon fill="#404040" points="1463.12,167.6594,1472.1162,171.6679,1468.12,167.6641,1472.1238,163.6679,1463.12,167.6594" style="stroke:#404040;stroke-width:1.2;"/><text fill="#000000" font-family="sans-serif" font-size="13" lengthAdjust="spacing" textLength="49.1372" x="3289.5" y="115.1045">identifier</text></g><!--link ForeignKeyComponent to XsdAnyUri--><g class="link" data-entity-1="ent0061" data-entity-2="ent0002" data-link-type="dependency" data-source-line="72" id="lnk62"><path codeLine="72" d="M3535.32,70.6994 C3492.54,85.0294 3415.53,108.7294 3347.5,118.6094 C3153.94,146.7294 1706.3496,164.4403 1469.1796,167.1703" fill="none" id="ForeignKeyComponent-to-XsdAnyUri" style="stroke:#404040;stroke-width:1.2;stroke-dasharray:7,7;"/><polygon fill="#404040" points="1463.18,167.2394,1472.2254,171.1355,1468.1797,167.1818,1472.1334,163.1361,1463.18,167.2394" style="stroke:#404040;stroke-width:1.2;"/><text fill="#000000" font-family="sans-serif" font-size="13" lengthAdjust="spacing" textLength="49.1372" x="3434.5" y="115.1045">identifier</text></g><?plantuml-src fLR9Rjim4BthAuZa7ZHfUoa20wgN8YW2fB7JzafBuuG8HGf3AgbRzDzBYUAY9RAJsXVD6_hDusoMPfe3-QdoLEpla2KFB0UICSmus6SeIhqd1HHRG9MeHoPAYhGWwe7cyfc9UxAZN47aIH7by-Q1POy2b2BdPnUHC-FKO7yIOe_D9PT8JZ-ygxy6_2mn1-oZAodqclq6SdwH_4qIot7YHPyGgi8LoELbJZNTx4kOpSZfAbr-NBnFw5Pff9bk1PpCPL5AnJJSeDmn3Wr77oIdo-QJ31ndPxCeuYTYCYKqsp50fsvXD2ZG3M_xxEcStMUfaCS_NyXdmINDFOS3EaGUxBDb9cj6rPqXFNHk9x5G6pbzRdZ77x1DRwuQUVRH2slDmnHfffaKjw0gRdCL0vwk0qxeTyc37HEGRm0BcxjWXzH5s42cYBnhq8xtoijlQ8FfMIDeehXfdhFwGfIRVYe1zTvUVG2710nT0tx1z5pcu8BSmWuGH6PRsrkUCY1ZIb_s8d1QIt5nZA2dkZvFhBr63FXe7N0GK44UQeVi2V8LIbSxRqUr2zYO-2b_N_xSj3oNzxUGcTLZjq2CX1NGGG_tu7UAZ6uvN0DL5OAbxeEUVU0uF3dhqjo3ykMlUiWRzWxYgRleOTvl5UMcIAsIXhWBUUOUtASkG2FB_Em8fQdf9tTJEq4zCCnHtp6Xkx_QqzQ-fcLf_f_iQ7MnC5Sz_0rXwfsvRXTz3nk4SVZXAjmWAoZkluARAMT64-MX8vf5coPGccNATeetGvi4w0YwQblNnuopgH2lO24BoeIb7dM5CEFk8qBMW00-Y3V4Gx0HtrihhB7Aj6dpvbL0k96RFZ9U_-6n_zNqifHf1SUynh02X3BxyWlAghGRkGE5fTo5NzFYtPoEu2DDVrJssaWhYS3kXHkcO7hU27eDNLVu23uIu2ZX_m00?></g></svg>