<svg xmlns="http://www.w3.org/2000/svg" xmlns:xlink="http://www.w3.org/1999/xlink" contentStyleType="text/css" data-diagram-type="CLASS" height="506px" preserveAspectRatio="none" style="width:1569px;height:506px;background:#FFFFFF;" version="1.1" viewBox="0 0 1569 506" width="1569px" zoomAndPan="magnify"><?plantuml 1.2026.3?><defs/><g><g class="title" data-source-line="1"><text fill="#000000" font-family="sans-serif" font-size="14" font-weight="700" lengthAdjust="spacing" textLength="244.7061" x="658.7683" y="24.5332">CDIFArchiveDistribution &#8212; overview</text></g><!--class ArchiveDistribution--><g class="entity" data-qualified-name="ArchiveDistribution" data-source-line="12" id="ent0002"><rect fill="#FEFECE" height="25.0938" rx="2.5" ry="2.5" style="stroke:#404040;stroke-width:0.5;" width="106.0371" x="219" y="45.6094"/><text fill="#000000" font-family="sans-serif" font-size="12" lengthAdjust="spacing" textLength="100.0371" x="222" y="63.0664">ArchiveDistribution</text></g><!--class ArchivePart--><g class="entity" data-qualified-name="ArchivePart" data-source-line="13" id="ent0003"><rect fill="#FEFECE" height="25.0938" rx="2.5" ry="2.5" style="stroke:#404040;stroke-width:0.5;" width="68.0215" x="238" y="150.1094"/><text fill="#000000" font-family="sans-serif" font-size="12" lengthAdjust="spacing" textLength="62.0215" x="241" y="167.5664">ArchivePart</text></g><!--class QuantitativeValue--><g class="entity" data-qualified-name="QuantitativeValue" data-source-line="14" id="ent0004"><rect fill="#FEFECE" height="25.0938" rx="2.5" ry="2.5" style="stroke:#404040;stroke-width:0.5;" width="100.7285" x="105.5" y="261.6094"/><text fill="#000000" font-family="sans-serif" font-size="12" lengthAdjust="spacing" textLength="94.7285" x="108.5" y="279.0664">QuantitativeValue</text></g><!--class Checksum--><g class="entity" data-qualified-name="Checksum" data-source-line="15" id="ent0005"><rect fill="#FEFECE" height="25.0938" rx="2.5" ry="2.5" style="stroke:#404040;stroke-width:0.5;" width="62.6836" x="241.5" y="261.6094"/><text fill="#000000" font-family="sans-serif" font-size="12" lengthAdjust="spacing" textLength="56.6836" x="244.5" y="279.0664">Checksum</text></g><!--class Dataset--><g class="entity" data-qualified-name="Dataset" data-source-line="16" id="ent0006"><rect fill="#FEFECE" height="25.0938" rx="2.5" ry="2.5" style="stroke:#404040;stroke-width:0.5;" width="47.3555" x="957.5" y="45.6094"/><text fill="#000000" font-family="sans-serif" font-size="12" lengthAdjust="spacing" textLength="41.3555" x="960.5" y="63.0664">Dataset</text></g><!--class AbstractDistribution--><g class="entity" data-qualified-name="AbstractDistribution" data-source-line="17" id="ent0007"><rect fill="#D6EAF8" height="25.0938" rx="2.5" ry="2.5" style="stroke:#404040;stroke-width:0.5;" width="110.0391" x="403" y="150.1094"/><text fill="#000000" font-family="sans-serif" font-size="12" font-style="italic" lengthAdjust="spacing" textLength="104.0391" x="406" y="167.5664">AbstractDistribution</text></g><!--class DataDownload--><g class="entity" data-qualified-name="DataDownload" data-source-line="18" id="ent0008"><rect fill="#FEFECE" height="25.0938" rx="2.5" ry="2.5" style="stroke:#404040;stroke-width:0.5;" width="84.7148" x="427.5" y="261.6094"/><text fill="#000000" font-family="sans-serif" font-size="12" lengthAdjust="spacing" textLength="78.7148" x="430.5" y="279.0664">DataDownload</text></g><!--class WebAPI--><g class="entity" data-qualified-name="WebAPI" data-source-line="19" id="ent0009"><rect fill="#D6EAF8" height="25.0938" rx="2.5" ry="2.5" style="stroke:#404040;stroke-width:0.5;" width="50.0156" x="342" y="261.6094"/><text fill="#000000" font-family="sans-serif" font-size="12" lengthAdjust="spacing" textLength="44.0156" x="345" y="279.0664">WebAPI</text></g><!--class Action--><g class="entity" data-qualified-name="Action" data-source-line="20" id="ent0010"><rect fill="#D6EAF8" height="25.0938" rx="2.5" ry="2.5" style="stroke:#404040;stroke-width:0.5;" width="39.3516" x="347.5" y="364.6094"/><text fill="#000000" font-family="sans-serif" font-size="12" lengthAdjust="spacing" textLength="33.3516" x="350.5" y="382.0664">Action</text></g><!--class EntryPoint--><g class="entity" data-qualified-name="EntryPoint" data-source-line="21" id="ent0011"><rect fill="#D6EAF8" height="25.0938" rx="2.5" ry="2.5" style="stroke:#404040;stroke-width:0.5;" width="61.3594" x="336.5" y="467.6094"/><text fill="#000000" font-family="sans-serif" font-size="12" lengthAdjust="spacing" textLength="55.3594" x="339.5" y="485.0664">EntryPoint</text></g><!--class ActionResult--><g class="entity" data-qualified-name="ActionResult" data-source-line="22" id="ent0012"><rect fill="#D6EAF8" height="25.0938" rx="2.5" ry="2.5" style="stroke:#404040;stroke-width:0.5;" width="73.3652" x="432.5" y="467.6094"/><text fill="#000000" font-family="sans-serif" font-size="12" lengthAdjust="spacing" textLength="67.3652" x="435.5" y="485.0664">ActionResult</text></g><!--class PropertyValueSpecification--><g class="entity" data-qualified-name="PropertyValueSpecification" data-source-line="23" id="ent0013"><rect fill="#D6EAF8" height="25.0938" rx="2.5" ry="2.5" style="stroke:#404040;stroke-width:0.5;" width="150.082" x="151" y="467.6094"/><text fill="#000000" font-family="sans-serif" font-size="12" lengthAdjust="spacing" textLength="144.082" x="154" y="485.0664">PropertyValueSpecification</text></g><!--class Agent--><g class="entity" data-qualified-name="Agent" data-source-line="24" id="ent0014"><rect fill="#D6EAF8" height="25.0938" rx="2.5" ry="2.5" style="stroke:#404040;stroke-width:0.5;" width="37.3594" x="768.5" y="364.6094"/><text fill="#000000" font-family="sans-serif" font-size="12" font-style="italic" lengthAdjust="spacing" textLength="31.3594" x="771.5" y="382.0664">Agent</text></g><!--class Person--><g class="entity" data-qualified-name="Person" data-source-line="25" id="ent0015"><rect fill="#D6EAF8" height="25.0938" rx="2.5" ry="2.5" style="stroke:#404040;stroke-width:0.5;" width="44.0215" x="718" y="467.6094"/><text fill="#000000" font-family="sans-serif" font-size="12" lengthAdjust="spacing" textLength="38.0215" x="721" y="485.0664">Person</text></g><!--class ContactPoint--><g class="entity" data-qualified-name="ContactPoint" data-source-line="26" id="ent0016"><rect fill="#D6EAF8" height="25.0938" rx="2.5" ry="2.5" style="stroke:#404040;stroke-width:0.5;" width="74.707" x="21.5" y="45.6094"/><text fill="#000000" font-family="sans-serif" font-size="12" lengthAdjust="spacing" textLength="68.707" x="24.5" y="63.0664">ContactPoint</text></g><!--class Organization--><g class="entity" data-qualified-name="Organization" data-source-line="27" id="ent0017"><rect fill="#D6EAF8" height="25.0938" rx="2.5" ry="2.5" style="stroke:#404040;stroke-width:0.5;" width="74.0391" x="797" y="467.6094"/><text fill="#000000" font-family="sans-serif" font-size="12" lengthAdjust="spacing" textLength="68.0391" x="800" y="485.0664">Organization</text></g><!--class Contributor--><g class="entity" data-qualified-name="Contributor" data-source-line="28" id="ent0018"><rect fill="#D6EAF8" height="25.0938" rx="2.5" ry="2.5" style="stroke:#404040;stroke-width:0.5;" width="65.3613" x="628.5" y="206.6094"/><text fill="#000000" font-family="sans-serif" font-size="12" lengthAdjust="spacing" textLength="59.3613" x="631.5" y="224.0664">Contributor</text></g><!--class DefinedTerm--><g class="entity" data-qualified-name="DefinedTerm" data-source-line="29" id="ent0019"><rect fill="#FEFECE" height="25.0938" rx="2.5" ry="2.5" style="stroke:#404040;stroke-width:0.5;" width="75.3574" x="1134.5" y="150.1094"/><text fill="#000000" font-family="sans-serif" font-size="12" lengthAdjust="spacing" textLength="69.3574" x="1137.5" y="167.5664">DefinedTerm</text></g><!--class Identifier--><g class="entity" data-qualified-name="Identifier" data-source-line="30" id="ent0020"><rect fill="#FEFECE" height="25.0938" rx="2.5" ry="2.5" style="stroke:#404040;stroke-width:0.5;" width="52.0254" x="132" y="45.6094"/><text fill="#000000" font-family="sans-serif" font-size="12" lengthAdjust="spacing" textLength="46.0254" x="135" y="63.0664">Identifier</text></g><!--class AdditionalProperty--><g class="entity" data-qualified-name="AdditionalProperty" data-source-line="31" id="ent0021"><rect fill="#D6EAF8" height="25.0938" rx="2.5" ry="2.5" style="stroke:#404040;stroke-width:0.5;" width="104.0566" x="7" y="150.1094"/><text fill="#000000" font-family="sans-serif" font-size="12" lengthAdjust="spacing" textLength="98.0566" x="10" y="167.5664">AdditionalProperty</text></g><!--class Reference--><g class="entity" data-qualified-name="Reference" data-source-line="32" id="ent0022"><rect fill="#D6EAF8" height="25.0938" rx="2.5" ry="2.5" style="stroke:#404040;stroke-width:0.5;" width="61.3652" x="1244.5" y="150.1094"/><text fill="#000000" font-family="sans-serif" font-size="12" lengthAdjust="spacing" textLength="55.3652" x="1247.5" y="167.5664">Reference</text></g><!--class MonetaryGrant--><g class="entity" data-qualified-name="MonetaryGrant" data-source-line="33" id="ent0023"><rect fill="#D6EAF8" height="25.0938" rx="2.5" ry="2.5" style="stroke:#404040;stroke-width:0.5;" width="86.0332" x="737" y="206.6094"/><text fill="#000000" font-family="sans-serif" font-size="12" lengthAdjust="spacing" textLength="80.0332" x="740" y="224.0664">MonetaryGrant</text></g><!--class ProvActivity--><g class="entity" data-qualified-name="ProvActivity" data-source-line="34" id="ent0024"><rect fill="#FEFECE" height="25.0938" rx="2.5" ry="2.5" style="stroke:#404040;stroke-width:0.5;" width="68.6777" x="1340.5" y="150.1094"/><text fill="#000000" font-family="sans-serif" font-size="12" lengthAdjust="spacing" textLength="62.6777" x="1343.5" y="167.5664">ProvActivity</text></g><!--class DerivedFrom--><g class="entity" data-qualified-name="DerivedFrom" data-source-line="35" id="ent0025"><rect fill="#D6EAF8" height="25.0938" rx="2.5" ry="2.5" style="stroke:#404040;stroke-width:0.5;" width="75.3457" x="1469.5" y="150.1094"/><text fill="#000000" font-family="sans-serif" font-size="12" lengthAdjust="spacing" textLength="69.3457" x="1472.5" y="167.5664">DerivedFrom</text></g><!--class CatalogRecord--><g class="entity" data-qualified-name="CatalogRecord" data-source-line="36" id="ent0026"><rect fill="#D6EAF8" height="25.0938" rx="2.5" ry="2.5" style="stroke:#404040;stroke-width:0.5;" width="86.0449" x="852" y="150.1094"/><text fill="#000000" font-family="sans-serif" font-size="12" lengthAdjust="spacing" textLength="80.0449" x="855" y="167.5664">CatalogRecord</text></g><!--reverse link AbstractDistribution to DataDownload--><g class="link" data-entity-1="ent0007" data-entity-2="ent0008" data-link-type="extension" data-source-line="37" id="lnk27"><path codeLine="37" d="M461.2417,193.2222 C463.5517,214.2922 466.42,240.4594 468.73,261.4794" fill="none" id="AbstractDistribution-backto-DataDownload" style="stroke:#404040;stroke-width:1.2;"/><polygon fill="none" points="459.28,175.3294,455.2774,193.8761,467.2059,192.5683,459.28,175.3294" style="stroke:#404040;stroke-width:1.2;"/></g><!--reverse link AbstractDistribution to WebAPI--><g class="link" data-entity-1="ent0007" data-entity-2="ent0009" data-link-type="extension" data-source-line="38" id="lnk28"><path codeLine="38" d="M436.7554,189.173 C419.2454,210.243 394.13,240.4594 376.67,261.4794" fill="none" id="AbstractDistribution-backto-WebAPI" style="stroke:#404040;stroke-width:1.2;"/><polygon fill="none" points="448.26,175.3294,432.1409,185.3381,441.37,193.0078,448.26,175.3294" style="stroke:#404040;stroke-width:1.2;"/></g><!--reverse link Agent to Person--><g class="link" data-entity-1="ent0014" data-entity-2="ent0015" data-link-type="extension" data-source-line="39" id="lnk29"><path codeLine="39" d="M774.0114,406.0169 C764.9914,425.3869 754.55,447.8494 745.47,467.3494" fill="none" id="Agent-backto-Person" style="stroke:#404040;stroke-width:1.2;"/><polygon fill="none" points="781.61,389.6994,768.5723,403.4841,779.4506,408.5498,781.61,389.6994" style="stroke:#404040;stroke-width:1.2;"/></g><!--reverse link Agent to Organization--><g class="link" data-entity-1="ent0014" data-entity-2="ent0017" data-link-type="extension" data-source-line="40" id="lnk30"><path codeLine="40" d="M799.9886,406.0169 C809.0086,425.3869 819.45,447.8494 828.53,467.3494" fill="none" id="Agent-backto-Organization" style="stroke:#404040;stroke-width:1.2;"/><polygon fill="none" points="792.39,389.6994,794.5494,408.5498,805.4277,403.4841,792.39,389.6994" style="stroke:#404040;stroke-width:1.2;"/></g><!--reverse link ArchiveDistribution to ArchivePart--><g class="link" data-entity-1="ent0002" data-entity-2="ent0003" data-link-type="composition" data-source-line="41" id="lnk31"><path codeLine="41" d="M272,82.8694 C272,102.6394 272,130.3094 272,149.9894" fill="none" id="ArchiveDistribution-backto-ArchivePart" style="stroke:#404040;stroke-width:1.2;"/><polygon fill="#404040" points="272,70.8694,268,76.8694,272,82.8694,276,76.8694,272,70.8694" style="stroke:#404040;stroke-width:1.2;"/><text fill="#000000" font-family="sans-serif" font-size="13" lengthAdjust="spacing" textLength="44.8018" x="273" y="115.1045">hasPart</text><text fill="#000000" font-family="sans-serif" font-size="13" lengthAdjust="spacing" textLength="19.5127" x="249.1826" y="139.0319">1..*</text></g><!--link ArchivePart to ArchivePart--><g class="link" data-entity-1="ent0003" data-entity-2="ent0003" data-link-type="dependency" data-source-line="42" id="lnk32"><path codeLine="42" d="M306.08,153.2594 C324.35,151.6694 341,154.7894 341,162.6094 C341,170.4294 330.3274,174.0696 312.0574,172.4796" fill="none" id="ArchivePart-to-ArchivePart" style="stroke:#404040;stroke-width:1.2;"/><polygon fill="#404040" points="306.08,171.9594,314.6993,176.7246,311.0612,172.3929,315.3929,168.7547,306.08,171.9594" style="stroke:#404040;stroke-width:1.2;"/><text fill="#000000" font-family="sans-serif" font-size="13" lengthAdjust="spacing" textLength="32.5317" x="347" y="168.1045">about</text><text fill="#000000" font-family="sans-serif" font-size="13" lengthAdjust="spacing" textLength="19.5127" x="313.8864" y="169.7179">0..*</text></g><!--reverse link ArchivePart to Checksum--><g class="link" data-entity-1="ent0003" data-entity-2="ent0005" data-link-type="composition" data-source-line="43" id="lnk33"><path codeLine="43" d="M272.2182,187.3289 C272.4082,208.3989 272.7,240.4594 272.89,261.4794" fill="none" id="ArchivePart-backto-Checksum" style="stroke:#404040;stroke-width:1.2;"/><polygon fill="#404040" points="272.11,175.3294,268.1643,181.3652,272.2182,187.3289,276.1639,181.2931,272.11,175.3294" style="stroke:#404040;stroke-width:1.2;"/><text fill="#000000" font-family="sans-serif" font-size="13" lengthAdjust="spacing" textLength="58.519" x="274" y="224.6045">checksum</text><text fill="#000000" font-family="sans-serif" font-size="13" lengthAdjust="spacing" textLength="21.6836" x="247.7196" y="250.5178">0..1</text></g><!--reverse link ArchivePart to QuantitativeValue--><g class="link" data-entity-1="ent0003" data-entity-2="ent0004" data-link-type="composition" data-source-line="44" id="lnk34"><path codeLine="44" d="M250.862,183.5648 C228.532,204.6348 190.59,240.4594 168.32,261.4794" fill="none" id="ArchivePart-backto-QuantitativeValue" style="stroke:#404040;stroke-width:1.2;"/><polygon fill="#404040" points="259.59,175.3294,252.4809,176.5378,250.862,183.5648,257.9712,182.3564,259.59,175.3294" style="stroke:#404040;stroke-width:1.2;"/><text fill="#000000" font-family="sans-serif" font-size="13" lengthAdjust="spacing" textLength="23.1182" x="226" y="224.6045">size</text><text fill="#000000" font-family="sans-serif" font-size="13" lengthAdjust="spacing" textLength="21.6836" x="148.2677" y="250.5178">0..1</text></g><!--link Dataset to Agent--><g class="link" data-entity-1="ent0006" data-entity-2="ent0014" data-link-type="dependency" data-source-line="45" id="lnk35"><path codeLine="45" d="M984.59,71.0494 C987.71,83.1294 991.26,102.2894 988,118.6094 C972.14,197.9294 969.06,223.8694 918,286.6094 C886.36,325.4894 838.8974,351.7193 810.9874,365.1393" fill="none" id="Dataset-to-Agent" style="stroke:#404040;stroke-width:1.2;"/><polygon fill="#404040" points="805.58,367.7394,815.4244,367.4442,810.0862,365.5727,811.9577,360.2344,805.58,367.7394" style="stroke:#404040;stroke-width:1.2;"/><text fill="#000000" font-family="sans-serif" font-size="13" lengthAdjust="spacing" textLength="46.9663" x="968" y="224.6045">provider</text><text fill="#000000" font-family="sans-serif" font-size="13" lengthAdjust="spacing" textLength="19.5127" x="813.851" y="360.1699">0..*</text></g><!--link Dataset to Agent--><g class="link" data-entity-1="ent0006" data-entity-2="ent0014" data-link-type="dependency" data-source-line="47" id="lnk37"><path codeLine="47" d="M993.99,70.8494 C1001.53,78.5194 1010.43,89.1994 1015,100.6094 C1036.68,154.7594 1047.46,178.6594 1023,231.6094 C981.49,321.4494 859.7998,358.8503 811.5698,370.5903" fill="none" id="Dataset-to-Agent-1" style="stroke:#404040;stroke-width:1.2;"/><polygon fill="#404040" points="805.74,372.0094,815.4307,373.7673,810.5981,370.8268,813.5386,365.9943,805.74,372.0094" style="stroke:#404040;stroke-width:1.2;"/><text fill="#000000" font-family="sans-serif" font-size="13" lengthAdjust="spacing" textLength="40.46" x="1034" y="224.6045">creator</text><text fill="#000000" font-family="sans-serif" font-size="13" lengthAdjust="spacing" textLength="19.5127" x="813.7041" y="386.3564">0..*</text></g><!--link Dataset to Agent--><g class="link" data-entity-1="ent0006" data-entity-2="ent0014" data-link-type="dependency" data-source-line="49" id="lnk39"><path codeLine="49" d="M957.43,58.4594 C906.69,57.8994 784.28,61.1494 692,100.6094 C621.86,130.6094 590.36,137.9994 557,206.6094 C510.15,302.9594 700.2591,356.0167 762.6391,370.6767" fill="none" id="Dataset-to-Agent-2" style="stroke:#404040;stroke-width:1.2;"/><polygon fill="#404040" points="768.48,372.0494,760.6338,366.0965,763.6126,370.9055,758.8036,373.8843,768.48,372.0494" style="stroke:#404040;stroke-width:1.2;"/><text fill="#000000" font-family="sans-serif" font-size="13" lengthAdjust="spacing" textLength="52.7554" x="558" y="224.6045">publisher</text><text fill="#000000" font-family="sans-serif" font-size="13" lengthAdjust="spacing" textLength="21.6836" x="738.6423" y="365.5843">0..1</text></g><!--link Dataset to AbstractDistribution--><g class="link" data-entity-1="ent0006" data-entity-2="ent0007" data-link-type="dependency" data-source-line="46" id="lnk36"><path codeLine="46" d="M957.38,59.5094 C862.66,61.2994 513.7,69.9394 476,100.6094 C461.27,112.5994 458.3932,130.0122 457.9632,144.0922" fill="none" id="Dataset-to-AbstractDistribution" style="stroke:#404040;stroke-width:1.2;"/><polygon fill="#404040" points="457.78,150.0894,462.0529,141.2157,457.9326,145.0917,454.0566,140.9715,457.78,150.0894" style="stroke:#404040;stroke-width:1.2;"/><text fill="#000000" font-family="sans-serif" font-size="13" lengthAdjust="spacing" textLength="62.8672" x="477" y="115.1045">distribution</text><text fill="#000000" font-family="sans-serif" font-size="13" lengthAdjust="spacing" textLength="19.5127" x="434.8682" y="139.1732">0..*</text></g><!--link Dataset to Contributor--><g class="link" data-entity-1="ent0006" data-entity-2="ent0018" data-link-type="dependency" data-source-line="48" id="lnk38"><path codeLine="48" d="M957.44,60.0494 C900.05,62.7594 754.93,72.3094 717,100.6094 C681.32,127.2294 668.4982,176.5626 663.9782,200.6126" fill="none" id="Dataset-to-Contributor" style="stroke:#404040;stroke-width:1.2;"/><polygon fill="#404040" points="662.87,206.5094,668.4635,198.4031,663.7935,201.5954,660.6012,196.9254,662.87,206.5094" style="stroke:#404040;stroke-width:1.2;"/><text fill="#000000" font-family="sans-serif" font-size="13" lengthAdjust="spacing" textLength="61.4199" x="718" y="115.1045">contributor</text><text fill="#000000" font-family="sans-serif" font-size="13" lengthAdjust="spacing" textLength="19.5127" x="640.7538" y="195.5602">0..*</text></g><!--link Dataset to MonetaryGrant--><g class="link" data-entity-1="ent0006" data-entity-2="ent0023" data-link-type="dependency" data-source-line="50" id="lnk40"><path codeLine="50" d="M957.25,61.2694 C912.98,65.7994 820.4,77.7994 799,100.6094 C771.43,129.9994 774.0326,176.8439 777.2226,200.3339" fill="none" id="Dataset-to-MonetaryGrant" style="stroke:#404040;stroke-width:1.2;"/><polygon fill="#404040" points="778.03,206.2794,780.7825,196.823,777.3572,201.3249,772.8553,197.8995,778.03,206.2794" style="stroke:#404040;stroke-width:1.2;"/><text fill="#000000" font-family="sans-serif" font-size="13" lengthAdjust="spacing" textLength="42.6499" x="800" y="115.1045">funding</text><text fill="#000000" font-family="sans-serif" font-size="13" lengthAdjust="spacing" textLength="19.5127" x="754.7485" y="195.8822">0..*</text></g><!--link Dataset to ProvActivity--><g class="link" data-entity-1="ent0006" data-entity-2="ent0024" data-link-type="dependency" data-source-line="51" id="lnk41"><path codeLine="51" d="M1004.55,59.2794 C1055.3,60.3294 1178.17,66.4894 1274,100.6094 C1307.19,112.4294 1336.5791,132.3006 1355.4291,146.4306" fill="none" id="Dataset-to-ProvActivity" style="stroke:#404040;stroke-width:1.2;"/><polygon fill="#404040" points="1360.23,150.0294,1355.4278,141.4306,1356.2292,147.0304,1350.6294,147.8318,1360.23,150.0294" style="stroke:#404040;stroke-width:1.2;"/><text fill="#000000" font-family="sans-serif" font-size="13" lengthAdjust="spacing" textLength="99.7217" x="1314" y="115.1045">wasGeneratedBy</text><text fill="#000000" font-family="sans-serif" font-size="13" lengthAdjust="spacing" textLength="19.5127" x="1331.3908" y="139.0884">0..*</text></g><!--link Dataset to DerivedFrom--><g class="link" data-entity-1="ent0006" data-entity-2="ent0025" data-link-type="dependency" data-source-line="52" id="lnk42"><path codeLine="52" d="M1004.52,59.7094 C1084.34,61.9894 1344.31,71.5294 1422,100.6094 C1451.43,111.6294 1475.5214,131.5071 1490.8914,145.9071" fill="none" id="Dataset-to-DerivedFrom" style="stroke:#404040;stroke-width:1.2;"/><polygon fill="#404040" points="1495.27,150.0094,1491.437,140.937,1491.6212,146.5909,1485.9673,146.7751,1495.27,150.0094" style="stroke:#404040;stroke-width:1.2;"/><text fill="#000000" font-family="sans-serif" font-size="13" lengthAdjust="spacing" textLength="98.2427" x="1455" y="115.1045">wasDerivedFrom</text><text fill="#000000" font-family="sans-serif" font-size="13" lengthAdjust="spacing" textLength="19.5127" x="1467.5471" y="139.0602">0..*</text></g><!--link Dataset to CatalogRecord--><g class="link" data-entity-1="ent0006" data-entity-2="ent0026" data-link-type="dependency" data-source-line="53" id="lnk43"><path codeLine="53" d="M957.29,59.1094 C927.56,60.5494 877.63,68.0294 854,100.6094 C841.79,117.4494 856.9954,133.9097 873.1054,146.3097" fill="none" id="Dataset-to-CatalogRecord" style="stroke:#404040;stroke-width:1.2;"/><polygon fill="#404040" points="877.86,149.9694,873.1678,141.3101,873.8978,146.9196,868.2882,147.6496,877.86,149.9694" style="stroke:#404040;stroke-width:1.2;"/><text fill="#000000" font-family="sans-serif" font-size="13" lengthAdjust="spacing" textLength="54.9136" x="855" y="115.1045">subjectOf</text><text fill="#000000" font-family="sans-serif" font-size="13" lengthAdjust="spacing" textLength="7.23" x="862.3842" y="139.0037">1</text></g><!--link CatalogRecord to Dataset--><g class="link" data-entity-1="ent0026" data-entity-2="ent0006" data-link-type="dependency" data-source-line="63" id="lnk53"><path codeLine="63" d="M904.75,149.9894 C921.26,130.3094 950.6945,95.2367 967.2745,75.4667" fill="none" id="CatalogRecord-to-Dataset" style="stroke:#404040;stroke-width:1.2;"/><polygon fill="#404040" points="971.13,70.8694,962.2819,75.195,967.9171,74.7005,968.4116,80.3357,971.13,70.8694" style="stroke:#404040;stroke-width:1.2;"/><text fill="#000000" font-family="sans-serif" font-size="13" lengthAdjust="spacing" textLength="32.5317" x="947" y="115.1045">about</text><text fill="#000000" font-family="sans-serif" font-size="13" lengthAdjust="spacing" textLength="21.6836" x="942.4265" y="92.3284">0..1</text></g><!--link Dataset to DefinedTerm--><g class="link" data-entity-1="ent0006" data-entity-2="ent0019" data-link-type="dependency" data-source-line="54" id="lnk44"><path codeLine="54" d="M1004.58,63.6494 C1030.91,69.4294 1074.13,81.0894 1107,100.6094 C1129.35,113.8894 1146.4345,131.4717 1158.2345,145.1117" fill="none" id="Dataset-to-DefinedTerm" style="stroke:#404040;stroke-width:1.2;"/><polygon fill="#404040" points="1162.16,149.6494,1159.2968,140.2259,1158.8887,145.868,1153.2466,145.4599,1162.16,149.6494" style="stroke:#404040;stroke-width:1.2;"/><text fill="#000000" font-family="sans-serif" font-size="13" lengthAdjust="spacing" textLength="54.9072" x="1132" y="115.1045">keywords</text><text fill="#000000" font-family="sans-serif" font-size="13" lengthAdjust="spacing" textLength="19.5127" x="1135.8162" y="139.2026">0..*</text></g><!--link Dataset to Reference--><g class="link" data-entity-1="ent0006" data-entity-2="ent0022" data-link-type="dependency" data-source-line="55" id="lnk45"><path codeLine="55" d="M1004.53,60.1794 C1045.1,62.7594 1130.08,71.4994 1195,100.6094 C1222.25,112.8294 1244.4565,131.7896 1259.0765,145.7896" fill="none" id="Dataset-to-Reference" style="stroke:#404040;stroke-width:1.2;"/><polygon fill="#404040" points="1263.41,149.9394,1259.6762,140.8257,1259.7987,146.4812,1254.1432,146.6038,1263.41,149.9394" style="stroke:#404040;stroke-width:1.2;"/><text fill="#000000" font-family="sans-serif" font-size="13" lengthAdjust="spacing" textLength="40.4663" x="1225" y="115.1045">license</text><text fill="#000000" font-family="sans-serif" font-size="13" lengthAdjust="spacing" textLength="19.5127" x="1236.1348" y="139.3464">0..*</text></g><!--link DataDownload to Agent--><g class="link" data-entity-1="ent0008" data-entity-2="ent0014" data-link-type="dependency" data-source-line="56" id="lnk46"><path codeLine="56" d="M470.84,286.7694 C472.5,300.4794 477.42,322.8594 492,334.6094 C534.89,369.1694 704.6308,374.8487 762.4608,375.8187" fill="none" id="DataDownload-to-Agent" style="stroke:#404040;stroke-width:1.2;"/><polygon fill="#404040" points="768.46,375.9194,759.5283,371.769,763.4607,375.8355,759.3942,379.7679,768.46,375.9194" style="stroke:#404040;stroke-width:1.2;"/><text fill="#000000" font-family="sans-serif" font-size="13" lengthAdjust="spacing" textLength="46.9663" x="493" y="331.1045">provider</text><text fill="#000000" font-family="sans-serif" font-size="13" lengthAdjust="spacing" textLength="19.5127" x="740.8962" y="391.5395">0..*</text></g><!--link WebAPI to Action--><g class="link" data-entity-1="ent0009" data-entity-2="ent0010" data-link-type="dependency" data-source-line="57" id="lnk47"><path codeLine="57" d="M366.2,286.9594 C365.48,298.9694 364.6,318.0794 365,334.6094 C365.24,344.7094 365.4816,350.1789 365.9516,358.4989" fill="none" id="WebAPI-to-Action" style="stroke:#404040;stroke-width:1.2;"/><polygon fill="#404040" points="366.29,364.4894,369.776,355.2781,366.008,359.4973,361.7888,355.7293,366.29,364.4894" style="stroke:#404040;stroke-width:1.2;"/><text fill="#000000" font-family="sans-serif" font-size="13" lengthAdjust="spacing" textLength="85.2808" x="366" y="331.1045">potentialAction</text><text fill="#000000" font-family="sans-serif" font-size="13" lengthAdjust="spacing" textLength="19.5127" x="343.1116" y="353.5319">0..*</text></g><!--link Action to EntryPoint--><g class="link" data-entity-1="ent0010" data-entity-2="ent0011" data-link-type="dependency" data-source-line="58" id="lnk48"><path codeLine="58" d="M367,389.6994 C367,409.0694 367,441.8494 367,461.3494" fill="none" id="Action-to-EntryPoint" style="stroke:#404040;stroke-width:1.2;"/><polygon fill="#404040" points="367,467.3494,371,458.3494,367,462.3494,363,458.3494,367,467.3494" style="stroke:#404040;stroke-width:1.2;"/><text fill="#000000" font-family="sans-serif" font-size="13" lengthAdjust="spacing" textLength="33.2427" x="368" y="434.1045">target</text><text fill="#000000" font-family="sans-serif" font-size="13" lengthAdjust="spacing" textLength="7.23" x="358.5964" y="456.721">1</text></g><!--link Action to ActionResult--><g class="link" data-entity-1="ent0010" data-entity-2="ent0012" data-link-type="dependency" data-source-line="59" id="lnk49"><path codeLine="59" d="M379.12,389.6694 C387.77,397.9494 399.66,409.4094 410,419.6094 C426.57,435.9594 441.2666,450.8279 453.1166,462.8979" fill="none" id="Action-to-ActionResult" style="stroke:#404040;stroke-width:1.2;"/><polygon fill="#404040" points="457.32,467.1794,453.8692,457.9549,453.8171,463.6115,448.1605,463.5594,457.32,467.1794" style="stroke:#404040;stroke-width:1.2;"/><text fill="#000000" font-family="sans-serif" font-size="13" lengthAdjust="spacing" textLength="31.7891" x="429" y="434.1045">result</text><text fill="#000000" font-family="sans-serif" font-size="13" lengthAdjust="spacing" textLength="21.6836" x="427.9246" y="456.7441">0..1</text></g><!--link Action to PropertyValueSpecification--><g class="link" data-entity-1="ent0010" data-entity-2="ent0013" data-link-type="dependency" data-source-line="60" id="lnk50"><path codeLine="60" d="M347.45,388.3294 C332.86,396.2394 312.66,407.7994 296,419.6094 C274.66,434.7394 256.3366,450.8273 242.7666,463.3673" fill="none" id="Action-to-PropertyValueSpecification" style="stroke:#404040;stroke-width:1.2;"/><polygon fill="#404040" points="238.36,467.4394,247.6846,464.2689,242.0321,464.046,242.2551,458.3935,238.36,467.4394" style="stroke:#404040;stroke-width:1.2;"/><text fill="#000000" font-family="sans-serif" font-size="13" lengthAdjust="spacing" textLength="61.4326" x="297" y="434.1045">queryInput</text><text fill="#000000" font-family="sans-serif" font-size="13" lengthAdjust="spacing" textLength="19.5127" x="220.5709" y="456.8464">0..*</text></g><!--link Contributor to Agent--><g class="link" data-entity-1="ent0018" data-entity-2="ent0014" data-link-type="dependency" data-source-line="61" id="lnk51"><path codeLine="61" d="M669.64,232.0394 C679.45,245.4794 696.03,267.8794 711,286.6094 C733.78,315.1094 757.9052,342.9972 772.7352,359.9172" fill="none" id="Contributor-to-Agent" style="stroke:#404040;stroke-width:1.2;"/><polygon fill="#404040" points="776.69,364.4294,773.7659,355.0246,773.3943,360.6692,767.7497,360.2977,776.69,364.4294" style="stroke:#404040;stroke-width:1.2;"/><text fill="#000000" font-family="sans-serif" font-size="13" lengthAdjust="spacing" textLength="61.4199" x="712" y="279.6045">contributor</text><text fill="#000000" font-family="sans-serif" font-size="13" lengthAdjust="spacing" textLength="21.6836" x="776.8286" y="353.8325">0..1</text></g><!--link MonetaryGrant to Agent--><g class="link" data-entity-1="ent0023" data-entity-2="ent0014" data-link-type="dependency" data-source-line="62" id="lnk52"><path codeLine="62" d="M780.53,231.8394 C781.82,260.7494 784.8897,329.2055 786.1997,358.2555" fill="none" id="MonetaryGrant-to-Agent" style="stroke:#404040;stroke-width:1.2;"/><polygon fill="#404040" points="786.47,364.2494,790.0605,355.0783,786.2448,359.2545,782.0686,355.4387,786.47,364.2494" style="stroke:#404040;stroke-width:1.2;"/><text fill="#000000" font-family="sans-serif" font-size="13" lengthAdjust="spacing" textLength="36.8608" x="784" y="279.6045">funder</text><text fill="#000000" font-family="sans-serif" font-size="13" lengthAdjust="spacing" textLength="19.5127" x="763.6753" y="353.8408">0..*</text></g><!--link CatalogRecord to Agent--><g class="link" data-entity-1="ent0026" data-entity-2="ent0014" data-link-type="dependency" data-source-line="64" id="lnk54"><path codeLine="64" d="M889.57,175.3594 C876.58,203.2794 842.47,275.6694 811,334.6094 C805.51,344.8894 801.9158,351.1818 797.0058,359.4418" fill="none" id="CatalogRecord-to-Agent" style="stroke:#404040;stroke-width:1.2;"/><polygon fill="#404040" points="793.94,364.5994,801.9771,358.9069,796.4949,360.3014,795.1004,354.8191,793.94,364.5994" style="stroke:#404040;stroke-width:1.2;"/><text fill="#000000" font-family="sans-serif" font-size="13" lengthAdjust="spacing" textLength="60.6963" x="849" y="279.6045">maintainer</text><text fill="#000000" font-family="sans-serif" font-size="13" lengthAdjust="spacing" textLength="21.6836" x="801.2009" y="353.6873">0..1</text></g><?plantuml-src VLNTQjim5BxtKnpIkq9AKyOOPWpI_9HSZ6PjsQvb-IJMuaYU92Uuss0FiIVSaqos_2FRIWc1SpvzEZx_qaod28lbPZsND64dN3Ab9OjopGI7Vt_-WZYXF34y1mcB4IYJD4Khup7J1Hpn6A5KWJemdX59Zg0I4eiputlOaLIXSpANKfnV4aOF79M2sSsTSqXJOh2V0LZQGgH2mjMxs_9dm7iXOvH3T2suVcQl2BExu7SGM1iJJomJ80fyCLwjL-lLOZMukYLIkrTAVKZzaXEkcIRQd7ybQOxLXH4wlBP8a1vKVgpOZJ8aBOac2gqBjTnII6JS9rH3utAjZyFr7C3LylrgllxWVcWfpZmL96w_rW13hxvXDDzkAfeLXzRcjFiuzNrknRKije9n6rgd-YqzeSfJxTYpm92ybI93gOigtyyPKhPZbBIkN3vk3OrokiVQnKeQVT1qV6Ey4eU4XUbBOwwBr0M6v4Uv9vozTWwxWCzoLKmXMyErFgejxXZ7-0MbRJP77rPs4vieJLhG6ktKqNp4CIlT8ccJLPkb4JnqvWbtA95JEoMjDgHz5XmraSM397NcUeYdygUoCqwiTiG5HaE5qWnbl9QYoKUhZx9ifY0L-oUaPktOFBj8I_UEsCTVqsblZjwWsJaAR9TLY6qe5t7R8V3ji6j3cinkRgudlNqLGa9KAGKkEfr-WicjXqmYaVUfbLr3dKswHHK2hSLBrF46346P7HqqYypre8eoXCoKpRmfqiln9I-4s57VCaqb4ZCSFeexEuROQIFop74rZrAc4h-l_MODOPVpsBo4FcglKqCu4_M072NH6DyNlWjkkrPy1-ZpothrsjKK88--8zMFEx_bRZ64SC3YR2uf7xERsn1IHf4hMzRsnNYhjlMRuL9eNSnCw7BZaDGYGNtGHEEy4o6O_EvHzoXrXTmd8WHP2KEUpVobzo247pdAOiCpCmfkUtWQmUsNVjqzIIWRmQIWNnR7Q9FhPWml4Xk3HsAoOVx6w7y0?></g></svg>