<svg xmlns="http://www.w3.org/2000/svg" xmlns:xlink="http://www.w3.org/1999/xlink" contentStyleType="text/css" data-diagram-type="CLASS" height="202px" preserveAspectRatio="none" style="width:1267px;height:202px;background:#FFFFFF;" version="1.1" viewBox="0 0 1267 202" width="1267px" zoomAndPan="magnify"><?plantuml 1.2026.3?><defs/><g><g class="title" data-source-line="1"><text fill="#000000" font-family="sans-serif" font-size="14" font-weight="700" lengthAdjust="spacing" textLength="56.0205" x="602.4842" y="24.5332">XsdDate</text></g><!--class XsdDate--><g class="entity" data-qualified-name="XsdDate" data-source-line="12" id="ent0002"><rect fill="#FAE5D3" height="40.1875" rx="2.5" ry="2.5" style="stroke:#404040;stroke-width:0.5;" width="65.3809" x="596.05" y="148.6094"/><text fill="#000000" font-family="sans-serif" font-size="12" font-style="italic" lengthAdjust="spacing" textLength="63.3809" x="597.05" y="166.0664">&#171;dataType&#187;</text><text fill="#000000" font-family="sans-serif" font-size="12" lengthAdjust="spacing" textLength="46.0254" x="605.7277" y="181.1602">XsdDate</text></g><!--class Dataset--><g class="entity" data-qualified-name="Dataset" data-source-line="13" id="ent0003"><rect fill="#EEEEEE" height="25.0938" rx="2.5" ry="2.5" style="stroke:#404040;stroke-width:0.5;" width="47.3555" x="60.05" y="45.6094"/><text fill="#000000" font-family="sans-serif" font-size="12" lengthAdjust="spacing" textLength="41.3555" x="63.05" y="63.0664">Dataset</text></g><!--class TemporalExtent--><g class="entity" data-qualified-name="TemporalExtent" data-source-line="16" id="ent0006"><rect fill="#EEEEEE" height="25.0938" rx="2.5" ry="2.5" style="stroke:#404040;stroke-width:0.5;" width="90.7031" x="251.05" y="45.6094"/><text fill="#000000" font-family="sans-serif" font-size="12" lengthAdjust="spacing" textLength="84.7031" x="254.05" y="63.0664">TemporalExtent</text></g><!--class DataDownload--><g class="entity" data-qualified-name="DataDownload" data-source-line="19" id="ent0009"><rect fill="#EEEEEE" height="25.0938" rx="2.5" ry="2.5" style="stroke:#404040;stroke-width:0.5;" width="84.7148" x="466.05" y="45.6094"/><text fill="#000000" font-family="sans-serif" font-size="12" lengthAdjust="spacing" textLength="78.7148" x="469.05" y="63.0664">DataDownload</text></g><!--class Contributor--><g class="entity" data-qualified-name="Contributor" data-source-line="22" id="ent0012"><rect fill="#EEEEEE" height="25.0938" rx="2.5" ry="2.5" style="stroke:#404040;stroke-width:0.5;" width="65.3613" x="699.05" y="45.6094"/><text fill="#000000" font-family="sans-serif" font-size="12" lengthAdjust="spacing" textLength="59.3613" x="702.05" y="63.0664">Contributor</text></g><!--class ProvActivity--><g class="entity" data-qualified-name="ProvActivity" data-source-line="25" id="ent0015"><rect fill="#EEEEEE" height="25.0938" rx="2.5" ry="2.5" style="stroke:#404040;stroke-width:0.5;" width="68.6777" x="902.05" y="45.6094"/><text fill="#000000" font-family="sans-serif" font-size="12" lengthAdjust="spacing" textLength="62.6777" x="905.05" y="63.0664">ProvActivity</text></g><!--class CatalogRecord--><g class="entity" data-qualified-name="CatalogRecord" data-source-line="28" id="ent0018"><rect fill="#EEEEEE" height="25.0938" rx="2.5" ry="2.5" style="stroke:#404040;stroke-width:0.5;" width="86.0449" x="1129.55" y="45.6094"/><text fill="#000000" font-family="sans-serif" font-size="12" lengthAdjust="spacing" textLength="80.0449" x="1132.55" y="63.0664">CatalogRecord</text></g><!--link Dataset to XsdDate--><g class="link" data-entity-1="ent0003" data-entity-2="ent0002" data-link-type="dependency" data-source-line="14" id="lnk4"><path codeLine="14" d="M59.63,69.5194 C36.12,81.1394 6,100.6694 22.55,118.6094 C61.64,160.9894 469.4601,166.681 589.8601,167.451" fill="none" id="Dataset-to-XsdDate" style="stroke:#404040;stroke-width:1.2;stroke-dasharray:7,7;"/><polygon fill="#404040" points="595.86,167.4894,586.8858,163.4319,590.8601,167.4574,586.8346,171.4317,595.86,167.4894" style="stroke:#404040;stroke-width:1.2;"/><text fill="#000000" font-family="sans-serif" font-size="13" lengthAdjust="spacing" textLength="74.439" x="23.55" y="115.1045">dateModified</text></g><!--link Dataset to XsdDate--><g class="link" data-entity-1="ent0003" data-entity-2="ent0002" data-link-type="dependency" data-source-line="15" id="lnk5"><path codeLine="15" d="M95.29,70.6194 C110.38,84.6294 138.05,107.7594 166.55,118.6094 C245.41,148.6394 498.0257,162.0589 589.8457,166.0489" fill="none" id="Dataset-to-XsdDate-1" style="stroke:#404040;stroke-width:1.2;stroke-dasharray:7,7;"/><polygon fill="#404040" points="595.84,166.3094,587.0221,161.9224,590.8447,166.0923,586.6748,169.9149,595.84,166.3094" style="stroke:#404040;stroke-width:1.2;"/><text fill="#000000" font-family="sans-serif" font-size="13" lengthAdjust="spacing" textLength="82.3989" x="167.55" y="115.1045">datePublished</text></g><!--link TemporalExtent to XsdDate--><g class="link" data-entity-1="ent0006" data-entity-2="ent0002" data-link-type="dependency" data-source-line="17" id="lnk7"><path codeLine="17" d="M281.81,70.7194 C267.48,83.3894 249.62,103.8394 262.55,118.6094 C284.39,143.5794 504.2221,159.8283 589.8621,165.2783" fill="none" id="TemporalExtent-to-XsdDate" style="stroke:#404040;stroke-width:1.2;stroke-dasharray:7,7;"/><polygon fill="#404040" points="595.85,165.6594,587.1222,161.0959,590.8601,165.3418,586.6141,169.0797,595.85,165.6594" style="stroke:#404040;stroke-width:1.2;"/><text fill="#000000" font-family="sans-serif" font-size="13" lengthAdjust="spacing" textLength="52.7427" x="263.55" y="115.1045">startDate</text></g><!--link TemporalExtent to XsdDate--><g class="link" data-entity-1="ent0006" data-entity-2="ent0002" data-link-type="dependency" data-source-line="18" id="lnk8"><path codeLine="18" d="M310.05,70.6294 C326.7,84.2194 356.37,106.4794 385.55,118.6094 C457.07,148.3594 542.1774,159.9267 589.9474,164.5067" fill="none" id="TemporalExtent-to-XsdDate-1" style="stroke:#404040;stroke-width:1.2;stroke-dasharray:7,7;"/><polygon fill="#404040" points="595.92,165.0794,587.3428,160.2387,590.9428,164.6022,586.5793,168.2022,595.92,165.0794" style="stroke:#404040;stroke-width:1.2;"/><text fill="#000000" font-family="sans-serif" font-size="13" lengthAdjust="spacing" textLength="49.1499" x="386.55" y="115.1045">endDate</text></g><!--link DataDownload to XsdDate--><g class="link" data-entity-1="ent0009" data-entity-2="ent0002" data-link-type="dependency" data-source-line="20" id="lnk10"><path codeLine="20" d="M481.9,70.6494 C459.57,81.9694 433.43,100.1594 447.55,118.6094 C465.5,142.0694 543.0388,156.0611 590.0988,162.7011" fill="none" id="DataDownload-to-XsdDate" style="stroke:#404040;stroke-width:1.2;stroke-dasharray:7,7;"/><polygon fill="#404040" points="596.04,163.5394,587.6871,158.3212,591.089,162.8408,586.5694,166.2427,596.04,163.5394" style="stroke:#404040;stroke-width:1.2;"/><text fill="#000000" font-family="sans-serif" font-size="13" lengthAdjust="spacing" textLength="74.439" x="448.55" y="115.1045">dateModified</text></g><!--link DataDownload to XsdDate--><g class="link" data-entity-1="ent0009" data-entity-2="ent0002" data-link-type="dependency" data-source-line="21" id="lnk11"><path codeLine="21" d="M521.39,70.7194 C541.95,89.3094 577.9991,121.9157 602.8991,144.4257" fill="none" id="DataDownload-to-XsdDate-1" style="stroke:#404040;stroke-width:1.2;stroke-dasharray:7,7;"/><polygon fill="#404040" points="607.35,148.4494,603.3561,139.4466,603.6409,145.0963,597.9913,145.3811,607.35,148.4494" style="stroke:#404040;stroke-width:1.2;"/><text fill="#000000" font-family="sans-serif" font-size="13" lengthAdjust="spacing" textLength="82.3989" x="573.55" y="115.1045">datePublished</text></g><!--link Contributor to XsdDate--><g class="link" data-entity-1="ent0012" data-entity-2="ent0002" data-link-type="dependency" data-source-line="23" id="lnk13"><path codeLine="23" d="M718.54,70.7894 C709.62,78.9394 697.62,90.1894 687.55,100.6094 C672.47,116.2094 660.1326,130.2234 648.5126,143.8534" fill="none" id="Contributor-to-XsdDate" style="stroke:#404040;stroke-width:1.2;stroke-dasharray:7,7;"/><polygon fill="#404040" points="644.62,148.4194,653.5028,144.1655,647.8638,144.6144,647.4149,138.9754,644.62,148.4194" style="stroke:#404040;stroke-width:1.2;"/><text fill="#000000" font-family="sans-serif" font-size="13" lengthAdjust="spacing" textLength="52.7427" x="688.55" y="115.1045">startDate</text></g><!--link Contributor to XsdDate--><g class="link" data-entity-1="ent0012" data-entity-2="ent0002" data-link-type="dependency" data-source-line="24" id="lnk14"><path codeLine="24" d="M739.41,71.0294 C746.73,83.7794 755.19,104.1194 745.55,118.6094 C726.88,146.6594 694.6395,157.596 666.9595,162.726" fill="none" id="Contributor-to-XsdDate-1" style="stroke:#404040;stroke-width:1.2;stroke-dasharray:7,7;"/><polygon fill="#404040" points="661.06,163.8194,670.6382,166.1123,665.9763,162.9082,669.1804,158.2463,661.06,163.8194" style="stroke:#404040;stroke-width:1.2;"/><text fill="#000000" font-family="sans-serif" font-size="13" lengthAdjust="spacing" textLength="49.1499" x="751.55" y="115.1045">endDate</text></g><!--link ProvActivity to XsdDate--><g class="link" data-entity-1="ent0015" data-entity-2="ent0002" data-link-type="dependency" data-source-line="26" id="lnk16"><path codeLine="26" d="M915.01,70.6094 C890.14,83.5594 847.73,104.6194 809.55,118.6094 C758.8,137.1994 703.6118,150.9641 666.9618,159.2641" fill="none" id="ProvActivity-to-XsdDate" style="stroke:#404040;stroke-width:1.2;stroke-dasharray:7,7;"/><polygon fill="#404040" points="661.11,160.5894,670.7712,162.5027,665.9865,159.485,669.0042,154.7003,661.11,160.5894" style="stroke:#404040;stroke-width:1.2;"/><text fill="#000000" font-family="sans-serif" font-size="13" lengthAdjust="spacing" textLength="80.9136" x="853.55" y="115.1045">startedAtTime</text></g><!--link ProvActivity to XsdDate--><g class="link" data-entity-1="ent0015" data-entity-2="ent0002" data-link-type="dependency" data-source-line="27" id="lnk17"><path codeLine="27" d="M942.21,70.6694 C947.76,83.8794 953.89,105.3594 942.55,118.6094 C906.53,160.6794 739.9097,166.8392 667.0797,167.5692" fill="none" id="ProvActivity-to-XsdDate-1" style="stroke:#404040;stroke-width:1.2;stroke-dasharray:7,7;"/><polygon fill="#404040" points="661.08,167.6294,670.1196,171.539,666.0797,167.5793,670.0395,163.5394,661.08,167.6294" style="stroke:#404040;stroke-width:1.2;"/><text fill="#000000" font-family="sans-serif" font-size="13" lengthAdjust="spacing" textLength="77.3208" x="950.55" y="115.1045">endedAtTime</text></g><!--link CatalogRecord to XsdDate--><g class="link" data-entity-1="ent0018" data-entity-2="ent0002" data-link-type="dependency" data-source-line="29" id="lnk19"><path codeLine="29" d="M1151.13,70.8394 C1124.92,84.6294 1078.82,107.0894 1036.55,118.6094 C900.43,155.6894 737.1471,164.5317 667.1571,166.7217" fill="none" id="CatalogRecord-to-XsdDate" style="stroke:#404040;stroke-width:1.2;stroke-dasharray:7,7;"/><polygon fill="#404040" points="661.16,166.9094,670.2807,170.6259,666.1576,166.753,670.0305,162.6299,661.16,166.9094" style="stroke:#404040;stroke-width:1.2;"/><text fill="#000000" font-family="sans-serif" font-size="13" lengthAdjust="spacing" textLength="71.5508" x="1087.55" y="115.1045">dateCreated</text></g><!--link CatalogRecord to XsdDate--><g class="link" data-entity-1="ent0018" data-entity-2="ent0002" data-link-type="dependency" data-source-line="30" id="lnk20"><path codeLine="30" d="M1175.53,70.9894 C1178.14,84.4894 1179.82,106.2494 1167.55,118.6094 C1131.79,154.6094 778.6487,164.616 667.2887,166.906" fill="none" id="CatalogRecord-to-XsdDate-1" style="stroke:#404040;stroke-width:1.2;stroke-dasharray:7,7;"/><polygon fill="#404040" points="661.29,167.0294,670.3703,170.8435,666.2889,166.9266,670.2059,162.8452,661.29,167.0294" style="stroke:#404040;stroke-width:1.2;"/><text fill="#000000" font-family="sans-serif" font-size="13" lengthAdjust="spacing" textLength="74.439" x="1177.55" y="115.1045">dateModified</text></g><?plantuml-src XPBBRi8m44Nt_WeBzgZGTbCXf9J7hX9gi-ZMn0CPuTZ87g2qwh_NpSDre8H4Ykphexc-Co4a1VpToPaWO3bAu1dQJDLhA7PquWKKAx2EkItgdR2Yu2uNqXnHR_XQA0VHIMAjEQOvPbiDpl7XO1GTPafuxOln2fiQPIplFzpzlbvyDbQ2FLSNHjCRVW8VZjWtOrMDNdtb7XUkkJuVZwKWaPvsC9dm_YAPFyxk6zu3mW6LVBtc_Ndvi6O_64n2hIVkQy6BaRX6a1t8ShzIw7BFr4wfRvgnGiq_27Hbs9Q2xvdShkr8M2gdqec1haONnPoPerP6o92r4Lg1WtWZTGTt4NtgHsLnjITZI_De7xnZxLhYwynPtAKrXoGZF22TIiTO29OjyHzFa0cbM40Nw8q3rgJrtL5cymgP_s-hlB7obxYbNhPnQi5_vKqkZEK7?></g></svg>