<svg xmlns="http://www.w3.org/2000/svg" xmlns:xlink="http://www.w3.org/1999/xlink" contentStyleType="text/css" data-diagram-type="CLASS" height="809px" preserveAspectRatio="none" style="width:1591px;height:809px;background:#FFFFFF;" version="1.1" viewBox="0 0 1591 809" width="1591px" zoomAndPan="magnify"><?plantuml 1.2026.3?><defs/><g><g class="title" data-source-line="1"><text fill="#000000" font-family="sans-serif" font-size="14" font-weight="700" lengthAdjust="spacing" textLength="282.0508" x="651.0391" y="24.5332">DataDescriptionWithStructure &#8212; overview</text></g><!--class CompositeProfile--><g class="entity" data-qualified-name="CompositeProfile" data-source-line="12" id="ent0002"><rect fill="#FEFECE" height="25.0938" rx="2.5" ry="2.5" style="stroke:#404040;stroke-width:0.5;" width="97.3711" x="821.5" y="49.4094"/><text fill="#000000" font-family="sans-serif" font-size="12" font-style="italic" lengthAdjust="spacing" textLength="91.3711" x="824.5" y="66.8664">CompositeProfile</text></g><!--class Dataset--><g class="entity" data-qualified-name="Dataset" data-source-line="13" id="ent0003"><rect fill="#FEFECE" height="25.0938" rx="2.5" ry="2.5" style="stroke:#404040;stroke-width:0.5;" width="47.3555" x="953.5" y="49.4094"/><text fill="#000000" font-family="sans-serif" font-size="12" lengthAdjust="spacing" textLength="41.3555" x="956.5" y="66.8664">Dataset</text></g><!--class DataDownload--><g class="entity" data-qualified-name="DataDownload" data-source-line="14" id="ent0004"><rect fill="#FEFECE" height="25.0938" rx="2.5" ry="2.5" style="stroke:#404040;stroke-width:0.5;" width="84.7148" x="568.5" y="152.4094"/><text fill="#000000" font-family="sans-serif" font-size="12" lengthAdjust="spacing" textLength="78.7148" x="571.5" y="169.8664">DataDownload</text></g><!--class WebAPI--><g class="entity" data-qualified-name="WebAPI" data-source-line="15" id="ent0005"><rect fill="#FCF3CF" height="25.0938" rx="2.5" ry="2.5" style="stroke:#404040;stroke-width:0.5;" width="50.0156" x="351" y="152.4094"/><text fill="#000000" font-family="sans-serif" font-size="12" lengthAdjust="spacing" textLength="44.0156" x="354" y="169.8664">WebAPI</text></g><!--class ActionResult--><g class="entity" data-qualified-name="ActionResult" data-source-line="16" id="ent0006"><rect fill="#FCF3CF" height="25.0938" rx="2.5" ry="2.5" style="stroke:#404040;stroke-width:0.5;" width="73.3652" x="185.5" y="255.4094"/><text fill="#000000" font-family="sans-serif" font-size="12" lengthAdjust="spacing" textLength="67.3652" x="188.5" y="272.8664">ActionResult</text></g><!--class ProvActivity--><g class="entity" data-qualified-name="ProvActivity" data-source-line="17" id="ent0007"><rect fill="#FEFECE" height="25.0938" rx="2.5" ry="2.5" style="stroke:#404040;stroke-width:0.5;" width="68.6777" x="1380.5" y="152.4094"/><text fill="#000000" font-family="sans-serif" font-size="12" lengthAdjust="spacing" textLength="62.6777" x="1383.5" y="169.8664">ProvActivity</text></g><!--class CatalogRecord--><g class="entity" data-qualified-name="CatalogRecord" data-source-line="18" id="ent0008"><rect fill="#FEFECE" height="25.0938" rx="2.5" ry="2.5" style="stroke:#404040;stroke-width:0.5;" width="86.0449" x="64" y="255.4094"/><text fill="#000000" font-family="sans-serif" font-size="12" lengthAdjust="spacing" textLength="80.0449" x="67" y="272.8664">CatalogRecord</text></g><!--class InstanceVariable--><g class="entity" data-qualified-name="InstanceVariable" data-source-line="19" id="ent0009"><rect fill="#FAE5D3" height="25.0938" rx="2.5" ry="2.5" style="stroke:#404040;stroke-width:0.5;" width="95.3906" x="1189.5" y="461.4094"/><text fill="#000000" font-family="sans-serif" font-size="12" lengthAdjust="spacing" textLength="89.3906" x="1192.5" y="478.8664">InstanceVariable</text></g><!--class AbstractMapping--><g class="entity" data-qualified-name="AbstractMapping" data-source-line="20" id="ent0010"><rect fill="#FCF3CF" height="25.0938" rx="2.5" ry="2.5" style="stroke:#404040;stroke-width:0.5;" width="96.0469" x="135" y="358.4094"/><text fill="#000000" font-family="sans-serif" font-size="12" font-style="italic" lengthAdjust="spacing" textLength="90.0469" x="138" y="375.8664">AbstractMapping</text></g><!--class PhysicalMapping--><g class="entity" data-qualified-name="PhysicalMapping" data-source-line="21" id="ent0011"><rect fill="#FCF3CF" height="25.0938" rx="2.5" ry="2.5" style="stroke:#404040;stroke-width:0.5;" width="96.7148" x="134.5" y="461.4094"/><text fill="#000000" font-family="sans-serif" font-size="12" lengthAdjust="spacing" textLength="90.7148" x="137.5" y="478.8664">PhysicalMapping</text></g><!--class TextMapping--><g class="entity" data-qualified-name="TextMapping" data-source-line="22" id="ent0012"><rect fill="#FCF3CF" height="25.0938" rx="2.5" ry="2.5" style="stroke:#404040;stroke-width:0.5;" width="75.3691" x="266.5" y="461.4094"/><text fill="#000000" font-family="sans-serif" font-size="12" lengthAdjust="spacing" textLength="69.3691" x="269.5" y="478.8664">TextMapping</text></g><!--class LocatorMapping--><g class="entity" data-qualified-name="LocatorMapping" data-source-line="23" id="ent0013"><rect fill="#FCF3CF" height="25.0938" rx="2.5" ry="2.5" style="stroke:#404040;stroke-width:0.5;" width="92.0566" x="7" y="461.4094"/><text fill="#000000" font-family="sans-serif" font-size="12" lengthAdjust="spacing" textLength="86.0566" x="10" y="478.8664">LocatorMapping</text></g><!--class AbstractDataSet--><g class="entity" data-qualified-name="AbstractDataSet" data-source-line="24" id="ent0014"><rect fill="#FCF3CF" height="25.0938" rx="2.5" ry="2.5" style="stroke:#404040;stroke-width:0.5;" width="93.375" x="634.5" y="255.4094"/><text fill="#000000" font-family="sans-serif" font-size="12" font-style="italic" lengthAdjust="spacing" textLength="87.375" x="637.5" y="272.8664">AbstractDataSet</text></g><!--class TabularTextDataSet--><g class="entity" data-qualified-name="TabularTextDataSet" data-source-line="25" id="ent0015"><rect fill="#FCF3CF" height="25.0938" rx="2.5" ry="2.5" style="stroke:#404040;stroke-width:0.5;" width="113.3848" x="406.5" y="358.4094"/><text fill="#000000" font-family="sans-serif" font-size="12" lengthAdjust="spacing" textLength="107.3848" x="409.5" y="375.8664">TabularTextDataSet</text></g><!--class StructuredDataSet--><g class="entity" data-qualified-name="StructuredDataSet" data-source-line="26" id="ent0016"><rect fill="#FCF3CF" height="25.0938" rx="2.5" ry="2.5" style="stroke:#404040;stroke-width:0.5;" width="104.7188" x="266.5" y="358.4094"/><text fill="#000000" font-family="sans-serif" font-size="12" lengthAdjust="spacing" textLength="98.7188" x="269.5" y="375.8664">StructuredDataSet</text></g><!--class DataFingerprint--><g class="entity" data-qualified-name="DataFingerprint" data-source-line="27" id="ent0017"><rect fill="#FCF3CF" height="25.0938" rx="2.5" ry="2.5" style="stroke:#404040;stroke-width:0.5;" width="88.7051" x="510.5" y="255.4094"/><text fill="#000000" font-family="sans-serif" font-size="12" lengthAdjust="spacing" textLength="82.7051" x="513.5" y="272.8664">DataFingerprint</text></g><!--class PrimaryKey--><g class="entity" data-qualified-name="PrimaryKey" data-source-line="28" id="ent0018"><rect fill="#FAE5D3" height="25.0938" rx="2.5" ry="2.5" style="stroke:#404040;stroke-width:0.5;" width="68.0098" x="1206" y="358.4094"/><text fill="#000000" font-family="sans-serif" font-size="12" lengthAdjust="spacing" textLength="62.0098" x="1209" y="375.8664">PrimaryKey</text></g><!--class Statistics--><g class="entity" data-qualified-name="Statistics" data-source-line="29" id="ent0019"><rect fill="#FCF3CF" height="25.0938" rx="2.5" ry="2.5" style="stroke:#404040;stroke-width:0.5;" width="54.0117" x="1514" y="152.4094"/><text fill="#000000" font-family="sans-serif" font-size="12" lengthAdjust="spacing" textLength="48.0117" x="1517" y="169.8664">Statistics</text></g><!--class SubstantiveValueDomain--><g class="entity" data-qualified-name="SubstantiveValueDomain" data-source-line="30" id="ent0020"><rect fill="#FCF3CF" height="25.0938" rx="2.5" ry="2.5" style="stroke:#404040;stroke-width:0.5;" width="140.748" x="1166.5" y="564.4094"/><text fill="#000000" font-family="sans-serif" font-size="12" lengthAdjust="spacing" textLength="134.748" x="1169.5" y="581.8664">SubstantiveValueDomain</text></g><!--class SentinelValueDomain--><g class="entity" data-qualified-name="SentinelValueDomain" data-source-line="31" id="ent0021"><rect fill="#FCF3CF" height="25.0938" rx="2.5" ry="2.5" style="stroke:#404040;stroke-width:0.5;" width="121.4063" x="1387.5" y="564.4094"/><text fill="#000000" font-family="sans-serif" font-size="12" lengthAdjust="spacing" textLength="115.4063" x="1390.5" y="581.8664">SentinelValueDomain</text></g><!--class DataStructureComponent--><g class="entity" data-qualified-name="DataStructureComponent" data-source-line="32" id="ent0022"><rect fill="#FAE5D3" height="25.0938" rx="2.5" ry="2.5" style="stroke:#404040;stroke-width:0.5;" width="142.0723" x="946" y="770.4094"/><text fill="#000000" font-family="sans-serif" font-size="12" font-style="italic" lengthAdjust="spacing" textLength="136.0723" x="949" y="787.8664">DataStructureComponent</text></g><!--class AbstractDataStructure--><g class="entity" data-qualified-name="AbstractDataStructure" data-source-line="33" id="ent0023"><rect fill="#FAE5D3" height="25.0938" rx="2.5" ry="2.5" style="stroke:#404040;stroke-width:0.5;" width="124.0488" x="795" y="255.4094"/><text fill="#000000" font-family="sans-serif" font-size="12" font-style="italic" lengthAdjust="spacing" textLength="118.0488" x="798" y="272.8664">AbstractDataStructure</text></g><!--class DataStructure--><g class="entity" data-qualified-name="DataStructure" data-source-line="34" id="ent0024"><rect fill="#FAE5D3" height="25.0938" rx="2.5" ry="2.5" style="stroke:#404040;stroke-width:0.5;" width="80.0332" x="910" y="358.4094"/><text fill="#000000" font-family="sans-serif" font-size="12" lengthAdjust="spacing" textLength="74.0332" x="913" y="375.8664">DataStructure</text></g><!--class DimensionalDataStructure--><g class="entity" data-qualified-name="DimensionalDataStructure" data-source-line="35" id="ent0025"><rect fill="#FAE5D3" height="25.0938" rx="2.5" ry="2.5" style="stroke:#404040;stroke-width:0.5;" width="146.0625" x="1025" y="358.4094"/><text fill="#000000" font-family="sans-serif" font-size="12" lengthAdjust="spacing" textLength="140.0625" x="1028" y="375.8664">DimensionalDataStructure</text></g><!--class LongDataStructure--><g class="entity" data-qualified-name="LongDataStructure" data-source-line="36" id="ent0026"><rect fill="#FAE5D3" height="25.0938" rx="2.5" ry="2.5" style="stroke:#404040;stroke-width:0.5;" width="106.7285" x="554.5" y="358.4094"/><text fill="#000000" font-family="sans-serif" font-size="12" lengthAdjust="spacing" textLength="100.7285" x="557.5" y="375.8664">LongDataStructure</text></g><!--class WideDataStructure--><g class="entity" data-qualified-name="WideDataStructure" data-source-line="37" id="ent0027"><rect fill="#FAE5D3" height="25.0938" rx="2.5" ry="2.5" style="stroke:#404040;stroke-width:0.5;" width="107.373" x="696.5" y="358.4094"/><text fill="#000000" font-family="sans-serif" font-size="12" lengthAdjust="spacing" textLength="101.373" x="699.5" y="375.8664">WideDataStructure</text></g><!--class DimensionGroup--><g class="entity" data-qualified-name="DimensionGroup" data-source-line="38" id="ent0028"><rect fill="#FAE5D3" height="25.0938" rx="2.5" ry="2.5" style="stroke:#404040;stroke-width:0.5;" width="96.041" x="910" y="667.4094"/><text fill="#000000" font-family="sans-serif" font-size="12" lengthAdjust="spacing" textLength="90.041" x="913" y="684.8664">DimensionGroup</text></g><!--class PrimaryKeyComponent--><g class="entity" data-qualified-name="PrimaryKeyComponent" data-source-line="39" id="ent0029"><rect fill="#FAE5D3" height="25.0938" rx="2.5" ry="2.5" style="stroke:#404040;stroke-width:0.5;" width="130.0488" x="1199" y="667.4094"/><text fill="#000000" font-family="sans-serif" font-size="12" lengthAdjust="spacing" textLength="124.0488" x="1202" y="684.8664">PrimaryKeyComponent</text></g><!--class ForeignKey--><g class="entity" data-qualified-name="ForeignKey" data-source-line="40" id="ent0030"><rect fill="#FAE5D3" height="25.0938" rx="2.5" ry="2.5" style="stroke:#404040;stroke-width:0.5;" width="67.3652" x="1026.5" y="461.4094"/><text fill="#000000" font-family="sans-serif" font-size="12" lengthAdjust="spacing" textLength="61.3652" x="1029.5" y="478.8664">ForeignKey</text></g><!--class ForeignKeyComponent--><g class="entity" data-qualified-name="ForeignKeyComponent" data-source-line="41" id="ent0031"><rect fill="#FAE5D3" height="25.0938" rx="2.5" ry="2.5" style="stroke:#404040;stroke-width:0.5;" width="129.4043" x="1002.5" y="564.4094"/><text fill="#000000" font-family="sans-serif" font-size="12" lengthAdjust="spacing" textLength="123.4043" x="1005.5" y="581.8664">ForeignKeyComponent</text></g><!--reverse link AbstractMapping to PhysicalMapping--><g class="link" data-entity-1="ent0010" data-entity-2="ent0011" data-link-type="extension" data-source-line="42" id="lnk32"><path codeLine="42" d="M183,401.4994 C183,420.8694 183,441.6494 183,461.1494" fill="none" id="AbstractMapping-backto-PhysicalMapping" style="stroke:#404040;stroke-width:1.2;"/><polygon fill="none" points="183,383.4994,177,401.4994,189,401.4994,183,383.4994" style="stroke:#404040;stroke-width:1.2;"/></g><!--reverse link AbstractMapping to TextMapping--><g class="link" data-entity-1="ent0010" data-entity-2="ent0012" data-link-type="extension" data-source-line="43" id="lnk33"><path codeLine="43" d="M210.7021,395.0297 C233.9221,414.3997 266.55,441.6494 289.91,461.1494" fill="none" id="AbstractMapping-backto-TextMapping" style="stroke:#404040;stroke-width:1.2;"/><polygon fill="none" points="196.88,383.4994,206.8587,399.6371,214.5456,390.4223,196.88,383.4994" style="stroke:#404040;stroke-width:1.2;"/></g><!--reverse link AbstractMapping to LocatorMapping--><g class="link" data-entity-1="ent0010" data-entity-2="ent0013" data-link-type="extension" data-source-line="44" id="lnk34"><path codeLine="44" d="M153.8718,394.5377 C128.9218,413.9077 93.23,441.6494 68.14,461.1494" fill="none" id="AbstractMapping-backto-LocatorMapping" style="stroke:#404040;stroke-width:1.2;"/><polygon fill="none" points="168.09,383.4994,150.1924,389.7983,157.5513,399.2771,168.09,383.4994" style="stroke:#404040;stroke-width:1.2;"/></g><!--reverse link AbstractDataSet to TabularTextDataSet--><g class="link" data-entity-1="ent0014" data-entity-2="ent0015" data-link-type="extension" data-source-line="45" id="lnk35"><path codeLine="45" d="M635.0731,287.3428 C615.2531,295.3928 605.2,299.7594 582,310.4094 C547.78,326.1194 508.89,345.9394 485.16,358.2794" fill="none" id="AbstractDataSet-backto-TabularTextDataSet" style="stroke:#404040;stroke-width:1.2;"/><polygon fill="none" points="651.75,280.5694,632.8152,281.7838,637.3309,292.9018,651.75,280.5694" style="stroke:#404040;stroke-width:1.2;"/></g><!--reverse link AbstractDataSet to StructuredDataSet--><g class="link" data-entity-1="ent0014" data-entity-2="ent0016" data-link-type="extension" data-source-line="46" id="lnk36"><path codeLine="46" d="M622.1319,285.3356 C552.4019,304.7856 429.92,338.9594 360.32,358.3794" fill="none" id="AbstractDataSet-backto-StructuredDataSet" style="stroke:#404040;stroke-width:1.2;"/><polygon fill="none" points="639.47,280.4994,620.5198,279.5562,623.7439,291.1149,639.47,280.4994" style="stroke:#404040;stroke-width:1.2;"/></g><!--reverse link AbstractDataStructure to DataStructure--><g class="link" data-entity-1="ent0023" data-entity-2="ent0024" data-link-type="extension" data-source-line="47" id="lnk37"><path codeLine="47" d="M879.8643,293.7395 C897.7043,313.1095 921.22,338.6494 939.17,358.1494" fill="none" id="AbstractDataStructure-backto-DataStructure" style="stroke:#404040;stroke-width:1.2;"/><polygon fill="none" points="867.67,280.4994,875.4509,297.8042,884.2776,289.6747,867.67,280.4994" style="stroke:#404040;stroke-width:1.2;"/></g><!--reverse link AbstractDataStructure to DimensionalDataStructure--><g class="link" data-entity-1="ent0023" data-entity-2="ent0025" data-link-type="extension" data-source-line="48" id="lnk38"><path codeLine="48" d="M901.2509,287.457 C947.6109,306.887 1023.91,338.8594 1070.31,358.2994" fill="none" id="AbstractDataStructure-backto-DimensionalDataStructure" style="stroke:#404040;stroke-width:1.2;"/><polygon fill="none" points="884.65,280.4994,898.9317,292.9907,903.5702,281.9234,884.65,280.4994" style="stroke:#404040;stroke-width:1.2;"/></g><!--reverse link AbstractDataStructure to LongDataStructure--><g class="link" data-entity-1="ent0023" data-entity-2="ent0026" data-link-type="extension" data-source-line="49" id="lnk39"><path codeLine="49" d="M811.7595,287.2642 C763.8495,306.6942 684.55,338.8594 636.61,358.2994" fill="none" id="AbstractDataStructure-backto-LongDataStructure" style="stroke:#404040;stroke-width:1.2;"/><polygon fill="none" points="828.44,280.4994,809.5046,281.704,814.0145,292.8243,828.44,280.4994" style="stroke:#404040;stroke-width:1.2;"/></g><!--reverse link AbstractDataStructure to WideDataStructure--><g class="link" data-entity-1="ent0023" data-entity-2="ent0027" data-link-type="extension" data-source-line="50" id="lnk40"><path codeLine="50" d="M831.6376,292.852 C811.1076,312.222 783.11,338.6494 762.46,358.1494" fill="none" id="AbstractDataStructure-backto-WideDataStructure" style="stroke:#404040;stroke-width:1.2;"/><polygon fill="none" points="844.73,280.4994,827.52,288.4879,835.7551,297.2162,844.73,280.4994" style="stroke:#404040;stroke-width:1.2;"/></g><!--link Dataset to ProvActivity--><g class="link" data-entity-1="ent0003" data-entity-2="ent0007" data-link-type="dependency" data-source-line="51" id="lnk41"><path codeLine="51" d="M1000.66,63.5494 C1072.95,65.7894 1289.86,74.8894 1353,104.4094 C1376.24,115.2794 1392.6155,133.6179 1403.2355,147.6279" fill="none" id="Dataset-to-ProvActivity" style="stroke:#404040;stroke-width:1.2;"/><polygon fill="#404040" points="1406.86,152.4094,1404.6109,142.8208,1403.8396,148.4248,1398.2355,147.6535,1406.86,152.4094" style="stroke:#404040;stroke-width:1.2;"/><text fill="#000000" font-family="sans-serif" font-size="13" lengthAdjust="spacing" textLength="99.7217" x="1380" y="118.9045">wasGeneratedBy</text><text fill="#000000" font-family="sans-serif" font-size="13" lengthAdjust="spacing" textLength="19.5127" x="1380.7557" y="141.5014">0..*</text></g><!--link Dataset to CatalogRecord--><g class="link" data-entity-1="ent0003" data-entity-2="ent0008" data-link-type="dependency" data-source-line="52" id="lnk42"><path codeLine="52" d="M953.33,70.3694 C947.7,71.9094 941.67,73.3794 936,74.4094 C645.79,126.9594 551.53,44.6094 277,152.4094 C212.08,177.8994 151.427,227.5187 124.447,251.2287" fill="none" id="Dataset-to-CatalogRecord" style="stroke:#404040;stroke-width:1.2;"/><polygon fill="#404040" points="119.94,255.1894,129.3409,252.2529,123.6958,251.8888,124.06,246.2437,119.94,255.1894" style="stroke:#404040;stroke-width:1.2;"/><text fill="#000000" font-family="sans-serif" font-size="13" lengthAdjust="spacing" textLength="54.9136" x="278" y="170.4045">subjectOf</text><text fill="#000000" font-family="sans-serif" font-size="13" lengthAdjust="spacing" textLength="7.23" x="116.6934" y="244.5767">1</text></g><!--link CatalogRecord to Dataset--><g class="link" data-entity-1="ent0008" data-entity-2="ent0003" data-link-type="dependency" data-source-line="65" id="lnk55"><path codeLine="65" d="M111.66,255.1294 C121.53,231.7994 146.77,179.5894 185,152.4094 C251.78,104.9294 282.08,117.2894 363,104.4094 C614.84,64.3194 684.36,115.7594 936,74.4094 C941.69,73.4694 941.9326,73.6224 947.5626,72.0824" fill="none" id="CatalogRecord-to-Dataset" style="stroke:#404040;stroke-width:1.2;"/><polygon fill="#404040" points="953.35,70.4994,943.6135,69.0157,948.5272,71.8186,945.7243,76.7322,953.35,70.4994" style="stroke:#404040;stroke-width:1.2;"/><text fill="#000000" font-family="sans-serif" font-size="13" lengthAdjust="spacing" textLength="32.5317" x="186" y="170.4045">about</text><text fill="#000000" font-family="sans-serif" font-size="13" lengthAdjust="spacing" textLength="21.6836" x="923.6411" y="68.1787">0..1</text></g><!--reverse link Dataset to InstanceVariable--><g class="link" data-entity-1="ent0003" data-entity-2="ent0009" data-link-type="composition" data-source-line="53" id="lnk43"><path codeLine="53" d="M1012.4727,65.5246 C1090.9427,71.7246 1327,95.7694 1327,163.9094 C1327,163.9094 1327,163.9094 1327,371.9094 C1327,400.0994 1322.91,409.6394 1305,431.4094 C1294.37,444.3294 1278.59,454.3094 1264.92,461.2394" fill="none" id="Dataset-backto-InstanceVariable" style="stroke:#404040;stroke-width:1.2;"/><polygon fill="#404040" points="1000.51,64.5794,1006.1763,69.0395,1012.4727,65.5246,1006.8064,61.0644,1000.51,64.5794" style="stroke:#404040;stroke-width:1.2;"/><text fill="#000000" font-family="sans-serif" font-size="13" lengthAdjust="spacing" textLength="103.3335" x="1328" y="273.4045">variableMeasured</text><text fill="#000000" font-family="sans-serif" font-size="13" lengthAdjust="spacing" textLength="19.5127" x="1253.1969" y="450.6464">1..*</text></g><!--reverse link Dataset to PrimaryKey--><g class="link" data-entity-1="ent0003" data-entity-2="ent0018" data-link-type="composition" data-source-line="54" id="lnk44"><path codeLine="54" d="M994.797,83.6826 C1036.457,132.3126 1188.32,309.5894 1230,358.2394" fill="none" id="Dataset-backto-PrimaryKey" style="stroke:#404040;stroke-width:1.2;"/><polygon fill="#404040" points="986.99,74.5694,987.8558,81.7283,994.797,83.6826,993.9312,76.5236,986.99,74.5694" style="stroke:#404040;stroke-width:1.2;"/><text fill="#000000" font-family="sans-serif" font-size="13" lengthAdjust="spacing" textLength="88.1372" x="1116" y="221.9045">hasPrimaryKey</text><text fill="#000000" font-family="sans-serif" font-size="13" lengthAdjust="spacing" textLength="21.6836" x="1201.0608" y="347.6464">0..1</text></g><!--reverse link Dataset to Statistics--><g class="link" data-entity-1="ent0003" data-entity-2="ent0019" data-link-type="composition" data-source-line="55" id="lnk45"><path codeLine="55" d="M1012.7692,62.3874 C1101.5292,61.3374 1400.86,61.0094 1488,104.4094 C1509.3,115.0194 1525.9,138.2294 1534.51,152.3194" fill="none" id="Dataset-backto-Statistics" style="stroke:#404040;stroke-width:1.2;"/><polygon fill="#404040" points="1000.77,62.5294,1006.8169,66.4581,1012.7692,62.3874,1006.7223,58.4587,1000.77,62.5294" style="stroke:#404040;stroke-width:1.2;"/><text fill="#000000" font-family="sans-serif" font-size="13" lengthAdjust="spacing" textLength="49.8418" x="1511" y="118.9045">statistics</text><text fill="#000000" font-family="sans-serif" font-size="13" lengthAdjust="spacing" textLength="19.5127" x="1509.0175" y="141.3743">0..*</text></g><!--reverse link Dataset to DataDownload--><g class="link" data-entity-1="ent0003" data-entity-2="ent0004" data-link-type="composition" data-source-line="56" id="lnk46"><path codeLine="56" d="M941.6064,72.8618 C935.9764,74.4418 941.56,72.8694 936,74.4094 C834.5,102.6194 715.06,135.4094 653.09,152.3894" fill="none" id="Dataset-backto-DataDownload" style="stroke:#404040;stroke-width:1.2;"/><polygon fill="#404040" points="953.16,69.6194,946.3024,67.3894,941.6064,72.8618,948.464,75.0918,953.16,69.6194" style="stroke:#404040;stroke-width:1.2;"/><text fill="#000000" font-family="sans-serif" font-size="13" lengthAdjust="spacing" textLength="62.8672" x="821" y="118.9045">distribution</text><text fill="#000000" font-family="sans-serif" font-size="13" lengthAdjust="spacing" textLength="19.5127" x="647.6979" y="141.4732">0..*</text></g><!--reverse link Dataset to WebAPI--><g class="link" data-entity-1="ent0003" data-entity-2="ent0005" data-link-type="composition" data-source-line="57" id="lnk47"><path codeLine="57" d="M941.7305,73.3946 C936.1005,74.9446 941.65,73.2694 936,74.4094 C830.62,95.6494 802.22,87.9094 696,104.4094 C585.72,121.5394 455.14,147.6494 401.22,158.6894" fill="none" id="Dataset-backto-WebAPI" style="stroke:#404040;stroke-width:1.2;"/><polygon fill="#404040" points="953.3,70.2094,946.4535,67.9455,941.7305,73.3946,948.577,75.6585,953.3,70.2094" style="stroke:#404040;stroke-width:1.2;"/><text fill="#000000" font-family="sans-serif" font-size="13" lengthAdjust="spacing" textLength="62.8672" x="697" y="118.9045">distribution</text><text fill="#000000" font-family="sans-serif" font-size="13" lengthAdjust="spacing" textLength="19.5127" x="408.8694" y="153.1021">0..*</text></g><!--reverse link DataDownload to AbstractMapping--><g class="link" data-entity-1="ent0004" data-entity-2="ent0010" data-link-type="composition" data-source-line="58" id="lnk48"><path codeLine="58" d="M566.8418,181.5448 C503.2518,204.1248 380.16,248.3394 372,255.4094 C344.04,279.6294 360.98,305.4194 332,328.4094 C316.33,340.8394 268.42,352.8594 231.12,360.7394" fill="none" id="DataDownload-backto-AbstractMapping" style="stroke:#404040;stroke-width:1.2;"/><polygon fill="#404040" points="578.15,177.5294,571.1574,175.7677,566.8418,181.5448,573.8343,183.3065,578.15,177.5294" style="stroke:#404040;stroke-width:1.2;"/><text fill="#000000" font-family="sans-serif" font-size="13" lengthAdjust="spacing" textLength="119.2344" x="373" y="273.4045">hasPhysicalMapping</text><text fill="#000000" font-family="sans-serif" font-size="13" lengthAdjust="spacing" textLength="19.5127" x="238.894" y="355.8102">0..*</text></g><!--reverse link DataDownload to AbstractDataSet--><g class="link" data-entity-1="ent0004" data-entity-2="ent0014" data-link-type="aggregation" data-source-line="59" id="lnk49"><path codeLine="59" d="M625.8674,187.3609 C639.2974,206.7309 659.34,235.6494 672.85,255.1494" fill="none" id="DataDownload-backto-AbstractDataSet" style="stroke:#404040;stroke-width:1.2;"/><polygon fill="none" points="619.03,177.4994,619.1615,184.7093,625.8674,187.3609,625.7359,180.151,619.03,177.4994" style="stroke:#404040;stroke-width:1.2;"/><text fill="#000000" font-family="sans-serif" font-size="13" lengthAdjust="spacing" textLength="75.1499" x="652" y="221.9045">alsoTypedAs</text><text fill="#000000" font-family="sans-serif" font-size="13" lengthAdjust="spacing" textLength="21.6836" x="644.5673" y="244.521">0..1</text></g><!--reverse link DataDownload to DataFingerprint--><g class="link" data-entity-1="ent0004" data-entity-2="ent0017" data-link-type="composition" data-source-line="60" id="lnk50"><path codeLine="60" d="M583.9222,185.0507 C574.3122,192.4507 572.57,195.4994 566,207.4094 C557.68,222.4894 555.5,242.6694 555.02,255.2194" fill="none" id="DataDownload-backto-DataFingerprint" style="stroke:#404040;stroke-width:1.2;"/><polygon fill="#404040" points="593.43,177.7294,586.2357,178.2208,583.9222,185.0507,591.1165,184.5593,593.43,177.7294" style="stroke:#404040;stroke-width:1.2;"/><text fill="#000000" font-family="sans-serif" font-size="13" lengthAdjust="spacing" textLength="57.8081" x="567" y="221.9045">fingerprint</text><text fill="#000000" font-family="sans-serif" font-size="13" lengthAdjust="spacing" textLength="21.6836" x="530.0861" y="244.6186">0..1</text></g><!--link DataDownload to CatalogRecord--><g class="link" data-entity-1="ent0004" data-entity-2="ent0008" data-link-type="dependency" data-source-line="61" id="lnk51"><path codeLine="61" d="M568.08,170.0494 C521.56,175.3794 445.6,186.5394 383,207.4094 C366.03,213.0694 364.01,219.8694 347,225.4094 C270.3,250.3894 247.42,241.2694 168,255.4094 C162.27,256.4294 162.1397,256.4368 156.1997,257.5368" fill="none" id="DataDownload-to-CatalogRecord" style="stroke:#404040;stroke-width:1.2;"/><polygon fill="#404040" points="150.3,258.6294,159.8779,260.9237,155.2164,257.7189,158.4212,253.0574,150.3,258.6294" style="stroke:#404040;stroke-width:1.2;"/><text fill="#000000" font-family="sans-serif" font-size="13" lengthAdjust="spacing" textLength="54.9136" x="384" y="221.9045">subjectOf</text><text fill="#000000" font-family="sans-serif" font-size="13" lengthAdjust="spacing" textLength="21.6836" x="157.9105" y="253.7126">0..1</text></g><!--link DataDownload to AbstractDataStructure--><g class="link" data-entity-1="ent0004" data-entity-2="ent0023" data-link-type="dependency" data-source-line="62" id="lnk52"><path codeLine="62" d="M650.35,177.4594 C675.22,185.1294 707.86,195.8794 736,207.4094 C771.74,222.0494 806.384,239.7194 830.254,252.4294" fill="none" id="DataDownload-to-AbstractDataStructure" style="stroke:#404040;stroke-width:1.2;"/><polygon fill="#404040" points="835.55,255.2494,829.4859,247.4888,831.1366,252.8994,825.726,254.5501,835.55,255.2494" style="stroke:#404040;stroke-width:1.2;"/><text fill="#000000" font-family="sans-serif" font-size="13" lengthAdjust="spacing" textLength="84.5317" x="775" y="221.9045">isStructuredBy</text><text fill="#000000" font-family="sans-serif" font-size="13" lengthAdjust="spacing" textLength="21.6836" x="802.0947" y="244.6604">0..1</text></g><!--reverse link WebAPI to ActionResult--><g class="link" data-entity-1="ent0005" data-entity-2="ent0006" data-link-type="composition" data-source-line="63" id="lnk53"><path codeLine="63" d="M338.8924,170.4236 C298.7324,175.7036 235,186.6394 219,207.4094 C208.52,221.0094 212.9,241.9894 217.26,255.0594" fill="none" id="WebAPI-backto-ActionResult" style="stroke:#404040;stroke-width:1.2;"/><polygon fill="#404040" points="350.79,168.8594,344.3198,165.6756,338.8924,170.4236,345.3626,173.6074,350.79,168.8594" style="stroke:#404040;stroke-width:1.2;"/><text fill="#000000" font-family="sans-serif" font-size="13" lengthAdjust="spacing" textLength="122.1289" x="220" y="221.9045">potentialActionResult</text><text fill="#000000" font-family="sans-serif" font-size="13" lengthAdjust="spacing" textLength="19.5127" x="192.8591" y="244.6546">0..*</text></g><!--reverse link ActionResult to AbstractMapping--><g class="link" data-entity-1="ent0006" data-entity-2="ent0010" data-link-type="composition" data-source-line="64" id="lnk54"><path codeLine="64" d="M213.2021,291.6918 C205.7121,311.0618 195.07,338.6494 187.54,358.1494" fill="none" id="ActionResult-backto-AbstractMapping" style="stroke:#404040;stroke-width:1.2;"/><polygon fill="#404040" points="217.53,280.4994,211.6353,284.6529,213.2021,291.6918,219.0969,287.5382,217.53,280.4994" style="stroke:#404040;stroke-width:1.2;"/><text fill="#000000" font-family="sans-serif" font-size="13" lengthAdjust="spacing" textLength="119.2344" x="206" y="324.9045">hasPhysicalMapping</text><text fill="#000000" font-family="sans-serif" font-size="13" lengthAdjust="spacing" textLength="19.5127" x="166.6787" y="347.521">0..*</text></g><!--link InstanceVariable to SubstantiveValueDomain--><g class="link" data-entity-1="ent0009" data-entity-2="ent0020" data-link-type="dependency" data-source-line="66" id="lnk56"><path codeLine="66" d="M1235.8,486.7594 C1234.72,498.7594 1233.4,517.8694 1234,534.4094 C1234.36,544.5194 1234.7192,550.0012 1235.4292,558.3112" fill="none" id="InstanceVariable-to-SubstantiveValueDomain" style="stroke:#404040;stroke-width:1.2;"/><polygon fill="#404040" points="1235.94,564.2894,1239.1593,554.9815,1235.5144,559.3075,1231.1884,555.6626,1235.94,564.2894" style="stroke:#404040;stroke-width:1.2;"/><text fill="#000000" font-family="sans-serif" font-size="13" lengthAdjust="spacing" textLength="169.0825" x="1235" y="530.9045">takesSubstantiveValuesFrom</text><text fill="#000000" font-family="sans-serif" font-size="13" lengthAdjust="spacing" textLength="21.6836" x="1210.3645" y="553.3319">0..1</text></g><!--link InstanceVariable to SentinelValueDomain--><g class="link" data-entity-1="ent0009" data-entity-2="ent0021" data-link-type="dependency" data-source-line="67" id="lnk57"><path codeLine="67" d="M1284.67,477.0094 C1321.55,480.7194 1372.33,490.5794 1409,516.4094 C1426.17,528.4994 1435.366,545.2547 1441.196,558.8547" fill="none" id="InstanceVariable-to-SentinelValueDomain" style="stroke:#404040;stroke-width:1.2;"/><polygon fill="#404040" points="1443.56,564.3694,1443.6904,554.5214,1441.59,559.7738,1436.3376,557.6734,1443.56,564.3694" style="stroke:#404040;stroke-width:1.2;"/><text fill="#000000" font-family="sans-serif" font-size="13" lengthAdjust="spacing" textLength="148.1289" x="1427" y="530.9045">takesSentinelValuesFrom</text><text fill="#000000" font-family="sans-serif" font-size="13" lengthAdjust="spacing" textLength="19.5127" x="1418.8317" y="553.4449">0..*</text></g><!--link AbstractMapping to InstanceVariable--><g class="link" data-entity-1="ent0010" data-entity-2="ent0009" data-link-type="dependency" data-source-line="68" id="lnk58"><path codeLine="68" d="M231.23,380.7894 C237.2,381.7494 243.23,382.6494 249,383.4094 C630.36,433.7994 727.9,426.5894 1111,461.4094 C1136.92,463.7694 1159.865,465.8523 1183.455,468.0123" fill="none" id="AbstractMapping-to-InstanceVariable" style="stroke:#404040;stroke-width:1.2;"/><polygon fill="#404040" points="1189.43,468.5594,1180.8322,463.7554,1184.4508,468.1035,1180.1028,471.7221,1189.43,468.5594" style="stroke:#404040;stroke-width:1.2;"/><text fill="#000000" font-family="sans-serif" font-size="13" lengthAdjust="spacing" textLength="43.3418" x="724" y="427.9045">formats</text><text fill="#000000" font-family="sans-serif" font-size="13" lengthAdjust="spacing" textLength="7.23" x="1174.2779" y="463.9474">1</text></g><!--link PrimaryKey to InstanceVariable--><g class="link" data-entity-1="ent0018" data-entity-2="ent0009" data-link-type="dependency" data-source-line="69" id="lnk59"><path codeLine="69" d="M1230.06,383.7394 C1224.12,391.5994 1217.15,402.4594 1214,413.4094 C1209.11,430.4394 1215.854,444.5147 1224.204,456.3647" fill="none" id="PrimaryKey-to-InstanceVariable" style="stroke:#404040;stroke-width:1.2;"/><polygon fill="#404040" points="1227.66,461.2694,1225.7457,451.6083,1224.78,457.1821,1219.2062,456.2164,1227.66,461.2694" style="stroke:#404040;stroke-width:1.2;"/><text fill="#000000" font-family="sans-serif" font-size="13" lengthAdjust="spacing" textLength="85.979" x="1215" y="427.9045">isComposedOf</text><text fill="#000000" font-family="sans-serif" font-size="13" lengthAdjust="spacing" textLength="19.5127" x="1200.9137" y="450.3037">1..*</text></g><!--reverse link AbstractDataStructure to DataStructureComponent--><g class="link" data-entity-1="ent0023" data-entity-2="ent0022" data-link-type="composition" data-source-line="70" id="lnk60"><path codeLine="70" d="M857,292.4194 C857,311.1694 857,337.4694 857,369.9094 C857,369.9094 857,369.9094 857,680.9094 C857,731.0094 913.78,757.2594 959.69,770.2994" fill="none" id="AbstractDataStructure-backto-DataStructureComponent" style="stroke:#404040;stroke-width:1.2;"/><polygon fill="#404040" points="857,280.4194,853,286.4194,857,292.4194,861,286.4194,857,280.4194" style="stroke:#404040;stroke-width:1.2;"/><text fill="#000000" font-family="sans-serif" font-size="13" lengthAdjust="spacing" textLength="88.1689" x="858" y="530.9045">hasComponent</text><text fill="#000000" font-family="sans-serif" font-size="13" lengthAdjust="spacing" textLength="19.5127" x="918.6321" y="761.0101">1..*</text></g><!--reverse link AbstractDataStructure to PrimaryKey--><g class="link" data-entity-1="ent0023" data-entity-2="ent0018" data-link-type="composition" data-source-line="71" id="lnk61"><path codeLine="71" d="M912.5337,283.5579 C989.6637,303.8879 1136.2,342.5394 1205.81,360.8894" fill="none" id="AbstractDataStructure-backto-PrimaryKey" style="stroke:#404040;stroke-width:1.2;"/><polygon fill="#404040" points="900.93,280.4994,905.7123,285.8965,912.5337,283.5579,907.7513,278.1607,900.93,280.4994" style="stroke:#404040;stroke-width:1.2;"/><text fill="#000000" font-family="sans-serif" font-size="13" lengthAdjust="spacing" textLength="88.1372" x="1073" y="324.9045">hasPrimaryKey</text><text fill="#000000" font-family="sans-serif" font-size="13" lengthAdjust="spacing" textLength="21.6836" x="1179.0023" y="354.3416">0..1</text></g><!--reverse link DataStructure to ForeignKey--><g class="link" data-entity-1="ent0024" data-entity-2="ent0030" data-link-type="composition" data-source-line="72" id="lnk62"><path codeLine="72" d="M977.2088,390.2663 C988.6288,398.1663 993.8,402.3594 1006,413.4094 C1022.96,428.7594 1040.35,448.8694 1050.66,461.3294" fill="none" id="DataStructure-backto-ForeignKey" style="stroke:#404040;stroke-width:1.2;"/><polygon fill="#404040" points="967.34,383.4394,969.9988,390.1424,977.2088,390.2663,974.55,383.5632,967.34,383.4394" style="stroke:#404040;stroke-width:1.2;"/><text fill="#000000" font-family="sans-serif" font-size="13" lengthAdjust="spacing" textLength="87.439" x="1025" y="427.9045">hasForeignKey</text><text fill="#000000" font-family="sans-serif" font-size="13" lengthAdjust="spacing" textLength="19.5127" x="1023.9189" y="450.3884">0..*</text></g><!--reverse link DimensionGroup to DataStructureComponent--><g class="link" data-entity-1="ent0028" data-entity-2="ent0022" data-link-type="composition" data-source-line="73" id="lnk63"><path codeLine="73" d="M953.5906,704.4849 C951.5506,717.0749 952.06,725.4294 960,740.4094 C966.94,753.4994 980.05,763.4794 991.95,770.3794" fill="none" id="DimensionGroup-backto-DataStructureComponent" style="stroke:#404040;stroke-width:1.2;"/><polygon fill="#404040" points="955.51,692.6394,950.6018,697.9223,953.5906,704.4849,958.4988,699.2019,955.51,692.6394" style="stroke:#404040;stroke-width:1.2;"/><text fill="#000000" font-family="sans-serif" font-size="13" lengthAdjust="spacing" textLength="88.1689" x="961" y="736.9045">hasComponent</text><text fill="#000000" font-family="sans-serif" font-size="13" lengthAdjust="spacing" textLength="19.5127" x="958.789" y="759.459">1..*</text></g><!--link PrimaryKeyComponent to DataStructureComponent--><g class="link" data-entity-1="ent0029" data-entity-2="ent0022" data-link-type="dependency" data-source-line="74" id="lnk64"><path codeLine="74" d="M1235.67,692.4994 C1188.15,711.9294 1098.4838,748.5888 1050.9338,768.0288" fill="none" id="PrimaryKeyComponent-to-DataStructureComponent" style="stroke:#404040;stroke-width:1.2;"/><polygon fill="#404040" points="1045.38,770.2994,1055.2244,770.596,1050.0082,768.4072,1052.197,763.191,1045.38,770.2994" style="stroke:#404040;stroke-width:1.2;"/><text fill="#000000" font-family="sans-serif" font-size="13" lengthAdjust="spacing" textLength="86.709" x="1157" y="736.9045">correspondsTo</text><text fill="#000000" font-family="sans-serif" font-size="13" lengthAdjust="spacing" textLength="21.6836" x="1031.8816" y="759.346">0..1</text></g><!--reverse link ForeignKey to ForeignKeyComponent--><g class="link" data-entity-1="ent0030" data-entity-2="ent0031" data-link-type="composition" data-source-line="75" id="lnk65"><path codeLine="75" d="M1061.6343,498.4703 C1062.9843,517.8403 1064.83,544.6494 1066.18,564.1494" fill="none" id="ForeignKey-backto-ForeignKeyComponent" style="stroke:#404040;stroke-width:1.2;"/><polygon fill="#404040" points="1060.8,486.4994,1057.2268,492.763,1061.6343,498.4703,1065.2075,492.2067,1060.8,486.4994" style="stroke:#404040;stroke-width:1.2;"/><text fill="#000000" font-family="sans-serif" font-size="13" lengthAdjust="spacing" textLength="85.979" x="1065" y="530.9045">isComposedOf</text><text fill="#000000" font-family="sans-serif" font-size="13" lengthAdjust="spacing" textLength="19.5127" x="1043.1378" y="553.521">1..*</text></g><!--link ForeignKeyComponent to PrimaryKeyComponent--><g class="link" data-entity-1="ent0031" data-entity-2="ent0029" data-link-type="dependency" data-source-line="76" id="lnk66"><path codeLine="76" d="M1089.6,589.4994 C1127.5,608.9294 1198.1007,645.1222 1236.0207,664.5622" fill="none" id="ForeignKeyComponent-to-PrimaryKeyComponent" style="stroke:#404040;stroke-width:1.2;"/><polygon fill="#404040" points="1241.36,667.2994,1235.1759,659.634,1236.9106,665.0184,1231.5263,666.7531,1241.36,667.2994" style="stroke:#404040;stroke-width:1.2;"/><text fill="#000000" font-family="sans-serif" font-size="13" lengthAdjust="spacing" textLength="61.4199" x="1179" y="633.9045">references</text><text fill="#000000" font-family="sans-serif" font-size="13" lengthAdjust="spacing" textLength="21.6836" x="1206.8207" y="656.346">0..1</text></g><!--link ForeignKeyComponent to DataStructureComponent--><g class="link" data-entity-1="ent0031" data-entity-2="ent0022" data-link-type="dependency" data-source-line="77" id="lnk67"><path codeLine="77" d="M1068.51,589.5294 C1071.57,617.0594 1076.47,687.8394 1054,740.4094 C1048.99,752.1294 1043.7133,758.7137 1035.5133,766.3037" fill="none" id="ForeignKeyComponent-to-DataStructureComponent" style="stroke:#404040;stroke-width:1.2;"/><polygon fill="#404040" points="1031.11,770.3794,1040.432,767.2013,1034.7794,766.983,1034.9978,761.3303,1031.11,770.3794" style="stroke:#404040;stroke-width:1.2;"/><text fill="#000000" font-family="sans-serif" font-size="13" lengthAdjust="spacing" textLength="86.709" x="1072" y="685.4045">correspondsTo</text><text fill="#000000" font-family="sans-serif" font-size="13" lengthAdjust="spacing" textLength="21.6836" x="1011.7252" y="759.459">0..1</text></g><?plantuml-src bLRBRjim4BphAmZd5i11dBGNeIZWs5OGD463ncZEbBIEsKYaG59stGVGZ-WNzajAlVcIay0NSpX3BdU7N4aYCq1BBF4IHC998GcZZqHk7oGl4rboGF_-_4Li1tn7O1ziIGee8Jp9eFaFUI4FA8Sy1Yu2yKneWJdEaTZYbEq9VK8Rd0dGPkQSi_rwIv9d2aAWsTc5DfbaM64_0zJG5YnZ79syEwz-2hnYF0Lken6Zye7y03Ix27u70Ow5v3YHxMAJ1SiB9eY4Uyus98C9mWBP83g9Lj5giGfQKPKI0RBcjlzzb2NRqupXjETrW4r-X7X-VrFJch-Ai8Wk5r57c2TLwh-0ABDcLnsmoIheNJM_8_9GatN0tdgXmihOqnT8LFQQm-k8JR-XGcAQm5VC2OxRTDcW4irNxvUNJhBdxVWE5uMgVdCI4tCEipq8ak1CbrYOBLd3TsC7RMnJRrc29UCwsuHwmTXHgh8-j5QmC2Sk79SPvbKukig5RM5_tL9Tvw2sh88ZTGRW1ITqSAk6kTOXEUQ7Jz0Pfnls9Ur3mf88IHBHnj8DdTZBk3A7Cf-oHrR2akMOq4RadN8M0CMWa3bg5nyjLfsWBbtrvQQW9SITUj71XimjVly-McbpPSVf90Sgr4N7cKSvCcalSileawjsK5lsg1vmL-QWeo5VSrOMPg0rP0i6Zvc5yU2sD68So1Fjt3eCnudc7XwybzhlqeTVqwdzylX9sdlZ9vXFJ60_6yqYpglWvpclGE0tOaqseAF44MyTqpYEEaPsV1HqVNGw_OWcvsTdfnEpRuLeZyKrKE1OGdfrC0MpYTMtGYJA-1iaylEcPvwgZIUpUccdPOLer_wz0oogV9eo5T5ieZ-88TfYCOmTjjf4UnLLEFt0HpM-3aAKAYOdSLarUH-z_Khm4Fj5DBPjmYPqoyg6c0r7jbqN8lN9njQ70jAvy6yvcpXz9aIROMIgkeA_M4AVmc-n414nN0pbbJPVUaxq3wWG5KnM_GHdEXuOfBScr3oC5dDNJvN9c9KoSBoeSKTwP8WaVWPXpug8itnylSgIdgxPBQPFDIlPv-okckVsR1ZFiHI1TaCQzjXr8wBvoePKbTTVHks-ZhJfEl7zyDWohxg_haPjhRMLMZEC0wkplJbUNu-pZE9TH3cAWr33LAnPe0MeHU3hRLRMVHHjUrzq8UAm0Gwgbk8b_Il3_my0?></g></svg>