<svg xmlns="http://www.w3.org/2000/svg" xmlns:xlink="http://www.w3.org/1999/xlink" contentStyleType="text/css" data-diagram-type="CLASS" height="202px" preserveAspectRatio="none" style="width:738px;height:202px;background:#FFFFFF;" version="1.1" viewBox="0 0 738 202" width="738px" zoomAndPan="magnify"><?plantuml 1.2026.3?><defs/><g><g class="title" data-source-line="1"><text fill="#000000" font-family="sans-serif" font-size="14" font-weight="700" lengthAdjust="spacing" textLength="71.5723" x="329.9879" y="24.5332">XsdAnyUri</text></g><!--class XsdAnyUri--><g class="entity" data-qualified-name="XsdAnyUri" data-source-line="12" id="ent0002"><rect fill="#FAE5D3" height="40.1875" rx="2.5" ry="2.5" style="stroke:#404040;stroke-width:0.5;" width="65.3809" x="371.24" y="148.6094"/><text fill="#000000" font-family="sans-serif" font-size="12" font-style="italic" lengthAdjust="spacing" textLength="63.3809" x="372.24" y="166.0664">&#171;dataType&#187;</text><text fill="#000000" font-family="sans-serif" font-size="12" lengthAdjust="spacing" textLength="56.6836" x="375.5886" y="181.1602">XsdAnyUri</text></g><!--class VariableMeasured--><g class="entity" data-qualified-name="VariableMeasured" data-source-line="13" id="ent0003"><rect fill="#EEEEEE" height="25.0938" rx="2.5" ry="2.5" style="stroke:#404040;stroke-width:0.5;" width="103.3887" x="67.24" y="45.6094"/><text fill="#000000" font-family="sans-serif" font-size="12" lengthAdjust="spacing" textLength="97.3887" x="70.24" y="63.0664">VariableMeasured</text></g><!--class SpatialExtent--><g class="entity" data-qualified-name="SpatialExtent" data-source-line="17" id="ent0007"><rect fill="#EEEEEE" height="25.0938" rx="2.5" ry="2.5" style="stroke:#404040;stroke-width:0.5;" width="76.7109" x="274.24" y="45.6094"/><text fill="#000000" font-family="sans-serif" font-size="12" lengthAdjust="spacing" textLength="70.7109" x="277.24" y="63.0664">SpatialExtent</text></g><!--class QualityMeasure--><g class="entity" data-qualified-name="QualityMeasure" data-source-line="19" id="ent0009"><rect fill="#EEEEEE" height="25.0938" rx="2.5" ry="2.5" style="stroke:#404040;stroke-width:0.5;" width="90.0352" x="449.74" y="45.6094"/><text fill="#000000" font-family="sans-serif" font-size="12" lengthAdjust="spacing" textLength="84.0352" x="452.74" y="63.0664">QualityMeasure</text></g><!--class Concept--><g class="entity" data-qualified-name="Concept" data-source-line="23" id="ent0013"><rect fill="#EEEEEE" height="25.0938" rx="2.5" ry="2.5" style="stroke:#404040;stroke-width:0.5;" width="50.6953" x="653.24" y="45.6094"/><text fill="#000000" font-family="sans-serif" font-size="12" lengthAdjust="spacing" textLength="44.6953" x="656.24" y="63.0664">Concept</text></g><!--link VariableMeasured to XsdAnyUri--><g class="link" data-entity-1="ent0003" data-entity-2="ent0002" data-link-type="dependency" data-source-line="14" id="lnk4"><path codeLine="14" d="M71.94,70.6894 C39.78,80.8294 6,97.2894 24.74,118.6094 C47.52,144.5194 277.4903,160.3176 365.1803,165.4676" fill="none" id="VariableMeasured-to-XsdAnyUri" style="stroke:#404040;stroke-width:1.2;stroke-dasharray:7,7;"/><polygon fill="#404040" points="371.17,165.8194,362.42,161.2986,366.1786,165.5262,361.951,169.2848,371.17,165.8194" style="stroke:#404040;stroke-width:1.2;"/><text fill="#000000" font-family="sans-serif" font-size="13" lengthAdjust="spacing" textLength="49.1372" x="25.74" y="115.1045">identifier</text></g><!--link VariableMeasured to XsdAnyUri--><g class="link" data-entity-1="ent0003" data-entity-2="ent0002" data-link-type="dependency" data-source-line="15" id="lnk5"><path codeLine="15" d="M113.95,70.6594 C109.33,83.8594 104.53,105.3294 115.74,118.6094 C148.13,156.9794 296.7021,165.1515 365.0821,166.9515" fill="none" id="VariableMeasured-to-XsdAnyUri-1" style="stroke:#404040;stroke-width:1.2;stroke-dasharray:7,7;"/><polygon fill="#404040" points="371.08,167.1094,362.1884,162.8739,366.0817,166.9778,361.9779,170.8712,371.08,167.1094" style="stroke:#404040;stroke-width:1.2;"/><text fill="#000000" font-family="sans-serif" font-size="13" lengthAdjust="spacing" textLength="58.5317" x="116.74" y="115.1045">propertyId</text></g><!--link VariableMeasured to XsdAnyUri--><g class="link" data-entity-1="ent0003" data-entity-2="ent0002" data-link-type="dependency" data-source-line="16" id="lnk6"><path codeLine="16" d="M140.25,70.6694 C164.64,83.4794 205.81,104.2194 242.74,118.6094 C286.3,135.5794 332.5031,148.9314 365.3831,157.7114" fill="none" id="VariableMeasured-to-XsdAnyUri-2" style="stroke:#404040;stroke-width:1.2;stroke-dasharray:7,7;"/><polygon fill="#404040" points="371.18,159.2594,363.5166,153.0729,366.3493,157.9694,361.4527,160.802,371.18,159.2594" style="stroke:#404040;stroke-width:1.2;"/><text fill="#000000" font-family="sans-serif" font-size="13" lengthAdjust="spacing" textLength="52.0381" x="243.74" y="115.1045">unitCode</text></g><!--link SpatialExtent to XsdAnyUri--><g class="link" data-entity-1="ent0007" data-entity-2="ent0002" data-link-type="dependency" data-source-line="18" id="lnk8"><path codeLine="18" d="M308.45,71.0194 C304.65,83.7694 300.95,104.1094 309.74,118.6094 C323.01,140.4794 343.868,151.2126 365.388,158.1326" fill="none" id="SpatialExtent-to-XsdAnyUri" style="stroke:#404040;stroke-width:1.2;stroke-dasharray:7,7;"/><polygon fill="#404040" points="371.1,159.9694,363.7566,153.4063,366.34,158.4388,361.3076,161.0222,371.1,159.9694" style="stroke:#404040;stroke-width:1.2;"/><text fill="#000000" font-family="sans-serif" font-size="13" lengthAdjust="spacing" textLength="49.1372" x="310.74" y="115.1045">identifier</text></g><!--link QualityMeasure to XsdAnyUri--><g class="link" data-entity-1="ent0009" data-entity-2="ent0002" data-link-type="dependency" data-source-line="20" id="lnk10"><path codeLine="20" d="M449.33,67.8394 C431.01,73.8294 411.65,83.8694 400.74,100.6094 C391.59,114.6594 392.221,128.2795 395.811,142.5995" fill="none" id="QualityMeasure-to-XsdAnyUri" style="stroke:#404040;stroke-width:1.2;stroke-dasharray:7,7;"/><polygon fill="#404040" points="397.27,148.4194,398.9614,138.7168,396.0541,143.5695,391.2015,140.6622,397.27,148.4194" style="stroke:#404040;stroke-width:1.2;"/><text fill="#000000" font-family="sans-serif" font-size="13" lengthAdjust="spacing" textLength="49.1372" x="401.74" y="115.1045">identifier</text></g><!--link QualityMeasure to XsdAnyUri--><g class="link" data-entity-1="ent0009" data-entity-2="ent0002" data-link-type="dependency" data-source-line="21" id="lnk11"><path codeLine="21" d="M488.29,70.6294 C481.1,83.0294 468.76,103.0894 455.74,118.6094 C446.9,129.1594 440.4058,135.7612 430.8358,144.3912" fill="none" id="QualityMeasure-to-XsdAnyUri-1" style="stroke:#404040;stroke-width:1.2;stroke-dasharray:7,7;"/><polygon fill="#404040" points="426.38,148.4094,435.7425,145.3527,430.0932,145.0609,430.385,139.4116,426.38,148.4094" style="stroke:#404040;stroke-width:1.2;"/><text fill="#000000" font-family="sans-serif" font-size="13" lengthAdjust="spacing" textLength="35.3882" x="469.74" y="115.1045">metric</text></g><!--link QualityMeasure to XsdAnyUri--><g class="link" data-entity-1="ent0009" data-entity-2="ent0002" data-link-type="dependency" data-source-line="22" id="lnk12"><path codeLine="22" d="M504.09,70.8594 C512.91,83.4694 523.43,103.6894 513.74,118.6094 C496.78,144.7394 468.1579,155.7514 442.2979,161.4814" fill="none" id="QualityMeasure-to-XsdAnyUri-2" style="stroke:#404040;stroke-width:1.2;stroke-dasharray:7,7;"/><polygon fill="#404040" points="436.44,162.7794,446.0922,164.7377,441.3216,161.6977,444.3616,156.9271,436.44,162.7794" style="stroke:#404040;stroke-width:1.2;"/><text fill="#000000" font-family="sans-serif" font-size="13" lengthAdjust="spacing" textLength="20.96" x="518.74" y="115.1045">unit</text></g><!--link Concept to XsdAnyUri--><g class="link" data-entity-1="ent0013" data-entity-2="ent0002" data-link-type="dependency" data-source-line="24" id="lnk14"><path codeLine="24" d="M654.9,70.7894 C628.88,83.3494 585.83,103.5194 547.74,118.6094 C510.06,133.5394 471.5089,146.3645 442.1089,155.6945" fill="none" id="Concept-to-XsdAnyUri" style="stroke:#404040;stroke-width:1.2;stroke-dasharray:7,7;"/><polygon fill="#404040" points="436.39,157.5094,446.1783,158.5997,441.1558,155.997,443.7585,150.9744,436.39,157.5094" style="stroke:#404040;stroke-width:1.2;"/><text fill="#000000" font-family="sans-serif" font-size="13" lengthAdjust="spacing" textLength="49.1372" x="589.74" y="115.1045">identifier</text></g><!--link Concept to XsdAnyUri--><g class="link" data-entity-1="ent0013" data-entity-2="ent0002" data-link-type="dependency" data-source-line="25" id="lnk15"><path codeLine="25" d="M675.96,70.7194 C672.05,84.3794 663.57,106.7194 647.74,118.6094 C614.75,143.3894 501.1382,157.8522 442.5382,163.9122" fill="none" id="Concept-to-XsdAnyUri-1" style="stroke:#404040;stroke-width:1.2;stroke-dasharray:7,7;"/><polygon fill="#404040" points="436.57,164.5294,445.9337,167.5824,441.5435,164.0151,445.1108,159.6248,436.57,164.5294" style="stroke:#404040;stroke-width:1.2;"/><text fill="#000000" font-family="sans-serif" font-size="13" lengthAdjust="spacing" textLength="57.8081" x="664.74" y="115.1045">inScheme</text></g><?plantuml-src XP11Jm8n48Nl_HKJk1D1lHX2WWY91my6D5w7xU1EwBRDj0HNutztsMLNM2FRNgPlNb-_JkHe2Dw2djhyHLYbh0aIbiHGLLFcOmuPPMkIeCAMhKV134AAsktPliC6JQ2JpbJ4xLSf9rjB8S1mC3ff9WOBxKj1PPivumJwDrU7NOZtJZH9Mrqu6vVyIJ0SgM-bgenU0zq33BzVWF5OOyHLxcaoWVvYEhzzkAxllA8mhWqz4OQTa2wljaNepykb_ZG6Wyd9GtTG3CX6tZ19jzUByoGnVzJTtftbE7EQQkobnyXevX-nUAzaFbCQu7Fr0kqnztc7XcD-v2Y3pwKckILVYEvmPXI5aoxNOG0rvCpPX7prxMFTODNd2pp_MkmoIIaZzGC0?></g></svg>