<svg xmlns="http://www.w3.org/2000/svg" xmlns:xlink="http://www.w3.org/1999/xlink" contentStyleType="text/css" data-diagram-type="CLASS" height="202px" preserveAspectRatio="none" style="width:760px;height:202px;background:#FFFFFF;" version="1.1" viewBox="0 0 760 202" width="760px" zoomAndPan="magnify"><?plantuml 1.2026.3?><defs/><g><g class="title" data-source-line="1"><text fill="#000000" font-family="sans-serif" font-size="14" font-weight="700" lengthAdjust="spacing" textLength="71.5723" x="340.8479" y="24.5332">XsdAnyUri</text></g><!--class XsdAnyUri--><g class="entity" data-qualified-name="XsdAnyUri" data-source-line="12" id="ent0002"><rect fill="#FAE5D3" height="40.1875" rx="2.5" ry="2.5" style="stroke:#404040;stroke-width:0.5;" width="65.3809" x="365" y="148.6094"/><text fill="#000000" font-family="sans-serif" font-size="12" font-style="italic" lengthAdjust="spacing" textLength="63.3809" x="366" y="166.0664">&#171;dataType&#187;</text><text fill="#000000" font-family="sans-serif" font-size="12" lengthAdjust="spacing" textLength="56.6836" x="369.3486" y="181.1602">XsdAnyUri</text></g><!--class VariableMeasured--><g class="entity" data-qualified-name="VariableMeasured" data-source-line="13" id="ent0003"><rect fill="#EEEEEE" height="25.0938" rx="2.5" ry="2.5" style="stroke:#404040;stroke-width:0.5;" width="103.3887" x="7" y="45.6094"/><text fill="#000000" font-family="sans-serif" font-size="12" lengthAdjust="spacing" textLength="97.3887" x="10" y="63.0664">VariableMeasured</text></g><!--class AbstractGeometry--><g class="entity" data-qualified-name="AbstractGeometry" data-source-line="15" id="ent0005"><rect fill="#EEEEEE" height="25.0938" rx="2.5" ry="2.5" style="stroke:#404040;stroke-width:0.5;" width="102.6973" x="145" y="45.6094"/><text fill="#000000" font-family="sans-serif" font-size="12" font-style="italic" lengthAdjust="spacing" textLength="96.6973" x="148" y="63.0664">AbstractGeometry</text></g><!--class QualityMeasure--><g class="entity" data-qualified-name="QualityMeasure" data-source-line="17" id="ent0007"><rect fill="#EEEEEE" height="25.0938" rx="2.5" ry="2.5" style="stroke:#404040;stroke-width:0.5;" width="90.0352" x="283.5" y="45.6094"/><text fill="#000000" font-family="sans-serif" font-size="12" lengthAdjust="spacing" textLength="84.0352" x="286.5" y="63.0664">QualityMeasure</text></g><!--class Concept--><g class="entity" data-qualified-name="Concept" data-source-line="20" id="ent0010"><rect fill="#EEEEEE" height="25.0938" rx="2.5" ry="2.5" style="stroke:#404040;stroke-width:0.5;" width="50.6953" x="409" y="45.6094"/><text fill="#000000" font-family="sans-serif" font-size="12" lengthAdjust="spacing" textLength="44.6953" x="412" y="63.0664">Concept</text></g><!--class Identifier--><g class="entity" data-qualified-name="Identifier" data-source-line="22" id="ent0012"><rect fill="#EEEEEE" height="25.0938" rx="2.5" ry="2.5" style="stroke:#404040;stroke-width:0.5;" width="52.0254" x="501.5" y="45.6094"/><text fill="#000000" font-family="sans-serif" font-size="12" lengthAdjust="spacing" textLength="46.0254" x="504.5" y="63.0664">Identifier</text></g><!--class DefinedTerm--><g class="entity" data-qualified-name="DefinedTerm" data-source-line="24" id="ent0014"><rect fill="#EEEEEE" height="25.0938" rx="2.5" ry="2.5" style="stroke:#404040;stroke-width:0.5;" width="75.3574" x="613" y="45.6094"/><text fill="#000000" font-family="sans-serif" font-size="12" lengthAdjust="spacing" textLength="69.3574" x="616" y="63.0664">DefinedTerm</text></g><!--link VariableMeasured to XsdAnyUri--><g class="link" data-entity-1="ent0003" data-entity-2="ent0002" data-link-type="dependency" data-source-line="14" id="lnk4"><path codeLine="14" d="M75.87,70.6694 C96.77,84.0794 133.33,105.9494 167.5,118.6094 C235.26,143.7094 313.324,156.7265 358.724,162.8565" fill="none" id="VariableMeasured-to-XsdAnyUri" style="stroke:#404040;stroke-width:1.2;stroke-dasharray:7,7;"/><polygon fill="#404040" points="364.67,163.6594,356.2862,158.4911,359.715,162.9903,355.2157,166.4191,364.67,163.6594" style="stroke:#404040;stroke-width:1.2;"/><text fill="#000000" font-family="sans-serif" font-size="13" lengthAdjust="spacing" textLength="58.5317" x="168.5" y="115.1045">propertyId</text></g><!--link AbstractGeometry to XsdAnyUri--><g class="link" data-entity-1="ent0005" data-entity-2="ent0002" data-link-type="dependency" data-source-line="16" id="lnk6"><path codeLine="16" d="M205.48,70.7394 C216.28,84.0194 235.59,105.5594 256.5,118.6094 C290.58,139.8694 329.2536,151.9167 359.0636,159.2467" fill="none" id="AbstractGeometry-to-XsdAnyUri" style="stroke:#404040;stroke-width:1.2;stroke-dasharray:7,7;"/><polygon fill="#404040" points="364.89,160.6794,357.1054,154.6461,360.0346,159.4855,355.1952,162.4147,364.89,160.6794" style="stroke:#404040;stroke-width:1.2;"/><text fill="#000000" font-family="sans-serif" font-size="13" lengthAdjust="spacing" textLength="17.3291" x="257.5" y="115.1045">crs</text></g><!--link QualityMeasure to XsdAnyUri--><g class="link" data-entity-1="ent0007" data-entity-2="ent0002" data-link-type="dependency" data-source-line="18" id="lnk8"><path codeLine="18" d="M310.55,70.7894 C294.62,82.6594 275.45,101.6594 286.5,118.6094 C303.69,144.9894 332.7956,156.0009 358.9156,161.6509" fill="none" id="QualityMeasure-to-XsdAnyUri" style="stroke:#404040;stroke-width:1.2;stroke-dasharray:7,7;"/><polygon fill="#404040" points="364.78,162.9194,356.8291,157.107,359.893,161.8623,355.1378,164.9262,364.78,162.9194" style="stroke:#404040;stroke-width:1.2;"/><text fill="#000000" font-family="sans-serif" font-size="13" lengthAdjust="spacing" textLength="35.3882" x="287.5" y="115.1045">metric</text></g><!--link QualityMeasure to XsdAnyUri--><g class="link" data-entity-1="ent0007" data-entity-2="ent0002" data-link-type="dependency" data-source-line="19" id="lnk9"><path codeLine="19" d="M335.88,70.7194 C347.7,89.3094 367.7811,120.8759 382.0911,143.3859" fill="none" id="QualityMeasure-to-XsdAnyUri-1" style="stroke:#404040;stroke-width:1.2;stroke-dasharray:7,7;"/><polygon fill="#404040" points="385.31,148.4494,383.8572,138.7083,382.6276,144.2298,377.106,143.0001,385.31,148.4494" style="stroke:#404040;stroke-width:1.2;"/><text fill="#000000" font-family="sans-serif" font-size="13" lengthAdjust="spacing" textLength="20.96" x="366.5" y="115.1045">unit</text></g><!--link Concept to XsdAnyUri--><g class="link" data-entity-1="ent0010" data-entity-2="ent0002" data-link-type="dependency" data-source-line="21" id="lnk11"><path codeLine="21" d="M430.54,70.7194 C424.2,89.3094 413.6474,120.2608 405.9674,142.7708" fill="none" id="Concept-to-XsdAnyUri" style="stroke:#404040;stroke-width:1.2;stroke-dasharray:7,7;"/><polygon fill="#404040" points="404.03,148.4494,410.7219,141.2231,405.6445,143.7172,403.1504,138.6399,404.03,148.4494" style="stroke:#404040;stroke-width:1.2;"/><text fill="#000000" font-family="sans-serif" font-size="13" lengthAdjust="spacing" textLength="57.8081" x="420.5" y="115.1045">inScheme</text></g><!--link Identifier to XsdAnyUri--><g class="link" data-entity-1="ent0012" data-entity-2="ent0002" data-link-type="dependency" data-source-line="23" id="lnk13"><path codeLine="23" d="M521.59,70.8194 C514.6,83.7694 501.94,104.6394 486.5,118.6094 C470.02,133.5194 453.6264,143.0592 435.7164,151.5092" fill="none" id="Identifier-to-XsdAnyUri" style="stroke:#404040;stroke-width:1.2;stroke-dasharray:7,7;"/><polygon fill="#404040" points="430.29,154.0694,440.1363,153.8467,434.812,151.9359,436.7228,146.6115,430.29,154.0694" style="stroke:#404040;stroke-width:1.2;"/><text fill="#000000" font-family="sans-serif" font-size="13" lengthAdjust="spacing" textLength="14.4473" x="503.5" y="115.1045">url</text></g><!--link DefinedTerm to XsdAnyUri--><g class="link" data-entity-1="ent0014" data-entity-2="ent0002" data-link-type="dependency" data-source-line="25" id="lnk15"><path codeLine="25" d="M627.91,70.6594 C603.26,83.0994 562.49,103.1694 526.5,118.6094 C494.13,132.4894 462.0428,144.5501 435.7828,154.0401" fill="none" id="DefinedTerm-to-XsdAnyUri" style="stroke:#404040;stroke-width:1.2;stroke-dasharray:7,7;"/><polygon fill="#404040" points="430.14,156.0794,439.9637,156.7824,434.8424,154.38,437.2447,149.2586,430.14,156.0794" style="stroke:#404040;stroke-width:1.2;"/><text fill="#000000" font-family="sans-serif" font-size="13" lengthAdjust="spacing" textLength="49.1372" x="565.5" y="115.1045">identifier</text></g><!--link DefinedTerm to XsdAnyUri--><g class="link" data-entity-1="ent0014" data-entity-2="ent0002" data-link-type="dependency" data-source-line="26" id="lnk16"><path codeLine="26" d="M648.49,70.6394 C645.49,84.2294 638.51,106.4994 623.5,118.6094 C594.06,142.3794 491.3997,157.0155 436.1697,163.4455" fill="none" id="DefinedTerm-to-XsdAnyUri-1" style="stroke:#404040;stroke-width:1.2;stroke-dasharray:7,7;"/><polygon fill="#404040" points="430.21,164.1394,439.6122,167.0718,435.1765,163.5612,438.6871,159.1254,430.21,164.1394" style="stroke:#404040;stroke-width:1.2;"/><text fill="#000000" font-family="sans-serif" font-size="13" lengthAdjust="spacing" textLength="104.7681" x="639.5" y="115.1045">inDefinedTermSet</text></g><?plantuml-src XP3BJiCm44Nt_WghtLUqm0PLbK8Vg0iMg0MnTUq96TMFQEog2eX_fqqJroGIn1lFlJFdZXCmQE3lNcMsUYLa1IhW4abgkDp1bA7Y1imEo3E_HriA4eRxGYXtHFl1Sw4z94v6v8xR0kNUWlTyF9eafjJYf7qnVccRE-s83-zkpkSaFZfIG5rrvMpOu2VmyOHzCtPX3EBI0oxyzGbyEbKYY6rLmcp6XwjiUR-uRMVU1A7OQNW6uGy4gXxjYdouh3_MCqQZMHBqm4jo9L2ereg9dGyaP6XUECYQ-WcSWK1LdTGLOrBFw2R9qyzlo2y7eJ5KpL8rzxSKgHsvopmdeVolws0njD5pPoMKeSvixZ6ihRlpQ3Uo00CjOwt01imHgCPSoqXAfDuof5lE0dAqeBP0fWObTIIbMc-lcF9tcqtS3GJs0m00?></g></svg>