<svg xmlns="http://www.w3.org/2000/svg" xmlns:xlink="http://www.w3.org/1999/xlink" contentStyleType="text/css" data-diagram-type="CLASS" height="202px" preserveAspectRatio="none" style="width:801px;height:202px;background:#FFFFFF;" version="1.1" viewBox="0 0 801 202" width="801px" zoomAndPan="magnify"><?plantuml 1.2026.3?><defs/><g><g class="title" data-source-line="1"><text fill="#000000" font-family="sans-serif" font-size="14" font-weight="700" lengthAdjust="spacing" textLength="71.5723" x="361.5729" y="24.5332">XsdAnyUri</text></g><!--class XsdAnyUri--><g class="entity" data-qualified-name="XsdAnyUri" data-source-line="12" id="ent0002"><rect fill="#FAE5D3" height="40.1875" rx="2.5" ry="2.5" style="stroke:#404040;stroke-width:0.5;" width="65.3809" x="400.41" y="148.6094"/><text fill="#000000" font-family="sans-serif" font-size="12" font-style="italic" lengthAdjust="spacing" textLength="63.3809" x="401.41" y="166.0664">&#171;dataType&#187;</text><text fill="#000000" font-family="sans-serif" font-size="12" lengthAdjust="spacing" textLength="56.6836" x="404.7586" y="181.1602">XsdAnyUri</text></g><!--class VariableMeasured--><g class="entity" data-qualified-name="VariableMeasured" data-source-line="13" id="ent0003"><rect fill="#EEEEEE" height="25.0938" rx="2.5" ry="2.5" style="stroke:#404040;stroke-width:0.5;" width="103.3887" x="67.41" y="45.6094"/><text fill="#000000" font-family="sans-serif" font-size="12" lengthAdjust="spacing" textLength="97.3887" x="70.41" y="63.0664">VariableMeasured</text></g><!--class SpatialExtent--><g class="entity" data-qualified-name="SpatialExtent" data-source-line="17" id="ent0007"><rect fill="#EEEEEE" height="25.0938" rx="2.5" ry="2.5" style="stroke:#404040;stroke-width:0.5;" width="76.7109" x="249.41" y="45.6094"/><text fill="#000000" font-family="sans-serif" font-size="12" lengthAdjust="spacing" textLength="70.7109" x="252.41" y="63.0664">SpatialExtent</text></g><!--class AbstractGeometry--><g class="entity" data-qualified-name="AbstractGeometry" data-source-line="19" id="ent0009"><rect fill="#EEEEEE" height="25.0938" rx="2.5" ry="2.5" style="stroke:#404040;stroke-width:0.5;" width="102.6973" x="361.41" y="45.6094"/><text fill="#000000" font-family="sans-serif" font-size="12" font-style="italic" lengthAdjust="spacing" textLength="96.6973" x="364.41" y="63.0664">AbstractGeometry</text></g><!--class QualityMeasure--><g class="entity" data-qualified-name="QualityMeasure" data-source-line="21" id="ent0011"><rect fill="#EEEEEE" height="25.0938" rx="2.5" ry="2.5" style="stroke:#404040;stroke-width:0.5;" width="90.0352" x="508.91" y="45.6094"/><text fill="#000000" font-family="sans-serif" font-size="12" lengthAdjust="spacing" textLength="84.0352" x="511.91" y="63.0664">QualityMeasure</text></g><!--class Concept--><g class="entity" data-qualified-name="Concept" data-source-line="25" id="ent0015"><rect fill="#EEEEEE" height="25.0938" rx="2.5" ry="2.5" style="stroke:#404040;stroke-width:0.5;" width="50.6953" x="712.41" y="45.6094"/><text fill="#000000" font-family="sans-serif" font-size="12" lengthAdjust="spacing" textLength="44.6953" x="715.41" y="63.0664">Concept</text></g><!--link VariableMeasured to XsdAnyUri--><g class="link" data-entity-1="ent0003" data-entity-2="ent0002" data-link-type="dependency" data-source-line="14" id="lnk4"><path codeLine="14" d="M72.38,70.6294 C40.09,80.7894 6,97.2994 24.91,118.6094 C49.74,146.5994 301.7871,161.3269 394.2071,165.8369" fill="none" id="VariableMeasured-to-XsdAnyUri" style="stroke:#404040;stroke-width:1.2;stroke-dasharray:7,7;"/><polygon fill="#404040" points="400.2,166.1294,391.4057,161.6955,395.2059,165.8857,391.0157,169.686,400.2,166.1294" style="stroke:#404040;stroke-width:1.2;"/><text fill="#000000" font-family="sans-serif" font-size="13" lengthAdjust="spacing" textLength="49.1372" x="25.91" y="115.1045">identifier</text></g><!--link VariableMeasured to XsdAnyUri--><g class="link" data-entity-1="ent0003" data-entity-2="ent0002" data-link-type="dependency" data-source-line="15" id="lnk5"><path codeLine="15" d="M114.08,70.6894 C109.43,83.9194 104.6,105.4194 115.91,118.6094 C152.34,161.0994 320.9802,167.0195 394.3502,167.6295" fill="none" id="VariableMeasured-to-XsdAnyUri-1" style="stroke:#404040;stroke-width:1.2;stroke-dasharray:7,7;"/><polygon fill="#404040" points="400.35,167.6794,391.3836,163.6047,395.3502,167.6378,391.3171,171.6044,400.35,167.6794" style="stroke:#404040;stroke-width:1.2;"/><text fill="#000000" font-family="sans-serif" font-size="13" lengthAdjust="spacing" textLength="58.5317" x="116.91" y="115.1045">propertyId</text></g><!--link VariableMeasured to XsdAnyUri--><g class="link" data-entity-1="ent0003" data-entity-2="ent0002" data-link-type="dependency" data-source-line="16" id="lnk6"><path codeLine="16" d="M143.76,70.6994 C171.65,83.4394 218.42,104.0394 259.91,118.6094 C308.07,135.5194 359.4622,149.3521 394.5122,158.1921" fill="none" id="VariableMeasured-to-XsdAnyUri-2" style="stroke:#404040;stroke-width:1.2;stroke-dasharray:7,7;"/><polygon fill="#404040" points="400.33,159.6594,392.5815,153.5799,395.4818,158.4366,390.6251,161.3369,400.33,159.6594" style="stroke:#404040;stroke-width:1.2;"/><text fill="#000000" font-family="sans-serif" font-size="13" lengthAdjust="spacing" textLength="52.0381" x="260.91" y="115.1045">unitCode</text></g><!--link SpatialExtent to XsdAnyUri--><g class="link" data-entity-1="ent0007" data-entity-2="ent0002" data-link-type="dependency" data-source-line="18" id="lnk8"><path codeLine="18" d="M296.26,70.7394 C305.93,83.6094 322.86,104.4194 340.91,118.6094 C358.98,132.8094 376.3328,142.4209 394.7028,151.0809" fill="none" id="SpatialExtent-to-XsdAnyUri" style="stroke:#404040;stroke-width:1.2;stroke-dasharray:7,7;"/><polygon fill="#404040" points="400.13,153.6394,393.6949,146.1835,395.6074,151.5073,390.2836,153.4198,400.13,153.6394" style="stroke:#404040;stroke-width:1.2;"/><text fill="#000000" font-family="sans-serif" font-size="13" lengthAdjust="spacing" textLength="49.1372" x="341.91" y="115.1045">identifier</text></g><!--link AbstractGeometry to XsdAnyUri--><g class="link" data-entity-1="ent0009" data-entity-2="ent0002" data-link-type="dependency" data-source-line="20" id="lnk10"><path codeLine="20" d="M407.27,70.6694 C402.14,82.7694 396.04,102.2494 400.91,118.6094 C404.1,129.3194 406.9203,135.0274 413.1403,143.5774" fill="none" id="AbstractGeometry-to-XsdAnyUri" style="stroke:#404040;stroke-width:1.2;stroke-dasharray:7,7;"/><polygon fill="#404040" points="416.67,148.4294,414.6101,138.7983,413.7286,144.3861,408.1408,143.5046,416.67,148.4294" style="stroke:#404040;stroke-width:1.2;"/><text fill="#000000" font-family="sans-serif" font-size="13" lengthAdjust="spacing" textLength="17.3291" x="401.91" y="115.1045">crs</text></g><!--link QualityMeasure to XsdAnyUri--><g class="link" data-entity-1="ent0011" data-entity-2="ent0002" data-link-type="dependency" data-source-line="22" id="lnk12"><path codeLine="22" d="M509.9,70.6294 C492.48,77.0394 473.43,86.6394 459.91,100.6094 C447.18,113.7694 441.625,127.886 437.975,142.596" fill="none" id="QualityMeasure-to-XsdAnyUri" style="stroke:#404040;stroke-width:1.2;stroke-dasharray:7,7;"/><polygon fill="#404040" points="436.53,148.4194,442.5797,140.6476,437.7341,143.5665,434.8152,138.721,436.53,148.4194" style="stroke:#404040;stroke-width:1.2;"/><text fill="#000000" font-family="sans-serif" font-size="13" lengthAdjust="spacing" textLength="49.1372" x="460.91" y="115.1045">identifier</text></g><!--link QualityMeasure to XsdAnyUri--><g class="link" data-entity-1="ent0011" data-entity-2="ent0002" data-link-type="dependency" data-source-line="23" id="lnk13"><path codeLine="23" d="M548.32,70.7394 C541.71,83.6094 529.71,104.4194 514.91,118.6094 C500.55,132.3894 486.9357,141.2077 470.8957,149.6777" fill="none" id="QualityMeasure-to-XsdAnyUri-1" style="stroke:#404040;stroke-width:1.2;stroke-dasharray:7,7;"/><polygon fill="#404040" points="465.59,152.4794,475.4164,151.814,470.0114,150.1446,471.6808,144.7397,465.59,152.4794" style="stroke:#404040;stroke-width:1.2;"/><text fill="#000000" font-family="sans-serif" font-size="13" lengthAdjust="spacing" textLength="35.3882" x="531.91" y="115.1045">metric</text></g><!--link QualityMeasure to XsdAnyUri--><g class="link" data-entity-1="ent0011" data-entity-2="ent0002" data-link-type="dependency" data-source-line="24" id="lnk14"><path codeLine="24" d="M564.46,70.9494 C574.43,83.6294 586.41,103.9094 575.91,118.6094 C550.97,153.5194 505.5283,163.3196 471.6383,166.2096" fill="none" id="QualityMeasure-to-XsdAnyUri-2" style="stroke:#404040;stroke-width:1.2;stroke-dasharray:7,7;"/><polygon fill="#404040" points="465.66,166.7194,474.9673,169.9402,470.6419,166.2945,474.2876,161.9691,465.66,166.7194" style="stroke:#404040;stroke-width:1.2;"/><text fill="#000000" font-family="sans-serif" font-size="13" lengthAdjust="spacing" textLength="20.96" x="581.91" y="115.1045">unit</text></g><!--link Concept to XsdAnyUri--><g class="link" data-entity-1="ent0015" data-entity-2="ent0002" data-link-type="dependency" data-source-line="26" id="lnk16"><path codeLine="26" d="M715.92,70.8094 C690.97,83.7594 648.83,104.6194 610.91,118.6094 C561.29,136.9094 507.5339,150.6196 471.4339,159.0196" fill="none" id="Concept-to-XsdAnyUri" style="stroke:#404040;stroke-width:1.2;stroke-dasharray:7,7;"/><polygon fill="#404040" points="465.59,160.3794,475.2624,162.2356,470.4599,159.2462,473.4493,154.4438,465.59,160.3794" style="stroke:#404040;stroke-width:1.2;"/><text fill="#000000" font-family="sans-serif" font-size="13" lengthAdjust="spacing" textLength="49.1372" x="654.91" y="115.1045">identifier</text></g><!--link Concept to XsdAnyUri--><g class="link" data-entity-1="ent0015" data-entity-2="ent0002" data-link-type="dependency" data-source-line="27" id="lnk17"><path codeLine="27" d="M736.38,70.7194 C733.94,84.3894 727.8,106.7294 712.91,118.6094 C675.1,148.7594 537.0371,161.076 471.5971,165.376" fill="none" id="Concept-to-XsdAnyUri-1" style="stroke:#404040;stroke-width:1.2;stroke-dasharray:7,7;"/><polygon fill="#404040" points="465.61,165.7694,474.8529,169.1707,470.5992,165.4415,474.3284,161.1879,465.61,165.7694" style="stroke:#404040;stroke-width:1.2;"/><text fill="#000000" font-family="sans-serif" font-size="13" lengthAdjust="spacing" textLength="57.8081" x="727.91" y="115.1045">inScheme</text></g><?plantuml-src XP9FJy904CNl-oasS2U2UZ64f28O3nuCQBmEkuETiDrjPfTWDNvtI_z9IwJjPVVDstc_dJPGC2ZVlOvizieaOj8e5R4oMAunIKCc4qmso5xu7TaK61BfOz3kGFP3Ri5uFAb4pEwmZadjB7elnwF9IL4PoBLl8KlRt1d7SdXpTNnpyTwnHkwgIsV3YhvGZYVYHuYonw217aZmVrUGqwc60EiinTbC3fVHulRXkZxp1aomCVYCuFUCkZZQ5ULmKJpYh30QpKw2xcG-81jeIyZztfHTYXoo9ztltLiASwUnnbwb40ZCuZFaUGLpIsc0s-e5MjZumA12zJq6KRL_H9TWuAp8w8fDp5cXcwJoNwNg_B87Go6hhbhqRKjDruvyWRx7UMGYrUSwphY6d3khC2qdMwqRh7f_WUTVYrsf61CKlm00?></g></svg>