<svg xmlns="http://www.w3.org/2000/svg" xmlns:xlink="http://www.w3.org/1999/xlink" contentStyleType="text/css" data-diagram-type="CLASS" height="352px" preserveAspectRatio="none" style="width:716px;height:352px;background:#FFFFFF;" version="1.1" viewBox="0 0 716 352" width="716px" zoomAndPan="magnify"><?plantuml 1.2026.3?><defs/><g><g class="title" data-source-line="1"><text fill="#000000" font-family="sans-serif" font-size="14" font-weight="700" lengthAdjust="spacing" textLength="67.7031" x="320.8788" y="24.5332">Reference</text></g><!--class Reference--><g class="entity" data-qualified-name="Reference" data-source-line="12" id="ent0002"><rect fill="#FAE5D3" height="189.0625" rx="2.5" ry="2.5" style="stroke:#404040;stroke-width:0.5;" width="375.4258" x="155.68" y="148.6094"/><text fill="#000000" font-family="sans-serif" font-size="12" font-style="italic" lengthAdjust="spacing" textLength="63.3809" x="311.7025" y="166.0664">&#171;dataType&#187;</text><text fill="#000000" font-family="sans-serif" font-size="12" lengthAdjust="spacing" textLength="55.3652" x="315.7103" y="181.1602">Reference</text><line style="stroke:#404040;stroke-width:0.5;" x1="156.68" x2="530.1058" y1="188.7969" y2="188.7969"/><g data-visibility-modifier="PUBLIC_FIELD"><ellipse cx="166.68" cy="203.1016" fill="none" rx="3" ry="3" style="stroke:#038048;stroke-width:1;"/></g><text fill="#000000" font-family="sans-serif" font-size="14" lengthAdjust="spacing" textLength="349.4258" x="175.68" y="207.3301">ddiReference : InternationalRegistrationDataIdentifier [1]</text><g data-visibility-modifier="PUBLIC_FIELD"><ellipse cx="166.68" cy="220.7109" fill="none" rx="3" ry="3" style="stroke:#038048;stroke-width:1;"/></g><text fill="#000000" font-family="sans-serif" font-size="14" lengthAdjust="spacing" textLength="139.3096" x="175.68" y="224.9395">deepLink : Selector [1]</text><g data-visibility-modifier="PUBLIC_FIELD"><ellipse cx="166.68" cy="238.3203" fill="none" rx="3" ry="3" style="stroke:#038048;stroke-width:1;"/></g><text fill="#000000" font-family="sans-serif" font-size="14" lengthAdjust="spacing" textLength="133.0615" x="175.68" y="242.5488">description : string [1]</text><g data-visibility-modifier="PUBLIC_FIELD"><ellipse cx="166.68" cy="255.9297" fill="none" rx="3" ry="3" style="stroke:#038048;stroke-width:1;"/></g><text fill="#000000" font-family="sans-serif" font-size="14" lengthAdjust="spacing" textLength="193.0059" x="175.68" y="260.1582">location : InternationalString [1]</text><g data-visibility-modifier="PUBLIC_FIELD"><ellipse cx="166.68" cy="273.5391" fill="none" rx="3" ry="3" style="stroke:#038048;stroke-width:1;"/></g><text fill="#000000" font-family="sans-serif" font-size="14" lengthAdjust="spacing" textLength="253.6953" x="175.68" y="277.7676">nonDdiReference : NonDdiIdentifier [1..*]</text><g data-visibility-modifier="PUBLIC_FIELD"><ellipse cx="166.68" cy="291.1484" fill="none" rx="3" ry="3" style="stroke:#038048;stroke-width:1;"/></g><text fill="#000000" font-family="sans-serif" font-size="14" lengthAdjust="spacing" textLength="253.6748" x="175.68" y="295.377">semantic : ControlledVocabularyEntry [1]</text><g data-visibility-modifier="PUBLIC_FIELD"><ellipse cx="166.68" cy="308.7578" fill="none" rx="3" ry="3" style="stroke:#038048;stroke-width:1;"/></g><text fill="#000000" font-family="sans-serif" font-size="14" lengthAdjust="spacing" textLength="112.8135" x="175.68" y="312.9863">uri : XsdAnyUri [1]</text><g data-visibility-modifier="PUBLIC_FIELD"><ellipse cx="166.68" cy="326.3672" fill="none" rx="3" ry="3" style="stroke:#038048;stroke-width:1;"/></g><text fill="#000000" font-family="sans-serif" font-size="14" lengthAdjust="spacing" textLength="138.5029" x="175.68" y="330.5957">validType : string [1..*]</text></g><!--class Dataset--><g class="entity" data-qualified-name="Dataset" data-source-line="22" id="ent0003"><rect fill="#EEEEEE" height="25.0938" rx="2.5" ry="2.5" style="stroke:#404040;stroke-width:0.5;" width="47.3555" x="85.68" y="45.6094"/><text fill="#000000" font-family="sans-serif" font-size="12" lengthAdjust="spacing" textLength="41.3555" x="88.68" y="63.0664">Dataset</text></g><!--class DataDownload--><g class="entity" data-qualified-name="DataDownload" data-source-line="26" id="ent0007"><rect fill="#EEEEEE" height="25.0938" rx="2.5" ry="2.5" style="stroke:#404040;stroke-width:0.5;" width="84.7148" x="419.68" y="45.6094"/><text fill="#000000" font-family="sans-serif" font-size="12" lengthAdjust="spacing" textLength="78.7148" x="422.68" y="63.0664">DataDownload</text></g><!--class WebAPI--><g class="entity" data-qualified-name="WebAPI" data-source-line="29" id="ent0010"><rect fill="#EEEEEE" height="25.0938" rx="2.5" ry="2.5" style="stroke:#404040;stroke-width:0.5;" width="50.0156" x="634.18" y="45.6094"/><text fill="#000000" font-family="sans-serif" font-size="12" lengthAdjust="spacing" textLength="44.0156" x="637.18" y="63.0664">WebAPI</text></g><!--link Dataset to Reference--><g class="link" data-entity-1="ent0003" data-entity-2="ent0002" data-link-type="dependency" data-source-line="23" id="lnk4"><path codeLine="23" d="M85.53,64.8694 C54.5,73.6194 6,92.0894 24.18,118.6094 C54.89,163.4394 98.7493,189.982 149.6993,208.172" fill="none" id="Dataset-to-Reference" style="stroke:#404040;stroke-width:1.2;stroke-dasharray:7,7;"/><polygon fill="#404040" points="155.35,210.1894,148.2189,203.3962,150.6411,208.5082,145.5291,210.9304,155.35,210.1894" style="stroke:#404040;stroke-width:1.2;"/><text fill="#000000" font-family="sans-serif" font-size="13" lengthAdjust="spacing" textLength="40.4663" x="25.18" y="115.1045">license</text></g><!--link Dataset to Reference--><g class="link" data-entity-1="ent0003" data-entity-2="ent0002" data-link-type="dependency" data-source-line="24" id="lnk5"><path codeLine="24" d="M104.88,71.0194 C101.09,83.7694 97.38,104.1094 106.18,118.6094 C118.75,139.3394 131.2459,153.1683 150.8459,167.7483" fill="none" id="Dataset-to-Reference-1" style="stroke:#404040;stroke-width:1.2;stroke-dasharray:7,7;"/><polygon fill="#404040" points="155.66,171.3294,150.8262,162.7483,151.6482,168.3451,146.0514,169.1671,155.66,171.3294" style="stroke:#404040;stroke-width:1.2;"/><text fill="#000000" font-family="sans-serif" font-size="13" lengthAdjust="spacing" textLength="114.1626" x="107.18" y="115.1045">conditionsOfAccess</text></g><!--link Dataset to Reference--><g class="link" data-entity-1="ent0003" data-entity-2="ent0002" data-link-type="dependency" data-source-line="25" id="lnk6"><path codeLine="25" d="M132.88,63.5894 C157.83,69.1594 197.39,80.4694 226.18,100.6094 C244.98,113.7594 258.5137,126.1985 273.9237,143.7685" fill="none" id="Dataset-to-Reference-2" style="stroke:#404040;stroke-width:1.2;stroke-dasharray:7,7;"/><polygon fill="#404040" points="277.88,148.2794,274.9528,138.8756,274.5831,144.5203,268.9383,144.1506,277.88,148.2794" style="stroke:#404040;stroke-width:1.2;"/><text fill="#000000" font-family="sans-serif" font-size="13" lengthAdjust="spacing" textLength="114.8989" x="247.18" y="115.1045">publishingPrinciples</text></g><!--link DataDownload to Reference--><g class="link" data-entity-1="ent0007" data-entity-2="ent0002" data-link-type="dependency" data-source-line="27" id="lnk8"><path codeLine="27" d="M447.53,70.7794 C438.36,78.5694 426.7,89.4194 418.18,100.6094 C406.97,115.3194 399.4755,126.7021 390.1555,143.2421" fill="none" id="DataDownload-to-Reference" style="stroke:#404040;stroke-width:1.2;stroke-dasharray:7,7;"/><polygon fill="#404040" points="387.21,148.4694,395.113,142.5921,389.6646,144.1133,388.1434,138.6648,387.21,148.4694" style="stroke:#404040;stroke-width:1.2;"/><text fill="#000000" font-family="sans-serif" font-size="13" lengthAdjust="spacing" textLength="40.4663" x="419.18" y="115.1045">license</text></g><!--link DataDownload to Reference--><g class="link" data-entity-1="ent0007" data-entity-2="ent0002" data-link-type="dependency" data-source-line="28" id="lnk9"><path codeLine="28" d="M465.35,71.0194 C468.02,83.3994 470.51,103.1094 464.18,118.6094 C459.92,129.0294 457.695,134.0886 451.225,143.5986" fill="none" id="DataDownload-to-Reference-1" style="stroke:#404040;stroke-width:1.2;stroke-dasharray:7,7;"/><polygon fill="#404040" points="447.85,148.5594,456.2197,143.3682,450.6625,144.4254,449.6053,138.8682,447.85,148.5594" style="stroke:#404040;stroke-width:1.2;"/><text fill="#000000" font-family="sans-serif" font-size="13" lengthAdjust="spacing" textLength="114.1626" x="468.18" y="115.1045">conditionsOfAccess</text></g><!--link WebAPI to Reference--><g class="link" data-entity-1="ent0010" data-entity-2="ent0002" data-link-type="dependency" data-source-line="30" id="lnk11"><path codeLine="30" d="M647.89,70.6294 C634.98,83.3994 612.81,104.1094 591.18,118.6094 C572.2,131.3294 556.9664,140.6681 536.2064,152.1881" fill="none" id="WebAPI-to-Reference" style="stroke:#404040;stroke-width:1.2;stroke-dasharray:7,7;"/><polygon fill="#404040" points="530.96,155.0994,540.7704,154.23,535.332,152.6733,536.8887,147.2349,530.96,155.0994" style="stroke:#404040;stroke-width:1.2;"/><text fill="#000000" font-family="sans-serif" font-size="13" lengthAdjust="spacing" textLength="85.2808" x="615.18" y="115.1045">documentation</text></g><?plantuml-src VL9DQm8n4BtlhmXwQs6fjhsK8cpz0A6qelO3IWyn6NKmcon9h6oB_xspSTLTgTszpBptPkPb4ezU0Hl372ne0T4I9J21LgWoXZJpEKiXdO5raLkXphZbANDBBiq6zOBDkN9GOH9hpMQwHB7Iu1nhnUqAAHGdx2TYErdNA6DPy-Qg-0byC5Q2FKK7Hli9VWDhjQDj5ErwD0wc6uoxun7O_Rtada_p33eTrXma_TlUTPXuAIKUPNTig3rOpJqQpTKO5kYy3LcFweSIjCSvWcKVhSzG3P0zebvHvGGK26ygb1CMiwAMM6fJxANab16y96e39pMLfgbrTqy1gTc8uuiWTf1oGWMfkhGQQvG2-KfpPcl5RTudADytNbiasRkJYSvVA2xXBwvG5Zkg-Wtzj_lz5bjmuCDsovWr--6BzdaSTrZLj481cbx3ELuOBR4ultkU9qBG-pWhpTOpXMv9paPaJs2cm5MjzSn6AyFbmTyUg9ayWFyvFIlwmsxfu0rcoMWOPk_2mzGoFMqbZLYdT9VXzgDV?></g></svg>