<svg xmlns="http://www.w3.org/2000/svg" xmlns:xlink="http://www.w3.org/1999/xlink" contentStyleType="text/css" data-diagram-type="CLASS" height="202px" preserveAspectRatio="none" style="width:1999px;height:202px;background:#FFFFFF;" version="1.1" viewBox="0 0 1999 202" width="1999px" zoomAndPan="magnify"><?plantuml 1.2026.3?><defs/><g><g class="title" data-source-line="1"><text fill="#000000" font-family="sans-serif" font-size="14" font-weight="700" lengthAdjust="spacing" textLength="71.5723" x="960.6143" y="24.5332">XsdAnyUri</text></g><!--class XsdAnyUri--><g class="entity" data-qualified-name="XsdAnyUri" data-source-line="12" id="ent0002"><rect fill="#FAE5D3" height="40.1875" rx="2.5" ry="2.5" style="stroke:#404040;stroke-width:0.5;" width="65.3809" x="981.67" y="148.6094"/><text fill="#000000" font-family="sans-serif" font-size="12" font-style="italic" lengthAdjust="spacing" textLength="63.3809" x="982.67" y="166.0664">&#171;dataType&#187;</text><text fill="#000000" font-family="sans-serif" font-size="12" lengthAdjust="spacing" textLength="56.6836" x="986.0186" y="181.1602">XsdAnyUri</text></g><!--class Dataset--><g class="entity" data-qualified-name="Dataset" data-source-line="13" id="ent0003"><rect fill="#EEEEEE" height="25.0938" rx="2.5" ry="2.5" style="stroke:#404040;stroke-width:0.5;" width="47.3555" x="211.67" y="45.6094"/><text fill="#000000" font-family="sans-serif" font-size="12" lengthAdjust="spacing" textLength="41.3555" x="214.67" y="63.0664">Dataset</text></g><!--class AbstractDistribution--><g class="entity" data-qualified-name="AbstractDistribution" data-source-line="19" id="ent0009"><rect fill="#EEEEEE" height="25.0938" rx="2.5" ry="2.5" style="stroke:#404040;stroke-width:0.5;" width="110.0391" x="474.17" y="45.6094"/><text fill="#000000" font-family="sans-serif" font-size="12" font-style="italic" lengthAdjust="spacing" textLength="104.0391" x="477.17" y="63.0664">AbstractDistribution</text></g><!--class DataDownload--><g class="entity" data-qualified-name="DataDownload" data-source-line="21" id="ent0011"><rect fill="#EEEEEE" height="25.0938" rx="2.5" ry="2.5" style="stroke:#404040;stroke-width:0.5;" width="84.7148" x="678.67" y="45.6094"/><text fill="#000000" font-family="sans-serif" font-size="12" lengthAdjust="spacing" textLength="78.7148" x="681.67" y="63.0664">DataDownload</text></g><!--class WebAPI--><g class="entity" data-qualified-name="WebAPI" data-source-line="25" id="ent0015"><rect fill="#EEEEEE" height="25.0938" rx="2.5" ry="2.5" style="stroke:#404040;stroke-width:0.5;" width="50.0156" x="886.17" y="45.6094"/><text fill="#000000" font-family="sans-serif" font-size="12" lengthAdjust="spacing" textLength="44.0156" x="889.17" y="63.0664">WebAPI</text></g><!--class Agent--><g class="entity" data-qualified-name="Agent" data-source-line="28" id="ent0018"><rect fill="#EEEEEE" height="25.0938" rx="2.5" ry="2.5" style="stroke:#404040;stroke-width:0.5;" width="37.3594" x="1023.67" y="45.6094"/><text fill="#000000" font-family="sans-serif" font-size="12" font-style="italic" lengthAdjust="spacing" textLength="31.3594" x="1026.67" y="63.0664">Agent</text></g><!--class Organization--><g class="entity" data-qualified-name="Organization" data-source-line="30" id="ent0020"><rect fill="#EEEEEE" height="25.0938" rx="2.5" ry="2.5" style="stroke:#404040;stroke-width:0.5;" width="74.0391" x="1096.17" y="45.6094"/><text fill="#000000" font-family="sans-serif" font-size="12" lengthAdjust="spacing" textLength="68.0391" x="1099.17" y="63.0664">Organization</text></g><!--class DefinedTerm--><g class="entity" data-qualified-name="DefinedTerm" data-source-line="32" id="ent0022"><rect fill="#EEEEEE" height="25.0938" rx="2.5" ry="2.5" style="stroke:#404040;stroke-width:0.5;" width="75.3574" x="1215.67" y="45.6094"/><text fill="#000000" font-family="sans-serif" font-size="12" lengthAdjust="spacing" textLength="69.3574" x="1218.67" y="63.0664">DefinedTerm</text></g><!--class Identifier--><g class="entity" data-qualified-name="Identifier" data-source-line="35" id="ent0025"><rect fill="#EEEEEE" height="25.0938" rx="2.5" ry="2.5" style="stroke:#404040;stroke-width:0.5;" width="52.0254" x="1336.17" y="45.6094"/><text fill="#000000" font-family="sans-serif" font-size="12" lengthAdjust="spacing" textLength="46.0254" x="1339.17" y="63.0664">Identifier</text></g><!--class LabeledLink--><g class="entity" data-qualified-name="LabeledLink" data-source-line="37" id="ent0027"><rect fill="#EEEEEE" height="25.0938" rx="2.5" ry="2.5" style="stroke:#404040;stroke-width:0.5;" width="70.7227" x="1423.67" y="45.6094"/><text fill="#000000" font-family="sans-serif" font-size="12" lengthAdjust="spacing" textLength="64.7227" x="1426.67" y="63.0664">LabeledLink</text></g><!--class MonetaryGrant--><g class="entity" data-qualified-name="MonetaryGrant" data-source-line="39" id="ent0029"><rect fill="#EEEEEE" height="25.0938" rx="2.5" ry="2.5" style="stroke:#404040;stroke-width:0.5;" width="86.0332" x="1530.17" y="45.6094"/><text fill="#000000" font-family="sans-serif" font-size="12" lengthAdjust="spacing" textLength="80.0332" x="1533.17" y="63.0664">MonetaryGrant</text></g><!--class ProvActivity--><g class="entity" data-qualified-name="ProvActivity" data-source-line="41" id="ent0031"><rect fill="#EEEEEE" height="25.0938" rx="2.5" ry="2.5" style="stroke:#404040;stroke-width:0.5;" width="68.6777" x="1651.67" y="45.6094"/><text fill="#000000" font-family="sans-serif" font-size="12" lengthAdjust="spacing" textLength="62.6777" x="1654.67" y="63.0664">ProvActivity</text></g><!--class DerivedFrom--><g class="entity" data-qualified-name="DerivedFrom" data-source-line="43" id="ent0033"><rect fill="#EEEEEE" height="25.0938" rx="2.5" ry="2.5" style="stroke:#404040;stroke-width:0.5;" width="75.3457" x="1755.67" y="45.6094"/><text fill="#000000" font-family="sans-serif" font-size="12" lengthAdjust="spacing" textLength="69.3457" x="1758.67" y="63.0664">DerivedFrom</text></g><!--class CatalogRecord--><g class="entity" data-qualified-name="CatalogRecord" data-source-line="45" id="ent0035"><rect fill="#EEEEEE" height="25.0938" rx="2.5" ry="2.5" style="stroke:#404040;stroke-width:0.5;" width="86.0449" x="1891.17" y="45.6094"/><text fill="#000000" font-family="sans-serif" font-size="12" lengthAdjust="spacing" textLength="80.0449" x="1894.17" y="63.0664">CatalogRecord</text></g><!--link Dataset to XsdAnyUri--><g class="link" data-entity-1="ent0003" data-entity-2="ent0002" data-link-type="dependency" data-source-line="14" id="lnk4"><path codeLine="14" d="M211.66,59.3494 C152.59,60.6894 6,68.9694 53.17,118.6094 C85.84,152.9894 810.9806,164.8573 975.5006,167.1073" fill="none" id="Dataset-to-XsdAnyUri" style="stroke:#404040;stroke-width:1.2;stroke-dasharray:7,7;"/><polygon fill="#404040" points="981.5,167.1894,972.5555,163.0667,976.5005,167.121,972.4461,171.0659,981.5,167.1894" style="stroke:#404040;stroke-width:1.2;"/><text fill="#000000" font-family="sans-serif" font-size="13" lengthAdjust="spacing" textLength="49.1372" x="54.17" y="115.1045">identifier</text></g><!--link Dataset to XsdAnyUri--><g class="link" data-entity-1="ent0003" data-entity-2="ent0002" data-link-type="dependency" data-source-line="15" id="lnk5"><path codeLine="15" d="M211.4,64.7394 C177.14,73.8894 120.44,93.5094 144.17,118.6094 C173.48,149.6194 820.9211,163.9138 975.5711,166.8938" fill="none" id="Dataset-to-XsdAnyUri-1" style="stroke:#404040;stroke-width:1.2;stroke-dasharray:7,7;"/><polygon fill="#404040" points="981.57,167.0094,972.6487,162.8367,976.5709,166.913,972.4946,170.8352,981.57,167.0094" style="stroke:#404040;stroke-width:1.2;"/><text fill="#000000" font-family="sans-serif" font-size="13" lengthAdjust="spacing" textLength="46.96" x="145.17" y="115.1045">sameAs</text></g><!--link Dataset to XsdAnyUri--><g class="link" data-entity-1="ent0003" data-entity-2="ent0002" data-link-type="dependency" data-source-line="16" id="lnk6"><path codeLine="16" d="M230.14,70.8794 C225.29,84.2794 220.28,105.9394 232.17,118.6094 C258.22,146.3394 830.122,162.874 975.312,166.634" fill="none" id="Dataset-to-XsdAnyUri-2" style="stroke:#404040;stroke-width:1.2;stroke-dasharray:7,7;"/><polygon fill="#404040" points="981.31,166.7894,972.4166,162.5577,976.3117,166.6599,972.2095,170.555,981.31,166.7894" style="stroke:#404040;stroke-width:1.2;"/><text fill="#000000" font-family="sans-serif" font-size="13" lengthAdjust="spacing" textLength="14.4473" x="233.17" y="115.1045">url</text></g><!--link Dataset to XsdAnyUri--><g class="link" data-entity-1="ent0003" data-entity-2="ent0002" data-link-type="dependency" data-source-line="17" id="lnk7"><path codeLine="17" d="M241.64,70.7494 C250.22,84.8894 266.8,108.1494 288.17,118.6094 C351,149.3694 842.6118,163.4314 975.5918,166.7114" fill="none" id="Dataset-to-XsdAnyUri-3" style="stroke:#404040;stroke-width:1.2;stroke-dasharray:7,7;"/><polygon fill="#404040" points="981.59,166.8594,972.6914,162.6387,976.5915,166.7361,972.4941,170.6362,981.59,166.8594" style="stroke:#404040;stroke-width:1.2;"/><text fill="#000000" font-family="sans-serif" font-size="13" lengthAdjust="spacing" textLength="40.4663" x="289.17" y="115.1045">license</text></g><!--link Dataset to XsdAnyUri--><g class="link" data-entity-1="ent0003" data-entity-2="ent0002" data-link-type="dependency" data-source-line="18" id="lnk8"><path codeLine="18" d="M258.7,68.8294 C292.77,82.4494 358.14,106.8694 416.17,118.6094 C628.54,161.5894 884.5801,167.033 975.3801,167.583" fill="none" id="Dataset-to-XsdAnyUri-4" style="stroke:#404040;stroke-width:1.2;stroke-dasharray:7,7;"/><polygon fill="#404040" points="981.38,167.6194,972.4044,163.5649,976.3801,167.5891,972.3559,171.5648,981.38,167.6194" style="stroke:#404040;stroke-width:1.2;"/><text fill="#000000" font-family="sans-serif" font-size="13" lengthAdjust="spacing" textLength="114.8989" x="417.17" y="115.1045">publishingPrinciples</text></g><!--link AbstractDistribution to XsdAnyUri--><g class="link" data-entity-1="ent0009" data-entity-2="ent0002" data-link-type="dependency" data-source-line="20" id="lnk10"><path codeLine="20" d="M530.36,70.8794 C532.43,84.7094 538.06,107.1994 553.17,118.6094 C587.26,144.3394 875.7274,160.7905 975.3774,165.7605" fill="none" id="AbstractDistribution-to-XsdAnyUri" style="stroke:#404040;stroke-width:1.2;stroke-dasharray:7,7;"/><polygon fill="#404040" points="981.37,166.0594,972.5804,161.616,976.3762,165.8103,972.1819,169.6061,981.37,166.0594" style="stroke:#404040;stroke-width:1.2;"/><text fill="#000000" font-family="sans-serif" font-size="13" lengthAdjust="spacing" textLength="49.1372" x="554.17" y="115.1045">identifier</text></g><!--link DataDownload to XsdAnyUri--><g class="link" data-entity-1="ent0011" data-entity-2="ent0002" data-link-type="dependency" data-source-line="22" id="lnk12"><path codeLine="22" d="M678.61,67.4994 C640.98,76.7694 595.2,93.7494 617.17,118.6094 C641.21,145.7894 884.6182,160.9351 975.3782,165.6951" fill="none" id="DataDownload-to-XsdAnyUri" style="stroke:#404040;stroke-width:1.2;stroke-dasharray:7,7;"/><polygon fill="#404040" points="981.37,166.0094,972.5918,161.5435,976.3769,165.7475,972.1729,169.5325,981.37,166.0094" style="stroke:#404040;stroke-width:1.2;"/><text fill="#000000" font-family="sans-serif" font-size="13" lengthAdjust="spacing" textLength="59.249" x="618.17" y="115.1045">contentUrl</text></g><!--link DataDownload to XsdAnyUri--><g class="link" data-entity-1="ent0011" data-entity-2="ent0002" data-link-type="dependency" data-source-line="23" id="lnk13"><path codeLine="23" d="M716.37,70.6694 C711.74,83.8694 706.93,105.3594 718.17,118.6094 C751.69,158.1394 905.9613,165.6937 975.6713,167.1537" fill="none" id="DataDownload-to-XsdAnyUri-1" style="stroke:#404040;stroke-width:1.2;stroke-dasharray:7,7;"/><polygon fill="#404040" points="981.67,167.2794,972.7557,163.0918,976.6711,167.1747,972.5882,171.09,981.67,167.2794" style="stroke:#404040;stroke-width:1.2;"/><text fill="#000000" font-family="sans-serif" font-size="13" lengthAdjust="spacing" textLength="14.4473" x="719.17" y="115.1045">url</text></g><!--link DataDownload to XsdAnyUri--><g class="link" data-entity-1="ent0011" data-entity-2="ent0002" data-link-type="dependency" data-source-line="24" id="lnk14"><path codeLine="24" d="M733.78,70.7794 C749.05,84.2894 776.13,106.2694 803.17,118.6094 C862.71,145.7694 932.8388,157.8758 975.4688,163.3458" fill="none" id="DataDownload-to-XsdAnyUri-2" style="stroke:#404040;stroke-width:1.2;stroke-dasharray:7,7;"/><polygon fill="#404040" points="981.42,164.1094,973.0023,158.9965,976.4607,163.473,971.9841,166.9314,981.42,164.1094" style="stroke:#404040;stroke-width:1.2;"/><text fill="#000000" font-family="sans-serif" font-size="13" lengthAdjust="spacing" textLength="40.4663" x="804.17" y="115.1045">license</text></g><!--link WebAPI to XsdAnyUri--><g class="link" data-entity-1="ent0015" data-entity-2="ent0002" data-link-type="dependency" data-source-line="26" id="lnk16"><path codeLine="26" d="M887.37,70.7294 C867.03,82.2494 842.99,100.7194 856.17,118.6094 C884.88,157.5694 938.2551,166.223 975.4851,167.753" fill="none" id="WebAPI-to-XsdAnyUri" style="stroke:#404040;stroke-width:1.2;stroke-dasharray:7,7;"/><polygon fill="#404040" points="981.48,167.9994,972.6518,163.6332,976.4842,167.7941,972.3233,171.6265,981.48,167.9994" style="stroke:#404040;stroke-width:1.2;"/><text fill="#000000" font-family="sans-serif" font-size="13" lengthAdjust="spacing" textLength="85.2808" x="857.17" y="115.1045">documentation</text></g><!--link WebAPI to XsdAnyUri--><g class="link" data-entity-1="ent0015" data-entity-2="ent0002" data-link-type="dependency" data-source-line="27" id="lnk17"><path codeLine="27" d="M922.19,70.7194 C939.84,89.3094 970.479,121.588 991.849,144.098" fill="none" id="WebAPI-to-XsdAnyUri-1" style="stroke:#404040;stroke-width:1.2;stroke-dasharray:7,7;"/><polygon fill="#404040" points="995.98,148.4494,992.6844,139.1683,992.5375,144.8232,986.8825,144.6763,995.98,148.4494" style="stroke:#404040;stroke-width:1.2;"/><text fill="#000000" font-family="sans-serif" font-size="13" lengthAdjust="spacing" textLength="14.4473" x="967.17" y="115.1045">url</text></g><!--link Agent to XsdAnyUri--><g class="link" data-entity-1="ent0018" data-entity-2="ent0002" data-link-type="dependency" data-source-line="29" id="lnk19"><path codeLine="29" d="M1039.18,70.7194 C1034.38,89.3094 1026.4295,120.1298 1020.6195,142.6398" fill="none" id="Agent-to-XsdAnyUri" style="stroke:#404040;stroke-width:1.2;stroke-dasharray:7,7;"/><polygon fill="#404040" points="1019.12,148.4494,1025.2423,140.7346,1020.3696,143.608,1017.4962,138.7353,1019.12,148.4494" style="stroke:#404040;stroke-width:1.2;"/><text fill="#000000" font-family="sans-serif" font-size="13" lengthAdjust="spacing" textLength="49.1372" x="1032.17" y="115.1045">identifier</text></g><!--link Organization to XsdAnyUri--><g class="link" data-entity-1="ent0020" data-entity-2="ent0002" data-link-type="dependency" data-source-line="31" id="lnk21"><path codeLine="31" d="M1126.38,71.0694 C1118.72,83.8494 1105.34,104.2294 1090.17,118.6094 C1077.3,130.8194 1066.1355,138.72 1051.9255,147.18" fill="none" id="Organization-to-XsdAnyUri" style="stroke:#404040;stroke-width:1.2;stroke-dasharray:7,7;"/><polygon fill="#404040" points="1046.77,150.2494,1056.5495,149.0823,1051.0662,147.6916,1052.457,142.2084,1046.77,150.2494" style="stroke:#404040;stroke-width:1.2;"/><text fill="#000000" font-family="sans-serif" font-size="13" lengthAdjust="spacing" textLength="14.4473" x="1108.17" y="115.1045">url</text></g><!--link DefinedTerm to XsdAnyUri--><g class="link" data-entity-1="ent0022" data-entity-2="ent0002" data-link-type="dependency" data-source-line="33" id="lnk23"><path codeLine="33" d="M1230.42,70.6894 C1206.06,82.9794 1166.16,102.7694 1131.17,118.6094 C1102.99,131.3694 1076.0579,142.629 1052.4779,152.219" fill="none" id="DefinedTerm-to-XsdAnyUri" style="stroke:#404040;stroke-width:1.2;stroke-dasharray:7,7;"/><polygon fill="#404040" points="1046.92,154.4794,1056.7638,154.794,1051.5516,152.5957,1053.7499,147.3835,1046.92,154.4794" style="stroke:#404040;stroke-width:1.2;"/><text fill="#000000" font-family="sans-serif" font-size="13" lengthAdjust="spacing" textLength="49.1372" x="1170.17" y="115.1045">identifier</text></g><!--link DefinedTerm to XsdAnyUri--><g class="link" data-entity-1="ent0022" data-entity-2="ent0002" data-link-type="dependency" data-source-line="34" id="lnk24"><path codeLine="34" d="M1251.45,71.0694 C1248.84,84.6594 1242.58,106.4994 1228.17,118.6094 C1200.97,141.4794 1105.7716,156.269 1052.8616,163.029" fill="none" id="DefinedTerm-to-XsdAnyUri-1" style="stroke:#404040;stroke-width:1.2;stroke-dasharray:7,7;"/><polygon fill="#404040" points="1046.91,163.7894,1056.3444,166.6165,1051.8697,163.1557,1055.3305,158.681,1046.91,163.7894" style="stroke:#404040;stroke-width:1.2;"/><text fill="#000000" font-family="sans-serif" font-size="13" lengthAdjust="spacing" textLength="104.7681" x="1243.17" y="115.1045">inDefinedTermSet</text></g><!--link Identifier to XsdAnyUri--><g class="link" data-entity-1="ent0025" data-entity-2="ent0002" data-link-type="dependency" data-source-line="36" id="lnk26"><path codeLine="36" d="M1364.81,70.9094 C1367.06,84.3294 1368.25,106.0194 1356.17,118.6094 C1314.08,162.4994 1130.14,167.5815 1052.95,167.8115" fill="none" id="Identifier-to-XsdAnyUri" style="stroke:#404040;stroke-width:1.2;stroke-dasharray:7,7;"/><polygon fill="#404040" points="1046.95,167.8294,1055.9619,171.8025,1051.95,167.8145,1055.938,163.8026,1046.95,167.8294" style="stroke:#404040;stroke-width:1.2;"/><text fill="#000000" font-family="sans-serif" font-size="13" lengthAdjust="spacing" textLength="14.4473" x="1366.17" y="115.1045">url</text></g><!--link LabeledLink to XsdAnyUri--><g class="link" data-entity-1="ent0027" data-entity-2="ent0002" data-link-type="dependency" data-source-line="38" id="lnk28"><path codeLine="38" d="M1449.17,71.0194 C1436.7,84.9894 1413.96,107.6194 1389.17,118.6094 C1327.95,145.7494 1132.1582,160.374 1052.7182,165.354" fill="none" id="LabeledLink-to-XsdAnyUri" style="stroke:#404040;stroke-width:1.2;stroke-dasharray:7,7;"/><polygon fill="#404040" points="1046.73,165.7294,1055.9626,169.1584,1051.7202,165.4165,1055.4621,161.1741,1046.73,165.7294" style="stroke:#404040;stroke-width:1.2;"/><text fill="#000000" font-family="sans-serif" font-size="13" lengthAdjust="spacing" textLength="49.1372" x="1418.17" y="115.1045">identifier</text></g><!--link MonetaryGrant to XsdAnyUri--><g class="link" data-entity-1="ent0029" data-entity-2="ent0002" data-link-type="dependency" data-source-line="40" id="lnk30"><path codeLine="40" d="M1558.77,70.8294 C1540.69,84.8394 1508.15,107.7294 1476.17,118.6094 C1396.28,145.7894 1144.312,160.9691 1052.762,165.7091" fill="none" id="MonetaryGrant-to-XsdAnyUri" style="stroke:#404040;stroke-width:1.2;stroke-dasharray:7,7;"/><polygon fill="#404040" points="1046.77,166.0194,1055.9648,169.5487,1051.7633,165.7608,1055.5511,161.5594,1046.77,166.0194" style="stroke:#404040;stroke-width:1.2;"/><text fill="#000000" font-family="sans-serif" font-size="13" lengthAdjust="spacing" textLength="49.1372" x="1514.17" y="115.1045">identifier</text></g><!--link ProvActivity to XsdAnyUri--><g class="link" data-entity-1="ent0031" data-entity-2="ent0002" data-link-type="dependency" data-source-line="42" id="lnk32"><path codeLine="42" d="M1669.31,70.6494 C1647.82,84.6794 1609.03,107.8394 1572.17,118.6094 C1472.53,147.7294 1156.9755,162.1259 1052.9555,166.1759" fill="none" id="ProvActivity-to-XsdAnyUri" style="stroke:#404040;stroke-width:1.2;stroke-dasharray:7,7;"/><polygon fill="#404040" points="1046.96,166.4094,1056.1088,170.0562,1051.9562,166.2148,1055.7976,162.0623,1046.96,166.4094" style="stroke:#404040;stroke-width:1.2;"/><text fill="#000000" font-family="sans-serif" font-size="13" lengthAdjust="spacing" textLength="49.1372" x="1616.17" y="115.1045">identifier</text></g><!--link DerivedFrom to XsdAnyUri--><g class="link" data-entity-1="ent0033" data-entity-2="ent0002" data-link-type="dependency" data-source-line="44" id="lnk34"><path codeLine="44" d="M1775.51,70.7194 C1753.03,84.8194 1712.47,108.0594 1674.17,118.6094 C1553.85,151.7694 1168.4281,163.788 1052.6881,166.708" fill="none" id="DerivedFrom-to-XsdAnyUri" style="stroke:#404040;stroke-width:1.2;stroke-dasharray:7,7;"/><polygon fill="#404040" points="1046.69,166.8594,1055.788,170.6311,1051.6884,166.7333,1055.5863,162.6337,1046.69,166.8594" style="stroke:#404040;stroke-width:1.2;"/><text fill="#000000" font-family="sans-serif" font-size="13" lengthAdjust="spacing" textLength="49.1372" x="1720.17" y="115.1045">identifier</text></g><!--link CatalogRecord to XsdAnyUri--><g class="link" data-entity-1="ent0035" data-entity-2="ent0002" data-link-type="dependency" data-source-line="46" id="lnk36"><path codeLine="46" d="M1910.54,70.6994 C1880.56,84.7994 1826.89,108.0094 1778.17,118.6094 C1635.31,149.6894 1179.758,163.3845 1052.768,166.6645" fill="none" id="CatalogRecord-to-XsdAnyUri" style="stroke:#404040;stroke-width:1.2;stroke-dasharray:7,7;"/><polygon fill="#404040" points="1046.77,166.8194,1055.8703,170.5857,1051.7683,166.6903,1055.6637,162.5883,1046.77,166.8194" style="stroke:#404040;stroke-width:1.2;"/><text fill="#000000" font-family="sans-serif" font-size="13" lengthAdjust="spacing" textLength="49.1372" x="1837.17" y="115.1045">identifier</text></g><!--link CatalogRecord to XsdAnyUri--><g class="link" data-entity-1="ent0035" data-entity-2="ent0002" data-link-type="dependency" data-source-line="47" id="lnk37"><path codeLine="47" d="M1930.28,70.6994 C1924.85,84.7894 1913.58,107.9994 1895.17,118.6094 C1820.57,161.6294 1203.2399,166.8539 1052.7699,167.4939" fill="none" id="CatalogRecord-to-XsdAnyUri-1" style="stroke:#404040;stroke-width:1.2;stroke-dasharray:7,7;"/><polygon fill="#404040" points="1046.77,167.5194,1055.7869,171.4811,1051.77,167.4981,1055.7529,163.4811,1046.77,167.5194" style="stroke:#404040;stroke-width:1.2;"/><text fill="#000000" font-family="sans-serif" font-size="13" lengthAdjust="spacing" textLength="68.6309" x="1915.17" y="115.1045">conformsTo</text></g><?plantuml-src ZLHDRzim3BtxLmZ9FLYxxZ8K0RocAGfqMB2cMA-op2H4PCcWv0JkiFy-nH-odCNEd8F9H_A9VBHYqKfWxoQDLVb66Eqm1IQGX8JQXYot9SiWIu1CPFQeSauyOsR7Ktr4jMKRBWq4aPX87zSx57i5nh2RsMqG598xx7V4whG7BJMnwTsdqy-1tpIbGEVeKYlxYX_0RcwZFr5KSqnyqnF6JJS2kxzFkUNhCeVvd4sNyUENnUUsPk4Y1cnLqTXi-bWzKUlFPlE0xIjpAYYB6mGQJ34yWzWCXWkIWp690fJJRoYU5ub4itD2hmYLm5o2YNXYB75X6padSUClqBqnAIngLSruAU07lXWScJxGSA6FIcgUUY5ReAUc1yz9XLkeetrhT1dCAwubjEerhVs295uzLqtLfc-dSS_hKosAp7N2JxCF9Psw-4VnhQkg9JvPdQQLTrt47xJb2Z-utrG8UBOUUAcjTYMmGGNf6YYhDzBvtK82REmJ7qjJGVGLR7lyio-lJkzSVtW0ZOpnmXEGaBwWsbT4WU-PGkowpD-r0ikfV2BUhAk7UDO-UfrtHVeG2ui7j6L56mAUjGV-nyK2mWEaIzBj5hqVRB73hZC-kBiZzVOd2FU_Md7s4C_QHqTunnFTjTveoinQHty1?></g></svg>