<svg xmlns="http://www.w3.org/2000/svg" xmlns:xlink="http://www.w3.org/1999/xlink" contentStyleType="text/css" data-diagram-type="CLASS" height="544px" preserveAspectRatio="none" style="width:1725px;height:544px;background:#FFFFFF;" version="1.1" viewBox="0 0 1725 544" width="1725px" zoomAndPan="magnify"><?plantuml 1.2026.3?><defs/><g><g class="title" data-source-line="1"><text fill="#000000" font-family="sans-serif" font-size="14" font-weight="700" lengthAdjust="spacing" textLength="124.4482" x="796.8286" y="24.5332">InternationalString</text></g><!--class InternationalString--><g class="entity" data-qualified-name="InternationalString" data-source-line="16" id="ent0002"><rect fill="#FAE5D3" height="138.75" rx="2.5" ry="2.5" style="stroke:#404040;stroke-width:0.5;" width="646.7549" x="529.5" y="390.6094"/><text fill="#000000" font-family="sans-serif" font-size="36" font-style="italic" lengthAdjust="spacing" textLength="190.1426" x="757.8062" y="432.9805">&#171;dataType&#187;</text><text fill="#000000" font-family="sans-serif" font-size="30" lengthAdjust="spacing" textLength="243.4863" x="731.1343" y="472.0332">InternationalString</text><line style="stroke:#404040;stroke-width:0.5;" x1="530.5" x2="1175.2549" y1="483.625" y2="483.625"/><g data-visibility-modifier="PUBLIC_FIELD"><ellipse cx="540.5" cy="507.9922" fill="none" rx="3" ry="3" style="stroke:#038048;stroke-width:1;"/></g><text fill="#000000" font-family="sans-serif" font-size="30" lengthAdjust="spacing" textLength="613.7549" x="556.5" y="518.7676">languageSpecificString : LanguageString [1..*]</text></g><!--class RepresentedVariable--><g class="entity" data-qualified-name="RepresentedVariable" data-source-line="19" id="ent0003"><rect fill="#EEEEEE" height="47.7344" rx="2.5" ry="2.5" style="stroke:#404040;stroke-width:0.5;" width="287.8506" x="7" y="45.6094"/><text fill="#000000" font-family="sans-serif" font-size="30" lengthAdjust="spacing" textLength="281.8506" x="10" y="81.752">RepresentedVariable</text></g><!--class DescriptorVariable--><g class="entity" data-qualified-name="DescriptorVariable" data-source-line="22" id="ent0006"><rect fill="#EEEEEE" height="47.7344" rx="2.5" ry="2.5" style="stroke:#404040;stroke-width:0.5;" width="252.7676" x="389.5" y="45.6094"/><text fill="#000000" font-family="sans-serif" font-size="30" lengthAdjust="spacing" textLength="246.7676" x="392.5" y="81.752">DescriptorVariable</text></g><!--class EnumerationDomain--><g class="entity" data-qualified-name="EnumerationDomain" data-source-line="25" id="ent0009"><rect fill="#EEEEEE" height="47.7344" rx="2.5" ry="2.5" style="stroke:#404040;stroke-width:0.5;" width="279.4717" x="732.5" y="45.6094"/><text fill="#000000" font-family="sans-serif" font-size="30" lengthAdjust="spacing" textLength="273.4717" x="735.5" y="81.752">EnumerationDomain</text></g><!--class ValueAndConceptDescription--><g class="entity" data-qualified-name="ValueAndConceptDescription" data-source-line="27" id="ent0011"><rect fill="#EEEEEE" height="47.7344" rx="2.5" ry="2.5" style="stroke:#404040;stroke-width:0.5;" width="397.9043" x="1032" y="45.6094"/><text fill="#000000" font-family="sans-serif" font-size="30" lengthAdjust="spacing" textLength="391.9043" x="1035" y="81.752">ValueAndConceptDescription</text></g><!--class UnitType--><g class="entity" data-qualified-name="UnitType" data-source-line="29" id="ent0013"><rect fill="#EEEEEE" height="47.7344" rx="2.5" ry="2.5" style="stroke:#404040;stroke-width:0.5;" width="126.0439" x="1485" y="45.6094"/><text fill="#000000" font-family="sans-serif" font-size="30" lengthAdjust="spacing" textLength="120.0439" x="1488" y="81.752">UnitType</text></g><!--link RepresentedVariable to InternationalString--><g class="link" data-entity-1="ent0003" data-entity-2="ent0002" data-link-type="dependency" data-source-line="20" id="lnk4"><path codeLine="20" d="M124.8,93.7794 C84.41,132.3094 15.87,210.7094 59,265.6094 C118.27,341.0594 330.612,389.8725 523.322,420.0025" fill="none" id="RepresentedVariable-to-InternationalString" style="stroke:#404040;stroke-width:1.2;stroke-dasharray:7,7;"/><polygon fill="#404040" points="529.25,420.9294,520.9759,415.5871,524.31,420.157,519.7401,423.4911,529.25,420.9294" style="stroke:#404040;stroke-width:1.2;"/><text fill="#000000" font-family="sans-serif" font-size="36" lengthAdjust="spacing" textLength="242.0859" x="60" y="256.9805">descriptiveText</text></g><!--link RepresentedVariable to InternationalString--><g class="link" data-entity-1="ent0003" data-entity-2="ent0002" data-link-type="dependency" data-source-line="21" id="lnk5"><path codeLine="21" d="M178.6,93.7594 C210.78,121.5294 264.6,170.3894 304,218.6094 C319.68,237.7994 314.73,250.0294 334,265.6094 C402.34,320.8494 482.358,359.2857 564.288,388.4757" fill="none" id="RepresentedVariable-to-InternationalString-1" style="stroke:#404040;stroke-width:1.2;stroke-dasharray:7,7;"/><polygon fill="#404040" points="569.94,390.4894,562.8045,383.7008,565.23,388.8113,560.1195,391.2368,569.94,390.4894" style="stroke:#404040;stroke-width:1.2;"/><text fill="#000000" font-family="sans-serif" font-size="36" lengthAdjust="spacing" textLength="144.1055" x="335" y="256.9805">definition</text></g><!--link DescriptorVariable to InternationalString--><g class="link" data-entity-1="ent0006" data-entity-2="ent0002" data-link-type="dependency" data-source-line="23" id="lnk7"><path codeLine="23" d="M505.77,93.8694 C490.47,132.5194 466.67,211.0994 499,265.6094 C531.69,320.7294 580.898,358.4181 637.508,387.6281" fill="none" id="DescriptorVariable-to-InternationalString" style="stroke:#404040;stroke-width:1.2;stroke-dasharray:7,7;"/><polygon fill="#404040" points="642.84,390.3794,636.6761,382.6978,638.3966,388.0867,633.0078,389.8072,642.84,390.3794" style="stroke:#404040;stroke-width:1.2;"/><text fill="#000000" font-family="sans-serif" font-size="36" lengthAdjust="spacing" textLength="242.0859" x="500" y="256.9805">descriptiveText</text></g><!--link DescriptorVariable to InternationalString--><g class="link" data-entity-1="ent0006" data-entity-2="ent0002" data-link-type="dependency" data-source-line="24" id="lnk8"><path codeLine="24" d="M569.09,93.7394 C619.95,118.2494 695.89,161.3394 744,218.6094 C758.6,235.9894 754.81,244.8494 764,265.6094 C782.41,307.1994 801.1425,348.0477 818.2725,384.9277" fill="none" id="DescriptorVariable-to-InternationalString-1" style="stroke:#404040;stroke-width:1.2;stroke-dasharray:7,7;"/><polygon fill="#404040" points="820.8,390.3694,820.6365,380.5219,818.6937,385.8347,813.3809,383.8919,820.8,390.3694" style="stroke:#404040;stroke-width:1.2;"/><text fill="#000000" font-family="sans-serif" font-size="36" lengthAdjust="spacing" textLength="144.1055" x="765" y="256.9805">definition</text></g><!--link EnumerationDomain to InternationalString--><g class="link" data-entity-1="ent0009" data-entity-2="ent0002" data-link-type="dependency" data-source-line="26" id="lnk10"><path codeLine="26" d="M880.94,93.7394 C891.53,122.4894 908.55,173.3094 915,218.6094 C923.38,277.5194 906.9305,337.2254 887.9405,384.8954" fill="none" id="EnumerationDomain-to-InternationalString" style="stroke:#404040;stroke-width:1.2;stroke-dasharray:7,7;"/><polygon fill="#404040" points="885.72,390.4694,892.7667,383.5887,887.5704,385.8244,885.3347,380.6281,885.72,390.4694" style="stroke:#404040;stroke-width:1.2;"/><text fill="#000000" font-family="sans-serif" font-size="36" lengthAdjust="spacing" textLength="130.0957" x="919" y="256.9805">purpose</text></g><!--link ValueAndConceptDescription to InternationalString--><g class="link" data-entity-1="ent0011" data-entity-2="ent0002" data-link-type="dependency" data-source-line="28" id="lnk12"><path codeLine="28" d="M1209.56,93.7894 C1182.8,122.8094 1135.7,174.0994 1096,218.6094 C1077.55,239.2994 1074.14,245.5594 1055,265.6094 C1014.26,308.2894 971.0688,349.9475 932.3288,386.2375" fill="none" id="ValueAndConceptDescription-to-InternationalString" style="stroke:#404040;stroke-width:1.2;stroke-dasharray:7,7;"/><polygon fill="#404040" points="927.95,390.3394,937.2529,387.1057,931.599,386.9211,931.7837,381.2673,927.95,390.3394" style="stroke:#404040;stroke-width:1.2;"/><text fill="#000000" font-family="sans-serif" font-size="36" lengthAdjust="spacing" textLength="174.0938" x="1097" y="256.9805">description</text></g><!--link UnitType to InternationalString--><g class="link" data-entity-1="ent0013" data-entity-2="ent0002" data-link-type="dependency" data-source-line="30" id="lnk14"><path codeLine="30" d="M1489.37,93.7094 C1434.03,117.9394 1351.61,160.5894 1297,218.6094 C1280.93,235.6894 1289.92,249.3594 1273,265.6094 C1216.69,319.6894 1148.0698,358.2574 1077.7798,388.2074" fill="none" id="UnitType-to-InternationalString" style="stroke:#404040;stroke-width:1.2;stroke-dasharray:7,7;"/><polygon fill="#404040" points="1072.26,390.5594,1082.1077,390.7113,1076.8598,388.5994,1078.9718,383.3516,1072.26,390.5594" style="stroke:#404040;stroke-width:1.2;"/><text fill="#000000" font-family="sans-serif" font-size="36" lengthAdjust="spacing" textLength="242.0859" x="1298" y="256.9805">descriptiveText</text></g><!--link UnitType to InternationalString--><g class="link" data-entity-1="ent0013" data-entity-2="ent0002" data-link-type="dependency" data-source-line="31" id="lnk15"><path codeLine="31" d="M1555.17,93.6394 C1566,133.3694 1581.34,215.3294 1542,265.6094 C1494.63,326.1594 1337.9318,372.1559 1182.6018,404.7859" fill="none" id="UnitType-to-InternationalString-1" style="stroke:#404040;stroke-width:1.2;stroke-dasharray:7,7;"/><polygon fill="#404040" points="1176.73,406.0194,1186.3601,408.0837,1181.6232,404.9915,1184.7154,400.2546,1176.73,406.0194" style="stroke:#404040;stroke-width:1.2;"/><text fill="#000000" font-family="sans-serif" font-size="36" lengthAdjust="spacing" textLength="144.1055" x="1565" y="256.9805">definition</text></g><?plantuml-src bLFBRi8m4BpdAooujLB4e_HG8IJAGwhKKw5SgXwMP0CMZcsjdL9QzTzhGX9I25L8BicCPsSyYIst0jcJj4WIB5SInCmIbojlpKDa0QT0uE4POsrtBCPuYMGyi-5I0q7Cp1f2jNKI5e4mM6A6H6exN_DW8z4OrlOx9P90RWngrkcrIgXK8QPe6GmnWaJOgP9snh-GTUzBP230pVxssC5kf8GYrhnhxMy7FYeAaKxHyYWdj6xBoyJY4MvvFvvt6DseQAV1m5Irnlhz42pCTne70zQS3YUzSJSDToj0hX9OuKnZm2CUP887zfmJ1-2jxVitxyu-Stz1JQuIvnKkW3Wi1QRk5JXhJjBBg-9yVr2P-C7LQmBYsl8FdEEdlLeTSSdtO9vudCrJz2VmELpahQ3gnxrIV9fs8fCOALqtLZ5mcOOzGukivynbDvsGLkv8P5OB40aEPJXICa1jy-1EatfUfWlpVvRKAEouwLVNmVudJNtpbyAb0Ef_X5gIelfV?></g></svg>