<svg xmlns="http://www.w3.org/2000/svg" xmlns:xlink="http://www.w3.org/1999/xlink" contentStyleType="text/css" data-diagram-type="CLASS" height="202px" preserveAspectRatio="none" style="width:2277px;height:202px;background:#FFFFFF;" version="1.1" viewBox="0 0 2277 202" width="2277px" zoomAndPan="magnify"><?plantuml 1.2026.3?><defs/><g><g class="title" data-source-line="1"><text fill="#000000" font-family="sans-serif" font-size="14" font-weight="700" lengthAdjust="spacing" textLength="71.5723" x="1099.4863" y="24.5332">XsdAnyUri</text></g><!--class XsdAnyUri--><g class="entity" data-qualified-name="XsdAnyUri" data-source-line="12" id="ent0002"><rect fill="#FAE5D3" height="40.1875" rx="2.5" ry="2.5" style="stroke:#404040;stroke-width:0.5;" width="65.3809" x="1208" y="148.6094"/><text fill="#000000" font-family="sans-serif" font-size="12" font-style="italic" lengthAdjust="spacing" textLength="63.3809" x="1209" y="166.0664">&#171;dataType&#187;</text><text fill="#000000" font-family="sans-serif" font-size="12" lengthAdjust="spacing" textLength="56.6836" x="1212.3486" y="181.1602">XsdAnyUri</text></g><!--class EnumerationDomain--><g class="entity" data-qualified-name="EnumerationDomain" data-source-line="13" id="ent0003"><rect fill="#EEEEEE" height="25.0938" rx="2.5" ry="2.5" style="stroke:#404040;stroke-width:0.5;" width="115.3887" x="7" y="45.6094"/><text fill="#000000" font-family="sans-serif" font-size="12" lengthAdjust="spacing" textLength="109.3887" x="10" y="63.0664">EnumerationDomain</text></g><!--class VariableMeasured--><g class="entity" data-qualified-name="VariableMeasured" data-source-line="15" id="ent0005"><rect fill="#EEEEEE" height="25.0938" rx="2.5" ry="2.5" style="stroke:#404040;stroke-width:0.5;" width="103.3887" x="157" y="45.6094"/><text fill="#000000" font-family="sans-serif" font-size="12" lengthAdjust="spacing" textLength="97.3887" x="160" y="63.0664">VariableMeasured</text></g><!--class DataDownload--><g class="entity" data-qualified-name="DataDownload" data-source-line="17" id="ent0007"><rect fill="#EEEEEE" height="25.0938" rx="2.5" ry="2.5" style="stroke:#404040;stroke-width:0.5;" width="84.7148" x="331" y="45.6094"/><text fill="#000000" font-family="sans-serif" font-size="12" lengthAdjust="spacing" textLength="78.7148" x="334" y="63.0664">DataDownload</text></g><!--class Concept--><g class="entity" data-qualified-name="Concept" data-source-line="20" id="ent0010"><rect fill="#EEEEEE" height="25.0938" rx="2.5" ry="2.5" style="stroke:#404040;stroke-width:0.5;" width="50.6953" x="494" y="45.6094"/><text fill="#000000" font-family="sans-serif" font-size="12" lengthAdjust="spacing" textLength="44.6953" x="497" y="63.0664">Concept</text></g><!--class Identifier--><g class="entity" data-qualified-name="Identifier" data-source-line="22" id="ent0012"><rect fill="#EEEEEE" height="25.0938" rx="2.5" ry="2.5" style="stroke:#404040;stroke-width:0.5;" width="52.0254" x="592.5" y="45.6094"/><text fill="#000000" font-family="sans-serif" font-size="12" lengthAdjust="spacing" textLength="46.0254" x="595.5" y="63.0664">Identifier</text></g><!--class DefinedTerm--><g class="entity" data-qualified-name="DefinedTerm" data-source-line="24" id="ent0014"><rect fill="#EEEEEE" height="25.0938" rx="2.5" ry="2.5" style="stroke:#404040;stroke-width:0.5;" width="75.3574" x="710" y="45.6094"/><text fill="#000000" font-family="sans-serif" font-size="12" lengthAdjust="spacing" textLength="69.3574" x="713" y="63.0664">DefinedTerm</text></g><!--class Dataset--><g class="entity" data-qualified-name="Dataset" data-source-line="27" id="ent0017"><rect fill="#EEEEEE" height="25.0938" rx="2.5" ry="2.5" style="stroke:#404040;stroke-width:0.5;" width="47.3555" x="842" y="45.6094"/><text fill="#000000" font-family="sans-serif" font-size="12" lengthAdjust="spacing" textLength="41.3555" x="845" y="63.0664">Dataset</text></g><!--class AbstractGeometry--><g class="entity" data-qualified-name="AbstractGeometry" data-source-line="29" id="ent0019"><rect fill="#EEEEEE" height="25.0938" rx="2.5" ry="2.5" style="stroke:#404040;stroke-width:0.5;" width="102.6973" x="924" y="45.6094"/><text fill="#000000" font-family="sans-serif" font-size="12" font-style="italic" lengthAdjust="spacing" textLength="96.6973" x="927" y="63.0664">AbstractGeometry</text></g><!--class TemporalExtent--><g class="entity" data-qualified-name="TemporalExtent" data-source-line="31" id="ent0021"><rect fill="#EEEEEE" height="25.0938" rx="2.5" ry="2.5" style="stroke:#404040;stroke-width:0.5;" width="90.7031" x="1070" y="45.6094"/><text fill="#000000" font-family="sans-serif" font-size="12" lengthAdjust="spacing" textLength="84.7031" x="1073" y="63.0664">TemporalExtent</text></g><!--class Instant--><g class="entity" data-qualified-name="Instant" data-source-line="34" id="ent0024"><rect fill="#EEEEEE" height="25.0938" rx="2.5" ry="2.5" style="stroke:#404040;stroke-width:0.5;" width="42.0234" x="1207.5" y="45.6094"/><text fill="#000000" font-family="sans-serif" font-size="12" lengthAdjust="spacing" textLength="36.0234" x="1210.5" y="63.0664">Instant</text></g><!--class TimePosition--><g class="entity" data-qualified-name="TimePosition" data-source-line="36" id="ent0026"><rect fill="#EEEEEE" height="25.0938" rx="2.5" ry="2.5" style="stroke:#404040;stroke-width:0.5;" width="75.3574" x="1285" y="45.6094"/><text fill="#000000" font-family="sans-serif" font-size="12" lengthAdjust="spacing" textLength="69.3574" x="1288" y="63.0664">TimePosition</text></g><!--class Geometry--><g class="entity" data-qualified-name="Geometry" data-source-line="38" id="ent0028"><rect fill="#EEEEEE" height="25.0938" rx="2.5" ry="2.5" style="stroke:#404040;stroke-width:0.5;" width="58.6816" x="1395" y="45.6094"/><text fill="#000000" font-family="sans-serif" font-size="12" lengthAdjust="spacing" textLength="52.6816" x="1398" y="63.0664">Geometry</text></g><!--class QualityMeasurement--><g class="entity" data-qualified-name="QualityMeasurement" data-source-line="40" id="ent0030"><rect fill="#EEEEEE" height="25.0938" rx="2.5" ry="2.5" style="stroke:#404040;stroke-width:0.5;" width="116.7129" x="1489" y="45.6094"/><text fill="#000000" font-family="sans-serif" font-size="12" lengthAdjust="spacing" textLength="110.7129" x="1492" y="63.0664">QualityMeasurement</text></g><!--class WebAPI--><g class="entity" data-qualified-name="WebAPI" data-source-line="42" id="ent0032"><rect fill="#EEEEEE" height="25.0938" rx="2.5" ry="2.5" style="stroke:#404040;stroke-width:0.5;" width="50.0156" x="1641.5" y="45.6094"/><text fill="#000000" font-family="sans-serif" font-size="12" lengthAdjust="spacing" textLength="44.0156" x="1644.5" y="63.0664">WebAPI</text></g><!--class AdditionalProperty--><g class="entity" data-qualified-name="AdditionalProperty" data-source-line="44" id="ent0034"><rect fill="#EEEEEE" height="25.0938" rx="2.5" ry="2.5" style="stroke:#404040;stroke-width:0.5;" width="104.0566" x="1726.5" y="45.6094"/><text fill="#000000" font-family="sans-serif" font-size="12" lengthAdjust="spacing" textLength="98.0566" x="1729.5" y="63.0664">AdditionalProperty</text></g><!--class Reference--><g class="entity" data-qualified-name="Reference" data-source-line="46" id="ent0036"><rect fill="#EEEEEE" height="25.0938" rx="2.5" ry="2.5" style="stroke:#404040;stroke-width:0.5;" width="61.3652" x="1866" y="45.6094"/><text fill="#000000" font-family="sans-serif" font-size="12" lengthAdjust="spacing" textLength="55.3652" x="1869" y="63.0664">Reference</text></g><!--class ProvActivity--><g class="entity" data-qualified-name="ProvActivity" data-source-line="49" id="ent0039"><rect fill="#EEEEEE" height="25.0938" rx="2.5" ry="2.5" style="stroke:#404040;stroke-width:0.5;" width="68.6777" x="1962" y="45.6094"/><text fill="#000000" font-family="sans-serif" font-size="12" lengthAdjust="spacing" textLength="62.6777" x="1965" y="63.0664">ProvActivity</text></g><!--class DerivedFrom--><g class="entity" data-qualified-name="DerivedFrom" data-source-line="51" id="ent0041"><rect fill="#EEEEEE" height="25.0938" rx="2.5" ry="2.5" style="stroke:#404040;stroke-width:0.5;" width="75.3457" x="2066" y="45.6094"/><text fill="#000000" font-family="sans-serif" font-size="12" lengthAdjust="spacing" textLength="69.3457" x="2069" y="63.0664">DerivedFrom</text></g><!--class CatalogRecord--><g class="entity" data-qualified-name="CatalogRecord" data-source-line="54" id="ent0044"><rect fill="#EEEEEE" height="25.0938" rx="2.5" ry="2.5" style="stroke:#404040;stroke-width:0.5;" width="86.0449" x="2176.5" y="45.6094"/><text fill="#000000" font-family="sans-serif" font-size="12" lengthAdjust="spacing" textLength="80.0449" x="2179.5" y="63.0664">CatalogRecord</text></g><!--link EnumerationDomain to XsdAnyUri--><g class="link" data-entity-1="ent0003" data-entity-2="ent0002" data-link-type="dependency" data-source-line="14" id="lnk4"><path codeLine="14" d="M75.88,70.6494 C90.8,84.9294 118.52,108.5694 147.5,118.6094 C249.81,154.0394 1030.8604,165.1585 1201.8104,167.1785" fill="none" id="EnumerationDomain-to-XsdAnyUri" style="stroke:#404040;stroke-width:1.2;stroke-dasharray:7,7;"/><polygon fill="#404040" points="1207.81,167.2494,1198.8579,163.1433,1202.8103,167.1903,1198.7634,171.1428,1207.81,167.2494" style="stroke:#404040;stroke-width:1.2;"/><text fill="#000000" font-family="sans-serif" font-size="13" lengthAdjust="spacing" textLength="61.4199" x="148.5" y="115.1045">references</text></g><!--link VariableMeasured to XsdAnyUri--><g class="link" data-entity-1="ent0005" data-entity-2="ent0002" data-link-type="dependency" data-source-line="16" id="lnk6"><path codeLine="16" d="M209.37,71.0094 C211.1,84.9694 216.23,107.5894 231.5,118.6094 C271.98,147.8294 1033.0311,163.7264 1201.8311,166.9064" fill="none" id="VariableMeasured-to-XsdAnyUri" style="stroke:#404040;stroke-width:1.2;stroke-dasharray:7,7;"/><polygon fill="#404040" points="1207.83,167.0194,1198.9069,162.8506,1202.8309,166.9252,1198.7563,170.8491,1207.83,167.0194" style="stroke:#404040;stroke-width:1.2;"/><text fill="#000000" font-family="sans-serif" font-size="13" lengthAdjust="spacing" textLength="58.5317" x="232.5" y="115.1045">propertyId</text></g><!--link DataDownload to XsdAnyUri--><g class="link" data-entity-1="ent0007" data-entity-2="ent0002" data-link-type="dependency" data-source-line="18" id="lnk8"><path codeLine="18" d="M343.73,70.6894 C318.34,82.1794 288.44,100.6294 305.5,118.6094 C337.21,152.0294 1040.2907,164.5981 1201.9107,167.0581" fill="none" id="DataDownload-to-XsdAnyUri" style="stroke:#404040;stroke-width:1.2;stroke-dasharray:7,7;"/><polygon fill="#404040" points="1207.91,167.1494,1198.9719,163.0129,1202.9106,167.0733,1198.8502,171.0119,1207.91,167.1494" style="stroke:#404040;stroke-width:1.2;"/><text fill="#000000" font-family="sans-serif" font-size="13" lengthAdjust="spacing" textLength="59.249" x="306.5" y="115.1045">contentUrl</text></g><!--link DataDownload to XsdAnyUri--><g class="link" data-entity-1="ent0007" data-entity-2="ent0002" data-link-type="dependency" data-source-line="19" id="lnk9"><path codeLine="19" d="M386.34,70.8194 C402.83,85.0294 432.95,108.3694 463.5,118.6094 C604.79,165.9894 1073.13,168.1143 1201.97,167.7943" fill="none" id="DataDownload-to-XsdAnyUri-1" style="stroke:#404040;stroke-width:1.2;stroke-dasharray:7,7;"/><polygon fill="#404040" points="1207.97,167.7794,1198.9601,163.8017,1202.97,167.7918,1198.98,171.8017,1207.97,167.7794" style="stroke:#404040;stroke-width:1.2;"/><text fill="#000000" font-family="sans-serif" font-size="13" lengthAdjust="spacing" textLength="68.6309" x="464.5" y="115.1045">conformsTo</text></g><!--link Concept to XsdAnyUri--><g class="link" data-entity-1="ent0010" data-entity-2="ent0002" data-link-type="dependency" data-source-line="21" id="lnk11"><path codeLine="21" d="M523.8,70.6594 C529.7,84.7194 541.77,107.8894 560.5,118.6094 C617.07,150.9794 1073.6416,163.7798 1201.7316,166.7598" fill="none" id="Concept-to-XsdAnyUri" style="stroke:#404040;stroke-width:1.2;stroke-dasharray:7,7;"/><polygon fill="#404040" points="1207.73,166.8994,1198.8255,162.6911,1202.7314,166.7831,1198.6394,170.689,1207.73,166.8994" style="stroke:#404040;stroke-width:1.2;"/><text fill="#000000" font-family="sans-serif" font-size="13" lengthAdjust="spacing" textLength="57.8081" x="561.5" y="115.1045">inScheme</text></g><!--link Identifier to XsdAnyUri--><g class="link" data-entity-1="ent0012" data-entity-2="ent0002" data-link-type="dependency" data-source-line="23" id="lnk13"><path codeLine="23" d="M619.44,70.9294 C621.22,84.7994 626.42,107.3394 641.5,118.6094 C687.05,152.6494 1083.3915,164.1131 1201.8315,166.8031" fill="none" id="Identifier-to-XsdAnyUri" style="stroke:#404040;stroke-width:1.2;stroke-dasharray:7,7;"/><polygon fill="#404040" points="1207.83,166.9394,1198.9231,162.7361,1202.8313,166.8258,1198.7415,170.734,1207.83,166.9394" style="stroke:#404040;stroke-width:1.2;"/><text fill="#000000" font-family="sans-serif" font-size="13" lengthAdjust="spacing" textLength="14.4473" x="642.5" y="115.1045">url</text></g><!--link DefinedTerm to XsdAnyUri--><g class="link" data-entity-1="ent0014" data-entity-2="ent0002" data-link-type="dependency" data-source-line="25" id="lnk15"><path codeLine="25" d="M713.14,70.6494 C685.5,81.6994 653.94,99.4694 671.5,118.6094 C707.91,158.2894 1086.3004,165.8367 1201.8404,167.2367" fill="none" id="DefinedTerm-to-XsdAnyUri" style="stroke:#404040;stroke-width:1.2;stroke-dasharray:7,7;"/><polygon fill="#404040" points="1207.84,167.3094,1198.8891,163.2006,1202.8404,167.2488,1198.7922,171.2,1207.84,167.3094" style="stroke:#404040;stroke-width:1.2;"/><text fill="#000000" font-family="sans-serif" font-size="13" lengthAdjust="spacing" textLength="49.1372" x="672.5" y="115.1045">identifier</text></g><!--link DefinedTerm to XsdAnyUri--><g class="link" data-entity-1="ent0014" data-entity-2="ent0002" data-link-type="dependency" data-source-line="26" id="lnk16"><path codeLine="26" d="M755.47,71.0894 C765.53,85.1294 784.24,107.8294 806.5,118.6094 C877.47,152.9794 1113.6231,163.6552 1201.9331,166.5152" fill="none" id="DefinedTerm-to-XsdAnyUri-1" style="stroke:#404040;stroke-width:1.2;stroke-dasharray:7,7;"/><polygon fill="#404040" points="1207.93,166.7094,1199.0642,162.4202,1202.9326,166.5475,1198.8052,170.416,1207.93,166.7094" style="stroke:#404040;stroke-width:1.2;"/><text fill="#000000" font-family="sans-serif" font-size="13" lengthAdjust="spacing" textLength="104.7681" x="807.5" y="115.1045">inDefinedTermSet</text></g><!--link Dataset to XsdAnyUri--><g class="link" data-entity-1="ent0017" data-entity-2="ent0002" data-link-type="dependency" data-source-line="28" id="lnk18"><path codeLine="28" d="M879.12,70.7694 C895.92,84.4894 925.9,106.8794 955.5,118.6094 C1042.32,152.9994 1147.4395,162.9527 1201.7095,166.0027" fill="none" id="Dataset-to-XsdAnyUri" style="stroke:#404040;stroke-width:1.2;stroke-dasharray:7,7;"/><polygon fill="#404040" points="1207.7,166.3394,1198.9386,161.8407,1202.7079,166.0588,1198.4897,169.8281,1207.7,166.3394" style="stroke:#404040;stroke-width:1.2;"/><text fill="#000000" font-family="sans-serif" font-size="13" lengthAdjust="spacing" textLength="14.4473" x="956.5" y="115.1045">url</text></g><!--link AbstractGeometry to XsdAnyUri--><g class="link" data-entity-1="ent0019" data-entity-2="ent0002" data-link-type="dependency" data-source-line="30" id="lnk20"><path codeLine="30" d="M975.22,71.0194 C975.58,84.5494 978.37,106.3394 991.5,118.6094 C1022.49,147.5494 1141.6884,160.1993 1201.8784,164.9293" fill="none" id="AbstractGeometry-to-XsdAnyUri" style="stroke:#404040;stroke-width:1.2;stroke-dasharray:7,7;"/><polygon fill="#404040" points="1207.86,165.3994,1199.201,160.7066,1202.8754,165.0077,1198.5743,168.682,1207.86,165.3994" style="stroke:#404040;stroke-width:1.2;"/><text fill="#000000" font-family="sans-serif" font-size="13" lengthAdjust="spacing" textLength="17.3291" x="992.5" y="115.1045">crs</text></g><!--link TemporalExtent to XsdAnyUri--><g class="link" data-entity-1="ent0021" data-entity-2="ent0002" data-link-type="dependency" data-source-line="32" id="lnk22"><path codeLine="32" d="M1069.85,70.5094 C1038.74,80.4994 1006.1,96.8394 1023.5,118.6094 C1046.23,147.0394 1147.1643,159.6296 1201.9643,164.5796" fill="none" id="TemporalExtent-to-XsdAnyUri" style="stroke:#404040;stroke-width:1.2;stroke-dasharray:7,7;"/><polygon fill="#404040" points="1207.94,165.1194,1199.3363,160.3259,1202.9603,164.6696,1198.6166,168.2935,1207.94,165.1194" style="stroke:#404040;stroke-width:1.2;"/><text fill="#000000" font-family="sans-serif" font-size="13" lengthAdjust="spacing" textLength="98.9917" x="1024.5" y="115.1045">intervalStartedBy</text></g><!--link TemporalExtent to XsdAnyUri--><g class="link" data-entity-1="ent0021" data-entity-2="ent0002" data-link-type="dependency" data-source-line="33" id="lnk23"><path codeLine="33" d="M1122.15,70.6694 C1129.92,83.4894 1143.74,104.2394 1159.5,118.6094 C1173.83,131.6694 1186.8956,140.2208 1202.4956,148.7508" fill="none" id="TemporalExtent-to-XsdAnyUri-1" style="stroke:#404040;stroke-width:1.2;stroke-dasharray:7,7;"/><polygon fill="#404040" points="1207.76,151.6294,1201.7824,143.8019,1203.373,149.2306,1197.9444,150.8212,1207.76,151.6294" style="stroke:#404040;stroke-width:1.2;"/><text fill="#000000" font-family="sans-serif" font-size="13" lengthAdjust="spacing" textLength="106.2153" x="1160.5" y="115.1045">intervalFinishedBy</text></g><!--link Instant to XsdAnyUri--><g class="link" data-entity-1="ent0024" data-entity-2="ent0002" data-link-type="dependency" data-source-line="35" id="lnk25"><path codeLine="35" d="M1248.19,70.6694 C1258.39,77.8594 1269.86,88.1094 1275.5,100.6094 C1282.95,117.1194 1276.1209,130.7664 1264.6309,144.0164" fill="none" id="Instant-to-XsdAnyUri" style="stroke:#404040;stroke-width:1.2;stroke-dasharray:7,7;"/><polygon fill="#404040" points="1260.7,148.5494,1269.6183,144.3705,1263.9757,144.7719,1263.5743,139.1293,1260.7,148.5494" style="stroke:#404040;stroke-width:1.2;"/><text fill="#000000" font-family="sans-serif" font-size="13" lengthAdjust="spacing" textLength="49.1372" x="1278.5" y="115.1045">identifier</text></g><!--link TimePosition to XsdAnyUri--><g class="link" data-entity-1="ent0026" data-entity-2="ent0002" data-link-type="dependency" data-source-line="37" id="lnk27"><path codeLine="37" d="M1330.15,70.8894 C1337.29,83.5194 1345.59,103.7694 1336.5,118.6094 C1322.82,140.9494 1301.1235,151.7412 1279.0735,158.5412" fill="none" id="TimePosition-to-XsdAnyUri" style="stroke:#404040;stroke-width:1.2;stroke-dasharray:7,7;"/><polygon fill="#404040" points="1273.34,160.3094,1283.1191,161.4795,1278.118,158.8359,1280.7615,153.8348,1273.34,160.3094" style="stroke:#404040;stroke-width:1.2;"/><text fill="#000000" font-family="sans-serif" font-size="13" lengthAdjust="spacing" textLength="46.96" x="1340.5" y="115.1045">hasTRS</text></g><!--link Geometry to XsdAnyUri--><g class="link" data-entity-1="ent0028" data-entity-2="ent0002" data-link-type="dependency" data-source-line="39" id="lnk29"><path codeLine="39" d="M1421.76,70.8994 C1418.04,84.3194 1410.12,105.9994 1395.5,118.6094 C1360.67,148.6594 1313.2988,159.527 1279.1588,164.017" fill="none" id="Geometry-to-XsdAnyUri" style="stroke:#404040;stroke-width:1.2;stroke-dasharray:7,7;"/><polygon fill="#404040" points="1273.21,164.7994,1282.6547,167.5917,1278.1673,164.1474,1281.6116,159.66,1273.21,164.7994" style="stroke:#404040;stroke-width:1.2;"/><text fill="#000000" font-family="sans-serif" font-size="13" lengthAdjust="spacing" textLength="17.3291" x="1409.5" y="115.1045">crs</text></g><!--link QualityMeasurement to XsdAnyUri--><g class="link" data-entity-1="ent0030" data-entity-2="ent0002" data-link-type="dependency" data-source-line="41" id="lnk31"><path codeLine="41" d="M1529.13,70.6594 C1507.47,83.8494 1470.02,105.3294 1435.5,118.6094 C1380.28,139.8494 1318.5959,153.3367 1279.2259,160.7667" fill="none" id="QualityMeasurement-to-XsdAnyUri" style="stroke:#404040;stroke-width:1.2;stroke-dasharray:7,7;"/><polygon fill="#404040" points="1273.33,161.8794,1282.9157,164.141,1278.2433,160.9521,1281.4321,156.2797,1273.33,161.8794" style="stroke:#404040;stroke-width:1.2;"/><text fill="#000000" font-family="sans-serif" font-size="13" lengthAdjust="spacing" textLength="20.96" x="1474.5" y="115.1045">unit</text></g><!--link WebAPI to XsdAnyUri--><g class="link" data-entity-1="ent0032" data-entity-2="ent0002" data-link-type="dependency" data-source-line="43" id="lnk33"><path codeLine="43" d="M1641.23,69.8194 C1609.55,82.8994 1553.33,104.9694 1503.5,118.6094 C1421.97,140.9194 1329.3721,155.4376 1279.2221,162.4576" fill="none" id="WebAPI-to-XsdAnyUri" style="stroke:#404040;stroke-width:1.2;stroke-dasharray:7,7;"/><polygon fill="#404040" points="1273.28,163.2894,1282.7476,166.0031,1278.2317,162.5962,1281.6386,158.0803,1273.28,163.2894" style="stroke:#404040;stroke-width:1.2;"/><text fill="#000000" font-family="sans-serif" font-size="13" lengthAdjust="spacing" textLength="85.2808" x="1558.5" y="115.1045">potentialAction</text></g><!--link AdditionalProperty to XsdAnyUri--><g class="link" data-entity-1="ent0034" data-entity-2="ent0002" data-link-type="dependency" data-source-line="45" id="lnk35"><path codeLine="45" d="M1759.2,70.6494 C1735.12,84.4794 1692.26,107.1894 1652.5,118.6094 C1515.42,157.9894 1349.9286,165.6421 1279.2486,167.1421" fill="none" id="AdditionalProperty-to-XsdAnyUri" style="stroke:#404040;stroke-width:1.2;stroke-dasharray:7,7;"/><polygon fill="#404040" points="1273.25,167.2694,1282.3328,171.0775,1278.2489,167.1633,1282.1631,163.0793,1273.25,167.2694" style="stroke:#404040;stroke-width:1.2;"/><text fill="#000000" font-family="sans-serif" font-size="13" lengthAdjust="spacing" textLength="52.0381" x="1699.5" y="115.1045">unitCode</text></g><!--link Reference to XsdAnyUri--><g class="link" data-entity-1="ent0036" data-entity-2="ent0002" data-link-type="dependency" data-source-line="47" id="lnk37"><path codeLine="47" d="M1875.59,70.7794 C1849.51,84.7294 1803.17,107.5694 1760.5,118.6094 C1580.76,165.1194 1361.8899,168.6141 1279.0699,168.1341" fill="none" id="Reference-to-XsdAnyUri" style="stroke:#404040;stroke-width:1.2;stroke-dasharray:7,7;"/><polygon fill="#404040" points="1273.07,168.0994,1282.0467,172.1515,1278.0699,168.1284,1282.093,164.1516,1273.07,168.0994" style="stroke:#404040;stroke-width:1.2;"/><text fill="#000000" font-family="sans-serif" font-size="13" lengthAdjust="spacing" textLength="14.4473" x="1811.5" y="115.1045">url</text></g><!--link Reference to XsdAnyUri--><g class="link" data-entity-1="ent0036" data-entity-2="ent0002" data-link-type="dependency" data-source-line="48" id="lnk38"><path codeLine="48" d="M1888.41,70.7194 C1877.84,84.8294 1857.89,108.0594 1834.5,118.6094 C1732.98,164.3794 1388.23,167.8227 1279.14,167.7627" fill="none" id="Reference-to-XsdAnyUri-1" style="stroke:#404040;stroke-width:1.2;stroke-dasharray:7,7;"/><polygon fill="#404040" points="1273.14,167.7594,1282.1378,171.7643,1278.14,167.7621,1282.1422,163.7643,1273.14,167.7594" style="stroke:#404040;stroke-width:1.2;"/><text fill="#000000" font-family="sans-serif" font-size="13" lengthAdjust="spacing" textLength="42.6372" x="1860.5" y="115.1045">relation</text></g><!--link ProvActivity to XsdAnyUri--><g class="link" data-entity-1="ent0039" data-entity-2="ent0002" data-link-type="dependency" data-source-line="50" id="lnk40"><path codeLine="50" d="M1984.48,70.7694 C1969.03,84.9394 1940.69,108.2194 1911.5,118.6094 C1791.82,161.1894 1397.1499,166.7527 1279.3399,167.4727" fill="none" id="ProvActivity-to-XsdAnyUri" style="stroke:#404040;stroke-width:1.2;stroke-dasharray:7,7;"/><polygon fill="#404040" points="1273.34,167.5094,1282.3643,171.4543,1278.3399,167.4788,1282.3154,163.4544,1273.34,167.5094" style="stroke:#404040;stroke-width:1.2;"/><text fill="#000000" font-family="sans-serif" font-size="13" lengthAdjust="spacing" textLength="28.1899" x="1944.5" y="115.1045">used</text></g><!--link DerivedFrom to XsdAnyUri--><g class="link" data-entity-1="ent0041" data-entity-2="ent0002" data-link-type="dependency" data-source-line="52" id="lnk42"><path codeLine="52" d="M2085.37,70.7594 C2062.28,84.9194 2020.67,108.1894 1981.5,118.6094 C1844.75,154.9694 1403.7391,164.8974 1279.0591,167.0174" fill="none" id="DerivedFrom-to-XsdAnyUri" style="stroke:#404040;stroke-width:1.2;stroke-dasharray:7,7;"/><polygon fill="#404040" points="1273.06,167.1194,1282.1267,170.9658,1278.0593,167.0344,1281.9907,162.9669,1273.06,167.1194" style="stroke:#404040;stroke-width:1.2;"/><text fill="#000000" font-family="sans-serif" font-size="13" lengthAdjust="spacing" textLength="14.4473" x="2027.5" y="115.1045">url</text></g><!--link DerivedFrom to XsdAnyUri--><g class="link" data-entity-1="ent0041" data-entity-2="ent0002" data-link-type="dependency" data-source-line="53" id="lnk43"><path codeLine="53" d="M2097.04,70.7694 C2088.47,84.9294 2071.91,108.2194 2050.5,118.6094 C1979.76,152.9394 1422.3891,164.5574 1279.3991,166.9874" fill="none" id="DerivedFrom-to-XsdAnyUri-1" style="stroke:#404040;stroke-width:1.2;stroke-dasharray:7,7;"/><polygon fill="#404040" points="1273.4,167.0894,1282.4667,170.9359,1278.3993,167.0044,1282.3307,162.937,1273.4,167.0894" style="stroke:#404040;stroke-width:1.2;"/><text fill="#000000" font-family="sans-serif" font-size="13" lengthAdjust="spacing" textLength="42.6372" x="2073.5" y="115.1045">relation</text></g><!--link CatalogRecord to XsdAnyUri--><g class="link" data-entity-1="ent0044" data-entity-2="ent0002" data-link-type="dependency" data-source-line="55" id="lnk45"><path codeLine="55" d="M2205.83,70.8494 C2188.32,85.0994 2156.4,108.4794 2124.5,118.6094 C1961.34,170.4194 1418.8398,169.2209 1279.1098,168.0209" fill="none" id="CatalogRecord-to-XsdAnyUri" style="stroke:#404040;stroke-width:1.2;stroke-dasharray:7,7;"/><polygon fill="#404040" points="1273.11,167.9694,1282.0753,172.0465,1278.1098,168.0123,1282.144,164.0468,1273.11,167.9694" style="stroke:#404040;stroke-width:1.2;"/><text fill="#000000" font-family="sans-serif" font-size="13" lengthAdjust="spacing" textLength="68.6309" x="2163.5" y="115.1045">conformsTo</text></g><?plantuml-src ZLLBZzem4BxdLrZB7NMtxQLQ8MLvL1mgKM3RNeTuMAnrR3GsqBJgVszUTfoOqeMBvnlx--PXJwom4jaFmrDLF9D83e8ZomHb4firvaTRi1pp7P99pAjGHo38cJa0rnUXNjWUfC70anBfo_OWibU5nh3xyKFWp2IKsE-4DTkcMcfYem_lgdy9FcdYI4DqePNTY5_8xX-IFqdISDpveEyOc2u5zlZ8mSAsEE9amaQBTFvnzjwTcQjJZWHMQ3NJEGXLdurGDfhNloJsZCUJGEiJ8zmZeShGE8rlG09s4hyWc1CXhoM6e5U874E18-aZaYsMt0dColHc-gAaXeOy13nn3noIPcL5KTbdal_TjzUKcwrsubDTvdgqjMwxzfBE7h88jSaEcAFZMF9IM-m5KatJcPufW8Pafp9cLmZS2uLyYvGtTUZihWm15iNbLMvlKu5tWpRiWq7hMr2kUzMlx6lHmyvOWiosZ-4kRUtFg7EqLDI4Gz0pHuweP-IluhPylPf0pdzMtQvv-v1d7S1n2IpI6UJ60bdaJyLR3oo44kPGdt3DLyP26qoxxjhUsZSQvJ8JEQwq4TNBRF8AW2wh41oI7i1irnj7s2j-LFIt5Flh2QImHVkGSrVm6FQiLrpHVL72txVlk4jNovgqMNgYren6Xwvw8q2cMLK1nvDoNbS4vAgTBSsDY-3kpiMkQu5EDVTlVEtcOitjBK_P8TUUoB-zX1B2PCg0pbLwPz6c4G9UhGT6WWQxsOeapiWNfDr8yNOmKZhiMl2t_CFmf-MSaFfbZLdvvMk6QeXqexM7tXZJVm40?></g></svg>