<svg xmlns="http://www.w3.org/2000/svg" xmlns:xlink="http://www.w3.org/1999/xlink" contentStyleType="text/css" data-diagram-type="CLASS" height="202px" preserveAspectRatio="none" style="width:1361px;height:202px;background:#FFFFFF;" version="1.1" viewBox="0 0 1361 202" width="1361px" zoomAndPan="magnify"><?plantuml 1.2026.3?><defs/><g><g class="title" data-source-line="1"><text fill="#000000" font-family="sans-serif" font-size="14" font-weight="700" lengthAdjust="spacing" textLength="71.5723" x="641.416" y="24.5332">XsdAnyUri</text></g><!--class XsdAnyUri--><g class="entity" data-qualified-name="XsdAnyUri" data-source-line="12" id="ent0002"><rect fill="#FAE5D3" height="40.1875" rx="2.5" ry="2.5" style="stroke:#404040;stroke-width:0.5;" width="65.3809" x="658" y="148.6094"/><text fill="#000000" font-family="sans-serif" font-size="12" font-style="italic" lengthAdjust="spacing" textLength="63.3809" x="659" y="166.0664">&#171;dataType&#187;</text><text fill="#000000" font-family="sans-serif" font-size="12" lengthAdjust="spacing" textLength="56.6836" x="662.3486" y="181.1602">XsdAnyUri</text></g><!--class DataDownload--><g class="entity" data-qualified-name="DataDownload" data-source-line="13" id="ent0003"><rect fill="#EEEEEE" height="25.0938" rx="2.5" ry="2.5" style="stroke:#404040;stroke-width:0.5;" width="84.7148" x="7" y="45.6094"/><text fill="#000000" font-family="sans-serif" font-size="12" lengthAdjust="spacing" textLength="78.7148" x="10" y="63.0664">DataDownload</text></g><!--class CatalogRecord--><g class="entity" data-qualified-name="CatalogRecord" data-source-line="15" id="ent0005"><rect fill="#EEEEEE" height="25.0938" rx="2.5" ry="2.5" style="stroke:#404040;stroke-width:0.5;" width="86.0449" x="127.5" y="45.6094"/><text fill="#000000" font-family="sans-serif" font-size="12" lengthAdjust="spacing" textLength="80.0449" x="130.5" y="63.0664">CatalogRecord</text></g><!--class DataStructureComponent--><g class="entity" data-qualified-name="DataStructureComponent" data-source-line="17" id="ent0007"><rect fill="#EEEEEE" height="25.0938" rx="2.5" ry="2.5" style="stroke:#404040;stroke-width:0.5;" width="142.0723" x="248.5" y="45.6094"/><text fill="#000000" font-family="sans-serif" font-size="12" font-style="italic" lengthAdjust="spacing" textLength="136.0723" x="251.5" y="63.0664">DataStructureComponent</text></g><!--class InstanceVariable--><g class="entity" data-qualified-name="InstanceVariable" data-source-line="19" id="ent0009"><rect fill="#EEEEEE" height="25.0938" rx="2.5" ry="2.5" style="stroke:#404040;stroke-width:0.5;" width="95.3906" x="426" y="45.6094"/><text fill="#000000" font-family="sans-serif" font-size="12" lengthAdjust="spacing" textLength="89.3906" x="429" y="63.0664">InstanceVariable</text></g><!--class AbstractDataStructure--><g class="entity" data-qualified-name="AbstractDataStructure" data-source-line="21" id="ent0011"><rect fill="#EEEEEE" height="25.0938" rx="2.5" ry="2.5" style="stroke:#404040;stroke-width:0.5;" width="124.0488" x="556.5" y="45.6094"/><text fill="#000000" font-family="sans-serif" font-size="12" font-style="italic" lengthAdjust="spacing" textLength="118.0488" x="559.5" y="63.0664">AbstractDataStructure</text></g><!--class DimensionGroup--><g class="entity" data-qualified-name="DimensionGroup" data-source-line="23" id="ent0013"><rect fill="#EEEEEE" height="25.0938" rx="2.5" ry="2.5" style="stroke:#404040;stroke-width:0.5;" width="96.041" x="715.5" y="45.6094"/><text fill="#000000" font-family="sans-serif" font-size="12" lengthAdjust="spacing" textLength="90.041" x="718.5" y="63.0664">DimensionGroup</text></g><!--class PrimaryKey--><g class="entity" data-qualified-name="PrimaryKey" data-source-line="25" id="ent0015"><rect fill="#EEEEEE" height="25.0938" rx="2.5" ry="2.5" style="stroke:#404040;stroke-width:0.5;" width="68.0098" x="846.5" y="45.6094"/><text fill="#000000" font-family="sans-serif" font-size="12" lengthAdjust="spacing" textLength="62.0098" x="849.5" y="63.0664">PrimaryKey</text></g><!--class PrimaryKeyComponent--><g class="entity" data-qualified-name="PrimaryKeyComponent" data-source-line="27" id="ent0017"><rect fill="#EEEEEE" height="25.0938" rx="2.5" ry="2.5" style="stroke:#404040;stroke-width:0.5;" width="130.0488" x="949.5" y="45.6094"/><text fill="#000000" font-family="sans-serif" font-size="12" lengthAdjust="spacing" textLength="124.0488" x="952.5" y="63.0664">PrimaryKeyComponent</text></g><!--class ForeignKey--><g class="entity" data-qualified-name="ForeignKey" data-source-line="29" id="ent0019"><rect fill="#EEEEEE" height="25.0938" rx="2.5" ry="2.5" style="stroke:#404040;stroke-width:0.5;" width="67.3652" x="1115" y="45.6094"/><text fill="#000000" font-family="sans-serif" font-size="12" lengthAdjust="spacing" textLength="61.3652" x="1118" y="63.0664">ForeignKey</text></g><!--class ForeignKeyComponent--><g class="entity" data-qualified-name="ForeignKeyComponent" data-source-line="31" id="ent0021"><rect fill="#EEEEEE" height="25.0938" rx="2.5" ry="2.5" style="stroke:#404040;stroke-width:0.5;" width="129.4043" x="1217" y="45.6094"/><text fill="#000000" font-family="sans-serif" font-size="12" lengthAdjust="spacing" textLength="123.4043" x="1220" y="63.0664">ForeignKeyComponent</text></g><!--link DataDownload to XsdAnyUri--><g class="link" data-entity-1="ent0003" data-entity-2="ent0002" data-link-type="dependency" data-source-line="14" id="lnk4"><path codeLine="14" d="M80.11,70.6694 C117.44,84.2894 182.7,106.5794 240.5,118.6094 C394.76,150.7194 577.4271,162.2968 651.9771,165.9368" fill="none" id="DataDownload-to-XsdAnyUri" style="stroke:#404040;stroke-width:1.2;stroke-dasharray:7,7;"/><polygon fill="#404040" points="657.97,166.2294,649.1758,161.7952,652.9759,165.9855,648.7856,169.7857,657.97,166.2294" style="stroke:#404040;stroke-width:1.2;"/><text fill="#000000" font-family="sans-serif" font-size="13" lengthAdjust="spacing" textLength="49.1372" x="241.5" y="115.1045">identifier</text></g><!--link CatalogRecord to XsdAnyUri--><g class="link" data-entity-1="ent0005" data-entity-2="ent0002" data-link-type="dependency" data-source-line="16" id="lnk6"><path codeLine="16" d="M202.54,70.6094 C240.51,83.8694 305.89,105.4894 363.5,118.6094 C469.85,142.8294 592.4932,157.459 651.7432,163.719" fill="none" id="CatalogRecord-to-XsdAnyUri" style="stroke:#404040;stroke-width:1.2;stroke-dasharray:7,7;"/><polygon fill="#404040" points="657.71,164.3494,649.1801,159.4259,652.7377,163.824,648.3395,167.3816,657.71,164.3494" style="stroke:#404040;stroke-width:1.2;"/><text fill="#000000" font-family="sans-serif" font-size="13" lengthAdjust="spacing" textLength="68.6309" x="364.5" y="115.1045">conformsTo</text></g><!--link DataStructureComponent to XsdAnyUri--><g class="link" data-entity-1="ent0007" data-entity-2="ent0002" data-link-type="dependency" data-source-line="18" id="lnk8"><path codeLine="18" d="M350.86,70.6494 C385.69,83.2594 443.71,103.6494 494.5,118.6094 C551.36,135.3494 612.7209,150.0023 651.8309,158.9423" fill="none" id="DataStructureComponent-to-XsdAnyUri" style="stroke:#404040;stroke-width:1.2;stroke-dasharray:7,7;"/><polygon fill="#404040" points="657.68,160.2794,649.7977,154.3744,652.8057,159.1652,648.0149,162.1733,657.68,160.2794" style="stroke:#404040;stroke-width:1.2;"/><text fill="#000000" font-family="sans-serif" font-size="13" lengthAdjust="spacing" textLength="49.1372" x="495.5" y="115.1045">identifier</text></g><!--link InstanceVariable to XsdAnyUri--><g class="link" data-entity-1="ent0009" data-entity-2="ent0002" data-link-type="dependency" data-source-line="20" id="lnk10"><path codeLine="20" d="M495.45,70.7094 C518.52,82.8494 555.91,102.3594 588.5,118.6094 C611.53,130.0994 632.28,140.0858 652.35,149.6158" fill="none" id="InstanceVariable-to-XsdAnyUri" style="stroke:#404040;stroke-width:1.2;stroke-dasharray:7,7;"/><polygon fill="#404040" points="657.77,152.1894,651.3557,144.7156,653.2533,150.0447,647.9242,151.9423,657.77,152.1894" style="stroke:#404040;stroke-width:1.2;"/><text fill="#000000" font-family="sans-serif" font-size="13" lengthAdjust="spacing" textLength="49.1372" x="589.5" y="115.1045">identifier</text></g><!--link AbstractDataStructure to XsdAnyUri--><g class="link" data-entity-1="ent0011" data-entity-2="ent0002" data-link-type="dependency" data-source-line="22" id="lnk12"><path codeLine="22" d="M626.21,70.7194 C638.54,89.3094 659.5336,120.9392 674.4636,143.4492" fill="none" id="AbstractDataStructure-to-XsdAnyUri" style="stroke:#404040;stroke-width:1.2;stroke-dasharray:7,7;"/><polygon fill="#404040" points="677.78,148.4494,676.1388,138.7382,675.0163,144.2826,669.472,143.1601,677.78,148.4494" style="stroke:#404040;stroke-width:1.2;"/><text fill="#000000" font-family="sans-serif" font-size="13" lengthAdjust="spacing" textLength="49.1372" x="657.5" y="115.1045">identifier</text></g><!--link DimensionGroup to XsdAnyUri--><g class="link" data-entity-1="ent0013" data-entity-2="ent0002" data-link-type="dependency" data-source-line="24" id="lnk14"><path codeLine="24" d="M755.69,70.7194 C743.18,89.3094 721.8901,120.9618 706.7401,143.4718" fill="none" id="DimensionGroup-to-XsdAnyUri" style="stroke:#404040;stroke-width:1.2;stroke-dasharray:7,7;"/><polygon fill="#404040" points="703.39,148.4494,711.7336,143.2163,706.1818,144.3014,705.0968,138.7495,703.39,148.4494" style="stroke:#404040;stroke-width:1.2;"/><text fill="#000000" font-family="sans-serif" font-size="13" lengthAdjust="spacing" textLength="49.1372" x="734.5" y="115.1045">identifier</text></g><!--link PrimaryKey to XsdAnyUri--><g class="link" data-entity-1="ent0015" data-entity-2="ent0002" data-link-type="dependency" data-source-line="26" id="lnk16"><path codeLine="26" d="M864.74,70.8094 C847.47,83.3694 818.73,103.5494 792.5,118.6094 C770.01,131.5194 749.0554,141.6737 728.7454,150.8737" fill="none" id="PrimaryKey-to-XsdAnyUri" style="stroke:#404040;stroke-width:1.2;stroke-dasharray:7,7;"/><polygon fill="#404040" points="723.28,153.3494,733.1286,153.2794,727.8345,151.2863,729.8277,145.9922,723.28,153.3494" style="stroke:#404040;stroke-width:1.2;"/><text fill="#000000" font-family="sans-serif" font-size="13" lengthAdjust="spacing" textLength="49.1372" x="820.5" y="115.1045">identifier</text></g><!--link PrimaryKeyComponent to XsdAnyUri--><g class="link" data-entity-1="ent0017" data-entity-2="ent0002" data-link-type="dependency" data-source-line="28" id="lnk18"><path codeLine="28" d="M990.88,70.8094 C964.11,83.7394 918.92,104.5994 878.5,118.6094 C825.12,137.1094 766.9693,151.0878 729.0893,159.4378" fill="none" id="PrimaryKeyComponent-to-XsdAnyUri" style="stroke:#404040;stroke-width:1.2;stroke-dasharray:7,7;"/><polygon fill="#404040" points="723.23,160.7294,732.8801,162.6982,728.1128,159.653,731.1579,154.8858,723.23,160.7294" style="stroke:#404040;stroke-width:1.2;"/><text fill="#000000" font-family="sans-serif" font-size="13" lengthAdjust="spacing" textLength="49.1372" x="924.5" y="115.1045">identifier</text></g><!--link ForeignKey to XsdAnyUri--><g class="link" data-entity-1="ent0019" data-entity-2="ent0002" data-link-type="dependency" data-source-line="30" id="lnk20"><path codeLine="30" d="M1121.07,70.6494 C1088.54,83.9294 1032.42,105.5894 982.5,118.6094 C889.99,142.7494 783.7195,156.9833 729.2695,163.3433" fill="none" id="ForeignKey-to-XsdAnyUri" style="stroke:#404040;stroke-width:1.2;stroke-dasharray:7,7;"/><polygon fill="#404040" points="723.31,164.0394,732.7133,166.9682,728.2762,163.4593,731.7852,159.0222,723.31,164.0394" style="stroke:#404040;stroke-width:1.2;"/><text fill="#000000" font-family="sans-serif" font-size="13" lengthAdjust="spacing" textLength="49.1372" x="1038.5" y="115.1045">identifier</text></g><!--link ForeignKeyComponent to XsdAnyUri--><g class="link" data-entity-1="ent0021" data-entity-2="ent0002" data-link-type="dependency" data-source-line="32" id="lnk22"><path codeLine="32" d="M1251.54,70.7094 C1215.35,84.2594 1152.36,106.3694 1096.5,118.6094 C959.7,148.5794 798.6683,161.0752 729.2083,165.4152" fill="none" id="ForeignKeyComponent-to-XsdAnyUri" style="stroke:#404040;stroke-width:1.2;stroke-dasharray:7,7;"/><polygon fill="#404040" points="723.22,165.7894,732.4519,169.2203,728.2103,165.4776,731.953,161.2359,723.22,165.7894" style="stroke:#404040;stroke-width:1.2;"/><text fill="#000000" font-family="sans-serif" font-size="13" lengthAdjust="spacing" textLength="49.1372" x="1164.5" y="115.1045">identifier</text></g><?plantuml-src bP5HJy8m58NV-oiQU2U2-c88oMHWZ2z6qFXQkWiqjBtBRGcPnl_kt6HRnoAolQpVQSyvj_FAQ-3lBebizagARLK2N2gI6iflCAdFk06p0dBCxPHD1Gd3tLOaU51smzT2EsWe4H4UbbibTnQSuyF1g25ABNBsoNYvROeQYVTlhdxU7DuZ9K1jEaVh5-e3-734lXWhFNfLwHuNhXw1ZyU9y6APfJ2PyFuycjt6rySpSQx4UB0QHL8SQmBUdnKF2-1WC6cOt_7yKgnNQmLqD9tcspLkNa3cxGlNW5Is8MtxIhHh9EEMoCJAUHBIyqRhXQUzz7k2APeKRTwXwdyg1PDqoETdUhJE2olXJP0IAmr5M1jMCIV27m7juQBVTL2rYEjKginkzVnaiJ9WdKBxGBXFoqiCK7rv8Jvl_KpA2CgU82jiwsLbsK2Ns8N_l8Dt15poj-T8e3RsMBnULhuDT8bTMBo3TmJyg_Wt?></g></svg>