<svg xmlns="http://www.w3.org/2000/svg" xmlns:xlink="http://www.w3.org/1999/xlink" contentStyleType="text/css" data-diagram-type="CLASS" height="497px" preserveAspectRatio="none" style="width:1371px;height:497px;background:#FFFFFF;" version="1.1" viewBox="0 0 1371 497" width="1371px" zoomAndPan="magnify"><?plantuml 1.2026.3?><defs/><g><g class="title" data-source-line="1"><text fill="#000000" font-family="sans-serif" font-size="14" font-weight="700" lengthAdjust="spacing" textLength="71.5723" x="646.4204" y="24.5332">XsdAnyUri</text></g><!--class XsdAnyUri--><g class="entity" data-qualified-name="XsdAnyUri" data-source-line="16" id="ent0002"><rect fill="#FAE5D3" height="93.0156" rx="2.5" ry="2.5" style="stroke:#404040;stroke-width:0.5;" width="192.1426" x="644.5" y="390.6094"/><text fill="#000000" font-family="sans-serif" font-size="36" font-style="italic" lengthAdjust="spacing" textLength="190.1426" x="645.5" y="432.9805">&#171;dataType&#187;</text><text fill="#000000" font-family="sans-serif" font-size="30" lengthAdjust="spacing" textLength="141.709" x="669.7168" y="472.0332">XsdAnyUri</text></g><!--class DataDownload--><g class="entity" data-qualified-name="DataDownload" data-source-line="17" id="ent0003"><rect fill="#EEEEEE" height="47.7344" rx="2.5" ry="2.5" style="stroke:#404040;stroke-width:0.5;" width="202.7871" x="7" y="45.6094"/><text fill="#000000" font-family="sans-serif" font-size="30" lengthAdjust="spacing" textLength="196.7871" x="10" y="81.752">DataDownload</text></g><!--class CatalogRecord--><g class="entity" data-qualified-name="CatalogRecord" data-source-line="19" id="ent0005"><rect fill="#EEEEEE" height="47.7344" rx="2.5" ry="2.5" style="stroke:#404040;stroke-width:0.5;" width="206.1123" x="230.5" y="45.6094"/><text fill="#000000" font-family="sans-serif" font-size="30" lengthAdjust="spacing" textLength="200.1123" x="233.5" y="81.752">CatalogRecord</text></g><!--class RepresentedVariable--><g class="entity" data-qualified-name="RepresentedVariable" data-source-line="21" id="ent0007"><rect fill="#EEEEEE" height="47.7344" rx="2.5" ry="2.5" style="stroke:#404040;stroke-width:0.5;" width="287.8506" x="456.5" y="45.6094"/><text fill="#000000" font-family="sans-serif" font-size="30" lengthAdjust="spacing" textLength="281.8506" x="459.5" y="81.752">RepresentedVariable</text></g><!--class DimensionGroup--><g class="entity" data-qualified-name="DimensionGroup" data-source-line="23" id="ent0009"><rect fill="#EEEEEE" height="47.7344" rx="2.5" ry="2.5" style="stroke:#404040;stroke-width:0.5;" width="231.1025" x="765" y="45.6094"/><text fill="#000000" font-family="sans-serif" font-size="30" lengthAdjust="spacing" textLength="225.1025" x="768" y="81.752">DimensionGroup</text></g><!--class PrimaryKey--><g class="entity" data-qualified-name="PrimaryKey" data-source-line="25" id="ent0011"><rect fill="#EEEEEE" height="47.7344" rx="2.5" ry="2.5" style="stroke:#404040;stroke-width:0.5;" width="161.0244" x="1016" y="45.6094"/><text fill="#000000" font-family="sans-serif" font-size="30" lengthAdjust="spacing" textLength="155.0244" x="1019" y="81.752">PrimaryKey</text></g><!--class ForeignKey--><g class="entity" data-qualified-name="ForeignKey" data-source-line="27" id="ent0013"><rect fill="#EEEEEE" height="47.7344" rx="2.5" ry="2.5" style="stroke:#404040;stroke-width:0.5;" width="159.4131" x="1197" y="45.6094"/><text fill="#000000" font-family="sans-serif" font-size="30" lengthAdjust="spacing" textLength="153.4131" x="1200" y="81.752">ForeignKey</text></g><!--link DataDownload to XsdAnyUri--><g class="link" data-entity-1="ent0003" data-entity-2="ent0002" data-link-type="dependency" data-source-line="18" id="lnk4"><path codeLine="18" d="M123.1,93.7794 C149.59,134.0794 209.39,217.3794 279.5,265.6094 C392.87,343.5994 540.4975,389.5306 638.5575,413.9306" fill="none" id="DataDownload-to-XsdAnyUri" style="stroke:#404040;stroke-width:1.2;stroke-dasharray:7,7;"/><polygon fill="#404040" points="644.38,415.3794,636.6122,409.3246,639.528,414.1721,634.6805,417.0878,644.38,415.3794" style="stroke:#404040;stroke-width:1.2;"/><text fill="#000000" font-family="sans-serif" font-size="36" lengthAdjust="spacing" textLength="136.0723" x="280.5" y="256.9805">identifier</text></g><!--link CatalogRecord to XsdAnyUri--><g class="link" data-entity-1="ent0005" data-entity-2="ent0002" data-link-type="dependency" data-source-line="20" id="lnk6"><path codeLine="20" d="M344.23,93.6894 C363.28,132.7794 406.13,212.8594 460.5,265.6094 C514.22,317.7194 581.3075,358.5198 639.0375,388.5598" fill="none" id="CatalogRecord-to-XsdAnyUri" style="stroke:#404040;stroke-width:1.2;stroke-dasharray:7,7;"/><polygon fill="#404040" points="644.36,391.3294,638.2226,383.6266,639.9246,389.0214,634.5298,390.7233,644.36,391.3294" style="stroke:#404040;stroke-width:1.2;"/><text fill="#000000" font-family="sans-serif" font-size="36" lengthAdjust="spacing" textLength="190.0547" x="461.5" y="256.9805">conformsTo</text></g><!--link RepresentedVariable to XsdAnyUri--><g class="link" data-entity-1="ent0007" data-entity-2="ent0002" data-link-type="dependency" data-source-line="22" id="lnk8"><path codeLine="22" d="M609.36,93.7494 C632.11,153.1494 690.7438,306.2164 720.8938,384.9264" fill="none" id="RepresentedVariable-to-XsdAnyUri" style="stroke:#404040;stroke-width:1.2;stroke-dasharray:7,7;"/><polygon fill="#404040" points="723.04,390.5294,723.556,380.694,721.2515,385.8602,716.0853,383.5557,723.04,390.5294" style="stroke:#404040;stroke-width:1.2;"/><text fill="#000000" font-family="sans-serif" font-size="36" lengthAdjust="spacing" textLength="136.0723" x="675.5" y="256.9805">identifier</text></g><!--link DimensionGroup to XsdAnyUri--><g class="link" data-entity-1="ent0009" data-entity-2="ent0002" data-link-type="dependency" data-source-line="24" id="lnk10"><path codeLine="24" d="M873.95,93.7194 C863.3,130.5194 841.07,204.5394 817.5,265.6094 C800.89,308.6394 781.5995,350.9722 765.4095,384.9722" fill="none" id="DimensionGroup-to-XsdAnyUri" style="stroke:#404040;stroke-width:1.2;stroke-dasharray:7,7;"/><polygon fill="#404040" points="762.83,390.3894,770.3108,383.9833,764.9796,385.875,763.0878,380.5439,762.83,390.3894" style="stroke:#404040;stroke-width:1.2;"/><text fill="#000000" font-family="sans-serif" font-size="36" lengthAdjust="spacing" textLength="136.0723" x="833.5" y="256.9805">identifier</text></g><!--link PrimaryKey to XsdAnyUri--><g class="link" data-entity-1="ent0011" data-entity-2="ent0002" data-link-type="dependency" data-source-line="26" id="lnk12"><path codeLine="26" d="M1085.78,93.8894 C1067.2,132.5794 1026.11,211.1994 975.5,265.6094 C929.5,315.0694 872.3324,356.2388 823.4624,387.3288" fill="none" id="PrimaryKey-to-XsdAnyUri" style="stroke:#404040;stroke-width:1.2;stroke-dasharray:7,7;"/><polygon fill="#404040" points="818.4,390.5494,828.1406,389.0934,822.6187,387.8656,823.8465,382.3436,818.4,390.5494" style="stroke:#404040;stroke-width:1.2;"/><text fill="#000000" font-family="sans-serif" font-size="36" lengthAdjust="spacing" textLength="136.0723" x="1011.5" y="256.9805">identifier</text></g><!--link ForeignKey to XsdAnyUri--><g class="link" data-entity-1="ent0013" data-entity-2="ent0002" data-link-type="dependency" data-source-line="28" id="lnk14"><path codeLine="28" d="M1267.53,93.6794 C1250.83,133.8194 1211.37,216.8894 1153.5,265.6094 C1060.48,343.9194 932.3345,388.7026 842.4445,412.8526" fill="none" id="ForeignKey-to-XsdAnyUri" style="stroke:#404040;stroke-width:1.2;stroke-dasharray:7,7;"/><polygon fill="#404040" points="836.65,414.4094,846.3796,415.9372,841.4788,413.1121,844.3039,408.2112,836.65,414.4094" style="stroke:#404040;stroke-width:1.2;"/><text fill="#000000" font-family="sans-serif" font-size="36" lengthAdjust="spacing" textLength="136.0723" x="1196.5" y="256.9805">identifier</text></g><?plantuml-src XP2nRi8m48RtF8L5TaIXTAWG4YNGeKj5QTNLn1SuuVYYin5AgxvxtKH978HAlCJVx_ii_mwT1l5frSAKxupH0HM853dLKFz3NhXIv93lW6raZsWAoJ8NzY0LdT7iHIQrXI1PCDDvUy3qQC1QSJSS1o5BSxHGYF5q55132YeQGWMPF6ct9kFUy0l4v248Kosz-piIzNLBqiGYlX_zBG-VY1Nm9GrLVj0vnjt9GOT7qKyKrUf1syb0IDir96Op9PtSbWNCvo9UBrRJPDBC93v9w6mqILMDXK34g-gBUd0ud0VoH-4xDmup16waItzSqtu3gNzKPUsHLjkdbzwKJ4QSsoqrtWqKx5it3jI7P9Gx3PNz2c_lk9RTVa62EHYBP9wPJaLTJ0zrrVJnRVKhOowvV86oqdRRLXcWsxerCU3UDBfks-e2z8_k5m00?></g></svg>