<svg xmlns="http://www.w3.org/2000/svg" xmlns:xlink="http://www.w3.org/1999/xlink" contentStyleType="text/css" data-diagram-type="CLASS" height="509px" preserveAspectRatio="none" style="width:2250px;height:509px;background:#FFFFFF;" version="1.1" viewBox="0 0 2250 509" width="2250px" zoomAndPan="magnify"><?plantuml 1.2026.3?><defs/><g><g class="title" data-source-line="1"><text fill="#000000" font-family="sans-serif" font-size="14" font-weight="700" lengthAdjust="spacing" textLength="50.5791" x="1096.4009" y="24.5332">Dataset</text></g><!--class Dataset--><g class="entity" data-qualified-name="Dataset" data-source-line="12" id="ent0002"><rect fill="#FEFECE" height="332.4531" rx="2.5" ry="2.5" style="stroke:#404040;stroke-width:0.5;" width="302.2402" x="1038.5" y="45.6094"/><text fill="#000000" font-family="sans-serif" font-size="12" lengthAdjust="spacing" textLength="41.3555" x="1168.9424" y="63.0664">Dataset</text><line style="stroke:#404040;stroke-width:0.5;" x1="1039.5" x2="1339.7402" y1="70.7031" y2="70.7031"/><g data-visibility-modifier="PUBLIC_FIELD"><ellipse cx="1049.5" cy="85.0078" fill="none" rx="3" ry="3" style="stroke:#038048;stroke-width:1;"/></g><text fill="#000000" font-family="sans-serif" font-size="14" lengthAdjust="spacing" textLength="276.2402" x="1058.5" y="89.2363">measurementTechnique : DefinedTerm [0..*]</text><g data-visibility-modifier="PUBLIC_FIELD"><ellipse cx="1049.5" cy="102.6172" fill="none" rx="3" ry="3" style="stroke:#038048;stroke-width:1;"/></g><text fill="#000000" font-family="sans-serif" font-size="14" lengthAdjust="spacing" textLength="137.7373" x="1058.5" y="106.8457">identifier : Identifier [1]</text><g data-visibility-modifier="PUBLIC_FIELD"><ellipse cx="1049.5" cy="120.2266" fill="none" rx="3" ry="3" style="stroke:#038048;stroke-width:1;"/></g><text fill="#000000" font-family="sans-serif" font-size="14" lengthAdjust="spacing" textLength="100.3789" x="1058.5" y="124.4551">name : string [1]</text><g data-visibility-modifier="PUBLIC_FIELD"><ellipse cx="1049.5" cy="137.8359" fill="none" rx="3" ry="3" style="stroke:#038048;stroke-width:1;"/></g><text fill="#000000" font-family="sans-serif" font-size="14" lengthAdjust="spacing" textLength="148.627" x="1058.5" y="142.0645">description : string [0..1]</text><g data-visibility-modifier="PUBLIC_FIELD"><ellipse cx="1049.5" cy="155.4453" fill="none" rx="3" ry="3" style="stroke:#038048;stroke-width:1;"/></g><text fill="#000000" font-family="sans-serif" font-size="14" lengthAdjust="spacing" textLength="216.3301" x="1058.5" y="159.6738">additionalType : DefinedTerm [0..*]</text><g data-visibility-modifier="PUBLIC_FIELD"><ellipse cx="1049.5" cy="173.0547" fill="none" rx="3" ry="3" style="stroke:#038048;stroke-width:1;"/></g><text fill="#000000" font-family="sans-serif" font-size="14" lengthAdjust="spacing" textLength="148.6201" x="1058.5" y="177.2832">sameAs : Identifier [0..*]</text><g data-visibility-modifier="PUBLIC_FIELD"><ellipse cx="1049.5" cy="190.6641" fill="none" rx="3" ry="3" style="stroke:#038048;stroke-width:1;"/></g><text fill="#000000" font-family="sans-serif" font-size="14" lengthAdjust="spacing" textLength="126.0547" x="1058.5" y="194.8926">version : string [0..1]</text><g data-visibility-modifier="PUBLIC_FIELD"><ellipse cx="1049.5" cy="208.2734" fill="none" rx="3" ry="3" style="stroke:#038048;stroke-width:1;"/></g><text fill="#000000" font-family="sans-serif" font-size="14" lengthAdjust="spacing" textLength="206.2881" x="1058.5" y="212.502">inLanguage : XsdLanguage [0..1]</text><g data-visibility-modifier="PUBLIC_FIELD"><ellipse cx="1049.5" cy="225.8828" fill="none" rx="3" ry="3" style="stroke:#038048;stroke-width:1;"/></g><text fill="#000000" font-family="sans-serif" font-size="14" lengthAdjust="spacing" textLength="164.9854" x="1058.5" y="230.1113">dateModified : XsdDate [1]</text><g data-visibility-modifier="PUBLIC_FIELD"><ellipse cx="1049.5" cy="243.4922" fill="none" rx="3" ry="3" style="stroke:#038048;stroke-width:1;"/></g><text fill="#000000" font-family="sans-serif" font-size="14" lengthAdjust="spacing" textLength="189.123" x="1058.5" y="247.7207">datePublished : XsdDate [0..1]</text><g data-visibility-modifier="PUBLIC_FIELD"><ellipse cx="1049.5" cy="261.1016" fill="none" rx="3" ry="3" style="stroke:#038048;stroke-width:1;"/></g><text fill="#000000" font-family="sans-serif" font-size="14" lengthAdjust="spacing" textLength="128.3789" x="1058.5" y="265.3301">url : XsdAnyUri [0..1]</text><g data-visibility-modifier="PUBLIC_FIELD"><ellipse cx="1049.5" cy="278.7109" fill="none" rx="3" ry="3" style="stroke:#038048;stroke-width:1;"/></g><text fill="#000000" font-family="sans-serif" font-size="14" lengthAdjust="spacing" textLength="152.5234" x="1058.5" y="282.9395">license : Reference [0..*]</text><g data-visibility-modifier="PUBLIC_FIELD"><ellipse cx="1049.5" cy="296.3203" fill="none" rx="3" ry="3" style="stroke:#038048;stroke-width:1;"/></g><text fill="#000000" font-family="sans-serif" font-size="14" lengthAdjust="spacing" textLength="231.8887" x="1058.5" y="300.5488">conditionsOfAccess : Reference [0..*]</text><g data-visibility-modifier="PUBLIC_FIELD"><ellipse cx="1049.5" cy="313.9297" fill="none" rx="3" ry="3" style="stroke:#038048;stroke-width:1;"/></g><text fill="#000000" font-family="sans-serif" font-size="14" lengthAdjust="spacing" textLength="232.6816" x="1058.5" y="318.1582">publishingPrinciples : Reference [0..*]</text><g data-visibility-modifier="PUBLIC_FIELD"><ellipse cx="1049.5" cy="331.5391" fill="none" rx="3" ry="3" style="stroke:#038048;stroke-width:1;"/></g><text fill="#000000" font-family="sans-serif" font-size="14" lengthAdjust="spacing" textLength="184.3994" x="1058.5" y="335.7676">keywords : DefinedTerm [0..*]</text><g data-visibility-modifier="PUBLIC_FIELD"><ellipse cx="1049.5" cy="349.1484" fill="none" rx="3" ry="3" style="stroke:#038048;stroke-width:1;"/></g><text fill="#000000" font-family="sans-serif" font-size="14" lengthAdjust="spacing" textLength="250.5986" x="1058.5" y="353.377">includedInDataCatalog : Reference [0..*]</text><g data-visibility-modifier="PUBLIC_FIELD"><ellipse cx="1049.5" cy="366.7578" fill="none" rx="3" ry="3" style="stroke:#038048;stroke-width:1;"/></g><text fill="#000000" font-family="sans-serif" font-size="14" lengthAdjust="spacing" textLength="177.4336" x="1058.5" y="370.9863">relatedLink : Reference [0..*]</text></g><!--class VariableMeasured--><g class="entity" data-qualified-name="VariableMeasured" data-source-line="31" id="ent0003"><rect fill="#EEEEEE" height="25.0938" rx="2.5" ry="2.5" style="stroke:#404040;stroke-width:0.5;" width="103.3887" x="7" y="463.1094"/><text fill="#000000" font-family="sans-serif" font-size="12" lengthAdjust="spacing" textLength="97.3887" x="10" y="480.5664">VariableMeasured</text></g><!--class SpatialExtent--><g class="entity" data-qualified-name="SpatialExtent" data-source-line="33" id="ent0005"><rect fill="#EEEEEE" height="25.0938" rx="2.5" ry="2.5" style="stroke:#404040;stroke-width:0.5;" width="76.7109" x="165" y="463.1094"/><text fill="#000000" font-family="sans-serif" font-size="12" lengthAdjust="spacing" textLength="70.7109" x="168" y="480.5664">SpatialExtent</text></g><!--class TemporalExtent--><g class="entity" data-qualified-name="TemporalExtent" data-source-line="35" id="ent0007"><rect fill="#EEEEEE" height="25.0938" rx="2.5" ry="2.5" style="stroke:#404040;stroke-width:0.5;" width="90.7031" x="293" y="463.1094"/><text fill="#000000" font-family="sans-serif" font-size="12" lengthAdjust="spacing" textLength="84.7031" x="296" y="480.5664">TemporalExtent</text></g><!--class QualityMeasurement--><g class="entity" data-qualified-name="QualityMeasurement" data-source-line="37" id="ent0009"><rect fill="#EEEEEE" height="25.0938" rx="2.5" ry="2.5" style="stroke:#404040;stroke-width:0.5;" width="116.7129" x="428" y="463.1094"/><text fill="#000000" font-family="sans-serif" font-size="12" lengthAdjust="spacing" textLength="110.7129" x="431" y="480.5664">QualityMeasurement</text></g><!--class Agent--><g class="entity" data-qualified-name="Agent" data-source-line="39" id="ent0011"><rect fill="#EEEEEE" height="25.0938" rx="2.5" ry="2.5" style="stroke:#404040;stroke-width:0.5;" width="37.3594" x="796" y="463.1094"/><text fill="#000000" font-family="sans-serif" font-size="12" font-style="italic" lengthAdjust="spacing" textLength="31.3594" x="799" y="480.5664">Agent</text></g><!--class AbstractDistribution--><g class="entity" data-qualified-name="AbstractDistribution" data-source-line="42" id="ent0014"><rect fill="#EEEEEE" height="25.0938" rx="2.5" ry="2.5" style="stroke:#404040;stroke-width:0.5;" width="110.0391" x="954.5" y="463.1094"/><text fill="#000000" font-family="sans-serif" font-size="12" font-style="italic" lengthAdjust="spacing" textLength="104.0391" x="957.5" y="480.5664">AbstractDistribution</text></g><!--class Contributor--><g class="entity" data-qualified-name="Contributor" data-source-line="45" id="ent0017"><rect fill="#EEEEEE" height="25.0938" rx="2.5" ry="2.5" style="stroke:#404040;stroke-width:0.5;" width="65.3613" x="1100" y="463.1094"/><text fill="#000000" font-family="sans-serif" font-size="12" lengthAdjust="spacing" textLength="59.3613" x="1103" y="480.5664">Contributor</text></g><!--class MonetaryGrant--><g class="entity" data-qualified-name="MonetaryGrant" data-source-line="48" id="ent0020"><rect fill="#EEEEEE" height="25.0938" rx="2.5" ry="2.5" style="stroke:#404040;stroke-width:0.5;" width="86.0332" x="1200.5" y="463.1094"/><text fill="#000000" font-family="sans-serif" font-size="12" lengthAdjust="spacing" textLength="80.0332" x="1203.5" y="480.5664">MonetaryGrant</text></g><!--class ProvActivity--><g class="entity" data-qualified-name="ProvActivity" data-source-line="50" id="ent0022"><rect fill="#EEEEEE" height="25.0938" rx="2.5" ry="2.5" style="stroke:#404040;stroke-width:0.5;" width="68.6777" x="1322" y="463.1094"/><text fill="#000000" font-family="sans-serif" font-size="12" lengthAdjust="spacing" textLength="62.6777" x="1325" y="480.5664">ProvActivity</text></g><!--class DerivedFrom--><g class="entity" data-qualified-name="DerivedFrom" data-source-line="52" id="ent0024"><rect fill="#EEEEEE" height="25.0938" rx="2.5" ry="2.5" style="stroke:#404040;stroke-width:0.5;" width="75.3457" x="1429" y="463.1094"/><text fill="#000000" font-family="sans-serif" font-size="12" lengthAdjust="spacing" textLength="69.3457" x="1432" y="480.5664">DerivedFrom</text></g><!--class CatalogRecord--><g class="entity" data-qualified-name="CatalogRecord" data-source-line="54" id="ent0026"><rect fill="#EEEEEE" height="25.0938" rx="2.5" ry="2.5" style="stroke:#404040;stroke-width:0.5;" width="86.0449" x="1586.5" y="463.1094"/><text fill="#000000" font-family="sans-serif" font-size="12" lengthAdjust="spacing" textLength="80.0449" x="1589.5" y="480.5664">CatalogRecord</text></g><!--class DefinedTerm--><g class="entity" data-qualified-name="DefinedTerm" data-source-line="56" id="ent0028"><rect fill="#EEEEEE" height="25.0938" rx="2.5" ry="2.5" style="stroke:#404040;stroke-width:0.5;" width="75.3574" x="1732" y="463.1094"/><text fill="#000000" font-family="sans-serif" font-size="12" lengthAdjust="spacing" textLength="69.3574" x="1735" y="480.5664">DefinedTerm</text></g><!--class Reference--><g class="entity" data-qualified-name="Reference" data-source-line="58" id="ent0030"><rect fill="#EEEEEE" height="25.0938" rx="2.5" ry="2.5" style="stroke:#404040;stroke-width:0.5;" width="61.3652" x="1842" y="463.1094"/><text fill="#000000" font-family="sans-serif" font-size="12" lengthAdjust="spacing" textLength="55.3652" x="1845" y="480.5664">Reference</text></g><!--class XsdLanguage--><g class="entity" data-qualified-name="XsdLanguage" data-source-line="61" id="ent0033"><rect fill="#FAE5D3" height="40.1875" rx="2.5" ry="2.5" style="stroke:#404040;stroke-width:0.5;" width="80.0684" x="1938.5" y="455.6094"/><text fill="#000000" font-family="sans-serif" font-size="12" font-style="italic" lengthAdjust="spacing" textLength="63.3809" x="1946.8438" y="473.0664">&#171;dataType&#187;</text><text fill="#000000" font-family="sans-serif" font-size="12" lengthAdjust="spacing" textLength="74.0684" x="1941.5" y="488.1602">XsdLanguage</text></g><!--class XsdDate--><g class="entity" data-qualified-name="XsdDate" data-source-line="63" id="ent0035"><rect fill="#FAE5D3" height="40.1875" rx="2.5" ry="2.5" style="stroke:#404040;stroke-width:0.5;" width="65.3809" x="2054" y="455.6094"/><text fill="#000000" font-family="sans-serif" font-size="12" font-style="italic" lengthAdjust="spacing" textLength="63.3809" x="2055" y="473.0664">&#171;dataType&#187;</text><text fill="#000000" font-family="sans-serif" font-size="12" lengthAdjust="spacing" textLength="46.0254" x="2063.6777" y="488.1602">XsdDate</text></g><!--class XsdAnyUri--><g class="entity" data-qualified-name="XsdAnyUri" data-source-line="65" id="ent0037"><rect fill="#FAE5D3" height="40.1875" rx="2.5" ry="2.5" style="stroke:#404040;stroke-width:0.5;" width="65.3809" x="2170" y="455.6094"/><text fill="#000000" font-family="sans-serif" font-size="12" font-style="italic" lengthAdjust="spacing" textLength="63.3809" x="2171" y="473.0664">&#171;dataType&#187;</text><text fill="#000000" font-family="sans-serif" font-size="12" lengthAdjust="spacing" textLength="56.6836" x="2174.3486" y="488.1602">XsdAnyUri</text></g><!--link Dataset to VariableMeasured--><g class="link" data-entity-1="ent0002" data-entity-2="ent0003" data-link-type="dependency" data-source-line="32" id="lnk4"><path codeLine="32" d="M1038.5,213.5594 C824.56,220.6594 426.16,255.4194 128.5,407.6094 C102.14,421.0894 82.6264,442.9654 70.6964,458.2854" fill="none" id="Dataset-to-VariableMeasured" style="stroke:#404040;stroke-width:1.2;"/><polygon fill="#404040" points="67.01,463.0194,75.6956,458.3761,70.082,459.0744,69.3837,453.4608,67.01,463.0194" style="stroke:#404040;stroke-width:1.2;"/><text fill="#000000" font-family="sans-serif" font-size="13" lengthAdjust="spacing" textLength="103.3335" x="129.5" y="422.1045">variableMeasured</text><text fill="#000000" font-family="sans-serif" font-size="13" lengthAdjust="spacing" textLength="19.5127" x="47.6272" y="452.0743">0..*</text></g><!--link Dataset to SpatialExtent--><g class="link" data-entity-1="ent0002" data-entity-2="ent0005" data-link-type="dependency" data-source-line="34" id="lnk6"><path codeLine="34" d="M1038.27,215.5794 C845.69,225.5394 508.44,264.1494 262.5,407.6094 C238.94,421.3494 223.0918,442.7951 213.4818,458.0251" fill="none" id="Dataset-to-SpatialExtent" style="stroke:#404040;stroke-width:1.2;"/><polygon fill="#404040" points="210.28,463.0994,218.4656,457.6225,212.9482,458.8708,211.6999,453.3534,210.28,463.0994" style="stroke:#404040;stroke-width:1.2;"/><text fill="#000000" font-family="sans-serif" font-size="13" lengthAdjust="spacing" textLength="93.9453" x="263.5" y="422.1045">spatialCoverage</text><text fill="#000000" font-family="sans-serif" font-size="13" lengthAdjust="spacing" textLength="19.5127" x="190.3234" y="452.1873">0..*</text></g><!--link Dataset to TemporalExtent--><g class="link" data-entity-1="ent0002" data-entity-2="ent0007" data-link-type="dependency" data-source-line="36" id="lnk8"><path codeLine="36" d="M1038.4,216.5294 C865.32,227.9194 580.21,268.4194 382.5,407.6094 C362.59,421.6294 351.6718,442.261 345.2818,457.411" fill="none" id="Dataset-to-TemporalExtent" style="stroke:#404040;stroke-width:1.2;"/><polygon fill="#404040" points="342.95,462.9394,350.1332,456.2013,344.8931,458.3324,342.7621,453.0923,342.95,462.9394" style="stroke:#404040;stroke-width:1.2;"/><text fill="#000000" font-family="sans-serif" font-size="13" lengthAdjust="spacing" textLength="106.9453" x="383.5" y="422.1045">temporalCoverage</text><text fill="#000000" font-family="sans-serif" font-size="13" lengthAdjust="spacing" textLength="19.5127" x="322.1209" y="452.3464">0..*</text></g><!--link Dataset to QualityMeasurement--><g class="link" data-entity-1="ent0002" data-entity-2="ent0009" data-link-type="dependency" data-source-line="38" id="lnk10"><path codeLine="38" d="M1038.24,217.4094 C886.33,230.1694 654.65,272.4394 510.5,407.6094 C494.82,422.3194 490.123,442.0268 488.233,456.9668" fill="none" id="Dataset-to-QualityMeasurement" style="stroke:#404040;stroke-width:1.2;"/><polygon fill="#404040" points="487.48,462.9194,492.5779,454.4926,488.1075,457.9589,484.6412,453.4885,487.48,462.9194" style="stroke:#404040;stroke-width:1.2;"/><text fill="#000000" font-family="sans-serif" font-size="13" lengthAdjust="spacing" textLength="140.8989" x="511.5" y="422.1045">hasQualityMeasurement</text><text fill="#000000" font-family="sans-serif" font-size="13" lengthAdjust="spacing" textLength="19.5127" x="465.2827" y="452.3186">0..*</text></g><!--link Dataset to Agent--><g class="link" data-entity-1="ent0002" data-entity-2="ent0011" data-link-type="dependency" data-source-line="40" id="lnk12"><path codeLine="40" d="M1038.34,223.5394 C915.31,241.3394 748.86,287.6394 665.5,407.6094 C632.16,455.5894 742.9785,469.2687 789.8685,472.9587" fill="none" id="Dataset-to-Agent" style="stroke:#404040;stroke-width:1.2;"/><polygon fill="#404040" points="795.85,473.4294,787.1915,468.7356,790.8654,473.0371,786.5639,476.711,795.85,473.4294" style="stroke:#404040;stroke-width:1.2;"/><text fill="#000000" font-family="sans-serif" font-size="13" lengthAdjust="spacing" textLength="60.6963" x="666.5" y="422.1045">maintainer</text><text fill="#000000" font-family="sans-serif" font-size="13" lengthAdjust="spacing" textLength="19.5127" x="768.6035" y="467.972">0..*</text></g><!--link Dataset to Agent--><g class="link" data-entity-1="ent0002" data-entity-2="ent0011" data-link-type="dependency" data-source-line="41" id="lnk13"><path codeLine="41" d="M1038.29,239.7394 C942.89,265.5194 826.85,314.7994 767.5,407.6094 C754.79,427.4794 773.4816,446.2148 791.6016,459.4248" fill="none" id="Dataset-to-Agent-1" style="stroke:#404040;stroke-width:1.2;"/><polygon fill="#404040" points="796.45,462.9594,791.5339,454.4252,792.4097,460.0139,786.8211,460.8897,796.45,462.9594" style="stroke:#404040;stroke-width:1.2;"/><text fill="#000000" font-family="sans-serif" font-size="13" lengthAdjust="spacing" textLength="46.9663" x="768.5" y="422.1045">provider</text><text fill="#000000" font-family="sans-serif" font-size="13" lengthAdjust="spacing" textLength="19.5127" x="793.1136" y="452.3743">0..*</text></g><!--link Dataset to Agent--><g class="link" data-entity-1="ent0002" data-entity-2="ent0011" data-link-type="dependency" data-source-line="44" id="lnk16"><path codeLine="44" d="M1038.15,280.5494 C976.72,313.0494 908.02,356.1594 855.5,407.6094 C838.74,424.0194 828.4948,443.1727 821.9248,457.5427" fill="none" id="Dataset-to-Agent-2" style="stroke:#404040;stroke-width:1.2;"/><polygon fill="#404040" points="819.43,462.9994,826.8101,456.4775,821.509,458.4521,819.5344,453.1511,819.43,462.9994" style="stroke:#404040;stroke-width:1.2;"/><text fill="#000000" font-family="sans-serif" font-size="13" lengthAdjust="spacing" textLength="40.46" x="856.5" y="422.1045">creator</text><text fill="#000000" font-family="sans-serif" font-size="13" lengthAdjust="spacing" textLength="19.5127" x="825.414" y="452.046">0..*</text></g><!--link Dataset to Agent--><g class="link" data-entity-1="ent0002" data-entity-2="ent0011" data-link-type="dependency" data-source-line="47" id="lnk19"><path codeLine="47" d="M1038.42,329.7894 C994.99,361.9694 947.04,396.1094 901.5,425.6094 C878.66,440.4094 856.4153,452.677 838.5253,462.127" fill="none" id="Dataset-to-Agent-3" style="stroke:#404040;stroke-width:1.2;"/><polygon fill="#404040" points="833.22,464.9294,843.0463,464.2626,837.6411,462.594,839.3097,457.1889,833.22,464.9294" style="stroke:#404040;stroke-width:1.2;"/><text fill="#000000" font-family="sans-serif" font-size="13" lengthAdjust="spacing" textLength="52.7554" x="927.5" y="422.1045">publisher</text><text fill="#000000" font-family="sans-serif" font-size="13" lengthAdjust="spacing" textLength="21.6836" x="841.4837" y="477.707">0..1</text></g><!--link Dataset to AbstractDistribution--><g class="link" data-entity-1="ent0002" data-entity-2="ent0014" data-link-type="dependency" data-source-line="43" id="lnk15"><path codeLine="43" d="M1076.01,377.7994 C1051.16,413.9694 1032.2774,441.4539 1020.8874,458.0339" fill="none" id="Dataset-to-AbstractDistribution" style="stroke:#404040;stroke-width:1.2;"/><polygon fill="#404040" points="1017.49,462.9794,1025.8831,457.8261,1020.3212,458.8582,1019.2891,453.2962,1017.49,462.9794" style="stroke:#404040;stroke-width:1.2;"/><text fill="#000000" font-family="sans-serif" font-size="13" lengthAdjust="spacing" textLength="62.8672" x="1054.5" y="422.1045">distribution</text><text fill="#000000" font-family="sans-serif" font-size="13" lengthAdjust="spacing" textLength="19.5127" x="997.9648" y="452.0178">0..*</text></g><!--link Dataset to Contributor--><g class="link" data-entity-1="ent0002" data-entity-2="ent0017" data-link-type="dependency" data-source-line="46" id="lnk18"><path codeLine="46" d="M1153.56,377.7994 C1145.69,413.9694 1139.9165,440.5367 1136.3065,457.1167" fill="none" id="Dataset-to-Contributor" style="stroke:#404040;stroke-width:1.2;"/><polygon fill="#404040" points="1135.03,462.9794,1140.8532,455.0364,1136.0937,458.0938,1133.0363,453.3344,1135.03,462.9794" style="stroke:#404040;stroke-width:1.2;"/><text fill="#000000" font-family="sans-serif" font-size="13" lengthAdjust="spacing" textLength="61.4199" x="1147.5" y="422.1045">contributor</text><text fill="#000000" font-family="sans-serif" font-size="13" lengthAdjust="spacing" textLength="19.5127" x="1113.1861" y="452.0178">0..*</text></g><!--link Dataset to MonetaryGrant--><g class="link" data-entity-1="ent0002" data-entity-2="ent0020" data-link-type="dependency" data-source-line="49" id="lnk21"><path codeLine="49" d="M1223.55,377.7994 C1231,413.9694 1236.4813,440.5224 1239.8913,457.1024" fill="none" id="Dataset-to-MonetaryGrant" style="stroke:#404040;stroke-width:1.2;"/><polygon fill="#404040" points="1241.1,462.9794,1243.2049,453.3581,1240.0927,458.0819,1235.3689,454.9697,1241.1,462.9794" style="stroke:#404040;stroke-width:1.2;"/><text fill="#000000" font-family="sans-serif" font-size="13" lengthAdjust="spacing" textLength="42.6499" x="1234.5" y="422.1045">funding</text><text fill="#000000" font-family="sans-serif" font-size="13" lengthAdjust="spacing" textLength="19.5127" x="1217.2901" y="452.0178">0..*</text></g><!--link Dataset to ProvActivity--><g class="link" data-entity-1="ent0002" data-entity-2="ent0022" data-link-type="dependency" data-source-line="51" id="lnk23"><path codeLine="51" d="M1291.46,377.6594 C1301.84,393.9294 1312.31,410.1394 1322.5,425.6094 C1331.04,438.5794 1337.7856,448.2706 1344.7656,458.1406" fill="none" id="Dataset-to-ProvActivity" style="stroke:#404040;stroke-width:1.2;"/><polygon fill="#404040" points="1348.23,463.0394,1346.2993,453.3816,1345.343,458.9571,1339.7676,458.0008,1348.23,463.0394" style="stroke:#404040;stroke-width:1.2;"/><text fill="#000000" font-family="sans-serif" font-size="13" lengthAdjust="spacing" textLength="99.7217" x="1323.5" y="422.1045">wasGeneratedBy</text><text fill="#000000" font-family="sans-serif" font-size="13" lengthAdjust="spacing" textLength="19.5127" x="1322.0721" y="452.1025">0..*</text></g><!--link Dataset to DerivedFrom--><g class="link" data-entity-1="ent0002" data-entity-2="ent0024" data-link-type="dependency" data-source-line="53" id="lnk25"><path codeLine="53" d="M1340.77,322.7894 C1371.37,348.7294 1401.95,377.6294 1427.5,407.6094 C1442.34,425.0194 1452.1143,443.4309 1458.7243,457.4709" fill="none" id="Dataset-to-DerivedFrom" style="stroke:#404040;stroke-width:1.2;"/><polygon fill="#404040" points="1461.28,462.8994,1461.0654,453.0529,1459.1502,458.3756,1453.8274,456.4605,1461.28,462.8994" style="stroke:#404040;stroke-width:1.2;"/><text fill="#000000" font-family="sans-serif" font-size="13" lengthAdjust="spacing" textLength="98.2427" x="1441.5" y="422.1045">wasDerivedFrom</text><text fill="#000000" font-family="sans-serif" font-size="13" lengthAdjust="spacing" textLength="19.5127" x="1436.5169" y="452.2907">0..*</text></g><!--link Dataset to CatalogRecord--><g class="link" data-entity-1="ent0002" data-entity-2="ent0026" data-link-type="dependency" data-source-line="55" id="lnk27"><path codeLine="55" d="M1340.89,286.5294 C1406.43,320.6294 1482.98,363.3294 1548.5,407.6094 C1574.2,424.9794 1597.055,444.7882 1612.485,458.8482" fill="none" id="Dataset-to-CatalogRecord" style="stroke:#404040;stroke-width:1.2;"/><polygon fill="#404040" points="1616.92,462.8894,1612.9617,453.871,1613.2242,459.5217,1607.5734,459.7842,1616.92,462.8894" style="stroke:#404040;stroke-width:1.2;"/><text fill="#000000" font-family="sans-serif" font-size="13" lengthAdjust="spacing" textLength="54.9136" x="1573.5" y="422.1045">subjectOf</text><text fill="#000000" font-family="sans-serif" font-size="13" lengthAdjust="spacing" textLength="7.23" x="1603.6249" y="452.2767">1</text></g><!--reverse link CatalogRecord to Dataset--><g class="link" data-entity-1="ent0026" data-entity-2="ent0002" data-link-type="dependency" data-source-line="60" id="lnk32"><path codeLine="60" d="M1637.161,457.3196 C1642.881,443.0396 1647.46,424.3394 1636.5,407.6094 C1571.34,308.0894 1443.06,259.0694 1340.57,235.0994" fill="none" id="CatalogRecord-backto-Dataset" style="stroke:#404040;stroke-width:1.2;"/><polygon fill="#404040" points="1634.93,462.8894,1641.9897,456.0221,1636.7892,458.2479,1634.5634,453.0473,1634.93,462.8894" style="stroke:#404040;stroke-width:1.2;"/><text fill="#000000" font-family="sans-serif" font-size="13" lengthAdjust="spacing" textLength="32.5317" x="1643.5" y="422.1045">about</text><text fill="#000000" font-family="sans-serif" font-size="13" lengthAdjust="spacing" textLength="21.6836" x="1641.3282" y="452.2767">0..1</text></g><!--link Dataset to DefinedTerm--><g class="link" data-entity-1="ent0002" data-entity-2="ent0028" data-link-type="dependency" data-source-line="57" id="lnk29"><path codeLine="57" d="M1340.64,259.2694 C1441.46,293.4494 1575.07,344.7494 1684.5,407.6094 C1712.52,423.7094 1736.8315,444.3711 1752.6715,458.8511" fill="none" id="Dataset-to-DefinedTerm" style="stroke:#404040;stroke-width:1.2;"/><polygon fill="#404040" points="1757.1,462.8994,1753.1561,453.8746,1753.4096,459.5258,1747.7584,459.7793,1757.1,462.8994" style="stroke:#404040;stroke-width:1.2;"/><text fill="#000000" font-family="sans-serif" font-size="13" lengthAdjust="spacing" textLength="54.9072" x="1713.5" y="422.1045">keywords</text><text fill="#000000" font-family="sans-serif" font-size="13" lengthAdjust="spacing" textLength="19.5127" x="1729.5074" y="452.2907">0..*</text></g><!--link Dataset to Reference--><g class="link" data-entity-1="ent0002" data-entity-2="ent0030" data-link-type="dependency" data-source-line="59" id="lnk31"><path codeLine="59" d="M1340.77,249.8894 C1462.21,282.8494 1635.17,336.6994 1776.5,407.6094 C1807.93,423.3794 1836.063,444.6462 1854.023,459.2362" fill="none" id="Dataset-to-Reference" style="stroke:#404040;stroke-width:1.2;"/><polygon fill="#404040" points="1858.68,463.0194,1854.2166,454.24,1854.7992,459.8667,1849.1724,460.4493,1858.68,463.0194" style="stroke:#404040;stroke-width:1.2;"/><text fill="#000000" font-family="sans-serif" font-size="13" lengthAdjust="spacing" textLength="40.4663" x="1808.5" y="422.1045">license</text><text fill="#000000" font-family="sans-serif" font-size="13" lengthAdjust="spacing" textLength="19.5127" x="1830.0909" y="452.0743">0..*</text></g><!--link Dataset to XsdLanguage--><g class="link" data-entity-1="ent0002" data-entity-2="ent0033" data-link-type="dependency" data-source-line="62" id="lnk34"><path codeLine="62" d="M1340.67,246.5594 C1478.24,279.8294 1685.49,335.9194 1857.5,407.6094 C1889.86,421.0994 1919.549,437.8628 1943.479,452.4728" fill="none" id="Dataset-to-XsdLanguage" style="stroke:#404040;stroke-width:1.2;stroke-dasharray:7,7;"/><polygon fill="#404040" points="1948.6,455.5994,1943.0028,447.4956,1944.3325,452.9939,1938.8341,454.3236,1948.6,455.5994" style="stroke:#404040;stroke-width:1.2;"/><text fill="#000000" font-family="sans-serif" font-size="13" lengthAdjust="spacing" textLength="67.958" x="1896.5" y="422.1045">inLanguage</text></g><!--link Dataset to XsdDate--><g class="link" data-entity-1="ent0002" data-entity-2="ent0035" data-link-type="dependency" data-source-line="64" id="lnk36"><path codeLine="64" d="M1340.73,236.9394 C1501.47,265.8294 1761.1,321.2794 1972.5,407.6094 C2003.74,420.3694 2031.6922,437.2494 2054.0922,452.1294" fill="none" id="Dataset-to-XsdDate" style="stroke:#404040;stroke-width:1.2;stroke-dasharray:7,7;"/><polygon fill="#404040" points="2059.09,455.4494,2053.8066,447.1376,2054.9252,452.6827,2049.38,453.8013,2059.09,455.4494" style="stroke:#404040;stroke-width:1.2;"/><text fill="#000000" font-family="sans-serif" font-size="13" lengthAdjust="spacing" textLength="74.439" x="2009.5" y="422.1045">dateModified</text></g><!--link Dataset to XsdAnyUri--><g class="link" data-entity-1="ent0002" data-entity-2="ent0037" data-link-type="dependency" data-source-line="66" id="lnk38"><path codeLine="66" d="M1340.62,229.5594 C1523.7,253.6094 1839.1,306.4294 2092.5,407.6094 C2123.23,419.8794 2150.2889,436.9125 2171.7889,452.0025" fill="none" id="Dataset-to-XsdAnyUri" style="stroke:#404040;stroke-width:1.2;stroke-dasharray:7,7;"/><polygon fill="#404040" points="2176.7,455.4494,2171.6313,447.005,2172.6074,452.577,2167.0354,453.5531,2176.7,455.4494" style="stroke:#404040;stroke-width:1.2;"/><text fill="#000000" font-family="sans-serif" font-size="13" lengthAdjust="spacing" textLength="14.4473" x="2127.5" y="422.1045">url</text></g><?plantuml-src ZLNRRjim37ttLmZfsuO6JRUz64M0D9UYG8DsRJOCAFQWI4oYHPOoIKwM3VttqPOlSYv64nWmoUDpA8aYdN0Io8WwQi55Ay61C66O1FyEoSRjIGB978oDx5ge3JKq8NP5kTu9jIGBAYq4aO4nUZTR2RPMO2tfTQ-389CKVVyYuc53BRKX5v-liZywRxNXO0wz4wtSY_WBf7STlKMHv-WKANS8jMNwv68odeo7urpWOmBKfWOIK6u6RAN4xnH8J4Qm40hu34n2Ng-wtGy_Cp2kLJcn460GSbyRhxqyh6YIVMkToPPSE3bOPiJ62Qs265BwCELSP34gP_lDUMMBr0Dxe5f5jxZjP_Y5Ug1gcT9bnlt3yigg8Pmwc6gUaN8Fmfs2AdzyVqhdKjXLCrnzdnhf_GEr_sP44962WRAPyZCim81Y46JDjF9hju-B0MDP7Pm6RhmyBkm9LyV4Hi8vw1hsEomFU_u85PCf1twlid8OuYFryWoP0OahvGz2hKyXtieY-qwDe7C9KrzBFA-sGoUv6EU_g2p3oyi-wMHCdMDiJBO7hbBhPKETe7Byns4Tv48DJvjA4uYruksXnlB1YYWLPdYRjMb8D5rj6WV8cBZ2SQZoDQLIkFsqldwvqh6xJUq4EYOhQe_z4PtZrQ3C5SsbCrYMalbRcue7n2IXGZbymBIXDaPliK-OOyN27ediaixJhF9z0YS2hVcSmiU41sPRWim0TTgK1p74lfb_fasUJM2t9H72aBEsZi2zO6-AFbA9JxK2Hyt-pj3YD1gUjWIQm9WiKkmcQbaoF-4n39WJMwo3d3XqjF4sS37PKNi7UEHP8xZTLsC5ZDW2dnYT-D5IsstS8Iod3XpLUVYMz0mC-vW_aT1pcXxtk8d2svtEVm5pZuiwvweV5ZdN_R4rvneMaxA_bgHLKymfwnRPGbY3Ob8CYAYPV54rDvUNrSoE2Pthr9MomI3BXSF1TdE38ujcqxJVnra_67yPVQhow7Rx3N1CwW4Pa6SJhYJEfzrxI7CWtiDWd0QKVZYMfCMeV0zj0Oq9pjdeFm00?></g></svg>