<svg xmlns="http://www.w3.org/2000/svg" xmlns:xlink="http://www.w3.org/1999/xlink" contentStyleType="text/css" data-diagram-type="CLASS" height="925px" preserveAspectRatio="none" style="width:1098px;height:925px;background:#FFFFFF;" version="1.1" viewBox="0 0 1098 925" width="1098px" zoomAndPan="magnify"><?plantuml 1.2026.3?><defs/><g><g class="title" data-source-line="1"><text fill="#000000" font-family="sans-serif" font-size="14" font-weight="700" lengthAdjust="spacing" textLength="105.7998" x="492.7575" y="24.5332">TemporalExtent</text></g><!--class TemporalExtent--><g class="entity" data-qualified-name="TemporalExtent" data-source-line="16" id="ent0002"><rect fill="#FEFECE" height="131.2031" rx="2.5" ry="2.5" style="stroke:#404040;stroke-width:0.5;" width="369.8262" x="101.18" y="390.6094"/><text fill="#000000" font-family="sans-serif" font-size="30" lengthAdjust="spacing" textLength="211.7578" x="180.2142" y="426.752">TemporalExtent</text><line style="stroke:#404040;stroke-width:0.5;" x1="102.18" x2="470.0062" y1="438.3438" y2="438.3438"/><g data-visibility-modifier="PUBLIC_FIELD"><ellipse cx="112.18" cy="462.7109" fill="none" rx="3" ry="3" style="stroke:#038048;stroke-width:1;"/></g><text fill="#000000" font-family="sans-serif" font-size="30" lengthAdjust="spacing" textLength="336.8262" x="128.18" y="473.4863">startDate : XsdDate [0..1]</text><g data-visibility-modifier="PUBLIC_FIELD"><ellipse cx="112.18" cy="500.4453" fill="none" rx="3" ry="3" style="stroke:#038048;stroke-width:1;"/></g><text fill="#000000" font-family="sans-serif" font-size="30" lengthAdjust="spacing" textLength="328.5352" x="128.18" y="511.2207">endDate : XsdDate [0..1]</text></g><!--class Dataset--><g class="entity" data-qualified-name="Dataset" data-source-line="20" id="ent0003"><rect fill="#EEEEEE" height="47.7344" rx="2.5" ry="2.5" style="stroke:#404040;stroke-width:0.5;" width="109.3887" x="231.68" y="45.6094"/><text fill="#000000" font-family="sans-serif" font-size="30" lengthAdjust="spacing" textLength="103.3887" x="234.68" y="81.752">Dataset</text></g><!--class Instant--><g class="entity" data-qualified-name="Instant" data-source-line="22" id="ent0005"><rect fill="#EEEEEE" height="47.7344" rx="2.5" ry="2.5" style="stroke:#404040;stroke-width:0.5;" width="96.0586" x="108.18" y="841.1094"/><text fill="#000000" font-family="sans-serif" font-size="30" lengthAdjust="spacing" textLength="90.0586" x="111.18" y="877.252">Instant</text></g><!--class XsdDate--><g class="entity" data-qualified-name="XsdDate" data-source-line="27" id="ent0010"><rect fill="#FAE5D3" height="93.0156" rx="2.5" ry="2.5" style="stroke:#404040;stroke-width:0.5;" width="192.1426" x="339.18" y="818.6094"/><text fill="#000000" font-family="sans-serif" font-size="36" font-style="italic" lengthAdjust="spacing" textLength="190.1426" x="340.18" y="860.9805">&#171;dataType&#187;</text><text fill="#000000" font-family="sans-serif" font-size="30" lengthAdjust="spacing" textLength="115.0635" x="377.7196" y="900.0332">XsdDate</text></g><!--reverse link Dataset to TemporalExtent--><g class="link" data-entity-1="ent0003" data-entity-2="ent0002" data-link-type="composition" data-source-line="21" id="lnk4"><path codeLine="21" d="M286.18,105.7994 C286.18,163.4294 286.18,302.8494 286.18,390.2794" fill="none" id="Dataset-backto-TemporalExtent" style="stroke:#404040;stroke-width:1.2;"/><polygon fill="#404040" points="286.18,93.7994,282.18,99.7994,286.18,105.7994,290.18,99.7994,286.18,93.7994" style="stroke:#404040;stroke-width:1.2;"/><text fill="#000000" font-family="sans-serif" font-size="36" lengthAdjust="spacing" textLength="296.1563" x="287.18" y="256.9805">temporalCoverage</text><text fill="#000000" font-family="sans-serif" font-size="36" lengthAdjust="spacing" textLength="54.0352" x="229.7846" y="374.7871">0..*</text></g><!--reverse link TemporalExtent to Instant--><g class="link" data-entity-1="ent0002" data-entity-2="ent0005" data-link-type="composition" data-source-line="23" id="lnk6"><path codeLine="23" d="M150.8751,528.2653 C104.3851,559.2553 66.77,594.4694 41.18,646.6094 C6,718.3194 83.58,801.3194 127.96,840.8494" fill="none" id="TemporalExtent-backto-Instant" style="stroke:#404040;stroke-width:1.2;"/><polygon fill="#404040" points="160.86,521.6094,153.6489,521.609,150.8751,528.2653,158.0862,528.2656,160.86,521.6094" style="stroke:#404040;stroke-width:1.2;"/><text fill="#000000" font-family="sans-serif" font-size="36" lengthAdjust="spacing" textLength="218.1797" x="42.18" y="684.9805">hasBeginning</text><text fill="#000000" font-family="sans-serif" font-size="36" lengthAdjust="spacing" textLength="60.0469" x="57.9524" y="825.2306">0..1</text></g><!--reverse link TemporalExtent to Instant--><g class="link" data-entity-1="ent0002" data-entity-2="ent0005" data-link-type="composition" data-source-line="24" id="lnk7"><path codeLine="24" d="M287.1949,533.7673 C286.2849,582.2673 281.27,637.6594 262.18,693.6094 C242.5,751.3394 200.19,809.8194 175.39,841.0394" fill="none" id="TemporalExtent-backto-Instant-1" style="stroke:#404040;stroke-width:1.2;"/><polygon fill="#404040" points="287.42,521.7694,283.3081,527.6933,287.1949,533.7673,291.3067,527.8434,287.42,521.7694" style="stroke:#404040;stroke-width:1.2;"/><text fill="#000000" font-family="sans-serif" font-size="36" lengthAdjust="spacing" textLength="122.0977" x="275.18" y="684.9805">hasEnd</text><text fill="#000000" font-family="sans-serif" font-size="36" lengthAdjust="spacing" textLength="60.0469" x="184.1545" y="825.1639">0..1</text></g><!--link TemporalExtent to TemporalExtent--><g class="link" data-entity-1="ent0002" data-entity-2="ent0002" data-link-type="dependency" data-source-line="25" id="lnk8"><path codeLine="25" d="M471.3,441.7094 C483.68,445.0394 491.18,449.8394 491.18,456.1094 C491.18,462.3794 489.4741,465.6209 477.0941,468.9509" fill="none" id="TemporalExtent-to-TemporalExtent" style="stroke:#404040;stroke-width:1.2;"/><polygon fill="#404040" points="471.3,470.5094,481.0301,472.0343,476.1284,469.2106,478.9521,464.3089,471.3,470.5094" style="stroke:#404040;stroke-width:1.2;"/><text fill="#000000" font-family="sans-serif" font-size="36" lengthAdjust="spacing" textLength="274.1309" x="497.18" y="470.9805">intervalStartedBy</text><text fill="#000000" font-family="sans-serif" font-size="36" lengthAdjust="spacing" textLength="54.0352" x="478.9268" y="509.208">0..*</text></g><!--link TemporalExtent to TemporalExtent--><g class="link" data-entity-1="ent0002" data-entity-2="ent0002" data-link-type="dependency" data-source-line="26" id="lnk9"><path codeLine="26" d="M471.22,418.6894 C612.14,409.9394 777.18,422.4094 777.18,456.1094 C777.18,489.8094 618.1285,502.6512 477.2085,493.9012" fill="none" id="TemporalExtent-to-TemporalExtent-1" style="stroke:#404040;stroke-width:1.2;"/><polygon fill="#404040" points="471.22,493.5294,479.9548,498.0794,476.2104,493.8392,480.4506,490.0948,471.22,493.5294" style="stroke:#404040;stroke-width:1.2;"/><text fill="#000000" font-family="sans-serif" font-size="36" lengthAdjust="spacing" textLength="294.1348" x="783.18" y="470.9805">intervalFinishedBy</text><text fill="#000000" font-family="sans-serif" font-size="36" lengthAdjust="spacing" textLength="54.0352" x="478.8439" y="533.0552">0..*</text></g><!--link TemporalExtent to XsdDate--><g class="link" data-entity-1="ent0002" data-entity-2="ent0010" data-link-type="dependency" data-source-line="28" id="lnk11"><path codeLine="28" d="M335.22,521.6594 C359.47,556.8094 386.96,602.1094 403.18,646.6094 C423.91,703.4494 430.8862,767.2892 433.4662,812.2392" fill="none" id="TemporalExtent-to-XsdDate" style="stroke:#404040;stroke-width:1.2;stroke-dasharray:7,7;"/><polygon fill="#404040" points="433.81,818.2294,437.2877,809.015,433.5235,813.2376,429.3008,809.4734,433.81,818.2294" style="stroke:#404040;stroke-width:1.2;"/><text fill="#000000" font-family="sans-serif" font-size="36" lengthAdjust="spacing" textLength="146.0566" x="417.18" y="684.9805">startDate</text></g><?plantuml-src dL7BRi8m4BpxArRXHaKKeEqXGf5u95BFSAXKzM3YXLWuTcGRAAtuzvgycaQjLDM-h6TsPzUpbbk1iC6yK9gA-CsYj2JZ327bEXLOnOws5yWntw8sn1ouBAYcEPYCCdNcSWyxAWnscBdMwhp9U7gGQ0oC_Kc7r5GU31OmUGWwg5GCIxGBCjpHex29adRDtn6cZnqo5THfVn2esYsLK1e6zy7jEd2XD4FTHxjIhj1QpRT7YrzmGAw4LDBUTsCyeARd5GoIE8cNSJd5dR5KsnMr224y6rP6Bu7lZrzlB4hsCtTjsZcG6gpwr34CulAGvZqSZS1pTKElFqe8jWQMweIQxh7HVP9kidh-EcvrUoAD_DXhCqF8g5dWdalfLltNWbYoVkfe5FqwEfSMzOcAzSr2P8lBVueJBhd9okhwvxNJvSyRrsSpvhpSN0gC8hU_UVomclQx-NxKveVGxfLy0W00?></g></svg>