<svg xmlns="http://www.w3.org/2000/svg" xmlns:xlink="http://www.w3.org/1999/xlink" contentStyleType="text/css" data-diagram-type="CLASS" height="385px" preserveAspectRatio="none" style="width:1204px;height:385px;background:#FFFFFF;" version="1.1" viewBox="0 0 1204 385" width="1204px" zoomAndPan="magnify"><?plantuml 1.2026.3?><defs/><g><g class="title" data-source-line="1"><text fill="#000000" font-family="sans-serif" font-size="14" font-weight="700" lengthAdjust="spacing" textLength="146.6992" x="525.4229" y="24.5332">CDIFCore &#8212; overview</text></g><!--class Dataset--><g class="entity" data-qualified-name="Dataset" data-source-line="12" id="ent0002"><rect fill="#FEFECE" height="25.0938" rx="2.5" ry="2.5" style="stroke:#404040;stroke-width:0.5;" width="47.3555" x="602" y="54.5794"/><text fill="#000000" font-family="sans-serif" font-size="12" lengthAdjust="spacing" textLength="41.3555" x="605" y="72.0364">Dataset</text></g><!--class AbstractDistribution--><g class="entity" data-qualified-name="AbstractDistribution" data-source-line="13" id="ent0003"><rect fill="#FEFECE" height="25.0938" rx="2.5" ry="2.5" style="stroke:#404040;stroke-width:0.5;" width="110.0391" x="55.5" y="157.5794"/><text fill="#000000" font-family="sans-serif" font-size="12" font-style="italic" lengthAdjust="spacing" textLength="104.0391" x="58.5" y="175.0364">AbstractDistribution</text></g><!--class DataDownload--><g class="entity" data-qualified-name="DataDownload" data-source-line="14" id="ent0004"><rect fill="#FEFECE" height="25.0938" rx="2.5" ry="2.5" style="stroke:#404040;stroke-width:0.5;" width="84.7148" x="7" y="260.5794"/><text fill="#000000" font-family="sans-serif" font-size="12" lengthAdjust="spacing" textLength="78.7148" x="10" y="278.0364">DataDownload</text></g><!--class WebAPI--><g class="entity" data-qualified-name="WebAPI" data-source-line="15" id="ent0005"><rect fill="#FEFECE" height="25.0938" rx="2.5" ry="2.5" style="stroke:#404040;stroke-width:0.5;" width="50.0156" x="127.5" y="260.5794"/><text fill="#000000" font-family="sans-serif" font-size="12" lengthAdjust="spacing" textLength="44.0156" x="130.5" y="278.0364">WebAPI</text></g><!--class Agent--><g class="entity" data-qualified-name="Agent" data-source-line="16" id="ent0006"><rect fill="#FEFECE" height="25.0938" rx="2.5" ry="2.5" style="stroke:#404040;stroke-width:0.5;" width="37.3594" x="374" y="260.5794"/><text fill="#000000" font-family="sans-serif" font-size="12" font-style="italic" lengthAdjust="spacing" textLength="31.3594" x="377" y="278.0364">Agent</text></g><!--class Person--><g class="entity" data-qualified-name="Person" data-source-line="17" id="ent0007"><rect fill="#FEFECE" height="25.0938" rx="2.5" ry="2.5" style="stroke:#404040;stroke-width:0.5;" width="44.0215" x="323.5" y="346.5794"/><text fill="#000000" font-family="sans-serif" font-size="12" lengthAdjust="spacing" textLength="38.0215" x="326.5" y="364.0364">Person</text></g><!--class Organization--><g class="entity" data-qualified-name="Organization" data-source-line="18" id="ent0008"><rect fill="#FEFECE" height="25.0938" rx="2.5" ry="2.5" style="stroke:#404040;stroke-width:0.5;" width="74.0391" x="402.5" y="346.5794"/><text fill="#000000" font-family="sans-serif" font-size="12" lengthAdjust="spacing" textLength="68.0391" x="405.5" y="364.0364">Organization</text></g><!--class Contributor--><g class="entity" data-qualified-name="Contributor" data-source-line="19" id="ent0009"><rect fill="#FEFECE" height="25.0938" rx="2.5" ry="2.5" style="stroke:#404040;stroke-width:0.5;" width="65.3613" x="437" y="157.5794"/><text fill="#000000" font-family="sans-serif" font-size="12" lengthAdjust="spacing" textLength="59.3613" x="440" y="175.0364">Contributor</text></g><!--class DefinedTerm--><g class="entity" data-qualified-name="DefinedTerm" data-source-line="20" id="ent0010"><rect fill="#FEFECE" height="25.0938" rx="2.5" ry="2.5" style="stroke:#404040;stroke-width:0.5;" width="75.3574" x="537" y="157.5794"/><text fill="#000000" font-family="sans-serif" font-size="12" lengthAdjust="spacing" textLength="69.3574" x="540" y="175.0364">DefinedTerm</text></g><!--class Identifier--><g class="entity" data-qualified-name="Identifier" data-source-line="21" id="ent0011"><rect fill="#FEFECE" height="25.0938" rx="2.5" ry="2.5" style="stroke:#404040;stroke-width:0.5;" width="52.0254" x="684.5" y="54.5794"/><text fill="#000000" font-family="sans-serif" font-size="12" lengthAdjust="spacing" textLength="46.0254" x="687.5" y="72.0364">Identifier</text></g><!--class AdditionalProperty--><g class="entity" data-qualified-name="AdditionalProperty" data-source-line="22" id="ent0012"><rect fill="#FEFECE" height="25.0938" rx="2.5" ry="2.5" style="stroke:#404040;stroke-width:0.5;" width="104.0566" x="771.5" y="54.5794"/><text fill="#000000" font-family="sans-serif" font-size="12" lengthAdjust="spacing" textLength="98.0566" x="774.5" y="72.0364">AdditionalProperty</text></g><!--class Reference--><g class="entity" data-qualified-name="Reference" data-source-line="23" id="ent0013"><rect fill="#FEFECE" height="25.0938" rx="2.5" ry="2.5" style="stroke:#404040;stroke-width:0.5;" width="61.3652" x="647" y="157.5794"/><text fill="#000000" font-family="sans-serif" font-size="12" lengthAdjust="spacing" textLength="55.3652" x="650" y="175.0364">Reference</text></g><!--class MonetaryGrant--><g class="entity" data-qualified-name="MonetaryGrant" data-source-line="24" id="ent0014"><rect fill="#FEFECE" height="25.0938" rx="2.5" ry="2.5" style="stroke:#404040;stroke-width:0.5;" width="86.0332" x="743.5" y="157.5794"/><text fill="#000000" font-family="sans-serif" font-size="12" lengthAdjust="spacing" textLength="80.0332" x="746.5" y="175.0364">MonetaryGrant</text></g><!--class ProvActivity--><g class="entity" data-qualified-name="ProvActivity" data-source-line="25" id="ent0015"><rect fill="#FEFECE" height="25.0938" rx="2.5" ry="2.5" style="stroke:#404040;stroke-width:0.5;" width="68.6777" x="865" y="157.5794"/><text fill="#000000" font-family="sans-serif" font-size="12" lengthAdjust="spacing" textLength="62.6777" x="868" y="175.0364">ProvActivity</text></g><!--class DerivedFrom--><g class="entity" data-qualified-name="DerivedFrom" data-source-line="26" id="ent0016"><rect fill="#FEFECE" height="25.0938" rx="2.5" ry="2.5" style="stroke:#404040;stroke-width:0.5;" width="75.3457" x="969" y="157.5794"/><text fill="#000000" font-family="sans-serif" font-size="12" lengthAdjust="spacing" textLength="69.3457" x="972" y="175.0364">DerivedFrom</text></g><!--class CatalogRecord--><g class="entity" data-qualified-name="CatalogRecord" data-source-line="27" id="ent0017"><rect fill="#FEFECE" height="25.0938" rx="2.5" ry="2.5" style="stroke:#404040;stroke-width:0.5;" width="86.0449" x="1103.5" y="157.5794"/><text fill="#000000" font-family="sans-serif" font-size="12" lengthAdjust="spacing" textLength="80.0449" x="1106.5" y="175.0364">CatalogRecord</text></g><!--reverse link AbstractDistribution to DataDownload--><g class="link" data-entity-1="ent0003" data-entity-2="ent0004" data-link-type="extension" data-source-line="28" id="lnk18"><path codeLine="28" d="M94.1935,198.0768 C82.4935,217.4468 68.38,240.8194 56.6,260.3194" fill="none" id="AbstractDistribution-backto-DataDownload" style="stroke:#404040;stroke-width:1.2;"/><polygon fill="none" points="103.5,182.6694,89.0577,194.9746,99.3293,201.179,103.5,182.6694" style="stroke:#404040;stroke-width:1.2;"/></g><!--reverse link AbstractDistribution to WebAPI--><g class="link" data-entity-1="ent0003" data-entity-2="ent0005" data-link-type="extension" data-source-line="29" id="lnk19"><path codeLine="29" d="M122.2352,199.2881 C130.2952,218.6581 139.5,240.8194 147.61,260.3194" fill="none" id="AbstractDistribution-backto-WebAPI" style="stroke:#404040;stroke-width:1.2;"/><polygon fill="none" points="115.32,182.6694,116.6956,201.5931,127.7747,196.983,115.32,182.6694" style="stroke:#404040;stroke-width:1.2;"/></g><!--reverse link Agent to Person--><g class="link" data-entity-1="ent0006" data-entity-2="ent0007" data-link-type="extension" data-source-line="30" id="lnk20"><path codeLine="30" d="M377.1786,301.472 C368.2086,317.522 360.93,330.4994 351.98,346.4994" fill="none" id="Agent-backto-Person" style="stroke:#404040;stroke-width:1.2;"/><polygon fill="none" points="385.96,285.7594,371.941,298.5448,382.4161,304.3991,385.96,285.7594" style="stroke:#404040;stroke-width:1.2;"/></g><!--reverse link Agent to Organization--><g class="link" data-entity-1="ent0006" data-entity-2="ent0008" data-link-type="extension" data-source-line="31" id="lnk21"><path codeLine="31" d="M407.8214,301.472 C416.7914,317.522 424.07,330.4994 433.02,346.4994" fill="none" id="Agent-backto-Organization" style="stroke:#404040;stroke-width:1.2;"/><polygon fill="none" points="399.04,285.7594,402.5839,304.3991,413.059,298.5448,399.04,285.7594" style="stroke:#404040;stroke-width:1.2;"/></g><!--link Dataset to AbstractDistribution--><g class="link" data-entity-1="ent0002" data-entity-2="ent0003" data-link-type="dependency" data-source-line="32" id="lnk22"><path codeLine="32" d="M601.69,68.8694 C510.19,72.0594 184.37,85.0694 145.5,109.5794 C128.27,120.4494 120.3727,137.4224 115.7427,151.4324" fill="none" id="Dataset-to-AbstractDistribution" style="stroke:#404040;stroke-width:1.2;"/><polygon fill="#404040" points="113.86,157.1294,120.4821,149.8391,115.4289,152.3819,112.8861,147.3288,113.86,157.1294" style="stroke:#404040;stroke-width:1.2;"/><text fill="#000000" font-family="sans-serif" font-size="13" lengthAdjust="spacing" textLength="62.8672" x="146.5" y="124.0745">distribution</text><text fill="#000000" font-family="sans-serif" font-size="13" lengthAdjust="spacing" textLength="19.5127" x="92.6094" y="146.6865">0..*</text></g><!--link Dataset to Agent--><g class="link" data-entity-1="ent0002" data-entity-2="ent0006" data-link-type="dependency" data-source-line="33" id="lnk23"><path codeLine="33" d="M601.91,69.6494 C539.62,74.0494 372.08,87.6394 321.5,109.5794 C290.49,123.0294 277.02,127.0494 262.5,157.5794 C236.47,212.3094 326.2843,249.8736 368.1143,264.2136" fill="none" id="Dataset-to-Agent" style="stroke:#404040;stroke-width:1.2;"/><polygon fill="#404040" points="373.79,266.1594,366.5735,259.4569,369.0602,264.5379,363.9792,267.0246,373.79,266.1594" style="stroke:#404040;stroke-width:1.2;"/><text fill="#000000" font-family="sans-serif" font-size="13" lengthAdjust="spacing" textLength="40.46" x="263.5" y="175.5745">creator</text><text fill="#000000" font-family="sans-serif" font-size="13" lengthAdjust="spacing" textLength="19.5127" x="346.5258" y="259.3096">0..*</text></g><!--link Dataset to Agent--><g class="link" data-entity-1="ent0002" data-entity-2="ent0006" data-link-type="dependency" data-source-line="35" id="lnk25"><path codeLine="35" d="M601.62,67.6394 C548,68.1394 418.57,77.9194 365.5,157.5794 C343.76,190.2094 366.5383,233.2764 380.9183,255.2864" fill="none" id="Dataset-to-Agent-1" style="stroke:#404040;stroke-width:1.2;"/><polygon fill="#404040" points="384.2,260.3094,382.6261,250.5871,381.4652,256.1236,375.9288,254.9627,384.2,260.3094" style="stroke:#404040;stroke-width:1.2;"/><text fill="#000000" font-family="sans-serif" font-size="13" lengthAdjust="spacing" textLength="52.7554" x="366.5" y="175.5745">publisher</text><text fill="#000000" font-family="sans-serif" font-size="13" lengthAdjust="spacing" textLength="21.6836" x="385.1301" y="249.6771">0..1</text></g><!--link Dataset to Contributor--><g class="link" data-entity-1="ent0002" data-entity-2="ent0009" data-link-type="dependency" data-source-line="34" id="lnk24"><path codeLine="34" d="M601.72,70.8994 C574.94,75.1594 531.41,85.4794 502.5,109.5794 C487.26,122.2894 479.7972,138.278 475.0972,151.668" fill="none" id="Dataset-to-Contributor" style="stroke:#404040;stroke-width:1.2;"/><polygon fill="#404040" points="473.11,157.3294,479.865,150.1621,474.766,152.6116,472.3165,147.5125,473.11,157.3294" style="stroke:#404040;stroke-width:1.2;"/><text fill="#000000" font-family="sans-serif" font-size="13" lengthAdjust="spacing" textLength="61.4199" x="503.5" y="124.0745">contributor</text><text fill="#000000" font-family="sans-serif" font-size="13" lengthAdjust="spacing" textLength="19.5127" x="451.8206" y="146.7049">0..*</text></g><!--link Dataset to MonetaryGrant--><g class="link" data-entity-1="ent0002" data-entity-2="ent0014" data-link-type="dependency" data-source-line="36" id="lnk26"><path codeLine="36" d="M649.13,79.1394 C665.35,87.0094 687.16,98.1794 705.5,109.5794 C729.81,124.6794 751.5057,141.1352 767.3457,153.6752" fill="none" id="Dataset-to-MonetaryGrant" style="stroke:#404040;stroke-width:1.2;"/><polygon fill="#404040" points="772.05,157.3994,767.4764,148.6769,768.1298,154.2959,762.5108,154.9492,772.05,157.3994" style="stroke:#404040;stroke-width:1.2;"/><text fill="#000000" font-family="sans-serif" font-size="13" lengthAdjust="spacing" textLength="42.6499" x="732.5" y="124.0745">funding</text><text fill="#000000" font-family="sans-serif" font-size="13" lengthAdjust="spacing" textLength="19.5127" x="743.7141" y="146.8025">0..*</text></g><!--link Dataset to ProvActivity--><g class="link" data-entity-1="ent0002" data-entity-2="ent0015" data-link-type="dependency" data-source-line="37" id="lnk27"><path codeLine="37" d="M649.32,74.8594 C654.95,76.4294 660.93,78.0894 666.5,79.5794 C718.35,93.4994 733.31,90.5494 783.5,109.5794 C818.84,122.9794 852.2563,141.1979 874.8163,154.3479" fill="none" id="Dataset-to-ProvActivity" style="stroke:#404040;stroke-width:1.2;"/><polygon fill="#404040" points="880,157.3694,874.2388,149.3813,875.6803,154.8514,870.2101,156.2929,880,157.3694" style="stroke:#404040;stroke-width:1.2;"/><text fill="#000000" font-family="sans-serif" font-size="13" lengthAdjust="spacing" textLength="99.7217" x="824.5" y="124.0745">wasGeneratedBy</text><text fill="#000000" font-family="sans-serif" font-size="13" lengthAdjust="spacing" textLength="19.5127" x="849.7456" y="146.7607">0..*</text></g><!--link Dataset to DerivedFrom--><g class="link" data-entity-1="ent0002" data-entity-2="ent0016" data-link-type="dependency" data-source-line="38" id="lnk28"><path codeLine="38" d="M649.19,75.4194 C654.82,76.9794 660.84,78.4694 666.5,79.5794 C783.27,102.3894 822.68,63.8294 932.5,109.5794 C958.37,120.3594 978.3821,138.705 991.6921,152.745" fill="none" id="Dataset-to-DerivedFrom" style="stroke:#404040;stroke-width:1.2;"/><polygon fill="#404040" points="995.82,157.0994,992.531,147.8159,992.3801,153.4708,986.7252,153.3198,995.82,157.0994" style="stroke:#404040;stroke-width:1.2;"/><text fill="#000000" font-family="sans-serif" font-size="13" lengthAdjust="spacing" textLength="98.2427" x="963.5" y="124.0745">wasDerivedFrom</text><text fill="#000000" font-family="sans-serif" font-size="13" lengthAdjust="spacing" textLength="19.5127" x="969.1582" y="146.645">0..*</text></g><!--link Dataset to CatalogRecord--><g class="link" data-entity-1="ent0002" data-entity-2="ent0017" data-link-type="dependency" data-source-line="39" id="lnk29"><path codeLine="39" d="M649.16,75.5794 C654.8,77.1294 660.82,78.5794 666.5,79.5794 C843.84,110.7094 902.58,44.6094 1070.5,109.5794 C1097.38,119.9794 1118.3018,138.9244 1131.8518,153.0844" fill="none" id="Dataset-to-CatalogRecord" style="stroke:#404040;stroke-width:1.2;"/><polygon fill="#404040" points="1136,157.4194,1132.6676,148.1514,1132.5431,153.8069,1126.8876,153.6824,1136,157.4194" style="stroke:#404040;stroke-width:1.2;"/><text fill="#000000" font-family="sans-serif" font-size="13" lengthAdjust="spacing" textLength="54.9136" x="1100.5" y="124.0745">subjectOf</text><text fill="#000000" font-family="sans-serif" font-size="13" lengthAdjust="spacing" textLength="7.23" x="1123.5239" y="146.8304">1</text></g><!--link Dataset to DefinedTerm--><g class="link" data-entity-1="ent0002" data-entity-2="ent0010" data-link-type="dependency" data-source-line="40" id="lnk30"><path codeLine="40" d="M606.13,79.7994 C596.04,87.0294 584.56,97.2694 578.5,109.5794 C571,124.8094 570.8493,138.9816 572.1493,151.4816" fill="none" id="Dataset-to-DefinedTerm" style="stroke:#404040;stroke-width:1.2;"/><polygon fill="#404040" points="572.77,157.4494,575.8176,148.0839,572.2528,152.4762,567.8605,148.9114,572.77,157.4494" style="stroke:#404040;stroke-width:1.2;"/><text fill="#000000" font-family="sans-serif" font-size="13" lengthAdjust="spacing" textLength="54.9072" x="579.5" y="124.0745">keywords</text><text fill="#000000" font-family="sans-serif" font-size="13" lengthAdjust="spacing" textLength="19.5127" x="549.1697" y="146.4878">0..*</text></g><!--link Dataset to Reference--><g class="link" data-entity-1="ent0002" data-entity-2="ent0013" data-link-type="dependency" data-source-line="41" id="lnk31"><path codeLine="41" d="M631.47,79.6694 C641.44,99.0394 658.6656,132.4838 668.6956,151.9838" fill="none" id="Dataset-to-Reference" style="stroke:#404040;stroke-width:1.2;"/><polygon fill="#404040" points="671.44,157.3194,670.8804,147.4864,669.153,152.8731,663.7664,151.1456,671.44,157.3194" style="stroke:#404040;stroke-width:1.2;"/><text fill="#000000" font-family="sans-serif" font-size="13" lengthAdjust="spacing" textLength="40.4663" x="656.5" y="124.0745">license</text><text fill="#000000" font-family="sans-serif" font-size="13" lengthAdjust="spacing" textLength="19.5127" x="646.3423" y="146.691">0..*</text></g><!--link Contributor to Agent--><g class="link" data-entity-1="ent0009" data-entity-2="ent0006" data-link-type="dependency" data-source-line="42" id="lnk32"><path codeLine="42" d="M460.67,182.6694 C445.89,202.0394 419.9667,236.0471 405.1067,255.5471" fill="none" id="Contributor-to-Agent" style="stroke:#404040;stroke-width:1.2;"/><polygon fill="#404040" points="401.47,260.3194,410.1066,255.5855,404.5006,256.3425,403.7436,250.7365,401.47,260.3194" style="stroke:#404040;stroke-width:1.2;"/><text fill="#000000" font-family="sans-serif" font-size="13" lengthAdjust="spacing" textLength="32.5317" x="437.5" y="227.0745">agent</text><text fill="#000000" font-family="sans-serif" font-size="13" lengthAdjust="spacing" textLength="21.6836" x="409.2001" y="249.691">0..1</text></g><!--link MonetaryGrant to Agent--><g class="link" data-entity-1="ent0014" data-entity-2="ent0006" data-link-type="dependency" data-source-line="43" id="lnk33"><path codeLine="43" d="M743.21,182.1794 C657.85,204.0594 476.752,250.4791 417.042,265.7891" fill="none" id="MonetaryGrant-to-Agent" style="stroke:#404040;stroke-width:1.2;"/><polygon fill="#404040" points="411.23,267.2794,420.9415,268.9187,416.0733,266.0375,418.9545,261.1694,411.23,267.2794" style="stroke:#404040;stroke-width:1.2;"/><text fill="#000000" font-family="sans-serif" font-size="13" lengthAdjust="spacing" textLength="36.8608" x="614.5" y="227.0745">funder</text><text fill="#000000" font-family="sans-serif" font-size="13" lengthAdjust="spacing" textLength="19.5127" x="419.1912" y="281.4295">0..*</text></g><?plantuml-src VLJBRjim4BphAnREhO2DEEX9A0euVWG-537I03rJvCfcBPF6ahRWj0Nw4Vt2VabfKPOeYIbq47SukzmTZcIbBH3cY_LghWdXx-y_eCz8PubbifC2WKlY1Ver7exs0WSyP4WcCNkfZepO0SoE2LrAjOMS5GQ3dHcHBbztakyL6WFJoKEmoGlci1y9UDfS5vhWxkFzzN7WeoQ1r4TNMjclyWrX-f3yIX9VOxHWbXcq8s06wZNShPQhvNoPiCnOOjpMvurcTRoGxYspavLQLOcnZQPASD12bwhGJ3IdtO0--Hjciysweldb-prjKVdkgrM_qCRfNJVfbtt2CssPac-icIK4-kIvax2QJrF53UB1k9XBXU8LwU2dRUC-TIrSupANw8ksOPyu4q9UssB5XlGHoLxyu0Eud_Y2EH8gZXM_YVgqBrgXPNHv8bPhsa46sf8-pxYLPrat4W93FKYUKQn8t_Heue7ApXY5thuWTpxsEeT8Gu-wxjFFyRXZhV_GlBKIRvmAyHu9aT0EoUq36Oy_m-X-ClamYbi_1H64qRJgX1Gu8NFkYL52SpbY6mt8qxRUyPGLqkmmMh5xcoda9oNSloT6xLnb2YKpJwYGc4NnU8abXFTPyGEWotVTTkyp1NFAlYEtptcySllbfB37I-cIJ8pP6Zk5Gd9KxeyQgXZHYrtVILUOo3LTbNAQ_WC0?></g></svg>