<svg xmlns="http://www.w3.org/2000/svg" xmlns:xlink="http://www.w3.org/1999/xlink" contentStyleType="text/css" data-diagram-type="CLASS" height="376px" preserveAspectRatio="none" style="width:1496px;height:376px;background:#FFFFFF;" version="1.1" viewBox="0 0 1496 376" width="1496px" zoomAndPan="magnify"><?plantuml 1.2026.3?><defs/><g><g class="title" data-source-line="1"><text fill="#000000" font-family="sans-serif" font-size="14" font-weight="700" lengthAdjust="spacing" textLength="146.6992" x="671.4229" y="24.5332">CDIFCore &#8212; overview</text></g><!--class Dataset--><g class="entity" data-qualified-name="Dataset" data-source-line="12" id="ent0002"><rect fill="#FEFECE" height="25.0938" rx="2.5" ry="2.5" style="stroke:#404040;stroke-width:0.5;" width="47.3555" x="801" y="45.6094"/><text fill="#000000" font-family="sans-serif" font-size="12" lengthAdjust="spacing" textLength="41.3555" x="804" y="63.0664">Dataset</text></g><!--class AbstractDistribution--><g class="entity" data-qualified-name="AbstractDistribution" data-source-line="13" id="ent0003"><rect fill="#FEFECE" height="25.0938" rx="2.5" ry="2.5" style="stroke:#404040;stroke-width:0.5;" width="110.0391" x="55.5" y="148.6094"/><text fill="#000000" font-family="sans-serif" font-size="12" font-style="italic" lengthAdjust="spacing" textLength="104.0391" x="58.5" y="166.0664">AbstractDistribution</text></g><!--class DataDownload--><g class="entity" data-qualified-name="DataDownload" data-source-line="14" id="ent0004"><rect fill="#FEFECE" height="25.0938" rx="2.5" ry="2.5" style="stroke:#404040;stroke-width:0.5;" width="84.7148" x="7" y="251.6094"/><text fill="#000000" font-family="sans-serif" font-size="12" lengthAdjust="spacing" textLength="78.7148" x="10" y="269.0664">DataDownload</text></g><!--class WebAPI--><g class="entity" data-qualified-name="WebAPI" data-source-line="15" id="ent0005"><rect fill="#FEFECE" height="25.0938" rx="2.5" ry="2.5" style="stroke:#404040;stroke-width:0.5;" width="50.0156" x="127.5" y="251.6094"/><text fill="#000000" font-family="sans-serif" font-size="12" lengthAdjust="spacing" textLength="44.0156" x="130.5" y="269.0664">WebAPI</text></g><!--class Agent--><g class="entity" data-qualified-name="Agent" data-source-line="16" id="ent0006"><rect fill="#FEFECE" height="25.0938" rx="2.5" ry="2.5" style="stroke:#404040;stroke-width:0.5;" width="37.3594" x="523" y="251.6094"/><text fill="#000000" font-family="sans-serif" font-size="12" font-style="italic" lengthAdjust="spacing" textLength="31.3594" x="526" y="269.0664">Agent</text></g><!--class Person--><g class="entity" data-qualified-name="Person" data-source-line="17" id="ent0007"><rect fill="#FEFECE" height="25.0938" rx="2.5" ry="2.5" style="stroke:#404040;stroke-width:0.5;" width="44.0215" x="472.5" y="337.6094"/><text fill="#000000" font-family="sans-serif" font-size="12" lengthAdjust="spacing" textLength="38.0215" x="475.5" y="355.0664">Person</text></g><!--class Organization--><g class="entity" data-qualified-name="Organization" data-source-line="18" id="ent0008"><rect fill="#FEFECE" height="25.0938" rx="2.5" ry="2.5" style="stroke:#404040;stroke-width:0.5;" width="74.0391" x="551.5" y="337.6094"/><text fill="#000000" font-family="sans-serif" font-size="12" lengthAdjust="spacing" textLength="68.0391" x="554.5" y="355.0664">Organization</text></g><!--class Contributor--><g class="entity" data-qualified-name="Contributor" data-source-line="19" id="ent0009"><rect fill="#FEFECE" height="25.0938" rx="2.5" ry="2.5" style="stroke:#404040;stroke-width:0.5;" width="65.3613" x="687" y="148.6094"/><text fill="#000000" font-family="sans-serif" font-size="12" lengthAdjust="spacing" textLength="59.3613" x="690" y="166.0664">Contributor</text></g><!--class DefinedTerm--><g class="entity" data-qualified-name="DefinedTerm" data-source-line="20" id="ent0010"><rect fill="#FEFECE" height="25.0938" rx="2.5" ry="2.5" style="stroke:#404040;stroke-width:0.5;" width="75.3574" x="787" y="148.6094"/><text fill="#000000" font-family="sans-serif" font-size="12" lengthAdjust="spacing" textLength="69.3574" x="790" y="166.0664">DefinedTerm</text></g><!--class Identifier--><g class="entity" data-qualified-name="Identifier" data-source-line="21" id="ent0011"><rect fill="#FEFECE" height="25.0938" rx="2.5" ry="2.5" style="stroke:#404040;stroke-width:0.5;" width="52.0254" x="883.5" y="45.6094"/><text fill="#000000" font-family="sans-serif" font-size="12" lengthAdjust="spacing" textLength="46.0254" x="886.5" y="63.0664">Identifier</text></g><!--class AdditionalProperty--><g class="entity" data-qualified-name="AdditionalProperty" data-source-line="22" id="ent0012"><rect fill="#FEFECE" height="25.0938" rx="2.5" ry="2.5" style="stroke:#404040;stroke-width:0.5;" width="104.0566" x="970.5" y="45.6094"/><text fill="#000000" font-family="sans-serif" font-size="12" lengthAdjust="spacing" textLength="98.0566" x="973.5" y="63.0664">AdditionalProperty</text></g><!--class Reference--><g class="entity" data-qualified-name="Reference" data-source-line="23" id="ent0013"><rect fill="#FEFECE" height="25.0938" rx="2.5" ry="2.5" style="stroke:#404040;stroke-width:0.5;" width="61.3652" x="897" y="148.6094"/><text fill="#000000" font-family="sans-serif" font-size="12" lengthAdjust="spacing" textLength="55.3652" x="900" y="166.0664">Reference</text></g><!--class MonetaryGrant--><g class="entity" data-qualified-name="MonetaryGrant" data-source-line="24" id="ent0014"><rect fill="#FEFECE" height="25.0938" rx="2.5" ry="2.5" style="stroke:#404040;stroke-width:0.5;" width="86.0332" x="993.5" y="148.6094"/><text fill="#000000" font-family="sans-serif" font-size="12" lengthAdjust="spacing" textLength="80.0332" x="996.5" y="166.0664">MonetaryGrant</text></g><!--class ProvActivity--><g class="entity" data-qualified-name="ProvActivity" data-source-line="25" id="ent0015"><rect fill="#FEFECE" height="25.0938" rx="2.5" ry="2.5" style="stroke:#404040;stroke-width:0.5;" width="68.6777" x="1115" y="148.6094"/><text fill="#000000" font-family="sans-serif" font-size="12" lengthAdjust="spacing" textLength="62.6777" x="1118" y="166.0664">ProvActivity</text></g><!--class DerivedFrom--><g class="entity" data-qualified-name="DerivedFrom" data-source-line="26" id="ent0016"><rect fill="#FEFECE" height="25.0938" rx="2.5" ry="2.5" style="stroke:#404040;stroke-width:0.5;" width="75.3457" x="1219" y="148.6094"/><text fill="#000000" font-family="sans-serif" font-size="12" lengthAdjust="spacing" textLength="69.3457" x="1222" y="166.0664">DerivedFrom</text></g><!--class CatalogRecord--><g class="entity" data-qualified-name="CatalogRecord" data-source-line="27" id="ent0017"><rect fill="#FEFECE" height="25.0938" rx="2.5" ry="2.5" style="stroke:#404040;stroke-width:0.5;" width="86.0449" x="1395.5" y="148.6094"/><text fill="#000000" font-family="sans-serif" font-size="12" lengthAdjust="spacing" textLength="80.0449" x="1398.5" y="166.0664">CatalogRecord</text></g><!--reverse link AbstractDistribution to DataDownload--><g class="link" data-entity-1="ent0003" data-entity-2="ent0004" data-link-type="extension" data-source-line="28" id="lnk18"><path codeLine="28" d="M94.1935,189.1068 C82.4935,208.4768 68.38,231.8494 56.6,251.3494" fill="none" id="AbstractDistribution-backto-DataDownload" style="stroke:#404040;stroke-width:1.2;"/><polygon fill="none" points="103.5,173.6994,89.0577,186.0046,99.3293,192.209,103.5,173.6994" style="stroke:#404040;stroke-width:1.2;"/></g><!--reverse link AbstractDistribution to WebAPI--><g class="link" data-entity-1="ent0003" data-entity-2="ent0005" data-link-type="extension" data-source-line="29" id="lnk19"><path codeLine="29" d="M122.2352,190.3181 C130.2952,209.6881 139.5,231.8494 147.61,251.3494" fill="none" id="AbstractDistribution-backto-WebAPI" style="stroke:#404040;stroke-width:1.2;"/><polygon fill="none" points="115.32,173.6994,116.6956,192.6231,127.7747,188.013,115.32,173.6994" style="stroke:#404040;stroke-width:1.2;"/></g><!--reverse link Agent to Person--><g class="link" data-entity-1="ent0006" data-entity-2="ent0007" data-link-type="extension" data-source-line="30" id="lnk20"><path codeLine="30" d="M526.1786,292.502 C517.2086,308.552 509.93,321.5294 500.98,337.5294" fill="none" id="Agent-backto-Person" style="stroke:#404040;stroke-width:1.2;"/><polygon fill="none" points="534.96,276.7894,520.941,289.5748,531.4161,295.4291,534.96,276.7894" style="stroke:#404040;stroke-width:1.2;"/></g><!--reverse link Agent to Organization--><g class="link" data-entity-1="ent0006" data-entity-2="ent0008" data-link-type="extension" data-source-line="31" id="lnk21"><path codeLine="31" d="M556.8214,292.502 C565.7914,308.552 573.07,321.5294 582.02,337.5294" fill="none" id="Agent-backto-Organization" style="stroke:#404040;stroke-width:1.2;"/><polygon fill="none" points="548.04,276.7894,551.5839,295.4291,562.059,289.5748,548.04,276.7894" style="stroke:#404040;stroke-width:1.2;"/></g><!--link Dataset to Agent--><g class="link" data-entity-1="ent0002" data-entity-2="ent0006" data-link-type="dependency" data-source-line="32" id="lnk22"><path codeLine="32" d="M800.92,59.7094 C716.31,62.0994 428.5,72.1794 341.5,100.6094 C302.45,113.3694 282.64,112.7994 262.5,148.6094 C206.15,248.7794 445.5514,261.2186 516.6714,262.7686" fill="none" id="Dataset-to-Agent" style="stroke:#404040;stroke-width:1.2;"/><polygon fill="#404040" points="522.67,262.8994,513.7593,258.7042,517.6712,262.7904,513.585,266.7023,522.67,262.8994" style="stroke:#404040;stroke-width:1.2;"/><text fill="#000000" font-family="sans-serif" font-size="13" lengthAdjust="spacing" textLength="60.6963" x="263.5" y="166.6045">maintainer</text><text fill="#000000" font-family="sans-serif" font-size="13" lengthAdjust="spacing" textLength="19.5127" x="495.3706" y="257.7269">0..*</text></g><!--link Dataset to Agent--><g class="link" data-entity-1="ent0002" data-entity-2="ent0006" data-link-type="dependency" data-source-line="33" id="lnk23"><path codeLine="33" d="M800.94,60.1994 C730.46,63.6994 522.27,75.9294 459.5,100.6094 C426.08,113.7494 410.68,116.5494 394.5,148.6094 C364.62,207.8094 471.0779,244.017 516.9779,256.737" fill="none" id="Dataset-to-Agent-1" style="stroke:#404040;stroke-width:1.2;"/><polygon fill="#404040" points="522.76,258.3394,515.1551,252.0811,517.9416,257.0041,513.0186,259.7906,522.76,258.3394" style="stroke:#404040;stroke-width:1.2;"/><text fill="#000000" font-family="sans-serif" font-size="13" lengthAdjust="spacing" textLength="46.9663" x="395.5" y="166.6045">provider</text><text fill="#000000" font-family="sans-serif" font-size="13" lengthAdjust="spacing" textLength="19.5127" x="495.487" y="272.5274">0..*</text></g><!--link Dataset to Agent--><g class="link" data-entity-1="ent0002" data-entity-2="ent0006" data-link-type="dependency" data-source-line="35" id="lnk25"><path codeLine="35" d="M800.67,58.9994 C754.4,59.6494 650.04,65.2694 571.5,100.6094 C540.67,114.4794 527.02,118.0794 512.5,148.6094 C495.68,183.9794 516.8832,225.2446 530.3732,246.4846" fill="none" id="Dataset-to-Agent-2" style="stroke:#404040;stroke-width:1.2;"/><polygon fill="#404040" points="533.59,251.5494,532.1414,241.8076,530.9094,247.3287,525.3883,246.0967,533.59,251.5494" style="stroke:#404040;stroke-width:1.2;"/><text fill="#000000" font-family="sans-serif" font-size="13" lengthAdjust="spacing" textLength="40.46" x="513.5" y="166.6045">creator</text><text fill="#000000" font-family="sans-serif" font-size="13" lengthAdjust="spacing" textLength="19.5127" x="534.2775" y="240.6167">0..*</text></g><!--link Dataset to Agent--><g class="link" data-entity-1="ent0002" data-entity-2="ent0006" data-link-type="dependency" data-source-line="37" id="lnk27"><path codeLine="37" d="M800.76,64.4094 C759.26,74.6494 672.52,100.4994 615.5,148.6094 C580.4,178.2194 558.3682,223.1965 548.6082,245.9165" fill="none" id="Dataset-to-Agent-3" style="stroke:#404040;stroke-width:1.2;"/><polygon fill="#404040" points="546.24,251.4294,553.4675,244.7389,548.2135,246.8353,546.1171,241.5813,546.24,251.4294" style="stroke:#404040;stroke-width:1.2;"/><text fill="#000000" font-family="sans-serif" font-size="13" lengthAdjust="spacing" textLength="52.7554" x="616.5" y="166.6045">publisher</text><text fill="#000000" font-family="sans-serif" font-size="13" lengthAdjust="spacing" textLength="21.6836" x="552.3046" y="240.8325">0..1</text></g><!--link Dataset to AbstractDistribution--><g class="link" data-entity-1="ent0002" data-entity-2="ent0003" data-link-type="dependency" data-source-line="34" id="lnk24"><path codeLine="34" d="M800.68,59.2494 C686.94,60.0994 202.32,65.7694 145.5,100.6094 C127.93,111.3894 120.005,128.8269 115.495,142.8669" fill="none" id="Dataset-to-AbstractDistribution" style="stroke:#404040;stroke-width:1.2;"/><polygon fill="#404040" points="113.66,148.5794,120.2208,141.2339,115.1892,143.819,112.6042,138.7873,113.66,148.5794" style="stroke:#404040;stroke-width:1.2;"/><text fill="#000000" font-family="sans-serif" font-size="13" lengthAdjust="spacing" textLength="62.8672" x="146.5" y="115.1045">distribution</text><text fill="#000000" font-family="sans-serif" font-size="13" lengthAdjust="spacing" textLength="19.5127" x="92.1424" y="137.659">0..*</text></g><!--link Dataset to Contributor--><g class="link" data-entity-1="ent0002" data-entity-2="ent0009" data-link-type="dependency" data-source-line="36" id="lnk26"><path codeLine="36" d="M801,68.9794 C786.07,76.1194 767.06,86.9094 753.5,100.6094 C739.6,114.6394 731.7547,129.968 726.3247,142.888" fill="none" id="Dataset-to-Contributor" style="stroke:#404040;stroke-width:1.2;"/><polygon fill="#404040" points="724,148.4194,731.1746,141.6722,725.9373,143.8099,723.7995,138.5726,724,148.4194" style="stroke:#404040;stroke-width:1.2;"/><text fill="#000000" font-family="sans-serif" font-size="13" lengthAdjust="spacing" textLength="61.4199" x="754.5" y="115.1045">contributor</text><text fill="#000000" font-family="sans-serif" font-size="13" lengthAdjust="spacing" textLength="19.5127" x="703.0611" y="137.8186">0..*</text></g><!--link Dataset to MonetaryGrant--><g class="link" data-entity-1="ent0002" data-entity-2="ent0014" data-link-type="dependency" data-source-line="38" id="lnk28"><path codeLine="38" d="M848.19,65.7694 C880.05,74.8994 934.85,91.2194 953.5,100.6094 C980.1,114.0094 1002.9279,131.5996 1018.6479,144.7496" fill="none" id="Dataset-to-MonetaryGrant" style="stroke:#404040;stroke-width:1.2;"/><polygon fill="#404040" points="1023.25,148.5994,1018.9133,139.7567,1019.4149,145.3913,1013.7803,145.8928,1023.25,148.5994" style="stroke:#404040;stroke-width:1.2;"/><text fill="#000000" font-family="sans-serif" font-size="13" lengthAdjust="spacing" textLength="42.6499" x="983.5" y="115.1045">funding</text><text fill="#000000" font-family="sans-serif" font-size="13" lengthAdjust="spacing" textLength="19.5127" x="994.9645" y="137.6873">0..*</text></g><!--link Dataset to ProvActivity--><g class="link" data-entity-1="ent0002" data-entity-2="ent0015" data-link-type="dependency" data-source-line="39" id="lnk29"><path codeLine="39" d="M848.25,66.1994 C853.88,67.7594 859.88,69.3294 865.5,70.6094 C939.87,87.5994 962.25,76.1394 1034.5,100.6094 C1070.48,112.7994 1103.9582,131.6778 1126.0382,145.2478" fill="none" id="Dataset-to-ProvActivity" style="stroke:#404040;stroke-width:1.2;"/><polygon fill="#404040" points="1131.15,148.3894,1125.5767,140.2691,1126.8902,145.7714,1121.3879,147.0848,1131.15,148.3894" style="stroke:#404040;stroke-width:1.2;"/><text fill="#000000" font-family="sans-serif" font-size="13" lengthAdjust="spacing" textLength="99.7217" x="1078.5" y="115.1045">wasGeneratedBy</text><text fill="#000000" font-family="sans-serif" font-size="13" lengthAdjust="spacing" textLength="19.5127" x="1101.3484" y="137.7767">0..*</text></g><!--link Dataset to DerivedFrom--><g class="link" data-entity-1="ent0002" data-entity-2="ent0016" data-link-type="dependency" data-source-line="40" id="lnk30"><path codeLine="40" d="M848.18,66.5294 C853.81,68.0794 859.83,69.5594 865.5,70.6094 C1006.39,96.7294 1054.46,44.9594 1186.5,100.6094 C1211.78,111.2594 1230.7408,129.9423 1243.0508,144.0223" fill="none" id="Dataset-to-DerivedFrom" style="stroke:#404040;stroke-width:1.2;"/><polygon fill="#404040" points="1247,148.5394,1244.0876,139.131,1243.709,144.7752,1238.0648,144.3966,1247,148.5394" style="stroke:#404040;stroke-width:1.2;"/><text fill="#000000" font-family="sans-serif" font-size="13" lengthAdjust="spacing" textLength="98.2427" x="1215.5" y="115.1045">wasDerivedFrom</text><text fill="#000000" font-family="sans-serif" font-size="13" lengthAdjust="spacing" textLength="19.5127" x="1220.1969" y="137.6025">0..*</text></g><!--link Dataset to CatalogRecord--><g class="link" data-entity-1="ent0002" data-entity-2="ent0017" data-link-type="dependency" data-source-line="41" id="lnk31"><path codeLine="41" d="M848.16,66.6494 C853.79,68.1894 859.82,69.6394 865.5,70.6094 C1066.13,104.9494 1126.31,46.3694 1322.5,100.6094 C1360.02,110.9794 1394.4552,131.0158 1416.3152,145.1858" fill="none" id="Dataset-to-CatalogRecord" style="stroke:#404040;stroke-width:1.2;"/><polygon fill="#404040" points="1421.35,148.4494,1415.9736,140.1974,1417.1544,145.7297,1411.6221,146.9105,1421.35,148.4494" style="stroke:#404040;stroke-width:1.2;"/><text fill="#000000" font-family="sans-serif" font-size="13" lengthAdjust="spacing" textLength="54.9136" x="1366.5" y="115.1045">subjectOf</text><text fill="#000000" font-family="sans-serif" font-size="13" lengthAdjust="spacing" textLength="7.23" x="1406.2555" y="137.8604">1</text></g><!--link CatalogRecord to Dataset--><g class="link" data-entity-1="ent0017" data-entity-2="ent0002" data-link-type="dependency" data-source-line="46" id="lnk36"><path codeLine="46" d="M1440.59,148.5194 C1442.31,134.8694 1442.65,112.5494 1429.5,100.6094 C1383.03,58.4394 927.42,80.8094 865.5,70.6094 C859.81,69.6694 859.5674,69.8224 853.9374,68.2824" fill="none" id="CatalogRecord-to-Dataset" style="stroke:#404040;stroke-width:1.2;"/><polygon fill="#404040" points="848.15,66.6994,855.7757,72.9322,852.9728,68.0186,857.8865,65.2157,848.15,66.6994" style="stroke:#404040;stroke-width:1.2;"/><text fill="#000000" font-family="sans-serif" font-size="13" lengthAdjust="spacing" textLength="32.5317" x="1439.5" y="115.1045">about</text><text fill="#000000" font-family="sans-serif" font-size="13" lengthAdjust="spacing" textLength="21.6836" x="853.8134" y="64.427">0..1</text></g><!--link Dataset to DefinedTerm--><g class="link" data-entity-1="ent0002" data-entity-2="ent0010" data-link-type="dependency" data-source-line="42" id="lnk32"><path codeLine="42" d="M824.5,70.6994 C824.5,90.0694 824.5,122.8494 824.5,142.3494" fill="none" id="Dataset-to-DefinedTerm" style="stroke:#404040;stroke-width:1.2;"/><polygon fill="#404040" points="824.5,148.3494,828.5,139.3494,824.5,143.3494,820.5,139.3494,824.5,148.3494" style="stroke:#404040;stroke-width:1.2;"/><text fill="#000000" font-family="sans-serif" font-size="13" lengthAdjust="spacing" textLength="54.9072" x="825.5" y="115.1045">keywords</text><text fill="#000000" font-family="sans-serif" font-size="13" lengthAdjust="spacing" textLength="19.5127" x="801.7899" y="137.721">0..*</text></g><!--link Dataset to Reference--><g class="link" data-entity-1="ent0002" data-entity-2="ent0013" data-link-type="dependency" data-source-line="43" id="lnk33"><path codeLine="43" d="M847.18,70.7194 C860.23,78.1194 876.39,88.5594 888.5,100.6094 C903.03,115.0694 912.3341,130.4854 919.0341,143.2654" fill="none" id="Dataset-to-Reference" style="stroke:#404040;stroke-width:1.2;"/><polygon fill="#404040" points="921.82,148.5794,921.1838,138.7511,919.4984,144.151,914.0985,142.4656,921.82,148.5794" style="stroke:#404040;stroke-width:1.2;"/><text fill="#000000" font-family="sans-serif" font-size="13" lengthAdjust="spacing" textLength="40.4663" x="904.5" y="115.1045">license</text><text fill="#000000" font-family="sans-serif" font-size="13" lengthAdjust="spacing" textLength="19.5127" x="896.5887" y="137.659">0..*</text></g><!--link Contributor to Agent--><g class="link" data-entity-1="ent0009" data-entity-2="ent0006" data-link-type="dependency" data-source-line="44" id="lnk34"><path codeLine="44" d="M701.73,173.7694 C682.67,186.1194 651.37,205.9594 623.5,221.6094 C602.21,233.5594 582.4809,243.4358 565.7009,251.5558" fill="none" id="Contributor-to-Agent" style="stroke:#404040;stroke-width:1.2;"/><polygon fill="#404040" points="560.3,254.1694,570.1437,253.8497,564.8007,251.9914,566.659,246.6485,560.3,254.1694" style="stroke:#404040;stroke-width:1.2;"/><text fill="#000000" font-family="sans-serif" font-size="13" lengthAdjust="spacing" textLength="32.5317" x="654.5" y="218.1045">agent</text><text fill="#000000" font-family="sans-serif" font-size="13" lengthAdjust="spacing" textLength="21.6836" x="568.2179" y="267.1778">0..1</text></g><!--link MonetaryGrant to Agent--><g class="link" data-entity-1="ent0014" data-entity-2="ent0006" data-link-type="dependency" data-source-line="45" id="lnk35"><path codeLine="45" d="M993.44,170.8994 C890.18,191.9694 637.6189,243.4998 566.0189,258.1098" fill="none" id="MonetaryGrant-to-Agent" style="stroke:#404040;stroke-width:1.2;"/><polygon fill="#404040" points="560.14,259.3094,569.758,261.4292,565.0391,258.3097,568.1586,253.5908,560.14,259.3094" style="stroke:#404040;stroke-width:1.2;"/><text fill="#000000" font-family="sans-serif" font-size="13" lengthAdjust="spacing" textLength="36.8608" x="820.5" y="218.1045">funder</text><text fill="#000000" font-family="sans-serif" font-size="13" lengthAdjust="spacing" textLength="19.5127" x="568.4286" y="253.0824">0..*</text></g><?plantuml-src VLJRYjim57ptLuZiMo7BPkcJAOLiBaiUoeRjGfzbwJWvZIs58oKcsnRw4Vt2VaaLot5aMmt1M6SyEXfDHh9e2s2p-MevqmJix-y_J1-1ZWXLiaK9J2290lmOohqziHBA3CWaPeTgpucNp6ovr1Mg3SjvOI3uCYNIrTiMnKw1CMno_nXy50Lts8-4UTfC5vhOtSU7yy-1JveaK1zTQcM_uZkmoMFoAqbyZz6SMsx0ZXWth1cpk-LYkPWj4fuPIrpOPhtHjAddwDwO7IngLK-CVMYx10lDTQKApMMxsWNeaxz1DbslQfeV_b_J1fHNNu_wZTRExqQa7_O9BxJX2jzvkvSGw9Ddpi9wVvfgRb0FjWivAf1lGANVxRNkKrVI2SSSmJUzbdtYL4eyo-B5clGUo9xynWTmV-8hv42W1DJyjkhJlcW5bjFfcNZZQGSPU4lwE1KMZzW82O6X7uH7a4lI5p_QUk2o2qQXDwyWN8wzpo7IqgEf-_HpFEv4wmRDHolnmQaHdv4G2UEGN0x8UFoPZHxkxp-CcjIbhEIeh7k0Rh7spY5t7yGvCPqfaq5vgxKWu2w7CKeOKqUyLWFo991wo0eqsxZMRYvIbX-KTBTOZDe9HSegRfx1kSGjoATJR4AOZ9eV05s-KzjDHihC8ViEmhxaySxNCvYo7PmgDyd4cDSZah821IXtDuSkHlpYvtVIDIRoDvsTSfvsTGVjBc9SmqmVRF8F?></g></svg>