<svg xmlns="http://www.w3.org/2000/svg" xmlns:xlink="http://www.w3.org/1999/xlink" contentStyleType="text/css" data-diagram-type="CLASS" height="491px" preserveAspectRatio="none" style="width:1266px;height:491px;background:#FFFFFF;" version="1.1" viewBox="0 0 1266 491" width="1266px" zoomAndPan="magnify"><?plantuml 1.2026.3?><defs/><g><g class="title" data-source-line="1"><text fill="#000000" font-family="sans-serif" font-size="14" font-weight="700" lengthAdjust="spacing" textLength="146.6992" x="556.4163" y="24.5332">CDIFCore &#8212; overview</text></g><!--class Dataset--><g class="entity" data-qualified-name="Dataset" data-source-line="12" id="ent0002"><rect fill="#FEFECE" height="25.0938" rx="2.5" ry="2.5" style="stroke:#404040;stroke-width:0.5;" width="47.3555" x="668.5" y="50.0785"/><text fill="#000000" font-family="sans-serif" font-size="12" lengthAdjust="spacing" textLength="41.3555" x="671.5" y="67.5355">Dataset</text></g><!--class AbstractDistribution--><g class="entity" data-qualified-name="AbstractDistribution" data-source-line="13" id="ent0003"><rect fill="#FEFECE" height="25.0938" rx="2.5" ry="2.5" style="stroke:#404040;stroke-width:0.5;" width="110.0391" x="146" y="153.0785"/><text fill="#000000" font-family="sans-serif" font-size="12" font-style="italic" lengthAdjust="spacing" textLength="104.0391" x="149" y="170.5355">AbstractDistribution</text></g><!--class DataDownload--><g class="entity" data-qualified-name="DataDownload" data-source-line="14" id="ent0004"><rect fill="#FEFECE" height="25.0938" rx="2.5" ry="2.5" style="stroke:#404040;stroke-width:0.5;" width="84.7148" x="85.5" y="263.0785"/><text fill="#000000" font-family="sans-serif" font-size="12" lengthAdjust="spacing" textLength="78.7148" x="88.5" y="280.5355">DataDownload</text></g><!--class WebAPI--><g class="entity" data-qualified-name="WebAPI" data-source-line="15" id="ent0005"><rect fill="#FEFECE" height="25.0938" rx="2.5" ry="2.5" style="stroke:#404040;stroke-width:0.5;" width="50.0156" x="206" y="263.0785"/><text fill="#000000" font-family="sans-serif" font-size="12" lengthAdjust="spacing" textLength="44.0156" x="209" y="280.5355">WebAPI</text></g><!--class Agent--><g class="entity" data-qualified-name="Agent" data-source-line="16" id="ent0006"><rect fill="#FEFECE" height="25.0938" rx="2.5" ry="2.5" style="stroke:#404040;stroke-width:0.5;" width="37.3594" x="460.5" y="366.0785"/><text fill="#000000" font-family="sans-serif" font-size="12" font-style="italic" lengthAdjust="spacing" textLength="31.3594" x="463.5" y="383.5355">Agent</text></g><!--class Person--><g class="entity" data-qualified-name="Person" data-source-line="17" id="ent0007"><rect fill="#FEFECE" height="25.0938" rx="2.5" ry="2.5" style="stroke:#404040;stroke-width:0.5;" width="44.0215" x="410" y="452.0785"/><text fill="#000000" font-family="sans-serif" font-size="12" lengthAdjust="spacing" textLength="38.0215" x="413" y="469.5355">Person</text></g><!--class ContactPoint--><g class="entity" data-qualified-name="ContactPoint" data-source-line="18" id="ent0008"><rect fill="#FEFECE" height="25.0938" rx="2.5" ry="2.5" style="stroke:#404040;stroke-width:0.5;" width="74.707" x="21.5" y="50.0785"/><text fill="#000000" font-family="sans-serif" font-size="12" lengthAdjust="spacing" textLength="68.707" x="24.5" y="67.5355">ContactPoint</text></g><!--class Organization--><g class="entity" data-qualified-name="Organization" data-source-line="19" id="ent0009"><rect fill="#FEFECE" height="25.0938" rx="2.5" ry="2.5" style="stroke:#404040;stroke-width:0.5;" width="74.0391" x="489" y="452.0785"/><text fill="#000000" font-family="sans-serif" font-size="12" lengthAdjust="spacing" textLength="68.0391" x="492" y="469.5355">Organization</text></g><!--class Contributor--><g class="entity" data-qualified-name="Contributor" data-source-line="20" id="ent0010"><rect fill="#FEFECE" height="25.0938" rx="2.5" ry="2.5" style="stroke:#404040;stroke-width:0.5;" width="65.3613" x="538.5" y="208.0785"/><text fill="#000000" font-family="sans-serif" font-size="12" lengthAdjust="spacing" textLength="59.3613" x="541.5" y="225.5355">Contributor</text></g><!--class DefinedTerm--><g class="entity" data-qualified-name="DefinedTerm" data-source-line="21" id="ent0011"><rect fill="#FEFECE" height="25.0938" rx="2.5" ry="2.5" style="stroke:#404040;stroke-width:0.5;" width="75.3574" x="597.5" y="153.0785"/><text fill="#000000" font-family="sans-serif" font-size="12" lengthAdjust="spacing" textLength="69.3574" x="600.5" y="170.5355">DefinedTerm</text></g><!--class Identifier--><g class="entity" data-qualified-name="Identifier" data-source-line="22" id="ent0012"><rect fill="#FEFECE" height="25.0938" rx="2.5" ry="2.5" style="stroke:#404040;stroke-width:0.5;" width="52.0254" x="132" y="50.0785"/><text fill="#000000" font-family="sans-serif" font-size="12" lengthAdjust="spacing" textLength="46.0254" x="135" y="67.5355">Identifier</text></g><!--class AdditionalProperty--><g class="entity" data-qualified-name="AdditionalProperty" data-source-line="23" id="ent0013"><rect fill="#FEFECE" height="25.0938" rx="2.5" ry="2.5" style="stroke:#404040;stroke-width:0.5;" width="104.0566" x="7" y="153.0785"/><text fill="#000000" font-family="sans-serif" font-size="12" lengthAdjust="spacing" textLength="98.0566" x="10" y="170.5355">AdditionalProperty</text></g><!--class Reference--><g class="entity" data-qualified-name="Reference" data-source-line="24" id="ent0014"><rect fill="#FEFECE" height="25.0938" rx="2.5" ry="2.5" style="stroke:#404040;stroke-width:0.5;" width="61.3652" x="707.5" y="153.0785"/><text fill="#000000" font-family="sans-serif" font-size="12" lengthAdjust="spacing" textLength="55.3652" x="710.5" y="170.5355">Reference</text></g><!--class MonetaryGrant--><g class="entity" data-qualified-name="MonetaryGrant" data-source-line="25" id="ent0015"><rect fill="#FEFECE" height="25.0938" rx="2.5" ry="2.5" style="stroke:#404040;stroke-width:0.5;" width="86.0332" x="747" y="208.0785"/><text fill="#000000" font-family="sans-serif" font-size="12" lengthAdjust="spacing" textLength="80.0332" x="750" y="225.5355">MonetaryGrant</text></g><!--class ProvActivity--><g class="entity" data-qualified-name="ProvActivity" data-source-line="26" id="ent0016"><rect fill="#FEFECE" height="25.0938" rx="2.5" ry="2.5" style="stroke:#404040;stroke-width:0.5;" width="68.6777" x="875.5" y="153.0785"/><text fill="#000000" font-family="sans-serif" font-size="12" lengthAdjust="spacing" textLength="62.6777" x="878.5" y="170.5355">ProvActivity</text></g><!--class DerivedFrom--><g class="entity" data-qualified-name="DerivedFrom" data-source-line="27" id="ent0017"><rect fill="#FEFECE" height="25.0938" rx="2.5" ry="2.5" style="stroke:#404040;stroke-width:0.5;" width="75.3457" x="1009.5" y="153.0785"/><text fill="#000000" font-family="sans-serif" font-size="12" lengthAdjust="spacing" textLength="69.3457" x="1012.5" y="170.5355">DerivedFrom</text></g><!--class CatalogRecord--><g class="entity" data-qualified-name="CatalogRecord" data-source-line="28" id="ent0018"><rect fill="#FEFECE" height="25.0938" rx="2.5" ry="2.5" style="stroke:#404040;stroke-width:0.5;" width="86.0449" x="1144" y="153.0785"/><text fill="#000000" font-family="sans-serif" font-size="12" lengthAdjust="spacing" textLength="80.0449" x="1147" y="170.5355">CatalogRecord</text></g><!--reverse link AbstractDistribution to DataDownload--><g class="link" data-entity-1="ent0003" data-entity-2="ent0004" data-link-type="extension" data-source-line="29" id="lnk19"><path codeLine="29" d="M183.1091,193.0507 C169.1291,213.7307 150.07,241.9185 135.98,262.7785" fill="none" id="AbstractDistribution-backto-DataDownload" style="stroke:#404040;stroke-width:1.2;"/><polygon fill="none" points="193.19,178.1385,178.1383,189.6904,188.0798,196.411,193.19,178.1385" style="stroke:#404040;stroke-width:1.2;"/></g><!--reverse link AbstractDistribution to WebAPI--><g class="link" data-entity-1="ent0003" data-entity-2="ent0005" data-link-type="extension" data-source-line="30" id="lnk20"><path codeLine="30" d="M209.0241,195.4827 C214.7641,216.1627 221.93,241.9185 227.72,262.7785" fill="none" id="AbstractDistribution-backto-WebAPI" style="stroke:#404040;stroke-width:1.2;"/><polygon fill="none" points="204.21,178.1385,203.2427,197.0875,214.8056,193.878,204.21,178.1385" style="stroke:#404040;stroke-width:1.2;"/></g><!--reverse link Agent to Person--><g class="link" data-entity-1="ent0006" data-entity-2="ent0007" data-link-type="extension" data-source-line="31" id="lnk21"><path codeLine="31" d="M463.6786,406.9711 C454.7086,423.0211 447.43,435.9985 438.48,451.9985" fill="none" id="Agent-backto-Person" style="stroke:#404040;stroke-width:1.2;"/><polygon fill="none" points="472.46,391.2585,458.441,404.0439,468.9161,409.8982,472.46,391.2585" style="stroke:#404040;stroke-width:1.2;"/></g><!--reverse link Agent to Organization--><g class="link" data-entity-1="ent0006" data-entity-2="ent0009" data-link-type="extension" data-source-line="32" id="lnk22"><path codeLine="32" d="M494.3214,406.9711 C503.2914,423.0211 510.57,435.9985 519.52,451.9985" fill="none" id="Agent-backto-Organization" style="stroke:#404040;stroke-width:1.2;"/><polygon fill="none" points="485.54,391.2585,489.0839,409.8982,499.559,404.0439,485.54,391.2585" style="stroke:#404040;stroke-width:1.2;"/></g><!--link Dataset to Agent--><g class="link" data-entity-1="ent0002" data-entity-2="ent0006" data-link-type="dependency" data-source-line="33" id="lnk23"><path codeLine="33" d="M668.05,64.0785 C602.25,65.8485 420.38,73.5585 371,105.0785 C325.37,134.2085 321.04,156.0785 306,208.0785 C288.28,269.3685 321.68,295.5985 371,336.0785 C397.7,357.9985 431.4154,367.9311 454.5054,372.9211" fill="none" id="Dataset-to-Agent" style="stroke:#404040;stroke-width:1.2;"/><polygon fill="#404040" points="460.37,374.1885,452.418,368.3776,455.4828,373.1323,450.7281,376.1971,460.37,374.1885" style="stroke:#404040;stroke-width:1.2;"/><text fill="#000000" font-family="sans-serif" font-size="13" lengthAdjust="spacing" textLength="46.9663" x="307" y="226.0736">provider</text><text fill="#000000" font-family="sans-serif" font-size="13" lengthAdjust="spacing" textLength="19.5127" x="433.1293" y="368.0819">0..*</text></g><!--link Dataset to Agent--><g class="link" data-entity-1="ent0002" data-entity-2="ent0006" data-link-type="dependency" data-source-line="35" id="lnk25"><path codeLine="35" d="M668.19,64.9285 C613.72,68.4385 482.08,79.4085 447,105.0785 C397.31,141.4385 378.17,173.5785 394,233.0785 C408.52,287.6485 446.0459,337.8485 465.2059,361.2185" fill="none" id="Dataset-to-Agent-1" style="stroke:#404040;stroke-width:1.2;"/><polygon fill="#404040" points="469.01,365.8585,466.3972,356.3625,465.8399,361.9918,460.2106,361.4346,469.01,365.8585" style="stroke:#404040;stroke-width:1.2;"/><text fill="#000000" font-family="sans-serif" font-size="13" lengthAdjust="spacing" textLength="40.46" x="395" y="226.0736">creator</text><text fill="#000000" font-family="sans-serif" font-size="13" lengthAdjust="spacing" textLength="19.5127" x="468.8472" y="355.2458">0..*</text></g><!--link Dataset to Agent--><g class="link" data-entity-1="ent0002" data-entity-2="ent0006" data-link-type="dependency" data-source-line="37" id="lnk27"><path codeLine="37" d="M668.48,66.5785 C639.75,71.1185 590.57,81.8285 555,105.0785 C504.6,138.0185 487.84,151.5885 467,208.0785 C446.27,264.2585 464.1225,332.2068 473.1625,360.3068" fill="none" id="Dataset-to-Agent-2" style="stroke:#404040;stroke-width:1.2;"/><polygon fill="#404040" points="475,366.0185,476.0516,356.2259,473.4687,361.2587,468.4359,358.6759,475,366.0185" style="stroke:#404040;stroke-width:1.2;"/><text fill="#000000" font-family="sans-serif" font-size="13" lengthAdjust="spacing" textLength="52.7554" x="468" y="226.0736">publisher</text><text fill="#000000" font-family="sans-serif" font-size="13" lengthAdjust="spacing" textLength="21.6836" x="448.0856" y="355.0858">0..1</text></g><!--link Dataset to AbstractDistribution--><g class="link" data-entity-1="ent0002" data-entity-2="ent0003" data-link-type="dependency" data-source-line="34" id="lnk24"><path codeLine="34" d="M668.35,64.1185 C577.48,66.4085 254.15,76.5185 219,105.0785 C204.76,116.6485 201.7568,133.094 201.1668,146.864" fill="none" id="Dataset-to-AbstractDistribution" style="stroke:#404040;stroke-width:1.2;"/><polygon fill="#404040" points="200.91,152.8585,205.2916,144.0379,201.124,147.863,197.2989,143.6955,200.91,152.8585" style="stroke:#404040;stroke-width:1.2;"/><text fill="#000000" font-family="sans-serif" font-size="13" lengthAdjust="spacing" textLength="62.8672" x="220" y="119.5736">distribution</text><text fill="#000000" font-family="sans-serif" font-size="13" lengthAdjust="spacing" textLength="19.5127" x="178.2272" y="142.2458">0..*</text></g><!--link Dataset to Contributor--><g class="link" data-entity-1="ent0002" data-entity-2="ent0010" data-link-type="dependency" data-source-line="36" id="lnk26"><path codeLine="36" d="M668.39,64.0285 C639.92,65.9885 593.14,74.0885 571,105.0785 C548.7,136.2985 558.2539,179.7974 565.1739,202.1274" fill="none" id="Dataset-to-Contributor" style="stroke:#404040;stroke-width:1.2;"/><polygon fill="#404040" points="566.95,207.8585,568.1067,198.0778,565.47,203.0825,560.4652,200.4458,566.95,207.8585" style="stroke:#404040;stroke-width:1.2;"/><text fill="#000000" font-family="sans-serif" font-size="13" lengthAdjust="spacing" textLength="61.4199" x="572" y="119.5736">contributor</text><text fill="#000000" font-family="sans-serif" font-size="13" lengthAdjust="spacing" textLength="19.5127" x="542.6445" y="197.2458">0..*</text></g><!--link Dataset to MonetaryGrant--><g class="link" data-entity-1="ent0002" data-entity-2="ent0015" data-link-type="dependency" data-source-line="38" id="lnk28"><path codeLine="38" d="M715.82,71.4885 C732.46,78.1085 754.1,89.0685 768,105.0785 C793.74,134.7385 793.5795,179.2177 791.7595,201.9177" fill="none" id="Dataset-to-MonetaryGrant" style="stroke:#404040;stroke-width:1.2;"/><polygon fill="#404040" points="791.28,207.8985,795.9865,199.2469,791.6796,202.9145,788.0121,198.6076,791.28,207.8985" style="stroke:#404040;stroke-width:1.2;"/><text fill="#000000" font-family="sans-serif" font-size="13" lengthAdjust="spacing" textLength="42.6499" x="780" y="119.5736">funding</text><text fill="#000000" font-family="sans-serif" font-size="13" lengthAdjust="spacing" textLength="19.5127" x="769.1378" y="197.3016">0..*</text></g><!--link Dataset to ProvActivity--><g class="link" data-entity-1="ent0002" data-entity-2="ent0016" data-link-type="dependency" data-source-line="39" id="lnk29"><path codeLine="39" d="M715.57,64.0685 C751.23,65.8585 819.74,73.5085 867,105.0785 C885.02,117.1185 895.412,134.0193 902.142,147.6393" fill="none" id="Dataset-to-ProvActivity" style="stroke:#404040;stroke-width:1.2;"/><polygon fill="#404040" points="904.8,153.0185,904.3991,143.1778,902.585,148.5358,897.2269,146.7217,904.8,153.0185" style="stroke:#404040;stroke-width:1.2;"/><text fill="#000000" font-family="sans-serif" font-size="13" lengthAdjust="spacing" textLength="99.7217" x="887" y="119.5736">wasGeneratedBy</text><text fill="#000000" font-family="sans-serif" font-size="13" lengthAdjust="spacing" textLength="19.5127" x="879.9085" y="142.0858">0..*</text></g><!--link Dataset to DerivedFrom--><g class="link" data-entity-1="ent0002" data-entity-2="ent0017" data-link-type="dependency" data-source-line="40" id="lnk30"><path codeLine="40" d="M715.74,64.6885 C778.37,67.9685 946.63,79.0085 995,105.0785 C1015.53,116.1485 1028.5777,133.6371 1037.1477,147.5771" fill="none" id="Dataset-to-DerivedFrom" style="stroke:#404040;stroke-width:1.2;"/><polygon fill="#404040" points="1040.29,152.6885,1038.9841,142.9266,1037.6714,148.429,1032.1689,147.1163,1040.29,152.6885" style="stroke:#404040;stroke-width:1.2;"/><text fill="#000000" font-family="sans-serif" font-size="13" lengthAdjust="spacing" textLength="98.2427" x="1017" y="119.5736">wasDerivedFrom</text><text fill="#000000" font-family="sans-serif" font-size="13" lengthAdjust="spacing" textLength="19.5127" x="1015.1418" y="142.2684">0..*</text></g><!--link Dataset to CatalogRecord--><g class="link" data-entity-1="ent0002" data-entity-2="ent0018" data-link-type="dependency" data-source-line="41" id="lnk31"><path codeLine="41" d="M715.74,63.8485 C795.08,65.0685 1050.17,71.5485 1124,105.0785 C1147.56,115.7785 1164.2429,134.2018 1175.0529,148.2618" fill="none" id="Dataset-to-CatalogRecord" style="stroke:#404040;stroke-width:1.2;"/><polygon fill="#404040" points="1178.71,153.0185,1176.3954,143.4454,1175.6624,149.0546,1170.0532,148.3216,1178.71,153.0185" style="stroke:#404040;stroke-width:1.2;"/><text fill="#000000" font-family="sans-serif" font-size="13" lengthAdjust="spacing" textLength="54.9136" x="1150" y="119.5736">subjectOf</text><text fill="#000000" font-family="sans-serif" font-size="13" lengthAdjust="spacing" textLength="7.23" x="1166.8848" y="142.0858">1</text></g><!--link CatalogRecord to Dataset--><g class="link" data-entity-1="ent0018" data-entity-2="ent0002" data-link-type="dependency" data-source-line="47" id="lnk37"><path codeLine="47" d="M1199.09,152.7885 C1210.99,139.7585 1225.7,118.8285 1213,105.0785 C1178.87,68.1285 818.9499,64.0744 721.6499,63.6544" fill="none" id="CatalogRecord-to-Dataset" style="stroke:#404040;stroke-width:1.2;"/><polygon fill="#404040" points="715.65,63.6285,724.6327,67.6673,720.65,63.65,724.6672,59.6673,715.65,63.6285" style="stroke:#404040;stroke-width:1.2;"/><text fill="#000000" font-family="sans-serif" font-size="13" lengthAdjust="spacing" textLength="32.5317" x="1218" y="119.5736">about</text><text fill="#000000" font-family="sans-serif" font-size="13" lengthAdjust="spacing" textLength="21.6836" x="724.0141" y="59.4609">0..1</text></g><!--link Dataset to DefinedTerm--><g class="link" data-entity-1="ent0002" data-entity-2="ent0011" data-link-type="dependency" data-source-line="42" id="lnk32"><path codeLine="42" d="M675.85,75.3185 C666.65,82.8385 655.67,93.3585 649,105.0785 C640.4,120.2085 637.6793,134.3995 636.3993,146.9395" fill="none" id="Dataset-to-DefinedTerm" style="stroke:#404040;stroke-width:1.2;"/><polygon fill="#404040" points="635.79,152.9085,640.6832,144.3612,636.2977,147.9343,632.7246,143.5488,635.79,152.9085" style="stroke:#404040;stroke-width:1.2;"/><text fill="#000000" font-family="sans-serif" font-size="13" lengthAdjust="spacing" textLength="54.9072" x="650" y="119.5736">keywords</text><text fill="#000000" font-family="sans-serif" font-size="13" lengthAdjust="spacing" textLength="19.5127" x="613.391" y="142.3155">0..*</text></g><!--link Dataset to Reference--><g class="link" data-entity-1="ent0002" data-entity-2="ent0014" data-link-type="dependency" data-source-line="43" id="lnk33"><path codeLine="43" d="M697.28,75.1685 C706.1,94.5385 721.2734,127.858 730.1534,147.358" fill="none" id="Dataset-to-Reference" style="stroke:#404040;stroke-width:1.2;"/><polygon fill="#404040" points="732.64,152.8185,732.5504,142.97,730.5678,148.2681,725.2698,146.2855,732.64,152.8185" style="stroke:#404040;stroke-width:1.2;"/><text fill="#000000" font-family="sans-serif" font-size="13" lengthAdjust="spacing" textLength="40.4663" x="719" y="119.5736">license</text><text fill="#000000" font-family="sans-serif" font-size="13" lengthAdjust="spacing" textLength="19.5127" x="707.8179" y="142.1901">0..*</text></g><!--link DataDownload to Agent--><g class="link" data-entity-1="ent0004" data-entity-2="ent0006" data-link-type="dependency" data-source-line="44" id="lnk34"><path codeLine="44" d="M144.57,288.1585 C164.91,301.7885 200.91,324.0985 235,336.0785 C315.87,364.4985 412.8929,373.4349 454.4229,376.1649" fill="none" id="DataDownload-to-Agent" style="stroke:#404040;stroke-width:1.2;"/><polygon fill="#404040" points="460.41,376.5585,451.6918,371.9767,455.4208,376.2305,451.167,379.9595,460.41,376.5585" style="stroke:#404040;stroke-width:1.2;"/><text fill="#000000" font-family="sans-serif" font-size="13" lengthAdjust="spacing" textLength="46.9663" x="236" y="332.5736">provider</text><text fill="#000000" font-family="sans-serif" font-size="13" lengthAdjust="spacing" textLength="19.5127" x="432.8309" y="391.9244">0..*</text></g><!--link Contributor to Agent--><g class="link" data-entity-1="ent0010" data-entity-2="ent0006" data-link-type="dependency" data-source-line="45" id="lnk35"><path codeLine="45" d="M564.4,233.3685 C552.67,254.2185 527.34,298.9085 505,336.0785 C498.87,346.2785 494.8916,352.6767 489.6216,360.9567" fill="none" id="Contributor-to-Agent" style="stroke:#404040;stroke-width:1.2;"/><polygon fill="#404040" points="486.4,366.0185,494.607,360.5737,489.0847,361.8004,487.858,356.2781,486.4,366.0185" style="stroke:#404040;stroke-width:1.2;"/><text fill="#000000" font-family="sans-serif" font-size="13" lengthAdjust="spacing" textLength="61.4199" x="549" y="281.0736">contributor</text><text fill="#000000" font-family="sans-serif" font-size="13" lengthAdjust="spacing" textLength="21.6836" x="493.8506" y="355.0858">0..1</text></g><!--link MonetaryGrant to Agent--><g class="link" data-entity-1="ent0015" data-entity-2="ent0006" data-link-type="dependency" data-source-line="46" id="lnk36"><path codeLine="46" d="M766.88,233.1785 C707.75,262.8285 557.2732,338.3184 503.1832,365.4484" fill="none" id="MonetaryGrant-to-Agent" style="stroke:#404040;stroke-width:1.2;"/><polygon fill="#404040" points="497.82,368.1385,507.6581,367.6789,502.2893,365.8968,504.0714,360.528,497.82,368.1385" style="stroke:#404040;stroke-width:1.2;"/><text fill="#000000" font-family="sans-serif" font-size="13" lengthAdjust="spacing" textLength="36.8608" x="707" y="281.0736">funder</text><text fill="#000000" font-family="sans-serif" font-size="13" lengthAdjust="spacing" textLength="19.5127" x="505.8066" y="380.9836">0..*</text></g><!--link CatalogRecord to Agent--><g class="link" data-entity-1="ent0018" data-entity-2="ent0006" data-link-type="dependency" data-source-line="48" id="lnk38"><path codeLine="48" d="M1148.18,178.1485 C1016.87,217.2785 598.02,342.1046 503.51,370.2746" fill="none" id="CatalogRecord-to-Agent" style="stroke:#404040;stroke-width:1.2;"/><polygon fill="#404040" points="497.76,371.9885,507.5276,373.251,502.5517,370.5602,505.2424,365.5843,497.76,371.9885" style="stroke:#404040;stroke-width:1.2;"/><text fill="#000000" font-family="sans-serif" font-size="13" lengthAdjust="spacing" textLength="60.6963" x="858" y="281.0736">maintainer</text><text fill="#000000" font-family="sans-serif" font-size="13" lengthAdjust="spacing" textLength="21.6836" x="506.035" y="365.4164">0..1</text></g><?plantuml-src VLHTQzim57tthxYaRuE4fkp9Z46QZvA7qT0LzYnRruaQMmfNIaow3VOZzWltIwPOjYFRQWWckiT7HrT7npB2v0ZpnNerLuJmxyzVK2Uaay0osWcEa0fAStHZB0xc30KM2PAEz5x80oDMWDunhaeXjv2nNAFtPaQaojUTIFSIjORfvC5xcURCOZyZSBIvoXN1tUVxoy-2ZueuKXzTAMc-YtU4wKFqEugSncZ13DDeHi0qr6EuMorNo_aoOeasn59JhpUQrVL2s7-H78rGifeOUj6gU0ijL2bpnNYxMWFqoJymcMtM5SqDF-vfYz9rNutwGXlhTzsa6_O9S-kAbTieKSluG9_yJ5icnJjhD-u38UNA34MjS5qFlC5CIEIlI8MpvbhtgMjkToaoWKxqMlQ9Cyx5fIsMRqWTaCpPkJI0-nDVC4D2cMB5Rwi-xPkIQ1YTduZLpdMGmK6GEirI8qwYRiG7XdwGE25VaMhyQEk1opP5kTg-O6f3xtpsaPOUZEYNN-Dn9uStQ2w7aKjPXRX0-OWVXwZvciRZhp2wdqm-ZUg8nd2mUxVN0WKveGvYu5vvIpebP3PX8OeVG4kyLWFor6lrcEH2xyAzTayyXkmekRtCGjJESSTGCls44eaPv8_dq0J_p2k-1tJvjjlkcSUWZyaRfkOv2ojVlwuOzdWkxIGTObx37qCkKfJsYkvSMxVErhSxOAplVzV7WEZ5s8jaPvkUQDDx32nHH_CniH4icBtUx6D5_mC0?></g></svg>