<svg xmlns="http://www.w3.org/2000/svg" xmlns:xlink="http://www.w3.org/1999/xlink" contentStyleType="text/css" data-diagram-type="CLASS" height="1197px" preserveAspectRatio="none" style="width:883px;height:1197px;background:#FFFFFF;" version="1.1" viewBox="0 0 883 1197" width="883px" zoomAndPan="magnify"><?plantuml 1.2026.3?><defs/><g><g class="title" data-source-line="1"><text fill="#000000" font-family="sans-serif" font-size="14" font-weight="700" lengthAdjust="spacing" textLength="146.6992" x="364.6729" y="24.5332">CDIFCore &#8212; overview</text></g><!--class Dataset--><g class="entity" data-qualified-name="Dataset" data-source-line="15" id="ent0002"><rect fill="#FEFECE" height="25.0938" rx="2.5" ry="2.5" style="stroke:#404040;stroke-width:0.5;" width="47.3555" x="480.5" y="57.9658"/><text fill="#000000" font-family="sans-serif" font-size="12" lengthAdjust="spacing" textLength="41.3555" x="483.5" y="75.4229">Dataset</text></g><!--class AbstractDistribution--><g class="entity" data-qualified-name="AbstractDistribution" data-source-line="16" id="ent0003"><rect fill="#D6EAF8" height="25.0938" rx="2.5" ry="2.5" style="stroke:#404040;stroke-width:0.5;" width="110.0391" x="219" y="332.9658"/><text fill="#000000" font-family="sans-serif" font-size="12" font-style="italic" lengthAdjust="spacing" textLength="104.0391" x="222" y="350.4229">AbstractDistribution</text></g><!--class DataDownload--><g class="entity" data-qualified-name="DataDownload" data-source-line="17" id="ent0004"><rect fill="#FEFECE" height="25.0938" rx="2.5" ry="2.5" style="stroke:#404040;stroke-width:0.5;" width="84.7148" x="237.5" y="607.9658"/><text fill="#000000" font-family="sans-serif" font-size="12" lengthAdjust="spacing" textLength="78.7148" x="240.5" y="625.4229">DataDownload</text></g><!--class WebAPI--><g class="entity" data-qualified-name="WebAPI" data-source-line="18" id="ent0005"><rect fill="#FCF3CF" height="25.0938" rx="2.5" ry="2.5" style="stroke:#404040;stroke-width:0.5;" width="50.0156" x="132" y="607.9658"/><text fill="#000000" font-family="sans-serif" font-size="12" lengthAdjust="spacing" textLength="44.0156" x="135" y="625.4229">WebAPI</text></g><!--class Action--><g class="entity" data-qualified-name="Action" data-source-line="19" id="ent0006"><rect fill="#D6EAF8" height="25.0938" rx="2.5" ry="2.5" style="stroke:#404040;stroke-width:0.5;" width="39.3516" x="125.5" y="882.9658"/><text fill="#000000" font-family="sans-serif" font-size="12" lengthAdjust="spacing" textLength="33.3516" x="128.5" y="900.4229">Action</text></g><!--class EntryPoint--><g class="entity" data-qualified-name="EntryPoint" data-source-line="20" id="ent0007"><rect fill="#D6EAF8" height="25.0938" rx="2.5" ry="2.5" style="stroke:#404040;stroke-width:0.5;" width="61.3594" x="10.5" y="1157.9658"/><text fill="#000000" font-family="sans-serif" font-size="12" lengthAdjust="spacing" textLength="55.3594" x="13.5" y="1175.4229">EntryPoint</text></g><!--class ActionResult--><g class="entity" data-qualified-name="ActionResult" data-source-line="21" id="ent0008"><rect fill="#FCF3CF" height="25.0938" rx="2.5" ry="2.5" style="stroke:#404040;stroke-width:0.5;" width="73.3652" x="91.5" y="1157.9658"/><text fill="#000000" font-family="sans-serif" font-size="12" lengthAdjust="spacing" textLength="67.3652" x="94.5" y="1175.4229">ActionResult</text></g><!--class PropertyValueSpecification--><g class="entity" data-qualified-name="PropertyValueSpecification" data-source-line="22" id="ent0009"><rect fill="#D6EAF8" height="25.0938" rx="2.5" ry="2.5" style="stroke:#404040;stroke-width:0.5;" width="150.082" x="185" y="1157.9658"/><text fill="#000000" font-family="sans-serif" font-size="12" lengthAdjust="spacing" textLength="144.082" x="188" y="1175.4229">PropertyValueSpecification</text></g><!--class Agent--><g class="entity" data-qualified-name="Agent" data-source-line="23" id="ent0010"><rect fill="#D6EAF8" height="25.0938" rx="2.5" ry="2.5" style="stroke:#404040;stroke-width:0.5;" width="37.3594" x="373.5" y="882.9658"/><text fill="#000000" font-family="sans-serif" font-size="12" font-style="italic" lengthAdjust="spacing" textLength="31.3594" x="376.5" y="900.4229">Agent</text></g><!--class Person--><g class="entity" data-qualified-name="Person" data-source-line="24" id="ent0011"><rect fill="#D6EAF8" height="25.0938" rx="2.5" ry="2.5" style="stroke:#404040;stroke-width:0.5;" width="44.0215" x="449" y="1157.9658"/><text fill="#000000" font-family="sans-serif" font-size="12" lengthAdjust="spacing" textLength="38.0215" x="452" y="1175.4229">Person</text></g><!--class ContactPoint--><g class="entity" data-qualified-name="ContactPoint" data-source-line="25" id="ent0012"><rect fill="#D6EAF8" height="25.0938" rx="2.5" ry="2.5" style="stroke:#404040;stroke-width:0.5;" width="74.707" x="109.5" y="57.9658"/><text fill="#000000" font-family="sans-serif" font-size="12" lengthAdjust="spacing" textLength="68.707" x="112.5" y="75.4229">ContactPoint</text></g><!--class Organization--><g class="entity" data-qualified-name="Organization" data-source-line="26" id="ent0013"><rect fill="#D6EAF8" height="25.0938" rx="2.5" ry="2.5" style="stroke:#404040;stroke-width:0.5;" width="74.0391" x="355" y="1157.9658"/><text fill="#000000" font-family="sans-serif" font-size="12" lengthAdjust="spacing" textLength="68.0391" x="358" y="1175.4229">Organization</text></g><!--class Contributor--><g class="entity" data-qualified-name="Contributor" data-source-line="27" id="ent0014"><rect fill="#D6EAF8" height="25.0938" rx="2.5" ry="2.5" style="stroke:#404040;stroke-width:0.5;" width="65.3613" x="431.5" y="607.9658"/><text fill="#000000" font-family="sans-serif" font-size="12" lengthAdjust="spacing" textLength="59.3613" x="434.5" y="625.4229">Contributor</text></g><!--class Identifier--><g class="entity" data-qualified-name="Identifier" data-source-line="28" id="ent0015"><rect fill="#D6EAF8" height="25.0938" rx="2.5" ry="2.5" style="stroke:#404040;stroke-width:0.5;" width="52.0254" x="205" y="57.9658"/><text fill="#000000" font-family="sans-serif" font-size="12" lengthAdjust="spacing" textLength="46.0254" x="208" y="75.4229">Identifier</text></g><!--class AdditionalProperty--><g class="entity" data-qualified-name="AdditionalProperty" data-source-line="29" id="ent0016"><rect fill="#D6EAF8" height="25.0938" rx="2.5" ry="2.5" style="stroke:#404040;stroke-width:0.5;" width="104.0566" x="95" y="332.9658"/><text fill="#000000" font-family="sans-serif" font-size="12" lengthAdjust="spacing" textLength="98.0566" x="98" y="350.4229">AdditionalProperty</text></g><!--class Reference--><g class="entity" data-qualified-name="Reference" data-source-line="30" id="ent0017"><rect fill="#D6EAF8" height="25.0938" rx="2.5" ry="2.5" style="stroke:#404040;stroke-width:0.5;" width="61.3652" x="473.5" y="332.9658"/><text fill="#000000" font-family="sans-serif" font-size="12" lengthAdjust="spacing" textLength="55.3652" x="476.5" y="350.4229">Reference</text></g><!--class MonetaryGrant--><g class="entity" data-qualified-name="MonetaryGrant" data-source-line="31" id="ent0018"><rect fill="#D6EAF8" height="25.0938" rx="2.5" ry="2.5" style="stroke:#404040;stroke-width:0.5;" width="86.0332" x="520" y="607.9658"/><text fill="#000000" font-family="sans-serif" font-size="12" lengthAdjust="spacing" textLength="80.0332" x="523" y="625.4229">MonetaryGrant</text></g><!--class ProvActivity--><g class="entity" data-qualified-name="ProvActivity" data-source-line="32" id="ent0019"><rect fill="#FEFECE" height="25.0938" rx="2.5" ry="2.5" style="stroke:#404040;stroke-width:0.5;" width="68.6777" x="597.5" y="332.9658"/><text fill="#000000" font-family="sans-serif" font-size="12" lengthAdjust="spacing" textLength="62.6777" x="600.5" y="350.4229">ProvActivity</text></g><!--class DerivedFrom--><g class="entity" data-qualified-name="DerivedFrom" data-source-line="33" id="ent0020"><rect fill="#D6EAF8" height="25.0938" rx="2.5" ry="2.5" style="stroke:#404040;stroke-width:0.5;" width="75.3457" x="686.5" y="332.9658"/><text fill="#000000" font-family="sans-serif" font-size="12" lengthAdjust="spacing" textLength="69.3457" x="689.5" y="350.4229">DerivedFrom</text></g><!--class CatalogRecord--><g class="entity" data-qualified-name="CatalogRecord" data-source-line="34" id="ent0021"><rect fill="#FEFECE" height="25.0938" rx="2.5" ry="2.5" style="stroke:#404040;stroke-width:0.5;" width="86.0449" x="782" y="332.9658"/><text fill="#000000" font-family="sans-serif" font-size="12" lengthAdjust="spacing" textLength="80.0449" x="785" y="350.4229">CatalogRecord</text></g><!--reverse link AbstractDistribution to DataDownload--><g class="link" data-entity-1="ent0003" data-entity-2="ent0004" data-link-type="extension" data-source-line="35" id="lnk22"><path codeLine="35" d="M280,375.9958 C280,421.8058 280,561.9258 280,607.8658" fill="none" id="AbstractDistribution-backto-DataDownload" style="stroke:#404040;stroke-width:1.2;"/><polygon fill="none" points="280,357.9958,274,375.9958,286,375.9958,280,357.9958" style="stroke:#404040;stroke-width:1.2;"/></g><!--reverse link AbstractDistribution to WebAPI--><g class="link" data-entity-1="ent0003" data-entity-2="ent0005" data-link-type="extension" data-source-line="36" id="lnk23"><path codeLine="36" d="M228.25,376.0158 C228.25,429.9158 228.25,620.9658 228.25,620.9658 C228.25,620.9658 202.8,620.9658 182.32,620.9658" fill="none" id="AbstractDistribution-backto-WebAPI" style="stroke:#404040;stroke-width:1.2;"/><polygon fill="none" points="228.25,358.0158,222.25,376.0158,234.25,376.0158,228.25,358.0158" style="stroke:#404040;stroke-width:1.2;"/></g><!--reverse link Agent to Person--><g class="link" data-entity-1="ent0010" data-entity-2="ent0011" data-link-type="extension" data-source-line="37" id="lnk24"><path codeLine="37" d="M428.72,902.9658 C452.08,902.9658 471,902.9658 471,902.9658 C471,902.9658 471,1105.0358 471,1157.9258" fill="none" id="Agent-backto-Person" style="stroke:#404040;stroke-width:1.2;"/><polygon fill="none" points="410.72,902.9658,428.72,908.9658,428.72,896.9658,410.72,902.9658" style="stroke:#404040;stroke-width:1.2;"/></g><!--reverse link Agent to Organization--><g class="link" data-entity-1="ent0010" data-entity-2="ent0013" data-link-type="extension" data-source-line="38" id="lnk25"><path codeLine="38" d="M392,925.9958 C392,971.8058 392,1111.9258 392,1157.8658" fill="none" id="Agent-backto-Organization" style="stroke:#404040;stroke-width:1.2;"/><polygon fill="none" points="392,907.9958,386,925.9958,398,925.9958,392,907.9958" style="stroke:#404040;stroke-width:1.2;"/></g><!--link Dataset to Agent--><g class="link" data-entity-1="ent0002" data-entity-2="ent0010" data-link-type="dependency" data-source-line="39" id="lnk26"><path codeLine="39" d="M480.34,74.9658 C450.52,74.9658 403.1,74.9658 403.1,74.9658 C403.1,74.9658 403.1,773.6758 403.1,876.9058" fill="none" id="Dataset-to-Agent" style="stroke:#404040;stroke-width:1.2;"/><polygon fill="#404040" points="403.1,882.9058,407.1,873.9058,403.1,877.9058,399.1,873.9058,403.1,882.9058" style="stroke:#404040;stroke-width:1.2;"/><text fill="#000000" font-family="sans-serif" font-size="13" lengthAdjust="spacing" textLength="46.9663" x="356.1" y="454.8109">provider</text><text fill="#000000" font-family="sans-serif" font-size="13" lengthAdjust="spacing" textLength="19.5127" x="411.6291" y="871.9731">0..*</text></g><!--link Dataset to Agent--><g class="link" data-entity-1="ent0002" data-entity-2="ent0010" data-link-type="dependency" data-source-line="41" id="lnk28"><path codeLine="41" d="M480.31,66.9658 C446.46,66.9658 388.3,66.9658 388.3,66.9658 C388.3,66.9658 388.3,772.5458 388.3,876.7858" fill="none" id="Dataset-to-Agent-1" style="stroke:#404040;stroke-width:1.2;"/><polygon fill="#404040" points="388.3,882.7858,392.3,873.7858,388.3,877.7858,384.3,873.7858,388.3,882.7858" style="stroke:#404040;stroke-width:1.2;"/><text fill="#000000" font-family="sans-serif" font-size="13" lengthAdjust="spacing" textLength="40.46" x="347.3" y="425.3709">creator</text><text fill="#000000" font-family="sans-serif" font-size="13" lengthAdjust="spacing" textLength="19.5127" x="364.1327" y="872.1889">0..*</text></g><!--link Dataset to Agent--><g class="link" data-entity-1="ent0002" data-entity-2="ent0010" data-link-type="dependency" data-source-line="43" id="lnk30"><path codeLine="43" d="M480.23,70.9658 C448.35,70.9658 395.7,70.9658 395.7,70.9658 C395.7,70.9658 395.7,773.1158 395.7,876.8458" fill="none" id="Dataset-to-Agent-2" style="stroke:#404040;stroke-width:1.2;"/><polygon fill="#404040" points="395.7,882.8458,399.7,873.8458,395.7,877.8458,391.7,873.8458,395.7,882.8458" style="stroke:#404040;stroke-width:1.2;"/><text fill="#000000" font-family="sans-serif" font-size="13" lengthAdjust="spacing" textLength="52.7554" x="396.7" y="431.1309">publisher</text><text fill="#000000" font-family="sans-serif" font-size="13" lengthAdjust="spacing" textLength="21.6836" x="401.6244" y="871.8884">0..1</text></g><!--link Dataset to AbstractDistribution--><g class="link" data-entity-1="ent0002" data-entity-2="ent0003" data-link-type="dependency" data-source-line="40" id="lnk27"><path codeLine="40" d="M480.21,62.9658 C425.02,62.9658 293,62.9658 293,62.9658 C293,62.9658 293,272.2858 293,326.9658" fill="none" id="Dataset-to-AbstractDistribution" style="stroke:#404040;stroke-width:1.2;"/><polygon fill="#404040" points="293,332.9658,297,323.9658,293,327.9658,289,323.9658,293,332.9658" style="stroke:#404040;stroke-width:1.2;"/><text fill="#000000" font-family="sans-serif" font-size="13" lengthAdjust="spacing" textLength="62.8672" x="230" y="100.8609">distribution</text><text fill="#000000" font-family="sans-serif" font-size="13" lengthAdjust="spacing" textLength="19.5127" x="278.0164" y="322.0579">0..*</text></g><!--link Dataset to Contributor--><g class="link" data-entity-1="ent0002" data-entity-2="ent0014" data-link-type="dependency" data-source-line="42" id="lnk29"><path codeLine="42" d="M480.36,78.9658 C466.82,78.9658 452.5,78.9658 452.5,78.9658 C452.5,78.9658 452.5,520.5758 452.5,601.8758" fill="none" id="Dataset-to-Contributor" style="stroke:#404040;stroke-width:1.2;"/><polygon fill="#404040" points="452.5,607.8758,456.5,598.8758,452.5,602.8758,448.5,598.8758,452.5,607.8758" style="stroke:#404040;stroke-width:1.2;"/><text fill="#000000" font-family="sans-serif" font-size="13" lengthAdjust="spacing" textLength="61.4199" x="390.5" y="325.9909">contributor</text><text fill="#000000" font-family="sans-serif" font-size="13" lengthAdjust="spacing" textLength="19.5127" x="424.8687" y="596.9307">0..*</text></g><!--link Dataset to MonetaryGrant--><g class="link" data-entity-1="ent0002" data-entity-2="ent0018" data-link-type="dependency" data-source-line="44" id="lnk31"><path codeLine="44" d="M527.79,78.9658 C545.28,78.9658 566,78.9658 566,78.9658 C566,78.9658 566,520.5758 566,601.8758" fill="none" id="Dataset-to-MonetaryGrant" style="stroke:#404040;stroke-width:1.2;"/><polygon fill="#404040" points="566,607.8758,570,598.8758,566,602.8758,562,598.8758,566,607.8758" style="stroke:#404040;stroke-width:1.2;"/><text fill="#000000" font-family="sans-serif" font-size="13" lengthAdjust="spacing" textLength="42.6499" x="523" y="320.8109">funding</text><text fill="#000000" font-family="sans-serif" font-size="13" lengthAdjust="spacing" textLength="19.5127" x="544.4176" y="596.9307">0..*</text></g><!--link Dataset to ProvActivity--><g class="link" data-entity-1="ent0002" data-entity-2="ent0019" data-link-type="dependency" data-source-line="45" id="lnk32"><path codeLine="45" d="M527.78,74.9658 C564.79,74.9658 632,74.9658 632,74.9658 C632,74.9658 632,273.3058 632,326.7858" fill="none" id="Dataset-to-ProvActivity" style="stroke:#404040;stroke-width:1.2;"/><polygon fill="#404040" points="632,332.7858,636,323.7858,632,327.7858,628,323.7858,632,332.7858" style="stroke:#404040;stroke-width:1.2;"/><text fill="#000000" font-family="sans-serif" font-size="13" lengthAdjust="spacing" textLength="99.7217" x="532" y="148.2609">wasGeneratedBy</text><text fill="#000000" font-family="sans-serif" font-size="13" lengthAdjust="spacing" textLength="19.5127" x="609.4238" y="322.1889">0..*</text></g><!--link Dataset to DerivedFrom--><g class="link" data-entity-1="ent0002" data-entity-2="ent0020" data-link-type="dependency" data-source-line="46" id="lnk33"><path codeLine="46" d="M527.54,70.9658 C584.3,70.9658 724,70.9658 724,70.9658 C724,70.9658 724,273.2558 724,326.9558" fill="none" id="Dataset-to-DerivedFrom" style="stroke:#404040;stroke-width:1.2;"/><polygon fill="#404040" points="724,332.9558,728,323.9558,724,327.9558,720,323.9558,724,332.9558" style="stroke:#404040;stroke-width:1.2;"/><text fill="#000000" font-family="sans-serif" font-size="13" lengthAdjust="spacing" textLength="98.2427" x="625" y="100.2309">wasDerivedFrom</text><text fill="#000000" font-family="sans-serif" font-size="13" lengthAdjust="spacing" textLength="19.5127" x="701.1157" y="322.0437">0..*</text></g><!--link Dataset to CatalogRecord--><g class="link" data-entity-1="ent0002" data-entity-2="ent0021" data-link-type="dependency" data-source-line="47" id="lnk34"><path codeLine="47" d="M527.58,62.9658 C603.91,62.9658 839.33,62.9658 839.33,62.9658 C839.33,62.9658 839.33,272.2858 839.33,326.9658" fill="none" id="Dataset-to-CatalogRecord" style="stroke:#404040;stroke-width:1.2;"/><polygon fill="#404040" points="839.33,332.9658,843.33,323.9658,839.33,327.9658,835.33,323.9658,839.33,332.9658" style="stroke:#404040;stroke-width:1.2;"/><text fill="#000000" font-family="sans-serif" font-size="13" lengthAdjust="spacing" textLength="54.9136" x="763.46" y="59.4609">subjectOf</text><text fill="#000000" font-family="sans-serif" font-size="13" lengthAdjust="spacing" textLength="7.23" x="836.8355" y="322.0579">1</text></g><!--link CatalogRecord to Dataset--><g class="link" data-entity-1="ent0021" data-entity-2="ent0002" data-link-type="dependency" data-source-line="56" id="lnk43"><path codeLine="56" d="M810.67,332.7758 C810.67,278.2958 810.67,66.9658 810.67,66.9658 C810.67,66.9658 605.36,66.9658 533.55,66.9658" fill="none" id="CatalogRecord-to-Dataset" style="stroke:#404040;stroke-width:1.2;"/><polygon fill="#404040" points="527.55,66.9658,536.55,70.9658,532.55,66.9658,536.55,62.9658,527.55,66.9658" style="stroke:#404040;stroke-width:1.2;"/><text fill="#000000" font-family="sans-serif" font-size="13" lengthAdjust="spacing" textLength="32.5317" x="769.02" y="81.4609">about</text><text fill="#000000" font-family="sans-serif" font-size="13" lengthAdjust="spacing" textLength="21.6836" x="535.8897" y="61.6892">0..1</text></g><!--link Dataset to Reference--><g class="link" data-entity-1="ent0002" data-entity-2="ent0017" data-link-type="dependency" data-source-line="48" id="lnk35"><path codeLine="48" d="M504,82.9958 C504,128.8058 504,280.9258 504,326.8658" fill="none" id="Dataset-to-Reference" style="stroke:#404040;stroke-width:1.2;"/><polygon fill="#404040" points="504,332.8658,508,323.8658,504,327.8658,500,323.8658,504,332.8658" style="stroke:#404040;stroke-width:1.2;"/><text fill="#000000" font-family="sans-serif" font-size="13" lengthAdjust="spacing" textLength="40.4663" x="463" y="204.4209">license</text><text fill="#000000" font-family="sans-serif" font-size="13" lengthAdjust="spacing" textLength="19.5127" x="481.1117" y="321.9166">0..*</text></g><!--link DataDownload to Agent--><g class="link" data-entity-1="ent0004" data-entity-2="ent0010" data-link-type="dependency" data-source-line="49" id="lnk36"><path codeLine="49" d="M322.79,620.9658 C350.29,620.9658 380.9,620.9658 380.9,620.9658 C380.9,620.9658 380.9,823.2558 380.9,876.9558" fill="none" id="DataDownload-to-Agent" style="stroke:#404040;stroke-width:1.2;"/><polygon fill="#404040" points="380.9,882.9558,384.9,873.9558,380.9,877.9558,376.9,873.9558,380.9,882.9558" style="stroke:#404040;stroke-width:1.2;"/><text fill="#000000" font-family="sans-serif" font-size="13" lengthAdjust="spacing" textLength="46.9663" x="333.9" y="719.4009">provider</text><text fill="#000000" font-family="sans-serif" font-size="13" lengthAdjust="spacing" textLength="19.5127" x="345.7379" y="893.0008">0..*</text></g><!--link WebAPI to Action--><g class="link" data-entity-1="ent0005" data-entity-2="ent0006" data-link-type="dependency" data-source-line="50" id="lnk37"><path codeLine="50" d="M148.25,632.9958 C148.25,678.8058 148.25,830.9258 148.25,876.8658" fill="none" id="WebAPI-to-Action" style="stroke:#404040;stroke-width:1.2;"/><polygon fill="#404040" points="148.25,882.8658,152.25,873.8658,148.25,877.8658,144.25,873.8658,148.25,882.8658" style="stroke:#404040;stroke-width:1.2;"/><text fill="#000000" font-family="sans-serif" font-size="13" lengthAdjust="spacing" textLength="85.2808" x="62.25" y="754.4209">potentialAction</text><text fill="#000000" font-family="sans-serif" font-size="13" lengthAdjust="spacing" textLength="19.5127" x="126.7051" y="871.9166">0..*</text></g><!--link Action to EntryPoint--><g class="link" data-entity-1="ent0006" data-entity-2="ent0007" data-link-type="dependency" data-source-line="51" id="lnk38"><path codeLine="51" d="M125.44,895.9658 C95.31,895.9658 41,895.9658 41,895.9658 C41,895.9658 41,1098.2558 41,1151.9558" fill="none" id="Action-to-EntryPoint" style="stroke:#404040;stroke-width:1.2;"/><polygon fill="#404040" points="41,1157.9558,45,1148.9558,41,1152.9558,37,1148.9558,41,1157.9558" style="stroke:#404040;stroke-width:1.2;"/><text fill="#000000" font-family="sans-serif" font-size="13" lengthAdjust="spacing" textLength="33.2427" x="7" y="981.2409">target</text><text fill="#000000" font-family="sans-serif" font-size="13" lengthAdjust="spacing" textLength="7.23" x="32.5296" y="1147.0437">1</text></g><!--link Action to ActionResult--><g class="link" data-entity-1="ent0006" data-entity-2="ent0008" data-link-type="dependency" data-source-line="52" id="lnk39"><path codeLine="52" d="M145,907.9958 C145,953.8058 145,1105.9258 145,1151.8658" fill="none" id="Action-to-ActionResult" style="stroke:#404040;stroke-width:1.2;"/><polygon fill="#404040" points="145,1157.8658,149,1148.8658,145,1152.8658,141,1148.8658,145,1157.8658" style="stroke:#404040;stroke-width:1.2;"/><text fill="#000000" font-family="sans-serif" font-size="13" lengthAdjust="spacing" textLength="31.7891" x="113" y="1029.4209">result</text><text fill="#000000" font-family="sans-serif" font-size="13" lengthAdjust="spacing" textLength="21.6836" x="126.7469" y="1146.9166">0..1</text></g><!--link Action to PropertyValueSpecification--><g class="link" data-entity-1="ent0006" data-entity-2="ent0009" data-link-type="dependency" data-source-line="53" id="lnk40"><path codeLine="53" d="M164.66,895.9658 C177.54,895.9658 192,895.9658 192,895.9658 C192,895.9658 192,1098.2558 192,1151.9558" fill="none" id="Action-to-PropertyValueSpecification" style="stroke:#404040;stroke-width:1.2;"/><polygon fill="#404040" points="192,1157.9558,196,1148.9558,192,1152.9558,188,1148.9558,192,1157.9558" style="stroke:#404040;stroke-width:1.2;"/><text fill="#000000" font-family="sans-serif" font-size="13" lengthAdjust="spacing" textLength="61.4326" x="130" y="1009.7909">queryInput</text><text fill="#000000" font-family="sans-serif" font-size="13" lengthAdjust="spacing" textLength="19.5127" x="157.06" y="1151.2473">0..*</text></g><!--link Contributor to Agent--><g class="link" data-entity-1="ent0014" data-entity-2="ent0010" data-link-type="dependency" data-source-line="54" id="lnk41"><path codeLine="54" d="M440.25,633.0058 C440.25,685.8958 440.25,887.9658 440.25,887.9658 C440.25,887.9658 430.12,887.9658 416.52,887.9658" fill="none" id="Contributor-to-Agent" style="stroke:#404040;stroke-width:1.2;"/><polygon fill="#404040" points="410.52,887.9658,419.52,891.9658,415.52,887.9658,419.52,883.9658,410.52,887.9658" style="stroke:#404040;stroke-width:1.2;"/><text fill="#000000" font-family="sans-serif" font-size="13" lengthAdjust="spacing" textLength="61.4199" x="378.25" y="771.8509">contributor</text><text fill="#000000" font-family="sans-serif" font-size="13" lengthAdjust="spacing" textLength="21.6836" x="418.7275" y="901.6378">0..1</text></g><!--link MonetaryGrant to Agent--><g class="link" data-entity-1="ent0018" data-entity-2="ent0010" data-link-type="dependency" data-source-line="55" id="lnk42"><path codeLine="55" d="M563,633.2458 C563,687.1158 563,892.9658 563,892.9658 C563,892.9658 460.94,892.9658 416.63,892.9658" fill="none" id="MonetaryGrant-to-Agent" style="stroke:#404040;stroke-width:1.2;"/><polygon fill="#404040" points="410.63,892.9658,419.63,896.9658,415.63,892.9658,419.63,888.9658,410.63,892.9658" style="stroke:#404040;stroke-width:1.2;"/><text fill="#000000" font-family="sans-serif" font-size="13" lengthAdjust="spacing" textLength="36.8608" x="526" y="835.7909">funder</text><text fill="#000000" font-family="sans-serif" font-size="13" lengthAdjust="spacing" textLength="19.5127" x="418.9157" y="887.4144">0..*</text></g><!--link CatalogRecord to Agent--><g class="link" data-entity-1="ent0021" data-entity-2="ent0010" data-link-type="dependency" data-source-line="57" id="lnk44"><path codeLine="57" d="M825,358.0458 C825,440.2858 825,897.9658 825,897.9658 C825,897.9658 499.48,897.9658 416.61,897.9658" fill="none" id="CatalogRecord-to-Agent" style="stroke:#404040;stroke-width:1.2;"/><polygon fill="#404040" points="410.61,897.9658,419.61,901.9658,415.61,897.9658,419.61,893.9658,410.61,897.9658" style="stroke:#404040;stroke-width:1.2;"/><text fill="#000000" font-family="sans-serif" font-size="13" lengthAdjust="spacing" textLength="60.6963" x="764" y="831.7009">maintainer</text><text fill="#000000" font-family="sans-serif" font-size="13" lengthAdjust="spacing" textLength="21.6836" x="418.8428" y="914.4503">0..1</text></g><?plantuml-src VLLBRjim4Dth50DdLy21atvG24K1HxO2BueOIT6kAMfiiv59TKZPKDe2FKHEs9EK5lMXP2Km39EFZpF3DnyROJA4QB6A8qK8__u-WpeW7GGUWvr84RWWdg5Ruput9Unndo3fG3yAcJDYUz0xbggZa5lOi4oZTp8dKiUlEy4V9MeDLvVNtY4n-QWnX-ltCm-LAiKAzS5CI3HbZg38x9Htm3DcxVuAmBcALAO8BjxDJXyBtYXAaOPehAHv44y8LzV1do1mDYOBPfX6Cm6ceLx3HRoCbz4oO8asnBYf_KtczNuXxAz82YEKh2wE7S35uiDo7d_q7ItKKMQAfQst1cXTrkJlcCpNguhcbfOGnM-Zk27CUUUSZxbRIaFbMWdfdjPjXqHt_HvraHdFdWE6RjUaSYHJVcDPWGyvSh4HdBMXl7pSUZtJT8jrYDLg6DtQrbnZl5eE2P7DgZNNlTG7XkGxsZ8fdhg0VM3CSfLCHQtXUZ-ahb8RkdqhEcQtFHCxJSN95yiQgTpJp-3XnNlS8A7aMF7RtP3sHTcEOLJUsYvpSlIGCtL97KxfFeWw41yOrkG2IHmmZKdjNVrs-pFfR6bdQdkFt7QY4yz7MikZVVFfztJQQuvNQAuv0bSw5UAgn4Vy70TDYq-dds4okxnyCwdhBeJSljtEEnhbZ4KGGkfjNpFD2Pajcp6ANrMMsEtEo5TUg4MI2RqRZxMVyH0sXKpjb1wZzj8Tmf7fMvH8p61wKuvTy7DUyJsWpxVHzdCUWYwI7yZDtMRCSbVIePtx7ANzH-bDoDSoLiz8dyBh5ENAd9gHPGu9weCcHcykXc1LswBfKMhT_P4O0bMB8S_f-TBy2-5dWLIkP5wOm4_wI7hzAkXdSqI4Ktgj17snFQEDrY6mH9rylqHi3EwPLSD-hT7_?></g></svg>