<svg xmlns="http://www.w3.org/2000/svg" xmlns:xlink="http://www.w3.org/1999/xlink" contentStyleType="text/css" data-diagram-type="CLASS" height="503px" preserveAspectRatio="none" style="width:1426px;height:503px;background:#FFFFFF;" version="1.1" viewBox="0 0 1426 503" width="1426px" zoomAndPan="magnify"><?plantuml 1.2026.3?><defs/><g><g class="title" data-source-line="1"><text fill="#000000" font-family="sans-serif" font-size="14" font-weight="700" lengthAdjust="spacing" textLength="146.6992" x="636.2717" y="24.5332">CDIFCore &#8212; overview</text></g><!--class Dataset--><g class="entity" data-qualified-name="Dataset" data-source-line="12" id="ent0002"><rect fill="#FEFECE" height="25.0938" rx="2.5" ry="2.5" style="stroke:#404040;stroke-width:0.5;" width="47.3555" x="813.5" y="45.6094"/><text fill="#000000" font-family="sans-serif" font-size="12" lengthAdjust="spacing" textLength="41.3555" x="816.5" y="63.0664">Dataset</text></g><!--class AbstractDistribution--><g class="entity" data-qualified-name="AbstractDistribution" data-source-line="13" id="ent0003"><rect fill="#D6EAF8" height="25.0938" rx="2.5" ry="2.5" style="stroke:#404040;stroke-width:0.5;" width="110.0391" x="259" y="148.6094"/><text fill="#000000" font-family="sans-serif" font-size="12" font-style="italic" lengthAdjust="spacing" textLength="104.0391" x="262" y="166.0664">AbstractDistribution</text></g><!--class DataDownload--><g class="entity" data-qualified-name="DataDownload" data-source-line="14" id="ent0004"><rect fill="#FEFECE" height="25.0938" rx="2.5" ry="2.5" style="stroke:#404040;stroke-width:0.5;" width="84.7148" x="283.5" y="258.6094"/><text fill="#000000" font-family="sans-serif" font-size="12" lengthAdjust="spacing" textLength="78.7148" x="286.5" y="276.0664">DataDownload</text></g><!--class WebAPI--><g class="entity" data-qualified-name="WebAPI" data-source-line="15" id="ent0005"><rect fill="#D6EAF8" height="25.0938" rx="2.5" ry="2.5" style="stroke:#404040;stroke-width:0.5;" width="50.0156" x="198" y="258.6094"/><text fill="#000000" font-family="sans-serif" font-size="12" lengthAdjust="spacing" textLength="44.0156" x="201" y="276.0664">WebAPI</text></g><!--class Action--><g class="entity" data-qualified-name="Action" data-source-line="16" id="ent0006"><rect fill="#D6EAF8" height="25.0938" rx="2.5" ry="2.5" style="stroke:#404040;stroke-width:0.5;" width="39.3516" x="203.5" y="361.6094"/><text fill="#000000" font-family="sans-serif" font-size="12" lengthAdjust="spacing" textLength="33.3516" x="206.5" y="379.0664">Action</text></g><!--class EntryPoint--><g class="entity" data-qualified-name="EntryPoint" data-source-line="17" id="ent0007"><rect fill="#D6EAF8" height="25.0938" rx="2.5" ry="2.5" style="stroke:#404040;stroke-width:0.5;" width="61.3594" x="192.5" y="464.6094"/><text fill="#000000" font-family="sans-serif" font-size="12" lengthAdjust="spacing" textLength="55.3594" x="195.5" y="482.0664">EntryPoint</text></g><!--class ActionResult--><g class="entity" data-qualified-name="ActionResult" data-source-line="18" id="ent0008"><rect fill="#D6EAF8" height="25.0938" rx="2.5" ry="2.5" style="stroke:#404040;stroke-width:0.5;" width="73.3652" x="288.5" y="464.6094"/><text fill="#000000" font-family="sans-serif" font-size="12" lengthAdjust="spacing" textLength="67.3652" x="291.5" y="482.0664">ActionResult</text></g><!--class PropertyValueSpecification--><g class="entity" data-qualified-name="PropertyValueSpecification" data-source-line="19" id="ent0009"><rect fill="#D6EAF8" height="25.0938" rx="2.5" ry="2.5" style="stroke:#404040;stroke-width:0.5;" width="150.082" x="7" y="464.6094"/><text fill="#000000" font-family="sans-serif" font-size="12" lengthAdjust="spacing" textLength="144.082" x="10" y="482.0664">PropertyValueSpecification</text></g><!--class Agent--><g class="entity" data-qualified-name="Agent" data-source-line="20" id="ent0010"><rect fill="#D6EAF8" height="25.0938" rx="2.5" ry="2.5" style="stroke:#404040;stroke-width:0.5;" width="37.3594" x="624.5" y="361.6094"/><text fill="#000000" font-family="sans-serif" font-size="12" font-style="italic" lengthAdjust="spacing" textLength="31.3594" x="627.5" y="379.0664">Agent</text></g><!--class Person--><g class="entity" data-qualified-name="Person" data-source-line="21" id="ent0011"><rect fill="#D6EAF8" height="25.0938" rx="2.5" ry="2.5" style="stroke:#404040;stroke-width:0.5;" width="44.0215" x="574" y="464.6094"/><text fill="#000000" font-family="sans-serif" font-size="12" lengthAdjust="spacing" textLength="38.0215" x="577" y="482.0664">Person</text></g><!--class ContactPoint--><g class="entity" data-qualified-name="ContactPoint" data-source-line="22" id="ent0012"><rect fill="#D6EAF8" height="25.0938" rx="2.5" ry="2.5" style="stroke:#404040;stroke-width:0.5;" width="74.707" x="134.5" y="45.6094"/><text fill="#000000" font-family="sans-serif" font-size="12" lengthAdjust="spacing" textLength="68.707" x="137.5" y="63.0664">ContactPoint</text></g><!--class Organization--><g class="entity" data-qualified-name="Organization" data-source-line="23" id="ent0013"><rect fill="#D6EAF8" height="25.0938" rx="2.5" ry="2.5" style="stroke:#404040;stroke-width:0.5;" width="74.0391" x="653" y="464.6094"/><text fill="#000000" font-family="sans-serif" font-size="12" lengthAdjust="spacing" textLength="68.0391" x="656" y="482.0664">Organization</text></g><!--class Contributor--><g class="entity" data-qualified-name="Contributor" data-source-line="24" id="ent0014"><rect fill="#D6EAF8" height="25.0938" rx="2.5" ry="2.5" style="stroke:#404040;stroke-width:0.5;" width="65.3613" x="487.5" y="203.6094"/><text fill="#000000" font-family="sans-serif" font-size="12" lengthAdjust="spacing" textLength="59.3613" x="490.5" y="221.0664">Contributor</text></g><!--class DefinedTerm--><g class="entity" data-qualified-name="DefinedTerm" data-source-line="25" id="ent0015"><rect fill="#FEFECE" height="25.0938" rx="2.5" ry="2.5" style="stroke:#404040;stroke-width:0.5;" width="75.3574" x="990.5" y="148.6094"/><text fill="#000000" font-family="sans-serif" font-size="12" lengthAdjust="spacing" textLength="69.3574" x="993.5" y="166.0664">DefinedTerm</text></g><!--class Identifier--><g class="entity" data-qualified-name="Identifier" data-source-line="26" id="ent0016"><rect fill="#FEFECE" height="25.0938" rx="2.5" ry="2.5" style="stroke:#404040;stroke-width:0.5;" width="52.0254" x="245" y="45.6094"/><text fill="#000000" font-family="sans-serif" font-size="12" lengthAdjust="spacing" textLength="46.0254" x="248" y="63.0664">Identifier</text></g><!--class AdditionalProperty--><g class="entity" data-qualified-name="AdditionalProperty" data-source-line="27" id="ent0017"><rect fill="#D6EAF8" height="25.0938" rx="2.5" ry="2.5" style="stroke:#404040;stroke-width:0.5;" width="104.0566" x="120" y="148.6094"/><text fill="#000000" font-family="sans-serif" font-size="12" lengthAdjust="spacing" textLength="98.0566" x="123" y="166.0664">AdditionalProperty</text></g><!--class Reference--><g class="entity" data-qualified-name="Reference" data-source-line="28" id="ent0018"><rect fill="#D6EAF8" height="25.0938" rx="2.5" ry="2.5" style="stroke:#404040;stroke-width:0.5;" width="61.3652" x="1100.5" y="148.6094"/><text fill="#000000" font-family="sans-serif" font-size="12" lengthAdjust="spacing" textLength="55.3652" x="1103.5" y="166.0664">Reference</text></g><!--class MonetaryGrant--><g class="entity" data-qualified-name="MonetaryGrant" data-source-line="29" id="ent0019"><rect fill="#D6EAF8" height="25.0938" rx="2.5" ry="2.5" style="stroke:#404040;stroke-width:0.5;" width="86.0332" x="593" y="203.6094"/><text fill="#000000" font-family="sans-serif" font-size="12" lengthAdjust="spacing" textLength="80.0332" x="596" y="221.0664">MonetaryGrant</text></g><!--class ProvActivity--><g class="entity" data-qualified-name="ProvActivity" data-source-line="30" id="ent0020"><rect fill="#FEFECE" height="25.0938" rx="2.5" ry="2.5" style="stroke:#404040;stroke-width:0.5;" width="68.6777" x="1196.5" y="148.6094"/><text fill="#000000" font-family="sans-serif" font-size="12" lengthAdjust="spacing" textLength="62.6777" x="1199.5" y="166.0664">ProvActivity</text></g><!--class DerivedFrom--><g class="entity" data-qualified-name="DerivedFrom" data-source-line="31" id="ent0021"><rect fill="#D6EAF8" height="25.0938" rx="2.5" ry="2.5" style="stroke:#404040;stroke-width:0.5;" width="75.3457" x="1325.5" y="148.6094"/><text fill="#000000" font-family="sans-serif" font-size="12" lengthAdjust="spacing" textLength="69.3457" x="1328.5" y="166.0664">DerivedFrom</text></g><!--class CatalogRecord--><g class="entity" data-qualified-name="CatalogRecord" data-source-line="32" id="ent0022"><rect fill="#D6EAF8" height="25.0938" rx="2.5" ry="2.5" style="stroke:#404040;stroke-width:0.5;" width="86.0449" x="708" y="148.6094"/><text fill="#000000" font-family="sans-serif" font-size="12" lengthAdjust="spacing" textLength="80.0449" x="711" y="166.0664">CatalogRecord</text></g><!--reverse link AbstractDistribution to DataDownload--><g class="link" data-entity-1="ent0003" data-entity-2="ent0004" data-link-type="extension" data-source-line="33" id="lnk23"><path codeLine="33" d="M317.2697,191.5591 C319.5697,212.2391 322.37,237.4494 324.69,258.3094" fill="none" id="AbstractDistribution-backto-DataDownload" style="stroke:#404040;stroke-width:1.2;"/><polygon fill="none" points="315.28,173.6694,311.3064,192.2223,323.2329,190.8958,315.28,173.6694" style="stroke:#404040;stroke-width:1.2;"/></g><!--reverse link AbstractDistribution to WebAPI--><g class="link" data-entity-1="ent0003" data-entity-2="ent0005" data-link-type="extension" data-source-line="34" id="lnk24"><path codeLine="34" d="M292.6635,187.4361 C275.2435,208.1161 250.52,237.4494 232.94,258.3094" fill="none" id="AbstractDistribution-backto-WebAPI" style="stroke:#404040;stroke-width:1.2;"/><polygon fill="none" points="304.26,173.6694,288.0746,183.5706,297.2524,191.3015,304.26,173.6694" style="stroke:#404040;stroke-width:1.2;"/></g><!--reverse link Agent to Person--><g class="link" data-entity-1="ent0010" data-entity-2="ent0011" data-link-type="extension" data-source-line="35" id="lnk25"><path codeLine="35" d="M630.0114,403.0169 C620.9914,422.3869 610.55,444.8494 601.47,464.3494" fill="none" id="Agent-backto-Person" style="stroke:#404040;stroke-width:1.2;"/><polygon fill="none" points="637.61,386.6994,624.5723,400.4841,635.4506,405.5498,637.61,386.6994" style="stroke:#404040;stroke-width:1.2;"/></g><!--reverse link Agent to Organization--><g class="link" data-entity-1="ent0010" data-entity-2="ent0013" data-link-type="extension" data-source-line="36" id="lnk26"><path codeLine="36" d="M655.9886,403.0169 C665.0086,422.3869 675.45,444.8494 684.53,464.3494" fill="none" id="Agent-backto-Organization" style="stroke:#404040;stroke-width:1.2;"/><polygon fill="none" points="648.39,386.6994,650.5494,405.5498,661.4277,400.4841,648.39,386.6994" style="stroke:#404040;stroke-width:1.2;"/></g><!--link Dataset to Agent--><g class="link" data-entity-1="ent0002" data-entity-2="ent0010" data-link-type="dependency" data-source-line="37" id="lnk27"><path codeLine="37" d="M839.85,70.6194 C842.39,82.6894 845.26,102.1394 842,118.6094 C826.6,196.4194 823.95,221.9894 774,283.6094 C742.43,322.5494 694.95,348.7648 667.01,362.1648" fill="none" id="Dataset-to-Agent" style="stroke:#404040;stroke-width:1.2;"/><polygon fill="#404040" points="661.6,364.7594,671.4447,364.4741,666.1083,362.5972,667.9852,357.2608,661.6,364.7594" style="stroke:#404040;stroke-width:1.2;"/><text fill="#000000" font-family="sans-serif" font-size="13" lengthAdjust="spacing" textLength="46.9663" x="824" y="221.6045">provider</text><text fill="#000000" font-family="sans-serif" font-size="13" lengthAdjust="spacing" textLength="19.5127" x="669.8769" y="357.1958">0..*</text></g><!--link Dataset to Agent--><g class="link" data-entity-1="ent0002" data-entity-2="ent0010" data-link-type="dependency" data-source-line="39" id="lnk29"><path codeLine="39" d="M848.82,70.6794 C855.96,78.4294 864.51,89.2694 869,100.6094 C890,153.6694 902.83,176.7594 879,228.6094 C837.68,318.5394 715.8707,355.884 667.5907,367.604" fill="none" id="Dataset-to-Agent-1" style="stroke:#404040;stroke-width:1.2;"/><polygon fill="#404040" points="661.76,369.0194,671.4496,370.7834,666.6189,367.8399,669.5624,363.0092,661.76,369.0194" style="stroke:#404040;stroke-width:1.2;"/><text fill="#000000" font-family="sans-serif" font-size="13" lengthAdjust="spacing" textLength="40.46" x="890" y="221.6045">creator</text><text fill="#000000" font-family="sans-serif" font-size="13" lengthAdjust="spacing" textLength="19.5127" x="669.7297" y="383.3692">0..*</text></g><!--link Dataset to Agent--><g class="link" data-entity-1="ent0002" data-entity-2="ent0010" data-link-type="dependency" data-source-line="41" id="lnk31"><path codeLine="41" d="M813.44,58.4794 C762.72,57.9694 640.34,61.2794 548,100.6094 C479.54,129.7694 448.64,136.7394 416,203.6094 C369.51,298.8594 556.3181,352.4491 618.4281,367.4691" fill="none" id="Dataset-to-Agent-2" style="stroke:#404040;stroke-width:1.2;"/><polygon fill="#404040" points="624.26,368.8794,616.4524,362.876,619.4001,367.7041,614.5719,370.6518,624.26,368.8794" style="stroke:#404040;stroke-width:1.2;"/><text fill="#000000" font-family="sans-serif" font-size="13" lengthAdjust="spacing" textLength="52.7554" x="417" y="221.6045">publisher</text><text fill="#000000" font-family="sans-serif" font-size="13" lengthAdjust="spacing" textLength="21.6836" x="594.7184" y="362.526">0..1</text></g><!--link Dataset to AbstractDistribution--><g class="link" data-entity-1="ent0002" data-entity-2="ent0003" data-link-type="dependency" data-source-line="38" id="lnk28"><path codeLine="38" d="M813.38,59.5094 C718.69,61.3294 369.81,70.0694 332,100.6094 C317.73,112.1394 314.7178,128.5945 314.1478,142.3845" fill="none" id="Dataset-to-AbstractDistribution" style="stroke:#404040;stroke-width:1.2;"/><polygon fill="#404040" points="313.9,148.3794,318.2683,139.5522,314.1065,143.3836,310.2751,139.2219,313.9,148.3794" style="stroke:#404040;stroke-width:1.2;"/><text fill="#000000" font-family="sans-serif" font-size="13" lengthAdjust="spacing" textLength="62.8672" x="333" y="115.1045">distribution</text><text fill="#000000" font-family="sans-serif" font-size="13" lengthAdjust="spacing" textLength="19.5127" x="291.2132" y="137.7628">0..*</text></g><!--link Dataset to Contributor--><g class="link" data-entity-1="ent0002" data-entity-2="ent0014" data-link-type="dependency" data-source-line="40" id="lnk30"><path codeLine="40" d="M813.42,60.0194 C755.99,62.6694 610.77,72.0994 573,100.6094 C538.73,126.4794 526.9091,173.94 522.7591,197.54" fill="none" id="Dataset-to-Contributor" style="stroke:#404040;stroke-width:1.2;"/><polygon fill="#404040" points="521.72,203.4494,527.2183,195.2781,522.586,198.5249,519.3392,193.8926,521.72,203.4494" style="stroke:#404040;stroke-width:1.2;"/><text fill="#000000" font-family="sans-serif" font-size="13" lengthAdjust="spacing" textLength="61.4199" x="574" y="115.1045">contributor</text><text fill="#000000" font-family="sans-serif" font-size="13" lengthAdjust="spacing" textLength="19.5127" x="499.6864" y="192.8604">0..*</text></g><!--link Dataset to MonetaryGrant--><g class="link" data-entity-1="ent0002" data-entity-2="ent0019" data-link-type="dependency" data-source-line="42" id="lnk32"><path codeLine="42" d="M813.25,61.2794 C769,65.8194 676.44,77.8494 655,100.6094 C628.06,129.2094 630.3632,174.7299 633.3532,197.6299" fill="none" id="Dataset-to-MonetaryGrant" style="stroke:#404040;stroke-width:1.2;"/><polygon fill="#404040" points="634.13,203.5794,636.9311,194.1372,633.4827,198.6215,628.9984,195.173,634.13,203.5794" style="stroke:#404040;stroke-width:1.2;"/><text fill="#000000" font-family="sans-serif" font-size="13" lengthAdjust="spacing" textLength="42.6499" x="656" y="115.1045">funding</text><text fill="#000000" font-family="sans-serif" font-size="13" lengthAdjust="spacing" textLength="19.5127" x="610.5388" y="192.659">0..*</text></g><!--link Dataset to ProvActivity--><g class="link" data-entity-1="ent0002" data-entity-2="ent0020" data-link-type="dependency" data-source-line="43" id="lnk33"><path codeLine="43" d="M860.7,59.2694 C911.79,60.2894 1035.47,66.4094 1132,100.6094 C1164.32,112.0594 1192.8263,131.1777 1211.3863,144.9877" fill="none" id="Dataset-to-ProvActivity" style="stroke:#404040;stroke-width:1.2;"/><polygon fill="#404040" points="1216.2,148.5694,1211.3673,139.9877,1212.1886,145.5846,1206.5917,146.4059,1216.2,148.5694" style="stroke:#404040;stroke-width:1.2;"/><text fill="#000000" font-family="sans-serif" font-size="13" lengthAdjust="spacing" textLength="99.7217" x="1171" y="115.1045">wasGeneratedBy</text><text fill="#000000" font-family="sans-serif" font-size="13" lengthAdjust="spacing" textLength="19.5127" x="1187.3485" y="137.6449">0..*</text></g><!--link Dataset to DerivedFrom--><g class="link" data-entity-1="ent0002" data-entity-2="ent0021" data-link-type="dependency" data-source-line="44" id="lnk34"><path codeLine="44" d="M860.56,59.7194 C940.55,62.0494 1201.04,71.7094 1279,100.6094 C1307.82,111.2894 1331.4162,130.4151 1346.6962,144.4851" fill="none" id="Dataset-to-DerivedFrom" style="stroke:#404040;stroke-width:1.2;"/><polygon fill="#404040" points="1351.11,148.5494,1347.1988,139.5104,1347.4318,145.1625,1341.7798,145.3955,1351.11,148.5494" style="stroke:#404040;stroke-width:1.2;"/><text fill="#000000" font-family="sans-serif" font-size="13" lengthAdjust="spacing" textLength="98.2427" x="1312" y="115.1045">wasDerivedFrom</text><text fill="#000000" font-family="sans-serif" font-size="13" lengthAdjust="spacing" textLength="19.5127" x="1323.3211" y="137.6167">0..*</text></g><!--link Dataset to CatalogRecord--><g class="link" data-entity-1="ent0002" data-entity-2="ent0022" data-link-type="dependency" data-source-line="45" id="lnk35"><path codeLine="45" d="M813.29,59.1094 C783.56,60.5494 733.63,68.0294 710,100.6094 C698.07,117.0594 712.8712,132.9045 728.8612,144.9745" fill="none" id="Dataset-to-CatalogRecord" style="stroke:#404040;stroke-width:1.2;"/><polygon fill="#404040" points="733.65,148.5894,728.8766,139.9746,729.6593,145.577,724.0569,146.3597,733.65,148.5894" style="stroke:#404040;stroke-width:1.2;"/><text fill="#000000" font-family="sans-serif" font-size="13" lengthAdjust="spacing" textLength="54.9136" x="711" y="115.1045">subjectOf</text><text fill="#000000" font-family="sans-serif" font-size="13" lengthAdjust="spacing" textLength="7.23" x="718.0875" y="137.6732">1</text></g><!--link CatalogRecord to Dataset--><g class="link" data-entity-1="ent0022" data-entity-2="ent0002" data-link-type="dependency" data-source-line="55" id="lnk45"><path codeLine="55" d="M761.02,148.3494 C777.62,128.8494 806.7393,94.6369 823.2393,75.2669" fill="none" id="CatalogRecord-to-Dataset" style="stroke:#404040;stroke-width:1.2;"/><polygon fill="#404040" points="827.13,70.6994,818.2489,74.9568,823.8877,74.5056,824.3389,80.1445,827.13,70.6994" style="stroke:#404040;stroke-width:1.2;"/><text fill="#000000" font-family="sans-serif" font-size="13" lengthAdjust="spacing" textLength="32.5317" x="801" y="115.1045">about</text><text fill="#000000" font-family="sans-serif" font-size="13" lengthAdjust="spacing" textLength="21.6836" x="798.4265" y="92.0936">0..1</text></g><!--link Dataset to DefinedTerm--><g class="link" data-entity-1="ent0002" data-entity-2="ent0015" data-link-type="dependency" data-source-line="46" id="lnk36"><path codeLine="46" d="M860.54,63.7294 C886.82,69.5794 930.01,81.2894 963,100.6094 C985.18,113.5994 1002.2467,130.6812 1014.1067,143.9812" fill="none" id="Dataset-to-DefinedTerm" style="stroke:#404040;stroke-width:1.2;"/><polygon fill="#404040" points="1018.1,148.4594,1015.0955,139.08,1014.7723,144.7276,1009.1247,144.4044,1018.1,148.4594" style="stroke:#404040;stroke-width:1.2;"/><text fill="#000000" font-family="sans-serif" font-size="13" lengthAdjust="spacing" textLength="54.9072" x="988" y="115.1045">keywords</text><text fill="#000000" font-family="sans-serif" font-size="13" lengthAdjust="spacing" textLength="19.5127" x="991.4918" y="137.8743">0..*</text></g><!--link Dataset to Reference--><g class="link" data-entity-1="ent0002" data-entity-2="ent0018" data-link-type="dependency" data-source-line="47" id="lnk37"><path codeLine="47" d="M860.82,60.2794 C901.46,63.0194 986.08,71.9694 1051,100.6094 C1077.92,112.4894 1099.9721,130.7479 1114.7021,144.4179" fill="none" id="Dataset-to-Reference" style="stroke:#404040;stroke-width:1.2;"/><polygon fill="#404040" points="1119.1,148.4994,1115.2241,139.4453,1115.4351,145.0982,1109.7821,145.3092,1119.1,148.4994" style="stroke:#404040;stroke-width:1.2;"/><text fill="#000000" font-family="sans-serif" font-size="13" lengthAdjust="spacing" textLength="40.4663" x="1083" y="115.1045">license</text><text fill="#000000" font-family="sans-serif" font-size="13" lengthAdjust="spacing" textLength="19.5127" x="1091.3029" y="137.546">0..*</text></g><!--link DataDownload to Agent--><g class="link" data-entity-1="ent0004" data-entity-2="ent0010" data-link-type="dependency" data-source-line="48" id="lnk38"><path codeLine="48" d="M326.84,283.7694 C328.5,297.4794 333.42,319.8594 348,331.6094 C390.89,366.1694 560.6308,371.8487 618.4608,372.8187" fill="none" id="DataDownload-to-Agent" style="stroke:#404040;stroke-width:1.2;"/><polygon fill="#404040" points="624.46,372.9194,615.5283,368.769,619.4607,372.8355,615.3942,376.7679,624.46,372.9194" style="stroke:#404040;stroke-width:1.2;"/><text fill="#000000" font-family="sans-serif" font-size="13" lengthAdjust="spacing" textLength="46.9663" x="349" y="328.1045">provider</text><text fill="#000000" font-family="sans-serif" font-size="13" lengthAdjust="spacing" textLength="19.5127" x="596.8962" y="388.5395">0..*</text></g><!--link WebAPI to Action--><g class="link" data-entity-1="ent0005" data-entity-2="ent0006" data-link-type="dependency" data-source-line="49" id="lnk39"><path codeLine="49" d="M222.2,283.9594 C221.48,295.9694 220.6,315.0794 221,331.6094 C221.24,341.7094 221.4816,347.1789 221.9516,355.4989" fill="none" id="WebAPI-to-Action" style="stroke:#404040;stroke-width:1.2;"/><polygon fill="#404040" points="222.29,361.4894,225.776,352.2781,222.008,356.4973,217.7888,352.7293,222.29,361.4894" style="stroke:#404040;stroke-width:1.2;"/><text fill="#000000" font-family="sans-serif" font-size="13" lengthAdjust="spacing" textLength="85.2808" x="222" y="328.1045">potentialAction</text><text fill="#000000" font-family="sans-serif" font-size="13" lengthAdjust="spacing" textLength="19.5127" x="199.1116" y="350.5319">0..*</text></g><!--link Action to EntryPoint--><g class="link" data-entity-1="ent0006" data-entity-2="ent0007" data-link-type="dependency" data-source-line="50" id="lnk40"><path codeLine="50" d="M223,386.6994 C223,406.0694 223,438.8494 223,458.3494" fill="none" id="Action-to-EntryPoint" style="stroke:#404040;stroke-width:1.2;"/><polygon fill="#404040" points="223,464.3494,227,455.3494,223,459.3494,219,455.3494,223,464.3494" style="stroke:#404040;stroke-width:1.2;"/><text fill="#000000" font-family="sans-serif" font-size="13" lengthAdjust="spacing" textLength="33.2427" x="224" y="431.1045">target</text><text fill="#000000" font-family="sans-serif" font-size="13" lengthAdjust="spacing" textLength="7.23" x="214.5964" y="453.721">1</text></g><!--link Action to ActionResult--><g class="link" data-entity-1="ent0006" data-entity-2="ent0008" data-link-type="dependency" data-source-line="51" id="lnk41"><path codeLine="51" d="M235.12,386.6694 C243.77,394.9494 255.66,406.4094 266,416.6094 C282.57,432.9594 297.2666,447.8279 309.1166,459.8979" fill="none" id="Action-to-ActionResult" style="stroke:#404040;stroke-width:1.2;"/><polygon fill="#404040" points="313.32,464.1794,309.8692,454.9549,309.8171,460.6115,304.1605,460.5594,313.32,464.1794" style="stroke:#404040;stroke-width:1.2;"/><text fill="#000000" font-family="sans-serif" font-size="13" lengthAdjust="spacing" textLength="31.7891" x="285" y="431.1045">result</text><text fill="#000000" font-family="sans-serif" font-size="13" lengthAdjust="spacing" textLength="21.6836" x="283.9246" y="453.7441">0..1</text></g><!--link Action to PropertyValueSpecification--><g class="link" data-entity-1="ent0006" data-entity-2="ent0009" data-link-type="dependency" data-source-line="52" id="lnk42"><path codeLine="52" d="M203.45,385.3294 C188.86,393.2394 168.66,404.7994 152,416.6094 C130.66,431.7394 112.3366,447.8273 98.7666,460.3673" fill="none" id="Action-to-PropertyValueSpecification" style="stroke:#404040;stroke-width:1.2;"/><polygon fill="#404040" points="94.36,464.4394,103.6846,461.2689,98.0321,461.046,98.2551,455.3935,94.36,464.4394" style="stroke:#404040;stroke-width:1.2;"/><text fill="#000000" font-family="sans-serif" font-size="13" lengthAdjust="spacing" textLength="61.4326" x="153" y="431.1045">queryInput</text><text fill="#000000" font-family="sans-serif" font-size="13" lengthAdjust="spacing" textLength="19.5127" x="76.5709" y="453.8464">0..*</text></g><!--link Contributor to Agent--><g class="link" data-entity-1="ent0014" data-entity-2="ent0010" data-link-type="dependency" data-source-line="53" id="lnk43"><path codeLine="53" d="M527.68,228.6294 C536.75,242.0694 552.44,264.8394 567,283.6094 C589.36,312.4394 613.6197,340.2286 628.5897,357.0386" fill="none" id="Contributor-to-Agent" style="stroke:#404040;stroke-width:1.2;"/><polygon fill="#404040" points="632.58,361.5194,629.5817,352.138,629.2547,357.7854,623.6073,357.4584,632.58,361.5194" style="stroke:#404040;stroke-width:1.2;"/><text fill="#000000" font-family="sans-serif" font-size="13" lengthAdjust="spacing" textLength="61.4199" x="568" y="276.6045">contributor</text><text fill="#000000" font-family="sans-serif" font-size="13" lengthAdjust="spacing" textLength="21.6836" x="632.6799" y="350.5743">0..1</text></g><!--link MonetaryGrant to Agent--><g class="link" data-entity-1="ent0019" data-entity-2="ent0010" data-link-type="dependency" data-source-line="54" id="lnk44"><path codeLine="54" d="M636.53,228.8394 C637.82,257.7494 640.8897,326.2055 642.1997,355.2555" fill="none" id="MonetaryGrant-to-Agent" style="stroke:#404040;stroke-width:1.2;"/><polygon fill="#404040" points="642.47,361.2494,646.0605,352.0783,642.2448,356.2545,638.0686,352.4387,642.47,361.2494" style="stroke:#404040;stroke-width:1.2;"/><text fill="#000000" font-family="sans-serif" font-size="13" lengthAdjust="spacing" textLength="36.8608" x="640" y="276.6045">funder</text><text fill="#000000" font-family="sans-serif" font-size="13" lengthAdjust="spacing" textLength="19.5127" x="619.6753" y="350.8408">0..*</text></g><!--link CatalogRecord to Agent--><g class="link" data-entity-1="ent0022" data-entity-2="ent0010" data-link-type="dependency" data-source-line="56" id="lnk46"><path codeLine="56" d="M745.55,173.7494 C732.53,201.4094 698.35,273.1394 667,331.6094 C661.49,341.8794 657.8912,348.169 652.9912,356.429" fill="none" id="CatalogRecord-to-Agent" style="stroke:#404040;stroke-width:1.2;"/><polygon fill="#404040" points="649.93,361.5894,657.962,355.8897,652.481,357.2891,651.0816,351.8081,649.93,361.5894" style="stroke:#404040;stroke-width:1.2;"/><text fill="#000000" font-family="sans-serif" font-size="13" lengthAdjust="spacing" textLength="60.6963" x="705" y="276.6045">maintainer</text><text fill="#000000" font-family="sans-serif" font-size="13" lengthAdjust="spacing" textLength="21.6836" x="657.1867" y="350.6732">0..1</text></g><?plantuml-src VLNRRjim37ttLn39su0KRJ4CWp4CI7CfyZ2qQ8ljMPQPH8iZUPISmDq6x2FsXVkIAPOligC6GH3nw8YaU2Z629CXpEQhvKmHmhy_Vq4Ta0u2Zz5Mf0XS4C_GhN6VcnBsk4-GTAHtGkQCs1xqbgNgAEG6rYpJwErCYTJnPIluJgBMS7DrwstoZ5diPmIEDbEP8XY_lpvzB7YdA4KQeaibpRDuHRYvZNv7aVCncZF3D9eHC0tr6iRBnN8nMqGiqOOODtMyqRIsvyB-YgGmGidgO6W3nlCFY-doenzeheuoKonjepL06x8cVyDa-hYgQ6uvz3RbNN0U2hUGXif79QIxMcU6FJsXBZBZ-NF0aFn8AaSovLUM5VYS8nThmLcRojlRhQEpccwmJh5QdGMq_T8uhvP3miogQjrrD_M18Vc1DaoArovX7mXvhiHKr3gkxJDjSIqafYz8UoTjPm-LNQNsbhOiw9nsvf0uJLDnIejbJLLTbSxWOJ9Fk4P2oR7YjzQGzaL9D8pAUs9rvNf8GFd3gJCEeax41uQvpv740TCbgQOUhNrMPViAChLvGcuVhQkpZxJqu1Fxz6iowRsZ2pJtZYBNPHNY6if7_7Q8ccamcNo6qVNLrRjHtQ8nvFRkTgnHa1FA88RKCo-vveJCTbY8uZUW9NRM6Vd6IxL8Cg6tuLpxYiUmBcHgXt68sfCxXYFJzoYHcC7qhWmTy3Ml-1xGvzji-vh7e8laEtBpi0vxxbvN33iiZ_QG3Z6xveyX4nob_OlfZTrBsjQ3rwVmMinScTEpPPb3edgZkOqtR6EmzTsWwL5gXVmv6mDLYo7FLVwjeHh3ZmAfNCcyC97V7e56yFkbhtkW2AT6i2Neo-8vRMeT0qlKAVPRnCRXdjbgsAzr-Xy0?></g></svg>