<svg xmlns="http://www.w3.org/2000/svg" xmlns:xlink="http://www.w3.org/1999/xlink" contentStyleType="text/css" data-diagram-type="CLASS" height="202px" preserveAspectRatio="none" style="width:2146px;height:202px;background:#FFFFFF;" version="1.1" viewBox="0 0 2146 202" width="2146px" zoomAndPan="magnify"><?plantuml 1.2026.3?><defs/><g><g class="title" data-source-line="1"><text fill="#000000" font-family="sans-serif" font-size="14" font-weight="700" lengthAdjust="spacing" textLength="71.5723" x="1033.9863" y="24.5332">XsdAnyUri</text></g><!--class XsdAnyUri--><g class="entity" data-qualified-name="XsdAnyUri" data-source-line="12" id="ent0002"><rect fill="#FAE5D3" height="40.1875" rx="2.5" ry="2.5" style="stroke:#404040;stroke-width:0.5;" width="65.3809" x="1041" y="148.6094"/><text fill="#000000" font-family="sans-serif" font-size="12" font-style="italic" lengthAdjust="spacing" textLength="63.3809" x="1042" y="166.0664">&#171;dataType&#187;</text><text fill="#000000" font-family="sans-serif" font-size="12" lengthAdjust="spacing" textLength="56.6836" x="1045.3486" y="181.1602">XsdAnyUri</text></g><!--class Dataset--><g class="entity" data-qualified-name="Dataset" data-source-line="13" id="ent0003"><rect fill="#EEEEEE" height="25.0938" rx="2.5" ry="2.5" style="stroke:#404040;stroke-width:0.5;" width="47.3555" x="7" y="45.6094"/><text fill="#000000" font-family="sans-serif" font-size="12" lengthAdjust="spacing" textLength="41.3555" x="10" y="63.0664">Dataset</text></g><!--class VariableMeasured--><g class="entity" data-qualified-name="VariableMeasured" data-source-line="15" id="ent0005"><rect fill="#EEEEEE" height="25.0938" rx="2.5" ry="2.5" style="stroke:#404040;stroke-width:0.5;" width="103.3887" x="89" y="45.6094"/><text fill="#000000" font-family="sans-serif" font-size="12" lengthAdjust="spacing" textLength="97.3887" x="92" y="63.0664">VariableMeasured</text></g><!--class AbstractGeometry--><g class="entity" data-qualified-name="AbstractGeometry" data-source-line="17" id="ent0007"><rect fill="#EEEEEE" height="25.0938" rx="2.5" ry="2.5" style="stroke:#404040;stroke-width:0.5;" width="102.6973" x="227" y="45.6094"/><text fill="#000000" font-family="sans-serif" font-size="12" font-style="italic" lengthAdjust="spacing" textLength="96.6973" x="230" y="63.0664">AbstractGeometry</text></g><!--class TemporalExtent--><g class="entity" data-qualified-name="TemporalExtent" data-source-line="19" id="ent0009"><rect fill="#EEEEEE" height="25.0938" rx="2.5" ry="2.5" style="stroke:#404040;stroke-width:0.5;" width="90.7031" x="382" y="45.6094"/><text fill="#000000" font-family="sans-serif" font-size="12" lengthAdjust="spacing" textLength="84.7031" x="385" y="63.0664">TemporalExtent</text></g><!--class Instant--><g class="entity" data-qualified-name="Instant" data-source-line="22" id="ent0012"><rect fill="#EEEEEE" height="25.0938" rx="2.5" ry="2.5" style="stroke:#404040;stroke-width:0.5;" width="42.0234" x="517.5" y="45.6094"/><text fill="#000000" font-family="sans-serif" font-size="12" lengthAdjust="spacing" textLength="36.0234" x="520.5" y="63.0664">Instant</text></g><!--class TimePosition--><g class="entity" data-qualified-name="TimePosition" data-source-line="24" id="ent0014"><rect fill="#EEEEEE" height="25.0938" rx="2.5" ry="2.5" style="stroke:#404040;stroke-width:0.5;" width="75.3574" x="595" y="45.6094"/><text fill="#000000" font-family="sans-serif" font-size="12" lengthAdjust="spacing" textLength="69.3574" x="598" y="63.0664">TimePosition</text></g><!--class Geometry--><g class="entity" data-qualified-name="Geometry" data-source-line="26" id="ent0016"><rect fill="#EEEEEE" height="25.0938" rx="2.5" ry="2.5" style="stroke:#404040;stroke-width:0.5;" width="58.6816" x="705" y="45.6094"/><text fill="#000000" font-family="sans-serif" font-size="12" lengthAdjust="spacing" textLength="52.6816" x="708" y="63.0664">Geometry</text></g><!--class QualityMeasurement--><g class="entity" data-qualified-name="QualityMeasurement" data-source-line="28" id="ent0018"><rect fill="#EEEEEE" height="25.0938" rx="2.5" ry="2.5" style="stroke:#404040;stroke-width:0.5;" width="116.7129" x="799" y="45.6094"/><text fill="#000000" font-family="sans-serif" font-size="12" lengthAdjust="spacing" textLength="110.7129" x="802" y="63.0664">QualityMeasurement</text></g><!--class Concept--><g class="entity" data-qualified-name="Concept" data-source-line="30" id="ent0020"><rect fill="#EEEEEE" height="25.0938" rx="2.5" ry="2.5" style="stroke:#404040;stroke-width:0.5;" width="50.6953" x="951" y="45.6094"/><text fill="#000000" font-family="sans-serif" font-size="12" lengthAdjust="spacing" textLength="44.6953" x="954" y="63.0664">Concept</text></g><!--class Identifier--><g class="entity" data-qualified-name="Identifier" data-source-line="32" id="ent0022"><rect fill="#EEEEEE" height="25.0938" rx="2.5" ry="2.5" style="stroke:#404040;stroke-width:0.5;" width="52.0254" x="1037.5" y="45.6094"/><text fill="#000000" font-family="sans-serif" font-size="12" lengthAdjust="spacing" textLength="46.0254" x="1040.5" y="63.0664">Identifier</text></g><!--class DefinedTerm--><g class="entity" data-qualified-name="DefinedTerm" data-source-line="34" id="ent0024"><rect fill="#EEEEEE" height="25.0938" rx="2.5" ry="2.5" style="stroke:#404040;stroke-width:0.5;" width="75.3574" x="1126" y="45.6094"/><text fill="#000000" font-family="sans-serif" font-size="12" lengthAdjust="spacing" textLength="69.3574" x="1129" y="63.0664">DefinedTerm</text></g><!--class DataDownload--><g class="entity" data-qualified-name="DataDownload" data-source-line="37" id="ent0027"><rect fill="#EEEEEE" height="25.0938" rx="2.5" ry="2.5" style="stroke:#404040;stroke-width:0.5;" width="84.7148" x="1314" y="45.6094"/><text fill="#000000" font-family="sans-serif" font-size="12" lengthAdjust="spacing" textLength="78.7148" x="1317" y="63.0664">DataDownload</text></g><!--class ActionResult--><g class="entity" data-qualified-name="ActionResult" data-source-line="40" id="ent0030"><rect fill="#EEEEEE" height="25.0938" rx="2.5" ry="2.5" style="stroke:#404040;stroke-width:0.5;" width="73.3652" x="1475" y="45.6094"/><text fill="#000000" font-family="sans-serif" font-size="12" lengthAdjust="spacing" textLength="67.3652" x="1478" y="63.0664">ActionResult</text></g><!--class AdditionalProperty--><g class="entity" data-qualified-name="AdditionalProperty" data-source-line="42" id="ent0032"><rect fill="#EEEEEE" height="25.0938" rx="2.5" ry="2.5" style="stroke:#404040;stroke-width:0.5;" width="104.0566" x="1583.5" y="45.6094"/><text fill="#000000" font-family="sans-serif" font-size="12" lengthAdjust="spacing" textLength="98.0566" x="1586.5" y="63.0664">AdditionalProperty</text></g><!--class Reference--><g class="entity" data-qualified-name="Reference" data-source-line="44" id="ent0034"><rect fill="#EEEEEE" height="25.0938" rx="2.5" ry="2.5" style="stroke:#404040;stroke-width:0.5;" width="61.3652" x="1727" y="45.6094"/><text fill="#000000" font-family="sans-serif" font-size="12" lengthAdjust="spacing" textLength="55.3652" x="1730" y="63.0664">Reference</text></g><!--class ProvActivity--><g class="entity" data-qualified-name="ProvActivity" data-source-line="47" id="ent0037"><rect fill="#EEEEEE" height="25.0938" rx="2.5" ry="2.5" style="stroke:#404040;stroke-width:0.5;" width="68.6777" x="1831" y="45.6094"/><text fill="#000000" font-family="sans-serif" font-size="12" lengthAdjust="spacing" textLength="62.6777" x="1834" y="63.0664">ProvActivity</text></g><!--class DerivedFrom--><g class="entity" data-qualified-name="DerivedFrom" data-source-line="49" id="ent0039"><rect fill="#EEEEEE" height="25.0938" rx="2.5" ry="2.5" style="stroke:#404040;stroke-width:0.5;" width="75.3457" x="1935" y="45.6094"/><text fill="#000000" font-family="sans-serif" font-size="12" lengthAdjust="spacing" textLength="69.3457" x="1938" y="63.0664">DerivedFrom</text></g><!--class CatalogRecord--><g class="entity" data-qualified-name="CatalogRecord" data-source-line="52" id="ent0042"><rect fill="#EEEEEE" height="25.0938" rx="2.5" ry="2.5" style="stroke:#404040;stroke-width:0.5;" width="86.0449" x="2045.5" y="45.6094"/><text fill="#000000" font-family="sans-serif" font-size="12" lengthAdjust="spacing" textLength="80.0449" x="2048.5" y="63.0664">CatalogRecord</text></g><!--link Dataset to XsdAnyUri--><g class="link" data-entity-1="ent0003" data-entity-2="ent0002" data-link-type="dependency" data-source-line="14" id="lnk4"><path codeLine="14" d="M49.75,70.8294 C74.25,85.0594 118.32,108.4094 159.5,118.6094 C331.68,161.2694 892.6601,166.7594 1034.9101,167.4694" fill="none" id="Dataset-to-XsdAnyUri" style="stroke:#404040;stroke-width:1.2;stroke-dasharray:7,7;"/><polygon fill="#404040" points="1040.91,167.4994,1031.9301,163.4545,1035.9101,167.4744,1031.8901,171.4544,1040.91,167.4994" style="stroke:#404040;stroke-width:1.2;"/><text fill="#000000" font-family="sans-serif" font-size="13" lengthAdjust="spacing" textLength="14.4473" x="160.5" y="115.1045">url</text></g><!--link VariableMeasured to XsdAnyUri--><g class="link" data-entity-1="ent0005" data-entity-2="ent0002" data-link-type="dependency" data-source-line="16" id="lnk6"><path codeLine="16" d="M150.63,70.8394 C163.73,85.0694 188.03,108.4294 214.5,118.6094 C292.66,148.6694 887.0315,163.527 1034.7515,166.787" fill="none" id="VariableMeasured-to-XsdAnyUri" style="stroke:#404040;stroke-width:1.2;stroke-dasharray:7,7;"/><polygon fill="#404040" points="1040.75,166.9194,1031.8404,162.7218,1035.7512,166.8091,1031.6639,170.7198,1040.75,166.9194" style="stroke:#404040;stroke-width:1.2;"/><text fill="#000000" font-family="sans-serif" font-size="13" lengthAdjust="spacing" textLength="58.5317" x="215.5" y="115.1045">propertyId</text></g><!--link AbstractGeometry to XsdAnyUri--><g class="link" data-entity-1="ent0007" data-entity-2="ent0002" data-link-type="dependency" data-source-line="18" id="lnk8"><path codeLine="18" d="M277.94,70.8494 C277.99,84.6394 280.42,107.0994 294.5,118.6094 C352.98,166.4294 894.69,168.1348 1034.92,167.7748" fill="none" id="AbstractGeometry-to-XsdAnyUri" style="stroke:#404040;stroke-width:1.2;stroke-dasharray:7,7;"/><polygon fill="#404040" points="1040.92,167.7594,1031.9098,163.7825,1035.92,167.7722,1031.9303,171.7825,1040.92,167.7594" style="stroke:#404040;stroke-width:1.2;"/><text fill="#000000" font-family="sans-serif" font-size="13" lengthAdjust="spacing" textLength="17.3291" x="295.5" y="115.1045">crs</text></g><!--link TemporalExtent to XsdAnyUri--><g class="link" data-entity-1="ent0009" data-entity-2="ent0002" data-link-type="dependency" data-source-line="20" id="lnk10"><path codeLine="20" d="M381.7,69.2994 C346.22,79.1994 306.37,96.0494 327.5,118.6094 C376.79,171.2494 896.7603,169.4803 1034.5903,168.0803" fill="none" id="TemporalExtent-to-XsdAnyUri" style="stroke:#404040;stroke-width:1.2;stroke-dasharray:7,7;"/><polygon fill="#404040" points="1040.59,168.0194,1031.5498,164.111,1035.5903,168.0702,1031.6311,172.1106,1040.59,168.0194" style="stroke:#404040;stroke-width:1.2;"/><text fill="#000000" font-family="sans-serif" font-size="13" lengthAdjust="spacing" textLength="98.9917" x="328.5" y="115.1045">intervalStartedBy</text></g><!--link TemporalExtent to XsdAnyUri--><g class="link" data-entity-1="ent0009" data-entity-2="ent0002" data-link-type="dependency" data-source-line="21" id="lnk11"><path codeLine="21" d="M436.64,70.7194 C448.51,84.8294 470.67,108.0594 495.5,118.6094 C594.91,160.8394 927.5202,166.6551 1034.6902,167.4451" fill="none" id="TemporalExtent-to-XsdAnyUri-1" style="stroke:#404040;stroke-width:1.2;stroke-dasharray:7,7;"/><polygon fill="#404040" points="1040.69,167.4894,1031.7197,163.4231,1035.6901,167.4525,1031.6608,171.4229,1040.69,167.4894" style="stroke:#404040;stroke-width:1.2;"/><text fill="#000000" font-family="sans-serif" font-size="13" lengthAdjust="spacing" textLength="106.2153" x="496.5" y="115.1045">intervalFinishedBy</text></g><!--link Instant to XsdAnyUri--><g class="link" data-entity-1="ent0012" data-entity-2="ent0002" data-link-type="dependency" data-source-line="23" id="lnk13"><path codeLine="23" d="M556.29,70.6994 C578.53,84.5694 618.2,107.3294 655.5,118.6094 C794.51,160.6294 963.6203,166.8788 1034.9903,167.5988" fill="none" id="Instant-to-XsdAnyUri" style="stroke:#404040;stroke-width:1.2;stroke-dasharray:7,7;"/><polygon fill="#404040" points="1040.99,167.6594,1032.0308,163.5688,1035.9903,167.6089,1031.9501,171.5684,1040.99,167.6594" style="stroke:#404040;stroke-width:1.2;"/><text fill="#000000" font-family="sans-serif" font-size="13" lengthAdjust="spacing" textLength="49.1372" x="656.5" y="115.1045">identifier</text></g><!--link TimePosition to XsdAnyUri--><g class="link" data-entity-1="ent0014" data-entity-2="ent0002" data-link-type="dependency" data-source-line="25" id="lnk15"><path codeLine="25" d="M652.98,70.6194 C678.03,84.1894 722.1,106.4294 762.5,118.6094 C861.15,148.3394 977.1586,160.3879 1034.6286,164.9179" fill="none" id="TimePosition-to-XsdAnyUri" style="stroke:#404040;stroke-width:1.2;stroke-dasharray:7,7;"/><polygon fill="#404040" points="1040.61,165.3894,1031.9521,160.6945,1035.6255,164.9965,1031.3235,168.6698,1040.61,165.3894" style="stroke:#404040;stroke-width:1.2;"/><text fill="#000000" font-family="sans-serif" font-size="13" lengthAdjust="spacing" textLength="46.96" x="763.5" y="115.1045">hasTRS</text></g><!--link Geometry to XsdAnyUri--><g class="link" data-entity-1="ent0016" data-entity-2="ent0002" data-link-type="dependency" data-source-line="27" id="lnk17"><path codeLine="27" d="M755.68,70.6194 C780.61,83.7694 823.57,105.1994 862.5,118.6094 C924.01,139.7894 992.8425,153.6698 1034.8325,161.1298" fill="none" id="Geometry-to-XsdAnyUri" style="stroke:#404040;stroke-width:1.2;stroke-dasharray:7,7;"/><polygon fill="#404040" points="1040.74,162.1794,1032.5784,156.6667,1035.8171,161.3048,1031.1791,164.5434,1040.74,162.1794" style="stroke:#404040;stroke-width:1.2;"/><text fill="#000000" font-family="sans-serif" font-size="13" lengthAdjust="spacing" textLength="17.3291" x="863.5" y="115.1045">crs</text></g><!--link QualityMeasurement to XsdAnyUri--><g class="link" data-entity-1="ent0018" data-entity-2="ent0002" data-link-type="dependency" data-source-line="29" id="lnk19"><path codeLine="29" d="M865.04,70.9394 C874.2,84.3994 890.9,106.1194 910.5,118.6094 C951.24,144.5794 1000.5139,156.3697 1035.0739,162.2097" fill="none" id="QualityMeasurement-to-XsdAnyUri" style="stroke:#404040;stroke-width:1.2;stroke-dasharray:7,7;"/><polygon fill="#404040" points="1040.99,163.2094,1032.7823,157.7657,1036.0599,162.3763,1031.4493,165.6539,1040.99,163.2094" style="stroke:#404040;stroke-width:1.2;"/><text fill="#000000" font-family="sans-serif" font-size="13" lengthAdjust="spacing" textLength="20.96" x="911.5" y="115.1045">unit</text></g><!--link Concept to XsdAnyUri--><g class="link" data-entity-1="ent0020" data-entity-2="ent0002" data-link-type="dependency" data-source-line="31" id="lnk21"><path codeLine="31" d="M962.36,70.9594 C949.39,83.2994 933.71,102.9694 944.5,118.6094 C965.99,149.7694 1004.1539,160.3271 1034.7639,164.4571" fill="none" id="Concept-to-XsdAnyUri" style="stroke:#404040;stroke-width:1.2;stroke-dasharray:7,7;"/><polygon fill="#404040" points="1040.71,165.2594,1032.3257,160.0919,1035.7549,164.5908,1031.256,168.0201,1040.71,165.2594" style="stroke:#404040;stroke-width:1.2;"/><text fill="#000000" font-family="sans-serif" font-size="13" lengthAdjust="spacing" textLength="57.8081" x="945.5" y="115.1045">inScheme</text></g><!--link Identifier to XsdAnyUri--><g class="link" data-entity-1="ent0022" data-entity-2="ent0002" data-link-type="dependency" data-source-line="33" id="lnk23"><path codeLine="33" d="M1042.52,70.8194 C1025.51,81.9794 1005.69,99.8294 1014.5,118.6094 C1020.16,130.6594 1025.6144,137.1602 1035.9944,145.0102" fill="none" id="Identifier-to-XsdAnyUri" style="stroke:#404040;stroke-width:1.2;stroke-dasharray:7,7;"/><polygon fill="#404040" points="1040.78,148.6294,1036.0144,140.0103,1036.792,145.6134,1031.1889,146.391,1040.78,148.6294" style="stroke:#404040;stroke-width:1.2;"/><text fill="#000000" font-family="sans-serif" font-size="13" lengthAdjust="spacing" textLength="14.4473" x="1015.5" y="115.1045">url</text></g><!--link DefinedTerm to XsdAnyUri--><g class="link" data-entity-1="ent0024" data-entity-2="ent0002" data-link-type="dependency" data-source-line="35" id="lnk25"><path codeLine="35" d="M1125.76,65.7494 C1105.71,71.4094 1082.72,81.7694 1070.5,100.6094 C1061.37,114.6794 1062.0048,128.2985 1065.5848,142.6185" fill="none" id="DefinedTerm-to-XsdAnyUri" style="stroke:#404040;stroke-width:1.2;stroke-dasharray:7,7;"/><polygon fill="#404040" points="1067.04,148.4394,1068.7377,138.7379,1065.8273,143.5887,1060.9766,140.6782,1067.04,148.4394" style="stroke:#404040;stroke-width:1.2;"/><text fill="#000000" font-family="sans-serif" font-size="13" lengthAdjust="spacing" textLength="49.1372" x="1071.5" y="115.1045">identifier</text></g><!--link DefinedTerm to XsdAnyUri--><g class="link" data-entity-1="ent0024" data-entity-2="ent0002" data-link-type="dependency" data-source-line="36" id="lnk26"><path codeLine="36" d="M1157.27,70.6394 C1150.31,83.0594 1138.32,103.1294 1125.5,118.6094 C1116.72,129.2094 1110.2258,135.8112 1100.6558,144.4412" fill="none" id="DefinedTerm-to-XsdAnyUri-1" style="stroke:#404040;stroke-width:1.2;stroke-dasharray:7,7;"/><polygon fill="#404040" points="1096.2,148.4594,1105.5625,145.4027,1099.9132,145.1109,1100.205,139.4616,1096.2,148.4594" style="stroke:#404040;stroke-width:1.2;"/><text fill="#000000" font-family="sans-serif" font-size="13" lengthAdjust="spacing" textLength="104.7681" x="1138.5" y="115.1045">inDefinedTermSet</text></g><!--link DataDownload to XsdAnyUri--><g class="link" data-entity-1="ent0027" data-entity-2="ent0002" data-link-type="dependency" data-source-line="38" id="lnk28"><path codeLine="38" d="M1338.98,70.8394 C1318.67,83.9894 1283.84,105.2394 1251.5,118.6094 C1202.48,138.8794 1148.3179,152.1673 1111.9979,159.9173" fill="none" id="DataDownload-to-XsdAnyUri" style="stroke:#404040;stroke-width:1.2;stroke-dasharray:7,7;"/><polygon fill="#404040" points="1106.13,161.1694,1115.7666,163.2032,1111.0199,160.126,1114.0971,155.3793,1106.13,161.1694" style="stroke:#404040;stroke-width:1.2;"/><text fill="#000000" font-family="sans-serif" font-size="13" lengthAdjust="spacing" textLength="59.249" x="1287.5" y="115.1045">contentUrl</text></g><!--link DataDownload to XsdAnyUri--><g class="link" data-entity-1="ent0027" data-entity-2="ent0002" data-link-type="dependency" data-source-line="39" id="lnk29"><path codeLine="39" d="M1360.23,70.6894 C1363.69,83.9194 1366.78,105.4194 1355.5,118.6094 C1323.64,155.8494 1179.4569,164.5977 1112.1969,166.7477" fill="none" id="DataDownload-to-XsdAnyUri-1" style="stroke:#404040;stroke-width:1.2;stroke-dasharray:7,7;"/><polygon fill="#404040" points="1106.2,166.9394,1115.3232,170.6498,1111.1974,166.7796,1115.0676,162.6539,1106.2,166.9394" style="stroke:#404040;stroke-width:1.2;"/><text fill="#000000" font-family="sans-serif" font-size="13" lengthAdjust="spacing" textLength="68.6309" x="1363.5" y="115.1045">conformsTo</text></g><!--link ActionResult to XsdAnyUri--><g class="link" data-entity-1="ent0030" data-entity-2="ent0002" data-link-type="dependency" data-source-line="41" id="lnk31"><path codeLine="41" d="M1501.32,71.0094 C1488.62,84.9594 1465.52,107.5794 1440.5,118.6094 C1380.72,144.9594 1190.5167,159.9496 1112.1967,165.1796" fill="none" id="ActionResult-to-XsdAnyUri" style="stroke:#404040;stroke-width:1.2;stroke-dasharray:7,7;"/><polygon fill="#404040" points="1106.21,165.5794,1115.4565,168.9708,1111.1989,165.2462,1114.9235,160.9886,1106.21,165.5794" style="stroke:#404040;stroke-width:1.2;"/><text fill="#000000" font-family="sans-serif" font-size="13" lengthAdjust="spacing" textLength="68.6309" x="1468.5" y="115.1045">conformsTo</text></g><!--link AdditionalProperty to XsdAnyUri--><g class="link" data-entity-1="ent0032" data-entity-2="ent0002" data-link-type="dependency" data-source-line="43" id="lnk33"><path codeLine="43" d="M1622.59,70.6194 C1606.03,84.6194 1575.83,107.7494 1545.5,118.6094 C1464.15,147.7294 1205.2439,161.7582 1112.1839,165.9682" fill="none" id="AdditionalProperty-to-XsdAnyUri" style="stroke:#404040;stroke-width:1.2;stroke-dasharray:7,7;"/><polygon fill="#404040" points="1106.19,166.2394,1115.3616,169.8285,1111.1849,166.0134,1115,161.8367,1106.19,166.2394" style="stroke:#404040;stroke-width:1.2;"/><text fill="#000000" font-family="sans-serif" font-size="13" lengthAdjust="spacing" textLength="52.0381" x="1580.5" y="115.1045">unitCode</text></g><!--link Reference to XsdAnyUri--><g class="link" data-entity-1="ent0034" data-entity-2="ent0002" data-link-type="dependency" data-source-line="45" id="lnk35"><path codeLine="45" d="M1740.31,70.6494 C1718.42,84.6894 1678.91,107.8494 1641.5,118.6094 C1539.72,147.8794 1217.1857,162.2211 1112.1257,166.2211" fill="none" id="Reference-to-XsdAnyUri" style="stroke:#404040;stroke-width:1.2;stroke-dasharray:7,7;"/><polygon fill="#404040" points="1106.13,166.4494,1115.2757,170.1041,1111.1264,166.2591,1114.9713,162.1099,1106.13,166.4494" style="stroke:#404040;stroke-width:1.2;"/><text fill="#000000" font-family="sans-serif" font-size="13" lengthAdjust="spacing" textLength="14.4473" x="1685.5" y="115.1045">url</text></g><!--link Reference to XsdAnyUri--><g class="link" data-entity-1="ent0034" data-entity-2="ent0002" data-link-type="dependency" data-source-line="46" id="lnk36"><path codeLine="46" d="M1751.73,70.6894 C1744.02,84.7794 1728.92,107.9894 1708.5,118.6094 C1654.79,146.5394 1234.2567,162.3406 1112.0867,166.3906" fill="none" id="Reference-to-XsdAnyUri-1" style="stroke:#404040;stroke-width:1.2;stroke-dasharray:7,7;"/><polygon fill="#404040" points="1106.09,166.5894,1115.2176,170.289,1111.0873,166.4237,1114.9525,162.2934,1106.09,166.5894" style="stroke:#404040;stroke-width:1.2;"/><text fill="#000000" font-family="sans-serif" font-size="13" lengthAdjust="spacing" textLength="42.6372" x="1730.5" y="115.1045">relation</text></g><!--link ProvActivity to XsdAnyUri--><g class="link" data-entity-1="ent0037" data-entity-2="ent0002" data-link-type="dependency" data-source-line="48" id="lnk38"><path codeLine="48" d="M1853.65,70.7894 C1838.42,84.9694 1810.45,108.2794 1781.5,118.6094 C1654.57,163.8894 1233.61,167.5639 1112.05,167.6739" fill="none" id="ProvActivity-to-XsdAnyUri" style="stroke:#404040;stroke-width:1.2;stroke-dasharray:7,7;"/><polygon fill="#404040" points="1106.05,167.6794,1115.0536,171.6712,1111.05,167.6749,1115.0464,163.6712,1106.05,167.6794" style="stroke:#404040;stroke-width:1.2;"/><text fill="#000000" font-family="sans-serif" font-size="13" lengthAdjust="spacing" textLength="28.1899" x="1814.5" y="115.1045">used</text></g><!--link DerivedFrom to XsdAnyUri--><g class="link" data-entity-1="ent0039" data-entity-2="ent0002" data-link-type="dependency" data-source-line="50" id="lnk40"><path codeLine="50" d="M1954.53,70.7794 C1931.66,84.9594 1890.41,108.2594 1851.5,118.6094 C1707.47,156.9194 1241.3895,165.5017 1112.3495,167.1717" fill="none" id="DerivedFrom-to-XsdAnyUri" style="stroke:#404040;stroke-width:1.2;stroke-dasharray:7,7;"/><polygon fill="#404040" points="1106.35,167.2494,1115.401,171.1326,1111.3496,167.1847,1115.2975,163.1332,1106.35,167.2494" style="stroke:#404040;stroke-width:1.2;"/><text fill="#000000" font-family="sans-serif" font-size="13" lengthAdjust="spacing" textLength="14.4473" x="1897.5" y="115.1045">url</text></g><!--link DerivedFrom to XsdAnyUri--><g class="link" data-entity-1="ent0039" data-entity-2="ent0002" data-link-type="dependency" data-source-line="51" id="lnk41"><path codeLine="51" d="M1966.22,70.7694 C1957.88,84.9394 1941.69,108.2394 1920.5,118.6094 C1846.41,154.8694 1259.4894,165.1074 1112.4194,167.1174" fill="none" id="DerivedFrom-to-XsdAnyUri-1" style="stroke:#404040;stroke-width:1.2;stroke-dasharray:7,7;"/><polygon fill="#404040" points="1106.42,167.1994,1115.4738,171.076,1111.4195,167.131,1115.3645,163.0768,1106.42,167.1994" style="stroke:#404040;stroke-width:1.2;"/><text fill="#000000" font-family="sans-serif" font-size="13" lengthAdjust="spacing" textLength="42.6372" x="1943.5" y="115.1045">relation</text></g><!--link CatalogRecord to XsdAnyUri--><g class="link" data-entity-1="ent0042" data-entity-2="ent0002" data-link-type="dependency" data-source-line="53" id="lnk43"><path codeLine="53" d="M2075.3,70.6194 C2058.07,84.8494 2026.33,108.4594 1994.5,118.6094 C1908.55,146.0194 1266.1083,163.0052 1112.1983,166.7052" fill="none" id="CatalogRecord-to-XsdAnyUri" style="stroke:#404040;stroke-width:1.2;stroke-dasharray:7,7;"/><polygon fill="#404040" points="1106.2,166.8494,1115.2935,170.6319,1111.1986,166.7292,1115.1013,162.6342,1106.2,166.8494" style="stroke:#404040;stroke-width:1.2;"/><text fill="#000000" font-family="sans-serif" font-size="13" lengthAdjust="spacing" textLength="68.6309" x="2033.5" y="115.1045">conformsTo</text></g><?plantuml-src ZLLBZzem4BxdLrXmHzrjUwbMI2oFQW-Ljf2jUZNniB7MiQEnWQPL_tjDuXS9Iu6BvvlucyStanXk192Vcirayu8yApa3Kd0i17Hdg6hJa0ggBQ3Ez1kNDKLQ4LrIfevSlf8T5HeIpmnH7VEI5syIj2Pta_l4MGXgiJyPwHwRAw6GZ3zzEFqj-AYG0VRHbP9cmty3kRlF_cPPnp4AIOy8rR44yl30gA5vKyDqIiQhsVBpugE_ix0U3QQzuSval6n_cRSdasd2zeNiKVZhFoXokXNm3QZU8x2Mfmy6me6ZproZgW5DyyGokjK6QM5SWqOpPty5LO71fetK1qEaWQCVgR3QEURSAggGYkKl0xBhn3aKM7jmdvDB0tYWOcCe6c2FpQqNLbnoNROtN4vFKXlgad7da8Mt1spCnk0x3XWgunKyAyqDLxAhAm5YLIdO9osfpjSRJtZM_47JRsdszpqLt3Hk0YhVy24SM2-u1WCfkV41vaeMK7UixXoel3tKOLEKbZfqFtIo4o2OKOC8NTcE1Uou19O3Ljs2HJikMO9TKVJgOpBnRi2akxrGHoaKPM71FN2svG4SA6TVD3Q75rlJ_vxRAQnqhdpmMN6QfpNelUZ4I86ufobu0obZxPXIyUpU51tr08u1XgvBqpDNBAY_XXqWs4bfkOCLA2DoIVhtlGY2dbBnSMn2XrFz1-xAI84GxGmS1DJ0uh0XFm1ReVB35knas29sAVbh_dxwSpiFGhskeR2Vg6xTKYGktHbwHUD_?></g></svg>