<svg xmlns="http://www.w3.org/2000/svg" xmlns:xlink="http://www.w3.org/1999/xlink" contentStyleType="text/css" data-diagram-type="CLASS" height="842px" preserveAspectRatio="none" style="width:2900px;height:842px;background:#FFFFFF;" version="1.1" viewBox="0 0 2900 842" width="2900px" zoomAndPan="magnify"><?plantuml 1.2026.3?><defs/><g><g class="title" data-source-line="1"><text fill="#000000" font-family="sans-serif" font-size="14" font-weight="700" lengthAdjust="spacing" textLength="92.5791" x="1400.2798" y="24.5332">DataStructure</text></g><!--class DataStructure--><g class="entity" data-qualified-name="DataStructure" data-source-line="16" id="ent0002"><rect fill="#FEFECE" height="93.4688" rx="2.5" ry="2.5" style="stroke:#404040;stroke-width:0.5;" width="258.1025" x="1283" y="390.6094"/><text fill="#000000" font-family="sans-serif" font-size="30" lengthAdjust="spacing" textLength="185.083" x="1319.5098" y="426.752">DataStructure</text><line style="stroke:#404040;stroke-width:0.5;" x1="1284" x2="1540.1025" y1="438.3438" y2="438.3438"/><g data-visibility-modifier="PUBLIC_FIELD"><ellipse cx="1294" cy="462.7109" fill="none" rx="3" ry="3" style="stroke:#038048;stroke-width:1;"/></g><text fill="#000000" font-family="sans-serif" font-size="30" lengthAdjust="spacing" textLength="225.1025" x="1310" y="473.4863">type : string [1..*]</text></g><!--class DataDownload--><g class="entity" data-qualified-name="DataDownload" data-source-line="19" id="ent0003"><rect fill="#EEEEEE" height="47.7344" rx="2.5" ry="2.5" style="stroke:#404040;stroke-width:0.5;" width="202.7871" x="1310.5" y="45.6094"/><text fill="#000000" font-family="sans-serif" font-size="30" lengthAdjust="spacing" textLength="196.7871" x="1313.5" y="81.752">DataDownload</text></g><!--class DataStructureComponent--><g class="entity" data-qualified-name="DataStructureComponent" data-source-line="21" id="ent0005"><rect fill="#EEEEEE" height="47.7344" rx="2.5" ry="2.5" style="stroke:#404040;stroke-width:0.5;" width="346.1807" x="7" y="780.6094"/><text fill="#000000" font-family="sans-serif" font-size="30" font-style="italic" lengthAdjust="spacing" textLength="340.1807" x="10" y="816.752">DataStructureComponent</text></g><!--class IdentifierComponent--><g class="entity" data-qualified-name="IdentifierComponent" data-source-line="23" id="ent0007"><rect fill="#EEEEEE" height="47.7344" rx="2.5" ry="2.5" style="stroke:#404040;stroke-width:0.5;" width="276.1611" x="373" y="780.6094"/><text fill="#000000" font-family="sans-serif" font-size="30" lengthAdjust="spacing" textLength="270.1611" x="376" y="816.752">IdentifierComponent</text></g><!--class MeasureComponent--><g class="entity" data-qualified-name="MeasureComponent" data-source-line="25" id="ent0009"><rect fill="#EEEEEE" height="47.7344" rx="2.5" ry="2.5" style="stroke:#404040;stroke-width:0.5;" width="277.8164" x="669" y="780.6094"/><text fill="#000000" font-family="sans-serif" font-size="30" lengthAdjust="spacing" textLength="271.8164" x="672" y="816.752">MeasureComponent</text></g><!--class AttributeComponent--><g class="entity" data-qualified-name="AttributeComponent" data-source-line="27" id="ent0011"><rect fill="#EEEEEE" height="47.7344" rx="2.5" ry="2.5" style="stroke:#404040;stroke-width:0.5;" width="272.8213" x="967.5" y="780.6094"/><text fill="#000000" font-family="sans-serif" font-size="30" lengthAdjust="spacing" textLength="266.8213" x="970.5" y="816.752">AttributeComponent</text></g><!--class DimensionComponent--><g class="entity" data-qualified-name="DimensionComponent" data-source-line="29" id="ent0013"><rect fill="#EEEEEE" height="47.7344" rx="2.5" ry="2.5" style="stroke:#404040;stroke-width:0.5;" width="302.8213" x="1260.5" y="780.6094"/><text fill="#000000" font-family="sans-serif" font-size="30" lengthAdjust="spacing" textLength="296.8213" x="1263.5" y="816.752">DimensionComponent</text></g><!--class VariableDescriptorComponent--><g class="entity" data-qualified-name="VariableDescriptorComponent" data-source-line="31" id="ent0015"><rect fill="#EEEEEE" height="47.7344" rx="2.5" ry="2.5" style="stroke:#404040;stroke-width:0.5;" width="407.8652" x="1584" y="780.6094"/><text fill="#000000" font-family="sans-serif" font-size="30" lengthAdjust="spacing" textLength="401.8652" x="1587" y="816.752">VariableDescriptorComponent</text></g><!--class VariableValueComponent--><g class="entity" data-qualified-name="VariableValueComponent" data-source-line="33" id="ent0017"><rect fill="#EEEEEE" height="47.7344" rx="2.5" ry="2.5" style="stroke:#404040;stroke-width:0.5;" width="347.8945" x="2012" y="780.6094"/><text fill="#000000" font-family="sans-serif" font-size="30" lengthAdjust="spacing" textLength="341.8945" x="2015" y="816.752">VariableValueComponent</text></g><!--class PrimaryKey--><g class="entity" data-qualified-name="PrimaryKey" data-source-line="35" id="ent0019"><rect fill="#EEEEEE" height="47.7344" rx="2.5" ry="2.5" style="stroke:#404040;stroke-width:0.5;" width="161.0244" x="2380.5" y="780.6094"/><text fill="#000000" font-family="sans-serif" font-size="30" lengthAdjust="spacing" textLength="155.0244" x="2383.5" y="816.752">PrimaryKey</text></g><!--class ForeignKey--><g class="entity" data-qualified-name="ForeignKey" data-source-line="37" id="ent0021"><rect fill="#EEEEEE" height="47.7344" rx="2.5" ry="2.5" style="stroke:#404040;stroke-width:0.5;" width="159.4131" x="2650.5" y="780.6094"/><text fill="#000000" font-family="sans-serif" font-size="30" lengthAdjust="spacing" textLength="153.4131" x="2653.5" y="816.752">ForeignKey</text></g><!--link DataDownload to DataStructure--><g class="link" data-entity-1="ent0003" data-entity-2="ent0002" data-link-type="dependency" data-source-line="20" id="lnk4"><path codeLine="20" d="M1412,93.7494 C1412,153.1494 1412,305.8194 1412,384.5294" fill="none" id="DataDownload-to-DataStructure" style="stroke:#404040;stroke-width:1.2;"/><polygon fill="#404040" points="1412,390.5294,1416,381.5294,1412,385.5294,1408,381.5294,1412,390.5294" style="stroke:#404040;stroke-width:1.2;"/><text fill="#000000" font-family="sans-serif" font-size="36" lengthAdjust="spacing" textLength="234.0879" x="1413" y="256.9805">isStructuredBy</text><text fill="#000000" font-family="sans-serif" font-size="36" lengthAdjust="spacing" textLength="60.0469" x="1348.528" y="374.9023">0..1</text></g><!--reverse link DataStructure to DataStructureComponent--><g class="link" data-entity-1="ent0002" data-entity-2="ent0005" data-link-type="composition" data-source-line="22" id="lnk6"><path codeLine="22" d="M1270.7477,448.3882 C1089.9177,464.5582 765.6,505.6594 498,608.6094 C382.86,652.9094 262.99,739.2594 209.19,780.5494" fill="none" id="DataStructure-backto-DataStructureComponent" style="stroke:#404040;stroke-width:1.2;"/><polygon fill="#404040" points="1282.7,447.3194,1276.3676,443.8697,1270.7477,448.3882,1277.0801,451.8379,1282.7,447.3194" style="stroke:#404040;stroke-width:1.2;"/><text fill="#000000" font-family="sans-serif" font-size="36" lengthAdjust="spacing" textLength="58.043" x="499" y="646.9805">has</text><text fill="#000000" font-family="sans-serif" font-size="36" lengthAdjust="spacing" textLength="54.0352" x="155.5671" y="764.6757">1..*</text></g><!--reverse link DataStructure to IdentifierComponent--><g class="link" data-entity-1="ent0002" data-entity-2="ent0007" data-link-type="composition" data-source-line="24" id="lnk8"><path codeLine="24" d="M1270.7347,452.4663 C1069.3247,475.0463 704.94,525.7894 601,608.6094 C545.45,652.8694 522.74,739.2394 514.75,780.5394" fill="none" id="DataStructure-backto-IdentifierComponent" style="stroke:#404040;stroke-width:1.2;"/><polygon fill="#404040" points="1282.66,451.1294,1276.2517,447.8227,1270.7347,452.4663,1277.143,455.7729,1282.66,451.1294" style="stroke:#404040;stroke-width:1.2;"/><text fill="#000000" font-family="sans-serif" font-size="36" lengthAdjust="spacing" textLength="244.1602" x="602" y="646.9805">hasComponent</text><text fill="#000000" font-family="sans-serif" font-size="36" lengthAdjust="spacing" textLength="54.0352" x="456.5974" y="764.6639">0..*</text></g><!--reverse link DataStructure to MeasureComponent--><g class="link" data-entity-1="ent0002" data-entity-2="ent0009" data-link-type="composition" data-source-line="26" id="lnk10"><path codeLine="26" d="M1270.9769,450.8406 C1153.7969,467.3206 995.03,506.6494 886,608.6094 C835.53,655.7994 817.04,739.9794 810.84,780.5194" fill="none" id="DataStructure-backto-MeasureComponent" style="stroke:#404040;stroke-width:1.2;"/><polygon fill="#404040" points="1282.86,449.1694,1276.3614,446.044,1270.9769,450.8406,1277.4755,453.966,1282.86,449.1694" style="stroke:#404040;stroke-width:1.2;"/><text fill="#000000" font-family="sans-serif" font-size="36" lengthAdjust="spacing" textLength="244.1602" x="887" y="646.9805">hasComponent</text><text fill="#000000" font-family="sans-serif" font-size="36" lengthAdjust="spacing" textLength="54.0352" x="752.556" y="764.6403">0..*</text></g><!--reverse link DataStructure to AttributeComponent--><g class="link" data-entity-1="ent0002" data-entity-2="ent0011" data-link-type="composition" data-source-line="28" id="lnk12"><path codeLine="28" d="M1303.5895,489.478 C1251.2195,518.448 1200.14,554.8394 1161,608.6094 C1122.18,661.9294 1109.66,741.3994 1105.73,780.3694" fill="none" id="DataStructure-backto-AttributeComponent" style="stroke:#404040;stroke-width:1.2;"/><polygon fill="#404040" points="1314.09,483.6694,1306.9036,483.0735,1303.5895,489.478,1310.776,490.0738,1314.09,483.6694" style="stroke:#404040;stroke-width:1.2;"/><text fill="#000000" font-family="sans-serif" font-size="36" lengthAdjust="spacing" textLength="244.1602" x="1162" y="646.9805">hasComponent</text><text fill="#000000" font-family="sans-serif" font-size="36" lengthAdjust="spacing" textLength="54.0352" x="1047.4051" y="764.754">0..*</text></g><!--reverse link DataStructure to DimensionComponent--><g class="link" data-entity-1="ent0002" data-entity-2="ent0013" data-link-type="composition" data-source-line="30" id="lnk14"><path codeLine="30" d="M1412,495.6594 C1412,574.3094 1412,720.8594 1412,780.3494" fill="none" id="DataStructure-backto-DimensionComponent" style="stroke:#404040;stroke-width:1.2;"/><polygon fill="#404040" points="1412,483.6594,1408,489.6594,1412,495.6594,1416,489.6594,1412,483.6594" style="stroke:#404040;stroke-width:1.2;"/><text fill="#000000" font-family="sans-serif" font-size="36" lengthAdjust="spacing" textLength="244.1602" x="1413" y="646.9805">hasComponent</text><text fill="#000000" font-family="sans-serif" font-size="36" lengthAdjust="spacing" textLength="54.0352" x="1353.3778" y="764.7306">0..*</text></g><!--reverse link DataStructure to VariableDescriptorComponent--><g class="link" data-entity-1="ent0002" data-entity-2="ent0015" data-link-type="composition" data-source-line="32" id="lnk16"><path codeLine="32" d="M1506.9169,489.8912 C1558.8569,520.6312 1614.21,558.5094 1663,608.6094 C1715.46,662.4894 1757.98,741.6994 1777.09,780.4894" fill="none" id="DataStructure-backto-VariableDescriptorComponent" style="stroke:#404040;stroke-width:1.2;"/><polygon fill="#404040" points="1496.59,483.7794,1499.7162,490.2776,1506.9169,489.8912,1503.7907,483.393,1496.59,483.7794" style="stroke:#404040;stroke-width:1.2;"/><text fill="#000000" font-family="sans-serif" font-size="36" lengthAdjust="spacing" textLength="244.1602" x="1701" y="646.9805">hasComponent</text><text fill="#000000" font-family="sans-serif" font-size="36" lengthAdjust="spacing" textLength="54.0352" x="1716.3524" y="764.605">0..*</text></g><!--reverse link DataStructure to VariableValueComponent--><g class="link" data-entity-1="ent0002" data-entity-2="ent0017" data-link-type="composition" data-source-line="34" id="lnk18"><path codeLine="34" d="M1552.8906,466.8665 C1665.7306,492.9965 1819.83,537.0394 1951,608.6094 C2038.96,656.5994 2125.13,740.0194 2164.21,780.3894" fill="none" id="DataStructure-backto-VariableValueComponent" style="stroke:#404040;stroke-width:1.2;"/><polygon fill="#404040" points="1541.2,464.1594,1546.1429,469.4098,1552.8906,466.8665,1547.9477,461.6161,1541.2,464.1594" style="stroke:#404040;stroke-width:1.2;"/><text fill="#000000" font-family="sans-serif" font-size="36" lengthAdjust="spacing" textLength="244.1602" x="2023" y="646.9805">hasComponent</text><text fill="#000000" font-family="sans-serif" font-size="36" lengthAdjust="spacing" textLength="54.0352" x="2101.8363" y="764.7775">0..*</text></g><!--reverse link DataStructure to PrimaryKey--><g class="link" data-entity-1="ent0002" data-entity-2="ent0019" data-link-type="composition" data-source-line="36" id="lnk20"><path codeLine="36" d="M1553.2188,440.4668 C1729.0888,448.0568 2036.92,479.7594 2273,608.6094 C2351.84,651.6394 2417.69,739.0094 2446.04,780.5994" fill="none" id="DataStructure-backto-PrimaryKey" style="stroke:#404040;stroke-width:1.2;"/><polygon fill="#404040" points="1541.23,439.9494,1547.052,444.2044,1553.2188,440.4668,1547.3969,436.2118,1541.23,439.9494" style="stroke:#404040;stroke-width:1.2;"/><text fill="#000000" font-family="sans-serif" font-size="36" lengthAdjust="spacing" textLength="244.0723" x="2335" y="646.9805">hasPrimaryKey</text><text fill="#000000" font-family="sans-serif" font-size="36" lengthAdjust="spacing" textLength="60.0469" x="2378.0335" y="764.7346">0..1</text></g><!--reverse link DataStructure to ForeignKey--><g class="link" data-entity-1="ent0002" data-entity-2="ent0021" data-link-type="composition" data-source-line="38" id="lnk22"><path codeLine="38" d="M1553.1707,445.1591 C1820.2107,460.3091 2410.65,504.5994 2585,608.6094 C2654.38,649.9994 2701.1,738.5794 2720.24,780.5894" fill="none" id="DataStructure-backto-ForeignKey" style="stroke:#404040;stroke-width:1.2;"/><polygon fill="#404040" points="1541.19,444.4794,1546.9538,448.8128,1553.1707,445.1591,1547.4069,440.8256,1541.19,444.4794" style="stroke:#404040;stroke-width:1.2;"/><text fill="#000000" font-family="sans-serif" font-size="36" lengthAdjust="spacing" textLength="242.1387" x="2642" y="646.9805">hasForeignKey</text><text fill="#000000" font-family="sans-serif" font-size="36" lengthAdjust="spacing" textLength="54.0352" x="2659.6585" y="764.7228">0..*</text></g><?plantuml-src ZPDDZvim48Rl_XKZSiigYAGVXnmgTVCXLLMbIhlQIxM72KmsLeoDRAE8LllVrs4B6713uSAymxpFp1Wiju9WYnOVh2vJMsfY9vuHf5odukypvOMj8AVyGDemS-QoG8qvc1DcwiBb2nnH6F8oNxLMbySJJy-IZ85blFAI6kNPK06hJucdIfLHhVfYHaSiXTqhQH_uRu8FdxraAj1v_s7mZjieeJJCFYRNsudtIcUaXwflvGgjrVnGMkhaXBqozcuTzVOI0Ph-fc2st-rtcrtTmvsj2e8r6EVeDl9h6SVpP-VbMMtLHGg5MUlK233RrHVhYOl55uYIE5v60-mQk6cZxBvYU71KJ2s4-jwel52If1qFqAPw3NIW-M81qNMGw5zrQpYXQMRybZc97_brwpupeDy29ZKmL5JJsh31_Y0qepc7uZHmL16cjPzCdpUMfuc1cZ1potEIXYivECkHFCqCr8IPJwWv7WHjoQIQ5rOD3lL6VhgBMyMtstb2KLAuatxg_viOr8NvFpNFKLVVgQgPNJZ1SJ-lzsxjtSMD-LvfuY-oCU_2wI6yTslpBcPl?></g></svg>