<svg xmlns="http://www.w3.org/2000/svg" xmlns:xlink="http://www.w3.org/1999/xlink" contentStyleType="text/css" data-diagram-type="CLASS" height="477px" preserveAspectRatio="none" style="width:1667px;height:477px;background:#FFFFFF;" version="1.1" viewBox="0 0 1667 477" width="1667px" zoomAndPan="magnify"><?plantuml 1.2026.3?><defs/><g><g class="title" data-source-line="1"><text fill="#000000" font-family="sans-serif" font-size="14" font-weight="700" lengthAdjust="spacing" textLength="111.2754" x="774.8223" y="24.5332">InstanceVariable</text></g><!--class InstanceVariable--><g class="entity" data-qualified-name="InstanceVariable" data-source-line="12" id="ent0002"><rect fill="#FEFECE" height="209.1875" rx="2.5" ry="2.5" style="stroke:#404040;stroke-width:0.5;" width="279.6816" x="873.5" y="148.6094"/><text fill="#000000" font-family="sans-serif" font-size="12" lengthAdjust="spacing" textLength="89.3906" x="968.6455" y="166.0664">InstanceVariable</text><line style="stroke:#404040;stroke-width:0.5;" x1="874.5" x2="1152.1816" y1="173.7031" y2="173.7031"/><g data-visibility-modifier="PUBLIC_FIELD"><ellipse cx="884.5" cy="188.0078" fill="none" rx="3" ry="3" style="stroke:#038048;stroke-width:1;"/></g><text fill="#000000" font-family="sans-serif" font-size="14" lengthAdjust="spacing" textLength="100.3789" x="893.5" y="192.2363">name : string [1]</text><g data-visibility-modifier="PUBLIC_FIELD"><ellipse cx="884.5" cy="205.6172" fill="none" rx="3" ry="3" style="stroke:#038048;stroke-width:1;"/></g><text fill="#000000" font-family="sans-serif" font-size="14" lengthAdjust="spacing" textLength="121.3994" x="893.5" y="209.8457">definition : string [1]</text><g data-visibility-modifier="PUBLIC_FIELD"><ellipse cx="884.5" cy="223.2266" fill="none" rx="3" ry="3" style="stroke:#038048;stroke-width:1;"/></g><text fill="#000000" font-family="sans-serif" font-size="14" lengthAdjust="spacing" textLength="253.6816" x="893.5" y="227.4551">describedUnitOfMeasure : Concept [0..1]</text><g data-visibility-modifier="PUBLIC_FIELD"><ellipse cx="884.5" cy="240.8359" fill="none" rx="3" ry="3" style="stroke:#038048;stroke-width:1;"/></g><text fill="#000000" font-family="sans-serif" font-size="14" lengthAdjust="spacing" textLength="218.6748" x="893.5" y="245.0645">unitOfMeasureKind : Concept [0..1]</text><g data-visibility-modifier="PUBLIC_FIELD"><ellipse cx="884.5" cy="258.4453" fill="none" rx="3" ry="3" style="stroke:#038048;stroke-width:1;"/></g><text fill="#000000" font-family="sans-serif" font-size="14" lengthAdjust="spacing" textLength="145.5303" x="893.5" y="262.6738">function : Concept [0..*]</text><g data-visibility-modifier="PUBLIC_FIELD"><ellipse cx="884.5" cy="276.0547" fill="none" rx="3" ry="3" style="stroke:#038048;stroke-width:1;"/></g><text fill="#000000" font-family="sans-serif" font-size="14" lengthAdjust="spacing" textLength="180.5303" x="893.5" y="280.2832">platformType : Concept [0..1]</text><g data-visibility-modifier="PUBLIC_FIELD"><ellipse cx="884.5" cy="293.6641" fill="none" rx="3" ry="3" style="stroke:#038048;stroke-width:1;"/></g><text fill="#000000" font-family="sans-serif" font-size="14" lengthAdjust="spacing" textLength="122.9443" x="893.5" y="297.8926">source : string [0..1]</text><g data-visibility-modifier="PUBLIC_FIELD"><ellipse cx="884.5" cy="311.2734" fill="none" rx="3" ry="3" style="stroke:#038048;stroke-width:1;"/></g><text fill="#000000" font-family="sans-serif" font-size="14" lengthAdjust="spacing" textLength="236.5986" x="893.5" y="315.502">hasIntendedDataType : Concept [0..1]</text><g data-visibility-modifier="PUBLIC_FIELD"><ellipse cx="884.5" cy="328.8828" fill="none" rx="3" ry="3" style="stroke:#038048;stroke-width:1;"/></g><text fill="#000000" font-family="sans-serif" font-size="14" lengthAdjust="spacing" textLength="215.5234" x="893.5" y="333.1113">simpleUnitOfMeasure : string [0..1]</text><g data-visibility-modifier="PUBLIC_FIELD"><ellipse cx="884.5" cy="346.4922" fill="none" rx="3" ry="3" style="stroke:#038048;stroke-width:1;"/></g><text fill="#000000" font-family="sans-serif" font-size="14" lengthAdjust="spacing" textLength="126.0684" x="893.5" y="350.7207">uses : Concept [0..*]</text></g><!--class AbstractVariable--><g class="entity" data-qualified-name="AbstractVariable" data-source-line="24" id="ent0003"><rect fill="#D6EAF8" height="25.0938" rx="2.5" ry="2.5" style="stroke:#404040;stroke-width:0.5;" width="94.043" x="586.5" y="45.6094"/><text fill="#000000" font-family="sans-serif" font-size="12" font-style="italic" lengthAdjust="spacing" textLength="88.043" x="589.5" y="63.0664">AbstractVariable</text></g><!--class RepresentedVariable--><g class="entity" data-qualified-name="RepresentedVariable" data-source-line="26" id="ent0005"><rect fill="#EEEEEE" height="25.0938" rx="2.5" ry="2.5" style="stroke:#404040;stroke-width:0.5;" width="118.7402" x="7" y="435.6094"/><text fill="#000000" font-family="sans-serif" font-size="12" lengthAdjust="spacing" textLength="112.7402" x="10" y="453.0664">RepresentedVariable</text></g><!--class StatisticsCollection--><g class="entity" data-qualified-name="StatisticsCollection" data-source-line="28" id="ent0007"><rect fill="#EEEEEE" height="25.0938" rx="2.5" ry="2.5" style="stroke:#404040;stroke-width:0.5;" width="106.7051" x="1484" y="435.6094"/><text fill="#000000" font-family="sans-serif" font-size="12" lengthAdjust="spacing" textLength="100.7051" x="1487" y="453.0664">StatisticsCollection</text></g><!--class SubstantiveValueDomain--><g class="entity" data-qualified-name="SubstantiveValueDomain" data-source-line="31" id="ent0010"><rect fill="#EEEEEE" height="25.0938" rx="2.5" ry="2.5" style="stroke:#404040;stroke-width:0.5;" width="140.748" x="161" y="435.6094"/><text fill="#000000" font-family="sans-serif" font-size="12" lengthAdjust="spacing" textLength="134.748" x="164" y="453.0664">SubstantiveValueDomain</text></g><!--class SentinelValueDomain--><g class="entity" data-qualified-name="SentinelValueDomain" data-source-line="33" id="ent0012"><rect fill="#EEEEEE" height="25.0938" rx="2.5" ry="2.5" style="stroke:#404040;stroke-width:0.5;" width="121.4063" x="382" y="435.6094"/><text fill="#000000" font-family="sans-serif" font-size="12" lengthAdjust="spacing" textLength="115.4063" x="385" y="453.0664">SentinelValueDomain</text></g><!--class VariableMeasured--><g class="entity" data-qualified-name="VariableMeasured" data-source-line="35" id="ent0014"><rect fill="#EEEEEE" height="25.0938" rx="2.5" ry="2.5" style="stroke:#404040;stroke-width:0.5;" width="103.3887" x="716" y="45.6094"/><text fill="#000000" font-family="sans-serif" font-size="12" lengthAdjust="spacing" textLength="97.3887" x="719" y="63.0664">VariableMeasured</text></g><!--class Statistics--><g class="entity" data-qualified-name="Statistics" data-source-line="37" id="ent0016"><rect fill="#EEEEEE" height="25.0938" rx="2.5" ry="2.5" style="stroke:#404040;stroke-width:0.5;" width="54.0117" x="873.5" y="45.6094"/><text fill="#000000" font-family="sans-serif" font-size="12" lengthAdjust="spacing" textLength="48.0117" x="876.5" y="63.0664">Statistics</text></g><!--class CategoryStatistics--><g class="entity" data-qualified-name="CategoryStatistics" data-source-line="40" id="ent0019"><rect fill="#EEEEEE" height="25.0938" rx="2.5" ry="2.5" style="stroke:#404040;stroke-width:0.5;" width="102.7031" x="982" y="45.6094"/><text fill="#000000" font-family="sans-serif" font-size="12" lengthAdjust="spacing" textLength="96.7031" x="985" y="63.0664">CategoryStatistics</text></g><!--class PhysicalMapping--><g class="entity" data-qualified-name="PhysicalMapping" data-source-line="44" id="ent0023"><rect fill="#EEEEEE" height="25.0938" rx="2.5" ry="2.5" style="stroke:#404040;stroke-width:0.5;" width="96.7148" x="1120" y="45.6094"/><text fill="#000000" font-family="sans-serif" font-size="12" lengthAdjust="spacing" textLength="90.7148" x="1123" y="63.0664">PhysicalMapping</text></g><!--class TextMapping--><g class="entity" data-qualified-name="TextMapping" data-source-line="46" id="ent0025"><rect fill="#EEEEEE" height="25.0938" rx="2.5" ry="2.5" style="stroke:#404040;stroke-width:0.5;" width="75.3691" x="1252" y="45.6094"/><text fill="#000000" font-family="sans-serif" font-size="12" lengthAdjust="spacing" textLength="69.3691" x="1255" y="63.0664">TextMapping</text></g><!--class LocatorMapping--><g class="entity" data-qualified-name="LocatorMapping" data-source-line="48" id="ent0027"><rect fill="#EEEEEE" height="25.0938" rx="2.5" ry="2.5" style="stroke:#404040;stroke-width:0.5;" width="92.0566" x="1362.5" y="45.6094"/><text fill="#000000" font-family="sans-serif" font-size="12" lengthAdjust="spacing" textLength="86.0566" x="1365.5" y="63.0664">LocatorMapping</text></g><!--class Concept--><g class="entity" data-qualified-name="Concept" data-source-line="50" id="ent0029"><rect fill="#EEEEEE" height="25.0938" rx="2.5" ry="2.5" style="stroke:#404040;stroke-width:0.5;" width="50.6953" x="988" y="435.6094"/><text fill="#000000" font-family="sans-serif" font-size="12" lengthAdjust="spacing" textLength="44.6953" x="991" y="453.0664">Concept</text></g><!--reverse link AbstractVariable to InstanceVariable--><g class="link" data-entity-1="ent0003" data-entity-2="ent0002" data-link-type="extension" data-source-line="25" id="lnk4"><path codeLine="25" d="M672.4586,78.9006 C714.8286,100.4206 792.39,139.8094 873.14,180.8294" fill="none" id="AbstractVariable-backto-InstanceVariable" style="stroke:#404040;stroke-width:1.2;"/><polygon fill="none" points="656.41,70.7494,669.7415,84.2501,675.1757,73.551,656.41,70.7494" style="stroke:#404040;stroke-width:1.2;"/></g><!--link InstanceVariable to RepresentedVariable--><g class="link" data-entity-1="ent0002" data-entity-2="ent0005" data-link-type="dependency" data-source-line="27" id="lnk6"><path codeLine="27" d="M873.33,268.4994 C712.59,287.0694 442.19,324.7194 216.5,387.6094 C170.89,400.3294 125.5852,419.6812 96.3452,433.0712" fill="none" id="InstanceVariable-to-RepresentedVariable" style="stroke:#404040;stroke-width:1.2;"/><polygon fill="#404040" points="90.89,435.5694,100.7382,435.459,95.436,433.4876,97.4074,428.1854,90.89,435.5694" style="stroke:#404040;stroke-width:1.2;"/><text fill="#000000" font-family="sans-serif" font-size="13" lengthAdjust="spacing" textLength="27.46" x="217.5" y="402.1045">uses</text><text fill="#000000" font-family="sans-serif" font-size="13" lengthAdjust="spacing" textLength="7.23" x="92.6081" y="424.6449">1</text></g><!--link InstanceVariable to StatisticsCollection--><g class="link" data-entity-1="ent0002" data-entity-2="ent0007" data-link-type="dependency" data-source-line="29" id="lnk8"><path codeLine="29" d="M1153.51,309.7094 C1228.99,339.1694 1323.95,375.4094 1409.5,405.6094 C1439.79,416.3094 1468.7468,425.6881 1494.3568,433.7481" fill="none" id="InstanceVariable-to-StatisticsCollection" style="stroke:#404040;stroke-width:1.2;"/><polygon fill="#404040" points="1500.08,435.5494,1492.6959,429.032,1495.3106,434.0484,1490.2943,436.663,1500.08,435.5494" style="stroke:#404040;stroke-width:1.2;"/><text fill="#000000" font-family="sans-serif" font-size="13" lengthAdjust="spacing" textLength="83.0845" x="1410.5" y="402.1045">isDescribedBy</text><text fill="#000000" font-family="sans-serif" font-size="13" lengthAdjust="spacing" textLength="21.6836" x="1459.5148" y="424.6167">0..1</text></g><!--link StatisticsCollection to InstanceVariable--><g class="link" data-entity-1="ent0007" data-entity-2="ent0002" data-link-type="dependency" data-source-line="42" id="lnk21"><path codeLine="42" d="M1532.79,435.1894 C1526.83,421.6394 1515.27,399.8294 1498.5,387.6094 C1397.29,313.8894 1263.2598,281.717 1159.6898,266.937" fill="none" id="StatisticsCollection-to-InstanceVariable" style="stroke:#404040;stroke-width:1.2;"/><polygon fill="#404040" points="1153.75,266.0894,1162.0946,271.3207,1158.6999,266.7957,1163.2248,263.401,1153.75,266.0894" style="stroke:#404040;stroke-width:1.2;"/><text fill="#000000" font-family="sans-serif" font-size="13" lengthAdjust="spacing" textLength="60.709" x="1516.5" y="402.1045">indexedBy</text><text fill="#000000" font-family="sans-serif" font-size="13" lengthAdjust="spacing" textLength="19.5127" x="1161.0236" y="263.8297">1..*</text></g><!--link StatisticsCollection to InstanceVariable--><g class="link" data-entity-1="ent0007" data-entity-2="ent0002" data-link-type="dependency" data-source-line="43" id="lnk22"><path codeLine="43" d="M1557.91,435.5294 C1576.37,423.5694 1598.78,404.3494 1585.5,387.6094 C1532.57,320.9094 1311.2413,285.1099 1159.6013,267.7999" fill="none" id="StatisticsCollection-to-InstanceVariable-1" style="stroke:#404040;stroke-width:1.2;"/><polygon fill="#404040" points="1153.64,267.1194,1162.1283,272.1143,1158.6077,267.6865,1163.0356,264.1659,1153.64,267.1194" style="stroke:#404040;stroke-width:1.2;"/><text fill="#000000" font-family="sans-serif" font-size="13" lengthAdjust="spacing" textLength="61.4199" x="1590.5" y="402.1045">hasWeight</text><text fill="#000000" font-family="sans-serif" font-size="13" lengthAdjust="spacing" textLength="21.6836" x="1160.9609" y="281.6846">0..1</text></g><!--link InstanceVariable to InstanceVariable--><g class="link" data-entity-1="ent0002" data-entity-2="ent0002" data-link-type="dependency" data-source-line="30" id="lnk9"><path codeLine="30" d="M1153.55,228.9594 C1174.4,232.7194 1188.5,240.7694 1188.5,253.1094 C1188.5,265.4594 1180.3048,272.4445 1159.4548,276.2045" fill="none" id="InstanceVariable-to-InstanceVariable" style="stroke:#404040;stroke-width:1.2;"/><polygon fill="#404040" points="1153.55,277.2694,1163.117,279.6086,1158.4706,276.382,1161.6972,271.7356,1153.55,277.2694" style="stroke:#404040;stroke-width:1.2;"/><text fill="#000000" font-family="sans-serif" font-size="13" lengthAdjust="spacing" textLength="47.6963" x="1194.5" y="258.6045">qualifies</text><text fill="#000000" font-family="sans-serif" font-size="13" lengthAdjust="spacing" textLength="21.6836" x="1161.3386" y="292.427">0..1</text></g><!--link InstanceVariable to SubstantiveValueDomain--><g class="link" data-entity-1="ent0002" data-entity-2="ent0010" data-link-type="dependency" data-source-line="32" id="lnk11"><path codeLine="32" d="M873.23,266.2794 C686.52,284.6494 368.56,324.2394 271.5,387.6094 C253.78,399.1794 244.3399,416.1216 238.3899,429.8916" fill="none" id="InstanceVariable-to-SubstantiveValueDomain" style="stroke:#404040;stroke-width:1.2;"/><polygon fill="#404040" points="236.01,435.3994,243.2518,428.7243,237.9933,430.8095,235.908,425.551,236.01,435.3994" style="stroke:#404040;stroke-width:1.2;"/><text fill="#000000" font-family="sans-serif" font-size="13" lengthAdjust="spacing" textLength="169.0825" x="272.5" y="402.1045">takesSubstantiveValuesFrom</text><text fill="#000000" font-family="sans-serif" font-size="13" lengthAdjust="spacing" textLength="21.6836" x="212.8356" y="424.7907">0..1</text></g><!--link InstanceVariable to SentinelValueDomain--><g class="link" data-entity-1="ent0002" data-entity-2="ent0012" data-link-type="dependency" data-source-line="34" id="lnk13"><path codeLine="34" d="M873.38,271.8994 C729.77,292.8494 519.37,331.9994 460.5,387.6094 C447.32,400.0694 444.1077,415.8139 443.1677,429.2839" fill="none" id="InstanceVariable-to-SentinelValueDomain" style="stroke:#404040;stroke-width:1.2;"/><polygon fill="#404040" points="442.75,435.2694,447.3668,426.5697,443.0981,430.2815,439.3862,426.0127,442.75,435.2694" style="stroke:#404040;stroke-width:1.2;"/><text fill="#000000" font-family="sans-serif" font-size="13" lengthAdjust="spacing" textLength="148.1289" x="461.5" y="402.1045">takesSentinelValuesFrom</text><text fill="#000000" font-family="sans-serif" font-size="13" lengthAdjust="spacing" textLength="19.5127" x="420.2437" y="424.8684">0..*</text></g><!--link VariableMeasured to InstanceVariable--><g class="link" data-entity-1="ent0014" data-entity-2="ent0002" data-link-type="dependency" data-source-line="36" id="lnk15"><path codeLine="36" d="M770.31,70.7794 C773.9,83.6894 781.18,104.5294 793.5,118.6094 C815.85,144.1694 839.2734,163.0897 868.2534,181.5997" fill="none" id="VariableMeasured-to-InstanceVariable" style="stroke:#404040;stroke-width:1.2;"/><polygon fill="#404040" points="873.31,184.8294,867.8783,176.6138,869.0962,182.1379,863.572,183.3558,873.31,184.8294" style="stroke:#404040;stroke-width:1.2;"/><text fill="#000000" font-family="sans-serif" font-size="13" lengthAdjust="spacing" textLength="55.6372" x="794.5" y="115.1045">describes</text><text fill="#000000" font-family="sans-serif" font-size="13" lengthAdjust="spacing" textLength="21.6836" x="843.6272" y="177.9193">0..1</text></g><!--link Statistics to InstanceVariable--><g class="link" data-entity-1="ent0016" data-entity-2="ent0002" data-link-type="dependency" data-source-line="38" id="lnk17"><path codeLine="38" d="M884.19,70.7794 C870.19,82.3394 853.45,100.8394 861.5,118.6094 C866.21,129.0094 868.6416,134.0665 875.4616,143.4465" fill="none" id="Statistics-to-InstanceVariable" style="stroke:#404040;stroke-width:1.2;"/><polygon fill="#404040" points="878.99,148.2994,876.9326,138.6678,876.0497,144.2553,870.4621,143.3724,878.99,148.2994" style="stroke:#404040;stroke-width:1.2;"/><text fill="#000000" font-family="sans-serif" font-size="13" lengthAdjust="spacing" textLength="56.3672" x="862.5" y="115.1045">appliesTo</text><text fill="#000000" font-family="sans-serif" font-size="13" lengthAdjust="spacing" textLength="19.5127" x="849.8935" y="137.8683">1..*</text></g><!--link Statistics to InstanceVariable--><g class="link" data-entity-1="ent0016" data-entity-2="ent0002" data-link-type="dependency" data-source-line="39" id="lnk18"><path codeLine="39" d="M907.4,70.8994 C916.79,86.9394 931.5094,112.071 949.8394,143.391" fill="none" id="Statistics-to-InstanceVariable-1" style="stroke:#404040;stroke-width:1.2;"/><polygon fill="#404040" points="952.87,148.5694,951.7763,138.7814,950.3445,144.2541,944.8718,142.8223,952.87,148.5694" style="stroke:#404040;stroke-width:1.2;"/><text fill="#000000" font-family="sans-serif" font-size="13" lengthAdjust="spacing" textLength="61.4199" x="934.5" y="115.1045">hasWeight</text><text fill="#000000" font-family="sans-serif" font-size="13" lengthAdjust="spacing" textLength="21.6836" x="926.6832" y="137.8059">0..1</text></g><!--link CategoryStatistics to InstanceVariable--><g class="link" data-entity-1="ent0019" data-entity-2="ent0002" data-link-type="dependency" data-source-line="41" id="lnk20"><path codeLine="41" d="M1032.28,70.8994 C1030.62,86.9394 1028.0993,111.2814 1024.8493,142.6014" fill="none" id="CategoryStatistics-to-InstanceVariable" style="stroke:#404040;stroke-width:1.2;"/><polygon fill="#404040" points="1024.23,148.5694,1029.1376,140.0303,1024.7461,143.5961,1021.1803,139.2046,1024.23,148.5694" style="stroke:#404040;stroke-width:1.2;"/><text fill="#000000" font-family="sans-serif" font-size="13" lengthAdjust="spacing" textLength="61.4199" x="1029.5" y="115.1045">hasWeight</text><text fill="#000000" font-family="sans-serif" font-size="13" lengthAdjust="spacing" textLength="21.6836" x="1003.2837" y="137.8059">0..1</text></g><!--link PhysicalMapping to InstanceVariable--><g class="link" data-entity-1="ent0023" data-entity-2="ent0002" data-link-type="dependency" data-source-line="45" id="lnk24"><path codeLine="45" d="M1159.04,70.8994 C1146.15,86.9394 1125.5667,112.571 1100.4167,143.891" fill="none" id="PhysicalMapping-to-InstanceVariable" style="stroke:#404040;stroke-width:1.2;"/><polygon fill="#404040" points="1096.66,148.5694,1105.414,144.0563,1099.7906,144.6707,1099.1762,139.0474,1096.66,148.5694" style="stroke:#404040;stroke-width:1.2;"/><text fill="#000000" font-family="sans-serif" font-size="13" lengthAdjust="spacing" textLength="43.3418" x="1135.5" y="115.1045">formats</text><text fill="#000000" font-family="sans-serif" font-size="13" lengthAdjust="spacing" textLength="7.23" x="1095.5302" y="137.8059">1</text></g><!--link TextMapping to InstanceVariable--><g class="link" data-entity-1="ent0025" data-entity-2="ent0002" data-link-type="dependency" data-source-line="47" id="lnk26"><path codeLine="47" d="M1272.65,70.8994 C1248.36,87.8794 1206.1172,117.4212 1158.6072,150.6412" fill="none" id="TextMapping-to-InstanceVariable" style="stroke:#404040;stroke-width:1.2;"/><polygon fill="#404040" points="1153.69,154.0794,1163.3579,152.2002,1157.7877,151.2142,1158.7736,145.6439,1153.69,154.0794" style="stroke:#404040;stroke-width:1.2;"/><text fill="#000000" font-family="sans-serif" font-size="13" lengthAdjust="spacing" textLength="43.3418" x="1230.5" y="115.1045">formats</text><text fill="#000000" font-family="sans-serif" font-size="13" lengthAdjust="spacing" textLength="7.23" x="1161.1132" y="146.06">1</text></g><!--link LocatorMapping to InstanceVariable--><g class="link" data-entity-1="ent0027" data-entity-2="ent0002" data-link-type="dependency" data-source-line="49" id="lnk28"><path codeLine="49" d="M1384.68,70.7494 C1339.65,92.7594 1244.281,139.3556 1159.091,180.9756" fill="none" id="LocatorMapping-to-InstanceVariable" style="stroke:#404040;stroke-width:1.2;"/><polygon fill="#404040" points="1153.7,183.6094,1163.5424,183.2527,1158.1925,181.4145,1160.0307,176.0647,1153.7,183.6094" style="stroke:#404040;stroke-width:1.2;"/><text fill="#000000" font-family="sans-serif" font-size="13" lengthAdjust="spacing" textLength="43.3418" x="1323.5" y="115.1045">formats</text><text fill="#000000" font-family="sans-serif" font-size="13" lengthAdjust="spacing" textLength="7.23" x="1161.1237" y="177.1126">1</text></g><!--link InstanceVariable to Concept--><g class="link" data-entity-1="ent0002" data-entity-2="ent0029" data-link-type="dependency" data-source-line="51" id="lnk30"><path codeLine="51" d="M873.44,264.4694 C733.69,279.9494 550.32,317.4194 629.5,405.6094 C653.47,432.3094 899.7038,443.1562 981.8238,446.0762" fill="none" id="InstanceVariable-to-Concept" style="stroke:#404040;stroke-width:1.2;"/><polygon fill="#404040" points="987.82,446.2894,978.9678,441.9721,982.8232,446.1117,978.6835,449.967,987.82,446.2894" style="stroke:#404040;stroke-width:1.2;"/><text fill="#000000" font-family="sans-serif" font-size="13" lengthAdjust="spacing" textLength="143.7871" x="630.5" y="402.1045">describedUnitOfMeasure</text><text fill="#000000" font-family="sans-serif" font-size="13" lengthAdjust="spacing" textLength="21.6836" x="958.1216" y="441.4223">0..1</text></g><!--link InstanceVariable to Concept--><g class="link" data-entity-1="ent0002" data-entity-2="ent0029" data-link-type="dependency" data-source-line="52" id="lnk31"><path codeLine="52" d="M873.19,304.5694 C821.43,331.0094 782.38,366.1094 814.5,405.6094 C836.09,432.1794 933.2542,441.8964 981.9542,445.2564" fill="none" id="InstanceVariable-to-Concept-1" style="stroke:#404040;stroke-width:1.2;"/><polygon fill="#404040" points="987.94,445.6694,979.2367,441.0594,982.9519,445.3252,978.686,449.0404,987.94,445.6694" style="stroke:#404040;stroke-width:1.2;"/><text fill="#000000" font-family="sans-serif" font-size="13" lengthAdjust="spacing" textLength="111.2808" x="815.5" y="402.1045">unitOfMeasureKind</text><text fill="#000000" font-family="sans-serif" font-size="13" lengthAdjust="spacing" textLength="21.6836" x="958.2708" y="460.5512">0..1</text></g><!--link InstanceVariable to Concept--><g class="link" data-entity-1="ent0002" data-entity-2="ent0029" data-link-type="dependency" data-source-line="53" id="lnk32"><path codeLine="53" d="M962.17,357.6394 C959.75,373.9394 960.74,390.4194 967.5,405.6094 C973.01,417.9994 979.3788,424.7225 989.3588,431.9425" fill="none" id="InstanceVariable-to-Concept-2" style="stroke:#404040;stroke-width:1.2;"/><polygon fill="#404040" points="994.22,435.4594,989.2727,426.9433,990.169,432.5287,984.5836,433.4249,994.22,435.4594" style="stroke:#404040;stroke-width:1.2;"/><text fill="#000000" font-family="sans-serif" font-size="13" lengthAdjust="spacing" textLength="45.5317" x="968.5" y="402.1045">function</text><text fill="#000000" font-family="sans-serif" font-size="13" lengthAdjust="spacing" textLength="19.5127" x="990.53" y="424.8743">0..*</text></g><!--link InstanceVariable to Concept--><g class="link" data-entity-1="ent0002" data-entity-2="ent0029" data-link-type="dependency" data-source-line="54" id="lnk33"><path codeLine="54" d="M1019.48,357.6494 C1019.67,373.7094 1019.43,390.1194 1018.5,405.6094 C1017.89,415.7594 1017.2945,421.2791 1016.1145,429.5791" fill="none" id="InstanceVariable-to-Concept-3" style="stroke:#404040;stroke-width:1.2;"/><polygon fill="#404040" points="1015.27,435.5194,1020.497,427.172,1015.9738,430.5692,1012.5766,426.046,1015.27,435.5194" style="stroke:#404040;stroke-width:1.2;"/><text fill="#000000" font-family="sans-serif" font-size="13" lengthAdjust="spacing" textLength="75.8608" x="1019.5" y="402.1045">platformType</text><text fill="#000000" font-family="sans-serif" font-size="13" lengthAdjust="spacing" textLength="21.6836" x="1020.5352" y="424.5743">0..1</text></g><!--link InstanceVariable to Concept--><g class="link" data-entity-1="ent0002" data-entity-2="ent0029" data-link-type="dependency" data-source-line="55" id="lnk34"><path codeLine="55" d="M1108.52,357.7694 C1113.7,373.8894 1113.31,390.2794 1103.5,405.6094 C1089.4,427.6394 1066.1674,436.7948 1044.8574,441.6948" fill="none" id="InstanceVariable-to-Concept-4" style="stroke:#404040;stroke-width:1.2;"/><polygon fill="#404040" points="1039.01,443.0394,1048.6775,444.9208,1043.8828,441.9189,1046.8847,437.1243,1039.01,443.0394" style="stroke:#404040;stroke-width:1.2;"/><text fill="#000000" font-family="sans-serif" font-size="13" lengthAdjust="spacing" textLength="127.9243" x="1110.5" y="402.1045">hasIntendedDataType</text><text fill="#000000" font-family="sans-serif" font-size="13" lengthAdjust="spacing" textLength="21.6836" x="1046.539" y="437.8654">0..1</text></g><!--link InstanceVariable to Concept--><g class="link" data-entity-1="ent0002" data-entity-2="ent0029" data-link-type="dependency" data-source-line="56" id="lnk35"><path codeLine="56" d="M1153.73,292.0994 C1224.41,318.1794 1287.32,356.8794 1246.5,405.6094 C1220.25,436.9594 1100.0165,444.4452 1045.1065,446.3152" fill="none" id="InstanceVariable-to-Concept-5" style="stroke:#404040;stroke-width:1.2;"/><polygon fill="#404040" points="1039.11,446.5194,1048.2409,450.2107,1044.1071,446.3492,1047.9686,442.2154,1039.11,446.5194" style="stroke:#404040;stroke-width:1.2;"/><text fill="#000000" font-family="sans-serif" font-size="13" lengthAdjust="spacing" textLength="27.46" x="1257.5" y="402.1045">uses</text><text fill="#000000" font-family="sans-serif" font-size="13" lengthAdjust="spacing" textLength="19.5127" x="1046.8797" y="461.4449">0..*</text></g><?plantuml-src ZLNVRzem47xFNs65jqwWKatJXAP9b1zIjLMRLhOzL7iud0jOE7PcEslPslzzJaXI4niQU87lkxllk_XoDinm93T26n0KVu1YiEOORLc2X395cz-OvMPFCipMg7IaTqpae20ZUWk9V61YGrBW6XrcgfHyM6qPtGdKcen7Lmv9ELZiNqGEOJF9fIA3jvVbruBNKYMekkXI2dF7_Y8PNqNFKNIe4NUznmIqrn0PB1VBnMnHIRuHa26P46rKQVn-_Ai44qoPO8P94Q0qLMoDoNSRy2MzHT25AYlCfDN83Rc_78qEeOKRyOc991YL5eBMIYvvKP4v1vDAbQtsULX3oq9Hju6MsOA-4GP5WiaS39okmBASOxSRhroXKViMdoDOsr2WfZx6U5h_Fpg2BaW6ytUBwV9zv14VdeP3VmJhsjymLwZHTfKSbG_WPB2eFf5t-iFXHnAFus3IX9HjDd9t1WpJXb5jfuzZTKgLNeXuHR1yZd4uSKAOdZTJTRq_My3Z9kHt0PobpB5ThCiWm_xOC5xWN6R0QkD1gf_rSEg46DYXxh9wgMJM6h8FcGdadXiVVztAHHpCQtour969fb0zuadbe0ksyXvn_WoQfH0OdSx0j0eET9Z8ghL0RSXpRazt9RsKatRig_yJsMPh6ZipCBYHQj-nvSEjlG3LLpCuvETxjBiH7wlXFvtSlzklsxrc5FYjVNHsYLMjTh2spoxUR8U0Jhc7mRH7lC97uoeu_zlgBjQ_ycT9mKZb5Z-6sleTkBz4lSOFKr2lz3vRe8bz6VdZUx1didSpddtVN_AQkxAdZ7jxzam9t9ezlLKtnty0?></g></svg>