<svg xmlns="http://www.w3.org/2000/svg" xmlns:xlink="http://www.w3.org/1999/xlink" contentStyleType="text/css" data-diagram-type="CLASS" height="333px" preserveAspectRatio="none" style="width:1079px;height:333px;background:#FFFFFF;" version="1.1" viewBox="0 0 1079 333" width="1079px" zoomAndPan="magnify"><?plantuml 1.2026.3?><defs/><g><g class="title" data-source-line="1"><text fill="#000000" font-family="sans-serif" font-size="14" font-weight="700" lengthAdjust="spacing" textLength="139.2822" x="466.8042" y="24.5332">RepresentedVariable</text></g><!--class RepresentedVariable--><g class="entity" data-qualified-name="RepresentedVariable" data-source-line="12" id="ent0002"><rect fill="#FEFECE" height="68.3125" rx="2.5" ry="2.5" style="stroke:#404040;stroke-width:0.5;" width="147.3994" x="466.5" y="148.6094"/><text fill="#000000" font-family="sans-serif" font-size="12" lengthAdjust="spacing" textLength="112.7402" x="483.8296" y="166.0664">RepresentedVariable</text><line style="stroke:#404040;stroke-width:0.5;" x1="467.5" x2="612.8994" y1="173.7031" y2="173.7031"/><g data-visibility-modifier="PUBLIC_FIELD"><ellipse cx="477.5" cy="188.0078" fill="none" rx="3" ry="3" style="stroke:#038048;stroke-width:1;"/></g><text fill="#000000" font-family="sans-serif" font-size="14" lengthAdjust="spacing" textLength="100.3789" x="486.5" y="192.2363">name : string [1]</text><g data-visibility-modifier="PUBLIC_FIELD"><ellipse cx="477.5" cy="205.6172" fill="none" rx="3" ry="3" style="stroke:#038048;stroke-width:1;"/></g><text fill="#000000" font-family="sans-serif" font-size="14" lengthAdjust="spacing" textLength="121.3994" x="486.5" y="209.8457">definition : string [1]</text></g><!--class DataStructureComponent--><g class="entity" data-qualified-name="DataStructureComponent" data-source-line="16" id="ent0003"><rect fill="#EEEEEE" height="25.0938" rx="2.5" ry="2.5" style="stroke:#404040;stroke-width:0.5;" width="142.0723" x="7" y="45.6094"/><text fill="#000000" font-family="sans-serif" font-size="12" font-style="italic" lengthAdjust="spacing" textLength="136.0723" x="10" y="63.0664">DataStructureComponent</text></g><!--class IdentifierComponent--><g class="entity" data-qualified-name="IdentifierComponent" data-source-line="18" id="ent0005"><rect fill="#EEEEEE" height="25.0938" rx="2.5" ry="2.5" style="stroke:#404040;stroke-width:0.5;" width="114.0645" x="184" y="45.6094"/><text fill="#000000" font-family="sans-serif" font-size="12" lengthAdjust="spacing" textLength="108.0645" x="187" y="63.0664">IdentifierComponent</text></g><!--class MeasureComponent--><g class="entity" data-qualified-name="MeasureComponent" data-source-line="20" id="ent0007"><rect fill="#EEEEEE" height="25.0938" rx="2.5" ry="2.5" style="stroke:#404040;stroke-width:0.5;" width="114.7266" x="333.5" y="45.6094"/><text fill="#000000" font-family="sans-serif" font-size="12" lengthAdjust="spacing" textLength="108.7266" x="336.5" y="63.0664">MeasureComponent</text></g><!--class AttributeComponent--><g class="entity" data-qualified-name="AttributeComponent" data-source-line="22" id="ent0009"><rect fill="#EEEEEE" height="25.0938" rx="2.5" ry="2.5" style="stroke:#404040;stroke-width:0.5;" width="112.7285" x="483.5" y="45.6094"/><text fill="#000000" font-family="sans-serif" font-size="12" lengthAdjust="spacing" textLength="106.7285" x="486.5" y="63.0664">AttributeComponent</text></g><!--class DimensionComponent--><g class="entity" data-qualified-name="DimensionComponent" data-source-line="24" id="ent0011"><rect fill="#EEEEEE" height="25.0938" rx="2.5" ry="2.5" style="stroke:#404040;stroke-width:0.5;" width="124.7285" x="631.5" y="45.6094"/><text fill="#000000" font-family="sans-serif" font-size="12" lengthAdjust="spacing" textLength="118.7285" x="634.5" y="63.0664">DimensionComponent</text></g><!--class VariableValueComponent--><g class="entity" data-qualified-name="VariableValueComponent" data-source-line="26" id="ent0013"><rect fill="#EEEEEE" height="25.0938" rx="2.5" ry="2.5" style="stroke:#404040;stroke-width:0.5;" width="142.7578" x="791.5" y="45.6094"/><text fill="#000000" font-family="sans-serif" font-size="12" lengthAdjust="spacing" textLength="136.7578" x="794.5" y="63.0664">VariableValueComponent</text></g><!--class SubstantiveValueDomain--><g class="entity" data-qualified-name="SubstantiveValueDomain" data-source-line="28" id="ent0015"><rect fill="#EEEEEE" height="25.0938" rx="2.5" ry="2.5" style="stroke:#404040;stroke-width:0.5;" width="140.748" x="258.5" y="294.6094"/><text fill="#000000" font-family="sans-serif" font-size="12" lengthAdjust="spacing" textLength="134.748" x="261.5" y="312.0664">SubstantiveValueDomain</text></g><!--class SentinelValueDomain--><g class="entity" data-qualified-name="SentinelValueDomain" data-source-line="30" id="ent0017"><rect fill="#EEEEEE" height="25.0938" rx="2.5" ry="2.5" style="stroke:#404040;stroke-width:0.5;" width="121.4063" x="479.5" y="294.6094"/><text fill="#000000" font-family="sans-serif" font-size="12" lengthAdjust="spacing" textLength="115.4063" x="482.5" y="312.0664">SentinelValueDomain</text></g><!--class UnitType--><g class="entity" data-qualified-name="UnitType" data-source-line="32" id="ent0019"><rect fill="#EEEEEE" height="25.0938" rx="2.5" ry="2.5" style="stroke:#404040;stroke-width:0.5;" width="54.0176" x="703" y="294.6094"/><text fill="#000000" font-family="sans-serif" font-size="12" lengthAdjust="spacing" textLength="48.0176" x="706" y="312.0664">UnitType</text></g><!--class InstanceVariable--><g class="entity" data-qualified-name="InstanceVariable" data-source-line="34" id="ent0021"><rect fill="#EEEEEE" height="25.0938" rx="2.5" ry="2.5" style="stroke:#404040;stroke-width:0.5;" width="95.3906" x="969.5" y="45.6094"/><text fill="#000000" font-family="sans-serif" font-size="12" lengthAdjust="spacing" textLength="89.3906" x="972.5" y="63.0664">InstanceVariable</text></g><!--link DataStructureComponent to RepresentedVariable--><g class="link" data-entity-1="ent0003" data-entity-2="ent0002" data-link-type="dependency" data-source-line="17" id="lnk4"><path codeLine="17" d="M106.89,70.7194 C139.88,83.6694 195.7,104.6294 245,118.6094 C319.44,139.7194 400.322,156.3479 460.402,167.5679" fill="none" id="DataStructureComponent-to-RepresentedVariable" style="stroke:#404040;stroke-width:1.2;"/><polygon fill="#404040" points="466.3,168.6694,458.1873,163.0852,461.385,167.7515,456.7186,170.9492,466.3,168.6694" style="stroke:#404040;stroke-width:1.2;"/><text fill="#000000" font-family="sans-serif" font-size="13" lengthAdjust="spacing" textLength="69.3672" x="246" y="115.1045">isDefinedBy</text><text fill="#000000" font-family="sans-serif" font-size="13" lengthAdjust="spacing" textLength="7.23" x="451.33" y="181.5539">1</text></g><!--link IdentifierComponent to RepresentedVariable--><g class="link" data-entity-1="ent0005" data-entity-2="ent0002" data-link-type="dependency" data-source-line="19" id="lnk6"><path codeLine="19" d="M262.11,70.6894 C285.61,83.3394 324.9,103.7594 360,118.6094 C394.3,133.1194 427.5331,145.1264 460.3831,156.1764" fill="none" id="IdentifierComponent-to-RepresentedVariable" style="stroke:#404040;stroke-width:1.2;"/><polygon fill="#404040" points="466.07,158.0894,458.815,151.4287,461.3309,156.4953,456.2644,159.0112,466.07,158.0894" style="stroke:#404040;stroke-width:1.2;"/><text fill="#000000" font-family="sans-serif" font-size="13" lengthAdjust="spacing" textLength="69.3672" x="361" y="115.1045">isDefinedBy</text><text fill="#000000" font-family="sans-serif" font-size="13" lengthAdjust="spacing" textLength="7.23" x="451.0763" y="152.2329">1</text></g><!--link MeasureComponent to RepresentedVariable--><g class="link" data-entity-1="ent0007" data-entity-2="ent0002" data-link-type="dependency" data-source-line="21" id="lnk8"><path codeLine="21" d="M404.31,70.6394 C418.32,82.7194 441.05,102.1894 461,118.6094 C472.92,128.4194 481.2891,135.1884 493.2891,144.7584" fill="none" id="MeasureComponent-to-RepresentedVariable" style="stroke:#404040;stroke-width:1.2;"/><polygon fill="#404040" points="497.98,148.4994,493.4376,139.7606,494.0709,145.3819,488.4496,146.0151,497.98,148.4994" style="stroke:#404040;stroke-width:1.2;"/><text fill="#000000" font-family="sans-serif" font-size="13" lengthAdjust="spacing" textLength="69.3672" x="462" y="115.1045">isDefinedBy</text><text fill="#000000" font-family="sans-serif" font-size="13" lengthAdjust="spacing" textLength="7.23" x="482.0016" y="137.7079">1</text></g><!--link AttributeComponent to RepresentedVariable--><g class="link" data-entity-1="ent0009" data-entity-2="ent0002" data-link-type="dependency" data-source-line="23" id="lnk10"><path codeLine="23" d="M540,70.8594 C540,88.5794 540,116.8294 540,142.5694" fill="none" id="AttributeComponent-to-RepresentedVariable" style="stroke:#404040;stroke-width:1.2;"/><polygon fill="#404040" points="540,148.5694,544,139.5694,540,143.5694,536,139.5694,540,148.5694" style="stroke:#404040;stroke-width:1.2;"/><text fill="#000000" font-family="sans-serif" font-size="13" lengthAdjust="spacing" textLength="69.3672" x="541" y="115.1045">isDefinedBy</text><text fill="#000000" font-family="sans-serif" font-size="13" lengthAdjust="spacing" textLength="7.23" x="532.2943" y="137.7917">1</text></g><!--link DimensionComponent to RepresentedVariable--><g class="link" data-entity-1="ent0011" data-entity-2="ent0002" data-link-type="dependency" data-source-line="25" id="lnk12"><path codeLine="25" d="M679.51,70.6294 C657.35,88.2594 618.8755,118.8641 586.4055,144.6941" fill="none" id="DimensionComponent-to-RepresentedVariable" style="stroke:#404040;stroke-width:1.2;"/><polygon fill="#404040" points="581.71,148.4294,591.2434,145.9568,585.6229,145.3166,586.2631,139.6961,581.71,148.4294" style="stroke:#404040;stroke-width:1.2;"/><text fill="#000000" font-family="sans-serif" font-size="13" lengthAdjust="spacing" textLength="69.3672" x="640" y="115.1045">isDefinedBy</text><text fill="#000000" font-family="sans-serif" font-size="13" lengthAdjust="spacing" textLength="7.23" x="582.2159" y="137.6241">1</text></g><!--link VariableValueComponent to RepresentedVariable--><g class="link" data-entity-1="ent0013" data-entity-2="ent0002" data-link-type="dependency" data-source-line="27" id="lnk14"><path codeLine="27" d="M835.9,70.6994 C806.89,82.9894 759.43,102.7894 718,118.6094 C684.01,131.5894 651.6949,143.1823 619.5749,154.3923" fill="none" id="VariableValueComponent-to-RepresentedVariable" style="stroke:#404040;stroke-width:1.2;"/><polygon fill="#404040" points="613.91,156.3694,623.7254,157.1804,618.6308,154.7218,621.0893,149.6272,613.91,156.3694" style="stroke:#404040;stroke-width:1.2;"/><text fill="#000000" font-family="sans-serif" font-size="13" lengthAdjust="spacing" textLength="69.3672" x="763" y="115.1045">isDefinedBy</text><text fill="#000000" font-family="sans-serif" font-size="13" lengthAdjust="spacing" textLength="7.23" x="621.8842" y="150.3355">1</text></g><!--link RepresentedVariable to SubstantiveValueDomain--><g class="link" data-entity-1="ent0002" data-entity-2="ent0015" data-link-type="dependency" data-source-line="29" id="lnk16"><path codeLine="29" d="M466.25,195.0394 C429.8,203.8994 387.26,219.4594 357,246.6094 C342.72,259.4194 336.6679,275.2398 333.1279,288.5898" fill="none" id="RepresentedVariable-to-SubstantiveValueDomain" style="stroke:#404040;stroke-width:1.2;"/><polygon fill="#404040" points="331.59,294.3894,337.7632,286.7153,332.8716,289.5564,330.0304,284.6648,331.59,294.3894" style="stroke:#404040;stroke-width:1.2;"/><text fill="#000000" font-family="sans-serif" font-size="13" lengthAdjust="spacing" textLength="169.0825" x="358" y="261.1045">takesSubstantiveValuesFrom</text><text fill="#000000" font-family="sans-serif" font-size="13" lengthAdjust="spacing" textLength="19.5127" x="310.0197" y="283.7767">0..*</text></g><!--link RepresentedVariable to SentinelValueDomain--><g class="link" data-entity-1="ent0002" data-entity-2="ent0017" data-link-type="dependency" data-source-line="31" id="lnk18"><path codeLine="31" d="M537.68,216.7094 C536.93,231.3894 536.43,248.8594 537,264.6094 C537.36,274.7194 537.7192,280.2012 538.4292,288.5112" fill="none" id="RepresentedVariable-to-SentinelValueDomain" style="stroke:#404040;stroke-width:1.2;"/><polygon fill="#404040" points="538.94,294.4894,542.1593,285.1815,538.5144,289.5075,534.1884,285.8626,538.94,294.4894" style="stroke:#404040;stroke-width:1.2;"/><text fill="#000000" font-family="sans-serif" font-size="13" lengthAdjust="spacing" textLength="148.1289" x="538" y="261.1045">takesSentinelValuesFrom</text><text fill="#000000" font-family="sans-serif" font-size="13" lengthAdjust="spacing" textLength="19.5127" x="515.606" y="283.5319">0..*</text></g><!--link RepresentedVariable to UnitType--><g class="link" data-entity-1="ent0002" data-entity-2="ent0019" data-link-type="dependency" data-source-line="33" id="lnk20"><path codeLine="33" d="M613.6,204.3394 C639.93,214.2094 668.6,228.0094 691,246.6094 C706.96,259.8594 716.2091,275.9234 722.4391,289.1234" fill="none" id="RepresentedVariable-to-UnitType" style="stroke:#404040;stroke-width:1.2;"/><polygon fill="#404040" points="725,294.5494,724.776,284.7031,722.8659,290.0277,717.5413,288.1176,725,294.5494" style="stroke:#404040;stroke-width:1.2;"/><text fill="#000000" font-family="sans-serif" font-size="13" lengthAdjust="spacing" textLength="57.0781" x="707" y="261.1045">measures</text><text fill="#000000" font-family="sans-serif" font-size="13" lengthAdjust="spacing" textLength="21.6836" x="697.7436" y="283.6167">0..1</text></g><!--link InstanceVariable to RepresentedVariable--><g class="link" data-entity-1="ent0021" data-entity-2="ent0002" data-link-type="dependency" data-source-line="35" id="lnk22"><path codeLine="35" d="M986.5,70.6594 C951.68,83.5594 892.81,104.4794 841,118.6094 C764.25,139.5294 680.7803,156.35 619.4703,167.67" fill="none" id="InstanceVariable-to-RepresentedVariable" style="stroke:#404040;stroke-width:1.2;"/><polygon fill="#404040" points="613.57,168.7594,623.1467,171.0588,618.4869,167.8515,621.6941,163.1918,613.57,168.7594" style="stroke:#404040;stroke-width:1.2;"/><text fill="#000000" font-family="sans-serif" font-size="13" lengthAdjust="spacing" textLength="27.46" x="900" y="115.1045">uses</text><text fill="#000000" font-family="sans-serif" font-size="13" lengthAdjust="spacing" textLength="7.23" x="621.9903" y="181.6168">1</text></g><?plantuml-src bPJ1Ru8m5CRl_1KlUDioesOd3qjK8DbXb-cyB3iyuJaRQKlQCkCM__SL7AXG5u4BV5_BxtkyjeQPbE2LCaMQXA5aYOhXAYLlmnA2cAcuUYQUcJrmuYjIsjDR9Z9Ko45lC94x9ZvXZQccCsUYbDmjDYpU2j8QXltHcHcdQBKV3ux3PZAL2dgFW-AsubIgX5HJZQGmS_PDC1nv1yyxViDtnFS1jQiiw4LX5Cx24dmla1ECGHjLn7yVVXHYGcicc65IN5e73rVs5MFpbzqFqE3Sg3mskQAPv9aK5bQYtHRqmlBohjWF3q_W3trdy34m7HJHA9dkgygV4pk8hLdnfyxn3hrckxpEu1T2tIgwATR8bj6PDp6s4QlSD8XjkMOwhCxKW74Isgw4HdDRygcnRQipjNANcEQDUjrMJRzYTqump-rAHxjAlewV2YH79ie4RgjEu4AK-46_V-TVcpq6WrlIJLT7Il8wKx5g1QMjG6tzvZIEgLMKS-iYnviz6nRxx7Z2L2yt4Mq7wl5ZUv2MUqBNMraKjSTqSO8rnTCcRXh_zpZN5lGB?></g></svg>