<svg xmlns="http://www.w3.org/2000/svg" xmlns:xlink="http://www.w3.org/1999/xlink" contentStyleType="text/css" data-diagram-type="CLASS" height="316px" preserveAspectRatio="none" style="width:487px;height:316px;background:#FFFFFF;" version="1.1" viewBox="0 0 487 316" width="487px" zoomAndPan="magnify"><?plantuml 1.2026.3?><defs/><g><g class="title" data-source-line="1"><text fill="#000000" font-family="sans-serif" font-size="14" font-weight="700" lengthAdjust="spacing" textLength="129.917" x="175.2792" y="24.5332">StatisticsCollection</text></g><!--class StatisticsCollection--><g class="entity" data-qualified-name="StatisticsCollection" data-source-line="12" id="ent0002"><rect fill="#FEFECE" height="50.7031" rx="2.5" ry="2.5" style="stroke:#404040;stroke-width:0.5;" width="179.3027" x="143.95" y="148.6094"/><text fill="#000000" font-family="sans-serif" font-size="12" lengthAdjust="spacing" textLength="100.7051" x="183.2488" y="166.0664">StatisticsCollection</text><line style="stroke:#404040;stroke-width:0.5;" x1="144.95" x2="322.2527" y1="173.7031" y2="173.7031"/><g data-visibility-modifier="PUBLIC_FIELD"><ellipse cx="154.95" cy="188.0078" fill="none" rx="3" ry="3" style="stroke:#038048;stroke-width:1;"/></g><text fill="#000000" font-family="sans-serif" font-size="14" lengthAdjust="spacing" textLength="153.3027" x="163.95" y="192.2363">identifier : Identifier [0..1]</text></g><!--class InstanceVariable--><g class="entity" data-qualified-name="InstanceVariable" data-source-line="15" id="ent0003"><rect fill="#EEEEEE" height="25.0938" rx="2.5" ry="2.5" style="stroke:#404040;stroke-width:0.5;" width="95.3906" x="82.95" y="277.6094"/><text fill="#000000" font-family="sans-serif" font-size="12" lengthAdjust="spacing" textLength="89.3906" x="85.95" y="295.0664">InstanceVariable</text></g><!--class Statistics--><g class="entity" data-qualified-name="Statistics" data-source-line="17" id="ent0005"><rect fill="#EEEEEE" height="25.0938" rx="2.5" ry="2.5" style="stroke:#404040;stroke-width:0.5;" width="54.0117" x="331.45" y="277.6094"/><text fill="#000000" font-family="sans-serif" font-size="12" lengthAdjust="spacing" textLength="48.0117" x="334.45" y="295.0664">Statistics</text></g><!--class Dataset--><g class="entity" data-qualified-name="Dataset" data-source-line="21" id="ent0009"><rect fill="#EEEEEE" height="25.0938" rx="2.5" ry="2.5" style="stroke:#404040;stroke-width:0.5;" width="47.3555" x="209.95" y="45.6094"/><text fill="#000000" font-family="sans-serif" font-size="12" lengthAdjust="spacing" textLength="41.3555" x="212.95" y="63.0664">Dataset</text></g><!--class Identifier--><g class="entity" data-qualified-name="Identifier" data-source-line="23" id="ent0011"><rect fill="#EEEEEE" height="25.0938" rx="2.5" ry="2.5" style="stroke:#404040;stroke-width:0.5;" width="52.0254" x="420.45" y="277.6094"/><text fill="#000000" font-family="sans-serif" font-size="12" lengthAdjust="spacing" textLength="46.0254" x="423.45" y="295.0664">Identifier</text></g><!--link InstanceVariable to StatisticsCollection--><g class="link" data-entity-1="ent0003" data-entity-2="ent0002" data-link-type="dependency" data-source-line="16" id="lnk4"><path codeLine="16" d="M154.15,277.5394 C167.22,270.2894 183.06,259.9794 194.45,247.6094 C207.24,233.7394 214.7738,220.3725 221.4338,205.3825" fill="none" id="InstanceVariable-to-StatisticsCollection" style="stroke:#404040;stroke-width:1.2;"/><polygon fill="#404040" points="223.87,199.8994,216.5603,206.5,221.8399,204.4687,223.8712,209.7482,223.87,199.8994" style="stroke:#404040;stroke-width:1.2;"/><text fill="#000000" font-family="sans-serif" font-size="13" lengthAdjust="spacing" textLength="83.0845" x="209.45" y="244.1045">isDescribedBy</text><text fill="#000000" font-family="sans-serif" font-size="13" lengthAdjust="spacing" textLength="21.6836" x="198.5192" y="220.857">0..1</text></g><!--link StatisticsCollection to InstanceVariable--><g class="link" data-entity-1="ent0002" data-entity-2="ent0003" data-link-type="dependency" data-source-line="19" id="lnk7"><path codeLine="19" d="M143.79,187.5594 C94.51,196.4394 40.39,210.2494 25.45,229.6094 C6,254.8194 40.8383,269.6176 77.0883,278.6576" fill="none" id="StatisticsCollection-to-InstanceVariable" style="stroke:#404040;stroke-width:1.2;"/><polygon fill="#404040" points="82.91,280.1094,75.1453,274.0505,78.0586,278.8995,73.2096,281.8128,82.91,280.1094" style="stroke:#404040;stroke-width:1.2;"/><text fill="#000000" font-family="sans-serif" font-size="13" lengthAdjust="spacing" textLength="60.709" x="26.45" y="244.1045">indexedBy</text><text fill="#000000" font-family="sans-serif" font-size="13" lengthAdjust="spacing" textLength="19.5127" x="55.5412" y="274.9797">1..*</text></g><!--link StatisticsCollection to InstanceVariable--><g class="link" data-entity-1="ent0002" data-entity-2="ent0003" data-link-type="dependency" data-source-line="20" id="lnk8"><path codeLine="20" d="M155.81,199.6994 C142.94,207.2594 131.26,217.0194 123.45,229.6094 C114.46,244.0994 117.6505,258.871 122.7005,271.621" fill="none" id="StatisticsCollection-to-InstanceVariable-1" style="stroke:#404040;stroke-width:1.2;"/><polygon fill="#404040" points="124.91,277.1994,125.3147,267.3588,123.0688,272.5507,117.8769,270.3048,124.91,277.1994" style="stroke:#404040;stroke-width:1.2;"/><text fill="#000000" font-family="sans-serif" font-size="13" lengthAdjust="spacing" textLength="61.4199" x="124.45" y="244.1045">hasWeight</text><text fill="#000000" font-family="sans-serif" font-size="13" lengthAdjust="spacing" textLength="21.6836" x="97.8506" y="266.7717">0..1</text></g><!--link StatisticsCollection to Statistics--><g class="link" data-entity-1="ent0002" data-entity-2="ent0005" data-link-type="dependency" data-source-line="18" id="lnk6"><path codeLine="18" d="M266,199.7794 C277.48,208.8394 290.29,219.3894 301.45,229.6094 C318.55,245.2594 332.8096,260.4755 343.9396,272.8055" fill="none" id="StatisticsCollection-to-Statistics" style="stroke:#404040;stroke-width:1.2;"/><polygon fill="#404040" points="347.96,277.2594,344.8987,267.8984,344.6097,273.5478,338.9602,273.2589,347.96,277.2594" style="stroke:#404040;stroke-width:1.2;"/><text fill="#000000" font-family="sans-serif" font-size="13" lengthAdjust="spacing" textLength="20.96" x="320.45" y="244.1045">has</text><text fill="#000000" font-family="sans-serif" font-size="13" lengthAdjust="spacing" textLength="19.5127" x="321.4343" y="266.8546">1..*</text></g><!--link Dataset to StatisticsCollection--><g class="link" data-entity-1="ent0009" data-entity-2="ent0002" data-link-type="dependency" data-source-line="22" id="lnk10"><path codeLine="22" d="M233.45,70.8794 C233.45,89.0794 233.45,118.4694 233.45,142.4394" fill="none" id="Dataset-to-StatisticsCollection" style="stroke:#404040;stroke-width:1.2;"/><polygon fill="#404040" points="233.45,148.4394,237.45,139.4394,233.45,143.4394,229.45,139.4394,233.45,148.4394" style="stroke:#404040;stroke-width:1.2;"/><text fill="#000000" font-family="sans-serif" font-size="13" lengthAdjust="spacing" textLength="49.8418" x="234.45" y="115.1045">statistics</text><text fill="#000000" font-family="sans-serif" font-size="13" lengthAdjust="spacing" textLength="19.5127" x="212.16" y="137.8065">0..*</text></g><!--link StatisticsCollection to Identifier--><g class="link" data-entity-1="ent0002" data-entity-2="ent0011" data-link-type="dependency" data-source-line="24" id="lnk12"><path codeLine="24" d="M288.95,199.6594 C308.33,208.6294 330.07,219.1494 349.45,229.6094 C377.97,244.9894 404.7289,261.8202 423.8889,274.2702" fill="none" id="StatisticsCollection-to-Identifier" style="stroke:#404040;stroke-width:1.2;"/><polygon fill="#404040" points="428.92,277.5394,423.5527,269.2815,424.7274,274.815,419.1938,275.9897,428.92,277.5394" style="stroke:#404040;stroke-width:1.2;"/><text fill="#000000" font-family="sans-serif" font-size="13" lengthAdjust="spacing" textLength="49.1372" x="380.45" y="244.1045">identifier</text><text fill="#000000" font-family="sans-serif" font-size="13" lengthAdjust="spacing" textLength="21.6836" x="396.4934" y="266.6025">0..1</text></g><?plantuml-src XL8xRy8m4DxzAqvXeo8Yg1D3fG91OgPgXwg3SGvomh6HpnAbLVzxJLv444IysD_bleVFdhn6M7lfYJqfdbkjKNcoHkIK8IXoIcErn-BWJr1WiK77WlTa3jB90ZYNcJsIsS5MQiPEvTKvUtpBIUqDCaCIJpf5fMN0VWLKlmLbws3mF3wl0Cwioz1Teqjh_9f-49A9-1EYueZw_4SWkJSO39RfCfsdfVHJ26OyRGaTJ65rENoEupZv2XgrnCgmbqRXktGaDnfB-ciG1cdvYPl2QFG2qPaowlSq1U85idAqmMnskWrs5QTLwcKhrP8u7dRLWaOk-M73ZVLWpMJuNTgwtrnbwsaEcXz8kzmtcHRIIqPV1ghtRPhct50ExruNjt0xeNPurMmkitnyLxNxxbkuF0pn3m00?></g></svg>